<svg xmlns="http://www.w3.org/2000/svg" xmlns:xlink="http://www.w3.org/1999/xlink" version="1.1" width="471.7963391939888" height="322.24455086391066" viewBox="2.0792240301723535 1.643623749410635 471.7963391939888 322.24455086391066">
  <defs>
    <linearGradient id="grad_1" y2="1" x2="0">
      <stop offset="0" stop-color="#222325" stop-opacity="1"/>
      <stop offset="1" stop-color="#2E3034" stop-opacity="1"/>
    </linearGradient>
  </defs>
  <!-- Exported by Scratch - http://scratch.mit.edu/ -->
  <path id="ID0.7927394988946617" fill="#0D0D0D" stroke="#0D0D0D" stroke-width="1.2400576754113983" stroke-linecap="round" d="M 336.7308 120.2312 L 354.4468 129.2547 L 361.9858 145.0315 L 384.3603 150.8008 L 402.451 153.3363 L 413.6302 152.5224 L 473.0463 179.7161 L 462.3815 180.1175 L 449.3258 182.8068 L 439.6777 188.6915 L 431.4521 185.2844 L 427.0238 184.2413 L 420.1198 183.22 L 413.3288 183.1826 L 405.5054 183.4913 L 400.488 184.0322 L 394.0209 186.0322 L 389.9953 187.7043 L 384.2965 192.3485 L 380.6289 196.3642 L 377.4372 201.1838 L 376.0229 214.1742 L 367.7047 203.8017 L 359.7735 197.2314 L 353.758 193.6821 L 348.4083 191.8589 L 341.7647 189.7395 L 336.933 190.3538 L 333.2671 195.1092 L 327.3 211.3801 L 319.2028 196.0138 L 313.2402 188.4206 L 308.8822 182.9862 L 304.0275 178.9876 L 297.5675 174.8315 L 293.1835 172.7897 L 286.1714 170.6324 L 279.719 168.8042 L 272.3079 169.1529 L 260.8299 177.0237 L 260.3693 164.2773 L 257.5101 158.6043 L 250.7371 153.847 L 244.9891 150.1572 L 238.763 146.925 L 224.5371 142.2534 L 278.6158 84.8063 L 336.7308 120.2312 Z "/>
  <path id="ID0.7927394988946617" fill="#0D0D0D" stroke="#0D0D0D" stroke-width="1.2400576829541587" stroke-linecap="round" d="M 150.2232 98.4065 L 130.7287 102.3106 L 119.2092 115.4653 L 96.1081 114.9781 L 78.0047 112.534 L 67.4607 108.7314 L 2.9085 118.8696 L 13.0686 122.1361 L 24.913 128.2511 L 32.6135 136.5226 L 41.4536 135.4634 L 45.999 135.655 L 52.9223 136.536 L 59.4712 138.3339 L 66.9205 140.7439 L 71.6054 142.6196 L 77.2922 146.2917 L 80.7166 148.9888 L 84.9496 154.9994 L 87.3964 159.8563 L 89.168 165.3588 L 87.0218 178.2485 L 97.832 170.5076 L 107.2428 166.3232 L 113.9933 164.5303 L 119.6366 164.2195 L 126.6057 163.973 L 131.092 165.8693 L 133.3375 171.4379 L 134.689 188.7157 L 146.635 176.107 L 154.4266 170.4061 L 160.0902 166.3505 L 165.8443 163.8115 L 173.1867 161.5542 L 177.9593 160.7722 L 185.2934 160.5887 L 191.9997 160.5709 L 199.0413 162.9079 L 207.9674 173.586 L 211.8531 161.4375 L 216.138 156.7474 L 223.9441 153.9959 L 230.4749 151.9954 L 237.3425 150.5647 L 252.3015 149.9084 L 215.7455 79.9917 L 150.2232 98.4065 Z "/>
  <g id="ID0.9602425838820636">
    <g id="ID0.17693647183477879">
      <path id="ID0.7729651997797191" fill="#393C40" stroke="none" stroke-linecap="round" d="M 289.1787 87.6855 L 279.6282 104.4694 L 295.079 110.3611 L 307.4949 115.2036 L 314.0821 115.0828 L 318.6626 114.1183 L 322.484 102.1988 L 318.4989 97.9729 L 299.6447 91.9536 L 289.1787 87.6855 Z " stroke-width="0.7788098515169108"/>
      <path id="ID0.9716172609478235" fill="#34373A" stroke="none" stroke-linecap="round" d="M 291.6734 94.0542 L 292.3341 88.9064 L 286.1368 87.0035 L 284.5194 106.4503 L 288.5072 105.6107 L 292.8792 102.1857 L 291.6734 94.0542 Z " stroke-width="0.7788098515169108"/>
      <g id="ID0.38066427363082767">
        <path id="ID0.4757494777441025" fill="#1D1E1F" stroke="none" stroke-linecap="round" d="M 264.3902 82.166 L 258.2125 87.8975 L 253.8009 103.1852 L 278.4341 109.8956 L 287.8248 104.226 L 291.0376 101.17 L 290.81 97.3616 L 289.9209 93.5284 L 290.8055 87.5986 L 286.4925 84.6504 L 279.6529 81.0035 L 271.3205 79.2298 L 264.3902 82.166 Z " stroke-width="0.4541860357230332"/>
        <path id="ID0.6007084371522069" fill="none" stroke="#0D0D0D" stroke-width="0.9083720714460664" stroke-linecap="round" d="M 290.8428 88.1651 L 289.9829 93.4332 L 290.6985 98.7799 L 291.1327 101.232 L 287.8248 104.226 L 283.7228 106.5666 "/>
      </g>
    </g>
    <g id="ID0.7397577832452953">
      <path id="ID0.6726378230378032" fill="#34373A" stroke="none" stroke-linecap="round" d="M 315.7966 97.0232 L 314.5933 114.6946 L 316.8453 115.2334 L 317.7054 97.8031 L 315.7966 97.0232 Z " stroke-width="0.7788098515169108"/>
      <path id="ID0.6507829907350242" fill="#1D1E1F" stroke="none" stroke-linecap="round" d="M 318.4137 94.8955 L 316.6773 115.3805 L 332.0573 124.9452 L 341.6014 128.8447 L 354.4854 137.2466 L 359.3852 141.1392 L 367.291 132.5805 L 362.1785 129.0141 L 355.3074 122.4413 L 346.8479 113.6705 L 340.1399 107.2041 L 318.4137 94.8955 Z " stroke-width="0.7788098515169108"/>
      <path id="ID0.6829322893172503" fill="#1D1E1F" stroke="none" stroke-linecap="round" d="M 367.1775 132.0416 L 357.6762 137.7003 L 360.378 143.1812 L 362.9805 149.5273 L 367.547 152.5052 L 371.6171 154.462 L 375.127 154.4264 L 381.2534 156.7945 L 383.5364 152.9371 L 382.5436 150.895 L 383.2314 149.484 L 382.8129 145.4919 L 382.1746 141.1241 L 379.6501 137.1535 L 373.5166 134.0834 L 367.1775 132.0416 Z " stroke-width="0.7788098515169108"/>
      <path id="ID0.47767175547778606" fill="none" stroke="#0D0D0D" stroke-width="1.5576197030338217" stroke-linecap="round" d="M 321.5776 96.9588 L 318.167 95.0601 L 316.7198 115.3153 L 328.0779 122.3502 "/>
      <path id="ID0.5922487881034613" fill="#282A2B" stroke="none" stroke-linecap="round" d="M 346.2022 111.8336 L 338.0212 114.5412 L 334.8958 119.4764 L 336.4248 127.5398 L 349.14 134.2045 L 357.6205 134.3885 L 359.4285 131.616 L 356.7479 122.8946 L 346.2022 111.8336 Z " stroke-width="0.7788098515169108"/>
      <path id="ID0.36820242274552584" fill="#151616" stroke="none" stroke-linecap="round" d="M 345.0284 118.1872 L 340.5389 124.9292 L 351.1409 128.7748 L 351.8627 127.5254 L 345.0284 118.1872 Z " stroke-width="0.7788098515169108"/>
      <path id="ID0.13569410238415003" fill="none" stroke="#232425" stroke-width="1.5576197030338217" stroke-linecap="round" d="M 354.2268 123.4567 L 356.9896 131.7669 L 348.3958 132.1132 "/>
      <path id="ID0.024502143263816833" fill="none" stroke="#0D0D0D" stroke-width="1.5576197030338217" stroke-linecap="round" d="M 345.6651 112.0624 L 338.1279 114.3529 L 334.7841 119.0528 L 336.2706 127.1814 L 343.5883 130.9307 "/>
    </g>
  </g>
  <path id="ID0.3809091211296618" fill="#393D40" stroke="none" stroke-linecap="round" d="M 242.0455 181.4701 L 257.5026 157.4792 L 280.5667 188.6721 L 285.5166 198.4348 L 290.4436 216.3823 L 284.499 223.1657 L 274.1706 231.0888 L 263.2583 213.3582 L 258.8311 202.7908 L 242.0455 181.4701 Z " stroke-width="0.7305889417216171"/>
  <g id="ID0.8669879510998726">
    <path id="ID0.5368814701214433" fill="#292D2E" stroke="none" stroke-linecap="round" d="M 253.4875 305.1896 L 257.1618 296.6584 L 262.473 287.858 L 271.8751 294.5989 L 282.4002 303.2269 L 298.8494 315.1143 L 299.3309 321.7009 L 274.6286 320.6291 L 253.8051 315.046 L 253.4875 305.1896 Z " stroke-width="0.7702165369644107"/>
    <path id="ID0.05466862628236413" fill="#292D2E" stroke="none" stroke-linecap="round" d="M 264.4484 216.5627 L 291.1339 214.8653 L 284.7454 233.2611 L 282.7676 238.1576 L 280.7092 256.1831 L 274.2268 296.4166 L 258.4519 297.0202 L 258.0657 274.7744 L 256.0445 265.9472 L 255.4815 256.4444 L 258.6501 243.1495 L 259.6507 230.869 L 264.4484 216.5627 Z " stroke-width="0.7305889772349452"/>
    <path id="ID0.4490455654449761" fill="none" stroke="#272A2B" stroke-width="1.6585523287544137" stroke-linecap="round" d="M 264.1658 216.7436 L 290.8725 214.6603 L 282.1269 238.4379 "/>
    <path id="ID0.10446935473009944" fill="none" stroke="#242728" stroke-width="1.6585523287544137" stroke-linecap="round" d="M 280.7879 250.7019 L 279.2567 267.4705 L 268.1482 273.9273 "/>
    <path id="ID0.42170455446466804" fill="none" stroke="#242728" stroke-width="1.6585523287544137" stroke-linecap="round" d="M 278.0632 268.5412 L 275.3882 283.4358 L 264.0446 290.0677 "/>
    <path id="ID0.047098892275244" fill="none" stroke="#242728" stroke-width="1.6585523287544137" stroke-linecap="round" d="M 259.9579 230.6933 L 259.1672 234.5533 L 262.9299 243.7443 "/>
  </g>
  <path id="ID0.3809091211296618" fill="#3E4246" stroke="none" stroke-linecap="round" d="M 210.7129 158.052 L 236.2751 162.1425 L 250.5679 194.6916 L 252.8936 204.4581 L 253.2191 221.6385 L 245.952 226.6842 L 234.2596 231.9497 L 227.2577 213.2717 L 221.7344 202.2809 L 210.7129 158.052 Z " stroke-width="0.6978164285997484"/>
  <g id="ID0.38464318960905075">
    <path id="ID0.5368814701214433" fill="#303436" stroke="none" stroke-linecap="round" d="M 211.9098 303.4262 L 216.1636 295.1686 L 222.0689 286.7553 L 230.9839 294.1284 L 240.889 303.4616 L 256.4795 316.4548 L 256.5057 323.0589 L 231.9361 320.2865 L 211.5471 313.281 L 211.9098 303.4262 Z " stroke-width="0.7702165222370569"/>
    <path id="ID0.05466862628236413" fill="#303436" stroke="none" stroke-linecap="round" d="M 228.9957 215.2334 L 255.7347 215.38 L 248.093 233.2915 L 245.7824 238.04 L 242.486 255.8806 L 233.2451 295.5715 L 217.4661 295.086 L 218.6146 272.8664 L 217.2068 263.9209 L 217.3004 254.402 L 221.3781 241.3571 L 223.223 229.1748 L 228.9957 215.2334 Z " stroke-width="0.730588953464804"/>
    <path id="ID0.4490455654449761" fill="none" stroke="#272A2B" stroke-width="1.6585523071509802" stroke-linecap="round" d="M 228.699 216.0261 L 255.4857 215.7891 L 245.1216 238.907 "/>
    <path id="ID0.10446935473009944" fill="none" stroke="#242728" stroke-width="1.6585523071509802" stroke-linecap="round" d="M 242.9401 251.0496 L 240.2564 267.6727 L 228.7292 273.3482 "/>
    <path id="ID0.42170455446466804" fill="none" stroke="#242728" stroke-width="1.6585523071509802" stroke-linecap="round" d="M 238.9919 268.6585 L 235.2964 283.3333 L 223.5225 289.1673 "/>
    <path id="ID0.047098892275244" fill="none" stroke="#242728" stroke-width="1.6585523071509802" stroke-linecap="round" d="M 223.5115 229.5943 L 222.4565 233.3905 L 225.5766 242.8191 "/>
  </g>
  <g id="ID0.9602425838820636">
    <g id="ID0.17693647183477879">
      <path id="ID0.7729651997797191" fill="#3E4246" stroke="none" stroke-linecap="round" d="M 202.9896 75.2921 L 209.6402 94.413 L 192.5902 97.5455 L 178.8686 100.174 L 172.1008 98.7955 L 167.5623 96.9292 L 165.8919 83.9137 L 170.8046 80.3159 L 191.3876 77.6998 L 202.9896 75.2921 Z " stroke-width="0.8164595780131225"/>
      <path id="ID0.9716172609478235" fill="#393C40" stroke="none" stroke-linecap="round" d="M 199.2054 81.3828 L 199.5043 75.95 L 206.2554 75.1681 L 204.2207 95.524 L 200.2695 93.8992 L 196.4144 89.5361 L 199.2054 81.3828 Z " stroke-width="0.8164595780131225"/>
      <g id="ID0.38066427363082767">
        <path id="ID0.4757494777441025" fill="#1D1E1F" stroke="none" stroke-linecap="round" d="M 229.6251 74.3091 L 234.9026 81.3938 L 236.5402 97.9939 L 209.8681 100.2223 L 201.2665 92.5897 L 198.5361 88.8277 L 199.4957 84.9448 L 201.1421 81.1624 L 201.3589 74.8809 L 206.3665 72.6626 L 214.1119 70.205 L 223.0394 69.9628 L 229.6251 74.3091 Z " stroke-width="0.4761425573017307"/>
        <path id="ID0.6007084371522069" fill="none" stroke="#0D0D0D" stroke-width="0.9522851146034614" stroke-linecap="round" d="M 201.2127 75.4578 L 201.0963 81.0525 L 199.3407 86.4283 L 198.4262 88.8735 L 201.2665 92.5897 L 205.0497 95.7836 "/>
      </g>
    </g>
    <g id="ID0.7397577832452953">
      <path id="ID0.6726378230378032" fill="#393C40" stroke="none" stroke-linecap="round" d="M 173.8277 79.7807 L 171.7041 98.2274 L 169.2799 98.3541 L 171.7114 80.2213 L 173.8277 79.7807 Z " stroke-width="0.8164595780131225"/>
      <path id="ID0.6507829907350242" fill="#1D1E1F" stroke="none" stroke-linecap="round" d="M 171.4783 77.1596 L 169.3687 98.6084 L 151.6925 105.5408 L 141.1109 107.744 L 126.2291 113.9529 L 120.4369 117.033 L 113.916 106.7047 L 119.8655 104.0013 L 128.2003 98.5334 L 138.5909 91.1019 L 146.7373 85.7126 L 171.4783 77.1596 Z " stroke-width="0.8164595780131225"/>
      <path id="ID0.6829322893172503" fill="#1D1E1F" stroke="none" stroke-linecap="round" d="M 114.1356 106.1708 L 122.8533 113.8132 L 119.0246 118.9492 L 115.1336 124.996 L 109.859 127.1966 L 105.2906 128.4392 L 101.679 127.7343 L 94.9124 129.0093 L 93.2931 124.598 L 94.7053 122.6818 L 94.2649 121.0962 L 95.4563 117.0604 L 96.9459 112.6791 L 100.3042 109.0663 L 107.2118 107.069 L 114.1356 106.1708 Z " stroke-width="0.8164595780131225"/>
      <path id="ID0.47767175547778606" fill="none" stroke="#0D0D0D" stroke-width="1.632919156026245" stroke-linecap="round" d="M 167.8238 78.6843 L 171.7014 77.3762 L 169.3373 98.533 L 156.2888 103.6232 "/>
      <path id="ID0.5922487881034613" fill="#282A2B" stroke="none" stroke-linecap="round" d="M 139.7256 89.3491 L 147.6442 93.6977 L 149.9267 99.3805 L 146.8153 107.4021 L 132.4383 111.8522 L 123.6607 110.4275 L 122.3246 107.2251 L 126.7483 98.7444 L 139.7256 89.3491 Z " stroke-width="0.8164595780131225"/>
      <path id="ID0.36820242274552584" fill="#151616" stroke="none" stroke-linecap="round" d="M 139.5977 96.1717 L 142.9425 103.9768 L 131.2806 105.9229 L 130.7744 104.4975 L 139.5977 96.1717 Z " stroke-width="0.8164595780131225"/>
      <path id="ID0.13569410238415003" fill="none" stroke="#232425" stroke-width="1.632919156026245" stroke-linecap="round" d="M 129.1209 99.786 L 124.6907 107.827 L 133.4843 109.8201 "/>
      <path id="ID0.024502143263816833" fill="none" stroke="#0D0D0D" stroke-width="1.632919156026245" stroke-linecap="round" d="M 140.1164 89.6693 L 147.4506 93.4655 L 150.0031 98.9472 L 146.9231 107.0441 L 138.6655 109.5162 "/>
    </g>
  </g>
  <g id="ID0.9157347986474633">
    <path id="ID0.7477802094072104" fill="#363A3D" stroke="none" stroke-linecap="round" d="M 272.611 127.6223 L 253.8364 121.3673 L 247.0893 161.9972 L 262.0667 173.5343 L 268.3383 149.7186 L 272.611 127.6223 Z " stroke-width="0.4761425839687243"/>
    <path id="ID0.7477802094072104" fill="#363A3D" stroke="none" stroke-linecap="round" d="M 213.0461 117.7344 L 236.6473 118.7576 L 229.9002 159.3876 L 211.9979 165.4646 L 210.7107 139.7904 L 213.0461 117.7344 Z " stroke-width="0.4761425839687243"/>
    <path id="ID0.4270821204409003" fill="#3E4246" stroke="none" stroke-linecap="round" d="M 216.6623 97.9905 L 222.4675 86.2846 L 225.6541 80.9012 L 233.2631 75.0454 L 263.6777 81.5441 L 269.7865 86.9025 L 271.9418 91.3631 L 276.998 103.7866 L 274.5774 114.0032 L 272.741 119.2489 L 273.2539 126.3327 L 272.8266 131.8124 L 269.5819 138.2722 L 267.1269 143.1738 L 264.4316 152.1381 L 262.3232 173.9905 L 255.9048 181.2506 L 250.1663 186.5964 L 237.323 189.966 L 226.3808 185.084 L 223.6055 177.8176 L 219.7735 170.6653 L 211.8492 166.212 L 214.8755 141.0128 L 214.7932 134.2418 L 212.156 122.22 L 212.6388 111.3196 L 216.6623 97.9905 Z " stroke-width="0.4761425839687243"/>
    <path id="ID0.052435632329434156" fill="#393C40" stroke="none" stroke-linecap="round" d="M 220.4851 149.1931 L 224.8691 149.9694 L 230.8364 154.2907 L 235.8661 154.957 L 241.3745 157.6817 L 245.6835 157.3113 L 247.4055 157.1146 L 261.984 156.0845 L 261.7981 159.384 L 252.6608 162.0899 L 246.8401 160.8096 L 240.8218 162.8992 L 234.8231 158.3314 L 228.4118 157.7011 L 219.2893 152.3249 L 220.4851 149.1931 Z " stroke-width="0.4761425839687243"/>
    <path id="ID0.4987568911164999" fill="none" stroke="#27282B" stroke-width="0.9522851679374486" stroke-linecap="round" d="M 232.9489 75.6799 L 225.5938 80.7331 L 220.6678 90.051 "/>
    <path id="ID0.2889464790932834" fill="none" stroke="#27282B" stroke-width="0.9522851679374486" stroke-linecap="round" d="M 264.89 82.4321 L 269.9026 87.1258 L 274.0181 97.2211 "/>
    <path id="ID0.8373676878400147" fill="#000000" stroke="#2C2F31" stroke-width="0.6155104059455094" stroke-linecap="round" d="M 234.3949 89.1234 L 234.9853 87.6694 L 231.2458 87.9751 L 225.9119 90.4833 L 221.0169 94.7982 L 217.6838 99.959 L 223.1185 98.5665 L 227.772 99.2183 L 230.3344 100.5681 L 232.3569 103.9297 L 234.5991 103.2604 L 238.6013 103.6314 L 242.8876 105.388 L 246.1661 109.1456 L 247.7207 112.4965 L 250.3373 109.8621 L 254.4944 107.3647 L 258.7881 106.6163 L 263.8807 107.4301 L 265.5938 108.3047 L 267.7714 105.5084 L 269.9057 104.5836 L 272.389 105.5267 L 274.8974 107.5711 L 274.0914 103.5797 L 272.4686 99.3544 L 270.1438 95.9351 L 267.3727 93.2141 L 263.0576 91.6086 L 264.9037 93.8401 L 264.5725 95.5784 L 262.6577 97.4066 L 258.9362 98.029 L 255.7655 97.8165 L 253.167 97.478 L 251.2598 93.5117 L 250.493 95.4803 L 249.057 95.2067 L 247.9163 92.5614 L 246.2929 96.5598 L 242.244 96.0233 L 238.3211 94.4142 L 235.2405 92.4957 L 234.3949 89.1234 Z "/>
    <path id="ID0.5698574706912041" fill="none" stroke="#313537" stroke-width="0.9522851679374486" stroke-linecap="round" d="M 220.442 149.017 L 219.3283 152.09 L 228.3923 157.8185 L 235.1442 158.5777 L 240.6065 162.7428 "/>
    <path id="ID0.5698574706912041" fill="none" stroke="#313537" stroke-width="0.8933066562151265" stroke-linecap="round" d="M 261.7304 156.1221 L 261.7157 159.3776 L 252.5368 162.0766 L 246.7604 160.7554 L 241.0131 163.059 "/>
    <path id="ID0.8947288258932531" fill="#393C40" stroke="none" stroke-linecap="round" d="M 223.6915 137.4418 L 230.6392 138.4749 L 237.7721 141.59 L 242.4569 147.9669 L 236.1758 142.4833 L 225.8061 139.2409 L 220.2614 141.3851 L 223.6915 137.4418 Z " stroke-width="0.4761425839687243"/>
    <path id="ID0.8947288258932531" fill="#393C40" stroke="none" stroke-linecap="round" d="M 261.7617 144.7898 L 255.6476 143.6677 L 248.783 144.2363 L 243.0356 148.2368 L 249.8643 145.441 L 259.4762 145.6917 L 263.5064 149.0733 L 261.7617 144.7898 Z " stroke-width="0.42137391058675056"/>
    <path id="ID0.9897695370018482" fill="#393C40" stroke="none" stroke-linecap="round" d="M 225.0884 150.1023 L 218.7079 148.5601 L 219.8911 144.0506 L 220.4921 147.698 L 225.4946 148.6735 L 230.9805 153.1321 L 236.4407 153.6768 L 240.2462 155.7568 L 242.8954 148.2327 L 241.5234 157.9478 L 236.3319 155.0585 L 230.531 154.0952 L 225.0884 150.1023 Z " stroke-width="0.4761425839687243"/>
    <path id="ID0.9897695370018482" fill="#393C40" stroke="none" stroke-linecap="round" d="M 256.9162 155.6362 L 262.4506 156.1063 L 262.8004 151.7877 L 261.2741 154.8336 L 257.002 154.2589 L 251.3445 156.6187 L 246.8308 155.5325 L 243.197 156.2757 L 243.242 148.8765 L 241.549 157.8425 L 246.5211 156.7829 L 251.4269 157.5975 L 256.9162 155.6362 Z " stroke-width="0.4232251200282832"/>
    <path id="ID0.3524594851769507" fill="#393C40" stroke="none" stroke-linecap="round" d="M 241.0583 117.5765 L 246.5239 120.7043 L 251.2979 119.1321 L 247.5503 122.371 L 246.6645 133.5183 L 255.7529 134.1587 L 244.8812 135.9733 L 234.1416 129.4356 L 243.3687 133.0192 L 244.8181 121.8208 L 241.0583 117.5765 Z " stroke-width="0.4761425839687243"/>
    <path id="ID0.9214867809787393" fill="#393C40" stroke="none" stroke-linecap="round" d="M 224.3272 133.6136 L 227.9532 129.9442 L 232.8063 129.7848 L 226.2724 133.5264 L 225.5578 136.3761 L 230.5289 137.2499 L 238.0579 141.7581 L 229.5159 138.409 L 223.7385 137.4496 L 224.3272 133.6136 Z " stroke-width="0.4761425839687243"/>
    <path id="ID0.9214867809787393" fill="#393C40" stroke="none" stroke-linecap="round" d="M 262.0975 140.6749 L 260.0695 136.2617 L 255.9196 134.6513 L 260.4412 140.0084 L 260.1984 142.8008 L 255.6342 142.089 L 248.6133 143.8019 L 256.1603 143.443 L 261.4478 144.3211 L 262.0975 140.6749 Z " stroke-width="0.4451788576535537"/>
    <path id="ID0.8679121839813888" fill="#2C2F31" stroke="none" stroke-linecap="round" d="M 243.1665 116.8081 L 246.659 119.0291 L 250.2161 117.9547 L 250.9995 119.0501 L 246.6876 121.0369 L 241.3707 117.8855 L 243.1665 116.8081 Z " stroke-width="0.4761425839687243"/>
    <path id="ID0.24770551454275846" fill="none" stroke="#313537" stroke-width="0.9522851679374486" stroke-linecap="round" d="M 247.4321 115.6161 L 251.4267 119.8994 L 258.7467 121.5977 L 266.4375 121.7888 L 272.2284 118.8892 "/>
    <path id="ID0.20603158557787538" fill="none" stroke="#313537" stroke-width="0.9522851679374486" stroke-linecap="round" d="M 215.2175 106.1598 L 221.2682 112.5946 L 232.9541 117.7931 L 240.2147 118.3955 L 246.9644 115.5344 "/>
    <g id="ID0.5272086253389716">
      <path id="ID0.24770551454275846" fill="none" stroke="#363A3D" stroke-width="0.9522851066969494" stroke-linecap="round" d="M 213.2397 138.7403 L 223.5284 137.2391 "/>
      <path id="ID0.24770551454275846" fill="none" stroke="#363A3D" stroke-width="0.9522851066969494" stroke-linecap="round" d="M 212.6599 126.6226 L 233.8284 123.8391 "/>
    </g>
    <g id="ID0.5272086253389716">
      <path id="ID0.24770551454275846" fill="none" stroke="#363A3D" stroke-width="0.9522850816809121" stroke-linecap="round" d="M 268.1664 146.9277 L 261.6218 143.9835 "/>
      <path id="ID0.24770551454275846" fill="none" stroke="#363A3D" stroke-width="0.9522850816809121" stroke-linecap="round" d="M 270.5149 135.7468 L 257.6074 128.7772 "/>
    </g>
    <g id="ID0.7887678607366979">
      <path id="ID0.753661650698632" fill="none" stroke="#313537" stroke-width="0.9522851066969494" stroke-linecap="round" d="M 241.5085 117.7719 L 246.2853 120.9784 L 250.7068 119.058 "/>
      <g id="ID0.8167418288066983">
        <path id="ID0.9553722990676761" fill="none" stroke="#313537" stroke-width="1.0409107773624173" stroke-linecap="round" d="M 244.4508 135.721 L 239.2648 132.6878 L 233.4861 129.7976 L 228.6237 129.9554 L 224.4611 133.6082 L 223.8956 137.0136 "/>
        <path id="ID0.5982440118677914" fill="none" stroke="#313537" stroke-width="0.8540413552749858" stroke-linecap="round" d="M 233.8712 129.4374 L 233.5641 124.0207 L 239.8871 117.9163 "/>
      </g>
      <g id="ID0.7324484633281827">
        <path id="ID0.04993448918685317" fill="none" stroke="#313537" stroke-width="0.9522851066969494" stroke-linecap="round" d="M 246.3048 120.861 L 245.2933 131.3116 L 243.072 147.5946 L 240.6353 163.7212 "/>
        <g id="ID0.8167418288066983">
          <path id="ID0.9553722990676761" fill="none" stroke="#313537" stroke-width="0.9699703335790443" stroke-linecap="round" d="M 244.7793 135.6442 L 249.969 135.1305 L 255.638 134.1412 L 259.6215 135.768 L 261.9633 140.5009 L 261.3978 143.9063 "/>
          <path id="ID0.5982440118677914" fill="none" stroke="#313537" stroke-width="0.7916616451019644" stroke-linecap="round" d="M 255.4554 133.7953 L 257.3554 128.7451 L 253.9671 121.028 "/>
          <path id="ID0.3567589442245662" fill="none" stroke="#313537" stroke-width="0.8967655480907116" stroke-linecap="round" d="M 242.8348 148.213 L 248.7108 144.1449 L 256.2525 143.4667 L 261.7058 144.3723 L 263.1556 149.319 L 262.2943 156.2952 L 256.7033 156.0908 L 250.619 158.2177 L 245.8038 157.1767 L 241.3515 158.2957 L 235.9979 154.8726 L 230.4436 154.1916 L 224.6091 150.0854 L 218.5085 148.3484 L 219.9895 141.475 L 223.2701 137.3138 L 229.467 138.3429 L 237.3763 141.587 L 242.3037 147.4491 Z "/>
        </g>
      </g>
    </g>
    <g id="ID0.9312638868577778">
      <path id="ID0.2888958193361759" fill="#393C40" stroke="none" stroke-linecap="round" d="M 221.6431 157.6172 L 231.3807 161.3471 L 230.3162 164.1261 L 220.5786 160.3962 L 221.6431 157.6172 Z " stroke-width="0.4761425490144655"/>
      <path id="ID0.2888958193361759" fill="#393C40" stroke="none" stroke-linecap="round" d="M 211.3629 153.8377 L 222.2807 158.1471 L 221.2162 160.9261 L 211.4786 157.1962 L 211.3629 153.8377 Z " stroke-width="0.4761425490144655"/>
      <g id="ID0.36424446757882833">
        <path id="ID0.7359844641759992" fill="#8A7B59" stroke="none" d="M 224.5751 157.3518 L 226.0781 157.6015 L 225.0563 163.7547 L 223.5533 163.5051 L 224.5751 157.3518 Z " stroke-width="0.4761425533484747"/>
        <path id="ID0.7359844641759992" fill="#8A7B59" stroke="none" d="M 222.7751 156.6518 L 224.2781 156.9015 L 223.2563 163.0547 L 221.7533 162.8051 L 222.7751 156.6518 Z " stroke-width="0.4761425533484747"/>
        <path id="ID0.7359844641759992" fill="#8A7B59" stroke="none" d="M 220.9751 155.6518 L 222.4781 155.9015 L 221.4563 162.0547 L 219.9533 161.8051 L 220.9751 155.6518 Z " stroke-width="0.4761425533484747"/>
        <path id="ID0.7359844641759992" fill="#8A7B59" stroke="none" d="M 226.3751 158.1518 L 227.8781 158.4015 L 226.8563 164.5547 L 225.3533 164.3051 L 226.3751 158.1518 Z " stroke-width="0.4761425533484747"/>
      </g>
      <g id="ID0.1049797898158431">
        <path id="ID0.08871637750416994" fill="#8A7B59" stroke="none" stroke-linecap="round" d="M 213.186 153.4027 L 219.332 155.4852 L 218.3685 160.9964 L 212.4613 158.9295 L 213.186 153.4027 Z " stroke-width="0.4761425533484747"/>
        <path id="ID0.13805592898279428" fill="#76694C" stroke="none" stroke-linecap="round" d="M 213.0285 153.1035 L 219.4798 155.2367 L 219.1018 158.094 L 212.6426 155.863 L 213.0285 153.1035 Z " stroke-width="0.4761425533484747"/>
        <path id="ID0.3221200187690556" fill="#61563F" stroke="none" stroke-linecap="round" d="M 215.4699 155.7587 L 216.2773 156.2595 L 216.066 158.0055 L 215.1778 157.5175 L 215.4699 155.7587 Z " stroke-width="0.5167888696955751"/>
        <path id="ID0.1420820001512766" fill="#BAA578" stroke="none" stroke-linecap="round" d="M 217.8427 159.9586 L 218.7813 158.6665 L 218.4499 160.9524 L 212.437 158.9403 L 217.8427 159.9586 Z " stroke-width="0.4761425533484747"/>
      </g>
      <path id="ID0.2888958193361759" fill="#393C40" stroke="none" stroke-linecap="round" d="M 258.7114 164.1116 L 251.0912 164.6841 L 251.102 167.2571 L 258.7222 166.6846 L 258.7114 164.1116 Z " stroke-width="0.38104699061083686"/>
      <path id="ID0.2888958193361759" fill="#393C40" stroke="none" stroke-linecap="round" d="M 265.4603 163.4152 L 258.2412 164.1841 L 258.252 166.7571 L 264.5671 166.2209 L 265.4603 163.4152 Z " stroke-width="0.38104699061083686"/>
      <path id="ID0.7359844641759992" fill="#8A7B59" stroke="none" d="M 256.8604 162.7896 L 255.7683 162.6083 L 254.8795 167.9609 L 255.9716 168.1423 L 256.8604 162.7896 Z " stroke-width="0.38160280584417416"/>
      <path id="ID0.7359844641759992" fill="#8A7B59" stroke="none" d="M 258.3104 162.5396 L 257.2183 162.3583 L 256.3295 167.7109 L 257.4216 167.8923 L 258.3104 162.5396 Z " stroke-width="0.38160280584417416"/>
      <path id="ID0.7359844641759992" fill="#8A7B59" stroke="none" d="M 259.8604 162.2896 L 258.7683 162.1083 L 257.8795 167.4609 L 258.9716 167.6423 L 259.8604 162.2896 Z " stroke-width="0.38160280584417416"/>
      <path id="ID0.7359844641759992" fill="#8A7B59" stroke="none" d="M 255.3604 163.0896 L 254.2683 162.9083 L 253.3795 168.2609 L 254.4716 168.4423 L 255.3604 163.0896 Z " stroke-width="0.38160280584417416"/>
      <g id="ID0.1049797898158431">
        <path id="ID0.08871637750416994" fill="#8A7B59" stroke="none" stroke-linecap="round" d="M 265.838 162.4328 L 260.8023 162.578 L 259.9915 167.6851 L 264.8495 167.4881 L 265.838 162.4328 Z " stroke-width="0.4054529774502679"/>
        <path id="ID0.13805592898279428" fill="#76694C" stroke="none" stroke-linecap="round" d="M 266.0889 162.2473 L 260.8176 162.3534 L 260.3089 164.9679 L 265.6128 164.778 L 266.0889 162.2473 Z " stroke-width="0.4054529774502679"/>
        <path id="ID0.3221200187690556" fill="#61563F" stroke="none" stroke-linecap="round" d="M 263.7157 163.9082 L 262.9919 164.1269 L 262.6668 165.7192 L 263.4458 165.5338 L 263.7157 163.9082 Z " stroke-width="0.4400648170555984"/>
        <path id="ID0.1420820001512766" fill="#BAA578" stroke="none" stroke-linecap="round" d="M 260.6987 166.9455 L 260.3711 165.5528 L 259.9852 167.6524 L 264.9049 167.5325 L 260.6987 166.9455 Z " stroke-width="0.4054529774502679"/>
      </g>
      <g id="ID0.6836685389280319">
        <path id="ID0.09357938077300787" fill="#857656" stroke="none" d="M 232.3453 158.5553 L 250.0769 161.4998 L 249.0239 167.8409 L 231.2923 164.8964 L 232.3453 158.5553 Z " stroke-width="0.4283320793639229"/>
        <path id="ID0.6492703901603818" fill="#7C6E50" stroke="none" stroke-linecap="round" d="M 232.6915 160.8492 L 240.287 165.2478 L 249.5072 163.6416 L 248.809 167.8456 L 231.9934 165.0531 L 232.6915 160.8492 Z " stroke-width="0.4761425533484747"/>
        <g id="ID0.9254062357358634">
          <g id="ID0.49943465692922473">
            <path id="ID0.140373723115772" fill="#968561" stroke="none" d="M 248.789 160.1244 L 253.8384 160.9629 L 252.3564 169.8874 L 247.307 169.0489 L 248.789 160.1244 Z " stroke-width="0.4761425533484747"/>
            <path id="ID0.8286363878287375" fill="#BAA578" stroke="none" stroke-linecap="round" d="M 248.7935 159.9356 L 253.9213 161.0285 L 249.7101 161.1014 L 248.3492 163.0474 L 248.7935 159.9356 Z " stroke-width="0.4761425533484747"/>
            <path id="ID0.7362233307212591" fill="#8A7B59" stroke="none" stroke-linecap="round" d="M 247.8186 165.9518 L 250.4881 166.4434 L 253.305 164.4496 L 252.3885 169.9686 L 247.2921 169.1223 L 247.8186 165.9518 Z " stroke-width="0.4761425533484747"/>
          </g>
          <g id="ID0.49943465692922473">
            <path id="ID0.140373723115772" fill="#968561" stroke="none" d="M 233.8756 157.889 L 228.8262 157.0505 L 227.3442 165.975 L 232.3936 166.8135 L 233.8756 157.889 Z " stroke-width="0.4761425533484747"/>
            <path id="ID0.8286363878287375" fill="#BAA578" stroke="none" stroke-linecap="round" d="M 233.9665 157.7066 L 228.7607 157.0834 L 232.7223 158.5136 L 233.3812 160.795 L 233.9665 157.7066 Z " stroke-width="0.4761425533484747"/>
            <path id="ID0.7362233307212591" fill="#8A7B59" stroke="none" stroke-linecap="round" d="M 232.9446 163.715 L 230.2594 163.3174 L 228.2382 160.5201 L 227.3217 166.0392 L 232.4181 166.8855 L 232.9446 163.715 Z " stroke-width="0.4761425533484747"/>
          </g>
        </g>
      </g>
    </g>
  </g>
  <g id="ID0.8333355090580881">
    <path id="ID0.9286923445761204" fill="#27282B" stroke="none" stroke-linecap="round" d="M 244.2494 42.4176 L 262.6514 46.5735 L 259.6325 70.7451 L 273.6883 79.997 L 249.442 87.9606 L 214.9554 70.2899 L 236.1473 62.6537 L 244.2494 42.4176 Z " stroke-width="0.47614259146178506"/>
    <path id="ID0.5448851804248989" fill="none" stroke="#1D1E1F" stroke-width="0.9522851829235701" stroke-linecap="round" d="M 238.3866 57.1566 L 236.3631 62.4925 L 252.1544 72.7173 L 259.3361 70.7984 "/>
    <path id="ID0.262191956397146" fill="none" stroke="#1D1E1F" stroke-width="0.9522851829235701" stroke-linecap="round" d="M 240.4101 62.4531 L 252.1049 70.4009 L 255.234 69.7233 "/>
  </g>
  <g id="ID0.3450673264451325">
    <g id="ID0.9831569031812251">
      <path id="ID0.0877610077150166" fill="#2E3034" stroke="none" stroke-linecap="round" d="M 278.5088 20.4009 L 277.9304 6.5223 L 269.6697 33.8287 L 277.0124 36.05 L 278.5088 20.4009 Z " stroke-width="0.5866066459857178"/>
      <path id="ID0.796130308881402" fill="#242628" stroke="none" stroke-linecap="round" d="M 278.7721 20.5548 L 277.8533 6.5732 L 277.2503 20.8481 L 273.8391 35.3698 L 276.9638 36.0068 L 278.7721 20.5548 Z " stroke-width="0.5866066459857178"/>
    </g>
    <g id="ID0.9831569031812251">
      <path id="ID0.0877610077150166" fill="#2E3034" stroke="none" stroke-linecap="round" d="M 255.5836 13.715 L 263.7581 2.4843 L 255.4974 29.7908 L 248.1547 27.5694 L 255.5836 13.715 Z " stroke-width="0.5866066459857178"/>
      <path id="ID0.796130308881402" fill="#242628" stroke="none" stroke-linecap="round" d="M 255.1907 13.6006 L 263.7056 2.4729 L 256.2948 14.6883 L 251.0335 28.3078 L 248.1307 27.4639 L 255.1907 13.6006 Z " stroke-width="0.5866066459857178"/>
    </g>
    <path id="ID0.8999492498114705" fill="#2E3034" stroke="none" stroke-linecap="round" d="M 270.6604 24.3495 C 274.7372 26.0833 278.4815 30.0477 279.3981 34.3817 C 280.4432 39.3294 276.9577 44.1241 275.7981 48.9924 C 275.4707 50.6731 275.7217 52.5802 274.9349 54.0391 C 273.3334 57.0062 270.8541 59.4207 268.8943 62.1637 C 267.61 63.9615 266.7803 66.1706 265.1104 67.6537 C 263.1986 69.4288 261.0059 72.0398 258.3857 71.7233 C 254.5013 71.2536 251.1326 68.3109 248.339 65.632 C 246.0443 63.4309 244.1449 60.5454 243.4408 57.4359 C 242.2317 51.695 241.4193 45.5358 242.754 39.7922 C 244.2338 33.4252 245.8322 25.4816 251.748 22.3435 C 257.1331 19.228 264.5992 21.7749 270.6604 24.3495 Z " stroke-width="0.5080372780427557"/>
    <path id="ID0.2441388238221407" fill="#AB8E85" stroke="none" d="M 261.3246 47.4675 C 265.1816 48.8088 271.304 47.3546 273.1172 50.7726 C 274.717 53.9633 270.0855 57.6411 268.1505 60.6849 C 266.2245 63.7117 264.4832 67.0909 261.515 69.1739 C 260.126 70.0789 257.9753 69.503 256.3978 68.7411 C 253.562 67.3676 251.0031 65.2525 249.0382 62.7872 C 247.0046 60.2367 244.1965 57.2669 244.5834 54.0146 C 245.074 49.8949 247.272 44.9233 251.0794 43.3841 C 254.5387 42.0807 257.8558 46.2607 261.3246 47.4675 Z " stroke-width="1.255840048995254"/>
    <path id="ID0.46721756737679243" fill="#A2887F" stroke="none" stroke-linecap="round" d="M 246.9656 44.3199 L 248.3717 45.4618 L 273.3792 52.6289 L 265.003 55.4028 L 249.6938 48.1972 L 250.0722 50.8063 L 248.6898 56.2532 L 250.0851 64.1857 L 247.6431 56.4673 L 246.9656 44.3199 Z " stroke-width="0.5080372780427557"/>
    <path id="ID0.8256730306893587" fill="none" stroke="#937B73" stroke-width="1.0160745560855113" stroke-linecap="round" d="M 253.9986 58.752 C 253.9986 58.752 256.7548 58.9627 258.1168 59.1751 C 258.4574 59.2282 258.7587 59.4006 259.0673 59.5423 C 259.3808 59.6865 259.6474 59.9423 259.981 60.031 C 260.6421 60.2071 261.3396 60.2122 262.0143 60.3276 C 262.3489 60.3848 262.6853 60.4468 263.0089 60.5489 C 263.3331 60.6512 263.6574 60.7706 263.952 60.9404 C 264.4366 61.2196 265.3367 61.89 265.3367 61.89 "/>
    <path id="ID0.7592270169407129" fill="none" stroke="#937B73" stroke-width="1.0160745560855113" stroke-linecap="round" d="M 261.8457 62.4931 C 261.8457 62.4931 261.1506 62.6432 260.8041 62.6026 C 260.4677 62.5635 260.1785 62.3248 259.8462 62.2598 C 259.5119 62.1947 259.1602 62.2731 258.8244 62.2161 C 258.4906 62.1597 258.1457 62.0893 257.8519 61.9219 C 257.602 61.7794 257.2402 61.3122 257.2402 61.3122 "/>
    <path id="ID0.5332203092984855" fill="none" stroke="#937B73" stroke-width="1.0160745560855113" stroke-linecap="round" d="M 258.8899 51.7488 C 258.8899 51.7488 258.1852 51.9868 257.9885 52.2722 C 257.729 52.6561 257.2408 53.391 257.5737 53.8187 C 258.0455 54.2645 258.982 53.7883 259.6291 54.0424 C 260.2545 54.2911 261.3785 55.1024 261.3785 55.1024 "/>
    <path id="ID0.2278452254831791" fill="none" stroke="#937B73" stroke-width="1.0160745560855113" stroke-linecap="round" d="M 264.1067 49.5054 C 264.1067 49.5054 264.4617 51.5586 264.6349 52.5844 C 264.6929 52.9279 264.7677 53.27 264.8004 53.6164 C 264.833 53.9628 264.9433 54.3316 264.8296 54.6603 C 264.7155 54.9899 264.4248 55.2385 264.1611 55.4665 C 263.9848 55.6191 263.535 55.7814 263.535 55.7814 "/>
    <path id="ID0.6473136460408568" fill="none" stroke="#937B73" stroke-width="1.0160745428296027" stroke-linecap="round" d="M 259.5132 65.7843 C 259.5132 65.7843 259.6326 66.4837 259.5815 66.8282 C 259.5313 67.1636 259.3733 67.4789 259.216 67.7793 C 258.9793 68.2322 258.4036 69.0811 258.4036 69.0811 "/>
    <path id="ID0.11669129692018032" fill="#2E3034" stroke="none" stroke-linecap="round" d="M 250.358 39.773 L 272.0901 48.2051 L 275.0865 51.8981 L 264.7297 53.6747 L 245.6496 45.2487 L 250.358 39.773 Z " stroke-width="0.5080372780427557"/>
    <path id="ID0.14635155349969864" fill="#2E3034" stroke="none" stroke-linecap="round" d="M 246.2825 44.0336 L 247.9471 44.9353 L 248.9679 50.6845 L 247.59 56.292 L 248.2373 60.4686 L 249.9866 64.6867 L 243.6169 57.3193 L 246.2825 44.0336 Z " stroke-width="0.5080372780427557"/>
    <path id="ID0.28340246016159654" fill="#1C1D1F" stroke="none" stroke-linecap="round" d="M 251.3933 36.7684 L 254.2303 39.2349 L 263.2259 42.8873 L 261.5603 48.3929 L 255.191 45.4786 L 251.8075 43.3265 L 250.3068 41.2925 L 249.9801 39.388 L 251.3933 36.7684 Z " stroke-width="0.5401026391431615"/>
    <path id="ID0.6101007834076881" fill="#FFFFFF" stroke="none" stroke-linecap="round" d="M 254.3238 40.3354 L 255.79 41.1967 L 259.0602 43.4409 L 259.0116 45.4826 L 254.4027 42.5704 L 254.3238 40.3354 Z " stroke-width="0.40610618689530803"/>
    <path id="ID0.28340246016159654" fill="#1C1D1F" stroke="none" stroke-linecap="round" d="M 275.926 44.2204 L 272.6012 44.6486 L 264.1193 42.913 L 262.6341 47.8225 L 268.8019 48.8078 L 272.3769 48.883 L 274.4961 48.1152 L 275.68 46.8631 L 275.926 44.2204 Z " stroke-width="0.48162497689092604"/>
    <path id="ID0.6101007834076881" fill="#FFFFFF" stroke="none" stroke-linecap="round" d="M 273.6971 45.6762 L 272.0794 45.7002 L 268.3195 46.0212 L 267.4008 47.7334 L 272.5821 47.4884 L 273.6971 45.6762 Z " stroke-width="0.38638675181693294"/>
    <g id="ID0.07940126257017255">
      <path id="ID0.46257128613069654" fill="#27282B" stroke="none" stroke-linecap="round" d="M 263.4833 42.8089 L 264.7576 53.5976 L 255.5215 49.4766 L 263.4833 42.8089 Z " stroke-width="0.5080372780427557"/>
      <path id="ID0.9845890481956303" fill="#27282B" stroke="none" stroke-linecap="round" d="M 264.2187 43.1699 L 270.0119 52.6187 L 264.8026 53.6967 L 264.2187 43.1699 Z " stroke-width="0.5080372780427557"/>
    </g>
    <path id="ID0.20071752788498998" fill="#202324" stroke="none" d="M 256.7271 36.0112 L 259.9474 39.6658 L 264.1557 42.1597 L 263.8241 43.519 L 256.7519 40.0526 L 251.7878 36.1093 L 253.956 34.9075 L 256.7271 36.0112 Z " stroke-width="0.5080372780427557"/>
    <path id="ID0.20071752788498998" fill="#202324" stroke="none" d="M 273.0984 40.6485 L 269.4677 42.1066 L 263.9966 42.0828 L 263.5585 43.2894 L 270.7217 44.2391 L 276.5062 43.8707 L 275.6818 41.2839 L 273.0984 40.6485 Z " stroke-width="0.46609798174230205"/>
    <path id="ID0.521138689480722" fill="none" stroke="#212325" stroke-width="0.9060627362210283" stroke-linecap="round" d="M 276.068 43.9674 L 272.5085 44.5471 L 263.974 43.2669 "/>
    <path id="ID0.17828734638169408" fill="none" stroke="#202324" stroke-width="1.0160745560855113" stroke-linecap="round" d="M 264.7942 53.1103 L 264.0944 45.3351 C 263.837 42.7296 263.8144 43.3167 263.914 42.3347 C 263.9488 41.9917 264.2548 41.7329 264.4027 41.421 C 264.5483 41.1136 264.7079 40.8069 264.7942 40.4779 C 264.8815 40.1455 264.8839 39.7954 264.9182 39.4538 C 264.9718 38.9207 265.0582 37.8508 265.0582 37.8508 "/>
    <path id="ID0.521138689480722" fill="none" stroke="#212325" stroke-width="1.0160745560855113" stroke-linecap="round" d="M 251.8227 36.3899 L 254.7847 39.1436 L 263.5464 43.2538 "/>
    <path id="ID0.8012696979567409" fill="none" stroke="url(#grad_1)" stroke-width="1.0160745560855113" stroke-linecap="round" d="M 273.5116 52.1913 L 265.2307 53.7731 L 248.1097 46.1522 L 248.8882 50.4216 L 247.4147 56.3451 L 248.2181 60.3566 L 249.938 64.672 "/>
    <path id="ID0.043594349175691605" fill="#D7E2FD" stroke="none" stroke-linecap="round" d="M 258.5179 44.352 L 259.0604 43.3483 L 258.9509 45.4649 L 256.6842 44.0095 L 258.5179 44.352 Z " stroke-width="0.5080372780427557"/>
    <path id="ID0.043594349175691605" fill="#D7E2FD" stroke="none" stroke-linecap="round" d="M 268.3272 47.1223 L 268.3637 46.0858 L 267.4756 47.7956 L 269.9225 47.6977 L 268.3272 47.1223 Z " stroke-width="0.46186426411256865"/>
  </g>
</svg>