<svg xmlns="http://www.w3.org/2000/svg" xmlns:xlink="http://www.w3.org/1999/xlink" version="1.1" width="209.91020213999437" height="293.5517274085491" viewBox="6.811999741007452 3.1395911602274227 209.91020213999437 293.5517274085491">
  <!-- Exported by Scratch - http://scratch.mit.edu/ -->
  <path id="ID0.7477802094072104" fill="#670A0A" stroke="none" stroke-linecap="round" d="M 88.3329 96.2615 L 68.8258 99.5911 L 82.0199 138.6069 L 100.6666 141.7254 L 94.9762 117.7642 L 88.3329 96.2615 Z " stroke-width="0.4761425779422328"/>
  <path id="ID0.7477802094072104" fill="#670A0A" stroke="none" stroke-linecap="round" d="M 31.1806 116.444 L 52.4796 106.2255 L 65.6736 145.2413 L 52.7469 159.0371 L 39.5137 136.9984 L 31.1806 116.444 Z " stroke-width="0.4761425779422328"/>
  <path id="ID0.4270821204409003" fill="#7C0D0D" stroke="none" stroke-linecap="round" d="M 25.27 97.0998 L 24.8744 84.0395 L 25.1483 77.7896 L 29.1004 69.0393 L 58.989 60.4397 L 66.902 62.2874 L 70.9048 65.2062 L 81.2186 73.7815 L 83.8977 83.9334 L 84.7497 89.4255 L 88.5401 95.4319 L 90.7453 100.4664 L 90.9273 107.693 L 91.0716 113.1732 L 92.9184 122.35 L 101.3556 142.6178 L 99.1155 152.0457 L 96.573 159.4649 L 86.8327 168.4888 L 74.881 169.3388 L 69.0092 164.2374 L 62.2591 159.7345 L 53.1713 159.5407 L 43.9664 135.8884 L 40.7033 129.955 L 32.7125 120.5941 L 28.002 110.7522 L 25.27 97.0998 Z " stroke-width="0.4761425779422328"/>
  <path id="ID0.7729651997797191" fill="#282828" stroke="none" stroke-linecap="round" d="M 8.4275 96.0803 L 30.0452 86.1835 L 35.5991 105.7702 L 36.0887 117.0821 L 38.3412 126.0956 L 39.3443 134.906 L 22.6231 138.4973 L 17.8716 133.1526 L 12.5296 109.3779 L 8.4275 96.0803 Z " stroke-width="0.958863683444326"/>
  <path id="ID0.4757494777441025" fill="#282828" stroke="none" stroke-linecap="round" d="M 12.924 77.3716 L 20.4861 72.3598 L 37.5746 71.3722 L 38.2893 98.2007 L 29.9713 106.5235 L 25.96 109.1127 L 22.0417 107.9976 L 18.2666 106.1978 L 11.8494 105.7329 L 9.8728 100.625 L 7.812 92.7629 L 8.0883 83.8028 L 12.924 77.3716 Z " stroke-width="0.4829924891035499"/>
  <g id="ID0.5880346246995032">
    <path id="ID0.6829322893172503" fill="#1D1E1F" stroke="none" stroke-linecap="round" d="M 157.8928 109.6668 L 153.0119 99.151 L 158.591 96.0028 L 164.5956 92.047 L 170.3096 92.1683 L 174.9902 92.8801 L 178.0079 94.9857 L 184.7119 96.5571 L 184.4082 101.2464 L 182.3415 102.4275 L 182.1028 104.0557 L 179.3806 107.2645 L 176.246 110.6687 L 171.7132 112.6141 L 164.5881 111.6463 L 157.8928 109.6668 Z " stroke-width="0.816459591972105"/>
    <g id="ID0.9434720128774643">
      <path id="ID0.6507829907350242" fill="#282828" stroke="none" stroke-linecap="round" d="M 92.9655 113.9506 L 103.5717 95.1887 L 120.4808 96.895 L 133.1097 98.2655 L 149.2312 98.6076 L 156.2597 96.4293 L 158.4367 111.2159 L 151.025 110.2828 L 141.1907 111.9116 L 128.6819 114.5044 L 115.3593 115.0383 L 92.9655 113.9506 Z " stroke-width="0.816459591972105"/>
      <path id="ID0.9892375003546476" fill="none" stroke="#191919" stroke-width="1.9999999958907635" stroke-linecap="round" d="M 157.5329 110.7162 L 155.0699 97.1609 L 146.5188 99.48 "/>
    </g>
  </g>
  <path id="ID0.7729651997797191" fill="#282828" stroke="none" stroke-linecap="round" d="M 102.3333 62.25 L 79.384 68.4631 L 87.6377 87.0739 L 94.494 96.0843 L 98.5255 104.4548 L 103.3876 111.8702 L 118.5403 103.9399 L 118.7762 96.7923 L 107.6818 75.097 L 102.3333 62.25 Z " stroke-width="0.9588636771897965"/>
  <path id="ID0.4757494777441025" fill="#282828" stroke="none" stroke-linecap="round" d="M 86.6627 49.7826 L 77.6439 50.7643 L 63.8736 60.9315 L 80.4783 82.0161 L 92.1955 83.0967 L 96.9352 82.5226 L 99.2347 79.1598 L 100.9866 75.3623 L 105.6233 70.9016 L 103.877 65.7104 L 100.4344 58.3478 L 94.4929 51.6353 L 86.6627 49.7826 Z " stroke-width="0.4829924891035499"/>
  <g id="ID0.6660797297954559">
    <path id="ID0.5368814701214433" fill="#343434" stroke="none" stroke-linecap="round" d="M 170.8592 264.1538 L 167.7624 255.3965 L 165.6841 245.3299 L 177.1634 243.8923 L 190.7485 243.0774 L 210.8955 240.6315 L 215.7222 245.1391 L 196.8626 261.1287 L 177.7862 271.1728 L 170.8592 264.1538 Z " stroke-width="0.770216539517204"/>
    <g id="ID0.5077062323689461">
      <path id="ID0.05466862628236413" fill="#252525" stroke="none" stroke-linecap="round" d="M 127.6634 206.2668 L 142.7992 190.3637 L 150.3737 203.0617 L 152.8412 207.4883 L 161.6655 218.9744 L 183.917 243.8091 L 168.7652 258.955 L 156.2763 244.9077 L 150.1361 240.715 L 144.4979 235.302 L 138.9941 225.5227 L 132.7494 217.5638 L 127.6634 206.2668 Z " stroke-width="0.5998532980825332"/>
      <path id="ID0.5319394422695041" fill="none" stroke="#131313" stroke-width="2.000000037596965" stroke-linecap="round" d="M 183.337 243.2036 L 168.9299 259.328 L 161.127 250.8213 "/>
    </g>
    <g id="ID0.8820344842970371">
      <path id="ID0.3809091211296618" fill="#252525" stroke="none" stroke-linecap="round" d="M 73.8161 154.6854 L 87.0608 119.8816 L 102.8304 138.3178 L 135.5422 174.3149 L 141.714 183.1329 L 145.4201 194.5161 L 137.673 197.7182 L 128.1913 206.6373 L 114.4015 189.7891 L 104.9143 180.3032 L 73.8161 154.6854 Z " stroke-width="0.7305889979593839"/>
      <path id="ID0.9495224836282432" fill="none" stroke="#131313" stroke-width="2.000000037596965" stroke-linecap="round" d="M 135.6081 174.5727 L 140.7895 181.3109 L 144.0807 188.8718 L 140.0856 197.6205 L 142.3408 202.1937 "/>
    </g>
  </g>
  <g id="ID0.18228224432095885">
    <path id="ID0.5368814701214433" fill="#404040" stroke="none" stroke-linecap="round" d="M 141.2017 288.524 L 138.2951 279.7017 L 136.4351 269.5925 L 147.9428 268.4037 L 161.5424 267.8829 L 181.7376 265.8736 L 186.4656 270.4846 L 167.2645 286.0623 L 147.9752 295.6913 L 141.2017 288.524 Z " stroke-width="0.7702165139437984"/>
    <g id="ID0.5077062323689461">
      <path id="ID0.05466862628236413" fill="#252525" stroke="none" stroke-linecap="round" d="M 99.9497 228.3771 L 115.8196 213.2064 L 122.7861 226.2479 L 125.0418 230.786 L 133.314 242.676 L 154.368 268.5336 L 138.5179 282.9472 L 126.7062 268.3259 L 120.7708 263.8479 L 115.3945 258.1748 L 110.3586 248.1465 L 104.4966 239.9017 L 99.9497 228.3771 Z " stroke-width="0.5998533029084356"/>
      <path id="ID0.5319394422695041" fill="none" stroke="#131313" stroke-width="2.0000000102256656" stroke-linecap="round" d="M 153.7498 267.9072 L 138.5975 283.3334 L 131.2049 274.4677 "/>
    </g>
    <g id="ID0.8820344842970371">
      <path id="ID0.3809091211296618" fill="#252525" stroke="none" stroke-linecap="round" d="M 51.0948 169.1488 L 63.4867 140.134 L 78.3682 159.2943 L 109.3439 196.7958 L 115.0925 205.8953 L 118.2569 217.4408 L 110.3672 220.2736 L 100.8573 230.1289 L 85.2678 212.9611 L 76.581 203.1701 L 51.0948 169.1488 Z " stroke-width="0.73058902934168"/>
      <path id="ID0.9495224836282432" fill="none" stroke="#131313" stroke-width="2.0000000102256656" stroke-linecap="round" d="M 109.3147 197.0992 L 114.1722 204.0745 L 117.1027 211.7825 L 112.699 220.3328 L 114.7357 225.0074 "/>
    </g>
  </g>
  <g id="ID0.8990198895335197">
    <path id="ID0.17576928716152906" fill="#DBDBDB" stroke="none" d="M 49.7629 58.1349 L 49.5278 58.2199 L 49.5278 58.2199 L 49.7629 58.1349 L 49.7629 58.1349 Z " stroke-width="1.0000000568135927"/>
    <path id="ID0.4270821204409003" fill="#252525" stroke="none" stroke-linecap="round" d="M 89.2946 173.5123 L 50.7244 67.5576 L 67.889 63.9897 L 75.802 65.8374 L 79.8048 68.7562 L 90.1186 77.3315 L 92.7977 87.4834 L 93.6497 92.9755 L 97.4401 98.9819 L 99.6453 104.0164 L 99.8273 111.243 L 99.9716 116.7232 L 101.8184 125.9 L 110.2556 146.1678 L 108.0155 155.5957 L 105.473 163.0149 L 89.2946 173.5123 Z " stroke-width="0.4761425779422328"/>
    <path id="ID0.4270821204409003" fill="#252525" stroke="none" stroke-linecap="round" d="M 89.3561 173.6821 L 51.2637 67.5547 L 35.785 75.7866 L 30.8823 82.2668 L 29.6709 87.0704 L 27.2241 100.2584 L 31.6554 109.7769 L 34.512 114.5444 L 35.4381 121.5861 L 36.9617 126.867 L 41.4425 132.5397 L 44.8356 136.8455 L 49.2834 145.0821 L 55.7556 166.0603 L 63.5062 171.8768 L 70.2049 175.9555 L 89.3561 173.6821 Z " stroke-width="0.47614259001992476"/>
    <path id="ID0.5114514343440533" fill="#282828" stroke="none" d="M 26.8491 77.6179 L 76.6926 59.6006 L 106.6931 142.5948 L 56.8495 160.6121 L 26.8491 77.6179 Z " stroke-width="1.007306644372822"/>
    <path id="ID0.9286923445761204" fill="#D4D4D4" stroke="none" stroke-linecap="round" d="M 37.3649 59.2112 L 47.2501 35.7152 L 46.9736 55.8898 L 61.9187 93.5226 L 16.3565 79.1082 L 31.6235 62.0967 L 37.3649 59.2112 Z " stroke-width="0.47614261551108433"/>
    <path id="ID0.9286923445761204" fill="#D4D4D4" stroke="none" stroke-linecap="round" d="M 52.2669 52.6685 L 33.3955 41.0103 L 46.5078 56.3451 L 61.2462 93.5464 L 84.8944 54.6204 L 62.2747 50.2407 L 52.2669 52.6685 Z " stroke-width="0.47614261551108433"/>
    <path id="ID0.39874776685610414" fill="#C3C3C3" stroke="none" stroke-linecap="round" d="M 30.1458 63.6549 L 52.1876 66.1831 L 65.9452 51.6816 L 70.4368 52.3313 L 53.2874 69.8001 L 27.2755 66.7723 L 30.1458 63.6549 Z " stroke-width="0.9436593865841636"/>
    <path id="ID0.13444371055811644" fill="#1F1F1F" stroke="none" stroke-linecap="round" d="M 50.5392 68.7419 L 55.3915 66.7221 L 67.7133 92.5729 L 56.5509 97.1395 L 50.5392 68.7419 Z " stroke-width="1.0000000568135927"/>
    <path id="ID0.751046194229275" fill="#191919" stroke="none" stroke-linecap="round" d="M 46.7204 64.8016 L 50.4252 61.2986 L 55.3584 61.6792 L 58.4833 69.0297 L 54.6819 71.4565 L 49.4315 72.3017 L 46.7204 64.8016 Z " stroke-width="1.0999999850313102"/>
    <path id="ID0.7854711129330099" fill="#282828" stroke="none" stroke-linecap="round" d="M 45.6934 88.3081 L 61.8342 91.7777 L 71.4508 77.9341 L 75.519 95.0717 L 53.6537 102.9755 L 45.6934 88.3081 Z " stroke-width="1.0000000568135927"/>
    <path id="ID0.562834897544235" fill="#282828" stroke="none" stroke-linecap="round" d="M 54.2473 161.244 L 80.741 145.553 L 87.625 164.597 L 75.1188 170.4468 L 54.2473 161.244 Z " stroke-width="1.0000000568135927"/>
    <path id="ID0.562834897544235" fill="#282828" stroke="none" stroke-linecap="round" d="M 111.5045 140.8828 L 81.1014 145.7587 L 87.9854 164.8027 L 101.3414 161.3039 L 111.5045 140.8828 Z " stroke-width="1.0000000568135927"/>
    <path id="ID0.6824178956449032" fill="none" stroke="#191919" stroke-width="2.0000001136271854" stroke-linecap="round" d="M 61.6489 92.0828 L 87.5049 164.3469 "/>
    <path id="ID0.4144489667378366" fill="#313131" stroke="none" stroke-linecap="round" d="M 14.8734 76.5873 L 31.1978 62.1797 L 35.7704 83.6542 L 59.2237 138.9761 L 65.5022 184.2904 L 53.4576 183.3277 L 54.4123 186.7042 L 40.9161 140.543 L 21.7462 101.4836 L 15.2816 86.5413 L 14.8734 76.5873 Z " stroke-width="1.0000000568135927"/>
    <path id="ID0.5234400681219995" fill="#101010" stroke="none" d="M 65.6298 96.6331 C 66.0179 96.4928 66.4268 96.5232 66.7736 96.6859 C 67.1205 96.8486 67.4053 97.1435 67.5456 97.5316 C 67.6859 97.9197 67.6555 98.3286 67.4928 98.6754 C 67.3301 99.0223 67.0352 99.3071 66.6471 99.4474 C 66.259 99.5877 65.8501 99.5573 65.5033 99.3946 C 65.1564 99.2319 64.8716 98.937 64.7313 98.5489 C 64.591 98.1608 64.6214 97.7519 64.7841 97.4051 C 64.9468 97.0582 65.2417 96.7734 65.6298 96.6331 Z " stroke-width="0.6300000044484674"/>
    <path id="ID0.5234400681219995" fill="#101010" stroke="none" d="M 70.2798 109.4831 C 70.6679 109.3428 71.0768 109.3732 71.4236 109.5359 C 71.7705 109.6986 72.0553 109.9935 72.1956 110.3816 C 72.3359 110.7697 72.3055 111.1786 72.1428 111.5254 C 71.9801 111.8723 71.6852 112.1571 71.2971 112.2974 C 70.909 112.4377 70.5001 112.4073 70.1533 112.2446 C 69.8064 112.0819 69.5216 111.787 69.3813 111.3989 C 69.241 111.0108 69.2714 110.6019 69.4341 110.2551 C 69.5968 109.9082 69.8917 109.6234 70.2798 109.4831 Z " stroke-width="0.6300000044484674"/>
    <path id="ID0.5234400681219995" fill="#101010" stroke="none" d="M 80.9798 139.0831 C 81.3679 138.9428 81.7768 138.9732 82.1236 139.1359 C 82.4705 139.2986 82.7553 139.5935 82.8956 139.9816 C 83.0359 140.3697 83.0055 140.7786 82.8428 141.1254 C 82.6801 141.4723 82.3852 141.7571 81.9971 141.8974 C 81.609 142.0377 81.2001 142.0073 80.8533 141.8446 C 80.5064 141.6819 80.2216 141.387 80.0813 140.9989 C 79.941 140.6108 79.9714 140.2019 80.1341 139.8551 C 80.2968 139.5082 80.5917 139.2234 80.9798 139.0831 Z " stroke-width="0.6300000044484674"/>
    <path id="ID0.5234400681219995" fill="#101010" stroke="none" d="M 75.9798 125.2331 C 76.3679 125.0928 76.7768 125.1232 77.1236 125.2859 C 77.4705 125.4486 77.7553 125.7435 77.8956 126.1316 C 78.0359 126.5197 78.0055 126.9286 77.8428 127.2754 C 77.6801 127.6223 77.3852 127.9071 76.9971 128.0474 C 76.609 128.1877 76.2001 128.1573 75.8533 127.9946 C 75.5064 127.8319 75.2216 127.537 75.0813 127.1489 C 74.941 126.7608 74.9714 126.3519 75.1341 126.0051 C 75.2968 125.6582 75.5917 125.3734 75.9798 125.2331 Z " stroke-width="0.6300000044484674"/>
    <path id="ID0.5234400681219995" fill="#101010" stroke="none" d="M 85.6298 152.2331 C 86.0179 152.0928 86.4268 152.1232 86.7736 152.2859 C 87.1205 152.4486 87.4053 152.7435 87.5456 153.1316 C 87.6859 153.5197 87.6555 153.9286 87.4928 154.2754 C 87.3301 154.6223 87.0352 154.9071 86.6471 155.0474 C 86.259 155.1877 85.8501 155.1573 85.5033 154.9946 C 85.1564 154.8319 84.8716 154.537 84.7313 154.1489 C 84.591 153.7608 84.6214 153.3519 84.7841 153.0051 C 84.9468 152.6582 85.2417 152.3734 85.6298 152.2331 Z " stroke-width="0.6300000044484674"/>
    <path id="ID0.4144489667378366" fill="#313131" stroke="none" stroke-linecap="round" d="M 83.598 50.8669 L 61.8344 50.2273 L 72.0496 69.6621 L 89.3901 127.1936 L 113.537 166.049 L 122.1821 157.6073 L 123.6071 160.8139 L 104.4682 116.6924 L 94.2326 74.4035 L 89.6488 58.7813 L 83.598 50.8669 Z " stroke-width="1.0000000568135927"/>
    <path id="ID0.8752945330925286" fill="none" stroke="#222222" stroke-width="2.0000001136271854" stroke-linecap="round" d="M 15.4286 76.6524 L 15.0068 85.0457 L 30.8963 119.4426 "/>
    <path id="ID0.8752945330925286" fill="none" stroke="#222222" stroke-width="2.0000001136271854" stroke-linecap="round" d="M 84.0128 51.372 L 89.7038 57.5556 L 99.4804 94.1622 "/>
    <path id="ID0.5234400681219995" fill="#101010" stroke="none" d="M 59.4798 147.5331 C 59.8679 147.3928 60.2768 147.4232 60.6236 147.5859 C 60.9705 147.7486 61.2553 148.0435 61.3956 148.4316 C 61.5359 148.8197 61.5055 149.2286 61.3428 149.5754 C 61.1801 149.9223 60.8852 150.2071 60.4971 150.3474 C 60.109 150.4877 59.7001 150.4573 59.3533 150.2946 C 59.0064 150.1319 58.7216 149.837 58.5813 149.4489 C 58.441 149.0608 58.4714 148.6519 58.6341 148.3051 C 58.7968 147.9582 59.0917 147.6734 59.4798 147.5331 Z " stroke-width="0.6300000044484674"/>
    <path id="ID0.5234400681219995" fill="#101010" stroke="none" d="M 60.6298 154.8831 C 61.0179 154.7428 61.4268 154.7732 61.7736 154.9359 C 62.1205 155.0986 62.4053 155.3935 62.5456 155.7816 C 62.6859 156.1697 62.6555 156.5786 62.4928 156.9254 C 62.3301 157.2723 62.0352 157.5571 61.6471 157.6974 C 61.259 157.8377 60.8501 157.8073 60.5033 157.6446 C 60.1564 157.4819 59.8716 157.187 59.7313 156.7989 C 59.591 156.4108 59.6214 156.0019 59.7841 155.6551 C 59.9468 155.3082 60.2417 155.0234 60.6298 154.8831 Z " stroke-width="0.6300000044484674"/>
    <g id="ID0.20783481979742646">
      <path id="ID0.5848579816520214" fill="#737373" stroke="none" stroke-linecap="round" d="M 83.4331 81.1578 L 89.3652 77.4185 L 90.597 81.1202 L 83.9488 84.055 L 83.4331 81.1578 Z " stroke-width="1.0000000568135927"/>
      <path id="ID0.13105127029120922" fill="none" stroke="#222222" stroke-width="2.0000001136271854" stroke-linecap="round" d="M 82.7641 84.7491 L 86.9961 83.2193 L 91.4235 80.0239 "/>
    </g>
  </g>
  <path id="ID0.46110434643924236" fill="#D8BFA7" stroke="none" stroke-linecap="round" d="M 29.9139 42.5374 L 51.1818 34.8495 L 58.0635 52.512 L 53.207 57.298 L 36.7469 61.4403 L 29.9139 42.5374 Z " stroke-width="1.0876357440384061"/>
  <g id="ID0.5880346246995032">
    <path id="ID0.6829322893172503" fill="#1D1E1F" stroke="none" stroke-linecap="round" d="M 86.5258 122.9164 L 80.0615 113.2925 L 85.0802 109.3112 L 90.3928 104.4656 L 96.0555 103.6925 L 100.7898 103.6641 L 104.0995 105.2723 L 110.9667 105.7767 L 111.3996 110.4558 L 109.5428 111.9454 L 109.5615 113.5909 L 107.3742 117.1857 L 104.8101 121.0379 L 100.6369 123.6678 L 93.4481 123.8253 L 86.5258 122.9164 Z " stroke-width="0.8164596212690353"/>
    <g id="ID0.9434720128774643">
      <path id="ID0.6507829907350242" fill="#282828" stroke="none" stroke-linecap="round" d="M 23.058 137.2883 L 30.6019 117.0995 L 47.5699 116.1424 L 60.2578 115.5225 L 76.2347 113.3411 L 82.8364 110.0912 L 87.2974 124.3559 L 79.831 124.5925 L 70.3721 127.7381 L 58.4221 132.2538 L 45.3466 134.8632 L 23.058 137.2883 Z " stroke-width="0.8164596212690353"/>
      <path id="ID0.9892375003546476" fill="none" stroke="#191919" stroke-width="2.0000001028310326" stroke-linecap="round" d="M 86.3857 124.0075 L 81.8346 111.0036 L 73.751 114.6305 "/>
    </g>
  </g>
  <path id="ID0.6101007834076881" fill="#FFFFFF" stroke="none" stroke-linecap="round" d="M 35.1313 27.6202 L 36.769 28.0776 L 40.5046 29.4103 L 40.9801 31.3965 L 35.7794 29.7606 L 35.1313 27.6202 Z " stroke-width="0.40610619532896625"/>
  <path id="ID0.6101007834076881" fill="#FFFFFF" stroke="none" stroke-linecap="round" d="M 56.3706 27.8557 L 54.8129 28.2928 L 51.2604 29.5654 L 50.8103 31.4556 L 55.7565 29.8929 L 56.3706 27.8557 Z " stroke-width="0.38638672080632136"/>
  <path id="ID0.043594349175691605" fill="#D7E2FD" stroke="none" stroke-linecap="round" d="M 41.2328 30.8179 L 41.5004 29.7089 L 41.9361 31.783 L 39.3725 30.9562 L 41.2328 30.8179 Z " stroke-width="0.5080372627036225"/>
  <path id="ID0.043594349175691605" fill="#D7E2FD" stroke="none" stroke-linecap="round" d="M 51.6648 30.8438 L 51.4349 29.8325 L 51.0139 31.7126 L 53.3542 30.9918 L 51.6648 30.8438 Z " stroke-width="0.4618642704692135"/>
  <path id="ID0.8999492498114705" fill="#EDD2B8" stroke="none" stroke-linecap="round" d="M 43.7702 7.4472 C 48.1865 7.0977 53.3404 8.8793 56.1585 12.2972 C 59.3746 16.1996 58.5726 22.0427 59.7285 26.9153 C 60.1594 28.6047 60.7235 30.3479 60.6174 32.1504 C 60.7075 35.3454 60.1016 38.5235 59.7035 41.7863 C 59.4362 43.9854 59.6837 46.3166 58.8896 48.4041 C 58.0164 50.8624 57.2808 54.1917 54.8116 55.1236 C 51.1508 56.5048 46.8027 55.4551 43.0866 54.373 C 40.0337 53.4837 37.0147 51.8046 34.9515 49.374 C 31.223 44.8443 27.6526 39.7602 26.1779 34.0509 C 24.5433 27.7219 22.2843 19.9404 26.0764 14.4209 C 29.4084 9.1671 37.2056 7.9698 43.7702 7.4472 Z " stroke-width="0.5080373091473906"/>
  <path id="ID0.8194515448994935" fill="#EDD2B8" stroke="none" stroke-linecap="round" d="M 25.0884 28.5892 C 25.9437 28.5156 26.6568 28.9595 27.3522 29.9056 C 28.0476 30.8516 28.6284 32.2296 28.929 33.8153 C 29.2296 35.4011 29.1934 36.896 28.8925 38.0309 C 28.5916 39.1658 28.0844 39.8136 27.2675 40.0845 C 26.5174 40.3315 25.4491 40.0974 24.9689 39.5024 C 24.0228 38.1571 23.8097 36.3888 23.427 34.8583 C 23.0502 33.3541 22.3795 31.749 22.7083 30.2617 C 23.0199 29.3335 24.1921 28.6665 25.0884 28.5892 Z " stroke-width="1.000000043674043"/>
  <path id="ID0.5768358684144914" fill="#2E3234" stroke="none" d="M 23.5542 25.5823 L 29.4492 24.4648 L 29.7844 26.2333 L 23.8894 27.3508 L 23.5542 25.5823 Z " stroke-width="1.000000043674043"/>
  <path id="ID0.3245162623934448" fill="#54595E" stroke="none" stroke-linecap="round" d="M 42.2648 8.595 C 45.4638 7.9886 48.8516 10.0212 51.7409 13.7941 C 54.6301 17.567 56.6256 24.0294 58.2258 29.437 C 59.8597 34.9583 62.8902 40.7329 61.5766 46.3081 C 60.564 50.6039 56.2765 54.5423 51.8924 55.6248 C 47.753 56.6507 42.2439 55.181 39.5557 51.7547 C 35.7574 46.9124 35.7869 40.002 35.0387 33.8324 C 34.3603 28.2348 34.0408 21.47 35.3488 16.9014 C 36.6568 12.3329 39.0657 9.2014 42.2648 8.595 Z " stroke-width="1.000000043674043"/>
  <path id="ID0.8999492498114705" fill="#54595E" stroke="none" stroke-linecap="round" d="M 45.2202 4.1972 C 49.6289 4.631 54.7904 5.6293 57.6085 9.0472 C 60.8246 12.9496 59.4488 18.9625 61.1785 23.6653 C 61.862 25.5229 64.5742 26.5435 64.8553 28.6046 C 65.1739 31.2645 63.5096 33.8185 62.8081 36.4904 C 62.0436 39.3913 61.4608 42.4135 60.3396 45.1541 C 59.3495 47.5766 58.36 50.3108 56.2616 51.8736 C 54.6455 53.0756 52.1234 53.805 50.3527 52.8903 C 48.9449 52.1633 49.6552 49.7726 48.9938 48.3132 C 48.3135 46.4865 46.7179 45.0252 46.3463 43.0754 C 45.3139 37.6483 46.1338 31.9601 45.1227 26.5279 C 44.0105 20.5544 43.1759 14.3541 40.1711 9.1359 C 39.0217 7.1396 32.8081 7.7353 33.7471 6.8892 C 35.1728 5.4224 41.3142 3.813 45.2202 4.1972 Z " stroke-width="0.5080373091473906"/>
  <path id="ID0.8999492498114705" fill="#54595E" stroke="none" stroke-linecap="round" d="M 34.0542 7.3898 C 30.5487 9.2059 26.7752 11.9264 25.5805 15.7441 C 24.1205 20.369 26.4139 25.4324 26.8047 30.2489 C 26.9471 32.0177 26.2392 33.9953 26.9355 35.5759 C 27.9297 37.7573 30.3319 39.0848 31.4173 41.2158 C 32.9123 44.1512 32.8472 47.8612 34.7113 50.5452 C 36.2046 52.6945 38.4408 54.6197 40.9656 55.3061 C 42.9094 55.8332 45.5235 55.589 46.8366 54.0898 C 47.8807 52.898 46.3447 50.9331 46.4261 49.3328 C 46.3907 47.3839 47.3408 45.4401 46.9731 43.4895 C 45.9477 38.0611 43.1029 33.0676 42.0558 27.6423 C 40.9047 21.6761 39.8893 15.6512 40.2988 9.6447 C 40.41 8.0299 44.8823 6.4644 43.8323 6.0533 C 41.756 5.2504 36.9592 5.8024 34.0542 7.3898 Z " stroke-width="0.5080373091473906"/>
  <path id="ID0.45774566335603595" fill="#54595E" stroke="none" stroke-linecap="round" d="M 48.7253 39.8763 C 50.7925 39.4845 52.541 40.4395 54.4058 40.9023 C 56.1063 41.325 59.0844 40.9009 59.4105 42.6854 C 59.9497 45.4656 57.9634 48.3297 56.2623 50.6959 C 55.1403 52.2562 53.4186 53.3378 51.3514 53.7296 C 49.2842 54.1215 47.3558 53.6291 45.6709 52.7037 C 43.3399 51.4244 40.3871 49.9577 39.9467 47.3929 C 39.5315 45.4441 42.2708 44.1951 43.8144 42.9101 C 45.2911 41.6795 46.6582 40.2682 48.7253 39.8763 Z " stroke-width="1.000000043674043"/>
  <path id="ID0.6934182443656027" fill="#54595E" stroke="none" stroke-linecap="round" d="M 33.6001 36.9585 L 47.3819 38.519 L 60.3971 31.4717 L 58.7068 38.6623 L 59.0536 43.1767 L 39.672 47.5123 L 37.3967 41.6841 L 33.6001 36.9585 Z " stroke-width="1.000000043674043"/>
  <path id="ID0.6236958587542176" fill="#3B4043" stroke="none" stroke-linecap="round" d="M 39.2687 32.6259 L 54.7338 29.6434 L 55.4615 37.2408 L 57.2472 43.9761 L 56.5102 54.8537 L 47.0875 56.6908 L 41.7371 47.5269 L 41.2059 39.8923 L 39.2687 32.6259 Z " stroke-width="1.000000043674043"/>
  <path id="ID0.6043254472315311" fill="#3B4043" stroke="none" stroke-linecap="round" d="M 27.9242 11.8131 L 32.0603 8.1283 L 37.7702 12.7456 L 44.3613 12.6158 L 46.7277 31.8109 L 44.6549 35.1046 L 39.3333 35.7571 L 35.4543 34.355 L 33.1559 30.8213 L 33.4191 24.1556 L 27.9242 11.8131 Z " stroke-width="1.000000043674043"/>
  <path id="ID0.6043254472315311" fill="#3B4043" stroke="none" stroke-linecap="round" d="M 56.0721 8.6837 L 53.5432 6.6186 L 50.6271 6.0009 L 47.4251 11.3916 L 41.2437 13.6829 L 46.0664 32.4124 L 49.2008 34.719 L 54.392 33.3787 L 58.4408 30.5756 L 58.3345 26.5245 L 55.6501 20.4176 L 56.0721 8.6837 Z " stroke-width="1.000000043674043"/>
  <path id="ID0.9914007503539324" fill="#33383A" stroke="none" d="M 46.1159 38.966 L 42.3063 27.7289 L 48.6994 26.8223 L 51.1173 37.967 L 46.1159 38.966 Z " stroke-width="1.000000043674043"/>
  <path id="ID0.28340246016159654" fill="#D8BFA7" stroke="none" stroke-linecap="round" d="M 31.9424 27.7364 L 38.6607 26.5579 L 43.449 27.9617 L 44.9483 31.1607 L 43.9973 33.5892 L 40.619 34.6096 L 37.8293 34.6318 L 35.6269 34.2576 L 33.217 32.9412 L 31.9564 31.1536 L 31.9424 27.7364 Z " stroke-width="0.5947752340578624"/>
  <path id="ID0.28340246016159654" fill="#D8BFA7" stroke="none" stroke-linecap="round" d="M 59.7098 23.7308 L 53.0262 25.0927 L 49.0839 28.1516 L 48.8593 31.6774 L 50.6331 33.5893 L 54.1505 33.3026 L 56.7548 32.3022 L 58.6675 31.148 L 60.4284 29.041 L 60.9473 26.9161 L 59.7098 23.7308 Z " stroke-width="0.5947752340578624"/>
  <path id="ID0.17377300979569554" fill="#C6AF99" stroke="none" stroke-linecap="round" d="M 36.561 31.1182 L 37.2975 30.1332 L 39.5103 29.5263 L 41.8361 29.7018 L 42.6437 31.5342 L 40.0281 31.8958 L 36.561 31.1182 Z " stroke-width="0.9999999679506034"/>
  <path id="ID0.17377300979569554" fill="#C6AF99" stroke="none" stroke-linecap="round" d="M 57.8368 27.3069 L 56.7909 26.6598 L 54.5095 26.9048 L 52.4093 27.9194 L 52.3283 29.9202 L 54.8948 29.2994 L 57.8368 27.3069 Z " stroke-width="0.9999999941398761"/>
  <path id="ID0.44800941413268447" fill="none" stroke="#33383A" stroke-width="1.0503597710186128" stroke-linecap="round" d="M 45.8579 31.6467 L 43.4562 27.7188 L 38.6929 26.1362 L 32.2674 27.4878 "/>
  <path id="ID0.12448931112885475" fill="#33383A" stroke="none" stroke-linecap="round" d="M 45.9958 37.3524 L 50.7304 36.5567 L 52.2505 39.4746 L 49.4841 41.5257 L 45.7567 40.6547 L 45.9958 37.3524 Z " stroke-width="1.000000043674043"/>
  <path id="ID0.44800941413268447" fill="none" stroke="#33383A" stroke-width="1.0503598003789005" stroke-linecap="round" d="M 43.3978 29.4895 L 43.7078 26.8172 L 41.6614 23.7807 "/>
  <path id="ID0.44800941413268447" fill="none" stroke="#33383A" stroke-width="1.0503596912572786" stroke-linecap="round" d="M 48.0886 28.6777 L 46.8221 26.3043 L 47.6152 22.7295 "/>
  <g id="ID0.32985211815685034">
    <g id="ID0.08651347272098064">
      <g id="ID0.07771636918187141">
        <path id="ID0.7001032647676766" fill="none" stroke="#646B70" stroke-width="0.5238095018696951" stroke-linecap="round" d="M 40.7222 44.7384 C 40.7222 44.7384 40.7274 45.1119 40.7217 45.2983 C 40.7163 45.4737 40.5961 45.675 40.6881 45.8245 C 40.7833 45.9792 41.0041 46.0274 41.1841 46.0503 C 41.3573 46.0721 41.527 45.9832 41.6988 45.9528 C 41.8705 45.9223 42.1614 46.0338 42.2158 45.8681 C 42.3464 45.4714 42.1385 44.6165 42.1385 44.6165 "/>
        <path id="ID0.7001032647676766" fill="none" stroke="#646B70" stroke-width="0.5238095018696951" stroke-linecap="round" d="M 42.1222 44.4884 C 42.1222 44.4884 42.1274 44.8619 42.1217 45.0483 C 42.1163 45.2237 41.9961 45.425 42.0881 45.5745 C 42.1833 45.7292 42.4041 45.7774 42.5841 45.8003 C 42.7573 45.8221 42.927 45.7332 43.0988 45.7028 C 43.2705 45.6723 43.5614 45.7838 43.6158 45.6181 C 43.7464 45.2214 43.5385 44.3665 43.5385 44.3665 "/>
      </g>
      <g id="ID0.07771636918187141">
        <path id="ID0.7001032647676766" fill="none" stroke="#646B70" stroke-width="0.5238095018696951" stroke-linecap="round" d="M 43.7222 44.3384 C 43.7222 44.3384 43.7274 44.7119 43.7217 44.8983 C 43.7163 45.0737 43.5961 45.275 43.6881 45.4245 C 43.7833 45.5792 44.0041 45.6274 44.1841 45.6503 C 44.3573 45.6721 44.527 45.5832 44.6988 45.5528 C 44.8705 45.5223 45.1614 45.6338 45.2158 45.4681 C 45.3464 45.0714 45.1385 44.2165 45.1385 44.2165 "/>
        <path id="ID0.7001032647676766" fill="none" stroke="#646B70" stroke-width="0.5238095018696951" stroke-linecap="round" d="M 45.2222 44.1384 C 45.2222 44.1384 45.2274 44.5119 45.2217 44.6983 C 45.2163 44.8737 45.0961 45.075 45.1881 45.2245 C 45.2833 45.3792 45.5041 45.4274 45.6841 45.4503 C 45.8573 45.4721 46.027 45.3832 46.1988 45.3528 C 46.3705 45.3223 46.6614 45.4338 46.7158 45.2681 C 46.8464 44.8714 46.6385 44.0165 46.6385 44.0165 "/>
      </g>
      <path id="ID0.7001032647676766" fill="none" stroke="#646B70" stroke-width="0.5238095352180715" stroke-linecap="round" d="M 46.7548 44.0356 C 46.7548 44.0356 46.7991 44.4065 46.813 44.5925 C 46.826 44.7674 46.7276 44.9803 46.8347 45.1192 C 46.9456 45.2631 47.1702 45.288 47.3517 45.2919 C 47.5261 45.2954 47.6856 45.1892 47.8533 45.1409 C 48.0209 45.0927 48.3219 45.173 48.3586 45.0025 C 48.4469 44.5944 48.1506 43.766 48.1506 43.766 "/>
    </g>
    <g id="ID0.08651347272098064">
      <g id="ID0.07771636918187141">
        <path id="ID0.7001032647676766" fill="none" stroke="#646B70" stroke-width="0.5238095018696951" stroke-linecap="round" d="M 55.4713 41.9595 C 55.4713 41.9595 55.6031 42.3091 55.6767 42.4804 C 55.7459 42.6416 55.9314 42.785 55.9004 42.9578 C 55.8685 43.1366 55.6807 43.2623 55.5215 43.3495 C 55.3684 43.4332 55.1779 43.4125 55.0069 43.447 C 54.8359 43.4816 54.606 43.6918 54.4947 43.5575 C 54.228 43.2362 54.1086 42.3645 54.1086 42.3645 "/>
        <path id="ID0.7001032647676766" fill="none" stroke="#646B70" stroke-width="0.5238095018696951" stroke-linecap="round" d="M 54.0213 42.2595 C 54.0213 42.2595 54.1531 42.6091 54.2267 42.7804 C 54.2959 42.9416 54.4814 43.085 54.4504 43.2578 C 54.4185 43.4366 54.2307 43.5623 54.0715 43.6495 C 53.9184 43.7332 53.7279 43.7125 53.5569 43.747 C 53.3859 43.7816 53.156 43.9918 53.0447 43.8575 C 52.778 43.5362 52.6586 42.6645 52.6586 42.6645 "/>
      </g>
      <g id="ID0.07771636918187141">
        <path id="ID0.7001032647676766" fill="none" stroke="#646B70" stroke-width="0.5238095018696951" stroke-linecap="round" d="M 52.3713 42.6595 C 52.3713 42.6595 52.5031 43.0091 52.5767 43.1804 C 52.6459 43.3416 52.8314 43.485 52.8004 43.6578 C 52.7685 43.8366 52.5807 43.9623 52.4215 44.0495 C 52.2684 44.1332 52.0779 44.1125 51.9069 44.147 C 51.7359 44.1816 51.506 44.3918 51.3947 44.2575 C 51.128 43.9362 51.0086 43.0645 51.0086 43.0645 "/>
        <path id="ID0.7001032647676766" fill="none" stroke="#646B70" stroke-width="0.5238095018696951" stroke-linecap="round" d="M 50.9213 43.1095 C 50.9213 43.1095 51.0531 43.4591 51.1267 43.6304 C 51.1959 43.7916 51.3814 43.935 51.3504 44.1078 C 51.3185 44.2866 51.1307 44.4123 50.9715 44.4995 C 50.8184 44.5832 50.6279 44.5625 50.4569 44.597 C 50.2859 44.6316 50.056 44.8418 49.9447 44.7075 C 49.678 44.3862 49.5586 43.5145 49.5586 43.5145 "/>
      </g>
      <path id="ID0.7001032647676766" fill="none" stroke="#646B70" stroke-width="0.5238095048060539" stroke-linecap="round" d="M 49.52 43.4479 C 49.52 43.4479 49.6145 43.8093 49.6696 43.9874 C 49.7216 44.155 49.8911 44.3171 49.8422 44.4856 C 49.7916 44.6601 49.5917 44.7654 49.4243 44.8355 C 49.2632 44.9027 49.0759 44.8621 48.9022 44.8786 C 48.7286 44.895 48.4779 45.0799 48.3813 44.9347 C 48.1497 44.5872 48.1224 43.7078 48.1224 43.7078 "/>
    </g>
  </g>
  <path id="ID0.7001032647676766" fill="none" stroke="#646B70" stroke-width="0.5238095604314418" stroke-linecap="round" d="M 41.0787 47.6405 C 41.0787 47.6405 40.9469 47.2909 40.8733 47.1196 C 40.8041 46.9584 40.6186 46.815 40.6496 46.6422 C 40.6815 46.4634 40.8693 46.3377 41.0285 46.2505 C 41.1816 46.1668 41.3721 46.1875 41.5431 46.153 C 41.7141 46.1184 41.944 45.9082 42.0553 46.0425 C 42.322 46.3638 42.4414 47.2355 42.4414 47.2355 "/>
  <path id="ID0.7001032647676766" fill="none" stroke="#646B70" stroke-width="0.5238095604314418" stroke-linecap="round" d="M 42.5787 47.1405 C 42.5787 47.1405 42.4469 46.7909 42.3733 46.6196 C 42.3041 46.4584 42.1186 46.315 42.1496 46.1422 C 42.1815 45.9634 42.3693 45.8377 42.5285 45.7505 C 42.6816 45.6668 42.8721 45.6875 43.0431 45.653 C 43.2141 45.6184 43.444 45.4082 43.5553 45.5425 C 43.822 45.8638 43.9414 46.7355 43.9414 46.7355 "/>
  <g id="ID0.07771636918187141">
    <path id="ID0.7001032647676766" fill="none" stroke="#646B70" stroke-width="0.5238095618190853" stroke-linecap="round" d="M 44.0787 47.3405 C 44.0787 47.3405 43.9469 46.9909 43.8733 46.8196 C 43.8041 46.6584 43.6186 46.515 43.6496 46.3422 C 43.6815 46.1634 43.8693 46.0377 44.0285 45.9505 C 44.1816 45.8668 44.3721 45.8875 44.5431 45.853 C 44.7141 45.8184 44.944 45.6082 45.0553 45.7425 C 45.322 46.0638 45.4414 46.9355 45.4414 46.9355 "/>
    <path id="ID0.7001032647676766" fill="none" stroke="#646B70" stroke-width="0.5238095618190853" stroke-linecap="round" d="M 45.5287 46.8405 C 45.5287 46.8405 45.3969 46.4909 45.3233 46.3196 C 45.2541 46.1584 45.0686 46.015 45.0996 45.8422 C 45.1315 45.6634 45.3193 45.5377 45.4785 45.4505 C 45.6316 45.3668 45.8221 45.3875 45.9931 45.353 C 46.1641 45.3184 46.394 45.1082 46.5053 45.2425 C 46.772 45.5638 46.8914 46.4355 46.8914 46.4355 "/>
  </g>
  <path id="ID0.7001032647676766" fill="none" stroke="#646B70" stroke-width="0.5238095645151523" stroke-linecap="round" d="M 47.08 46.4521 C 47.08 46.4521 46.9855 46.0907 46.9304 45.9126 C 46.8784 45.745 46.7089 45.5829 46.7578 45.4143 C 46.8084 45.2399 47.0083 45.1346 47.1757 45.0645 C 47.3368 44.9973 47.5241 45.0379 47.6978 45.0214 C 47.8714 45.005 48.1221 44.8201 48.2187 44.9653 C 48.4503 45.3128 48.4776 46.1922 48.4776 46.1922 "/>
  <path id="ID0.7001032647676766" fill="none" stroke="#646B70" stroke-width="0.5238095604314418" stroke-linecap="round" d="M 57.0778 45.1116 C 57.0778 45.1116 57.0726 44.7381 57.0783 44.5517 C 57.0837 44.3763 57.2039 44.175 57.1119 44.0255 C 57.0167 43.8708 56.7959 43.8226 56.6159 43.7997 C 56.4427 43.7779 56.273 43.8668 56.1012 43.8972 C 55.9295 43.9277 55.6386 43.8162 55.5842 43.9819 C 55.4535 44.3785 55.6615 45.2335 55.6615 45.2335 "/>
  <path id="ID0.7001032647676766" fill="none" stroke="#646B70" stroke-width="0.5238095604314418" stroke-linecap="round" d="M 55.5778 45.3616 C 55.5778 45.3616 55.5726 44.9881 55.5783 44.8017 C 55.5837 44.6263 55.7039 44.425 55.6119 44.2755 C 55.5167 44.1208 55.2959 44.0726 55.1159 44.0497 C 54.9427 44.0279 54.773 44.1168 54.6012 44.1472 C 54.4295 44.1777 54.1386 44.0662 54.0842 44.2319 C 53.9535 44.6285 54.1615 45.4835 54.1615 45.4835 "/>
  <path id="ID0.7001032647676766" fill="none" stroke="#646B70" stroke-width="0.5238095604314418" stroke-linecap="round" d="M 53.8278 45.8616 C 53.8278 45.8616 53.8226 45.4881 53.8283 45.3017 C 53.8337 45.1263 53.9539 44.925 53.8619 44.7755 C 53.7667 44.6208 53.5459 44.5726 53.3659 44.5497 C 53.1927 44.5279 53.023 44.6168 52.8512 44.6472 C 52.6795 44.6777 52.3886 44.5662 52.3342 44.7319 C 52.2035 45.1285 52.4115 45.9835 52.4115 45.9835 "/>
  <path id="ID0.7001032647676766" fill="none" stroke="#646B70" stroke-width="0.5238095604314418" stroke-linecap="round" d="M 52.3278 46.1116 C 52.3278 46.1116 52.3226 45.7381 52.3283 45.5517 C 52.3337 45.3763 52.4539 45.175 52.3619 45.0255 C 52.2667 44.8708 52.0459 44.8226 51.8659 44.7997 C 51.6927 44.7779 51.523 44.8668 51.3512 44.8972 C 51.1795 44.9277 50.8886 44.8162 50.8342 44.9819 C 50.7035 45.3785 50.9115 46.2335 50.9115 46.2335 "/>
  <path id="ID0.7001032647676766" fill="none" stroke="#646B70" stroke-width="0.5238095965882336" stroke-linecap="round" d="M 50.7452 46.7644 C 50.7452 46.7644 50.7009 46.3935 50.687 46.2075 C 50.674 46.0326 50.7724 45.8197 50.6652 45.6807 C 50.5544 45.5369 50.3297 45.512 50.1483 45.5081 C 49.9738 45.5046 49.8144 45.6108 49.6467 45.6591 C 49.4791 45.7073 49.1781 45.627 49.1414 45.7975 C 49.0531 46.2056 49.3494 47.034 49.3494 47.034 "/>
  <path id="ID0.44800941413268447" fill="none" stroke="#2E3234" stroke-width="0.6130029617844557" stroke-linecap="round" d="M 50.0241 37.7765 L 48.0058 36.8344 L 44.9523 38.4759 "/>
  <path id="ID0.44800941413268447" fill="none" stroke="#33383A" stroke-width="1.0503597710186128" stroke-linecap="round" d="M 48.1034 31.0877 L 48.9009 26.5533 L 52.7546 23.3372 L 59.2289 22.2436 "/>
  <path id="ID0.023752907756716013" fill="none" stroke="#584E44" stroke-width="1.181434664591577" stroke-linecap="round" d="M 36.0336 29.7451 L 39.1385 28.6208 L 41.712 28.6049 "/>
  <path id="ID0.023752907756716013" fill="none" stroke="#584E44" stroke-width="1.1814346958716424" stroke-linecap="round" d="M 57.4858 26.437 L 54.2049 26.0619 L 51.6977 26.6421 "/>
</svg>