<svg xmlns="http://www.w3.org/2000/svg" xmlns:xlink="http://www.w3.org/1999/xlink" version="1.1" width="116.99764864448572" height="337.89924471382164" viewBox="2.1180236697004977 -0.6115762829972562 116.99764864448572 337.89924471382164">
  <defs>
    <linearGradient id="grad_1" y2="1" x2="0">
      <stop offset="0" stop-color="#222325" stop-opacity="1"/>
      <stop offset="1" stop-color="#2E3034" stop-opacity="1"/>
    </linearGradient>
  </defs>
  <!-- Exported by Scratch - http://scratch.mit.edu/ -->
  <g id="ID0.9602425838820636">
    <g id="ID0.17693647183477879">
      <path id="ID0.7729651997797191" fill="#393C40" stroke="none" stroke-linecap="round" d="M 102.8395 100.7959 L 83.7002 103.3645 L 88.3722 119.2267 L 92.0406 132.0387 L 96.1271 137.2065 L 99.6693 140.2667 L 111.4678 136.0866 L 112.416 130.3559 L 105.7836 111.7085 L 102.8395 100.7959 Z " stroke-width="0.7788099389450848"/>
      <path id="ID0.9716172609478235" fill="#34373A" stroke="none" stroke-linecap="round" d="M 99.2836 106.6388 L 103.7796 104.046 L 101.5394 97.9625 L 85.0871 108.4561 L 88.1708 111.1202 L 93.5443 112.524 L 99.2836 106.6388 Z " stroke-width="0.7788099389450848"/>
      <g id="ID0.38066427363082767">
        <path id="ID0.4757494777441025" fill="#1D1E1F" stroke="none" stroke-linecap="round" d="M 92.0907 77.798 L 83.7882 76.3549 L 68.9523 82.1058 L 78.5355 105.7698 L 88.7351 109.8068 L 93.1128 110.5118 L 96.0051 108.0237 L 98.5163 104.9942 L 103.7701 102.1059 L 103.5031 96.8884 L 102.2614 89.2373 L 98.6251 81.5334 L 92.0907 77.798 Z " stroke-width="0.45418605688989483"/>
        <path id="ID0.6007084371522069" fill="none" stroke="#0D0D0D" stroke-width="0.9083721137797897" stroke-linecap="round" d="M 103.342 102.4787 L 98.6295 104.9859 L 94.809 108.7941 L 93.1211 110.6251 L 88.7351 109.8068 L 84.3879 107.961 "/>
      </g>
    </g>
    <g id="ID0.7397577832452953">
      <path id="ID0.6726378230378032" fill="#34373A" stroke="none" stroke-linecap="round" d="M 111.4849 127.6799 L 96.696 137.4273 L 97.6315 139.5455 L 112.0207 129.6711 L 111.4849 127.6799 Z " stroke-width="0.7788099389450848"/>
      <path id="ID0.6507829907350242" fill="#1D1E1F" stroke="none" stroke-linecap="round" d="M 114.8128 128.424 L 97.4623 139.4517 L 99.1691 157.4826 L 101.8482 167.4385 L 102.9681 182.7792 L 102.8392 189.0356 L 114.4379 190.1411 L 114.1785 183.913 L 115.2457 174.4644 L 117.0995 162.4207 L 118.1809 153.1663 L 114.8128 128.424 Z " stroke-width="0.7788099389450848"/>
      <path id="ID0.6829322893172503" fill="#1D1E1F" stroke="none" stroke-linecap="round" d="M 114.798 189.7243 L 104.5401 185.5927 L 101.8159 191.0625 L 98.3433 196.9775 L 98.7402 202.4147 L 99.6488 206.8384 L 101.8033 209.6094 L 103.6305 215.9183 L 108.0826 215.3981 L 109.1059 213.3712 L 110.6452 213.0636 L 113.5679 210.3123 L 116.6564 207.1585 L 118.2864 202.7447 L 117.0135 196.0049 L 114.798 189.7243 Z " stroke-width="0.7788099389450848"/>
      <path id="ID0.47767175547778606" fill="none" stroke="#0D0D0D" stroke-width="1.5576198778901695" stroke-linecap="round" d="M 115.0878 132.1912 L 114.5324 128.3273 L 97.54 139.446 L 98.8232 152.7445 "/>
      <path id="ID0.5922487881034613" fill="#282A2B" stroke="none" stroke-linecap="round" d="M 118.0061 160.7181 L 110.896 155.8491 L 105.0761 156.352 L 99.5869 162.4532 L 101.9867 176.6072 L 106.9775 183.466 L 110.2787 183.225 L 115.5939 175.809 L 118.0061 160.7181 Z " stroke-width="0.7788099389450848"/>
      <path id="ID0.36820242274552584" fill="#151616" stroke="none" stroke-linecap="round" d="M 112.3522 163.7638 L 104.2684 164.2759 L 107.6312 175.0408 L 109.0625 174.8583 L 112.3522 163.7638 Z " stroke-width="0.7788099389450848"/>
      <path id="ID0.13569410238415003" fill="none" stroke="#232425" stroke-width="1.5576198778901695" stroke-linecap="round" d="M 113.7832 174.2198 L 108.845 181.4521 L 103.3635 174.8243 "/>
      <path id="ID0.024502143263816833" fill="none" stroke="#0D0D0D" stroke-width="1.5576198778901695" stroke-linecap="round" d="M 117.6625 160.5054 L 111.2741 155.8961 L 105.5092 156.0827 L 99.9422 162.1895 L 101.3921 170.283 "/>
    </g>
  </g>
  <path id="ID0.3809091211296618" fill="#393D40" stroke="none" stroke-linecap="round" d="M 64.7195 181.9689 L 91.7429 172.7919 L 90.4092 211.5627 L 88.215 222.2863 L 80.9134 239.4058 L 72.0398 241.0218 L 59.0243 240.8043 L 61.5036 220.1329 L 64.6074 209.1041 L 64.7195 181.9689 Z " stroke-width="0.7305889726826108"/>
  <g id="ID0.9340031337924302">
    <path id="ID0.05466862628236413" fill="#292D2E" stroke="none" stroke-linecap="round" d="M 57.6977 228.764 L 84.0817 233.1096 L 73.7209 249.5982 L 70.693 253.9247 L 64.6347 271.0259 L 49.2729 308.7722 L 33.7661 305.8137 L 38.3912 284.0505 L 38.4063 274.9949 L 39.9941 265.6089 L 46.0706 253.3666 L 49.8065 241.6255 L 57.6977 228.764 Z " stroke-width="0.7305890333937236"/>
    <path id="ID0.4490455654449761" fill="none" stroke="#272A2B" stroke-width="1.6585525751497858" stroke-linecap="round" d="M 57.2697 228.9553 L 83.761 232.9296 L 69.8936 254.1322 "/>
    <path id="ID0.10446935473009944" fill="none" stroke="#242728" stroke-width="1.6585525751497858" stroke-linecap="round" d="M 65.8316 265.7813 L 60.5697 281.7763 L 48.2939 285.5704 "/>
    <path id="ID0.42170455446466804" fill="none" stroke="#242728" stroke-width="1.6585525751497858" stroke-linecap="round" d="M 59.166 282.5513 L 53.2109 296.4632 L 40.6667 300.375 "/>
    <path id="ID0.047098892275244" fill="none" stroke="#242728" stroke-width="1.6585525751497858" stroke-linecap="round" d="M 50.0901 241.4371 L 48.4518 245.0205 L 50.0519 254.8222 "/>
  </g>
  <path id="ID0.3809091211296618" fill="#3E4246" stroke="none" stroke-linecap="round" d="M 39.8469 165.1406 L 66.1632 170.0755 L 81.8175 205.5705 L 84.5036 216.1816 L 85.3708 234.7729 L 78.0821 240.086 L 66.2664 245.5486 L 58.5127 225.2041 L 52.5125 213.2047 L 39.8469 165.1406 Z " stroke-width="0.7305889102416329"/>
  <g id="ID0.17693647183477879">
    <path id="ID0.7729651997797191" fill="#3E4246" stroke="none" stroke-linecap="round" d="M 19.6137 101.117 L 39.7538 103.1707 L 35.3869 119.947 L 31.97 133.4938 L 27.8603 139.0449 L 24.2507 142.3694 L 11.7488 138.3825 L 10.5644 132.4095 L 16.8925 112.6495 L 19.6137 101.117 Z " stroke-width="0.8164595783083819"/>
    <path id="ID0.9716172609478235" fill="#393C40" stroke="none" stroke-linecap="round" d="M 23.5344 107.1208 L 18.737 104.5538 L 20.8816 98.1048 L 38.4702 108.5519 L 35.3278 111.4462 L 29.7442 113.0961 L 23.5344 107.1208 Z " stroke-width="0.8164595783083819"/>
    <g id="ID0.38066427363082767">
      <path id="ID0.4757494777441025" fill="#1D1E1F" stroke="none" stroke-linecap="round" d="M 29.9203 76.6376 L 38.5717 74.8488 L 54.3085 80.3804 L 45.0557 105.4951 L 34.5029 110.065 L 29.9394 110.9496 L 26.8259 108.4389 L 24.0937 105.3482 L 18.4924 102.4969 L 18.5984 97.021 L 19.6445 88.9627 L 23.198 80.7693 L 29.9203 76.6376 Z " stroke-width="0.47614252359423365"/>
      <path id="ID0.6007084371522069" fill="none" stroke="#0D0D0D" stroke-width="0.9522850471884673" stroke-linecap="round" d="M 18.9535 102.8733 L 23.9748 105.3433 L 28.1049 109.2063 L 29.9345 111.0686 L 34.5029 110.065 L 38.9964 107.9862 "/>
    </g>
  </g>
  <g id="ID0.7397577832452953">
    <path id="ID0.6726378230378032" fill="#393C40" stroke="none" stroke-linecap="round" d="M 12.1398 129.0636 L 27.3557 139.7064 L 26.314 141.8991 L 11.5207 131.1348 L 12.1398 129.0636 Z " stroke-width="0.8164595772191369"/>
    <path id="ID0.6507829907350242" fill="#1D1E1F" stroke="none" stroke-linecap="round" d="M 8.7381 129.9015 L 26.6012 141.96 L 24.2908 160.8059 L 21.1952 171.1616 L 19.5777 187.2054 L 19.5317 193.7655 L 7.3449 194.5883 L 7.7971 188.0691 L 6.9521 178.1367 L 5.3579 165.4619 L 4.4925 155.7326 L 8.7381 129.9015 Z " stroke-width="0.8164595772191369"/>
    <path id="ID0.6829322893172503" fill="#1D1E1F" stroke="none" stroke-linecap="round" d="M 6.9797 194.1412 L 17.8489 190.1083 L 20.5455 195.9192 L 24.0134 202.2182 L 23.4401 207.9046 L 22.3599 212.5141 L 20.0219 215.3557 L 17.9246 221.9141 L 13.2741 221.2401 L 12.2604 219.0864 L 10.6561 218.7195 L 7.673 215.7518 L 4.5276 212.3574 L 2.9473 207.6848 L 4.4762 200.6587 L 6.9797 194.1412 Z " stroke-width="0.8164595772191369"/>
    <path id="ID0.47767175547778606" fill="none" stroke="#0D0D0D" stroke-width="1.6329191544382737" stroke-linecap="round" d="M 8.3409 133.8413 L 9.0347 129.8083 L 26.52 141.9518 L 24.7904 155.8507 "/>
    <path id="ID0.5922487881034613" fill="#282A2B" stroke="none" stroke-linecap="round" d="M 4.2517 163.6191 L 11.8436 158.7224 L 17.928 159.4179 L 23.5039 165.9704 L 20.5794 180.7336 L 15.1508 187.7768 L 11.6984 187.4287 L 6.343 179.5033 L 4.2517 163.6191 Z " stroke-width="0.8164595772191369"/>
    <path id="ID0.36820242274552584" fill="#151616" stroke="none" stroke-linecap="round" d="M 10.33 166.9122 L 18.7865 167.6827 L 14.951 178.8665 L 13.4563 178.6337 L 10.33 166.9122 Z " stroke-width="0.8164595772191369"/>
    <path id="ID0.13569410238415003" fill="none" stroke="#232425" stroke-width="1.6329191544382737" stroke-linecap="round" d="M 8.4918 177.9227 L 13.4575 185.6446 L 19.3936 178.8577 "/>
    <path id="ID0.024502143263816833" fill="none" stroke="#0D0D0D" stroke-width="1.6329191544382737" stroke-linecap="round" d="M 4.8234 163.4385 L 11.6514 158.7931 L 17.6873 159.1554 L 23.3444 165.7162 L 21.5909 174.1557 "/>
  </g>
  <g id="ID0.9157347986474633">
    <path id="ID0.7477802094072104" fill="#363A3D" stroke="none" stroke-linecap="round" d="M 96.1154 124.4715 L 76.6382 120.9715 L 75.7831 162.1489 L 92.2591 171.4206 L 95.0532 146.952 L 96.1154 124.4715 Z " stroke-width="0.47614257300029306"/>
    <path id="ID0.7477802094072104" fill="#363A3D" stroke="none" stroke-linecap="round" d="M 35.7831 123.2358 L 59.2874 120.8664 L 58.4323 162.0439 L 41.5855 170.6236 L 36.6325 145.3988 L 35.7831 123.2358 Z " stroke-width="0.47614257300029306"/>
    <path id="ID0.4270821204409003" fill="#3E4246" stroke="none" stroke-linecap="round" d="M 36.5179 103.1385 L 40.5858 90.7215 L 42.968 84.937 L 49.6594 78.0513 L 80.6913 80.1245 L 87.505 84.5522 L 90.2772 88.6578 L 97.0615 100.2286 L 96.13 110.6866 L 95.0642 116.1413 L 96.587 123.0785 L 96.9494 128.5629 L 94.6639 135.421 L 92.9366 140.6238 L 91.5537 149.8818 L 92.5985 171.8108 L 87.2868 179.9158 L 82.3736 186.0287 L 70.1457 191.204 L 58.6169 187.9404 L 54.8289 181.1467 L 50.0115 174.6174 L 41.5309 171.3457 L 40.9148 145.9728 L 39.8631 139.2835 L 35.5303 127.7637 L 34.4461 116.9066 L 36.5179 103.1385 Z " stroke-width="0.47614257300029306"/>
    <path id="ID0.052435632329434156" fill="#393C40" stroke="none" stroke-linecap="round" d="M 47.6176 153.3064 L 52.0676 153.4464 L 58.5926 156.868 L 63.6659 156.8067 L 69.5079 158.7139 L 73.7193 157.7298 L 75.3953 157.2884 L 89.6758 154.1797 L 89.9646 157.4718 L 81.3094 161.4592 L 75.3653 161.0263 L 69.7086 163.9568 L 63.1172 160.2957 L 56.6817 160.5907 L 46.883 156.5772 L 47.6176 153.3064 Z " stroke-width="0.47614257300029306"/>
    <path id="ID0.4987568911164999" fill="none" stroke="#27282B" stroke-width="0.9522851460005861" stroke-linecap="round" d="M 49.4282 78.7223 L 42.8732 84.7774 L 39.3333 94.705 "/>
    <path id="ID0.2889464790932834" fill="none" stroke="#27282B" stroke-width="0.9522851460005861" stroke-linecap="round" d="M 82.0073 80.8276 L 87.6407 84.7545 L 93.1604 94.1559 "/>
    <path id="ID0.8373676878400147" fill="#000000" stroke="#2C2F31" stroke-width="0.6155104186945868" stroke-linecap="round" d="M 52.7718 91.8289 L 53.1477 90.3053 L 49.4906 91.1437 L 44.5712 94.3904 L 40.345 99.3623 L 37.7859 104.9474 L 42.9649 102.7905 L 47.6638 102.7687 L 50.3933 103.7374 L 52.8766 106.7745 L 54.9998 105.7908 L 59.0137 105.5844 L 63.5076 106.7087 L 67.2907 109.9577 L 69.3094 113.0511 L 71.5215 110.069 L 75.2778 107.0016 L 79.42 105.6457 L 84.5766 105.7213 L 86.3974 106.3414 L 88.1518 103.2619 L 90.1315 102.0408 L 92.7243 102.6183 L 95.4998 104.2822 L 94.1302 100.4475 L 91.9186 96.4983 L 89.1278 93.4475 L 85.9954 91.1516 L 81.4947 90.1811 L 83.6416 92.125 L 83.5629 93.8928 L 81.9298 95.9766 L 78.336 97.1258 L 75.1675 97.3698 L 72.5473 97.4072 L 70.0914 93.7552 L 69.6147 95.8134 L 68.1543 95.7484 L 66.6463 93.2938 L 65.6126 97.4836 L 61.5286 97.5328 L 57.4156 96.5025 L 54.0919 95.0453 L 52.7718 91.8289 Z "/>
    <path id="ID0.5698574706912041" fill="none" stroke="#313537" stroke-width="0.9522851460005861" stroke-linecap="round" d="M 47.5497 153.1383 L 46.8879 156.3392 L 56.6792 160.7097 L 63.4702 160.4935 L 69.473 163.8328 "/>
    <path id="ID0.5698574706912041" fill="none" stroke="#313537" stroke-width="0.8933066257048137" stroke-linecap="round" d="M 89.4201 154.2278 L 89.8721 157.4518 L 81.1747 161.4384 L 75.2685 160.9586 L 69.9108 164.0619 "/>
    <path id="ID0.8947288258932531" fill="#393C40" stroke="none" stroke-linecap="round" d="M 49.1069 141.2169 L 56.131 141.2437 L 63.6367 143.3045 L 69.1869 148.9442 L 62.1848 144.4173 L 51.4575 142.6944 L 46.2773 145.611 L 49.1069 141.2169 Z " stroke-width="0.47614257300029306"/>
    <path id="ID0.8947288258932531" fill="#393C40" stroke="none" stroke-linecap="round" d="M 87.8687 143.0222 L 81.657 142.7878 L 74.9447 144.3343 L 69.8299 149.1171 L 76.1875 145.3716 L 85.7361 144.2423 L 90.2093 147.0115 L 87.8687 143.0222 Z " stroke-width="0.4213738884176943"/>
    <path id="ID0.9897695370018482" fill="#393C40" stroke="none" stroke-linecap="round" d="M 52.3037 153.5466 L 45.768 152.9346 L 46.2928 148.3021 L 47.4103 151.8257 L 52.5009 152.0743 L 58.5692 155.7007 L 64.0511 155.4574 L 68.1153 156.9705 L 69.659 149.1445 L 69.6933 158.9559 L 64.1414 156.8403 L 58.2623 156.7183 L 52.3037 153.5466 Z " stroke-width="0.47614257300029306"/>
    <path id="ID0.9897695370018482" fill="#393C40" stroke="none" stroke-linecap="round" d="M 84.6103 154.4693 L 90.155 154.1415 L 89.8823 149.8173 L 88.8083 153.0505 L 84.4979 153.0939 L 79.237 156.2401 L 74.6142 155.8119 L 71.1244 157.0682 L 70.1086 149.7389 L 69.7179 158.855 L 74.4868 157.0937 L 79.4588 157.197 L 84.6103 154.4693 Z " stroke-width="0.4232251205631144"/>
    <path id="ID0.3524594851769507" fill="#393C40" stroke="none" stroke-linecap="round" d="M 63.4472 119.0607 L 69.3046 121.3731 L 73.804 119.1329 L 70.5593 122.8755 L 71.28 134.0346 L 80.3664 133.366 L 69.867 136.7199 L 58.3014 131.7887 L 67.9468 134.013 L 67.7764 122.7225 L 63.4472 119.0607 Z " stroke-width="0.47614257300029306"/>
    <path id="ID0.9214867809787393" fill="#393C40" stroke="none" stroke-linecap="round" d="M 49.1875 137.3371 L 52.2502 133.186 L 57.0304 132.3327 L 51.1001 136.972 L 50.8012 139.8947 L 55.8463 140.0471 L 63.9436 143.4299 L 55.0098 141.3394 L 49.1545 141.2178 L 49.1875 137.3371 Z " stroke-width="0.47614257300029306"/>
    <path id="ID0.9214867809787393" fill="#393C40" stroke="none" stroke-linecap="round" d="M 87.622 138.9159 L 84.9825 134.8388 L 80.6446 133.8397 L 85.8873 138.4935 L 86.0471 141.292 L 81.428 141.2415 L 74.7251 143.9429 L 82.1427 142.5062 L 87.5015 142.6175 L 87.622 138.9159 Z " stroke-width="0.4451788453890468"/>
    <path id="ID0.8679121839813888" fill="#2C2F31" stroke="none" stroke-linecap="round" d="M 65.4241 118.0054 L 69.1988 119.703 L 72.5652 118.1299 L 73.4975 119.1017 L 69.5148 121.686 L 63.8012 119.329 L 65.4241 118.0054 Z " stroke-width="0.47614257300029306"/>
    <path id="ID0.24770551454275846" fill="none" stroke="#313537" stroke-width="0.9522851460005861" stroke-linecap="round" d="M 69.4959 116.1296 L 74.0631 119.7963 L 81.5509 120.4281 L 89.1898 119.5151 L 94.5053 115.8156 "/>
    <path id="ID0.20603158557787538" fill="none" stroke="#313537" stroke-width="0.9522851460005861" stroke-linecap="round" d="M 36.2476 111.4286 L 43.158 116.9298 L 55.4683 120.4001 L 62.7403 119.9558 L 69.0103 116.157 "/>
    <g id="ID0.5272086253389716">
      <path id="ID0.24770551454275846" fill="none" stroke="#363A3D" stroke-width="0.9522850864087884" stroke-linecap="round" d="M 38.9879 144.0256 L 48.9553 141.0655 "/>
      <path id="ID0.24770551454275846" fill="none" stroke="#363A3D" stroke-width="0.9522850864087884" stroke-linecap="round" d="M 36.6542 132.0538 L 57.2053 126.2655 "/>
    </g>
    <g id="ID0.5272086253389716">
      <path id="ID0.24770551454275846" fill="none" stroke="#363A3D" stroke-width="0.9522850864087884" stroke-linecap="round" d="M 94.4797 144.2318 L 87.5807 142.2557 "/>
      <path id="ID0.24770551454275846" fill="none" stroke="#363A3D" stroke-width="0.9522850864087884" stroke-linecap="round" d="M 95.2029 132.8424 L 81.4298 127.7945 "/>
    </g>
    <g id="ID0.7887678607366979">
      <path id="ID0.753661650698632" fill="none" stroke="#313537" stroke-width="0.9522850864087884" stroke-linecap="round" d="M 63.9207 119.1896 L 69.1078 121.6786 L 73.2085 119.1444 "/>
      <g id="ID0.8167418288066983">
        <path id="ID0.9553722990676761" fill="none" stroke="#313537" stroke-width="1.0409107743576298" stroke-linecap="round" d="M 69.4063 136.5479 L 63.8392 134.2892 L 57.706 132.2569 L 52.9163 133.1099 L 49.3201 137.3214 L 49.2484 140.7727 "/>
        <path id="ID0.5982440118677914" fill="none" stroke="#313537" stroke-width="0.8540413396238158" stroke-linecap="round" d="M 58.0334 131.8556 L 56.9532 126.5387 L 62.3362 119.5913 "/>
      </g>
      <g id="ID0.7324484633281827">
        <path id="ID0.04993448918685317" fill="none" stroke="#313537" stroke-width="0.9522850864087884" stroke-linecap="round" d="M 69.1102 121.5595 L 69.6068 132.0472 L 69.7418 148.4805 L 69.6413 164.7898 "/>
        <g id="ID0.8167418288066983">
          <path id="ID0.9553722990676761" fill="none" stroke="#313537" stroke-width="0.9699703077304642" stroke-linecap="round" d="M 69.7502 136.4275 L 74.8128 135.1754 L 80.2815 133.384 L 84.457 134.4232 L 87.4528 138.7716 L 87.3811 142.2229 "/>
          <path id="ID0.5982440118677914" fill="none" stroke="#313537" stroke-width="0.7916616152166959" stroke-linecap="round" d="M 80.0361 133.0336 L 81.1927 127.7632 L 76.7336 120.6113 "/>
          <path id="ID0.3567589442245662" fill="none" stroke="#313537" stroke-width="0.8967655150693851" stroke-linecap="round" d="M 69.6263 149.1264 L 74.8586 144.2583 L 82.2253 142.5063 L 87.7521 142.6211 L 89.8958 147.309 L 90.0431 154.3367 L 84.4805 154.9355 L 78.7638 157.9124 L 73.8491 157.5722 L 69.6031 159.3176 L 63.8142 156.6971 L 58.2197 156.819 L 51.8569 153.5913 L 45.5704 152.7464 L 46.0511 145.7318 L 48.7016 141.1434 L 54.982 141.2738 L 63.2746 143.351 L 68.9911 148.4465 Z "/>
        </g>
      </g>
    </g>
    <g id="ID0.9312638868577778">
      <path id="ID0.2888958193361759" fill="#393C40" stroke="none" stroke-linecap="round" d="M 49.9592 161.4331 L 60.1308 163.729 L 59.4755 166.6319 L 49.3039 164.3359 L 49.9592 161.4331 Z " stroke-width="0.4761425459216224"/>
      <path id="ID0.2888958193361759" fill="#393C40" stroke="none" stroke-linecap="round" d="M 39.2081 159.1286 L 50.6308 161.829 L 49.9755 164.7319 L 39.8039 162.4359 L 39.2081 159.1286 Z " stroke-width="0.4761425459216224"/>
      <g id="ID0.36424446757882833">
        <path id="ID0.7359844641759992" fill="#8A7B59" stroke="none" d="M 52.8379 160.7806 L 54.3612 160.8122 L 54.2318 167.0484 L 52.7084 167.0167 L 52.8379 160.7806 Z " stroke-width="0.4761425432043942"/>
        <path id="ID0.7359844641759992" fill="#8A7B59" stroke="none" d="M 50.9879 160.3306 L 52.5112 160.3622 L 52.3818 166.5984 L 50.8584 166.5667 L 50.9879 160.3306 Z " stroke-width="0.4761425432043942"/>
        <path id="ID0.7359844641759992" fill="#8A7B59" stroke="none" d="M 49.0379 159.6306 L 50.5612 159.6622 L 50.4318 165.8984 L 48.9084 165.8667 L 49.0379 159.6306 Z " stroke-width="0.4761425432043942"/>
        <path id="ID0.7359844641759992" fill="#8A7B59" stroke="none" d="M 54.7379 161.3306 L 56.2612 161.3622 L 56.1318 167.5984 L 54.6084 167.5667 L 54.7379 161.3306 Z " stroke-width="0.4761425432043942"/>
      </g>
      <g id="ID0.1049797898158431">
        <path id="ID0.08871637750416994" fill="#8A7B59" stroke="none" stroke-linecap="round" d="M 40.9895 158.5074 L 47.3705 159.6877 L 47.2067 165.2801 L 41.0643 164.081 L 40.9895 158.5074 Z " stroke-width="0.4761425432043942"/>
        <path id="ID0.13805592898279428" fill="#76694C" stroke="none" stroke-linecap="round" d="M 40.7978 158.2378 L 47.4882 159.4245 L 47.5236 162.3065 L 40.8114 161.0241 L 40.7978 158.2378 Z " stroke-width="0.4761425432043942"/>
        <path id="ID0.3221200187690556" fill="#61563F" stroke="none" stroke-linecap="round" d="M 43.55 160.489 L 44.4208 160.8689 L 44.4618 162.6272 L 43.5129 162.2716 L 43.55 160.489 Z " stroke-width="0.5167888865886084"/>
        <path id="ID0.1420820001512766" fill="#BAA578" stroke="none" stroke-linecap="round" d="M 46.5518 164.3318 L 47.2956 162.9185 L 47.2952 165.2283 L 41.056 164.0986 L 46.5518 164.3318 Z " stroke-width="0.4761425432043942"/>
      </g>
      <path id="ID0.2888958193361759" fill="#393C40" stroke="none" stroke-linecap="round" d="M 87.5902 162.6025 L 80.1307 164.2611 L 80.5102 166.806 L 87.9697 165.1474 L 87.5902 162.6025 Z " stroke-width="0.3810469777360591"/>
      <path id="ID0.2888958193361759" fill="#393C40" stroke="none" stroke-linecap="round" d="M 94.1651 160.9157 L 87.1307 162.7111 L 87.5102 165.256 L 93.6833 163.8204 L 94.1651 160.9157 Z " stroke-width="0.3810469777360591"/>
      <path id="ID0.7359844641759992" fill="#8A7B59" stroke="none" d="M 85.5701 161.5255 L 84.4633 161.5025 L 84.3506 166.9273 L 85.4574 166.9503 L 85.5701 161.5255 Z " stroke-width="0.3816027988624045"/>
      <path id="ID0.7359844641759992" fill="#8A7B59" stroke="none" d="M 86.9701 161.0755 L 85.8633 161.0525 L 85.7506 166.4773 L 86.8574 166.5003 L 86.9701 161.0755 Z " stroke-width="0.3816027988624045"/>
      <path id="ID0.7359844641759992" fill="#8A7B59" stroke="none" d="M 88.4701 160.6255 L 87.3633 160.6025 L 87.2506 166.0273 L 88.3574 166.0503 L 88.4701 160.6255 Z " stroke-width="0.3816027988624045"/>
      <path id="ID0.7359844641759992" fill="#8A7B59" stroke="none" d="M 84.1201 162.0755 L 83.0133 162.0525 L 82.9006 167.4773 L 84.0074 167.5003 L 84.1201 162.0755 Z " stroke-width="0.3816027988624045"/>
      <g id="ID0.1049797898158431">
        <path id="ID0.08871637750416994" fill="#8A7B59" stroke="none" stroke-linecap="round" d="M 94.4077 159.8854 L 89.4448 160.7507 L 89.3742 165.9213 L 94.1538 165.0302 L 94.4077 159.8854 Z " stroke-width="0.40545296430512573"/>
        <path id="ID0.13805592898279428" fill="#76694C" stroke="none" stroke-linecap="round" d="M 94.6523 159.6886 L 89.4505 160.549 L 89.3217 163.2094 L 94.5437 162.2614 L 94.6523 159.6886 Z " stroke-width="0.40545296430512573"/>
        <path id="ID0.3221200187690556" fill="#61563F" stroke="none" stroke-linecap="round" d="M 92.5299 161.6428 L 91.8449 161.963 L 91.7513 163.5854 L 92.4957 163.2903 L 92.5299 161.6428 Z " stroke-width="0.4400648059527854"/>
        <path id="ID0.1420820001512766" fill="#BAA578" stroke="none" stroke-linecap="round" d="M 89.9982 165.1103 L 89.4743 163.7788 L 89.3933 165.912 L 94.245 165.0884 L 89.9982 165.1103 Z " stroke-width="0.40545296430512573"/>
      </g>
      <g id="ID0.6836685389280319">
        <path id="ID0.09357938077300787" fill="#857656" stroke="none" d="M 60.7247 160.9089 L 78.6952 161.2821 L 78.5618 167.7086 L 60.5913 167.3354 L 60.7247 160.9089 Z " stroke-width="0.42833206411122815"/>
        <path id="ID0.6492703901603818" fill="#7C6E50" stroke="none" stroke-linecap="round" d="M 61.3684 163.093 L 69.5158 166.3578 L 78.4106 163.4469 L 78.3221 167.7075 L 61.2799 167.3536 L 61.3684 163.093 Z " stroke-width="0.4761425432043942"/>
        <g id="ID0.9254062357358634">
          <g id="ID0.49943465692922473">
            <path id="ID0.140373723115772" fill="#968561" stroke="none" d="M 77.1906 160.0517 L 82.308 160.1579 L 82.1202 169.2027 L 77.0028 169.0964 L 77.1906 160.0517 Z " stroke-width="0.4761425432043942"/>
            <path id="ID0.8286363878287375" fill="#BAA578" stroke="none" stroke-linecap="round" d="M 77.1728 159.8742 L 82.4043 160.221 L 78.2469 160.8966 L 77.1789 163.0176 L 77.1728 159.8742 Z " stroke-width="0.4761425432043942"/>
            <path id="ID0.7362233307212591" fill="#8A7B59" stroke="none" stroke-linecap="round" d="M 77.07 165.968 L 79.7825 166.072 L 82.2845 163.6951 L 82.1683 169.2885 L 77.0033 169.1813 L 77.07 165.968 Z " stroke-width="0.4761425432043942"/>
          </g>
          <g id="ID0.49943465692922473">
            <path id="ID0.140373723115772" fill="#968561" stroke="none" d="M 62.1483 159.9906 L 57.0309 159.8843 L 56.8431 168.9291 L 61.9605 169.0354 L 62.1483 159.9906 Z " stroke-width="0.4761425432043942"/>
            <path id="ID0.8286363878287375" fill="#BAA578" stroke="none" stroke-linecap="round" d="M 62.2093 159.8013 L 56.9679 159.9306 L 61.0936 160.7782 L 62.0726 162.9417 L 62.2093 159.8013 Z " stroke-width="0.4761425432043942"/>
            <path id="ID0.7362233307212591" fill="#8A7B59" stroke="none" stroke-linecap="round" d="M 62.0589 165.8941 L 59.3445 165.8854 L 56.9433 163.4066 L 56.8272 169.0001 L 61.9922 169.1074 L 62.0589 165.8941 Z " stroke-width="0.4761425432043942"/>
          </g>
        </g>
      </g>
    </g>
  </g>
  <path id="ID0.5368814701214433" fill="#292D2E" stroke="none" stroke-linecap="round" d="M 30.1928 321.6464 L 31.3177 311.9479 L 35.7254 299.9231 L 46.7841 305.8375 L 58.5264 315.5633 L 76.5085 324.9724 L 77.9283 331.4221 L 53.3272 333.899 L 31.9187 331.3557 L 30.1928 321.6464 Z " stroke-width="0.7702165482319235"/>
  <g id="ID0.8333355090580881">
    <path id="ID0.9286923445761204" fill="#27282B" stroke="none" stroke-linecap="round" d="M 55.863 44.1601 L 74.6707 45.6361 L 75.1468 69.9908 L 90.3834 77.1329 L 67.5285 88.4889 L 30.8656 75.9426 L 50.7445 65.3484 L 55.863 44.1601 Z " stroke-width="0.4761425852775574"/>
    <path id="ID0.5448851804248989" fill="none" stroke="#1D1E1F" stroke-width="0.9522851705551147" stroke-linecap="round" d="M 52.1729 59.5871 L 50.935 65.158 L 68.0285 73.0143 L 74.8611 70.086 "/>
    <path id="ID0.262191956397146" fill="none" stroke="#1D1E1F" stroke-width="0.9522851705551147" stroke-linecap="round" d="M 54.9346 64.539 L 67.6476 70.7288 L 70.6473 69.6099 "/>
  </g>
  <g id="ID0.3450673264451325">
    <g id="ID0.9831569031812251">
      <path id="ID0.0877610077150166" fill="#2E3034" stroke="none" stroke-linecap="round" d="M 78.7251 13.3343 L 74.1527 0.2177 L 74.1527 28.7463 L 81.8241 28.7463 L 78.7251 13.3343 Z " stroke-width="0.5866066539949776"/>
      <path id="ID0.796130308881402" fill="#242628" stroke="none" stroke-linecap="round" d="M 79.033 13.3789 L 74.105 0.2623 L 77.6613 14.1004 L 78.6012 28.9877 L 81.7764 28.6926 L 79.033 13.3789 Z " stroke-width="0.5866066539949776"/>
    </g>
    <g id="ID0.9831569031812251">
      <path id="ID0.0877610077150166" fill="#2E3034" stroke="none" stroke-linecap="round" d="M 54.8249 13.4843 L 59.3973 0.3677 L 59.3973 28.8963 L 51.7259 28.8963 L 54.8249 13.4843 Z " stroke-width="0.5866066539949776"/>
      <path id="ID0.796130308881402" fill="#242628" stroke="none" stroke-linecap="round" d="M 54.417 13.5289 L 59.345 0.4123 L 55.7887 14.2504 L 54.6964 28.8098 L 51.6736 28.8426 L 54.417 13.5289 Z " stroke-width="0.5866066539949776"/>
    </g>
    <path id="ID0.8999492498114705" fill="#2E3034" stroke="none" stroke-linecap="round" d="M 72.3733 19.3124 C 76.7775 19.7915 81.5093 22.5019 83.6416 26.3848 C 86.0745 30.8179 84.1267 36.4165 84.4265 41.412 C 84.5997 43.1155 85.3923 44.8682 85.0615 46.4924 C 84.3879 49.7962 82.7139 52.8251 81.6323 56.0181 C 80.9236 58.1107 80.7691 60.4655 79.6001 62.3686 C 78.2843 64.6212 76.9416 67.7553 74.3419 68.211 C 70.488 68.8862 66.4115 67.0451 62.9619 65.2898 C 60.1281 63.8475 57.4746 61.6355 55.9002 58.8631 C 53.0806 53.7182 50.5196 48.0582 50.134 42.1741 C 49.7067 35.6514 48.9365 27.5853 53.6902 22.8687 C 57.9425 18.3273 65.8262 18.6032 72.3733 19.3124 Z " stroke-width="0.508037269115448"/>
    <path id="ID0.2441388238221407" fill="#AB8E85" stroke="none" d="M 70.0438 44.1745 C 74.1241 44.3416 79.5631 41.1768 82.2883 43.9234 C 84.7434 46.5142 81.3753 51.3755 80.4045 54.8492 C 79.4375 58.304 78.7493 62.0426 76.5114 64.8959 C 75.4439 66.1643 73.2186 66.2359 71.488 65.9634 C 68.3761 65.4698 65.3143 64.1864 62.7198 62.3955 C 60.0348 60.5432 56.487 58.5137 55.9156 55.2887 C 55.1923 51.2035 55.8566 45.8084 59.0552 43.2327 C 61.9889 40.9834 66.3743 44.0238 70.0438 44.1745 Z " stroke-width="1.2558400630950928"/>
    <path id="ID0.46721756737679243" fill="#A2887F" stroke="none" stroke-linecap="round" d="M 55.4363 45.2953 L 57.1129 45.9812 L 83.1244 45.6001 L 75.9102 50.6805 L 59.1704 48.2165 L 60.2881 50.6043 L 60.5421 56.2181 L 64.1746 63.4068 L 59.6023 56.7261 L 55.4363 45.2953 Z " stroke-width="0.508037269115448"/>
    <path id="ID0.8256730306893587" fill="none" stroke="#937B73" stroke-width="1.016074538230896" stroke-linecap="round" d="M 66.3886 57.0778 C 66.3886 57.0778 69.0878 56.4813 70.4529 56.2903 C 70.7943 56.2425 71.1326 56.3203 71.4689 56.3665 C 71.8109 56.4138 72.1401 56.5814 72.485 56.5697 C 73.1688 56.5469 73.8379 56.3497 74.5172 56.2649 C 74.854 56.2227 75.1939 56.1846 75.5332 56.1887 C 75.8731 56.1928 76.2181 56.2131 76.5493 56.2903 C 77.0939 56.4173 78.1496 56.7983 78.1496 56.7983 "/>
    <path id="ID0.7592270169407129" fill="none" stroke="#937B73" stroke-width="1.016074538230896" stroke-linecap="round" d="M 74.9693 58.4019 C 74.9693 58.4019 74.3475 58.7468 74.004 58.8083 C 73.6708 58.8682 73.3248 58.7235 72.988 58.7575 C 72.6491 58.792 72.3351 58.9688 71.9973 59.0115 C 71.6615 59.0542 71.3109 59.0867 70.9812 59.0115 C 70.7008 58.9475 70.2192 58.6051 70.2192 58.6051 "/>
    <path id="ID0.5332203092984855" fill="none" stroke="#937B73" stroke-width="1.016074538230896" stroke-linecap="round" d="M 69.0009 48.9532 C 69.0009 48.9532 68.3954 49.385 68.2897 49.7152 C 68.1525 50.1577 67.898 51.0026 68.3405 51.3156 C 68.9212 51.6056 69.6797 50.8786 70.3726 50.9345 C 71.0433 50.9914 72.354 51.4426 72.354 51.4426 "/>
    <path id="ID0.2278452254831791" fill="none" stroke="#937B73" stroke-width="1.016074538230896" stroke-linecap="round" d="M 73.3447 45.2953 C 73.3447 45.2953 74.2789 47.1578 74.7418 48.0895 C 74.8967 48.4015 75.0674 48.7073 75.199 49.0294 C 75.3306 49.3515 75.5429 49.6726 75.5292 50.0201 C 75.5155 50.3686 75.3092 50.6907 75.1228 50.9853 C 74.9983 51.1824 74.6148 51.468 74.6148 51.468 "/>
    <path id="ID0.6473136460408568" fill="none" stroke="#937B73" stroke-width="1.016074563998663" stroke-linecap="round" d="M 73.6945 62.2247 C 73.6945 62.2247 74.0113 62.8595 74.0622 63.2041 C 74.1113 63.5396 74.0513 63.8871 73.9877 64.2203 C 73.8923 64.7223 73.5871 65.7015 73.5871 65.7015 "/>
    <path id="ID0.11669129692018032" fill="#2E3034" stroke="none" stroke-linecap="round" d="M 57.3669 39.9609 L 80.6096 41.739 L 84.5469 44.4062 L 75.1482 49.1056 L 54.4457 46.5654 L 57.3669 39.9609 Z " stroke-width="0.508037269115448"/>
    <path id="ID0.14635155349969864" fill="#2E3034" stroke="none" stroke-linecap="round" d="M 54.6997 45.2191 L 56.554 45.6001 L 59.1958 50.8075 L 59.5006 56.5737 L 61.3296 60.384 L 64.2254 63.9149 L 55.9952 58.7075 L 54.6997 45.2191 Z " stroke-width="0.508037269115448"/>
    <path id="ID0.28340246016159654" fill="#1C1D1F" stroke="none" stroke-linecap="round" d="M 57.5308 36.8008 L 60.9604 38.3401 L 70.6283 39.2313 L 70.6283 44.9834 L 63.688 44.0382 L 59.8262 42.958 L 57.8008 41.4457 L 56.9367 39.7174 L 57.5308 36.8008 Z " stroke-width="0.5401026606559753"/>
    <path id="ID0.6101007834076881" fill="#FFFFFF" stroke="none" stroke-linecap="round" d="M 61.3473 39.3334 L 63.0001 39.7332 L 66.78 40.9344 L 67.3247 42.9027 L 62.07 41.4498 L 61.3473 39.3334 Z " stroke-width="0.4061061920009203"/>
    <path id="ID0.28340246016159654" fill="#1C1D1F" stroke="none" stroke-linecap="round" d="M 83.1357 36.8586 L 80.0774 38.2313 L 71.4563 39.0259 L 71.4563 44.1553 L 77.6452 43.3124 L 81.0888 42.3492 L 82.8949 41.0006 L 83.6655 39.4594 L 83.1357 36.8586 Z " stroke-width="0.4816249907016754"/>
    <path id="ID0.6101007834076881" fill="#FFFFFF" stroke="none" stroke-linecap="round" d="M 81.4526 38.9089 L 79.9112 39.4003 L 76.4053 40.7963 L 76.0217 42.7012 L 80.9101 40.9663 L 81.4526 38.9089 Z " stroke-width="0.3863867372519633"/>
    <g id="ID0.07940126257017255">
      <path id="ID0.46257128613069654" fill="#27282B" stroke="none" stroke-linecap="round" d="M 70.8045 39.0743 L 75.1482 49.0318 L 65.1145 47.7617 L 70.8045 39.0743 Z " stroke-width="0.508037269115448"/>
      <path id="ID0.9845890481956303" fill="#27282B" stroke="none" stroke-linecap="round" d="M 71.6173 39.1989 L 79.8983 46.5654 L 75.2244 49.1056 L 71.6173 39.1989 Z " stroke-width="0.508037269115448"/>
    </g>
    <path id="ID0.20071752788498998" fill="#202324" stroke="none" d="M 62.3686 34.5018 L 66.5091 37.0673 L 71.2593 38.2358 L 71.3355 39.6329 L 63.5625 38.3628 L 57.6693 36.0259 L 59.3966 34.2477 L 62.3686 34.5018 Z " stroke-width="0.508037269115448"/>
    <path id="ID0.20071752788498998" fill="#202324" stroke="none" d="M 79.4242 34.2614 L 76.3713 36.7084 L 71.1277 38.2698 L 71.0578 39.5516 L 78.1891 38.3864 L 83.6191 36.3588 L 82.081 34.1216 L 79.4242 34.2614 Z " stroke-width="0.46609798073768616"/>
    <path id="ID0.521138689480722" fill="none" stroke="#212325" stroke-width="0.9060627222061157" stroke-linecap="round" d="M 83.2139 36.5742 L 79.9747 38.1598 L 71.4351 39.4057 "/>
    <path id="ID0.17828734638169408" fill="none" stroke="#202324" stroke-width="1.016074538230896" stroke-linecap="round" d="M 75.0466 48.5467 L 72.1254 41.3072 C 71.1245 38.8879 71.2729 39.4564 71.0839 38.4876 C 71.0179 38.1493 71.2358 37.8129 71.2871 37.4715 C 71.3374 37.1352 71.4014 36.7953 71.3887 36.4555 C 71.376 36.112 71.2769 35.7762 71.2109 35.4394 C 71.1078 34.9136 70.8807 33.8645 70.8807 33.8645 "/>
    <path id="ID0.521138689480722" fill="none" stroke="#212325" stroke-width="1.016074538230896" stroke-linecap="round" d="M 57.8068 36.3055 L 61.4392 38.0836 L 71.0157 39.4807 "/>
    <path id="ID0.8012696979567409" fill="none" stroke="url(#grad_1)" stroke-width="1.016074538230896" stroke-linecap="round" d="M 83.1244 45.1429 L 75.6562 49.0548 L 57.0621 46.7178 L 59.0434 50.5789 L 59.3482 56.6753 L 61.2788 60.2824 L 64.1746 63.9149 "/>
    <path id="ID0.043594349175691605" fill="#D7E2FD" stroke="none" stroke-linecap="round" d="M 66.5289 41.9677 L 66.7575 40.85 L 67.2656 42.9075 L 64.6746 42.1709 L 66.5289 41.9677 Z " stroke-width="0.508037269115448"/>
    <path id="ID0.043594349175691605" fill="#D7E2FD" stroke="none" stroke-linecap="round" d="M 76.7225 41.8348 L 76.4574 40.8321 L 76.1024 42.7258 L 78.4161 41.9236 L 76.7225 41.8348 Z " stroke-width="0.4618642652203811"/>
  </g>
  <g id="ID0.4898335998877883">
    <path id="ID0.5368814701214433" fill="#303436" stroke="none" stroke-linecap="round" d="M 46.6334 323.903 L 49.1656 314.966 L 53.2858 305.549 L 63.4856 311.0083 L 75.0444 318.1925 L 92.9014 327.8369 L 94.2364 334.3047 L 69.6049 336.4584 L 48.2316 333.6341 L 46.6334 323.903 Z " stroke-width="0.7702165534733726"/>
    <g id="ID0.9492031107656658">
      <path id="ID0.05466862628236413" fill="#303436" stroke="none" stroke-linecap="round" d="M 62.4586 231.2848 L 89.1927 231.8196 L 81.2918 249.6183 L 78.9125 254.3328 L 75.3574 272.1236 L 65.5413 311.6762 L 49.771 310.9617 L 51.242 288.7611 L 49.9642 279.7961 L 50.1959 270.2795 L 54.4626 257.2952 L 56.4842 245.141 L 62.4586 231.2848 Z " stroke-width="0.7305889708030108"/>
      <path id="ID0.4490455654449761" fill="none" stroke="#272A2B" stroke-width="1.6585524170024866" stroke-linecap="round" d="M 62.2826 232.2292 L 89.07 232.3811 L 78.3713 255.3462 "/>
      <path id="ID0.10446935473009944" fill="none" stroke="#242728" stroke-width="1.6585524170024866" stroke-linecap="round" d="M 76.0138 267.4558 L 73.089 284.0381 L 61.4806 289.5457 "/>
      <path id="ID0.42170455446466804" fill="none" stroke="#242728" stroke-width="1.6585524170024866" stroke-linecap="round" d="M 71.8104 285.0055 L 67.9021 299.625 L 56.0448 305.2875 "/>
      <path id="ID0.047098892275244" fill="none" stroke="#242728" stroke-width="1.6585524170024866" stroke-linecap="round" d="M 56.8303 245.6676 L 55.7203 249.4482 L 58.7032 258.921 "/>
    </g>
  </g>
</svg>