<svg xmlns="http://www.w3.org/2000/svg" xmlns:xlink="http://www.w3.org/1999/xlink" version="1.1" width="128.17199709592848" height="316.76766970335035" viewBox="0.925600039071889 -1.0246815809537457 128.17199709592848 316.76766970335035">
  <!-- Exported by Scratch - http://scratch.mit.edu/ -->
  <g id="ID0.7085462282411754">
    <g id="ID0.5880346246995032">
      <path id="ID0.6829322893172503" fill="#1D1E1F" stroke="none" stroke-linecap="round" d="M 6.673 173.0979 L 17.7414 169.6491 L 20.1249 175.5952 L 23.2528 182.0698 L 22.3777 187.7176 L 21.0537 192.2632 L 18.5679 194.9763 L 16.1246 201.4138 L 11.5165 200.4933 L 10.6188 198.2887 L 9.0364 197.837 L 6.2154 194.7147 L 3.2551 191.1578 L 1.9256 186.4077 L 3.8263 179.4729 L 6.673 173.0979 Z " stroke-width="0.8164595811167752"/>
      <g id="ID0.9434720128774643">
        <path id="ID0.6507829907350242" fill="#282828" stroke="none" stroke-linecap="round" d="M 11.0504 108.1426 L 28.2466 121.1346 L 24.3213 137.6701 L 21.2944 150.0072 L 18.8254 165.9421 L 20.056 173.1968 L 5.1114 173.4012 L 7.0155 166.1778 L 6.7003 156.2145 L 5.7828 143.4728 L 7.0137 130.1964 L 11.0504 108.1426 Z " stroke-width="0.8164595811167752"/>
        <path id="ID0.9892375003546476" fill="none" stroke="#191919" stroke-width="1.9999999507919488" stroke-linecap="round" d="M 5.7147 172.6159 L 19.4766 171.9653 L 18.3076 163.1828 "/>
      </g>
    </g>
    <path id="ID0.7729651997797191" fill="#282828" stroke="none" stroke-linecap="round" d="M 15.4964 77.5678 L 39.2662 77.0527 L 36.5995 97.2362 L 32.5643 107.8152 L 31.0587 116.9831 L 28.4866 125.4691 L 11.7118 122.1368 L 9.4687 115.3463 L 13.9903 91.402 L 15.4964 77.5678 Z " stroke-width="0.9588636827971333"/>
    <path id="ID0.4757494777441025" fill="#282828" stroke="none" stroke-linecap="round" d="M 27.1686 62.2997 L 36.0979 60.6967 L 52.1776 66.565 L 42.1972 91.4782 L 31.2611 95.8213 L 26.552 96.6079 L 23.397 94.0307 L 20.6448 90.8818 L 14.9378 87.9107 L 15.1483 82.4378 L 16.3734 74.4029 L 20.1794 66.2867 L 27.1686 62.2997 Z " stroke-width="0.4829924911916434"/>
  </g>
  <g id="ID0.7085462282411754">
    <g id="ID0.5880346246995032">
      <path id="ID0.6829322893172503" fill="#1D1E1F" stroke="none" stroke-linecap="round" d="M 123.4063 172.333 L 112.3525 168.8375 L 109.944 174.7736 L 106.7889 181.2349 L 107.6402 186.8864 L 108.9449 191.4375 L 111.4193 194.161 L 113.8355 200.6089 L 118.4473 199.7078 L 119.3543 197.507 L 120.9386 197.0619 L 123.7728 193.9516 L 126.748 190.4072 L 128.0976 185.6627 L 126.2261 178.72 L 123.4063 172.333 Z " stroke-width="0.8164595925922055"/>
      <g id="ID0.9434720128774643">
        <path id="ID0.6507829907350242" fill="#282828" stroke="none" stroke-linecap="round" d="M 119.3528 107.357 L 102.102 120.2763 L 105.9575 136.8283 L 108.9324 149.178 L 111.3341 165.1232 L 110.0729 172.3727 L 125.0165 172.6401 L 123.1429 165.4087 L 123.5002 155.4469 L 124.4714 142.7091 L 123.2965 129.4277 L 119.3528 107.357 Z " stroke-width="0.8164595925922055"/>
        <path id="ID0.9892375003546476" fill="none" stroke="#191919" stroke-width="1.9999999789021707" stroke-linecap="round" d="M 124.4165 171.8522 L 110.6575 171.1437 L 111.8636 162.3661 "/>
      </g>
    </g>
    <path id="ID0.7729651997797191" fill="#282828" stroke="none" stroke-linecap="round" d="M 115.0358 76.7638 L 91.2683 76.1484 L 93.8499 96.343 L 97.8404 106.9389 L 99.3074 116.113 L 101.8437 124.6099 L 118.6323 121.3483 L 120.9041 114.5673 L 116.4835 90.6042 L 115.0358 76.7638 Z " stroke-width="0.9588636962740691"/>
    <path id="ID0.4757494777441025" fill="#282828" stroke="none" stroke-linecap="round" d="M 103.3282 61.4522 L 94.4057 59.8115 L 78.3015 65.612 L 88.1767 90.5671 L 99.0944 94.9562 L 103.8001 95.7627 L 106.966 93.1988 L 109.7314 90.0615 L 115.4509 87.1146 L 115.2635 81.6408 L 114.0723 73.6009 L 110.3005 65.4687 L 103.3282 61.4522 Z " stroke-width="0.4829924979801566"/>
  </g>
  <g id="ID0.6660797297954559">
    <path id="ID0.5368814701214433" fill="#343434" stroke="none" stroke-linecap="round" d="M 59.5146 297.4769 L 63.2854 288.9879 L 68.6959 280.2483 L 78.0211 287.0952 L 88.4477 295.8419 L 104.7612 307.9149 L 105.168 314.5066 L 80.4795 313.155 L 59.7205 307.3363 L 59.5146 297.4769 Z " stroke-width="0.7702165389203726"/>
    <g id="ID0.5077062323689461">
      <path id="ID0.05466862628236413" fill="#252525" stroke="none" stroke-linecap="round" d="M 67.9927 225.7161 L 89.9173 224.5708 L 86.6896 238.9997 L 85.4388 243.9108 L 83.9519 258.3188 L 83.0407 291.6514 L 61.625 292.2357 L 62.211 273.4486 L 60.6337 266.1827 L 60.2598 258.3757 L 62.985 247.4899 L 63.9207 237.4169 L 67.9927 225.7161 Z " stroke-width="0.5998532812892271"/>
      <path id="ID0.5319394422695041" fill="none" stroke="#131313" stroke-width="2.0000000256159876" stroke-linecap="round" d="M 83.1751 290.7323 L 61.6275 292.5393 L 61.8082 280.9973 "/>
    </g>
    <g id="ID0.8820344842970371">
      <path id="ID0.3809091211296618" fill="#252525" stroke="none" stroke-linecap="round" d="M 64.3587 151.282 L 97.9025 135.1097 L 96.6822 159.3396 L 95.6948 207.9696 L 94.1156 218.6164 L 88.9822 229.4312 L 81.1545 226.4314 L 68.1373 226.3912 L 69.7038 204.6756 L 69.3344 191.2647 L 64.3587 151.282 Z " stroke-width="0.7305889758648371"/>
      <path id="ID0.9495224836282432" fill="none" stroke="#131313" stroke-width="2.0000000256159876" stroke-linecap="round" d="M 95.689 208.0785 L 94.8201 216.534 L 92.0129 224.2877 L 83.0975 227.8953 L 81.5916 232.7669 "/>
    </g>
  </g>
  <g id="ID0.18228224432095885">
    <path id="ID0.5368814701214433" fill="#404040" stroke="none" stroke-linecap="round" d="M 40.7172 301.9492 L 43.3424 293.039 L 47.5603 283.6654 L 57.7027 289.2306 L 69.1862 296.5347 L 86.9417 306.3645 L 88.2093 312.8459 L 63.5567 314.743 L 42.214 311.6964 L 40.7172 301.9492 Z " stroke-width="0.770216536965007"/>
    <g id="ID0.5077062323689461">
      <path id="ID0.05466862628236413" fill="#252525" stroke="none" stroke-linecap="round" d="M 40.9696 229.0089 L 62.6504 225.5526 L 60.966 240.2418 L 60.2413 245.2576 L 60.2856 259.742 L 62.9029 292.9842 L 41.6689 295.8289 L 40.2658 277.0852 L 37.9293 270.0267 L 36.7323 262.3029 L 38.2916 251.1901 L 38.1573 241.0747 L 40.9696 229.0089 Z " stroke-width="0.5998532761414678"/>
      <path id="ID0.5319394422695041" fill="none" stroke="#131313" stroke-width="2.0000000235231115" stroke-linecap="round" d="M 62.9511 292.0323 L 41.7153 296.1068 L 40.675 284.6104 "/>
    </g>
    <g id="ID0.8820344842970371">
      <path id="ID0.3809091211296618" fill="#252525" stroke="none" stroke-linecap="round" d="M 34.549 152.5582 L 61.2402 135.7359 L 62.5878 159.959 L 66.7463 208.421 L 66.3013 219.175 L 62.3399 230.4718 L 54.239 228.3162 L 40.8123 231.0162 L 37.7494 208.0296 L 36.1704 195.0361 L 34.549 152.5582 Z " stroke-width="0.7305889933713874"/>
      <path id="ID0.9495224836282432" fill="none" stroke="#131313" stroke-width="2.0000000235231115" stroke-linecap="round" d="M 66.6582 208.5188 L 66.688 217.0187 L 64.7161 225.0257 L 56.2319 229.5555 L 55.2494 234.5589 "/>
    </g>
  </g>
  <g id="ID0.8990198895335197">
    <path id="ID0.17576928716152906" fill="#DBDBDB" stroke="none" d="M 67.55 56.6 L 67.3 56.6 L 67.3 56.6 L 67.55 56.6 L 67.55 56.6 Z " stroke-width="1"/>
    <path id="ID0.4270821204409003" fill="#252525" stroke="none" stroke-linecap="round" d="M 65.3901 178.6011 L 65.1361 65.8448 L 82.4913 68.3245 L 89.305 72.7522 L 92.0772 76.8578 L 98.8615 88.4286 L 97.93 98.8866 L 96.8642 104.3413 L 98.387 111.2785 L 98.7494 116.7629 L 96.4639 123.621 L 94.7366 128.8238 L 93.3537 138.0818 L 94.3985 160.0108 L 89.0868 168.1158 L 84.1736 174.2287 L 65.3901 178.6011 Z " stroke-width="0.47614257300029306"/>
    <path id="ID0.4270821204409003" fill="#252525" stroke="none" stroke-linecap="round" d="M 65.5099 178.7511 L 65.7639 65.9948 L 48.4087 68.4745 L 41.595 72.9022 L 38.8228 77.0078 L 32.0385 88.5786 L 32.97 99.0366 L 34.0358 104.4913 L 32.513 111.4285 L 32.1506 116.9129 L 34.4361 123.771 L 36.1634 128.9738 L 37.5463 138.2318 L 36.5015 160.1608 L 41.8132 168.2658 L 46.7264 174.3787 L 65.5099 178.7511 Z " stroke-width="0.47614257300029306"/>
    <path id="ID0.5114514343440533" fill="#282828" stroke="none" d="M 39.2326 67.1777 L 92.2326 67.1777 L 92.2326 155.4277 L 39.2326 155.4277 L 39.2326 67.1777 Z " stroke-width="1.0073066040733152"/>
    <path id="ID0.9286923445761204" fill="#D4D4D4" stroke="none" stroke-linecap="round" d="M 55.3867 53.4723 L 72.6707 34.7361 L 65.5523 53.6152 L 66.8141 94.0873 L 28.8656 65.0426 L 49.0064 54.2341 L 55.3867 53.4723 Z " stroke-width="0.4761425852775574"/>
    <path id="ID0.9286923445761204" fill="#D4D4D4" stroke="none" stroke-linecap="round" d="M 71.7636 52.3653 L 57.9793 34.9861 L 65.0977 53.8652 L 66.3118 93.8611 L 101.7844 65.2926 L 82.0007 53.4842 L 71.7636 52.3653 Z " stroke-width="0.4761425852775574"/>
    <path id="ID0.39874776685610414" fill="#C3C3C3" stroke="none" stroke-linecap="round" d="M 47.0977 55.164 L 66.9674 65.0348 L 84.8354 56.0738 L 88.8386 58.2117 L 66.7721 68.8102 L 43.3386 57.12 L 47.0977 55.164 Z " stroke-width="0.943659350131214"/>
    <path id="ID0.13444371055811644" fill="#1F1F1F" stroke="none" stroke-linecap="round" d="M 64.55 66.85 L 69.8 66.6 L 72.6 95.1 L 60.55 95.6 L 64.55 66.85 Z " stroke-width="1"/>
    <path id="ID0.751046194229275" fill="#191919" stroke="none" stroke-linecap="round" d="M 62.265 61.935 L 66.94 59.9 L 71.45 61.935 L 71.89 69.91 L 67.49 70.9 L 62.265 69.91 L 62.265 61.935 Z " stroke-width="1.100000023841858"/>
    <path id="ID0.7854711129330099" fill="#282828" stroke="none" stroke-linecap="round" d="M 53.3 83.6 L 67.3 92.35 L 81.05 82.6 L 79.05 100.1 L 55.8 100.1 L 53.3 83.6 Z " stroke-width="1"/>
    <path id="ID0.562834897544235" fill="#282828" stroke="none" stroke-linecap="round" d="M 36.55 155.1 L 66.8 149.35 L 66.8 169.6 L 53.05 170.85 L 36.55 155.1 Z " stroke-width="1"/>
    <path id="ID0.562834897544235" fill="#282828" stroke="none" stroke-linecap="round" d="M 97.5 155.35 L 67.25 149.6 L 67.25 169.85 L 81 171.1 L 97.5 155.35 Z " stroke-width="1"/>
    <path id="ID0.6824178956449032" fill="none" stroke="#191919" stroke-width="2" stroke-linecap="round" d="M 67.05 92.6 L 66.8 169.35 "/>
    <path id="ID0.4144489667378366" fill="#313131" stroke="none" stroke-linecap="round" d="M 28.3 62.1 L 48.55 54.1 L 45.55 75.85 L 48.8 135.85 L 39.3 180.6 L 28.3 175.6 L 28.05 179.1 L 31.05 131.1 L 26.3 87.85 L 25.3 71.6 L 28.3 62.1 Z " stroke-width="1"/>
    <path id="ID0.5234400681219995" fill="#101010" stroke="none" d="M 69.2662 98.3125 C 69.6789 98.3125 70.0531 98.4801 70.324 98.751 C 70.5949 99.0219 70.7625 99.3961 70.7625 99.8087 C 70.7625 100.2214 70.5949 100.5956 70.324 100.8665 C 70.0531 101.1374 69.6789 101.305 69.2662 101.305 C 68.8536 101.305 68.4794 101.1374 68.2085 100.8665 C 67.9376 100.5956 67.77 100.2214 67.77 99.8087 C 67.77 99.3961 67.9376 99.0219 68.2085 98.751 C 68.4794 98.4801 68.8536 98.3125 69.2662 98.3125 Z " stroke-width="0.6299999952316284"/>
    <path id="ID0.5234400681219995" fill="#101010" stroke="none" d="M 69.2662 111.9125 C 69.6789 111.9125 70.0531 112.0801 70.324 112.351 C 70.5949 112.6219 70.7625 112.9961 70.7625 113.4087 C 70.7625 113.8214 70.5949 114.1956 70.324 114.4665 C 70.0531 114.7374 69.6789 114.905 69.2662 114.905 C 68.8536 114.905 68.4794 114.7374 68.2085 114.4665 C 67.9376 114.1956 67.77 113.8214 67.77 113.4087 C 67.77 112.9961 67.9376 112.6219 68.2085 112.351 C 68.4794 112.0801 68.8536 111.9125 69.2662 111.9125 Z " stroke-width="0.6299999952316284"/>
    <path id="ID0.5234400681219995" fill="#101010" stroke="none" d="M 69.2662 143.4125 C 69.6789 143.4125 70.0531 143.5801 70.324 143.851 C 70.5949 144.1219 70.7625 144.4961 70.7625 144.9087 C 70.7625 145.3214 70.5949 145.6956 70.324 145.9665 C 70.0531 146.2374 69.6789 146.405 69.2662 146.405 C 68.8536 146.405 68.4794 146.2374 68.2085 145.9665 C 67.9376 145.6956 67.77 145.3214 67.77 144.9087 C 67.77 144.4961 67.9376 144.1219 68.2085 143.851 C 68.4794 143.5801 68.8536 143.4125 69.2662 143.4125 Z " stroke-width="0.6299999952316284"/>
    <path id="ID0.5234400681219995" fill="#101010" stroke="none" d="M 69.2662 128.6625 C 69.6789 128.6625 70.0531 128.8301 70.324 129.101 C 70.5949 129.3719 70.7625 129.7461 70.7625 130.1587 C 70.7625 130.5714 70.5949 130.9456 70.324 131.2165 C 70.0531 131.4874 69.6789 131.655 69.2662 131.655 C 68.8536 131.655 68.4794 131.4874 68.2085 131.2165 C 67.9376 130.9456 67.77 130.5714 67.77 130.1587 C 67.77 129.7461 67.9376 129.3719 68.2085 129.101 C 68.4794 128.8301 68.8536 128.6625 69.2662 128.6625 Z " stroke-width="0.6299999952316284"/>
    <path id="ID0.5234400681219995" fill="#101010" stroke="none" d="M 69.1662 157.4125 C 69.5789 157.4125 69.9531 157.5801 70.224 157.851 C 70.4949 158.1219 70.6625 158.4961 70.6625 158.9087 C 70.6625 159.3214 70.4949 159.6956 70.224 159.9665 C 69.9531 160.2374 69.5789 160.405 69.1662 160.405 C 68.7536 160.405 68.3794 160.2374 68.1085 159.9665 C 67.8376 159.6956 67.67 159.3214 67.67 158.9087 C 67.67 158.4961 67.8376 158.1219 68.1085 157.851 C 68.3794 157.5801 68.7536 157.4125 69.1662 157.4125 Z " stroke-width="0.6299999952316284"/>
    <path id="ID0.4144489667378366" fill="#313131" stroke="none" stroke-linecap="round" d="M 101.85 61.25 L 81.6 53.25 L 84.6 75 L 81.35 135 L 90.85 179.75 L 101.85 174.75 L 102.1 178.25 L 99.1 130.25 L 103.85 87 L 104.85 70.75 L 101.85 61.25 Z " stroke-width="1"/>
    <path id="ID0.8752945330925286" fill="none" stroke="#222222" stroke-width="2" stroke-linecap="round" d="M 28.8 62.35 L 25.55 70.1 L 28.8 107.85 "/>
    <path id="ID0.8752945330925286" fill="none" stroke="#222222" stroke-width="2" stroke-linecap="round" d="M 102.05 61.85 L 105.3 69.6 L 102.05 107.35 "/>
    <path id="ID0.5234400681219995" fill="#101010" stroke="none" d="M 46.1662 144.0625 C 46.5789 144.0625 46.9531 144.2301 47.224 144.501 C 47.4949 144.7719 47.6625 145.1461 47.6625 145.5587 C 47.6625 145.9714 47.4949 146.3456 47.224 146.6165 C 46.9531 146.8874 46.5789 147.055 46.1662 147.055 C 45.7536 147.055 45.3794 146.8874 45.1085 146.6165 C 44.8376 146.3456 44.67 145.9714 44.67 145.5587 C 44.67 145.1461 44.8376 144.7719 45.1085 144.501 C 45.3794 144.2301 45.7536 144.0625 46.1662 144.0625 Z " stroke-width="0.6299999952316284"/>
    <path id="ID0.5234400681219995" fill="#101010" stroke="none" d="M 44.7662 151.3125 C 45.1789 151.3125 45.5531 151.4801 45.824 151.751 C 46.0949 152.0219 46.2625 152.3961 46.2625 152.8087 C 46.2625 153.2214 46.0949 153.5956 45.824 153.8665 C 45.5531 154.1374 45.1789 154.305 44.7662 154.305 C 44.3536 154.305 43.9794 154.1374 43.7085 153.8665 C 43.4376 153.5956 43.27 153.2214 43.27 152.8087 C 43.27 152.3961 43.4376 152.0219 43.7085 151.751 C 43.9794 151.4801 44.3536 151.3125 44.7662 151.3125 Z " stroke-width="0.6299999952316284"/>
    <g id="ID0.20783481979742646">
      <path id="ID0.5848579816520214" fill="#737373" stroke="none" stroke-linecap="round" d="M 91.25 89.7 L 98.1 88.2 L 98 92.1 L 90.75 92.6 L 91.25 89.7 Z " stroke-width="1"/>
      <path id="ID0.13105127029120922" fill="none" stroke="#222222" stroke-width="2" stroke-linecap="round" d="M 89.4 92.85 L 93.9 92.85 L 99.15 91.35 "/>
    </g>
  </g>
  <path id="ID0.46110434643924236" fill="#D8BFA7" stroke="none" stroke-linecap="round" d="M 53.7948 35.05 L 76.4095 35.05 L 76.877 54 L 70.6828 56.85 L 53.7948 55.15 L 53.7948 35.05 Z " stroke-width="1.0876357641452272"/>
  <path id="ID0.8999492498114705" fill="#EDD2B8" stroke="none" stroke-linecap="round" d="M 72.4733 3.2624 C 76.8775 3.7415 81.6093 6.4519 83.7416 10.3348 C 86.1745 14.7679 84.2984 20.3594 84.5265 25.362 C 84.6352 27.1021 84.8648 28.9198 84.4249 30.671 C 83.9184 33.827 82.7311 36.8366 81.7323 39.9681 C 81.0601 42.079 80.8691 44.4155 79.7001 46.3186 C 78.3843 48.5712 77.0416 51.7053 74.4419 52.161 C 70.588 52.8362 66.5115 50.9951 63.0619 49.2398 C 60.2281 47.7975 57.5746 45.5855 56.0002 42.8131 C 53.1806 37.6682 50.6196 32.0082 50.234 26.1241 C 49.8067 19.6014 49.0365 11.5353 53.7902 6.8187 C 58.0425 2.2773 65.9262 2.5532 72.4733 3.2624 Z " stroke-width="0.508037269115448"/>
  <path id="ID0.8194515448994935" fill="#EDD2B8" stroke="none" stroke-linecap="round" d="M 50.2 20.75 C 51.054 20.837 51.672 21.406 52.179 22.465 C 52.686 23.524 53 24.986 53 26.6 C 53 28.214 52.686 29.676 52.179 30.735 C 51.672 31.794 51.053 32.336 50.2 32.45 C 49.417 32.553 48.411 32.124 48.05 31.45 C 47.371 29.952 47.491 28.175 47.4 26.6 C 47.31 25.052 46.95 23.35 47.55 21.95 C 48.029 21.096 49.305 20.659 50.2 20.75 Z " stroke-width="1"/>
  <path id="ID0.5768358684144914" fill="#2E3234" stroke="none" d="M 49.25 17.6 L 55.25 17.6 L 55.25 19.4 L 49.25 19.4 L 49.25 17.6 Z " stroke-width="1"/>
  <path id="ID0.3245162623934448" fill="#54595E" stroke="none" stroke-linecap="round" d="M 70.75 4.3 C 74.006 4.3 76.956 6.928 79.092 11.173 C 81.228 15.418 81.985 22.139 82.55 27.75 C 83.127 33.479 85.029 39.717 82.7 44.95 C 80.905 48.982 75.959 52.053 71.45 52.3 C 67.192 52.537 62.053 50.067 60.05 46.2 C 57.22 40.735 58.536 33.951 58.95 27.75 C 59.326 22.124 60.272 15.418 62.408 11.173 C 64.544 6.928 67.494 4.3 70.75 4.3 Z " stroke-width="1"/>
  <path id="ID0.8999492498114705" fill="#54595E" stroke="none" stroke-linecap="round" d="M 74.3733 0.6124 C 78.624 1.8597 83.5093 3.8019 85.6416 7.6848 C 88.0745 12.1179 85.6029 17.7693 86.4265 22.712 C 86.7521 24.6644 89.2268 26.1723 89.1191 28.2496 C 88.9367 30.9224 86.8258 33.1217 85.639 35.6162 C 84.3476 38.324 83.2121 41.1848 81.6001 43.6686 C 80.1761 45.8643 78.6947 48.3664 76.3419 49.511 C 74.5303 50.3909 71.9164 50.6378 70.3471 49.4094 C 69.0994 48.433 70.2424 46.2164 69.8645 44.6593 C 69.5363 42.7379 68.2408 41.0049 68.2387 39.02 C 68.2352 33.4956 70.1002 28.0596 70.1185 22.5342 C 70.1383 16.4581 70.4731 10.2108 68.4928 4.5243 C 67.7353 2.3489 61.5194 1.7768 62.5995 1.1205 C 64.2735 -0.0551 70.6072 -0.4926 74.3733 0.6124 Z " stroke-width="0.508037269115448"/>
  <path id="ID0.8999492498114705" fill="#54595E" stroke="none" stroke-linecap="round" d="M 63.0918 1.0459 C 59.3095 2.1773 55.0953 4.1474 53.2105 7.6757 C 50.9147 11.9478 52.2249 17.3498 51.7118 22.1548 C 51.5223 23.9192 50.4585 25.7304 50.8481 27.413 C 51.4187 29.7413 53.5316 31.493 54.2012 33.7889 C 55.1233 36.9514 54.3683 40.5844 55.6999 43.5686 C 56.7668 45.9584 58.6053 48.2664 60.9581 49.411 C 62.7697 50.2909 65.3836 50.5378 66.9529 49.3094 C 68.2006 48.333 67.0576 46.1164 67.4355 44.5593 C 67.7637 42.6379 69.0592 40.9049 69.0613 38.92 C 69.0648 33.3956 67.1998 27.9596 67.1815 22.4342 C 67.1617 16.3581 67.2862 10.2495 68.8072 4.4243 C 69.2172 2.8585 73.9029 2.1534 72.9477 1.5539 C 71.0573 0.3783 66.2417 0.0272 63.0918 1.0459 Z " stroke-width="0.508037269115448"/>
  <path id="ID0.45774566335603595" fill="#54595E" stroke="none" stroke-linecap="round" d="M 71.175 36.2 C 73.279 36.2 74.819 37.464 76.565 38.266 C 78.157 38.998 81.162 39.136 81.15 40.95 C 81.162 43.782 78.677 46.226 76.565 48.234 C 75.172 49.558 73.279 50.3 71.175 50.3 C 69.071 50.3 67.268 49.457 65.785 48.234 C 63.733 46.543 61.105 44.552 61.15 41.95 C 61.105 39.958 64.029 39.241 65.785 38.266 C 67.465 37.332 69.071 36.2 71.175 36.2 Z " stroke-width="1"/>
  <path id="ID0.6934182443656027" fill="#54595E" stroke="none" stroke-linecap="round" d="M 56.95 30.6 L 70.2 34.7 L 84.3 30.2 L 81.3 36.95 L 80.8 41.45 L 60.95 42.1 L 59.8 35.95 L 56.95 30.6 Z " stroke-width="1"/>
  <path id="ID0.6236958587542176" fill="#3B4043" stroke="none" stroke-linecap="round" d="M 63.4 27.3 L 79.15 27.25 L 78.45 34.85 L 78.95 41.8 L 76.2 52.35 L 66.6 52.4 L 63.05 42.4 L 63.95 34.8 L 63.4 27.3 Z " stroke-width="1"/>
  <path id="ID0.6043254472315311" fill="#3B4043" stroke="none" stroke-linecap="round" d="M 56.1 4.65 L 60.85 1.8 L 65.6 7.4 L 72.1 8.5 L 70.85 27.8 L 68.2 30.65 L 62.85 30.3 L 59.3 28.2 L 57.7 24.3 L 59.2 17.8 L 56.1 4.65 Z " stroke-width="1"/>
  <path id="ID0.6043254472315311" fill="#3B4043" stroke="none" stroke-linecap="round" d="M 84.75 6.35 L 82.65 3.85 L 79.9 2.7 L 75.75 7.4 L 69.25 8.5 L 70.5 27.8 L 73.15 30.65 L 78.5 30.3 L 83 28.3 L 83.65 24.3 L 82.15 17.8 L 84.75 6.35 Z " stroke-width="1"/>
  <path id="ID0.9914007503539324" fill="#33383A" stroke="none" d="M 68.9 34.95 L 67.25 23.2 L 73.7 23.5 L 74 34.9 L 68.9 34.95 Z " stroke-width="1"/>
  <path id="ID0.28340246016159654" fill="#D8BFA7" stroke="none" stroke-linecap="round" d="M 56.9819 21.3412 L 63.8022 21.4345 L 68.2453 23.7057 L 69.1226 27.1279 L 67.7359 29.3368 L 64.2267 29.7101 L 61.4816 29.2123 L 59.3874 28.4345 L 57.2649 26.6923 L 56.3593 24.7012 L 56.9819 21.3412 Z " stroke-width="0.5947752382560764"/>
  <path id="ID0.28340246016159654" fill="#D8BFA7" stroke="none" stroke-linecap="round" d="M 85.5181 21.3412 L 78.6978 21.4345 L 74.2547 23.7057 L 73.3774 27.1279 L 74.7641 29.3368 L 78.2733 29.7101 L 81.0184 29.2123 L 83.1126 28.4345 L 85.2351 26.6923 L 86.1407 24.7012 L 85.5181 21.3412 Z " stroke-width="0.5947752382560764"/>
  <path id="ID0.17377300979569554" fill="#FFFFFF" stroke="none" stroke-linecap="round" d="M 60.9252 25.236 L 61.8322 24.4054 L 64.1194 24.2213 L 66.3718 24.8269 L 66.824 26.7776 L 64.1867 26.6457 L 60.9252 25.236 Z " stroke-width="0.9999999760882085"/>
  <path id="ID0.17377300979569554" fill="#FFFFFF" stroke="none" stroke-linecap="round" d="M 82.8248 25.236 L 81.9178 24.4054 L 79.6306 24.2213 L 77.3782 24.8269 L 76.926 26.7776 L 79.5633 26.6457 L 82.8248 25.236 Z " stroke-width="0.9999999760882085"/>
  <path id="ID0.44800941413268447" fill="none" stroke="#33383A" stroke-width="1.0503597259521484" stroke-linecap="round" d="M 69.9989 27.7698 L 68.3709 23.4633 L 63.9856 21.0212 L 57.4209 21.1525 "/>
  <path id="ID0.12448931112885475" fill="#33383A" stroke="none" stroke-linecap="round" d="M 69.1 33.3 L 73.9 33.4 L 74.85 36.55 L 71.75 38.05 L 68.25 36.5 L 69.1 33.3 Z " stroke-width="1"/>
  <path id="ID0.44800941413268447" fill="none" stroke="#33383A" stroke-width="1.050359732381415" stroke-linecap="round" d="M 68.9097 24.1096 L 69.7119 21.5418 L 68.2669 18.1773 "/>
  <path id="ID0.44800941413268447" fill="none" stroke="#33383A" stroke-width="1.050359732381415" stroke-linecap="round" d="M 73.3403 24.0096 L 72.5381 21.4418 L 73.9831 18.0773 "/>
  <g id="ID0.32985211815685034">
    <g id="ID0.08651347272098064">
      <g id="ID0.07771636918187141">
        <path id="ID0.7001032647676766" fill="none" stroke="#646B70" stroke-width="0.5238094925880432" stroke-linecap="round" d="M 62.8429 39.3429 C 62.8429 39.3429 62.7784 39.7108 62.7381 39.8929 C 62.7001 40.0641 62.5445 40.2396 62.6071 40.4036 C 62.6718 40.5733 62.8798 40.6618 63.0524 40.7179 C 63.2184 40.7715 63.4018 40.7158 63.5762 40.7179 C 63.7506 40.72 64.0157 40.8836 64.1 40.731 C 64.3022 40.3656 64.2571 39.4869 64.2571 39.4869 "/>
        <path id="ID0.7001032647676766" fill="none" stroke="#646B70" stroke-width="0.5238094925880432" stroke-linecap="round" d="M 64.3429 39.3429 C 64.3429 39.3429 64.2784 39.7108 64.2381 39.8929 C 64.2001 40.0641 64.0445 40.2396 64.1071 40.4036 C 64.1718 40.5733 64.3798 40.6618 64.5524 40.7179 C 64.7184 40.7715 64.9018 40.7158 65.0762 40.7179 C 65.2506 40.72 65.5157 40.8836 65.6 40.731 C 65.8022 40.3656 65.7571 39.4869 65.7571 39.4869 "/>
      </g>
      <g id="ID0.07771636918187141">
        <path id="ID0.7001032647676766" fill="none" stroke="#646B70" stroke-width="0.5238094925880432" stroke-linecap="round" d="M 65.9429 39.5429 C 65.9429 39.5429 65.8784 39.9108 65.8381 40.0929 C 65.8001 40.2641 65.6445 40.4396 65.7071 40.6036 C 65.7718 40.7733 65.9798 40.8618 66.1524 40.9179 C 66.3184 40.9715 66.5018 40.9158 66.6762 40.9179 C 66.8506 40.92 67.1157 41.0836 67.2 40.931 C 67.4022 40.5656 67.3571 39.6869 67.3571 39.6869 "/>
        <path id="ID0.7001032647676766" fill="none" stroke="#646B70" stroke-width="0.5238094925880432" stroke-linecap="round" d="M 67.4429 39.5929 C 67.4429 39.5929 67.3784 39.9608 67.3381 40.1429 C 67.3001 40.3141 67.1445 40.4896 67.2071 40.6536 C 67.2718 40.8233 67.4798 40.9118 67.6524 40.9679 C 67.8184 41.0215 68.0018 40.9658 68.1762 40.9679 C 68.3506 40.97 68.6157 41.1336 68.7 40.981 C 68.9022 40.6156 68.8571 39.7369 68.8571 39.7369 "/>
      </g>
      <path id="ID0.7001032647676766" fill="none" stroke="#646B70" stroke-width="0.5238095049857807" stroke-linecap="round" d="M 68.9908 39.7626 C 68.9908 39.7626 68.9653 40.1353 68.9442 40.3206 C 68.9244 40.4949 68.7881 40.6857 68.8675 40.8422 C 68.9496 41.0042 69.1657 41.0705 69.3432 41.1081 C 69.514 41.1441 69.6905 41.0694 69.8642 41.0532 C 70.0379 41.037 70.3186 41.172 70.3865 41.0113 C 70.5492 40.6268 70.4124 39.7577 70.4124 39.7577 "/>
    </g>
    <g id="ID0.08651347272098064">
      <g id="ID0.07771636918187141">
        <path id="ID0.7001032647676766" fill="none" stroke="#646B70" stroke-width="0.5238094925880432" stroke-linecap="round" d="M 78.0571 39.3429 C 78.0571 39.3429 78.1216 39.7108 78.1619 39.8929 C 78.1999 40.0641 78.3555 40.2396 78.2929 40.4036 C 78.2282 40.5733 78.0202 40.6618 77.8476 40.7179 C 77.6816 40.7715 77.4982 40.7158 77.3238 40.7179 C 77.1494 40.72 76.8843 40.8836 76.8 40.731 C 76.5978 40.3656 76.6429 39.4869 76.6429 39.4869 "/>
        <path id="ID0.7001032647676766" fill="none" stroke="#646B70" stroke-width="0.5238094925880432" stroke-linecap="round" d="M 76.5571 39.3429 C 76.5571 39.3429 76.6216 39.7108 76.6619 39.8929 C 76.6999 40.0641 76.8555 40.2396 76.7929 40.4036 C 76.7282 40.5733 76.5202 40.6618 76.3476 40.7179 C 76.1816 40.7715 75.9982 40.7158 75.8238 40.7179 C 75.6494 40.72 75.3843 40.8836 75.3 40.731 C 75.0978 40.3656 75.1429 39.4869 75.1429 39.4869 "/>
      </g>
      <g id="ID0.07771636918187141">
        <path id="ID0.7001032647676766" fill="none" stroke="#646B70" stroke-width="0.5238094925880432" stroke-linecap="round" d="M 74.8571 39.5429 C 74.8571 39.5429 74.9216 39.9108 74.9619 40.0929 C 74.9999 40.2641 75.1555 40.4396 75.0929 40.6036 C 75.0282 40.7733 74.8202 40.8618 74.6476 40.9179 C 74.4816 40.9715 74.2982 40.9158 74.1238 40.9179 C 73.9494 40.92 73.6843 41.0836 73.6 40.931 C 73.3978 40.5656 73.4429 39.6869 73.4429 39.6869 "/>
        <path id="ID0.7001032647676766" fill="none" stroke="#646B70" stroke-width="0.5238094925880432" stroke-linecap="round" d="M 73.3571 39.5929 C 73.3571 39.5929 73.4216 39.9608 73.4619 40.1429 C 73.4999 40.3141 73.6555 40.4896 73.5929 40.6536 C 73.5282 40.8233 73.3202 40.9118 73.1476 40.9679 C 72.9816 41.0215 72.7982 40.9658 72.6238 40.9679 C 72.4494 40.97 72.1843 41.1336 72.1 40.981 C 71.8978 40.6156 71.9429 39.7369 71.9429 39.7369 "/>
      </g>
      <path id="ID0.7001032647676766" fill="none" stroke="#646B70" stroke-width="0.5238095049857807" stroke-linecap="round" d="M 71.9092 39.7626 C 71.9092 39.7626 71.9347 40.1353 71.9558 40.3206 C 71.9756 40.4949 72.1119 40.6857 72.0325 40.8422 C 71.9504 41.0042 71.7343 41.0705 71.5568 41.1081 C 71.386 41.1441 71.2095 41.0694 71.0358 41.0532 C 70.8621 41.037 70.5814 41.172 70.5135 41.0113 C 70.3508 40.6268 70.4876 39.7577 70.4876 39.7577 "/>
    </g>
  </g>
  <path id="ID0.7001032647676766" fill="none" stroke="#646B70" stroke-width="0.523809552192688" stroke-linecap="round" d="M 63.1429 42.4071 C 63.1429 42.4071 63.0784 42.0392 63.0381 41.8571 C 63.0001 41.6859 62.8446 41.5104 62.9071 41.3464 C 62.9718 41.1767 63.1798 41.0882 63.3524 41.0321 C 63.5184 40.9785 63.7018 41.0342 63.8762 41.0321 C 64.0506 41.03 64.3157 40.8664 64.4 41.019 C 64.6022 41.3844 64.5571 42.2631 64.5571 42.2631 "/>
  <path id="ID0.7001032647676766" fill="none" stroke="#646B70" stroke-width="0.523809552192688" stroke-linecap="round" d="M 64.6429 42.4071 C 64.6429 42.4071 64.5784 42.0392 64.5381 41.8571 C 64.5001 41.6859 64.3446 41.5104 64.4071 41.3464 C 64.4718 41.1767 64.6798 41.0882 64.8524 41.0321 C 65.0184 40.9785 65.2018 41.0342 65.3762 41.0321 C 65.5506 41.03 65.8157 40.8664 65.9 41.019 C 66.1022 41.3844 66.0571 42.2631 66.0571 42.2631 "/>
  <g id="ID0.07771636918187141">
    <path id="ID0.7001032647676766" fill="none" stroke="#646B70" stroke-width="0.523809552192688" stroke-linecap="round" d="M 65.6929 42.5571 C 65.6929 42.5571 65.6284 42.1892 65.5881 42.0071 C 65.5501 41.8359 65.3946 41.6604 65.4571 41.4964 C 65.5218 41.3267 65.7298 41.2382 65.9024 41.1821 C 66.0684 41.1285 66.2518 41.1842 66.4262 41.1821 C 66.6006 41.18 66.8657 41.0164 66.95 41.169 C 67.1522 41.5344 67.1071 42.4131 67.1071 42.4131 "/>
    <path id="ID0.7001032647676766" fill="none" stroke="#646B70" stroke-width="0.523809552192688" stroke-linecap="round" d="M 67.1929 42.4071 C 67.1929 42.4071 67.1284 42.0392 67.0881 41.8571 C 67.0501 41.6859 66.8946 41.5104 66.9571 41.3464 C 67.0218 41.1767 67.2298 41.0882 67.4024 41.0321 C 67.5684 40.9785 67.7518 41.0342 67.9262 41.0321 C 68.1006 41.03 68.3657 40.8664 68.45 41.019 C 68.6522 41.3844 68.6071 42.2631 68.6071 42.2631 "/>
  </g>
  <path id="ID0.7001032647676766" fill="none" stroke="#646B70" stroke-width="0.5238095646525897" stroke-linecap="round" d="M 69.1408 42.5373 C 69.1408 42.5373 69.1153 42.1646 69.0942 41.9794 C 69.0744 41.8051 68.9381 41.6143 69.0175 41.4578 C 69.0996 41.2958 69.3157 41.2295 69.4932 41.1919 C 69.664 41.1559 69.8405 41.2306 70.0142 41.2468 C 70.1879 41.263 70.4686 41.128 70.5365 41.2887 C 70.6993 41.6732 70.5624 42.5423 70.5624 42.5423 "/>
  <path id="ID0.7001032647676766" fill="none" stroke="#646B70" stroke-width="0.523809552192688" stroke-linecap="round" d="M 78.8071 42.2071 C 78.8071 42.2071 78.8716 41.8392 78.9119 41.6571 C 78.9499 41.4859 79.1054 41.3104 79.0429 41.1464 C 78.9782 40.9767 78.7702 40.8882 78.5976 40.8321 C 78.4316 40.7785 78.2482 40.8342 78.0738 40.8321 C 77.8994 40.83 77.6343 40.6664 77.55 40.819 C 77.3478 41.1844 77.3929 42.0631 77.3929 42.0631 "/>
  <path id="ID0.7001032647676766" fill="none" stroke="#646B70" stroke-width="0.523809552192688" stroke-linecap="round" d="M 77.3071 42.2071 C 77.3071 42.2071 77.3716 41.8392 77.4119 41.6571 C 77.4499 41.4859 77.6054 41.3104 77.5429 41.1464 C 77.4782 40.9767 77.2702 40.8882 77.0976 40.8321 C 76.9316 40.7785 76.7482 40.8342 76.5738 40.8321 C 76.3994 40.83 76.1343 40.6664 76.05 40.819 C 75.8478 41.1844 75.8929 42.0631 75.8929 42.0631 "/>
  <path id="ID0.7001032647676766" fill="none" stroke="#646B70" stroke-width="0.523809552192688" stroke-linecap="round" d="M 75.5571 42.3071 C 75.5571 42.3071 75.6216 41.9392 75.6619 41.7571 C 75.6999 41.5859 75.8554 41.4104 75.7929 41.2464 C 75.7282 41.0767 75.5202 40.9882 75.3476 40.9321 C 75.1816 40.8785 74.9982 40.9342 74.8238 40.9321 C 74.6494 40.93 74.3843 40.7664 74.3 40.919 C 74.0978 41.2844 74.1429 42.1631 74.1429 42.1631 "/>
  <path id="ID0.7001032647676766" fill="none" stroke="#646B70" stroke-width="0.523809552192688" stroke-linecap="round" d="M 74.0571 42.4571 C 74.0571 42.4571 74.1216 42.0892 74.1619 41.9071 C 74.1999 41.7359 74.3554 41.5604 74.2929 41.3964 C 74.2282 41.2267 74.0202 41.1382 73.8476 41.0821 C 73.6816 41.0285 73.4982 41.0842 73.3238 41.0821 C 73.1494 41.08 72.8843 40.9164 72.8 41.069 C 72.5978 41.4344 72.6429 42.3131 72.6429 42.3131 "/>
  <path id="ID0.7001032647676766" fill="none" stroke="#646B70" stroke-width="0.5238095646525897" stroke-linecap="round" d="M 72.3592 42.5873 C 72.3592 42.5873 72.3847 42.2146 72.4058 42.0294 C 72.4256 41.8551 72.5619 41.6643 72.4825 41.5078 C 72.4004 41.3458 72.1843 41.2795 72.0068 41.2419 C 71.836 41.2059 71.6595 41.2806 71.4858 41.2968 C 71.3121 41.313 71.0314 41.178 70.9635 41.3387 C 70.8007 41.7232 70.9376 42.5923 70.9376 42.5923 "/>
  <path id="ID0.44800941413268447" fill="none" stroke="#2E3234" stroke-width="0.6130029273409839" stroke-linecap="round" d="M 73.952 33.7985 L 72.1444 32.497 L 68.8387 33.541 "/>
  <path id="ID0.44800941413268447" fill="none" stroke="#33383A" stroke-width="1.0503597259521484" stroke-linecap="round" d="M 72.4511 27.7698 L 74.0791 23.4633 L 78.4644 21.0212 L 85.0291 21.1525 "/>
  <g id="ID0.6897007944062352">
    <path id="ID0.2692581438459456" fill="#7AABFF" stroke="none" d="M 80.8257 24.3357 C 80.507 24.2448 80.182 24.2924 79.9137 24.4417 C 79.6453 24.591 79.4335 24.842 79.3427 25.1607 C 79.2518 25.4794 79.2994 25.8043 79.4486 26.0727 C 79.5979 26.3411 79.8489 26.5528 80.1676 26.6437 C 80.4864 26.7346 80.8113 26.687 81.0796 26.5377 C 81.348 26.3884 81.5598 26.1375 81.6507 25.8187 C 81.7415 25.5 81.694 25.1751 81.5447 24.9067 C 81.3954 24.6384 81.1444 24.4266 80.8257 24.3357 Z " stroke-width="1.1428571810382073"/>
    <path id="ID0.8070062398910522" fill="#192334" stroke="none" d="M 80.6326 25.003 C 80.5001 24.9652 80.3641 24.9842 80.2526 25.0471 C 80.1403 25.1087 80.0524 25.2142 80.0147 25.3467 C 79.9769 25.4792 79.9959 25.6152 80.0588 25.7267 C 80.1204 25.839 80.2259 25.9269 80.3584 25.9646 C 80.4909 26.0024 80.6269 25.9834 80.7384 25.9205 C 80.8507 25.8589 80.9385 25.7534 80.9763 25.6209 C 81.0141 25.4884 80.9951 25.3524 80.9322 25.2409 C 80.8706 25.1286 80.7651 25.0407 80.6326 25.003 Z " stroke-width="1.111111214644622"/>
  </g>
  <g id="ID0.5823970721103251">
    <path id="ID0.2692581438459456" fill="#7AABFF" stroke="none" d="M 64.5243 24.5357 C 64.843 24.4448 65.168 24.4924 65.4363 24.6417 C 65.7047 24.791 65.9165 25.042 66.0073 25.3607 C 66.0982 25.6794 66.0506 26.0043 65.9014 26.2727 C 65.7521 26.5411 65.5011 26.7528 65.1824 26.8437 C 64.8636 26.9346 64.5387 26.887 64.2704 26.7377 C 64.002 26.5884 63.7902 26.3375 63.6993 26.0187 C 63.6085 25.7 63.656 25.3751 63.8053 25.1067 C 63.9546 24.8384 64.2056 24.6266 64.5243 24.5357 Z " stroke-width="1.1428571810382073"/>
    <path id="ID0.8070062398910522" fill="#192334" stroke="none" d="M 64.8174 25.103 C 64.9499 25.0652 65.0859 25.0842 65.1974 25.1471 C 65.3097 25.2087 65.3976 25.3142 65.4353 25.4467 C 65.4731 25.5792 65.4541 25.7152 65.3912 25.8267 C 65.3296 25.939 65.2241 26.0269 65.0916 26.0646 C 64.9591 26.1024 64.8231 26.0834 64.7116 26.0205 C 64.5993 25.9589 64.5115 25.8534 64.4737 25.7209 C 64.4359 25.5884 64.4549 25.4524 64.5178 25.3409 C 64.5794 25.2286 64.6849 25.1407 64.8174 25.103 Z " stroke-width="1.111111214644622"/>
  </g>
  <path id="ID0.023752907756716013" fill="none" stroke="#584E44" stroke-width="1.1814345600728136" stroke-linecap="round" d="M 60.653 23.1863 L 63.9503 23.3651 L 66.3252 24.3565 "/>
  <path id="ID0.023752907756716013" fill="none" stroke="#584E44" stroke-width="1.1814345600728136" stroke-linecap="round" d="M 82.747 23.1863 L 79.4497 23.3651 L 77.0748 24.3565 "/>
</svg>