<svg xmlns="http://www.w3.org/2000/svg" xmlns:xlink="http://www.w3.org/1999/xlink" version="1.1" width="140.06577268709944" height="266.89205137362285" viewBox="0.8971106237659541 10.197499436784753 140.06577268709944 266.89205137362285">
  <!-- Exported by Scratch - http://scratch.mit.edu/ -->
  <path id="ID0.7766774026677012" fill="#0D0D0D" stroke="#0D0D0D" stroke-width="1.991477643154127" stroke-linecap="round" d="M 133.2788 138.361 C 137.5546 105.4397 143.4545 71.4624 137.3341 38.4427 C 135.0192 25.9586 120.728 18.1964 109.4681 12.1463 C 104.3282 9.3877 98.0841 13.403 92.4479 14.3237 C 90.8481 14.581 89.5601 15.4353 88.1582 15.9283 C 86.2036 16.4306 84.1816 16.7301 82.3855 17.3076 C 81.7493 17.5138 81.1097 17.7154 80.5064 18.0249 C 79.8117 18.2703 79.2429 18.6853 78.5901 18.9873 C 77.2426 19.5347 75.8876 20.1311 74.5476 20.6294 C 73.2224 21.0298 71.8627 21.3246 70.5795 21.7815 C 69.9416 21.9854 69.2617 22.1328 68.7004 22.4988 C 68.0402 22.8498 67.5405 23.4759 66.9568 23.9889 C 66.388 24.4039 65.8192 24.8189 65.2504 25.2339 C 64.6891 25.5998 63.9794 25.9433 63.544 26.4789 C 63.0666 26.9579 62.8561 27.678 62.5047 28.3266 C 62.1607 28.9262 61.7673 29.5183 61.4653 30.1744 C 60.8268 31.381 60.2303 32.6442 59.6338 33.9074 C 59.2898 34.507 58.9458 35.1066 58.5944 35.7552 C 58.2504 36.3548 57.9065 36.9544 57.555 37.6029 C 57.2111 38.2025 56.8671 38.8021 56.5157 39.4507 C 56.1717 40.0503 55.7289 40.6348 55.4763 41.2985 C 55.1818 41.9055 55.085 42.5427 54.9313 43.2213 C 54.7356 43.8434 54.54 44.4655 54.3863 45.1442 C 54.1906 45.7663 54.0444 46.3959 53.8412 47.067 C 53.5961 47.6817 53.2522 48.2812 53.049 48.9524 C 52.3137 50.7962 51.613 52.7455 50.9196 54.6458 C 50.6745 55.2604 50.3306 55.86 50.1274 56.5312 C 49.8823 57.1458 49.7361 57.7754 49.5824 58.454 C 49.3867 59.0761 49.1416 59.6907 49.0374 60.3769 C 48.8911 61.0065 48.8438 61.6512 48.7395 62.3373 C 48.5459 63.6116 48.246 64.9198 48.1438 66.2581 C 48.047 66.8953 48.2 67.2194 48.0931 68.2561 C 47.5393 72.2335 46.8793 76.2448 46.2686 80.2637 C 45.6804 84.1355 45.0772 88.1054 44.4814 92.0262 C 44.191 93.9376 43.9351 95.9545 43.5878 97.9074 C 43.4416 98.5371 43.2459 99.1592 43.0428 99.8303 C 42.5722 101.2631 42.0103 102.6318 41.6311 104.1286 C 41.4354 104.7507 41.4375 105.4029 41.3332 106.089 C 41.187 106.7186 40.9419 107.3332 40.7882 108.0119 C 40.3969 109.2561 39.9487 110.5418 39.6982 111.8576 C 39.4057 113.1169 39.3035 114.4552 39.1024 115.7784 C 38.5141 119.6503 37.911 123.6201 37.3152 127.541 C 37.1737 128.4722 37.171 128.8227 37.0174 129.5014 C 36.8217 130.1235 36.4283 130.7156 36.2252 131.3867 C 35.5887 133.2455 35.1351 135.2324 34.5901 137.1553 C 34.3944 137.7774 34.2482 138.407 34.045 139.0781 C 33.5399 140.4054 32.8865 141.7101 32.4234 143.0938 C 32.1709 143.7574 32.0023 144.5341 31.8412 145.2617 C 31.638 145.9329 31.378 146.6455 31.2589 147.4296 C 31.1127 148.0593 31.0653 148.7039 30.961 149.3901 C 30.8642 150.0272 30.6686 150.6493 30.6632 151.3505 C 30.6178 152.6473 30.7628 154.0231 30.8089 155.384 C 30.811 156.0361 30.813 156.6883 30.7582 157.382 C 30.6614 158.0191 30.5646 158.6562 30.4603 159.3424 C 30.3635 159.9795 30.2667 160.6166 30.1625 161.3028 C 29.87 162.562 29.6689 163.8853 29.3196 165.1861 C 28.9357 166.3813 28.0196 168.7492 28.0196 168.7492 C 27.698 169.2018 26.6592 171.898 26.0763 173.2174 C 25.76 173.9345 25.3331 174.6007 24.9998 175.3102 C 24.7098 175.9271 24.4719 176.5678 24.2076 177.1955 C 23.9433 177.8233 23.6415 178.4383 23.4154 179.0809 C 23.1945 179.7092 23.0912 180.3754 22.8703 181.0037 C 22.6442 181.6463 22.3784 182.2778 22.0781 182.889 C 21.7674 183.5227 21.3126 184.0864 21.0388 184.7368 C 20.7807 185.3504 20.675 186.0193 20.4938 186.6597 C 20.3125 187.3 20.13 187.9422 19.9487 188.5825 C 19.7675 189.2229 19.5849 189.865 19.4037 190.5054 C 19.2224 191.1457 18.9863 191.7747 18.8587 192.4282 C 18.6061 193.7246 18.5155 195.0527 18.2629 196.3491 C 18.1353 197.0026 17.8992 197.6316 17.7179 198.2719 C 17.5367 198.9123 17.3005 199.5413 17.1729 200.1948 C 16.9203 201.4912 16.7478 202.8058 16.5771 204.1156 C 16.2356 206.7363 15.9634 209.3735 15.6328 211.9949 C 15.5505 212.6503 15.4342 213.3025 15.335 213.9553 C 15.2358 214.6081 15.1777 215.2702 15.0371 215.9157 C 14.8958 216.5661 14.713 217.2103 14.4921 217.8386 C 14.266 218.4811 13.8853 219.0691 13.6999 219.7239 C 13.5194 220.3593 13.5426 221.0388 13.402 221.6843 C 13.2607 222.3347 12.9983 222.9567 12.857 223.6072 C 12.7164 224.2527 12.6997 224.9221 12.5591 225.5676 C 12.4178 226.218 12.235 226.8621 12.0141 227.4905 C 11.788 228.133 11.448 228.7332 11.2219 229.3758 C 11.001 230.0041 10.8977 230.6703 10.6769 231.2986 C 10.4508 231.9412 10.0972 232.5373 9.8847 233.1839 C 9.469 234.4485 9.1581 235.7491 8.7946 237.0297 C 8.6134 237.67 8.4308 238.3122 8.2496 238.9525 C 8.0683 239.5929 7.8459 240.225 7.7045 240.8754 C 7.564 241.5209 7.4642 242.1777 7.4067 242.8358 C 7.3484 243.4989 7.4282 244.1719 7.356 244.8338 C 7.2121 246.1467 7.1203 247.4836 6.7602 248.7546 C 6.3893 250.0641 5.7518 251.291 5.1759 252.5253 C 4.8774 253.1648 4.4472 253.7393 4.1365 254.373 C 3.8363 254.9843 3.6445 255.6471 3.3443 256.2583 C 3.0336 256.892 2.5386 257.4406 2.3049 258.1061 C 2.0858 258.7296 1.6998 259.4793 2.0071 260.0665 C 2.3347 260.6929 3.1878 260.9098 3.8727 261.1021 C 4.5188 261.2835 5.2238 261.0567 5.8872 261.1575 C 6.5506 261.2583 7.1639 261.6022 7.8273 261.7029 C 8.4907 261.8037 9.1732 261.6989 9.8418 261.7583 C 10.5056 261.8171 11.178 261.8781 11.8191 262.0588 C 12.4798 262.2444 13.1502 262.4716 13.722 262.8493 C 14.3185 263.2438 14.6283 264.0139 15.266 264.3374 C 15.8594 264.6392 16.5848 264.5378 17.2433 264.6379 C 17.9017 264.7379 18.5547 264.9204 19.2206 264.9383 C 19.9065 264.9573 20.5864 264.7297 21.2723 264.7486 C 21.9382 264.7666 22.5985 264.908 23.2497 265.0491 C 23.9058 265.1909 24.5336 265.4527 25.1897 265.5946 C 25.8409 265.7356 26.5259 265.7143 27.167 265.895 C 27.8276 266.0806 28.4093 266.4999 29.0699 266.6855 C 29.711 266.8662 30.396 266.8449 31.0472 266.986 C 31.7033 267.1278 32.3412 267.35 32.9873 267.5314 C 33.6333 267.7128 34.2608 267.9967 34.9273 268.0769 C 36.918 268.3162 38.9368 268.3101 40.9337 268.4881 C 41.5974 268.5468 42.2598 268.6475 42.911 268.7886 C 43.5672 268.9304 44.1919 269.2058 44.8511 269.334 C 46.1588 269.5879 47.498 269.6811 48.8057 269.9349 C 49.4649 270.0631 50.0896 270.3386 50.7458 270.4804 C 51.397 270.6214 52.0594 270.7221 52.7231 270.7808 C 53.3917 270.8403 54.069 270.7767 54.7376 270.8362 C 55.4013 270.8949 56.0512 271.0779 56.7149 271.1366 C 57.3836 271.1961 58.0597 271.1464 58.7295 271.192 C 60.0609 271.283 61.4015 271.3473 62.7213 271.5478 C 63.3847 271.6486 64.0273 271.8726 64.6614 272.0933 C 65.3098 272.3192 65.9036 272.6982 66.5642 272.8838 C 67.2054 273.0645 67.8831 273.0842 68.5415 273.1843 C 70.5169 273.4844 72.5083 273.7248 74.4735 274.0856 C 75.1337 274.207 75.7574 274.4892 76.4135 274.6311 C 77.0647 274.7721 77.7271 274.8728 78.3908 274.9315 C 79.0595 274.991 79.7346 274.9682 80.4054 274.9869 C 81.0762 275.0056 81.7513 274.9828 82.4199 275.0423 C 83.0836 275.101 83.7313 275.3649 84.3972 275.3427 C 85.1078 275.3193 84.8456 275.0809 86.4862 274.908 C 93.0476 274.2161 103.8784 279.0829 106.4033 272.9701 C 115.4088 251.1598 111.3393 225.6721 115.9598 202.4183 C 120.2162 181.0086 130.3956 160.3655 133.2788 138.361 Z "/>
</svg>