<svg xmlns="http://www.w3.org/2000/svg" xmlns:xlink="http://www.w3.org/1999/xlink" version="1.1" width="143.04252348911186" height="331.992032156104" viewBox="0.945157236996197 -0.08347963577220507 143.04252348911186 331.992032156104">
  <defs>
    <linearGradient id="grad_1" y2="1" x2="0">
      <stop offset="0" stop-color="#222325" stop-opacity="1"/>
      <stop offset="1" stop-color="#2E3034" stop-opacity="1"/>
    </linearGradient>
  </defs>
  <!-- Exported by Scratch - http://scratch.mit.edu/ -->
  <path id="ID0.7766774026677012" fill="#0D0D0D" stroke="#0D0D0D" stroke-width="1.9635592557134165" stroke-linecap="round" d="M 115.1978 186.1834 C 114.8546 153.9326 115.973 120.4476 105.321 89.4997 C 101.2927 77.7992 86.0612 72.2518 74.0694 67.9443 C 68.5959 65.9811 62.9708 70.6839 57.5174 72.3275 C 55.9689 72.7901 54.8122 73.7852 53.4924 74.448 C 51.6266 75.1941 49.666 75.7541 47.9676 76.5512 C 47.3663 76.8351 46.761 77.1151 46.2065 77.494 C 45.5527 77.8236 45.0471 78.2993 44.4427 78.6776 C 43.1844 79.3854 41.9255 80.1414 40.6677 80.8011 C 39.4111 81.3645 38.1056 81.8309 36.8984 82.443 C 36.2951 82.725 35.6423 82.9582 35.1373 83.3858 C 34.5323 83.8123 34.1245 84.4818 33.6178 85.0539 C 33.1122 85.5297 32.6067 86.0054 32.1011 86.4812 C 31.5961 86.9088 30.9411 87.3347 30.5844 87.9085 C 30.1783 88.4336 30.0699 89.1548 29.8121 89.8261 C 29.5548 90.4492 29.2476 91.0718 29.0397 91.7436 C 28.5752 92.9905 28.1601 94.2861 27.745 95.5817 C 27.4878 96.2048 27.2305 96.828 26.9727 97.4993 C 26.7154 98.1224 26.4582 98.7456 26.2004 99.4169 C 25.9431 100.04 25.6858 100.6632 25.428 101.3345 C 25.1708 101.9576 24.8135 102.5796 24.6557 103.252 C 24.4484 103.8758 24.4411 104.5018 24.3833 105.1754 C 24.276 105.8003 24.1688 106.4252 24.1109 107.0988 C 24.0036 107.7237 23.9464 108.3492 23.8385 109.0222 C 23.6813 109.6465 23.424 110.2697 23.3162 110.9427 C 22.8444 112.8156 22.4215 114.7854 21.9991 116.7071 C 21.8418 117.3314 21.5846 117.9545 21.4767 118.6276 C 21.3195 119.2519 21.2622 119.8773 21.2044 120.5509 C 21.0971 121.1758 20.9398 121.8001 20.932 122.4743 C 20.8747 123.0998 20.9174 123.7264 20.9096 124.4006 C 20.895 125.6527 20.7799 126.9518 20.8648 128.2532 C 20.8575 128.8793 21.0541 129.1706 21.0924 130.1824 C 21.097 134.0838 21.0011 138.0321 20.9552 141.981 C 20.911 145.7855 20.8657 149.6862 20.8209 153.5388 C 20.799 155.417 20.8261 157.392 20.7537 159.3177 C 20.6964 159.9432 20.5891 160.5681 20.4813 161.2411 C 20.2145 162.6829 19.8483 164.0754 19.681 165.5666 C 19.5737 166.1914 19.6664 166.8187 19.6586 167.4929 C 19.6013 168.1183 19.444 168.7426 19.3862 169.4163 C 19.1717 170.666 18.9066 171.9634 18.8415 173.263 C 18.7269 174.514 18.8118 175.8154 18.7967 177.1156 C 18.7524 180.9201 18.7071 184.8208 18.6623 188.6734 C 18.6517 189.5884 18.6978 189.9261 18.6399 190.5997 C 18.5326 191.2246 18.2254 191.8472 18.1176 192.5202 C 17.7458 194.3943 17.5728 196.367 17.3004 198.2904 C 17.1932 198.9153 17.1359 199.5408 17.0281 200.2138 C 16.7124 201.5587 16.2468 202.9019 15.9805 204.2956 C 15.8227 204.968 15.7638 205.738 15.7054 206.4597 C 15.5975 207.1328 15.4391 207.8534 15.4302 208.6239 C 15.3729 209.2494 15.4156 209.876 15.4078 210.5502 C 15.4005 211.1763 15.2932 211.8011 15.3854 212.4765 C 15.5208 213.7304 15.8557 215.0347 16.0906 216.3378 C 16.1833 216.965 16.276 217.5922 16.3182 218.267 C 16.3109 218.8931 16.3036 219.5191 16.2958 220.1933 C 16.2885 220.8194 16.2812 221.4454 16.2734 222.1196 C 16.1588 223.3706 16.1437 224.6708 15.9786 225.9693 C 15.7646 227.1709 15.1867 229.5724 15.1867 229.5724 C 14.9311 230.0511 14.2773 232.785 13.8836 234.1328 C 13.67 234.8653 13.3399 235.5637 13.1084 236.2912 C 12.9071 236.9237 12.7605 237.5722 12.5861 238.2117 C 12.4116 238.8512 12.1983 239.4835 12.0637 240.1322 C 11.9323 240.7664 11.9227 241.4213 11.7913 242.0556 C 11.6568 242.7042 11.4813 243.3476 11.269 243.9761 C 11.0494 244.6276 10.6773 245.2311 10.4966 245.8937 C 10.3263 246.5188 10.3147 247.1766 10.2242 247.817 C 10.1338 248.4575 10.0423 249.0999 9.9519 249.7404 C 9.8614 250.3809 9.7699 251.0233 9.6795 251.6638 C 9.589 252.3043 9.4426 252.9413 9.4071 253.5872 C 9.3372 254.8685 9.4322 256.1585 9.3623 257.4398 C 9.3268 258.0858 9.1804 258.7227 9.09 259.3632 C 8.9995 260.0037 8.8531 260.6407 8.8176 261.2866 C 8.7477 262.5679 8.7597 263.856 8.7728 265.1392 C 8.799 267.7067 8.896 270.2807 8.9332 272.8473 C 8.9427 273.489 8.9183 274.1321 8.9108 274.7736 C 8.9034 275.4151 8.9379 276.0599 8.8884 276.6999 C 8.8389 277.3447 8.7474 277.9891 8.616 278.6233 C 8.4815 279.2719 8.1863 279.8889 8.0937 280.5438 C 8.0033 281.1795 8.1207 281.8301 8.0713 282.4701 C 8.0218 283.1149 7.8484 283.7487 7.7989 284.3935 C 7.7495 285.0335 7.826 285.6798 7.7765 286.3198 C 7.727 286.9646 7.6355 287.6089 7.5041 288.2432 C 7.3696 288.8918 7.1163 289.515 6.9818 290.1637 C 6.8504 290.7979 6.8408 291.4528 6.7094 292.0871 C 6.5749 292.7357 6.3076 293.3568 6.1871 294.0075 C 5.9512 295.2802 5.8242 296.5733 5.6423 297.8543 C 5.5518 298.4948 5.4604 299.1372 5.3699 299.7777 C 5.2795 300.4182 5.147 301.0563 5.0975 301.7011 C 5.0481 302.3411 5.0406 302.9864 5.0752 303.6274 C 5.1096 304.2732 5.2823 304.91 5.3027 305.5566 C 5.3428 306.8392 5.4377 308.1378 5.258 309.4092 C 5.0727 310.719 4.612 311.9852 4.2132 313.2502 C 4.0066 313.9057 3.6605 314.5163 3.4409 315.1678 C 3.2286 315.7962 3.1309 316.4598 2.9185 317.0883 C 2.6989 317.7398 2.285 318.3341 2.1462 319.0058 C 2.0159 319.6353 1.7379 320.4084 2.1238 320.9321 C 2.5353 321.4908 3.4103 321.5848 4.1153 321.6777 C 4.7803 321.7654 5.447 321.4524 6.1179 321.4602 C 6.7889 321.468 7.444 321.7164 8.115 321.7242 C 8.786 321.732 9.4472 321.5394 10.1177 321.5067 C 10.7831 321.474 11.4575 321.4423 12.1175 321.53 C 12.7975 321.6197 13.4931 321.7482 14.1118 322.0348 C 14.7574 322.3342 15.1713 323.0335 15.8477 323.2591 C 16.4773 323.4696 17.1816 323.2746 17.8475 323.2823 C 18.5135 323.29 19.1855 323.3778 19.8474 323.3055 C 20.5293 323.2316 21.171 322.9212 21.8529 322.8472 C 22.5148 322.775 23.1883 322.8223 23.8527 322.8705 C 24.5222 322.9187 25.1803 323.0863 25.8498 323.1345 C 26.5143 323.1827 27.1896 323.0701 27.8497 323.1578 C 28.5297 323.2475 29.1639 323.5728 29.8439 323.6626 C 30.504 323.7502 31.1793 323.6376 31.8438 323.6858 C 32.5133 323.7341 33.1758 323.8622 33.8409 323.9499 C 34.5059 324.0375 35.1667 324.2263 35.8379 324.2139 C 37.8425 324.1765 39.8409 323.8992 41.8431 323.8021 C 42.5085 323.7693 43.1785 323.7771 43.843 323.8253 C 44.5125 323.8736 45.1694 324.0546 45.8401 324.0894 C 47.1703 324.1578 48.5095 324.0674 49.8398 324.1358 C 50.5104 324.1706 51.1674 324.3516 51.8369 324.3999 C 52.5013 324.4481 53.1713 324.4559 53.8367 324.4231 C 54.5071 324.3905 55.169 324.2383 55.8394 324.2056 C 56.5048 324.1729 57.1738 324.2616 57.8392 324.2288 C 58.5097 324.1962 59.1723 324.0575 59.8419 324.0113 C 61.1731 323.9199 62.5095 323.8015 63.8444 323.817 C 64.5154 323.8248 65.1829 323.9539 65.8415 324.081 C 66.515 324.2112 67.1558 324.4961 67.8358 324.5859 C 68.4958 324.6735 69.1697 324.6014 69.8356 324.6091 C 71.8335 324.6323 73.8391 324.5959 75.8352 324.6789 C 76.5059 324.7069 77.1628 324.8947 77.8323 324.9429 C 78.4968 324.9911 79.1667 324.9989 79.8322 324.9661 C 80.5026 324.9335 81.1679 324.8208 81.8348 324.7486 C 82.5017 324.6764 83.1671 324.5637 83.8375 324.5311 C 84.5029 324.4983 85.181 324.6652 85.8374 324.5543 C 86.5378 324.4363 86.245 324.2421 87.8456 323.8552 C 94.247 322.3075 105.6493 325.5341 107.2997 319.3131 C 113.1851 297.1173 105.6113 273.1408 106.9537 250.1456 C 108.1919 228.9736 115.4022 207.743 115.1978 186.1834 Z "/>
  <path id="ID0.7729651997797191" fill="#3E4246" stroke="none" stroke-linecap="round" d="M 42.8841 97.3879 L 62.9834 94.5082 L 65.9431 122.0393 L 68.4373 144.2374 L 66.8728 154.1527 L 64.8395 160.438 L 51.2105 157.9884 L 47.5418 149.0143 L 45.1866 116.2287 L 42.8841 97.3879 Z " stroke-width="1.0990894954389117"/>
  <path id="ID0.9716172609478235" fill="#393C40" stroke="none" stroke-linecap="round" d="M 44.7134 109.9272 L 39.7036 107.8043 L 41.2566 101.1878 L 59.7175 110.0026 L 56.8495 113.169 L 51.4378 115.3168 L 44.7134 109.9272 Z " stroke-width="0.8164595842744493"/>
  <g id="ID0.38066427363082767">
    <path id="ID0.4757494777441025" fill="#1D1E1F" stroke="none" stroke-linecap="round" d="M 48.5031 79.1169 L 56.9574 76.5535 L 73.1297 80.6401 L 66.1846 106.4884 L 56.0881 111.9933 L 51.6231 113.2867 L 48.2955 111.0677 L 45.2951 108.2365 L 39.4591 105.9032 L 39.0697 100.4401 L 39.3832 92.3203 L 42.1817 83.8392 L 48.5031 79.1169 Z " stroke-width="0.47614256926192144"/>
    <path id="ID0.6007084371522069" fill="none" stroke="#0D0D0D" stroke-width="0.9522851385238429" stroke-linecap="round" d="M 39.9523 106.2363 L 45.1763 108.2424 L 49.6386 111.7163 L 51.629 113.4056 L 56.0881 111.9933 L 60.3753 109.5168 "/>
  </g>
  <g id="ID0.17693647183477879">
    <path id="ID0.7729651997797191" fill="#393C40" stroke="none" stroke-linecap="round" d="M 131.4326 96.9646 L 112.3212 99.7334 L 117.159 115.5459 L 120.9614 128.3187 L 125.1017 133.4435 L 128.6757 136.4664 L 140.4298 132.163 L 141.3179 126.4228 L 134.4908 107.8458 L 131.4326 96.9646 Z " stroke-width="0.7788099544996978"/>
    <path id="ID0.9716172609478235" fill="#34373A" stroke="none" stroke-linecap="round" d="M 127.938 102.8444 L 132.4066 100.2047 L 130.1029 94.145 L 113.7613 104.8103 L 116.8728 107.442 L 122.2606 108.7894 L 127.938 102.8444 Z " stroke-width="0.7788099544996978"/>
    <g id="ID0.38066427363082767">
      <path id="ID0.4757494777441025" fill="#1D1E1F" stroke="none" stroke-linecap="round" d="M 120.5203 73.9795 L 112.2032 72.6234 L 97.4283 78.5293 L 107.2587 102.0917 L 117.4999 106.0217 L 121.8848 106.6809 L 124.7509 104.1626 L 127.2302 101.1069 L 132.4536 98.1638 L 132.1319 92.9494 L 130.8102 85.3117 L 127.0934 77.6463 L 120.5203 73.9795 Z " stroke-width="0.4541860609159325"/>
      <path id="ID0.6007084371522069" fill="none" stroke="#0D0D0D" stroke-width="0.908372121831865" stroke-linecap="round" d="M 132.0293 98.5411 L 127.3434 101.0975 L 123.5629 104.9455 L 121.8943 106.794 L 117.4999 106.0217 L 113.1337 104.2215 "/>
    </g>
  </g>
  <g id="ID0.7397577832452953">
    <path id="ID0.6726378230378032" fill="#34373A" stroke="none" stroke-linecap="round" d="M 140.2588 123.1745 L 122.7774 126.0252 L 122.7654 128.3408 L 139.9339 125.2108 L 140.2588 123.1745 Z " stroke-width="0.7788098805528273"/>
    <path id="ID0.6507829907350242" fill="#1D1E1F" stroke="none" stroke-linecap="round" d="M 142.9549 125.2526 L 122.6124 128.2247 L 116.7997 145.3781 L 115.1751 155.5593 L 109.9265 170.0176 L 107.2514 175.6748 L 117.385 181.4248 L 119.694 175.6348 L 124.5302 167.4479 L 131.1452 157.214 L 135.9149 149.2102 L 142.9549 125.2526 Z " stroke-width="0.7788098805528273"/>
    <path id="ID0.6829322893172503" fill="#1D1E1F" stroke="none" stroke-linecap="round" d="M 117.8839 181.1917 L 110.211 173.2279 L 105.4889 177.1064 L 99.9019 181.0851 L 98.0416 186.2095 L 97.0626 190.6182 L 97.8962 194.0279 L 96.9848 200.5325 L 101.2607 201.8775 L 103.0231 200.446 L 104.5537 200.7945 L 108.3457 199.4783 L 112.4535 197.8625 L 115.7453 194.5005 L 117.3386 187.8292 L 117.8839 181.1917 Z " stroke-width="0.7788098805528273"/>
    <path id="ID0.47767175547778606" fill="none" stroke="#0D0D0D" stroke-width="1.5576197611056546" stroke-linecap="round" d="M 141.666 128.8031 L 142.7385 125.0498 L 122.6856 128.2512 L 118.4208 140.9125 "/>
    <path id="ID0.5922487881034613" fill="#282A2B" stroke="none" stroke-linecap="round" d="M 132.6893 156.1191 L 128.1906 148.7691 L 122.6735 146.8492 L 115.1698 150.1735 L 111.5744 164.072 L 113.3255 172.3717 L 116.4368 173.5011 L 124.3191 168.9057 L 132.6893 156.1191 Z " stroke-width="0.7788098805528273"/>
    <path id="ID0.36820242274552584" fill="#151616" stroke="none" stroke-linecap="round" d="M 126.2681 156.4259 L 118.6812 153.5889 L 117.3499 164.788 L 118.7308 165.2064 L 126.2681 156.4259 Z " stroke-width="0.7788098805528273"/>
    <path id="ID0.13569410238415003" fill="none" stroke="#232425" stroke-width="1.5576197611056546" stroke-linecap="round" d="M 123.2955 166.6268 L 115.8324 171.2087 L 113.539 162.9193 "/>
    <path id="ID0.024502143263816833" fill="none" stroke="#0D0D0D" stroke-width="1.5576197611056546" stroke-linecap="round" d="M 132.4418 155.6963 L 128.4957 148.8782 L 123.1582 146.6921 L 115.5813 149.9898 L 113.5961 157.9689 "/>
  </g>
  <path id="ID0.3809091211296618" fill="#393D40" stroke="none" stroke-linecap="round" d="M 90.7228 177.2918 L 115.24 162.6839 L 122.0166 200.8811 L 122.1058 211.8266 L 118.5327 230.0919 L 110.1908 233.5219 L 97.4158 236.0221 L 95.5321 215.2879 L 96.269 203.8544 L 90.7228 177.2918 Z " stroke-width="0.7305890051955514"/>
  <path id="ID0.5368814701214433" fill="#292D2E" stroke="none" stroke-linecap="round" d="M 89.1372 318.3177 L 91.6903 309.3867 L 95.8325 299.9793 L 106.0195 305.4625 L 117.5615 312.6737 L 135.3958 322.3599 L 136.7157 328.8309 L 112.0792 330.9268 L 90.7126 328.0525 L 89.1372 318.3177 Z " stroke-width="0.7702165639911751"/>
  <path id="ID0.3809091211296618" fill="#3E4246" stroke="none" stroke-linecap="round" d="M 64.0868 164.3308 L 85.4965 180.4096 L 83.8132 219.1668 L 81.5225 229.8702 L 74.0668 246.9232 L 65.1789 248.4591 L 52.1659 248.1243 L 54.2234 226.4497 L 54.1576 213.0339 L 64.0868 164.3308 Z " stroke-width="0.7305889768864399"/>
  <path id="ID0.5368814701214433" fill="#303436" stroke="none" stroke-linecap="round" d="M 38.2237 316.2307 L 40.7246 307.2849 L 44.8117 297.8535 L 55.0306 303.277 L 66.6145 310.4206 L 84.5052 320.0024 L 85.8628 326.4655 L 61.239 328.7055 L 39.856 325.9562 L 38.2237 316.2307 Z " stroke-width="0.7702165197019715"/>
  <g id="ID0.9157347986474633">
    <path id="ID0.7477802094072104" fill="#363A3D" stroke="none" stroke-linecap="round" d="M 118.3567 123.633 L 98.7304 121.0993 L 99.9103 162.2687 L 116.8242 170.7153 L 118.4063 146.1386 L 118.3567 123.633 Z " stroke-width="0.47614260551683585"/>
    <path id="ID0.7477802094072104" fill="#363A3D" stroke="none" stroke-linecap="round" d="M 58.1765 125.3792 L 81.535 121.8517 L 82.7149 163.0212 L 66.3126 172.4226 L 60.1196 147.4732 L 58.1765 125.3792 Z " stroke-width="0.47614260551683585"/>
    <path id="ID0.4270821204409003" fill="#3E4246" stroke="none" stroke-linecap="round" d="M 57.8824 105.3589 L 61.332 92.7561 L 63.4256 86.861 L 69.7687 79.6532 L 100.8652 80.191 L 107.8892 84.2767 L 110.8608 88.2404 L 118.2084 99.4619 L 117.7946 109.9532 L 116.9995 115.4539 L 118.8631 122.3074 L 119.496 127.7672 L 117.552 134.7298 L 116.0838 140.0116 L 115.1599 149.3266 L 117.2866 171.1772 L 112.3817 179.5347 L 107.7765 185.8829 L 95.8191 191.6558 L 84.1432 188.9657 L 80.0243 182.3674 L 74.8903 176.084 L 66.2584 173.2352 L 64.3897 147.9237 L 63.0089 141.2945 L 58.1124 130.0028 L 56.4932 119.2125 L 57.8824 105.3589 Z " stroke-width="0.47614260551683585"/>
    <path id="ID0.052435632329434156" fill="#393C40" stroke="none" stroke-linecap="round" d="M 71.4696 154.8288 L 75.921 154.7489 L 82.607 157.844 L 87.6711 157.5321 L 93.6002 159.1485 L 97.7578 157.9576 L 99.41 157.4339 L 113.5195 153.6237 L 113.9706 156.8975 L 105.5229 161.3075 L 99.5647 161.1687 L 94.0596 164.375 L 87.2954 161.044 L 80.8824 161.6565 L 70.8974 158.132 L 71.4696 154.8288 Z " stroke-width="0.47614260551683585"/>
    <path id="ID0.4987568911164999" fill="none" stroke="#27282B" stroke-width="0.9522852110336717" stroke-linecap="round" d="M 69.5764 80.2693 L 63.3285 86.6408 L 60.2833 96.7311 "/>
    <path id="ID0.2889464790932834" fill="none" stroke="#27282B" stroke-width="0.9522852110336717" stroke-linecap="round" d="M 102.2197 80.7628 L 108.0402 84.4066 L 114.0176 93.5239 "/>
    <path id="ID0.8373676878400147" fill="#000000" stroke="#2C2F31" stroke-width="0.6155104192103448" stroke-linecap="round" d="M 73.5261 93.1917 L 73.8262 91.6514 L 70.2151 92.6694 L 65.462 96.1551 L 61.4866 101.3297 L 59.2065 107.0344 L 64.2727 104.6244 L 68.9647 104.3704 L 71.7387 105.2031 L 74.369 108.1139 L 76.441 107.0265 L 80.4399 106.6221 L 84.9837 107.523 L 88.9227 110.5812 L 91.0918 113.5712 L 93.1539 110.4834 L 96.7541 107.2342 L 100.8242 105.6754 L 105.9783 105.4961 L 107.8275 106.0256 L 109.4276 102.8632 L 111.3446 101.5457 L 113.9628 101.9945 L 116.8171 103.5192 L 115.2597 99.7568 L 112.8557 95.9217 L 109.9177 93.0125 L 106.6757 90.8741 L 102.1326 90.1271 L 104.3728 91.9626 L 104.3816 93.7322 L 102.8534 95.894 L 99.3207 97.2194 L 96.1682 97.6196 L 93.553 97.7864 L 90.9197 94.2601 L 90.5453 96.3393 L 89.0834 96.3465 L 87.456 93.9694 L 86.6305 98.2052 L 82.5539 98.4561 L 78.3951 97.6302 L 75.0034 96.339 L 73.5261 93.1917 Z "/>
    <path id="ID0.5698574706912041" fill="none" stroke="#313537" stroke-width="0.9522852110336717" stroke-linecap="round" d="M 71.3934 154.6643 L 70.8905 157.894 L 80.8858 161.7755 L 87.6578 161.2241 L 93.8182 164.2629 "/>
    <path id="ID0.5698574706912041" fill="none" stroke="#313537" stroke-width="0.893306651813283" stroke-linecap="round" d="M 113.1514 153.6984 L 113.7622 156.8961 L 105.2723 161.3074 L 99.3496 161.1199 L 94.1517 164.4842 "/>
    <path id="ID0.8947288258932531" fill="#393C40" stroke="none" stroke-linecap="round" d="M 72.3599 142.6805 L 79.3767 142.3603 L 86.975 144.0479 L 92.797 149.4066 L 85.5799 145.2311 L 74.7805 144.0401 L 69.7507 147.2091 L 72.3599 142.6805 Z " stroke-width="0.47614260551683585"/>
    <path id="ID0.8947288258932531" fill="#393C40" stroke="none" stroke-linecap="round" d="M 111.0575 142.5724 L 104.8418 142.6451 L 98.214 144.5213 L 93.3417 149.5508 L 99.5066 145.4959 L 108.9877 143.8963 L 113.5923 146.4412 L 111.0575 142.5724 Z " stroke-width="0.4213739150688661"/>
    <path id="ID0.9897695370018482" fill="#393C40" stroke="none" stroke-linecap="round" d="M 76.1617 154.8373 L 69.6038 154.5489 L 69.8992 149.8961 L 71.1893 153.3602 L 76.286 153.357 L 82.526 156.6793 L 87.9892 156.1655 L 92.1232 157.476 L 93.2784 149.5833 L 93.7974 159.381 L 88.1477 157.5423 L 82.2698 157.7108 L 76.1617 154.8373 Z " stroke-width="0.47614260551683585"/>
    <path id="ID0.9897695370018482" fill="#393C40" stroke="none" stroke-linecap="round" d="M 108.3678 154.1576 L 113.8896 153.5564 L 113.4037 149.251 L 112.4906 152.5332 L 108.1876 152.7895 L 103.0886 156.1917 L 98.4502 155.9924 L 95.0267 157.4195 L 93.6501 150.1494 L 93.7102 159.2736 L 98.3864 157.279 L 103.3573 157.1365 L 108.3678 154.1576 Z " stroke-width="0.42322514726901006"/>
    <path id="ID0.3524594851769507" fill="#393C40" stroke="none" stroke-linecap="round" d="M 85.5882 119.8406 L 91.5527 121.8608 L 95.9359 119.4011 L 92.88 123.2994 L 94.1511 134.4093 L 103.1933 133.2927 L 92.8724 137.1611 L 81.0773 132.8072 L 90.8208 134.5524 L 90.093 123.284 L 85.5882 119.8406 Z " stroke-width="0.47614260551683585"/>
    <path id="ID0.9214867809787393" fill="#393C40" stroke="none" stroke-linecap="round" d="M 72.2487 138.8015 L 75.1027 134.5042 L 79.8348 133.4159 L 74.1409 138.3424 L 73.9868 141.2763 L 79.0332 141.1793 L 87.2878 144.158 L 78.2616 142.5114 L 72.4075 142.6791 L 72.2487 138.8015 Z " stroke-width="0.47614260551683585"/>
    <path id="ID0.9214867809787393" fill="#393C40" stroke="none" stroke-linecap="round" d="M 110.6218 138.4713 L 107.7842 134.5296 L 103.4023 133.746 L 108.8684 138.1352 L 109.1663 140.9223 L 104.5504 141.1001 L 97.989 144.1293 L 105.3266 142.3279 L 110.6844 142.1744 L 110.6218 138.4713 Z " stroke-width="0.4451788735269846"/>
    <path id="ID0.8679121839813888" fill="#2C2F31" stroke="none" stroke-linecap="round" d="M 87.5106 118.6914 L 91.3645 120.2005 L 94.6491 118.463 L 95.6283 119.3876 L 91.7781 122.1654 L 85.955 120.0935 L 87.5106 118.6914 Z " stroke-width="0.47614260551683585"/>
    <path id="ID0.24770551454275846" fill="none" stroke="#313537" stroke-width="0.9522852110336717" stroke-linecap="round" d="M 91.5014 116.5932 L 96.2442 120.0298 L 103.754 120.2909 L 111.3384 119.0018 L 116.4647 115.0441 "/>
    <path id="ID0.20603158557787538" fill="none" stroke="#313537" stroke-width="0.9522852110336717" stroke-linecap="round" d="M 58.0274 113.5867 L 65.2011 118.7399 L 77.6678 121.5979 L 84.909 120.7949 L 90.9838 116.6911 "/>
    <g id="ID0.5272086253389716">
      <path id="ID0.24770551454275846" fill="none" stroke="#363A3D" stroke-width="0.9522851514001298" stroke-linecap="round" d="M 62.3557 145.9929 L 72.1647 142.5441 "/>
      <path id="ID0.24770551454275846" fill="none" stroke="#363A3D" stroke-width="0.9522851514001298" stroke-linecap="round" d="M 59.4746 134.1404 L 79.7147 127.3441 "/>
    </g>
    <g id="ID0.5272086253389716">
      <path id="ID0.24770551454275846" fill="none" stroke="#363A3D" stroke-width="0.9522851117737279" stroke-linecap="round" d="M 117.6827 143.4785 L 110.6946 141.8456 "/>
      <path id="ID0.24770551454275846" fill="none" stroke="#363A3D" stroke-width="0.9522851117737279" stroke-linecap="round" d="M 117.8609 132.0893 L 103.8553 127.7279 "/>
    </g>
    <g id="ID0.7887678607366979">
      <path id="ID0.753661650698632" fill="none" stroke="#313537" stroke-width="0.9522851514001298" stroke-linecap="round" d="M 86.0675 119.9459 L 91.3711 122.1756 L 95.3417 119.442 "/>
      <g id="ID0.8167418288066983">
        <path id="ID0.9553722990676761" fill="none" stroke="#313537" stroke-width="1.0409108335820199" stroke-linecap="round" d="M 92.4093 137.0685 L 86.7374 135.0875 L 80.5113 133.3606 L 75.7696 134.4492 L 72.3858 138.8332 L 72.4847 142.2838 "/>
        <path id="ID0.5982440118677914" fill="none" stroke="#313537" stroke-width="0.8540413871320448" stroke-linecap="round" d="M 80.8097 132.8898 L 79.4682 127.6328 L 84.5014 120.4279 "/>
      </g>
      <g id="ID0.7324484633281827">
        <path id="ID0.04993448918685317" fill="none" stroke="#313537" stroke-width="0.9522851514001298" stroke-linecap="round" d="M 91.3677 122.0566 L 92.3817 132.507 L 93.3283 148.9136 L 94.0335 165.2079 "/>
        <g id="ID0.8167418288066983">
          <path id="ID0.9553722990676761" fill="none" stroke="#313537" stroke-width="0.9699703615488809" stroke-linecap="round" d="M 92.6182 136.8968 L 97.6127 135.3961 L 102.9863 133.3367 L 107.2081 134.1684 L 110.415 138.3635 L 110.5139 141.8141 "/>
          <path id="ID0.5982440118677914" fill="none" stroke="#313537" stroke-width="0.7916616265180969" stroke-linecap="round" d="M 102.7039 132.9917 L 103.5988 127.6706 L 98.7919 120.7478 "/>
          <path id="ID0.3567589442245662" fill="none" stroke="#313537" stroke-width="0.8967655488164227" stroke-linecap="round" d="M 93.1074 149.5741 L 98.0929 144.4535 L 105.3641 142.3397 L 110.8898 142.1813 L 113.2624 146.7576 L 113.7566 153.7695 L 108.2304 154.6423 L 102.6678 157.898 L 97.7423 157.801 L 93.5877 159.7539 L 87.6764 157.4226 L 82.0947 157.8207 L 75.5803 154.9112 L 69.2597 154.3779 L 69.3934 147.3481 L 71.8139 142.6344 L 78.0932 142.4544 L 86.4782 144.1195 L 92.4395 148.9263 Z "/>
        </g>
      </g>
    </g>
    <g id="ID0.9312638868577778">
      <path id="ID0.2888958193361759" fill="#393C40" stroke="none" stroke-linecap="round" d="M 74.1943 162.8235 L 84.4669 164.6143 L 83.9559 167.5459 L 73.6832 165.7552 L 74.1943 162.8235 Z " stroke-width="0.47614253071984414"/>
      <path id="ID0.2888958193361759" fill="#393C40" stroke="none" stroke-linecap="round" d="M 63.3748 161.0314 L 74.9169 163.1643 L 74.4059 166.0959 L 64.1332 164.3052 L 63.3748 161.0314 Z " stroke-width="0.47614253071984414"/>
      <g id="ID0.36424446757882833">
        <path id="ID0.7359844641759992" fill="#8A7B59" stroke="none" d="M 77.04 162.045 L 78.563 162.0014 L 78.7417 168.2363 L 77.2187 168.2799 L 77.04 162.045 Z " stroke-width="0.4761425757000649"/>
        <path id="ID0.7359844641759992" fill="#8A7B59" stroke="none" d="M 75.14 161.645 L 76.663 161.6014 L 76.8417 167.8363 L 75.3187 167.8799 L 75.14 161.645 Z " stroke-width="0.4761425757000649"/>
        <path id="ID0.7359844641759992" fill="#8A7B59" stroke="none" d="M 73.24 161.045 L 74.763 161.0014 L 74.9417 167.2363 L 73.4187 167.2799 L 73.24 161.045 Z " stroke-width="0.4761425757000649"/>
        <path id="ID0.7359844641759992" fill="#8A7B59" stroke="none" d="M 78.99 162.495 L 80.513 162.4514 L 80.6917 168.6863 L 79.1687 168.7299 L 78.99 162.495 Z " stroke-width="0.4761425757000649"/>
      </g>
      <g id="ID0.1049797898158431">
        <path id="ID0.08871637750416994" fill="#8A7B59" stroke="none" stroke-linecap="round" d="M 65.1178 160.3611 L 71.5493 161.2247 L 71.662 166.8185 L 65.4678 165.9242 L 65.1178 160.3611 Z " stroke-width="0.4761425757000649"/>
        <path id="ID0.13805592898279428" fill="#76694C" stroke="none" stroke-linecap="round" d="M 64.9016 160.0886 L 71.6424 160.9434 L 71.8202 163.8201 L 65.0528 162.8709 L 64.9016 160.0886 Z " stroke-width="0.4761425757000649"/>
        <path id="ID0.3221200187690556" fill="#61563F" stroke="none" stroke-linecap="round" d="M 67.7797 162.2392 L 68.6682 162.5757 L 68.796 164.3298 L 67.8308 164.0214 L 67.7797 162.2392 Z " stroke-width="0.5167888844302129"/>
        <path id="ID0.1420820001512766" fill="#BAA578" stroke="none" stroke-linecap="round" d="M 70.9521 165.8909 L 71.6251 164.4426 L 71.7388 166.7496 L 65.4515 165.9295 L 70.9521 165.8909 Z " stroke-width="0.4761425757000649"/>
      </g>
      <path id="ID0.2888958193361759" fill="#393C40" stroke="none" stroke-linecap="round" d="M 111.7058 162.1722 L 104.3374 164.1973 L 104.8421 166.7204 L 112.2105 164.6953 L 111.7058 162.1722 Z " stroke-width="0.38104700122462176"/>
      <path id="ID0.2888958193361759" fill="#393C40" stroke="none" stroke-linecap="round" d="M 118.2245 160.1066 L 111.2874 162.2473 L 111.7921 164.7704 L 117.8867 163.0315 L 118.2245 160.1066 Z " stroke-width="0.38104700122462176"/>
      <path id="ID0.7359844641759992" fill="#8A7B59" stroke="none" d="M 109.6904 161.1464 L 108.5838 161.1781 L 108.7393 166.6019 L 109.8459 166.5702 L 109.6904 161.1464 Z " stroke-width="0.38160280900815635"/>
      <path id="ID0.7359844641759992" fill="#8A7B59" stroke="none" d="M 111.0404 160.6464 L 109.9338 160.6781 L 110.0893 166.1019 L 111.1959 166.0702 L 111.0404 160.6464 Z " stroke-width="0.38160280900815635"/>
      <path id="ID0.7359844641759992" fill="#8A7B59" stroke="none" d="M 112.5404 160.1464 L 111.4338 160.1781 L 111.5893 165.6019 L 112.6959 165.5702 L 112.5404 160.1464 Z " stroke-width="0.38160280900815635"/>
      <path id="ID0.7359844641759992" fill="#8A7B59" stroke="none" d="M 108.2404 161.7964 L 107.1338 161.8281 L 107.2893 167.2519 L 108.3959 167.2202 L 108.2404 161.7964 Z " stroke-width="0.38160280900815635"/>
      <g id="ID0.1049797898158431">
        <path id="ID0.08871637750416994" fill="#8A7B59" stroke="none" stroke-linecap="round" d="M 118.3739 159.0828 L 113.4598 160.1923 L 113.6447 165.3601 L 118.3744 164.2339 L 118.3739 159.0828 Z " stroke-width="0.40545298501655885"/>
        <path id="ID0.13805592898279428" fill="#76694C" stroke="none" stroke-linecap="round" d="M 118.6455 158.8999 L 113.4926 160.0161 L 113.4953 162.6797 L 118.6641 161.4749 L 118.6455 158.8999 Z " stroke-width="0.40545298501655885"/>
        <path id="ID0.3221200187690556" fill="#61563F" stroke="none" stroke-linecap="round" d="M 116.6515 160.9245 L 115.9831 161.2782 L 115.9699 162.9032 L 116.6987 162.5718 L 116.6515 160.9245 Z " stroke-width="0.4400648086914132"/>
        <path id="ID0.1420820001512766" fill="#BAA578" stroke="none" stroke-linecap="round" d="M 114.2673 164.5447 L 113.6783 163.2408 L 113.7027 165.3754 L 118.5079 164.3131 L 114.2673 164.5447 Z " stroke-width="0.40545298501655885"/>
      </g>
      <g id="ID0.6836685389280319">
        <path id="ID0.09357938077300787" fill="#857656" stroke="none" d="M 84.9304 161.7402 L 102.8974 161.2253 L 103.0816 167.6506 L 85.1146 168.1655 L 84.9304 161.7402 Z " stroke-width="0.4283320965417938"/>
        <path id="ID0.6492703901603818" fill="#7C6E50" stroke="none" stroke-linecap="round" d="M 85.687 163.9243 L 93.9857 166.7826 L 102.7259 163.436 L 102.8479 167.6957 L 85.809 168.184 L 85.687 163.9243 Z " stroke-width="0.4761425757000649"/>
        <g id="ID0.9254062357358634">
          <g id="ID0.49943465692922473">
            <path id="ID0.140373723115772" fill="#968561" stroke="none" d="M 101.3226 160.1179 L 106.4391 159.9713 L 106.6982 169.0143 L 101.5818 169.1609 L 101.3226 160.1179 Z " stroke-width="0.4761425757000649"/>
            <path id="ID0.8286363878287375" fill="#BAA578" stroke="none" stroke-linecap="round" d="M 101.313 159.9263 L 106.5552 160.0142 L 102.4363 160.8944 L 101.4744 163.0655 L 101.313 159.9263 Z " stroke-width="0.4761425757000649"/>
            <path id="ID0.7362233307212591" fill="#8A7B59" stroke="none" stroke-linecap="round" d="M 101.5114 166.0177 L 104.2256 165.9876 L 106.6072 163.49 L 106.7675 169.0824 L 101.6034 169.2304 L 101.5114 166.0177 Z " stroke-width="0.4761425757000649"/>
          </g>
          <g id="ID0.49943465692922473">
            <path id="ID0.140373723115772" fill="#968561" stroke="none" d="M 86.1821 160.8226 L 81.0657 160.9693 L 81.3248 170.0123 L 86.4413 169.8656 L 86.1821 160.8226 Z " stroke-width="0.4761425757000649"/>
            <path id="ID0.8286363878287375" fill="#BAA578" stroke="none" stroke-linecap="round" d="M 86.2513 160.5974 L 81.0227 160.9854 L 85.1853 161.6283 L 86.2699 163.7407 L 86.2513 160.5974 Z " stroke-width="0.4761425757000649"/>
            <path id="ID0.7362233307212591" fill="#8A7B59" stroke="none" stroke-linecap="round" d="M 86.4021 166.6902 L 83.6906 166.8156 L 81.1699 164.4585 L 81.3302 170.0508 L 86.4942 169.9028 L 86.4021 166.6902 Z " stroke-width="0.4761425757000649"/>
          </g>
        </g>
      </g>
    </g>
  </g>
  <g id="ID0.8333355090580881">
    <path id="ID0.9286923445761204" fill="#27282B" stroke="none" stroke-linecap="round" d="M 74.3257 45.544 L 93.1833 46.0892 L 94.8619 70.3907 L 110.4326 76.7715 L 88.1666 89.2425 L 50.9286 78.5225 L 70.26 66.9593 L 74.3257 45.544 Z " stroke-width="0.4761425990278647"/>
    <path id="ID0.5448851804248989" fill="none" stroke="#1D1E1F" stroke-width="0.9522851980557294" stroke-linecap="round" d="M 71.4021 61.1345 L 70.4408 66.7597 L 87.9016 73.7621 L 94.5812 70.4999 "/>
    <path id="ID0.262191956397146" fill="none" stroke="#1D1E1F" stroke-width="0.9522851980557294" stroke-linecap="round" d="M 74.405 65.9439 L 87.4082 71.4982 L 90.349 70.2325 "/>
  </g>
  <g id="ID0.3450673264451325">
    <g id="ID0.9831569031812251">
      <path id="ID0.0877610077150166" fill="#2E3034" stroke="none" stroke-linecap="round" d="M 99.0453 14.761 L 95.0942 1.444 L 93.7539 29.9411 L 101.4168 30.3016 L 99.0453 14.761 Z " stroke-width="0.5866066378028746"/>
      <path id="ID0.796130308881402" fill="#242628" stroke="none" stroke-linecap="round" d="M 99.3779 14.7948 L 95.0717 1.4612 L 97.9739 15.451 L 98.2133 30.3661 L 101.3989 30.2205 L 99.3779 14.7948 Z " stroke-width="0.5866066378028746"/>
    </g>
    <g id="ID0.9831569031812251">
      <path id="ID0.0877610077150166" fill="#2E3034" stroke="none" stroke-linecap="round" d="M 75.3264 13.7941 L 80.51 0.9068 L 79.1696 29.4039 L 71.5067 29.0435 L 75.3264 13.7941 Z " stroke-width="0.5866066378028746"/>
      <path id="ID0.796130308881402" fill="#242628" stroke="none" stroke-linecap="round" d="M 74.8664 13.7689 L 80.4052 0.8983 L 76.2027 14.554 L 74.4276 29.046 L 71.4066 28.9367 L 74.8664 13.7689 Z " stroke-width="0.5866066378028746"/>
    </g>
    <path id="ID0.8999492498114705" fill="#2E3034" stroke="none" stroke-linecap="round" d="M 92.536 20.4295 C 96.9128 21.1149 101.5121 24.0446 103.4595 28.0235 C 105.6816 32.566 103.4729 38.0669 103.5376 43.071 C 103.6306 44.7807 104.3399 46.5687 103.9332 48.1756 C 103.1051 51.444 101.2907 54.391 100.0602 57.5296 C 99.254 59.5866 98.9891 61.9315 97.732 63.7776 C 96.3118 65.9659 94.8233 69.0335 92.2051 69.3666 C 88.3237 69.8599 84.3382 67.8293 80.9749 65.9139 C 78.2119 64.34 75.6653 62.0058 74.2229 59.1626 C 71.6481 53.8909 69.3559 48.1168 69.2471 42.2211 C 69.1268 35.6855 68.7364 27.5921 73.7065 23.104 C 78.1674 18.7675 86.0295 19.4134 92.536 20.4295 Z " stroke-width="0.508037282917202"/>
    <path id="ID0.2441388238221407" fill="#AB8E85" stroke="none" d="M 89.0421 45.1723 C 93.11 45.5308 98.6917 42.6251 101.2848 45.4967 C 103.6156 48.1999 100.0227 52.8977 98.8898 56.3219 C 97.7616 59.7275 96.8985 63.4296 94.529 66.1746 C 93.4031 67.3915 91.1769 67.3584 89.4611 67.0049 C 86.3757 66.3657 83.3777 64.9398 80.8701 63.029 C 78.2751 61.0526 74.8266 58.8587 74.4074 55.6104 C 73.8767 51.4957 74.7938 46.1378 78.1099 43.7152 C 81.146 41.6063 85.3837 44.8493 89.0421 45.1723 Z " stroke-width="1.255840093862644"/>
    <path id="ID0.46721756737679243" fill="#A2887F" stroke="none" stroke-linecap="round" d="M 74.4034 45.6174 L 76.0458 46.3812 L 102.0465 47.2227 L 94.6017 51.9585 L 77.9961 48.7108 L 79.0004 51.1484 L 78.9903 56.768 L 82.2811 64.1194 L 78.0276 57.2313 L 74.4034 45.6174 Z " stroke-width="0.508037282917202"/>
    <path id="ID0.8256730306893587" fill="none" stroke="#937B73" stroke-width="1.016074565834404" stroke-linecap="round" d="M 84.8014 57.8634 C 84.8014 57.8634 87.5257 57.3944 88.8982 57.2677 C 89.2415 57.2361 89.5758 57.3296 89.9096 57.3916 C 90.2489 57.4549 90.5699 57.6378 90.915 57.6423 C 91.5991 57.6516 92.2767 57.4861 92.9592 57.4333 C 93.2977 57.407 93.639 57.3849 93.9778 57.4049 C 94.3171 57.425 94.6607 57.4615 94.9879 57.5542 C 95.526 57.7066 96.5626 58.1368 96.5626 58.1368 "/>
    <path id="ID0.7592270169407129" fill="none" stroke="#937B73" stroke-width="1.016074565834404" stroke-linecap="round" d="M 93.2033 59.5799 C 93.2033 59.5799 92.566 59.8953 92.22 59.9405 C 91.8843 59.9848 91.5455 59.8239 91.2075 59.8421 C 90.8673 59.8606 90.5454 60.0225 90.2059 60.0492 C 89.8685 60.0761 89.5168 60.0921 89.191 60.0015 C 88.9139 59.9244 88.4489 59.5597 88.4489 59.5597 "/>
    <path id="ID0.5332203092984855" fill="none" stroke="#937B73" stroke-width="1.016074565834404" stroke-linecap="round" d="M 87.7811 49.9085 C 87.7811 49.9085 87.1559 50.3114 87.0349 50.6363 C 86.8771 51.0718 86.5831 51.9038 87.0104 52.2372 C 87.5769 52.5543 88.3687 51.8637 89.0582 51.9521 C 89.7254 52.0404 91.0135 52.5526 91.0135 52.5526 "/>
    <path id="ID0.2278452254831791" fill="none" stroke="#937B73" stroke-width="1.016074565834404" stroke-linecap="round" d="M 92.2919 46.4587 C 92.2919 46.4587 93.1377 48.363 93.5562 49.3155 C 93.6963 49.6344 93.8525 49.9479 93.9688 50.2758 C 94.0851 50.6037 94.2821 50.9344 94.2521 51.2809 C 94.222 51.6284 94.0009 51.9404 93.8008 52.226 C 93.6672 52.4171 93.2706 52.6842 93.2706 52.6842 "/>
    <path id="ID0.6473136460408568" fill="none" stroke="#937B73" stroke-width="1.0160746214386542" stroke-linecap="round" d="M 91.8419 63.3524 C 91.8419 63.3524 92.1285 64.0015 92.1631 64.348 C 92.1964 64.6855 92.1201 65.0298 92.041 65.3596 C 91.9222 65.8566 91.5713 66.8204 91.5713 66.8204 "/>
    <path id="ID0.11669129692018032" fill="#2E3034" stroke="none" stroke-linecap="round" d="M 76.5824 40.3796 L 99.7159 43.2477 L 103.5235 46.097 L 93.9145 50.3495 L 73.3541 46.8395 L 76.5824 40.3796 Z " stroke-width="0.508037282917202"/>
    <path id="ID0.14635155349969864" fill="#2E3034" stroke="none" stroke-linecap="round" d="M 73.6711 45.5066 L 75.5055 45.9744 L 77.8997 51.3001 L 77.9333 57.0743 L 79.5812 60.9663 L 82.3079 64.6293 L 74.3315 59.041 L 73.6711 45.5066 Z " stroke-width="0.508037282917202"/>
    <path id="ID0.28340246016159654" fill="#1C1D1F" stroke="none" stroke-linecap="round" d="M 76.8725 37.202 L 80.2261 38.9007 L 89.8414 40.2451 L 89.5711 45.9909 L 82.6829 44.7207 L 78.8761 43.4602 L 76.924 41.8545 L 76.142 40.0874 L 76.8725 37.202 Z " stroke-width="0.5401026782102721"/>
    <path id="ID0.6101007834076881" fill="#FFFFFF" stroke="none" stroke-linecap="round" d="M 80.613 39.9482 L 82.2452 40.4252 L 85.9645 41.8027 L 86.4161 43.7944 L 81.2355 42.0962 L 80.613 39.9482 Z " stroke-width="0.4061061897641455"/>
    <path id="ID0.28340246016159654" fill="#1C1D1F" stroke="none" stroke-linecap="round" d="M 102.3424 38.43 L 99.223 39.6574 L 90.5741 40.0462 L 90.3331 45.1698 L 96.5547 44.6187 L 100.0398 43.8183 L 101.9073 42.5561 L 102.7494 41.0528 L 102.3424 38.43 Z " stroke-width="0.4816250145792631"/>
    <path id="ID0.6101007834076881" fill="#FFFFFF" stroke="none" stroke-linecap="round" d="M 100.5488 40.4252 L 98.986 40.8436 L 95.4184 42.0734 L 94.9457 43.9581 L 99.9103 42.4549 L 100.5488 40.4252 Z " stroke-width="0.38638674717503535"/>
    <g id="ID0.07940126257017255">
      <path id="ID0.46257128613069654" fill="#27282B" stroke="none" stroke-linecap="round" d="M 90.0398 40.125 L 93.9109 50.2757 L 83.9479 48.5356 L 90.0398 40.125 Z " stroke-width="0.508037282917202"/>
      <path id="ID0.9845890481956303" fill="#27282B" stroke="none" stroke-linecap="round" d="M 90.8529 40.2879 L 98.7787 48.0353 L 93.9906 50.3531 L 90.8529 40.2879 Z " stroke-width="0.508037282917202"/>
    </g>
    <path id="ID0.20071752788498998" fill="#202324" stroke="none" d="M 81.8303 35.1507 L 85.8457 37.908 L 90.5357 39.2984 L 90.5461 40.6975 L 82.8414 39.0636 L 77.0645 36.4524 L 78.8735 34.7574 L 81.8303 35.1507 Z " stroke-width="0.508037282917202"/>
    <path id="ID0.20071752788498998" fill="#202324" stroke="none" d="M 98.7816 35.671 L 95.6171 37.9719 L 90.3059 39.2852 L 90.1758 40.5623 L 97.354 39.7334 L 102.8733 37.9632 L 101.442 35.6561 L 98.7816 35.671 Z " stroke-width="0.46609799486602593"/>
    <path id="ID0.521138689480722" fill="none" stroke="#212325" stroke-width="0.9060627407557054" stroke-linecap="round" d="M 102.4715 38.1959 L 99.1614 39.6276 L 90.5726 40.4709 "/>
    <path id="ID0.17828734638169408" fill="none" stroke="#202324" stroke-width="1.016074565834404" stroke-linecap="round" d="M 93.8392 49.7865 L 91.2614 42.4178 C 90.3753 39.9541 90.4968 40.529 90.3535 39.5523 C 90.3034 39.2113 90.5369 38.8855 90.6042 38.5469 C 90.6703 38.2133 90.7502 37.8768 90.7535 37.5367 C 90.7569 37.1931 90.6737 36.853 90.6236 36.5134 C 90.5453 35.9834 90.3677 34.9248 90.3677 34.9248 "/>
    <path id="ID0.521138689480722" fill="none" stroke="#212325" stroke-width="1.016074565834404" stroke-linecap="round" d="M 77.1859 36.7221 L 80.7309 38.669 L 90.2311 40.5144 "/>
    <path id="ID0.8012696979567409" fill="none" stroke="url(#grad_1)" stroke-width="1.016074565834404" stroke-linecap="round" d="M 102.068 46.766 L 94.4243 50.3227 L 75.9605 47.1147 L 77.7582 51.0646 L 77.7763 57.1686 L 79.5352 60.8624 L 82.2572 64.6269 "/>
    <path id="ID0.043594349175691605" fill="#D7E2FD" stroke="none" stroke-linecap="round" d="M 85.6406 42.7911 L 85.9215 41.6853 L 86.3323 43.7645 L 83.7788 42.9069 L 85.6406 42.7911 Z " stroke-width="0.508037282917202"/>
    <path id="ID0.043594349175691605" fill="#D7E2FD" stroke="none" stroke-linecap="round" d="M 95.6889 43.0891 L 95.4711 42.0751 L 95.0275 43.9501 L 97.3764 43.2574 L 95.6889 43.0891 Z " stroke-width="0.4618642856713048"/>
  </g>
  <g id="ID0.7397577832452953">
    <path id="ID0.6726378230378032" fill="#393C40" stroke="none" stroke-linecap="round" d="M 50.488 154.9603 L 63.4601 141.6743 L 65.4545 143.0582 L 52.4312 155.9075 L 50.488 154.9603 Z " stroke-width="0.816459648721274"/>
    <path id="ID0.6507829907350242" fill="#1D1E1F" stroke="none" stroke-linecap="round" d="M 50.7225 158.4292 L 65.5213 142.761 L 83.7421 148.1006 L 93.4578 152.8365 L 109.026 157.0375 L 115.4917 158.148 L 114.3249 170.3067 L 107.9656 168.802 L 98.0278 168.0231 L 85.2623 167.5382 L 75.5216 166.8125 L 50.7225 158.4292 Z " stroke-width="0.816459648721274"/>
    <path id="ID0.6829322893172503" fill="#1D1E1F" stroke="none" stroke-linecap="round" d="M 113.8244 170.5944 L 111.6098 159.2146 L 117.7814 157.4974 L 124.5599 155.0982 L 130.0777 156.5872 L 134.4507 158.4014 L 136.8749 161.1698 L 143.0059 164.3041 L 141.5857 168.7834 L 139.296 169.434 L 138.6735 170.9574 L 135.2608 173.4191 L 131.4008 175.9716 L 126.5336 176.7724 L 119.849 174.1229 L 113.8244 170.5944 Z " stroke-width="0.816459648721274"/>
    <path id="ID0.47767175547778606" fill="none" stroke="#0D0D0D" stroke-width="1.632919297442548" stroke-linecap="round" d="M 54.5456 159.4609 L 50.6787 158.1214 L 65.5001 142.8398 L 78.9337 146.8031 "/>
    <path id="ID0.5922487881034613" fill="#282A2B" stroke="none" stroke-linecap="round" d="M 83.287 168.2767 L 79.6879 159.9905 L 81.3621 154.0998 L 88.733 149.6617 L 102.8254 154.9444 L 108.8938 161.4445 L 107.9898 164.7946 L 99.3 168.7922 L 83.287 168.2767 Z " stroke-width="0.816459648721274"/>
    <path id="ID0.36820242274552584" fill="#151616" stroke="none" stroke-linecap="round" d="M 87.65 162.9512 L 89.7834 154.732 L 100.196 160.3325 L 99.7236 161.7695 L 87.65 162.9512 Z " stroke-width="0.816459648721274"/>
    <path id="ID0.13569410238415003" fill="none" stroke="#232425" stroke-width="1.632919297442548" stroke-linecap="round" d="M 98.0666 166.4691 L 106.4923 162.8231 L 100.7592 155.8638 "/>
    <path id="ID0.024502143263816833" fill="none" stroke="#0D0D0D" stroke-width="1.632919297442548" stroke-linecap="round" d="M 83.179 167.7372 L 79.7038 160.2455 L 81.0414 154.3485 L 88.4336 149.8317 L 96.4764 152.9322 "/>
  </g>
  <g id="ID0.3206949238665402">
    <path id="ID0.05466862628236413" fill="#303436" stroke="none" stroke-linecap="round" d="M 54.3905 234.3652 L 81.1291 234.1518 L 73.7293 252.1646 L 71.4828 256.9438 L 68.4269 274.8271 L 59.7212 314.6389 L 43.9371 314.3658 L 44.7864 292.1328 L 43.2583 283.2071 L 43.2236 273.6877 L 47.1254 260.5891 L 48.8061 248.3831 L 54.3905 234.3652 Z " stroke-width="0.7305889750845872"/>
    <path id="ID0.4490455654449761" fill="none" stroke="#272A2B" stroke-width="1.6585523607858468" stroke-linecap="round" d="M 54.1494 235.313 L 80.9305 234.7154 L 70.8786 257.9708 "/>
    <path id="ID0.10446935473009944" fill="none" stroke="#242728" stroke-width="1.6585523607858468" stroke-linecap="round" d="M 68.8608 270.1416 L 66.4011 286.7993 L 54.9513 292.6295 "/>
    <path id="ID0.42170455446466804" fill="none" stroke="#242728" stroke-width="1.6585523607858468" stroke-linecap="round" d="M 65.1501 287.8021 L 61.6524 302.5252 L 49.9581 308.5172 "/>
    <path id="ID0.047098892275244" fill="none" stroke="#242728" stroke-width="1.6585523607858468" stroke-linecap="round" d="M 49.0699 248.917 L 48.0661 252.7271 L 51.3129 262.1128 "/>
  </g>
  <g id="ID0.7190384990535676">
    <path id="ID0.05466862628236413" fill="#292D2E" stroke="none" stroke-linecap="round" d="M 96.3603 228.362 L 122.9879 225.9195 L 117.116 244.4867 L 115.2759 249.4366 L 113.722 267.5125 L 108.3667 307.9115 L 92.6147 308.9558 L 91.607 286.7294 L 89.3399 277.9621 L 88.5115 268.4788 L 91.3073 255.1005 L 91.9643 242.7968 L 96.3603 228.362 Z " stroke-width="0.7305889786028121"/>
    <path id="ID0.4490455654449761" fill="none" stroke="#272A2B" stroke-width="1.6585523826564517" stroke-linecap="round" d="M 96.0531 228.4962 L 122.6911 225.6673 L 114.6135 249.68 "/>
    <path id="ID0.10446935473009944" fill="none" stroke="#242728" stroke-width="1.6585523826564517" stroke-linecap="round" d="M 113.6178 261.9767 L 112.5558 278.7815 L 101.6321 285.5462 "/>
    <path id="ID0.42170455446466804" fill="none" stroke="#242728" stroke-width="1.6585523826564517" stroke-linecap="round" d="M 111.3927 279.8851 L 109.1351 294.8487 L 97.9812 301.795 "/>
    <path id="ID0.047098892275244" fill="none" stroke="#242728" stroke-width="1.6585523826564517" stroke-linecap="round" d="M 92.2614 242.5813 L 91.5788 246.4619 L 95.597 255.5442 "/>
  </g>
</svg>