<svg xmlns="http://www.w3.org/2000/svg" xmlns:xlink="http://www.w3.org/1999/xlink" version="1.1" width="177.9291254395385" height="321.69850410164787" viewBox="0.9140781703522148 -0.6693084594676552 177.9291254395385 321.69850410164787">
  <defs>
    <linearGradient id="grad_1" y2="1" x2="0">
      <stop offset="0" stop-color="#222325" stop-opacity="1"/>
      <stop offset="1" stop-color="#2E3034" stop-opacity="1"/>
    </linearGradient>
  </defs>
  <!-- Exported by Scratch - http://scratch.mit.edu/ -->
  <path id="ID0.7766774026677012" fill="#0D0D0D" stroke="#0D0D0D" stroke-width="1.9404169434447402" stroke-linecap="round" d="M 122.2776 183.4011 C 123.6912 151.9749 126.6311 119.4291 117.6813 88.6902 C 114.2966 77.0686 99.3914 70.8072 87.6534 65.936 C 82.2955 63.7154 76.4233 67.9778 70.8891 69.2708 C 69.3178 69.634 68.1089 70.5378 66.7551 71.1088 C 64.8516 71.7301 62.8636 72.1648 61.1246 72.8453 C 60.5087 73.0879 59.8891 73.3264 59.3149 73.6641 C 58.6442 73.9481 58.1135 74.3829 57.4894 74.7172 C 56.1946 75.3355 54.8966 76.0007 53.6049 76.5722 C 52.3196 77.0499 50.9907 77.4305 49.7521 77.9585 C 49.1344 78.1991 48.47 78.3894 47.9425 78.7773 C 47.3153 79.1585 46.8717 79.7875 46.3346 80.316 C 45.804 80.7508 45.2733 81.1856 44.7426 81.6204 C 44.2152 82.0084 43.538 82.3861 43.1506 82.9248 C 42.7166 83.4133 42.5691 84.1095 42.2751 84.7487 C 41.9843 85.341 41.6437 85.9299 41.3996 86.5725 C 40.8679 87.7605 40.3829 88.9988 39.898 90.2371 C 39.6072 90.8294 39.3164 91.4217 39.0224 92.0609 C 38.7316 92.6533 38.4409 93.2456 38.1469 93.8848 C 37.8561 94.4771 37.5653 95.0694 37.2714 95.7086 C 36.9806 96.3009 36.59 96.8865 36.3958 97.5325 C 36.1549 98.1282 36.1136 98.7374 36.0192 99.3902 C 35.878 99.9926 35.7369 100.5951 35.6425 101.2479 C 35.5014 101.8503 35.4101 102.4562 35.2658 103.1056 C 35.0748 103.7046 34.784 104.297 34.6397 104.9463 C 34.0667 106.7436 33.5372 108.638 33.0108 110.4856 C 32.8198 111.0847 32.529 111.677 32.3847 112.3263 C 32.1937 112.9254 32.1025 113.5313 32.008 114.184 C 31.8669 114.7865 31.6759 115.3856 31.6314 116.0417 C 31.5401 116.6476 31.5486 117.2602 31.5041 117.9164 C 31.4214 119.1349 31.2357 120.3935 31.2496 121.6656 C 31.2082 122.2749 31.3887 122.5696 31.3718 123.5572 C 31.164 127.3567 30.8532 131.1963 30.5924 135.0393 C 30.341 138.7417 30.0834 142.5378 29.8289 146.2871 C 29.7048 148.1149 29.6242 150.0397 29.4471 151.911 C 29.3559 152.5169 29.2147 153.1193 29.0704 153.7687 C 28.7256 155.1577 28.2841 156.4931 28.0358 157.9358 C 27.8947 158.5383 27.9531 159.1543 27.9086 159.8104 C 27.8173 160.4163 27.6263 161.0154 27.5319 161.6681 C 27.2496 162.8731 26.9143 164.1216 26.7785 165.3835 C 26.5961 166.5953 26.6099 167.8674 26.524 169.1328 C 26.2727 172.8352 26.015 176.6313 25.7605 180.3806 C 25.7001 181.271 25.7277 181.6025 25.6333 182.2552 C 25.4922 182.8577 25.1515 183.4466 25.0072 184.096 C 24.5339 185.9001 24.2538 187.8114 23.8771 189.6691 C 23.736 190.2716 23.6448 190.8774 23.5005 191.5268 C 23.1121 192.8187 22.574 194.1005 22.2324 195.4427 C 22.0382 196.0886 21.9374 196.8351 21.8398 197.5347 C 21.6955 198.184 21.4981 198.8769 21.4472 199.6267 C 21.3559 200.2326 21.3645 200.8452 21.3199 201.5014 C 21.2786 202.1106 21.1375 202.7131 21.1927 203.376 C 21.2596 204.6047 21.5229 205.8937 21.6865 207.176 C 21.7449 207.7921 21.8033 208.4081 21.8086 209.0676 C 21.7673 209.6769 21.7259 210.2861 21.6814 210.9422 C 21.64 211.5515 21.5987 212.1607 21.5541 212.8169 C 21.3716 214.0286 21.2858 215.294 21.0502 216.5492 C 20.7711 217.7073 20.0633 220.0133 20.0633 220.0133 C 19.7821 220.4651 18.9804 223.0905 18.514 224.3809 C 18.2609 225.0822 17.8933 225.7437 17.6225 226.4391 C 17.3871 227.0436 17.2054 227.6669 16.9964 228.2799 C 16.7874 228.8928 16.54 229.4965 16.3703 230.1206 C 16.2046 230.7309 16.1594 231.3681 15.9937 231.9783 C 15.824 232.6024 15.6138 233.219 15.3676 233.8191 C 15.1128 234.4412 14.7085 235.0079 14.492 235.6429 C 14.288 236.2421 14.2405 236.882 14.1153 237.5006 C 13.9902 238.1193 13.8639 238.7397 13.7387 239.3583 C 13.6135 239.977 13.4872 240.5974 13.362 241.216 C 13.2368 241.8347 13.0559 242.4467 12.9853 243.0737 C 12.8458 244.3176 12.8704 245.5792 12.7308 246.823 C 12.6602 247.45 12.4793 248.0621 12.3541 248.6807 C 12.2289 249.2993 12.0481 249.9114 11.9775 250.5384 C 11.8379 251.7822 11.7798 253.0373 11.723 254.2877 C 11.6093 256.7894 11.566 259.3016 11.4634 261.8031 C 11.438 262.4285 11.3785 263.0535 11.3361 263.6778 C 11.2937 264.302 11.2931 264.9319 11.2089 265.5524 C 11.1243 266.1775 10.9979 266.7999 10.8322 267.4101 C 10.6625 268.0342 10.3342 268.6183 10.2061 269.2509 C 10.0812 269.8648 10.1631 270.505 10.0788 271.1255 C 9.9943 271.7506 9.7867 272.358 9.7022 272.9832 C 9.6179 273.6037 9.6591 274.2373 9.5749 274.8578 C 9.4904 275.483 9.3639 276.1053 9.1982 276.7155 C 9.0286 277.3396 8.7418 277.9322 8.5721 278.5563 C 8.4064 279.1665 8.3612 279.8038 8.1955 280.414 C 8.0258 281.0381 7.7252 281.6278 7.5693 282.2548 C 7.2646 283.4808 7.0674 284.733 6.816 285.9702 C 6.6908 286.5888 6.5645 287.2092 6.4393 287.8279 C 6.3141 288.4465 6.1472 289.0604 6.0626 289.6856 C 5.9784 290.306 5.9358 290.934 5.9354 291.5602 C 5.9347 292.191 6.0723 292.8209 6.0576 293.4518 C 6.0277 294.703 6.0518 295.9731 5.8031 297.201 C 5.5468 298.4661 5.0178 299.6732 4.5509 300.8826 C 4.3089 301.5093 3.93 302.0843 3.6753 302.7064 C 3.4291 303.3064 3.2954 303.9471 3.0492 304.5472 C 2.7945 305.1692 2.3489 305.7247 2.1737 306.371 C 2.0093 306.9766 1.6896 307.7139 2.0464 308.2456 C 2.4269 308.8129 3.2953 308.9538 3.9941 309.0841 C 4.6533 309.207 5.336 308.9397 6.0054 308.9852 C 6.6749 309.0306 7.3155 309.3095 7.9849 309.355 C 8.6544 309.4004 9.3251 309.2501 9.9963 309.2561 C 10.6624 309.2618 11.3375 309.269 11.9917 309.3915 C 12.6657 309.5173 13.3531 309.6817 13.9553 309.9956 C 14.5835 310.3236 14.9586 311.028 15.6217 311.2858 C 16.2388 311.5264 16.9526 311.3762 17.6171 311.4213 C 18.2816 311.4664 18.9478 311.5897 19.6125 311.5567 C 20.2974 311.5232 20.9549 311.2571 21.6397 311.2235 C 22.3045 311.1905 22.9744 311.2745 23.6352 311.3589 C 24.3009 311.4437 24.9489 311.644 25.6147 311.7287 C 26.2755 311.8131 26.9559 311.7416 27.6101 311.8642 C 28.2841 311.99 28.8996 312.3425 29.5737 312.4683 C 30.2279 312.5908 30.9083 312.5193 31.5691 312.6037 C 32.2349 312.6885 32.8894 312.8506 33.5486 312.9735 C 34.2078 313.0964 34.8573 313.3175 35.5281 313.3433 C 37.5315 313.42 39.5417 313.2626 41.5461 313.281 C 42.2123 313.2867 42.8807 313.332 43.5415 313.4164 C 44.2073 313.5012 44.8533 313.7145 45.521 313.7862 C 46.8455 313.9279 48.1874 313.9154 49.5118 314.0571 C 50.1795 314.1288 50.8255 314.3421 51.4913 314.4269 C 52.1521 314.5113 52.8206 314.5567 53.4867 314.5623 C 54.1579 314.5684 54.8269 314.4575 55.4981 314.4635 C 56.1642 314.4691 56.8273 314.5932 57.4935 314.5989 C 58.1646 314.6049 58.8338 314.5072 59.5048 314.5 C 60.8388 314.4861 62.1796 314.4462 63.5115 314.5366 C 64.181 314.582 64.8404 314.7455 65.491 314.9064 C 66.1564 315.0711 66.7806 315.3847 67.4546 315.5105 C 68.1088 315.6331 68.7855 315.6008 69.45 315.6459 C 71.4434 315.7813 73.4478 315.8589 75.4362 316.0523 C 76.1044 316.1174 76.7499 316.3373 77.4157 316.4221 C 78.0765 316.5065 78.745 316.5518 79.4111 316.5575 C 80.0823 316.5635 80.7527 316.4913 81.4225 316.4586 C 82.0922 316.4259 82.7626 316.3538 83.4338 316.3598 C 84.0999 316.3654 84.7679 316.5661 85.4292 316.4952 C 86.1349 316.4198 85.8532 316.2142 87.4723 315.9277 C 93.9478 314.7815 105.1562 318.5669 107.1427 312.6018 C 114.2274 291.3187 107.9713 267.5425 110.5637 245.2247 C 112.9528 224.6765 121.3076 204.4081 122.2776 183.4011 Z "/>
  <g id="ID0.17693647183477879">
    <path id="ID0.7729651997797191" fill="#393C40" stroke="none" stroke-linecap="round" d="M 141.287 83.674 L 127.0205 96.6886 L 139.8969 107.0634 L 150.2107 115.5031 L 156.5133 117.4223 L 161.1678 117.9193 L 168.4831 107.7623 L 165.9977 102.5124 L 149.9235 90.9653 L 141.287 83.674 Z " stroke-width="0.7788099058081831"/>
    <path id="ID0.9716172609478235" fill="#34373A" stroke="none" stroke-linecap="round" d="M 141.6932 90.5018 L 143.9112 85.8095 L 138.6043 82.086 L 131.061 100.0831 L 135.1132 100.5158 L 140.3291 98.6082 L 141.6932 90.5018 Z " stroke-width="0.7788099058081831"/>
    <g id="ID0.38066427363082767">
      <path id="ID0.4757494777441025" fill="#1D1E1F" stroke="none" stroke-linecap="round" d="M 119.3587 70.7632 L 111.7131 74.307 L 102.7964 87.4853 L 124.1537 101.4742 L 134.8361 98.9814 L 138.8356 97.0669 L 139.7952 93.3743 L 140.1331 89.4539 L 142.8056 84.087 L 139.6137 79.9511 L 134.2345 74.3704 L 126.857 70.1105 L 119.3587 70.7632 Z " stroke-width="0.45418604597754514"/>
      <path id="ID0.6007084371522069" fill="none" stroke="#0D0D0D" stroke-width="0.9083720919550903" stroke-linecap="round" d="M 142.6661 84.6373 L 140.2214 89.3825 L 139.2511 94.6889 L 138.9069 97.1553 L 134.8361 98.9814 L 130.2118 99.941 "/>
    </g>
  </g>
  <g id="ID0.7397577832452953">
    <path id="ID0.6726378230378032" fill="#34373A" stroke="none" stroke-linecap="round" d="M 177.873 119.3084 L 169.6088 103.6423 L 167.4098 104.3675 L 175.8391 119.6482 L 177.873 119.3084 Z " stroke-width="0.7788098748327408"/>
    <path id="ID0.6507829907350242" fill="#1D1E1F" stroke="none" stroke-linecap="round" d="M 176.8235 122.4989 L 167.5342 104.1589 L 149.4228 104.1054 L 139.2536 105.8042 L 123.8767 105.428 L 117.6624 104.6917 L 115.435 116.1281 L 121.6589 116.4751 L 130.9589 118.4555 L 142.7656 121.471 L 151.871 123.4466 L 176.8235 122.4989 Z " stroke-width="0.7788098748327408"/>
    <path id="ID0.6829322893172503" fill="#1D1E1F" stroke="none" stroke-linecap="round" d="M 115.8148 116.5269 L 120.9237 106.7191 L 115.7445 103.4762 L 110.1951 99.4452 L 104.7451 99.3119 L 100.254 99.7863 L 97.2867 101.6613 L 90.8301 102.8667 L 90.9152 107.3482 L 92.8331 108.5637 L 92.9896 110.1256 L 95.4438 113.3019 L 98.2825 116.6822 L 102.5171 118.7334 L 109.3487 118.1215 L 115.8148 116.5269 Z " stroke-width="0.7788098748327408"/>
    <path id="ID0.47767175547778606" fill="none" stroke="#0D0D0D" stroke-width="1.5576197496654816" stroke-linecap="round" d="M 173.0474 122.4066 L 176.947 122.2293 L 167.5323 104.2368 L 154.1721 104.2216 "/>
    <path id="ID0.5922487881034613" fill="#282A2B" stroke="none" stroke-linecap="round" d="M 144.3096 122.595 L 149.8466 115.9918 L 149.9116 110.1505 L 144.3727 104.0943 L 130.0525 105.1073 L 122.7412 109.4079 L 122.6602 112.7169 L 129.5245 118.7276 L 144.3096 122.595 Z " stroke-width="0.7788098748327408"/>
    <path id="ID0.36820242274552584" fill="#151616" stroke="none" stroke-linecap="round" d="M 141.9472 116.6427 L 142.2232 108.5474 L 131.1824 110.8481 L 131.225 112.2904 L 141.9472 116.6427 Z " stroke-width="0.7788098748327408"/>
    <path id="ID0.13569410238415003" fill="none" stroke="#232425" stroke-width="1.5576197496654816" stroke-linecap="round" d="M 131.3445 117.0237 L 124.6264 111.406 L 131.7555 106.5945 "/>
    <path id="ID0.024502143263816833" fill="none" stroke="#0D0D0D" stroke-width="1.5576197496654816" stroke-linecap="round" d="M 144.617 122.2174 L 149.8254 116.3072 L 150.1999 110.5515 L 144.663 104.4174 L 136.4669 105.0738 "/>
  </g>
  <path id="ID0.3809091211296618" fill="#393D40" stroke="none" stroke-linecap="round" d="M 108.4574 168.4286 L 133.3385 154.4496 L 139.1404 192.8069 L 138.951 203.7511 L 134.9141 221.9196 L 126.4875 225.1361 L 113.6531 227.3102 L 112.2978 206.5348 L 113.3256 195.1237 L 108.4574 168.4286 Z " stroke-width="0.7305889842172973"/>
  <path id="ID0.5368814701214433" fill="#292D2E" stroke="none" stroke-linecap="round" d="M 100.7314 307.0861 L 103.4265 298.1968 L 107.718 288.8566 L 117.8163 294.5013 L 129.242 301.8954 L 146.9198 311.8644 L 148.1365 318.3556 L 123.4697 320.059 L 102.1516 316.8448 L 100.7314 307.0861 Z " stroke-width="0.7702165660495809"/>
  <path id="ID0.05466862628236413" fill="#292D2E" stroke="none" stroke-linecap="round" d="M 111.3227 217.0302 L 138.0435 216.033 L 131.175 234.255 L 129.0695 239.098 L 126.5393 257.0632 L 119.0045 297.1131 L 103.2192 297.3029 L 103.4163 275.0546 L 101.6272 266.1775 L 101.3134 256.6632 L 104.8295 243.4559 L 106.1516 231.2058 L 111.3227 217.0302 Z " stroke-width="0.730589000764505"/>
  <path id="ID0.4490455654449761" fill="none" stroke="#272A2B" stroke-width="1.6585524317132332" stroke-linecap="round" d="M 111.5067 217.2413 L 138.2588 215.8588 L 128.893 239.3989 "/>
  <path id="ID0.10446935473009944" fill="none" stroke="#242728" stroke-width="1.6585524317132332" stroke-linecap="round" d="M 127.2329 251.6237 L 125.2627 268.3463 L 113.9887 274.5097 "/>
  <path id="ID0.42170455446466804" fill="none" stroke="#242728" stroke-width="1.6585524317132332" stroke-linecap="round" d="M 124.0415 269.3853 L 120.9771 284.2047 L 109.4635 290.537 "/>
  <path id="ID0.047098892275244" fill="none" stroke="#242728" stroke-width="1.6585524317132332" stroke-linecap="round" d="M 106.9227 231.0576 L 106.031 234.8955 L 109.5516 244.1819 "/>
  <path id="ID0.3809091211296618" fill="#3E4246" stroke="none" stroke-linecap="round" d="M 83.3773 156.1711 L 104.3654 172.7964 L 101.6838 211.4972 L 99.1179 222.1381 L 91.2252 238.9932 L 82.3008 240.2995 L 69.3007 239.6295 L 71.9162 218.0151 L 72.1961 204.6021 L 83.3773 156.1711 Z " stroke-width="0.7305889874449502"/>
  <path id="ID0.5368814701214433" fill="#303436" stroke="none" stroke-linecap="round" d="M 15.6737 306.4307 L 18.1746 297.4849 L 22.2617 288.0535 L 32.4806 293.477 L 44.0645 300.6206 L 61.9552 310.2024 L 63.3128 316.6655 L 38.689 318.9055 L 17.306 316.1562 L 15.6737 306.4307 Z " stroke-width="0.7702165197019715"/>
  <path id="ID0.05466862628236413" fill="#303436" stroke="none" stroke-linecap="round" d="M 69.2255 225.7085 L 92.6704 238.5668 L 77.4232 250.6805 L 73.1307 253.7564 L 61.7386 267.8764 L 34.7167 298.3818 L 21.0716 290.4431 L 32.6595 271.4497 L 35.6801 262.9127 L 40.2939 254.5861 L 50.0901 245.0556 L 57.512 235.2206 L 69.2255 225.7085 Z " stroke-width="0.7305889812548075"/>
  <path id="ID0.4490455654449761" fill="none" stroke="#272A2B" stroke-width="1.658552349073714" stroke-linecap="round" d="M 68.5802 226.3843 L 92.2496 238.928 L 72.1297 254.3243 "/>
  <path id="ID0.10446935473009944" fill="none" stroke="#242728" stroke-width="1.658552349073714" stroke-linecap="round" d="M 64.4307 263.9641 L 54.1571 277.305 L 41.318 276.8085 "/>
  <path id="ID0.42170455446466804" fill="none" stroke="#242728" stroke-width="1.658552349073714" stroke-linecap="round" d="M 52.5758 277.57 L 42.3398 288.7159 L 29.2083 288.2413 "/>
  <path id="ID0.047098892275244" fill="none" stroke="#242728" stroke-width="1.658552349073714" stroke-linecap="round" d="M 57.5396 235.7898 L 54.8045 238.6261 L 53.0598 248.403 "/>
  <g id="ID0.9157347986474633">
    <path id="ID0.7477802094072104" fill="#363A3D" stroke="none" stroke-linecap="round" d="M 134.5479 122.1665 L 114.8663 120.1061 L 117.0372 161.2352 L 134.1496 169.2721 L 135.1394 144.6644 L 134.5479 122.1665 Z " stroke-width="0.4761425977718575"/>
    <path id="ID0.7477802094072104" fill="#363A3D" stroke="none" stroke-linecap="round" d="M 74.3802 125.3486 L 97.6471 121.2597 L 99.8179 162.3888 L 83.6467 172.1825 L 76.8548 147.3895 L 74.3802 125.3486 Z " stroke-width="0.4761425977718575"/>
    <path id="ID0.4270821204409003" fill="#3E4246" stroke="none" stroke-linecap="round" d="M 73.6071 105.2899 L 76.7522 92.6077 L 78.7033 86.6639 L 84.871 79.3055 L 115.9714 79.0943 L 123.0917 83.0098 L 126.1579 86.9008 L 133.7736 97.9421 L 133.6125 108.4404 L 132.9501 113.9586 L 134.9782 120.7652 L 135.7423 126.2081 L 133.9666 133.2155 L 132.626 138.5312 L 131.9267 147.8658 L 134.5789 169.6588 L 129.8766 178.1319 L 125.4255 184.5892 L 113.6107 190.6484 L 101.8733 188.2402 L 97.5968 181.7429 L 92.313 175.5849 L 83.6149 172.9448 L 81.1374 147.6857 L 79.5973 141.0917 L 74.4304 129.9211 L 72.5519 119.1729 L 73.6071 105.2899 Z " stroke-width="0.4761425977718575"/>
    <path id="ID0.052435632329434156" fill="#393C40" stroke="none" stroke-linecap="round" d="M 88.3725 154.4697 L 92.8208 154.2826 L 99.5794 157.2158 L 104.6345 156.7821 L 110.6008 158.2552 L 114.7285 156.9645 L 116.3676 156.4012 L 130.3813 152.2524 L 130.911 155.5144 L 122.572 160.1266 L 116.6122 160.1312 L 111.1859 163.4692 L 104.3434 160.302 L 97.947 161.0687 L 87.88 157.7856 L 88.3725 154.4697 Z " stroke-width="0.4761425977718575"/>
    <path id="ID0.4987568911164999" fill="none" stroke="#27282B" stroke-width="0.952285195543715" stroke-linecap="round" d="M 84.6889 79.9604 L 78.5962 86.4804 L 75.7949 96.6412 "/>
    <path id="ID0.2889464790932834" fill="none" stroke="#27282B" stroke-width="0.952285195543715" stroke-linecap="round" d="M 117.3346 79.6677 L 123.2412 83.1704 L 129.4363 92.1411 "/>
    <path id="ID0.8373676878400147" fill="#000000" stroke="#2C2F31" stroke-width="0.615510445930943" stroke-linecap="round" d="M 88.9649 92.785 L 89.2279 91.2379 L 85.6423 92.3426 L 80.9745 95.9417 L 77.1248 101.2105 L 74.9828 106.9685 L 79.9894 104.4371 L 84.674 104.0703 L 87.4672 104.8359 L 90.1668 107.6825 L 92.212 106.5456 L 96.2 106.045 L 100.7643 106.8362 L 104.7758 109.7987 L 107.0162 112.7356 L 109.0034 109.5991 L 112.5243 106.2641 L 116.5557 104.6077 L 121.704 104.3044 L 123.5653 104.7892 L 125.0889 101.5892 L 126.9736 100.226 L 129.6018 100.6116 L 132.492 102.0671 L 130.8445 98.3434 L 128.3488 94.5672 L 125.3416 91.7295 L 122.0491 89.6699 L 117.4893 89.0325 L 119.7731 90.8135 L 119.8244 92.5824 L 118.3488 94.7804 L 114.849 96.1904 L 111.707 96.6664 L 109.0966 96.8961 L 106.3792 93.4343 L 106.0549 95.5219 L 104.5937 95.5643 L 102.9095 93.2271 L 102.1862 97.4815 L 98.1169 97.8305 L 93.9394 97.105 L 90.5176 95.8957 L 88.9649 92.785 Z "/>
    <path id="ID0.5698574706912041" fill="none" stroke="#313537" stroke-width="0.952285195543715" stroke-linecap="round" d="M 88.2924 154.307 L 87.8675 157.5479 L 97.9533 161.1876 L 104.7101 160.4734 L 110.9419 163.3629 "/>
    <path id="ID0.5698574706912041" fill="none" stroke="#313537" stroke-width="0.8933066555174622" stroke-linecap="round" d="M 130.0897 152.3388 L 130.7772 155.5209 L 122.396 160.1353 L 116.4706 160.0905 L 111.3552 163.5789 "/>
    <path id="ID0.8947288258932531" fill="#393C40" stroke="none" stroke-linecap="round" d="M 88.9701 142.3035 L 95.9772 141.8144 L 103.6139 143.3186 L 109.5633 148.5355 L 102.2477 144.535 L 91.4228 143.6044 L 86.4707 146.8935 L 88.9701 142.3035 Z " stroke-width="0.4761425977718575"/>
    <path id="ID0.8947288258932531" fill="#393C40" stroke="none" stroke-linecap="round" d="M 127.6929 141.2481 L 121.4807 141.4705 L 114.9001 143.5057 L 110.1503 148.6512 L 116.2158 144.449 L 125.6556 142.6216 L 130.3201 145.0548 L 127.6929 141.2481 Z " stroke-width="0.42137390024020793"/>
    <path id="ID0.9897695370018482" fill="#393C40" stroke="none" stroke-linecap="round" d="M 93.0636 154.3651 L 86.5006 154.2347 L 86.6838 149.5762 L 88.057 153.0083 L 93.1522 152.8824 L 99.4703 156.0534 L 104.9195 155.4082 L 109.084 156.6188 L 110.0488 148.7006 L 110.8035 158.4829 L 105.1112 156.7808 L 99.239 157.0907 L 93.0636 154.3651 Z " stroke-width="0.4761425977718575"/>
    <path id="ID0.9897695370018482" fill="#393C40" stroke="none" stroke-linecap="round" d="M 125.3009 152.8886 L 130.8066 152.1546 L 130.2171 147.8621 L 129.3834 151.1655 L 125.0878 151.5252 L 120.0721 155.0493 L 115.4304 154.9617 L 112.0422 156.4708 L 110.491 149.2359 L 110.7708 158.3561 L 115.3975 156.2494 L 120.3636 155.9873 L 125.3009 152.8886 Z " stroke-width="0.42322513793792904"/>
    <path id="ID0.3524594851769507" fill="#393C40" stroke="none" stroke-linecap="round" d="M 101.6446 119.1505 L 107.656 121.0265 L 111.9788 118.462 L 109.0176 122.4327 L 110.5558 133.5088 L 119.5686 132.1748 L 109.3437 136.2905 L 97.4473 132.2219 L 107.23 133.732 L 106.231 122.4844 L 101.6446 119.1505 Z " stroke-width="0.4761425977718575"/>
    <path id="ID0.9214867809787393" fill="#393C40" stroke="none" stroke-linecap="round" d="M 88.7655 138.4283 L 91.5152 134.0634 L 96.2198 132.8615 L 90.6461 137.9237 L 90.5627 140.8605 L 95.6054 140.642 L 103.9292 143.4211 L 94.866 141.9923 L 89.0176 142.3009 L 88.7655 138.4283 Z " stroke-width="0.4761425977718575"/>
    <path id="ID0.9214867809787393" fill="#393C40" stroke="none" stroke-linecap="round" d="M 127.1629 137.1689 L 124.2311 133.2967 L 119.8316 132.6188 L 125.4019 136.8751 L 125.7667 139.6543 L 121.1564 139.9431 L 114.6699 143.1294 L 121.9621 141.1519 L 127.3145 140.8694 L 127.1629 137.1689 Z " stroke-width="0.44517886660695116"/>
    <path id="ID0.8679121839813888" fill="#2C2F31" stroke="none" stroke-linecap="round" d="M 103.5388 117.9565 L 107.428 119.3723 L 110.6697 117.5562 L 111.6709 118.457 L 107.8887 121.3268 L 102.0175 119.3957 L 103.5388 117.9565 Z " stroke-width="0.4761425977718575"/>
    <path id="ID0.24770551454275846" fill="none" stroke="#313537" stroke-width="0.952285195543715" stroke-linecap="round" d="M 107.4746 115.7742 L 112.2988 119.0956 L 119.8127 119.1758 L 127.3639 117.7045 L 132.3934 113.6245 "/>
    <path id="ID0.20603158557787538" fill="none" stroke="#313537" stroke-width="0.952285195543715" stroke-linecap="round" d="M 73.9455 113.5462 L 81.2412 118.5252 L 93.7731 121.0822 L 100.9928 120.1051 L 106.967 115.8561 "/>
    <g id="ID0.5272086253389716">
      <path id="ID0.24770551454275846" fill="none" stroke="#363A3D" stroke-width="0.95228513582557" stroke-linecap="round" d="M 79.0703 145.8585 L 88.7934 142.1745 "/>
      <path id="ID0.24770551454275846" fill="none" stroke="#363A3D" stroke-width="0.95228513582557" stroke-linecap="round" d="M 75.8728 134.0562 L 95.9434 126.7745 "/>
    </g>
    <g id="ID0.5272086253389716">
      <path id="ID0.24770551454275846" fill="none" stroke="#363A3D" stroke-width="0.9522851073422197" stroke-linecap="round" d="M 134.3731 141.9819 L 127.3477 140.5178 "/>
      <path id="ID0.24770551454275846" fill="none" stroke="#363A3D" stroke-width="0.9522851073422197" stroke-linecap="round" d="M 134.2687 130.6209 L 120.1622 126.598 "/>
    </g>
    <g id="ID0.7887678607366979">
      <path id="ID0.753661650698632" fill="none" stroke="#313537" stroke-width="0.95228513582557" stroke-linecap="round" d="M 102.1263 119.2442 L 107.4821 121.3456 L 111.3857 118.5171 "/>
      <g id="ID0.8167418288066983">
        <path id="ID0.9553722990676761" fill="none" stroke="#313537" stroke-width="1.0409108012151815" stroke-linecap="round" d="M 108.8885 136.181 L 103.1706 134.3371 L 96.9047 132.7606 L 92.1906 133.9631 L 88.9134 138.4273 L 89.0953 141.8745 "/>
        <path id="ID0.5982440118677914" fill="none" stroke="#313537" stroke-width="0.8540413731811805" stroke-linecap="round" d="M 97.1931 132.3301 L 95.7254 127.1069 L 100.5837 119.7829 "/>
      </g>
      <g id="ID0.7324484633281827">
        <path id="ID0.04993448918685317" fill="none" stroke="#313537" stroke-width="0.95228513582557" stroke-linecap="round" d="M 107.4758 121.2267 L 108.7412 131.6496 L 110.0825 148.0286 L 111.1798 164.3013 "/>
        <g id="ID0.8167418288066983">
          <path id="ID0.9553722990676761" fill="none" stroke="#313537" stroke-width="0.9699703491767683" stroke-linecap="round" d="M 109.1492 136.0062 L 114.1061 134.3856 L 119.4285 132.1975 L 123.6691 132.9273 L 126.9761 137.044 L 127.158 140.4912 "/>
          <path id="ID0.5982440118677914" fill="none" stroke="#313537" stroke-width="0.7916616355738881" stroke-linecap="round" d="M 119.146 131.8566 L 119.9125 126.5155 L 114.9402 119.7104 "/>
          <path id="ID0.3567589442245662" fill="none" stroke="#313537" stroke-width="0.8967655535582595" stroke-linecap="round" d="M 109.9413 148.6948 L 114.802 143.4556 L 122.0202 141.1674 L 127.5405 140.8761 L 130.0226 145.3939 L 130.6856 152.3918 L 125.182 153.3975 L 119.6993 156.7861 L 114.7729 156.8077 L 110.6666 158.8602 L 104.7008 156.6718 L 99.1304 157.2042 L 92.5478 154.4525 L 86.2162 154.0714 L 86.1805 147.0404 L 88.4869 142.2699 L 94.76 141.9388 L 103.1826 143.4014 L 109.2579 148.0634 Z "/>
        </g>
      </g>
    </g>
    <g id="ID0.9312638868577778">
      <path id="ID0.2888958193361759" fill="#393C40" stroke="none" stroke-linecap="round" d="M 91.2945 162.3815 L 101.6073 163.9244 L 101.1669 166.8675 L 90.8542 165.3247 L 91.2945 162.3815 Z " stroke-width="0.476142544151552"/>
      <path id="ID0.2888958193361759" fill="#393C40" stroke="none" stroke-linecap="round" d="M 80.4171 160.8701 L 92.0073 162.7244 L 91.5669 165.6675 L 81.2542 164.1247 L 80.4171 160.8701 Z " stroke-width="0.476142544151552"/>
      <g id="ID0.36424446757882833">
        <path id="ID0.7359844641759992" fill="#8A7B59" stroke="none" d="M 94.1832 161.5531 L 95.7047 161.4728 L 96.0335 167.7016 L 94.5119 167.7819 L 94.1832 161.5531 Z " stroke-width="0.476142567912785"/>
        <path id="ID0.7359844641759992" fill="#8A7B59" stroke="none" d="M 92.2332 161.2031 L 93.7547 161.1228 L 94.0835 167.3516 L 92.5619 167.4319 L 92.2332 161.2031 Z " stroke-width="0.476142567912785"/>
        <path id="ID0.7359844641759992" fill="#8A7B59" stroke="none" d="M 90.2332 160.6531 L 91.7547 160.5728 L 92.0835 166.8016 L 90.5619 166.8819 L 90.2332 160.6531 Z " stroke-width="0.476142567912785"/>
        <path id="ID0.7359844641759992" fill="#8A7B59" stroke="none" d="M 96.0332 161.9531 L 97.5547 161.8728 L 97.8835 168.1016 L 96.3619 168.1819 L 96.0332 161.9531 Z " stroke-width="0.476142567912785"/>
      </g>
      <g id="ID0.1049797898158431">
        <path id="ID0.08871637750416994" fill="#8A7B59" stroke="none" stroke-linecap="round" d="M 82.1604 160.134 L 88.6108 160.8425 L 88.8582 166.4319 L 82.6442 165.6871 L 82.1604 160.134 Z " stroke-width="0.476142567912785"/>
        <path id="ID0.13805592898279428" fill="#76694C" stroke="none" stroke-linecap="round" d="M 81.9331 159.8849 L 88.6926 160.5771 L 88.9395 163.4487 L 82.1512 162.6627 L 81.9331 159.8849 Z " stroke-width="0.476142567912785"/>
        <path id="ID0.3221200187690556" fill="#61563F" stroke="none" stroke-linecap="round" d="M 84.8305 161.9553 L 85.7269 162.2702 L 85.8969 164.0208 L 84.9245 163.7357 L 84.8305 161.9553 Z " stroke-width="0.5167889076215454"/>
        <path id="ID0.1420820001512766" fill="#BAA578" stroke="none" stroke-linecap="round" d="M 88.1228 165.5398 L 88.7607 164.0757 L 88.9299 166.3793 L 82.6247 165.7108 L 88.1228 165.5398 Z " stroke-width="0.476142567912785"/>
      </g>
      <path id="ID0.2888958193361759" fill="#393C40" stroke="none" stroke-linecap="round" d="M 128.8508 160.8274 L 121.5332 163.0293 L 122.0985 165.5395 L 129.4161 163.3376 L 128.8508 160.8274 Z " stroke-width="0.38104699715630636"/>
      <path id="ID0.2888958193361759" fill="#393C40" stroke="none" stroke-linecap="round" d="M 135.3168 158.6222 L 128.4332 160.9293 L 128.9985 163.4395 L 135.0495 161.5544 L 135.3168 158.6222 Z " stroke-width="0.38104699715630636"/>
      <path id="ID0.7359844641759992" fill="#8A7B59" stroke="none" d="M 126.7944 159.8774 L 125.6888 159.9358 L 125.9748 165.3542 L 127.0803 165.2959 L 126.7944 159.8774 Z " stroke-width="0.38160280748875314"/>
      <path id="ID0.7359844641759992" fill="#8A7B59" stroke="none" d="M 128.1444 159.3274 L 127.0388 159.3858 L 127.3248 164.8042 L 128.4303 164.7459 L 128.1444 159.3274 Z " stroke-width="0.38160280748875314"/>
      <path id="ID0.7359844641759992" fill="#8A7B59" stroke="none" d="M 129.5944 158.7774 L 128.4888 158.8358 L 128.7748 164.2542 L 129.8803 164.1959 L 129.5944 158.7774 Z " stroke-width="0.38160280748875314"/>
      <path id="ID0.7359844641759992" fill="#8A7B59" stroke="none" d="M 125.3444 160.5274 L 124.2388 160.5858 L 124.5248 166.0042 L 125.6303 165.9459 L 125.3444 160.5274 Z " stroke-width="0.38160280748875314"/>
      <g id="ID0.1049797898158431">
        <path id="ID0.08871637750416994" fill="#8A7B59" stroke="none" stroke-linecap="round" d="M 135.4444 157.5749 L 130.5584 158.8024 L 130.8677 163.9642 L 135.569 162.7245 L 135.4444 157.5749 Z " stroke-width="0.4054529781612835"/>
        <path id="ID0.13805592898279428" fill="#76694C" stroke="none" stroke-linecap="round" d="M 135.7042 157.3747 L 130.5796 158.6148 L 130.6465 161.2774 L 135.7848 159.9486 L 135.7042 157.3747 Z " stroke-width="0.4054529781612835"/>
        <path id="ID0.3221200187690556" fill="#61563F" stroke="none" stroke-linecap="round" d="M 133.7238 159.493 L 133.0641 159.8626 L 133.0899 161.4875 L 133.8106 161.1386 L 133.7238 159.493 Z " stroke-width="0.44006482109231615"/>
        <path id="ID0.1420820001512766" fill="#BAA578" stroke="none" stroke-linecap="round" d="M 131.4644 163.1233 L 130.8442 161.834 L 130.92 163.9674 L 135.6981 162.7897 L 131.4644 163.1233 Z " stroke-width="0.4054529781612835"/>
      </g>
      <g id="ID0.6836685389280319">
        <path id="ID0.09357938077300787" fill="#857656" stroke="none" d="M 102.0201 161.0687 L 119.9695 160.1213 L 120.3083 166.5403 L 102.3589 167.4877 L 102.0201 161.0687 Z " stroke-width="0.4283320877076776"/>
        <path id="ID0.6492703901603818" fill="#7C6E50" stroke="none" stroke-linecap="round" d="M 102.8048 163.2202 L 111.17 165.8779 L 119.827 162.3217 L 120.0516 166.5773 L 103.0294 167.4757 L 102.8048 163.2202 Z " stroke-width="0.476142567912785"/>
        <g id="ID0.9254062357358634">
          <g id="ID0.49943465692922473">
            <path id="ID0.140373723115772" fill="#968561" stroke="none" d="M 118.3359 159.0445 L 123.4474 158.7748 L 123.9242 167.8089 L 118.8128 168.0787 L 118.3359 159.0445 Z " stroke-width="0.476142567912785"/>
            <path id="ID0.8286363878287375" fill="#BAA578" stroke="none" stroke-linecap="round" d="M 118.33 158.8459 L 123.5729 158.8076 L 119.4763 159.7867 L 118.567 161.9803 L 118.33 158.8459 Z " stroke-width="0.476142567912785"/>
            <path id="ID0.7362233307212591" fill="#8A7B59" stroke="none" stroke-linecap="round" d="M 118.675 164.9308 L 121.3878 164.8353 L 123.7085 162.2811 L 124.0034 167.868 L 118.8444 168.1403 L 118.675 164.9308 Z " stroke-width="0.476142567912785"/>
          </g>
          <g id="ID0.49943465692922473">
            <path id="ID0.140373723115772" fill="#968561" stroke="none" d="M 103.3055 160.0859 L 98.194 160.3557 L 98.6709 169.3899 L 103.7823 169.1201 L 103.3055 160.0859 Z " stroke-width="0.476142567912785"/>
            <path id="ID0.8286363878287375" fill="#BAA578" stroke="none" stroke-linecap="round" d="M 103.329 159.8674 L 98.1112 160.3812 L 102.288 160.9237 L 103.4233 163.0094 L 103.329 159.8674 Z " stroke-width="0.476142567912785"/>
            <path id="ID0.7362233307212591" fill="#8A7B59" stroke="none" stroke-linecap="round" d="M 103.6264 165.9548 L 100.9187 166.1454 L 98.342 163.8497 L 98.6369 169.4366 L 103.7958 169.1643 L 103.6264 165.9548 Z " stroke-width="0.476142567912785"/>
          </g>
        </g>
      </g>
    </g>
  </g>
  <g id="ID0.8333355090580881">
    <path id="ID0.9286923445761204" fill="#27282B" stroke="none" stroke-linecap="round" d="M 88.5955 45.0749 L 107.4608 45.1659 L 109.724 69.4199 L 125.4439 75.424 L 103.4846 88.4275 L 65.9993 78.6072 L 85.0467 66.5819 L 88.5955 45.0749 Z " stroke-width="0.4761425967667444"/>
    <path id="ID0.5448851804248989" fill="none" stroke="#1D1E1F" stroke-width="0.9522851935334888" stroke-linecap="round" d="M 86.0482 60.7312 L 85.2226 66.378 L 102.8469 72.958 L 109.4461 69.5359 "/>
    <path id="ID0.262191956397146" fill="none" stroke="#1D1E1F" stroke-width="0.9522851935334888" stroke-linecap="round" d="M 89.166 65.467 L 102.2992 70.7066 L 105.2086 69.3704 "/>
  </g>
  <g id="ID0.3450673264451325">
    <g id="ID0.9831569031812251">
      <path id="ID0.0877610077150166" fill="#2E3034" stroke="none" stroke-linecap="round" d="M 112.6294 13.7323 L 108.3589 0.5144 L 107.7051 29.0355 L 115.3745 29.2113 L 112.6294 13.7323 Z " stroke-width="0.5866066595958204"/>
      <path id="ID0.796130308881402" fill="#242628" stroke="none" stroke-linecap="round" d="M 112.9412 13.751 L 108.3151 0.525 L 111.5533 14.4408 L 112.1518 29.3458 L 115.3329 29.1235 L 112.9412 13.751 Z " stroke-width="0.5866066595958204"/>
    </g>
    <g id="ID0.9831569031812251">
      <path id="ID0.0877610077150166" fill="#2E3034" stroke="none" stroke-linecap="round" d="M 88.7654 13.3092 L 93.6371 0.3009 L 92.9833 28.822 L 85.314 28.6462 L 88.7654 13.3092 Z " stroke-width="0.5866066595958204"/>
      <path id="ID0.796130308881402" fill="#242628" stroke="none" stroke-linecap="round" d="M 88.3549 13.3345 L 93.5822 0.3342 L 89.7098 14.0871 L 88.2841 28.6177 L 85.2613 28.5812 L 88.3549 13.3345 Z " stroke-width="0.5866066595958204"/>
    </g>
    <path id="ID0.8999492498114705" fill="#2E3034" stroke="none" stroke-linecap="round" d="M 106.17 19.5579 C 110.5621 20.1377 115.2306 22.9559 117.2733 26.8866 C 119.604 31.3744 117.5284 36.9268 117.7136 41.9279 C 117.8477 43.6349 118.5999 45.4053 118.232 47.0215 C 117.4828 50.309 115.7399 53.2987 114.5854 56.4661 C 113.8289 58.5419 113.6205 60.8925 112.4082 62.7683 C 111.0411 64.9902 109.6269 68.0927 107.0175 68.4887 C 103.1491 69.0754 99.1159 67.1413 95.7074 65.3075 C 92.9074 63.8006 90.3053 61.5284 88.7949 58.7207 C 86.0939 53.5125 83.6633 47.7953 83.4126 41.9039 C 83.1349 35.3731 82.5498 27.2915 87.4104 22.685 C 91.7656 18.2423 99.6409 18.6988 106.17 19.5579 Z " stroke-width="0.5080373012402148"/>
    <path id="ID0.2441388238221407" fill="#AB8E85" stroke="none" d="M 103.2956 44.3585 C 107.3709 44.6189 112.8811 41.5797 115.5426 44.388 C 117.9377 47.0343 114.4591 51.8172 113.4089 55.2677 C 112.363 58.6995 111.5893 62.4214 109.2866 65.2226 C 108.1904 66.4662 105.964 66.4868 104.2401 66.1747 C 101.1403 65.6099 98.1087 64.2566 95.5559 62.4068 C 92.9141 60.4934 89.4138 58.3832 88.9164 55.1459 C 88.2869 51.0452 89.0747 45.6667 92.3315 43.165 C 95.3159 40.9836 99.6305 44.1237 103.2956 44.3585 Z " stroke-width="1.2558400359954982"/>
    <path id="ID0.46721756737679243" fill="#A2887F" stroke="none" stroke-linecap="round" d="M 88.6459 45.1589 L 90.3063 45.883 L 116.3197 46.0981 L 108.9911 51.0118 L 92.3121 48.1649 L 93.3748 50.5776 L 93.5001 56.1958 L 96.9668 63.4659 L 92.5488 56.6822 L 88.6459 45.1589 Z " stroke-width="0.5080373012402148"/>
    <path id="ID0.8256730306893587" fill="none" stroke="#937B73" stroke-width="1.0160746024804297" stroke-linecap="round" d="M 99.3309 57.145 C 99.3309 57.145 102.0431 56.6106 103.4122 56.4509 C 103.7546 56.411 104.0911 56.4964 104.4263 56.5504 C 104.767 56.6054 105.0923 56.7806 105.4374 56.7768 C 106.1216 56.7696 106.795 56.5879 107.476 56.5186 C 107.8137 56.4842 108.1544 56.4539 108.4936 56.4657 C 108.8333 56.4776 109.1777 56.5058 109.5071 56.5906 C 110.0486 56.7301 111.0953 57.1352 111.0953 57.1352 "/>
    <path id="ID0.7592270169407129" fill="none" stroke="#937B73" stroke-width="1.0160746024804297" stroke-linecap="round" d="M 107.8464 58.6929 C 107.8464 58.6929 107.2168 59.0235 106.872 59.0771 C 106.5375 59.1294 106.1949 58.9767 105.8574 59.0031 C 105.5178 59.0298 105.1999 59.1994 104.8612 59.2343 C 104.5245 59.2693 104.1733 59.2937 103.8454 59.211 C 103.5665 59.1406 103.0928 58.7872 103.0928 58.7872 "/>
    <path id="ID0.5332203092984855" fill="none" stroke="#937B73" stroke-width="1.0160746024804297" stroke-linecap="round" d="M 102.1231 49.1266 C 102.1231 49.1266 101.5078 49.5445 101.3946 49.8722 C 101.2473 50.3114 100.9735 51.1502 101.4087 51.4732 C 101.9826 51.7766 102.7576 51.0671 103.4491 51.1389 C 104.1182 51.2111 105.4183 51.6922 105.4183 51.6922 "/>
    <path id="ID0.2278452254831791" fill="none" stroke="#937B73" stroke-width="1.0160746024804297" stroke-linecap="round" d="M 106.5496 45.5693 C 106.5496 45.5693 107.4409 47.4527 107.8823 48.3948 C 108.03 48.7102 108.1937 49.0198 108.3178 49.3449 C 108.442 49.6699 108.6469 49.9957 108.6253 50.3428 C 108.6036 50.6909 108.39 51.0082 108.1968 51.2985 C 108.0679 51.4928 107.6779 51.7694 107.6779 51.7694 "/>
    <path id="ID0.6473136460408568" fill="none" stroke="#937B73" stroke-width="1.016074630935581" stroke-linecap="round" d="M 106.5162 62.4999 C 106.5162 62.4999 106.8183 63.1418 106.8613 63.4874 C 106.9027 63.824 106.8347 64.1701 106.7635 64.5017 C 106.6567 65.0013 106.3291 65.9733 106.3291 65.9733 "/>
    <path id="ID0.11669129692018032" fill="#2E3034" stroke="none" stroke-linecap="round" d="M 90.6982 39.8701 L 113.8941 42.1804 L 117.7692 44.9372 L 108.2653 49.4199 L 87.6264 46.4059 L 90.6982 39.8701 Z " stroke-width="0.5080373012402148"/>
    <path id="ID0.14635155349969864" fill="#2E3034" stroke="none" stroke-linecap="round" d="M 87.9112 45.0658 L 89.7563 45.4892 L 92.2781 50.7558 L 92.4507 56.5275 L 94.1918 60.3787 L 97.006 63.975 L 88.8973 58.5803 L 87.9112 45.0658 Z " stroke-width="0.5080373012402148"/>
    <path id="ID0.28340246016159654" fill="#1C1D1F" stroke="none" stroke-linecap="round" d="M 90.953 36.6711 L 94.3465 38.2886 L 103.9914 39.4011 L 103.8596 45.1516 L 96.9427 44.0477 L 93.1068 42.8792 L 91.1166 41.3209 L 90.2923 39.5732 L 90.953 36.6711 Z " stroke-width="0.5401026503554569"/>
    <path id="ID0.6101007834076881" fill="#FFFFFF" stroke="none" stroke-linecap="round" d="M 94.6902 39.3267 L 96.3333 39.7643 L 100.0847 41.0518 L 100.5842 43.032 L 95.3641 41.4591 L 94.6902 39.3267 Z " stroke-width="0.4061062003853421"/>
    <path id="ID0.28340246016159654" fill="#1C1D1F" stroke="none" stroke-linecap="round" d="M 116.4899 37.3284 L 113.4009 38.6306 L 104.7639 39.2275 L 104.6463 44.3555 L 110.8529 43.6547 L 114.3177 42.7706 L 116.1542 41.4638 L 116.9599 39.9406 L 116.4899 37.3284 Z " stroke-width="0.48162500024422156"/>
    <path id="ID0.6101007834076881" fill="#FFFFFF" stroke="none" stroke-linecap="round" d="M 114.7596 39.3346 L 113.2073 39.7905 L 109.6703 41.1058 L 109.2432 43.0014 L 114.1701 41.3791 L 114.7596 39.3346 Z " stroke-width="0.38638674653227917"/>
    <g id="ID0.07940126257017255">
      <path id="ID0.46257128613069654" fill="#27282B" stroke="none" stroke-linecap="round" d="M 104.1492 39.2916 L 108.2635 49.3461 L 98.2616 47.8464 L 104.1492 39.2916 Z " stroke-width="0.5080373012402148"/>
      <path id="ID0.9845890481956303" fill="#27282B" stroke="none" stroke-linecap="round" d="M 104.9624 39.4348 L 113.0724 46.9892 L 108.3415 49.4216 L 104.9624 39.4348 Z " stroke-width="0.5080373012402148"/>
    </g>
    <path id="ID0.20071752788498998" fill="#202324" stroke="none" d="M 95.8482 34.5227 L 99.9288 37.1825 L 104.6509 38.4596 L 104.6951 39.858 L 96.9533 38.4101 L 91.1152 35.9387 L 92.8828 34.2006 L 95.8482 34.5227 Z " stroke-width="0.5080373012402148"/>
    <path id="ID0.20071752788498998" fill="#202324" stroke="none" d="M 112.8533 34.6495 L 109.7451 37.0259 L 104.4671 38.4668 L 104.3678 39.7466 L 111.524 38.7451 L 116.999 36.8426 L 115.5126 34.5706 L 112.8533 34.6495 Z " stroke-width="0.46609799529578166"/>
    <path id="ID0.521138689480722" fill="none" stroke="#212325" stroke-width="0.9060627424092008" stroke-linecap="round" d="M 116.5937 37.064 L 113.319 38.5749 L 104.7531 39.6247 "/>
    <path id="ID0.17828734638169408" fill="none" stroke="#202324" stroke-width="1.0160746024804297" stroke-linecap="round" d="M 108.1765 48.8589 L 105.422 41.5543 C 104.4769 39.1127 104.6121 39.6845 104.4454 38.7115 C 104.3871 38.3718 104.6127 38.0405 104.6718 37.7004 C 104.7298 37.3653 104.8016 37.027 104.7967 36.6869 C 104.7919 36.3433 104.7005 36.0053 104.6422 35.667 C 104.5512 35.139 104.3482 34.085 104.3482 34.085 "/>
    <path id="ID0.521138689480722" fill="none" stroke="#212325" stroke-width="1.0160746024804297" stroke-linecap="round" d="M 91.2182 36.1871 L 94.8089 38.048 L 104.3509 39.6642 "/>
    <path id="ID0.8012696979567409" fill="none" stroke="url(#grad_1)" stroke-width="1.0160746024804297" stroke-linecap="round" d="M 116.3302 45.641 L 108.7744 49.3807 L 90.2386 46.6183 L 92.131 50.5237 L 92.296 56.6256 L 94.1434 60.2759 L 96.9552 63.9738 "/>
    <path id="ID0.043594349175691605" fill="#D7E2FD" stroke="none" stroke-linecap="round" d="M 99.812 42.0748 L 100.0662 40.9627 L 100.5269 43.0313 L 97.9535 42.2355 L 99.812 42.0748 Z " stroke-width="0.5080373012402148"/>
    <path id="ID0.043594349175691605" fill="#D7E2FD" stroke="none" stroke-linecap="round" d="M 109.9624 42.1476 L 109.7203 41.1391 L 109.322 43.0242 L 111.6535 42.2752 L 109.9624 42.1476 Z " stroke-width="0.46186428047362077"/>
  </g>
  <path id="ID0.7729651997797191" fill="#3E4246" stroke="none" stroke-linecap="round" d="M 65.7094 113.7831 L 72.2038 94.5452 L 98.1109 104.3198 L 119.0482 112.1048 L 127.1923 117.9729 L 131.8851 122.6223 L 123.5522 133.6818 L 113.888 132.909 L 83.5637 120.2251 L 65.7094 113.7831 Z " stroke-width="1.0990894926744006"/>
  <path id="ID0.9716172609478235" fill="#393C40" stroke="none" stroke-linecap="round" d="M 60.5507 110.4392 L 55.4913 108.4376 L 56.8845 101.7857 L 75.5522 110.1534 L 72.7613 113.3879 L 67.403 115.6654 L 60.5507 110.4392 Z " stroke-width="0.8164595751938352"/>
  <g id="ID0.38066427363082767">
    <path id="ID0.4757494777441025" fill="#1D1E1F" stroke="none" stroke-linecap="round" d="M 63.6054 79.3113 L 71.9955 76.5451 L 88.2615 80.2412 L 81.9408 106.2491 L 71.9797 111.9956 L 67.5473 113.3961 L 64.1672 111.2579 L 61.0995 108.4998 L 55.2089 106.3076 L 54.6881 100.8555 L 54.806 92.7305 L 57.3995 84.1845 L 63.6054 79.3113 Z " stroke-width="0.47614256704487584"/>
    <path id="ID0.6007084371522069" fill="none" stroke="#0D0D0D" stroke-width="0.9522851340897517" stroke-linecap="round" d="M 55.71 106.6288 L 60.9808 108.5085 L 65.5255 111.874 L 67.556 113.5149 L 71.9797 111.9956 L 76.2061 109.4166 "/>
  </g>
  <g id="ID0.7397577832452953">
    <path id="ID0.6726378230378032" fill="#393C40" stroke="none" stroke-linecap="round" d="M 129.163 131.637 L 113.9692 120.9627 L 115.0155 118.7722 L 129.7864 129.5671 L 129.163 131.637 Z " stroke-width="0.8164596436197838"/>
    <path id="ID0.6507829907350242" fill="#1D1E1F" stroke="none" stroke-linecap="round" d="M 132.5162 130.8061 L 114.678 118.7106 L 117.0275 99.8695 L 120.1446 89.5202 L 121.7954 73.4799 L 121.855 66.9198 L 134.0435 66.1223 L 133.5778 72.6406 L 134.4021 82.5747 L 135.97 95.2528 L 136.8153 104.9839 L 132.5162 130.8061 Z " stroke-width="0.8164596436197838"/>
    <path id="ID0.6829322893172503" fill="#1D1E1F" stroke="none" stroke-linecap="round" d="M 134.4078 66.5702 L 123.5302 70.5805 L 120.8457 64.764 L 117.3909 58.4578 L 117.976 52.7727 L 119.0657 48.1654 L 121.4096 45.3287 L 123.5205 38.7746 L 128.1696 39.4583 L 129.1789 41.6141 L 130.7823 41.9843 L 133.7593 44.9582 L 136.8976 48.3591 L 138.4683 53.035 L 136.9247 60.0579 L 134.4078 66.5702 Z " stroke-width="0.8164596436197838"/>
    <path id="ID0.47767175547778606" fill="none" stroke="#0D0D0D" stroke-width="1.6329192872395677" stroke-linecap="round" d="M 132.9216 126.8671 L 132.2194 130.8987 L 114.7593 118.719 L 116.5176 104.8237 "/>
    <path id="ID0.5922487881034613" fill="#282A2B" stroke="none" stroke-linecap="round" d="M 137.0155 97.0994 L 129.4134 101.9804 L 123.3305 101.2723 L 117.7682 94.7082 L 120.7233 79.9511 L 126.1665 72.9192 L 129.6182 73.2744 L 134.9572 81.2109 L 137.0155 97.0994 Z " stroke-width="0.8164596436197838"/>
    <path id="ID0.36820242274552584" fill="#151616" stroke="none" stroke-linecap="round" d="M 131.0507 93.6909 L 122.5958 92.9028 L 126.4545 81.7271 L 127.9487 81.9629 L 131.0507 93.6909 Z " stroke-width="0.8164596436197838"/>
    <path id="ID0.13569410238415003" fill="none" stroke="#232425" stroke-width="1.6329192872395677" stroke-linecap="round" d="M 132.862 82.7855 L 127.9124 75.0533 L 121.9622 81.8279 "/>
    <path id="ID0.024502143263816833" fill="none" stroke="#0D0D0D" stroke-width="1.6329192872395677" stroke-linecap="round" d="M 136.5004 97.2772 L 129.6628 101.9085 L 123.6276 101.5337 L 117.9841 94.9612 L 119.7552 86.5254 "/>
  </g>
</svg>