<svg xmlns="http://www.w3.org/2000/svg" xmlns:xlink="http://www.w3.org/1999/xlink" version="1.1" width="287.59635175714175" height="309.8953935051886" viewBox="-0.12119061474640591 0.6342716741101004 287.59635175714175 309.8953935051886">
  <!-- Exported by Scratch - http://scratch.mit.edu/ -->
  <g id="ID0.7085462282411754">
    <g id="ID0.5880346246995032">
      <path id="ID0.6829322893172503" fill="#796B5E" stroke="none" stroke-linecap="round" d="M 130.1319 167.4698 L 142.2724 167.6723 L 142.6208 174.4448 L 143.528 181.996 L 140.7472 187.3874 L 137.8949 191.521 L 134.5115 193.4257 L 129.9086 199.0913 L 125.6525 196.6366 L 125.5094 194.1209 L 124.0938 193.1415 L 122.355 189.0646 L 120.6255 184.5043 L 120.9168 179.2846 L 125.1502 172.9388 L 130.1319 167.4698 Z " stroke-width="0.860103544862228"/>
      <g id="ID0.9434720128774643">
        <path id="ID0.6507829907350242" fill="#2C3134" stroke="none" stroke-linecap="round" d="M 156.4109 103.5467 L 169.0563 122.3214 L 159.5634 137.654 L 152.3834 149.061 L 144.5376 164.2725 L 143.2999 171.979 L 128.416 167.2267 L 132.7506 160.5916 L 135.8134 150.464 L 139.2204 137.3414 L 144.9382 124.3937 L 156.4109 103.5467 Z " stroke-width="0.860103544862228"/>
        <path id="ID0.9892375003546476" fill="none" stroke="#191919" stroke-width="2.106910174198116" stroke-linecap="round" d="M 129.255 166.5927 L 143.1176 170.5038 L 144.934 161.2806 "/>
      </g>
    </g>
    <path id="ID0.7729651997797191" fill="#2C3134" stroke="none" stroke-linecap="round" d="M 171.1756 74.3075 L 194.9132 81.6749 L 185.4322 101.095 L 177.8482 110.3987 L 173.2499 119.1221 L 167.8254 126.8059 L 152.3254 117.8885 L 152.4022 110.3131 L 164.996 87.7251 L 171.1756 74.3075 Z " stroke-width="1.0101170654897502"/>
    <path id="ID0.4757494777441025" fill="#2C3134" stroke="none" stroke-linecap="round" d="M 187.9395 62.8165 L 197.3342 64.1661 L 211.286 75.4041 L 192.9526 97.1559 L 180.6404 97.8969 L 175.7057 97.1261 L 173.4512 93.4867 L 171.7897 89.4058 L 167.1389 84.5237 L 169.2016 79.0877 L 173.138 71.411 L 179.6604 64.5087 L 187.9395 62.8165 Z " stroke-width="0.5087011852918293"/>
  </g>
  <g id="ID0.6688785348087549">
    <path id="ID0.5368814701214433" fill="#343434" stroke="none" stroke-linecap="round" d="M 129.1344 189.1565 L 130.4465 179.0247 L 130.3613 167.7197 L 117.6848 168.8196 L 102.8871 171.0743 L 80.6565 173.0875 L 76.5046 179.0476 L 100.4722 191.8966 L 123.3027 198.3015 L 129.1344 189.1565 Z " stroke-width="0.8471283342911995"/>
    <g id="ID0.5077062323689461">
      <path id="ID0.05466862628236413" fill="#252525" stroke="none" stroke-linecap="round" d="M 162.2265 116.796 L 142.2834 103.1818 L 137.0643 118.5835 L 135.4309 123.9127 L 128.5882 138.2992 L 110.3822 170.136 L 130.168 182.9321 L 140.3613 164.9467 L 145.9984 159.0224 L 150.8142 151.9016 L 154.4792 140.1161 L 159.3606 130.1175 L 162.2265 116.796 Z " stroke-width="0.6597530586189023"/>
      <path id="ID0.5319394422695041" fill="none" stroke="#131313" stroke-width="2.1997146171461615" stroke-linecap="round" d="M 110.9834 169.431 L 130.1938 183.4512 L 136.6246 172.5043 "/>
    </g>
  </g>
  <g id="ID0.8820344842970371">
    <path id="ID0.3809091211296618" fill="#252525" stroke="none" stroke-linecap="round" d="M 187.4354 185.7958 L 227.0918 175.5549 L 208.8589 156.0727 L 173.4927 115.9334 L 164.6051 108.1135 L 152.6133 102.6767 L 148.1699 110.7552 L 137.2663 120.0338 L 154.0043 137.1585 L 163.2184 148.6837 L 187.4354 185.7958 Z " stroke-width="0.8035436656303547"/>
    <path id="ID0.9495224836282432" fill="none" stroke="#131313" stroke-width="2.1997147267116404" stroke-linecap="round" d="M 173.3125 115.8414 L 166.5777 109.3573 L 158.7135 104.8393 L 148.664 108.1413 L 143.9395 105.1194 "/>
  </g>
  <g id="ID0.7085462282411754">
    <g id="ID0.5880346246995032">
      <path id="ID0.6829322893172503" fill="#796B5E" stroke="none" stroke-linecap="round" d="M 281.4109 186.4286 L 269.8402 182.7474 L 267.3494 189.0549 L 264.0806 195.9221 L 264.9961 201.9189 L 266.3806 206.7464 L 268.9796 209.631 L 271.5345 216.469 L 276.3514 215.5003 L 277.2895 213.1618 L 278.9436 212.6851 L 281.8921 209.376 L 284.9861 205.6057 L 286.3753 200.5658 L 284.3875 193.201 L 281.4109 186.4286 Z " stroke-width="0.860103543738539"/>
      <g id="ID0.9434720128774643">
        <path id="ID0.6507829907350242" fill="#2C3134" stroke="none" stroke-linecap="round" d="M 276.8437 117.4239 L 258.8696 131.1834 L 262.975 148.7432 L 266.1407 161.8448 L 268.7238 178.7644 L 267.4383 186.4631 L 283.0605 186.7074 L 281.0691 179.0362 L 281.3974 168.4607 L 282.3548 154.9369 L 281.0663 140.8416 L 276.8437 117.4239 Z " stroke-width="0.860103543738539"/>
        <path id="ID0.9892375003546476" fill="none" stroke="#191919" stroke-width="2.106910173892899" stroke-linecap="round" d="M 282.3832 185.9734 L 267.9973 185.2577 L 269.2182 175.937 "/>
      </g>
    </g>
    <path id="ID0.7729651997797191" fill="#2C3134" stroke="none" stroke-linecap="round" d="M 272.2088 84.9801 L 247.3612 84.3897 L 250.1514 105.8196 L 254.3709 117.0567 L 255.9461 126.7913 L 258.6358 135.804 L 276.1707 132.2974 L 278.5147 125.0933 L 273.7849 99.668 L 272.2088 84.9801 Z " stroke-width="1.0101169804377628"/>
    <path id="ID0.4757494777441025" fill="#2C3134" stroke="none" stroke-linecap="round" d="M 260.0105 68.719 L 250.6761 67.001 L 233.8681 73.2008 L 244.3043 99.6648 L 255.7368 104.295 L 260.6595 105.1386 L 263.9572 102.4087 L 266.8338 99.0711 L 272.7992 95.9278 L 272.5784 90.1178 L 271.2967 81.5865 L 267.3171 72.964 L 260.0105 68.719 Z " stroke-width="0.508701167313651"/>
  </g>
  <g id="ID0.8990198895335197">
    <path id="ID0.17576928716152906" fill="#DBDBDB" stroke="none" d="M 220.973 60.517 L 221.2338 60.5334 L 221.2338 60.5334 L 220.973 60.517 L 220.973 60.517 Z " stroke-width="1.0534572489367935"/>
    <path id="ID0.4270821204409003" fill="#252525" stroke="none" stroke-linecap="round" d="M 214.9153 189.9953 L 222.6676 70.5475 L 204.3974 72.04 L 196.9952 76.2856 L 193.8305 80.4542 L 185.9845 92.2698 L 186.2619 103.4109 L 187.0115 109.2598 L 184.9622 116.5101 L 184.22 122.297 L 186.149 129.7126 L 187.6054 135.3379 L 188.4333 145.2371 L 185.8872 168.4024 L 190.8905 177.3368 L 195.6102 184.1347 L 214.9153 189.9953 Z " stroke-width="0.501595785399862"/>
    <path id="ID0.4270821204409003" fill="#252525" stroke="none" stroke-linecap="round" d="M 214.9446 190.0375 L 222.1667 70.5565 L 240.1077 74.3184 L 246.9219 79.455 L 249.5413 83.9862 L 255.8507 96.6889 L 254.1844 107.7082 L 252.7104 113.4177 L 253.8384 120.8672 L 253.8522 126.7015 L 251.0125 133.8181 L 248.8651 139.2176 L 246.8077 148.936 L 246.4415 172.2379 L 240.3619 180.4777 L 243.3692 198.0518 L 214.9446 190.0375 Z " stroke-width="0.5015958026200296"/>
    <path id="ID0.5114514343440533" fill="#282828" stroke="none" d="M 249.5709 73.5332 L 194.2795 70.0679 L 188.4195 163.5681 L 243.7109 167.0334 L 249.5709 73.5332 Z " stroke-width="1.0624883561200273"/>
    <path id="ID0.9286923445761204" fill="#D4D4D4" stroke="none" stroke-linecap="round" d="M 233.7187 57.9846 L 216.9316 37.0036 L 223.1041 57.4713 L 219.1004 100.2686 L 260.6182 71.9772 L 240.3243 59.2089 L 233.7187 57.9846 Z " stroke-width="0.5015958626722967"/>
    <path id="ID0.9286923445761204" fill="#D4D4D4" stroke="none" stroke-linecap="round" d="M 216.8181 55.7686 L 232.3524 38.2567 L 223.6727 57.7935 L 219.7503 100.0895 L 184.641 67.5021 L 206.0642 56.2847 L 216.8181 55.7686 Z " stroke-width="0.5015958626722967"/>
    <path id="ID0.39874776685610414" fill="#1F2022" stroke="none" stroke-linecap="round" d="M 242.2854 60.2244 L 220.9013 69.3833 L 202.8558 58.7209 L 198.5376 60.7243 L 220.8543 73.3961 L 246.0772 62.5425 L 242.2854 60.2244 Z " stroke-width="0.9935621547785666"/>
    <path id="ID0.13444371055811644" fill="#1F1F1F" stroke="none" stroke-linecap="round" d="M 223.1845 71.5061 L 217.7241 70.898 L 212.9106 100.9104 L 225.4484 102.2281 L 223.1845 71.5061 Z " stroke-width="1.0534572489367935"/>
    <path id="ID0.751046194229275" fill="#191919" stroke="none" stroke-linecap="round" d="M 225.9643 66.4048 L 221.2224 63.943 L 216.3822 65.8042 L 215.3937 74.2249 L 219.9182 75.5615 L 225.4348 74.8542 L 225.9643 66.4048 Z " stroke-width="1.1588030157999438"/>
    <path id="ID0.7854711129330099" fill="#282828" stroke="none" stroke-linecap="round" d="M 233.8583 89.9489 L 218.672 98.3041 L 204.9749 87.0751 L 205.8994 105.7469 L 230.1545 107.2671 L 233.8583 89.9489 Z " stroke-width="1.0534572489367935"/>
    <path id="ID0.562834897544235" fill="#282828" stroke="none" stroke-linecap="round" d="M 246.5847 166.7978 L 215.4087 158.7279 L 214.064 180.1826 L 228.3255 182.406 L 246.5847 166.7978 Z " stroke-width="1.0534572489367935"/>
    <path id="ID0.562834897544235" fill="#282828" stroke="none" stroke-linecap="round" d="M 183.1754 163.2029 L 215.1151 159.0886 L 213.7704 180.5434 L 199.343 180.9687 L 183.1754 163.2029 Z " stroke-width="1.0534572489367935"/>
    <path id="ID0.6824178956449032" fill="none" stroke="#191919" stroke-width="2.106914497873587" stroke-linecap="round" d="M 218.927 98.6517 L 214.0914 179.9841 "/>
    <path id="ID0.4144489667378366" fill="#40474C" stroke="none" stroke-linecap="round" d="M 261.3667 68.8044 L 240.7725 59.0045 L 242.4579 82.2446 L 235.0833 145.6016 L 242.0225 193.635 L 253.8301 189.0568 L 253.8585 192.7813 L 253.9161 141.7296 L 261.7434 96.2171 L 263.8656 79.0658 L 261.3667 68.8044 Z " stroke-width="1.0534572489367935"/>
    <path id="ID0.5234400681219995" fill="#101010" stroke="none" d="M 216.2278 104.3767 C 215.7973 104.3497 215.3958 104.5028 215.0952 104.7721 C 214.7946 105.0414 214.5949 105.4269 214.5675 105.8641 C 214.5401 106.3013 214.6901 106.7087 214.9547 107.0135 C 215.2194 107.3182 215.5986 107.5202 216.0291 107.5472 C 216.4596 107.5742 216.8611 107.4211 217.1617 107.1518 C 217.4623 106.8825 217.662 106.4969 217.6894 106.0598 C 217.7168 105.6226 217.5668 105.2151 217.3022 104.9104 C 217.0376 104.6057 216.6583 104.4036 216.2278 104.3767 Z " stroke-width="0.6636780913406511"/>
    <path id="ID0.5234400681219995" fill="#101010" stroke="none" d="M 215.2778 118.7767 C 214.8473 118.7497 214.4458 118.9028 214.1452 119.1721 C 213.8446 119.4414 213.6449 119.8269 213.6175 120.2641 C 213.5901 120.7013 213.7401 121.1087 214.0047 121.4135 C 214.2694 121.7182 214.6486 121.9202 215.0791 121.9472 C 215.5096 121.9742 215.9111 121.8211 216.2117 121.5518 C 216.5123 121.2825 216.712 120.8969 216.7394 120.4598 C 216.7668 120.0226 216.6168 119.6151 216.3522 119.3104 C 216.0876 119.0057 215.7083 118.8036 215.2778 118.7767 Z " stroke-width="0.6636780913406511"/>
    <path id="ID0.5234400681219995" fill="#101010" stroke="none" d="M 213.1778 152.2267 C 212.7473 152.1997 212.3458 152.3528 212.0452 152.6221 C 211.7446 152.8914 211.5449 153.2769 211.5175 153.7141 C 211.4901 154.1513 211.6401 154.5587 211.9047 154.8635 C 212.1694 155.1682 212.5486 155.3702 212.9791 155.3972 C 213.4096 155.4242 213.8111 155.2711 214.1117 155.0018 C 214.4123 154.7325 214.612 154.3469 214.6394 153.9098 C 214.6668 153.4726 214.5168 153.0651 214.2522 152.7604 C 213.9876 152.4557 213.6083 152.2536 213.1778 152.2267 Z " stroke-width="0.6636780913406511"/>
    <path id="ID0.5234400681219995" fill="#101010" stroke="none" d="M 214.2278 136.4767 C 213.7973 136.4497 213.3958 136.6028 213.0952 136.8721 C 212.7946 137.1414 212.5949 137.5269 212.5675 137.9641 C 212.5401 138.4013 212.6901 138.8087 212.9547 139.1135 C 213.2194 139.4182 213.5986 139.6202 214.0291 139.6472 C 214.4596 139.6742 214.8611 139.5211 215.1617 139.2518 C 215.4623 138.9825 215.662 138.5969 215.6894 138.1598 C 215.7168 137.7226 215.5668 137.3151 215.3022 137.0104 C 215.0376 136.7057 214.6583 136.5036 214.2278 136.4767 Z " stroke-width="0.6636780913406511"/>
    <path id="ID0.5234400681219995" fill="#101010" stroke="none" d="M 212.4278 167.0767 C 211.9973 167.0497 211.5958 167.2028 211.2952 167.4721 C 210.9946 167.7414 210.7949 168.1269 210.7675 168.5641 C 210.7401 169.0013 210.8901 169.4087 211.1547 169.7135 C 211.4194 170.0182 211.7986 170.2202 212.2291 170.2472 C 212.6596 170.2742 213.0611 170.1211 213.3617 169.8518 C 213.6623 169.5825 213.862 169.1969 213.8894 168.7598 C 213.9168 168.3226 213.7668 167.9151 213.5022 167.6104 C 213.2376 167.3057 212.8583 167.1036 212.4278 167.0767 Z " stroke-width="0.6636780913406511"/>
    <path id="ID0.4144489667378366" fill="#40474C" stroke="none" stroke-linecap="round" d="M 184.8941 63.1807 L 206.5508 56.0288 L 201.9769 78.8766 L 201.3833 142.6586 L 188.5011 189.4497 L 177.3575 183.4331 L 176.8643 187.1249 L 183.1813 136.4655 L 181.0978 90.3319 L 181.1336 73.0498 L 184.8941 63.1807 Z " stroke-width="1.0534572489367935"/>
    <path id="ID0.8752945330925286" fill="none" stroke="#222222" stroke-width="2.106914497873587" stroke-linecap="round" d="M 260.8285 69.0366 L 263.7044 77.4602 L 257.8072 117.2435 "/>
    <path id="ID0.8752945330925286" fill="none" stroke="#222222" stroke-width="2.106914497873587" stroke-linecap="round" d="M 184.6991 63.7783 L 180.794 71.7769 L 181.6779 111.9852 "/>
    <path id="ID0.5234400681219995" fill="#101010" stroke="none" d="M 237.2778 154.3767 C 236.8473 154.3497 236.4458 154.5028 236.1452 154.7721 C 235.8446 155.0414 235.6449 155.4269 235.6175 155.8641 C 235.5901 156.3013 235.7401 156.7087 236.0047 157.0135 C 236.2694 157.3182 236.6486 157.5202 237.0791 157.5472 C 237.5096 157.5742 237.9111 157.4211 238.2117 157.1518 C 238.5123 156.8825 238.712 156.4969 238.7394 156.0598 C 238.7668 155.6226 238.6168 155.2151 238.3522 154.9104 C 238.0876 154.6057 237.7083 154.4036 237.2778 154.3767 Z " stroke-width="0.6636780913406511"/>
    <path id="ID0.5234400681219995" fill="#101010" stroke="none" d="M 238.2778 162.1767 C 237.8473 162.1497 237.4458 162.3028 237.1452 162.5721 C 236.8446 162.8414 236.6449 163.2269 236.6175 163.6641 C 236.5901 164.1013 236.7401 164.5087 237.0047 164.8135 C 237.2694 165.1182 237.6486 165.3202 238.0791 165.3472 C 238.5096 165.3742 238.9111 165.2211 239.2117 164.9518 C 239.5123 164.6825 239.712 164.2969 239.7394 163.8598 C 239.7668 163.4226 239.6168 163.0151 239.3522 162.7104 C 239.0876 162.4057 238.7083 162.2036 238.2778 162.1767 Z " stroke-width="0.6636780913406511"/>
    <g id="ID0.20783481979742646">
      <path id="ID0.5848579816520214" fill="#737373" stroke="none" stroke-linecap="round" d="M 193.8452 93.9544 L 186.7986 91.9173 L 186.644 96.0558 L 194.1742 97.0596 L 193.8452 93.9544 Z " stroke-width="1.0534572489367935"/>
      <path id="ID0.13105127029120922" fill="none" stroke="#222222" stroke-width="2.106914497873587" stroke-linecap="round" d="M 195.566 97.4128 L 190.8715 97.1185 L 185.4941 95.186 "/>
    </g>
  </g>
  <path id="ID0.46110434643924236" fill="#675B50" stroke="none" stroke-linecap="round" d="M 236.3963 38.4698 L 212.8039 36.9911 L 211.0579 57.038 L 217.3307 60.4625 L 235.0617 59.7656 L 236.3963 38.4698 Z " stroke-width="1.144406894210797"/>
  <g id="ID0.9597035455517471">
    <path id="ID0.5368814701214433" fill="#404040" stroke="none" stroke-linecap="round" d="M 142.4634 215.0959 L 143.6057 204.9436 L 143.3314 193.6416 L 130.675 194.9535 L 115.9171 197.4555 L 93.7233 199.8405 L 89.6718 205.8693 L 113.8511 218.3153 L 136.7855 224.3373 L 142.4634 215.0959 Z " stroke-width="0.8471282696657984"/>
    <g id="ID0.5077062323689461">
      <path id="ID0.05466862628236413" fill="#252525" stroke="none" stroke-linecap="round" d="M 173.42 141.0035 L 152.9187 128.2455 L 148.356 143.8542 L 146.9496 149.2478 L 140.7219 163.911 L 123.8794 196.4896 L 144.1889 208.437 L 153.612 190.0363 L 158.9933 183.8789 L 163.5036 176.5606 L 166.6666 164.6306 L 171.1205 154.4343 L 173.42 141.0035 Z " stroke-width="0.6597530406986021"/>
      <path id="ID0.5319394422695041" fill="none" stroke="#131313" stroke-width="2.1997147942511126" stroke-linecap="round" d="M 124.5151 195.7528 L 144.3015 208.9475 L 150.2634 197.7383 "/>
    </g>
  </g>
  <g id="ID0.8820344842970371">
    <path id="ID0.3809091211296618" fill="#252525" stroke="none" stroke-linecap="round" d="M 212.2891 209.2892 L 245.5137 199.2758 L 226.3812 180.6763 L 189.1592 142.2516 L 179.9123 134.86 L 167.6772 129.9955 L 163.6202 138.2748 L 151.6897 147.4703 L 168.558 166.6012 L 178.203 177.2887 L 212.2891 209.2892 Z " stroke-width="0.8035436602052097"/>
    <path id="ID0.9495224836282432" fill="none" stroke="#131313" stroke-width="2.1997145314683637" stroke-linecap="round" d="M 188.913 142.3313 L 181.8797 136.1724 L 173.8109 132.0308 L 163.9285 135.8036 L 159.0666 133.0082 "/>
  </g>
  <path id="ID0.7592270169407129" fill="none" stroke="#675B50" stroke-width="1.0984285708558985" stroke-linecap="round" d="M 214.3661 52.952 C 214.3661 52.952 214.2379 53.7051 214.2994 54.075 C 214.3588 54.4341 214.6328 54.7329 214.7201 55.0863 C 214.8076 55.442 214.7402 55.8232 214.819 56.1807 C 214.897 56.5362 214.9909 56.9029 215.1876 57.2101 C 215.355 57.4714 215.8809 57.8372 215.8809 57.8372 "/>
  <path id="ID0.48112139804288745" fill="#3A3A3A" stroke="#3A3A3A" stroke-width="2.036267611444136" stroke-linecap="round" d="M 200.8784 13.4813 C 200.237 13.8634 200.933 15.3196 200.6885 16.1675 C 200.4921 16.8484 199.8304 17.3656 199.7103 18.0637 C 199.5957 18.7334 199.8667 19.4179 200.0163 20.08 C 200.4376 21.9488 200.4539 24.4377 201.4402 25.8635 C 201.8335 26.3516 202.3967 24.5446 202.7756 23.9079 C 203.5507 22.6299 204.3796 21.2939 204.8817 19.96 C 205.1212 19.3236 205.0442 18.6091 205.0879 17.931 C 205.1307 17.258 205.4413 16.5107 205.1404 15.9059 C 204.8352 15.2921 204.0692 15.0256 203.4703 14.6822 C 202.6896 14.235 201.6279 13.1207 200.8784 13.4813 Z "/>
  <path id="ID0.05099705280736089" fill="#1C1916" stroke="#1C1916" stroke-width="2.1621458206811037" stroke-linecap="round" d="M 238.2317 32.0795 C 238.5796 32.2439 238.156 33.5115 238.0154 34.3412 C 237.8947 35.0512 237.4807 35.6932 237.0843 36.2983 C 236.6868 36.9044 236.1598 37.4224 235.6557 37.9453 C 235.1517 38.4681 234.592 38.9386 234.0601 39.4352 C 233.5282 39.9318 233.1952 40.9447 232.4645 40.9251 C 231.7337 40.9056 231.1044 40.0572 230.9564 39.3506 C 230.6616 37.9439 230.7893 36.415 231.2311 35.0459 C 231.4535 34.3581 232.2444 33.9937 232.8267 33.556 C 233.408 33.1194 234.014 32.6735 234.7035 32.4352 C 235.7103 32.0869 236.9237 31.2909 237.8444 31.8204 Z "/>
  <path id="ID0.8999492498114705" fill="#796B5E" stroke="none" stroke-linecap="round" d="M 213.172 3.6852 C 208.3947 4.3179 203.32 7.3554 201.1039 11.5822 C 198.5752 16.408 200.4185 22.3628 200.6485 27.74 C 200.7504 30.0995 201.6181 32.5045 202.2339 34.8518 C 203.1096 38.1868 204.1425 41.3743 205.0449 44.5809 C 205.5773 46.5291 205.2986 48.8778 206.5414 50.3303 C 208.5186 52.6402 211.158 54.9889 214.1853 55.382 C 217.6836 55.8356 221.0454 53.7427 224.4001 52.5916 C 226.0807 51.9557 228.1176 51.5091 229.2303 50.0432 C 231.6146 46.8964 232.7723 42.9277 234.19 39.3035 C 235.6785 35.4991 238.0112 31.7629 237.9658 27.6378 C 237.8876 20.617 238.8815 11.9398 233.5863 7.0025 C 228.8411 2.2401 220.2739 2.7479 213.172 3.6852 Z " stroke-width="0.5492253720982756"/>
  <path id="ID0.8194515448994935" fill="#796B5E" stroke="none" stroke-linecap="round" d="M 237.7737 23.2358 C 236.8472 23.3522 236.1901 23.9798 235.6667 25.1306 C 235.1434 26.2814 234.8406 27.8597 234.8834 29.5929 C 234.9262 31.3261 235.3064 32.8876 235.8859 34.0111 C 236.4654 35.1347 237.153 35.7001 238.0838 35.7996 C 238.9381 35.8892 240.0209 35.4015 240.3956 34.6681 C 241.0944 33.0413 240.9168 31.1363 240.9741 29.4426 C 241.0309 27.7779 241.3774 25.9406 240.6877 24.4533 C 240.1441 23.5491 238.7447 23.1141 237.7737 23.2358 Z " stroke-width="1.0810729103405519"/>
  <path id="ID0.7592270169407129" fill="none" stroke="#675B50" stroke-width="1.0984507441965512" stroke-linecap="round" d="M 217.2838 46.8759 C 217.2838 46.8759 216.6166 47.263 216.2447 47.3382 C 215.8839 47.4115 215.5037 47.2653 215.1383 47.3109 C 214.7707 47.3571 214.4339 47.5554 214.0676 47.6103 C 213.7035 47.6651 213.3231 47.7095 212.9625 47.6376 C 212.6558 47.5764 212.1229 47.2216 212.1229 47.2216 "/>
  <path id="ID0.7788236327469349" fill="#FFFFFF" stroke="none" stroke-linecap="round" d="M 225.3759 25.2452 L 223.9023 25.0667 L 221.4486 24.8586 L 219.1128 25.0237 L 218.8462 27.4479 L 221.6355 28.0237 L 227.0564 27.1915 L 225.3759 25.2452 Z " stroke-width="1.0810729103405519"/>
  <path id="ID0.7788236327469349" fill="#FFFFFF" stroke="none" stroke-linecap="round" d="M 204.9622 25.9922 L 206.7966 25.3559 L 208.9175 25.3036 L 211.2585 25.3532 L 211.6444 27.7613 L 208.8869 28.474 L 203.8176 28.1156 L 204.9622 25.9922 Z " stroke-width="1.0810729103405519"/>
  <path id="ID0.2118154256604612" fill="#1C1916" stroke="#1C1916" stroke-width="2.1621458206811037" stroke-linecap="round" d="M 238.6784 20.8661 C 238.7225 21.4184 238.5001 23.9167 237.7008 25.3494 C 237.4059 25.8778 237.0828 23.9871 236.726 23.3319 C 236.3805 22.6968 235.9234 22.1214 235.592 21.4796 C 235.2377 20.7931 234.9446 20.074 234.6689 19.3534 C 234.4013 18.6551 234.1812 17.9364 233.9633 17.2218 C 233.7478 16.5159 233.6392 15.7739 233.3665 15.0876 C 233.0949 14.4023 232.6984 13.7696 232.3386 13.1252 C 231.9777 12.4808 231.7881 11.6764 231.2033 11.2191 C 230.6018 10.7483 229.7757 10.5689 229.0095 10.5211 C 228.2749 10.4759 227.5649 10.8104 226.8435 10.9507 C 226.0864 11.0972 225.3198 11.2096 224.5688 11.3829 C 223.8416 11.5502 223.1173 11.7475 222.4068 11.9735 C 221.7147 12.1936 221.0415 12.4789 220.3576 12.7225 C 219.6413 12.9776 218.9031 13.1839 218.1996 13.4742 C 217.5187 13.7553 216.9083 14.2023 216.21 14.4366 C 215.5138 14.6697 214.7648 15.0127 214.0441 14.8661 C 213.32 14.7185 212.8327 14.0257 212.2177 13.6218 C 211.5982 13.2159 211.0109 12.7447 210.3383 12.4325 C 209.6799 12.1275 208.9715 11.9075 208.2546 11.7855 C 207.0393 11.5802 205.6355 11.1872 204.3299 11.5063 C 203.0794 11.8144 201.6671 14.0283 200.9529 13.5775 C 200.2751 13.1451 201.2453 10.9636 201.782 9.6889 C 202.3618 8.3143 203.2723 7.0615 204.3021 5.9734 C 205.2949 4.925 206.4529 3.9594 207.7746 3.3627 C 209.1156 2.7569 210.6506 2.69 212.1052 2.45 C 212.8205 2.3313 213.5573 2.3776 214.2778 2.2889 C 215.0047 2.199 215.714 1.9676 216.4451 1.9131 C 217.8898 1.8054 219.357 1.637 220.7955 1.8057 C 222.293 1.9804 223.7137 2.575 225.1765 2.9332 C 225.9013 3.1109 226.6471 3.2117 227.365 3.4164 C 228.7843 3.8219 230.2022 4.2565 231.5881 4.7628 C 232.2722 5.0123 233.0119 5.2176 233.5696 5.6809 C 234.1585 6.1692 234.4269 6.947 234.9211 7.5279 C 235.3997 8.0898 236.0788 8.4857 236.4836 9.101 C 236.9042 9.7418 237.1285 10.497 237.3523 11.2285 C 237.5642 11.9239 237.7039 12.6446 237.7859 13.3668 C 237.8666 14.0772 237.7312 14.8069 237.839 15.5145 C 237.9495 16.2435 238.2397 16.9369 238.4358 17.6487 C 238.5971 18.2346 238.9725 18.8056 238.9145 19.4098 Z "/>
  <path id="ID0.5261953212320805" fill="none" stroke="#1C1916" stroke-width="2.162145929832086" stroke-linecap="round" d="M 227.7151 23.3785 C 227.7151 23.3785 226.9829 21.9822 226.3705 21.5207 C 225.7847 21.0788 225.0116 20.9128 224.2862 20.7918 C 223.5607 20.6708 222.8126 20.8509 222.0781 20.8046 C 220.7019 20.7165 217.956 20.3891 217.956 20.3891 "/>
  <path id="ID0.5261953212320805" fill="none" stroke="#1C1916" stroke-width="2.162145850082981" stroke-linecap="round" d="M 202.1786 23.7582 C 202.1786 23.7582 202.8132 22.315 203.3924 21.8125 C 203.9466 21.3315 204.7064 21.1128 205.4219 20.9423 C 206.1373 20.7717 206.896 20.9001 207.6256 20.8035 C 208.9925 20.6212 211.7094 20.1061 211.7094 20.1061 "/>
  <path id="ID0.8619630038738251" fill="none" stroke="#675B50" stroke-width="1.2706583598899421" stroke-linecap="round" d="M 214.6734 26.4697 C 214.6734 26.4697 214.3825 29.5855 214.2438 31.0899 C 214.1636 31.9349 214.3582 32.876 213.9545 33.6229 C 213.4613 34.4717 212.2476 34.4821 211.9801 35.2502 C 211.6136 36.0555 211.5273 37.5315 212.2972 37.7367 C 213.4677 38.0481 214.5042 36.5639 215.7823 36.4193 C 216.4686 36.3424 217.6889 37.2247 217.6889 37.2247 "/>
  <path id="ID0.6736386958509684" fill="none" stroke="#675B50" stroke-width="1.3553751928004736" stroke-linecap="round" d="M 228.4075 33.9564 C 228.4075 33.9564 227.8404 34.7787 227.5162 35.1572 C 227.2205 35.5026 226.8522 35.7831 226.5509 36.124 C 226.2429 36.4724 225.8992 36.8089 225.6911 37.2229 C 225.4797 37.6423 225.3194 38.111 225.3153 38.5793 C 225.3047 39.837 225.6469 42.343 225.6469 42.343 "/>
  <path id="ID0.18298013787716627" fill="#1C1916" stroke="#1C1916" stroke-width="2.1621458206811037" stroke-linecap="round" d="M 227.9372 10.1463 C 228.4049 10.354 228.946 11.3356 228.8059 12.2738 C 228.5835 13.7567 227.2484 15.3498 227.5524 16.6027 C 227.7026 17.219 229.0411 16.3328 229.7144 16.0121 C 230.3705 15.6993 230.9051 15.1779 231.4785 14.7329 C 232.0968 14.2535 232.9289 13.9267 233.2917 13.2376 C 233.6275 12.6007 233.6901 11.7439 233.4018 11.0859 C 233.1123 10.4237 232.389 9.9978 231.7346 9.6765 C 231.0659 9.3481 230.2909 9.2523 229.5461 9.1933 C 229.231 9.1688 228.7 9.1271 228.6269 9.4309 Z "/>
  <path id="ID0.7592270169407129" fill="none" stroke="#675B50" stroke-width="1.0984448265554656" stroke-linecap="round" d="M 214.0715 19.1724 C 214.0715 19.1724 213.8469 19.9035 213.86 20.278 C 213.8725 20.6416 214.1057 20.972 214.1465 21.3334 C 214.1873 21.697 214.0711 22.0668 214.103 22.4312 C 214.1344 22.7934 214.18 23.1689 214.3354 23.498 C 214.4676 23.778 214.942 24.2061 214.942 24.2061 "/>
  <path id="ID0.48112139804288745" fill="#3A3A3A" stroke="#3A3A3A" stroke-width="2.036267611444136" stroke-linecap="round" d="M 237.8766 13.9233 C 238.5361 14.2734 237.9128 15.7621 238.1989 16.597 C 238.4286 17.2673 239.1149 17.7513 239.2693 18.4426 C 239.4169 19.1059 239.1799 19.8028 239.0632 20.4716 C 238.7346 22.3588 238.8411 24.8455 237.9263 26.3182 C 237.5576 26.8252 236.9059 25.0481 236.4961 24.4308 C 235.6589 23.1927 234.7651 21.8992 234.1978 20.5917 C 233.9272 19.9679 233.9689 19.2504 233.8918 18.5754 C 233.8158 17.9053 233.4688 17.1742 233.7394 16.5553 C 234.014 15.9272 234.7659 15.6232 235.3471 15.2507 C 236.1048 14.7655 237.1102 13.6002 237.8766 13.9233 Z "/>
  <path id="ID0.7766774026677012" fill="#0D0D0D" stroke="#0D0D0D" stroke-width="1.8086520039145781" stroke-linecap="round" d="M 1 194.2018 C 1.718 167.513 0.989 139.7886 12 114.2773 C 16.164 104.6321 31.459 100.1874 43.5 96.7377 C 48.996 95.1655 54.566 99.1119 60 100.5247 C 61.543 100.9225 62.688 101.7572 64 102.3185 C 65.857 102.9539 67.811 103.4362 69.5 104.1123 C 70.098 104.3531 70.7 104.5907 71.25 104.9096 C 71.9 105.1886 72.4 105.5872 73 105.9061 C 74.25 106.5041 75.5 107.1419 76.75 107.6999 C 78 108.1783 79.3 108.5769 80.5 109.0951 C 81.1 109.3343 81.75 109.5336 82.25 109.8924 C 82.85 110.2512 83.25 110.8092 83.75 111.2876 C 84.25 111.6862 84.75 112.0848 85.25 112.4835 C 85.75 112.8422 86.4 113.201 86.75 113.6793 C 87.15 114.1178 87.25 114.7158 87.5 115.2738 C 87.75 115.7921 88.05 116.3103 88.25 116.8683 C 88.7 117.9048 89.1 118.9811 89.5 120.0574 C 89.75 120.5756 90 121.0938 90.25 121.6519 C 90.5 122.1701 90.75 122.6883 91 123.2464 C 91.25 123.7646 91.5 124.2828 91.75 124.8409 C 92 125.3591 92.35 125.8773 92.5 126.4354 C 92.7 126.9536 92.7 127.4718 92.75 128.0299 C 92.85 128.5481 92.95 129.0663 93 129.6244 C 93.1 130.1426 93.15 130.6608 93.25 131.2189 C 93.4 131.7371 93.65 132.2553 93.75 132.8134 C 94.2 134.368 94.6 136.0024 95 137.5969 C 95.15 138.1151 95.4 138.6333 95.5 139.1914 C 95.65 139.7096 95.7 140.2278 95.75 140.7859 C 95.85 141.3041 96 141.8223 96 142.3804 C 96.05 142.8986 96 143.4168 96 143.9749 C 96 145.0114 96.1 146.0876 96 147.1639 C 96 147.6821 95.8 147.9213 95.75 148.7584 C 95.7 151.9873 95.75 155.256 95.75 158.5248 C 95.75 161.6739 95.75 164.9028 95.75 168.0918 C 95.75 169.6464 95.7 171.2808 95.75 172.8753 C 95.8 173.3935 95.9 173.9117 96 174.4698 C 96.25 175.6657 96.6 176.8217 96.75 178.0575 C 96.85 178.5757 96.75 179.0939 96.75 179.652 C 96.8 180.1702 96.95 180.6884 97 181.2465 C 97.2 182.2829 97.45 183.3592 97.5 184.4355 C 97.6 185.4719 97.5 186.5482 97.5 187.6245 C 97.5 190.7736 97.5 194.0025 97.5 197.1915 C 97.5 197.9489 97.45 198.2279 97.5 198.786 C 97.6 199.3042 97.9 199.8224 98 200.3805 C 98.35 201.9352 98.5 203.5695 98.75 205.164 C 98.85 205.6822 98.9 206.2005 99 206.7585 C 99.3 207.8747 99.75 208.9908 100 210.1469 C 100.15 210.7049 100.2 211.3427 100.25 211.9407 C 100.35 212.4987 100.5 213.0967 100.5 213.7345 C 100.55 214.2527 100.5 214.7709 100.5 215.329 C 100.5 215.8472 100.6 216.3654 100.5 216.9235 C 100.35 217.9599 100 219.0362 99.75 220.1125 C 99.65 220.6307 99.55 221.1489 99.5 221.707 C 99.5 222.2252 99.5 222.7434 99.5 223.3015 C 99.5 223.8197 99.5 224.3379 99.5 224.896 C 99.6 225.9324 99.6 227.0087 99.75 228.085 C 99.95 229.0816 100.5 231.0747 100.5 231.0747 C 100.75 231.4733 101.372 233.7423 101.75 234.8617 C 101.955 235.47 102.277 236.0512 102.5 236.6555 C 102.694 237.1809 102.833 237.719 103 238.25 C 103.167 238.781 103.373 239.3064 103.5 239.8445 C 103.624 240.3707 103.626 240.9128 103.75 241.439 C 103.877 241.9771 104.045 242.5113 104.25 243.0335 C 104.462 243.5748 104.827 244.0779 105 244.628 C 105.163 245.147 105.167 245.6915 105.25 246.2225 C 105.333 246.7535 105.417 247.286 105.5 247.817 C 105.583 248.348 105.667 248.8806 105.75 249.4115 C 105.833 249.9425 105.972 250.4711 106 251.006 C 106.055 252.0672 105.945 253.1339 106 254.195 C 106.028 254.73 106.167 255.2586 106.25 255.7895 C 106.333 256.3205 106.472 256.8491 106.5 257.384 C 106.555 258.4452 106.528 259.5111 106.5 260.5731 C 106.444 262.6977 106.317 264.8272 106.25 266.9511 C 106.233 267.482 106.25 268.0146 106.25 268.5456 C 106.25 269.0765 106.208 269.6099 106.25 270.1401 C 106.292 270.6742 106.376 271.2084 106.5 271.7346 C 106.627 272.2727 106.915 272.7862 107 273.3291 C 107.083 273.8561 106.958 274.3934 107 274.9236 C 107.042 275.4578 107.208 275.9839 107.25 276.5181 C 107.292 277.0483 107.208 277.5824 107.25 278.1126 C 107.292 278.6468 107.376 279.1809 107.5 279.7071 C 107.627 280.2453 107.873 280.7635 108 281.3016 C 108.124 281.8278 108.126 282.3699 108.25 282.8961 C 108.377 283.4343 108.637 283.9509 108.75 284.4906 C 108.971 285.5462 109.083 286.6177 109.25 287.6796 C 109.333 288.2106 109.417 288.7432 109.5 289.2741 C 109.583 289.8051 109.708 290.3345 109.75 290.8686 C 109.792 291.3988 109.792 291.933 109.75 292.4631 C 109.708 292.9973 109.528 293.5227 109.5 294.0576 C 109.445 295.1188 109.335 296.1927 109.5 297.2467 C 109.67 298.3325 110.116 299.3849 110.5 300.4357 C 110.699 300.9802 111.038 301.4888 111.25 302.0302 C 111.455 302.5524 111.545 303.1025 111.75 303.6247 C 111.962 304.166 112.369 304.6619 112.5 305.2192 C 112.623 305.7414 112.892 306.384 112.5 306.8137 C 112.082 307.2721 111.206 307.3415 110.5 307.4116 C 109.834 307.4778 109.171 307.2123 108.5 307.2123 C 107.829 307.2123 107.171 307.4116 106.5 307.4116 C 105.829 307.4116 105.17 307.2458 104.5 307.2123 C 103.835 307.1788 103.161 307.1461 102.5 307.2123 C 101.819 307.2801 101.122 307.3797 100.5 307.6109 C 99.851 307.8525 99.429 308.4273 98.75 308.6075 C 98.118 308.7757 97.416 308.6075 96.75 308.6075 C 96.084 308.6075 95.411 308.6737 94.75 308.6075 C 94.069 308.5397 93.431 308.2766 92.75 308.2089 C 92.089 308.1427 91.415 308.1754 90.75 308.2089 C 90.08 308.2424 89.42 308.3747 88.75 308.4082 C 88.085 308.4417 87.411 308.342 86.75 308.4082 C 86.069 308.476 85.431 308.739 84.75 308.8068 C 84.089 308.873 83.415 308.7733 82.75 308.8068 C 82.08 308.8403 81.416 308.94 80.75 309.0061 C 80.084 309.0723 79.421 309.2222 78.75 309.2054 C 76.746 309.1552 74.751 308.9065 72.75 308.8068 C 72.085 308.7733 71.415 308.7733 70.75 308.8068 C 70.08 308.8403 69.421 308.9838 68.75 309.0061 C 67.419 309.05 66.081 308.9623 64.75 309.0061 C 64.079 309.0284 63.42 309.172 62.75 309.2054 C 62.085 309.2389 61.415 309.2389 60.75 309.2054 C 60.08 309.172 59.42 309.0396 58.75 309.0061 C 58.085 308.9726 57.415 309.0396 56.75 309.0061 C 56.08 308.9726 55.419 308.8515 54.75 308.8068 C 53.42 308.7183 52.085 308.6075 50.75 308.6075 C 50.079 308.6075 49.41 308.708 48.75 308.8068 C 48.075 308.9081 47.431 309.1377 46.75 309.2054 C 46.089 309.2716 45.416 309.2054 44.75 309.2054 C 42.752 309.2054 40.747 309.156 38.75 309.2054 C 38.079 309.2222 37.42 309.3713 36.75 309.4047 C 36.085 309.4382 35.415 309.4382 34.75 309.4047 C 34.08 309.3713 33.416 309.2716 32.75 309.2054 C 32.084 309.1393 31.42 309.0396 30.75 309.0061 C 30.085 308.9726 29.405 309.1042 28.75 309.0061 C 28.051 308.9017 28.346 308.7438 26.75 308.4082 C 20.367 307.0656 8.928 309.6264 7.35 304.4618 C 1.723 286.0349 9.575 266.2638 8.5 247.2191 C 7.508 229.6843 0.545 212.0435 1 194.2018 Z "/>
  <g id="ID0.15551237482577562">
    <path id="ID0.036129117012023926" fill="#5E3B21" stroke="none" d="M 221.0213 24.9684 C 220.5786 24.9793 220.1816 25.1664 219.8983 25.4603 C 219.615 25.7541 219.4453 26.1548 219.4561 26.5919 C 219.4669 27.0289 219.6561 27.4207 219.9536 27.7003 C 220.2511 27.9798 220.6568 28.1471 221.0994 28.1362 C 221.5421 28.1252 221.9391 27.9381 222.2224 27.6443 C 222.5057 27.3504 222.6754 26.9497 222.6646 26.5127 C 222.6538 26.0756 222.4646 25.6838 222.1671 25.4043 C 221.8696 25.1247 221.4639 24.9574 221.0213 24.9684 Z " stroke-width="1.0810728511128695"/>
    <path id="ID0.9171876185573637" fill="#191009" stroke="none" d="M 220.5337 25.7714 C 220.3085 25.7769 220.1074 25.8722 219.9631 26.0219 C 219.8188 26.1715 219.7324 26.3746 219.7378 26.5969 C 219.7433 26.8192 219.8396 27.0177 219.9912 27.1601 C 220.1427 27.3025 220.3483 27.3877 220.5734 27.3821 C 220.7986 27.3766 220.9997 27.2814 221.144 27.1317 C 221.2884 26.982 221.3748 26.7789 221.3693 26.5566 C 221.3638 26.3343 221.2675 26.1358 221.1159 25.9934 C 220.9644 25.851 220.7588 25.7658 220.5337 25.7714 Z " stroke-width="1.0810728511128695"/>
  </g>
  <g id="ID0.6915994533337653">
    <path id="ID0.036129117012023926" fill="#5E3B21" stroke="none" d="M 206.6713 25.5184 C 206.2286 25.5293 205.8316 25.7164 205.5483 26.0103 C 205.265 26.3041 205.0953 26.7048 205.1061 27.1419 C 205.1169 27.5789 205.3061 27.9707 205.6036 28.2503 C 205.9011 28.5298 206.3068 28.6971 206.7494 28.6862 C 207.1921 28.6752 207.5891 28.4881 207.8724 28.1943 C 208.1557 27.9004 208.3254 27.4997 208.3146 27.0627 C 208.3038 26.6256 208.1146 26.2338 207.8171 25.9543 C 207.5196 25.6747 207.1139 25.5074 206.6713 25.5184 Z " stroke-width="1.0810728511128695"/>
    <path id="ID0.9171876185573637" fill="#191009" stroke="none" d="M 206.2837 26.3214 C 206.0585 26.3269 205.8574 26.4222 205.7131 26.5719 C 205.5688 26.7215 205.4824 26.9246 205.4878 27.1469 C 205.4933 27.3692 205.5896 27.5677 205.7412 27.7101 C 205.8927 27.8525 206.0983 27.9377 206.3234 27.9321 C 206.5486 27.9266 206.7497 27.8314 206.894 27.6817 C 207.0384 27.532 207.1248 27.3289 207.1193 27.1066 C 207.1138 26.8843 207.0175 26.6858 206.8659 26.5434 C 206.7144 26.401 206.5088 26.3158 206.2837 26.3214 Z " stroke-width="1.0810728511128695"/>
  </g>
  <path id="ID0.1913656061515212" fill="#282828" stroke="none" stroke-linecap="round" d="M 214.6445 43.2191 C 215.8322 43.1888 217.1035 42.7285 218.2918 43.0791 C 218.6989 43.2047 218.7663 43.9427 218.6432 44.4117 C 218.499 44.9566 218.2268 45.3227 217.5102 45.658 C 216.7945 45.9933 215.7956 46.2226 214.6864 46.2652 C 213.5772 46.3078 212.5636 46.1558 211.8244 45.8763 C 211.0841 45.5969 210.749 45.2624 210.5991 44.7206 C 210.4596 44.2149 210.53 43.3893 210.9913 43.207 C 212.1491 42.7887 213.4288 43.2506 214.6445 43.2191 Z " stroke-width="1.0076042159755134"/>
  <path id="ID0.8256730306893587" fill="none" stroke="#675B50" stroke-width="1.0984503999557096" stroke-linecap="round" d="M 210.0922 43.3504 C 210.0922 43.3504 211.3815 42.6324 212.0969 42.653 C 212.7649 42.6209 213.2982 43.3405 213.9903 43.3181 C 214.8118 43.2912 215.4865 42.5376 216.3024 42.4631 C 217.6479 42.8095 219.1904 43.1478 219.1904 43.1478 "/>
  <path id="ID0.26445440761744976" fill="#CC5149" stroke="none" d="M 214.795 45.1752 C 215.2986 45.1558 215.7564 45.1921 216.0895 45.2667 C 216.4236 45.3412 216.6321 45.4541 216.6372 45.587 C 216.6423 45.7199 216.4431 45.8484 216.1157 45.9483 C 215.7893 46.0482 215.3357 46.1195 214.832 46.1388 C 214.3284 46.1582 213.8707 46.1219 213.5376 46.0473 C 213.2035 45.9728 212.995 45.8599 212.9899 45.727 C 212.9848 45.5942 213.184 45.4656 213.5114 45.3657 C 213.8378 45.2658 214.2914 45.1945 214.795 45.1752 Z " stroke-width="1.0076042159755134"/>
</svg>