<svg xmlns="http://www.w3.org/2000/svg" xmlns:xlink="http://www.w3.org/1999/xlink" version="1.1" width="287.59635175714175" height="310.31375898370425" viewBox="-0.12119061474640591 1.215923004104302 287.59635175714175 310.31375898370425">
  <!-- Exported by Scratch - http://scratch.mit.edu/ -->
  <g id="ID0.7085462282411754">
    <g id="ID0.5880346246995032">
      <path id="ID0.6829322893172503" fill="#796B5E" stroke="none" stroke-linecap="round" d="M 130.1319 168.4698 L 142.2724 168.6723 L 142.6208 175.4448 L 143.528 182.996 L 140.7472 188.3874 L 137.8949 192.521 L 134.5115 194.4257 L 129.9086 200.0913 L 125.6525 197.6366 L 125.5094 195.1209 L 124.0938 194.1415 L 122.355 190.0646 L 120.6255 185.5043 L 120.9168 180.2846 L 125.1502 173.9388 L 130.1319 168.4698 Z " stroke-width="0.860103544862228"/>
      <g id="ID0.9434720128774643">
        <path id="ID0.6507829907350242" fill="#2C3134" stroke="none" stroke-linecap="round" d="M 156.4109 104.5467 L 169.0563 123.3214 L 159.5634 138.654 L 152.3834 150.061 L 144.5376 165.2725 L 143.2999 172.979 L 128.416 168.2267 L 132.7506 161.5916 L 135.8134 151.464 L 139.2204 138.3414 L 144.9382 125.3937 L 156.4109 104.5467 Z " stroke-width="0.860103544862228"/>
        <path id="ID0.9892375003546476" fill="none" stroke="#191919" stroke-width="2.106910174198116" stroke-linecap="round" d="M 129.255 167.5927 L 143.1176 171.5038 L 144.934 162.2806 "/>
      </g>
    </g>
    <path id="ID0.7729651997797191" fill="#2C3134" stroke="none" stroke-linecap="round" d="M 171.1756 75.3075 L 194.9132 82.6749 L 185.4322 102.095 L 177.8482 111.3987 L 173.2499 120.1221 L 167.8254 127.8059 L 152.3254 118.8885 L 152.4022 111.3131 L 164.996 88.7251 L 171.1756 75.3075 Z " stroke-width="1.0101170654897502"/>
    <path id="ID0.4757494777441025" fill="#2C3134" stroke="none" stroke-linecap="round" d="M 187.9395 63.8165 L 197.3342 65.1661 L 211.286 76.4041 L 192.9526 98.1559 L 180.6404 98.8969 L 175.7057 98.1261 L 173.4512 94.4867 L 171.7897 90.4058 L 167.1389 85.5237 L 169.2016 80.0877 L 173.138 72.411 L 179.6604 65.5087 L 187.9395 63.8165 Z " stroke-width="0.5087011852918293"/>
  </g>
  <g id="ID0.6688785348087549">
    <path id="ID0.5368814701214433" fill="#343434" stroke="none" stroke-linecap="round" d="M 129.1344 190.1565 L 130.4465 180.0247 L 130.3613 168.7197 L 117.6848 169.8196 L 102.8871 172.0743 L 80.6565 174.0875 L 76.5046 180.0476 L 100.4722 192.8966 L 123.3027 199.3015 L 129.1344 190.1565 Z " stroke-width="0.8471283342911995"/>
    <g id="ID0.5077062323689461">
      <path id="ID0.05466862628236413" fill="#252525" stroke="none" stroke-linecap="round" d="M 162.2265 117.796 L 142.2834 104.1818 L 137.0643 119.5835 L 135.4309 124.9127 L 128.5882 139.2992 L 110.3822 171.136 L 130.168 183.9321 L 140.3613 165.9467 L 145.9984 160.0224 L 150.8142 152.9016 L 154.4792 141.1161 L 159.3606 131.1175 L 162.2265 117.796 Z " stroke-width="0.6597530586189023"/>
      <path id="ID0.5319394422695041" fill="none" stroke="#131313" stroke-width="2.1997146171461615" stroke-linecap="round" d="M 110.9834 170.431 L 130.1938 184.4512 L 136.6246 173.5043 "/>
    </g>
  </g>
  <g id="ID0.8820344842970371">
    <path id="ID0.3809091211296618" fill="#252525" stroke="none" stroke-linecap="round" d="M 187.4354 186.7958 L 227.0918 176.5549 L 208.8589 157.0727 L 173.4927 116.9334 L 164.6051 109.1135 L 152.6133 103.6767 L 148.1699 111.7552 L 137.2663 121.0338 L 154.0043 138.1585 L 163.2184 149.6837 L 187.4354 186.7958 Z " stroke-width="0.8035436656303547"/>
    <path id="ID0.9495224836282432" fill="none" stroke="#131313" stroke-width="2.1997147267116404" stroke-linecap="round" d="M 173.3125 116.8414 L 166.5777 110.3573 L 158.7135 105.8393 L 148.664 109.1413 L 143.9395 106.1194 "/>
  </g>
  <g id="ID0.7085462282411754">
    <g id="ID0.5880346246995032">
      <path id="ID0.6829322893172503" fill="#796B5E" stroke="none" stroke-linecap="round" d="M 281.4109 187.4286 L 269.8402 183.7474 L 267.3494 190.0549 L 264.0806 196.9221 L 264.9961 202.9189 L 266.3806 207.7464 L 268.9796 210.631 L 271.5345 217.469 L 276.3514 216.5003 L 277.2895 214.1618 L 278.9436 213.6851 L 281.8921 210.376 L 284.9861 206.6057 L 286.3753 201.5658 L 284.3875 194.201 L 281.4109 187.4286 Z " stroke-width="0.860103543738539"/>
      <g id="ID0.9434720128774643">
        <path id="ID0.6507829907350242" fill="#2C3134" stroke="none" stroke-linecap="round" d="M 276.8437 118.4239 L 258.8696 132.1834 L 262.975 149.7432 L 266.1407 162.8448 L 268.7238 179.7644 L 267.4383 187.4631 L 283.0605 187.7074 L 281.0691 180.0362 L 281.3974 169.4607 L 282.3548 155.9369 L 281.0663 141.8416 L 276.8437 118.4239 Z " stroke-width="0.860103543738539"/>
        <path id="ID0.9892375003546476" fill="none" stroke="#191919" stroke-width="2.106910173892899" stroke-linecap="round" d="M 282.3832 186.9734 L 267.9973 186.2577 L 269.2182 176.937 "/>
      </g>
    </g>
    <path id="ID0.7729651997797191" fill="#2C3134" stroke="none" stroke-linecap="round" d="M 272.2088 85.9801 L 247.3612 85.3897 L 250.1514 106.8196 L 254.3709 118.0567 L 255.9461 127.7913 L 258.6358 136.804 L 276.1707 133.2974 L 278.5147 126.0933 L 273.7849 100.668 L 272.2088 85.9801 Z " stroke-width="1.0101169804377628"/>
    <path id="ID0.4757494777441025" fill="#2C3134" stroke="none" stroke-linecap="round" d="M 260.0105 69.719 L 250.6761 68.001 L 233.8681 74.2008 L 244.3043 100.6648 L 255.7368 105.295 L 260.6595 106.1386 L 263.9572 103.4087 L 266.8338 100.0711 L 272.7992 96.9278 L 272.5784 91.1178 L 271.2967 82.5865 L 267.3171 73.964 L 260.0105 69.719 Z " stroke-width="0.508701167313651"/>
  </g>
  <g id="ID0.8990198895335197">
    <path id="ID0.17576928716152906" fill="#DBDBDB" stroke="none" d="M 220.973 61.517 L 221.2338 61.5334 L 221.2338 61.5334 L 220.973 61.517 L 220.973 61.517 Z " stroke-width="1.0534572489367935"/>
    <path id="ID0.4270821204409003" fill="#252525" stroke="none" stroke-linecap="round" d="M 214.9153 190.9953 L 222.6676 71.5475 L 204.3974 73.04 L 196.9952 77.2856 L 193.8305 81.4542 L 185.9845 93.2698 L 186.2619 104.4109 L 187.0115 110.2598 L 184.9622 117.5101 L 184.22 123.297 L 186.149 130.7126 L 187.6054 136.3379 L 188.4333 146.2371 L 185.8872 169.4024 L 190.8905 178.3368 L 195.6102 185.1347 L 214.9153 190.9953 Z " stroke-width="0.501595785399862"/>
    <path id="ID0.4270821204409003" fill="#252525" stroke="none" stroke-linecap="round" d="M 214.9446 191.0375 L 222.1667 71.5565 L 240.1077 75.3184 L 246.9219 80.455 L 249.5413 84.9862 L 255.8507 97.6889 L 254.1844 108.7082 L 252.7104 114.4177 L 253.8384 121.8672 L 253.8522 127.7015 L 251.0125 134.8181 L 248.8651 140.2176 L 246.8077 149.936 L 246.4415 173.2379 L 240.3619 181.4777 L 243.3692 199.0518 L 214.9446 191.0375 Z " stroke-width="0.5015958026200296"/>
    <path id="ID0.5114514343440533" fill="#282828" stroke="none" d="M 249.5709 74.5332 L 194.2795 71.0679 L 188.4195 164.5681 L 243.7109 168.0334 L 249.5709 74.5332 Z " stroke-width="1.0624883561200273"/>
    <path id="ID0.9286923445761204" fill="#D4D4D4" stroke="none" stroke-linecap="round" d="M 233.7187 58.9846 L 216.9316 38.0036 L 223.1041 58.4713 L 219.1004 101.2686 L 260.6182 72.9772 L 240.3243 60.2089 L 233.7187 58.9846 Z " stroke-width="0.5015958626722967"/>
    <path id="ID0.9286923445761204" fill="#D4D4D4" stroke="none" stroke-linecap="round" d="M 216.8181 56.7686 L 232.3524 39.2567 L 223.6727 58.7935 L 219.7503 101.0895 L 184.641 68.5021 L 206.0642 57.2847 L 216.8181 56.7686 Z " stroke-width="0.5015958626722967"/>
    <path id="ID0.39874776685610414" fill="#1F2022" stroke="none" stroke-linecap="round" d="M 242.2854 61.2244 L 220.9013 70.3833 L 202.8558 59.7209 L 198.5376 61.7243 L 220.8543 74.3961 L 246.0772 63.5425 L 242.2854 61.2244 Z " stroke-width="0.9935621547785666"/>
    <path id="ID0.13444371055811644" fill="#1F1F1F" stroke="none" stroke-linecap="round" d="M 223.1845 72.5061 L 217.7241 71.898 L 212.9106 101.9104 L 225.4484 103.2281 L 223.1845 72.5061 Z " stroke-width="1.0534572489367935"/>
    <path id="ID0.751046194229275" fill="#191919" stroke="none" stroke-linecap="round" d="M 225.9643 67.4048 L 221.2224 64.943 L 216.3822 66.8042 L 215.3937 75.2249 L 219.9182 76.5615 L 225.4348 75.8542 L 225.9643 67.4048 Z " stroke-width="1.1588030157999438"/>
    <path id="ID0.7854711129330099" fill="#282828" stroke="none" stroke-linecap="round" d="M 233.8583 90.9489 L 218.672 99.3041 L 204.9749 88.0751 L 205.8994 106.7469 L 230.1545 108.2671 L 233.8583 90.9489 Z " stroke-width="1.0534572489367935"/>
    <path id="ID0.562834897544235" fill="#282828" stroke="none" stroke-linecap="round" d="M 246.5847 167.7978 L 215.4087 159.7279 L 214.064 181.1826 L 228.3255 183.406 L 246.5847 167.7978 Z " stroke-width="1.0534572489367935"/>
    <path id="ID0.562834897544235" fill="#282828" stroke="none" stroke-linecap="round" d="M 183.1754 164.2029 L 215.1151 160.0886 L 213.7704 181.5434 L 199.343 181.9687 L 183.1754 164.2029 Z " stroke-width="1.0534572489367935"/>
    <path id="ID0.6824178956449032" fill="none" stroke="#191919" stroke-width="2.106914497873587" stroke-linecap="round" d="M 218.927 99.6517 L 214.0914 180.9841 "/>
    <path id="ID0.4144489667378366" fill="#40474C" stroke="none" stroke-linecap="round" d="M 261.3667 69.8044 L 240.7725 60.0045 L 242.4579 83.2446 L 235.0833 146.6016 L 242.0225 194.635 L 253.8301 190.0568 L 253.8585 193.7813 L 253.9161 142.7296 L 261.7434 97.2171 L 263.8656 80.0658 L 261.3667 69.8044 Z " stroke-width="1.0534572489367935"/>
    <path id="ID0.5234400681219995" fill="#101010" stroke="none" d="M 216.2278 105.3767 C 215.7973 105.3497 215.3958 105.5028 215.0952 105.7721 C 214.7946 106.0414 214.5949 106.4269 214.5675 106.8641 C 214.5401 107.3013 214.6901 107.7087 214.9547 108.0135 C 215.2194 108.3182 215.5986 108.5202 216.0291 108.5472 C 216.4596 108.5742 216.8611 108.4211 217.1617 108.1518 C 217.4623 107.8825 217.662 107.4969 217.6894 107.0598 C 217.7168 106.6226 217.5668 106.2151 217.3022 105.9104 C 217.0376 105.6057 216.6583 105.4036 216.2278 105.3767 Z " stroke-width="0.6636780913406511"/>
    <path id="ID0.5234400681219995" fill="#101010" stroke="none" d="M 215.2778 119.7767 C 214.8473 119.7497 214.4458 119.9028 214.1452 120.1721 C 213.8446 120.4414 213.6449 120.8269 213.6175 121.2641 C 213.5901 121.7013 213.7401 122.1087 214.0047 122.4135 C 214.2694 122.7182 214.6486 122.9202 215.0791 122.9472 C 215.5096 122.9742 215.9111 122.8211 216.2117 122.5518 C 216.5123 122.2825 216.712 121.8969 216.7394 121.4598 C 216.7668 121.0226 216.6168 120.6151 216.3522 120.3104 C 216.0876 120.0057 215.7083 119.8036 215.2778 119.7767 Z " stroke-width="0.6636780913406511"/>
    <path id="ID0.5234400681219995" fill="#101010" stroke="none" d="M 213.1778 153.2267 C 212.7473 153.1997 212.3458 153.3528 212.0452 153.6221 C 211.7446 153.8914 211.5449 154.2769 211.5175 154.7141 C 211.4901 155.1513 211.6401 155.5587 211.9047 155.8635 C 212.1694 156.1682 212.5486 156.3702 212.9791 156.3972 C 213.4096 156.4242 213.8111 156.2711 214.1117 156.0018 C 214.4123 155.7325 214.612 155.3469 214.6394 154.9098 C 214.6668 154.4726 214.5168 154.0651 214.2522 153.7604 C 213.9876 153.4557 213.6083 153.2536 213.1778 153.2267 Z " stroke-width="0.6636780913406511"/>
    <path id="ID0.5234400681219995" fill="#101010" stroke="none" d="M 214.2278 137.4767 C 213.7973 137.4497 213.3958 137.6028 213.0952 137.8721 C 212.7946 138.1414 212.5949 138.5269 212.5675 138.9641 C 212.5401 139.4013 212.6901 139.8087 212.9547 140.1135 C 213.2194 140.4182 213.5986 140.6202 214.0291 140.6472 C 214.4596 140.6742 214.8611 140.5211 215.1617 140.2518 C 215.4623 139.9825 215.662 139.5969 215.6894 139.1598 C 215.7168 138.7226 215.5668 138.3151 215.3022 138.0104 C 215.0376 137.7057 214.6583 137.5036 214.2278 137.4767 Z " stroke-width="0.6636780913406511"/>
    <path id="ID0.5234400681219995" fill="#101010" stroke="none" d="M 212.4278 168.0767 C 211.9973 168.0497 211.5958 168.2028 211.2952 168.4721 C 210.9946 168.7414 210.7949 169.1269 210.7675 169.5641 C 210.7401 170.0013 210.8901 170.4087 211.1547 170.7135 C 211.4194 171.0182 211.7986 171.2202 212.2291 171.2472 C 212.6596 171.2742 213.0611 171.1211 213.3617 170.8518 C 213.6623 170.5825 213.862 170.1969 213.8894 169.7598 C 213.9168 169.3226 213.7668 168.9151 213.5022 168.6104 C 213.2376 168.3057 212.8583 168.1036 212.4278 168.0767 Z " stroke-width="0.6636780913406511"/>
    <path id="ID0.4144489667378366" fill="#40474C" stroke="none" stroke-linecap="round" d="M 184.8941 64.1807 L 206.5508 57.0288 L 201.9769 79.8766 L 201.3833 143.6586 L 188.5011 190.4497 L 177.3575 184.4331 L 176.8643 188.1249 L 183.1813 137.4655 L 181.0978 91.3319 L 181.1336 74.0498 L 184.8941 64.1807 Z " stroke-width="1.0534572489367935"/>
    <path id="ID0.8752945330925286" fill="none" stroke="#222222" stroke-width="2.106914497873587" stroke-linecap="round" d="M 260.8285 70.0366 L 263.7044 78.4602 L 257.8072 118.2435 "/>
    <path id="ID0.8752945330925286" fill="none" stroke="#222222" stroke-width="2.106914497873587" stroke-linecap="round" d="M 184.6991 64.7783 L 180.794 72.7769 L 181.6779 112.9852 "/>
    <path id="ID0.5234400681219995" fill="#101010" stroke="none" d="M 237.2778 155.3767 C 236.8473 155.3497 236.4458 155.5028 236.1452 155.7721 C 235.8446 156.0414 235.6449 156.4269 235.6175 156.8641 C 235.5901 157.3013 235.7401 157.7087 236.0047 158.0135 C 236.2694 158.3182 236.6486 158.5202 237.0791 158.5472 C 237.5096 158.5742 237.9111 158.4211 238.2117 158.1518 C 238.5123 157.8825 238.712 157.4969 238.7394 157.0598 C 238.7668 156.6226 238.6168 156.2151 238.3522 155.9104 C 238.0876 155.6057 237.7083 155.4036 237.2778 155.3767 Z " stroke-width="0.6636780913406511"/>
    <path id="ID0.5234400681219995" fill="#101010" stroke="none" d="M 238.2778 163.1767 C 237.8473 163.1497 237.4458 163.3028 237.1452 163.5721 C 236.8446 163.8414 236.6449 164.2269 236.6175 164.6641 C 236.5901 165.1013 236.7401 165.5087 237.0047 165.8135 C 237.2694 166.1182 237.6486 166.3202 238.0791 166.3472 C 238.5096 166.3742 238.9111 166.2211 239.2117 165.9518 C 239.5123 165.6825 239.712 165.2969 239.7394 164.8598 C 239.7668 164.4226 239.6168 164.0151 239.3522 163.7104 C 239.0876 163.4057 238.7083 163.2036 238.2778 163.1767 Z " stroke-width="0.6636780913406511"/>
    <g id="ID0.20783481979742646">
      <path id="ID0.5848579816520214" fill="#737373" stroke="none" stroke-linecap="round" d="M 193.8452 94.9544 L 186.7986 92.9173 L 186.644 97.0558 L 194.1742 98.0596 L 193.8452 94.9544 Z " stroke-width="1.0534572489367935"/>
      <path id="ID0.13105127029120922" fill="none" stroke="#222222" stroke-width="2.106914497873587" stroke-linecap="round" d="M 195.566 98.4128 L 190.8715 98.1185 L 185.4941 96.186 "/>
    </g>
  </g>
  <path id="ID0.46110434643924236" fill="#675B50" stroke="none" stroke-linecap="round" d="M 236.3963 39.4698 L 212.8039 37.9911 L 211.0579 58.038 L 217.3307 61.4625 L 235.0617 60.7656 L 236.3963 39.4698 Z " stroke-width="1.144406894210797"/>
  <g id="ID0.9597035455517471">
    <path id="ID0.5368814701214433" fill="#404040" stroke="none" stroke-linecap="round" d="M 142.4634 216.0959 L 143.6057 205.9436 L 143.3314 194.6416 L 130.675 195.9535 L 115.9171 198.4555 L 93.7233 200.8405 L 89.6718 206.8693 L 113.8511 219.3153 L 136.7855 225.3373 L 142.4634 216.0959 Z " stroke-width="0.8471282696657984"/>
    <g id="ID0.5077062323689461">
      <path id="ID0.05466862628236413" fill="#252525" stroke="none" stroke-linecap="round" d="M 173.42 142.0035 L 152.9187 129.2455 L 148.356 144.8542 L 146.9496 150.2478 L 140.7219 164.911 L 123.8794 197.4896 L 144.1889 209.437 L 153.612 191.0363 L 158.9933 184.8789 L 163.5036 177.5606 L 166.6666 165.6306 L 171.1205 155.4343 L 173.42 142.0035 Z " stroke-width="0.6597530406986021"/>
      <path id="ID0.5319394422695041" fill="none" stroke="#131313" stroke-width="2.1997147942511126" stroke-linecap="round" d="M 124.5151 196.7528 L 144.3015 209.9475 L 150.2634 198.7383 "/>
    </g>
  </g>
  <g id="ID0.8820344842970371">
    <path id="ID0.3809091211296618" fill="#252525" stroke="none" stroke-linecap="round" d="M 212.2891 210.2892 L 245.5137 200.2758 L 226.3812 181.6763 L 189.1592 143.2516 L 179.9123 135.86 L 167.6772 130.9955 L 163.6202 139.2748 L 151.6897 148.4703 L 168.558 167.6012 L 178.203 178.2887 L 212.2891 210.2892 Z " stroke-width="0.8035436602052097"/>
    <path id="ID0.9495224836282432" fill="none" stroke="#131313" stroke-width="2.1997145314683637" stroke-linecap="round" d="M 188.913 143.3313 L 181.8797 137.1724 L 173.8109 133.0308 L 163.9285 136.8036 L 159.0666 134.0082 "/>
  </g>
  <path id="ID0.7592270169407129" fill="none" stroke="#675B50" stroke-width="1.098428587615365" stroke-linecap="round" d="M 213.8382 53.0407 C 213.8382 53.0407 213.6812 53.7884 213.7285 54.1604 C 213.7741 54.5215 214.0364 54.8306 214.1101 55.1871 C 214.1839 55.5459 214.1019 55.9242 214.1669 56.2845 C 214.2312 56.6427 214.3109 57.0128 214.4957 57.3273 C 214.6529 57.5948 215.1644 57.9805 215.1644 57.9805 "/>
  <path id="ID0.48112139804288745" fill="#3A3A3A" stroke="#3A3A3A" stroke-width="2.036267523591646" stroke-linecap="round" d="M 201.9563 13.287 C 201.3007 13.6442 201.9403 15.1261 201.6634 15.964 C 201.441 16.6368 200.76 17.1283 200.6132 17.8213 C 200.4729 18.4861 200.7176 19.1804 200.8416 19.8478 C 201.1908 21.7314 201.1117 24.2191 202.0425 25.6817 C 202.4168 26.1845 203.0489 24.4005 203.452 23.7787 C 204.2755 22.5314 205.1552 21.2283 205.7081 19.9145 C 205.9718 19.2879 205.9222 18.5709 205.9919 17.895 C 206.0605 17.2242 206.3995 16.4893 206.1221 15.8734 C 205.8407 15.2483 205.0854 14.9527 204.5002 14.5865 C 203.7372 14.1096 202.7191 12.9555 201.9563 13.287 Z "/>
  <path id="ID0.05099705280736089" fill="#1C1916" stroke="#1C1916" stroke-width="2.162145817562733" stroke-linecap="round" d="M 238.4819 33.3648 C 238.8233 33.5425 238.3514 34.7929 238.179 35.6166 C 238.0312 36.3214 237.5928 36.9471 237.1735 37.5365 C 236.753 38.1269 236.2065 38.6243 235.6828 39.1274 C 235.1591 39.6305 234.5817 40.0792 234.0312 40.555 C 233.4806 41.0309 233.1089 42.0302 232.3795 41.9826 C 231.6501 41.9351 231.0538 41.0632 230.933 40.3514 C 230.6924 38.9344 230.8786 37.4115 231.3726 36.0604 C 231.6213 35.3817 232.4256 35.0479 233.0243 34.6328 C 233.6219 34.2188 234.2446 33.7966 234.9427 33.5849 C 235.9621 33.2755 237.2051 32.5266 238.1048 33.0911 Z "/>
  <path id="ID0.8999492498114705" fill="#796B5E" stroke="none" stroke-linecap="round" d="M 214.5698 3.6747 C 209.7717 4.1236 204.5843 6.9641 202.2076 11.1028 C 199.4956 15.828 201.109 21.8491 201.1325 27.2312 C 201.1438 29.5928 201.9185 32.0294 202.4438 34.3986 C 203.1909 37.7647 204.1008 40.9896 204.8794 44.2284 C 205.3367 46.1956 204.968 48.5319 206.1542 50.031 C 208.0413 52.4151 210.5886 54.8633 213.5986 55.3723 C 217.0769 55.9598 220.5166 53.9974 223.913 52.9759 C 225.6167 52.4049 227.6692 52.0368 228.8374 50.6148 C 231.3407 47.5617 232.6498 43.6403 234.2056 40.0733 C 235.8389 36.3288 238.3133 32.6849 238.4262 28.561 C 238.6175 21.5424 239.9436 12.9097 234.8418 7.7729 C 230.2828 2.8319 221.7025 3.0106 214.5698 3.6747 Z " stroke-width="0.5492253604623749"/>
  <path id="ID0.8194515448994935" fill="#796B5E" stroke="none" stroke-linecap="round" d="M 238.3606 24.4582 C 237.4303 24.539 236.7496 25.1409 236.1825 26.2707 C 235.6154 27.4006 235.2523 28.9662 235.2285 30.6997 C 235.2047 32.4332 235.5248 34.0082 236.0607 35.1532 C 236.5967 36.2981 237.2621 36.8895 238.1883 37.0247 C 239.0386 37.147 240.1393 36.7012 240.5419 35.9827 C 241.3026 34.3839 241.1983 32.4735 241.3204 30.7832 C 241.4411 29.1219 241.8578 27.2992 241.2257 25.7866 C 240.7172 24.8622 239.3356 24.3739 238.3606 24.4582 Z " stroke-width="1.0810729087813664"/>
  <path id="ID0.7592270169407129" fill="none" stroke="#675B50" stroke-width="1.0984507209247498" stroke-linecap="round" d="M 216.9802 47.2216 C 216.9802 47.2216 216.2986 47.5828 215.9241 47.6437 C 215.5607 47.7032 215.1865 47.5425 214.8196 47.574 C 214.4504 47.6061 214.1063 47.7913 213.7381 47.8321 C 213.3722 47.8729 212.9904 47.9026 212.6328 47.8169 C 212.3287 47.744 211.8098 47.369 211.8098 47.369 "/>
  <path id="ID0.7788236327469349" fill="#FFFFFF" stroke="none" stroke-linecap="round" d="M 225.8916 26.024 L 224.4259 25.7891 L 221.982 25.487 L 219.6416 25.5624 L 219.2822 27.9745 L 222.0473 28.657 L 227.4961 28.0334 L 225.8916 26.024 Z " stroke-width="1.0810729087813664"/>
  <path id="ID0.7788236327469349" fill="#FFFFFF" stroke="none" stroke-linecap="round" d="M 205.1805 25.9808 L 207.038 25.4154 L 209.1593 25.4445 L 211.4967 25.584 L 211.7899 28.0051 L 209.0071 28.6115 L 203.9552 28.0588 L 205.1805 25.9808 Z " stroke-width="1.0810729087813664"/>
  <path id="ID0.2118154256604612" fill="#1C1916" stroke="#1C1916" stroke-width="2.162145817562733" stroke-linecap="round" d="M 239.3518 22.1826 C 239.3747 22.7361 239.0566 25.224 238.2029 26.625 C 237.8879 27.1417 237.6376 25.24 237.3062 24.5716 C 236.9854 23.9237 236.5506 23.3312 236.2441 22.6771 C 235.9164 21.9776 235.6511 21.2477 235.4032 20.5171 C 235.1627 19.8091 234.9703 19.0824 234.78 18.36 C 234.5917 17.6463 234.5117 16.9007 234.2655 16.2045 C 234.0204 15.5093 233.6485 14.8618 233.3137 14.204 C 232.9778 13.5463 232.8192 12.7352 232.2523 12.2558 C 231.6694 11.7623 230.8508 11.5513 230.0869 11.4742 C 229.3546 11.4008 228.6323 11.7078 227.9061 11.8203 C 227.1439 11.9377 226.3736 12.0206 225.6165 12.1649 C 224.8834 12.3042 224.1521 12.4735 223.4334 12.6721 C 222.7333 12.8655 222.0497 13.1247 221.3569 13.3419 C 220.6314 13.5693 219.8858 13.7471 219.1717 14.0102 C 218.4805 14.265 217.8535 14.6882 217.1467 14.8956 C 216.442 15.1018 215.6805 15.4158 214.9658 15.2417 C 214.2479 15.0664 213.7876 14.3554 213.1885 13.9282 C 212.5851 13.4988 212.0163 13.0054 211.3561 12.6677 C 210.71 12.3376 210.0105 12.0906 209.2988 11.9412 C 208.0923 11.6894 206.7047 11.2428 205.3877 11.5116 C 204.1264 11.7715 202.6301 13.9296 201.9337 13.4516 C 201.2731 12.9935 202.3263 10.8509 202.9114 9.5977 C 203.5436 8.2464 204.5014 7.0295 205.5723 5.9817 C 206.6046 4.9721 207.7988 4.0517 209.1424 3.5062 C 210.5057 2.9523 212.0421 2.9443 213.5048 2.7603 C 214.2242 2.6691 214.9587 2.7437 215.682 2.6827 C 216.4118 2.6207 217.1295 2.4168 217.8621 2.3903 C 219.3099 2.3382 220.7825 2.2262 222.2135 2.4499 C 223.7031 2.682 225.1 3.3306 226.5479 3.7447 C 227.2654 3.9501 228.0068 4.0795 228.7163 4.3116 C 230.119 4.7713 231.5191 5.2599 232.8846 5.819 C 233.5587 6.0946 234.2899 6.3281 234.8295 6.8125 C 235.3991 7.323 235.6375 8.1105 236.1091 8.7099 C 236.5658 9.2899 237.2291 9.7115 237.61 10.3419 C 238.0058 10.9983 238.2009 11.7616 238.3965 12.5012 C 238.5816 13.2041 238.6935 13.9297 238.7478 14.6545 C 238.8011 15.3675 238.6377 16.0914 238.7183 16.8026 C 238.8007 17.5353 239.0642 18.2393 239.2328 18.9582 C 239.3716 19.5499 239.7248 20.1348 239.6436 20.7363 Z "/>
  <path id="ID0.5261953212320805" fill="none" stroke="#1C1916" stroke-width="2.162145966447404" stroke-linecap="round" d="M 228.289 24.9013 C 228.289 24.9013 227.6109 23.478 227.0167 22.9933 C 226.4482 22.5293 225.6821 22.3337 224.9619 22.185 C 224.2416 22.0362 223.4872 22.1875 222.7549 22.113 C 221.3831 21.9722 218.6518 21.5397 218.6518 21.5397 "/>
  <path id="ID0.5261953212320805" fill="none" stroke="#1C1916" stroke-width="2.162145879455092" stroke-linecap="round" d="M 202.5382 24.2887 C 202.5382 24.2887 203.2278 22.8708 203.8259 22.391 C 204.3981 21.9315 205.1658 21.7422 205.8872 21.5992 C 206.6086 21.4563 207.3618 21.6136 208.0947 21.5451 C 209.4675 21.4154 212.2022 21.0049 212.2022 21.0049 "/>
  <path id="ID0.8619630038738251" fill="none" stroke="#675B50" stroke-width="1.2706583255233526" stroke-linecap="round" d="M 215.1817 26.7973 C 215.1817 26.7973 214.7715 29.8997 214.5751 31.3976 C 214.4626 32.2389 214.6209 33.1868 214.1889 33.9176 C 213.6634 34.7469 212.4503 34.7107 212.1534 35.468 C 211.7564 36.2587 211.6134 37.7302 212.375 37.9648 C 213.5326 38.3209 214.6253 36.8776 215.9081 36.7821 C 216.5968 36.7316 217.7823 37.6601 217.7823 37.6601 "/>
  <path id="ID0.6736386958509684" fill="none" stroke="#675B50" stroke-width="1.3553752068556915" stroke-linecap="round" d="M 228.6119 34.6938 C 228.6119 34.6938 228.0136 35.4937 227.6751 35.8595 C 227.3663 36.1933 226.9875 36.4595 226.6734 36.7885 C 226.3523 37.1249 225.9959 37.4479 225.7721 37.8536 C 225.5448 38.2646 225.3666 38.7269 225.3445 39.1946 C 225.2857 40.451 225.5315 42.9683 225.5315 42.9683 "/>
  <path id="ID0.18298013787716627" fill="#1C1916" stroke="#1C1916" stroke-width="2.162145817562733" stroke-linecap="round" d="M 229.0206 11.0429 C 229.4799 11.2684 229.983 12.27 229.807 13.2022 C 229.5279 14.6755 228.1325 16.2162 228.3883 17.4798 C 228.5147 18.1014 229.8862 17.2672 230.5714 16.9726 C 231.239 16.6853 231.7932 16.1847 232.3832 15.762 C 233.0195 15.3067 233.8635 15.0121 234.2524 14.3374 C 234.6124 13.7139 234.7079 12.8601 234.4451 12.1915 C 234.1812 11.5187 233.4747 11.0653 232.8332 10.7192 C 232.1776 10.3654 231.4068 10.2399 230.6648 10.1524 C 230.3509 10.1158 229.8219 10.0538 229.7372 10.3545 Z "/>
  <path id="ID0.7592270169407129" fill="none" stroke="#675B50" stroke-width="1.0984447986000652" stroke-linecap="round" d="M 214.8464 19.1986 C 214.8464 19.1986 214.5939 19.9205 214.5927 20.2953 C 214.5912 20.659 214.8115 20.9982 214.8385 21.3609 C 214.8653 21.7258 214.7349 22.0908 214.7528 22.4562 C 214.7703 22.8194 214.8015 23.1963 214.9442 23.5312 C 215.0656 23.816 215.5232 24.262 215.5232 24.262 "/>
  <path id="ID0.48112139804288745" fill="#3A3A3A" stroke="#3A3A3A" stroke-width="2.036267523591646" stroke-linecap="round" d="M 238.8299 15.1309 C 239.4755 15.506 238.7955 16.9697 239.0493 17.8149 C 239.2532 18.4935 239.9204 19.0035 240.0482 19.7003 C 240.1702 20.3687 239.9066 21.0561 239.7643 21.7198 C 239.3636 23.5931 239.3746 26.082 238.404 27.5185 C 238.016 28.011 237.4331 26.2102 237.0472 25.5777 C 236.2582 24.3083 235.4146 22.9815 234.8979 21.6531 C 234.6514 21.0194 234.7207 20.3041 234.6695 19.6265 C 234.6193 18.9541 234.3006 18.2102 234.5948 17.6021 C 234.8932 16.985 235.6563 16.7102 236.2513 16.3602 C 237.0271 15.9044 238.0765 14.7786 238.8299 15.1309 Z "/>
  <path id="ID0.7766774026677012" fill="#0D0D0D" stroke="#0D0D0D" stroke-width="1.8086520039145781" stroke-linecap="round" d="M 1 195.2018 C 1.718 168.513 0.989 140.7886 12 115.2773 C 16.164 105.6321 31.459 101.1874 43.5 97.7377 C 48.996 96.1655 54.566 100.1119 60 101.5247 C 61.543 101.9225 62.688 102.7572 64 103.3185 C 65.857 103.9539 67.811 104.4362 69.5 105.1123 C 70.098 105.3531 70.7 105.5907 71.25 105.9096 C 71.9 106.1886 72.4 106.5872 73 106.9061 C 74.25 107.5041 75.5 108.1419 76.75 108.6999 C 78 109.1783 79.3 109.5769 80.5 110.0951 C 81.1 110.3343 81.75 110.5336 82.25 110.8924 C 82.85 111.2512 83.25 111.8092 83.75 112.2876 C 84.25 112.6862 84.75 113.0848 85.25 113.4835 C 85.75 113.8422 86.4 114.201 86.75 114.6793 C 87.15 115.1178 87.25 115.7158 87.5 116.2738 C 87.75 116.7921 88.05 117.3103 88.25 117.8683 C 88.7 118.9048 89.1 119.9811 89.5 121.0574 C 89.75 121.5756 90 122.0938 90.25 122.6519 C 90.5 123.1701 90.75 123.6883 91 124.2464 C 91.25 124.7646 91.5 125.2828 91.75 125.8409 C 92 126.3591 92.35 126.8773 92.5 127.4354 C 92.7 127.9536 92.7 128.4718 92.75 129.0299 C 92.85 129.5481 92.95 130.0663 93 130.6244 C 93.1 131.1426 93.15 131.6608 93.25 132.2189 C 93.4 132.7371 93.65 133.2553 93.75 133.8134 C 94.2 135.368 94.6 137.0024 95 138.5969 C 95.15 139.1151 95.4 139.6333 95.5 140.1914 C 95.65 140.7096 95.7 141.2278 95.75 141.7859 C 95.85 142.3041 96 142.8223 96 143.3804 C 96.05 143.8986 96 144.4168 96 144.9749 C 96 146.0114 96.1 147.0876 96 148.1639 C 96 148.6821 95.8 148.9213 95.75 149.7584 C 95.7 152.9873 95.75 156.256 95.75 159.5248 C 95.75 162.6739 95.75 165.9028 95.75 169.0918 C 95.75 170.6464 95.7 172.2808 95.75 173.8753 C 95.8 174.3935 95.9 174.9117 96 175.4698 C 96.25 176.6657 96.6 177.8217 96.75 179.0575 C 96.85 179.5757 96.75 180.0939 96.75 180.652 C 96.8 181.1702 96.95 181.6884 97 182.2465 C 97.2 183.2829 97.45 184.3592 97.5 185.4355 C 97.6 186.4719 97.5 187.5482 97.5 188.6245 C 97.5 191.7736 97.5 195.0025 97.5 198.1915 C 97.5 198.9489 97.45 199.2279 97.5 199.786 C 97.6 200.3042 97.9 200.8224 98 201.3805 C 98.35 202.9352 98.5 204.5695 98.75 206.164 C 98.85 206.6822 98.9 207.2005 99 207.7585 C 99.3 208.8747 99.75 209.9908 100 211.1469 C 100.15 211.7049 100.2 212.3427 100.25 212.9407 C 100.35 213.4987 100.5 214.0967 100.5 214.7345 C 100.55 215.2527 100.5 215.7709 100.5 216.329 C 100.5 216.8472 100.6 217.3654 100.5 217.9235 C 100.35 218.9599 100 220.0362 99.75 221.1125 C 99.65 221.6307 99.55 222.1489 99.5 222.707 C 99.5 223.2252 99.5 223.7434 99.5 224.3015 C 99.5 224.8197 99.5 225.3379 99.5 225.896 C 99.6 226.9324 99.6 228.0087 99.75 229.085 C 99.95 230.0816 100.5 232.0747 100.5 232.0747 C 100.75 232.4733 101.372 234.7423 101.75 235.8617 C 101.955 236.47 102.277 237.0512 102.5 237.6555 C 102.694 238.1809 102.833 238.719 103 239.25 C 103.167 239.781 103.373 240.3064 103.5 240.8445 C 103.624 241.3707 103.626 241.9128 103.75 242.439 C 103.877 242.9771 104.045 243.5113 104.25 244.0335 C 104.462 244.5748 104.827 245.0779 105 245.628 C 105.163 246.147 105.167 246.6915 105.25 247.2225 C 105.333 247.7535 105.417 248.286 105.5 248.817 C 105.583 249.348 105.667 249.8806 105.75 250.4115 C 105.833 250.9425 105.972 251.4711 106 252.006 C 106.055 253.0672 105.945 254.1339 106 255.195 C 106.028 255.73 106.167 256.2586 106.25 256.7895 C 106.333 257.3205 106.472 257.8491 106.5 258.384 C 106.555 259.4452 106.528 260.5111 106.5 261.5731 C 106.444 263.6977 106.317 265.8272 106.25 267.9511 C 106.233 268.482 106.25 269.0146 106.25 269.5456 C 106.25 270.0765 106.208 270.6099 106.25 271.1401 C 106.292 271.6742 106.376 272.2084 106.5 272.7346 C 106.627 273.2727 106.915 273.7862 107 274.3291 C 107.083 274.8561 106.958 275.3934 107 275.9236 C 107.042 276.4578 107.208 276.9839 107.25 277.5181 C 107.292 278.0483 107.208 278.5824 107.25 279.1126 C 107.292 279.6468 107.376 280.1809 107.5 280.7071 C 107.627 281.2453 107.873 281.7635 108 282.3016 C 108.124 282.8278 108.126 283.3699 108.25 283.8961 C 108.377 284.4343 108.637 284.9509 108.75 285.4906 C 108.971 286.5462 109.083 287.6177 109.25 288.6796 C 109.333 289.2106 109.417 289.7432 109.5 290.2741 C 109.583 290.8051 109.708 291.3345 109.75 291.8686 C 109.792 292.3988 109.792 292.933 109.75 293.4631 C 109.708 293.9973 109.528 294.5227 109.5 295.0576 C 109.445 296.1188 109.335 297.1927 109.5 298.2467 C 109.67 299.3325 110.116 300.3849 110.5 301.4357 C 110.699 301.9802 111.038 302.4888 111.25 303.0302 C 111.455 303.5524 111.545 304.1025 111.75 304.6247 C 111.962 305.166 112.369 305.6619 112.5 306.2192 C 112.623 306.7414 112.892 307.384 112.5 307.8137 C 112.082 308.2721 111.206 308.3415 110.5 308.4116 C 109.834 308.4778 109.171 308.2123 108.5 308.2123 C 107.829 308.2123 107.171 308.4116 106.5 308.4116 C 105.829 308.4116 105.17 308.2458 104.5 308.2123 C 103.835 308.1788 103.161 308.1461 102.5 308.2123 C 101.819 308.2801 101.122 308.3797 100.5 308.6109 C 99.851 308.8525 99.429 309.4273 98.75 309.6075 C 98.118 309.7757 97.416 309.6075 96.75 309.6075 C 96.084 309.6075 95.411 309.6737 94.75 309.6075 C 94.069 309.5397 93.431 309.2766 92.75 309.2089 C 92.089 309.1427 91.415 309.1754 90.75 309.2089 C 90.08 309.2424 89.42 309.3747 88.75 309.4082 C 88.085 309.4417 87.411 309.342 86.75 309.4082 C 86.069 309.476 85.431 309.739 84.75 309.8068 C 84.089 309.873 83.415 309.7733 82.75 309.8068 C 82.08 309.8403 81.416 309.94 80.75 310.0061 C 80.084 310.0723 79.421 310.2222 78.75 310.2054 C 76.746 310.1552 74.751 309.9065 72.75 309.8068 C 72.085 309.7733 71.415 309.7733 70.75 309.8068 C 70.08 309.8403 69.421 309.9838 68.75 310.0061 C 67.419 310.05 66.081 309.9623 64.75 310.0061 C 64.079 310.0284 63.42 310.172 62.75 310.2054 C 62.085 310.2389 61.415 310.2389 60.75 310.2054 C 60.08 310.172 59.42 310.0396 58.75 310.0061 C 58.085 309.9726 57.415 310.0396 56.75 310.0061 C 56.08 309.9726 55.419 309.8515 54.75 309.8068 C 53.42 309.7183 52.085 309.6075 50.75 309.6075 C 50.079 309.6075 49.41 309.708 48.75 309.8068 C 48.075 309.9081 47.431 310.1377 46.75 310.2054 C 46.089 310.2716 45.416 310.2054 44.75 310.2054 C 42.752 310.2054 40.747 310.156 38.75 310.2054 C 38.079 310.2222 37.42 310.3713 36.75 310.4047 C 36.085 310.4382 35.415 310.4382 34.75 310.4047 C 34.08 310.3713 33.416 310.2716 32.75 310.2054 C 32.084 310.1393 31.42 310.0396 30.75 310.0061 C 30.085 309.9726 29.405 310.1042 28.75 310.0061 C 28.051 309.9017 28.346 309.7438 26.75 309.4082 C 20.367 308.0656 8.928 310.6264 7.35 305.4618 C 1.723 287.0349 9.575 267.2638 8.5 248.2191 C 7.508 230.6843 0.545 213.0435 1 195.2018 Z "/>
  <g id="ID0.15551237482577562">
    <path id="ID0.036129117012023926" fill="#5E3B21" stroke="none" d="M 221.4753 25.4519 C 221.0326 25.4458 220.6287 25.6175 220.3343 25.9003 C 220.0399 26.1831 219.855 26.577 219.849 27.0141 C 219.843 27.4512 220.0171 27.85 220.3036 28.1408 C 220.5901 28.4315 220.9891 28.6142 221.4319 28.6203 C 221.8746 28.6264 222.2785 28.4547 222.5729 28.1719 C 222.8673 27.8891 223.0522 27.4952 223.0582 27.0581 C 223.0642 26.6209 222.8901 26.2222 222.6036 25.9314 C 222.3171 25.6406 221.9181 25.4579 221.4753 25.4519 Z " stroke-width="1.0810728495445676"/>
    <path id="ID0.9171876185573637" fill="#191009" stroke="none" d="M 220.9629 26.2414 C 220.7377 26.2384 220.5331 26.3258 220.3831 26.4698 C 220.2332 26.6139 220.1391 26.8135 220.136 27.0358 C 220.133 27.2581 220.2216 27.4602 220.3675 27.6083 C 220.5135 27.7564 220.7157 27.8494 220.9408 27.8525 C 221.166 27.8556 221.3707 27.7682 221.5206 27.6241 C 221.6706 27.4801 221.7647 27.2805 221.7678 27.0582 C 221.7708 26.8358 221.6822 26.6337 221.5363 26.4856 C 221.3903 26.3375 221.1881 26.2445 220.9629 26.2414 Z " stroke-width="1.0810728495445676"/>
  </g>
  <g id="ID0.6915994533337653">
    <path id="ID0.036129117012023926" fill="#5E3B21" stroke="none" d="M 207.0253 25.4519 C 206.5826 25.4458 206.1787 25.6175 205.8843 25.9003 C 205.5899 26.1831 205.405 26.577 205.399 27.0141 C 205.393 27.4512 205.5671 27.85 205.8536 28.1408 C 206.1401 28.4315 206.5391 28.6142 206.9819 28.6203 C 207.4246 28.6264 207.8285 28.4547 208.1229 28.1719 C 208.4173 27.8891 208.6022 27.4952 208.6082 27.0581 C 208.6142 26.6209 208.4401 26.2222 208.1536 25.9314 C 207.8671 25.6406 207.4681 25.4579 207.0253 25.4519 Z " stroke-width="1.0810728495445676"/>
    <path id="ID0.9171876185573637" fill="#191009" stroke="none" d="M 206.6129 26.2414 C 206.3877 26.2384 206.1831 26.3258 206.0331 26.4698 C 205.8832 26.6139 205.7891 26.8135 205.786 27.0358 C 205.783 27.2581 205.8716 27.4602 206.0175 27.6083 C 206.1635 27.7564 206.3657 27.8494 206.5908 27.8525 C 206.816 27.8556 207.0207 27.7682 207.1706 27.6241 C 207.3206 27.4801 207.4147 27.2805 207.4178 27.0582 C 207.4208 26.8358 207.3322 26.6337 207.1863 26.4856 C 207.0403 26.3375 206.8381 26.2445 206.6129 26.2414 Z " stroke-width="1.0810728495445676"/>
  </g>
  <path id="ID0.1913656061515212" fill="#282828" stroke="none" stroke-linecap="round" d="M 214.55 43.3909 C 215.738 43.4027 217.026 43.0836 218.2 43.3909 C 218.602 43.5004 218.641 44.0748 218.5 44.4349 C 218.335 44.8532 218.049 45.129 217.32 45.3677 C 216.592 45.6064 215.585 45.7545 214.475 45.7545 C 213.365 45.7545 212.358 45.6064 211.63 45.3677 C 210.901 45.129 210.579 44.8595 210.45 44.4349 C 210.33 44.0385 210.432 43.4004 210.9 43.2727 C 212.073 42.9828 213.334 43.3791 214.55 43.3909 Z " stroke-width="0.9002091483064115"/>
  <path id="ID0.8256730306893587" fill="none" stroke="#675B50" stroke-width="1.0984503933497185" stroke-linecap="round" d="M 209.9356 43.6096 C 209.9356 43.6096 211.2515 42.9416 211.9657 42.9898 C 212.6343 42.9833 213.1397 43.7228 213.8321 43.727 C 214.654 43.7316 215.3571 43.0045 216.1753 42.9613 C 217.5065 43.3591 219.0349 43.7563 219.0349 43.7563 "/>
  <path id="ID0.26445440761744976" fill="#CC5149" stroke="none" d="M 214.525 44.9273 C 215.029 44.9273 215.485 44.969 215.815 45.0368 C 216.146 45.1045 216.35 45.1983 216.35 45.3015 C 216.35 45.4047 216.146 45.4985 215.815 45.5662 C 215.485 45.634 215.029 45.6758 214.525 45.6758 C 214.021 45.6758 213.565 45.634 213.235 45.5662 C 212.904 45.4985 212.7 45.4047 212.7 45.3015 C 212.7 45.1983 212.904 45.1045 213.235 45.0368 C 213.565 44.969 214.021 44.9273 214.525 44.9273 Z " stroke-width="0.9002091483064115"/>
</svg>