<svg xmlns="http://www.w3.org/2000/svg" xmlns:xlink="http://www.w3.org/1999/xlink" version="1.1" width="317.4590759277344" height="110.26679992675781" viewBox="0.11940860748291016 0.5419000387191772 317.4590759277344 110.26679992675781">
  <!-- Exported by Scratch - http://scratch.mit.edu/ -->
  <path id="ID0.7729651997797191" fill="#7C0D0D" stroke="none" stroke-linecap="round" d="M 83.3607 13.2761 L 84.7991 32.5334 L 100.9086 28.8025 L 113.9142 25.8941 L 119.3135 22.1186 L 122.5767 18.7626 L 119.0978 6.7387 L 113.4329 5.455 L 94.4276 10.979 L 83.3607 13.2761 Z " stroke-width="0.7788099129553264"/>
  <path id="ID0.4757494777441025" fill="#7C0D0D" stroke="none" stroke-linecap="round" d="M 59.708 22.4868 L 57.779 30.69 L 62.6473 45.8385 L 86.834 37.6639 L 91.464 27.7195 L 92.4253 23.3908 L 90.1116 20.3572 L 87.235 17.6721 L 84.6608 12.2574 L 79.4366 12.2171 L 71.7258 13.0066 L 63.8213 16.1835 L 59.708 22.4868 Z " stroke-width="0.454186044932424"/>
  <path id="ID0.6507829907350242" fill="#7C0D0D" stroke="none" stroke-linecap="round" d="M 111.6453 2.9487 L 121.6333 20.9178 L 139.7334 20.2746 L 149.8296 18.1858 L 165.2096 17.9702 L 171.4477 18.4669 L 173.2335 6.9532 L 167.0009 6.8459 L 157.6315 5.2248 L 145.7176 2.6657 L 136.5429 1.0419 L 111.6453 2.9487 Z " stroke-width="0.7788099129553264"/>
  <path id="ID0.6829322893172503" fill="#7C0D0D" stroke="none" stroke-linecap="round" d="M 172.8386 6.5693 L 168.1108 16.5664 L 173.4109 19.6077 L 179.1113 23.4222 L 184.5624 23.3457 L 189.032 22.6989 L 191.9249 20.7111 L 198.3304 19.2583 L 198.0729 14.7833 L 196.1097 13.6425 L 195.8932 12.0877 L 193.3186 9.0083 L 190.3519 5.7396 L 186.0416 3.8528 L 179.2386 4.7271 L 172.8386 6.5693 Z " stroke-width="0.7788099129553264"/>
  <path id="ID0.3809091211296618" fill="#7C0D0D" stroke="none" stroke-linecap="round" d="M 160.1617 50.2026 L 147.5583 24.5971 L 186.1747 20.8925 L 197.0924 21.6777 L 215.014 26.698 L 217.767 35.2872 L 219.2389 48.221 L 198.4206 48.4429 L 187.0824 46.7953 L 160.1617 50.2026 Z " stroke-width="0.7305889579057541"/>
  <path id="ID0.5368814701214433" fill="#7C0D0D" stroke="none" stroke-linecap="round" d="M 301.8916 51.0819 L 293.0221 48.3226 L 283.7131 43.9638 L 289.4307 33.9065 L 296.9071 22.5345 L 307.0036 4.9292 L 313.5034 3.7595 L 315.0285 28.4379 L 311.6603 49.7322 L 301.8916 51.0819 Z " stroke-width="0.7702165390553295"/>
  <path id="ID0.05466862628236413" fill="#7C0D0D" stroke="none" stroke-linecap="round" d="M 212.625 49.5114 L 208.138 23.1511 L 227.1024 27.5749 L 232.1793 29.0281 L 250.3212 29.1846 L 291.0128 31.4111 L 293.2677 47.0357 L 271.185 49.7531 L 262.6186 52.689 L 253.2273 54.2457 L 239.6733 52.489 L 227.3556 52.782 L 212.625 49.5114 Z " stroke-width="0.7305889579057541"/>
  <path id="ID0.3809091211296618" fill="#7C0D0D" stroke="none" stroke-linecap="round" d="M 136.152 75.9286 L 149.1083 52.4971 L 187.7247 48.7925 L 198.6424 49.5777 L 216.564 54.598 L 219.317 63.1872 L 220.7889 76.121 L 199.0384 77.0873 L 185.7612 79.0119 L 136.152 75.9286 Z " stroke-width="0.7305889579057541"/>
  <path id="ID0.5368814701214433" fill="#7C0D0D" stroke="none" stroke-linecap="round" d="M 303.9416 78.8819 L 295.0721 76.1226 L 285.7631 71.7638 L 291.4807 61.7065 L 298.9571 50.3345 L 309.0536 32.7292 L 315.5534 31.5595 L 317.0785 56.2379 L 313.7103 77.5322 L 303.9416 78.8819 Z " stroke-width="0.7702165390553295"/>
  <path id="ID0.05466862628236413" fill="#7C0D0D" stroke="none" stroke-linecap="round" d="M 214.125 77.4114 L 209.638 51.0511 L 228.6024 55.4749 L 233.6793 56.9281 L 251.8212 57.0846 L 292.5128 59.3111 L 294.7677 74.9357 L 272.685 77.6531 L 264.1186 80.589 L 254.7273 82.1457 L 241.1733 80.389 L 228.8556 80.682 L 214.125 77.4114 Z " stroke-width="0.7305889579057541"/>
  <path id="ID0.7729651997797191" fill="#7C0D0D" stroke="none" stroke-linecap="round" d="M 83.8226 99.0511 L 84.7638 78.8286 L 101.7552 82.2648 L 115.4696 84.9304 L 121.2387 88.7281 L 124.7569 92.149 L 121.4647 104.8516 L 115.566 106.3632 L 95.4875 101.1331 L 83.8226 99.0511 Z " stroke-width="0.8164596087352309"/>
  <path id="ID0.4757494777441025" fill="#7C0D0D" stroke="none" stroke-linecap="round" d="M 58.7399 90.0046 L 56.4773 81.4649 L 61.1337 65.4473 L 86.7199 73.3028 L 91.8641 83.5878 L 92.9988 88.0957 L 90.6634 91.3427 L 87.7278 94.241 L 85.1894 99.9909 L 79.7159 100.1867 L 71.6123 99.586 L 63.2356 96.4892 L 58.7399 90.0046 Z " stroke-width="0.476142560405464"/>
  <path id="ID0.6507829907350242" fill="#7C0D0D" stroke="none" stroke-linecap="round" d="M 113.7664 109.0422 L 123.705 89.9183 L 142.6915 90.0604 L 153.3331 91.9525 L 169.4566 91.7264 L 175.979 91.0226 L 178.1888 103.0356 L 171.6606 103.3312 L 161.8898 105.3054 L 149.4801 108.3373 L 139.9134 110.3087 L 113.7664 109.0422 Z " stroke-width="0.8164596087352309"/>
  <path id="ID0.6829322893172503" fill="#7C0D0D" stroke="none" stroke-linecap="round" d="M 177.7863 103.4495 L 172.538 93.1122 L 178.0028 89.7694 L 183.8643 85.6045 L 189.579 85.5244 L 194.2817 86.0709 L 197.3718 88.0689 L 204.1269 89.4031 L 203.9886 94.1001 L 201.9649 95.3533 L 201.7837 96.989 L 199.1762 100.2917 L 196.1634 103.8042 L 191.702 105.9081 L 184.5472 105.1919 L 177.7863 103.4495 Z " stroke-width="0.8164596087352309"/>
  <path id="ID0.5922487881034613" fill="#7C0D0D" stroke="none" stroke-linecap="round" d="M 147.7334 109.6246 L 142.0013 102.6419 L 141.9971 96.5179 L 147.8697 90.2299 L 162.8703 91.4485 L 170.4876 96.0368 L 170.5363 99.5064 L 163.2747 105.7323 L 147.7334 109.6246 Z " stroke-width="0.8164596087352309"/>
  <path id="ID0.7477802094072104" fill="#670A0A" stroke="none" stroke-linecap="round" d="M 105.6683 21.7346 L 102.4416 41.2589 L 143.627 41.5366 L 152.6669 24.9322 L 128.1615 22.4814 L 105.6683 21.7346 Z " stroke-width="0.47614256105494523"/>
  <path id="ID0.7477802094072104" fill="#670A0A" stroke="none" stroke-linecap="round" d="M 105.2313 82.0344 L 102.5327 58.5657 L 143.7181 58.8434 L 152.5332 75.5682 L 127.3803 80.8743 L 105.2313 82.0344 Z " stroke-width="0.47614256105494523"/>
  <path id="ID0.4270821204409003" fill="#7C0D0D" stroke="none" stroke-linecap="round" d="M 85.1911 81.5614 L 72.7184 77.6681 L 66.901 75.3672 L 59.9222 68.773 L 61.5601 37.715 L 65.8918 30.84 L 69.9582 28.0105 L 81.4327 21.0646 L 91.9028 21.8495 L 97.3719 22.8386 L 104.287 21.2187 L 109.7658 20.7795 L 116.6552 22.9687 L 121.8818 24.6228 L 131.1583 25.8758 L 153.0705 24.5236 L 161.2491 29.7212 L 167.4303 34.5483 L 172.7765 46.7024 L 169.6749 58.2758 L 162.935 62.1586 L 156.4738 67.0671 L 153.3213 75.5928 L 127.9596 76.5645 L 121.2857 77.7099 L 109.8277 82.2037 L 98.9869 83.44 L 85.1911 81.5614 Z " stroke-width="0.47614256105494523"/>
  <path id="ID0.9286923445761204" fill="#7C0D0D" stroke="none" stroke-linecap="round" d="M 25.9533 63.0769 L 27.1656 44.2505 L 51.5112 43.4329 L 58.439 28.0977 L 70.1143 50.7911 L 58.0832 87.6264 L 47.2114 67.8979 L 25.9533 63.0769 Z " stroke-width="0.47614259021138583"/>
  <path id="ID0.8999492498114705" fill="#7C0D0D" stroke="none" stroke-linecap="round" d="M 0.9373 46.8863 C 1.3546 42.4759 3.9984 37.7065 7.851 35.52 C 12.2496 33.0251 17.8749 34.8943 22.8658 34.5245 C 24.5666 34.3274 26.3081 33.5104 27.9367 33.8183 C 31.2496 34.4456 34.3017 36.0769 37.5096 37.1137 C 39.6119 37.793 41.9686 37.9144 43.8879 39.0566 C 46.1588 40.3407 49.3114 41.6394 49.8035 44.2324 C 50.5326 48.0765 48.7488 52.1784 47.0421 55.6522 C 45.6397 58.506 43.4651 61.1902 40.7151 62.8034 C 35.6102 65.6948 29.9866 68.3349 24.1085 68.803 C 17.5925 69.3216 9.5379 70.2048 4.7551 65.5177 C 0.1546 61.3295 0.3199 53.4427 0.9373 46.8863 Z " stroke-width="0.5080372495650062"/>
</svg>