<svg xmlns="http://www.w3.org/2000/svg" xmlns:xlink="http://www.w3.org/1999/xlink" version="1.1" width="190.76689153923883" height="226.44479376091851" viewBox="5.76210018985325 0.8269999920611966 190.76689153923883 226.44479376091851">
  <!-- Exported by Scratch - http://scratch.mit.edu/ -->
  <g id="ID0.7085462282411754">
    <g id="ID0.5880346246995032">
      <path id="ID0.6829322893172503" fill="#796B5E" stroke="none" stroke-linecap="round" d="M 145.8952 167.0112 L 134.9537 168.4807 L 135.3569 174.6334 L 135.3379 181.5483 L 138.4204 186.122 L 141.4342 189.5524 L 144.6913 190.9138 L 149.4483 195.5421 L 153.0314 192.8743 L 152.894 190.5875 L 154.0685 189.553 L 155.2065 185.6873 L 156.2849 181.386 L 155.4687 176.7034 L 150.9733 171.4217 L 145.8952 167.0112 Z " stroke-width="0.7820137311437043"/>
      <g id="ID0.9434720128774643">
        <path id="ID0.6507829907350242" fill="#2C3134" stroke="none" stroke-linecap="round" d="M 115.3705 112.0651 L 105.9414 130.3591 L 116.1386 143.1985 L 123.8313 152.7381 L 132.5283 165.6427 L 134.4628 172.4706 L 147.3994 166.6017 L 142.782 161.0696 L 138.9429 152.2488 L 134.4755 140.7601 L 127.94 129.6742 L 115.3705 112.0651 Z " stroke-width="0.7820137311437043"/>
        <path id="ID0.9892375003546476" fill="none" stroke="#191919" stroke-width="1.9156213270159816" stroke-linecap="round" d="M 146.5932 166.1482 L 134.4897 171.1492 L 131.872 163.0131 "/>
      </g>
    </g>
    <path id="ID0.7729651997797191" fill="#2C3134" stroke="none" stroke-linecap="round" d="M 98.9717 87.214 L 78.3172 96.3828 L 88.937 112.9144 L 96.7714 120.512 L 101.8484 127.902 L 107.5611 134.2655 L 120.6126 124.5702 L 119.7404 117.7377 L 105.974 98.6753 L 98.9717 87.214 Z " stroke-width="0.9184073403197718"/>
    <path id="ID0.4757494777441025" fill="#2C3134" stroke="none" stroke-linecap="round" d="M 82.537 78.6536 L 74.1965 80.868 L 62.7889 92.4947 L 81.6496 110.1937 L 92.8462 109.558 L 97.2205 108.3389 L 98.8707 104.8136 L 99.9385 100.9524 L 103.6208 96.0508 L 101.182 91.3607 L 96.8138 84.8458 L 90.1924 79.3042 L 82.537 78.6536 Z " stroke-width="0.4625155945395199"/>
  </g>
  <g id="ID0.6688785348087549">
    <path id="ID0.5368814701214433" fill="#343434" stroke="none" stroke-linecap="round" d="M 149.0751 186.6161 L 146.8165 177.6061 L 145.6952 167.3885 L 157.2588 167.0381 L 170.8603 167.5058 L 191.1481 166.9676 L 195.529 171.9096 L 175.2478 186.0526 L 155.3105 194.2561 L 149.0751 186.6161 Z " stroke-width="0.7702165533500696"/>
    <g id="ID0.5077062323689461">
      <path id="ID0.05466862628236413" fill="#252525" stroke="none" stroke-linecap="round" d="M 111.5066 124.7821 L 128.0725 110.3747 L 134.4178 123.7294 L 136.4576 128.3686 L 144.1613 140.6346 L 163.9758 167.4539 L 147.4653 181.1059 L 136.3544 165.9452 L 130.6362 161.193 L 125.5327 155.2733 L 120.9741 145.0193 L 115.5064 136.5078 L 111.5066 124.7821 Z " stroke-width="0.5998532857109622"/>
      <path id="ID0.5319394422695041" fill="none" stroke="#131313" stroke-width="1.9999999994122568" stroke-linecap="round" d="M 163.4093 166.7786 L 147.5481 181.475 L 140.5808 172.2714 "/>
    </g>
  </g>
  <g id="ID0.8820344842970371">
    <path id="ID0.3809091211296618" fill="#252525" stroke="none" stroke-linecap="round" d="M 96.1109 189.7127 L 59.2154 184.6681 L 73.615 165.1431 L 101.2969 125.1485 L 108.4937 117.145 L 118.7461 110.9646 L 123.6147 117.7886 L 134.4442 125.0117 L 121.1447 142.2495 L 114.0457 153.6334 L 96.1109 189.7127 Z " stroke-width="0.7305889591093907"/>
    <path id="ID0.9495224836282432" fill="none" stroke="#131313" stroke-width="2.000000011729554" stroke-linecap="round" d="M 101.4214 125.0542 L 106.8157 118.4852 L 113.4383 113.5719 L 122.8631 115.4885 L 126.8091 112.259 "/>
  </g>
  <g id="ID0.7085462282411754">
    <g id="ID0.5880346246995032">
      <path id="ID0.6829322893172503" fill="#796B5E" stroke="none" stroke-linecap="round" d="M 11.259 200.1918 L 21.3174 195.6412 L 24.2351 201.073 L 27.9147 206.9277 L 27.7235 212.4399 L 26.9849 216.946 L 24.9438 219.8262 L 23.3614 226.2718 L 18.9091 225.9076 L 17.8141 223.8953 L 16.2699 223.6402 L 13.2566 220.9645 L 10.0631 217.8878 L 8.2745 213.484 L 9.2889 206.6228 L 11.259 200.1918 Z " stroke-width="0.78201369932095"/>
      <g id="ID0.9434720128774643">
        <path id="ID0.6507829907350242" fill="#2C3134" stroke="none" stroke-linecap="round" d="M 8.0932 137.3586 L 25.7824 147.8787 L 23.9363 164.1705 L 22.4661 176.3368 L 21.9269 191.8892 L 23.9036 198.705 L 9.8225 200.5813 L 10.8077 193.4431 L 9.3904 183.928 L 7.0926 171.8174 L 6.7621 158.9526 L 8.0932 137.3586 Z " stroke-width="0.78201369932095"/>
        <path id="ID0.9892375003546476" fill="none" stroke="#191919" stroke-width="1.9156212048797878" stroke-linecap="round" d="M 10.2986 199.8597 L 23.2133 197.6887 L 21.123 189.4014 "/>
      </g>
    </g>
    <path id="ID0.7729651997797191" fill="#2C3134" stroke="none" stroke-linecap="round" d="M 8.8296 107.5828 L 31.2047 104.4162 L 30.9564 124.0634 L 28.337 134.6578 L 27.9464 143.6152 L 26.4728 152.0389 L 10.2669 150.7308 L 7.3868 144.4739 L 8.963 121.0132 L 8.8296 107.5828 Z " stroke-width="0.9184072936475666"/>
    <path id="ID0.4757494777441025" fill="#2C3134" stroke="none" stroke-linecap="round" d="M 18.1237 91.6355 L 26.3707 89.0948 L 42.2055 92.9119 L 35.5864 117.9153 L 25.7535 123.3081 L 21.3977 124.5916 L 18.1304 122.476 L 15.1791 119.767 L 9.4592 117.5608 L 9.0427 112.2909 L 9.2959 104.4512 L 11.9757 96.2432 L 18.1237 91.6355 Z " stroke-width="0.4625155688856304"/>
  </g>
  <g id="ID0.8990198895335197">
    <path id="ID0.17576928716152906" fill="#DBDBDB" stroke="none" d="M 52.5754 80.0287 L 52.3416 80.0712 L 52.3416 80.0712 L 52.5754 80.0287 L 52.5754 80.0287 Z " stroke-width="0.9578126376112066"/>
    <path id="ID0.4270821204409003" fill="#252525" stroke="none" stroke-linecap="round" d="M 71.6886 196.3013 L 52.0283 89.2603 L 68.6848 88.6716 L 75.819 91.7209 L 79.1186 95.1498 L 87.4559 104.9878 L 88.3862 115.0778 L 88.3292 120.4388 L 90.9481 126.7688 L 92.2317 131.9158 L 91.2758 138.8165 L 90.5568 144.0506 L 90.8584 153.0774 L 95.6127 173.7261 L 92.0417 182.3242 L 88.5002 188.963 L 71.6886 196.3013 Z " stroke-width="0.45605531970161484"/>
    <path id="ID0.4270821204409003" fill="#252525" stroke="none" stroke-linecap="round" d="M 71.688 196.405 L 52.5029 89.2778 L 36.7008 94.5764 L 31.0919 99.937 L 29.2068 104.3063 L 24.8557 116.4457 L 27.5282 126.2197 L 29.4644 131.2192 L 29.2354 138.0657 L 29.8412 143.3356 L 33.1598 149.461 L 35.6712 154.1092 L 38.5591 162.667 L 41.3594 183.67 L 47.7227 190.4663 L 46.8697 206.6546 L 71.688 196.405 Z " stroke-width="0.4560553208573387"/>
    <path id="ID0.5114514343440533" fill="#282828" stroke="none" d="M 28.0315 94.8134 L 77.5929 85.8241 L 92.7943 169.6346 L 43.2329 178.624 L 28.0315 94.8134 Z " stroke-width="0.9660237102854617"/>
    <path id="ID0.9286923445761204" fill="#D4D4D4" stroke="none" stroke-linecap="round" d="M 40.6868 79.0935 L 53.622 58.3683 L 50.2175 77.505 L 58.3689 115.7271 L 17.8793 94.58 L 34.8517 80.8992 L 40.6868 79.0935 Z " stroke-width="0.4560553904036264"/>
    <path id="ID0.9286923445761204" fill="#D4D4D4" stroke="none" stroke-linecap="round" d="M 55.7405 75.3163 L 39.8569 61.1493 L 49.7654 77.8713 L 57.7902 115.6493 L 86.0404 82.5014 L 65.5062 74.6426 L 55.7405 75.3163 Z " stroke-width="0.4560553904036264"/>
    <path id="ID0.39874776685610414" fill="#1F2022" stroke="none" stroke-linecap="round" d="M 33.2482 82.1011 L 53.5289 88.1052 L 68.6941 76.5644 L 72.8059 77.9157 L 53.9967 91.7238 L 30.0698 84.5962 L 33.2482 82.1011 Z " stroke-width="0.9033554864802262"/>
    <path id="ID0.13444371055811644" fill="#1F1F1F" stroke="none" stroke-linecap="round" d="M 51.6443 90.2386 L 56.5107 89.1108 L 64.0382 115.7021 L 52.8561 118.2208 L 51.6443 90.2386 Z " stroke-width="0.9578126376112066"/>
    <path id="ID0.751046194229275" fill="#191919" stroke="none" stroke-linecap="round" d="M 48.5982 85.9388 L 52.6194 83.2133 L 57.1873 84.381 L 58.9725 91.8801 L 55.0285 93.5666 L 49.9719 93.5126 L 48.5982 85.9388 Z " stroke-width="1.0535939081810382"/>
    <path id="ID0.7854711129330099" fill="#282828" stroke="none" stroke-linecap="round" d="M 44.0011 108.0296 L 58.6 113.9649 L 69.7784 102.3732 L 70.9226 119.3321 L 49.1811 123.2755 L 44.0011 108.0296 Z " stroke-width="0.9578126376112066"/>
    <path id="ID0.562834897544235" fill="#282828" stroke="none" stroke-linecap="round" d="M 40.6539 178.7737 L 67.9509 168.1823 L 71.439 187.4136 L 58.7964 190.9328 L 40.6539 178.7737 Z " stroke-width="0.9578126376112066"/>
    <path id="ID0.562834897544235" fill="#282828" stroke="none" stroke-linecap="round" d="M 97.6016 168.7684 L 68.3237 168.4384 L 71.8119 187.6697 L 84.8851 186.5247 L 97.6016 168.7684 Z " stroke-width="0.9578126376112066"/>
    <path id="ID0.6824178956449032" fill="none" stroke="#191919" stroke-width="1.9156252752224132" stroke-linecap="round" d="M 58.3755 114.2871 L 71.3622 187.2186 "/>
    <path id="ID0.4144489667378366" fill="#40474C" stroke="none" stroke-linecap="round" d="M 16.9196 91.8514 L 34.4778 80.8193 L 35.4189 101.9839 L 48.7933 158.4144 L 47.618 202.5245 L 36.4704 199.6417 L 36.8395 203.0081 L 31.3767 156.9139 L 19.4849 116.6453 L 15.7507 101.3824 L 16.9196 91.8514 Z " stroke-width="0.9578126376112066"/>
    <path id="ID0.5234400681219995" fill="#101010" stroke="none" d="M 61.4415 119.2913 C 61.8273 119.2213 62.2061 119.317 62.5061 119.5283 C 62.8061 119.7396 63.0273 120.0666 63.0984 120.4585 C 63.1694 120.8504 63.0772 121.2342 62.8705 121.5374 C 62.6639 121.8406 62.3428 122.0632 61.9569 122.1332 C 61.571 122.2032 61.1922 122.1075 60.8923 121.8962 C 60.5923 121.6849 60.3711 121.3579 60.3 120.966 C 60.2289 120.5741 60.3212 120.1903 60.5278 119.8871 C 60.7345 119.5839 61.0556 119.3613 61.4415 119.2913 Z " stroke-width="0.6034219456099621"/>
    <path id="ID0.5234400681219995" fill="#101010" stroke="none" d="M 63.7915 132.1913 C 64.1773 132.1213 64.5561 132.217 64.8561 132.4283 C 65.1561 132.6396 65.3773 132.9666 65.4484 133.3585 C 65.5194 133.7504 65.4272 134.1342 65.2205 134.4374 C 65.0139 134.7406 64.6928 134.9632 64.3069 135.0332 C 63.921 135.1032 63.5422 135.0075 63.2423 134.7962 C 62.9423 134.5849 62.7211 134.2579 62.65 133.866 C 62.5789 133.4741 62.6712 133.0903 62.8778 132.7871 C 63.0845 132.4839 63.4056 132.2613 63.7915 132.1913 Z " stroke-width="0.6034219456099621"/>
    <path id="ID0.5234400681219995" fill="#101010" stroke="none" d="M 69.2415 162.1413 C 69.6273 162.0713 70.0061 162.167 70.3061 162.3783 C 70.6061 162.5896 70.8273 162.9166 70.8984 163.3085 C 70.9694 163.7004 70.8772 164.0842 70.6705 164.3874 C 70.4639 164.6906 70.1428 164.9132 69.7569 164.9832 C 69.371 165.0532 68.9922 164.9575 68.6923 164.7462 C 68.3923 164.5349 68.1711 164.2079 68.1 163.816 C 68.0289 163.4241 68.1212 163.0403 68.3278 162.7371 C 68.5345 162.4339 68.8556 162.2113 69.2415 162.1413 Z " stroke-width="0.6034219456099621"/>
    <path id="ID0.5234400681219995" fill="#101010" stroke="none" d="M 66.6415 148.0413 C 67.0273 147.9713 67.4061 148.067 67.7061 148.2783 C 68.0061 148.4896 68.2273 148.8166 68.2984 149.2085 C 68.3694 149.6004 68.2772 149.9842 68.0705 150.2874 C 67.8639 150.5906 67.5428 150.8132 67.1569 150.8832 C 66.771 150.9532 66.3922 150.8575 66.0923 150.6462 C 65.7923 150.4349 65.5711 150.1079 65.5 149.716 C 65.4289 149.3241 65.5212 148.9403 65.7278 148.6371 C 65.9345 148.3339 66.2556 148.1113 66.6415 148.0413 Z " stroke-width="0.6034219456099621"/>
    <path id="ID0.5234400681219995" fill="#101010" stroke="none" d="M 71.5415 175.4413 C 71.9273 175.3713 72.3061 175.467 72.6061 175.6783 C 72.9061 175.8896 73.1273 176.2166 73.1984 176.6085 C 73.2694 177.0004 73.1772 177.3842 72.9705 177.6874 C 72.7639 177.9906 72.4428 178.2132 72.0569 178.2832 C 71.671 178.3532 71.2922 178.2575 70.9923 178.0462 C 70.6923 177.8349 70.4711 177.5079 70.4 177.116 C 70.3289 176.7241 70.4212 176.3403 70.6278 176.0371 C 70.8345 175.7339 71.1556 175.5113 71.5415 175.4413 Z " stroke-width="0.6034219456099621"/>
    <path id="ID0.4144489667378366" fill="#40474C" stroke="none" stroke-linecap="round" d="M 85.4468 78.6475 L 65.1325 74.4846 L 71.6844 94.6316 L 78.9805 152.1645 L 95.5725 193.0521 L 104.9976 186.4379 L 105.8342 189.7194 L 94.7607 144.6429 L 91.7525 102.763 L 89.8885 87.1608 L 85.4468 78.6475 Z " stroke-width="0.9578126376112066"/>
    <path id="ID0.8752945330925286" fill="none" stroke="#222222" stroke-width="1.9156252752224132" stroke-linecap="round" d="M 17.4302 92.004 L 15.7261 99.9154 L 25.2678 135.2151 "/>
    <path id="ID0.8752945330925286" fill="none" stroke="#222222" stroke-width="1.9156252752224132" stroke-linecap="round" d="M 85.7223 79.1698 L 90.0964 85.9787 L 93.5598 122.3809 "/>
    <path id="ID0.5234400681219995" fill="#101010" stroke="none" d="M 47.7415 166.6413 C 48.1273 166.5713 48.5061 166.667 48.8061 166.8783 C 49.1061 167.0896 49.3273 167.4166 49.3984 167.8085 C 49.4694 168.2004 49.3772 168.5842 49.1705 168.8874 C 48.9639 169.1906 48.6428 169.4132 48.2569 169.4832 C 47.871 169.5532 47.4922 169.4575 47.1923 169.2462 C 46.8923 169.0349 46.6711 168.7079 46.6 168.316 C 46.5289 167.9241 46.6212 167.5403 46.8278 167.2371 C 47.0345 166.9339 47.3556 166.7113 47.7415 166.6413 Z " stroke-width="0.6034219456099621"/>
    <path id="ID0.5234400681219995" fill="#101010" stroke="none" d="M 47.6415 173.7913 C 48.0273 173.7213 48.4061 173.817 48.7061 174.0283 C 49.0061 174.2396 49.2273 174.5666 49.2984 174.9585 C 49.3694 175.3504 49.2772 175.7342 49.0705 176.0374 C 48.8639 176.3406 48.5428 176.5632 48.1569 176.6332 C 47.771 176.7032 47.3922 176.6075 47.0923 176.3962 C 46.7923 176.1849 46.5711 175.8579 46.5 175.466 C 46.4289 175.0741 46.5212 174.6903 46.7278 174.3871 C 46.9345 174.0839 47.2556 173.8613 47.6415 173.7913 Z " stroke-width="0.6034219456099621"/>
    <g id="ID0.20783481979742646">
      <path id="ID0.5848579816520214" fill="#737373" stroke="none" stroke-linecap="round" d="M 80.5137 107.4182 L 86.6609 104.8318 L 87.2392 108.5526 L 80.5457 110.2571 L 80.5137 107.4182 Z " stroke-width="0.9578126376112066"/>
      <path id="ID0.13105127029120922" fill="none" stroke="#222222" stroke-width="1.9156252752224132" stroke-linecap="round" d="M 79.3264 110.7235 L 83.5344 109.9602 L 88.1854 107.6452 "/>
    </g>
  </g>
  <path id="ID0.46110434643924236" fill="#675B50" stroke="none" stroke-linecap="round" d="M 36.2068 61.7816 L 57.3543 57.9459 L 61.0557 75.8633 L 55.7543 79.6205 L 39.6691 80.8704 L 36.2068 61.7816 Z " stroke-width="1.0405048472656733"/>
  <g id="ID0.9597035455517471">
    <path id="ID0.5368814701214433" fill="#404040" stroke="none" stroke-linecap="round" d="M 139.7983 211.4124 L 137.6907 202.3659 L 136.7406 192.131 L 148.3085 191.9742 L 161.9002 192.6694 L 182.1942 192.4708 L 186.4917 197.4855 L 165.9767 211.287 L 145.9049 219.1557 L 139.7983 211.4124 Z " stroke-width="0.7702164921765663"/>
    <g id="ID0.5077062323689461">
      <path id="ID0.05466862628236413" fill="#252525" stroke="none" stroke-linecap="round" d="M 103.9583 147.7863 L 121.119 134.0928 L 126.8936 147.7041 L 128.7352 152.4255 L 135.913 165.0064 L 154.5748 192.6402 L 137.5014 205.5813 L 127.042 189.964 L 121.53 184.9741 L 116.6816 178.8437 L 112.5609 168.406 L 107.4583 159.6708 L 103.9583 147.7863 Z " stroke-width="0.5998532616188824"/>
      <path id="ID0.5319394422695041" fill="none" stroke="#131313" stroke-width="2.0000000597466254" stroke-linecap="round" d="M 153.9996 191.9408 L 137.5307 205.9529 L 130.9591 196.4627 "/>
    </g>
  </g>
  <g id="ID0.8820344842970371">
    <path id="ID0.3809091211296618" fill="#252525" stroke="none" stroke-linecap="round" d="M 76.1262 213.5673 L 45.0628 208.0465 L 60.3683 189.2231 L 89.9077 150.5802 L 97.4744 142.9255 L 108.0072 137.236 L 112.5482 144.2823 L 124.2961 151.3215 L 111.0915 170.3847 L 103.5147 181.0578 L 76.1262 213.5673 Z " stroke-width="0.7305889730988251"/>
    <path id="ID0.9495224836282432" fill="none" stroke="#131313" stroke-width="1.9999999214516093" stroke-linecap="round" d="M 90.1206 150.6261 L 95.8191 144.3191 L 102.6663 139.724 L 111.9901 142.0834 L 116.0841 139.0439 "/>
  </g>
  <g id="ID0.04595177713781595">
    <path id="ID0.7592270169407129" fill="none" stroke="#675B50" stroke-width="0.9987009043966121" stroke-linecap="round" d="M 58.2575 71.2944 C 58.2575 71.2944 58.4973 71.9463 58.5037 72.2872 C 58.5102 72.618 58.315 72.9307 58.2957 73.2611 C 58.2765 73.5936 58.4001 73.9231 58.3891 74.2558 C 58.3784 74.5865 58.3555 74.9299 58.2306 75.2373 C 58.1244 75.4986 57.7151 75.9129 57.7151 75.9129 "/>
    <path id="ID0.48112139804288745" fill="#3A3A3A" stroke="#3A3A3A" stroke-width="1.851392440864376" stroke-linecap="round" d="M 63.6524 34.0066 C 64.2893 34.2416 63.9091 35.659 64.2685 36.3763 C 64.5572 36.9523 65.2346 37.3047 65.4579 37.9088 C 65.6717 38.4884 65.5431 39.1453 65.5194 39.762 C 65.4533 41.5025 65.8523 43.7301 65.2075 45.1684 C 64.937 45.6701 64.1333 44.1484 63.6889 43.6421 C 62.7837 42.6286 61.8207 41.5721 61.1503 40.4631 C 60.8305 39.934 60.7806 39.2825 60.6289 38.6836 C 60.4788 38.0892 60.077 37.4727 60.2455 36.8821 C 60.4163 36.2827 61.0568 35.9173 61.535 35.5108 C 62.1586 34.9813 62.9225 33.8089 63.6524 34.0066 Z "/>
    <path id="ID0.05099705280736089" fill="#1C1916" stroke="#1C1916" stroke-width="1.9658421741267227" stroke-linecap="round" d="M 33.5294 56.9816 C 33.2456 57.1864 33.8349 58.2491 34.0985 58.9674 C 34.3243 59.582 34.8011 60.0871 35.256 60.5621 C 35.712 61.0379 36.2692 61.4134 36.8066 61.797 C 37.344 62.1806 37.9225 62.5082 38.4805 62.8638 C 39.0384 63.2193 39.5044 64.0694 40.1544 63.9305 C 40.8043 63.7916 41.2259 62.9287 41.2408 62.2725 C 41.2706 60.966 40.9024 59.6205 40.2801 58.4702 C 39.9669 57.8923 39.1994 57.6979 38.6062 57.4034 C 38.0141 57.1097 37.3982 56.8119 36.7423 56.7134 C 35.7844 56.5693 34.5676 56.0593 33.8325 56.6857 Z "/>
    <path id="ID0.8999492498114705" fill="#796B5E" stroke="none" stroke-linecap="round" d="M 51.0738 27.2896 C 55.4494 27.0614 60.4902 28.9335 63.1735 32.3436 C 66.2357 36.2372 65.5774 41.8664 66.2652 46.7113 C 66.5661 48.8374 66.1901 51.1314 66.0296 53.332 C 65.8009 56.4586 65.4072 59.4796 65.1333 62.4959 C 64.981 64.3258 65.6204 66.379 64.7508 67.8839 C 63.3672 70.2772 61.3981 72.8153 58.7572 73.6697 C 55.7055 74.6563 52.3526 73.344 49.1626 72.8724 C 47.5547 72.5832 45.6597 72.5224 44.4215 71.397 C 41.7673 68.9801 40.0731 65.6249 38.2037 62.6208 C 36.2411 59.4674 33.5351 56.5151 32.8903 52.8201 C 31.7937 46.5313 29.4635 38.9398 33.3766 33.6467 C 36.8271 28.6011 44.5696 27.6317 51.0738 27.2896 Z " stroke-width="0.4993605283986534"/>
    <path id="ID0.8194515448994935" fill="#796B5E" stroke="none" stroke-linecap="round" d="M 32.4055 48.9328 C 33.253 48.8829 33.9447 49.3347 34.6037 50.2765 C 35.2627 51.2182 35.7956 52.5788 36.0453 54.1352 C 36.295 55.6915 36.2146 57.1506 35.8832 58.2512 C 35.5519 59.3518 35.0312 59.9715 34.2157 60.2151 C 33.4669 60.4371 32.418 60.1811 31.9612 59.5877 C 31.0662 58.2496 30.9085 56.5172 30.5759 55.0127 C 30.2485 53.5341 29.6336 51.9493 30.003 50.5053 C 30.3387 49.6067 31.5173 48.9853 32.4055 48.9328 Z " stroke-width="0.9829210870633613"/>
    <path id="ID0.8256730306893587" fill="none" stroke="#675B50" stroke-width="0.9987207627634297" stroke-linecap="round" d="M 60.6298 62.7969 C 60.6298 62.7969 59.3581 62.3693 58.7219 62.5066 C 58.1196 62.5889 57.7623 63.3207 57.14 63.4157 C 56.4012 63.5281 55.6728 62.9666 54.9312 63.0356 C 53.7859 63.5688 52.4633 64.1274 52.4633 64.1274 "/>
    <path id="ID0.7592270169407129" fill="none" stroke="#675B50" stroke-width="0.9987210567973068" stroke-linecap="round" d="M 54.7112 66.1453 C 54.7112 66.1453 55.3719 66.3805 55.7168 66.3859 C 56.0516 66.3915 56.3671 66.1977 56.7013 66.1777 C 57.0376 66.1579 57.3716 66.2792 57.7082 66.2674 C 58.0428 66.2559 58.3902 66.2324 58.7006 66.1082 C 58.9646 66.0025 59.382 65.5969 59.382 65.5969 "/>
    <path id="ID0.7788236327469349" fill="#FFFFFF" stroke="none" stroke-linecap="round" d="M 43.8492 48.6366 L 45.1368 48.2322 L 47.2956 47.6385 L 49.4109 47.398 L 50.0521 49.5207 L 47.6544 50.4988 L 42.6704 50.6556 L 43.8492 48.6366 Z " stroke-width="0.9829210870633613"/>
    <path id="ID0.036129117012023926" fill="#5E3B21" stroke="none" d="M 47.6962 47.3259 C 48.0937 47.2622 48.4796 47.3634 48.7817 47.5791 C 49.0838 47.7947 49.302 48.1247 49.365 48.5171 C 49.4279 48.9096 49.3239 49.2913 49.1044 49.5906 C 48.885 49.8899 48.5501 50.1068 48.1526 50.1706 C 47.7551 50.2344 47.3692 50.1331 47.0671 49.9175 C 46.765 49.7019 46.5467 49.3719 46.4838 48.9794 C 46.4208 48.587 46.5249 48.2053 46.7443 47.906 C 46.9638 47.6067 47.2986 47.3897 47.6962 47.3259 Z " stroke-width="0.9829210870633613"/>
    <path id="ID0.9171876185573637" fill="#191009" stroke="none" d="M 48.2064 47.6536 C 48.4086 47.6212 48.6042 47.6728 48.7581 47.7827 C 48.912 47.8925 49.0229 48.0597 49.055 48.2593 C 49.087 48.4589 49.0339 48.6524 48.9221 48.8048 C 48.8103 48.9573 48.6407 49.0676 48.4385 49.1 C 48.2363 49.1325 48.0407 49.0808 47.8868 48.9709 C 47.7329 48.8611 47.622 48.694 47.5899 48.4943 C 47.5579 48.2947 47.611 48.1012 47.7228 47.9488 C 47.8346 47.7963 48.0042 47.686 48.2064 47.6536 Z " stroke-width="0.9829210870633613"/>
    <path id="ID0.7788236327469349" fill="#FFFFFF" stroke="none" stroke-linecap="round" d="M 62.7331 45.9172 L 60.9877 45.6533 L 59.0831 45.9589 L 56.9987 46.3922 L 57.0539 48.6089 L 59.6372 48.7879 L 64.1092 47.6252 L 62.7331 45.9172 Z " stroke-width="0.9829210870633613"/>
    <path id="ID0.036129117012023926" fill="#5E3B21" stroke="none" d="M 60.6962 45.3759 C 61.0937 45.3122 61.4796 45.4134 61.7817 45.6291 C 62.0838 45.8447 62.302 46.1747 62.365 46.5671 C 62.4279 46.9596 62.3239 47.3413 62.1044 47.6406 C 61.885 47.9399 61.5501 48.1568 61.1526 48.2206 C 60.7551 48.2844 60.3692 48.1831 60.0671 47.9675 C 59.765 47.7519 59.5467 47.4219 59.4838 47.0294 C 59.4208 46.637 59.5249 46.2553 59.7443 45.956 C 59.9638 45.6567 60.2986 45.4397 60.6962 45.3759 Z " stroke-width="0.9829210870633613"/>
    <path id="ID0.9171876185573637" fill="#191009" stroke="none" d="M 60.9564 45.7036 C 61.1586 45.6712 61.3542 45.7228 61.5081 45.8327 C 61.662 45.9425 61.7729 46.1097 61.805 46.3093 C 61.837 46.5089 61.7839 46.7024 61.6721 46.8548 C 61.5603 47.0073 61.3907 47.1176 61.1885 47.15 C 60.9863 47.1825 60.7907 47.1308 60.6368 47.0209 C 60.4829 46.9111 60.372 46.744 60.3399 46.5443 C 60.3079 46.3447 60.361 46.1512 60.4728 45.9988 C 60.5846 45.8463 60.7542 45.736 60.9564 45.7036 Z " stroke-width="0.9829210870633613"/>
    <path id="ID0.2118154256604612" fill="#1C1916" stroke="#1C1916" stroke-width="1.9658421741267227" stroke-linecap="round" d="M 31.2399 47.0323 C 31.2922 47.5333 31.9061 49.7296 32.8586 50.8774 C 33.2101 51.3008 33.1848 49.557 33.3948 48.9121 C 33.5981 48.287 33.9111 47.6967 34.1008 47.0678 C 34.3034 46.3953 34.4459 45.7038 34.5727 45.0139 C 34.6958 44.3452 34.7732 43.6662 34.8492 42.9912 C 34.9246 42.3244 34.8984 41.6431 35.0281 40.9843 C 35.157 40.3266 35.4063 39.6951 35.6209 39.0593 C 35.8364 38.4233 35.8723 37.6728 36.3191 37.1669 C 36.7785 36.6461 37.4871 36.3484 38.1641 36.1784 C 38.8133 36.0159 39.5035 36.197 40.1716 36.2025 C 40.8728 36.2077 41.5767 36.1808 42.2768 36.2109 C 42.9547 36.2397 43.6349 36.2957 44.3075 36.3797 C 44.9628 36.4615 45.6119 36.6046 46.2638 36.7087 C 46.9465 36.8178 47.6407 36.8795 48.3177 37.0221 C 48.9731 37.1603 49.5929 37.4584 50.2561 37.5518 C 50.9172 37.6446 51.6437 37.8267 52.2636 37.5759 C 52.8864 37.3237 53.2068 36.6234 53.6895 36.1602 C 54.1758 35.6944 54.6225 35.1757 55.1719 34.7849 C 55.7097 34.4028 56.3064 34.0885 56.927 33.8603 C 57.9792 33.4749 59.1687 32.8903 60.3889 32.9587 C 61.5579 33.0263 63.1882 34.7706 63.7517 34.249 C 64.2857 33.7498 63.056 31.961 62.3645 30.9107 C 61.6178 29.7783 60.5958 28.8097 59.4944 28.0082 C 58.4328 27.2359 57.2372 26.5652 55.9566 26.2514 C 54.6572 25.9327 53.274 26.1279 51.9339 26.155 C 51.2747 26.1678 50.6238 26.3316 49.965 26.372 C 49.3003 26.4124 48.6278 26.3235 47.9653 26.3961 C 46.6559 26.54 45.3164 26.6332 44.0585 27.023 C 42.749 27.4279 41.5778 28.1955 40.3297 28.7587 C 39.7113 29.038 39.0614 29.2521 38.4537 29.5543 C 37.2524 30.1526 36.0572 30.7766 34.9024 31.4594 C 34.3323 31.7962 33.7052 32.1026 33.2836 32.6094 C 32.8384 33.1437 32.7277 33.8836 32.3824 34.485 C 32.048 35.0668 31.5067 35.5335 31.2471 36.1508 C 30.9775 36.7935 30.9025 37.5058 30.824 38.1969 C 30.7501 38.8537 30.745 39.5212 30.7917 40.1804 C 30.8376 40.8288 31.0799 41.4585 31.1011 42.109 C 31.1234 42.779 30.9792 43.447 30.9222 44.1159 C 30.8753 44.6665 30.6346 45.2392 30.7868 45.7697 Z "/>
    <path id="ID0.5261953212320805" fill="none" stroke="#1C1916" stroke-width="1.9658421668223895" stroke-linecap="round" d="M 41.6758 48.7987 C 41.6758 48.7987 42.0983 47.4289 42.569 46.9146 C 43.0193 46.4223 43.6827 46.1454 44.3111 45.9167 C 44.9394 45.688 45.6381 45.7247 46.287 45.5613 C 47.5026 45.2539 49.9027 44.505 49.9027 44.505 "/>
    <path id="ID0.5261953212320805" fill="none" stroke="#1C1916" stroke-width="1.9658422030050953" stroke-linecap="round" d="M 64.4876 44.9721 C 64.4876 44.9721 63.6806 43.7875 63.0793 43.4346 C 62.504 43.0966 61.7884 43.0274 61.1206 42.9938 C 60.4528 42.9603 59.7959 43.201 59.1276 43.2359 C 57.8755 43.3001 55.3612 43.291 55.3612 43.291 "/>
    <path id="ID0.8619630038738251" fill="none" stroke="#675B50" stroke-width="1.1552937889613033" stroke-linecap="round" d="M 53.6272 48.1521 C 53.6272 48.1521 54.4048 50.889 54.7788 52.2107 C 54.9909 52.9527 54.9733 53.8263 55.4582 54.4269 C 56.0402 55.1037 57.1268 54.9114 57.4936 55.5535 C 57.9549 56.2125 58.2773 57.5175 57.6231 57.8289 C 56.6287 58.3017 55.4555 57.1472 54.2889 57.2303 C 53.6627 57.2756 52.7185 58.267 52.7185 58.267 "/>
    <path id="ID0.6736386958509684" fill="none" stroke="#675B50" stroke-width="1.23231895840134" stroke-linecap="round" d="M 42.616 57.0198 C 42.616 57.0198 43.2596 57.6606 43.6123 57.945 C 43.9341 58.2047 44.3099 58.3943 44.6358 58.6489 C 44.969 58.9092 45.3322 59.1529 45.587 59.4883 C 45.8456 59.8282 46.0668 60.2205 46.1483 60.6384 C 46.3667 61.761 46.4771 64.0579 46.4771 64.0579 "/>
    <path id="ID0.18298013787716627" fill="#1C1916" stroke="#1C1916" stroke-width="1.9658421741267227" stroke-linecap="round" d="M 39.0594 35.6222 C 38.6759 35.8856 38.3553 36.8529 38.6364 37.6684 C 39.0816 38.957 40.5398 40.1592 40.4761 41.3297 C 40.4443 41.9055 39.1006 41.3357 38.4454 41.1609 C 37.8069 40.9904 37.2425 40.6131 36.6559 40.3106 C 36.0236 39.9847 35.2255 39.8309 34.7867 39.2752 C 34.3807 38.7617 34.1824 38.0062 34.3308 37.3701 C 34.4795 36.73 35.0553 36.2291 35.5869 35.8332 C 36.1301 35.4286 36.807 35.2141 37.4629 35.0377 C 37.7405 34.9634 38.2083 34.8379 38.324 35.0973 Z "/>
    <path id="ID0.7592270169407129" fill="none" stroke="#675B50" stroke-width="0.9987156339214045" stroke-linecap="round" d="M 52.816 40.8825 C 52.816 40.8825 53.1383 41.4987 53.1887 41.8356 C 53.238 42.1627 53.0845 42.4968 53.108 42.8266 C 53.132 43.1585 53.2973 43.4696 53.3293 43.8007 C 53.3614 44.1297 53.383 44.4729 53.2988 44.793 C 53.2271 45.0652 52.8742 45.5267 52.8742 45.5267 "/>
    <path id="ID0.48112139804288745" fill="#3A3A3A" stroke="#3A3A3A" stroke-width="1.851392440864376" stroke-linecap="round" d="M 30.8256 40.5715 C 30.2942 40.994 31.0987 42.2212 30.9817 43.015 C 30.8878 43.6524 30.3547 44.199 30.3315 44.8427 C 30.3098 45.4601 30.6374 46.0437 30.8529 46.6221 C 31.4601 48.2546 31.7781 50.4951 32.8405 51.6595 C 33.2544 52.0515 33.5416 50.3547 33.8054 49.7348 C 34.348 48.4889 34.9322 47.1842 35.222 45.9211 C 35.3603 45.3186 35.2038 44.6841 35.1605 44.0679 C 35.1171 43.4563 35.3059 42.7451 34.9611 42.2368 C 34.6113 41.721 33.8886 41.5742 33.3072 41.3378 C 32.5493 41.0299 31.457 40.1554 30.8256 40.5715 Z "/>
  </g>
  <path id="ID0.01711640227586031" fill="none" stroke="#E13131" stroke-width="2" stroke-linecap="round" d="M 42.15 20.6 C 42.15 20.6 43.689 19.916 43.9 19.2 C 44.101 18.518 43.052 17.905 43.15 17.2 C 43.243 16.53 44.35 16.274 44.4 15.6 C 44.45 14.931 44.023 14.099 43.4 13.85 C 42.082 13.323 40.562 13.647 39.15 13.5 C 38.48 13.43 37.355 13.718 37.15 13.2 C 36.93 12.643 37.774 11.85 38.3 11.35 C 38.808 10.868 39.524 10.663 40.15 10.35 C 40.756 10.047 42.037 9.869 42 9.5 C 41.962 9.119 40.692 8.96 40 8.85 C 39.309 8.741 38.11 9.282 37.9 8.85 C 37.685 8.407 38.614 7.575 39.15 7.1 C 39.674 6.635 40.793 6.769 41 6.1 C 41.198 5.459 40.605 4.64 40 4.35 C 38.783 3.766 37.319 3.987 36 3.7 C 35.249 3.536 33.8 3 33.8 3 "/>
  <path id="ID0.01711640227586031" fill="none" stroke="#E13131" stroke-width="2.000000045866091" stroke-linecap="round" d="M 57.1309 20.8195 C 57.1309 20.8195 58.7631 21.2346 59.372 20.8027 C 59.9519 20.3914 59.5073 19.2607 60.0205 18.7675 C 60.5082 18.2988 61.5362 18.7828 61.9926 18.2843 C 62.4458 17.7897 62.6253 16.8719 62.29 16.2908 C 61.5808 15.0612 60.1863 14.375 59.1682 13.3858 C 58.6852 12.9162 57.6232 12.4462 57.7828 11.9124 C 57.9546 11.3388 59.1084 11.2381 59.831 11.1709 C 60.5283 11.1066 61.2176 11.3887 61.903 11.5302 C 62.5665 11.6672 63.6829 12.3201 63.8822 12.0074 C 64.0882 11.6846 63.189 10.7738 62.7134 10.2591 C 62.2381 9.7459 60.9615 9.4289 61.0639 8.9596 C 61.1691 8.4785 62.4137 8.3999 63.1287 8.3585 C 63.8281 8.3175 64.6242 9.1152 65.2008 8.7178 C 65.753 8.3368 65.794 7.3265 65.4982 6.7243 C 64.9036 5.5124 63.6169 4.78 62.7584 3.7383 C 62.27 3.1448 61.4634 1.827 61.4634 1.827 "/>
  <path id="ID0.01711640227586031" fill="none" stroke="#E13131" stroke-width="2.000000042818644" stroke-linecap="round" d="M 70.0096 29.8829 C 70.0096 29.8829 71.108 31.1597 71.8544 31.1555 C 72.5654 31.1515 72.8502 29.9704 73.5536 29.8612 C 74.222 29.7572 74.786 30.7436 75.4458 30.5973 C 76.1009 30.4525 76.7746 29.8039 76.8336 29.1356 C 76.9586 27.7217 76.2105 26.3594 75.9446 24.9649 C 75.8186 24.3032 75.2188 23.3088 75.6557 22.9633 C 76.1258 22.5922 77.1283 23.172 77.7586 23.5317 C 78.3665 23.8793 78.7691 24.5059 79.2491 25.0152 C 79.7138 25.5082 80.2533 26.6837 80.596 26.5419 C 80.9499 26.3958 80.7363 25.1338 80.6423 24.4395 C 80.5477 23.7464 79.6842 22.754 80.0374 22.4285 C 80.3997 22.095 81.464 22.745 82.0733 23.1214 C 82.6695 23.4893 82.8635 24.5994 83.5638 24.605 C 84.2347 24.6099 84.8481 23.8061 84.9516 23.1432 C 85.1603 21.8096 84.5269 20.4713 84.4218 19.1256 C 84.3626 18.3591 84.4585 16.8172 84.4585 16.8172 "/>
</svg>