<svg xmlns="http://www.w3.org/2000/svg" xmlns:xlink="http://www.w3.org/1999/xlink" version="1.1" width="268.56446340836425" height="339.5360515431299" viewBox="-1.3156185306973338 -2.1213185450426817 268.56446340836425 339.5360515431299">
  <defs>
    <linearGradient id="grad_1" y2="1" x2="0">
      <stop offset="0" stop-color="#FFFFFF" stop-opacity="1"/>
      <stop offset="1" stop-color="#FFFFFF" stop-opacity="0"/>
    </linearGradient>
    <linearGradient id="grad_2" y2="1" x2="0">
      <stop offset="0" stop-color="#FFFFFF" stop-opacity="1"/>
      <stop offset="1" stop-color="#FFFFFF" stop-opacity="0"/>
    </linearGradient>
    <linearGradient id="grad_3" y2="1" x2="0">
      <stop offset="0" stop-color="#FFFFFF" stop-opacity="1"/>
      <stop offset="1" stop-color="#FFFFFF" stop-opacity="0"/>
    </linearGradient>
    <linearGradient id="grad_4" y2="1" x2="0">
      <stop offset="0" stop-color="#FFFFFF" stop-opacity="1"/>
      <stop offset="1" stop-color="#FFFFFF" stop-opacity="0"/>
    </linearGradient>
    <linearGradient id="grad_5" y2="1" x2="0">
      <stop offset="0" stop-color="#FFFFFF" stop-opacity="1"/>
      <stop offset="1" stop-color="#FFFFFF" stop-opacity="0"/>
    </linearGradient>
    <linearGradient id="grad_6" y2="1" x2="0">
      <stop offset="0" stop-color="#FFFFFF" stop-opacity="1"/>
      <stop offset="1" stop-color="#FFFFFF" stop-opacity="0"/>
    </linearGradient>
  <linearGradient id="grad_1-.9547481536865234,0,0,2.9547481536865234,-653.2,-572.35" y2="48.4426" x2="58.0079" x1="58.0079" y1="25.3956" gradientUnits="userSpaceOnUse">
      <stop offset="0" stop-color="#FFFFFF" stop-opacity="1"/>
      <stop offset="1" stop-color="#FFFFFF" stop-opacity="0"/>
    </linearGradient><linearGradient id="grad_2-.9547481536865234,0,0,2.9547481536865234,-653.2,-572.35" y2="48.1471" x2="102.92" x1="102.92" y1="25.3956" gradientUnits="userSpaceOnUse">
      <stop offset="0" stop-color="#FFFFFF" stop-opacity="1"/>
      <stop offset="1" stop-color="#FFFFFF" stop-opacity="0"/>
    </linearGradient><linearGradient id="grad_3-.9547481536865234,0,0,2.9547481536865234,-653.2,-572.35" y2="48.7381" x2="136.3087" x1="136.3087" y1="25.691" gradientUnits="userSpaceOnUse">
      <stop offset="0" stop-color="#FFFFFF" stop-opacity="1"/>
      <stop offset="1" stop-color="#FFFFFF" stop-opacity="0"/>
    </linearGradient><linearGradient id="grad_4-.9547481536865234,0,0,2.9547481536865234,-653.2,-572.35" y2="48.1471" x2="173.2431" x1="173.2431" y1="24.5091" gradientUnits="userSpaceOnUse">
      <stop offset="0" stop-color="#FFFFFF" stop-opacity="1"/>
      <stop offset="1" stop-color="#FFFFFF" stop-opacity="0"/>
    </linearGradient><linearGradient id="grad_5-.9547481536865234,0,0,2.9547481536865234,-653.2,-572.35" y2="48.7381" x2="209.882" x1="209.882" y1="24.8046" gradientUnits="userSpaceOnUse">
      <stop offset="0" stop-color="#FFFFFF" stop-opacity="1"/>
      <stop offset="1" stop-color="#FFFFFF" stop-opacity="0"/>
    </linearGradient><linearGradient id="grad_6-.9547481536865234,0,0,2.9547481536865234,-653.2,-572.35" y2="48.1471" x2="246.5208" x1="246.5208" y1="25.3956" gradientUnits="userSpaceOnUse">
      <stop offset="0" stop-color="#FFFFFF" stop-opacity="1"/>
      <stop offset="1" stop-color="#FFFFFF" stop-opacity="0"/>
    </linearGradient></defs>
  <!-- Exported by Scratch - http://scratch.mit.edu/ -->
  <g id="ID0.8752029570750892">
    <g id="ID0.8782776007428765">
      <path id="ID0.6725782961584628" fill="url(#grad_1-.9547481536865234,0,0,2.9547481536865234,-653.2,-572.35)" d="M 78.3956 48.1471 L 78.3956 47.2607 C 81.3504 46.9652 81.3504 46.6697 81.3504 42.8286 L 81.3504 28.3503 C 78.3956 34.8507 73.668 44.8969 72.4861 48.1471 L 71.5997 48.1471 C 70.4178 44.8969 66.2812 35.1462 63.6219 28.6458 C 63.031 41.0557 63.031 43.715 63.031 44.6014 C 63.031 46.6697 63.9174 46.9652 66.2812 47.2607 L 66.2812 48.1471 L 58.0079 48.1471 L 58.0079 47.2607 C 60.0762 46.9652 60.9626 46.6697 61.2581 44.6014 C 61.5536 43.124 61.5536 41.6467 62.44 28.9412 C 62.44 27.1684 62.1445 26.5775 59.1898 26.282 L 59.1898 25.3956 L 65.3948 25.3956 L 73.3726 43.4195 L 81.6459 25.3956 L 87.8508 25.3956 L 87.8508 26.282 C 84.8961 26.5775 84.3051 26.8729 84.6006 29.5322 L 84.6006 43.124 C 84.6006 46.9652 84.8961 46.9652 87.8508 47.5562 L 87.8508 48.4426 L 78.3956 48.4426 Z " stroke-width="2.9547481536865234"/>
      <path id="ID0.6685515288263559" fill="url(#grad_2-.9547481536865234,0,0,2.9547481536865234,-653.2,-572.35)" d="M 121.535 42.5331 C 121.2395 43.4195 120.3531 46.9652 120.0576 48.1471 L 102.9201 48.1471 L 102.9201 47.2607 C 106.1703 46.9652 106.4658 46.6697 106.4658 43.715 L 106.4658 29.8277 C 106.4658 26.5775 106.1703 26.5775 103.511 26.282 L 103.511 25.3956 L 114.4436 25.3956 C 117.6938 25.3956 119.1712 25.3956 119.4666 25.3956 C 119.4666 26.282 119.7621 28.9412 119.7621 30.7141 L 118.5802 31.0096 C 118.2847 29.8277 117.9893 28.9412 117.3983 28.3503 C 116.8074 27.1684 115.9209 26.8729 113.8526 26.8729 L 110.6024 26.8729 C 109.4205 26.8729 109.4205 26.8729 109.4205 28.0548 L 109.4205 36.0326 L 113.2617 36.0326 C 115.9209 36.0326 116.2164 35.4417 116.5119 33.0779 L 117.6938 33.0779 L 117.6938 40.4648 L 116.5119 40.4648 C 115.9209 37.8055 115.6255 37.51 113.2617 37.51 L 109.4205 37.51 L 109.4205 44.6014 C 109.4205 46.9652 110.3069 47.2607 112.0798 47.2607 L 115.33 47.2607 C 117.3983 47.2607 117.9893 46.9652 118.5802 46.0788 C 119.1712 45.1924 120.0576 44.0105 120.3531 42.8286 L 121.535 42.5331 Z " stroke-width="2.9547481536865234"/>
      <path id="ID0.8592948471195996" fill="url(#grad_3-.9547481536865234,0,0,2.9547481536865234,-653.2,-572.35)" d="M 160.8331 26.282 C 158.4693 26.5775 157.8784 26.8729 157.5829 28.6458 C 157.5829 29.8277 157.5829 31.305 157.5829 34.5553 L 157.5829 48.7381 L 156.401 48.7381 L 141.3318 30.1231 L 141.3318 38.9874 C 141.3318 42.2376 141.3318 43.715 141.6273 44.8969 C 141.6273 46.6697 142.5137 47.2607 145.173 47.5562 L 145.173 48.4426 L 136.6042 48.4426 L 136.6042 47.5562 C 138.6725 47.2607 139.5589 46.9652 139.8544 45.1924 C 139.8544 44.0105 140.1499 42.5331 140.1499 39.2829 L 140.1499 30.1231 C 140.1499 29.2367 140.1499 28.6458 139.5589 27.7594 C 138.968 26.8729 138.0816 26.5775 136.3087 26.5775 L 136.3087 25.691 L 141.6273 25.691 L 156.6965 43.4195 L 156.6965 34.8507 C 156.6965 31.6005 156.6965 30.1231 156.401 28.9412 C 156.401 27.4639 155.5146 26.8729 152.5598 26.5775 L 152.5598 25.691 L 161.4241 25.691 L 161.4241 26.282 Z " stroke-width="2.9547481536865234"/>
      <path id="ID0.9346009567379951" fill="url(#grad_4-.9547481536865234,0,0,2.9547481536865234,-653.2,-572.35)" d="M 187.7213 48.1471 L 187.7213 47.2607 C 190.0851 46.9652 190.3806 46.6697 189.7896 45.1924 C 189.1987 43.715 188.6077 41.9421 188.0168 39.8738 L 180.3345 39.8738 C 179.7435 41.3512 179.1526 42.8286 178.8571 44.3059 C 177.9707 46.6697 178.5616 46.9652 181.5164 47.2607 L 181.5164 48.1471 L 173.2431 48.1471 L 173.2431 47.2607 C 175.6069 46.9652 175.9023 46.6697 177.3797 43.4195 L 184.7666 24.8046 L 185.9485 24.5091 C 188.3123 30.7141 190.6761 37.2145 192.7444 43.4195 C 193.9263 46.3743 194.2218 46.6697 196.5856 46.9652 L 196.5856 47.8516 L 187.7213 47.8516 Z M 184.1756 29.2367 C 182.9937 32.1915 181.8118 35.4417 180.6299 38.3964 L 187.1304 38.3964 L 184.1756 29.2367 Z " stroke-width="2.9547481536865234"/>
      <path id="ID0.17000851361081004" fill="url(#grad_5-.9547481536865234,0,0,2.9547481536865234,-653.2,-572.35)" d="M 231.1561 42.5331 C 230.5652 44.3059 229.6787 46.6697 229.0878 47.8516 C 228.2014 48.1471 225.2466 48.7381 222.5874 48.7381 C 214.0186 48.7381 209.8819 43.124 209.8819 36.9191 C 209.8819 29.8277 215.496 24.8046 223.1783 24.8046 C 226.1331 24.8046 228.7923 25.3956 229.9742 25.691 C 229.9742 27.1684 230.2697 29.5322 230.5652 31.305 L 229.3833 31.6005 C 228.7923 29.2367 227.9059 27.7594 226.1331 27.1684 C 225.2466 26.8729 223.7693 26.5775 222.2919 26.5775 C 216.3824 26.5775 213.4276 31.0096 213.4276 36.6236 C 213.4276 43.4195 216.9733 47.8516 222.5874 47.8516 C 226.1331 47.8516 227.9059 46.0788 229.6787 42.5331 L 231.1561 42.5331 Z " stroke-width="2.9547481536865234"/>
      <path id="ID0.09259189711883664" fill="url(#grad_6-.9547481536865234,0,0,2.9547481536865234,-653.2,-572.35)" d="M 265.1357 42.5331 C 264.8403 43.4195 263.9538 46.9652 263.6584 48.1471 L 246.5208 48.1471 L 246.5208 47.2607 C 249.771 46.9652 250.0665 46.6697 250.0665 43.715 L 250.0665 29.8277 C 250.0665 26.5775 249.771 26.5775 247.1118 26.282 L 247.1118 25.3956 L 258.0443 25.3956 C 261.2946 25.3956 262.7719 25.3956 263.0674 25.3956 C 263.0674 26.282 263.3629 28.9412 263.3629 30.7141 L 262.181 31.0096 C 261.8855 29.8277 261.59 28.9412 260.9991 28.3503 C 260.4081 27.1684 259.5217 26.8729 257.4534 26.8729 L 253.9077 26.8729 C 252.7258 26.8729 252.7258 26.8729 252.7258 28.0548 L 252.7258 36.0326 L 256.567 36.0326 C 259.2262 36.0326 259.5217 35.4417 259.8172 33.0779 L 260.9991 33.0779 L 260.9991 40.4648 L 259.8172 40.4648 C 259.2262 37.8055 258.9308 37.51 256.567 37.51 L 252.7258 37.51 L 252.7258 44.6014 C 252.7258 46.9652 253.6122 47.2607 255.3851 47.2607 L 258.6353 47.2607 C 260.7036 47.2607 261.2946 46.9652 261.8855 46.0788 C 262.4765 45.1924 263.3629 44.0105 263.6584 42.8286 L 265.1357 42.5331 Z " stroke-width="2.9547481536865234"/>
    </g>
    <path id="ID0.03453554445877671" fill="#FFFFFF" d="M 76.9786 10.817 C 75.4321 11.0379 75.2112 11.2588 75.2112 12.8053 L 75.2112 15.0145 C 75.2112 15.8982 75.2112 16.7819 75.4321 17.4446 C 73.8857 17.8865 71.6765 18.3283 69.4672 18.3283 C 63.5023 18.3283 59.7467 14.5727 59.7467 9.2705 C 59.7467 3.7475 64.386 0.4336 69.6882 0.4336 C 72.3392 0.4336 74.3275 0.8755 75.2112 1.0964 C 75.2112 1.9801 75.4321 3.7475 75.6531 5.2939 L 74.7694 5.5148 C 74.1066 3.3056 73.4438 2.201 71.6765 1.7592 C 71.0137 1.5382 69.9091 1.3173 69.2463 1.3173 C 65.2697 1.3173 62.6187 4.1893 62.6187 9.0496 C 62.6187 13.2471 64.8279 17.4446 69.9091 17.4446 C 70.7928 17.4446 71.6765 17.2237 72.1183 17.0028 C 72.7811 16.7819 73.002 16.34 73.002 15.2354 L 73.002 13.0262 C 73.002 11.0379 72.7811 10.817 70.3509 10.5961 L 70.3509 9.9333 L 77.1995 9.9333 L 77.1995 10.817 Z " stroke-width="2.209221363067627"/>
    <path id="ID0.6780291399918497" fill="#FFFFFF" d="M 103.0244 0.4336 C 107.6637 0.4336 111.6403 3.9684 111.6403 9.2705 C 111.6403 15.0145 107.6637 18.5493 102.8034 18.5493 C 97.7222 18.5493 93.9665 14.5727 93.9665 9.7124 C 93.9665 4.8521 97.2804 0.4336 103.0244 0.4336 Z M 102.3616 1.3173 C 99.4896 1.3173 96.6176 3.7475 96.6176 8.8287 C 96.6176 13.689 99.2687 17.4446 103.0244 17.4446 C 106.3382 17.4446 108.5474 15.0145 108.5474 9.9333 C 108.7683 4.4102 105.8963 1.3173 102.3616 1.3173 Z " stroke-width="2.209221363067627"/>
    <path id="ID0.27237664395943284" fill="#FFFFFF" d="M 146.2673 4.8521 C 146.0464 3.9684 145.6045 3.0847 145.3836 2.6429 C 144.9418 1.9801 144.7208 1.7592 143.1744 1.7592 L 140.5233 1.7592 L 140.5233 14.5727 C 140.5233 16.561 140.7442 17.0028 143.1744 17.0028 L 143.1744 17.6656 L 135.4421 17.6656 L 135.4421 17.0028 C 137.8722 16.7819 138.0932 16.561 138.0932 14.5727 L 138.0932 1.7592 L 135.663 1.7592 C 134.1166 1.7592 133.6747 1.9801 133.2329 2.6429 C 133.012 3.0847 132.791 3.7475 132.3492 4.8521 L 131.4655 4.8521 C 131.6864 3.3056 131.6864 1.5382 131.9073 -0.0082 L 132.5701 -0.0082 C 133.012 0.6546 133.2329 0.6546 133.8956 0.6546 L 144.279 0.6546 C 144.9418 0.6546 145.1627 0.6546 145.6045 -0.0082 L 146.2673 -0.0082 C 146.2673 1.3173 146.2673 3.0847 146.4882 4.6312 L 146.2673 4.8521 Z " stroke-width="2.209221363067627"/>
    <path id="ID0.5223182160407305" fill="#FFFFFF" d="M 186.7545 1.5382 C 184.5453 1.7592 184.3244 1.9801 184.3244 4.1893 L 184.3244 14.7936 C 184.3244 17.0028 184.5453 17.0028 186.7545 17.4446 L 186.7545 18.1074 L 179.685 18.1074 L 179.685 17.4446 C 181.8943 17.2237 182.1152 17.2237 182.1152 14.7936 L 182.1152 9.4914 L 173.0574 9.4914 L 173.0574 14.7936 C 173.0574 17.0028 173.2783 17.0028 175.4875 17.4446 L 175.4875 18.1074 L 168.418 18.1074 L 168.418 17.4446 C 170.6272 17.2237 170.8481 17.2237 170.8481 14.7936 L 170.8481 4.1893 C 170.8481 1.9801 170.6272 1.7592 168.418 1.5382 L 168.418 0.8755 L 175.4875 0.8755 L 175.4875 1.5382 C 173.2783 1.7592 173.0574 1.9801 173.0574 4.1893 L 173.0574 8.3868 L 182.1152 8.3868 L 182.1152 4.1893 C 182.1152 1.9801 181.8943 1.7592 179.685 1.5382 L 179.685 0.8755 L 186.7545 0.8755 L 186.7545 1.5382 Z " stroke-width="2.209221363067627"/>
    <path id="ID0.11777243064716458" fill="#FFFFFF" d="M 217.3003 17.8865 L 217.3003 17.2237 C 219.0677 17.0028 219.2886 16.7819 218.8468 15.6773 C 218.4049 14.5727 217.9631 13.2471 217.5212 11.7007 L 211.7772 11.7007 C 211.3354 12.8053 210.8936 13.9099 210.6726 15.0145 C 210.0099 16.7819 210.4517 17.0028 212.6609 17.2237 L 212.6609 17.8865 L 206.4751 17.8865 L 206.4751 17.2237 C 208.2425 17.0028 208.4634 16.7819 209.568 14.3517 L 215.0911 0.4336 L 215.9748 0.2127 C 217.7421 4.8521 219.5095 9.7124 221.056 14.3517 C 221.9397 16.561 222.1606 16.7819 223.928 17.0028 L 223.928 17.6656 L 217.3003 17.6656 Z M 214.6492 3.7475 C 213.7655 5.9567 212.8819 8.3868 211.9982 10.5961 L 216.8585 10.5961 L 214.6492 3.7475 Z " stroke-width="2.209221363067627"/>
    <path id="ID0.26843242160975933" fill="#FFFFFF" d="M 257.1712 17.8865 L 257.1712 17.2237 C 259.3805 17.0028 259.3805 16.7819 259.3805 13.9099 L 259.3805 3.0847 C 257.1712 7.945 253.6365 15.4563 252.7528 17.8865 L 252.09 17.8865 C 251.2063 15.4563 248.1134 8.1659 246.1251 3.3056 C 245.6833 12.5844 245.6833 14.5727 245.6833 15.2354 C 245.6833 16.7819 246.3461 17.0028 248.1134 17.2237 L 248.1134 17.8865 L 241.9276 17.8865 L 241.9276 17.2237 C 243.4741 17.0028 244.1368 16.7819 244.3578 15.2354 C 244.5787 14.1308 244.5787 13.0262 245.2414 3.5265 C 245.2414 2.201 245.0205 1.7592 242.8113 1.5382 L 242.8113 0.8755 L 247.4507 0.8755 L 253.4156 14.3517 L 259.6014 0.8755 L 264.2407 0.8755 L 264.2407 1.5382 C 262.0315 1.7592 261.5897 1.9801 261.8106 3.9684 L 261.8106 14.1308 C 261.8106 17.0028 262.0315 17.0028 264.2407 17.4446 L 264.2407 18.1074 L 257.1712 18.1074 Z " stroke-width="2.209221363067627"/>
  </g>
  <path id="ID0.801550043746829" fill="#0D0D0D" stroke="none" d="M 219.8 292.7706 L 0.7975 292.7706 L 0.7975 327.6016 L 219.8 327.6016 L 219.8 292.7706 Z " stroke-width="4.226237090004897"/>
  <g id="ID0.04457793105393648">
    <path id="ID0.22594426479190588" fill="#0D0D0D" stroke="none" d="M 159.0337 250.3137 L 134.9837 250.3137 L 134.9837 295.0965 L 159.0337 295.0965 L 159.0337 250.3137 Z " stroke-width="0.8293100595474243"/>
    <path id="ID0.05363947805017233" fill="#0D0D0D" stroke="none" stroke-linecap="round" d="M 137.8863 225.0198 L 113.2143 213.6167 L 112.5923 299.0357 L 137.8863 299.0357 L 137.8863 225.0198 Z " stroke-width="0.8293100595474243"/>
    <path id="ID0.667416746262461" fill="#0D0D0D" stroke="none" stroke-linecap="round" d="M 161.685 248.2404 L 130.3785 248.2404 L 130.3785 251.3503 L 161.685 251.3503 L 161.685 248.2404 Z " stroke-width="0.8293100595474243"/>
    <path id="ID0.6484990338794887" fill="#0D0D0D" stroke="none" stroke-linecap="round" d="M 140.3535 224.3672 L 110.7057 210.6835 L 110.913 213.7935 L 140.3535 228.0991 L 140.3535 224.3672 Z " stroke-width="0.8293100595474243"/>
  </g>
  <path id="ID0.06031869864091277" fill="#0D0D0D" stroke="none" d="M 199 278.6844 L 177.8526 278.6844 L 177.8526 330.1016 L 199 330.1016 L 199 278.6844 Z " stroke-width="0.7498287772344135"/>
  <path id="ID0.06031869864091277" fill="#0D0D0D" stroke="none" d="M 185.05 272.6344 L 169.2931 272.6344 L 169.2931 324.0516 L 185.05 324.0516 L 185.05 272.6344 Z " stroke-width="0.6819881755251397"/>
  <path id="ID0.06031869864091277" fill="#0D0D0D" stroke="none" d="M 170.95 283.8844 L 155.1931 283.8844 L 155.1931 335.3016 L 170.95 335.3016 L 170.95 283.8844 Z " stroke-width="0.6819881755251397"/>
  <path id="ID0.06031869864091277" fill="#0D0D0D" stroke="none" d="M 118.35 260.6344 L 102.5931 260.6344 L 102.5931 312.0516 L 118.35 312.0516 L 118.35 260.6344 Z " stroke-width="0.6819881755251397"/>
  <path id="ID0.06031869864091277" fill="#0D0D0D" stroke="none" d="M 108.85 279.6844 L 93.0931 279.6844 L 93.0931 331.1016 L 108.85 331.1016 L 108.85 279.6844 Z " stroke-width="0.6819881755251397"/>
  <g id="ID0.7887563877739012">
    <path id="ID0.5673744268715382" fill="#0D0D0D" stroke="none" stroke-linecap="round" d="M 95.0417 245.8573 L 66.2309 257.4677 L 65.5859 302.619 L 95.0417 302.619 L 95.0417 245.8573 Z " stroke-width="0.8600252270698547"/>
    <path id="ID0.40292380191385746" fill="#0D0D0D" stroke="none" stroke-linecap="round" d="M 96.9149 244.5086 L 63.7821 256.2355 L 64.1134 259.8561 L 97.7755 247.7439 L 96.9149 244.5086 Z " stroke-width="0.7262435129914663"/>
  </g>
  <path id="ID0.06031869864091277" fill="#0D0D0D" stroke="none" d="M 75.6 278.1344 L 49.0621 278.1344 L 49.0621 329.5516 L 75.6 329.5516 L 75.6 278.1344 Z " stroke-width="0.8293100595474243"/>
  <g id="ID0.04457793105393648">
    <path id="ID0.22594426479190588" fill="#0D0D0D" stroke="none" d="M 54.0837 265.2137 L 30.0337 265.2137 L 30.0337 309.9965 L 54.0837 309.9965 L 54.0837 265.2137 Z " stroke-width="0.8293100595474243"/>
    <path id="ID0.05363947805017233" fill="#0D0D0D" stroke="none" stroke-linecap="round" d="M 32.9363 239.9198 L 8.2643 228.5167 L 7.6423 313.9357 L 32.9363 313.9357 L 32.9363 239.9198 Z " stroke-width="0.8293100595474243"/>
    <path id="ID0.667416746262461" fill="#0D0D0D" stroke="none" stroke-linecap="round" d="M 56.785 263.1404 L 25.4785 263.1404 L 25.4785 266.2503 L 56.785 266.2503 L 56.785 263.1404 Z " stroke-width="0.8293100595474243"/>
    <path id="ID0.6484990338794887" fill="#0D0D0D" stroke="none" stroke-linecap="round" d="M 35.4535 239.3172 L 5.8057 225.6335 L 6.013 228.7435 L 35.4535 243.0491 L 35.4535 239.3172 Z " stroke-width="0.8293100595474243"/>
  </g>
</svg>