<svg xmlns="http://www.w3.org/2000/svg" xmlns:xlink="http://www.w3.org/1999/xlink" version="1.1" width="435.7645033597946" height="192.86450946331024" viewBox="-0.8650940954685211 -0.2650941014289856 435.7645033597946 192.86450946331024">
  <!-- Exported by Scratch - http://scratch.mit.edu/ -->
  <g id="ID0.39273888524621725">
    <g id="ID0.8914648843929172">
      <path id="ID0.6708827102556825" d="M 91.9 87 C 91.8 96.1 92 105.3 92.2 114.4 C 96 114.4 99.7 114.4 103.5 114.4 C 103.4 111.4 103.4 108.4 103.3 105.4 C 101.2 105.4 98.922 105.794 97 105.4 C 95.548 101.989 93.415 97.815 93.7 94.5 C 95.94 93.34 100.15 95.097 103.1 94.7 C 103.585 92.534 103.1 89.8 103.1 87.4 C 99.4 87.3 95.6 87.2 91.9 87 Z " stroke-width="1" fill="undefined"/>
      <path id="ID0.750841427128762" d="M 433.4 106.5 C 433.4 105.8 433.3 105 433.2 104.6 C 433.2 104.2 433.1 103.6 433.2 103.3 C 433.2 102.8 433.2 102.6 433.1 102.4 C 433 102.1 432.7 100.7 432.6 99.3 C 432.6 99 432.5 98.7 432.4 98.5 C 432.3 98.3 432.3 97.8 432.2 97.4 C 432.2 97 432.1 96.6 432 96.5 C 431.8 96.2 431.6 95.4 431.6 95.1 C 431.6 94.8 431.2 93.2 431 92.9 C 430.9 92.8 430.8 92.4 430.8 92.1 C 430.8 91.8 430.7 91.5 430.6 91.4 C 430.5 91.2 430.2 90.3 429.9 89.5 C 429.7 88.8 429.6 88.6 429.2 87.5 C 429 87 428.8 86.4 428.7 86.2 C 428.6 86 428.4 85.5 428.3 85.2 C 428.2 84.9 428.1 84.6 428.1 84.6 C 428.1 84.5 428 84.3 427.9 84 C 427.8 83.7 427.6 83.3 427.5 83 C 427.4 82.7 427.2 82.3 427.2 82.2 C 427.1 82.1 427.1 81.9 427.1 81.8 C 427.1 81.7 427 81.5 426.9 81.4 C 426.8 81.2 426.6 80.8 426.5 80.5 C 426.4 80.2 426.2 79.9 426.2 79.8 C 426.1 79.7 426 79.4 425.9 79.2 C 425.8 79 425.7 78.7 425.6 78.6 C 425.3 78 424.7 76.8 424.6 76.5 C 424.5 76.3 424.4 76.1 424.3 76 C 424.2 75.9 424.1 75.7 424.1 75.6 C 424.1 75.5 424.1 75.4 424 75.4 C 423.7 75.2 422.1 72.3 422.1 72 C 422.1 71.9 422 71.7 421.9 71.6 C 421.8 71.5 421.6 71.3 421.5 71.1 C 421.4 71 421.2 70.6 421 70.3 C 420.8 70 420.5 69.6 420.4 69.4 C 420.3 69.2 420 68.8 419.8 68.4 C 418.5 66.4 418.1 65.8 417.5 64.9 C 417.1 64.3 416.7 63.7 416.6 63.5 C 416.5 63.3 416.2 62.9 416 62.6 C 415.8 62.3 415.4 61.9 415.2 61.6 C 415 61.3 414.8 61 414.8 61 C 414.7 61 414.1 60.2 413.1 58.8 C 412.9 58.6 412.6 58.2 412.4 57.9 C 412.2 57.6 411.8 57.2 411.7 57 C 411.5 56.8 411.2 56.4 411 56.1 C 410.8 55.8 410.2 55.2 409.8 54.6 C 409.4 54.1 409 53.6 409 53.6 C 409 53.6 408.8 53.4 408.6 53.1 C 408.4 52.9 408 52.4 407.7 52.1 C 407.4 51.8 407 51.3 406.8 51.1 C 406.6 50.9 405.9 50.2 405.4 49.5 C 404.8 48.8 404.3 48.2 404.2 48.2 C 403 47.1 402.3 46.3 402.2 46.1 C 402.2 46 402 45.9 401.9 45.8 C 401.5 45.6 401 45.1 401 44.9 C 401 44.8 400.1 44 400 44 C 399.9 44 399.8 43.9 399.6 43.7 C 399.4 43.5 399.2 43.3 399.2 43.3 C 399.1 43.3 398.6 42.8 398.1 42.3 C 397.6 41.8 396.9 41.2 396.7 41 C 396.4 40.8 396.1 40.5 396.1 40.4 C 396 40.3 395.9 40.2 395.9 40.2 C 395.7 40.2 394.9 39.4 394.9 39.2 C 394.9 38.9 394.8 38.8 394.5 38.8 C 394.3 38.8 394.1 38.7 393.9 38.5 C 393.8 38.4 393.5 38.1 393.4 38 C 392.8 37.6 390.2 35.4 390 35.1 C 389.9 35 389.6 34.7 389.4 34.6 C 389.2 34.5 388.8 34.1 388.5 33.9 C 388 33.5 387.5 33.1 387.2 32.9 C 387.1 32.8 386.9 32.7 386.8 32.6 C 386.7 32.5 386.3 32.2 386 32 C 385.7 31.8 385.4 31.6 385.3 31.5 C 385.2 31.4 385 31.3 384.9 31.1 C 384.7 31 384.5 30.8 384.4 30.7 C 384.3 30.6 384.1 30.4 384 30.4 C 383.7 30.2 382.5 29.4 381.7 28.7 C 381.3 28.4 381 28.2 381 28.2 C 381 28.2 380.8 28.1 380.6 27.9 C 380.4 27.8 380.2 27.6 380.1 27.5 C 379.7 27.3 378.6 26.5 378.6 26.4 C 378.6 26.3 378.4 26.1 378.1 26.1 C 378 26.1 377.8 26 377.5 25.7 C 377.3 25.5 377.1 25.3 377 25.3 C 376.9 25.3 376.6 25.1 376.2 24.9 C 375.8 24.7 375.4 24.4 375.2 24.3 C 375 24.2 374.8 24 374.7 23.9 C 374.6 23.8 374.4 23.6 374.2 23.6 C 373.9 23.5 373.3 23.1 372.3 22.5 C 372 22.3 371.4 21.9 369.3 20.6 C 368.9 20.3 368.5 20.1 368.5 20 C 368.5 20 368.4 19.9 368.2 19.8 C 367.8 19.6 366.9 19.2 366.5 18.9 C 366.3 18.8 366.1 18.6 365.9 18.6 C 365.8 18.5 365.3 18.3 364.8 18 C 364.4 17.7 363.5 17.3 363 17 C 362.4 16.7 361.8 16.4 361.7 16.3 C 361.6 16.2 361.3 16 361.1 16 C 360.9 16 360.4 15.7 360 15.5 C 359.2 15.1 358.3 14.6 357.3 14.1 C 356.9 13.9 356.6 13.7 356.5 13.7 C 356.4 13.6 356.3 13.6 356.3 13.6 C 356.2 13.6 356.1 13.5 356 13.4 C 355.9 13.3 355.6 13.2 355.5 13.2 C 355.3 13.2 354.6 12.9 353.9 12.5 C 353.2 12.1 352.5 11.8 352.5 11.8 C 352.5 11.8 352.1 11.6 351.6 11.4 C 351.2 11.2 350.8 11 350.7 11 C 350.6 11 349.8 10.6 349.5 10.4 C 349.3 10.3 349.1 10.2 349.1 10.2 C 349.1 10.2 348.8 10.1 348.6 10 C 348.4 9.9 348.2 9.8 348.1 9.8 C 348 9.8 347.8 9.7 347.5 9.6 C 347.3 9.5 347 9.4 346.9 9.3 C 346.8 9.3 346.6 9.2 346.4 9.1 C 346.3 9 346.1 9 346 9 C 345.9 9 345.5 8.8 345 8.6 C 344.5 8.4 344 8.2 343.7 8.1 C 343.5 8 343 7.9 342.6 7.7 C 342.2 7.6 341.7 7.4 341.5 7.3 C 341.2 7.2 340.9 7.1 340.8 7 C 340.7 6.9 340.5 6.8 340.3 6.8 C 340.1 6.8 339.8 6.7 339.6 6.6 C 339.4 6.5 338.8 6.3 338.3 6.2 C 337.8 6 337.2 5.9 337.1 5.8 C 336.4 5.5 335.7 5.2 335.4 5.2 C 335.3 5.2 335.1 5.1 334.8 5 C 334.6 4.9 334.2 4.8 333.9 4.7 C 333.6 4.6 333.3 4.5 333.2 4.4 C 333 4.2 332.9 4.2 332.7 4.2 C 332.5 4.2 332.3 4.2 332.1 4.1 C 331.9 4 331.6 3.9 331.2 3.9 C 330.8 3.9 330.4 3.8 330.2 3.7 C 330 3.6 329.6 3.5 329.3 3.5 C 329 3.5 328.5 3.3 328.1 3.2 C 327.7 3.1 327.3 3 327.2 3 C 327.1 3 326.8 2.9 326.5 2.9 C 326.2 2.8 325.8 2.8 325.5 2.7 C 325.2 2.7 324.8 2.6 324.6 2.5 C 324.4 2.4 324 2.4 323.9 2.4 C 323.7 2.4 323.4 2.3 323.1 2.2 C 322.7 2.1 322 1.9 321.1 1.7 C 320 1.5 319.8 1.4 319.5 1.3 C 319.3 1.2 319 1.1 318.8 1.1 C 318.6 1.1 318.1 1 317.7 0.9 C 316.9 0.7 316.8 0.7 316.7 0.8 C 316.6 1 316.8 1.3 317 1.4 C 317.3 1.5 317.9 2.2 318.2 2.7 C 318.3 2.9 318.5 3.1 318.6 3.2 C 318.8 3.3 319 3.5 319.4 4.2 C 319.5 4.3 319.6 4.5 319.7 4.5 C 319.8 4.5 320.7 5.4 320.8 5.7 C 320.9 5.8 321 6 321.2 6.1 C 321.3 6.2 321.5 6.4 321.6 6.6 C 321.7 6.8 321.9 7 322 7.1 C 322.1 7.2 322.3 7.3 322.4 7.4 C 322.5 7.5 322.8 7.8 323.1 8.1 C 323.4 8.4 323.7 8.8 323.8 9 C 323.9 9.2 324.1 9.4 324.2 9.4 C 324.3 9.5 324.5 9.7 324.6 9.9 C 324.7 10.1 325 10.5 325.3 10.8 C 325.6 11.1 326.1 11.9 326.6 12.6 C 327.6 14.1 327.7 14.2 327.9 14.7 C 328 14.9 328.2 15.2 328.3 15.3 C 328.5 15.6 329.2 17 329.6 18.1 C 329.8 18.6 330 19.1 330.1 19.2 C 330.1 19.2 330.2 19.4 330.2 19.5 C 330.2 19.6 330.2 19.8 330.3 19.9 C 330.4 20.1 330.8 21.4 330.9 22.2 C 331 22.5 331 22.9 331.1 23 C 331.1 23.1 331.2 23.4 331.2 23.7 C 331.2 24 331.2 24.2 331.3 24.4 C 331.5 24.7 331.5 26.1 331.4 28 C 331.3 29.8 331.2 30.7 330.9 31.9 C 330.8 32.1 330.7 32.6 330.7 32.9 C 330.6 33.2 330.5 33.7 330.4 33.9 C 330.3 34.1 330.2 34.5 330.1 34.8 C 329.9 35.4 329.5 36.4 329.2 36.7 C 329.1 36.8 329 37.1 329 37.2 C 329 37.3 328.9 37.5 328.8 37.6 C 328.7 37.7 328.6 37.9 328.6 38.1 C 328.5 38.5 327.8 39.7 327.5 40.1 C 327.4 40.3 327.2 40.5 327.1 40.6 C 327 40.7 326.9 40.9 326.8 40.9 C 326.7 40.9 326.6 41 326.6 41.1 C 326.6 41.3 326.4 41.6 326.2 41.7 C 326.1 41.8 326 41.9 325.9 42.1 C 325.8 42.4 325.5 42.8 325 43.3 C 324.9 43.4 324.7 43.6 324.7 43.7 C 324.5 44 323.6 45 322.9 45.7 C 322.6 46 322.2 46.4 322.1 46.5 C 321 47.7 318.8 49.6 318.3 49.9 C 318.2 49.9 317.9 50.1 317.7 50.3 C 317.3 50.7 315.5 52 315.3 52 C 315.3 52 315.1 52.1 314.9 52.3 C 314.5 52.6 314.1 52.8 313.7 53 C 313.5 53.1 313.4 53.2 313.3 53.4 C 313.2 53.5 313.1 53.7 313 53.8 C 312.9 53.9 312.5 54.1 312.1 54.4 C 311.7 54.6 311.3 54.8 311.3 54.8 C 311.2 54.8 311 54.9 310.8 55.1 C 310.6 55.2 310.3 55.4 310.1 55.5 C 309 56.1 308.6 56.3 308.2 56.4 C 308 56.5 307.7 56.6 307.6 56.7 C 307.5 56.8 307.4 56.8 307.3 56.8 C 307.2 56.8 307 56.9 307 57 C 306.8 57.2 304.9 58.2 304.8 58.2 C 304.8 58.2 304.2 58.5 303.5 58.8 C 302.1 59.5 301.2 59.9 300.6 60.1 C 300.3 60.2 299.9 60.3 299.7 60.5 C 298.5 61.1 295.9 62 295.4 62 C 295.2 62 295 62.1 294.8 62.2 C 294.6 62.3 294.1 62.5 293.7 62.6 C 293.3 62.7 292.8 62.9 292.6 63 C 292.4 63.1 292.2 63.2 292 63.2 C 291.8 63.2 291.7 63.3 291.6 63.3 C 291.5 63.4 291.2 63.5 290.8 63.6 C 290.5 63.7 290.2 63.8 290.1 63.8 C 290.1 63.8 289.5 64 287.6 64.5 C 287.3 64.6 286.9 64.7 286.7 64.7 C 286.5 64.7 286.2 64.8 286 64.9 C 285.1 65.2 284.7 65.3 284.2 65.3 C 283.9 65.3 283.6 65.4 283.5 65.4 C 283.3 65.5 282.3 65.7 282 65.7 C 281.9 65.7 281.4 65.8 281 65.9 C 280.6 66 279.8 66.2 279.2 66.3 C 278.7 66.4 278 66.5 277.8 66.6 C 277.5 66.7 277.1 66.7 276.8 66.7 C 276.5 66.7 276.1 66.8 275.9 66.8 C 275.7 66.9 275.3 66.9 275.1 66.9 C 274.9 66.9 274.6 66.9 274.4 67 C 274 67.1 273.3 67.3 272.5 67.4 C 271.6 67.5 270.8 67.6 270.2 67.7 C 269.9 67.7 269.6 67.8 269.4 67.7 C 269.3 67.7 269 67.7 268.8 67.8 C 268.6 67.9 268 67.9 267.5 67.9 C 267 67.9 266.5 68 266.4 68 C 266.2 68.1 265.3 68.1 262.6 68.2 C 261.8 68.2 261.1 68.3 261 68.3 C 260.9 68.3 260.6 68.4 260.5 68.4 C 260.4 68.4 260.1 68.4 259.9 68.5 C 259.7 68.6 255.1 68.7 252.6 68.7 C 250.5 68.7 246.2 68.6 245.9 68.5 C 245.7 68.5 245.5 68.4 245.3 68.5 C 244.9 68.6 244.7 68.4 244.5 67.8 C 244.4 67.5 244.3 67.1 244.2 66.9 C 244.2 66.8 244.1 66.6 244.1 66.5 C 244 66.4 244 66.1 244 65.9 C 244 65.7 243.9 65.2 243.7 65 C 243.6 64.7 243.4 64.3 243.4 64 C 243.3 63.5 243 62.5 242.8 61.7 C 242.7 61.5 242.6 61.1 242.6 60.8 C 242.5 60.5 242.4 60.1 242.4 59.9 C 242.3 59.7 242.3 59.4 242.3 59.2 C 242.3 59.1 242.3 58.8 242.2 58.6 C 242.1 58.4 242 58 242 57.7 C 241.9 57.4 241.9 57 241.8 56.8 C 241.6 55.9 241.5 55.4 241.4 54.9 C 241.4 54.6 241.3 54.2 241.2 54 C 241 53.6 240.8 52.5 240.7 51.7 C 240.7 51.4 240.6 51 240.6 51 C 240.5 50.9 240.4 50.1 240.3 49 C 240.3 48.7 240.2 48.4 240.2 48.4 C 240.2 48.3 240.1 48.1 240.1 47.8 C 240.1 47.5 240 47.1 240 46.8 C 239.7 45 239.5 43.7 239.4 43.1 C 239.4 42.7 239.3 42.2 239.2 41.9 C 239.2 41.6 239.1 41.2 239.1 41 C 239.1 40.8 239 40.4 239 40.1 C 238.9 39.8 238.9 39.4 238.8 39.1 C 238.8 38.8 238.7 38.2 238.7 37.9 C 238.7 37.5 238.6 36.9 238.6 36.5 C 238.6 36.1 238.5 35.4 238.4 35 C 238.4 34.6 238.3 33.6 238.2 32.7 C 238.1 31.7 238.1 31 238 30.8 C 237.9 30.6 237.8 30.1 237.8 29.6 C 237.7 29.1 237.6 28.6 237.5 28.3 C 237.4 28 237.3 27.6 237.3 27.3 C 237.3 27 237.3 26.7 237.2 26.6 C 237.1 26.5 237.1 26.3 237.1 26.2 C 237.1 26.1 237.1 25.9 237 25.8 C 236.9 25.6 236.9 25.4 236.9 25.3 C 236.9 25.2 236.9 25 236.8 25 C 236.8 24.9 236.7 24.5 236.6 24.2 C 236.4 23.2 236.3 22.4 236.2 22.3 C 236.1 22.2 236 21.4 236 20.9 C 236 20.5 235.7 19.8 235.5 19.8 C 235.4 19.8 235.1 20.2 235.1 20.3 C 235.1 20.4 235 20.5 235 20.6 C 234.9 20.7 234.9 20.9 234.9 21.1 C 234.9 21.3 234.8 21.5 234.7 21.7 C 234.6 21.8 234.5 22.1 234.5 22.4 C 234.5 22.6 234.4 22.9 234.3 23.1 C 234.2 23.3 234.2 23.4 234.2 23.5 C 234.2 23.6 234.1 23.8 234 24.1 C 233.9 24.4 233.7 24.8 233.6 25 C 233.5 25.2 233.4 25.6 233.3 25.8 C 233.2 26 233.1 26.3 233 26.5 C 232.9 26.6 232.8 26.8 232.8 26.9 C 232.8 27 232.7 27.3 232.6 27.6 C 232.5 27.9 232.4 28.1 232.4 28.2 C 232.4 28.3 232.4 28.4 232.3 28.5 C 232.2 28.6 232.1 28.8 232.1 29 C 232 29.2 231.9 29.5 231.9 29.6 C 231.8 29.9 231.3 31.1 231.2 31.5 C 231.2 31.6 231.1 31.9 231 32.1 C 230.9 32.3 230.8 32.5 230.8 32.6 C 230.8 32.7 230.7 33 230.6 33.2 C 230.5 33.4 230.4 33.7 230.4 33.7 C 230.4 33.7 230.3 33.9 230.2 34.1 C 230.1 34.3 230 34.5 230 34.6 C 230 34.9 229.5 36 229.3 36.1 C 229.2 36.1 229.2 36.2 229.2 36.3 C 229.3 36.5 228.9 37.8 228.5 38.5 C 228.4 38.7 228.2 39.2 228.1 39.5 C 228 39.8 227.8 40.3 227.7 40.7 C 227.6 41 227.4 41.3 227.4 41.4 C 227.4 41.5 227.3 41.6 227.2 41.7 C 227.1 41.8 227 42.1 227 42.3 C 226.9 42.8 226.8 43.2 226.5 43.9 C 226.4 44.2 226.2 44.7 226.2 44.9 C 226.1 45.1 226 45.3 225.9 45.5 C 225.8 45.6 225.7 45.8 225.7 45.9 C 225.7 46 225.6 46.2 225.5 46.4 C 225.4 46.6 225.3 46.9 225.3 47.1 C 225.2 47.5 225 47.8 224.8 47.7 C 224.6 47.6 223.7 47.6 223.3 47.6 C 223.2 47.6 222.4 47.6 221.7 47.6 C 218.4 47.6 215.2 47.6 214.1 47.7 C 213.8 47.7 212.9 47.8 212.2 47.8 C 211.5 47.8 210.8 47.9 210.8 47.9 C 210.8 47.9 210.6 47.9 210.5 47.9 C 210.3 47.9 210.1 47.4 209.7 46.4 C 209.2 45 209 44.4 208.8 43.9 C 208.7 43.7 208.6 43.4 208.6 43.3 C 208.6 43.2 208.5 43 208.4 42.8 C 208.3 42.6 208.2 42.4 208.2 42.3 C 208.2 42.2 208.1 42 208 41.8 C 207.9 41.6 207.8 41.3 207.8 41.2 C 207.8 41.1 207.6 40.7 207.4 40.3 C 207.2 39.9 207 39.4 207 39.2 C 206.9 39 206.8 38.6 206.7 38.5 C 206.6 38.3 206.5 38.1 206.5 38 C 206.5 37.9 206.4 37.7 206.3 37.4 C 206.2 37.1 206.1 36.8 206.1 36.7 C 206.1 36.6 206 36.4 205.9 36.3 C 205.8 36.2 205.7 36.1 205.7 36 C 205.7 35.9 205.4 35 205.1 34.3 C 205 34 204.8 33.6 204.7 33.4 C 204.6 33.2 204.6 33 204.5 33 C 204.5 33 204.3 32.6 204.2 32.1 C 204 31.7 203.8 31.2 203.8 31 C 203.7 30.8 203.6 30.4 203.4 30.1 C 203.1 29.3 202.7 28.2 202.2 27.3 C 201.9 26.7 200.9 24.8 200.8 24.6 C 200.5 23.9 199.2 21.4 199.1 21.4 C 199 21.4 198.8 21.7 198.7 22.5 C 198.6 22.9 198.6 23.3 198.5 23.4 C 198.5 23.5 198.4 23.8 198.4 23.9 C 198.4 24 198.3 24.3 198.3 24.5 C 198.2 24.8 198.1 25.2 198 26.4 C 198 26.7 197.9 27.2 197.8 27.4 C 197.7 27.8 197.6 28.4 197.4 29.2 C 197.4 29.5 197.3 29.8 197.3 29.8 C 197.3 29.9 197.2 30.1 197.2 30.4 C 197.1 31.4 196.9 32.9 196.8 33.3 C 196.8 33.5 196.7 34.2 196.7 34.8 C 196.7 35.4 196.6 36.2 196.6 36.7 C 196.6 37.1 196.5 37.9 196.4 38.4 C 196.3 39.3 196.2 40.2 196.1 40.8 C 196.1 40.9 196 41.4 196 41.9 C 196 42.4 195.9 43 195.8 43.2 C 195.8 43.4 195.7 43.9 195.6 44.3 C 195.6 44.6 195.5 45.5 195.4 46.1 C 195.3 46.7 195.2 47.4 195.2 47.4 C 195.1 47.5 195.1 47.9 195.1 48.3 C 195.1 48.7 195 49.6 194.8 50.2 C 194.6 50.8 194.6 51.5 194.5 51.8 C 194.5 52.1 194.4 52.3 194.4 52.5 C 194.4 52.6 194.3 53 194.3 53.3 C 194.3 53.6 194.2 54.1 194.1 54.3 C 194 54.5 193.9 54.9 193.9 55.2 C 193.9 55.5 193.8 56 193.7 56.3 C 193.6 56.6 193.5 56.9 193.5 57 C 193.5 57.1 193.4 57.3 193.3 57.5 C 193.1 57.7 193.1 57.8 193.1 58.1 C 193.1 58.4 193.1 58.7 192.5 60.7 C 192.4 61.3 192.2 61.9 192.2 62 C 192.2 62.2 192.1 62.5 192 62.7 C 191.9 62.9 191.8 63.4 191.7 63.7 C 191.6 64 191.5 64.4 191.4 64.5 C 191.2 64.8 190.9 65.6 190.9 66 C 190.9 66.1 190.8 66.4 190.8 66.6 C 190.7 66.8 190.6 67 190.6 67.2 C 190.6 67.3 190.5 67.5 190.4 67.6 C 190.3 67.7 190.3 67.9 190.3 68 C 190.3 68.1 190.2 68.3 190.1 68.4 L 189.9 68.6 L 185.2 68.6 C 182.6 68.6 179.7 68.6 178.6 68.5 C 177.5 68.4 176.2 68.4 175.6 68.4 C 175 68.4 174.2 68.3 173.7 68.3 C 173.3 68.3 172.8 68.2 172.5 68.2 C 172.3 68.2 171.6 68.2 171.1 68.1 C 170.6 68.1 169.8 68 169.3 68 C 168.8 68 168.4 67.9 168.3 67.8 C 168.2 67.7 168 67.7 167.5 67.7 C 167.2 67.7 166.6 67.7 166.2 67.7 C 165.8 67.7 165 67.6 164.4 67.6 C 163.8 67.6 163 67.5 162.7 67.4 C 162.4 67.3 161.7 67.2 161.2 67.2 C 159.9 67.1 157.9 66.8 157 66.6 C 156.8 66.5 156.5 66.5 156.3 66.5 C 155.9 66.5 154.6 66.3 154.5 66.2 C 154.4 66.1 153.7 66 152.4 65.8 C 151.5 65.7 150.6 65.4 150.4 65.2 C 150.3 65.1 150.2 65.1 150 65.1 C 149.9 65.2 149.7 65.2 149.5 65.1 C 149.3 65.1 149.2 65 149.1 65 C 148.6 64.9 148.1 64.8 147.7 64.7 C 147.4 64.6 147 64.5 146.8 64.5 C 146 64.4 143.6 63.8 142.8 63.5 C 142.6 63.4 142.4 63.4 142.3 63.4 C 141.9 63.4 138.8 62.4 138.4 62.1 C 138.3 62 138 61.9 137.9 61.9 C 137.5 61.9 136.8 61.7 136.6 61.5 C 136.5 61.3 136.4 61.3 136.2 61.3 C 135.9 61.4 134.8 61 134.6 60.7 C 134.5 60.6 134.3 60.5 134.1 60.5 C 133.9 60.5 133.7 60.4 133.6 60.3 C 133.5 60.2 133.1 60.1 132.8 60 C 132.5 59.9 132 59.7 131.6 59.5 C 131.2 59.3 130.9 59.2 130.8 59.2 C 130.7 59.2 130.5 59.1 130.2 59 C 130 58.9 129.6 58.7 129.4 58.7 C 129.2 58.6 128.9 58.5 128.8 58.3 C 128.6 58.2 128.4 58 128.2 58 C 127.9 57.9 127.3 57.6 127.1 57.4 C 127 57.3 126.8 57.2 126.6 57.2 C 126.2 57.1 125.3 56.6 125.2 56.4 C 125.2 56.3 125 56.2 124.9 56.2 C 124.5 56.1 124 55.9 123.8 55.7 C 123.7 55.6 123.4 55.4 123.2 55.4 C 123 55.3 122.8 55.2 122.7 55.1 C 122.6 55 122.5 54.9 122.5 54.9 C 122.4 54.9 121.6 54.5 121.5 54.4 C 121.4 54.3 121.2 54.2 121.1 54.1 C 120.9 54 120.6 53.8 120.5 53.7 C 120.3 53.6 120.1 53.4 120 53.3 C 119.6 53.1 119 52.6 118.6 52.2 C 118.3 51.9 118.1 51.8 118 51.8 C 117.5 51.8 113.4 48 111.7 46 C 111.3 45.5 110.8 45 110.7 44.8 C 110.5 44.6 110.3 44.3 110.3 44.2 C 110.2 44.1 110 43.8 109.9 43.7 C 109.8 43.6 109.7 43.4 109.7 43.3 C 109.7 43.2 109.6 43 109.4 42.8 C 109.2 42.6 109.1 42.4 109.1 42.3 C 109.1 42.2 109 42.1 108.9 42.1 C 108.6 42 108 40.9 107 39 C 106.8 38.6 106.6 38.1 106.5 38.1 C 106.5 38 106.4 37.8 106.3 37.6 C 106.2 37.4 106 37 105.9 36.7 C 105.5 35.7 105.2 35.1 105.2 34.8 C 105.2 34.7 105.1 34.4 105.1 34.3 C 105 34.2 104.9 34 104.8 33.8 C 104.7 33.6 104.6 33.3 104.6 33.1 C 104.6 32.9 104.5 32.7 104.5 32.5 C 104.5 32.4 104.4 32.1 104.4 31.9 C 104.2 31.5 103.8 29.7 103.7 28.9 C 103.7 28.5 103.6 28.2 103.6 28 C 103.6 27.9 103.5 27.2 103.4 26.5 C 103.2 24.5 103.2 21.4 103.4 20.3 C 103.6 19.3 104.1 18.1 104.4 17.4 C 104.6 17 104.8 16.6 104.9 16.5 C 105 16.4 105.1 16.1 105.2 16 C 105.3 15.9 105.4 15.7 105.5 15.5 C 105.6 15.3 105.8 15 105.9 14.8 C 106.1 14.6 106.2 14.4 106.2 14.4 C 106.2 14.3 107.8 12.5 108.8 11.5 C 109.1 11.2 109.4 10.9 109.5 10.8 C 110 10.3 110.5 9.8 110.7 9.7 C 110.8 9.6 111.1 9.4 111.3 9.2 C 111.5 9 111.8 8.7 112 8.6 C 112.2 8.5 112.4 8.3 112.4 8.3 C 112.5 8.2 112.6 8.1 112.8 8 C 113.1 7.9 114.2 7 114.2 6.9 C 114.2 6.9 115.1 6.1 116.3 5.2 C 116.5 5 116.8 4.8 117 4.8 C 117.1 4.8 117.3 4.6 117.4 4.4 C 117.5 4.2 117.7 4.1 117.7 4 C 117.8 4 118 3.8 118.2 3.6 C 118.4 3.4 118.9 3.1 119.2 2.8 C 119.6 2.6 120.1 2.2 120.4 2 C 120.7 1.8 121 1.6 121.1 1.6 C 121.3 1.6 121.8 1.2 121.7 1.1 C 121.7 1 121.5 1 120.2 1 C 119.4 1 118.6 1.1 118.3 1.1 C 118.1 1.1 117.6 1.2 117.2 1.3 C 116.8 1.4 116.4 1.4 116.3 1.5 C 116.2 1.5 114.9 1.7 114 1.8 C 113.7 1.8 113.3 1.9 113.1 1.9 C 112.9 2 112.6 2 112.3 2 C 112 2 111.8 2 111.6 2.1 C 111.5 2.2 111.1 2.3 110.9 2.4 C 110.7 2.5 110.3 2.5 110.2 2.6 C 110.1 2.6 109.8 2.7 109.6 2.7 C 109.4 2.7 109.1 2.8 108.9 2.8 C 108.5 3 107.1 3.3 106.9 3.3 C 106.8 3.3 106.5 3.4 106.3 3.5 C 106.1 3.6 105.7 3.7 105.3 3.8 C 105 3.9 104.6 4 104.5 4.1 C 104.3 4.3 103.5 4.5 102.6 4.7 C 102.3 4.8 101.8 4.9 101.6 5 C 101.4 5.1 101.1 5.2 101 5.2 C 100.9 5.2 100.7 5.3 100.6 5.4 C 100.5 5.5 100.2 5.6 100 5.6 C 99.3 5.7 99 5.8 98.8 6 C 98.7 6.1 98.4 6.2 98.3 6.2 C 97.5 6.4 96.1 6.9 95.7 7.1 C 95.6 7.2 95.3 7.3 95.1 7.3 C 94.9 7.3 94.6 7.4 94.4 7.5 C 94.2 7.6 94 7.7 93.8 7.7 C 93.6 7.7 93.4 7.8 93.2 7.9 C 93 8 92.8 8.2 92.6 8.2 C 92.4 8.2 92.3 8.3 92.2 8.3 C 92.1 8.4 91.1 8.8 90.8 8.8 C 90.7 8.8 90.4 8.9 90.3 9 C 90.2 9.1 89.9 9.2 89.6 9.3 C 88.1 9.8 87.8 9.9 87.7 9.9 C 87.6 9.9 87.6 9.9 87.5 10 C 87.4 10.1 86 10.8 85.8 10.8 C 85.8 10.8 85.5 10.9 85.2 11.1 C 84.9 11.2 84.5 11.4 84.4 11.4 C 84.3 11.4 83.9 11.6 83.7 11.7 C 83.5 11.8 83.2 12 83.1 12 C 82.7 12.1 82.2 12.3 81.6 12.7 C 81.2 12.9 80.9 13.1 80.8 13.1 C 80.7 13.1 80.6 13.2 80.5 13.2 C 80.4 13.3 80.3 13.3 80.2 13.3 C 80.1 13.3 80 13.4 79.9 13.4 C 79.8 13.5 78.4 14.2 77.9 14.4 C 77.7 14.5 77.5 14.6 77.3 14.7 C 77.2 14.8 77 14.9 77 14.9 C 76.9 14.9 76.7 15 76.5 15.2 C 76.3 15.3 76 15.5 75.9 15.6 C 75.2 15.9 74.9 16.1 74.9 16.1 C 74.9 16.2 73.8 16.8 72.8 17.3 C 72.4 17.5 71.8 17.9 71.5 18.1 C 71.2 18.3 70.9 18.5 70.9 18.5 C 70.9 18.5 70.7 18.6 70.5 18.8 C 70.3 18.9 69.9 19.2 69.6 19.4 C 69.3 19.6 69 19.8 68.8 19.9 C 68.7 20 68.4 20.2 68.1 20.3 C 67.6 20.6 67.2 20.8 66.7 21.2 C 66.2 21.6 65.4 22.1 64.7 22.5 C 64.4 22.7 64 22.9 63.8 23.1 C 63.6 23.2 63.2 23.5 62.9 23.7 C 62.6 23.9 62.2 24.1 62.1 24.2 C 61.5 24.6 60.6 25.2 60.5 25.2 C 60.4 25.2 60.4 25.3 60.3 25.4 C 60.2 25.5 59.9 25.8 59.4 26.1 C 59 26.4 58.4 26.8 58.1 27 C 57.8 27.2 57.4 27.5 57.1 27.6 C 56.9 27.7 56.4 28 56.1 28.3 C 55.8 28.6 55.2 29 54.8 29.2 C 54.4 29.5 54 29.8 53.8 29.9 C 53.7 30 53.3 30.3 53.1 30.5 C 52.1 31.2 51.9 31.3 51.6 31.6 C 51.4 31.8 51 32.1 50.7 32.3 C 50.4 32.5 50 32.9 49.7 33.1 C 49.3 33.4 49.1 33.5 49 33.5 C 48.7 33.5 48.6 33.6 48.6 33.8 C 48.6 34 48.3 34.3 48.1 34.3 C 48 34.3 47.7 34.5 47.5 34.8 C 46.8 35.5 46.3 35.9 45.9 36.1 C 45.8 36.2 45.5 36.4 45.4 36.5 C 45.3 36.7 44.9 37 44.7 37.1 C 44.5 37.2 44.2 37.5 44.1 37.5 C 43.9 37.7 42.5 38.9 42 39.2 C 41.8 39.3 41.6 39.5 41.5 39.6 C 40.9 40.2 40.2 40.8 40 40.9 C 39.9 41 39.5 41.3 39.2 41.6 C 38.9 41.9 38.5 42.3 38.3 42.4 C 38 42.6 37.3 43.2 37.3 43.4 C 37.3 43.4 36.8 43.9 36.2 44.4 C 35.6 44.9 34.9 45.5 34.8 45.7 C 34.6 45.9 34.4 46.1 34.2 46.1 C 34.1 46.1 34 46.2 33.9 46.4 C 33.8 46.6 33.4 47.1 32.9 47.6 C 31.2 49.3 28.8 51.8 27.8 52.9 C 27.6 53.2 27.2 53.6 26.9 53.8 C 26.5 54.3 24.4 56.7 23.7 57.6 C 23.5 57.8 23.3 58.1 23.1 58.2 C 23 58.3 22.8 58.4 22.8 58.5 C 22.8 58.6 22.7 58.7 22.6 58.7 C 22.6 58.7 22.5 58.8 22.4 59 C 22.3 59.2 22.1 59.5 21.9 59.7 C 21.7 59.9 21.4 60.3 21.2 60.6 C 21 60.8 20.6 61.4 20.3 61.8 C 20 62.2 19.6 62.7 19.5 62.8 C 19.4 62.9 19.1 63.3 18.9 63.6 C 18.7 63.9 18.3 64.4 18.1 64.7 C 17.9 65 17.6 65.4 17.5 65.5 C 17.4 65.6 17.3 65.8 17.2 65.9 C 17.1 66 16.8 66.5 16.6 66.8 C 16.4 67.2 16 67.8 15.7 68.2 C 15.4 68.6 15.1 69.1 15 69.3 C 14.7 69.7 14.6 69.9 14.2 70.6 C 14.1 70.8 13.9 71.2 13.7 71.3 C 13.6 71.5 13.3 71.9 13.1 72.2 C 12.9 72.5 12.7 72.9 12.6 73.1 C 12.5 73.3 12.4 73.5 12.4 73.5 C 12.4 73.6 11.9 74.4 11.8 74.5 C 11.7 74.5 11.6 74.7 11.5 74.9 C 11.2 75.6 10.9 76.2 10.8 76.3 C 10.8 76.3 10.5 76.8 10.2 77.4 C 9.9 78 9.6 78.6 9.5 78.7 C 9.4 78.8 9.3 79 9.3 79 C 9.3 79.1 9.2 79.2 9.1 79.3 C 9 79.4 8.9 79.6 8.9 79.6 C 8.9 79.7 8.8 79.8 8.8 79.9 C 8.7 80 8.5 80.4 8.4 80.8 C 8.2 81.2 8 81.6 7.9 81.8 C 7.8 81.9 7.7 82.1 7.7 82.1 C 7.7 82.2 7.4 82.9 7.2 83.2 C 7.2 83.3 7 83.7 6.9 84.1 C 6.8 84.5 6.6 84.9 6.6 84.9 C 6.5 84.9 6.1 85.8 6.1 85.9 C 6.1 86 5.6 87.3 5.4 87.8 C 5.3 88 5.2 88.4 5.1 88.6 C 5 88.9 4.8 89.4 4.5 90.3 C 4.4 90.4 4.4 90.7 4.4 90.8 C 4.4 90.9 4.3 91.1 4.3 91.2 C 4.2 91.3 4.1 91.6 4.1 91.8 C 4.1 92 4 92.3 3.9 92.6 C 3.8 92.8 3.7 93.2 3.7 93.3 C 3.7 93.4 3.5 93.8 3.4 94.1 C 3.3 94.4 3.2 94.7 3.2 94.8 C 3.2 94.9 3.1 95.1 3.1 95.2 C 3 95.4 2.9 95.7 2.9 95.9 C 2.9 96.1 2.8 96.3 2.7 96.5 C 2.6 96.6 2.5 97 2.5 97.4 C 2.4 97.8 2.3 98.1 2.3 98.3 C 2.2 98.5 2.1 99 2 99.5 C 2 99.7 1.9 100.1 1.8 100.3 C 1.7 100.5 1.6 100.9 1.6 101.1 C 1.5 101.8 1.2 103.4 1 103.9 C 0.9 104.1 0.8 104.6 0.8 105 C 0.8 105.4 0.7 105.8 0.6 106 C 0.5 106.3 0.4 106.5 0.4 107 C 0.4 107.4 0.3 107.8 0.3 108 C 0.1 108.4 0.1 108.9 0.2 109 C 0.3 109.1 0.7 109.1 0.9 109 C 1 109 1.3 108.9 1.7 108.8 C 3 108.5 3.3 108.4 3.6 108.3 C 3.8 108.2 4 108.2 4.1 108.2 C 4.2 108.2 4.5 108.1 4.6 108.1 C 4.7 108.1 5.1 107.9 5.4 107.8 C 5.7 107.7 6.2 107.6 6.5 107.5 C 6.8 107.4 7.4 107.3 7.8 107.2 C 8.5 107.1 9.2 106.9 9.6 106.7 C 9.7 106.7 10 106.6 10.3 106.6 C 10.6 106.6 10.8 106.6 10.9 106.5 C 11 106.4 11.1 106.4 11.2 106.4 C 11.3 106.4 11.4 106.4 11.5 106.3 C 11.9 106.1 14.2 105.7 14.6 105.8 C 14.9 105.8 15 105.8 15.3 105.6 C 15.5 105.5 15.8 105.4 16.1 105.3 C 16.4 105.3 16.8 105.2 17.1 105.1 C 17.4 105 18.1 104.9 18.6 104.9 C 19.1 104.8 19.6 104.8 19.6 104.7 C 19.8 104.6 20.8 104.5 21.8 104.4 C 22.2 104.4 22.6 104.3 22.7 104.3 C 23.1 104.1 23.6 104 26.3 103.8 C 27.1 103.7 28 103.6 28.3 103.6 C 28.6 103.5 29.6 103.4 30.4 103.4 C 31.2 103.4 32 103.3 32.3 103.2 C 32.5 103.2 33.4 103.1 34.3 103 C 35.2 103 36.2 102.9 36.7 102.8 C 37.1 102.8 38.9 102.7 40.5 102.7 C 42.2 102.7 43.7 102.6 43.8 102.6 C 44.9 102.6 50.9 102.7 51.2 102.8 C 51.4 102.8 51.7 102.9 51.8 102.9 C 51.9 102.9 52.5 102.9 53 103 C 53.5 103 54.6 103.1 55.3 103.2 C 57.5 103.3 58.4 103.4 59.9 103.7 C 60.6 103.8 61.3 103.9 61.6 103.9 C 61.9 103.9 62.2 104 62.2 104 C 62.3 104 62.6 104.1 63 104.1 C 63.4 104.1 63.9 104.2 64.3 104.3 C 64.6 104.4 65.2 104.5 65.5 104.5 C 65.8 104.5 66.2 104.6 66.3 104.6 C 66.4 104.6 66.7 104.7 66.9 104.7 C 67.1 104.7 67.5 104.8 67.8 104.9 C 68.1 105 68.6 105.1 68.9 105.1 C 69.7 105.2 70.5 105.4 70.9 105.6 C 71.1 105.7 71.5 105.8 71.8 105.9 C 72.8 106.1 73 106.1 73.2 106.3 C 73.4 106.4 73.6 106.4 73.8 106.4 C 74.3 106.4 74.9 106.6 75.3 106.7 C 75.5 106.8 75.7 106.9 75.9 106.9 C 76.2 107 77.8 107.5 78 107.6 C 78.1 107.7 78.3 107.7 78.4 107.7 C 78.5 107.7 78.8 107.8 79 107.9 C 79.2 108 79.4 108.1 79.6 108.1 C 79.7 108.1 80 108.2 80.2 108.3 C 80.4 108.4 80.9 108.6 81.3 108.7 C 81.3 108.7 81.3 108.7 81.3 108.7 C 81 97.8 80.8 86.9 81.6 76 C 91.4 76.8 101.3 77.5 111.1 78.1 C 113 80 115 81.9 117 83.8 C 116.9 88.1 116.9 92.5 116.9 96.8 C 115.2 98.4 113.6 99.9 112 101.5 C 113.7 103.1 115.4 104.8 117.1 106.4 C 117.2 110.8 117.3 115.3 117.3 119.7 C 115.3 121.7 113.2 123.8 111.2 125.8 C 107.9 125.8 104.6 125.8 101.3 125.8 C 101.8 126.9 102.3 127.9 102.4 128.5 C 102.4 128.7 102.6 129 102.7 129.2 C 102.8 129.4 103 130 103.2 130.6 C 103.4 131.2 103.5 131.8 103.6 131.9 C 103.6 132 103.7 132.4 103.8 132.7 C 103.8 133 103.9 133.4 104 133.6 C 104 133.8 104.1 134.1 104.1 134.2 C 104.1 134.4 104.2 134.8 104.2 135.1 C 104.3 135.4 104.4 136 104.4 136.4 C 104.4 136.8 104.5 137.3 104.5 137.6 C 104.5 137.8 104.5 138.7 104.6 139.5 C 104.6 140.3 104.7 141.8 104.7 142.8 C 104.8 144.6 104.8 144.6 104.9 144.6 C 105 144.6 105.2 144.5 105.3 144.3 C 105.5 144.1 105.6 144 105.8 144 C 106 144 106.1 143.9 106.3 143.6 C 106.5 143.4 106.7 143.2 106.7 143.2 C 106.8 143.2 107 143.1 108 142.2 C 108.3 142 108.8 141.6 109.2 141.4 C 109.6 141.1 110 140.8 110.2 140.7 C 110.3 140.6 110.7 140.4 110.9 140.2 C 111.2 140.1 111.4 139.9 111.5 139.8 C 111.6 139.7 111.8 139.6 112 139.5 C 112.2 139.4 112.5 139.2 112.7 139.1 C 112.9 139 113.2 138.8 113.4 138.7 C 113.6 138.6 114.1 138.3 114.4 138.1 C 115.2 137.7 116.9 136.8 117.1 136.8 C 117.2 136.8 117.4 136.7 117.5 136.6 C 117.8 136.4 118.7 136 119 135.9 C 119.1 135.9 119.4 135.8 119.5 135.7 C 120 135.4 121.4 134.9 121.6 134.9 C 121.8 134.9 122 134.8 122.1 134.7 C 122.2 134.6 122.4 134.5 122.5 134.5 C 122.6 134.5 122.8 134.4 122.9 134.4 C 123.1 134.3 124.4 133.9 125.5 133.6 C 126.3 133.4 127.3 133.2 127.6 133.2 C 127.7 133.2 127.9 133.1 128.1 133.1 C 128.2 133 128.6 133 129 132.9 C 129.5 132.9 129.8 132.8 130 132.7 C 130.2 132.6 130.5 132.5 130.8 132.5 C 131.3 132.4 133 132.2 134.1 132.1 C 135.3 132 137.4 131.9 138.9 131.9 C 139.7 131.9 140.8 131.9 141.3 131.9 C 142.4 131.9 143.9 132.1 144.5 132.3 C 144.8 132.4 144.9 132.4 145 132.3 C 145.3 132.2 148.2 132.4 148.7 132.6 C 148.9 132.7 149.3 132.7 149.6 132.8 C 149.9 132.8 150.5 132.9 150.9 133 C 151.3 133.1 151.9 133.2 152.3 133.3 C 152.7 133.4 153.1 133.5 153.2 133.6 C 153.3 133.7 153.5 133.7 153.7 133.7 C 153.9 133.7 154.5 133.8 155 134 C 155.5 134.1 156 134.3 156 134.3 C 156.3 134.3 157.4 134.7 157.6 134.8 C 157.7 134.9 157.9 135 158.1 135 C 158.3 135 158.5 135.1 158.7 135.1 C 158.8 135.2 159.2 135.3 159.5 135.4 C 159.8 135.5 160.2 135.7 160.2 135.7 C 160.4 135.9 160.9 136.1 161 136 C 161.1 135.9 162 136.1 162.4 136.4 C 162.7 136.5 163 136.7 163.2 136.7 C 163.6 136.8 164.3 137.1 164.6 137.3 C 164.7 137.4 164.9 137.4 165 137.4 C 165.1 137.4 165.5 137.6 165.9 137.7 C 166.3 137.9 166.9 138.2 167.2 138.3 C 167.5 138.4 168 138.6 168.1 138.7 C 168.7 139.1 169.7 139.6 169.8 139.6 C 169.9 139.6 170 139.7 170.1 139.8 C 170.2 139.9 170.3 140 170.4 140 C 170.5 140 170.7 140.1 171 140.3 C 172.3 141.1 172.7 141.3 172.8 141.3 C 172.9 141.3 173.1 141.4 173.2 141.5 C 173.3 141.6 173.7 141.8 174 142 C 174.3 142.2 174.6 142.3 174.6 142.4 C 174.6 142.4 174.8 142.5 174.9 142.6 C 175.1 142.7 175.2 142.8 175.3 142.9 C 175.4 143 175.5 143.1 175.5 143.1 C 175.7 143.1 176.5 143.5 176.8 143.8 C 176.9 143.9 177.1 144 177.2 144 C 177.3 144 177.5 144.1 177.7 144.2 C 177.9 144.3 178.3 144.6 178.6 144.8 C 179 145 179.3 145.2 179.4 145.3 C 179.5 145.4 179.7 145.5 179.9 145.6 C 180.1 145.7 180.4 145.9 180.6 146.1 C 180.8 146.2 180.9 146.4 181 146.4 C 181.1 146.4 181.9 146.9 182.4 147.3 C 182.6 147.4 182.9 147.6 183.1 147.8 C 183.3 147.9 183.6 148.1 183.8 148.3 C 184 148.4 184.6 148.9 185.2 149.4 C 185.8 149.9 186.4 150.3 186.5 150.5 C 186.6 150.6 186.7 150.7 186.8 150.7 C 186.9 150.7 187.1 150.8 187.3 151 C 187.5 151.2 187.9 151.4 188 151.6 C 188.3 151.8 188.5 152 189.7 153 C 190 153.3 190.7 153.8 191.2 154.2 C 191.7 154.6 192.6 155.4 193.2 156 C 194.9 157.6 199 161.7 199.4 162.3 C 199.5 162.4 199.8 162.8 200 163 C 200.2 163.2 200.6 163.7 200.8 164 C 201 164.3 201.3 164.7 201.5 164.9 C 202 165.4 202.9 166.6 203 166.9 C 203 167.1 203.2 167.2 203.4 167.3 C 203.7 167.5 204.2 168.1 204.2 168.3 C 204.2 168.4 204.3 168.5 204.3 168.5 C 204.4 168.6 205.1 169.5 205.5 169.9 C 205.6 170.1 205.9 170.5 206.1 170.8 C 206.3 171.1 206.5 171.4 206.5 171.4 C 206.5 171.4 206.6 171.6 206.8 171.8 C 207 172 207.1 172.2 207.1 172.3 C 207.1 172.6 207.2 172.8 207.4 172.9 C 207.5 173 207.7 173.2 207.8 173.3 C 207.9 173.5 208.1 173.8 208.3 174.1 C 208.5 174.3 208.6 174.5 208.6 174.6 C 208.6 174.6 208.7 174.8 208.8 174.9 C 209.2 175.3 209.5 175.9 209.6 176.2 C 209.7 176.4 209.8 176.6 209.9 176.8 C 210.1 177.1 210.4 177.5 210.4 177.7 C 210.4 177.8 210.5 177.9 210.6 178 C 210.7 178.1 210.9 178.4 211.1 178.7 C 211.3 179 211.5 179.5 211.7 179.9 C 211.9 180.2 212.2 180.8 212.3 181 C 212.4 181.3 212.8 182 213.1 182.6 C 213.4 183.2 213.6 183.8 213.6 183.8 C 213.6 183.9 213.7 184.1 213.9 184.4 C 214 184.7 214.2 185 214.2 185.1 C 214.2 185.2 214.3 185.4 214.4 185.6 C 214.7 186.3 215.3 187.7 215.4 188 C 215.4 188.1 215.5 188.4 215.6 188.6 C 215.8 188.9 216.3 190.4 216.3 190.5 C 216.3 190.7 216.8 191.6 216.9 191.6 C 217 191.6 217.1 191.5 217.1 191.4 C 217.2 191.3 217.3 191.1 217.4 191.1 C 217.5 191.1 217.6 191 217.6 190.7 C 217.6 190.5 217.7 190.2 217.8 190 C 217.9 189.8 218.1 189.4 218.1 189.2 C 218.2 188.9 218.3 188.5 218.5 188.3 C 218.6 188 218.9 187.4 219.1 186.9 C 219.3 186.4 219.6 185.7 219.8 185.3 C 220 184.9 220.1 184.5 220.2 184.4 C 220.3 184.2 220.6 183.5 221 182.8 C 221.1 182.6 221.3 182.4 221.4 182.3 C 221.6 182.2 221.6 182.1 221.6 181.9 C 221.6 181.7 221.7 181.4 222.1 180.7 C 222.8 179.5 223.1 179 223.4 178.7 C 223.5 178.6 223.6 178.4 223.6 178.3 C 223.7 178.1 224.4 177 224.6 176.7 C 224.7 176.6 224.8 176.5 224.8 176.4 C 224.8 176.3 224.9 176.2 225 176 C 225.1 175.9 225.3 175.6 225.3 175.5 C 225.4 175.4 225.5 175.1 225.6 174.9 C 225.7 174.8 226 174.3 226.3 174 C 226.5 173.6 226.9 173.2 227 173.1 C 227.1 173 227.2 172.8 227.2 172.8 C 227.2 172.7 227.3 172.6 227.4 172.4 C 227.5 172.3 227.8 172 227.9 171.8 C 228.4 171 230.6 168.2 231.7 167 C 232 166.7 232.4 166.2 232.7 165.8 C 235.4 162.6 239.2 158.7 243.7 154.5 C 243.9 154.3 244.3 154 244.4 153.9 C 244.6 153.8 244.8 153.6 245 153.4 C 245.1 153.2 245.5 153 245.7 152.8 C 245.9 152.7 246.1 152.5 246.1 152.5 C 246.1 152.4 247.4 151.3 248 150.8 C 248.2 150.7 248.6 150.4 248.8 150.2 C 249 150 249.3 149.8 249.5 149.8 C 249.6 149.7 249.8 149.6 249.8 149.5 C 249.9 149.3 250.9 148.5 251.7 148 C 252.1 147.8 252.6 147.4 252.9 147.2 C 253.9 146.4 254.2 146.2 254.8 146 C 255.2 145.8 255.4 145.7 255.5 145.5 C 255.6 145.3 255.8 145.2 256.2 145 C 256.5 144.9 256.9 144.6 257.2 144.4 C 257.4 144.2 257.7 144 257.9 143.9 C 258 143.8 258.4 143.6 258.6 143.4 C 258.9 143.2 259.3 143 259.5 142.9 C 259.7 142.8 260 142.7 260 142.6 C 260.1 142.5 260.4 142.3 260.8 142 C 261.2 141.8 261.6 141.5 261.8 141.4 C 261.9 141.3 262.4 141 262.9 140.8 C 263.4 140.6 263.9 140.3 264.1 140.2 C 264.3 140.1 264.6 140 264.7 140 C 264.8 140 265 139.9 265.1 139.8 C 265.2 139.7 265.4 139.6 265.7 139.5 C 265.9 139.4 266.1 139.4 266.1 139.3 C 266.1 139.1 266.4 138.9 266.6 138.9 C 266.7 138.9 266.9 138.8 267 138.7 C 267.2 138.5 267.5 138.4 267.7 138.4 C 268 138.4 268.5 138.1 268.7 137.8 C 268.8 137.7 269 137.6 269.1 137.6 C 269.2 137.6 269.7 137.4 270 137.3 C 270.3 137.1 270.9 136.9 271.1 136.8 C 271.3 136.8 271.5 136.6 271.7 136.5 C 271.9 136.4 272.1 136.3 272.1 136.3 C 272.4 136.3 273.5 135.9 273.7 135.7 C 273.8 135.6 274 135.6 274.1 135.6 C 274.2 135.6 274.6 135.5 274.9 135.3 C 275.2 135.1 275.7 135 275.9 134.9 C 276.1 134.9 276.4 134.8 276.5 134.7 C 276.8 134.6 277.5 134.3 278.2 134.2 C 278.5 134.1 278.8 134.1 278.8 134 C 278.8 133.9 279.3 133.7 279.7 133.7 C 279.8 133.7 280.1 133.6 280.3 133.6 C 280.4 133.5 280.7 133.5 280.8 133.5 C 280.9 133.5 281.1 133.5 281.2 133.4 C 281.3 133.3 281.6 133.3 281.9 133.2 C 282.2 133.2 282.5 133.1 282.7 133 C 282.9 132.9 283.3 132.9 283.7 132.9 C 284.3 132.9 284.4 132.9 284.6 132.7 C 284.8 132.6 285 132.5 285.5 132.5 C 285.9 132.5 286.3 132.4 286.5 132.3 C 286.7 132.2 286.9 132.2 287.1 132.2 C 287.3 132.2 287.6 132.2 287.8 132.1 C 288.2 132 290.2 131.7 290.3 131.8 C 290.4 131.8 290.5 131.8 290.6 131.8 C 291 131.6 296.5 131.6 299.1 131.7 C 300 131.7 300.3 131.8 300.6 131.9 C 300.9 132 301 132.1 301.2 132 C 301.4 131.9 301.6 131.9 302 132 C 302.3 132.1 302.8 132.1 303.2 132.2 C 303.5 132.2 304 132.3 304.1 132.3 C 304.2 132.3 304.7 132.4 305.2 132.5 C 306 132.6 306.9 132.8 307.5 132.9 C 307.7 132.9 308 133 308.3 133.1 C 308.6 133.2 308.9 133.3 309 133.3 C 309.1 133.4 309.4 133.4 309.6 133.4 C 309.8 133.4 310 133.5 310.2 133.6 C 310.3 133.7 310.6 133.8 310.7 133.8 C 311 133.8 311.5 134 311.6 134.1 C 311.6 134.1 311.8 134.2 312 134.2 C 312.2 134.2 312.6 134.3 312.9 134.4 C 313.2 134.5 313.5 134.6 313.6 134.6 C 313.6 134.6 313.8 134.6 313.9 134.7 C 314 134.8 314.2 134.8 314.4 134.9 C 314.5 134.9 314.9 135.1 315.2 135.2 C 315.5 135.3 315.9 135.5 316.1 135.5 C 316.3 135.6 316.5 135.7 316.7 135.8 C 316.8 135.9 317 136 317.1 136 C 317.2 136 317.6 136.2 317.9 136.3 C 318.2 136.4 318.7 136.7 319.1 136.9 C 320.1 137.4 321.6 138.1 322.1 138.5 C 322.4 138.7 322.6 138.8 322.6 138.8 C 322.7 138.8 323.3 139.2 323.6 139.5 C 323.7 139.6 324 139.8 324.2 139.9 C 324.7 140.2 325.7 140.8 326.8 141.6 C 327.9 142.4 328 142.5 328.6 142.9 C 329.3 143.3 332 145.3 332.1 145.4 C 332.4 145.7 332.6 145.4 332.4 144.8 C 332.4 144.6 332.3 144.3 332.2 144 C 332.2 143.7 332 142.8 331.8 141.9 C 330.9 137.3 330.7 136.2 330.7 133.8 C 330.7 132.6 330.7 131.8 330.8 131.1 C 330.9 130 331.1 129 331.3 128.8 C 331.3 128.7 331.4 128.5 331.4 128.2 C 331.6 127.3 331.8 126.6 332.4 125.2 C 333 123.8 333.7 122.7 333.9 122.6 C 334 122.6 334 122.4 334.1 122.2 C 334.1 122.1 334.3 121.8 334.4 121.6 C 330.9 114 327.5 106.3 323.9 98.8 C 323.8 107.8 323.5 116.7 323.5 125.7 C 319.4 125.7 315.4 125.7 311.3 125.7 C 311.3 110 312.2 94.2 311.3 78.4 C 315.4 78.2 319.4 77.9 323.5 77.7 C 328.4 85.9 332.6 94.5 336.6 103.2 C 336.8 94.4 336.8 85.6 336.2 76.8 C 340.3 76.5 344.3 76.2 348.4 75.9 C 349.3 87.4 348.9 98.9 348.7 110.5 C 348.9 110.4 349.1 110.3 349.2 110.2 C 349.3 110.1 349.5 110 349.6 110 C 349.7 110 349.9 109.9 350.2 109.8 C 350.5 109.7 350.8 109.5 351.1 109.5 C 351.3 109.4 351.6 109.3 351.7 109.2 C 351.8 109.1 352 109.1 352.1 109.1 C 352.2 109.1 352.4 109 352.5 108.9 C 352.6 108.8 352.8 108.7 352.8 108.7 C 352.8 108.7 353.1 108.6 353.3 108.5 C 353.9 108.2 354.3 108.1 354.9 107.9 C 355.2 107.8 355.6 107.7 355.7 107.6 C 355.8 107.5 356.2 107.4 356.5 107.4 C 357.3 107.2 357.8 107.1 358.1 106.9 C 358.2 106.8 358.6 106.7 358.9 106.7 C 359.5 106.6 360 106.5 360.1 106.3 C 360.1 106.3 360.3 106.2 360.4 106.2 C 360.5 106.2 360.7 106.1 360.9 106.1 C 361 106 361.2 106 361.4 106 C 361.5 106 361.7 106 361.8 105.9 C 362.1 105.7 363.7 105.3 364.3 105.3 C 364.4 105.3 364.7 105.2 365 105.1 C 365.5 104.9 366.6 104.7 367.4 104.6 C 367.7 104.6 368.1 104.5 368.2 104.4 C 368.5 104.2 369.3 104.1 370.1 104.1 C 370.6 104.1 370.9 104 371.3 103.9 C 372.1 103.6 372.3 103.6 372.7 103.6 C 372.9 103.6 373.3 103.6 373.5 103.5 C 373.7 103.5 374.1 103.4 374.4 103.4 C 374.7 103.4 375.1 103.3 375.3 103.3 C 375.5 103.3 376.2 103.2 376.9 103.2 C 377.6 103.2 378.1 103.1 378.2 103.1 C 378.3 103.1 378.8 103 379.5 103 C 380.1 103 381 102.9 381.4 102.9 C 381.8 102.9 382.8 102.8 383.5 102.8 C 384.2 102.8 385.1 102.7 385.3 102.7 C 385.6 102.6 387.5 102.6 391.8 102.6 C 397.3 102.6 397.9 102.6 398.2 102.7 C 398.4 102.8 398.7 102.8 399.1 102.8 C 399.8 102.7 403.9 103 404.3 103.1 C 404.4 103.1 405 103.2 405.6 103.2 C 406.2 103.2 406.9 103.3 407.1 103.4 C 407.4 103.5 407.7 103.5 407.9 103.5 C 408.1 103.5 408.3 103.5 408.4 103.5 C 408.6 103.6 409.2 103.7 410.9 103.8 C 411.4 103.8 411.9 103.9 412 103.9 C 412.1 103.9 412.7 104.1 413.3 104.2 C 413.9 104.3 414.6 104.4 414.8 104.4 C 415.2 104.5 416.1 104.6 417.4 104.8 C 417.7 104.8 418.1 104.9 418.2 104.9 C 418.3 104.9 418.6 105 418.7 105 C 418.9 105 419.2 105.1 419.5 105.2 C 419.8 105.3 420.2 105.4 420.6 105.5 C 420.9 105.6 421.4 105.7 421.7 105.8 C 421.9 105.9 422.3 106 422.6 106 C 422.8 106 423.2 106.1 423.3 106.1 C 423.4 106.1 423.8 106.2 424.2 106.3 C 424.5 106.3 425 106.5 425.2 106.6 C 425.5 106.7 425.8 106.8 426.3 106.9 C 426.7 106.9 427 107 427.2 107.1 C 427.3 107.2 427.7 107.3 427.9 107.3 C 428.1 107.3 428.4 107.4 428.5 107.5 C 428.6 107.6 428.8 107.6 429.1 107.6 C 429.3 107.6 429.6 107.7 429.7 107.8 C 429.8 107.9 430.2 108 430.5 108 C 430.8 108.1 431.4 108.2 431.9 108.3 C 432.7 108.5 433.6 108.8 433.9 108.8 C 433.5 108.5 433.6 108.3 433.4 106.5 Z M 154.7 125.4 C 153.6 122 152.4 118.6 151.2 115.2 C 148.9 115.2 146.7 115.2 144.4 115.2 C 143.4 111.6 142.3 108 141.2 104.5 C 143.3 104.5 145.3 104.5 147.4 104.5 C 146.1 101 144.8 97.6 143.5 94.1 C 139.6 104.4 136.3 115 132.8 125.4 C 128.9 125.4 125 125.4 121 125.4 C 126.3 109.9 130.8 94.1 137.8 79.3 C 141.7 79.5 145.6 79.6 149.6 79.8 C 155.6 94.9 161.3 110.1 166.5 125.4 C 162.6 125.4 158.7 125.4 154.7 125.4 Z M 207.3 89.7 C 203.4 89.7 199.5 89.7 195.6 89.7 C 195.6 101.6 195.7 113.5 195.7 125.4 C 191.6 125.4 187.5 125.4 183.5 125.4 C 183.5 113.5 183.4 101.5 183.4 89.6 C 179.5 89.6 175.6 89.5 171.7 89.5 C 171.7 86.5 171.7 83.5 171.8 80.4 C 183.7 80.7 195.5 80.9 207.4 80.9 C 207.3 83.9 207.3 86.8 207.3 89.7 Z M 254.7 125.4 C 250.6 125.4 246.6 125.4 242.5 125.4 C 242.5 116.6 242.6 107.9 242.6 99.1 C 239.5 105.1 236.6 111.1 233.7 117.1 C 230.8 111 227.9 105 224.8 99 C 224.8 107.8 224.8 116.5 224.8 125.3 C 220.7 125.3 216.7 125.3 212.6 125.3 C 212.6 110.5 212.6 95.6 212.6 80.8 C 216.7 80.8 220.7 80.8 224.8 80.8 C 228.1 85.7 231 90.7 233.7 95.9 C 236.5 90.7 239.4 85.6 242.6 80.6 C 246.7 80.5 250.7 80.4 254.8 80.4 C 255.1 95.4 254.7 110.4 254.7 125.4 Z M 293.6 125.4 C 292.5 122 291.3 118.6 290.2 115.2 C 287.9 115.2 285.7 115.2 283.4 115.2 C 282.4 111.6 281.5 108.1 280.5 104.5 C 282.6 104.5 284.6 104.5 286.7 104.5 C 285.5 101 284.2 97.6 282.9 94.2 C 279 104.6 275.2 115 271.7 125.5 C 267.8 125.5 263.9 125.5 259.9 125.5 C 265.1 110.2 270.7 95 276.8 79.9 C 280.7 79.8 284.6 79.6 288.6 79.4 C 295.7 94.1 300.2 110 305.4 125.4 C 301.5 125.4 297.5 125.4 293.6 125.4 Z " stroke-width="1" fill="undefined"/>
    </g>
    <g id="ID0.7171066431328654">
      <g id="ID0.10407323855906725">
        <path id="ID0.03453554445877671" d="M 63.1732 183.0054 C 61.774 183.2053 61.5741 183.4052 61.5741 184.8044 L 61.5741 186.8032 C 61.5741 187.6027 61.5741 188.4022 61.774 189.0019 C 60.3748 189.4016 58.376 189.8014 56.3772 189.8014 C 50.9804 189.8014 47.5824 186.4034 47.5824 181.6063 C 47.5824 176.6092 51.7799 173.611 56.5771 173.611 C 58.9757 173.611 60.7746 174.0107 61.5741 174.2106 C 61.5741 175.0102 61.774 176.6092 61.9739 178.0084 L 61.1744 178.2083 C 60.5747 176.2094 59.9751 175.21 58.376 174.8103 C 57.7764 174.6104 56.777 174.4105 56.1773 174.4105 C 52.5795 174.4105 50.1809 177.009 50.1809 181.4064 C 50.1809 185.2041 52.1797 189.0019 56.777 189.0019 C 57.5765 189.0019 58.376 188.802 58.7758 188.6021 C 59.3754 188.4022 59.5753 188.0025 59.5753 187.0031 L 59.5753 185.0042 C 59.5753 183.2053 59.3754 183.0054 57.1767 182.8055 L 57.1767 182.2059 L 63.3731 182.2059 L 63.3731 183.0054 Z " stroke-width="1.9988173246383667" fill="undefined"/>
        <path id="ID0.6780291399918497" d="M 81.7622 173.611 C 85.9597 173.611 89.5576 176.8091 89.5576 181.6063 C 89.5576 186.8032 85.9597 190.0013 81.5623 190.0013 C 76.965 190.0013 73.567 186.4034 73.567 182.006 C 73.567 177.6086 76.5653 173.611 81.7622 173.611 Z M 81.1625 174.4105 C 78.5641 174.4105 75.9656 176.6092 75.9656 181.2065 C 75.9656 185.6039 78.3642 189.0019 81.7622 189.0019 C 84.7604 189.0019 86.7592 186.8032 86.7592 182.2059 C 86.9591 177.2089 84.3607 174.4105 81.1625 174.4105 Z " stroke-width="1.9988173246383667" fill="undefined"/>
        <path id="ID0.27237664395943284" d="M 112.7439 177.6086 C 112.544 176.8091 112.1442 176.0096 111.9443 175.6098 C 111.5446 175.0102 111.3447 174.8103 109.9455 174.8103 L 107.5469 174.8103 L 107.5469 186.4034 C 107.5469 188.2023 107.7468 188.6021 109.9455 188.6021 L 109.9455 189.2018 L 102.9497 189.2018 L 102.9497 188.6021 C 105.1484 188.4022 105.3482 188.2023 105.3482 186.4034 L 105.3482 174.8103 L 103.1495 174.8103 C 101.7504 174.8103 101.3506 175.0102 100.9508 175.6098 C 100.751 176.0096 100.5511 176.6092 100.1513 177.6086 L 99.3518 177.6086 C 99.5517 176.2094 99.5517 174.6104 99.7515 173.2112 L 100.3512 173.2112 C 100.751 173.8109 100.9508 173.8109 101.5505 173.8109 L 110.9449 173.8109 C 111.5446 173.8109 111.7445 173.8109 112.1442 173.2112 L 112.7439 173.2112 C 112.7439 174.4105 112.7439 176.0096 112.9437 177.4087 L 112.7439 177.6086 Z " stroke-width="1.9988173246383667" fill="undefined"/>
        <path id="ID0.5223182160407305" d="M 140.3275 174.6104 C 138.3287 174.8103 138.1288 175.0102 138.1288 177.009 L 138.1288 186.6033 C 138.1288 188.6021 138.3287 188.6021 140.3275 189.0019 L 140.3275 189.6015 L 133.9313 189.6015 L 133.9313 189.0019 C 135.9301 188.802 136.13 188.802 136.13 186.6033 L 136.13 181.8061 L 127.9349 181.8061 L 127.9349 186.6033 C 127.9349 188.6021 128.1348 188.6021 130.1336 189.0019 L 130.1336 189.6015 L 123.7374 189.6015 L 123.7374 189.0019 C 125.7362 188.802 125.9361 188.802 125.9361 186.6033 L 125.9361 177.009 C 125.9361 175.0102 125.7362 174.8103 123.7374 174.6104 L 123.7374 174.0107 L 130.1336 174.0107 L 130.1336 174.6104 C 128.1348 174.8103 127.9349 175.0102 127.9349 177.009 L 127.9349 180.8067 L 136.13 180.8067 L 136.13 177.009 C 136.13 175.0102 135.9301 174.8103 133.9313 174.6104 L 133.9313 174.0107 L 140.3275 174.0107 L 140.3275 174.6104 Z " stroke-width="1.9988173246383667" fill="undefined"/>
        <path id="ID0.11777243064716458" d="M 158.9165 189.4016 L 158.9165 188.802 C 160.5156 188.6021 160.7155 188.4022 160.3157 187.4028 C 159.9159 186.4034 159.5162 185.2041 159.1164 183.8049 L 153.9195 183.8049 C 153.5197 184.8044 153.12 185.8038 152.9201 186.8032 C 152.3204 188.4022 152.7202 188.6021 154.719 188.802 L 154.719 189.4016 L 149.1223 189.4016 L 149.1223 188.802 C 150.7214 188.6021 150.9213 188.4022 151.9207 186.2035 L 156.9177 173.611 L 157.7172 173.4111 C 159.3163 177.6086 160.9154 182.006 162.3145 186.2035 C 163.1141 188.2023 163.3139 188.4022 164.913 188.6021 L 164.913 189.2018 L 158.9165 189.2018 Z M 156.518 176.6092 C 155.7184 178.608 154.9189 180.8067 154.1194 182.8055 L 158.5168 182.8055 L 156.518 176.6092 Z " stroke-width="1.9988173246383667" fill="undefined"/>
        <path id="ID0.26843242160975933" d="M 187.2997 189.4016 L 187.2997 188.802 C 189.2986 188.6021 189.2986 188.4022 189.2986 185.8038 L 189.2986 176.0096 C 187.2997 180.407 184.1016 187.2029 183.3021 189.4016 L 182.7025 189.4016 C 181.9029 187.2029 179.1046 180.6068 177.3057 176.2094 C 176.9059 184.6045 176.9059 186.4034 176.9059 187.0031 C 176.9059 188.4022 177.5055 188.6021 179.1046 188.802 L 179.1046 189.4016 L 173.5079 189.4016 L 173.5079 188.802 C 174.9071 188.6021 175.5067 188.4022 175.7066 187.0031 C 175.9065 186.0036 175.9065 185.0042 176.5061 176.4093 C 176.5061 175.21 176.3063 174.8103 174.3074 174.6104 L 174.3074 174.0107 L 178.5049 174.0107 L 183.9018 186.2035 L 189.4984 174.0107 L 193.696 174.0107 L 193.696 174.6104 C 191.6971 174.8103 191.2974 175.0102 191.4973 176.8091 L 191.4973 186.0036 C 191.4973 188.6021 191.6971 188.6021 193.696 189.0019 L 193.696 189.6015 L 187.2997 189.6015 Z " stroke-width="1.9988173246383667" fill="undefined"/>
        <path id="ID0.6725782961584628" d="M 259.2572 189.4016 L 259.2572 188.802 C 261.256 188.6021 261.256 188.4022 261.256 185.8038 L 261.256 176.0096 C 259.2572 180.407 256.0591 187.2029 255.2595 189.4016 L 254.6599 189.4016 C 253.8604 187.2029 251.062 180.6068 249.2631 176.2094 C 248.8633 184.6045 248.8633 186.4034 248.8633 187.0031 C 248.8633 188.4022 249.463 188.6021 251.062 188.802 L 251.062 189.4016 L 245.4653 189.4016 L 245.4653 188.802 C 246.8645 188.6021 247.4641 188.4022 247.664 187.0031 C 247.8639 186.0036 247.8639 185.0042 248.4636 176.4093 C 248.4636 175.21 248.2637 174.8103 246.2649 174.6104 L 246.2649 174.0107 L 250.4624 174.0107 L 255.8592 186.2035 L 261.4559 174.0107 L 265.6534 174.0107 L 265.6534 174.6104 C 263.6546 174.8103 263.2548 175.0102 263.4547 176.8091 L 263.4547 186.0036 C 263.4547 188.6021 263.6546 188.6021 265.6534 189.0019 L 265.6534 189.6015 L 259.2572 189.6015 Z " stroke-width="1.9988173246383667" fill="undefined"/>
        <path id="ID0.6685515288263559" d="M 288.4399 185.6039 C 288.24 186.2035 287.6404 188.6021 287.4405 189.4016 L 275.8474 189.4016 L 275.8474 188.802 C 278.0461 188.6021 278.2459 188.4022 278.2459 186.4034 L 278.2459 177.009 C 278.2459 174.8103 278.0461 174.8103 276.2471 174.6104 L 276.2471 174.0107 L 283.6427 174.0107 C 285.8414 174.0107 286.8408 174.0107 287.0407 174.0107 C 287.0407 174.6104 287.2406 176.4093 287.2406 177.6086 L 286.4411 177.8085 C 286.2412 177.009 286.0413 176.4093 285.6416 176.0096 C 285.2418 175.21 284.6421 175.0102 283.243 175.0102 L 281.0443 175.0102 C 280.2448 175.0102 280.2448 175.0102 280.2448 175.8097 L 280.2448 181.2065 L 282.8432 181.2065 C 284.6421 181.2065 284.842 180.8067 285.0419 179.2077 L 285.8414 179.2077 L 285.8414 184.2047 L 285.0419 184.2047 C 284.6421 182.4058 284.4423 182.2059 282.8432 182.2059 L 280.2448 182.2059 L 280.2448 187.0031 C 280.2448 188.6021 280.8444 188.802 282.0437 188.802 L 284.2424 188.802 C 285.6416 188.802 286.0413 188.6021 286.4411 188.0025 C 286.8408 187.4028 287.4405 186.6033 287.6404 185.8038 L 288.4399 185.6039 Z " stroke-width="1.9988173246383667" fill="undefined"/>
        <path id="ID0.8592948471195996" d="M 315.0242 174.6104 C 313.4251 174.8103 313.0254 175.0102 312.8255 176.2094 C 312.8255 177.009 312.8255 178.0084 312.8255 180.2071 L 312.8255 189.8014 L 312.0259 189.8014 L 301.832 177.2089 L 301.832 183.2053 C 301.832 185.404 301.832 186.4034 302.0319 187.2029 C 302.0319 188.4022 302.6315 188.802 304.4304 189.0019 L 304.4304 189.6015 L 298.6339 189.6015 L 298.6339 189.0019 C 300.033 188.802 300.6327 188.6021 300.8326 187.4028 C 300.8326 186.6033 301.0325 185.6039 301.0325 183.4052 L 301.0325 177.2089 C 301.0325 176.6092 301.0325 176.2094 300.6327 175.6098 C 300.2329 175.0102 299.6333 174.8103 298.434 174.8103 L 298.434 174.2106 L 302.0319 174.2106 L 312.2258 186.2035 L 312.2258 180.407 C 312.2258 178.2083 312.2258 177.2089 312.0259 176.4093 C 312.0259 175.4099 311.4263 175.0102 309.4275 174.8103 L 309.4275 174.2106 L 315.4239 174.2106 L 315.4239 174.6104 Z " stroke-width="1.9988173246383667" fill="undefined"/>
        <path id="ID0.9346009567379951" d="M 333.2134 189.4016 L 333.2134 188.802 C 334.8125 188.6021 335.0123 188.4022 334.6126 187.4028 C 334.2128 186.4034 333.8131 185.2041 333.4133 183.8049 L 328.2164 183.8049 C 327.8166 184.8044 327.4168 185.8038 327.217 186.8032 C 326.6173 188.4022 327.0171 188.6021 329.0159 188.802 L 329.0159 189.4016 L 323.4192 189.4016 L 323.4192 188.802 C 325.0183 188.6021 325.2181 188.4022 326.2175 186.2035 L 331.2146 173.611 L 332.0141 173.4111 C 333.6132 177.6086 335.2122 182.006 336.6114 186.2035 C 337.4109 188.2023 337.6108 188.4022 339.2099 188.6021 L 339.2099 189.2018 L 333.2134 189.2018 Z M 330.8148 176.6092 C 330.0153 178.608 329.2158 180.8067 328.4162 182.8055 L 332.8136 182.8055 L 330.8148 176.6092 Z " stroke-width="1.9988173246383667" fill="undefined"/>
        <path id="ID0.17000851361081004" d="M 362.596 185.6039 C 362.1963 186.8032 361.5966 188.4022 361.1969 189.2018 C 360.5972 189.4016 358.5984 189.8014 356.7995 189.8014 C 351.0029 189.8014 348.2045 186.0036 348.2045 181.8061 C 348.2045 177.009 352.0023 173.611 357.1992 173.611 C 359.198 173.611 360.997 174.0107 361.7965 174.2106 C 361.7965 175.21 361.9964 176.8091 362.1963 178.0084 L 361.3967 178.2083 C 360.997 176.6092 360.3973 175.6098 359.198 175.21 C 358.5984 175.0102 357.599 174.8103 356.5996 174.8103 C 352.6019 174.8103 350.6031 177.8085 350.6031 181.6063 C 350.6031 186.2035 353.0017 189.2018 356.7995 189.2018 C 359.198 189.2018 360.3973 188.0025 361.5966 185.6039 L 362.596 185.6039 Z " stroke-width="1.9988173246383667" fill="undefined"/>
        <path id="ID0.09259189711883664" d="M 385.5824 185.6039 C 385.3825 186.2035 384.7829 188.6021 384.583 189.4016 L 372.9899 189.4016 L 372.9899 188.802 C 375.1886 188.6021 375.3885 188.4022 375.3885 186.4034 L 375.3885 177.009 C 375.3885 174.8103 375.1886 174.8103 373.3896 174.6104 L 373.3896 174.0107 L 380.7853 174.0107 C 382.984 174.0107 383.9834 174.0107 384.1833 174.0107 C 384.1833 174.6104 384.3831 176.4093 384.3831 177.6086 L 383.5836 177.8085 C 383.3837 177.009 383.1838 176.4093 382.7841 176.0096 C 382.3843 175.21 381.7847 175.0102 380.3855 175.0102 L 377.9869 175.0102 C 377.1874 175.0102 377.1874 175.0102 377.1874 175.8097 L 377.1874 181.2065 L 379.7859 181.2065 C 381.5848 181.2065 381.7847 180.8067 381.9846 179.2077 L 382.7841 179.2077 L 382.7841 184.2047 L 381.9846 184.2047 C 381.5848 182.4058 381.3849 182.2059 379.7859 182.2059 L 377.1874 182.2059 L 377.1874 187.0031 C 377.1874 188.6021 377.787 188.802 378.9863 188.802 L 381.185 188.802 C 382.5842 188.802 382.984 188.6021 383.3837 188.0025 C 383.7835 187.4028 384.3831 186.6033 384.583 185.8038 L 385.5824 185.6039 Z " stroke-width="1.9988173246383667" fill="undefined"/>
      </g>
    </g>
  </g>
</svg>