<svg xmlns="http://www.w3.org/2000/svg" xmlns:xlink="http://www.w3.org/1999/xlink" version="1.1" width="108.33955220787367" height="335.6054518660768" viewBox="1.0383237381347032 -0.6115762214295056 108.33955220787367 335.6054518660768">
  <defs>
    <linearGradient id="grad_1" y2="1" x2="0">
      <stop offset="0" stop-color="#222325" stop-opacity="1"/>
      <stop offset="1" stop-color="#2E3034" stop-opacity="1"/>
    </linearGradient>
  </defs>
  <!-- Exported by Scratch - http://scratch.mit.edu/ -->
  <g id="ID0.9602425838820636">
    <g id="ID0.17693647183477879">
      <path id="ID0.7729651997797191" fill="#393C40" stroke="none" stroke-linecap="round" d="M 93.0991 103.5404 L 73.7883 103.4831 L 76.2604 119.8332 L 78.1529 133.025 L 81.4989 138.7004 L 84.5921 142.2137 L 96.8493 139.6765 L 98.5678 134.128 L 94.5323 114.752 L 93.0991 103.5404 Z " stroke-width="0.7788099752330396"/>
      <path id="ID0.9716172609478235" fill="#34373A" stroke="none" stroke-linecap="round" d="M 88.7819 108.8456 L 93.5886 106.8882 L 92.1963 100.5566 L 74.4701 108.716 L 77.163 111.7746 L 82.2957 113.8959 L 88.7819 108.8456 Z " stroke-width="0.7788099752330396"/>
      <g id="ID0.38066427363082767">
        <path id="ID0.4757494777441025" fill="#1D1E1F" stroke="none" stroke-linecap="round" d="M 85.6724 79.2592 L 77.6432 76.7007 L 62.1632 80.3812 L 68.4402 105.1283 L 77.9962 110.5145 L 82.2374 111.8082 L 85.4411 109.7364 L 88.3408 107.0764 L 93.9386 104.9293 L 94.3834 99.7238 L 94.1934 91.975 L 91.6383 83.8482 L 85.6724 79.2592 Z " stroke-width="0.45418606036844933"/>
        <path id="ID0.6007084371522069" fill="none" stroke="#0D0D0D" stroke-width="0.9083721207368987" stroke-linecap="round" d="M 93.4637 105.2404 L 88.4542 107.0836 L 84.1514 110.337 L 82.2302 111.9215 L 77.9962 110.5145 L 73.9403 108.0949 "/>
      </g>
    </g>
    <g id="ID0.7397577832452953">
      <path id="ID0.6726378230378032" fill="#34373A" stroke="none" stroke-linecap="round" d="M 98.0579 131.3206 L 82.0811 138.9669 L 82.7199 141.1926 L 98.318 133.3661 L 98.0579 131.3206 Z " stroke-width="0.7788099752330396"/>
      <path id="ID0.6507829907350242" fill="#1D1E1F" stroke="none" stroke-linecap="round" d="M 101.2051 132.5398 L 82.5164 141.1063 L 81.756 159.2018 L 83.0566 169.4295 L 82.0805 184.78 L 81.1022 190.9608 L 92.443 193.6329 L 93.0327 187.4273 L 95.3745 178.2117 L 98.8485 166.5317 L 101.178 157.5104 L 101.2051 132.5398 Z " stroke-width="0.7788099752330396"/>
      <path id="ID0.6829322893172503" fill="#1D1E1F" stroke="none" stroke-linecap="round" d="M 92.8563 193.269 L 83.2554 187.7811 L 79.8128 192.8298 L 75.5683 198.2177 L 75.2224 203.6584 L 75.5211 208.1646 L 77.2789 211.2028 L 78.2313 217.7015 L 82.7128 217.7914 L 84.0022 215.9224 L 85.5691 215.8269 L 88.8386 213.4986 L 92.3272 210.794 L 94.5422 206.6427 L 94.1974 199.7924 L 92.8563 193.269 Z " stroke-width="0.7788099752330396"/>
      <path id="ID0.47767175547778606" fill="none" stroke="#0D0D0D" stroke-width="1.5576199504660793" stroke-linecap="round" d="M 100.9654 136.3094 L 100.9404 132.4059 L 82.5942 141.1112 L 82.0575 154.4606 "/>
      <path id="ID0.5922487881034613" fill="#282A2B" stroke="none" stroke-linecap="round" d="M 100.054 165.0839 L 93.6719 159.2934 L 87.8376 159.0005 L 81.5698 164.2987 L 82.0231 178.6476 L 86.0351 186.1212 L 89.3384 186.3313 L 95.6125 179.7068 L 100.054 165.0839 Z " stroke-width="0.7788099752330396"/>
      <path id="ID0.36820242274552584" fill="#151616" stroke="none" stroke-linecap="round" d="M 94.0022 167.1878 L 85.9239 166.596 L 87.7919 177.7182 L 89.2348 177.7319 L 94.0022 167.1878 Z " stroke-width="0.7788099752330396"/>
      <path id="ID0.13569410238415003" fill="none" stroke="#232425" stroke-width="1.5576199504660793" stroke-linecap="round" d="M 93.9589 177.7705 L 88.0833 184.2642 L 83.5537 176.9528 "/>
      <path id="ID0.024502143263816833" fill="none" stroke="#0D0D0D" stroke-width="1.5576199504660793" stroke-linecap="round" d="M 99.6667 164.7108 L 93.9643 159.2757 L 88.2275 158.6769 L 81.882 163.9702 L 82.218 172.1855 "/>
    </g>
  </g>
  <path id="ID0.3809091211296618" fill="#393D40" stroke="none" stroke-linecap="round" d="M 55.5676 185.1821 L 75.5899 164.8452 L 91.8124 200.0841 L 94.6686 210.6508 L 95.8342 229.2258 L 88.6319 234.6552 L 76.9054 240.3069 L 69.8359 220.7244 L 67.6554 209.4765 L 55.5676 185.1821 Z " stroke-width="0.7305889911046087"/>
  <path id="ID0.5368814701214433" fill="#292D2E" stroke="none" stroke-linecap="round" d="M 60.5718 315.3965 L 62.749 306.3665 L 66.4938 296.794 L 76.9013 301.8461 L 88.735 308.568 L 106.9591 317.4994 L 108.5486 323.9094 L 84.0214 327.0345 L 62.5532 325.0569 L 60.5718 315.3965 Z " stroke-width="0.7702165211130397"/>
  <path id="ID0.05466862628236413" fill="#292D2E" stroke="none" stroke-linecap="round" d="M 71.6247 226.3312 L 98.3407 225.212 L 91.5553 243.4652 L 89.472 248.3177 L 87.0238 266.2943 L 79.6718 306.3781 L 63.8875 306.64 L 63.9831 284.391 L 62.1535 275.5221 L 61.7963 266.0094 L 65.2521 252.7862 L 66.5184 240.5302 L 71.6247 226.3312 Z " stroke-width="0.7305890255864593"/>
  <path id="ID0.4490455654449761" fill="none" stroke="#272A2B" stroke-width="1.6585524520142847" stroke-linecap="round" d="M 71.2418 226.577 L 97.9873 225.0725 L 88.729 248.6551 "/>
  <path id="ID0.10446935473009944" fill="none" stroke="#242728" stroke-width="1.6585524520142847" stroke-linecap="round" d="M 87.1247 260.8873 L 85.2308 277.6187 L 73.9851 283.8335 "/>
  <path id="ID0.42170455446466804" fill="none" stroke="#242728" stroke-width="1.6585524520142847" stroke-linecap="round" d="M 84.0144 278.6633 L 81.0176 293.4965 L 69.533 299.8813 "/>
  <path id="ID0.047098892275244" fill="none" stroke="#242728" stroke-width="1.6585524520142847" stroke-linecap="round" d="M 66.7197 240.3675 L 65.8456 244.2094 L 69.4085 253.4797 "/>
  <path id="ID0.3809091211296618" fill="#3E4246" stroke="none" stroke-linecap="round" d="M 34.6128 153.5746 L 56.0882 169.5655 L 54.5639 208.3292 L 52.3171 219.0419 L 44.9314 236.1253 L 36.0499 237.6976 L 23.0356 237.4162 L 25.0043 215.7334 L 24.8834 202.318 L 34.6128 153.5746 Z " stroke-width="0.7305889975210335"/>
  <path id="ID0.5368814701214433" fill="#303436" stroke="none" stroke-linecap="round" d="M 3.8443 318.8905 L 7.2882 310.2637 L 12.3611 301.3239 L 21.9409 307.8098 L 32.6939 316.152 L 49.4564 327.5933 L 50.1146 334.1646 L 25.3925 333.7567 L 4.4265 328.7348 L 3.8443 318.8905 Z " stroke-width="0.7702165342836704"/>
  <g id="ID0.17693647183477879">
    <path id="ID0.7729651997797191" fill="#3E4246" stroke="none" stroke-linecap="round" d="M 8.4619 102.7027 L 28.6907 101.9079 L 26.723 119.1312 L 25.2422 133.0236 L 21.9527 139.0968 L 18.8458 142.8952 L 5.9079 140.7034 L 3.8964 134.9559 L 7.387 114.5031 L 8.4619 102.7027 Z " stroke-width="0.8164595956062287"/>
    <path id="ID0.9716172609478235" fill="#393C40" stroke="none" stroke-linecap="round" d="M 13.1868 108.0965 L 8.0765 106.2286 L 9.2942 99.5423 L 28.1756 107.4161 L 25.4707 110.723 L 20.1741 113.1406 L 13.1868 108.0965 Z " stroke-width="0.8164595956062287"/>
    <g id="ID0.38066427363082767">
      <path id="ID0.4757494777441025" fill="#1D1E1F" stroke="none" stroke-linecap="round" d="M 15.2667 76.8819 L 23.5811 73.896 L 39.9388 77.1629 L 34.3043 103.3281 L 24.4979 109.3346 L 20.1038 110.8513 L 16.6686 108.8027 L 13.5295 106.1262 L 7.5833 104.0898 L 6.9192 98.6532 L 6.8234 90.5279 L 9.1911 81.9167 L 15.2667 76.8819 Z " stroke-width="0.476142576148617"/>
      <path id="ID0.6007084371522069" fill="none" stroke="#0D0D0D" stroke-width="0.952285152297234" stroke-linecap="round" d="M 8.0926 104.3977 L 13.411 106.1381 L 18.0426 109.3828 L 20.1156 110.9697 L 24.4979 109.3346 L 28.6549 106.6453 "/>
    </g>
  </g>
  <g id="ID0.7397577832452953">
    <path id="ID0.6726378230378032" fill="#393C40" stroke="none" stroke-linecap="round" d="M 4.9552 132.2899 L 22.2856 138.9566 L 21.8025 141.3356 L 4.8529 134.4492 L 4.9552 132.2899 Z " stroke-width="0.8164596085511332"/>
    <path id="ID0.6507829907350242" fill="#1D1E1F" stroke="none" stroke-linecap="round" d="M 1.8676 133.9144 L 22.1083 141.3179 L 24.4028 160.1658 L 23.8912 170.9622 L 26.1835 186.9235 L 27.7182 193.3018 L 16.0879 197.0342 L 14.9573 190.5979 L 11.7461 181.161 L 7.1475 169.2427 L 3.9654 160.0079 L 1.8676 133.9144 Z " stroke-width="0.8164596085511332"/>
    <path id="ID0.6829322893172503" fill="#1D1E1F" stroke="none" stroke-linecap="round" d="M 15.6258 196.6881 L 25.2045 190.1572 L 29.2206 195.1481 L 34.1029 200.427 L 34.9154 206.0842 L 34.9767 210.8182 L 33.3915 214.139 L 32.9347 221.0095 L 28.2588 221.4748 L 26.7563 219.6285 L 25.111 219.6586 L 21.5011 217.4963 L 17.6311 214.959 L 14.9724 210.8042 L 14.7649 203.6167 L 15.6258 196.6881 Z " stroke-width="0.8164596085511332"/>
    <path id="ID0.47767175547778606" fill="none" stroke="#0D0D0D" stroke-width="1.6329192171022664" stroke-linecap="round" d="M 2.4305 137.834 L 2.133 133.7525 L 22.0275 141.3295 L 23.6948 155.236 "/>
    <path id="ID0.5922487881034613" fill="#282A2B" stroke="none" stroke-linecap="round" d="M 5.6458 167.6994 L 11.8356 161.1191 L 17.9085 160.3294 L 24.8979 165.347 L 25.6134 180.3799 L 22.04 188.5229 L 18.6053 189.0162 L 11.4995 182.6132 L 5.6458 167.6994 Z " stroke-width="0.8164596085511332"/>
    <path id="ID0.36820242274552584" fill="#151616" stroke="none" stroke-linecap="round" d="M 12.2688 169.5134 L 20.6621 168.2255 L 19.6317 180.0036 L 18.125 180.1375 L 12.2688 169.5134 Z " stroke-width="0.8164596085511332"/>
    <path id="ID0.13569410238415003" fill="none" stroke="#232425" stroke-width="1.6329192171022664" stroke-linecap="round" d="M 13.189 180.5826 L 19.8676 186.882 L 23.9953 178.8657 "/>
    <path id="ID0.024502143263816833" fill="none" stroke="#0D0D0D" stroke-width="1.6329192171022664" stroke-linecap="round" d="M 6.1416 167.4075 L 11.6505 161.2549 L 17.5961 160.1536 L 24.6663 165.1595 L 24.996 173.7729 "/>
  </g>
  <g id="ID0.9157347986474633">
    <path id="ID0.7477802094072104" fill="#363A3D" stroke="none" stroke-linecap="round" d="M 86.1154 124.4715 L 66.6382 120.9715 L 65.7831 162.1489 L 82.2591 171.4206 L 85.0532 146.952 L 86.1154 124.4715 Z " stroke-width="0.47614257300029306"/>
    <path id="ID0.7477802094072104" fill="#363A3D" stroke="none" stroke-linecap="round" d="M 25.7831 123.2358 L 49.2874 120.8664 L 48.4323 162.0439 L 31.5855 170.6236 L 26.6325 145.3988 L 25.7831 123.2358 Z " stroke-width="0.47614257300029306"/>
    <path id="ID0.4270821204409003" fill="#3E4246" stroke="none" stroke-linecap="round" d="M 26.5179 103.1385 L 30.5858 90.7215 L 32.968 84.937 L 39.6594 78.0513 L 70.6913 80.1245 L 77.505 84.5522 L 80.2772 88.6578 L 87.0615 100.2286 L 86.13 110.6866 L 85.0642 116.1413 L 86.587 123.0785 L 86.9494 128.5629 L 84.6639 135.421 L 82.9366 140.6238 L 81.5537 149.8818 L 82.5985 171.8108 L 77.2868 179.9158 L 72.3736 186.0287 L 60.1457 191.204 L 48.6169 187.9404 L 44.8289 181.1467 L 40.0115 174.6174 L 31.5309 171.3457 L 30.9148 145.9728 L 29.8631 139.2835 L 25.5303 127.7637 L 24.4461 116.9066 L 26.5179 103.1385 Z " stroke-width="0.47614257300029306"/>
    <path id="ID0.052435632329434156" fill="#393C40" stroke="none" stroke-linecap="round" d="M 37.6176 153.3064 L 42.0676 153.4464 L 48.5926 156.868 L 53.6659 156.8067 L 59.5079 158.7139 L 63.7193 157.7298 L 65.3953 157.2884 L 79.6758 154.1797 L 79.9646 157.4718 L 71.3094 161.4592 L 65.3653 161.0263 L 59.7086 163.9568 L 53.1172 160.2957 L 46.6817 160.5907 L 36.883 156.5772 L 37.6176 153.3064 Z " stroke-width="0.47614257300029306"/>
    <path id="ID0.4987568911164999" fill="none" stroke="#27282B" stroke-width="0.9522851460005861" stroke-linecap="round" d="M 39.4282 78.7223 L 32.8732 84.7774 L 29.3333 94.705 "/>
    <path id="ID0.2889464790932834" fill="none" stroke="#27282B" stroke-width="0.9522851460005861" stroke-linecap="round" d="M 72.0073 80.8276 L 77.6407 84.7545 L 83.1604 94.1559 "/>
    <path id="ID0.8373676878400147" fill="#000000" stroke="#2C2F31" stroke-width="0.6155104186945868" stroke-linecap="round" d="M 42.7718 91.8289 L 43.1477 90.3053 L 39.4906 91.1437 L 34.5712 94.3904 L 30.345 99.3623 L 27.7859 104.9474 L 32.9649 102.7905 L 37.6638 102.7687 L 40.3933 103.7374 L 42.8766 106.7745 L 44.9998 105.7908 L 49.0137 105.5844 L 53.5076 106.7087 L 57.2907 109.9577 L 59.3094 113.0511 L 61.5215 110.069 L 65.2778 107.0016 L 69.42 105.6457 L 74.5766 105.7213 L 76.3974 106.3414 L 78.1518 103.2619 L 80.1315 102.0408 L 82.7243 102.6183 L 85.4998 104.2822 L 84.1302 100.4475 L 81.9186 96.4983 L 79.1278 93.4475 L 75.9954 91.1516 L 71.4947 90.1811 L 73.6416 92.125 L 73.5629 93.8928 L 71.9298 95.9766 L 68.336 97.1258 L 65.1675 97.3698 L 62.5473 97.4072 L 60.0914 93.7552 L 59.6147 95.8134 L 58.1543 95.7484 L 56.6463 93.2938 L 55.6126 97.4836 L 51.5286 97.5328 L 47.4156 96.5025 L 44.0919 95.0453 L 42.7718 91.8289 Z "/>
    <path id="ID0.5698574706912041" fill="none" stroke="#313537" stroke-width="0.9522851460005861" stroke-linecap="round" d="M 37.5497 153.1383 L 36.8879 156.3392 L 46.6792 160.7097 L 53.4702 160.4935 L 59.473 163.8328 "/>
    <path id="ID0.5698574706912041" fill="none" stroke="#313537" stroke-width="0.8933066257048137" stroke-linecap="round" d="M 79.4201 154.2278 L 79.8721 157.4518 L 71.1747 161.4384 L 65.2685 160.9586 L 59.9108 164.0619 "/>
    <path id="ID0.8947288258932531" fill="#393C40" stroke="none" stroke-linecap="round" d="M 39.1069 141.2169 L 46.131 141.2437 L 53.6367 143.3045 L 59.1869 148.9442 L 52.1848 144.4173 L 41.4575 142.6944 L 36.2773 145.611 L 39.1069 141.2169 Z " stroke-width="0.47614257300029306"/>
    <path id="ID0.8947288258932531" fill="#393C40" stroke="none" stroke-linecap="round" d="M 77.8687 143.0222 L 71.657 142.7878 L 64.9447 144.3343 L 59.8299 149.1171 L 66.1875 145.3716 L 75.7361 144.2423 L 80.2093 147.0115 L 77.8687 143.0222 Z " stroke-width="0.4213738884176943"/>
    <path id="ID0.9897695370018482" fill="#393C40" stroke="none" stroke-linecap="round" d="M 42.3037 153.5466 L 35.768 152.9346 L 36.2928 148.3021 L 37.4103 151.8257 L 42.5009 152.0743 L 48.5692 155.7007 L 54.0511 155.4574 L 58.1153 156.9705 L 59.659 149.1445 L 59.6933 158.9559 L 54.1414 156.8403 L 48.2623 156.7183 L 42.3037 153.5466 Z " stroke-width="0.47614257300029306"/>
    <path id="ID0.9897695370018482" fill="#393C40" stroke="none" stroke-linecap="round" d="M 74.6103 154.4693 L 80.155 154.1415 L 79.8823 149.8173 L 78.8083 153.0505 L 74.4979 153.0939 L 69.237 156.2401 L 64.6142 155.8119 L 61.1244 157.0682 L 60.1086 149.7389 L 59.7179 158.855 L 64.4868 157.0937 L 69.4588 157.197 L 74.6103 154.4693 Z " stroke-width="0.4232251205631144"/>
    <path id="ID0.3524594851769507" fill="#393C40" stroke="none" stroke-linecap="round" d="M 53.4472 119.0607 L 59.3046 121.3731 L 63.804 119.1329 L 60.5593 122.8755 L 61.28 134.0346 L 70.3664 133.366 L 59.867 136.7199 L 48.3014 131.7887 L 57.9468 134.013 L 57.7764 122.7225 L 53.4472 119.0607 Z " stroke-width="0.47614257300029306"/>
    <path id="ID0.9214867809787393" fill="#393C40" stroke="none" stroke-linecap="round" d="M 39.1875 137.3371 L 42.2502 133.186 L 47.0304 132.3327 L 41.1001 136.972 L 40.8012 139.8947 L 45.8463 140.0471 L 53.9436 143.4299 L 45.0098 141.3394 L 39.1545 141.2178 L 39.1875 137.3371 Z " stroke-width="0.47614257300029306"/>
    <path id="ID0.9214867809787393" fill="#393C40" stroke="none" stroke-linecap="round" d="M 77.622 138.9159 L 74.9825 134.8388 L 70.6446 133.8397 L 75.8873 138.4935 L 76.0471 141.292 L 71.428 141.2415 L 64.7251 143.9429 L 72.1427 142.5062 L 77.5015 142.6175 L 77.622 138.9159 Z " stroke-width="0.4451788453890468"/>
    <path id="ID0.8679121839813888" fill="#2C2F31" stroke="none" stroke-linecap="round" d="M 55.4241 118.0054 L 59.1988 119.703 L 62.5652 118.1299 L 63.4975 119.1017 L 59.5148 121.686 L 53.8012 119.329 L 55.4241 118.0054 Z " stroke-width="0.47614257300029306"/>
    <path id="ID0.24770551454275846" fill="none" stroke="#313537" stroke-width="0.9522851460005861" stroke-linecap="round" d="M 59.4959 116.1296 L 64.0631 119.7963 L 71.5509 120.4281 L 79.1898 119.5151 L 84.5053 115.8156 "/>
    <path id="ID0.20603158557787538" fill="none" stroke="#313537" stroke-width="0.9522851460005861" stroke-linecap="round" d="M 26.2476 111.4286 L 33.158 116.9298 L 45.4683 120.4001 L 52.7403 119.9558 L 59.0103 116.157 "/>
    <g id="ID0.5272086253389716">
      <path id="ID0.24770551454275846" fill="none" stroke="#363A3D" stroke-width="0.9522850864087884" stroke-linecap="round" d="M 28.9879 144.0256 L 38.9553 141.0655 "/>
      <path id="ID0.24770551454275846" fill="none" stroke="#363A3D" stroke-width="0.9522850864087884" stroke-linecap="round" d="M 26.6542 132.0538 L 47.2053 126.2655 "/>
    </g>
    <g id="ID0.5272086253389716">
      <path id="ID0.24770551454275846" fill="none" stroke="#363A3D" stroke-width="0.9522850864087884" stroke-linecap="round" d="M 84.4797 144.2318 L 77.5807 142.2557 "/>
      <path id="ID0.24770551454275846" fill="none" stroke="#363A3D" stroke-width="0.9522850864087884" stroke-linecap="round" d="M 85.2029 132.8424 L 71.4298 127.7945 "/>
    </g>
    <g id="ID0.7887678607366979">
      <path id="ID0.753661650698632" fill="none" stroke="#313537" stroke-width="0.9522850864087884" stroke-linecap="round" d="M 53.9207 119.1896 L 59.1078 121.6786 L 63.2085 119.1444 "/>
      <g id="ID0.8167418288066983">
        <path id="ID0.9553722990676761" fill="none" stroke="#313537" stroke-width="1.0409107743576298" stroke-linecap="round" d="M 59.4063 136.5479 L 53.8392 134.2892 L 47.706 132.2569 L 42.9163 133.1099 L 39.3201 137.3214 L 39.2484 140.7727 "/>
        <path id="ID0.5982440118677914" fill="none" stroke="#313537" stroke-width="0.8540413396238158" stroke-linecap="round" d="M 48.0334 131.8556 L 46.9532 126.5387 L 52.3362 119.5913 "/>
      </g>
      <g id="ID0.7324484633281827">
        <path id="ID0.04993448918685317" fill="none" stroke="#313537" stroke-width="0.9522850864087884" stroke-linecap="round" d="M 59.1102 121.5595 L 59.6068 132.0472 L 59.7418 148.4805 L 59.6413 164.7898 "/>
        <g id="ID0.8167418288066983">
          <path id="ID0.9553722990676761" fill="none" stroke="#313537" stroke-width="0.9699703077304642" stroke-linecap="round" d="M 59.7502 136.4275 L 64.8128 135.1754 L 70.2815 133.384 L 74.457 134.4232 L 77.4528 138.7716 L 77.3811 142.2229 "/>
          <path id="ID0.5982440118677914" fill="none" stroke="#313537" stroke-width="0.7916616152166959" stroke-linecap="round" d="M 70.0361 133.0336 L 71.1927 127.7632 L 66.7336 120.6113 "/>
          <path id="ID0.3567589442245662" fill="none" stroke="#313537" stroke-width="0.8967655150693851" stroke-linecap="round" d="M 59.6263 149.1264 L 64.8586 144.2583 L 72.2253 142.5063 L 77.7521 142.6211 L 79.8958 147.309 L 80.0431 154.3367 L 74.4805 154.9355 L 68.7638 157.9124 L 63.8491 157.5722 L 59.6031 159.3176 L 53.8142 156.6971 L 48.2197 156.819 L 41.8569 153.5913 L 35.5704 152.7464 L 36.0511 145.7318 L 38.7016 141.1434 L 44.982 141.2738 L 53.2746 143.351 L 58.9911 148.4465 Z "/>
        </g>
      </g>
    </g>
    <g id="ID0.9312638868577778">
      <path id="ID0.2888958193361759" fill="#393C40" stroke="none" stroke-linecap="round" d="M 39.9592 161.4331 L 50.1308 163.729 L 49.4755 166.6319 L 39.3039 164.3359 L 39.9592 161.4331 Z " stroke-width="0.4761425459216224"/>
      <path id="ID0.2888958193361759" fill="#393C40" stroke="none" stroke-linecap="round" d="M 29.2081 159.1286 L 40.6308 161.829 L 39.9755 164.7319 L 29.8039 162.4359 L 29.2081 159.1286 Z " stroke-width="0.4761425459216224"/>
      <g id="ID0.36424446757882833">
        <path id="ID0.7359844641759992" fill="#8A7B59" stroke="none" d="M 42.8379 160.7806 L 44.3612 160.8122 L 44.2318 167.0484 L 42.7084 167.0167 L 42.8379 160.7806 Z " stroke-width="0.4761425432043942"/>
        <path id="ID0.7359844641759992" fill="#8A7B59" stroke="none" d="M 40.9879 160.3306 L 42.5112 160.3622 L 42.3818 166.5984 L 40.8584 166.5667 L 40.9879 160.3306 Z " stroke-width="0.4761425432043942"/>
        <path id="ID0.7359844641759992" fill="#8A7B59" stroke="none" d="M 39.0379 159.6306 L 40.5612 159.6622 L 40.4318 165.8984 L 38.9084 165.8667 L 39.0379 159.6306 Z " stroke-width="0.4761425432043942"/>
        <path id="ID0.7359844641759992" fill="#8A7B59" stroke="none" d="M 44.7379 161.3306 L 46.2612 161.3622 L 46.1318 167.5984 L 44.6084 167.5667 L 44.7379 161.3306 Z " stroke-width="0.4761425432043942"/>
      </g>
      <g id="ID0.1049797898158431">
        <path id="ID0.08871637750416994" fill="#8A7B59" stroke="none" stroke-linecap="round" d="M 30.9895 158.5074 L 37.3705 159.6877 L 37.2067 165.2801 L 31.0643 164.081 L 30.9895 158.5074 Z " stroke-width="0.4761425432043942"/>
        <path id="ID0.13805592898279428" fill="#76694C" stroke="none" stroke-linecap="round" d="M 30.7978 158.2378 L 37.4882 159.4245 L 37.5236 162.3065 L 30.8114 161.0241 L 30.7978 158.2378 Z " stroke-width="0.4761425432043942"/>
        <path id="ID0.3221200187690556" fill="#61563F" stroke="none" stroke-linecap="round" d="M 33.55 160.489 L 34.4208 160.8689 L 34.4618 162.6272 L 33.5129 162.2716 L 33.55 160.489 Z " stroke-width="0.5167888865886084"/>
        <path id="ID0.1420820001512766" fill="#BAA578" stroke="none" stroke-linecap="round" d="M 36.5518 164.3318 L 37.2956 162.9185 L 37.2952 165.2283 L 31.056 164.0986 L 36.5518 164.3318 Z " stroke-width="0.4761425432043942"/>
      </g>
      <path id="ID0.2888958193361759" fill="#393C40" stroke="none" stroke-linecap="round" d="M 77.5902 162.6025 L 70.1307 164.2611 L 70.5102 166.806 L 77.9697 165.1474 L 77.5902 162.6025 Z " stroke-width="0.3810469777360591"/>
      <path id="ID0.2888958193361759" fill="#393C40" stroke="none" stroke-linecap="round" d="M 84.1651 160.9157 L 77.1307 162.7111 L 77.5102 165.256 L 83.6833 163.8204 L 84.1651 160.9157 Z " stroke-width="0.3810469777360591"/>
      <path id="ID0.7359844641759992" fill="#8A7B59" stroke="none" d="M 75.5701 161.5255 L 74.4633 161.5025 L 74.3506 166.9273 L 75.4574 166.9503 L 75.5701 161.5255 Z " stroke-width="0.3816027988624045"/>
      <path id="ID0.7359844641759992" fill="#8A7B59" stroke="none" d="M 76.9701 161.0755 L 75.8633 161.0525 L 75.7506 166.4773 L 76.8574 166.5003 L 76.9701 161.0755 Z " stroke-width="0.3816027988624045"/>
      <path id="ID0.7359844641759992" fill="#8A7B59" stroke="none" d="M 78.4701 160.6255 L 77.3633 160.6025 L 77.2506 166.0273 L 78.3574 166.0503 L 78.4701 160.6255 Z " stroke-width="0.3816027988624045"/>
      <path id="ID0.7359844641759992" fill="#8A7B59" stroke="none" d="M 74.1201 162.0755 L 73.0133 162.0525 L 72.9006 167.4773 L 74.0074 167.5003 L 74.1201 162.0755 Z " stroke-width="0.3816027988624045"/>
      <g id="ID0.1049797898158431">
        <path id="ID0.08871637750416994" fill="#8A7B59" stroke="none" stroke-linecap="round" d="M 84.4077 159.8854 L 79.4448 160.7507 L 79.3742 165.9213 L 84.1538 165.0302 L 84.4077 159.8854 Z " stroke-width="0.40545296430512573"/>
        <path id="ID0.13805592898279428" fill="#76694C" stroke="none" stroke-linecap="round" d="M 84.6523 159.6886 L 79.4505 160.549 L 79.3217 163.2094 L 84.5437 162.2614 L 84.6523 159.6886 Z " stroke-width="0.40545296430512573"/>
        <path id="ID0.3221200187690556" fill="#61563F" stroke="none" stroke-linecap="round" d="M 82.5299 161.6428 L 81.8449 161.963 L 81.7513 163.5854 L 82.4957 163.2903 L 82.5299 161.6428 Z " stroke-width="0.4400648059527854"/>
        <path id="ID0.1420820001512766" fill="#BAA578" stroke="none" stroke-linecap="round" d="M 79.9982 165.1103 L 79.4743 163.7788 L 79.3933 165.912 L 84.245 165.0884 L 79.9982 165.1103 Z " stroke-width="0.40545296430512573"/>
      </g>
      <g id="ID0.6836685389280319">
        <path id="ID0.09357938077300787" fill="#857656" stroke="none" d="M 50.7247 160.9089 L 68.6952 161.2821 L 68.5618 167.7086 L 50.5913 167.3354 L 50.7247 160.9089 Z " stroke-width="0.42833206411122815"/>
        <path id="ID0.6492703901603818" fill="#7C6E50" stroke="none" stroke-linecap="round" d="M 51.3684 163.093 L 59.5158 166.3578 L 68.4106 163.4469 L 68.3221 167.7075 L 51.2799 167.3536 L 51.3684 163.093 Z " stroke-width="0.4761425432043942"/>
        <g id="ID0.9254062357358634">
          <g id="ID0.49943465692922473">
            <path id="ID0.140373723115772" fill="#968561" stroke="none" d="M 67.1906 160.0517 L 72.308 160.1579 L 72.1202 169.2027 L 67.0028 169.0964 L 67.1906 160.0517 Z " stroke-width="0.4761425432043942"/>
            <path id="ID0.8286363878287375" fill="#BAA578" stroke="none" stroke-linecap="round" d="M 67.1728 159.8742 L 72.4043 160.221 L 68.2469 160.8966 L 67.1789 163.0176 L 67.1728 159.8742 Z " stroke-width="0.4761425432043942"/>
            <path id="ID0.7362233307212591" fill="#8A7B59" stroke="none" stroke-linecap="round" d="M 67.07 165.968 L 69.7825 166.072 L 72.2845 163.6951 L 72.1683 169.2885 L 67.0033 169.1813 L 67.07 165.968 Z " stroke-width="0.4761425432043942"/>
          </g>
          <g id="ID0.49943465692922473">
            <path id="ID0.140373723115772" fill="#968561" stroke="none" d="M 52.1483 159.9906 L 47.0309 159.8843 L 46.8431 168.9291 L 51.9605 169.0354 L 52.1483 159.9906 Z " stroke-width="0.4761425432043942"/>
            <path id="ID0.8286363878287375" fill="#BAA578" stroke="none" stroke-linecap="round" d="M 52.2093 159.8013 L 46.9679 159.9306 L 51.0936 160.7782 L 52.0726 162.9417 L 52.2093 159.8013 Z " stroke-width="0.4761425432043942"/>
            <path id="ID0.7362233307212591" fill="#8A7B59" stroke="none" stroke-linecap="round" d="M 52.0589 165.8941 L 49.3445 165.8854 L 46.9433 163.4066 L 46.8272 169.0001 L 51.9922 169.1074 L 52.0589 165.8941 Z " stroke-width="0.4761425432043942"/>
          </g>
        </g>
      </g>
    </g>
  </g>
  <g id="ID0.8333355090580881">
    <path id="ID0.9286923445761204" fill="#27282B" stroke="none" stroke-linecap="round" d="M 45.863 44.1601 L 64.6707 45.6361 L 65.1468 69.9908 L 80.3834 77.1329 L 57.5285 88.4889 L 20.8656 75.9426 L 40.7445 65.3484 L 45.863 44.1601 Z " stroke-width="0.4761425852775574"/>
    <path id="ID0.5448851804248989" fill="none" stroke="#1D1E1F" stroke-width="0.9522851705551147" stroke-linecap="round" d="M 42.1729 59.5871 L 40.935 65.158 L 58.0285 73.0143 L 64.8611 70.086 "/>
    <path id="ID0.262191956397146" fill="none" stroke="#1D1E1F" stroke-width="0.9522851705551147" stroke-linecap="round" d="M 44.9346 64.539 L 57.6476 70.7288 L 60.6473 69.6099 "/>
  </g>
  <g id="ID0.3450673264451325">
    <g id="ID0.9831569031812251">
      <path id="ID0.0877610077150166" fill="#2E3034" stroke="none" stroke-linecap="round" d="M 68.7251 13.3343 L 64.1527 0.2177 L 64.1527 28.7463 L 71.8241 28.7463 L 68.7251 13.3343 Z " stroke-width="0.5866066539949776"/>
      <path id="ID0.796130308881402" fill="#242628" stroke="none" stroke-linecap="round" d="M 69.033 13.3789 L 64.105 0.2623 L 67.6613 14.1004 L 68.6012 28.9877 L 71.7764 28.6926 L 69.033 13.3789 Z " stroke-width="0.5866066539949776"/>
    </g>
    <g id="ID0.9831569031812251">
      <path id="ID0.0877610077150166" fill="#2E3034" stroke="none" stroke-linecap="round" d="M 44.8249 13.4843 L 49.3973 0.3677 L 49.3973 28.8963 L 41.7259 28.8963 L 44.8249 13.4843 Z " stroke-width="0.5866066539949776"/>
      <path id="ID0.796130308881402" fill="#242628" stroke="none" stroke-linecap="round" d="M 44.417 13.5289 L 49.345 0.4123 L 45.7887 14.2504 L 44.6964 28.8098 L 41.6736 28.8426 L 44.417 13.5289 Z " stroke-width="0.5866066539949776"/>
    </g>
    <path id="ID0.8999492498114705" fill="#2E3034" stroke="none" stroke-linecap="round" d="M 62.3733 19.3124 C 66.7775 19.7915 71.5093 22.5019 73.6416 26.3848 C 76.0745 30.8179 74.1267 36.4165 74.4265 41.412 C 74.5997 43.1155 75.3923 44.8682 75.0615 46.4924 C 74.3879 49.7962 72.7139 52.8251 71.6323 56.0181 C 70.9236 58.1107 70.7691 60.4655 69.6001 62.3686 C 68.2843 64.6212 66.9416 67.7553 64.3419 68.211 C 60.488 68.8862 56.4115 67.0451 52.9619 65.2898 C 50.1281 63.8475 47.4746 61.6355 45.9002 58.8631 C 43.0806 53.7182 40.5196 48.0582 40.134 42.1741 C 39.7067 35.6514 38.9365 27.5853 43.6902 22.8687 C 47.9425 18.3273 55.8262 18.6032 62.3733 19.3124 Z " stroke-width="0.508037269115448"/>
    <path id="ID0.2441388238221407" fill="#AB8E85" stroke="none" d="M 60.0438 44.1745 C 64.1241 44.3416 69.5631 41.1768 72.2883 43.9234 C 74.7434 46.5142 71.3753 51.3755 70.4045 54.8492 C 69.4375 58.304 68.7493 62.0426 66.5114 64.8959 C 65.4439 66.1643 63.2186 66.2359 61.488 65.9634 C 58.3761 65.4698 55.3143 64.1864 52.7198 62.3955 C 50.0348 60.5432 46.487 58.5137 45.9156 55.2887 C 45.1923 51.2035 45.8566 45.8084 49.0552 43.2327 C 51.9889 40.9834 56.3743 44.0238 60.0438 44.1745 Z " stroke-width="1.2558400630950928"/>
    <path id="ID0.46721756737679243" fill="#A2887F" stroke="none" stroke-linecap="round" d="M 45.4363 45.2953 L 47.1129 45.9812 L 73.1244 45.6001 L 65.9102 50.6805 L 49.1704 48.2165 L 50.2881 50.6043 L 50.5421 56.2181 L 54.1746 63.4068 L 49.6023 56.7261 L 45.4363 45.2953 Z " stroke-width="0.508037269115448"/>
    <path id="ID0.8256730306893587" fill="none" stroke="#937B73" stroke-width="1.016074538230896" stroke-linecap="round" d="M 56.3886 57.0778 C 56.3886 57.0778 59.0878 56.4813 60.4529 56.2903 C 60.7943 56.2425 61.1326 56.3203 61.4689 56.3665 C 61.8109 56.4138 62.1401 56.5814 62.485 56.5697 C 63.1688 56.5469 63.8379 56.3497 64.5172 56.2649 C 64.854 56.2227 65.1939 56.1846 65.5332 56.1887 C 65.8731 56.1928 66.2181 56.2131 66.5493 56.2903 C 67.0939 56.4173 68.1496 56.7983 68.1496 56.7983 "/>
    <path id="ID0.7592270169407129" fill="none" stroke="#937B73" stroke-width="1.016074538230896" stroke-linecap="round" d="M 64.9693 58.4019 C 64.9693 58.4019 64.3475 58.7468 64.004 58.8083 C 63.6708 58.8682 63.3248 58.7235 62.988 58.7575 C 62.6491 58.792 62.3351 58.9688 61.9973 59.0115 C 61.6615 59.0542 61.3109 59.0867 60.9812 59.0115 C 60.7008 58.9475 60.2192 58.6051 60.2192 58.6051 "/>
    <path id="ID0.5332203092984855" fill="none" stroke="#937B73" stroke-width="1.016074538230896" stroke-linecap="round" d="M 59.0009 48.9532 C 59.0009 48.9532 58.3954 49.385 58.2897 49.7152 C 58.1525 50.1577 57.898 51.0026 58.3405 51.3156 C 58.9212 51.6056 59.6797 50.8786 60.3726 50.9345 C 61.0433 50.9914 62.354 51.4426 62.354 51.4426 "/>
    <path id="ID0.2278452254831791" fill="none" stroke="#937B73" stroke-width="1.016074538230896" stroke-linecap="round" d="M 63.3447 45.2953 C 63.3447 45.2953 64.2789 47.1578 64.7418 48.0895 C 64.8967 48.4015 65.0674 48.7073 65.199 49.0294 C 65.3306 49.3515 65.5429 49.6726 65.5292 50.0201 C 65.5155 50.3686 65.3092 50.6907 65.1228 50.9853 C 64.9983 51.1824 64.6148 51.468 64.6148 51.468 "/>
    <path id="ID0.6473136460408568" fill="none" stroke="#937B73" stroke-width="1.016074563998663" stroke-linecap="round" d="M 63.6945 62.2247 C 63.6945 62.2247 64.0113 62.8595 64.0622 63.2041 C 64.1113 63.5396 64.0513 63.8871 63.9877 64.2203 C 63.8923 64.7223 63.5871 65.7015 63.5871 65.7015 "/>
    <path id="ID0.11669129692018032" fill="#2E3034" stroke="none" stroke-linecap="round" d="M 47.3669 39.9609 L 70.6096 41.739 L 74.5469 44.4062 L 65.1482 49.1056 L 44.4457 46.5654 L 47.3669 39.9609 Z " stroke-width="0.508037269115448"/>
    <path id="ID0.14635155349969864" fill="#2E3034" stroke="none" stroke-linecap="round" d="M 44.6997 45.2191 L 46.554 45.6001 L 49.1958 50.8075 L 49.5006 56.5737 L 51.3296 60.384 L 54.2254 63.9149 L 45.9952 58.7075 L 44.6997 45.2191 Z " stroke-width="0.508037269115448"/>
    <path id="ID0.28340246016159654" fill="#1C1D1F" stroke="none" stroke-linecap="round" d="M 47.5308 36.8008 L 50.9604 38.3401 L 60.6283 39.2313 L 60.6283 44.9834 L 53.688 44.0382 L 49.8262 42.958 L 47.8008 41.4457 L 46.9367 39.7174 L 47.5308 36.8008 Z " stroke-width="0.5401026606559753"/>
    <path id="ID0.6101007834076881" fill="#FFFFFF" stroke="none" stroke-linecap="round" d="M 51.3473 39.3334 L 53.0001 39.7332 L 56.78 40.9344 L 57.3247 42.9027 L 52.07 41.4498 L 51.3473 39.3334 Z " stroke-width="0.4061061920009203"/>
    <path id="ID0.28340246016159654" fill="#1C1D1F" stroke="none" stroke-linecap="round" d="M 73.1357 36.8586 L 70.0774 38.2313 L 61.4563 39.0259 L 61.4563 44.1553 L 67.6452 43.3124 L 71.0888 42.3492 L 72.8949 41.0006 L 73.6655 39.4594 L 73.1357 36.8586 Z " stroke-width="0.4816249907016754"/>
    <path id="ID0.6101007834076881" fill="#FFFFFF" stroke="none" stroke-linecap="round" d="M 71.4526 38.9089 L 69.9112 39.4003 L 66.4053 40.7963 L 66.0217 42.7012 L 70.9101 40.9663 L 71.4526 38.9089 Z " stroke-width="0.3863867372519633"/>
    <g id="ID0.07940126257017255">
      <path id="ID0.46257128613069654" fill="#27282B" stroke="none" stroke-linecap="round" d="M 60.8045 39.0743 L 65.1482 49.0318 L 55.1145 47.7617 L 60.8045 39.0743 Z " stroke-width="0.508037269115448"/>
      <path id="ID0.9845890481956303" fill="#27282B" stroke="none" stroke-linecap="round" d="M 61.6173 39.1989 L 69.8983 46.5654 L 65.2244 49.1056 L 61.6173 39.1989 Z " stroke-width="0.508037269115448"/>
    </g>
    <path id="ID0.20071752788498998" fill="#202324" stroke="none" d="M 52.3686 34.5018 L 56.5091 37.0673 L 61.2593 38.2358 L 61.3355 39.6329 L 53.5625 38.3628 L 47.6693 36.0259 L 49.3966 34.2477 L 52.3686 34.5018 Z " stroke-width="0.508037269115448"/>
    <path id="ID0.20071752788498998" fill="#202324" stroke="none" d="M 69.4242 34.2614 L 66.3713 36.7084 L 61.1277 38.2698 L 61.0578 39.5516 L 68.1891 38.3864 L 73.6191 36.3588 L 72.081 34.1216 L 69.4242 34.2614 Z " stroke-width="0.46609798073768616"/>
    <path id="ID0.521138689480722" fill="none" stroke="#212325" stroke-width="0.9060627222061157" stroke-linecap="round" d="M 73.2139 36.5742 L 69.9747 38.1598 L 61.4351 39.4057 "/>
    <path id="ID0.17828734638169408" fill="none" stroke="#202324" stroke-width="1.016074538230896" stroke-linecap="round" d="M 65.0466 48.5467 L 62.1254 41.3072 C 61.1245 38.8879 61.2729 39.4564 61.0839 38.4876 C 61.0179 38.1493 61.2358 37.8129 61.2871 37.4715 C 61.3374 37.1352 61.4014 36.7953 61.3887 36.4555 C 61.376 36.112 61.2769 35.7762 61.2109 35.4394 C 61.1078 34.9136 60.8807 33.8645 60.8807 33.8645 "/>
    <path id="ID0.521138689480722" fill="none" stroke="#212325" stroke-width="1.016074538230896" stroke-linecap="round" d="M 47.8068 36.3055 L 51.4392 38.0836 L 61.0157 39.4807 "/>
    <path id="ID0.8012696979567409" fill="none" stroke="url(#grad_1)" stroke-width="1.016074538230896" stroke-linecap="round" d="M 73.1244 45.1429 L 65.6562 49.0548 L 47.0621 46.7178 L 49.0434 50.5789 L 49.3482 56.6753 L 51.2788 60.2824 L 54.1746 63.9149 "/>
    <path id="ID0.043594349175691605" fill="#D7E2FD" stroke="none" stroke-linecap="round" d="M 56.5289 41.9677 L 56.7575 40.85 L 57.2656 42.9075 L 54.6746 42.1709 L 56.5289 41.9677 Z " stroke-width="0.508037269115448"/>
    <path id="ID0.043594349175691605" fill="#D7E2FD" stroke="none" stroke-linecap="round" d="M 66.7225 41.8348 L 66.4574 40.8321 L 66.1024 42.7258 L 68.4161 41.9236 L 66.7225 41.8348 Z " stroke-width="0.4618642652203811"/>
  </g>
  <g id="ID0.9492031107656658">
    <path id="ID0.05466862628236413" fill="#303436" stroke="none" stroke-linecap="round" d="M 22.4703 228.398 L 49.1953 229.2759 L 41.0665 246.9718 L 38.6268 251.6553 L 34.8437 269.399 L 24.5205 308.8223 L 8.7607 307.9054 L 10.5166 285.7255 L 9.354 276.7448 L 9.7079 267.232 L 14.141 254.3036 L 16.3184 242.1763 L 22.4703 228.398 Z " stroke-width="0.7305889929532429"/>
    <path id="ID0.4490455654449761" fill="none" stroke="#272A2B" stroke-width="1.6585524339864728" stroke-linecap="round" d="M 22.1799 229.2097 L 48.9631 229.7055 L 37.9704 252.5313 "/>
    <path id="ID0.10446935473009944" fill="none" stroke="#242728" stroke-width="1.6585524339864728" stroke-linecap="round" d="M 35.4576 264.6097 L 32.3202 281.1531 L 20.642 286.5112 "/>
    <path id="ID0.42170455446466804" fill="none" stroke="#242728" stroke-width="1.6585524339864728" stroke-linecap="round" d="M 31.0293 282.104 L 26.9337 296.6721 L 15.0046 302.1819 "/>
    <path id="ID0.047098892275244" fill="none" stroke="#242728" stroke-width="1.6585524339864728" stroke-linecap="round" d="M 16.6081 242.6687 L 15.4497 246.4347 L 18.3107 255.9451 "/>
  </g>
</svg>