<svg xmlns="http://www.w3.org/2000/svg" xmlns:xlink="http://www.w3.org/1999/xlink" version="1.1" width="115.65365451782046" height="336.5859512707501" viewBox="1.056123762284233 -0.6115762899771194 115.65365451782046 336.5859512707501">
  <defs>
    <linearGradient id="grad_1" y2="1" x2="0">
      <stop offset="0" stop-color="#222325" stop-opacity="1"/>
      <stop offset="1" stop-color="#2E3034" stop-opacity="1"/>
    </linearGradient>
  </defs>
  <!-- Exported by Scratch - http://scratch.mit.edu/ -->
  <g id="ID0.9602425838820636">
    <g id="ID0.17693647183477879">
      <path id="ID0.7729651997797191" fill="#393C40" stroke="none" stroke-linecap="round" d="M 106.3692 103.1145 L 87.0637 103.5708 L 89.9697 119.8494 L 92.2124 132.9861 L 95.7081 138.5706 L 98.8936 142.0004 L 111.0791 139.1381 L 112.6494 133.5458 L 108.1 114.284 L 106.3692 103.1145 Z " stroke-width="0.7788099776705302"/>
      <path id="ID0.9716172609478235" fill="#34373A" stroke="none" stroke-linecap="round" d="M 102.1945 108.5327 L 106.9475 106.4481 L 105.3874 100.1558 L 87.8843 108.7837 L 90.6577 111.7696 L 95.845 113.7536 L 102.1945 108.5327 Z " stroke-width="0.7788099776705302"/>
      <g id="ID0.38066427363082767">
        <path id="ID0.4757494777441025" fill="#1D1E1F" stroke="none" stroke-linecap="round" d="M 98.241 79.0959 L 90.1467 76.7519 L 74.77 80.8427 L 81.7029 105.4142 L 91.3988 110.5444 L 95.6729 111.7248 L 98.8203 109.5685 L 101.6483 106.8323 L 107.187 104.5371 L 107.4932 99.3217 L 107.0973 91.5807 L 104.3268 83.5247 L 98.241 79.0959 Z " stroke-width="0.45418605753816454"/>
        <path id="ID0.6007084371522069" fill="none" stroke="#0D0D0D" stroke-width="0.9083721150763291" stroke-linecap="round" d="M 106.7206 104.8608 L 101.7618 106.8365 L 97.547 110.2033 L 95.6687 111.8383 L 91.3988 110.5444 L 87.28 108.2335 "/>
      </g>
    </g>
    <g id="ID0.7397577832452953">
      <path id="ID0.6726378230378032" fill="#34373A" stroke="none" stroke-linecap="round" d="M 112.0163 130.7503 L 96.2485 138.8188 L 96.9463 141.0268 L 112.3307 132.7882 L 112.0163 130.7503 Z " stroke-width="0.7788099776705302"/>
      <path id="ID0.6507829907350242" fill="#1D1E1F" stroke="none" stroke-linecap="round" d="M 115.2435 131.8881 L 96.7893 140.9485 L 96.5103 159.0579 L 98.0825 169.2474 L 97.515 184.6184 L 96.7014 190.8231 L 108.1092 193.1926 L 108.5336 186.9736 L 110.6296 177.6989 L 113.7918 165.9307 L 115.8805 156.8505 L 115.2435 131.8881 Z " stroke-width="0.7788099776705302"/>
      <path id="ID0.6829322893172503" fill="#1D1E1F" stroke="none" stroke-linecap="round" d="M 108.5127 192.8178 L 98.7692 187.5872 L 95.4622 192.7257 L 91.3624 198.2245 L 91.1613 203.6725 L 91.5798 208.1692 L 93.4177 211.1595 L 94.5427 217.6306 L 99.025 217.6013 L 100.2642 215.6987 L 101.828 215.5616 L 105.0345 213.1471 L 108.4499 210.3507 L 110.5536 206.142 L 110.0268 199.3033 L 108.5127 192.8178 Z " stroke-width="0.7788099776705302"/>
      <path id="ID0.47767175547778606" fill="none" stroke="#0D0D0D" stroke-width="1.5576199553410603" stroke-linecap="round" d="M 115.1041 135.6628 L 114.9754 131.7613 L 96.8671 140.9514 L 96.6856 154.3104 "/>
      <path id="ID0.5922487881034613" fill="#282A2B" stroke="none" stroke-linecap="round" d="M 114.8741 164.4665 L 108.3402 158.8478 L 102.5002 158.7101 L 96.3755 164.1732 L 97.2103 178.5049 L 101.4196 185.8692 L 104.7273 185.9913 L 110.823 179.2023 L 114.8741 164.4665 Z " stroke-width="0.7788099776705302"/>
      <path id="ID0.36820242274552584" fill="#151616" stroke="none" stroke-linecap="round" d="M 108.9569 166.7814 L 100.8656 166.4047 L 103.0288 177.4733 L 104.4715 177.4486 L 108.9569 166.7814 Z " stroke-width="0.7788099776705302"/>
      <path id="ID0.13569410238415003" fill="none" stroke="#232425" stroke-width="1.5576199553410603" stroke-linecap="round" d="M 109.2027 177.2955 L 103.5019 183.9432 L 98.7795 176.7548 "/>
      <path id="ID0.024502143263816833" fill="none" stroke="#0D0D0D" stroke-width="1.5576199553410603" stroke-linecap="round" d="M 114.5612 164.0886 L 108.7163 158.8071 L 102.9656 158.361 L 96.7631 163.8212 L 97.3175 172.0248 "/>
    </g>
  </g>
  <path id="ID0.3809091211296618" fill="#393D40" stroke="none" stroke-linecap="round" d="M 71.1313 183.6833 L 95.4115 168.6849 L 102.7986 206.7687 L 103.063 217.7114 L 99.7827 236.0316 L 91.4968 239.5947 L 78.7635 242.299 L 76.5481 221.5976 L 77.102 210.1537 L 71.1313 183.6833 Z " stroke-width="0.7305889988160762"/>
  <path id="ID0.3809091211296618" fill="#3E4246" stroke="none" stroke-linecap="round" d="M 44.3399 152.2611 L 68.5057 163.7901 L 74.5176 202.1151 L 74.3881 213.0602 L 70.4507 231.2505 L 62.0419 234.5131 L 49.2196 236.7575 L 46.9516 215.104 L 44.2349 201.9659 L 44.3399 152.2611 Z " stroke-width="0.7305889325478632"/>
  <g id="ID0.17693647183477879">
    <path id="ID0.7729651997797191" fill="#3E4246" stroke="none" stroke-linecap="round" d="M 22.115 102.0641 L 42.3592 101.971 L 39.7955 119.1158 L 37.834 132.9485 L 34.336 138.904 L 31.0992 142.5924 L 18.2451 139.9534 L 16.4341 134.1396 L 20.6316 113.8201 L 22.115 102.0641 Z " stroke-width="0.8164595881232414"/>
    <path id="ID0.9716172609478235" fill="#393C40" stroke="none" stroke-linecap="round" d="M 26.65 107.6184 L 21.6075 105.5745 L 23.0563 98.9344 L 41.6534 107.4581 L 38.8355 110.6692 L 33.4583 112.9017 L 26.65 107.6184 Z " stroke-width="0.8164595881232414"/>
    <g id="ID0.38066427363082767">
      <path id="ID0.4757494777441025" fill="#1D1E1F" stroke="none" stroke-linecap="round" d="M 29.8016 76.5283 L 38.2146 73.8324 L 54.4491 77.6645 L 47.9109 103.6186 L 37.9022 109.2815 L 33.4581 110.6449 L 30.096 108.4784 L 27.0516 105.6948 L 21.1795 103.4534 L 20.7044 97.9971 L 20.8903 89.8734 L 23.5552 81.3494 L 29.8016 76.5283 Z " stroke-width="0.47614255286904167"/>
      <path id="ID0.6007084371522069" fill="none" stroke="#0D0D0D" stroke-width="0.9522851057380833" stroke-linecap="round" d="M 21.6779 103.7788 L 26.9328 105.7025 L 31.4491 109.1059 L 33.4659 110.7637 L 37.9022 109.2815 L 42.15 106.738 "/>
    </g>
  </g>
  <g id="ID0.7397577832452953">
    <path id="ID0.6726378230378032" fill="#393C40" stroke="none" stroke-linecap="round" d="M 17.5723 131.2045 L 34.4972 138.8426 L 33.88 141.1903 L 17.3478 133.3545 L 17.5723 131.2045 Z " stroke-width="0.8164596151317008"/>
    <path id="ID0.6507829907350242" fill="#1D1E1F" stroke="none" stroke-linecap="round" d="M 14.3562 132.6517 L 34.1449 141.1903 L 35.3677 160.1379 L 34.2452 170.8879 L 35.6294 186.9535 L 36.8002 193.4085 L 24.977 196.4759 L 24.213 189.9858 L 21.5417 180.3822 L 17.6258 168.2224 L 14.9721 158.8221 L 14.3562 132.6517 Z " stroke-width="0.8164596151317008"/>
    <path id="ID0.6829322893172503" fill="#1D1E1F" stroke="none" stroke-linecap="round" d="M 24.5353 196.1042 L 34.4687 190.1266 L 38.1955 195.337 L 42.7709 200.884 L 43.2615 206.5781 L 43.0544 211.308 L 41.2836 214.5337 L 40.4383 221.3672 L 35.7435 221.5669 L 34.3481 219.6384 L 32.7037 219.5752 L 29.2221 217.2119 L 25.5021 214.4593 L 23.0831 210.1606 L 23.2832 202.9728 L 24.5353 196.1042 Z " stroke-width="0.8164596151317008"/>
    <path id="ID0.47767175547778606" fill="none" stroke="#0D0D0D" stroke-width="1.6329192302634017" stroke-linecap="round" d="M 14.6961 136.5969 L 14.6304 132.5052 L 34.0635 141.1973 L 34.9401 155.1759 "/>
    <path id="ID0.5922487881034613" fill="#282A2B" stroke="none" stroke-linecap="round" d="M 16.2393 166.6137 L 22.792 160.3946 L 28.8999 159.9503 L 35.5937 165.3558 L 35.4562 180.4052 L 31.4272 188.3326 L 27.9701 188.6305 L 21.2385 181.8351 L 16.2393 166.6137 Z " stroke-width="0.8164596151317008"/>
    <path id="ID0.36820242274552584" fill="#151616" stroke="none" stroke-linecap="round" d="M 22.7923 168.8174 L 31.2452 168.0072 L 29.549 179.7081 L 28.0371 179.7564 L 22.7923 168.8174 Z " stroke-width="0.8164596151317008"/>
    <path id="ID0.13569410238415003" fill="none" stroke="#232425" stroke-width="1.6329192302634017" stroke-linecap="round" d="M 23.015 179.8865 L 29.3259 186.5542 L 33.9012 178.7846 "/>
    <path id="ID0.024502143263816833" fill="none" stroke="#0D0D0D" stroke-width="1.6329192302634017" stroke-linecap="round" d="M 16.7255 166.3332 L 22.5742 160.5027 L 28.5726 159.74 L 35.3478 165.1385 L 35.1889 173.7568 "/>
  </g>
  <g id="ID0.9157347986474633">
    <path id="ID0.7477802094072104" fill="#363A3D" stroke="none" stroke-linecap="round" d="M 99.1154 124.4715 L 79.6382 120.9715 L 78.7831 162.1489 L 95.2591 171.4206 L 98.0532 146.952 L 99.1154 124.4715 Z " stroke-width="0.47614257300029306"/>
    <path id="ID0.7477802094072104" fill="#363A3D" stroke="none" stroke-linecap="round" d="M 38.7831 123.2358 L 62.2874 120.8664 L 61.4323 162.0439 L 44.5855 170.6236 L 39.6325 145.3988 L 38.7831 123.2358 Z " stroke-width="0.47614257300029306"/>
    <path id="ID0.4270821204409003" fill="#3E4246" stroke="none" stroke-linecap="round" d="M 39.5179 103.1385 L 43.5858 90.7215 L 45.968 84.937 L 52.6594 78.0513 L 83.6913 80.1245 L 90.505 84.5522 L 93.2772 88.6578 L 100.0615 100.2286 L 99.13 110.6866 L 98.0642 116.1413 L 99.587 123.0785 L 99.9494 128.5629 L 97.6639 135.421 L 95.9366 140.6238 L 94.5537 149.8818 L 95.5985 171.8108 L 90.2868 179.9158 L 85.3736 186.0287 L 73.1457 191.204 L 61.6169 187.9404 L 57.8289 181.1467 L 53.0115 174.6174 L 44.5309 171.3457 L 43.9148 145.9728 L 42.8631 139.2835 L 38.5303 127.7637 L 37.4461 116.9066 L 39.5179 103.1385 Z " stroke-width="0.47614257300029306"/>
    <path id="ID0.052435632329434156" fill="#393C40" stroke="none" stroke-linecap="round" d="M 50.6176 153.3064 L 55.0676 153.4464 L 61.5926 156.868 L 66.6659 156.8067 L 72.5079 158.7139 L 76.7193 157.7298 L 78.3953 157.2884 L 92.6758 154.1797 L 92.9646 157.4718 L 84.3094 161.4592 L 78.3653 161.0263 L 72.7086 163.9568 L 66.1172 160.2957 L 59.6817 160.5907 L 49.883 156.5772 L 50.6176 153.3064 Z " stroke-width="0.47614257300029306"/>
    <path id="ID0.4987568911164999" fill="none" stroke="#27282B" stroke-width="0.9522851460005861" stroke-linecap="round" d="M 52.4282 78.7223 L 45.8732 84.7774 L 42.3333 94.705 "/>
    <path id="ID0.2889464790932834" fill="none" stroke="#27282B" stroke-width="0.9522851460005861" stroke-linecap="round" d="M 85.0073 80.8276 L 90.6407 84.7545 L 96.1604 94.1559 "/>
    <path id="ID0.8373676878400147" fill="#000000" stroke="#2C2F31" stroke-width="0.6155104186945868" stroke-linecap="round" d="M 55.7718 91.8289 L 56.1477 90.3053 L 52.4906 91.1437 L 47.5712 94.3904 L 43.345 99.3623 L 40.7859 104.9474 L 45.9649 102.7905 L 50.6638 102.7687 L 53.3933 103.7374 L 55.8766 106.7745 L 57.9998 105.7908 L 62.0137 105.5844 L 66.5076 106.7087 L 70.2907 109.9577 L 72.3094 113.0511 L 74.5215 110.069 L 78.2778 107.0016 L 82.42 105.6457 L 87.5766 105.7213 L 89.3974 106.3414 L 91.1518 103.2619 L 93.1315 102.0408 L 95.7243 102.6183 L 98.4998 104.2822 L 97.1302 100.4475 L 94.9186 96.4983 L 92.1278 93.4475 L 88.9954 91.1516 L 84.4947 90.1811 L 86.6416 92.125 L 86.5629 93.8928 L 84.9298 95.9766 L 81.336 97.1258 L 78.1675 97.3698 L 75.5473 97.4072 L 73.0914 93.7552 L 72.6147 95.8134 L 71.1543 95.7484 L 69.6463 93.2938 L 68.6126 97.4836 L 64.5286 97.5328 L 60.4156 96.5025 L 57.0919 95.0453 L 55.7718 91.8289 Z "/>
    <path id="ID0.5698574706912041" fill="none" stroke="#313537" stroke-width="0.9522851460005861" stroke-linecap="round" d="M 50.5497 153.1383 L 49.8879 156.3392 L 59.6792 160.7097 L 66.4702 160.4935 L 72.473 163.8328 "/>
    <path id="ID0.5698574706912041" fill="none" stroke="#313537" stroke-width="0.8933066257048137" stroke-linecap="round" d="M 92.4201 154.2278 L 92.8721 157.4518 L 84.1747 161.4384 L 78.2685 160.9586 L 72.9108 164.0619 "/>
    <path id="ID0.8947288258932531" fill="#393C40" stroke="none" stroke-linecap="round" d="M 52.1069 141.2169 L 59.131 141.2437 L 66.6367 143.3045 L 72.1869 148.9442 L 65.1848 144.4173 L 54.4575 142.6944 L 49.2773 145.611 L 52.1069 141.2169 Z " stroke-width="0.47614257300029306"/>
    <path id="ID0.8947288258932531" fill="#393C40" stroke="none" stroke-linecap="round" d="M 90.8687 143.0222 L 84.657 142.7878 L 77.9447 144.3343 L 72.8299 149.1171 L 79.1875 145.3716 L 88.7361 144.2423 L 93.2093 147.0115 L 90.8687 143.0222 Z " stroke-width="0.4213738884176943"/>
    <path id="ID0.9897695370018482" fill="#393C40" stroke="none" stroke-linecap="round" d="M 55.3037 153.5466 L 48.768 152.9346 L 49.2928 148.3021 L 50.4103 151.8257 L 55.5009 152.0743 L 61.5692 155.7007 L 67.0511 155.4574 L 71.1153 156.9705 L 72.659 149.1445 L 72.6933 158.9559 L 67.1414 156.8403 L 61.2623 156.7183 L 55.3037 153.5466 Z " stroke-width="0.47614257300029306"/>
    <path id="ID0.9897695370018482" fill="#393C40" stroke="none" stroke-linecap="round" d="M 87.6103 154.4693 L 93.155 154.1415 L 92.8823 149.8173 L 91.8083 153.0505 L 87.4979 153.0939 L 82.237 156.2401 L 77.6142 155.8119 L 74.1244 157.0682 L 73.1086 149.7389 L 72.7179 158.855 L 77.4868 157.0937 L 82.4588 157.197 L 87.6103 154.4693 Z " stroke-width="0.4232251205631144"/>
    <path id="ID0.3524594851769507" fill="#393C40" stroke="none" stroke-linecap="round" d="M 66.4472 119.0607 L 72.3046 121.3731 L 76.804 119.1329 L 73.5593 122.8755 L 74.28 134.0346 L 83.3664 133.366 L 72.867 136.7199 L 61.3014 131.7887 L 70.9468 134.013 L 70.7764 122.7225 L 66.4472 119.0607 Z " stroke-width="0.47614257300029306"/>
    <path id="ID0.9214867809787393" fill="#393C40" stroke="none" stroke-linecap="round" d="M 52.1875 137.3371 L 55.2502 133.186 L 60.0304 132.3327 L 54.1001 136.972 L 53.8012 139.8947 L 58.8463 140.0471 L 66.9436 143.4299 L 58.0098 141.3394 L 52.1545 141.2178 L 52.1875 137.3371 Z " stroke-width="0.47614257300029306"/>
    <path id="ID0.9214867809787393" fill="#393C40" stroke="none" stroke-linecap="round" d="M 90.622 138.9159 L 87.9825 134.8388 L 83.6446 133.8397 L 88.8873 138.4935 L 89.0471 141.292 L 84.428 141.2415 L 77.7251 143.9429 L 85.1427 142.5062 L 90.5015 142.6175 L 90.622 138.9159 Z " stroke-width="0.4451788453890468"/>
    <path id="ID0.8679121839813888" fill="#2C2F31" stroke="none" stroke-linecap="round" d="M 68.4241 118.0054 L 72.1988 119.703 L 75.5652 118.1299 L 76.4975 119.1017 L 72.5148 121.686 L 66.8012 119.329 L 68.4241 118.0054 Z " stroke-width="0.47614257300029306"/>
    <path id="ID0.24770551454275846" fill="none" stroke="#313537" stroke-width="0.9522851460005861" stroke-linecap="round" d="M 72.4959 116.1296 L 77.0631 119.7963 L 84.5509 120.4281 L 92.1898 119.5151 L 97.5053 115.8156 "/>
    <path id="ID0.20603158557787538" fill="none" stroke="#313537" stroke-width="0.9522851460005861" stroke-linecap="round" d="M 39.2476 111.4286 L 46.158 116.9298 L 58.4683 120.4001 L 65.7403 119.9558 L 72.0103 116.157 "/>
    <g id="ID0.5272086253389716">
      <path id="ID0.24770551454275846" fill="none" stroke="#363A3D" stroke-width="0.9522850864087884" stroke-linecap="round" d="M 41.9879 144.0256 L 51.9553 141.0655 "/>
      <path id="ID0.24770551454275846" fill="none" stroke="#363A3D" stroke-width="0.9522850864087884" stroke-linecap="round" d="M 39.6542 132.0538 L 60.2053 126.2655 "/>
    </g>
    <g id="ID0.5272086253389716">
      <path id="ID0.24770551454275846" fill="none" stroke="#363A3D" stroke-width="0.9522850864087884" stroke-linecap="round" d="M 97.4797 144.2318 L 90.5807 142.2557 "/>
      <path id="ID0.24770551454275846" fill="none" stroke="#363A3D" stroke-width="0.9522850864087884" stroke-linecap="round" d="M 98.2029 132.8424 L 84.4298 127.7945 "/>
    </g>
    <g id="ID0.7887678607366979">
      <path id="ID0.753661650698632" fill="none" stroke="#313537" stroke-width="0.9522850864087884" stroke-linecap="round" d="M 66.9207 119.1896 L 72.1078 121.6786 L 76.2085 119.1444 "/>
      <g id="ID0.8167418288066983">
        <path id="ID0.9553722990676761" fill="none" stroke="#313537" stroke-width="1.0409107743576298" stroke-linecap="round" d="M 72.4063 136.5479 L 66.8392 134.2892 L 60.706 132.2569 L 55.9163 133.1099 L 52.3201 137.3214 L 52.2484 140.7727 "/>
        <path id="ID0.5982440118677914" fill="none" stroke="#313537" stroke-width="0.8540413396238158" stroke-linecap="round" d="M 61.0334 131.8556 L 59.9532 126.5387 L 65.3362 119.5913 "/>
      </g>
      <g id="ID0.7324484633281827">
        <path id="ID0.04993448918685317" fill="none" stroke="#313537" stroke-width="0.9522850864087884" stroke-linecap="round" d="M 72.1102 121.5595 L 72.6068 132.0472 L 72.7418 148.4805 L 72.6413 164.7898 "/>
        <g id="ID0.8167418288066983">
          <path id="ID0.9553722990676761" fill="none" stroke="#313537" stroke-width="0.9699703077304642" stroke-linecap="round" d="M 72.7502 136.4275 L 77.8128 135.1754 L 83.2815 133.384 L 87.457 134.4232 L 90.4528 138.7716 L 90.3811 142.2229 "/>
          <path id="ID0.5982440118677914" fill="none" stroke="#313537" stroke-width="0.7916616152166959" stroke-linecap="round" d="M 83.0361 133.0336 L 84.1927 127.7632 L 79.7336 120.6113 "/>
          <path id="ID0.3567589442245662" fill="none" stroke="#313537" stroke-width="0.8967655150693851" stroke-linecap="round" d="M 72.6263 149.1264 L 77.8586 144.2583 L 85.2253 142.5063 L 90.7521 142.6211 L 92.8958 147.309 L 93.0431 154.3367 L 87.4805 154.9355 L 81.7638 157.9124 L 76.8491 157.5722 L 72.6031 159.3176 L 66.8142 156.6971 L 61.2197 156.819 L 54.8569 153.5913 L 48.5704 152.7464 L 49.0511 145.7318 L 51.7016 141.1434 L 57.982 141.2738 L 66.2746 143.351 L 71.9911 148.4465 Z "/>
        </g>
      </g>
    </g>
    <g id="ID0.9312638868577778">
      <path id="ID0.2888958193361759" fill="#393C40" stroke="none" stroke-linecap="round" d="M 52.9592 161.4331 L 63.1308 163.729 L 62.4755 166.6319 L 52.3039 164.3359 L 52.9592 161.4331 Z " stroke-width="0.4761425459216224"/>
      <path id="ID0.2888958193361759" fill="#393C40" stroke="none" stroke-linecap="round" d="M 42.2081 159.1286 L 53.6308 161.829 L 52.9755 164.7319 L 42.8039 162.4359 L 42.2081 159.1286 Z " stroke-width="0.4761425459216224"/>
      <g id="ID0.36424446757882833">
        <path id="ID0.7359844641759992" fill="#8A7B59" stroke="none" d="M 55.8379 160.7806 L 57.3612 160.8122 L 57.2318 167.0484 L 55.7084 167.0167 L 55.8379 160.7806 Z " stroke-width="0.4761425432043942"/>
        <path id="ID0.7359844641759992" fill="#8A7B59" stroke="none" d="M 53.9879 160.3306 L 55.5112 160.3622 L 55.3818 166.5984 L 53.8584 166.5667 L 53.9879 160.3306 Z " stroke-width="0.4761425432043942"/>
        <path id="ID0.7359844641759992" fill="#8A7B59" stroke="none" d="M 52.0379 159.6306 L 53.5612 159.6622 L 53.4318 165.8984 L 51.9084 165.8667 L 52.0379 159.6306 Z " stroke-width="0.4761425432043942"/>
        <path id="ID0.7359844641759992" fill="#8A7B59" stroke="none" d="M 57.7379 161.3306 L 59.2612 161.3622 L 59.1318 167.5984 L 57.6084 167.5667 L 57.7379 161.3306 Z " stroke-width="0.4761425432043942"/>
      </g>
      <g id="ID0.1049797898158431">
        <path id="ID0.08871637750416994" fill="#8A7B59" stroke="none" stroke-linecap="round" d="M 43.9895 158.5074 L 50.3705 159.6877 L 50.2067 165.2801 L 44.0643 164.081 L 43.9895 158.5074 Z " stroke-width="0.4761425432043942"/>
        <path id="ID0.13805592898279428" fill="#76694C" stroke="none" stroke-linecap="round" d="M 43.7978 158.2378 L 50.4882 159.4245 L 50.5236 162.3065 L 43.8114 161.0241 L 43.7978 158.2378 Z " stroke-width="0.4761425432043942"/>
        <path id="ID0.3221200187690556" fill="#61563F" stroke="none" stroke-linecap="round" d="M 46.55 160.489 L 47.4208 160.8689 L 47.4618 162.6272 L 46.5129 162.2716 L 46.55 160.489 Z " stroke-width="0.5167888865886084"/>
        <path id="ID0.1420820001512766" fill="#BAA578" stroke="none" stroke-linecap="round" d="M 49.5518 164.3318 L 50.2956 162.9185 L 50.2952 165.2283 L 44.056 164.0986 L 49.5518 164.3318 Z " stroke-width="0.4761425432043942"/>
      </g>
      <path id="ID0.2888958193361759" fill="#393C40" stroke="none" stroke-linecap="round" d="M 90.5902 162.6025 L 83.1307 164.2611 L 83.5102 166.806 L 90.9697 165.1474 L 90.5902 162.6025 Z " stroke-width="0.3810469777360591"/>
      <path id="ID0.2888958193361759" fill="#393C40" stroke="none" stroke-linecap="round" d="M 97.1651 160.9157 L 90.1307 162.7111 L 90.5102 165.256 L 96.6833 163.8204 L 97.1651 160.9157 Z " stroke-width="0.3810469777360591"/>
      <path id="ID0.7359844641759992" fill="#8A7B59" stroke="none" d="M 88.5701 161.5255 L 87.4633 161.5025 L 87.3506 166.9273 L 88.4574 166.9503 L 88.5701 161.5255 Z " stroke-width="0.3816027988624045"/>
      <path id="ID0.7359844641759992" fill="#8A7B59" stroke="none" d="M 89.9701 161.0755 L 88.8633 161.0525 L 88.7506 166.4773 L 89.8574 166.5003 L 89.9701 161.0755 Z " stroke-width="0.3816027988624045"/>
      <path id="ID0.7359844641759992" fill="#8A7B59" stroke="none" d="M 91.4701 160.6255 L 90.3633 160.6025 L 90.2506 166.0273 L 91.3574 166.0503 L 91.4701 160.6255 Z " stroke-width="0.3816027988624045"/>
      <path id="ID0.7359844641759992" fill="#8A7B59" stroke="none" d="M 87.1201 162.0755 L 86.0133 162.0525 L 85.9006 167.4773 L 87.0074 167.5003 L 87.1201 162.0755 Z " stroke-width="0.3816027988624045"/>
      <g id="ID0.1049797898158431">
        <path id="ID0.08871637750416994" fill="#8A7B59" stroke="none" stroke-linecap="round" d="M 97.4077 159.8854 L 92.4448 160.7507 L 92.3742 165.9213 L 97.1538 165.0302 L 97.4077 159.8854 Z " stroke-width="0.40545296430512573"/>
        <path id="ID0.13805592898279428" fill="#76694C" stroke="none" stroke-linecap="round" d="M 97.6523 159.6886 L 92.4505 160.549 L 92.3217 163.2094 L 97.5437 162.2614 L 97.6523 159.6886 Z " stroke-width="0.40545296430512573"/>
        <path id="ID0.3221200187690556" fill="#61563F" stroke="none" stroke-linecap="round" d="M 95.5299 161.6428 L 94.8449 161.963 L 94.7513 163.5854 L 95.4957 163.2903 L 95.5299 161.6428 Z " stroke-width="0.4400648059527854"/>
        <path id="ID0.1420820001512766" fill="#BAA578" stroke="none" stroke-linecap="round" d="M 92.9982 165.1103 L 92.4743 163.7788 L 92.3933 165.912 L 97.245 165.0884 L 92.9982 165.1103 Z " stroke-width="0.40545296430512573"/>
      </g>
      <g id="ID0.6836685389280319">
        <path id="ID0.09357938077300787" fill="#857656" stroke="none" d="M 63.7247 160.9089 L 81.6952 161.2821 L 81.5618 167.7086 L 63.5913 167.3354 L 63.7247 160.9089 Z " stroke-width="0.42833206411122815"/>
        <path id="ID0.6492703901603818" fill="#7C6E50" stroke="none" stroke-linecap="round" d="M 64.3684 163.093 L 72.5158 166.3578 L 81.4106 163.4469 L 81.3221 167.7075 L 64.2799 167.3536 L 64.3684 163.093 Z " stroke-width="0.4761425432043942"/>
        <g id="ID0.9254062357358634">
          <g id="ID0.49943465692922473">
            <path id="ID0.140373723115772" fill="#968561" stroke="none" d="M 80.1906 160.0517 L 85.308 160.1579 L 85.1202 169.2027 L 80.0028 169.0964 L 80.1906 160.0517 Z " stroke-width="0.4761425432043942"/>
            <path id="ID0.8286363878287375" fill="#BAA578" stroke="none" stroke-linecap="round" d="M 80.1728 159.8742 L 85.4043 160.221 L 81.2469 160.8966 L 80.1789 163.0176 L 80.1728 159.8742 Z " stroke-width="0.4761425432043942"/>
            <path id="ID0.7362233307212591" fill="#8A7B59" stroke="none" stroke-linecap="round" d="M 80.07 165.968 L 82.7825 166.072 L 85.2845 163.6951 L 85.1683 169.2885 L 80.0033 169.1813 L 80.07 165.968 Z " stroke-width="0.4761425432043942"/>
          </g>
          <g id="ID0.49943465692922473">
            <path id="ID0.140373723115772" fill="#968561" stroke="none" d="M 65.1483 159.9906 L 60.0309 159.8843 L 59.8431 168.9291 L 64.9605 169.0354 L 65.1483 159.9906 Z " stroke-width="0.4761425432043942"/>
            <path id="ID0.8286363878287375" fill="#BAA578" stroke="none" stroke-linecap="round" d="M 65.2093 159.8013 L 59.9679 159.9306 L 64.0936 160.7782 L 65.0726 162.9417 L 65.2093 159.8013 Z " stroke-width="0.4761425432043942"/>
            <path id="ID0.7362233307212591" fill="#8A7B59" stroke="none" stroke-linecap="round" d="M 65.0589 165.8941 L 62.3445 165.8854 L 59.9433 163.4066 L 59.8272 169.0001 L 64.9922 169.1074 L 65.0589 165.8941 Z " stroke-width="0.4761425432043942"/>
          </g>
        </g>
      </g>
    </g>
  </g>
  <g id="ID0.8333355090580881">
    <path id="ID0.9286923445761204" fill="#27282B" stroke="none" stroke-linecap="round" d="M 58.863 44.1601 L 77.6707 45.6361 L 78.1468 69.9908 L 93.3834 77.1329 L 70.5285 88.4889 L 33.8656 75.9426 L 53.7445 65.3484 L 58.863 44.1601 Z " stroke-width="0.4761425852775574"/>
    <path id="ID0.5448851804248989" fill="none" stroke="#1D1E1F" stroke-width="0.9522851705551147" stroke-linecap="round" d="M 55.1729 59.5871 L 53.935 65.158 L 71.0285 73.0143 L 77.8611 70.086 "/>
    <path id="ID0.262191956397146" fill="none" stroke="#1D1E1F" stroke-width="0.9522851705551147" stroke-linecap="round" d="M 57.9346 64.539 L 70.6476 70.7288 L 73.6473 69.6099 "/>
  </g>
  <g id="ID0.3450673264451325">
    <g id="ID0.9831569031812251">
      <path id="ID0.0877610077150166" fill="#2E3034" stroke="none" stroke-linecap="round" d="M 81.7251 13.3343 L 77.1527 0.2177 L 77.1527 28.7463 L 84.8241 28.7463 L 81.7251 13.3343 Z " stroke-width="0.5866066539949776"/>
      <path id="ID0.796130308881402" fill="#242628" stroke="none" stroke-linecap="round" d="M 82.033 13.3789 L 77.105 0.2623 L 80.6613 14.1004 L 81.6012 28.9877 L 84.7764 28.6926 L 82.033 13.3789 Z " stroke-width="0.5866066539949776"/>
    </g>
    <g id="ID0.9831569031812251">
      <path id="ID0.0877610077150166" fill="#2E3034" stroke="none" stroke-linecap="round" d="M 57.8249 13.4843 L 62.3973 0.3677 L 62.3973 28.8963 L 54.7259 28.8963 L 57.8249 13.4843 Z " stroke-width="0.5866066539949776"/>
      <path id="ID0.796130308881402" fill="#242628" stroke="none" stroke-linecap="round" d="M 57.417 13.5289 L 62.345 0.4123 L 58.7887 14.2504 L 57.6964 28.8098 L 54.6736 28.8426 L 57.417 13.5289 Z " stroke-width="0.5866066539949776"/>
    </g>
    <path id="ID0.8999492498114705" fill="#2E3034" stroke="none" stroke-linecap="round" d="M 75.3733 19.3124 C 79.7775 19.7915 84.5093 22.5019 86.6416 26.3848 C 89.0745 30.8179 87.1267 36.4165 87.4265 41.412 C 87.5997 43.1155 88.3923 44.8682 88.0615 46.4924 C 87.3879 49.7962 85.7139 52.8251 84.6323 56.0181 C 83.9236 58.1107 83.7691 60.4655 82.6001 62.3686 C 81.2843 64.6212 79.9416 67.7553 77.3419 68.211 C 73.488 68.8862 69.4115 67.0451 65.9619 65.2898 C 63.1281 63.8475 60.4746 61.6355 58.9002 58.8631 C 56.0806 53.7182 53.5196 48.0582 53.134 42.1741 C 52.7067 35.6514 51.9365 27.5853 56.6902 22.8687 C 60.9425 18.3273 68.8262 18.6032 75.3733 19.3124 Z " stroke-width="0.508037269115448"/>
    <path id="ID0.2441388238221407" fill="#AB8E85" stroke="none" d="M 73.0438 44.1745 C 77.1241 44.3416 82.5631 41.1768 85.2883 43.9234 C 87.7434 46.5142 84.3753 51.3755 83.4045 54.8492 C 82.4375 58.304 81.7493 62.0426 79.5114 64.8959 C 78.4439 66.1643 76.2186 66.2359 74.488 65.9634 C 71.3761 65.4698 68.3143 64.1864 65.7198 62.3955 C 63.0348 60.5432 59.487 58.5137 58.9156 55.2887 C 58.1923 51.2035 58.8566 45.8084 62.0552 43.2327 C 64.9889 40.9834 69.3743 44.0238 73.0438 44.1745 Z " stroke-width="1.2558400630950928"/>
    <path id="ID0.46721756737679243" fill="#A2887F" stroke="none" stroke-linecap="round" d="M 58.4363 45.2953 L 60.1129 45.9812 L 86.1244 45.6001 L 78.9102 50.6805 L 62.1704 48.2165 L 63.2881 50.6043 L 63.5421 56.2181 L 67.1746 63.4068 L 62.6023 56.7261 L 58.4363 45.2953 Z " stroke-width="0.508037269115448"/>
    <path id="ID0.8256730306893587" fill="none" stroke="#937B73" stroke-width="1.016074538230896" stroke-linecap="round" d="M 69.3886 57.0778 C 69.3886 57.0778 72.0878 56.4813 73.4529 56.2903 C 73.7943 56.2425 74.1326 56.3203 74.4689 56.3665 C 74.8109 56.4138 75.1401 56.5814 75.485 56.5697 C 76.1688 56.5469 76.8379 56.3497 77.5172 56.2649 C 77.854 56.2227 78.1939 56.1846 78.5332 56.1887 C 78.8731 56.1928 79.2181 56.2131 79.5493 56.2903 C 80.0939 56.4173 81.1496 56.7983 81.1496 56.7983 "/>
    <path id="ID0.7592270169407129" fill="none" stroke="#937B73" stroke-width="1.016074538230896" stroke-linecap="round" d="M 77.9693 58.4019 C 77.9693 58.4019 77.3475 58.7468 77.004 58.8083 C 76.6708 58.8682 76.3248 58.7235 75.988 58.7575 C 75.6491 58.792 75.3351 58.9688 74.9973 59.0115 C 74.6615 59.0542 74.3109 59.0867 73.9812 59.0115 C 73.7008 58.9475 73.2192 58.6051 73.2192 58.6051 "/>
    <path id="ID0.5332203092984855" fill="none" stroke="#937B73" stroke-width="1.016074538230896" stroke-linecap="round" d="M 72.0009 48.9532 C 72.0009 48.9532 71.3954 49.385 71.2897 49.7152 C 71.1525 50.1577 70.898 51.0026 71.3405 51.3156 C 71.9212 51.6056 72.6797 50.8786 73.3726 50.9345 C 74.0433 50.9914 75.354 51.4426 75.354 51.4426 "/>
    <path id="ID0.2278452254831791" fill="none" stroke="#937B73" stroke-width="1.016074538230896" stroke-linecap="round" d="M 76.3447 45.2953 C 76.3447 45.2953 77.2789 47.1578 77.7418 48.0895 C 77.8967 48.4015 78.0674 48.7073 78.199 49.0294 C 78.3306 49.3515 78.5429 49.6726 78.5292 50.0201 C 78.5155 50.3686 78.3092 50.6907 78.1228 50.9853 C 77.9983 51.1824 77.6148 51.468 77.6148 51.468 "/>
    <path id="ID0.6473136460408568" fill="none" stroke="#937B73" stroke-width="1.016074563998663" stroke-linecap="round" d="M 76.6945 62.2247 C 76.6945 62.2247 77.0113 62.8595 77.0622 63.2041 C 77.1113 63.5396 77.0513 63.8871 76.9877 64.2203 C 76.8923 64.7223 76.5871 65.7015 76.5871 65.7015 "/>
    <path id="ID0.11669129692018032" fill="#2E3034" stroke="none" stroke-linecap="round" d="M 60.3669 39.9609 L 83.6096 41.739 L 87.5469 44.4062 L 78.1482 49.1056 L 57.4457 46.5654 L 60.3669 39.9609 Z " stroke-width="0.508037269115448"/>
    <path id="ID0.14635155349969864" fill="#2E3034" stroke="none" stroke-linecap="round" d="M 57.6997 45.2191 L 59.554 45.6001 L 62.1958 50.8075 L 62.5006 56.5737 L 64.3296 60.384 L 67.2254 63.9149 L 58.9952 58.7075 L 57.6997 45.2191 Z " stroke-width="0.508037269115448"/>
    <path id="ID0.28340246016159654" fill="#1C1D1F" stroke="none" stroke-linecap="round" d="M 60.5308 36.8008 L 63.9604 38.3401 L 73.6283 39.2313 L 73.6283 44.9834 L 66.688 44.0382 L 62.8262 42.958 L 60.8008 41.4457 L 59.9367 39.7174 L 60.5308 36.8008 Z " stroke-width="0.5401026606559753"/>
    <path id="ID0.6101007834076881" fill="#FFFFFF" stroke="none" stroke-linecap="round" d="M 64.3473 39.3334 L 66.0001 39.7332 L 69.78 40.9344 L 70.3247 42.9027 L 65.07 41.4498 L 64.3473 39.3334 Z " stroke-width="0.4061061920009203"/>
    <path id="ID0.28340246016159654" fill="#1C1D1F" stroke="none" stroke-linecap="round" d="M 86.1357 36.8586 L 83.0774 38.2313 L 74.4563 39.0259 L 74.4563 44.1553 L 80.6452 43.3124 L 84.0888 42.3492 L 85.8949 41.0006 L 86.6655 39.4594 L 86.1357 36.8586 Z " stroke-width="0.4816249907016754"/>
    <path id="ID0.6101007834076881" fill="#FFFFFF" stroke="none" stroke-linecap="round" d="M 84.4526 38.9089 L 82.9112 39.4003 L 79.4053 40.7963 L 79.0217 42.7012 L 83.9101 40.9663 L 84.4526 38.9089 Z " stroke-width="0.3863867372519633"/>
    <g id="ID0.07940126257017255">
      <path id="ID0.46257128613069654" fill="#27282B" stroke="none" stroke-linecap="round" d="M 73.8045 39.0743 L 78.1482 49.0318 L 68.1145 47.7617 L 73.8045 39.0743 Z " stroke-width="0.508037269115448"/>
      <path id="ID0.9845890481956303" fill="#27282B" stroke="none" stroke-linecap="round" d="M 74.6173 39.1989 L 82.8983 46.5654 L 78.2244 49.1056 L 74.6173 39.1989 Z " stroke-width="0.508037269115448"/>
    </g>
    <path id="ID0.20071752788498998" fill="#202324" stroke="none" d="M 65.3686 34.5018 L 69.5091 37.0673 L 74.2593 38.2358 L 74.3355 39.6329 L 66.5625 38.3628 L 60.6693 36.0259 L 62.3966 34.2477 L 65.3686 34.5018 Z " stroke-width="0.508037269115448"/>
    <path id="ID0.20071752788498998" fill="#202324" stroke="none" d="M 82.4242 34.2614 L 79.3713 36.7084 L 74.1277 38.2698 L 74.0578 39.5516 L 81.1891 38.3864 L 86.6191 36.3588 L 85.081 34.1216 L 82.4242 34.2614 Z " stroke-width="0.46609798073768616"/>
    <path id="ID0.521138689480722" fill="none" stroke="#212325" stroke-width="0.9060627222061157" stroke-linecap="round" d="M 86.2139 36.5742 L 82.9747 38.1598 L 74.4351 39.4057 "/>
    <path id="ID0.17828734638169408" fill="none" stroke="#202324" stroke-width="1.016074538230896" stroke-linecap="round" d="M 78.0466 48.5467 L 75.1254 41.3072 C 74.1245 38.8879 74.2729 39.4564 74.0839 38.4876 C 74.0179 38.1493 74.2358 37.8129 74.2871 37.4715 C 74.3374 37.1352 74.4014 36.7953 74.3887 36.4555 C 74.376 36.112 74.2769 35.7762 74.2109 35.4394 C 74.1078 34.9136 73.8807 33.8645 73.8807 33.8645 "/>
    <path id="ID0.521138689480722" fill="none" stroke="#212325" stroke-width="1.016074538230896" stroke-linecap="round" d="M 60.8068 36.3055 L 64.4392 38.0836 L 74.0157 39.4807 "/>
    <path id="ID0.8012696979567409" fill="none" stroke="url(#grad_1)" stroke-width="1.016074538230896" stroke-linecap="round" d="M 86.1244 45.1429 L 78.6562 49.0548 L 60.0621 46.7178 L 62.0434 50.5789 L 62.3482 56.6753 L 64.2788 60.2824 L 67.1746 63.9149 "/>
    <path id="ID0.043594349175691605" fill="#D7E2FD" stroke="none" stroke-linecap="round" d="M 69.5289 41.9677 L 69.7575 40.85 L 70.2656 42.9075 L 67.6746 42.1709 L 69.5289 41.9677 Z " stroke-width="0.508037269115448"/>
    <path id="ID0.043594349175691605" fill="#D7E2FD" stroke="none" stroke-linecap="round" d="M 79.7225 41.8348 L 79.4574 40.8321 L 79.1024 42.7258 L 81.4161 41.9236 L 79.7225 41.8348 Z " stroke-width="0.4618642652203811"/>
  </g>
  <path id="ID0.5368814701214433" fill="#292D2E" stroke="none" stroke-linecap="round" d="M 67.9579 322.5815 L 69.2135 312.8991 L 73.7829 300.9349 L 84.7609 306.9979 L 96.371 316.8811 L 114.2245 326.5319 L 115.5572 333.0002 L 90.9249 335.1451 L 69.5526 332.3132 L 67.9579 322.5815 Z " stroke-width="0.7702166131835602"/>
  <g id="ID0.9340031337924302">
    <path id="ID0.05466862628236413" fill="#292D2E" stroke="none" stroke-linecap="round" d="M 76.6253 229.0615 L 103.3095 227.3431 L 96.9355 245.7439 L 94.9616 250.642 L 92.9174 268.669 L 86.4669 308.9077 L 70.6924 309.5238 L 70.2887 287.2782 L 68.2605 278.4527 L 67.6899 268.9504 L 70.8481 255.6529 L 71.8389 243.3716 L 76.6253 229.0615 Z " stroke-width="0.7305890781191656"/>
    <path id="ID0.4490455654449761" fill="none" stroke="#272A2B" stroke-width="1.6585525891095123" stroke-linecap="round" d="M 76.2976 229.2385 L 103.0026 227.1341 L 94.2758 250.9186 "/>
    <path id="ID0.10446935473009944" fill="none" stroke="#242728" stroke-width="1.6585525891095123" stroke-linecap="round" d="M 92.9465 263.1837 L 91.4286 279.9534 L 80.3251 286.419 "/>
    <path id="ID0.42170455446466804" fill="none" stroke="#242728" stroke-width="1.6585525891095123" stroke-linecap="round" d="M 90.2359 281.0251 L 87.5727 295.9218 L 76.2343 302.5627 "/>
    <path id="ID0.047098892275244" fill="none" stroke="#242728" stroke-width="1.6585525891095123" stroke-linecap="round" d="M 72.0818 243.1939 L 71.2941 247.0545 L 75.0642 256.2425 "/>
  </g>
  <g id="ID0.4898335998877883">
    <path id="ID0.5368814701214433" fill="#303436" stroke="none" stroke-linecap="round" d="M 3.3184 306.8234 L 8.4455 299.0778 L 15.2313 291.3571 L 23.291 299.6565 L 32.1217 310.0121 L 46.2056 324.6248 L 45.513 331.1925 L 21.391 325.7629 L 1.8854 316.5802 L 3.3184 306.8234 Z " stroke-width="0.7702166378306179"/>
    <g id="ID0.9492031107656658">
      <path id="ID0.05466862628236413" fill="#303436" stroke="none" stroke-linecap="round" d="M 46.539 223.462 L 71.8476 232.0917 L 58.9138 246.6497 L 55.2149 250.4187 L 46.4241 266.2892 L 25.058 300.9916 L 10.2498 295.5208 L 18.3945 274.8159 L 19.9001 265.8863 L 23.0114 256.8897 L 31.0204 245.8148 L 36.6381 234.8488 L 46.539 223.462 Z " stroke-width="0.7305890153267103"/>
      <path id="ID0.4490455654449761" fill="none" stroke="#272A2B" stroke-width="1.6585525440157864" stroke-linecap="round" d="M 46.0365 224.268 L 71.5121 232.5491 L 54.3435 251.1796 "/>
      <path id="ID0.10446935473009944" fill="none" stroke="#242728" stroke-width="1.6585525440157864" stroke-linecap="round" d="M 48.4193 262.001 L 40.596 276.9116 L 27.8631 278.633 "/>
      <path id="ID0.42170455446466804" fill="none" stroke="#242728" stroke-width="1.6585525440157864" stroke-linecap="round" d="M 39.0839 277.4449 L 30.9198 290.1867 L 17.9027 291.9801 "/>
      <path id="ID0.047098892275244" fill="none" stroke="#242728" stroke-width="1.6585525440157864" stroke-linecap="round" d="M 36.7015 235.4775 L 34.4956 238.7423 L 34.4603 248.6737 "/>
    </g>
  </g>
</svg>