<svg xmlns="http://www.w3.org/2000/svg" xmlns:xlink="http://www.w3.org/1999/xlink" version="1.1" width="116.79780578613281" height="318.9403991699219" viewBox="7.618100166320801 -1.024681568145752 116.79780578613281 318.9403991699219">
  <!-- Exported by Scratch - http://scratch.mit.edu/ -->
  <path id="ID0.7729651997797191" fill="#282828" stroke="none" stroke-linecap="round" d="M 9.8291 79.1807 L 33.3438 75.6695 L 33.246 96.0282 L 30.5784 107.0319 L 30.2419 116.3165 L 28.7616 125.0593 L 11.7004 123.8709 L 8.6181 117.4179 L 10.0812 93.0944 L 9.8291 79.1807 Z " stroke-width="0.9588636652279882"/>
  <path id="ID0.4757494777441025" fill="#282828" stroke="none" stroke-linecap="round" d="M 19.4718 62.5883 L 28.1274 59.871 L 44.8191 63.6628 L 38.0631 89.6365 L 27.7627 95.3252 L 23.1905 96.6999 L 19.7355 94.5416 L 16.6078 91.7652 L 10.5714 89.5383 L 10.0895 84.0825 L 10.2906 75.9573 L 13.0417 67.4256 L 19.4718 62.5883 Z " stroke-width="0.4829924788963568"/>
  <g id="ID0.7085462282411754">
    <g id="ID0.5880346246995032">
      <path id="ID0.6829322893172503" fill="#1D1E1F" stroke="none" stroke-linecap="round" d="M 108.2975 174.8348 L 97.8976 169.7117 L 94.621 175.2165 L 90.5272 181.1278 L 90.5161 186.8431 L 91.1193 191.5389 L 93.1545 194.6046 L 94.5702 201.3431 L 99.2652 201.1481 L 100.4939 199.1094 L 102.1272 198.9084 L 105.3982 196.2613 L 108.8741 193.2063 L 110.924 188.7198 L 110.1214 181.5742 L 108.2975 174.8348 Z " stroke-width="0.8164595919268743"/>
      <g id="ID0.9434720128774643">
        <path id="ID0.6507829907350242" fill="#282828" stroke="none" stroke-linecap="round" d="M 114.1168 110.002 L 95.1143 120.1708 L 96.4285 137.1149 L 97.5061 149.7722 L 97.4747 165.8972 L 95.1342 172.8734 L 109.8664 175.3923 L 109.1053 167.961 L 110.9614 158.1671 L 113.8432 145.7217 L 114.6855 132.415 L 114.1168 110.002 Z " stroke-width="0.8164595919268743"/>
        <path id="ID0.9892375003546476" fill="none" stroke="#191919" stroke-width="1.9999999711514755" stroke-linecap="round" d="M 109.399 174.4984 L 95.9044 171.7221 L 98.4209 163.227 "/>
      </g>
    </g>
    <path id="ID0.7729651997797191" fill="#282828" stroke="none" stroke-linecap="round" d="M 114.4789 79.0417 L 91.0763 74.8476 L 90.5815 95.2005 L 92.9278 106.2771 L 92.9939 115.5676 L 94.2192 124.3498 L 111.3078 123.6585 L 114.5766 117.2979 L 113.8219 92.9421 L 114.4789 79.0417 Z " stroke-width="0.9588636627167164"/>
    <path id="ID0.4757494777441025" fill="#282828" stroke="none" stroke-linecap="round" d="M 105.209 62.1837 L 96.6361 59.2156 L 79.8411 62.5201 L 85.8383 88.6794 L 95.9688 94.6654 L 100.499 96.1726 L 104.0154 94.1158 L 107.2226 91.4316 L 113.3212 89.3813 L 113.9618 83.9418 L 113.9972 75.8142 L 111.4955 67.2061 L 105.209 62.1837 Z " stroke-width="0.482992490702224"/>
  </g>
  <g id="ID0.6660797297954559">
    <path id="ID0.5368814701214433" fill="#343434" stroke="none" stroke-linecap="round" d="M 75.4668 300.8313 L 77.6731 291.8083 L 81.4488 282.248 L 91.84 287.3336 L 103.6519 294.0936 L 121.847 303.0837 L 123.4159 309.4988 L 98.8787 312.5448 L 77.4171 310.498 L 75.4668 300.8313 Z " stroke-width="0.7702165229701406"/>
    <g id="ID0.5077062323689461">
      <path id="ID0.05466862628236413" fill="#252525" stroke="none" stroke-linecap="round" d="M 71.1267 228.7265 L 92.5011 223.7131 L 91.8821 238.4857 L 91.5217 243.5407 L 92.6122 257.984 L 97.6239 290.9503 L 76.6509 295.3215 L 73.8975 276.728 L 71.0572 269.8568 L 69.3054 262.2396 L 70.0578 251.0432 L 69.1932 240.9639 L 71.1267 228.7265 Z " stroke-width="0.5998532691652266"/>
      <path id="ID0.5319394422695041" fill="none" stroke="#131313" stroke-width="1.9999999524802639" stroke-linecap="round" d="M 97.5207 290.0552 L 76.6347 295.6531 L 74.7666 284.2618 "/>
    </g>
    <g id="ID0.8820344842970371">
      <path id="ID0.3809091211296618" fill="#252525" stroke="none" stroke-linecap="round" d="M 54.3417 156.1217 L 84.4877 134.2597 L 87.5816 158.3222 L 95.2298 206.3571 L 95.5628 217.1153 L 92.4278 228.6687 L 84.1923 227.1039 L 71.3741 229.3717 L 69.0665 207.7223 L 66.3258 194.5893 L 54.3417 156.1217 Z " stroke-width="0.7305889650485762"/>
      <path id="ID0.9495224836282432" fill="none" stroke="#131313" stroke-width="1.9999999524802639" stroke-linecap="round" d="M 95.1854 206.4921 L 95.8292 214.9677 L 94.4408 223.0962 L 86.306 228.227 L 85.6875 233.2884 "/>
    </g>
  </g>
  <g id="ID0.18228224432095885">
    <path id="ID0.5368814701214433" fill="#404040" stroke="none" stroke-linecap="round" d="M 15.8876 296.7662 L 20.2371 288.5586 L 26.2397 280.2145 L 35.0685 287.6906 L 44.8645 297.1382 L 60.303 310.3117 L 60.2525 316.9157 L 35.7168 313.858 L 15.4104 306.6161 L 15.8876 296.7662 Z " stroke-width="0.7702165184711363"/>
    <g id="ID0.5077062323689461">
      <path id="ID0.05466862628236413" fill="#252525" stroke="none" stroke-linecap="round" d="M 30.6875 225.3444 L 52.622 226.2814 L 48.0418 240.3397 L 46.3314 245.1102 L 43.4861 259.3125 L 39.4211 292.4088 L 18.0463 290.9615 L 20.4096 272.3145 L 19.5277 264.9318 L 19.8952 257.1245 L 23.6394 246.5459 L 25.5253 236.6069 L 30.6875 225.3444 Z " stroke-width="0.5998532442286346"/>
      <path id="ID0.5319394422695041" fill="none" stroke="#131313" stroke-width="1.9999999790375471" stroke-linecap="round" d="M 39.6441 291.473 L 18.0223 291.2304 L 19.2957 279.7575 "/>
    </g>
    <g id="ID0.8820344842970371">
      <path id="ID0.3809091211296618" fill="#252525" stroke="none" stroke-linecap="round" d="M 39.6694 149.1591 L 69.1794 137.9979 L 65.669 162.0032 L 60.0788 210.3209 L 57.498 220.7702 L 51.3632 231.05 L 43.8549 227.3221 L 30.1595 227.29 L 31.7425 204.1544 L 32.7866 191.107 L 39.6694 149.1591 Z " stroke-width="0.7305890006520185"/>
      <path id="ID0.9495224836282432" fill="none" stroke="#131313" stroke-width="1.9999999790375471" stroke-linecap="round" d="M 59.9324 210.3765 L 58.2664 218.7116 L 54.7372 226.1645 L 45.5201 228.9112 L 43.5595 233.6182 "/>
    </g>
  </g>
  <g id="ID0.8990198895335197">
    <path id="ID0.17576928716152906" fill="#DBDBDB" stroke="none" d="M 63.55 56.6 L 63.3 56.6 L 63.3 56.6 L 63.55 56.6 L 63.55 56.6 Z " stroke-width="1"/>
    <path id="ID0.4270821204409003" fill="#252525" stroke="none" stroke-linecap="round" d="M 61.3901 178.6011 L 61.1361 65.8448 L 78.4913 68.3245 L 85.305 72.7522 L 88.0772 76.8578 L 94.8615 88.4286 L 93.93 98.8866 L 92.8642 104.3413 L 94.387 111.2785 L 94.7494 116.7629 L 92.4639 123.621 L 90.7366 128.8238 L 89.3537 138.0818 L 90.3985 160.0108 L 85.0868 168.1158 L 80.1736 174.2287 L 61.3901 178.6011 Z " stroke-width="0.47614257300029306"/>
    <path id="ID0.4270821204409003" fill="#252525" stroke="none" stroke-linecap="round" d="M 61.5099 178.7511 L 61.7639 65.9948 L 44.4087 68.4745 L 37.595 72.9022 L 34.8228 77.0078 L 28.0385 88.5786 L 28.97 99.0366 L 30.0358 104.4913 L 28.513 111.4285 L 28.1506 116.9129 L 30.4361 123.771 L 32.1634 128.9738 L 33.5463 138.2318 L 32.5015 160.1608 L 37.8132 168.2658 L 42.7264 174.3787 L 61.5099 178.7511 Z " stroke-width="0.47614257300029306"/>
    <path id="ID0.5114514343440533" fill="#282828" stroke="none" d="M 35.2326 67.1777 L 88.2326 67.1777 L 88.2326 155.4277 L 35.2326 155.4277 L 35.2326 67.1777 Z " stroke-width="1.0073066040733152"/>
    <path id="ID0.9286923445761204" fill="#D4D4D4" stroke="none" stroke-linecap="round" d="M 51.3867 53.4723 L 68.6707 34.7361 L 61.5523 53.6152 L 62.8141 94.0873 L 24.8656 65.0426 L 45.0064 54.2341 L 51.3867 53.4723 Z " stroke-width="0.4761425852775574"/>
    <path id="ID0.9286923445761204" fill="#D4D4D4" stroke="none" stroke-linecap="round" d="M 67.7636 52.3653 L 53.9793 34.9861 L 61.0977 53.8652 L 62.3118 93.8611 L 97.7844 65.2926 L 78.0007 53.4842 L 67.7636 52.3653 Z " stroke-width="0.4761425852775574"/>
    <path id="ID0.39874776685610414" fill="#C3C3C3" stroke="none" stroke-linecap="round" d="M 43.0977 55.164 L 62.9674 65.0348 L 80.8354 56.0738 L 84.8386 58.2117 L 62.7721 68.8102 L 39.3386 57.12 L 43.0977 55.164 Z " stroke-width="0.943659350131214"/>
    <path id="ID0.13444371055811644" fill="#1F1F1F" stroke="none" stroke-linecap="round" d="M 60.55 66.85 L 65.8 66.6 L 68.6 95.1 L 56.55 95.6 L 60.55 66.85 Z " stroke-width="1"/>
    <path id="ID0.751046194229275" fill="#191919" stroke="none" stroke-linecap="round" d="M 58.265 61.935 L 62.94 59.9 L 67.45 61.935 L 67.89 69.91 L 63.49 70.9 L 58.265 69.91 L 58.265 61.935 Z " stroke-width="1.100000023841858"/>
    <path id="ID0.7854711129330099" fill="#282828" stroke="none" stroke-linecap="round" d="M 49.3 83.6 L 63.3 92.35 L 77.05 82.6 L 75.05 100.1 L 51.8 100.1 L 49.3 83.6 Z " stroke-width="1"/>
    <path id="ID0.562834897544235" fill="#282828" stroke="none" stroke-linecap="round" d="M 32.55 155.1 L 62.8 149.35 L 62.8 169.6 L 49.05 170.85 L 32.55 155.1 Z " stroke-width="1"/>
    <path id="ID0.562834897544235" fill="#282828" stroke="none" stroke-linecap="round" d="M 93.5 155.35 L 63.25 149.6 L 63.25 169.85 L 77 171.1 L 93.5 155.35 Z " stroke-width="1"/>
    <path id="ID0.6824178956449032" fill="none" stroke="#191919" stroke-width="2" stroke-linecap="round" d="M 63.05 92.6 L 62.8 169.35 "/>
    <path id="ID0.4144489667378366" fill="#313131" stroke="none" stroke-linecap="round" d="M 24.3 62.1 L 44.55 54.1 L 41.55 75.85 L 44.8 135.85 L 35.3 180.6 L 24.3 175.6 L 24.05 179.1 L 27.05 131.1 L 22.3 87.85 L 21.3 71.6 L 24.3 62.1 Z " stroke-width="1"/>
    <path id="ID0.5234400681219995" fill="#101010" stroke="none" d="M 65.2662 98.3125 C 65.6789 98.3125 66.0531 98.4801 66.324 98.751 C 66.5949 99.0219 66.7625 99.3961 66.7625 99.8087 C 66.7625 100.2214 66.5949 100.5956 66.324 100.8665 C 66.0531 101.1374 65.6789 101.305 65.2662 101.305 C 64.8536 101.305 64.4794 101.1374 64.2085 100.8665 C 63.9376 100.5956 63.77 100.2214 63.77 99.8087 C 63.77 99.3961 63.9376 99.0219 64.2085 98.751 C 64.4794 98.4801 64.8536 98.3125 65.2662 98.3125 Z " stroke-width="0.6299999952316284"/>
    <path id="ID0.5234400681219995" fill="#101010" stroke="none" d="M 65.2662 111.9125 C 65.6789 111.9125 66.0531 112.0801 66.324 112.351 C 66.5949 112.6219 66.7625 112.9961 66.7625 113.4087 C 66.7625 113.8214 66.5949 114.1956 66.324 114.4665 C 66.0531 114.7374 65.6789 114.905 65.2662 114.905 C 64.8536 114.905 64.4794 114.7374 64.2085 114.4665 C 63.9376 114.1956 63.77 113.8214 63.77 113.4087 C 63.77 112.9961 63.9376 112.6219 64.2085 112.351 C 64.4794 112.0801 64.8536 111.9125 65.2662 111.9125 Z " stroke-width="0.6299999952316284"/>
    <path id="ID0.5234400681219995" fill="#101010" stroke="none" d="M 65.2662 143.4125 C 65.6789 143.4125 66.0531 143.5801 66.324 143.851 C 66.5949 144.1219 66.7625 144.4961 66.7625 144.9087 C 66.7625 145.3214 66.5949 145.6956 66.324 145.9665 C 66.0531 146.2374 65.6789 146.405 65.2662 146.405 C 64.8536 146.405 64.4794 146.2374 64.2085 145.9665 C 63.9376 145.6956 63.77 145.3214 63.77 144.9087 C 63.77 144.4961 63.9376 144.1219 64.2085 143.851 C 64.4794 143.5801 64.8536 143.4125 65.2662 143.4125 Z " stroke-width="0.6299999952316284"/>
    <path id="ID0.5234400681219995" fill="#101010" stroke="none" d="M 65.2662 128.6625 C 65.6789 128.6625 66.0531 128.8301 66.324 129.101 C 66.5949 129.3719 66.7625 129.7461 66.7625 130.1587 C 66.7625 130.5714 66.5949 130.9456 66.324 131.2165 C 66.0531 131.4874 65.6789 131.655 65.2662 131.655 C 64.8536 131.655 64.4794 131.4874 64.2085 131.2165 C 63.9376 130.9456 63.77 130.5714 63.77 130.1587 C 63.77 129.7461 63.9376 129.3719 64.2085 129.101 C 64.4794 128.8301 64.8536 128.6625 65.2662 128.6625 Z " stroke-width="0.6299999952316284"/>
    <path id="ID0.5234400681219995" fill="#101010" stroke="none" d="M 65.1662 157.4125 C 65.5789 157.4125 65.9531 157.5801 66.224 157.851 C 66.4949 158.1219 66.6625 158.4961 66.6625 158.9087 C 66.6625 159.3214 66.4949 159.6956 66.224 159.9665 C 65.9531 160.2374 65.5789 160.405 65.1662 160.405 C 64.7536 160.405 64.3794 160.2374 64.1085 159.9665 C 63.8376 159.6956 63.67 159.3214 63.67 158.9087 C 63.67 158.4961 63.8376 158.1219 64.1085 157.851 C 64.3794 157.5801 64.7536 157.4125 65.1662 157.4125 Z " stroke-width="0.6299999952316284"/>
    <path id="ID0.4144489667378366" fill="#313131" stroke="none" stroke-linecap="round" d="M 97.85 61.25 L 77.6 53.25 L 80.6 75 L 77.35 135 L 86.85 179.75 L 97.85 174.75 L 98.1 178.25 L 95.1 130.25 L 99.85 87 L 100.85 70.75 L 97.85 61.25 Z " stroke-width="1"/>
    <path id="ID0.8752945330925286" fill="none" stroke="#222222" stroke-width="2" stroke-linecap="round" d="M 24.8 62.35 L 21.55 70.1 L 24.8 107.85 "/>
    <path id="ID0.8752945330925286" fill="none" stroke="#222222" stroke-width="2" stroke-linecap="round" d="M 98.05 61.85 L 101.3 69.6 L 98.05 107.35 "/>
    <path id="ID0.5234400681219995" fill="#101010" stroke="none" d="M 42.1662 144.0625 C 42.5789 144.0625 42.9531 144.2301 43.224 144.501 C 43.4949 144.7719 43.6625 145.1461 43.6625 145.5587 C 43.6625 145.9714 43.4949 146.3456 43.224 146.6165 C 42.9531 146.8874 42.5789 147.055 42.1662 147.055 C 41.7536 147.055 41.3794 146.8874 41.1085 146.6165 C 40.8376 146.3456 40.67 145.9714 40.67 145.5587 C 40.67 145.1461 40.8376 144.7719 41.1085 144.501 C 41.3794 144.2301 41.7536 144.0625 42.1662 144.0625 Z " stroke-width="0.6299999952316284"/>
    <path id="ID0.5234400681219995" fill="#101010" stroke="none" d="M 40.7662 151.3125 C 41.1789 151.3125 41.5531 151.4801 41.824 151.751 C 42.0949 152.0219 42.2625 152.3961 42.2625 152.8087 C 42.2625 153.2214 42.0949 153.5956 41.824 153.8665 C 41.5531 154.1374 41.1789 154.305 40.7662 154.305 C 40.3536 154.305 39.9794 154.1374 39.7085 153.8665 C 39.4376 153.5956 39.27 153.2214 39.27 152.8087 C 39.27 152.3961 39.4376 152.0219 39.7085 151.751 C 39.9794 151.4801 40.3536 151.3125 40.7662 151.3125 Z " stroke-width="0.6299999952316284"/>
    <g id="ID0.20783481979742646">
      <path id="ID0.5848579816520214" fill="#737373" stroke="none" stroke-linecap="round" d="M 87.25 89.7 L 94.1 88.2 L 94 92.1 L 86.75 92.6 L 87.25 89.7 Z " stroke-width="1"/>
      <path id="ID0.13105127029120922" fill="none" stroke="#222222" stroke-width="2" stroke-linecap="round" d="M 85.4 92.85 L 89.9 92.85 L 95.15 91.35 "/>
    </g>
  </g>
  <path id="ID0.46110434643924236" fill="#D8BFA7" stroke="none" stroke-linecap="round" d="M 49.7948 35.05 L 72.4095 35.05 L 72.877 54 L 66.6828 56.85 L 49.7948 55.15 L 49.7948 35.05 Z " stroke-width="1.0876357641452272"/>
  <path id="ID0.8999492498114705" fill="#EDD2B8" stroke="none" stroke-linecap="round" d="M 68.4733 3.2624 C 72.8775 3.7415 77.6093 6.4519 79.7416 10.3348 C 82.1745 14.7679 80.2984 20.3594 80.5265 25.362 C 80.6352 27.1021 80.8648 28.9198 80.4249 30.671 C 79.9184 33.827 78.7311 36.8366 77.7323 39.9681 C 77.0601 42.079 76.8691 44.4155 75.7001 46.3186 C 74.3843 48.5712 73.0416 51.7053 70.4419 52.161 C 66.588 52.8362 62.5115 50.9951 59.0619 49.2398 C 56.2281 47.7975 53.5746 45.5855 52.0002 42.8131 C 49.1806 37.6682 46.6196 32.0082 46.234 26.1241 C 45.8067 19.6014 45.0365 11.5353 49.7902 6.8187 C 54.0425 2.2773 61.9262 2.5532 68.4733 3.2624 Z " stroke-width="0.508037269115448"/>
  <path id="ID0.8194515448994935" fill="#EDD2B8" stroke="none" stroke-linecap="round" d="M 46.2 20.75 C 47.054 20.837 47.672 21.406 48.179 22.465 C 48.686 23.524 49 24.986 49 26.6 C 49 28.214 48.686 29.676 48.179 30.735 C 47.672 31.794 47.053 32.336 46.2 32.45 C 45.417 32.553 44.411 32.124 44.05 31.45 C 43.371 29.952 43.491 28.175 43.4 26.6 C 43.31 25.052 42.95 23.35 43.55 21.95 C 44.029 21.096 45.305 20.659 46.2 20.75 Z " stroke-width="1"/>
  <path id="ID0.5768358684144914" fill="#2E3234" stroke="none" d="M 45.25 17.6 L 51.25 17.6 L 51.25 19.4 L 45.25 19.4 L 45.25 17.6 Z " stroke-width="1"/>
  <path id="ID0.3245162623934448" fill="#54595E" stroke="none" stroke-linecap="round" d="M 66.75 4.3 C 70.006 4.3 72.956 6.928 75.092 11.173 C 77.228 15.418 77.985 22.139 78.55 27.75 C 79.127 33.479 81.029 39.717 78.7 44.95 C 76.905 48.982 71.959 52.053 67.45 52.3 C 63.192 52.537 58.053 50.067 56.05 46.2 C 53.22 40.735 54.536 33.951 54.95 27.75 C 55.326 22.124 56.272 15.418 58.408 11.173 C 60.544 6.928 63.494 4.3 66.75 4.3 Z " stroke-width="1"/>
  <path id="ID0.8999492498114705" fill="#54595E" stroke="none" stroke-linecap="round" d="M 70.3733 0.6124 C 74.624 1.8597 79.5093 3.8019 81.6416 7.6848 C 84.0745 12.1179 81.6029 17.7693 82.4265 22.712 C 82.7521 24.6644 85.2268 26.1723 85.1191 28.2496 C 84.9367 30.9224 82.8258 33.1217 81.639 35.6162 C 80.3476 38.324 79.2121 41.1848 77.6001 43.6686 C 76.1761 45.8643 74.6947 48.3664 72.3419 49.511 C 70.5303 50.3909 67.9164 50.6378 66.3471 49.4094 C 65.0994 48.433 66.2424 46.2164 65.8645 44.6593 C 65.5363 42.7379 64.2408 41.0049 64.2387 39.02 C 64.2352 33.4956 66.1002 28.0596 66.1185 22.5342 C 66.1383 16.4581 66.4731 10.2108 64.4928 4.5243 C 63.7353 2.3489 57.5194 1.7768 58.5995 1.1205 C 60.2735 -0.0551 66.6072 -0.4926 70.3733 0.6124 Z " stroke-width="0.508037269115448"/>
  <path id="ID0.8999492498114705" fill="#54595E" stroke="none" stroke-linecap="round" d="M 59.0918 1.0459 C 55.3095 2.1773 51.0953 4.1474 49.2105 7.6757 C 46.9147 11.9478 48.2249 17.3498 47.7118 22.1548 C 47.5223 23.9192 46.4585 25.7304 46.8481 27.413 C 47.4187 29.7413 49.5316 31.493 50.2012 33.7889 C 51.1233 36.9514 50.3683 40.5844 51.6999 43.5686 C 52.7668 45.9584 54.6053 48.2664 56.9581 49.411 C 58.7697 50.2909 61.3836 50.5378 62.9529 49.3094 C 64.2006 48.333 63.0576 46.1164 63.4355 44.5593 C 63.7637 42.6379 65.0592 40.9049 65.0613 38.92 C 65.0648 33.3956 63.1998 27.9596 63.1815 22.4342 C 63.1617 16.3581 63.2862 10.2495 64.8072 4.4243 C 65.2172 2.8585 69.9029 2.1534 68.9477 1.5539 C 67.0573 0.3783 62.2417 0.0272 59.0918 1.0459 Z " stroke-width="0.508037269115448"/>
  <path id="ID0.45774566335603595" fill="#54595E" stroke="none" stroke-linecap="round" d="M 67.175 36.2 C 69.279 36.2 70.819 37.464 72.565 38.266 C 74.157 38.998 77.162 39.136 77.15 40.95 C 77.162 43.782 74.677 46.226 72.565 48.234 C 71.172 49.558 69.279 50.3 67.175 50.3 C 65.071 50.3 63.268 49.457 61.785 48.234 C 59.733 46.543 57.105 44.552 57.15 41.95 C 57.105 39.958 60.029 39.241 61.785 38.266 C 63.465 37.332 65.071 36.2 67.175 36.2 Z " stroke-width="1"/>
  <path id="ID0.6934182443656027" fill="#54595E" stroke="none" stroke-linecap="round" d="M 52.95 30.6 L 66.2 34.7 L 80.3 30.2 L 77.3 36.95 L 76.8 41.45 L 56.95 42.1 L 55.8 35.95 L 52.95 30.6 Z " stroke-width="1"/>
  <path id="ID0.6236958587542176" fill="#3B4043" stroke="none" stroke-linecap="round" d="M 59.4 27.3 L 75.15 27.25 L 74.45 34.85 L 74.95 41.8 L 72.2 52.35 L 62.6 52.4 L 59.05 42.4 L 59.95 34.8 L 59.4 27.3 Z " stroke-width="1"/>
  <path id="ID0.6043254472315311" fill="#3B4043" stroke="none" stroke-linecap="round" d="M 52.1 4.65 L 56.85 1.8 L 61.6 7.4 L 68.1 8.5 L 66.85 27.8 L 64.2 30.65 L 58.85 30.3 L 55.3 28.2 L 53.7 24.3 L 55.2 17.8 L 52.1 4.65 Z " stroke-width="1"/>
  <path id="ID0.6043254472315311" fill="#3B4043" stroke="none" stroke-linecap="round" d="M 80.75 6.35 L 78.65 3.85 L 75.9 2.7 L 71.75 7.4 L 65.25 8.5 L 66.5 27.8 L 69.15 30.65 L 74.5 30.3 L 79 28.3 L 79.65 24.3 L 78.15 17.8 L 80.75 6.35 Z " stroke-width="1"/>
  <path id="ID0.9914007503539324" fill="#33383A" stroke="none" d="M 64.9 34.95 L 63.25 23.2 L 69.7 23.5 L 70 34.9 L 64.9 34.95 Z " stroke-width="1"/>
  <path id="ID0.28340246016159654" fill="#D8BFA7" stroke="none" stroke-linecap="round" d="M 52.9819 21.3412 L 59.8022 21.4345 L 64.2453 23.7057 L 65.1226 27.1279 L 63.7359 29.3368 L 60.2267 29.7101 L 57.4816 29.2123 L 55.3874 28.4345 L 53.2649 26.6923 L 52.3593 24.7012 L 52.9819 21.3412 Z " stroke-width="0.5947752382560764"/>
  <path id="ID0.28340246016159654" fill="#D8BFA7" stroke="none" stroke-linecap="round" d="M 81.5181 21.3412 L 74.6978 21.4345 L 70.2547 23.7057 L 69.3774 27.1279 L 70.7641 29.3368 L 74.2733 29.7101 L 77.0184 29.2123 L 79.1126 28.4345 L 81.2351 26.6923 L 82.1407 24.7012 L 81.5181 21.3412 Z " stroke-width="0.5947752382560764"/>
  <path id="ID0.17377300979569554" fill="#FFFFFF" stroke="none" stroke-linecap="round" d="M 56.9252 25.236 L 57.8322 24.4054 L 60.1194 24.2213 L 62.3718 24.8269 L 62.824 26.7776 L 60.1867 26.6457 L 56.9252 25.236 Z " stroke-width="0.9999999760882085"/>
  <path id="ID0.17377300979569554" fill="#FFFFFF" stroke="none" stroke-linecap="round" d="M 78.8248 25.236 L 77.9178 24.4054 L 75.6306 24.2213 L 73.3782 24.8269 L 72.926 26.7776 L 75.5633 26.6457 L 78.8248 25.236 Z " stroke-width="0.9999999760882085"/>
  <path id="ID0.44800941413268447" fill="none" stroke="#33383A" stroke-width="1.0503597259521484" stroke-linecap="round" d="M 65.9989 27.7698 L 64.3709 23.4633 L 59.9856 21.0212 L 53.4209 21.1525 "/>
  <path id="ID0.12448931112885475" fill="#33383A" stroke="none" stroke-linecap="round" d="M 65.1 33.3 L 69.9 33.4 L 70.85 36.55 L 67.75 38.05 L 64.25 36.5 L 65.1 33.3 Z " stroke-width="1"/>
  <path id="ID0.44800941413268447" fill="none" stroke="#33383A" stroke-width="1.050359732381415" stroke-linecap="round" d="M 64.9097 24.1096 L 65.7119 21.5418 L 64.2669 18.1773 "/>
  <path id="ID0.44800941413268447" fill="none" stroke="#33383A" stroke-width="1.050359732381415" stroke-linecap="round" d="M 69.3403 24.0096 L 68.5381 21.4418 L 69.9831 18.0773 "/>
  <g id="ID0.32985211815685034">
    <g id="ID0.08651347272098064">
      <g id="ID0.07771636918187141">
        <path id="ID0.7001032647676766" fill="none" stroke="#646B70" stroke-width="0.5238094925880432" stroke-linecap="round" d="M 58.8429 39.3429 C 58.8429 39.3429 58.7784 39.7108 58.7381 39.8929 C 58.7001 40.0641 58.5445 40.2396 58.6071 40.4036 C 58.6718 40.5733 58.8798 40.6618 59.0524 40.7179 C 59.2184 40.7715 59.4018 40.7158 59.5762 40.7179 C 59.7506 40.72 60.0157 40.8836 60.1 40.731 C 60.3022 40.3656 60.2571 39.4869 60.2571 39.4869 "/>
        <path id="ID0.7001032647676766" fill="none" stroke="#646B70" stroke-width="0.5238094925880432" stroke-linecap="round" d="M 60.3429 39.3429 C 60.3429 39.3429 60.2784 39.7108 60.2381 39.8929 C 60.2001 40.0641 60.0445 40.2396 60.1071 40.4036 C 60.1718 40.5733 60.3798 40.6618 60.5524 40.7179 C 60.7184 40.7715 60.9018 40.7158 61.0762 40.7179 C 61.2506 40.72 61.5157 40.8836 61.6 40.731 C 61.8022 40.3656 61.7571 39.4869 61.7571 39.4869 "/>
      </g>
      <g id="ID0.07771636918187141">
        <path id="ID0.7001032647676766" fill="none" stroke="#646B70" stroke-width="0.5238094925880432" stroke-linecap="round" d="M 61.9429 39.5429 C 61.9429 39.5429 61.8784 39.9108 61.8381 40.0929 C 61.8001 40.2641 61.6445 40.4396 61.7071 40.6036 C 61.7718 40.7733 61.9798 40.8618 62.1524 40.9179 C 62.3184 40.9715 62.5018 40.9158 62.6762 40.9179 C 62.8506 40.92 63.1157 41.0836 63.2 40.931 C 63.4022 40.5656 63.3571 39.6869 63.3571 39.6869 "/>
        <path id="ID0.7001032647676766" fill="none" stroke="#646B70" stroke-width="0.5238094925880432" stroke-linecap="round" d="M 63.4429 39.5929 C 63.4429 39.5929 63.3784 39.9608 63.3381 40.1429 C 63.3001 40.3141 63.1445 40.4896 63.2071 40.6536 C 63.2718 40.8233 63.4798 40.9118 63.6524 40.9679 C 63.8184 41.0215 64.0018 40.9658 64.1762 40.9679 C 64.3506 40.97 64.6157 41.1336 64.7 40.981 C 64.9022 40.6156 64.8571 39.7369 64.8571 39.7369 "/>
      </g>
      <path id="ID0.7001032647676766" fill="none" stroke="#646B70" stroke-width="0.5238095049857807" stroke-linecap="round" d="M 64.9908 39.7626 C 64.9908 39.7626 64.9653 40.1353 64.9442 40.3206 C 64.9244 40.4949 64.7881 40.6857 64.8675 40.8422 C 64.9496 41.0042 65.1657 41.0705 65.3432 41.1081 C 65.514 41.1441 65.6905 41.0694 65.8642 41.0532 C 66.0379 41.037 66.3186 41.172 66.3865 41.0113 C 66.5492 40.6268 66.4124 39.7577 66.4124 39.7577 "/>
    </g>
    <g id="ID0.08651347272098064">
      <g id="ID0.07771636918187141">
        <path id="ID0.7001032647676766" fill="none" stroke="#646B70" stroke-width="0.5238094925880432" stroke-linecap="round" d="M 74.0571 39.3429 C 74.0571 39.3429 74.1216 39.7108 74.1619 39.8929 C 74.1999 40.0641 74.3555 40.2396 74.2929 40.4036 C 74.2282 40.5733 74.0202 40.6618 73.8476 40.7179 C 73.6816 40.7715 73.4982 40.7158 73.3238 40.7179 C 73.1494 40.72 72.8843 40.8836 72.8 40.731 C 72.5978 40.3656 72.6429 39.4869 72.6429 39.4869 "/>
        <path id="ID0.7001032647676766" fill="none" stroke="#646B70" stroke-width="0.5238094925880432" stroke-linecap="round" d="M 72.5571 39.3429 C 72.5571 39.3429 72.6216 39.7108 72.6619 39.8929 C 72.6999 40.0641 72.8555 40.2396 72.7929 40.4036 C 72.7282 40.5733 72.5202 40.6618 72.3476 40.7179 C 72.1816 40.7715 71.9982 40.7158 71.8238 40.7179 C 71.6494 40.72 71.3843 40.8836 71.3 40.731 C 71.0978 40.3656 71.1429 39.4869 71.1429 39.4869 "/>
      </g>
      <g id="ID0.07771636918187141">
        <path id="ID0.7001032647676766" fill="none" stroke="#646B70" stroke-width="0.5238094925880432" stroke-linecap="round" d="M 70.8571 39.5429 C 70.8571 39.5429 70.9216 39.9108 70.9619 40.0929 C 70.9999 40.2641 71.1555 40.4396 71.0929 40.6036 C 71.0282 40.7733 70.8202 40.8618 70.6476 40.9179 C 70.4816 40.9715 70.2982 40.9158 70.1238 40.9179 C 69.9494 40.92 69.6843 41.0836 69.6 40.931 C 69.3978 40.5656 69.4429 39.6869 69.4429 39.6869 "/>
        <path id="ID0.7001032647676766" fill="none" stroke="#646B70" stroke-width="0.5238094925880432" stroke-linecap="round" d="M 69.3571 39.5929 C 69.3571 39.5929 69.4216 39.9608 69.4619 40.1429 C 69.4999 40.3141 69.6555 40.4896 69.5929 40.6536 C 69.5282 40.8233 69.3202 40.9118 69.1476 40.9679 C 68.9816 41.0215 68.7982 40.9658 68.6238 40.9679 C 68.4494 40.97 68.1843 41.1336 68.1 40.981 C 67.8978 40.6156 67.9429 39.7369 67.9429 39.7369 "/>
      </g>
      <path id="ID0.7001032647676766" fill="none" stroke="#646B70" stroke-width="0.5238095049857807" stroke-linecap="round" d="M 67.9092 39.7626 C 67.9092 39.7626 67.9347 40.1353 67.9558 40.3206 C 67.9756 40.4949 68.1119 40.6857 68.0325 40.8422 C 67.9504 41.0042 67.7343 41.0705 67.5568 41.1081 C 67.386 41.1441 67.2095 41.0694 67.0358 41.0532 C 66.8621 41.037 66.5814 41.172 66.5135 41.0113 C 66.3508 40.6268 66.4876 39.7577 66.4876 39.7577 "/>
    </g>
  </g>
  <path id="ID0.7001032647676766" fill="none" stroke="#646B70" stroke-width="0.523809552192688" stroke-linecap="round" d="M 59.1429 42.4071 C 59.1429 42.4071 59.0784 42.0392 59.0381 41.8571 C 59.0001 41.6859 58.8446 41.5104 58.9071 41.3464 C 58.9718 41.1767 59.1798 41.0882 59.3524 41.0321 C 59.5184 40.9785 59.7018 41.0342 59.8762 41.0321 C 60.0506 41.03 60.3157 40.8664 60.4 41.019 C 60.6022 41.3844 60.5571 42.2631 60.5571 42.2631 "/>
  <path id="ID0.7001032647676766" fill="none" stroke="#646B70" stroke-width="0.523809552192688" stroke-linecap="round" d="M 60.6429 42.4071 C 60.6429 42.4071 60.5784 42.0392 60.5381 41.8571 C 60.5001 41.6859 60.3446 41.5104 60.4071 41.3464 C 60.4718 41.1767 60.6798 41.0882 60.8524 41.0321 C 61.0184 40.9785 61.2018 41.0342 61.3762 41.0321 C 61.5506 41.03 61.8157 40.8664 61.9 41.019 C 62.1022 41.3844 62.0571 42.2631 62.0571 42.2631 "/>
  <g id="ID0.07771636918187141">
    <path id="ID0.7001032647676766" fill="none" stroke="#646B70" stroke-width="0.523809552192688" stroke-linecap="round" d="M 61.6929 42.5571 C 61.6929 42.5571 61.6284 42.1892 61.5881 42.0071 C 61.5501 41.8359 61.3946 41.6604 61.4571 41.4964 C 61.5218 41.3267 61.7298 41.2382 61.9024 41.1821 C 62.0684 41.1285 62.2518 41.1842 62.4262 41.1821 C 62.6006 41.18 62.8657 41.0164 62.95 41.169 C 63.1522 41.5344 63.1071 42.4131 63.1071 42.4131 "/>
    <path id="ID0.7001032647676766" fill="none" stroke="#646B70" stroke-width="0.523809552192688" stroke-linecap="round" d="M 63.1929 42.4071 C 63.1929 42.4071 63.1284 42.0392 63.0881 41.8571 C 63.0501 41.6859 62.8946 41.5104 62.9571 41.3464 C 63.0218 41.1767 63.2298 41.0882 63.4024 41.0321 C 63.5684 40.9785 63.7518 41.0342 63.9262 41.0321 C 64.1006 41.03 64.3657 40.8664 64.45 41.019 C 64.6522 41.3844 64.6071 42.2631 64.6071 42.2631 "/>
  </g>
  <path id="ID0.7001032647676766" fill="none" stroke="#646B70" stroke-width="0.5238095646525897" stroke-linecap="round" d="M 65.1908 42.5373 C 65.1908 42.5373 65.1653 42.1646 65.1442 41.9794 C 65.1244 41.8051 64.9881 41.6143 65.0675 41.4578 C 65.1496 41.2958 65.3657 41.2295 65.5432 41.1919 C 65.714 41.1559 65.8905 41.2306 66.0642 41.2468 C 66.2379 41.263 66.5186 41.128 66.5865 41.2887 C 66.7493 41.6732 66.6124 42.5423 66.6124 42.5423 "/>
  <path id="ID0.7001032647676766" fill="none" stroke="#646B70" stroke-width="0.523809552192688" stroke-linecap="round" d="M 74.8071 42.2071 C 74.8071 42.2071 74.8716 41.8392 74.9119 41.6571 C 74.9499 41.4859 75.1054 41.3104 75.0429 41.1464 C 74.9782 40.9767 74.7702 40.8882 74.5976 40.8321 C 74.4316 40.7785 74.2482 40.8342 74.0738 40.8321 C 73.8994 40.83 73.6343 40.6664 73.55 40.819 C 73.3478 41.1844 73.3929 42.0631 73.3929 42.0631 "/>
  <path id="ID0.7001032647676766" fill="none" stroke="#646B70" stroke-width="0.523809552192688" stroke-linecap="round" d="M 73.3071 42.2071 C 73.3071 42.2071 73.3716 41.8392 73.4119 41.6571 C 73.4499 41.4859 73.6054 41.3104 73.5429 41.1464 C 73.4782 40.9767 73.2702 40.8882 73.0976 40.8321 C 72.9316 40.7785 72.7482 40.8342 72.5738 40.8321 C 72.3994 40.83 72.1343 40.6664 72.05 40.819 C 71.8478 41.1844 71.8929 42.0631 71.8929 42.0631 "/>
  <path id="ID0.7001032647676766" fill="none" stroke="#646B70" stroke-width="0.523809552192688" stroke-linecap="round" d="M 71.5571 42.3071 C 71.5571 42.3071 71.6216 41.9392 71.6619 41.7571 C 71.6999 41.5859 71.8554 41.4104 71.7929 41.2464 C 71.7282 41.0767 71.5202 40.9882 71.3476 40.9321 C 71.1816 40.8785 70.9982 40.9342 70.8238 40.9321 C 70.6494 40.93 70.3843 40.7664 70.3 40.919 C 70.0978 41.2844 70.1429 42.1631 70.1429 42.1631 "/>
  <path id="ID0.7001032647676766" fill="none" stroke="#646B70" stroke-width="0.523809552192688" stroke-linecap="round" d="M 70.0571 42.4571 C 70.0571 42.4571 70.1216 42.0892 70.1619 41.9071 C 70.1999 41.7359 70.3554 41.5604 70.2929 41.3964 C 70.2282 41.2267 70.0202 41.1382 69.8476 41.0821 C 69.6816 41.0285 69.4982 41.0842 69.3238 41.0821 C 69.1494 41.08 68.8843 40.9164 68.8 41.069 C 68.5978 41.4344 68.6429 42.3131 68.6429 42.3131 "/>
  <path id="ID0.7001032647676766" fill="none" stroke="#646B70" stroke-width="0.5238095646525897" stroke-linecap="round" d="M 68.3592 42.5873 C 68.3592 42.5873 68.3847 42.2146 68.4058 42.0294 C 68.4256 41.8551 68.5619 41.6643 68.4825 41.5078 C 68.4004 41.3458 68.1843 41.2795 68.0068 41.2419 C 67.836 41.2059 67.6595 41.2806 67.4858 41.2968 C 67.3121 41.313 67.0314 41.178 66.9635 41.3387 C 66.8007 41.7232 66.9376 42.5923 66.9376 42.5923 "/>
  <path id="ID0.44800941413268447" fill="none" stroke="#2E3234" stroke-width="0.6130029273409839" stroke-linecap="round" d="M 69.952 33.7985 L 68.1444 32.497 L 64.8387 33.541 "/>
  <path id="ID0.44800941413268447" fill="none" stroke="#33383A" stroke-width="1.0503597259521484" stroke-linecap="round" d="M 68.4511 27.7698 L 70.0791 23.4633 L 74.4644 21.0212 L 81.0291 21.1525 "/>
  <g id="ID0.6897007944062352">
    <path id="ID0.2692581438459456" fill="#7AABFF" stroke="none" d="M 76.8257 24.3357 C 76.507 24.2448 76.182 24.2924 75.9137 24.4417 C 75.6453 24.591 75.4335 24.842 75.3427 25.1607 C 75.2518 25.4794 75.2994 25.8043 75.4486 26.0727 C 75.5979 26.3411 75.8489 26.5528 76.1676 26.6437 C 76.4864 26.7346 76.8113 26.687 77.0796 26.5377 C 77.348 26.3884 77.5598 26.1375 77.6507 25.8187 C 77.7415 25.5 77.694 25.1751 77.5447 24.9067 C 77.3954 24.6384 77.1444 24.4266 76.8257 24.3357 Z " stroke-width="1.1428571810382073"/>
    <path id="ID0.8070062398910522" fill="#192334" stroke="none" d="M 76.6326 25.003 C 76.5001 24.9652 76.3641 24.9842 76.2526 25.0471 C 76.1403 25.1087 76.0524 25.2142 76.0147 25.3467 C 75.9769 25.4792 75.9959 25.6152 76.0588 25.7267 C 76.1204 25.839 76.2259 25.9269 76.3584 25.9646 C 76.4909 26.0024 76.6269 25.9834 76.7384 25.9205 C 76.8507 25.8589 76.9385 25.7534 76.9763 25.6209 C 77.0141 25.4884 76.9951 25.3524 76.9322 25.2409 C 76.8706 25.1286 76.7651 25.0407 76.6326 25.003 Z " stroke-width="1.111111214644622"/>
  </g>
  <g id="ID0.5823970721103251">
    <path id="ID0.2692581438459456" fill="#7AABFF" stroke="none" d="M 60.5243 24.5357 C 60.843 24.4448 61.168 24.4924 61.4363 24.6417 C 61.7047 24.791 61.9165 25.042 62.0073 25.3607 C 62.0982 25.6794 62.0506 26.0043 61.9014 26.2727 C 61.7521 26.5411 61.5011 26.7528 61.1824 26.8437 C 60.8636 26.9346 60.5387 26.887 60.2704 26.7377 C 60.002 26.5884 59.7902 26.3375 59.6993 26.0187 C 59.6085 25.7 59.656 25.3751 59.8053 25.1067 C 59.9546 24.8384 60.2056 24.6266 60.5243 24.5357 Z " stroke-width="1.1428571810382073"/>
    <path id="ID0.8070062398910522" fill="#192334" stroke="none" d="M 60.8174 25.103 C 60.9499 25.0652 61.0859 25.0842 61.1974 25.1471 C 61.3097 25.2087 61.3976 25.3142 61.4353 25.4467 C 61.4731 25.5792 61.4541 25.7152 61.3912 25.8267 C 61.3296 25.939 61.2241 26.0269 61.0916 26.0646 C 60.9591 26.1024 60.8231 26.0834 60.7116 26.0205 C 60.5993 25.9589 60.5115 25.8534 60.4737 25.7209 C 60.4359 25.5884 60.4549 25.4524 60.5178 25.3409 C 60.5794 25.2286 60.6849 25.1407 60.8174 25.103 Z " stroke-width="1.111111214644622"/>
  </g>
  <path id="ID0.023752907756716013" fill="none" stroke="#584E44" stroke-width="1.1814345600728136" stroke-linecap="round" d="M 56.653 23.1863 L 59.9503 23.3651 L 62.3252 24.3565 "/>
  <path id="ID0.023752907756716013" fill="none" stroke="#584E44" stroke-width="1.1814345600728136" stroke-linecap="round" d="M 78.747 23.1863 L 75.4497 23.3651 L 73.0748 24.3565 "/>
  <g id="ID0.5880346246995032">
    <path id="ID0.6829322893172503" fill="#1D1E1F" stroke="none" stroke-linecap="round" d="M 17.608 175.383 L 27.7611 169.7866 L 31.2876 175.1347 L 35.6491 180.8514 L 35.9233 186.56 L 35.5369 191.2786 L 33.645 194.4347 L 32.541 201.2313 L 27.8419 201.2527 L 26.5207 199.2726 L 24.8799 199.1471 L 21.4905 196.6533 L 17.8777 193.7616 L 15.6235 189.3742 L 16.0962 182.1992 L 17.608 175.383 Z " stroke-width="0.8164595633699662"/>
    <g id="ID0.9434720128774643">
      <path id="ID0.6507829907350242" fill="#282828" stroke="none" stroke-linecap="round" d="M 8.8366 110.8636 L 28.2871 120.1469 L 27.7542 137.1335 L 27.2604 149.827 L 28.034 165.9335 L 30.6931 172.7945 L 16.0924 175.9889 L 16.5107 168.5304 L 14.2058 158.8323 L 10.7541 146.5327 L 9.3002 133.2789 L 8.8366 110.8636 Z " stroke-width="0.8164595633699662"/>
      <path id="ID0.9892375003546476" fill="none" stroke="#191919" stroke-width="1.9999999095091223" stroke-linecap="round" d="M 16.5669 175.0718 L 29.9194 171.6773 L 27.0145 163.3071 "/>
    </g>
  </g>
</svg>