<svg xmlns="http://www.w3.org/2000/svg" xmlns:xlink="http://www.w3.org/1999/xlink" version="1.1" width="1097.6674704551697" height="980.9135642051697" viewBox="-1.1528816167265177 -0.9812816083431244 1097.6674704551697 980.9135642051697">
  <defs>
    <linearGradient id="grad_1" y2="1" x2="0">
      <stop offset="0" stop-color="#5683B1" stop-opacity="0"/>
      <stop offset="1" stop-color="#5683B1" stop-opacity="1"/>
    </linearGradient>
    <linearGradient id="grad_2" y2="1" x2="0">
      <stop offset="0" stop-color="#5683B1" stop-opacity="0"/>
      <stop offset="1" stop-color="#5683B1" stop-opacity="1"/>
    </linearGradient>
  <linearGradient id="grad_1-.7427428960800171,0.8532640933990479,-1.9332869052886963,1.6828728914260864,911.65,-36.6" y2="569.2342" x2="215.6667" x1="393.5291" y1="414.4099" gradientUnits="userSpaceOnUse">
      <stop offset="0" stop-color="#5683B1" stop-opacity="0"/>
      <stop offset="1" stop-color="#5683B1" stop-opacity="1"/>
    </linearGradient><linearGradient id="grad_2-0.7427429556846619,0.8532640933990479,1.9332869052886963,1.6828728914260864,399.4,-65" y2="540.8343" x2="1095.3833" x1="917.5209" y1="386.0099" gradientUnits="userSpaceOnUse">
      <stop offset="0" stop-color="#5683B1" stop-opacity="0"/>
      <stop offset="1" stop-color="#5683B1" stop-opacity="1"/>
    </linearGradient></defs>
  <!-- Exported by Scratch - http://scratch.mit.edu/ -->
  <path id="ID0.1375492145307362" fill="#282828" stroke="none" d="M 901.65 254.4 L 118.5502 254.4 L 118.5502 689.5721 L 901.65 689.5721 L 901.65 254.4 Z " stroke-width="1.4357715136313183"/>
  <path id="ID0.8509373352862895" fill="#2E2E2E" stroke="none" stroke-linecap="round" d="M 935.9816 227.0036 L 751.7524 205.7921 L 545.2935 357.3838 L 562.2627 399.2412 L 568.4847 416.7761 L 582.6258 432.614 L 592.2417 452.4115 L 599.0293 464.8556 L 605.2514 471.0776 L 608.0796 477.2997 L 617.6955 480.6935 L 627.3114 475.0371 L 630.7052 487.4812 L 636.3616 495.9658 L 643.1493 527.0761 L 651.0683 529.3386 L 661.5327 524.2478 L 668.6032 533.2981 L 674.2596 546.025 L 697.7337 514.0663 L 690.6632 579.115 L 739.987 676.9709 L 911.9984 660.0016 L 1011.9471 597.2155 L 935.9816 227.0036 Z " stroke-width="1.1312816143035889"/>
  <path id="ID0.8628232381306589" fill="#252525" stroke="none" d="M 890.9 361.4453 L 880.1528 454.4687 L 873.3651 440.1048 L 864.3149 472.9366 L 850.7395 468.8326 L 850.1739 503.7164 L 848.4769 522.1842 L 841.1236 524.2362 L 839.9923 546.8081 L 838.2954 537.2322 L 830.3764 628.8876 L 902.7785 633.6755 L 890.9 361.4453 Z " stroke-width="1.2552287371231674"/>
  <g id="ID0.35708296764642">
    <path id="ID0.8807901288382709" fill="#1F1F1F" stroke="none" stroke-linecap="round" d="M 967.25 4.15 L 418.5784 4.15 L 418.5784 148.1763 L 655.0216 332.4385 L 666.3379 339.7541 L 682.0551 352.7851 L 707.6598 338.6682 L 739.8942 334.6675 L 761.3838 323.9227 L 785.1596 318.2645 L 805.5062 316.0355 L 825.8528 304.7192 L 834.883 283.8011 L 850.7716 275.8567 L 967.25 148.1763 L 967.25 4.15 Z " stroke-width="1.1430658102035522"/>
    <path id="ID0.8807901288382709" fill="#1F1F1F" stroke="none" stroke-linecap="round" d="M 842.8 41.5 L 294.1284 41.5 L 294.1284 185.5263 L 485.8777 328.2381 L 503.9953 346.0127 L 512.454 359.6152 L 527.1995 369.217 L 537.3728 375.4467 L 557.6051 390.1351 L 581.4952 374.8751 L 596.7551 359.6152 L 608.643 356.186 L 624.4744 345.4412 L 632.3616 336.411 L 643.1064 335.8394 L 842.8 185.5263 L 842.8 41.5 Z " stroke-width="1.1430658102035522"/>
    <path id="ID0.8807901288382709" fill="#1F1F1F" stroke="none" stroke-linecap="round" d="M 696.85 0.15 L 148.1784 0.15 L 148.1784 144.1763 L 384.6216 326.2667 L 388.5652 333.0679 L 411.6551 348.7851 L 433.8306 335.2969 L 446.8044 326.8382 L 696.85 144.1763 L 696.85 0.15 Z " stroke-width="1.1430658102035522"/>
    <path id="ID0.8807901288382709" fill="#1F1F1F" stroke="none" stroke-linecap="round" d="M 548.65 54.5 L -0.0216 54.5 L -0.0216 198.5263 L 263.4551 403.1351 L 356.9007 340.3808 L 367.6455 331.3505 L 548.65 198.5263 L 548.65 54.5 Z " stroke-width="1.1430658102035522"/>
  </g>
  <path id="ID0.96548081189394" fill="#475358" stroke="none" d="M 756.7952 608.524 C 713.2556 608.524 673.8022 615.116 645.2339 625.7648 C 616.6656 636.4146 598.9815 651.1213 598.9815 667.3507 C 598.9815 683.58 616.6656 698.2867 645.2339 708.9366 C 673.8022 719.5853 713.2556 726.1773 756.7952 726.1773 C 800.3349 726.1773 839.7883 719.5853 868.3566 708.9366 C 896.9248 698.2867 914.609 683.58 914.609 667.3507 C 914.609 651.1213 896.9248 636.4146 868.3566 625.7648 C 839.7883 615.116 800.3349 608.524 756.7952 608.524 Z " stroke-width="1.1312816143035889"/>
  <path id="ID0.6961059258319438" fill="#475358" stroke="none" stroke-linecap="round" d="M 669.1525 618.6878 L 317.4268 643.3086 L 323.2888 683.1709 L 660.9455 683.1709 L 669.1525 618.6878 Z " stroke-width="1.1724190711975098"/>
  <path id="ID0.04282420501112938" fill="none" stroke="#3A3A3A" stroke-width="2.2625632286071777" stroke-linecap="round" d="M 687.835 519.1571 C 687.835 519.1571 687.241 521.1255 686.7037 521.9853 C 686.2806 522.6629 685.4717 523.0317 685.0067 523.6822 C 684.5169 524.3678 684.3653 525.2592 683.8755 525.9448 C 683.4105 526.5953 682.872 527.2457 682.1785 527.6417 C 681.5043 528.0275 680.5122 527.7107 679.916 528.2073 C 679.2689 528.747 679.1614 529.7165 678.7847 530.4699 C 678.408 531.2233 678.0946 532.7325 677.6534 532.7325 C 677.2462 532.7325 677.2767 531.2233 677.0878 530.4699 C 676.8989 529.7165 676.7948 528.9347 676.5221 528.2073 C 676.2269 527.4188 676.0922 526.412 675.3909 525.9448 C 674.7641 525.5273 673.7166 526.4154 673.1283 525.9448 C 672.5219 525.4595 672.91 524.3768 672.5626 523.6822 C 672.1418 522.8394 671.3646 522.2183 670.8657 521.4196 C 670.4189 520.7058 670.0297 519.9456 669.7344 519.1571 C 669.4618 518.4297 669.808 517.0224 669.1688 516.8945 C 668.3939 516.7395 667.8203 518.3629 666.9062 518.5914 C 666.1528 518.7804 665.2399 518.5224 664.6437 518.0258 C 663.9966 517.4862 664.2138 516.2305 663.5124 515.7632 C 662.8857 515.3458 661.9422 515.4668 661.2498 515.7632 C 660.5156 516.0777 660.3516 517.4602 659.5529 517.4602 C 658.7542 517.4602 658.6547 515.7632 657.856 515.7632 C 657.0573 515.7632 656.624 516.8097 656.1591 517.4602 C 655.6692 518.1457 655.7529 519.5779 655.0278 519.7227 C 654.3388 519.8607 654.1295 518.0258 653.3309 518.0258 C 652.5322 518.0258 652.4326 519.7227 651.6339 519.7227 C 650.8353 519.7227 650.333 518.7193 649.937 518.0258 C 649.5512 517.3516 649.644 516.4907 649.3714 515.7632 C 649.0761 514.9747 648.7299 514.1862 648.2401 513.5007 C 647.7751 512.8502 646.9391 512.4972 646.5432 511.8038 C 646.1574 511.1295 646.1665 510.2946 645.9775 509.5412 C 645.7886 508.7878 645.6845 508.006 645.4119 507.2786 C 645.1166 506.4901 644.4854 505.8328 644.2806 505.0161 C 644.0973 504.2853 644.3745 503.5013 644.2806 502.7535 C 644.1844 501.9831 643.9039 501.2444 643.715 500.4909 C 643.526 499.7375 643.3383 498.9818 643.1493 498.2284 C 642.9604 497.4749 642.7726 496.7192 642.5837 495.9658 C 642.3948 495.2124 642.2907 494.4307 642.018 493.7032 C 641.7228 492.9147 641.182 492.2292 640.8868 491.4407 C 640.6141 490.7133 640.51 489.9316 640.3211 489.1781 C 640.1322 488.4247 639.9444 487.669 639.7555 486.9156 C 639.5666 486.1621 639.3788 485.4064 639.1898 484.653 C 639.0009 483.8996 639.01 483.0647 638.6242 482.3904 C 638.2283 481.697 637.4929 481.2591 636.9273 480.6935 C 636.3616 480.1279 635.796 479.5622 635.2304 478.9966 C 634.6647 478.4309 633.9294 477.9931 633.5334 477.2997 C 633.1477 476.6254 633.1567 475.7905 632.9678 475.0371 C 632.7789 474.2837 632.5911 473.528 632.4022 472.7745 C 632.2132 472.0211 632.0254 471.2654 631.8365 470.512 C 631.6476 469.7585 631.367 469.0198 631.2709 468.2494 C 631.177 467.5016 631.8037 466.5197 631.2709 465.9868 C 630.738 465.454 629.635 465.5694 629.0083 465.9868 C 628.3069 466.4541 628.5241 467.7098 627.877 468.2494 C 627.2808 468.746 626.3091 469.1624 625.6145 468.815 C 624.861 468.4383 625.0488 466.5525 624.4832 466.5525 C 623.9175 466.5525 624.0533 468.3478 623.3519 468.815 C 622.7252 469.2325 621.8371 468.7212 621.0893 468.815 C 620.3189 468.9112 619.5972 469.2845 618.8268 469.3807 C 618.079 469.4746 617.312 469.4746 616.5642 469.3807 C 615.7938 469.2845 615.0483 468.6012 614.3016 468.815 C 613.5335 469.0345 613.0414 470.6579 612.6047 470.512 C 612.1929 470.3751 612.6047 469.0028 612.6047 468.2494 C 612.6047 467.496 612.6047 466.7403 612.6047 465.9868 C 612.6047 465.2334 612.6986 464.4721 612.6047 463.7243 C 612.5086 462.9539 612.4248 462.136 612.0391 461.4617 C 611.6431 460.7682 610.8071 460.4153 610.3422 459.7648 C 609.8523 459.0792 609.858 458.0419 609.2109 457.5022 C 608.6147 457.0056 607.695 456.7228 606.9483 456.9366 C 606.1802 457.1561 605.825 458.7772 605.2514 458.6335 C 604.6937 458.4944 604.9312 457.1074 604.6858 456.371 C 604.3645 455.4082 603.8758 454.5055 603.5545 453.5427 C 603.309 452.8063 603.2615 452.0076 602.9888 451.2802 C 602.6936 450.4917 602.5589 449.4848 601.8575 449.0176 C 601.2308 448.6002 600.2217 449.4351 599.595 449.0176 C 598.8936 448.5504 598.759 447.5436 598.4637 446.7551 C 598.1911 446.0276 598.1707 445.2199 597.8981 444.4925 C 597.6028 443.704 597.062 443.0184 596.7668 442.2299 C 596.4941 441.5025 596.3889 440.7208 596.2011 439.9674 C 596.0133 439.2139 595.9081 438.4322 595.6355 437.7048 C 595.3402 436.9163 594.7995 436.2307 594.5042 435.4422 C 594.2316 434.7148 594.2859 433.8743 593.9386 433.1797 C 593.5177 432.3369 592.7405 431.7158 592.2417 430.9171 C 591.7948 430.2033 591.4056 429.4431 591.1104 428.6546 C 590.8377 427.9271 590.8174 427.1194 590.5447 426.392 C 590.2495 425.6035 590.0605 424.669 589.4134 424.1294 C 588.8173 423.6328 587.8251 423.9496 587.1509 423.5638 C 586.4574 423.1678 585.9744 422.4732 585.454 421.8669 C 584.8408 421.1519 584.2559 420.403 583.757 419.6043 C 583.3102 418.8905 583.1156 418.0273 582.6258 417.3417 C 582.1608 416.6912 581.3938 416.2953 580.9288 415.6448 C 580.439 414.9593 580.2874 414.0678 579.7976 413.3823 C 579.3326 412.7318 578.7896 411.5473 578.1006 411.6853 C 577.3755 411.8301 577.5655 413.3517 576.9694 413.9479 C 576.3732 414.5441 575.5055 415.345 574.7068 415.0792 C 573.9081 414.8133 573.8708 413.6051 573.5755 412.8166 C 573.3029 412.0892 573.1977 411.3075 573.0099 410.554 C 572.8221 409.8006 572.632 409.0449 572.4442 408.2915 C 572.2564 407.538 572.0664 406.7824 571.8786 406.0289 C 571.6908 405.2755 571.5856 404.4938 571.3129 403.7664 C 571.0177 402.9779 570.3864 402.3206 570.1817 401.5038 C 569.9984 400.773 570.2756 399.989 570.1817 399.2412 C 570.0855 398.4708 569.8887 397.7061 569.616 396.9787 C 569.3208 396.1902 568.78 395.5046 568.4847 394.7161 C 568.2121 393.9887 568.1069 393.207 567.9191 392.4535 C 567.8716 392.2657 567.9191 392.4535 567.9191 392.4535 "/>
  <path id="ID0.5814925273880363" fill="none" stroke="#3A3A3A" stroke-width="2.2625632286071777" stroke-linecap="round" d="M 662.9468 346.071 C 662.9468 346.071 664.0305 347.6186 664.6437 348.3336 C 665.1641 348.9399 665.9039 350.1764 666.3406 350.0305 C 666.7524 349.8936 666.2886 347.7679 666.3406 347.7679 C 666.3926 347.7679 666.5205 349.3562 666.9062 350.0305 C 667.3022 350.724 668.0375 351.1629 668.6032 351.7274 C 669.1688 352.2919 669.7887 352.81 670.3001 353.4243 C 670.7345 353.9458 671.4314 355.1212 671.4314 355.1212 "/>
  <path id="ID0.28727586567401886" fill="none" stroke="#3A3A3A" stroke-width="2.2625632286071777" stroke-linecap="round" d="M 671.997 350.0305 C 671.997 350.0305 672.29 351.5656 672.5626 352.293 C 672.8579 353.0815 673.2041 353.8701 673.6939 354.5556 C 674.1589 355.2061 674.8252 355.688 675.3909 356.2525 C 676.521 357.3827 677.5969 358.5773 678.7847 359.6464 C 679.485 360.2765 680.3323 360.7301 681.0473 361.3433 C 681.6536 361.8637 682.1785 362.4757 682.7442 363.0402 C 683.1209 363.4169 683.8755 364.1715 683.8755 364.1715 "/>
  <path id="ID0.6103049954399467" fill="none" stroke="#3A3A3A" stroke-width="2.2625632286071777" stroke-linecap="round" d="M 668.6032 361.9089 C 668.6032 361.9089 667.4719 360.3998 666.9062 359.6464 C 666.3406 358.8929 665.6302 358.2266 665.2093 357.3838 C 664.862 356.6892 664.6437 354.7389 664.6437 355.1212 C 664.6437 355.679 665.3485 359.0875 665.2093 359.6464 C 665.1086 360.0502 664.7794 357.851 664.078 357.3838 C 663.4513 356.9664 662.4422 357.8013 661.8155 357.3838 C 661.1141 356.9166 661.174 355.8068 660.6842 355.1212 C 660.2192 354.4708 659.416 354.0986 658.9873 353.4243 C 658.0822 352.0034 657.6297 350.3201 656.7247 348.8992 C 656.296 348.225 655.5267 347.8267 655.0278 347.2023 C 654.7642 346.8731 654.4621 346.071 654.4621 346.071 "/>
  <path id="ID0.5220733326859772" fill="none" stroke="#3A3A3A" stroke-width="2.2625632286071777" stroke-linecap="round" d="M 648.8057 344.9397 C 648.8057 344.9397 649.1825 346.4488 649.3714 347.2023 C 649.5603 347.9557 650.2244 349.7522 649.937 349.4648 C 649.4936 349.0214 648.3781 346.0337 647.6745 345.5054 C 647.2989 345.2237 647.6745 347.0145 647.6745 347.7679 C 647.6745 348.5214 648.0862 349.8936 647.6745 350.0305 C 647.2378 350.1764 646.628 348.7985 645.9775 348.3336 C 645.292 347.8437 644.3123 346.9036 643.715 347.2023 C 643.181 347.4693 643.715 348.7114 643.715 349.4648 C 643.715 350.2183 644.2173 351.6018 643.715 351.7274 C 643.086 351.8847 642.2511 350.5294 641.4524 350.0305 C 640.7386 349.5836 639.9885 348.6333 639.1898 348.8992 C 638.3912 349.165 638.4353 350.4083 638.0586 351.1618 C 637.9647 351.3496 638.0586 351.1618 638.0586 351.1618 "/>
  <path id="ID0.5301661482080817" fill="none" stroke="#3A3A3A" stroke-width="2.2625632286071777" stroke-linecap="round" d="M 701.4103 347.2023 C 701.4103 347.2023 702.9873 347.8437 703.6729 348.3336 C 704.3234 348.7985 704.7963 350.1742 705.3698 350.0305 C 705.9275 349.8913 705.7465 348.5214 705.9355 347.7679 C 706.1244 347.0145 705.9524 346.054 706.5011 345.5054 C 707.0498 344.9567 708.017 344.7259 708.7637 344.9397 C 709.5318 345.1592 709.7264 346.3221 710.4606 346.6366 C 711.1529 346.933 711.9754 346.7305 712.7231 346.6366 C 713.4935 346.5405 714.3115 346.4568 714.9857 346.071 C 715.6792 345.675 716.117 344.9386 716.6826 344.3741 C 717.2483 343.8096 717.6454 342.9916 718.3796 342.6771 C 719.0719 342.3808 719.8943 342.771 720.6421 342.6771 C 721.4125 342.581 722.1343 342.2077 722.9047 342.1115 C 723.6525 342.0176 724.4138 342.1115 725.1672 342.1115 C 725.9207 342.1115 726.6764 342.1115 727.4298 342.1115 C 728.1832 342.1115 728.9616 342.2948 729.6924 342.1115 C 730.5092 341.9067 731.2015 341.3569 731.9549 340.9802 C 732.7084 340.6035 733.4641 340.2257 734.2175 339.8489 C 734.9709 339.4722 735.6916 339.0129 736.4801 338.7177 C 737.2075 338.445 737.9892 338.3398 738.7426 338.152 C 739.4961 337.9642 740.2585 337.3726 741.0052 337.5864 C 741.7733 337.8059 742.0516 338.8183 742.7021 339.2833 C 743.3877 339.7731 744.1287 340.3105 744.9647 340.4146 C 745.7351 340.5107 746.553 340.2347 747.2272 339.8489 C 747.9207 339.453 748.4038 338.7584 748.9242 338.152 C 749.5373 337.4371 750.0079 336.6044 750.6211 335.8895 C 751.1415 335.2831 751.7116 334.7129 752.318 334.1925 C 753.033 333.5794 753.8656 333.1088 754.5806 332.4956 C 755.1869 331.9752 755.584 331.1946 756.2775 330.7987 C 756.9517 330.4129 757.7696 330.3292 758.5401 330.2331 C 759.2878 330.1392 760.0492 330.2331 760.8026 330.2331 C 761.556 330.2331 762.3174 330.3269 763.0652 330.2331 C 763.8356 330.1369 764.6003 329.9401 765.3277 329.6674 C 766.1162 329.3721 766.8369 328.9128 767.5903 328.5361 C 768.3437 328.1594 769.0644 327.7001 769.8529 327.4048 C 770.5803 327.1322 771.362 327.027 772.1154 326.8392 C 772.8689 326.6514 773.6076 326.3697 774.378 326.2736 C 775.1258 326.1797 775.8871 326.2736 776.6406 326.2736 C 777.394 326.2736 778.1497 326.2736 778.9031 326.2736 C 779.0909 326.2736 778.9031 326.2736 778.9031 326.2736 "/>
  <path id="ID0.6634597317315638" fill="none" stroke="#1F1F1F" stroke-width="2.2625632286071777" stroke-linecap="round" d="M 548.6873 386.7971 C 548.6873 386.7971 546.806 386.0301 545.8591 385.6659 C 544.3568 385.0878 542.8194 384.5877 541.334 383.9689 C 540.5568 383.6454 539.7287 383.3637 539.0714 382.8376 C 537.8236 381.8387 536.9254 380.4427 535.6776 379.4438 C 535.0203 378.9178 534.2035 378.6078 533.415 378.3125 C 532.6876 378.0399 531.8889 377.9924 531.1524 377.7469 C 529.6252 377.2378 528.2089 376.3464 526.6273 376.05 C 525.1465 375.7728 523.6034 376.1755 522.1022 376.05 C 521.3284 375.9855 520.567 375.757 519.8396 375.4843 C 519.0511 375.1891 518.2626 374.8429 517.5771 374.353 C 516.9266 373.8881 516.5306 373.1211 515.8801 372.6561 C 515.1946 372.1663 514.4344 371.7296 513.6176 371.5248 C 512.8868 371.3416 512.0474 371.8212 511.355 371.5248 C 510.6208 371.2103 510.1231 370.4784 509.6581 369.8279 C 509.1683 369.1424 508.8221 368.3538 508.5268 367.5653 C 508.2542 366.8379 508.4126 365.9352 507.9612 365.3028 C 506.4882 363.2405 504.5198 361.5707 502.8704 359.6464 C 502.2573 358.9314 501.6724 358.1825 501.1735 357.3838 C 500.7266 356.67 500.532 355.8068 500.0422 355.1212 C 499.5772 354.4708 498.8442 354.0488 498.3453 353.4243 C 497.3328 352.1596 496.5296 350.7296 495.5171 349.4648 C 495.0182 348.8404 494.3858 348.3324 493.8202 347.7679 C 492.1255 346.0721 490.2781 344.5076 488.7294 342.6771 C 488.1852 342.0346 488.0879 341.1001 487.5981 340.4146 C 487.1331 339.7641 486.5404 339.1973 485.9012 338.7177 C 485.7417 338.5977 485.3355 338.7177 485.3355 338.7177 "/>
  <path id="ID0.738395182415843" fill="none" stroke="#1F1F1F" stroke-width="2.2625632286071777" stroke-linecap="round" d="M 471.1945 326.8392 C 471.1945 326.8392 473.4571 328.3495 473.4571 328.5361 C 473.4571 328.7228 471.3076 327.7431 471.1945 327.9705 C 471.0814 328.1979 472.3258 329.1029 472.8914 329.6674 C 473.4571 330.2319 473.9379 330.8994 474.5884 331.3643 C 475.2739 331.8542 476.1654 332.0058 476.8509 332.4956 C 477.5014 332.9606 478.6938 333.7559 478.5479 334.1925 C 478.411 334.6043 477.0161 334.3758 476.2853 334.1925 C 475.4685 333.9878 474.7366 333.5081 474.0227 333.0613 C 473.224 332.5624 472.5588 331.8632 471.7602 331.3643 C 471.0463 330.9175 470.251 330.6098 469.4976 330.2331 C 468.7442 329.8563 467.9885 329.4785 467.235 329.1018 C 466.4816 328.7251 465.0415 327.9015 464.9725 327.9705 C 464.9035 328.0395 466.063 329.147 466.6694 329.6674 C 467.3844 330.2806 468.932 330.7444 468.932 331.3643 C 468.932 331.8757 467.4398 332.0261 466.6694 331.93 C 465.8334 331.8259 465.2055 330.5328 464.4068 330.7987 C 463.6081 331.0645 463.2755 332.2185 463.2755 333.0613 C 463.2755 333.9041 464.0301 334.5704 464.4068 335.3238 C 464.7835 336.0773 465.8368 336.9891 465.5381 337.5864 C 465.2711 338.1203 463.9815 337.8511 463.2755 337.5864 C 462.3943 337.256 461.797 336.4121 461.013 335.8895 C 460.6623 335.6553 459.8817 335.3238 459.8817 335.3238 "/>
  <path id="ID0.1818475848995149" fill="none" stroke="#1F1F1F" stroke-width="2.2625632286071777" stroke-linecap="round" d="M 458.1848 332.4956 C 458.1848 332.4956 456.2164 333.0895 455.3566 333.6269 C 454.6789 334.05 454.1246 334.6733 453.6597 335.3238 C 453.1698 336.0094 453.0182 336.9008 452.5284 337.5864 C 452.0634 338.2369 451.2274 338.5898 450.8315 339.2833 C 450.4457 339.9575 450.6516 340.8716 450.2658 341.5459 C 449.8699 342.2393 449.1345 342.6783 448.5689 343.2428 C 448.3811 343.4306 448.0032 343.8084 448.0032 343.8084 "/>
  <path id="ID0.119818230625242" fill="none" stroke="#1F1F1F" stroke-width="2.2625632286071777" stroke-linecap="round" d="M 453.6597 333.6269 C 453.6597 333.6269 451.7863 334.0862 450.8315 334.1925 C 450.0825 334.2763 449.2839 333.9538 448.5689 334.1925 C 446.9704 334.7254 445.4149 335.4754 444.0438 336.4551 C 442.7428 337.3839 441.8977 338.85 440.6499 339.8489 C 439.9926 340.375 439.0729 340.4904 438.3874 340.9802 C 437.7369 341.4452 437.3409 342.2122 436.6904 342.6771 C 436.0049 343.167 435.1293 343.3412 434.4279 343.8084 C 433.9844 344.1037 433.2966 344.9397 433.2966 344.9397 "/>
  <path id="ID0.9678202248178422" fill="none" stroke="#1F1F1F" stroke-width="2.2625632286071777" stroke-linecap="round" d="M 427.6402 344.9397 C 427.6402 344.9397 427.7533 347.0891 427.0745 347.7679 C 426.5417 348.3008 425.5654 347.7679 424.812 347.7679 C 424.0585 347.7679 423.1761 347.3505 422.5494 347.7679 C 421.848 348.2351 422.0143 349.4343 421.4181 350.0305 C 420.8219 350.6267 419.8411 350.6719 419.1556 351.1618 C 418.5051 351.6267 417.9575 352.2342 417.4586 352.8587 C 417.1951 353.1879 416.893 353.99 416.893 353.99 "/>
  <path id="ID0.6210101279430091" fill="none" stroke="#1F1F1F" stroke-width="2.2625632286071777" stroke-linecap="round" d="M 410.671 357.9495 C 410.671 357.9495 408.7534 357.687 407.8428 357.3838 C 407.0441 357.118 406.2657 356.7424 405.5802 356.2525 C 404.9297 355.7876 404.3199 354.4097 403.8833 354.5556 C 403.4715 354.6925 404.2951 356.6813 403.8833 356.8182 C 403.4466 356.9641 402.6513 355.7717 402.1863 355.1212 C 401.6965 354.4357 401.5449 353.5442 401.0551 352.8587 C 400.5901 352.2082 400.1263 351.3812 399.3581 351.1618 C 398.6115 350.9479 397.866 351.8236 397.0956 351.7274 C 396.2596 351.6233 395.5186 351.086 394.833 350.5961 C 394.1825 350.1312 393.7017 349.4637 393.1361 348.8992 C 392.5704 348.3347 392.0048 347.7668 391.4392 347.2023 C 390.8735 346.6378 390.2626 346.1117 389.7422 345.5054 C 389.1291 344.7904 388.6585 343.9578 388.0453 343.2428 C 387.5249 342.6364 387.0374 341.4079 386.3484 341.5459 C 385.6232 341.6907 385.9185 343.3412 385.2171 343.8084 C 384.5904 344.2259 383.5813 344.2259 382.9546 343.8084 C 382.2532 343.3412 382.2 342.2993 381.8233 341.5459 C 381.4466 340.7924 381.2576 339.2833 380.692 339.2833 C 380.1264 339.2833 380.0506 340.8603 379.5607 341.5459 C 379.0958 342.1964 378.4294 342.6783 377.8638 343.2428 C 377.2981 343.8073 376.7325 344.3752 376.1669 344.9397 C 375.6012 345.5042 375.1634 346.2407 374.4699 346.6366 C 373.7957 347.0224 372.9348 346.9296 372.2074 347.2023 C 371.4189 347.4975 370.6587 347.8867 369.9448 348.3336 C 369.1461 348.8325 368.4357 349.466 367.6823 350.0305 C 367.4945 350.1719 367.6823 350.0305 367.6823 350.0305 "/>
  <path id="ID0.9742986303754151" fill="none" stroke="#1F1F1F" stroke-width="2.2625632286071777" stroke-linecap="round" d="M 372.2074 338.7177 C 372.2074 338.7177 370.6191 338.8975 369.9448 339.2833 C 369.2513 339.6793 368.8135 340.4157 368.2479 340.9802 C 367.6823 341.5447 367.0159 342.0267 366.551 342.6771 C 366.0611 343.3627 365.9095 344.2542 365.4197 344.9397 C 364.9547 345.5902 364.2884 346.0721 363.7228 346.6366 C 363.1571 347.2011 362.665 347.8539 362.0258 348.3336 C 361.8663 348.4535 361.4602 348.3336 361.4602 348.3336 "/>
  <path id="ID0.545967401470989" fill="none" stroke="#1F1F1F" stroke-width="2.2625632286071777" stroke-linecap="round" d="M 679.3503 546.8735 C 679.3503 546.8735 679.063 549.1394 678.2191 549.7017 C 677.5731 550.1327 676.6228 548.7367 675.9565 549.136 C 675.2902 549.5354 675.7981 551.3986 675.3909 551.3986 C 674.9497 551.3986 674.4598 549.136 674.2596 549.136 C 674.0593 549.136 674.8162 550.9812 674.2596 551.3986 C 673.6849 551.8296 672.4823 551.4393 671.997 550.833 C 671.5264 550.2447 672.5298 549.1032 671.997 548.5704 C 671.4642 548.0376 670.3227 549.041 669.7344 548.5704 C 669.1281 548.0851 669.3577 547.0613 669.1688 546.3078 C 668.9799 545.5544 668.8758 544.7727 668.6032 544.0453 C 668.3079 543.2568 667.6766 542.5995 667.4719 541.7827 C 667.2886 541.0519 668.0047 540.053 667.4719 539.5202 C 666.939 538.9873 665.9017 539.2238 665.2093 539.5202 C 664.4751 539.8346 664.2013 541.3551 663.5124 541.2171 C 662.7872 541.0723 662.6764 539.743 662.3811 538.9545 C 662.1085 538.2271 661.9116 537.4623 661.8155 536.6919 C 661.7216 535.9442 662.3494 534.6964 661.8155 534.4294 C 661.2182 534.1307 660.3063 535.1839 659.5529 535.5607 C 658.7995 535.9374 658.1332 536.6919 657.2903 536.6919 C 656.4475 536.6919 655.7133 536.0505 655.0278 535.5607 C 654.3773 535.0957 653.8965 534.4294 653.3309 533.8637 C 652.7652 533.2981 652.0706 532.0209 651.6339 532.1668 C 651.2222 532.3037 652.0514 533.8027 651.6339 534.4294 C 651.1667 535.1308 650.1701 535.2948 649.3714 535.5607 C 649.0139 535.6794 648.2401 535.5607 648.2401 535.5607 "/>
  <path id="ID0.01610897947102785" fill="none" stroke="#1F1F1F" stroke-width="2.2625632286071777" stroke-linecap="round" d="M 619.9581 487.4812 C 619.9581 487.4812 621.6075 488.4631 622.2206 489.1781 C 622.7693 489.8173 623.4209 491.3717 623.3519 491.4407 C 623.2829 491.5097 622.3485 490.1397 621.655 489.7438 C 620.9807 489.358 619.5055 488.9507 619.3924 489.1781 C 619.2793 489.4055 620.5689 490.2687 621.0893 490.875 C 621.7025 491.59 622.7863 492.1952 622.7863 493.1376 C 622.7863 493.9363 621.655 494.2689 621.0893 494.8345 C 620.5237 495.4002 619.7069 495.7972 619.3924 496.5314 C 619.096 497.2238 619.2091 498.0632 619.3924 498.794 C 619.5972 499.6108 620.2284 500.2681 620.5237 501.0566 C 620.7963 501.784 620.9004 502.5657 621.0893 503.3191 C 621.2783 504.0726 621.4095 504.8452 621.655 505.5817 C 621.7885 505.981 622.2206 506.713 622.2206 506.713 "/>
  <path id="ID0.9534135041758418" fill="none" stroke="#1F1F1F" stroke-width="2.2625632286071777" stroke-linecap="round" d="M 627.3114 499.9253 C 627.3114 499.9253 627.6802 505.6632 628.4427 508.4099 C 628.6565 509.1803 629.6746 509.4563 630.1396 510.1068 C 630.6294 510.7924 630.7448 511.7121 631.2709 512.3694 C 632.2698 513.6172 633.5346 514.6331 634.6647 515.7632 C 634.9475 516.0461 635.2304 516.3289 635.2304 516.3289 "/>
  <path id="ID0.1659815744496882" fill="none" stroke="#3B4549" stroke-width="2.2625632286071777" stroke-linecap="round" d="M 842.8205 657.7391 C 842.8205 657.7391 841.6225 656.2752 841.1236 655.4765 C 840.6768 654.7627 840.541 653.8531 839.9923 653.214 C 839.3792 652.499 838.4391 652.137 837.7298 651.517 C 836.9277 650.8156 836.2693 649.9559 835.4672 649.2545 C 834.7579 648.6345 834.0033 648.0564 833.2046 647.5575 C 832.4908 647.1107 831.6276 646.9161 830.9421 646.4263 C 830.2916 645.9613 829.9194 645.1581 829.2452 644.7293 C 827.8243 643.8243 826.1488 643.3594 824.72 642.4668 C 823.1227 641.469 821.7436 640.1454 820.1949 639.0729 C 819.2921 638.4473 818.3079 637.9417 817.3667 637.376 C 816.4255 636.8104 815.5204 636.1701 814.5385 635.6791 C 813.6312 635.2254 812.6572 634.9121 811.7103 634.5478 C 810.2079 633.9697 808.6242 633.5704 807.1852 632.8509 C 806.3424 632.43 805.7213 631.6529 804.9226 631.154 C 804.2088 630.7071 803.4135 630.3994 802.66 630.0227 C 801.9066 629.646 801.1837 629.1935 800.3975 628.8914 C 798.73 628.25 797.0025 627.7601 795.3067 627.1945 C 794.8825 627.0531 795.3067 627.1945 795.3067 627.1945 "/>
  <path id="ID0.5334842689335346" fill="none" stroke="#3B4549" stroke-width="2.2625632286071777" stroke-linecap="round" d="M 814.5385 658.3047 C 814.5385 658.3047 811.8234 656.9132 810.579 656.0422 C 809.924 655.584 809.5597 654.7683 808.8821 654.3452 C 808.0223 653.8079 806.8978 653.7762 806.0539 653.214 C 805.167 652.6234 804.5447 651.7048 803.7913 650.9514 C 803.2268 650.3857 802.7449 649.7194 802.0944 649.2545 C 801.4088 648.7646 800.5174 648.613 799.8318 648.1232 C 799.1813 647.6582 798.7854 646.8912 798.1349 646.4263 C 797.4494 645.9364 796.5466 645.8007 795.8723 645.295 C 795.0205 644.6558 794.4503 643.6863 793.6098 643.0324 C 792.7432 642.3582 791.6606 641.995 790.7816 641.3355 C 790.1424 640.8558 789.691 640.159 789.0847 639.6386 C 788.3697 639.0254 787.5755 638.5073 786.8221 637.9417 C 786.0687 637.376 785.2745 636.8579 784.5595 636.2447 C 783.9532 635.7243 783.5131 635.0128 782.8626 634.5478 C 782.177 634.058 781.2743 633.9222 780.6 633.4165 C 778.9981 632.2151 777.5886 630.7682 776.0749 629.457 C 774.7626 628.3201 773.5194 627.0847 772.1154 626.0632 C 771.4344 625.5677 770.5384 625.4218 769.8529 624.9319 C 769.2024 624.467 768.8064 623.6999 768.1559 623.235 C 767.4704 622.7451 766.6208 622.5279 765.8934 622.1037 C 764.3582 621.2089 762.9577 620.0697 761.3683 619.2755 C 760.6736 618.9282 759.1057 618.7099 759.1057 618.7099 "/>
  <path id="ID0.7959483140148222" fill="none" stroke="#3B4549" stroke-width="2.2625632286071777" stroke-linecap="round" d="M 782.297 660.5673 C 782.297 660.5673 781.1646 659.0582 780.6 658.3047 C 780.0355 657.5513 779.402 656.8408 778.9031 656.0422 C 778.4563 655.3283 778.2617 654.4652 777.7718 653.7796 C 777.3069 653.1291 776.5546 652.7218 776.0749 652.0827 C 775.4154 651.2037 775.0737 650.1041 774.378 649.2545 C 773.3655 648.018 772.0532 647.0485 770.9841 645.8606 C 770.354 645.1604 769.9128 644.3017 769.2872 643.5981 C 768.4026 642.6025 767.4002 641.7111 766.459 640.7699 C 764.5754 638.8863 762.6862 636.997 760.8026 635.1134 C 760.2381 634.5478 759.7449 633.8962 759.1057 633.4165 C 758.9462 633.2966 758.5401 633.4165 758.5401 633.4165 "/>
  <path id="ID0.8135135504417121" fill="none" stroke="#3B4549" stroke-width="2.2625632286071777" stroke-linecap="round" d="M 748.3585 658.3047 C 748.3585 658.3047 748.1379 656.3725 747.7929 655.4765 C 747.1876 653.904 746.3788 652.4062 745.5303 650.9514 C 745.0563 650.138 744.399 649.4423 743.8334 648.6888 C 743.2677 647.9354 742.7021 647.1797 742.1365 646.4263 C 741.5708 645.6728 741.1364 644.7972 740.4395 644.1637 C 739.0458 642.8967 737.3444 641.9962 735.9144 640.7699 C 734.7006 639.7302 733.8295 638.2923 732.5206 637.376 C 731.8848 636.9303 730.9323 637.1961 730.258 636.8104 C 729.5645 636.4144 729.1267 635.6791 728.5611 635.1134 C 728.4197 634.972 728.5611 635.1134 728.5611 635.1134 "/>
  <path id="ID0.7275845436379313" fill="none" stroke="#3B4549" stroke-width="2.2625632286071777" stroke-linecap="round" d="M 739.3083 652.0827 C 739.3083 652.0827 739.7676 654.6054 739.3083 654.9109 C 738.9191 655.1711 738.2618 653.6789 737.6113 653.214 C 736.9258 652.7241 736.0343 652.5725 735.3488 652.0827 C 734.6983 651.6177 734.2582 650.9061 733.6519 650.3857 C 732.9369 649.7726 732.2321 649.1097 731.3893 648.6888 C 730.6947 648.3415 729.801 648.509 729.1267 648.1232 C 728.4333 647.7272 728.0803 646.8912 727.4298 646.4263 C 726.7443 645.9364 725.8528 645.7848 725.1672 645.295 C 724.5168 644.83 724.1095 644.0777 723.4703 643.5981 C 722.5913 642.9385 721.5211 642.5607 720.6421 641.9011 C 720.0029 641.4215 719.5108 640.7699 718.9452 640.2042 C 718.7563 640.0164 718.3796 639.6386 718.3796 639.6386 "/>
  <path id="ID0.7915392830036581" fill="none" stroke="#3B4549" stroke-width="2.2625632286071777" stroke-linecap="round" d="M 715.5513 641.3355 C 715.5513 641.3355 715.5513 648.6888 715.5513 648.6888 "/>
  <path id="ID0.5059722671285272" fill="none" stroke="#3B4549" stroke-width="2.2625632286071777" stroke-linecap="round" d="M 786.8221 623.8006 C 786.8221 623.8006 783.3977 624.4421 781.7313 624.9319 C 780.1871 625.3856 778.7221 626.0881 777.2062 626.6288 C 776.084 627.0293 774.9323 627.3529 773.8124 627.7601 C 772.8587 628.1063 771.974 628.6708 770.9841 628.8914 C 770.2488 629.0543 769.466 628.7771 768.7216 628.8914 C 767.0054 629.155 765.3504 629.7772 763.6308 630.0227 C 762.6986 630.1562 761.7337 629.879 760.8026 630.0227 C 759.2675 630.2591 757.8126 630.9175 756.2775 631.154 C 755.3464 631.2976 754.386 631.0601 753.4493 631.154 C 752.4934 631.249 751.5759 631.6133 750.6211 631.7196 C 749.8722 631.8033 749.104 631.6133 748.3585 631.7196 C 746.4568 631.9911 744.6128 632.6495 742.7021 632.8509 C 741.0165 633.0285 739.3015 632.7208 737.6113 632.8509 C 736.8375 632.9108 736.1192 633.3204 735.3488 633.4165 C 733.0987 633.6982 730.8067 633.6609 728.5611 633.9822 C 724.2079 634.6044 715.5513 636.2447 715.5513 636.2447 "/>
  <path id="ID0.3308943076990545" fill="none" stroke="#3B4549" stroke-width="2.2625632286071777" stroke-linecap="round" d="M 805.4882 636.8104 C 805.4882 636.8104 799.7934 636.8907 797.0036 637.376 C 795.4176 637.652 794.0397 638.6826 792.4785 639.0729 C 791.7477 639.2562 790.9467 638.8897 790.2159 639.0729 C 789.3992 639.2777 788.7577 639.9531 787.9534 640.2042 C 785.7293 640.8988 783.4339 641.3672 781.1657 641.9011 C 780.2312 642.1206 779.2289 642.1104 778.3375 642.4668 C 777.3182 642.8752 776.5512 643.8164 775.5093 644.1637 C 773.6868 644.7712 771.7093 644.7995 769.8529 645.295 C 768.8732 645.5563 767.9964 646.1344 767.0247 646.4263 C 766.1049 646.7023 765.1173 646.7204 764.1965 646.9919 C 761.9113 647.6639 759.6996 648.5995 757.4088 649.2545 C 755.739 649.7319 753.9957 649.9378 752.318 650.3857 C 751.1675 650.6923 750.0306 651.0747 748.9242 651.517 C 748.1424 651.8304 747.4784 652.4436 746.6616 652.6483 C 745.9308 652.8316 745.1298 652.465 744.399 652.6483 C 743.5822 652.8531 743.2101 653.4617 742.1365 653.7796 C 737.8433 655.0512 729.1267 657.1734 729.1267 657.1734 "/>
  <path id="ID0.9816788625903428" fill="none" stroke="#3B4549" stroke-width="2.2625632286071777" stroke-linecap="round" d="M 711.0262 623.8006 C 711.0262 623.8006 709.5623 624.6661 708.7637 624.9319 C 707.2896 625.4229 705.7047 625.5496 704.2385 626.0632 C 701.9273 626.8721 699.7734 628.1176 697.4508 628.8914 C 695.2403 629.6279 692.8986 629.931 690.6632 630.5883 C 689.6903 630.8745 688.7977 631.3983 687.835 631.7196 C 687.0985 631.9651 686.3428 632.1891 685.5724 632.2852 C 684.8246 632.3791 684.0406 632.102 683.3098 632.2852 C 682.493 632.49 681.8165 633.0749 681.0473 633.4165 C 680.1207 633.8283 679.1908 634.2559 678.2191 634.5478 C 677.2993 634.8238 676.3106 634.8374 675.3909 635.1134 C 674.4191 635.4053 673.5254 635.9234 672.5626 636.2447 C 670.1327 637.0547 667.6393 637.6973 665.2093 638.5073 C 664.6018 638.7098 664.078 639.0729 664.078 639.0729 "/>
  <path id="ID0.5959833641536534" fill="none" stroke="#3B4549" stroke-width="2.2625632286071777" stroke-linecap="round" d="M 697.4508 640.2042 C 697.4508 640.2042 695.1747 640.5164 694.057 640.7699 C 691.0274 641.4588 685.0067 643.0324 685.0067 643.0324 "/>
  <path id="ID0.655509399715811" fill="none" stroke="#3B4549" stroke-width="2.2625632286071777" stroke-linecap="round" d="M 687.835 627.1945 C 687.835 627.1945 688.5341 629.1052 688.9662 630.0227 C 690.0421 632.309 691.1779 634.5772 692.3601 636.8104 C 692.8737 637.781 693.5366 638.6713 694.057 639.6386 C 694.8557 641.1217 695.4711 642.7089 696.3196 644.1637 C 696.7936 644.9771 697.6273 645.5688 698.0165 646.4263 C 698.5844 647.6741 699.1478 650.3857 699.1478 650.3857 "/>
  <path id="ID0.5218769600614905" fill="none" stroke="#3B4549" stroke-width="2.2625632286071777" stroke-linecap="round" d="M 675.3909 630.0227 C 675.3909 630.0227 674.8987 631.8938 674.8252 632.8509 C 674.7098 634.3532 674.8252 635.8691 674.8252 637.376 C 674.8252 638.1294 674.6419 638.9078 674.8252 639.6386 C 675.4033 641.9498 676.4033 644.1445 677.0878 646.4263 C 677.5346 647.9139 677.9147 649.4287 678.2191 650.9514 C 678.2949 651.3326 678.2191 652.0827 678.2191 652.0827 "/>
  <path id="ID0.593637797050178" fill="none" stroke="#3B4549" stroke-width="2.2625632286071777" stroke-linecap="round" d="M 741.5708 619.2755 C 741.5708 619.2755 741.8333 621.193 742.1365 622.1037 C 742.4023 622.9024 742.7779 623.6807 743.2677 624.3663 C 743.7327 625.0168 744.3142 625.5982 744.9647 626.0632 C 745.6502 626.553 746.5847 626.6503 747.2272 627.1945 C 749.0576 628.7432 750.6222 630.5906 752.318 632.2852 C 752.8825 632.8509 753.5624 633.3238 754.0149 633.9822 C 755.644 636.3511 757.195 638.7946 758.5401 641.3355 C 758.9032 642.0222 758.8331 642.8706 759.1057 643.5981 C 759.401 644.3866 760.0051 645.0506 760.237 645.8606 C 760.392 646.4036 760.237 647.5575 760.237 647.5575 "/>
  <path id="ID0.740105445496738" fill="none" stroke="#3B4549" stroke-width="2.2625632286071777" stroke-linecap="round" d="M 816.2354 622.6693 C 816.2354 622.6693 817.964 625.0858 819.0636 626.0632 C 819.6937 626.6232 820.6406 626.7046 821.3262 627.1945 C 821.9767 627.6594 822.4292 628.3563 823.0231 628.8914 C 824.3139 630.0532 825.5379 631.3225 826.9826 632.2852 C 828.3842 633.2197 830.0868 633.6428 831.5077 634.5478 C 832.182 634.9766 832.5542 635.7798 833.2046 636.2447 C 833.8902 636.7346 834.7816 636.8862 835.4672 637.376 C 836.1177 637.841 836.6528 638.4586 837.1641 639.0729 C 837.5985 639.5945 838.2954 640.7699 838.2954 640.7699 "/>
  <path id="ID0.635040289722383" fill="none" stroke="#3B4549" stroke-width="2.2625632286071777" stroke-linecap="round" d="M 725.7329 618.7099 C 725.7329 618.7099 726.3212 622.8967 726.8642 624.9319 C 727.0814 625.7453 727.6187 626.441 727.9954 627.1945 C 728.3722 627.9479 728.6369 628.7715 729.1267 629.457 C 729.5917 630.1075 730.3033 630.5476 730.8237 631.154 C 731.4368 631.8689 731.9074 632.7016 732.5206 633.4165 C 733.041 634.0229 733.7525 634.463 734.2175 635.1134 C 734.7073 635.799 734.7526 636.7798 735.3488 637.376 C 735.945 637.9722 736.9258 638.0174 737.6113 638.5073 C 738.2618 638.9722 738.7426 639.6386 739.3083 640.2042 C 739.8739 640.7699 740.4395 641.3355 741.0052 641.9011 C 741.5708 642.4668 742.2224 642.9589 742.7021 643.5981 C 742.822 643.7576 742.7021 644.1637 742.7021 644.1637 "/>
  <path id="ID0.7333401665091515" fill="none" stroke="#3B4549" stroke-width="2.2625632286071777" stroke-linecap="round" d="M 656.1591 624.9319 C 656.1591 624.9319 649.7062 626.2906 646.5432 627.1945 C 645.7332 627.4264 645.0793 628.0599 644.2806 628.3258 C 642.8065 628.8167 641.2872 629.2014 639.7555 629.457 C 639.0122 629.5803 637.4929 629.457 637.4929 629.457 "/>
  <path id="ID0.41423711460083723" fill="none" stroke="#3B4549" stroke-width="2.2625632286071777" stroke-linecap="round" d="M 621.655 627.1945 C 621.655 627.1945 619.7985 628.0339 618.8268 628.3258 C 617.907 628.6018 616.9364 628.6832 615.9986 628.8914 C 615.2406 629.06 614.4894 629.2692 613.736 629.457 C 612.9826 629.6448 612.2009 629.75 611.4734 630.0227 C 610.6849 630.3179 610.0277 630.9492 609.2109 631.154 C 608.4801 631.3372 607.6916 631.0307 606.9483 631.154 C 606.5331 631.223 605.817 631.7196 605.817 631.7196 "/>
  <path id="ID0.443627430126071" fill="none" stroke="#3B4549" stroke-width="2.2625632286071777" stroke-linecap="round" d="M 649.937 633.4165 C 649.937 633.4165 648.2876 632.4346 647.6745 631.7196 C 647.1258 631.0804 647.033 630.1426 646.5432 629.457 C 646.0782 628.8066 645.2422 628.4536 644.8462 627.7601 C 644.4605 627.0859 644.4695 626.251 644.2806 625.4976 C 644.2331 625.3098 644.2806 625.4976 644.2806 625.4976 "/>
  <path id="ID0.3989587347023189" fill="none" stroke="#3B4549" stroke-width="2.2625632286071777" stroke-linecap="round" d="M 619.9581 638.5073 C 619.9581 638.5073 619.2035 636.9982 618.8268 636.2447 C 617.6966 633.9844 616.3956 631.7943 615.4329 629.457 C 615.0675 628.569 614.8673 626.6288 614.8673 626.6288 "/>
  <path id="ID0.8905270057730377" fill="url(#grad_1-.7427428960800171,0.8532640933990479,-1.9332869052886963,1.6828728914260864,911.65,-36.6)" stroke="none" d="M 393.5291 414.4099 L 750.0457 823.9767 L 572.1833 978.801 L 215.6667 569.2342 L 393.5291 414.4099 Z " stroke-width="1.981083800551981"/>
  <path id="ID0.8905270057730377" fill="url(#grad_2-0.7427429556846619,0.8532640933990479,1.9332869052886963,1.6828728914260864,399.4,-65)" stroke="none" d="M 917.5209 386.0099 L 561.0043 795.5767 L 738.8667 950.401 L 1095.3833 540.8342 L 917.5209 386.0099 Z " stroke-width="1.9810838117253888"/>
</svg>