<svg xmlns="http://www.w3.org/2000/svg" xmlns:xlink="http://www.w3.org/1999/xlink" version="1.1" width="113.98635715910153" height="335.5448440975781" viewBox="2.355723645943622 -0.6115762922582825 113.98635715910153 335.5448440975781">
  <defs>
    <linearGradient id="grad_1" y2="1" x2="0">
      <stop offset="0" stop-color="#222325" stop-opacity="1"/>
      <stop offset="1" stop-color="#2E3034" stop-opacity="1"/>
    </linearGradient>
  </defs>
  <!-- Exported by Scratch - http://scratch.mit.edu/ -->
  <g id="ID0.9602425838820636">
    <g id="ID0.17693647183477879">
      <path id="ID0.7729651997797191" fill="#393C40" stroke="none" stroke-linecap="round" d="M 101.8865 101.536 L 82.6736 103.4794 L 86.8261 119.4855 L 90.075 132.4102 L 93.9909 137.7085 L 97.4315 140.8825 L 109.3599 137.0891 L 110.4944 131.3925 L 104.4734 112.5388 L 101.8865 101.536 Z " stroke-width="0.77880996798113"/>
      <path id="ID0.9716172609478235" fill="#34373A" stroke="none" stroke-linecap="round" d="M 98.142 107.2599 L 102.7201 104.815 L 100.6794 98.6617 L 83.8938 108.6135 L 86.8891 111.3767 L 92.2139 112.9549 L 98.142 107.2599 Z " stroke-width="0.77880996798113"/>
      <g id="ID0.38066427363082767">
        <path id="ID0.4757494777441025" fill="#1D1E1F" stroke="none" stroke-linecap="round" d="M 91.904 78.171 L 83.653 76.458 L 68.6375 81.7223 L 77.4443 105.6861 L 87.5069 110.0534 L 91.8593 110.9007 L 94.8311 108.5082 L 97.4397 105.5621 L 102.785 102.8466 L 102.6881 97.6232 L 101.6965 89.9357 L 98.3131 82.1173 L 91.904 78.171 Z " stroke-width="0.45418608117187714"/>
        <path id="ID0.6007084371522069" fill="none" stroke="#0D0D0D" stroke-width="0.9083721623437543" stroke-linecap="round" d="M 102.3448 103.2053 L 97.5532 105.5575 L 93.6106 109.2392 L 91.8639 111.0142 L 87.5069 110.0534 L 83.2222 108.0669 "/>
      </g>
    </g>
    <g id="ID0.7397577832452953">
      <path id="ID0.6726378230378032" fill="#34373A" stroke="none" stroke-linecap="round" d="M 109.651 128.6924 L 94.5523 137.9526 L 95.4182 140.1002 L 110.1216 130.6999 L 109.651 128.6924 Z " stroke-width="0.77880996798113"/>
      <path id="ID0.6507829907350242" fill="#1D1E1F" stroke="none" stroke-linecap="round" d="M 112.9529 129.5396 L 95.2523 139.996 L 96.3705 158.073 L 98.7236 168.1109 L 99.343 183.4799 L 99.0102 189.7288 L 110.5667 191.2117 L 110.5104 184.9785 L 111.885 175.5698 L 114.1304 163.5928 L 115.5128 154.3786 L 112.9529 129.5396 Z " stroke-width="0.77880996798113"/>
      <path id="ID0.6829322893172503" fill="#1D1E1F" stroke="none" stroke-linecap="round" d="M 110.9401 190.807 L 100.8224 186.3432 L 97.9213 191.7213 L 94.2578 197.5199 L 94.4773 202.9672 L 95.2413 207.4182 L 97.3043 210.2579 L 98.9248 216.623 L 103.3915 216.2482 L 104.4804 214.2557 L 106.0289 213.9984 L 109.0397 211.3439 L 112.2294 208.2925 L 114.0023 203.9341 L 112.9498 197.1564 L 110.9401 190.807 Z " stroke-width="0.77880996798113"/>
      <path id="ID0.47767175547778606" fill="none" stroke="#0D0D0D" stroke-width="1.55761993596226" stroke-linecap="round" d="M 113.105 133.3138 L 112.6758 129.4339 L 95.3301 139.9929 L 96.1792 153.3261 "/>
      <path id="ID0.5922487881034613" fill="#282A2B" stroke="none" stroke-linecap="round" d="M 115.0958 162.005 L 108.1482 156.9068 L 102.315 157.2198 L 96.6297 163.1388 L 98.567 177.3635 L 103.3316 184.3814 L 106.6389 184.2481 L 112.193 177.0093 L 115.0958 162.005 Z " stroke-width="0.77880996798113"/>
      <path id="ID0.36820242274552584" fill="#151616" stroke="none" stroke-linecap="round" d="M 109.3502 164.8111 L 101.2541 165.0594 L 104.2642 175.9283 L 105.7007 175.7924 L 109.3502 164.8111 Z " stroke-width="0.77880996798113"/>
      <path id="ID0.13569410238415003" fill="none" stroke="#232425" stroke-width="1.55761993596226" stroke-linecap="round" d="M 110.4312 175.2776 L 105.26 182.3451 L 99.9974 175.5422 "/>
      <path id="ID0.024502143263816833" fill="none" stroke="#0D0D0D" stroke-width="1.55761993596226" stroke-linecap="round" d="M 114.7555 161.6969 L 108.5207 156.8818 L 102.7528 156.8804 L 96.9898 162.8026 L 98.175 170.939 "/>
    </g>
  </g>
  <path id="ID0.3809091211296618" fill="#393D40" stroke="none" stroke-linecap="round" d="M 62.6346 181.198 L 89.4428 171.4101 L 88.9893 210.2011 L 87.0391 220.9718 L 80.1278 238.2526 L 71.2932 240.0695 L 58.2761 240.1475 L 60.2856 219.4251 L 63.1384 208.3287 L 62.6346 181.198 Z " stroke-width="0.730588994152305"/>
  <path id="ID0.3809091211296618" fill="#3E4246" stroke="none" stroke-linecap="round" d="M 37.4213 157.0843 L 63.5067 163.1221 L 77.6538 199.2442 L 79.8912 209.9589 L 79.9754 228.5703 L 72.4697 233.572 L 60.4347 238.5327 L 53.5437 217.88 L 48.0536 205.6388 L 37.4213 157.0843 Z " stroke-width="0.7305889296731991"/>
  <g id="ID0.17693647183477879">
    <path id="ID0.7729651997797191" fill="#3E4246" stroke="none" stroke-linecap="round" d="M 17.3958 101.209 L 37.5789 102.784 L 33.6115 119.6592 L 30.5172 133.2833 L 26.5405 138.9304 L 23.0108 142.3397 L 10.4178 138.6508 L 9.0919 132.7075 L 14.9491 112.8029 L 17.3958 101.209 Z " stroke-width="0.8164595546679024"/>
    <path id="ID0.9716172609478235" fill="#393C40" stroke="none" stroke-linecap="round" d="M 21.4579 107.118 L 16.6009 104.6657 L 18.5918 98.1676 L 36.4235 108.1942 L 33.3506 111.1623 L 27.8078 112.9443 L 21.4579 107.118 Z " stroke-width="0.8164595546679024"/>
    <g id="ID0.38066427363082767">
      <path id="ID0.4757494777441025" fill="#1D1E1F" stroke="none" stroke-linecap="round" d="M 27.1111 76.4729 L 35.7175 74.4792 L 51.5813 79.6356 L 42.9273 104.963 L 32.486 109.7821 L 27.9447 110.7748 L 24.7726 108.3387 L 21.9677 105.3137 L 16.3003 102.5962 L 16.2763 97.1193 L 17.1308 89.0385 L 20.4887 80.763 L 27.1111 76.4729 Z " stroke-width="0.4761425273067862"/>
      <path id="ID0.6007084371522069" fill="none" stroke="#0D0D0D" stroke-width="0.9522850546135724" stroke-linecap="round" d="M 16.7702 102.9615 L 21.8487 105.3116 L 26.0694 109.0755 L 27.9427 110.8938 L 32.486 109.7821 L 36.9289 107.5971 "/>
    </g>
  </g>
  <g id="ID0.7397577832452953">
    <path id="ID0.6726378230378032" fill="#393C40" stroke="none" stroke-linecap="round" d="M 10.512 129.3422 L 25.9763 139.6207 L 24.987 141.8375 L 9.9423 131.4275 L 10.512 129.3422 Z " stroke-width="0.8164595818006515"/>
    <path id="ID0.6507829907350242" fill="#1D1E1F" stroke="none" stroke-linecap="round" d="M 7.1276 130.2594 L 25.272 141.8904 L 23.4096 160.7859 L 20.5608 171.2122 L 19.3246 187.2898 L 19.4344 193.8492 L 7.2705 194.9611 L 7.5678 188.433 L 6.4873 178.5235 L 4.5926 165.89 L 3.4965 156.184 L 7.1276 130.2594 Z " stroke-width="0.8164595818006515"/>
    <path id="ID0.6829322893172503" fill="#1D1E1F" stroke="none" stroke-linecap="round" d="M 6.8948 194.5228 L 17.6652 190.233 L 20.499 195.9782 L 24.1154 202.1931 L 23.6773 207.8915 L 22.7068 212.5254 L 20.437 215.4216 L 18.496 222.0281 L 13.8308 221.4646 L 12.7662 219.3356 L 11.1537 219.0069 L 8.1009 216.1108 L 4.8759 212.7921 L 3.185 208.1583 L 4.5468 201.0979 L 6.8948 194.5228 Z " stroke-width="0.8164595818006515"/>
    <path id="ID0.47767175547778606" fill="none" stroke="#0D0D0D" stroke-width="1.632919163601303" stroke-linecap="round" d="M 6.824 134.2076 L 7.4219 130.1592 L 25.1906 141.8842 L 23.7915 155.8202 "/>
    <path id="ID0.5922487881034613" fill="#282A2B" stroke="none" stroke-linecap="round" d="M 3.4637 164.0928 L 10.9372 159.0172 L 17.0363 159.5681 L 22.7662 165.9864 L 20.193 180.8148 L 14.9332 187.9849 L 11.4735 187.7189 L 5.9314 179.9229 L 3.4637 164.0928 Z " stroke-width="0.8164595818006515"/>
    <path id="ID0.36820242274552584" fill="#151616" stroke="none" stroke-linecap="round" d="M 9.594 167.2577 L 18.0664 167.8273 L 14.4975 179.0989 L 12.9977 178.9017 L 9.594 167.2577 Z " stroke-width="0.8164595818006515"/>
    <path id="ID0.13569410238415003" fill="none" stroke="#232425" stroke-width="1.632919163601303" stroke-linecap="round" d="M 8.0214 178.273 L 13.169 185.8748 L 18.9423 178.9489 "/>
    <path id="ID0.024502143263816833" fill="none" stroke="#0D0D0D" stroke-width="1.632919163601303" stroke-linecap="round" d="M 4.0102 163.88 L 10.726 159.0737 L 16.7688 159.2927 L 22.5801 165.7173 L 21.0274 174.196 "/>
  </g>
  <g id="ID0.9157347986474633">
    <path id="ID0.7477802094072104" fill="#363A3D" stroke="none" stroke-linecap="round" d="M 94.1154 124.4715 L 74.6382 120.9715 L 73.7831 162.1489 L 90.2591 171.4206 L 93.0532 146.952 L 94.1154 124.4715 Z " stroke-width="0.47614257300029306"/>
    <path id="ID0.7477802094072104" fill="#363A3D" stroke="none" stroke-linecap="round" d="M 33.7831 123.2358 L 57.2874 120.8664 L 56.4323 162.0439 L 39.5855 170.6236 L 34.6325 145.3988 L 33.7831 123.2358 Z " stroke-width="0.47614257300029306"/>
    <path id="ID0.4270821204409003" fill="#3E4246" stroke="none" stroke-linecap="round" d="M 34.5179 103.1385 L 38.5858 90.7215 L 40.968 84.937 L 47.6594 78.0513 L 78.6913 80.1245 L 85.505 84.5522 L 88.2772 88.6578 L 95.0615 100.2286 L 94.13 110.6866 L 93.0642 116.1413 L 94.587 123.0785 L 94.9494 128.5629 L 92.6639 135.421 L 90.9366 140.6238 L 89.5537 149.8818 L 90.5985 171.8108 L 85.2868 179.9158 L 80.3736 186.0287 L 68.1457 191.204 L 56.6169 187.9404 L 52.8289 181.1467 L 48.0115 174.6174 L 39.5309 171.3457 L 38.9148 145.9728 L 37.8631 139.2835 L 33.5303 127.7637 L 32.4461 116.9066 L 34.5179 103.1385 Z " stroke-width="0.47614257300029306"/>
    <path id="ID0.052435632329434156" fill="#393C40" stroke="none" stroke-linecap="round" d="M 45.6176 153.3064 L 50.0676 153.4464 L 56.5926 156.868 L 61.6659 156.8067 L 67.5079 158.7139 L 71.7193 157.7298 L 73.3953 157.2884 L 87.6758 154.1797 L 87.9646 157.4718 L 79.3094 161.4592 L 73.3653 161.0263 L 67.7086 163.9568 L 61.1172 160.2957 L 54.6817 160.5907 L 44.883 156.5772 L 45.6176 153.3064 Z " stroke-width="0.47614257300029306"/>
    <path id="ID0.4987568911164999" fill="none" stroke="#27282B" stroke-width="0.9522851460005861" stroke-linecap="round" d="M 47.4282 78.7223 L 40.8732 84.7774 L 37.3333 94.705 "/>
    <path id="ID0.2889464790932834" fill="none" stroke="#27282B" stroke-width="0.9522851460005861" stroke-linecap="round" d="M 80.0073 80.8276 L 85.6407 84.7545 L 91.1604 94.1559 "/>
    <path id="ID0.8373676878400147" fill="#000000" stroke="#2C2F31" stroke-width="0.6155104186945868" stroke-linecap="round" d="M 50.7718 91.8289 L 51.1477 90.3053 L 47.4906 91.1437 L 42.5712 94.3904 L 38.345 99.3623 L 35.7859 104.9474 L 40.9649 102.7905 L 45.6638 102.7687 L 48.3933 103.7374 L 50.8766 106.7745 L 52.9998 105.7908 L 57.0137 105.5844 L 61.5076 106.7087 L 65.2907 109.9577 L 67.3094 113.0511 L 69.5215 110.069 L 73.2778 107.0016 L 77.42 105.6457 L 82.5766 105.7213 L 84.3974 106.3414 L 86.1518 103.2619 L 88.1315 102.0408 L 90.7243 102.6183 L 93.4998 104.2822 L 92.1302 100.4475 L 89.9186 96.4983 L 87.1278 93.4475 L 83.9954 91.1516 L 79.4947 90.1811 L 81.6416 92.125 L 81.5629 93.8928 L 79.9298 95.9766 L 76.336 97.1258 L 73.1675 97.3698 L 70.5473 97.4072 L 68.0914 93.7552 L 67.6147 95.8134 L 66.1543 95.7484 L 64.6463 93.2938 L 63.6126 97.4836 L 59.5286 97.5328 L 55.4156 96.5025 L 52.0919 95.0453 L 50.7718 91.8289 Z "/>
    <path id="ID0.5698574706912041" fill="none" stroke="#313537" stroke-width="0.9522851460005861" stroke-linecap="round" d="M 45.5497 153.1383 L 44.8879 156.3392 L 54.6792 160.7097 L 61.4702 160.4935 L 67.473 163.8328 "/>
    <path id="ID0.5698574706912041" fill="none" stroke="#313537" stroke-width="0.8933066257048137" stroke-linecap="round" d="M 87.4201 154.2278 L 87.8721 157.4518 L 79.1747 161.4384 L 73.2685 160.9586 L 67.9108 164.0619 "/>
    <path id="ID0.8947288258932531" fill="#393C40" stroke="none" stroke-linecap="round" d="M 47.1069 141.2169 L 54.131 141.2437 L 61.6367 143.3045 L 67.1869 148.9442 L 60.1848 144.4173 L 49.4575 142.6944 L 44.2773 145.611 L 47.1069 141.2169 Z " stroke-width="0.47614257300029306"/>
    <path id="ID0.8947288258932531" fill="#393C40" stroke="none" stroke-linecap="round" d="M 85.8687 143.0222 L 79.657 142.7878 L 72.9447 144.3343 L 67.8299 149.1171 L 74.1875 145.3716 L 83.7361 144.2423 L 88.2093 147.0115 L 85.8687 143.0222 Z " stroke-width="0.4213738884176943"/>
    <path id="ID0.9897695370018482" fill="#393C40" stroke="none" stroke-linecap="round" d="M 50.3037 153.5466 L 43.768 152.9346 L 44.2928 148.3021 L 45.4103 151.8257 L 50.5009 152.0743 L 56.5692 155.7007 L 62.0511 155.4574 L 66.1153 156.9705 L 67.659 149.1445 L 67.6933 158.9559 L 62.1414 156.8403 L 56.2623 156.7183 L 50.3037 153.5466 Z " stroke-width="0.47614257300029306"/>
    <path id="ID0.9897695370018482" fill="#393C40" stroke="none" stroke-linecap="round" d="M 82.6103 154.4693 L 88.155 154.1415 L 87.8823 149.8173 L 86.8083 153.0505 L 82.4979 153.0939 L 77.237 156.2401 L 72.6142 155.8119 L 69.1244 157.0682 L 68.1086 149.7389 L 67.7179 158.855 L 72.4868 157.0937 L 77.4588 157.197 L 82.6103 154.4693 Z " stroke-width="0.4232251205631144"/>
    <path id="ID0.3524594851769507" fill="#393C40" stroke="none" stroke-linecap="round" d="M 61.4472 119.0607 L 67.3046 121.3731 L 71.804 119.1329 L 68.5593 122.8755 L 69.28 134.0346 L 78.3664 133.366 L 67.867 136.7199 L 56.3014 131.7887 L 65.9468 134.013 L 65.7764 122.7225 L 61.4472 119.0607 Z " stroke-width="0.47614257300029306"/>
    <path id="ID0.9214867809787393" fill="#393C40" stroke="none" stroke-linecap="round" d="M 47.1875 137.3371 L 50.2502 133.186 L 55.0304 132.3327 L 49.1001 136.972 L 48.8012 139.8947 L 53.8463 140.0471 L 61.9436 143.4299 L 53.0098 141.3394 L 47.1545 141.2178 L 47.1875 137.3371 Z " stroke-width="0.47614257300029306"/>
    <path id="ID0.9214867809787393" fill="#393C40" stroke="none" stroke-linecap="round" d="M 85.622 138.9159 L 82.9825 134.8388 L 78.6446 133.8397 L 83.8873 138.4935 L 84.0471 141.292 L 79.428 141.2415 L 72.7251 143.9429 L 80.1427 142.5062 L 85.5015 142.6175 L 85.622 138.9159 Z " stroke-width="0.4451788453890468"/>
    <path id="ID0.8679121839813888" fill="#2C2F31" stroke="none" stroke-linecap="round" d="M 63.4241 118.0054 L 67.1988 119.703 L 70.5652 118.1299 L 71.4975 119.1017 L 67.5148 121.686 L 61.8012 119.329 L 63.4241 118.0054 Z " stroke-width="0.47614257300029306"/>
    <path id="ID0.24770551454275846" fill="none" stroke="#313537" stroke-width="0.9522851460005861" stroke-linecap="round" d="M 67.4959 116.1296 L 72.0631 119.7963 L 79.5509 120.4281 L 87.1898 119.5151 L 92.5053 115.8156 "/>
    <path id="ID0.20603158557787538" fill="none" stroke="#313537" stroke-width="0.9522851460005861" stroke-linecap="round" d="M 34.2476 111.4286 L 41.158 116.9298 L 53.4683 120.4001 L 60.7403 119.9558 L 67.0103 116.157 "/>
    <g id="ID0.5272086253389716">
      <path id="ID0.24770551454275846" fill="none" stroke="#363A3D" stroke-width="0.9522850864087884" stroke-linecap="round" d="M 36.9879 144.0256 L 46.9553 141.0655 "/>
      <path id="ID0.24770551454275846" fill="none" stroke="#363A3D" stroke-width="0.9522850864087884" stroke-linecap="round" d="M 34.6542 132.0538 L 55.2053 126.2655 "/>
    </g>
    <g id="ID0.5272086253389716">
      <path id="ID0.24770551454275846" fill="none" stroke="#363A3D" stroke-width="0.9522850864087884" stroke-linecap="round" d="M 92.4797 144.2318 L 85.5807 142.2557 "/>
      <path id="ID0.24770551454275846" fill="none" stroke="#363A3D" stroke-width="0.9522850864087884" stroke-linecap="round" d="M 93.2029 132.8424 L 79.4298 127.7945 "/>
    </g>
    <g id="ID0.7887678607366979">
      <path id="ID0.753661650698632" fill="none" stroke="#313537" stroke-width="0.9522850864087884" stroke-linecap="round" d="M 61.9207 119.1896 L 67.1078 121.6786 L 71.2085 119.1444 "/>
      <g id="ID0.8167418288066983">
        <path id="ID0.9553722990676761" fill="none" stroke="#313537" stroke-width="1.0409107743576298" stroke-linecap="round" d="M 67.4063 136.5479 L 61.8392 134.2892 L 55.706 132.2569 L 50.9163 133.1099 L 47.3201 137.3214 L 47.2484 140.7727 "/>
        <path id="ID0.5982440118677914" fill="none" stroke="#313537" stroke-width="0.8540413396238158" stroke-linecap="round" d="M 56.0334 131.8556 L 54.9532 126.5387 L 60.3362 119.5913 "/>
      </g>
      <g id="ID0.7324484633281827">
        <path id="ID0.04993448918685317" fill="none" stroke="#313537" stroke-width="0.9522850864087884" stroke-linecap="round" d="M 67.1102 121.5595 L 67.6068 132.0472 L 67.7418 148.4805 L 67.6413 164.7898 "/>
        <g id="ID0.8167418288066983">
          <path id="ID0.9553722990676761" fill="none" stroke="#313537" stroke-width="0.9699703077304642" stroke-linecap="round" d="M 67.7502 136.4275 L 72.8128 135.1754 L 78.2815 133.384 L 82.457 134.4232 L 85.4528 138.7716 L 85.3811 142.2229 "/>
          <path id="ID0.5982440118677914" fill="none" stroke="#313537" stroke-width="0.7916616152166959" stroke-linecap="round" d="M 78.0361 133.0336 L 79.1927 127.7632 L 74.7336 120.6113 "/>
          <path id="ID0.3567589442245662" fill="none" stroke="#313537" stroke-width="0.8967655150693851" stroke-linecap="round" d="M 67.6263 149.1264 L 72.8586 144.2583 L 80.2253 142.5063 L 85.7521 142.6211 L 87.8958 147.309 L 88.0431 154.3367 L 82.4805 154.9355 L 76.7638 157.9124 L 71.8491 157.5722 L 67.6031 159.3176 L 61.8142 156.6971 L 56.2197 156.819 L 49.8569 153.5913 L 43.5704 152.7464 L 44.0511 145.7318 L 46.7016 141.1434 L 52.982 141.2738 L 61.2746 143.351 L 66.9911 148.4465 Z "/>
        </g>
      </g>
    </g>
    <g id="ID0.9312638868577778">
      <path id="ID0.2888958193361759" fill="#393C40" stroke="none" stroke-linecap="round" d="M 47.9592 161.4331 L 58.1308 163.729 L 57.4755 166.6319 L 47.3039 164.3359 L 47.9592 161.4331 Z " stroke-width="0.4761425459216224"/>
      <path id="ID0.2888958193361759" fill="#393C40" stroke="none" stroke-linecap="round" d="M 37.2081 159.1286 L 48.6308 161.829 L 47.9755 164.7319 L 37.8039 162.4359 L 37.2081 159.1286 Z " stroke-width="0.4761425459216224"/>
      <g id="ID0.36424446757882833">
        <path id="ID0.7359844641759992" fill="#8A7B59" stroke="none" d="M 50.8379 160.7806 L 52.3612 160.8122 L 52.2318 167.0484 L 50.7084 167.0167 L 50.8379 160.7806 Z " stroke-width="0.4761425432043942"/>
        <path id="ID0.7359844641759992" fill="#8A7B59" stroke="none" d="M 48.9879 160.3306 L 50.5112 160.3622 L 50.3818 166.5984 L 48.8584 166.5667 L 48.9879 160.3306 Z " stroke-width="0.4761425432043942"/>
        <path id="ID0.7359844641759992" fill="#8A7B59" stroke="none" d="M 47.0379 159.6306 L 48.5612 159.6622 L 48.4318 165.8984 L 46.9084 165.8667 L 47.0379 159.6306 Z " stroke-width="0.4761425432043942"/>
        <path id="ID0.7359844641759992" fill="#8A7B59" stroke="none" d="M 52.7379 161.3306 L 54.2612 161.3622 L 54.1318 167.5984 L 52.6084 167.5667 L 52.7379 161.3306 Z " stroke-width="0.4761425432043942"/>
      </g>
      <g id="ID0.1049797898158431">
        <path id="ID0.08871637750416994" fill="#8A7B59" stroke="none" stroke-linecap="round" d="M 38.9895 158.5074 L 45.3705 159.6877 L 45.2067 165.2801 L 39.0643 164.081 L 38.9895 158.5074 Z " stroke-width="0.4761425432043942"/>
        <path id="ID0.13805592898279428" fill="#76694C" stroke="none" stroke-linecap="round" d="M 38.7978 158.2378 L 45.4882 159.4245 L 45.5236 162.3065 L 38.8114 161.0241 L 38.7978 158.2378 Z " stroke-width="0.4761425432043942"/>
        <path id="ID0.3221200187690556" fill="#61563F" stroke="none" stroke-linecap="round" d="M 41.55 160.489 L 42.4208 160.8689 L 42.4618 162.6272 L 41.5129 162.2716 L 41.55 160.489 Z " stroke-width="0.5167888865886084"/>
        <path id="ID0.1420820001512766" fill="#BAA578" stroke="none" stroke-linecap="round" d="M 44.5518 164.3318 L 45.2956 162.9185 L 45.2952 165.2283 L 39.056 164.0986 L 44.5518 164.3318 Z " stroke-width="0.4761425432043942"/>
      </g>
      <path id="ID0.2888958193361759" fill="#393C40" stroke="none" stroke-linecap="round" d="M 85.5902 162.6025 L 78.1307 164.2611 L 78.5102 166.806 L 85.9697 165.1474 L 85.5902 162.6025 Z " stroke-width="0.3810469777360591"/>
      <path id="ID0.2888958193361759" fill="#393C40" stroke="none" stroke-linecap="round" d="M 92.1651 160.9157 L 85.1307 162.7111 L 85.5102 165.256 L 91.6833 163.8204 L 92.1651 160.9157 Z " stroke-width="0.3810469777360591"/>
      <path id="ID0.7359844641759992" fill="#8A7B59" stroke="none" d="M 83.5701 161.5255 L 82.4633 161.5025 L 82.3506 166.9273 L 83.4574 166.9503 L 83.5701 161.5255 Z " stroke-width="0.3816027988624045"/>
      <path id="ID0.7359844641759992" fill="#8A7B59" stroke="none" d="M 84.9701 161.0755 L 83.8633 161.0525 L 83.7506 166.4773 L 84.8574 166.5003 L 84.9701 161.0755 Z " stroke-width="0.3816027988624045"/>
      <path id="ID0.7359844641759992" fill="#8A7B59" stroke="none" d="M 86.4701 160.6255 L 85.3633 160.6025 L 85.2506 166.0273 L 86.3574 166.0503 L 86.4701 160.6255 Z " stroke-width="0.3816027988624045"/>
      <path id="ID0.7359844641759992" fill="#8A7B59" stroke="none" d="M 82.1201 162.0755 L 81.0133 162.0525 L 80.9006 167.4773 L 82.0074 167.5003 L 82.1201 162.0755 Z " stroke-width="0.3816027988624045"/>
      <g id="ID0.1049797898158431">
        <path id="ID0.08871637750416994" fill="#8A7B59" stroke="none" stroke-linecap="round" d="M 92.4077 159.8854 L 87.4448 160.7507 L 87.3742 165.9213 L 92.1538 165.0302 L 92.4077 159.8854 Z " stroke-width="0.40545296430512573"/>
        <path id="ID0.13805592898279428" fill="#76694C" stroke="none" stroke-linecap="round" d="M 92.6523 159.6886 L 87.4505 160.549 L 87.3217 163.2094 L 92.5437 162.2614 L 92.6523 159.6886 Z " stroke-width="0.40545296430512573"/>
        <path id="ID0.3221200187690556" fill="#61563F" stroke="none" stroke-linecap="round" d="M 90.5299 161.6428 L 89.8449 161.963 L 89.7513 163.5854 L 90.4957 163.2903 L 90.5299 161.6428 Z " stroke-width="0.4400648059527854"/>
        <path id="ID0.1420820001512766" fill="#BAA578" stroke="none" stroke-linecap="round" d="M 87.9982 165.1103 L 87.4743 163.7788 L 87.3933 165.912 L 92.245 165.0884 L 87.9982 165.1103 Z " stroke-width="0.40545296430512573"/>
      </g>
      <g id="ID0.6836685389280319">
        <path id="ID0.09357938077300787" fill="#857656" stroke="none" d="M 58.7247 160.9089 L 76.6952 161.2821 L 76.5618 167.7086 L 58.5913 167.3354 L 58.7247 160.9089 Z " stroke-width="0.42833206411122815"/>
        <path id="ID0.6492703901603818" fill="#7C6E50" stroke="none" stroke-linecap="round" d="M 59.3684 163.093 L 67.5158 166.3578 L 76.4106 163.4469 L 76.3221 167.7075 L 59.2799 167.3536 L 59.3684 163.093 Z " stroke-width="0.4761425432043942"/>
        <g id="ID0.9254062357358634">
          <g id="ID0.49943465692922473">
            <path id="ID0.140373723115772" fill="#968561" stroke="none" d="M 75.1906 160.0517 L 80.308 160.1579 L 80.1202 169.2027 L 75.0028 169.0964 L 75.1906 160.0517 Z " stroke-width="0.4761425432043942"/>
            <path id="ID0.8286363878287375" fill="#BAA578" stroke="none" stroke-linecap="round" d="M 75.1728 159.8742 L 80.4043 160.221 L 76.2469 160.8966 L 75.1789 163.0176 L 75.1728 159.8742 Z " stroke-width="0.4761425432043942"/>
            <path id="ID0.7362233307212591" fill="#8A7B59" stroke="none" stroke-linecap="round" d="M 75.07 165.968 L 77.7825 166.072 L 80.2845 163.6951 L 80.1683 169.2885 L 75.0033 169.1813 L 75.07 165.968 Z " stroke-width="0.4761425432043942"/>
          </g>
          <g id="ID0.49943465692922473">
            <path id="ID0.140373723115772" fill="#968561" stroke="none" d="M 60.1483 159.9906 L 55.0309 159.8843 L 54.8431 168.9291 L 59.9605 169.0354 L 60.1483 159.9906 Z " stroke-width="0.4761425432043942"/>
            <path id="ID0.8286363878287375" fill="#BAA578" stroke="none" stroke-linecap="round" d="M 60.2093 159.8013 L 54.9679 159.9306 L 59.0936 160.7782 L 60.0726 162.9417 L 60.2093 159.8013 Z " stroke-width="0.4761425432043942"/>
            <path id="ID0.7362233307212591" fill="#8A7B59" stroke="none" stroke-linecap="round" d="M 60.0589 165.8941 L 57.3445 165.8854 L 54.9433 163.4066 L 54.8272 169.0001 L 59.9922 169.1074 L 60.0589 165.8941 Z " stroke-width="0.4761425432043942"/>
          </g>
        </g>
      </g>
    </g>
  </g>
  <path id="ID0.5368814701214433" fill="#292D2E" stroke="none" stroke-linecap="round" d="M 41.4841 320.7926 L 43.0572 311.1566 L 48.0172 299.349 L 58.7901 305.7694 L 70.0691 316.0288 L 87.5959 326.261 L 88.7154 332.7696 L 64.0259 334.104 L 42.7582 330.5714 L 41.4841 320.7926 Z " stroke-width="0.7702165872476904"/>
  <g id="ID0.9340031337924302">
    <path id="ID0.05466862628236413" fill="#292D2E" stroke="none" stroke-linecap="round" d="M 61.1691 227.9641 L 87.8717 229.3674 L 79.3965 246.8999 L 76.8652 251.5346 L 72.7339 269.2005 L 61.6376 308.4132 L 45.8988 307.1865 L 48.0905 285.0455 L 47.1047 276.0437 L 47.6456 266.5397 L 52.332 253.7009 L 54.7475 241.6188 L 61.1691 227.9641 Z " stroke-width="0.7305890671032994"/>
    <path id="ID0.4490455654449761" fill="none" stroke="#272A2B" stroke-width="1.6585525936718384" stroke-linecap="round" d="M 60.7957 228.1089 L 87.564 229.1313 L 76.1247 251.7365 "/>
    <path id="ID0.10446935473009944" fill="none" stroke="#242728" stroke-width="1.6585525936718384" stroke-linecap="round" d="M 73.3749 263.7632 L 69.9128 280.2417 L 58.1315 285.3691 "/>
    <path id="ID0.42170455446466804" fill="none" stroke="#242728" stroke-width="1.6585525936718384" stroke-linecap="round" d="M 68.6034 281.167 L 64.2221 295.6518 L 52.187 300.926 "/>
    <path id="ID0.047098892275244" fill="none" stroke="#242728" stroke-width="1.6585525936718384" stroke-linecap="round" d="M 55.0165 241.3921 L 53.7842 245.1346 L 56.4576 254.6994 "/>
  </g>
  <g id="ID0.8333355090580881">
    <path id="ID0.9286923445761204" fill="#27282B" stroke="none" stroke-linecap="round" d="M 53.863 44.1601 L 72.6707 45.6361 L 73.1468 69.9908 L 88.3834 77.1329 L 65.5285 88.4889 L 28.8656 75.9426 L 48.7445 65.3484 L 53.863 44.1601 Z " stroke-width="0.4761425852775574"/>
    <path id="ID0.5448851804248989" fill="none" stroke="#1D1E1F" stroke-width="0.9522851705551147" stroke-linecap="round" d="M 50.1729 59.5871 L 48.935 65.158 L 66.0285 73.0143 L 72.8611 70.086 "/>
    <path id="ID0.262191956397146" fill="none" stroke="#1D1E1F" stroke-width="0.9522851705551147" stroke-linecap="round" d="M 52.9346 64.539 L 65.6476 70.7288 L 68.6473 69.6099 "/>
  </g>
  <g id="ID0.3450673264451325">
    <g id="ID0.9831569031812251">
      <path id="ID0.0877610077150166" fill="#2E3034" stroke="none" stroke-linecap="round" d="M 76.7251 13.3343 L 72.1527 0.2177 L 72.1527 28.7463 L 79.8241 28.7463 L 76.7251 13.3343 Z " stroke-width="0.5866066539949776"/>
      <path id="ID0.796130308881402" fill="#242628" stroke="none" stroke-linecap="round" d="M 77.033 13.3789 L 72.105 0.2623 L 75.6613 14.1004 L 76.6012 28.9877 L 79.7764 28.6926 L 77.033 13.3789 Z " stroke-width="0.5866066539949776"/>
    </g>
    <g id="ID0.9831569031812251">
      <path id="ID0.0877610077150166" fill="#2E3034" stroke="none" stroke-linecap="round" d="M 52.8249 13.4843 L 57.3973 0.3677 L 57.3973 28.8963 L 49.7259 28.8963 L 52.8249 13.4843 Z " stroke-width="0.5866066539949776"/>
      <path id="ID0.796130308881402" fill="#242628" stroke="none" stroke-linecap="round" d="M 52.417 13.5289 L 57.345 0.4123 L 53.7887 14.2504 L 52.6964 28.8098 L 49.6736 28.8426 L 52.417 13.5289 Z " stroke-width="0.5866066539949776"/>
    </g>
    <path id="ID0.8999492498114705" fill="#2E3034" stroke="none" stroke-linecap="round" d="M 70.3733 19.3124 C 74.7775 19.7915 79.5093 22.5019 81.6416 26.3848 C 84.0745 30.8179 82.1267 36.4165 82.4265 41.412 C 82.5997 43.1155 83.3923 44.8682 83.0615 46.4924 C 82.3879 49.7962 80.7139 52.8251 79.6323 56.0181 C 78.9236 58.1107 78.7691 60.4655 77.6001 62.3686 C 76.2843 64.6212 74.9416 67.7553 72.3419 68.211 C 68.488 68.8862 64.4115 67.0451 60.9619 65.2898 C 58.1281 63.8475 55.4746 61.6355 53.9002 58.8631 C 51.0806 53.7182 48.5196 48.0582 48.134 42.1741 C 47.7067 35.6514 46.9365 27.5853 51.6902 22.8687 C 55.9425 18.3273 63.8262 18.6032 70.3733 19.3124 Z " stroke-width="0.508037269115448"/>
    <path id="ID0.2441388238221407" fill="#AB8E85" stroke="none" d="M 68.0438 44.1745 C 72.1241 44.3416 77.5631 41.1768 80.2883 43.9234 C 82.7434 46.5142 79.3753 51.3755 78.4045 54.8492 C 77.4375 58.304 76.7493 62.0426 74.5114 64.8959 C 73.4439 66.1643 71.2186 66.2359 69.488 65.9634 C 66.3761 65.4698 63.3143 64.1864 60.7198 62.3955 C 58.0348 60.5432 54.487 58.5137 53.9156 55.2887 C 53.1923 51.2035 53.8566 45.8084 57.0552 43.2327 C 59.9889 40.9834 64.3743 44.0238 68.0438 44.1745 Z " stroke-width="1.2558400630950928"/>
    <path id="ID0.46721756737679243" fill="#A2887F" stroke="none" stroke-linecap="round" d="M 53.4363 45.2953 L 55.1129 45.9812 L 81.1244 45.6001 L 73.9102 50.6805 L 57.1704 48.2165 L 58.2881 50.6043 L 58.5421 56.2181 L 62.1746 63.4068 L 57.6023 56.7261 L 53.4363 45.2953 Z " stroke-width="0.508037269115448"/>
    <path id="ID0.8256730306893587" fill="none" stroke="#937B73" stroke-width="1.016074538230896" stroke-linecap="round" d="M 64.3886 57.0778 C 64.3886 57.0778 67.0878 56.4813 68.4529 56.2903 C 68.7943 56.2425 69.1326 56.3203 69.4689 56.3665 C 69.8109 56.4138 70.1401 56.5814 70.485 56.5697 C 71.1688 56.5469 71.8379 56.3497 72.5172 56.2649 C 72.854 56.2227 73.1939 56.1846 73.5332 56.1887 C 73.8731 56.1928 74.2181 56.2131 74.5493 56.2903 C 75.0939 56.4173 76.1496 56.7983 76.1496 56.7983 "/>
    <path id="ID0.7592270169407129" fill="none" stroke="#937B73" stroke-width="1.016074538230896" stroke-linecap="round" d="M 72.9693 58.4019 C 72.9693 58.4019 72.3475 58.7468 72.004 58.8083 C 71.6708 58.8682 71.3248 58.7235 70.988 58.7575 C 70.6491 58.792 70.3351 58.9688 69.9973 59.0115 C 69.6615 59.0542 69.3109 59.0867 68.9812 59.0115 C 68.7008 58.9475 68.2192 58.6051 68.2192 58.6051 "/>
    <path id="ID0.5332203092984855" fill="none" stroke="#937B73" stroke-width="1.016074538230896" stroke-linecap="round" d="M 67.0009 48.9532 C 67.0009 48.9532 66.3954 49.385 66.2897 49.7152 C 66.1525 50.1577 65.898 51.0026 66.3405 51.3156 C 66.9212 51.6056 67.6797 50.8786 68.3726 50.9345 C 69.0433 50.9914 70.354 51.4426 70.354 51.4426 "/>
    <path id="ID0.2278452254831791" fill="none" stroke="#937B73" stroke-width="1.016074538230896" stroke-linecap="round" d="M 71.3447 45.2953 C 71.3447 45.2953 72.2789 47.1578 72.7418 48.0895 C 72.8967 48.4015 73.0674 48.7073 73.199 49.0294 C 73.3306 49.3515 73.5429 49.6726 73.5292 50.0201 C 73.5155 50.3686 73.3092 50.6907 73.1228 50.9853 C 72.9983 51.1824 72.6148 51.468 72.6148 51.468 "/>
    <path id="ID0.6473136460408568" fill="none" stroke="#937B73" stroke-width="1.016074563998663" stroke-linecap="round" d="M 71.6945 62.2247 C 71.6945 62.2247 72.0113 62.8595 72.0622 63.2041 C 72.1113 63.5396 72.0513 63.8871 71.9877 64.2203 C 71.8923 64.7223 71.5871 65.7015 71.5871 65.7015 "/>
    <path id="ID0.11669129692018032" fill="#2E3034" stroke="none" stroke-linecap="round" d="M 55.3669 39.9609 L 78.6096 41.739 L 82.5469 44.4062 L 73.1482 49.1056 L 52.4457 46.5654 L 55.3669 39.9609 Z " stroke-width="0.508037269115448"/>
    <path id="ID0.14635155349969864" fill="#2E3034" stroke="none" stroke-linecap="round" d="M 52.6997 45.2191 L 54.554 45.6001 L 57.1958 50.8075 L 57.5006 56.5737 L 59.3296 60.384 L 62.2254 63.9149 L 53.9952 58.7075 L 52.6997 45.2191 Z " stroke-width="0.508037269115448"/>
    <path id="ID0.28340246016159654" fill="#1C1D1F" stroke="none" stroke-linecap="round" d="M 55.5308 36.8008 L 58.9604 38.3401 L 68.6283 39.2313 L 68.6283 44.9834 L 61.688 44.0382 L 57.8262 42.958 L 55.8008 41.4457 L 54.9367 39.7174 L 55.5308 36.8008 Z " stroke-width="0.5401026606559753"/>
    <path id="ID0.6101007834076881" fill="#FFFFFF" stroke="none" stroke-linecap="round" d="M 59.3473 39.3334 L 61.0001 39.7332 L 64.78 40.9344 L 65.3247 42.9027 L 60.07 41.4498 L 59.3473 39.3334 Z " stroke-width="0.4061061920009203"/>
    <path id="ID0.28340246016159654" fill="#1C1D1F" stroke="none" stroke-linecap="round" d="M 81.1357 36.8586 L 78.0774 38.2313 L 69.4563 39.0259 L 69.4563 44.1553 L 75.6452 43.3124 L 79.0888 42.3492 L 80.8949 41.0006 L 81.6655 39.4594 L 81.1357 36.8586 Z " stroke-width="0.4816249907016754"/>
    <path id="ID0.6101007834076881" fill="#FFFFFF" stroke="none" stroke-linecap="round" d="M 79.4526 38.9089 L 77.9112 39.4003 L 74.4053 40.7963 L 74.0217 42.7012 L 78.9101 40.9663 L 79.4526 38.9089 Z " stroke-width="0.3863867372519633"/>
    <g id="ID0.07940126257017255">
      <path id="ID0.46257128613069654" fill="#27282B" stroke="none" stroke-linecap="round" d="M 68.8045 39.0743 L 73.1482 49.0318 L 63.1145 47.7617 L 68.8045 39.0743 Z " stroke-width="0.508037269115448"/>
      <path id="ID0.9845890481956303" fill="#27282B" stroke="none" stroke-linecap="round" d="M 69.6173 39.1989 L 77.8983 46.5654 L 73.2244 49.1056 L 69.6173 39.1989 Z " stroke-width="0.508037269115448"/>
    </g>
    <path id="ID0.20071752788498998" fill="#202324" stroke="none" d="M 60.3686 34.5018 L 64.5091 37.0673 L 69.2593 38.2358 L 69.3355 39.6329 L 61.5625 38.3628 L 55.6693 36.0259 L 57.3966 34.2477 L 60.3686 34.5018 Z " stroke-width="0.508037269115448"/>
    <path id="ID0.20071752788498998" fill="#202324" stroke="none" d="M 77.4242 34.2614 L 74.3713 36.7084 L 69.1277 38.2698 L 69.0578 39.5516 L 76.1891 38.3864 L 81.6191 36.3588 L 80.081 34.1216 L 77.4242 34.2614 Z " stroke-width="0.46609798073768616"/>
    <path id="ID0.521138689480722" fill="none" stroke="#212325" stroke-width="0.9060627222061157" stroke-linecap="round" d="M 81.2139 36.5742 L 77.9747 38.1598 L 69.4351 39.4057 "/>
    <path id="ID0.17828734638169408" fill="none" stroke="#202324" stroke-width="1.016074538230896" stroke-linecap="round" d="M 73.0466 48.5467 L 70.1254 41.3072 C 69.1245 38.8879 69.2729 39.4564 69.0839 38.4876 C 69.0179 38.1493 69.2358 37.8129 69.2871 37.4715 C 69.3374 37.1352 69.4014 36.7953 69.3887 36.4555 C 69.376 36.112 69.2769 35.7762 69.2109 35.4394 C 69.1078 34.9136 68.8807 33.8645 68.8807 33.8645 "/>
    <path id="ID0.521138689480722" fill="none" stroke="#212325" stroke-width="1.016074538230896" stroke-linecap="round" d="M 55.8068 36.3055 L 59.4392 38.0836 L 69.0157 39.4807 "/>
    <path id="ID0.8012696979567409" fill="none" stroke="url(#grad_1)" stroke-width="1.016074538230896" stroke-linecap="round" d="M 81.1244 45.1429 L 73.6562 49.0548 L 55.0621 46.7178 L 57.0434 50.5789 L 57.3482 56.6753 L 59.2788 60.2824 L 62.1746 63.9149 "/>
    <path id="ID0.043594349175691605" fill="#D7E2FD" stroke="none" stroke-linecap="round" d="M 64.5289 41.9677 L 64.7575 40.85 L 65.2656 42.9075 L 62.6746 42.1709 L 64.5289 41.9677 Z " stroke-width="0.508037269115448"/>
    <path id="ID0.043594349175691605" fill="#D7E2FD" stroke="none" stroke-linecap="round" d="M 74.7225 41.8348 L 74.4574 40.8321 L 74.1024 42.7258 L 76.4161 41.9236 L 74.7225 41.8348 Z " stroke-width="0.4618642652203811"/>
  </g>
  <g id="ID0.4898335998877883">
    <path id="ID0.5368814701214433" fill="#303436" stroke="none" stroke-linecap="round" d="M 47.9301 318.2753 L 49.6623 309.1495 L 52.9337 299.4051 L 63.5762 303.9412 L 75.725 310.0753 L 94.3647 318.1032 L 96.2663 324.4277 L 71.9216 328.7506 L 50.3824 327.8271 L 47.9301 318.2753 Z " stroke-width="0.770216582445011"/>
    <g id="ID0.9492031107656658">
      <path id="ID0.05466862628236413" fill="#303436" stroke="none" stroke-linecap="round" d="M 55.4564 224.6611 L 82.1331 222.8302 L 75.8368 241.2577 L 73.8835 246.1641 L 71.9153 264.1996 L 65.6345 304.4651 L 49.8628 305.1477 L 49.3652 282.904 L 47.2999 274.0871 L 46.6893 264.5873 L 49.7914 251.2766 L 50.7304 238.9912 L 55.4564 224.6611 Z " stroke-width="0.7305889811460878"/>
      <path id="ID0.4490455654449761" fill="none" stroke="#272A2B" stroke-width="1.6585524331674135" stroke-linecap="round" d="M 55.3565 225.5809 L 82.0524 223.3639 L 73.4259 247.1849 "/>
      <path id="ID0.10446935473009944" fill="none" stroke="#242728" stroke-width="1.6585524331674135" stroke-linecap="round" d="M 72.1483 259.4556 L 70.7011 276.2316 L 59.625 282.7439 "/>
      <path id="ID0.42170455446466804" fill="none" stroke="#242728" stroke-width="1.6585524331674135" stroke-linecap="round" d="M 69.513 277.3082 L 66.9126 292.216 L 55.6023 298.9046 "/>
      <path id="ID0.047098892275244" fill="none" stroke="#242728" stroke-width="1.6585524331674135" stroke-linecap="round" d="M 51.1485 239.507 L 50.3771 243.3709 L 54.1858 252.543 "/>
    </g>
  </g>
</svg>