<svg xmlns="http://www.w3.org/2000/svg" xmlns:xlink="http://www.w3.org/1999/xlink" version="1.1" width="111.2186050415039" height="301.4122619628906" viewBox="1.88919997215271 0.8754205703735352 111.2186050415039 301.4122619628906">
  <!-- Exported by Scratch - http://scratch.mit.edu/ -->
  <g id="ID0.7138465116731822">
    <g id="ID0.7085462282411754">
      <g id="ID0.5880346246995032">
        <path id="ID0.6829322893172503" fill="#796B5E" stroke="none" stroke-linecap="round" d="M 6.6241 168.8886 L 16.9247 164.9168 L 19.5292 170.5056 L 22.8702 176.5598 L 22.3662 182.0523 L 21.3728 186.5092 L 19.1713 189.2687 L 17.2253 195.6141 L 12.8008 194.9975 L 11.8219 192.9262 L 10.2947 192.5838 L 7.4383 189.7412 L 4.4248 186.4881 L 2.8892 181.9898 L 4.2918 175.1973 L 6.6241 168.8886 Z " stroke-width="0.7820137009995728"/>
        <g id="ID0.9434720128774643">
          <path id="ID0.6507829907350242" fill="#2C3134" stroke="none" stroke-linecap="round" d="M 7.0256 106.0053 L 24.0886 117.5133 L 21.3199 133.6739 L 19.1609 145.7371 L 17.739 161.2337 L 19.3253 168.1508 L 5.1603 169.2241 L 6.5494 162.1534 L 5.6751 152.5732 L 4.0689 140.3515 L 4.4699 127.4888 L 7.0256 106.0053 Z " stroke-width="0.7820137009995728"/>
          <path id="ID0.9892375003546476" fill="none" stroke="#191919" stroke-width="1.915621299193655" stroke-linecap="round" d="M 5.6873 168.4804 L 18.7045 167.0466 L 17.0884 158.654 "/>
        </g>
      </g>
      <path id="ID0.7729651997797191" fill="#2C3134" stroke="none" stroke-linecap="round" d="M 9.4776 76.3369 L 31.9964 74.4466 L 30.6323 94.0479 L 27.4153 104.4764 L 26.5164 113.3971 L 24.5666 121.7235 L 8.4612 119.4969 L 5.9412 113.0864 L 8.8478 89.7532 L 9.4776 76.3369 Z " stroke-width="0.9184073374716051"/>
      <path id="ID0.4757494777441025" fill="#2C3134" stroke="none" stroke-linecap="round" d="M 19.6684 60.9429 L 28.0464 58.8749 L 43.6388 63.5854 L 35.6099 88.1723 L 25.4865 92.9978 L 21.0647 94.0318 L 17.923 91.734 L 15.1303 88.8617 L 9.545 86.3341 L 9.4286 81.049 L 10.1268 73.2364 L 13.2685 65.1939 L 19.6684 60.9429 Z " stroke-width="0.4625155781771757"/>
    </g>
    <g id="ID0.7085462282411754">
      <g id="ID0.5880346246995032">
        <path id="ID0.6829322893172503" fill="#796B5E" stroke="none" stroke-linecap="round" d="M 107.6589 168.1647 L 97.3583 164.1929 L 94.7538 169.7817 L 91.4128 175.836 L 91.9168 181.3284 L 92.9102 185.7853 L 95.1117 188.5449 L 97.0577 194.8902 L 101.4822 194.2736 L 102.4611 192.2023 L 103.9883 191.8599 L 106.8447 189.0174 L 109.8582 185.7642 L 111.3938 181.2659 L 109.9912 174.4734 L 107.6589 168.1647 Z " stroke-width="0.7820137009995728"/>
        <g id="ID0.9434720128774643">
          <path id="ID0.6507829907350242" fill="#2C3134" stroke="none" stroke-linecap="round" d="M 107.3049 105.2814 L 90.2419 116.7894 L 93.0107 132.95 L 95.1696 145.0132 L 96.5916 160.5098 L 95.0052 167.4269 L 109.1702 168.5002 L 107.7811 161.4295 L 108.6555 151.8493 L 110.2616 139.6276 L 109.8607 126.7649 L 107.3049 105.2814 Z " stroke-width="0.7820137009995728"/>
          <path id="ID0.9892375003546476" fill="none" stroke="#191919" stroke-width="1.915621299193655" stroke-linecap="round" d="M 108.6433 167.7565 L 95.626 166.3227 L 97.2421 157.9301 "/>
        </g>
      </g>
      <path id="ID0.7729651997797191" fill="#2C3134" stroke="none" stroke-linecap="round" d="M 104.8529 75.613 L 82.3341 73.7227 L 83.6982 93.324 L 86.9152 103.7525 L 87.8141 112.6732 L 89.7639 120.9996 L 105.8693 118.773 L 108.3893 112.3625 L 105.4828 89.0293 L 104.8529 75.613 Z " stroke-width="0.9184073374716051"/>
      <path id="ID0.4757494777441025" fill="#2C3134" stroke="none" stroke-linecap="round" d="M 94.5671 60.219 L 86.1891 58.151 L 70.5967 62.8616 L 78.6256 87.4484 L 88.749 92.2739 L 93.1707 93.3079 L 96.3125 91.0101 L 99.1052 88.1378 L 104.6905 85.6102 L 104.8069 80.3251 L 104.1087 72.5125 L 100.9669 64.47 L 94.5671 60.219 Z " stroke-width="0.4625155781771757"/>
    </g>
    <g id="ID0.6660797297954559">
      <path id="ID0.5368814701214433" fill="#343434" stroke="none" stroke-linecap="round" d="M 64.9528 286.1777 L 67.8362 277.3477 L 72.3251 268.1008 L 82.3012 273.9588 L 93.5673 281.5939 L 111.0293 291.9362 L 112.1078 298.4518 L 87.4104 299.6307 L 66.1654 295.9644 L 64.9528 286.1777 Z " stroke-width="0.7702165290554439"/>
      <g id="ID0.5077062323689461">
        <path id="ID0.05466862628236413" fill="#252525" stroke="none" stroke-linecap="round" d="M 66.0516 213.8762 L 87.7443 210.4959 L 86.0084 225.1791 L 85.2661 230.1923 L 85.2596 244.6768 L 87.7603 277.928 L 66.5164 280.6982 L 65.1791 261.9496 L 62.8673 254.883 L 61.6975 247.1551 L 63.2957 236.0478 L 63.1969 225.9319 L 66.0516 213.8762 Z " stroke-width="0.5998532736063101"/>
        <path id="ID0.5319394422695041" fill="none" stroke="#131313" stroke-width="2" stroke-linecap="round" d="M 87.8 277 L 66.55 281 L 65.55 269.5 "/>
      </g>
      <g id="ID0.8820344842970371">
        <path id="ID0.3809091211296618" fill="#252525" stroke="none" stroke-linecap="round" d="M 54.8285 140.2533 L 86.5436 120.7371 L 87.8062 144.9649 L 91.7946 193.4411 L 91.312 204.1936 L 87.3109 215.4764 L 79.2176 213.2924 L 66.2644 214.5829 L 65.6031 192.821 L 63.8648 179.5181 L 54.8285 140.2533 Z " stroke-width="0.7305889665074583"/>
        <path id="ID0.9495224836282432" fill="none" stroke="#131313" stroke-width="2" stroke-linecap="round" d="M 91.8 193.5 L 91.8 202 L 89.8 210 L 81.3 214.5 L 80.3 219.5 "/>
      </g>
    </g>
    <g id="ID0.18228224432095885">
      <path id="ID0.5368814701214433" fill="#404040" stroke="none" stroke-linecap="round" d="M 26.6399 287.3519 L 29.7137 278.5863 L 34.4016 269.4387 L 44.2487 275.5112 L 55.3469 283.3883 L 72.581 294.1061 L 73.5182 300.6434 L 48.8011 301.2877 L 27.6404 297.1625 L 26.6399 287.3519 Z " stroke-width="0.7702165249851639"/>
      <g id="ID0.5077062323689461">
        <path id="ID0.05466862628236413" fill="#252525" stroke="none" stroke-linecap="round" d="M 30.5916 214.5183 L 52.4198 212.166 L 49.9924 226.751 L 49.0143 231.7235 L 48.3239 246.1916 L 49.2518 279.5237 L 27.9008 281.2878 L 27.4502 262.497 L 25.4747 255.3291 L 24.671 247.5545 L 26.7919 236.5351 L 27.1709 226.4258 L 30.5916 214.5183 Z " stroke-width="0.5998532668114317"/>
        <path id="ID0.5319394422695041" fill="none" stroke="#131313" stroke-width="1.9999999924153835" stroke-linecap="round" d="M 49.3482 278.5754 L 27.9331 281.5676 L 27.4772 270.0332 "/>
      </g>
      <g id="ID0.8820344842970371">
        <path id="ID0.3809091211296618" fill="#252525" stroke="none" stroke-linecap="round" d="M 28.0568 137.8903 L 55.5669 122.4434 L 55.6842 146.7037 L 57.3793 195.3142 L 56.3895 206.0319 L 51.8602 217.1132 L 43.879 214.5495 L 30.3327 216.565 L 28.4396 193.4526 L 27.5217 180.3958 L 28.0568 137.8903 Z " stroke-width="0.7305889820079058"/>
        <path id="ID0.9495224836282432" fill="none" stroke="#131313" stroke-width="1.9999999924153835" stroke-linecap="round" d="M 57.2863 195.3574 L 56.885 203.8479 L 54.5095 211.7446 L 45.8065 215.8382 L 44.5715 220.7854 "/>
      </g>
    </g>
    <g id="ID0.8990198895335197">
      <path id="ID0.17576928716152906" fill="#DBDBDB" stroke="none" d="M 59.2086 55.4006 L 58.971 55.4006 L 58.971 55.4006 L 59.2086 55.4006 L 59.2086 55.4006 Z " stroke-width="0.9578126561445575"/>
      <path id="ID0.4270821204409003" fill="#252525" stroke="none" stroke-linecap="round" d="M 57.1559 173.1548 L 56.9144 64.3236 L 73.4085 66.717 L 79.884 70.9905 L 82.5187 74.9533 L 88.9664 86.1212 L 88.0811 96.2152 L 87.0682 101.4801 L 88.5154 108.1757 L 88.8598 113.4692 L 86.6877 120.0885 L 85.0461 125.1103 L 83.7319 134.046 L 84.7248 155.2117 L 79.6767 163.0345 L 75.0073 168.9346 L 57.1559 173.1548 Z " stroke-width="0.45605533483035054"/>
      <path id="ID0.4270821204409003" fill="#252525" stroke="none" stroke-linecap="round" d="M 57.2697 173.2996 L 57.5111 64.4684 L 41.0171 66.8617 L 34.5415 71.1353 L 31.9069 75.098 L 25.4592 86.266 L 26.3445 96.36 L 27.3574 101.6248 L 25.9102 108.3205 L 25.5658 113.614 L 27.7379 120.2333 L 29.3794 125.255 L 30.6937 134.1908 L 29.7007 155.3564 L 34.7489 163.1792 L 39.4183 169.0794 L 57.2697 173.2996 Z " stroke-width="0.45605533483035054"/>
      <path id="ID0.5114514343440533" fill="#282828" stroke="none" d="M 32.2963 65.6101 L 82.6664 65.6101 L 82.6664 150.7881 L 32.2963 150.7881 L 32.2963 65.6101 Z " stroke-width="0.9660237356491272"/>
      <path id="ID0.9286923445761204" fill="#D4D4D4" stroke="none" stroke-linecap="round" d="M 47.6488 52.3818 L 64.0752 34.2978 L 57.3101 52.5197 L 58.5092 91.5829 L 22.4437 63.5493 L 41.5851 53.1171 L 47.6488 52.3818 Z " stroke-width="0.45605539430823366"/>
      <path id="ID0.9286923445761204" fill="#D4D4D4" stroke="none" stroke-linecap="round" d="M 63.2131 51.3133 L 50.1128 34.5391 L 56.8779 52.761 L 58.0318 91.3647 L 91.7443 63.7906 L 72.9422 52.3933 L 63.2131 51.3133 Z " stroke-width="0.45605539430823366"/>
      <path id="ID0.39874776685610414" fill="#1F2022" stroke="none" stroke-linecap="round" d="M 39.7712 54.0146 L 58.6549 63.5418 L 75.6363 54.8927 L 79.4408 56.9562 L 58.4693 67.1858 L 36.1986 55.9025 L 39.7712 54.0146 Z " stroke-width="0.9033554905983152"/>
      <path id="ID0.13444371055811644" fill="#1F1F1F" stroke="none" stroke-linecap="round" d="M 56.3574 65.2938 L 61.3469 65.0525 L 64.008 92.5604 L 52.5559 93.043 L 56.3574 65.2938 Z " stroke-width="0.9578126561445575"/>
      <path id="ID0.751046194229275" fill="#191919" stroke="none" stroke-linecap="round" d="M 54.1858 60.5016 L 58.6289 58.5375 L 62.9151 60.5016 L 63.3332 68.199 L 59.1516 69.1546 L 54.1858 68.199 L 54.1858 60.5016 Z " stroke-width="1.0535939445950464"/>
      <path id="ID0.7854711129330099" fill="#282828" stroke="none" stroke-linecap="round" d="M 45.6657 81.4607 L 58.971 89.9061 L 72.0387 80.4955 L 70.1379 97.3864 L 48.0416 97.3864 L 45.6657 81.4607 Z " stroke-width="0.9578126561445575"/>
      <path id="ID0.562834897544235" fill="#282828" stroke="none" stroke-linecap="round" d="M 29.7468 150.4718 L 58.4958 144.9219 L 58.4958 164.467 L 45.4281 165.6735 L 29.7468 150.4718 Z " stroke-width="0.9578126561445575"/>
      <path id="ID0.562834897544235" fill="#282828" stroke="none" stroke-linecap="round" d="M 87.6724 150.7131 L 58.9235 145.1632 L 58.9235 164.7083 L 71.9912 165.9148 L 87.6724 150.7131 Z " stroke-width="0.9578126561445575"/>
      <path id="ID0.6824178956449032" fill="none" stroke="#191919" stroke-width="1.915625312289115" stroke-linecap="round" d="M 58.7334 90.1474 L 58.4958 164.2257 "/>
      <path id="ID0.4144489667378366" fill="#40474C" stroke="none" stroke-linecap="round" d="M 21.9062 60.7092 L 41.1514 52.9876 L 38.3003 73.9805 L 41.389 131.8919 L 32.3604 175.0841 L 21.9062 170.2582 L 21.6686 173.6363 L 24.5198 127.3072 L 20.0055 85.5628 L 19.0551 69.8785 L 21.9062 60.7092 Z " stroke-width="0.9578126561445575"/>
      <path id="ID0.5234400681219995" fill="#101010" stroke="none" d="M 60.8397 95.6611 C 61.2318 95.6611 61.5875 95.8228 61.8449 96.0843 C 62.1024 96.3458 62.2617 96.707 62.2617 97.1053 C 62.2617 97.5035 62.1024 97.8647 61.8449 98.1262 C 61.5875 98.3877 61.2318 98.5494 60.8397 98.5494 C 60.4475 98.5494 60.0918 98.3877 59.8344 98.1262 C 59.5769 97.8647 59.4177 97.5035 59.4177 97.1053 C 59.4177 96.707 59.5769 96.3458 59.8344 96.0843 C 60.0918 95.8228 60.4475 95.6611 60.8397 95.6611 Z " stroke-width="0.6034219688038646"/>
      <path id="ID0.5234400681219995" fill="#101010" stroke="none" d="M 60.8397 108.7877 C 61.2318 108.7877 61.5875 108.9494 61.8449 109.2109 C 62.1024 109.4724 62.2617 109.8335 62.2617 110.2318 C 62.2617 110.6301 62.1024 110.9913 61.8449 111.2528 C 61.5875 111.5142 61.2318 111.676 60.8397 111.676 C 60.4475 111.676 60.0918 111.5142 59.8344 111.2528 C 59.5769 110.9913 59.4177 110.6301 59.4177 110.2318 C 59.4177 109.8335 59.5769 109.4724 59.8344 109.2109 C 60.0918 108.9494 60.4475 108.7877 60.8397 108.7877 Z " stroke-width="0.6034219688038646"/>
      <path id="ID0.5234400681219995" fill="#101010" stroke="none" d="M 60.8397 139.2394 C 61.2318 139.2394 61.5875 139.4011 61.8449 139.6626 C 62.1024 139.9241 62.2617 140.2853 62.2617 140.6836 C 62.2617 141.0818 62.1024 141.443 61.8449 141.7045 C 61.5875 141.966 61.2318 142.1277 60.8397 142.1277 C 60.4475 142.1277 60.0918 141.966 59.8344 141.7045 C 59.5769 141.443 59.4177 141.0818 59.4177 140.6836 C 59.4177 140.2853 59.5769 139.9241 59.8344 139.6626 C 60.0918 139.4011 60.4475 139.2394 60.8397 139.2394 Z " stroke-width="0.6034219688038646"/>
      <path id="ID0.5234400681219995" fill="#101010" stroke="none" d="M 60.8397 124.9546 C 61.2318 124.9546 61.5875 125.1163 61.8449 125.3778 C 62.1024 125.6393 62.2617 126.0005 62.2617 126.3988 C 62.2617 126.797 62.1024 127.1582 61.8449 127.4197 C 61.5875 127.6812 61.2318 127.8429 60.8397 127.8429 C 60.4475 127.8429 60.0918 127.6812 59.8344 127.4197 C 59.5769 127.1582 59.4177 126.797 59.4177 126.3988 C 59.4177 126.0005 59.5769 125.6393 59.8344 125.3778 C 60.0918 125.1163 60.4475 124.9546 60.8397 124.9546 Z " stroke-width="0.6034219688038646"/>
      <path id="ID0.5234400681219995" fill="#101010" stroke="none" d="M 60.7446 152.752 C 61.1368 152.752 61.4925 152.9138 61.7499 153.1753 C 62.0074 153.4367 62.1666 153.7979 62.1666 154.1962 C 62.1666 154.5945 62.0074 154.9557 61.7499 155.2172 C 61.4925 155.4786 61.1368 155.6404 60.7446 155.6404 C 60.3525 155.6404 59.9968 155.4786 59.7393 155.2172 C 59.4819 154.9557 59.3226 154.5945 59.3226 154.1962 C 59.3226 153.7979 59.4819 153.4367 59.7393 153.1753 C 59.9968 152.9138 60.3525 152.752 60.7446 152.752 Z " stroke-width="0.6034219688038646"/>
      <path id="ID0.4144489667378366" fill="#40474C" stroke="none" stroke-linecap="round" d="M 91.8066 59.8887 L 72.5614 52.1672 L 75.4125 73.1601 L 72.3238 131.0715 L 81.3524 174.2637 L 91.8066 169.4378 L 92.0442 172.8159 L 89.193 126.4868 L 93.7073 84.7424 L 94.6577 69.058 L 91.8066 59.8887 Z " stroke-width="0.9578126561445575"/>
      <path id="ID0.8752945330925286" fill="none" stroke="#222222" stroke-width="1.915625312289115" stroke-linecap="round" d="M 22.3814 60.9505 L 19.2927 68.4307 L 22.3814 104.8666 "/>
      <path id="ID0.8752945330925286" fill="none" stroke="#222222" stroke-width="1.915625312289115" stroke-linecap="round" d="M 91.9966 60.4679 L 95.0854 67.9481 L 91.9966 104.384 "/>
      <path id="ID0.5234400681219995" fill="#101010" stroke="none" d="M 38.8859 139.8185 C 39.2781 139.8185 39.6337 139.9803 39.8912 140.2417 C 40.1487 140.5032 40.3079 140.8644 40.3079 141.2627 C 40.3079 141.661 40.1487 142.0222 39.8912 142.2836 C 39.6337 142.5451 39.2781 142.7068 38.8859 142.7068 C 38.4937 142.7068 38.1381 142.5451 37.8806 142.2836 C 37.6232 142.0222 37.4639 141.661 37.4639 141.2627 C 37.4639 140.8644 37.6232 140.5032 37.8806 140.2417 C 38.1381 139.9803 38.4937 139.8185 38.8859 139.8185 Z " stroke-width="0.6034219688038646"/>
      <path id="ID0.5234400681219995" fill="#101010" stroke="none" d="M 37.5554 146.8161 C 37.9476 146.8161 38.3032 146.9779 38.5607 147.2393 C 38.8181 147.5008 38.9774 147.862 38.9774 148.2603 C 38.9774 148.6586 38.8181 149.0198 38.5607 149.2812 C 38.3032 149.5427 37.9476 149.7045 37.5554 149.7045 C 37.1632 149.7045 36.8076 149.5427 36.5501 149.2812 C 36.2927 149.0198 36.1334 148.6586 36.1334 148.2603 C 36.1334 147.862 36.2927 147.5008 36.5501 147.2393 C 36.8076 146.9779 37.1632 146.8161 37.5554 146.8161 Z " stroke-width="0.6034219688038646"/>
      <g id="ID0.20783481979742646">
        <path id="ID0.5848579816520214" fill="#737373" stroke="none" stroke-linecap="round" d="M 81.7325 87.3484 L 88.2426 85.9006 L 88.1476 89.6648 L 81.2574 90.1474 L 81.7325 87.3484 Z " stroke-width="0.9578126561445575"/>
        <path id="ID0.13105127029120922" fill="none" stroke="#222222" stroke-width="1.915625312289115" stroke-linecap="round" d="M 79.9743 90.3887 L 84.2511 90.3887 L 89.2405 88.941 "/>
      </g>
    </g>
    <path id="ID0.46110434643924236" fill="#675B50" stroke="none" stroke-linecap="round" d="M 46.202 34.5367 L 67.6946 34.5367 L 68.1389 52.827 L 62.252 55.5778 L 46.202 53.937 L 46.202 34.5367 Z " stroke-width="1.040504872437649"/>
    <g id="ID0.8169596269726753">
      <path id="ID0.48112139804288745" fill="#3A3A3A" stroke="#3A3A3A" stroke-width="1.8513925047588613" stroke-linecap="round" d="M 75.9767 11.8252 C 76.5682 12.1581 75.9683 13.4973 76.2095 14.2626 C 76.4033 14.877 77.0163 15.3323 77.1411 15.9642 C 77.2604 16.5703 77.0293 17.1985 76.9082 17.8037 C 76.5673 19.5117 76.6083 21.7744 75.7438 23.0924 C 75.3972 23.5449 74.8448 21.9151 74.4861 21.3448 C 73.753 20.2006 72.9695 19.0049 72.4832 17.8037 C 72.2513 17.2307 72.3053 16.5795 72.2503 15.9642 C 72.1963 15.3534 71.8973 14.6811 72.1572 14.1246 C 72.4208 13.5599 73.1111 13.3005 73.6477 12.9749 C 74.3473 12.5509 75.2873 11.5143 75.9767 11.8252 Z "/>
      <path id="ID0.05099705280736089" fill="#1C1916" stroke="#1C1916" stroke-width="1.9658422573216503" stroke-linecap="round" d="M 42.3783 29.7596 C 42.0658 29.9168 42.4792 31.0595 42.6256 31.8105 C 42.7513 32.4531 43.142 33.0274 43.5159 33.5684 C 43.8908 34.1105 44.3814 34.5695 44.8513 35.0334 C 45.3211 35.4973 45.8404 35.9123 46.335 36.3518 C 46.8296 36.7913 47.1551 37.7045 47.8188 37.6703 C 48.4825 37.6361 49.0355 36.8509 49.1542 36.2053 C 49.3906 34.9201 49.2402 33.5333 48.808 32.2988 C 48.5903 31.6786 47.8633 31.3651 47.3242 30.9804 C 46.7861 30.5965 46.2252 30.2049 45.5932 30.0037 C 44.6703 29.7098 43.5495 29.0134 42.7246 29.5154 Z "/>
      <path id="ID0.8999492498114705" fill="#796B5E" stroke="none" stroke-linecap="round" d="M 64.5094 3.2073 C 68.8659 3.6752 73.5465 6.3223 75.6556 10.1145 C 78.0623 14.444 76.5205 19.8978 76.432 24.7905 C 76.3923 26.9374 75.6576 29.1429 75.1506 31.2903 C 74.4294 34.3412 73.5621 37.2616 72.8138 40.1964 C 72.3736 41.9791 72.6796 44.1077 71.5826 45.4558 C 69.8373 47.5997 67.4909 49.7937 64.7481 50.2189 C 61.5786 50.7097 58.4759 48.8828 55.4009 47.9118 C 53.8591 47.3715 51.9977 47.0112 50.9535 45.7039 C 48.7157 42.897 47.5744 39.3157 46.2045 36.0534 C 44.7662 32.6289 42.5621 29.2853 42.5109 25.5348 C 42.4244 19.1516 41.3264 11.2869 46.0286 6.6805 C 50.2348 2.2453 58.0332 2.5147 64.5094 3.2073 Z " stroke-width="0.4993605659607195"/>
      <path id="ID0.8194515448994935" fill="#796B5E" stroke="none" stroke-linecap="round" d="M 42.5762 21.6535 C 43.4209 21.7385 44.0322 22.2942 44.5338 23.3285 C 45.0353 24.3627 45.3459 25.7905 45.3459 27.3668 C 45.3459 28.9431 45.0353 30.3709 44.5338 31.4052 C 44.0322 32.4394 43.4199 32.9688 42.5762 33.0801 C 41.8017 33.1807 40.8066 32.7617 40.4495 32.1035 C 39.7778 30.6405 39.8965 28.905 39.8065 27.3668 C 39.7175 25.855 39.3614 24.1928 39.9549 22.8255 C 40.4287 21.9914 41.6909 21.5647 42.5762 21.6535 Z " stroke-width="0.9829211286608251"/>
      <path id="ID0.8256730306893587" fill="none" stroke="#675B50" stroke-width="0.9987207975138847" stroke-linecap="round" d="M 68.4289 39.7834 C 68.4289 39.7834 67.241 39.1598 66.5911 39.1946 C 65.9833 39.1804 65.5146 39.8464 64.8851 39.8416 C 64.1378 39.8355 63.5076 39.1657 62.7644 39.1163 C 61.5492 39.4613 60.1547 39.8034 60.1547 39.8034 "/>
      <path id="ID0.7592270169407129" fill="none" stroke="#675B50" stroke-width="0.998721131921439" stroke-linecap="round" d="M 61.8954 42.1158 C 61.8954 42.1158 62.5105 42.4527 62.8502 42.5127 C 63.1799 42.5712 63.5221 42.4298 63.8553 42.4631 C 64.1905 42.4968 64.501 42.6695 64.8352 42.7112 C 65.1674 42.7528 65.5141 42.7846 65.8403 42.7112 C 66.1177 42.6486 66.5941 42.3142 66.5941 42.3142 "/>
      <path id="ID0.7592270169407129" fill="none" stroke="#675B50" stroke-width="0.998700894507874" stroke-linecap="round" d="M 65.2466 48.1101 C 65.2466 48.1101 65.3287 48.7999 65.256 49.133 C 65.1857 49.4563 64.9232 49.7152 64.8279 50.0322 C 64.7322 50.3511 64.7761 50.7004 64.6883 51.0214 C 64.6012 51.3406 64.4993 51.6694 64.3067 51.9394 C 64.1428 52.1691 63.6486 52.4773 63.6486 52.4773 "/>
      <g id="ID0.16937132459133863">
        <path id="ID0.7788236327469349" fill="#FFFFFF" stroke="none" stroke-linecap="round" d="M 53.9517 23.2161 L 55.287 23.0208 L 57.5127 22.7767 L 59.6394 22.8743 L 59.9361 25.0717 L 57.4138 25.6577 L 52.4679 25.0229 L 53.9517 23.2161 Z " stroke-width="0.9829211286608251"/>
        <path id="ID0.036129117012023926" fill="#5E3B21" stroke="none" d="M 57.9331 22.8743 C 58.3357 22.8743 58.7007 23.0355 58.9648 23.2962 C 59.2289 23.557 59.3921 23.9174 59.3921 24.3149 C 59.3921 24.7123 59.2289 25.0727 58.9648 25.3335 C 58.7007 25.5942 58.3357 25.7554 57.9331 25.7554 C 57.5305 25.7554 57.1655 25.5942 56.9014 25.3335 C 56.6373 25.0727 56.474 24.7123 56.474 24.3149 C 56.474 23.9174 56.6373 23.557 56.9014 23.2962 C 57.1655 23.0355 57.5305 22.8743 57.9331 22.8743 Z " stroke-width="0.9829211286608251"/>
        <path id="ID0.9171876185573637" fill="#191009" stroke="none" d="M 58.2546 23.558 C 58.4593 23.558 58.6443 23.64 58.7788 23.7728 C 58.9133 23.9056 58.9964 24.0883 58.9964 24.2904 C 58.9964 24.4926 58.9133 24.6752 58.7788 24.808 C 58.6443 24.9409 58.4593 25.0229 58.2546 25.0229 C 58.0498 25.0229 57.8648 24.9409 57.7303 24.808 C 57.5958 24.6752 57.5127 24.4926 57.5127 24.2904 C 57.5127 24.0883 57.5958 23.9056 57.7303 23.7728 C 57.8648 23.64 58.0498 23.558 58.2546 23.558 Z " stroke-width="0.9829211286608251"/>
      </g>
      <g id="ID0.3830250068567693">
        <path id="ID0.7788236327469349" fill="#FFFFFF" stroke="none" stroke-linecap="round" d="M 73.1416 23.4115 L 71.46 22.8743 L 69.5311 22.8743 L 67.4044 22.972 L 67.1076 25.1694 L 69.63 25.7554 L 74.2297 25.3159 L 73.1416 23.4115 Z " stroke-width="0.9829211286608251"/>
        <g id="ID0.8607796453870833">
          <path id="ID0.036129117012023926" fill="#5E3B21" stroke="none" d="M 71.0396 22.8743 C 71.4422 22.8743 71.8072 23.0355 72.0713 23.2962 C 72.3354 23.557 72.4986 23.9174 72.4986 24.3149 C 72.4986 24.7123 72.3354 25.0727 72.0713 25.3335 C 71.8072 25.5942 71.4422 25.7554 71.0396 25.7554 C 70.637 25.7554 70.272 25.5942 70.0079 25.3335 C 69.7438 25.0727 69.5806 24.7123 69.5806 24.3149 C 69.5806 23.9174 69.7438 23.557 70.0079 23.2962 C 70.272 23.0355 70.637 22.8743 71.0396 22.8743 Z " stroke-width="0.9829211286608251"/>
          <path id="ID0.9171876185573637" fill="#191009" stroke="none" d="M 71.3611 23.5091 C 71.5658 23.5091 71.7508 23.5912 71.8853 23.724 C 72.0199 23.8568 72.103 24.0394 72.103 24.2416 C 72.103 24.4438 72.0199 24.6264 71.8853 24.7592 C 71.7508 24.892 71.5658 24.9741 71.3611 24.9741 C 71.1563 24.9741 70.9713 24.892 70.8368 24.7592 C 70.7023 24.6264 70.6192 24.4438 70.6192 24.2416 C 70.6192 24.0394 70.7023 23.8568 70.8368 23.724 C 70.9713 23.5912 71.1563 23.5091 71.3611 23.5091 Z " stroke-width="0.9829211286608251"/>
        </g>
      </g>
      <path id="ID0.2118154256604612" fill="#1C1916" stroke="#1C1916" stroke-width="1.9658422573216503" stroke-linecap="round" d="M 41.7848 19.7003 C 41.7571 20.2032 42.0153 22.469 42.774 23.7533 C 43.054 24.227 43.3052 22.5012 43.6148 21.8977 C 43.9145 21.3127 44.3171 20.7794 44.604 20.1886 C 44.9106 19.5567 45.1609 18.8965 45.3953 18.2353 C 45.6228 17.5947 45.8068 16.9364 45.9888 16.2821 C 46.1689 15.6355 46.251 14.9587 46.4834 14.3288 C 46.7149 13.6999 47.0611 13.1158 47.3737 12.522 C 47.6872 11.9282 47.8415 11.1928 48.3628 10.7641 C 48.899 10.3227 49.6458 10.141 50.3412 10.0805 C 51.0079 10.0228 51.6607 10.3109 52.3195 10.4223 C 53.011 10.5385 53.7103 10.6235 54.3968 10.7641 C 55.0615 10.8999 55.7243 11.063 56.3751 11.2524 C 57.0092 11.437 57.6274 11.6812 58.2546 11.8872 C 58.9114 12.1031 59.587 12.274 60.2329 12.522 C 60.8581 12.7623 61.4229 13.1549 62.0629 13.3522 C 62.7009 13.5485 63.3893 13.8434 64.0412 13.694 C 64.696 13.5436 65.1234 12.9029 65.6733 12.522 C 66.2273 12.1392 66.7506 11.6978 67.3549 11.3989 C 67.9465 11.1069 68.5855 10.8911 69.2344 10.7641 C 70.3343 10.5502 71.6014 10.1615 72.7954 10.4223 C 73.9389 10.6743 75.2723 12.6549 75.9113 12.229 C 76.5176 11.8208 75.5868 9.8597 75.0705 8.7132 C 74.5126 7.4768 73.6569 6.3585 72.6965 5.3926 C 71.7706 4.4619 70.6964 3.6103 69.4817 3.0976 C 68.2491 2.577 66.8524 2.5506 65.525 2.3651 C 64.8721 2.2733 64.2034 2.3319 63.5466 2.2674 C 62.8839 2.202 62.234 2.0076 61.5683 1.9744 C 60.2527 1.909 58.9153 1.7889 57.6116 1.9744 C 56.2544 2.1668 54.9764 2.7391 53.6549 3.0976 C 53.0001 3.2753 52.3245 3.3837 51.6766 3.5859 C 50.3956 3.9863 49.1166 4.4131 47.8682 4.9043 C 47.252 5.1465 46.5843 5.3497 46.0877 5.7833 C 45.5635 6.2404 45.337 6.9533 44.9007 7.4924 C 44.4784 8.0139 43.87 8.3889 43.5159 8.9573 C 43.1479 9.5492 42.961 10.2406 42.774 10.9106 C 42.597 11.5474 42.4862 12.2056 42.4278 12.8639 C 42.3704 13.5114 42.5099 14.1716 42.4278 14.8171 C 42.3437 15.4822 42.0954 16.119 41.9332 16.7704 C 41.7997 17.3066 41.4713 17.8339 41.5376 18.3818 Z "/>
      <path id="ID0.5261953212320805" fill="none" stroke="#1C1916" stroke-width="1.9658422573216503" stroke-linecap="round" d="M 51.5282 22.2395 C 51.5282 22.2395 52.3937 21.0969 53.0119 20.7746 C 53.6035 20.466 54.3216 20.4327 54.9903 20.4327 C 55.659 20.4327 56.3029 20.7062 56.9686 20.7746 C 58.216 20.9015 60.7275 21.0187 60.7275 21.0187 "/>
      <path id="ID0.5261953212320805" fill="none" stroke="#1C1916" stroke-width="1.9658422573216503" stroke-linecap="round" d="M 75.4167 21.9954 C 75.4167 21.9954 74.5512 20.8527 73.9329 20.5304 C 73.3414 20.2218 72.6233 20.1886 71.9546 20.1886 C 71.2859 20.1886 70.642 20.462 69.9762 20.5304 C 68.7289 20.6574 66.2174 20.7746 66.2174 20.7746 "/>
      <path id="ID0.8619630038738251" fill="none" stroke="#675B50" stroke-width="1.1552938762017653" stroke-linecap="round" d="M 63.6674 24.5045 C 63.6674 24.5045 64.0016 27.3301 64.1615 28.6944 C 64.2533 29.4606 64.0975 30.3204 64.4812 30.9902 C 64.9486 31.7506 66.0519 31.7328 66.3124 32.425 C 66.6635 33.1488 66.7751 34.4884 66.0798 34.6921 C 65.023 35.0015 64.0475 33.6757 62.8826 33.5729 C 62.2571 33.5184 61.1677 34.3478 61.1677 34.3478 "/>
      <path id="ID0.6736386958509684" fill="none" stroke="#675B50" stroke-width="1.2323190532105859" stroke-linecap="round" d="M 51.354 31.3105 C 51.354 31.3105 51.8879 32.0452 52.1911 32.3819 C 52.4676 32.6892 52.8087 32.9359 53.0902 33.239 C 53.3779 33.5488 53.6979 33.8469 53.8963 34.2185 C 54.0978 34.5951 54.2541 35.0175 54.2683 35.443 C 54.3062 36.586 54.0513 38.8714 54.0513 38.8714 "/>
      <path id="ID0.18298013787716627" fill="#1C1916" stroke="#1C1916" stroke-width="1.9658422573216503" stroke-linecap="round" d="M 51.2809 9.5921 C 50.8605 9.7914 50.3906 10.6957 50.539 11.5454 C 50.7744 12.8883 52.0238 14.3063 51.7755 15.4519 C 51.6528 16.0154 50.4164 15.24 49.7971 14.9636 C 49.1937 14.6941 48.6962 14.2321 48.165 13.8405 C 47.5923 13.4186 46.8286 13.1402 46.4834 12.522 C 46.1639 11.9507 46.0877 11.1733 46.335 10.5688 C 46.5833 9.9603 47.2312 9.557 47.8188 9.2503 C 48.4192 8.9368 49.1215 8.8323 49.7971 8.762 C 50.083 8.7327 50.5647 8.6829 50.6379 8.9573 Z "/>
      <path id="ID0.7592270169407129" fill="none" stroke="#675B50" stroke-width="0.9987156430182691" stroke-linecap="round" d="M 64.0424 16.866 C 64.0424 16.866 64.263 17.5255 64.2594 17.8662 C 64.2562 18.1969 64.0517 18.5025 64.0227 18.8319 C 63.9938 19.1633 64.1077 19.4968 64.0869 19.8287 C 64.0665 20.1587 64.0334 20.501 63.8996 20.8036 C 63.7856 21.0611 63.3641 21.4609 63.3641 21.4609 "/>
      <path id="ID0.48112139804288745" fill="#3A3A3A" stroke="#3A3A3A" stroke-width="1.8513925047588613" stroke-linecap="round" d="M 42.3624 13.2413 C 41.7709 13.5743 42.3708 14.9134 42.1295 15.6787 C 41.9358 16.2931 41.3228 16.7484 41.1979 17.3803 C 41.0787 17.9864 41.3097 18.6146 41.4308 19.2198 C 41.7718 20.9278 41.7308 23.1905 42.5953 24.5085 C 42.9419 24.961 43.4943 23.3312 43.853 22.7609 C 44.5861 21.6167 45.3696 20.421 45.8559 19.2198 C 46.0878 18.6468 46.0338 17.9956 46.0888 17.3803 C 46.1428 16.7695 46.4418 16.0972 46.1819 15.5407 C 45.9183 14.976 45.228 14.7166 44.6914 14.391 C 43.9918 13.967 43.0518 12.9304 42.3624 13.2413 Z "/>
    </g>
  </g>
</svg>