<svg xmlns="http://www.w3.org/2000/svg" xmlns:xlink="http://www.w3.org/1999/xlink" version="1.1" width="287.59635175714175" height="310.2690507317511" viewBox="-0.12119061474640591 1.2606014537350394 287.59635175714175 310.2690507317511">
  <!-- Exported by Scratch - http://scratch.mit.edu/ -->
  <g id="ID0.7085462282411754">
    <g id="ID0.5880346246995032">
      <path id="ID0.6829322893172503" fill="#796B5E" stroke="none" stroke-linecap="round" d="M 130.1319 168.4698 L 142.2724 168.6723 L 142.6208 175.4448 L 143.528 182.996 L 140.7472 188.3874 L 137.8949 192.521 L 134.5115 194.4257 L 129.9086 200.0913 L 125.6525 197.6366 L 125.5094 195.1209 L 124.0938 194.1415 L 122.355 190.0646 L 120.6255 185.5043 L 120.9168 180.2846 L 125.1502 173.9388 L 130.1319 168.4698 Z " stroke-width="0.860103544862228"/>
      <g id="ID0.9434720128774643">
        <path id="ID0.6507829907350242" fill="#2C3134" stroke="none" stroke-linecap="round" d="M 156.4109 104.5467 L 169.0563 123.3214 L 159.5634 138.654 L 152.3834 150.061 L 144.5376 165.2725 L 143.2999 172.979 L 128.416 168.2267 L 132.7506 161.5916 L 135.8134 151.464 L 139.2204 138.3414 L 144.9382 125.3937 L 156.4109 104.5467 Z " stroke-width="0.860103544862228"/>
        <path id="ID0.9892375003546476" fill="none" stroke="#191919" stroke-width="2.106910174198116" stroke-linecap="round" d="M 129.255 167.5927 L 143.1176 171.5038 L 144.934 162.2806 "/>
      </g>
    </g>
    <path id="ID0.7729651997797191" fill="#2C3134" stroke="none" stroke-linecap="round" d="M 171.1756 75.3075 L 194.9132 82.6749 L 185.4322 102.095 L 177.8482 111.3987 L 173.2499 120.1221 L 167.8254 127.8059 L 152.3254 118.8885 L 152.4022 111.3131 L 164.996 88.7251 L 171.1756 75.3075 Z " stroke-width="1.0101170654897502"/>
    <path id="ID0.4757494777441025" fill="#2C3134" stroke="none" stroke-linecap="round" d="M 187.9395 63.8165 L 197.3342 65.1661 L 211.286 76.4041 L 192.9526 98.1559 L 180.6404 98.8969 L 175.7057 98.1261 L 173.4512 94.4867 L 171.7897 90.4058 L 167.1389 85.5237 L 169.2016 80.0877 L 173.138 72.411 L 179.6604 65.5087 L 187.9395 63.8165 Z " stroke-width="0.5087011852918293"/>
  </g>
  <g id="ID0.6688785348087549">
    <path id="ID0.5368814701214433" fill="#343434" stroke="none" stroke-linecap="round" d="M 129.1344 190.1565 L 130.4465 180.0247 L 130.3613 168.7197 L 117.6848 169.8196 L 102.8871 172.0743 L 80.6565 174.0875 L 76.5046 180.0476 L 100.4722 192.8966 L 123.3027 199.3015 L 129.1344 190.1565 Z " stroke-width="0.8471283342911995"/>
    <g id="ID0.5077062323689461">
      <path id="ID0.05466862628236413" fill="#252525" stroke="none" stroke-linecap="round" d="M 162.2265 117.796 L 142.2834 104.1818 L 137.0643 119.5835 L 135.4309 124.9127 L 128.5882 139.2992 L 110.3822 171.136 L 130.168 183.9321 L 140.3613 165.9467 L 145.9984 160.0224 L 150.8142 152.9016 L 154.4792 141.1161 L 159.3606 131.1175 L 162.2265 117.796 Z " stroke-width="0.6597530586189023"/>
      <path id="ID0.5319394422695041" fill="none" stroke="#131313" stroke-width="2.1997146171461615" stroke-linecap="round" d="M 110.9834 170.431 L 130.1938 184.4512 L 136.6246 173.5043 "/>
    </g>
  </g>
  <g id="ID0.8820344842970371">
    <path id="ID0.3809091211296618" fill="#252525" stroke="none" stroke-linecap="round" d="M 187.4354 186.7958 L 227.0918 176.5549 L 208.8589 157.0727 L 173.4927 116.9334 L 164.6051 109.1135 L 152.6133 103.6767 L 148.1699 111.7552 L 137.2663 121.0338 L 154.0043 138.1585 L 163.2184 149.6837 L 187.4354 186.7958 Z " stroke-width="0.8035436656303547"/>
    <path id="ID0.9495224836282432" fill="none" stroke="#131313" stroke-width="2.1997147267116404" stroke-linecap="round" d="M 173.3125 116.8414 L 166.5777 110.3573 L 158.7135 105.8393 L 148.664 109.1413 L 143.9395 106.1194 "/>
  </g>
  <g id="ID0.7085462282411754">
    <g id="ID0.5880346246995032">
      <path id="ID0.6829322893172503" fill="#796B5E" stroke="none" stroke-linecap="round" d="M 281.4109 187.4286 L 269.8402 183.7474 L 267.3494 190.0549 L 264.0806 196.9221 L 264.9961 202.9189 L 266.3806 207.7464 L 268.9796 210.631 L 271.5345 217.469 L 276.3514 216.5003 L 277.2895 214.1618 L 278.9436 213.6851 L 281.8921 210.376 L 284.9861 206.6057 L 286.3753 201.5658 L 284.3875 194.201 L 281.4109 187.4286 Z " stroke-width="0.860103543738539"/>
      <g id="ID0.9434720128774643">
        <path id="ID0.6507829907350242" fill="#2C3134" stroke="none" stroke-linecap="round" d="M 276.8437 118.4239 L 258.8696 132.1834 L 262.975 149.7432 L 266.1407 162.8448 L 268.7238 179.7644 L 267.4383 187.4631 L 283.0605 187.7074 L 281.0691 180.0362 L 281.3974 169.4607 L 282.3548 155.9369 L 281.0663 141.8416 L 276.8437 118.4239 Z " stroke-width="0.860103543738539"/>
        <path id="ID0.9892375003546476" fill="none" stroke="#191919" stroke-width="2.106910173892899" stroke-linecap="round" d="M 282.3832 186.9734 L 267.9973 186.2577 L 269.2182 176.937 "/>
      </g>
    </g>
    <path id="ID0.7729651997797191" fill="#2C3134" stroke="none" stroke-linecap="round" d="M 272.2088 85.9801 L 247.3612 85.3897 L 250.1514 106.8196 L 254.3709 118.0567 L 255.9461 127.7913 L 258.6358 136.804 L 276.1707 133.2974 L 278.5147 126.0933 L 273.7849 100.668 L 272.2088 85.9801 Z " stroke-width="1.0101169804377628"/>
    <path id="ID0.4757494777441025" fill="#2C3134" stroke="none" stroke-linecap="round" d="M 260.0105 69.719 L 250.6761 68.001 L 233.8681 74.2008 L 244.3043 100.6648 L 255.7368 105.295 L 260.6595 106.1386 L 263.9572 103.4087 L 266.8338 100.0711 L 272.7992 96.9278 L 272.5784 91.1178 L 271.2967 82.5865 L 267.3171 73.964 L 260.0105 69.719 Z " stroke-width="0.508701167313651"/>
  </g>
  <g id="ID0.8990198895335197">
    <path id="ID0.17576928716152906" fill="#DBDBDB" stroke="none" d="M 220.973 61.517 L 221.2338 61.5334 L 221.2338 61.5334 L 220.973 61.517 L 220.973 61.517 Z " stroke-width="1.0534572489367935"/>
    <path id="ID0.4270821204409003" fill="#252525" stroke="none" stroke-linecap="round" d="M 214.9153 190.9953 L 222.6676 71.5475 L 204.3974 73.04 L 196.9952 77.2856 L 193.8305 81.4542 L 185.9845 93.2698 L 186.2619 104.4109 L 187.0115 110.2598 L 184.9622 117.5101 L 184.22 123.297 L 186.149 130.7126 L 187.6054 136.3379 L 188.4333 146.2371 L 185.8872 169.4024 L 190.8905 178.3368 L 195.6102 185.1347 L 214.9153 190.9953 Z " stroke-width="0.501595785399862"/>
    <path id="ID0.4270821204409003" fill="#252525" stroke="none" stroke-linecap="round" d="M 214.9446 191.0375 L 222.1667 71.5565 L 240.1077 75.3184 L 246.9219 80.455 L 249.5413 84.9862 L 255.8507 97.6889 L 254.1844 108.7082 L 252.7104 114.4177 L 253.8384 121.8672 L 253.8522 127.7015 L 251.0125 134.8181 L 248.8651 140.2176 L 246.8077 149.936 L 246.4415 173.2379 L 240.3619 181.4777 L 243.3692 199.0518 L 214.9446 191.0375 Z " stroke-width="0.5015958026200296"/>
    <path id="ID0.5114514343440533" fill="#282828" stroke="none" d="M 249.5709 74.5332 L 194.2795 71.0679 L 188.4195 164.5681 L 243.7109 168.0334 L 249.5709 74.5332 Z " stroke-width="1.0624883561200273"/>
    <path id="ID0.9286923445761204" fill="#D4D4D4" stroke="none" stroke-linecap="round" d="M 233.7187 58.9846 L 216.9316 38.0036 L 223.1041 58.4713 L 219.1004 101.2686 L 260.6182 72.9772 L 240.3243 60.2089 L 233.7187 58.9846 Z " stroke-width="0.5015958626722967"/>
    <path id="ID0.9286923445761204" fill="#D4D4D4" stroke="none" stroke-linecap="round" d="M 216.8181 56.7686 L 232.3524 39.2567 L 223.6727 58.7935 L 219.7503 101.0895 L 184.641 68.5021 L 206.0642 57.2847 L 216.8181 56.7686 Z " stroke-width="0.5015958626722967"/>
    <path id="ID0.39874776685610414" fill="#1F2022" stroke="none" stroke-linecap="round" d="M 242.2854 61.2244 L 220.9013 70.3833 L 202.8558 59.7209 L 198.5376 61.7243 L 220.8543 74.3961 L 246.0772 63.5425 L 242.2854 61.2244 Z " stroke-width="0.9935621547785666"/>
    <path id="ID0.13444371055811644" fill="#1F1F1F" stroke="none" stroke-linecap="round" d="M 223.1845 72.5061 L 217.7241 71.898 L 212.9106 101.9104 L 225.4484 103.2281 L 223.1845 72.5061 Z " stroke-width="1.0534572489367935"/>
    <path id="ID0.751046194229275" fill="#191919" stroke="none" stroke-linecap="round" d="M 225.9643 67.4048 L 221.2224 64.943 L 216.3822 66.8042 L 215.3937 75.2249 L 219.9182 76.5615 L 225.4348 75.8542 L 225.9643 67.4048 Z " stroke-width="1.1588030157999438"/>
    <path id="ID0.7854711129330099" fill="#282828" stroke="none" stroke-linecap="round" d="M 233.8583 90.9489 L 218.672 99.3041 L 204.9749 88.0751 L 205.8994 106.7469 L 230.1545 108.2671 L 233.8583 90.9489 Z " stroke-width="1.0534572489367935"/>
    <path id="ID0.562834897544235" fill="#282828" stroke="none" stroke-linecap="round" d="M 246.5847 167.7978 L 215.4087 159.7279 L 214.064 181.1826 L 228.3255 183.406 L 246.5847 167.7978 Z " stroke-width="1.0534572489367935"/>
    <path id="ID0.562834897544235" fill="#282828" stroke="none" stroke-linecap="round" d="M 183.1754 164.2029 L 215.1151 160.0886 L 213.7704 181.5434 L 199.343 181.9687 L 183.1754 164.2029 Z " stroke-width="1.0534572489367935"/>
    <path id="ID0.6824178956449032" fill="none" stroke="#191919" stroke-width="2.106914497873587" stroke-linecap="round" d="M 218.927 99.6517 L 214.0914 180.9841 "/>
    <path id="ID0.4144489667378366" fill="#40474C" stroke="none" stroke-linecap="round" d="M 261.3667 69.8044 L 240.7725 60.0045 L 242.4579 83.2446 L 235.0833 146.6016 L 242.0225 194.635 L 253.8301 190.0568 L 253.8585 193.7813 L 253.9161 142.7296 L 261.7434 97.2171 L 263.8656 80.0658 L 261.3667 69.8044 Z " stroke-width="1.0534572489367935"/>
    <path id="ID0.5234400681219995" fill="#101010" stroke="none" d="M 216.2278 105.3767 C 215.7973 105.3497 215.3958 105.5028 215.0952 105.7721 C 214.7946 106.0414 214.5949 106.4269 214.5675 106.8641 C 214.5401 107.3013 214.6901 107.7087 214.9547 108.0135 C 215.2194 108.3182 215.5986 108.5202 216.0291 108.5472 C 216.4596 108.5742 216.8611 108.4211 217.1617 108.1518 C 217.4623 107.8825 217.662 107.4969 217.6894 107.0598 C 217.7168 106.6226 217.5668 106.2151 217.3022 105.9104 C 217.0376 105.6057 216.6583 105.4036 216.2278 105.3767 Z " stroke-width="0.6636780913406511"/>
    <path id="ID0.5234400681219995" fill="#101010" stroke="none" d="M 215.2778 119.7767 C 214.8473 119.7497 214.4458 119.9028 214.1452 120.1721 C 213.8446 120.4414 213.6449 120.8269 213.6175 121.2641 C 213.5901 121.7013 213.7401 122.1087 214.0047 122.4135 C 214.2694 122.7182 214.6486 122.9202 215.0791 122.9472 C 215.5096 122.9742 215.9111 122.8211 216.2117 122.5518 C 216.5123 122.2825 216.712 121.8969 216.7394 121.4598 C 216.7668 121.0226 216.6168 120.6151 216.3522 120.3104 C 216.0876 120.0057 215.7083 119.8036 215.2778 119.7767 Z " stroke-width="0.6636780913406511"/>
    <path id="ID0.5234400681219995" fill="#101010" stroke="none" d="M 213.1778 153.2267 C 212.7473 153.1997 212.3458 153.3528 212.0452 153.6221 C 211.7446 153.8914 211.5449 154.2769 211.5175 154.7141 C 211.4901 155.1513 211.6401 155.5587 211.9047 155.8635 C 212.1694 156.1682 212.5486 156.3702 212.9791 156.3972 C 213.4096 156.4242 213.8111 156.2711 214.1117 156.0018 C 214.4123 155.7325 214.612 155.3469 214.6394 154.9098 C 214.6668 154.4726 214.5168 154.0651 214.2522 153.7604 C 213.9876 153.4557 213.6083 153.2536 213.1778 153.2267 Z " stroke-width="0.6636780913406511"/>
    <path id="ID0.5234400681219995" fill="#101010" stroke="none" d="M 214.2278 137.4767 C 213.7973 137.4497 213.3958 137.6028 213.0952 137.8721 C 212.7946 138.1414 212.5949 138.5269 212.5675 138.9641 C 212.5401 139.4013 212.6901 139.8087 212.9547 140.1135 C 213.2194 140.4182 213.5986 140.6202 214.0291 140.6472 C 214.4596 140.6742 214.8611 140.5211 215.1617 140.2518 C 215.4623 139.9825 215.662 139.5969 215.6894 139.1598 C 215.7168 138.7226 215.5668 138.3151 215.3022 138.0104 C 215.0376 137.7057 214.6583 137.5036 214.2278 137.4767 Z " stroke-width="0.6636780913406511"/>
    <path id="ID0.5234400681219995" fill="#101010" stroke="none" d="M 212.4278 168.0767 C 211.9973 168.0497 211.5958 168.2028 211.2952 168.4721 C 210.9946 168.7414 210.7949 169.1269 210.7675 169.5641 C 210.7401 170.0013 210.8901 170.4087 211.1547 170.7135 C 211.4194 171.0182 211.7986 171.2202 212.2291 171.2472 C 212.6596 171.2742 213.0611 171.1211 213.3617 170.8518 C 213.6623 170.5825 213.862 170.1969 213.8894 169.7598 C 213.9168 169.3226 213.7668 168.9151 213.5022 168.6104 C 213.2376 168.3057 212.8583 168.1036 212.4278 168.0767 Z " stroke-width="0.6636780913406511"/>
    <path id="ID0.4144489667378366" fill="#40474C" stroke="none" stroke-linecap="round" d="M 184.8941 64.1807 L 206.5508 57.0288 L 201.9769 79.8766 L 201.3833 143.6586 L 188.5011 190.4497 L 177.3575 184.4331 L 176.8643 188.1249 L 183.1813 137.4655 L 181.0978 91.3319 L 181.1336 74.0498 L 184.8941 64.1807 Z " stroke-width="1.0534572489367935"/>
    <path id="ID0.8752945330925286" fill="none" stroke="#222222" stroke-width="2.106914497873587" stroke-linecap="round" d="M 260.8285 70.0366 L 263.7044 78.4602 L 257.8072 118.2435 "/>
    <path id="ID0.8752945330925286" fill="none" stroke="#222222" stroke-width="2.106914497873587" stroke-linecap="round" d="M 184.6991 64.7783 L 180.794 72.7769 L 181.6779 112.9852 "/>
    <path id="ID0.5234400681219995" fill="#101010" stroke="none" d="M 237.2778 155.3767 C 236.8473 155.3497 236.4458 155.5028 236.1452 155.7721 C 235.8446 156.0414 235.6449 156.4269 235.6175 156.8641 C 235.5901 157.3013 235.7401 157.7087 236.0047 158.0135 C 236.2694 158.3182 236.6486 158.5202 237.0791 158.5472 C 237.5096 158.5742 237.9111 158.4211 238.2117 158.1518 C 238.5123 157.8825 238.712 157.4969 238.7394 157.0598 C 238.7668 156.6226 238.6168 156.2151 238.3522 155.9104 C 238.0876 155.6057 237.7083 155.4036 237.2778 155.3767 Z " stroke-width="0.6636780913406511"/>
    <path id="ID0.5234400681219995" fill="#101010" stroke="none" d="M 238.2778 163.1767 C 237.8473 163.1497 237.4458 163.3028 237.1452 163.5721 C 236.8446 163.8414 236.6449 164.2269 236.6175 164.6641 C 236.5901 165.1013 236.7401 165.5087 237.0047 165.8135 C 237.2694 166.1182 237.6486 166.3202 238.0791 166.3472 C 238.5096 166.3742 238.9111 166.2211 239.2117 165.9518 C 239.5123 165.6825 239.712 165.2969 239.7394 164.8598 C 239.7668 164.4226 239.6168 164.0151 239.3522 163.7104 C 239.0876 163.4057 238.7083 163.2036 238.2778 163.1767 Z " stroke-width="0.6636780913406511"/>
    <g id="ID0.20783481979742646">
      <path id="ID0.5848579816520214" fill="#737373" stroke="none" stroke-linecap="round" d="M 193.8452 94.9544 L 186.7986 92.9173 L 186.644 97.0558 L 194.1742 98.0596 L 193.8452 94.9544 Z " stroke-width="1.0534572489367935"/>
      <path id="ID0.13105127029120922" fill="none" stroke="#222222" stroke-width="2.106914497873587" stroke-linecap="round" d="M 195.566 98.4128 L 190.8715 98.1185 L 185.4941 96.186 "/>
    </g>
  </g>
  <path id="ID0.46110434643924236" fill="#675B50" stroke="none" stroke-linecap="round" d="M 236.3963 39.4698 L 212.8039 37.9911 L 211.0579 58.038 L 217.3307 61.4625 L 235.0617 60.7656 L 236.3963 39.4698 Z " stroke-width="1.144406894210797"/>
  <g id="ID0.9597035455517471">
    <path id="ID0.5368814701214433" fill="#404040" stroke="none" stroke-linecap="round" d="M 142.4634 216.0959 L 143.6057 205.9436 L 143.3314 194.6416 L 130.675 195.9535 L 115.9171 198.4555 L 93.7233 200.8405 L 89.6718 206.8693 L 113.8511 219.3153 L 136.7855 225.3373 L 142.4634 216.0959 Z " stroke-width="0.8471282696657984"/>
    <g id="ID0.5077062323689461">
      <path id="ID0.05466862628236413" fill="#252525" stroke="none" stroke-linecap="round" d="M 173.42 142.0035 L 152.9187 129.2455 L 148.356 144.8542 L 146.9496 150.2478 L 140.7219 164.911 L 123.8794 197.4896 L 144.1889 209.437 L 153.612 191.0363 L 158.9933 184.8789 L 163.5036 177.5606 L 166.6666 165.6306 L 171.1205 155.4343 L 173.42 142.0035 Z " stroke-width="0.6597530406986021"/>
      <path id="ID0.5319394422695041" fill="none" stroke="#131313" stroke-width="2.1997147942511126" stroke-linecap="round" d="M 124.5151 196.7528 L 144.3015 209.9475 L 150.2634 198.7383 "/>
    </g>
  </g>
  <g id="ID0.8820344842970371">
    <path id="ID0.3809091211296618" fill="#252525" stroke="none" stroke-linecap="round" d="M 212.2891 210.2892 L 245.5137 200.2758 L 226.3812 181.6763 L 189.1592 143.2516 L 179.9123 135.86 L 167.6772 130.9955 L 163.6202 139.2748 L 151.6897 148.4703 L 168.558 167.6012 L 178.203 178.2887 L 212.2891 210.2892 Z " stroke-width="0.8035436602052097"/>
    <path id="ID0.9495224836282432" fill="none" stroke="#131313" stroke-width="2.1997145314683637" stroke-linecap="round" d="M 188.913 143.3313 L 181.8797 137.1724 L 173.8109 133.0308 L 163.9285 136.8036 L 159.0666 134.0082 "/>
  </g>
  <path id="ID0.7592270169407129" fill="none" stroke="#675B50" stroke-width="1.0984285512949252" stroke-linecap="round" d="M 213.9022 52.8283 C 213.9022 52.8283 213.7368 53.5741 213.78 53.9466 C 213.8216 54.3082 214.0805 54.6202 214.1502 54.9775 C 214.2199 55.3371 214.1337 55.7145 214.1947 56.0754 C 214.2551 56.4343 214.3307 56.8053 214.512 57.1219 C 214.6662 57.3911 215.1734 57.7824 215.1734 57.7824 "/>
  <path id="ID0.48112139804288745" fill="#3A3A3A" stroke="#3A3A3A" stroke-width="2.036267516649342" stroke-linecap="round" d="M 202.5179 13.0001 C 201.8584 13.3501 202.4815 14.8389 202.1953 15.6737 C 201.9654 16.344 201.279 16.8278 201.1245 17.5192 C 200.9769 18.1824 201.2137 18.8794 201.3304 19.5482 C 201.6586 21.4355 201.5518 23.9222 202.4663 25.395 C 202.835 25.902 203.4869 24.1251 203.8968 23.5078 C 204.7342 22.2698 205.6283 20.9765 206.1957 19.669 C 206.4664 19.0453 206.4248 18.3278 206.5021 17.6527 C 206.5781 16.9827 206.9253 16.2516 206.6547 15.6327 C 206.3803 15.0045 205.6283 14.7005 205.0472 14.3278 C 204.2896 13.8425 203.2844 12.6771 202.5179 13.0001 Z "/>
  <path id="ID0.05099705280736089" fill="#1C1916" stroke="#1C1916" stroke-width="2.1621458414810037" stroke-linecap="round" d="M 238.7038 33.5452 C 239.0432 33.7267 238.5574 34.9717 238.3759 35.7935 C 238.2203 36.4967 237.775 37.1174 237.3491 37.7021 C 236.9221 38.2878 236.3701 38.7791 235.8408 39.2764 C 235.3115 39.7736 234.7292 40.2158 234.1734 40.6855 C 233.6176 41.1552 233.2348 42.1504 232.506 42.0947 C 231.7771 42.0389 231.1906 41.1605 231.0777 40.4475 C 230.8528 39.0279 231.056 37.5071 231.565 36.1616 C 231.8212 35.4857 232.6292 35.1608 233.2324 34.7525 C 233.8346 34.3452 234.4619 33.9299 235.1624 33.7259 C 236.1852 33.4279 237.4365 32.6929 238.3298 33.2673 Z "/>
  <path id="ID0.8999492498114705" fill="#796B5E" stroke="none" stroke-linecap="round" d="M 215.1942 3.6999 C 210.3914 4.0954 205.1727 6.8781 202.7501 10.99 C 199.9857 15.6847 201.532 21.7234 201.4957 27.1054 C 201.4807 29.4671 202.2283 31.9121 202.7272 34.287 C 203.4368 37.6613 204.3108 40.896 205.0534 44.1433 C 205.4887 46.1155 205.0941 48.4475 206.2635 49.9597 C 208.124 52.3646 210.6439 54.8411 213.6481 55.3835 C 217.1196 56.0096 220.5809 54.0856 223.9885 53.1019 C 225.6985 52.5499 227.7549 52.2047 228.9388 50.7957 C 231.476 47.7707 232.8286 43.8641 234.4239 40.3146 C 236.0988 36.5885 238.6136 32.9723 238.7723 28.8499 C 239.0417 21.8339 240.4637 13.2165 235.4193 8.0233 C 230.9156 3.0318 222.3338 3.1151 215.1942 3.6999 Z " stroke-width="0.5492253505499679"/>
  <path id="ID0.8194515448994935" fill="#796B5E" stroke="none" stroke-linecap="round" d="M 238.7095 24.6236 C 237.7783 24.6939 237.091 25.2882 236.5113 26.4117 C 235.9317 27.5352 235.5512 29.0966 235.5081 30.8298 C 235.4651 32.5629 235.7676 34.1414 236.2908 35.2922 C 236.814 36.4431 237.4728 37.0418 238.3975 37.1873 C 239.2463 37.319 240.3519 36.8855 240.7625 36.1715 C 241.5409 34.5813 241.4578 32.6699 241.5988 30.981 C 241.7379 29.3212 242.1749 27.5033 241.5596 25.9837 C 241.0614 25.0537 239.6853 24.55 238.7095 24.6236 Z " stroke-width="1.0810729207405019"/>
  <path id="ID0.8256730306893587" fill="none" stroke="#675B50" stroke-width="1.0984503720661314" stroke-linecap="round" d="M 210.0876 43.8004 C 210.0876 43.8004 211.4108 43.1471 212.1244 43.2031 C 212.7931 43.2041 213.2902 43.9492 213.9825 43.9611 C 214.8043 43.9748 215.5155 43.2556 216.334 43.2215 C 217.6608 43.6341 219.1846 44.0483 219.1846 44.0483 "/>
  <path id="ID0.7592270169407129" fill="none" stroke="#675B50" stroke-width="1.0984507010999358" stroke-linecap="round" d="M 217.0909 46.8726 C 217.0909 46.8726 216.4054 47.2263 216.0303 47.283 C 215.6662 47.3384 215.2938 47.1735 214.9265 47.201 C 214.557 47.2289 214.2109 47.4103 213.8423 47.447 C 213.4759 47.4838 213.0938 47.5092 212.7372 47.4196 C 212.4339 47.3433 211.9192 46.9626 211.9192 46.9626 "/>
  <path id="ID0.7788236327469349" fill="#FFFFFF" stroke="none" stroke-linecap="round" d="M 226.2299 25.9948 L 224.767 25.7435 L 222.3265 25.4143 L 219.9855 25.4636 L 219.5992 27.8716 L 222.3566 28.5848 L 227.812 28.0218 L 226.2299 25.9948 Z " stroke-width="1.0810729207405019"/>
  <path id="ID0.7788236327469349" fill="#FFFFFF" stroke="none" stroke-linecap="round" d="M 205.4591 25.8396 L 207.3227 25.2949 L 209.4435 25.3476 L 211.7792 25.513 L 212.0455 27.9372 L 209.2561 28.5126 L 204.2107 27.9038 L 205.4591 25.8396 Z " stroke-width="1.0810729207405019"/>
  <path id="ID0.2118154256604612" fill="#1C1916" stroke="#1C1916" stroke-width="2.1621458414810037" stroke-linecap="round" d="M 239.7321 22.4399 C 239.7488 22.9937 239.4031 25.4779 238.5338 26.8693 C 238.2131 27.3824 237.984 25.4781 237.66 24.8061 C 237.3464 24.1547 236.9183 23.5574 236.6191 22.8999 C 236.2992 22.1967 236.042 21.464 235.8023 20.7306 C 235.5696 20.02 235.3853 19.2912 235.2031 18.5668 C 235.0228 17.851 234.951 17.1046 234.7126 16.4056 C 234.4753 15.7077 234.1106 15.0561 233.7831 14.3947 C 233.4545 13.7333 233.3049 12.9205 232.7435 12.4348 C 232.166 11.9348 231.3498 11.7147 230.5869 11.6291 C 229.8554 11.5476 229.1297 11.8465 228.4023 11.951 C 227.6389 12.0599 226.8677 12.1342 226.109 12.2701 C 225.3744 12.4012 224.6413 12.5624 223.9205 12.753 C 223.2183 12.9386 222.5318 13.1902 221.8367 13.3996 C 221.1086 13.619 220.3611 13.7885 219.6441 14.0436 C 218.9502 14.2907 218.3184 14.707 217.6094 14.9064 C 216.9025 15.1048 216.1375 15.4103 215.4248 15.2282 C 214.7089 15.045 214.2566 14.3289 213.6622 13.8951 C 213.0636 13.459 212.5003 12.9593 211.844 12.6143 C 211.2016 12.277 210.5048 12.0223 209.7948 11.865 C 208.5913 11.5998 207.2086 11.1378 205.8888 11.3919 C 204.6246 11.6377 203.1044 13.779 202.4135 13.2934 C 201.7579 12.828 202.8349 10.6971 203.4339 9.4506 C 204.0811 8.1063 205.0524 6.9002 206.1349 5.8644 C 207.1783 4.8663 208.3827 3.9593 209.7323 3.4287 C 211.1016 2.89 212.6381 2.8991 214.1027 2.7314 C 214.823 2.6482 215.5567 2.7309 216.2806 2.678 C 217.0111 2.6241 217.731 2.4282 218.4638 2.4099 C 219.9121 2.3738 221.3859 2.2783 222.8143 2.5179 C 224.3012 2.7665 225.6908 3.4307 227.1341 3.8608 C 227.8492 4.0741 228.5891 4.2118 229.296 4.4518 C 230.6935 4.927 232.0881 5.4312 233.4473 6.0054 C 234.1182 6.2885 234.8468 6.5301 235.381 7.0205 C 235.9449 7.5373 236.1745 8.3274 236.6394 8.9321 C 237.0896 9.517 237.7483 9.946 238.1221 10.5806 C 238.5105 11.2414 238.6972 12.0068 238.8845 12.7485 C 239.0618 13.4535 239.1656 14.1803 239.2118 14.9056 C 239.2572 15.6191 239.0858 16.3412 239.1585 17.0533 C 239.2328 17.7868 239.4884 18.4937 239.6489 19.2144 C 239.7811 19.8076 240.1278 20.3964 240.04 20.997 Z "/>
  <path id="ID0.5261953212320805" fill="none" stroke="#1C1916" stroke-width="2.1621459935623433" stroke-linecap="round" d="M 228.6792 25.4968 C 228.6792 25.4968 228.0171 24.066 227.4283 23.5747 C 226.865 23.1044 226.1011 22.9003 225.3826 22.7436 C 224.664 22.5868 223.9079 22.7297 223.1765 22.6471 C 221.8064 22.491 219.0801 22.0281 219.0801 22.0281 "/>
  <path id="ID0.5261953212320805" fill="none" stroke="#1C1916" stroke-width="2.162145938763759" stroke-linecap="round" d="M 203.2352 24.6426 C 203.2352 24.6426 203.9405 23.2325 204.5439 22.7594 C 205.1212 22.3063 205.8909 22.1255 206.6139 21.9906 C 207.3369 21.8557 208.0883 22.0214 208.8218 21.961 C 210.1961 21.8466 212.9351 21.4666 212.9351 21.4666 "/>
  <path id="ID0.8619630038738251" fill="none" stroke="#675B50" stroke-width="1.2706583679086494" stroke-linecap="round" d="M 215.4786 26.7577 C 215.4786 26.7577 215.034 29.8553 214.8209 31.351 C 214.699 32.191 214.8468 33.1406 214.4067 33.8665 C 213.872 34.6899 212.6594 34.6403 212.3541 35.3942 C 211.9483 36.1804 211.789 37.6503 212.5479 37.8933 C 213.7015 38.2623 214.8102 36.8311 216.0939 36.75 C 216.7831 36.7071 217.9583 37.6488 217.9583 37.6488 "/>
  <path id="ID0.6736386958509684" fill="none" stroke="#675B50" stroke-width="1.3553751621241645" stroke-linecap="round" d="M 228.8348 34.8197 C 228.8348 34.8197 228.2277 35.6129 227.8851 35.9749 C 227.5727 36.3052 227.191 36.5672 226.8731 36.8927 C 226.5483 37.2255 226.1884 37.5445 225.9601 37.9477 C 225.7282 38.3562 225.5449 38.8164 225.5176 39.2838 C 225.4448 40.5396 225.6626 43.0594 225.6626 43.0594 "/>
  <path id="ID0.18298013787716627" fill="#1C1916" stroke="#1C1916" stroke-width="2.1621458414810037" stroke-linecap="round" d="M 229.5226 11.0816 C 229.9794 11.3121 230.4713 12.3193 230.285 13.2495 C 229.9895 14.7196 228.5771 16.2447 228.8188 17.511 C 228.9383 18.134 230.319 17.3151 231.0074 17.0281 C 231.6782 16.7482 232.2379 16.2539 232.8326 15.8378 C 233.4739 15.3896 234.3211 15.1044 234.7176 14.4341 C 235.0845 13.8146 235.1894 12.9619 234.934 12.2905 C 234.6776 11.6147 233.9763 11.1535 233.3386 10.8003 C 232.687 10.4392 231.9176 10.3051 231.1767 10.2094 C 230.8632 10.1694 230.3349 10.1014 230.2469 10.4012 Z "/>
  <path id="ID0.7592270169407129" fill="none" stroke="#675B50" stroke-width="1.0984447827541848" stroke-linecap="round" d="M 215.2895 18.9526 C 215.2895 18.9526 215.0289 19.6716 215.0236 20.0463 C 215.018 20.41 215.2345 20.7516 215.2575 21.1146 C 215.2802 21.4798 215.1458 21.8433 215.1596 22.2089 C 215.1731 22.5722 215.2001 22.9495 215.339 23.2859 C 215.4572 23.5721 215.9098 24.0232 215.9098 24.0232 "/>
  <path id="ID0.48112139804288745" fill="#3A3A3A" stroke="#3A3A3A" stroke-width="2.036267516649342" stroke-linecap="round" d="M 239.2675 15.3542 C 239.9088 15.7365 239.2126 17.1926 239.457 18.0406 C 239.6533 18.7214 240.3149 19.2387 240.4349 19.9369 C 240.5494 20.6066 240.2783 21.291 240.1286 21.9532 C 239.707 23.8218 239.6903 26.3108 238.7038 27.7364 C 238.3104 28.2245 237.7475 26.4174 237.3687 25.7806 C 236.5938 24.5025 235.7651 23.1664 235.2632 21.8323 C 235.0238 21.196 235.101 20.4814 235.0573 19.8034 C 235.0146 19.1304 234.7042 18.383 235.0051 17.7782 C 235.3104 17.1645 236.0765 16.8981 236.6754 16.5548 C 237.4562 16.1077 238.518 14.9936 239.2675 15.3542 Z "/>
  <path id="ID0.7766774026677012" fill="#0D0D0D" stroke="#0D0D0D" stroke-width="1.8086520039145781" stroke-linecap="round" d="M 1 195.2018 C 1.718 168.513 0.989 140.7886 12 115.2773 C 16.164 105.6321 31.459 101.1874 43.5 97.7377 C 48.996 96.1655 54.566 100.1119 60 101.5247 C 61.543 101.9225 62.688 102.7572 64 103.3185 C 65.857 103.9539 67.811 104.4362 69.5 105.1123 C 70.098 105.3531 70.7 105.5907 71.25 105.9096 C 71.9 106.1886 72.4 106.5872 73 106.9061 C 74.25 107.5041 75.5 108.1419 76.75 108.6999 C 78 109.1783 79.3 109.5769 80.5 110.0951 C 81.1 110.3343 81.75 110.5336 82.25 110.8924 C 82.85 111.2512 83.25 111.8092 83.75 112.2876 C 84.25 112.6862 84.75 113.0848 85.25 113.4835 C 85.75 113.8422 86.4 114.201 86.75 114.6793 C 87.15 115.1178 87.25 115.7158 87.5 116.2738 C 87.75 116.7921 88.05 117.3103 88.25 117.8683 C 88.7 118.9048 89.1 119.9811 89.5 121.0574 C 89.75 121.5756 90 122.0938 90.25 122.6519 C 90.5 123.1701 90.75 123.6883 91 124.2464 C 91.25 124.7646 91.5 125.2828 91.75 125.8409 C 92 126.3591 92.35 126.8773 92.5 127.4354 C 92.7 127.9536 92.7 128.4718 92.75 129.0299 C 92.85 129.5481 92.95 130.0663 93 130.6244 C 93.1 131.1426 93.15 131.6608 93.25 132.2189 C 93.4 132.7371 93.65 133.2553 93.75 133.8134 C 94.2 135.368 94.6 137.0024 95 138.5969 C 95.15 139.1151 95.4 139.6333 95.5 140.1914 C 95.65 140.7096 95.7 141.2278 95.75 141.7859 C 95.85 142.3041 96 142.8223 96 143.3804 C 96.05 143.8986 96 144.4168 96 144.9749 C 96 146.0114 96.1 147.0876 96 148.1639 C 96 148.6821 95.8 148.9213 95.75 149.7584 C 95.7 152.9873 95.75 156.256 95.75 159.5248 C 95.75 162.6739 95.75 165.9028 95.75 169.0918 C 95.75 170.6464 95.7 172.2808 95.75 173.8753 C 95.8 174.3935 95.9 174.9117 96 175.4698 C 96.25 176.6657 96.6 177.8217 96.75 179.0575 C 96.85 179.5757 96.75 180.0939 96.75 180.652 C 96.8 181.1702 96.95 181.6884 97 182.2465 C 97.2 183.2829 97.45 184.3592 97.5 185.4355 C 97.6 186.4719 97.5 187.5482 97.5 188.6245 C 97.5 191.7736 97.5 195.0025 97.5 198.1915 C 97.5 198.9489 97.45 199.2279 97.5 199.786 C 97.6 200.3042 97.9 200.8224 98 201.3805 C 98.35 202.9352 98.5 204.5695 98.75 206.164 C 98.85 206.6822 98.9 207.2005 99 207.7585 C 99.3 208.8747 99.75 209.9908 100 211.1469 C 100.15 211.7049 100.2 212.3427 100.25 212.9407 C 100.35 213.4987 100.5 214.0967 100.5 214.7345 C 100.55 215.2527 100.5 215.7709 100.5 216.329 C 100.5 216.8472 100.6 217.3654 100.5 217.9235 C 100.35 218.9599 100 220.0362 99.75 221.1125 C 99.65 221.6307 99.55 222.1489 99.5 222.707 C 99.5 223.2252 99.5 223.7434 99.5 224.3015 C 99.5 224.8197 99.5 225.3379 99.5 225.896 C 99.6 226.9324 99.6 228.0087 99.75 229.085 C 99.95 230.0816 100.5 232.0747 100.5 232.0747 C 100.75 232.4733 101.372 234.7423 101.75 235.8617 C 101.955 236.47 102.277 237.0512 102.5 237.6555 C 102.694 238.1809 102.833 238.719 103 239.25 C 103.167 239.781 103.373 240.3064 103.5 240.8445 C 103.624 241.3707 103.626 241.9128 103.75 242.439 C 103.877 242.9771 104.045 243.5113 104.25 244.0335 C 104.462 244.5748 104.827 245.0779 105 245.628 C 105.163 246.147 105.167 246.6915 105.25 247.2225 C 105.333 247.7535 105.417 248.286 105.5 248.817 C 105.583 249.348 105.667 249.8806 105.75 250.4115 C 105.833 250.9425 105.972 251.4711 106 252.006 C 106.055 253.0672 105.945 254.1339 106 255.195 C 106.028 255.73 106.167 256.2586 106.25 256.7895 C 106.333 257.3205 106.472 257.8491 106.5 258.384 C 106.555 259.4452 106.528 260.5111 106.5 261.5731 C 106.444 263.6977 106.317 265.8272 106.25 267.9511 C 106.233 268.482 106.25 269.0146 106.25 269.5456 C 106.25 270.0765 106.208 270.6099 106.25 271.1401 C 106.292 271.6742 106.376 272.2084 106.5 272.7346 C 106.627 273.2727 106.915 273.7862 107 274.3291 C 107.083 274.8561 106.958 275.3934 107 275.9236 C 107.042 276.4578 107.208 276.9839 107.25 277.5181 C 107.292 278.0483 107.208 278.5824 107.25 279.1126 C 107.292 279.6468 107.376 280.1809 107.5 280.7071 C 107.627 281.2453 107.873 281.7635 108 282.3016 C 108.124 282.8278 108.126 283.3699 108.25 283.8961 C 108.377 284.4343 108.637 284.9509 108.75 285.4906 C 108.971 286.5462 109.083 287.6177 109.25 288.6796 C 109.333 289.2106 109.417 289.7432 109.5 290.2741 C 109.583 290.8051 109.708 291.3345 109.75 291.8686 C 109.792 292.3988 109.792 292.933 109.75 293.4631 C 109.708 293.9973 109.528 294.5227 109.5 295.0576 C 109.445 296.1188 109.335 297.1927 109.5 298.2467 C 109.67 299.3325 110.116 300.3849 110.5 301.4357 C 110.699 301.9802 111.038 302.4888 111.25 303.0302 C 111.455 303.5524 111.545 304.1025 111.75 304.6247 C 111.962 305.166 112.369 305.6619 112.5 306.2192 C 112.623 306.7414 112.892 307.384 112.5 307.8137 C 112.082 308.2721 111.206 308.3415 110.5 308.4116 C 109.834 308.4778 109.171 308.2123 108.5 308.2123 C 107.829 308.2123 107.171 308.4116 106.5 308.4116 C 105.829 308.4116 105.17 308.2458 104.5 308.2123 C 103.835 308.1788 103.161 308.1461 102.5 308.2123 C 101.819 308.2801 101.122 308.3797 100.5 308.6109 C 99.851 308.8525 99.429 309.4273 98.75 309.6075 C 98.118 309.7757 97.416 309.6075 96.75 309.6075 C 96.084 309.6075 95.411 309.6737 94.75 309.6075 C 94.069 309.5397 93.431 309.2766 92.75 309.2089 C 92.089 309.1427 91.415 309.1754 90.75 309.2089 C 90.08 309.2424 89.42 309.3747 88.75 309.4082 C 88.085 309.4417 87.411 309.342 86.75 309.4082 C 86.069 309.476 85.431 309.739 84.75 309.8068 C 84.089 309.873 83.415 309.7733 82.75 309.8068 C 82.08 309.8403 81.416 309.94 80.75 310.0061 C 80.084 310.0723 79.421 310.2222 78.75 310.2054 C 76.746 310.1552 74.751 309.9065 72.75 309.8068 C 72.085 309.7733 71.415 309.7733 70.75 309.8068 C 70.08 309.8403 69.421 309.9838 68.75 310.0061 C 67.419 310.05 66.081 309.9623 64.75 310.0061 C 64.079 310.0284 63.42 310.172 62.75 310.2054 C 62.085 310.2389 61.415 310.2389 60.75 310.2054 C 60.08 310.172 59.42 310.0396 58.75 310.0061 C 58.085 309.9726 57.415 310.0396 56.75 310.0061 C 56.08 309.9726 55.419 309.8515 54.75 309.8068 C 53.42 309.7183 52.085 309.6075 50.75 309.6075 C 50.079 309.6075 49.41 309.708 48.75 309.8068 C 48.075 309.9081 47.431 310.1377 46.75 310.2054 C 46.089 310.2716 45.416 310.2054 44.75 310.2054 C 42.752 310.2054 40.747 310.156 38.75 310.2054 C 38.079 310.2222 37.42 310.3713 36.75 310.4047 C 36.085 310.4382 35.415 310.4382 34.75 310.4047 C 34.08 310.3713 33.416 310.2716 32.75 310.2054 C 32.084 310.1393 31.42 310.0396 30.75 310.0061 C 30.085 309.9726 29.405 310.1042 28.75 310.0061 C 28.051 309.9017 28.346 309.7438 26.75 309.4082 C 20.367 308.0656 8.928 310.6264 7.35 305.4618 C 1.723 287.0349 9.575 267.2638 8.5 248.2191 C 7.508 230.6843 0.545 213.0435 1 195.2018 Z "/>
  <g id="ID0.15551237482577562">
    <path id="ID0.036129117012023926" fill="#5E3B21" stroke="none" d="M 221.8758 25.1308 C 221.4331 25.1198 221.0274 25.287 220.7299 25.5665 C 220.4324 25.846 220.2431 26.2378 220.2322 26.6748 C 220.2214 27.1119 220.391 27.5126 220.6743 27.8065 C 220.9575 28.1004 221.3545 28.2876 221.7971 28.2986 C 222.2398 28.3095 222.6455 28.1423 222.943 27.8628 C 223.2405 27.5833 223.4298 27.1915 223.4407 26.7545 C 223.4515 26.3175 223.2819 25.9168 222.9987 25.6228 C 222.7154 25.3289 222.3185 25.1418 221.8758 25.1308 Z " stroke-width="1.0810729207405019"/>
    <path id="ID0.9171876185573637" fill="#191009" stroke="none" d="M 221.3563 25.9163 C 221.1312 25.9107 220.9256 25.9958 220.774 26.1382 C 220.6225 26.2806 220.5261 26.4791 220.5206 26.7014 C 220.5151 26.9237 220.6015 27.1268 220.7458 27.2765 C 220.89 27.4262 221.0912 27.5214 221.3163 27.527 C 221.5415 27.5326 221.7471 27.4475 221.8986 27.3051 C 222.0502 27.1627 222.1465 26.9642 222.152 26.7419 C 222.1576 26.5196 222.0712 26.3166 221.9269 26.1668 C 221.7826 26.0171 221.5815 25.9219 221.3563 25.9163 Z " stroke-width="1.0810729207405019"/>
  </g>
  <g id="ID0.6915994533337653">
    <path id="ID0.036129117012023926" fill="#5E3B21" stroke="none" d="M 207.4258 24.9808 C 206.9831 24.9698 206.5774 25.137 206.2799 25.4165 C 205.9824 25.696 205.7931 26.0878 205.7822 26.5248 C 205.7714 26.9619 205.941 27.3626 206.2243 27.6565 C 206.5075 27.9504 206.9045 28.1376 207.3471 28.1486 C 207.7898 28.1595 208.1955 27.9923 208.493 27.7128 C 208.7905 27.4333 208.9798 27.0415 208.9907 26.6045 C 209.0015 26.1675 208.8319 25.7668 208.5487 25.4728 C 208.2654 25.1789 207.8685 24.9918 207.4258 24.9808 Z " stroke-width="1.0810729207405019"/>
    <path id="ID0.9171876185573637" fill="#191009" stroke="none" d="M 207.0063 25.7663 C 206.7812 25.7607 206.5756 25.8458 206.424 25.9882 C 206.2725 26.1306 206.1761 26.3291 206.1706 26.5514 C 206.1651 26.7737 206.2515 26.9768 206.3958 27.1265 C 206.54 27.2762 206.7412 27.3714 206.9663 27.377 C 207.1915 27.3826 207.3971 27.2975 207.5486 27.1551 C 207.7002 27.0127 207.7965 26.8142 207.802 26.5919 C 207.8076 26.3696 207.7212 26.1666 207.5769 26.0168 C 207.4326 25.8671 207.2315 25.7719 207.0063 25.7663 Z " stroke-width="1.0810729207405019"/>
  </g>
</svg>