<svg xmlns="http://www.w3.org/2000/svg" xmlns:xlink="http://www.w3.org/1999/xlink" version="1.1" width="145.1163466548606" height="328.0915663814231" viewBox="0.8966237020649465 -0.03657629965166731 145.1163466548606 328.0915663814231">
  <defs>
    <linearGradient id="grad_1" y2="1" x2="0">
      <stop offset="0" stop-color="#222325" stop-opacity="1"/>
      <stop offset="1" stop-color="#2E3034" stop-opacity="1"/>
    </linearGradient>
  </defs>
  <!-- Exported by Scratch - http://scratch.mit.edu/ -->
  <g id="ID0.17693647183477879">
    <path id="ID0.7729651997797191" fill="#393C40" stroke="none" stroke-linecap="round" d="M 102.3237 104.0262 L 83.0204 104.5676 L 85.9983 120.8333 L 88.2989 133.96 L 91.8192 139.5289 L 95.0199 142.9446 L 107.1926 140.0286 L 108.7382 134.4294 L 104.1038 115.1879 L 102.3237 104.0262 Z " stroke-width="0.7788099060140767"/>
    <path id="ID0.9716172609478235" fill="#34373A" stroke="none" stroke-linecap="round" d="M 98.173 109.4627 L 102.9168 107.3571 L 101.3288 101.0717 L 83.8641 109.7769 L 86.6506 112.7506 L 91.8466 114.7116 L 98.173 109.4627 Z " stroke-width="0.7788099060140767"/>
    <g id="ID0.38066427363082767">
      <path id="ID0.4757494777441025" fill="#1D1E1F" stroke="none" stroke-linecap="round" d="M 94.2063 79.9209 L 86.1017 77.6126 L 70.7433 81.7713 L 77.7845 106.3119 L 87.503 111.3993 L 91.7823 112.5608 L 94.9202 110.3906 L 97.736 107.642 L 103.2645 105.3223 L 103.5477 100.1056 L 103.1176 92.3664 L 100.3116 84.3228 L 94.2063 79.9209 Z " stroke-width="0.4541860540506412"/>
      <path id="ID0.6007084371522069" fill="none" stroke="#0D0D0D" stroke-width="0.9083721081012824" stroke-linecap="round" d="M 102.7995 105.648 L 97.8495 107.6457 L 93.6497 111.031 L 91.7786 112.6743 L 87.503 111.3993 L 83.374 109.1065 "/>
    </g>
  </g>
  <g id="ID0.7397577832452953">
    <path id="ID0.6726378230378032" fill="#34373A" stroke="none" stroke-linecap="round" d="M 90.6645 132.4214 L 108.3759 132.6057 L 108.7366 134.893 L 91.2926 134.3854 L 90.6645 132.4214 Z " stroke-width="0.7788098889641305"/>
    <path id="ID0.6507829907350242" fill="#1D1E1F" stroke="none" stroke-linecap="round" d="M 88.3961 134.8181 L 108.9542 134.6912 L 117.285 150.773 L 120.4251 160.5933 L 127.7922 174.0957 L 131.2891 179.2853 L 122.1375 186.4965 L 118.9824 181.1204 L 112.968 173.7557 L 104.8866 164.6353 L 98.9654 157.4415 L 88.3961 134.8181 Z " stroke-width="0.7788098889641305"/>
    <path id="ID0.6829322893172503" fill="#1D1E1F" stroke="none" stroke-linecap="round" d="M 121.6092 186.3412 L 127.9946 177.3122 L 133.2471 180.4349 L 139.3698 183.5264 L 141.981 188.3121 L 143.6131 192.523 L 143.3027 196.0193 L 145.1837 202.3123 L 141.1594 204.2863 L 139.2013 203.1366 L 137.7407 203.7117 L 133.7937 202.9819 L 129.4893 202.0035 L 125.7286 199.1758 L 123.1483 192.8207 L 121.6092 186.3412 Z " stroke-width="0.7788098889641305"/>
    <path id="ID0.47767175547778606" fill="none" stroke="#0D0D0D" stroke-width="1.557619777928261" stroke-linecap="round" d="M 90.2053 138.1338 L 88.5795 134.5849 L 108.8858 134.7285 L 115.0096 146.6027 "/>
    <path id="ID0.5922487881034613" fill="#282A2B" stroke="none" stroke-linecap="round" d="M 103.1286 163.8467 L 106.4685 155.9027 L 111.6333 153.1735 L 119.5522 155.3293 L 125.2007 168.5274 L 124.72 176.9962 L 121.8144 178.5815 L 113.3297 175.2261 L 103.1286 163.8467 Z " stroke-width="0.7788098889641305"/>
    <path id="ID0.36820242274552584" fill="#151616" stroke="none" stroke-linecap="round" d="M 109.5238 163.2081 L 116.5967 159.2604 L 119.6001 170.131 L 118.298 170.7528 L 109.5238 163.2081 Z " stroke-width="0.7788098889641305"/>
    <path id="ID0.13569410238415003" fill="none" stroke="#232425" stroke-width="1.557619777928261" stroke-linecap="round" d="M 114.0649 172.7579 L 122.1331 176.1631 L 123.1515 167.6228 "/>
    <path id="ID0.024502143263816833" fill="none" stroke="#0D0D0D" stroke-width="1.557619777928261" stroke-linecap="round" d="M 103.3761 163.3302 L 106.2499 155.9955 L 111.1971 153.03 L 119.1844 155.1486 L 122.3491 162.7374 "/>
  </g>
  <path id="ID0.3809091211296618" fill="#393D40" stroke="none" stroke-linecap="round" d="M 61.4329 178.6835 L 83.2086 160.2363 L 96.185 196.7953 L 98.0761 207.5766 L 97.5608 226.181 L 89.8979 230.9383 L 77.7093 235.5088 L 72.4357 215.3682 L 71.2791 203.9695 L 61.4329 178.6835 Z " stroke-width="0.7305890087281747"/>
  <path id="ID0.5368814701214433" fill="#292D2E" stroke="none" stroke-linecap="round" d="M 66.7691 315.1088 L 68.5256 305.9876 L 71.823 296.2519 L 82.4534 300.8164 L 94.5857 306.9829 L 113.204 315.0605 L 115.0887 321.39 L 90.7326 325.648 L 69.1959 324.667 L 66.7691 315.1088 Z " stroke-width="0.7702165414137274"/>
  <path id="ID0.05466862628236413" fill="#292D2E" stroke="none" stroke-linecap="round" d="M 75.5274 226.6629 L 102.2032 224.8182 L 95.9163 243.2489 L 93.9657 248.1563 L 92.0068 266.1928 L 85.7467 306.4616 L 69.9754 307.1523 L 69.4664 284.9089 L 67.3964 276.093 L 66.7809 266.5935 L 69.8761 253.2812 L 70.8088 240.9954 L 75.5274 226.6629 Z " stroke-width="0.7305890102790551"/>
  <path id="ID0.4490455654449761" fill="none" stroke="#272A2B" stroke-width="1.6585524654074606" stroke-linecap="round" d="M 75.1308 226.9195 L 101.8256 224.6888 L 93.2115 248.5142 "/>
  <path id="ID0.10446935473009944" fill="none" stroke="#242728" stroke-width="1.6585524654074606" stroke-linecap="round" d="M 91.9402 260.7855 L 90.5016 277.5622 L 79.4289 284.0803 "/>
  <path id="ID0.42170455446466804" fill="none" stroke="#242728" stroke-width="1.6585524654074606" stroke-linecap="round" d="M 89.314 278.6395 L 86.7214 293.5487 L 75.4145 300.2431 "/>
  <path id="ID0.047098892275244" fill="none" stroke="#242728" stroke-width="1.6585524654074606" stroke-linecap="round" d="M 70.88 240.8482 L 70.1105 244.7125 L 73.924 253.8825 "/>
  <path id="ID0.3809091211296618" fill="#3E4246" stroke="none" stroke-linecap="round" d="M 31.9127 158.1666 L 57.3254 166.5983 L 68.0604 203.8771 L 69.2941 214.7532 L 67.6513 233.2921 L 59.7139 237.5759 L 47.2706 241.3987 L 42.3253 220.1957 L 37.9946 207.498 L 31.9127 158.1666 Z " stroke-width="0.7305889501656307"/>
  <path id="ID0.5368814701214433" fill="#303436" stroke="none" stroke-linecap="round" d="M 18.9192 313.1504 L 22.0481 304.4045 L 26.7937 295.2866 L 36.6023 301.421 L 47.6506 309.368 L 64.8168 320.1942 L 65.7128 326.7373 L 40.9921 327.2257 L 19.8578 322.9672 L 18.9192 313.1504 Z " stroke-width="0.770216547640666"/>
  <path id="ID0.05466862628236413" fill="#303436" stroke="none" stroke-linecap="round" d="M 44.763 224.2023 L 71.2878 227.5834 L 61.5349 244.4386 L 58.6666 248.8726 L 53.2356 266.1833 L 39.2596 304.4642 L 23.6553 302.0729 L 27.4842 280.1556 L 27.1692 271.1055 L 28.4139 261.6678 L 34.0403 249.2122 L 37.3458 237.3427 L 44.763 224.2023 Z " stroke-width="0.7305889741385942"/>
  <path id="ID0.4490455654449761" fill="none" stroke="#272A2B" stroke-width="1.658552408354669" stroke-linecap="round" d="M 44.3638 224.9873 L 70.9824 227.9935 L 57.8969 249.6874 "/>
  <path id="ID0.10446935473009944" fill="none" stroke="#242728" stroke-width="1.658552408354669" stroke-linecap="round" d="M 54.2622 261.4768 L 49.5866 277.653 L 37.4573 281.8918 "/>
  <path id="ID0.42170455446466804" fill="none" stroke="#242728" stroke-width="1.658552408354669" stroke-linecap="round" d="M 48.2121 278.4785 L 42.768 292.5982 L 30.3746 296.9646 "/>
  <path id="ID0.047098892275244" fill="none" stroke="#242728" stroke-width="1.658552408354669" stroke-linecap="round" d="M 37.5853 237.8 L 36.0787 241.4407 L 38.0349 251.1775 "/>
  <g id="ID0.17693647183477879">
    <path id="ID0.7729651997797191" fill="#3E4246" stroke="none" stroke-linecap="round" d="M 18.3487 95.1293 L 38.0784 99.6658 L 31.6639 115.7707 L 26.5926 128.7889 L 21.826 133.7872 L 17.8319 136.6382 L 5.9212 131.1311 L 5.487 125.0573 L 14.2177 106.2351 L 18.3487 95.1293 Z " stroke-width="0.8164594684627977"/>
    <path id="ID0.9716172609478235" fill="#393C40" stroke="none" stroke-linecap="round" d="M 21.4942 101.5731 L 17.0524 98.4308 L 19.9805 92.2977 L 36.1371 104.8462 L 32.6599 107.3283 L 26.9147 108.2727 L 21.4942 101.5731 Z " stroke-width="0.8164594684627977"/>
    <g id="ID0.38066427363082767">
      <path id="ID0.4757494777441025" fill="#1D1E1F" stroke="none" stroke-linecap="round" d="M 31.6839 71.958 L 40.4904 71.2564 L 55.4194 78.6976 L 43.1221 102.4703 L 32.0839 105.6957 L 27.4459 106.0073 L 24.668 103.1297 L 22.3403 99.7238 L 17.136 96.1997 L 17.9206 90.7792 L 19.9584 82.913 L 24.5009 75.2237 L 31.6839 71.958 Z " stroke-width="0.4761425265670156"/>
      <path id="ID0.6007084371522069" fill="none" stroke="#0D0D0D" stroke-width="0.9522850531340312" stroke-linecap="round" d="M 17.5469 96.6303 L 22.2229 99.7042 L 25.8419 104.0498 L 27.4263 106.1247 L 32.0839 105.6957 L 36.8006 104.1904 "/>
    </g>
  </g>
  <g id="ID0.9157347986474633">
    <path id="ID0.7477802094072104" fill="#363A3D" stroke="none" stroke-linecap="round" d="M 92.8104 125.8789 L 73.4572 121.748 L 71.265 162.8759 L 87.4312 172.678 L 91.0186 148.313 L 92.8104 125.8789 Z " stroke-width="0.4761425835147176"/>
    <path id="ID0.7477802094072104" fill="#363A3D" stroke="none" stroke-linecap="round" d="M 32.6628 122.6673 L 56.2316 121.0627 L 54.0395 162.1906 L 36.9229 170.2186 L 32.7919 144.8463 L 32.6628 122.6673 Z " stroke-width="0.4761425835147176"/>
    <path id="ID0.4270821204409003" fill="#3E4246" stroke="none" stroke-linecap="round" d="M 34.0517 102.7169 L 38.5207 90.4386 L 41.0896 84.7345 L 48.0011 78.0698 L 78.9493 81.1499 L 85.6155 85.7966 L 88.2529 89.9901 L 94.6578 101.7751 L 93.3871 112.1974 L 92.1447 117.6146 L 93.4414 124.5976 L 93.6254 130.0908 L 91.1183 136.871 L 89.2229 142.015 L 87.5401 151.2233 L 87.872 173.1746 L 82.2998 181.1027 L 77.1906 187.0529 L 64.8011 191.8282 L 53.3844 188.1919 L 49.8191 181.2787 L 45.2164 174.5964 L 36.8464 171.0509 L 37.0548 145.6714 L 36.221 138.9515 L 32.2647 127.297 L 31.5337 116.4104 L 34.0517 102.7169 Z " stroke-width="0.4761425835147176"/>
    <path id="ID0.052435632329434156" fill="#393C40" stroke="none" stroke-linecap="round" d="M 43.4725 153.1066 L 47.9156 153.3911 L 54.3259 157.0228 L 59.3985 157.1263 L 65.1755 159.2223 L 69.4166 158.3755 L 71.1061 157.9888 L 85.48 155.3457 L 85.6618 158.6454 L 76.8816 162.3496 L 70.9547 161.7237 L 65.2058 164.4689 L 58.7368 160.5957 L 52.2952 160.6814 L 42.6319 156.3518 L 43.4725 153.1066 Z " stroke-width="0.4761425835147176"/>
    <path id="ID0.4987568911164999" fill="none" stroke="#27282B" stroke-width="0.9522851670294352" stroke-linecap="round" d="M 47.738 78.7227 L 40.9898 84.5616 L 37.1293 94.369 "/>
    <path id="ID0.2889464790932834" fill="none" stroke="#27282B" stroke-width="0.9522851670294352" stroke-linecap="round" d="M 80.2315 81.8851 L 85.7344 85.9929 L 90.9458 95.5687 "/>
    <path id="ID0.8373676878400147" fill="#000000" stroke="#2C2F31" stroke-width="0.6155104372745834" stroke-linecap="round" d="M 50.694 91.9213 L 51.1191 90.4108 L 47.4368 91.1299 L 42.4145 94.2151 L 38.0291 99.047 L 35.2899 104.5462 L 40.5363 102.5586 L 45.2334 102.6894 L 47.9299 103.7462 L 50.3132 106.8624 L 52.4672 105.9482 L 56.4858 105.8723 L 60.9407 107.142 L 64.6163 110.5122 L 66.5335 113.6695 L 68.8414 110.7609 L 72.6953 107.8171 L 76.8793 106.5965 L 82.0308 106.8395 L 83.8304 107.5184 L 85.6839 104.4975 L 87.7023 103.3414 L 90.275 104.0028 L 92.9949 105.7559 L 91.7506 101.8788 L 89.6684 97.8598 L 86.9782 94.72 L 83.9221 92.3235 L 79.4553 91.2073 L 81.5379 93.22 L 81.4018 94.9843 L 79.7019 97.0139 L 76.0726 98.0458 L 72.8979 98.1868 L 70.2779 98.1391 L 67.9419 94.4092 L 67.3986 96.4508 L 65.9411 96.3384 L 64.5136 93.8361 L 63.3443 97.9901 L 59.2609 97.9066 L 55.1836 96.7433 L 51.9089 95.1789 L 50.694 91.9213 Z "/>
    <path id="ID0.5698574706912041" fill="none" stroke="#313537" stroke-width="0.9522851670294352" stroke-linecap="round" d="M 43.41 152.9364 L 42.6446 156.1141 L 52.2888 160.8003 L 59.0832 160.8049 L 64.9744 164.3374 "/>
    <path id="ID0.5698574706912041" fill="none" stroke="#313537" stroke-width="0.893306647888475" stroke-linecap="round" d="M 85.1626 155.4047 L 85.5096 158.6417 L 76.6873 162.3436 L 70.7999 161.6722 L 65.3441 164.5999 "/>
    <path id="ID0.8947288258932531" fill="#393C40" stroke="none" stroke-linecap="round" d="M 45.3537 141.0718 L 52.3731 141.3268 L 59.8079 143.6303 L 65.172 149.4473 L 58.3207 144.6954 L 47.655 142.6249 L 42.3828 145.3717 L 45.3537 141.0718 Z " stroke-width="0.4761425835147176"/>
    <path id="ID0.8947288258932531" fill="#393C40" stroke="none" stroke-linecap="round" d="M 83.981 144.0973 L 77.7802 143.6613 L 71.0212 144.989 L 65.7538 149.6031 L 72.2297 146.0661 L 81.8099 145.2475 L 86.1908 148.1606 L 83.981 144.0973 Z " stroke-width="0.4213739024762617"/>
    <path id="ID0.9897695370018482" fill="#393C40" stroke="none" stroke-linecap="round" d="M 48.1482 153.4989 L 41.6359 152.6749 L 42.3109 148.0619 L 43.3133 151.62 L 48.3932 152.0338 L 54.3405 155.8554 L 59.8273 155.7902 L 63.8403 157.4346 L 65.6374 149.6629 L 65.353 159.4702 L 59.8727 157.1754 L 54.0007 156.8624 L 48.1482 153.4989 Z " stroke-width="0.4761425835147176"/>
    <path id="ID0.9897695370018482" fill="#393C40" stroke="none" stroke-linecap="round" d="M 80.333 155.513 L 85.8855 155.3655 L 85.7534 151.0348 L 84.5749 154.2314 L 80.2654 154.1347 L 74.905 157.1084 L 70.2986 156.5302 L 66.7698 157.6725 L 65.9926 150.3141 L 65.306 159.4127 L 70.1297 157.8073 L 75.0956 158.072 L 80.333 155.513 Z " stroke-width="0.4232251176916529"/>
    <path id="ID0.3524594851769507" fill="#393C40" stroke="none" stroke-linecap="round" d="M 60.406 119.3948 L 66.1852 121.8962 L 70.755 119.8034 L 67.3904 123.4386 L 67.7483 134.6152 L 76.8516 134.2422 L 66.2488 137.2532 L 54.8495 131.9489 L 64.4175 134.4854 L 64.614 123.1952 L 60.406 119.3948 Z " stroke-width="0.4761425835147176"/>
    <path id="ID0.9214867809787393" fill="#393C40" stroke="none" stroke-linecap="round" d="M 45.5602 137.1968 L 48.7562 133.1473 L 53.5615 132.4498 L 47.4836 136.894 L 47.09 139.8054 L 52.1275 140.1216 L 60.1107 143.7657 L 51.2495 141.3861 L 45.4012 141.0744 L 45.5602 137.1968 Z " stroke-width="0.4761425835147176"/>
    <path id="ID0.9214867809787393" fill="#393C40" stroke="none" stroke-linecap="round" d="M 83.8498 139.9834 L 81.3441 135.8227 L 77.041 134.6832 L 82.1297 139.5049 L 82.1986 142.3071 L 77.5836 142.1066 L 70.7964 144.5888 L 78.2568 143.3938 L 83.6091 143.6791 L 83.8498 139.9834 Z " stroke-width="0.44517884910304273"/>
    <path id="ID0.8679121839813888" fill="#2C2F31" stroke="none" stroke-linecap="round" d="M 62.4162 118.4026 L 66.1338 120.2219 L 69.5495 118.759 L 70.4497 119.7606 L 66.3852 122.2141 L 60.7511 119.6728 L 62.4162 118.4026 Z " stroke-width="0.4761425835147176"/>
    <path id="ID0.24770551454275846" fill="none" stroke="#313537" stroke-width="0.9522851670294352" stroke-linecap="round" d="M 66.5393 116.7931 L 70.985 120.6062 L 78.4483 121.4809 L 86.1128 120.8165 L 91.5457 117.2916 "/>
    <path id="ID0.20603158557787538" fill="none" stroke="#313537" stroke-width="0.9522851670294352" stroke-linecap="round" d="M 33.502 110.9836 L 40.23 116.7064 L 52.4211 120.5747 L 59.7037 120.3669 L 66.0939 116.7737 "/>
    <g id="ID0.5272086253389716">
      <path id="ID0.24770551454275846" fill="none" stroke="#363A3D" stroke-width="0.9522851071127167" stroke-linecap="round" d="M 35.1874 143.5263 L 45.2457 140.8916 "/>
      <path id="ID0.24770551454275846" fill="none" stroke="#363A3D" stroke-width="0.9522851071127167" stroke-linecap="round" d="M 33.2674 131.5592 L 53.9957 126.4416 "/>
    </g>
    <g id="ID0.5272086253389716">
      <path id="ID0.24770551454275846" fill="none" stroke="#363A3D" stroke-width="0.952285127572382" stroke-linecap="round" d="M 90.4979 145.5338 L 83.6668 143.3347 "/>
      <path id="ID0.24770551454275846" fill="none" stroke="#363A3D" stroke-width="0.952285127572382" stroke-linecap="round" d="M 91.6072 134.2358 L 78.0054 128.7431 "/>
    </g>
    <g id="ID0.7887678607366979">
      <path id="ID0.753661650698632" fill="none" stroke="#313537" stroke-width="0.9522851071127167" stroke-linecap="round" d="M 60.8751 119.539 L 65.9786 122.1951 L 70.1594 119.7955 "/>
      <g id="ID0.8167418288066983">
        <path id="ID0.9553722990676761" fill="none" stroke="#313537" stroke-width="1.040910818023341" stroke-linecap="round" d="M 65.8251 137.0914 L 60.3343 134.6531 L 54.2704 132.4226 L 49.4556 133.1196 L 45.7244 137.2121 L 45.5407 140.6592 "/>
        <path id="ID0.5982440118677914" fill="none" stroke="#313537" stroke-width="0.8540413598832114" stroke-linecap="round" d="M 54.6386 132.0324 L 53.7317 126.6832 L 59.3375 119.9143 "/>
      </g>
      <g id="ID0.7324484633281827">
        <path id="ID0.04993448918685317" fill="none" stroke="#313537" stroke-width="0.9522851071127167" stroke-linecap="round" d="M 65.9849 122.0763 L 66.1406 132.5746 L 65.7417 149.0035 L 65.1114 165.301 "/>
        <g id="ID0.8167418288066983">
          <path id="ID0.9553722990676761" fill="none" stroke="#313537" stroke-width="0.9699703249483906" stroke-linecap="round" d="M 66.0266 136.9542 L 71.1271 135.8672 L 76.6512 134.2543 L 80.7907 135.4286 L 83.6437 139.872 L 83.46 143.3192 "/>
          <path id="ID0.5982440118677914" fill="none" stroke="#313537" stroke-width="0.7916616288905052" stroke-linecap="round" d="M 76.4973 133.9457 L 77.8246 128.7156 L 73.6001 121.4227 "/>
          <path id="ID0.3567589442245662" fill="none" stroke="#313537" stroke-width="0.896765529832119" stroke-linecap="round" d="M 65.5095 149.6182 L 70.8972 144.9226 L 78.3169 143.4108 L 83.8371 143.705 L 85.8273 148.4601 L 85.7462 155.4888 L 80.1672 155.9067 L 74.3568 158.6963 L 69.4557 158.1967 L 65.1553 159.8032 L 59.4546 156.996 L 53.859 156.9362 L 47.6045 153.5035 L 41.3487 152.4548 L 42.0571 145.4595 L 44.8551 140.9597 L 51.128 141.294 L 59.3487 143.6395 L 64.8968 148.9179 Z "/>
        </g>
      </g>
    </g>
    <g id="ID0.9312638868577778">
      <path id="ID0.2888958193361759" fill="#393C40" stroke="none" stroke-linecap="round" d="M 45.6408 161.3802 L 55.7325 164.0053 L 54.9833 166.8854 L 44.8916 164.2602 L 45.6408 161.3802 Z " stroke-width="0.47614253139852064"/>
      <path id="ID0.2888958193361759" fill="#393C40" stroke="none" stroke-linecap="round" d="M 34.9035 158.7353 L 46.2325 161.8053 L 45.4833 164.6854 L 35.3916 162.0602 L 34.9035 158.7353 Z " stroke-width="0.47614253139852064"/>
      <g id="ID0.36424446757882833">
        <path id="ID0.7359844641759992" fill="#8A7B59" stroke="none" d="M 48.473 160.7395 L 49.9945 160.8206 L 49.6625 167.0493 L 48.141 166.9682 L 48.473 160.7395 Z " stroke-width="0.47614255355635837"/>
        <path id="ID0.7359844641759992" fill="#8A7B59" stroke="none" d="M 46.623 160.2395 L 48.1445 160.3206 L 47.8125 166.5493 L 46.291 166.4682 L 46.623 160.2395 Z " stroke-width="0.47614255355635837"/>
        <path id="ID0.7359844641759992" fill="#8A7B59" stroke="none" d="M 44.723 159.4395 L 46.2445 159.5206 L 45.9125 165.7493 L 44.391 165.6682 L 44.723 159.4395 Z " stroke-width="0.47614255355635837"/>
        <path id="ID0.7359844641759992" fill="#8A7B59" stroke="none" d="M 50.373 161.3395 L 51.8945 161.4206 L 51.5625 167.6493 L 50.041 167.5682 L 50.373 161.3395 Z " stroke-width="0.47614255355635837"/>
      </g>
      <g id="ID0.1049797898158431">
        <path id="ID0.08871637750416994" fill="#8A7B59" stroke="none" stroke-linecap="round" d="M 36.7203 158.1154 L 43.0596 159.5023 L 42.7143 165.0865 L 36.614 163.6885 L 36.7203 158.1154 Z " stroke-width="0.47614255355635837"/>
        <path id="ID0.13805592898279428" fill="#76694C" stroke="none" stroke-linecap="round" d="M 36.496 157.8155 L 43.1444 159.2189 L 43.0861 162.1005 L 36.4191 160.6008 L 36.496 157.8155 Z " stroke-width="0.47614255355635837"/>
        <path id="ID0.3221200187690556" fill="#61563F" stroke="none" stroke-linecap="round" d="M 39.1893 160.1603 L 40.0474 160.5683 L 40.0312 162.327 L 39.0944 161.9406 L 39.1893 160.1603 Z " stroke-width="0.5167889062820781"/>
        <path id="ID0.1420820001512766" fill="#BAA578" stroke="none" stroke-linecap="round" d="M 42.0974 164.0932 L 42.8867 162.7048 L 42.8113 165.0133 L 36.6121 163.6816 L 42.0974 164.0932 Z " stroke-width="0.47614255355635837"/>
      </g>
      <path id="ID0.2888958193361759" fill="#393C40" stroke="none" stroke-linecap="round" d="M 83.0845 163.6864 L 75.5751 165.1018 L 75.8717 167.6577 L 83.3811 166.2423 L 83.0845 163.6864 Z " stroke-width="0.38104696673576577"/>
      <path id="ID0.2888958193361759" fill="#393C40" stroke="none" stroke-linecap="round" d="M 89.7141 162.2358 L 82.6251 163.8018 L 82.9217 166.3577 L 89.1381 165.1233 L 89.7141 162.2358 Z " stroke-width="0.38104696673576577"/>
      <path id="ID0.7359844641759992" fill="#8A7B59" stroke="none" d="M 81.0506 162.5758 L 79.9452 162.5169 L 79.6564 167.9352 L 80.7618 167.9941 L 81.0506 162.5758 Z " stroke-width="0.3816028231876755"/>
      <path id="ID0.7359844641759992" fill="#8A7B59" stroke="none" d="M 82.5006 162.1758 L 81.3952 162.1169 L 81.1064 167.5352 L 82.2118 167.5941 L 82.5006 162.1758 Z " stroke-width="0.3816028231876755"/>
      <path id="ID0.7359844641759992" fill="#8A7B59" stroke="none" d="M 83.9506 161.7758 L 82.8452 161.7169 L 82.5564 167.1352 L 83.6618 167.1941 L 83.9506 161.7758 Z " stroke-width="0.3816028231876755"/>
      <path id="ID0.7359844641759992" fill="#8A7B59" stroke="none" d="M 79.5506 163.0258 L 78.4452 162.9669 L 78.1564 168.3852 L 79.2618 168.4441 L 79.5506 163.0258 Z " stroke-width="0.3816028231876755"/>
      <g id="ID0.1049797898158431">
        <path id="ID0.08871637750416994" fill="#8A7B59" stroke="none" stroke-linecap="round" d="M 89.9221 161.1931 L 84.9337 161.8967 L 84.6952 167.0623 L 89.5012 166.3269 L 89.9221 161.1931 Z " stroke-width="0.40545296054305624"/>
        <path id="ID0.13805592898279428" fill="#76694C" stroke="none" stroke-linecap="round" d="M 90.2308 161.0208 L 85.0039 161.7117 L 84.7887 164.3665 L 90.0387 163.5887 L 90.2308 161.0208 Z " stroke-width="0.40545296054305624"/>
        <path id="ID0.3221200187690556" fill="#61563F" stroke="none" stroke-linecap="round" d="M 88.0069 162.8817 L 87.3119 163.1795 L 87.1657 164.798 L 87.9192 164.5273 L 88.0069 162.8817 Z " stroke-width="0.44006481193123964"/>
        <path id="ID0.1420820001512766" fill="#BAA578" stroke="none" stroke-linecap="round" d="M 85.4014 166.2883 L 84.9211 164.9406 L 84.7708 167.07 L 89.6467 166.4044 L 85.4014 166.2883 Z " stroke-width="0.40545296054305624"/>
      </g>
      <g id="ID0.6836685389280319">
        <path id="ID0.09357938077300787" fill="#857656" stroke="none" d="M 56.369 161.1682 L 74.3179 162.1249 L 73.9757 168.5437 L 56.0268 167.587 L 56.369 161.1682 Z " stroke-width="0.42833206515072153"/>
        <path id="ID0.6492703901603818" fill="#7C6E50" stroke="none" stroke-linecap="round" d="M 56.8981 163.3347 L 64.9352 166.8624 L 73.9198 164.242 L 73.693 168.4974 L 56.6712 167.5901 L 56.8981 163.3347 Z " stroke-width="0.47614255355635837"/>
        <g id="ID0.9254062357358634">
          <g id="ID0.49943465692922473">
            <path id="ID0.140373723115772" fill="#968561" stroke="none" d="M 72.8222 160.801 L 77.9335 161.0734 L 77.452 170.1073 L 72.3407 169.8349 L 72.8222 160.801 Z " stroke-width="0.47614255355635837"/>
            <path id="ID0.8286363878287375" fill="#BAA578" stroke="none" stroke-linecap="round" d="M 72.7986 160.6326 L 78.0161 161.1491 L 73.839 161.6894 L 72.7027 163.7745 L 72.7986 160.6326 Z " stroke-width="0.47614255355635837"/>
            <path id="ID0.7362233307212591" fill="#8A7B59" stroke="none" stroke-linecap="round" d="M 72.498 166.7199 L 75.2056 166.9119 L 77.7835 164.6175 L 77.4858 170.2042 L 72.3269 169.9293 L 72.498 166.7199 Z " stroke-width="0.47614255355635837"/>
          </g>
          <g id="ID0.49943465692922473">
            <path id="ID0.140373723115772" fill="#968561" stroke="none" d="M 57.699 160.2722 L 52.5877 159.9998 L 52.1062 169.0337 L 57.2175 169.3061 L 57.699 160.2722 Z " stroke-width="0.47614255355635837"/>
            <path id="ID0.8286363878287375" fill="#BAA578" stroke="none" stroke-linecap="round" d="M 57.8049 160.0734 L 52.5621 160.0324 L 56.6581 161.0136 L 57.5663 163.2077 L 57.8049 160.0734 Z " stroke-width="0.47614255355635837"/>
            <path id="ID0.7362233307212591" fill="#8A7B59" stroke="none" stroke-linecap="round" d="M 57.4567 166.1581 L 54.744 166.0612 L 52.4246 163.5058 L 52.1268 169.0926 L 57.2856 169.3676 L 57.4567 166.1581 Z " stroke-width="0.47614255355635837"/>
          </g>
        </g>
      </g>
    </g>
  </g>
  <g id="ID0.8333355090580881">
    <path id="ID0.9286923445761204" fill="#27282B" stroke="none" stroke-linecap="round" d="M 55.2738 44.3515 L 74.0235 46.4376 L 73.7083 70.795 L 88.7048 78.4282 L 65.4932 89.0359 L 29.2571 75.3052 L 49.4697 65.3624 L 55.2738 44.3515 Z " stroke-width="0.47614258048125685"/>
    <path id="ID0.5448851804248989" fill="none" stroke="#1D1E1F" stroke-width="0.9522851609625137" stroke-linecap="round" d="M 51.0845 59.6505 L 49.6662 65.1782 L 66.4955 73.5856 L 73.4197 70.8809 "/>
    <path id="ID0.262191956397146" fill="none" stroke="#1D1E1F" stroke-width="0.9522851609625137" stroke-linecap="round" d="M 53.6838 64.6895 L 66.1891 71.289 L 69.2235 70.2681 "/>
  </g>
  <g id="ID0.3450673264451325">
    <g id="ID0.9831569031812251">
      <path id="ID0.0877610077150166" fill="#2E3034" stroke="none" stroke-linecap="round" d="M 78.3837 13.9174 L 73.8347 0.7927 L 73.7839 29.3212 L 81.4553 29.3349 L 78.3837 13.9174 Z " stroke-width="0.5866066832012853"/>
      <path id="ID0.796130308881402" fill="#242628" stroke="none" stroke-linecap="round" d="M 78.6572 13.9904 L 73.7526 0.8651 L 77.2842 14.7094 L 78.1976 29.5984 L 81.3733 29.3089 L 78.6572 13.9904 Z " stroke-width="0.5866066832012853"/>
    </g>
    <g id="ID0.9831569031812251">
      <path id="ID0.0877610077150166" fill="#2E3034" stroke="none" stroke-linecap="round" d="M 54.5832 14.051 L 59.1789 0.9426 L 59.1281 29.4711 L 51.4567 29.4574 L 54.5832 14.051 Z " stroke-width="0.5866066832012853"/>
      <path id="ID0.796130308881402" fill="#242628" stroke="none" stroke-linecap="round" d="M 54.1409 14.1173 L 59.0922 1.0095 L 55.5113 14.8412 L 54.393 29.3986 L 51.3702 29.426 L 54.1409 14.1173 Z " stroke-width="0.5866066832012853"/>
    </g>
    <path id="ID0.8999492498114705" fill="#2E3034" stroke="none" stroke-linecap="round" d="M 72.09 19.9001 C 76.4933 20.387 81.2204 23.1058 83.3457 26.9925 C 85.7708 31.43 83.813 37.0251 84.1038 42.0211 C 84.274 43.7249 85.0634 45.479 84.7298 47.1026 C 84.0503 50.4052 82.3709 53.4311 81.2836 56.6222 C 80.5712 58.7136 80.4125 61.068 79.2401 62.969 C 77.9203 65.2193 76.572 68.351 73.9715 68.8021 C 70.1164 69.4704 66.0432 67.622 62.5967 65.8606 C 59.7655 64.4132 57.1159 62.1965 55.5465 59.4214 C 52.736 54.2715 50.1851 48.6069 49.81 42.7221 C 49.3944 36.1987 48.6386 28.1312 53.4007 23.423 C 57.661 18.8893 65.5442 19.1792 72.09 19.9001 Z " stroke-width="0.508037300705564"/>
    <path id="ID0.2441388238221407" fill="#AB8E85" stroke="none" d="M 69.7333 44.742 C 73.8133 44.9163 79.2579 41.7613 81.9782 44.5127 C 84.4288 47.1078 81.0519 51.9632 80.075 55.4351 C 79.1018 58.8882 78.407 62.6256 76.164 65.4749 C 75.0943 66.7414 72.8688 66.809 71.1387 66.5334 C 68.0276 66.0343 64.9682 64.7454 62.3768 62.9499 C 59.6951 61.0928 56.151 59.057 55.5854 55.831 C 54.8693 51.7445 55.5432 46.3506 58.7464 43.7806 C 61.6841 41.5366 66.064 44.5848 69.7333 44.742 Z " stroke-width="1.2558400300395853"/>
    <path id="ID0.46721756737679243" fill="#A2887F" stroke="none" stroke-linecap="round" d="M 55.1072 45.8577 L 56.7825 46.5465 L 82.7946 46.2118 L 75.5714 51.2793 L 58.836 48.7855 L 59.9495 51.1753 L 60.1935 56.7895 L 63.8131 63.9847 L 59.2527 57.2959 L 55.1072 45.8577 Z " stroke-width="0.508037300705564"/>
    <path id="ID0.8256730306893587" fill="none" stroke="#937B73" stroke-width="1.016074601411128" stroke-linecap="round" d="M 66.0388 57.66 C 66.0388 57.66 68.7391 57.0684 70.1045 56.8798 C 70.446 56.8327 70.7842 56.911 71.1205 56.9578 C 71.4623 57.0057 71.7912 57.1739 72.1362 57.1629 C 72.82 57.1412 73.4895 56.9453 74.1689 56.8617 C 74.5058 56.8201 74.8457 56.7826 75.1851 56.7873 C 75.5249 56.7919 75.8699 56.8129 76.201 56.8907 C 76.7454 57.0187 77.8004 57.4016 77.8004 57.4016 "/>
    <path id="ID0.7592270169407129" fill="none" stroke="#937B73" stroke-width="1.016074601411128" stroke-linecap="round" d="M 74.5173 59.0118 C 74.5173 59.0118 73.8948 59.3556 73.5513 59.4165 C 73.2179 59.4758 72.8722 59.3304 72.5353 59.3639 C 72.1964 59.3978 71.8821 59.574 71.5442 59.6161 C 71.2083 59.6582 70.8577 59.6901 70.5281 59.6143 C 70.2478 59.5498 69.7668 59.2065 69.7668 59.2065 "/>
    <path id="ID0.5332203092984855" fill="none" stroke="#937B73" stroke-width="1.016074601411128" stroke-linecap="round" d="M 68.6652 49.5397 C 68.6652 49.5397 68.0589 49.9704 67.9526 50.3005 C 67.8147 50.7427 67.5586 51.5871 68.0006 51.9009 C 68.5807 52.192 69.3405 51.4664 70.0334 51.5235 C 70.7039 51.5816 72.0138 52.035 72.0138 52.035 "/>
    <path id="ID0.2278452254831791" fill="none" stroke="#937B73" stroke-width="1.016074601411128" stroke-linecap="round" d="M 73.0155 45.8896 C 73.0155 45.8896 73.9464 47.7537 74.4076 48.6863 C 74.562 48.9985 74.7321 49.3046 74.8631 49.6269 C 74.9941 49.9493 75.2059 50.2707 75.1916 50.6182 C 75.1773 50.9667 74.9704 51.2884 74.7834 51.5827 C 74.6586 51.7796 74.2746 52.0645 74.2746 52.0645 "/>
    <path id="ID0.6473136460408568" fill="none" stroke="#937B73" stroke-width="1.0160746524371593" stroke-linecap="round" d="M 73.3503 62.7925 C 73.3503 62.7925 73.6659 63.4279 73.7162 63.7726 C 73.7647 64.1082 73.704 64.4556 73.6399 64.7886 C 73.5436 65.2905 73.2367 66.2691 73.2367 66.2691 "/>
    <path id="ID0.11669129692018032" fill="#2E3034" stroke="none" stroke-linecap="round" d="M 57.0472 40.5267 L 80.2867 42.3463 L 84.2192 45.0205 L 74.8122 49.7031 L 54.1142 47.126 L 57.0472 40.5267 Z " stroke-width="0.508037300705564"/>
    <path id="ID0.14635155349969864" fill="#2E3034" stroke="none" stroke-linecap="round" d="M 54.3707 45.7801 L 56.2243 46.1645 L 58.8568 51.3765 L 59.1514 57.1433 L 60.9735 60.9568 L 63.863 64.4929 L 55.6421 59.2708 L 54.3707 45.7801 Z " stroke-width="0.508037300705564"/>
    <path id="ID0.28340246016159654" fill="#1C1D1F" stroke="none" stroke-linecap="round" d="M 57.2106 37.383 L 60.6375 38.9284 L 70.3037 39.8368 L 70.2935 45.5889 L 63.3548 44.6313 L 59.495 43.5443 L 57.4724 42.0284 L 56.6113 40.2985 L 57.2106 37.383 Z " stroke-width="0.5401026835420122"/>
    <path id="ID0.6101007834076881" fill="#FFFFFF" stroke="none" stroke-linecap="round" d="M 61.0475 39.905 L 62.6996 40.3077 L 66.4773 41.5156 L 67.0185 43.4849 L 61.7664 42.0226 L 61.0475 39.905 Z " stroke-width="0.40610620758816685"/>
    <path id="ID0.28340246016159654" fill="#1C1D1F" stroke="none" stroke-linecap="round" d="M 82.7289 37.4514 L 79.6681 38.8186 L 71.0456 39.5979 L 71.0365 44.7272 L 77.2269 43.8954 L 80.6722 42.9383 L 82.4807 41.5929 L 83.254 40.0531 L 82.7289 37.4514 Z " stroke-width="0.4816250101678945"/>
    <path id="ID0.6101007834076881" fill="#FFFFFF" stroke="none" stroke-linecap="round" d="M 80.9965 39.5026 L 79.4542 39.9913 L 75.9459 41.381 L 75.5589 43.2852 L 80.4504 41.5591 L 80.9965 39.5026 Z " stroke-width="0.38638672163090354"/>
    <g id="ID0.07940126257017255">
      <path id="ID0.46257128613069654" fill="#27282B" stroke="none" stroke-linecap="round" d="M 70.4861 39.664 L 74.8121 49.6293 L 64.7806 48.3413 L 70.4861 39.664 Z " stroke-width="0.508037300705564"/>
      <path id="ID0.9845890481956303" fill="#27282B" stroke="none" stroke-linecap="round" d="M 71.299 39.79 L 79.5669 47.1713 L 74.8884 49.7032 L 71.299 39.79 Z " stroke-width="0.508037300705564"/>
    </g>
    <path id="ID0.20071752788498998" fill="#202324" stroke="none" d="M 62.0528 35.0762 L 66.1887 37.6492 L 70.9368 38.8261 L 71.0105 40.2233 L 63.2398 38.9394 L 57.3508 36.5919 L 59.0813 34.8169 L 62.0528 35.0762 Z " stroke-width="0.508037300705564"/>
    <path id="ID0.20071752788498998" fill="#202324" stroke="none" d="M 79.0194 34.9055 L 75.9621 37.3471 L 70.7157 38.8992 L 70.6435 40.1808 L 77.7768 39.0283 L 83.2105 37.0105 L 81.6764 34.7705 L 79.0194 34.9055 Z " stroke-width="0.46609797555654336"/>
    <path id="ID0.521138689480722" fill="none" stroke="#212325" stroke-width="0.9060627299654993" stroke-linecap="round" d="M 82.8131 37.1801 L 79.5711 38.76 L 71.0293 39.9906 "/>
    <path id="ID0.17828734638169408" fill="none" stroke="#202324" stroke-width="1.016074601411128" stroke-linecap="round" d="M 74.7116 49.144 L 71.8033 41.8993 C 70.8068 39.4783 70.9541 40.047 70.7668 39.0778 C 70.7014 38.7394 70.9199 38.4034 70.9719 38.0621 C 71.0227 37.7259 71.0874 37.3861 71.0753 37.0462 C 71.0632 36.7028 70.9647 36.3668 70.8993 36.0299 C 70.7971 35.5039 70.5718 34.4544 70.5718 34.4544 "/>
    <path id="ID0.521138689480722" fill="none" stroke="#212325" stroke-width="1.016074601411128" stroke-linecap="round" d="M 57.4933 36.8729 L 61.1226 38.6575 L 70.6966 40.0717 "/>
    <path id="ID0.8012696979567409" fill="none" stroke="url(#grad_1)" stroke-width="1.016074601411128" stroke-linecap="round" d="M 82.7954 45.7546 L 75.3203 49.6532 L 56.7304 47.2831 L 58.7048 51.1477 L 58.9988 57.2446 L 60.9229 60.8551 L 63.8122 64.4928 "/>
    <path id="ID0.043594349175691605" fill="#D7E2FD" stroke="none" stroke-linecap="round" d="M 66.2057 42.5489 L 66.4363 41.4316 L 66.9406 43.4901 L 64.351 42.7488 L 66.2057 42.5489 Z " stroke-width="0.508037300705564"/>
    <path id="ID0.043594349175691605" fill="#D7E2FD" stroke="none" stroke-linecap="round" d="M 76.2991 42.431 L 76.0357 41.4279 L 75.6773 43.321 L 77.9925 42.5229 L 76.2991 42.431 Z " stroke-width="0.46186426943803527"/>
  </g>
  <g id="ID0.7397577832452953">
    <path id="ID0.6726378230378032" fill="#393C40" stroke="none" stroke-linecap="round" d="M 4.6357 123.578 L 22.5861 128.3294 L 22.3633 130.7466 L 4.7678 125.7357 L 4.6357 123.578 Z " stroke-width="0.8164596019069199"/>
    <path id="ID0.6507829907350242" fill="#1D1E1F" stroke="none" stroke-linecap="round" d="M 1.7259 125.4781 L 22.6492 130.6469 L 26.9707 149.1356 L 27.631 159.9239 L 31.6378 175.5432 L 33.854 181.7179 L 22.6961 186.6874 L 20.8754 180.4113 L 16.6614 171.3776 L 10.7995 160.0272 L 6.6363 151.1911 L 1.7259 125.4781 Z " stroke-width="0.8164596019069199"/>
    <path id="ID0.6829322893172503" fill="#1D1E1F" stroke="none" stroke-linecap="round" d="M 22.1992 186.3935 L 31.0146 178.8639 L 35.5474 183.3907 L 40.9726 188.11 L 42.3927 193.6459 L 42.9661 198.3455 L 41.7498 201.8184 L 42.0395 208.6979 L 37.4414 209.6668 L 35.7479 207.994 L 34.1155 208.202 L 30.2927 206.4432 L 26.1708 204.3398 L 23.0779 200.4973 L 22.0935 193.3745 L 22.1992 186.3935 Z " stroke-width="0.8164596019069199"/>
    <path id="ID0.47767175547778606" fill="none" stroke="#0D0D0D" stroke-width="1.6329192038138398" stroke-linecap="round" d="M 2.7099 129.3137 L 1.9723 125.2885 L 22.5701 130.6671 L 25.7331 144.3114 "/>
    <path id="ID0.5922487881034613" fill="#282A2B" stroke="none" stroke-linecap="round" d="M 9.1685 158.6413 L 14.6095 151.4295 L 20.5612 149.9871 L 28.0527 154.2184 L 30.3915 169.0856 L 27.7207 177.5675 L 24.3596 178.4297 L 16.6023 172.8336 L 9.1685 158.6413 Z " stroke-width="0.8164596019069199"/>
    <path id="ID0.36820242274552584" fill="#151616" stroke="none" stroke-linecap="round" d="M 15.9785 159.8289 L 24.1831 157.6399 L 24.4339 169.4604 L 22.9505 169.7567 L 15.9785 159.8289 Z " stroke-width="0.8164596019069199"/>
    <path id="ID0.13569410238415003" fill="none" stroke="#232425" stroke-width="1.6329192038138398" stroke-linecap="round" d="M 18.0332 170.6464 L 25.3545 176.1857 L 28.59 167.7697 "/>
    <path id="ID0.024502143263816833" fill="none" stroke="#0D0D0D" stroke-width="1.6329192038138398" stroke-linecap="round" d="M 9.6009 158.3117 L 14.4113 151.5989 L 20.2027 149.8603 L 27.7733 154.0714 L 29.0335 162.5985 "/>
  </g>
</svg>