<svg xmlns="http://www.w3.org/2000/svg" xmlns:xlink="http://www.w3.org/1999/xlink" version="1.1" width="175.11570739746094" height="313.2322692871094" viewBox="1.7376000881195068 1.698451042175293 175.11570739746094 313.2322692871094">
  <!-- Exported by Scratch - http://scratch.mit.edu/ -->
  <path id="ID0.7729651997797191" fill="#7C0D0D" stroke="none" stroke-linecap="round" d="M 110.2258 90.189 L 90.9662 88.7828 L 92.2901 105.2657 L 93.2564 118.5574 L 96.1977 124.4527 L 99.038 128.1735 L 111.4425 126.4987 L 113.5444 121.0838 L 110.8723 101.4733 L 110.2258 90.189 Z " stroke-width="0.7788099276376932"/>
  <path id="ID0.4757494777441025" fill="#7C0D0D" stroke="none" stroke-linecap="round" d="M 104.3189 65.4069 L 96.4881 62.2937 L 80.7888 64.8839 L 85.3217 90.0091 L 94.4781 96.0497 L 98.6186 97.6364 L 101.9592 95.7935 L 105.0377 93.3426 L 110.7718 91.5917 L 111.5791 86.4301 L 111.9309 78.6869 L 109.9497 70.4015 L 104.3189 65.4069 Z " stroke-width="0.4541860496946986"/>
  <path id="ID0.6507829907350242" fill="#7C0D0D" stroke="none" stroke-linecap="round" d="M 116.2862 119.6838 L 97.0448 126.9238 L 95.0221 144.922 L 95.6051 155.2155 L 93.559 170.4603 L 92.1514 176.5578 L 103.2777 180.0155 L 104.2995 173.8663 L 107.2794 164.8367 L 111.5608 153.428 L 114.5148 144.5914 L 116.2862 119.6838 Z " stroke-width="0.7788099276376932"/>
  <path id="ID0.6829322893172503" fill="#7C0D0D" stroke="none" stroke-linecap="round" d="M 103.7155 179.6814 L 94.5214 173.5362 L 90.7345 178.3321 L 86.124 183.4103 L 85.3988 188.8135 L 85.3821 193.3296 L 86.9233 196.4832 L 87.4194 203.0325 L 91.8837 203.4352 L 93.3005 201.6609 L 94.8702 201.6751 L 98.2945 199.5809 L 101.9635 197.1266 L 104.463 193.1402 L 104.5975 186.2826 L 103.7155 179.6814 Z " stroke-width="0.7788099276376932"/>
  <path id="ID0.3809091211296618" fill="#7C0D0D" stroke="none" stroke-linecap="round" d="M 63.7473 168.6841 L 80.5203 145.5941 L 101.8061 178.0265 L 106.203 188.0504 L 110.1198 206.2451 L 103.8057 212.6859 L 93.0509 220.0197 L 83.1459 201.7073 L 79.3158 190.9091 L 63.7473 168.6841 Z " stroke-width="0.7305889557472004"/>
  <path id="ID0.5368814701214433" fill="#7C0D0D" stroke="none" stroke-linecap="round" d="M 129.0768 294.4431 L 127.3813 285.3103 L 126.8959 275.0429 L 138.459 275.4104 L 152.0053 276.7207 L 172.2874 277.4418 L 176.3533 282.646 L 155.234 295.5039 L 134.8263 302.4551 L 129.0768 294.4431 Z " stroke-width="0.7702165391814503"/>
  <path id="ID0.05466862628236413" fill="#7C0D0D" stroke="none" stroke-linecap="round" d="M 88.7439 214.6434 L 109.9697 198.3811 L 114.9005 217.22 L 115.9826 222.3888 L 124.3047 238.5101 L 141.3116 275.5442 L 128.5416 284.8254 L 115.8396 266.5584 L 109.2475 260.3496 L 103.4908 252.7681 L 98.7239 239.9589 L 92.7203 229.1993 L 88.7439 214.6434 Z " stroke-width="0.7305889557472004"/>
  <path id="ID0.3809091211296618" fill="#7C0D0D" stroke="none" stroke-linecap="round" d="M 37.4933 133.207 L 60.7409 146.4905 L 63.9037 185.155 L 62.9656 196.0606 L 57.6946 213.9102 L 49.0676 216.5424 L 36.1144 217.8329 L 35.4531 196.071 L 33.7148 182.7681 L 37.4933 133.207 Z " stroke-width="0.7305889665074583"/>
  <path id="ID0.5368814701214433" fill="#7C0D0D" stroke="none" stroke-linecap="round" d="M 32.1528 300.9777 L 35.0362 292.1477 L 39.5251 282.9008 L 49.5012 288.7588 L 60.7673 296.3939 L 78.2293 306.7362 L 79.3078 313.2518 L 54.6104 314.4307 L 33.3654 310.7644 L 32.1528 300.9777 Z " stroke-width="0.7702165290554439"/>
  <path id="ID0.05466862628236413" fill="#7C0D0D" stroke="none" stroke-linecap="round" d="M 34.9175 211.1585 L 61.3381 207.0415 L 56.6489 225.942 L 55.1246 230.9981 L 54.7139 249.136 L 51.9171 289.7924 L 36.2624 291.828 L 33.8549 269.7094 L 31.0393 261.1026 L 29.6145 251.6904 L 31.561 238.1624 L 31.4407 225.8418 L 34.9175 211.1585 Z " stroke-width="0.7305889665074583"/>
  <path id="ID0.7729651997797191" fill="#7C0D0D" stroke="none" stroke-linecap="round" d="M 24.8677 78.1678 L 44.7326 82.0696 L 38.8376 98.3718 L 34.1863 111.5459 L 29.5823 116.6944 L 25.6817 119.672 L 13.6006 114.5495 L 12.9718 108.4927 L 21.0948 89.4003 L 24.8677 78.1678 Z " stroke-width="0.8164595730570475"/>
  <path id="ID0.4757494777441025" fill="#7C0D0D" stroke="none" stroke-linecap="round" d="M 37.4962 54.4656 L 46.2756 53.4821 L 61.4354 60.4409 L 49.9065 84.5956 L 38.9774 88.1732 L 34.3517 88.6333 L 31.483 85.8462 L 29.0474 82.5167 L 23.7328 79.1612 L 24.3432 73.7184 L 26.1278 65.7909 L 30.4216 57.96 L 37.4962 54.4656 Z " stroke-width="0.47614255390181537"/>
  <path id="ID0.6507829907350242" fill="#7C0D0D" stroke="none" stroke-linecap="round" d="M 10.5863 106.319 L 28.0427 118.9591 L 25.1131 137.7188 L 21.6782 147.967 L 19.5333 163.9488 L 19.2713 170.5038 L 7.0641 170.9249 L 7.7306 164.4242 L 7.2131 154.4693 L 6.0371 141.7489 L 5.4925 131.9964 L 10.5863 106.319 Z " stroke-width="0.8164595730570475"/>
  <path id="ID0.6829322893172503" fill="#7C0D0D" stroke="none" stroke-linecap="round" d="M 6.7138 170.466 L 17.7099 166.7932 L 20.2136 172.6898 L 23.4723 179.0995 L 22.712 184.7639 L 21.4806 189.3354 L 19.0504 192.0984 L 16.7383 198.5843 L 12.1125 197.7575 L 11.1702 195.5716 L 9.5789 195.1521 L 6.6951 192.0878 L 3.6632 188.5917 L 2.2376 183.8695 L 3.9971 176.8976 L 6.7138 170.466 Z " stroke-width="0.8164595730570475"/>
  <path id="ID0.5922487881034613" fill="#7C0D0D" stroke="none" stroke-linecap="round" d="M 5.0529 139.7478 L 12.8019 135.1037 L 18.8601 135.9991 L 24.2172 142.7317 L 20.8082 157.3906 L 15.1507 164.2512 L 11.7116 163.7897 L 6.62 155.6923 L 5.0529 139.7478 Z " stroke-width="0.8164595730570475"/>
  <path id="ID0.7477802094072104" fill="#670A0A" stroke="none" stroke-linecap="round" d="M 98.3055 111.0542 L 79.467 104.9944 L 73.1421 145.6922 L 88.2384 157.0732 L 94.2625 133.1937 L 98.3055 111.0542 Z " stroke-width="0.47614258032131795"/>
  <path id="ID0.7477802094072104" fill="#670A0A" stroke="none" stroke-linecap="round" d="M 38.6439 101.7138 L 62.2544 102.4919 L 55.9296 143.1897 L 38.0913 149.4523 L 36.5377 123.7928 L 38.6439 101.7138 Z " stroke-width="0.47614258032131795"/>
  <path id="ID0.4270821204409003" fill="#7C0D0D" stroke="none" stroke-linecap="round" d="M 42.0883 82.0534 L 47.7717 70.2879 L 50.9022 64.8716 L 58.45 58.9372 L 88.9305 65.1198 L 95.0946 70.4145 L 97.296 74.8524 L 102.4809 87.2228 L 100.1665 97.464 L 98.3847 102.7284 L 98.9712 109.8065 L 98.6008 115.2903 L 95.4233 121.7835 L 93.0193 126.7103 L 90.4173 135.7022 L 88.5358 157.5752 L 82.1931 164.9016 L 76.5105 170.3067 L 63.7028 173.8094 L 52.7106 169.0413 L 49.86 161.8041 L 45.9539 154.692 L 37.9838 150.3213 L 40.7483 125.0919 L 40.5957 118.3222 L 37.8339 106.3284 L 38.2035 95.4236 L 42.0883 82.0534 Z " stroke-width="0.47614258032131795"/>
  <path id="ID0.9286923445761204" fill="#7C0D0D" stroke="none" stroke-linecap="round" d="M 69.028 26.1613 L 87.4722 30.126 L 84.7045 54.3276 L 98.8556 63.4331 L 74.6933 71.648 L 40.025 54.3363 L 61.1365 46.4805 L 69.028 26.1613 Z " stroke-width="0.4761425834392993"/>
  <path id="ID0.8999492498114705" fill="#7C0D0D" stroke="none" stroke-linecap="round" d="M 88.7373 3.746 C 93.0386 4.8067 97.3679 8.1224 98.9647 12.2545 C 100.7863 16.9718 98.1111 22.2615 97.7437 27.2526 C 97.6888 28.9639 98.2411 30.8065 97.6973 32.3723 C 96.5902 35.5571 94.5282 38.3364 93.0314 41.3571 C 92.0507 43.3369 91.5844 45.6502 90.1726 47.3809 C 88.5688 49.4385 86.8211 52.3661 84.184 52.4719 C 80.2745 52.6285 76.4791 50.2614 73.2937 48.0629 C 70.6769 46.2565 68.3412 43.7112 67.1496 40.754 C 65.0394 35.2798 63.254 29.3294 63.6545 23.4463 C 64.0987 16.9247 64.4083 8.8278 69.7472 4.7855 C 74.5658 0.8501 82.3427 2.1722 88.7373 3.746 Z " stroke-width="0.5080372500496249"/>
  <path id="ID0.6101007834076881" fill="#FFFFFF" stroke="none" stroke-linecap="round" d="M 75.1509 22.1023 L 76.7358 22.7184 L 80.3224 24.4118 L 80.6004 26.435 L 75.5856 24.296 L 75.1509 22.1023 Z " stroke-width="0.4061061838020456"/>
  <path id="ID0.6101007834076881" fill="#FFFFFF" stroke="none" stroke-linecap="round" d="M 95.0524 24.2704 L 93.4593 24.5524 L 89.7988 25.4697 L 89.1653 27.3066 L 94.2411 26.2374 L 95.0524 24.2704 Z " stroke-width="0.38638674511174403"/>
  <path id="ID0.043594349175691605" fill="#D7E2FD" stroke="none" stroke-linecap="round" d="M 79.9379 25.3736 L 80.3131 24.2963 L 80.543 26.4031 L 78.073 25.3283 L 79.9379 25.3736 Z " stroke-width="0.5080372500496249"/>
  <path id="ID0.043594349175691605" fill="#D7E2FD" stroke="none" stroke-linecap="round" d="M 90.0086 26.5671 L 89.8792 25.5381 L 89.2754 27.3678 L 91.6753 26.8804 L 90.0086 26.5671 Z " stroke-width="0.46186426786611945"/>
</svg>