<svg xmlns="http://www.w3.org/2000/svg" xmlns:xlink="http://www.w3.org/1999/xlink" version="1.1" width="253.01980590820312" height="316.3445739746094" viewBox="1.9900999069213867 0.8931280374526978 253.01980590820312 316.3445739746094">
  <!-- Exported by Scratch - http://scratch.mit.edu/ -->
  <g id="ID0.23702529771253467">
    <g id="ID0.7085462282411754">
      <g id="ID0.5880346246995032">
        <path id="ID0.6829322893172503" fill="#EDD2B8" stroke="none" stroke-linecap="round" d="M 6.92 174.581 L 17.7584 170.466 L 20.4988 176.2564 L 24.0143 182.5289 L 23.484 188.2195 L 22.4387 192.8371 L 20.1223 195.6962 L 18.0746 202.2704 L 13.4192 201.6315 L 12.3892 199.4856 L 10.7822 199.1308 L 7.7767 196.1857 L 4.6058 192.8153 L 2.9901 188.1547 L 4.4659 181.1173 L 6.92 174.581 Z " stroke-width="0.8164595827124561"/>
        <g id="ID0.9434720128774643">
          <path id="ID0.6507829907350242" fill="#282828" stroke="none" stroke-linecap="round" d="M 7.2925 109.4298 L 25.2463 121.3528 L 22.333 138.0963 L 20.0613 150.5946 L 18.5652 166.6501 L 20.2343 173.8166 L 5.3297 174.9287 L 6.7914 167.6029 L 5.8714 157.6772 L 4.1814 145.0148 L 4.6033 131.6881 L 7.2925 109.4298 Z " stroke-width="0.8164595827124561"/>
          <path id="ID0.9892375003546476" fill="none" stroke="#191919" stroke-width="1.9999999547007297" stroke-linecap="round" d="M 5.8842 174.1581 L 19.5811 172.6726 L 17.8806 163.9773 "/>
        </g>
      </g>
      <path id="ID0.7729651997797191" fill="#282828" stroke="none" stroke-linecap="round" d="M 9.8724 78.6914 L 33.567 76.7329 L 32.1317 97.0411 L 28.7467 107.8457 L 27.8009 117.0882 L 25.7493 125.7148 L 8.803 123.4079 L 6.1514 116.7663 L 9.2097 92.5915 L 9.8724 78.6914 Z " stroke-width="0.9588636846711274"/>
      <path id="ID0.4757494777441025" fill="#282828" stroke="none" stroke-linecap="round" d="M 20.6453 62.7422 L 29.4608 60.5996 L 45.8673 65.48 L 37.4192 90.9536 L 26.7672 95.9531 L 22.1146 97.0245 L 18.8088 94.6438 L 15.8703 91.6679 L 9.9934 89.0491 L 9.8709 83.5734 L 10.6055 75.479 L 13.9113 67.1465 L 20.6453 62.7422 Z " stroke-width="0.48299249213559925"/>
    </g>
    <g id="ID0.7085462282411754">
      <g id="ID0.5880346246995032">
        <path id="ID0.6829322893172503" fill="#EDD2B8" stroke="none" stroke-linecap="round" d="M 113.23 173.831 L 102.3916 169.716 L 99.6512 175.5064 L 96.1357 181.7789 L 96.666 187.4695 L 97.7113 192.0871 L 100.0277 194.9462 L 102.0754 201.5204 L 106.7308 200.8815 L 107.7608 198.7356 L 109.3678 198.3808 L 112.3733 195.4357 L 115.5442 192.0653 L 117.1599 187.4047 L 115.6841 180.3673 L 113.23 173.831 Z " stroke-width="0.8164595827124561"/>
        <g id="ID0.9434720128774643">
          <path id="ID0.6507829907350242" fill="#282828" stroke="none" stroke-linecap="round" d="M 112.8575 108.6798 L 94.9037 120.6028 L 97.817 137.3463 L 100.0887 149.8446 L 101.5848 165.9001 L 99.9157 173.0666 L 114.8203 174.1787 L 113.3586 166.8529 L 114.2786 156.9272 L 115.9686 144.2648 L 115.5467 130.9381 L 112.8575 108.6798 Z " stroke-width="0.8164595827124561"/>
          <path id="ID0.9892375003546476" fill="none" stroke="#191919" stroke-width="1.9999999547007297" stroke-linecap="round" d="M 114.2658 173.4081 L 100.5689 171.9226 L 102.2694 163.2273 "/>
        </g>
      </g>
      <path id="ID0.7729651997797191" fill="#282828" stroke="none" stroke-linecap="round" d="M 110.2776 77.9414 L 86.583 75.9829 L 88.0183 96.2911 L 91.4033 107.0957 L 92.3491 116.3382 L 94.4007 124.9648 L 111.347 122.6579 L 113.9986 116.0163 L 110.9403 91.8415 L 110.2776 77.9414 Z " stroke-width="0.9588636846711274"/>
      <path id="ID0.4757494777441025" fill="#282828" stroke="none" stroke-linecap="round" d="M 99.4547 61.9922 L 90.6392 59.8496 L 74.2327 64.73 L 82.6808 90.2036 L 93.3328 95.2031 L 97.9854 96.2745 L 101.2912 93.8938 L 104.2297 90.9179 L 110.1066 88.2991 L 110.2291 82.8234 L 109.4945 74.729 L 106.1887 66.3965 L 99.4547 61.9922 Z " stroke-width="0.48299249213559925"/>
    </g>
    <path id="ID0.05099705280736089" fill="#D5D5D5" stroke="#D5D5D5" stroke-width="2" stroke-linecap="round" d="M 44.15 30 C 43.834 30.161 44.252 31.331 44.4 32.1 C 44.527 32.758 44.922 33.346 45.3 33.9 C 45.679 34.455 46.175 34.925 46.65 35.4 C 47.125 35.875 47.65 36.3 48.15 36.75 C 48.65 37.2 48.979 38.135 49.65 38.1 C 50.321 38.065 50.88 37.261 51 36.6 C 51.239 35.284 51.087 33.864 50.65 32.6 C 50.43 31.965 49.695 31.644 49.15 31.25 C 48.606 30.857 48.039 30.456 47.4 30.25 C 46.467 29.949 45.334 29.236 44.5 29.75 Z "/>
    <g id="ID0.6660797297954559">
      <path id="ID0.5368814701214433" fill="#343434" stroke="none" stroke-linecap="round" d="M 66.9028 300.1777 L 69.7862 291.3477 L 74.2751 282.1008 L 84.2512 287.9588 L 95.5173 295.5939 L 112.9793 305.9362 L 114.0578 312.4518 L 89.3604 313.6307 L 68.1154 309.9644 L 66.9028 300.1777 Z " stroke-width="0.7702165290554439"/>
      <g id="ID0.5077062323689461">
        <path id="ID0.05466862628236413" fill="#252525" stroke="none" stroke-linecap="round" d="M 68.0016 227.8762 L 89.6943 224.4959 L 87.9584 239.1791 L 87.2161 244.1923 L 87.2096 258.6768 L 89.7103 291.928 L 68.4664 294.6982 L 67.1291 275.9496 L 64.8173 268.883 L 63.6475 261.1551 L 65.2457 250.0478 L 65.1469 239.9319 L 68.0016 227.8762 Z " stroke-width="0.5998532736063101"/>
        <path id="ID0.5319394422695041" fill="none" stroke="#131313" stroke-width="2" stroke-linecap="round" d="M 89.75 291 L 68.5 295 L 67.5 283.5 "/>
      </g>
      <g id="ID0.8820344842970371">
        <path id="ID0.3809091211296618" fill="#252525" stroke="none" stroke-linecap="round" d="M 56.7785 154.2533 L 88.4936 134.7371 L 89.7562 158.9649 L 93.7446 207.4411 L 93.262 218.1936 L 89.2609 229.4764 L 81.1676 227.2924 L 68.2144 228.5829 L 67.5531 206.821 L 65.8148 193.5181 L 56.7785 154.2533 Z " stroke-width="0.7305889665074583"/>
        <path id="ID0.9495224836282432" fill="none" stroke="#131313" stroke-width="2" stroke-linecap="round" d="M 93.75 207.5 L 93.75 216 L 91.75 224 L 83.25 228.5 L 82.25 233.5 "/>
      </g>
    </g>
    <g id="ID0.18228224432095885">
      <path id="ID0.5368814701214433" fill="#404040" stroke="none" stroke-linecap="round" d="M 28.5899 301.3519 L 31.6637 292.5863 L 36.3516 283.4387 L 46.1987 289.5112 L 57.2969 297.3883 L 74.531 308.1061 L 75.4682 314.6434 L 50.7511 315.2877 L 29.5904 311.1625 L 28.5899 301.3519 Z " stroke-width="0.7702165249851639"/>
      <g id="ID0.5077062323689461">
        <path id="ID0.05466862628236413" fill="#252525" stroke="none" stroke-linecap="round" d="M 32.5416 228.5183 L 54.3698 226.166 L 51.9424 240.751 L 50.9643 245.7235 L 50.2739 260.1916 L 51.2018 293.5237 L 29.8508 295.2878 L 29.4002 276.497 L 27.4247 269.3291 L 26.621 261.5545 L 28.7419 250.5351 L 29.1209 240.4258 L 32.5416 228.5183 Z " stroke-width="0.5998532668114317"/>
        <path id="ID0.5319394422695041" fill="none" stroke="#131313" stroke-width="1.9999999924153835" stroke-linecap="round" d="M 51.2982 292.5754 L 29.8831 295.5676 L 29.4272 284.0332 "/>
      </g>
      <g id="ID0.8820344842970371">
        <path id="ID0.3809091211296618" fill="#252525" stroke="none" stroke-linecap="round" d="M 29.9568 151.8903 L 57.4669 136.4434 L 57.5842 160.7037 L 59.2793 209.3142 L 58.2895 220.0319 L 53.7602 231.1132 L 45.779 228.5495 L 32.2327 230.565 L 30.3396 207.4526 L 29.4217 194.3958 L 29.9568 151.8903 Z " stroke-width="0.7305889820079058"/>
        <path id="ID0.9495224836282432" fill="none" stroke="#131313" stroke-width="1.9999999924153835" stroke-linecap="round" d="M 59.2363 209.3574 L 58.835 217.8479 L 56.4595 225.7446 L 47.7565 229.8382 L 46.5215 234.7854 "/>
      </g>
    </g>
    <g id="ID0.8990198895335197">
      <path id="ID0.17576928716152906" fill="#DBDBDB" stroke="none" d="M 62.25 57 L 62 57 L 62 57 L 62.25 57 L 62.25 57 Z " stroke-width="1"/>
      <path id="ID0.4270821204409003" fill="#252525" stroke="none" stroke-linecap="round" d="M 60.0901 179.0011 L 59.8361 66.2448 L 77.1913 68.7245 L 84.005 73.1522 L 86.7772 77.2578 L 93.5615 88.8286 L 92.63 99.2866 L 91.5642 104.7413 L 93.087 111.6785 L 93.4494 117.1629 L 91.1639 124.021 L 89.4366 129.2238 L 88.0537 138.4818 L 89.0985 160.4108 L 83.7868 168.5158 L 78.8736 174.6287 L 60.0901 179.0011 Z " stroke-width="0.47614257300029306"/>
      <path id="ID0.4270821204409003" fill="#252525" stroke="none" stroke-linecap="round" d="M 60.2099 179.1511 L 60.4639 66.3948 L 43.1087 68.8745 L 36.295 73.3022 L 33.5228 77.4078 L 26.7385 88.9786 L 27.67 99.4366 L 28.7358 104.8913 L 27.213 111.8285 L 26.8506 117.3129 L 29.1361 124.171 L 30.8634 129.3738 L 32.2463 138.6318 L 31.2015 160.5608 L 36.5132 168.6658 L 41.4264 174.7787 L 60.2099 179.1511 Z " stroke-width="0.47614257300029306"/>
      <path id="ID0.5114514343440533" fill="#282828" stroke="none" d="M 33.9326 67.5777 L 86.9326 67.5777 L 86.9326 155.8277 L 33.9326 155.8277 L 33.9326 67.5777 Z " stroke-width="1.0073066040733152"/>
      <path id="ID0.9286923445761204" fill="#D4D4D4" stroke="none" stroke-linecap="round" d="M 50.0867 53.8723 L 67.3707 35.1361 L 60.2523 54.0152 L 61.5141 94.4873 L 23.5656 65.4426 L 43.7064 54.6341 L 50.0867 53.8723 Z " stroke-width="0.4761425852775574"/>
      <path id="ID0.9286923445761204" fill="#D4D4D4" stroke="none" stroke-linecap="round" d="M 66.4636 52.7653 L 52.6793 35.3861 L 59.7977 54.2652 L 61.0118 94.2611 L 96.4844 65.6926 L 76.7007 53.8842 L 66.4636 52.7653 Z " stroke-width="0.4761425852775574"/>
      <path id="ID0.39874776685610414" fill="#1F2022" stroke="none" stroke-linecap="round" d="M 41.7977 55.564 L 61.6674 65.4348 L 79.5354 56.4738 L 83.5386 58.6117 L 61.4721 69.2102 L 38.0386 57.52 L 41.7977 55.564 Z " stroke-width="0.943659350131214"/>
      <path id="ID0.13444371055811644" fill="#1F1F1F" stroke="none" stroke-linecap="round" d="M 59.25 67.25 L 64.5 67 L 67.3 95.5 L 55.25 96 L 59.25 67.25 Z " stroke-width="1"/>
      <path id="ID0.751046194229275" fill="#191919" stroke="none" stroke-linecap="round" d="M 56.965 62.285 L 61.64 60.25 L 66.15 62.285 L 66.59 70.26 L 62.19 71.25 L 56.965 70.26 L 56.965 62.285 Z " stroke-width="1.100000023841858"/>
      <path id="ID0.7854711129330099" fill="#282828" stroke="none" stroke-linecap="round" d="M 48 84 L 62 92.75 L 75.75 83 L 73.75 100.5 L 50.5 100.5 L 48 84 Z " stroke-width="1"/>
      <path id="ID0.562834897544235" fill="#282828" stroke="none" stroke-linecap="round" d="M 31.25 155.5 L 61.5 149.75 L 61.5 170 L 47.75 171.25 L 31.25 155.5 Z " stroke-width="1"/>
      <path id="ID0.562834897544235" fill="#282828" stroke="none" stroke-linecap="round" d="M 92.2 155.75 L 61.95 150 L 61.95 170.25 L 75.7 171.5 L 92.2 155.75 Z " stroke-width="1"/>
      <path id="ID0.6824178956449032" fill="none" stroke="#191919" stroke-width="2" stroke-linecap="round" d="M 61.75 93 L 61.5 169.75 "/>
      <path id="ID0.4144489667378366" fill="#313131" stroke="none" stroke-linecap="round" d="M 23 62.5 L 43.25 54.5 L 40.25 76.25 L 43.5 136.25 L 34 181 L 23 176 L 22.75 179.5 L 25.75 131.5 L 21 88.25 L 20 72 L 23 62.5 Z " stroke-width="1"/>
      <path id="ID0.5234400681219995" fill="#101010" stroke="none" d="M 63.9662 98.7125 C 64.3789 98.7125 64.7531 98.8801 65.024 99.151 C 65.2949 99.4219 65.4625 99.7961 65.4625 100.2087 C 65.4625 100.6214 65.2949 100.9956 65.024 101.2665 C 64.7531 101.5374 64.3789 101.705 63.9662 101.705 C 63.5536 101.705 63.1794 101.5374 62.9085 101.2665 C 62.6376 100.9956 62.47 100.6214 62.47 100.2087 C 62.47 99.7961 62.6376 99.4219 62.9085 99.151 C 63.1794 98.8801 63.5536 98.7125 63.9662 98.7125 Z " stroke-width="0.6299999952316284"/>
      <path id="ID0.5234400681219995" fill="#101010" stroke="none" d="M 63.9662 112.3125 C 64.3789 112.3125 64.7531 112.4801 65.024 112.751 C 65.2949 113.0219 65.4625 113.3961 65.4625 113.8087 C 65.4625 114.2214 65.2949 114.5956 65.024 114.8665 C 64.7531 115.1374 64.3789 115.305 63.9662 115.305 C 63.5536 115.305 63.1794 115.1374 62.9085 114.8665 C 62.6376 114.5956 62.47 114.2214 62.47 113.8087 C 62.47 113.3961 62.6376 113.0219 62.9085 112.751 C 63.1794 112.4801 63.5536 112.3125 63.9662 112.3125 Z " stroke-width="0.6299999952316284"/>
      <path id="ID0.5234400681219995" fill="#101010" stroke="none" d="M 63.9662 143.8625 C 64.3789 143.8625 64.7531 144.0301 65.024 144.301 C 65.2949 144.5719 65.4625 144.9461 65.4625 145.3587 C 65.4625 145.7714 65.2949 146.1456 65.024 146.4165 C 64.7531 146.6874 64.3789 146.855 63.9662 146.855 C 63.5536 146.855 63.1794 146.6874 62.9085 146.4165 C 62.6376 146.1456 62.47 145.7714 62.47 145.3587 C 62.47 144.9461 62.6376 144.5719 62.9085 144.301 C 63.1794 144.0301 63.5536 143.8625 63.9662 143.8625 Z " stroke-width="0.6299999952316284"/>
      <path id="ID0.5234400681219995" fill="#101010" stroke="none" d="M 63.9662 129.0625 C 64.3789 129.0625 64.7531 129.2301 65.024 129.501 C 65.2949 129.7719 65.4625 130.1461 65.4625 130.5587 C 65.4625 130.9714 65.2949 131.3456 65.024 131.6165 C 64.7531 131.8874 64.3789 132.055 63.9662 132.055 C 63.5536 132.055 63.1794 131.8874 62.9085 131.6165 C 62.6376 131.3456 62.47 130.9714 62.47 130.5587 C 62.47 130.1461 62.6376 129.7719 62.9085 129.501 C 63.1794 129.2301 63.5536 129.0625 63.9662 129.0625 Z " stroke-width="0.6299999952316284"/>
      <path id="ID0.5234400681219995" fill="#101010" stroke="none" d="M 63.8662 157.8625 C 64.2789 157.8625 64.6531 158.0301 64.924 158.301 C 65.1949 158.5719 65.3625 158.9461 65.3625 159.3587 C 65.3625 159.7714 65.1949 160.1456 64.924 160.4165 C 64.6531 160.6874 64.2789 160.855 63.8662 160.855 C 63.4536 160.855 63.0794 160.6874 62.8085 160.4165 C 62.5376 160.1456 62.37 159.7714 62.37 159.3587 C 62.37 158.9461 62.5376 158.5719 62.8085 158.301 C 63.0794 158.0301 63.4536 157.8625 63.8662 157.8625 Z " stroke-width="0.6299999952316284"/>
      <path id="ID0.4144489667378366" fill="#313131" stroke="none" stroke-linecap="round" d="M 96.55 61.65 L 76.3 53.65 L 79.3 75.4 L 76.05 135.4 L 85.55 180.15 L 96.55 175.15 L 96.8 178.65 L 93.8 130.65 L 98.55 87.4 L 99.55 71.15 L 96.55 61.65 Z " stroke-width="1"/>
      <path id="ID0.8752945330925286" fill="none" stroke="#222222" stroke-width="2" stroke-linecap="round" d="M 23.5 62.75 L 20.25 70.5 L 23.5 108.25 "/>
      <path id="ID0.8752945330925286" fill="none" stroke="#222222" stroke-width="2" stroke-linecap="round" d="M 96.75 62.25 L 100 70 L 96.75 107.75 "/>
      <path id="ID0.5234400681219995" fill="#101010" stroke="none" d="M 40.8662 144.4625 C 41.2789 144.4625 41.6531 144.6301 41.924 144.901 C 42.1949 145.1719 42.3625 145.5461 42.3625 145.9587 C 42.3625 146.3714 42.1949 146.7456 41.924 147.0165 C 41.6531 147.2874 41.2789 147.455 40.8662 147.455 C 40.4536 147.455 40.0794 147.2874 39.8085 147.0165 C 39.5376 146.7456 39.37 146.3714 39.37 145.9587 C 39.37 145.5461 39.5376 145.1719 39.8085 144.901 C 40.0794 144.6301 40.4536 144.4625 40.8662 144.4625 Z " stroke-width="0.6299999952316284"/>
      <path id="ID0.5234400681219995" fill="#101010" stroke="none" d="M 39.4662 151.7125 C 39.8789 151.7125 40.2531 151.8801 40.524 152.151 C 40.7949 152.4219 40.9625 152.7961 40.9625 153.2087 C 40.9625 153.6214 40.7949 153.9956 40.524 154.2665 C 40.2531 154.5374 39.8789 154.705 39.4662 154.705 C 39.0536 154.705 38.6794 154.5374 38.4085 154.2665 C 38.1376 153.9956 37.97 153.6214 37.97 153.2087 C 37.97 152.7961 38.1376 152.4219 38.4085 152.151 C 38.6794 151.8801 39.0536 151.7125 39.4662 151.7125 Z " stroke-width="0.6299999952316284"/>
      <g id="ID0.20783481979742646">
        <path id="ID0.5848579816520214" fill="#737373" stroke="none" stroke-linecap="round" d="M 85.95 90.1 L 92.8 88.6 L 92.7 92.5 L 85.45 93 L 85.95 90.1 Z " stroke-width="1"/>
        <path id="ID0.13105127029120922" fill="none" stroke="#222222" stroke-width="2" stroke-linecap="round" d="M 84.1 93.25 L 88.6 93.25 L 93.85 91.75 "/>
      </g>
    </g>
    <path id="ID0.46110434643924236" fill="#D8BFA7" stroke="none" stroke-linecap="round" d="M 48.4448 35.35 L 71.0595 35.35 L 71.527 54.3 L 65.3328 57.15 L 48.4448 55.45 L 48.4448 35.35 Z " stroke-width="1.0876357641452272"/>
    <path id="ID0.8999492498114705" fill="#EDD2B8" stroke="none" stroke-linecap="round" d="M 67.1733 3.6124 C 71.5775 4.0915 76.3093 6.8019 78.4416 10.6848 C 80.8745 15.1179 78.9984 20.7094 79.2265 25.712 C 79.3352 27.4521 79.5648 29.2698 79.1249 31.021 C 78.6184 34.177 77.4311 37.1866 76.4323 40.3181 C 75.7601 42.429 75.5691 44.7655 74.4001 46.6686 C 73.0843 48.9212 71.7416 52.0553 69.1419 52.511 C 65.288 53.1862 61.2115 51.3451 57.7619 49.5898 C 54.9281 48.1475 52.2746 45.9355 50.7002 43.1631 C 47.8806 38.0182 45.3196 32.3582 44.934 26.4741 C 44.5067 19.9514 43.7365 11.8853 48.4902 7.1687 C 52.7425 2.6273 60.6262 2.9032 67.1733 3.6124 Z " stroke-width="0.508037269115448"/>
    <path id="ID0.3135040863417089" fill="none" stroke="#D8BFA7" stroke-width="1.1154745812896316" stroke-linecap="round" d="M 67.6012 23.2265 C 67.6012 23.2265 68.0083 26.3048 68.1546 27.4836 C 68.2031 27.8685 68.156 28.2623 68.2028 28.6472 C 68.2493 29.0264 68.3445 29.3995 68.4338 29.7712 C 68.521 30.1354 68.7669 30.482 68.7327 30.8549 C 68.6979 31.2322 68.5776 31.7081 68.2406 31.8804 C 67.4567 32.2812 65.6541 32.4288 65.6541 32.4288 "/>
    <path id="ID0.8194515448994935" fill="#EDD2B8" stroke="none" stroke-linecap="round" d="M 44.9 21.2 C 45.754 21.287 46.372 21.856 46.879 22.915 C 47.386 23.974 47.7 25.436 47.7 27.05 C 47.7 28.664 47.386 30.126 46.879 31.185 C 46.372 32.244 45.753 32.786 44.9 32.9 C 44.117 33.003 43.111 32.574 42.75 31.9 C 42.071 30.402 42.191 28.625 42.1 27.05 C 42.01 25.502 41.65 23.8 42.25 22.4 C 42.729 21.546 44.005 21.109 44.9 21.2 Z " stroke-width="1"/>
    <path id="ID0.39239801559597254" fill="#DEDEDE" stroke="#DEDEDE" stroke-width="2" stroke-linecap="round" d="M 43.75 20.75 C 43.954 21.234 44.261 23.228 45.6 24.4 C 46.126 24.861 46.868 23.686 47.25 23.1 C 47.625 22.525 47.69 21.784 47.75 21.1 C 47.808 20.435 47.317 19.705 47.6 19.1 C 47.888 18.485 48.845 18.446 49.25 17.9 C 49.648 17.363 49.488 16.526 49.9 16 C 50.316 15.469 51.234 15.467 51.6 14.9 C 51.965 14.334 51.733 13.552 51.9 12.9 C 52.067 12.247 52.128 11.481 52.6 11 C 53.076 10.514 53.909 10.587 54.5 10.25 C 55.087 9.915 55.476 9.26 56.1 9 C 56.72 8.742 57.429 8.767 58.1 8.75 C 58.768 8.733 59.479 9.146 60.1 8.9 C 60.735 8.648 61 7.866 61.5 7.4 C 62.002 6.932 62.425 6.225 63.1 6.1 C 63.757 5.978 64.34 6.64 65 6.75 C 65.657 6.859 66.349 6.608 67 6.75 C 67.677 6.898 68.266 7.321 68.9 7.6 C 69.514 7.87 70.079 8.4 70.75 8.4 C 71.467 8.4 72.035 7.654 72.75 7.6 C 73.435 7.549 74.1 7.88 74.75 8.1 C 75.386 8.315 75.954 9.083 76.6 8.9 C 77.244 8.717 77.75 7.92 77.75 7.25 C 77.75 6.58 77.153 5.978 76.6 5.6 C 76.033 5.213 75.24 5.349 74.6 5.1 C 73.947 4.846 73.403 4.354 72.75 4.1 C 72.11 3.851 71.387 3.855 70.75 3.6 C 70.127 3.351 69.608 2.883 69 2.6 C 68.389 2.315 67.772 1.96 67.1 1.9 C 66.427 1.84 65.774 2.191 65.1 2.25 C 64.437 2.308 63.766 2.25 63.1 2.25 C 62.434 2.25 61.761 2.167 61.1 2.25 C 60.419 2.335 59.778 2.64 59.1 2.75 C 58.441 2.857 57.767 2.858 57.1 2.9 C 56.434 2.942 55.741 2.817 55.1 3 C 54.427 3.192 53.908 3.761 53.25 4 C 52.612 4.232 51.918 4.275 51.25 4.4 C 50.585 4.525 49.875 4.493 49.25 4.75 C 48.631 5.005 48.148 5.515 47.6 5.9 C 47.033 6.298 46.364 6.585 45.9 7.1 C 45.441 7.61 45.075 8.237 44.9 8.9 C 44.731 9.544 44.883 10.234 44.9 10.9 C 44.917 11.567 45.136 12.247 45 12.9 C 44.861 13.571 44.393 14.131 44.1 14.75 C 43.81 15.363 43.42 15.944 43.25 16.6 C 43.082 17.246 43.1 17.932 43.1 18.6 C 43.1 18.937 43.074 19.191 43.25 19.6 Z "/>
    <path id="ID0.3928942778147757" fill="none" stroke="#B7B7B7" stroke-width="2" stroke-linecap="round" d="M 61.1 39.1 C 61.1 39.1 62.499 38.849 63.2 38.9 C 63.885 38.95 64.522 39.29 65.2 39.4 C 65.859 39.507 66.548 39.696 67.2 39.55 C 67.869 39.4 68.316 38.596 69 38.55 C 69.679 38.504 70.238 39.144 70.9 39.3 C 71.386 39.414 72.4 39.35 72.4 39.35 "/>
    <path id="ID0.8256730306893587" fill="none" stroke="#D8BFA7" stroke-width="1.016074527427797" stroke-linecap="round" d="M 61.2906 42.1206 C 61.2906 42.1206 63.2006 41.9294 64.3794 41.8528 C 64.7195 41.8314 65.0571 41.9133 65.391 41.9746 C 65.7304 42.0371 66.0518 42.2194 66.3969 42.2232 C 67.081 42.2312 67.7583 42.0643 68.4407 42.0101 C 68.7791 41.9831 69.1203 41.9603 69.4592 41.9796 C 69.7985 41.999 70.1358 42.065 70.4696 42.1268 C 71.1729 42.2531 72.7928 42.4856 72.7928 42.4856 "/>
    <path id="ID0.7592270169407129" fill="none" stroke="#D8BFA7" stroke-width="1.016074538230896" stroke-linecap="round" d="M 69.1693 44.0519 C 69.1693 44.0519 68.5475 44.3968 68.204 44.4583 C 67.8708 44.5182 67.5248 44.3735 67.188 44.4075 C 66.8491 44.442 66.5351 44.6188 66.1973 44.6615 C 65.8615 44.7042 65.5109 44.7367 65.1812 44.6615 C 64.9008 44.5975 64.4192 44.2551 64.4192 44.2551 "/>
    <path id="ID0.7592270169407129" fill="none" stroke="#D8BFA7" stroke-width="1.0160745432905196" stroke-linecap="round" d="M 68.6686 49.6397 C 68.6686 49.6397 68.7516 50.3459 68.6781 50.687 C 68.607 51.0181 68.3417 51.2832 68.2453 51.6077 C 68.1486 51.9343 68.1929 52.2919 68.1042 52.6206 C 68.0161 52.9475 67.9131 53.2841 67.7184 53.5606 C 67.5527 53.7957 67.0531 54.1113 67.0531 54.1113 "/>
    <path id="ID0.3135040863417089" fill="none" stroke="#D8BFA7" stroke-width="1.1154746163945608" stroke-linecap="round" d="M 63.3855 33.4234 C 63.3855 33.4234 60.3899 35.8335 59.2007 37.1529 C 58.6887 37.7239 58.1747 39.2164 58.1747 39.2164 "/>
    <path id="ID0.3135040863417089" fill="none" stroke="#D8BFA7" stroke-width="1.1154746163945608" stroke-linecap="round" d="M 69.9145 33.1734 C 69.9145 33.1734 72.9101 35.5835 74.0993 36.9029 C 74.6113 37.4739 75.1253 38.9664 75.1253 38.9664 "/>
    <path id="ID0.3780672522261739" fill="none" stroke="#B7B7B7" stroke-width="2" stroke-linecap="round" d="M 53.35 22.7 C 53.35 22.7 54.013 21.411 54.6 21.05 C 55.176 20.696 55.934 20.817 56.6 20.7 C 57.266 20.583 57.925 20.389 58.6 20.35 C 59.93 20.272 62.6 20.35 62.6 20.35 "/>
    <path id="ID0.3780672522261739" fill="none" stroke="#B7B7B7" stroke-width="1.7094017267227173" stroke-linecap="round" d="M 77.5244 22.2645 C 77.5244 22.2645 76.9577 21.1628 76.456 20.8543 C 75.9637 20.5517 75.3158 20.6551 74.7466 20.5551 C 74.1773 20.4551 73.6141 20.2893 73.0372 20.256 C 71.9004 20.1893 69.6184 20.256 69.6184 20.256 "/>
    <path id="ID0.2118763979524374" fill="#D8BFA7" stroke="none" d="M 58.9 25.3702 C 59.866 25.3702 60.741 25.4516 61.374 25.5827 C 62.008 25.7137 62.4 25.895 62.4 26.0952 C 62.4 26.2954 62.008 26.4767 61.374 26.6077 C 60.741 26.7388 59.866 26.8202 58.9 26.8202 C 57.934 26.8202 57.059 26.7388 56.426 26.6077 C 55.792 26.4767 55.4 26.2954 55.4 26.0952 C 55.4 25.895 55.792 25.7137 56.426 25.5827 C 57.059 25.4516 57.934 25.3702 58.9 25.3702 Z " stroke-width="0.8096359334920665"/>
    <path id="ID0.2118763979524374" fill="#D8BFA7" stroke="none" d="M 73.3 25.3471 C 74.266 25.3471 75.141 25.4398 75.774 25.5889 C 76.408 25.738 76.8 25.9443 76.8 26.1721 C 76.8 26.3999 76.408 26.6062 75.774 26.7553 C 75.141 26.9045 74.266 26.9971 73.3 26.9971 C 72.334 26.9971 71.459 26.9045 70.826 26.7553 C 70.192 26.6062 69.8 26.3999 69.8 26.1721 C 69.8 25.9443 70.192 25.738 70.826 25.5889 C 71.459 25.4398 72.334 25.3471 73.3 25.3471 Z " stroke-width="0.8374773600801371"/>
    <g id="ID0.16937132459133863">
      <path id="ID0.7788236327469349" fill="#FFFFFF" stroke="none" stroke-linecap="round" d="M 56.5 24.1 L 57.85 23.9 L 60.1 23.65 L 62.25 23.75 L 62.55 26 L 60 26.6 L 55 25.95 L 56.5 24.1 Z " stroke-width="1"/>
      <path id="ID0.036129117012023926" fill="#5E3B21" stroke="none" d="M 60.525 23.75 C 60.932 23.75 61.301 23.915 61.568 24.182 C 61.835 24.449 62 24.818 62 25.225 C 62 25.632 61.835 26.001 61.568 26.268 C 61.301 26.535 60.932 26.7 60.525 26.7 C 60.118 26.7 59.749 26.535 59.482 26.268 C 59.215 26.001 59.05 25.632 59.05 25.225 C 59.05 24.818 59.215 24.449 59.482 24.182 C 59.749 23.915 60.118 23.75 60.525 23.75 Z " stroke-width="1"/>
      <path id="ID0.9171876185573637" fill="#191009" stroke="none" d="M 60.85 24.45 C 61.057 24.45 61.244 24.534 61.38 24.67 C 61.516 24.806 61.6 24.993 61.6 25.2 C 61.6 25.407 61.516 25.594 61.38 25.73 C 61.244 25.866 61.057 25.95 60.85 25.95 C 60.643 25.95 60.456 25.866 60.32 25.73 C 60.184 25.594 60.1 25.407 60.1 25.2 C 60.1 24.993 60.184 24.806 60.32 24.67 C 60.456 24.534 60.643 24.45 60.85 24.45 Z " stroke-width="1"/>
    </g>
    <g id="ID0.3830250068567693">
      <path id="ID0.7788236327469349" fill="#FFFFFF" stroke="none" stroke-linecap="round" d="M 75.9 24.3 L 74.2 23.75 L 72.25 23.75 L 70.1 23.85 L 69.8 26.1 L 72.35 26.7 L 77 26.25 L 75.9 24.3 Z " stroke-width="1"/>
      <g id="ID0.8607796453870833">
        <path id="ID0.036129117012023926" fill="#5E3B21" stroke="none" d="M 73.775 23.75 C 74.182 23.75 74.551 23.915 74.818 24.182 C 75.085 24.449 75.25 24.818 75.25 25.225 C 75.25 25.632 75.085 26.001 74.818 26.268 C 74.551 26.535 74.182 26.7 73.775 26.7 C 73.368 26.7 72.999 26.535 72.732 26.268 C 72.465 26.001 72.3 25.632 72.3 25.225 C 72.3 24.818 72.465 24.449 72.732 24.182 C 72.999 23.915 73.368 23.75 73.775 23.75 Z " stroke-width="1"/>
        <path id="ID0.9171876185573637" fill="#191009" stroke="none" d="M 74.1 24.4 C 74.307 24.4 74.494 24.484 74.63 24.62 C 74.766 24.756 74.85 24.943 74.85 25.15 C 74.85 25.357 74.766 25.544 74.63 25.68 C 74.494 25.816 74.307 25.9 74.1 25.9 C 73.893 25.9 73.706 25.816 73.57 25.68 C 73.434 25.544 73.35 25.357 73.35 25.15 C 73.35 24.943 73.434 24.756 73.57 24.62 C 73.706 24.484 73.893 24.4 74.1 24.4 Z " stroke-width="1"/>
      </g>
    </g>
  </g>
  <g id="ID0.028275346383452415">
    <g id="ID0.5880346246995032">
      <path id="ID0.6829322893172503" fill="#EDD2B8" stroke="none" stroke-linecap="round" d="M 250.08 174.781 L 239.2416 170.666 L 236.5012 176.4564 L 232.9857 182.7289 L 233.516 188.4195 L 234.5613 193.0371 L 236.8777 195.8962 L 238.9254 202.4704 L 243.5808 201.8315 L 244.6108 199.6856 L 246.2178 199.3308 L 249.2233 196.3857 L 252.3942 193.0153 L 254.0099 188.3547 L 252.5341 181.3173 L 250.08 174.781 Z " stroke-width="0.8164595827124561"/>
      <g id="ID0.9434720128774643">
        <path id="ID0.6507829907350242" fill="#282828" stroke="none" stroke-linecap="round" d="M 249.7075 109.5798 L 231.7537 121.5028 L 234.667 138.2463 L 236.9387 150.7446 L 238.4348 166.8001 L 236.7657 173.9666 L 251.6703 175.0787 L 250.2086 167.7529 L 251.1286 157.8272 L 252.8186 145.1648 L 252.3967 131.8381 L 249.7075 109.5798 Z " stroke-width="0.8164595827124561"/>
        <path id="ID0.9892375003546476" fill="none" stroke="#191919" stroke-width="1.9999999547007297" stroke-linecap="round" d="M 251.1158 174.3581 L 237.4189 172.8726 L 239.1194 164.1773 "/>
      </g>
    </g>
    <g id="ID0.6660797297954559">
      <path id="ID0.5368814701214433" fill="#343434" stroke="none" stroke-linecap="round" d="M 203.7528 301.1277 L 206.6362 292.2977 L 211.1251 283.0508 L 221.1012 288.9088 L 232.3673 296.5439 L 249.8293 306.8862 L 250.9078 313.4018 L 226.2104 314.5807 L 204.9654 310.9144 L 203.7528 301.1277 Z " stroke-width="0.7702165290554439"/>
      <g id="ID0.5077062323689461">
        <path id="ID0.05466862628236413" fill="#252525" stroke="none" stroke-linecap="round" d="M 204.8516 228.8262 L 226.5443 225.4459 L 224.8084 240.1291 L 224.0661 245.1423 L 224.0596 259.6268 L 226.5603 292.878 L 205.3164 295.6482 L 203.9791 276.8996 L 201.6673 269.833 L 200.4975 262.1051 L 202.0957 250.9978 L 201.9969 240.8819 L 204.8516 228.8262 Z " stroke-width="0.5998532736063101"/>
        <path id="ID0.5319394422695041" fill="none" stroke="#131313" stroke-width="2" stroke-linecap="round" d="M 226.6 291.9 L 205.35 295.9 L 204.35 284.4 "/>
      </g>
      <g id="ID0.8820344842970371">
        <path id="ID0.3809091211296618" fill="#252525" stroke="none" stroke-linecap="round" d="M 193.6285 155.2033 L 225.3436 135.6871 L 226.6062 159.9149 L 230.5946 208.3911 L 230.112 219.1436 L 226.1109 230.4264 L 218.0176 228.2424 L 205.0644 229.5329 L 204.4031 207.771 L 202.6648 194.4681 L 193.6285 155.2033 Z " stroke-width="0.7305889665074583"/>
        <path id="ID0.9495224836282432" fill="none" stroke="#131313" stroke-width="2" stroke-linecap="round" d="M 230.6 208.4 L 230.6 216.9 L 228.6 224.9 L 220.1 229.4 L 219.1 234.4 "/>
      </g>
    </g>
    <g id="ID0.18228224432095885">
      <path id="ID0.5368814701214433" fill="#404040" stroke="none" stroke-linecap="round" d="M 165.4399 302.3019 L 168.5137 293.5363 L 173.2016 284.3887 L 183.0487 290.4612 L 194.1469 298.3383 L 211.381 309.0561 L 212.3182 315.5934 L 187.6011 316.2377 L 166.4404 312.1125 L 165.4399 302.3019 Z " stroke-width="0.7702165249851639"/>
      <g id="ID0.5077062323689461">
        <path id="ID0.05466862628236413" fill="#252525" stroke="none" stroke-linecap="round" d="M 169.3916 229.4683 L 191.2198 227.116 L 188.7924 241.701 L 187.8143 246.6735 L 187.1239 261.1416 L 188.0518 294.4737 L 166.7008 296.2378 L 166.2502 277.447 L 164.2747 270.2791 L 163.471 262.5045 L 165.5919 251.4851 L 165.9709 241.3758 L 169.3916 229.4683 Z " stroke-width="0.5998532668114317"/>
        <path id="ID0.5319394422695041" fill="none" stroke="#131313" stroke-width="1.9999999924153835" stroke-linecap="round" d="M 188.1482 293.5254 L 166.7331 296.5176 L 166.2772 284.9832 "/>
      </g>
      <g id="ID0.8820344842970371">
        <path id="ID0.3809091211296618" fill="#252525" stroke="none" stroke-linecap="round" d="M 166.8068 152.8403 L 194.3169 137.3934 L 194.4342 161.6537 L 196.1293 210.2642 L 195.1395 220.9819 L 190.6102 232.0632 L 182.629 229.4995 L 169.0827 231.515 L 167.1896 208.4026 L 166.2717 195.3458 L 166.8068 152.8403 Z " stroke-width="0.7305889820079058"/>
        <path id="ID0.9495224836282432" fill="none" stroke="#131313" stroke-width="1.9999999924153835" stroke-linecap="round" d="M 196.0863 210.3074 L 195.685 218.7979 L 193.3095 226.6946 L 184.6065 230.7882 L 183.3715 235.7354 "/>
      </g>
    </g>
    <path id="ID0.7729651997797191" fill="#282828" stroke="none" stroke-linecap="round" d="M 144.9895 78.5594 L 168.7621 78.9296 L 165.3458 98.9999 L 161.774 107.0792 L 159.7554 117.6802 L 156.3902 126.0862 L 139.5483 122.9566 L 137.5595 116.0873 L 142.9694 92.3279 L 144.9895 78.5594 Z " stroke-width="0.9588636951481915"/>
    <path id="ID0.4757494777441025" fill="#282828" stroke="none" stroke-linecap="round" d="M 155.3453 63.4422 L 164.1608 61.2996 L 180.5673 66.18 L 172.1192 91.6536 L 161.4672 96.6531 L 156.8146 97.7245 L 153.5088 95.3438 L 150.5703 92.3679 L 144.6934 89.7491 L 144.5709 84.2734 L 145.3055 76.179 L 148.6113 67.8465 L 155.3453 63.4422 Z " stroke-width="0.48299249213559925"/>
    <path id="ID0.7729651997797191" fill="#282828" stroke="none" stroke-linecap="round" d="M 247.1276 78.8914 L 223.433 76.9329 L 224.8683 97.2411 L 228.2533 108.0457 L 229.1991 117.2882 L 231.2507 125.9148 L 248.197 123.6079 L 250.8486 116.9663 L 247.7903 92.7915 L 247.1276 78.8914 Z " stroke-width="0.9588636846711274"/>
    <path id="ID0.4757494777441025" fill="#282828" stroke="none" stroke-linecap="round" d="M 236.3047 62.9422 L 227.4892 60.7996 L 211.0827 65.68 L 219.5308 91.1536 L 230.1828 96.1531 L 234.8354 97.2245 L 238.1412 94.8438 L 241.0797 91.8679 L 246.9566 89.2491 L 247.0791 83.7734 L 246.3445 75.679 L 243.0387 67.3465 L 236.3047 62.9422 Z " stroke-width="0.48299249213559925"/>
    <g id="ID0.8990198895335197">
      <path id="ID0.17576928716152906" fill="#DBDBDB" stroke="none" d="M 199.1 57.95 L 198.85 57.95 L 198.85 57.95 L 199.1 57.95 L 199.1 57.95 Z " stroke-width="1"/>
      <path id="ID0.4270821204409003" fill="#252525" stroke="none" stroke-linecap="round" d="M 196.9401 179.9511 L 196.6861 67.1948 L 214.0413 69.6745 L 220.855 74.1022 L 223.6272 78.2078 L 230.4115 89.7786 L 229.48 100.2366 L 228.4142 105.6913 L 229.937 112.6285 L 230.2994 118.1129 L 228.0139 124.971 L 226.2866 130.1738 L 224.9037 139.4318 L 225.9485 161.3608 L 220.6368 169.4658 L 215.7236 175.5787 L 196.9401 179.9511 Z " stroke-width="0.47614257300029306"/>
      <path id="ID0.4270821204409003" fill="#252525" stroke="none" stroke-linecap="round" d="M 197.0599 180.1011 L 197.3139 67.3448 L 179.9587 69.8245 L 173.145 74.2522 L 170.3728 78.3578 L 163.5885 89.9286 L 164.52 100.3866 L 165.5858 105.8413 L 164.063 112.7785 L 163.7006 118.2629 L 165.9861 125.121 L 167.7134 130.3238 L 169.0963 139.5818 L 168.0515 161.5108 L 173.3632 169.6158 L 178.2764 175.7287 L 197.0599 180.1011 Z " stroke-width="0.47614257300029306"/>
      <path id="ID0.5114514343440533" fill="#282828" stroke="none" d="M 170.7826 68.5277 L 223.7826 68.5277 L 223.7826 156.7777 L 170.7826 156.7777 L 170.7826 68.5277 Z " stroke-width="1.0073066040733152"/>
      <path id="ID0.9286923445761204" fill="#D4D4D4" stroke="none" stroke-linecap="round" d="M 185.413 34.6101 L 204.2207 36.0861 L 197.1023 54.9652 L 198.3641 95.4373 L 160.4156 66.3926 L 180.2945 55.7984 L 185.413 34.6101 Z " stroke-width="0.4761425852775574"/>
      <path id="ID0.9286923445761204" fill="#D4D4D4" stroke="none" stroke-linecap="round" d="M 208.337 34.8601 L 189.5293 36.3361 L 196.6477 55.2152 L 197.8618 95.2111 L 233.3344 66.6426 L 213.4555 56.0484 L 208.337 34.8601 Z " stroke-width="0.4761425852775574"/>
      <path id="ID0.39874776685610414" fill="#1F2022" stroke="none" stroke-linecap="round" d="M 178.6477 56.514 L 198.5174 66.3848 L 216.3854 57.4238 L 220.3886 59.5617 L 198.3221 70.1602 L 174.8886 58.47 L 178.6477 56.514 Z " stroke-width="0.943659350131214"/>
      <path id="ID0.13444371055811644" fill="#1F1F1F" stroke="none" stroke-linecap="round" d="M 196.1 68.2 L 201.35 67.95 L 204.15 96.45 L 192.1 96.95 L 196.1 68.2 Z " stroke-width="1"/>
      <path id="ID0.751046194229275" fill="#191919" stroke="none" stroke-linecap="round" d="M 193.815 63.185 L 198.49 61.15 L 203 63.185 L 203.44 71.16 L 199.04 72.15 L 193.815 71.16 L 193.815 63.185 Z " stroke-width="1.100000023841858"/>
      <path id="ID0.7854711129330099" fill="#282828" stroke="none" stroke-linecap="round" d="M 184.85 84.95 L 198.85 93.7 L 212.6 83.95 L 210.6 101.45 L 187.35 101.45 L 184.85 84.95 Z " stroke-width="1"/>
      <path id="ID0.562834897544235" fill="#282828" stroke="none" stroke-linecap="round" d="M 168.1 156.45 L 198.35 150.7 L 198.35 170.95 L 184.6 172.2 L 168.1 156.45 Z " stroke-width="1"/>
      <path id="ID0.562834897544235" fill="#282828" stroke="none" stroke-linecap="round" d="M 229.05 156.7 L 198.8 150.95 L 198.8 171.2 L 212.55 172.45 L 229.05 156.7 Z " stroke-width="1"/>
      <path id="ID0.6824178956449032" fill="none" stroke="#191919" stroke-width="2" stroke-linecap="round" d="M 198.6 93.95 L 198.35 170.7 "/>
      <path id="ID0.4144489667378366" fill="#313131" stroke="none" stroke-linecap="round" d="M 159.85 63.45 L 180.1 55.45 L 177.1 77.2 L 180.35 137.2 L 170.85 181.95 L 159.85 176.95 L 159.6 180.45 L 162.6 132.45 L 157.85 89.2 L 156.85 72.95 L 159.85 63.45 Z " stroke-width="1"/>
      <path id="ID0.5234400681219995" fill="#101010" stroke="none" d="M 200.8162 99.6625 C 201.2289 99.6625 201.6031 99.8301 201.874 100.101 C 202.1449 100.3719 202.3125 100.7461 202.3125 101.1587 C 202.3125 101.5714 202.1449 101.9456 201.874 102.2165 C 201.6031 102.4874 201.2289 102.655 200.8162 102.655 C 200.4036 102.655 200.0294 102.4874 199.7585 102.2165 C 199.4876 101.9456 199.32 101.5714 199.32 101.1587 C 199.32 100.7461 199.4876 100.3719 199.7585 100.101 C 200.0294 99.8301 200.4036 99.6625 200.8162 99.6625 Z " stroke-width="0.6299999952316284"/>
      <path id="ID0.5234400681219995" fill="#101010" stroke="none" d="M 200.8162 113.2625 C 201.2289 113.2625 201.6031 113.4301 201.874 113.701 C 202.1449 113.9719 202.3125 114.3461 202.3125 114.7587 C 202.3125 115.1714 202.1449 115.5456 201.874 115.8165 C 201.6031 116.0874 201.2289 116.255 200.8162 116.255 C 200.4036 116.255 200.0294 116.0874 199.7585 115.8165 C 199.4876 115.5456 199.32 115.1714 199.32 114.7587 C 199.32 114.3461 199.4876 113.9719 199.7585 113.701 C 200.0294 113.4301 200.4036 113.2625 200.8162 113.2625 Z " stroke-width="0.6299999952316284"/>
      <path id="ID0.5234400681219995" fill="#101010" stroke="none" d="M 200.8162 144.8125 C 201.2289 144.8125 201.6031 144.9801 201.874 145.251 C 202.1449 145.5219 202.3125 145.8961 202.3125 146.3087 C 202.3125 146.7214 202.1449 147.0956 201.874 147.3665 C 201.6031 147.6374 201.2289 147.805 200.8162 147.805 C 200.4036 147.805 200.0294 147.6374 199.7585 147.3665 C 199.4876 147.0956 199.32 146.7214 199.32 146.3087 C 199.32 145.8961 199.4876 145.5219 199.7585 145.251 C 200.0294 144.9801 200.4036 144.8125 200.8162 144.8125 Z " stroke-width="0.6299999952316284"/>
      <path id="ID0.5234400681219995" fill="#101010" stroke="none" d="M 200.8162 130.0125 C 201.2289 130.0125 201.6031 130.1801 201.874 130.451 C 202.1449 130.7219 202.3125 131.0961 202.3125 131.5087 C 202.3125 131.9214 202.1449 132.2956 201.874 132.5665 C 201.6031 132.8374 201.2289 133.005 200.8162 133.005 C 200.4036 133.005 200.0294 132.8374 199.7585 132.5665 C 199.4876 132.2956 199.32 131.9214 199.32 131.5087 C 199.32 131.0961 199.4876 130.7219 199.7585 130.451 C 200.0294 130.1801 200.4036 130.0125 200.8162 130.0125 Z " stroke-width="0.6299999952316284"/>
      <path id="ID0.5234400681219995" fill="#101010" stroke="none" d="M 200.7162 158.8125 C 201.1289 158.8125 201.5031 158.9801 201.774 159.251 C 202.0449 159.5219 202.2125 159.8961 202.2125 160.3087 C 202.2125 160.7214 202.0449 161.0956 201.774 161.3665 C 201.5031 161.6374 201.1289 161.805 200.7162 161.805 C 200.3036 161.805 199.9294 161.6374 199.6585 161.3665 C 199.3876 161.0956 199.22 160.7214 199.22 160.3087 C 199.22 159.8961 199.3876 159.5219 199.6585 159.251 C 199.9294 158.9801 200.3036 158.8125 200.7162 158.8125 Z " stroke-width="0.6299999952316284"/>
      <path id="ID0.4144489667378366" fill="#313131" stroke="none" stroke-linecap="round" d="M 233.4 62.6 L 213.15 54.6 L 216.15 76.35 L 212.9 136.35 L 222.4 181.1 L 233.4 176.1 L 233.65 179.6 L 230.65 131.6 L 235.4 88.35 L 236.4 72.1 L 233.4 62.6 Z " stroke-width="1"/>
      <path id="ID0.8752945330925286" fill="none" stroke="#222222" stroke-width="2" stroke-linecap="round" d="M 160.35 63.7 L 157.1 71.45 L 160.35 109.2 "/>
      <path id="ID0.8752945330925286" fill="none" stroke="#222222" stroke-width="2" stroke-linecap="round" d="M 233.6 63.2 L 236.85 70.95 L 233.6 108.7 "/>
      <path id="ID0.5234400681219995" fill="#101010" stroke="none" d="M 177.7162 145.4125 C 178.1289 145.4125 178.5031 145.5801 178.774 145.851 C 179.0449 146.1219 179.2125 146.4961 179.2125 146.9087 C 179.2125 147.3214 179.0449 147.6956 178.774 147.9665 C 178.5031 148.2374 178.1289 148.405 177.7162 148.405 C 177.3036 148.405 176.9294 148.2374 176.6585 147.9665 C 176.3876 147.6956 176.22 147.3214 176.22 146.9087 C 176.22 146.4961 176.3876 146.1219 176.6585 145.851 C 176.9294 145.5801 177.3036 145.4125 177.7162 145.4125 Z " stroke-width="0.6299999952316284"/>
      <path id="ID0.5234400681219995" fill="#101010" stroke="none" d="M 176.3162 152.6625 C 176.7289 152.6625 177.1031 152.8301 177.374 153.101 C 177.6449 153.3719 177.8125 153.7461 177.8125 154.1587 C 177.8125 154.5714 177.6449 154.9456 177.374 155.2165 C 177.1031 155.4874 176.7289 155.655 176.3162 155.655 C 175.9036 155.655 175.5294 155.4874 175.2585 155.2165 C 174.9876 154.9456 174.82 154.5714 174.82 154.1587 C 174.82 153.7461 174.9876 153.3719 175.2585 153.101 C 175.5294 152.8301 175.9036 152.6625 176.3162 152.6625 Z " stroke-width="0.6299999952316284"/>
      <g id="ID0.20783481979742646">
        <path id="ID0.5848579816520214" fill="#737373" stroke="none" stroke-linecap="round" d="M 222.8 91.05 L 229.65 89.55 L 229.55 93.45 L 222.3 93.95 L 222.8 91.05 Z " stroke-width="1"/>
        <path id="ID0.13105127029120922" fill="none" stroke="#222222" stroke-width="2" stroke-linecap="round" d="M 220.95 94.2 L 225.45 94.2 L 230.7 92.7 "/>
      </g>
    </g>
    <g id="ID0.6169916936196387">
      <path id="ID0.6829322893172503" fill="#EDD2B8" stroke="none" stroke-linecap="round" d="M 198.5442 136.6857 L 195.2475 125.571 L 201.2258 123.2693 L 207.7427 120.2306 L 213.378 121.1831 L 217.9049 122.5693 L 220.5837 125.0921 L 226.9872 127.6235 L 226.0035 132.2185 L 223.7868 133.0859 L 223.3134 134.662 L 220.1527 137.4399 L 216.5555 140.3511 L 211.7876 141.6153 L 204.8796 139.6196 L 198.5442 136.6857 Z " stroke-width="0.8164595524288579"/>
      <g id="ID0.9434720128774643">
        <path id="ID0.6507829907350242" fill="#282828" stroke="none" stroke-linecap="round" d="M 138.6966 131.6465 L 137.6706 116.6512 L 165.0641 120.4118 L 175.5172 121.7646 L 191.4167 124.4519 L 198.6876 123.321 L 198.687 138.267 L 191.4904 136.2639 L 181.5237 136.4425 L 168.7706 137.1851 L 159.0052 137.3976 L 138.6966 131.6465 Z " stroke-width="0.8164595524288579"/>
        <path id="ID0.9892375003546476" fill="none" stroke="#191919" stroke-width="1.9999999606026522" stroke-linecap="round" d="M 198.0472 137.6474 L 197.5856 123.8779 L 188.7878 124.9264 "/>
      </g>
    </g>
    <g id="ID0.08065540948882699">
      <path id="ID0.2553020962513983" fill="#999FA5" stroke="none" d="M 209.85 113.45 C 219.92 113.45 229.045 114.571 235.653 116.381 C 242.26 118.191 246.35 120.691 246.35 123.45 C 246.35 126.209 242.26 128.709 235.653 130.519 C 229.045 132.329 219.92 133.45 209.85 133.45 C 199.78 133.45 190.655 132.329 184.047 130.519 C 177.44 128.709 173.35 126.209 173.35 123.45 C 173.35 120.691 177.44 118.191 184.047 116.381 C 190.655 114.571 199.78 113.45 209.85 113.45 Z " stroke-width="1"/>
      <path id="ID0.4823109242133796" fill="#8B9196" stroke="none" stroke-linecap="round" d="M 208.85 97.7 C 217.196 97.7 224.758 99.521 230.234 102.463 C 235.71 105.404 237.62 109.353 239.1 113.95 C 240.262 117.565 241.295 123.42 238.1 125.2 C 229.308 129.859 218.554 130.374 208.85 130.2 C 198.99 130.023 188.627 128.848 179.85 124.2 C 176.94 122.57 177.531 117.257 178.6 113.95 C 180.089 109.356 181.99 105.404 187.466 102.463 C 192.942 99.521 200.504 97.7 208.85 97.7 Z " stroke-width="1"/>
      <path id="ID0.0372768803499639" fill="none" stroke="#A4ABB1" stroke-width="2" stroke-linecap="round" d="M 218.85 100.7 C 218.85 100.7 221.721 101.24 223.1 101.7 C 223.737 101.912 224.318 102.291 224.85 102.7 C 225.41 103.131 226.35 104.2 226.35 104.2 "/>
      <path id="ID0.0845643924549222" fill="none" stroke="#A4ABB1" stroke-width="2" stroke-linecap="round" d="M 221.6 105.2 C 221.6 105.2 222.97 105.62 223.6 105.95 C 224.726 106.54 226.85 107.95 226.85 107.95 "/>
    </g>
  </g>
</svg>