<svg xmlns="http://www.w3.org/2000/svg" xmlns:xlink="http://www.w3.org/1999/xlink" version="1.1" width="159.9251589378461" height="305.6528200706586" viewBox="30.853800078196095 -0.6761587659887809 159.9251589378461 305.6528200706586">
  <defs>
    <linearGradient id="grad_1" y2="1" x2="0">
      <stop offset="0" stop-color="#222325" stop-opacity="1"/>
      <stop offset="1" stop-color="#2E3034" stop-opacity="1"/>
    </linearGradient>
  </defs>
  <!-- Exported by Scratch - http://scratch.mit.edu/ -->
  <path id="ID0.7766774026677012" fill="#0D0D0D" stroke="#0D0D0D" stroke-width="1.9122990183792994" stroke-linecap="round" d="M 159.613 173.3445 C 161.9867 143.012 165.9178 111.7006 157.9296 81.3197 C 154.9084 69.8333 140.2274 62.7435 128.6641 57.2179 C 123.3858 54.6986 117.3957 58.4213 111.8338 59.292 C 110.2549 59.5354 109.0208 60.3273 107.6525 60.7869 C 105.7341 61.2574 103.7371 61.5414 101.9809 62.0804 C 101.359 62.2729 100.7334 62.4612 100.1501 62.7486 C 99.4721 62.9774 98.9293 63.3618 98.2963 63.6425 C 96.9853 64.1521 95.6697 64.7067 94.3633 65.1711 C 93.0661 65.5451 91.7285 65.8221 90.4764 66.248 C 89.8527 66.4384 89.1839 66.5769 88.6456 66.9162 C 88.0081 67.242 87.5461 67.8206 86.994 68.2953 C 86.4512 68.6798 85.9084 69.0642 85.3655 69.4487 C 84.8273 69.788 84.14 70.1071 83.737 70.602 C 83.2889 71.0451 83.1204 71.709 82.8075 72.3077 C 82.4992 72.8612 82.1412 73.408 81.8779 74.0134 C 81.311 75.1271 80.7891 76.2928 80.2672 77.4584 C 79.9589 78.0119 79.6506 78.5654 79.3377 79.1641 C 79.0294 79.7176 78.7211 80.2711 78.4082 80.8698 C 78.0999 81.4233 77.7915 81.9768 77.4786 82.5755 C 77.1703 83.129 76.7627 83.669 76.5491 84.2811 C 76.2905 84.8414 76.2305 85.4285 76.1163 86.054 C 75.957 86.6277 75.7977 87.2013 75.6835 87.8268 C 75.5242 88.4005 75.4146 88.9809 75.2507 89.5997 C 75.0417 90.1666 74.7334 90.7202 74.5695 91.339 C 73.9426 93.0398 73.3562 94.8377 72.7744 96.5904 C 72.5654 97.1573 72.2571 97.7108 72.0932 98.3296 C 71.8843 98.8966 71.7747 99.477 71.6604 100.1025 C 71.5011 100.6762 71.2922 101.2431 71.2276 101.8753 C 71.118 102.4557 71.1077 103.0495 71.0432 103.6818 C 70.9233 104.856 70.6995 106.0619 70.6743 107.2946 C 70.6144 107.8817 70.7854 108.1796 70.7383 109.1346 C 70.4145 112.7994 69.9867 116.4959 69.6086 120.199 C 69.2444 123.7667 68.8709 127.4248 68.502 131.0376 C 68.3222 132.7989 68.1828 134.6572 67.9487 136.4569 C 67.8391 137.0373 67.6798 137.611 67.5159 138.2298 C 67.1292 139.551 66.6478 140.8137 66.3558 142.1935 C 66.1966 142.7672 66.236 143.3677 66.1714 143.9999 C 66.0618 144.5803 65.8528 145.1472 65.7386 145.7728 C 65.42 146.9201 65.0472 148.1059 64.873 149.3185 C 64.6538 150.4792 64.6286 151.712 64.5041 152.9314 C 64.1399 156.4991 63.7664 160.1571 63.3975 163.7699 C 63.3099 164.628 63.3273 164.9508 63.2131 165.5764 C 63.0538 166.15 62.6958 166.6968 62.5319 167.3156 C 62.0044 169.0299 61.6663 170.8613 61.2335 172.6342 C 61.0743 173.2079 60.9646 173.7882 60.8007 174.407 C 60.3736 175.6313 59.7974 176.8353 59.4154 178.1114 C 59.2018 178.7235 59.0783 179.4394 58.9595 180.1101 C 58.7956 180.7289 58.5774 181.3861 58.5037 182.1087 C 58.394 182.6891 58.3838 183.2829 58.3192 183.9151 C 58.2593 184.5022 58.1 185.0759 58.1348 185.7216 C 58.1639 186.9159 58.3871 188.1822 58.511 189.4352 C 58.5504 190.0357 58.5898 190.6362 58.575 191.2752 C 58.515 191.8623 58.4551 192.4494 58.3905 193.0816 C 58.3306 193.6687 58.2706 194.2558 58.2061 194.888 C 57.9869 196.0488 57.8624 197.2681 57.5889 198.4673 C 57.2749 199.5695 56.4979 201.7536 56.4979 201.7536 C 56.2035 202.1717 55.3231 204.6587 54.8181 205.876 C 54.5441 206.5376 54.1569 207.1528 53.8655 207.8075 C 53.612 208.3767 53.4117 208.9677 53.1843 209.5468 C 52.957 210.1259 52.6916 210.6934 52.5032 211.2861 C 52.3191 211.8655 52.2544 212.4794 52.0704 213.0589 C 51.8819 213.6515 51.6533 214.2341 51.3892 214.7982 C 51.116 215.383 50.6952 215.9039 50.4597 216.5039 C 50.2377 217.07 50.1707 217.6863 50.0269 218.2767 C 49.883 218.8671 49.7379 219.4592 49.5941 220.0496 C 49.4502 220.64 49.3051 221.232 49.1613 221.8224 C 49.0174 222.4128 48.8182 222.993 48.7285 223.5953 C 48.5511 224.7901 48.537 226.0134 48.3596 227.2081 C 48.2699 227.8104 48.0707 228.3906 47.9268 228.981 C 47.7829 229.5714 47.5837 230.1516 47.494 230.7539 C 47.3166 231.9486 47.2201 233.1599 47.1251 234.3667 C 46.935 236.7813 46.8149 239.2109 46.6358 241.626 C 46.5912 242.2298 46.5127 242.8309 46.4513 243.4324 C 46.3899 244.034 46.3699 244.6439 46.2669 245.2389 C 46.1634 245.8384 46.0182 246.4323 45.8341 247.0117 C 45.6457 247.6043 45.3002 248.1473 45.1529 248.751 C 45.0095 249.3369 45.0715 249.9624 44.9685 250.5574 C 44.865 251.1569 44.6392 251.7308 44.5357 252.3303 C 44.4327 252.9253 44.4543 253.5417 44.3513 254.1367 C 44.2478 254.7362 44.1025 255.3301 43.9185 255.9096 C 43.7301 256.5022 43.4257 257.0562 43.2373 257.6488 C 43.0532 258.2283 42.9886 258.8422 42.8045 259.4217 C 42.6161 260.0143 42.298 260.5647 42.1233 261.161 C 41.7817 262.3271 41.5465 263.526 41.2577 264.7067 C 41.1139 265.2971 40.9688 265.8891 40.8249 266.4795 C 40.6811 267.0699 40.4956 267.6529 40.3921 268.2524 C 40.2891 268.8474 40.2273 269.4525 40.2077 270.0588 C 40.1876 270.6696 40.3057 271.289 40.2716 271.8988 C 40.2035 273.1084 40.1886 274.3398 39.9028 275.5117 C 39.6083 276.719 39.0435 277.8514 38.5404 278.9902 C 38.2798 279.5804 37.8841 280.1111 37.6109 280.6959 C 37.3468 281.26 37.1938 281.8711 36.9297 282.4352 C 36.6565 283.02 36.1948 283.5271 36.0002 284.1409 C 35.8176 284.716 35.476 285.4078 35.8158 285.9473 C 36.178 286.5228 37.0403 286.719 37.7335 286.8934 C 38.3875 287.0578 39.0769 286.8461 39.7435 286.9362 C 40.4101 287.0263 41.0408 287.3405 41.7074 287.4306 C 42.374 287.5208 43.0479 287.4214 43.7174 287.4735 C 44.3819 287.5248 45.0553 287.5783 45.7043 287.7421 C 46.3731 287.9103 47.054 288.1169 47.6452 288.4623 C 48.262 288.8232 48.6147 289.5311 49.2685 289.8264 C 49.8769 290.1019 50.5938 290.0056 51.2554 290.095 C 51.9171 290.1845 52.578 290.3499 53.2423 290.3637 C 53.9267 290.3784 54.591 290.166 55.2754 290.1807 C 55.9397 290.1945 56.6055 290.3221 57.2623 290.4493 C 57.9241 290.5773 58.5644 290.8159 59.2262 290.9438 C 59.883 291.071 60.5641 291.0487 61.2131 291.2124 C 61.8818 291.3807 62.4852 291.7644 63.154 291.9327 C 63.803 292.0964 64.4841 292.074 65.1409 292.2013 C 65.8026 292.3292 66.4508 292.5313 67.1048 292.6957 C 67.7588 292.8602 68.4001 293.119 69.0687 293.1902 C 71.0654 293.4024 73.0761 293.3886 75.0756 293.5445 C 75.7401 293.5959 76.4057 293.6859 77.0625 293.8131 C 77.7243 293.941 78.3624 294.1921 79.0264 294.3075 C 80.3436 294.536 81.683 294.6164 83.0003 294.8448 C 83.6643 294.9602 84.3024 295.2113 84.9641 295.3393 C 85.6209 295.4665 86.2866 295.5565 86.9511 295.6079 C 87.6206 295.6599 88.2916 295.5987 88.9611 295.6507 C 89.6256 295.7021 90.2835 295.868 90.948 295.9194 C 91.6175 295.9714 92.2882 295.9229 92.958 295.9622 C 94.2895 296.0406 95.6286 296.0943 96.9549 296.2737 C 97.6215 296.3638 98.2745 296.5674 98.9188 296.7681 C 99.5777 296.9735 100.1909 297.3201 100.8596 297.4883 C 101.5087 297.6521 102.1849 297.6675 102.8466 297.757 C 104.8315 298.0253 106.8291 298.2386 108.8074 298.5629 C 109.4721 298.672 110.1095 298.9294 110.7713 299.0573 C 111.428 299.1846 112.0937 299.2746 112.7582 299.326 C 113.4277 299.378 114.0989 299.3543 114.7682 299.3688 C 115.4375 299.3833 116.1087 299.3596 116.7782 299.4116 C 117.4427 299.463 118.103 299.7034 118.7651 299.6803 C 119.4716 299.6558 119.1968 299.4374 120.8212 299.2715 C 127.3178 298.6078 138.3859 303.0454 140.5509 297.4063 C 148.2726 277.2861 142.7588 253.8326 146.0296 232.401 C 149.0433 212.6689 158.0013 193.6187 159.613 173.3445 Z "/>
  <path id="ID0.3809091211296618" fill="#3E4246" stroke="none" stroke-linecap="round" d="M 92.5815 157.4538 L 119.1373 168.3659 L 127.2835 183.5802 L 127.3241 190.1312 L 123.7722 201.5223 L 115.645 204.6078 L 103.2104 207.6826 L 100.6754 195.0638 L 97.8336 187.589 L 92.5815 157.4538 Z " stroke-width="0.6085179632066298"/>
  <path id="ID0.21634112810716033" fill="#0D0D0D" stroke="#0D0D0D" stroke-width="3.683917482767967" stroke-linecap="round" d="M 68.1953 197.057 C 60.979 189.8807 62.6721 184.283 60.1854 179.1401 C 59.5089 177.7126 59.2482 181.0892 58.9257 182.2324 C 58.564 183.5095 58.5129 185.1181 58.1372 186.3787 C 55.5625 194.8567 55.4623 197.2713 54.5913 200.6096 C 54.2916 201.7831 53.5908 202.4909 53.3316 203.7019 C 53.0859 204.8513 53.3394 206.4527 53.0936 207.6021 C 52.8345 208.8131 52.3554 209.8011 51.8339 210.6944 C 51.3531 211.5189 50.438 211.7206 50.1031 212.7327 C 49.758 213.7722 49.9974 215.3774 49.8651 216.6329 C 49.5766 219.3593 49.5761 222.4046 48.8386 224.6792 C 47.7979 227.8861 45.9537 230.0965 44.5884 232.9022 C 44.1183 233.8661 43.8501 235.1013 43.3287 235.9945 C 42.8478 236.819 42.1258 237.2784 41.5978 238.0329 C 39.9766 240.346 38.4094 242.7563 36.8764 245.2019 C 35.8407 246.8537 34.3996 248.0392 33.8859 250.3326 C 33.6167 251.5329 34.634 253.587 34.6696 255.0406 C 34.7368 257.8002 34.3521 260.2434 34.1936 262.8408 C 34.1153 264.1404 34.2013 265.5916 33.9556 266.741 C 33.6964 267.952 32.682 268.3928 32.6959 269.8333 C 32.7092 271.1602 33.5852 272.8096 34.0301 274.2951 C 34.4749 275.7807 34.5927 277.3947 35.3643 278.757 C 36.7902 281.2758 38.4824 284.3282 40.314 285.3962 C 42.2541 286.5268 43.6114 284.9058 45.1892 284.4812 C 45.9721 284.2703 46.4705 283.2458 47.3912 283.4968 C 48.3677 283.7633 49.4359 285.3369 50.4563 285.9203 C 51.5315 286.5347 52.6351 287.0175 53.6006 287.0437 C 54.4645 287.0672 54.9967 286.2097 55.8027 286.0592 C 56.6325 285.9032 57.5861 286.1067 58.4758 286.1287 C 59.3656 286.1508 60.2 286.534 61.149 286.1982 C 64.9431 284.8536 68.4928 282.9151 72.1592 281.276 C 73.6257 280.6204 75.2068 280.1943 76.5632 279.3072 C 77.2626 278.8503 77.5804 277.6966 78.2941 277.2688 C 80.3717 276.0238 82.8225 275.5604 84.9002 274.3155 C 85.6138 273.8877 85.9613 272.7915 86.631 272.2771 C 87.2806 271.7768 88.1835 271.793 88.833 271.2927 C 89.5027 270.7783 89.8406 269.6636 90.5639 269.2543 C 93.3683 267.6642 96.5675 266.9067 99.372 265.3165 C 100.0952 264.9072 100.8634 264.3944 101.1028 263.2782 C 101.3921 261.9247 101.2411 260.1005 100.8697 258.3241 C 100.2571 255.3936 99.3649 252.3401 98.2013 249.4004 C 95.9427 243.6953 93.4525 237.995 90.6626 232.5375 C 89.8828 231.012 88.6711 230.0539 87.6769 228.814 C 86.6826 227.574 85.5708 226.5232 84.6912 225.0905 C 83.904 223.8085 83.4341 222.2786 82.8065 220.8747 C 82.1789 219.4709 81.7089 217.9409 80.9218 216.659 C 80.0421 215.2262 78.8505 214.3249 77.9361 212.9355 C 75.4074 209.0936 73.0638 204.992 70.6305 201.0266 C 69.819 199.705 69.0621 198.1389 68.1953 197.057 Z "/>
  <path id="ID0.3809091211296618" fill="#393D40" stroke="none" stroke-linecap="round" d="M 119.1445 179.9053 L 134.2438 164.1786 L 150.0266 171.7092 L 157.8848 175.9728 L 169.3671 186.4219 L 171.2316 191.3696 L 161.1467 206.9617 L 148.711 201.1518 L 140.8662 195.9544 L 119.1445 179.9053 Z " stroke-width="0.6733301279789837"/>
  <g id="ID0.9602425838820636">
    <g id="ID0.17693647183477879">
      <path id="ID0.7729651997797191" fill="#393C40" stroke="none" stroke-linecap="round" d="M 166.5292 100.0861 L 147.6113 103.9623 L 153.361 119.4664 L 157.9001 131.9964 L 162.3317 136.8716 L 166.0755 139.6814 L 177.5593 134.7013 L 178.1119 128.9192 L 170.2154 110.7709 L 166.5292 100.0861 Z " stroke-width="0.7788098558082319"/>
      <path id="ID0.9716172609478235" fill="#34373A" stroke="none" stroke-linecap="round" d="M 163.3827 106.1593 L 167.6901 103.264 L 165.0377 97.3486 L 149.3444 108.9467 L 152.6037 111.3929 L 158.0608 112.4245 L 163.3827 106.1593 Z " stroke-width="0.7788098558082319"/>
      <g id="ID0.38066427363082767">
        <path id="ID0.4757494777441025" fill="#1D1E1F" stroke="none" stroke-linecap="round" d="M 154.3483 77.8863 L 145.9664 77.0164 L 131.5602 83.772 L 142.745 106.7224 L 153.1976 110.0499 L 157.6134 110.4528 L 160.3281 107.772 L 162.6254 104.5772 L 167.6686 101.3352 L 167.0441 96.1483 L 165.2802 88.6005 L 161.1237 81.1643 L 154.3483 77.8863 Z " stroke-width="0.4541860283956848"/>
        <path id="ID0.6007084371522069" fill="none" stroke="#0D0D0D" stroke-width="0.9083720567913696" stroke-linecap="round" d="M 167.2671 101.7365 L 162.7378 104.5612 L 159.1877 108.6227 L 157.6294 110.5652 L 153.1976 110.0499 L 148.734 108.5068 "/>
      </g>
    </g>
    <g id="ID0.7397577832452953">
      <path id="ID0.6726378230378032" fill="#34373A" stroke="none" stroke-linecap="round" d="M 176.9991 126.306 L 162.9141 137.0455 L 163.9928 139.0945 L 177.6703 128.2557 L 176.9991 126.306 Z " stroke-width="0.7788098558082319"/>
      <path id="ID0.6507829907350242" fill="#1D1E1F" stroke="none" stroke-linecap="round" d="M 180.3705 126.8272 L 163.8179 139.0198 L 166.7582 156.891 L 170.1143 166.6396 L 172.2845 181.8672 L 172.5853 188.1178 L 184.2326 188.4245 L 183.5462 182.2289 L 183.9624 172.7294 L 184.9852 160.5868 L 185.4289 151.2801 L 180.3705 126.8272 Z " stroke-width="0.7788098558082319"/>
      <path id="ID0.6829322893172503" fill="#1D1E1F" stroke="none" stroke-linecap="round" d="M 184.5631 187.9841 L 174.0459 184.5662 L 171.7035 190.2101 L 168.6451 196.3495 L 169.4143 201.7466 L 170.6244 206.0975 L 172.964 208.7141 L 175.2198 214.8827 L 179.6257 214.0581 L 180.5075 211.9658 L 182.0221 211.5532 L 184.749 208.6079 L 187.6138 205.2496 L 188.937 200.7342 L 187.2045 194.0977 L 184.5631 187.9841 Z " stroke-width="0.7788098558082319"/>
      <path id="ID0.47767175547778606" fill="none" stroke="#0D0D0D" stroke-width="1.5576197116164638" stroke-linecap="round" d="M 180.9034 130.5667 L 180.0842 126.75 L 163.895 139.0088 L 166.0879 152.1878 "/>
      <path id="ID0.5922487881034613" fill="#282A2B" stroke="none" stroke-linecap="round" d="M 185.9182 158.9283 L 178.4907 154.5587 L 172.719 155.46 L 167.6615 161.9235 L 171.0271 175.8794 L 176.4769 182.3795 L 179.7538 181.9125 L 184.5474 174.1492 L 185.9182 158.9283 Z " stroke-width="0.7788098558082319"/>
      <path id="ID0.36820242274552584" fill="#151616" stroke="none" stroke-linecap="round" d="M 180.3304 162.2823 L 172.3008 163.348 L 176.3946 173.8568 L 177.81 173.5764 L 180.3304 162.2823 Z " stroke-width="0.7788098558082319"/>
      <path id="ID0.13569410238415003" fill="none" stroke="#232425" stroke-width="1.5576197116164638" stroke-linecap="round" d="M 182.4866 172.5857 L 178.0564 180.1399 L 172.1329 173.904 "/>
      <path id="ID0.024502143263816833" fill="none" stroke="#0D0D0D" stroke-width="1.5576197116164638" stroke-linecap="round" d="M 185.4154 158.6374 L 178.7258 154.4774 L 172.9873 155.0593 L 167.8526 161.5338 L 169.8545 169.5086 "/>
    </g>
  </g>
  <g id="ID0.9602425838820636">
    <g id="ID0.17693647183477879">
      <path id="ID0.7729651997797191" fill="#3E4246" stroke="none" stroke-linecap="round" d="M 77.9359 93.326 L 97.7813 97.3258 L 91.8059 113.5987 L 87.0895 126.7497 L 82.4602 131.8754 L 78.5449 134.8337 L 66.4892 129.6516 L 65.8904 123.5917 L 74.1076 104.5397 L 77.9359 93.326 Z " stroke-width="0.8164595787374691"/>
      <path id="ID0.9716172609478235" fill="#393C40" stroke="none" stroke-linecap="round" d="M 81.255 99.6821 L 76.7296 96.6614 L 79.4903 90.4511 L 95.9813 102.557 L 92.5726 105.1324 L 86.8552 106.2323 L 81.255 99.6821 Z " stroke-width="0.8164595787374691"/>
      <g id="ID0.38066427363082767">
        <path id="ID0.4757494777441025" fill="#1D1E1F" stroke="none" stroke-linecap="round" d="M 90.5296 69.8533 L 99.3137 68.9132 L 114.439 75.9468 L 102.7909 100.0443 L 91.8442 103.5678 L 87.2164 104.005 L 84.3614 101.2038 L 81.9423 97.8624 L 76.6444 94.4806 L 77.2816 89.0409 L 79.1053 81.1223 L 83.4378 73.3127 L 90.5296 69.8533 Z " stroke-width="0.476142565304233"/>
        <path id="ID0.6007084371522069" fill="none" stroke="#0D0D0D" stroke-width="0.952285130608466" stroke-linecap="round" d="M 77.0667 94.9 L 81.8244 97.8459 L 85.5598 102.0918 L 87.2 104.1229 L 91.8442 103.5678 L 96.5184 101.9351 "/>
      </g>
    </g>
    <g id="ID0.7397577832452953">
      <path id="ID0.6726378230378032" fill="#393C40" stroke="none" stroke-linecap="round" d="M 66.888 120.6959 L 81.69 131.9071 L 80.5661 134.0588 L 66.1909 122.7421 L 66.888 120.6959 Z " stroke-width="0.8164595787374691"/>
      <path id="ID0.6507829907350242" fill="#1D1E1F" stroke="none" stroke-linecap="round" d="M 63.5156 121.4063 L 80.9094 134.1325 L 77.8871 152.8775 L 74.4017 163.1085 L 72.1778 179.0795 L 71.8835 185.6332 L 59.6743 185.994 L 60.3729 179.4966 L 59.9047 169.5394 L 58.7915 156.8132 L 58.2951 147.0581 L 63.5156 121.4063 Z " stroke-width="0.8164595787374691"/>
      <path id="ID0.6829322893172503" fill="#1D1E1F" stroke="none" stroke-linecap="round" d="M 59.3263 185.5334 L 70.3404 181.9149 L 72.815 187.8238 L 76.0419 194.2495 L 75.2537 199.9102 L 73.9998 204.4755 L 71.5559 207.2264 L 69.2118 213.7008 L 64.5901 212.8512 L 63.6587 210.6607 L 62.0695 210.2333 L 59.2008 207.1548 L 56.1863 203.6437 L 54.7839 198.9146 L 56.5778 191.9515 L 59.3263 185.5334 Z " stroke-width="0.8164595787374691"/>
      <path id="ID0.47767175547778606" fill="none" stroke="#0D0D0D" stroke-width="1.6329191574749382" stroke-linecap="round" d="M 62.9695 125.3283 L 63.8156 121.3244 L 80.8286 134.1212 L 78.574 147.9447 "/>
      <path id="ID0.5922487881034613" fill="#282A2B" stroke="none" stroke-linecap="round" d="M 57.8504 154.8902 L 65.6222 150.2844 L 71.6759 151.2098 L 76.9997 157.9688 L 73.5183 172.6106 L 67.827 179.4432 L 64.3902 178.9646 L 59.3386 170.8422 L 57.8504 154.8902 Z " stroke-width="0.8164595787374691"/>
      <path id="ID0.36820242274552584" fill="#151616" stroke="none" stroke-linecap="round" d="M 63.6645 158.5366 L 72.0858 159.6268 L 67.8296 170.6573 L 66.3448 170.3681 L 63.6645 158.5366 Z " stroke-width="0.8164595787374691"/>
      <path id="ID0.13569410238415003" fill="none" stroke="#232425" stroke-width="1.6329191574749382" stroke-linecap="round" d="M 61.4514 169.3838 L 66.1211 177.2882 L 72.3099 170.7309 "/>
      <path id="ID0.024502143263816833" fill="none" stroke="#0D0D0D" stroke-width="1.6329191574749382" stroke-linecap="round" d="M 58.334 154.7711 L 65.333 150.3875 L 71.3508 150.9781 L 76.7555 157.7484 L 74.6837 166.1154 "/>
    </g>
  </g>
  <g id="ID0.9157347986474633">
    <path id="ID0.7477802094072104" fill="#363A3D" stroke="none" stroke-linecap="round" d="M 152.5705 125.965 L 133.6742 120.0879 L 127.7436 160.845 L 142.9494 172.0793 L 148.742 148.1426 L 152.5705 125.965 Z " stroke-width="0.47614258128483783"/>
    <path id="ID0.7477802094072104" fill="#363A3D" stroke="none" stroke-linecap="round" d="M 92.8192 117.274 L 116.4362 117.8236 L 110.5056 158.5807 L 92.7288 165.0157 L 90.9268 139.3725 L 92.8192 117.274 Z " stroke-width="0.47614258128483783"/>
    <path id="ID0.4270821204409003" fill="#3E4246" stroke="none" stroke-linecap="round" d="M 96.0385 97.4616 L 101.6077 85.6416 L 104.6857 80.1953 L 112.1757 74.1881 L 142.7145 80.0753 L 148.9296 85.31 L 151.1739 89.7264 L 156.4784 102.046 L 154.2632 112.3092 L 152.5324 117.5906 L 153.1874 124.6627 L 152.8701 130.1498 L 149.7557 136.6734 L 147.3995 141.6233 L 144.8846 150.6399 L 143.215 172.5302 L 136.9436 179.9176 L 131.3135 185.3775 L 118.5403 189.004 L 107.5025 184.3426 L 104.5819 177.1333 L 100.6072 170.0593 L 92.5952 165.766 L 95.1152 140.5111 L 94.8971 133.7431 L 92.0193 121.7766 L 92.2833 110.8687 L 96.0385 97.4616 Z " stroke-width="0.47614258128483783"/>
    <path id="ID0.052435632329434156" fill="#393C40" stroke="none" stroke-linecap="round" d="M 100.8879 148.5772 L 105.2866 149.2653 L 111.3393 153.4661 L 116.3814 154.0313 L 121.9434 156.645 L 126.244 156.1882 L 127.9617 155.957 L 142.5167 154.6346 L 142.397 157.9371 L 133.3158 160.8259 L 127.4706 159.6626 L 121.4955 161.8725 L 115.4063 157.4259 L 108.9837 156.9244 L 99.7552 151.7323 L 100.8879 148.5772 Z " stroke-width="0.47614258128483783"/>
    <path id="ID0.4987568911164999" fill="none" stroke="#27282B" stroke-width="0.9522851625696757" stroke-linecap="round" d="M 111.7743 74.8307 L 104.522 80.0305 L 99.784 89.4454 "/>
    <path id="ID0.2889464790932834" fill="none" stroke="#27282B" stroke-width="0.9522851625696757" stroke-linecap="round" d="M 143.8445 80.9407 L 148.9501 85.5329 L 153.2674 95.5437 "/>
    <path id="ID0.8373676878400147" fill="#000000" stroke="#2C2F31" stroke-width="0.6155104024760444" stroke-linecap="round" d="M 113.5897 88.2405 L 114.1507 86.775 L 110.4182 87.1556 L 105.1357 89.7703 L 100.3282 94.1826 L 97.0994 99.4092 L 102.505 97.908 L 107.1707 98.4662 L 109.7597 99.7644 L 111.8491 103.0847 L 114.0775 102.3706 L 118.0863 102.6612 L 122.407 104.3315 L 125.7602 108.0226 L 127.3817 111.3415 L 129.945 108.6552 L 134.0511 106.0748 L 138.3289 105.2405 L 143.4368 105.9519 L 145.1671 106.792 L 147.2882 103.9526 L 149.4035 102.9852 L 151.9052 103.8783 L 154.4541 105.8719 L 153.5683 101.8975 L 151.8609 97.7055 L 149.468 94.3336 L 146.6429 91.6687 L 142.2964 90.1502 L 144.187 92.3442 L 143.8907 94.0888 L 142.013 95.955 L 138.3047 96.652 L 135.1304 96.5031 L 132.5256 96.2168 L 130.5392 92.2896 L 129.8121 94.2732 L 128.3709 94.0284 L 127.1773 91.4065 L 125.6345 95.4367 L 121.5756 94.9815 L 117.6213 93.4515 L 114.5027 91.5952 L 113.5897 88.2405 Z "/>
    <path id="ID0.5698574706912041" fill="none" stroke="#313537" stroke-width="0.9522851625696757" stroke-linecap="round" d="M 100.8412 148.402 L 99.7894 151.4968 L 108.9665 157.0422 L 115.7323 157.6658 L 121.277 161.7205 "/>
    <path id="ID0.5698574706912041" fill="none" stroke="#313537" stroke-width="0.8933066511797995" stroke-linecap="round" d="M 142.2638 154.6773 L 142.3145 157.9324 L 133.1915 160.8151 L 127.3898 159.61 L 121.6899 162.0284 "/>
    <path id="ID0.8947288258932531" fill="#393C40" stroke="none" stroke-linecap="round" d="M 103.8578 136.7639 L 110.8249 137.6574 L 118.0189 140.6288 L 122.8306 146.9104 L 116.4408 141.5539 L 106.0081 138.5202 L 100.5075 140.7752 L 103.8578 136.7639 Z " stroke-width="0.47614258128483783"/>
    <path id="ID0.8947288258932531" fill="#393C40" stroke="none" stroke-linecap="round" d="M 142.0678 143.3466 L 135.9325 142.3474 L 129.0806 143.0537 L 123.4147 147.1686 L 130.1859 144.2364 L 139.8008 144.2942 L 143.8981 147.5943 L 142.0678 143.3466 Z " stroke-width="0.4213739082115802"/>
    <path id="ID0.9897695370018482" fill="#393C40" stroke="none" stroke-linecap="round" d="M 105.5084 149.3939 L 99.0983 147.98 L 100.1908 143.4477 L 100.8648 147.0822 L 105.8859 147.9572 L 111.4602 152.3048 L 116.9302 152.7399 L 120.7767 154.7431 L 123.2744 147.1674 L 122.0976 156.908 L 116.8492 154.1235 L 111.0301 153.2767 L 105.5084 149.3939 Z " stroke-width="0.47614258128483783"/>
    <path id="ID0.9897695370018482" fill="#393C40" stroke="none" stroke-linecap="round" d="M 137.4408 154.2881 L 142.9836 154.6471 L 143.2467 150.3223 L 141.7819 153.3982 L 137.499 152.9093 L 131.8901 155.3822 L 127.3554 154.3867 L 123.7373 155.2027 L 123.6338 147.8041 L 122.121 156.8023 L 127.0709 155.6431 L 131.9921 156.3591 L 137.4408 154.2881 Z " stroke-width="0.4232251176426781"/>
    <path id="ID0.3524594851769507" fill="#393C40" stroke="none" stroke-linecap="round" d="M 120.7226 116.5562 L 126.2498 119.5738 L 130.9913 117.906 L 127.3095 121.2195 L 126.6475 132.3823 L 135.7469 132.8402 L 124.9138 134.8726 L 114.0452 128.5517 L 123.3424 131.9495 L 124.5668 120.7242 L 120.7226 116.5562 Z " stroke-width="0.47614258128483783"/>
    <path id="ID0.9214867809787393" fill="#393C40" stroke="none" stroke-linecap="round" d="M 104.4166 132.9238 L 107.9683 129.1823 L 112.8172 128.9256 L 106.3596 132.7975 L 105.7024 135.661 L 110.69 136.4349 L 118.308 140.7912 L 109.7005 137.6141 L 103.905 136.7708 L 104.4166 132.9238 Z " stroke-width="0.47614258128483783"/>
    <path id="ID0.9214867809787393" fill="#393C40" stroke="none" stroke-linecap="round" d="M 142.3209 139.2259 L 140.2048 134.8542 L 136.0235 133.3274 L 140.6516 138.5927 L 140.4649 141.3895 L 135.8873 140.7693 L 128.9022 142.6228 L 136.4405 142.1125 L 141.7446 142.8843 L 142.3209 139.2259 Z " stroke-width="0.4451788551442013"/>
    <path id="ID0.8679121839813888" fill="#2C2F31" stroke="none" stroke-linecap="round" d="M 122.915 115.7437 L 126.4513 117.8942 L 129.9861 116.7485 L 130.7913 117.828 L 126.5201 119.901 L 121.1411 116.8569 L 122.915 115.7437 Z " stroke-width="0.47614258128483783"/>
    <path id="ID0.24770551454275846" fill="none" stroke="#313537" stroke-width="0.9522851625696757" stroke-linecap="round" d="M 127.0558 114.4683 L 131.1356 118.6707 L 138.4881 120.2217 L 146.1813 120.2585 L 151.9127 117.2432 "/>
    <path id="ID0.20603158557787538" fill="none" stroke="#313537" stroke-width="0.9522851625696757" stroke-linecap="round" d="M 94.6579 105.6602 L 100.8365 111.9723 L 112.6244 116.9354 L 119.8956 117.392 L 126.5866 114.396 "/>
    <g id="ID0.5272086253389716">
      <path id="ID0.24770551454275846" fill="none" stroke="#363A3D" stroke-width="0.9522851013291769" stroke-linecap="round" d="M 93.4342 138.2719 L 103.6907 136.5646 "/>
      <path id="ID0.24770551454275846" fill="none" stroke="#363A3D" stroke-width="0.9522851013291769" stroke-linecap="round" d="M 92.6114 126.1683 L 113.7197 122.9606 "/>
    </g>
    <g id="ID0.5272086253389716">
      <path id="ID0.24770551454275846" fill="none" stroke="#363A3D" stroke-width="0.9522850763131397" stroke-linecap="round" d="M 148.5141 145.3557 L 141.9118 142.5433 "/>
      <path id="ID0.24770551454275846" fill="none" stroke="#363A3D" stroke-width="0.9522850763131397" stroke-linecap="round" d="M 150.6378 134.1298 L 137.5931 127.4206 "/>
    </g>
    <g id="ID0.7887678607366979">
      <path id="ID0.753661650698632" fill="none" stroke="#313537" stroke-width="0.9522851013291769" stroke-linecap="round" d="M 121.1766 116.7425 L 126.0168 119.8526 L 130.3989 117.8439 "/>
      <g id="ID0.8167418288066983">
        <path id="ID0.9553722990676761" fill="none" stroke="#313537" stroke-width="1.040910771495086" stroke-linecap="round" d="M 124.5784 134.627 L 119.3326 131.6985 L 113.4971 128.9247 L 108.6389 129.1801 L 104.5504 132.9156 L 104.0533 136.3317 "/>
        <path id="ID0.5982440118677914" fill="none" stroke="#313537" stroke-width="0.8540413504609866" stroke-linecap="round" d="M 113.8749 128.557 L 113.4591 123.1474 L 119.6584 116.9174 "/>
      </g>
      <g id="ID0.7324484633281827">
        <path id="ID0.04993448918685317" fill="none" stroke="#313537" stroke-width="0.9522851013291769" stroke-linecap="round" d="M 126.0339 119.7348 L 125.2323 130.2036 L 123.3382 146.5279 L 121.2255 162.7001 "/>
        <g id="ID0.8167418288066983">
          <path id="ID0.9553722990676761" fill="none" stroke="#313537" stroke-width="0.9699703281115849" stroke-linecap="round" d="M 124.9054 134.5436 L 130.0837 133.9258 L 135.7317 132.8231 L 139.7471 134.3696 L 142.1833 139.0545 L 141.6862 142.4706 "/>
          <path id="ID0.5982440118677914" fill="none" stroke="#313537" stroke-width="0.7916616406395826" stroke-linecap="round" d="M 135.5422 132.4809 L 137.3404 127.3935 L 133.7981 119.746 "/>
          <path id="ID0.3567589442245662" fill="none" stroke="#313537" stroke-width="0.8967655430358877" stroke-linecap="round" d="M 123.2134 147.1489 L 129.0065 142.9637 L 136.5332 142.1343 L 142.0036 142.9303 L 143.5523 147.8469 L 142.8311 154.8391 L 137.2371 154.7468 L 131.1968 156.9954 L 126.3616 156.0513 L 121.9327 157.2593 L 116.5114 153.9444 L 110.9446 153.3749 L 105.0289 149.3866 L 98.8947 147.7723 L 100.2375 140.8706 L 103.4339 136.6444 L 109.6503 137.549 L 117.623 140.6337 L 122.667 146.3958 Z "/>
        </g>
      </g>
    </g>
    <g id="ID0.9312638868577778">
      <path id="ID0.2888958193361759" fill="#393C40" stroke="none" stroke-linecap="round" d="M 102.2146 156.9764 L 112.0251 160.5101 L 111.0166 163.3099 L 101.2061 159.7762 L 102.2146 156.9764 Z " stroke-width="0.4761425463305793"/>
      <path id="ID0.2888958193361759" fill="#393C40" stroke="none" stroke-linecap="round" d="M 91.8607 153.4039 L 102.8627 157.4934 L 101.8542 160.2932 L 92.0437 156.7594 L 91.8607 153.4039 Z " stroke-width="0.4761425463305793"/>
      <g id="ID0.36424446757882833">
        <path id="ID0.7359844641759992" fill="#8A7B59" stroke="none" d="M 105.1407 156.6522 L 106.6485 156.8716 L 105.7503 163.0441 L 104.2425 162.8247 L 105.1407 156.6522 Z " stroke-width="0.47614255066458844"/>
        <path id="ID0.7359844641759992" fill="#8A7B59" stroke="none" d="M 103.327 155.9885 L 104.8348 156.2079 L 103.9366 162.3804 L 102.4288 162.161 L 103.327 155.9885 Z " stroke-width="0.47614255066458844"/>
        <path id="ID0.7359844641759992" fill="#8A7B59" stroke="none" d="M 101.5073 155.0248 L 103.0151 155.2442 L 102.1169 161.4167 L 100.6091 161.1973 L 101.5073 155.0248 Z " stroke-width="0.47614255066458844"/>
        <path id="ID0.7359844641759992" fill="#8A7B59" stroke="none" d="M 106.9564 157.416 L 108.4641 157.6354 L 107.566 163.8078 L 106.0582 163.5884 L 106.9564 157.416 Z " stroke-width="0.47614255066458844"/>
      </g>
      <g id="ID0.1049797898158431">
        <path id="ID0.08871637750416994" fill="#8A7B59" stroke="none" stroke-linecap="round" d="M 93.6747 152.9324 L 99.8612 154.8911 L 99.0085 160.4206 L 93.061 158.4726 L 93.6747 152.9324 Z " stroke-width="0.47614255066458844"/>
        <path id="ID0.13805592898279428" fill="#76694C" stroke="none" stroke-linecap="round" d="M 93.4112 152.6384 L 99.904 154.6417 L 99.5835 157.5061 L 93.0808 155.4051 L 93.4112 152.6384 Z " stroke-width="0.47614255066458844"/>
        <path id="ID0.3221200187690556" fill="#61563F" stroke="none" stroke-linecap="round" d="M 96.0054 155.2421 L 96.8227 155.7266 L 96.6464 157.4765 L 95.7487 157.0064 L 96.0054 155.2421 Z " stroke-width="0.5167888667825765"/>
        <path id="ID0.1420820001512766" fill="#BAA578" stroke="none" stroke-linecap="round" d="M 98.362 159.3956 L 99.2744 158.0849 L 98.989 160.377 L 92.937 158.4859 L 98.362 159.3956 Z " stroke-width="0.47614255066458844"/>
      </g>
      <path id="ID0.2888958193361759" fill="#393C40" stroke="none" stroke-linecap="round" d="M 139.4058 162.7257 L 131.7986 163.451 L 131.861 166.0233 L 139.4682 165.298 L 139.4058 162.7257 Z " stroke-width="0.3810469884629785"/>
      <path id="ID0.2888958193361759" fill="#393C40" stroke="none" stroke-linecap="round" d="M 146.1393 161.8941 L 138.9371 162.8077 L 138.9996 165.38 L 145.3026 164.7171 L 146.1393 161.8941 Z " stroke-width="0.3810469884629785"/>
      <path id="ID0.7359844641759992" fill="#8A7B59" stroke="none" d="M 137.5286 161.4412 L 136.4331 161.2818 L 135.6518 166.6512 L 136.7473 166.8106 L 137.5286 161.4412 Z " stroke-width="0.3816028036931827"/>
      <path id="ID0.7359844641759992" fill="#8A7B59" stroke="none" d="M 138.9733 161.1621 L 137.8778 161.0027 L 137.0965 166.3722 L 138.192 166.5316 L 138.9733 161.1621 Z " stroke-width="0.3816028036931827"/>
      <path id="ID0.7359844641759992" fill="#8A7B59" stroke="none" d="M 140.518 160.8811 L 139.4225 160.7217 L 138.6412 166.0911 L 139.7367 166.2505 L 140.518 160.8811 Z " stroke-width="0.3816028036931827"/>
      <path id="ID0.7359844641759992" fill="#8A7B59" stroke="none" d="M 136.035 161.7712 L 134.9395 161.6118 L 134.1582 166.9812 L 135.2537 167.1406 L 136.035 161.7712 Z " stroke-width="0.3816028036931827"/>
      <g id="ID0.1049797898158431">
        <path id="ID0.08871637750416994" fill="#8A7B59" stroke="none" stroke-linecap="round" d="M 146.4973 160.9043 L 141.4655 161.1505 L 140.7573 166.2729 L 145.6103 165.9784 L 146.4973 160.9043 Z " stroke-width="0.4054529751648395"/>
        <path id="ID0.13805592898279428" fill="#76694C" stroke="none" stroke-linecap="round" d="M 146.7444 160.7139 L 141.4762 160.9257 L 141.0201 163.5499 L 146.3191 163.2536 L 146.7444 160.7139 Z " stroke-width="0.4054529751648395"/>
        <path id="ID0.3221200187690556" fill="#61563F" stroke="none" stroke-linecap="round" d="M 144.405 162.422 L 143.6857 162.6552 L 143.3926 164.2537 L 144.1677 164.0527 L 144.405 162.422 Z " stroke-width="0.4400648145750725"/>
        <path id="ID0.1420820001512766" fill="#BAA578" stroke="none" stroke-linecap="round" d="M 141.4496 165.5193 L 141.094 164.1334 L 140.7503 166.2402 L 145.6666 166.0217 L 141.4496 165.5193 Z " stroke-width="0.4054529751648395"/>
      </g>
      <g id="ID0.6836685389280319">
        <path id="ID0.09357938077300787" fill="#857656" stroke="none" d="M 112.8835 157.7005 L 130.6706 160.2887 L 129.745 166.6497 L 111.958 164.0615 L 112.8835 157.7005 Z " stroke-width="0.4283320769495313"/>
        <path id="ID0.6492703901603818" fill="#7C6E50" stroke="none" stroke-linecap="round" d="M 113.3257 159.9861 L 121.0079 164.2314 L 130.1939 162.4406 L 129.5803 166.6576 L 112.7121 164.2031 L 113.3257 159.9861 Z " stroke-width="0.47614255066458844"/>
        <g id="ID0.9254062357358634">
          <g id="ID0.49943465692922473">
            <path id="ID0.140373723115772" fill="#968561" stroke="none" d="M 129.3054 158.9404 L 134.3706 159.6775 L 133.0679 168.6299 L 128.0027 167.8929 L 129.3054 158.9404 Z " stroke-width="0.47614255066458844"/>
            <path id="ID0.8286363878287375" fill="#BAA578" stroke="none" stroke-linecap="round" d="M 129.3061 158.7516 L 134.4548 159.7414 L 130.2459 159.8988 L 128.9243 161.8717 L 129.3061 158.7516 Z " stroke-width="0.47614255066458844"/>
            <path id="ID0.7362233307212591" fill="#8A7B59" stroke="none" stroke-linecap="round" d="M 128.4521 164.7861 L 131.131 165.224 L 133.9072 163.1741 L 133.1016 168.7105 L 127.9893 167.9666 L 128.4521 164.7861 Z " stroke-width="0.47614255066458844"/>
          </g>
          <g id="ID0.49943465692922473">
            <path id="ID0.140373723115772" fill="#968561" stroke="none" d="M 114.4501 157.0027 L 109.3849 156.2657 L 108.0823 165.2181 L 113.1474 165.9551 L 114.4501 157.0027 Z " stroke-width="0.47614255066458844"/>
            <path id="ID0.8286363878287375" fill="#BAA578" stroke="none" stroke-linecap="round" d="M 114.5373 156.8185 L 109.32 156.2999 L 113.3096 157.6503 L 114.0141 159.918 L 114.5373 156.8185 Z " stroke-width="0.47614255066458844"/>
            <path id="ID0.7362233307212591" fill="#8A7B59" stroke="none" stroke-linecap="round" d="M 113.6362 162.8462 L 110.9436 162.5025 L 108.8667 159.7464 L 108.0611 165.2828 L 113.1734 166.0266 L 113.6362 162.8462 Z " stroke-width="0.47614255066458844"/>
          </g>
        </g>
      </g>
    </g>
  </g>
  <g id="ID0.8333355090580881">
    <path id="ID0.9286923445761204" fill="#27282B" stroke="none" stroke-linecap="round" d="M 122.5051 41.3464 L 140.9868 45.1323 L 138.4535 69.3596 L 152.6921 78.3276 L 128.6105 86.7761 L 93.7762 69.8008 L 114.8107 61.741 L 122.5051 41.3464 Z " stroke-width="0.47614258877789856"/>
    <path id="ID0.5448851804248989" fill="none" stroke="#1D1E1F" stroke-width="0.9522851775557971" stroke-linecap="round" d="M 116.9392 56.2 L 115.0232 61.5755 L 131.0164 71.4814 L 138.1582 69.4188 "/>
    <path id="ID0.262191956397146" fill="none" stroke="#1D1E1F" stroke-width="0.9522851775557971" stroke-linecap="round" d="M 119.0686 61.4549 L 130.9205 69.1664 L 134.0353 68.4263 "/>
  </g>
  <g id="ID0.3450673264451325">
    <g id="ID0.9831569031812251">
      <path id="ID0.0877610077150166" fill="#2E3034" stroke="none" stroke-linecap="round" d="M 149.9677 15.3938 L 146.3304 1.9877 L 144.3213 30.4455 L 151.9736 30.9858 L 149.9677 15.3938 Z " stroke-width="0.5866066384576719"/>
      <path id="ID0.796130308881402" fill="#242628" stroke="none" stroke-linecap="round" d="M 150.2686 15.4703 L 146.2767 2.0392 L 148.8495 16.0933 L 148.7386 31.0099 L 151.9267 30.9391 L 150.2686 15.4703 Z " stroke-width="0.5866066384576719"/>
    </g>
    <g id="ID0.9831569031812251">
      <path id="ID0.0877610077150166" fill="#2E3034" stroke="none" stroke-linecap="round" d="M 126.0863 13.9278 L 131.5711 1.1658 L 129.5619 29.6235 L 121.9096 29.0833 L 126.0863 13.9278 Z " stroke-width="0.5866066384576719"/>
      <path id="ID0.796130308881402" fill="#242628" stroke="none" stroke-linecap="round" d="M 125.77 13.9126 L 131.6095 1.1757 L 127.0875 14.7289 L 124.9726 29.1752 L 121.9549 28.995 L 125.77 13.9126 Z " stroke-width="0.5866066384576719"/>
    </g>
    <path id="ID0.8999492498114705" fill="#2E3034" stroke="none" stroke-linecap="round" d="M 143.2133 20.9957 C 147.5728 21.7837 152.102 24.8206 153.9555 28.8441 C 156.0702 33.4375 153.733 38.885 153.6802 43.8893 C 153.733 45.6007 154.4001 47.4049 153.9558 49.0018 C 153.0512 52.2499 151.168 55.1534 149.8642 58.2623 C 149.0099 60.2998 148.69 62.6378 147.3899 64.4539 C 145.9187 66.6082 144.3585 69.64 141.7333 69.9115 C 137.8413 70.3135 133.9046 68.1899 130.5872 66.196 C 127.862 64.5577 125.3709 62.1643 123.9957 59.288 C 121.5454 53.9573 119.3894 48.1309 119.4191 42.2343 C 119.4523 35.6977 119.2521 27.5974 124.3262 23.2273 C 128.8877 18.9967 136.7324 19.8271 143.2133 20.9957 Z " stroke-width="0.508037276574525"/>
    <path id="ID0.2441388238221407" fill="#AB8E85" stroke="none" d="M 139.2512 45.57 C 143.3095 46.024 148.9579 43.2502 151.4829 46.1818 C 153.7495 48.9391 150.0473 53.5512 148.8343 56.9478 C 147.6264 60.326 146.6766 64.0069 144.2433 66.6954 C 143.0892 67.8855 140.8643 67.8002 139.1573 67.4065 C 136.0878 66.695 133.124 65.1991 130.662 63.23 C 128.1142 61.1931 124.7182 58.9188 124.3753 55.6616 C 123.9414 51.5356 124.9841 46.2007 128.3562 43.8566 C 131.4409 41.8196 135.6013 45.1613 139.2512 45.57 Z " stroke-width="1.255840073999317"/>
    <path id="ID0.46721756737679243" fill="#A2887F" stroke="none" stroke-linecap="round" d="M 124.5453 45.7196 L 126.1694 46.5218 L 152.1431 47.9736 L 144.5891 52.5333 L 128.0644 48.8965 L 129.0111 51.3571 L 128.8692 56.9748 L 131.9863 64.4015 L 127.8958 57.4154 L 124.5453 45.7196 Z " stroke-width="0.508037276574525"/>
    <path id="ID0.8256730306893587" fill="none" stroke="#937B73" stroke-width="1.01607455314905" stroke-linecap="round" d="M 134.5116 58.2203 C 134.5116 58.2203 137.2461 57.8154 138.6213 57.721 C 138.9652 57.6974 139.2972 57.7988 139.6295 57.8686 C 139.9672 57.9398 140.2838 58.1302 140.6287 58.1429 C 141.3124 58.1682 141.9937 58.0187 142.6773 57.9819 C 143.0162 57.9636 143.358 57.9495 143.6962 57.9775 C 144.0349 58.0055 144.3776 58.05 144.7026 58.1504 C 145.2369 58.3154 146.2632 58.7699 146.2632 58.7699 "/>
    <path id="ID0.7592270169407129" fill="none" stroke="#937B73" stroke-width="1.01607455314905" stroke-linecap="round" d="M 143.031 60.1439 C 143.031 60.1439 142.3864 60.4442 142.0395 60.4814 C 141.7028 60.5177 141.3679 60.3489 141.0295 60.3591 C 140.6891 60.3697 140.3634 60.524 140.0234 60.5427 C 139.6854 60.5617 139.3335 60.5694 139.0099 60.4712 C 138.7346 60.3876 138.2783 60.0121 138.2783 60.0121 "/>
    <path id="ID0.5332203092984855" fill="none" stroke="#937B73" stroke-width="1.01607455314905" stroke-linecap="round" d="M 137.8186 50.3237 C 137.8186 50.3237 137.1841 50.7118 137.0555 51.0337 C 136.8875 51.4655 136.5741 52.2903 136.9934 52.6337 C 137.5523 52.9639 138.3601 52.2921 139.0474 52.3967 C 139.7123 52.5007 140.988 53.043 140.988 53.043 "/>
    <path id="ID0.2278452254831791" fill="none" stroke="#937B73" stroke-width="1.01607455314905" stroke-linecap="round" d="M 142.4092 46.9808 C 142.4092 46.9808 143.21 48.9044 143.606 49.8664 C 143.7386 50.1885 143.8873 50.5056 143.9959 50.8362 C 144.1045 51.1667 144.2937 51.502 144.2556 51.8477 C 144.2173 52.1943 143.9889 52.5011 143.7822 52.7819 C 143.6441 52.9698 143.2414 53.2276 143.2414 53.2276 "/>
    <path id="ID0.6473136460408568" fill="none" stroke="#937B73" stroke-width="1.0160745329011112" stroke-linecap="round" d="M 141.4546 63.8447 C 141.4546 63.8447 141.7259 64.5003 141.7524 64.8476 C 141.7777 65.1858 141.6934 65.5282 141.6065 65.856 C 141.476 66.3501 141.1026 67.3054 141.1026 67.3054 "/>
    <path id="ID0.11669129692018032" fill="#2E3034" stroke="none" stroke-linecap="round" d="M 126.8468 40.5344 L 149.9065 43.945 L 153.6462 46.8829 L 143.9399 50.9086 L 123.4677 46.9167 L 126.8468 40.5344 Z " stroke-width="0.508037276574525"/>
    <path id="ID0.14635155349969864" fill="#2E3034" stroke="none" stroke-linecap="round" d="M 123.8159 45.5917 L 125.6388 46.1023 L 127.9073 51.4828 L 127.8052 57.2562 L 129.3613 61.1858 L 132.0012 64.9119 L 124.1582 59.1378 L 123.8159 45.5917 Z " stroke-width="0.508037276574525"/>
    <path id="ID0.28340246016159654" fill="#1C1D1F" stroke="none" stroke-linecap="round" d="M 127.1828 37.3489 L 130.4956 39.1259 L 140.0766 40.6957 L 139.6715 46.4335 L 132.815 45.0019 L 129.0389 43.6524 L 127.1251 42.0012 L 126.3848 40.2163 L 127.1828 37.3489 Z " stroke-width="0.5401026669767565"/>
    <path id="ID0.6101007834076881" fill="#FFFFFF" stroke="none" stroke-linecap="round" d="M 130.8287 40.1781 L 132.4492 40.6933 L 136.1352 42.1578 L 136.5399 44.1595 L 131.4005 42.3401 L 130.8287 40.1781 Z " stroke-width="0.40610620489539867"/>
    <path id="ID0.28340246016159654" fill="#1C1D1F" stroke="none" stroke-linecap="round" d="M 152.7494 39.1708 L 149.602 40.3247 L 140.9463 40.5102 L 140.5851 45.6268 L 146.8179 45.2219 L 150.3209 44.5036 L 152.2174 43.2856 L 153.0947 41.8025 L 152.7494 39.1708 Z " stroke-width="0.481624974286842"/>
    <path id="ID0.6101007834076881" fill="#FFFFFF" stroke="none" stroke-linecap="round" d="M 150.878 41.0986 L 149.3057 41.4802 L 145.7102 42.6258 L 145.1934 44.499 L 150.192 43.1127 L 150.878 41.0986 Z " stroke-width="0.3863867506375209"/>
    <g id="ID0.07940126257017255">
      <path id="ID0.46257128613069654" fill="#27282B" stroke="none" stroke-linecap="round" d="M 140.2998 40.5959 L 143.9315 50.8347 L 134.0121 48.8611 L 140.2998 40.5959 Z " stroke-width="0.508037276574525"/>
      <path id="ID0.9845890481956303" fill="#27282B" stroke="none" stroke-linecap="round" d="M 141.1155 40.7778 L 148.8571 48.7093 L 144.0159 50.914 L 141.1155 40.7778 Z " stroke-width="0.508037276574525"/>
    </g>
    <path id="ID0.20071752788498998" fill="#202324" stroke="none" d="M 132.2232 35.4639 L 136.1728 38.3147 L 140.8288 39.8148 L 140.8065 41.2138 L 133.1422 39.3995 L 127.4282 36.6533 L 129.2765 35.0012 L 132.2232 35.4639 Z " stroke-width="0.508037276574525"/>
    <path id="ID0.20071752788498998" fill="#202324" stroke="none" d="M 149.1759 36.3205 L 145.9582 38.5464 L 140.6177 39.7347 L 140.4577 41.0084 L 147.6533 40.3482 L 153.2127 38.7082 L 151.8359 36.3681 L 149.1759 36.3205 Z " stroke-width="0.46609798108506834"/>
    <path id="ID0.521138689480722" fill="none" stroke="#212325" stroke-width="0.9060627692739409" stroke-linecap="round" d="M 152.7983 38.9164 L 149.4555 40.27 L 140.8493 40.9113 "/>
    <path id="ID0.17828734638169408" fill="none" stroke="#202324" stroke-width="1.01607455314905" stroke-linecap="round" d="M 143.8779 50.344 L 141.4738 42.9167 C 140.6458 40.433 140.7538 41.0105 140.6335 40.0308 C 140.5914 39.6886 140.8325 39.3685 140.9077 39.0315 C 140.9816 38.6996 141.0694 38.3651 141.0806 38.0251 C 141.0922 37.6817 141.017 37.3397 140.9748 36.9991 C 140.909 36.4673 140.7563 35.4048 140.7563 35.4048 "/>
    <path id="ID0.521138689480722" fill="none" stroke="#212325" stroke-width="1.01607455314905" stroke-linecap="round" d="M 127.4773 36.9149 L 130.9755 38.9444 L 140.4298 41.0125 "/>
    <path id="ID0.8012696979567409" fill="none" stroke="url(#grad_1)" stroke-width="1.01607455314905" stroke-linecap="round" d="M 152.1753 47.5175 L 144.4502 50.8937 L 126.0668 47.253 L 127.7713 51.2441 L 127.646 57.3468 L 129.3177 61.0809 L 131.9505 64.9083 "/>
    <path id="ID0.043594349175691605" fill="#D7E2FD" stroke="none" stroke-linecap="round" d="M 135.7969 43.1871 L 136.1036 42.0883 L 136.4655 44.1766 L 133.9328 43.2593 L 135.7969 43.1871 Z " stroke-width="0.508037276574525"/>
    <path id="ID0.043594349175691605" fill="#D7E2FD" stroke="none" stroke-linecap="round" d="M 145.9747 43.7252 L 145.7808 42.7064 L 145.2933 44.5704 L 147.6578 43.9331 L 145.9747 43.7252 Z " stroke-width="0.4618642857714978"/>
  </g>
  <g id="ID0.8669879510998726">
    <path id="ID0.5368814701214433" fill="#292D2E" stroke="none" stroke-linecap="round" d="M 140.4923 284.1935 L 143.4874 275.4008 L 148.0933 266.2116 L 157.9943 272.1957 L 169.1626 279.9732 L 186.492 290.5363 L 187.4877 297.065 L 162.7773 297.9304 L 141.5805 293.9948 L 140.4923 284.1935 Z " stroke-width="0.7702165753443064"/>
    <path id="ID0.05466862628236413" fill="#292D2E" stroke="none" stroke-linecap="round" d="M 144.4707 195.003 L 170.9414 191.2216 L 166.0127 210.0611 L 164.4244 215.0975 L 163.7835 233.2287 L 160.471 273.8463 L 144.7917 275.6831 L 142.6651 253.5357 L 139.959 244.8939 L 138.6537 235.4644 L 140.7718 221.9621 L 140.8078 209.641 L 144.4707 195.003 Z " stroke-width="0.7305889978321375"/>
    <path id="ID0.4490455654449761" fill="none" stroke="#272A2B" stroke-width="1.6585523899149508" stroke-linecap="round" d="M 144.1802 195.1898 L 170.6417 191.022 L 163.7846 215.4112 "/>
    <path id="ID0.10446935473009944" fill="none" stroke="#242728" stroke-width="1.6585523899149508" stroke-linecap="round" d="M 163.4098 227.7425 L 163.1962 244.5795 L 152.6272 251.8861 "/>
    <path id="ID0.42170455446466804" fill="none" stroke="#242728" stroke-width="1.6585523899149508" stroke-linecap="round" d="M 162.0902 245.7403 L 160.5895 260.7986 L 149.7999 268.2983 "/>
    <path id="ID0.047098892275244" fill="none" stroke="#242728" stroke-width="1.6585523899149508" stroke-linecap="round" d="M 141.0415 209.4388 L 140.5554 213.3488 L 145.0262 222.217 "/>
  </g>
  <g id="ID0.38464318960905075">
    <path id="ID0.5368814701214433" fill="#303436" stroke="none" stroke-linecap="round" d="M 89.557 284.8374 L 93.5632 276.457 L 99.2156 267.8717 L 108.346 274.9763 L 118.5245 284.0106 L 134.4946 296.5342 L 134.7173 303.1347 L 110.0761 301.0945 L 89.4876 294.6987 L 89.557 284.8374 Z " stroke-width="0.770216547129682"/>
    <path id="ID0.05466862628236413" fill="#303436" stroke="none" stroke-linecap="round" d="M 103.8895 196.0885 L 130.621 195.4394 L 123.5157 213.5704 L 121.3473 218.3856 L 118.5832 236.3163 L 110.5273 276.2646 L 94.7408 276.2488 L 95.2278 254.0049 L 93.5544 245.1052 L 93.3647 235.5877 L 97.0526 222.4273 L 98.5342 210.1955 L 103.8895 196.0885 Z " stroke-width="0.7305890362007086"/>
    <path id="ID0.4490455654449761" fill="none" stroke="#272A2B" stroke-width="1.6585524115049803" stroke-linecap="round" d="M 103.7261 196.9777 L 130.494 195.9438 L 120.8222 219.3599 "/>
    <path id="ID0.10446935473009944" fill="none" stroke="#242728" stroke-width="1.6585524115049803" stroke-linecap="round" d="M 119.0031 231.562 L 116.8151 248.2576 L 105.4618 254.2735 "/>
    <path id="ID0.42170455446466804" fill="none" stroke="#242728" stroke-width="1.6585524115049803" stroke-linecap="round" d="M 115.5805 249.2806 L 112.3232 264.0588 L 100.7281 270.2405 "/>
    <path id="ID0.047098892275244" fill="none" stroke="#242728" stroke-width="1.6585524115049803" stroke-linecap="round" d="M 98.9658 210.6733 L 98.0242 214.4993 L 101.4235 223.8308 "/>
  </g>
</svg>