<svg xmlns="http://www.w3.org/2000/svg" xmlns:xlink="http://www.w3.org/1999/xlink" version="1.1" width="581.8060068866976" height="515.3920054218538" viewBox="-1.3846445049528215 -0.9213445078019236 581.8060068866976 515.3920054218538">
  <!-- Exported by Scratch - http://scratch.mit.edu/ -->
  <path id="ID0.5175954140722752" fill="#000000" stroke="#000000" stroke-width="2.842689015603847" stroke-linecap="round" d="M 169.1214 331.4107 L 164.1214 305.9572 L 134.1214 327.1684 L 86.2643 363.9345 L 49.8357 402.8218 L 38.4071 422.6189 L 34.1214 459.385 L 57.6928 440.2949 L 202.9786 419.013 L 230.4786 433.0124 L 250.55 457.2639 L 275.4786 513.0493 L 304.9785 458.0416 L 319.9785 436.0527 L 345.4785 419.013 L 487.9785 441.0019 L 517.9785 460.0213 L 523.4785 421.4876 L 468.4071 373.8331 L 405.55 323.6332 L 381.9785 310.1995 L 379.1214 328.5825 L 370.55 342.0163 L 354.8357 349.0867 L 324.8357 356.1571 L 303.4071 355.45 L 299.8357 332.1177 L 288.4071 343.4304 L 259.8357 343.4304 L 246.9786 330.7036 L 243.4071 354.743 L 223.4071 353.3289 L 191.9786 344.1374 L 169.1214 331.4107 Z "/>
  <path id="ID0.2405326054431498" fill="#000000" stroke="none" d="M 1 0.5 L 579 0.5 L 567.9819 470.9679 L 506.9908 434.5419 L 284.0394 362.9542 L 0.0367 459.9498 L 1 0.5 Z " stroke-width="1.2041666507720947"/>
</svg>