<svg xmlns="http://www.w3.org/2000/svg" xmlns:xlink="http://www.w3.org/1999/xlink" version="1.1" width="268.2200677010661" height="681.6715752694255" viewBox="19.581811089652476 -1.9272891985002172 268.2200677010661 681.6715752694255">
  <!-- Exported by Scratch - http://scratch.mit.edu/ -->
  <g id="ID0.5880346246995032">
    <path id="ID0.6829322893172503" fill="#EDD2B8" stroke="none" stroke-linecap="round" d="M 275.9519 337.3781 L 249.8997 327.487 L 243.3127 341.4052 L 234.8626 356.4825 L 236.1373 370.1609 L 238.6498 381.2601 L 244.2178 388.1325 L 249.1397 403.9348 L 260.3299 402.3992 L 262.8058 397.2409 L 266.6683 396.3882 L 273.8927 389.3092 L 281.5146 381.2076 L 285.3982 370.0051 L 281.8508 353.0893 L 275.9519 337.3781 Z " stroke-width="1.9625150121594088"/>
    <g id="ID0.9434720128774643">
      <path id="ID0.6507829907350242" fill="#282828" stroke="none" stroke-linecap="round" d="M 274.9934 180.6882 L 231.8379 209.3475 L 238.8405 249.5936 L 244.3009 279.6355 L 247.8973 318.228 L 243.8852 335.4541 L 279.7111 338.1271 L 276.1977 320.5182 L 278.4092 296.66 L 282.4714 266.2234 L 281.4574 234.1903 L 274.9934 180.6882 Z " stroke-width="1.9625150121594088"/>
      <path id="ID0.9892375003546476" fill="none" stroke="#191919" stroke-width="4.8073783505083005" stroke-linecap="round" d="M 278.4054 336.3789 L 245.4823 332.8081 L 249.5698 311.9074 "/>
    </g>
  </g>
  <g id="ID0.6660797297954559">
    <path id="ID0.5368814701214433" fill="#343434" stroke="none" stroke-linecap="round" d="M 164.6669 641.0186 L 171.5975 619.7941 L 182.3874 597.5673 L 206.367 611.6481 L 233.4471 630.0006 L 275.4204 654.8602 L 278.0127 670.5216 L 218.6479 673.3554 L 167.5815 664.5427 L 164.6669 641.0186 Z " stroke-width="1.8513610569684396"/>
    <g id="ID0.5077062323689461">
      <path id="ID0.05466862628236413" fill="#252525" stroke="none" stroke-linecap="round" d="M 167.3134 467.2281 L 219.456 459.1029 L 215.2834 494.397 L 213.4991 506.4472 L 213.4837 541.2633 L 219.4944 621.1887 L 168.4308 627.8475 L 165.2162 582.7818 L 159.6595 565.7958 L 156.8475 547.2203 L 160.6892 520.5219 L 160.4517 496.2064 L 167.3134 467.2281 Z " stroke-width="1.4418608323296336"/>
      <path id="ID0.5319394422695041" fill="none" stroke="#131313" stroke-width="4.80737829208374" stroke-linecap="round" d="M 219.49 618.901 L 168.4116 628.5158 L 166.008 600.8733 "/>
    </g>
    <g id="ID0.8820344842970371">
      <path id="ID0.3809091211296618" fill="#252525" stroke="none" stroke-linecap="round" d="M 140.3213 290.2834 L 216.5545 243.3725 L 219.5895 301.6084 L 229.1764 418.1302 L 228.0162 443.9758 L 218.3989 471.0962 L 198.9451 465.8465 L 167.8097 468.9485 L 166.2201 416.6396 L 162.0418 384.6636 L 140.3213 290.2834 Z " stroke-width="1.756108777162344"/>
      <path id="ID0.9495224836282432" fill="none" stroke="#131313" stroke-width="4.80737829208374" stroke-linecap="round" d="M 229.1048 418.193 L 229.1048 438.6243 L 224.2974 457.8538 L 203.8661 468.6704 L 201.4624 480.6889 "/>
    </g>
  </g>
  <g id="ID0.18228224432095885">
    <path id="ID0.5368814701214433" fill="#404040" stroke="none" stroke-linecap="round" d="M 72.5482 643.8432 L 79.9364 622.7736 L 91.2048 600.7856 L 114.8741 615.3819 L 141.5507 634.3161 L 182.9762 660.0783 L 185.229 675.792 L 125.8168 677.3406 L 74.9531 667.4249 L 72.5482 643.8432 Z " stroke-width="1.8513610861806322"/>
    <g id="ID0.5077062323689461">
      <path id="ID0.05466862628236413" fill="#252525" stroke="none" stroke-linecap="round" d="M 82.0316 468.7676 L 134.4996 463.1135 L 128.6652 498.1712 L 126.314 510.1237 L 124.6546 544.9003 L 126.8848 625.0203 L 75.5638 629.2606 L 74.4806 584.0934 L 69.7322 566.864 L 67.8004 548.1764 L 72.8983 521.6892 L 73.8092 497.3896 L 82.0316 468.7676 Z " stroke-width="1.4418608018806498"/>
      <path id="ID0.5319394422695041" fill="none" stroke="#131313" stroke-width="4.807378492081764" stroke-linecap="round" d="M 127.0823 622.8349 L 75.6069 630.0272 L 74.511 602.3021 "/>
    </g>
    <g id="ID0.8820344842970371">
      <path id="ID0.3809091211296618" fill="#252525" stroke="none" stroke-linecap="round" d="M 75.838 284.5857 L 141.9638 247.4561 L 142.2458 305.7704 L 146.3202 422.6149 L 143.9409 448.3769 L 133.0538 475.013 L 113.8697 468.8506 L 81.3085 473.6951 L 76.7581 418.1402 L 74.5517 386.7555 L 75.838 284.5857 Z " stroke-width="1.7561088489791046"/>
      <path id="ID0.9495224836282432" fill="none" stroke="#131313" stroke-width="4.807378492081764" stroke-linecap="round" d="M 146.163 422.8047 L 145.1983 443.2133 L 139.4883 462.1943 L 118.5691 472.0342 L 115.6006 483.9257 "/>
    </g>
  </g>
  <path id="ID0.7729651997797191" fill="#282828" stroke="none" stroke-linecap="round" d="M 21.9855 128.8365 L 77.4287 114.979 L 81.9193 163.7091 L 78.6252 184.6853 L 80.4997 210.5569 L 66.4741 346.5675 L 36.8334 235.3217 L 27.9615 220.5983 L 25.8175 162.0658 L 21.9855 128.8365 Z " stroke-width="2.304810238828613"/>
  <path id="ID0.4757494777441025" fill="#282828" stroke="none" stroke-linecap="round" d="M 48.2816 69.7672 L 69.4712 64.6169 L 108.9073 76.348 L 88.6006 137.5787 L 62.9966 149.5959 L 51.8132 152.1711 L 43.8671 146.4486 L 36.8039 139.2955 L 22.6775 133.0007 L 22.3832 119.839 L 24.149 100.3825 L 32.0951 80.3538 L 48.2816 69.7672 Z " stroke-width="1.1609638120206986"/>
  <path id="ID0.7729651997797191" fill="#282828" stroke="none" stroke-linecap="round" d="M 268.8434 106.8938 L 211.8889 102.1862 L 215.339 151.001 L 223.4754 176.9719 L 225.7488 199.1878 L 230.6804 219.9237 L 271.4139 214.3786 L 277.7876 198.4141 L 270.4363 140.3054 L 268.8434 106.8938 Z " stroke-width="2.3048102210803942"/>
  <path id="ID0.4757494777441025" fill="#282828" stroke="none" stroke-linecap="round" d="M 242.8184 68.5672 L 221.6288 63.4169 L 182.1927 75.148 L 202.4994 136.3787 L 228.1034 148.3959 L 239.2868 150.9711 L 247.2329 145.2486 L 254.2961 138.0955 L 268.4225 131.8007 L 268.7168 118.639 L 266.951 99.1825 L 259.0049 79.1538 L 242.8184 68.5672 Z " stroke-width="1.1609638120206986"/>
  <path id="ID0.4270821204409003" fill="#313131" stroke="none" stroke-linecap="round" d="M 149.279 395.0833 L 147.7302 78.8729 L 189.4705 85.9712 L 205.8863 98.4447 L 212.5845 109.9814 L 228.9894 142.4864 L 226.8371 171.8066 L 224.3205 187.0946 L 228.0388 206.5616 L 228.9555 221.9446 L 223.5185 241.1581 L 219.4097 255.7343 L 216.1625 281.6857 L 218.8565 343.1909 L 206.1552 365.8757 L 194.3954 382.9778 L 149.279 395.0833 Z " stroke-width="1.2435334406681842"/>
  <path id="ID0.4270821204409003" fill="#313131" stroke="none" stroke-linecap="round" d="M 149.4844 395.4764 L 149.1571 79.2702 L 107.458 86.0797 L 91.1159 98.4399 L 84.486 109.9305 L 68.2737 142.3225 L 70.6 171.6583 L 73.2073 186.964 L 69.6044 206.4057 L 68.779 221.7827 L 74.3301 241.0342 L 78.5255 255.6391 L 81.9267 281.6135 L 79.5976 343.1013 L 92.4338 365.8746 L 104.2953 383.0584 L 149.4844 395.4764 Z " stroke-width="1.2435925513956865"/>
  <path id="ID0.9286923445761204" fill="#313131" stroke="none" stroke-linecap="round" d="M 120.5761 0.4764 L 165.7838 4.0243 L 148.6735 49.4037 L 151.7064 146.6861 L 60.4899 76.8717 L 108.2727 51.4066 L 120.5761 0.4764 Z " stroke-width="1.1444987058639526"/>
  <path id="ID0.9286923445761204" fill="#313131" stroke="none" stroke-linecap="round" d="M 175.6239 1.0764 L 130.4162 4.6243 L 147.5265 50.0037 L 150.4449 146.1416 L 235.7101 77.4717 L 187.9273 52.0066 L 175.6239 1.0764 Z " stroke-width="1.1444987058639526"/>
  <path id="ID0.562834897544235" fill="#313131" stroke="none" stroke-linecap="round" d="M 78.959 293.3011 L 151.6706 279.4799 L 151.6706 328.1546 L 118.6199 331.1592 L 78.959 293.3011 Z " stroke-width="2.40368914604187"/>
  <path id="ID0.562834897544235" fill="#313131" stroke="none" stroke-linecap="round" d="M 225.341 293.9011 L 152.6294 280.0799 L 152.6294 328.7546 L 185.6801 331.7592 L 225.341 293.9011 Z " stroke-width="2.40368914604187"/>
  <path id="ID0.4144489667378366" fill="#313131" stroke="none" stroke-linecap="round" d="M 59.1286 69.758 L 107.8033 50.5285 L 100.5922 102.8088 L 108.4042 247.0301 L 85.5692 354.5952 L 59.1286 342.5768 L 58.5277 350.9897 L 65.7388 235.6126 L 54.3212 131.653 L 51.9175 92.5931 L 59.1286 69.758 Z " stroke-width="2.40368914604187"/>
  <path id="ID0.4144489667378366" fill="#313131" stroke="none" stroke-linecap="round" d="M 235.8714 67.758 L 187.1967 48.5285 L 194.4078 100.8088 L 186.5958 245.0301 L 209.4308 352.5952 L 235.8714 340.5768 L 236.4723 348.9897 L 229.2612 233.6126 L 240.6788 129.653 L 243.0825 90.5931 L 235.8714 67.758 Z " stroke-width="2.40368914604187"/>
  <path id="ID0.8752945330925286" fill="none" stroke="#222222" stroke-width="4.80737829208374" stroke-linecap="round" d="M 60.3305 70.359 L 52.5185 88.9876 L 60.3305 179.7268 "/>
  <path id="ID0.8752945330925286" fill="none" stroke="#222222" stroke-width="4.80737829208374" stroke-linecap="round" d="M 236.3195 69.159 L 244.1315 87.7876 L 236.3195 178.5268 "/>
</svg>