<svg xmlns="http://www.w3.org/2000/svg" xmlns:xlink="http://www.w3.org/1999/xlink" version="1.1" width="287.59635175714175" height="309.6429520989386" viewBox="-0.12119061474640591 0.8867048549191214 287.59635175714175 309.6429520989386">
  <!-- Exported by Scratch - http://scratch.mit.edu/ -->
  <g id="ID0.7085462282411754">
    <g id="ID0.5880346246995032">
      <path id="ID0.6829322893172503" fill="#796B5E" stroke="none" stroke-linecap="round" d="M 130.1319 167.4698 L 142.2724 167.6723 L 142.6208 174.4448 L 143.528 181.996 L 140.7472 187.3874 L 137.8949 191.521 L 134.5115 193.4257 L 129.9086 199.0913 L 125.6525 196.6366 L 125.5094 194.1209 L 124.0938 193.1415 L 122.355 189.0646 L 120.6255 184.5043 L 120.9168 179.2846 L 125.1502 172.9388 L 130.1319 167.4698 Z " stroke-width="0.860103544862228"/>
      <g id="ID0.9434720128774643">
        <path id="ID0.6507829907350242" fill="#2C3134" stroke="none" stroke-linecap="round" d="M 156.4109 103.5467 L 169.0563 122.3214 L 159.5634 137.654 L 152.3834 149.061 L 144.5376 164.2725 L 143.2999 171.979 L 128.416 167.2267 L 132.7506 160.5916 L 135.8134 150.464 L 139.2204 137.3414 L 144.9382 124.3937 L 156.4109 103.5467 Z " stroke-width="0.860103544862228"/>
        <path id="ID0.9892375003546476" fill="none" stroke="#191919" stroke-width="2.106910174198116" stroke-linecap="round" d="M 129.255 166.5927 L 143.1176 170.5038 L 144.934 161.2806 "/>
      </g>
    </g>
    <path id="ID0.7729651997797191" fill="#2C3134" stroke="none" stroke-linecap="round" d="M 171.1756 74.3075 L 194.9132 81.6749 L 185.4322 101.095 L 177.8482 110.3987 L 173.2499 119.1221 L 167.8254 126.8059 L 152.3254 117.8885 L 152.4022 110.3131 L 164.996 87.7251 L 171.1756 74.3075 Z " stroke-width="1.0101170654897502"/>
    <path id="ID0.4757494777441025" fill="#2C3134" stroke="none" stroke-linecap="round" d="M 187.9395 62.8165 L 197.3342 64.1661 L 211.286 75.4041 L 192.9526 97.1559 L 180.6404 97.8969 L 175.7057 97.1261 L 173.4512 93.4867 L 171.7897 89.4058 L 167.1389 84.5237 L 169.2016 79.0877 L 173.138 71.411 L 179.6604 64.5087 L 187.9395 62.8165 Z " stroke-width="0.5087011852918293"/>
  </g>
  <g id="ID0.6688785348087549">
    <path id="ID0.5368814701214433" fill="#343434" stroke="none" stroke-linecap="round" d="M 129.1344 189.1565 L 130.4465 179.0247 L 130.3613 167.7197 L 117.6848 168.8196 L 102.8871 171.0743 L 80.6565 173.0875 L 76.5046 179.0476 L 100.4722 191.8966 L 123.3027 198.3015 L 129.1344 189.1565 Z " stroke-width="0.8471283342911995"/>
    <g id="ID0.5077062323689461">
      <path id="ID0.05466862628236413" fill="#252525" stroke="none" stroke-linecap="round" d="M 162.2265 116.796 L 142.2834 103.1818 L 137.0643 118.5835 L 135.4309 123.9127 L 128.5882 138.2992 L 110.3822 170.136 L 130.168 182.9321 L 140.3613 164.9467 L 145.9984 159.0224 L 150.8142 151.9016 L 154.4792 140.1161 L 159.3606 130.1175 L 162.2265 116.796 Z " stroke-width="0.6597530586189023"/>
      <path id="ID0.5319394422695041" fill="none" stroke="#131313" stroke-width="2.1997146171461615" stroke-linecap="round" d="M 110.9834 169.431 L 130.1938 183.4512 L 136.6246 172.5043 "/>
    </g>
  </g>
  <g id="ID0.8820344842970371">
    <path id="ID0.3809091211296618" fill="#252525" stroke="none" stroke-linecap="round" d="M 187.4354 185.7958 L 227.0918 175.5549 L 208.8589 156.0727 L 173.4927 115.9334 L 164.6051 108.1135 L 152.6133 102.6767 L 148.1699 110.7552 L 137.2663 120.0338 L 154.0043 137.1585 L 163.2184 148.6837 L 187.4354 185.7958 Z " stroke-width="0.8035436656303547"/>
    <path id="ID0.9495224836282432" fill="none" stroke="#131313" stroke-width="2.1997147267116404" stroke-linecap="round" d="M 173.3125 115.8414 L 166.5777 109.3573 L 158.7135 104.8393 L 148.664 108.1413 L 143.9395 105.1194 "/>
  </g>
  <g id="ID0.7085462282411754">
    <g id="ID0.5880346246995032">
      <path id="ID0.6829322893172503" fill="#796B5E" stroke="none" stroke-linecap="round" d="M 281.4109 186.4286 L 269.8402 182.7474 L 267.3494 189.0549 L 264.0806 195.9221 L 264.9961 201.9189 L 266.3806 206.7464 L 268.9796 209.631 L 271.5345 216.469 L 276.3514 215.5003 L 277.2895 213.1618 L 278.9436 212.6851 L 281.8921 209.376 L 284.9861 205.6057 L 286.3753 200.5658 L 284.3875 193.201 L 281.4109 186.4286 Z " stroke-width="0.860103543738539"/>
      <g id="ID0.9434720128774643">
        <path id="ID0.6507829907350242" fill="#2C3134" stroke="none" stroke-linecap="round" d="M 276.8437 117.4239 L 258.8696 131.1834 L 262.975 148.7432 L 266.1407 161.8448 L 268.7238 178.7644 L 267.4383 186.4631 L 283.0605 186.7074 L 281.0691 179.0362 L 281.3974 168.4607 L 282.3548 154.9369 L 281.0663 140.8416 L 276.8437 117.4239 Z " stroke-width="0.860103543738539"/>
        <path id="ID0.9892375003546476" fill="none" stroke="#191919" stroke-width="2.106910173892899" stroke-linecap="round" d="M 282.3832 185.9734 L 267.9973 185.2577 L 269.2182 175.937 "/>
      </g>
    </g>
    <path id="ID0.7729651997797191" fill="#2C3134" stroke="none" stroke-linecap="round" d="M 272.2088 84.9801 L 247.3612 84.3897 L 250.1514 105.8196 L 254.3709 117.0567 L 255.9461 126.7913 L 258.6358 135.804 L 276.1707 132.2974 L 278.5147 125.0933 L 273.7849 99.668 L 272.2088 84.9801 Z " stroke-width="1.0101169804377628"/>
    <path id="ID0.4757494777441025" fill="#2C3134" stroke="none" stroke-linecap="round" d="M 260.0105 68.719 L 250.6761 67.001 L 233.8681 73.2008 L 244.3043 99.6648 L 255.7368 104.295 L 260.6595 105.1386 L 263.9572 102.4087 L 266.8338 99.0711 L 272.7992 95.9278 L 272.5784 90.1178 L 271.2967 81.5865 L 267.3171 72.964 L 260.0105 68.719 Z " stroke-width="0.508701167313651"/>
  </g>
  <g id="ID0.8990198895335197">
    <path id="ID0.17576928716152906" fill="#DBDBDB" stroke="none" d="M 220.973 60.517 L 221.2338 60.5334 L 221.2338 60.5334 L 220.973 60.517 L 220.973 60.517 Z " stroke-width="1.0534572489367935"/>
    <path id="ID0.4270821204409003" fill="#252525" stroke="none" stroke-linecap="round" d="M 214.9153 189.9953 L 222.6676 70.5475 L 204.3974 72.04 L 196.9952 76.2856 L 193.8305 80.4542 L 185.9845 92.2698 L 186.2619 103.4109 L 187.0115 109.2598 L 184.9622 116.5101 L 184.22 122.297 L 186.149 129.7126 L 187.6054 135.3379 L 188.4333 145.2371 L 185.8872 168.4024 L 190.8905 177.3368 L 195.6102 184.1347 L 214.9153 189.9953 Z " stroke-width="0.501595785399862"/>
    <path id="ID0.4270821204409003" fill="#252525" stroke="none" stroke-linecap="round" d="M 214.9446 190.0375 L 222.1667 70.5565 L 240.1077 74.3184 L 246.9219 79.455 L 249.5413 83.9862 L 255.8507 96.6889 L 254.1844 107.7082 L 252.7104 113.4177 L 253.8384 120.8672 L 253.8522 126.7015 L 251.0125 133.8181 L 248.8651 139.2176 L 246.8077 148.936 L 246.4415 172.2379 L 240.3619 180.4777 L 243.3692 198.0518 L 214.9446 190.0375 Z " stroke-width="0.5015958026200296"/>
    <path id="ID0.5114514343440533" fill="#282828" stroke="none" d="M 249.5709 73.5332 L 194.2795 70.0679 L 188.4195 163.5681 L 243.7109 167.0334 L 249.5709 73.5332 Z " stroke-width="1.0624883561200273"/>
    <path id="ID0.9286923445761204" fill="#D4D4D4" stroke="none" stroke-linecap="round" d="M 233.7187 57.9846 L 216.9316 37.0036 L 223.1041 57.4713 L 219.1004 100.2686 L 260.6182 71.9772 L 240.3243 59.2089 L 233.7187 57.9846 Z " stroke-width="0.5015958626722967"/>
    <path id="ID0.9286923445761204" fill="#D4D4D4" stroke="none" stroke-linecap="round" d="M 216.8181 55.7686 L 232.3524 38.2567 L 223.6727 57.7935 L 219.7503 100.0895 L 184.641 67.5021 L 206.0642 56.2847 L 216.8181 55.7686 Z " stroke-width="0.5015958626722967"/>
    <path id="ID0.39874776685610414" fill="#1F2022" stroke="none" stroke-linecap="round" d="M 242.2854 60.2244 L 220.9013 69.3833 L 202.8558 58.7209 L 198.5376 60.7243 L 220.8543 73.3961 L 246.0772 62.5425 L 242.2854 60.2244 Z " stroke-width="0.9935621547785666"/>
    <path id="ID0.13444371055811644" fill="#1F1F1F" stroke="none" stroke-linecap="round" d="M 223.1845 71.5061 L 217.7241 70.898 L 212.9106 100.9104 L 225.4484 102.2281 L 223.1845 71.5061 Z " stroke-width="1.0534572489367935"/>
    <path id="ID0.751046194229275" fill="#191919" stroke="none" stroke-linecap="round" d="M 225.9643 66.4048 L 221.2224 63.943 L 216.3822 65.8042 L 215.3937 74.2249 L 219.9182 75.5615 L 225.4348 74.8542 L 225.9643 66.4048 Z " stroke-width="1.1588030157999438"/>
    <path id="ID0.7854711129330099" fill="#282828" stroke="none" stroke-linecap="round" d="M 233.8583 89.9489 L 218.672 98.3041 L 204.9749 87.0751 L 205.8994 105.7469 L 230.1545 107.2671 L 233.8583 89.9489 Z " stroke-width="1.0534572489367935"/>
    <path id="ID0.562834897544235" fill="#282828" stroke="none" stroke-linecap="round" d="M 246.5847 166.7978 L 215.4087 158.7279 L 214.064 180.1826 L 228.3255 182.406 L 246.5847 166.7978 Z " stroke-width="1.0534572489367935"/>
    <path id="ID0.562834897544235" fill="#282828" stroke="none" stroke-linecap="round" d="M 183.1754 163.2029 L 215.1151 159.0886 L 213.7704 180.5434 L 199.343 180.9687 L 183.1754 163.2029 Z " stroke-width="1.0534572489367935"/>
    <path id="ID0.6824178956449032" fill="none" stroke="#191919" stroke-width="2.106914497873587" stroke-linecap="round" d="M 218.927 98.6517 L 214.0914 179.9841 "/>
    <path id="ID0.4144489667378366" fill="#40474C" stroke="none" stroke-linecap="round" d="M 261.3667 68.8044 L 240.7725 59.0045 L 242.4579 82.2446 L 235.0833 145.6016 L 242.0225 193.635 L 253.8301 189.0568 L 253.8585 192.7813 L 253.9161 141.7296 L 261.7434 96.2171 L 263.8656 79.0658 L 261.3667 68.8044 Z " stroke-width="1.0534572489367935"/>
    <path id="ID0.5234400681219995" fill="#101010" stroke="none" d="M 216.2278 104.3767 C 215.7973 104.3497 215.3958 104.5028 215.0952 104.7721 C 214.7946 105.0414 214.5949 105.4269 214.5675 105.8641 C 214.5401 106.3013 214.6901 106.7087 214.9547 107.0135 C 215.2194 107.3182 215.5986 107.5202 216.0291 107.5472 C 216.4596 107.5742 216.8611 107.4211 217.1617 107.1518 C 217.4623 106.8825 217.662 106.4969 217.6894 106.0598 C 217.7168 105.6226 217.5668 105.2151 217.3022 104.9104 C 217.0376 104.6057 216.6583 104.4036 216.2278 104.3767 Z " stroke-width="0.6636780913406511"/>
    <path id="ID0.5234400681219995" fill="#101010" stroke="none" d="M 215.2778 118.7767 C 214.8473 118.7497 214.4458 118.9028 214.1452 119.1721 C 213.8446 119.4414 213.6449 119.8269 213.6175 120.2641 C 213.5901 120.7013 213.7401 121.1087 214.0047 121.4135 C 214.2694 121.7182 214.6486 121.9202 215.0791 121.9472 C 215.5096 121.9742 215.9111 121.8211 216.2117 121.5518 C 216.5123 121.2825 216.712 120.8969 216.7394 120.4598 C 216.7668 120.0226 216.6168 119.6151 216.3522 119.3104 C 216.0876 119.0057 215.7083 118.8036 215.2778 118.7767 Z " stroke-width="0.6636780913406511"/>
    <path id="ID0.5234400681219995" fill="#101010" stroke="none" d="M 213.1778 152.2267 C 212.7473 152.1997 212.3458 152.3528 212.0452 152.6221 C 211.7446 152.8914 211.5449 153.2769 211.5175 153.7141 C 211.4901 154.1513 211.6401 154.5587 211.9047 154.8635 C 212.1694 155.1682 212.5486 155.3702 212.9791 155.3972 C 213.4096 155.4242 213.8111 155.2711 214.1117 155.0018 C 214.4123 154.7325 214.612 154.3469 214.6394 153.9098 C 214.6668 153.4726 214.5168 153.0651 214.2522 152.7604 C 213.9876 152.4557 213.6083 152.2536 213.1778 152.2267 Z " stroke-width="0.6636780913406511"/>
    <path id="ID0.5234400681219995" fill="#101010" stroke="none" d="M 214.2278 136.4767 C 213.7973 136.4497 213.3958 136.6028 213.0952 136.8721 C 212.7946 137.1414 212.5949 137.5269 212.5675 137.9641 C 212.5401 138.4013 212.6901 138.8087 212.9547 139.1135 C 213.2194 139.4182 213.5986 139.6202 214.0291 139.6472 C 214.4596 139.6742 214.8611 139.5211 215.1617 139.2518 C 215.4623 138.9825 215.662 138.5969 215.6894 138.1598 C 215.7168 137.7226 215.5668 137.3151 215.3022 137.0104 C 215.0376 136.7057 214.6583 136.5036 214.2278 136.4767 Z " stroke-width="0.6636780913406511"/>
    <path id="ID0.5234400681219995" fill="#101010" stroke="none" d="M 212.4278 167.0767 C 211.9973 167.0497 211.5958 167.2028 211.2952 167.4721 C 210.9946 167.7414 210.7949 168.1269 210.7675 168.5641 C 210.7401 169.0013 210.8901 169.4087 211.1547 169.7135 C 211.4194 170.0182 211.7986 170.2202 212.2291 170.2472 C 212.6596 170.2742 213.0611 170.1211 213.3617 169.8518 C 213.6623 169.5825 213.862 169.1969 213.8894 168.7598 C 213.9168 168.3226 213.7668 167.9151 213.5022 167.6104 C 213.2376 167.3057 212.8583 167.1036 212.4278 167.0767 Z " stroke-width="0.6636780913406511"/>
    <path id="ID0.4144489667378366" fill="#40474C" stroke="none" stroke-linecap="round" d="M 184.8941 63.1807 L 206.5508 56.0288 L 201.9769 78.8766 L 201.3833 142.6586 L 188.5011 189.4497 L 177.3575 183.4331 L 176.8643 187.1249 L 183.1813 136.4655 L 181.0978 90.3319 L 181.1336 73.0498 L 184.8941 63.1807 Z " stroke-width="1.0534572489367935"/>
    <path id="ID0.8752945330925286" fill="none" stroke="#222222" stroke-width="2.106914497873587" stroke-linecap="round" d="M 260.8285 69.0366 L 263.7044 77.4602 L 257.8072 117.2435 "/>
    <path id="ID0.8752945330925286" fill="none" stroke="#222222" stroke-width="2.106914497873587" stroke-linecap="round" d="M 184.6991 63.7783 L 180.794 71.7769 L 181.6779 111.9852 "/>
    <path id="ID0.5234400681219995" fill="#101010" stroke="none" d="M 237.2778 154.3767 C 236.8473 154.3497 236.4458 154.5028 236.1452 154.7721 C 235.8446 155.0414 235.6449 155.4269 235.6175 155.8641 C 235.5901 156.3013 235.7401 156.7087 236.0047 157.0135 C 236.2694 157.3182 236.6486 157.5202 237.0791 157.5472 C 237.5096 157.5742 237.9111 157.4211 238.2117 157.1518 C 238.5123 156.8825 238.712 156.4969 238.7394 156.0598 C 238.7668 155.6226 238.6168 155.2151 238.3522 154.9104 C 238.0876 154.6057 237.7083 154.4036 237.2778 154.3767 Z " stroke-width="0.6636780913406511"/>
    <path id="ID0.5234400681219995" fill="#101010" stroke="none" d="M 238.2778 162.1767 C 237.8473 162.1497 237.4458 162.3028 237.1452 162.5721 C 236.8446 162.8414 236.6449 163.2269 236.6175 163.6641 C 236.5901 164.1013 236.7401 164.5087 237.0047 164.8135 C 237.2694 165.1182 237.6486 165.3202 238.0791 165.3472 C 238.5096 165.3742 238.9111 165.2211 239.2117 164.9518 C 239.5123 164.6825 239.712 164.2969 239.7394 163.8598 C 239.7668 163.4226 239.6168 163.0151 239.3522 162.7104 C 239.0876 162.4057 238.7083 162.2036 238.2778 162.1767 Z " stroke-width="0.6636780913406511"/>
    <g id="ID0.20783481979742646">
      <path id="ID0.5848579816520214" fill="#737373" stroke="none" stroke-linecap="round" d="M 193.8452 93.9544 L 186.7986 91.9173 L 186.644 96.0558 L 194.1742 97.0596 L 193.8452 93.9544 Z " stroke-width="1.0534572489367935"/>
      <path id="ID0.13105127029120922" fill="none" stroke="#222222" stroke-width="2.106914497873587" stroke-linecap="round" d="M 195.566 97.4128 L 190.8715 97.1185 L 185.4941 95.186 "/>
    </g>
  </g>
  <path id="ID0.46110434643924236" fill="#675B50" stroke="none" stroke-linecap="round" d="M 236.3963 38.4698 L 212.8039 36.9911 L 211.0579 57.038 L 217.3307 60.4625 L 235.0617 59.7656 L 236.3963 38.4698 Z " stroke-width="1.144406894210797"/>
  <g id="ID0.9597035455517471">
    <path id="ID0.5368814701214433" fill="#404040" stroke="none" stroke-linecap="round" d="M 142.4634 215.0959 L 143.6057 204.9436 L 143.3314 193.6416 L 130.675 194.9535 L 115.9171 197.4555 L 93.7233 199.8405 L 89.6718 205.8693 L 113.8511 218.3153 L 136.7855 224.3373 L 142.4634 215.0959 Z " stroke-width="0.8471282696657984"/>
    <g id="ID0.5077062323689461">
      <path id="ID0.05466862628236413" fill="#252525" stroke="none" stroke-linecap="round" d="M 173.42 141.0035 L 152.9187 128.2455 L 148.356 143.8542 L 146.9496 149.2478 L 140.7219 163.911 L 123.8794 196.4896 L 144.1889 208.437 L 153.612 190.0363 L 158.9933 183.8789 L 163.5036 176.5606 L 166.6666 164.6306 L 171.1205 154.4343 L 173.42 141.0035 Z " stroke-width="0.6597530406986021"/>
      <path id="ID0.5319394422695041" fill="none" stroke="#131313" stroke-width="2.1997147942511126" stroke-linecap="round" d="M 124.5151 195.7528 L 144.3015 208.9475 L 150.2634 197.7383 "/>
    </g>
  </g>
  <g id="ID0.8820344842970371">
    <path id="ID0.3809091211296618" fill="#252525" stroke="none" stroke-linecap="round" d="M 212.2891 209.2892 L 245.5137 199.2758 L 226.3812 180.6763 L 189.1592 142.2516 L 179.9123 134.86 L 167.6772 129.9955 L 163.6202 138.2748 L 151.6897 147.4703 L 168.558 166.6012 L 178.203 177.2887 L 212.2891 209.2892 Z " stroke-width="0.8035436602052097"/>
    <path id="ID0.9495224836282432" fill="none" stroke="#131313" stroke-width="2.1997145314683637" stroke-linecap="round" d="M 188.913 142.3313 L 181.8797 136.1724 L 173.8109 132.0308 L 163.9285 135.8036 L 159.0666 133.0082 "/>
  </g>
  <path id="ID0.7592270169407129" fill="none" stroke="#675B50" stroke-width="1.0984285722290994" stroke-linecap="round" d="M 213.6031 53.0127 C 213.6031 53.0127 213.4541 53.762 213.5053 54.1335 C 213.5548 54.494 213.8204 54.8004 213.8979 55.1561 C 213.9755 55.514 213.8975 55.8932 213.9664 56.2528 C 214.0345 56.6103 214.1181 56.9795 214.3063 57.292 C 214.4664 57.5579 214.982 57.938 214.982 57.938 "/>
  <path id="ID0.48112139804288745" fill="#3A3A3A" stroke="#3A3A3A" stroke-width="2.0362676359932843" stroke-linecap="round" d="M 202.1784 12.2712 C 201.5109 12.6056 202.0989 14.1086 201.7933 14.9365 C 201.5478 15.6012 200.8502 16.0688 200.6796 16.7564 C 200.5164 17.4159 200.7369 18.1183 200.8378 18.7896 C 201.1218 20.6841 200.9567 23.1676 201.8365 24.6614 C 202.1932 25.1769 202.8865 23.4157 203.3108 22.8083 C 204.177 21.5902 205.1011 20.3182 205.699 19.0244 C 205.9843 18.4072 205.9595 17.6889 206.0525 17.0159 C 206.1443 16.3478 206.5084 15.625 206.2524 14.9999 C 205.9928 14.3655 205.2482 14.044 204.676 13.6578 C 203.9299 13.1549 202.9523 11.9662 202.1784 12.2712 Z "/>
  <path id="ID0.05099705280736089" fill="#1C1916" stroke="#1C1916" stroke-width="2.162145826867752" stroke-linecap="round" d="M 238.3387 33.6527 C 238.6737 33.8421 238.1589 35.0754 237.9582 35.8927 C 237.7861 36.592 237.3264 37.2022 236.8869 37.7767 C 236.4463 38.3523 235.883 38.8305 235.3422 39.3152 C 234.8014 39.7999 234.2089 40.2284 233.6422 40.6849 C 233.0755 41.1415 232.6696 42.1274 231.9422 42.0546 C 231.2149 41.9818 230.6491 41.0899 230.5529 40.3744 C 230.3614 38.9499 230.6002 37.4344 231.1405 36.1012 C 231.4125 35.4314 232.2278 35.1256 232.8405 34.7315 C 233.452 34.3384 234.089 33.9379 234.794 33.7504 C 235.8235 33.4764 237.0916 32.7709 237.9713 33.3662 Z "/>
  <path id="ID0.8999492498114705" fill="#796B5E" stroke="none" stroke-linecap="round" d="M 215.3461 3.1082 C 210.5353 3.3911 205.2529 6.0507 202.7346 10.1048 C 199.861 14.7335 201.2654 20.8067 201.103 26.1864 C 201.0327 28.547 201.7228 31.0089 202.1659 33.3949 C 202.7963 36.7848 203.5942 40.0391 204.2605 43.303 C 204.6496 45.2848 204.2004 47.6069 205.3341 49.1461 C 207.1377 51.5939 209.5989 54.1288 212.5896 54.7414 C 216.0454 55.4487 219.5509 53.6063 222.9805 52.7028 C 224.703 52.191 226.767 51.894 227.9836 50.5131 C 230.5909 47.5484 232.0346 43.6746 233.7127 40.1634 C 235.4744 36.4776 238.0732 32.9213 238.3285 28.8038 C 238.7622 21.796 240.3857 13.2142 235.4644 7.9043 C 231.0788 2.8087 222.4974 2.6909 215.3461 3.1082 Z " stroke-width="0.5492253943032496"/>
  <path id="ID0.8194515448994935" fill="#796B5E" stroke="none" stroke-linecap="round" d="M 238.5123 24.8039 C 237.5797 24.8524 236.8787 25.4304 236.2729 26.54 C 235.667 27.6496 235.2501 29.2017 235.1664 30.9334 C 235.0828 32.6651 235.3482 34.2501 235.8443 35.4129 C 236.3404 36.5758 236.985 37.1898 237.906 37.3568 C 238.7515 37.5084 239.867 37.101 240.2942 36.3968 C 241.1097 34.8252 241.0713 32.9124 241.2518 31.2273 C 241.4298 29.5712 241.9092 27.764 241.3298 26.2304 C 240.8535 25.289 239.4896 24.7532 238.5123 24.8039 Z " stroke-width="1.081072913433876"/>
  <path id="ID0.7592270169407129" fill="none" stroke="#675B50" stroke-width="1.0984507886064991" stroke-linecap="round" d="M 216.4172 46.3632 C 216.4172 46.3632 215.7235 46.7007 215.3471 46.7486 C 214.9819 46.7954 214.6134 46.6219 214.2456 46.6408 C 213.8756 46.6601 213.5253 46.8333 213.1559 46.8613 C 212.7888 46.8895 212.4062 46.906 212.0518 46.808 C 211.7503 46.7246 211.2447 46.3319 211.2447 46.3319 "/>
  <path id="ID0.7788236327469349" fill="#FFFFFF" stroke="none" stroke-linecap="round" d="M 226.0105 25.8683 L 224.5538 25.5829 L 222.1217 25.1966 L 219.7802 25.191 L 219.3376 27.5893 L 222.0775 28.3669 L 227.5446 27.9319 L 226.0105 25.8683 Z " stroke-width="1.081072913433876"/>
  <path id="ID0.7788236327469349" fill="#FFFFFF" stroke="none" stroke-linecap="round" d="M 206.053 24.9352 L 207.9289 24.4343 L 210.0479 24.5367 L 212.3791 24.7568 L 212.5885 27.1866 L 209.7864 27.6965 L 204.7566 26.9696 L 206.053 24.9352 Z " stroke-width="1.081072913433876"/>
  <path id="ID0.2118154256604612" fill="#1C1916" stroke="#1C1916" stroke-width="2.162145826867752" stroke-linecap="round" d="M 239.6242 22.5166 C 239.628 23.0707 239.2241 25.5461 238.3225 26.9167 C 237.9898 27.4222 237.8054 25.5131 237.4973 24.8336 C 237.199 24.175 236.785 23.5678 236.5013 22.9035 C 236.1979 22.1931 235.958 21.4545 235.7355 20.7157 C 235.5196 19.9998 235.3524 19.2669 235.1872 18.5384 C 235.0237 17.8186 234.9694 17.0707 234.7475 16.3664 C 234.5266 15.6631 234.1772 15.0032 233.8653 14.3343 C 233.5523 13.6653 233.4218 12.8492 232.8719 12.3506 C 232.3063 11.8372 231.4955 11.598 230.7348 11.4946 C 230.0055 11.3959 229.273 11.6778 228.5433 11.7651 C 227.7776 11.8561 227.0048 11.9123 226.2432 12.0304 C 225.5057 12.1443 224.769 12.2883 224.0439 12.4619 C 223.3375 12.631 222.6454 12.8665 221.9455 13.0596 C 221.2125 13.2618 220.4612 13.4138 219.7385 13.652 C 219.0389 13.8828 218.3976 14.2841 217.6841 14.4669 C 216.9727 14.6487 216.2008 14.9362 215.4926 14.7374 C 214.7812 14.5375 214.3457 13.811 213.7617 13.3633 C 213.1735 12.9134 212.6221 12.4007 211.9739 12.0403 C 211.3396 11.6881 210.6491 11.4171 209.9429 11.2432 C 208.7459 10.9499 207.3745 10.4556 206.049 10.6787 C 204.7794 10.8949 203.2095 13 202.5301 12.4983 C 201.8856 12.0176 203.0123 9.9126 203.6403 8.6804 C 204.3188 7.3517 205.3181 6.1687 206.4245 5.1585 C 207.4911 4.1852 208.7164 3.3066 210.078 2.8078 C 211.4597 2.3013 212.9954 2.3464 214.4636 2.213 C 215.1857 2.1468 215.9172 2.2467 216.6422 2.2107 C 217.3737 2.174 218.098 1.9949 218.8311 1.9938 C 220.2798 1.9917 221.7554 1.9307 223.1778 2.2037 C 224.6585 2.4871 226.0321 3.1836 227.4649 3.6475 C 228.1749 3.8775 228.9113 4.0324 229.6124 4.2889 C 230.9984 4.7968 232.3808 5.3335 233.7262 5.9394 C 234.3903 6.2382 235.113 6.4968 235.6355 6.9995 C 236.1872 7.5294 236.3983 8.3246 236.8489 8.94 C 237.2852 9.5354 237.9336 9.9796 238.2925 10.6229 C 238.6654 11.2926 238.834 12.0621 239.0039 12.808 C 239.1646 13.517 239.2514 14.246 239.2806 14.9722 C 239.3093 15.6866 239.121 16.4045 239.177 17.118 C 239.234 17.8531 239.473 18.5658 239.6167 19.2901 C 239.7349 19.8862 240.0677 20.483 239.9658 21.0813 Z "/>
  <path id="ID0.5261953212320805" fill="none" stroke="#1C1916" stroke-width="2.1621460895641365" stroke-linecap="round" d="M 228.5408 23.3974 C 228.5408 23.3974 227.9123 21.9514 227.3352 21.4465 C 226.7831 20.9631 226.0242 20.7412 225.3095 20.5677 C 224.5948 20.3941 223.8356 20.5192 223.1064 20.4195 C 221.7403 20.2314 219.0256 19.7048 219.0256 19.7048 "/>
  <path id="ID0.5261953212320805" fill="none" stroke="#1C1916" stroke-width="2.1621459206016835" stroke-linecap="round" d="M 202.9416 21.8885 C 202.9416 21.8885 203.6796 20.4953 204.294 20.0364 C 204.8817 19.597 205.6555 19.4343 206.3814 19.3164 C 207.1073 19.1984 207.8547 19.3817 208.5894 19.3385 C 209.966 19.2563 212.7132 18.9406 212.7132 18.9406 "/>
  <path id="ID0.8619630038738251" fill="none" stroke="#675B50" stroke-width="1.2706583445397441" stroke-linecap="round" d="M 215.0962 26.0714 C 215.0962 26.0714 214.5791 29.1577 214.3311 30.648 C 214.1895 31.4849 214.315 32.4377 213.858 33.1532 C 213.3042 33.9638 212.093 33.8857 211.7702 34.6323 C 211.3461 35.4088 211.1524 36.8745 211.9054 37.1352 C 213.05 37.5312 214.1919 36.1264 215.4772 36.0754 C 216.1673 36.0486 217.32 37.0176 217.32 37.0176 "/>
  <path id="ID0.6736386958509684" fill="none" stroke="#675B50" stroke-width="1.3553751792950428" stroke-linecap="round" d="M 228.2959 34.5133 C 228.2959 34.5133 227.6704 35.2921 227.3194 35.6459 C 226.9993 35.9689 226.6116 36.2218 226.2862 36.5398 C 225.9537 36.8649 225.5864 37.1754 225.3487 37.5731 C 225.1073 37.9761 224.9132 38.4319 224.875 38.8985 C 224.7728 40.1522 224.9315 42.6764 224.9315 42.6764 "/>
  <path id="ID0.18298013787716627" fill="#1C1916" stroke="#1C1916" stroke-width="2.162145826867752" stroke-linecap="round" d="M 229.6756 10.9128 C 230.1268 11.154 230.595 12.1724 230.3869 13.0979 C 230.0571 14.5607 228.6094 16.0523 228.8213 17.324 C 228.9262 17.9495 230.3257 17.1632 231.0206 16.8925 C 231.6978 16.6284 232.2689 16.1473 232.8732 15.7452 C 233.5248 15.3121 234.3785 15.0469 234.7905 14.386 C 235.1718 13.7753 235.2968 12.9253 235.0572 12.2481 C 234.8167 11.5665 234.1263 11.089 233.4971 10.721 C 232.8541 10.3447 232.0881 10.1926 231.3496 10.0795 C 231.0371 10.0322 230.5106 9.9519 230.4156 10.2495 Z "/>
  <path id="ID0.7592270169407129" fill="none" stroke="#675B50" stroke-width="1.0984448260544954" stroke-linecap="round" d="M 215.0657 19.3171 C 215.0657 19.3171 214.7884 20.0298 214.7742 20.4043 C 214.7602 20.7678 214.9686 21.1144 214.983 21.4778 C 214.9972 21.8434 214.8544 22.2037 214.8596 22.5694 C 214.8646 22.933 214.8827 23.3108 215.0137 23.6504 C 215.1252 23.9393 215.5671 24.4008 215.5671 24.4008 "/>
  <path id="ID0.48112139804288745" fill="#3A3A3A" stroke="#3A3A3A" stroke-width="2.0362676359932843" stroke-linecap="round" d="M 239.2813 15.4292 C 239.9135 15.8264 239.1834 17.2658 239.4078 18.1193 C 239.5881 18.8045 240.2373 19.3372 240.341 20.038 C 240.4398 20.7102 240.1527 21.3881 239.9875 22.0465 C 239.5223 23.9048 239.4473 26.3927 238.4276 27.7948 C 238.0229 28.2735 237.5025 26.4537 237.1387 25.8082 C 236.394 24.5123 235.5968 23.1572 235.1263 21.8117 C 234.9019 21.1699 234.9958 20.4574 234.968 19.7785 C 234.9411 19.1047 234.6482 18.3502 234.9633 17.7527 C 235.2829 17.1463 236.055 16.8979 236.6618 16.5687 C 237.4528 16.14 238.5405 15.0511 239.2813 15.4292 Z "/>
  <path id="ID0.7766774026677012" fill="#0D0D0D" stroke="#0D0D0D" stroke-width="1.8086520039145781" stroke-linecap="round" d="M 1 194.2018 C 1.718 167.513 0.989 139.7886 12 114.2773 C 16.164 104.6321 31.459 100.1874 43.5 96.7377 C 48.996 95.1655 54.566 99.1119 60 100.5247 C 61.543 100.9225 62.688 101.7572 64 102.3185 C 65.857 102.9539 67.811 103.4362 69.5 104.1123 C 70.098 104.3531 70.7 104.5907 71.25 104.9096 C 71.9 105.1886 72.4 105.5872 73 105.9061 C 74.25 106.5041 75.5 107.1419 76.75 107.6999 C 78 108.1783 79.3 108.5769 80.5 109.0951 C 81.1 109.3343 81.75 109.5336 82.25 109.8924 C 82.85 110.2512 83.25 110.8092 83.75 111.2876 C 84.25 111.6862 84.75 112.0848 85.25 112.4835 C 85.75 112.8422 86.4 113.201 86.75 113.6793 C 87.15 114.1178 87.25 114.7158 87.5 115.2738 C 87.75 115.7921 88.05 116.3103 88.25 116.8683 C 88.7 117.9048 89.1 118.9811 89.5 120.0574 C 89.75 120.5756 90 121.0938 90.25 121.6519 C 90.5 122.1701 90.75 122.6883 91 123.2464 C 91.25 123.7646 91.5 124.2828 91.75 124.8409 C 92 125.3591 92.35 125.8773 92.5 126.4354 C 92.7 126.9536 92.7 127.4718 92.75 128.0299 C 92.85 128.5481 92.95 129.0663 93 129.6244 C 93.1 130.1426 93.15 130.6608 93.25 131.2189 C 93.4 131.7371 93.65 132.2553 93.75 132.8134 C 94.2 134.368 94.6 136.0024 95 137.5969 C 95.15 138.1151 95.4 138.6333 95.5 139.1914 C 95.65 139.7096 95.7 140.2278 95.75 140.7859 C 95.85 141.3041 96 141.8223 96 142.3804 C 96.05 142.8986 96 143.4168 96 143.9749 C 96 145.0114 96.1 146.0876 96 147.1639 C 96 147.6821 95.8 147.9213 95.75 148.7584 C 95.7 151.9873 95.75 155.256 95.75 158.5248 C 95.75 161.6739 95.75 164.9028 95.75 168.0918 C 95.75 169.6464 95.7 171.2808 95.75 172.8753 C 95.8 173.3935 95.9 173.9117 96 174.4698 C 96.25 175.6657 96.6 176.8217 96.75 178.0575 C 96.85 178.5757 96.75 179.0939 96.75 179.652 C 96.8 180.1702 96.95 180.6884 97 181.2465 C 97.2 182.2829 97.45 183.3592 97.5 184.4355 C 97.6 185.4719 97.5 186.5482 97.5 187.6245 C 97.5 190.7736 97.5 194.0025 97.5 197.1915 C 97.5 197.9489 97.45 198.2279 97.5 198.786 C 97.6 199.3042 97.9 199.8224 98 200.3805 C 98.35 201.9352 98.5 203.5695 98.75 205.164 C 98.85 205.6822 98.9 206.2005 99 206.7585 C 99.3 207.8747 99.75 208.9908 100 210.1469 C 100.15 210.7049 100.2 211.3427 100.25 211.9407 C 100.35 212.4987 100.5 213.0967 100.5 213.7345 C 100.55 214.2527 100.5 214.7709 100.5 215.329 C 100.5 215.8472 100.6 216.3654 100.5 216.9235 C 100.35 217.9599 100 219.0362 99.75 220.1125 C 99.65 220.6307 99.55 221.1489 99.5 221.707 C 99.5 222.2252 99.5 222.7434 99.5 223.3015 C 99.5 223.8197 99.5 224.3379 99.5 224.896 C 99.6 225.9324 99.6 227.0087 99.75 228.085 C 99.95 229.0816 100.5 231.0747 100.5 231.0747 C 100.75 231.4733 101.372 233.7423 101.75 234.8617 C 101.955 235.47 102.277 236.0512 102.5 236.6555 C 102.694 237.1809 102.833 237.719 103 238.25 C 103.167 238.781 103.373 239.3064 103.5 239.8445 C 103.624 240.3707 103.626 240.9128 103.75 241.439 C 103.877 241.9771 104.045 242.5113 104.25 243.0335 C 104.462 243.5748 104.827 244.0779 105 244.628 C 105.163 245.147 105.167 245.6915 105.25 246.2225 C 105.333 246.7535 105.417 247.286 105.5 247.817 C 105.583 248.348 105.667 248.8806 105.75 249.4115 C 105.833 249.9425 105.972 250.4711 106 251.006 C 106.055 252.0672 105.945 253.1339 106 254.195 C 106.028 254.73 106.167 255.2586 106.25 255.7895 C 106.333 256.3205 106.472 256.8491 106.5 257.384 C 106.555 258.4452 106.528 259.5111 106.5 260.5731 C 106.444 262.6977 106.317 264.8272 106.25 266.9511 C 106.233 267.482 106.25 268.0146 106.25 268.5456 C 106.25 269.0765 106.208 269.6099 106.25 270.1401 C 106.292 270.6742 106.376 271.2084 106.5 271.7346 C 106.627 272.2727 106.915 272.7862 107 273.3291 C 107.083 273.8561 106.958 274.3934 107 274.9236 C 107.042 275.4578 107.208 275.9839 107.25 276.5181 C 107.292 277.0483 107.208 277.5824 107.25 278.1126 C 107.292 278.6468 107.376 279.1809 107.5 279.7071 C 107.627 280.2453 107.873 280.7635 108 281.3016 C 108.124 281.8278 108.126 282.3699 108.25 282.8961 C 108.377 283.4343 108.637 283.9509 108.75 284.4906 C 108.971 285.5462 109.083 286.6177 109.25 287.6796 C 109.333 288.2106 109.417 288.7432 109.5 289.2741 C 109.583 289.8051 109.708 290.3345 109.75 290.8686 C 109.792 291.3988 109.792 291.933 109.75 292.4631 C 109.708 292.9973 109.528 293.5227 109.5 294.0576 C 109.445 295.1188 109.335 296.1927 109.5 297.2467 C 109.67 298.3325 110.116 299.3849 110.5 300.4357 C 110.699 300.9802 111.038 301.4888 111.25 302.0302 C 111.455 302.5524 111.545 303.1025 111.75 303.6247 C 111.962 304.166 112.369 304.6619 112.5 305.2192 C 112.623 305.7414 112.892 306.384 112.5 306.8137 C 112.082 307.2721 111.206 307.3415 110.5 307.4116 C 109.834 307.4778 109.171 307.2123 108.5 307.2123 C 107.829 307.2123 107.171 307.4116 106.5 307.4116 C 105.829 307.4116 105.17 307.2458 104.5 307.2123 C 103.835 307.1788 103.161 307.1461 102.5 307.2123 C 101.819 307.2801 101.122 307.3797 100.5 307.6109 C 99.851 307.8525 99.429 308.4273 98.75 308.6075 C 98.118 308.7757 97.416 308.6075 96.75 308.6075 C 96.084 308.6075 95.411 308.6737 94.75 308.6075 C 94.069 308.5397 93.431 308.2766 92.75 308.2089 C 92.089 308.1427 91.415 308.1754 90.75 308.2089 C 90.08 308.2424 89.42 308.3747 88.75 308.4082 C 88.085 308.4417 87.411 308.342 86.75 308.4082 C 86.069 308.476 85.431 308.739 84.75 308.8068 C 84.089 308.873 83.415 308.7733 82.75 308.8068 C 82.08 308.8403 81.416 308.94 80.75 309.0061 C 80.084 309.0723 79.421 309.2222 78.75 309.2054 C 76.746 309.1552 74.751 308.9065 72.75 308.8068 C 72.085 308.7733 71.415 308.7733 70.75 308.8068 C 70.08 308.8403 69.421 308.9838 68.75 309.0061 C 67.419 309.05 66.081 308.9623 64.75 309.0061 C 64.079 309.0284 63.42 309.172 62.75 309.2054 C 62.085 309.2389 61.415 309.2389 60.75 309.2054 C 60.08 309.172 59.42 309.0396 58.75 309.0061 C 58.085 308.9726 57.415 309.0396 56.75 309.0061 C 56.08 308.9726 55.419 308.8515 54.75 308.8068 C 53.42 308.7183 52.085 308.6075 50.75 308.6075 C 50.079 308.6075 49.41 308.708 48.75 308.8068 C 48.075 308.9081 47.431 309.1377 46.75 309.2054 C 46.089 309.2716 45.416 309.2054 44.75 309.2054 C 42.752 309.2054 40.747 309.156 38.75 309.2054 C 38.079 309.2222 37.42 309.3713 36.75 309.4047 C 36.085 309.4382 35.415 309.4382 34.75 309.4047 C 34.08 309.3713 33.416 309.2716 32.75 309.2054 C 32.084 309.1393 31.42 309.0396 30.75 309.0061 C 30.085 308.9726 29.405 309.1042 28.75 309.0061 C 28.051 308.9017 28.346 308.7438 26.75 308.4082 C 20.367 307.0656 8.928 309.6264 7.35 304.4618 C 1.723 286.0349 9.575 266.2638 8.5 247.2191 C 7.508 229.6843 0.545 212.0435 1 194.2018 Z "/>
  <g id="ID0.15551237482577562">
    <path id="ID0.036129117012023926" fill="#5E3B21" stroke="none" d="M 222.0835 25.1667 C 221.6412 25.1453 221.2317 25.303 220.9277 25.5755 C 220.6237 25.8479 220.4253 26.2351 220.4042 26.6718 C 220.3831 27.1085 220.5433 27.5131 220.8196 27.8135 C 221.0959 28.114 221.4883 28.3104 221.9306 28.3318 C 222.3729 28.3531 222.7824 28.1955 223.0864 27.923 C 223.3904 27.6506 223.5888 27.2633 223.6099 26.8266 C 223.631 26.39 223.4708 25.9854 223.1945 25.6849 C 222.9182 25.3845 222.5257 25.1881 222.0835 25.1667 Z " stroke-width="1.0810728541903714"/>
    <path id="ID0.9171876185573637" fill="#191009" stroke="none" d="M 221.5992 25.9934 C 221.3743 25.9825 221.1667 26.0628 221.0119 26.2016 C 220.857 26.3404 220.7561 26.5366 220.7453 26.7587 C 220.7346 26.9808 220.8162 27.1858 220.9569 27.3389 C 221.0977 27.4919 221.2965 27.5919 221.5215 27.6027 C 221.7464 27.6136 221.954 27.5333 222.1088 27.3945 C 222.2637 27.2557 222.3646 27.0595 222.3754 26.8374 C 222.3861 26.6153 222.3045 26.4103 222.1637 26.2572 C 222.023 26.1042 221.8241 26.0042 221.5992 25.9934 Z " stroke-width="1.0810728541903714"/>
  </g>
  <g id="ID0.6915994533337653">
    <path id="ID0.036129117012023926" fill="#5E3B21" stroke="none" d="M 207.7835 24.7167 C 207.3412 24.6953 206.9317 24.853 206.6277 25.1255 C 206.3237 25.3979 206.1253 25.7851 206.1042 26.2218 C 206.0831 26.6585 206.2433 27.0631 206.5196 27.3635 C 206.7959 27.664 207.1883 27.8604 207.6306 27.8818 C 208.0729 27.9031 208.4824 27.7455 208.7864 27.473 C 209.0904 27.2006 209.2888 26.8133 209.3099 26.3766 C 209.331 25.94 209.1708 25.5354 208.8945 25.2349 C 208.6182 24.9345 208.2257 24.7381 207.7835 24.7167 Z " stroke-width="1.0810728541903714"/>
    <path id="ID0.9171876185573637" fill="#191009" stroke="none" d="M 207.3492 25.4934 C 207.1243 25.4825 206.9167 25.5628 206.7619 25.7016 C 206.607 25.8404 206.5061 26.0366 206.4953 26.2587 C 206.4846 26.4808 206.5662 26.6858 206.7069 26.8389 C 206.8477 26.9919 207.0465 27.0919 207.2715 27.1027 C 207.4964 27.1136 207.704 27.0333 207.8588 26.8945 C 208.0137 26.7557 208.1146 26.5595 208.1254 26.3374 C 208.1361 26.1153 208.0545 25.9103 207.9137 25.7572 C 207.773 25.6042 207.5741 25.5042 207.3492 25.4934 Z " stroke-width="1.0810728541903714"/>
  </g>
  <path id="ID0.1913656061515212" fill="#282828" stroke="none" stroke-linecap="round" d="M 213.901 43.2243 C 215.0889 43.2108 216.3702 42.877 217.5502 43.1478 C 217.9543 43.2447 218.0048 43.796 217.8711 44.1451 C 217.7146 44.5508 217.4342 44.8219 216.7101 45.0666 C 215.9871 45.3114 214.9833 45.4748 213.8736 45.4981 C 212.7638 45.5213 211.754 45.4 211.0214 45.1858 C 210.2877 44.9715 209.9604 44.7192 209.8229 44.3137 C 209.6949 43.9352 209.784 43.3196 210.2494 43.1871 C 211.4163 42.8838 212.685 43.2384 213.901 43.2243 Z " stroke-width="0.8871079612074303"/>
  <path id="ID0.8256730306893587" fill="none" stroke="#675B50" stroke-width="1.098450392529169" stroke-linecap="round" d="M 209.0186 43.256 C 209.0186 43.256 210.3567 42.6338 211.0688 42.7066 C 211.7373 42.7232 212.2168 43.4797 212.9086 43.5078 C 213.7299 43.5409 214.4577 42.8384 215.2769 42.8236 C 216.5936 43.2671 218.1073 43.7169 218.1073 43.7169 "/>
</svg>