<svg xmlns="http://www.w3.org/2000/svg" xmlns:xlink="http://www.w3.org/1999/xlink" version="1.1" width="411.0474406368369" height="62.24443541833105" viewBox="0.6272320207539084 0.4879320320072653 411.0474406368369 62.24443541833105">
  <defs>
    <linearGradient id="grad_1" y2="1" x2="0">
      <stop offset="0" stop-color="#707070" stop-opacity="1"/>
      <stop offset="1" stop-color="#525252" stop-opacity="1"/>
    </linearGradient>
    <linearGradient id="grad_2" y2="1" x2="0">
      <stop offset="0" stop-color="#707070" stop-opacity="1"/>
      <stop offset="1" stop-color="#525252" stop-opacity="1"/>
    </linearGradient>
    <linearGradient id="grad_3" y2="1" x2="0">
      <stop offset="0" stop-color="#707070" stop-opacity="1"/>
      <stop offset="1" stop-color="#525252" stop-opacity="1"/>
    </linearGradient>
    <linearGradient id="grad_4" y2="1" x2="0">
      <stop offset="0" stop-color="#707070" stop-opacity="1"/>
      <stop offset="1" stop-color="#525252" stop-opacity="1"/>
    </linearGradient>
    <linearGradient id="grad_5" y2="1" x2="0">
      <stop offset="0" stop-color="#707070" stop-opacity="1"/>
      <stop offset="1" stop-color="#525252" stop-opacity="1"/>
    </linearGradient>
    <linearGradient id="grad_6" y2="1" x2="0">
      <stop offset="0" stop-color="#316CA8" stop-opacity="1"/>
      <stop offset="1" stop-color="#214C77" stop-opacity="1"/>
    </linearGradient>
    <linearGradient id="grad_7" y2="1" x2="0">
      <stop offset="0" stop-color="#316CA8" stop-opacity="1"/>
      <stop offset="1" stop-color="#214C77" stop-opacity="1"/>
    </linearGradient>
    <linearGradient id="grad_8" y2="1" x2="0">
      <stop offset="0" stop-color="#316CA8" stop-opacity="1"/>
      <stop offset="1" stop-color="#214C77" stop-opacity="1"/>
    </linearGradient>
    <linearGradient id="grad_9" y2="1" x2="0">
      <stop offset="0" stop-color="#316CA8" stop-opacity="1"/>
      <stop offset="1" stop-color="#214C77" stop-opacity="1"/>
    </linearGradient>
    <linearGradient id="grad_10" y2="1" x2="0">
      <stop offset="0" stop-color="#316CA8" stop-opacity="1"/>
      <stop offset="1" stop-color="#214C77" stop-opacity="1"/>
    </linearGradient>
    <linearGradient id="grad_11" y2="1" x2="0">
      <stop offset="0" stop-color="#316CA8" stop-opacity="1"/>
      <stop offset="1" stop-color="#214C77" stop-opacity="1"/>
    </linearGradient>
    <linearGradient id="grad_12" y2="1" x2="0">
      <stop offset="0" stop-color="#316CA8" stop-opacity="1"/>
      <stop offset="1" stop-color="#214C77" stop-opacity="1"/>
    </linearGradient>
    <linearGradient id="grad_13" y2="1" x2="0">
      <stop offset="0" stop-color="#707070" stop-opacity="1"/>
      <stop offset="1" stop-color="#525252" stop-opacity="1"/>
    </linearGradient>
    <linearGradient id="grad_14" y2="1" x2="0">
      <stop offset="0" stop-color="#707070" stop-opacity="1"/>
      <stop offset="1" stop-color="#525252" stop-opacity="1"/>
    </linearGradient>
    <linearGradient id="grad_15" y2="1" x2="0">
      <stop offset="0" stop-color="#707070" stop-opacity="1"/>
      <stop offset="1" stop-color="#525252" stop-opacity="1"/>
    </linearGradient>
    <linearGradient id="grad_16" y2="1" x2="0">
      <stop offset="0" stop-color="#707070" stop-opacity="1"/>
      <stop offset="1" stop-color="#525252" stop-opacity="1"/>
    </linearGradient>
    <linearGradient id="grad_17" y2="1" x2="0">
      <stop offset="0" stop-color="#707070" stop-opacity="1"/>
      <stop offset="1" stop-color="#525252" stop-opacity="1"/>
    </linearGradient>
    <linearGradient id="grad_18" y2="1" x2="0">
      <stop offset="0" stop-color="#707070" stop-opacity="1"/>
      <stop offset="1" stop-color="#525252" stop-opacity="1"/>
    </linearGradient>
    <linearGradient id="grad_19" y2="1" x2="0">
      <stop offset="0" stop-color="#707070" stop-opacity="1"/>
      <stop offset="1" stop-color="#525252" stop-opacity="1"/>
    </linearGradient>
    <linearGradient id="grad_20" y2="1" x2="0">
      <stop offset="0" stop-color="#707070" stop-opacity="1"/>
      <stop offset="1" stop-color="#525252" stop-opacity="1"/>
    </linearGradient>
    <linearGradient id="grad_21" y2="1" x2="0">
      <stop offset="0" stop-color="#707070" stop-opacity="1"/>
      <stop offset="1" stop-color="#525252" stop-opacity="1"/>
    </linearGradient>
  <linearGradient id="grad_1-.8068181872367859,0,0,0.8068181872367859,-65.75,-174.9" y2="34.0659" x2="21.3057" x1="21.3057" y1="19.2205" gradientUnits="userSpaceOnUse">
      <stop offset="0" stop-color="#707070" stop-opacity="1"/>
      <stop offset="1" stop-color="#525252" stop-opacity="1"/>
    </linearGradient><linearGradient id="grad_2-.8068181872367859,0,0,0.8068181872367859,-65.75,-174.9" y2="33.9852" x2="35.3443" x1="35.3443" y1="19.2205" gradientUnits="userSpaceOnUse">
      <stop offset="0" stop-color="#707070" stop-opacity="1"/>
      <stop offset="1" stop-color="#525252" stop-opacity="1"/>
    </linearGradient><linearGradient id="grad_3-.8068181872367859,0,0,0.8068181872367859,-65.75,-174.9" y2="33.9852" x2="50.5932" x1="50.5932" y1="19.2205" gradientUnits="userSpaceOnUse">
      <stop offset="0" stop-color="#707070" stop-opacity="1"/>
      <stop offset="1" stop-color="#525252" stop-opacity="1"/>
    </linearGradient><linearGradient id="grad_4-.8068181872367859,0,0,0.8068181872367859,-65.75,-174.9" y2="34.2273" x2="63.6636" x1="63.6636" y1="18.9784" gradientUnits="userSpaceOnUse">
      <stop offset="0" stop-color="#707070" stop-opacity="1"/>
      <stop offset="1" stop-color="#525252" stop-opacity="1"/>
    </linearGradient><linearGradient id="grad_5-.8068181872367859,0,0,0.8068181872367859,-65.75,-174.9" y2="34.2273" x2="77.1375" x1="77.1375" y1="18.9784" gradientUnits="userSpaceOnUse">
      <stop offset="0" stop-color="#707070" stop-opacity="1"/>
      <stop offset="1" stop-color="#525252" stop-opacity="1"/>
    </linearGradient><linearGradient id="grad_6-.8068181872367859,0,0,0.8068181872367859,-65.75,-174.9" y2="34.2273" x2="98.0341" x1="98.0341" y1="16.4773" gradientUnits="userSpaceOnUse">
      <stop offset="0" stop-color="#316CA8" stop-opacity="1"/>
      <stop offset="1" stop-color="#214C77" stop-opacity="1"/>
    </linearGradient><linearGradient id="grad_7-.8068181872367859,0,0,0.8068181872367859,-65.75,-174.9" y2="33.9852" x2="117.2364" x1="117.2364" y1="16.4773" gradientUnits="userSpaceOnUse">
      <stop offset="0" stop-color="#316CA8" stop-opacity="1"/>
      <stop offset="1" stop-color="#214C77" stop-opacity="1"/>
    </linearGradient><linearGradient id="grad_8-.8068181872367859,0,0,0.8068181872367859,-65.75,-174.9" y2="34.0659" x2="139.8273" x1="139.8273" y1="16.3966" gradientUnits="userSpaceOnUse">
      <stop offset="0" stop-color="#316CA8" stop-opacity="1"/>
      <stop offset="1" stop-color="#214C77" stop-opacity="1"/>
    </linearGradient><linearGradient id="grad_9-.8068181872367859,0,0,0.8068181872367859,-65.75,-174.9" y2="34.0659" x2="161.0466" x1="161.0466" y1="16.4773" gradientUnits="userSpaceOnUse">
      <stop offset="0" stop-color="#316CA8" stop-opacity="1"/>
      <stop offset="1" stop-color="#214C77" stop-opacity="1"/>
    </linearGradient><linearGradient id="grad_10-.8068181872367859,0,0,0.8068181872367859,-65.75,-174.9" y2="34.0659" x2="179.1193" x1="179.1193" y1="16.4773" gradientUnits="userSpaceOnUse">
      <stop offset="0" stop-color="#316CA8" stop-opacity="1"/>
      <stop offset="1" stop-color="#214C77" stop-opacity="1"/>
    </linearGradient><linearGradient id="grad_11-.8068181872367859,0,0,0.8068181872367859,-65.75,-174.9" y2="34.3079" x2="196.6273" x1="196.6273" y1="16.0739" gradientUnits="userSpaceOnUse">
      <stop offset="0" stop-color="#316CA8" stop-opacity="1"/>
      <stop offset="1" stop-color="#214C77" stop-opacity="1"/>
    </linearGradient><linearGradient id="grad_12-.8068181872367859,0,0,0.8068181872367859,-65.75,-174.9" y2="34.1466" x2="217.2818" x1="217.2818" y1="16.3966" gradientUnits="userSpaceOnUse">
      <stop offset="0" stop-color="#316CA8" stop-opacity="1"/>
      <stop offset="1" stop-color="#214C77" stop-opacity="1"/>
    </linearGradient><linearGradient id="grad_13-.8068181872367859,0,0,0.8068181872367859,-65.75,-174.9" y2="34.1466" x2="252.6205" x1="252.6205" y1="19.7852" gradientUnits="userSpaceOnUse">
      <stop offset="0" stop-color="#707070" stop-opacity="1"/>
      <stop offset="1" stop-color="#525252" stop-opacity="1"/>
    </linearGradient><linearGradient id="grad_14-.8068181872367859,0,0,0.8068181872367859,-65.75,-174.9" y2="34.2273" x2="261.6568" x1="261.6568" y1="22.4477" gradientUnits="userSpaceOnUse">
      <stop offset="0" stop-color="#707070" stop-opacity="1"/>
      <stop offset="1" stop-color="#525252" stop-opacity="1"/>
    </linearGradient><linearGradient id="grad_15-.8068181872367859,0,0,0.8068181872367859,-65.75,-174.9" y2="34.2273" x2="282.2307" x1="282.2307" y1="18.9784" gradientUnits="userSpaceOnUse">
      <stop offset="0" stop-color="#707070" stop-opacity="1"/>
      <stop offset="1" stop-color="#525252" stop-opacity="1"/>
    </linearGradient><linearGradient id="grad_16-.8068181872367859,0,0,0.8068181872367859,-65.75,-174.9" y2="34.2273" x2="297.8023" x1="297.8023" y1="18.9784" gradientUnits="userSpaceOnUse">
      <stop offset="0" stop-color="#707070" stop-opacity="1"/>
      <stop offset="1" stop-color="#525252" stop-opacity="1"/>
    </linearGradient><linearGradient id="grad_17-.8068181872367859,0,0,0.8068181872367859,-65.75,-174.9" y2="34.2273" x2="316.117" x1="316.117" y1="19.2205" gradientUnits="userSpaceOnUse">
      <stop offset="0" stop-color="#707070" stop-opacity="1"/>
      <stop offset="1" stop-color="#525252" stop-opacity="1"/>
    </linearGradient><linearGradient id="grad_18-.8068181872367859,0,0,0.8068181872367859,-65.75,-174.9" y2="33.9852" x2="332.2534" x1="332.2534" y1="19.2205" gradientUnits="userSpaceOnUse">
      <stop offset="0" stop-color="#707070" stop-opacity="1"/>
      <stop offset="1" stop-color="#525252" stop-opacity="1"/>
    </linearGradient><linearGradient id="grad_19-.8068181872367859,0,0,0.8068181872367859,-65.75,-174.9" y2="33.9852" x2="347.825" x1="347.825" y1="19.2205" gradientUnits="userSpaceOnUse">
      <stop offset="0" stop-color="#707070" stop-opacity="1"/>
      <stop offset="1" stop-color="#525252" stop-opacity="1"/>
    </linearGradient><linearGradient id="grad_20-.8068181872367859,0,0,0.8068181872367859,-65.75,-174.9" y2="33.9852" x2="362.5898" x1="362.5898" y1="19.2205" gradientUnits="userSpaceOnUse">
      <stop offset="0" stop-color="#707070" stop-opacity="1"/>
      <stop offset="1" stop-color="#525252" stop-opacity="1"/>
    </linearGradient><linearGradient id="grad_21-.8068181872367859,0,0,0.8068181872367859,-65.75,-174.9" y2="33.9852" x2="376.6284" x1="376.6284" y1="19.2205" gradientUnits="userSpaceOnUse">
      <stop offset="0" stop-color="#707070" stop-opacity="1"/>
      <stop offset="1" stop-color="#525252" stop-opacity="1"/>
    </linearGradient></defs>
  <!-- Exported by Scratch - http://scratch.mit.edu/ -->
  <path id="ID0.14518280653283" fill="#1F1F1F" stroke="#FFFFFF" stroke-width="2.18513594933691" d="M 1.7198 58.4144 L 394.6545 61.6398 L 400.8218 54.9666 L 400.8218 37.7273 L 410.5821 1.5805 L 345.0483 5.4732 L 301.5021 1.5805 L 279.9972 4.9171 L 218.0565 5.4732 L 125.6012 4.7503 L 70.5786 8.643 L 76.9604 4.4722 L 52.3986 7.5308 L 46.7676 5.8625 L 2.0416 8.365 L 3.0069 35.058 L 3.7577 43.1215 L 2.4706 52.8534 L 1.7198 58.4144 Z "/>
  <g id="ID0.23804462980479002">
    <g id="ID0.2505031190812588">
      <path id="ID0.10764731373637915" fill="url(#grad_1-.8068181872367859,0,0,0.8068181872367859,-65.75,-174.9)" d="M 21.3057 19.2205 L 27.3568 19.2205 C 28.2443 19.2205 29.0511 19.3818 29.6966 19.6239 C 30.4227 19.8659 30.9875 20.1886 31.4716 20.6727 C 31.9557 21.1568 32.3591 21.6409 32.6011 22.2864 C 32.8432 22.9318 33.0045 23.5773 33.0045 24.3841 L 33.0045 24.4648 C 33.0045 25.3523 32.8432 26.0784 32.5205 26.7239 C 32.1977 27.3693 31.7943 27.9341 31.2295 28.3375 C 30.6648 28.7409 30.0193 29.0636 29.3739 29.3057 C 28.6477 29.5477 27.8409 29.6284 27.0341 29.6284 L 24.533 29.6284 L 24.533 34.0659 L 21.3057 34.0659 L 21.3057 19.2205 Z M 27.1148 26.6432 C 27.9216 26.6432 28.567 26.4011 28.9705 25.9977 C 29.4545 25.5943 29.6159 25.0295 29.6159 24.3841 L 29.6159 24.3841 C 29.6159 23.658 29.3739 23.0932 28.8898 22.6898 C 28.4057 22.2864 27.7602 22.125 26.9534 22.125 L 24.4523 22.125 L 24.4523 26.6432 L 27.1148 26.6432 Z " stroke-width="0.8068181872367859"/>
      <path id="ID0.40384032716974616" fill="url(#grad_2-.8068181872367859,0,0,0.8068181872367859,-65.75,-174.9)" d="M 35.3443 19.2205 L 42.1216 19.2205 C 43.9773 19.2205 45.4295 19.7045 46.3977 20.7534 C 47.2045 21.5602 47.6886 22.6898 47.6886 24.142 L 47.6886 24.2227 C 47.6886 25.433 47.3659 26.4011 46.8011 27.1273 C 46.2364 27.8534 45.4295 28.4182 44.542 28.7409 L 48.1727 33.9852 L 44.3807 33.9852 L 41.2341 29.3057 L 41.1534 29.3057 L 38.6523 29.3057 L 38.6523 33.9852 L 35.425 33.9852 L 35.425 19.2205 Z M 41.8795 26.4011 C 42.6864 26.4011 43.3318 26.2398 43.7352 25.8364 C 44.1386 25.433 44.3807 24.9489 44.3807 24.3034 L 44.3807 24.2227 C 44.3807 23.4966 44.1386 23.0125 43.7352 22.6091 C 43.2511 22.2864 42.6864 22.0443 41.8795 22.0443 L 38.6523 22.0443 L 38.6523 26.2398 L 41.8795 26.2398 Z " stroke-width="0.8068181872367859"/>
      <path id="ID0.6649862513877451" fill="url(#grad_3-.8068181872367859,0,0,0.8068181872367859,-65.75,-174.9)" d="M 50.5932 19.2205 L 61.7273 19.2205 L 61.7273 22.125 L 53.8205 22.125 L 53.8205 25.1102 L 60.7591 25.1102 L 60.7591 28.0148 L 53.8205 28.0148 L 53.8205 31.0807 L 61.808 31.0807 L 61.808 33.9852 L 50.5932 33.9852 L 50.5932 19.2205 Z " stroke-width="0.8068181872367859"/>
      <path id="ID0.2819472593255341" fill="url(#grad_4-.8068181872367859,0,0,0.8068181872367859,-65.75,-174.9)" d="M 69.9568 34.2273 C 68.8273 34.2273 67.6977 34.0659 66.6489 33.6625 C 65.6 33.2591 64.5511 32.6943 63.6636 31.8875 L 65.6 29.6284 C 66.2455 30.1932 66.9716 30.5966 67.6977 30.9193 C 68.4239 31.242 69.15 31.4034 70.0375 31.4034 C 70.683 31.4034 71.2477 31.242 71.5705 31 C 71.9739 30.758 72.1352 30.4352 72.1352 29.9511 L 72.1352 29.8705 C 72.1352 29.6284 72.1352 29.467 72.0545 29.3057 C 71.9739 29.1443 71.8125 28.983 71.6511 28.8216 C 71.4091 28.6602 71.167 28.5795 70.7636 28.4182 C 70.3602 28.2568 69.8761 28.0955 69.2307 28.0148 C 68.5045 27.8534 67.7784 27.6114 67.2136 27.3693 C 66.5682 27.1273 66.0841 26.8852 65.6807 26.5625 C 65.2773 26.2398 64.9545 25.8364 64.7125 25.3523 C 64.4705 24.8682 64.3898 24.2227 64.3898 23.4966 L 64.3898 23.4159 C 64.3898 22.7705 64.5511 22.125 64.7932 21.5602 C 65.0352 20.9955 65.358 20.592 65.842 20.1886 C 66.3261 19.7852 66.8102 19.4625 67.4557 19.3011 C 68.1011 19.0591 68.7466 18.9784 69.5534 18.9784 C 70.6023 18.9784 71.6511 19.1398 72.5386 19.4625 C 73.4261 19.7852 74.3136 20.2693 75.0398 20.8341 L 73.3455 23.2545 C 72.7 22.7705 72.0545 22.4477 71.4091 22.2057 C 70.7636 21.9636 70.1182 21.8023 69.5534 21.8023 C 68.9886 21.8023 68.4239 21.9636 68.1011 22.2057 C 67.7784 22.4477 67.617 22.7705 67.617 23.0932 L 67.617 23.1739 C 67.617 23.4159 67.6977 23.658 67.7784 23.8193 C 67.8591 23.9807 68.0205 24.142 68.2625 24.3034 C 68.5045 24.4648 68.8273 24.5455 69.2307 24.7068 C 69.6341 24.8682 70.1989 24.9489 70.8443 25.1102 C 71.5705 25.2716 72.2159 25.5136 72.8614 25.7557 C 73.5068 25.9977 73.9102 26.3205 74.3136 26.6432 C 74.717 26.9659 75.0398 27.3693 75.2011 27.8534 C 75.3625 28.3375 75.5239 28.9023 75.5239 29.5477 L 75.5239 29.6284 C 75.5239 30.3545 75.3625 31 75.1205 31.5648 C 74.8784 32.1295 74.475 32.6136 73.9909 33.017 C 73.5068 33.4205 72.942 33.6625 72.2966 33.9045 C 71.4898 34.0659 70.7636 34.2273 69.9568 34.2273 Z " stroke-width="0.8068181872367859"/>
      <path id="ID0.7931977682746947" fill="url(#grad_5-.8068181872367859,0,0,0.8068181872367859,-65.75,-174.9)" d="M 83.4307 34.2273 C 82.3011 34.2273 81.1716 34.0659 80.1227 33.6625 C 79.0739 33.2591 78.025 32.6943 77.1375 31.8875 L 79.0739 29.6284 C 79.7193 30.1932 80.4455 30.5966 81.1716 30.9193 C 81.8977 31.242 82.6239 31.4034 83.5114 31.4034 C 84.1568 31.4034 84.7216 31.242 85.0443 31 C 85.4477 30.758 85.6091 30.4352 85.6091 29.9511 L 85.6091 29.8705 C 85.6091 29.6284 85.6091 29.467 85.5284 29.3057 C 85.4477 29.1443 85.2864 28.983 85.125 28.8216 C 84.883 28.6602 84.6409 28.5795 84.2375 28.4182 C 83.8341 28.2568 83.35 28.0955 82.7045 28.0148 C 81.9784 27.8534 81.2523 27.6114 80.6875 27.3693 C 80.042 27.1273 79.558 26.8852 79.1545 26.5625 C 78.7511 26.2398 78.4284 25.8364 78.1864 25.3523 C 77.9443 24.8682 77.8636 24.2227 77.8636 23.4966 L 77.8636 23.4159 C 77.8636 22.7705 78.025 22.125 78.267 21.5602 C 78.5091 20.9955 78.8318 20.592 79.3159 20.1886 C 79.8 19.7852 80.2841 19.4625 80.9295 19.3011 C 81.575 19.0591 82.2205 18.9784 83.0273 18.9784 C 84.0761 18.9784 85.125 19.1398 86.0125 19.4625 C 86.9 19.7852 87.7875 20.2693 88.5136 20.8341 L 86.8193 23.2545 C 86.1739 22.7705 85.5284 22.4477 84.883 22.2057 C 84.2375 21.9636 83.592 21.8023 83.0273 21.8023 C 82.4625 21.8023 81.8977 21.9636 81.575 22.2057 C 81.2523 22.4477 81.0909 22.7705 81.0909 23.0932 L 81.0909 23.1739 C 81.0909 23.4159 81.1716 23.658 81.2523 23.8193 C 81.333 23.9807 81.4943 24.142 81.7364 24.3034 C 81.9784 24.4648 82.3011 24.5455 82.7045 24.7068 C 83.108 24.8682 83.6727 24.9489 84.3182 25.1102 C 85.0443 25.2716 85.6898 25.5136 86.3352 25.7557 C 86.9807 25.9977 87.3841 26.3205 87.7875 26.6432 C 88.1909 26.9659 88.5136 27.3693 88.675 27.8534 C 88.8364 28.3375 88.9977 28.9023 88.9977 29.5477 L 88.9977 29.6284 C 88.9977 30.3545 88.8364 31 88.5943 31.5648 C 88.3523 32.1295 87.9489 32.6136 87.4648 33.017 C 86.9807 33.4205 86.4159 33.6625 85.7705 33.9045 C 84.9636 34.0659 84.2375 34.2273 83.4307 34.2273 Z " stroke-width="0.8068181872367859"/>
      <path id="ID0.0858409465290606" fill="url(#grad_6-.8068181872367859,0,0,0.8068181872367859,-65.75,-174.9)" d="M 105.6182 34.2273 C 103.2784 34.2273 101.4227 33.5818 100.0511 32.2909 C 98.6795 31 98.0341 29.0636 98.0341 26.4818 L 98.0341 16.4773 L 101.9068 16.4773 L 101.9068 26.4011 C 101.9068 27.8534 102.2295 28.9023 102.875 29.6284 C 103.5205 30.3545 104.4886 30.6773 105.6182 30.6773 C 106.7477 30.6773 107.7159 30.3545 108.3614 29.6284 C 109.0068 28.9023 109.3295 27.8534 109.3295 26.4818 L 109.3295 16.4773 L 113.2023 16.4773 L 113.2023 26.3205 C 113.2023 27.692 113.0409 28.8216 112.6375 29.7898 C 112.3148 30.758 111.75 31.5648 111.1045 32.2909 C 110.4591 32.9364 109.6523 33.4205 108.6841 33.7432 C 107.8773 34.0659 106.8284 34.2273 105.6182 34.2273 Z " stroke-width="0.8068181872367859"/>
      <path id="ID0.7744548544287682" fill="url(#grad_7-.8068181872367859,0,0,0.8068181872367859,-65.75,-174.9)" d="M 117.2364 16.4773 L 124.417 16.4773 C 125.4659 16.4773 126.4341 16.6386 127.2409 16.8807 C 128.0477 17.2034 128.7739 17.6068 129.3386 18.0909 C 129.9034 18.6557 130.3875 19.3011 130.6295 20.0273 C 130.9523 20.7534 131.1136 21.5602 131.1136 22.5284 L 131.1136 22.6091 C 131.1136 23.658 130.9523 24.5455 130.5489 25.2716 C 130.1455 26.0784 129.6614 26.6432 129.0159 27.208 C 128.3705 27.692 127.6443 28.0955 126.7568 28.3375 C 125.8693 28.5795 124.9818 28.7409 124.0136 28.7409 L 121.1091 28.7409 L 121.1091 33.9852 L 117.2364 33.9852 L 117.2364 16.4773 Z M 124.175 25.2716 C 125.1432 25.2716 125.8693 25.0295 126.4341 24.5455 C 126.9989 24.0614 127.2409 23.4159 127.2409 22.6898 L 127.2409 22.6091 C 127.2409 21.7216 126.9989 21.0761 126.4341 20.6727 C 125.8693 20.1886 125.1432 20.0273 124.175 20.0273 L 121.1898 20.0273 L 121.1898 25.3523 L 124.175 25.3523 Z " stroke-width="0.8068181872367859"/>
      <path id="ID0.8905445779673755" fill="url(#grad_8-.8068181872367859,0,0,0.8068181872367859,-65.75,-174.9)" d="M 147.4114 16.3966 L 150.9614 16.3966 L 158.4648 34.0659 L 154.4307 34.0659 L 152.817 30.1125 L 145.3943 30.1125 L 143.7807 34.0659 L 139.8273 34.0659 L 147.4114 16.3966 Z M 151.5261 26.6432 L 149.1864 20.9955 L 146.8466 26.6432 L 151.5261 26.6432 Z " stroke-width="0.8068181872367859"/>
      <path id="ID0.9707796024158597" fill="url(#grad_9-.8068181872367859,0,0,0.8068181872367859,-65.75,-174.9)" d="M 161.208 16.4773 L 169.1955 16.4773 C 171.3739 16.4773 173.1489 17.042 174.2784 18.2523 C 175.2466 19.2205 175.8114 20.592 175.8114 22.2864 L 175.8114 22.367 C 175.8114 23.8193 175.4886 24.9489 174.7625 25.8364 C 174.0364 26.7239 173.1489 27.3693 172.0193 27.7727 L 176.2955 34.0659 L 171.7773 34.0659 L 167.9852 28.4989 L 167.9045 28.4989 L 164.9193 28.4989 L 164.9193 34.0659 L 161.0466 34.0659 L 161.0466 16.4773 Z M 168.9534 24.9489 C 169.9216 24.9489 170.6477 24.7068 171.1318 24.3034 C 171.6159 23.8193 171.858 23.2545 171.858 22.5284 L 171.858 22.4477 C 171.858 21.6409 171.6159 20.9955 171.0511 20.592 C 170.4864 20.1886 169.7602 19.9466 168.792 19.9466 L 165 19.9466 L 165 24.9489 L 168.9534 24.9489 Z " stroke-width="0.8068181872367859"/>
      <path id="ID0.7283784649334848" fill="url(#grad_10-.8068181872367859,0,0,0.8068181872367859,-65.75,-174.9)" d="M 179.2807 16.4773 L 187.2682 16.4773 C 189.4466 16.4773 191.2216 17.042 192.3511 18.2523 C 193.3193 19.2205 193.8841 20.592 193.8841 22.2864 L 193.8841 22.367 C 193.8841 23.8193 193.5614 24.9489 192.8352 25.8364 C 192.1091 26.7239 191.2216 27.3693 190.092 27.7727 L 194.3682 34.0659 L 189.85 34.0659 L 186.058 28.4989 L 185.9773 28.4989 L 182.992 28.4989 L 182.992 34.0659 L 179.1193 34.0659 L 179.1193 16.4773 Z M 187.0261 24.9489 C 187.9943 24.9489 188.7205 24.7068 189.2045 24.3034 C 189.6886 23.8193 189.9307 23.2545 189.9307 22.5284 L 189.9307 22.4477 C 189.9307 21.6409 189.6886 20.9955 189.1239 20.592 C 188.5591 20.1886 187.833 19.9466 186.8648 19.9466 L 183.0727 19.9466 L 183.0727 24.9489 L 187.0261 24.9489 Z " stroke-width="0.8068181872367859"/>
      <path id="ID0.7810333110392094" fill="url(#grad_11-.8068181872367859,0,0,0.8068181872367859,-65.75,-174.9)" d="M 205.9057 34.308 C 204.5341 34.308 203.3239 34.0659 202.1943 33.5818 C 201.0648 33.0977 200.0966 32.4523 199.2898 31.6455 C 198.483 30.8386 197.8375 29.8705 197.3534 28.8216 C 196.8693 27.692 196.6273 26.5625 196.6273 25.2716 L 196.6273 25.1909 C 196.6273 23.9 196.8693 22.7705 197.3534 21.6409 C 197.8375 20.5114 198.483 19.6239 199.2898 18.7364 C 200.0966 17.9295 201.0648 17.2841 202.275 16.8 C 203.4852 16.3159 204.6955 16.0739 205.9864 16.0739 C 207.2773 16.0739 208.5682 16.3159 209.6977 16.8 C 210.8273 17.2841 211.7955 17.9295 212.6023 18.7364 C 213.4091 19.5432 214.0545 20.5114 214.5386 21.5602 C 215.0227 22.6091 215.2648 23.8193 215.2648 25.1102 L 215.2648 25.1909 C 215.2648 26.4011 215.0227 27.6114 214.5386 28.7409 C 214.0545 29.8705 213.4091 30.758 212.6023 31.6455 C 211.7955 32.533 210.8273 33.0977 209.617 33.5818 C 208.4875 34.0659 207.1966 34.308 205.9057 34.308 Z M 205.9057 30.758 C 206.7125 30.758 207.358 30.5966 208.0034 30.3545 C 208.6489 30.0318 209.2136 29.7091 209.6977 29.1443 C 210.1818 28.6602 210.5045 28.0955 210.7466 27.3693 C 210.9886 26.6432 211.15 25.9977 211.15 25.2716 L 211.15 25.1909 C 211.15 24.4648 210.9886 23.7386 210.7466 23.0932 C 210.5045 22.4477 210.1011 21.8023 209.617 21.3182 C 209.133 20.8341 208.5682 20.4307 207.9227 20.108 C 207.2773 19.7852 206.5511 19.7045 205.825 19.7045 C 205.0182 19.7045 204.292 19.8659 203.6466 20.108 C 203.0011 20.35 202.4364 20.7534 202.033 21.3182 C 201.5489 21.8023 201.2261 22.367 200.9841 23.0932 C 200.742 23.8193 200.5807 24.4648 200.5807 25.1909 L 200.5807 25.2716 C 200.5807 25.9977 200.742 26.7239 200.9841 27.3693 C 201.2261 28.0148 201.6295 28.5795 202.1136 29.1443 C 202.5977 29.7091 203.1625 30.0318 203.808 30.3545 C 204.4534 30.5966 205.0989 30.758 205.9057 30.758 Z " stroke-width="0.8068181872367859"/>
      <path id="ID0.9946169527247548" fill="url(#grad_12-.8068181872367859,0,0,0.8068181872367859,-65.75,-174.9)" d="M 217.2818 16.4773 L 221.3966 16.4773 L 225.0273 28.3375 L 228.9807 16.3966 L 232.2886 16.3966 L 236.242 28.3375 L 239.8727 16.4773 L 243.9068 16.4773 L 237.9364 34.1466 L 234.5477 34.1466 L 230.5943 22.6898 L 226.6409 34.1466 L 223.2523 34.1466 L 217.2818 16.4773 Z " stroke-width="0.8068181872367859"/>
      <path id="ID0.7048223968595266" fill="url(#grad_13-.8068181872367859,0,0,0.8068181872367859,-65.75,-174.9)" d="M 257.3 34.1466 C 256.8159 34.1466 256.3318 34.0659 255.9284 33.9852 C 255.525 33.9045 255.2023 33.6625 254.8795 33.4205 C 254.5568 33.1784 254.3955 32.775 254.2341 32.3716 C 254.0727 31.9682 253.992 31.4034 253.992 30.758 L 253.992 25.433 L 252.6205 25.433 L 252.6205 22.6898 L 253.992 22.6898 L 253.992 19.7852 L 257.2193 19.7852 L 257.2193 22.6898 L 259.8818 22.6898 L 259.8818 25.433 L 257.2193 25.433 L 257.2193 30.2739 C 257.2193 31 257.542 31.4034 258.2682 31.4034 C 258.833 31.4034 259.317 31.242 259.8818 31 L 259.8818 33.5818 C 259.5591 33.7432 259.1557 33.9045 258.7523 34.0659 C 258.3489 34.1466 257.8648 34.1466 257.3 34.1466 Z " stroke-width="0.8068181872367859"/>
      <path id="ID0.43550114007666707" fill="url(#grad_14-.8068181872367859,0,0,0.8068181872367859,-65.75,-174.9)" d="M 267.7886 34.2273 C 266.9011 34.2273 266.0943 34.0659 265.3682 33.7432 C 264.642 33.4205 263.9966 33.017 263.4318 32.533 C 262.867 31.9682 262.4636 31.4034 262.1409 30.6773 C 261.8182 29.9511 261.6568 29.225 261.6568 28.4182 L 261.6568 28.3375 C 261.6568 27.5307 261.8182 26.7239 262.1409 26.0784 C 262.4636 25.3523 262.867 24.7875 263.4318 24.2227 C 263.9966 23.658 264.642 23.2545 265.3682 22.9318 C 266.0943 22.6091 266.9011 22.4477 267.7886 22.4477 C 268.6761 22.4477 269.483 22.6091 270.2091 22.9318 C 270.9352 23.2545 271.5807 23.658 272.1455 24.142 C 272.7102 24.7068 273.1136 25.2716 273.4364 25.9977 C 273.7591 26.7239 273.9205 27.45 273.9205 28.2568 L 273.9205 28.3375 C 273.9205 29.1443 273.7591 29.9511 273.4364 30.5966 C 273.1136 31.3227 272.7102 31.8875 272.1455 32.4523 C 271.5807 33.017 270.9352 33.4205 270.2091 33.7432 C 269.483 34.0659 268.6761 34.2273 267.7886 34.2273 Z M 267.8693 31.4841 C 268.3534 31.4841 268.7568 31.4034 269.0795 31.242 C 269.4023 31.0807 269.725 30.8386 269.967 30.5966 C 270.2091 30.3545 270.4511 29.9511 270.5318 29.6284 C 270.6932 29.225 270.6932 28.8216 270.6932 28.4182 L 270.6932 28.3375 C 270.6932 27.9341 270.6125 27.5307 270.4511 27.1273 C 270.2898 26.7239 270.1284 26.4011 269.8057 26.1591 C 269.5636 25.8364 269.2409 25.675 268.8375 25.5136 C 268.4341 25.3523 268.1114 25.2716 267.6273 25.2716 C 267.1432 25.2716 266.7398 25.3523 266.417 25.5136 C 266.0943 25.675 265.7716 25.917 265.5295 26.1591 C 265.2875 26.4011 265.0455 26.8045 264.9648 27.1273 C 264.8034 27.5307 264.8034 27.9341 264.8034 28.3375 L 264.8034 28.4182 C 264.8034 28.8216 264.8841 29.225 265.0455 29.6284 C 265.2068 30.0318 265.3682 30.3545 265.6909 30.5966 C 265.933 30.9193 266.2557 31.0807 266.6591 31.242 C 266.9818 31.4034 267.3852 31.4841 267.8693 31.4841 Z " stroke-width="0.8068181872367859"/>
      <path id="ID0.5045367493294179" fill="url(#grad_15-.8068181872367859,0,0,0.8068181872367859,-65.75,-174.9)" d="M 289.8148 34.2273 C 288.7659 34.2273 287.717 34.0659 286.8295 33.6625 C 285.942 33.2591 285.1352 32.6943 284.4091 32.0489 C 283.7636 31.4034 283.1989 30.5966 282.7955 29.6284 C 282.392 28.7409 282.2307 27.692 282.2307 26.6432 L 282.2307 26.5625 C 282.2307 25.5136 282.392 24.5455 282.7955 23.5773 C 283.1989 22.6898 283.683 21.883 284.4091 21.1568 C 285.0545 20.4307 285.8614 19.9466 286.8295 19.5432 C 287.7977 19.1398 288.8466 18.9784 289.9761 18.9784 C 290.7023 18.9784 291.267 19.0591 291.8318 19.1398 C 292.3966 19.2205 292.8807 19.3818 293.3648 19.6239 C 293.8489 19.7852 294.2523 20.0273 294.6557 20.35 C 295.0591 20.592 295.3818 20.9148 295.7852 21.2375 L 293.6875 23.658 C 293.1227 23.1739 292.558 22.7705 291.9125 22.4477 C 291.3477 22.125 290.6216 22.0443 289.8955 22.0443 C 289.25 22.0443 288.6852 22.125 288.2011 22.367 C 287.717 22.6091 287.233 22.9318 286.8295 23.3352 C 286.4261 23.7386 286.1841 24.2227 285.942 24.7875 C 285.7 25.3523 285.6193 25.917 285.6193 26.5625 L 285.6193 26.6432 C 285.6193 27.2886 285.7 27.8534 285.942 28.4182 C 286.1841 28.983 286.4261 29.467 286.8295 29.8705 C 287.233 30.2739 287.6364 30.5966 288.2011 30.8386 C 288.7659 31.0807 289.3307 31.242 289.9761 31.242 C 290.783 31.242 291.5091 31.0807 292.0739 30.758 C 292.6386 30.4352 293.2034 30.0318 293.8489 29.467 L 295.9466 31.5648 C 295.5432 31.9682 295.1398 32.3716 294.7364 32.6943 C 294.333 33.017 293.8489 33.2591 293.3648 33.5011 C 292.8807 33.7432 292.3159 33.9045 291.7511 34.0659 C 291.1864 34.1466 290.5409 34.2273 289.8148 34.2273 Z " stroke-width="0.8068181872367859"/>
      <path id="ID0.08131461357697845" fill="url(#grad_16-.8068181872367859,0,0,0.8068181872367859,-65.75,-174.9)" d="M 305.6284 34.2273 C 304.4989 34.2273 303.45 34.0659 302.4818 33.6625 C 301.5136 33.2591 300.7068 32.6943 299.9807 32.0489 C 299.2545 31.4034 298.7705 30.5966 298.367 29.6284 C 297.9636 28.7409 297.8023 27.692 297.8023 26.6432 L 297.8023 26.5625 C 297.8023 25.5136 297.9636 24.5455 298.367 23.5773 C 298.7705 22.6898 299.3352 21.883 299.9807 21.1568 C 300.7068 20.4307 301.5136 19.9466 302.4818 19.5432 C 303.45 19.1398 304.4989 18.9784 305.6284 18.9784 C 306.758 18.9784 307.8068 19.1398 308.775 19.5432 C 309.7432 19.9466 310.55 20.5114 311.2761 21.1568 C 312.0023 21.8023 312.4864 22.6091 312.8898 23.5773 C 313.2932 24.5455 313.4545 25.5136 313.4545 26.5625 L 313.4545 26.6432 C 313.4545 27.692 313.2932 28.6602 312.8898 29.6284 C 312.4864 30.5159 311.9216 31.3227 311.2761 32.0489 C 310.6307 32.775 309.7432 33.2591 308.775 33.6625 C 307.8068 34.0659 306.758 34.2273 305.6284 34.2273 Z M 305.6284 31.242 C 306.2739 31.242 306.8386 31.1614 307.4034 30.9193 C 307.9682 30.6773 308.4523 30.3545 308.775 29.9511 C 309.1784 29.5477 309.5011 29.0636 309.6625 28.4989 C 309.8239 27.9341 309.9852 27.3693 309.9852 26.7239 L 309.9852 26.6432 C 309.9852 25.9977 309.9045 25.433 309.6625 24.8682 C 309.4205 24.3034 309.0977 23.8193 308.775 23.4159 C 308.4523 23.0125 307.8875 22.6898 307.3227 22.4477 C 306.758 22.2057 306.1932 22.0443 305.5477 22.0443 C 304.9023 22.0443 304.2568 22.125 303.7727 22.367 C 303.2886 22.6091 302.8045 22.9318 302.4011 23.3352 C 301.9977 23.7386 301.675 24.2227 301.5136 24.7875 C 301.2716 25.3523 301.1909 25.917 301.1909 26.5625 L 301.1909 26.6432 C 301.1909 27.2886 301.2716 27.8534 301.5136 28.4182 C 301.7557 28.983 302.0784 29.467 302.4011 29.8705 C 302.8045 30.2739 303.2886 30.5966 303.7727 30.8386 C 304.4182 31.1614 304.983 31.242 305.6284 31.242 Z " stroke-width="0.8068181872367859"/>
      <path id="ID0.06341705564409494" fill="url(#grad_17-.8068181872367859,0,0,0.8068181872367859,-65.75,-174.9)" d="M 322.4909 34.2273 C 320.4739 34.2273 318.9409 33.6625 317.8114 32.6136 C 316.6818 31.4841 316.117 29.8705 316.117 27.692 L 316.117 19.3011 L 319.3443 19.3011 L 319.3443 27.6114 C 319.3443 28.8216 319.5864 29.7091 320.1511 30.3545 C 320.7159 31 321.5227 31.242 322.4909 31.242 C 323.4591 31.242 324.2659 30.9193 324.8307 30.3545 C 325.3955 29.7898 325.6375 28.9023 325.6375 27.692 L 325.6375 19.2205 L 328.8648 19.2205 L 328.8648 27.5307 C 328.8648 28.6602 328.7034 29.6284 328.3807 30.4352 C 328.058 31.242 327.6545 31.9682 327.0898 32.533 C 326.525 33.0977 325.8795 33.5011 325.0727 33.7432 C 324.3466 34.0659 323.4591 34.2273 322.4909 34.2273 Z " stroke-width="0.8068181872367859"/>
      <path id="ID0.8540350827388465" fill="url(#grad_18-.8068181872367859,0,0,0.8068181872367859,-65.75,-174.9)" d="M 332.2534 19.2205 L 335.2386 19.2205 L 342.1773 28.3375 L 342.1773 19.2205 L 345.4045 19.2205 L 345.4045 33.9852 L 342.6614 33.9852 L 335.5614 24.6261 L 335.5614 33.9852 L 332.3341 33.9852 L 332.3341 19.2205 Z " stroke-width="0.8068181872367859"/>
      <path id="ID0.8623732663691044" fill="url(#grad_19-.8068181872367859,0,0,0.8068181872367859,-65.75,-174.9)" d="M 352.3432 22.2057 L 347.825 22.2057 L 347.825 19.2205 L 360.008 19.2205 L 360.008 22.2057 L 355.4898 22.2057 L 355.4898 33.9852 L 352.2625 33.9852 L 352.2625 22.2057 Z " stroke-width="0.8068181872367859"/>
      <path id="ID0.5852706567384303" fill="url(#grad_20-.8068181872367859,0,0,0.8068181872367859,-65.75,-174.9)" d="M 362.5898 19.2205 L 373.7239 19.2205 L 373.7239 22.125 L 365.817 22.125 L 365.817 25.1102 L 372.7557 25.1102 L 372.7557 28.0148 L 365.817 28.0148 L 365.817 31.0807 L 373.8045 31.0807 L 373.8045 33.9852 L 362.5898 33.9852 L 362.5898 19.2205 Z " stroke-width="0.8068181872367859"/>
      <path id="ID0.6318860007449985" fill="url(#grad_21-.8068181872367859,0,0,0.8068181872367859,-65.75,-174.9)" d="M 376.6284 19.2205 L 383.4057 19.2205 C 385.2614 19.2205 386.7136 19.7045 387.6818 20.7534 C 388.4886 21.5602 388.9727 22.6898 388.9727 24.142 L 388.9727 24.2227 C 388.9727 25.433 388.65 26.4011 388.0852 27.1273 C 387.5205 27.8534 386.7136 28.4182 385.8261 28.7409 L 389.4568 33.9852 L 385.6648 33.9852 L 382.5182 29.3057 L 382.4375 29.3057 L 379.9364 29.3057 L 379.9364 33.9852 L 376.7091 33.9852 L 376.7091 19.2205 Z M 383.1636 26.4011 C 383.9705 26.4011 384.6159 26.2398 385.0193 25.8364 C 385.4227 25.433 385.6648 24.9489 385.6648 24.3034 L 385.6648 24.2227 C 385.6648 23.4966 385.4227 23.0125 385.0193 22.6091 C 384.5352 22.2864 383.9705 22.0443 383.1636 22.0443 L 379.9364 22.0443 L 379.9364 26.2398 L 383.1636 26.2398 Z " stroke-width="0.8068181872367859"/>
    </g>
    <g id="ID0.3949502659961581">
      <path id="ID0.8589271912351251" fill="#A5F3FF" d="M 28.083 40.9239 L 32.9239 40.9239 C 34.1341 40.9239 35.0216 41.2466 35.667 41.8114 C 36.1511 42.2955 36.3932 42.8602 36.3932 43.5864 L 36.3932 43.5864 C 36.3932 43.9091 36.3932 44.1511 36.3125 44.3932 C 36.2318 44.6352 36.1511 44.7966 35.9898 45.0386 C 35.8284 45.2807 35.7477 45.3614 35.5864 45.5227 C 35.425 45.6841 35.2636 45.7648 35.0216 45.8455 C 35.5864 46.0875 36.0705 46.4102 36.4739 46.8136 C 36.7966 47.217 36.958 47.7818 36.958 48.4273 L 36.958 48.4273 C 36.958 48.9114 36.8773 49.3148 36.7159 49.7182 C 36.5545 50.1216 36.2318 50.3636 35.9091 50.6057 C 35.5864 50.8477 35.183 51.0091 34.6989 51.1705 C 34.2148 51.2511 33.65 51.3318 33.0852 51.3318 L 28.083 51.3318 L 28.083 40.9239 Z M 32.4398 45.1193 C 32.9239 45.1193 33.3273 45.0386 33.65 44.8773 C 33.9727 44.7159 34.1341 44.3932 34.1341 44.0705 L 34.1341 44.0705 C 34.1341 43.7477 33.9727 43.425 33.7307 43.2636 C 33.4886 43.1023 33.0852 43.0216 32.6011 43.0216 L 30.2614 43.0216 L 30.2614 45.2 L 32.4398 45.2 Z M 33.0045 49.3955 C 33.4886 49.3955 33.892 49.3148 34.2148 49.1534 C 34.5375 48.992 34.6182 48.6693 34.6182 48.2659 L 34.6182 48.2659 C 34.6182 47.9432 34.4568 47.6205 34.2148 47.4591 C 33.9727 47.217 33.4886 47.1364 32.9239 47.1364 L 30.2614 47.1364 L 30.2614 49.4761 L 33.0045 49.4761 Z " stroke-width="0.8068181872367859"/>
      <path id="ID0.35696596931666136" fill="#A5F3FF" d="M 38.8136 40.9239 L 41.1534 40.9239 L 41.1534 49.3148 L 46.3977 49.3148 L 46.3977 51.4125 L 38.8943 51.4125 L 38.8943 40.9239 Z " stroke-width="0.8068181872367859"/>
      <path id="ID0.6259016306139529" fill="#A5F3FF" d="M 52.4489 51.5739 C 51.0773 51.5739 49.9477 51.1705 49.1409 50.4443 C 48.3341 49.7182 47.9307 48.508 47.9307 46.975 L 47.9307 41.0045 L 50.2705 41.0045 L 50.2705 46.8943 C 50.2705 47.7818 50.4318 48.4273 50.8352 48.8307 C 51.2386 49.2341 51.8034 49.4761 52.5295 49.4761 C 53.2557 49.4761 53.8205 49.2341 54.2239 48.8307 C 54.6273 48.4273 54.7886 47.7818 54.7886 46.975 L 54.7886 41.0045 L 57.1284 41.0045 L 57.1284 46.8943 C 57.1284 47.7011 57.0477 48.3466 56.8057 48.992 C 56.5636 49.5568 56.3216 50.0409 55.9182 50.4443 C 55.5148 50.8477 55.0307 51.1705 54.4659 51.3318 C 53.8205 51.4125 53.175 51.5739 52.4489 51.5739 Z " stroke-width="0.8068181872367859"/>
      <path id="ID0.2604408427141607" fill="#A5F3FF" d="M 59.3875 40.9239 L 67.2943 40.9239 L 67.2943 42.9409 L 61.7273 42.9409 L 61.7273 45.0386 L 66.6489 45.0386 L 66.6489 47.0557 L 61.7273 47.0557 L 61.7273 49.2341 L 67.375 49.2341 L 67.375 51.2511 L 59.3875 51.2511 L 59.3875 40.9239 Z " stroke-width="0.8068181872367859"/>
      <path id="ID0.59487423626706" fill="#A5F3FF" d="M 77.6216 51.4932 C 76.8148 51.4932 76.008 51.3318 75.2818 51.0898 C 74.475 50.8477 73.8295 50.3636 73.1841 49.7989 L 74.5557 48.1852 C 75.0398 48.5886 75.5239 48.9114 76.008 49.0727 C 76.492 49.3148 77.0568 49.3955 77.6216 49.3955 C 78.1057 49.3955 78.5091 49.3148 78.7511 49.1534 C 78.9932 48.992 79.1545 48.75 79.1545 48.4273 L 79.1545 48.4273 C 79.1545 48.2659 79.1545 48.1852 79.0739 48.0239 C 78.9932 47.9432 78.9125 47.7818 78.7511 47.7011 C 78.5898 47.6205 78.3477 47.5398 78.1057 47.3784 C 77.8636 47.2977 77.4602 47.1364 77.0568 47.0557 C 76.492 46.8943 76.008 46.8136 75.6045 46.6523 C 75.2011 46.4909 74.7977 46.3295 74.475 46.0875 C 74.1523 45.8455 73.9102 45.5227 73.7489 45.2 C 73.5875 44.8773 73.5068 44.3932 73.5068 43.9091 L 73.5068 43.9091 C 73.5068 43.425 73.5875 43.0216 73.7489 42.6182 C 73.9102 42.2148 74.1523 41.892 74.475 41.65 C 74.7977 41.408 75.2011 41.1659 75.6045 41.0045 C 76.008 40.8432 76.5727 40.7625 77.0568 40.7625 C 77.8636 40.7625 78.5091 40.8432 79.1545 41.0852 C 79.8 41.3273 80.3648 41.65 80.9295 42.0534 L 79.7193 43.7477 C 79.2352 43.425 78.8318 43.183 78.3477 43.0216 C 77.8636 42.8602 77.4602 42.7795 76.9761 42.7795 C 76.492 42.7795 76.1693 42.8602 75.9273 43.0216 C 75.6852 43.183 75.6045 43.425 75.6045 43.667 L 75.6045 43.667 C 75.6045 43.8284 75.6045 43.9898 75.6852 44.0705 C 75.7659 44.2318 75.8466 44.3125 76.008 44.3932 C 76.1693 44.4739 76.4114 44.5545 76.7341 44.7159 C 77.0568 44.8773 77.3795 44.8773 77.8636 45.0386 C 78.4284 45.2 78.8318 45.3614 79.3159 45.5227 C 79.8 45.6841 80.042 45.9261 80.3648 46.1682 C 80.6875 46.4102 80.8489 46.733 81.0102 47.0557 C 81.1716 47.3784 81.2523 47.7818 81.2523 48.2659 L 81.2523 48.2659 C 81.2523 48.75 81.1716 49.2341 81.0102 49.6375 C 80.8489 50.0409 80.5261 50.3636 80.2034 50.6864 C 79.8807 50.9284 79.4773 51.1705 78.9932 51.3318 C 78.5091 51.4932 78.1864 51.4932 77.6216 51.4932 Z " stroke-width="0.8068181872367859"/>
      <path id="ID0.4816053695976734" fill="#A5F3FF" d="M 83.4307 40.9239 L 87.7068 40.9239 C 88.3523 40.9239 88.917 41.0045 89.4011 41.1659 C 89.8852 41.3273 90.2886 41.5693 90.692 41.892 C 91.0148 42.2148 91.3375 42.6182 91.4989 43.0216 C 91.6602 43.425 91.7409 43.9898 91.7409 44.4739 L 91.7409 44.4739 C 91.7409 45.1193 91.6602 45.6034 91.4182 46.0875 C 91.1761 46.5716 90.9341 46.8943 90.5307 47.217 C 90.1273 47.5398 89.7239 47.7818 89.1591 47.9432 C 88.675 48.1045 88.1102 48.1852 87.5455 48.1852 L 85.7705 48.1852 L 85.7705 51.3318 L 83.4307 51.3318 L 83.4307 40.9239 Z M 87.5455 46.1682 C 88.1102 46.1682 88.5943 46.0068 88.917 45.6841 C 89.2398 45.3614 89.4011 45.0386 89.4011 44.5545 L 89.4011 44.5545 C 89.4011 44.0705 89.2398 43.667 88.917 43.3443 C 88.5943 43.1023 88.1102 42.9409 87.5455 42.9409 L 85.7705 42.9409 L 85.7705 46.1682 L 87.5455 46.1682 Z " stroke-width="0.8068181872367859"/>
      <path id="ID0.19831273145973682" fill="#A5F3FF" d="M 96.9852 40.8432 L 99.083 40.8432 L 103.6011 51.4125 L 101.1807 51.4125 L 100.2125 49.0727 L 95.775 49.0727 L 94.8068 51.4125 L 92.467 51.4125 L 96.9852 40.8432 Z M 99.4057 46.975 L 98.0341 43.5864 L 96.6625 46.975 L 99.4057 46.975 Z " stroke-width="0.8068181872367859"/>
      <path id="ID0.06670696567744017" fill="#A5F3FF" d="M 105.2148 40.9239 L 109.975 40.9239 C 111.2659 40.9239 112.3148 41.2466 113.0409 41.9727 C 113.6057 42.5375 113.9284 43.3443 113.9284 44.3932 L 113.9284 44.3932 C 113.9284 45.2 113.6864 45.9261 113.283 46.4909 C 112.8795 47.0557 112.3148 47.3784 111.6693 47.7011 L 114.2511 51.4125 L 111.5886 51.4125 L 109.3295 48.1045 L 109.3295 48.1045 L 107.5545 48.1045 L 107.5545 51.4125 L 105.2148 51.4125 L 105.2148 40.9239 Z M 109.8136 46.0068 C 110.3784 46.0068 110.7818 45.8455 111.1045 45.6034 C 111.4273 45.3614 111.5886 44.958 111.5886 44.5545 L 111.5886 44.5545 C 111.5886 44.0705 111.4273 43.667 111.1045 43.425 C 110.7818 43.183 110.3784 43.0216 109.8136 43.0216 L 107.5545 43.0216 L 107.5545 46.0068 L 109.8136 46.0068 Z " stroke-width="0.8068181872367859"/>
      <path id="ID0.698849736712873" fill="#A5F3FF" d="M 116.0261 40.9239 L 118.3659 40.9239 L 118.3659 45.5227 L 122.642 40.9239 L 125.3852 40.9239 L 121.1091 45.3614 L 125.5466 51.4125 L 122.8034 51.4125 L 119.5761 46.975 L 118.3659 48.2659 L 118.3659 51.4932 L 116.0261 51.4932 L 116.0261 40.9239 Z " stroke-width="0.8068181872367859"/>
      <path id="ID0.6843191711232066" fill="#A5F3FF" d="M 130.6295 51.4932 C 129.8227 51.4932 129.0159 51.3318 128.2898 51.0898 C 127.483 50.8477 126.8375 50.3636 126.192 49.7989 L 127.5636 48.1852 C 128.0477 48.5886 128.5318 48.9114 129.0159 49.0727 C 129.5 49.3148 130.0648 49.3955 130.6295 49.3955 C 131.1136 49.3955 131.517 49.3148 131.7591 49.1534 C 132.0011 48.992 132.1625 48.75 132.1625 48.4273 L 132.1625 48.4273 C 132.1625 48.2659 132.1625 48.1852 132.0818 48.0239 C 132.0011 47.9432 131.9205 47.7818 131.7591 47.7011 C 131.5977 47.6205 131.3557 47.5398 131.1136 47.3784 C 130.8716 47.2977 130.4682 47.1364 130.0648 47.0557 C 129.5 46.8943 129.0159 46.8136 128.6125 46.6523 C 128.2091 46.4909 127.8057 46.3295 127.483 46.0875 C 127.1602 45.8455 126.9182 45.5227 126.7568 45.2 C 126.5955 44.8773 126.5148 44.3932 126.5148 43.9091 L 126.5148 43.9091 C 126.5148 43.425 126.5955 43.0216 126.7568 42.6182 C 126.9182 42.2148 127.1602 41.892 127.483 41.65 C 127.8057 41.408 128.2091 41.1659 128.6125 41.0045 C 129.0159 40.8432 129.5807 40.7625 130.0648 40.7625 C 130.8716 40.7625 131.517 40.8432 132.1625 41.0852 C 132.808 41.3273 133.3727 41.65 133.9375 42.0534 L 132.7273 43.7477 C 132.2432 43.425 131.8398 43.183 131.3557 43.0216 C 130.8716 42.8602 130.4682 42.7795 129.9841 42.7795 C 129.5 42.7795 129.1773 42.8602 128.9352 43.0216 C 128.6932 43.183 128.6125 43.425 128.6125 43.667 L 128.6125 43.667 C 128.6125 43.8284 128.6125 43.9898 128.6932 44.0705 C 128.7739 44.2318 128.8545 44.3125 129.0159 44.3932 C 129.1773 44.4739 129.4193 44.5545 129.742 44.7159 C 130.0648 44.8773 130.3875 44.8773 130.8716 45.0386 C 131.4364 45.2 131.8398 45.3614 132.3239 45.5227 C 132.808 45.6841 133.05 45.9261 133.3727 46.1682 C 133.6955 46.4102 133.8568 46.733 134.0182 47.0557 C 134.1795 47.3784 134.2602 47.7818 134.2602 48.2659 L 134.2602 48.2659 C 134.2602 48.75 134.1795 49.2341 134.0182 49.6375 C 133.8568 50.0409 133.5341 50.3636 133.2114 50.6864 C 132.8886 50.9284 132.4852 51.1705 132.0011 51.3318 C 131.517 51.4932 131.1943 51.4932 130.6295 51.4932 Z " stroke-width="0.8068181872367859"/>
      <path id="ID0.9430056917481124" fill="#FFFFFF" d="M 141.0375 40.9239 L 143.3773 40.9239 L 143.3773 51.4125 L 141.0375 51.4125 L 141.0375 40.9239 Z " stroke-width="0.8068181872367859"/>
      <path id="ID0.6437218300998211" fill="#FFFFFF" d="M 145.9591 40.9239 L 148.0568 40.9239 L 152.9784 47.3784 L 152.9784 40.9239 L 155.2375 40.9239 L 155.2375 51.4125 L 153.3011 51.4125 L 148.2182 44.7966 L 148.2182 51.4125 L 145.9591 51.4125 L 145.9591 40.9239 Z " stroke-width="0.8068181872367859"/>
      <path id="ID0.725769070442766" fill="#FFFFFF" d="M 157.8193 40.9239 L 161.9341 40.9239 C 162.7409 40.9239 163.467 41.0852 164.1932 41.3273 C 164.8386 41.5693 165.4841 41.9727 165.9682 42.4568 C 166.4523 42.9409 166.8557 43.5057 167.0977 44.0705 C 167.3398 44.7159 167.5011 45.3614 167.5011 46.0875 L 167.5011 46.0875 C 167.5011 46.8136 167.3398 47.5398 167.0977 48.1852 C 166.8557 48.8307 166.4523 49.3955 165.9682 49.8795 C 165.4841 50.3636 164.9193 50.6864 164.1932 51.0091 C 163.5477 51.2511 162.7409 51.4125 161.9341 51.4125 L 157.8193 51.4125 L 157.8193 40.9239 Z M 161.8534 49.3148 C 162.3375 49.3148 162.7409 49.2341 163.1443 49.0727 C 163.5477 48.9114 163.8705 48.6693 164.1125 48.4273 C 164.3545 48.1852 164.5966 47.7818 164.758 47.4591 C 164.9193 47.0557 165 46.6523 165 46.1682 L 165 46.1682 C 165 45.6841 164.9193 45.2807 164.758 44.8773 C 164.5966 44.4739 164.3545 44.1511 164.1125 43.9091 C 163.8705 43.667 163.5477 43.425 163.1443 43.2636 C 162.7409 43.1023 162.3375 43.0216 161.8534 43.0216 L 160.0784 43.0216 L 160.0784 49.3148 L 161.8534 49.3148 Z " stroke-width="0.8068181872367859"/>
      <path id="ID0.5777465705759823" fill="#FFFFFF" d="M 169.5989 40.9239 L 171.9386 40.9239 L 171.9386 51.4125 L 169.5989 51.4125 L 169.5989 40.9239 Z " stroke-width="0.8068181872367859"/>
      <path id="ID0.2960395240224898" fill="#FFFFFF" d="M 179.3614 51.5739 C 178.5545 51.5739 177.9091 51.4125 177.2636 51.1705 C 176.6182 50.9284 176.0534 50.525 175.5693 50.0409 C 175.0852 49.5568 174.6818 48.992 174.4398 48.3466 C 174.1977 47.7011 174.0364 46.975 174.0364 46.2489 L 174.0364 46.2489 C 174.0364 45.5227 174.1977 44.7966 174.4398 44.1511 C 174.6818 43.5057 175.0852 42.9409 175.5693 42.4568 C 176.0534 41.9727 176.6182 41.5693 177.2636 41.3273 C 177.9091 41.0852 178.6352 40.9239 179.442 40.9239 C 179.9261 40.9239 180.4102 40.9239 180.8136 41.0045 C 181.217 41.0852 181.6205 41.1659 181.9432 41.3273 C 182.2659 41.4886 182.5886 41.65 182.8307 41.8114 C 183.0727 41.9727 183.3955 42.2148 183.6375 42.4568 L 182.1852 44.1511 C 181.7818 43.7477 181.3784 43.5057 180.975 43.2636 C 180.5716 43.0216 180.0875 42.9409 179.5227 42.9409 C 179.1193 42.9409 178.7159 43.0216 178.3125 43.183 C 177.9091 43.3443 177.5864 43.5864 177.3443 43.9091 C 177.1023 44.2318 176.8602 44.5545 176.6989 44.958 C 176.5375 45.3614 176.4568 45.7648 176.4568 46.2489 L 176.4568 46.2489 C 176.4568 46.733 176.5375 47.1364 176.6989 47.5398 C 176.8602 47.9432 177.0216 48.2659 177.3443 48.5886 C 177.5864 48.9114 177.9091 49.1534 178.3125 49.3148 C 178.7159 49.4761 179.1193 49.5568 179.5227 49.5568 C 180.0875 49.5568 180.6523 49.4761 181.0557 49.2341 C 181.4591 48.992 181.8625 48.75 182.2659 48.3466 L 183.7182 49.7989 C 183.4761 50.1216 183.1534 50.3636 182.9114 50.6057 C 182.5886 50.8477 182.2659 51.0091 181.9432 51.1705 C 181.6205 51.3318 181.217 51.4932 180.8136 51.5739 C 180.3295 51.4932 179.9261 51.5739 179.3614 51.5739 Z " stroke-width="0.8068181872367859"/>
      <path id="ID0.04516697768121958" fill="#FFFFFF" d="M 189.1239 40.8432 L 191.2216 40.8432 L 195.7398 51.4125 L 193.3193 51.4125 L 192.3511 49.0727 L 187.9136 49.0727 L 186.9455 51.4125 L 184.6057 51.4125 L 189.1239 40.8432 Z M 191.5443 46.975 L 190.1727 43.5864 L 188.8011 46.975 L 191.5443 46.975 Z " stroke-width="0.8068181872367859"/>
      <path id="ID0.7196600963361561" fill="#FFFFFF" d="M 199.7739 43.0216 L 196.6273 43.0216 L 196.6273 40.9239 L 205.2602 40.9239 L 205.2602 43.0216 L 202.1136 43.0216 L 202.1136 51.3318 L 199.7739 51.3318 L 199.7739 43.0216 Z " stroke-width="0.8068181872367859"/>
      <path id="ID0.2016340191476047" fill="#FFFFFF" d="M 207.0352 40.9239 L 214.942 40.9239 L 214.942 42.9409 L 209.375 42.9409 L 209.375 45.0386 L 214.2966 45.0386 L 214.2966 47.0557 L 209.375 47.0557 L 209.375 49.2341 L 215.0227 49.2341 L 215.0227 51.2511 L 207.0352 51.2511 L 207.0352 40.9239 Z " stroke-width="0.8068181872367859"/>
      <path id="ID0.9240596350282431" fill="#FFFFFF" d="M 221.558 40.9239 L 223.8977 40.9239 L 223.8977 51.4125 L 221.558 51.4125 L 221.558 40.9239 Z " stroke-width="0.8068181872367859"/>
      <path id="ID0.28738383343443274" fill="#FFFFFF" d="M 226.4795 40.9239 L 228.5773 40.9239 L 233.4989 47.3784 L 233.4989 40.9239 L 235.758 40.9239 L 235.758 51.4125 L 233.8216 51.4125 L 228.7386 44.7966 L 228.7386 51.4125 L 226.4795 51.4125 L 226.4795 40.9239 Z " stroke-width="0.8068181872367859"/>
      <path id="ID0.4354749140329659" fill="#FFFFFF" d="M 243.1807 51.5739 C 242.3739 51.5739 241.7284 51.4125 241.083 51.1705 C 240.4375 50.9284 239.8727 50.525 239.3886 50.0409 C 238.9045 49.5568 238.5011 48.992 238.2591 48.3466 C 238.017 47.7011 237.8557 46.975 237.8557 46.2489 L 237.8557 46.2489 C 237.8557 45.5227 238.017 44.7966 238.2591 44.1511 C 238.5011 43.5057 238.9045 42.9409 239.3886 42.4568 C 239.8727 41.9727 240.4375 41.5693 241.083 41.3273 C 241.7284 41.0045 242.4545 40.9239 243.2614 40.9239 C 243.7455 40.9239 244.2295 40.9239 244.633 41.0045 C 245.0364 41.0852 245.4398 41.1659 245.7625 41.3273 C 246.0852 41.4886 246.408 41.65 246.65 41.8114 C 246.892 41.9727 247.2148 42.2148 247.4568 42.4568 L 246.0045 44.1511 C 245.6011 43.7477 245.1977 43.5057 244.7943 43.2636 C 244.3909 43.0216 243.9068 42.9409 243.342 42.9409 C 242.9386 42.9409 242.5352 43.0216 242.1318 43.183 C 241.7284 43.3443 241.4057 43.5864 241.1636 43.9091 C 240.9216 44.2318 240.6795 44.5545 240.5182 44.958 C 240.3568 45.3614 240.2761 45.7648 240.2761 46.2489 L 240.2761 46.2489 C 240.2761 46.733 240.3568 47.1364 240.5182 47.5398 C 240.6795 47.9432 240.8409 48.2659 241.1636 48.5886 C 241.4057 48.9114 241.7284 49.1534 242.1318 49.3148 C 242.5352 49.4761 242.9386 49.5568 243.342 49.5568 C 243.9068 49.5568 244.4716 49.4761 244.875 49.2341 C 245.2784 48.992 245.6818 48.75 246.0852 48.3466 L 247.5375 49.7989 C 247.2955 50.1216 246.9727 50.3636 246.7307 50.6057 C 246.408 50.8477 246.0852 51.0091 245.7625 51.1705 C 245.4398 51.3318 245.0364 51.4932 244.633 51.5739 C 244.1489 51.4932 243.7455 51.5739 243.1807 51.5739 Z " stroke-width="0.8068181872367859"/>
      <path id="ID0.7440318479202688" fill="#FFFFFF" d="M 254.3955 51.5739 C 253.5886 51.5739 252.8625 51.4125 252.1364 51.1705 C 251.4909 50.8477 250.8455 50.525 250.3614 50.0409 C 249.8773 49.5568 249.4739 48.992 249.2318 48.3466 C 248.9898 47.7011 248.8284 46.975 248.8284 46.2489 L 248.8284 46.2489 C 248.8284 45.5227 248.9898 44.7966 249.2318 44.1511 C 249.4739 43.5057 249.8773 42.9409 250.3614 42.4568 C 250.8455 41.9727 251.4102 41.5693 252.1364 41.3273 C 252.7818 41.0045 253.5886 40.9239 254.3955 40.9239 C 255.2023 40.9239 255.9284 41.0852 256.6545 41.3273 C 257.3 41.65 257.9455 41.9727 258.4295 42.4568 C 258.9136 42.9409 259.317 43.5057 259.5591 44.1511 C 259.8011 44.7966 259.9625 45.5227 259.9625 46.2489 L 259.9625 46.2489 C 259.9625 46.975 259.8011 47.7011 259.5591 48.3466 C 259.317 48.992 258.9136 49.5568 258.4295 50.0409 C 257.9455 50.525 257.3807 50.9284 256.6545 51.1705 C 255.9284 51.4125 255.2023 51.5739 254.3955 51.5739 Z M 254.4761 49.3955 C 254.9602 49.3955 255.3636 49.3148 255.767 49.1534 C 256.1705 48.992 256.4932 48.75 256.7352 48.4273 C 256.9773 48.1045 257.2193 47.7818 257.3807 47.3784 C 257.542 46.975 257.6227 46.5716 257.6227 46.0875 L 257.6227 46.0875 C 257.6227 45.6034 257.542 45.2 257.3807 44.7966 C 257.2193 44.3932 256.9773 44.0705 256.7352 43.7477 C 256.4125 43.425 256.0898 43.183 255.6864 43.0216 C 255.283 42.8602 254.8795 42.7795 254.3955 42.7795 C 253.9114 42.7795 253.508 42.8602 253.1045 43.0216 C 252.7011 43.183 252.3784 43.425 252.1364 43.7477 C 251.8943 44.0705 251.6523 44.3932 251.4909 44.7966 C 251.3295 45.2 251.2489 45.6034 251.2489 46.0875 L 251.2489 46.0875 C 251.2489 46.5716 251.3295 46.975 251.4909 47.3784 C 251.6523 47.7818 251.8943 48.1045 252.1364 48.4273 C 252.4591 48.75 252.7818 48.992 253.1045 49.1534 C 253.5886 49.3148 253.992 49.3955 254.4761 49.3955 Z " stroke-width="0.8068181872367859"/>
      <path id="ID0.24887258792296052" fill="#FFFFFF" d="M 262.0602 40.9239 L 264.5614 40.9239 L 267.3045 45.3614 L 270.0477 40.9239 L 272.5489 40.9239 L 272.5489 51.4125 L 270.2898 51.4125 L 270.2898 44.5545 L 267.3852 48.992 L 267.3045 48.992 L 264.4 44.5545 L 264.4 51.3318 L 262.1409 51.3318 L 262.1409 40.9239 Z " stroke-width="0.8068181872367859"/>
      <path id="ID0.7280630050227046" fill="#FFFFFF" d="M 275.1307 40.9239 L 277.4705 40.9239 L 277.4705 51.4125 L 275.1307 51.4125 L 275.1307 40.9239 Z " stroke-width="0.8068181872367859"/>
      <path id="ID0.6212045876309276" fill="#FFFFFF" d="M 280.0523 40.9239 L 282.15 40.9239 L 287.0716 47.3784 L 287.0716 40.9239 L 289.3307 40.9239 L 289.3307 51.4125 L 287.3943 51.4125 L 282.3114 44.7966 L 282.3114 51.4125 L 280.0523 51.4125 L 280.0523 40.9239 Z " stroke-width="0.8068181872367859"/>
      <path id="ID0.703552913852036" fill="#FFFFFF" d="M 296.8341 51.5739 C 296.0273 51.5739 295.3011 51.4125 294.575 51.1705 C 293.9295 50.9284 293.3648 50.525 292.8807 50.0409 C 292.3966 49.5568 291.9932 48.992 291.7511 48.3466 C 291.5091 47.7011 291.3477 46.975 291.3477 46.1682 L 291.3477 46.1682 C 291.3477 45.442 291.5091 44.7159 291.7511 44.0705 C 291.9932 43.425 292.3966 42.8602 292.8807 42.3761 C 293.3648 41.892 293.9295 41.4886 294.575 41.2466 C 295.2205 41.0045 295.9466 40.8432 296.7534 40.8432 C 297.2375 40.8432 297.6409 40.8432 298.0443 40.9239 C 298.4477 41.0045 298.7705 41.0852 299.0932 41.1659 C 299.4159 41.2466 299.7386 41.408 299.9807 41.65 C 300.3034 41.8114 300.5455 42.0534 300.7875 42.2955 L 299.3352 44.0705 C 299.1739 43.9091 298.9318 43.7477 298.7705 43.5864 C 298.6091 43.425 298.367 43.3443 298.125 43.2636 C 297.883 43.183 297.6409 43.1023 297.3989 43.0216 C 297.1568 42.9409 296.9148 42.9409 296.592 42.9409 C 296.1886 42.9409 295.7852 43.0216 295.3818 43.183 C 294.9784 43.3443 294.7364 43.5864 294.4136 43.9091 C 294.1716 44.2318 293.9295 44.5545 293.7682 44.958 C 293.6068 45.3614 293.5261 45.7648 293.5261 46.2489 L 293.5261 46.2489 C 293.5261 46.733 293.6068 47.1364 293.7682 47.5398 C 293.9295 47.9432 294.1716 48.2659 294.4136 48.5886 C 294.6557 48.9114 295.0591 49.1534 295.3818 49.3148 C 295.7852 49.4761 296.1886 49.5568 296.6727 49.5568 C 297.5602 49.5568 298.2864 49.3148 298.8511 48.9114 L 298.8511 47.3784 L 296.5114 47.3784 L 296.5114 45.3614 L 301.0295 45.3614 L 301.0295 49.8795 C 300.4648 50.3636 299.8193 50.767 299.0932 51.0898 C 298.6898 51.4125 297.8023 51.5739 296.8341 51.5739 Z " stroke-width="0.8068181872367859"/>
      <path id="ID0.49214887293055654" fill="#FFFFFF" d="M 311.5989 40.8432 L 313.6966 40.8432 L 318.2148 51.4125 L 315.7943 51.4125 L 314.8261 49.0727 L 310.3886 49.0727 L 309.4205 51.4125 L 307.0807 51.4125 L 311.5989 40.8432 Z M 314.0193 46.975 L 312.6477 43.5864 L 311.2761 46.975 L 314.0193 46.975 Z " stroke-width="0.8068181872367859"/>
      <path id="ID0.2631269139237702" fill="#FFFFFF" d="M 322.2489 43.0216 L 319.1023 43.0216 L 319.1023 40.9239 L 327.7352 40.9239 L 327.7352 43.0216 L 324.5886 43.0216 L 324.5886 51.3318 L 322.2489 51.3318 L 322.2489 43.0216 Z " stroke-width="0.8068181872367859"/>
      <path id="ID0.06097547523677349" fill="#FFFFFF" d="M 331.9307 43.0216 L 328.7841 43.0216 L 328.7841 40.9239 L 337.417 40.9239 L 337.417 43.0216 L 334.2705 43.0216 L 334.2705 51.3318 L 331.9307 51.3318 L 331.9307 43.0216 Z " stroke-width="0.8068181872367859"/>
      <path id="ID0.7153918747790158" fill="#FFFFFF" d="M 342.742 40.8432 L 344.8398 40.8432 L 349.358 51.4125 L 346.9375 51.4125 L 345.9693 49.0727 L 341.5318 49.0727 L 340.5636 51.4125 L 338.2239 51.4125 L 342.742 40.8432 Z M 345.1625 46.975 L 343.7909 43.5864 L 342.4193 46.975 L 345.1625 46.975 Z " stroke-width="0.8068181872367859"/>
      <path id="ID0.28060374967753887" fill="#FFFFFF" d="M 355.8932 51.5739 C 355.0864 51.5739 354.4409 51.4125 353.7955 51.1705 C 353.15 50.9284 352.5852 50.525 352.1011 50.0409 C 351.617 49.5568 351.2136 48.992 350.9716 48.3466 C 350.7295 47.7011 350.5682 46.975 350.5682 46.2489 L 350.5682 46.2489 C 350.5682 45.5227 350.7295 44.7966 350.9716 44.1511 C 351.2136 43.5057 351.617 42.9409 352.1011 42.4568 C 352.5852 41.9727 353.15 41.5693 353.7955 41.3273 C 354.4409 41.0045 355.167 40.9239 355.9739 40.9239 C 356.458 40.9239 356.942 40.9239 357.3455 41.0045 C 357.7489 41.0852 358.1523 41.1659 358.475 41.3273 C 358.7977 41.4886 359.1205 41.65 359.3625 41.8114 C 359.6045 41.9727 359.9273 42.2148 360.1693 42.4568 L 358.717 44.1511 C 358.3136 43.7477 357.9102 43.5057 357.5068 43.2636 C 357.1034 43.0216 356.6193 42.9409 356.0545 42.9409 C 355.6511 42.9409 355.2477 43.0216 354.8443 43.183 C 354.4409 43.3443 354.1182 43.5864 353.8761 43.9091 C 353.6341 44.2318 353.392 44.5545 353.2307 44.958 C 353.0693 45.3614 352.9886 45.7648 352.9886 46.2489 L 352.9886 46.2489 C 352.9886 46.733 353.0693 47.1364 353.2307 47.5398 C 353.392 47.9432 353.5534 48.2659 353.8761 48.5886 C 354.1182 48.9114 354.4409 49.1534 354.8443 49.3148 C 355.2477 49.4761 355.6511 49.5568 356.0545 49.5568 C 356.6193 49.5568 357.1841 49.4761 357.5875 49.2341 C 357.9909 48.992 358.3943 48.75 358.7977 48.3466 L 360.25 49.7989 C 360.008 50.1216 359.6852 50.3636 359.4432 50.6057 C 359.1205 50.8477 358.7977 51.0091 358.475 51.1705 C 358.1523 51.3318 357.7489 51.4932 357.3455 51.5739 C 356.8614 51.4932 356.3773 51.5739 355.8932 51.5739 Z " stroke-width="0.8068181872367859"/>
      <path id="ID0.600958448369056" fill="#FFFFFF" d="M 362.025 40.9239 L 364.3648 40.9239 L 364.3648 45.5227 L 368.6409 40.9239 L 371.3841 40.9239 L 367.108 45.3614 L 371.5455 51.4125 L 368.8023 51.4125 L 365.575 46.975 L 364.3648 48.2659 L 364.3648 51.4932 L 362.025 51.4932 L 362.025 40.9239 Z " stroke-width="0.8068181872367859"/>
      <path id="ID0.6489942101761699" fill="#FFFFFF" d="M 376.6284 51.4932 C 375.8216 51.4932 375.0148 51.3318 374.2886 51.0898 C 373.4818 50.8477 372.8364 50.3636 372.1909 49.7989 L 373.5625 48.1852 C 374.0466 48.5886 374.5307 48.9114 375.0148 49.0727 C 375.4989 49.3148 376.0636 49.3955 376.6284 49.3955 C 377.1125 49.3955 377.5159 49.3148 377.758 49.1534 C 378 48.992 378.1614 48.75 378.1614 48.4273 L 378.1614 48.4273 C 378.1614 48.2659 378.1614 48.1852 378.0807 48.0239 C 378 47.9432 377.9193 47.7818 377.758 47.7011 C 377.5966 47.6205 377.3545 47.5398 377.1125 47.3784 C 376.8705 47.2977 376.467 47.1364 376.0636 47.0557 C 375.4989 46.8943 375.0148 46.8136 374.6114 46.6523 C 374.208 46.4909 373.8045 46.3295 373.4818 46.0875 C 373.1591 45.8455 372.917 45.5227 372.7557 45.2 C 372.5943 44.8773 372.5136 44.3932 372.5136 43.9091 L 372.5136 43.9091 C 372.5136 43.425 372.5943 43.0216 372.7557 42.6182 C 372.917 42.2148 373.1591 41.892 373.4818 41.65 C 373.8045 41.408 374.208 41.1659 374.6114 41.0045 C 375.0148 40.8432 375.5795 40.7625 376.0636 40.7625 C 376.8705 40.7625 377.5159 40.8432 378.1614 41.0852 C 378.8068 41.3273 379.3716 41.65 379.9364 42.0534 L 378.7261 43.7477 C 378.242 43.425 377.8386 43.183 377.3545 43.0216 C 376.8705 42.8602 376.467 42.7795 375.983 42.7795 C 375.4989 42.7795 375.1761 42.8602 374.9341 43.0216 C 374.692 43.183 374.6114 43.425 374.6114 43.667 L 374.6114 43.667 C 374.6114 43.8284 374.6114 43.9898 374.692 44.0705 C 374.7727 44.2318 374.8534 44.3125 375.0148 44.3932 C 375.1761 44.4739 375.4182 44.5545 375.7409 44.7159 C 376.0636 44.8773 376.3864 44.8773 376.8705 45.0386 C 377.4352 45.2 377.8386 45.3614 378.3227 45.5227 C 378.8068 45.6841 379.0489 45.9261 379.3716 46.1682 C 379.6943 46.4102 379.8557 46.733 380.017 47.0557 C 380.1784 47.3784 380.2591 47.7818 380.2591 48.2659 L 380.2591 48.2659 C 380.2591 48.75 380.1784 49.2341 380.017 49.6375 C 379.8557 50.0409 379.533 50.3636 379.2102 50.6864 C 378.8875 50.9284 378.4841 51.1705 378 51.3318 C 377.5159 51.4932 377.1932 51.4932 376.6284 51.4932 Z " stroke-width="0.8068181872367859"/>
    </g>
  </g>
</svg>