<svg xmlns="http://www.w3.org/2000/svg" xmlns:xlink="http://www.w3.org/1999/xlink" version="1.1" width="205.92122960833916" height="331.65508580951104" viewBox="0.7057108841925405 -0.30403948201839703 205.92122960833916 331.65508580951104">
  <defs>
    <linearGradient id="grad_1" y2="1" x2="0">
      <stop offset="0" stop-color="#222325" stop-opacity="1"/>
      <stop offset="1" stop-color="#2E3034" stop-opacity="1"/>
    </linearGradient>
  </defs>
  <!-- Exported by Scratch - http://scratch.mit.edu/ -->
  <path id="ID0.7766774026677012" fill="#0D0D0D" stroke="#0D0D0D" stroke-width="1.9730789735735372" stroke-linecap="round" d="M 130.6716 188.2493 C 134.31 155.8766 139.5512 122.4448 132.7969 90.1215 C 130.2422 77.9007 115.8087 70.4826 104.4378 64.7024 C 99.2473 62.067 93.084 66.0957 87.4684 67.0784 C 85.8744 67.3535 84.6036 68.21 83.2119 68.7136 C 81.268 69.234 79.2529 69.5563 77.4688 70.1484 C 76.8369 70.3597 76.2016 70.5666 75.6045 70.8788 C 74.9149 71.1294 74.3544 71.5448 73.7078 71.8503 C 72.3715 72.4065 71.0288 73.0109 69.699 73.5188 C 68.3823 73.9304 67.0289 74.2388 65.7552 74.7053 C 65.1216 74.9144 64.445 75.0686 63.891 75.4357 C 63.2379 75.7895 62.7505 76.411 62.177 76.9227 C 61.6165 77.338 61.056 77.7533 60.4955 78.1686 C 59.9415 78.5357 59.2389 78.8828 58.814 79.4145 C 58.3462 79.8914 58.1496 80.6012 57.8109 81.2427 C 57.4787 81.836 57.0969 82.4227 56.8077 83.0709 C 56.1928 84.2642 55.621 85.5124 55.0492 86.7606 C 54.7169 87.354 54.3847 87.9473 54.046 88.5888 C 53.7138 89.1821 53.3815 89.7755 53.0428 90.417 C 52.7106 91.0103 52.3784 91.6036 52.0397 92.2452 C 51.7074 92.8385 51.2761 93.4185 51.0365 94.0733 C 50.7538 94.6733 50.6694 95.3001 50.5288 95.9683 C 50.3453 96.5817 50.1617 97.195 50.0212 97.8633 C 49.8376 98.4766 49.7036 99.0967 49.5136 99.7582 C 49.2804 100.3649 48.9482 100.9582 48.7582 101.6198 C 48.0588 103.4398 47.396 105.363 46.7397 107.2379 C 46.5066 107.8446 46.1744 108.4379 45.9843 109.0995 C 45.7512 109.7062 45.6172 110.3262 45.4767 110.9944 C 45.2931 111.6078 45.06 112.2145 44.969 112.8894 C 44.835 113.5094 44.8001 114.1428 44.7091 114.8177 C 44.5402 116.0712 44.2657 117.3595 44.1894 118.6745 C 44.1049 119.3012 44.2641 119.6171 44.1772 120.6362 C 43.7005 124.5478 43.1182 128.4942 42.5854 132.4473 C 42.0722 136.2558 41.5459 140.1608 41.0261 144.0175 C 40.7727 145.8976 40.5559 147.8808 40.2465 149.8025 C 40.1125 150.4226 39.9289 151.0359 39.7388 151.6975 C 39.2962 153.1103 38.7609 154.4617 38.4108 155.9361 C 38.2272 156.5495 38.2419 157.1895 38.1509 157.8644 C 38.0169 158.4845 37.7838 159.0912 37.6433 159.7594 C 37.2762 160.9861 36.853 162.2544 36.628 163.5493 C 36.36 164.7894 36.2836 166.1044 36.1082 167.406 C 35.595 171.2145 35.0687 175.1194 34.5489 178.9761 C 34.4255 179.8921 34.4295 180.2363 34.289 180.9045 C 34.1055 181.5179 33.7237 182.1045 33.5336 182.7661 C 32.9334 184.5995 32.5183 186.556 32.0107 188.451 C 31.8271 189.0643 31.6931 189.6843 31.5031 190.3459 C 31.0238 191.6557 30.3959 192.9454 29.9598 194.3101 C 29.7201 194.965 29.5666 195.7297 29.4196 196.4461 C 29.2296 197.1077 28.9835 197.8108 28.8795 198.5821 C 28.7455 199.2021 28.7106 199.8355 28.6196 200.5105 C 28.5351 201.1372 28.3516 201.7505 28.3597 202.4388 C 28.3395 203.7123 28.5109 205.0607 28.5832 206.3957 C 28.5979 207.0358 28.6125 207.6758 28.5711 208.3574 C 28.4867 208.9841 28.4022 209.6109 28.3112 210.2858 C 28.2268 210.9125 28.1423 211.5392 28.0513 212.2141 C 27.7833 213.4542 27.6079 214.7558 27.2838 216.0374 C 26.9232 217.216 26.0533 219.5529 26.0533 219.5529 C 25.7405 220.0016 24.7543 222.6626 24.1972 223.9658 C 23.8949 224.6741 23.4811 225.334 23.1616 226.035 C 22.8837 226.6445 22.6582 227.2768 22.4062 227.8966 C 22.1541 228.5164 21.8643 229.1243 21.6508 229.7582 C 21.4421 230.378 21.3518 231.0333 21.1431 231.6531 C 20.9296 232.287 20.676 232.9106 20.3877 233.5147 C 20.0894 234.1411 19.6457 234.7007 19.3846 235.3429 C 19.1384 235.9488 19.0457 236.6068 18.8769 237.2379 C 18.7081 237.8689 18.5381 238.5018 18.3693 239.1328 C 18.2005 239.7639 18.0304 240.3967 17.8616 241.0278 C 17.6928 241.6588 17.4689 242.2795 17.354 242.9227 C 17.1265 244.1987 17.0617 245.5035 16.8342 246.7794 C 16.7193 247.4227 16.4954 248.0433 16.3266 248.6744 C 16.1578 249.3055 15.9339 249.9261 15.8189 250.5694 C 15.5915 251.8453 15.4445 253.138 15.2991 254.4261 C 15.0084 257.0031 14.7871 259.5954 14.5074 262.1729 C 14.4377 262.8173 14.334 263.4591 14.2475 264.1012 C 14.1609 264.7434 14.1156 265.394 13.9876 266.0296 C 13.8589 266.67 13.6886 267.3047 13.48 267.9245 C 13.2664 268.5584 12.8973 269.1409 12.7246 269.7861 C 12.5564 270.4123 12.5927 271.0789 12.4647 271.7145 C 12.336 272.3548 12.0857 272.969 11.957 273.6094 C 11.829 274.245 11.8252 274.9022 11.6971 275.5378 C 11.5685 276.1782 11.3981 276.8129 11.1895 277.4327 C 10.9759 278.0666 10.6477 278.6604 10.4341 279.2943 C 10.2254 279.9141 10.1351 280.5695 9.9264 281.1893 C 9.7129 281.8231 9.371 282.4132 9.171 283.0508 C 8.78 284.2979 8.4943 285.5788 8.1558 286.8408 C 7.987 287.4718 7.8169 288.1047 7.6481 288.7357 C 7.4793 289.3668 7.2691 289.9903 7.1405 290.6307 C 7.0124 291.2662 6.9254 291.9122 6.8806 292.559 C 6.8351 293.2106 6.9279 293.8701 6.8685 294.5208 C 6.75 295.8114 6.684 297.1249 6.3487 298.3775 C 6.0032 299.668 5.3897 300.8811 4.8379 302.1006 C 4.5519 302.7326 4.133 303.3024 3.8347 303.9288 C 3.5464 304.5329 3.3676 305.1862 3.0793 305.7904 C 2.781 306.4167 2.2968 306.9621 2.0761 307.6185 C 1.8691 308.2337 1.4978 308.9748 1.8163 309.5469 C 2.1558 310.1571 3.0126 310.358 3.7009 310.5372 C 4.3501 310.7061 5.0505 310.4736 5.7154 310.5632 C 6.3804 310.6529 7.0001 310.9818 7.665 311.0714 C 8.33 311.161 9.0102 311.0485 9.6796 311.0975 C 10.3441 311.1458 11.0174 311.1963 11.6617 311.3646 C 12.3255 311.5375 13.0001 311.7511 13.5788 312.1138 C 14.1826 312.4927 14.5071 313.2442 15.1507 313.5528 C 15.7496 313.8406 16.4727 313.731 17.1328 313.8199 C 17.7928 313.9089 18.449 314.0788 19.1149 314.087 C 19.8008 314.096 20.476 313.8631 21.1619 313.8721 C 21.8278 313.8803 22.4904 314.0099 23.144 314.1392 C 23.8025 314.2692 24.435 314.5174 25.0936 314.6474 C 25.7472 314.7767 26.4314 314.7462 27.0757 314.9145 C 27.7395 315.0874 28.3289 315.4908 28.9928 315.6637 C 29.6371 315.832 30.3213 315.8015 30.9749 315.9308 C 31.6334 316.0608 32.2752 316.27 32.9245 316.439 C 33.5737 316.608 34.2063 316.8778 34.874 316.9472 C 36.8683 317.1541 38.8859 317.1197 40.8853 317.2665 C 41.5498 317.3148 42.2138 317.4043 42.8673 317.5336 C 43.5259 317.6636 44.1556 317.9251 44.8169 318.0418 C 46.1289 318.2726 47.4692 318.3452 48.7811 318.576 C 49.4424 318.6926 50.0722 318.9542 50.7307 319.0842 C 51.3843 319.2135 52.0483 319.303 52.7128 319.3513 C 53.3822 319.4003 54.0579 319.3284 54.7273 319.3774 C 55.3918 319.4257 56.0449 319.5962 56.7094 319.6445 C 57.3789 319.6935 58.0537 319.6352 58.724 319.6706 C 60.0565 319.7412 61.3976 319.7855 62.7206 319.9638 C 63.3856 320.0534 64.0323 320.2643 64.6702 320.472 C 65.3227 320.6846 65.9235 321.0483 66.5873 321.2212 C 67.2316 321.3895 67.9094 321.3993 68.5694 321.4883 C 70.5495 321.7552 72.5446 321.9632 74.5157 322.2897 C 75.1779 322.3995 75.8067 322.6679 76.4653 322.7978 C 77.1188 322.9272 77.7828 323.0166 78.4473 323.065 C 79.1168 323.114 79.7911 323.0821 80.4619 323.0911 C 81.1327 323.1 81.807 323.0681 82.4765 323.1171 C 83.141 323.1655 83.7934 323.4154 84.4586 323.3843 C 85.1683 323.3513 84.9017 323.121 86.5381 322.9283 C 93.0827 322.1571 104.0019 326.7819 106.4075 320.7467 C 114.9874 299.2133 110.4282 274.2539 114.5976 251.3653 C 118.4387 230.2917 128.2145 209.8874 130.6716 188.2493 Z "/>
  <g id="ID0.42570570204406977">
    <path id="ID0.7729651997797191" fill="#393C40" stroke="none" stroke-linecap="round" d="M 170.2079 90.6582 L 158.7614 106.2256 L 175.2506 115.6264 L 188.4944 123.2937 L 195.686 124.5462 L 200.7409 124.4956 L 205.6404 112.8202 L 201.5536 107.563 L 181.3603 97.3163 L 170.2079 90.6582 Z " stroke-width="0.841059369306538"/>
    <path id="ID0.9716172609478235" fill="#34373A" stroke="none" stroke-linecap="round" d="M 170.3467 96.8377 L 172.531 92.1297 L 167.1976 88.4443 L 159.7835 106.495 L 163.8386 106.8986 L 169.0407 104.9537 L 170.3467 96.8377 Z " stroke-width="0.7788099122132435"/>
    <g id="ID0.38066427363082767">
      <path id="ID0.4757494777441025" fill="#1D1E1F" stroke="none" stroke-linecap="round" d="M 147.9913 77.3243 L 130.49 80.0037 L 131.5494 94.1648 L 153.0064 108.0002 L 163.6707 105.4309 L 167.6563 103.4877 L 168.5894 99.7883 L 168.8992 95.8655 L 171.5332 90.4797 L 168.3117 86.3668 L 162.8926 80.8248 L 155.4848 76.6179 L 147.9913 77.3243 Z " stroke-width="0.4541860346645694"/>
      <path id="ID0.6007084371522069" fill="none" stroke="#0D0D0D" stroke-width="0.9083720693291388" stroke-linecap="round" d="M 171.3976 91.031 L 168.9871 95.7936 L 168.0547 101.1068 L 167.7283 103.5756 L 163.6707 105.4309 L 159.0534 106.4236 "/>
    </g>
  </g>
  <path id="ID0.3809091211296618" fill="#393D40" stroke="none" stroke-linecap="round" d="M 110.5916 176.3421 L 131.3953 156.8052 L 146.2247 192.6526 L 148.6648 203.323 L 149.1018 221.9294 L 141.6923 227.0725 L 129.7534 232.2605 L 123.4565 212.416 L 121.7183 201.0913 L 110.5916 176.3421 Z " stroke-width="0.7305889828231873"/>
  <path id="ID0.5368814701214433" fill="#292D2E" stroke="none" stroke-linecap="round" d="M 109.1754 313.0398 L 111.7417 304.1126 L 115.8977 294.7113 L 126.0766 300.2094 L 137.608 307.4376 L 155.4281 317.15 L 156.7384 323.6229 L 132.0988 325.6827 L 110.7365 322.777 L 109.1754 313.0398 Z " stroke-width="0.7702165637829839"/>
  <path id="ID0.05466862628236413" fill="#292D2E" stroke="none" stroke-linecap="round" d="M 125.9828 221.7949 L 152.716 222.369 L 144.789 240.156 L 142.4027 244.867 L 138.8216 262.6526 L 128.9474 302.1907 L 113.1781 301.4531 L 114.6817 279.2547 L 113.4171 270.2878 L 113.6628 260.7716 L 117.9486 247.7935 L 119.988 235.6423 L 125.9828 221.7949 Z " stroke-width="0.7305890301072567"/>
  <path id="ID0.4490455654449761" fill="none" stroke="#272A2B" stroke-width="1.6585523997423008" stroke-linecap="round" d="M 125.6438 221.9756 L 152.4309 222.1669 L 141.6985 245.1162 "/>
  <path id="ID0.10446935473009944" fill="none" stroke="#242728" stroke-width="1.6585523997423008" stroke-linecap="round" d="M 139.3233 257.2224 L 136.3741 273.8004 L 124.7576 279.2909 "/>
  <path id="ID0.42170455446466804" fill="none" stroke="#242728" stroke-width="1.6585523997423008" stroke-linecap="round" d="M 135.0941 274.7659 L 131.1644 289.3797 L 119.2988 295.0247 "/>
  <path id="ID0.047098892275244" fill="none" stroke="#242728" stroke-width="1.6585523997423008" stroke-linecap="round" d="M 120.2221 235.5051 L 119.1065 239.284 L 122.0755 248.7613 "/>
  <path id="ID0.3809091211296618" fill="#3E4246" stroke="none" stroke-linecap="round" d="M 87.4965 145.6418 L 108.6271 162.0857 L 106.2789 200.8082 L 103.8048 211.4708 L 96.0576 228.3933 L 87.1447 229.7764 L 74.1394 229.2183 L 76.5685 207.5823 L 76.7329 194.1673 L 87.4965 145.6418 Z " stroke-width="0.7305889994777404"/>
  <g id="ID0.17693647183477879">
    <path id="ID0.7729651997797191" fill="#3E4246" stroke="none" stroke-linecap="round" d="M 70.3135 90.5501 L 88.1207 100.1802 L 77.6465 113.9934 L 69.2895 125.1894 L 63.3633 128.7368 L 58.7538 130.4203 L 48.7414 121.9384 L 49.9414 115.9684 L 63.3723 100.1534 L 70.3135 90.5501 Z " stroke-width="0.8164595950867339"/>
    <path id="ID0.9716172609478235" fill="#393C40" stroke="none" stroke-linecap="round" d="M 71.628 97.5991 L 68.1842 93.3868 L 72.6408 88.2557 L 84.8692 104.656 L 80.8563 106.1217 L 75.0672 105.5009 L 71.628 97.5991 Z " stroke-width="0.8164595950867339"/>
    <g id="ID0.38066427363082767">
      <path id="ID0.4757494777441025" fill="#1D1E1F" stroke="none" stroke-linecap="round" d="M 89.2485 71.7849 L 97.9235 73.4554 L 110.3297 84.6059 L 92.142 104.2419 L 80.6435 104.4092 L 76.0901 103.4735 L 74.1795 99.9597 L 72.8436 96.0568 L 68.7667 91.2732 L 70.9673 86.2578 L 75.0276 79.2191 L 81.455 73.0184 L 89.2485 71.7849 Z " stroke-width="0.47614257025477175"/>
      <path id="ID0.6007084371522069" fill="none" stroke="#0D0D0D" stroke-width="0.9522851405095435" stroke-linecap="round" d="M 69.0479 91.7978 L 72.7357 96.0066 L 75.0657 101.1594 L 76.04 103.5815 L 80.6435 104.4092 L 85.5908 104.2152 "/>
    </g>
  </g>
  <g id="ID0.7397577832452953">
    <path id="ID0.6726378230378032" fill="#393C40" stroke="none" stroke-linecap="round" d="M 48.3835 120.1082 L 65.6593 126.9153 L 65.1569 129.2902 L 48.2637 122.2666 L 48.3835 120.1082 Z " stroke-width="0.8164596254310289"/>
    <path id="ID0.6507829907350242" fill="#1D1E1F" stroke="none" stroke-linecap="round" d="M 45.2841 121.7576 L 65.4641 129.3251 L 67.6057 148.191 L 67.0066 158.9828 L 69.1694 174.9622 L 70.6523 181.3527 L 58.9921 184.9907 L 57.9137 178.5454 L 54.7792 169.0828 L 50.2774 157.1276 L 47.1702 147.8673 L 45.2841 121.7576 Z " stroke-width="0.8164596254310289"/>
    <path id="ID0.6829322893172503" fill="#1D1E1F" stroke="none" stroke-linecap="round" d="M 58.5328 184.6409 L 68.1642 178.1879 L 72.1397 183.2112 L 76.979 188.5295 L 77.7456 194.193 L 77.7685 198.9274 L 76.1564 202.2352 L 75.644 209.1018 L 70.9644 209.5292 L 69.477 207.6708 L 67.8315 207.6875 L 64.2392 205.496 L 60.39 202.9274 L 57.765 198.7512 L 57.6158 191.5622 L 58.5328 184.6409 Z " stroke-width="0.8164596254310289"/>
    <path id="ID0.47767175547778606" fill="none" stroke="#0D0D0D" stroke-width="1.6329192508620578" stroke-linecap="round" d="M 45.8152 125.6817 L 45.5508 121.5979 L 65.3832 129.336 L 66.9376 143.2556 "/>
    <path id="ID0.5922487881034613" fill="#282A2B" stroke="none" stroke-linecap="round" d="M 48.813 155.5598 L 55.056 149.0299 L 61.135 148.2894 L 68.0835 153.3635 L 68.6771 168.4018 L 65.0378 176.5155 L 61.5992 176.9809 L 54.5455 170.5205 L 48.813 155.5598 Z " stroke-width="0.8164596254310289"/>
    <path id="ID0.36820242274552584" fill="#151616" stroke="none" stroke-linecap="round" d="M 55.4491 157.4447 L 63.8526 156.2249 L 62.7267 167.9943 L 61.2189 168.116 L 55.4491 157.4447 Z " stroke-width="0.8164596254310289"/>
    <path id="ID0.13569410238415003" fill="none" stroke="#232425" stroke-width="1.6329192508620578" stroke-linecap="round" d="M 56.2267 168.5161 L 62.854 174.8695 L 67.0465 166.8869 "/>
    <path id="ID0.024502143263816833" fill="none" stroke="#0D0D0D" stroke-width="1.6329192508620578" stroke-linecap="round" d="M 49.2864 155.2844 L 54.845 149.1766 L 60.7993 148.1235 L 67.8287 153.1866 L 68.0885 161.8024 "/>
  </g>
  <g id="ID0.9157347986474633">
    <path id="ID0.7477802094072104" fill="#363A3D" stroke="none" stroke-linecap="round" d="M 144.4988 127.3412 L 125.425 122.0686 L 120.7949 162.9938 L 136.3506 173.7384 L 141.3782 149.6294 L 144.4988 127.3412 Z " stroke-width="0.47614258126449927"/>
    <path id="ID0.7477802094072104" fill="#363A3D" stroke="none" stroke-linecap="round" d="M 84.5521 120.5643 L 108.1746 120.3618 L 103.5445 161.287 L 85.9815 168.2846 L 83.3642 142.7118 L 84.5521 120.5643 Z " stroke-width="0.47614258126449927"/>
    <path id="ID0.4270821204409003" fill="#3E4246" stroke="none" stroke-linecap="round" d="M 87.1174 100.6589 L 92.3075 88.6676 L 95.2105 83.1261 L 102.5055 76.8835 L 133.2163 81.7956 L 139.5949 86.8298 L 141.9786 91.1726 L 147.6726 103.3171 L 145.7853 113.6455 L 144.2234 118.9794 L 145.1032 126.027 L 144.9608 131.5215 L 142.0556 138.1409 L 139.8582 143.1633 L 137.6316 152.2554 L 136.6596 174.1877 L 130.6266 181.771 L 125.1731 187.4073 L 112.5219 191.4387 L 101.3412 187.131 L 98.1927 180.0183 L 93.9948 173.0744 L 85.8502 169.0383 L 87.565 143.716 L 87.1316 136.9584 L 83.8742 125.0896 L 83.7909 114.1788 L 87.1174 100.6589 Z " stroke-width="0.47614258126449927"/>
    <path id="ID0.052435632329434156" fill="#393C40" stroke="none" stroke-linecap="round" d="M 93.6002 151.595 L 98.0186 152.1428 L 104.202 156.1487 L 109.2595 156.5532 L 114.9019 158.9885 L 119.1858 158.395 L 120.8953 158.1092 L 135.4008 156.3242 L 135.3863 159.6289 L 126.4017 162.8052 L 120.5224 161.8286 L 114.6206 164.2277 L 108.393 159.9771 L 101.9576 159.6803 L 92.5685 154.7847 L 93.6002 151.595 Z " stroke-width="0.47614258126449927"/>
    <path id="ID0.4987568911164999" fill="none" stroke="#27282B" stroke-width="0.9522851625289985" stroke-linecap="round" d="M 102.2685 77.518 L 95.1854 82.946 L 90.7495 92.5069 "/>
    <path id="ID0.2889464790932834" fill="none" stroke="#27282B" stroke-width="0.9522851625289985" stroke-linecap="round" d="M 134.5169 82.604 L 139.7662 87.0314 L 144.3999 96.8996 "/>
    <path id="ID0.8373676878400147" fill="#000000" stroke="#2C2F31" stroke-width="0.6155104363270545" stroke-linecap="round" d="M 104.2921 90.8689 L 104.8062 89.3863 L 101.0877 89.8855 L 95.891 92.6671 L 91.2265 97.2301 L 88.1657 102.5569 L 93.5208 100.8844 L 98.2018 101.2938 L 100.8308 102.5089 L 103.025 105.7611 L 105.2295 104.9764 L 109.2454 105.1392 L 113.6171 106.6711 L 117.0861 110.2535 L 118.8125 113.5192 L 121.289 110.7527 L 125.3108 108.0429 L 129.56 107.0728 L 134.6879 107.6212 L 136.4441 108.4059 L 138.4737 105.5003 L 140.5571 104.466 L 143.086 105.2791 L 145.6971 107.1906 L 144.6851 103.2464 L 142.8452 99.1109 L 140.3462 95.8169 L 137.4377 93.2432 L 133.0451 91.8638 L 135.0045 93.9965 L 134.7639 95.7497 L 132.9465 97.6748 L 129.2624 98.4894 L 126.0849 98.4416 L 123.4723 98.2384 L 121.3619 94.3764 L 120.6983 96.3822 L 119.2501 96.1834 L 117.9736 93.6008 L 116.5598 97.6781 L 112.4885 97.3523 L 108.4875 95.949 L 105.3115 94.1929 L 104.2921 90.8689 Z "/>
    <path id="ID0.5698574706912041" fill="none" stroke="#313537" stroke-width="0.9522851625289985" stroke-linecap="round" d="M 93.548 151.4214 L 92.5953 154.5481 L 101.9443 159.7986 L 108.7264 160.2065 L 114.3974 164.0826 "/>
    <path id="ID0.5698574706912041" fill="none" stroke="#313537" stroke-width="0.8933066457860551" stroke-linecap="round" d="M 135.1013 156.3553 L 135.2555 159.6072 L 126.229 162.7788 L 120.3918 161.759 L 114.7718 164.3577 "/>
    <path id="ID0.8947288258932531" fill="#393C40" stroke="none" stroke-linecap="round" d="M 96.1926 139.6932 L 103.1846 140.3644 L 110.4695 143.1053 L 115.4788 149.2306 L 108.9217 144.0803 L 98.3977 141.3802 L 92.9717 143.8091 L 96.1926 139.6932 Z " stroke-width="0.47614258126449927"/>
    <path id="ID0.8947288258932531" fill="#393C40" stroke="none" stroke-linecap="round" d="M 134.5714 145.0224 L 128.4074 144.219 L 121.5814 145.143 L 116.0494 149.4362 L 122.7238 146.29 L 132.3357 146.0416 L 136.536 149.2096 L 134.5714 145.0224 Z " stroke-width="0.42137388291626426"/>
    <path id="ID0.9897695370018482" fill="#393C40" stroke="none" stroke-linecap="round" d="M 98.2445 152.2642 L 91.7925 151.0551 L 92.7402 146.4903 L 93.5296 150.1016 L 98.576 150.8163 L 104.2859 154.9842 L 109.7669 155.245 L 113.6752 157.1247 L 115.9305 149.4733 L 115.0644 159.2465 L 109.73 156.6304 L 103.8869 155.9693 L 98.2445 152.2642 Z " stroke-width="0.47614258126449927"/>
    <path id="ID0.9897695370018482" fill="#393C40" stroke="none" stroke-linecap="round" d="M 130.2863 156.1267 L 135.8378 156.3091 L 135.963 151.9782 L 134.5968 155.0991 L 130.3006 154.7468 L 124.7732 157.3969 L 120.2092 156.5464 L 116.6188 157.4771 L 116.2799 150.0855 L 115.0543 159.1273 L 119.9648 157.8111 L 124.9062 158.3702 L 130.2863 156.1267 Z " stroke-width="0.4232251295847074"/>
    <path id="ID0.3524594851769507" fill="#393C40" stroke="none" stroke-linecap="round" d="M 112.4553 118.9511 L 118.0759 121.7912 L 122.7618 119.9733 L 119.1874 123.4024 L 118.8811 134.5805 L 127.9904 134.7486 L 117.2275 137.1248 L 106.1632 131.1531 L 115.5638 134.2532 L 116.4303 122.9946 L 112.4553 118.9511 Z " stroke-width="0.47614258126449927"/>
    <path id="ID0.9214867809787393" fill="#393C40" stroke="none" stroke-linecap="round" d="M 96.6289 135.8372 L 100.0596 131.9846 L 104.8979 131.5736 L 98.5669 135.6492 L 98.0011 138.5321 L 103.0109 139.1468 L 110.7637 143.2584 L 102.0594 140.3569 L 96.2399 139.6985 L 96.6289 135.8372 Z " stroke-width="0.47614258126449927"/>
    <path id="ID0.9214867809787393" fill="#393C40" stroke="none" stroke-linecap="round" d="M 134.7035 140.9004 L 132.4493 136.5983 L 128.2214 135.2054 L 133.0149 140.3207 L 132.9172 143.122 L 128.3223 142.6479 L 121.3997 144.7228 L 128.9179 143.9728 L 134.2438 144.5754 L 134.7035 140.9004 Z " stroke-width="0.4451788470171733"/>
    <path id="ID0.8679121839813888" fill="#2C2F31" stroke="none" stroke-linecap="round" d="M 114.5709 118.077 L 118.1739 120.1138 L 121.6705 118.8562 L 122.5097 119.9095 L 118.3067 122.1174 L 112.8334 119.2461 L 114.5709 118.077 Z " stroke-width="0.47614258126449927"/>
    <path id="ID0.24770551454275846" fill="none" stroke="#313537" stroke-width="0.9522851625289985" stroke-linecap="round" d="M 118.7923 116.5975 L 123.0038 120.6678 L 130.402 121.984 L 138.0924 121.7759 L 143.725 118.5797 "/>
    <path id="ID0.20603158557787538" fill="none" stroke="#313537" stroke-width="0.9522851625289985" stroke-linecap="round" d="M 86.1422 108.8768 L 92.5186 114.989 L 104.4585 119.5743 L 111.7406 119.7992 L 118.3328 116.5917 "/>
    <g id="ID0.5272086253389716">
      <path id="ID0.24770551454275846" fill="none" stroke="#363A3D" stroke-width="0.9522851033021936" stroke-linecap="round" d="M 85.828 141.5626 L 96.025 139.5297 "/>
      <path id="ID0.24770551454275846" fill="none" stroke="#363A3D" stroke-width="0.9522851033021936" stroke-linecap="round" d="M 84.6294 129.4576 L 105.625 125.5797 "/>
    </g>
    <g id="ID0.5272086253389716">
      <path id="ID0.24770551454275846" fill="none" stroke="#363A3D" stroke-width="0.9522850875537842" stroke-linecap="round" d="M 141.0272 146.8469 L 134.3387 144.2461 "/>
      <path id="ID0.24770551454275846" fill="none" stroke="#363A3D" stroke-width="0.9522850875537842" stroke-linecap="round" d="M 142.804 135.5714 L 129.5522 129.2808 "/>
    </g>
    <g id="ID0.7887678607366979">
      <path id="ID0.753661650698632" fill="none" stroke="#313537" stroke-width="0.9522851033021936" stroke-linecap="round" d="M 112.9151 119.1229 L 117.8518 122.0773 L 122.1678 119.9301 "/>
      <g id="ID0.8167418288066983">
        <path id="ID0.9553722990676761" fill="none" stroke="#313537" stroke-width="1.0409107759968197" stroke-linecap="round" d="M 116.8445 136.8717 L 111.5081 134.1116 L 105.5873 131.525 L 100.7396 131.9349 L 96.7721 135.7987 L 96.384 139.2288 "/>
        <path id="ID0.5982440118677914" fill="none" stroke="#313537" stroke-width="0.8540413649210775" stroke-linecap="round" d="M 105.9012 131.1721 L 105.3135 125.7785 L 111.3112 119.3544 "/>
      </g>
      <g id="ID0.7324484633281827">
        <path id="ID0.04993448918685317" fill="none" stroke="#313537" stroke-width="0.9522851033021936" stroke-linecap="round" d="M 117.8652 121.959 L 117.3973 132.448 L 116.0237 148.8243 L 114.4269 165.0556 "/>
        <g id="ID0.8167418288066983">
          <path id="ID0.9553722990676761" fill="none" stroke="#313537" stroke-width="0.9699703333862432" stroke-linecap="round" d="M 117.1019 136.7873 L 122.258 136.005 L 127.8681 134.723 L 131.9306 136.1409 L 134.5147 140.7459 L 134.1266 144.1761 "/>
          <path id="ID0.5982440118677914" fill="none" stroke="#313537" stroke-width="0.7916616404405548" stroke-linecap="round" d="M 127.6582 134.3776 L 129.2936 129.2356 L 125.5095 121.7047 "/>
          <path id="ID0.3567589442245662" fill="none" stroke="#313537" stroke-width="0.8967655311841789" stroke-linecap="round" d="M 115.8498 149.4247 L 121.5068 145.0573 L 129.0032 143.9887 L 134.4961 144.6102 L 136.2005 149.475 L 135.7023 156.4865 L 130.1083 156.5724 L 124.1426 159.0121 L 119.2798 158.2224 L 114.8916 159.5708 L 109.3675 156.4301 L 103.7854 156.0382 L 97.7457 152.2402 L 91.5632 150.822 L 92.6856 143.881 L 95.7459 139.5553 L 101.9879 140.2615 L 110.0548 143.0908 L 115.2797 148.6894 Z "/>
        </g>
      </g>
    </g>
    <g id="ID0.9312638868577778">
      <path id="ID0.2888958193361759" fill="#393C40" stroke="none" stroke-linecap="round" d="M 95.0496 159.9459 L 104.9676 163.1655 L 104.0487 165.996 L 94.1307 162.7764 L 95.0496 159.9459 Z " stroke-width="0.4761425524669811"/>
      <path id="ID0.2888958193361759" fill="#393C40" stroke="none" stroke-linecap="round" d="M 84.6909 156.6784 L 95.8176 160.4155 L 94.8987 163.246 L 84.9807 160.0264 L 84.6909 156.6784 Z " stroke-width="0.4761425524669811"/>
      <g id="ID0.36424446757882833">
        <path id="ID0.7359844641759992" fill="#8A7B59" stroke="none" d="M 98.0946 159.4952 L 99.6086 159.6665 L 98.9074 165.8645 L 97.3934 165.6932 L 98.0946 159.4952 Z " stroke-width="0.4761425516510968"/>
        <path id="ID0.7359844641759992" fill="#8A7B59" stroke="none" d="M 96.2446 158.8952 L 97.7586 159.0665 L 97.0574 165.2645 L 95.5434 165.0932 L 96.2446 158.8952 Z " stroke-width="0.4761425516510968"/>
        <path id="ID0.7359844641759992" fill="#8A7B59" stroke="none" d="M 94.4446 157.9952 L 95.9586 158.1665 L 95.2574 164.3645 L 93.7434 164.1932 L 94.4446 157.9952 Z " stroke-width="0.4761425516510968"/>
        <path id="ID0.7359844641759992" fill="#8A7B59" stroke="none" d="M 99.9446 160.2452 L 101.4586 160.4165 L 100.7574 166.6145 L 99.2434 166.4432 L 99.9446 160.2452 Z " stroke-width="0.4761425516510968"/>
      </g>
      <g id="ID0.1049797898158431">
        <path id="ID0.08871637750416994" fill="#8A7B59" stroke="none" stroke-linecap="round" d="M 86.4465 156.1382 L 92.6922 157.8991 L 92.016 163.4529 L 86.0094 161.6952 L 86.4465 156.1382 Z " stroke-width="0.4761425516510968"/>
        <path id="ID0.13805592898279428" fill="#76694C" stroke="none" stroke-linecap="round" d="M 86.3064 155.8844 L 92.8597 157.68 L 92.6305 160.5531 L 86.0643 158.6602 L 86.3064 155.8844 Z " stroke-width="0.4761425516510968"/>
        <path id="ID0.3221200187690556" fill="#61563F" stroke="none" stroke-linecap="round" d="M 89.0328 158.368 L 89.8651 158.8262 L 89.7446 160.5809 L 88.8323 160.1396 L 89.0328 158.368 Z " stroke-width="0.5167888865185011"/>
        <path id="ID0.1420820001512766" fill="#BAA578" stroke="none" stroke-linecap="round" d="M 91.4724 162.4805 L 92.3427 161.1414 L 92.1304 163.4414 L 86.0212 161.744 L 91.4724 162.4805 Z " stroke-width="0.4761425516510968"/>
      </g>
      <path id="ID0.2888958193361759" fill="#393C40" stroke="none" stroke-linecap="round" d="M 132.4856 164.4838 L 124.9054 165.4509 L 125.0497 168.0199 L 132.6299 167.0528 L 132.4856 164.4838 Z " stroke-width="0.38104699771528144"/>
      <path id="ID0.2888958193361759" fill="#393C40" stroke="none" stroke-linecap="round" d="M 139.1749 163.4086 L 132.0054 164.5509 L 132.1497 167.1199 L 138.4285 166.2568 L 139.1749 163.4086 Z " stroke-width="0.38104699771528144"/>
      <path id="ID0.7359844641759992" fill="#8A7B59" stroke="none" d="M 130.5841 163.2327 L 129.484 163.1082 L 128.8741 168.4998 L 129.9741 168.6243 L 130.5841 163.2327 Z " stroke-width="0.3816028085205802"/>
      <path id="ID0.7359844641759992" fill="#8A7B59" stroke="none" d="M 131.9841 162.9327 L 130.884 162.8082 L 130.2741 168.1998 L 131.3741 168.3243 L 131.9841 162.9327 Z " stroke-width="0.3816028085205802"/>
      <path id="ID0.7359844641759992" fill="#8A7B59" stroke="none" d="M 133.5341 162.6327 L 132.434 162.5082 L 131.8241 167.8998 L 132.9241 168.0243 L 133.5341 162.6327 Z " stroke-width="0.3816028085205802"/>
      <path id="ID0.7359844641759992" fill="#8A7B59" stroke="none" d="M 129.0841 163.6827 L 127.984 163.5582 L 127.3741 168.9498 L 128.4741 169.0743 L 129.0841 163.6827 Z " stroke-width="0.3816028085205802"/>
      <g id="ID0.1049797898158431">
        <path id="ID0.08871637750416994" fill="#8A7B59" stroke="none" stroke-linecap="round" d="M 139.5431 162.4321 L 134.5217 162.8384 L 133.9769 167.9807 L 138.8182 167.5319 L 139.5431 162.4321 Z " stroke-width="0.40545297207057784"/>
        <path id="ID0.13805592898279428" fill="#76694C" stroke="none" stroke-linecap="round" d="M 139.7755 162.2556 L 134.5168 162.635 L 134.1444 165.2724 L 139.4313 164.8076 L 139.7755 162.2556 Z " stroke-width="0.40545297207057784"/>
        <path id="ID0.3221200187690556" fill="#61563F" stroke="none" stroke-linecap="round" d="M 137.4929 163.9974 L 136.7814 164.2534 L 136.5394 165.8604 L 137.3077 165.6349 L 137.4929 163.9974 Z " stroke-width="0.44006482257878893"/>
        <path id="ID0.1420820001512766" fill="#BAA578" stroke="none" stroke-linecap="round" d="M 134.6389 167.227 L 134.2395 165.8532 L 133.963 167.9699 L 138.8699 167.595 L 134.6389 167.227 Z " stroke-width="0.40545297207057784"/>
      </g>
      <g id="ID0.6836685389280319">
        <path id="ID0.09357938077300787" fill="#857656" stroke="none" d="M 105.8575 160.351 L 123.7179 162.3717 L 122.9953 168.7588 L 105.1349 166.7382 L 105.8575 160.351 Z " stroke-width="0.42833207646145216"/>
        <path id="ID0.6492703901603818" fill="#7C6E50" stroke="none" stroke-linecap="round" d="M 106.3949 162.6022 L 114.2084 166.6009 L 123.3327 164.5185 L 122.8537 168.753 L 105.9158 166.8367 L 106.3949 162.6022 Z " stroke-width="0.4761425516510968"/>
        <g id="ID0.9254062357358634">
          <g id="ID0.49943465692922473">
            <path id="ID0.140373723115772" fill="#968561" stroke="none" d="M 122.3626 161.0042 L 127.4487 161.5796 L 126.4317 170.5689 L 121.3456 169.9935 L 122.3626 161.0042 Z " stroke-width="0.4761425516510968"/>
            <path id="ID0.8286363878287375" fill="#BAA578" stroke="none" stroke-linecap="round" d="M 122.3777 160.8519 L 127.5553 161.6772 L 123.3535 161.9685 L 122.0954 163.9825 L 122.3777 160.8519 Z " stroke-width="0.4761425516510968"/>
            <path id="ID0.7362233307212591" fill="#8A7B59" stroke="none" stroke-linecap="round" d="M 121.7163 166.9105 L 124.4077 167.263 L 127.1173 165.1257 L 126.4883 170.6849 L 121.3549 170.1041 L 121.7163 166.9105 Z " stroke-width="0.4761425516510968"/>
          </g>
          <g id="ID0.49943465692922473">
            <path id="ID0.140373723115772" fill="#968561" stroke="none" d="M 107.3958 159.5626 L 102.3098 158.9872 L 101.2927 167.9765 L 106.3788 168.552 L 107.3958 159.5626 Z " stroke-width="0.4761425516510968"/>
            <path id="ID0.8286363878287375" fill="#BAA578" stroke="none" stroke-linecap="round" d="M 107.4932 159.3961 L 102.2621 159.0438 L 106.2926 160.2665 L 107.069 162.5107 L 107.4932 159.3961 Z " stroke-width="0.4761425516510968"/>
            <path id="ID0.7362233307212591" fill="#8A7B59" stroke="none" stroke-linecap="round" d="M 106.7844 165.4494 L 104.0823 165.1916 L 101.9187 162.503 L 101.2897 168.0622 L 106.4231 168.643 L 106.7844 165.4494 Z " stroke-width="0.4761425516510968"/>
          </g>
        </g>
      </g>
    </g>
  </g>
  <g id="ID0.8333355090580881">
    <path id="ID0.9286923445761204" fill="#27282B" stroke="none" stroke-linecap="round" d="M 111.8362 43.7031 L 130.4291 46.8988 L 128.6683 71.1944 L 143.1852 79.7046 L 119.3847 88.9154 L 84.0277 73.0576 L 104.7949 64.3323 L 111.8362 43.7031 Z " stroke-width="0.4761426054831141"/>
    <path id="ID0.5448851804248989" fill="none" stroke="#1D1E1F" stroke-width="0.9522852109662282" stroke-linecap="round" d="M 106.746 58.7264 L 105.0021 64.1601 L 121.3025 73.5519 L 128.3751 71.263 "/>
    <path id="ID0.262191956397146" fill="none" stroke="#1D1E1F" stroke-width="0.9522852109662282" stroke-linecap="round" d="M 109.0416 63.9108 L 121.133 71.2411 L 124.2227 70.4022 "/>
  </g>
  <g id="ID0.3450673264451325">
    <g id="ID0.9831569031812251">
      <path id="ID0.0877610077150166" fill="#2E3034" stroke="none" stroke-linecap="round" d="M 135.1491 13.73 L 130.3831 0.6825 L 130.8054 29.208 L 138.476 29.0944 L 135.1491 13.73 Z " stroke-width="0.5866066839229411"/>
      <path id="ID0.796130308881402" fill="#242628" stroke="none" stroke-linecap="round" d="M 135.4287 13.7554 L 130.3071 0.7131 L 134.0679 14.497 L 135.228 29.3688 L 138.3986 29.0267 L 135.4287 13.7554 Z " stroke-width="0.5866066839229411"/>
    </g>
    <g id="ID0.9831569031812251">
      <path id="ID0.0877610077150166" fill="#2E3034" stroke="none" stroke-linecap="round" d="M 111.3223 14.2273 L 115.7 1.0445 L 116.1223 29.5699 L 108.4518 29.6835 L 111.3223 14.2273 Z " stroke-width="0.5866066839229411"/>
      <path id="ID0.796130308881402" fill="#242628" stroke="none" stroke-linecap="round" d="M 110.9334 14.2932 L 115.6667 1.1051 L 112.3157 14.9942 L 111.4391 29.5682 L 108.4171 29.6458 L 110.9334 14.2932 Z " stroke-width="0.5866066839229411"/>
    </g>
    <path id="ID0.8999492498114705" fill="#2E3034" stroke="none" stroke-linecap="round" d="M 128.9987 19.7821 C 133.4095 20.1959 138.181 22.8359 140.3705 26.6869 C 142.8688 31.0835 141.0041 36.7103 141.3778 41.7008 C 141.5762 43.4015 142.3946 45.1423 142.088 46.7712 C 141.4633 50.0846 139.8343 53.138 138.8001 56.3467 C 138.1224 58.4495 138.0029 60.8063 136.8622 62.7265 C 135.5799 64.9984 134.2837 68.152 131.6911 68.6461 C 127.8475 69.3783 123.7442 67.5977 120.269 65.8937 C 117.4142 64.4935 114.7282 62.3211 113.113 59.5723 C 110.2175 54.4697 107.573 48.8482 107.1003 42.9705 C 106.5765 36.4548 105.687 28.401 110.3704 23.6145 C 114.5549 19.0107 122.4419 19.1698 128.9987 19.7821 Z " stroke-width="0.508037274578331"/>
    <path id="ID0.2441388238221407" fill="#AB8E85" stroke="none" d="M 126.9727 44.7019 C 131.055 44.8085 136.4466 41.5636 139.2121 44.2695 C 141.7054 46.8237 138.4095 51.7344 137.4903 55.222 C 136.5746 58.6908 135.9418 62.4392 133.7464 65.3253 C 132.6978 66.6093 130.4738 66.7139 128.7394 66.467 C 125.6204 66.0196 122.54 64.7816 119.9192 63.0294 C 117.2071 61.2169 113.6297 59.2402 113.0106 56.0241 C 112.2269 51.95 112.8112 46.5456 115.9714 43.9228 C 118.8714 41.6304 123.3013 44.6056 126.9727 44.7019 Z " stroke-width="1.2558401240705548"/>
    <path id="ID0.46721756737679243" fill="#A2887F" stroke="none" stroke-linecap="round" d="M 112.445 46.0222 L 114.1315 46.6831 L 140.1346 45.917 L 132.9964 51.1037 L 116.222 48.8878 L 117.3749 51.2587 L 117.712 56.8682 L 121.4505 64.0023 L 116.7797 57.3901 L 112.445 46.0222 Z " stroke-width="0.508037274578331"/>
    <path id="ID0.8256730306893587" fill="none" stroke="#937B73" stroke-width="1.016074549156662" stroke-linecap="round" d="M 123.5668 57.6375 C 123.5668 57.6375 126.2568 57.0012 127.619 56.79 C 127.9596 56.7372 128.2991 56.8099 128.6361 56.8511 C 128.9786 56.8933 129.3103 57.0561 129.655 57.0393 C 130.3384 57.0063 131.0045 56.7993 131.6824 56.7044 C 132.0186 56.6572 132.3579 56.6141 132.6973 56.6131 C 133.0372 56.6122 133.3824 56.6274 133.7147 56.6997 C 134.2612 56.8186 135.3224 57.184 135.3224 57.184 "/>
    <path id="ID0.7592270169407129" fill="none" stroke="#937B73" stroke-width="1.016074549156662" stroke-linecap="round" d="M 132.0491 58.8364 C 132.0491 58.8364 131.4325 59.1905 131.09 59.257 C 130.7576 59.3219 130.4096 59.1823 130.0733 59.2213 C 129.735 59.2608 129.4236 59.4423 129.0865 59.4899 C 128.7513 59.5376 128.4013 59.5753 128.0705 59.505 C 127.7892 59.4451 127.3025 59.1099 127.3025 59.1099 "/>
    <path id="ID0.5332203092984855" fill="none" stroke="#937B73" stroke-width="1.016074549156662" stroke-linecap="round" d="M 126.0623 49.4788 C 126.0623 49.4788 125.4632 49.9196 125.3624 50.2513 C 125.2318 50.6958 124.9898 51.5443 125.4369 51.8507 C 126.0218 52.1322 126.7695 51.394 127.4632 51.4396 C 128.1346 51.4866 129.4518 51.9183 129.4518 51.9183 "/>
    <path id="ID0.2278452254831791" fill="none" stroke="#937B73" stroke-width="1.016074549156662" stroke-linecap="round" d="M 130.3514 45.757 C 130.3514 45.757 131.3132 47.6055 131.7897 48.5303 C 131.9493 48.8399 132.1245 49.1431 132.2608 49.4632 C 132.3971 49.7834 132.6142 50.1013 132.6057 50.4489 C 132.5971 50.7976 132.3956 51.1227 132.2136 51.4201 C 132.092 51.619 131.7127 51.9102 131.7127 51.9102 "/>
    <path id="ID0.6473136460408568" fill="none" stroke="#937B73" stroke-width="1.0160746386017827" stroke-linecap="round" d="M 130.8437 62.7015 C 130.8437 62.7015 131.1699 63.3316 131.2258 63.6754 C 131.2799 64.0101 131.225 64.3585 131.1664 64.6926 C 131.0785 65.1959 130.7878 66.1796 130.7878 66.1796 "/>
    <path id="ID0.11669129692018032" fill="#2E3034" stroke="none" stroke-linecap="round" d="M 114.2964 40.6598 L 137.5629 42.0936 L 141.5392 44.7022 L 132.2111 49.5402 L 111.4733 47.3068 L 114.2964 40.6598 Z " stroke-width="0.508037274578331"/>
    <path id="ID0.14635155349969864" fill="#2E3034" stroke="none" stroke-linecap="round" d="M 111.7073 45.9569 L 113.5671 46.3104 L 116.2857 51.4781 L 116.6759 57.2392 L 118.561 61.022 L 121.5088 64.5096 L 113.2024 59.4246 L 111.7073 45.9569 Z " stroke-width="0.508037274578331"/>
    <path id="ID0.28340246016159654" fill="#1C1D1F" stroke="none" stroke-linecap="round" d="M 114.4136 37.5132 L 117.8656 39.0016 L 127.5456 39.7495 L 127.6308 45.501 L 120.6772 44.6586 L 116.7999 43.6357 L 114.7524 42.1536 L 113.8627 40.4382 L 114.4136 37.5132 Z " stroke-width="0.5401026635169734"/>
    <path id="ID0.6101007834076881" fill="#FFFFFF" stroke="none" stroke-linecap="round" d="M 118.1648 40.0009 L 119.8233 40.3762 L 123.6206 41.5213 L 124.1944 43.4813 L 118.9187 42.1063 L 118.1648 40.0009 Z " stroke-width="0.4061062124716378"/>
    <path id="ID0.28340246016159654" fill="#1C1D1F" stroke="none" stroke-linecap="round" d="M 139.8876 37.1733 L 136.8499 38.591 L 128.2416 39.5133 L 128.3175 44.642 L 134.4932 43.7076 L 137.9222 42.6935 L 139.7081 41.3184 L 140.4558 39.7659 L 139.8876 37.1733 Z " stroke-width="0.48162502224890263"/>
    <path id="ID0.6101007834076881" fill="#FFFFFF" stroke="none" stroke-linecap="round" d="M 138.2447 39.2499 L 136.7107 39.7641 L 133.2259 41.2118 L 132.8705 43.1222 L 137.7327 41.3152 L 138.2447 39.2499 Z " stroke-width="0.38638675757841184"/>
    <g id="ID0.07940126257017255">
      <path id="ID0.46257128613069654" fill="#27282B" stroke="none" stroke-linecap="round" d="M 127.7216 39.5743 L 132.2123 49.4664 L 122.1608 48.345 L 127.7216 39.5743 Z " stroke-width="0.508037274578331"/>
      <path id="ID0.9845890481956303" fill="#27282B" stroke="none" stroke-linecap="round" d="M 128.534 39.6868 L 136.9232 46.93 L 132.2873 49.5391 L 128.534 39.6868 Z " stroke-width="0.508037274578331"/>
    </g>
    <path id="ID0.20071752788498998" fill="#202324" stroke="none" d="M 119.1657 35.129 L 123.3437 37.633 L 128.1106 38.7311 L 128.2075 40.1269 L 120.4166 38.972 L 114.4894 36.7225 L 116.1902 34.919 L 119.1657 35.129 Z " stroke-width="0.508037274578331"/>
    <path id="ID0.20071752788498998" fill="#202324" stroke="none" d="M 136.1598 34.6645 L 133.1434 37.1564 L 127.9235 38.7953 L 127.8725 40.078 L 134.9858 38.8073 L 140.3852 36.6996 L 138.8142 34.4853 L 136.1598 34.6645 Z " stroke-width="0.4660980094012626"/>
    <path id="ID0.521138689480722" fill="none" stroke="#212325" stroke-width="0.9060627765945024" stroke-linecap="round" d="M 139.9649 36.88 L 136.7495 38.5134 L 128.2293 39.8855 "/>
    <path id="ID0.17828734638169408" fill="none" stroke="#202324" stroke-width="1.016074549156662" stroke-linecap="round" d="M 132.1013 48.9829 L 129.0732 41.7874 C 128.0367 39.3832 128.1934 39.9495 127.9901 38.9836 C 127.9191 38.6462 128.132 38.3067 128.1782 37.9646 C 128.2236 37.6276 128.2825 37.2868 128.2648 36.9471 C 128.247 36.6039 128.143 36.2696 128.072 35.9338 C 127.9611 35.4095 127.7185 34.3639 127.7185 34.3639 "/>
    <path id="ID0.521138689480722" fill="none" stroke="#212325" stroke-width="1.016074549156662" stroke-linecap="round" d="M 114.6843 36.9908 L 118.3427 38.7149 L 127.9388 39.9701 "/>
    <path id="ID0.8012696979567409" fill="none" stroke="url(#grad_1)" stroke-width="1.016074549156662" stroke-linecap="round" d="M 140.1278 45.4599 L 132.7184 49.4819 L 114.0916 47.4204 L 116.1299 51.2518 L 116.525 57.343 L 118.5087 60.9211 L 121.458 64.5103 "/>
    <path id="ID0.043594349175691605" fill="#D7E2FD" stroke="none" stroke-linecap="round" d="M 123.4872 42.5381 L 123.6992 41.4171 L 124.2377 43.4669 L 121.6361 42.7687 L 123.4872 42.5381 Z " stroke-width="0.508037274578331"/>
    <path id="ID0.043594349175691605" fill="#D7E2FD" stroke="none" stroke-linecap="round" d="M 133.5623 42.269 L 133.2823 41.2703 L 132.9554 43.1691 L 135.257 42.3327 L 133.5623 42.269 Z " stroke-width="0.46186428276235214"/>
  </g>
  <g id="ID0.7397577832452953">
    <path id="ID0.6726378230378032" fill="#34373A" stroke="none" stroke-linecap="round" d="M 199.3145 122.0891 L 184.6106 112.2139 L 183.0183 113.8951 L 197.6849 123.3526 L 199.3145 122.0891 Z " stroke-width="0.7788099430201563"/>
    <path id="ID0.6507829907350242" fill="#1D1E1F" stroke="none" stroke-linecap="round" d="M 199.8558 125.4077 L 182.9815 113.6644 L 167.0097 122.2042 L 158.8617 128.5214 L 145.1446 135.4807 L 139.324 137.7787 L 142.7851 148.9041 L 148.4295 146.2588 L 157.5568 143.593 L 169.3817 140.6503 L 178.3354 138.0726 L 199.8558 125.4077 Z " stroke-width="0.7788099430201563"/>
    <path id="ID0.6829322893172503" fill="#1D1E1F" stroke="none" stroke-linecap="round" d="M 143.3086 149.0752 L 143.1567 138.0175 L 137.0591 137.6179 L 130.2619 136.6999 L 125.4001 139.1665 L 121.6708 141.7135 L 119.9472 144.7712 L 114.834 148.8937 L 117.0337 152.7992 L 119.2986 152.9601 L 120.177 154.261 L 123.8437 155.894 L 127.9458 157.5244 L 132.6467 157.3227 L 138.3715 153.5449 L 143.3086 149.0752 Z " stroke-width="0.7788099430201563"/>
    <path id="ID0.47767175547778606" fill="none" stroke="#0D0D0D" stroke-width="1.5576198860403125" stroke-linecap="round" d="M 196.4873 127.1167 L 199.8367 125.1118 L 183.0167 113.7338 L 171.2464 120.0548 "/>
    <path id="ID0.5922487881034613" fill="#282A2B" stroke="none" stroke-linecap="round" d="M 171.2903 140.965 L 173.0346 132.5259 L 170.3224 127.3521 L 162.5742 124.6459 L 150.4462 132.3273 L 146.0478 139.5803 L 147.5454 142.5321 L 156.439 144.5698 L 171.2903 140.965 Z " stroke-width="0.7788099430201563"/>
    <path id="ID0.36820242274552584" fill="#151616" stroke="none" stroke-linecap="round" d="M 166.4077 136.7904 L 162.8125 129.532 L 154.1824 136.7923 L 154.9037 138.042 L 166.4077 136.7904 Z " stroke-width="0.7788099430201563"/>
    <path id="ID0.13569410238415003" fill="none" stroke="#232425" stroke-width="1.5576198860403125" stroke-linecap="round" d="M 157.2174 142.1496 L 148.6389 140.3887 L 152.6346 132.7723 "/>
    <path id="ID0.024502143263816833" fill="none" stroke="#0D0D0D" stroke-width="1.5576198860403125" stroke-linecap="round" d="M 171.3658 140.4297 L 173.1494 132.7566 L 170.7502 127.5113 L 162.9669 124.7357 L 156.0618 129.1996 "/>
  </g>
  <g id="ID0.7223842772655189">
    <path id="ID0.5368814701214433" fill="#303436" stroke="none" stroke-linecap="round" d="M 34.9411 281.6463 L 44.2215 282.0437 L 54.3359 283.875 L 51.3828 295.0606 L 47.0657 307.9673 L 41.8112 327.5703 L 35.8272 330.3645 L 28.037 306.8983 L 25.8432 285.4511 L 34.9411 281.6463 Z " stroke-width="0.770216559380962"/>
    <path id="ID0.05466862628236413" fill="#303436" stroke="none" stroke-linecap="round" d="M 76.3017 216.9267 L 101.1773 226.7349 L 87.5744 240.6697 L 83.7027 244.261 L 74.1766 259.7014 L 51.2051 293.3626 L 36.6701 287.2027 L 45.7776 266.9029 L 47.7007 258.0539 L 51.2309 249.2132 L 59.7509 238.5265 L 65.8772 227.8363 L 76.3017 216.9267 Z " stroke-width="0.7305889518357269"/>
    <path id="ID0.4490455654449761" fill="none" stroke="#272A2B" stroke-width="1.6585523555324926" stroke-linecap="round" d="M 75.6318 217.6485 L 100.6906 227.1163 L 82.6665 244.9204 "/>
    <path id="ID0.10446935473009944" fill="none" stroke="#242728" stroke-width="1.6585523555324926" stroke-linecap="round" d="M 76.2408 255.4518 L 67.7262 269.9787 L 54.9266 271.1005 "/>
    <path id="ID0.42170455446466804" fill="none" stroke="#242728" stroke-width="1.6585523555324926" stroke-linecap="round" d="M 66.1908 270.4404 L 57.4376 282.7849 L 44.3507 283.9653 "/>
    <path id="ID0.047098892275244" fill="none" stroke="#242728" stroke-width="1.6585523555324926" stroke-linecap="round" d="M 65.9526 228.3845 L 63.5959 231.5422 L 63.0944 241.4609 "/>
  </g>
</svg>