<svg xmlns="http://www.w3.org/2000/svg" xmlns:xlink="http://www.w3.org/1999/xlink" version="1.1" width="287.59635175714175" height="309.6657792473761" viewBox="-0.12119061474640591 0.8638933228985526 287.59635175714175 309.6657792473761">
  <!-- Exported by Scratch - http://scratch.mit.edu/ -->
  <g id="ID0.7085462282411754">
    <g id="ID0.5880346246995032">
      <path id="ID0.6829322893172503" fill="#796B5E" stroke="none" stroke-linecap="round" d="M 130.1319 167.4698 L 142.2724 167.6723 L 142.6208 174.4448 L 143.528 181.996 L 140.7472 187.3874 L 137.8949 191.521 L 134.5115 193.4257 L 129.9086 199.0913 L 125.6525 196.6366 L 125.5094 194.1209 L 124.0938 193.1415 L 122.355 189.0646 L 120.6255 184.5043 L 120.9168 179.2846 L 125.1502 172.9388 L 130.1319 167.4698 Z " stroke-width="0.860103544862228"/>
      <g id="ID0.9434720128774643">
        <path id="ID0.6507829907350242" fill="#2C3134" stroke="none" stroke-linecap="round" d="M 156.4109 103.5467 L 169.0563 122.3214 L 159.5634 137.654 L 152.3834 149.061 L 144.5376 164.2725 L 143.2999 171.979 L 128.416 167.2267 L 132.7506 160.5916 L 135.8134 150.464 L 139.2204 137.3414 L 144.9382 124.3937 L 156.4109 103.5467 Z " stroke-width="0.860103544862228"/>
        <path id="ID0.9892375003546476" fill="none" stroke="#191919" stroke-width="2.106910174198116" stroke-linecap="round" d="M 129.255 166.5927 L 143.1176 170.5038 L 144.934 161.2806 "/>
      </g>
    </g>
    <path id="ID0.7729651997797191" fill="#2C3134" stroke="none" stroke-linecap="round" d="M 171.1756 74.3075 L 194.9132 81.6749 L 185.4322 101.095 L 177.8482 110.3987 L 173.2499 119.1221 L 167.8254 126.8059 L 152.3254 117.8885 L 152.4022 110.3131 L 164.996 87.7251 L 171.1756 74.3075 Z " stroke-width="1.0101170654897502"/>
    <path id="ID0.4757494777441025" fill="#2C3134" stroke="none" stroke-linecap="round" d="M 187.9395 62.8165 L 197.3342 64.1661 L 211.286 75.4041 L 192.9526 97.1559 L 180.6404 97.8969 L 175.7057 97.1261 L 173.4512 93.4867 L 171.7897 89.4058 L 167.1389 84.5237 L 169.2016 79.0877 L 173.138 71.411 L 179.6604 64.5087 L 187.9395 62.8165 Z " stroke-width="0.5087011852918293"/>
  </g>
  <g id="ID0.6688785348087549">
    <path id="ID0.5368814701214433" fill="#343434" stroke="none" stroke-linecap="round" d="M 129.1344 189.1565 L 130.4465 179.0247 L 130.3613 167.7197 L 117.6848 168.8196 L 102.8871 171.0743 L 80.6565 173.0875 L 76.5046 179.0476 L 100.4722 191.8966 L 123.3027 198.3015 L 129.1344 189.1565 Z " stroke-width="0.8471283342911995"/>
    <g id="ID0.5077062323689461">
      <path id="ID0.05466862628236413" fill="#252525" stroke="none" stroke-linecap="round" d="M 162.2265 116.796 L 142.2834 103.1818 L 137.0643 118.5835 L 135.4309 123.9127 L 128.5882 138.2992 L 110.3822 170.136 L 130.168 182.9321 L 140.3613 164.9467 L 145.9984 159.0224 L 150.8142 151.9016 L 154.4792 140.1161 L 159.3606 130.1175 L 162.2265 116.796 Z " stroke-width="0.6597530586189023"/>
      <path id="ID0.5319394422695041" fill="none" stroke="#131313" stroke-width="2.1997146171461615" stroke-linecap="round" d="M 110.9834 169.431 L 130.1938 183.4512 L 136.6246 172.5043 "/>
    </g>
  </g>
  <g id="ID0.8820344842970371">
    <path id="ID0.3809091211296618" fill="#252525" stroke="none" stroke-linecap="round" d="M 187.4354 185.7958 L 227.0918 175.5549 L 208.8589 156.0727 L 173.4927 115.9334 L 164.6051 108.1135 L 152.6133 102.6767 L 148.1699 110.7552 L 137.2663 120.0338 L 154.0043 137.1585 L 163.2184 148.6837 L 187.4354 185.7958 Z " stroke-width="0.8035436656303547"/>
    <path id="ID0.9495224836282432" fill="none" stroke="#131313" stroke-width="2.1997147267116404" stroke-linecap="round" d="M 173.3125 115.8414 L 166.5777 109.3573 L 158.7135 104.8393 L 148.664 108.1413 L 143.9395 105.1194 "/>
  </g>
  <g id="ID0.7085462282411754">
    <g id="ID0.5880346246995032">
      <path id="ID0.6829322893172503" fill="#796B5E" stroke="none" stroke-linecap="round" d="M 281.4109 186.4286 L 269.8402 182.7474 L 267.3494 189.0549 L 264.0806 195.9221 L 264.9961 201.9189 L 266.3806 206.7464 L 268.9796 209.631 L 271.5345 216.469 L 276.3514 215.5003 L 277.2895 213.1618 L 278.9436 212.6851 L 281.8921 209.376 L 284.9861 205.6057 L 286.3753 200.5658 L 284.3875 193.201 L 281.4109 186.4286 Z " stroke-width="0.860103543738539"/>
      <g id="ID0.9434720128774643">
        <path id="ID0.6507829907350242" fill="#2C3134" stroke="none" stroke-linecap="round" d="M 276.8437 117.4239 L 258.8696 131.1834 L 262.975 148.7432 L 266.1407 161.8448 L 268.7238 178.7644 L 267.4383 186.4631 L 283.0605 186.7074 L 281.0691 179.0362 L 281.3974 168.4607 L 282.3548 154.9369 L 281.0663 140.8416 L 276.8437 117.4239 Z " stroke-width="0.860103543738539"/>
        <path id="ID0.9892375003546476" fill="none" stroke="#191919" stroke-width="2.106910173892899" stroke-linecap="round" d="M 282.3832 185.9734 L 267.9973 185.2577 L 269.2182 175.937 "/>
      </g>
    </g>
    <path id="ID0.7729651997797191" fill="#2C3134" stroke="none" stroke-linecap="round" d="M 272.2088 84.9801 L 247.3612 84.3897 L 250.1514 105.8196 L 254.3709 117.0567 L 255.9461 126.7913 L 258.6358 135.804 L 276.1707 132.2974 L 278.5147 125.0933 L 273.7849 99.668 L 272.2088 84.9801 Z " stroke-width="1.0101169804377628"/>
    <path id="ID0.4757494777441025" fill="#2C3134" stroke="none" stroke-linecap="round" d="M 260.0105 68.719 L 250.6761 67.001 L 233.8681 73.2008 L 244.3043 99.6648 L 255.7368 104.295 L 260.6595 105.1386 L 263.9572 102.4087 L 266.8338 99.0711 L 272.7992 95.9278 L 272.5784 90.1178 L 271.2967 81.5865 L 267.3171 72.964 L 260.0105 68.719 Z " stroke-width="0.508701167313651"/>
  </g>
  <g id="ID0.8990198895335197">
    <path id="ID0.17576928716152906" fill="#DBDBDB" stroke="none" d="M 220.973 60.517 L 221.2338 60.5334 L 221.2338 60.5334 L 220.973 60.517 L 220.973 60.517 Z " stroke-width="1.0534572489367935"/>
    <path id="ID0.4270821204409003" fill="#252525" stroke="none" stroke-linecap="round" d="M 214.9153 189.9953 L 222.6676 70.5475 L 204.3974 72.04 L 196.9952 76.2856 L 193.8305 80.4542 L 185.9845 92.2698 L 186.2619 103.4109 L 187.0115 109.2598 L 184.9622 116.5101 L 184.22 122.297 L 186.149 129.7126 L 187.6054 135.3379 L 188.4333 145.2371 L 185.8872 168.4024 L 190.8905 177.3368 L 195.6102 184.1347 L 214.9153 189.9953 Z " stroke-width="0.501595785399862"/>
    <path id="ID0.4270821204409003" fill="#252525" stroke="none" stroke-linecap="round" d="M 214.9446 190.0375 L 222.1667 70.5565 L 240.1077 74.3184 L 246.9219 79.455 L 249.5413 83.9862 L 255.8507 96.6889 L 254.1844 107.7082 L 252.7104 113.4177 L 253.8384 120.8672 L 253.8522 126.7015 L 251.0125 133.8181 L 248.8651 139.2176 L 246.8077 148.936 L 246.4415 172.2379 L 240.3619 180.4777 L 243.3692 198.0518 L 214.9446 190.0375 Z " stroke-width="0.5015958026200296"/>
    <path id="ID0.5114514343440533" fill="#282828" stroke="none" d="M 249.5709 73.5332 L 194.2795 70.0679 L 188.4195 163.5681 L 243.7109 167.0334 L 249.5709 73.5332 Z " stroke-width="1.0624883561200273"/>
    <path id="ID0.9286923445761204" fill="#D4D4D4" stroke="none" stroke-linecap="round" d="M 233.7187 57.9846 L 216.9316 37.0036 L 223.1041 57.4713 L 219.1004 100.2686 L 260.6182 71.9772 L 240.3243 59.2089 L 233.7187 57.9846 Z " stroke-width="0.5015958626722967"/>
    <path id="ID0.9286923445761204" fill="#D4D4D4" stroke="none" stroke-linecap="round" d="M 216.8181 55.7686 L 232.3524 38.2567 L 223.6727 57.7935 L 219.7503 100.0895 L 184.641 67.5021 L 206.0642 56.2847 L 216.8181 55.7686 Z " stroke-width="0.5015958626722967"/>
    <path id="ID0.39874776685610414" fill="#1F2022" stroke="none" stroke-linecap="round" d="M 242.2854 60.2244 L 220.9013 69.3833 L 202.8558 58.7209 L 198.5376 60.7243 L 220.8543 73.3961 L 246.0772 62.5425 L 242.2854 60.2244 Z " stroke-width="0.9935621547785666"/>
    <path id="ID0.13444371055811644" fill="#1F1F1F" stroke="none" stroke-linecap="round" d="M 223.1845 71.5061 L 217.7241 70.898 L 212.9106 100.9104 L 225.4484 102.2281 L 223.1845 71.5061 Z " stroke-width="1.0534572489367935"/>
    <path id="ID0.751046194229275" fill="#191919" stroke="none" stroke-linecap="round" d="M 225.9643 66.4048 L 221.2224 63.943 L 216.3822 65.8042 L 215.3937 74.2249 L 219.9182 75.5615 L 225.4348 74.8542 L 225.9643 66.4048 Z " stroke-width="1.1588030157999438"/>
    <path id="ID0.7854711129330099" fill="#282828" stroke="none" stroke-linecap="round" d="M 233.8583 89.9489 L 218.672 98.3041 L 204.9749 87.0751 L 205.8994 105.7469 L 230.1545 107.2671 L 233.8583 89.9489 Z " stroke-width="1.0534572489367935"/>
    <path id="ID0.562834897544235" fill="#282828" stroke="none" stroke-linecap="round" d="M 246.5847 166.7978 L 215.4087 158.7279 L 214.064 180.1826 L 228.3255 182.406 L 246.5847 166.7978 Z " stroke-width="1.0534572489367935"/>
    <path id="ID0.562834897544235" fill="#282828" stroke="none" stroke-linecap="round" d="M 183.1754 163.2029 L 215.1151 159.0886 L 213.7704 180.5434 L 199.343 180.9687 L 183.1754 163.2029 Z " stroke-width="1.0534572489367935"/>
    <path id="ID0.6824178956449032" fill="none" stroke="#191919" stroke-width="2.106914497873587" stroke-linecap="round" d="M 218.927 98.6517 L 214.0914 179.9841 "/>
    <path id="ID0.4144489667378366" fill="#40474C" stroke="none" stroke-linecap="round" d="M 261.3667 68.8044 L 240.7725 59.0045 L 242.4579 82.2446 L 235.0833 145.6016 L 242.0225 193.635 L 253.8301 189.0568 L 253.8585 192.7813 L 253.9161 141.7296 L 261.7434 96.2171 L 263.8656 79.0658 L 261.3667 68.8044 Z " stroke-width="1.0534572489367935"/>
    <path id="ID0.5234400681219995" fill="#101010" stroke="none" d="M 216.2278 104.3767 C 215.7973 104.3497 215.3958 104.5028 215.0952 104.7721 C 214.7946 105.0414 214.5949 105.4269 214.5675 105.8641 C 214.5401 106.3013 214.6901 106.7087 214.9547 107.0135 C 215.2194 107.3182 215.5986 107.5202 216.0291 107.5472 C 216.4596 107.5742 216.8611 107.4211 217.1617 107.1518 C 217.4623 106.8825 217.662 106.4969 217.6894 106.0598 C 217.7168 105.6226 217.5668 105.2151 217.3022 104.9104 C 217.0376 104.6057 216.6583 104.4036 216.2278 104.3767 Z " stroke-width="0.6636780913406511"/>
    <path id="ID0.5234400681219995" fill="#101010" stroke="none" d="M 215.2778 118.7767 C 214.8473 118.7497 214.4458 118.9028 214.1452 119.1721 C 213.8446 119.4414 213.6449 119.8269 213.6175 120.2641 C 213.5901 120.7013 213.7401 121.1087 214.0047 121.4135 C 214.2694 121.7182 214.6486 121.9202 215.0791 121.9472 C 215.5096 121.9742 215.9111 121.8211 216.2117 121.5518 C 216.5123 121.2825 216.712 120.8969 216.7394 120.4598 C 216.7668 120.0226 216.6168 119.6151 216.3522 119.3104 C 216.0876 119.0057 215.7083 118.8036 215.2778 118.7767 Z " stroke-width="0.6636780913406511"/>
    <path id="ID0.5234400681219995" fill="#101010" stroke="none" d="M 213.1778 152.2267 C 212.7473 152.1997 212.3458 152.3528 212.0452 152.6221 C 211.7446 152.8914 211.5449 153.2769 211.5175 153.7141 C 211.4901 154.1513 211.6401 154.5587 211.9047 154.8635 C 212.1694 155.1682 212.5486 155.3702 212.9791 155.3972 C 213.4096 155.4242 213.8111 155.2711 214.1117 155.0018 C 214.4123 154.7325 214.612 154.3469 214.6394 153.9098 C 214.6668 153.4726 214.5168 153.0651 214.2522 152.7604 C 213.9876 152.4557 213.6083 152.2536 213.1778 152.2267 Z " stroke-width="0.6636780913406511"/>
    <path id="ID0.5234400681219995" fill="#101010" stroke="none" d="M 214.2278 136.4767 C 213.7973 136.4497 213.3958 136.6028 213.0952 136.8721 C 212.7946 137.1414 212.5949 137.5269 212.5675 137.9641 C 212.5401 138.4013 212.6901 138.8087 212.9547 139.1135 C 213.2194 139.4182 213.5986 139.6202 214.0291 139.6472 C 214.4596 139.6742 214.8611 139.5211 215.1617 139.2518 C 215.4623 138.9825 215.662 138.5969 215.6894 138.1598 C 215.7168 137.7226 215.5668 137.3151 215.3022 137.0104 C 215.0376 136.7057 214.6583 136.5036 214.2278 136.4767 Z " stroke-width="0.6636780913406511"/>
    <path id="ID0.5234400681219995" fill="#101010" stroke="none" d="M 212.4278 167.0767 C 211.9973 167.0497 211.5958 167.2028 211.2952 167.4721 C 210.9946 167.7414 210.7949 168.1269 210.7675 168.5641 C 210.7401 169.0013 210.8901 169.4087 211.1547 169.7135 C 211.4194 170.0182 211.7986 170.2202 212.2291 170.2472 C 212.6596 170.2742 213.0611 170.1211 213.3617 169.8518 C 213.6623 169.5825 213.862 169.1969 213.8894 168.7598 C 213.9168 168.3226 213.7668 167.9151 213.5022 167.6104 C 213.2376 167.3057 212.8583 167.1036 212.4278 167.0767 Z " stroke-width="0.6636780913406511"/>
    <path id="ID0.4144489667378366" fill="#40474C" stroke="none" stroke-linecap="round" d="M 184.8941 63.1807 L 206.5508 56.0288 L 201.9769 78.8766 L 201.3833 142.6586 L 188.5011 189.4497 L 177.3575 183.4331 L 176.8643 187.1249 L 183.1813 136.4655 L 181.0978 90.3319 L 181.1336 73.0498 L 184.8941 63.1807 Z " stroke-width="1.0534572489367935"/>
    <path id="ID0.8752945330925286" fill="none" stroke="#222222" stroke-width="2.106914497873587" stroke-linecap="round" d="M 260.8285 69.0366 L 263.7044 77.4602 L 257.8072 117.2435 "/>
    <path id="ID0.8752945330925286" fill="none" stroke="#222222" stroke-width="2.106914497873587" stroke-linecap="round" d="M 184.6991 63.7783 L 180.794 71.7769 L 181.6779 111.9852 "/>
    <path id="ID0.5234400681219995" fill="#101010" stroke="none" d="M 237.2778 154.3767 C 236.8473 154.3497 236.4458 154.5028 236.1452 154.7721 C 235.8446 155.0414 235.6449 155.4269 235.6175 155.8641 C 235.5901 156.3013 235.7401 156.7087 236.0047 157.0135 C 236.2694 157.3182 236.6486 157.5202 237.0791 157.5472 C 237.5096 157.5742 237.9111 157.4211 238.2117 157.1518 C 238.5123 156.8825 238.712 156.4969 238.7394 156.0598 C 238.7668 155.6226 238.6168 155.2151 238.3522 154.9104 C 238.0876 154.6057 237.7083 154.4036 237.2778 154.3767 Z " stroke-width="0.6636780913406511"/>
    <path id="ID0.5234400681219995" fill="#101010" stroke="none" d="M 238.2778 162.1767 C 237.8473 162.1497 237.4458 162.3028 237.1452 162.5721 C 236.8446 162.8414 236.6449 163.2269 236.6175 163.6641 C 236.5901 164.1013 236.7401 164.5087 237.0047 164.8135 C 237.2694 165.1182 237.6486 165.3202 238.0791 165.3472 C 238.5096 165.3742 238.9111 165.2211 239.2117 164.9518 C 239.5123 164.6825 239.712 164.2969 239.7394 163.8598 C 239.7668 163.4226 239.6168 163.0151 239.3522 162.7104 C 239.0876 162.4057 238.7083 162.2036 238.2778 162.1767 Z " stroke-width="0.6636780913406511"/>
    <g id="ID0.20783481979742646">
      <path id="ID0.5848579816520214" fill="#737373" stroke="none" stroke-linecap="round" d="M 193.8452 93.9544 L 186.7986 91.9173 L 186.644 96.0558 L 194.1742 97.0596 L 193.8452 93.9544 Z " stroke-width="1.0534572489367935"/>
      <path id="ID0.13105127029120922" fill="none" stroke="#222222" stroke-width="2.106914497873587" stroke-linecap="round" d="M 195.566 97.4128 L 190.8715 97.1185 L 185.4941 95.186 "/>
    </g>
  </g>
  <path id="ID0.46110434643924236" fill="#675B50" stroke="none" stroke-linecap="round" d="M 236.3963 38.4698 L 212.8039 36.9911 L 211.0579 57.038 L 217.3307 60.4625 L 235.0617 59.7656 L 236.3963 38.4698 Z " stroke-width="1.144406894210797"/>
  <g id="ID0.9597035455517471">
    <path id="ID0.5368814701214433" fill="#404040" stroke="none" stroke-linecap="round" d="M 142.4634 215.0959 L 143.6057 204.9436 L 143.3314 193.6416 L 130.675 194.9535 L 115.9171 197.4555 L 93.7233 199.8405 L 89.6718 205.8693 L 113.8511 218.3153 L 136.7855 224.3373 L 142.4634 215.0959 Z " stroke-width="0.8471282696657984"/>
    <g id="ID0.5077062323689461">
      <path id="ID0.05466862628236413" fill="#252525" stroke="none" stroke-linecap="round" d="M 173.42 141.0035 L 152.9187 128.2455 L 148.356 143.8542 L 146.9496 149.2478 L 140.7219 163.911 L 123.8794 196.4896 L 144.1889 208.437 L 153.612 190.0363 L 158.9933 183.8789 L 163.5036 176.5606 L 166.6666 164.6306 L 171.1205 154.4343 L 173.42 141.0035 Z " stroke-width="0.6597530406986021"/>
      <path id="ID0.5319394422695041" fill="none" stroke="#131313" stroke-width="2.1997147942511126" stroke-linecap="round" d="M 124.5151 195.7528 L 144.3015 208.9475 L 150.2634 197.7383 "/>
    </g>
  </g>
  <g id="ID0.8820344842970371">
    <path id="ID0.3809091211296618" fill="#252525" stroke="none" stroke-linecap="round" d="M 212.2891 209.2892 L 245.5137 199.2758 L 226.3812 180.6763 L 189.1592 142.2516 L 179.9123 134.86 L 167.6772 129.9955 L 163.6202 138.2748 L 151.6897 147.4703 L 168.558 166.6012 L 178.203 177.2887 L 212.2891 209.2892 Z " stroke-width="0.8035436602052097"/>
    <path id="ID0.9495224836282432" fill="none" stroke="#131313" stroke-width="2.1997145314683637" stroke-linecap="round" d="M 188.913 142.3313 L 181.8797 136.1724 L 173.8109 132.0308 L 163.9285 135.8036 L 159.0666 133.0082 "/>
  </g>
  <path id="ID0.7592270169407129" fill="none" stroke="#675B50" stroke-width="1.0984285722290994" stroke-linecap="round" d="M 213.6031 53.0127 C 213.6031 53.0127 213.4541 53.762 213.5053 54.1335 C 213.5548 54.494 213.8204 54.8004 213.8979 55.1561 C 213.9755 55.514 213.8975 55.8932 213.9664 56.2528 C 214.0345 56.6103 214.1181 56.9795 214.3063 57.292 C 214.4664 57.5579 214.982 57.938 214.982 57.938 "/>
  <path id="ID0.48112139804288745" fill="#3A3A3A" stroke="#3A3A3A" stroke-width="2.0362676436800706" stroke-linecap="round" d="M 201.1805 13.1607 C 200.5252 13.5184 201.1658 14.9997 200.8895 15.8379 C 200.6677 16.5108 199.987 17.0028 199.8407 17.6959 C 199.7009 18.3608 199.946 19.055 200.0705 19.7223 C 200.4211 21.6056 200.3437 24.0934 201.2756 25.5553 C 201.6503 26.0579 202.2811 24.2733 202.6837 23.6513 C 203.5064 22.4034 204.3851 21.0996 204.937 19.7855 C 205.2003 19.1587 205.1502 18.4417 205.2194 17.7658 C 205.2876 17.0949 205.6261 16.3598 205.3482 15.7441 C 205.0663 15.1192 204.3108 14.8241 203.7254 14.4583 C 202.962 13.982 201.9431 12.8286 201.1805 13.1607 Z "/>
  <path id="ID0.05099705280736089" fill="#1C1916" stroke="#1C1916" stroke-width="2.162145808430015" stroke-linecap="round" d="M 237.9669 32.9862 C 238.3084 33.1636 237.8373 34.4144 237.6656 35.2382 C 237.5183 35.9432 237.0804 36.5691 236.6614 37.1588 C 236.2414 37.7496 235.6952 38.2474 235.1719 38.7508 C 234.6485 39.2543 234.0715 39.7034 233.5213 40.1796 C 232.971 40.6559 232.6001 41.6555 231.8706 41.6084 C 231.1412 41.5613 230.5443 40.6899 230.423 39.9782 C 230.1813 38.5614 230.3665 37.0384 230.8595 35.6869 C 231.1077 35.008 231.9118 34.6736 232.5101 34.2581 C 233.1074 33.8437 233.7298 33.421 234.4279 33.2088 C 235.447 32.8987 236.6895 32.1489 237.5896 32.7128 Z "/>
  <path id="ID0.8999492498114705" fill="#796B5E" stroke="none" stroke-linecap="round" d="M 214.0042 3.679 C 209.2064 4.1313 204.021 6.9755 201.6473 11.1159 C 198.9387 15.843 200.5564 21.8629 200.5837 27.245 C 200.5967 29.6067 201.3732 32.0426 201.9002 34.4115 C 202.6497 37.7771 203.5618 41.0013 204.3428 44.2396 C 204.8015 46.2064 204.4345 48.543 205.6217 50.0412 C 207.5105 52.424 210.0596 54.8704 213.07 55.3772 C 216.5487 55.9622 219.987 53.9974 223.3827 52.9735 C 225.086 52.4013 227.1382 52.0317 228.3053 50.6088 C 230.8065 47.554 232.1128 43.6317 233.666 40.0635 C 235.2966 36.3179 237.7684 32.6721 237.8784 28.5482 C 238.0647 21.5294 239.3846 12.8958 234.2791 7.7627 C 229.7166 2.8249 221.1364 3.0097 214.0042 3.679 Z " stroke-width="0.5492253945095237"/>
  <path id="ID0.8194515448994935" fill="#796B5E" stroke="none" stroke-linecap="round" d="M 237.7874 24.1307 C 236.8572 24.212 236.1769 24.8144 235.6106 25.9447 C 235.0443 27.075 234.6823 28.6408 234.6598 30.3744 C 234.6372 32.1079 234.9584 33.6826 235.4952 34.8272 C 236.032 35.9718 236.6978 36.5627 237.6241 36.6972 C 238.4745 36.8189 239.5749 36.3723 239.977 35.6535 C 240.7365 34.0542 240.6308 32.1439 240.7518 30.4535 C 240.8713 28.7921 241.2866 26.9692 240.6535 25.457 C 240.1443 24.533 238.7623 24.0456 237.7874 24.1307 Z " stroke-width="1.0810729042150076"/>
  <path id="ID0.7592270169407129" fill="none" stroke="#675B50" stroke-width="1.0984507890190474" stroke-linecap="round" d="M 216.5944 46.7272 C 216.5944 46.7272 215.9131 47.0889 215.5386 47.1501 C 215.1753 47.2098 214.8009 47.0494 214.434 47.0812 C 214.0649 47.1135 213.7209 47.299 213.3528 47.34 C 212.9868 47.3811 212.605 47.4111 212.2474 47.3257 C 211.9432 47.2529 211.4241 46.8784 211.4241 46.8784 "/>
  <path id="ID0.7788236327469349" fill="#FFFFFF" stroke="none" stroke-linecap="round" d="M 225.3723 25.6557 L 223.9065 25.4218 L 221.4623 25.1215 L 219.1221 25.1985 L 218.7643 27.6109 L 221.53 28.2914 L 226.9783 27.6639 L 225.3723 25.6557 Z " stroke-width="1.0810729042150076"/>
  <path id="ID0.7788236327469349" fill="#FFFFFF" stroke="none" stroke-linecap="round" d="M 205.2162 25.7501 L 207.0732 25.1834 L 209.1946 25.2109 L 211.5321 25.3487 L 211.827 27.7696 L 209.0446 28.378 L 203.9924 27.8289 L 205.2162 25.7501 Z " stroke-width="1.0810729042150076"/>
  <path id="ID0.2118154256604612" fill="#1C1916" stroke="#1C1916" stroke-width="2.162145808430015" stroke-linecap="round" d="M 238.8296 21.8169 C 238.8528 22.3705 238.5365 24.8586 237.6838 26.2602 C 237.3692 26.7771 237.1175 24.8756 236.7856 24.2074 C 236.4644 23.5598 236.0292 22.9676 235.7222 22.3137 C 235.394 21.6144 235.1282 20.8847 234.8798 20.1543 C 234.6388 19.4464 234.4458 18.7199 234.255 17.9976 C 234.0663 17.284 233.9857 16.5385 233.739 15.8425 C 233.4934 15.1474 233.121 14.5002 232.7858 13.8427 C 232.4494 13.1852 232.2902 12.3742 231.723 11.8953 C 231.1397 11.4021 230.321 11.1917 229.5571 11.1152 C 228.8247 11.0423 228.1026 11.3498 227.3765 11.4628 C 226.6144 11.5807 225.8441 11.6642 225.0871 11.8091 C 224.3541 11.9488 223.6229 12.1187 222.9044 12.3178 C 222.2044 12.5118 221.5211 12.7714 220.8284 12.9891 C 220.103 13.2171 219.3575 13.3954 218.6436 13.659 C 217.9527 13.9143 217.3259 14.338 216.6192 14.5458 C 215.9148 14.7526 215.1534 15.0671 214.4386 14.8934 C 213.7206 14.7187 213.2598 14.008 212.6604 13.5812 C 212.0567 13.1523 211.4875 12.6593 210.8271 12.322 C 210.1807 11.9924 209.4811 11.7459 208.7693 11.597 C 207.5626 11.3461 206.1746 10.9005 204.8579 11.1702 C 203.5967 11.431 202.102 13.5902 201.4053 13.1127 C 200.7443 12.6551 201.796 10.5117 202.3802 9.2581 C 203.0114 7.9063 203.9684 6.6888 205.0385 5.6402 C 206.07 4.6299 207.2636 3.7086 208.6068 3.1621 C 209.9697 2.6073 211.5062 2.5982 212.9687 2.4131 C 213.688 2.3215 214.4226 2.3955 215.1458 2.334 C 215.8756 2.2715 216.5931 2.067 217.3257 2.04 C 218.7735 1.9868 220.246 1.8738 221.6771 2.0965 C 223.1669 2.3275 224.5643 2.9752 226.0125 3.3883 C 226.7301 3.5931 227.4716 3.722 228.1813 3.9536 C 229.5843 4.4122 230.9848 4.8999 232.3507 5.458 C 233.0249 5.7331 233.7563 5.9661 234.2962 6.4501 C 234.8663 6.9602 235.1052 7.7475 235.5773 8.3466 C 236.0343 8.9262 236.698 9.3473 237.0793 9.9775 C 237.4755 10.6336 237.6713 11.3968 237.8673 12.1362 C 238.0529 12.839 238.1654 13.5646 238.2201 14.2893 C 238.274 15.0022 238.1112 15.7263 238.1922 16.4374 C 238.2752 17.1701 238.5392 17.8739 238.7083 18.5926 C 238.8475 19.1842 239.2011 19.7689 239.1204 20.3705 Z "/>
  <path id="ID0.5261953212320805" fill="none" stroke="#1C1916" stroke-width="2.1621460499185137" stroke-linecap="round" d="M 227.7904 23.3963 C 227.7904 23.3963 227.1114 21.9734 226.5168 21.4891 C 225.948 21.0255 225.1817 20.8305 224.4614 20.6823 C 223.741 20.534 222.9867 20.6858 222.2544 20.6119 C 220.8825 20.4721 218.1509 20.0415 218.1509 20.0415 "/>
  <path id="ID0.5261953212320805" fill="none" stroke="#1C1916" stroke-width="2.162145850804361" stroke-linecap="round" d="M 202.2908 22.8938 C 202.2908 22.8938 202.9793 21.4754 203.577 20.9951 C 204.1489 20.5353 204.9165 20.3454 205.6378 20.2019 C 206.3591 20.0585 207.1124 20.2153 207.8452 20.1462 C 209.218 20.0156 211.9524 19.6031 211.9524 19.6031 "/>
  <path id="ID0.8619630038738251" fill="none" stroke="#675B50" stroke-width="1.2706582991488913" stroke-linecap="round" d="M 214.5485 26.6365 C 214.5485 26.6365 214.1405 29.7392 213.9452 31.2373 C 213.8333 32.0786 213.9923 33.0264 213.5608 33.7576 C 213.0359 34.5872 211.8227 34.5519 211.5264 35.3094 C 211.13 36.1004 210.9881 37.572 211.7498 37.806 C 212.9076 38.1613 213.9993 36.7172 215.282 36.6209 C 215.9707 36.5698 217.1569 37.4975 217.1569 37.4975 "/>
  <path id="ID0.6736386958509684" fill="none" stroke="#675B50" stroke-width="1.3553752072205385" stroke-linecap="round" d="M 228.0334 34.532 C 228.0334 34.532 227.4358 35.3324 227.0975 35.6983 C 226.7889 36.0324 226.4104 36.2988 226.0964 36.6281 C 225.7756 36.9647 225.4194 37.288 225.1959 37.6938 C 224.9689 38.105 224.791 38.5674 224.7692 39.0351 C 224.7113 40.2916 224.9589 42.8087 224.9589 42.8087 "/>
  <path id="ID0.18298013787716627" fill="#1C1916" stroke="#1C1916" stroke-width="2.162145808430015" stroke-linecap="round" d="M 228.4906 10.635 C 228.95 10.8601 229.4539 11.8614 229.2785 12.7937 C 229.0004 14.2672 227.6062 15.8089 227.8629 17.0723 C 227.9897 17.6938 229.3606 16.8586 230.0456 16.5635 C 230.713 16.2757 231.2668 15.7748 231.8566 15.3517 C 232.4925 14.8958 233.3363 14.6007 233.7248 13.9257 C 234.0843 13.3019 234.1792 12.4481 233.9159 11.7797 C 233.6515 11.107 232.9447 10.6542 232.3029 10.3085 C 231.6471 9.9552 230.8762 9.8302 230.1342 9.7432 C 229.8202 9.7069 229.2912 9.6452 229.2067 9.946 Z "/>
  <path id="ID0.7592270169407129" fill="none" stroke="#675B50" stroke-width="1.098444835847181" stroke-linecap="round" d="M 214.2597 19.4959 C 214.2597 19.4959 214.0076 20.218 214.0067 20.5928 C 214.0055 20.9565 214.226 21.2955 214.2532 21.6582 C 214.2803 22.0231 214.1502 22.3882 214.1684 22.7535 C 214.1861 23.1167 214.2176 23.4936 214.3605 23.8284 C 214.4821 24.1131 214.94 24.5588 214.94 24.5588 "/>
  <path id="ID0.48112139804288745" fill="#3A3A3A" stroke="#3A3A3A" stroke-width="2.0362676436800706" stroke-linecap="round" d="M 238.2508 14.8078 C 238.8966 15.1824 238.2176 16.6467 238.4721 17.4917 C 238.6764 18.1702 239.344 18.6796 239.4723 19.3763 C 239.5948 20.0446 239.3317 20.7322 239.1899 21.3961 C 238.7905 23.2696 238.8032 25.7586 237.8336 27.1957 C 237.4461 27.6885 236.8618 25.8881 236.4755 25.2559 C 235.6856 23.987 234.841 22.6609 234.3234 21.3329 C 234.0765 20.6994 234.1452 19.984 234.0935 19.3065 C 234.0428 18.634 233.7236 17.8903 234.0174 17.2821 C 234.3154 16.6647 235.0783 16.3894 235.673 16.0389 C 236.4485 15.5826 237.4971 14.4561 238.2508 14.8078 Z "/>
  <path id="ID0.7766774026677012" fill="#0D0D0D" stroke="#0D0D0D" stroke-width="1.8086520039145781" stroke-linecap="round" d="M 1 194.2018 C 1.718 167.513 0.989 139.7886 12 114.2773 C 16.164 104.6321 31.459 100.1874 43.5 96.7377 C 48.996 95.1655 54.566 99.1119 60 100.5247 C 61.543 100.9225 62.688 101.7572 64 102.3185 C 65.857 102.9539 67.811 103.4362 69.5 104.1123 C 70.098 104.3531 70.7 104.5907 71.25 104.9096 C 71.9 105.1886 72.4 105.5872 73 105.9061 C 74.25 106.5041 75.5 107.1419 76.75 107.6999 C 78 108.1783 79.3 108.5769 80.5 109.0951 C 81.1 109.3343 81.75 109.5336 82.25 109.8924 C 82.85 110.2512 83.25 110.8092 83.75 111.2876 C 84.25 111.6862 84.75 112.0848 85.25 112.4835 C 85.75 112.8422 86.4 113.201 86.75 113.6793 C 87.15 114.1178 87.25 114.7158 87.5 115.2738 C 87.75 115.7921 88.05 116.3103 88.25 116.8683 C 88.7 117.9048 89.1 118.9811 89.5 120.0574 C 89.75 120.5756 90 121.0938 90.25 121.6519 C 90.5 122.1701 90.75 122.6883 91 123.2464 C 91.25 123.7646 91.5 124.2828 91.75 124.8409 C 92 125.3591 92.35 125.8773 92.5 126.4354 C 92.7 126.9536 92.7 127.4718 92.75 128.0299 C 92.85 128.5481 92.95 129.0663 93 129.6244 C 93.1 130.1426 93.15 130.6608 93.25 131.2189 C 93.4 131.7371 93.65 132.2553 93.75 132.8134 C 94.2 134.368 94.6 136.0024 95 137.5969 C 95.15 138.1151 95.4 138.6333 95.5 139.1914 C 95.65 139.7096 95.7 140.2278 95.75 140.7859 C 95.85 141.3041 96 141.8223 96 142.3804 C 96.05 142.8986 96 143.4168 96 143.9749 C 96 145.0114 96.1 146.0876 96 147.1639 C 96 147.6821 95.8 147.9213 95.75 148.7584 C 95.7 151.9873 95.75 155.256 95.75 158.5248 C 95.75 161.6739 95.75 164.9028 95.75 168.0918 C 95.75 169.6464 95.7 171.2808 95.75 172.8753 C 95.8 173.3935 95.9 173.9117 96 174.4698 C 96.25 175.6657 96.6 176.8217 96.75 178.0575 C 96.85 178.5757 96.75 179.0939 96.75 179.652 C 96.8 180.1702 96.95 180.6884 97 181.2465 C 97.2 182.2829 97.45 183.3592 97.5 184.4355 C 97.6 185.4719 97.5 186.5482 97.5 187.6245 C 97.5 190.7736 97.5 194.0025 97.5 197.1915 C 97.5 197.9489 97.45 198.2279 97.5 198.786 C 97.6 199.3042 97.9 199.8224 98 200.3805 C 98.35 201.9352 98.5 203.5695 98.75 205.164 C 98.85 205.6822 98.9 206.2005 99 206.7585 C 99.3 207.8747 99.75 208.9908 100 210.1469 C 100.15 210.7049 100.2 211.3427 100.25 211.9407 C 100.35 212.4987 100.5 213.0967 100.5 213.7345 C 100.55 214.2527 100.5 214.7709 100.5 215.329 C 100.5 215.8472 100.6 216.3654 100.5 216.9235 C 100.35 217.9599 100 219.0362 99.75 220.1125 C 99.65 220.6307 99.55 221.1489 99.5 221.707 C 99.5 222.2252 99.5 222.7434 99.5 223.3015 C 99.5 223.8197 99.5 224.3379 99.5 224.896 C 99.6 225.9324 99.6 227.0087 99.75 228.085 C 99.95 229.0816 100.5 231.0747 100.5 231.0747 C 100.75 231.4733 101.372 233.7423 101.75 234.8617 C 101.955 235.47 102.277 236.0512 102.5 236.6555 C 102.694 237.1809 102.833 237.719 103 238.25 C 103.167 238.781 103.373 239.3064 103.5 239.8445 C 103.624 240.3707 103.626 240.9128 103.75 241.439 C 103.877 241.9771 104.045 242.5113 104.25 243.0335 C 104.462 243.5748 104.827 244.0779 105 244.628 C 105.163 245.147 105.167 245.6915 105.25 246.2225 C 105.333 246.7535 105.417 247.286 105.5 247.817 C 105.583 248.348 105.667 248.8806 105.75 249.4115 C 105.833 249.9425 105.972 250.4711 106 251.006 C 106.055 252.0672 105.945 253.1339 106 254.195 C 106.028 254.73 106.167 255.2586 106.25 255.7895 C 106.333 256.3205 106.472 256.8491 106.5 257.384 C 106.555 258.4452 106.528 259.5111 106.5 260.5731 C 106.444 262.6977 106.317 264.8272 106.25 266.9511 C 106.233 267.482 106.25 268.0146 106.25 268.5456 C 106.25 269.0765 106.208 269.6099 106.25 270.1401 C 106.292 270.6742 106.376 271.2084 106.5 271.7346 C 106.627 272.2727 106.915 272.7862 107 273.3291 C 107.083 273.8561 106.958 274.3934 107 274.9236 C 107.042 275.4578 107.208 275.9839 107.25 276.5181 C 107.292 277.0483 107.208 277.5824 107.25 278.1126 C 107.292 278.6468 107.376 279.1809 107.5 279.7071 C 107.627 280.2453 107.873 280.7635 108 281.3016 C 108.124 281.8278 108.126 282.3699 108.25 282.8961 C 108.377 283.4343 108.637 283.9509 108.75 284.4906 C 108.971 285.5462 109.083 286.6177 109.25 287.6796 C 109.333 288.2106 109.417 288.7432 109.5 289.2741 C 109.583 289.8051 109.708 290.3345 109.75 290.8686 C 109.792 291.3988 109.792 291.933 109.75 292.4631 C 109.708 292.9973 109.528 293.5227 109.5 294.0576 C 109.445 295.1188 109.335 296.1927 109.5 297.2467 C 109.67 298.3325 110.116 299.3849 110.5 300.4357 C 110.699 300.9802 111.038 301.4888 111.25 302.0302 C 111.455 302.5524 111.545 303.1025 111.75 303.6247 C 111.962 304.166 112.369 304.6619 112.5 305.2192 C 112.623 305.7414 112.892 306.384 112.5 306.8137 C 112.082 307.2721 111.206 307.3415 110.5 307.4116 C 109.834 307.4778 109.171 307.2123 108.5 307.2123 C 107.829 307.2123 107.171 307.4116 106.5 307.4116 C 105.829 307.4116 105.17 307.2458 104.5 307.2123 C 103.835 307.1788 103.161 307.1461 102.5 307.2123 C 101.819 307.2801 101.122 307.3797 100.5 307.6109 C 99.851 307.8525 99.429 308.4273 98.75 308.6075 C 98.118 308.7757 97.416 308.6075 96.75 308.6075 C 96.084 308.6075 95.411 308.6737 94.75 308.6075 C 94.069 308.5397 93.431 308.2766 92.75 308.2089 C 92.089 308.1427 91.415 308.1754 90.75 308.2089 C 90.08 308.2424 89.42 308.3747 88.75 308.4082 C 88.085 308.4417 87.411 308.342 86.75 308.4082 C 86.069 308.476 85.431 308.739 84.75 308.8068 C 84.089 308.873 83.415 308.7733 82.75 308.8068 C 82.08 308.8403 81.416 308.94 80.75 309.0061 C 80.084 309.0723 79.421 309.2222 78.75 309.2054 C 76.746 309.1552 74.751 308.9065 72.75 308.8068 C 72.085 308.7733 71.415 308.7733 70.75 308.8068 C 70.08 308.8403 69.421 308.9838 68.75 309.0061 C 67.419 309.05 66.081 308.9623 64.75 309.0061 C 64.079 309.0284 63.42 309.172 62.75 309.2054 C 62.085 309.2389 61.415 309.2389 60.75 309.2054 C 60.08 309.172 59.42 309.0396 58.75 309.0061 C 58.085 308.9726 57.415 309.0396 56.75 309.0061 C 56.08 308.9726 55.419 308.8515 54.75 308.8068 C 53.42 308.7183 52.085 308.6075 50.75 308.6075 C 50.079 308.6075 49.41 308.708 48.75 308.8068 C 48.075 308.9081 47.431 309.1377 46.75 309.2054 C 46.089 309.2716 45.416 309.2054 44.75 309.2054 C 42.752 309.2054 40.747 309.156 38.75 309.2054 C 38.079 309.2222 37.42 309.3713 36.75 309.4047 C 36.085 309.4382 35.415 309.4382 34.75 309.4047 C 34.08 309.3713 33.416 309.2716 32.75 309.2054 C 32.084 309.1393 31.42 309.0396 30.75 309.0061 C 30.085 308.9726 29.405 309.1042 28.75 309.0061 C 28.051 308.9017 28.346 308.7438 26.75 308.4082 C 20.367 307.0656 8.928 309.6264 7.35 304.4618 C 1.723 286.0349 9.575 266.2638 8.5 247.2191 C 7.508 229.6843 0.545 212.0435 1 194.2018 Z "/>
  <g id="ID0.15551237482577562">
    <path id="ID0.036129117012023926" fill="#5E3B21" stroke="none" d="M 221.4053 25.1362 C 220.9625 25.1305 220.5588 25.3025 220.2646 25.5855 C 219.9705 25.8685 219.7858 26.2625 219.7801 26.6996 C 219.7745 27.1368 219.9488 27.5354 220.2355 27.826 C 220.5223 28.1165 220.9214 28.299 221.3641 28.3047 C 221.8069 28.3105 222.2106 28.1385 222.5048 27.8555 C 222.799 27.5725 222.9836 27.1785 222.9893 26.7413 C 222.995 26.3042 222.8206 25.9055 222.5339 25.615 C 222.2472 25.3244 221.8481 25.142 221.4053 25.1362 Z " stroke-width="1.0810728450089289"/>
    <path id="ID0.9171876185573637" fill="#191009" stroke="none" d="M 220.9434 25.9761 C 220.7182 25.9732 220.5136 26.0607 220.3637 26.2049 C 220.2139 26.349 220.1199 26.5487 220.117 26.771 C 220.1141 26.9934 220.2029 27.1954 220.349 27.3434 C 220.495 27.4914 220.6973 27.5842 220.9224 27.5872 C 221.1476 27.5901 221.3522 27.5025 221.5021 27.3584 C 221.6519 27.2142 221.7459 27.0146 221.7488 26.7922 C 221.7517 26.5699 221.6629 26.3679 221.5169 26.2199 C 221.3708 26.0719 221.1686 25.979 220.9434 25.9761 Z " stroke-width="1.0810728450089289"/>
  </g>
  <g id="ID0.6915994533337653">
    <path id="ID0.036129117012023926" fill="#5E3B21" stroke="none" d="M 207.0553 25.1862 C 206.6125 25.1805 206.2088 25.3525 205.9146 25.6355 C 205.6205 25.9185 205.4358 26.3125 205.4301 26.7496 C 205.4245 27.1868 205.5988 27.5854 205.8855 27.876 C 206.1723 28.1665 206.5714 28.349 207.0141 28.3547 C 207.4569 28.3605 207.8606 28.1885 208.1548 27.9055 C 208.449 27.6225 208.6336 27.2285 208.6393 26.7913 C 208.645 26.3542 208.4706 25.9555 208.1839 25.665 C 207.8972 25.3744 207.4981 25.192 207.0553 25.1862 Z " stroke-width="1.0810728450089289"/>
    <path id="ID0.9171876185573637" fill="#191009" stroke="none" d="M 206.6434 25.9761 C 206.4182 25.9732 206.2136 26.0607 206.0637 26.2049 C 205.9139 26.349 205.8199 26.5487 205.817 26.771 C 205.8141 26.9934 205.9029 27.1954 206.049 27.3434 C 206.195 27.4914 206.3973 27.5842 206.6224 27.5872 C 206.8476 27.5901 207.0522 27.5025 207.2021 27.3584 C 207.3519 27.2142 207.4459 27.0146 207.4488 26.7922 C 207.4517 26.5699 207.3629 26.3679 207.2169 26.2199 C 207.0708 26.0719 206.8686 25.979 206.6434 25.9761 Z " stroke-width="1.0810728450089289"/>
  </g>
  <path id="ID0.1913656061515212" fill="#282828" stroke="none" stroke-linecap="round" d="M 213.5301 43.5038 C 214.7168 43.4484 215.9855 43.0697 217.1743 43.2987 C 217.5816 43.3813 217.6515 43.9305 217.5302 44.2841 C 217.3881 44.695 217.1174 44.9758 216.4025 45.2459 C 215.6885 45.516 214.6911 45.7148 213.5828 45.7772 C 212.4746 45.8395 211.4612 45.7539 210.7214 45.5656 C 209.9807 45.3774 209.6447 45.1368 209.4929 44.7363 C 209.3517 44.3626 209.4191 43.7442 209.8794 43.5954 C 211.0349 43.2512 212.3153 43.5608 213.5301 43.5038 Z " stroke-width="0.8871079474475885"/>
  <path id="ID0.8256730306893587" fill="none" stroke="#675B50" stroke-width="1.0984504009913663" stroke-linecap="round" d="M 209.1056 43.6102 C 209.1056 43.6102 210.421 42.9413 211.1352 42.9888 C 211.8039 42.9819 212.3098 43.721 213.0022 43.7247 C 213.8241 43.7288 214.5267 43.0011 215.3448 42.9574 C 216.6763 43.3542 218.205 43.7503 218.205 43.7503 "/>
</svg>