<svg xmlns="http://www.w3.org/2000/svg" xmlns:xlink="http://www.w3.org/1999/xlink" version="1.1" width="132.27482388543987" height="326.92492459344766" viewBox="0.8640395495896404 -0.5190627481932576 132.27482388543987 326.92492459344766">
  <defs>
    <linearGradient id="grad_1" y2="1" x2="0">
      <stop offset="0" stop-color="#222325" stop-opacity="1"/>
      <stop offset="1" stop-color="#2E3034" stop-opacity="1"/>
    </linearGradient>
  </defs>
  <!-- Exported by Scratch - http://scratch.mit.edu/ -->
  <path id="ID0.7766774026677012" fill="#0D0D0D" stroke="#0D0D0D" stroke-width="1.9621255211820474" stroke-linecap="round" d="M 113.55 182.5197 C 112.832 150.324 113.561 116.8791 102.55 86.104 C 98.386 74.4687 83.091 69.1069 71.05 64.9454 C 65.554 63.0488 59.984 67.8095 54.55 69.5137 C 53.007 69.9936 51.862 71.0006 50.55 71.6777 C 48.693 72.4442 46.739 73.026 45.05 73.8416 C 44.452 74.1321 43.85 74.4187 43.3 74.8034 C 42.65 75.14 42.15 75.6209 41.55 76.0056 C 40.3 76.7269 39.05 77.4963 37.8 78.1695 C 36.55 78.7465 35.25 79.2274 34.05 79.8526 C 33.45 80.1411 32.8 80.3815 32.3 80.8143 C 31.7 81.2471 31.3 81.9203 30.8 82.4974 C 30.3 82.9783 29.8 83.4591 29.3 83.94 C 28.8 84.3728 28.15 84.8056 27.8 85.3826 C 27.4 85.9116 27.3 86.6329 27.05 87.3061 C 26.8 87.9313 26.5 88.5564 26.3 89.2297 C 25.85 90.4799 25.45 91.7783 25.05 93.0767 C 24.8 93.7018 24.55 94.3269 24.3 95.0002 C 24.05 95.6253 23.8 96.2504 23.55 96.9237 C 23.3 97.5488 23.05 98.174 22.8 98.8472 C 22.55 99.4723 22.2 100.0975 22.05 100.7707 C 21.85 101.3958 21.85 102.021 21.8 102.6942 C 21.7 103.3193 21.6 103.9445 21.55 104.6177 C 21.45 105.2428 21.4 105.868 21.3 106.5412 C 21.15 107.1663 20.9 107.7915 20.8 108.4647 C 20.35 110.3401 19.95 112.3117 19.55 114.2352 C 19.4 114.8604 19.15 115.4855 19.05 116.1587 C 18.9 116.7839 18.85 117.409 18.8 118.0822 C 18.7 118.7074 18.55 119.3325 18.55 120.0057 C 18.5 120.6309 18.55 121.256 18.55 121.9292 C 18.55 123.1795 18.45 124.4779 18.55 125.7763 C 18.55 126.4014 18.75 126.6899 18.8 127.6998 C 18.85 131.5949 18.8 135.538 18.8 139.4812 C 18.8 143.2802 18.8 147.1753 18.8 151.0223 C 18.8 152.8977 18.85 154.8693 18.8 156.7928 C 18.75 157.4179 18.65 158.0431 18.55 158.7163 C 18.3 160.1589 17.95 161.5535 17.8 163.0442 C 17.7 163.6693 17.8 164.2945 17.8 164.9677 C 17.75 165.5928 17.6 166.218 17.55 166.8912 C 17.35 168.1415 17.1 169.4398 17.05 170.7382 C 16.95 171.9885 17.05 173.2868 17.05 174.5852 C 17.05 178.3841 17.05 182.2792 17.05 186.1262 C 17.05 187.0399 17.1 187.3765 17.05 188.0497 C 16.95 188.6749 16.65 189.3 16.55 189.9732 C 16.2 191.8487 16.05 193.8203 15.8 195.7438 C 15.7 196.3689 15.65 196.994 15.55 197.6673 C 15.25 199.0137 14.8 200.3602 14.55 201.7547 C 14.4 202.4279 14.35 203.1973 14.3 203.9187 C 14.2 204.5919 14.05 205.3132 14.05 206.0826 C 14 206.7077 14.05 207.3329 14.05 208.0061 C 14.05 208.6313 13.95 209.2564 14.05 209.9296 C 14.2 211.1799 14.55 212.4783 14.8 213.7766 C 14.9 214.4018 15 215.0269 15.05 215.7001 C 15.05 216.3253 15.05 216.9504 15.05 217.6236 C 15.05 218.2488 15.05 218.8739 15.05 219.5471 C 14.95 220.7974 14.95 222.0958 14.8 223.3942 C 14.6 224.5963 14.05 227.0007 14.05 227.0007 C 13.8 227.4816 13.178 230.2188 12.8 231.5691 C 12.595 232.3029 12.273 233.004 12.05 233.733 C 11.856 234.3668 11.717 235.016 11.55 235.6565 C 11.383 236.297 11.177 236.9308 11.05 237.58 C 10.926 238.2148 10.924 238.8688 10.8 239.5035 C 10.673 240.1527 10.505 240.7971 10.3 241.427 C 10.088 242.08 9.723 242.6869 9.55 243.3505 C 9.387 243.9766 9.383 244.6335 9.3 245.274 C 9.217 245.9146 9.133 246.557 9.05 247.1975 C 8.967 247.8381 8.883 248.4805 8.8 249.121 C 8.717 249.7616 8.578 250.3992 8.55 251.0445 C 8.495 252.3246 8.605 253.6115 8.55 254.8916 C 8.522 255.5369 8.383 256.1745 8.3 256.8151 C 8.217 257.4556 8.078 258.0932 8.05 258.7386 C 7.995 260.0187 8.022 261.3045 8.05 262.5856 C 8.106 265.1487 8.233 267.7175 8.3 270.2796 C 8.317 270.9201 8.3 271.5626 8.3 272.2031 C 8.3 272.8436 8.342 273.487 8.3 274.1266 C 8.258 274.771 8.174 275.4154 8.05 276.0501 C 7.923 276.6993 7.635 277.3187 7.55 277.9736 C 7.467 278.6093 7.592 279.2576 7.55 279.8971 C 7.508 280.5415 7.342 281.1763 7.3 281.8206 C 7.258 282.4602 7.342 283.1046 7.3 283.7441 C 7.258 284.3885 7.174 285.0329 7.05 285.6676 C 6.923 286.3168 6.677 286.942 6.55 287.5912 C 6.426 288.2259 6.424 288.8799 6.3 289.5147 C 6.173 290.1638 5.913 290.7871 5.8 291.4382 C 5.579 292.7115 5.467 294.0041 5.3 295.2852 C 5.217 295.9257 5.133 296.5681 5.05 297.2087 C 4.967 297.8492 4.842 298.4878 4.8 299.1322 C 4.758 299.7717 4.758 300.4161 4.8 301.0557 C 4.842 301.7001 5.022 302.3339 5.05 302.9792 C 5.105 304.2593 5.215 305.5548 5.05 306.8262 C 4.88 308.1361 4.434 309.4056 4.05 310.6732 C 3.851 311.3301 3.512 311.9437 3.3 312.5967 C 3.095 313.2267 3.005 313.8903 2.8 314.5202 C 2.588 315.1733 2.181 315.7715 2.05 316.4437 C 1.927 317.0737 1.658 317.8489 2.05 318.3672 C 2.468 318.9202 3.344 319.0039 4.05 319.0886 C 4.716 319.1684 5.379 318.8481 6.05 318.8481 C 6.721 318.8481 7.379 319.0886 8.05 319.0886 C 8.721 319.0886 9.38 318.8885 10.05 318.8481 C 10.715 318.8077 11.389 318.7683 12.05 318.8481 C 12.731 318.9299 13.428 319.0501 14.05 319.329 C 14.699 319.6204 15.121 320.3138 15.8 320.5312 C 16.432 320.7341 17.134 320.5312 17.8 320.5312 C 18.466 320.5312 19.139 320.611 19.8 320.5312 C 20.481 320.4494 21.119 320.1321 21.8 320.0503 C 22.461 319.9705 23.135 320.0099 23.8 320.0503 C 24.47 320.0907 25.13 320.2503 25.8 320.2907 C 26.465 320.3311 27.139 320.2109 27.8 320.2907 C 28.481 320.3725 29.119 320.6899 29.8 320.7716 C 30.461 320.8514 31.135 320.7312 31.8 320.7716 C 32.47 320.812 33.134 320.9322 33.8 321.0121 C 34.466 321.0919 35.129 321.2727 35.8 321.2525 C 37.804 321.1919 39.799 320.8918 41.8 320.7716 C 42.465 320.7312 43.135 320.7312 43.8 320.7716 C 44.47 320.812 45.129 320.9851 45.8 321.0121 C 47.131 321.065 48.469 320.9592 49.8 321.0121 C 50.471 321.039 51.13 321.2121 51.8 321.2525 C 52.465 321.2929 53.135 321.2929 53.8 321.2525 C 54.47 321.2121 55.13 321.0525 55.8 321.0121 C 56.465 320.9717 57.135 321.0525 57.8 321.0121 C 58.47 320.9717 59.131 320.8255 59.8 320.7716 C 61.13 320.6649 62.465 320.5312 63.8 320.5312 C 64.471 320.5312 65.14 320.6524 65.8 320.7716 C 66.475 320.8938 67.119 321.1707 67.8 321.2525 C 68.461 321.3323 69.134 321.2525 69.8 321.2525 C 71.798 321.2525 73.803 321.1929 75.8 321.2525 C 76.471 321.2727 77.13 321.4525 77.8 321.4929 C 78.465 321.5333 79.135 321.5333 79.8 321.4929 C 80.47 321.4525 81.134 321.3323 81.8 321.2525 C 82.466 321.1727 83.13 321.0525 83.8 321.0121 C 84.465 320.9717 85.145 321.1304 85.8 321.0121 C 86.499 320.8861 86.204 320.6956 87.8 320.2907 C 94.183 318.6712 105.622 321.7603 107.2 315.5301 C 112.827 293.3011 104.975 269.4506 106.05 246.4762 C 107.042 225.3234 114.005 204.0427 113.55 182.5197 Z "/>
  <g id="ID0.9602425838820636">
    <g id="ID0.17693647183477879">
      <path id="ID0.7729651997797191" fill="#393C40" stroke="none" stroke-linecap="round" d="M 119.1941 104.0239 L 99.9041 104.9206 L 103.1808 121.1287 L 105.7228 134.2108 L 109.345 139.714 L 112.608 143.0703 L 124.725 139.9306 L 126.1672 134.304 L 121.1794 115.151 L 119.1941 104.0239 Z " stroke-width="0.7788099592371961"/>
      <path id="ID0.9716172609478235" fill="#34373A" stroke="none" stroke-linecap="round" d="M 115.1442 109.5359 L 119.8484 107.3434 L 118.145 101.0883 L 100.8435 110.1135 L 103.6842 113.0353 L 108.9155 114.9004 L 115.1442 109.5359 Z " stroke-width="0.7788099592371961"/>
      <g id="ID0.38066427363082767">
        <path id="ID0.4757494777441025" fill="#1D1E1F" stroke="none" stroke-linecap="round" d="M 110.5863 80.0608 L 102.4405 77.902 L 87.1612 82.3428 L 94.6531 106.7496 L 104.4635 111.6572 L 108.7635 112.7397 L 111.8609 110.5122 L 114.6257 107.7122 L 120.1106 105.2911 L 120.2976 100.0701 L 119.7251 92.3401 L 116.7716 84.3495 L 110.5863 80.0608 Z " stroke-width="0.45418606189676886"/>
        <path id="ID0.6007084371522069" fill="none" stroke="#0D0D0D" stroke-width="0.9083721237935377" stroke-linecap="round" d="M 119.6516 105.6254 L 114.7392 107.7138 L 110.6024 111.1758 L 108.7619 112.8533 L 104.4635 111.6572 L 100.2931 109.4409 "/>
      </g>
    </g>
    <g id="ID0.7397577832452953">
      <path id="ID0.6726378230378032" fill="#34373A" stroke="none" stroke-linecap="round" d="M 125.5216 131.4702 L 109.942 139.8965 L 110.69 142.0879 L 125.8824 133.5004 L 125.5216 131.4702 Z " stroke-width="0.7788099592371961"/>
      <path id="ID0.6507829907350242" fill="#1D1E1F" stroke="none" stroke-linecap="round" d="M 128.7228 132.5874 L 110.4802 142.0667 L 110.6146 160.1777 L 112.4189 170.3286 L 112.2024 185.7086 L 111.5306 191.9303 L 122.9895 194.0388 L 123.2719 187.8117 L 125.1556 178.4916 L 128.0484 166.6543 L 129.9294 157.5288 L 128.7228 132.5874 Z " stroke-width="0.7788099592371961"/>
      <path id="ID0.6829322893172503" fill="#1D1E1F" stroke="none" stroke-linecap="round" d="M 123.3844 193.6549 L 113.5241 188.6481 L 110.3351 193.8606 L 106.362 199.4516 L 106.2852 204.9028 L 106.8062 209.3887 L 108.7119 212.3364 L 109.9843 218.7801 L 114.4647 218.6485 L 115.6602 216.7181 L 117.2204 216.5453 L 120.371 214.0583 L 123.7217 211.1846 L 125.7289 206.929 L 125.0461 200.1041 L 123.3844 193.6549 Z " stroke-width="0.7788099592371961"/>
      <path id="ID0.47767175547778606" fill="none" stroke="#0D0D0D" stroke-width="1.5576199184743922" stroke-linecap="round" d="M 128.6696 136.3643 L 128.4519 132.4668 L 110.5581 142.0678 L 110.6815 155.4274 "/>
      <path id="ID0.5922487881034613" fill="#282A2B" stroke="none" stroke-linecap="round" d="M 129.1736 165.0858 L 122.5132 159.6177 L 116.6716 159.6133 L 110.6732 165.2148 L 111.8348 179.5237 L 116.2111 186.79 L 119.5207 186.8366 L 125.4599 179.9103 L 129.1736 165.0858 Z " stroke-width="0.7788099592371961"/>
      <path id="ID0.36820242274552584" fill="#151616" stroke="none" stroke-linecap="round" d="M 123.2264 167.4789 L 115.1286 167.287 L 117.5439 178.3033 L 118.9856 178.2457 L 123.2264 167.4789 Z " stroke-width="0.7788099592371961"/>
      <path id="ID0.13569410238415003" fill="none" stroke="#232425" stroke-width="1.5576199184743922" stroke-linecap="round" d="M 123.7199 178.1209 L 118.1723 184.897 L 113.2871 177.8182 "/>
      <path id="ID0.024502143263816833" fill="none" stroke="#0D0D0D" stroke-width="1.5576199184743922" stroke-linecap="round" d="M 128.7756 164.7952 L 122.8117 159.6484 L 117.0523 159.3337 L 110.9761 164.934 L 111.7175 173.1228 "/>
    </g>
  </g>
  <path id="ID0.3809091211296618" fill="#393D40" stroke="none" stroke-linecap="round" d="M 77.5473 174.2509 L 100.508 157.3013 L 111.0104 194.6463 L 112.1763 205.5299 L 110.418 224.0581 L 102.4541 228.2924 L 89.9871 232.0375 L 86.0722 211.5894 L 85.6805 200.1388 L 77.5473 174.2509 Z " stroke-width="0.730588972770239"/>
  <g id="ID0.8669879510998726">
    <path id="ID0.5368814701214433" fill="#292D2E" stroke="none" stroke-linecap="round" d="M 85.0028 307.7777 L 87.8862 298.9477 L 92.3751 289.7008 L 102.3512 295.5588 L 113.6173 303.1939 L 131.0793 313.5362 L 132.1578 320.0518 L 107.4604 321.2307 L 86.2154 317.5644 L 85.0028 307.7777 Z " stroke-width="0.7702165290554439"/>
    <path id="ID0.05466862628236413" fill="#292D2E" stroke="none" stroke-linecap="round" d="M 87.8675 218.5085 L 114.2881 214.3915 L 109.5989 233.292 L 108.0746 238.3481 L 107.6639 256.486 L 104.8671 297.1424 L 89.2124 299.178 L 86.8049 277.0594 L 83.9893 268.4526 L 82.5645 259.0404 L 84.511 245.5124 L 84.3907 233.1918 L 87.8675 218.5085 Z " stroke-width="0.7305889665074583"/>
    <path id="ID0.4490455654449761" fill="none" stroke="#272A2B" stroke-width="1.6585523586930009" stroke-linecap="round" d="M 87.5837 218.7668 L 113.9903 214.2635 L 107.4432 238.7378 "/>
    <path id="ID0.10446935473009944" fill="none" stroke="#242728" stroke-width="1.6585523586930009" stroke-linecap="round" d="M 107.225 251.0728 L 107.225 267.9111 L 96.7496 275.3513 "/>
    <path id="ID0.42170455446466804" fill="none" stroke="#242728" stroke-width="1.6585523586930009" stroke-linecap="round" d="M 106.1338 269.0859 L 104.8244 284.162 L 94.1308 291.798 "/>
    <path id="ID0.047098892275244" fill="none" stroke="#242728" stroke-width="1.6585523586930009" stroke-linecap="round" d="M 84.6237 233.0139 L 84.1872 236.9298 L 88.7702 245.7406 "/>
  </g>
  <path id="ID0.3809091211296618" fill="#3E4246" stroke="none" stroke-linecap="round" d="M 52.4933 147.207 L 75.7409 160.4905 L 78.9037 199.155 L 77.9656 210.0606 L 72.6946 227.9102 L 64.0676 230.5424 L 51.1144 231.8329 L 50.4531 210.071 L 48.7148 196.7681 L 52.4933 147.207 Z " stroke-width="0.7305889665074583"/>
  <g id="ID0.38464318960905075">
    <path id="ID0.5368814701214433" fill="#303436" stroke="none" stroke-linecap="round" d="M 44.4322 310.989 L 47.7043 302.2956 L 52.5988 293.2568 L 62.3054 299.5515 L 73.2217 307.6788 L 90.2079 318.7853 L 90.9964 325.3423 L 66.271 325.4248 L 45.2095 320.8198 L 44.4322 310.989 Z " stroke-width="0.7702164997769955"/>
    <path id="ID0.05466862628236413" fill="#303436" stroke="none" stroke-linecap="round" d="M 51.2205 221.366 L 77.7977 218.4248 L 72.2749 237.0988 L 70.5279 242.0823 L 69.3131 260.1841 L 64.716 300.6765 L 48.9864 302.0158 L 47.5622 279.8122 L 45.1311 271.089 L 44.1251 261.6229 L 46.6697 248.1945 L 47.0959 235.8806 L 51.2205 221.366 Z " stroke-width="0.7305889655901354"/>
    <path id="ID0.4490455654449761" fill="none" stroke="#272A2B" stroke-width="1.6585522809446474" stroke-linecap="round" d="M 50.9702 222.2194 L 77.5504 218.8917 L 69.9244 243.0515 "/>
    <path id="ID0.10446935473009944" fill="none" stroke="#242728" stroke-width="1.6585522809446474" stroke-linecap="round" d="M 69.1593 255.3647 L 68.4125 272.1865 L 57.6175 279.1548 "/>
    <path id="ID0.42170455446466804" fill="none" stroke="#242728" stroke-width="1.6585522809446474" stroke-linecap="round" d="M 67.2703 273.3117 L 65.2936 288.3149 L 54.2719 295.4691 "/>
    <path id="ID0.047098892275244" fill="none" stroke="#242728" stroke-width="1.6585522809446474" stroke-linecap="round" d="M 47.3886 236.2882 L 46.7789 240.1808 L 50.9666 249.1862 "/>
  </g>
  <g id="ID0.9602425838820636">
    <g id="ID0.17693647183477879">
      <path id="ID0.7729651997797191" fill="#3E4246" stroke="none" stroke-linecap="round" d="M 34.785 99.2693 L 54.7785 102.4469 L 49.4796 118.9526 L 45.3098 132.2869 L 40.8959 137.5993 L 37.106 140.7166 L 24.8468 136.0363 L 23.9985 130.0063 L 31.4226 110.6314 L 34.785 99.2693 Z " stroke-width="0.8164595590442184"/>
      <path id="ID0.9716172609478235" fill="#393C40" stroke="none" stroke-linecap="round" d="M 38.3635 105.4831 L 33.7173 102.6517 L 36.2194 96.3328 L 53.1958 107.748 L 49.8963 110.4618 L 44.2292 111.7966 L 38.3635 105.4831 Z " stroke-width="0.8164595590442184"/>
      <g id="ID0.38066427363082767">
        <path id="ID0.4757494777441025" fill="#1D1E1F" stroke="none" stroke-linecap="round" d="M 46.5041 75.3002 L 55.242 73.9984 L 70.6446 80.402 L 60.0006 104.9595 L 49.2087 108.9317 L 44.6028 109.5595 L 41.6347 106.8785 L 39.0798 103.6397 L 33.6468 100.4794 L 34.0591 95.018 L 35.5545 87.0309 L 39.561 79.0492 L 46.5041 75.3002 Z " stroke-width="0.4761425782000586"/>
        <path id="ID0.6007084371522069" fill="none" stroke="#0D0D0D" stroke-width="0.9522851564001172" stroke-linecap="round" d="M 34.0861 100.881 L 38.9613 103.6281 L 42.8687 107.7162 L 44.5912 109.678 L 49.2087 108.9317 L 53.8115 107.1076 "/>
      </g>
    </g>
    <g id="ID0.7397577832452953">
      <path id="ID0.6726378230378032" fill="#393C40" stroke="none" stroke-linecap="round" d="M 24.9349 127.0715 L 40.1869 137.6625 L 39.1527 139.8587 L 24.3229 129.1447 L 24.9349 127.0715 Z " stroke-width="0.8164595590442184"/>
      <path id="ID0.6507829907350242" fill="#1D1E1F" stroke="none" stroke-linecap="round" d="M 21.5356 127.9207 L 39.4396 139.9184 L 37.1933 158.7721 L 34.1329 169.1383 L 32.5699 185.1874 L 32.5463 191.7477 L 20.3623 192.6119 L 20.7923 186.0912 L 19.9136 176.1618 L 18.2763 163.4924 L 17.3778 153.7661 L 21.5356 127.9207 Z " stroke-width="0.8164595590442184"/>
      <path id="ID0.6829322893172503" fill="#1D1E1F" stroke="none" stroke-linecap="round" d="M 19.9956 192.1661 L 30.8511 188.0962 L 33.5673 193.898 L 37.0567 200.1851 L 36.5027 205.8734 L 35.4382 210.4866 L 33.1098 213.3361 L 31.0349 219.9016 L 26.3821 219.2434 L 25.361 217.0932 L 23.7556 216.7317 L 20.7623 213.7742 L 17.6055 210.3905 L 16.0092 205.7233 L 17.5143 198.6921 L 19.9956 192.1661 Z " stroke-width="0.8164595590442184"/>
      <path id="ID0.47767175547778606" fill="none" stroke="#0D0D0D" stroke-width="1.6329191180884368" stroke-linecap="round" d="M 21.1517 131.8619 L 21.8318 127.8265 L 39.3583 139.9105 L 37.676 153.8152 "/>
      <path id="ID0.5922487881034613" fill="#282A2B" stroke="none" stroke-linecap="round" d="M 17.2525 161.656 L 24.8277 156.7335 L 30.9144 157.4083 L 36.5125 163.9418 L 33.6383 178.7148 L 28.2337 185.7765 L 24.7801 185.4401 L 19.3977 177.533 L 17.2525 161.656 Z " stroke-width="0.8164595590442184"/>
      <path id="ID0.36820242274552584" fill="#151616" stroke="none" stroke-linecap="round" d="M 23.2528 164.9738 L 31.7119 165.7156 L 27.9144 176.9123 L 26.419 176.6846 L 23.2528 164.9738 Z " stroke-width="0.8164595590442184"/>
      <path id="ID0.13569410238415003" fill="none" stroke="#232425" stroke-width="1.6329191180884368" stroke-linecap="round" d="M 21.4526 175.9425 L 26.4444 183.6475 L 32.3574 176.8405 "/>
      <path id="ID0.024502143263816833" fill="none" stroke="#0D0D0D" stroke-width="1.6329191180884368" stroke-linecap="round" d="M 17.7349 161.4709 L 24.5471 156.8023 L 30.5842 157.1441 L 36.2636 163.6856 L 34.5388 172.131 "/>
    </g>
  </g>
  <g id="ID0.9157347986474633">
    <path id="ID0.7477802094072104" fill="#363A3D" stroke="none" stroke-linecap="round" d="M 109.3661 126.0947 L 90.0804 121.6594 L 87.2404 162.7477 L 103.2501 172.8033 L 107.221 148.4979 L 109.3661 126.0947 Z " stroke-width="0.47614257953032774"/>
    <path id="ID0.7477802094072104" fill="#363A3D" stroke="none" stroke-linecap="round" d="M 49.1936 121.9523 L 72.7848 120.7193 L 69.9448 161.8076 L 52.7038 169.5648 L 48.9732 144.1305 L 49.1936 121.9523 Z " stroke-width="0.47614257953032774"/>
    <path id="ID0.4270821204409003" fill="#3E4246" stroke="none" stroke-linecap="round" d="M 50.8998 101.9671 L 55.5617 89.7608 L 58.2202 84.0979 L 65.2359 77.543 L 96.1317 81.1104 L 102.7239 85.8615 L 105.2949 90.0961 L 111.5132 101.9806 L 110.0784 112.3816 L 108.7508 117.7785 L 109.9373 124.781 L 110.0347 130.2765 L 107.4211 137.0164 L 105.4449 142.1298 L 103.6171 151.3104 L 103.6031 173.2643 L 97.9066 181.1036 L 92.7043 186.9725 L 80.241 191.552 L 68.883 187.7362 L 65.4271 180.7677 L 60.9303 174.0136 L 52.6173 170.3367 L 53.2256 144.9637 L 52.4978 138.2314 L 48.7257 126.516 L 48.1663 115.6193 L 50.8998 101.9671 Z " stroke-width="0.47614257953032774"/>
    <path id="ID0.052435632329434156" fill="#393C40" stroke="none" stroke-linecap="round" d="M 59.5762 152.559 L 64.0142 152.9134 L 70.3666 156.6457 L 75.4369 156.8292 L 81.1801 159.0159 L 85.4341 158.2361 L 87.1295 157.876 L 101.5433 155.4598 L 101.673 158.7619 L 92.8355 162.3273 L 86.9192 161.6081 L 81.1277 164.2624 L 74.7206 160.2877 L 68.2784 160.2719 L 58.6846 155.7906 L 59.5762 152.559 Z " stroke-width="0.47614257953032774"/>
    <path id="ID0.4987568911164999" fill="none" stroke="#27282B" stroke-width="0.9522851590606555" stroke-linecap="round" d="M 64.9977 78.2206 L 58.1582 83.9524 L 54.1436 93.6978 "/>
    <path id="ID0.2889464790932834" fill="none" stroke="#27282B" stroke-width="0.9522851590606555" stroke-linecap="round" d="M 97.4373 81.8947 L 102.8747 86.0887 L 107.9346 95.7454 "/>
    <path id="ID0.8373676878400147" fill="#000000" stroke="#2C2F31" stroke-width="0.6155104305109164" stroke-linecap="round" d="M 67.627 91.4785 L 68.076 89.9748 L 64.3828 90.6359 L 59.3124 93.6415 L 54.8514 98.4038 L 52.0259 103.859 L 57.303 101.9544 L 61.9974 102.1592 L 64.677 103.2584 L 67.0109 106.4118 L 69.1791 105.5316 L 73.1983 105.5191 L 77.6327 106.8587 L 81.2547 110.2864 L 83.1219 113.4737 L 85.4753 110.6017 L 89.3751 107.719 L 93.5779 106.5645 L 98.7248 106.8886 L 100.5136 107.5959 L 102.4145 104.6046 L 104.4508 103.4804 L 107.0127 104.1823 L 109.7047 105.9781 L 108.5217 102.0818 L 106.5031 98.0305 L 103.8627 94.8486 L 100.8447 92.4043 L 96.396 91.2179 L 98.4467 93.2631 L 98.2828 95.0251 L 96.5511 97.0276 L 92.906 98.0022 L 89.7295 98.0931 L 87.1106 98.0041 L 84.8336 94.2379 L 84.2582 96.2707 L 82.8027 96.1353 L 81.4148 93.6108 L 80.1802 97.7459 L 76.0986 97.5981 L 72.0401 96.3707 L 68.7905 94.7548 L 67.627 91.4785 Z "/>
    <path id="ID0.5698574706912041" fill="none" stroke="#313537" stroke-width="0.9522851590606555" stroke-linecap="round" d="M 59.5164 152.3878 L 58.701 155.553 L 68.2702 160.3907 L 75.0637 160.5023 L 80.8984 164.1272 "/>
    <path id="ID0.5698574706912041" fill="none" stroke="#313537" stroke-width="0.8933066412747297" stroke-linecap="round" d="M 101.255 155.5174 L 101.551 158.7595 L 92.6714 162.3219 L 86.7953 161.5578 L 81.2941 164.3991 "/>
    <path id="ID0.8947288258932531" fill="#393C40" stroke="none" stroke-linecap="round" d="M 61.6468 140.5553 L 68.6614 140.9209 L 76.059 143.3413 L 81.3307 149.2421 L 74.5551 144.3828 L 63.9234 142.1445 L 58.6085 144.8079 L 61.6468 140.5553 Z " stroke-width="0.47614257953032774"/>
    <path id="ID0.8947288258932531" fill="#393C40" stroke="none" stroke-linecap="round" d="M 100.2216 144.2445 L 94.0284 143.7109 L 87.2493 144.9318 L 81.9098 149.4623 L 88.4407 146.0279 L 98.0326 145.3604 L 102.3671 148.3421 L 100.2216 144.2445 Z " stroke-width="0.42137388573092743"/>
    <path id="ID0.9897695370018482" fill="#393C40" stroke="none" stroke-linecap="round" d="M 64.2452 153.0249 L 57.7466 152.0984 L 58.4943 147.4966 L 59.4405 151.07 L 64.5132 151.5638 L 70.3995 155.4787 L 75.8867 155.5 L 79.8733 157.2074 L 81.7926 149.465 L 81.3537 159.2666 L 75.9103 156.8858 L 70.0439 156.4803 L 64.2452 153.0249 Z " stroke-width="0.47614257953032774"/>
    <path id="ID0.9897695370018482" fill="#393C40" stroke="none" stroke-linecap="round" d="M 96.4117 155.5129 L 101.9658 155.4529 L 101.902 151.1207 L 100.6733 154.2983 L 96.3658 154.1337 L 90.9593 157.0225 L 86.3625 156.3719 L 82.8161 157.4584 L 82.155 150.0886 L 81.3251 159.1753 L 86.1735 157.6461 L 91.1346 157.989 L 96.4117 155.5129 Z " stroke-width="0.4232251283968137"/>
    <path id="ID0.3524594851769507" fill="#393C40" stroke="none" stroke-linecap="round" d="M 77.0389 119.119 L 82.778 121.7112 L 87.3802 119.6906 L 83.9587 123.2724 L 84.1405 134.4533 L 93.2485 134.2237 L 82.5995 137.0672 L 71.2852 131.584 L 80.8121 134.2709 L 81.1865 122.9853 L 77.0389 119.119 Z " stroke-width="0.47614257953032774"/>
    <path id="ID0.9214867809787393" fill="#393C40" stroke="none" stroke-linecap="round" d="M 61.9144 136.684 L 65.1738 132.6854 L 69.9895 132.0637 L 63.8424 136.4116 L 63.4029 139.3165 L 68.4347 139.712 L 76.3595 143.4814 L 67.5369 140.9625 L 61.6943 140.5586 L 61.9144 136.684 Z " stroke-width="0.47614257953032774"/>
    <path id="ID0.9214867809787393" fill="#393C40" stroke="none" stroke-linecap="round" d="M 100.1764 140.1268 L 97.7366 135.9271 L 93.452 134.72 L 98.4641 139.6213 L 98.4888 142.4242 L 93.8775 142.151 L 87.0521 144.526 L 94.5304 143.4487 L 99.8775 143.8183 L 100.1764 140.1268 Z " stroke-width="0.4451788598196323"/>
    <path id="ID0.8679121839813888" fill="#2C2F31" stroke="none" stroke-linecap="round" d="M 79.0645 118.1578 L 82.7529 120.0355 L 86.1912 118.6266 L 87.0756 119.6423 L 82.9729 122.0314 L 77.3796 119.4016 L 79.0645 118.1578 Z " stroke-width="0.47614257953032774"/>
    <path id="ID0.24770551454275846" fill="none" stroke="#313537" stroke-width="0.9522851590606555" stroke-linecap="round" d="M 83.2512 116.5484 L 87.6363 120.4311 L 95.0848 121.4232 L 102.7589 120.8798 L 108.2466 117.4409 "/>
    <path id="ID0.20603158557787538" fill="none" stroke="#313537" stroke-width="0.9522851590606555" stroke-linecap="round" d="M 50.255 110.2531 L 56.892 116.0812 L 69.0206 120.1412 L 76.3055 120.0481 L 82.7515 116.5562 "/>
    <g id="ID0.5272086253389716">
      <path id="ID0.24770551454275846" fill="none" stroke="#363A3D" stroke-width="0.9522850990841238" stroke-linecap="round" d="M 51.3981 142.9167 L 61.4966 140.4409 "/>
      <path id="ID0.24770551454275846" fill="none" stroke="#363A3D" stroke-width="0.9522850990841238" stroke-linecap="round" d="M 49.6402 130.8312 L 70.4466 126.0409 "/>
    </g>
    <g id="ID0.5272086253389716">
      <path id="ID0.24770551454275846" fill="none" stroke="#363A3D" stroke-width="0.9522850833357726" stroke-linecap="round" d="M 106.7922 145.7576 L 99.9966 143.4511 "/>
      <path id="ID0.24770551454275846" fill="none" stroke="#363A3D" stroke-width="0.9522850833357726" stroke-linecap="round" d="M 108.0428 134.4495 L 94.5293 128.7432 "/>
    </g>
    <g id="ID0.7887678607366979">
      <path id="ID0.753661650698632" fill="none" stroke="#313537" stroke-width="0.9522850990841238" stroke-linecap="round" d="M 77.5057 119.2706 L 82.5666 122.0068 L 86.7848 119.6733 "/>
      <g id="ID0.8167418288066983">
        <path id="ID0.9553722990676761" fill="none" stroke="#313537" stroke-width="1.0409107962835669" stroke-linecap="round" d="M 82.134 136.9015 L 76.6823 134.3769 L 70.6542 132.0512 L 65.829 132.6722 L 62.0339 136.7054 L 61.7959 140.1492 "/>
        <path id="ID0.5982440118677914" fill="none" stroke="#313537" stroke-width="0.8540413506934789" stroke-linecap="round" d="M 71.0429 131.6332 L 70.2204 126.2704 L 75.9321 119.5907 "/>
      </g>
      <g id="ID0.7324484633281827">
        <path id="ID0.04993448918685317" fill="none" stroke="#313537" stroke-width="0.9522850990841238" stroke-linecap="round" d="M 82.5749 121.8881 L 82.565 132.3875 L 81.9073 148.8082 L 81.0203 165.0936 "/>
        <g id="ID0.8167418288066983">
          <path id="ID0.9553722990676761" fill="none" stroke="#313537" stroke-width="0.9699703242619229" stroke-linecap="round" d="M 82.4638 136.7698 L 87.5808 135.7632 L 93.1296 134.2377 L 97.2501 135.477 L 100.0327 139.9649 L 99.7947 143.4087 "/>
          <path id="ID0.5982440118677914" fill="none" stroke="#313537" stroke-width="0.7916616193519995" stroke-linecap="round" d="M 92.9067 133.8959 L 94.3161 128.6875 L 90.2071 121.3289 "/>
          <path id="ID0.3567589442245662" fill="none" stroke="#313537" stroke-width="0.8967655216378182" stroke-linecap="round" d="M 81.7018 149.475 L 87.1628 144.865 L 94.6055 143.4703 L 100.1203 143.8515 L 102.0354 148.6373 L 101.8435 155.6639 L 96.2586 155.9938 L 90.405 158.6915 L 85.5124 158.1147 L 81.1872 159.6532 L 75.5314 156.7566 L 69.9375 156.6086 L 63.7378 153.0777 L 57.4993 151.9306 L 58.3178 144.9473 L 61.1865 140.4921 L 67.4533 140.9253 L 75.636 143.4 L 81.1002 148.7653 Z "/>
        </g>
      </g>
    </g>
    <g id="ID0.9312638868577778">
      <path id="ID0.2888958193361759" fill="#393C40" stroke="none" stroke-linecap="round" d="M 61.5316 160.8344 L 71.5806 163.6182 L 70.7862 166.4861 L 60.7371 163.7022 L 61.5316 160.8344 Z " stroke-width="0.4761425580055499"/>
      <path id="ID0.2888958193361759" fill="#393C40" stroke="none" stroke-linecap="round" d="M 50.9515 158.0201 L 62.2306 161.2682 L 61.4362 164.1361 L 51.3871 161.3522 L 50.9515 158.0201 Z " stroke-width="0.4761425580055499"/>
      <g id="ID0.36424446757882833">
        <path id="ID0.7359844641759992" fill="#8A7B59" stroke="none" d="M 64.444 160.3157 L 65.964 160.4208 L 65.5339 166.6434 L 64.0139 166.5384 L 64.444 160.3157 Z " stroke-width="0.4761425495420619"/>
        <path id="ID0.7359844641759992" fill="#8A7B59" stroke="none" d="M 62.594 159.7657 L 64.114 159.8708 L 63.6839 166.0934 L 62.1639 165.9884 L 62.594 159.7657 Z " stroke-width="0.4761425495420619"/>
        <path id="ID0.7359844641759992" fill="#8A7B59" stroke="none" d="M 60.694 158.9657 L 62.214 159.0708 L 61.7839 165.2934 L 60.2639 165.1884 L 60.694 158.9657 Z " stroke-width="0.4761425495420619"/>
        <path id="ID0.7359844641759992" fill="#8A7B59" stroke="none" d="M 66.294 160.9157 L 67.814 161.0208 L 67.3839 167.2434 L 65.8639 167.1384 L 66.294 160.9157 Z " stroke-width="0.4761425495420619"/>
      </g>
      <g id="ID0.1049797898158431">
        <path id="ID0.08871637750416994" fill="#8A7B59" stroke="none" stroke-linecap="round" d="M 52.6919 157.4726 L 59.0086 158.9592 L 58.5753 164.5373 L 52.4978 163.0433 L 52.6919 157.4726 Z " stroke-width="0.4761425495420619"/>
        <path id="ID0.13805592898279428" fill="#76694C" stroke="none" stroke-linecap="round" d="M 52.5264 157.1581 L 59.1518 158.6661 L 59.0481 161.5465 L 52.4056 159.9419 L 52.5264 157.1581 Z " stroke-width="0.4761425495420619"/>
        <path id="ID0.3221200187690556" fill="#61563F" stroke="none" stroke-linecap="round" d="M 55.2431 159.5641 L 56.0946 159.9856 L 56.0508 161.7438 L 55.1202 161.3428 L 55.2431 159.5641 Z " stroke-width="0.5167889074441587"/>
        <path id="ID0.1420820001512766" fill="#BAA578" stroke="none" stroke-linecap="round" d="M 57.9774 163.5225 L 58.7884 162.1467 L 58.6767 164.4538 L 52.4993 163.0245 L 57.9774 163.5225 Z " stroke-width="0.4761425495420619"/>
      </g>
      <path id="ID0.2888958193361759" fill="#393C40" stroke="none" stroke-linecap="round" d="M 99.0194 163.7825 L 91.4886 165.0794 L 91.7448 167.6396 L 99.2756 166.3427 L 99.0194 163.7825 Z " stroke-width="0.3810469706993963"/>
      <path id="ID0.2888958193361759" fill="#393C40" stroke="none" stroke-linecap="round" d="M 105.6514 162.4253 L 98.5386 163.8794 L 98.7948 166.4396 L 105.0299 165.3034 L 105.6514 162.4253 Z " stroke-width="0.3810469706993963"/>
      <path id="ID0.7359844641759992" fill="#8A7B59" stroke="none" d="M 97.0284 162.623 L 95.924 162.5466 L 95.5498 167.9597 L 96.6542 168.036 L 97.0284 162.623 Z " stroke-width="0.3816028127903008"/>
      <path id="ID0.7359844641759992" fill="#8A7B59" stroke="none" d="M 98.4784 162.223 L 97.374 162.1466 L 96.9998 167.5597 L 98.1042 167.636 L 98.4784 162.223 Z " stroke-width="0.3816028127903008"/>
      <path id="ID0.7359844641759992" fill="#8A7B59" stroke="none" d="M 99.9784 161.873 L 98.874 161.7966 L 98.4998 167.2097 L 99.6042 167.286 L 99.9784 161.873 Z " stroke-width="0.3816028127903008"/>
      <path id="ID0.7359844641759992" fill="#8A7B59" stroke="none" d="M 95.5784 163.123 L 94.474 163.0466 L 94.0998 168.4597 L 95.2042 168.536 L 95.5784 163.123 Z " stroke-width="0.3816028127903008"/>
      <g id="ID0.1049797898158431">
        <path id="ID0.08871637750416994" fill="#8A7B59" stroke="none" stroke-linecap="round" d="M 105.968 161.3904 L 100.9692 162.0153 L 100.6493 167.1766 L 105.4663 166.517 L 105.968 161.3904 Z " stroke-width="0.40545296314924995"/>
        <path id="ID0.13805592898279428" fill="#76694C" stroke="none" stroke-linecap="round" d="M 106.1833 161.2301 L 100.9461 161.8386 L 100.6891 164.4897 L 105.9508 163.7946 L 106.1833 161.2301 Z " stroke-width="0.40545296314924995"/>
        <path id="ID0.3221200187690556" fill="#61563F" stroke="none" stroke-linecap="round" d="M 103.9681 163.0942 L 103.2684 163.381 L 103.0967 164.997 L 103.8545 164.7381 L 103.9681 163.0942 Z " stroke-width="0.44006480662422137"/>
        <path id="ID0.1420820001512766" fill="#BAA578" stroke="none" stroke-linecap="round" d="M 101.2707 166.4209 L 100.8117 165.0657 L 100.6278 167.1925 L 105.5136 166.6039 L 101.2707 166.4209 Z " stroke-width="0.40545296314924995"/>
      </g>
      <g id="ID0.6836685389280319">
        <path id="ID0.09357938077300787" fill="#857656" stroke="none" d="M 72.3269 160.8058 L 90.2585 162.0452 L 89.8152 168.4578 L 71.8836 167.2184 L 72.3269 160.8058 Z " stroke-width="0.42833207568016807"/>
        <path id="ID0.6492703901603818" fill="#7C6E50" stroke="none" stroke-linecap="round" d="M 72.8389 162.9974 L 80.8194 166.6513 L 89.8443 164.1728 L 89.5504 168.4241 L 72.5451 167.2487 L 72.8389 162.9974 Z " stroke-width="0.4761425495420619"/>
        <g id="ID0.9254062357358634">
          <g id="ID0.49943465692922473">
            <path id="ID0.140373723115772" fill="#968561" stroke="none" d="M 88.8066 160.761 L 93.9129 161.114 L 93.2891 170.1392 L 88.1827 169.7862 L 88.8066 160.761 Z " stroke-width="0.4761425495420619"/>
            <path id="ID0.8286363878287375" fill="#BAA578" stroke="none" stroke-linecap="round" d="M 88.7801 160.547 L 93.9888 161.1457 L 89.8037 161.62 L 88.6346 163.687 L 88.7801 160.547 Z " stroke-width="0.4761425495420619"/>
            <path id="ID0.7362233307212591" fill="#8A7B59" stroke="none" stroke-linecap="round" d="M 88.3836 166.6287 L 91.0878 166.8634 L 93.7016 164.6099 L 93.3158 170.1913 L 88.162 169.8351 L 88.3836 166.6287 Z " stroke-width="0.4761425495420619"/>
          </g>
          <g id="ID0.49943465692922473">
            <path id="ID0.140373723115772" fill="#968561" stroke="none" d="M 73.739 159.9566 L 68.6326 159.6036 L 68.0088 168.6288 L 73.1151 168.9818 L 73.739 159.9566 Z " stroke-width="0.4761425495420619"/>
            <path id="ID0.8286363878287375" fill="#BAA578" stroke="none" stroke-linecap="round" d="M 73.7925 159.7531 L 68.5509 159.6295 L 72.631 160.6751 L 73.5045 162.8833 L 73.7925 159.7531 Z " stroke-width="0.4761425495420619"/>
            <path id="ID0.7362233307212591" fill="#8A7B59" stroke="none" stroke-linecap="round" d="M 73.3485 165.8316 L 70.6376 165.692 L 68.3588 163.1003 L 67.973 168.6817 L 73.1268 169.0379 L 73.3485 165.8316 Z " stroke-width="0.4761425495420619"/>
          </g>
        </g>
      </g>
    </g>
  </g>
  <g id="ID0.8333355090580881">
    <path id="ID0.9286923445761204" fill="#27282B" stroke="none" stroke-linecap="round" d="M 73.0717 43.9949 L 91.7863 46.3763 L 91.0873 70.7256 L 105.9616 78.5943 L 82.5857 88.8348 L 46.5705 74.5348 L 66.9373 64.9117 L 73.0717 43.9949 Z " stroke-width="0.47614260285869914"/>
    <path id="ID0.5448851804248989" fill="none" stroke="#1D1E1F" stroke-width="0.9522852057173983" stroke-linecap="round" d="M 68.6419 59.226 L 67.1367 64.7306 L 83.8314 73.4023 L 90.7973 70.8069 "/>
    <path id="ID0.262191956397146" fill="none" stroke="#1D1E1F" stroke-width="0.9522852057173983" stroke-linecap="round" d="M 71.1615 64.3053 L 83.5612 71.1011 L 86.6113 70.1281 "/>
  </g>
  <g id="ID0.3450673264451325">
    <g id="ID0.9831569031812251">
      <path id="ID0.0877610077150166" fill="#2E3034" stroke="none" stroke-linecap="round" d="M 97.3384 14.3061 L 93.404 0.9843 L 92.0281 29.4797 L 99.6905 29.8497 L 97.3384 14.3061 Z " stroke-width="0.5866066724321363"/>
      <path id="ID0.796130308881402" fill="#242628" stroke="none" stroke-linecap="round" d="M 97.6827 14.3754 L 93.3931 1.0364 L 96.2778 15.0298 L 96.4986 29.9451 L 99.6844 29.8035 L 97.6827 14.3754 Z " stroke-width="0.5866066724321363"/>
    </g>
    <g id="ID0.9831569031812251">
      <path id="ID0.0877610077150166" fill="#2E3034" stroke="none" stroke-linecap="round" d="M 73.5051 13.3428 L 78.7047 0.462 L 77.3288 28.9574 L 69.6663 28.5874 L 73.5051 13.3428 Z " stroke-width="0.5866066724321363"/>
      <path id="ID0.796130308881402" fill="#242628" stroke="none" stroke-linecap="round" d="M 73.1053 13.3333 L 78.6601 0.4696 L 74.4406 14.12 L 72.6474 28.6098 L 69.6265 28.4968 L 73.1053 13.3333 Z " stroke-width="0.5866066724321363"/>
    </g>
    <path id="ID0.8999492498114705" fill="#2E3034" stroke="none" stroke-linecap="round" d="M 90.7699 19.9931 C 95.1459 20.6841 99.7415 23.6195 101.684 27.6008 C 103.9003 32.1461 101.6848 37.6442 101.7432 42.6484 C 101.8341 44.3582 102.5412 46.1471 102.1325 47.7535 C 101.3003 51.0209 99.4822 53.9656 98.2478 57.1027 C 97.439 59.1587 97.1712 61.5032 95.9117 63.3477 C 94.4888 65.5343 92.9965 68.6 90.3779 68.9298 C 86.4958 69.4183 82.5129 67.3827 79.152 65.4631 C 76.391 63.8858 73.8473 61.5484 72.4085 58.7033 C 69.8403 53.4284 67.5552 47.6515 67.4538 41.7556 C 67.3417 35.2199 66.9614 27.126 71.9371 22.6442 C 76.4034 18.3132 84.2647 18.969 90.7699 19.9931 Z " stroke-width="0.5080372698870541"/>
    <path id="ID0.2441388238221407" fill="#AB8E85" stroke="none" d="M 87.2462 44.716 C 91.3136 45.0796 96.8989 42.1809 99.4885 45.0557 C 101.8158 47.7619 98.2171 52.4551 97.0799 55.8779 C 95.9475 59.2821 95.0797 62.9832 92.7068 65.7252 C 91.5794 66.9406 89.3532 66.9048 87.6378 66.5491 C 84.5533 65.9061 81.557 64.4764 79.0518 62.5625 C 76.4593 60.5828 73.0136 58.3847 72.5984 55.1358 C 72.0729 51.0205 72.9966 45.6637 76.3158 43.2452 C 79.3545 41.1401 83.5881 44.3885 87.2462 44.716 Z " stroke-width="1.255840018565528"/>
    <path id="ID0.46721756737679243" fill="#A2887F" stroke="none" stroke-linecap="round" d="M 72.606 45.1118 L 74.2475 45.8777 L 100.2471 46.7517 L 92.7963 51.4782 L 76.1948 48.2097 L 77.196 50.6486 L 77.179 56.2681 L 80.4605 63.6237 L 76.2157 56.7303 L 72.606 45.1118 Z " stroke-width="0.5080372698870541"/>
    <path id="ID0.8256730306893587" fill="none" stroke="#937B73" stroke-width="1.0160745397741082" stroke-linecap="round" d="M 82.989 57.4211 C 82.989 57.4211 85.7138 56.9555 87.0865 56.8306 C 87.4298 56.7994 87.764 56.8933 88.0977 56.9557 C 88.437 57.0194 88.7577 57.2027 89.1028 57.2077 C 89.7869 57.2178 90.4648 57.0532 91.1473 57.0012 C 91.4858 56.9754 91.8271 56.9537 92.1659 56.9741 C 92.5052 56.9946 92.8487 57.0315 93.1759 57.1246 C 93.7137 57.2777 94.7498 57.7092 94.7498 57.7092 "/>
    <path id="ID0.7592270169407129" fill="none" stroke="#937B73" stroke-width="1.0160745397741082" stroke-linecap="round" d="M 91.4047 59.1568 C 91.4047 59.1568 90.767 59.4714 90.421 59.5162 C 90.0852 59.56 89.7466 59.3987 89.4085 59.4165 C 89.0684 59.4346 88.7463 59.5961 88.4068 59.6224 C 88.0693 59.6488 87.7176 59.6644 87.3919 59.5734 C 87.1149 59.4959 86.6503 59.1307 86.6503 59.1307 "/>
    <path id="ID0.5332203092984855" fill="none" stroke="#937B73" stroke-width="1.0160745397741082" stroke-linecap="round" d="M 85.9784 49.4196 C 85.9784 49.4196 85.3527 49.8218 85.2312 50.1465 C 85.0728 50.5819 84.7779 51.4135 85.2048 51.7474 C 85.7708 52.0652 86.5635 51.3756 87.2529 51.4648 C 87.92 51.554 89.2075 52.0678 89.2075 52.0678 "/>
    <path id="ID0.2278452254831791" fill="none" stroke="#937B73" stroke-width="1.0160745397741082" stroke-linecap="round" d="M 90.4935 45.9755 C 90.4935 45.9755 91.3368 47.8809 91.7542 48.8339 C 91.8939 49.1529 92.0496 49.4666 92.1655 49.7947 C 92.2814 50.1227 92.4781 50.4537 92.4476 50.8001 C 92.4171 51.1476 92.1955 51.4593 91.9951 51.7447 C 91.8613 51.9356 91.4644 52.2022 91.4644 52.2022 "/>
    <path id="ID0.6473136460408568" fill="none" stroke="#937B73" stroke-width="1.0160745789894412" stroke-linecap="round" d="M 89.9987 62.8986 C 89.9987 62.8986 90.2846 63.548 90.3187 63.8946 C 90.3516 64.2321 90.2749 64.5763 90.1954 64.906 C 90.0759 65.4028 89.7238 66.3662 89.7238 66.3662 "/>
    <path id="ID0.11669129692018032" fill="#2E3034" stroke="none" stroke-linecap="round" d="M 74.7916 39.8767 L 97.9214 42.7738 L 101.7255 45.6278 L 92.1111 49.8683 L 71.5552 46.3326 L 74.7916 39.8767 Z " stroke-width="0.5080372698870541"/>
    <path id="ID0.14635155349969864" fill="#2E3034" stroke="none" stroke-linecap="round" d="M 71.8739 45.0002 L 73.7077 45.4702 L 76.0952 50.7989 L 76.1216 56.5731 L 77.7646 60.4672 L 80.4868 64.1336 L 72.5173 58.5353 L 71.8739 45.0002 Z " stroke-width="0.5080372698870541"/>
    <path id="ID0.28340246016159654" fill="#1C1D1F" stroke="none" stroke-linecap="round" d="M 75.0807 36.7607 L 78.4322 38.4636 L 88.0458 39.82 L 87.7683 45.5654 L 80.8817 44.2866 L 77.0765 43.0214 L 75.1265 41.4132 L 74.3467 39.6452 L 75.0807 36.7607 Z " stroke-width="0.5401026644245689"/>
    <path id="ID0.6101007834076881" fill="#FFFFFF" stroke="none" stroke-linecap="round" d="M 78.7875 39.4651 L 80.4191 39.9441 L 84.1367 41.3263 L 84.5858 43.3185 L 79.4073 41.6139 L 78.7875 39.4651 Z " stroke-width="0.4061061935907832"/>
    <path id="ID0.28340246016159654" fill="#1C1D1F" stroke="none" stroke-linecap="round" d="M 100.6244 38.0313 L 97.5034 39.2549 L 88.8541 39.6328 L 88.6067 44.7562 L 94.829 44.2128 L 98.3151 43.4168 L 100.1841 42.1569 L 101.0281 40.6546 L 100.6244 38.0313 Z " stroke-width="0.4816250106540143"/>
    <path id="ID0.6101007834076881" fill="#FFFFFF" stroke="none" stroke-linecap="round" d="M 98.8297 40.0123 L 97.2663 40.4288 L 93.6972 41.6541 L 93.2222 43.5382 L 98.1886 42.0412 L 98.8297 40.0123 Z " stroke-width="0.38638674452074895"/>
    <g id="ID0.07940126257017255">
      <path id="ID0.46257128613069654" fill="#27282B" stroke="none" stroke-linecap="round" d="M 88.249 39.639 L 92.1074 49.7945 L 82.1466 48.0419 L 88.249 39.639 Z " stroke-width="0.5080372698870541"/>
      <path id="ID0.9845890481956303" fill="#27282B" stroke="none" stroke-linecap="round" d="M 89.0622 39.8029 L 96.9783 47.5602 L 92.1872 49.872 L 89.0622 39.8029 Z " stroke-width="0.5080372698870541"/>
    </g>
    <path id="ID0.20071752788498998" fill="#202324" stroke="none" d="M 80.0418 34.6541 L 84.0537 37.4164 L 88.742 38.8126 L 88.7507 40.2118 L 81.0481 38.5683 L 75.2744 35.9498 L 77.0855 34.257 L 80.0418 34.6541 Z " stroke-width="0.5080372698870541"/>
    <path id="ID0.20071752788498998" fill="#202324" stroke="none" d="M 97.0649 35.2734 L 93.8975 37.5703 L 88.5847 38.877 L 88.453 40.154 L 95.6322 39.334 L 101.1538 37.5707 L 99.7253 35.2619 L 97.0649 35.2734 Z " stroke-width="0.46609799165451565"/>
    <path id="ID0.521138689480722" fill="none" stroke="#212325" stroke-width="0.9060627303393957" stroke-linecap="round" d="M 100.7072 37.7567 L 97.3954 39.1843 L 88.8056 40.0168 "/>
    <path id="ID0.17828734638169408" fill="none" stroke="#202324" stroke-width="1.0160745397741082" stroke-linecap="round" d="M 92.0366 49.3053 L 89.4679 41.9333 C 88.5849 39.4685 88.7057 40.0435 88.5637 39.0667 C 88.514 38.7256 88.7479 38.4001 88.8156 38.0616 C 88.8821 37.7281 88.9624 37.3917 88.9661 37.0516 C 88.97 36.708 88.8873 36.3678 88.8375 36.0282 C 88.7599 35.498 88.5836 34.4391 88.5836 34.4391 "/>
    <path id="ID0.521138689480722" fill="none" stroke="#212325" stroke-width="1.0160745397741082" stroke-linecap="round" d="M 75.3994 36.2707 L 78.9419 38.2219 L 88.4399 40.0793 "/>
    <path id="ID0.8012696979567409" fill="none" stroke="url(#grad_1)" stroke-width="1.0160745397741082" stroke-linecap="round" d="M 100.2691 46.295 L 92.621 49.8421 L 74.1612 46.6111 L 75.954 50.5632 L 75.9645 56.6673 L 77.7188 60.3632 L 80.436 64.1311 "/>
    <path id="ID0.043594349175691605" fill="#D7E2FD" stroke="none" stroke-linecap="round" d="M 83.8467 42.3489 L 84.129 41.2436 L 84.5372 43.3232 L 81.9847 42.4625 L 83.8467 42.3489 Z " stroke-width="0.5080372698870541"/>
    <path id="ID0.043594349175691605" fill="#D7E2FD" stroke="none" stroke-linecap="round" d="M 93.9591 42.6924 L 93.7426 41.6781 L 93.2967 43.5526 L 95.6464 42.8628 L 93.9591 42.6924 Z " stroke-width="0.4618642625598356"/>
  </g>
</svg>