<svg xmlns="http://www.w3.org/2000/svg" xmlns:xlink="http://www.w3.org/1999/xlink" version="1.1" width="123.9410019701211" height="314.8169556444375" viewBox="-0.8318000378950638 0.8554502335444885 123.9410019701211 314.8169556444375">
  <!-- Exported by Scratch - http://scratch.mit.edu/ -->
  <path id="ID0.7729651997797191" fill="#282828" stroke="none" stroke-linecap="round" d="M 9.743 76.5487 L 33.455 78.2848 L 28.8907 98.1255 L 23.8728 108.2752 L 21.5065 117.2595 L 18.1431 125.4642 L 1.7589 120.5597 L 0.1682 113.5875 L 6.9349 90.1784 L 9.743 76.5487 Z " stroke-width="0.9588636759300688"/>
  <path id="ID0.4757494777441025" fill="#282828" stroke="none" stroke-linecap="round" d="M 22.4645 60.7808 L 31.5055 60.0298 L 46.9578 67.3931 L 34.6652 91.2503 L 23.3673 94.5392 L 18.6049 94.8768 L 15.7078 92.0127 L 13.2659 88.6175 L 7.8656 85.1198 L 8.5929 79.6913 L 10.5727 71.8084 L 15.1295 64.0887 L 22.4645 60.7808 Z " stroke-width="0.48299249410675504"/>
  <g id="ID0.5880346246995032">
    <path id="ID0.6829322893172503" fill="#1D1E1F" stroke="none" stroke-linecap="round" d="M 103.2684 175.0607 L 113.1352 168.9738 L 116.9194 174.1427 L 121.5557 179.6389 L 122.1092 185.3273 L 121.9543 190.0591 L 120.2192 193.3041 L 119.4494 200.1466 L 114.7571 200.3981 L 113.3405 198.4851 L 111.6955 198.4401 L 108.188 196.1153 L 104.4379 193.404 L 101.9715 189.1323 L 102.0923 181.9427 L 103.2684 175.0607 Z " stroke-width="0.8164595959504969"/>
    <g id="ID0.9434720128774643">
      <path id="ID0.6507829907350242" fill="#282828" stroke="none" stroke-linecap="round" d="M 91.3344 111.0484 L 111.2161 119.368 L 111.5159 136.3604 L 111.6443 149.0628 L 113.2058 165.112 L 116.1978 171.8346 L 101.7711 175.7402 L 101.8236 168.2703 L 99.0465 158.6967 L 94.9966 146.5809 L 92.8952 133.4142 L 91.3344 111.0484 Z " stroke-width="0.8164595959504969"/>
      <path id="ID0.9892375003546476" fill="none" stroke="#191919" stroke-width="2.0000000780312623" stroke-linecap="round" d="M 102.171 174.8419 L 115.3413 170.7975 L 112.0299 162.5796 "/>
    </g>
  </g>
  <path id="ID0.7729651997797191" fill="#282828" stroke="none" stroke-linecap="round" d="M 114.526 82.4778 L 91.5829 76.2422 L 89.3004 96.4728 L 90.6637 107.7128 L 89.9126 116.9731 L 90.361 125.8291 L 107.4441 126.643 L 111.2595 120.5944 L 112.6494 96.2666 L 114.526 82.4778 Z " stroke-width="0.9588636480287102"/>
  <path id="ID0.4757494777441025" fill="#282828" stroke="none" stroke-linecap="round" d="M 106.6382 64.9586 L 98.3595 61.2483 L 81.339 63.0632 L 85.0128 89.6485 L 94.5778 96.5021 L 98.9579 98.4018 L 102.6416 96.6621 L 106.0723 94.2703 L 112.3276 92.7641 L 113.4439 87.4021 L 114.1938 79.3091 L 112.4588 70.5143 L 106.6382 64.9586 Z " stroke-width="0.48299247506043314"/>
  <g id="ID0.6660797297954559">
    <path id="ID0.5368814701214433" fill="#343434" stroke="none" stroke-linecap="round" d="M 64.4358 299.6544 L 67.3963 290.85 L 71.9659 281.6427 L 81.8905 287.5878 L 93.0892 295.3213 L 110.4601 305.816 L 111.4815 312.3407 L 86.7748 313.3035 L 65.5627 309.4513 L 64.4358 299.6544 Z " stroke-width="0.7702165093043613"/>
    <g id="ID0.5077062323689461">
      <path id="ID0.05466862628236413" fill="#252525" stroke="none" stroke-linecap="round" d="M 66.1668 227.4153 L 87.8883 224.225 L 86.0239 238.8925 L 85.2378 243.899 L 85.1046 258.3829 L 87.3141 291.6546 L 66.0468 294.2388 L 64.8736 275.4793 L 62.6238 268.3926 L 61.5216 260.6548 L 63.217 249.5619 L 63.2067 239.4456 L 66.1668 227.4153 Z " stroke-width="0.5998532582239453"/>
      <path id="ID0.5319394422695041" fill="none" stroke="#131313" stroke-width="1.999999948712909" stroke-linecap="round" d="M 87.3619 290.727 L 66.0778 294.5409 L 65.1784 283.0326 "/>
    </g>
    <g id="ID0.8820344842970371">
      <path id="ID0.3809091211296618" fill="#252525" stroke="none" stroke-linecap="round" d="M 55.589 153.647 L 87.4736 134.4092 L 88.5242 158.647 L 92.0882 207.1563 L 91.5114 217.9041 L 87.4118 229.1515 L 79.3379 226.8967 L 66.3739 228.0738 L 65.9031 206.3069 L 64.2813 192.9893 L 55.589 153.647 Z " stroke-width="0.7305889477725669"/>
      <path id="ID0.9495224836282432" fill="none" stroke="#131313" stroke-width="1.999999948712909" stroke-linecap="round" d="M 92.0926 207.2652 L 92.0182 215.7649 L 89.9483 223.7471 L 81.4092 228.1725 L 80.3655 233.1636 "/>
    </g>
  </g>
  <g id="ID0.18228224432095885">
    <path id="ID0.5368814701214433" fill="#404040" stroke="none" stroke-linecap="round" d="M 26.1136 300.5432 L 29.2639 291.8049 L 34.0318 282.6987 L 43.8253 288.8571 L 54.8541 296.8311 L 71.9938 307.6992 L 72.8738 314.2445 L 48.152 314.6724 L 27.0282 310.3622 L 26.1136 300.5432 Z " stroke-width="0.7702165052340814"/>
    <g id="ID0.5077062323689461">
      <path id="ID0.05466862628236413" fill="#252525" stroke="none" stroke-linecap="round" d="M 30.7026 227.747 L 52.5505 225.5859 L 49.9956 240.149 L 48.974 245.1128 L 48.157 259.5743 L 48.7931 292.9132 L 27.4275 294.4904 L 27.1414 275.6964 L 25.2287 268.5114 L 24.4931 260.7302 L 26.7104 249.7297 L 27.1778 239.6242 L 30.7026 227.747 Z " stroke-width="0.5998532514290671"/>
      <path id="ID0.5319394422695041" fill="none" stroke="#131313" stroke-width="1.9999999411282927" stroke-linecap="round" d="M 48.8979 291.9659 L 27.4573 294.7705 L 27.1024 283.2326 "/>
    </g>
    <g id="ID0.8820344842970371">
      <path id="ID0.3809091211296618" fill="#252525" stroke="none" stroke-linecap="round" d="M 28.839 151.0498 L 56.4832 135.8443 L 56.3882 160.1047 L 57.6578 208.7281 L 56.5742 219.4367 L 51.948 230.478 L 43.9896 227.8445 L 30.4262 229.7414 L 28.7355 206.6133 L 27.9318 193.5489 L 28.839 151.0498 Z " stroke-width="0.7305889632730139"/>
      <path id="ID0.9495224836282432" fill="none" stroke="#131313" stroke-width="1.9999999411282927" stroke-linecap="round" d="M 57.564 208.8205 L 57.0884 217.3072 L 54.6438 225.1828 L 45.9054 229.2001 L 44.6271 234.1363 "/>
    </g>
  </g>
  <g id="ID0.8990198895335197">
    <path id="ID0.17576928716152906" fill="#DBDBDB" stroke="none" d="M 61.911 56.4953 L 61.661 56.4931 L 61.661 56.4931 L 61.911 56.4953 L 61.911 56.4953 Z " stroke-width="0.9999999743564545"/>
    <path id="ID0.4270821204409003" fill="#252525" stroke="none" stroke-linecap="round" d="M 58.6834 178.4729 L 59.4162 65.7186 L 76.7491 68.3501 L 83.5237 72.8373 L 86.2599 76.967 L 92.9427 88.5967 L 91.9197 99.0462 L 90.8062 104.4914 L 92.2683 111.4416 L 92.5826 116.9289 L 90.2372 123.7668 L 88.4644 128.9543 L 87.0006 138.1999 L 87.8534 160.1372 L 82.4709 168.1953 L 77.5044 174.265 L 58.6834 178.4729 Z " stroke-width="0.47614256079030925"/>
    <path id="ID0.4270821204409003" fill="#252525" stroke="none" stroke-linecap="round" d="M 58.8018 178.6239 L 60.0428 65.8741 L 42.6665 68.2018 L 35.8143 72.5697 L 33.0063 76.6509 L 26.121 88.1619 L 26.9609 98.6277 L 27.9789 104.0915 L 26.3955 111.0151 L 25.9851 116.496 L 28.2105 123.3739 L 29.8922 128.5916 L 31.194 137.8614 L 29.9573 159.7804 L 35.1979 167.9315 L 40.0574 174.0873 L 58.8018 178.6239 Z " stroke-width="0.4761425607903093"/>
    <path id="ID0.5114514343440533" fill="#282828" stroke="none" d="M 33.5021 66.8248 L 86.5001 67.2886 L 85.7277 155.5352 L 32.7297 155.0714 L 33.5021 66.8248 Z " stroke-width="1.0073065782424024"/>
    <path id="ID0.9286923445761204" fill="#D4D4D4" stroke="none" stroke-linecap="round" d="M 49.7755 53.2613 L 67.2228 34.6771 L 59.9395 53.4931 L 60.847 93.9747 L 23.1541 64.599 L 43.3888 53.9673 L 49.7755 53.2613 Z " stroke-width="0.4761425730675733"/>
    <path id="ID0.9286923445761204" fill="#D4D4D4" stroke="none" stroke-linecap="round" d="M 66.1615 52.2977 L 52.5298 34.7985 L 59.4827 53.7391 L 60.3467 93.7442 L 96.068 65.4872 L 76.3884 53.5061 L 66.1615 52.2977 Z " stroke-width="0.4761425730675733"/>
    <path id="ID0.39874776685610414" fill="#C3C3C3" stroke="none" stroke-linecap="round" d="M 41.4721 54.8804 L 61.2546 64.9247 L 79.2003 56.1204 L 83.1847 58.2933 L 61.0263 68.6983 L 37.696 56.8034 L 41.4721 54.8804 Z " stroke-width="0.9436593259324425"/>
    <path id="ID0.13444371055811644" fill="#1F1F1F" stroke="none" stroke-linecap="round" d="M 58.8214 66.7187 L 64.0734 66.5146 L 66.6238 95.038 L 54.5699 95.4326 L 58.8214 66.7187 Z " stroke-width="0.9999999743564545"/>
    <path id="ID0.751046194229275" fill="#191919" stroke="none" stroke-linecap="round" d="M 56.5795 61.7839 L 61.2721 59.7898 L 65.7642 61.8642 L 66.1343 69.8428 L 61.7258 70.7942 L 56.5097 69.7585 L 56.5795 61.7839 Z " stroke-width="1.0999999956339572"/>
    <path id="ID0.7854711129330099" fill="#282828" stroke="none" stroke-linecap="round" d="M 47.4252 83.3696 L 61.3481 92.2418 L 75.1829 82.6125 L 73.0298 100.0943 L 49.7807 99.8908 L 47.4252 83.3696 Z " stroke-width="0.9999999743564545"/>
    <path id="ID0.562834897544235" fill="#282828" stroke="none" stroke-linecap="round" d="M 30.0501 154.7202 L 60.3493 149.2352 L 60.172 169.4844 L 46.4116 170.614 L 30.0501 154.7202 Z " stroke-width="0.9999999743564545"/>
    <path id="ID0.562834897544235" fill="#282828" stroke="none" stroke-linecap="round" d="M 90.9956 155.5037 L 60.7971 149.4891 L 60.6198 169.7383 L 74.3584 171.1086 L 90.9956 155.5037 Z " stroke-width="0.9999999743564545"/>
    <path id="ID0.6824178956449032" fill="none" stroke="#191919" stroke-width="1.999999948712909" stroke-linecap="round" d="M 61.0959 92.4896 L 60.1742 169.2344 "/>
    <path id="ID0.4144489667378366" fill="#313131" stroke="none" stroke-linecap="round" d="M 22.6144 61.6516 L 42.9336 53.8291 L 39.7434 75.552 L 42.4681 135.5782 L 32.5768 180.2433 L 21.621 175.1472 L 21.3404 178.6449 L 24.7604 130.673 L 20.3891 87.3831 L 19.5313 71.125 L 22.6144 61.6516 Z " stroke-width="0.9999999743564545"/>
    <path id="ID0.5234400681219995" fill="#101010" stroke="none" d="M 63.2621 98.2212 C 63.6747 98.2248 64.0475 98.3957 64.316 98.669 C 64.5845 98.9422 64.7488 99.3179 64.7452 99.7305 C 64.7416 100.1432 64.5707 100.5159 64.2975 100.7844 C 64.0242 101.0529 63.6485 101.2172 63.2359 101.2136 C 62.8233 101.21 62.4505 101.0392 62.182 100.7659 C 61.9135 100.4926 61.7492 100.117 61.7528 99.7043 C 61.7564 99.2917 61.9273 98.919 62.2005 98.6504 C 62.4738 98.3819 62.8495 98.2176 63.2621 98.2212 Z " stroke-width="0.6299999790761949"/>
    <path id="ID0.5234400681219995" fill="#101010" stroke="none" d="M 63.1431 111.8207 C 63.5557 111.8243 63.9284 111.9952 64.197 112.2684 C 64.4655 112.5417 64.6298 112.9174 64.6262 113.33 C 64.6226 113.7426 64.4517 114.1154 64.1784 114.3839 C 63.9052 114.6524 63.5295 114.8167 63.1169 114.8131 C 62.7042 114.8095 62.3315 114.6386 62.063 114.3654 C 61.7945 114.0921 61.6302 113.7164 61.6338 113.3038 C 61.6374 112.8912 61.8082 112.5184 62.0815 112.2499 C 62.3548 111.9814 62.7304 111.8171 63.1431 111.8207 Z " stroke-width="0.6299999790761949"/>
    <path id="ID0.5234400681219995" fill="#101010" stroke="none" d="M 62.8674 143.3195 C 63.28 143.3231 63.6528 143.494 63.9213 143.7672 C 64.1898 144.0405 64.3541 144.4162 64.3505 144.8288 C 64.3469 145.2414 64.176 145.6142 63.9028 145.8827 C 63.6295 146.1512 63.2538 146.3155 62.8412 146.3119 C 62.4286 146.3083 62.0558 146.1374 61.7873 145.8642 C 61.5188 145.5909 61.3545 145.2152 61.3581 144.8026 C 61.3617 144.39 61.5326 144.0172 61.8058 143.7487 C 62.0791 143.4802 62.4547 143.3159 62.8674 143.3195 Z " stroke-width="0.6299999790761949"/>
    <path id="ID0.5234400681219995" fill="#101010" stroke="none" d="M 62.9965 128.5701 C 63.4091 128.5737 63.7818 128.7445 64.0504 129.0178 C 64.3189 129.2911 64.4832 129.6667 64.4796 130.0794 C 64.476 130.492 64.3051 130.8647 64.0319 131.1332 C 63.7586 131.4018 63.3829 131.5661 62.9703 131.5625 C 62.5576 131.5588 62.1849 131.388 61.9164 131.1147 C 61.6479 130.8415 61.4836 130.4658 61.4872 130.0532 C 61.4908 129.6405 61.6616 129.2678 61.9349 128.9993 C 62.2082 128.7308 62.5838 128.5665 62.9965 128.5701 Z " stroke-width="0.6299999790761949"/>
    <path id="ID0.5234400681219995" fill="#101010" stroke="none" d="M 62.6449 157.3181 C 63.0575 157.3217 63.4302 157.4926 63.6987 157.7658 C 63.9673 158.0391 64.1316 158.4147 64.128 158.8274 C 64.1243 159.24 63.9535 159.6128 63.6802 159.8813 C 63.407 160.1498 63.0313 160.3141 62.6187 160.3105 C 62.206 160.3069 61.8333 160.136 61.5648 159.8628 C 61.2963 159.5895 61.132 159.2138 61.1356 158.8012 C 61.1392 158.3886 61.31 158.0158 61.5833 157.7473 C 61.8565 157.4788 62.2322 157.3145 62.6449 157.3181 Z " stroke-width="0.6299999790761949"/>
    <path id="ID0.4144489667378366" fill="#313131" stroke="none" stroke-linecap="round" d="M 96.169 61.4453 L 75.9898 53.2684 L 78.7993 75.0438 L 75.0243 135.0131 L 84.1323 179.8445 L 95.1756 174.941 L 95.395 178.443 L 92.8152 130.4186 L 97.9435 87.2118 L 99.0857 70.9712 L 96.169 61.4453 Z " stroke-width="0.9999999743564545"/>
    <path id="ID0.8752945330925286" fill="none" stroke="#222222" stroke-width="1.999999948712909" stroke-linecap="round" d="M 23.1121 61.9059 L 19.7944 69.6272 L 22.7139 107.4042 "/>
    <path id="ID0.8752945330925286" fill="none" stroke="#222222" stroke-width="1.999999948712909" stroke-linecap="round" d="M 96.3637 62.0471 L 99.5458 69.8252 L 95.9655 107.5453 "/>
    <path id="ID0.5234400681219995" fill="#101010" stroke="none" d="M 39.7626 143.7673 C 40.1752 143.7709 40.548 143.9418 40.8165 144.215 C 41.085 144.4883 41.2493 144.864 41.2457 145.2766 C 41.2421 145.6892 41.0712 146.062 40.798 146.3305 C 40.5247 146.599 40.149 146.7633 39.7364 146.7597 C 39.3238 146.7561 38.951 146.5852 38.6825 146.312 C 38.414 146.0387 38.2497 145.663 38.2533 145.2504 C 38.2569 144.8378 38.4277 144.465 38.701 144.1965 C 38.9743 143.928 39.3499 143.7637 39.7626 143.7673 Z " stroke-width="0.6299999790761949"/>
    <path id="ID0.5234400681219995" fill="#101010" stroke="none" d="M 38.2992 151.0048 C 38.7118 151.0084 39.0846 151.1792 39.3531 151.4525 C 39.6216 151.7258 39.7859 152.1014 39.7823 152.5141 C 39.7787 152.9267 39.6078 153.2994 39.3346 153.568 C 39.0613 153.8365 38.6856 154.0008 38.273 153.9972 C 37.8604 153.9935 37.4876 153.8227 37.2191 153.5494 C 36.9506 153.2762 36.7863 152.9005 36.7899 152.4879 C 36.7935 152.0752 36.9644 151.7025 37.2376 151.434 C 37.5109 151.1655 37.8865 151.0012 38.2992 151.0048 Z " stroke-width="0.6299999790761949"/>
    <g id="ID0.20783481979742646">
      <path id="ID0.5848579816520214" fill="#737373" stroke="none" stroke-linecap="round" d="M 85.3204 89.8015 L 92.1833 88.3615 L 92.0491 92.2605 L 84.795 92.697 L 85.3204 89.8015 Z " stroke-width="0.9999999743564545"/>
      <path id="ID0.13105127029120922" fill="none" stroke="#222222" stroke-width="1.999999948712909" stroke-linecap="round" d="M 83.4429 92.9352 L 87.9427 92.9745 L 93.2056 91.5205 "/>
    </g>
  </g>
  <path id="ID0.46110434643924236" fill="#D8BFA7" stroke="none" stroke-linecap="round" d="M 48.5411 34.8983 L 71.155 35.0962 L 71.4566 54.0496 L 65.2377 56.8452 L 48.3652 54.9975 L 48.5411 34.8983 Z " stroke-width="1.087635783843559"/>
  <path id="ID0.8999492498114705" fill="#EDD2B8" stroke="none" stroke-linecap="round" d="M 56.6871 4.8828 C 52.2628 5.1101 47.3842 7.5464 45.0341 11.3015 C 42.3524 15.5888 43.9069 21.2781 43.3941 26.2596 C 43.1863 27.9906 42.8535 29.7923 43.1929 31.5657 C 43.5188 34.7454 44.5326 37.8178 45.3513 41.0012 C 45.9021 43.1469 45.9596 45.4905 47.0182 47.4571 C 48.2035 49.7811 49.3655 52.9866 51.9349 53.5897 C 55.7441 54.4834 59.9189 52.8776 63.4629 51.3218 C 66.3744 50.0433 69.1496 47.9862 70.8794 45.308 C 73.9877 40.3322 76.8671 34.8273 77.5874 28.9747 C 78.3857 22.487 79.6143 14.4779 75.1371 9.498 C 71.1506 4.7217 63.264 4.5479 56.6871 4.8828 Z " stroke-width="0.508037208025939"/>
  <path id="ID0.8194515448994935" fill="#EDD2B8" stroke="none" stroke-linecap="round" d="M 77.9996 23.6321 C 77.142 23.6703 76.4926 24.2032 75.9261 25.2315 C 75.3595 26.2599 74.9627 27.7016 74.8707 29.313 C 74.7788 30.9244 75.0089 32.4019 75.4547 33.4881 C 75.9006 34.5743 76.4877 35.1507 77.3328 35.3131 C 78.1086 35.4605 79.1375 35.0896 79.5363 34.4372 C 80.2996 32.9804 80.281 31.1994 80.4616 29.6322 C 80.6397 28.0918 81.0961 26.4131 80.5769 24.9812 C 80.1473 24.1013 78.8983 23.5923 77.9996 23.6321 Z " stroke-width="0.9999999786474586"/>
  <path id="ID0.5768358684144914" fill="#2E3234" stroke="none" d="M 79.1109 20.6332 L 73.1206 20.2913 L 73.018 22.0883 L 79.0083 22.4303 L 79.1109 20.6332 Z " stroke-width="0.9999999786474586"/>
  <path id="ID0.3245162623934448" fill="#54595E" stroke="none" stroke-linecap="round" d="M 58.3705 6.0799 C 55.1198 5.8943 52.0248 8.3499 49.6503 12.4663 C 47.2759 16.5826 46.1371 23.2496 45.2532 28.8193 C 44.3507 34.5061 42.0963 40.6255 44.1232 45.9828 C 45.6855 50.1105 50.4485 53.4584 54.9361 53.962 C 59.1736 54.4412 64.4451 52.2681 66.6652 48.5216 C 69.802 43.2267 68.8748 36.3788 68.8149 30.1642 C 68.7601 24.526 68.1978 17.7769 66.3072 13.4171 C 64.4166 9.0573 61.6212 6.2654 58.3705 6.0799 Z " stroke-width="0.9999999786474586"/>
  <path id="ID0.8999492498114705" fill="#54595E" stroke="none" stroke-linecap="round" d="M 54.9871 2.2328 C 50.6722 3.2358 45.6842 4.8964 43.3341 8.6515 C 40.6524 12.9388 42.7979 18.7219 41.6941 23.6096 C 41.2577 25.5402 38.7011 26.9046 38.6902 28.9847 C 38.72 31.6636 40.7021 33.9796 41.7448 36.5376 C 42.8798 39.3147 43.8504 42.2355 45.3182 44.8071 C 46.6148 47.0804 47.9513 49.6629 50.2349 50.9397 C 51.9935 51.9215 54.589 52.3169 56.2258 51.1799 C 57.5272 50.2762 56.5123 47.9981 56.9784 46.465 C 57.4155 44.5654 58.8077 42.9092 58.9228 40.9276 C 59.2412 35.4124 57.689 29.8789 57.9857 24.3615 C 58.3122 18.2941 58.334 12.0378 60.6351 6.4735 C 61.5154 4.3448 67.7537 4.1279 66.7128 3.411 C 65.1085 2.1419 58.81 1.3442 54.9871 2.2328 Z " stroke-width="0.508037208025939"/>
  <path id="ID0.8999492498114705" fill="#54595E" stroke="none" stroke-linecap="round" d="M 66.3047 3.3137 C 70.0164 4.6588 74.1115 6.8659 75.7921 10.4959 C 77.8408 14.8919 76.2248 20.2104 76.4632 25.0369 C 76.5519 26.8092 77.5108 28.678 77.0258 30.3357 C 76.3235 32.6278 74.1142 34.2562 73.3149 36.5101 C 72.2141 39.615 72.7607 43.2851 71.2613 46.1885 C 70.0599 48.5137 68.0928 50.7131 65.6786 51.7218 C 63.8198 52.4971 61.1961 52.5946 59.6993 51.2787 C 58.5093 50.2328 59.7768 48.0849 59.4882 46.5088 C 59.27 44.5718 58.0754 42.7679 58.1865 40.7861 C 58.4978 35.2705 60.6696 29.9496 61.0027 24.4342 C 61.3688 18.3691 61.5927 12.2633 60.406 6.3609 C 60.086 4.7743 55.4481 3.8033 56.4359 3.2592 C 58.3902 2.1932 63.2181 2.1172 66.3047 3.3137 Z " stroke-width="0.508037208025939"/>
  <path id="ID0.45774566335603595" fill="#54595E" stroke="none" stroke-linecap="round" d="M 56.078 37.9095 C 53.9774 37.7896 52.3679 38.9638 50.579 39.665 C 48.9479 40.305 45.9399 40.2716 45.8485 42.0833 C 45.6751 44.91 48.0168 47.4917 50.0109 49.6168 C 51.3262 51.018 53.1739 51.8667 55.2744 51.9866 C 57.375 52.1065 59.2231 51.3676 60.7734 50.2311 C 62.9185 48.6598 65.6557 46.8218 65.759 44.2215 C 65.9175 42.2353 63.0391 41.3528 61.3415 40.2793 C 59.7175 39.2511 58.1786 38.0294 56.078 37.9095 Z " stroke-width="0.9999999786474586"/>
  <path id="ID0.6934182443656027" fill="#54595E" stroke="none" stroke-linecap="round" d="M 70.6496 33.1093 L 57.1875 36.4476 L 43.3669 31.1513 L 45.9773 38.0613 L 46.22 42.5825 L 66.0007 44.3627 L 67.4993 38.2882 L 70.6496 33.1093 Z " stroke-width="0.9999999786474586"/>
  <path id="ID0.6236958587542176" fill="#3B4043" stroke="none" stroke-linecap="round" d="M 64.3911 29.4828 L 48.6695 28.5352 L 48.9352 36.1628 L 48.04 43.073 L 50.1843 53.7626 L 59.7658 54.3596 L 63.8799 44.5782 L 63.4145 36.9392 L 64.3911 29.4828 Z " stroke-width="0.9999999786474586"/>
  <path id="ID0.6043254472315311" fill="#3B4043" stroke="none" stroke-linecap="round" d="M 72.9786 7.2802 L 68.3988 4.1642 L 63.3374 9.4844 L 56.7852 10.2121 L 56.9333 29.552 L 59.4166 32.5484 L 64.7778 32.5039 L 68.4417 30.6096 L 70.2614 26.8071 L 69.1343 20.2322 L 72.9786 7.2802 Z " stroke-width="0.9999999786474586"/>
  <path id="ID0.6043254472315311" fill="#3B4043" stroke="none" stroke-linecap="round" d="M 44.4625 7.3511 L 46.7016 4.9748 L 49.5126 3.9834 L 53.388 8.9123 L 59.8148 10.3809 L 57.4669 29.5783 L 54.6588 32.2727 L 49.3374 31.6183 L 44.9587 29.3651 L 44.5377 25.3346 L 46.4057 18.9306 L 44.4625 7.3511 Z " stroke-width="0.9999999786474586"/>
  <path id="ID0.9914007503539324" fill="#33383A" stroke="none" d="M 58.5583 36.8567 L 60.8753 25.2198 L 54.4187 25.1518 L 53.4695 36.5161 L 58.5583 36.8567 Z " stroke-width="0.9999999786474586"/>
  <path id="ID0.28340246016159654" fill="#D8BFA7" stroke="none" stroke-linecap="round" d="M 71.1682 23.9284 L 64.3537 23.6329 L 59.7884 25.6471 L 58.7175 29.0137 L 59.976 31.2981 L 63.4582 31.8708 L 66.2272 31.5303 L 68.3624 30.8731 L 70.5807 29.2547 L 71.5983 27.3184 L 71.1682 23.9284 Z " stroke-width="0.5947752080605991"/>
  <path id="ID0.28340246016159654" fill="#D8BFA7" stroke="none" stroke-linecap="round" d="M 42.7879 22.3018 L 49.5918 22.7837 L 53.8982 25.3043 L 54.579 28.771 L 53.0687 30.8973 L 49.5439 31.07 L 46.8317 30.4166 L 44.7852 29.5207 L 42.7655 27.6604 L 41.9748 25.6209 L 42.7879 22.3018 Z " stroke-width="0.5947752080605991"/>
  <path id="ID0.17377300979569554" fill="#FFFFFF" stroke="none" stroke-linecap="round" d="M 66.9868 27.3994 L 66.1286 26.5185 L 63.8556 26.2042 L 61.5724 26.6805 L 61.0097 28.6023 L 63.6502 28.6209 L 66.9868 27.3994 Z " stroke-width="0.9999999748324516"/>
  <path id="ID0.17377300979569554" fill="#FFFFFF" stroke="none" stroke-linecap="round" d="M 45.3405 26.1333 L 46.2934 25.3558 L 48.5874 25.3022 L 50.8016 26.0352 L 51.1419 28.0086 L 48.5164 27.7266 L 45.3405 26.1333 Z " stroke-width="0.9999999291152941"/>
  <path id="ID0.44800941413268447" fill="none" stroke="#33383A" stroke-width="1.0503597755900154" stroke-linecap="round" d="M 57.8271 29.5365 L 59.698 25.3298 L 64.2153 23.1416 L 70.7619 23.6468 "/>
  <path id="ID0.12448931112885475" fill="#33383A" stroke="none" stroke-linecap="round" d="M 58.3661 35.1326 L 53.5682 34.9589 L 52.4403 38.0496 L 55.4497 39.7239 L 59.0324 38.3758 L 58.3661 35.1326 Z " stroke-width="0.9999999786474586"/>
  <path id="ID0.44800941413268447" fill="none" stroke="#33383A" stroke-width="1.0503597600980676" stroke-linecap="round" d="M 59.1703 26.0238 L 58.5157 23.4144 L 60.1501 20.1377 "/>
  <path id="ID0.44800941413268447" fill="none" stroke="#33383A" stroke-width="1.0503597056803458" stroke-linecap="round" d="M 54.7401 25.668 L 55.6874 23.1501 L 54.4364 19.7087 "/>
  <g id="ID0.32985211815685034">
    <g id="ID0.08651347272098064">
      <g id="ID0.07771636918187141">
        <path id="ID0.7001032647676766" fill="none" stroke="#646B70" stroke-width="0.5238094725443094" stroke-linecap="round" d="M 64.3605 41.4684 C 64.3605 41.4684 64.4038 41.8394 64.4337 42.0235 C 64.4619 42.1966 64.6072 42.3807 64.5353 42.5408 C 64.4611 42.7066 64.2484 42.7831 64.0729 42.8292 C 63.9041 42.8734 63.7242 42.8072 63.55 42.7994 C 63.3757 42.7915 63.1017 42.9398 63.0262 42.7826 C 62.8452 42.4063 62.9403 41.5316 62.9403 41.5316 "/>
        <path id="ID0.7001032647676766" fill="none" stroke="#646B70" stroke-width="0.5238094725443094" stroke-linecap="round" d="M 62.8103 41.4223 C 62.8103 41.4223 62.8537 41.7934 62.8836 41.9774 C 62.9117 42.1506 63.0571 42.3346 62.9852 42.4947 C 62.911 42.6605 62.6983 42.737 62.5228 42.7831 C 62.354 42.8273 62.1741 42.7611 61.9998 42.7533 C 61.8256 42.7454 61.5516 42.8937 61.4761 42.7365 C 61.2951 42.3602 61.3901 41.4855 61.3901 41.4855 "/>
      </g>
      <g id="ID0.07771636918187141">
        <path id="ID0.7001032647676766" fill="none" stroke="#646B70" stroke-width="0.5238094725443094" stroke-linecap="round" d="M 61.3008 41.529 C 61.3008 41.529 61.3442 41.9001 61.3741 42.0841 C 61.4022 42.2573 61.5475 42.4413 61.4757 42.6014 C 61.4015 42.7672 61.1888 42.8437 61.0133 42.8898 C 60.8444 42.934 60.6646 42.8678 60.4903 42.86 C 60.3161 42.8521 60.0421 43.0005 59.9666 42.8432 C 59.7856 42.4669 59.8806 41.5922 59.8806 41.5922 "/>
        <path id="ID0.7001032647676766" fill="none" stroke="#646B70" stroke-width="0.5238094725443094" stroke-linecap="round" d="M 59.7507 41.4829 C 59.7507 41.4829 59.7941 41.854 59.824 42.038 C 59.8521 42.2112 59.9974 42.3952 59.9256 42.5554 C 59.8513 42.7211 59.6387 42.7976 59.4632 42.8438 C 59.2943 42.8879 59.1145 42.8218 58.9402 42.8139 C 58.7659 42.8061 58.492 42.9544 58.4165 42.7971 C 58.2355 42.4208 58.3305 41.5462 58.3305 41.5462 "/>
      </g>
      <path id="ID0.7001032647676766" fill="none" stroke="#646B70" stroke-width="0.5238094483489343" stroke-linecap="round" d="M 58.2656 41.4767 C 58.2656 41.4767 58.2698 41.8502 58.2803 42.0363 C 58.2901 42.2115 58.4153 42.4098 58.3271 42.5615 C 58.2359 42.7186 58.0164 42.7724 57.837 42.7998 C 57.6645 42.826 57.4926 42.7414 57.3201 42.7153 C 57.1476 42.6893 56.8596 42.8081 56.801 42.6438 C 56.6604 42.2506 56.8466 41.3907 56.8466 41.3907 "/>
    </g>
    <g id="ID0.08651347272098064">
      <g id="ID0.07771636918187141">
        <path id="ID0.7001032647676766" fill="none" stroke="#646B70" stroke-width="0.5238094725443094" stroke-linecap="round" d="M 49.2702 40.5861 C 49.2702 40.5861 49.1849 40.9498 49.1343 41.1292 C 49.0866 41.2981 48.9213 41.4644 48.9745 41.6316 C 49.0294 41.8048 49.2319 41.905 49.4011 41.9708 C 49.5638 42.0339 49.75 41.9886 49.924 42.0006 C 50.098 42.0127 50.3533 42.1912 50.4462 42.0436 C 50.6689 41.6903 50.674 40.8105 50.674 40.8105 "/>
        <path id="ID0.7001032647676766" fill="none" stroke="#646B70" stroke-width="0.5238094725443094" stroke-linecap="round" d="M 50.7175 40.6759 C 50.7175 40.6759 50.6322 41.0396 50.5815 41.219 C 50.5338 41.3879 50.3685 41.5542 50.4217 41.7214 C 50.4766 41.8946 50.6792 41.9948 50.8483 42.0606 C 51.011 42.1237 51.1972 42.0784 51.3712 42.0904 C 51.5453 42.1025 51.8005 42.281 51.8934 42.1334 C 52.1161 41.7801 52.1212 40.9003 52.1212 40.9003 "/>
      </g>
      <g id="ID0.07771636918187141">
        <path id="ID0.7001032647676766" fill="none" stroke="#646B70" stroke-width="0.5238094725443094" stroke-linecap="round" d="M 52.4517 40.9839 C 52.4517 40.9839 52.3664 41.3476 52.3158 41.527 C 52.2681 41.6959 52.1028 41.8622 52.1559 42.0294 C 52.2108 42.2026 52.4134 42.3028 52.5825 42.3686 C 52.7452 42.4317 52.9315 42.3864 53.1055 42.3984 C 53.2795 42.4105 53.5348 42.589 53.6277 42.4414 C 53.8504 42.0881 53.8555 41.2083 53.8555 41.2083 "/>
        <path id="ID0.7001032647676766" fill="none" stroke="#646B70" stroke-width="0.5238094725443094" stroke-linecap="round" d="M 53.9457 41.1267 C 53.9457 41.1267 53.8604 41.4904 53.8098 41.6698 C 53.7621 41.8387 53.5968 42.005 53.6499 42.1722 C 53.7049 42.3454 53.9074 42.4456 54.0766 42.5114 C 54.2393 42.5745 54.4255 42.5292 54.5995 42.5412 C 54.7735 42.5533 55.0288 42.7318 55.1217 42.5842 C 55.3444 42.2309 55.3495 41.3511 55.3495 41.3511 "/>
      </g>
      <path id="ID0.7001032647676766" fill="none" stroke="#646B70" stroke-width="0.5238095099880142" stroke-linecap="round" d="M 55.3965 41.371 C 55.3965 41.371 55.3498 41.7417 55.3182 41.9254 C 55.2885 42.0984 55.1415 42.2811 55.2119 42.4418 C 55.2847 42.6083 55.4966 42.6867 55.6717 42.7344 C 55.8401 42.7801 56.0206 42.7156 56.1949 42.7093 C 56.3692 42.703 56.6418 42.8538 56.7187 42.6973 C 56.9032 42.3226 56.816 41.4471 56.816 41.4471 "/>
    </g>
  </g>
  <path id="ID0.7001032647676766" fill="none" stroke="#646B70" stroke-width="0.5238095552567824" stroke-linecap="round" d="M 63.7977 44.4912 C 63.7977 44.4912 63.883 44.1275 63.9336 43.9481 C 63.9813 43.7793 64.1466 43.6129 64.0935 43.4457 C 64.0385 43.2726 63.836 43.1723 63.6669 43.1065 C 63.5041 43.0435 63.3179 43.0887 63.1439 43.0767 C 62.9699 43.0646 62.7146 42.8861 62.6217 43.0338 C 62.399 43.387 62.3939 44.2668 62.3939 44.2668 "/>
  <path id="ID0.7001032647676766" fill="none" stroke="#646B70" stroke-width="0.5238095552567824" stroke-linecap="round" d="M 62.2977 44.3412 C 62.2977 44.3412 62.383 43.9775 62.4336 43.7981 C 62.4813 43.6293 62.6466 43.4629 62.5935 43.2957 C 62.5385 43.1226 62.336 43.0223 62.1669 42.9565 C 62.0041 42.8935 61.8179 42.9387 61.6439 42.9267 C 61.4699 42.9146 61.2146 42.7361 61.1217 42.8838 C 60.899 43.237 60.8939 44.1168 60.8939 44.1168 "/>
  <g id="ID0.07771636918187141">
    <path id="ID0.7001032647676766" fill="none" stroke="#646B70" stroke-width="0.5238095321482255" stroke-linecap="round" d="M 61.2841 44.4487 C 61.2841 44.4487 61.3694 44.085 61.42 43.9056 C 61.4677 43.7367 61.633 43.5704 61.5799 43.4032 C 61.525 43.23 61.3224 43.1298 61.1533 43.064 C 60.9906 43.0009 60.8044 43.0462 60.6303 43.0342 C 60.4563 43.0221 60.201 42.8436 60.1081 42.9912 C 59.8854 43.3445 59.8803 44.2243 59.8803 44.2243 "/>
    <path id="ID0.7001032647676766" fill="none" stroke="#646B70" stroke-width="0.5238095321482255" stroke-linecap="round" d="M 59.8431 44.2591 C 59.8431 44.2591 59.9284 43.8954 59.979 43.716 C 60.0267 43.5471 60.192 43.3808 60.1389 43.2136 C 60.084 43.0404 59.8814 42.9402 59.7123 42.8744 C 59.5495 42.8113 59.3633 42.8566 59.1893 42.8445 C 59.0153 42.8325 58.76 42.654 58.6671 42.8016 C 58.4444 43.1549 58.4393 44.0347 58.4393 44.0347 "/>
  </g>
  <path id="ID0.7001032647676766" fill="none" stroke="#646B70" stroke-width="0.5238095863292523" stroke-linecap="round" d="M 57.7543 44.2778 C 57.7543 44.2778 57.801 43.9071 57.8326 43.7234 C 57.8623 43.5505 58.0093 43.3677 57.9389 43.207 C 57.8661 43.0406 57.6542 42.9621 57.4791 42.9144 C 57.3107 42.8687 57.1302 42.9332 56.9559 42.9395 C 56.7815 42.9458 56.509 42.795 56.432 42.9516 C 56.2476 43.3262 56.3347 44.2017 56.3347 44.2017 "/>
  <path id="ID0.7001032647676766" fill="none" stroke="#646B70" stroke-width="0.5238095552567824" stroke-linecap="round" d="M 48.3212 43.3834 C 48.3212 43.3834 48.2778 43.0123 48.2479 42.8283 C 48.2198 42.6551 48.0744 42.4711 48.1463 42.311 C 48.2205 42.1452 48.4332 42.0687 48.6087 42.0226 C 48.7775 41.9784 48.9574 42.0446 49.1317 42.0524 C 49.3059 42.0603 49.5799 41.9119 49.6554 42.0692 C 49.8364 42.4455 49.7414 43.3202 49.7414 43.3202 "/>
  <path id="ID0.7001032647676766" fill="none" stroke="#646B70" stroke-width="0.5238095552567824" stroke-linecap="round" d="M 49.8212 43.4834 C 49.8212 43.4834 49.7778 43.1123 49.7479 42.9283 C 49.7198 42.7551 49.5744 42.5711 49.6463 42.411 C 49.7205 42.2452 49.9332 42.1687 50.1087 42.1226 C 50.2775 42.0784 50.4574 42.1446 50.6317 42.1524 C 50.8059 42.1603 51.0799 42.0119 51.1554 42.1692 C 51.3364 42.5455 51.2414 43.4202 51.2414 43.4202 "/>
  <path id="ID0.7001032647676766" fill="none" stroke="#646B70" stroke-width="0.5238095552567824" stroke-linecap="round" d="M 51.5712 43.6334 C 51.5712 43.6334 51.5278 43.2623 51.4979 43.0783 C 51.4698 42.9051 51.3244 42.7211 51.3963 42.561 C 51.4705 42.3952 51.6832 42.3187 51.8587 42.2726 C 52.0275 42.2284 52.2074 42.2946 52.3817 42.3024 C 52.5559 42.3103 52.8299 42.1619 52.9054 42.3192 C 53.0864 42.6955 52.9914 43.5702 52.9914 43.5702 "/>
  <path id="ID0.7001032647676766" fill="none" stroke="#646B70" stroke-width="0.5238095552567824" stroke-linecap="round" d="M 53.0712 43.8834 C 53.0712 43.8834 53.0278 43.5123 52.9979 43.3283 C 52.9698 43.1551 52.8244 42.9711 52.8963 42.811 C 52.9705 42.6452 53.1832 42.5687 53.3587 42.5226 C 53.5275 42.4784 53.7074 42.5446 53.8817 42.5524 C 54.0559 42.5603 54.3299 42.4119 54.4054 42.5692 C 54.5864 42.9455 54.4914 43.8202 54.4914 43.8202 "/>
  <path id="ID0.7001032647676766" fill="none" stroke="#646B70" stroke-width="0.5238095282006993" stroke-linecap="round" d="M 54.7632 44.0844 C 54.7632 44.0844 54.759 43.7109 54.7485 43.5247 C 54.7387 43.3495 54.6135 43.1513 54.7017 42.9996 C 54.7929 42.8425 55.0124 42.7887 55.1918 42.7612 C 55.3643 42.735 55.5363 42.8196 55.7087 42.8457 C 55.8812 42.8718 56.1692 42.753 56.2278 42.9173 C 56.3684 43.3105 56.1822 44.1704 56.1822 44.1704 "/>
  <path id="ID0.44800941413268447" fill="none" stroke="#2E3234" stroke-width="0.6130029362694902" stroke-linecap="round" d="M 53.4319 35.2563 L 55.3107 34.06 L 58.5515 35.2907 "/>
  <path id="ID0.44800941413268447" fill="none" stroke="#33383A" stroke-width="1.0503597755900154" stroke-linecap="round" d="M 55.4844 29.3365 L 54.1044 24.9442 L 49.8655 22.2562 L 43.3039 22.0131 "/>
  <g id="ID0.6897007944062352">
    <path id="ID0.2692581438459456" fill="#7AABFF" stroke="none" d="M 47.3066 25.4606 C 47.63 25.3881 47.9517 25.4541 48.2111 25.6184 C 48.4705 25.7828 48.6677 26.0454 48.7402 26.3688 C 48.8128 26.6922 48.7468 27.0139 48.5824 27.2733 C 48.4181 27.5327 48.1555 27.7299 47.8321 27.8024 C 47.5087 27.875 47.187 27.809 46.9276 27.6446 C 46.6682 27.4803 46.471 27.2177 46.3984 26.8943 C 46.3259 26.5709 46.3919 26.2492 46.5562 25.9898 C 46.7206 25.7304 46.9832 25.5332 47.3066 25.4606 Z " stroke-width="1.142857141307261"/>
    <path id="ID0.8070062398910522" fill="#192334" stroke="none" d="M 47.4652 26.1261 C 47.5996 26.096 47.7343 26.1227 47.842 26.1919 C 47.9506 26.2597 48.0323 26.3701 48.0625 26.5045 C 48.0927 26.639 48.0659 26.7736 47.9967 26.8814 C 47.9289 26.99 47.8185 27.0717 47.6841 27.1019 C 47.5497 27.132 47.415 27.1053 47.3072 27.0361 C 47.1986 26.9682 47.1169 26.8579 47.0868 26.7235 C 47.0566 26.589 47.0833 26.4544 47.1525 26.3466 C 47.2204 26.238 47.3307 26.1563 47.4652 26.1261 Z " stroke-width="1.1111111255039101"/>
  </g>
  <g id="ID0.5823970721103251">
    <path id="ID0.2692581438459456" fill="#7AABFF" stroke="none" d="M 63.5286 26.5501 C 63.2155 26.4412 62.8884 26.4702 62.612 26.6039 C 62.3356 26.7377 62.1098 26.9762 62.0009 27.2892 C 61.892 27.6022 61.921 27.9294 62.0548 28.2058 C 62.1885 28.4822 62.427 28.708 62.74 28.8169 C 63.0531 28.9258 63.3802 28.8968 63.6566 28.763 C 63.933 28.6293 64.1588 28.3908 64.2677 28.0777 C 64.3766 27.7647 64.3476 27.4376 64.2138 27.1612 C 64.0801 26.8847 63.8416 26.659 63.5286 26.5501 Z " stroke-width="1.1428572146205258"/>
    <path id="ID0.8070062398910522" fill="#192334" stroke="none" d="M 63.1095 27.0552 C 62.9794 27.0099 62.8426 27.0212 62.7276 27.0776 C 62.612 27.1327 62.5183 27.233 62.473 27.3632 C 62.4277 27.4933 62.439 27.6301 62.4954 27.7451 C 62.5505 27.8607 62.6508 27.9544 62.781 27.9997 C 62.9111 28.045 63.0479 28.0337 63.1629 27.9773 C 63.2785 27.9222 63.3722 27.8219 63.4175 27.6917 C 63.4628 27.5616 63.4515 27.4248 63.3951 27.3098 C 63.34 27.1942 63.2397 27.1005 63.1095 27.0552 Z " stroke-width="1.1111112648417625"/>
  </g>
  <path id="ID0.023752907756716013" fill="none" stroke="#584E44" stroke-width="1.1814346050917997" stroke-linecap="round" d="M 67.3407 26.0755 L 64.1117 25.3838 L 61.56 25.7178 "/>
  <path id="ID0.023752907756716013" fill="none" stroke="#584E44" stroke-width="1.1814345468913598" stroke-linecap="round" d="M 45.3547 24.9846 L 48.6138 24.4525 L 51.146 24.9117 "/>
  <g id="ID0.5880346246995032">
    <path id="ID0.6829322893172503" fill="#1D1E1F" stroke="none" stroke-linecap="round" d="M 25.1115 173.8734 L 33.6195 165.9983 L 38.3293 170.3406 L 43.9383 174.8398 L 45.5782 180.3147 L 46.3386 184.9876 L 45.2617 188.5063 L 45.8256 195.3688 L 41.2698 196.5203 L 39.511 194.9163 L 37.8882 195.1893 L 33.9983 193.5844 L 29.7958 191.6471 L 26.552 187.931 L 25.2843 180.8531 L 25.1115 173.8734 Z " stroke-width="0.8164595852860923"/>
    <g id="ID0.9434720128774643">
      <path id="ID0.6507829907350242" fill="#282828" stroke="none" stroke-linecap="round" d="M 1.119 113.3516 L 22.2318 117.6817 L 25.8022 134.2974 L 28.3774 146.7367 L 33.004 162.1838 L 37.236 168.2033 L 23.8331 174.8172 L 22.4443 167.4773 L 17.8734 158.6188 L 11.5635 147.5112 L 6.9629 134.9968 L 1.119 113.3516 Z " stroke-width="0.8164595852860923"/>
      <path id="ID0.9892375003546476" fill="none" stroke="#191919" stroke-width="1.9999999770187318" stroke-linecap="round" d="M 24.0406 173.8606 L 36.184 167.3528 L 31.3502 159.9275 "/>
    </g>
  </g>
</svg>