<svg xmlns="http://www.w3.org/2000/svg" xmlns:xlink="http://www.w3.org/1999/xlink" version="1.1" width="216.51931047439575" height="588.042320728302" viewBox="3.2403476238250732 0.9075489044189453 216.51931047439575 588.042320728302">
  <!-- Exported by Scratch - http://scratch.mit.edu/ -->
  <g id="ID0.7085462282411754">
    <g id="ID0.5880346246995032">
      <path id="ID0.6829322893172503" fill="#EDD2B8" stroke="none" stroke-linecap="round" d="M 12.4319 324.7835 L 32.6396 317.1113 L 37.749 327.9071 L 44.3034 339.6021 L 43.3147 350.2119 L 41.3657 358.8211 L 37.0469 364.1518 L 33.2292 376.409 L 24.5493 375.2179 L 22.6289 371.2169 L 19.6328 370.5555 L 14.0291 365.0645 L 8.1171 358.7804 L 5.1048 350.0911 L 7.8563 336.9701 L 12.4319 324.7835 Z " stroke-width="1.522250164820777"/>
      <g id="ID0.9434720128774643">
        <path id="ID0.6507829907350242" fill="#282828" stroke="none" stroke-linecap="round" d="M 13.1043 203.2902 L 46.5784 225.5201 L 41.1467 256.7375 L 36.9113 280.0399 L 34.1217 309.9747 L 37.2338 323.3363 L 9.4449 325.4097 L 12.1701 311.7512 L 10.4548 293.2452 L 7.3038 269.6366 L 8.0904 244.7898 L 13.1043 203.2902 Z " stroke-width="1.522250164820777"/>
        <path id="ID0.9892375003546476" fill="none" stroke="#191919" stroke-width="3.728905072285122" stroke-linecap="round" d="M 10.5017 323.9601 L 36.0389 321.1904 L 32.8684 304.9784 "/>
      </g>
    </g>
    <path id="ID0.7729651997797191" fill="#282828" stroke="none" stroke-linecap="round" d="M 17.9514 145.9897 L 62.1289 142.3382 L 59.4528 180.202 L 53.1417 200.3467 L 51.3783 217.5788 L 47.553 233.6628 L 15.9576 229.3617 L 11.0138 216.9786 L 16.7159 171.9059 L 17.9514 145.9897 Z " stroke-width="1.7877559135823509"/>
    <path id="ID0.4757494777441025" fill="#282828" stroke="none" stroke-linecap="round" d="M 38.0016 116.2305 L 54.4376 112.2357 L 85.0267 121.3351 L 69.2756 168.8294 L 49.4155 178.1508 L 40.7409 180.1482 L 34.5775 175.7095 L 29.0988 170.1611 L 18.1415 165.2785 L 17.9132 155.0694 L 19.2829 139.9777 L 25.4464 124.4422 L 38.0016 116.2305 Z " stroke-width="0.9005165878935807"/>
  </g>
  <g id="ID0.7085462282411754">
    <g id="ID0.5880346246995032">
      <path id="ID0.6829322893172503" fill="#EDD2B8" stroke="none" stroke-linecap="round" d="M 210.5681 323.3835 L 190.3604 315.7113 L 185.251 326.5071 L 178.6966 338.2021 L 179.6853 348.8119 L 181.6343 357.4211 L 185.9531 362.7518 L 189.7708 375.009 L 198.4507 373.8179 L 200.3711 369.8169 L 203.3672 369.1555 L 208.9709 363.6645 L 214.8829 357.3804 L 217.8952 348.6911 L 215.1437 335.5701 L 210.5681 323.3835 Z " stroke-width="1.522250164820777"/>
      <g id="ID0.9434720128774643">
        <path id="ID0.6507829907350242" fill="#282828" stroke="none" stroke-linecap="round" d="M 209.8957 201.8902 L 176.4216 224.1201 L 181.8533 255.3375 L 186.0887 278.6399 L 188.8783 308.5747 L 185.7662 321.9363 L 213.5551 324.0097 L 210.8299 310.3512 L 212.5452 291.8452 L 215.6962 268.2366 L 214.9096 243.3898 L 209.8957 201.8902 Z " stroke-width="1.522250164820777"/>
        <path id="ID0.9892375003546476" fill="none" stroke="#191919" stroke-width="3.728905072285122" stroke-linecap="round" d="M 212.4983 322.6101 L 186.9611 319.8404 L 190.1316 303.6284 "/>
      </g>
    </g>
    <path id="ID0.7729651997797191" fill="#282828" stroke="none" stroke-linecap="round" d="M 205.0986 144.5897 L 160.9211 140.9382 L 163.5972 178.802 L 169.9083 198.9467 L 171.6717 216.1788 L 175.497 232.2628 L 207.0924 227.9617 L 212.0362 215.5786 L 206.3341 170.5059 L 205.0986 144.5897 Z " stroke-width="1.7877559135823509"/>
    <path id="ID0.4757494777441025" fill="#282828" stroke="none" stroke-linecap="round" d="M 184.8984 114.8805 L 168.4624 110.8857 L 137.8733 119.9851 L 153.6244 167.4794 L 173.4845 176.8008 L 182.1591 178.7982 L 188.3225 174.3595 L 193.8012 168.8111 L 204.7585 163.9285 L 204.9868 153.7194 L 203.6171 138.6277 L 197.4536 123.0922 L 184.8984 114.8805 Z " stroke-width="0.9005165878935807"/>
  </g>
  <path id="ID0.05099705280736089" fill="#D5D5D5" stroke="#D5D5D5" stroke-width="3.728905200958252" stroke-linecap="round" d="M 81.8635 55.176 C 81.2743 55.4761 82.0536 57.6575 82.3296 59.0913 C 82.5664 60.3181 83.3028 61.4144 84.0076 62.4473 C 84.7142 63.4821 85.639 64.3584 86.5246 65.244 C 87.4102 66.1296 88.389 66.922 89.3213 67.761 C 90.2535 68.6 90.8669 70.3433 92.1179 70.278 C 93.369 70.2128 94.4112 68.7137 94.635 67.4813 C 95.0806 65.0277 94.7972 62.3802 93.9824 60.0235 C 93.5722 58.8396 92.2018 58.2411 91.1857 57.5065 C 90.1715 56.7738 89.1143 56.0261 87.9229 55.6421 C 86.1834 55.0809 84.071 53.7515 82.516 54.7098 Z "/>
  <g id="ID0.6660797297954559">
    <path id="ID0.5368814701214433" fill="#343434" stroke="none" stroke-linecap="round" d="M 124.2438 558.8677 L 129.6196 542.4046 L 137.9889 525.1642 L 156.5891 536.086 L 177.5941 550.3214 L 210.1512 569.6041 L 212.1619 581.752 L 166.1149 583.9502 L 126.5046 577.1145 L 124.2438 558.8677 Z " stroke-width="1.4360321584985354"/>
    <g id="ID0.5077062323689461">
      <path id="ID0.05466862628236413" fill="#252525" stroke="none" stroke-linecap="round" d="M 126.3037 424.0796 L 166.7488 417.7772 L 163.5122 445.1535 L 162.1283 454.5003 L 162.1163 481.506 L 166.7785 543.5011 L 127.1704 548.6661 L 124.677 513.7103 L 120.3669 500.5349 L 118.1857 486.1265 L 121.1655 465.4176 L 120.9813 446.557 L 126.3037 424.0796 Z " stroke-width="1.118397965530827"/>
      <path id="ID0.5319394422695041" fill="none" stroke="#131313" stroke-width="3.728905200958252" stroke-linecap="round" d="M 166.8228 541.8092 L 127.2031 549.267 L 125.3387 527.8258 "/>
    </g>
    <g id="ID0.8820344842970371">
      <path id="ID0.3809091211296618" fill="#252525" stroke="none" stroke-linecap="round" d="M 105.3813 286.829 L 164.5126 250.442 L 166.8668 295.6134 L 174.303 385.9951 L 173.403 406.0425 L 165.9433 427.0788 L 150.8537 423.0068 L 126.7031 425.4129 L 125.4701 384.8388 L 122.2292 360.0362 L 105.3813 286.829 Z " stroke-width="1.362148461373465"/>
      <path id="ID0.9495224836282432" fill="none" stroke="#131313" stroke-width="3.728905200958252" stroke-linecap="round" d="M 174.2806 386.1274 L 174.2806 401.9753 L 170.5517 416.8909 L 154.7038 425.2809 L 152.8394 434.6032 "/>
    </g>
  </g>
  <g id="ID0.18228224432095885">
    <path id="ID0.5368814701214433" fill="#404040" stroke="none" stroke-linecap="round" d="M 52.8204 561.1027 L 58.5512 544.7598 L 67.2916 527.7045 L 85.651 539.0264 L 106.3431 553.7129 L 138.4753 573.6957 L 140.2227 585.8842 L 94.1389 587.0854 L 54.6858 579.3942 L 52.8204 561.1027 Z " stroke-width="1.436032202834355"/>
    <g id="ID0.5077062323689461">
      <path id="ID0.05466862628236413" fill="#252525" stroke="none" stroke-linecap="round" d="M 60.1926 425.2712 L 100.8901 420.8855 L 96.3645 448.0784 L 94.5408 457.3496 L 93.2537 484.3245 L 94.9836 546.4707 L 55.1757 549.7597 L 54.3356 514.7251 L 50.6524 501.3609 L 49.154 486.8657 L 53.1082 466.3205 L 53.8148 447.4722 L 60.1926 425.2712 Z " stroke-width="1.1183980072225137"/>
      <path id="ID0.5319394422695041" fill="none" stroke="#131313" stroke-width="3.728905143857218" stroke-linecap="round" d="M 95.1349 544.7756 L 55.2073 550.3544 L 54.3573 528.8491 "/>
    </g>
    <g id="ID0.8820344842970371">
      <path id="ID0.3809091211296618" fill="#252525" stroke="none" stroke-linecap="round" d="M 55.3656 282.4373 L 106.6569 253.6372 L 106.8756 298.8694 L 110.036 389.5013 L 108.1905 409.484 L 99.7458 430.1446 L 84.8653 425.3646 L 59.6089 429.1224 L 56.0793 386.0305 L 54.3678 361.6866 L 55.3656 282.4373 Z " stroke-width="1.3621485068425452"/>
      <path id="ID0.9495224836282432" fill="none" stroke="#131313" stroke-width="3.728905143857218" stroke-linecap="round" d="M 109.9351 389.6196 L 109.1869 405.4498 L 104.7578 420.1727 L 88.5315 427.8051 L 86.229 437.0289 "/>
    </g>
  </g>
  <g id="ID0.8990198895335197">
    <path id="ID0.17576928716152906" fill="#DBDBDB" stroke="none" d="M 115.5582 105.5589 L 115.0921 105.5589 L 115.0921 105.5589 L 115.5582 105.5589 L 115.5582 105.5589 Z " stroke-width="1.864452600479126"/>
    <path id="ID0.4270821204409003" fill="#252525" stroke="none" stroke-linecap="round" d="M 111.5545 333.0246 L 111.0808 122.7958 L 143.4389 127.419 L 156.1426 135.6743 L 161.3112 143.3291 L 173.9603 164.9022 L 172.2235 184.4008 L 170.2365 194.5708 L 173.0756 207.5048 L 173.7512 217.7301 L 169.49 230.5167 L 166.2696 240.2171 L 163.6913 257.4784 L 165.6393 298.3639 L 155.7358 313.4751 L 146.5753 324.8725 L 111.5545 333.0246 Z " stroke-width="0.8877452733154381"/>
    <path id="ID0.4270821204409003" fill="#252525" stroke="none" stroke-linecap="round" d="M 111.7455 333.2746 L 112.2192 123.0458 L 79.8611 127.669 L 67.1574 135.9243 L 61.9888 143.5791 L 49.3397 165.1522 L 51.0765 184.6508 L 53.0635 194.8208 L 50.2244 207.7548 L 49.5488 217.9801 L 53.81 230.7667 L 57.0304 240.4671 L 59.6087 257.7284 L 57.6607 298.6139 L 67.5642 313.7251 L 76.7247 325.1225 L 111.7455 333.2746 Z " stroke-width="0.8877452733154381"/>
    <path id="ID0.5114514343440533" fill="#282828" stroke="none" d="M 62.8154 125.2954 L 161.6313 125.2954 L 161.6313 289.8333 L 62.8154 289.8333 L 62.8154 125.2954 Z " stroke-width="1.8780753987323962"/>
    <path id="ID0.9286923445761204" fill="#D4D4D4" stroke="none" stroke-linecap="round" d="M 92.9115 99.7049 L 125.1367 64.7721 L 111.8649 99.9712 L 114.2174 175.4295 L 43.4641 121.2771 L 81.0157 101.1253 L 92.9115 99.7049 Z " stroke-width="0.8877452611923218"/>
    <path id="ID0.9286923445761204" fill="#D4D4D4" stroke="none" stroke-linecap="round" d="M 123.4135 97.6748 L 97.7133 65.2721 L 110.9851 100.4712 L 113.2489 175.0418 L 179.3859 121.7771 L 142.5001 99.761 L 123.4135 97.6748 Z " stroke-width="0.8877452611923218"/>
    <path id="ID0.39874776685610414" fill="#1F2022" stroke="none" stroke-linecap="round" d="M 77.4385 102.8514 L 114.4845 121.255 L 147.7986 104.5476 L 155.2624 108.5336 L 114.1204 128.2941 L 70.4298 106.4982 L 77.4385 102.8514 Z " stroke-width="1.7594081152616927"/>
    <path id="ID0.13444371055811644" fill="#1F1F1F" stroke="none" stroke-linecap="round" d="M 110.0158 124.6346 L 119.8042 124.1685 L 125.0246 177.3054 L 102.558 178.2376 L 110.0158 124.6346 Z " stroke-width="1.864452600479126"/>
    <path id="ID0.751046194229275" fill="#191919" stroke="none" stroke-linecap="round" d="M 105.7159 115.3959 L 114.4322 111.6018 L 122.8409 115.3959 L 123.6613 130.2649 L 115.4577 132.1107 L 105.7159 130.2649 L 105.7159 115.3959 Z " stroke-width="2.0508978366851807"/>
    <path id="ID0.7854711129330099" fill="#282828" stroke="none" stroke-linecap="round" d="M 89.0407 155.8675 L 115.143 172.1815 L 140.7793 154.0031 L 137.0504 186.631 L 93.7018 186.631 L 89.0407 155.8675 Z " stroke-width="1.864452600479126"/>
    <path id="ID0.562834897544235" fill="#282828" stroke="none" stroke-linecap="round" d="M 57.8111 289.1759 L 114.2108 278.4553 L 114.2108 316.2104 L 88.5746 318.541 L 57.8111 289.1759 Z " stroke-width="1.864452600479126"/>
    <path id="ID0.562834897544235" fill="#282828" stroke="none" stroke-linecap="round" d="M 171.3889 289.6759 L 114.9892 278.9553 L 114.9892 316.7104 L 140.6254 319.041 L 171.3889 289.6759 Z " stroke-width="1.864452600479126"/>
    <path id="ID0.6824178956449032" fill="none" stroke="#191919" stroke-width="3.728905200958252" stroke-linecap="round" d="M 114.6608 172.6476 L 114.1947 315.7443 "/>
    <path id="ID0.4144489667378366" fill="#313131" stroke="none" stroke-linecap="round" d="M 42.4294 115.7818 L 80.1846 100.8662 L 74.5912 141.418 L 80.6507 253.2852 L 62.9384 336.7194 L 42.4294 327.3972 L 41.9633 333.9227 L 47.5566 244.429 L 38.7005 163.7914 L 36.836 133.4941 L 42.4294 115.7818 Z " stroke-width="1.864452600479126"/>
    <path id="ID0.5234400681219995" fill="#101010" stroke="none" d="M 118.7973 183.2844 C 119.5667 183.2844 120.2644 183.5968 120.7694 184.1019 C 121.2745 184.607 121.587 185.3047 121.587 186.074 C 121.587 186.8434 121.2745 187.5411 120.7694 188.0462 C 120.2644 188.5513 119.5667 188.8637 118.7973 188.8637 C 118.0279 188.8637 117.3302 188.5513 116.8251 188.0462 C 116.32 187.5411 116.0076 186.8434 116.0076 186.074 C 116.0076 185.3047 116.32 184.607 116.8251 184.1019 C 117.3302 183.5968 118.0279 183.2844 118.7973 183.2844 Z " stroke-width="1.174605131149292"/>
    <path id="ID0.5234400681219995" fill="#101010" stroke="none" d="M 118.7973 208.6344 C 119.5667 208.6344 120.2644 208.9468 120.7694 209.4519 C 121.2745 209.957 121.587 210.6547 121.587 211.424 C 121.587 212.1934 121.2745 212.8911 120.7694 213.3962 C 120.2644 213.9013 119.5667 214.2137 118.7973 214.2137 C 118.0279 214.2137 117.3302 213.9013 116.8251 213.3962 C 116.32 212.8911 116.0076 212.1934 116.0076 211.424 C 116.0076 210.6547 116.32 209.957 116.8251 209.4519 C 117.3302 208.9468 118.0279 208.6344 118.7973 208.6344 Z " stroke-width="1.174605131149292"/>
    <path id="ID0.5234400681219995" fill="#101010" stroke="none" d="M 118.7973 267.4344 C 119.5667 267.4344 120.2644 267.7468 120.7694 268.2519 C 121.2745 268.757 121.587 269.4547 121.587 270.224 C 121.587 270.9934 121.2745 271.6911 120.7694 272.1962 C 120.2644 272.7013 119.5667 273.0137 118.7973 273.0137 C 118.0279 273.0137 117.3302 272.7013 116.8251 272.1962 C 116.32 271.6911 116.0076 270.9934 116.0076 270.224 C 116.0076 269.4547 116.32 268.757 116.8251 268.2519 C 117.3302 267.7468 118.0279 267.4344 118.7973 267.4344 Z " stroke-width="1.174605131149292"/>
    <path id="ID0.5234400681219995" fill="#101010" stroke="none" d="M 118.7973 239.8344 C 119.5667 239.8344 120.2644 240.1468 120.7694 240.6519 C 121.2745 241.157 121.587 241.8547 121.587 242.624 C 121.587 243.3934 121.2745 244.0911 120.7694 244.5962 C 120.2644 245.1013 119.5667 245.4137 118.7973 245.4137 C 118.0279 245.4137 117.3302 245.1013 116.8251 244.5962 C 116.32 244.0911 116.0076 243.3934 116.0076 242.624 C 116.0076 241.8547 116.32 241.157 116.8251 240.6519 C 117.3302 240.1468 118.0279 239.8344 118.7973 239.8344 Z " stroke-width="1.174605131149292"/>
    <path id="ID0.5234400681219995" fill="#101010" stroke="none" d="M 118.5973 293.5344 C 119.3667 293.5344 120.0644 293.8468 120.5694 294.3519 C 121.0745 294.857 121.387 295.5547 121.387 296.324 C 121.387 297.0934 121.0745 297.7911 120.5694 298.2962 C 120.0644 298.8013 119.3667 299.1137 118.5973 299.1137 C 117.8279 299.1137 117.1302 298.8013 116.6251 298.2962 C 116.12 297.7911 115.8076 297.0934 115.8076 296.324 C 115.8076 295.5547 116.12 294.857 116.6251 294.3519 C 117.1302 293.8468 117.8279 293.5344 118.5973 293.5344 Z " stroke-width="1.174605131149292"/>
    <path id="ID0.4144489667378366" fill="#313131" stroke="none" stroke-linecap="round" d="M 179.4706 114.2318 L 141.7154 99.3162 L 147.3088 139.868 L 141.2493 251.7352 L 158.9616 335.1694 L 179.4706 325.8472 L 179.9367 332.3727 L 174.3434 242.879 L 183.1995 162.2414 L 185.064 131.9441 L 179.4706 114.2318 Z " stroke-width="1.864452600479126"/>
    <path id="ID0.8752945330925286" fill="none" stroke="#222222" stroke-width="3.728905200958252" stroke-linecap="round" d="M 43.3616 116.2479 L 37.3021 130.6974 L 43.3616 201.0805 "/>
    <path id="ID0.8752945330925286" fill="none" stroke="#222222" stroke-width="3.728905200958252" stroke-linecap="round" d="M 179.8384 115.3479 L 185.8979 129.7974 L 179.8384 200.1805 "/>
    <path id="ID0.5234400681219995" fill="#101010" stroke="none" d="M 75.6973 268.5844 C 76.4667 268.5844 77.1644 268.8968 77.6694 269.4019 C 78.1745 269.907 78.487 270.6047 78.487 271.374 C 78.487 272.1434 78.1745 272.8411 77.6694 273.3462 C 77.1644 273.8513 76.4667 274.1637 75.6973 274.1637 C 74.9279 274.1637 74.2302 273.8513 73.7251 273.3462 C 73.22 272.8411 72.9076 272.1434 72.9076 271.374 C 72.9076 270.6047 73.22 269.907 73.7251 269.4019 C 74.2302 268.8968 74.9279 268.5844 75.6973 268.5844 Z " stroke-width="1.174605131149292"/>
    <path id="ID0.5234400681219995" fill="#101010" stroke="none" d="M 73.0973 282.0844 C 73.8667 282.0844 74.5644 282.3968 75.0694 282.9019 C 75.5745 283.407 75.887 284.1047 75.887 284.874 C 75.887 285.6434 75.5745 286.3411 75.0694 286.8462 C 74.5644 287.3513 73.8667 287.6637 73.0973 287.6637 C 72.3279 287.6637 71.6302 287.3513 71.1251 286.8462 C 70.62 286.3411 70.3076 285.6434 70.3076 284.874 C 70.3076 284.1047 70.62 283.407 71.1251 282.9019 C 71.6302 282.3968 72.3279 282.0844 73.0973 282.0844 Z " stroke-width="1.174605131149292"/>
    <g id="ID0.20783481979742646">
      <path id="ID0.5848579816520214" fill="#737373" stroke="none" stroke-linecap="round" d="M 159.7925 167.2407 L 172.564 164.444 L 172.3775 171.7154 L 158.8602 172.6476 L 159.7925 167.2407 Z " stroke-width="1.864452600479126"/>
      <path id="ID0.13105127029120922" fill="none" stroke="#222222" stroke-width="3.728905200958252" stroke-linecap="round" d="M 156.3432 173.1137 L 164.7333 173.1137 L 174.5216 170.317 "/>
    </g>
  </g>
  <path id="ID0.46110434643924236" fill="#D8BFA7" stroke="none" stroke-linecap="round" d="M 89.8617 65.1551 L 132.0257 65.1551 L 132.8973 100.4865 L 121.3485 105.8002 L 89.8617 102.6306 L 89.8617 65.1551 Z " stroke-width="2.0278453373021867"/>
  <path id="ID0.8999492498114705" fill="#EDD2B8" stroke="none" stroke-linecap="round" d="M 124.7614 6.0066 C 132.9728 6.8999 141.7951 11.9532 145.7705 19.1928 C 150.3067 27.4581 146.8087 37.8831 147.234 47.2103 C 147.4367 50.4545 147.8648 53.8437 147.0445 57.1087 C 146.1002 62.9928 143.8865 68.6041 142.0243 74.4427 C 140.7712 78.3783 140.415 82.7346 138.2355 86.2828 C 135.7822 90.4827 133.2787 96.3261 128.4318 97.1757 C 121.2463 98.4346 113.6459 95.0019 107.2143 91.7293 C 101.9308 89.0401 96.9835 84.916 94.0481 79.7471 C 88.791 70.1546 84.0161 59.6018 83.2972 48.6312 C 82.5006 36.4699 81.0646 21.431 89.9277 12.6371 C 97.8559 4.17 112.5547 4.6843 124.7614 6.0066 Z " stroke-width="0.9472113847732544"/>
  <path id="ID0.3135040863417089" fill="none" stroke="#D8BFA7" stroke-width="2.0797495611997507" stroke-linecap="round" d="M 125.5791 42.5248 C 125.5791 42.5248 126.3382 48.2641 126.6109 50.462 C 126.7013 51.1795 126.6136 51.9137 126.7008 52.6314 C 126.7875 53.3383 126.9651 54.0341 127.1316 54.727 C 127.2941 55.406 127.7526 56.0522 127.6888 56.7475 C 127.624 57.451 127.3996 58.3382 126.7712 58.6596 C 125.3097 59.4068 121.9488 59.6819 121.9488 59.6819 "/>
  <path id="ID0.8194515448994935" fill="#EDD2B8" stroke="none" stroke-linecap="round" d="M 83.2169 38.7628 C 84.8092 38.925 85.9614 39.9858 86.9067 41.9603 C 87.8519 43.9347 88.4374 46.6606 88.4374 49.6698 C 88.4374 52.679 87.8519 55.4049 86.9067 57.3793 C 85.9614 59.3538 84.8073 60.3643 83.2169 60.5768 C 81.757 60.7689 79.8814 59.969 79.2083 58.7124 C 77.9424 55.9194 78.1661 52.6063 77.9964 49.6698 C 77.8286 46.7836 77.1574 43.6103 78.2761 41.0001 C 79.1692 39.4079 81.5482 38.5931 83.2169 38.7628 Z " stroke-width="1.864452600479126"/>
  <path id="ID0.39239801559597254" fill="#DEDEDE" stroke="#DEDEDE" stroke-width="3.728905200958252" stroke-linecap="round" d="M 81.1135 37.9298 C 81.4938 38.8322 82.0662 42.5499 84.5627 44.735 C 85.5434 45.5945 86.9268 43.4038 87.639 42.3112 C 88.3382 41.2392 88.4594 39.8576 88.5713 38.5823 C 88.6794 37.3425 87.764 35.9814 88.2916 34.8534 C 88.8286 33.7068 90.6128 33.6341 91.3679 32.6161 C 92.11 31.6149 91.8117 30.0543 92.5798 29.0736 C 93.3555 28.0836 95.067 28.0799 95.7494 27.0227 C 96.4299 25.9674 95.9974 24.5094 96.3087 23.2938 C 96.6201 22.0763 96.7338 20.6482 97.6139 19.7514 C 98.5013 18.8452 100.0544 18.9813 101.1563 18.353 C 102.2508 17.7284 102.976 16.5072 104.1394 16.0224 C 105.2954 15.5414 106.6173 15.588 107.8684 15.5563 C 109.1138 15.5246 110.4394 16.2947 111.5973 15.836 C 112.7812 15.3662 113.2753 13.9082 114.2075 13.0393 C 115.1434 12.1668 115.9321 10.8486 117.1906 10.6155 C 118.4156 10.3881 119.5025 11.6223 120.7331 11.8274 C 121.958 12.0307 123.2482 11.5627 124.462 11.8274 C 125.7242 12.1034 126.8224 12.892 128.0044 13.4122 C 129.1492 13.9156 130.2026 14.9038 131.4537 14.9038 C 132.7905 14.9038 133.8495 13.5129 135.1826 13.4122 C 136.4597 13.3171 137.6996 13.9343 138.9115 14.3444 C 140.0973 14.7453 141.1563 16.1772 142.3607 15.836 C 143.5614 15.4948 144.5048 14.0088 144.5048 12.7597 C 144.5048 11.5105 143.3918 10.3881 142.3607 9.6833 C 141.3036 8.9618 139.8251 9.2153 138.6318 8.7511 C 137.4143 8.2775 136.4001 7.3602 135.1826 6.8866 C 133.9893 6.4224 132.6413 6.4298 131.4537 5.9544 C 130.2921 5.4902 129.3245 4.6176 128.1909 4.0899 C 127.0517 3.5586 125.9013 2.8967 124.6484 2.7848 C 123.3937 2.673 122.1762 3.3274 120.9195 3.4374 C 119.6834 3.5455 118.4323 3.4374 117.1906 3.4374 C 115.9489 3.4374 114.6941 3.2826 113.4617 3.4374 C 112.192 3.5959 110.9969 4.1645 109.7328 4.3696 C 108.5041 4.5691 107.2475 4.571 106.0039 4.6493 C 104.7622 4.7276 103.4701 4.4945 102.275 4.8357 C 101.0202 5.1937 100.0526 6.2546 98.8258 6.7002 C 97.6362 7.1327 96.3423 7.2129 95.0969 7.446 C 93.857 7.679 92.5332 7.6194 91.3679 8.0985 C 90.2139 8.574 89.3133 9.5248 88.2916 10.2426 C 87.2345 10.9847 85.9871 11.5198 85.122 12.48 C 84.2662 13.4309 83.5839 14.5999 83.2576 15.836 C 82.9425 17.0367 83.2259 18.3232 83.2576 19.5649 C 83.2893 20.8085 83.6976 22.0763 83.444 23.2938 C 83.1849 24.5449 82.3123 25.589 81.766 26.743 C 81.2253 27.886 80.4982 28.9692 80.1812 30.1923 C 79.868 31.3967 79.9016 32.6757 79.9016 33.9212 C 79.9016 34.5495 79.8531 35.0231 80.1812 35.7856 Z "/>
  <path id="ID0.3928942778147757" fill="none" stroke="#B7B7B7" stroke-width="3.728905200958252" stroke-linecap="round" d="M 113.4236 72.1238 C 113.4236 72.1238 116.032 71.6558 117.339 71.7509 C 118.6161 71.8441 119.8038 72.478 121.0679 72.6831 C 122.2965 72.8826 123.5811 73.235 124.7968 72.9628 C 126.0441 72.6831 126.8775 71.1841 128.1528 71.0983 C 129.4187 71.0126 130.461 72.2058 131.6952 72.4967 C 132.6014 72.7092 134.4919 72.5899 134.4919 72.5899 "/>
  <path id="ID0.8256730306893587" fill="none" stroke="#D8BFA7" stroke-width="1.894422747961262" stroke-linecap="round" d="M 113.7933 77.8272 C 113.7933 77.8272 117.3546 77.4708 119.5522 77.3279 C 120.1865 77.2881 120.8158 77.4407 121.4384 77.555 C 122.0712 77.6716 122.6703 78.0115 123.3138 78.0186 C 124.5894 78.0334 125.8521 77.7223 127.1244 77.6212 C 127.7553 77.5709 128.3915 77.5284 129.0233 77.5644 C 129.656 77.6005 130.2848 77.7236 130.9073 77.8388 C 132.2184 78.0742 135.2388 78.5078 135.2388 78.5078 "/>
  <path id="ID0.7592270169407129" fill="none" stroke="#D8BFA7" stroke-width="1.8944227695465088" stroke-linecap="round" d="M 128.4443 81.421 C 128.4443 81.421 127.2849 82.0641 126.6446 82.1787 C 126.0232 82.2905 125.3781 82.0205 124.7501 82.084 C 124.1183 82.1484 123.533 82.478 122.9031 82.5576 C 122.277 82.6372 121.6234 82.6978 121.0087 82.5576 C 120.4858 82.4383 119.5878 81.7998 119.5878 81.7998 "/>
  <path id="ID0.7592270169407129" fill="none" stroke="#D8BFA7" stroke-width="1.8944228186159804" stroke-linecap="round" d="M 127.5028 91.843 C 127.5028 91.843 127.6576 93.1598 127.5206 93.7957 C 127.388 94.413 126.8934 94.9072 126.7137 95.5123 C 126.5334 96.1212 126.6161 96.7879 126.4505 97.4009 C 126.2864 98.0103 126.0944 98.638 125.7313 99.1534 C 125.4223 99.5918 124.4908 100.1802 124.4908 100.1802 "/>
  <path id="ID0.3135040863417089" fill="none" stroke="#D8BFA7" stroke-width="2.079749571192438" stroke-linecap="round" d="M 117.8088 61.5793 C 117.8088 61.5793 112.2235 66.0728 110.0063 68.5328 C 109.0517 69.5974 108.0934 72.3801 108.0934 72.3801 "/>
  <path id="ID0.3135040863417089" fill="none" stroke="#D8BFA7" stroke-width="2.079749571192438" stroke-linecap="round" d="M 129.8412 61.1293 C 129.8412 61.1293 135.4265 65.6228 137.6437 68.0828 C 138.5983 69.1474 139.5566 71.9301 139.5566 71.9301 "/>
  <path id="ID0.3780672522261739" fill="none" stroke="#B7B7B7" stroke-width="3.728905200958252" stroke-linecap="round" d="M 99.0122 41.5629 C 99.0122 41.5629 100.2483 39.1596 101.3428 38.4865 C 102.4167 37.8265 103.8299 38.0521 105.0717 37.834 C 106.3134 37.6158 107.5421 37.2541 108.8006 37.1814 C 111.2803 37.036 116.2584 37.1814 116.2584 37.1814 "/>
  <path id="ID0.3780672522261739" fill="none" stroke="#B7B7B7" stroke-width="3.187098503112793" stroke-linecap="round" d="M 144.0195 40.7465 C 144.0195 40.7465 142.963 38.6924 142.0275 38.1171 C 141.1097 37.553 139.9017 37.7458 138.8404 37.5594 C 137.7791 37.3729 136.729 37.0638 135.6533 37.0016 C 133.5339 36.8773 129.2791 37.0016 129.2791 37.0016 "/>
  <path id="ID0.2118763979524374" fill="#D8BFA7" stroke="none" d="M 109.3319 46.471 C 111.133 46.471 112.7644 46.6228 113.9446 46.8671 C 115.1266 47.1115 115.8575 47.4494 115.8575 47.8227 C 115.8575 48.196 115.1266 48.5339 113.9446 48.7783 C 112.7644 49.0226 111.133 49.1744 109.3319 49.1744 C 107.5308 49.1744 105.8995 49.0226 104.7193 48.7783 C 103.5372 48.5339 102.8063 48.196 102.8063 47.8227 C 102.8063 47.4494 103.5372 47.1115 104.7193 46.8671 C 105.8995 46.6228 107.5308 46.471 109.3319 46.471 Z " stroke-width="1.5095278318382033"/>
  <path id="ID0.2118763979524374" fill="#D8BFA7" stroke="none" d="M 136.1819 46.4738 C 137.983 46.4738 139.6144 46.6466 140.7946 46.9246 C 141.9766 47.2027 142.7075 47.5872 142.7075 48.012 C 142.7075 48.4368 141.9766 48.8213 140.7946 49.0994 C 139.6144 49.3774 137.983 49.5502 136.1819 49.5502 C 134.3808 49.5502 132.7495 49.3774 131.5693 49.0994 C 130.3872 48.8213 129.6563 48.4368 129.6563 48.012 C 129.6563 47.5872 130.3872 47.2027 131.5693 46.9246 C 132.7495 46.6466 134.3808 46.4738 136.1819 46.4738 Z " stroke-width="1.5614368389292774"/>
  <path id="ID0.7788236327469349" fill="#D9BFA7" stroke="none" stroke-linecap="round" d="M 104.8607 44.1444 L 107.3777 43.7715 L 111.5727 43.3053 L 115.5813 43.4918 L 116.1406 47.6868 L 111.3863 48.8055 L 102.064 47.5936 L 104.8607 44.1444 Z " stroke-width="1.864452600479126"/>
  <path id="ID0.7788236327469349" fill="#D9BFA7" stroke="none" stroke-linecap="round" d="M 140.9825 44.5808 L 137.813 43.5553 L 134.1773 43.5553 L 130.1687 43.7418 L 129.6094 47.9368 L 134.3637 49.0555 L 143.0334 48.2165 L 140.9825 44.5808 Z " stroke-width="1.864452600479126"/>
</svg>