<svg xmlns="http://www.w3.org/2000/svg" xmlns:xlink="http://www.w3.org/1999/xlink" version="1.1" width="135.8390961358569" height="317.2917786309741" viewBox="1.6129998828161776 -1.0246816014062345 135.8390961358569 317.2917786309741">
  <!-- Exported by Scratch - http://scratch.mit.edu/ -->
  <g id="ID0.7085462282411754">
    <g id="ID0.5880346246995032">
      <path id="ID0.6829322893172503" fill="#1D1E1F" stroke="none" stroke-linecap="round" d="M 8.0327 172.0264 L 19.2625 169.1463 L 21.3398 175.2063 L 24.1335 181.8319 L 22.9717 187.4277 L 21.4178 191.8999 L 18.7968 194.4827 L 16.0285 200.7874 L 11.4734 199.6332 L 10.6892 197.3857 L 9.1319 196.8539 L 6.4737 193.5919 L 3.6986 189.8887 L 2.613 185.077 L 4.8647 178.2481 L 8.0327 172.0264 Z " stroke-width="0.8164595587867831"/>
      <g id="ID0.9434720128774643">
        <path id="ID0.6507829907350242" fill="#282828" stroke="none" stroke-linecap="round" d="M 15.7123 107.3787 L 32.2239 121.2303 L 27.4608 137.5442 L 23.8089 149.711 L 20.5308 165.4994 L 21.39 172.8074 L 6.4545 172.2497 L 8.7243 165.1327 L 8.9174 155.1663 L 8.6506 142.3944 L 10.5566 129.198 L 15.7123 107.3787 Z " stroke-width="0.8164595587867831"/>
        <path id="ID0.9892375003546476" fill="none" stroke="#191919" stroke-width="1.9999999063241387" stroke-linecap="round" d="M 7.083 171.5234 L 20.8602 171.5753 L 20.1403 162.7445 "/>
      </g>
    </g>
    <path id="ID0.7729651997797191" fill="#282828" stroke="none" stroke-linecap="round" d="M 21.6988 77.0923 L 45.464 77.7896 L 41.7719 97.8109 L 37.2027 108.1704 L 35.2316 117.2496 L 32.2303 125.5935 L 15.6472 121.4104 L 13.7532 114.5144 L 19.4895 90.8318 L 21.6988 77.0923 Z " stroke-width="0.9588637102180989"/>
    <path id="ID0.4757494777441025" fill="#282828" stroke="none" stroke-linecap="round" d="M 34.1337 62.4115 L 43.1331 61.2657 L 58.8927 67.9461 L 47.6554 92.3181 L 36.5121 96.098 L 31.769 96.6436 L 28.7495 93.909 L 26.1614 90.6238 L 20.6133 87.3657 L 21.1025 81.9106 L 22.7356 73.9487 L 26.9503 66.037 L 34.1337 62.4115 Z " stroke-width="0.4829924959162033"/>
  </g>
  <g id="ID0.7085462282411754">
    <g id="ID0.5880346246995032">
      <path id="ID0.6829322893172503" fill="#1D1E1F" stroke="none" stroke-linecap="round" d="M 131.2918 171.6417 L 120.1212 168.5398 L 117.9243 174.5575 L 115 181.1265 L 116.0508 186.7442 L 117.5159 191.2463 L 120.0852 193.8805 L 122.7281 200.2388 L 127.3052 199.1749 L 128.1337 196.9434 L 129.7012 196.4426 L 132.4235 193.2338 L 135.2714 189.5863 L 136.4521 184.797 L 134.336 177.9249 L 131.2918 171.6417 Z " stroke-width="0.8164595520164061"/>
      <g id="ID0.9434720128774643">
        <path id="ID0.6507829907350242" fill="#282828" stroke="none" stroke-linecap="round" d="M 124.9399 106.8496 L 108.1573 120.3716 L 112.5964 136.7766 L 116.0066 149.0133 L 118.9714 164.8635 L 117.9677 172.153 L 132.9114 171.8912 L 130.7829 164.7307 L 130.7872 154.7624 L 131.3068 141.9983 L 129.6625 128.7668 L 124.9399 106.8496 Z " stroke-width="0.8164595520164061"/>
        <path id="ID0.9892375003546476" fill="none" stroke="#191919" stroke-width="1.9999998675795017" stroke-linecap="round" d="M 132.2912 171.1226 L 118.5157 170.9016 L 119.4103 162.0869 "/>
      </g>
    </g>
    <path id="ID0.7729651997797191" fill="#282828" stroke="none" stroke-linecap="round" d="M 119.5384 76.4231 L 95.7641 76.6496 L 99.059 96.7401 L 103.4222 107.1881 L 105.2131 116.3045 L 108.0485 124.7062 L 124.7112 120.8523 L 126.7415 113.9951 L 121.4752 90.2035 L 119.5384 76.4231 Z " stroke-width="0.9588636969319899"/>
    <path id="ID0.4757494777441025" fill="#282828" stroke="none" stroke-linecap="round" d="M 107.3207 61.5065 L 98.3457 60.1827 L 82.4569 66.5498 L 93.2095 91.1396 L 104.2757 95.1394 L 109.007 95.7788 L 112.0801 93.1044 L 114.7328 89.8712 L 120.3443 86.7236 L 119.9632 81.2598 L 118.4881 73.2671 L 114.4308 65.2736 L 107.3207 61.5065 Z " stroke-width="0.48299248837627146"/>
  </g>
  <g id="ID0.6660797297954559">
    <path id="ID0.5368814701214433" fill="#343434" stroke="none" stroke-linecap="round" d="M 59.1674 296.5251 L 63.2562 288.1846 L 68.993 279.6556 L 78.0529 286.8499 L 88.1417 295.9842 L 103.9874 308.6648 L 104.145 315.2671 L 79.5251 312.9839 L 59.0008 306.3852 L 59.1674 296.5251 Z " stroke-width="0.7702165015107623"/>
    <g id="ID0.5077062323689461">
      <path id="ID0.05466862628236413" fill="#252525" stroke="none" stroke-linecap="round" d="M 70.3402 225.1565 L 92.2925 224.8402 L 88.5221 239.137 L 87.0866 243.9973 L 85.0565 258.3388 L 82.8869 291.6132 L 61.4644 291.3881 L 62.7596 272.6366 L 61.4579 265.3163 L 61.3792 257.5007 L 64.5136 246.7257 L 65.8292 236.6952 L 70.3402 225.1565 Z " stroke-width="0.5998532475091911"/>
      <path id="ID0.5319394422695041" fill="none" stroke="#131313" stroke-width="1.9999999761070235" stroke-linecap="round" d="M 82.9977 290.6928 L 61.3973 291.6846 L 62.0139 280.1577 "/>
    </g>
    <g id="ID0.8820344842970371">
      <path id="ID0.3809091211296618" fill="#252525" stroke="none" stroke-linecap="round" d="M 69.5088 150.6241 L 103.6396 135.7304 L 101.5048 159.8969 L 98.6811 208.4549 L 96.7009 219.0345 L 91.1627 229.6477 L 83.4539 226.3543 L 70.4475 225.8224 L 72.8332 204.1815 L 72.9706 190.7662 L 69.5088 150.6241 Z " stroke-width="0.7305889430824839"/>
      <path id="ID0.9495224836282432" fill="none" stroke="#131313" stroke-width="1.9999999761070235" stroke-linecap="round" d="M 98.6248 208.5707 L 97.4372 216.9873 L 94.3391 224.6294 L 85.2938 227.8977 L 83.605 232.709 "/>
    </g>
  </g>
  <g id="ID0.18228224432095885">
    <path id="ID0.5368814701214433" fill="#404040" stroke="none" stroke-linecap="round" d="M 50.9539 302.7128 L 53.1457 293.6862 L 56.906 284.1198 L 67.3053 289.1887 L 79.1281 295.9296 L 97.3378 304.8904 L 98.9169 311.303 L 74.3847 314.3886 L 52.9198 312.3763 L 50.9539 302.7128 Z " stroke-width="0.7702165491506346"/>
    <g id="ID0.5077062323689461">
      <path id="ID0.05466862628236413" fill="#252525" stroke="none" stroke-linecap="round" d="M 47.7104 229.8484 L 69.1989 225.3489 L 68.2259 240.1024 L 67.7443 245.1473 L 68.4882 259.6127 L 72.708 292.6896 L 51.6362 296.5566 L 49.3294 277.9025 L 46.6547 270.9651 L 45.0861 263.3082 L 46.1068 252.133 L 45.4841 242.0358 L 47.7104 229.8484 Z " stroke-width="0.5998532699744331"/>
      <path id="ID0.5319394422695041" fill="none" stroke="#131313" stroke-width="2.000000066520965" stroke-linecap="round" d="M 72.6791 291.7897 L 51.6649 296.8852 L 50.0705 285.4524 "/>
    </g>
    <g id="ID0.8820344842970371">
      <path id="ID0.3809091211296618" fill="#252525" stroke="none" stroke-linecap="round" d="M 37.595 153.782 L 63.4426 135.6901 L 65.9586 159.8199 L 72.4528 208.0244 L 72.5278 218.7874 L 69.1166 230.2624 L 60.9211 228.5005 L 47.6405 231.8459 L 43.4709 209.034 L 41.2662 196.1319 L 37.595 153.782 Z " stroke-width="0.7305889898549431"/>
      <path id="ID0.9495224836282432" fill="none" stroke="#131313" stroke-width="2.000000066520965" stroke-linecap="round" d="M 72.3482 208.1946 L 72.7885 216.6832 L 71.2057 224.7761 L 62.9502 229.7104 L 62.2105 234.7554 "/>
    </g>
  </g>
  <g id="ID0.8990198895335197">
    <path id="ID0.17576928716152906" fill="#DBDBDB" stroke="none" d="M 72.55 56.6 L 72.3 56.6 L 72.3 56.6 L 72.55 56.6 L 72.55 56.6 Z " stroke-width="1"/>
    <path id="ID0.4270821204409003" fill="#252525" stroke="none" stroke-linecap="round" d="M 70.3901 178.6011 L 70.1361 65.8448 L 87.4913 68.3245 L 94.305 72.7522 L 97.0772 76.8578 L 103.8615 88.4286 L 102.93 98.8866 L 101.8642 104.3413 L 103.387 111.2785 L 103.7494 116.7629 L 101.4639 123.621 L 99.7366 128.8238 L 98.3537 138.0818 L 99.3985 160.0108 L 94.0868 168.1158 L 89.1736 174.2287 L 70.3901 178.6011 Z " stroke-width="0.47614257300029306"/>
    <path id="ID0.4270821204409003" fill="#252525" stroke="none" stroke-linecap="round" d="M 70.5099 178.7511 L 70.7639 65.9948 L 53.4087 68.4745 L 46.595 72.9022 L 43.8228 77.0078 L 37.0385 88.5786 L 37.97 99.0366 L 39.0358 104.4913 L 37.513 111.4285 L 37.1506 116.9129 L 39.4361 123.771 L 41.1634 128.9738 L 42.5463 138.2318 L 41.5015 160.1608 L 46.8132 168.2658 L 51.7264 174.3787 L 70.5099 178.7511 Z " stroke-width="0.47614257300029306"/>
    <path id="ID0.5114514343440533" fill="#282828" stroke="none" d="M 44.2326 67.1777 L 97.2326 67.1777 L 97.2326 155.4277 L 44.2326 155.4277 L 44.2326 67.1777 Z " stroke-width="1.0073066040733152"/>
    <path id="ID0.9286923445761204" fill="#D4D4D4" stroke="none" stroke-linecap="round" d="M 60.3867 53.4723 L 77.6707 34.7361 L 70.5523 53.6152 L 71.8141 94.0873 L 33.8656 65.0426 L 54.0064 54.2341 L 60.3867 53.4723 Z " stroke-width="0.4761425852775574"/>
    <path id="ID0.9286923445761204" fill="#D4D4D4" stroke="none" stroke-linecap="round" d="M 76.7636 52.3653 L 62.9793 34.9861 L 70.0977 53.8652 L 71.3118 93.8611 L 106.7844 65.2926 L 87.0007 53.4842 L 76.7636 52.3653 Z " stroke-width="0.4761425852775574"/>
    <path id="ID0.39874776685610414" fill="#C3C3C3" stroke="none" stroke-linecap="round" d="M 52.0977 55.164 L 71.9674 65.0348 L 89.8354 56.0738 L 93.8386 58.2117 L 71.7721 68.8102 L 48.3386 57.12 L 52.0977 55.164 Z " stroke-width="0.943659350131214"/>
    <path id="ID0.13444371055811644" fill="#1F1F1F" stroke="none" stroke-linecap="round" d="M 69.55 66.85 L 74.8 66.6 L 77.6 95.1 L 65.55 95.6 L 69.55 66.85 Z " stroke-width="1"/>
    <path id="ID0.751046194229275" fill="#191919" stroke="none" stroke-linecap="round" d="M 67.265 61.935 L 71.94 59.9 L 76.45 61.935 L 76.89 69.91 L 72.49 70.9 L 67.265 69.91 L 67.265 61.935 Z " stroke-width="1.100000023841858"/>
    <path id="ID0.7854711129330099" fill="#282828" stroke="none" stroke-linecap="round" d="M 58.3 83.6 L 72.3 92.35 L 86.05 82.6 L 84.05 100.1 L 60.8 100.1 L 58.3 83.6 Z " stroke-width="1"/>
    <path id="ID0.562834897544235" fill="#282828" stroke="none" stroke-linecap="round" d="M 41.55 155.1 L 71.8 149.35 L 71.8 169.6 L 58.05 170.85 L 41.55 155.1 Z " stroke-width="1"/>
    <path id="ID0.562834897544235" fill="#282828" stroke="none" stroke-linecap="round" d="M 102.5 155.35 L 72.25 149.6 L 72.25 169.85 L 86 171.1 L 102.5 155.35 Z " stroke-width="1"/>
    <path id="ID0.6824178956449032" fill="none" stroke="#191919" stroke-width="2" stroke-linecap="round" d="M 72.05 92.6 L 71.8 169.35 "/>
    <path id="ID0.4144489667378366" fill="#313131" stroke="none" stroke-linecap="round" d="M 33.3 62.1 L 53.55 54.1 L 50.55 75.85 L 53.8 135.85 L 44.3 180.6 L 33.3 175.6 L 33.05 179.1 L 36.05 131.1 L 31.3 87.85 L 30.3 71.6 L 33.3 62.1 Z " stroke-width="1"/>
    <path id="ID0.5234400681219995" fill="#101010" stroke="none" d="M 74.2662 98.3125 C 74.6789 98.3125 75.0531 98.4801 75.324 98.751 C 75.5949 99.0219 75.7625 99.3961 75.7625 99.8087 C 75.7625 100.2214 75.5949 100.5956 75.324 100.8665 C 75.0531 101.1374 74.6789 101.305 74.2662 101.305 C 73.8536 101.305 73.4794 101.1374 73.2085 100.8665 C 72.9376 100.5956 72.77 100.2214 72.77 99.8087 C 72.77 99.3961 72.9376 99.0219 73.2085 98.751 C 73.4794 98.4801 73.8536 98.3125 74.2662 98.3125 Z " stroke-width="0.6299999952316284"/>
    <path id="ID0.5234400681219995" fill="#101010" stroke="none" d="M 74.2662 111.9125 C 74.6789 111.9125 75.0531 112.0801 75.324 112.351 C 75.5949 112.6219 75.7625 112.9961 75.7625 113.4087 C 75.7625 113.8214 75.5949 114.1956 75.324 114.4665 C 75.0531 114.7374 74.6789 114.905 74.2662 114.905 C 73.8536 114.905 73.4794 114.7374 73.2085 114.4665 C 72.9376 114.1956 72.77 113.8214 72.77 113.4087 C 72.77 112.9961 72.9376 112.6219 73.2085 112.351 C 73.4794 112.0801 73.8536 111.9125 74.2662 111.9125 Z " stroke-width="0.6299999952316284"/>
    <path id="ID0.5234400681219995" fill="#101010" stroke="none" d="M 74.2662 143.4125 C 74.6789 143.4125 75.0531 143.5801 75.324 143.851 C 75.5949 144.1219 75.7625 144.4961 75.7625 144.9087 C 75.7625 145.3214 75.5949 145.6956 75.324 145.9665 C 75.0531 146.2374 74.6789 146.405 74.2662 146.405 C 73.8536 146.405 73.4794 146.2374 73.2085 145.9665 C 72.9376 145.6956 72.77 145.3214 72.77 144.9087 C 72.77 144.4961 72.9376 144.1219 73.2085 143.851 C 73.4794 143.5801 73.8536 143.4125 74.2662 143.4125 Z " stroke-width="0.6299999952316284"/>
    <path id="ID0.5234400681219995" fill="#101010" stroke="none" d="M 74.2662 128.6625 C 74.6789 128.6625 75.0531 128.8301 75.324 129.101 C 75.5949 129.3719 75.7625 129.7461 75.7625 130.1587 C 75.7625 130.5714 75.5949 130.9456 75.324 131.2165 C 75.0531 131.4874 74.6789 131.655 74.2662 131.655 C 73.8536 131.655 73.4794 131.4874 73.2085 131.2165 C 72.9376 130.9456 72.77 130.5714 72.77 130.1587 C 72.77 129.7461 72.9376 129.3719 73.2085 129.101 C 73.4794 128.8301 73.8536 128.6625 74.2662 128.6625 Z " stroke-width="0.6299999952316284"/>
    <path id="ID0.5234400681219995" fill="#101010" stroke="none" d="M 74.1662 157.4125 C 74.5789 157.4125 74.9531 157.5801 75.224 157.851 C 75.4949 158.1219 75.6625 158.4961 75.6625 158.9087 C 75.6625 159.3214 75.4949 159.6956 75.224 159.9665 C 74.9531 160.2374 74.5789 160.405 74.1662 160.405 C 73.7536 160.405 73.3794 160.2374 73.1085 159.9665 C 72.8376 159.6956 72.67 159.3214 72.67 158.9087 C 72.67 158.4961 72.8376 158.1219 73.1085 157.851 C 73.3794 157.5801 73.7536 157.4125 74.1662 157.4125 Z " stroke-width="0.6299999952316284"/>
    <path id="ID0.4144489667378366" fill="#313131" stroke="none" stroke-linecap="round" d="M 106.85 61.25 L 86.6 53.25 L 89.6 75 L 86.35 135 L 95.85 179.75 L 106.85 174.75 L 107.1 178.25 L 104.1 130.25 L 108.85 87 L 109.85 70.75 L 106.85 61.25 Z " stroke-width="1"/>
    <path id="ID0.8752945330925286" fill="none" stroke="#222222" stroke-width="2" stroke-linecap="round" d="M 33.8 62.35 L 30.55 70.1 L 33.8 107.85 "/>
    <path id="ID0.8752945330925286" fill="none" stroke="#222222" stroke-width="2" stroke-linecap="round" d="M 107.05 61.85 L 110.3 69.6 L 107.05 107.35 "/>
    <path id="ID0.5234400681219995" fill="#101010" stroke="none" d="M 51.1662 144.0625 C 51.5789 144.0625 51.9531 144.2301 52.224 144.501 C 52.4949 144.7719 52.6625 145.1461 52.6625 145.5587 C 52.6625 145.9714 52.4949 146.3456 52.224 146.6165 C 51.9531 146.8874 51.5789 147.055 51.1662 147.055 C 50.7536 147.055 50.3794 146.8874 50.1085 146.6165 C 49.8376 146.3456 49.67 145.9714 49.67 145.5587 C 49.67 145.1461 49.8376 144.7719 50.1085 144.501 C 50.3794 144.2301 50.7536 144.0625 51.1662 144.0625 Z " stroke-width="0.6299999952316284"/>
    <path id="ID0.5234400681219995" fill="#101010" stroke="none" d="M 49.7662 151.3125 C 50.1789 151.3125 50.5531 151.4801 50.824 151.751 C 51.0949 152.0219 51.2625 152.3961 51.2625 152.8087 C 51.2625 153.2214 51.0949 153.5956 50.824 153.8665 C 50.5531 154.1374 50.1789 154.305 49.7662 154.305 C 49.3536 154.305 48.9794 154.1374 48.7085 153.8665 C 48.4376 153.5956 48.27 153.2214 48.27 152.8087 C 48.27 152.3961 48.4376 152.0219 48.7085 151.751 C 48.9794 151.4801 49.3536 151.3125 49.7662 151.3125 Z " stroke-width="0.6299999952316284"/>
    <g id="ID0.20783481979742646">
      <path id="ID0.5848579816520214" fill="#737373" stroke="none" stroke-linecap="round" d="M 96.25 89.7 L 103.1 88.2 L 103 92.1 L 95.75 92.6 L 96.25 89.7 Z " stroke-width="1"/>
      <path id="ID0.13105127029120922" fill="none" stroke="#222222" stroke-width="2" stroke-linecap="round" d="M 94.4 92.85 L 98.9 92.85 L 104.15 91.35 "/>
    </g>
  </g>
  <path id="ID0.46110434643924236" fill="#D8BFA7" stroke="none" stroke-linecap="round" d="M 58.7948 35.05 L 81.4095 35.05 L 81.877 54 L 75.6828 56.85 L 58.7948 55.15 L 58.7948 35.05 Z " stroke-width="1.0876357641452272"/>
  <path id="ID0.8999492498114705" fill="#EDD2B8" stroke="none" stroke-linecap="round" d="M 77.4733 3.2624 C 81.8775 3.7415 86.6093 6.4519 88.7416 10.3348 C 91.1745 14.7679 89.2984 20.3594 89.5265 25.362 C 89.6352 27.1021 89.8648 28.9198 89.4249 30.671 C 88.9184 33.827 87.7311 36.8366 86.7323 39.9681 C 86.0601 42.079 85.8691 44.4155 84.7001 46.3186 C 83.3843 48.5712 82.0416 51.7053 79.4419 52.161 C 75.588 52.8362 71.5115 50.9951 68.0619 49.2398 C 65.2281 47.7975 62.5746 45.5855 61.0002 42.8131 C 58.1806 37.6682 55.6196 32.0082 55.234 26.1241 C 54.8067 19.6014 54.0365 11.5353 58.7902 6.8187 C 63.0425 2.2773 70.9262 2.5532 77.4733 3.2624 Z " stroke-width="0.508037269115448"/>
  <path id="ID0.8194515448994935" fill="#EDD2B8" stroke="none" stroke-linecap="round" d="M 55.2 20.75 C 56.054 20.837 56.672 21.406 57.179 22.465 C 57.686 23.524 58 24.986 58 26.6 C 58 28.214 57.686 29.676 57.179 30.735 C 56.672 31.794 56.053 32.336 55.2 32.45 C 54.417 32.553 53.411 32.124 53.05 31.45 C 52.371 29.952 52.491 28.175 52.4 26.6 C 52.31 25.052 51.95 23.35 52.55 21.95 C 53.029 21.096 54.305 20.659 55.2 20.75 Z " stroke-width="1"/>
  <path id="ID0.5768358684144914" fill="#2E3234" stroke="none" d="M 54.25 17.6 L 60.25 17.6 L 60.25 19.4 L 54.25 19.4 L 54.25 17.6 Z " stroke-width="1"/>
  <path id="ID0.3245162623934448" fill="#54595E" stroke="none" stroke-linecap="round" d="M 75.75 4.3 C 79.006 4.3 81.956 6.928 84.092 11.173 C 86.228 15.418 86.985 22.139 87.55 27.75 C 88.127 33.479 90.029 39.717 87.7 44.95 C 85.905 48.982 80.959 52.053 76.45 52.3 C 72.192 52.537 67.053 50.067 65.05 46.2 C 62.22 40.735 63.536 33.951 63.95 27.75 C 64.326 22.124 65.272 15.418 67.408 11.173 C 69.544 6.928 72.494 4.3 75.75 4.3 Z " stroke-width="1"/>
  <path id="ID0.8999492498114705" fill="#54595E" stroke="none" stroke-linecap="round" d="M 79.3733 0.6124 C 83.624 1.8597 88.5093 3.8019 90.6416 7.6848 C 93.0745 12.1179 90.6029 17.7693 91.4265 22.712 C 91.7521 24.6644 94.2268 26.1723 94.1191 28.2496 C 93.9367 30.9224 91.8258 33.1217 90.639 35.6162 C 89.3476 38.324 88.2121 41.1848 86.6001 43.6686 C 85.1761 45.8643 83.6947 48.3664 81.3419 49.511 C 79.5303 50.3909 76.9164 50.6378 75.3471 49.4094 C 74.0994 48.433 75.2424 46.2164 74.8645 44.6593 C 74.5363 42.7379 73.2408 41.0049 73.2387 39.02 C 73.2352 33.4956 75.1002 28.0596 75.1185 22.5342 C 75.1383 16.4581 75.4731 10.2108 73.4928 4.5243 C 72.7353 2.3489 66.5194 1.7768 67.5995 1.1205 C 69.2735 -0.0551 75.6072 -0.4926 79.3733 0.6124 Z " stroke-width="0.508037269115448"/>
  <path id="ID0.8999492498114705" fill="#54595E" stroke="none" stroke-linecap="round" d="M 68.0918 1.0459 C 64.3095 2.1773 60.0953 4.1474 58.2105 7.6757 C 55.9147 11.9478 57.2249 17.3498 56.7118 22.1548 C 56.5223 23.9192 55.4585 25.7304 55.8481 27.413 C 56.4187 29.7413 58.5316 31.493 59.2012 33.7889 C 60.1233 36.9514 59.3683 40.5844 60.6999 43.5686 C 61.7668 45.9584 63.6053 48.2664 65.9581 49.411 C 67.7697 50.2909 70.3836 50.5378 71.9529 49.3094 C 73.2006 48.333 72.0576 46.1164 72.4355 44.5593 C 72.7637 42.6379 74.0592 40.9049 74.0613 38.92 C 74.0648 33.3956 72.1998 27.9596 72.1815 22.4342 C 72.1617 16.3581 72.2862 10.2495 73.8072 4.4243 C 74.2172 2.8585 78.9029 2.1534 77.9477 1.5539 C 76.0573 0.3783 71.2417 0.0272 68.0918 1.0459 Z " stroke-width="0.508037269115448"/>
  <path id="ID0.45774566335603595" fill="#54595E" stroke="none" stroke-linecap="round" d="M 76.175 36.2 C 78.279 36.2 79.819 37.464 81.565 38.266 C 83.157 38.998 86.162 39.136 86.15 40.95 C 86.162 43.782 83.677 46.226 81.565 48.234 C 80.172 49.558 78.279 50.3 76.175 50.3 C 74.071 50.3 72.268 49.457 70.785 48.234 C 68.733 46.543 66.105 44.552 66.15 41.95 C 66.105 39.958 69.029 39.241 70.785 38.266 C 72.465 37.332 74.071 36.2 76.175 36.2 Z " stroke-width="1"/>
  <path id="ID0.6934182443656027" fill="#54595E" stroke="none" stroke-linecap="round" d="M 61.95 30.6 L 75.2 34.7 L 89.3 30.2 L 86.3 36.95 L 85.8 41.45 L 65.95 42.1 L 64.8 35.95 L 61.95 30.6 Z " stroke-width="1"/>
  <path id="ID0.6236958587542176" fill="#3B4043" stroke="none" stroke-linecap="round" d="M 68.4 27.3 L 84.15 27.25 L 83.45 34.85 L 83.95 41.8 L 81.2 52.35 L 71.6 52.4 L 68.05 42.4 L 68.95 34.8 L 68.4 27.3 Z " stroke-width="1"/>
  <path id="ID0.6043254472315311" fill="#3B4043" stroke="none" stroke-linecap="round" d="M 61.1 4.65 L 65.85 1.8 L 70.6 7.4 L 77.1 8.5 L 75.85 27.8 L 73.2 30.65 L 67.85 30.3 L 64.3 28.2 L 62.7 24.3 L 64.2 17.8 L 61.1 4.65 Z " stroke-width="1"/>
  <path id="ID0.6043254472315311" fill="#3B4043" stroke="none" stroke-linecap="round" d="M 89.75 6.35 L 87.65 3.85 L 84.9 2.7 L 80.75 7.4 L 74.25 8.5 L 75.5 27.8 L 78.15 30.65 L 83.5 30.3 L 88 28.3 L 88.65 24.3 L 87.15 17.8 L 89.75 6.35 Z " stroke-width="1"/>
  <path id="ID0.9914007503539324" fill="#33383A" stroke="none" d="M 73.9 34.95 L 72.25 23.2 L 78.7 23.5 L 79 34.9 L 73.9 34.95 Z " stroke-width="1"/>
  <path id="ID0.28340246016159654" fill="#D8BFA7" stroke="none" stroke-linecap="round" d="M 61.9819 21.3412 L 68.8022 21.4345 L 73.2453 23.7057 L 74.1226 27.1279 L 72.7359 29.3368 L 69.2267 29.7101 L 66.4816 29.2123 L 64.3874 28.4345 L 62.2649 26.6923 L 61.3593 24.7012 L 61.9819 21.3412 Z " stroke-width="0.5947752382560764"/>
  <path id="ID0.28340246016159654" fill="#D8BFA7" stroke="none" stroke-linecap="round" d="M 90.5181 21.3412 L 83.6978 21.4345 L 79.2547 23.7057 L 78.3774 27.1279 L 79.7641 29.3368 L 83.2733 29.7101 L 86.0184 29.2123 L 88.1126 28.4345 L 90.2351 26.6923 L 91.1407 24.7012 L 90.5181 21.3412 Z " stroke-width="0.5947752382560764"/>
  <path id="ID0.17377300979569554" fill="#FFFFFF" stroke="none" stroke-linecap="round" d="M 65.9252 25.236 L 66.8322 24.4054 L 69.1194 24.2213 L 71.3718 24.8269 L 71.824 26.7776 L 69.1867 26.6457 L 65.9252 25.236 Z " stroke-width="0.9999999760882085"/>
  <path id="ID0.17377300979569554" fill="#FFFFFF" stroke="none" stroke-linecap="round" d="M 87.8248 25.236 L 86.9178 24.4054 L 84.6306 24.2213 L 82.3782 24.8269 L 81.926 26.7776 L 84.5633 26.6457 L 87.8248 25.236 Z " stroke-width="0.9999999760882085"/>
  <path id="ID0.44800941413268447" fill="none" stroke="#33383A" stroke-width="1.0503597259521484" stroke-linecap="round" d="M 74.9989 27.7698 L 73.3709 23.4633 L 68.9856 21.0212 L 62.4209 21.1525 "/>
  <path id="ID0.12448931112885475" fill="#33383A" stroke="none" stroke-linecap="round" d="M 74.1 33.3 L 78.9 33.4 L 79.85 36.55 L 76.75 38.05 L 73.25 36.5 L 74.1 33.3 Z " stroke-width="1"/>
  <path id="ID0.44800941413268447" fill="none" stroke="#33383A" stroke-width="1.050359732381415" stroke-linecap="round" d="M 73.9097 24.1096 L 74.7119 21.5418 L 73.2669 18.1773 "/>
  <path id="ID0.44800941413268447" fill="none" stroke="#33383A" stroke-width="1.050359732381415" stroke-linecap="round" d="M 78.3403 24.0096 L 77.5381 21.4418 L 78.9831 18.0773 "/>
  <g id="ID0.32985211815685034">
    <g id="ID0.08651347272098064">
      <g id="ID0.07771636918187141">
        <path id="ID0.7001032647676766" fill="none" stroke="#646B70" stroke-width="0.5238094925880432" stroke-linecap="round" d="M 67.8429 39.3429 C 67.8429 39.3429 67.7784 39.7108 67.7381 39.8929 C 67.7001 40.0641 67.5445 40.2396 67.6071 40.4036 C 67.6718 40.5733 67.8798 40.6618 68.0524 40.7179 C 68.2184 40.7715 68.4018 40.7158 68.5762 40.7179 C 68.7506 40.72 69.0157 40.8836 69.1 40.731 C 69.3022 40.3656 69.2571 39.4869 69.2571 39.4869 "/>
        <path id="ID0.7001032647676766" fill="none" stroke="#646B70" stroke-width="0.5238094925880432" stroke-linecap="round" d="M 69.3429 39.3429 C 69.3429 39.3429 69.2784 39.7108 69.2381 39.8929 C 69.2001 40.0641 69.0445 40.2396 69.1071 40.4036 C 69.1718 40.5733 69.3798 40.6618 69.5524 40.7179 C 69.7184 40.7715 69.9018 40.7158 70.0762 40.7179 C 70.2506 40.72 70.5157 40.8836 70.6 40.731 C 70.8022 40.3656 70.7571 39.4869 70.7571 39.4869 "/>
      </g>
      <g id="ID0.07771636918187141">
        <path id="ID0.7001032647676766" fill="none" stroke="#646B70" stroke-width="0.5238094925880432" stroke-linecap="round" d="M 70.9429 39.5429 C 70.9429 39.5429 70.8784 39.9108 70.8381 40.0929 C 70.8001 40.2641 70.6445 40.4396 70.7071 40.6036 C 70.7718 40.7733 70.9798 40.8618 71.1524 40.9179 C 71.3184 40.9715 71.5018 40.9158 71.6762 40.9179 C 71.8506 40.92 72.1157 41.0836 72.2 40.931 C 72.4022 40.5656 72.3571 39.6869 72.3571 39.6869 "/>
        <path id="ID0.7001032647676766" fill="none" stroke="#646B70" stroke-width="0.5238094925880432" stroke-linecap="round" d="M 72.4429 39.5929 C 72.4429 39.5929 72.3784 39.9608 72.3381 40.1429 C 72.3001 40.3141 72.1445 40.4896 72.2071 40.6536 C 72.2718 40.8233 72.4798 40.9118 72.6524 40.9679 C 72.8184 41.0215 73.0018 40.9658 73.1762 40.9679 C 73.3506 40.97 73.6157 41.1336 73.7 40.981 C 73.9022 40.6156 73.8571 39.7369 73.8571 39.7369 "/>
      </g>
      <path id="ID0.7001032647676766" fill="none" stroke="#646B70" stroke-width="0.5238095049857807" stroke-linecap="round" d="M 73.9908 39.7626 C 73.9908 39.7626 73.9653 40.1353 73.9442 40.3206 C 73.9244 40.4949 73.7881 40.6857 73.8675 40.8422 C 73.9496 41.0042 74.1657 41.0705 74.3432 41.1081 C 74.514 41.1441 74.6905 41.0694 74.8642 41.0532 C 75.0379 41.037 75.3186 41.172 75.3865 41.0113 C 75.5492 40.6268 75.4124 39.7577 75.4124 39.7577 "/>
    </g>
    <g id="ID0.08651347272098064">
      <g id="ID0.07771636918187141">
        <path id="ID0.7001032647676766" fill="none" stroke="#646B70" stroke-width="0.5238094925880432" stroke-linecap="round" d="M 83.0571 39.3429 C 83.0571 39.3429 83.1216 39.7108 83.1619 39.8929 C 83.1999 40.0641 83.3555 40.2396 83.2929 40.4036 C 83.2282 40.5733 83.0202 40.6618 82.8476 40.7179 C 82.6816 40.7715 82.4982 40.7158 82.3238 40.7179 C 82.1494 40.72 81.8843 40.8836 81.8 40.731 C 81.5978 40.3656 81.6429 39.4869 81.6429 39.4869 "/>
        <path id="ID0.7001032647676766" fill="none" stroke="#646B70" stroke-width="0.5238094925880432" stroke-linecap="round" d="M 81.5571 39.3429 C 81.5571 39.3429 81.6216 39.7108 81.6619 39.8929 C 81.6999 40.0641 81.8555 40.2396 81.7929 40.4036 C 81.7282 40.5733 81.5202 40.6618 81.3476 40.7179 C 81.1816 40.7715 80.9982 40.7158 80.8238 40.7179 C 80.6494 40.72 80.3843 40.8836 80.3 40.731 C 80.0978 40.3656 80.1429 39.4869 80.1429 39.4869 "/>
      </g>
      <g id="ID0.07771636918187141">
        <path id="ID0.7001032647676766" fill="none" stroke="#646B70" stroke-width="0.5238094925880432" stroke-linecap="round" d="M 79.8571 39.5429 C 79.8571 39.5429 79.9216 39.9108 79.9619 40.0929 C 79.9999 40.2641 80.1555 40.4396 80.0929 40.6036 C 80.0282 40.7733 79.8202 40.8618 79.6476 40.9179 C 79.4816 40.9715 79.2982 40.9158 79.1238 40.9179 C 78.9494 40.92 78.6843 41.0836 78.6 40.931 C 78.3978 40.5656 78.4429 39.6869 78.4429 39.6869 "/>
        <path id="ID0.7001032647676766" fill="none" stroke="#646B70" stroke-width="0.5238094925880432" stroke-linecap="round" d="M 78.3571 39.5929 C 78.3571 39.5929 78.4216 39.9608 78.4619 40.1429 C 78.4999 40.3141 78.6555 40.4896 78.5929 40.6536 C 78.5282 40.8233 78.3202 40.9118 78.1476 40.9679 C 77.9816 41.0215 77.7982 40.9658 77.6238 40.9679 C 77.4494 40.97 77.1843 41.1336 77.1 40.981 C 76.8978 40.6156 76.9429 39.7369 76.9429 39.7369 "/>
      </g>
      <path id="ID0.7001032647676766" fill="none" stroke="#646B70" stroke-width="0.5238095049857807" stroke-linecap="round" d="M 76.9092 39.7626 C 76.9092 39.7626 76.9347 40.1353 76.9558 40.3206 C 76.9756 40.4949 77.1119 40.6857 77.0325 40.8422 C 76.9504 41.0042 76.7343 41.0705 76.5568 41.1081 C 76.386 41.1441 76.2095 41.0694 76.0358 41.0532 C 75.8621 41.037 75.5814 41.172 75.5135 41.0113 C 75.3508 40.6268 75.4876 39.7577 75.4876 39.7577 "/>
    </g>
  </g>
  <path id="ID0.7001032647676766" fill="none" stroke="#646B70" stroke-width="0.523809552192688" stroke-linecap="round" d="M 68.0929 42.4071 C 68.0929 42.4071 68.0284 42.0392 67.9881 41.8571 C 67.9501 41.6859 67.7946 41.5104 67.8571 41.3464 C 67.9218 41.1767 68.1298 41.0882 68.3024 41.0321 C 68.4684 40.9785 68.6518 41.0342 68.8262 41.0321 C 69.0006 41.03 69.2657 40.8664 69.35 41.019 C 69.5522 41.3844 69.5071 42.2631 69.5071 42.2631 "/>
  <path id="ID0.7001032647676766" fill="none" stroke="#646B70" stroke-width="0.523809552192688" stroke-linecap="round" d="M 69.5929 42.4071 C 69.5929 42.4071 69.5284 42.0392 69.4881 41.8571 C 69.4501 41.6859 69.2946 41.5104 69.3571 41.3464 C 69.4218 41.1767 69.6298 41.0882 69.8024 41.0321 C 69.9684 40.9785 70.1518 41.0342 70.3262 41.0321 C 70.5006 41.03 70.7657 40.8664 70.85 41.019 C 71.0522 41.3844 71.0071 42.2631 71.0071 42.2631 "/>
  <g id="ID0.07771636918187141">
    <path id="ID0.7001032647676766" fill="none" stroke="#646B70" stroke-width="0.523809552192688" stroke-linecap="round" d="M 70.6929 42.5571 C 70.6929 42.5571 70.6284 42.1892 70.5881 42.0071 C 70.5501 41.8359 70.3946 41.6604 70.4571 41.4964 C 70.5218 41.3267 70.7298 41.2382 70.9024 41.1821 C 71.0684 41.1285 71.2518 41.1842 71.4262 41.1821 C 71.6006 41.18 71.8657 41.0164 71.95 41.169 C 72.1522 41.5344 72.1071 42.4131 72.1071 42.4131 "/>
    <path id="ID0.7001032647676766" fill="none" stroke="#646B70" stroke-width="0.523809552192688" stroke-linecap="round" d="M 72.1929 42.4071 C 72.1929 42.4071 72.1284 42.0392 72.0881 41.8571 C 72.0501 41.6859 71.8946 41.5104 71.9571 41.3464 C 72.0218 41.1767 72.2298 41.0882 72.4024 41.0321 C 72.5684 40.9785 72.7518 41.0342 72.9262 41.0321 C 73.1006 41.03 73.3657 40.8664 73.45 41.019 C 73.6522 41.3844 73.6071 42.2631 73.6071 42.2631 "/>
  </g>
  <path id="ID0.7001032647676766" fill="none" stroke="#646B70" stroke-width="0.5238095646525897" stroke-linecap="round" d="M 74.1408 42.5373 C 74.1408 42.5373 74.1153 42.1646 74.0942 41.9794 C 74.0744 41.8051 73.9381 41.6143 74.0175 41.4578 C 74.0996 41.2958 74.3157 41.2295 74.4932 41.1919 C 74.664 41.1559 74.8405 41.2306 75.0142 41.2468 C 75.1879 41.263 75.4686 41.128 75.5365 41.2887 C 75.6993 41.6732 75.5624 42.5423 75.5624 42.5423 "/>
  <path id="ID0.7001032647676766" fill="none" stroke="#646B70" stroke-width="0.523809552192688" stroke-linecap="round" d="M 83.8071 42.2071 C 83.8071 42.2071 83.8716 41.8392 83.9119 41.6571 C 83.9499 41.4859 84.1054 41.3104 84.0429 41.1464 C 83.9782 40.9767 83.7702 40.8882 83.5976 40.8321 C 83.4316 40.7785 83.2482 40.8342 83.0738 40.8321 C 82.8994 40.83 82.6343 40.6664 82.55 40.819 C 82.3478 41.1844 82.3929 42.0631 82.3929 42.0631 "/>
  <path id="ID0.7001032647676766" fill="none" stroke="#646B70" stroke-width="0.523809552192688" stroke-linecap="round" d="M 82.3071 42.2071 C 82.3071 42.2071 82.3716 41.8392 82.4119 41.6571 C 82.4499 41.4859 82.6054 41.3104 82.5429 41.1464 C 82.4782 40.9767 82.2702 40.8882 82.0976 40.8321 C 81.9316 40.7785 81.7482 40.8342 81.5738 40.8321 C 81.3994 40.83 81.1343 40.6664 81.05 40.819 C 80.8478 41.1844 80.8929 42.0631 80.8929 42.0631 "/>
  <path id="ID0.7001032647676766" fill="none" stroke="#646B70" stroke-width="0.523809552192688" stroke-linecap="round" d="M 80.5571 42.3071 C 80.5571 42.3071 80.6216 41.9392 80.6619 41.7571 C 80.6999 41.5859 80.8554 41.4104 80.7929 41.2464 C 80.7282 41.0767 80.5202 40.9882 80.3476 40.9321 C 80.1816 40.8785 79.9982 40.9342 79.8238 40.9321 C 79.6494 40.93 79.3843 40.7664 79.3 40.919 C 79.0978 41.2844 79.1429 42.1631 79.1429 42.1631 "/>
  <path id="ID0.7001032647676766" fill="none" stroke="#646B70" stroke-width="0.523809552192688" stroke-linecap="round" d="M 79.0571 42.4571 C 79.0571 42.4571 79.1216 42.0892 79.1619 41.9071 C 79.1999 41.7359 79.3554 41.5604 79.2929 41.3964 C 79.2282 41.2267 79.0202 41.1382 78.8476 41.0821 C 78.6816 41.0285 78.4982 41.0842 78.3238 41.0821 C 78.1494 41.08 77.8843 40.9164 77.8 41.069 C 77.5978 41.4344 77.6429 42.3131 77.6429 42.3131 "/>
  <path id="ID0.7001032647676766" fill="none" stroke="#646B70" stroke-width="0.5238095646525897" stroke-linecap="round" d="M 77.3592 42.5873 C 77.3592 42.5873 77.3847 42.2146 77.4058 42.0294 C 77.4256 41.8551 77.5619 41.6643 77.4825 41.5078 C 77.4004 41.3458 77.1843 41.2795 77.0068 41.2419 C 76.836 41.2059 76.6595 41.2806 76.4858 41.2968 C 76.3121 41.313 76.0314 41.178 75.9635 41.3387 C 75.8007 41.7232 75.9376 42.5923 75.9376 42.5923 "/>
  <path id="ID0.44800941413268447" fill="none" stroke="#2E3234" stroke-width="0.6130029273409839" stroke-linecap="round" d="M 78.952 33.7985 L 77.1444 32.497 L 73.8387 33.541 "/>
  <path id="ID0.44800941413268447" fill="none" stroke="#33383A" stroke-width="1.0503597259521484" stroke-linecap="round" d="M 77.4511 27.7698 L 79.0791 23.4633 L 83.4644 21.0212 L 90.0291 21.1525 "/>
  <g id="ID0.6897007944062352">
    <path id="ID0.2692581438459456" fill="#7AABFF" stroke="none" d="M 85.8257 24.3357 C 85.507 24.2448 85.182 24.2924 84.9137 24.4417 C 84.6453 24.591 84.4335 24.842 84.3427 25.1607 C 84.2518 25.4794 84.2994 25.8043 84.4486 26.0727 C 84.5979 26.3411 84.8489 26.5528 85.1676 26.6437 C 85.4864 26.7346 85.8113 26.687 86.0796 26.5377 C 86.348 26.3884 86.5598 26.1375 86.6507 25.8187 C 86.7415 25.5 86.694 25.1751 86.5447 24.9067 C 86.3954 24.6384 86.1444 24.4266 85.8257 24.3357 Z " stroke-width="1.1428571810382073"/>
    <path id="ID0.8070062398910522" fill="#192334" stroke="none" d="M 85.6326 25.003 C 85.5001 24.9652 85.3641 24.9842 85.2526 25.0471 C 85.1403 25.1087 85.0524 25.2142 85.0147 25.3467 C 84.9769 25.4792 84.9959 25.6152 85.0588 25.7267 C 85.1204 25.839 85.2259 25.9269 85.3584 25.9646 C 85.4909 26.0024 85.6269 25.9834 85.7384 25.9205 C 85.8507 25.8589 85.9385 25.7534 85.9763 25.6209 C 86.0141 25.4884 85.9951 25.3524 85.9322 25.2409 C 85.8706 25.1286 85.7651 25.0407 85.6326 25.003 Z " stroke-width="1.111111214644622"/>
  </g>
  <g id="ID0.5823970721103251">
    <path id="ID0.2692581438459456" fill="#7AABFF" stroke="none" d="M 69.5243 24.5357 C 69.843 24.4448 70.168 24.4924 70.4363 24.6417 C 70.7047 24.791 70.9165 25.042 71.0073 25.3607 C 71.0982 25.6794 71.0506 26.0043 70.9014 26.2727 C 70.7521 26.5411 70.5011 26.7528 70.1824 26.8437 C 69.8636 26.9346 69.5387 26.887 69.2704 26.7377 C 69.002 26.5884 68.7902 26.3375 68.6993 26.0187 C 68.6085 25.7 68.656 25.3751 68.8053 25.1067 C 68.9546 24.8384 69.2056 24.6266 69.5243 24.5357 Z " stroke-width="1.1428571810382073"/>
    <path id="ID0.8070062398910522" fill="#192334" stroke="none" d="M 69.8174 25.103 C 69.9499 25.0652 70.0859 25.0842 70.1974 25.1471 C 70.3097 25.2087 70.3976 25.3142 70.4353 25.4467 C 70.4731 25.5792 70.4541 25.7152 70.3912 25.8267 C 70.3296 25.939 70.2241 26.0269 70.0916 26.0646 C 69.9591 26.1024 69.8231 26.0834 69.7116 26.0205 C 69.5993 25.9589 69.5115 25.8534 69.4737 25.7209 C 69.4359 25.5884 69.4549 25.4524 69.5178 25.3409 C 69.5794 25.2286 69.6849 25.1407 69.8174 25.103 Z " stroke-width="1.111111214644622"/>
  </g>
  <path id="ID0.023752907756716013" fill="none" stroke="#584E44" stroke-width="1.1814345600728136" stroke-linecap="round" d="M 65.653 23.1863 L 68.9503 23.3651 L 71.3252 24.3565 "/>
  <path id="ID0.023752907756716013" fill="none" stroke="#584E44" stroke-width="1.1814345600728136" stroke-linecap="round" d="M 87.747 23.1863 L 84.4497 23.3651 L 82.0748 24.3565 "/>
</svg>