<svg xmlns="http://www.w3.org/2000/svg" xmlns:xlink="http://www.w3.org/1999/xlink" version="1.1" width="121.70989990234375" height="389.37530517578125" viewBox="2.29010009765625 -0.48760002851486206 121.70989990234375 389.37530517578125">
  <!-- Exported by Scratch - http://scratch.mit.edu/ -->
  <g id="ID0.01508300844579935">
    <g id="ID0.7085462282411754">
      <g id="ID0.5880346246995032">
        <path id="ID0.6829322893172503" fill="#1D1E1F" stroke="none" stroke-linecap="round" d="M 7.22 247.181 L 18.0584 243.066 L 20.7988 248.8564 L 24.3143 255.1289 L 23.784 260.8195 L 22.7387 265.4371 L 20.4223 268.2962 L 18.3746 274.8704 L 13.7192 274.2315 L 12.6892 272.0856 L 11.0822 271.7308 L 8.0767 268.7857 L 4.9058 265.4153 L 3.2901 260.7547 L 4.7659 253.7173 L 7.22 247.181 Z " stroke-width="0.8164595827124561"/>
        <g id="ID0.9434720128774643">
          <path id="ID0.6507829907350242" fill="#282828" stroke="none" stroke-linecap="round" d="M 7.6425 182.0798 L 25.5963 194.0028 L 22.683 210.7463 L 20.4113 223.2446 L 18.9152 239.3001 L 20.5843 246.4666 L 5.6797 247.5787 L 7.1414 240.2529 L 6.2214 230.3272 L 4.5314 217.6648 L 4.9533 204.3381 L 7.6425 182.0798 Z " stroke-width="0.8164595827124561"/>
          <path id="ID0.9892375003546476" fill="none" stroke="#191919" stroke-width="1.9999999547007297" stroke-linecap="round" d="M 6.2342 246.7581 L 19.9311 245.2726 L 18.2306 236.5773 "/>
        </g>
      </g>
      <path id="ID0.7729651997797191" fill="#282828" stroke="none" stroke-linecap="round" d="M 10.2224 151.2914 L 33.917 149.3329 L 32.4817 169.6411 L 29.0967 180.4457 L 28.1509 189.6882 L 26.0993 198.3148 L 9.153 196.0079 L 6.5014 189.3663 L 9.5597 165.1915 L 10.2224 151.2914 Z " stroke-width="0.9588636846711274"/>
      <path id="ID0.4757494777441025" fill="#282828" stroke="none" stroke-linecap="round" d="M 20.9453 135.3422 L 29.7608 133.1996 L 46.1673 138.08 L 37.7192 163.5536 L 27.0672 168.5531 L 22.4146 169.6245 L 19.1088 167.2438 L 16.1703 164.2679 L 10.2934 161.6491 L 10.1709 156.1734 L 10.9055 148.079 L 14.2113 139.7465 L 20.9453 135.3422 Z " stroke-width="0.48299249213559925"/>
    </g>
    <g id="ID0.7085462282411754">
      <g id="ID0.5880346246995032">
        <path id="ID0.6829322893172503" fill="#1D1E1F" stroke="none" stroke-linecap="round" d="M 113.53 246.431 L 102.6916 242.316 L 99.9512 248.1064 L 96.4357 254.3789 L 96.966 260.0695 L 98.0113 264.6871 L 100.3277 267.5462 L 102.3754 274.1204 L 107.0308 273.4815 L 108.0608 271.3356 L 109.6678 270.9808 L 112.6733 268.0357 L 115.8442 264.6653 L 117.4599 260.0047 L 115.9841 252.9673 L 113.53 246.431 Z " stroke-width="0.8164595827124561"/>
        <g id="ID0.9434720128774643">
          <path id="ID0.6507829907350242" fill="#282828" stroke="none" stroke-linecap="round" d="M 113.1575 181.3298 L 95.2037 193.2528 L 98.117 209.9963 L 100.3887 222.4946 L 101.8848 238.5501 L 100.2157 245.7166 L 115.1203 246.8287 L 113.6586 239.5029 L 114.5786 229.5772 L 116.2686 216.9148 L 115.8467 203.5881 L 113.1575 181.3298 Z " stroke-width="0.8164595827124561"/>
          <path id="ID0.9892375003546476" fill="none" stroke="#191919" stroke-width="1.9999999547007297" stroke-linecap="round" d="M 114.5658 246.0081 L 100.8689 244.5226 L 102.5694 235.8273 "/>
        </g>
      </g>
      <path id="ID0.7729651997797191" fill="#282828" stroke="none" stroke-linecap="round" d="M 110.5776 150.5414 L 86.883 148.5829 L 88.3183 168.8911 L 91.7033 179.6957 L 92.6491 188.9382 L 94.7007 197.5648 L 111.647 195.2579 L 114.2986 188.6163 L 111.2403 164.4415 L 110.5776 150.5414 Z " stroke-width="0.9588636846711274"/>
      <path id="ID0.4757494777441025" fill="#282828" stroke="none" stroke-linecap="round" d="M 99.7547 134.5922 L 90.9392 132.4496 L 74.5327 137.33 L 82.9808 162.8036 L 93.6328 167.8031 L 98.2854 168.8745 L 101.5912 166.4938 L 104.5297 163.5179 L 110.4066 160.8991 L 110.5291 155.4234 L 109.7945 147.329 L 106.4887 138.9965 L 99.7547 134.5922 Z " stroke-width="0.48299249213559925"/>
    </g>
    <g id="ID0.6660797297954559">
      <path id="ID0.5368814701214433" fill="#343434" stroke="none" stroke-linecap="round" d="M 67.2028 372.7277 L 70.0862 363.8977 L 74.5751 354.6508 L 84.5512 360.5088 L 95.8173 368.1439 L 113.2793 378.4862 L 114.3578 385.0018 L 89.6604 386.1807 L 68.4154 382.5144 L 67.2028 372.7277 Z " stroke-width="0.7702165290554439"/>
      <g id="ID0.5077062323689461">
        <path id="ID0.05466862628236413" fill="#252525" stroke="none" stroke-linecap="round" d="M 68.3016 300.4762 L 89.9943 297.0959 L 88.2584 311.7791 L 87.5161 316.7923 L 87.5096 331.2768 L 90.0103 364.528 L 68.7664 367.2982 L 67.4291 348.5496 L 65.1173 341.483 L 63.9475 333.7551 L 65.5457 322.6478 L 65.4469 312.5319 L 68.3016 300.4762 Z " stroke-width="0.5998532736063101"/>
        <path id="ID0.5319394422695041" fill="none" stroke="#131313" stroke-width="2" stroke-linecap="round" d="M 90.05 363.6 L 68.8 367.6 L 67.8 356.1 "/>
      </g>
      <g id="ID0.8820344842970371">
        <path id="ID0.3809091211296618" fill="#252525" stroke="none" stroke-linecap="round" d="M 57.0785 226.8033 L 88.7936 207.2871 L 90.0562 231.5149 L 94.0446 279.9911 L 93.562 290.7436 L 89.5609 302.0264 L 81.4676 299.8424 L 68.5144 301.1329 L 67.8531 279.371 L 66.1148 266.0681 L 57.0785 226.8033 Z " stroke-width="0.7305889665074583"/>
        <path id="ID0.9495224836282432" fill="none" stroke="#131313" stroke-width="2" stroke-linecap="round" d="M 94.05 280.1 L 94.05 288.6 L 92.05 296.6 L 83.55 301.1 L 82.55 306.1 "/>
      </g>
    </g>
    <g id="ID0.18228224432095885">
      <path id="ID0.5368814701214433" fill="#404040" stroke="none" stroke-linecap="round" d="M 28.8899 373.9519 L 31.9637 365.1863 L 36.6516 356.0387 L 46.4987 362.1112 L 57.5969 369.9883 L 74.831 380.7061 L 75.7682 387.2434 L 51.0511 387.8877 L 29.8904 383.7625 L 28.8899 373.9519 Z " stroke-width="0.7702165249851639"/>
      <g id="ID0.5077062323689461">
        <path id="ID0.05466862628236413" fill="#252525" stroke="none" stroke-linecap="round" d="M 32.8416 301.1183 L 54.6698 298.766 L 52.2424 313.351 L 51.2643 318.3235 L 50.5739 332.7916 L 51.5018 366.1237 L 30.1508 367.8878 L 29.7002 349.097 L 27.7247 341.9291 L 26.921 334.1545 L 29.0419 323.1351 L 29.4209 313.0258 L 32.8416 301.1183 Z " stroke-width="0.5998532668114317"/>
        <path id="ID0.5319394422695041" fill="none" stroke="#131313" stroke-width="1.9999999924153835" stroke-linecap="round" d="M 51.5982 365.1754 L 30.1831 368.1676 L 29.7272 356.6332 "/>
      </g>
      <g id="ID0.8820344842970371">
        <path id="ID0.3809091211296618" fill="#252525" stroke="none" stroke-linecap="round" d="M 30.3068 224.4403 L 57.8169 208.9934 L 57.9342 233.2537 L 59.6293 281.8642 L 58.6395 292.5819 L 54.1102 303.6632 L 46.129 301.0995 L 32.5827 303.115 L 30.6896 280.0026 L 29.7717 266.9458 L 30.3068 224.4403 Z " stroke-width="0.7305889820079058"/>
        <path id="ID0.9495224836282432" fill="none" stroke="#131313" stroke-width="1.9999999924153835" stroke-linecap="round" d="M 59.5363 281.9574 L 59.135 290.4479 L 56.7595 298.3446 L 48.0565 302.4382 L 46.8215 307.3854 "/>
      </g>
    </g>
    <g id="ID0.8990198895335197">
      <path id="ID0.17576928716152906" fill="#DBDBDB" stroke="none" d="M 62.55 129.6 L 62.3 129.6 L 62.3 129.6 L 62.55 129.6 L 62.55 129.6 Z " stroke-width="1"/>
      <path id="ID0.4270821204409003" fill="#252525" stroke="none" stroke-linecap="round" d="M 60.3901 251.6011 L 60.1361 138.8448 L 77.4913 141.3245 L 84.305 145.7522 L 87.0772 149.8578 L 93.8615 161.4286 L 92.93 171.8866 L 91.8642 177.3413 L 93.387 184.2785 L 93.7494 189.7629 L 91.4639 196.621 L 89.7366 201.8238 L 88.3537 211.0818 L 89.3985 233.0108 L 84.0868 241.1158 L 79.1736 247.2287 L 60.3901 251.6011 Z " stroke-width="0.47614257300029306"/>
      <path id="ID0.4270821204409003" fill="#252525" stroke="none" stroke-linecap="round" d="M 60.5099 251.7511 L 60.7639 138.9948 L 43.4087 141.4745 L 36.595 145.9022 L 33.8228 150.0078 L 27.0385 161.5786 L 27.97 172.0366 L 29.0358 177.4913 L 27.513 184.4285 L 27.1506 189.9129 L 29.4361 196.771 L 31.1634 201.9738 L 32.5463 211.2318 L 31.5015 233.1608 L 36.8132 241.2658 L 41.7264 247.3787 L 60.5099 251.7511 Z " stroke-width="0.47614257300029306"/>
      <path id="ID0.5114514343440533" fill="#282828" stroke="none" d="M 34.2326 140.1777 L 87.2326 140.1777 L 87.2326 228.4277 L 34.2326 228.4277 L 34.2326 140.1777 Z " stroke-width="1.0073066040733152"/>
      <path id="ID0.9286923445761204" fill="#D4D4D4" stroke="none" stroke-linecap="round" d="M 50.3867 126.4723 L 67.6707 107.7361 L 60.5523 126.6152 L 61.8141 167.0873 L 23.8656 138.0426 L 44.0064 127.2341 L 50.3867 126.4723 Z " stroke-width="0.4761425852775574"/>
      <path id="ID0.9286923445761204" fill="#D4D4D4" stroke="none" stroke-linecap="round" d="M 66.7636 125.3653 L 52.9793 107.9861 L 60.0977 126.8652 L 61.3118 166.8611 L 96.7844 138.2926 L 77.0007 126.4842 L 66.7636 125.3653 Z " stroke-width="0.4761425852775574"/>
      <path id="ID0.39874776685610414" fill="#C3C3C3" stroke="none" stroke-linecap="round" d="M 42.0977 128.164 L 61.9674 138.0348 L 79.8354 129.0738 L 83.8386 131.2117 L 61.7721 141.8102 L 38.3386 130.12 L 42.0977 128.164 Z " stroke-width="0.943659350131214"/>
      <path id="ID0.13444371055811644" fill="#1F1F1F" stroke="none" stroke-linecap="round" d="M 59.55 139.85 L 64.8 139.6 L 67.6 168.1 L 55.55 168.6 L 59.55 139.85 Z " stroke-width="1"/>
      <path id="ID0.751046194229275" fill="#191919" stroke="none" stroke-linecap="round" d="M 57.265 134.935 L 61.94 132.9 L 66.45 134.935 L 66.89 142.91 L 62.49 143.9 L 57.265 142.91 L 57.265 134.935 Z " stroke-width="1.100000023841858"/>
      <path id="ID0.7854711129330099" fill="#282828" stroke="none" stroke-linecap="round" d="M 48.3 156.6 L 62.3 165.35 L 76.05 155.6 L 74.05 173.1 L 50.8 173.1 L 48.3 156.6 Z " stroke-width="1"/>
      <path id="ID0.562834897544235" fill="#282828" stroke="none" stroke-linecap="round" d="M 31.55 228.1 L 61.8 222.35 L 61.8 242.6 L 48.05 243.85 L 31.55 228.1 Z " stroke-width="1"/>
      <path id="ID0.562834897544235" fill="#282828" stroke="none" stroke-linecap="round" d="M 92.5 228.35 L 62.25 222.6 L 62.25 242.85 L 76 244.1 L 92.5 228.35 Z " stroke-width="1"/>
      <path id="ID0.6824178956449032" fill="none" stroke="#191919" stroke-width="2" stroke-linecap="round" d="M 62.05 165.6 L 61.8 242.35 "/>
      <path id="ID0.4144489667378366" fill="#313131" stroke="none" stroke-linecap="round" d="M 23.3 135.1 L 43.55 127.1 L 40.55 148.85 L 43.8 208.85 L 34.3 253.6 L 23.3 248.6 L 23.05 252.1 L 26.05 204.1 L 21.3 160.85 L 20.3 144.6 L 23.3 135.1 Z " stroke-width="1"/>
      <path id="ID0.5234400681219995" fill="#101010" stroke="none" d="M 64.2662 171.3125 C 64.6789 171.3125 65.0531 171.4801 65.324 171.751 C 65.5949 172.0219 65.7625 172.3961 65.7625 172.8087 C 65.7625 173.2214 65.5949 173.5956 65.324 173.8665 C 65.0531 174.1374 64.6789 174.305 64.2662 174.305 C 63.8536 174.305 63.4794 174.1374 63.2085 173.8665 C 62.9376 173.5956 62.77 173.2214 62.77 172.8087 C 62.77 172.3961 62.9376 172.0219 63.2085 171.751 C 63.4794 171.4801 63.8536 171.3125 64.2662 171.3125 Z " stroke-width="0.6299999952316284"/>
      <path id="ID0.5234400681219995" fill="#101010" stroke="none" d="M 64.2662 184.9125 C 64.6789 184.9125 65.0531 185.0801 65.324 185.351 C 65.5949 185.6219 65.7625 185.9961 65.7625 186.4087 C 65.7625 186.8214 65.5949 187.1956 65.324 187.4665 C 65.0531 187.7374 64.6789 187.905 64.2662 187.905 C 63.8536 187.905 63.4794 187.7374 63.2085 187.4665 C 62.9376 187.1956 62.77 186.8214 62.77 186.4087 C 62.77 185.9961 62.9376 185.6219 63.2085 185.351 C 63.4794 185.0801 63.8536 184.9125 64.2662 184.9125 Z " stroke-width="0.6299999952316284"/>
      <path id="ID0.5234400681219995" fill="#101010" stroke="none" d="M 64.2662 216.4125 C 64.6789 216.4125 65.0531 216.5801 65.324 216.851 C 65.5949 217.1219 65.7625 217.4961 65.7625 217.9087 C 65.7625 218.3214 65.5949 218.6956 65.324 218.9665 C 65.0531 219.2374 64.6789 219.405 64.2662 219.405 C 63.8536 219.405 63.4794 219.2374 63.2085 218.9665 C 62.9376 218.6956 62.77 218.3214 62.77 217.9087 C 62.77 217.4961 62.9376 217.1219 63.2085 216.851 C 63.4794 216.5801 63.8536 216.4125 64.2662 216.4125 Z " stroke-width="0.6299999952316284"/>
      <path id="ID0.5234400681219995" fill="#101010" stroke="none" d="M 64.2662 201.6625 C 64.6789 201.6625 65.0531 201.8301 65.324 202.101 C 65.5949 202.3719 65.7625 202.7461 65.7625 203.1587 C 65.7625 203.5714 65.5949 203.9456 65.324 204.2165 C 65.0531 204.4874 64.6789 204.655 64.2662 204.655 C 63.8536 204.655 63.4794 204.4874 63.2085 204.2165 C 62.9376 203.9456 62.77 203.5714 62.77 203.1587 C 62.77 202.7461 62.9376 202.3719 63.2085 202.101 C 63.4794 201.8301 63.8536 201.6625 64.2662 201.6625 Z " stroke-width="0.6299999952316284"/>
      <path id="ID0.5234400681219995" fill="#101010" stroke="none" d="M 64.1662 230.4125 C 64.5789 230.4125 64.9531 230.5801 65.224 230.851 C 65.4949 231.1219 65.6625 231.4961 65.6625 231.9087 C 65.6625 232.3214 65.4949 232.6956 65.224 232.9665 C 64.9531 233.2374 64.5789 233.405 64.1662 233.405 C 63.7536 233.405 63.3794 233.2374 63.1085 232.9665 C 62.8376 232.6956 62.67 232.3214 62.67 231.9087 C 62.67 231.4961 62.8376 231.1219 63.1085 230.851 C 63.3794 230.5801 63.7536 230.4125 64.1662 230.4125 Z " stroke-width="0.6299999952316284"/>
      <path id="ID0.4144489667378366" fill="#313131" stroke="none" stroke-linecap="round" d="M 96.85 134.25 L 76.6 126.25 L 79.6 148 L 76.35 208 L 85.85 252.75 L 96.85 247.75 L 97.1 251.25 L 94.1 203.25 L 98.85 160 L 99.85 143.75 L 96.85 134.25 Z " stroke-width="1"/>
      <path id="ID0.8752945330925286" fill="none" stroke="#222222" stroke-width="2" stroke-linecap="round" d="M 23.8 135.35 L 20.55 143.1 L 23.8 180.85 "/>
      <path id="ID0.8752945330925286" fill="none" stroke="#222222" stroke-width="2" stroke-linecap="round" d="M 97.05 134.85 L 100.3 142.6 L 97.05 180.35 "/>
      <path id="ID0.5234400681219995" fill="#101010" stroke="none" d="M 41.1662 217.0625 C 41.5789 217.0625 41.9531 217.2301 42.224 217.501 C 42.4949 217.7719 42.6625 218.1461 42.6625 218.5587 C 42.6625 218.9714 42.4949 219.3456 42.224 219.6165 C 41.9531 219.8874 41.5789 220.055 41.1662 220.055 C 40.7536 220.055 40.3794 219.8874 40.1085 219.6165 C 39.8376 219.3456 39.67 218.9714 39.67 218.5587 C 39.67 218.1461 39.8376 217.7719 40.1085 217.501 C 40.3794 217.2301 40.7536 217.0625 41.1662 217.0625 Z " stroke-width="0.6299999952316284"/>
      <path id="ID0.5234400681219995" fill="#101010" stroke="none" d="M 39.7662 224.3125 C 40.1789 224.3125 40.5531 224.4801 40.824 224.751 C 41.0949 225.0219 41.2625 225.3961 41.2625 225.8087 C 41.2625 226.2214 41.0949 226.5956 40.824 226.8665 C 40.5531 227.1374 40.1789 227.305 39.7662 227.305 C 39.3536 227.305 38.9794 227.1374 38.7085 226.8665 C 38.4376 226.5956 38.27 226.2214 38.27 225.8087 C 38.27 225.3961 38.4376 225.0219 38.7085 224.751 C 38.9794 224.4801 39.3536 224.3125 39.7662 224.3125 Z " stroke-width="0.6299999952316284"/>
      <g id="ID0.20783481979742646">
        <path id="ID0.5848579816520214" fill="#737373" stroke="none" stroke-linecap="round" d="M 86.25 162.7 L 93.1 161.2 L 93 165.1 L 85.75 165.6 L 86.25 162.7 Z " stroke-width="1"/>
        <path id="ID0.13105127029120922" fill="none" stroke="#222222" stroke-width="2" stroke-linecap="round" d="M 84.4 165.85 L 88.9 165.85 L 94.15 164.35 "/>
      </g>
    </g>
    <path id="ID0.46110434643924236" fill="#D8BFA7" stroke="none" stroke-linecap="round" d="M 48.7448 108.05 L 71.3595 108.05 L 71.827 127 L 65.6328 129.85 L 48.7448 128.15 L 48.7448 108.05 Z " stroke-width="1.0876357641452272"/>
    <path id="ID0.8999492498114705" fill="#EDD2B8" stroke="none" stroke-linecap="round" d="M 67.4733 76.2624 C 71.8775 76.7415 76.6093 79.4519 78.7416 83.3348 C 81.1745 87.7679 79.2984 93.3594 79.5265 98.362 C 79.6352 100.1021 79.8648 101.9198 79.4249 103.671 C 78.9184 106.827 77.7311 109.8366 76.7323 112.9681 C 76.0601 115.079 75.8691 117.4155 74.7001 119.3186 C 73.3843 121.5712 72.0416 124.7053 69.4419 125.161 C 65.588 125.8362 61.5115 123.9951 58.0619 122.2398 C 55.2281 120.7975 52.5746 118.5855 51.0002 115.8131 C 48.1806 110.6682 45.6196 105.0082 45.234 99.1241 C 44.8067 92.6014 44.0365 84.5353 48.7902 79.8187 C 53.0425 75.2773 60.9262 75.5532 67.4733 76.2624 Z " stroke-width="0.508037269115448"/>
    <path id="ID0.8194515448994935" fill="#EDD2B8" stroke="none" stroke-linecap="round" d="M 45.2 93.75 C 46.054 93.837 46.672 94.406 47.179 95.465 C 47.686 96.524 48 97.986 48 99.6 C 48 101.214 47.686 102.676 47.179 103.735 C 46.672 104.794 46.053 105.336 45.2 105.45 C 44.417 105.553 43.411 105.124 43.05 104.45 C 42.371 102.952 42.491 101.175 42.4 99.6 C 42.31 98.052 41.95 96.35 42.55 94.95 C 43.029 94.096 44.305 93.659 45.2 93.75 Z " stroke-width="1"/>
    <path id="ID0.5768358684144914" fill="#2E3234" stroke="none" d="M 44.25 90.6 L 50.25 90.6 L 50.25 92.4 L 44.25 92.4 L 44.25 90.6 Z " stroke-width="1"/>
    <path id="ID0.3245162623934448" fill="#54595E" stroke="none" stroke-linecap="round" d="M 65.7 77.35 C 68.956 77.35 71.906 79.978 74.042 84.223 C 76.178 88.468 76.935 95.189 77.5 100.8 C 78.077 106.529 79.979 112.767 77.65 118 C 75.855 122.032 70.909 125.103 66.4 125.35 C 62.142 125.587 57.003 123.117 55 119.25 C 52.17 113.785 53.486 107.001 53.9 100.8 C 54.276 95.174 55.222 88.468 57.358 84.223 C 59.494 79.978 62.444 77.35 65.7 77.35 Z " stroke-width="1"/>
    <path id="ID0.8999492498114705" fill="#54595E" stroke="none" stroke-linecap="round" d="M 69.3733 73.6124 C 73.624 74.8597 78.5093 76.8019 80.6416 80.6848 C 83.0745 85.1179 80.6029 90.7693 81.4265 95.712 C 81.7521 97.6644 84.2268 99.1723 84.1191 101.2496 C 83.9367 103.9224 81.8258 106.1217 80.639 108.6162 C 79.3476 111.324 78.2121 114.1848 76.6001 116.6686 C 75.1761 118.8643 73.6947 121.3664 71.3419 122.511 C 69.5303 123.3909 66.9164 123.6378 65.3471 122.4094 C 64.0994 121.433 65.2424 119.2164 64.8645 117.6593 C 64.5363 115.7379 63.2408 114.0049 63.2387 112.02 C 63.2352 106.4956 65.1002 101.0596 65.1185 95.5342 C 65.1383 89.4581 65.4731 83.2108 63.4928 77.5243 C 62.7353 75.3489 56.5194 74.7768 57.5995 74.1205 C 59.2735 72.9449 65.6072 72.5074 69.3733 73.6124 Z " stroke-width="0.508037269115448"/>
    <path id="ID0.8999492498114705" fill="#54595E" stroke="none" stroke-linecap="round" d="M 58.1418 73.9959 C 54.3595 75.1273 50.1453 77.0974 48.2605 80.6257 C 45.9647 84.8978 47.2749 90.2998 46.7618 95.1048 C 46.5723 96.8692 45.5085 98.6804 45.8981 100.363 C 46.4687 102.6913 48.5816 104.443 49.2512 106.7389 C 50.1733 109.9014 49.4183 113.5344 50.7499 116.5186 C 51.8168 118.9084 53.6553 121.2164 56.0081 122.361 C 57.8197 123.2409 60.4336 123.4878 62.0029 122.2594 C 63.2506 121.283 62.1076 119.0664 62.4855 117.5093 C 62.8137 115.5879 64.1092 113.8549 64.1113 111.87 C 64.1148 106.3456 62.2498 100.9096 62.2315 95.3842 C 62.2117 89.3081 62.3362 83.1995 63.8572 77.3743 C 64.2672 75.8085 68.9529 75.1034 67.9977 74.5039 C 66.1073 73.3283 61.2917 72.9772 58.1418 73.9959 Z " stroke-width="0.508037269115448"/>
    <path id="ID0.45774566335603595" fill="#54595E" stroke="none" stroke-linecap="round" d="M 66.125 109.25 C 68.229 109.25 69.769 110.514 71.515 111.316 C 73.107 112.048 76.112 112.186 76.1 114 C 76.112 116.832 73.627 119.276 71.515 121.284 C 70.122 122.608 68.229 123.35 66.125 123.35 C 64.021 123.35 62.218 122.507 60.735 121.284 C 58.683 119.593 56.055 117.602 56.1 115 C 56.055 113.008 58.979 112.291 60.735 111.316 C 62.415 110.382 64.021 109.25 66.125 109.25 Z " stroke-width="1"/>
    <path id="ID0.6934182443656027" fill="#54595E" stroke="none" stroke-linecap="round" d="M 51.9 103.65 L 65.15 107.75 L 79.25 103.25 L 76.25 110 L 75.75 114.5 L 55.9 115.15 L 54.75 109 L 51.9 103.65 Z " stroke-width="1"/>
    <path id="ID0.6236958587542176" fill="#3B4043" stroke="none" stroke-linecap="round" d="M 58.35 100.35 L 74.1 100.3 L 73.4 107.9 L 73.9 114.85 L 71.15 125.4 L 61.55 125.45 L 58 115.45 L 58.9 107.85 L 58.35 100.35 Z " stroke-width="1"/>
    <path id="ID0.6043254472315311" fill="#3B4043" stroke="none" stroke-linecap="round" d="M 51.05 77.7 L 55.8 74.85 L 60.55 80.45 L 67.05 81.55 L 65.8 100.85 L 63.15 103.7 L 57.8 103.35 L 54.25 101.25 L 52.65 97.35 L 54.15 90.85 L 51.05 77.7 Z " stroke-width="1"/>
    <path id="ID0.6043254472315311" fill="#3B4043" stroke="none" stroke-linecap="round" d="M 79.75 79.4 L 77.65 76.9 L 74.9 75.75 L 70.75 80.45 L 64.25 81.55 L 65.5 100.85 L 68.15 103.7 L 73.5 103.35 L 78 101.35 L 78.65 97.35 L 77.15 90.85 L 79.75 79.4 Z " stroke-width="1"/>
    <path id="ID0.9914007503539324" fill="#33383A" stroke="none" d="M 63.85 107.95 L 62.2 96.2 L 68.65 96.5 L 68.95 107.9 L 63.85 107.95 Z " stroke-width="1"/>
    <path id="ID0.28340246016159654" fill="#D8BFA7" stroke="none" stroke-linecap="round" d="M 51.9819 94.3412 L 58.8022 94.4345 L 63.2453 96.7057 L 64.1226 100.1279 L 62.7359 102.3368 L 59.2267 102.7101 L 56.4816 102.2123 L 54.3874 101.4345 L 52.2649 99.6923 L 51.3593 97.7012 L 51.9819 94.3412 Z " stroke-width="0.5947752382560764"/>
    <path id="ID0.28340246016159654" fill="#D8BFA7" stroke="none" stroke-linecap="round" d="M 80.5181 94.3412 L 73.6978 94.4345 L 69.2547 96.7057 L 68.3774 100.1279 L 69.7641 102.3368 L 73.2733 102.7101 L 76.0184 102.2123 L 78.1126 101.4345 L 80.2351 99.6923 L 81.1407 97.7012 L 80.5181 94.3412 Z " stroke-width="0.5947752382560764"/>
    <path id="ID0.17377300979569554" fill="#FFFFFF" stroke="none" stroke-linecap="round" d="M 55.8752 98.236 L 56.7822 97.4054 L 59.0694 97.2213 L 61.3218 97.8269 L 61.774 99.7776 L 59.1367 99.6457 L 55.8752 98.236 Z " stroke-width="0.9999999760882085"/>
    <path id="ID0.17377300979569554" fill="#FFFFFF" stroke="none" stroke-linecap="round" d="M 77.8248 98.236 L 76.9178 97.4054 L 74.6306 97.2213 L 72.3782 97.8269 L 71.926 99.7776 L 74.5633 99.6457 L 77.8248 98.236 Z " stroke-width="0.9999999760882085"/>
    <path id="ID0.44800941413268447" fill="none" stroke="#33383A" stroke-width="1.0503597259521484" stroke-linecap="round" d="M 64.9989 100.7698 L 63.3709 96.4633 L 58.9856 94.0212 L 52.4209 94.1525 "/>
    <path id="ID0.12448931112885475" fill="#33383A" stroke="none" stroke-linecap="round" d="M 64.05 106.3 L 68.85 106.4 L 69.8 109.55 L 66.7 111.05 L 63.2 109.5 L 64.05 106.3 Z " stroke-width="1"/>
    <path id="ID0.44800941413268447" fill="none" stroke="#33383A" stroke-width="1.050359732381415" stroke-linecap="round" d="M 63.9597 97.1096 L 64.7619 94.5418 L 63.3169 91.1773 "/>
    <path id="ID0.44800941413268447" fill="none" stroke="#33383A" stroke-width="1.050359732381415" stroke-linecap="round" d="M 68.3903 97.0096 L 67.5881 94.4418 L 69.0331 91.0773 "/>
    <g id="ID0.32985211815685034">
      <g id="ID0.08651347272098064">
        <g id="ID0.07771636918187141">
          <path id="ID0.7001032647676766" fill="none" stroke="#646B70" stroke-width="0.5238094925880432" stroke-linecap="round" d="M 57.8429 112.3429 C 57.8429 112.3429 57.7784 112.7108 57.7381 112.8929 C 57.7001 113.0641 57.5445 113.2396 57.6071 113.4036 C 57.6718 113.5733 57.8798 113.6618 58.0524 113.7179 C 58.2184 113.7715 58.4018 113.7158 58.5762 113.7179 C 58.7506 113.72 59.0157 113.8836 59.1 113.731 C 59.3022 113.3656 59.2571 112.4869 59.2571 112.4869 "/>
          <path id="ID0.7001032647676766" fill="none" stroke="#646B70" stroke-width="0.5238094925880432" stroke-linecap="round" d="M 59.3429 112.3429 C 59.3429 112.3429 59.2784 112.7108 59.2381 112.8929 C 59.2001 113.0641 59.0445 113.2396 59.1071 113.4036 C 59.1718 113.5733 59.3798 113.6618 59.5524 113.7179 C 59.7184 113.7715 59.9018 113.7158 60.0762 113.7179 C 60.2506 113.72 60.5157 113.8836 60.6 113.731 C 60.8022 113.3656 60.7571 112.4869 60.7571 112.4869 "/>
        </g>
        <g id="ID0.07771636918187141">
          <path id="ID0.7001032647676766" fill="none" stroke="#646B70" stroke-width="0.5238094925880432" stroke-linecap="round" d="M 60.9429 112.5429 C 60.9429 112.5429 60.8784 112.9108 60.8381 113.0929 C 60.8001 113.2641 60.6445 113.4396 60.7071 113.6036 C 60.7718 113.7733 60.9798 113.8618 61.1524 113.9179 C 61.3184 113.9715 61.5018 113.9158 61.6762 113.9179 C 61.8506 113.92 62.1157 114.0836 62.2 113.931 C 62.4022 113.5656 62.3571 112.6869 62.3571 112.6869 "/>
          <path id="ID0.7001032647676766" fill="none" stroke="#646B70" stroke-width="0.5238094925880432" stroke-linecap="round" d="M 62.4429 112.5929 C 62.4429 112.5929 62.3784 112.9608 62.3381 113.1429 C 62.3001 113.3141 62.1445 113.4896 62.2071 113.6536 C 62.2718 113.8233 62.4798 113.9118 62.6524 113.9679 C 62.8184 114.0215 63.0018 113.9658 63.1762 113.9679 C 63.3506 113.97 63.6157 114.1336 63.7 113.981 C 63.9022 113.6156 63.8571 112.7369 63.8571 112.7369 "/>
        </g>
        <path id="ID0.7001032647676766" fill="none" stroke="#646B70" stroke-width="0.5238095049857807" stroke-linecap="round" d="M 63.9908 112.7626 C 63.9908 112.7626 63.9653 113.1353 63.9442 113.3206 C 63.9244 113.4949 63.7881 113.6857 63.8675 113.8422 C 63.9496 114.0042 64.1657 114.0705 64.3432 114.1081 C 64.514 114.1441 64.6905 114.0694 64.8642 114.0532 C 65.0379 114.037 65.3186 114.172 65.3865 114.0113 C 65.5492 113.6268 65.4124 112.7577 65.4124 112.7577 "/>
      </g>
      <g id="ID0.08651347272098064">
        <g id="ID0.07771636918187141">
          <path id="ID0.7001032647676766" fill="none" stroke="#646B70" stroke-width="0.5238094925880432" stroke-linecap="round" d="M 73.0571 112.3429 C 73.0571 112.3429 73.1216 112.7108 73.1619 112.8929 C 73.1999 113.0641 73.3555 113.2396 73.2929 113.4036 C 73.2282 113.5733 73.0202 113.6618 72.8476 113.7179 C 72.6816 113.7715 72.4982 113.7158 72.3238 113.7179 C 72.1494 113.72 71.8843 113.8836 71.8 113.731 C 71.5978 113.3656 71.6429 112.4869 71.6429 112.4869 "/>
          <path id="ID0.7001032647676766" fill="none" stroke="#646B70" stroke-width="0.5238094925880432" stroke-linecap="round" d="M 71.5571 112.3429 C 71.5571 112.3429 71.6216 112.7108 71.6619 112.8929 C 71.6999 113.0641 71.8555 113.2396 71.7929 113.4036 C 71.7282 113.5733 71.5202 113.6618 71.3476 113.7179 C 71.1816 113.7715 70.9982 113.7158 70.8238 113.7179 C 70.6494 113.72 70.3843 113.8836 70.3 113.731 C 70.0978 113.3656 70.1429 112.4869 70.1429 112.4869 "/>
        </g>
        <g id="ID0.07771636918187141">
          <path id="ID0.7001032647676766" fill="none" stroke="#646B70" stroke-width="0.5238094925880432" stroke-linecap="round" d="M 69.8571 112.5429 C 69.8571 112.5429 69.9216 112.9108 69.9619 113.0929 C 69.9999 113.2641 70.1555 113.4396 70.0929 113.6036 C 70.0282 113.7733 69.8202 113.8618 69.6476 113.9179 C 69.4816 113.9715 69.2982 113.9158 69.1238 113.9179 C 68.9494 113.92 68.6843 114.0836 68.6 113.931 C 68.3978 113.5656 68.4429 112.6869 68.4429 112.6869 "/>
          <path id="ID0.7001032647676766" fill="none" stroke="#646B70" stroke-width="0.5238094925880432" stroke-linecap="round" d="M 68.3571 112.5929 C 68.3571 112.5929 68.4216 112.9608 68.4619 113.1429 C 68.4999 113.3141 68.6555 113.4896 68.5929 113.6536 C 68.5282 113.8233 68.3202 113.9118 68.1476 113.9679 C 67.9816 114.0215 67.7982 113.9658 67.6238 113.9679 C 67.4494 113.97 67.1843 114.1336 67.1 113.981 C 66.8978 113.6156 66.9429 112.7369 66.9429 112.7369 "/>
        </g>
        <path id="ID0.7001032647676766" fill="none" stroke="#646B70" stroke-width="0.5238095049857807" stroke-linecap="round" d="M 66.9092 112.7626 C 66.9092 112.7626 66.9347 113.1353 66.9558 113.3206 C 66.9756 113.4949 67.1119 113.6857 67.0325 113.8422 C 66.9504 114.0042 66.7343 114.0705 66.5568 114.1081 C 66.386 114.1441 66.2095 114.0694 66.0358 114.0532 C 65.8621 114.037 65.5814 114.172 65.5135 114.0113 C 65.3508 113.6268 65.4876 112.7577 65.4876 112.7577 "/>
      </g>
    </g>
    <path id="ID0.7001032647676766" fill="none" stroke="#646B70" stroke-width="0.523809552192688" stroke-linecap="round" d="M 58.0929 115.4071 C 58.0929 115.4071 58.0284 115.0392 57.9881 114.8571 C 57.9501 114.6859 57.7946 114.5104 57.8571 114.3464 C 57.9218 114.1767 58.1298 114.0882 58.3024 114.0321 C 58.4684 113.9785 58.6518 114.0342 58.8262 114.0321 C 59.0006 114.03 59.2657 113.8664 59.35 114.019 C 59.5522 114.3844 59.5071 115.2631 59.5071 115.2631 "/>
    <path id="ID0.7001032647676766" fill="none" stroke="#646B70" stroke-width="0.523809552192688" stroke-linecap="round" d="M 59.5929 115.4071 C 59.5929 115.4071 59.5284 115.0392 59.4881 114.8571 C 59.4501 114.6859 59.2946 114.5104 59.3571 114.3464 C 59.4218 114.1767 59.6298 114.0882 59.8024 114.0321 C 59.9684 113.9785 60.1518 114.0342 60.3262 114.0321 C 60.5006 114.03 60.7657 113.8664 60.85 114.019 C 61.0522 114.3844 61.0071 115.2631 61.0071 115.2631 "/>
    <g id="ID0.07771636918187141">
      <path id="ID0.7001032647676766" fill="none" stroke="#646B70" stroke-width="0.523809552192688" stroke-linecap="round" d="M 60.6929 115.5571 C 60.6929 115.5571 60.6284 115.1892 60.5881 115.0071 C 60.5501 114.8359 60.3946 114.6604 60.4571 114.4964 C 60.5218 114.3267 60.7298 114.2382 60.9024 114.1821 C 61.0684 114.1285 61.2518 114.1842 61.4262 114.1821 C 61.6006 114.18 61.8657 114.0164 61.95 114.169 C 62.1522 114.5344 62.1071 115.4131 62.1071 115.4131 "/>
      <path id="ID0.7001032647676766" fill="none" stroke="#646B70" stroke-width="0.523809552192688" stroke-linecap="round" d="M 62.1929 115.4071 C 62.1929 115.4071 62.1284 115.0392 62.0881 114.8571 C 62.0501 114.6859 61.8946 114.5104 61.9571 114.3464 C 62.0218 114.1767 62.2298 114.0882 62.4024 114.0321 C 62.5684 113.9785 62.7518 114.0342 62.9262 114.0321 C 63.1006 114.03 63.3657 113.8664 63.45 114.019 C 63.6522 114.3844 63.6071 115.2631 63.6071 115.2631 "/>
    </g>
    <path id="ID0.7001032647676766" fill="none" stroke="#646B70" stroke-width="0.5238095646525897" stroke-linecap="round" d="M 64.1408 115.5373 C 64.1408 115.5373 64.1153 115.1646 64.0942 114.9794 C 64.0744 114.8051 63.9381 114.6143 64.0175 114.4578 C 64.0996 114.2958 64.3157 114.2295 64.4932 114.1919 C 64.664 114.1559 64.8405 114.2306 65.0142 114.2468 C 65.1879 114.263 65.4686 114.128 65.5365 114.2887 C 65.6993 114.6732 65.5624 115.5423 65.5624 115.5423 "/>
    <path id="ID0.7001032647676766" fill="none" stroke="#646B70" stroke-width="0.523809552192688" stroke-linecap="round" d="M 73.8571 115.2071 C 73.8571 115.2071 73.9216 114.8392 73.9619 114.6571 C 73.9999 114.4859 74.1554 114.3104 74.0929 114.1464 C 74.0282 113.9767 73.8202 113.8882 73.6476 113.8321 C 73.4816 113.7785 73.2982 113.8342 73.1238 113.8321 C 72.9494 113.83 72.6843 113.6664 72.6 113.819 C 72.3978 114.1844 72.4429 115.0631 72.4429 115.0631 "/>
    <path id="ID0.7001032647676766" fill="none" stroke="#646B70" stroke-width="0.523809552192688" stroke-linecap="round" d="M 72.3571 115.2071 C 72.3571 115.2071 72.4216 114.8392 72.4619 114.6571 C 72.4999 114.4859 72.6554 114.3104 72.5929 114.1464 C 72.5282 113.9767 72.3202 113.8882 72.1476 113.8321 C 71.9816 113.7785 71.7982 113.8342 71.6238 113.8321 C 71.4494 113.83 71.1843 113.6664 71.1 113.819 C 70.8978 114.1844 70.9429 115.0631 70.9429 115.0631 "/>
    <path id="ID0.7001032647676766" fill="none" stroke="#646B70" stroke-width="0.523809552192688" stroke-linecap="round" d="M 70.5571 115.3071 C 70.5571 115.3071 70.6216 114.9392 70.6619 114.7571 C 70.6999 114.5859 70.8554 114.4104 70.7929 114.2464 C 70.7282 114.0767 70.5202 113.9882 70.3476 113.9321 C 70.1816 113.8785 69.9982 113.9342 69.8238 113.9321 C 69.6494 113.93 69.3843 113.7664 69.3 113.919 C 69.0978 114.2844 69.1429 115.1631 69.1429 115.1631 "/>
    <path id="ID0.7001032647676766" fill="none" stroke="#646B70" stroke-width="0.523809552192688" stroke-linecap="round" d="M 69.0571 115.4571 C 69.0571 115.4571 69.1216 115.0892 69.1619 114.9071 C 69.1999 114.7359 69.3554 114.5604 69.2929 114.3964 C 69.2282 114.2267 69.0202 114.1382 68.8476 114.0821 C 68.6816 114.0285 68.4982 114.0842 68.3238 114.0821 C 68.1494 114.08 67.8843 113.9164 67.8 114.069 C 67.5978 114.4344 67.6429 115.3131 67.6429 115.3131 "/>
    <path id="ID0.7001032647676766" fill="none" stroke="#646B70" stroke-width="0.5238095646525897" stroke-linecap="round" d="M 67.4092 115.5873 C 67.4092 115.5873 67.4347 115.2146 67.4558 115.0294 C 67.4756 114.8551 67.6119 114.6643 67.5325 114.5078 C 67.4504 114.3458 67.2343 114.2795 67.0568 114.2419 C 66.886 114.2059 66.7095 114.2806 66.5358 114.2968 C 66.3621 114.313 66.0814 114.178 66.0135 114.3387 C 65.8507 114.7232 65.9876 115.5923 65.9876 115.5923 "/>
    <path id="ID0.44800941413268447" fill="none" stroke="#2E3234" stroke-width="0.6130029273409839" stroke-linecap="round" d="M 68.902 106.7985 L 67.0944 105.497 L 63.7887 106.541 "/>
    <path id="ID0.44800941413268447" fill="none" stroke="#33383A" stroke-width="1.0503597259521484" stroke-linecap="round" d="M 67.4511 100.7698 L 69.0791 96.4633 L 73.4644 94.0212 L 80.0291 94.1525 "/>
    <g id="ID0.6897007944062352">
      <path id="ID0.2692581438459456" fill="#7AABFF" stroke="none" d="M 75.8257 97.3357 C 75.507 97.2448 75.182 97.2924 74.9137 97.4417 C 74.6453 97.591 74.4335 97.842 74.3427 98.1607 C 74.2518 98.4794 74.2994 98.8043 74.4486 99.0727 C 74.5979 99.3411 74.8489 99.5528 75.1676 99.6437 C 75.4864 99.7346 75.8113 99.687 76.0796 99.5377 C 76.348 99.3884 76.5598 99.1375 76.6507 98.8187 C 76.7415 98.5 76.694 98.1751 76.5447 97.9067 C 76.3954 97.6384 76.1444 97.4266 75.8257 97.3357 Z " stroke-width="1.1428571810382073"/>
      <path id="ID0.8070062398910522" fill="#192334" stroke="none" d="M 75.6326 98.003 C 75.5001 97.9652 75.3641 97.9842 75.2526 98.0471 C 75.1403 98.1087 75.0524 98.2142 75.0147 98.3467 C 74.9769 98.4792 74.9959 98.6152 75.0588 98.7267 C 75.1204 98.839 75.2259 98.9269 75.3584 98.9646 C 75.4909 99.0024 75.6269 98.9834 75.7384 98.9205 C 75.8507 98.8589 75.9385 98.7534 75.9763 98.6209 C 76.0141 98.4884 75.9951 98.3524 75.9322 98.2409 C 75.8706 98.1286 75.7651 98.0407 75.6326 98.003 Z " stroke-width="1.111111214644622"/>
    </g>
    <g id="ID0.5823970721103251">
      <path id="ID0.2692581438459456" fill="#7AABFF" stroke="none" d="M 59.5243 97.5357 C 59.843 97.4448 60.168 97.4924 60.4363 97.6417 C 60.7047 97.791 60.9165 98.042 61.0073 98.3607 C 61.0982 98.6794 61.0506 99.0043 60.9014 99.2727 C 60.7521 99.5411 60.5011 99.7528 60.1824 99.8437 C 59.8636 99.9346 59.5387 99.887 59.2704 99.7377 C 59.002 99.5884 58.7902 99.3375 58.6993 99.0187 C 58.6085 98.7 58.656 98.3751 58.8053 98.1067 C 58.9546 97.8384 59.2056 97.6266 59.5243 97.5357 Z " stroke-width="1.1428571810382073"/>
      <path id="ID0.8070062398910522" fill="#192334" stroke="none" d="M 59.8174 98.103 C 59.9499 98.0652 60.0859 98.0842 60.1974 98.1471 C 60.3097 98.2087 60.3976 98.3142 60.4353 98.4467 C 60.4731 98.5792 60.4541 98.7152 60.3912 98.8267 C 60.3296 98.939 60.2241 99.0269 60.0916 99.0646 C 59.9591 99.1024 59.8231 99.0834 59.7116 99.0205 C 59.5993 98.9589 59.5115 98.8534 59.4737 98.7209 C 59.4359 98.5884 59.4549 98.4524 59.5178 98.3409 C 59.5794 98.2286 59.6849 98.1407 59.8174 98.103 Z " stroke-width="1.111111214644622"/>
    </g>
    <path id="ID0.023752907756716013" fill="none" stroke="#584E44" stroke-width="1.1814345600728136" stroke-linecap="round" d="M 55.653 96.1863 L 58.9503 96.3651 L 61.3252 97.3565 "/>
    <path id="ID0.023752907756716013" fill="none" stroke="#584E44" stroke-width="1.1814345600728136" stroke-linecap="round" d="M 77.797 96.1863 L 74.4997 96.3651 L 72.1248 97.3565 "/>
  </g>
  <g id="ID0.7685626554302871">
    <path id="ID0.2311431379057467" fill="#A5F3FF" stroke="none" stroke-linecap="round" d="M 4.25 3.25 L 11.75 6.25 L 37.75 31.75 L 47.75 71.25 L 27.75 42.25 L 4.25 3.25 Z " stroke-width="1"/>
    <path id="ID0.2311431379057467" fill="#A5F3FF" stroke="none" stroke-linecap="round" d="M 123 3.75 L 115.5 6.75 L 89.5 32.25 L 79.5 71.75 L 99.5 42.75 L 123 3.75 Z " stroke-width="1"/>
    <path id="ID0.2311431379057467" fill="#A5F3FF" stroke="none" stroke-linecap="round" d="M 65.3008 0.5124 L 54.0687 36.3938 L 64.8449 69.5163 L 71.952 35.427 L 65.3008 0.5124 Z " stroke-width="0.8548387417999216"/>
  </g>
</svg>