<svg xmlns="http://www.w3.org/2000/svg" xmlns:xlink="http://www.w3.org/1999/xlink" version="1.1" width="123.72360243543834" height="314.43685927137585" viewBox="0.7416998637475043 1.1941277278222113 123.72360243543834 314.43685927137585">
  <!-- Exported by Scratch - http://scratch.mit.edu/ -->
  <path id="ID0.7729651997797191" fill="#282828" stroke="none" stroke-linecap="round" d="M 17.434 73.8589 L 40.5701 79.3353 L 32.9155 98.2005 L 26.3506 107.4254 L 22.5888 115.9205 L 17.9662 123.4875 L 2.5677 116.0455 L 2.1035 108.9092 L 12.4988 86.8703 L 17.434 73.8589 Z " stroke-width="0.9588636893202722"/>
  <path id="ID0.4757494777441025" fill="#282828" stroke="none" stroke-linecap="round" d="M 32.7261 59.9701 L 41.7717 60.6631 L 55.8599 70.385 L 39.9376 91.9895 L 28.2609 93.4441 L 23.5053 93.0217 L 21.0994 89.7342 L 19.2271 85.9946 L 14.4502 81.6844 L 16.0297 76.4401 L 19.2351 68.9712 L 24.9591 62.0722 L 32.7261 59.9701 Z " stroke-width="0.4829924863548875"/>
  <g id="ID0.5880346246995032">
    <path id="ID0.6829322893172503" fill="#1D1E1F" stroke="none" stroke-linecap="round" d="M 105.0816 177.4097 L 115.2 171.7509 L 118.7594 177.0772 L 123.156 182.7669 L 123.4653 188.4737 L 123.108 193.1946 L 121.2355 196.3623 L 120.1733 203.1656 L 115.4745 203.2159 L 114.1412 201.244 L 112.4996 201.1285 L 109.0949 198.6557 L 105.4644 195.7862 L 103.1832 191.4128 L 103.6118 184.235 L 105.0816 177.4097 Z " stroke-width="0.8164596235025298"/>
    <g id="ID0.9434720128774643">
      <path id="ID0.6507829907350242" fill="#282828" stroke="none" stroke-linecap="round" d="M 95.8752 112.9156 L 115.3824 122.079 L 114.9541 139.0687 L 114.5384 151.7649 L 115.411 167.8663 L 118.1123 174.7109 L 103.5316 177.995 L 103.904 170.5342 L 101.5394 160.8504 L 98.0122 148.5723 L 96.4766 135.3277 L 95.8752 112.9156 Z " stroke-width="0.8164596235025298"/>
      <path id="ID0.9892375003546476" fill="none" stroke="#191919" stroke-width="2.0000000502685062" stroke-linecap="round" d="M 103.9478 177.129 L 117.2792 173.6524 L 114.3228 165.3002 "/>
    </g>
  </g>
  <path id="ID0.7729651997797191" fill="#282828" stroke="none" stroke-linecap="round" d="M 120.2425 85.2026 L 97.5875 77.99 L 94.4407 98.1043 L 95.3213 109.3924 L 94.1743 118.612 L 94.243 127.4791 L 111.2756 129.0239 L 115.3466 123.1443 L 117.777 98.8983 L 120.2425 85.2026 Z " stroke-width="0.9588636497283459"/>
  <path id="ID0.4757494777441025" fill="#282828" stroke="none" stroke-linecap="round" d="M 113.0538 67.3699 L 104.9416 63.3084 L 87.859 64.3927 L 90.3908 91.1109 L 99.6535 98.3679 L 103.9482 100.4534 L 107.703 98.8731 L 111.233 96.6305 L 117.5471 95.3936 L 118.892 90.0843 L 119.9879 82.0308 L 118.6311 73.1698 L 113.0538 67.3699 Z " stroke-width="0.48299248990528754"/>
  <g id="ID0.6660797297954559">
    <path id="ID0.5368814701214433" fill="#343434" stroke="none" stroke-linecap="round" d="M 67.4682 299.6199 L 70.4287 290.8155 L 74.9983 281.6083 L 84.9228 287.5533 L 96.1216 295.2868 L 113.4925 305.7815 L 114.5139 312.3062 L 89.8071 313.269 L 68.595 309.4169 L 67.4682 299.6199 Z " stroke-width="0.7702165156112356"/>
    <g id="ID0.5077062323689461">
      <path id="ID0.05466862628236413" fill="#252525" stroke="none" stroke-linecap="round" d="M 69.1786 227.3687 L 90.9001 224.1783 L 89.0357 238.8459 L 88.2495 243.8524 L 88.1163 258.3363 L 90.3258 291.608 L 69.0586 294.1922 L 67.8853 275.4326 L 65.6356 268.346 L 64.5334 260.6082 L 66.2287 249.5153 L 66.2185 239.399 L 69.1786 227.3687 Z " stroke-width="0.5998532572800399"/>
      <path id="ID0.5319394422695041" fill="none" stroke="#131313" stroke-width="1.999999948712909" stroke-linecap="round" d="M 90.3272 290.7351 L 69.0431 294.549 L 68.1437 283.0407 "/>
    </g>
    <g id="ID0.8820344842970371">
      <path id="ID0.3809091211296618" fill="#252525" stroke="none" stroke-linecap="round" d="M 58.6077 153.6188 L 90.4924 134.381 L 91.543 158.6188 L 95.107 207.1281 L 94.5302 217.8759 L 90.4306 229.1233 L 82.3567 226.8685 L 69.3927 228.0456 L 68.9219 206.2787 L 67.3001 192.9611 L 58.6077 153.6188 Z " stroke-width="0.7305889629519027"/>
      <path id="ID0.9495224836282432" fill="none" stroke="#131313" stroke-width="1.999999948712909" stroke-linecap="round" d="M 95.0579 207.2733 L 94.9835 215.773 L 92.9136 223.7552 L 84.3745 228.1806 L 83.3308 233.1717 "/>
    </g>
  </g>
  <g id="ID0.18228224432095885">
    <path id="ID0.5368814701214433" fill="#404040" stroke="none" stroke-linecap="round" d="M 29.1158 300.5018 L 32.2662 291.7635 L 37.034 282.6573 L 46.8275 288.8157 L 57.8564 296.7897 L 74.996 307.6578 L 75.876 314.2031 L 51.1542 314.631 L 30.0304 310.3208 L 29.1158 300.5018 Z " stroke-width="0.770216501105531"/>
    <g id="ID0.5077062323689461">
      <path id="ID0.05466862628236413" fill="#252525" stroke="none" stroke-linecap="round" d="M 33.7514 227.718 L 55.5993 225.5568 L 53.0445 240.12 L 52.0228 245.0838 L 51.2059 259.5452 L 51.842 292.8842 L 30.4764 294.4613 L 30.1903 275.6673 L 28.2776 268.4824 L 27.542 260.7011 L 29.7592 249.7007 L 30.2266 239.5951 L 33.7514 227.718 Z " stroke-width="0.5998532383662818"/>
      <path id="ID0.5319394422695041" fill="none" stroke="#131313" stroke-width="1.9999999804442234" stroke-linecap="round" d="M 51.8642 291.984 L 30.4237 294.7887 L 30.0687 283.2507 "/>
    </g>
    <g id="ID0.8820344842970371">
      <path id="ID0.3809091211296618" fill="#252525" stroke="none" stroke-linecap="round" d="M 31.8801 151.0264 L 59.5243 135.8208 L 59.4293 160.0813 L 60.6989 208.7047 L 59.6153 219.4133 L 54.9891 230.4546 L 47.0307 227.8211 L 33.4673 229.7179 L 31.7765 206.5899 L 30.9729 193.5255 L 31.8801 151.0264 Z " stroke-width="0.7305889563791749"/>
      <path id="ID0.9495224836282432" fill="none" stroke="#131313" stroke-width="1.9999999804442234" stroke-linecap="round" d="M 60.5303 208.8387 L 60.0547 217.3254 L 57.6102 225.2009 L 48.8717 229.2182 L 47.5935 234.1544 "/>
    </g>
  </g>
  <g id="ID0.8990198895335197">
    <path id="ID0.17576928716152906" fill="#DBDBDB" stroke="none" d="M 68.688 57.0783 L 68.4384 57.0654 L 68.4384 57.0654 L 68.688 57.0783 L 68.688 57.0783 Z " stroke-width="0.9999999674809951"/>
    <path id="ID0.4270821204409003" fill="#252525" stroke="none" stroke-linecap="round" d="M 60.3475 178.921 L 65.9088 66.3016 L 83.1131 69.6731 L 89.6893 74.4463 L 92.2461 78.6894 L 98.4247 90.5947 L 96.9551 100.9908 L 95.6094 106.3832 L 96.7724 113.3897 L 96.8515 118.8854 L 94.2153 125.6165 L 92.222 130.7234 L 90.3635 139.8978 L 90.276 161.8515 L 84.5534 169.6717 L 79.3314 175.5231 L 60.3475 178.921 Z " stroke-width="0.47614256467775407"/>
    <path id="ID0.4270821204409003" fill="#252525" stroke="none" stroke-linecap="round" d="M 60.3642 179.0613 L 66.433 66.4681 L 48.9729 68.0494 L 41.94 72.1198 L 38.9598 76.0771 L 31.5878 87.2826 L 31.9787 97.7747 L 32.7617 103.2771 L 30.8832 110.1265 L 30.2385 115.5849 L 32.1673 122.5517 L 33.6239 127.8367 L 34.5275 137.1538 L 32.3532 158.9997 L 37.2399 167.3678 L 41.8313 173.726 L 60.3642 179.0613 Z " stroke-width="0.4761425582034465"/>
    <path id="ID0.5114514343440533" fill="#282828" stroke="none" d="M 39.9775 66.2508 L 92.9069 68.9841 L 88.3557 157.1167 L 35.4263 154.3834 L 39.9775 66.2508 Z " stroke-width="1.0073065473210139"/>
    <path id="ID0.9286923445761204" fill="#D4D4D4" stroke="none" stroke-linecap="round" d="M 56.8137 53.4055 L 75.0409 35.5855 L 66.9585 54.0724 L 66.1313 94.5557 L 29.7312 63.5926 L 50.4026 53.8372 L 56.8137 53.4055 Z " stroke-width="0.47614259121395813"/>
    <path id="ID0.9286923445761204" fill="#D4D4D4" stroke="none" stroke-linecap="round" d="M 73.1041 53.175 L 60.2344 35.108 L 66.3697 54.329 L 65.5196 94.3344 L 102.4183 67.6332 L 83.2699 54.8203 L 73.1041 53.175 Z " stroke-width="0.47614259121395813"/>
    <path id="ID0.39874776685610414" fill="#C3C3C3" stroke="none" stroke-linecap="round" d="M 48.4613 54.6551 L 67.7955 65.5374 L 86.1018 57.5098 L 89.9895 59.8513 L 67.4057 69.2977 L 44.6063 56.4146 L 48.4613 54.6551 Z " stroke-width="0.9436593192580783"/>
    <path id="ID0.13444371055811644" fill="#1F1F1F" stroke="none" stroke-linecap="round" d="M 65.3104 67.2354 L 70.5663 67.2565 L 71.8928 95.863 L 59.833 95.7409 L 65.3104 67.2354 Z " stroke-width="0.9999999674809951"/>
    <path id="ID0.751046194229275" fill="#191919" stroke="none" stroke-linecap="round" d="M 63.2699 62.2267 L 68.0436 60.4355 L 72.4427 62.7004 L 72.4708 70.6875 L 68.0256 71.4492 L 62.8586 70.1911 L 63.2699 62.2267 Z " stroke-width="1.0999999045500704"/>
    <path id="ID0.7854711129330099" fill="#282828" stroke="none" stroke-linecap="round" d="M 53.2389 83.385 L 66.769 92.8453 L 81.0035 83.8174 L 78.1037 101.191 L 54.8846 99.9919 L 53.2389 83.385 Z " stroke-width="0.9999999674809951"/>
    <path id="ID0.562834897544235" fill="#282828" stroke="none" stroke-linecap="round" d="M 32.8238 153.926 L 63.3301 149.7437 L 62.2858 169.9667 L 48.4896 170.506 L 32.8238 153.926 Z " stroke-width="0.9999999674809951"/>
    <path id="ID0.562834897544235" fill="#282828" stroke="none" stroke-linecap="round" d="M 93.4714 157.3543 L 63.5582 150.0519 L 62.5139 170.2749 L 76.1811 172.2324 L 93.4714 157.3543 Z " stroke-width="0.9999999674809951"/>
    <path id="ID0.6824178956449032" fill="none" stroke="#191919" stroke-width="1.9999999349619901" stroke-linecap="round" d="M 66.5068 93.1192 L 62.299 169.7542 "/>
    <path id="ID0.4144489667378366" fill="#313131" stroke="none" stroke-linecap="round" d="M 29.381 60.6243 L 50.0166 53.6792 L 45.8989 75.2456 L 46.0503 135.3334 L 34.2551 179.5339 L 23.5276 173.9732 L 23.0974 177.4557 L 28.5689 129.6743 L 26.0556 86.2369 L 25.895 69.9569 L 29.381 60.6243 Z " stroke-width="0.9999999674809951"/>
    <path id="ID0.5234400681219995" fill="#101010" stroke="none" d="M 68.4099 98.7928 C 68.822 98.8141 69.1871 99.0007 69.4436 99.2852 C 69.7002 99.5698 69.8483 99.9521 69.827 100.3642 C 69.8057 100.7763 69.619 101.1414 69.3345 101.398 C 69.05 101.6545 68.6677 101.8026 68.2556 101.7813 C 67.8435 101.76 67.4784 101.5734 67.2218 101.2889 C 66.9652 101.0044 66.8172 100.622 66.8385 100.2099 C 66.8597 99.7978 67.0464 99.4327 67.3309 99.1761 C 67.6154 98.9196 67.9978 98.7715 68.4099 98.7928 Z " stroke-width="0.629999997324517"/>
    <path id="ID0.5234400681219995" fill="#101010" stroke="none" d="M 67.6599 112.3928 C 68.072 112.4141 68.4371 112.6007 68.6936 112.8852 C 68.9502 113.1698 69.0983 113.5521 69.077 113.9642 C 69.0557 114.3763 68.869 114.7414 68.5845 114.998 C 68.3 115.2545 67.9177 115.4026 67.5056 115.3813 C 67.0935 115.36 66.7284 115.1734 66.4718 114.8889 C 66.2152 114.6044 66.0672 114.222 66.0885 113.8099 C 66.1097 113.3978 66.2964 113.0327 66.5809 112.7761 C 66.8654 112.5196 67.2478 112.3715 67.6599 112.3928 Z " stroke-width="0.629999997324517"/>
    <path id="ID0.5234400681219995" fill="#101010" stroke="none" d="M 66.0599 143.7928 C 66.472 143.8141 66.8371 144.0007 67.0936 144.2852 C 67.3502 144.5698 67.4983 144.9521 67.477 145.3642 C 67.4557 145.7763 67.269 146.1414 66.9845 146.398 C 66.7 146.6545 66.3177 146.8026 65.9056 146.7813 C 65.4935 146.76 65.1284 146.5734 64.8718 146.2889 C 64.6152 146.0044 64.4672 145.622 64.4885 145.2099 C 64.5097 144.7978 64.6964 144.4327 64.9809 144.1761 C 65.2654 143.9196 65.6478 143.7715 66.0599 143.7928 Z " stroke-width="0.629999997324517"/>
    <path id="ID0.5234400681219995" fill="#101010" stroke="none" d="M 66.8099 129.0428 C 67.222 129.0641 67.5871 129.2507 67.8436 129.5352 C 68.1002 129.8198 68.2483 130.2021 68.227 130.6142 C 68.2057 131.0263 68.019 131.3914 67.7345 131.648 C 67.45 131.9045 67.0677 132.0526 66.6556 132.0313 C 66.2435 132.01 65.8784 131.8234 65.6218 131.5389 C 65.3652 131.2544 65.2172 130.872 65.2385 130.4599 C 65.2597 130.0478 65.4464 129.6827 65.7309 129.4261 C 66.0154 129.1696 66.3978 129.0215 66.8099 129.0428 Z " stroke-width="0.629999997324517"/>
    <path id="ID0.5234400681219995" fill="#101010" stroke="none" d="M 65.2099 157.7928 C 65.622 157.8141 65.9871 158.0007 66.2436 158.2852 C 66.5002 158.5698 66.6483 158.9521 66.627 159.3642 C 66.6057 159.7763 66.419 160.1414 66.1345 160.398 C 65.85 160.6545 65.4677 160.8026 65.0556 160.7813 C 64.6435 160.76 64.2784 160.5734 64.0218 160.2889 C 63.7652 160.0044 63.6172 159.622 63.6385 159.2099 C 63.6597 158.7978 63.8464 158.4327 64.1309 158.1761 C 64.4154 157.9196 64.7978 157.7715 65.2099 157.7928 Z " stroke-width="0.629999997324517"/>
    <path id="ID0.4144489667378366" fill="#313131" stroke="none" stroke-linecap="round" d="M 102.6566 63.6035 L 82.8461 54.5698 L 84.7204 76.4456 L 78.3805 136.1981 L 85.56 181.3785 L 96.8032 176.9525 L 96.8724 180.4607 L 96.3518 132.3698 L 103.326 89.4224 L 105.1627 73.2456 L 102.6566 63.6035 Z " stroke-width="0.9999999674809951"/>
    <path id="ID0.8752945330925286" fill="none" stroke="#222222" stroke-width="1.9999999349619901" stroke-linecap="round" d="M 29.8674 60.8997 L 26.222 68.4718 L 27.5209 106.3392 "/>
    <path id="ID0.8752945330925286" fill="none" stroke="#222222" stroke-width="1.9999999349619901" stroke-linecap="round" d="M 102.8444 64.1774 L 105.6904 72.0847 L 100.4979 109.6168 "/>
    <path id="ID0.5234400681219995" fill="#101010" stroke="none" d="M 42.9599 143.2928 C 43.372 143.3141 43.7371 143.5007 43.9936 143.7852 C 44.2502 144.0698 44.3983 144.4521 44.377 144.8642 C 44.3557 145.2763 44.169 145.6414 43.8845 145.898 C 43.6 146.1545 43.2177 146.3026 42.8056 146.2813 C 42.3935 146.26 42.0284 146.0734 41.7718 145.7889 C 41.5152 145.5044 41.3672 145.122 41.3885 144.7099 C 41.4097 144.2978 41.5964 143.9327 41.8809 143.6761 C 42.1654 143.4196 42.5478 143.2715 42.9599 143.2928 Z " stroke-width="0.629999997324517"/>
    <path id="ID0.5234400681219995" fill="#101010" stroke="none" d="M 41.1599 150.3928 C 41.572 150.4141 41.9371 150.6007 42.1936 150.8852 C 42.4502 151.1698 42.5983 151.5521 42.577 151.9642 C 42.5557 152.3763 42.369 152.7414 42.0845 152.998 C 41.8 153.2545 41.4177 153.4026 41.0056 153.3813 C 40.5935 153.36 40.2284 153.1734 39.9718 152.8889 C 39.7152 152.6044 39.5672 152.222 39.5885 151.8099 C 39.6097 151.3978 39.7964 151.0327 40.0809 150.7761 C 40.3654 150.5196 40.7478 150.3715 41.1599 150.3928 Z " stroke-width="0.629999997324517"/>
    <g id="ID0.20783481979742646">
      <path id="ID0.5848579816520214" fill="#737373" stroke="none" stroke-linecap="round" d="M 90.8233 91.4546 L 97.7415 90.3099 L 97.4405 94.1995 L 90.1744 94.325 L 90.8233 91.4546 Z " stroke-width="0.9999999674809951"/>
      <path id="ID0.13105127029120922" fill="none" stroke="#222222" stroke-width="1.9999999349619901" stroke-linecap="round" d="M 88.8133 94.505 L 93.3073 94.7371 L 98.6277 93.5098 "/>
    </g>
  </g>
  <path id="ID0.46110434643924236" fill="#D8BFA7" stroke="none" stroke-linecap="round" d="M 56.5364 34.7303 L 79.121 35.8966 L 78.6106 54.8454 L 72.2777 57.3722 L 55.4998 54.8035 L 56.5364 34.7303 Z " stroke-width="1.0876357547543811"/>
  <path id="ID0.8999492498114705" fill="#EDD2B8" stroke="none" stroke-linecap="round" d="M 65.6943 5.1782 C 61.2643 5.2158 56.2858 7.4409 53.7771 11.0919 C 50.9143 15.2604 52.2236 21.011 51.4979 25.966 C 51.2163 27.6865 50.8065 29.4723 51.0697 31.2587 C 51.2591 34.4494 52.1404 37.5624 52.822 40.7779 C 53.2803 42.9453 53.2375 45.2891 54.2109 47.2993 C 55.2956 49.6719 56.3192 52.9242 58.8604 53.6369 C 62.6279 54.6929 66.8676 53.2674 70.475 51.8648 C 73.4385 50.7122 76.2993 48.7757 78.1422 46.1742 C 81.4607 41.336 84.5733 35.9595 85.5436 30.1432 C 86.619 23.6956 88.1895 15.7464 83.9298 10.5794 C 80.1514 5.6367 72.2795 5.1252 65.6943 5.1782 Z " stroke-width="0.5080371992279783"/>
  <path id="ID0.8194515448994935" fill="#EDD2B8" stroke="none" stroke-linecap="round" d="M 86.2735 24.858 C 85.4151 24.8594 84.7435 25.364 84.1334 26.3672 C 83.5234 27.3704 83.0652 28.7938 82.9043 30.3997 C 82.7433 32.0057 82.91 33.4917 83.3089 34.596 C 83.7078 35.7002 84.2697 36.3013 85.1071 36.4997 C 85.8759 36.6803 86.9197 36.3537 87.3461 35.7191 C 88.171 34.2962 88.2288 32.5161 88.4764 30.958 C 88.7202 29.4267 89.2481 27.7691 88.7907 26.3162 C 88.3992 25.4187 87.1732 24.8567 86.2735 24.858 Z " stroke-width="0.9999999422514133"/>
  <path id="ID0.5768358684144914" fill="#2E3234" stroke="none" d="M 87.5314 21.8509 L 81.5613 21.2528 L 81.3818 23.0438 L 87.3519 23.642 L 87.5314 21.8509 Z " stroke-width="0.9999999422514133"/>
  <path id="ID0.3245162623934448" fill="#54595E" stroke="none" stroke-linecap="round" d="M 67.3797 6.4769 C 64.1399 6.1523 60.9426 8.4731 58.3941 12.484 C 55.8455 16.4949 54.4222 23.1069 53.3006 28.6336 C 52.1553 34.2766 49.6409 40.2939 51.4365 45.733 C 52.8206 49.9239 57.4358 53.4727 61.8977 54.168 C 66.1109 54.8283 71.4705 52.883 73.8491 49.2349 C 77.2098 44.0793 76.5767 37.1979 76.783 30.9865 C 76.9698 25.3511 76.6971 18.5842 74.9949 14.1474 C 73.2928 9.7105 70.6195 6.8015 67.3797 6.4769 Z " stroke-width="0.9999999422514133"/>
  <path id="ID0.8999492498114705" fill="#54595E" stroke="none" stroke-linecap="round" d="M 64.1943 2.4282 C 59.8404 3.2454 54.7858 4.6909 52.2771 8.3419 C 49.4143 12.5104 51.3101 18.38 49.9979 23.216 C 49.4792 25.1262 46.8666 26.3798 46.7666 28.4576 C 46.6816 31.1352 48.5628 33.534 49.4949 36.1344 C 50.51 38.9575 51.3546 41.9172 52.7109 44.5493 C 53.9089 46.8761 55.1335 49.5134 57.3604 50.8869 C 59.0753 51.943 61.6515 52.4493 63.3355 51.3834 C 64.6744 50.5362 63.758 48.2168 64.2893 46.7051 C 64.8074 44.826 66.2692 43.2308 66.4692 41.256 C 67.0235 35.7595 65.7097 30.1647 66.2424 24.665 C 66.8284 18.6171 67.1182 12.3675 69.6555 6.9068 C 70.6261 4.8178 76.868 4.8683 75.8588 4.1075 C 74.3103 2.7709 68.0518 1.7042 64.1943 2.4282 Z " stroke-width="0.5080371992279783"/>
  <path id="ID0.8999492498114705" fill="#54595E" stroke="none" stroke-linecap="round" d="M 75.4439 4.1965 C 79.0946 5.6994 83.0913 8.0799 84.615 11.7785 C 86.4735 16.2582 84.6312 21.5026 84.6627 26.3348 C 84.6754 28.1094 85.5533 30.0175 84.9978 31.6529 C 84.198 33.9128 81.921 35.4451 81.0258 37.6627 C 79.7931 40.7176 80.182 44.4077 78.5596 47.2443 C 77.2598 49.5159 75.2002 51.6291 72.7451 52.5334 C 70.8548 53.2283 68.2293 53.2134 66.7903 51.8346 C 65.6461 50.7387 67.0045 48.6471 66.7836 47.06 C 66.6486 45.1155 65.5324 43.2621 65.7282 41.2868 C 66.2755 35.7896 68.6731 30.5666 69.2422 25.0706 C 69.8677 19.0267 70.3529 12.9361 69.4201 6.9883 C 69.1683 5.3895 64.5763 4.2207 65.5864 3.7194 C 67.5846 2.7381 72.4113 2.8689 75.4439 4.1965 Z " stroke-width="0.5080371992279783"/>
  <path id="ID0.45774566335603595" fill="#54595E" stroke="none" stroke-linecap="round" d="M 63.776 38.1856 C 61.6825 37.9758 60.0241 39.08 58.2069 39.7039 C 56.5498 40.2736 53.546 40.1113 53.3771 41.9174 C 53.0828 44.7341 55.3118 47.4137 57.2131 49.6223 C 58.4671 51.0785 60.2767 52.0056 62.3702 52.2153 C 64.4638 52.4251 66.3418 51.7661 67.9394 50.697 C 70.1497 49.219 72.9631 47.4999 73.1778 44.9064 C 73.4211 42.9288 70.5832 41.9239 68.9332 40.7787 C 67.3546 39.6818 65.8695 38.3953 63.776 38.1856 Z " stroke-width="0.9999999422514133"/>
  <path id="ID0.6934182443656027" fill="#54595E" stroke="none" stroke-linecap="round" d="M 78.4902 33.9968 L 64.8974 36.7554 L 51.3163 30.872 L 53.6284 37.8875 L 53.6773 42.4149 L 73.3636 45.0407 L 75.121 39.036 L 78.4902 33.9968 Z " stroke-width="0.9999999422514133"/>
  <path id="ID0.6236958587542176" fill="#3B4043" stroke="none" stroke-linecap="round" d="M 72.4551 30.1908 L 56.7886 28.5708 L 56.7274 36.2027 L 55.537 43.0682 L 57.2215 53.8398 L 66.7687 54.8467 L 71.2979 45.2504 L 71.1601 37.5986 L 72.4551 30.1908 Z " stroke-width="0.9999999422514133"/>
  <path id="ID0.6043254472315311" fill="#3B4043" stroke="none" stroke-linecap="round" d="M 81.9316 8.3367 L 77.4894 5.0273 L 72.2048 10.1259 L 65.6275 10.5724 L 64.9471 29.9008 L 67.2997 33.0008 L 72.658 33.186 L 76.3997 31.4503 L 78.3805 27.7293 L 77.536 21.1121 L 81.9316 8.3367 Z " stroke-width="0.9999999422514133"/>
  <path id="ID0.6043254472315311" fill="#3B4043" stroke="none" stroke-linecap="round" d="M 53.604 7.2652 L 55.9428 4.987 L 58.7937 4.1169 L 62.4545 9.2072 L 68.8124 10.9498 L 65.6445 30.029 L 62.7235 32.6006 L 57.4351 31.719 L 53.1569 29.2803 L 52.9089 25.2354 L 55.0495 18.9174 L 53.604 7.2652 Z " stroke-width="0.9999999422514133"/>
  <path id="ID0.9914007503539324" fill="#33383A" stroke="none" d="M 66.3099 37.2538 L 69.1231 25.7269 L 62.6753 25.3823 L 61.2403 36.6956 L 66.3099 37.2538 Z " stroke-width="0.9999999422514133"/>
  <path id="ID0.28340246016159654" fill="#D8BFA7" stroke="none" stroke-linecap="round" d="M 79.4631 25.0827 L 72.6675 24.4956 L 68.0202 26.3125 L 66.8061 29.6302 L 67.9656 31.9663 L 71.4201 32.6876 L 74.2011 32.466 L 76.3624 31.9009 L 78.6481 30.379 L 79.7477 28.4881 L 79.4631 25.0827 Z " stroke-width="0.5947752093531217"/>
  <path id="ID0.28340246016159654" fill="#D8BFA7" stroke="none" stroke-linecap="round" d="M 51.1155 22.1265 L 57.8925 22.8994 L 62.087 25.6021 L 62.6188 29.0948 L 61.0188 31.1544 L 57.4898 31.176 L 54.808 30.407 L 52.8018 29.4243 L 50.8636 27.4792 L 50.161 25.4077 L 51.1155 22.1265 Z " stroke-width="0.5947752093531217"/>
  <path id="ID0.17377300979569554" fill="#FFFFFF" stroke="none" stroke-linecap="round" d="M 75.0566 28.1955 L 74.2369 27.2787 L 71.9795 26.8674 L 69.6779 27.2454 L 69.0335 29.1414 L 71.6707 29.273 L 75.0566 28.1955 Z " stroke-width="0.9999999871226385"/>
  <path id="ID0.17377300979569554" fill="#FFFFFF" stroke="none" stroke-linecap="round" d="M 53.7149 26.0124 L 54.7002 25.2764 L 56.9944 25.3212 L 59.1751 26.1484 L 59.4306 28.1345 L 56.8197 27.7403 L 53.7149 26.0124 Z " stroke-width="0.9999999055177127"/>
  <path id="ID0.44800941413268447" fill="none" stroke="#33383A" stroke-width="1.0503598154285965" stroke-linecap="round" d="M 65.8503 29.9271 L 67.8996 25.8044 L 72.5064 23.8117 L 79.0254 24.5969 "/>
  <path id="ID0.12448931112885475" fill="#33383A" stroke="none" stroke-linecap="round" d="M 66.1726 35.4994 L 61.3865 35.1204 L 60.1272 38.16 L 63.0622 39.9616 L 66.6993 38.7682 L 66.1726 35.4994 Z " stroke-width="0.9999999422514133"/>
  <path id="ID0.44800941413268447" fill="none" stroke="#33383A" stroke-width="1.0503597549172863" stroke-linecap="round" d="M 67.3584 26.5673 L 66.8161 23.9323 L 68.5894 20.7287 "/>
  <path id="ID0.44800941413268447" fill="none" stroke="#33383A" stroke-width="1.050359746251257" stroke-linecap="round" d="M 62.9692 26.0415 L 64.0235 23.5664 L 62.9211 20.0746 "/>
  <g id="ID0.32985211815685034">
    <g id="ID0.08651347272098064">
      <g id="ID0.07771636918187141">
        <path id="ID0.7001032647676766" fill="none" stroke="#646B70" stroke-width="0.5238095046977924" stroke-linecap="round" d="M 71.7484 42.1142 C 71.7484 42.1142 71.7758 42.4868 71.7978 42.6719 C 71.8185 42.8461 71.9558 43.0362 71.8772 43.1931 C 71.7959 43.3555 71.5802 43.4229 71.4029 43.4615 C 71.2323 43.4983 71.0554 43.4245 70.8817 43.4092 C 70.7079 43.3939 70.4278 43.5304 70.3592 43.37 C 70.1944 42.9863 70.3268 42.1165 70.3268 42.1165 "/>
        <path id="ID0.7001032647676766" fill="none" stroke="#646B70" stroke-width="0.5238095046977924" stroke-linecap="round" d="M 70.1984 42.0142 C 70.1984 42.0142 70.2258 42.3868 70.2478 42.5719 C 70.2685 42.7461 70.4058 42.9362 70.3272 43.0931 C 70.2459 43.2555 70.0302 43.3229 69.8529 43.3615 C 69.6823 43.3983 69.5054 43.3245 69.3317 43.3092 C 69.1579 43.2939 68.8778 43.4304 68.8092 43.27 C 68.6444 42.8863 68.7768 42.0165 68.7768 42.0165 "/>
      </g>
      <g id="ID0.07771636918187141">
        <path id="ID0.7001032647676766" fill="none" stroke="#646B70" stroke-width="0.5238095046977924" stroke-linecap="round" d="M 68.6984 42.0642 C 68.6984 42.0642 68.7258 42.4368 68.7478 42.6219 C 68.7685 42.7961 68.9058 42.9862 68.8272 43.1431 C 68.7459 43.3055 68.5302 43.3729 68.3529 43.4115 C 68.1823 43.4483 68.0054 43.3745 67.8317 43.3592 C 67.6579 43.3439 67.3778 43.4804 67.3092 43.32 C 67.1444 42.9363 67.2768 42.0665 67.2768 42.0665 "/>
        <path id="ID0.7001032647676766" fill="none" stroke="#646B70" stroke-width="0.5238095046977924" stroke-linecap="round" d="M 67.1484 41.9142 C 67.1484 41.9142 67.1758 42.2868 67.1978 42.4719 C 67.2185 42.6461 67.3558 42.8362 67.2772 42.9931 C 67.1959 43.1555 66.9802 43.2229 66.8029 43.2615 C 66.6323 43.2983 66.4554 43.2245 66.2817 43.2092 C 66.1079 43.1939 65.8278 43.3304 65.7592 43.17 C 65.5944 42.7863 65.7268 41.9165 65.7268 41.9165 "/>
      </g>
      <path id="ID0.7001032647676766" fill="none" stroke="#646B70" stroke-width="0.5238094629559903" stroke-linecap="round" d="M 65.6674 41.8502 C 65.6674 41.8502 65.6556 42.2236 65.658 42.41 C 65.6604 42.5854 65.777 42.7889 65.6824 42.9367 C 65.5845 43.0897 65.3629 43.134 65.1825 43.1538 C 65.009 43.1726 64.8408 43.0807 64.6696 43.0472 C 64.4984 43.0138 64.2056 43.1202 64.1541 42.9535 C 64.0305 42.5547 64.2533 41.7035 64.2533 41.7035 "/>
    </g>
    <g id="ID0.08651347272098064">
      <g id="ID0.07771636918187141">
        <path id="ID0.7001032647676766" fill="none" stroke="#646B70" stroke-width="0.5238095046977924" stroke-linecap="round" d="M 56.8835 40.5833 C 56.8835 40.5833 56.7827 40.943 56.7244 41.1201 C 56.6696 41.2868 56.4973 41.4459 56.5432 41.6152 C 56.5907 41.7905 56.7888 41.8994 56.9549 41.9723 C 57.1148 42.0423 57.3028 42.0051 57.4761 42.0246 C 57.6495 42.044 57.8969 42.2333 57.996 42.0898 C 58.2336 41.7464 58.2764 40.8676 58.2764 40.8676 "/>
        <path id="ID0.7001032647676766" fill="none" stroke="#646B70" stroke-width="0.5238095046977924" stroke-linecap="round" d="M 58.3335 40.7333 C 58.3335 40.7333 58.2327 41.093 58.1744 41.2701 C 58.1196 41.4368 57.9473 41.5959 57.9932 41.7652 C 58.0407 41.9405 58.2388 42.0494 58.4049 42.1223 C 58.5648 42.1923 58.7528 42.1551 58.9261 42.1746 C 59.0995 42.194 59.3469 42.3833 59.446 42.2398 C 59.6836 41.8964 59.7264 41.0176 59.7264 41.0176 "/>
      </g>
      <g id="ID0.07771636918187141">
        <path id="ID0.7001032647676766" fill="none" stroke="#646B70" stroke-width="0.5238095046977924" stroke-linecap="round" d="M 60.0335 41.0833 C 60.0335 41.0833 59.9327 41.443 59.8744 41.6201 C 59.8196 41.7868 59.6473 41.9459 59.6932 42.1152 C 59.7407 42.2905 59.9388 42.3994 60.1049 42.4723 C 60.2648 42.5423 60.4528 42.5051 60.6261 42.5246 C 60.7995 42.544 61.0469 42.7333 61.146 42.5898 C 61.3836 42.2464 61.4264 41.3676 61.4264 41.3676 "/>
        <path id="ID0.7001032647676766" fill="none" stroke="#646B70" stroke-width="0.5238095046977924" stroke-linecap="round" d="M 61.5335 41.3333 C 61.5335 41.3333 61.4327 41.693 61.3744 41.8701 C 61.3196 42.0368 61.1473 42.1959 61.1932 42.3652 C 61.2407 42.5405 61.4388 42.6494 61.6049 42.7223 C 61.7648 42.7923 61.9528 42.7551 62.1261 42.7746 C 62.2995 42.794 62.5469 42.9833 62.646 42.8398 C 62.8836 42.4964 62.9264 41.6176 62.9264 41.6176 "/>
      </g>
      <path id="ID0.7001032647676766" fill="none" stroke="#646B70" stroke-width="0.5238095518848835" stroke-linecap="round" d="M 62.9664 41.6069 C 62.9664 41.6069 62.9039 41.9752 62.8645 42.1575 C 62.8274 42.329 62.6727 42.5052 62.7361 42.6689 C 62.8017 42.8382 63.0101 42.9257 63.183 42.9808 C 63.3493 43.0337 63.5323 42.977 63.7068 42.9782 C 63.8812 42.9794 64.1471 43.1417 64.2307 42.9886 C 64.431 42.6222 64.3814 41.7437 64.3814 41.7437 "/>
    </g>
  </g>
  <path id="ID0.7001032647676766" fill="none" stroke="#646B70" stroke-width="0.523809564376876" stroke-linecap="round" d="M 71.1665 45.1167 C 71.1665 45.1167 71.2673 44.757 71.3255 44.5799 C 71.3804 44.4132 71.5527 44.2541 71.5068 44.0848 C 71.4593 43.9095 71.2612 43.8006 71.0951 43.7277 C 70.9352 43.6577 70.7472 43.6949 70.5739 43.6754 C 70.4005 43.656 70.1531 43.4667 70.054 43.6102 C 69.8164 43.9536 69.7736 44.8324 69.7736 44.8324 "/>
  <path id="ID0.7001032647676766" fill="none" stroke="#646B70" stroke-width="0.523809564376876" stroke-linecap="round" d="M 69.6665 44.9167 C 69.6665 44.9167 69.7673 44.557 69.8255 44.3799 C 69.8804 44.2132 70.0527 44.0541 70.0068 43.8848 C 69.9593 43.7095 69.7612 43.6006 69.5951 43.5277 C 69.4352 43.4577 69.2472 43.4949 69.0739 43.4754 C 68.9005 43.456 68.6531 43.2667 68.554 43.4102 C 68.3164 43.7536 68.2736 44.6324 68.2736 44.6324 "/>
  <g id="ID0.07771636918187141">
    <path id="ID0.7001032647676766" fill="none" stroke="#646B70" stroke-width="0.523809564376876" stroke-linecap="round" d="M 68.5665 44.9667 C 68.5665 44.9667 68.6673 44.607 68.7255 44.4299 C 68.7804 44.2632 68.9527 44.1041 68.9068 43.9348 C 68.8593 43.7595 68.6612 43.6506 68.4951 43.5777 C 68.3352 43.5077 68.1472 43.5449 67.9739 43.5254 C 67.8005 43.506 67.5531 43.3167 67.454 43.4602 C 67.2164 43.8036 67.1736 44.6824 67.1736 44.6824 "/>
    <path id="ID0.7001032647676766" fill="none" stroke="#646B70" stroke-width="0.523809564376876" stroke-linecap="round" d="M 67.1165 44.6667 C 67.1165 44.6667 67.2173 44.307 67.2755 44.1299 C 67.3304 43.9632 67.5027 43.8041 67.4568 43.6348 C 67.4093 43.4595 67.2112 43.3506 67.0451 43.2777 C 66.8852 43.2077 66.6972 43.2449 66.5239 43.2254 C 66.3505 43.206 66.1031 43.0167 66.004 43.1602 C 65.7664 43.5036 65.7236 44.3824 65.7236 44.3824 "/>
  </g>
  <path id="ID0.7001032647676766" fill="none" stroke="#646B70" stroke-width="0.5238095518561733" stroke-linecap="round" d="M 65.1336 44.6431 C 65.1336 44.6431 65.1961 44.2748 65.2355 44.0925 C 65.2726 43.921 65.4273 43.7448 65.3639 43.5811 C 65.2983 43.4118 65.0899 43.3243 64.917 43.2692 C 64.7507 43.2163 64.5677 43.273 64.3932 43.2718 C 64.2188 43.2706 63.9529 43.1083 63.8693 43.2614 C 63.669 43.6278 63.7186 44.5063 63.7186 44.5063 "/>
  <path id="ID0.7001032647676766" fill="none" stroke="#646B70" stroke-width="0.523809564376876" stroke-linecap="round" d="M 55.8016 43.3358 C 55.8016 43.3358 55.7742 42.9632 55.7522 42.7781 C 55.7315 42.6039 55.5942 42.4138 55.6728 42.2569 C 55.7541 42.0945 55.9698 42.0271 56.1471 41.9885 C 56.3177 41.9517 56.4946 42.0255 56.6683 42.0408 C 56.8421 42.0561 57.1222 41.9196 57.1909 42.08 C 57.3556 42.4637 57.2232 43.3335 57.2232 43.3335 "/>
  <path id="ID0.7001032647676766" fill="none" stroke="#646B70" stroke-width="0.523809564376876" stroke-linecap="round" d="M 57.3016 43.5358 C 57.3016 43.5358 57.2742 43.1632 57.2522 42.9781 C 57.2315 42.8039 57.0942 42.6138 57.1728 42.4569 C 57.2541 42.2945 57.4698 42.2271 57.6471 42.1885 C 57.8177 42.1517 57.9946 42.2255 58.1683 42.2408 C 58.3421 42.2561 58.6222 42.1196 58.6909 42.28 C 58.8556 42.6637 58.7232 43.5335 58.7232 43.5335 "/>
  <path id="ID0.7001032647676766" fill="none" stroke="#646B70" stroke-width="0.523809564376876" stroke-linecap="round" d="M 59.0516 43.7358 C 59.0516 43.7358 59.0242 43.3632 59.0022 43.1781 C 58.9815 43.0039 58.8442 42.8138 58.9228 42.6569 C 59.0041 42.4945 59.2198 42.4271 59.3971 42.3885 C 59.5677 42.3517 59.7446 42.4255 59.9183 42.4408 C 60.0921 42.4561 60.3722 42.3196 60.4409 42.48 C 60.6056 42.8637 60.4732 43.7335 60.4732 43.7335 "/>
  <path id="ID0.7001032647676766" fill="none" stroke="#646B70" stroke-width="0.523809564376876" stroke-linecap="round" d="M 60.5516 44.0358 C 60.5516 44.0358 60.5242 43.6632 60.5022 43.4781 C 60.4815 43.3039 60.3442 43.1138 60.4228 42.9569 C 60.5041 42.7945 60.7198 42.7271 60.8971 42.6885 C 61.0677 42.6517 61.2446 42.7255 61.4183 42.7408 C 61.5921 42.7561 61.8722 42.6196 61.9409 42.78 C 62.1056 43.1637 61.9732 44.0335 61.9732 44.0335 "/>
  <path id="ID0.7001032647676766" fill="none" stroke="#646B70" stroke-width="0.5238095243456282" stroke-linecap="round" d="M 62.1827 44.2998 C 62.1827 44.2998 62.1944 43.9264 62.192 43.74 C 62.1896 43.5646 62.073 43.3611 62.1677 43.2133 C 62.2655 43.0603 62.4871 43.016 62.6675 42.9962 C 62.841 42.9774 63.0092 43.0693 63.1804 43.1028 C 63.3516 43.1362 63.6444 43.0298 63.6959 43.1965 C 63.8195 43.5953 63.5967 44.4465 63.5967 44.4465 "/>
  <path id="ID0.44800941413268447" fill="none" stroke="#2E3234" stroke-width="0.6130029526345345" stroke-linecap="round" d="M 61.153 35.4327 L 63.0813 34.318 L 66.2664 35.6864 "/>
  <path id="ID0.44800941413268447" fill="none" stroke="#33383A" stroke-width="1.0503598154285965" stroke-linecap="round" d="M 63.5475 29.605 L 62.3569 25.1577 L 58.2369 22.2906 L 51.6918 21.7667 "/>
  <g id="ID0.6897007944062352">
    <path id="ID0.2692581438459456" fill="#7AABFF" stroke="none" d="M 55.588 25.4313 C 55.9142 25.3727 56.2328 25.4524 56.4849 25.6277 C 56.7371 25.803 56.9228 26.0738 56.9814 26.4 C 57.0401 26.7262 56.9604 27.0448 56.7851 27.2969 C 56.6098 27.5491 56.3389 27.7348 56.0127 27.7935 C 55.6865 27.8521 55.368 27.7724 55.1158 27.5971 C 54.8637 27.4218 54.678 27.1509 54.6193 26.8247 C 54.5607 26.4985 54.6404 26.18 54.8157 25.9278 C 54.991 25.6757 55.2618 25.49 55.588 25.4313 Z " stroke-width="1.1428571834676444"/>
    <path id="ID0.8070062398910522" fill="#192334" stroke="none" d="M 55.6922 26.0438 C 55.8278 26.0195 55.9612 26.0519 56.0659 26.1257 C 56.1715 26.1981 56.2484 26.3119 56.2728 26.4475 C 56.2972 26.5831 56.2647 26.7165 56.1909 26.8212 C 56.1185 26.9268 56.0047 27.0037 55.8691 27.0281 C 55.7335 27.0524 55.6001 27.02 55.4954 26.9462 C 55.3898 26.8738 55.3129 26.76 55.2886 26.6244 C 55.2642 26.4888 55.2966 26.3554 55.3704 26.2507 C 55.4428 26.1451 55.5566 26.0682 55.6922 26.0438 Z " stroke-width="1.111111096800003"/>
  </g>
  <g id="ID0.5823970721103251">
    <path id="ID0.2692581438459456" fill="#7AABFF" stroke="none" d="M 71.5917 27.1564 C 71.2836 27.0342 70.9556 27.0492 70.6737 27.171 C 70.3917 27.2928 70.156 27.5214 70.0338 27.8295 C 69.9116 28.1375 69.9265 28.4656 70.0483 28.7475 C 70.1701 29.0294 70.3987 29.2652 70.7068 29.3874 C 71.0149 29.5096 71.3429 29.4946 71.6248 29.3728 C 71.9067 29.251 72.1425 29.0224 72.2647 28.7143 C 72.3869 28.4063 72.3719 28.0782 72.2502 27.7963 C 72.1284 27.5144 71.8998 27.2786 71.5917 27.1564 Z " stroke-width="1.1428571772001261"/>
    <path id="ID0.8070062398910522" fill="#192334" stroke="none" d="M 71.1348 27.6658 C 71.0068 27.615 70.8696 27.6204 70.7523 27.6719 C 70.6344 27.7219 70.5365 27.8182 70.4857 27.9462 C 70.4349 28.0743 70.4403 28.2115 70.4918 28.3287 C 70.5418 28.4466 70.6381 28.5445 70.7661 28.5953 C 70.8942 28.6461 71.0314 28.6408 71.1486 28.5893 C 71.2665 28.5392 71.3645 28.443 71.4153 28.3149 C 71.4661 28.1869 71.4607 28.0497 71.4092 27.9324 C 71.3591 27.8145 71.2629 27.7166 71.1348 27.6658 Z " stroke-width="1.111111232134938"/>
  </g>
  <path id="ID0.023752907756716013" fill="none" stroke="#584E44" stroke-width="1.1814345405981526" stroke-linecap="round" d="M 75.5146 26.8778 L 72.3183 26.0484 L 69.7546 26.2729 "/>
  <path id="ID0.023752907756716013" fill="none" stroke="#584E44" stroke-width="1.1814346229798205" stroke-linecap="round" d="M 53.6072 24.8098 L 56.8861 24.4178 L 59.3963 24.985 "/>
  <g id="ID0.5880346246995032">
    <path id="ID0.6829322893172503" fill="#1D1E1F" stroke="none" stroke-linecap="round" d="M 13.1074 171.7043 L 23.0169 165.6873 L 26.7645 170.8828 L 31.3618 176.4117 L 31.8751 182.1038 L 31.6868 186.8344 L 29.9288 190.0671 L 29.1107 196.904 L 24.4167 197.1223 L 23.0136 195.1994 L 21.369 195.1427 L 17.8781 192.7932 L 14.1472 190.0555 L 11.711 185.7664 L 11.8826 178.5779 L 13.1074 171.7043 Z " stroke-width="0.8164596117178547"/>
    <g id="ID0.9434720128774643">
      <path id="ID0.6507829907350242" fill="#282828" stroke="none" stroke-linecap="round" d="M 1.7417 107.6206 L 21.5642 116.0805 L 21.7438 133.0746 L 21.7825 145.7775 L 23.2306 161.8375 L 26.1749 168.581 L 11.721 172.3846 L 11.8263 164.9152 L 9.1169 155.3222 L 5.1527 143.1781 L 3.1444 129.9969 L 1.7417 107.6206 Z " stroke-width="0.8164596117178547"/>
      <path id="ID0.9892375003546476" fill="none" stroke="#191919" stroke-width="2.000000140516466" stroke-linecap="round" d="M 12.0966 171.4761 L 25.2951 167.5249 L 22.0419 159.2838 "/>
    </g>
  </g>
</svg>