<svg xmlns="http://www.w3.org/2000/svg" xmlns:xlink="http://www.w3.org/1999/xlink" version="1.1" width="134.28285044537972" height="331.7612440000672" viewBox="3.914023786251791 1.1173237854888516 134.28285044537972 331.7612440000672">
  <defs>
    <linearGradient id="grad_1" y2="1" x2="0">
      <stop offset="0" stop-color="#222325" stop-opacity="1"/>
      <stop offset="1" stop-color="#2E3034" stop-opacity="1"/>
    </linearGradient>
  </defs>
  <!-- Exported by Scratch - http://scratch.mit.edu/ -->
  <path id="ID0.3809091211296618" fill="#393D40" stroke="none" stroke-linecap="round" d="M 54.8481 177.5306 L 73.7436 155.6118 L 92.5434 193.2649 L 96.1479 204.5683 L 98.5814 224.4632 L 91.6571 230.3269 L 80.1682 236.4577 L 71.6902 215.5211 L 68.7239 203.4835 L 54.8481 177.5306 Z " stroke-width="0.7589346751330774"/>
  <g id="ID0.6478251880034804">
    <path id="ID0.05466862628236413" fill="#292D2E" stroke="none" stroke-linecap="round" d="M 73.0832 227.8959 L 99.199 222.1548 L 95.6862 241.3089 L 94.4772 246.4495 L 95.1876 264.5781 L 94.9075 305.3296 L 79.4084 308.3283 L 75.6392 286.4007 L 72.2974 277.9843 L 70.2939 268.6781 L 71.4011 255.0556 L 70.5199 242.766 L 73.0832 227.8959 Z " stroke-width="0.7305889826728871"/>
    <path id="ID0.4490455654449761" fill="none" stroke="#272A2B" stroke-width="1.6585523496765937" stroke-linecap="round" d="M 72.866 228.2451 L 98.944 222.1193 L 93.9211 246.9513 "/>
    <path id="ID0.10446935473009944" fill="none" stroke="#242728" stroke-width="1.6585523496765937" stroke-linecap="round" d="M 94.4653 259.2762 L 95.5054 276.0824 L 85.5096 284.1554 "/>
    <path id="ID0.42170455446466804" fill="none" stroke="#242728" stroke-width="1.6585523496765937" stroke-linecap="round" d="M 94.4888 277.3223 L 94.1132 292.4506 L 83.9117 300.7325 "/>
    <path id="ID0.047098892275244" fill="none" stroke="#242728" stroke-width="1.6585523496765937" stroke-linecap="round" d="M 70.7338 242.5946 L 70.5401 246.5299 L 75.6585 255.0407 "/>
  </g>
  <g id="ID0.17693647183477879">
    <path id="ID0.7729651997797191" fill="#393C40" stroke="none" stroke-linecap="round" d="M 92.1165 105.5199 L 72.8088 105.8692 L 75.6246 122.1637 L 77.7946 135.3126 L 81.2593 140.9164 L 84.4258 144.3637 L 96.6269 141.5689 L 98.2282 135.9855 L 93.7855 116.6988 L 92.1165 105.5199 Z " stroke-width="0.7788098833621462"/>
    <path id="ID0.9716172609478235" fill="#34373A" stroke="none" stroke-linecap="round" d="M 87.9119 110.9148 L 92.6764 108.8566 L 91.1511 102.5557 L 73.6006 111.0866 L 76.3573 114.0879 L 81.5336 116.1005 L 87.9119 110.9148 Z " stroke-width="0.7788098833621462"/>
    <g id="ID0.38066427363082767">
      <path id="ID0.4757494777441025" fill="#1D1E1F" stroke="none" stroke-linecap="round" d="M 84.1978 81.3366 L 76.1165 78.9477 L 60.7175 82.9534 L 67.5142 107.5629 L 77.1816 112.7467 L 81.4491 113.9507 L 84.6084 111.8119 L 87.4515 109.0914 L 93.0028 106.8269 L 93.3379 101.6133 L 92.9848 93.8701 L 90.259 85.799 L 84.1978 81.3366 Z " stroke-width="0.454186045857352"/>
      <path id="ID0.6007084371522069" fill="none" stroke="#0D0D0D" stroke-width="0.908372091714704" stroke-linecap="round" d="M 92.5346 107.1479 L 87.565 109.0962 L 83.3316 112.4396 L 81.4443 114.0642 L 77.1816 112.7467 L 73.0757 110.413 "/>
    </g>
  </g>
  <g id="ID0.7397577832452953">
    <path id="ID0.6726378230378032" fill="#34373A" stroke="none" stroke-linecap="round" d="M 79.4538 137.6047 L 97.1515 136.8845 L 97.6286 139.1504 L 80.1813 139.5341 L 79.4538 137.6047 Z " stroke-width="0.7788099189803082"/>
    <path id="ID0.6507829907350242" fill="#1D1E1F" stroke="none" stroke-linecap="round" d="M 77.2082 140.1641 L 97.7329 138.9879 L 106.874 154.6234 L 110.5113 164.2705 L 118.5581 177.3792 L 122.3154 182.3835 L 113.544 190.0525 L 110.1185 184.8445 L 103.7359 177.7964 L 95.1995 169.1005 L 88.9187 162.2184 L 77.2082 140.1641 Z " stroke-width="0.7788099189803082"/>
    <path id="ID0.6829322893172503" fill="#1D1E1F" stroke="none" stroke-linecap="round" d="M 113.0084 189.9244 L 118.9245 180.5812 L 124.3296 183.4317 L 130.6022 186.2066 L 133.4542 190.8527 L 135.2992 194.9747 L 135.1677 198.4823 L 137.3676 204.6711 L 133.4492 206.8479 L 131.4351 205.7998 L 130.0057 206.4487 L 126.0266 205.9213 L 121.6779 205.1639 L 117.7777 202.532 L 114.8763 196.3169 L 113.0084 189.9244 Z " stroke-width="0.7788099189803082"/>
    <path id="ID0.47767175547778606" fill="none" stroke="#0D0D0D" stroke-width="1.5576198379606163" stroke-linecap="round" d="M 79.1843 143.3832 L 77.3794 139.9219 L 97.6666 139.0286 L 104.3886 150.5746 "/>
    <path id="ID0.5922487881034613" fill="#282A2B" stroke="none" stroke-linecap="round" d="M 93.4893 168.3833 L 96.4193 160.2793 L 101.438 157.2899 L 109.4566 159.0386 L 115.7716 171.9311 L 115.7239 180.4134 L 112.903 182.145 L 104.2581 179.2272 L 93.4893 168.3833 Z " stroke-width="0.7788099189803082"/>
    <path id="ID0.36820242274552584" fill="#151616" stroke="none" stroke-linecap="round" d="M 99.8291 167.4162 L 106.6912 163.1125 L 110.2457 173.8157 L 108.977 174.5031 L 99.8291 167.4162 Z " stroke-width="0.7788099189803082"/>
    <path id="ID0.13569410238415003" fill="none" stroke="#232425" stroke-width="1.5576198379606163" stroke-linecap="round" d="M 104.7805 176.744 L 113.012 179.7328 L 113.593 171.1516 "/>
    <path id="ID0.024502143263816833" fill="none" stroke="#0D0D0D" stroke-width="1.5576198379606163" stroke-linecap="round" d="M 93.6243 167.8743 L 96.1198 160.4024 L 100.9092 157.1882 L 108.9943 158.8962 L 112.5422 166.3136 "/>
  </g>
  <path id="ID0.5368814701214433" fill="#292D2E" stroke="none" stroke-linecap="round" d="M 78.9291 315.9078 L 80.5118 306.7548 L 83.6233 296.9581 L 94.3386 301.3195 L 106.5861 307.254 L 125.3547 314.9758 L 127.3595 321.2683 L 103.0889 325.989 L 81.5374 325.4181 L 78.9291 315.9078 Z " stroke-width="0.7702165310315767"/>
  <g id="ID0.3168069599196315">
    <path id="ID0.3809091211296618" fill="#3E4246" stroke="none" stroke-linecap="round" d="M 23.4153 157.2007 L 48.8429 165.5876 L 59.6435 202.8475 L 60.8963 213.7214 L 59.2861 232.2632 L 51.3563 236.561 L 38.9197 240.4056 L 33.9371 219.2114 L 29.5841 206.5213 L 23.4153 157.2007 Z " stroke-width="0.7305889958327692"/>
    <g id="ID0.38464318960905075">
      <path id="ID0.5368814701214433" fill="#303436" stroke="none" stroke-linecap="round" d="M 51.6607 322.7002 L 52.7275 313.4729 L 55.2847 303.5171 L 66.2278 307.2707 L 78.7888 312.5089 L 97.961 319.1659 L 100.3156 325.3361 L 76.3479 331.4106 L 54.7983 332.0493 L 51.6607 322.7002 Z " stroke-width="0.7702165550305771"/>
      <path id="ID0.05466862628236413" fill="#303436" stroke="none" stroke-linecap="round" d="M 36.4574 234.1038 L 61.5286 224.8068 L 60.6979 244.2626 L 60.2112 249.521 L 63.4214 267.3773 L 68.7785 307.7761 L 53.8429 312.889 L 47.0781 291.6932 L 42.6047 283.8196 L 39.3337 274.8798 L 38.5467 261.2351 L 35.9748 249.1854 L 36.4574 234.1038 Z " stroke-width="0.7305889958327692"/>
      <path id="ID0.4490455654449761" fill="none" stroke="#272A2B" stroke-width="1.6585522713470546" stroke-linecap="round" d="M 36.5124 234.9637 L 61.4929 225.2911 L 59.9518 250.579 "/>
      <path id="ID0.10446935473009944" fill="none" stroke="#242728" stroke-width="1.6585522713470546" stroke-linecap="round" d="M 62.1948 262.7104 L 65.5486 279.2113 L 56.7651 288.5888 "/>
      <path id="ID0.42170455446466804" fill="none" stroke="#242728" stroke-width="1.6585522713470546" stroke-linecap="round" d="M 64.7133 280.5798 L 66.4329 295.6147 L 57.4746 305.2276 "/>
      <path id="ID0.047098892275244" fill="none" stroke="#242728" stroke-width="1.6585522713470546" stroke-linecap="round" d="M 36.3846 249.4674 L 36.7368 253.3918 L 42.9829 261.1131 "/>
    </g>
  </g>
  <g id="ID0.17693647183477879">
    <path id="ID0.7729651997797191" fill="#3E4246" stroke="none" stroke-linecap="round" d="M 8.2431 106.8893 L 28.0908 102.9009 L 28.8755 120.2185 L 29.6135 134.17 L 27.3274 140.6875 L 24.8612 144.93 L 11.7395 144.8149 L 8.8432 139.4585 L 9.0506 118.7109 L 8.2431 106.8893 Z " stroke-width="0.8164595737015791"/>
    <path id="ID0.9716172609478235" fill="#393C40" stroke="none" stroke-linecap="round" d="M 13.7626 111.4667 L 8.421 110.4317 L 8.5644 103.637 L 28.4545 108.4211 L 26.3075 112.1146 L 21.4606 115.3406 L 13.7626 111.4667 Z " stroke-width="0.8164595737015791"/>
    <g id="ID0.38066427363082767">
      <path id="ID0.4757494777441025" fill="#1D1E1F" stroke="none" stroke-linecap="round" d="M 10.9189 80.3375 L 18.6556 76.0725 L 35.3242 76.7076 L 33.9046 103.4349 L 25.1731 110.9186 L 21.0747 113.1121 L 17.3584 111.6333 L 13.835 109.4878 L 7.6413 108.4187 L 6.1247 103.156 L 4.7433 95.1484 L 5.7174 86.2708 L 10.9189 80.3375 Z " stroke-width="0.4761425580234163"/>
      <path id="ID0.6007084371522069" fill="none" stroke="#0D0D0D" stroke-width="0.9522851160468326" stroke-linecap="round" d="M 8.193 108.6421 L 13.72 109.5183 L 18.807 111.9886 L 21.1052 113.2271 L 25.1731 110.9186 L 28.8518 107.605 "/>
    </g>
  </g>
  <g id="ID0.9157347986474633">
    <path id="ID0.7477802094072104" fill="#363A3D" stroke="none" stroke-linecap="round" d="M 82.3456 127.2814 L 63.0345 122.9581 L 60.4332 164.0622 L 76.501 174.0246 L 80.3307 149.6966 L 82.3456 127.2814 Z " stroke-width="0.47614255933376687"/>
    <path id="ID0.7477802094072104" fill="#363A3D" stroke="none" stroke-linecap="round" d="M 22.143 123.4631 L 45.7266 122.0931 L 43.1253 163.1972 L 25.9297 171.0545 L 22.0514 145.6423 L 22.143 123.4631 Z " stroke-width="0.47614255933376687"/>
    <path id="ID0.4270821204409003" fill="#3E4246" stroke="none" stroke-linecap="round" d="M 23.7585 103.46 L 28.3494 91.2268 L 30.975 85.5485 L 37.9524 78.953 L 68.8685 82.3408 L 75.4881 87.0536 L 78.0837 91.2731 L 84.371 103.1213 L 82.9966 113.5304 L 81.7004 118.935 L 82.9275 125.9305 L 83.0569 131.4253 L 80.4824 138.1803 L 78.536 143.3051 L 76.7616 152.4962 L 76.8751 174.4498 L 71.2243 182.322 L 66.0561 188.2211 L 53.6197 192.8729 L 42.2397 189.1231 L 38.7434 182.1748 L 34.2074 175.447 L 25.8732 171.8184 L 26.3341 146.4423 L 25.5671 139.7144 L 21.727 128.0211 L 21.1044 117.1278 L 23.7585 103.46 Z " stroke-width="0.47614255933376687"/>
    <path id="ID0.052435632329434156" fill="#393C40" stroke="none" stroke-linecap="round" d="M 32.7017 154.009 L 37.1417 154.3377 L 43.5157 158.033 L 48.587 158.187 L 54.3428 160.3403 L 58.5922 159.5358 L 60.2854 159.1658 L 74.6849 156.6659 L 74.8338 159.9673 L 66.0172 163.5839 L 60.0969 162.8991 L 54.3209 165.587 L 47.8907 161.6495 L 41.4486 161.6712 L 31.8289 157.2457 L 32.7017 154.009 Z " stroke-width="0.47614255933376687"/>
    <path id="ID0.4987568911164999" fill="none" stroke="#27282B" stroke-width="0.9522851186675337" stroke-linecap="round" d="M 37.6944 79.6393 L 30.8884 85.4108 L 26.9305 95.1793 "/>
    <path id="ID0.2889464790932834" fill="none" stroke="#27282B" stroke-width="0.9522851186675337" stroke-linecap="round" d="M 70.1549 83.1248 L 75.6166 87.2872 L 80.7325 96.9144 "/>
    <path id="ID0.8373676878400147" fill="#000000" stroke="#2C2F31" stroke-width="0.6155104074924348" stroke-linecap="round" d="M 40.4695 92.8468 L 40.9097 91.3405 L 37.2204 92.023 L 32.1676 95.058 L 27.7343 99.8461 L 24.9406 105.3177 L 30.2064 103.3825 L 34.902 103.56 L 37.5879 104.6436 L 39.9401 107.7833 L 42.1031 106.8906 L 46.1222 106.8547 L 50.5643 108.1686 L 54.2062 111.5752 L 56.0918 114.7515 L 58.4285 111.8659 L 62.3115 108.9607 L 66.5075 107.7817 L 71.6563 108.076 L 73.4491 108.7728 L 75.3326 105.7705 L 77.3623 104.6345 L 79.9283 105.3215 L 82.6307 107.1016 L 81.425 103.2123 L 79.3829 99.1728 L 76.7241 96.0063 L 73.6919 93.5796 L 69.2365 92.419 L 71.2989 94.4523 L 71.1453 96.2152 L 69.4253 98.2277 L 65.7859 99.2235 L 62.61 99.3329 L 59.9906 99.2591 L 57.6918 95.5061 L 57.1282 97.5422 L 55.6719 97.4153 L 54.2693 94.8989 L 53.0588 99.0411 L 48.9764 98.917 L 44.9109 97.7132 L 41.6519 96.1163 L 40.4695 92.8468 Z "/>
    <path id="ID0.5698574706912041" fill="none" stroke="#313537" stroke-width="0.9522851186675337" stroke-linecap="round" d="M 32.641 153.8381 L 31.844 157.0081 L 41.4411 161.79 L 48.2351 161.8622 L 54.0908 165.4531 "/>
    <path id="ID0.5698574706912041" fill="none" stroke="#313537" stroke-width="0.8933066128895524" stroke-linecap="round" d="M 74.3554 156.6876 L 74.6702 159.9279 L 65.8115 163.5418 L 59.931 162.8119 L 54.4464 165.6852 "/>
    <path id="ID0.8947288258932531" fill="#393C40" stroke="none" stroke-linecap="round" d="M 34.7026 141.9935 L 41.7192 142.3183 L 49.1307 144.6957 L 54.4366 150.5658 L 47.6329 145.746 L 36.9883 143.5695 L 31.689 146.2636 L 34.7026 141.9935 Z " stroke-width="0.47614255933376687"/>
    <path id="ID0.8947288258932531" fill="#393C40" stroke="none" stroke-linecap="round" d="M 73.3252 145.4697 L 67.129 144.972 L 60.3571 146.2323 L 55.0441 150.7938 L 61.5548 147.3215 L 71.1427 146.5983 L 75.4944 149.5547 L 73.3252 145.4697 Z " stroke-width="0.4213738745639791"/>
    <path id="ID0.9897695370018482" fill="#393C40" stroke="none" stroke-linecap="round" d="M 37.3733 154.4477 L 30.8695 153.559 L 31.5904 148.953 L 32.5573 152.5208 L 37.6329 152.9852 L 43.5418 156.8658 L 49.0291 156.8552 L 53.0255 158.5394 L 54.8998 150.786 L 54.5179 160.5899 L 49.0607 158.2408 L 43.192 157.8694 L 37.3733 154.4477 Z " stroke-width="0.47614255933376687"/>
    <path id="ID0.9897695370018482" fill="#393C40" stroke="none" stroke-linecap="round" d="M 69.5619 156.7376 L 75.1155 156.6453 L 75.0265 152.3135 L 73.8163 155.4982 L 69.5079 155.3587 L 64.1183 158.2789 L 59.5178 157.6549 L 55.9778 158.762 L 55.2739 151.3962 L 54.4968 160.4875 L 59.3362 158.9302 L 64.2992 159.2443 L 69.5619 156.7376 Z " stroke-width="0.4232251110680251"/>
    <path id="ID0.3524594851769507" fill="#393C40" stroke="none" stroke-linecap="round" d="M 49.9699 120.4678 L 55.7239 123.0266 L 60.3143 120.9794 L 56.9137 124.5809 L 57.1604 135.7606 L 66.2669 135.4781 L 55.6347 138.3834 L 44.2887 132.966 L 53.831 135.5976 L 54.1398 124.31 L 49.9699 120.4678 Z " stroke-width="0.47614255933376687"/>
    <path id="ID0.9214867809787393" fill="#393C40" stroke="none" stroke-linecap="round" d="M 34.9477 138.1207 L 38.1838 134.1032 L 42.9958 133.4536 L 36.874 137.8371 L 36.4514 140.7445 L 41.4855 141.1108 L 49.432 144.8341 L 40.5949 142.3664 L 34.7501 141.9965 L 34.9477 138.1207 Z " stroke-width="0.47614255933376687"/>
    <path id="ID0.9214867809787393" fill="#393C40" stroke="none" stroke-linecap="round" d="M 73.2534 141.3219 L 70.7893 137.1365 L 66.4978 135.9543 L 71.5383 140.8263 L 71.5792 143.6291 L 66.9664 143.3827 L 60.1549 145.7973 L 67.6268 144.6766 L 72.9761 145.0151 L 73.2534 141.3219 Z " stroke-width="0.44517883969390337"/>
    <path id="ID0.8679121839813888" fill="#2C2F31" stroke="none" stroke-linecap="round" d="M 51.9898 119.4952 L 55.6891 121.3514 L 59.1192 119.9225 L 60.0094 120.9331 L 55.9207 123.346 L 50.3122 120.7488 L 51.9898 119.4952 Z " stroke-width="0.47614255933376687"/>
    <path id="ID0.24770551454275846" fill="none" stroke="#313537" stroke-width="0.9522851186675337" stroke-linecap="round" d="M 56.1189 117.8549 L 60.5264 121.712 L 67.9806 122.6609 L 75.6514 122.0729 L 81.1191 118.6021 "/>
    <path id="ID0.20603158557787538" fill="none" stroke="#313537" stroke-width="0.9522851186675337" stroke-linecap="round" d="M 23.1381 111.7569 L 29.8089 117.5464 L 41.9609 121.5358 L 49.2451 121.4004 L 55.6707 117.8711 "/>
    <g id="ID0.5272086253389716">
      <path id="ID0.24770551454275846" fill="none" stroke="#363A3D" stroke-width="0.9522850591818922" stroke-linecap="round" d="M 24.4851 144.3866 L 34.569 141.8521 "/>
      <path id="ID0.24770551454275846" fill="none" stroke="#363A3D" stroke-width="0.9522850591818922" stroke-linecap="round" d="M 22.6409 132.3132 L 43.419 127.4021 "/>
    </g>
    <g id="ID0.5272086253389716">
      <path id="ID0.24770551454275846" fill="none" stroke="#363A3D" stroke-width="0.9522850584414521" stroke-linecap="round" d="M 79.8538 146.9316 L 73.0449 144.6646 "/>
      <path id="ID0.24770551454275846" fill="none" stroke="#363A3D" stroke-width="0.9522850584414521" stroke-linecap="round" d="M 81.0763 135.572 L 67.5298 129.9443 "/>
    </g>
    <g id="ID0.7887678607366979">
      <path id="ID0.753661650698632" fill="none" stroke="#313537" stroke-width="0.9522850591818922" stroke-linecap="round" d="M 50.4375 120.6167 L 55.5143 123.3235 L 59.7188 120.9655 "/>
      <g id="ID0.8167418288066983">
        <path id="ID0.9553722990676761" fill="none" stroke="#313537" stroke-width="1.040910775885576" stroke-linecap="round" d="M 55.1983 138.1901 L 49.7321 135.6972 L 43.6906 133.4065 L 38.8691 134.0555 L 35.0974 138.1107 L 34.8794 141.5559 "/>
        <path id="ID0.5982440118677914" fill="none" stroke="#313537" stroke-width="0.8540413134494141" stroke-linecap="round" d="M 44.029 133.0089 L 43.1753 127.651 L 48.8482 120.9381 "/>
      </g>
      <g id="ID0.7324484633281827">
        <path id="ID0.04993448918685317" fill="none" stroke="#313537" stroke-width="0.9522850591818922" stroke-linecap="round" d="M 55.5218 123.2047 L 55.573 133.704 L 55.0107 150.1282 L 54.2183 166.4186 "/>
        <g id="ID0.8167418288066983">
          <path id="ID0.9553722990676761" fill="none" stroke="#313537" stroke-width="0.969970293017866" stroke-linecap="round" d="M 55.4676 138.1094 L 60.5786 137.0731 L 66.1185 135.5153 L 70.2461 136.7308 L 73.0547 141.2024 L 72.8367 144.6475 "/>
          <path id="ID0.5982440118677914" fill="none" stroke="#313537" stroke-width="0.7916616013177187" stroke-linecap="round" d="M 65.911 135.1564 L 67.2902 129.9398 L 63.1385 122.6052 "/>
          <path id="ID0.3567589442245662" fill="none" stroke="#313537" stroke-width="0.896765498814263" stroke-linecap="round" d="M 54.8148 150.7578 L 60.2489 146.1161 L 67.6834 144.6782 L 73.2003 145.0273 L 75.1432 149.8019 L 74.9921 156.8295 L 69.4092 157.1919 L 63.5714 159.9235 L 58.6755 159.3751 L 54.3593 160.9388 L 48.6868 158.0751 L 43.0921 157.9595 L 36.872 154.4648 L 30.627 153.3539 L 31.4049 146.366 L 34.2476 141.8942 L 40.5169 142.291 L 48.7138 144.7181 L 54.2091 150.0515 Z "/>
        </g>
      </g>
    </g>
    <g id="ID0.9312638868577778">
      <path id="ID0.2888958193361759" fill="#393C40" stroke="none" stroke-linecap="round" d="M 34.7085 162.2503 L 44.7736 164.9758 L 43.9958 167.8482 L 33.9307 165.1228 L 34.7085 162.2503 Z " stroke-width="0.47614255404700634"/>
      <path id="ID0.2888958193361759" fill="#393C40" stroke="none" stroke-linecap="round" d="M 24.0758 159.4932 L 35.3736 162.6758 L 34.5958 165.5482 L 24.5307 162.8228 L 24.0758 159.4932 Z " stroke-width="0.47614255404700634"/>
      <g id="ID0.36424446757882833">
        <path id="ID0.7359844641759992" fill="#8A7B59" stroke="none" d="M 37.6186 161.6888 L 39.1392 161.785 L 38.7452 168.01 L 37.2246 167.9138 L 37.6186 161.6888 Z " stroke-width="0.4761425295909461"/>
        <path id="ID0.7359844641759992" fill="#8A7B59" stroke="none" d="M 35.7686 161.1888 L 37.2892 161.285 L 36.8952 167.51 L 35.3746 167.4138 L 35.7686 161.1888 Z " stroke-width="0.4761425295909461"/>
        <path id="ID0.7359844641759992" fill="#8A7B59" stroke="none" d="M 33.8686 160.3888 L 35.3892 160.485 L 34.9952 166.71 L 33.4746 166.6138 L 33.8686 160.3888 Z " stroke-width="0.4761425295909461"/>
        <path id="ID0.7359844641759992" fill="#8A7B59" stroke="none" d="M 39.4686 162.3388 L 40.9892 162.435 L 40.5952 168.66 L 39.0746 168.5638 L 39.4686 162.3388 Z " stroke-width="0.4761425295909461"/>
      </g>
      <g id="ID0.1049797898158431">
        <path id="ID0.08871637750416994" fill="#8A7B59" stroke="none" stroke-linecap="round" d="M 25.8476 158.9078 L 32.1727 160.3577 L 31.7718 165.9382 L 25.6858 164.4796 L 25.8476 158.9078 Z " stroke-width="0.4761425295909461"/>
        <path id="ID0.13805592898279428" fill="#76694C" stroke="none" stroke-linecap="round" d="M 25.6787 158.6487 L 32.3128 160.1182 L 32.2259 162.9991 L 25.5741 161.4331 L 25.6787 158.6487 Z " stroke-width="0.4761425295909461"/>
        <path id="ID0.3221200187690556" fill="#61563F" stroke="none" stroke-linecap="round" d="M 28.3293 160.9957 L 29.1832 161.4122 L 29.1496 163.1707 L 28.2167 162.775 L 28.3293 160.9957 Z " stroke-width="0.5167888742762596"/>
        <path id="ID0.1420820001512766" fill="#BAA578" stroke="none" stroke-linecap="round" d="M 31.1669 164.9813 L 31.9699 163.6008 L 31.8716 165.9085 L 25.686 164.5152 L 31.1669 164.9813 Z " stroke-width="0.4761425295909461"/>
      </g>
      <path id="ID0.2888958193361759" fill="#393C40" stroke="none" stroke-linecap="round" d="M 72.1788 165.0063 L 64.6557 166.347 L 64.9268 168.9057 L 72.4499 167.5651 L 72.1788 165.0063 Z " stroke-width="0.3810469724634369"/>
      <path id="ID0.2888958193361759" fill="#393C40" stroke="none" stroke-linecap="round" d="M 78.8099 163.6016 L 71.7057 165.097 L 71.9768 167.6557 L 78.2052 166.4832 L 78.8099 163.6016 Z " stroke-width="0.3810469724634369"/>
      <path id="ID0.7359844641759992" fill="#8A7B59" stroke="none" d="M 70.2292 163.8249 L 69.1244 163.755 L 68.7817 169.1701 L 69.8865 169.2401 L 70.2292 163.8249 Z " stroke-width="0.3816027961705486"/>
      <path id="ID0.7359844641759992" fill="#8A7B59" stroke="none" d="M 71.6292 163.4249 L 70.5244 163.355 L 70.1817 168.7701 L 71.2865 168.8401 L 71.6292 163.4249 Z " stroke-width="0.3816027961705486"/>
      <path id="ID0.7359844641759992" fill="#8A7B59" stroke="none" d="M 73.1792 163.0749 L 72.0744 163.005 L 71.7317 168.4201 L 72.8365 168.4901 L 73.1792 163.0749 Z " stroke-width="0.3816027961705486"/>
      <path id="ID0.7359844641759992" fill="#8A7B59" stroke="none" d="M 68.7292 164.3249 L 67.6244 164.255 L 67.2817 169.6701 L 68.3865 169.7401 L 68.7292 164.3249 Z " stroke-width="0.3816027961705486"/>
      <g id="ID0.1049797898158431">
        <path id="ID0.08871637750416994" fill="#8A7B59" stroke="none" stroke-linecap="round" d="M 79.0991 162.574 L 74.104 163.228 L 73.8141 168.391 L 78.6272 167.7034 L 79.0991 162.574 Z " stroke-width="0.40545296414111964"/>
        <path id="ID0.13805592898279428" fill="#76694C" stroke="none" stroke-linecap="round" d="M 79.362 162.4093 L 74.1284 163.0482 L 73.8869 165.7007 L 79.1444 164.9751 L 79.362 162.4093 Z " stroke-width="0.40545296414111964"/>
        <path id="ID0.3221200187690556" fill="#61563F" stroke="none" stroke-linecap="round" d="M 77.1671 164.2278 L 76.4691 164.5187 L 76.3068 166.1357 L 77.063 165.8725 L 77.1671 164.2278 Z " stroke-width="0.4400647962426856"/>
        <path id="ID0.1420820001512766" fill="#BAA578" stroke="none" stroke-linecap="round" d="M 74.4799 167.6285 L 74.013 166.2761 L 73.8415 168.4039 L 78.7239 167.7868 L 74.4799 167.6285 Z " stroke-width="0.40545296414111964"/>
      </g>
      <g id="ID0.6836685389280319">
        <path id="ID0.09357938077300787" fill="#857656" stroke="none" d="M 45.4872 162.1536 L 63.4257 163.2888 L 63.0197 169.7039 L 45.0812 168.5686 L 45.4872 162.1536 Z " stroke-width="0.4283320605831313"/>
        <path id="ID0.6492703901603818" fill="#7C6E50" stroke="none" stroke-linecap="round" d="M 46.0249 164.3702 L 54.0265 167.9777 L 63.0367 165.4468 L 62.7676 169.6997 L 45.7557 168.6231 L 46.0249 164.3702 Z " stroke-width="0.4761425295909461"/>
        <g id="ID0.9254062357358634">
          <g id="ID0.49943465692922473">
            <path id="ID0.140373723115772" fill="#968561" stroke="none" d="M 61.9769 161.9925 L 67.0853 162.3158 L 66.5139 171.3445 L 61.4056 171.0212 L 61.9769 161.9925 Z " stroke-width="0.4761425295909461"/>
            <path id="ID0.8286363878287375" fill="#BAA578" stroke="none" stroke-linecap="round" d="M 61.9515 161.8269 L 67.1636 162.3953 L 62.9813 162.894 L 61.8243 164.9677 L 61.9515 161.8269 Z " stroke-width="0.4761425295909461"/>
            <path id="ID0.7362233307212591" fill="#8A7B59" stroke="none" stroke-linecap="round" d="M 61.5904 167.9109 L 64.2959 168.1298 L 66.8966 165.8612 L 66.5432 171.4447 L 61.3874 171.1184 L 61.5904 167.9109 Z " stroke-width="0.4761425295909461"/>
          </g>
          <g id="ID0.49943465692922473">
            <path id="ID0.140373723115772" fill="#968561" stroke="none" d="M 46.9075 161.3269 L 41.7991 161.0037 L 41.2278 170.0323 L 46.3361 170.3556 L 46.9075 161.3269 Z " stroke-width="0.4761425295909461"/>
            <path id="ID0.8286363878287375" fill="#BAA578" stroke="none" stroke-linecap="round" d="M 46.9618 161.1252 L 41.7197 161.032 L 45.8057 162.0539 L 46.6921 164.257 L 46.9618 161.1252 Z " stroke-width="0.4761425295909461"/>
            <path id="ID0.7362233307212591" fill="#8A7B59" stroke="none" stroke-linecap="round" d="M 46.5531 167.2062 L 43.8415 167.0823 L 41.5477 164.5039 L 41.1943 170.0874 L 46.3501 170.4137 L 46.5531 167.2062 Z " stroke-width="0.4761425295909461"/>
          </g>
        </g>
      </g>
    </g>
  </g>
  <g id="ID0.8333355090580881">
    <path id="ID0.9286923445761204" fill="#27282B" stroke="none" stroke-linecap="round" d="M 45.581 45.3911 L 64.3091 47.6637 L 63.7515 72.0167 L 78.6714 79.7988 L 55.3553 90.1749 L 19.2576 76.0844 L 39.5682 66.3432 L 45.581 45.3911 Z " stroke-width="0.47614258940621446"/>
    <path id="ID0.5448851804248989" fill="none" stroke="#1D1E1F" stroke-width="0.9522851788124289" stroke-linecap="round" d="M 41.2397 60.6476 L 39.7665 66.161 L 56.5113 74.7355 L 63.4621 72.0997 "/>
    <path id="ID0.262191956397146" fill="none" stroke="#1D1E1F" stroke-width="0.9522851788124289" stroke-linecap="round" d="M 43.7888 65.7122 L 56.2277 72.4359 L 59.2722 71.4452 "/>
  </g>
  <g id="ID0.3450673264451325">
    <g id="ID0.9831569031812251">
      <path id="ID0.0877610077150166" fill="#2E3034" stroke="none" stroke-linecap="round" d="M 77.5532 18.8658 L 75.9776 5.0648 L 69.7032 32.8949 L 77.1867 34.5821 L 77.5532 18.8658 Z " stroke-width="0.5866066587891765"/>
      <path id="ID0.796130308881402" fill="#242628" stroke="none" stroke-linecap="round" d="M 77.834 18.9044 L 75.9115 5.0252 L 76.3372 19.3065 L 73.9799 34.036 L 77.1422 34.4465 L 77.834 18.9044 Z " stroke-width="0.5866066587891765"/>
    </g>
    <g id="ID0.9831569031812251">
      <path id="ID0.0877610077150166" fill="#2E3034" stroke="none" stroke-linecap="round" d="M 54.2446 13.7364 L 61.5898 1.9466 L 55.3154 29.7767 L 47.8319 28.0895 L 54.2446 13.7364 Z " stroke-width="0.5866066587891765"/>
      <path id="ID0.796130308881402" fill="#242628" stroke="none" stroke-linecap="round" d="M 53.865 13.7159 L 61.5571 2.0043 L 55.0445 14.7213 L 50.7768 28.6841 L 47.8208 28.0512 L 53.865 13.7159 Z " stroke-width="0.5866066587891765"/>
    </g>
    <path id="ID0.8999492498114705" fill="#2E3034" stroke="none" stroke-linecap="round" d="M 70.1048 23.3153 C 74.2958 24.7512 78.3157 28.4359 79.5417 32.6927 C 80.9402 37.5524 77.8087 42.5855 77.0025 47.5247 C 76.7968 49.2245 77.1845 51.1086 76.5046 52.6203 C 75.1209 55.695 72.8217 58.2816 71.0643 61.1586 C 69.9127 63.0441 69.2442 65.3072 67.6853 66.9066 C 65.9062 68.8147 63.9071 71.5767 61.2709 71.4495 C 57.3628 71.2606 53.791 68.568 50.812 66.097 C 48.3647 64.0668 46.2627 61.3253 45.3366 58.2746 C 43.7175 52.6355 42.4641 46.5508 43.382 40.726 C 44.3998 34.2691 45.4224 26.2311 51.0971 22.6754 C 56.244 19.1805 63.874 21.1835 70.1048 23.3153 Z " stroke-width="0.5080372850505572"/>
    <path id="ID0.2441388238221407" fill="#AB8E85" stroke="none" d="M 62.3691 47.0214 C 66.3126 48.0817 72.3145 46.1907 74.3689 49.4694 C 76.1942 52.5367 71.8393 56.5382 70.1283 59.7133 C 68.4252 62.8709 66.9316 66.3666 64.121 68.6579 C 62.8007 69.6604 60.6141 69.2408 58.9858 68.5944 C 56.0586 67.4285 53.3541 65.5031 51.2169 63.1855 C 49.0051 60.7879 45.9905 58.0279 46.1424 54.7562 C 46.3352 50.6119 48.1699 45.495 51.8567 43.6858 C 55.2131 42.1369 58.8225 46.0674 62.3691 47.0214 Z " stroke-width="1.255840046012992"/>
    <path id="ID0.46721756737679243" fill="#A2887F" stroke="none" stroke-linecap="round" d="M 47.8448 44.8967 L 49.3294 45.9345 L 74.7878 51.2836 L 66.633 54.6529 L 50.8449 48.5676 L 51.4101 51.1427 L 50.4232 56.675 L 52.3857 64.4866 L 49.3946 56.9639 L 47.8448 44.8967 Z " stroke-width="0.5080372850505572"/>
    <path id="ID0.8256730306893587" fill="none" stroke="#937B73" stroke-width="1.0160745701011145" stroke-linecap="round" d="M 55.9363 58.8105 C 55.9363 58.8105 58.7006 58.8223 60.0743 58.9362 C 60.4179 58.9647 60.7308 59.1149 61.0487 59.234 C 61.3719 59.3553 61.6562 59.5912 61.9952 59.6557 C 62.6673 59.7838 63.3634 59.7387 64.0447 59.8053 C 64.3825 59.8382 64.7225 59.8758 65.0526 59.9544 C 65.3833 60.0331 65.7153 60.1288 66.0215 60.277 C 66.5248 60.5207 67.4709 61.1246 67.4709 61.1246 "/>
    <path id="ID0.7592270169407129" fill="none" stroke="#937B73" stroke-width="1.0160745701011145" stroke-linecap="round" d="M 63.9733 61.9389 C 63.9733 61.9389 63.2908 62.1387 62.9423 62.1231 C 62.604 62.1083 62.2983 61.8909 61.9623 61.8501 C 61.6241 61.8092 61.2789 61.9126 60.94 61.88 C 60.603 61.8478 60.2539 61.8024 59.9488 61.6565 C 59.6893 61.5324 59.2948 61.0924 59.2948 61.0924 "/>
    <path id="ID0.5332203092984855" fill="none" stroke="#937B73" stroke-width="1.0160745701011145" stroke-linecap="round" d="M 60.2727 51.4483 C 60.2727 51.4483 59.587 51.7364 59.4113 52.0353 C 59.1802 52.4368 58.7461 53.205 59.1089 53.6076 C 59.6116 54.0183 60.5114 53.4759 61.1751 53.6828 C 61.8168 53.8858 62.9962 54.6142 62.9962 54.6142 "/>
    <path id="ID0.2278452254831791" fill="none" stroke="#937B73" stroke-width="1.0160745701011145" stroke-linecap="round" d="M 65.3146 48.8353 C 65.3146 48.8353 65.8164 50.8577 66.0629 51.8684 C 66.1455 52.2067 66.2448 52.5426 66.3023 52.8858 C 66.3598 53.2289 66.4963 53.5889 66.4065 53.9248 C 66.3165 54.2618 66.0445 54.5306 65.7978 54.7771 C 65.633 54.942 65.196 55.1362 65.196 55.1362 "/>
    <path id="ID0.6473136460408568" fill="none" stroke="#937B73" stroke-width="1.0160745792763102" stroke-linecap="round" d="M 61.9428 65.4652 C 61.9428 65.4652 62.1122 66.1542 62.0861 66.5015 C 62.0602 66.8396 61.9252 67.1654 61.79 67.4764 C 61.5865 67.9452 61.0734 68.8333 61.0734 68.8333 "/>
    <path id="ID0.11669129692018032" fill="#2E3034" stroke="none" stroke-linecap="round" d="M 50.9012 40.1175 L 73.1838 46.9639 L 76.4381 50.4317 L 66.236 52.949 L 46.599 45.9178 L 50.9012 40.1175 Z " stroke-width="0.5080372850505572"/>
    <path id="ID0.14635155349969864" fill="#2E3034" stroke="none" stroke-linecap="round" d="M 47.1429 44.6603 L 48.868 45.4399 L 50.2999 51.1008 L 49.329 56.7928 L 50.2752 60.9121 L 52.3236 64.9934 L 45.4401 58.1034 L 47.1429 44.6603 Z " stroke-width="0.5080372850505572"/>
    <path id="ID0.28340246016159654" fill="#1C1D1F" stroke="none" stroke-linecap="round" d="M 51.7758 37.0767 L 54.7829 39.3326 L 64.018 42.3282 L 62.753 47.9395 L 56.1905 45.4911 L 52.6608 43.588 L 51.0177 41.6673 L 50.5548 39.7912 L 51.7758 37.0767 Z " stroke-width="0.5401026835669351"/>
    <path id="ID0.6101007834076881" fill="#FFFFFF" stroke="none" stroke-linecap="round" d="M 54.9367 40.4038 L 56.461 41.1573 L 59.8842 43.1604 L 59.9827 45.2003 L 55.1762 42.6273 L 54.9367 40.4038 Z " stroke-width="0.406106193875527"/>
    <path id="ID0.28340246016159654" fill="#1C1D1F" stroke="none" stroke-linecap="round" d="M 76.6736 42.7178 L 73.3883 43.3842 L 64.8035 42.2634 L 63.6754 47.2671 L 69.8981 47.806 L 73.4693 47.6237 L 75.5277 46.7054 L 76.6184 45.3714 L 76.6736 42.7178 Z " stroke-width="0.4816250143605981"/>
    <path id="ID0.6101007834076881" fill="#FFFFFF" stroke="none" stroke-linecap="round" d="M 74.5887 44.3729 L 72.9769 44.5132 L 69.2499 45.104 L 68.4567 46.8778 L 73.607 46.2606 L 74.5887 44.3729 Z " stroke-width="0.3863867588988807"/>
    <g id="ID0.07940126257017255">
      <path id="ID0.46257128613069654" fill="#27282B" stroke="none" stroke-linecap="round" d="M 64.2218 42.2042 L 66.2692 52.8733 L 56.7605 49.4276 L 64.2218 42.2042 Z " stroke-width="0.5080372850505572"/>
      <path id="ID0.9845890481956303" fill="#27282B" stroke="none" stroke-linecap="round" d="M 64.9704 42.5082 L 71.4285 51.5157 L 66.3103 52.9657 L 64.9704 42.5082 Z " stroke-width="0.5080372850505572"/>
    </g>
    <path id="ID0.20071752788498998" fill="#202324" stroke="none" d="M 57.0091 35.9283 L 60.4839 39.3417 L 64.8608 41.5263 L 64.6279 42.9059 L 57.3245 39.9574 L 52.0896 36.3815 L 54.1657 35.0268 L 57.0091 35.9283 Z " stroke-width="0.5080372850505572"/>
    <path id="ID0.20071752788498998" fill="#202324" stroke="none" d="M 73.6341 39.3708 L 70.1177 41.0865 L 64.6591 41.4564 L 64.309 42.6915 L 71.522 43.1231 L 77.265 42.3395 L 76.2566 39.8187 L 73.6341 39.3708 Z " stroke-width="0.46609798478311815"/>
    <path id="ID0.521138689480722" fill="none" stroke="#212325" stroke-width="0.9060627147855949" stroke-linecap="round" d="M 76.8155 42.4889 L 73.3069 43.3233 L 64.7023 42.6605 "/>
    <path id="ID0.17828734638169408" fill="none" stroke="#202324" stroke-width="1.0160745701011145" stroke-linecap="round" d="M 66.2597 52.3814 L 65.0023 44.6767 C 64.558 42.0966 64.5777 42.6838 64.6064 41.6971 C 64.6164 41.3525 64.903 41.0723 65.0281 40.7506 C 65.1512 40.4336 65.2883 40.1161 65.3507 39.7817 C 65.4139 39.4439 65.3911 39.0945 65.4007 38.7514 C 65.4158 38.2158 65.425 37.1424 65.425 37.1424 "/>
    <path id="ID0.521138689480722" fill="none" stroke="#212325" stroke-width="1.0160745701011145" stroke-linecap="round" d="M 52.1391 36.6546 L 55.2915 39.1881 L 64.3263 42.6572 "/>
    <path id="ID0.8012696979567409" fill="none" stroke="url(#grad_1)" stroke-width="1.0160745701011145" stroke-linecap="round" d="M 74.8884 50.8375 L 66.7427 53.0111 L 49.1178 46.6419 L 50.2015 50.8442 L 49.158 56.8584 L 50.248 60.8018 L 52.274 64.9822 "/>
    <path id="ID0.043594349175691605" fill="#D7E2FD" stroke="none" stroke-linecap="round" d="M 59.4098 44.1302 L 59.8787 43.0901 L 59.9217 45.209 L 57.5562 43.9206 L 59.4098 44.1302 Z " stroke-width="0.5080372850505572"/>
    <path id="ID0.043594349175691605" fill="#D7E2FD" stroke="none" stroke-linecap="round" d="M 69.3606 46.1525 L 69.3225 45.1161 L 68.5597 46.8854 L 70.9932 46.6116 L 69.3606 46.1525 Z " stroke-width="0.4618642638091886"/>
  </g>
  <g id="ID0.7397577832452953">
    <path id="ID0.6726378230378032" fill="#393C40" stroke="none" stroke-linecap="round" d="M 7.8031 142.8136 L 25.9035 138.6705 L 26.8306 140.914 L 8.9236 144.6622 L 7.8031 142.8136 Z " stroke-width="0.8164596325590977"/>
    <path id="ID0.6507829907350242" fill="#1D1E1F" stroke="none" stroke-linecap="round" d="M 6.1145 145.9105 L 27.0408 140.7542 L 39.466 155.1112 L 45.0684 164.3543 L 55.8804 176.3176 L 60.7142 180.7529 L 53.1482 190.342 L 48.6173 185.633 L 40.6851 179.5959 L 30.2165 172.2745 L 22.4212 166.3889 L 6.1145 145.9105 Z " stroke-width="0.8164596325590977"/>
    <path id="ID0.6829322893172503" fill="#1D1E1F" stroke="none" stroke-linecap="round" d="M 52.5717 190.3128 L 56.8732 179.5471 L 62.9914 181.446 L 69.989 183.1004 L 73.8211 187.3405 L 76.5146 191.2341 L 77.0532 194.8742 L 80.5096 200.8295 L 76.8897 203.8259 L 74.6125 203.1327 L 73.2642 204.0762 L 69.0621 204.2973 L 64.4348 204.3524 L 59.9095 202.3895 L 55.7251 196.5419 L 52.5717 190.3128 Z " stroke-width="0.8164596325590977"/>
    <path id="ID0.47767175547778606" fill="none" stroke="#0D0D0D" stroke-width="1.6329192651181954" stroke-linecap="round" d="M 8.7696 148.8483 L 6.2444 145.6281 L 26.9802 140.8089 L 36.1266 151.4162 "/>
    <path id="ID0.5922487881034613" fill="#282A2B" stroke="none" stroke-linecap="round" d="M 28.1205 171.7671 L 29.5827 162.8522 L 34.1805 158.8069 L 42.7804 159.0682 L 51.7659 171.1415 L 53.3468 179.8923 L 50.7724 182.2189 L 41.3024 180.8731 L 28.1205 171.7671 Z " stroke-width="0.8164596325590977"/>
    <path id="ID0.36820242274552584" fill="#151616" stroke="none" stroke-linecap="round" d="M 34.669 169.615 L 40.9139 163.861 L 46.6339 174.2084 L 45.4586 175.1606 L 34.669 169.615 Z " stroke-width="0.8164596325590977"/>
    <path id="ID0.13569410238415003" fill="none" stroke="#232425" stroke-width="1.6329192651181954" stroke-linecap="round" d="M 41.5593 178.3106 L 50.6169 179.8089 L 49.5667 170.8537 "/>
    <path id="ID0.024502143263816833" fill="none" stroke="#0D0D0D" stroke-width="1.6329192651181954" stroke-linecap="round" d="M 28.3575 171.3135 L 29.4935 163.1335 L 33.8117 158.9007 L 42.4722 159.1073 L 47.554 166.0697 "/>
  </g>
</svg>