<svg xmlns="http://www.w3.org/2000/svg" xmlns:xlink="http://www.w3.org/1999/xlink" version="1.1" width="170.1479357743006" height="278.4066790604334" viewBox="-1.1239664536585996 0.4418725240359118 170.1479357743006 278.4066790604334">
  <!-- Exported by Scratch - http://scratch.mit.edu/ -->
  <g id="ID0.7085462282411754">
    <g id="ID0.5880346246995032">
      <path id="ID0.6829322893172503" fill="#796B5E" stroke="none" stroke-linecap="round" d="M 10.1426 222.7398 L 24.3074 218.5094 L 27.2028 226.2416 L 31.033 234.6718 L 29.7886 241.9519 L 27.9986 247.7984 L 24.7724 251.2534 L 21.5141 259.522 L 15.6715 258.2384 L 14.5802 255.3714 L 12.577 254.7553 L 9.0595 250.6632 L 5.3749 246.0066 L 3.7931 239.8415 L 6.3724 230.9194 L 10.1426 222.7398 Z " stroke-width="1.047168310776844"/>
      <g id="ID0.9434720128774643">
        <path id="ID0.6507829907350242" fill="#2C3134" stroke="none" stroke-linecap="round" d="M 17.1107 138.8752 L 38.6924 156.0142 L 33.3143 177.3008 L 29.1767 193.1807 L 25.6657 213.7209 L 27.0637 223.1204 L 8.0415 223.0792 L 10.6319 213.7842 L 10.4615 200.9035 L 9.5891 184.4203 L 11.463 167.29 L 17.1107 138.8752 Z " stroke-width="1.047168310776844"/>
        <path id="ID0.9892375003546476" fill="none" stroke="#191919" stroke-width="2.565144132804562" stroke-linecap="round" d="M 8.7854 222.0782 L 26.3128 221.5187 L 25.0286 210.1462 "/>
      </g>
    </g>
    <path id="ID0.7729651997797191" fill="#2C3134" stroke="none" stroke-linecap="round" d="M 23.5132 99.477 L 53.7729 99.2969 L 49.912 125.323 L 44.532 138.9104 L 42.4037 150.7262 L 38.9341 161.6391 L 17.6649 156.9905 L 14.9677 148.1702 L 21.2762 117.3224 L 23.5132 99.477 Z " stroke-width="1.229808358252144"/>
    <path id="ID0.4757494777441025" fill="#2C3134" stroke="none" stroke-linecap="round" d="M 38.7118 80.0325 L 50.1118 78.1435 L 70.4377 86.0548 L 57.1603 118.0431 L 43.1432 123.4317 L 37.1325 124.352 L 33.1774 120.9574 L 29.748 116.8322 L 22.5545 112.8766 L 22.9492 105.8088 L 24.6943 95.4515 L 29.7255 85.0416 L 38.7118 80.0325 Z " stroke-width="0.6193390731862156"/>
  </g>
  <g id="ID0.7085462282411754">
    <g id="ID0.5880346246995032">
      <path id="ID0.6829322893172503" fill="#796B5E" stroke="none" stroke-linecap="round" d="M 158.8815 229.0103 L 144.6592 224.9777 L 141.8718 232.7494 L 138.1594 241.2321 L 139.5051 248.4942 L 141.3764 254.3152 L 144.6504 257.725 L 148.0236 265.9474 L 153.8477 264.5825 L 154.8989 261.7005 L 156.8933 261.0566 L 160.3535 256.9159 L 163.9729 252.2084 L 165.4687 246.0219 L 162.7653 237.1366 L 158.8815 229.0103 Z " stroke-width="1.0471682773911808"/>
      <g id="ID0.9434720128774643">
        <path id="ID0.6507829907350242" fill="#2C3134" stroke="none" stroke-linecap="round" d="M 150.6127 145.1661 L 129.2719 162.6041 L 134.9459 183.8137 L 139.3043 199.6344 L 143.1011 220.1238 L 141.8342 229.5418 L 160.854 229.2356 L 158.1344 219.9776 L 158.1253 207.0958 L 158.768 190.602 L 156.6557 173.4995 L 150.6127 145.1661 Z " stroke-width="1.0471682773911808"/>
        <path id="ID0.9892375003546476" fill="none" stroke="#191919" stroke-width="2.5651439252452954" stroke-linecap="round" d="M 160.0903 228.3763 L 142.5567 228.061 L 143.6824 216.6717 "/>
      </g>
    </g>
    <path id="ID0.7729651997797191" fill="#2C3134" stroke="none" stroke-linecap="round" d="M 143.7282 105.8891 L 113.4688 106.1304 L 117.692 132.1003 L 123.2607 145.6114 L 125.5534 157.3964 L 129.1747 168.2599 L 150.3771 163.3155 L 152.9511 154.4585 L 146.2135 123.7015 L 143.7282 105.8891 Z " stroke-width="1.2298084090332497"/>
    <path id="ID0.4757494777441025" fill="#2C3134" stroke="none" stroke-linecap="round" d="M 128.2434 86.6183 L 116.8182 84.8882 L 96.6045 93.0819 L 110.3262 124.8822 L 124.417 130.075 L 130.4399 130.9115 L 134.3474 127.4621 L 137.719 123.2896 L 144.8566 119.2341 L 144.3636 112.1726 L 142.4744 101.8405 L 137.2986 91.5018 L 128.2434 86.6183 Z " stroke-width="0.619339067019053"/>
  </g>
  <g id="ID0.8990198895335197">
    <path id="ID0.17576928716152906" fill="#DBDBDB" stroke="none" d="M 82.9527 76.5925 L 83.2707 76.6023 L 83.2707 76.6023 L 82.9527 76.5925 L 82.9527 76.5925 Z " stroke-width="1.2825747308335271"/>
    <path id="ID0.4270821204409003" fill="#252525" stroke="none" stroke-linecap="round" d="M 82.9881 234.5134 L 85.3855 88.7138 L 63.2104 91.2357 L 54.3669 96.688 L 50.6768 101.8829 L 41.5856 116.5641 L 42.3535 130.1108 L 43.4916 137.1992 L 41.278 146.1011 L 40.5983 153.1718 L 43.232 162.1211 L 45.2217 168.9101 L 46.6115 180.9243 L 44.408 209.212 L 50.8414 219.8908 L 56.8473 227.9807 L 82.9881 234.5134 Z " stroke-width="0.6106883553434233"/>
    <path id="ID0.4270821204409003" fill="#252525" stroke="none" stroke-linecap="round" d="M 80.6041 234.4802 L 84.7775 88.8074 L 106.7548 92.6922 L 115.2452 98.6797 L 118.6078 104.0923 L 126.7762 119.3063 L 125.1742 132.7798 L 123.601 139.7845 L 125.2614 148.806 L 125.5036 155.9052 L 122.3229 164.675 L 119.9183 171.3283 L 117.7901 183.234 L 118.2446 211.6037 L 111.1647 221.8653 L 115.503 243.1348 L 80.6041 234.4802 Z " stroke-width="0.6106883634741141"/>
    <path id="ID0.5114514343440533" fill="#282828" stroke="none" d="M 118.2545 91.3029 L 50.8378 89.2218 L 47.3185 203.2265 L 114.7352 205.3076 L 118.2545 91.3029 Z " stroke-width="1.2935699093428636"/>
    <path id="ID0.9286923445761204" fill="#D4D4D4" stroke="none" stroke-linecap="round" d="M 98.3653 72.9712 L 77.127 48.0884 L 85.4288 72.7566 L 82.2098 124.9904 L 131.6392 88.9595 L 106.4508 74.2059 L 98.3653 72.9712 Z " stroke-width="0.6106884705490362"/>
    <path id="ID0.9286923445761204" fill="#D4D4D4" stroke="none" stroke-linecap="round" d="M 77.6914 70.9794 L 95.9184 49.0695 L 86.1109 73.1787 L 82.9714 124.7993 L 38.9891 86.5005 L 64.6251 72.0229 L 77.6914 70.9794 Z " stroke-width="0.6106884705490362"/>
    <path id="ID0.39874776685610414" fill="#1F2022" stroke="none" stroke-linecap="round" d="M 108.8562 75.4804 L 83.1882 87.4516 L 60.8171 75.1738 L 55.6397 77.7785 L 83.286 92.3365 L 113.5599 78.1548 L 108.8562 75.4804 Z " stroke-width="1.2096530143208386"/>
    <path id="ID0.13444371055811644" fill="#1F1F1F" stroke="none" stroke-linecap="round" d="M 86.0876 89.9138 L 79.4195 89.3847 L 74.7213 126.0921 L 90.0292 127.2112 L 86.0876 89.9138 Z " stroke-width="1.2825747308335271"/>
    <path id="ID0.751046194229275" fill="#191919" stroke="none" stroke-linecap="round" d="M 89.2904 83.5988 L 83.4249 80.7864 L 77.607 83.2382 L 76.7292 93.5233 L 82.2866 94.975 L 88.9724 93.9013 L 89.2904 83.5988 Z " stroke-width="1.4108322337244363"/>
    <path id="ID0.7854711129330099" fill="#282828" stroke="none" stroke-linecap="round" d="M 99.7396 111.9561 L 81.5825 122.7099 L 64.4811 109.5746 L 66.3273 132.2603 L 95.9016 133.1732 L 99.7396 111.9561 Z " stroke-width="1.2825747308335271"/>
    <path id="ID0.562834897544235" fill="#282828" stroke="none" stroke-linecap="round" d="M 118.1945 204.9802 L 79.9454 196.3643 L 79.1379 222.524 L 96.5782 224.6787 L 118.1945 204.9802 Z " stroke-width="1.2825747308335271"/>
    <path id="ID0.562834897544235" fill="#282828" stroke="none" stroke-linecap="round" d="M 40.8283 203.0385 L 79.536 196.7982 L 78.7284 222.9579 L 61.1884 224.0328 L 40.8283 203.0385 Z " stroke-width="1.2825747308335271"/>
    <path id="ID0.6824178956449032" fill="none" stroke="#191919" stroke-width="2.5651494616670543" stroke-linecap="round" d="M 81.9585 123.1025 L 79.2159 222.2609 "/>
    <path id="ID0.4144489667378366" fill="#40474C" stroke="none" stroke-linecap="round" d="M 132.3974 85.1632 L 106.9581 74.0334 L 109.9068 102.2487 L 103.38 179.6313 L 113.6796 237.8141 L 127.8711 231.7868 L 128.0496 236.3181 L 126.1477 174.1921 L 133.9145 118.5066 L 135.8346 97.5535 L 132.3974 85.1632 Z " stroke-width="1.2825747308335271"/>
    <path id="ID0.5234400681219995" fill="#101010" stroke="none" d="M 78.893 130.2981 C 78.3681 130.2819 77.8854 130.4837 77.53 130.823 C 77.1747 131.1624 76.9466 131.6392 76.9301 132.1723 C 76.9137 132.7054 77.1119 133.1954 77.4457 133.556 C 77.7795 133.9166 78.2488 134.1477 78.7737 134.1639 C 79.2986 134.1802 79.7813 133.9784 80.1367 133.639 C 80.4921 133.2997 80.7202 132.8229 80.7366 132.2898 C 80.7531 131.7567 80.5548 131.2667 80.221 130.9061 C 79.8873 130.5455 79.4179 130.3143 78.893 130.2981 Z " stroke-width="0.8080220593322809"/>
    <path id="ID0.5234400681219995" fill="#101010" stroke="none" d="M 78.293 147.8481 C 77.7681 147.8319 77.2854 148.0337 76.93 148.373 C 76.5747 148.7124 76.3466 149.1892 76.3301 149.7223 C 76.3137 150.2554 76.5119 150.7454 76.8457 151.106 C 77.1795 151.4666 77.6488 151.6977 78.1737 151.7139 C 78.6986 151.7302 79.1813 151.5284 79.5367 151.189 C 79.8921 150.8497 80.1202 150.3729 80.1366 149.8398 C 80.1531 149.3067 79.9548 148.8167 79.621 148.4561 C 79.2873 148.0955 78.8179 147.8643 78.293 147.8481 Z " stroke-width="0.8080220593322809"/>
    <path id="ID0.5234400681219995" fill="#101010" stroke="none" d="M 77.043 188.5981 C 76.5181 188.5819 76.0354 188.7837 75.68 189.123 C 75.3247 189.4624 75.0966 189.9392 75.0801 190.4723 C 75.0637 191.0054 75.2619 191.4954 75.5957 191.856 C 75.9295 192.2166 76.3988 192.4477 76.9237 192.4639 C 77.4486 192.4802 77.9313 192.2784 78.2867 191.939 C 78.6421 191.5997 78.8702 191.1229 78.8866 190.5898 C 78.9031 190.0567 78.7048 189.5667 78.371 189.2061 C 78.0373 188.8455 77.5679 188.6143 77.043 188.5981 Z " stroke-width="0.8080220593322809"/>
    <path id="ID0.5234400681219995" fill="#101010" stroke="none" d="M 77.693 169.3981 C 77.1681 169.3819 76.6854 169.5837 76.33 169.923 C 75.9747 170.2624 75.7466 170.7392 75.7301 171.2723 C 75.7137 171.8054 75.9119 172.2954 76.2457 172.656 C 76.5795 173.0166 77.0488 173.2477 77.5737 173.2639 C 78.0986 173.2802 78.5813 173.0784 78.9367 172.739 C 79.2921 172.3997 79.5202 171.9229 79.5366 171.3898 C 79.5531 170.8567 79.3548 170.3667 79.021 170.0061 C 78.6873 169.6455 78.2179 169.4143 77.693 169.3981 Z " stroke-width="0.8080220593322809"/>
    <path id="ID0.5234400681219995" fill="#101010" stroke="none" d="M 76.643 206.6481 C 76.1181 206.6319 75.6354 206.8337 75.28 207.173 C 74.9247 207.5124 74.6966 207.9892 74.6801 208.5223 C 74.6637 209.0554 74.8619 209.5454 75.1957 209.906 C 75.5295 210.2666 75.9988 210.4977 76.5237 210.5139 C 77.0486 210.5302 77.5313 210.3284 77.8867 209.989 C 78.2421 209.6497 78.4702 209.1729 78.4866 208.6398 C 78.5031 208.1067 78.3048 207.6167 77.971 207.2561 C 77.6373 206.8955 77.1679 206.6643 76.643 206.6481 Z " stroke-width="0.8080220593322809"/>
    <path id="ID0.4144489667378366" fill="#40474C" stroke="none" stroke-linecap="round" d="M 39.1429 81.2736 L 65.2202 71.7341 L 60.5368 99.7138 L 62.2781 177.3516 L 48.4094 234.7883 L 34.6166 227.8972 L 34.1591 232.4088 L 39.8893 170.5184 L 35.572 114.4599 L 34.948 93.4283 L 39.1429 81.2736 Z " stroke-width="1.2825747308335271"/>
    <path id="ID0.8752945330925286" fill="none" stroke="#222222" stroke-width="2.5651494616670543" stroke-linecap="round" d="M 131.7514 85.4666 L 135.5764 95.6059 L 129.9369 144.2452 "/>
    <path id="ID0.8752945330925286" fill="none" stroke="#222222" stroke-width="2.5651494616670543" stroke-linecap="round" d="M 38.8689 82.0162 L 34.4258 91.9003 L 37.0544 140.7948 "/>
    <path id="ID0.5234400681219995" fill="#101010" stroke="none" d="M 106.393 190.2981 C 105.8681 190.2819 105.3854 190.4837 105.03 190.823 C 104.6747 191.1624 104.4466 191.6392 104.4301 192.1723 C 104.4137 192.7054 104.6119 193.1954 104.9457 193.556 C 105.2795 193.9166 105.7488 194.1477 106.2737 194.1639 C 106.7986 194.1802 107.2813 193.9784 107.6367 193.639 C 107.9921 193.2997 108.2202 192.8229 108.2366 192.2898 C 108.2531 191.7567 108.0548 191.2667 107.721 190.9061 C 107.3873 190.5455 106.9179 190.3143 106.393 190.2981 Z " stroke-width="0.8080220593322809"/>
    <path id="ID0.5234400681219995" fill="#101010" stroke="none" d="M 107.943 199.7481 C 107.4181 199.7319 106.9354 199.9337 106.58 200.273 C 106.2247 200.6124 105.9966 201.0892 105.9801 201.6223 C 105.9637 202.1554 106.1619 202.6454 106.4957 203.006 C 106.8295 203.3666 107.2988 203.5977 107.8237 203.6139 C 108.3486 203.6302 108.8313 203.4284 109.1867 203.089 C 109.5421 202.7497 109.7702 202.2729 109.7866 201.7398 C 109.8031 201.2067 109.6048 200.7167 109.271 200.3561 C 108.9373 199.9955 108.4679 199.7643 107.943 199.7481 Z " stroke-width="0.8080220593322809"/>
    <g id="ID0.20783481979742646">
      <path id="ID0.5848579816520214" fill="#737373" stroke="none" stroke-linecap="round" d="M 51.2646 118.3804 L 42.6112 116.1737 L 42.5828 121.2158 L 51.785 122.1464 L 51.2646 118.3804 Z " stroke-width="1.2825747308335271"/>
      <path id="ID0.13105127029120922" fill="none" stroke="#222222" stroke-width="2.5651494616670543" stroke-linecap="round" d="M 53.4923 122.5223 L 47.7682 122.3456 L 41.1499 120.2017 "/>
    </g>
  </g>
  <path id="ID0.3809091211296618" fill="#252525" stroke="none" stroke-linecap="round" d="M 128.4832 239.7724 L 110.2551 248.6457 L 92.1117 247.5909 L 81.2234 243.3931 L 86.5437 224.5761 L 94.5751 159.9409 L 98.1489 145.9783 L 106.4797 132.2828 L 118.9886 133.0112 L 133.8237 139.2108 L 128.7382 167.9179 L 127.378 185.8312 L 128.4832 239.7724 Z " stroke-width="0.9783070755333396"/>
  <g id="ID0.27848909283056855">
    <path id="ID0.5368814701214433" fill="#404040" stroke="none" stroke-linecap="round" d="M 105.0551 258.6132 L 109.2642 246.9087 L 115.6388 234.7097 L 128.7597 242.9457 L 143.5366 253.6115 L 166.4995 268.1462 L 167.6849 276.9098 L 134.5812 277.5095 L 106.2904 271.7606 L 105.0551 258.6132 Z " stroke-width="1.031371003231262"/>
    <g id="ID0.5077062323689461">
      <path id="ID0.05466862628236413" fill="#252525" stroke="none" stroke-linecap="round" d="M 111.0826 161.1052 L 132.9779 140.4941 L 140.336 158.1878 L 136.9306 177.6915 L 135.5679 184.3395 L 134.4895 203.7052 L 135.3772 248.3476 L 106.769 250.4825 L 106.3656 225.3164 L 103.7966 215.6974 L 102.8032 205.2785 L 105.7604 190.5458 L 106.3754 177.0133 L 111.0826 161.1052 Z " stroke-width="0.8032433718072065"/>
      <path id="ID0.5319394422695041" fill="none" stroke="#131313" stroke-width="2.6781329178553004" stroke-linecap="round" d="M 135.1798 247.2389 L 106.4725 251.0176 L 105.9848 235.568 "/>
    </g>
  </g>
  <path id="ID0.3809091211296618" fill="#252525" stroke="none" stroke-linecap="round" d="M 39.4668 239.0224 L 57.6949 247.8957 L 75.8383 246.8409 L 86.7266 242.6431 L 81.4063 223.8261 L 73.3749 159.1909 L 69.8011 145.2283 L 61.4703 131.5328 L 48.9614 132.2612 L 34.1263 138.4608 L 39.2118 167.1679 L 40.572 185.0812 L 39.4668 239.0224 Z " stroke-width="0.9783070755333396"/>
  <g id="ID0.27848909283056855">
    <path id="ID0.5368814701214433" fill="#404040" stroke="none" stroke-linecap="round" d="M 62.8449 254.8632 L 58.6358 243.1587 L 52.2612 230.9597 L 39.1403 239.1957 L 24.3634 249.8615 L 1.4005 264.3962 L 0.2151 273.1598 L 33.3188 273.7595 L 61.6096 268.0106 L 62.8449 254.8632 Z " stroke-width="1.031371003231262"/>
    <g id="ID0.5077062323689461">
      <path id="ID0.05466862628236413" fill="#252525" stroke="none" stroke-linecap="round" d="M 56.8174 157.3552 L 34.9221 136.7441 L 27.564 154.4378 L 30.9694 173.9415 L 32.3321 180.5895 L 33.4105 199.9552 L 32.5228 244.5976 L 61.131 246.7325 L 61.5344 221.5664 L 64.1034 211.9474 L 65.0968 201.5285 L 62.1396 186.7958 L 61.5246 173.2633 L 56.8174 157.3552 Z " stroke-width="0.8032433718072065"/>
      <path id="ID0.5319394422695041" fill="none" stroke="#131313" stroke-width="2.6781329178553004" stroke-linecap="round" d="M 32.7202 243.4889 L 61.4275 247.2676 L 61.9152 231.818 "/>
    </g>
  </g>
  <g id="ID0.1717304247431457">
    <path id="ID0.8194515448994935" fill="#796B5E" stroke="none" stroke-linecap="round" d="M 62.0497 30.6775 C 63.182 30.7793 64.0084 31.5148 64.6945 32.8926 C 65.3806 34.2704 65.4728 36.4888 65.8388 38.2885 C 66.2075 40.092 67.8973 42.0648 67.1549 43.7676 C 66.3411 45.3626 63.937 45.7488 62.2108 45.9776 C 61.175 46.1153 59.8368 45.5762 59.3493 44.6998 C 58.4294 42.7504 58.5639 40.4249 58.4216 38.3666 C 58.2811 36.3435 57.7809 34.1228 58.5563 32.2837 C 59.179 31.1602 60.863 30.5709 62.0497 30.6775 Z " stroke-width="1.3161966769965103"/>
    <path id="ID0.8194515448994935" fill="#796B5E" stroke="none" stroke-linecap="round" d="M 107.4003 30.6775 C 106.268 30.7793 105.4416 31.5148 104.7555 32.8926 C 104.0694 34.2704 103.9772 36.4888 103.6112 38.2885 C 103.2425 40.092 101.5527 42.0648 102.2951 43.7676 C 103.1089 45.3625 105.513 45.7488 107.2392 45.9776 C 108.275 46.1153 109.6132 45.5762 110.1007 44.6998 C 111.0206 42.7504 110.8861 40.4249 111.0284 38.3666 C 111.1689 36.3435 111.6691 34.1228 110.8937 32.2837 C 110.271 31.1602 108.587 30.5709 107.4003 30.6775 Z " stroke-width="1.3161966177716813"/>
    <path id="ID0.46110434643924236" fill="#675B50" stroke="none" stroke-linecap="round" d="M 100.1086 50.5386 L 71.3424 49.6506 L 69.992 74.1125 L 77.7575 78.0375 L 91.1451 78.1921 L 99.2766 75.0812 L 100.1086 50.5386 Z " stroke-width="1.3933051265125578"/>
    <path id="ID0.8999492498114705" fill="#796B5E" stroke="none" stroke-linecap="round" d="M 82.7269 6.3454 C 76.4047 6.5672 68.956 8.516 65.4562 13.6052 C 61.0153 19.9324 61.6067 28.7012 61.8518 36.3574 C 62.0249 41.7743 64.834 46.8111 66.8705 51.8583 C 68.4978 56.1976 70.2165 60.6142 72.8279 64.4788 C 73.7046 65.7764 75.4277 66.3885 76.8394 66.9795 C 79.6287 68.1463 82.4718 69.8227 85.4567 69.8608 C 87.9638 69.8932 90.2078 68.271 92.4509 67.1106 C 93.6962 66.5005 95.0413 65.8183 95.8423 64.5882 C 98.4601 60.5634 100.4568 56.0822 102.3371 51.7334 C 104.3112 47.1682 107.3096 42.7222 107.4311 37.701 C 107.6369 29.1552 108.2695 19.1801 102.9867 12.4057 C 98.7231 6.9397 89.7707 6.0993 82.7269 6.3454 Z " stroke-width="0.6686769378224409"/>
    <path id="ID0.8256730306893587" fill="none" stroke="#675B50" stroke-width="1.3373534616839085" stroke-linecap="round" d="M 78.9138 54.1761 C 78.9138 54.1761 80.5133 53.3577 81.3829 53.4135 C 82.197 53.403 82.8151 54.3014 83.6581 54.3038 C 84.6588 54.3063 85.5121 53.4183 86.508 53.3626 C 88.1303 53.8417 89.9926 54.3194 89.9926 54.3194 "/>
    <path id="ID0.7592270169407129" fill="none" stroke="#675B50" stroke-width="1.3373538756448817" stroke-linecap="round" d="M 87.5899 57.3675 C 87.5899 57.3675 86.7616 57.8099 86.3058 57.8855 C 85.8636 57.9593 85.4074 57.7651 84.9608 57.8049 C 84.5115 57.8454 84.0932 58.0722 83.6451 58.1233 C 83.1998 58.1744 82.735 58.212 82.2993 58.1091 C 81.9288 58.0215 81.2956 57.567 81.2956 57.567 "/>
    <path id="ID0.8619630038738251" fill="none" stroke="#675B50" stroke-width="1.5470150911974783" stroke-linecap="round" d="M 84.2763 32.9798 C 84.2763 32.9798 83.7889 36.7585 83.5557 38.583 C 83.4219 39.6077 83.6184 40.7611 83.0952 41.6526 C 82.4586 42.6643 80.9815 42.6249 80.623 43.548 C 80.1427 44.5122 79.9744 46.3043 80.9024 46.5869 C 82.3132 47.0161 83.638 45.2546 85.1993 45.1334 C 86.0376 45.0692 87.4846 46.1951 87.4846 46.1951 "/>
    <path id="ID0.6736386958509684" fill="none" stroke="#675B50" stroke-width="1.650156940441199" stroke-linecap="round" d="M 100.6933 42.5663 C 100.6933 42.5663 99.9681 43.5425 99.5573 43.9891 C 99.1827 44.3967 98.7226 44.7223 98.3413 45.1241 C 97.9517 45.5348 97.5191 45.9295 97.2482 46.4243 C 96.973 46.9256 96.7578 47.4891 96.7327 48.0586 C 96.666 49.5885 96.975 52.6523 96.975 52.6523 "/>
    <path id="ID0.6736386958509684" fill="none" stroke="#675B50" stroke-width="1.6501569996611" stroke-linecap="round" d="M 69.4067 42.3163 C 69.4067 42.3163 70.1319 43.2925 70.5427 43.7391 C 70.9173 44.1467 71.3774 44.4723 71.7587 44.8741 C 72.1483 45.2848 72.5809 45.6795 72.8518 46.1743 C 73.127 46.6756 73.3422 47.2391 73.3673 47.8086 C 73.434 49.3385 73.125 52.4023 73.125 52.4023 "/>
    <path id="ID0.7592270169407129" fill="none" stroke="#675B50" stroke-width="1.33732686612353" stroke-linecap="round" d="M 84.8561 65.2746 C 84.8561 65.2746 84.6678 66.1855 84.7269 66.6382 C 84.7838 67.0776 85.1044 67.453 85.1954 67.8868 C 85.2867 68.3232 85.1883 68.7842 85.2688 69.2226 C 85.3486 69.6584 85.447 70.1087 85.6732 70.4909 C 85.8657 70.816 86.4899 71.2836 86.4899 71.2836 "/>
    <path id="ID0.2118154256604612" fill="#1C1916" stroke="#1C1916" stroke-width="2.6323932355433626" stroke-linecap="round" d="M 108.376 26.6446 C 108.406 27.3185 108.0284 30.3487 106.9944 32.0577 C 106.6129 32.6879 106.3008 30.3737 105.8947 29.5612 C 105.5016 28.7736 104.9701 28.0539 104.5943 27.2587 C 104.1926 26.4083 103.8668 25.5208 103.5622 24.6322 C 103.2666 23.7711 103.0296 22.8871 102.7951 22.0084 C 102.5631 21.1402 102.4628 20.2328 102.1604 19.3861 C 101.8593 18.5406 101.404 17.7537 100.9938 16.9543 C 100.5823 16.1548 100.3861 15.1679 99.6941 14.5865 C 98.9824 13.9878 97.985 13.7341 97.0547 13.6432 C 96.1628 13.5566 95.2846 13.9332 94.4009 14.073 C 93.4735 14.2188 92.5359 14.3228 91.6147 14.5014 C 90.7227 14.6738 89.8381 14.9038 88.9588 15.1274 C 88.1327 15.3384 86.2704 15.1919 86.5692 15.6253 C 87.1277 16.4316 92.0505 17.395 90.8545 17.5014 C 87.0112 17.9305 81.1752 17.3956 76.4907 16.6963 C 75.3202 16.5218 75.0599 15.5774 74.2549 15.1687 C 73.4669 14.7694 72.6144 14.4714 71.7473 14.2922 C 70.2775 13.9903 68.5863 13.452 66.9839 13.7843 C 65.4493 14.1056 63.6359 16.7388 62.7863 16.1597 C 61.9801 15.6045 63.2541 12.9918 63.9617 11.4638 C 64.7261 9.8161 65.8876 8.3309 67.1873 7.0511 C 68.4401 5.8179 69.8905 4.6927 71.5242 4.0233 C 73.1819 3.3437 75.0524 3.3281 76.8325 3.0983 C 77.708 2.9846 78.6025 3.0725 79.4829 2.9954 C 80.3712 2.9171 81.2442 2.6661 82.136 2.631 C 83.8985 2.5619 85.6909 2.4199 87.434 2.6868 C 89.2485 2.9635 90.9516 3.7478 92.7161 4.2464 C 93.5904 4.4936 94.4935 4.6483 95.3582 4.9281 C 97.0678 5.4824 98.7744 6.0718 100.4389 6.7472 C 101.2607 7.0802 102.1519 7.3616 102.8106 7.9492 C 103.5062 8.5686 103.7994 9.5265 104.3759 10.2545 C 104.9341 10.9587 105.7434 11.4695 106.2096 12.2355 C 106.6939 13.0332 106.9345 13.9617 107.1754 14.8614 C 107.4035 15.7165 107.5426 16.5995 107.6114 17.4817 C 107.6791 18.3495 107.4831 19.2315 107.5839 20.0971 C 107.6871 20.9888 108.0106 21.8449 108.2186 22.7194 C 108.3899 23.4393 108.8222 24.15 108.7257 24.8827 Z "/>
    <path id="ID0.2118154256604612" fill="#1C1916" stroke="#1C1916" stroke-width="2.6323933539930207" stroke-linecap="round" d="M 61.174 25.8946 C 61.144 26.5685 61.5216 29.5987 62.5556 31.3077 C 62.9371 31.9379 63.2492 29.6237 63.6553 28.8112 C 64.0484 28.0236 64.5799 27.304 64.9557 26.5088 C 65.3574 25.6583 65.6832 24.7708 65.9878 23.8822 C 66.2834 23.0211 66.5204 22.1372 66.7549 21.2584 C 66.9869 20.3902 67.0872 19.4828 67.3896 18.6361 C 67.6907 17.7906 68.146 17.0037 68.5562 16.2043 C 68.9677 15.4048 69.1639 14.4179 69.8559 13.8365 C 70.5676 13.2378 71.565 12.9841 72.4953 12.8932 C 73.3872 12.8066 74.2654 13.1832 75.1491 13.323 C 76.0765 13.4689 77.0141 13.5728 77.9353 13.7514 C 78.8273 13.9238 79.717 14.1328 80.5912 14.3774 C 81.4428 14.6156 82.274 14.9338 83.1167 15.2009 C 83.9992 15.4806 84.9062 15.6999 85.7746 16.023 C 86.6151 16.3359 87.3769 16.8536 88.2366 17.1087 C 89.0937 17.3626 90.0197 17.7478 90.8904 17.5385 C 91.7651 17.3279 92.3283 16.4641 93.0593 15.9463 C 93.7956 15.4259 94.4901 14.8274 95.2951 14.4187 C 96.0831 14.0194 96.9356 13.7214 97.8027 13.5422 C 99.2725 13.2403 100.9637 12.702 102.5661 13.0343 C 104.1007 13.3556 105.9141 15.9888 106.7637 15.4097 C 107.5699 14.8545 106.2959 12.2418 105.5883 10.7138 C 104.8239 9.0661 103.6624 7.5809 102.3627 6.3011 C 101.1099 5.0679 99.6595 3.9427 98.0258 3.2733 C 96.3681 2.5937 94.4976 2.5781 92.7175 2.3483 C 91.842 2.2346 90.9475 2.3225 90.0671 2.2454 C 89.1788 2.1671 88.3058 1.9161 87.414 1.881 C 85.6515 1.8119 83.8591 1.6699 82.116 1.9368 C 80.3015 2.2135 78.5984 2.9978 76.8339 3.4964 C 75.9596 3.7436 75.0565 3.8983 74.1918 4.1781 C 72.4822 4.7324 70.7756 5.3219 69.1111 5.9972 C 68.2893 6.3302 67.3981 6.6116 66.7394 7.1993 C 66.0438 7.8186 65.7506 8.7765 65.1741 9.5045 C 64.6159 10.2087 63.8066 10.7195 63.3404 11.4855 C 62.8561 12.2832 62.6155 13.2117 62.3746 14.1114 C 62.1465 14.9665 62.0074 15.8495 61.9386 16.7317 C 61.8709 17.5995 62.0669 18.4815 61.9661 19.3471 C 61.8629 20.2388 61.5394 21.0949 61.3314 21.9694 C 61.1601 22.6893 60.7278 23.4 60.8243 24.1327 Z "/>
    <path id="ID0.5261953212320805" fill="none" stroke="#1C1916" stroke-width="2.6323931674389898" stroke-linecap="round" d="M 102.0602 30.9712 C 102.0602 30.9712 101.2291 29.2409 100.5038 28.6531 C 99.8099 28.0904 98.8764 27.8552 97.9989 27.6769 C 97.1215 27.4986 96.2035 27.6857 95.3117 27.5978 C 93.641 27.4317 90.3141 26.9157 90.3141 26.9157 "/>
    <path id="ID0.5261953212320805" fill="none" stroke="#1C1916" stroke-width="2.6323933284327885" stroke-linecap="round" d="M 67.384 31.0455 C 67.384 31.0455 68.2179 29.3167 68.9443 28.7301 C 69.6391 28.1686 70.5731 27.9351 71.4508 27.7582 C 72.3286 27.5814 73.2462 27.7701 74.1382 27.6838 C 75.8091 27.5206 79.137 27.0102 79.137 27.0102 "/>
    <path id="ID0.7592270169407129" fill="none" stroke="#675B50" stroke-width="1.3373465678705396" stroke-linecap="round" d="M 84.2111 23.5933 C 84.2111 23.5933 83.9064 24.4732 83.9064 24.9295 C 83.906 25.3723 84.1755 25.7844 84.2097 26.2258 C 84.2437 26.67 84.0865 27.1149 84.1097 27.5597 C 84.1324 28.0018 84.1718 28.4606 84.3468 28.8677 C 84.4957 29.214 85.0545 29.7553 85.0545 29.7553 "/>
    <path id="ID0.48112139804288745" fill="#3A3A3A" stroke="#3A3A3A" stroke-width="2.4791373688665157" stroke-linecap="round" d="M 108.2737 18.6428 C 109.0611 19.0969 108.2389 20.8817 108.5512 21.9097 C 108.802 22.7351 109.6163 23.3534 109.7746 24.2012 C 109.9257 25.0145 109.6075 25.8524 109.4368 26.6611 C 108.9562 28.9433 108.9792 31.9735 107.803 33.7262 C 107.3326 34.3272 106.6159 32.1371 106.1437 31.3685 C 105.1781 29.8261 104.1459 28.214 103.5117 26.5987 C 103.2092 25.8282 103.2908 24.957 103.2258 24.1323 C 103.1621 23.3138 102.7712 22.4093 103.127 21.6679 C 103.488 20.9154 104.416 20.5778 105.139 20.1494 C 106.0818 19.5915 107.355 18.2168 108.2737 18.6428 Z "/>
    <path id="ID0.48112139804288745" fill="#3A3A3A" stroke="#3A3A3A" stroke-width="2.4791373688665157" stroke-linecap="round" d="M 61.5263 17.5928 C 60.7389 18.0469 61.5611 19.8317 61.2488 20.8597 C 60.998 21.6851 60.1837 22.3034 60.0254 23.1512 C 59.8743 23.9645 60.1925 24.8024 60.3632 25.6111 C 60.8438 27.8933 60.8208 30.9235 61.997 32.6762 C 62.4674 33.2772 63.1841 31.0871 63.6563 30.3185 C 64.6219 28.7761 65.6541 27.164 66.2883 25.5487 C 66.5908 24.7782 66.5092 23.907 66.5742 23.0823 C 66.6379 22.2638 67.0288 21.3593 66.673 20.6179 C 66.312 19.8654 65.384 19.5278 64.661 19.0994 C 63.7182 18.5415 62.445 17.1668 61.5263 17.5928 Z "/>
    <g id="ID0.6671336451545358">
      <path id="ID0.7788236327469349" fill="#FFFFFF" stroke="none" stroke-linecap="round" d="M 97.6321 30.943 L 95.8468 30.6627 L 92.8701 30.3044 L 90.0211 30.4052 L 89.5928 33.3433 L 92.962 34.1635 L 99.5934 33.3832 L 97.6321 30.943 Z " stroke-width="1.3161966177716813"/>
      <g id="ID0.9270983412861824">
        <path id="ID0.036129117012023926" fill="#5E3B21" stroke="none" d="M 94.0926 30.0023 C 93.5535 29.9966 93.0625 30.2072 92.7052 30.5527 C 92.3479 30.8981 92.1242 31.3783 92.1186 31.9106 C 92.113 32.4428 92.3265 32.9276 92.6765 33.2805 C 93.0264 33.6334 93.5129 33.8543 94.052 33.86 C 94.591 33.8657 95.082 33.655 95.4393 33.3096 C 95.7967 32.9642 96.0203 32.4839 96.0259 31.9517 C 96.0315 31.4195 95.818 30.9346 95.4681 30.5817 C 95.1181 30.2289 94.6316 30.0079 94.0926 30.0023 Z " stroke-width="1.3161966177716813"/>
        <path id="ID0.9171876185573637" fill="#191009" stroke="none" d="M 94.0038 30.9324 C 93.7297 30.9295 93.4808 31.0367 93.2988 31.2127 C 93.1168 31.3886 93.003 31.632 93.0001 31.9027 C 92.9973 32.1734 93.106 32.4191 93.2842 32.5988 C 93.4625 32.7786 93.709 32.891 93.9832 32.8939 C 94.2574 32.8968 94.5062 32.7896 94.6882 32.6136 C 94.8702 32.4377 94.984 32.1943 94.9869 31.9236 C 94.9897 31.6529 94.8811 31.4072 94.7028 31.2274 C 94.5245 31.0477 94.278 30.9352 94.0038 30.9324 Z " stroke-width="1.3161966177716813"/>
      </g>
      <path id="ID0.7788236327469349" fill="#FFFFFF" stroke="none" stroke-linecap="round" d="M 72.4679 30.993 L 74.2532 30.7127 L 77.2299 30.3544 L 80.0789 30.4552 L 80.5072 33.3933 L 77.138 34.2135 L 70.5066 33.4332 L 72.4679 30.993 Z " stroke-width="1.3161966177716813"/>
      <g id="ID0.9270983412861824">
        <path id="ID0.036129117012023926" fill="#5E3B21" stroke="none" d="M 76.1074 30.2023 C 76.6465 30.1966 77.1375 30.4072 77.4948 30.7527 C 77.8521 31.0981 78.0758 31.5783 78.0814 32.1106 C 78.087 32.6428 77.8735 33.1276 77.5235 33.4805 C 77.1736 33.8334 76.6871 34.0543 76.148 34.06 C 75.609 34.0657 75.118 33.855 74.7607 33.5096 C 74.4033 33.1642 74.1797 32.6839 74.1741 32.1517 C 74.1685 31.6195 74.382 31.1346 74.7319 30.7817 C 75.0819 30.4289 75.5684 30.2079 76.1074 30.2023 Z " stroke-width="1.3161966177716813"/>
        <path id="ID0.9171876185573637" fill="#191009" stroke="none" d="M 76.0962 31.0324 C 76.3703 31.0295 76.6192 31.1367 76.8012 31.3127 C 76.9832 31.4886 77.097 31.732 77.0999 32.0027 C 77.1027 32.2734 76.994 32.5191 76.8158 32.6988 C 76.6375 32.8786 76.391 32.991 76.1168 32.9939 C 75.8426 32.9968 75.5938 32.8896 75.4118 32.7136 C 75.2298 32.5377 75.116 32.2943 75.1131 32.0236 C 75.1103 31.7529 75.2189 31.5072 75.3972 31.3274 C 75.5755 31.1477 75.822 31.0352 76.0962 31.0324 Z " stroke-width="1.3161966177716813"/>
      </g>
    </g>
  </g>
</svg>