<svg xmlns="http://www.w3.org/2000/svg" xmlns:xlink="http://www.w3.org/1999/xlink" version="1.1" width="116.49650573785503" height="318.4565734868785" viewBox="5.890399932586157 -0.7496532204518678 116.49650573785503 318.4565734868785">
  <!-- Exported by Scratch - http://scratch.mit.edu/ -->
  <g id="ID0.6660797297954559">
    <path id="ID0.5368814701214433" fill="#343434" stroke="none" stroke-linecap="round" d="M 64.0528 299.7777 L 66.9362 290.9477 L 71.4251 281.7008 L 81.4012 287.5588 L 92.6673 295.1939 L 110.1293 305.5362 L 111.2078 312.0518 L 86.5104 313.2307 L 65.2654 309.5644 L 64.0528 299.7777 Z " stroke-width="0.7702165290554439"/>
    <g id="ID0.5077062323689461">
      <path id="ID0.05466862628236413" fill="#252525" stroke="none" stroke-linecap="round" d="M 65.1516 227.5262 L 86.8443 224.1459 L 85.1084 238.8291 L 84.3661 243.8423 L 84.3596 258.3268 L 86.8603 291.578 L 65.6164 294.3482 L 64.2791 275.5996 L 61.9673 268.533 L 60.7975 260.8051 L 62.3957 249.6978 L 62.2969 239.5819 L 65.1516 227.5262 Z " stroke-width="0.5998532736063101"/>
      <path id="ID0.5319394422695041" fill="none" stroke="#131313" stroke-width="2" stroke-linecap="round" d="M 86.9 290.75 L 65.65 294.75 L 64.65 283.25 "/>
    </g>
    <g id="ID0.8820344842970371">
      <path id="ID0.3809091211296618" fill="#252525" stroke="none" stroke-linecap="round" d="M 53.9285 153.8533 L 85.6436 134.3371 L 86.9062 158.5649 L 90.8946 207.0411 L 90.412 217.7936 L 86.4109 229.0764 L 78.3176 226.8924 L 65.3644 228.1829 L 64.7031 206.421 L 62.9648 193.1181 L 53.9285 153.8533 Z " stroke-width="0.7305889665074583"/>
      <path id="ID0.9495224836282432" fill="none" stroke="#131313" stroke-width="2" stroke-linecap="round" d="M 90.9 207.25 L 90.9 215.75 L 88.9 223.75 L 80.4 228.25 L 79.4 233.25 "/>
    </g>
  </g>
  <g id="ID0.18228224432095885">
    <path id="ID0.5368814701214433" fill="#404040" stroke="none" stroke-linecap="round" d="M 7.5878 295.5704 L 12.1196 287.4621 L 18.3074 279.2543 L 26.9667 286.926 L 36.5491 296.5903 L 51.6891 310.1057 L 51.491 316.7069 L 27.0298 313.1014 L 6.8904 305.4072 L 7.5878 295.5704 Z " stroke-width="0.7702165265523853"/>
    <g id="ID0.5077062323689461">
      <path id="ID0.05466862628236413" fill="#252525" stroke="none" stroke-linecap="round" d="M 23.9564 224.5513 L 45.8645 225.9785 L 40.9712 239.9308 L 39.1545 244.6619 L 35.9924 258.797 L 31.1884 291.7942 L 9.8513 289.8694 L 12.6309 271.2798 L 11.9144 263.8793 L 12.4563 256.0821 L 16.4361 245.5899 L 18.5437 235.6955 L 23.9564 224.5513 Z " stroke-width="0.5998532681134454"/>
      <path id="ID0.5319394422695041" fill="none" stroke="#131313" stroke-width="2.000000000550342" stroke-linecap="round" d="M 31.422 290.8727 L 9.811 290.1467 L 11.3405 278.7051 "/>
    </g>
    <g id="ID0.8820344842970371">
      <path id="ID0.3809091211296618" fill="#252525" stroke="none" stroke-linecap="round" d="M 34.6173 148.5037 L 64.3695 138.0051 L 60.3232 161.9259 L 53.6541 210.1065 L 50.8403 220.4955 L 44.4771 230.6356 L 37.0541 226.7407 L 23.3629 226.4024 L 25.4627 203.3079 L 26.7983 190.2872 L 34.6173 148.5037 Z " stroke-width="0.7305889973140245"/>
      <path id="ID0.9495224836282432" fill="none" stroke="#131313" stroke-width="2.000000000550342" stroke-linecap="round" d="M 53.5184 210.2501 L 51.6665 218.5459 L 47.9715 225.918 L 38.6953 228.4579 L 36.6299 233.1199 "/>
    </g>
  </g>
  <g id="ID0.7085462282411754">
    <g id="ID0.5880346246995032">
      <path id="ID0.6829322893172503" fill="#1D1E1F" stroke="none" stroke-linecap="round" d="M 110.1829 175.7283 L 99.5544 171.0982 L 96.5394 176.7505 L 92.7271 182.8472 L 92.9839 188.5567 L 93.8065 193.2191 L 95.9831 196.186 L 97.7131 202.8508 L 102.3938 202.436 L 103.5256 200.3419 L 105.1477 200.0646 L 108.291 197.2671 L 111.6199 194.0526 L 113.4573 189.4749 L 112.3207 182.3748 L 110.1829 175.7283 Z " stroke-width="0.8164595870621234"/>
      <g id="ID0.9434720128774643">
        <path id="ID0.6507829907350242" fill="#282828" stroke="none" stroke-linecap="round" d="M 112.9436 110.64 L 94.4386 121.6882 L 96.5454 138.5521 L 98.2151 151.145 L 98.9394 167.2538 L 96.9285 174.332 L 111.7626 176.1576 L 110.6539 168.7702 L 112.049 158.9 L 114.3444 146.3332 L 114.5622 133.0017 L 112.9436 110.64 Z " stroke-width="0.8164595870621234"/>
        <path id="ID0.9892375003546476" fill="none" stroke="#191919" stroke-width="1.9999999493310705" stroke-linecap="round" d="M 111.2476 175.3504 L 97.6377 173.2097 L 99.7534 164.6059 "/>
      </g>
    </g>
    <path id="ID0.7729651997797191" fill="#282828" stroke="none" stroke-linecap="round" d="M 111.8688 79.7901 L 88.2954 76.6974 L 88.7551 97.0511 L 91.6179 108.0056 L 92.1193 117.2828 L 93.7549 125.9979 L 110.7923 124.5065 L 113.7594 117.9996 L 111.8641 93.706 L 111.8688 79.7901 Z " stroke-width="0.9588636729962308"/>
    <path id="ID0.4757494777441025" fill="#282828" stroke="none" stroke-linecap="round" d="M 101.8261 63.3269 L 93.1236 60.7639 L 76.5019 64.8518 L 83.7185 90.7013 L 94.1184 96.206 L 98.7143 97.4992 L 102.1305 95.2798 L 105.2083 92.4483 L 111.2041 90.1144 L 111.589 84.6509 L 111.2435 76.5306 L 108.3411 68.0491 L 101.8261 63.3269 Z " stroke-width="0.48299247528778044"/>
  </g>
  <g id="ID0.8990198895335197">
    <path id="ID0.17576928716152906" fill="#DBDBDB" stroke="none" d="M 64.9038 56.5299 L 64.6541 56.5179 L 64.6541 56.5179 L 64.9038 56.5299 L 64.9038 56.5299 Z " stroke-width="0.9999999739625841"/>
    <path id="ID0.4270821204409003" fill="#252525" stroke="none" stroke-linecap="round" d="M 56.9404 178.3568 L 62.0948 65.7181 L 79.3111 69.0273 L 85.9045 73.7767 L 88.4766 78.0106 L 94.6982 89.8935 L 93.2661 100.2948 L 91.94 105.6921 L 93.1283 112.6943 L 93.2272 118.1897 L 90.6154 124.9303 L 88.6405 130.0443 L 86.8152 139.2254 L 86.807 161.1793 L 81.1127 169.0201 L 75.9119 174.8904 L 56.9404 178.3568 Z " stroke-width="0.47614255505486397"/>
    <path id="ID0.4270821204409003" fill="#252525" stroke="none" stroke-linecap="round" d="M 56.967 178.4525 L 62.6289 65.8381 L 45.1747 67.4825 L 38.1565 71.5783 L 35.1906 75.5463 L 27.8591 86.7783 L 28.2879 97.269 L 29.0909 102.7686 L 27.2371 109.6247 L 26.6121 115.0854 L 28.566 122.0452 L 30.0418 127.3249 L 30.979 136.6386 L 28.8836 158.4922 L 33.8005 166.8426 L 38.4149 173.1842 L 56.967 178.4525 Z " stroke-width="0.47614254893708563"/>
    <path id="ID0.5114514343440533" fill="#282828" stroke="none" d="M 36.1363 65.8259 L 89.0753 68.368 L 84.8426 156.5164 L 31.9036 153.9744 L 36.1363 65.8259 Z " stroke-width="1.0073065914999595"/>
    <path id="ID0.9286923445761204" fill="#D4D4D4" stroke="none" stroke-linecap="round" d="M 52.9431 52.8292 L 71.1058 34.9436 L 63.0902 53.4595 L 62.4094 93.9455 L 25.8975 63.1141 L 46.5336 53.2841 L 52.9431 52.8292 Z " stroke-width="0.47614256319854315"/>
    <path id="ID0.9286923445761204" fill="#D4D4D4" stroke="none" stroke-linecap="round" d="M 69.289 52.5445 L 56.3541 34.5241 L 62.5587 53.7229 L 61.8532 93.731 L 98.6552 66.8967 L 79.4606 54.1531 L 69.289 52.5445 Z " stroke-width="0.47614256319854315"/>
    <path id="ID0.39874776685610414" fill="#C3C3C3" stroke="none" stroke-linecap="round" d="M 44.5516 54.156 L 63.9249 64.9684 L 82.2022 56.8747 L 86.0982 59.2022 L 63.5488 68.7302 L 40.703 55.9294 L 44.5516 54.156 Z " stroke-width="0.9436593405319237"/>
    <path id="ID0.13444371055811644" fill="#1F1F1F" stroke="none" stroke-linecap="round" d="M 61.4263 66.708 L 66.6823 66.7101 L 68.1121 95.3116 L 56.052 95.2331 L 61.4263 66.708 Z " stroke-width="0.9999999739625841"/>
    <path id="ID0.751046194229275" fill="#191919" stroke="none" stroke-linecap="round" d="M 59.4126 61.6225 L 64.1798 59.814 L 68.587 62.063 L 68.644 70.0499 L 64.2016 70.8277 L 59.0301 69.5883 L 59.4126 61.6225 Z " stroke-width="1.099999989201789"/>
    <path id="ID0.7854711129330099" fill="#282828" stroke="none" stroke-linecap="round" d="M 49.4078 82.9009 L 62.972 92.3123 L 77.1738 83.233 L 74.3368 100.6169 L 51.1136 99.5018 L 49.4078 82.9009 Z " stroke-width="0.9999999739625841"/>
    <path id="ID0.562834897544235" fill="#282828" stroke="none" stroke-linecap="round" d="M 29.2478 153.5152 L 59.7387 149.2227 L 58.7675 169.4494 L 44.9734 170.0385 L 29.2478 153.5152 Z " stroke-width="0.9999999739625841"/>
    <path id="ID0.562834897544235" fill="#282828" stroke="none" stroke-linecap="round" d="M 90.0714 156.6785 L 60.132 149.4842 L 59.1607 169.7109 L 72.8349 171.619 L 90.0714 156.6785 Z " stroke-width="0.9999999739625841"/>
    <path id="ID0.6824178956449032" fill="none" stroke="#191919" stroke-width="1.9999999479251682" stroke-linecap="round" d="M 62.7106 92.538 L 58.7798 169.1877 "/>
    <path id="ID0.4144489667378366" fill="#313131" stroke="none" stroke-linecap="round" d="M 25.4678 60.2266 L 46.0782 53.207 L 42.0385 74.7881 L 42.4069 134.8749 L 30.7715 179.1178 L 20.024 173.5959 L 19.6064 177.0799 L 24.9052 129.279 L 22.2351 85.851 L 22.0156 69.5717 L 25.4678 60.2266 Z " stroke-width="0.9999999739625841"/>
    <path id="ID0.5234400681219995" fill="#101010" stroke="none" d="M 64.6566 98.2688 C 65.0688 98.2886 65.4346 98.474 65.6922 98.7576 C 65.9498 99.0411 66.0992 99.423 66.0794 99.8351 C 66.0596 100.2473 65.8743 100.6131 65.5907 100.8707 C 65.3071 101.1283 64.9253 101.2777 64.5131 101.2579 C 64.1009 101.2381 63.7352 101.0528 63.4776 100.7692 C 63.22 100.4856 63.0706 100.1038 63.0903 99.6916 C 63.1101 99.2794 63.2955 98.9137 63.5791 98.6561 C 63.8626 98.3985 64.2445 98.2491 64.6566 98.2688 Z " stroke-width="0.6299999591812886"/>
    <path id="ID0.5234400681219995" fill="#101010" stroke="none" d="M 64.0066 111.8188 C 64.4188 111.8386 64.7846 112.024 65.0422 112.3076 C 65.2998 112.5911 65.4492 112.973 65.4294 113.3851 C 65.4096 113.7973 65.2243 114.1631 64.9407 114.4207 C 64.6571 114.6783 64.2753 114.8277 63.8631 114.8079 C 63.4509 114.7881 63.0852 114.6028 62.8276 114.3192 C 62.57 114.0356 62.4206 113.6538 62.4403 113.2416 C 62.4601 112.8294 62.6455 112.4637 62.9291 112.2061 C 63.2126 111.9485 63.5945 111.7991 64.0066 111.8188 Z " stroke-width="0.6299999591812886"/>
    <path id="ID0.5234400681219995" fill="#101010" stroke="none" d="M 62.5066 143.2688 C 62.9188 143.2886 63.2846 143.474 63.5422 143.7576 C 63.7998 144.0411 63.9492 144.423 63.9294 144.8351 C 63.9096 145.2473 63.7243 145.6131 63.4407 145.8707 C 63.1571 146.1283 62.7753 146.2777 62.3631 146.2579 C 61.9509 146.2381 61.5852 146.0528 61.3276 145.7692 C 61.07 145.4856 60.9206 145.1038 60.9403 144.6916 C 60.9601 144.2794 61.1455 143.9137 61.4291 143.6561 C 61.7126 143.3985 62.0945 143.2491 62.5066 143.2688 Z " stroke-width="0.6299999591812886"/>
    <path id="ID0.5234400681219995" fill="#101010" stroke="none" d="M 63.2066 128.5688 C 63.6188 128.5886 63.9846 128.774 64.2422 129.0576 C 64.4998 129.3411 64.6492 129.723 64.6294 130.1351 C 64.6096 130.5473 64.4243 130.9131 64.1407 131.1707 C 63.8571 131.4283 63.4753 131.5777 63.0631 131.5579 C 62.6509 131.5381 62.2852 131.3528 62.0276 131.0692 C 61.77 130.7856 61.6206 130.4038 61.6403 129.9916 C 61.6601 129.5794 61.8455 129.2137 62.1291 128.9561 C 62.4126 128.6985 62.7945 128.5491 63.2066 128.5688 Z " stroke-width="0.6299999591812886"/>
    <path id="ID0.5234400681219995" fill="#101010" stroke="none" d="M 61.7066 157.2188 C 62.1188 157.2386 62.4846 157.424 62.7422 157.7076 C 62.9998 157.9911 63.1492 158.373 63.1294 158.7851 C 63.1096 159.1973 62.9243 159.5631 62.6407 159.8207 C 62.3571 160.0783 61.9753 160.2277 61.5631 160.2079 C 61.1509 160.1881 60.7852 160.0028 60.5276 159.7192 C 60.27 159.4356 60.1206 159.0538 60.1403 158.6416 C 60.1601 158.2294 60.3455 157.8637 60.6291 157.6061 C 60.9126 157.3485 61.2945 157.1991 61.7066 157.2188 Z " stroke-width="0.6299999591812886"/>
    <path id="ID0.4144489667378366" fill="#313131" stroke="none" stroke-linecap="round" d="M 98.9224 62.8312 L 79.0794 53.8692 L 81.0328 75.7381 L 74.9087 135.5131 L 82.2515 180.6673 L 93.4786 176.2006 L 93.5605 179.7086 L 92.8661 131.6199 L 99.6851 88.6475 L 101.4633 72.4642 L 98.9224 62.8312 Z " stroke-width="0.9999999739625841"/>
    <path id="ID0.8752945330925286" fill="none" stroke="#222222" stroke-width="1.9999999479251682" stroke-linecap="round" d="M 25.9552 60.5003 L 22.3373 68.0855 L 23.7729 105.9479 "/>
    <path id="ID0.8752945330925286" fill="none" stroke="#222222" stroke-width="1.9999999479251682" stroke-linecap="round" d="M 99.111 63.507 L 101.9855 71.4039 L 96.9287 108.9546 "/>
    <path id="ID0.5234400681219995" fill="#101010" stroke="none" d="M 39.4066 142.8188 C 39.8188 142.8386 40.1846 143.024 40.4422 143.3076 C 40.6998 143.5911 40.8492 143.973 40.8294 144.3851 C 40.8096 144.7973 40.6243 145.1631 40.3407 145.4207 C 40.0571 145.6783 39.6753 145.8277 39.2631 145.8079 C 38.8509 145.7881 38.4852 145.6028 38.2276 145.3192 C 37.97 145.0356 37.8206 144.6538 37.8403 144.2416 C 37.8601 143.8294 38.0455 143.4637 38.3291 143.2061 C 38.6126 142.9485 38.9945 142.7991 39.4066 142.8188 Z " stroke-width="0.6299999591812886"/>
    <path id="ID0.5234400681219995" fill="#101010" stroke="none" d="M 37.6566 150.0188 C 38.0688 150.0386 38.4346 150.224 38.6922 150.5076 C 38.9498 150.7911 39.0992 151.173 39.0794 151.5851 C 39.0596 151.9973 38.8743 152.3631 38.5907 152.6207 C 38.3071 152.8783 37.9253 153.0277 37.5131 153.0079 C 37.1009 152.9881 36.7352 152.8028 36.4776 152.5192 C 36.22 152.2356 36.0706 151.8538 36.0903 151.4416 C 36.1101 151.0294 36.2955 150.6637 36.5791 150.4061 C 36.8626 150.1485 37.2445 149.9991 37.6566 150.0188 Z " stroke-width="0.6299999591812886"/>
    <g id="ID0.20783481979742646">
      <path id="ID0.5848579816520214" fill="#737373" stroke="none" stroke-linecap="round" d="M 87.0211 90.7832 L 93.9352 89.6135 L 93.6482 93.5042 L 86.3826 93.6559 L 87.0211 90.7832 Z " stroke-width="0.9999999739625841"/>
      <path id="ID0.13105127029120922" fill="none" stroke="#222222" stroke-width="1.9999999479251682" stroke-linecap="round" d="M 85.0222 93.8409 L 89.517 94.0567 L 94.8329 92.8103 "/>
    </g>
  </g>
  <path id="ID0.6101007834076881" fill="#FFFFFF" stroke="none" stroke-linecap="round" d="M 73.8313 20.2858 L 75.4605 20.773 L 79.171 22.1739 L 79.6101 24.1684 L 74.4402 22.4376 L 73.8313 20.2858 Z " stroke-width="0.40610620427617633"/>
  <path id="ID0.043594349175691605" fill="#D7E2FD" stroke="none" stroke-linecap="round" d="M 78.9159 23.2348 L 79.2037 22.1308 L 79.6014 24.2125 L 77.0533 23.3389 L 78.9159 23.2348 Z " stroke-width="0.5080372725919315"/>
  <path id="ID0.46110434643924236" fill="#D8BFA7" stroke="none" stroke-linecap="round" d="M 52.5372 34.1919 L 75.1259 35.2765 L 74.6839 54.2272 L 68.3602 56.7768 L 51.5732 54.2687 L 52.5372 34.1919 Z " stroke-width="1.0876357609968201"/>
  <path id="ID0.8999492498114705" fill="#EDD2B8" stroke="none" stroke-linecap="round" d="M 71.7357 3.5724 C 76.1319 4.1196 80.8212 6.903 82.8931 10.8184 C 85.2572 15.2887 83.2946 20.8504 83.4453 25.856 C 83.527 27.5975 83.7285 29.4186 83.2615 31.1628 C 82.7062 34.3105 81.4724 37.3014 80.4253 40.4171 C 79.7205 42.5173 79.4934 44.8505 78.2951 46.7353 C 76.9445 48.9673 75.5534 52.0802 72.9471 52.4956 C 69.0831 53.1111 65.0356 51.2071 61.6136 49.3986 C 58.8024 47.9126 56.1835 45.6598 54.6522 42.8634 C 51.9126 37.6754 49.4395 31.9764 49.1451 26.0871 C 48.8188 19.5586 48.1736 11.4815 52.9998 6.839 C 57.3219 2.3641 65.2004 2.7619 71.7357 3.5724 Z " stroke-width="0.5080372992401803"/>
  <path id="ID0.8194515448994935" fill="#EDD2B8" stroke="none" stroke-linecap="round" d="M 48.9867 20.47 C 49.8393 20.5702 50.4484 21.1487 50.9389 22.2154 C 51.4295 23.2821 51.7208 24.7488 51.6958 26.3626 C 51.6708 27.9764 51.3342 29.4334 50.8109 30.4844 C 50.2876 31.5354 49.6603 32.0678 48.8056 32.1686 C 48.0211 32.2594 47.0219 31.8149 46.6713 31.1354 C 46.0156 29.6271 46.1631 27.8521 46.0965 26.2759 C 46.0305 24.7267 45.6969 23.0194 46.3185 21.6288 C 46.8106 20.7823 48.0933 20.3651 48.9867 20.47 Z " stroke-width="0.9999999815431039"/>
  <path id="ID0.5768358684144914" fill="#2E3234" stroke="none" d="M 48.0795 17.3511 L 54.0787 17.444 L 54.0509 19.2438 L 48.0516 19.1509 L 48.0795 17.3511 Z " stroke-width="0.9999999815431039"/>
  <path id="ID0.3245162623934448" fill="#54595E" stroke="none" stroke-linecap="round" d="M 70.3359 4.6185 C 73.5915 4.6689 76.5005 7.3423 78.5705 11.6198 C 80.6405 15.8974 81.2934 22.6293 81.7714 28.2484 C 82.2597 33.9856 84.0649 40.2523 81.6551 45.4487 C 79.7979 49.4524 74.805 52.4464 70.2927 52.6236 C 66.0315 52.7947 60.9314 50.2454 58.9885 46.3478 C 56.2435 40.8397 57.6643 34.0769 58.1743 27.883 C 58.6373 22.2635 59.687 15.573 61.8885 11.3616 C 64.09 7.1501 67.0803 4.5681 70.3359 4.6185 Z " stroke-width="0.9999999815431039"/>
  <path id="ID0.8999492498114705" fill="#54595E" stroke="none" stroke-linecap="round" d="M 73.6357 0.9724 C 77.8666 2.2853 82.7212 4.303 84.7931 8.2184 C 87.1572 12.6887 84.5984 18.3012 85.3453 23.256 C 85.6407 25.2132 88.0917 26.7592 87.9518 28.8346 C 87.7281 31.5043 85.5834 33.6706 84.3581 36.1464 C 83.0249 38.8339 81.8453 41.6768 80.1951 44.1353 C 78.7372 46.3087 77.2172 48.7876 74.8471 49.8956 C 73.022 50.7474 70.4046 50.9538 68.8545 49.7012 C 67.622 48.7056 68.7993 46.507 68.4455 44.9442 C 68.1471 43.0179 66.8786 41.2652 66.9072 39.2805 C 66.9892 33.7567 68.9382 28.3502 69.042 22.8257 C 69.1559 16.7507 69.5873 10.5093 67.6953 4.7928 C 66.9716 2.6059 60.7653 1.9377 61.8555 1.2981 C 63.5474 0.1486 69.8872 -0.1907 73.6357 0.9724 Z " stroke-width="0.5080372992401803"/>
  <path id="ID0.8999492498114705" fill="#54595E" stroke="none" stroke-linecap="round" d="M 62.3779 1.3272 C 58.5785 2.3999 54.3343 4.3046 52.3951 7.8033 C 50.0334 12.0393 51.2599 17.4609 50.6724 22.2574 C 50.4556 24.0187 49.3639 25.8131 49.7275 27.5016 C 50.2619 29.8385 52.3474 31.6227 52.9814 33.9286 C 53.8544 37.105 53.0433 40.7259 54.3285 43.7304 C 55.3583 46.1364 57.1609 48.4726 59.4956 49.6535 C 61.2934 50.5614 63.9032 50.8487 65.4913 49.6447 C 66.754 48.6877 65.6454 46.4537 66.0474 44.9026 C 66.4053 42.9865 67.7275 41.2739 67.7603 39.2892 C 67.8493 33.7655 66.0687 28.3013 66.136 22.7763 C 66.2102 16.7006 66.4293 10.5946 68.0403 4.7937 C 68.4745 3.2345 73.1705 2.6019 72.2248 1.9877 C 70.3528 0.783 65.5431 0.3574 62.3779 1.3272 Z " stroke-width="0.5080372992401803"/>
  <path id="ID0.45774566335603595" fill="#54595E" stroke="none" stroke-linecap="round" d="M 70.267 36.5197 C 72.3707 36.5523 73.891 37.84 75.6244 38.6689 C 77.2048 39.4255 80.2074 39.61 80.1673 41.4236 C 80.1354 44.2554 77.6129 46.6607 75.4701 48.6357 C 74.0567 49.938 72.1525 50.6506 70.0487 50.618 C 67.945 50.5855 66.1552 49.7147 64.6913 48.4688 C 62.6658 46.7463 60.0689 44.7148 60.1542 42.1138 C 60.14 40.1214 63.0748 39.4497 64.8457 38.502 C 66.5399 37.5942 68.1633 36.4872 70.267 36.5197 Z " stroke-width="0.9999999815431039"/>
  <path id="ID0.6934182443656027" fill="#54595E" stroke="none" stroke-linecap="round" d="M 56.1304 30.6056 L 69.3153 34.9102 L 83.4833 30.6291 L 80.3791 37.3318 L 79.8095 41.8235 L 59.9518 42.1661 L 58.8972 35.9991 L 56.1304 30.6056 Z " stroke-width="0.9999999815431039"/>
  <path id="ID0.6236958587542176" fill="#3B4043" stroke="none" stroke-linecap="round" d="M 62.355 27.5011 L 78.1039 27.6949 L 77.2863 35.2831 L 77.6787 42.2401 L 74.7657 52.7462 L 65.1661 52.6476 L 61.7713 42.5938 L 62.7889 35.0087 L 62.355 27.5011 Z " stroke-width="0.9999999815431039"/>
  <path id="ID0.6043254472315311" fill="#3B4043" stroke="none" stroke-linecap="round" d="M 55.5219 4.7064 L 60.3155 1.9302 L 64.9782 7.6031 L 71.4604 8.8036 L 69.9118 28.0819 L 67.218 30.8906 L 61.874 30.4578 L 58.357 28.3031 L 56.8175 24.3788 L 58.418 17.9028 L 55.5219 4.7064 Z " stroke-width="0.9999999815431039"/>
  <path id="ID0.6043254472315311" fill="#3B4043" stroke="none" stroke-linecap="round" d="M 83.9023 6.6787 L 81.8413 4.1465 L 79.1094 2.9541 L 74.8872 7.5893 L 68.3709 8.5885 L 69.322 27.9056 L 71.9275 30.7962 L 77.2823 30.5291 L 81.8127 28.599 L 82.5246 24.6096 L 81.1254 18.0871 L 83.9023 6.6787 Z " stroke-width="0.9999999815431039"/>
  <path id="ID0.9914007503539324" fill="#33383A" stroke="none" d="M 67.8344 35.1353 L 66.3665 23.3611 L 72.8111 23.761 L 72.9346 35.1642 L 67.8344 35.1353 Z " stroke-width="0.9999999815431039"/>
  <path id="ID0.28340246016159654" fill="#D8BFA7" stroke="none" stroke-linecap="round" d="M 55.9143 21.4472 L 62.7323 21.6461 L 67.1397 23.9857 L 67.9639 27.4211 L 66.5432 29.6083 L 63.0287 29.9272 L 60.2916 29.387 L 58.2097 28.5769 L 56.1144 26.802 L 55.2398 24.7971 L 55.9143 21.4472 Z " stroke-width="0.5947752426330791"/>
  <path id="ID0.28340246016159654" fill="#D8BFA7" stroke="none" stroke-linecap="round" d="M 84.5332 21.9666 L 77.7123 21.9544 L 73.2346 24.1564 L 72.3044 27.5647 L 73.6568 29.7947 L 77.1598 30.2224 L 79.9122 29.7671 L 82.0182 29.0219 L 84.1674 27.3127 L 85.1037 25.3359 L 84.5332 21.9666 Z " stroke-width="0.5947752426330791"/>
  <path id="ID0.17377300979569554" fill="#FFFFFF" stroke="none" stroke-linecap="round" d="M 60.1848 25.1824 L 61.1046 24.366 L 63.3943 24.2172 L 65.637 24.8576 L 66.059 26.8152 L 63.4241 26.6424 L 60.1848 25.1824 Z " stroke-width="1.0000000105773528"/>
  <path id="ID0.17377300979569554" fill="#FFFFFF" stroke="none" stroke-linecap="round" d="M 81.6931 25.5441 L 80.7991 24.6996 L 78.515 24.48 L 76.2535 25.0507 L 75.7712 26.9942 L 78.4101 26.9031 L 81.6931 25.5441 Z " stroke-width="0.9999999590935742"/>
  <path id="ID0.44800941413268447" fill="none" stroke="#33383A" stroke-width="1.0503597228235653" stroke-linecap="round" d="M 68.7774 27.864 L 67.2162 23.5328 L 62.8692 21.0231 L 56.3033 21.0528 "/>
  <path id="ID0.12448931112885475" fill="#33383A" stroke="none" stroke-linecap="round" d="M 67.9368 33.4783 L 72.7346 33.6526 L 73.6358 36.817 L 70.5129 38.2688 L 67.0373 36.6648 L 67.9368 33.4783 Z " stroke-width="0.9999999815431039"/>
  <path id="ID0.44800941413268447" fill="none" stroke="#33383A" stroke-width="1.0503597594031666" stroke-linecap="round" d="M 67.9682 24.3562 L 68.8101 21.8011 L 67.4173 18.4146 "/>
  <path id="ID0.44800941413268447" fill="none" stroke="#33383A" stroke-width="1.0503597765910548" stroke-linecap="round" d="M 72.2599 24.2816 L 71.4975 21.7016 L 72.9944 18.3599 "/>
  <g id="ID0.32985211815685034">
    <g id="ID0.08651347272098064">
      <g id="ID0.07771636918187141">
        <path id="ID0.7001032647676766" fill="none" stroke="#646B70" stroke-width="0.5238095056153385" stroke-linecap="round" d="M 61.4095 39.2996 C 61.4095 39.2996 61.3394 39.6666 61.2963 39.8479 C 61.2557 40.0186 61.0974 40.1917 61.1574 40.3566 C 61.2195 40.5273 61.426 40.619 61.5978 40.6777 C 61.7629 40.734 61.9471 40.681 62.1215 40.6858 C 62.2959 40.6906 62.5584 40.8584 62.645 40.707 C 62.8529 40.3448 62.8214 39.4655 62.8214 39.4655 "/>
        <path id="ID0.7001032647676766" fill="none" stroke="#646B70" stroke-width="0.5238095056153385" stroke-linecap="round" d="M 62.9095 39.2996 C 62.9095 39.2996 62.8394 39.6666 62.7963 39.8479 C 62.7557 40.0186 62.5974 40.1917 62.6574 40.3566 C 62.7195 40.5273 62.926 40.619 63.0978 40.6777 C 63.2629 40.734 63.4471 40.681 63.6215 40.6858 C 63.7959 40.6906 64.0584 40.8584 64.145 40.707 C 64.3529 40.3448 64.3214 39.4655 64.3214 39.4655 "/>
      </g>
      <g id="ID0.07771636918187141">
        <path id="ID0.7001032647676766" fill="none" stroke="#646B70" stroke-width="0.5238095056153385" stroke-linecap="round" d="M 64.5095 39.4496 C 64.5095 39.4496 64.4394 39.8166 64.3963 39.9979 C 64.3557 40.1686 64.1974 40.3417 64.2574 40.5066 C 64.3195 40.6773 64.526 40.769 64.6978 40.8277 C 64.8629 40.884 65.0471 40.831 65.2215 40.8358 C 65.3959 40.8406 65.6584 41.0084 65.745 40.857 C 65.9529 40.4948 65.9214 39.6155 65.9214 39.6155 "/>
        <path id="ID0.7001032647676766" fill="none" stroke="#646B70" stroke-width="0.5238095056153385" stroke-linecap="round" d="M 66.0095 39.5996 C 66.0095 39.5996 65.9394 39.9666 65.8963 40.1479 C 65.8557 40.3186 65.6974 40.4917 65.7574 40.6566 C 65.8195 40.8273 66.026 40.919 66.1978 40.9777 C 66.3629 41.034 66.5471 40.981 66.7215 40.9858 C 66.8959 40.9906 67.1584 41.1584 67.245 41.007 C 67.4529 40.6448 67.4214 39.7655 67.4214 39.7655 "/>
      </g>
      <path id="ID0.7001032647676766" fill="none" stroke="#646B70" stroke-width="0.5238094976121259" stroke-linecap="round" d="M 67.5659 39.7698 C 67.5659 39.7698 67.5346 40.142 67.5107 40.3269 C 67.4882 40.5009 67.349 40.6896 67.426 40.8473 C 67.5056 41.0106 67.7206 41.0801 67.8975 41.1205 C 68.0677 41.1592 68.2453 41.0872 68.4192 41.0737 C 68.5931 41.0602 68.8718 41.1995 68.9421 41.0399 C 69.1108 40.6579 68.9874 39.7868 68.9874 39.7868 "/>
    </g>
    <g id="ID0.08651347272098064">
      <g id="ID0.07771636918187141">
        <path id="ID0.7001032647676766" fill="none" stroke="#646B70" stroke-width="0.5238095056153385" stroke-linecap="round" d="M 76.5395 39.528 C 76.5395 39.528 76.5982 39.8969 76.6357 40.0795 C 76.671 40.2514 76.8239 40.4292 76.7587 40.5922 C 76.6914 40.7609 76.4821 40.8462 76.3087 40.8995 C 76.1418 40.9507 75.9594 40.892 75.7849 40.8914 C 75.6105 40.8908 75.343 41.0504 75.261 40.8964 C 75.0645 40.528 75.1231 39.6501 75.1231 39.6501 "/>
        <path id="ID0.7001032647676766" fill="none" stroke="#646B70" stroke-width="0.5238095056153385" stroke-linecap="round" d="M 75.0395 39.478 C 75.0395 39.478 75.0982 39.8469 75.1357 40.0295 C 75.171 40.2014 75.3239 40.3792 75.2587 40.5422 C 75.1914 40.7109 74.9821 40.7962 74.8087 40.8495 C 74.6418 40.9007 74.4594 40.842 74.2849 40.8414 C 74.1105 40.8408 73.843 41.0004 73.761 40.8464 C 73.5645 40.478 73.6231 39.6001 73.6231 39.6001 "/>
      </g>
      <g id="ID0.07771636918187141">
        <path id="ID0.7001032647676766" fill="none" stroke="#646B70" stroke-width="0.5238095056153385" stroke-linecap="round" d="M 73.3395 39.628 C 73.3395 39.628 73.3982 39.9969 73.4357 40.1795 C 73.471 40.3514 73.6239 40.5292 73.5587 40.6922 C 73.4914 40.8609 73.2821 40.9462 73.1087 40.9995 C 72.9418 41.0507 72.7594 40.992 72.5849 40.9914 C 72.4105 40.9908 72.143 41.1504 72.061 40.9964 C 71.8645 40.628 71.9231 39.7501 71.9231 39.7501 "/>
        <path id="ID0.7001032647676766" fill="none" stroke="#646B70" stroke-width="0.5238095056153385" stroke-linecap="round" d="M 71.8395 39.678 C 71.8395 39.678 71.8982 40.0469 71.9357 40.2295 C 71.971 40.4014 72.1239 40.5792 72.0587 40.7422 C 71.9914 40.9109 71.7821 40.9962 71.6087 41.0495 C 71.4418 41.1007 71.2594 41.042 71.0849 41.0414 C 70.9105 41.0408 70.643 41.2004 70.561 41.0464 C 70.3645 40.678 70.4231 39.8001 70.4231 39.8001 "/>
      </g>
      <path id="ID0.7001032647676766" fill="none" stroke="#646B70" stroke-width="0.5238095028113345" stroke-linecap="round" d="M 70.4008 39.8491 C 70.4008 39.8491 70.4205 40.2221 70.4387 40.4077 C 70.4558 40.5823 70.5892 40.7752 70.5073 40.9304 C 70.4227 41.0911 70.2056 41.154 70.0275 41.1889 C 69.8562 41.2223 69.6809 41.1449 69.5075 41.126 C 69.3341 41.1071 69.0513 41.2377 68.9859 41.076 C 68.8291 40.689 68.9795 39.8221 68.9795 39.8221 "/>
    </g>
  </g>
  <path id="ID0.7001032647676766" fill="none" stroke="#646B70" stroke-width="0.5238095652416765" stroke-linecap="round" d="M 61.6605 42.372 C 61.6605 42.372 61.6018 42.0031 61.5643 41.8205 C 61.529 41.6486 61.3761 41.4708 61.4413 41.3078 C 61.5086 41.1391 61.7179 41.0538 61.8913 41.0005 C 62.0582 40.9493 62.2406 41.008 62.4151 41.0086 C 62.5895 41.0092 62.857 40.8496 62.939 41.0036 C 63.1355 41.372 63.0769 42.2499 63.0769 42.2499 "/>
  <path id="ID0.7001032647676766" fill="none" stroke="#646B70" stroke-width="0.5238095652416765" stroke-linecap="round" d="M 63.1605 42.372 C 63.1605 42.372 63.1018 42.0031 63.0643 41.8205 C 63.029 41.6486 62.8761 41.4708 62.9413 41.3078 C 63.0086 41.1391 63.2179 41.0538 63.3913 41.0005 C 63.5582 40.9493 63.7406 41.008 63.9151 41.0086 C 64.0895 41.0092 64.357 40.8496 64.439 41.0036 C 64.6355 41.372 64.5769 42.2499 64.5769 42.2499 "/>
  <g id="ID0.07771636918187141">
    <path id="ID0.7001032647676766" fill="none" stroke="#646B70" stroke-width="0.5238095652272582" stroke-linecap="round" d="M 64.2105 42.522 C 64.2105 42.522 64.1518 42.1531 64.1143 41.9705 C 64.079 41.7986 63.9261 41.6208 63.9913 41.4578 C 64.0586 41.2891 64.2679 41.2038 64.4413 41.1505 C 64.6082 41.0993 64.7906 41.158 64.9651 41.1586 C 65.1395 41.1592 65.407 40.9996 65.489 41.1536 C 65.6855 41.522 65.6269 42.3999 65.6269 42.3999 "/>
    <path id="ID0.7001032647676766" fill="none" stroke="#646B70" stroke-width="0.5238095652272582" stroke-linecap="round" d="M 65.7105 42.372 C 65.7105 42.372 65.6518 42.0031 65.6143 41.8205 C 65.579 41.6486 65.4261 41.4708 65.4913 41.3078 C 65.5586 41.1391 65.7679 41.0538 65.9413 41.0005 C 66.1082 40.9493 66.2906 41.008 66.4651 41.0086 C 66.6395 41.0092 66.907 40.8496 66.989 41.0036 C 67.1855 41.372 67.1269 42.2499 67.1269 42.2499 "/>
  </g>
  <path id="ID0.7001032647676766" fill="none" stroke="#646B70" stroke-width="0.5238095628793856" stroke-linecap="round" d="M 67.7492 42.6009 C 67.7492 42.6009 67.7295 42.2279 67.7113 42.0423 C 67.6942 41.8677 67.5608 41.6748 67.6427 41.5196 C 67.7273 41.3589 67.9444 41.296 68.1225 41.2611 C 68.2938 41.2277 68.4691 41.3051 68.6425 41.324 C 68.8159 41.3429 69.0987 41.2123 69.1641 41.374 C 69.3209 41.761 69.1706 42.6279 69.1706 42.6279 "/>
  <path id="ID0.7001032647676766" fill="none" stroke="#646B70" stroke-width="0.5238095652416765" stroke-linecap="round" d="M 77.4905 42.4504 C 77.4905 42.4504 77.5606 42.0834 77.6037 41.9021 C 77.6443 41.7314 77.8026 41.5583 77.7426 41.3934 C 77.6805 41.2227 77.4739 41.131 77.3022 41.0723 C 77.137 41.016 76.9529 41.069 76.7785 41.0642 C 76.6041 41.0594 76.3416 40.8916 76.2549 41.043 C 76.0471 41.4052 76.0786 42.2844 76.0786 42.2844 "/>
  <path id="ID0.7001032647676766" fill="none" stroke="#646B70" stroke-width="0.5238095652416765" stroke-linecap="round" d="M 75.9905 42.4504 C 75.9905 42.4504 76.0606 42.0834 76.1037 41.9021 C 76.1443 41.7314 76.3026 41.5583 76.2426 41.3934 C 76.1805 41.2227 75.9739 41.131 75.8022 41.0723 C 75.637 41.016 75.4529 41.069 75.2785 41.0642 C 75.1041 41.0594 74.8416 40.8916 74.7549 41.043 C 74.5471 41.4052 74.5786 42.2844 74.5786 42.2844 "/>
  <path id="ID0.7001032647676766" fill="none" stroke="#646B70" stroke-width="0.5238095652416765" stroke-linecap="round" d="M 74.0905 42.5004 C 74.0905 42.5004 74.1606 42.1334 74.2037 41.9521 C 74.2443 41.7814 74.4026 41.6083 74.3426 41.4434 C 74.2805 41.2727 74.0739 41.181 73.9022 41.1223 C 73.737 41.066 73.5529 41.119 73.3785 41.1142 C 73.2041 41.1094 72.9416 40.9416 72.8549 41.093 C 72.6471 41.4552 72.6786 42.3344 72.6786 42.3344 "/>
  <path id="ID0.7001032647676766" fill="none" stroke="#646B70" stroke-width="0.5238095652416765" stroke-linecap="round" d="M 72.5905 42.6004 C 72.5905 42.6004 72.6606 42.2334 72.7037 42.0521 C 72.7443 41.8814 72.9026 41.7083 72.8426 41.5434 C 72.7805 41.3727 72.5739 41.281 72.4022 41.2223 C 72.237 41.166 72.0529 41.219 71.8785 41.2142 C 71.7041 41.2094 71.4416 41.0416 71.3549 41.193 C 71.1471 41.5552 71.1786 42.4344 71.1786 42.4344 "/>
  <path id="ID0.7001032647676766" fill="none" stroke="#646B70" stroke-width="0.5238095573111431" stroke-linecap="round" d="M 70.9841 42.7302 C 70.9841 42.7302 71.0154 42.358 71.0393 42.1731 C 71.0618 41.9991 71.201 41.8104 71.124 41.6527 C 71.0444 41.4894 70.8294 41.4199 70.6525 41.3795 C 70.4823 41.3408 70.3047 41.4128 70.1308 41.4263 C 69.9569 41.4398 69.6782 41.3005 69.6079 41.4601 C 69.4392 41.8421 69.5626 42.7132 69.5626 42.7132 "/>
  <path id="ID0.44800941413268447" fill="none" stroke="#2E3234" stroke-width="0.6130029249851505" stroke-linecap="round" d="M 72.6607 33.9402 L 70.8735 32.611 L 67.552 33.6037 "/>
  <path id="ID0.44800941413268447" fill="none" stroke="#33383A" stroke-width="1.0503597228235653" stroke-linecap="round" d="M 71.262 27.917 L 72.9565 23.6362 L 77.3791 21.2623 L 83.941 21.4952 "/>
  <g id="ID0.6897007944062352">
    <path id="ID0.2692581438459456" fill="#7AABFF" stroke="none" d="M 79.5456 24.5345 C 79.2283 24.4387 78.9027 24.4813 78.632 24.6264 C 78.3614 24.7715 78.1458 25.0192 78.05 25.3364 C 77.9542 25.6537 77.9967 25.9793 78.1418 26.25 C 78.2869 26.5206 78.5346 26.7363 78.8519 26.8321 C 79.1691 26.9279 79.4948 26.8853 79.7654 26.7402 C 80.0361 26.5951 80.2517 26.3474 80.3475 26.0302 C 80.4433 25.7129 80.4008 25.3872 80.2556 25.1166 C 80.1105 24.846 79.8629 24.6303 79.5456 24.5345 Z " stroke-width="1.1428571200984377"/>
    <path id="ID0.8070062398910522" fill="#192334" stroke="none" d="M 79.382 25.2178 C 79.2501 25.178 79.1138 25.1949 79.0013 25.2561 C 78.8881 25.3159 78.7986 25.4201 78.7588 25.552 C 78.719 25.6839 78.7358 25.8201 78.7971 25.9326 C 78.8569 26.0458 78.961 26.1353 79.0929 26.1751 C 79.2248 26.215 79.3611 26.1981 79.4736 26.1369 C 79.5868 26.0771 79.6763 25.9729 79.7161 25.841 C 79.7559 25.7091 79.739 25.5729 79.6778 25.4604 C 79.618 25.3471 79.5139 25.2577 79.382 25.2178 Z " stroke-width="1.111111137911344"/>
  </g>
  <g id="ID0.5823970721103251">
    <path id="ID0.2692581438459456" fill="#7AABFF" stroke="none" d="M 63.3267 24.4921 C 63.6468 24.4062 63.971 24.4588 64.237 24.6122 C 64.503 24.7656 64.7109 25.0198 64.7968 25.3399 C 64.8828 25.66 64.8302 25.9842 64.6767 26.2502 C 64.5233 26.5162 64.2691 26.7241 63.949 26.81 C 63.6289 26.896 63.3048 26.8433 63.0387 26.6899 C 62.7727 26.5365 62.5648 26.2823 62.4789 25.9622 C 62.393 25.6421 62.4456 25.3179 62.599 25.0519 C 62.7524 24.7859 63.0067 24.578 63.3267 24.4921 Z " stroke-width="1.1428571056029395"/>
    <path id="ID0.8070062398910522" fill="#192334" stroke="none" d="M 63.6012 25.043 C 63.7342 25.0073 63.8699 25.0284 63.9804 25.093 C 64.0918 25.1563 64.178 25.2632 64.2137 25.3962 C 64.2494 25.5293 64.2283 25.665 64.1637 25.7755 C 64.1004 25.8869 63.9935 25.9731 63.8604 26.0088 C 63.7274 26.0445 63.5917 26.0234 63.4812 25.9587 C 63.3698 25.8954 63.2836 25.7886 63.2479 25.6555 C 63.2122 25.5225 63.2333 25.3868 63.2979 25.2762 C 63.3612 25.1649 63.4681 25.0787 63.6012 25.043 Z " stroke-width="1.111111226062502"/>
  </g>
  <path id="ID0.023752907756716013" fill="none" stroke="#584E44" stroke-width="1.1814346310524628" stroke-linecap="round" d="M 59.6235 22.9016 L 62.9177 23.1316 L 65.277 24.1595 "/>
  <path id="ID0.023752907756716013" fill="none" stroke="#584E44" stroke-width="1.1814345717284167" stroke-linecap="round" d="M 81.6473 23.309 L 78.3476 23.4369 L 75.9576 24.3913 "/>
  <g id="ID0.5880346246995032">
    <path id="ID0.6829322893172503" fill="#1D1E1F" stroke="none" stroke-linecap="round" d="M 92.2541 158.5702 L 95.01 147.3092 L 101.3334 148.3351 L 108.4935 148.996 L 112.8802 152.6594 L 116.0911 156.1387 L 117.1327 159.6679 L 121.3869 165.0822 L 118.221 168.5547 L 115.8693 168.1863 L 114.6659 169.3088 L 110.5359 170.1146 L 105.9616 170.8155 L 101.2066 169.5037 L 96.2466 164.2978 L 92.2541 158.5702 Z " stroke-width="0.8164595352617419"/>
    <g id="ID0.9434720128774643">
      <path id="ID0.6507829907350242" fill="#282828" stroke="none" stroke-linecap="round" d="M 38.3727 124.7385 L 55.7975 111.2612 L 70.9565 125.144 L 79.9633 134.1018 L 92.3401 144.4379 L 99.1896 147.1265 L 91.6546 160.0341 L 86.4491 154.6763 L 77.7515 149.8062 L 66.3631 144.0185 L 55.625 136.1147 L 38.3727 124.7385 Z " stroke-width="0.8164595352617419"/>
      <path id="ID0.9892375003546476" fill="none" stroke="#191919" stroke-width="1.999999870182249" stroke-linecap="round" d="M 91.345 159.1231 L 97.8877 146.9985 L 89.7611 143.4689 "/>
    </g>
  </g>
  <path id="ID0.7729651997797191" fill="#282828" stroke="none" stroke-linecap="round" d="M 9.8024 88.6085 L 19.2676 70.9259 L 39.0437 90.4072 L 46.07 101.1005 L 53.4311 108.8325 L 59.4921 116.8978 L 45.7527 127.4406 L 38.1554 124.3025 L 19.3064 103.6543 L 9.8024 88.6085 Z " stroke-width="1.0371910274722207"/>
  <path id="ID0.4757494777441025" fill="#282828" stroke="none" stroke-linecap="round" d="M 15.5579 61.9035 L 23.8218 58.1604 L 40.8494 59.9078 L 37.2809 86.5075 L 27.7432 93.3989 L 23.3707 95.316 L 19.6801 93.5909 L 16.2399 91.2127 L 9.9788 89.7314 L 8.8412 84.3738 L 8.0592 76.2838 L 9.7594 67.4822 L 15.5579 61.9035 Z " stroke-width="0.48299248891069474"/>
</svg>