<svg xmlns="http://www.w3.org/2000/svg" xmlns:xlink="http://www.w3.org/1999/xlink" version="1.1" width="104.86915442907919" height="337.4102310892354" viewBox="-0.37107630354220045 -0.611576306641642 104.86915442907919 337.4102310892354">
  <defs>
    <linearGradient id="grad_1" y2="1" x2="0">
      <stop offset="0" stop-color="#222325" stop-opacity="1"/>
      <stop offset="1" stop-color="#2E3034" stop-opacity="1"/>
    </linearGradient>
  </defs>
  <!-- Exported by Scratch - http://scratch.mit.edu/ -->
  <g id="ID0.9602425838820636">
    <g id="ID0.17693647183477879">
      <path id="ID0.7729651997797191" fill="#393C40" stroke="none" stroke-linecap="round" d="M 93.6277 102.2526 L 74.3276 102.8993 L 77.3941 119.1485 L 79.7663 132.2625 L 83.317 137.8121 L 86.5362 141.2103 L 98.6928 138.2279 L 100.2079 132.6205 L 95.4686 113.4045 L 93.6277 102.2526 Z " stroke-width="0.7788098910450806"/>
      <path id="ID0.9716172609478235" fill="#34373A" stroke="none" stroke-linecap="round" d="M 89.5067 107.7117 L 94.2389 105.5803 L 92.6167 99.3037 L 75.1997 108.1039 L 78.0023 111.0623 L 83.209 112.9951 L 89.5067 107.7117 Z " stroke-width="0.7788098910450806"/>
      <g id="ID0.38066427363082767">
        <path id="ID0.4757494777441025" fill="#1D1E1F" stroke="none" stroke-linecap="round" d="M 85.1977 78.2203 L 77.0806 75.9563 L 61.7451 80.1987 L 68.9201 104.7005 L 78.6661 109.7348 L 82.9517 110.873 L 86.0777 108.6857 L 88.8785 105.9218 L 94.3943 103.572 L 94.649 98.3538 L 94.1767 90.6171 L 91.3269 82.5888 L 85.1977 78.2203 Z " stroke-width="0.4541860548813729"/>
        <path id="ID0.6007084371522069" fill="none" stroke="#0D0D0D" stroke-width="0.9083721097627458" stroke-linecap="round" d="M 93.9311 103.9002 L 88.992 105.9248 L 84.8107 109.333 L 82.9486 110.9865 L 78.6661 109.7348 L 74.5247 107.4646 "/>
      </g>
    </g>
    <g id="ID0.7397577832452953">
      <path id="ID0.6726378230378032" fill="#34373A" stroke="none" stroke-linecap="round" d="M 99.5477 129.8798 L 83.8603 138.1036 L 84.5798 140.3045 L 99.8822 131.9145 L 99.5477 129.8798 Z " stroke-width="0.7788098910450806"/>
      <path id="ID0.6507829907350242" fill="#1D1E1F" stroke="none" stroke-linecap="round" d="M 102.7855 130.9372 L 84.4216 140.1793 L 84.3214 158.2905 L 85.994 168.464 L 85.5782 183.8399 L 84.8259 190.0523 L 96.2565 192.3091 L 96.6196 186.0862 L 98.6239 176.7912 L 101.6698 164.9924 L 103.6688 155.8921 L 102.7855 130.9372 Z " stroke-width="0.7788098910450806"/>
      <path id="ID0.6829322893172503" fill="#1D1E1F" stroke="none" stroke-linecap="round" d="M 96.6563 191.9304 L 86.8617 186.7962 L 83.6055 191.967 L 79.5602 197.5061 L 79.4128 202.9557 L 79.8757 207.448 L 81.7431 210.4201 L 82.9318 216.8798 L 87.4136 216.8062 L 88.634 214.8915 L 90.1963 214.739 L 93.3788 212.293 L 96.7665 209.463 L 98.8286 205.2337 L 98.2343 198.4006 L 96.6563 191.9304 Z " stroke-width="0.7788098910450806"/>
      <path id="ID0.47767175547778606" fill="none" stroke="#0D0D0D" stroke-width="1.5576197820901612" stroke-linecap="round" d="M 102.6833 134.713 L 102.5161 130.813 L 84.4994 140.1814 L 84.4498 153.5415 "/>
      <path id="ID0.5922487881034613" fill="#282A2B" stroke="none" stroke-linecap="round" d="M 102.7059 163.4045 L 96.1169 157.8505 L 90.2759 157.7705 L 84.2054 163.2937 L 85.1815 177.6165 L 89.4633 184.9389 L 92.772 185.0284 L 98.8004 178.1796 L 102.7059 163.4045 Z " stroke-width="0.7788098910450806"/>
      <path id="ID0.36820242274552584" fill="#151616" stroke="none" stroke-linecap="round" d="M 96.8401 165.8968 L 88.7455 165.6 L 91.0178 176.6467 L 92.4602 176.6077 L 96.8401 165.8968 Z " stroke-width="0.7788098910450806"/>
      <path id="ID0.13569410238415003" fill="none" stroke="#232425" stroke-width="1.5576197820901612" stroke-linecap="round" d="M 97.1931 176.402 L 91.5581 183.1056 L 86.765 175.9641 "/>
      <path id="ID0.024502143263816833" fill="none" stroke="#0D0D0D" stroke-width="1.5576197820901612" stroke-linecap="round" d="M 102.421 163.1429 L 96.5242 157.9193 L 90.7695 157.53 L 84.6211 163.0511 L 85.2565 171.2488 "/>
    </g>
  </g>
  <path id="ID0.3809091211296618" fill="#393D40" stroke="none" stroke-linecap="round" d="M 57.6835 183.6125 L 83.3108 171.0536 L 86.9482 209.6764 L 86.1441 220.5926 L 81.0927 238.5055 L 72.4987 241.2435 L 59.5624 242.693 L 59.3766 221.8743 L 61.044 210.539 L 57.6835 183.6125 Z " stroke-width="0.730588963789199"/>
  <g id="ID0.9340031337924302">
    <path id="ID0.05466862628236413" fill="#292D2E" stroke="none" stroke-linecap="round" d="M 58.1756 233.39 L 84.9061 232.6976 L 77.8301 250.8401 L 75.6696 255.6587 L 72.9346 273.594 L 64.9435 313.5553 L 49.157 313.5651 L 49.6079 291.3204 L 47.9201 282.4235 L 47.7149 272.9063 L 51.3814 259.7399 L 52.8432 247.5057 L 58.1756 233.39 Z " stroke-width="0.7305890426367553"/>
    <path id="ID0.4490455654449761" fill="none" stroke="#272A2B" stroke-width="1.6585526224385574" stroke-linecap="round" d="M 57.8246 233.6885 L 84.5908 232.6112 L 74.957 256.0429 "/>
    <path id="ID0.10446935473009944" fill="none" stroke="#242728" stroke-width="1.6585526224385574" stroke-linecap="round" d="M 73.1576 268.248 L 70.9968 284.9471 L 59.6533 290.9814 "/>
    <path id="ID0.42170455446466804" fill="none" stroke="#242728" stroke-width="1.6585526224385574" stroke-linecap="round" d="M 69.7639 285.9721 L 66.5305 300.7556 L 54.9455 306.9561 "/>
    <path id="ID0.047098892275244" fill="none" stroke="#242728" stroke-width="1.6585526224385574" stroke-linecap="round" d="M 53.0862 247.243 L 52.1508 251.0705 L 55.5652 260.3965 "/>
  </g>
  <path id="ID0.3809091211296618" fill="#3E4246" stroke="none" stroke-linecap="round" d="M 30.6409 160.0925 L 54.7655 171.7073 L 60.6413 210.0534 L 60.4728 220.9979 L 56.4709 239.1741 L 48.0506 242.4069 L 35.2203 244.6057 L 33.0293 222.9442 L 30.3593 209.7966 L 30.6409 160.0925 Z " stroke-width="0.730588913184931"/>
  <g id="ID0.17693647183477879">
    <path id="ID0.7729651997797191" fill="#3E4246" stroke="none" stroke-linecap="round" d="M 10.8246 101.5564 L 31.0615 102.1101 L 27.9514 119.1642 L 25.5489 132.9272 L 21.8625 138.7679 L 18.5095 142.351 L 5.7463 139.3028 L 4.1219 133.4341 L 8.9665 113.259 L 10.8246 101.5564 Z " stroke-width="0.8164595774985893"/>
    <path id="ID0.9716172609478235" fill="#393C40" stroke="none" stroke-linecap="round" d="M 15.1799 107.2528 L 10.2053 105.0488 L 11.8654 98.4584 L 30.1807 107.5718 L 27.2617 110.6912 L 21.8159 112.7509 L 15.1799 107.2528 Z " stroke-width="0.8164595774985893"/>
    <g id="ID0.38066427363082767">
      <path id="ID0.4757494777441025" fill="#1D1E1F" stroke="none" stroke-linecap="round" d="M 19.2957 76.3278 L 27.7905 73.9021 L 43.8944 78.2508 L 36.5304 103.9828 L 26.3458 109.3231 L 21.8605 110.5439 L 18.5693 108.2711 L 15.6154 105.3916 L 9.8179 102.9637 L 9.5173 97.4951 L 9.9627 89.3814 L 12.8985 80.9469 L 19.2957 76.3278 Z " stroke-width="0.47614251518819384"/>
      <path id="ID0.6007084371522069" fill="none" stroke="#0D0D0D" stroke-width="0.9522850303763877" stroke-linecap="round" d="M 10.3057 103.3049 L 15.4964 105.3955 L 19.9017 108.9414 L 21.8645 110.6628 L 26.3458 109.3231 L 30.6727 106.9166 "/>
    </g>
  </g>
  <g id="ID0.7397577832452953">
    <path id="ID0.6726378230378032" fill="#393C40" stroke="none" stroke-linecap="round" d="M 5.5431 130.1173 L 21.6873 139.2909 L 20.8551 141.5714 L 5.1203 132.2372 L 5.5431 130.1173 Z " stroke-width="0.8164596225023416"/>
    <path id="ID0.6507829907350242" fill="#1D1E1F" stroke="none" stroke-linecap="round" d="M 2.2703 131.2654 L 21.1826 141.6012 L 20.6441 160.5806 L 18.5302 171.1803 L 18.4195 187.305 L 18.987 193.8407 L 6.9305 195.7992 L 6.7712 189.2663 L 5.0015 179.4564 L 2.2294 166.9861 L 0.4582 157.3803 L 2.2703 131.2654 Z " stroke-width="0.8164596225023416"/>
    <path id="ID0.6829322893172503" fill="#1D1E1F" stroke="none" stroke-linecap="round" d="M 6.5251 195.3882 L 16.9697 190.3569 L 20.1977 195.8902 L 24.2393 201.8374 L 24.2001 207.5525 L 23.5555 212.2429 L 21.4934 215.2905 L 20.0184 222.0163 L 15.3253 221.78 L 14.1146 219.7305 L 12.4832 219.5152 L 9.2356 216.8394 L 5.7867 213.7539 L 3.7765 209.2495 L 4.6419 202.1112 L 6.5251 195.3882 Z " stroke-width="0.8164596225023416"/>
    <path id="ID0.47767175547778606" fill="none" stroke="#0D0D0D" stroke-width="1.6329192450046832" stroke-linecap="round" d="M 2.2432 135.2251 L 2.5569 131.1449 L 21.1009 141.6006 L 20.6783 155.6003 "/>
    <path id="ID0.5922487881034613" fill="#282A2B" stroke="none" stroke-linecap="round" d="M 0.9459 165.2395 L 8.0467 159.6546 L 14.1695 159.7782 L 20.3335 165.7808 L 18.802 180.7527 L 14.0556 188.2725 L 10.5857 188.2487 L 4.5128 180.8588 L 0.9459 165.2395 Z " stroke-width="0.8164596225023416"/>
    <path id="ID0.36820242274552584" fill="#151616" stroke="none" stroke-linecap="round" d="M 7.3486 167.9598 L 15.8401 167.9364 L 13.0669 179.4297 L 11.557 179.3377 L 7.3486 167.9598 Z " stroke-width="0.8164596225023416"/>
    <path id="ID0.13569410238415003" fill="none" stroke="#232425" stroke-width="1.6329192450046832" stroke-linecap="round" d="M 6.5144 179.0994 L 12.1802 186.3232 L 17.4558 179.0111 "/>
    <path id="ID0.024502143263816833" fill="none" stroke="#0D0D0D" stroke-width="1.6329192450046832" stroke-linecap="round" d="M 1.508 165.0216 L 7.8718 159.7581 L 13.9152 159.5546 L 20.1609 165.5578 L 19.204 174.1243 "/>
  </g>
  <g id="ID0.9157347986474633">
    <path id="ID0.7477802094072104" fill="#363A3D" stroke="none" stroke-linecap="round" d="M 87.1154 124.4715 L 67.6382 120.9715 L 66.7831 162.1489 L 83.2591 171.4206 L 86.0532 146.952 L 87.1154 124.4715 Z " stroke-width="0.47614257300029306"/>
    <path id="ID0.7477802094072104" fill="#363A3D" stroke="none" stroke-linecap="round" d="M 26.7831 123.2358 L 50.2874 120.8664 L 49.4323 162.0439 L 32.5855 170.6236 L 27.6325 145.3988 L 26.7831 123.2358 Z " stroke-width="0.47614257300029306"/>
    <path id="ID0.4270821204409003" fill="#3E4246" stroke="none" stroke-linecap="round" d="M 27.5179 103.1385 L 31.5858 90.7215 L 33.968 84.937 L 40.6594 78.0513 L 71.6913 80.1245 L 78.505 84.5522 L 81.2772 88.6578 L 88.0615 100.2286 L 87.13 110.6866 L 86.0642 116.1413 L 87.587 123.0785 L 87.9494 128.5629 L 85.6639 135.421 L 83.9366 140.6238 L 82.5537 149.8818 L 83.5985 171.8108 L 78.2868 179.9158 L 73.3736 186.0287 L 61.1457 191.204 L 49.6169 187.9404 L 45.8289 181.1467 L 41.0115 174.6174 L 32.5309 171.3457 L 31.9148 145.9728 L 30.8631 139.2835 L 26.5303 127.7637 L 25.4461 116.9066 L 27.5179 103.1385 Z " stroke-width="0.47614257300029306"/>
    <path id="ID0.052435632329434156" fill="#393C40" stroke="none" stroke-linecap="round" d="M 38.6176 153.3064 L 43.0676 153.4464 L 49.5926 156.868 L 54.6659 156.8067 L 60.5079 158.7139 L 64.7193 157.7298 L 66.3953 157.2884 L 80.6758 154.1797 L 80.9646 157.4718 L 72.3094 161.4592 L 66.3653 161.0263 L 60.7086 163.9568 L 54.1172 160.2957 L 47.6817 160.5907 L 37.883 156.5772 L 38.6176 153.3064 Z " stroke-width="0.47614257300029306"/>
    <path id="ID0.4987568911164999" fill="none" stroke="#27282B" stroke-width="0.9522851460005861" stroke-linecap="round" d="M 40.4282 78.7223 L 33.8732 84.7774 L 30.3333 94.705 "/>
    <path id="ID0.2889464790932834" fill="none" stroke="#27282B" stroke-width="0.9522851460005861" stroke-linecap="round" d="M 73.0073 80.8276 L 78.6407 84.7545 L 84.1604 94.1559 "/>
    <path id="ID0.8373676878400147" fill="#000000" stroke="#2C2F31" stroke-width="0.6155104186945868" stroke-linecap="round" d="M 43.7718 91.8289 L 44.1477 90.3053 L 40.4906 91.1437 L 35.5712 94.3904 L 31.345 99.3623 L 28.7859 104.9474 L 33.9649 102.7905 L 38.6638 102.7687 L 41.3933 103.7374 L 43.8766 106.7745 L 45.9998 105.7908 L 50.0137 105.5844 L 54.5076 106.7087 L 58.2907 109.9577 L 60.3094 113.0511 L 62.5215 110.069 L 66.2778 107.0016 L 70.42 105.6457 L 75.5766 105.7213 L 77.3974 106.3414 L 79.1518 103.2619 L 81.1315 102.0408 L 83.7243 102.6183 L 86.4998 104.2822 L 85.1302 100.4475 L 82.9186 96.4983 L 80.1278 93.4475 L 76.9954 91.1516 L 72.4947 90.1811 L 74.6416 92.125 L 74.5629 93.8928 L 72.9298 95.9766 L 69.336 97.1258 L 66.1675 97.3698 L 63.5473 97.4072 L 61.0914 93.7552 L 60.6147 95.8134 L 59.1543 95.7484 L 57.6463 93.2938 L 56.6126 97.4836 L 52.5286 97.5328 L 48.4156 96.5025 L 45.0919 95.0453 L 43.7718 91.8289 Z "/>
    <path id="ID0.5698574706912041" fill="none" stroke="#313537" stroke-width="0.9522851460005861" stroke-linecap="round" d="M 38.5497 153.1383 L 37.8879 156.3392 L 47.6792 160.7097 L 54.4702 160.4935 L 60.473 163.8328 "/>
    <path id="ID0.5698574706912041" fill="none" stroke="#313537" stroke-width="0.8933066257048137" stroke-linecap="round" d="M 80.4201 154.2278 L 80.8721 157.4518 L 72.1747 161.4384 L 66.2685 160.9586 L 60.9108 164.0619 "/>
    <path id="ID0.8947288258932531" fill="#393C40" stroke="none" stroke-linecap="round" d="M 40.1069 141.2169 L 47.131 141.2437 L 54.6367 143.3045 L 60.1869 148.9442 L 53.1848 144.4173 L 42.4575 142.6944 L 37.2773 145.611 L 40.1069 141.2169 Z " stroke-width="0.47614257300029306"/>
    <path id="ID0.8947288258932531" fill="#393C40" stroke="none" stroke-linecap="round" d="M 78.8687 143.0222 L 72.657 142.7878 L 65.9447 144.3343 L 60.8299 149.1171 L 67.1875 145.3716 L 76.7361 144.2423 L 81.2093 147.0115 L 78.8687 143.0222 Z " stroke-width="0.4213738884176943"/>
    <path id="ID0.9897695370018482" fill="#393C40" stroke="none" stroke-linecap="round" d="M 43.3037 153.5466 L 36.768 152.9346 L 37.2928 148.3021 L 38.4103 151.8257 L 43.5009 152.0743 L 49.5692 155.7007 L 55.0511 155.4574 L 59.1153 156.9705 L 60.659 149.1445 L 60.6933 158.9559 L 55.1414 156.8403 L 49.2623 156.7183 L 43.3037 153.5466 Z " stroke-width="0.47614257300029306"/>
    <path id="ID0.9897695370018482" fill="#393C40" stroke="none" stroke-linecap="round" d="M 75.6103 154.4693 L 81.155 154.1415 L 80.8823 149.8173 L 79.8083 153.0505 L 75.4979 153.0939 L 70.237 156.2401 L 65.6142 155.8119 L 62.1244 157.0682 L 61.1086 149.7389 L 60.7179 158.855 L 65.4868 157.0937 L 70.4588 157.197 L 75.6103 154.4693 Z " stroke-width="0.4232251205631144"/>
    <path id="ID0.3524594851769507" fill="#393C40" stroke="none" stroke-linecap="round" d="M 54.4472 119.0607 L 60.3046 121.3731 L 64.804 119.1329 L 61.5593 122.8755 L 62.28 134.0346 L 71.3664 133.366 L 60.867 136.7199 L 49.3014 131.7887 L 58.9468 134.013 L 58.7764 122.7225 L 54.4472 119.0607 Z " stroke-width="0.47614257300029306"/>
    <path id="ID0.9214867809787393" fill="#393C40" stroke="none" stroke-linecap="round" d="M 40.1875 137.3371 L 43.2502 133.186 L 48.0304 132.3327 L 42.1001 136.972 L 41.8012 139.8947 L 46.8463 140.0471 L 54.9436 143.4299 L 46.0098 141.3394 L 40.1545 141.2178 L 40.1875 137.3371 Z " stroke-width="0.47614257300029306"/>
    <path id="ID0.9214867809787393" fill="#393C40" stroke="none" stroke-linecap="round" d="M 78.622 138.9159 L 75.9825 134.8388 L 71.6446 133.8397 L 76.8873 138.4935 L 77.0471 141.292 L 72.428 141.2415 L 65.7251 143.9429 L 73.1427 142.5062 L 78.5015 142.6175 L 78.622 138.9159 Z " stroke-width="0.4451788453890468"/>
    <path id="ID0.8679121839813888" fill="#2C2F31" stroke="none" stroke-linecap="round" d="M 56.4241 118.0054 L 60.1988 119.703 L 63.5652 118.1299 L 64.4975 119.1017 L 60.5148 121.686 L 54.8012 119.329 L 56.4241 118.0054 Z " stroke-width="0.47614257300029306"/>
    <path id="ID0.24770551454275846" fill="none" stroke="#313537" stroke-width="0.9522851460005861" stroke-linecap="round" d="M 60.4959 116.1296 L 65.0631 119.7963 L 72.5509 120.4281 L 80.1898 119.5151 L 85.5053 115.8156 "/>
    <path id="ID0.20603158557787538" fill="none" stroke="#313537" stroke-width="0.9522851460005861" stroke-linecap="round" d="M 27.2476 111.4286 L 34.158 116.9298 L 46.4683 120.4001 L 53.7403 119.9558 L 60.0103 116.157 "/>
    <g id="ID0.5272086253389716">
      <path id="ID0.24770551454275846" fill="none" stroke="#363A3D" stroke-width="0.9522850864087884" stroke-linecap="round" d="M 29.9879 144.0256 L 39.9553 141.0655 "/>
      <path id="ID0.24770551454275846" fill="none" stroke="#363A3D" stroke-width="0.9522850864087884" stroke-linecap="round" d="M 27.6542 132.0538 L 48.2053 126.2655 "/>
    </g>
    <g id="ID0.5272086253389716">
      <path id="ID0.24770551454275846" fill="none" stroke="#363A3D" stroke-width="0.9522850864087884" stroke-linecap="round" d="M 85.4797 144.2318 L 78.5807 142.2557 "/>
      <path id="ID0.24770551454275846" fill="none" stroke="#363A3D" stroke-width="0.9522850864087884" stroke-linecap="round" d="M 86.2029 132.8424 L 72.4298 127.7945 "/>
    </g>
    <g id="ID0.7887678607366979">
      <path id="ID0.753661650698632" fill="none" stroke="#313537" stroke-width="0.9522850864087884" stroke-linecap="round" d="M 54.9207 119.1896 L 60.1078 121.6786 L 64.2085 119.1444 "/>
      <g id="ID0.8167418288066983">
        <path id="ID0.9553722990676761" fill="none" stroke="#313537" stroke-width="1.0409107743576298" stroke-linecap="round" d="M 60.4063 136.5479 L 54.8392 134.2892 L 48.706 132.2569 L 43.9163 133.1099 L 40.3201 137.3214 L 40.2484 140.7727 "/>
        <path id="ID0.5982440118677914" fill="none" stroke="#313537" stroke-width="0.8540413396238158" stroke-linecap="round" d="M 49.0334 131.8556 L 47.9532 126.5387 L 53.3362 119.5913 "/>
      </g>
      <g id="ID0.7324484633281827">
        <path id="ID0.04993448918685317" fill="none" stroke="#313537" stroke-width="0.9522850864087884" stroke-linecap="round" d="M 60.1102 121.5595 L 60.6068 132.0472 L 60.7418 148.4805 L 60.6413 164.7898 "/>
        <g id="ID0.8167418288066983">
          <path id="ID0.9553722990676761" fill="none" stroke="#313537" stroke-width="0.9699703077304642" stroke-linecap="round" d="M 60.7502 136.4275 L 65.8128 135.1754 L 71.2815 133.384 L 75.457 134.4232 L 78.4528 138.7716 L 78.3811 142.2229 "/>
          <path id="ID0.5982440118677914" fill="none" stroke="#313537" stroke-width="0.7916616152166959" stroke-linecap="round" d="M 71.0361 133.0336 L 72.1927 127.7632 L 67.7336 120.6113 "/>
          <path id="ID0.3567589442245662" fill="none" stroke="#313537" stroke-width="0.8967655150693851" stroke-linecap="round" d="M 60.6263 149.1264 L 65.8586 144.2583 L 73.2253 142.5063 L 78.7521 142.6211 L 80.8958 147.309 L 81.0431 154.3367 L 75.4805 154.9355 L 69.7638 157.9124 L 64.8491 157.5722 L 60.6031 159.3176 L 54.8142 156.6971 L 49.2197 156.819 L 42.8569 153.5913 L 36.5704 152.7464 L 37.0511 145.7318 L 39.7016 141.1434 L 45.982 141.2738 L 54.2746 143.351 L 59.9911 148.4465 Z "/>
        </g>
      </g>
    </g>
    <g id="ID0.9312638868577778">
      <path id="ID0.2888958193361759" fill="#393C40" stroke="none" stroke-linecap="round" d="M 40.9592 161.4331 L 51.1308 163.729 L 50.4755 166.6319 L 40.3039 164.3359 L 40.9592 161.4331 Z " stroke-width="0.4761425459216224"/>
      <path id="ID0.2888958193361759" fill="#393C40" stroke="none" stroke-linecap="round" d="M 30.2081 159.1286 L 41.6308 161.829 L 40.9755 164.7319 L 30.8039 162.4359 L 30.2081 159.1286 Z " stroke-width="0.4761425459216224"/>
      <g id="ID0.36424446757882833">
        <path id="ID0.7359844641759992" fill="#8A7B59" stroke="none" d="M 43.8379 160.7806 L 45.3612 160.8122 L 45.2318 167.0484 L 43.7084 167.0167 L 43.8379 160.7806 Z " stroke-width="0.4761425432043942"/>
        <path id="ID0.7359844641759992" fill="#8A7B59" stroke="none" d="M 41.9879 160.3306 L 43.5112 160.3622 L 43.3818 166.5984 L 41.8584 166.5667 L 41.9879 160.3306 Z " stroke-width="0.4761425432043942"/>
        <path id="ID0.7359844641759992" fill="#8A7B59" stroke="none" d="M 40.0379 159.6306 L 41.5612 159.6622 L 41.4318 165.8984 L 39.9084 165.8667 L 40.0379 159.6306 Z " stroke-width="0.4761425432043942"/>
        <path id="ID0.7359844641759992" fill="#8A7B59" stroke="none" d="M 45.7379 161.3306 L 47.2612 161.3622 L 47.1318 167.5984 L 45.6084 167.5667 L 45.7379 161.3306 Z " stroke-width="0.4761425432043942"/>
      </g>
      <g id="ID0.1049797898158431">
        <path id="ID0.08871637750416994" fill="#8A7B59" stroke="none" stroke-linecap="round" d="M 31.9895 158.5074 L 38.3705 159.6877 L 38.2067 165.2801 L 32.0643 164.081 L 31.9895 158.5074 Z " stroke-width="0.4761425432043942"/>
        <path id="ID0.13805592898279428" fill="#76694C" stroke="none" stroke-linecap="round" d="M 31.7978 158.2378 L 38.4882 159.4245 L 38.5236 162.3065 L 31.8114 161.0241 L 31.7978 158.2378 Z " stroke-width="0.4761425432043942"/>
        <path id="ID0.3221200187690556" fill="#61563F" stroke="none" stroke-linecap="round" d="M 34.55 160.489 L 35.4208 160.8689 L 35.4618 162.6272 L 34.5129 162.2716 L 34.55 160.489 Z " stroke-width="0.5167888865886084"/>
        <path id="ID0.1420820001512766" fill="#BAA578" stroke="none" stroke-linecap="round" d="M 37.5518 164.3318 L 38.2956 162.9185 L 38.2952 165.2283 L 32.056 164.0986 L 37.5518 164.3318 Z " stroke-width="0.4761425432043942"/>
      </g>
      <path id="ID0.2888958193361759" fill="#393C40" stroke="none" stroke-linecap="round" d="M 78.5902 162.6025 L 71.1307 164.2611 L 71.5102 166.806 L 78.9697 165.1474 L 78.5902 162.6025 Z " stroke-width="0.3810469777360591"/>
      <path id="ID0.2888958193361759" fill="#393C40" stroke="none" stroke-linecap="round" d="M 85.1651 160.9157 L 78.1307 162.7111 L 78.5102 165.256 L 84.6833 163.8204 L 85.1651 160.9157 Z " stroke-width="0.3810469777360591"/>
      <path id="ID0.7359844641759992" fill="#8A7B59" stroke="none" d="M 76.5701 161.5255 L 75.4633 161.5025 L 75.3506 166.9273 L 76.4574 166.9503 L 76.5701 161.5255 Z " stroke-width="0.3816027988624045"/>
      <path id="ID0.7359844641759992" fill="#8A7B59" stroke="none" d="M 77.9701 161.0755 L 76.8633 161.0525 L 76.7506 166.4773 L 77.8574 166.5003 L 77.9701 161.0755 Z " stroke-width="0.3816027988624045"/>
      <path id="ID0.7359844641759992" fill="#8A7B59" stroke="none" d="M 79.4701 160.6255 L 78.3633 160.6025 L 78.2506 166.0273 L 79.3574 166.0503 L 79.4701 160.6255 Z " stroke-width="0.3816027988624045"/>
      <path id="ID0.7359844641759992" fill="#8A7B59" stroke="none" d="M 75.1201 162.0755 L 74.0133 162.0525 L 73.9006 167.4773 L 75.0074 167.5003 L 75.1201 162.0755 Z " stroke-width="0.3816027988624045"/>
      <g id="ID0.1049797898158431">
        <path id="ID0.08871637750416994" fill="#8A7B59" stroke="none" stroke-linecap="round" d="M 85.4077 159.8854 L 80.4448 160.7507 L 80.3742 165.9213 L 85.1538 165.0302 L 85.4077 159.8854 Z " stroke-width="0.40545296430512573"/>
        <path id="ID0.13805592898279428" fill="#76694C" stroke="none" stroke-linecap="round" d="M 85.6523 159.6886 L 80.4505 160.549 L 80.3217 163.2094 L 85.5437 162.2614 L 85.6523 159.6886 Z " stroke-width="0.40545296430512573"/>
        <path id="ID0.3221200187690556" fill="#61563F" stroke="none" stroke-linecap="round" d="M 83.5299 161.6428 L 82.8449 161.963 L 82.7513 163.5854 L 83.4957 163.2903 L 83.5299 161.6428 Z " stroke-width="0.4400648059527854"/>
        <path id="ID0.1420820001512766" fill="#BAA578" stroke="none" stroke-linecap="round" d="M 80.9982 165.1103 L 80.4743 163.7788 L 80.3933 165.912 L 85.245 165.0884 L 80.9982 165.1103 Z " stroke-width="0.40545296430512573"/>
      </g>
      <g id="ID0.6836685389280319">
        <path id="ID0.09357938077300787" fill="#857656" stroke="none" d="M 51.7247 160.9089 L 69.6952 161.2821 L 69.5618 167.7086 L 51.5913 167.3354 L 51.7247 160.9089 Z " stroke-width="0.42833206411122815"/>
        <path id="ID0.6492703901603818" fill="#7C6E50" stroke="none" stroke-linecap="round" d="M 52.3684 163.093 L 60.5158 166.3578 L 69.4106 163.4469 L 69.3221 167.7075 L 52.2799 167.3536 L 52.3684 163.093 Z " stroke-width="0.4761425432043942"/>
        <g id="ID0.9254062357358634">
          <g id="ID0.49943465692922473">
            <path id="ID0.140373723115772" fill="#968561" stroke="none" d="M 68.1906 160.0517 L 73.308 160.1579 L 73.1202 169.2027 L 68.0028 169.0964 L 68.1906 160.0517 Z " stroke-width="0.4761425432043942"/>
            <path id="ID0.8286363878287375" fill="#BAA578" stroke="none" stroke-linecap="round" d="M 68.1728 159.8742 L 73.4043 160.221 L 69.2469 160.8966 L 68.1789 163.0176 L 68.1728 159.8742 Z " stroke-width="0.4761425432043942"/>
            <path id="ID0.7362233307212591" fill="#8A7B59" stroke="none" stroke-linecap="round" d="M 68.07 165.968 L 70.7825 166.072 L 73.2845 163.6951 L 73.1683 169.2885 L 68.0033 169.1813 L 68.07 165.968 Z " stroke-width="0.4761425432043942"/>
          </g>
          <g id="ID0.49943465692922473">
            <path id="ID0.140373723115772" fill="#968561" stroke="none" d="M 53.1483 159.9906 L 48.0309 159.8843 L 47.8431 168.9291 L 52.9605 169.0354 L 53.1483 159.9906 Z " stroke-width="0.4761425432043942"/>
            <path id="ID0.8286363878287375" fill="#BAA578" stroke="none" stroke-linecap="round" d="M 53.2093 159.8013 L 47.9679 159.9306 L 52.0936 160.7782 L 53.0726 162.9417 L 53.2093 159.8013 Z " stroke-width="0.4761425432043942"/>
            <path id="ID0.7362233307212591" fill="#8A7B59" stroke="none" stroke-linecap="round" d="M 53.0589 165.8941 L 50.3445 165.8854 L 47.9433 163.4066 L 47.8272 169.0001 L 52.9922 169.1074 L 53.0589 165.8941 Z " stroke-width="0.4761425432043942"/>
          </g>
        </g>
      </g>
    </g>
  </g>
  <path id="ID0.5368814701214433" fill="#292D2E" stroke="none" stroke-linecap="round" d="M 48.0633 322.7428 L 48.9874 313.0232 L 53.1452 300.9098 L 64.324 306.5941 L 76.265 316.0748 L 94.4379 325.1098 L 95.9909 331.5288 L 71.4463 334.5142 L 49.9897 332.4143 L 48.0633 322.7428 Z " stroke-width="0.7702165681849603"/>
  <g id="ID0.8333355090580881">
    <path id="ID0.9286923445761204" fill="#27282B" stroke="none" stroke-linecap="round" d="M 46.863 44.1601 L 65.6707 45.6361 L 66.1468 69.9908 L 81.3834 77.1329 L 58.5285 88.4889 L 21.8656 75.9426 L 41.7445 65.3484 L 46.863 44.1601 Z " stroke-width="0.4761425852775574"/>
    <path id="ID0.5448851804248989" fill="none" stroke="#1D1E1F" stroke-width="0.9522851705551147" stroke-linecap="round" d="M 43.1729 59.5871 L 41.935 65.158 L 59.0285 73.0143 L 65.8611 70.086 "/>
    <path id="ID0.262191956397146" fill="none" stroke="#1D1E1F" stroke-width="0.9522851705551147" stroke-linecap="round" d="M 45.9346 64.539 L 58.6476 70.7288 L 61.6473 69.6099 "/>
  </g>
  <g id="ID0.3450673264451325">
    <g id="ID0.9831569031812251">
      <path id="ID0.0877610077150166" fill="#2E3034" stroke="none" stroke-linecap="round" d="M 69.7251 13.3343 L 65.1527 0.2177 L 65.1527 28.7463 L 72.8241 28.7463 L 69.7251 13.3343 Z " stroke-width="0.5866066539949776"/>
      <path id="ID0.796130308881402" fill="#242628" stroke="none" stroke-linecap="round" d="M 70.033 13.3789 L 65.105 0.2623 L 68.6613 14.1004 L 69.6012 28.9877 L 72.7764 28.6926 L 70.033 13.3789 Z " stroke-width="0.5866066539949776"/>
    </g>
    <g id="ID0.9831569031812251">
      <path id="ID0.0877610077150166" fill="#2E3034" stroke="none" stroke-linecap="round" d="M 45.8249 13.4843 L 50.3973 0.3677 L 50.3973 28.8963 L 42.7259 28.8963 L 45.8249 13.4843 Z " stroke-width="0.5866066539949776"/>
      <path id="ID0.796130308881402" fill="#242628" stroke="none" stroke-linecap="round" d="M 45.417 13.5289 L 50.345 0.4123 L 46.7887 14.2504 L 45.6964 28.8098 L 42.6736 28.8426 L 45.417 13.5289 Z " stroke-width="0.5866066539949776"/>
    </g>
    <path id="ID0.8999492498114705" fill="#2E3034" stroke="none" stroke-linecap="round" d="M 63.3733 19.3124 C 67.7775 19.7915 72.5093 22.5019 74.6416 26.3848 C 77.0745 30.8179 75.1267 36.4165 75.4265 41.412 C 75.5997 43.1155 76.3923 44.8682 76.0615 46.4924 C 75.3879 49.7962 73.7139 52.8251 72.6323 56.0181 C 71.9236 58.1107 71.7691 60.4655 70.6001 62.3686 C 69.2843 64.6212 67.9416 67.7553 65.3419 68.211 C 61.488 68.8862 57.4115 67.0451 53.9619 65.2898 C 51.1281 63.8475 48.4746 61.6355 46.9002 58.8631 C 44.0806 53.7182 41.5196 48.0582 41.134 42.1741 C 40.7067 35.6514 39.9365 27.5853 44.6902 22.8687 C 48.9425 18.3273 56.8262 18.6032 63.3733 19.3124 Z " stroke-width="0.508037269115448"/>
    <path id="ID0.2441388238221407" fill="#AB8E85" stroke="none" d="M 61.0438 44.1745 C 65.1241 44.3416 70.5631 41.1768 73.2883 43.9234 C 75.7434 46.5142 72.3753 51.3755 71.4045 54.8492 C 70.4375 58.304 69.7493 62.0426 67.5114 64.8959 C 66.4439 66.1643 64.2186 66.2359 62.488 65.9634 C 59.3761 65.4698 56.3143 64.1864 53.7198 62.3955 C 51.0348 60.5432 47.487 58.5137 46.9156 55.2887 C 46.1923 51.2035 46.8566 45.8084 50.0552 43.2327 C 52.9889 40.9834 57.3743 44.0238 61.0438 44.1745 Z " stroke-width="1.2558400630950928"/>
    <path id="ID0.46721756737679243" fill="#A2887F" stroke="none" stroke-linecap="round" d="M 46.4363 45.2953 L 48.1129 45.9812 L 74.1244 45.6001 L 66.9102 50.6805 L 50.1704 48.2165 L 51.2881 50.6043 L 51.5421 56.2181 L 55.1746 63.4068 L 50.6023 56.7261 L 46.4363 45.2953 Z " stroke-width="0.508037269115448"/>
    <path id="ID0.8256730306893587" fill="none" stroke="#937B73" stroke-width="1.016074538230896" stroke-linecap="round" d="M 57.3886 57.0778 C 57.3886 57.0778 60.0878 56.4813 61.4529 56.2903 C 61.7943 56.2425 62.1326 56.3203 62.4689 56.3665 C 62.8109 56.4138 63.1401 56.5814 63.485 56.5697 C 64.1688 56.5469 64.8379 56.3497 65.5172 56.2649 C 65.854 56.2227 66.1939 56.1846 66.5332 56.1887 C 66.8731 56.1928 67.2181 56.2131 67.5493 56.2903 C 68.0939 56.4173 69.1496 56.7983 69.1496 56.7983 "/>
    <path id="ID0.7592270169407129" fill="none" stroke="#937B73" stroke-width="1.016074538230896" stroke-linecap="round" d="M 65.9693 58.4019 C 65.9693 58.4019 65.3475 58.7468 65.004 58.8083 C 64.6708 58.8682 64.3248 58.7235 63.988 58.7575 C 63.6491 58.792 63.3351 58.9688 62.9973 59.0115 C 62.6615 59.0542 62.3109 59.0867 61.9812 59.0115 C 61.7008 58.9475 61.2192 58.6051 61.2192 58.6051 "/>
    <path id="ID0.5332203092984855" fill="none" stroke="#937B73" stroke-width="1.016074538230896" stroke-linecap="round" d="M 60.0009 48.9532 C 60.0009 48.9532 59.3954 49.385 59.2897 49.7152 C 59.1525 50.1577 58.898 51.0026 59.3405 51.3156 C 59.9212 51.6056 60.6797 50.8786 61.3726 50.9345 C 62.0433 50.9914 63.354 51.4426 63.354 51.4426 "/>
    <path id="ID0.2278452254831791" fill="none" stroke="#937B73" stroke-width="1.016074538230896" stroke-linecap="round" d="M 64.3447 45.2953 C 64.3447 45.2953 65.2789 47.1578 65.7418 48.0895 C 65.8967 48.4015 66.0674 48.7073 66.199 49.0294 C 66.3306 49.3515 66.5429 49.6726 66.5292 50.0201 C 66.5155 50.3686 66.3092 50.6907 66.1228 50.9853 C 65.9983 51.1824 65.6148 51.468 65.6148 51.468 "/>
    <path id="ID0.6473136460408568" fill="none" stroke="#937B73" stroke-width="1.016074563998663" stroke-linecap="round" d="M 64.6945 62.2247 C 64.6945 62.2247 65.0113 62.8595 65.0622 63.2041 C 65.1113 63.5396 65.0513 63.8871 64.9877 64.2203 C 64.8923 64.7223 64.5871 65.7015 64.5871 65.7015 "/>
    <path id="ID0.11669129692018032" fill="#2E3034" stroke="none" stroke-linecap="round" d="M 48.3669 39.9609 L 71.6096 41.739 L 75.5469 44.4062 L 66.1482 49.1056 L 45.4457 46.5654 L 48.3669 39.9609 Z " stroke-width="0.508037269115448"/>
    <path id="ID0.14635155349969864" fill="#2E3034" stroke="none" stroke-linecap="round" d="M 45.6997 45.2191 L 47.554 45.6001 L 50.1958 50.8075 L 50.5006 56.5737 L 52.3296 60.384 L 55.2254 63.9149 L 46.9952 58.7075 L 45.6997 45.2191 Z " stroke-width="0.508037269115448"/>
    <path id="ID0.28340246016159654" fill="#1C1D1F" stroke="none" stroke-linecap="round" d="M 48.5308 36.8008 L 51.9604 38.3401 L 61.6283 39.2313 L 61.6283 44.9834 L 54.688 44.0382 L 50.8262 42.958 L 48.8008 41.4457 L 47.9367 39.7174 L 48.5308 36.8008 Z " stroke-width="0.5401026606559753"/>
    <path id="ID0.6101007834076881" fill="#FFFFFF" stroke="none" stroke-linecap="round" d="M 52.3473 39.3334 L 54.0001 39.7332 L 57.78 40.9344 L 58.3247 42.9027 L 53.07 41.4498 L 52.3473 39.3334 Z " stroke-width="0.4061061920009203"/>
    <path id="ID0.28340246016159654" fill="#1C1D1F" stroke="none" stroke-linecap="round" d="M 74.1357 36.8586 L 71.0774 38.2313 L 62.4563 39.0259 L 62.4563 44.1553 L 68.6452 43.3124 L 72.0888 42.3492 L 73.8949 41.0006 L 74.6655 39.4594 L 74.1357 36.8586 Z " stroke-width="0.4816249907016754"/>
    <path id="ID0.6101007834076881" fill="#FFFFFF" stroke="none" stroke-linecap="round" d="M 72.4526 38.9089 L 70.9112 39.4003 L 67.4053 40.7963 L 67.0217 42.7012 L 71.9101 40.9663 L 72.4526 38.9089 Z " stroke-width="0.3863867372519633"/>
    <g id="ID0.07940126257017255">
      <path id="ID0.46257128613069654" fill="#27282B" stroke="none" stroke-linecap="round" d="M 61.8045 39.0743 L 66.1482 49.0318 L 56.1145 47.7617 L 61.8045 39.0743 Z " stroke-width="0.508037269115448"/>
      <path id="ID0.9845890481956303" fill="#27282B" stroke="none" stroke-linecap="round" d="M 62.6173 39.1989 L 70.8983 46.5654 L 66.2244 49.1056 L 62.6173 39.1989 Z " stroke-width="0.508037269115448"/>
    </g>
    <path id="ID0.20071752788498998" fill="#202324" stroke="none" d="M 53.3686 34.5018 L 57.5091 37.0673 L 62.2593 38.2358 L 62.3355 39.6329 L 54.5625 38.3628 L 48.6693 36.0259 L 50.3966 34.2477 L 53.3686 34.5018 Z " stroke-width="0.508037269115448"/>
    <path id="ID0.20071752788498998" fill="#202324" stroke="none" d="M 70.4242 34.2614 L 67.3713 36.7084 L 62.1277 38.2698 L 62.0578 39.5516 L 69.1891 38.3864 L 74.6191 36.3588 L 73.081 34.1216 L 70.4242 34.2614 Z " stroke-width="0.46609798073768616"/>
    <path id="ID0.521138689480722" fill="none" stroke="#212325" stroke-width="0.9060627222061157" stroke-linecap="round" d="M 74.2139 36.5742 L 70.9747 38.1598 L 62.4351 39.4057 "/>
    <path id="ID0.17828734638169408" fill="none" stroke="#202324" stroke-width="1.016074538230896" stroke-linecap="round" d="M 66.0466 48.5467 L 63.1254 41.3072 C 62.1245 38.8879 62.2729 39.4564 62.0839 38.4876 C 62.0179 38.1493 62.2358 37.8129 62.2871 37.4715 C 62.3374 37.1352 62.4014 36.7953 62.3887 36.4555 C 62.376 36.112 62.2769 35.7762 62.2109 35.4394 C 62.1078 34.9136 61.8807 33.8645 61.8807 33.8645 "/>
    <path id="ID0.521138689480722" fill="none" stroke="#212325" stroke-width="1.016074538230896" stroke-linecap="round" d="M 48.8068 36.3055 L 52.4392 38.0836 L 62.0157 39.4807 "/>
    <path id="ID0.8012696979567409" fill="none" stroke="url(#grad_1)" stroke-width="1.016074538230896" stroke-linecap="round" d="M 74.1244 45.1429 L 66.6562 49.0548 L 48.0621 46.7178 L 50.0434 50.5789 L 50.3482 56.6753 L 52.2788 60.2824 L 55.1746 63.9149 "/>
    <path id="ID0.043594349175691605" fill="#D7E2FD" stroke="none" stroke-linecap="round" d="M 57.5289 41.9677 L 57.7575 40.85 L 58.2656 42.9075 L 55.6746 42.1709 L 57.5289 41.9677 Z " stroke-width="0.508037269115448"/>
    <path id="ID0.043594349175691605" fill="#D7E2FD" stroke="none" stroke-linecap="round" d="M 67.7225 41.8348 L 67.4574 40.8321 L 67.1024 42.7258 L 69.4161 41.9236 L 67.7225 41.8348 Z " stroke-width="0.4618642652203811"/>
  </g>
  <path id="ID0.5368814701214433" fill="#303436" stroke="none" stroke-linecap="round" d="M 21.3761 322.714 L 24.1818 313.859 L 28.5894 304.5731 L 38.6166 310.3433 L 49.9492 317.8793 L 67.5013 328.068 L 68.6369 334.5738 L 43.9508 335.9694 L 22.6745 332.4896 L 21.3761 322.714 Z " stroke-width="0.7702165467646493"/>
  <g id="ID0.9492031107656658">
    <path id="ID0.05466862628236413" fill="#303436" stroke="none" stroke-linecap="round" d="M 32.7842 231.7055 L 59.4992 230.5646 L 52.7287 248.8233 L 50.6494 253.6775 L 48.2157 271.6561 L 40.8963 311.7459 L 25.1122 312.0206 L 25.1897 289.7715 L 23.3529 280.9041 L 22.988 271.3917 L 26.4331 258.1656 L 27.6894 245.9087 L 32.7842 231.7055 Z " stroke-width="0.7305889870407837"/>
    <path id="ID0.4490455654449761" fill="none" stroke="#272A2B" stroke-width="1.658552384270528" stroke-linecap="round" d="M 32.6504 232.7084 L 59.3947 231.1821 L 50.1555 254.7722 "/>
    <path id="ID0.10446935473009944" fill="none" stroke="#242728" stroke-width="1.658552384270528" stroke-linecap="round" d="M 48.5611 267.0057 L 46.6808 283.7387 L 35.4401 289.9625 "/>
    <path id="ID0.42170455446466804" fill="none" stroke="#242728" stroke-width="1.658552384270528" stroke-linecap="round" d="M 45.4652 284.7843 L 42.4804 299.6199 L 31.001 306.0139 "/>
    <path id="ID0.047098892275244" fill="none" stroke="#242728" stroke-width="1.658552384270528" stroke-linecap="round" d="M 28.0367 246.4189 L 27.1656 250.2616 L 30.736 259.529 "/>
  </g>
</svg>