<svg xmlns="http://www.w3.org/2000/svg" xmlns:xlink="http://www.w3.org/1999/xlink" version="1.1" width="176.96214127554217" height="325.33735489858907" viewBox="1.3818238972936128 -0.2823762298311736 176.96214127554217 325.33735489858907">
  <defs>
    <linearGradient id="grad_1" y2="1" x2="0">
      <stop offset="0" stop-color="#222325" stop-opacity="1"/>
      <stop offset="1" stop-color="#2E3034" stop-opacity="1"/>
    </linearGradient>
  </defs>
  <!-- Exported by Scratch - http://scratch.mit.edu/ -->
  <g id="ID0.17693647183477879">
    <path id="ID0.7729651997797191" fill="#393C40" stroke="none" stroke-linecap="round" d="M 117.422 105.1805 L 98.1134 104.8811 L 100.3803 121.2609 L 102.1073 134.4753 L 105.3818 140.1923 L 108.4307 143.7441 L 120.7188 141.3607 L 122.5067 135.8342 L 118.7145 116.4092 L 117.422 105.1805 Z " stroke-width="0.7788099075511861"/>
    <path id="ID0.9716172609478235" fill="#34373A" stroke="none" stroke-linecap="round" d="M 113.0385 110.4312 L 117.8694 108.5341 L 116.5567 102.1856 L 98.7295 110.1221 L 101.3839 113.2143 L 106.4896 115.3997 L 113.0385 110.4312 Z " stroke-width="0.7788099075511861"/>
    <g id="ID0.38066427363082767">
      <path id="ID0.4757494777441025" fill="#1D1E1F" stroke="none" stroke-linecap="round" d="M 110.36 80.7555 L 102.3635 78.0965 L 86.8386 81.5827 L 92.8048 106.4066 L 102.2925 111.9122 L 106.5172 113.2589 L 109.7466 111.2274 L 112.6795 108.604 L 118.3037 106.5272 L 118.8137 101.3278 L 118.7209 93.5772 L 116.2678 85.419 L 110.36 80.7555 Z " stroke-width="0.4541860552563422"/>
      <path id="ID0.6007084371522069" fill="none" stroke="#0D0D0D" stroke-width="0.9083721105126844" stroke-linecap="round" d="M 117.8249 106.8324 L 112.7927 108.6126 L 108.4494 111.8119 L 106.5085 113.3721 L 102.2925 111.9122 L 98.2673 109.4419 "/>
    </g>
  </g>
  <g id="ID0.7397577832452953">
    <path id="ID0.6726378230378032" fill="#34373A" stroke="none" stroke-linecap="round" d="M 100.069 138.5616 L 116.4488 131.8217 L 117.6733 133.787 L 101.4135 140.125 L 100.069 138.5616 Z " stroke-width="0.7788099091286327"/>
    <path id="ID0.6507829907350242" fill="#1D1E1F" stroke="none" stroke-linecap="round" d="M 98.8958 141.7073 L 117.7754 133.5704 L 131.72 145.1278 L 138.4423 152.9449 L 150.4933 162.5034 L 155.7377 165.9176 L 150.1245 176.1276 L 145.1221 172.4083 L 136.7111 167.9736 L 125.712 162.7286 L 117.4535 158.4148 L 98.8958 141.7073 Z " stroke-width="0.7788099091286327"/>
    <path id="ID0.6829322893172503" fill="#1D1E1F" stroke="none" stroke-linecap="round" d="M 149.5775 176.1907 L 151.9345 165.3861 L 157.9891 166.2122 L 164.8327 166.6702 L 169.104 170.058 L 172.2495 173.2984 L 173.3277 176.6388 L 177.5147 181.6994 L 174.5793 185.0869 L 172.3279 184.7922 L 171.2075 185.8916 L 167.2885 186.7594 L 162.9434 187.5377 L 158.3775 186.4013 L 153.5225 181.5564 L 149.5775 176.1907 Z " stroke-width="0.7788099091286327"/>
    <path id="ID0.47767175547778606" fill="none" stroke="#0D0D0D" stroke-width="1.5576198182572654" stroke-linecap="round" d="M 101.8552 144.0546 L 98.9737 141.4211 L 117.727 133.6314 L 127.9979 142.1756 "/>
    <path id="ID0.5922487881034613" fill="#282A2B" stroke="none" stroke-linecap="round" d="M 123.7864 162.6458 L 123.7626 154.0284 L 127.4534 149.5005 L 135.5859 148.3962 L 145.9356 158.3449 L 148.7969 166.3301 L 146.74 168.9234 L 137.6186 169.1439 L 123.7864 162.6458 Z " stroke-width="0.7788099091286327"/>
    <path id="ID0.36820242274552584" fill="#151616" stroke="none" stroke-linecap="round" d="M 129.4248 159.5734 L 134.3971 153.1792 L 141.4034 162.0168 L 140.4471 163.0972 L 129.4248 159.5734 Z " stroke-width="0.7788099091286327"/>
    <path id="ID0.13569410238415003" fill="none" stroke="#232425" stroke-width="1.5576198182572654" stroke-linecap="round" d="M 137.3319 166.6269 L 146.0892 166.6147 L 143.6951 158.3538 "/>
    <path id="ID0.024502143263816833" fill="none" stroke="#0D0D0D" stroke-width="1.5576198182572654" stroke-linecap="round" d="M 123.812 162.1162 L 123.5966 154.2415 L 126.995 149.581 L 135.1759 148.4157 L 141.0504 154.1686 "/>
  </g>
  <path id="ID0.3809091211296618" fill="#393D40" stroke="none" stroke-linecap="round" d="M 74.0237 176.2908 L 93.7424 155.6594 L 110.4853 190.6541 L 113.4978 201.1772 L 114.9385 219.7329 L 107.8174 225.2685 L 96.176 231.0933 L 88.8171 211.6177 L 86.4701 200.4034 L 74.0237 176.2908 Z " stroke-width="0.7305890037130512"/>
  <path id="ID0.5368814701214433" fill="#292D2E" stroke="none" stroke-linecap="round" d="M 93.5605 311.2329 L 94.3497 301.9777 L 96.6068 291.9497 L 107.6576 295.3729 L 120.3703 300.2316 L 139.7337 306.3098 L 142.2725 312.4065 L 118.4981 319.198 L 96.9774 320.4835 L 93.5605 311.2329 Z " stroke-width="0.7702165698540286"/>
  <path id="ID0.05466862628236413" fill="#292D2E" stroke="none" stroke-linecap="round" d="M 92.9614 222.5132 L 119.317 217.9987 L 114.913 236.9677 L 113.465 242.0462 L 113.3275 260.1882 L 111.1435 300.8821 L 95.5212 303.1533 L 92.7808 281.0735 L 89.8359 272.5101 L 88.2695 263.1204 L 90.012 249.5646 L 89.7061 237.2472 L 92.9614 222.5132 Z " stroke-width="0.730589041637088"/>
  <path id="ID0.4490455654449761" fill="none" stroke="#272A2B" stroke-width="1.6585523937588051" stroke-linecap="round" d="M 92.5931 222.8811 L 118.9061 217.8601 L 112.841 242.4582 "/>
  <path id="ID0.10446935473009944" fill="none" stroke="#242728" stroke-width="1.6585523937588051" stroke-linecap="round" d="M 112.865 254.7952 L 113.1957 271.6302 L 102.8685 279.2747 "/>
  <path id="ID0.42170455446466804" fill="none" stroke="#242728" stroke-width="1.6585523937588051" stroke-linecap="round" d="M 112.1278 272.8262 L 111.1147 287.9252 L 100.5732 295.7697 "/>
  <path id="ID0.047098892275244" fill="none" stroke="#242728" stroke-width="1.6585523937588051" stroke-linecap="round" d="M 89.9107 237.1984 L 89.5512 241.1221 L 94.3063 249.8411 "/>
  <path id="ID0.3809091211296618" fill="#3E4246" stroke="none" stroke-linecap="round" d="M 46.9127 155.1666 L 72.3254 163.5983 L 83.0604 200.8771 L 84.2941 211.7532 L 82.6513 230.2921 L 74.7139 234.5759 L 62.2706 238.3987 L 57.3253 217.1957 L 52.9946 204.498 L 46.9127 155.1666 Z " stroke-width="0.7305889501656307"/>
  <path id="ID0.5368814701214433" fill="#303436" stroke="none" stroke-linecap="round" d="M 33.9192 310.1504 L 37.0481 301.4045 L 41.7937 292.2866 L 51.6023 298.421 L 62.6506 306.368 L 79.8168 317.1942 L 80.7128 323.7373 L 55.9921 324.2257 L 34.8578 319.9672 L 33.9192 310.1504 Z " stroke-width="0.770216547640666"/>
  <path id="ID0.05466862628236413" fill="#303436" stroke="none" stroke-linecap="round" d="M 59.763 221.2023 L 86.2878 224.5834 L 76.5349 241.4386 L 73.6666 245.8726 L 68.2356 263.1833 L 54.2596 301.4642 L 38.6553 299.0729 L 42.4842 277.1556 L 42.1692 268.1055 L 43.4139 258.6678 L 49.0403 246.2122 L 52.3458 234.3427 L 59.763 221.2023 Z " stroke-width="0.7305889741385942"/>
  <path id="ID0.4490455654449761" fill="none" stroke="#272A2B" stroke-width="1.658552408354669" stroke-linecap="round" d="M 59.3638 221.9873 L 85.9824 224.9935 L 72.8969 246.6874 "/>
  <path id="ID0.10446935473009944" fill="none" stroke="#242728" stroke-width="1.658552408354669" stroke-linecap="round" d="M 69.2622 258.4768 L 64.5866 274.653 L 52.4573 278.8918 "/>
  <path id="ID0.42170455446466804" fill="none" stroke="#242728" stroke-width="1.658552408354669" stroke-linecap="round" d="M 63.2121 275.4785 L 57.768 289.5982 L 45.3746 293.9646 "/>
  <path id="ID0.047098892275244" fill="none" stroke="#242728" stroke-width="1.658552408354669" stroke-linecap="round" d="M 52.5853 234.8 L 51.0787 238.4407 L 53.0349 248.1775 "/>
  <g id="ID0.17693647183477879">
    <path id="ID0.7729651997797191" fill="#3E4246" stroke="none" stroke-linecap="round" d="M 34.021 84.402 L 48.7311 98.3107 L 35.0402 108.9443 L 24.0714 117.5975 L 17.4293 119.4911 L 12.5412 119.9249 L 5.0637 109.1417 L 7.7672 103.6854 L 24.8319 91.8829 L 34.021 84.402 Z " stroke-width="0.8164595361418256"/>
    <path id="ID0.9716172609478235" fill="#393C40" stroke="none" stroke-linecap="round" d="M 33.4674 91.5512 L 31.2304 86.5913 L 36.8627 82.7877 L 44.4324 101.7931 L 40.1769 102.1708 L 34.7455 100.0737 L 33.4674 91.5512 Z " stroke-width="0.8164595361418256"/>
    <g id="ID0.38066427363082767">
      <path id="ID0.4757494777441025" fill="#1D1E1F" stroke="none" stroke-linecap="round" d="M 57.2069 71.2014 L 65.1544 75.0591 L 74.254 89.0392 L 51.6059 103.3022 L 40.4555 100.4893 L 36.2992 98.4077 L 35.3625 94.5192 L 35.0817 90.4035 L 32.3809 84.7281 L 35.804 80.4527 L 41.5469 74.7039 L 49.3595 70.3769 L 57.2069 71.2014 Z " stroke-width="0.47614255833787233"/>
      <path id="ID0.6007084371522069" fill="none" stroke="#0D0D0D" stroke-width="0.9522851166757447" stroke-linecap="round" d="M 32.5169 85.3076 L 34.9904 90.3271 L 35.9082 95.9073 L 36.2228 98.4989 L 40.4555 100.4893 L 45.2846 101.5817 "/>
    </g>
  </g>
  <g id="ID0.9157347986474633">
    <path id="ID0.7477802094072104" fill="#363A3D" stroke="none" stroke-linecap="round" d="M 106.9309 126.5967 L 87.7759 121.6271 L 83.7952 162.6206 L 99.5193 173.1172 L 104.1641 148.9316 L 106.9309 126.5967 Z " stroke-width="0.4761425915717868"/>
    <path id="ID0.7477802094072104" fill="#363A3D" stroke="none" stroke-linecap="round" d="M 46.938 120.7935 L 70.5543 120.2165 L 66.5737 161.21 L 49.1238 168.4852 L 46.1013 142.9571 L 46.938 120.7935 Z " stroke-width="0.4761425915717868"/>
    <path id="ID0.4270821204409003" fill="#3E4246" stroke="none" stroke-linecap="round" d="M 49.1845 100.8423 L 54.1838 88.7703 L 56.9987 83.1834 L 64.1938 76.826 L 94.9786 81.2505 L 101.4361 86.183 L 103.8885 90.4874 L 109.7742 102.5401 L 108.0509 112.8971 L 106.5739 118.2551 L 107.5653 125.2879 L 107.51 130.784 L 104.7101 137.4486 L 102.5925 142.5052 L 100.5104 151.6315 L 99.8863 173.5764 L 93.9742 181.2544 L 88.6108 186.9765 L 76.0251 191.2079 L 64.7775 187.078 L 61.5166 180.0162 L 57.2092 173.1397 L 49.0016 169.2332 L 50.3147 143.8869 L 49.7742 137.1371 L 46.3291 125.3213 L 46.0728 114.4133 L 49.1845 100.8423 Z " stroke-width="0.4761425915717868"/>
    <path id="ID0.052435632329434156" fill="#393C40" stroke="none" stroke-linecap="round" d="M 56.423 151.677 L 60.8495 152.1546 L 67.0957 156.062 L 72.159 156.3863 L 77.8392 158.7318 L 82.1132 158.0704 L 83.8179 157.7576 L 98.2933 155.7428 L 98.3312 159.0473 L 89.3981 162.3657 L 83.5041 161.4824 L 77.641 163.9747 L 71.3468 159.8235 L 64.9076 159.6288 L 55.442 154.8825 L 56.423 151.677 Z " stroke-width="0.4761425915717868"/>
    <path id="ID0.4987568911164999" fill="none" stroke="#27282B" stroke-width="0.9522851831435736" stroke-linecap="round" d="M 63.9291 77.4716 L 56.933 83.0112 L 52.6492 92.6412 "/>
    <path id="ID0.2889464790932834" fill="none" stroke="#27282B" stroke-width="0.9522851831435736" stroke-linecap="round" d="M 96.2541 82.0456 L 101.573 86.3892 L 106.3625 96.1827 "/>
    <path id="ID0.8373676878400147" fill="#000000" stroke="#2C2F31" stroke-width="0.6155104284001198" stroke-linecap="round" d="M 66.2562 90.8215 L 66.7468 89.3308 L 63.0366 89.889 L 57.8847 92.7526 L 53.2931 97.389 L 50.3171 102.7637 L 55.645 101.0064 L 60.332 101.3416 L 62.9799 102.5148 L 65.2253 105.7318 L 67.4171 104.9123 L 71.4352 105.0114 L 75.8306 106.4738 L 79.356 110.0008 L 81.1339 113.2387 L 83.5662 110.4332 L 87.5446 107.66 L 91.7778 106.6227 L 96.9138 107.0898 L 98.6822 107.8464 L 100.6655 104.9091 L 102.7323 103.8419 L 105.2737 104.6147 L 107.9148 106.4846 L 106.8404 102.557 L 104.9352 98.4511 L 102.3843 95.1971 L 99.4353 92.6699 L 95.0213 91.3603 L 97.0144 93.4617 L 96.8016 95.2185 L 95.015 97.1721 L 91.3442 98.0451 L 88.1663 98.0477 L 85.5509 97.8859 L 83.3795 94.0579 L 82.7478 96.0739 L 81.2966 95.8981 L 79.9794 93.3361 L 78.6304 97.4352 L 74.5544 97.1741 L 70.5316 95.8343 L 67.3282 94.1288 L 66.2562 90.8215 Z "/>
    <path id="ID0.5698574706912041" fill="none" stroke="#313537" stroke-width="0.9522851831435736" stroke-linecap="round" d="M 56.368 151.5042 L 55.465 154.6456 L 64.896 159.7472 L 71.6838 160.0476 L 77.4156 163.8332 "/>
    <path id="ID0.5698574706912041" fill="none" stroke="#313537" stroke-width="0.8933066471063789" stroke-linecap="round" d="M 98.0012 155.784 L 98.2069 159.0331 L 89.2318 162.3474 L 83.3792 161.4203 L 77.8011 164.1077 "/>
    <path id="ID0.8947288258932531" fill="#393C40" stroke="none" stroke-linecap="round" d="M 58.8264 139.7355 L 65.8281 140.2958 L 73.1556 142.9209 L 78.2613 148.9659 L 71.6234 143.9202 L 61.0579 141.3874 L 55.6711 143.902 L 58.8264 139.7355 Z " stroke-width="0.4761425915717868"/>
    <path id="ID0.8947288258932531" fill="#393C40" stroke="none" stroke-linecap="round" d="M 97.3203 144.4492 L 91.1444 143.7436 L 84.3339 144.7757 L 78.8706 149.1562 L 85.4944 145.9045 L 95.1012 145.5038 L 99.3511 148.6048 L 97.3203 144.4492 Z " stroke-width="0.4213738919025391"/>
    <path id="ID0.9897695370018482" fill="#393C40" stroke="none" stroke-linecap="round" d="M 61.0773 152.2724 L 54.607 151.1658 L 55.4822 146.5865 L 56.3287 150.1848 L 61.3858 150.8194 L 67.161 154.8963 L 72.6455 155.0701 L 76.5831 156.8876 L 78.7168 149.2015 L 78.0058 158.9871 L 72.6306 156.456 L 66.7777 155.8876 L 61.0773 152.2724 Z " stroke-width="0.4761425915717868"/>
    <path id="ID0.9897695370018482" fill="#393C40" stroke="none" stroke-linecap="round" d="M 93.1987 155.6623 L 98.7523 155.7567 L 98.8088 151.4243 L 97.4923 154.5665 L 93.1911 154.2823 L 87.7063 157.0198 L 83.1294 156.2417 L 79.5543 157.2292 L 79.0982 149.844 L 78.0161 158.904 L 82.9051 157.5101 L 87.8548 157.9908 L 93.1987 155.6623 Z " stroke-width="0.4232251241417219"/>
    <path id="ID0.3524594851769507" fill="#393C40" stroke="none" stroke-linecap="round" d="M 74.8082 118.7366 L 80.473 121.4872 L 85.1296 119.5953 L 81.6099 123.0806 L 81.4809 134.2622 L 90.5918 134.2858 L 79.8679 136.8324 L 68.7103 131.0368 L 78.1589 133.9875 L 78.8467 122.7166 L 74.8082 118.7366 Z " stroke-width="0.4761425915717868"/>
    <path id="ID0.9214867809787393" fill="#393C40" stroke="none" stroke-linecap="round" d="M 59.2014 135.8731 L 62.5707 131.9666 L 67.4019 131.479 L 61.1362 135.6544 L 60.6162 138.5459 L 65.6351 139.0811 L 73.4521 143.0693 L 64.7029 140.3062 L 58.8738 139.7401 L 59.2014 135.8731 Z " stroke-width="0.4761425915717868"/>
    <path id="ID0.9214867809787393" fill="#393C40" stroke="none" stroke-linecap="round" d="M 97.3644 140.3341 L 95.0423 136.0683 L 90.7928 134.7426 L 95.6668 139.7812 L 95.6136 142.5838 L 91.0117 142.1825 L 84.1229 144.3669 L 91.6283 143.4979 L 96.9631 144.0159 L 97.3644 140.3341 Z " stroke-width="0.4451788413742184"/>
    <path id="ID0.8679121839813888" fill="#2C2F31" stroke="none" stroke-linecap="round" d="M 76.8597 117.8307 L 80.4945 119.8101 L 83.9707 118.4972 L 84.8265 119.5371 L 80.659 121.8114 L 75.1409 119.0271 L 76.8597 117.8307 Z " stroke-width="0.4761425915717868"/>
    <path id="ID0.24770551454275846" fill="none" stroke="#313537" stroke-width="0.9522851831435736" stroke-linecap="round" d="M 81.0672 116.3183 L 85.3427 120.3213 L 92.7608 121.5201 L 100.447 121.1901 L 106.0282 117.905 "/>
    <path id="ID0.20603158557787538" fill="none" stroke="#313537" stroke-width="0.9522851831435736" stroke-linecap="round" d="M 48.3021 109.0821 L 54.7746 115.0924 L 66.7857 119.4878 L 74.0704 119.5972 L 80.6109 116.2857 "/>
    <g id="ID0.5272086253389716">
      <path id="ID0.24770551454275846" fill="none" stroke="#363A3D" stroke-width="0.9522851230978723" stroke-linecap="round" d="M 48.5647 141.7493 L 58.7282 139.555 "/>
      <path id="ID0.24770551454275846" fill="none" stroke="#363A3D" stroke-width="0.9522851230978723" stroke-linecap="round" d="M 47.1467 129.7153 L 68.0782 125.505 "/>
    </g>
    <g id="ID0.5272086253389716">
      <path id="ID0.24770551454275846" fill="none" stroke="#363A3D" stroke-width="0.9522851111120542" stroke-linecap="round" d="M 103.7945 146.1636 L 97.0655 143.6692 "/>
      <path id="ID0.24770551454275846" fill="none" stroke="#363A3D" stroke-width="0.9522851111120542" stroke-linecap="round" d="M 105.3863 134.9 L 92.0365 128.8204 "/>
    </g>
    <g id="ID0.7887678607366979">
      <path id="ID0.753661650698632" fill="none" stroke="#313537" stroke-width="0.9522851230978723" stroke-linecap="round" d="M 75.2706 118.9011 L 80.2535 121.7768 L 84.5349 119.5615 "/>
      <g id="ID0.8167418288066983">
        <path id="ID0.9553722990676761" fill="none" stroke="#313537" stroke-width="1.0409107979935388" stroke-linecap="round" d="M 79.4416 136.6289 L 74.0621 133.9538 L 68.101 131.4614 L 63.2605 131.9481 L 59.3547 135.8743 L 59.0211 139.3102 "/>
        <path id="ID0.5982440118677914" fill="none" stroke="#313537" stroke-width="0.8540413586044179" stroke-linecap="round" d="M 68.4789 131.076 L 67.8057 125.6925 L 73.7009 119.174 "/>
      </g>
      <g id="ID0.7324484633281827">
        <path id="ID0.04993448918685317" fill="none" stroke="#313537" stroke-width="0.9522851230978723" stroke-linecap="round" d="M 80.265 121.6584 L 79.9635 132.1535 L 78.8497 148.5495 L 77.5105 164.8041 "/>
        <g id="ID0.8167418288066983">
          <path id="ID0.9553722990676761" fill="none" stroke="#313537" stroke-width="0.9699703305593853" stroke-linecap="round" d="M 79.7288 136.4989 L 84.8719 135.6349 L 90.4609 134.2641 L 94.5454 135.6175 L 97.2022 140.181 L 96.8685 143.6168 "/>
          <path id="ID0.5982440118677914" fill="none" stroke="#313537" stroke-width="0.7916616273280302" stroke-linecap="round" d="M 90.2828 133.9401 L 91.8365 128.7728 L 87.9335 121.3028 "/>
          <path id="ID0.3567589442245662" fill="none" stroke="#313537" stroke-width="0.8967655466454513" stroke-linecap="round" d="M 78.6358 149.1565 L 84.2228 144.6999 L 91.7014 143.5126 L 97.2035 144.0469 L 98.9848 148.8841 L 98.5978 155.9026 L 93.0058 156.0772 L 87.0795 158.6112 L 82.2048 157.8986 L 77.8386 159.3164 L 72.2654 156.2637 L 66.6778 155.9603 L 60.5786 152.2586 L 54.3744 150.9385 L 55.3867 143.9807 L 58.378 139.607 L 64.6304 140.2141 L 72.7412 142.9152 L 78.0542 148.4302 Z "/>
        </g>
      </g>
    </g>
    <g id="ID0.9312638868577778">
      <path id="ID0.2888958193361759" fill="#393C40" stroke="none" stroke-linecap="round" d="M 58.1677 159.9964 L 68.1355 163.0584 L 67.2617 165.9031 L 57.2938 162.8411 L 58.1677 159.9964 Z " stroke-width="0.47614254047454274"/>
      <path id="ID0.2888958193361759" fill="#393C40" stroke="none" stroke-linecap="round" d="M 47.601 156.8981 L 58.7855 160.4584 L 57.9117 163.3031 L 47.9438 160.2411 L 47.601 156.8981 Z " stroke-width="0.47614254047454274"/>
      <g id="ID0.36424446757882833">
        <path id="ID0.7359844641759992" fill="#8A7B59" stroke="none" d="M 61.104 159.5088 L 62.6206 159.6561 L 62.0177 165.8643 L 60.5012 165.7171 L 61.104 159.5088 Z " stroke-width="0.47614256154893614"/>
        <path id="ID0.7359844641759992" fill="#8A7B59" stroke="none" d="M 59.254 158.9088 L 60.7706 159.0561 L 60.1677 165.2643 L 58.6512 165.1171 L 59.254 158.9088 Z " stroke-width="0.47614256154893614"/>
        <path id="ID0.7359844641759992" fill="#8A7B59" stroke="none" d="M 57.404 158.0588 L 58.9206 158.2061 L 58.3177 164.4143 L 56.8012 164.2671 L 57.404 158.0588 Z " stroke-width="0.47614256154893614"/>
        <path id="ID0.7359844641759992" fill="#8A7B59" stroke="none" d="M 62.954 160.2088 L 64.4706 160.3561 L 63.8677 166.5643 L 62.3512 166.4171 L 62.954 160.2088 Z " stroke-width="0.47614256154893614"/>
      </g>
      <g id="ID0.1049797898158431">
        <path id="ID0.08871637750416994" fill="#8A7B59" stroke="none" stroke-linecap="round" d="M 49.4476 156.3695 L 55.7205 158.0311 L 55.1324 163.595 L 49.0988 161.9327 L 49.4476 156.3695 Z " stroke-width="0.47614256154893614"/>
        <path id="ID0.13805592898279428" fill="#76694C" stroke="none" stroke-linecap="round" d="M 49.2481 156.0799 L 55.8291 157.7713 L 55.6454 160.6477 L 49.05 158.8592 L 49.2481 156.0799 Z " stroke-width="0.47614256154893614"/>
        <path id="ID0.3221200187690556" fill="#61563F" stroke="none" stroke-linecap="round" d="M 51.8593 158.5114 L 52.6987 158.9563 L 52.606 160.7127 L 51.6869 160.2859 L 51.8593 158.5114 Z " stroke-width="0.5167889099281139"/>
        <path id="ID0.1420820001512766" fill="#BAA578" stroke="none" stroke-linecap="round" d="M 54.5688 162.5932 L 55.4177 161.2405 L 55.2419 163.5436 L 49.1066 161.9432 L 54.5688 162.5932 Z " stroke-width="0.47614256154893614"/>
      </g>
      <path id="ID0.2888958193361759" fill="#393C40" stroke="none" stroke-linecap="round" d="M 95.5672 163.9834 L 88.0033 165.0705 L 88.1883 167.6369 L 95.7522 166.5498 L 95.5672 163.9834 Z " stroke-width="0.3810469701442922"/>
      <path id="ID0.2888958193361759" fill="#393C40" stroke="none" stroke-linecap="round" d="M 102.2538 162.8146 L 95.1033 164.0705 L 95.2883 166.6369 L 101.5526 165.6743 L 102.2538 162.8146 Z " stroke-width="0.3810469701442922"/>
      <path id="ID0.7359844641759992" fill="#8A7B59" stroke="none" d="M 93.606 162.7701 L 92.5041 162.6631 L 91.9797 168.0636 L 93.0816 168.1706 L 93.606 162.7701 Z " stroke-width="0.3816028144864011"/>
      <path id="ID0.7359844641759992" fill="#8A7B59" stroke="none" d="M 95.056 162.4201 L 93.9541 162.3131 L 93.4297 167.7136 L 94.5316 167.8206 L 95.056 162.4201 Z " stroke-width="0.3816028144864011"/>
      <path id="ID0.7359844641759992" fill="#8A7B59" stroke="none" d="M 96.556 162.0701 L 95.4541 161.9631 L 94.9297 167.3636 L 96.0316 167.4706 L 96.556 162.0701 Z " stroke-width="0.3816028144864011"/>
      <path id="ID0.7359844641759992" fill="#8A7B59" stroke="none" d="M 92.106 163.1701 L 91.0041 163.0631 L 90.4797 168.4636 L 91.5816 168.5706 L 92.106 163.1701 Z " stroke-width="0.3816028144864011"/>
      <g id="ID0.1049797898158431">
        <path id="ID0.08871637750416994" fill="#8A7B59" stroke="none" stroke-linecap="round" d="M 102.5495 161.7727 L 97.5352 162.2585 L 97.072 167.4089 L 101.9055 166.8834 L 102.5495 161.7727 Z " stroke-width="0.40545295983224683"/>
        <path id="ID0.13805592898279428" fill="#76694C" stroke="none" stroke-linecap="round" d="M 102.8258 161.5838 L 97.5737 162.0466 L 97.2432 164.6895 L 102.5221 164.1409 L 102.8258 161.5838 Z " stroke-width="0.40545295983224683"/>
        <path id="ID0.3221200187690556" fill="#61563F" stroke="none" stroke-linecap="round" d="M 100.5291 163.3816 L 99.8217 163.6489 L 99.6052 165.2595 L 100.3698 165.0218 L 100.5291 163.3816 Z " stroke-width="0.4400648032514312"/>
        <path id="ID0.1420820001512766" fill="#BAA578" stroke="none" stroke-linecap="round" d="M 97.7695 166.6361 L 97.3483 165.2687 L 97.1055 167.3896 L 102.0057 166.9369 L 97.7695 166.6361 Z " stroke-width="0.40545295983224683"/>
      </g>
      <g id="ID0.6836685389280319">
        <path id="ID0.09357938077300787" fill="#857656" stroke="none" d="M 68.9149 160.2533 L 86.8052 161.9905 L 86.1839 168.3884 L 68.2937 166.6511 L 68.9149 160.2533 Z " stroke-width="0.42833206982325395"/>
        <path id="ID0.6492703901603818" fill="#7C6E50" stroke="none" stroke-linecap="round" d="M 69.3906 162.4799 L 77.2665 166.3542 L 86.3567 164.1274 L 85.9448 168.3689 L 68.9787 166.7214 L 69.3906 162.4799 Z " stroke-width="0.47614256154893614"/>
        <g id="ID0.9254062357358634">
          <g id="ID0.49943465692922473">
            <path id="ID0.140373723115772" fill="#968561" stroke="none" d="M 85.4254 160.6313 L 90.52 161.126 L 89.6456 170.1304 L 84.551 169.6357 L 85.4254 160.6313 Z " stroke-width="0.47614256154893614"/>
            <path id="ID0.8286363878287375" fill="#BAA578" stroke="none" stroke-linecap="round" d="M 85.3937 160.4748 L 90.5837 161.218 L 86.387 161.5759 L 85.161 163.6095 L 85.3937 160.4748 Z " stroke-width="0.47614256154893614"/>
            <path id="ID0.7362233307212591" fill="#8A7B59" stroke="none" stroke-linecap="round" d="M 84.8283 166.5432 L 87.525 166.8529 L 90.2004 164.6729 L 89.6596 170.2414 L 84.5177 169.7421 L 84.8283 166.5432 Z " stroke-width="0.47614256154893614"/>
          </g>
          <g id="ID0.49943465692922473">
            <path id="ID0.140373723115772" fill="#968561" stroke="none" d="M 70.3687 159.4254 L 65.2741 158.9307 L 64.3997 167.9351 L 69.4943 168.4298 L 70.3687 159.4254 Z " stroke-width="0.47614256154893614"/>
            <path id="ID0.8286363878287375" fill="#BAA578" stroke="none" stroke-linecap="round" d="M 70.4682 159.2637 L 65.2322 158.9944 L 69.2816 160.1531 L 70.0934 162.3846 L 70.4682 159.2637 Z " stroke-width="0.47614256154893614"/>
            <path id="ID0.7362233307212591" fill="#8A7B59" stroke="none" stroke-linecap="round" d="M 69.8555 165.3275 L 67.1496 165.1125 L 64.9436 162.4586 L 64.4029 168.0271 L 69.5448 168.5264 L 69.8555 165.3275 Z " stroke-width="0.47614256154893614"/>
          </g>
        </g>
      </g>
    </g>
  </g>
  <g id="ID0.8333355090580881">
    <path id="ID0.9286923445761204" fill="#27282B" stroke="none" stroke-linecap="round" d="M 72.9659 43.4997 L 91.6071 46.4002 L 90.2317 70.7207 L 104.8817 78.9996 L 81.2302 88.5866 L 45.6263 73.2914 L 66.2526 64.238 L 72.9659 43.4997 Z " stroke-width="0.476142584466816"/>
    <path id="ID0.5448851804248989" fill="none" stroke="#1D1E1F" stroke-width="0.952285168933632" stroke-linecap="round" d="M 68.1145 58.6018 L 66.4569 64.0625 L 82.9043 73.1947 L 89.9396 70.7939 "/>
    <path id="ID0.262191956397146" fill="none" stroke="#1D1E1F" stroke-width="0.952285168933632" stroke-linecap="round" d="M 70.492 63.7492 L 82.6981 70.8869 L 85.7741 69.9991 "/>
  </g>
  <g id="ID0.3450673264451325">
    <g id="ID0.9831569031812251">
      <path id="ID0.0877610077150166" fill="#2E3034" stroke="none" stroke-linecap="round" d="M 96.6239 13.6947 L 92.1421 0.5469 L 91.9455 29.0748 L 99.6167 29.1277 L 96.6239 13.6947 Z " stroke-width="0.586606668030851"/>
      <path id="ID0.796130308881402" fill="#242628" stroke="none" stroke-linecap="round" d="M 96.8924 13.7559 L 92.055 0.6057 L 95.5158 14.4679 L 96.3531 29.3613 L 99.5303 29.0881 L 96.8924 13.7559 Z " stroke-width="0.586606668030851"/>
    </g>
    <g id="ID0.9831569031812251">
      <path id="ID0.0877610077150166" fill="#2E3034" stroke="none" stroke-linecap="round" d="M 72.768 13.7214 L 77.4306 0.6366 L 77.234 29.1645 L 69.5629 29.1117 L 72.768 13.7214 Z " stroke-width="0.586606668030851"/>
      <path id="ID0.796130308881402" fill="#242628" stroke="none" stroke-linecap="round" d="M 72.3701 13.7499 L 77.3883 0.6676 L 73.7368 14.4808 L 72.5443 29.0323 L 69.5213 29.0443 L 72.3701 13.7499 Z " stroke-width="0.586606668030851"/>
    </g>
    <path id="ID0.8999492498114705" fill="#2E3034" stroke="none" stroke-linecap="round" d="M 90.299 19.6306 C 94.6997 20.14 99.4128 22.8829 101.5182 26.7805 C 103.9206 31.2303 101.9343 36.8153 102.1996 41.8128 C 102.3611 43.5174 103.1415 45.2755 102.7996 46.8974 C 102.1032 50.1964 100.4084 53.2137 99.3048 56.3992 C 98.5817 58.4869 98.411 60.8405 97.229 62.7355 C 95.8977 64.9791 94.5334 68.1038 91.9306 68.5416 C 88.0721 69.1902 84.0084 67.321 80.571 65.542 C 77.7472 64.0802 75.109 61.85 73.5537 59.0669 C 70.7696 53.9027 68.2477 48.2251 67.9026 42.3385 C 67.5203 35.813 66.8057 27.7418 71.5918 23.0581 C 75.8753 18.5461 83.7569 18.8763 90.299 19.6306 Z " stroke-width="0.5080372880914525"/>
    <path id="ID0.2441388238221407" fill="#AB8E85" stroke="none" d="M 87.761 44.4679 C 91.84 44.663 97.3007 41.5358 100.0069 44.3011 C 102.4441 46.9087 99.0425 51.7467 98.0479 55.2136 C 97.0571 58.6617 96.3432 62.3955 94.0856 65.2333 C 93.0095 66.4943 90.7837 66.5506 89.055 66.2661 C 85.9465 65.7511 82.8937 64.4466 80.3116 62.6379 C 77.6394 60.7671 74.1057 58.7133 73.5565 55.4844 C 72.8613 51.3943 73.5628 46.0039 76.7791 43.4503 C 79.7282 41.2213 84.0925 44.2919 87.761 44.4679 Z " stroke-width="1.2558400702405785"/>
    <path id="ID0.46721756737679243" fill="#A2887F" stroke="none" stroke-linecap="round" d="M 73.1847 45.5151 L 74.8565 46.2125 L 100.87 46.0107 L 93.621 51.0413 L 76.8986 48.462 L 77.9998 50.8574 L 78.2151 56.4729 L 81.798 63.6864 L 77.2718 56.9744 L 73.1847 45.5151 Z " stroke-width="0.5080372880914525"/>
    <path id="ID0.8256730306893587" fill="none" stroke="#937B73" stroke-width="1.016074576182905" stroke-linecap="round" d="M 84.0572 57.3745 C 84.0572 57.3745 86.7605 56.7967 88.1268 56.6151 C 88.4686 56.5697 88.8064 56.6497 89.1424 56.6983 C 89.4839 56.7479 89.812 56.9178 90.157 56.9085 C 90.841 56.8903 91.5114 56.6978 92.1912 56.6177 C 92.5283 56.5778 92.8685 56.5421 93.2078 56.5485 C 93.5476 56.5549 93.8924 56.5776 94.2231 56.6571 C 94.7669 56.7878 95.8199 57.1761 95.8199 57.1761 "/>
    <path id="ID0.7592270169407129" fill="none" stroke="#937B73" stroke-width="1.016074576182905" stroke-linecap="round" d="M 92.5337 58.7719 C 92.5337 58.7719 91.9095 59.1126 91.5657 59.1717 C 91.232 59.2293 90.8871 59.0821 90.55 59.1139 C 90.2109 59.1461 89.8957 59.3207 89.5576 59.361 C 89.2215 59.4014 88.8707 59.4315 88.5415 59.354 C 88.2616 59.2881 87.7823 58.9424 87.7823 58.9424 "/>
    <path id="ID0.5332203092984855" fill="none" stroke="#937B73" stroke-width="1.016074576182905" stroke-linecap="round" d="M 86.7238 49.2664 C 86.7238 49.2664 86.1152 49.694 86.0073 50.0235 C 85.8671 50.4651 85.6067 51.3082 86.0471 51.6241 C 86.6257 51.9182 87.3892 51.1965 88.0818 51.2571 C 88.752 51.3187 90.0596 51.7788 90.0596 51.7788 "/>
    <path id="ID0.2278452254831791" fill="none" stroke="#937B73" stroke-width="1.016074576182905" stroke-linecap="round" d="M 91.0926 45.6385 C 91.0926 45.6385 92.014 47.5074 92.4704 48.4423 C 92.6232 48.7553 92.7918 49.0623 92.9212 49.3853 C 93.0505 49.7083 93.2607 50.0308 93.2446 50.3782 C 93.2284 50.7266 93.02 51.0473 92.8315 51.3407 C 92.7057 51.5369 92.3201 51.8198 92.3201 51.8198 "/>
    <path id="ID0.6473136460408568" fill="none" stroke="#937B73" stroke-width="1.0160746321681893" stroke-linecap="round" d="M 91.2911 62.5651 C 91.2911 62.5651 91.6036 63.2021 91.652 63.547 C 91.6988 63.8828 91.6364 64.2299 91.5706 64.5626 C 91.4717 65.064 91.1598 66.0411 91.1598 66.0411 "/>
    <path id="ID0.11669129692018032" fill="#2E3034" stroke="none" stroke-linecap="round" d="M 75.152 40.1942 L 98.3819 42.1324 L 102.3007 44.8267 L 92.8698 49.4611 L 72.1853 46.7784 L 75.152 40.1942 Z " stroke-width="0.5080372880914525"/>
    <path id="ID0.14635155349969864" fill="#2E3034" stroke="none" stroke-linecap="round" d="M 72.4486 45.4339 L 74.3003 45.8277 L 76.9061 51.0531 L 77.1712 56.8213 L 78.9738 60.6441 L 81.8453 64.1948 L 73.6511 58.9309 L 72.4486 45.4339 Z " stroke-width="0.5080372880914525"/>
    <path id="ID0.28340246016159654" fill="#1C1D1F" stroke="none" stroke-linecap="round" d="M 75.3136 37.0475 L 78.7326 38.6104 L 88.3941 39.5682 L 88.3544 45.3201 L 81.4208 44.3272 L 77.5666 43.2204 L 75.5517 41.6942 L 74.6994 39.9599 L 75.3136 37.0475 Z " stroke-width="0.5401026658987623"/>
    <path id="ID0.6101007834076881" fill="#FFFFFF" stroke="none" stroke-linecap="round" d="M 79.1096 39.5959 L 80.7596 40.0071 L 84.5312 41.2343 L 85.0623 43.2063 L 79.8177 41.7172 L 79.1096 39.5959 Z " stroke-width="0.4061062092820491"/>
    <path id="ID0.28340246016159654" fill="#1C1D1F" stroke="none" stroke-linecap="round" d="M 100.8747 37.2561 L 97.807 38.6077 L 89.1806 39.3429 L 89.1453 44.4721 L 95.3398 43.6719 L 98.79 42.7324 L 100.6053 41.3964 L 101.3865 39.8605 L 100.8747 37.2561 Z " stroke-width="0.4816250085874009"/>
    <path id="ID0.6101007834076881" fill="#FFFFFF" stroke="none" stroke-linecap="round" d="M 99.144 39.3036 L 97.5992 39.7843 L 94.0838 41.1562 L 93.6871 43.0583 L 98.5874 41.3572 L 99.144 39.3036 Z " stroke-width="0.3863867290187866"/>
    <g id="ID0.07940126257017255">
      <path id="ID0.46257128613069654" fill="#27282B" stroke="none" stroke-linecap="round" d="M 88.5943 39.4001 L 92.8693 49.3873 L 82.8446 48.0482 L 88.5943 39.4001 Z " stroke-width="0.5080372880914525"/>
      <path id="ID0.9845890481956303" fill="#27282B" stroke="none" stroke-linecap="round" d="M 89.4073 39.5303 L 97.6374 46.9537 L 92.946 49.4617 L 89.4073 39.5303 Z " stroke-width="0.5080372880914525"/>
    </g>
    <path id="ID0.20071752788498998" fill="#202324" stroke="none" d="M 80.1685 34.7685 L 84.2912 37.3626 L 89.0332 38.5637 L 89.0998 39.9613 L 81.3357 38.6377 L 75.4587 36.2602 L 77.1983 34.494 L 80.1685 34.7685 Z " stroke-width="0.5080372880914525"/>
    <path id="ID0.20071752788498998" fill="#202324" stroke="none" d="M 97.1707 34.6644 L 94.101 37.0903 L 88.8468 38.6155 L 88.768 39.8968 L 95.9072 38.7807 L 101.351 36.7907 L 99.8284 34.5428 L 97.1707 34.6644 Z " stroke-width="0.4660979876913773"/>
    <path id="ID0.521138689480722" fill="none" stroke="#212325" stroke-width="0.9060627118457477" stroke-linecap="round" d="M 100.926 36.9726 L 97.676 38.5359 L 89.128 39.7229 "/>
    <path id="ID0.17828734638169408" fill="none" stroke="#202324" stroke-width="1.016074576182905" stroke-linecap="round" d="M 92.7721 48.9016 L 89.9008 41.6421 C 88.9167 39.216 89.0611 39.7855 88.8788 38.8154 C 88.8151 38.4766 89.0353 38.1418 89.089 37.8008 C 89.1416 37.4648 89.208 37.1254 89.1976 36.7854 C 89.1873 36.4419 89.0905 36.1054 89.0268 35.7681 C 88.9273 35.2416 88.7074 34.191 88.7074 34.191 "/>
    <path id="ID0.521138689480722" fill="none" stroke="#212325" stroke-width="1.016074576182905" stroke-linecap="round" d="M 75.616 36.5453 L 79.2361 38.3484 L 88.8027 39.8114 "/>
    <path id="ID0.8012696979567409" fill="none" stroke="url(#grad_1)" stroke-width="1.016074576182905" stroke-linecap="round" d="M 100.8731 45.5535 L 93.3782 49.4138 L 74.8006 46.9488 L 76.7553 50.8235 L 77.0181 56.9219 L 78.9237 60.5421 L 81.7945 64.1945 "/>
    <path id="ID0.043594349175691605" fill="#D7E2FD" stroke="none" stroke-linecap="round" d="M 84.3 42.2606 L 84.5363 41.1445 L 85.0301 43.2055 L 82.4443 42.451 L 84.3 42.2606 Z " stroke-width="0.5080372880914525"/>
    <path id="ID0.043594349175691605" fill="#D7E2FD" stroke="none" stroke-linecap="round" d="M 94.3972 42.1957 L 94.139 41.1913 L 93.7709 43.0825 L 96.0901 42.2962 L 94.3972 42.1957 Z " stroke-width="0.46186426636102745"/>
  </g>
  <g id="ID0.7397577832452953">
    <path id="ID0.6726378230378032" fill="#393C40" stroke="none" stroke-linecap="round" d="M 5.2502 107.4957 L 22.9643 113.0638 L 22.6311 115.4683 L 5.2834 109.6572 L 5.2502 107.4957 Z " stroke-width="0.8164596235993836"/>
    <path id="ID0.6507829907350242" fill="#1D1E1F" stroke="none" stroke-linecap="round" d="M 2.2111 109.3107 L 22.8758 115.4318 L 26.3464 134.099 L 26.5122 144.9062 L 29.7998 160.6926 L 31.731 166.9622 L 20.3573 171.4158 L 18.8258 165.0629 L 15.0298 155.8458 L 9.6937 144.2389 L 5.9393 135.2216 L 2.2111 109.3107 Z " stroke-width="0.8164596235993836"/>
    <path id="ID0.6829322893172503" fill="#1D1E1F" stroke="none" stroke-linecap="round" d="M 19.8745 171.0994 L 29.0253 163.9813 L 33.3461 168.7108 L 38.5495 173.6735 L 39.7148 179.2686 L 40.0725 183.9895 L 38.6984 187.4031 L 38.673 194.2887 L 34.0353 195.046 L 32.4202 193.2975 L 30.7799 193.4306 L 27.0417 191.4986 L 23.0204 189.2087 L 20.1066 185.2287 L 19.4493 178.0682 L 19.8745 171.0994 Z " stroke-width="0.8164596235993836"/>
    <path id="ID0.47767175547778606" fill="none" stroke="#0D0D0D" stroke-width="1.6329192471987672" stroke-linecap="round" d="M 3.0184 113.1874 L 2.4659 109.1326 L 22.7959 115.4485 L 25.331 129.2232 "/>
    <path id="ID0.5922487881034613" fill="#282A2B" stroke="none" stroke-linecap="round" d="M 8.1102 142.7959 L 13.8757 135.8407 L 19.8871 134.6722 L 27.1771 139.242 L 28.8329 154.2007 L 25.7766 162.5514 L 22.3796 163.2589 L 14.8866 157.3136 L 8.1102 142.7959 Z " stroke-width="0.8164596235993836"/>
    <path id="ID0.36820242274552584" fill="#151616" stroke="none" stroke-linecap="round" d="M 14.8987 144.2514 L 23.1949 142.4402 L 22.9043 154.2598 L 21.4089 154.4879 L 14.8987 144.2514 Z " stroke-width="0.8164596235993836"/>
    <path id="ID0.13569410238415003" fill="none" stroke="#232425" stroke-width="1.6329192471987672" stroke-linecap="round" d="M 16.4336 155.1781 L 23.4937 161.0468 L 27.1111 152.7877 "/>
    <path id="ID0.024502143263816833" fill="none" stroke="#0D0D0D" stroke-width="1.6329192471987672" stroke-linecap="round" d="M 8.5748 142.4704 L 13.6874 135.9848 L 19.5524 134.5132 L 26.9222 139.0664 L 27.7909 147.6422 "/>
  </g>
</svg>