<svg xmlns="http://www.w3.org/2000/svg" xmlns:xlink="http://www.w3.org/1999/xlink" version="1.1" width="299.1469617784076" height="51.547962754970136" viewBox="0.8751186877462558 -0.023981377485067457 299.1469617784076 51.547962754970136">
  <defs>
    <linearGradient id="grad_1" y2="1" x2="0">
      <stop offset="0" stop-color="#737373" stop-opacity="1"/>
      <stop offset="1" stop-color="#4F4F4F" stop-opacity="1"/>
    </linearGradient>
    <linearGradient id="grad_2" y2="1" x2="0">
      <stop offset="0" stop-color="#737373" stop-opacity="1"/>
      <stop offset="1" stop-color="#4F4F4F" stop-opacity="1"/>
    </linearGradient>
    <linearGradient id="grad_3" y2="1" x2="0">
      <stop offset="0" stop-color="#737373" stop-opacity="1"/>
      <stop offset="1" stop-color="#4F4F4F" stop-opacity="1"/>
    </linearGradient>
    <linearGradient id="grad_4" y2="1" x2="0">
      <stop offset="0" stop-color="#3370AE" stop-opacity="1"/>
      <stop offset="1" stop-color="#214A73" stop-opacity="1"/>
    </linearGradient>
    <linearGradient id="grad_5" y2="1" x2="0">
      <stop offset="0" stop-color="#737373" stop-opacity="1"/>
      <stop offset="1" stop-color="#4F4F4F" stop-opacity="1"/>
    </linearGradient>
    <linearGradient id="grad_6" y2="1" x2="0">
      <stop offset="0" stop-color="#737373" stop-opacity="1"/>
      <stop offset="1" stop-color="#4F4F4F" stop-opacity="1"/>
    </linearGradient>
    <linearGradient id="grad_7" y2="1" x2="0">
      <stop offset="0" stop-color="#737373" stop-opacity="1"/>
      <stop offset="1" stop-color="#4F4F4F" stop-opacity="1"/>
    </linearGradient>
    <linearGradient id="grad_8" y2="1" x2="0">
      <stop offset="0" stop-color="#3370AE" stop-opacity="1"/>
      <stop offset="1" stop-color="#214A73" stop-opacity="1"/>
    </linearGradient>
    <linearGradient id="grad_9" y2="1" x2="0">
      <stop offset="0" stop-color="#737373" stop-opacity="1"/>
      <stop offset="1" stop-color="#4F4F4F" stop-opacity="1"/>
    </linearGradient>
    <linearGradient id="grad_10" y2="1" x2="0">
      <stop offset="0" stop-color="#737373" stop-opacity="1"/>
      <stop offset="1" stop-color="#4F4F4F" stop-opacity="1"/>
    </linearGradient>
    <linearGradient id="grad_11" y2="1" x2="0">
      <stop offset="0" stop-color="#737373" stop-opacity="1"/>
      <stop offset="1" stop-color="#4F4F4F" stop-opacity="1"/>
    </linearGradient>
    <linearGradient id="grad_12" y2="1" x2="0">
      <stop offset="0" stop-color="#737373" stop-opacity="1"/>
      <stop offset="1" stop-color="#4F4F4F" stop-opacity="1"/>
    </linearGradient>
    <linearGradient id="grad_13" y2="1" x2="0">
      <stop offset="0" stop-color="#737373" stop-opacity="1"/>
      <stop offset="1" stop-color="#4F4F4F" stop-opacity="1"/>
    </linearGradient>
    <linearGradient id="grad_14" y2="1" x2="0">
      <stop offset="0" stop-color="#737373" stop-opacity="1"/>
      <stop offset="1" stop-color="#4F4F4F" stop-opacity="1"/>
    </linearGradient>
  <linearGradient id="grad_1-.7803632020950317,0,0,0.7803632020950317,-93.5,-158.45" y2="36.0165" x2="34.1674" x1="34.1674" y1="21.5018" gradientUnits="userSpaceOnUse">
      <stop offset="0" stop-color="#737373" stop-opacity="1"/>
      <stop offset="1" stop-color="#4F4F4F" stop-opacity="1"/>
    </linearGradient><linearGradient id="grad_2-.7803632020950317,0,0,0.7803632020950317,-93.5,-158.45" y2="36.0165" x2="48.8382" x1="48.8382" y1="21.2676" gradientUnits="userSpaceOnUse">
      <stop offset="0" stop-color="#737373" stop-opacity="1"/>
      <stop offset="1" stop-color="#4F4F4F" stop-opacity="1"/>
    </linearGradient><linearGradient id="grad_3-.7803632020950317,0,0,0.7803632020950317,-93.5,-158.45" y2="35.7824" x2="62.8068" x1="62.8068" y1="21.5018" gradientUnits="userSpaceOnUse">
      <stop offset="0" stop-color="#737373" stop-opacity="1"/>
      <stop offset="1" stop-color="#4F4F4F" stop-opacity="1"/>
    </linearGradient><linearGradient id="grad_4-.7803632020950317,0,0,0.7803632020950317,-93.5,-158.45" y2="35.8604" x2="81.3794" x1="81.3794" y1="18.7705" gradientUnits="userSpaceOnUse">
      <stop offset="0" stop-color="#3370AE" stop-opacity="1"/>
      <stop offset="1" stop-color="#214A73" stop-opacity="1"/>
    </linearGradient><linearGradient id="grad_5-.7803632020950317,0,0,0.7803632020950317,-93.5,-158.45" y2="36.0165" x2="106.8192" x1="106.8192" y1="24.8573" gradientUnits="userSpaceOnUse">
      <stop offset="0" stop-color="#737373" stop-opacity="1"/>
      <stop offset="1" stop-color="#4F4F4F" stop-opacity="1"/>
    </linearGradient><linearGradient id="grad_6-.7803632020950317,0,0,0.7803632020950317,-93.5,-158.45" y2="35.7824" x2="119.4611" x1="119.4611" y1="24.6232" gradientUnits="userSpaceOnUse">
      <stop offset="0" stop-color="#737373" stop-opacity="1"/>
      <stop offset="1" stop-color="#4F4F4F" stop-opacity="1"/>
    </linearGradient><linearGradient id="grad_7-.7803632020950317,0,0,0.7803632020950317,-93.5,-158.45" y2="36.0165" x2="131.7909" x1="131.7909" y1="20.7994" gradientUnits="userSpaceOnUse">
      <stop offset="0" stop-color="#737373" stop-opacity="1"/>
      <stop offset="1" stop-color="#4F4F4F" stop-opacity="1"/>
    </linearGradient><linearGradient id="grad_8-.7803632020950317,0,0,0.7803632020950317,-93.5,-158.45" y2="35.7824" x2="152.7826" x1="152.7826" y1="18.8485" gradientUnits="userSpaceOnUse">
      <stop offset="0" stop-color="#3370AE" stop-opacity="1"/>
      <stop offset="1" stop-color="#214A73" stop-opacity="1"/>
    </linearGradient><linearGradient id="grad_9-.7803632020950317,0,0,0.7803632020950317,-93.5,-158.45" y2="35.9385" x2="176.2716" x1="176.2716" y1="22.048" gradientUnits="userSpaceOnUse">
      <stop offset="0" stop-color="#737373" stop-opacity="1"/>
      <stop offset="1" stop-color="#4F4F4F" stop-opacity="1"/>
    </linearGradient><linearGradient id="grad_10-.7803632020950317,0,0,0.7803632020950317,-93.5,-158.45" y2="36.0165" x2="185.0116" x1="185.0116" y1="24.6232" gradientUnits="userSpaceOnUse">
      <stop offset="0" stop-color="#737373" stop-opacity="1"/>
      <stop offset="1" stop-color="#4F4F4F" stop-opacity="1"/>
    </linearGradient><linearGradient id="grad_11-.7803632020950317,0,0,0.7803632020950317,-93.5,-158.45" y2="35.8604" x2="205.4571" x1="205.4571" y1="21.5018" gradientUnits="userSpaceOnUse">
      <stop offset="0" stop-color="#737373" stop-opacity="1"/>
      <stop offset="1" stop-color="#4F4F4F" stop-opacity="1"/>
    </linearGradient><linearGradient id="grad_12-.7803632020950317,0,0,0.7803632020950317,-93.5,-158.45" y2="36.0165" x2="222.6251" x1="222.6251" y1="21.2676" gradientUnits="userSpaceOnUse">
      <stop offset="0" stop-color="#737373" stop-opacity="1"/>
      <stop offset="1" stop-color="#4F4F4F" stop-opacity="1"/>
    </linearGradient><linearGradient id="grad_13-.7803632020950317,0,0,0.7803632020950317,-93.5,-158.45" y2="35.8604" x2="239.3249" x1="239.3249" y1="21.5018" gradientUnits="userSpaceOnUse">
      <stop offset="0" stop-color="#737373" stop-opacity="1"/>
      <stop offset="1" stop-color="#4F4F4F" stop-opacity="1"/>
    </linearGradient><linearGradient id="grad_14-.7803632020950317,0,0,0.7803632020950317,-93.5,-158.45" y2="35.7824" x2="255.7906" x1="255.7906" y1="21.5018" gradientUnits="userSpaceOnUse">
      <stop offset="0" stop-color="#737373" stop-opacity="1"/>
      <stop offset="1" stop-color="#4F4F4F" stop-opacity="1"/>
    </linearGradient></defs>
  <!-- Exported by Scratch - http://scratch.mit.edu/ -->
  <path id="ID0.14518280653283" fill="#1F1F1F" stroke="#FFFFFF" stroke-width="2.047962754970135" d="M 298.9981 50.5 L 246.4703 48 L 53.4843 50 L 40.4963 47 L 7.5028 50 L 8.0265 21 L 1.8991 4.5 L 44.4241 1 L 65.4248 4 L 125.9129 4.5 L 216.2 3.85 L 269.9323 7.35 L 263.7002 3.6 L 287.686 6.35 L 293.1849 4.85 L 295.0179 31 L 298.9981 50.5 Z "/>
  <g id="ID0.9784134114161134">
    <path id="ID0.8251394191756845" fill="url(#grad_1-.7803632020950317,0,0,0.7803632020950317,-93.5,-158.45)" d="M 40.3323 36.0165 C 38.3814 36.0165 36.8987 35.4703 35.8062 34.4558 C 34.7137 33.4413 34.1674 31.8025 34.1674 29.6956 L 34.1674 21.5798 L 37.2889 21.5798 L 37.2889 29.6175 C 37.2889 30.7881 37.523 31.6465 38.0692 32.2708 C 38.6155 32.8951 39.3959 33.1292 40.3323 33.1292 C 41.2687 33.1292 42.0491 32.817 42.5953 32.2708 C 43.1416 31.7245 43.3757 30.8661 43.3757 29.6956 L 43.3757 21.5018 L 46.4972 21.5018 L 46.4972 29.5395 C 46.4972 30.632 46.3411 31.5684 46.0289 32.3488 C 45.7168 33.1292 45.3266 33.8315 44.7804 34.3777 C 44.2341 34.924 43.6098 35.3142 42.8295 35.5483 C 42.1271 35.8604 41.2687 36.0165 40.3323 36.0165 Z " stroke-width="0.7803632020950317"/>
    <path id="ID0.14800923271104693" fill="url(#grad_2-.7803632020950317,0,0,0.7803632020950317,-93.5,-158.45)" d="M 54.9251 36.0165 C 53.8326 36.0165 52.7401 35.8604 51.7256 35.4703 C 50.7111 35.0801 49.6966 34.5338 48.8382 33.7535 L 50.7111 31.5684 C 51.3354 32.1147 52.0377 32.5049 52.7401 32.817 C 53.4424 33.1292 54.1447 33.2852 55.0031 33.2852 C 55.6274 33.2852 56.1737 33.1292 56.4858 32.8951 C 56.876 32.6609 57.0321 32.3488 57.0321 31.8806 L 57.0321 31.8025 C 57.0321 31.5684 57.0321 31.4124 56.954 31.2563 C 56.876 31.1002 56.7199 30.9441 56.5638 30.7881 C 56.3297 30.632 56.0956 30.554 55.7054 30.3979 C 55.3153 30.2418 54.847 30.0857 54.2228 30.0077 C 53.5204 29.8516 52.8181 29.6175 52.2718 29.3834 C 51.6476 29.1493 51.1793 28.9152 50.7892 28.6031 C 50.399 28.2909 50.0868 27.9007 49.8527 27.4325 C 49.6186 26.9643 49.5406 26.34 49.5406 25.6377 L 49.5406 25.5596 C 49.5406 24.9354 49.6966 24.3111 49.9308 23.7648 C 50.1649 23.2186 50.477 22.8284 50.9452 22.4382 C 51.4134 22.048 51.8817 21.7359 52.506 21.5798 C 53.1302 21.3457 53.7545 21.2676 54.5349 21.2676 C 55.5494 21.2676 56.5638 21.4237 57.4222 21.7359 C 58.2806 22.048 59.139 22.5162 59.8414 23.0625 L 58.2026 25.4036 C 57.5783 24.9354 56.954 24.6232 56.3297 24.3891 C 55.7054 24.155 55.0812 23.9989 54.5349 23.9989 C 53.9886 23.9989 53.4424 24.155 53.1302 24.3891 C 52.8181 24.6232 52.662 24.9354 52.662 25.2475 L 52.662 25.3255 C 52.662 25.5596 52.7401 25.7938 52.8181 25.9498 C 52.8961 26.1059 53.0522 26.262 53.2863 26.418 C 53.5204 26.5741 53.8326 26.6522 54.2228 26.8082 C 54.6129 26.9643 55.1592 27.0423 55.7835 27.1984 C 56.4858 27.3545 57.1101 27.5886 57.7344 27.8227 C 58.2806 28.0568 58.7489 28.369 59.139 28.6811 C 59.5292 28.9932 59.8414 29.3834 59.9974 29.8516 C 60.2316 30.3199 60.3096 30.8661 60.3096 31.4904 L 60.3096 31.5684 C 60.3096 32.2708 60.1535 32.8951 59.9194 33.4413 C 59.6853 33.9876 59.2951 34.4558 58.8269 34.846 C 58.3587 35.2361 57.8124 35.4703 57.1881 35.7044 C 56.4078 35.8604 55.7054 36.0165 54.9251 36.0165 Z " stroke-width="0.7803632020950317"/>
    <path id="ID0.4543286547996104" fill="url(#grad_3-.7803632020950317,0,0,0.7803632020950317,-93.5,-158.45)" d="M 62.8067 21.5018 L 73.5758 21.5018 L 73.5758 24.3111 L 65.9282 24.3111 L 65.9282 27.1984 L 72.6393 27.1984 L 72.6393 30.0077 L 65.9282 30.0077 L 65.9282 32.9731 L 73.6538 32.9731 L 73.6538 35.7824 L 62.8067 35.7824 L 62.8067 21.5018 Z " stroke-width="0.7803632020950317"/>
    <path id="ID0.9752561892382801" fill="url(#grad_4-.7803632020950317,0,0,0.7803632020950317,-93.5,-158.45)" d="M 88.7148 18.7705 L 92.1484 18.7705 L 99.4058 35.8604 L 95.504 35.8604 L 93.9432 32.0367 L 86.7639 32.0367 L 85.2032 35.8604 L 81.3794 35.8604 L 88.7148 18.7705 Z M 92.6166 28.6811 L 90.3536 23.2186 L 88.0905 28.6811 L 92.6166 28.6811 Z " stroke-width="0.7803632020950317"/>
    <path id="ID0.17173114884644747" fill="url(#grad_5-.7803632020950317,0,0,0.7803632020950317,-93.5,-158.45)" d="M 110.565 36.0165 C 110.0187 36.0165 109.5505 35.9385 109.0823 35.7824 C 108.6141 35.6263 108.2239 35.3922 107.9117 35.1581 C 107.5996 34.846 107.2875 34.5338 107.1314 34.1436 C 106.8973 33.7535 106.8192 33.2852 106.8192 32.739 L 106.8192 32.6609 C 106.8192 32.0367 106.8973 31.5684 107.1314 31.1002 C 107.3655 30.632 107.6776 30.3199 108.0678 30.0077 C 108.458 29.6956 108.9262 29.5395 109.4725 29.3834 C 110.0187 29.2274 110.565 29.1493 111.2673 29.1493 C 111.8136 29.1493 112.2818 29.2274 112.75 29.3054 C 113.1402 29.3834 113.5304 29.4615 113.9986 29.6175 L 113.9986 29.4615 C 113.9986 28.8372 113.7645 28.2909 113.3743 27.9788 C 112.9841 27.6666 112.3598 27.4325 111.6575 27.4325 C 111.0332 27.4325 110.565 27.5106 110.0968 27.5886 C 109.6285 27.6666 109.1603 27.8227 108.6921 28.0568 L 107.9117 25.7157 C 108.536 25.4816 109.1603 25.2475 109.7846 25.0914 C 110.4089 24.9354 111.1893 24.8573 112.1257 24.8573 C 112.9841 24.8573 113.6864 24.9354 114.3107 25.1695 C 114.935 25.4036 115.4032 25.7157 115.7934 26.1059 C 116.1836 26.4961 116.4957 27.0423 116.6518 27.5886 C 116.8079 28.2129 116.964 28.8372 116.964 29.5395 L 116.964 35.8604 L 113.9986 35.8604 L 113.9986 34.6899 C 113.6084 35.0801 113.1402 35.4703 112.672 35.7044 C 112.2037 35.9385 111.3453 36.0165 110.565 36.0165 Z M 111.5014 33.8315 C 112.2037 33.8315 112.828 33.6754 113.2962 33.2852 C 113.7645 32.8951 113.9205 32.5049 113.9205 31.8806 L 113.9205 31.3343 C 113.6864 31.1783 113.3743 31.1002 112.9841 31.0222 C 112.672 30.9441 112.2818 30.9441 111.8916 30.9441 C 111.1893 30.9441 110.721 31.1002 110.3309 31.3343 C 109.9407 31.5684 109.7846 31.9586 109.7846 32.4268 L 109.7846 32.5049 C 109.7846 32.8951 109.9407 33.2852 110.2528 33.5193 C 110.643 33.7535 111.0332 33.8315 111.5014 33.8315 Z " stroke-width="0.7803632020950317"/>
    <path id="ID0.676052373368293" fill="url(#grad_6-.7803632020950317,0,0,0.7803632020950317,-93.5,-158.45)" d="M 119.5392 24.8573 L 122.6606 24.8573 L 122.6606 26.418 C 122.8167 26.1839 123.0508 25.9498 123.2069 25.7157 C 123.441 25.4816 123.6751 25.3255 123.9092 25.1695 C 124.1433 25.0134 124.4554 24.8573 124.7676 24.7793 C 125.0797 24.7012 125.4699 24.6232 125.8601 24.6232 C 127.0306 24.6232 127.9671 25.0134 128.5914 25.7157 C 129.2157 26.418 129.5278 27.4325 129.5278 28.6811 L 129.5278 35.7824 L 126.4064 35.7824 L 126.4064 29.6956 C 126.4064 28.9932 126.2503 28.447 125.9381 28.0568 C 125.626 27.6666 125.1578 27.5106 124.5335 27.5106 C 123.9092 27.5106 123.441 27.6666 123.1288 28.0568 C 122.8167 28.447 122.5826 28.9932 122.5826 29.6956 L 122.5826 35.7824 L 119.4611 35.7824 L 119.4611 24.8573 Z " stroke-width="0.7803632020950317"/>
    <path id="ID0.913810171186924" fill="url(#grad_7-.7803632020950317,0,0,0.7803632020950317,-93.5,-158.45)" d="M 136.7071 36.0165 C 136.0829 36.0165 135.4586 35.8604 134.8343 35.6263 C 134.21 35.3922 133.7418 35.002 133.2735 34.5338 C 132.8053 34.0656 132.4151 33.4413 132.181 32.739 C 131.8689 32.0367 131.7909 31.2563 131.7909 30.3199 L 131.7909 30.2418 C 131.7909 29.3054 131.9469 28.525 132.181 27.8227 C 132.4932 27.1204 132.8053 26.4961 133.2735 26.0279 C 133.7418 25.5596 134.288 25.1695 134.8343 24.9354 C 135.4586 24.7012 136.0829 24.5452 136.7071 24.5452 C 137.5655 24.5452 138.1898 24.7012 138.7361 25.0134 C 139.2823 25.3255 139.7506 25.7157 140.0627 26.1839 L 140.0627 20.7994 L 143.1842 20.7994 L 143.1842 35.7044 L 140.0627 35.7044 L 140.0627 34.1436 C 139.6725 34.6899 139.2043 35.0801 138.6581 35.3922 C 138.1898 35.8604 137.5655 36.0165 136.7071 36.0165 Z M 137.4875 33.3633 C 137.8777 33.3633 138.1898 33.2852 138.502 33.1292 C 138.8141 32.9731 139.1263 32.817 139.3604 32.5049 C 139.5945 32.2708 139.7506 31.9586 139.9066 31.5684 C 140.0627 31.1783 140.1407 30.7881 140.1407 30.3199 L 140.1407 30.2418 C 140.1407 29.7736 140.0627 29.3834 139.9066 28.9932 C 139.7506 28.6031 139.5945 28.2909 139.3604 28.0568 C 139.1263 27.8227 138.8141 27.5886 138.502 27.4325 C 138.1898 27.2764 137.8777 27.1984 137.4875 27.1984 C 137.0973 27.1984 136.7852 27.2764 136.473 27.4325 C 136.1609 27.5886 135.8487 27.7447 135.6146 28.0568 C 135.3805 28.2909 135.1464 28.6031 135.0684 28.9932 C 134.9123 29.3834 134.8343 29.7736 134.8343 30.2418 L 134.8343 30.3199 C 134.8343 30.7881 134.9123 31.1783 135.0684 31.5684 C 135.2245 31.9586 135.3805 32.2708 135.6146 32.5049 C 135.8487 32.739 136.1609 32.9731 136.473 33.1292 C 136.7852 33.2852 137.1754 33.3633 137.4875 33.3633 Z " stroke-width="0.7803632020950317"/>
    <path id="ID0.13597270287573338" fill="url(#grad_8-.7803632020950317,0,0,0.7803632020950317,-93.5,-158.45)" d="M 152.7826 18.8485 L 159.4157 18.8485 C 160.7423 18.8485 161.9129 19.0826 163.0834 19.4728 C 164.1759 19.863 165.1124 20.4873 165.9708 21.2676 C 166.7511 22.048 167.3754 22.9064 167.8436 23.9209 C 168.3119 24.9354 168.4679 26.0279 168.4679 27.2764 L 168.4679 27.3545 C 168.4679 28.525 168.2338 29.6956 167.8436 30.71 C 167.3754 31.7245 166.8292 32.6609 165.9708 33.3633 C 165.1904 34.1436 164.254 34.6899 163.0834 35.1581 C 161.9909 35.6263 160.7423 35.7824 159.4157 35.7824 L 152.7826 35.7824 L 152.7826 18.8485 Z M 159.3377 32.4268 C 160.118 32.4268 160.8204 32.2708 161.4447 32.0367 C 162.0689 31.8025 162.6152 31.4124 163.0834 31.0222 C 163.5516 30.554 163.8638 30.0077 164.0979 29.4615 C 164.332 28.8372 164.4881 28.1348 164.4881 27.4325 L 164.4881 27.3545 C 164.4881 26.5741 164.332 25.9498 164.0979 25.3255 C 163.8638 24.7012 163.4736 24.155 163.0834 23.6868 C 162.6152 23.2186 162.0689 22.9064 161.4447 22.6723 C 160.8204 22.4382 160.118 22.2821 159.3377 22.2821 L 156.4503 22.2821 L 156.4503 32.5049 L 159.3377 32.5049 Z " stroke-width="0.7803632020950317"/>
    <path id="ID0.12084322702139616" fill="url(#grad_9-.7803632020950317,0,0,0.7803632020950317,-93.5,-158.45)" d="M 180.7977 35.9385 C 180.3294 35.9385 179.8612 35.8604 179.471 35.7824 C 179.0809 35.7044 178.7687 35.4703 178.4566 35.2361 C 178.1444 35.002 177.9884 34.6119 177.8323 34.2217 C 177.6762 33.8315 177.5982 33.2852 177.5982 32.6609 L 177.5982 27.5106 L 176.2716 27.5106 L 176.2716 24.8573 L 177.5982 24.8573 L 177.5982 22.048 L 180.7196 22.048 L 180.7196 24.8573 L 183.2948 24.8573 L 183.2948 27.5106 L 180.7196 27.5106 L 180.7196 32.1927 C 180.7196 32.8951 181.0318 33.2852 181.7341 33.2852 C 182.2804 33.2852 182.7486 33.1292 183.2948 32.8951 L 183.2948 35.3922 C 182.9827 35.5483 182.5925 35.7044 182.2023 35.8604 C 181.8121 35.9385 181.3439 35.9385 180.7977 35.9385 Z " stroke-width="0.7803632020950317"/>
    <path id="ID0.3729855390265584" fill="url(#grad_10-.7803632020950317,0,0,0.7803632020950317,-93.5,-158.45)" d="M 190.9424 36.0165 C 190.084 36.0165 189.3036 35.8604 188.6013 35.5483 C 187.899 35.2361 187.2747 34.846 186.7284 34.3777 C 186.1822 33.8315 185.792 33.2852 185.4798 32.5829 C 185.1677 31.8806 185.0116 31.1783 185.0116 30.3979 L 185.0116 30.3199 C 185.0116 29.5395 185.1677 28.7591 185.4798 28.1348 C 185.792 27.4325 186.1822 26.8863 186.7284 26.34 C 187.2747 25.7938 187.899 25.4036 188.6013 25.0914 C 189.3036 24.7793 190.084 24.6232 190.9424 24.6232 C 191.8008 24.6232 192.5811 24.7793 193.2835 25.0914 C 193.9858 25.4036 194.6101 25.7938 195.1563 26.262 C 195.7026 26.8082 196.0928 27.3545 196.4049 28.0568 C 196.7171 28.7591 196.8731 29.4615 196.8731 30.2418 L 196.8731 30.3199 C 196.8731 31.1002 196.7171 31.8806 196.4049 32.5049 C 196.0928 33.2072 195.7026 33.7535 195.1563 34.2997 C 194.6101 34.846 193.9858 35.2361 193.2835 35.5483 C 192.5811 35.8604 191.8008 36.0165 190.9424 36.0165 Z M 191.0204 33.3633 C 191.4886 33.3633 191.8788 33.2852 192.191 33.1292 C 192.5031 32.9731 192.8153 32.739 193.0494 32.5049 C 193.2835 32.2708 193.5176 31.8806 193.5956 31.5684 C 193.7517 31.1783 193.7517 30.7881 193.7517 30.3979 L 193.7517 30.3199 C 193.7517 29.9297 193.6737 29.5395 193.5176 29.1493 C 193.3615 28.7591 193.2054 28.447 192.8933 28.2129 C 192.6592 27.9007 192.347 27.7447 191.9569 27.5886 C 191.5667 27.4325 191.2545 27.3545 190.7863 27.3545 C 190.3181 27.3545 189.9279 27.4325 189.6158 27.5886 C 189.3036 27.7447 188.9915 27.9788 188.7574 28.2129 C 188.5233 28.447 188.2892 28.8372 188.2111 29.1493 C 188.055 29.5395 188.055 29.9297 188.055 30.3199 L 188.055 30.3979 C 188.055 30.7881 188.1331 31.1783 188.2892 31.5684 C 188.4452 31.9586 188.6013 32.2708 188.9134 32.5049 C 189.1476 32.817 189.4597 32.9731 189.8499 33.1292 C 190.162 33.2852 190.5522 33.3633 191.0204 33.3633 Z " stroke-width="0.7803632020950317"/>
    <path id="ID0.3907548999413848" fill="url(#grad_11-.7803632020950317,0,0,0.7803632020950317,-93.5,-158.45)" d="M 205.5352 21.5018 L 208.8907 21.5018 L 212.6365 27.5106 L 216.3822 21.5018 L 219.7378 21.5018 L 219.7378 35.7824 L 216.6163 35.7824 L 216.6163 26.4961 L 212.6365 32.5829 L 212.5584 32.5829 L 208.5786 26.5741 L 208.5786 35.8604 L 205.4571 35.8604 L 205.4571 21.5018 Z " stroke-width="0.7803632020950317"/>
    <path id="ID0.8509245859459043" fill="url(#grad_12-.7803632020950317,0,0,0.7803632020950317,-93.5,-158.45)" d="M 230.1947 36.0165 C 229.1021 36.0165 228.0877 35.8604 227.1512 35.4703 C 226.2148 35.0801 225.4344 34.5338 224.7321 33.9095 C 224.0298 33.2852 223.5616 32.5049 223.1714 31.5684 C 222.7812 30.71 222.6251 29.6956 222.6251 28.6811 L 222.6251 28.6031 C 222.6251 27.5886 222.7812 26.6522 223.1714 25.7157 C 223.5616 24.8573 224.1078 24.077 224.7321 23.3746 C 225.4344 22.6723 226.2148 22.2041 227.1512 21.8139 C 228.0877 21.4237 229.1021 21.2676 230.1947 21.2676 C 231.2872 21.2676 232.3016 21.4237 233.2381 21.8139 C 234.1745 22.2041 234.9549 22.7503 235.6572 23.3746 C 236.3595 23.9989 236.8277 24.7793 237.2179 25.7157 C 237.6081 26.5741 237.7642 27.5886 237.7642 28.6031 L 237.7642 28.6811 C 237.7642 29.6956 237.6081 30.632 237.2179 31.5684 C 236.8277 32.4268 236.2815 33.2072 235.6572 33.9095 C 235.0329 34.6119 234.1745 35.0801 233.2381 35.4703 C 232.3016 35.8604 231.2872 36.0165 230.1947 36.0165 Z M 230.1947 33.1292 C 230.8189 33.1292 231.3652 33.0511 231.9115 32.817 C 232.4577 32.5829 232.9259 32.2708 233.2381 31.8806 C 233.6283 31.4904 233.9404 31.0222 234.0965 30.4759 C 234.2525 29.9297 234.4086 29.3834 234.4086 28.7591 L 234.4086 28.6811 C 234.4086 28.0568 234.3306 27.5106 234.0965 26.9643 C 233.8624 26.418 233.5502 25.9498 233.2381 25.5596 C 232.9259 25.1695 232.3797 24.8573 231.8334 24.6232 C 231.2872 24.3891 230.7409 24.233 230.1166 24.233 C 229.4923 24.233 228.868 24.3111 228.3998 24.5452 C 227.9316 24.7793 227.4634 25.0914 227.0732 25.4816 C 226.683 25.8718 226.3709 26.34 226.2148 26.8863 C 225.9807 27.4325 225.9027 27.9788 225.9027 28.6031 L 225.9027 28.6811 C 225.9027 29.3054 225.9807 29.8516 226.2148 30.3979 C 226.4489 30.9441 226.7611 31.4124 227.0732 31.8025 C 227.4634 32.1927 227.9316 32.5049 228.3998 32.739 C 228.9461 33.0511 229.5704 33.1292 230.1947 33.1292 Z " stroke-width="0.7803632020950317"/>
    <path id="ID0.11656142538413405" fill="url(#grad_13-.7803632020950317,0,0,0.7803632020950317,-93.5,-158.45)" d="M 239.3249 21.5018 L 242.7585 21.5018 L 246.5042 31.5684 L 250.25 21.5018 L 253.6056 21.5018 L 247.8309 35.8604 L 245.0216 35.8604 L 239.3249 21.5018 Z " stroke-width="0.7803632020950317"/>
    <path id="ID0.17774535436183214" fill="url(#grad_14-.7803632020950317,0,0,0.7803632020950317,-93.5,-158.45)" d="M 255.7906 21.5018 L 266.5596 21.5018 L 266.5596 24.3111 L 258.912 24.3111 L 258.912 27.1984 L 265.6231 27.1984 L 265.6231 30.0077 L 258.912 30.0077 L 258.912 32.9731 L 266.6376 32.9731 L 266.6376 35.7824 L 255.7906 35.7824 L 255.7906 21.5018 Z " stroke-width="0.7803632020950317"/>
  </g>
</svg>