<svg xmlns="http://www.w3.org/2000/svg" xmlns:xlink="http://www.w3.org/1999/xlink" version="1.1" width="278.37598180770874" height="157.1065878868103" viewBox="8.057410478591919 -2.3192891404032707 278.37598180770874 157.1065878868103">
  <!-- Exported by Scratch - http://scratch.mit.edu/ -->
  <g id="ID0.6169916936196387">
    <path id="ID0.6829322893172503" fill="#EDD2B8" stroke="none" stroke-linecap="round" d="M 138.7459 127.7277 L 141.6099 100.0086 L 157.0038 100.3747 L 174.2701 99.5968 L 185.9186 106.8792 L 194.7067 114.1093 L 198.3461 122.1708 L 210.2541 133.6658 L 203.8561 142.9741 L 198.1354 142.8694 L 195.6387 145.9374 L 186.0691 149.2126 L 175.4073 152.3836 L 163.654 150.8219 L 150.1337 140.0548 L 138.7459 127.7277 Z " stroke-width="1.9625150386264727"/>
    <g id="ID0.9434720128774643">
      <path id="ID0.6507829907350242" fill="#282828" stroke="none" stroke-linecap="round" d="M 10.4611 61.5667 L 21.9278 27.3063 L 79.3491 60.7748 L 101.3358 73.3632 L 134.2013 93.9101 L 151.3941 98.0625 L 137.6912 131.2721 L 123.5365 120.224 L 101.2268 111.484 L 72.2085 101.443 L 50.3148 92.9631 L 10.4611 61.5667 Z " stroke-width="1.9625150386264727"/>
      <path id="ID0.9892375003546476" fill="none" stroke="#191919" stroke-width="4.807377816150769" stroke-linecap="round" d="M 136.8449 129.3934 L 148.4419 98.3741 L 127.9321 92.6387 "/>
    </g>
  </g>
  <g id="ID0.08065540948882699">
    <path id="ID0.2553020962513983" fill="#999FA5" stroke="none" d="M 196.2951 37.987 C 220.5002 37.987 242.4339 40.6815 258.3175 45.0322 C 274.1987 49.3829 284.0297 55.3921 284.0297 62.0239 C 284.0297 68.6556 274.1987 74.6649 258.3175 79.0155 C 242.4339 83.3662 220.5002 86.0608 196.2951 86.0608 C 172.0899 86.0608 150.1563 83.3662 134.2727 79.0155 C 118.3915 74.6649 108.5604 68.6556 108.5604 62.0239 C 108.5604 55.3921 118.3915 49.3829 134.2727 45.0322 C 150.1563 40.6815 172.0899 37.987 196.2951 37.987 Z " stroke-width="2.40368914604187"/>
    <path id="ID0.4823109242133796" fill="#8B9196" stroke="none" stroke-linecap="round" d="M 193.8971 0.0844 C 213.9583 0.0844 232.135 4.4615 245.2976 11.5332 C 258.4602 18.6024 263.0513 28.0946 266.6087 39.1443 C 269.4018 47.8337 271.8848 61.9073 264.205 66.1858 C 243.0718 77.3846 217.2225 78.6225 193.8971 78.2043 C 170.1968 77.7788 145.2873 74.9545 124.1901 63.7822 C 117.1954 59.8641 118.616 47.0933 121.1855 39.1443 C 124.7646 28.1018 129.334 18.6024 142.4966 11.5332 C 155.6592 4.4615 173.8359 0.0844 193.8971 0.0844 Z " stroke-width="2.40368914604187"/>
    <path id="ID0.0372768803499639" fill="none" stroke="#A4ABB1" stroke-width="4.80737829208374" stroke-linecap="round" d="M 217.934 7.3418 C 217.934 7.3418 224.835 8.6398 228.1497 9.7455 C 229.6808 10.255 231.0774 11.166 232.3562 12.1492 C 233.7022 13.1851 235.9617 15.7547 235.9617 15.7547 "/>
    <path id="ID0.0845643924549222" fill="none" stroke="#A4ABB1" stroke-width="4.80737829208374" stroke-linecap="round" d="M 224.5442 18.1584 C 224.5442 18.1584 227.8372 19.1679 229.3515 19.9611 C 232.0581 21.3793 237.1635 24.7685 237.1635 24.7685 "/>
  </g>
</svg>