<svg xmlns="http://www.w3.org/2000/svg" xmlns:xlink="http://www.w3.org/1999/xlink" version="1.1" width="275.705810546875" height="223.22972106933594" viewBox="4.466895580291748 5.10867166519165 275.705810546875 223.22972106933594">
  <!-- Exported by Scratch - http://scratch.mit.edu/ -->
  <path id="ID0.7729651997797191" fill="#7C0D0D" stroke="none" stroke-linecap="round" d="M 91.2127 36.6694 L 80.6326 52.8241 L 95.6852 59.6693 L 107.7745 65.2778 L 114.3564 65.5686 L 118.9882 64.8921 L 123.5466 53.2345 L 119.8332 48.768 L 101.3917 41.5829 L 91.2127 36.6694 Z " stroke-width="0.7788099349788669"/>
  <path id="ID0.4757494777441025" fill="#7C0D0D" stroke="none" stroke-linecap="round" d="M 66.8547 29.4631 L 60.3311 34.7976 L 54.9733 49.7799 L 79.1393 58.0157 L 88.8657 52.9437 L 92.2631 50.0943 L 92.2739 46.2791 L 91.6258 42.3978 L 92.8791 36.5349 L 88.7587 33.3231 L 82.1602 29.2561 L 73.9549 26.9655 L 66.8547 29.4631 Z " stroke-width="0.4541860495466038"/>
  <path id="ID0.3809091211296618" fill="#7C0D0D" stroke="none" stroke-linecap="round" d="M 129.7569 112.6622 L 135.3423 84.675 L 168.2364 105.2402 L 176.4208 112.5085 L 187.5846 127.4 L 184.5409 135.8905 L 177.8364 147.0485 L 161.1835 134.5531 L 153.1903 126.3446 L 129.7569 112.6622 Z " stroke-width="0.7305889745875466"/>
  <path id="ID0.5368814701214433" fill="#7C0D0D" stroke="none" stroke-linecap="round" d="M 241.656 199.6133 L 236.2981 192.0254 L 231.5653 182.901 L 242.2233 178.4013 L 255.077 173.9292 L 273.8036 166.1061 L 279.6727 169.1343 L 265.8617 189.643 L 250.2282 204.4884 L 241.656 199.6133 Z " stroke-width="0.7702165555501898"/>
  <path id="ID0.05466862628236413" fill="#7C0D0D" stroke="none" stroke-linecap="round" d="M 171.7679 144.0194 L 184.2525 120.3735 L 196.6067 135.4264 L 199.7503 139.6697 L 214.0494 150.8362 L 244.9798 177.3704 L 237.2587 191.1399 L 218.0838 179.8549 L 209.4999 176.9702 L 201.1012 172.4891 L 191.4163 162.8454 L 181.4648 155.5805 L 171.7679 144.0194 Z " stroke-width="0.7305889745875466"/>
  <path id="ID0.3809091211296618" fill="#7C0D0D" stroke="none" stroke-linecap="round" d="M 95.0504 118.43 L 119.5923 107.725 L 152.4864 128.2902 L 160.6708 135.5585 L 171.8346 150.45 L 168.7909 158.9405 L 162.0864 170.0985 L 144.2408 157.6263 L 132.5349 151.0719 L 95.0504 118.43 Z " stroke-width="0.7305889745875466"/>
  <path id="ID0.5368814701214433" fill="#7C0D0D" stroke="none" stroke-linecap="round" d="M 226.406 222.9633 L 221.0481 215.3754 L 216.3153 206.251 L 226.9733 201.7513 L 239.827 197.2792 L 258.5536 189.4561 L 264.4227 192.4843 L 250.6117 212.993 L 234.9782 227.8384 L 226.406 222.9633 Z " stroke-width="0.7702165555501898"/>
  <path id="ID0.05466862628236413" fill="#7C0D0D" stroke="none" stroke-linecap="round" d="M 156.0179 167.0694 L 168.5025 143.4235 L 180.8567 158.4764 L 184.0003 162.7197 L 198.2994 173.8862 L 229.2298 200.4204 L 221.5087 214.1899 L 202.3338 202.9049 L 193.7499 200.0202 L 185.3512 195.5391 L 175.6663 185.8954 L 165.7148 178.6305 L 156.0179 167.0694 Z " stroke-width="0.7305889745875466"/>
  <path id="ID0.7729651997797191" fill="#7C0D0D" stroke="none" stroke-linecap="round" d="M 39.4302 104.9149 L 52.4858 89.4428 L 63.8757 102.5113 L 73.1346 112.9737 L 75.4004 119.4983 L 76.1096 124.3541 L 65.7659 132.4287 L 60.1656 130.0377 L 47.4182 113.6668 L 39.4302 104.9149 Z " stroke-width="0.816459632800277"/>
  <path id="ID0.4757494777441025" fill="#7C0D0D" stroke="none" stroke-linecap="round" d="M 25.0118 82.5473 L 28.4145 74.3946 L 41.8584 64.52 L 57.3777 86.3263 L 55.1991 97.6178 L 53.3556 101.885 L 49.5262 103.0398 L 45.433 103.5526 L 39.9192 106.5696 L 35.4572 103.3935 L 29.3932 97.9845 L 24.6319 90.4287 L 25.0118 82.5473 Z " stroke-width="0.4761425658345184"/>
  <path id="ID0.7477802094072104" fill="#670A0A" stroke="none" stroke-linecap="round" d="M 103.7794 56.902 L 89.3355 70.4291 L 121.844 95.7177 L 139.123 88.0456 L 121.1715 71.1855 L 103.7794 56.902 Z " stroke-width="0.4761425640162919"/>
  <path id="ID0.7477802094072104" fill="#670A0A" stroke="none" stroke-linecap="round" d="M 66.8218 104.4486 L 78.9653 84.1853 L 111.4737 109.4739 L 108.288 128.1092 L 85.1014 117.0095 L 66.8218 104.4486 Z " stroke-width="0.4761425640162919"/>
  <path id="ID0.4270821204409003" fill="#7C0D0D" stroke="none" stroke-linecap="round" d="M 51.1476 91.9408 L 43.6211 81.2599 L 40.406 75.8934 L 38.8825 66.4137 L 59.086 42.7685 L 66.7075 39.9503 L 71.6561 40.1803 L 84.9881 41.6535 L 92.8176 48.649 L 96.5548 52.7627 L 103.0274 55.6865 L 107.6417 58.6727 L 111.7755 64.603 L 114.9156 69.0967 L 121.5132 75.7372 L 139.7218 88.0016 L 143.0473 97.1035 L 145.0136 104.6958 L 141.8576 117.5932 L 132.3523 124.888 L 124.6413 123.8663 L 116.5273 123.8281 L 108.8367 128.6738 L 88.1226 114.0079 L 82.1302 110.8545 L 70.3039 107.4459 L 60.95 101.8284 L 51.1476 91.9408 Z " stroke-width="0.4761425640162919"/>
  <path id="ID0.9286923445761204" fill="#7C0D0D" stroke="none" stroke-linecap="round" d="M 15.4402 41.1693 L 27.8611 26.9698 L 47.6751 41.1395 L 62.5059 33.189 L 57.9566 58.3008 L 25.9903 80.2039 L 29.3725 57.9335 L 15.4402 41.1693 Z " stroke-width="0.47614260753885"/>
  <path id="ID0.8999492498114705" fill="#7C0D0D" stroke="none" stroke-linecap="round" d="M 20.9343 6.4521 C 25.1149 4.9861 30.5529 5.3922 34.1505 7.9769 C 38.2567 10.9284 38.9122 16.8198 41.3358 21.1983 C 42.2264 22.6607 43.697 23.9007 44.0986 25.5088 C 44.9147 28.7803 44.7098 32.2349 45.11 35.5823 C 45.3725 37.776 46.2481 39.9674 46.0135 42.1885 C 45.7972 44.7883 45.9364 48.1951 43.7871 49.7268 C 40.6005 51.9971 36.1285 52.0929 32.2593 51.9959 C 29.0805 51.9158 25.7328 51.0636 23.1172 49.2406 C 18.3554 45.8134 13.6048 41.81 10.7207 36.6667 C 7.5238 30.9652 3.3522 24.0188 5.6087 17.7138 C 7.4882 11.7832 14.721 8.634 20.9343 6.4521 Z " stroke-width="0.5080372592986854"/>
  <path id="ID0.6101007834076881" fill="#FFFFFF" stroke="none" stroke-linecap="round" d="M 19.7747 29.2041 L 21.4226 28.8672 L 25.3247 28.2721 L 26.7211 29.2836 L 21.3973 30.2436 L 19.7747 29.2041 Z " stroke-width="0.3468002233805213"/>
  <path id="ID0.6101007834076881" fill="#FFFFFF" stroke="none" stroke-linecap="round" d="M 37.2571 21.9611 L 36.1217 22.8036 L 33.6688 24.8899 L 34.2145 26.1892 L 37.7331 23.4095 L 37.2571 21.9611 Z " stroke-width="0.3275584617801262"/>
  <path id="ID0.043594349175691605" fill="#D7E2FD" stroke="none" stroke-linecap="round" d="M 25.4977 28.9571 L 25.1806 28.1935 L 26.5861 29.2725 L 23.9516 29.7334 L 25.4977 28.9571 Z " stroke-width="0.4330896258777764"/>
  <path id="ID0.043594349175691605" fill="#D7E2FD" stroke="none" stroke-linecap="round" d="M 34.3404 25.3523 L 33.6399 24.8327 L 34.2057 26.1151 L 35.8799 24.811 L 34.3404 25.3523 Z " stroke-width="0.39252922071180196"/>
  <g id="ID0.05835956521332264">
    <path id="ID0.6507829907350242" fill="#7C0D0D" stroke="none" stroke-linecap="round" d="M 67.4037 137.7891 L 57.6113 118.5899 L 68.7567 103.2183 L 76.4788 95.6557 L 85.6613 82.4006 L 88.8775 76.6827 L 99.9393 81.8627 L 96.3875 87.3481 L 92.3183 96.448 L 87.577 108.3102 L 83.6241 117.2423 L 67.4037 137.7891 Z " stroke-width="0.8164596344154036"/>
    <path id="ID0.6829322893172503" fill="#7C0D0D" stroke="none" stroke-linecap="round" d="M 100.0424 82.4307 L 88.5794 80.6974 L 89.0331 74.3074 L 89.0482 67.1169 L 92.3028 62.4189 L 95.4796 58.9085 L 98.9009 57.554 L 103.9112 52.8307 L 107.6541 55.6719 L 107.4984 58.0472 L 108.7245 59.1449 L 109.898 63.1858 L 111.0069 67.6786 L 110.1276 72.5323 L 105.3882 77.9399 L 100.0424 82.4307 Z " stroke-width="0.8164596344154036"/>
    <path id="ID0.5922487881034613" fill="#7C0D0D" stroke="none" stroke-linecap="round" d="M 87.5372 110.4525 L 78.5237 111.0617 L 73.5366 107.5076 L 71.83 99.0747 L 81.5361 87.5728 L 89.6959 84.0381 L 92.5483 86.0141 L 93.3974 95.5414 L 87.5372 110.4525 Z " stroke-width="0.8164596344154036"/>
  </g>
  <g id="ID0.27753004897385836">
    <path id="ID0.6507829907350242" fill="#7C0D0D" stroke="none" stroke-linecap="round" d="M 112.0678 83.9949 L 106.1121 64.3181 L 119.1686 51.766 L 127.6941 45.9682 L 138.5507 35.0722 L 142.5346 30.2463 L 152.0464 36.9753 L 147.7867 41.5263 L 142.4315 49.3835 L 135.9795 59.7208 L 130.7617 67.4401 L 112.0678 83.9949 Z " stroke-width="0.778809957661903"/>
    <path id="ID0.6829322893172503" fill="#7C0D0D" stroke="none" stroke-linecap="round" d="M 152.0474 37.426 L 141.5776 33.8653 L 143.0813 27.9425 L 144.3082 21.1942 L 148.1562 17.3323 L 151.7307 14.5724 L 155.1714 13.8778 L 160.6719 10.2883 L 163.7067 13.587 L 163.16 15.7908 L 164.126 17.0281 L 164.5462 21.02 L 164.8295 25.4251 L 163.1854 29.8337 L 157.8238 34.1113 L 152.0474 37.426 Z " stroke-width="0.778809957661903"/>
  </g>
</svg>