<svg xmlns="http://www.w3.org/2000/svg" xmlns:xlink="http://www.w3.org/1999/xlink" version="1.1" width="453.42393325929527" height="314.518842927264" viewBox="1.3328238767152731 1.6436237138277 453.42393325929527 314.518842927264">
  <defs>
    <linearGradient id="grad_1" y2="1" x2="0">
      <stop offset="0" stop-color="#222325" stop-opacity="1"/>
      <stop offset="1" stop-color="#2E3034" stop-opacity="1"/>
    </linearGradient>
  </defs>
  <!-- Exported by Scratch - http://scratch.mit.edu/ -->
  <path id="ID0.7927394988946617" fill="#0D0D0D" stroke="#0D0D0D" stroke-width="1.2400576812814967" stroke-linecap="round" d="M 327.4155 128.8889 L 343.6742 140.3315 L 348.9019 157.0173 L 370.2331 165.8986 L 387.7821 170.9718 L 398.9638 171.75 L 453.9275 207.0879 L 443.3134 205.9742 L 430.0084 206.7866 L 419.6239 211.2449 L 411.9639 206.7066 L 407.7281 205.0467 L 401.0385 203.0574 L 394.3213 202.0582 L 386.5331 201.2554 L 381.4897 201.0799 L 374.8044 202.1433 L 370.5825 203.2282 L 364.2832 207.0182 L 360.0837 210.4736 L 356.2412 214.7924 L 353.0006 227.4513 L 346.236 216.0049 L 339.3158 208.3771 L 333.8638 204.0113 L 328.8264 201.4485 L 322.5501 198.4092 L 317.6801 198.3327 L 313.3774 202.5207 L 305.1651 217.782 L 299.3268 201.4234 L 294.5003 193.062 L 290.9562 187.065 L 286.7171 182.4189 L 280.9112 177.3894 L 276.8606 174.747 L 270.2249 171.6179 L 264.0967 168.894 L 256.711 168.1891 L 244.2335 174.3542 L 245.5836 161.6711 L 243.557 155.6503 L 237.5264 149.9813 L 232.3592 145.5143 L 226.6539 141.4325 L 213.2334 134.7925 L 274.9061 85.5872 L 327.4155 128.8889 Z "/>
  <path id="ID0.7927394988946617" fill="#0D0D0D" stroke="#0D0D0D" stroke-width="1.240057678960092" stroke-linecap="round" d="M 146.6588 104.3195 L 127.6579 110.1715 L 117.5251 124.4218 L 94.4928 126.269 L 76.2352 125.6648 L 65.3613 122.946 L 2.1621 139.5485 L 12.6001 141.7727 L 25.0013 146.6609 L 33.4973 154.1128 L 42.1854 152.1667 L 46.7269 151.8984 L 53.7038 152.0761 L 60.4007 153.2037 L 68.0553 154.8494 L 72.9055 156.2427 L 78.934 159.322 L 82.6132 161.6597 L 87.4312 167.2123 L 90.3559 171.7973 L 92.6739 177.0929 L 91.8397 190.1334 L 101.8133 181.3408 L 110.7536 176.2279 L 117.2887 173.7627 L 122.8718 172.8839 L 129.7804 171.9351 L 134.4352 173.3688 L 137.2314 178.6823 L 140.3201 195.7355 L 150.9323 181.9853 L 158.1086 175.5269 L 163.3339 170.9204 L 168.8023 167.8135 L 175.8793 164.8266 L 180.5486 163.5668 L 187.8267 162.6439 L 194.497 161.9492 L 201.7385 163.5635 L 211.6969 173.2861 L 214.3364 160.8074 L 218.126 155.7087 L 225.6145 152.1833 L 231.91 149.5338 L 238.5981 147.4171 L 253.4144 145.2541 L 209.9876 79.3846 L 146.6588 104.3195 Z "/>
  <g id="ID0.9602425838820636">
    <g id="ID0.17693647183477879">
      <path id="ID0.7729651997797191" fill="#393C40" stroke="none" stroke-linecap="round" d="M 284.3681 90.0255 L 272.5359 105.2869 L 286.9959 113.3084 L 298.6005 119.8612 L 305.1383 120.6749 L 309.8093 120.3691 L 315.281 109.1113 L 311.9349 104.3634 L 294.1237 95.7335 L 284.3681 90.0255 Z " stroke-width="0.7788098699051736"/>
      <path id="ID0.9716172609478235" fill="#34373A" stroke="none" stroke-linecap="round" d="M 285.9353 96.6834 L 287.3186 91.6812 L 281.4535 88.9194 L 277.0971 107.9409 L 281.1635 107.6747 L 285.9767 104.9038 L 285.9353 96.6834 Z " stroke-width="0.7788098699051736"/>
      <g id="ID0.38066427363082767">
        <path id="ID0.4757494777441025" fill="#1D1E1F" stroke="none" stroke-linecap="round" d="M 260.6003 81.0796 L 253.6729 85.878 L 247.1398 100.3864 L 270.5736 110.5193 L 280.6729 106.2374 L 284.2863 103.6675 L 284.6006 99.8652 L 284.2635 95.9447 L 285.9795 90.2001 L 282.1277 86.6705 L 275.8738 82.0913 L 267.8768 79.155 L 260.6003 81.0796 Z " stroke-width="0.45418604038303517"/>
        <path id="ID0.6007084371522069" fill="none" stroke="#0D0D0D" stroke-width="0.9083720807660703" stroke-linecap="round" d="M 285.9361 90.7661 L 284.3384 95.8593 L 284.2892 101.2535 L 284.3717 103.7424 L 280.6729 106.2374 L 276.2807 107.9732 "/>
      </g>
    </g>
    <g id="ID0.7397577832452953">
      <path id="ID0.6726378230378032" fill="#34373A" stroke="none" stroke-linecap="round" d="M 309.4005 103.0551 L 305.7055 120.3777 L 307.8584 121.2302 L 311.1795 104.0976 L 309.4005 103.0551 Z " stroke-width="0.7788098699051736"/>
      <path id="ID0.6507829907350242" fill="#1D1E1F" stroke="none" stroke-linecap="round" d="M 312.2865 101.3051 L 307.6652 121.3373 L 321.5348 132.9847 L 330.4301 138.1971 L 341.9937 148.3398 L 346.2926 152.8873 L 355.3312 145.5351 L 350.7756 141.2803 L 344.9051 133.8003 L 337.7737 123.9194 L 332.0496 116.5678 L 312.2865 101.3051 Z " stroke-width="0.7788098699051736"/>
      <path id="ID0.6829322893172503" fill="#1D1E1F" stroke="none" stroke-linecap="round" d="M 355.2952 144.9856 L 345.0881 149.241 L 346.986 155.0495 L 348.6631 161.7002 L 352.7616 165.2951 L 356.5133 167.8089 L 359.9928 168.271 L 365.7219 171.4832 L 368.5285 167.9882 L 367.8351 165.826 L 368.7158 164.5266 L 368.8671 160.5156 L 368.8541 156.1014 L 366.9177 151.8131 L 361.2811 147.905 L 355.2952 144.9856 Z " stroke-width="0.7788098699051736"/>
      <path id="ID0.47767175547778606" fill="none" stroke="#0D0D0D" stroke-width="1.5576197398103473" stroke-linecap="round" d="M 315.1262 103.7958 L 312.019 101.433 L 307.7165 121.2788 L 317.9632 129.852 "/>
      <path id="ID0.5922487881034613" fill="#282A2B" stroke="none" stroke-linecap="round" d="M 337.3915 122.0388 L 328.9093 123.5598 L 325.1162 128.0024 L 325.4873 136.2011 L 337.1299 144.6002 L 345.4987 145.984 L 347.6813 143.4956 L 346.2635 134.4824 L 337.3915 122.0388 Z " stroke-width="0.7788098699051736"/>
      <path id="ID0.36820242274552584" fill="#151616" stroke="none" stroke-linecap="round" d="M 335.3315 128.1508 L 329.932 134.1886 L 339.8822 139.4976 L 340.7737 138.3631 L 335.3315 128.1508 Z " stroke-width="0.7788098699051736"/>
      <path id="ID0.13569410238415003" fill="none" stroke="#232425" stroke-width="1.5576197398103473" stroke-linecap="round" d="M 343.6916 134.6524 L 345.2491 143.2701 L 336.6929 142.3954 "/>
      <path id="ID0.024502143263816833" fill="none" stroke="#0D0D0D" stroke-width="1.5576197398103473" stroke-linecap="round" d="M 336.8307 122.1599 L 329.0449 123.3594 L 325.069 127.5381 L 325.3888 135.7953 L 332.1014 140.5436 "/>
    </g>
  </g>
  <path id="ID0.3809091211296618" fill="#393D40" stroke="none" stroke-linecap="round" d="M 237.3278 183.7729 L 250.4053 158.7372 L 275.2448 185.0969 L 280.8197 193.6723 L 287.0231 210.0358 L 281.7995 217.3405 L 272.4165 226.358 L 260.4278 211.0594 L 255.2957 201.6436 L 237.3278 183.7729 Z " stroke-width="0.7093196197317387"/>
  <g id="ID0.8669879510998726">
    <path id="ID0.5368814701214433" fill="#292D2E" stroke="none" stroke-linecap="round" d="M 254.4985 296.9868 L 257.8115 288.3089 L 262.7487 279.2934 L 272.4254 285.6337 L 283.3033 293.8124 L 300.2369 304.9989 L 300.9944 311.5595 L 276.269 311.5254 L 255.2294 306.8212 L 254.4985 296.9868 Z " stroke-width="0.7702165575248318"/>
    <path id="ID0.05466862628236413" fill="#292D2E" stroke="none" stroke-linecap="round" d="M 261.7579 207.9877 L 288.3487 205.1719 L 282.7379 223.8196 L 280.9674 228.7948 L 279.6672 246.8908 L 274.8792 287.361 L 259.1435 288.6261 L 257.824 266.416 L 255.4341 257.6814 L 254.4727 248.2107 L 257.0806 234.7944 L 257.5649 222.4827 L 261.7579 207.9877 Z " stroke-width="0.730589012323927"/>
    <path id="ID0.4490455654449761" fill="none" stroke="#272A2B" stroke-width="1.658552399920284" stroke-linecap="round" d="M 261.4316 208.1623 L 288.0273 204.9599 L 280.2873 229.0835 "/>
    <path id="ID0.10446935473009944" fill="none" stroke="#242728" stroke-width="1.658552399920284" stroke-linecap="round" d="M 279.4642 241.393 L 278.6381 258.2111 L 267.8103 265.1283 "/>
    <path id="ID0.42170455446466804" fill="none" stroke="#242728" stroke-width="1.658552399920284" stroke-linecap="round" d="M 277.4906 259.3309 L 275.4431 274.3246 L 264.3878 281.4268 "/>
    <path id="ID0.047098892275244" fill="none" stroke="#242728" stroke-width="1.658552399920284" stroke-linecap="round" d="M 257.7844 222.2604 L 257.1563 226.1502 L 261.3015 235.1752 "/>
  </g>
  <path id="ID0.3809091211296618" fill="#3E4246" stroke="none" stroke-linecap="round" d="M 206.7261 159.7327 L 231.7276 161.399 L 245.1581 188.9895 L 247.2624 197.4168 L 247.2702 212.527 L 240.0499 217.5226 L 228.4846 223.0473 L 221.9547 207.1238 L 216.7358 197.8602 L 206.7261 159.7327 Z " stroke-width="0.6602002910911349"/>
  <g id="ID0.38464318960905075">
    <path id="ID0.5368814701214433" fill="#303436" stroke="none" stroke-linecap="round" d="M 209.5023 298.1464 L 213.3022 289.6704 L 218.7428 280.9494 L 228.0444 287.8285 L 238.4408 296.611 L 254.7126 308.7401 L 255.0967 315.3332 L 230.413 313.8965 L 209.6742 308.0064 L 209.5023 298.1464 Z " stroke-width="0.7702165289070354"/>
    <path id="ID0.05466862628236413" fill="#303436" stroke="none" stroke-linecap="round" d="M 221.7786 209.0997 L 248.4863 207.7968 L 241.8267 226.0962 L 239.7768 230.9629 L 237.4523 248.956 L 230.3762 289.0894 L 214.5941 289.4599 L 214.5366 267.2107 L 212.646 258.3547 L 212.2235 248.8446 L 215.5882 235.5979 L 216.7701 223.3335 L 221.7786 209.0997 Z " stroke-width="0.7305889745629625"/>
    <path id="ID0.4490455654449761" fill="none" stroke="#272A2B" stroke-width="1.65855231963734" stroke-linecap="round" d="M 221.4941 209.9513 L 248.2286 208.2628 L 239.1327 231.9085 "/>
    <path id="ID0.10446935473009944" fill="none" stroke="#242728" stroke-width="1.65855231963734" stroke-linecap="round" d="M 237.6126 244.1514 L 235.8339 260.8955 L 224.6312 267.1875 "/>
    <path id="ID0.42170455446466804" fill="none" stroke="#242728" stroke-width="1.65855231963734" stroke-linecap="round" d="M 234.6247 261.9485 L 231.73 276.8019 L 220.2896 283.2655 "/>
    <path id="ID0.047098892275244" fill="none" stroke="#242728" stroke-width="1.65855231963734" stroke-linecap="round" d="M 217.0714 223.7546 L 216.2237 227.6025 L 219.8502 236.8481 "/>
  </g>
  <g id="ID0.9602425838820636">
    <g id="ID0.17693647183477879">
      <path id="ID0.7729651997797191" fill="#3E4246" stroke="none" stroke-linecap="round" d="M 196.8246 76.066 L 205.3713 94.4179 L 188.7246 99.2555 L 175.3385 103.2557 L 168.466 102.5674 L 163.7623 101.1688 L 160.7866 88.3884 L 165.3111 84.313 L 185.5249 79.6326 L 196.8246 76.066 Z " stroke-width="0.8164595651722333"/>
      <path id="ID0.9716172609478235" fill="#393C40" stroke="none" stroke-linecap="round" d="M 193.6745 82.5076 L 193.4235 77.0724 L 200.0612 75.613 L 200.0916 96.0703 L 195.9966 94.8527 L 191.7208 90.901 L 193.6745 82.5076 Z " stroke-width="0.8164595651722333"/>
      <g id="ID0.38066427363082767">
        <path id="ID0.4757494777441025" fill="#1D1E1F" stroke="none" stroke-linecap="round" d="M 223.2478 72.3783 L 229.2135 78.8941 L 232.5184 95.2441 L 206.2075 100.1535 L 196.8794 93.4282 L 193.7831 89.961 L 194.3459 86.0011 L 195.6021 82.0718 L 195.1837 75.8004 L 199.9419 73.088 L 207.3995 69.8612 L 216.257 68.719 L 223.2478 72.3783 Z " stroke-width="0.47614254863576805"/>
        <path id="ID0.6007084371522069" fill="none" stroke="#0D0D0D" stroke-width="0.9522850972715361" stroke-linecap="round" d="M 195.0965 76.3892 L 195.5454 81.9671 L 194.3415 87.4926 L 193.6785 90.0176 L 196.8794 93.4282 L 200.9656 96.2239 "/>
      </g>
    </g>
    <g id="ID0.7397577832452953">
      <path id="ID0.6726378230378032" fill="#393C40" stroke="none" stroke-linecap="round" d="M 168.2655 83.4405 L 168.0148 102.0074 L 165.6158 102.3782 L 166.2044 84.0925 L 168.2655 83.4405 Z " stroke-width="0.8164595651722333"/>
      <path id="ID0.6507829907350242" fill="#1D1E1F" stroke="none" stroke-linecap="round" d="M 165.6627 81.1049 L 165.729 102.657 L 148.8428 111.3384 L 138.5377 114.5984 L 124.3587 122.2778 L 118.907 125.9269 L 111.3769 116.3096 L 117.0231 113.0195 L 124.7633 106.7382 L 134.3507 98.2957 L 141.9115 92.1116 L 165.6627 81.1049 Z " stroke-width="0.8164595651722333"/>
      <path id="ID0.6829322893172503" fill="#1D1E1F" stroke="none" stroke-linecap="round" d="M 111.5414 115.7562 L 120.9861 122.4796 L 117.6954 127.9759 L 114.4346 134.3845 L 109.4091 137.1064 L 104.9894 138.8037 L 101.3251 138.467 L 94.7218 140.4185 L 92.6655 136.1932 L 93.8771 134.1443 L 93.2789 132.6112 L 94.0568 128.4758 L 95.0965 123.9665 L 98.073 120.0331 L 104.7437 117.3488 L 111.5414 115.7562 Z " stroke-width="0.8164595651722333"/>
      <path id="ID0.47767175547778606" fill="none" stroke="#0D0D0D" stroke-width="1.6329191303444666" stroke-linecap="round" d="M 162.1808 82.9907 L 165.9065 81.2978 L 165.6901 102.5852 L 153.2222 108.9665 "/>
      <path id="ID0.5922487881034613" fill="#282A2B" stroke="none" stroke-linecap="round" d="M 135.3025 96.3919 L 143.6195 99.919 L 146.464 105.3423 L 144.1782 113.637 L 130.3239 119.5157 L 121.4473 118.9843 L 119.7947 115.9332 L 123.3398 107.0492 L 135.3025 96.3919 Z " stroke-width="0.8164595651722333"/>
      <path id="ID0.36820242274552584" fill="#151616" stroke="none" stroke-linecap="round" d="M 135.857 103.2353 L 139.9726 110.6628 L 128.5667 113.7762 L 127.9192 112.4091 L 135.857 103.2353 Z " stroke-width="0.8164595651722333"/>
      <path id="ID0.13569410238415003" fill="none" stroke="#232425" stroke-width="1.6329191303444666" stroke-linecap="round" d="M 125.8057 107.8913 L 122.2098 116.3385 L 131.1596 117.4338 "/>
      <path id="ID0.024502143263816833" fill="none" stroke="#0D0D0D" stroke-width="1.6329191303444666" stroke-linecap="round" d="M 135.7238 96.7164 L 143.4038 99.7529 L 146.4965 104.9489 L 144.2496 113.3154 L 136.2837 116.6084 "/>
    </g>
  </g>
  <g id="ID0.9157347986474633">
    <path id="ID0.7477802094072104" fill="#363A3D" stroke="none" stroke-linecap="round" d="M 268.611 127.6223 L 249.8364 121.3673 L 243.0893 161.9972 L 258.0667 173.5343 L 264.3383 149.7186 L 268.611 127.6223 Z " stroke-width="0.4761425839687243"/>
    <path id="ID0.7477802094072104" fill="#363A3D" stroke="none" stroke-linecap="round" d="M 209.0461 117.7344 L 232.6473 118.7576 L 225.9002 159.3876 L 207.9979 165.4646 L 206.7107 139.7904 L 209.0461 117.7344 Z " stroke-width="0.4761425839687243"/>
    <path id="ID0.4270821204409003" fill="#3E4246" stroke="none" stroke-linecap="round" d="M 212.6623 97.9905 L 218.4675 86.2846 L 221.6541 80.9012 L 229.2631 75.0454 L 259.6777 81.5441 L 265.7865 86.9025 L 267.9418 91.3631 L 272.998 103.7866 L 270.5774 114.0032 L 268.741 119.2489 L 269.2539 126.3327 L 268.8266 131.8124 L 265.5819 138.2722 L 263.1269 143.1738 L 260.4316 152.1381 L 258.3232 173.9905 L 251.9048 181.2506 L 246.1663 186.5964 L 233.323 189.966 L 222.3808 185.084 L 219.6055 177.8176 L 215.7735 170.6653 L 207.8492 166.212 L 210.8755 141.0128 L 210.7932 134.2418 L 208.156 122.22 L 208.6388 111.3196 L 212.6623 97.9905 Z " stroke-width="0.4761425839687243"/>
    <path id="ID0.052435632329434156" fill="#393C40" stroke="none" stroke-linecap="round" d="M 216.4851 149.1931 L 220.8691 149.9694 L 226.8364 154.2907 L 231.8661 154.957 L 237.3745 157.6817 L 241.6835 157.3113 L 243.4055 157.1146 L 257.984 156.0845 L 257.7981 159.384 L 248.6608 162.0899 L 242.8401 160.8096 L 236.8218 162.8992 L 230.8231 158.3314 L 224.4118 157.7011 L 215.2893 152.3249 L 216.4851 149.1931 Z " stroke-width="0.4761425839687243"/>
    <path id="ID0.4987568911164999" fill="none" stroke="#27282B" stroke-width="0.9522851679374486" stroke-linecap="round" d="M 228.9489 75.6799 L 221.5938 80.7331 L 216.6678 90.051 "/>
    <path id="ID0.2889464790932834" fill="none" stroke="#27282B" stroke-width="0.9522851679374486" stroke-linecap="round" d="M 260.89 82.4321 L 265.9026 87.1258 L 270.0181 97.2211 "/>
    <path id="ID0.8373676878400147" fill="#000000" stroke="#2C2F31" stroke-width="0.6155104059455094" stroke-linecap="round" d="M 230.3949 89.1234 L 230.9853 87.6694 L 227.2458 87.9751 L 221.9119 90.4833 L 217.0169 94.7982 L 213.6838 99.959 L 219.1185 98.5665 L 223.772 99.2183 L 226.3344 100.5681 L 228.3569 103.9297 L 230.5991 103.2604 L 234.6013 103.6314 L 238.8876 105.388 L 242.1661 109.1456 L 243.7207 112.4965 L 246.3373 109.8621 L 250.4944 107.3647 L 254.7881 106.6163 L 259.8807 107.4301 L 261.5938 108.3047 L 263.7714 105.5084 L 265.9057 104.5836 L 268.389 105.5267 L 270.8974 107.5711 L 270.0914 103.5797 L 268.4686 99.3544 L 266.1438 95.9351 L 263.3727 93.2141 L 259.0576 91.6086 L 260.9037 93.8401 L 260.5725 95.5784 L 258.6577 97.4066 L 254.9362 98.029 L 251.7655 97.8165 L 249.167 97.478 L 247.2598 93.5117 L 246.493 95.4803 L 245.057 95.2067 L 243.9163 92.5614 L 242.2929 96.5598 L 238.244 96.0233 L 234.3211 94.4142 L 231.2405 92.4957 L 230.3949 89.1234 Z "/>
    <path id="ID0.5698574706912041" fill="none" stroke="#313537" stroke-width="0.9522851679374486" stroke-linecap="round" d="M 216.442 149.017 L 215.3283 152.09 L 224.3923 157.8185 L 231.1442 158.5777 L 236.6065 162.7428 "/>
    <path id="ID0.5698574706912041" fill="none" stroke="#313537" stroke-width="0.8933066562151265" stroke-linecap="round" d="M 257.7304 156.1221 L 257.7157 159.3776 L 248.5368 162.0766 L 242.7604 160.7554 L 237.0131 163.059 "/>
    <path id="ID0.8947288258932531" fill="#393C40" stroke="none" stroke-linecap="round" d="M 219.6915 137.4418 L 226.6392 138.4749 L 233.7721 141.59 L 238.4569 147.9669 L 232.1758 142.4833 L 221.8061 139.2409 L 216.2614 141.3851 L 219.6915 137.4418 Z " stroke-width="0.4761425839687243"/>
    <path id="ID0.8947288258932531" fill="#393C40" stroke="none" stroke-linecap="round" d="M 257.7617 144.7898 L 251.6476 143.6677 L 244.783 144.2363 L 239.0356 148.2368 L 245.8643 145.441 L 255.4762 145.6917 L 259.5064 149.0733 L 257.7617 144.7898 Z " stroke-width="0.42137391058675056"/>
    <path id="ID0.9897695370018482" fill="#393C40" stroke="none" stroke-linecap="round" d="M 221.0884 150.1023 L 214.7079 148.5601 L 215.8911 144.0506 L 216.4921 147.698 L 221.4946 148.6735 L 226.9805 153.1321 L 232.4407 153.6768 L 236.2462 155.7568 L 238.8954 148.2327 L 237.5234 157.9478 L 232.3319 155.0585 L 226.531 154.0952 L 221.0884 150.1023 Z " stroke-width="0.4761425839687243"/>
    <path id="ID0.9897695370018482" fill="#393C40" stroke="none" stroke-linecap="round" d="M 252.9162 155.6362 L 258.4506 156.1063 L 258.8004 151.7877 L 257.2741 154.8336 L 253.002 154.2589 L 247.3445 156.6187 L 242.8308 155.5325 L 239.197 156.2757 L 239.242 148.8765 L 237.549 157.8425 L 242.5211 156.7829 L 247.4269 157.5975 L 252.9162 155.6362 Z " stroke-width="0.4232251200282832"/>
    <path id="ID0.3524594851769507" fill="#393C40" stroke="none" stroke-linecap="round" d="M 237.0583 117.5765 L 242.5239 120.7043 L 247.2979 119.1321 L 243.5503 122.371 L 242.6645 133.5183 L 251.7529 134.1587 L 240.8812 135.9733 L 230.1416 129.4356 L 239.3687 133.0192 L 240.8181 121.8208 L 237.0583 117.5765 Z " stroke-width="0.4761425839687243"/>
    <path id="ID0.9214867809787393" fill="#393C40" stroke="none" stroke-linecap="round" d="M 220.3272 133.6136 L 223.9532 129.9442 L 228.8063 129.7848 L 222.2724 133.5264 L 221.5578 136.3761 L 226.5289 137.2499 L 234.0579 141.7581 L 225.5159 138.409 L 219.7385 137.4496 L 220.3272 133.6136 Z " stroke-width="0.4761425839687243"/>
    <path id="ID0.9214867809787393" fill="#393C40" stroke="none" stroke-linecap="round" d="M 258.0975 140.6749 L 256.0695 136.2617 L 251.9196 134.6513 L 256.4412 140.0084 L 256.1984 142.8008 L 251.6342 142.089 L 244.6133 143.8019 L 252.1603 143.443 L 257.4478 144.3211 L 258.0975 140.6749 Z " stroke-width="0.4451788576535537"/>
    <path id="ID0.8679121839813888" fill="#2C2F31" stroke="none" stroke-linecap="round" d="M 239.1665 116.8081 L 242.659 119.0291 L 246.2161 117.9547 L 246.9995 119.0501 L 242.6876 121.0369 L 237.3707 117.8855 L 239.1665 116.8081 Z " stroke-width="0.4761425839687243"/>
    <path id="ID0.24770551454275846" fill="none" stroke="#313537" stroke-width="0.9522851679374486" stroke-linecap="round" d="M 243.4321 115.6161 L 247.4267 119.8994 L 254.7467 121.5977 L 262.4375 121.7888 L 268.2284 118.8892 "/>
    <path id="ID0.20603158557787538" fill="none" stroke="#313537" stroke-width="0.9522851679374486" stroke-linecap="round" d="M 211.2175 106.1598 L 217.2682 112.5946 L 228.9541 117.7931 L 236.2147 118.3955 L 242.9644 115.5344 "/>
    <g id="ID0.5272086253389716">
      <path id="ID0.24770551454275846" fill="none" stroke="#363A3D" stroke-width="0.9522851066969494" stroke-linecap="round" d="M 209.2397 138.7403 L 219.5284 137.2391 "/>
      <path id="ID0.24770551454275846" fill="none" stroke="#363A3D" stroke-width="0.9522851066969494" stroke-linecap="round" d="M 208.6599 126.6226 L 229.8284 123.8391 "/>
    </g>
    <g id="ID0.5272086253389716">
      <path id="ID0.24770551454275846" fill="none" stroke="#363A3D" stroke-width="0.9522850816809121" stroke-linecap="round" d="M 264.1664 146.9277 L 257.6218 143.9835 "/>
      <path id="ID0.24770551454275846" fill="none" stroke="#363A3D" stroke-width="0.9522850816809121" stroke-linecap="round" d="M 266.5149 135.7468 L 253.6074 128.7772 "/>
    </g>
    <g id="ID0.7887678607366979">
      <path id="ID0.753661650698632" fill="none" stroke="#313537" stroke-width="0.9522851066969494" stroke-linecap="round" d="M 237.5085 117.7719 L 242.2853 120.9784 L 246.7068 119.058 "/>
      <g id="ID0.8167418288066983">
        <path id="ID0.9553722990676761" fill="none" stroke="#313537" stroke-width="1.0409107773624173" stroke-linecap="round" d="M 240.4508 135.721 L 235.2648 132.6878 L 229.4861 129.7976 L 224.6237 129.9554 L 220.4611 133.6082 L 219.8956 137.0136 "/>
        <path id="ID0.5982440118677914" fill="none" stroke="#313537" stroke-width="0.8540413552749858" stroke-linecap="round" d="M 229.8712 129.4374 L 229.5641 124.0207 L 235.8871 117.9163 "/>
      </g>
      <g id="ID0.7324484633281827">
        <path id="ID0.04993448918685317" fill="none" stroke="#313537" stroke-width="0.9522851066969494" stroke-linecap="round" d="M 242.3048 120.861 L 241.2933 131.3116 L 239.072 147.5946 L 236.6353 163.7212 "/>
        <g id="ID0.8167418288066983">
          <path id="ID0.9553722990676761" fill="none" stroke="#313537" stroke-width="0.9699703335790443" stroke-linecap="round" d="M 240.7793 135.6442 L 245.969 135.1305 L 251.638 134.1412 L 255.6215 135.768 L 257.9633 140.5009 L 257.3978 143.9063 "/>
          <path id="ID0.5982440118677914" fill="none" stroke="#313537" stroke-width="0.7916616451019644" stroke-linecap="round" d="M 251.4554 133.7953 L 253.3554 128.7451 L 249.9671 121.028 "/>
          <path id="ID0.3567589442245662" fill="none" stroke="#313537" stroke-width="0.8967655480907116" stroke-linecap="round" d="M 238.8348 148.213 L 244.7108 144.1449 L 252.2525 143.4667 L 257.7058 144.3723 L 259.1556 149.319 L 258.2943 156.2952 L 252.7033 156.0908 L 246.619 158.2177 L 241.8038 157.1767 L 237.3515 158.2957 L 231.9979 154.8726 L 226.4436 154.1916 L 220.6091 150.0854 L 214.5085 148.3484 L 215.9895 141.475 L 219.2701 137.3138 L 225.467 138.3429 L 233.3763 141.587 L 238.3037 147.4491 Z "/>
        </g>
      </g>
    </g>
    <g id="ID0.9312638868577778">
      <path id="ID0.2888958193361759" fill="#393C40" stroke="none" stroke-linecap="round" d="M 217.6431 157.6172 L 227.3807 161.3471 L 226.3162 164.1261 L 216.5786 160.3962 L 217.6431 157.6172 Z " stroke-width="0.4761425490144655"/>
      <path id="ID0.2888958193361759" fill="#393C40" stroke="none" stroke-linecap="round" d="M 207.3629 153.8377 L 218.2807 158.1471 L 217.2162 160.9261 L 207.4786 157.1962 L 207.3629 153.8377 Z " stroke-width="0.4761425490144655"/>
      <g id="ID0.36424446757882833">
        <path id="ID0.7359844641759992" fill="#8A7B59" stroke="none" d="M 220.5751 157.3518 L 222.0781 157.6015 L 221.0563 163.7547 L 219.5533 163.5051 L 220.5751 157.3518 Z " stroke-width="0.4761425533484747"/>
        <path id="ID0.7359844641759992" fill="#8A7B59" stroke="none" d="M 218.7751 156.6518 L 220.2781 156.9015 L 219.2563 163.0547 L 217.7533 162.8051 L 218.7751 156.6518 Z " stroke-width="0.4761425533484747"/>
        <path id="ID0.7359844641759992" fill="#8A7B59" stroke="none" d="M 216.9751 155.6518 L 218.4781 155.9015 L 217.4563 162.0547 L 215.9533 161.8051 L 216.9751 155.6518 Z " stroke-width="0.4761425533484747"/>
        <path id="ID0.7359844641759992" fill="#8A7B59" stroke="none" d="M 222.3751 158.1518 L 223.8781 158.4015 L 222.8563 164.5547 L 221.3533 164.3051 L 222.3751 158.1518 Z " stroke-width="0.4761425533484747"/>
      </g>
      <g id="ID0.1049797898158431">
        <path id="ID0.08871637750416994" fill="#8A7B59" stroke="none" stroke-linecap="round" d="M 209.186 153.4027 L 215.332 155.4852 L 214.3685 160.9964 L 208.4613 158.9295 L 209.186 153.4027 Z " stroke-width="0.4761425533484747"/>
        <path id="ID0.13805592898279428" fill="#76694C" stroke="none" stroke-linecap="round" d="M 209.0285 153.1035 L 215.4798 155.2367 L 215.1018 158.094 L 208.6426 155.863 L 209.0285 153.1035 Z " stroke-width="0.4761425533484747"/>
        <path id="ID0.3221200187690556" fill="#61563F" stroke="none" stroke-linecap="round" d="M 211.4699 155.7587 L 212.2773 156.2595 L 212.066 158.0055 L 211.1778 157.5175 L 211.4699 155.7587 Z " stroke-width="0.5167888696955751"/>
        <path id="ID0.1420820001512766" fill="#BAA578" stroke="none" stroke-linecap="round" d="M 213.8427 159.9586 L 214.7813 158.6665 L 214.4499 160.9524 L 208.437 158.9403 L 213.8427 159.9586 Z " stroke-width="0.4761425533484747"/>
      </g>
      <path id="ID0.2888958193361759" fill="#393C40" stroke="none" stroke-linecap="round" d="M 254.7114 164.1116 L 247.0912 164.6841 L 247.102 167.2571 L 254.7222 166.6846 L 254.7114 164.1116 Z " stroke-width="0.38104699061083686"/>
      <path id="ID0.2888958193361759" fill="#393C40" stroke="none" stroke-linecap="round" d="M 261.4603 163.4152 L 254.2412 164.1841 L 254.252 166.7571 L 260.5671 166.2209 L 261.4603 163.4152 Z " stroke-width="0.38104699061083686"/>
      <path id="ID0.7359844641759992" fill="#8A7B59" stroke="none" d="M 252.8604 162.7896 L 251.7683 162.6083 L 250.8795 167.9609 L 251.9716 168.1423 L 252.8604 162.7896 Z " stroke-width="0.38160280584417416"/>
      <path id="ID0.7359844641759992" fill="#8A7B59" stroke="none" d="M 254.3104 162.5396 L 253.2183 162.3583 L 252.3295 167.7109 L 253.4216 167.8923 L 254.3104 162.5396 Z " stroke-width="0.38160280584417416"/>
      <path id="ID0.7359844641759992" fill="#8A7B59" stroke="none" d="M 255.8604 162.2896 L 254.7683 162.1083 L 253.8795 167.4609 L 254.9716 167.6423 L 255.8604 162.2896 Z " stroke-width="0.38160280584417416"/>
      <path id="ID0.7359844641759992" fill="#8A7B59" stroke="none" d="M 251.3604 163.0896 L 250.2683 162.9083 L 249.3795 168.2609 L 250.4716 168.4423 L 251.3604 163.0896 Z " stroke-width="0.38160280584417416"/>
      <g id="ID0.1049797898158431">
        <path id="ID0.08871637750416994" fill="#8A7B59" stroke="none" stroke-linecap="round" d="M 261.838 162.4328 L 256.8023 162.578 L 255.9915 167.6851 L 260.8495 167.4881 L 261.838 162.4328 Z " stroke-width="0.4054529774502679"/>
        <path id="ID0.13805592898279428" fill="#76694C" stroke="none" stroke-linecap="round" d="M 262.0889 162.2473 L 256.8176 162.3534 L 256.3089 164.9679 L 261.6128 164.778 L 262.0889 162.2473 Z " stroke-width="0.4054529774502679"/>
        <path id="ID0.3221200187690556" fill="#61563F" stroke="none" stroke-linecap="round" d="M 259.7157 163.9082 L 258.9919 164.1269 L 258.6668 165.7192 L 259.4458 165.5338 L 259.7157 163.9082 Z " stroke-width="0.4400648170555984"/>
        <path id="ID0.1420820001512766" fill="#BAA578" stroke="none" stroke-linecap="round" d="M 256.6987 166.9455 L 256.3711 165.5528 L 255.9852 167.6524 L 260.9049 167.5325 L 256.6987 166.9455 Z " stroke-width="0.4054529774502679"/>
      </g>
      <g id="ID0.6836685389280319">
        <path id="ID0.09357938077300787" fill="#857656" stroke="none" d="M 228.3453 158.5553 L 246.0769 161.4998 L 245.0239 167.8409 L 227.2923 164.8964 L 228.3453 158.5553 Z " stroke-width="0.4283320793639229"/>
        <path id="ID0.6492703901603818" fill="#7C6E50" stroke="none" stroke-linecap="round" d="M 228.6915 160.8492 L 236.287 165.2478 L 245.5072 163.6416 L 244.809 167.8456 L 227.9934 165.0531 L 228.6915 160.8492 Z " stroke-width="0.4761425533484747"/>
        <g id="ID0.9254062357358634">
          <g id="ID0.49943465692922473">
            <path id="ID0.140373723115772" fill="#968561" stroke="none" d="M 244.789 160.1244 L 249.8384 160.9629 L 248.3564 169.8874 L 243.307 169.0489 L 244.789 160.1244 Z " stroke-width="0.4761425533484747"/>
            <path id="ID0.8286363878287375" fill="#BAA578" stroke="none" stroke-linecap="round" d="M 244.7935 159.9356 L 249.9213 161.0285 L 245.7101 161.1014 L 244.3492 163.0474 L 244.7935 159.9356 Z " stroke-width="0.4761425533484747"/>
            <path id="ID0.7362233307212591" fill="#8A7B59" stroke="none" stroke-linecap="round" d="M 243.8186 165.9518 L 246.4881 166.4434 L 249.305 164.4496 L 248.3885 169.9686 L 243.2921 169.1223 L 243.8186 165.9518 Z " stroke-width="0.4761425533484747"/>
          </g>
          <g id="ID0.49943465692922473">
            <path id="ID0.140373723115772" fill="#968561" stroke="none" d="M 229.8756 157.889 L 224.8262 157.0505 L 223.3442 165.975 L 228.3936 166.8135 L 229.8756 157.889 Z " stroke-width="0.4761425533484747"/>
            <path id="ID0.8286363878287375" fill="#BAA578" stroke="none" stroke-linecap="round" d="M 229.9665 157.7066 L 224.7607 157.0834 L 228.7223 158.5136 L 229.3812 160.795 L 229.9665 157.7066 Z " stroke-width="0.4761425533484747"/>
            <path id="ID0.7362233307212591" fill="#8A7B59" stroke="none" stroke-linecap="round" d="M 228.9446 163.715 L 226.2594 163.3174 L 224.2382 160.5201 L 223.3217 166.0392 L 228.4181 166.8855 L 228.9446 163.715 Z " stroke-width="0.4761425533484747"/>
          </g>
        </g>
      </g>
    </g>
  </g>
  <g id="ID0.8333355090580881">
    <path id="ID0.9286923445761204" fill="#27282B" stroke="none" stroke-linecap="round" d="M 240.2494 42.4176 L 258.6514 46.5735 L 255.6325 70.7451 L 269.6883 79.997 L 245.442 87.9606 L 210.9554 70.2899 L 232.1473 62.6537 L 240.2494 42.4176 Z " stroke-width="0.47614259146178506"/>
    <path id="ID0.5448851804248989" fill="none" stroke="#1D1E1F" stroke-width="0.9522851829235701" stroke-linecap="round" d="M 234.3866 57.1566 L 232.3631 62.4925 L 248.1544 72.7173 L 255.3361 70.7984 "/>
    <path id="ID0.262191956397146" fill="none" stroke="#1D1E1F" stroke-width="0.9522851829235701" stroke-linecap="round" d="M 236.4101 62.4531 L 248.1049 70.4009 L 251.234 69.7233 "/>
  </g>
  <g id="ID0.3450673264451325">
    <g id="ID0.9831569031812251">
      <path id="ID0.0877610077150166" fill="#2E3034" stroke="none" stroke-linecap="round" d="M 274.5088 20.4009 L 273.9304 6.5223 L 265.6697 33.8287 L 273.0124 36.05 L 274.5088 20.4009 Z " stroke-width="0.5866066459857178"/>
      <path id="ID0.796130308881402" fill="#242628" stroke="none" stroke-linecap="round" d="M 274.7721 20.5548 L 273.8533 6.5732 L 273.2503 20.8481 L 269.8391 35.3698 L 272.9638 36.0068 L 274.7721 20.5548 Z " stroke-width="0.5866066459857178"/>
    </g>
    <g id="ID0.9831569031812251">
      <path id="ID0.0877610077150166" fill="#2E3034" stroke="none" stroke-linecap="round" d="M 251.5836 13.715 L 259.7581 2.4843 L 251.4974 29.7908 L 244.1547 27.5694 L 251.5836 13.715 Z " stroke-width="0.5866066459857178"/>
      <path id="ID0.796130308881402" fill="#242628" stroke="none" stroke-linecap="round" d="M 251.1907 13.6006 L 259.7056 2.4729 L 252.2948 14.6883 L 247.0335 28.3078 L 244.1307 27.4639 L 251.1907 13.6006 Z " stroke-width="0.5866066459857178"/>
    </g>
    <path id="ID0.8999492498114705" fill="#2E3034" stroke="none" stroke-linecap="round" d="M 266.6604 24.3495 C 270.7372 26.0833 274.4815 30.0477 275.3981 34.3817 C 276.4432 39.3294 272.9577 44.1241 271.7981 48.9924 C 271.4707 50.6731 271.7217 52.5802 270.9349 54.0391 C 269.3334 57.0062 266.8541 59.4207 264.8943 62.1637 C 263.61 63.9615 262.7803 66.1706 261.1104 67.6537 C 259.1986 69.4288 257.0059 72.0398 254.3857 71.7233 C 250.5013 71.2536 247.1326 68.3109 244.339 65.632 C 242.0443 63.4309 240.1449 60.5454 239.4408 57.4359 C 238.2317 51.695 237.4193 45.5358 238.754 39.7922 C 240.2338 33.4252 241.8322 25.4816 247.748 22.3435 C 253.1331 19.228 260.5992 21.7749 266.6604 24.3495 Z " stroke-width="0.5080372780427557"/>
    <path id="ID0.2441388238221407" fill="#AB8E85" stroke="none" d="M 257.3246 47.4675 C 261.1816 48.8088 267.304 47.3546 269.1172 50.7726 C 270.717 53.9633 266.0855 57.6411 264.1505 60.6849 C 262.2245 63.7117 260.4832 67.0909 257.515 69.1739 C 256.126 70.0789 253.9753 69.503 252.3978 68.7411 C 249.562 67.3676 247.0031 65.2525 245.0382 62.7872 C 243.0046 60.2367 240.1965 57.2669 240.5834 54.0146 C 241.074 49.8949 243.272 44.9233 247.0794 43.3841 C 250.5387 42.0807 253.8558 46.2607 257.3246 47.4675 Z " stroke-width="1.255840048995254"/>
    <path id="ID0.46721756737679243" fill="#A2887F" stroke="none" stroke-linecap="round" d="M 242.9656 44.3199 L 244.3717 45.4618 L 269.3792 52.6289 L 261.003 55.4028 L 245.6938 48.1972 L 246.0722 50.8063 L 244.6898 56.2532 L 246.0851 64.1857 L 243.6431 56.4673 L 242.9656 44.3199 Z " stroke-width="0.5080372780427557"/>
    <path id="ID0.8256730306893587" fill="none" stroke="#937B73" stroke-width="1.0160745560855113" stroke-linecap="round" d="M 249.9986 58.752 C 249.9986 58.752 252.7548 58.9627 254.1168 59.1751 C 254.4574 59.2282 254.7587 59.4006 255.0673 59.5423 C 255.3808 59.6865 255.6474 59.9423 255.981 60.031 C 256.6421 60.2071 257.3396 60.2122 258.0143 60.3276 C 258.3489 60.3848 258.6853 60.4468 259.0089 60.5489 C 259.3331 60.6512 259.6574 60.7706 259.952 60.9404 C 260.4366 61.2196 261.3367 61.89 261.3367 61.89 "/>
    <path id="ID0.7592270169407129" fill="none" stroke="#937B73" stroke-width="1.0160745560855113" stroke-linecap="round" d="M 257.8457 62.4931 C 257.8457 62.4931 257.1506 62.6432 256.8041 62.6026 C 256.4677 62.5635 256.1785 62.3248 255.8462 62.2598 C 255.5119 62.1947 255.1602 62.2731 254.8244 62.2161 C 254.4906 62.1597 254.1457 62.0893 253.8519 61.9219 C 253.602 61.7794 253.2402 61.3122 253.2402 61.3122 "/>
    <path id="ID0.5332203092984855" fill="none" stroke="#937B73" stroke-width="1.0160745560855113" stroke-linecap="round" d="M 254.8899 51.7488 C 254.8899 51.7488 254.1852 51.9868 253.9885 52.2722 C 253.729 52.6561 253.2408 53.391 253.5737 53.8187 C 254.0455 54.2645 254.982 53.7883 255.6291 54.0424 C 256.2545 54.2911 257.3785 55.1024 257.3785 55.1024 "/>
    <path id="ID0.2278452254831791" fill="none" stroke="#937B73" stroke-width="1.0160745560855113" stroke-linecap="round" d="M 260.1067 49.5054 C 260.1067 49.5054 260.4617 51.5586 260.6349 52.5844 C 260.6929 52.9279 260.7677 53.27 260.8004 53.6164 C 260.833 53.9628 260.9433 54.3316 260.8296 54.6603 C 260.7155 54.9899 260.4248 55.2385 260.1611 55.4665 C 259.9848 55.6191 259.535 55.7814 259.535 55.7814 "/>
    <path id="ID0.6473136460408568" fill="none" stroke="#937B73" stroke-width="1.0160745428296027" stroke-linecap="round" d="M 255.5132 65.7843 C 255.5132 65.7843 255.6326 66.4837 255.5815 66.8282 C 255.5313 67.1636 255.3733 67.4789 255.216 67.7793 C 254.9793 68.2322 254.4036 69.0811 254.4036 69.0811 "/>
    <path id="ID0.11669129692018032" fill="#2E3034" stroke="none" stroke-linecap="round" d="M 246.358 39.773 L 268.0901 48.2051 L 271.0865 51.8981 L 260.7297 53.6747 L 241.6496 45.2487 L 246.358 39.773 Z " stroke-width="0.5080372780427557"/>
    <path id="ID0.14635155349969864" fill="#2E3034" stroke="none" stroke-linecap="round" d="M 242.2825 44.0336 L 243.9471 44.9353 L 244.9679 50.6845 L 243.59 56.292 L 244.2373 60.4686 L 245.9866 64.6867 L 239.6169 57.3193 L 242.2825 44.0336 Z " stroke-width="0.5080372780427557"/>
    <path id="ID0.28340246016159654" fill="#1C1D1F" stroke="none" stroke-linecap="round" d="M 247.3933 36.7684 L 250.2303 39.2349 L 259.2259 42.8873 L 257.5603 48.3929 L 251.191 45.4786 L 247.8075 43.3265 L 246.3068 41.2925 L 245.9801 39.388 L 247.3933 36.7684 Z " stroke-width="0.5401026391431615"/>
    <path id="ID0.6101007834076881" fill="#FFFFFF" stroke="none" stroke-linecap="round" d="M 250.3238 40.3354 L 251.79 41.1967 L 255.0602 43.4409 L 255.0116 45.4826 L 250.4027 42.5704 L 250.3238 40.3354 Z " stroke-width="0.40610618689530803"/>
    <path id="ID0.28340246016159654" fill="#1C1D1F" stroke="none" stroke-linecap="round" d="M 271.926 44.2204 L 268.6012 44.6486 L 260.1193 42.913 L 258.6341 47.8225 L 264.8019 48.8078 L 268.3769 48.883 L 270.4961 48.1152 L 271.68 46.8631 L 271.926 44.2204 Z " stroke-width="0.48162497689092604"/>
    <path id="ID0.6101007834076881" fill="#FFFFFF" stroke="none" stroke-linecap="round" d="M 269.6971 45.6762 L 268.0794 45.7002 L 264.3195 46.0212 L 263.4008 47.7334 L 268.5821 47.4884 L 269.6971 45.6762 Z " stroke-width="0.38638675181693294"/>
    <g id="ID0.07940126257017255">
      <path id="ID0.46257128613069654" fill="#27282B" stroke="none" stroke-linecap="round" d="M 259.4833 42.8089 L 260.7576 53.5976 L 251.5215 49.4766 L 259.4833 42.8089 Z " stroke-width="0.5080372780427557"/>
      <path id="ID0.9845890481956303" fill="#27282B" stroke="none" stroke-linecap="round" d="M 260.2187 43.1699 L 266.0119 52.6187 L 260.8026 53.6967 L 260.2187 43.1699 Z " stroke-width="0.5080372780427557"/>
    </g>
    <path id="ID0.20071752788498998" fill="#202324" stroke="none" d="M 252.7271 36.0112 L 255.9474 39.6658 L 260.1557 42.1597 L 259.8241 43.519 L 252.7519 40.0526 L 247.7878 36.1093 L 249.956 34.9075 L 252.7271 36.0112 Z " stroke-width="0.5080372780427557"/>
    <path id="ID0.20071752788498998" fill="#202324" stroke="none" d="M 269.0984 40.6485 L 265.4677 42.1066 L 259.9966 42.0828 L 259.5585 43.2894 L 266.7217 44.2391 L 272.5062 43.8707 L 271.6818 41.2839 L 269.0984 40.6485 Z " stroke-width="0.46609798174230205"/>
    <path id="ID0.521138689480722" fill="none" stroke="#212325" stroke-width="0.9060627362210283" stroke-linecap="round" d="M 272.068 43.9674 L 268.5085 44.5471 L 259.974 43.2669 "/>
    <path id="ID0.17828734638169408" fill="none" stroke="#202324" stroke-width="1.0160745560855113" stroke-linecap="round" d="M 260.7942 53.1103 L 260.0944 45.3351 C 259.837 42.7296 259.8144 43.3167 259.914 42.3347 C 259.9488 41.9917 260.2548 41.7329 260.4027 41.421 C 260.5483 41.1136 260.7079 40.8069 260.7942 40.4779 C 260.8815 40.1455 260.8839 39.7954 260.9182 39.4538 C 260.9718 38.9207 261.0582 37.8508 261.0582 37.8508 "/>
    <path id="ID0.521138689480722" fill="none" stroke="#212325" stroke-width="1.0160745560855113" stroke-linecap="round" d="M 247.8227 36.3899 L 250.7847 39.1436 L 259.5464 43.2538 "/>
    <path id="ID0.8012696979567409" fill="none" stroke="url(#grad_1)" stroke-width="1.0160745560855113" stroke-linecap="round" d="M 269.5116 52.1913 L 261.2307 53.7731 L 244.1097 46.1522 L 244.8882 50.4216 L 243.4147 56.3451 L 244.2181 60.3566 L 245.938 64.672 "/>
    <path id="ID0.043594349175691605" fill="#D7E2FD" stroke="none" stroke-linecap="round" d="M 254.5179 44.352 L 255.0604 43.3483 L 254.9509 45.4649 L 252.6842 44.0095 L 254.5179 44.352 Z " stroke-width="0.5080372780427557"/>
    <path id="ID0.043594349175691605" fill="#D7E2FD" stroke="none" stroke-linecap="round" d="M 264.3272 47.1223 L 264.3637 46.0858 L 263.4756 47.7956 L 265.9225 47.6977 L 264.3272 47.1223 Z " stroke-width="0.46186426411256865"/>
  </g>
</svg>