<svg xmlns="http://www.w3.org/2000/svg" xmlns:xlink="http://www.w3.org/1999/xlink" version="1.1" width="433.74182879924774" height="190.690620303154" viewBox="1.104091227054596 6.9539914727211 433.74182879924774 190.690620303154">
  <!-- Exported by Scratch - http://scratch.mit.edu/ -->
  <g id="ID0.5878884796984494">
    <g id="ID0.7171066431328654">
      <g id="ID0.10407323855906725">
        <path id="ID0.03453554445877671" d="M 57.1732 186.0054 C 55.774 186.2053 55.5741 186.4052 55.5741 187.8044 L 55.5741 189.8032 C 55.5741 190.6027 55.5741 191.4022 55.774 192.0019 C 54.3748 192.4016 52.376 192.8014 50.3772 192.8014 C 44.9804 192.8014 41.5824 189.4034 41.5824 184.6063 C 41.5824 179.6092 45.7799 176.611 50.5771 176.611 C 52.9757 176.611 54.7746 177.0107 55.5741 177.2106 C 55.5741 178.0102 55.774 179.6092 55.9739 181.0084 L 55.1744 181.2083 C 54.5747 179.2094 53.9751 178.21 52.376 177.8103 C 51.7764 177.6104 50.777 177.4105 50.1773 177.4105 C 46.5795 177.4105 44.1809 180.009 44.1809 184.4064 C 44.1809 188.2041 46.1797 192.0019 50.777 192.0019 C 51.5765 192.0019 52.376 191.802 52.7758 191.6021 C 53.3754 191.4022 53.5753 191.0025 53.5753 190.0031 L 53.5753 188.0042 C 53.5753 186.2053 53.3754 186.0054 51.1767 185.8055 L 51.1767 185.2059 L 57.3731 185.2059 L 57.3731 186.0054 Z " stroke-width="1.9988173246383667" fill="undefined"/>
        <path id="ID0.6780291399918497" d="M 75.7622 176.611 C 79.9597 176.611 83.5576 179.8091 83.5576 184.6063 C 83.5576 189.8032 79.9597 193.0013 75.5623 193.0013 C 70.965 193.0013 67.567 189.4034 67.567 185.006 C 67.567 180.6086 70.5653 176.611 75.7622 176.611 Z M 75.1625 177.4105 C 72.5641 177.4105 69.9656 179.6092 69.9656 184.2065 C 69.9656 188.6039 72.3642 192.0019 75.7622 192.0019 C 78.7604 192.0019 80.7592 189.8032 80.7592 185.2059 C 80.9591 180.2089 78.3607 177.4105 75.1625 177.4105 Z " stroke-width="1.9988173246383667" fill="undefined"/>
        <path id="ID0.27237664395943284" d="M 106.7439 180.6086 C 106.544 179.8091 106.1442 179.0096 105.9443 178.6098 C 105.5446 178.0102 105.3447 177.8103 103.9455 177.8103 L 101.5469 177.8103 L 101.5469 189.4034 C 101.5469 191.2023 101.7468 191.6021 103.9455 191.6021 L 103.9455 192.2018 L 96.9497 192.2018 L 96.9497 191.6021 C 99.1484 191.4022 99.3482 191.2023 99.3482 189.4034 L 99.3482 177.8103 L 97.1495 177.8103 C 95.7504 177.8103 95.3506 178.0102 94.9508 178.6098 C 94.751 179.0096 94.5511 179.6092 94.1513 180.6086 L 93.3518 180.6086 C 93.5517 179.2094 93.5517 177.6104 93.7515 176.2112 L 94.3512 176.2112 C 94.751 176.8109 94.9508 176.8109 95.5505 176.8109 L 104.9449 176.8109 C 105.5446 176.8109 105.7445 176.8109 106.1442 176.2112 L 106.7439 176.2112 C 106.7439 177.4105 106.7439 179.0096 106.9437 180.4087 L 106.7439 180.6086 Z " stroke-width="1.9988173246383667" fill="undefined"/>
        <path id="ID0.5223182160407305" d="M 134.3275 177.6104 C 132.3287 177.8103 132.1288 178.0102 132.1288 180.009 L 132.1288 189.6033 C 132.1288 191.6021 132.3287 191.6021 134.3275 192.0019 L 134.3275 192.6015 L 127.9313 192.6015 L 127.9313 192.0019 C 129.9301 191.802 130.13 191.802 130.13 189.6033 L 130.13 184.8061 L 121.9349 184.8061 L 121.9349 189.6033 C 121.9349 191.6021 122.1348 191.6021 124.1336 192.0019 L 124.1336 192.6015 L 117.7374 192.6015 L 117.7374 192.0019 C 119.7362 191.802 119.9361 191.802 119.9361 189.6033 L 119.9361 180.009 C 119.9361 178.0102 119.7362 177.8103 117.7374 177.6104 L 117.7374 177.0107 L 124.1336 177.0107 L 124.1336 177.6104 C 122.1348 177.8103 121.9349 178.0102 121.9349 180.009 L 121.9349 183.8067 L 130.13 183.8067 L 130.13 180.009 C 130.13 178.0102 129.9301 177.8103 127.9313 177.6104 L 127.9313 177.0107 L 134.3275 177.0107 L 134.3275 177.6104 Z " stroke-width="1.9988173246383667" fill="undefined"/>
        <path id="ID0.11777243064716458" d="M 152.9165 192.4016 L 152.9165 191.802 C 154.5156 191.6021 154.7155 191.4022 154.3157 190.4028 C 153.9159 189.4034 153.5162 188.2041 153.1164 186.8049 L 147.9195 186.8049 C 147.5197 187.8044 147.12 188.8038 146.9201 189.8032 C 146.3204 191.4022 146.7202 191.6021 148.719 191.802 L 148.719 192.4016 L 143.1223 192.4016 L 143.1223 191.802 C 144.7214 191.6021 144.9213 191.4022 145.9207 189.2035 L 150.9177 176.611 L 151.7172 176.4111 C 153.3163 180.6086 154.9154 185.006 156.3145 189.2035 C 157.1141 191.2023 157.3139 191.4022 158.913 191.6021 L 158.913 192.2018 L 152.9165 192.2018 Z M 150.518 179.6092 C 149.7184 181.608 148.9189 183.8067 148.1194 185.8055 L 152.5168 185.8055 L 150.518 179.6092 Z " stroke-width="1.9988173246383667" fill="undefined"/>
        <path id="ID0.26843242160975933" d="M 181.2997 192.4016 L 181.2997 191.802 C 183.2986 191.6021 183.2986 191.4022 183.2986 188.8038 L 183.2986 179.0096 C 181.2997 183.407 178.1016 190.2029 177.3021 192.4016 L 176.7025 192.4016 C 175.9029 190.2029 173.1046 183.6068 171.3057 179.2094 C 170.9059 187.6045 170.9059 189.4034 170.9059 190.0031 C 170.9059 191.4022 171.5055 191.6021 173.1046 191.802 L 173.1046 192.4016 L 167.5079 192.4016 L 167.5079 191.802 C 168.9071 191.6021 169.5067 191.4022 169.7066 190.0031 C 169.9065 189.0036 169.9065 188.0042 170.5061 179.4093 C 170.5061 178.21 170.3063 177.8103 168.3074 177.6104 L 168.3074 177.0107 L 172.5049 177.0107 L 177.9018 189.2035 L 183.4984 177.0107 L 187.696 177.0107 L 187.696 177.6104 C 185.6971 177.8103 185.2974 178.0102 185.4973 179.8091 L 185.4973 189.0036 C 185.4973 191.6021 185.6971 191.6021 187.696 192.0019 L 187.696 192.6015 L 181.2997 192.6015 Z " stroke-width="1.9988173246383667" fill="undefined"/>
        <path id="ID0.6725782961584628" d="M 253.2572 192.4016 L 253.2572 191.802 C 255.256 191.6021 255.256 191.4022 255.256 188.8038 L 255.256 179.0096 C 253.2572 183.407 250.0591 190.2029 249.2595 192.4016 L 248.6599 192.4016 C 247.8604 190.2029 245.062 183.6068 243.2631 179.2094 C 242.8633 187.6045 242.8633 189.4034 242.8633 190.0031 C 242.8633 191.4022 243.463 191.6021 245.062 191.802 L 245.062 192.4016 L 239.4653 192.4016 L 239.4653 191.802 C 240.8645 191.6021 241.4641 191.4022 241.664 190.0031 C 241.8639 189.0036 241.8639 188.0042 242.4636 179.4093 C 242.4636 178.21 242.2637 177.8103 240.2649 177.6104 L 240.2649 177.0107 L 244.4624 177.0107 L 249.8592 189.2035 L 255.4559 177.0107 L 259.6534 177.0107 L 259.6534 177.6104 C 257.6546 177.8103 257.2548 178.0102 257.4547 179.8091 L 257.4547 189.0036 C 257.4547 191.6021 257.6546 191.6021 259.6534 192.0019 L 259.6534 192.6015 L 253.2572 192.6015 Z " stroke-width="1.9988173246383667" fill="undefined"/>
        <path id="ID0.6685515288263559" d="M 282.4399 188.6039 C 282.24 189.2035 281.6404 191.6021 281.4405 192.4016 L 269.8474 192.4016 L 269.8474 191.802 C 272.0461 191.6021 272.2459 191.4022 272.2459 189.4034 L 272.2459 180.009 C 272.2459 177.8103 272.0461 177.8103 270.2471 177.6104 L 270.2471 177.0107 L 277.6427 177.0107 C 279.8414 177.0107 280.8408 177.0107 281.0407 177.0107 C 281.0407 177.6104 281.2406 179.4093 281.2406 180.6086 L 280.4411 180.8085 C 280.2412 180.009 280.0413 179.4093 279.6416 179.0096 C 279.2418 178.21 278.6421 178.0102 277.243 178.0102 L 275.0443 178.0102 C 274.2448 178.0102 274.2448 178.0102 274.2448 178.8097 L 274.2448 184.2065 L 276.8432 184.2065 C 278.6421 184.2065 278.842 183.8067 279.0419 182.2077 L 279.8414 182.2077 L 279.8414 187.2047 L 279.0419 187.2047 C 278.6421 185.4058 278.4423 185.2059 276.8432 185.2059 L 274.2448 185.2059 L 274.2448 190.0031 C 274.2448 191.6021 274.8444 191.802 276.0437 191.802 L 278.2424 191.802 C 279.6416 191.802 280.0413 191.6021 280.4411 191.0025 C 280.8408 190.4028 281.4405 189.6033 281.6404 188.8038 L 282.4399 188.6039 Z " stroke-width="1.9988173246383667" fill="undefined"/>
        <path id="ID0.8592948471195996" d="M 309.0242 177.6104 C 307.4251 177.8103 307.0254 178.0102 306.8255 179.2094 C 306.8255 180.009 306.8255 181.0084 306.8255 183.2071 L 306.8255 192.8014 L 306.0259 192.8014 L 295.832 180.2089 L 295.832 186.2053 C 295.832 188.404 295.832 189.4034 296.0319 190.2029 C 296.0319 191.4022 296.6315 191.802 298.4304 192.0019 L 298.4304 192.6015 L 292.6339 192.6015 L 292.6339 192.0019 C 294.033 191.802 294.6327 191.6021 294.8326 190.4028 C 294.8326 189.6033 295.0325 188.6039 295.0325 186.4052 L 295.0325 180.2089 C 295.0325 179.6092 295.0325 179.2094 294.6327 178.6098 C 294.2329 178.0102 293.6333 177.8103 292.434 177.8103 L 292.434 177.2106 L 296.0319 177.2106 L 306.2258 189.2035 L 306.2258 183.407 C 306.2258 181.2083 306.2258 180.2089 306.0259 179.4093 C 306.0259 178.4099 305.4263 178.0102 303.4275 177.8103 L 303.4275 177.2106 L 309.4239 177.2106 L 309.4239 177.6104 Z " stroke-width="1.9988173246383667" fill="undefined"/>
        <path id="ID0.9346009567379951" d="M 327.2134 192.4016 L 327.2134 191.802 C 328.8125 191.6021 329.0123 191.4022 328.6126 190.4028 C 328.2128 189.4034 327.8131 188.2041 327.4133 186.8049 L 322.2164 186.8049 C 321.8166 187.8044 321.4168 188.8038 321.217 189.8032 C 320.6173 191.4022 321.0171 191.6021 323.0159 191.802 L 323.0159 192.4016 L 317.4192 192.4016 L 317.4192 191.802 C 319.0183 191.6021 319.2181 191.4022 320.2175 189.2035 L 325.2146 176.611 L 326.0141 176.4111 C 327.6132 180.6086 329.2122 185.006 330.6114 189.2035 C 331.4109 191.2023 331.6108 191.4022 333.2099 191.6021 L 333.2099 192.2018 L 327.2134 192.2018 Z M 324.8148 179.6092 C 324.0153 181.608 323.2158 183.8067 322.4162 185.8055 L 326.8136 185.8055 L 324.8148 179.6092 Z " stroke-width="1.9988173246383667" fill="undefined"/>
        <path id="ID0.17000851361081004" d="M 356.596 188.6039 C 356.1963 189.8032 355.5966 191.4022 355.1969 192.2018 C 354.5972 192.4016 352.5984 192.8014 350.7995 192.8014 C 345.0029 192.8014 342.2045 189.0036 342.2045 184.8061 C 342.2045 180.009 346.0023 176.611 351.1992 176.611 C 353.198 176.611 354.997 177.0107 355.7965 177.2106 C 355.7965 178.21 355.9964 179.8091 356.1963 181.0084 L 355.3967 181.2083 C 354.997 179.6092 354.3973 178.6098 353.198 178.21 C 352.5984 178.0102 351.599 177.8103 350.5996 177.8103 C 346.6019 177.8103 344.6031 180.8085 344.6031 184.6063 C 344.6031 189.2035 347.0017 192.2018 350.7995 192.2018 C 353.198 192.2018 354.3973 191.0025 355.5966 188.6039 L 356.596 188.6039 Z " stroke-width="1.9988173246383667" fill="undefined"/>
        <path id="ID0.09259189711883664" d="M 379.5824 188.6039 C 379.3825 189.2035 378.7829 191.6021 378.583 192.4016 L 366.9899 192.4016 L 366.9899 191.802 C 369.1886 191.6021 369.3885 191.4022 369.3885 189.4034 L 369.3885 180.009 C 369.3885 177.8103 369.1886 177.8103 367.3896 177.6104 L 367.3896 177.0107 L 374.7853 177.0107 C 376.984 177.0107 377.9834 177.0107 378.1833 177.0107 C 378.1833 177.6104 378.3831 179.4093 378.3831 180.6086 L 377.5836 180.8085 C 377.3837 180.009 377.1838 179.4093 376.7841 179.0096 C 376.3843 178.21 375.7847 178.0102 374.3855 178.0102 L 371.9869 178.0102 C 371.1874 178.0102 371.1874 178.0102 371.1874 178.8097 L 371.1874 184.2065 L 373.7859 184.2065 C 375.5848 184.2065 375.7847 183.8067 375.9846 182.2077 L 376.7841 182.2077 L 376.7841 187.2047 L 375.9846 187.2047 C 375.5848 185.4058 375.3849 185.2059 373.7859 185.2059 L 371.1874 185.2059 L 371.1874 190.0031 C 371.1874 191.6021 371.787 191.802 372.9863 191.802 L 375.185 191.802 C 376.5842 191.802 376.984 191.6021 377.3837 191.0025 C 377.7835 190.4028 378.3831 189.6033 378.583 188.8038 L 379.5824 188.6039 Z " stroke-width="1.9988173246383667" fill="undefined"/>
      </g>
    </g>
    <g id="ID0.6008762675337493">
      <g id="ID0.13380952645093203">
        <path id="ID0.7927394988946617" fill="#0D0D0D" stroke="#0D0D0D" stroke-width="1.0677579463861724" stroke-linecap="round" d="M 307.3584 77.4134 L 324.3964 75.7484 L 337.1806 83.7014 L 356.0903 77.5156 L 370.3926 70.969 L 378.1271 65.1961 L 433.8465 57.3847 L 426.2941 62.6199 L 418.0674 70.6235 L 413.7945 79.3661 L 406.2464 80.707 L 402.5497 82.0029 L 397.0666 84.4623 L 392.1215 87.5833 L 386.5879 91.4341 L 383.198 94.1524 L 379.4324 98.6016 L 377.2865 101.6811 L 375.3043 107.6928 L 374.5046 112.3068 L 374.4229 117.2836 L 379.4186 127.3652 L 368.5744 123.6948 L 359.7736 122.604 L 353.7633 122.8172 L 349.0363 123.9742 L 343.2331 125.5162 L 340.012 128.2017 L 339.5564 133.3517 L 342.7693 147.9243 L 329.7704 140.5279 L 321.9239 137.7822 L 316.2425 135.8592 L 310.8662 135.2083 L 304.2521 135.1872 L 300.1244 135.7379 L 294.0362 137.4232 L 288.5069 139.0877 L 283.2909 142.7763 L 278.611 153.8084 L 272.3678 144.7729 L 267.6633 141.9819 L 260.5434 141.6698 L 254.6621 141.657 L 248.646 142.1978 L 236.1578 145.4028 L 248.7673 78.649 L 307.3584 77.4134 Z "/>
        <g id="ID0.5249647456221282">
          <g id="ID0.17693647183477879">
            <path id="ID0.7729651997797191" fill="#3E4246" stroke="none" stroke-linecap="round" d="M 253.8809 72.1652 L 255.3345 89.51 L 269.8235 86.0159 L 281.5216 83.2884 L 286.3571 79.8415 L 289.2709 76.7901 L 286.0373 65.9814 L 280.921 64.8707 L 263.8367 70.0045 L 253.8809 72.1652 Z " stroke-width="0.7019664301643495"/>
            <path id="ID0.9716172609478235" fill="#393C40" stroke="none" stroke-linecap="round" d="M 258.9813 75.6285 L 256.8489 71.4648 L 251.2719 73.2085 L 259.9802 88.49 L 262.5169 85.8334 L 264.0217 81.0592 L 258.9813 75.6285 Z " stroke-width="0.7019664301643495"/>
            <g id="ID0.38066427363082767">
              <path id="ID0.4757494777441025" fill="#1D1E1F" stroke="none" stroke-linecap="round" d="M 232.5359 80.6124 L 230.8642 88.0217 L 235.3756 101.6352 L 257.1083 94.0701 L 261.2001 85.0694 L 262.0312 81.1601 L 259.9211 78.4448 L 257.3065 76.0483 L 254.9423 71.1891 L 250.2334 71.1954 L 243.29 71.9699 L 236.1917 74.8977 L 232.5359 80.6124 Z " stroke-width="0.4093724796244285"/>
              <path id="ID0.6007084371522069" fill="none" stroke="#0D0D0D" stroke-width="0.818744959248857" stroke-linecap="round" d="M 255.2586 71.5913 L 257.3042 75.946 L 260.561 79.5562 L 262.1335 81.1578 L 261.2001 85.0694 L 259.3435 88.9 "/>
            </g>
          </g>
          <g id="ID0.7397577832452953">
            <path id="ID0.6726378230378032" fill="#393C40" stroke="none" stroke-linecap="round" d="M 278.9464 66.2255 L 285.9088 80.5919 L 287.912 80.0063 L 280.7889 65.982 L 278.9464 66.2255 Z " stroke-width="0.7019664180816153"/>
            <path id="ID0.6507829907350242" fill="#1D1E1F" stroke="none" stroke-linecap="round" d="M 280.0368 63.4238 L 287.8405 80.2304 L 304.1537 80.8358 L 313.3664 79.6184 L 327.2064 80.4303 L 332.7817 81.2848 L 335.14 71.0513 L 329.5442 70.5472 L 321.2275 68.4772 L 310.6848 65.3976 L 302.5434 63.3378 L 280.0368 63.4238 Z " stroke-width="0.7019664180816153"/>
            <path id="ID0.6829322893172503" fill="#1D1E1F" stroke="none" stroke-linecap="round" d="M 334.8102 70.6804 L 329.9062 79.3581 L 334.4719 82.4387 L 339.3469 86.2405 L 344.2522 86.5283 L 348.3124 86.2391 L 351.0431 84.6414 L 356.8963 83.7542 L 356.9575 79.7146 L 355.2673 78.5607 L 355.1743 77.1489 L 353.0613 74.2122 L 350.6081 71.0798 L 346.8567 69.1018 L 340.6839 69.4428 L 334.8102 70.6804 Z " stroke-width="0.7019664180816153"/>
            <path id="ID0.47767175547778606" fill="none" stroke="#0D0D0D" stroke-width="1.4039328361632306" stroke-linecap="round" d="M 283.4355 63.6232 L 279.9173 63.6629 L 287.8446 80.1603 L 299.8791 80.5851 "/>
            <path id="ID0.5922487881034613" fill="#282A2B" stroke="none" stroke-linecap="round" d="M 309.2794 64.3146 L 304.0885 70.0925 L 303.8503 75.3523 L 308.6534 80.9782 L 321.5843 80.5063 L 328.3027 76.8572 L 328.4774 73.879 L 322.4789 68.2532 L 309.2794 64.3146 Z " stroke-width="0.7019664180816153"/>
            <path id="ID0.36820242274552584" fill="#151616" stroke="none" stroke-linecap="round" d="M 311.3298 69.7549 L 310.8321 77.0387 L 320.8485 75.3058 L 320.8545 74.0053 L 311.3298 69.7549 Z " stroke-width="0.7019664180816153"/>
            <path id="ID0.13569410238415003" fill="none" stroke="#232425" stroke-width="1.4039328361632306" stroke-linecap="round" d="M 320.8361 69.7551 L 326.7151 75.0222 L 320.1451 79.1371 "/>
            <path id="ID0.024502143263816833" fill="none" stroke="#0D0D0D" stroke-width="1.4039328361632306" stroke-linecap="round" d="M 309.04 64.6682 L 304.1664 69.8319 L 303.652 75.0052 L 308.451 80.7012 L 315.8542 80.362 "/>
          </g>
        </g>
      </g>
      <g id="ID0.13380952645093203">
        <path id="ID0.7927394988946617" fill="#0D0D0D" stroke="#0D0D0D" stroke-width="1.0677579463861724" stroke-linecap="round" d="M 128.5916 75.6634 L 111.5536 73.9984 L 98.7694 81.9514 L 79.8597 75.7656 L 65.5574 69.219 L 57.8229 63.4461 L 2.1035 55.6347 L 9.6559 60.8699 L 17.8826 68.8735 L 22.1555 77.6161 L 29.7036 78.957 L 33.4003 80.2529 L 38.8834 82.7123 L 43.8285 85.8333 L 49.3621 89.6841 L 52.752 92.4024 L 56.5176 96.8516 L 58.6635 99.9311 L 60.6457 105.9428 L 61.4454 110.5568 L 61.5271 115.5336 L 56.5314 125.6152 L 67.3756 121.9448 L 76.1764 120.854 L 82.1867 121.0672 L 86.9137 122.2242 L 92.7169 123.7662 L 95.938 126.4517 L 96.3936 131.6017 L 93.1807 146.1743 L 106.1796 138.7779 L 114.0261 136.0322 L 119.7075 134.1092 L 125.0838 133.4583 L 131.6979 133.4372 L 135.8256 133.9879 L 141.9138 135.6732 L 147.4431 137.3377 L 152.6591 141.0263 L 157.339 152.0584 L 163.5822 143.0229 L 168.2867 140.2319 L 175.4066 139.9198 L 181.2879 139.907 L 187.304 140.4478 L 199.7922 143.6528 L 187.1827 76.899 L 128.5916 75.6634 Z "/>
        <g id="ID0.5249647456221282">
          <g id="ID0.17693647183477879">
            <path id="ID0.7729651997797191" fill="#3E4246" stroke="none" stroke-linecap="round" d="M 182.0691 70.4152 L 180.6155 87.76 L 166.1265 84.2659 L 154.4284 81.5384 L 149.5929 78.0915 L 146.6791 75.0401 L 149.9127 64.2314 L 155.029 63.1207 L 172.1133 68.2545 L 182.0691 70.4152 Z " stroke-width="0.7019664301643495"/>
            <path id="ID0.9716172609478235" fill="#393C40" stroke="none" stroke-linecap="round" d="M 176.9687 73.8785 L 179.1011 69.7148 L 184.6781 71.4585 L 175.9698 86.74 L 173.4331 84.0834 L 171.9283 79.3092 L 176.9687 73.8785 Z " stroke-width="0.7019664301643495"/>
            <g id="ID0.38066427363082767">
              <path id="ID0.4757494777441025" fill="#1D1E1F" stroke="none" stroke-linecap="round" d="M 203.3641 78.9124 L 205.0358 86.3217 L 200.5244 99.9352 L 178.7917 92.3701 L 174.6999 83.3694 L 173.8688 79.4601 L 175.9789 76.7448 L 178.5935 74.3483 L 180.9577 69.4891 L 185.6666 69.4954 L 192.61 70.2699 L 199.7083 73.1977 L 203.3641 78.9124 Z " stroke-width="0.4093724796244285"/>
              <path id="ID0.6007084371522069" fill="none" stroke="#0D0D0D" stroke-width="0.818744959248857" stroke-linecap="round" d="M 180.6414 69.8913 L 178.5958 74.246 L 175.339 77.8562 L 173.7665 79.4578 L 174.6999 83.3694 L 176.5565 87.2 "/>
            </g>
          </g>
          <g id="ID0.7397577832452953">
            <path id="ID0.6726378230378032" fill="#393C40" stroke="none" stroke-linecap="round" d="M 157.0036 64.4755 L 150.0412 78.8419 L 148.038 78.2563 L 155.1611 64.232 L 157.0036 64.4755 Z " stroke-width="0.7019664180816153"/>
            <path id="ID0.6507829907350242" fill="#1D1E1F" stroke="none" stroke-linecap="round" d="M 155.9132 61.6738 L 148.1095 78.4804 L 131.7963 79.0858 L 122.5836 77.8684 L 108.7436 78.6803 L 103.1683 79.5348 L 100.81 69.3013 L 106.4058 68.7972 L 114.7225 66.7272 L 125.2652 63.6476 L 133.4066 61.5878 L 155.9132 61.6738 Z " stroke-width="0.7019664180816153"/>
            <path id="ID0.6829322893172503" fill="#1D1E1F" stroke="none" stroke-linecap="round" d="M 101.1398 68.9304 L 106.0438 77.6081 L 101.4781 80.6887 L 96.6031 84.4905 L 91.6978 84.7783 L 87.6376 84.4891 L 84.9069 82.8914 L 79.0537 82.0042 L 78.9925 77.9646 L 80.6827 76.8107 L 80.7757 75.3989 L 82.8887 72.4622 L 85.3419 69.3298 L 89.0933 67.3518 L 95.2661 67.6928 L 101.1398 68.9304 Z " stroke-width="0.7019664180816153"/>
            <path id="ID0.47767175547778606" fill="none" stroke="#0D0D0D" stroke-width="1.4039328361632306" stroke-linecap="round" d="M 152.5145 61.8732 L 156.0327 61.9129 L 148.1054 78.4103 L 136.0709 78.8351 "/>
            <path id="ID0.5922487881034613" fill="#282A2B" stroke="none" stroke-linecap="round" d="M 126.6206 62.5646 L 131.8115 68.3425 L 132.0497 73.6023 L 127.2466 79.2282 L 114.3157 78.7563 L 107.5973 75.1072 L 107.4226 72.129 L 113.4211 66.5032 L 126.6206 62.5646 Z " stroke-width="0.7019664180816153"/>
            <path id="ID0.36820242274552584" fill="#151616" stroke="none" stroke-linecap="round" d="M 124.6202 68.0549 L 125.1179 75.3387 L 115.1015 73.6058 L 115.0955 72.3053 L 124.6202 68.0549 Z " stroke-width="0.7019664180816153"/>
            <path id="ID0.13569410238415003" fill="none" stroke="#232425" stroke-width="1.4039328361632306" stroke-linecap="round" d="M 115.1139 68.0051 L 109.2349 73.2722 L 115.8049 77.3871 "/>
            <path id="ID0.024502143263816833" fill="none" stroke="#0D0D0D" stroke-width="1.4039328361632306" stroke-linecap="round" d="M 126.91 62.9182 L 131.7836 68.0819 L 132.298 73.2552 L 127.499 78.9512 L 120.0958 78.612 "/>
          </g>
        </g>
      </g>
      <path id="ID0.7987830764614046" fill="#393D40" stroke="none" stroke-linecap="round" d="M 231.6337 173.6496 L 235.1384 165.6768 L 240.1176 145.9141 L 220.6647 152.2261 L 217.3904 162.2848 L 216.7651 172.6466 L 214.8009 184.9628 L 215.7004 190.1845 L 219.6501 184.6398 L 225.6181 179.6695 L 231.6337 173.6496 Z " stroke-width="0.8076105856908047"/>
      <path id="ID0.4270821204409003" fill="#3E4246" stroke="none" stroke-linecap="round" d="M 218.6417 158.1659 L 218.4233 74.0448 L 233.4986 74.6007 L 239.6199 78.8858 L 241.5864 82.261 L 247.4194 90.8933 L 246.6184 98.6955 L 245.7021 102.7649 L 247.0114 107.9403 L 247.3229 112.0319 L 245.3579 117.1483 L 243.8729 121.0299 L 242.6839 127.9368 L 239.0153 150.3434 L 234.7911 154.9039 L 218.6417 158.1659 Z " stroke-width="0.3832522701189328"/>
      <path id="ID0.4270821204409003" fill="#3E4246" stroke="none" stroke-linecap="round" d="M 218.7083 158.1659 L 218.9267 74.0448 L 203.3726 74.2718 L 197.7843 78.5828 L 195.7636 82.261 L 189.9306 90.8933 L 190.7316 98.6955 L 191.6479 102.7649 L 190.3386 107.9403 L 190.0271 112.0319 L 191.9921 117.1483 L 193.4771 121.0299 L 194.6661 127.9368 L 198.3347 150.3434 L 202.5589 154.9039 L 218.7083 158.1659 Z " stroke-width="0.3832522701189328"/>
      <path id="ID0.052435632329434156" fill="#393C40" stroke="none" stroke-linecap="round" d="M 201.6579 130.8816 L 205.4839 130.986 L 211.0938 133.5387 L 215.4557 133.4929 L 220.4784 134.9158 L 228.1205 133.8277 L 233.6473 131.2981 L 237.8182 131.5331 L 239.2764 133.9044 L 230.625 136.964 L 225.5145 136.6409 L 220.651 138.8272 L 214.9839 136.0959 L 209.4509 136.316 L 201.0263 133.3218 L 201.6579 130.8816 Z " stroke-width="0.3832522701189328"/>
      <path id="ID0.4987568911164999" fill="none" stroke="#27282B" stroke-width="0.8187449985414065" stroke-linecap="round" d="M 203.0742 73.7754 L 197.4384 78.9814 L 192.7019 87.2155 "/>
      <path id="ID0.2889464790932834" fill="none" stroke="#27282B" stroke-width="0.8187449985414065" stroke-linecap="round" d="M 234.9847 75.0854 L 239.8281 78.4617 L 244.5738 86.5447 "/>
      <path id="ID0.8373676878400147" fill="#000000" stroke="#2C2F31" stroke-width="0.5003219865051398" stroke-linecap="round" d="M 205.7574 84.5747 L 206.074 83.4134 L 202.9341 84.0376 L 198.7194 86.4945 L 195.1081 90.2712 L 192.9323 94.5231 L 197.3748 92.8991 L 201.4138 92.9026 L 203.7641 93.6537 L 205.9117 95.9824 L 207.7326 95.2408 L 211.182 95.1005 L 215.0496 95.9779 L 218.3155 98.474 L 220.064 100.8438 L 221.9527 98.5771 L 225.1683 96.2521 L 228.723 95.235 L 233.1559 95.3148 L 234.7236 95.7959 L 236.2184 93.453 L 237.9149 92.5295 L 240.1461 92.9814 L 242.539 94.2633 L 241.3453 91.3306 L 239.4272 88.3068 L 237.0152 85.9662 L 234.3128 84.2004 L 230.44 83.4403 L 232.2937 84.9333 L 232.2337 86.2823 L 230.8389 87.8657 L 227.7546 88.7274 L 225.0321 88.9001 L 222.78 88.9173 L 221.2246 85.7804 L 220.2524 87.6882 L 218.9968 87.6323 L 217.6899 85.7523 L 216.8194 88.9458 L 213.3091 88.9658 L 209.7693 88.1618 L 206.906 87.0353 L 205.7574 84.5747 Z "/>
      <path id="ID0.5698574706912041" fill="none" stroke="#313537" stroke-width="0.7665045402378656" stroke-linecap="round" d="M 201.1995 130.7562 L 200.6305 133.1442 L 209.0488 136.4047 L 214.8875 136.2435 L 220.0485 138.7347 "/>
      <path id="ID0.5698574706912041" fill="none" stroke="#313537" stroke-width="0.7120922798284232" stroke-linecap="round" d="M 237.8982 131.6312 L 238.5361 134.0587 L 229.8635 136.9936 L 224.7856 136.6356 L 220.1792 138.9509 "/>
      <path id="ID0.8947288258932531" fill="#393C40" stroke="none" stroke-linecap="round" d="M 202.0883 121.8623 L 208.1274 121.8823 L 214.5806 123.4197 L 219.3525 127.6272 L 213.3323 124.25 L 204.1093 122.9646 L 199.6555 125.1405 L 202.0883 121.8623 Z " stroke-width="0.3832522701189328"/>
      <path id="ID0.9897695370018482" fill="#393C40" stroke="none" stroke-linecap="round" d="M 204.8368 131.0608 L 199.2176 130.6042 L 199.6689 127.1482 L 200.6296 129.7769 L 205.0064 129.9624 L 210.2237 132.6678 L 214.9368 132.4863 L 218.4312 133.6152 L 219.7583 127.7766 L 219.7879 135.0963 L 215.0145 133.5181 L 209.9599 133.427 L 204.8368 131.0608 Z " stroke-width="0.3832522701189328"/>
      <path id="ID0.9214867809787393" fill="#393C40" stroke="none" stroke-linecap="round" d="M 202.1576 118.9678 L 204.7909 115.8709 L 208.9007 115.2343 L 203.802 118.6955 L 203.5451 120.8759 L 207.8826 120.9896 L 214.8445 123.5133 L 207.1635 121.9537 L 202.1293 121.863 L 202.1576 118.9678 Z " stroke-width="0.3832522701189328"/>
      <path id="ID0.8679121839813888" fill="#2C2F31" stroke="none" stroke-linecap="round" d="M 216.1173 104.5455 L 219.3627 105.812 L 222.257 104.6384 L 223.0586 105.3634 L 219.6344 107.2914 L 214.722 105.533 L 216.1173 104.5455 Z " stroke-width="0.3832522701189328"/>
      <path id="ID0.20603158557787538" fill="none" stroke="#313537" stroke-width="0.7665045402378656" stroke-linecap="round" d="M 190.4711 98.2505 L 197.0333 103.7871 L 207.6173 106.3761 L 213.8695 106.0446 L 219.2603 103.2105 "/>
      <path id="ID0.24770551454275846" fill="none" stroke="#363A3D" stroke-width="0.7665044807941204" stroke-linecap="round" d="M 194.2772 123.8903 L 202.8469 121.6819 "/>
      <path id="ID0.24770551454275846" fill="none" stroke="#363A3D" stroke-width="0.7665044807941204" stroke-linecap="round" d="M 191.8777 114.9502 L 209.5469 110.6319 "/>
      <path id="ID0.753661650698632" fill="none" stroke="#313537" stroke-width="0.7665044807941204" stroke-linecap="round" d="M 214.8678 105.429 L 219.3274 107.2859 L 222.8531 105.3952 "/>
      <g id="ID0.8167418288066983">
        <path id="ID0.9553722990676761" fill="none" stroke="#313537" stroke-width="0.8474043621513785" stroke-linecap="round" d="M 219.7139 118.5465 L 214.9275 116.8614 L 209.6544 115.3452 L 205.5364 115.9816 L 202.4445 119.1235 L 202.3829 121.6984 "/>
        <path id="ID0.5982440118677914" fill="none" stroke="#313537" stroke-width="0.6991050133003093" stroke-linecap="round" d="M 209.9429 115.0837 L 209.0142 111.1171 L 213.6423 105.934 "/>
      </g>
      <path id="ID0.04993448918685317" fill="none" stroke="#313537" stroke-width="0.7665044807941204" stroke-linecap="round" d="M 219.5295 107.1471 L 219.9565 114.9714 L 220.0726 127.2313 L 219.9861 139.3987 "/>
      <path id="ID0.9286923445761204" fill="#27282B" stroke="none" stroke-linecap="round" d="M 208.6565 43.7525 L 224.8267 45.0215 L 218.7066 61.2531 L 218.9727 81.7013 L 187.1644 71.0781 L 204.2557 61.9695 L 208.6565 43.7525 Z " stroke-width="0.4093725085258484"/>
      <path id="ID0.9286923445761204" fill="#27282B" stroke="none" stroke-linecap="round" d="M 228.4435 44.0025 L 212.2733 45.2715 L 218.3934 61.5031 L 218.9461 81.849 L 249.9356 71.3281 L 232.8443 62.2195 L 228.4435 44.0025 Z " stroke-width="0.4093725085258484"/>
      <path id="ID0.20603158557787538" fill="none" stroke="#313537" stroke-width="0.7665045402378656" stroke-linecap="round" d="M 246.1554 98.112 L 241.7667 103.7871 L 231.1827 106.3761 L 224.9305 106.0446 L 219.5397 103.2105 "/>
      <path id="ID0.24770551454275846" fill="none" stroke="#363A3D" stroke-width="0.7665044807941204" stroke-linecap="round" d="M 243.0418 123.893 L 237.8031 122.2819 "/>
      <path id="ID0.24770551454275846" fill="none" stroke="#363A3D" stroke-width="0.7665044807941204" stroke-linecap="round" d="M 245.971 115.1183 L 230.9531 111.2319 "/>
      <path id="ID0.8947288258932531" fill="#393C40" stroke="none" stroke-linecap="round" d="M 237.093 122.4735 L 230.3483 122.5823 L 224.1479 124.1197 L 219.563 128.3272 L 225.3473 124.95 L 234.209 123.6646 L 238.4883 125.8405 L 237.093 122.4735 Z " stroke-width="0.37476226922264394"/>
      <path id="ID0.9897695370018482" fill="#393C40" stroke="none" stroke-linecap="round" d="M 233.6556 131.4811 L 238.7977 131.0294 L 238.3806 127.5731 L 237.5045 130.2009 L 233.4991 130.3826 L 228.7275 133.0836 L 224.4138 132.898 L 221.2172 134.0238 L 219.9957 128.1843 L 219.9773 135.5038 L 224.344 133.9297 L 228.9698 133.8429 L 233.6556 131.4811 Z " stroke-width="0.36506249230694493"/>
      <path id="ID0.9214867809787393" fill="#393C40" stroke="none" stroke-linecap="round" d="M 237.1342 119.2678 L 234.6041 116.1709 L 230.6553 115.5343 L 235.5543 118.9955 L 235.8011 121.1759 L 231.6335 121.2896 L 224.9444 123.8133 L 232.3245 122.2537 L 237.1615 122.163 L 237.1342 119.2678 Z " stroke-width="0.37476226922264394"/>
      <path id="ID0.3567589442245662" fill="none" stroke="#313537" stroke-width="0.715298405668949" stroke-linecap="round" d="M 219.8135 127.7226 L 224.3121 124.0908 L 230.5626 122.498 L 237.2321 122.2096 L 238.7231 126.8731 L 238.94 131.3538 L 233.7606 131.8289 L 227.6697 134.2773 L 224.453 134.0062 L 219.7937 135.3257 L 214.8165 133.3707 L 210.0065 133.4616 L 204.536 131.0536 L 199.131 130.4233 L 199.5444 125.1901 L 201.8232 121.7669 L 207.2229 121.8642 L 214.3525 123.4139 L 219.2675 127.2154 Z "/>
      <g id="ID0.8167418288066983">
        <path id="ID0.9553722990676761" fill="none" stroke="#313537" stroke-width="0.8474043621513785" stroke-linecap="round" d="M 220.0361 118.5965 L 224.8225 116.9114 L 230.0956 115.3952 L 234.2136 116.0316 L 237.3055 119.1735 L 237.3671 121.7484 "/>
        <path id="ID0.5982440118677914" fill="none" stroke="#313537" stroke-width="0.6991050133003093" stroke-linecap="round" d="M 229.8071 115.0837 L 230.7358 111.1171 L 226.1077 105.934 "/>
      </g>
      <g id="ID0.2217248771339655">
        <path id="ID0.2888958193361759" fill="#393C40" stroke="none" stroke-linecap="round" d="M 203.7519 137.6636 L 211.0276 139.0887 L 210.5589 140.8904 L 203.2832 139.4654 L 203.7519 137.6636 Z " stroke-width="0.31859408970350034"/>
        <g id="ID0.8823104286566377">
          <path id="ID0.2888958193361759" fill="#393C40" stroke="none" stroke-linecap="round" d="M 196.107 136.3126 L 204.2776 137.9887 L 203.8089 139.7904 L 196.0075 138.1715 L 196.107 136.3126 Z " stroke-width="0.31859408970350034"/>
          <g id="ID0.36424446757882833">
            <path id="ID0.7359844641759992" fill="#8A7B59" stroke="none" d="M 205.8122 137.3071 L 206.9018 137.3267 L 206.8092 141.1974 L 205.7196 141.1777 L 205.8122 137.3071 Z " stroke-width="0.31885095894493315"/>
            <path id="ID0.7359844641759992" fill="#8A7B59" stroke="none" d="M 204.4622 137.0071 L 205.5518 137.0267 L 205.4592 140.8974 L 204.3696 140.8777 L 204.4622 137.0071 Z " stroke-width="0.31885095894493315"/>
            <path id="ID0.7359844641759992" fill="#8A7B59" stroke="none" d="M 203.0622 136.6071 L 204.1518 136.6267 L 204.0592 140.4974 L 202.9696 140.4777 L 203.0622 136.6071 Z " stroke-width="0.31885095894493315"/>
            <path id="ID0.7359844641759992" fill="#8A7B59" stroke="none" d="M 207.2122 137.6071 L 208.3018 137.6267 L 208.2092 141.4974 L 207.1196 141.4777 L 207.2122 137.6071 Z " stroke-width="0.31885095894493315"/>
          </g>
          <g id="ID0.1049797898158431">
            <path id="ID0.08871637750416994" fill="#8A7B59" stroke="none" stroke-linecap="round" d="M 197.3524 135.8859 L 201.9167 136.6184 L 201.7995 140.0895 L 197.4058 139.3453 L 197.3524 135.8859 Z " stroke-width="0.31885095894493315"/>
            <path id="ID0.13805592898279428" fill="#76694C" stroke="none" stroke-linecap="round" d="M 197.2288 135.7133 L 202.0144 136.4499 L 202.0397 138.2387 L 197.2385 137.4428 L 197.2288 135.7133 Z " stroke-width="0.31885095894493315"/>
            <path id="ID0.3221200187690556" fill="#61563F" stroke="none" stroke-linecap="round" d="M 199.1555 137.1726 L 199.7784 137.4084 L 199.8078 138.4997 L 199.129 138.279 L 199.1555 137.1726 Z " stroke-width="0.3460699674458438"/>
            <path id="ID0.1420820001512766" fill="#BAA578" stroke="none" stroke-linecap="round" d="M 201.3446 139.4768 L 201.8766 138.5996 L 201.8763 140.0332 L 197.4135 139.3321 L 201.3446 139.4768 Z " stroke-width="0.31885095894493315"/>
          </g>
        </g>
      </g>
      <g id="ID0.2217248771339655">
        <path id="ID0.2888958193361759" fill="#393C40" stroke="none" stroke-linecap="round" d="M 234.2688 138.2377 L 227.7597 139.5126 L 228.179 141.1245 L 234.6881 139.8496 L 234.2688 138.2377 Z " stroke-width="0.28502922031196737"/>
        <g id="ID0.8823104286566377">
          <path id="ID0.2888958193361759" fill="#393C40" stroke="none" stroke-linecap="round" d="M 241.1694 136.9631 L 233.8597 138.4626 L 234.279 140.0745 L 241.2584 138.6262 L 241.1694 136.9631 Z " stroke-width="0.28502922031196737"/>
          <g id="ID0.36424446757882833">
            <path id="ID0.7359844641759992" fill="#8A7B59" stroke="none" d="M 232.4485 137.8803 L 231.4737 137.8978 L 231.5566 141.3607 L 232.5314 141.3431 L 232.4485 137.8803 Z " stroke-width="0.28525903132703206"/>
            <path id="ID0.7359844641759992" fill="#8A7B59" stroke="none" d="M 233.6485 137.6303 L 232.6737 137.6478 L 232.7566 141.1107 L 233.7314 141.0931 L 233.6485 137.6303 Z " stroke-width="0.28525903132703206"/>
            <path id="ID0.7359844641759992" fill="#8A7B59" stroke="none" d="M 234.8985 137.2803 L 233.9237 137.2978 L 234.0066 140.7607 L 234.9814 140.7431 L 234.8985 137.2803 Z " stroke-width="0.28525903132703206"/>
            <path id="ID0.7359844641759992" fill="#8A7B59" stroke="none" d="M 231.2485 138.1803 L 230.2737 138.1978 L 230.3566 141.6607 L 231.3314 141.6431 L 231.2485 138.1803 Z " stroke-width="0.28525903132703206"/>
          </g>
          <g id="ID0.1049797898158431">
            <path id="ID0.08871637750416994" fill="#8A7B59" stroke="none" stroke-linecap="round" d="M 239.9908 136.5904 L 235.9074 137.2457 L 236.0122 140.3512 L 239.943 139.6853 L 239.9908 136.5904 Z " stroke-width="0.28525903132703206"/>
            <path id="ID0.13805592898279428" fill="#76694C" stroke="none" stroke-linecap="round" d="M 240.1434 136.5018 L 235.862 137.1608 L 235.8394 138.7611 L 240.1348 138.049 L 240.1434 136.5018 Z " stroke-width="0.28525903132703206"/>
            <path id="ID0.3221200187690556" fill="#61563F" stroke="none" stroke-linecap="round" d="M 238.4308 137.6988 L 237.8735 137.9097 L 237.8472 138.8861 L 238.4544 138.6886 L 238.4308 137.6988 Z " stroke-width="0.3096104197134408"/>
            <path id="ID0.1420820001512766" fill="#BAA578" stroke="none" stroke-linecap="round" d="M 236.4612 139.9135 L 235.9853 139.1287 L 235.9855 140.4113 L 239.9782 139.784 L 236.4612 139.9135 Z " stroke-width="0.28525903132703206"/>
          </g>
        </g>
      </g>
      <g id="ID0.6836685389280319">
        <path id="ID0.09357938077300787" fill="#857656" stroke="none" d="M 212.2866 137.7085 L 226.5168 137.7252 L 226.51 142.141 L 212.2797 142.1244 L 212.2866 137.7085 Z " stroke-width="0.3121572129083903"/>
        <path id="ID0.6492703901603818" fill="#7C6E50" stroke="none" stroke-linecap="round" d="M 212.8121 139.1885 L 219.3114 141.3222 L 226.3073 139.2043 L 226.3027 142.1318 L 212.8076 142.116 L 212.8121 139.1885 Z " stroke-width="0.35291133354590853"/>
        <g id="ID0.9254062357358634">
          <g id="ID0.49943465692922473">
            <path id="ID0.140373723115772" fill="#968561" stroke="none" d="M 225.2861 136.9515 L 229.3385 136.9562 L 229.3288 143.1711 L 225.2765 143.1663 L 225.2861 136.9515 Z " stroke-width="0.35291133354590853"/>
            <path id="ID0.8286363878287375" fill="#BAA578" stroke="none" stroke-linecap="round" d="M 225.3121 136.7662 L 229.4584 136.9346 L 226.1781 137.4541 L 225.3653 138.9251 L 225.3121 136.7662 Z " stroke-width="0.35291133354590853"/>
            <path id="ID0.7362233307212591" fill="#8A7B59" stroke="none" stroke-linecap="round" d="M 225.3245 140.9531 L 227.4731 140.9883 L 229.417 139.3224 L 229.4111 143.1658 L 225.3211 143.161 L 225.3245 140.9531 Z " stroke-width="0.35291133354590853"/>
          </g>
          <g id="ID0.49943465692922473">
            <path id="ID0.140373723115772" fill="#968561" stroke="none" d="M 213.4306 137.0557 L 209.3783 137.051 L 209.3687 143.2658 L 213.421 143.2706 L 213.4306 137.0557 Z " stroke-width="0.35291133354590853"/>
            <path id="ID0.8286363878287375" fill="#BAA578" stroke="none" stroke-linecap="round" d="M 213.4043 136.9699 L 209.2575 137.1286 L 212.5362 137.6558 L 213.3444 139.1287 L 213.4043 136.9699 Z " stroke-width="0.35291133354590853"/>
            <path id="ID0.7362233307212591" fill="#8A7B59" stroke="none" stroke-linecap="round" d="M 213.3789 141.1567 L 211.2302 141.1869 L 209.2914 139.5165 L 209.2855 143.3599 L 213.3755 143.3647 L 213.3789 141.1567 Z " stroke-width="0.35291133354590853"/>
          </g>
        </g>
      </g>
      <path id="ID0.5448851804248989" fill="none" stroke="#1D1E1F" stroke-width="0.8187450170516968" stroke-linecap="round" d="M 205.7338 55.9161 L 204.7923 61.6883 L 219.3659 67.4604 L 232.6296 61.893 L 231.7699 56.6325 "/>
      <path id="ID0.262191956397146" fill="none" stroke="#1D1E1F" stroke-width="0.8187450170516968" stroke-linecap="round" d="M 207.8582 59.7236 L 218.7884 65.0455 L 230.169 59.5189 "/>
      <path id="ID0.3245162623934448" fill="#2E3034" stroke="none" stroke-linecap="round" d="M 218.9103 32.4707 C 221.8779 32.4707 224.5666 34.8659 226.5134 38.7349 C 228.4602 42.6039 229.1501 48.7296 229.6651 53.8436 C 230.191 59.0651 231.9245 64.7506 229.8018 69.5201 C 228.1658 73.1949 223.6579 75.9939 219.5483 76.219 C 215.6675 76.435 210.9837 74.1838 209.1581 70.6593 C 206.5787 65.6784 207.7782 59.4953 208.1555 53.8436 C 208.4982 48.7159 209.3604 42.6039 211.3072 38.7349 C 213.254 34.8659 215.9427 32.4707 218.9103 32.4707 Z " stroke-width="0.9114236831665039"/>
      <g id="ID0.9831569031812251">
        <path id="ID0.0877610077150166" fill="#2E3034" stroke="none" stroke-linecap="round" d="M 230.3526 24.6828 L 226.1853 12.7281 L 226.1853 38.7297 L 233.1771 38.7297 L 230.3526 24.6828 Z " stroke-width="0.5346472016115493"/>
        <path id="ID0.796130308881402" fill="#242628" stroke="none" stroke-linecap="round" d="M 230.636 24.603 L 226.1445 12.6483 L 229.3858 25.2605 L 230.2424 38.8292 L 233.1364 38.5602 L 230.636 24.603 Z " stroke-width="0.5346472016115493"/>
      </g>
      <g id="ID0.9831569031812251">
        <path id="ID0.0877610077150166" fill="#2E3034" stroke="none" stroke-linecap="round" d="M 206.4474 24.4828 L 210.6147 12.5281 L 210.6147 38.5297 L 203.6229 38.5297 L 206.4474 24.4828 Z " stroke-width="0.5346472016115493"/>
        <path id="ID0.796130308881402" fill="#242628" stroke="none" stroke-linecap="round" d="M 206.064 24.503 L 210.5555 12.5483 L 207.3142 25.1605 L 206.3187 38.4303 L 203.5636 38.4602 L 206.064 24.503 Z " stroke-width="0.5346472016115493"/>
      </g>
      <path id="ID0.8999492498114705" fill="#2E3034" stroke="none" stroke-linecap="round" d="M 223.4551 29.2337 C 227.3294 30.3704 231.7819 32.1406 233.7253 35.6796 C 235.9428 39.7201 234.1675 44.8227 234.4407 49.3758 C 234.5986 50.9283 235.3209 52.5258 235.0195 54.0062 C 234.4055 57.0173 232.8798 59.7779 231.894 62.6881 C 231.2481 64.5953 231.1073 66.7415 230.0418 68.4761 C 228.8426 70.5292 227.3937 72.7578 225.2494 73.801 C 223.5982 74.603 221.2159 74.828 219.7856 73.7084 C 218.6484 72.8184 219.6902 70.7982 219.3457 69.379 C 219.0466 67.6278 217.8658 66.0484 217.864 64.2393 C 217.8607 59.2042 219.5605 54.2497 219.5772 49.2137 C 219.5953 43.6758 219.9004 37.9818 218.0955 32.799 C 217.4051 30.8163 211.7398 30.2949 212.7243 29.6967 C 214.25 28.6252 220.0226 28.2266 223.4551 29.2337 Z " stroke-width="0.4630371928215027"/>
      <path id="ID0.8999492498114705" fill="#2E3034" stroke="none" stroke-linecap="round" d="M 213.5949 29.1337 C 209.7178 30.2607 205.2681 32.0406 203.3247 35.5796 C 201.1072 39.6201 202.8825 44.7227 202.6093 49.2758 C 202.4514 50.8283 201.7291 52.4258 202.0305 53.9062 C 202.6445 56.9173 204.1702 59.6779 205.156 62.5881 C 205.8019 64.4953 205.9427 66.6415 207.0082 68.3761 C 208.2074 70.4292 209.6563 72.6578 211.8006 73.701 C 213.4518 74.503 215.8341 74.728 217.2644 73.6084 C 218.4016 72.7184 217.3598 70.6982 217.7043 69.279 C 218.0034 67.5278 219.1842 65.9484 219.186 64.1393 C 219.1893 59.1042 217.4895 54.1497 217.4728 49.1137 C 217.4547 43.5758 217.5682 38.0082 218.9545 32.699 C 219.3282 31.272 223.5557 30.6677 222.7283 30.0829 C 220.8757 28.885 216.443 28.3067 213.5949 29.1337 Z " stroke-width="0.4630371928215027"/>
      <path id="ID0.45774566335603595" fill="#AB8E85" stroke="none" stroke-linecap="round" d="M 219.0565 61.5451 C 220.9742 61.5451 222.3777 62.6971 223.9691 63.4281 C 225.4201 64.0953 228.1589 64.221 228.148 65.8744 C 228.1589 68.4555 225.894 70.683 223.9691 72.5132 C 222.6995 73.7199 220.9742 74.3962 219.0565 74.3962 C 217.1389 74.3962 215.4956 73.6278 214.1439 72.5132 C 212.2737 70.972 209.8785 69.1573 209.9195 66.7858 C 209.8785 64.9702 212.5435 64.3167 214.1439 63.4281 C 215.6751 62.5768 217.1389 61.5451 219.0565 61.5451 Z " stroke-width="0.9114236831665039"/>
      <path id="ID0.6934182443656027" fill="#AB8E85" stroke="none" stroke-linecap="round" d="M 206.4105 56.4411 L 218.4869 60.178 L 231.3379 56.0766 L 228.6037 62.2287 L 228.148 66.3301 L 210.0562 66.9225 L 209.0081 61.3172 L 206.4105 56.4411 Z " stroke-width="0.9114236831665039"/>
      <path id="ID0.2542315670289099" fill="#27282B" stroke="none" d="M 242.6985 7.9534 L 242.8807 7.9534 L 242.8807 7.9534 L 242.6985 7.9534 L 242.6985 7.9534 Z " stroke-width="0.9114236831665039"/>
      <path id="ID0.8256730306893587" fill="none" stroke="#937B73" stroke-width="0.9260743376260078" stroke-linecap="round" d="M 213.3353 65.6818 C 213.3353 65.6818 215.81 65.2092 217.0587 65.071 C 217.3709 65.0364 217.6772 65.1161 217.9824 65.167 C 218.2926 65.219 218.5881 65.3804 218.9027 65.3788 C 219.5263 65.3759 220.141 65.2139 220.7621 65.1544 C 221.0701 65.1248 221.3807 65.099 221.6898 65.1116 C 221.9993 65.1242 222.3131 65.1518 222.6128 65.2308 C 223.1056 65.3608 224.0575 65.7356 224.0575 65.7356 "/>
      <path id="ID0.7592270169407129" fill="none" stroke="#937B73" stroke-width="0.9260743376260078" stroke-linecap="round" d="M 221.3593 67.2197 C 221.3593 67.2197 220.7838 67.5176 220.4693 67.5646 C 220.1641 67.6105 219.8527 67.4695 219.5449 67.4917 C 219.2353 67.5143 218.9446 67.6672 218.6357 67.6972 C 218.3286 67.7272 218.0084 67.7477 217.71 67.6705 C 217.4562 67.6049 217.0264 67.2803 217.0264 67.2803 "/>
      <path id="ID0.6473136460408568" fill="none" stroke="#937B73" stroke-width="0.9260744609928169" stroke-linecap="round" d="M 219.1577 71.0765 C 219.1577 71.0765 219.4464 71.6552 219.4928 71.9692 C 219.5375 72.275 219.4828 72.5917 219.4249 72.8954 C 219.338 73.3529 219.0598 74.2454 219.0598 74.2454 "/>
      <path id="ID0.5030081016011536" fill="#A1887F" stroke="none" stroke-linecap="round" d="M 206.5149 56.669 L 219.4572 60.3147 L 231.6702 56.031 L 228.3891 61.773 L 227.7511 67.1504 L 226.8397 61.773 L 228.5714 58.5374 L 219.5483 61.4995 L 208.9302 58.7197 L 210.4341 62.0008 L 209.8416 68.2896 L 208.9302 61.7274 L 206.5149 56.669 Z " stroke-width="0.9114236831665039"/>
      <g id="ID0.7768427198752761">
        <path id="ID0.2278452254831791" fill="none" stroke="#937B73" stroke-width="0.9260743856430054" stroke-linecap="round" d="M 220.4969 56.3328 C 220.4969 56.3328 221.3484 58.0303 221.7702 58.8795 C 221.9115 59.1638 222.067 59.4426 222.187 59.7361 C 222.3069 60.0297 222.5005 60.3223 222.488 60.639 C 222.4754 60.9567 222.2875 61.2503 222.1175 61.5188 C 222.0041 61.6985 221.6545 61.9587 221.6545 61.9587 "/>
        <path id="ID0.2278452254831791" fill="none" stroke="#937B73" stroke-width="0.9260743856430054" stroke-linecap="round" d="M 217.7531 56.2328 C 217.7531 56.2328 216.9016 57.9303 216.4798 58.7795 C 216.3385 59.0638 216.183 59.3426 216.063 59.6361 C 215.9431 59.9297 215.7495 60.2223 215.762 60.539 C 215.7746 60.8567 215.9625 61.1503 216.1325 61.4188 C 216.2459 61.5985 216.5955 61.8587 216.5955 61.8587 "/>
      </g>
      <path id="ID0.7987830764614046" fill="#3E4246" stroke="none" stroke-linecap="round" d="M 199.4894 166.0616 L 198.3287 160.9874 L 198.0277 145.7648 L 222.4452 148.1174 L 220.2528 160.9874 L 220.4677 174.5955 L 220.9836 187.0503 L 220.9406 191.3865 L 219.479 194.6155 L 216.6847 196.2762 L 214.7073 196.6452 L 212.5578 196.4607 L 209.4627 195.6304 L 207.3133 194.1081 L 204.1321 188.5265 L 201.4668 177.5939 L 199.4894 166.0616 Z " stroke-width="0.8917290627976765"/>
      <path id="ID0.28340246016159654" fill="#1C1D1F" stroke="none" stroke-linecap="round" d="M 205.3296 48.8782 L 208.6053 50.3485 L 218.9742 51.5865 L 217.8393 56.6936 L 211.2104 55.7908 L 207.522 54.7591 L 205.5875 53.3147 L 204.7621 51.6639 L 205.3296 48.8782 Z " stroke-width="0.5158640146255493"/>
      <path id="ID0.20071752788498998" fill="#202324" stroke="none" d="M 209.9632 46.8891 L 213.9179 49.3396 L 219.0371 51.2562 L 218.5276 51.79 L 211.1035 50.5769 L 205.4748 48.3448 L 207.1246 46.6465 L 209.9632 46.8891 Z " stroke-width="0.48523765802383423"/>
      <path id="ID0.521138689480722" fill="none" stroke="#212325" stroke-width="0.9704753160476685" stroke-linecap="round" d="M 205.6769 48.6032 L 209.1463 50.3016 L 218.2931 51.636 "/>
      <path id="ID0.28340246016159654" fill="#1C1D1F" stroke="none" stroke-linecap="round" d="M 232.3204 48.9782 L 229.0447 50.4485 L 218.6758 51.6865 L 219.8107 56.7936 L 226.4396 55.8908 L 230.128 54.8591 L 232.0625 53.4147 L 232.8879 51.7639 L 232.3204 48.9782 Z " stroke-width="0.5158640146255493"/>
      <path id="ID0.20071752788498998" fill="#202324" stroke="none" d="M 227.6868 46.8891 L 223.7321 49.3396 L 218.6129 51.2562 L 219.1224 51.79 L 226.5465 50.5769 L 232.1752 48.3448 L 230.5254 46.6465 L 227.6868 46.8891 Z " stroke-width="0.48523765802383423"/>
      <path id="ID0.521138689480722" fill="none" stroke="#212325" stroke-width="0.9704753160476685" stroke-linecap="round" d="M 232.0231 48.6032 L 228.5537 50.3016 L 219.4069 51.636 "/>
      <path id="ID0.17828734638169408" fill="none" stroke="#202324" stroke-width="0.9260743856430054" stroke-linecap="round" d="M 220.0745 54.5063 C 220.0745 54.5063 219.1947 52.6537 218.9864 51.7281 C 218.9174 51.4216 219.1248 51.1132 219.1716 50.802 C 219.2174 50.4955 219.2758 50.1857 219.2642 49.876 C 219.2526 49.5629 219.1623 49.2569 219.1021 48.9499 C 219.0081 48.4706 218.8012 47.5145 218.8012 47.5145 "/>
      <g id="ID0.6393627882935107">
        <path id="ID0.8684103740379214" fill="#27282B" stroke="none" stroke-linecap="round" d="M 219.2762 50.8359 L 224.5168 58.2184 L 218.7749 59.9957 L 213.6253 58.5374 L 219.2762 50.8359 Z " stroke-width="0.9114236831665039"/>
        <path id="ID0.8012696979567409" fill="none" stroke="#242527" stroke-width="0.9260743856430054" stroke-linecap="round" d="M 227.7553 68.9183 L 228.3341 62.0885 L 231.3901 56.0458 L 219.3743 60.2132 L 206.3398 56.6015 L 208.8402 61.7412 L 209.8589 68.2237 "/>
        <path id="ID0.8012696979567409" fill="none" stroke="#242527" stroke-width="0.9260743856430054" stroke-linecap="round" d="M 219.1535 59.9803 L 219.1072 51.1595 "/>
      </g>
      <g id="ID0.770418758969754">
        <path id="ID0.6101007834076881" fill="#FFFFFF" stroke="none" stroke-linecap="round" d="M 209.0234 51.9732 L 210.602 52.3551 L 214.2123 53.5024 L 214.7326 55.3823 L 209.7137 53.9946 L 209.0234 51.9732 Z " stroke-width="0.38788099492369477"/>
        <path id="ID0.043594349175691605" fill="#D7E2FD" stroke="none" stroke-linecap="round" d="M 214.0025 54.5181 L 214.2208 53.4505 L 214.7061 55.4157 L 212.2314 54.7122 L 214.0025 54.5181 Z " stroke-width="0.48523765802383423"/>
        <path id="ID0.6101007834076881" fill="#FFFFFF" stroke="none" stroke-linecap="round" d="M 228.6766 52.0732 L 227.098 52.4551 L 223.4877 53.6024 L 222.9674 55.4823 L 227.9863 54.0946 L 228.6766 52.0732 Z " stroke-width="0.38788099492369477"/>
        <path id="ID0.043594349175691605" fill="#D7E2FD" stroke="none" stroke-linecap="round" d="M 223.6975 54.6181 L 223.4792 53.5505 L 222.9939 55.5157 L 225.4686 54.8122 L 223.6975 54.6181 Z " stroke-width="0.48523765802383423"/>
      </g>
    </g>
  </g>
</svg>