<svg xmlns="http://www.w3.org/2000/svg" xmlns:xlink="http://www.w3.org/1999/xlink" version="1.1" width="287.59635175714175" height="309.66959394464175" viewBox="-0.12119061474640591 1.8600591945187308 287.59635175714175 309.66959394464175">
  <!-- Exported by Scratch - http://scratch.mit.edu/ -->
  <g id="ID0.7085462282411754">
    <g id="ID0.5880346246995032">
      <path id="ID0.6829322893172503" fill="#796B5E" stroke="none" stroke-linecap="round" d="M 130.1319 168.4698 L 142.2724 168.6723 L 142.6208 175.4448 L 143.528 182.996 L 140.7472 188.3874 L 137.8949 192.521 L 134.5115 194.4257 L 129.9086 200.0913 L 125.6525 197.6366 L 125.5094 195.1209 L 124.0938 194.1415 L 122.355 190.0646 L 120.6255 185.5043 L 120.9168 180.2846 L 125.1502 173.9388 L 130.1319 168.4698 Z " stroke-width="0.860103544862228"/>
      <g id="ID0.9434720128774643">
        <path id="ID0.6507829907350242" fill="#2C3134" stroke="none" stroke-linecap="round" d="M 156.4109 104.5467 L 169.0563 123.3214 L 159.5634 138.654 L 152.3834 150.061 L 144.5376 165.2725 L 143.2999 172.979 L 128.416 168.2267 L 132.7506 161.5916 L 135.8134 151.464 L 139.2204 138.3414 L 144.9382 125.3937 L 156.4109 104.5467 Z " stroke-width="0.860103544862228"/>
        <path id="ID0.9892375003546476" fill="none" stroke="#191919" stroke-width="2.106910174198116" stroke-linecap="round" d="M 129.255 167.5927 L 143.1176 171.5038 L 144.934 162.2806 "/>
      </g>
    </g>
    <path id="ID0.7729651997797191" fill="#2C3134" stroke="none" stroke-linecap="round" d="M 171.1756 75.3075 L 194.9132 82.6749 L 185.4322 102.095 L 177.8482 111.3987 L 173.2499 120.1221 L 167.8254 127.8059 L 152.3254 118.8885 L 152.4022 111.3131 L 164.996 88.7251 L 171.1756 75.3075 Z " stroke-width="1.0101170654897502"/>
    <path id="ID0.4757494777441025" fill="#2C3134" stroke="none" stroke-linecap="round" d="M 187.9395 63.8165 L 197.3342 65.1661 L 211.286 76.4041 L 192.9526 98.1559 L 180.6404 98.8969 L 175.7057 98.1261 L 173.4512 94.4867 L 171.7897 90.4058 L 167.1389 85.5237 L 169.2016 80.0877 L 173.138 72.411 L 179.6604 65.5087 L 187.9395 63.8165 Z " stroke-width="0.5087011852918293"/>
  </g>
  <g id="ID0.6688785348087549">
    <path id="ID0.5368814701214433" fill="#343434" stroke="none" stroke-linecap="round" d="M 129.1344 190.1565 L 130.4465 180.0247 L 130.3613 168.7197 L 117.6848 169.8196 L 102.8871 172.0743 L 80.6565 174.0875 L 76.5046 180.0476 L 100.4722 192.8966 L 123.3027 199.3015 L 129.1344 190.1565 Z " stroke-width="0.8471283342911995"/>
    <g id="ID0.5077062323689461">
      <path id="ID0.05466862628236413" fill="#252525" stroke="none" stroke-linecap="round" d="M 162.2265 117.796 L 142.2834 104.1818 L 137.0643 119.5835 L 135.4309 124.9127 L 128.5882 139.2992 L 110.3822 171.136 L 130.168 183.9321 L 140.3613 165.9467 L 145.9984 160.0224 L 150.8142 152.9016 L 154.4792 141.1161 L 159.3606 131.1175 L 162.2265 117.796 Z " stroke-width="0.6597530586189023"/>
      <path id="ID0.5319394422695041" fill="none" stroke="#131313" stroke-width="2.1997146171461615" stroke-linecap="round" d="M 110.9834 170.431 L 130.1938 184.4512 L 136.6246 173.5043 "/>
    </g>
  </g>
  <g id="ID0.8820344842970371">
    <path id="ID0.3809091211296618" fill="#252525" stroke="none" stroke-linecap="round" d="M 187.4354 186.7958 L 227.0918 176.5549 L 208.8589 157.0727 L 173.4927 116.9334 L 164.6051 109.1135 L 152.6133 103.6767 L 148.1699 111.7552 L 137.2663 121.0338 L 154.0043 138.1585 L 163.2184 149.6837 L 187.4354 186.7958 Z " stroke-width="0.8035436656303547"/>
    <path id="ID0.9495224836282432" fill="none" stroke="#131313" stroke-width="2.1997147267116404" stroke-linecap="round" d="M 173.3125 116.8414 L 166.5777 110.3573 L 158.7135 105.8393 L 148.664 109.1413 L 143.9395 106.1194 "/>
  </g>
  <g id="ID0.7085462282411754">
    <g id="ID0.5880346246995032">
      <path id="ID0.6829322893172503" fill="#796B5E" stroke="none" stroke-linecap="round" d="M 281.4109 187.4286 L 269.8402 183.7474 L 267.3494 190.0549 L 264.0806 196.9221 L 264.9961 202.9189 L 266.3806 207.7464 L 268.9796 210.631 L 271.5345 217.469 L 276.3514 216.5003 L 277.2895 214.1618 L 278.9436 213.6851 L 281.8921 210.376 L 284.9861 206.6057 L 286.3753 201.5658 L 284.3875 194.201 L 281.4109 187.4286 Z " stroke-width="0.860103543738539"/>
      <g id="ID0.9434720128774643">
        <path id="ID0.6507829907350242" fill="#2C3134" stroke="none" stroke-linecap="round" d="M 276.8437 118.4239 L 258.8696 132.1834 L 262.975 149.7432 L 266.1407 162.8448 L 268.7238 179.7644 L 267.4383 187.4631 L 283.0605 187.7074 L 281.0691 180.0362 L 281.3974 169.4607 L 282.3548 155.9369 L 281.0663 141.8416 L 276.8437 118.4239 Z " stroke-width="0.860103543738539"/>
        <path id="ID0.9892375003546476" fill="none" stroke="#191919" stroke-width="2.106910173892899" stroke-linecap="round" d="M 282.3832 186.9734 L 267.9973 186.2577 L 269.2182 176.937 "/>
      </g>
    </g>
    <path id="ID0.7729651997797191" fill="#2C3134" stroke="none" stroke-linecap="round" d="M 272.2088 85.9801 L 247.3612 85.3897 L 250.1514 106.8196 L 254.3709 118.0567 L 255.9461 127.7913 L 258.6358 136.804 L 276.1707 133.2974 L 278.5147 126.0933 L 273.7849 100.668 L 272.2088 85.9801 Z " stroke-width="1.0101169804377628"/>
    <path id="ID0.4757494777441025" fill="#2C3134" stroke="none" stroke-linecap="round" d="M 260.0105 69.719 L 250.6761 68.001 L 233.8681 74.2008 L 244.3043 100.6648 L 255.7368 105.295 L 260.6595 106.1386 L 263.9572 103.4087 L 266.8338 100.0711 L 272.7992 96.9278 L 272.5784 91.1178 L 271.2967 82.5865 L 267.3171 73.964 L 260.0105 69.719 Z " stroke-width="0.508701167313651"/>
  </g>
  <g id="ID0.8990198895335197">
    <path id="ID0.17576928716152906" fill="#DBDBDB" stroke="none" d="M 220.973 61.517 L 221.2338 61.5334 L 221.2338 61.5334 L 220.973 61.517 L 220.973 61.517 Z " stroke-width="1.0534572489367935"/>
    <path id="ID0.4270821204409003" fill="#252525" stroke="none" stroke-linecap="round" d="M 214.9153 190.9953 L 222.6676 71.5475 L 204.3974 73.04 L 196.9952 77.2856 L 193.8305 81.4542 L 185.9845 93.2698 L 186.2619 104.4109 L 187.0115 110.2598 L 184.9622 117.5101 L 184.22 123.297 L 186.149 130.7126 L 187.6054 136.3379 L 188.4333 146.2371 L 185.8872 169.4024 L 190.8905 178.3368 L 195.6102 185.1347 L 214.9153 190.9953 Z " stroke-width="0.501595785399862"/>
    <path id="ID0.4270821204409003" fill="#252525" stroke="none" stroke-linecap="round" d="M 214.9446 191.0375 L 222.1667 71.5565 L 240.1077 75.3184 L 246.9219 80.455 L 249.5413 84.9862 L 255.8507 97.6889 L 254.1844 108.7082 L 252.7104 114.4177 L 253.8384 121.8672 L 253.8522 127.7015 L 251.0125 134.8181 L 248.8651 140.2176 L 246.8077 149.936 L 246.4415 173.2379 L 240.3619 181.4777 L 243.3692 199.0518 L 214.9446 191.0375 Z " stroke-width="0.5015958026200296"/>
    <path id="ID0.5114514343440533" fill="#282828" stroke="none" d="M 249.5709 74.5332 L 194.2795 71.0679 L 188.4195 164.5681 L 243.7109 168.0334 L 249.5709 74.5332 Z " stroke-width="1.0624883561200273"/>
    <path id="ID0.9286923445761204" fill="#D4D4D4" stroke="none" stroke-linecap="round" d="M 233.7187 58.9846 L 216.9316 38.0036 L 223.1041 58.4713 L 219.1004 101.2686 L 260.6182 72.9772 L 240.3243 60.2089 L 233.7187 58.9846 Z " stroke-width="0.5015958626722967"/>
    <path id="ID0.9286923445761204" fill="#D4D4D4" stroke="none" stroke-linecap="round" d="M 216.8181 56.7686 L 232.3524 39.2567 L 223.6727 58.7935 L 219.7503 101.0895 L 184.641 68.5021 L 206.0642 57.2847 L 216.8181 56.7686 Z " stroke-width="0.5015958626722967"/>
    <path id="ID0.39874776685610414" fill="#1F2022" stroke="none" stroke-linecap="round" d="M 242.2854 61.2244 L 220.9013 70.3833 L 202.8558 59.7209 L 198.5376 61.7243 L 220.8543 74.3961 L 246.0772 63.5425 L 242.2854 61.2244 Z " stroke-width="0.9935621547785666"/>
    <path id="ID0.13444371055811644" fill="#1F1F1F" stroke="none" stroke-linecap="round" d="M 223.1845 72.5061 L 217.7241 71.898 L 212.9106 101.9104 L 225.4484 103.2281 L 223.1845 72.5061 Z " stroke-width="1.0534572489367935"/>
    <path id="ID0.751046194229275" fill="#191919" stroke="none" stroke-linecap="round" d="M 225.9643 67.4048 L 221.2224 64.943 L 216.3822 66.8042 L 215.3937 75.2249 L 219.9182 76.5615 L 225.4348 75.8542 L 225.9643 67.4048 Z " stroke-width="1.1588030157999438"/>
    <path id="ID0.7854711129330099" fill="#282828" stroke="none" stroke-linecap="round" d="M 233.8583 90.9489 L 218.672 99.3041 L 204.9749 88.0751 L 205.8994 106.7469 L 230.1545 108.2671 L 233.8583 90.9489 Z " stroke-width="1.0534572489367935"/>
    <path id="ID0.562834897544235" fill="#282828" stroke="none" stroke-linecap="round" d="M 246.5847 167.7978 L 215.4087 159.7279 L 214.064 181.1826 L 228.3255 183.406 L 246.5847 167.7978 Z " stroke-width="1.0534572489367935"/>
    <path id="ID0.562834897544235" fill="#282828" stroke="none" stroke-linecap="round" d="M 183.1754 164.2029 L 215.1151 160.0886 L 213.7704 181.5434 L 199.343 181.9687 L 183.1754 164.2029 Z " stroke-width="1.0534572489367935"/>
    <path id="ID0.6824178956449032" fill="none" stroke="#191919" stroke-width="2.106914497873587" stroke-linecap="round" d="M 218.927 99.6517 L 214.0914 180.9841 "/>
    <path id="ID0.4144489667378366" fill="#40474C" stroke="none" stroke-linecap="round" d="M 261.3667 69.8044 L 240.7725 60.0045 L 242.4579 83.2446 L 235.0833 146.6016 L 242.0225 194.635 L 253.8301 190.0568 L 253.8585 193.7813 L 253.9161 142.7296 L 261.7434 97.2171 L 263.8656 80.0658 L 261.3667 69.8044 Z " stroke-width="1.0534572489367935"/>
    <path id="ID0.5234400681219995" fill="#101010" stroke="none" d="M 216.2278 105.3767 C 215.7973 105.3497 215.3958 105.5028 215.0952 105.7721 C 214.7946 106.0414 214.5949 106.4269 214.5675 106.8641 C 214.5401 107.3013 214.6901 107.7087 214.9547 108.0135 C 215.2194 108.3182 215.5986 108.5202 216.0291 108.5472 C 216.4596 108.5742 216.8611 108.4211 217.1617 108.1518 C 217.4623 107.8825 217.662 107.4969 217.6894 107.0598 C 217.7168 106.6226 217.5668 106.2151 217.3022 105.9104 C 217.0376 105.6057 216.6583 105.4036 216.2278 105.3767 Z " stroke-width="0.6636780913406511"/>
    <path id="ID0.5234400681219995" fill="#101010" stroke="none" d="M 215.2778 119.7767 C 214.8473 119.7497 214.4458 119.9028 214.1452 120.1721 C 213.8446 120.4414 213.6449 120.8269 213.6175 121.2641 C 213.5901 121.7013 213.7401 122.1087 214.0047 122.4135 C 214.2694 122.7182 214.6486 122.9202 215.0791 122.9472 C 215.5096 122.9742 215.9111 122.8211 216.2117 122.5518 C 216.5123 122.2825 216.712 121.8969 216.7394 121.4598 C 216.7668 121.0226 216.6168 120.6151 216.3522 120.3104 C 216.0876 120.0057 215.7083 119.8036 215.2778 119.7767 Z " stroke-width="0.6636780913406511"/>
    <path id="ID0.5234400681219995" fill="#101010" stroke="none" d="M 213.1778 153.2267 C 212.7473 153.1997 212.3458 153.3528 212.0452 153.6221 C 211.7446 153.8914 211.5449 154.2769 211.5175 154.7141 C 211.4901 155.1513 211.6401 155.5587 211.9047 155.8635 C 212.1694 156.1682 212.5486 156.3702 212.9791 156.3972 C 213.4096 156.4242 213.8111 156.2711 214.1117 156.0018 C 214.4123 155.7325 214.612 155.3469 214.6394 154.9098 C 214.6668 154.4726 214.5168 154.0651 214.2522 153.7604 C 213.9876 153.4557 213.6083 153.2536 213.1778 153.2267 Z " stroke-width="0.6636780913406511"/>
    <path id="ID0.5234400681219995" fill="#101010" stroke="none" d="M 214.2278 137.4767 C 213.7973 137.4497 213.3958 137.6028 213.0952 137.8721 C 212.7946 138.1414 212.5949 138.5269 212.5675 138.9641 C 212.5401 139.4013 212.6901 139.8087 212.9547 140.1135 C 213.2194 140.4182 213.5986 140.6202 214.0291 140.6472 C 214.4596 140.6742 214.8611 140.5211 215.1617 140.2518 C 215.4623 139.9825 215.662 139.5969 215.6894 139.1598 C 215.7168 138.7226 215.5668 138.3151 215.3022 138.0104 C 215.0376 137.7057 214.6583 137.5036 214.2278 137.4767 Z " stroke-width="0.6636780913406511"/>
    <path id="ID0.5234400681219995" fill="#101010" stroke="none" d="M 212.4278 168.0767 C 211.9973 168.0497 211.5958 168.2028 211.2952 168.4721 C 210.9946 168.7414 210.7949 169.1269 210.7675 169.5641 C 210.7401 170.0013 210.8901 170.4087 211.1547 170.7135 C 211.4194 171.0182 211.7986 171.2202 212.2291 171.2472 C 212.6596 171.2742 213.0611 171.1211 213.3617 170.8518 C 213.6623 170.5825 213.862 170.1969 213.8894 169.7598 C 213.9168 169.3226 213.7668 168.9151 213.5022 168.6104 C 213.2376 168.3057 212.8583 168.1036 212.4278 168.0767 Z " stroke-width="0.6636780913406511"/>
    <path id="ID0.4144489667378366" fill="#40474C" stroke="none" stroke-linecap="round" d="M 184.8941 64.1807 L 206.5508 57.0288 L 201.9769 79.8766 L 201.3833 143.6586 L 188.5011 190.4497 L 177.3575 184.4331 L 176.8643 188.1249 L 183.1813 137.4655 L 181.0978 91.3319 L 181.1336 74.0498 L 184.8941 64.1807 Z " stroke-width="1.0534572489367935"/>
    <path id="ID0.8752945330925286" fill="none" stroke="#222222" stroke-width="2.106914497873587" stroke-linecap="round" d="M 260.8285 70.0366 L 263.7044 78.4602 L 257.8072 118.2435 "/>
    <path id="ID0.8752945330925286" fill="none" stroke="#222222" stroke-width="2.106914497873587" stroke-linecap="round" d="M 184.6991 64.7783 L 180.794 72.7769 L 181.6779 112.9852 "/>
    <path id="ID0.5234400681219995" fill="#101010" stroke="none" d="M 237.2778 155.3767 C 236.8473 155.3497 236.4458 155.5028 236.1452 155.7721 C 235.8446 156.0414 235.6449 156.4269 235.6175 156.8641 C 235.5901 157.3013 235.7401 157.7087 236.0047 158.0135 C 236.2694 158.3182 236.6486 158.5202 237.0791 158.5472 C 237.5096 158.5742 237.9111 158.4211 238.2117 158.1518 C 238.5123 157.8825 238.712 157.4969 238.7394 157.0598 C 238.7668 156.6226 238.6168 156.2151 238.3522 155.9104 C 238.0876 155.6057 237.7083 155.4036 237.2778 155.3767 Z " stroke-width="0.6636780913406511"/>
    <path id="ID0.5234400681219995" fill="#101010" stroke="none" d="M 238.2778 163.1767 C 237.8473 163.1497 237.4458 163.3028 237.1452 163.5721 C 236.8446 163.8414 236.6449 164.2269 236.6175 164.6641 C 236.5901 165.1013 236.7401 165.5087 237.0047 165.8135 C 237.2694 166.1182 237.6486 166.3202 238.0791 166.3472 C 238.5096 166.3742 238.9111 166.2211 239.2117 165.9518 C 239.5123 165.6825 239.712 165.2969 239.7394 164.8598 C 239.7668 164.4226 239.6168 164.0151 239.3522 163.7104 C 239.0876 163.4057 238.7083 163.2036 238.2778 163.1767 Z " stroke-width="0.6636780913406511"/>
    <g id="ID0.20783481979742646">
      <path id="ID0.5848579816520214" fill="#737373" stroke="none" stroke-linecap="round" d="M 193.8452 94.9544 L 186.7986 92.9173 L 186.644 97.0558 L 194.1742 98.0596 L 193.8452 94.9544 Z " stroke-width="1.0534572489367935"/>
      <path id="ID0.13105127029120922" fill="none" stroke="#222222" stroke-width="2.106914497873587" stroke-linecap="round" d="M 195.566 98.4128 L 190.8715 98.1185 L 185.4941 96.186 "/>
    </g>
  </g>
  <path id="ID0.46110434643924236" fill="#675B50" stroke="none" stroke-linecap="round" d="M 236.3963 39.4698 L 212.8039 37.9911 L 211.0579 58.038 L 217.3307 61.4625 L 235.0617 60.7656 L 236.3963 39.4698 Z " stroke-width="1.144406894210797"/>
  <g id="ID0.9597035455517471">
    <path id="ID0.5368814701214433" fill="#404040" stroke="none" stroke-linecap="round" d="M 142.4634 216.0959 L 143.6057 205.9436 L 143.3314 194.6416 L 130.675 195.9535 L 115.9171 198.4555 L 93.7233 200.8405 L 89.6718 206.8693 L 113.8511 219.3153 L 136.7855 225.3373 L 142.4634 216.0959 Z " stroke-width="0.8471282696657984"/>
    <g id="ID0.5077062323689461">
      <path id="ID0.05466862628236413" fill="#252525" stroke="none" stroke-linecap="round" d="M 173.42 142.0035 L 152.9187 129.2455 L 148.356 144.8542 L 146.9496 150.2478 L 140.7219 164.911 L 123.8794 197.4896 L 144.1889 209.437 L 153.612 191.0363 L 158.9933 184.8789 L 163.5036 177.5606 L 166.6666 165.6306 L 171.1205 155.4343 L 173.42 142.0035 Z " stroke-width="0.6597530406986021"/>
      <path id="ID0.5319394422695041" fill="none" stroke="#131313" stroke-width="2.1997147942511126" stroke-linecap="round" d="M 124.5151 196.7528 L 144.3015 209.9475 L 150.2634 198.7383 "/>
    </g>
  </g>
  <g id="ID0.8820344842970371">
    <path id="ID0.3809091211296618" fill="#252525" stroke="none" stroke-linecap="round" d="M 212.2891 210.2892 L 245.5137 200.2758 L 226.3812 181.6763 L 189.1592 143.2516 L 179.9123 135.86 L 167.6772 130.9955 L 163.6202 139.2748 L 151.6897 148.4703 L 168.558 167.6012 L 178.203 178.2887 L 212.2891 210.2892 Z " stroke-width="0.8035436602052097"/>
    <path id="ID0.9495224836282432" fill="none" stroke="#131313" stroke-width="2.1997145314683637" stroke-linecap="round" d="M 188.913 143.3313 L 181.8797 137.1724 L 173.8109 133.0308 L 163.9285 136.8036 L 159.0666 134.0082 "/>
  </g>
  <path id="ID0.7592270169407129" fill="none" stroke="#675B50" stroke-width="1.0984285503186564" stroke-linecap="round" d="M 213.5146 54.0106 C 213.5146 54.0106 213.3638 54.7595 213.4142 55.1311 C 213.4628 55.4918 213.7277 55.7987 213.8043 56.1546 C 213.8811 56.5127 213.8022 56.8917 213.8703 57.2514 C 213.9376 57.6091 214.0203 57.9785 214.2078 58.2915 C 214.3672 58.5577 214.8819 58.9391 214.8819 58.9391 "/>
  <path id="ID0.48112139804288745" fill="#3A3A3A" stroke="#3A3A3A" stroke-width="2.036267614602375" stroke-linecap="round" d="M 202.4449 12.8138 C 201.7705 13.1341 202.3267 14.6492 202.0036 15.4704 C 201.7442 16.1298 201.0369 16.5826 200.8517 17.2664 C 200.6747 17.9224 200.8803 18.6292 200.9671 19.3025 C 201.211 21.2026 200.9935 23.682 201.8416 25.1941 C 202.1874 25.717 202.9177 23.9709 203.3547 23.3725 C 204.2464 22.173 205.1971 20.9207 205.8223 19.6398 C 206.1204 19.0288 206.1108 18.3102 206.218 17.6392 C 206.3238 16.9732 206.7032 16.2583 206.4604 15.6279 C 206.2142 14.9882 205.4766 14.651 204.9126 14.2528 C 204.1773 13.7343 203.225 12.5253 202.4449 12.8138 Z "/>
  <path id="ID0.05099705280736089" fill="#1C1916" stroke="#1C1916" stroke-width="2.1621457590847695" stroke-linecap="round" d="M 238.1878 35.052 C 238.5188 35.2484 237.978 36.4706 237.7601 37.2835 C 237.5733 37.979 237.1008 38.5793 236.6493 39.1444 C 236.1967 39.7106 235.6234 40.1768 235.0725 40.65 C 234.5216 41.1232 233.9201 41.539 233.344 41.9835 C 232.7678 42.428 232.3411 43.4051 231.6155 43.317 C 230.8898 43.2289 230.343 42.3253 230.2619 41.6079 C 230.1005 40.1797 230.3712 38.6695 230.9396 37.348 C 231.2256 36.6841 232.0472 36.3956 232.6681 36.0145 C 233.2878 35.6344 233.933 35.2474 234.6419 35.0749 C 235.6769 34.8227 236.9596 34.1441 237.8265 34.7577 Z "/>
  <path id="ID0.8999492498114705" fill="#796B5E" stroke="none" stroke-linecap="round" d="M 215.8214 3.9384 C 211.0058 4.1197 205.6684 6.6673 203.0651 10.6673 C 200.0945 15.2343 201.3704 21.3359 201.0945 26.7109 C 200.9744 29.0695 201.6125 31.5454 202.0051 33.9402 C 202.5638 37.3427 203.2929 40.6131 203.8902 43.8903 C 204.2373 45.8799 203.7393 48.192 204.8402 49.7547 C 206.5918 52.2401 208.999 54.8263 211.976 55.5019 C 215.4162 56.2819 218.9598 54.514 222.4077 53.683 C 224.1406 53.2077 226.2104 52.9543 227.4558 51.5994 C 230.1251 48.6903 231.6503 44.8479 233.4021 41.3729 C 235.2412 37.7251 237.9144 34.2244 238.2566 30.1132 C 238.838 23.1161 240.6422 14.5705 235.834 9.1579 C 231.557 3.9709 222.98 3.6721 215.8214 3.9384 Z " stroke-width="0.5492253946170447"/>
  <path id="ID0.8194515448994935" fill="#796B5E" stroke="none" stroke-linecap="round" d="M 238.5532 26.134 C 237.6198 26.1629 236.9067 26.726 236.2776 27.8226 C 235.6485 28.9191 235.1989 30.4621 235.0787 32.1916 C 234.9586 33.9211 235.1905 35.5114 235.662 36.6845 C 236.1334 37.8575 236.7649 38.4849 237.6822 38.6714 C 238.5243 38.8408 239.6481 38.457 240.0901 37.762 C 240.9385 36.2079 240.9406 34.2947 241.1566 32.6138 C 241.3695 30.9618 241.8869 29.1652 241.34 27.6197 C 240.8837 26.6685 239.5313 26.104 238.5532 26.134 Z " stroke-width="1.0810728795423847"/>
  <path id="ID0.7592270169407129" fill="none" stroke="#675B50" stroke-width="1.0984507892340893" stroke-linecap="round" d="M 215.7654 46.8628 C 215.7654 46.8628 215.0648 47.1856 214.6875 47.2256 C 214.3213 47.2647 213.9566 47.0834 213.5885 47.0945 C 213.2181 47.106 212.8642 47.2718 212.4944 47.292 C 212.1267 47.3124 211.7438 47.3208 211.3916 47.2154 C 211.092 47.1257 210.5948 46.7224 210.5948 46.7224 "/>
  <path id="ID0.7788236327469349" fill="#FFFFFF" stroke="none" stroke-linecap="round" d="M 225.9974 26.9699 L 224.5471 26.6538 L 222.1237 26.2162 L 219.7828 26.1613 L 219.2897 28.5497 L 222.0127 29.3849 L 227.4877 29.0654 L 225.9974 26.9699 Z " stroke-width="1.0810728795423847"/>
  <path id="ID0.7788236327469349" fill="#FFFFFF" stroke="none" stroke-linecap="round" d="M 206.2089 25.5673 L 208.0949 25.1061 L 210.2113 25.2531 L 212.5373 25.5224 L 212.6954 27.956 L 209.8831 28.4067 L 204.8698 27.5739 L 206.2089 25.5673 Z " stroke-width="1.0810728795423847"/>
  <path id="ID0.2118154256604612" fill="#1C1916" stroke="#1C1916" stroke-width="2.1621457590847695" stroke-linecap="round" d="M 239.6855 23.9178 C 239.6775 24.4718 239.2216 26.9381 238.2912 28.2894 C 237.948 28.7878 237.8038 26.8752 237.5101 26.1894 C 237.2259 25.5246 236.8248 24.9089 236.5551 24.2387 C 236.2668 23.522 236.0425 22.7786 235.8357 22.0352 C 235.6349 21.315 235.4832 20.5787 235.3334 19.8469 C 235.1851 19.1238 235.1466 18.3749 234.9396 17.666 C 234.7336 16.9583 234.3982 16.2911 234.1005 15.6158 C 233.8017 14.9403 233.6885 14.1217 233.1492 13.6115 C 232.5946 13.0863 231.789 12.8301 231.0307 12.7106 C 230.3035 12.5966 229.5652 12.8629 228.8339 12.9349 C 228.0664 13.0097 227.2926 13.0496 226.5287 13.1516 C 225.789 13.2499 225.0494 13.3783 224.3208 13.5366 C 223.611 13.6908 222.9141 13.9115 222.2103 14.0898 C 221.4732 14.2766 220.7189 14.4126 219.9912 14.6355 C 219.287 14.8515 218.6373 15.2392 217.9201 15.4069 C 217.2051 15.5736 216.4272 15.8448 215.7234 15.6311 C 215.0163 15.4162 214.5963 14.6807 214.0219 14.2208 C 213.4433 13.7586 212.9028 13.2343 212.2624 12.8604 C 211.6357 12.4949 210.951 12.2093 210.2487 12.0206 C 209.0581 11.7021 207.6974 11.179 206.3676 11.3741 C 205.0937 11.5634 203.4797 13.6349 202.811 13.119 C 202.1769 12.6248 203.3476 10.5441 204.0016 9.3254 C 204.708 8.0113 205.732 6.8496 206.8595 5.863 C 207.9463 4.9124 209.1899 4.0599 210.5618 3.5899 C 211.9538 3.1127 213.4883 3.1902 214.9589 3.0878 C 215.6822 3.0369 216.4115 3.1521 217.137 3.1315 C 217.8692 3.1102 218.5971 2.9465 219.33 2.9608 C 220.7785 2.9893 222.255 2.9594 223.6713 3.2624 C 225.1458 3.5769 226.5044 4.3023 227.9271 4.7963 C 228.632 5.0412 229.365 5.2117 230.0605 5.4829 C 231.4355 6.0199 232.8063 6.5856 234.1385 7.2198 C 234.7962 7.5325 235.5133 7.8063 236.0251 8.3199 C 236.5655 8.8614 236.7597 9.6609 237.1973 10.2857 C 237.6209 10.8901 238.2598 11.3479 238.6051 11.9986 C 238.9637 12.676 239.1161 13.4489 239.2702 14.1983 C 239.4159 14.9104 239.4873 15.6411 239.5011 16.3678 C 239.5147 17.0826 239.3114 17.7964 239.3523 18.5109 C 239.3938 19.2471 239.6177 19.9647 239.746 20.6918 C 239.8517 21.2903 240.1718 21.8939 240.0573 22.49 Z "/>
  <path id="ID0.5261953212320805" fill="none" stroke="#1C1916" stroke-width="2.1621461551082137" stroke-linecap="round" d="M 228.5915 24.4723 C 228.5915 24.4723 227.9937 23.0135 227.4273 22.4965 C 226.8855 22.0016 226.1315 21.7637 225.4206 21.5751 C 224.7098 21.3865 223.9481 21.4956 223.2211 21.3805 C 221.8592 21.1636 219.1563 20.5798 219.1563 20.5798 "/>
  <path id="ID0.5261953212320805" fill="none" stroke="#1C1916" stroke-width="2.162146070246755" stroke-linecap="round" d="M 203.022 22.4077 C 203.022 22.4077 203.7893 21.0304 204.4132 20.5845 C 205.0101 20.1577 205.7871 20.0113 206.5154 19.9087 C 207.2436 19.8061 207.9869 20.0051 208.7224 19.9774 C 210.1004 19.9243 212.8537 19.6666 212.8537 19.6666 "/>
  <path id="ID0.8619630038738251" fill="none" stroke="#675B50" stroke-width="1.2706583575854684" stroke-linecap="round" d="M 215.0707 26.9179 C 215.0707 26.9179 214.4886 29.9927 214.2092 31.4774 C 214.05 32.3111 214.1554 33.2663 213.6834 33.972 C 213.1126 34.7708 211.9033 34.6672 211.5648 35.4068 C 211.1244 36.1741 210.8998 37.6354 211.6471 37.912 C 212.7831 38.332 213.9545 36.9516 215.2405 36.9277 C 215.931 36.9156 217.0631 37.9086 217.0631 37.9086 "/>
  <path id="ID0.6736386958509684" fill="none" stroke="#675B50" stroke-width="1.355375177249536" stroke-linecap="round" d="M 228.0789 35.5337 C 228.0789 35.5337 227.4371 36.2991 227.0788 36.6454 C 226.7519 36.9615 226.3589 37.2063 226.0269 37.5173 C 225.6876 37.8353 225.3138 38.138 225.0678 38.5306 C 224.818 38.9284 224.6143 39.38 224.5662 39.8457 C 224.4376 41.097 224.543 43.624 224.543 43.624 "/>
  <path id="ID0.18298013787716627" fill="#1C1916" stroke="#1C1916" stroke-width="2.1621457590847695" stroke-linecap="round" d="M 229.9766 12.0481 C 230.4227 12.2987 230.8693 13.3268 230.6417 14.2478 C 230.2811 15.7033 228.8022 17.1639 228.9873 18.4398 C 229.0789 19.0675 230.4947 18.3109 231.1952 18.0548 C 231.8778 17.8051 232.4589 17.3362 233.0716 16.9469 C 233.7321 16.5277 234.5912 16.2805 235.0171 15.6285 C 235.4113 15.026 235.5541 14.1788 235.3288 13.4967 C 235.1028 12.8102 234.4226 12.3182 233.8013 11.9369 C 233.1664 11.5472 232.4038 11.379 231.6679 11.2504 C 231.3565 11.1964 230.8317 11.1051 230.7305 11.4006 Z "/>
  <path id="ID0.7592270169407129" fill="none" stroke="#675B50" stroke-width="1.098444797157899" stroke-linecap="round" d="M 215.1907 20.2709 C 215.1907 20.2709 214.8984 20.9776 214.8764 21.3517 C 214.8547 21.7148 215.0558 22.0657 215.0625 22.4293 C 215.0689 22.7952 214.9185 23.1524 214.9161 23.5181 C 214.9133 23.8818 214.9235 24.2598 215.0473 24.6021 C 215.1526 24.8933 215.5847 25.3641 215.5847 25.3641 "/>
  <path id="ID0.48112139804288745" fill="#3A3A3A" stroke="#3A3A3A" stroke-width="2.036267614602375" stroke-linecap="round" d="M 239.4872 16.9084 C 240.1109 17.3188 239.3506 18.7425 239.557 19.6005 C 239.7227 20.2894 240.3606 20.8357 240.4494 21.5385 C 240.534 22.2126 240.2327 22.8843 240.0536 23.5391 C 239.5493 25.3872 239.4218 27.8729 238.3728 29.2532 C 237.9581 29.7233 237.4762 27.8929 237.1261 27.2399 C 236.4089 25.9285 235.6405 24.5569 235.1985 23.2018 C 234.9876 22.5554 235.0965 21.845 235.0831 21.1657 C 235.0704 20.4915 234.7935 19.731 235.1211 19.1402 C 235.4535 18.5407 236.2306 18.3087 236.8442 17.9924 C 237.6442 17.5805 238.7545 16.5148 239.4872 16.9084 Z "/>
  <path id="ID0.7766774026677012" fill="#0D0D0D" stroke="#0D0D0D" stroke-width="1.8086520039145781" stroke-linecap="round" d="M 1 195.2018 C 1.718 168.513 0.989 140.7886 12 115.2773 C 16.164 105.6321 31.459 101.1874 43.5 97.7377 C 48.996 96.1655 54.566 100.1119 60 101.5247 C 61.543 101.9225 62.688 102.7572 64 103.3185 C 65.857 103.9539 67.811 104.4362 69.5 105.1123 C 70.098 105.3531 70.7 105.5907 71.25 105.9096 C 71.9 106.1886 72.4 106.5872 73 106.9061 C 74.25 107.5041 75.5 108.1419 76.75 108.6999 C 78 109.1783 79.3 109.5769 80.5 110.0951 C 81.1 110.3343 81.75 110.5336 82.25 110.8924 C 82.85 111.2512 83.25 111.8092 83.75 112.2876 C 84.25 112.6862 84.75 113.0848 85.25 113.4835 C 85.75 113.8422 86.4 114.201 86.75 114.6793 C 87.15 115.1178 87.25 115.7158 87.5 116.2738 C 87.75 116.7921 88.05 117.3103 88.25 117.8683 C 88.7 118.9048 89.1 119.9811 89.5 121.0574 C 89.75 121.5756 90 122.0938 90.25 122.6519 C 90.5 123.1701 90.75 123.6883 91 124.2464 C 91.25 124.7646 91.5 125.2828 91.75 125.8409 C 92 126.3591 92.35 126.8773 92.5 127.4354 C 92.7 127.9536 92.7 128.4718 92.75 129.0299 C 92.85 129.5481 92.95 130.0663 93 130.6244 C 93.1 131.1426 93.15 131.6608 93.25 132.2189 C 93.4 132.7371 93.65 133.2553 93.75 133.8134 C 94.2 135.368 94.6 137.0024 95 138.5969 C 95.15 139.1151 95.4 139.6333 95.5 140.1914 C 95.65 140.7096 95.7 141.2278 95.75 141.7859 C 95.85 142.3041 96 142.8223 96 143.3804 C 96.05 143.8986 96 144.4168 96 144.9749 C 96 146.0114 96.1 147.0876 96 148.1639 C 96 148.6821 95.8 148.9213 95.75 149.7584 C 95.7 152.9873 95.75 156.256 95.75 159.5248 C 95.75 162.6739 95.75 165.9028 95.75 169.0918 C 95.75 170.6464 95.7 172.2808 95.75 173.8753 C 95.8 174.3935 95.9 174.9117 96 175.4698 C 96.25 176.6657 96.6 177.8217 96.75 179.0575 C 96.85 179.5757 96.75 180.0939 96.75 180.652 C 96.8 181.1702 96.95 181.6884 97 182.2465 C 97.2 183.2829 97.45 184.3592 97.5 185.4355 C 97.6 186.4719 97.5 187.5482 97.5 188.6245 C 97.5 191.7736 97.5 195.0025 97.5 198.1915 C 97.5 198.9489 97.45 199.2279 97.5 199.786 C 97.6 200.3042 97.9 200.8224 98 201.3805 C 98.35 202.9352 98.5 204.5695 98.75 206.164 C 98.85 206.6822 98.9 207.2005 99 207.7585 C 99.3 208.8747 99.75 209.9908 100 211.1469 C 100.15 211.7049 100.2 212.3427 100.25 212.9407 C 100.35 213.4987 100.5 214.0967 100.5 214.7345 C 100.55 215.2527 100.5 215.7709 100.5 216.329 C 100.5 216.8472 100.6 217.3654 100.5 217.9235 C 100.35 218.9599 100 220.0362 99.75 221.1125 C 99.65 221.6307 99.55 222.1489 99.5 222.707 C 99.5 223.2252 99.5 223.7434 99.5 224.3015 C 99.5 224.8197 99.5 225.3379 99.5 225.896 C 99.6 226.9324 99.6 228.0087 99.75 229.085 C 99.95 230.0816 100.5 232.0747 100.5 232.0747 C 100.75 232.4733 101.372 234.7423 101.75 235.8617 C 101.955 236.47 102.277 237.0512 102.5 237.6555 C 102.694 238.1809 102.833 238.719 103 239.25 C 103.167 239.781 103.373 240.3064 103.5 240.8445 C 103.624 241.3707 103.626 241.9128 103.75 242.439 C 103.877 242.9771 104.045 243.5113 104.25 244.0335 C 104.462 244.5748 104.827 245.0779 105 245.628 C 105.163 246.147 105.167 246.6915 105.25 247.2225 C 105.333 247.7535 105.417 248.286 105.5 248.817 C 105.583 249.348 105.667 249.8806 105.75 250.4115 C 105.833 250.9425 105.972 251.4711 106 252.006 C 106.055 253.0672 105.945 254.1339 106 255.195 C 106.028 255.73 106.167 256.2586 106.25 256.7895 C 106.333 257.3205 106.472 257.8491 106.5 258.384 C 106.555 259.4452 106.528 260.5111 106.5 261.5731 C 106.444 263.6977 106.317 265.8272 106.25 267.9511 C 106.233 268.482 106.25 269.0146 106.25 269.5456 C 106.25 270.0765 106.208 270.6099 106.25 271.1401 C 106.292 271.6742 106.376 272.2084 106.5 272.7346 C 106.627 273.2727 106.915 273.7862 107 274.3291 C 107.083 274.8561 106.958 275.3934 107 275.9236 C 107.042 276.4578 107.208 276.9839 107.25 277.5181 C 107.292 278.0483 107.208 278.5824 107.25 279.1126 C 107.292 279.6468 107.376 280.1809 107.5 280.7071 C 107.627 281.2453 107.873 281.7635 108 282.3016 C 108.124 282.8278 108.126 283.3699 108.25 283.8961 C 108.377 284.4343 108.637 284.9509 108.75 285.4906 C 108.971 286.5462 109.083 287.6177 109.25 288.6796 C 109.333 289.2106 109.417 289.7432 109.5 290.2741 C 109.583 290.8051 109.708 291.3345 109.75 291.8686 C 109.792 292.3988 109.792 292.933 109.75 293.4631 C 109.708 293.9973 109.528 294.5227 109.5 295.0576 C 109.445 296.1188 109.335 297.1927 109.5 298.2467 C 109.67 299.3325 110.116 300.3849 110.5 301.4357 C 110.699 301.9802 111.038 302.4888 111.25 303.0302 C 111.455 303.5524 111.545 304.1025 111.75 304.6247 C 111.962 305.166 112.369 305.6619 112.5 306.2192 C 112.623 306.7414 112.892 307.384 112.5 307.8137 C 112.082 308.2721 111.206 308.3415 110.5 308.4116 C 109.834 308.4778 109.171 308.2123 108.5 308.2123 C 107.829 308.2123 107.171 308.4116 106.5 308.4116 C 105.829 308.4116 105.17 308.2458 104.5 308.2123 C 103.835 308.1788 103.161 308.1461 102.5 308.2123 C 101.819 308.2801 101.122 308.3797 100.5 308.6109 C 99.851 308.8525 99.429 309.4273 98.75 309.6075 C 98.118 309.7757 97.416 309.6075 96.75 309.6075 C 96.084 309.6075 95.411 309.6737 94.75 309.6075 C 94.069 309.5397 93.431 309.2766 92.75 309.2089 C 92.089 309.1427 91.415 309.1754 90.75 309.2089 C 90.08 309.2424 89.42 309.3747 88.75 309.4082 C 88.085 309.4417 87.411 309.342 86.75 309.4082 C 86.069 309.476 85.431 309.739 84.75 309.8068 C 84.089 309.873 83.415 309.7733 82.75 309.8068 C 82.08 309.8403 81.416 309.94 80.75 310.0061 C 80.084 310.0723 79.421 310.2222 78.75 310.2054 C 76.746 310.1552 74.751 309.9065 72.75 309.8068 C 72.085 309.7733 71.415 309.7733 70.75 309.8068 C 70.08 309.8403 69.421 309.9838 68.75 310.0061 C 67.419 310.05 66.081 309.9623 64.75 310.0061 C 64.079 310.0284 63.42 310.172 62.75 310.2054 C 62.085 310.2389 61.415 310.2389 60.75 310.2054 C 60.08 310.172 59.42 310.0396 58.75 310.0061 C 58.085 309.9726 57.415 310.0396 56.75 310.0061 C 56.08 309.9726 55.419 309.8515 54.75 309.8068 C 53.42 309.7183 52.085 309.6075 50.75 309.6075 C 50.079 309.6075 49.41 309.708 48.75 309.8068 C 48.075 309.9081 47.431 310.1377 46.75 310.2054 C 46.089 310.2716 45.416 310.2054 44.75 310.2054 C 42.752 310.2054 40.747 310.156 38.75 310.2054 C 38.079 310.2222 37.42 310.3713 36.75 310.4047 C 36.085 310.4382 35.415 310.4382 34.75 310.4047 C 34.08 310.3713 33.416 310.2716 32.75 310.2054 C 32.084 310.1393 31.42 310.0396 30.75 310.0061 C 30.085 309.9726 29.405 310.1042 28.75 310.0061 C 28.051 309.9017 28.346 309.7438 26.75 309.4082 C 20.367 308.0656 8.928 310.6264 7.35 305.4618 C 1.723 287.0349 9.575 267.2638 8.5 248.2191 C 7.508 230.6843 0.545 213.0435 1 195.2018 Z "/>
  <g id="ID0.15551237482577562">
    <path id="ID0.036129117012023926" fill="#5E3B21" stroke="none" d="M 222.0995 26.2693 C 221.6578 26.2386 221.245 26.3876 220.9354 26.6536 C 220.6257 26.9196 220.4192 27.3025 220.3889 27.7387 C 220.3586 28.1748 220.5102 28.5826 220.7801 28.8889 C 221.05 29.1951 221.4382 29.3998 221.8799 29.4304 C 222.3217 29.4611 222.7344 29.3121 223.0441 29.0462 C 223.3537 28.7802 223.5603 28.3972 223.5906 27.9611 C 223.6209 27.525 223.4693 27.1171 223.1994 26.8109 C 222.9295 26.5046 222.5413 26.3 222.0995 26.2693 Z " stroke-width="1.0810728037430055"/>
    <path id="ID0.9171876185573637" fill="#191009" stroke="none" d="M 221.6017 27.0875 C 221.377 27.0719 221.1678 27.1478 221.0101 27.2833 C 220.8523 27.4188 220.7472 27.6128 220.7318 27.8346 C 220.7164 28.0565 220.7937 28.2632 220.9312 28.4192 C 221.0686 28.5751 221.2653 28.6793 221.49 28.6949 C 221.7147 28.7105 221.9239 28.6346 222.0816 28.4991 C 222.2393 28.3636 222.3444 28.1696 222.3598 27.9477 C 222.3752 27.7259 222.298 27.5192 222.1605 27.3632 C 222.023 27.2072 221.8263 27.1031 221.6017 27.0875 Z " stroke-width="1.0810728037430055"/>
  </g>
  <g id="ID0.6915994533337653">
    <path id="ID0.036129117012023926" fill="#5E3B21" stroke="none" d="M 207.8012 25.5358 C 207.3595 25.5051 206.9467 25.6541 206.6371 25.9201 C 206.3274 26.186 206.1208 26.569 206.0905 27.0051 C 206.0602 27.4413 206.2119 27.8491 206.4818 28.1554 C 206.7517 28.4616 207.1399 28.6662 207.5816 28.6969 C 208.0233 28.7276 208.4361 28.5786 208.7458 28.3127 C 209.0554 28.0467 209.262 27.6637 209.2923 27.2276 C 209.3226 26.7914 209.171 26.3836 208.9011 26.0774 C 208.6312 25.7711 208.2429 25.5665 207.8012 25.5358 Z " stroke-width="1.0810728037430055"/>
    <path id="ID0.9171876185573637" fill="#191009" stroke="none" d="M 207.3535 26.3041 C 207.1288 26.2885 206.9196 26.3644 206.7619 26.4999 C 206.6041 26.6354 206.499 26.8294 206.4836 27.0512 C 206.4682 27.2731 206.5455 27.4798 206.683 27.6358 C 206.8204 27.7918 207.0171 27.8959 207.2418 27.9115 C 207.4665 27.9271 207.6757 27.8512 207.8334 27.7157 C 207.9911 27.5802 208.0962 27.3862 208.1116 27.1643 C 208.127 26.9425 208.0498 26.7358 207.9123 26.5798 C 207.7748 26.4238 207.5781 26.3197 207.3535 26.3041 Z " stroke-width="1.0810728037430055"/>
  </g>
  <path id="ID0.8256730306893587" fill="none" stroke="#675B50" stroke-width="1.0984503945342317" stroke-linecap="round" d="M 208.6213 44.7447 C 208.6213 44.7447 209.9722 44.1509 210.6826 44.2387 C 211.3506 44.2694 211.8141 45.0359 212.5051 45.0786 C 213.3255 45.1289 214.068 44.442 214.8873 44.4444 C 216.1943 44.9156 217.6983 45.3973 217.6983 45.3973 "/>
</svg>