<svg xmlns="http://www.w3.org/2000/svg" xmlns:xlink="http://www.w3.org/1999/xlink" version="1.1" width="124.28801702184617" height="267.1130597464556" viewBox="0.863380438471139 5.131341582918465 124.28801702184617 267.1130597464556">
  <!-- Exported by Scratch - http://scratch.mit.edu/ -->
  <path id="ID0.7766774026677012" fill="#0D0D0D" stroke="#0D0D0D" stroke-width="1.9914777152055492" stroke-linecap="round" d="M 122.4737 130.5074 C 123.9362 97.3418 126.927 62.986 118.0226 30.6059 C 114.655 18.3637 99.7559 11.8442 88.0225 6.7729 C 82.6667 4.4611 76.7865 8.9926 71.2489 10.3889 C 69.6768 10.7813 68.4661 11.742 67.1111 12.3523 C 65.2062 13.0189 63.2171 13.4892 61.4765 14.2172 C 60.8601 14.4767 60.24 14.732 59.6652 15.0916 C 58.9938 15.3952 58.4623 15.8571 57.8376 16.2134 C 56.5415 16.8733 55.2421 17.5827 53.9492 18.1932 C 52.6629 18.7047 51.3331 19.114 50.0934 19.6783 C 49.4752 19.9357 48.8103 20.1404 48.2821 20.5528 C 47.6541 20.9586 47.2094 21.6248 46.6714 22.1856 C 46.14 22.6474 45.6085 23.1093 45.077 23.5711 C 44.5488 23.9835 43.8709 24.386 43.4826 24.9566 C 43.0477 25.4745 42.8991 26.2099 42.6041 26.886 C 42.3123 27.5127 41.9707 28.136 41.7255 28.8154 C 41.1919 30.072 40.7049 31.3813 40.2179 32.6906 C 39.9261 33.3173 39.6343 33.9439 39.3393 34.62 C 39.0475 35.2467 38.7558 35.8733 38.4608 36.5494 C 38.169 37.1761 37.8772 37.8027 37.5822 38.4788 C 37.2904 39.1055 36.8989 39.7256 36.7036 40.4082 C 36.4618 41.0382 36.4194 41.6812 36.324 42.3705 C 36.1819 43.007 36.0398 43.6435 35.9444 44.3327 C 35.8023 44.9692 35.7101 45.609 35.5647 46.2949 C 35.3727 46.9281 35.081 47.5548 34.9356 48.2407 C 34.3597 50.1404 33.8271 52.1422 33.2978 54.0946 C 33.1058 54.7278 32.814 55.3545 32.6687 56.0404 C 32.4767 56.6736 32.3845 57.3134 32.289 58.0027 C 32.147 58.6391 31.955 59.2724 31.9094 59.9649 C 31.8172 60.6047 31.8248 61.251 31.7792 61.9435 C 31.6946 63.2296 31.507 64.5587 31.5189 65.9008 C 31.4766 66.5439 31.6566 66.8538 31.6382 67.8959 C 31.4244 71.9059 31.1077 75.9588 30.8408 80.015 C 30.5837 83.9229 30.3201 87.9296 30.0597 91.8869 C 29.9328 93.8161 29.8493 95.8474 29.6692 97.8228 C 29.577 98.4626 29.4349 99.0991 29.2896 99.785 C 28.9425 101.2526 28.4989 102.6641 28.2483 104.1877 C 28.1062 104.8242 28.1637 105.4739 28.1181 106.1664 C 28.0259 106.8062 27.8339 107.4394 27.7385 108.1286 C 27.4543 109.4016 27.117 110.7208 26.9792 112.0531 C 26.7948 113.3326 26.8067 114.6748 26.7188 116.0103 C 26.4617 119.9182 26.1981 123.9249 25.9378 127.8822 C 25.8759 128.822 25.9031 129.1716 25.8076 129.8608 C 25.6655 130.4973 25.3238 131.1207 25.1785 131.8067 C 24.7023 133.7128 24.4192 135.7311 24.0396 137.6933 C 23.8975 138.3298 23.8053 138.9696 23.6599 139.6556 C 23.2695 141.0209 22.7293 142.3764 22.3855 143.7945 C 22.1902 144.4772 22.0883 145.2654 21.9896 146.0041 C 21.8442 146.69 21.6457 147.4222 21.5937 148.2136 C 21.5015 148.8534 21.509 149.4998 21.4635 150.1923 C 21.4212 150.8353 21.2791 151.4718 21.3333 152.1709 C 21.3984 153.4669 21.6597 154.8255 21.8213 156.1774 C 21.8788 156.8271 21.9363 157.4767 21.9406 158.1725 C 21.8983 158.8156 21.856 159.4586 21.8104 160.1511 C 21.7681 160.7942 21.7258 161.4373 21.6803 162.1298 C 21.4959 163.4093 21.408 164.7449 21.1704 166.0707 C 20.8895 167.2942 20.178 169.7314 20.178 169.7314 C 19.896 170.2096 19.0901 172.9844 18.6215 174.3486 C 18.3673 175.09 17.9985 175.79 17.7267 176.5253 C 17.4902 177.1645 17.3076 177.8232 17.0976 178.4711 C 16.8876 179.1191 16.6391 179.7575 16.4685 180.4169 C 16.3018 181.0618 16.2555 181.7344 16.0888 182.3792 C 15.9182 183.0386 15.7069 183.6904 15.4597 184.325 C 15.204 184.9828 14.7987 185.5831 14.5812 186.2544 C 14.3761 186.8877 14.3277 187.5632 14.2015 188.2166 C 14.0754 188.8701 13.9481 189.5254 13.8219 190.1789 C 13.6957 190.8323 13.5684 191.4876 13.4423 192.1411 C 13.3161 192.7945 13.1342 193.4413 13.0626 194.1033 C 12.9211 195.4165 12.9438 196.7474 12.8023 198.0606 C 12.7306 198.7226 12.5488 199.3694 12.4226 200.0228 C 12.2965 200.6763 12.1146 201.3231 12.043 201.985 C 11.9015 203.2982 11.8414 204.6227 11.7826 205.9423 C 11.665 208.5825 11.6179 211.2334 11.5114 213.8733 C 11.485 214.5333 11.4245 215.1931 11.3812 215.8519 C 11.3379 216.5108 11.3362 217.1754 11.251 217.8306 C 11.1655 218.4907 11.0381 219.148 10.8714 219.7928 C 10.7007 220.4523 10.3714 221.0705 10.2423 221.7386 C 10.1164 222.3871 10.1973 223.0621 10.1121 223.7173 C 10.0266 224.3774 9.818 225.0194 9.7325 225.6795 C 9.6473 226.3346 9.6875 227.003 9.6023 227.6581 C 9.5168 228.3182 9.3893 228.9756 9.2227 229.6204 C 9.052 230.2798 8.7642 230.9067 8.5936 231.5662 C 8.4269 232.211 8.3806 232.8836 8.2139 233.5284 C 8.0433 234.1879 7.7416 234.8119 7.5848 235.4742 C 7.2781 236.7696 7.0789 238.0919 6.8255 239.3987 C 6.6994 240.0521 6.5721 240.7075 6.4459 241.3609 C 6.3197 242.0144 6.1518 242.6631 6.0663 243.3231 C 5.9811 243.9783 5.9375 244.6411 5.9361 245.3018 C 5.9344 245.9674 6.0711 246.6312 6.0554 247.2968 C 6.0236 248.6172 6.0457 249.9571 5.795 251.2541 C 5.5367 252.5904 5.0058 253.867 4.5368 255.1458 C 4.2938 255.8084 3.914 256.4173 3.6583 257.0752 C 3.4111 257.7097 3.2763 258.3864 3.0292 259.021 C 2.7734 259.6788 2.3268 260.2674 2.1506 260.9504 C 1.9852 261.5903 1.6643 262.37 2.0204 262.929 C 2.4001 263.5253 3.2685 263.6689 3.9673 263.8023 C 4.6264 263.9281 5.3097 263.6422 5.9792 263.6863 C 6.6488 263.7303 7.2891 264.0209 7.9587 264.0649 C 8.6282 264.109 9.2993 263.9464 9.9706 263.9489 C 10.6369 263.951 11.3121 263.9547 11.9663 264.0802 C 12.6403 264.209 13.3277 264.3784 13.9294 264.7061 C 14.5573 265.0485 14.9315 265.7895 15.5943 266.0577 C 16.2112 266.3079 16.9254 266.1453 17.59 266.189 C 18.2546 266.2327 18.9207 266.359 19.5857 266.3203 C 20.2707 266.2809 20.9288 265.9963 21.6139 265.9569 C 22.2789 265.9182 22.9488 266.003 23.6096 266.0882 C 24.2754 266.1737 24.9232 266.3813 25.589 266.4668 C 26.2498 266.552 26.9305 266.4726 27.5847 266.5981 C 28.2587 266.7269 28.8738 267.0953 29.5478 267.2241 C 30.202 267.3496 30.8827 267.2702 31.5435 267.3554 C 32.2093 267.4409 32.8638 267.6082 33.5229 267.734 C 34.1821 267.8599 34.8314 268.0894 35.5023 268.1127 C 37.5061 268.1819 39.5171 268.0042 41.5219 268.0119 C 42.1882 268.014 42.8568 268.058 43.5176 268.1432 C 44.1835 268.2287 44.8293 268.4501 45.497 268.5218 C 46.8216 268.6636 48.1639 268.6426 49.4884 268.7844 C 50.1561 268.8562 50.802 269.0775 51.4678 269.1631 C 52.1287 269.2483 52.7972 269.2922 53.4635 269.2943 C 54.1348 269.2968 54.8042 269.1759 55.4755 269.1783 C 56.1418 269.1804 56.8049 269.3075 57.4712 269.3096 C 58.1424 269.3121 58.8119 269.2051 59.4831 269.1936 C 60.8175 269.1711 62.1586 269.1212 63.4908 269.2089 C 64.1603 269.2529 64.8197 269.4215 65.4702 269.5875 C 66.1354 269.7574 66.7593 270.0846 67.4333 270.2134 C 68.0875 270.339 68.7644 270.301 69.429 270.3447 C 71.4227 270.4759 73.4274 270.5462 75.4161 270.7386 C 76.0842 270.8035 76.7296 271.0317 77.3955 271.1173 C 78.0563 271.2025 78.7249 271.2465 79.3912 271.2486 C 80.0624 271.251 80.7331 271.1709 81.4031 271.1325 C 82.0731 271.0941 82.7438 271.0141 83.4151 271.0165 C 84.0814 271.0186 84.7492 271.2265 85.4108 271.1478 C 86.1168 271.0641 85.8353 270.8488 87.4553 270.5371 C 93.9341 269.2901 105.1394 273.2188 107.1356 266.9136 C 114.2549 244.4168 108.0339 219.3672 110.6615 195.8049 C 113.0829 174.1109 121.4711 152.6773 122.4737 130.5074 Z "/>
</svg>