<svg xmlns="http://www.w3.org/2000/svg" xmlns:xlink="http://www.w3.org/1999/xlink" version="1.1" width="169.51861484871418" height="328.6295462451986" viewBox="0.2603921491597506 -0.7141102355028776 169.51861484871418 328.6295462451986">
  <defs>
    <linearGradient id="grad_1" y2="1" x2="0">
      <stop offset="0" stop-color="#222325" stop-opacity="1"/>
      <stop offset="1" stop-color="#2E3034" stop-opacity="1"/>
    </linearGradient>
  </defs>
  <!-- Exported by Scratch - http://scratch.mit.edu/ -->
  <path id="ID0.7766774026677012" fill="#0D0D0D" stroke="#0D0D0D" stroke-width="1.9694205127766902" stroke-linecap="round" d="M 112.95 183.9513 C 112.232 151.507 112.961 117.8038 101.95 86.791 C 97.786 75.0659 82.491 69.6627 70.45 65.4691 C 64.954 63.5579 59.384 68.3553 53.95 70.0727 C 52.407 70.5563 51.262 71.5711 49.95 72.2534 C 48.093 73.0258 46.139 73.6121 44.45 74.434 C 43.852 74.7267 43.25 75.0155 42.7 75.4032 C 42.05 75.7424 41.55 76.227 40.95 76.6147 C 39.7 77.3416 38.45 78.1169 37.2 78.7953 C 35.95 79.3768 34.65 79.8614 33.45 80.4914 C 32.85 80.7821 32.2 81.0244 31.7 81.4606 C 31.1 81.8967 30.7 82.5751 30.2 83.1566 C 29.7 83.6412 29.2 84.1258 28.7 84.6104 C 28.2 85.0465 27.55 85.4827 27.2 86.0642 C 26.8 86.5972 26.7 87.3241 26.45 88.0025 C 26.2 88.6325 25.9 89.2625 25.7 89.9409 C 25.25 91.2008 24.85 92.5092 24.45 93.8176 C 24.2 94.4476 23.95 95.0775 23.7 95.756 C 23.45 96.3859 23.2 97.0159 22.95 97.6943 C 22.7 98.3243 22.45 98.9542 22.2 99.6327 C 21.95 100.2626 21.6 100.8926 21.45 101.571 C 21.25 102.201 21.25 102.831 21.2 103.5094 C 21.1 104.1394 21 104.7693 20.95 105.4478 C 20.85 106.0777 20.8 106.7077 20.7 107.3861 C 20.55 108.0161 20.3 108.646 20.2 109.3245 C 19.75 111.2144 19.35 113.2012 18.95 115.1395 C 18.8 115.7695 18.55 116.3995 18.45 117.0779 C 18.3 117.7079 18.25 118.3378 18.2 119.0163 C 18.1 119.6462 17.95 120.2762 17.95 120.9546 C 17.9 121.5846 17.95 122.2146 17.95 122.893 C 17.95 124.1529 17.85 125.4613 17.95 126.7697 C 17.95 127.3997 18.15 127.6904 18.2 128.7081 C 18.25 132.6332 18.2 136.6069 18.2 140.5805 C 18.2 144.4088 18.2 148.3339 18.2 152.2107 C 18.2 154.1006 18.25 156.0874 18.2 158.0257 C 18.15 158.6557 18.05 159.2857 17.95 159.9641 C 17.7 161.4179 17.35 162.8232 17.2 164.3254 C 17.1 164.9554 17.2 165.5853 17.2 166.2638 C 17.15 166.8937 17 167.5237 16.95 168.2021 C 16.75 169.462 16.5 170.7704 16.45 172.0788 C 16.35 173.3388 16.45 174.6472 16.45 175.9555 C 16.45 179.7838 16.45 183.709 16.45 187.5857 C 16.45 188.5064 16.5 188.8456 16.45 189.5241 C 16.35 190.154 16.05 190.784 15.95 191.4624 C 15.6 193.3523 15.45 195.3391 15.2 197.2775 C 15.1 197.9075 15.05 198.5374 14.95 199.2159 C 14.65 200.5727 14.2 201.9296 13.95 203.3349 C 13.8 204.0133 13.75 204.7886 13.7 205.5155 C 13.6 206.1939 13.45 206.9208 13.45 207.6962 C 13.4 208.3261 13.45 208.9561 13.45 209.6345 C 13.45 210.2645 13.35 210.8945 13.45 211.5729 C 13.6 212.8328 13.95 214.1412 14.2 215.4496 C 14.3 216.0796 14.4 216.7095 14.45 217.388 C 14.45 218.0179 14.45 218.6479 14.45 219.3263 C 14.45 219.9563 14.45 220.5863 14.45 221.2647 C 14.35 222.5246 14.35 223.833 14.2 225.1414 C 14 226.3529 13.45 228.7758 13.45 228.7758 C 13.2 229.2604 12.578 232.0187 12.2 233.3794 C 11.995 234.1189 11.673 234.8254 11.45 235.5601 C 11.256 236.1988 11.117 236.853 10.95 237.4984 C 10.783 238.1439 10.577 238.7826 10.45 239.4368 C 10.326 240.0765 10.324 240.7355 10.2 241.3752 C 10.073 242.0293 9.905 242.6787 9.7 243.3135 C 9.488 243.9716 9.123 244.5831 8.95 245.2519 C 8.787 245.8828 8.783 246.5448 8.7 247.1902 C 8.617 247.8357 8.533 248.4831 8.45 249.1286 C 8.367 249.7741 8.283 250.4215 8.2 251.0669 C 8.117 251.7124 7.978 252.355 7.95 253.0053 C 7.895 254.2953 8.005 255.592 7.95 256.882 C 7.922 257.5323 7.783 258.1749 7.7 258.8204 C 7.617 259.4659 7.478 260.1084 7.45 260.7587 C 7.395 262.0487 7.422 263.3445 7.45 264.6355 C 7.506 267.2183 7.633 269.807 7.7 272.3889 C 7.717 273.0344 7.7 273.6818 7.7 274.3272 C 7.7 274.9727 7.742 275.6211 7.7 276.2656 C 7.658 276.915 7.574 277.5643 7.45 278.204 C 7.323 278.8582 7.035 279.4823 6.95 280.1423 C 6.867 280.783 6.992 281.4362 6.95 282.0807 C 6.908 282.73 6.742 283.3697 6.7 284.019 C 6.658 284.6635 6.742 285.3129 6.7 285.9574 C 6.658 286.6068 6.574 287.2561 6.45 287.8958 C 6.323 288.55 6.077 289.1799 5.95 289.8341 C 5.826 290.4738 5.824 291.1328 5.7 291.7725 C 5.573 292.4267 5.313 293.0547 5.2 293.7108 C 4.979 294.994 4.867 296.2966 4.7 297.5876 C 4.617 298.233 4.533 298.8804 4.45 299.5259 C 4.367 300.1714 4.242 300.8149 4.2 301.4643 C 4.158 302.1088 4.158 302.7581 4.2 303.4026 C 4.242 304.052 4.422 304.6907 4.45 305.341 C 4.505 306.631 4.615 307.9365 4.45 309.2177 C 4.28 310.5377 3.834 311.817 3.45 313.0944 C 3.251 313.7564 2.912 314.3747 2.7 315.0328 C 2.495 315.6676 2.405 316.3363 2.2 316.9711 C 1.988 317.6292 1.581 318.232 1.45 318.9095 C 1.327 319.5443 1.058 320.3255 1.45 320.8479 C 1.868 321.4051 2.744 321.4895 3.45 321.5747 C 4.116 321.6552 4.779 321.3324 5.45 321.3324 C 6.121 321.3324 6.779 321.5747 7.45 321.5747 C 8.121 321.5747 8.78 321.3732 9.45 321.3324 C 10.115 321.2917 10.789 321.252 11.45 321.3324 C 12.131 321.4148 12.828 321.536 13.45 321.817 C 14.099 322.1107 14.521 322.8095 15.2 323.0285 C 15.832 323.233 16.534 323.0285 17.2 323.0285 C 17.866 323.0285 18.539 323.109 19.2 323.0285 C 19.881 322.9461 20.519 322.6263 21.2 322.5439 C 21.861 322.4635 22.535 322.5032 23.2 322.5439 C 23.87 322.5846 24.53 322.7455 25.2 322.7862 C 25.865 322.8269 26.539 322.7058 27.2 322.7862 C 27.881 322.8686 28.519 323.1884 29.2 323.2708 C 29.861 323.3512 30.535 323.2301 31.2 323.2708 C 31.87 323.3115 32.534 323.4327 33.2 323.5131 C 33.866 323.5935 34.529 323.7757 35.2 323.7554 C 37.204 323.6943 39.199 323.392 41.2 323.2708 C 41.865 323.2301 42.535 323.2301 43.2 323.2708 C 43.87 323.3115 44.529 323.486 45.2 323.5131 C 46.531 323.5664 47.869 323.4598 49.2 323.5131 C 49.871 323.5402 50.53 323.7147 51.2 323.7554 C 51.865 323.7961 52.535 323.7961 53.2 323.7554 C 53.87 323.7147 54.53 323.5538 55.2 323.5131 C 55.865 323.4724 56.535 323.5538 57.2 323.5131 C 57.87 323.4724 58.531 323.3251 59.2 323.2708 C 60.53 323.1632 61.865 323.0285 63.2 323.0285 C 63.871 323.0285 64.54 323.1506 65.2 323.2708 C 65.875 323.3939 66.519 323.673 67.2 323.7554 C 67.861 323.8358 68.534 323.7554 69.2 323.7554 C 71.198 323.7554 73.203 323.6953 75.2 323.7554 C 75.871 323.7757 76.53 323.957 77.2 323.9977 C 77.865 324.0384 78.535 324.0384 79.2 323.9977 C 79.87 323.957 80.534 323.8358 81.2 323.7554 C 81.866 323.675 82.53 323.5538 83.2 323.5131 C 83.865 323.4724 84.545 323.6323 85.2 323.5131 C 85.899 323.3861 85.604 323.1942 87.2 322.7862 C 93.583 321.1541 105.022 324.2671 106.6 317.9888 C 112.227 295.5881 104.375 271.5535 105.45 248.4017 C 106.442 227.0856 113.405 205.6405 112.95 183.9513 Z "/>
  <g id="ID0.9602425838820636">
    <g id="ID0.17693647183477879">
      <path id="ID0.7729651997797191" fill="#3E4246" stroke="none" stroke-linecap="round" d="M 37.4448 102.9773 L 57.6687 103.8888 L 54.2575 120.8852 L 51.6121 134.6035 L 47.8229 140.3781 L 44.4071 143.9014 L 31.6997 140.6279 L 30.1794 134.7314 L 35.38 114.6452 L 37.4448 102.9773 Z " stroke-width="0.8164595388984595"/>
      <path id="ID0.9716172609478235" fill="#393C40" stroke="none" stroke-linecap="round" d="M 41.6987 108.7497 L 36.7638 106.4582 L 38.5403 99.8982 L 56.6916 109.3341 L 53.7178 112.4014 L 48.2365 114.3644 L 41.6987 108.7497 Z " stroke-width="0.8164595388984595"/>
      <g id="ID0.38066427363082767">
        <path id="ID0.4757494777441025" fill="#1D1E1F" stroke="none" stroke-linecap="round" d="M 46.4576 77.7788 L 54.9939 75.5037 L 71.0184 80.1365 L 63.2004 105.7343 L 52.923 110.8936 L 48.4168 112.0348 L 45.1664 109.7042 L 42.2637 106.7729 L 36.5102 104.2429 L 36.3063 98.7698 L 36.8951 90.6652 L 39.9796 82.284 L 46.4576 77.7788 Z " stroke-width="0.4761425368170697"/>
        <path id="ID0.6007084371522069" fill="none" stroke="#0D0D0D" stroke-width="0.9522850736341394" stroke-linecap="round" d="M 36.9918 104.5926 L 42.1447 106.7747 L 46.4866 110.398 L 48.4186 112.1538 L 52.923 110.8936 L 57.2918 108.5639 "/>
      </g>
    </g>
    <g id="ID0.7397577832452953">
      <path id="ID0.6726378230378032" fill="#393C40" stroke="none" stroke-linecap="round" d="M 30.8474 131.6646 L 47.1926 140.4752 L 46.4116 142.7737 L 30.4721 133.7935 L 30.8474 131.6646 Z " stroke-width="0.8164595388984595"/>
      <path id="ID0.6507829907350242" fill="#1D1E1F" stroke="none" stroke-linecap="round" d="M 27.4978 132.9357 L 46.6363 142.8462 L 46.5221 161.8329 L 44.6456 172.4772 L 44.8953 188.6004 L 45.6087 195.1218 L 33.599 197.3492 L 33.2938 190.8215 L 31.3052 181.0536 L 28.2551 168.6483 L 26.2697 159.0845 L 27.4978 132.9357 Z " stroke-width="0.8164595388984595"/>
      <path id="ID0.6829322893172503" fill="#1D1E1F" stroke="none" stroke-linecap="round" d="M 33.1845 196.9474 L 43.5141 191.6839 L 46.8649 197.1437 L 51.0384 202.9991 L 51.1269 208.7136 L 50.5873 213.4172 L 48.5939 216.5102 L 47.2696 223.2673 L 42.5723 223.1359 L 41.3162 221.114 L 39.6803 220.9352 L 36.3737 218.3326 L 32.8568 215.325 L 30.7463 210.8666 L 31.452 203.7108 L 33.1845 196.9474 Z " stroke-width="0.8164595388984595"/>
      <path id="ID0.47767175547778606" fill="none" stroke="#0D0D0D" stroke-width="1.632919077796919" stroke-linecap="round" d="M 27.5591 136.895 L 27.7816 132.8088 L 46.5546 142.8475 L 46.4449 156.8531 "/>
      <path id="ID0.5922487881034613" fill="#282A2B" stroke="none" stroke-linecap="round" d="M 27.0105 166.9052 L 33.9848 161.1629 L 40.1088 161.1497 L 46.4054 167.0131 L 45.2088 182.0154 L 40.6317 189.6395 L 37.1622 189.6932 L 30.9257 182.4408 L 27.0105 166.9052 Z " stroke-width="0.8164595388984595"/>
      <path id="ID0.36820242274552584" fill="#151616" stroke="none" stroke-linecap="round" d="M 33.3902 169.5952 L 41.8791 169.382 L 39.3634 180.9345 L 37.8519 180.8762 L 33.3902 169.5952 Z " stroke-width="0.8164595388984595"/>
      <path id="ID0.13569410238415003" fill="none" stroke="#232425" stroke-width="1.632919077796919" stroke-linecap="round" d="M 32.8098 180.6628 L 38.6356 187.7583 L 43.7465 180.3301 "/>
      <path id="ID0.024502143263816833" fill="none" stroke="#0D0D0D" stroke-width="1.632919077796919" stroke-linecap="round" d="M 27.49 166.7005 L 33.7346 161.2961 L 39.7719 160.9576 L 46.1502 166.8197 L 45.385 175.4054 "/>
    </g>
  </g>
  <g id="ID0.17693647183477879">
    <path id="ID0.7729651997797191" fill="#393C40" stroke="none" stroke-linecap="round" d="M 117.9845 106.3778 L 99.5027 100.7798 L 97.1776 117.1514 L 95.2038 130.3313 L 96.7798 136.7283 L 98.7344 140.9817 L 111.2041 142.0696 L 114.443 137.2479 L 116.1391 117.5289 L 117.9845 106.3778 Z " stroke-width="0.7788098597687919"/>
    <path id="ID0.9716172609478235" fill="#34373A" stroke="none" stroke-linecap="round" d="M 112.326 110.2205 L 117.4924 109.7251 L 117.9761 103.2603 L 98.6537 105.9881 L 100.3554 109.6911 L 104.6632 113.1964 L 112.326 110.2205 Z " stroke-width="0.7788098597687919"/>
    <g id="ID0.38066427363082767">
      <path id="ID0.4757494777441025" fill="#1D1E1F" stroke="none" stroke-linecap="round" d="M 117.9745 81.036 L 111.0176 76.2804 L 95.1326 75.3625 L 94.0419 100.87 L 101.6496 108.7726 L 105.341 111.2292 L 109.0046 110.1642 L 112.5459 108.4485 L 118.5244 107.9985 L 120.4446 103.1399 L 122.4869 95.6626 L 122.372 87.1444 L 117.9745 81.036 Z " stroke-width="0.4541860072164253"/>
      <path id="ID0.6007084371522069" fill="none" stroke="#0D0D0D" stroke-width="0.9083720144328506" stroke-linecap="round" d="M 117.9802 108.1603 L 112.6523 108.4879 L 107.5967 110.3694 L 105.3016 111.3357 L 101.6496 108.7726 L 98.459 105.2905 "/>
    </g>
  </g>
  <g id="ID0.7397577832452953">
    <path id="ID0.6726378230378032" fill="#34373A" stroke="none" stroke-linecap="round" d="M 95.9592 128.2937 L 113.6534 129.0945 L 113.9343 131.393 L 96.5185 130.2785 L 95.9592 128.2937 Z " stroke-width="0.7788099486812475"/>
    <path id="ID0.6507829907350242" fill="#1D1E1F" stroke="none" stroke-linecap="round" d="M 93.6105 130.76 L 114.1605 131.3489 L 121.9264 147.711 L 124.7227 157.6346 L 131.6153 171.3853 L 134.9295 176.6935 L 125.5324 183.5817 L 122.5664 178.099 L 116.812 170.5294 L 109.053 161.1332 L 103.3858 153.7376 L 93.6105 130.76 Z " stroke-width="0.7788099486812475"/>
    <path id="ID0.6829322893172503" fill="#1D1E1F" stroke="none" stroke-linecap="round" d="M 125.0098 183.4081 L 131.7056 174.6069 L 136.8463 177.9106 L 142.8577 181.2134 L 145.3006 186.087 L 146.7852 190.3521 L 146.3533 193.8355 L 148.0141 200.1902 L 143.9234 202.0229 L 142.0066 200.8058 L 140.5269 201.3297 L 136.6077 200.4629 L 132.34 199.3352 L 128.6799 196.3784 L 126.3224 189.9373 L 125.0098 183.4081 Z " stroke-width="0.7788099486812475"/>
    <path id="ID0.47767175547778606" fill="none" stroke="#0D0D0D" stroke-width="1.557619897362495" stroke-linecap="round" d="M 95.3031 134.1368 L 93.8018 130.5334 L 114.0909 131.3838 L 119.7976 143.4639 "/>
    <path id="ID0.5922487881034613" fill="#282A2B" stroke="none" stroke-linecap="round" d="M 107.355 160.2482 L 110.9695 152.4254 L 116.2262 149.8776 L 124.0652 152.3078 L 129.2508 165.6945 L 128.4756 174.1414 L 125.5166 175.6247 L 117.1539 171.9759 L 107.355 160.2482 Z " stroke-width="0.7788099486812475"/>
    <path id="ID0.36820242274552584" fill="#151616" stroke="none" stroke-linecap="round" d="M 113.7059 159.7843 L 120.9119 156.0852 L 123.5351 167.0538 L 122.2122 167.6299 L 113.7059 159.7843 Z " stroke-width="0.7788099486812475"/>
    <path id="ID0.13569410238415003" fill="none" stroke="#232425" stroke-width="1.557619897362495" stroke-linecap="round" d="M 117.943 169.5705 L 125.8878 173.2544 L 127.2028 164.7547 "/>
    <path id="ID0.024502143263816833" fill="none" stroke="#0D0D0D" stroke-width="1.557619897362495" stroke-linecap="round" d="M 107.5888 159.7763 L 110.7162 152.5461 L 115.7637 149.7547 L 123.6724 152.15 L 126.5709 159.8444 "/>
  </g>
  <path id="ID0.3809091211296618" fill="#393D40" stroke="none" stroke-linecap="round" d="M 97.9854 189.2919 L 102.9689 161.1913 L 136.2967 181.0459 L 144.6352 188.1368 L 156.116 202.7853 L 153.2552 211.3392 L 146.7917 222.6385 L 129.8745 210.5033 L 121.707 202.4682 L 97.9854 189.2919 Z " stroke-width="0.7305889271260924"/>
  <path id="ID0.3809091211296618" fill="#3E4246" stroke="none" stroke-linecap="round" d="M 62.8945 158.5213 L 83.2807 170.9935 L 88.8415 209.3865 L 88.5832 220.3293 L 84.4322 238.4721 L 75.9856 241.6356 L 63.1378 243.729 L 61.1246 222.0503 L 58.5626 208.8812 L 62.8945 158.5213 Z " stroke-width="0.7305889404387307"/>
  <path id="ID0.5368814701214433" fill="#303436" stroke="none" stroke-linecap="round" d="M 43.6528 313.4777 L 46.5362 304.6477 L 51.0251 295.4008 L 61.0012 301.2588 L 72.2673 308.8939 L 89.7293 319.2362 L 90.8078 325.7518 L 66.1104 326.9307 L 44.8654 323.2644 L 43.6528 313.4777 Z " stroke-width="0.7702165290554439"/>
  <g id="ID0.9157347986474633">
    <path id="ID0.7477802094072104" fill="#363A3D" stroke="none" stroke-linecap="round" d="M 114.6702 123.2197 L 95.0512 120.6299 L 96.1134 161.8025 L 113.0031 170.2975 L 114.6554 145.7253 L 114.6702 123.2197 Z " stroke-width="0.4761425774267908"/>
    <path id="ID0.7477802094072104" fill="#363A3D" stroke="none" stroke-linecap="round" d="M 54.4051 124.7965 L 77.7736 121.3358 L 78.8358 162.5085 L 62.4066 171.863 L 56.285 146.896 L 54.4051 124.7965 Z " stroke-width="0.4761425774267908"/>
    <path id="ID0.4270821204409003" fill="#3E4246" stroke="none" stroke-linecap="round" d="M 54.1815 104.7177 L 57.667 92.1249 L 59.7775 86.2358 L 66.1412 79.0462 L 97.236 79.6729 L 104.2483 83.7787 L 107.2086 87.7509 L 114.524 98.9934 L 114.0802 109.4835 L 113.2695 114.9819 L 115.1134 121.8407 L 115.7306 127.3022 L 113.7668 134.2592 L 112.2835 139.5368 L 111.333 148.8492 L 113.3972 170.7058 L 108.4684 179.0491 L 103.845 185.3841 L 91.8711 191.1229 L 80.203 188.3994 L 76.1029 181.7893 L 70.9869 175.4912 L 62.3632 172.6177 L 60.567 147.301 L 59.2051 140.6679 L 54.341 129.3622 L 52.7526 118.5673 L 54.1815 104.7177 Z " stroke-width="0.4761425774267908"/>
    <path id="ID0.052435632329434156" fill="#393C40" stroke="none" stroke-linecap="round" d="M 67.6146 154.284 L 72.0663 154.2168 L 78.7434 157.331 L 83.8084 157.0337 L 89.7328 158.667 L 93.8938 157.4879 L 95.5475 156.969 L 109.6678 153.1991 L 110.1095 156.4742 L 101.6493 160.8601 L 95.6915 160.7042 L 90.1773 163.8948 L 83.4226 160.5444 L 77.0079 161.1386 L 67.033 157.5855 L 67.6146 154.284 Z " stroke-width="0.4761425774267908"/>
    <path id="ID0.4987568911164999" fill="none" stroke="#27282B" stroke-width="0.9522851548535816" stroke-linecap="round" d="M 65.9573 79.7025 L 59.6911 86.0561 L 56.6171 96.1377 "/>
    <path id="ID0.2889464790932834" fill="none" stroke="#27282B" stroke-width="0.9522851548535816" stroke-linecap="round" d="M 98.599 80.2894 L 104.4091 83.9499 L 110.3603 93.0842 "/>
    <path id="ID0.8373676878400147" fill="#000000" stroke="#2C2F31" stroke-width="0.6155104048670637" stroke-linecap="round" d="M 69.8254 92.6292 L 70.13 91.0898 L 66.5159 92.0975 L 61.7529 95.5696 L 57.7627 100.7327 L 55.4663 106.4309 L 60.5393 104.0353 L 65.2321 103.7948 L 68.0036 104.6354 L 70.6256 107.5537 L 72.7007 106.4723 L 76.7007 106.0793 L 81.242 106.9932 L 85.1722 110.0627 L 87.3327 113.0588 L 89.4037 109.977 L 93.0131 106.7381 L 97.0877 105.1909 L 102.2423 105.0264 L 104.0899 105.5611 L 105.6991 102.4033 L 107.6199 101.0914 L 110.2368 101.5476 L 113.0867 103.0805 L 111.5401 99.3137 L 109.1471 95.4717 L 106.2174 92.5541 L 102.9815 90.4065 L 98.4405 89.6464 L 100.6756 91.4884 L 100.6792 93.258 L 99.1449 95.4154 L 95.6084 96.7307 L 92.4547 97.1219 L 89.8391 97.2812 L 87.2159 93.7474 L 86.8355 95.8255 L 85.3737 95.8285 L 83.753 93.4468 L 82.9154 97.6802 L 78.8382 97.9194 L 74.6817 97.0816 L 71.2937 95.7807 L 69.8254 92.6292 Z "/>
    <path id="ID0.5698574706912041" fill="none" stroke="#313537" stroke-width="0.9522851548535816" stroke-linecap="round" d="M 67.5389 154.1193 L 67.0268 157.3475 L 77.011 161.2576 L 83.7845 160.7256 L 89.9362 163.7819 "/>
    <path id="ID0.5698574706912041" fill="none" stroke="#313537" stroke-width="0.893306610781973" stroke-linecap="round" d="M 109.3319 153.251 L 109.9335 156.4505 L 101.431 160.8375 L 95.509 160.633 L 90.3014 163.9824 "/>
    <path id="ID0.8947288258932531" fill="#393C40" stroke="none" stroke-linecap="round" d="M 68.5397 142.1383 L 75.5574 141.8382 L 83.1508 143.5475 L 88.9575 148.9228 L 81.7524 144.7267 L 70.9564 143.5049 L 65.9176 146.6594 L 68.5397 142.1383 Z " stroke-width="0.4761425774267908"/>
    <path id="ID0.8947288258932531" fill="#393C40" stroke="none" stroke-linecap="round" d="M 107.3097 142.1158 L 101.0938 142.1708 L 94.4607 144.0279 L 89.5741 149.0436 L 95.7505 145.0063 L 105.2362 143.4338 L 109.8334 145.9918 L 107.3097 142.1158 Z " stroke-width="0.4213738894877403"/>
    <path id="ID0.9897695370018482" fill="#393C40" stroke="none" stroke-linecap="round" d="M 72.3068 154.3059 L 65.7497 153.9987 L 66.0584 149.3468 L 67.3386 152.8146 L 72.4353 152.826 L 78.6657 156.1661 L 84.1303 155.6679 L 88.2606 156.9902 L 89.4384 149.1009 L 89.9293 158.9 L 84.285 157.0452 L 78.4065 157.1968 L 72.3068 154.3059 Z " stroke-width="0.4761425774267908"/>
    <path id="ID0.9897695370018482" fill="#393C40" stroke="none" stroke-linecap="round" d="M 104.5728 153.7057 L 110.0962 153.1203 L 109.6226 148.8135 L 108.7002 152.0931 L 104.3965 152.3371 L 99.2877 155.7247 L 94.65 155.5121 L 91.2224 156.9295 L 89.8666 149.6554 L 89.9006 158.7798 L 94.5824 156.7985 L 99.5538 156.6702 L 104.5728 153.7057 Z " stroke-width="0.42322510349854614"/>
    <path id="ID0.3524594851769507" fill="#393C40" stroke="none" stroke-linecap="round" d="M 81.8333 119.3365 L 87.7919 121.3737 L 92.1822 118.9266 L 89.1152 122.8161 L 90.3545 133.9296 L 99.3999 132.8389 L 89.0679 136.6777 L 77.2853 132.2901 L 87.0238 134.0632 L 86.3282 122.7928 L 81.8333 119.3365 Z " stroke-width="0.4761425774267908"/>
    <path id="ID0.9214867809787393" fill="#393C40" stroke="none" stroke-linecap="round" d="M 68.4396 138.259 L 71.3058 133.9698 L 76.0411 132.8951 L 70.3331 137.8053 L 70.1706 140.7388 L 75.2173 140.6562 L 83.4633 143.6585 L 74.4419 141.986 L 68.5873 142.1371 L 68.4396 138.259 Z " stroke-width="0.4761425774267908"/>
    <path id="ID0.9214867809787393" fill="#393C40" stroke="none" stroke-linecap="round" d="M 106.8616 138.056 L 104.0353 134.1062 L 99.6557 133.3101 L 105.1092 137.7149 L 105.3991 140.5029 L 100.7827 140.6674 L 94.2127 143.6778 L 101.5555 141.8975 L 106.9136 141.7593 L 106.8616 138.056 Z " stroke-width="0.4451788350319383"/>
    <path id="ID0.8679121839813888" fill="#2C2F31" stroke="none" stroke-linecap="round" d="M 83.7589 118.1926 L 87.6086 119.7127 L 90.8981 117.9846 L 91.8746 118.912 L 88.0165 121.6788 L 82.1994 119.5903 L 83.7589 118.1926 Z " stroke-width="0.4761425774267908"/>
    <path id="ID0.24770551454275846" fill="none" stroke="#313537" stroke-width="0.9522851548535816" stroke-linecap="round" d="M 87.7291 116.1415 L 92.462 119.5917 L 99.971 119.8743 L 107.5592 118.6069 L 112.6967 114.6639 "/>
    <path id="ID0.20603158557787538" fill="none" stroke="#313537" stroke-width="0.9522851548535816" stroke-linecap="round" d="M 54.313 112.9868 L 61.4719 118.1605 L 73.9304 121.0541 L 81.1738 120.2719 L 87.2603 116.1854 "/>
    <g id="ID0.5272086253389716">
      <path id="ID0.24770551454275846" fill="none" stroke="#363A3D" stroke-width="0.952285095220725" stroke-linecap="round" d="M 58.5779 145.3846 L 68.3967 141.9639 "/>
      <path id="ID0.24770551454275846" fill="none" stroke="#363A3D" stroke-width="0.952285095220725" stroke-linecap="round" d="M 55.6873 133.5523 L 75.9467 126.8139 "/>
    </g>
    <g id="ID0.5272086253389716">
      <path id="ID0.24770551454275846" fill="none" stroke="#363A3D" stroke-width="0.9522850872696337" stroke-linecap="round" d="M 113.9206 143.0049 L 106.9372 141.3521 "/>
      <path id="ID0.24770551454275846" fill="none" stroke="#363A3D" stroke-width="0.9522850872696337" stroke-linecap="round" d="M 114.1404 131.642 L 100.1474 127.2405 "/>
    </g>
    <g id="ID0.7887678607366979">
      <path id="ID0.753661650698632" fill="none" stroke="#313537" stroke-width="0.952285095220725" stroke-linecap="round" d="M 82.3123 119.4432 L 87.6095 121.688 L 91.5878 118.9657 "/>
      <g id="ID0.8167418288066983">
        <path id="ID0.9553722990676761" fill="none" stroke="#313537" stroke-width="1.0409107959696484" stroke-linecap="round" d="M 88.5708 136.4967 L 82.9046 134.4995 L 76.6835 132.7548 L 71.9388 133.8298 L 68.5424 138.2042 L 68.6315 141.655 "/>
        <path id="ID0.5982440118677914" fill="none" stroke="#313537" stroke-width="0.8540413440612085" stroke-linecap="round" d="M 77.0256 132.3705 L 75.6991 127.1096 L 80.7529 119.9192 "/>
      </g>
      <g id="ID0.7324484633281827">
        <path id="ID0.04993448918685317" fill="none" stroke="#313537" stroke-width="0.952285095220725" stroke-linecap="round" d="M 87.6065 121.569 L 88.5906 132.0223 L 89.4902 148.4314 L 90.1487 164.7278 "/>
        <g id="ID0.8167418288066983">
          <path id="ID0.9553722990676761" fill="none" stroke="#313537" stroke-width="0.9699703117283422" stroke-linecap="round" d="M 88.8606 136.3851 L 93.8593 134.8987 L 99.2388 132.8547 L 103.4581 133.6985 L 106.653 137.9027 L 106.7421 141.3536 "/>
          <path id="ID0.5982440118677914" fill="none" stroke="#313537" stroke-width="0.791661610694801" stroke-linecap="round" d="M 99.0032 132.5134 L 99.9133 127.1948 L 95.1262 120.2583 "/>
          <path id="ID0.3567589442245662" fill="none" stroke="#313537" stroke-width="0.8967655162089789" stroke-linecap="round" d="M 89.3511 149.0698 L 94.3512 143.9635 L 101.6284 141.8705 L 107.1545 141.728 L 109.514 146.311 L 109.9882 153.3242 L 104.4595 154.1813 L 98.8876 157.421 L 93.9624 157.3099 L 89.8022 159.251 L 83.8976 156.9027 L 78.3148 157.2849 L 71.8088 154.3568 L 65.4897 153.8054 L 65.6435 146.776 L 68.0775 142.0692 L 74.3572 141.9072 L 82.7374 143.5962 L 88.685 148.4202 Z "/>
        </g>
      </g>
    </g>
    <g id="ID0.9312638868577778">
      <path id="ID0.2888958193361759" fill="#393C40" stroke="none" stroke-linecap="round" d="M 70.3575 162.3043 L 80.625 164.1244 L 80.1055 167.0546 L 69.8381 165.2345 L 70.3575 162.3043 Z " stroke-width="0.47614252297445403"/>
      <path id="ID0.2888958193361759" fill="#393C40" stroke="none" stroke-linecap="round" d="M 59.489 160.4585 L 71.025 162.6244 L 70.5055 165.5546 L 60.2381 163.7345 L 59.489 160.4585 Z " stroke-width="0.47614252297445403"/>
      <g id="ID0.36424446757882833">
        <path id="ID0.7359844641759992" fill="#8A7B59" stroke="none" d="M 73.1622 161.5157 L 74.6854 161.4764 L 74.8462 167.7118 L 73.3231 167.7511 L 73.1622 161.5157 Z " stroke-width="0.4761425476103625"/>
        <path id="ID0.7359844641759992" fill="#8A7B59" stroke="none" d="M 71.3622 161.1157 L 72.8854 161.0764 L 73.0462 167.3118 L 71.5231 167.3511 L 71.3622 161.1157 Z " stroke-width="0.4761425476103625"/>
        <path id="ID0.7359844641759992" fill="#8A7B59" stroke="none" d="M 69.3622 160.5157 L 70.8854 160.4764 L 71.0462 166.7118 L 69.5231 166.7511 L 69.3622 160.5157 Z " stroke-width="0.4761425476103625"/>
        <path id="ID0.7359844641759992" fill="#8A7B59" stroke="none" d="M 75.1122 161.9657 L 76.6354 161.9264 L 76.7962 168.1618 L 75.2731 168.2011 L 75.1122 161.9657 Z " stroke-width="0.4761425476103625"/>
      </g>
      <g id="ID0.1049797898158431">
        <path id="ID0.08871637750416994" fill="#8A7B59" stroke="none" stroke-linecap="round" d="M 61.2465 159.8004 L 67.6755 160.6824 L 67.7722 166.2764 L 61.5805 165.3645 L 61.2465 159.8004 Z " stroke-width="0.4761425476103625"/>
        <path id="ID0.13805592898279428" fill="#76694C" stroke="none" stroke-linecap="round" d="M 61.0316 159.5252 L 67.77 160.3992 L 67.9395 163.2764 L 61.1748 162.3078 L 61.0316 159.5252 Z " stroke-width="0.4761425476103625"/>
        <path id="ID0.3221200187690556" fill="#61563F" stroke="none" stroke-linecap="round" d="M 63.8713 161.6585 L 64.7589 161.9975 L 64.8817 163.752 L 63.9173 163.4409 L 63.8713 161.6585 Z " stroke-width="0.516788880465941"/>
        <path id="ID0.1420820001512766" fill="#BAA578" stroke="none" stroke-linecap="round" d="M 67.0654 165.3447 L 67.7425 163.8983 L 67.8496 166.2056 L 61.5647 165.3675 L 67.0654 165.3447 Z " stroke-width="0.4761425476103625"/>
      </g>
      <path id="ID0.2888958193361759" fill="#393C40" stroke="none" stroke-linecap="round" d="M 107.9164 161.7238 L 100.5422 163.7278 L 101.0396 166.2523 L 108.4138 164.2483 L 107.9164 161.7238 Z " stroke-width="0.38104696966078183"/>
      <path id="ID0.2888958193361759" fill="#393C40" stroke="none" stroke-linecap="round" d="M 114.3854 159.7069 L 107.4422 161.8278 L 107.9396 164.3523 L 114.0392 162.6309 L 114.3854 159.7069 Z " stroke-width="0.38104696966078183"/>
      <path id="ID0.7359844641759992" fill="#8A7B59" stroke="none" d="M 105.8484 160.7302 L 104.7417 160.7588 L 104.8816 166.1829 L 105.9883 166.1544 L 105.8484 160.7302 Z " stroke-width="0.3816027936166222"/>
      <path id="ID0.7359844641759992" fill="#8A7B59" stroke="none" d="M 107.2484 160.1802 L 106.1417 160.2088 L 106.2816 165.6329 L 107.3883 165.6044 L 107.2484 160.1802 Z " stroke-width="0.3816027936166222"/>
      <path id="ID0.7359844641759992" fill="#8A7B59" stroke="none" d="M 108.6984 159.6802 L 107.5917 159.7088 L 107.7316 165.1329 L 108.8383 165.1044 L 108.6984 159.6802 Z " stroke-width="0.3816027936166222"/>
      <path id="ID0.7359844641759992" fill="#8A7B59" stroke="none" d="M 104.4484 161.3302 L 103.3417 161.3588 L 103.4816 166.7829 L 104.5883 166.7544 L 104.4484 161.3302 Z " stroke-width="0.3816027936166222"/>
      <g id="ID0.1049797898158431">
        <path id="ID0.08871637750416994" fill="#8A7B59" stroke="none" stroke-linecap="round" d="M 114.6178 158.677 L 109.7005 159.7724 L 109.8706 164.9407 L 114.6036 163.8281 L 114.6178 158.677 Z " stroke-width="0.4054529528373486"/>
        <path id="ID0.13805592898279428" fill="#76694C" stroke="none" stroke-linecap="round" d="M 114.8408 158.4461 L 109.6847 159.5476 L 109.6799 162.2111 L 114.8521 161.0212 L 114.8408 158.4461 Z " stroke-width="0.4054529528373486"/>
        <path id="ID0.3221200187690556" fill="#61563F" stroke="none" stroke-linecap="round" d="M 112.8099 160.4973 L 112.1405 160.849 L 112.1226 162.474 L 112.8524 162.1446 L 112.8099 160.4973 Z " stroke-width="0.4400648067510567"/>
        <path id="ID0.1420820001512766" fill="#BAA578" stroke="none" stroke-linecap="round" d="M 110.4463 164.0784 L 109.8611 162.7728 L 109.8794 164.9074 L 114.6876 163.8589 L 110.4463 164.0784 Z " stroke-width="0.4054529528373486"/>
      </g>
      <g id="ID0.6836685389280319">
        <path id="ID0.09357938077300787" fill="#857656" stroke="none" d="M 81.0539 161.2491 L 99.0223 160.7856 L 99.1881 167.2113 L 81.2197 167.6749 L 81.0539 161.2491 Z " stroke-width="0.4283320638846818"/>
        <path id="ID0.6492703901603818" fill="#7C6E50" stroke="none" stroke-linecap="round" d="M 81.8059 163.4201 L 90.0965 166.3022 L 98.8462 162.9805 L 98.9561 167.2406 L 81.9158 167.6802 L 81.8059 163.4201 Z " stroke-width="0.4761425476103625"/>
        <g id="ID0.9254062357358634">
          <g id="ID0.49943465692922473">
            <path id="ID0.140373723115772" fill="#968561" stroke="none" d="M 97.4534 159.6577 L 102.5703 159.5257 L 102.8036 168.5694 L 97.6867 168.7014 L 97.4534 159.6577 Z " stroke-width="0.4761425476103625"/>
            <path id="ID0.8286363878287375" fill="#BAA578" stroke="none" stroke-linecap="round" d="M 97.4433 159.467 L 102.6853 159.5699 L 98.5639 160.4383 L 97.5958 162.6066 L 97.4433 159.467 Z " stroke-width="0.4761425476103625"/>
            <path id="ID0.7362233307212591" fill="#8A7B59" stroke="none" stroke-linecap="round" d="M 97.6243 165.559 L 100.3386 165.5366 L 102.7273 163.0458 L 102.8716 168.6386 L 97.7072 168.7719 L 97.6243 165.559 Z " stroke-width="0.4761425476103625"/>
          </g>
          <g id="ID0.49943465692922473">
            <path id="ID0.140373723115772" fill="#968561" stroke="none" d="M 82.3923 160.2534 L 77.2754 160.3854 L 77.5087 169.4291 L 82.6256 169.2971 L 82.3923 160.2534 Z " stroke-width="0.4761425476103625"/>
            <path id="ID0.8286363878287375" fill="#BAA578" stroke="none" stroke-linecap="round" d="M 82.411 160.0774 L 77.1813 160.4505 L 81.342 161.1052 L 82.4206 163.2207 L 82.411 160.0774 Z " stroke-width="0.4761425476103625"/>
            <path id="ID0.7362233307212591" fill="#8A7B59" stroke="none" stroke-linecap="round" d="M 82.5443 166.1706 L 79.8325 166.2882 L 77.3185 163.9239 L 77.4628 169.5167 L 82.6272 169.3835 L 82.5443 166.1706 Z " stroke-width="0.4761425476103625"/>
          </g>
        </g>
      </g>
    </g>
  </g>
  <g id="ID0.8333355090580881">
    <path id="ID0.9286923445761204" fill="#27282B" stroke="none" stroke-linecap="round" d="M 70.7528 44.9088 L 89.6087 45.5079 L 91.2178 69.8141 L 106.7702 76.2394 L 84.4686 88.6467 L 47.2615 77.8202 L 66.6258 66.3124 L 70.7528 44.9088 Z " stroke-width="0.4761425648904848"/>
    <path id="ID0.5448851804248989" fill="none" stroke="#1D1E1F" stroke-width="0.9522851297809696" stroke-linecap="round" d="M 67.7846 60.4908 L 66.8072 66.1132 L 84.2479 73.1656 L 90.9368 69.9225 "/>
    <path id="ID0.262191956397146" fill="none" stroke="#1D1E1F" stroke-width="0.9522851297809696" stroke-linecap="round" d="M 70.7737 65.3088 L 83.761 70.9003 L 86.7054 69.643 "/>
  </g>
  <g id="ID0.3450673264451325">
    <g id="ID0.9831569031812251">
      <path id="ID0.0877610077150166" fill="#2E3034" stroke="none" stroke-linecap="round" d="M 93.0709 13.2937 L 88.2387 0.2706 L 88.806 28.7935 L 96.4758 28.641 L 93.0709 13.2937 Z " stroke-width="0.5866066532650569"/>
      <path id="ID0.796130308881402" fill="#242628" stroke="none" stroke-linecap="round" d="M 93.4071 13.3815 L 88.2193 0.3655 L 92.05 14.1301 L 93.2858 28.9958 L 96.4545 28.6376 L 93.4071 13.3815 Z " stroke-width="0.5866066532650569"/>
    </g>
    <g id="ID0.9831569031812251">
      <path id="ID0.0877610077150166" fill="#2E3034" stroke="none" stroke-linecap="round" d="M 69.2727 13.9546 L 73.5833 0.7496 L 74.1506 29.2726 L 66.4807 29.4251 L 69.2727 13.9546 Z " stroke-width="0.5866066532650569"/>
      <path id="ID0.796130308881402" fill="#242628" stroke="none" stroke-linecap="round" d="M 68.8883 14.0095 L 73.5544 0.7975 L 70.274 14.7035 L 69.4715 29.2818 L 66.4499 29.3747 L 68.8883 14.0095 Z " stroke-width="0.5866066532650569"/>
    </g>
    <path id="ID0.8999492498114705" fill="#2E3034" stroke="none" stroke-linecap="round" d="M 87.0238 19.4 C 91.4367 19.7914 96.2215 22.4072 98.4305 26.2469 C 100.9512 30.6308 99.1151 36.267 99.5141 41.2556 C 99.7212 42.9553 100.5484 44.6919 100.25 46.3223 C 99.6422 49.6388 98.0288 52.7004 97.0109 55.9143 C 96.3439 58.0206 96.2363 60.378 95.1054 62.304 C 93.8347 64.5823 92.5545 67.7425 89.9644 68.2498 C 86.1247 69.0015 82.0124 67.2418 78.5286 65.5555 C 75.6666 64.1698 72.9697 62.011 71.3405 59.2705 C 68.4191 54.1827 65.746 48.5747 65.2435 42.6994 C 64.6866 36.1865 63.7562 28.1373 68.4152 23.3271 C 72.5763 18.7021 80.4639 18.8211 87.0238 19.4 Z " stroke-width="0.5080372920870834"/>
    <path id="ID0.2441388238221407" fill="#AB8E85" stroke="none" d="M 85.1083 44.3779 C 89.191 44.4638 94.566 41.1916 97.3453 43.8833 C 99.8515 46.4248 96.5807 51.3522 95.6792 54.8445 C 94.7811 58.3178 94.1673 62.0694 91.9866 64.9666 C 90.9446 66.256 88.7211 66.3718 86.9855 66.1337 C 83.8643 65.7022 80.7777 64.4799 78.148 62.741 C 75.4267 60.9424 71.8393 58.9839 71.2039 55.7709 C 70.3994 51.7008 70.9563 46.2936 74.1031 43.6548 C 76.9914 41.3477 81.4364 44.3002 85.1083 44.3779 Z " stroke-width="1.255840073792672"/>
    <path id="ID0.46721756737679243" fill="#A2887F" stroke="none" stroke-linecap="round" d="M 70.6024 45.7599 L 72.2922 46.4123 L 98.291 45.5141 L 91.1793 50.7369 L 74.3938 48.6063 L 75.5588 50.9714 L 75.9244 56.579 L 79.6991 63.6941 L 74.9948 57.1057 L 70.6024 45.7599 Z " stroke-width="0.5080372920870834"/>
    <path id="ID0.8256730306893587" fill="none" stroke="#937B73" stroke-width="1.0160745841741667" stroke-linecap="round" d="M 81.7817 57.2673 C 81.7817 57.2673 84.4685 56.6173 85.8296 56.3992 C 86.1699 56.3447 86.5098 56.4157 86.8469 56.4552 C 87.1897 56.4956 87.5222 56.6567 87.8669 56.6382 C 88.5501 56.6017 89.2151 56.3913 89.8925 56.293 C 90.2285 56.2441 90.5675 56.1993 90.9069 56.1966 C 91.2468 56.1939 91.5921 56.2074 91.9248 56.278 C 92.4718 56.3941 93.5349 56.7541 93.5349 56.7541 "/>
    <path id="ID0.7592270169407129" fill="none" stroke="#937B73" stroke-width="1.0160745841741667" stroke-linecap="round" d="M 90.1952 58.4132 C 90.1952 58.4132 89.5803 58.7704 89.2382 58.8387 C 88.9062 58.9053 88.5574 58.7674 88.2213 58.8081 C 87.8832 58.8494 87.5728 59.0324 87.2359 59.0818 C 86.901 59.1311 86.5512 59.1706 86.22 59.102 C 85.9384 59.0436 85.45 58.7108 85.45 58.7108 "/>
    <path id="ID0.5332203092984855" fill="none" stroke="#937B73" stroke-width="1.0160745841741667" stroke-linecap="round" d="M 84.237 49.1473 C 84.237 49.1473 83.6402 49.5911 83.5411 49.9234 C 83.4127 50.3685 83.1751 51.2183 83.6237 51.5224 C 84.21 51.8009 84.9539 51.0589 85.6479 51.101 C 86.3195 51.1446 87.6389 51.5696 87.6389 51.5696 "/>
    <path id="ID0.2278452254831791" fill="none" stroke="#937B73" stroke-width="1.0160745841741667" stroke-linecap="round" d="M 88.5072 45.4038 C 88.5072 45.4038 89.4783 47.2473 89.9596 48.1697 C 90.1207 48.4785 90.2974 48.7809 90.4354 49.1003 C 90.5733 49.4197 90.792 49.7365 90.7852 50.0842 C 90.7785 50.4329 90.5786 50.759 90.3981 51.0573 C 90.2776 51.2569 89.8998 51.55 89.8998 51.55 "/>
    <path id="ID0.6473136460408568" fill="none" stroke="#937B73" stroke-width="1.0160745365966164" stroke-linecap="round" d="M 89.1364 62.2703 C 89.1364 62.2703 89.4657 62.8987 89.5234 63.2422 C 89.5792 63.5767 89.5261 63.9253 89.4692 64.2596 C 89.3838 64.7634 89.0981 65.7485 89.0981 65.7485 "/>
    <path id="ID0.11669129692018032" fill="#2E3034" stroke="none" stroke-linecap="round" d="M 72.4265 40.3882 L 95.6999 41.7038 L 99.6895 44.2922 L 90.3861 49.1775 L 69.6372 47.0495 L 72.4265 40.3882 Z " stroke-width="0.5080372920870834"/>
    <path id="ID0.14635155349969864" fill="#2E3034" stroke="none" stroke-linecap="round" d="M 69.8644 45.6984 L 71.7259 46.0425 L 74.4707 51.1963 L 74.8902 56.9553 L 76.7945 60.7285 L 79.76 64.201 L 71.4278 59.1584 L 69.8644 45.6984 Z " stroke-width="0.5080372920870834"/>
    <path id="ID0.28340246016159654" fill="#1C1D1F" stroke="none" stroke-linecap="round" d="M 72.4443 37.1948 L 75.9039 38.6656 L 85.5875 39.3643 L 85.7019 45.1153 L 78.7442 44.3083 L 74.8617 43.3051 L 72.8067 41.8334 L 71.9083 40.1226 L 72.4443 37.1948 Z " stroke-width="0.5401026464085931"/>
    <path id="ID0.6101007834076881" fill="#FFFFFF" stroke="none" stroke-linecap="round" d="M 76.2905 39.6564 L 77.9509 40.0233 L 81.754 41.1491 L 82.3377 43.1061 L 77.0551 41.758 L 76.2905 39.6564 Z " stroke-width="0.40610619022294375"/>
    <path id="ID0.28340246016159654" fill="#1C1D1F" stroke="none" stroke-linecap="round" d="M 97.953 36.7587 L 94.9226 38.1919 L 86.319 39.1579 L 86.421 44.2862 L 92.5919 43.3204 L 96.0157 42.2889 L 97.7946 40.9047 L 98.5344 39.3485 L 97.953 36.7587 Z " stroke-width="0.481625006459808"/>
    <path id="ID0.6101007834076881" fill="#FFFFFF" stroke="none" stroke-linecap="round" d="M 96.3053 38.84 L 94.7739 39.3619 L 91.2965 40.8274 L 90.9509 42.7395 L 95.8039 40.9078 L 96.3053 38.84 Z " stroke-width="0.38638673653429184"/>
    <g id="ID0.07940126257017255">
      <path id="ID0.46257128613069654" fill="#27282B" stroke="none" stroke-linecap="round" d="M 85.8468 39.2345 L 90.3876 49.1037 L 80.3306 48.0334 L 85.8468 39.2345 Z " stroke-width="0.5080372920870834"/>
      <path id="ID0.9845890481956303" fill="#27282B" stroke="none" stroke-linecap="round" d="M 86.6589 39.3429 L 95.0848 46.5433 L 90.4623 49.176 L 86.6589 39.3429 Z " stroke-width="0.5080372920870834"/>
    </g>
    <path id="ID0.20071752788498998" fill="#202324" stroke="none" d="M 77.2343 34.833 L 81.425 37.3157 L 86.1975 38.3895 L 86.3015 39.7848 L 78.5048 38.6696 L 72.5662 36.4503 L 74.2579 34.6381 L 77.2343 34.833 Z " stroke-width="0.5080372920870834"/>
    <path id="ID0.20071752788498998" fill="#202324" stroke="none" d="M 94.2195 34.196 L 91.2159 36.7033 L 86.0043 38.3687 L 85.9599 39.6516 L 93.0666 38.3447 L 98.4553 36.2096 L 96.873 34.0034 L 94.2195 34.196 Z " stroke-width="0.46609799586719175"/>
    <path id="ID0.521138689480722" fill="none" stroke="#212325" stroke-width="0.9060627706201393" stroke-linecap="round" d="M 98.0124 36.4783 L 94.8054 38.128 L 86.2922 39.5434 "/>
    <path id="ID0.17828734638169408" fill="none" stroke="#202324" stroke-width="1.0160745841741667" stroke-linecap="round" d="M 90.2734 48.6208 L 87.2088 41.4408 C 86.1601 39.0419 86.3197 39.6073 86.1115 38.6424 C 86.0387 38.3054 86.2499 37.9649 86.2944 37.6225 C 86.338 37.2852 86.3953 36.9442 86.3758 36.6046 C 86.3563 36.2615 86.2506 35.9277 86.1778 35.5923 C 86.0643 35.0686 85.8164 34.0242 85.8164 34.0242 "/>
    <path id="ID0.521138689480722" fill="none" stroke="#212325" stroke-width="1.0160745841741667" stroke-linecap="round" d="M 72.7964 36.6648 L 76.4636 38.3703 L 86.0659 39.5767 "/>
    <path id="ID0.8012696979567409" fill="none" stroke="url(#grad_1)" stroke-width="1.0160745841741667" stroke-linecap="round" d="M 98.2819 45.057 L 90.893 49.1166 L 72.2561 47.1498 L 74.3138 50.9707 L 74.7398 57.0599 L 76.7417 60.6279 L 79.7092 64.2021 "/>
    <path id="ID0.043594349175691605" fill="#D7E2FD" stroke="none" stroke-linecap="round" d="M 81.6267 42.2223 L 81.833 41.1003 L 82.3819 43.1473 L 79.7768 42.4624 L 81.6267 42.2223 Z " stroke-width="0.5080372920870834"/>
    <path id="ID0.043594349175691605" fill="#D7E2FD" stroke="none" stroke-linecap="round" d="M 91.6249 41.8435 L 91.3398 40.8463 L 91.0226 42.7467 L 93.3199 41.8986 L 91.6249 41.8435 Z " stroke-width="0.4618642748962965"/>
  </g>
  <g id="ID0.7049301471561193">
    <path id="ID0.05466862628236413" fill="#303436" stroke="none" stroke-linecap="round" d="M 61.1919 231.2418 L 87.9251 231.8229 L 79.9933 249.6079 L 77.6058 254.3183 L 74.0199 272.1029 L 64.1352 311.6384 L 48.3662 310.8966 L 49.8757 288.6986 L 48.6134 279.7314 L 48.8616 270.2152 L 53.1509 257.2383 L 55.1935 245.0876 L 61.1919 231.2418 Z " stroke-width="0.7305889897063004"/>
    <path id="ID0.4490455654449761" fill="none" stroke="#272A2B" stroke-width="1.6585523271142377" stroke-linecap="round" d="M 60.9506 232.0791 L 87.7377 232.2775 L 76.9992 255.2239 "/>
    <path id="ID0.10446935473009944" fill="none" stroke="#242728" stroke-width="1.6585523271142377" stroke-linecap="round" d="M 74.6208 267.3295 L 71.6673 283.9067 L 60.0493 289.3941 "/>
    <path id="ID0.42170455446466804" fill="none" stroke="#242728" stroke-width="1.6585523271142377" stroke-linecap="round" d="M 70.3869 284.8719 L 66.4534 299.4846 L 54.5862 305.1265 "/>
    <path id="ID0.047098892275244" fill="none" stroke="#242728" stroke-width="1.6585523271142377" stroke-linecap="round" d="M 55.5254 245.557 L 54.4089 249.3356 L 57.3753 258.8136 "/>
  </g>
  <g id="ID0.4107501800172031">
    <g id="ID0.12414784263819456">
      <path id="ID0.05466862628236413" fill="#292D2E" stroke="none" stroke-linecap="round" d="M 135.855 202.8527 L 162.5854 202.1549 L 155.5131 220.2988 L 153.3535 225.1179 L 150.6222 243.0537 L 142.6391 283.0166 L 126.8527 283.0296 L 127.299 260.7848 L 125.6095 251.8882 L 125.4024 242.3711 L 129.0662 229.2039 L 130.5255 216.9695 L 135.855 202.8527 Z " stroke-width="0.7305889713468618"/>
      <path id="ID0.4490455654449761" fill="none" stroke="#272A2B" stroke-width="1.65855227181878" stroke-linecap="round" d="M 135.5556 203.1961 L 162.3215 202.1134 L 152.6925 225.5471 "/>
      <path id="ID0.10446935473009944" fill="none" stroke="#242728" stroke-width="1.65855227181878" stroke-linecap="round" d="M 150.8956 237.7525 L 148.7381 254.452 L 137.3958 260.4886 "/>
      <path id="ID0.42170455446466804" fill="none" stroke="#242728" stroke-width="1.65855227181878" stroke-linecap="round" d="M 147.5054 255.4773 L 144.2751 270.2614 L 132.6913 276.4642 "/>
      <path id="ID0.047098892275244" fill="none" stroke="#242728" stroke-width="1.65855227181878" stroke-linecap="round" d="M 130.8699 216.9017 L 129.9353 220.7294 L 133.3516 230.0547 "/>
    </g>
    <path id="ID0.5368814701214433" fill="#292D2E" stroke="none" stroke-linecap="round" d="M 121.1514 288.3493 L 123.649 279.4026 L 127.7326 269.9697 L 137.9535 275.3894 L 149.5401 282.5287 L 167.4343 292.1039 L 168.7943 298.5666 L 144.1713 300.8156 L 122.7873 298.0742 L 121.1514 288.3493 Z " stroke-width="0.7702165161052684"/>
  </g>
</svg>