<svg xmlns="http://www.w3.org/2000/svg" xmlns:xlink="http://www.w3.org/1999/xlink" version="1.1" width="132.475157127656" height="336.59504543332" viewBox="1.3889237116389297 -0.6115762521214462 132.475157127656 336.59504543332">
  <defs>
    <linearGradient id="grad_1" y2="1" x2="0">
      <stop offset="0" stop-color="#222325" stop-opacity="1"/>
      <stop offset="1" stop-color="#2E3034" stop-opacity="1"/>
    </linearGradient>
  </defs>
  <!-- Exported by Scratch - http://scratch.mit.edu/ -->
  <g id="ID0.9602425838820636">
    <g id="ID0.17693647183477879">
      <path id="ID0.7729651997797191" fill="#393C40" stroke="none" stroke-linecap="round" d="M 110.5856 103.7866 L 91.2812 103.2835 L 93.3751 119.6863 L 94.9626 132.9182 L 98.1766 138.6694 L 101.1879 142.2532 L 113.5005 139.9996 L 115.3466 134.4923 L 111.7595 115.0283 L 110.5856 103.7866 Z " stroke-width="0.7788099304364015"/>
      <path id="ID0.9716172609478235" fill="#34373A" stroke="none" stroke-linecap="round" d="M 106.1469 108.9908 L 110.9976 107.1448 L 109.7519 100.7827 L 91.842 108.5307 L 94.4635 111.6507 L 99.5459 113.8899 L 106.1469 108.9908 Z " stroke-width="0.7788099304364015"/>
      <g id="ID0.38066427363082767">
        <path id="ID0.4757494777441025" fill="#1D1E1F" stroke="none" stroke-linecap="round" d="M 103.6935 79.3446 L 95.7256 76.6014 L 80.1647 79.9236 L 85.8686 104.809 L 95.2977 110.4144 L 99.508 111.8057 L 102.7586 109.8084 L 105.719 107.216 L 111.3649 105.1987 L 111.9297 100.005 L 111.9187 92.2538 L 109.5518 84.0702 L 103.6935 79.3446 Z " stroke-width="0.4541860350603536"/>
        <path id="ID0.6007084371522069" fill="none" stroke="#0D0D0D" stroke-width="0.9083720701207072" stroke-linecap="round" d="M 110.8829 105.4988 L 105.8322 107.2259 L 101.4554 110.3791 L 99.4981 111.9188 L 95.2977 110.4144 L 91.2988 107.9018 "/>
      </g>
    </g>
    <g id="ID0.7397577832452953">
      <path id="ID0.6726378230378032" fill="#34373A" stroke="none" stroke-linecap="round" d="M 114.9004 131.6762 L 98.7513 138.9516 L 99.3386 141.1914 L 115.1132 133.7272 L 114.9004 131.6762 Z " stroke-width="0.7788099304364015"/>
      <path id="ID0.6507829907350242" fill="#1D1E1F" stroke="none" stroke-linecap="round" d="M 118.0198 132.9654 L 99.1384 141.0981 L 97.9604 159.1713 L 99.0245 169.4263 L 97.6943 184.7501 L 96.5735 190.9068 L 107.8495 193.84 L 108.5823 187.6497 L 111.1363 178.4905 L 114.8791 166.8939 L 117.4163 157.9287 L 118.0198 132.9654 Z " stroke-width="0.7788099304364015"/>
      <path id="ID0.6829322893172503" fill="#1D1E1F" stroke="none" stroke-linecap="round" d="M 108.2712 193.4857 L 98.7995 187.7776 L 95.2413 192.7455 L 90.8735 198.0339 L 90.402 203.4652 L 90.5967 207.977 L 92.2838 211.055 L 93.086 217.574 L 97.5642 217.7673 L 98.8964 215.9286 L 100.465 215.8693 L 103.7875 213.6171 L 107.3376 210.9938 L 109.6478 206.8947 L 109.4612 200.0383 L 108.2712 193.4857 Z " stroke-width="0.7788099304364015"/>
      <path id="ID0.47767175547778606" fill="none" stroke="#0D0D0D" stroke-width="1.557619860872803" stroke-linecap="round" d="M 117.6931 136.7285 L 117.7583 132.8255 L 99.216 141.1049 L 98.3712 154.4383 "/>
      <path id="ID0.5922487881034613" fill="#282A2B" stroke="none" stroke-linecap="round" d="M 116.09 165.4563 L 109.8433 159.52 L 104.0174 159.0924 L 97.6289 164.2446 L 97.7508 178.6001 L 101.5892 186.1643 L 104.8867 186.4506 L 111.3121 179.9727 L 116.09 165.4563 Z " stroke-width="0.7788099304364015"/>
      <path id="ID0.36820242274552584" fill="#151616" stroke="none" stroke-linecap="round" d="M 110.026 167.4741 L 101.9635 166.696 L 103.5742 177.8584 L 105.0164 177.9054 L 110.026 167.4741 Z " stroke-width="0.7788099304364015"/>
      <path id="ID0.13569410238415003" fill="none" stroke="#232425" stroke-width="1.557619860872803" stroke-linecap="round" d="M 109.7312 178.0167 L 103.7073 184.3731 L 99.3478 176.959 "/>
      <path id="ID0.024502143263816833" fill="none" stroke="#0D0D0D" stroke-width="1.557619860872803" stroke-linecap="round" d="M 115.739 165.0924 L 110.1637 159.5271 L 104.4423 158.7959 L 97.9762 163.9413 L 98.1225 172.1622 "/>
    </g>
  </g>
  <path id="ID0.3809091211296618" fill="#393D40" stroke="none" stroke-linecap="round" d="M 78.2025 187.0067 L 99.4535 167.9573 L 113.448 204.1389 L 115.64 214.863 L 115.6456 233.4745 L 108.1188 238.4445 L 96.0629 243.3542 L 90.2277 223.3691 L 88.7525 212.0072 L 78.2025 187.0067 Z " stroke-width="0.7305889791356033"/>
  <path id="ID0.3809091211296618" fill="#3E4246" stroke="none" stroke-linecap="round" d="M 51.1869 153.4386 L 72.4432 169.7195 L 70.3929 208.459 L 68.0009 219.1403 L 60.384 236.1218 L 51.482 237.5734 L 38.4727 237.1154 L 40.7355 215.4613 L 40.7967 202.0454 L 51.1869 153.4386 Z " stroke-width="0.7305889418788697"/>
  <path id="ID0.5368814701214433" fill="#303436" stroke="none" stroke-linecap="round" d="M 2.8701 312.5566 L 7.3646 304.4275 L 13.5144 296.1913 L 22.209 303.823 L 31.8358 313.443 L 47.038 326.8883 L 46.8703 333.4904 L 22.3928 329.9978 L 2.2182 322.3966 L 2.8701 312.5566 Z " stroke-width="0.7702165481223965"/>
  <g id="ID0.17693647183477879">
    <path id="ID0.7729651997797191" fill="#3E4246" stroke="none" stroke-linecap="round" d="M 27.1953 102.759 L 47.4054 101.5792 L 45.7658 118.8369 L 44.5497 132.7549 L 41.3765 138.8896 L 38.3424 142.7465 L 25.3651 140.8014 L 23.2446 135.0932 L 26.3453 114.5776 L 27.1953 102.759 Z " stroke-width="0.8164596023795816"/>
    <path id="ID0.9716172609478235" fill="#393C40" stroke="none" stroke-linecap="round" d="M 32.022 108.0618 L 26.8771 106.2916 L 27.9673 99.5833 L 46.9952 107.0962 L 44.3537 110.454 L 39.1041 112.972 L 32.022 108.0618 Z " stroke-width="0.8164596023795816"/>
    <g id="ID0.38066427363082767">
      <path id="ID0.4757494777441025" fill="#1D1E1F" stroke="none" stroke-linecap="round" d="M 33.5282 76.811 L 41.7843 73.6674 L 58.2012 76.6223 L 53.0658 102.89 L 43.3755 109.0821 L 39.011 110.6821 L 35.5375 108.6993 L 32.3479 106.0831 L 26.364 104.1602 L 25.5967 98.7373 L 25.3462 90.6153 L 27.5496 81.9605 L 33.5282 76.811 Z " stroke-width="0.47614253789875893"/>
      <path id="ID0.6007084371522069" fill="none" stroke="#0D0D0D" stroke-width="0.9522850757975179" stroke-linecap="round" d="M 26.8792 104.4583 L 32.2297 106.0972 L 36.9223 109.2532 L 39.0251 110.8003 L 43.3755 109.0821 L 47.4806 106.3142 "/>
    </g>
  </g>
  <g id="ID0.7397577832452953">
    <path id="ID0.6726378230378032" fill="#393C40" stroke="none" stroke-linecap="round" d="M 23.057 133.4485 L 40.9424 138.4387 L 40.6874 140.8528 L 23.1602 135.6077 L 23.057 133.4485 Z " stroke-width="0.8164595982398897"/>
    <path id="ID0.6507829907350242" fill="#1D1E1F" stroke="none" stroke-linecap="round" d="M 20.1234 135.3596 L 40.9759 140.8069 L 45.0505 159.3516 L 45.5669 170.1477 L 49.3652 185.8191 L 51.4988 192.0227 L 40.2757 196.8431 L 38.5388 190.5433 L 34.4456 181.4541 L 28.7356 170.0266 L 24.6905 161.1358 L 20.1234 135.3596 Z " stroke-width="0.8164595982398897"/>
    <path id="ID0.6829322893172503" fill="#1D1E1F" stroke="none" stroke-linecap="round" d="M 39.7828 196.5425 L 48.6977 189.1312 L 53.1698 193.718 L 58.5315 198.5091 L 59.8778 204.0636 L 60.3885 208.7703 L 59.1259 212.2267 L 59.3239 219.1095 L 54.7133 220.017 L 53.0423 218.3217 L 51.4072 218.508 L 47.6083 216.6984 L 43.5148 214.5402 L 40.4733 210.6568 L 39.584 203.5215 L 39.7828 196.5425 Z " stroke-width="0.8164595982398897"/>
    <path id="ID0.47767175547778606" fill="none" stroke="#0D0D0D" stroke-width="1.6329191964797793" stroke-linecap="round" d="M 21.0561 139.208 L 20.3723 135.1733 L 40.8966 140.8261 L 43.8774 154.5113 "/>
    <path id="ID0.5922487881034613" fill="#282A2B" stroke="none" stroke-linecap="round" d="M 27.1114 168.644 L 32.648 161.5054 L 38.6184 160.1424 L 46.0528 164.4733 L 48.1932 179.3703 L 45.4096 187.8159 L 42.0373 188.6332 L 34.3553 182.9342 L 27.1114 168.644 Z " stroke-width="0.8164595982398897"/>
    <path id="ID0.36820242274552584" fill="#151616" stroke="none" stroke-linecap="round" d="M 33.9234 169.8041 L 42.1564 167.7247 L 42.2496 179.5475 L 40.7624 179.8239 L 33.9234 169.8041 Z " stroke-width="0.8164595982398897"/>
    <path id="ID0.13569410238415003" fill="none" stroke="#232425" stroke-width="1.6329191964797793" stroke-linecap="round" d="M 35.827 180.7413 L 43.0738 186.3778 L 46.4213 178.0056 "/>
    <path id="ID0.024502143263816833" fill="none" stroke="#0D0D0D" stroke-width="1.6329191964797793" stroke-linecap="round" d="M 27.5599 168.2953 L 32.4594 161.6472 L 38.2735 159.986 L 45.7872 164.2976 L 46.9337 172.8408 "/>
  </g>
  <g id="ID0.9157347986474633">
    <path id="ID0.7477802094072104" fill="#363A3D" stroke="none" stroke-linecap="round" d="M 104.1154 124.4715 L 84.6382 120.9715 L 83.7831 162.1489 L 100.2591 171.4206 L 103.0532 146.952 L 104.1154 124.4715 Z " stroke-width="0.47614257300029306"/>
    <path id="ID0.7477802094072104" fill="#363A3D" stroke="none" stroke-linecap="round" d="M 43.7831 123.2358 L 67.2874 120.8664 L 66.4323 162.0439 L 49.5855 170.6236 L 44.6325 145.3988 L 43.7831 123.2358 Z " stroke-width="0.47614257300029306"/>
    <path id="ID0.4270821204409003" fill="#3E4246" stroke="none" stroke-linecap="round" d="M 44.5179 103.1385 L 48.5858 90.7215 L 50.968 84.937 L 57.6594 78.0513 L 88.6913 80.1245 L 95.505 84.5522 L 98.2772 88.6578 L 105.0615 100.2286 L 104.13 110.6866 L 103.0642 116.1413 L 104.587 123.0785 L 104.9494 128.5629 L 102.6639 135.421 L 100.9366 140.6238 L 99.5537 149.8818 L 100.5985 171.8108 L 95.2868 179.9158 L 90.3736 186.0287 L 78.1457 191.204 L 66.6169 187.9404 L 62.8289 181.1467 L 58.0115 174.6174 L 49.5309 171.3457 L 48.9148 145.9728 L 47.8631 139.2835 L 43.5303 127.7637 L 42.4461 116.9066 L 44.5179 103.1385 Z " stroke-width="0.47614257300029306"/>
    <path id="ID0.052435632329434156" fill="#393C40" stroke="none" stroke-linecap="round" d="M 55.6176 153.3064 L 60.0676 153.4464 L 66.5926 156.868 L 71.6659 156.8067 L 77.5079 158.7139 L 81.7193 157.7298 L 83.3953 157.2884 L 97.6758 154.1797 L 97.9646 157.4718 L 89.3094 161.4592 L 83.3653 161.0263 L 77.7086 163.9568 L 71.1172 160.2957 L 64.6817 160.5907 L 54.883 156.5772 L 55.6176 153.3064 Z " stroke-width="0.47614257300029306"/>
    <path id="ID0.4987568911164999" fill="none" stroke="#27282B" stroke-width="0.9522851460005861" stroke-linecap="round" d="M 57.4282 78.7223 L 50.8732 84.7774 L 47.3333 94.705 "/>
    <path id="ID0.2889464790932834" fill="none" stroke="#27282B" stroke-width="0.9522851460005861" stroke-linecap="round" d="M 90.0073 80.8276 L 95.6407 84.7545 L 101.1604 94.1559 "/>
    <path id="ID0.8373676878400147" fill="#000000" stroke="#2C2F31" stroke-width="0.6155104186945868" stroke-linecap="round" d="M 60.7718 91.8289 L 61.1477 90.3053 L 57.4906 91.1437 L 52.5712 94.3904 L 48.345 99.3623 L 45.7859 104.9474 L 50.9649 102.7905 L 55.6638 102.7687 L 58.3933 103.7374 L 60.8766 106.7745 L 62.9998 105.7908 L 67.0137 105.5844 L 71.5076 106.7087 L 75.2907 109.9577 L 77.3094 113.0511 L 79.5215 110.069 L 83.2778 107.0016 L 87.42 105.6457 L 92.5766 105.7213 L 94.3974 106.3414 L 96.1518 103.2619 L 98.1315 102.0408 L 100.7243 102.6183 L 103.4998 104.2822 L 102.1302 100.4475 L 99.9186 96.4983 L 97.1278 93.4475 L 93.9954 91.1516 L 89.4947 90.1811 L 91.6416 92.125 L 91.5629 93.8928 L 89.9298 95.9766 L 86.336 97.1258 L 83.1675 97.3698 L 80.5473 97.4072 L 78.0914 93.7552 L 77.6147 95.8134 L 76.1543 95.7484 L 74.6463 93.2938 L 73.6126 97.4836 L 69.5286 97.5328 L 65.4156 96.5025 L 62.0919 95.0453 L 60.7718 91.8289 Z "/>
    <path id="ID0.5698574706912041" fill="none" stroke="#313537" stroke-width="0.9522851460005861" stroke-linecap="round" d="M 55.5497 153.1383 L 54.8879 156.3392 L 64.6792 160.7097 L 71.4702 160.4935 L 77.473 163.8328 "/>
    <path id="ID0.5698574706912041" fill="none" stroke="#313537" stroke-width="0.8933066257048137" stroke-linecap="round" d="M 97.4201 154.2278 L 97.8721 157.4518 L 89.1747 161.4384 L 83.2685 160.9586 L 77.9108 164.0619 "/>
    <path id="ID0.8947288258932531" fill="#393C40" stroke="none" stroke-linecap="round" d="M 57.1069 141.2169 L 64.131 141.2437 L 71.6367 143.3045 L 77.1869 148.9442 L 70.1848 144.4173 L 59.4575 142.6944 L 54.2773 145.611 L 57.1069 141.2169 Z " stroke-width="0.47614257300029306"/>
    <path id="ID0.8947288258932531" fill="#393C40" stroke="none" stroke-linecap="round" d="M 95.8687 143.0222 L 89.657 142.7878 L 82.9447 144.3343 L 77.8299 149.1171 L 84.1875 145.3716 L 93.7361 144.2423 L 98.2093 147.0115 L 95.8687 143.0222 Z " stroke-width="0.4213738884176943"/>
    <path id="ID0.9897695370018482" fill="#393C40" stroke="none" stroke-linecap="round" d="M 60.3037 153.5466 L 53.768 152.9346 L 54.2928 148.3021 L 55.4103 151.8257 L 60.5009 152.0743 L 66.5692 155.7007 L 72.0511 155.4574 L 76.1153 156.9705 L 77.659 149.1445 L 77.6933 158.9559 L 72.1414 156.8403 L 66.2623 156.7183 L 60.3037 153.5466 Z " stroke-width="0.47614257300029306"/>
    <path id="ID0.9897695370018482" fill="#393C40" stroke="none" stroke-linecap="round" d="M 92.6103 154.4693 L 98.155 154.1415 L 97.8823 149.8173 L 96.8083 153.0505 L 92.4979 153.0939 L 87.237 156.2401 L 82.6142 155.8119 L 79.1244 157.0682 L 78.1086 149.7389 L 77.7179 158.855 L 82.4868 157.0937 L 87.4588 157.197 L 92.6103 154.4693 Z " stroke-width="0.4232251205631144"/>
    <path id="ID0.3524594851769507" fill="#393C40" stroke="none" stroke-linecap="round" d="M 71.4472 119.0607 L 77.3046 121.3731 L 81.804 119.1329 L 78.5593 122.8755 L 79.28 134.0346 L 88.3664 133.366 L 77.867 136.7199 L 66.3014 131.7887 L 75.9468 134.013 L 75.7764 122.7225 L 71.4472 119.0607 Z " stroke-width="0.47614257300029306"/>
    <path id="ID0.9214867809787393" fill="#393C40" stroke="none" stroke-linecap="round" d="M 57.1875 137.3371 L 60.2502 133.186 L 65.0304 132.3327 L 59.1001 136.972 L 58.8012 139.8947 L 63.8463 140.0471 L 71.9436 143.4299 L 63.0098 141.3394 L 57.1545 141.2178 L 57.1875 137.3371 Z " stroke-width="0.47614257300029306"/>
    <path id="ID0.9214867809787393" fill="#393C40" stroke="none" stroke-linecap="round" d="M 95.622 138.9159 L 92.9825 134.8388 L 88.6446 133.8397 L 93.8873 138.4935 L 94.0471 141.292 L 89.428 141.2415 L 82.7251 143.9429 L 90.1427 142.5062 L 95.5015 142.6175 L 95.622 138.9159 Z " stroke-width="0.4451788453890468"/>
    <path id="ID0.8679121839813888" fill="#2C2F31" stroke="none" stroke-linecap="round" d="M 73.4241 118.0054 L 77.1988 119.703 L 80.5652 118.1299 L 81.4975 119.1017 L 77.5148 121.686 L 71.8012 119.329 L 73.4241 118.0054 Z " stroke-width="0.47614257300029306"/>
    <path id="ID0.24770551454275846" fill="none" stroke="#313537" stroke-width="0.9522851460005861" stroke-linecap="round" d="M 77.4959 116.1296 L 82.0631 119.7963 L 89.5509 120.4281 L 97.1898 119.5151 L 102.5053 115.8156 "/>
    <path id="ID0.20603158557787538" fill="none" stroke="#313537" stroke-width="0.9522851460005861" stroke-linecap="round" d="M 44.2476 111.4286 L 51.158 116.9298 L 63.4683 120.4001 L 70.7403 119.9558 L 77.0103 116.157 "/>
    <g id="ID0.5272086253389716">
      <path id="ID0.24770551454275846" fill="none" stroke="#363A3D" stroke-width="0.9522850864087884" stroke-linecap="round" d="M 46.9879 144.0256 L 56.9553 141.0655 "/>
      <path id="ID0.24770551454275846" fill="none" stroke="#363A3D" stroke-width="0.9522850864087884" stroke-linecap="round" d="M 44.6542 132.0538 L 65.2053 126.2655 "/>
    </g>
    <g id="ID0.5272086253389716">
      <path id="ID0.24770551454275846" fill="none" stroke="#363A3D" stroke-width="0.9522850864087884" stroke-linecap="round" d="M 102.4797 144.2318 L 95.5807 142.2557 "/>
      <path id="ID0.24770551454275846" fill="none" stroke="#363A3D" stroke-width="0.9522850864087884" stroke-linecap="round" d="M 103.2029 132.8424 L 89.4298 127.7945 "/>
    </g>
    <g id="ID0.7887678607366979">
      <path id="ID0.753661650698632" fill="none" stroke="#313537" stroke-width="0.9522850864087884" stroke-linecap="round" d="M 71.9207 119.1896 L 77.1078 121.6786 L 81.2085 119.1444 "/>
      <g id="ID0.8167418288066983">
        <path id="ID0.9553722990676761" fill="none" stroke="#313537" stroke-width="1.0409107743576298" stroke-linecap="round" d="M 77.4063 136.5479 L 71.8392 134.2892 L 65.706 132.2569 L 60.9163 133.1099 L 57.3201 137.3214 L 57.2484 140.7727 "/>
        <path id="ID0.5982440118677914" fill="none" stroke="#313537" stroke-width="0.8540413396238158" stroke-linecap="round" d="M 66.0334 131.8556 L 64.9532 126.5387 L 70.3362 119.5913 "/>
      </g>
      <g id="ID0.7324484633281827">
        <path id="ID0.04993448918685317" fill="none" stroke="#313537" stroke-width="0.9522850864087884" stroke-linecap="round" d="M 77.1102 121.5595 L 77.6068 132.0472 L 77.7418 148.4805 L 77.6413 164.7898 "/>
        <g id="ID0.8167418288066983">
          <path id="ID0.9553722990676761" fill="none" stroke="#313537" stroke-width="0.9699703077304642" stroke-linecap="round" d="M 77.7502 136.4275 L 82.8128 135.1754 L 88.2815 133.384 L 92.457 134.4232 L 95.4528 138.7716 L 95.3811 142.2229 "/>
          <path id="ID0.5982440118677914" fill="none" stroke="#313537" stroke-width="0.7916616152166959" stroke-linecap="round" d="M 88.0361 133.0336 L 89.1927 127.7632 L 84.7336 120.6113 "/>
          <path id="ID0.3567589442245662" fill="none" stroke="#313537" stroke-width="0.8967655150693851" stroke-linecap="round" d="M 77.6263 149.1264 L 82.8586 144.2583 L 90.2253 142.5063 L 95.7521 142.6211 L 97.8958 147.309 L 98.0431 154.3367 L 92.4805 154.9355 L 86.7638 157.9124 L 81.8491 157.5722 L 77.6031 159.3176 L 71.8142 156.6971 L 66.2197 156.819 L 59.8569 153.5913 L 53.5704 152.7464 L 54.0511 145.7318 L 56.7016 141.1434 L 62.982 141.2738 L 71.2746 143.351 L 76.9911 148.4465 Z "/>
        </g>
      </g>
    </g>
    <g id="ID0.9312638868577778">
      <path id="ID0.2888958193361759" fill="#393C40" stroke="none" stroke-linecap="round" d="M 57.9592 161.4331 L 68.1308 163.729 L 67.4755 166.6319 L 57.3039 164.3359 L 57.9592 161.4331 Z " stroke-width="0.4761425459216224"/>
      <path id="ID0.2888958193361759" fill="#393C40" stroke="none" stroke-linecap="round" d="M 47.2081 159.1286 L 58.6308 161.829 L 57.9755 164.7319 L 47.8039 162.4359 L 47.2081 159.1286 Z " stroke-width="0.4761425459216224"/>
      <g id="ID0.36424446757882833">
        <path id="ID0.7359844641759992" fill="#8A7B59" stroke="none" d="M 60.8379 160.7806 L 62.3612 160.8122 L 62.2318 167.0484 L 60.7084 167.0167 L 60.8379 160.7806 Z " stroke-width="0.4761425432043942"/>
        <path id="ID0.7359844641759992" fill="#8A7B59" stroke="none" d="M 58.9879 160.3306 L 60.5112 160.3622 L 60.3818 166.5984 L 58.8584 166.5667 L 58.9879 160.3306 Z " stroke-width="0.4761425432043942"/>
        <path id="ID0.7359844641759992" fill="#8A7B59" stroke="none" d="M 57.0379 159.6306 L 58.5612 159.6622 L 58.4318 165.8984 L 56.9084 165.8667 L 57.0379 159.6306 Z " stroke-width="0.4761425432043942"/>
        <path id="ID0.7359844641759992" fill="#8A7B59" stroke="none" d="M 62.7379 161.3306 L 64.2612 161.3622 L 64.1318 167.5984 L 62.6084 167.5667 L 62.7379 161.3306 Z " stroke-width="0.4761425432043942"/>
      </g>
      <g id="ID0.1049797898158431">
        <path id="ID0.08871637750416994" fill="#8A7B59" stroke="none" stroke-linecap="round" d="M 48.9895 158.5074 L 55.3705 159.6877 L 55.2067 165.2801 L 49.0643 164.081 L 48.9895 158.5074 Z " stroke-width="0.4761425432043942"/>
        <path id="ID0.13805592898279428" fill="#76694C" stroke="none" stroke-linecap="round" d="M 48.7978 158.2378 L 55.4882 159.4245 L 55.5236 162.3065 L 48.8114 161.0241 L 48.7978 158.2378 Z " stroke-width="0.4761425432043942"/>
        <path id="ID0.3221200187690556" fill="#61563F" stroke="none" stroke-linecap="round" d="M 51.55 160.489 L 52.4208 160.8689 L 52.4618 162.6272 L 51.5129 162.2716 L 51.55 160.489 Z " stroke-width="0.5167888865886084"/>
        <path id="ID0.1420820001512766" fill="#BAA578" stroke="none" stroke-linecap="round" d="M 54.5518 164.3318 L 55.2956 162.9185 L 55.2952 165.2283 L 49.056 164.0986 L 54.5518 164.3318 Z " stroke-width="0.4761425432043942"/>
      </g>
      <path id="ID0.2888958193361759" fill="#393C40" stroke="none" stroke-linecap="round" d="M 95.5902 162.6025 L 88.1307 164.2611 L 88.5102 166.806 L 95.9697 165.1474 L 95.5902 162.6025 Z " stroke-width="0.3810469777360591"/>
      <path id="ID0.2888958193361759" fill="#393C40" stroke="none" stroke-linecap="round" d="M 102.1651 160.9157 L 95.1307 162.7111 L 95.5102 165.256 L 101.6833 163.8204 L 102.1651 160.9157 Z " stroke-width="0.3810469777360591"/>
      <path id="ID0.7359844641759992" fill="#8A7B59" stroke="none" d="M 93.5701 161.5255 L 92.4633 161.5025 L 92.3506 166.9273 L 93.4574 166.9503 L 93.5701 161.5255 Z " stroke-width="0.3816027988624045"/>
      <path id="ID0.7359844641759992" fill="#8A7B59" stroke="none" d="M 94.9701 161.0755 L 93.8633 161.0525 L 93.7506 166.4773 L 94.8574 166.5003 L 94.9701 161.0755 Z " stroke-width="0.3816027988624045"/>
      <path id="ID0.7359844641759992" fill="#8A7B59" stroke="none" d="M 96.4701 160.6255 L 95.3633 160.6025 L 95.2506 166.0273 L 96.3574 166.0503 L 96.4701 160.6255 Z " stroke-width="0.3816027988624045"/>
      <path id="ID0.7359844641759992" fill="#8A7B59" stroke="none" d="M 92.1201 162.0755 L 91.0133 162.0525 L 90.9006 167.4773 L 92.0074 167.5003 L 92.1201 162.0755 Z " stroke-width="0.3816027988624045"/>
      <g id="ID0.1049797898158431">
        <path id="ID0.08871637750416994" fill="#8A7B59" stroke="none" stroke-linecap="round" d="M 102.4077 159.8854 L 97.4448 160.7507 L 97.3742 165.9213 L 102.1538 165.0302 L 102.4077 159.8854 Z " stroke-width="0.40545296430512573"/>
        <path id="ID0.13805592898279428" fill="#76694C" stroke="none" stroke-linecap="round" d="M 102.6523 159.6886 L 97.4505 160.549 L 97.3217 163.2094 L 102.5437 162.2614 L 102.6523 159.6886 Z " stroke-width="0.40545296430512573"/>
        <path id="ID0.3221200187690556" fill="#61563F" stroke="none" stroke-linecap="round" d="M 100.5299 161.6428 L 99.8449 161.963 L 99.7513 163.5854 L 100.4957 163.2903 L 100.5299 161.6428 Z " stroke-width="0.4400648059527854"/>
        <path id="ID0.1420820001512766" fill="#BAA578" stroke="none" stroke-linecap="round" d="M 97.9982 165.1103 L 97.4743 163.7788 L 97.3933 165.912 L 102.245 165.0884 L 97.9982 165.1103 Z " stroke-width="0.40545296430512573"/>
      </g>
      <g id="ID0.6836685389280319">
        <path id="ID0.09357938077300787" fill="#857656" stroke="none" d="M 68.6747 160.9089 L 86.6452 161.2821 L 86.5118 167.7086 L 68.5413 167.3354 L 68.6747 160.9089 Z " stroke-width="0.42833206411122815"/>
        <path id="ID0.6492703901603818" fill="#7C6E50" stroke="none" stroke-linecap="round" d="M 69.3684 163.093 L 77.5158 166.3578 L 86.4106 163.4469 L 86.3221 167.7075 L 69.2799 167.3536 L 69.3684 163.093 Z " stroke-width="0.4761425432043942"/>
        <g id="ID0.9254062357358634">
          <g id="ID0.49943465692922473">
            <path id="ID0.140373723115772" fill="#968561" stroke="none" d="M 85.1906 160.0517 L 90.308 160.1579 L 90.1202 169.2027 L 85.0028 169.0964 L 85.1906 160.0517 Z " stroke-width="0.4761425432043942"/>
            <path id="ID0.8286363878287375" fill="#BAA578" stroke="none" stroke-linecap="round" d="M 85.1728 159.8742 L 90.4043 160.221 L 86.2469 160.8966 L 85.1789 163.0176 L 85.1728 159.8742 Z " stroke-width="0.4761425432043942"/>
            <path id="ID0.7362233307212591" fill="#8A7B59" stroke="none" stroke-linecap="round" d="M 85.07 165.968 L 87.7825 166.072 L 90.2845 163.6951 L 90.1683 169.2885 L 85.0033 169.1813 L 85.07 165.968 Z " stroke-width="0.4761425432043942"/>
          </g>
          <g id="ID0.49943465692922473">
            <path id="ID0.140373723115772" fill="#968561" stroke="none" d="M 70.1483 159.9906 L 65.0309 159.8843 L 64.8431 168.9291 L 69.9605 169.0354 L 70.1483 159.9906 Z " stroke-width="0.4761425432043942"/>
            <path id="ID0.8286363878287375" fill="#BAA578" stroke="none" stroke-linecap="round" d="M 70.2093 159.8013 L 64.9679 159.9306 L 69.0936 160.7782 L 70.0726 162.9417 L 70.2093 159.8013 Z " stroke-width="0.4761425432043942"/>
            <path id="ID0.7362233307212591" fill="#8A7B59" stroke="none" stroke-linecap="round" d="M 70.0589 165.8941 L 67.3445 165.8854 L 64.9433 163.4066 L 64.8272 169.0001 L 69.9922 169.1074 L 70.0589 165.8941 Z " stroke-width="0.4761425432043942"/>
          </g>
        </g>
      </g>
    </g>
  </g>
  <g id="ID0.8333355090580881">
    <path id="ID0.9286923445761204" fill="#27282B" stroke="none" stroke-linecap="round" d="M 63.863 44.1601 L 82.6707 45.6361 L 83.1468 69.9908 L 98.3834 77.1329 L 75.5285 88.4889 L 38.8656 75.9426 L 58.7445 65.3484 L 63.863 44.1601 Z " stroke-width="0.4761425852775574"/>
    <path id="ID0.5448851804248989" fill="none" stroke="#1D1E1F" stroke-width="0.9522851705551147" stroke-linecap="round" d="M 60.1729 59.5871 L 58.935 65.158 L 76.0285 73.0143 L 82.8611 70.086 "/>
    <path id="ID0.262191956397146" fill="none" stroke="#1D1E1F" stroke-width="0.9522851705551147" stroke-linecap="round" d="M 62.9346 64.539 L 75.6476 70.7288 L 78.6473 69.6099 "/>
  </g>
  <g id="ID0.3450673264451325">
    <g id="ID0.9831569031812251">
      <path id="ID0.0877610077150166" fill="#2E3034" stroke="none" stroke-linecap="round" d="M 86.7251 13.3343 L 82.1527 0.2177 L 82.1527 28.7463 L 89.8241 28.7463 L 86.7251 13.3343 Z " stroke-width="0.5866066539949776"/>
      <path id="ID0.796130308881402" fill="#242628" stroke="none" stroke-linecap="round" d="M 87.033 13.3789 L 82.105 0.2623 L 85.6613 14.1004 L 86.6012 28.9877 L 89.7764 28.6926 L 87.033 13.3789 Z " stroke-width="0.5866066539949776"/>
    </g>
    <g id="ID0.9831569031812251">
      <path id="ID0.0877610077150166" fill="#2E3034" stroke="none" stroke-linecap="round" d="M 62.8249 13.4843 L 67.3973 0.3677 L 67.3973 28.8963 L 59.7259 28.8963 L 62.8249 13.4843 Z " stroke-width="0.5866066539949776"/>
      <path id="ID0.796130308881402" fill="#242628" stroke="none" stroke-linecap="round" d="M 62.417 13.5289 L 67.345 0.4123 L 63.7887 14.2504 L 62.6964 28.8098 L 59.6736 28.8426 L 62.417 13.5289 Z " stroke-width="0.5866066539949776"/>
    </g>
    <path id="ID0.8999492498114705" fill="#2E3034" stroke="none" stroke-linecap="round" d="M 80.3733 19.3124 C 84.7775 19.7915 89.5093 22.5019 91.6416 26.3848 C 94.0745 30.8179 92.1267 36.4165 92.4265 41.412 C 92.5997 43.1155 93.3923 44.8682 93.0615 46.4924 C 92.3879 49.7962 90.7139 52.8251 89.6323 56.0181 C 88.9236 58.1107 88.7691 60.4655 87.6001 62.3686 C 86.2843 64.6212 84.9416 67.7553 82.3419 68.211 C 78.488 68.8862 74.4115 67.0451 70.9619 65.2898 C 68.1281 63.8475 65.4746 61.6355 63.9002 58.8631 C 61.0806 53.7182 58.5196 48.0582 58.134 42.1741 C 57.7067 35.6514 56.9365 27.5853 61.6902 22.8687 C 65.9425 18.3273 73.8262 18.6032 80.3733 19.3124 Z " stroke-width="0.508037269115448"/>
    <path id="ID0.2441388238221407" fill="#AB8E85" stroke="none" d="M 78.0438 44.1745 C 82.1241 44.3416 87.5631 41.1768 90.2883 43.9234 C 92.7434 46.5142 89.3753 51.3755 88.4045 54.8492 C 87.4375 58.304 86.7493 62.0426 84.5114 64.8959 C 83.4439 66.1643 81.2186 66.2359 79.488 65.9634 C 76.3761 65.4698 73.3143 64.1864 70.7198 62.3955 C 68.0348 60.5432 64.487 58.5137 63.9156 55.2887 C 63.1923 51.2035 63.8566 45.8084 67.0552 43.2327 C 69.9889 40.9834 74.3743 44.0238 78.0438 44.1745 Z " stroke-width="1.2558400630950928"/>
    <path id="ID0.46721756737679243" fill="#A2887F" stroke="none" stroke-linecap="round" d="M 63.4363 45.2953 L 65.1129 45.9812 L 91.1244 45.6001 L 83.9102 50.6805 L 67.1704 48.2165 L 68.2881 50.6043 L 68.5421 56.2181 L 72.1746 63.4068 L 67.6023 56.7261 L 63.4363 45.2953 Z " stroke-width="0.508037269115448"/>
    <path id="ID0.8256730306893587" fill="none" stroke="#937B73" stroke-width="1.016074538230896" stroke-linecap="round" d="M 74.3886 57.0778 C 74.3886 57.0778 77.0878 56.4813 78.4529 56.2903 C 78.7943 56.2425 79.1326 56.3203 79.4689 56.3665 C 79.8109 56.4138 80.1401 56.5814 80.485 56.5697 C 81.1688 56.5469 81.8379 56.3497 82.5172 56.2649 C 82.854 56.2227 83.1939 56.1846 83.5332 56.1887 C 83.8731 56.1928 84.2181 56.2131 84.5493 56.2903 C 85.0939 56.4173 86.1496 56.7983 86.1496 56.7983 "/>
    <path id="ID0.7592270169407129" fill="none" stroke="#937B73" stroke-width="1.016074538230896" stroke-linecap="round" d="M 82.9693 58.4019 C 82.9693 58.4019 82.3475 58.7468 82.004 58.8083 C 81.6708 58.8682 81.3248 58.7235 80.988 58.7575 C 80.6491 58.792 80.3351 58.9688 79.9973 59.0115 C 79.6615 59.0542 79.3109 59.0867 78.9812 59.0115 C 78.7008 58.9475 78.2192 58.6051 78.2192 58.6051 "/>
    <path id="ID0.5332203092984855" fill="none" stroke="#937B73" stroke-width="1.016074538230896" stroke-linecap="round" d="M 77.0009 48.9532 C 77.0009 48.9532 76.3954 49.385 76.2897 49.7152 C 76.1525 50.1577 75.898 51.0026 76.3405 51.3156 C 76.9212 51.6056 77.6797 50.8786 78.3726 50.9345 C 79.0433 50.9914 80.354 51.4426 80.354 51.4426 "/>
    <path id="ID0.2278452254831791" fill="none" stroke="#937B73" stroke-width="1.016074538230896" stroke-linecap="round" d="M 81.3447 45.2953 C 81.3447 45.2953 82.2789 47.1578 82.7418 48.0895 C 82.8967 48.4015 83.0674 48.7073 83.199 49.0294 C 83.3306 49.3515 83.5429 49.6726 83.5292 50.0201 C 83.5155 50.3686 83.3092 50.6907 83.1228 50.9853 C 82.9983 51.1824 82.6148 51.468 82.6148 51.468 "/>
    <path id="ID0.6473136460408568" fill="none" stroke="#937B73" stroke-width="1.016074563998663" stroke-linecap="round" d="M 81.6945 62.2247 C 81.6945 62.2247 82.0113 62.8595 82.0622 63.2041 C 82.1113 63.5396 82.0513 63.8871 81.9877 64.2203 C 81.8923 64.7223 81.5871 65.7015 81.5871 65.7015 "/>
    <path id="ID0.11669129692018032" fill="#2E3034" stroke="none" stroke-linecap="round" d="M 65.3669 39.9609 L 88.6096 41.739 L 92.5469 44.4062 L 83.1482 49.1056 L 62.4457 46.5654 L 65.3669 39.9609 Z " stroke-width="0.508037269115448"/>
    <path id="ID0.14635155349969864" fill="#2E3034" stroke="none" stroke-linecap="round" d="M 62.6997 45.2191 L 64.554 45.6001 L 67.1958 50.8075 L 67.5006 56.5737 L 69.3296 60.384 L 72.2254 63.9149 L 63.9952 58.7075 L 62.6997 45.2191 Z " stroke-width="0.508037269115448"/>
    <path id="ID0.28340246016159654" fill="#1C1D1F" stroke="none" stroke-linecap="round" d="M 65.5308 36.8008 L 68.9604 38.3401 L 78.6283 39.2313 L 78.6283 44.9834 L 71.688 44.0382 L 67.8262 42.958 L 65.8008 41.4457 L 64.9367 39.7174 L 65.5308 36.8008 Z " stroke-width="0.5401026606559753"/>
    <path id="ID0.6101007834076881" fill="#FFFFFF" stroke="none" stroke-linecap="round" d="M 69.3473 39.3334 L 71.0001 39.7332 L 74.78 40.9344 L 75.3247 42.9027 L 70.07 41.4498 L 69.3473 39.3334 Z " stroke-width="0.4061061920009203"/>
    <path id="ID0.28340246016159654" fill="#1C1D1F" stroke="none" stroke-linecap="round" d="M 91.1357 36.8586 L 88.0774 38.2313 L 79.4563 39.0259 L 79.4563 44.1553 L 85.6452 43.3124 L 89.0888 42.3492 L 90.8949 41.0006 L 91.6655 39.4594 L 91.1357 36.8586 Z " stroke-width="0.4816249907016754"/>
    <path id="ID0.6101007834076881" fill="#FFFFFF" stroke="none" stroke-linecap="round" d="M 89.4526 38.9089 L 87.9112 39.4003 L 84.4053 40.7963 L 84.0217 42.7012 L 88.9101 40.9663 L 89.4526 38.9089 Z " stroke-width="0.3863867372519633"/>
    <g id="ID0.07940126257017255">
      <path id="ID0.46257128613069654" fill="#27282B" stroke="none" stroke-linecap="round" d="M 78.8045 39.0743 L 83.1482 49.0318 L 73.1145 47.7617 L 78.8045 39.0743 Z " stroke-width="0.508037269115448"/>
      <path id="ID0.9845890481956303" fill="#27282B" stroke="none" stroke-linecap="round" d="M 79.6173 39.1989 L 87.8983 46.5654 L 83.2244 49.1056 L 79.6173 39.1989 Z " stroke-width="0.508037269115448"/>
    </g>
    <path id="ID0.20071752788498998" fill="#202324" stroke="none" d="M 70.3686 34.5018 L 74.5091 37.0673 L 79.2593 38.2358 L 79.3355 39.6329 L 71.5625 38.3628 L 65.6693 36.0259 L 67.3966 34.2477 L 70.3686 34.5018 Z " stroke-width="0.508037269115448"/>
    <path id="ID0.20071752788498998" fill="#202324" stroke="none" d="M 87.4242 34.2614 L 84.3713 36.7084 L 79.1277 38.2698 L 79.0578 39.5516 L 86.1891 38.3864 L 91.6191 36.3588 L 90.081 34.1216 L 87.4242 34.2614 Z " stroke-width="0.46609798073768616"/>
    <path id="ID0.521138689480722" fill="none" stroke="#212325" stroke-width="0.9060627222061157" stroke-linecap="round" d="M 91.2139 36.5742 L 87.9747 38.1598 L 79.4351 39.4057 "/>
    <path id="ID0.17828734638169408" fill="none" stroke="#202324" stroke-width="1.016074538230896" stroke-linecap="round" d="M 83.0466 48.5467 L 80.1254 41.3072 C 79.1245 38.8879 79.2729 39.4564 79.0839 38.4876 C 79.0179 38.1493 79.2358 37.8129 79.2871 37.4715 C 79.3374 37.1352 79.4014 36.7953 79.3887 36.4555 C 79.376 36.112 79.2769 35.7762 79.2109 35.4394 C 79.1078 34.9136 78.8807 33.8645 78.8807 33.8645 "/>
    <path id="ID0.521138689480722" fill="none" stroke="#212325" stroke-width="1.016074538230896" stroke-linecap="round" d="M 65.8068 36.3055 L 69.4392 38.0836 L 79.0157 39.4807 "/>
    <path id="ID0.8012696979567409" fill="none" stroke="url(#grad_1)" stroke-width="1.016074538230896" stroke-linecap="round" d="M 91.1244 45.1429 L 83.6562 49.0548 L 65.0621 46.7178 L 67.0434 50.5789 L 67.3482 56.6753 L 69.2788 60.2824 L 72.1746 63.9149 "/>
    <path id="ID0.043594349175691605" fill="#D7E2FD" stroke="none" stroke-linecap="round" d="M 74.5289 41.9677 L 74.7575 40.85 L 75.2656 42.9075 L 72.6746 42.1709 L 74.5289 41.9677 Z " stroke-width="0.508037269115448"/>
    <path id="ID0.043594349175691605" fill="#D7E2FD" stroke="none" stroke-linecap="round" d="M 84.7225 41.8348 L 84.4574 40.8321 L 84.1024 42.7258 L 86.4161 41.9236 L 84.7225 41.8348 Z " stroke-width="0.4618642652203811"/>
  </g>
  <g id="ID0.9492031107656658">
    <path id="ID0.05466862628236413" fill="#303436" stroke="none" stroke-linecap="round" d="M 39.2434 226.1021 L 65.1585 232.6902 L 53.4244 248.2313 L 50.0372 252.2828 L 42.5373 268.8026 L 24.0008 305.0953 L 8.8042 300.8204 L 15.2752 279.533 L 16.0654 270.5119 L 18.4508 261.2962 L 25.553 249.6191 L 30.2802 238.2408 L 39.2434 226.1021 Z " stroke-width="0.7305889608450203"/>
    <path id="ID0.4490455654449761" fill="none" stroke="#272A2B" stroke-width="1.6585524151452102" stroke-linecap="round" d="M 38.7363 226.9407 L 64.7902 233.168 L 49.1588 253.1058 "/>
    <path id="ID0.10446935473009944" fill="none" stroke="#242728" stroke-width="1.6585524151452102" stroke-linecap="round" d="M 44.1146 264.3644 L 37.5028 279.8503 L 24.9473 282.5796 "/>
    <path id="ID0.42170455446466804" fill="none" stroke="#242728" stroke-width="1.6585524151452102" stroke-linecap="round" d="M 36.038 280.5022 L 28.9138 293.8533 L 16.0808 296.677 "/>
    <path id="ID0.047098892275244" fill="none" stroke="#242728" stroke-width="1.6585524151452102" stroke-linecap="round" d="M 30.3888 238.8488 L 28.4498 242.2788 L 29.205 252.1814 "/>
  </g>
  <g id="ID0.3079507672227919">
    <path id="ID0.5368814701214433" fill="#292D2E" stroke="none" stroke-linecap="round" d="M 85.6748 322.0912 L 87.142 312.4386 L 91.972 300.5772 L 102.8147 306.8789 L 114.2058 317.0137 L 131.844 327.0527 L 133.0348 333.5486 L 108.3615 335.1542 L 87.0563 331.8555 L 85.6748 322.0912 Z " stroke-width="0.7702165798975615"/>
    <g id="ID0.9340031337924302">
      <path id="ID0.05466862628236413" fill="#292D2E" stroke="none" stroke-linecap="round" d="M 91.3243 229.6033 L 117.9314 226.9467 L 112.2091 245.5605 L 110.4088 250.525 L 109.0004 268.6128 L 103.9701 309.0536 L 88.2271 310.2245 L 87.0406 288.007 L 84.7031 279.2583 L 83.7984 269.7819 L 86.4866 256.3815 L 87.0446 244.073 L 91.3243 229.6033 Z " stroke-width="0.7305890425389004"/>
      <path id="ID0.4490455654449761" fill="none" stroke="#272A2B" stroke-width="1.6585525133981658" stroke-linecap="round" d="M 91.0141 229.7814 L 117.6285 226.7384 L 109.7443 250.8152 "/>
      <path id="ID0.10446935473009944" fill="none" stroke="#242728" stroke-width="1.6585525133981658" stroke-linecap="round" d="M 108.8474 263.1195 L 107.9207 279.9323 L 97.0517 286.7847 "/>
      <path id="ID0.42170455446466804" fill="none" stroke="#242728" stroke-width="1.6585525133981658" stroke-linecap="round" d="M 106.7665 281.0453 L 104.6293 296.0265 L 93.5316 303.0623 "/>
      <path id="ID0.047098892275244" fill="none" stroke="#242728" stroke-width="1.6585525133981658" stroke-linecap="round" d="M 87.2838 243.903 L 86.6324 247.789 L 90.7235 256.8386 "/>
    </g>
  </g>
</svg>