<svg xmlns="http://www.w3.org/2000/svg" xmlns:xlink="http://www.w3.org/1999/xlink" version="1.1" width="184.24804230638063" height="332.59157868333375" viewBox="0.9648069336627154 -0.499039451816258 184.24804230638063 332.59157868333375">
  <defs>
    <linearGradient id="grad_1" y2="1" x2="0">
      <stop offset="0" stop-color="#222325" stop-opacity="1"/>
      <stop offset="1" stop-color="#2E3034" stop-opacity="1"/>
    </linearGradient>
  </defs>
  <!-- Exported by Scratch - http://scratch.mit.edu/ -->
  <path id="ID0.7766774026677012" fill="#0D0D0D" stroke="#0D0D0D" stroke-width="1.9730789274743739" stroke-linecap="round" d="M 126.5015 189.4121 C 128.9725 156.9295 133.0073 123.3307 125.0941 91.2713 C 122.1014 79.1504 107.4102 72.2565 95.8387 66.8892 C 90.5567 64.4423 84.5424 68.6902 78.9658 69.8744 C 77.3827 70.2066 76.1436 71.1084 74.7709 71.6617 C 72.8469 72.2517 70.8447 72.6463 69.0831 73.3022 C 68.4593 73.5361 67.8318 73.7658 67.2464 74.0992 C 66.5662 74.3746 66.021 74.8098 65.3858 75.1384 C 64.0704 75.7423 62.7503 76.3946 61.4397 76.9501 C 60.1386 77.4087 58.7972 77.7657 57.5411 78.2777 C 56.9155 78.5095 56.2448 78.6879 55.7044 79.0747 C 55.0644 79.4517 54.5997 80.0904 54.045 80.6224 C 53.4998 81.0576 52.9547 81.4928 52.4095 81.928 C 51.8691 82.3148 51.1793 82.687 50.7739 83.2337 C 50.3235 83.7271 50.1526 84.4434 49.8372 85.0968 C 49.5265 85.7016 49.1661 86.3016 48.9005 86.9598 C 48.3289 88.1745 47.8024 89.4425 47.2758 90.7105 C 46.9652 91.3154 46.6545 91.9203 46.3391 92.5736 C 46.0284 93.1785 45.7178 93.7834 45.4024 94.4367 C 45.0917 95.0416 44.7811 95.6465 44.4656 96.2998 C 44.155 96.9047 43.7448 97.4998 43.5289 98.1629 C 43.268 98.7727 43.2062 99.402 43.0898 100.0749 C 42.9284 100.6944 42.767 101.314 42.6507 101.9869 C 42.4893 102.6064 42.3777 103.2309 42.2115 103.8989 C 42.0004 104.5136 41.6898 105.1184 41.5236 105.7864 C 40.8902 107.6305 40.2971 109.5762 39.7087 111.4735 C 39.4975 112.0882 39.1869 112.6931 39.0207 113.3611 C 38.8096 113.9757 38.698 114.6002 38.5816 115.2731 C 38.4202 115.8926 38.2091 116.5073 38.1425 117.1851 C 38.0309 117.8095 38.0188 118.4438 37.9522 119.1215 C 37.8284 120.3802 37.6005 121.6776 37.5715 122.9944 C 37.5097 123.6238 37.6801 123.9338 37.63 124.9554 C 37.2943 128.8816 36.8544 132.8464 36.4643 136.8161 C 36.0884 140.6406 35.703 144.562 35.3223 148.4349 C 35.1368 150.3229 34.9914 152.3127 34.7514 154.2442 C 34.6397 154.8687 34.4784 155.4883 34.3122 156.1562 C 33.9207 157.5841 33.4344 158.9538 33.1376 160.4399 C 32.9762 161.0595 33.0139 161.6986 32.9473 162.3764 C 32.8357 163.0008 32.6245 163.6155 32.5082 164.2884 C 32.1854 165.5275 31.8081 166.8101 31.6299 168.1124 C 31.4067 169.3613 31.3777 170.6782 31.2493 171.9853 C 30.8734 175.8098 30.488 179.7311 30.1073 183.604 C 30.0169 184.5238 30.0334 184.8676 29.917 185.5405 C 29.7556 186.16 29.3952 186.76 29.2291 187.428 C 28.6952 189.2818 28.3508 191.252 27.9117 193.164 C 27.7503 193.7836 27.6387 194.408 27.4726 195.076 C 27.0408 196.4022 26.4597 197.7137 26.073 199.0932 C 25.8571 199.7563 25.7312 200.5259 25.61 201.2472 C 25.4439 201.9152 25.2233 202.6267 25.1471 203.4013 C 25.0355 204.0257 25.0234 204.66 24.9568 205.3377 C 24.8949 205.9671 24.7336 206.5867 24.7665 207.2742 C 24.792 208.5476 25.0119 209.8889 25.1322 211.2205 C 25.1699 211.8596 25.2076 212.4987 25.1907 213.1814 C 25.1289 213.8107 25.067 214.4401 25.0004 215.1178 C 24.9385 215.7472 24.8767 216.3765 24.8101 217.0543 C 24.5868 218.3032 24.4584 219.6103 24.1806 220.9027 C 23.8626 222.0935 23.0774 224.4602 23.0774 224.4602 C 22.781 224.9199 21.8911 227.6146 21.3813 228.937 C 21.1047 229.6558 20.7149 230.3301 20.4208 231.0422 C 20.165 231.6613 19.9625 232.3012 19.7329 232.9297 C 19.5033 233.5583 19.2356 234.1762 19.045 234.8173 C 18.8588 235.4442 18.7921 236.1024 18.6059 236.7293 C 18.4152 237.3704 18.1843 238.0027 17.9179 238.6168 C 17.6423 239.2535 17.219 239.8288 16.9812 240.4799 C 16.757 241.0943 16.6881 241.7552 16.5421 242.3919 C 16.3961 243.0287 16.2489 243.6672 16.103 244.3039 C 15.957 244.9407 15.8098 245.5792 15.6638 246.2159 C 15.5178 246.8527 15.3164 247.481 15.2247 248.1279 C 15.0433 249.4113 15.0255 250.7175 14.8441 252.0009 C 14.7523 252.6478 14.5509 253.2761 14.4049 253.9129 C 14.259 254.5496 14.0575 255.1779 13.9658 255.8249 C 13.7844 257.1082 13.6841 258.4054 13.5852 259.6978 C 13.3873 262.2836 13.2595 264.8821 13.0727 267.468 C 13.0262 268.1145 12.9457 268.7597 12.8824 269.4045 C 12.819 270.0493 12.7971 270.7012 12.692 271.341 C 12.5865 271.9856 12.4391 272.6261 12.2529 273.253 C 12.0623 273.8941 11.7144 274.4895 11.565 275.1405 C 11.4195 275.7724 11.4797 276.4372 11.3747 277.077 C 11.2691 277.7216 11.0411 278.3444 10.9355 278.989 C 10.8305 279.6287 10.8503 280.2857 10.7452 280.9254 C 10.6397 281.57 10.4923 282.2105 10.3061 282.8374 C 10.1155 283.4786 9.8088 284.0838 9.6182 284.725 C 9.432 285.3519 9.3653 286.0101 9.179 286.637 C 8.9884 287.2781 8.668 287.8801 8.4911 288.5245 C 8.1452 289.7848 7.9058 291.0752 7.6129 292.3485 C 7.4669 292.9852 7.3197 293.6238 7.1737 294.2605 C 7.0278 294.8972 6.8402 295.5279 6.7346 296.1725 C 6.6295 296.8123 6.5658 297.461 6.5443 298.109 C 6.5223 298.7618 6.6388 299.4175 6.6028 300.0699 C 6.5309 301.364 6.5121 302.6789 6.2221 303.9428 C 5.9233 305.2449 5.3539 306.4793 4.8463 307.7179 C 4.5832 308.3597 4.1852 308.9443 3.9096 309.581 C 3.6432 310.1951 3.488 310.8544 3.2216 311.4685 C 2.946 312.1052 2.4818 312.6677 2.2849 313.3316 C 2.1002 313.9538 1.7558 314.7079 2.0946 315.2681 C 2.4559 315.8657 3.3194 316.0356 4.0136 316.1899 C 4.6685 316.3354 5.36 316.0778 6.0278 316.1435 C 6.6956 316.2091 7.3267 316.5155 7.9944 316.5811 C 8.6622 316.6468 9.3379 316.5098 10.0086 316.5347 C 10.6745 316.5591 11.3491 316.5853 11.9991 316.7303 C 12.6687 316.8792 13.3505 317.0684 13.9419 317.4101 C 14.5589 317.7669 14.9103 318.5063 15.5645 318.7915 C 16.1734 319.0576 16.8921 318.922 17.5549 318.9872 C 18.2178 319.0523 18.8796 319.1985 19.5454 319.1828 C 20.2312 319.1671 20.8975 318.91 21.5833 318.8943 C 22.2491 318.8786 22.9159 318.9842 23.5738 319.0899 C 24.2365 319.1961 24.8776 319.4214 25.5404 319.5276 C 26.1982 319.6333 26.8809 319.5782 27.5308 319.7232 C 28.2004 319.8721 28.804 320.2541 29.4736 320.403 C 30.1235 320.548 30.8062 320.4929 31.464 320.5986 C 32.1268 320.7048 32.7757 320.8908 33.4306 321.0363 C 34.0856 321.1818 34.7275 321.4287 35.3973 321.474 C 37.3977 321.609 39.4128 321.502 41.4161 321.5767 C 42.0819 321.6011 42.7487 321.6666 43.4065 321.7723 C 44.0693 321.8785 44.708 322.1173 45.3731 322.21 C 46.6925 322.3935 48.0345 322.4178 49.3539 322.6013 C 50.019 322.694 50.6578 322.9328 51.3205 323.039 C 51.9784 323.1447 52.6451 323.2102 53.311 323.2346 C 53.9817 323.2595 54.6544 323.1633 55.3252 323.1882 C 55.991 323.2125 56.6498 323.3594 57.3156 323.3838 C 57.9863 323.4086 58.6586 323.3261 59.3298 323.3373 C 60.6639 323.36 62.0058 323.356 63.3344 323.4865 C 64.0022 323.5522 64.656 323.7396 65.301 323.9242 C 65.9607 324.1132 66.5742 324.4551 67.2438 324.604 C 67.8938 324.749 68.5714 324.7344 69.2342 324.7996 C 71.2226 324.995 73.2239 325.1311 75.2055 325.3865 C 75.8712 325.4724 76.5093 325.7179 77.1721 325.8241 C 77.8299 325.9299 78.4967 325.9954 79.1625 326.0198 C 79.8333 326.0446 80.506 325.9886 81.1767 325.9733 C 81.8474 325.9581 82.5201 325.902 83.1909 325.9269 C 83.8567 325.9513 84.5177 326.1776 85.1813 326.1225 C 85.8894 326.0641 85.6147 325.8435 87.2431 325.592 C 93.7557 324.5858 104.8342 328.8147 107.0211 322.6968 C 114.8206 300.8686 109.3661 276.0895 112.7092 253.0656 C 115.7894 231.8674 124.8247 211.1245 126.5015 189.4121 Z "/>
  <g id="ID0.42570570204406977">
    <path id="ID0.7729651997797191" fill="#393C40" stroke="none" stroke-linecap="round" d="M 153.1827 93.7238 L 138.9998 106.8467 L 153.4146 119.195 L 164.9702 129.2277 L 171.7954 131.817 L 176.7687 132.7229 L 183.787 122.1842 L 180.7677 116.2493 L 162.8754 102.37 L 153.1827 93.7238 Z " stroke-width="0.8410593698391887"/>
    <path id="ID0.9716172609478235" fill="#34373A" stroke="none" stroke-linecap="round" d="M 152.1695 99.7844 L 155.2044 95.5742 L 150.6638 90.947 L 139.9712 107.2707 L 143.8769 108.4337 L 149.3528 107.5072 L 152.1695 99.7844 Z " stroke-width="0.7788099205007942"/>
    <g id="ID0.38066427363082767">
      <path id="ID0.4757494777441025" fill="#1D1E1F" stroke="none" stroke-linecap="round" d="M 133.9143 76.4389 L 125.7515 78.5321 L 114.5853 89.8676 L 133.0401 107.5097 L 143.9978 107.0027 L 148.2789 105.848 L 149.8945 102.3917 L 150.9402 98.5982 L 154.5449 93.8074 L 152.159 89.1596 L 147.8852 82.6932 L 141.4062 77.1618 L 133.9143 76.4389 Z " stroke-width="0.4541860366235786"/>
      <path id="ID0.6007084371522069" fill="none" stroke="#0D0D0D" stroke-width="0.9083720732471572" stroke-linecap="round" d="M 154.3075 94.3231 L 151.0401 98.5442 L 149.1202 103.5853 L 148.333 105.9479 L 143.9978 107.0027 L 139.2761 107.1047 "/>
    </g>
  </g>
  <path id="ID0.3809091211296618" fill="#393D40" stroke="none" stroke-linecap="round" d="M 102.4412 178.3485 L 124.1396 159.8104 L 137.2688 196.3149 L 139.2049 207.0881 L 138.7674 225.6945 L 131.1245 230.4839 L 118.9551 235.1053 L 113.5973 214.9869 L 112.393 203.5931 L 102.4412 178.3485 Z " stroke-width="0.7305889945840068"/>
  <path id="ID0.5368814701214433" fill="#292D2E" stroke="none" stroke-linecap="round" d="M 99.1754 316.0398 L 101.7417 307.1126 L 105.8977 297.7113 L 116.0766 303.2094 L 127.608 310.4376 L 145.4281 320.15 L 146.7384 326.6229 L 122.0988 328.6827 L 100.7365 325.777 L 99.1754 316.0398 Z " stroke-width="0.7702165637829839"/>
  <path id="ID0.05466862628236413" fill="#292D2E" stroke="none" stroke-linecap="round" d="M 115.9328 224.7949 L 142.666 225.369 L 134.739 243.156 L 132.3527 247.867 L 128.7716 265.6526 L 118.8974 305.1907 L 103.1281 304.4531 L 104.6317 282.2547 L 103.3671 273.2878 L 103.6128 263.7716 L 107.8986 250.7935 L 109.938 238.6423 L 115.9328 224.7949 Z " stroke-width="0.7305890301072567"/>
  <path id="ID0.4490455654449761" fill="none" stroke="#272A2B" stroke-width="1.6585523997423008" stroke-linecap="round" d="M 115.6438 224.9756 L 142.4309 225.1669 L 131.6985 248.1162 "/>
  <path id="ID0.10446935473009944" fill="none" stroke="#242728" stroke-width="1.6585523997423008" stroke-linecap="round" d="M 129.3233 260.2224 L 126.3741 276.8004 L 114.7576 282.2909 "/>
  <path id="ID0.42170455446466804" fill="none" stroke="#242728" stroke-width="1.6585523997423008" stroke-linecap="round" d="M 125.0941 277.7659 L 121.1644 292.3797 L 109.2988 298.0247 "/>
  <path id="ID0.047098892275244" fill="none" stroke="#242728" stroke-width="1.6585523997423008" stroke-linecap="round" d="M 110.2221 238.5051 L 109.1065 242.284 L 112.0755 251.7613 "/>
  <path id="ID0.3809091211296618" fill="#3E4246" stroke="none" stroke-linecap="round" d="M 81.0465 146.6418 L 102.1771 163.0857 L 99.8289 201.8082 L 97.3548 212.4708 L 89.6076 229.3933 L 80.6947 230.7764 L 67.6894 230.2183 L 70.1185 208.5823 L 70.2829 195.1673 L 81.0465 146.6418 Z " stroke-width="0.7305889994777404"/>
  <g id="ID0.17693647183477879">
    <path id="ID0.7729651997797191" fill="#3E4246" stroke="none" stroke-linecap="round" d="M 59.6456 96.3139 L 79.2086 101.5224 L 72.2472 117.3985 L 66.7338 130.2357 L 61.799 135.0681 L 57.7098 137.7809 L 45.9943 131.8697 L 45.768 125.7846 L 55.1373 107.2719 L 59.6456 96.3139 Z " stroke-width="0.8164596164063237"/>
    <path id="ID0.9716172609478235" fill="#393C40" stroke="none" stroke-linecap="round" d="M 62.5689 102.8615 L 58.2371 99.5691 L 61.3732 93.5397 L 77.0913 106.6334 L 73.5313 108.9951 L 67.7572 109.7425 L 62.5689 102.8615 Z " stroke-width="0.8164596164063237"/>
    <g id="ID0.38066427363082767">
      <path id="ID0.4757494777441025" fill="#1D1E1F" stroke="none" stroke-linecap="round" d="M 73.7152 73.6328 L 82.5405 73.2327 L 97.2063 81.18 L 84.1034 104.5184 L 72.9614 107.3644 L 68.3154 107.5173 L 65.6375 104.5464 L 63.4277 101.063 L 58.3469 97.3629 L 59.3164 91.9724 L 61.6219 84.1805 L 66.4248 76.651 L 73.7152 73.6328 Z " stroke-width="0.47614259805979375"/>
      <path id="ID0.6007084371522069" fill="none" stroke="#0D0D0D" stroke-width="0.9522851961195875" stroke-linecap="round" d="M 58.7428 97.8073 L 63.311 101.0393 L 66.7792 105.5061 L 68.2918 107.6339 L 72.9614 107.3644 L 77.7268 106.0213 "/>
    </g>
  </g>
  <g id="ID0.7397577832452953">
    <path id="ID0.6726378230378032" fill="#393C40" stroke="none" stroke-linecap="round" d="M 47.4429 119.8278 L 63.1997 129.652 L 62.2753 131.8966 L 46.9341 121.9288 L 47.4429 119.8278 Z " stroke-width="0.8164596575689738"/>
    <path id="ID0.6507829907350242" fill="#1D1E1F" stroke="none" stroke-linecap="round" d="M 44.1322 120.8917 L 62.6073 131.9898 L 61.2956 150.9315 L 58.7514 161.4363 L 57.9835 177.543 L 58.2842 184.0965 L 46.1578 185.5618 L 46.265 179.0279 L 44.8966 169.154 L 42.6351 156.581 L 41.257 146.911 L 44.1322 120.8917 Z " stroke-width="0.8164596575689738"/>
    <path id="ID0.6829322893172503" fill="#1D1E1F" stroke="none" stroke-linecap="round" d="M 45.7695 185.1346 L 56.4106 180.5333 L 59.4103 186.1936 L 63.2061 192.3006 L 62.9339 198.0094 L 62.0987 202.6695 L 59.9141 205.6306 L 58.1661 212.2907 L 53.4866 211.8633 L 52.3604 209.7661 L 50.7391 209.4845 L 47.6033 206.6785 L 44.2831 203.455 L 42.4581 198.8724 L 43.6138 191.7753 L 45.7695 185.1346 Z " stroke-width="0.8164596575689738"/>
    <path id="ID0.47767175547778606" fill="none" stroke="#0D0D0D" stroke-width="1.6329193151379475" stroke-linecap="round" d="M 43.9436 124.8471 L 44.4234 120.783 L 62.5258 131.9859 L 61.5328 145.9568 "/>
    <path id="ID0.5922487881034613" fill="#282A2B" stroke="none" stroke-linecap="round" d="M 41.4572 154.7935 L 48.7799 149.5026 L 54.8925 149.8758 L 60.8067 156.1247 L 58.6661 171.0217 L 53.6172 178.3418 L 50.1511 178.1766 L 44.3845 170.5452 L 41.4572 154.7935 Z " stroke-width="0.8164596575689738"/>
    <path id="ID0.36820242274552584" fill="#151616" stroke="none" stroke-linecap="round" d="M 47.6681 157.7852 L 56.1535 158.108 L 52.9141 169.4787 L 51.4092 169.3252 L 47.6681 157.7852 Z " stroke-width="0.8164596575689738"/>
    <path id="ID0.13569410238415003" fill="none" stroke="#232425" stroke-width="1.6329193151379475" stroke-linecap="round" d="M 46.4228 168.8589 L 51.7894 176.3078 L 57.3587 169.2168 "/>
    <path id="ID0.024502143263816833" fill="none" stroke="#0D0D0D" stroke-width="1.6329193151379475" stroke-linecap="round" d="M 41.9944 154.5888 L 48.5675 149.5891 L 54.6142 149.6321 L 60.6099 155.8849 L 59.3046 164.4052 "/>
  </g>
  <g id="ID0.9157347986474633">
    <path id="ID0.7477802094072104" fill="#363A3D" stroke="none" stroke-linecap="round" d="M 134.4449 126.7153 L 115.2558 121.879 L 111.5601 162.8992 L 127.3567 173.2862 L 131.8334 149.0689 L 134.4449 126.7153 Z " stroke-width="0.47614258255886704"/>
    <path id="ID0.7477802094072104" fill="#363A3D" stroke="none" stroke-linecap="round" d="M 74.4705 121.3282 L 98.0823 120.5871 L 94.3865 161.6073 L 76.9877 169.0035 L 73.7879 143.497 L 74.4705 121.3282 Z " stroke-width="0.47614258255886704"/>
    <path id="ID0.4270821204409003" fill="#3E4246" stroke="none" stroke-linecap="round" d="M 76.4565 101.4205 L 81.3718 89.314 L 84.1478 83.7077 L 91.2985 77.3004 L 122.1133 81.5109 L 128.605 86.3984 L 131.0872 90.6856 L 137.0565 102.6972 L 135.4053 113.066 L 133.9655 118.4341 L 135.0057 125.4598 L 134.9886 130.9561 L 132.2351 137.64 L 130.1528 142.7112 L 128.1341 151.8517 L 127.6625 173.8005 L 121.8039 181.5194 L 116.4804 187.2786 L 103.9244 191.5974 L 92.6484 187.5457 L 89.3385 180.5067 L 84.9834 173.6604 L 76.7488 169.811 L 77.8858 144.4562 L 77.2984 137.7102 L 73.7713 125.9188 L 73.4392 115.0127 L 76.4565 101.4205 Z " stroke-width="0.47614258255886704"/>
    <path id="ID0.052435632329434156" fill="#393C40" stroke="none" stroke-linecap="round" d="M 84.2182 152.1446 L 88.6479 152.5915 L 94.921 156.4554 L 99.9864 156.7445 L 105.6829 159.0505 L 109.9521 158.3594 L 111.6546 158.0348 L 126.1157 155.9194 L 126.1765 159.2236 L 117.2667 162.604 L 111.3667 161.7617 L 105.5211 164.2947 L 99.1982 160.1873 L 92.7577 160.0373 L 83.2594 155.357 L 84.2182 152.1446 Z " stroke-width="0.47614258255886704"/>
    <path id="ID0.4987568911164999" fill="none" stroke="#27282B" stroke-width="0.9522851651177341" stroke-linecap="round" d="M 91.1404 77.9525 L 84.183 83.5406 L 79.9662 93.2002 "/>
    <path id="ID0.2889464790932834" fill="none" stroke="#27282B" stroke-width="0.9522851651177341" stroke-linecap="round" d="M 123.4964 82.3019 L 128.8453 86.6083 L 133.7028 96.3684 "/>
    <path id="ID0.8373676878400147" fill="#000000" stroke="#2C2F31" stroke-width="0.615510457426067" stroke-linecap="round" d="M 93.4156 91.2425 L 93.8957 89.7485 L 90.1895 90.3324 L 85.0577 93.2317 L 80.4984 97.9 L 77.5598 103.2952 L 82.8754 101.501 L 87.5646 101.8035 L 90.2206 102.9583 L 92.4883 106.1596 L 94.6744 105.3249 L 98.693 105.3961 L 103.0985 106.8279 L 106.6483 110.3303 L 108.4486 113.5558 L 110.8614 110.7335 L 114.8204 107.9327 L 119.0463 106.866 L 124.1855 107.2974 L 125.9591 108.0417 L 127.9219 105.0907 L 129.9812 104.0092 L 132.5279 104.7643 L 135.1819 106.6158 L 134.0803 102.6957 L 132.1466 98.6032 L 129.5731 95.367 L 126.6067 92.8604 L 122.1837 91.5815 L 124.1913 93.669 L 123.9907 95.4272 L 122.2177 97.3932 L 118.5531 98.2916 L 115.3753 98.3163 L 112.7588 98.1727 L 110.5609 94.3598 L 109.9432 96.3802 L 108.4908 96.2145 L 107.1558 93.6617 L 105.8354 97.7701 L 101.7577 97.5373 L 97.7257 96.2255 L 94.5105 94.5423 L 93.4156 91.2425 Z "/>
    <path id="ID0.5698574706912041" fill="none" stroke="#313537" stroke-width="0.9522851651177341" stroke-linecap="round" d="M 84.162 151.9723 L 83.2808 155.1198 L 92.7471 160.1558 L 99.5368 160.409 L 105.2947 164.1547 "/>
    <path id="ID0.5698574706912041" fill="none" stroke="#313537" stroke-width="0.8933066564905294" stroke-linecap="round" d="M 125.72 155.9386 L 125.9483 159.1862 L 116.9965 162.5627 L 111.1375 161.6763 L 105.5783 164.4025 "/>
    <path id="ID0.8947288258932531" fill="#393C40" stroke="none" stroke-linecap="round" d="M 86.5385 140.1868 L 93.5439 140.6984 L 100.8895 143.2725 L 106.0371 149.2819 L 99.3643 144.2825 L 88.7814 141.8231 L 83.4122 144.3751 L 86.5385 140.1868 Z " stroke-width="0.47614258255886704"/>
    <path id="ID0.8947288258932531" fill="#393C40" stroke="none" stroke-linecap="round" d="M 124.9135 144.6549 L 118.7327 143.9923 L 111.9297 145.0717 L 106.4969 149.49 L 113.0979 146.1924 L 122.7017 145.7249 L 126.9731 148.7963 L 124.9135 144.6549 Z " stroke-width="0.42137388594266695"/>
    <path id="ID0.9897695370018482" fill="#393C40" stroke="none" stroke-linecap="round" d="M 88.8764 152.7077 L 82.3986 151.6461 L 83.242 147.0608 L 84.1135 150.6532 L 89.1748 151.2526 L 94.9783 155.2893 L 100.4639 155.425 L 104.414 157.2151 L 106.4942 149.5143 L 105.8512 159.3047 L 100.4585 156.8109 L 94.6019 156.2832 L 88.8764 152.7077 Z " stroke-width="0.47614258255886704"/>
    <path id="ID0.9897695370018482" fill="#393C40" stroke="none" stroke-linecap="round" d="M 120.9073 155.8205 L 126.4614 155.8763 L 126.4879 151.5437 L 125.1932 154.695 L 120.8901 154.4407 L 115.4245 157.2162 L 110.8423 156.4699 L 107.2741 157.4823 L 106.7667 150.1003 L 105.7476 159.1677 L 110.6268 157.7399 L 115.5797 158.1861 L 120.9073 155.8205 Z " stroke-width="0.42322512289971836"/>
    <path id="ID0.3524594851769507" fill="#393C40" stroke="none" stroke-linecap="round" d="M 102.324 119.0769 L 108.0078 121.7881 L 112.6511 119.8639 L 109.1557 123.3736 L 109.1044 134.5558 L 118.2152 134.5162 L 107.5093 137.1371 L 96.3118 131.4193 L 105.7806 134.3042 L 106.3901 123.0288 L 102.324 119.0769 Z " stroke-width="0.47614258255886704"/>
    <path id="ID0.9214867809787393" fill="#393C40" stroke="none" stroke-linecap="round" d="M 86.8867 136.3219 L 90.2287 132.392 L 95.0564 131.8709 L 88.8199 136.0897 L 88.32 138.9848 L 93.3425 139.4851 L 101.187 143.4188 L 92.4188 140.7166 L 86.5859 140.1911 L 86.8867 136.3219 Z " stroke-width="0.47614258255886704"/>
    <path id="ID0.9214867809787393" fill="#393C40" stroke="none" stroke-linecap="round" d="M 124.935 140.5145 L 122.5833 136.2649 L 118.3247 134.9688 L 123.2336 139.9734 L 123.1998 142.7762 L 118.5953 142.407 L 111.7218 144.6392 L 119.2209 143.718 L 124.5592 144.199 L 124.935 140.5145 Z " stroke-width="0.4451788457575459"/>
    <path id="ID0.8679121839813888" fill="#2C2F31" stroke="none" stroke-linecap="round" d="M 104.4191 118.1571 L 108.0676 120.1113 L 111.5346 118.7743 L 112.3976 119.8082 L 108.246 122.1113 L 102.7087 119.3655 L 104.4191 118.1571 Z " stroke-width="0.47614258255886704"/>
    <path id="ID0.24770551454275846" fill="none" stroke="#313537" stroke-width="0.9522851651177341" stroke-linecap="round" d="M 108.5462 116.6223 L 112.8494 120.5955 L 120.2757 121.7427 L 127.9594 121.3593 L 133.5176 118.0355 "/>
    <path id="ID0.20603158557787538" fill="none" stroke="#313537" stroke-width="0.9522851651177341" stroke-linecap="round" d="M 75.7333 109.6708 L 82.2474 115.636 L 94.2888 119.9479 L 101.5741 120.0067 L 108.0915 116.6498 "/>
    <g id="ID0.5272086253389716">
      <path id="ID0.24770551454275846" fill="none" stroke="#363A3D" stroke-width="0.952285106422094" stroke-linecap="round" d="M 76.1697 142.3003 L 86.3176 140.0355 "/>
      <path id="ID0.24770551454275846" fill="none" stroke="#363A3D" stroke-width="0.952285106422094" stroke-linecap="round" d="M 74.6659 130.2411 L 95.5676 125.8855 "/>
    </g>
    <g id="ID0.5272086253389716">
      <path id="ID0.24770551454275846" fill="none" stroke="#363A3D" stroke-width="0.9522850788480183" stroke-linecap="round" d="M 131.4086 146.3203 L 124.6625 143.8727 "/>
      <path id="ID0.24770551454275846" fill="none" stroke="#363A3D" stroke-width="0.9522850788480183" stroke-linecap="round" d="M 132.9283 134.9959 L 119.5366 129.0092 "/>
    </g>
    <g id="ID0.7887678607366979">
      <path id="ID0.753661650698632" fill="none" stroke="#313537" stroke-width="0.952285106422094" stroke-linecap="round" d="M 102.7875 119.2382 L 107.7903 122.0793 L 112.0562 119.8342 "/>
      <g id="ID0.8167418288066983">
        <path id="ID0.9553722990676761" fill="none" stroke="#313537" stroke-width="1.0409107805693771" stroke-linecap="round" d="M 107.0623 136.8803 L 101.6644 134.2427 L 95.6861 131.7918 L 90.849 132.3121 L 86.9706 136.2654 L 86.6609 139.7035 "/>
        <path id="ID0.5982440118677914" fill="none" stroke="#313537" stroke-width="0.8540413603600774" stroke-linecap="round" d="M 95.9901 131.447 L 95.2796 126.0683 L 101.1293 119.509 "/>
      </g>
      <g id="ID0.7324484633281827">
        <path id="ID0.04993448918685317" fill="none" stroke="#313537" stroke-width="0.952285106422094" stroke-linecap="round" d="M 107.801 121.9607 L 107.5724 132.4577 L 106.5726 148.8611 L 105.3463 165.1245 "/>
        <g id="ID0.8167418288066983">
          <path id="ID0.9553722990676761" fill="none" stroke="#313537" stroke-width="0.9699703484483064" stroke-linecap="round" d="M 107.2652 136.811 L 112.4021 135.9113 L 117.9815 134.5017 L 122.0753 135.8267 L 124.7637 140.3716 L 124.454 143.8097 "/>
          <path id="ID0.5982440118677914" fill="none" stroke="#313537" stroke-width="0.791661639444007" stroke-linecap="round" d="M 117.7562 134.1347 L 119.2739 128.9567 L 115.3191 121.5141 "/>
          <path id="ID0.3567589442245662" fill="none" stroke="#313537" stroke-width="0.8967655379611886" stroke-linecap="round" d="M 106.3063 149.4444 L 111.8622 144.9491 L 119.3323 143.7098 L 124.838 144.2059 L 126.6529 149.0306 L 126.3147 156.0516 L 120.724 156.2651 L 114.8155 158.8402 L 109.936 158.1615 L 105.5797 159.6096 L 99.9855 156.5957 L 94.3958 156.3312 L 88.2711 152.6719 L 82.0579 151.395 L 83.0218 144.4303 L 85.9826 140.0359 L 92.2391 140.5995 L 100.3684 143.2442 L 105.7196 148.7222 Z "/>
        </g>
      </g>
    </g>
    <g id="ID0.9312638868577778">
      <path id="ID0.2888958193361759" fill="#393C40" stroke="none" stroke-linecap="round" d="M 85.7885 160.5174 L 95.7773 163.5101 L 94.9232 166.3608 L 84.9344 163.3681 L 85.7885 160.5174 Z " stroke-width="0.4761425617576785"/>
      <path id="ID0.2888958193361759" fill="#393C40" stroke="none" stroke-linecap="round" d="M 75.3683 157.4776 L 86.5773 160.9601 L 85.7232 163.8108 L 75.7344 160.8181 L 75.3683 157.4776 Z " stroke-width="0.4761425617576785"/>
      <g id="ID0.36424446757882833">
        <path id="ID0.7359844641759992" fill="#8A7B59" stroke="none" d="M 88.8087 159.9458 L 90.3262 160.0825 L 89.7665 166.2948 L 88.249 166.1581 L 88.8087 159.9458 Z " stroke-width="0.476142553211047"/>
        <path id="ID0.7359844641759992" fill="#8A7B59" stroke="none" d="M 87.0587 159.3958 L 88.5762 159.5325 L 88.0165 165.7448 L 86.499 165.6081 L 87.0587 159.3958 Z " stroke-width="0.476142553211047"/>
        <path id="ID0.7359844641759992" fill="#8A7B59" stroke="none" d="M 85.1587 158.4958 L 86.6762 158.6325 L 86.1165 164.8448 L 84.599 164.7081 L 85.1587 158.4958 Z " stroke-width="0.476142553211047"/>
        <path id="ID0.7359844641759992" fill="#8A7B59" stroke="none" d="M 90.7087 160.6458 L 92.2262 160.7825 L 91.6665 166.9948 L 90.149 166.8581 L 90.7087 160.6458 Z " stroke-width="0.476142553211047"/>
      </g>
      <g id="ID0.1049797898158431">
        <path id="ID0.08871637750416994" fill="#8A7B59" stroke="none" stroke-linecap="round" d="M 77.1776 156.8303 L 83.4619 158.4483 L 82.9124 164.0161 L 76.8674 162.3958 L 77.1776 156.8303 Z " stroke-width="0.476142553211047"/>
        <path id="ID0.13805592898279428" fill="#76694C" stroke="none" stroke-linecap="round" d="M 77.024 156.5969 L 83.6165 158.2427 L 83.4529 161.1202 L 76.8452 159.3775 L 77.024 156.5969 Z " stroke-width="0.476142553211047"/>
        <path id="ID0.3221200187690556" fill="#61563F" stroke="none" stroke-linecap="round" d="M 79.6873 159.0106 L 80.5298 159.4497 L 80.4494 161.2067 L 79.5273 160.7863 L 79.6873 159.0106 Z " stroke-width="0.5167888651908263"/>
        <path id="ID0.1420820001512766" fill="#BAA578" stroke="none" stroke-linecap="round" d="M 82.3402 163.0735 L 83.1797 161.7149 L 83.0199 164.0192 L 76.8736 162.4615 L 82.3402 163.0735 Z " stroke-width="0.476142553211047"/>
      </g>
      <path id="ID0.2888958193361759" fill="#393C40" stroke="none" stroke-linecap="round" d="M 123.2631 164.1551 L 115.7069 165.2948 L 115.9097 167.8599 L 123.4659 166.7202 L 123.2631 164.1551 Z " stroke-width="0.3810469905204084"/>
      <path id="ID0.2888958193361759" fill="#393C40" stroke="none" stroke-linecap="round" d="M 129.9485 162.8893 L 122.8069 164.1948 L 123.0097 166.7599 L 129.2672 165.7538 L 129.9485 162.8893 Z " stroke-width="0.3810469905204084"/>
      <path id="ID0.7359844641759992" fill="#8A7B59" stroke="none" d="M 121.3678 162.9414 L 120.2653 162.8421 L 119.7784 168.2461 L 120.8809 168.3455 L 121.3678 162.9414 Z " stroke-width="0.3816028064209315"/>
      <path id="ID0.7359844641759992" fill="#8A7B59" stroke="none" d="M 122.7178 162.5914 L 121.6153 162.4921 L 121.1284 167.8961 L 122.2309 167.9955 L 122.7178 162.5914 Z " stroke-width="0.3816028064209315"/>
      <path id="ID0.7359844641759992" fill="#8A7B59" stroke="none" d="M 124.2678 162.2414 L 123.1653 162.1421 L 122.6784 167.5461 L 123.7809 167.6455 L 124.2678 162.2414 Z " stroke-width="0.3816028064209315"/>
      <path id="ID0.7359844641759992" fill="#8A7B59" stroke="none" d="M 119.8678 163.3914 L 118.7653 163.2921 L 118.2784 168.6961 L 119.3809 168.7955 L 119.8678 163.3914 Z " stroke-width="0.3816028064209315"/>
      <g id="ID0.1049797898158431">
        <path id="ID0.08871637750416994" fill="#8A7B59" stroke="none" stroke-linecap="round" d="M 130.2981 161.9231 L 125.2873 162.4438 L 124.8599 167.5972 L 129.6896 167.0381 L 130.2981 161.9231 Z " stroke-width="0.4054529751862411"/>
        <path id="ID0.13805592898279428" fill="#76694C" stroke="none" stroke-linecap="round" d="M 130.5217 161.7288 L 125.273 162.2281 L 124.9608 164.8732 L 130.2358 164.288 L 130.5217 161.7288 Z " stroke-width="0.4054529751862411"/>
        <path id="ID0.3221200187690556" fill="#61563F" stroke="none" stroke-linecap="round" d="M 128.2572 163.5441 L 127.5517 163.8163 L 127.3463 165.4284 L 128.1093 165.1854 L 128.2572 163.5441 Z " stroke-width="0.4400648314701092"/>
        <path id="ID0.1420820001512766" fill="#BAA578" stroke="none" stroke-linecap="round" d="M 125.501 166.8161 L 125.0703 165.4517 L 124.8422 167.5742 L 129.7392 167.0875 L 125.501 166.8161 Z " stroke-width="0.4054529751862411"/>
      </g>
      <g id="ID0.6836685389280319">
        <path id="ID0.09357938077300787" fill="#857656" stroke="none" d="M 96.5986 160.589 L 114.5004 162.2019 L 113.9236 168.6039 L 96.0218 166.991 L 96.5986 160.589 Z " stroke-width="0.4283320790953897"/>
        <path id="ID0.6492703901603818" fill="#7C6E50" stroke="none" stroke-linecap="round" d="M 97.2605 162.8572 L 105.1631 166.6767 L 114.2376 164.3868 L 113.8552 168.6311 L 96.8781 167.1015 L 97.2605 162.8572 Z " stroke-width="0.476142553211047"/>
        <g id="ID0.9254062357358634">
          <g id="ID0.49943465692922473">
            <path id="ID0.140373723115772" fill="#968561" stroke="none" d="M 113.1797 160.899 L 118.2775 161.3583 L 117.4658 170.3685 L 112.3679 169.9092 L 113.1797 160.899 Z " stroke-width="0.476142553211047"/>
            <path id="ID0.8286363878287375" fill="#BAA578" stroke="none" stroke-linecap="round" d="M 113.1992 160.7406 L 118.3943 161.4477 L 114.2002 161.8347 L 112.9884 163.8769 L 113.1992 160.7406 Z " stroke-width="0.476142553211047"/>
            <path id="ID0.7362233307212591" fill="#8A7B59" stroke="none" stroke-linecap="round" d="M 112.6761 166.8128 L 115.3749 167.1037 L 118.035 164.9052 L 117.533 170.4773 L 112.3877 170.0138 L 112.6761 166.8128 Z " stroke-width="0.476142553211047"/>
          </g>
          <g id="ID0.49943465692922473">
            <path id="ID0.140373723115772" fill="#968561" stroke="none" d="M 98.101 159.7797 L 93.0031 159.3204 L 92.1914 168.3306 L 97.2892 168.7899 L 98.101 159.7797 Z " stroke-width="0.476142553211047"/>
            <path id="ID0.8286363878287375" fill="#BAA578" stroke="none" stroke-linecap="round" d="M 98.1515 159.62 L 92.9137 159.3871 L 96.9711 160.5176 L 97.7984 162.7434 L 98.1515 159.62 Z " stroke-width="0.476142553211047"/>
            <path id="ID0.7362233307212591" fill="#8A7B59" stroke="none" stroke-linecap="round" d="M 97.5809 165.6879 L 94.8736 165.4918 L 92.6493 162.8532 L 92.1472 168.4253 L 97.2925 168.8889 L 97.5809 165.6879 Z " stroke-width="0.476142553211047"/>
          </g>
        </g>
      </g>
    </g>
  </g>
  <g id="ID0.8333355090580881">
    <path id="ID0.9286923445761204" fill="#27282B" stroke="none" stroke-linecap="round" d="M 99.9749 43.8911 L 118.6357 46.662 L 117.4294 70.9915 L 132.1366 79.1684 L 108.5523 88.9195 L 72.8429 73.8721 L 93.4058 64.6755 L 99.9749 43.8911 Z " stroke-width="0.47614260964060423"/>
    <path id="ID0.5448851804248989" fill="none" stroke="#1D1E1F" stroke-width="0.9522852192812085" stroke-linecap="round" d="M 95.2286 59.0266 L 93.609 64.4987 L 110.1193 73.5163 L 117.1378 71.0667 "/>
    <path id="ID0.262191956397146" fill="none" stroke="#1D1E1F" stroke-width="0.9522852192812085" stroke-linecap="round" d="M 97.6418 64.1573 L 109.8971 71.21 L 112.9669 70.3008 "/>
  </g>
  <g id="ID0.3450673264451325">
    <g id="ID0.9831569031812251">
      <path id="ID0.0877610077150166" fill="#2E3034" stroke="none" stroke-linecap="round" d="M 122.7926 13.5041 L 117.943 0.4875 L 118.5483 29.0096 L 126.2179 28.8469 L 122.7926 13.5041 Z " stroke-width="0.5866066810291133"/>
      <path id="ID0.796130308881402" fill="#242628" stroke="none" stroke-linecap="round" d="M 123.0675 13.5083 L 117.8624 0.4993 L 121.7114 14.2587 L 122.9669 29.1227 L 126.1352 28.7603 L 123.0675 13.5083 Z " stroke-width="0.5866066810291133"/>
    </g>
    <g id="ID0.9831569031812251">
      <path id="ID0.0877610077150166" fill="#2E3034" stroke="none" stroke-linecap="round" d="M 99.0377 14.1413 L 103.3307 0.9307 L 103.936 29.4528 L 96.2663 29.6156 L 99.0377 14.1413 Z " stroke-width="0.5866066810291133"/>
      <path id="ID0.796130308881402" fill="#242628" stroke="none" stroke-linecap="round" d="M 98.6413 14.2304 L 103.2899 1.0122 L 100.028 14.9225 L 99.2448 29.5018 L 96.2234 29.5987 L 98.6413 14.2304 Z " stroke-width="0.5866066810291133"/>
    </g>
    <path id="ID0.8999492498114705" fill="#2E3034" stroke="none" stroke-linecap="round" d="M 116.6822 19.5713 C 121.0955 19.9568 125.8838 22.5662 128.0979 26.403 C 130.6244 30.7835 128.7958 36.4222 129.2015 41.4102 C 129.4108 43.1096 130.2404 44.8451 129.9442 46.476 C 129.3408 49.7933 127.7314 52.857 126.7178 56.0723 C 126.0536 58.1795 125.9492 60.537 124.8208 62.4644 C 123.5531 64.7445 122.2772 67.9063 119.6878 68.4171 C 115.849 69.1739 111.7344 67.4197 108.2483 65.738 C 105.3845 64.3561 102.6847 62.2009 101.0519 59.4626 C 98.1237 54.3787 95.4432 48.7742 94.9329 42.8996 C 94.3673 36.3875 93.4262 28.3395 98.0788 23.5231 C 102.2337 18.8926 110.1215 19.0011 116.6822 19.5713 Z " stroke-width="0.5080372935730123"/>
    <path id="ID0.2441388238221407" fill="#AB8E85" stroke="none" d="M 114.8817 44.5026 C 118.9645 44.583 124.3352 41.3036 127.118 43.9917 C 129.6276 46.5298 126.3633 51.4615 125.4665 54.955 C 124.573 58.4296 123.9643 62.182 121.7874 65.0821 C 120.7471 66.3728 118.5237 66.4916 116.7878 66.2559 C 113.6661 65.8284 110.5778 64.6102 107.9458 62.8748 C 105.2221 61.0799 101.6321 59.1261 100.9924 55.914 C 100.1826 51.845 100.7323 46.437 103.8755 43.794 C 106.7608 41.4831 111.2097 44.4298 114.8817 44.5026 Z " stroke-width="1.2558400753386307"/>
    <path id="ID0.46721756737679243" fill="#A2887F" stroke="none" stroke-linecap="round" d="M 100.2954 45.9494 L 101.9861 46.5995 L 127.9837 45.6667 L 120.879 50.899 L 104.0906 48.7907 L 105.2587 51.1542 L 105.6318 56.7614 L 109.4159 63.8714 L 104.7029 57.2892 L 100.2954 45.9494 Z " stroke-width="0.5080372935730123"/>
    <path id="ID0.8256730306893587" fill="none" stroke="#937B73" stroke-width="1.0160745871460246" stroke-linecap="round" d="M 111.4898 57.4915 C 111.4898 57.4915 114.1757 56.838 115.5365 56.618 C 115.8768 56.5631 116.2167 56.6336 116.5539 56.6727 C 116.8968 56.7127 117.2295 56.8733 117.5741 56.8543 C 118.2573 56.8169 118.922 56.6057 119.5993 56.5064 C 119.9352 56.4571 120.2742 56.4118 120.6135 56.4087 C 120.9534 56.4055 121.2987 56.4185 121.6315 56.4887 C 122.1787 56.6041 123.2423 56.9627 123.2423 56.9627 "/>
    <path id="ID0.7592270169407129" fill="none" stroke="#937B73" stroke-width="1.0160745871460246" stroke-linecap="round" d="M 120.0125 58.59 C 120.0125 58.59 119.3982 58.948 119.0561 59.0168 C 118.7242 59.0838 118.3752 58.9464 118.0392 58.9875 C 117.7011 59.0293 117.391 59.2127 117.0541 59.2625 C 116.7193 59.3123 116.3695 59.3523 116.0383 59.2841 C 115.7565 59.226 115.2678 58.8939 115.2678 58.8939 "/>
    <path id="ID0.5332203092984855" fill="none" stroke="#937B73" stroke-width="1.0160745871460246" stroke-linecap="round" d="M 113.9346 49.3186 C 113.9346 49.3186 113.3383 49.7632 113.2396 50.0956 C 113.1119 50.5409 112.8753 51.391 113.3244 51.6945 C 113.9111 51.9722 114.654 51.2293 115.348 51.2704 C 116.0197 51.3131 117.3397 51.7363 117.3397 51.7363 "/>
    <path id="ID0.2278452254831791" fill="none" stroke="#937B73" stroke-width="1.0160745871460246" stroke-linecap="round" d="M 118.1997 45.5694 C 118.1997 45.5694 119.1733 47.4116 119.6558 48.3334 C 119.8173 48.6419 119.9945 48.9441 120.1328 49.2633 C 120.2712 49.5825 120.4904 49.8991 120.484 50.2468 C 120.4777 50.5955 120.2783 50.9219 120.0982 51.2204 C 119.9779 51.4202 119.6005 51.7137 119.6005 51.7137 "/>
    <path id="ID0.6473136460408568" fill="none" stroke="#937B73" stroke-width="1.0160746369822333" stroke-linecap="round" d="M 118.9279 62.5046 C 118.9279 62.5046 119.2581 63.1326 119.3162 63.4759 C 119.3725 63.8104 119.3198 64.1591 119.2634 64.4935 C 119.1786 64.9974 118.8943 65.9829 118.8943 65.9829 "/>
    <path id="ID0.11669129692018032" fill="#2E3034" stroke="none" stroke-linecap="round" d="M 102.1124 40.5752 L 125.3876 41.8598 L 129.3805 44.4429 L 120.0837 49.3406 L 99.3319 47.2402 L 102.1124 40.5752 Z " stroke-width="0.5080372935730123"/>
    <path id="ID0.14635155349969864" fill="#2E3034" stroke="none" stroke-linecap="round" d="M 99.5573 45.8888 L 101.4193 46.2304 L 104.171 51.3806 L 104.5981 57.139 L 106.5074 60.9096 L 109.4775 64.3783 L 101.1387 59.3467 L 99.5573 45.8888 Z " stroke-width="0.5080372935730123"/>
    <path id="ID0.28340246016159654" fill="#1C1D1F" stroke="none" stroke-linecap="round" d="M 102.2803 37.4196 L 105.7419 38.8857 L 115.4264 39.5716 L 115.5485 45.3224 L 108.5897 44.5247 L 104.7059 43.5266 L 102.6489 42.0577 L 101.7482 40.3481 L 102.2803 37.4196 Z " stroke-width="0.5401026900646693"/>
    <path id="ID0.6101007834076881" fill="#FFFFFF" stroke="none" stroke-linecap="round" d="M 106.0623 39.8767 L 107.7232 40.2414 L 111.5277 41.3621 L 112.114 43.3184 L 106.8297 41.9773 L 106.0623 39.8767 Z " stroke-width="0.40610621935919555"/>
    <path id="ID0.28340246016159654" fill="#1C1D1F" stroke="none" stroke-linecap="round" d="M 127.6861 36.9117 L 124.6576 38.3489 L 116.0553 39.3263 L 116.1641 44.4545 L 122.3337 43.4805 L 125.7561 42.4444 L 127.5332 41.0579 L 128.2709 39.5007 L 127.6861 36.9117 Z " stroke-width="0.48162503089976566"/>
    <path id="ID0.6101007834076881" fill="#FFFFFF" stroke="none" stroke-linecap="round" d="M 126.087 39.005 L 124.5563 39.5289 L 121.0808 40.999 L 120.7377 42.9116 L 125.5883 41.0735 L 126.087 39.005 Z " stroke-width="0.38638675405946465"/>
    <g id="ID0.07940126257017255">
      <path id="ID0.46257128613069654" fill="#27282B" stroke="none" stroke-linecap="round" d="M 115.5313 39.4036 L 120.0853 49.2668 L 110.0269 48.2098 L 115.5313 39.4036 Z " stroke-width="0.5080372935730123"/>
      <path id="ID0.9845890481956303" fill="#27282B" stroke="none" stroke-linecap="round" d="M 116.3434 39.511 L 124.7789 46.7002 L 120.1599 49.339 L 116.3434 39.511 Z " stroke-width="0.5080372935730123"/>
    </g>
    <path id="ID0.20071752788498998" fill="#202324" stroke="none" d="M 107.0172 35.0136 L 111.2112 37.4908 L 115.9851 38.5582 L 116.0909 39.9534 L 108.2927 38.8485 L 102.3513 36.6371 L 104.0405 34.8227 L 107.0172 35.0136 Z " stroke-width="0.5080372935730123"/>
    <path id="ID0.20071752788498998" fill="#202324" stroke="none" d="M 123.9511 34.398 L 120.9508 36.9092 L 115.7415 38.5816 L 115.6988 39.8645 L 122.8037 38.5482 L 128.1895 36.406 L 126.6043 34.2018 L 123.9511 34.398 Z " stroke-width="0.4660980130786223"/>
    <path id="ID0.521138689480722" fill="none" stroke="#212325" stroke-width="0.906062746246205" stroke-linecap="round" d="M 127.7908 36.6215 L 124.586 38.2755 L 116.0747 39.7022 "/>
    <path id="ID0.17828734638169408" fill="none" stroke="#202324" stroke-width="1.0160745871460246" stroke-linecap="round" d="M 119.9702 48.784 L 116.8961 41.6081 C 115.8441 39.2106 116.0045 39.7758 115.795 38.8112 C 115.7218 38.4743 115.9326 38.1335 115.9766 37.7911 C 116.0198 37.4538 116.0766 37.1126 116.0567 36.7731 C 116.0367 36.43 115.9305 36.0963 115.8573 35.761 C 115.7431 35.2375 115.4938 34.1934 115.4938 34.1934 "/>
    <path id="ID0.521138689480722" fill="none" stroke="#212325" stroke-width="1.0160745871460246" stroke-linecap="round" d="M 102.4776 36.9006 L 106.147 38.6013 L 115.751 39.7949 "/>
    <path id="ID0.8012696979567409" fill="none" stroke="url(#grad_1)" stroke-width="1.0160745871460246" stroke-linecap="round" d="M 127.974 45.2096 L 120.5905 49.279 L 101.951 47.3371 L 104.0138 51.1552 L 104.4479 57.2438 L 106.4545 60.8091 L 109.4267 64.3793 "/>
    <path id="ID0.043594349175691605" fill="#D7E2FD" stroke="none" stroke-linecap="round" d="M 111.315 42.3477 L 111.5199 41.2255 L 112.0714 43.2718 L 109.4654 42.5902 L 111.315 42.3477 Z " stroke-width="0.5080372935730123"/>
    <path id="ID0.043594349175691605" fill="#D7E2FD" stroke="none" stroke-linecap="round" d="M 121.4203 42.0436 L 121.1339 41.0468 L 120.8192 42.9476 L 123.1154 42.0965 L 121.4203 42.0436 Z " stroke-width="0.46186428411538405"/>
  </g>
  <g id="ID0.7397577832452953">
    <path id="ID0.6726378230378032" fill="#34373A" stroke="none" stroke-linecap="round" d="M 182.4935 123.6144 L 165.2643 119.5057 L 164.3606 121.6376 L 181.4087 125.368 L 182.4935 123.6144 Z " stroke-width="0.7788099862831545"/>
    <path id="ID0.6507829907350242" fill="#1D1E1F" stroke="none" stroke-linecap="round" d="M 184.2263 126.5404 L 164.3105 121.4407 L 152.3343 135.0274 L 146.9103 143.7954 L 136.4937 155.1128 L 131.8445 159.3014 L 138.9781 168.5136 L 143.3408 164.0612 L 150.9593 158.3715 L 161.0081 151.4787 L 168.4947 145.9323 L 184.2263 126.5404 Z " stroke-width="0.7788099862831545"/>
    <path id="ID0.6829322893172503" fill="#1D1E1F" stroke="none" stroke-linecap="round" d="M 139.5284 168.4908 L 135.5186 158.1846 L 129.6664 159.9429 L 122.9774 161.4602 L 119.2854 165.4715 L 116.6824 169.162 L 116.1372 172.6294 L 112.7887 178.2799 L 116.2155 181.1694 L 118.3936 180.5279 L 119.6715 181.4395 L 123.6778 181.6869 L 128.091 181.7796 L 132.4245 179.9465 L 136.4664 174.405 L 139.5284 168.4908 Z " stroke-width="0.7788099862831545"/>
    <path id="ID0.47767175547778606" fill="none" stroke="#0D0D0D" stroke-width="1.557619972566309" stroke-linecap="round" d="M 181.6683 129.3196 L 184.1048 126.2699 L 164.3678 121.4934 L 155.5516 131.5319 "/>
    <path id="ID0.5922487881034613" fill="#282A2B" stroke="none" stroke-linecap="round" d="M 162.8872 151.0628 L 161.5697 142.5466 L 157.2192 138.6482 L 149.014 138.8229 L 140.3385 150.2611 L 138.7548 158.5943 L 141.1901 160.8359 L 150.2347 159.6343 L 162.8872 151.0628 Z " stroke-width="0.7788099862831545"/>
    <path id="ID0.36820242274552584" fill="#151616" stroke="none" stroke-linecap="round" d="M 156.8509 148.8789 L 150.9441 143.3363 L 145.3984 153.1566 L 146.5112 154.075 L 156.8509 148.8789 Z " stroke-width="0.7788099862831545"/>
    <path id="ID0.13569410238415003" fill="none" stroke="#232425" stroke-width="1.557619972566309" stroke-linecap="round" d="M 150.1365 157.1379 L 141.4839 158.4886 L 142.5633 149.9558 "/>
    <path id="ID0.024502143263816833" fill="none" stroke="#0D0D0D" stroke-width="1.557619972566309" stroke-linecap="round" d="M 162.7897 150.5781 L 161.7769 142.7659 L 157.6947 138.691 L 149.4322 138.813 L 144.5245 145.41 "/>
  </g>
  <path id="ID0.5368814701214433" fill="#303436" stroke="none" stroke-linecap="round" d="M 37.7551 295.3284 L 44.9471 289.4499 L 53.7159 284.0866 L 58.9544 294.4015 L 64.32 306.9087 L 73.4415 325.0384 L 70.8339 331.106 L 49.4041 318.7725 L 33.4954 304.2224 L 37.7551 295.3284 Z " stroke-width="0.770216569534159"/>
  <path id="ID0.05466862628236413" fill="#303436" stroke="none" stroke-linecap="round" d="M 69.0495 218.1265 L 95.173 223.8329 L 83.9721 239.7627 L 80.7241 243.9266 L 73.7882 260.691 L 56.4919 297.5909 L 41.1591 293.8332 L 46.9053 272.3388 L 47.3894 263.2961 L 49.4612 254.0049 L 56.1637 242.0938 L 60.5027 230.5619 L 69.0495 218.1265 Z " stroke-width="0.7305889543516603"/>
  <path id="ID0.4490455654449761" fill="none" stroke="#272A2B" stroke-width="1.6585523812207572" stroke-linecap="round" d="M 68.5088 218.9568 L 94.7587 224.298 L 79.8117 244.7538 "/>
  <path id="ID0.10446935473009944" fill="none" stroke="#242728" stroke-width="1.6585523812207572" stroke-linecap="round" d="M 75.1518 256.1769 L 69.0684 271.8779 L 56.6126 275.031 "/>
  <path id="ID0.42170455446466804" fill="none" stroke="#242728" stroke-width="1.6585523812207572" stroke-linecap="round" d="M 67.6265 272.5791 L 60.9588 286.1639 L 48.2288 289.4207 "/>
  <path id="ID0.047098892275244" fill="none" stroke="#242728" stroke-width="1.6585523812207572" stroke-linecap="round" d="M 60.6563 231.1115 L 58.8346 234.6052 L 59.9248 244.4766 "/>
</svg>