<svg xmlns="http://www.w3.org/2000/svg" xmlns:xlink="http://www.w3.org/1999/xlink" version="1.1" width="190.76689153923883" height="200.89282232537164" viewBox="5.76210018985325 0.3789657055621731 190.76689153923883 200.89282232537164">
  <!-- Exported by Scratch - http://scratch.mit.edu/ -->
  <g id="ID0.6591436150483787">
    <g id="ID0.7085462282411754">
      <g id="ID0.5880346246995032">
        <path id="ID0.6829322893172503" fill="#796B5E" stroke="none" stroke-linecap="round" d="M 145.8952 141.0112 L 134.9537 142.4807 L 135.3569 148.6334 L 135.3379 155.5483 L 138.4204 160.122 L 141.4342 163.5524 L 144.6913 164.9138 L 149.4483 169.5421 L 153.0314 166.8743 L 152.894 164.5875 L 154.0685 163.553 L 155.2065 159.6873 L 156.2849 155.386 L 155.4687 150.7034 L 150.9733 145.4217 L 145.8952 141.0112 Z " stroke-width="0.7820137311437043"/>
        <g id="ID0.9434720128774643">
          <path id="ID0.6507829907350242" fill="#2C3134" stroke="none" stroke-linecap="round" d="M 115.3705 86.0651 L 105.9414 104.3591 L 116.1386 117.1985 L 123.8313 126.7381 L 132.5283 139.6427 L 134.4628 146.4706 L 147.3994 140.6017 L 142.782 135.0696 L 138.9429 126.2488 L 134.4755 114.7601 L 127.94 103.6742 L 115.3705 86.0651 Z " stroke-width="0.7820137311437043"/>
          <path id="ID0.9892375003546476" fill="none" stroke="#191919" stroke-width="1.9156213270159816" stroke-linecap="round" d="M 146.5932 140.1482 L 134.4897 145.1492 L 131.872 137.0131 "/>
        </g>
      </g>
      <path id="ID0.7729651997797191" fill="#2C3134" stroke="none" stroke-linecap="round" d="M 98.9717 61.214 L 78.3172 70.3828 L 88.937 86.9144 L 96.7714 94.512 L 101.8484 101.902 L 107.5611 108.2655 L 120.6126 98.5702 L 119.7404 91.7377 L 105.974 72.6753 L 98.9717 61.214 Z " stroke-width="0.9184073403197718"/>
      <path id="ID0.4757494777441025" fill="#2C3134" stroke="none" stroke-linecap="round" d="M 82.537 52.6536 L 74.1965 54.868 L 62.7889 66.4947 L 81.6496 84.1937 L 92.8462 83.558 L 97.2205 82.3389 L 98.8707 78.8136 L 99.9385 74.9524 L 103.6208 70.0508 L 101.182 65.3607 L 96.8138 58.8458 L 90.1924 53.3042 L 82.537 52.6536 Z " stroke-width="0.4625155945395199"/>
    </g>
    <g id="ID0.6688785348087549">
      <path id="ID0.5368814701214433" fill="#343434" stroke="none" stroke-linecap="round" d="M 149.0751 160.6161 L 146.8165 151.6061 L 145.6952 141.3885 L 157.2588 141.0381 L 170.8603 141.5058 L 191.1481 140.9676 L 195.529 145.9096 L 175.2478 160.0526 L 155.3105 168.2561 L 149.0751 160.6161 Z " stroke-width="0.7702165533500696"/>
      <g id="ID0.5077062323689461">
        <path id="ID0.05466862628236413" fill="#252525" stroke="none" stroke-linecap="round" d="M 111.5066 98.7821 L 128.0725 84.3747 L 134.4178 97.7294 L 136.4576 102.3686 L 144.1613 114.6346 L 163.9758 141.4539 L 147.4653 155.1059 L 136.3544 139.9452 L 130.6362 135.193 L 125.5327 129.2733 L 120.9741 119.0193 L 115.5064 110.5078 L 111.5066 98.7821 Z " stroke-width="0.5998532857109622"/>
        <path id="ID0.5319394422695041" fill="none" stroke="#131313" stroke-width="1.9999999994122568" stroke-linecap="round" d="M 163.4093 140.7786 L 147.5481 155.475 L 140.5808 146.2714 "/>
      </g>
    </g>
    <g id="ID0.8820344842970371">
      <path id="ID0.3809091211296618" fill="#252525" stroke="none" stroke-linecap="round" d="M 96.1109 163.7127 L 59.2154 158.6681 L 73.615 139.1431 L 101.2969 99.1485 L 108.4937 91.145 L 118.7461 84.9646 L 123.6147 91.7886 L 134.4442 99.0117 L 121.1447 116.2495 L 114.0457 127.6334 L 96.1109 163.7127 Z " stroke-width="0.7305889591093907"/>
      <path id="ID0.9495224836282432" fill="none" stroke="#131313" stroke-width="2.000000011729554" stroke-linecap="round" d="M 101.4214 99.0542 L 106.8157 92.4852 L 113.4383 87.5719 L 122.8631 89.4885 L 126.8091 86.259 "/>
    </g>
    <g id="ID0.7085462282411754">
      <g id="ID0.5880346246995032">
        <path id="ID0.6829322893172503" fill="#796B5E" stroke="none" stroke-linecap="round" d="M 11.259 174.1918 L 21.3174 169.6412 L 24.2351 175.073 L 27.9147 180.9277 L 27.7235 186.4399 L 26.9849 190.946 L 24.9438 193.8262 L 23.3614 200.2718 L 18.9091 199.9076 L 17.8141 197.8953 L 16.2699 197.6402 L 13.2566 194.9645 L 10.0631 191.8878 L 8.2745 187.484 L 9.2889 180.6228 L 11.259 174.1918 Z " stroke-width="0.78201369932095"/>
        <g id="ID0.9434720128774643">
          <path id="ID0.6507829907350242" fill="#2C3134" stroke="none" stroke-linecap="round" d="M 8.0932 111.3586 L 25.7824 121.8787 L 23.9363 138.1705 L 22.4661 150.3368 L 21.9269 165.8892 L 23.9036 172.705 L 9.8225 174.5813 L 10.8077 167.4431 L 9.3904 157.928 L 7.0926 145.8174 L 6.7621 132.9526 L 8.0932 111.3586 Z " stroke-width="0.78201369932095"/>
          <path id="ID0.9892375003546476" fill="none" stroke="#191919" stroke-width="1.9156212048797878" stroke-linecap="round" d="M 10.2986 173.8597 L 23.2133 171.6887 L 21.123 163.4014 "/>
        </g>
      </g>
      <path id="ID0.7729651997797191" fill="#2C3134" stroke="none" stroke-linecap="round" d="M 8.8296 81.5828 L 31.2047 78.4162 L 30.9564 98.0634 L 28.337 108.6578 L 27.9464 117.6152 L 26.4728 126.0389 L 10.2669 124.7308 L 7.3868 118.4739 L 8.963 95.0132 L 8.8296 81.5828 Z " stroke-width="0.9184072936475666"/>
      <path id="ID0.4757494777441025" fill="#2C3134" stroke="none" stroke-linecap="round" d="M 18.1237 65.6355 L 26.3707 63.0948 L 42.2055 66.9119 L 35.5864 91.9153 L 25.7535 97.3081 L 21.3977 98.5916 L 18.1304 96.476 L 15.1791 93.767 L 9.4592 91.5608 L 9.0427 86.2909 L 9.2959 78.4512 L 11.9757 70.2432 L 18.1237 65.6355 Z " stroke-width="0.4625155688856304"/>
    </g>
    <g id="ID0.8990198895335197">
      <path id="ID0.17576928716152906" fill="#DBDBDB" stroke="none" d="M 52.5754 54.0287 L 52.3416 54.0712 L 52.3416 54.0712 L 52.5754 54.0287 L 52.5754 54.0287 Z " stroke-width="0.9578126376112066"/>
      <path id="ID0.4270821204409003" fill="#252525" stroke="none" stroke-linecap="round" d="M 71.6886 170.3013 L 52.0283 63.2603 L 68.6848 62.6716 L 75.819 65.7209 L 79.1186 69.1498 L 87.4559 78.9878 L 88.3862 89.0778 L 88.3292 94.4388 L 90.9481 100.7688 L 92.2317 105.9158 L 91.2758 112.8165 L 90.5568 118.0506 L 90.8584 127.0774 L 95.6127 147.7261 L 92.0417 156.3242 L 88.5002 162.963 L 71.6886 170.3013 Z " stroke-width="0.45605531970161484"/>
      <path id="ID0.4270821204409003" fill="#252525" stroke="none" stroke-linecap="round" d="M 71.688 170.405 L 52.5029 63.2778 L 36.7008 68.5764 L 31.0919 73.937 L 29.2068 78.3063 L 24.8557 90.4457 L 27.5282 100.2197 L 29.4644 105.2192 L 29.2354 112.0657 L 29.8412 117.3356 L 33.1598 123.461 L 35.6712 128.1092 L 38.5591 136.667 L 41.3594 157.67 L 47.7227 164.4663 L 46.8697 180.6546 L 71.688 170.405 Z " stroke-width="0.4560553208573387"/>
      <path id="ID0.5114514343440533" fill="#282828" stroke="none" d="M 28.0315 68.8134 L 77.5929 59.8241 L 92.7943 143.6346 L 43.2329 152.624 L 28.0315 68.8134 Z " stroke-width="0.9660237102854617"/>
      <path id="ID0.9286923445761204" fill="#D4D4D4" stroke="none" stroke-linecap="round" d="M 40.6868 53.0935 L 53.622 32.3683 L 50.2175 51.505 L 58.3689 89.7271 L 17.8793 68.58 L 34.8517 54.8992 L 40.6868 53.0935 Z " stroke-width="0.4560553904036264"/>
      <path id="ID0.9286923445761204" fill="#D4D4D4" stroke="none" stroke-linecap="round" d="M 55.7405 49.3163 L 39.8569 35.1493 L 49.7654 51.8713 L 57.7902 89.6493 L 86.0404 56.5014 L 65.5062 48.6426 L 55.7405 49.3163 Z " stroke-width="0.4560553904036264"/>
      <path id="ID0.39874776685610414" fill="#1F2022" stroke="none" stroke-linecap="round" d="M 33.2482 56.1011 L 53.5289 62.1052 L 68.6941 50.5644 L 72.8059 51.9157 L 53.9967 65.7238 L 30.0698 58.5962 L 33.2482 56.1011 Z " stroke-width="0.9033554864802262"/>
      <path id="ID0.13444371055811644" fill="#1F1F1F" stroke="none" stroke-linecap="round" d="M 51.6443 64.2386 L 56.5107 63.1108 L 64.0382 89.7021 L 52.8561 92.2208 L 51.6443 64.2386 Z " stroke-width="0.9578126376112066"/>
      <path id="ID0.751046194229275" fill="#191919" stroke="none" stroke-linecap="round" d="M 48.5982 59.9388 L 52.6194 57.2133 L 57.1873 58.381 L 58.9725 65.8801 L 55.0285 67.5666 L 49.9719 67.5126 L 48.5982 59.9388 Z " stroke-width="1.0535939081810382"/>
      <path id="ID0.7854711129330099" fill="#282828" stroke="none" stroke-linecap="round" d="M 44.0011 82.0296 L 58.6 87.9649 L 69.7784 76.3732 L 70.9226 93.3321 L 49.1811 97.2755 L 44.0011 82.0296 Z " stroke-width="0.9578126376112066"/>
      <path id="ID0.562834897544235" fill="#282828" stroke="none" stroke-linecap="round" d="M 40.6539 152.7737 L 67.9509 142.1823 L 71.439 161.4136 L 58.7964 164.9328 L 40.6539 152.7737 Z " stroke-width="0.9578126376112066"/>
      <path id="ID0.562834897544235" fill="#282828" stroke="none" stroke-linecap="round" d="M 97.6016 142.7684 L 68.3237 142.4384 L 71.8119 161.6697 L 84.8851 160.5247 L 97.6016 142.7684 Z " stroke-width="0.9578126376112066"/>
      <path id="ID0.6824178956449032" fill="none" stroke="#191919" stroke-width="1.9156252752224132" stroke-linecap="round" d="M 58.3755 88.2871 L 71.3622 161.2186 "/>
      <path id="ID0.4144489667378366" fill="#40474C" stroke="none" stroke-linecap="round" d="M 16.9196 65.8514 L 34.4778 54.8193 L 35.4189 75.9839 L 48.7933 132.4144 L 47.618 176.5245 L 36.4704 173.6417 L 36.8395 177.0081 L 31.3767 130.9139 L 19.4849 90.6453 L 15.7507 75.3824 L 16.9196 65.8514 Z " stroke-width="0.9578126376112066"/>
      <path id="ID0.5234400681219995" fill="#101010" stroke="none" d="M 61.4415 93.2913 C 61.8273 93.2213 62.2061 93.317 62.5061 93.5283 C 62.8061 93.7396 63.0273 94.0666 63.0984 94.4585 C 63.1694 94.8504 63.0772 95.2342 62.8705 95.5374 C 62.6639 95.8406 62.3428 96.0632 61.9569 96.1332 C 61.571 96.2032 61.1922 96.1075 60.8923 95.8962 C 60.5923 95.6849 60.3711 95.3579 60.3 94.966 C 60.2289 94.5741 60.3212 94.1903 60.5278 93.8871 C 60.7345 93.5839 61.0556 93.3613 61.4415 93.2913 Z " stroke-width="0.6034219456099621"/>
      <path id="ID0.5234400681219995" fill="#101010" stroke="none" d="M 63.7915 106.1913 C 64.1773 106.1213 64.5561 106.217 64.8561 106.4283 C 65.1561 106.6396 65.3773 106.9666 65.4484 107.3585 C 65.5194 107.7504 65.4272 108.1342 65.2205 108.4374 C 65.0139 108.7406 64.6928 108.9632 64.3069 109.0332 C 63.921 109.1032 63.5422 109.0075 63.2423 108.7962 C 62.9423 108.5849 62.7211 108.2579 62.65 107.866 C 62.5789 107.4741 62.6712 107.0903 62.8778 106.7871 C 63.0845 106.4839 63.4056 106.2613 63.7915 106.1913 Z " stroke-width="0.6034219456099621"/>
      <path id="ID0.5234400681219995" fill="#101010" stroke="none" d="M 69.2415 136.1413 C 69.6273 136.0713 70.0061 136.167 70.3061 136.3783 C 70.6061 136.5896 70.8273 136.9166 70.8984 137.3085 C 70.9694 137.7004 70.8772 138.0842 70.6705 138.3874 C 70.4639 138.6906 70.1428 138.9132 69.7569 138.9832 C 69.371 139.0532 68.9922 138.9575 68.6923 138.7462 C 68.3923 138.5349 68.1711 138.2079 68.1 137.816 C 68.0289 137.4241 68.1212 137.0403 68.3278 136.7371 C 68.5345 136.4339 68.8556 136.2113 69.2415 136.1413 Z " stroke-width="0.6034219456099621"/>
      <path id="ID0.5234400681219995" fill="#101010" stroke="none" d="M 66.6415 122.0413 C 67.0273 121.9713 67.4061 122.067 67.7061 122.2783 C 68.0061 122.4896 68.2273 122.8166 68.2984 123.2085 C 68.3694 123.6004 68.2772 123.9842 68.0705 124.2874 C 67.8639 124.5906 67.5428 124.8132 67.1569 124.8832 C 66.771 124.9532 66.3922 124.8575 66.0923 124.6462 C 65.7923 124.4349 65.5711 124.1079 65.5 123.716 C 65.4289 123.3241 65.5212 122.9403 65.7278 122.6371 C 65.9345 122.3339 66.2556 122.1113 66.6415 122.0413 Z " stroke-width="0.6034219456099621"/>
      <path id="ID0.5234400681219995" fill="#101010" stroke="none" d="M 71.5415 149.4413 C 71.9273 149.3713 72.3061 149.467 72.6061 149.6783 C 72.9061 149.8896 73.1273 150.2166 73.1984 150.6085 C 73.2694 151.0004 73.1772 151.3842 72.9705 151.6874 C 72.7639 151.9906 72.4428 152.2132 72.0569 152.2832 C 71.671 152.3532 71.2922 152.2575 70.9923 152.0462 C 70.6923 151.8349 70.4711 151.5079 70.4 151.116 C 70.3289 150.7241 70.4212 150.3403 70.6278 150.0371 C 70.8345 149.7339 71.1556 149.5113 71.5415 149.4413 Z " stroke-width="0.6034219456099621"/>
      <path id="ID0.4144489667378366" fill="#40474C" stroke="none" stroke-linecap="round" d="M 85.4468 52.6475 L 65.1325 48.4846 L 71.6844 68.6316 L 78.9805 126.1645 L 95.5725 167.0521 L 104.9976 160.4379 L 105.8342 163.7194 L 94.7607 118.6429 L 91.7525 76.763 L 89.8885 61.1608 L 85.4468 52.6475 Z " stroke-width="0.9578126376112066"/>
      <path id="ID0.8752945330925286" fill="none" stroke="#222222" stroke-width="1.9156252752224132" stroke-linecap="round" d="M 17.4302 66.004 L 15.7261 73.9154 L 25.2678 109.2151 "/>
      <path id="ID0.8752945330925286" fill="none" stroke="#222222" stroke-width="1.9156252752224132" stroke-linecap="round" d="M 85.7223 53.1698 L 90.0964 59.9787 L 93.5598 96.3809 "/>
      <path id="ID0.5234400681219995" fill="#101010" stroke="none" d="M 47.7415 140.6413 C 48.1273 140.5713 48.5061 140.667 48.8061 140.8783 C 49.1061 141.0896 49.3273 141.4166 49.3984 141.8085 C 49.4694 142.2004 49.3772 142.5842 49.1705 142.8874 C 48.9639 143.1906 48.6428 143.4132 48.2569 143.4832 C 47.871 143.5532 47.4922 143.4575 47.1923 143.2462 C 46.8923 143.0349 46.6711 142.7079 46.6 142.316 C 46.5289 141.9241 46.6212 141.5403 46.8278 141.2371 C 47.0345 140.9339 47.3556 140.7113 47.7415 140.6413 Z " stroke-width="0.6034219456099621"/>
      <path id="ID0.5234400681219995" fill="#101010" stroke="none" d="M 47.6415 147.7913 C 48.0273 147.7213 48.4061 147.817 48.7061 148.0283 C 49.0061 148.2396 49.2273 148.5666 49.2984 148.9585 C 49.3694 149.3504 49.2772 149.7342 49.0705 150.0374 C 48.8639 150.3406 48.5428 150.5632 48.1569 150.6332 C 47.771 150.7032 47.3922 150.6075 47.0923 150.3962 C 46.7923 150.1849 46.5711 149.8579 46.5 149.466 C 46.4289 149.0741 46.5212 148.6903 46.7278 148.3871 C 46.9345 148.0839 47.2556 147.8613 47.6415 147.7913 Z " stroke-width="0.6034219456099621"/>
      <g id="ID0.20783481979742646">
        <path id="ID0.5848579816520214" fill="#737373" stroke="none" stroke-linecap="round" d="M 80.5137 81.4182 L 86.6609 78.8318 L 87.2392 82.5526 L 80.5457 84.2571 L 80.5137 81.4182 Z " stroke-width="0.9578126376112066"/>
        <path id="ID0.13105127029120922" fill="none" stroke="#222222" stroke-width="1.9156252752224132" stroke-linecap="round" d="M 79.3264 84.7235 L 83.5344 83.9602 L 88.1854 81.6452 "/>
      </g>
    </g>
    <path id="ID0.46110434643924236" fill="#675B50" stroke="none" stroke-linecap="round" d="M 36.2068 35.7816 L 57.3543 31.9459 L 61.0557 49.8633 L 55.7543 53.6205 L 39.6691 54.8704 L 36.2068 35.7816 Z " stroke-width="1.0405048472656733"/>
    <path id="ID0.7592270169407129" fill="none" stroke="#675B50" stroke-width="0.998700885153018" stroke-linecap="round" d="M 56.5884 45.868 C 56.5884 45.868 56.7714 46.5381 56.7486 46.8783 C 56.7268 47.2085 56.5054 47.5032 56.4579 47.8308 C 56.4103 48.1604 56.5052 48.4993 56.4657 48.8298 C 56.4267 49.1584 56.3744 49.4986 56.2237 49.7941 C 56.0955 50.0454 55.6521 50.4231 55.6521 50.4231 "/>
    <g id="ID0.9597035455517471">
      <path id="ID0.5368814701214433" fill="#404040" stroke="none" stroke-linecap="round" d="M 139.7983 185.4124 L 137.6907 176.3659 L 136.7406 166.131 L 148.3085 165.9742 L 161.9002 166.6694 L 182.1942 166.4708 L 186.4917 171.4855 L 165.9767 185.287 L 145.9049 193.1557 L 139.7983 185.4124 Z " stroke-width="0.7702164921765663"/>
      <g id="ID0.5077062323689461">
        <path id="ID0.05466862628236413" fill="#252525" stroke="none" stroke-linecap="round" d="M 103.9583 121.7863 L 121.119 108.0928 L 126.8936 121.7041 L 128.7352 126.4255 L 135.913 139.0064 L 154.5748 166.6402 L 137.5014 179.5813 L 127.042 163.964 L 121.53 158.9741 L 116.6816 152.8437 L 112.5609 142.406 L 107.4583 133.6708 L 103.9583 121.7863 Z " stroke-width="0.5998532616188824"/>
        <path id="ID0.5319394422695041" fill="none" stroke="#131313" stroke-width="2.0000000597466254" stroke-linecap="round" d="M 153.9996 165.9408 L 137.5307 179.9529 L 130.9591 170.4627 "/>
      </g>
    </g>
    <g id="ID0.8820344842970371">
      <path id="ID0.3809091211296618" fill="#252525" stroke="none" stroke-linecap="round" d="M 76.1262 187.5673 L 45.0628 182.0465 L 60.3683 163.2231 L 89.9077 124.5802 L 97.4744 116.9255 L 108.0072 111.236 L 112.5482 118.2823 L 124.2961 125.3215 L 111.0915 144.3847 L 103.5147 155.0578 L 76.1262 187.5673 Z " stroke-width="0.7305889730988251"/>
      <path id="ID0.9495224836282432" fill="none" stroke="#131313" stroke-width="1.9999999214516093" stroke-linecap="round" d="M 90.1206 124.6261 L 95.8191 118.3191 L 102.6663 113.724 L 111.9901 116.0834 L 116.0841 113.0439 "/>
    </g>
    <path id="ID0.48112139804288745" fill="#3A3A3A" stroke="#3A3A3A" stroke-width="1.8513924505796795" stroke-linecap="round" d="M 67.4789 11.455 C 68.0715 11.786 67.4762 13.1272 67.7201 13.8916 C 67.916 14.5054 68.5306 14.9585 68.6576 15.59 C 68.7789 16.1957 68.55 16.8247 68.431 17.4303 C 68.0959 19.1395 68.1447 21.402 67.2847 22.723 C 66.9397 23.1767 66.3817 21.5488 66.0211 20.9798 C 65.284 19.8381 64.4964 18.6451 64.006 17.4455 C 63.7721 16.8733 63.8239 16.222 63.7668 15.6068 C 63.7107 14.9963 63.4093 14.325 63.6673 13.7676 C 63.929 13.202 64.6184 12.9402 65.1539 12.6128 C 65.852 12.1863 66.7884 11.1465 67.4789 11.455 Z "/>
    <path id="ID0.05099705280736089" fill="#1C1916" stroke="#1C1916" stroke-width="1.9658421567589515" stroke-linecap="round" d="M 34.2322 29.3682 C 33.9202 29.5265 34.3376 30.6678 34.4866 31.4183 C 34.6144 32.0605 35.0071 32.6334 35.3829 33.1731 C 35.7596 33.7139 36.2518 34.1712 36.7233 34.6335 C 37.1947 35.0958 37.7155 35.509 38.2116 35.9468 C 38.7077 36.3846 39.0362 37.2966 39.6999 37.2601 C 40.3635 37.2237 40.9137 36.4366 41.0302 35.7906 C 41.2622 34.5046 41.1071 33.1183 40.6705 31.8853 C 40.4508 31.2659 39.7227 30.9549 39.1823 30.572 C 38.6428 30.19 38.0806 29.8003 37.4478 29.6013 C 36.5239 29.3105 35.4008 28.618 34.5776 29.1229 Z "/>
    <path id="ID0.8999492498114705" fill="#796B5E" stroke="none" stroke-linecap="round" d="M 56.0844 2.7686 C 60.4425 3.2215 65.1322 5.8524 67.2544 9.6373 C 69.6759 13.9586 68.1529 19.4177 68.0813 24.3106 C 68.049 26.4577 67.3219 28.6656 66.8222 30.8148 C 66.1116 33.8681 65.2542 36.7915 64.5161 39.7289 C 64.082 41.5131 64.3954 43.6406 63.303 44.9925 C 61.565 47.1424 59.2263 49.3445 56.4849 49.7791 C 53.3171 50.2807 50.2082 48.4646 47.1299 47.5041 C 45.5862 46.9691 43.7236 46.6153 42.6748 45.3115 C 40.4274 42.5124 39.2738 38.9351 37.8927 35.6775 C 36.4427 32.258 34.227 28.9219 34.1629 25.1716 C 34.0545 18.7888 32.9294 10.9279 37.6157 6.3054 C 41.8067 1.8557 49.6059 2.0983 56.0844 2.7686 Z " stroke-width="0.4993605077319816"/>
    <path id="ID0.8194515448994935" fill="#796B5E" stroke="none" stroke-linecap="round" d="M 34.3809 21.3611 C 35.2259 21.4431 35.8391 21.9967 36.3442 23.0292 C 36.8493 24.0617 37.1648 25.4885 37.1702 27.0648 C 37.1756 28.641 36.8699 30.0699 36.372 31.1059 C 35.8741 32.1419 35.2636 32.6733 34.4202 32.7876 C 33.646 32.8908 32.6495 32.4753 32.2901 31.8183 C 31.6135 30.3576 31.7262 28.6217 31.6309 27.0838 C 31.5367 25.5723 31.1748 23.9113 31.7636 22.542 C 32.2346 21.7064 33.4953 21.2752 34.3809 21.3611 Z " stroke-width="0.9829210783794757"/>
    <path id="ID0.8256730306893587" fill="none" stroke="#675B50" stroke-width="0.9987207689619202" stroke-linecap="round" d="M 59.9845 39.363 C 59.9845 39.363 58.7945 38.7434 58.1447 38.7805 C 57.5369 38.7684 57.0705 39.436 56.4409 39.4333 C 55.6936 39.4299 55.0612 38.7622 54.3178 38.7154 C 53.1037 39.0646 51.7105 39.4115 51.7105 39.4115 "/>
    <path id="ID0.7592270169407129" fill="none" stroke="#675B50" stroke-width="0.9987210154639632" stroke-linecap="round" d="M 53.6587 41.7459 C 53.6587 41.7459 54.275 42.0807 54.6149 42.1396 C 54.9448 42.197 55.2865 42.0544 55.6198 42.0865 C 55.9551 42.1191 56.2663 42.2907 56.6006 42.3312 C 56.9329 42.3717 57.2798 42.4023 57.6057 42.3277 C 57.8828 42.2643 58.3581 41.9282 58.3581 41.9282 "/>
    <path id="ID0.7788236327469349" fill="#FFFFFF" stroke="none" stroke-linecap="round" d="M 45.7703 22.8968 L 47.105 22.6969 L 49.3298 22.4451 L 51.4568 22.5354 L 51.7612 24.7318 L 49.2408 25.3265 L 44.2928 24.7087 L 45.7703 22.8968 Z " stroke-width="0.9829210783794757"/>
    <path id="ID0.036129117012023926" fill="#5E3B21" stroke="none" d="M 50.3045 22.5572 C 50.7071 22.5558 51.0726 22.7157 51.3376 22.9756 C 51.6026 23.2354 51.7671 23.5952 51.7684 23.9927 C 51.7698 24.3902 51.6078 24.7511 51.3446 25.0128 C 51.0814 25.2745 50.717 25.4369 50.3144 25.4382 C 49.9118 25.4396 49.5462 25.2797 49.2812 25.0199 C 49.0162 24.76 48.8518 24.4002 48.8504 24.0027 C 48.849 23.6053 49.011 23.2443 49.2742 22.9827 C 49.5374 22.721 49.9019 22.5586 50.3045 22.5572 Z " stroke-width="0.9829210783794757"/>
    <path id="ID0.9171876185573637" fill="#191009" stroke="none" d="M 50.628 23.1421 C 50.8327 23.1414 51.018 23.2228 51.153 23.3551 C 51.2879 23.4875 51.3717 23.6698 51.3724 23.872 C 51.3731 24.0741 51.2906 24.2571 51.1565 24.3903 C 51.0225 24.5236 50.8378 24.6063 50.633 24.607 C 50.4283 24.6077 50.243 24.5263 50.108 24.394 C 49.973 24.2616 49.8893 24.0793 49.8886 23.8771 C 49.8879 23.6749 49.9704 23.492 50.1044 23.3587 C 50.2385 23.2254 50.4232 23.1428 50.628 23.1421 Z " stroke-width="0.9829210783794757"/>
    <path id="ID0.7788236327469349" fill="#FFFFFF" stroke="none" stroke-linecap="round" d="M 64.6699 23.081 L 62.9864 22.5497 L 61.0576 22.5563 L 58.9312 22.6613 L 58.642 24.8597 L 61.1664 25.437 L 65.7645 24.9817 L 64.6699 23.081 Z " stroke-width="0.9829210783794757"/>
    <g id="ID0.8607796453870833">
      <path id="ID0.036129117012023926" fill="#5E3B21" stroke="none" d="M 63.3545 22.5072 C 63.7571 22.5058 64.1226 22.6657 64.3876 22.9256 C 64.6526 23.1854 64.8171 23.5452 64.8184 23.9427 C 64.8198 24.3402 64.6578 24.7011 64.3946 24.9628 C 64.1314 25.2245 63.767 25.3869 63.3644 25.3882 C 62.9618 25.3896 62.5962 25.2297 62.3312 24.9699 C 62.0662 24.71 61.9018 24.3502 61.9004 23.9527 C 61.899 23.5553 62.061 23.1943 62.3242 22.9327 C 62.5874 22.671 62.9519 22.5086 63.3545 22.5072 Z " stroke-width="0.9829210783794757"/>
      <path id="ID0.9171876185573637" fill="#191009" stroke="none" d="M 63.678 23.1421 C 63.8827 23.1414 64.068 23.2228 64.203 23.3551 C 64.3379 23.4875 64.4217 23.6698 64.4224 23.872 C 64.4231 24.0741 64.3406 24.2571 64.2065 24.3903 C 64.0725 24.5236 63.8878 24.6063 63.683 24.607 C 63.4783 24.6077 63.293 24.5263 63.158 24.394 C 63.023 24.2616 62.9393 24.0793 62.9386 23.8771 C 62.9379 23.6749 63.0204 23.492 63.1544 23.3587 C 63.2885 23.2254 63.4732 23.1428 63.678 23.1421 Z " stroke-width="0.9829210783794757"/>
    </g>
    <path id="ID0.2118154256604612" fill="#1C1916" stroke="#1C1916" stroke-width="1.9658421567589515" stroke-linecap="round" d="M 33.4132 19.2637 C 33.3873 19.7667 33.6532 22.0316 34.4163 23.3133 C 34.6979 23.786 34.9432 22.0594 35.2507 21.4548 C 35.5485 20.8687 35.9492 20.3341 36.234 19.7423 C 36.5385 19.1093 36.7865 18.4483 37.0186 17.7863 C 37.2439 17.1449 37.4257 16.486 37.6054 15.831 C 37.7832 15.1839 37.863 14.5068 38.0933 13.8761 C 38.3226 13.2463 38.6668 12.6611 38.9773 12.0662 C 39.2888 11.4714 39.4406 10.7354 39.9604 10.3049 C 40.495 9.8616 41.2412 9.6774 41.9364 9.6145 C 42.6029 9.5546 43.2567 9.8404 43.9159 9.9495 C 44.6077 10.0633 45.3074 10.1459 45.9943 10.2841 C 46.6595 10.4176 47.3228 10.5784 47.9744 10.7657 C 48.609 10.9481 49.2281 11.1901 49.856 11.394 C 50.5135 11.6076 51.1897 11.7761 51.8365 12.022 C 52.4624 12.2601 53.0286 12.6507 53.6693 12.8458 C 54.308 13.0399 54.9974 13.3325 55.6488 13.1808 C 56.3031 13.0282 56.7282 12.386 57.2769 12.0033 C 57.8295 11.6185 58.3512 11.1753 58.9546 10.8744 C 59.5451 10.5803 60.1834 10.3623 60.8318 10.2331 C 61.931 10.0154 63.1968 9.6224 64.3916 9.879 C 65.536 10.127 66.8762 12.1031 67.5137 11.675 C 68.1187 11.2647 67.1811 9.3069 66.6608 8.1621 C 66.0987 6.9276 65.2392 5.8123 64.2754 4.8497 C 63.3464 3.9222 62.2692 3.0743 61.0527 2.5657 C 59.8184 2.0494 58.4216 2.0279 57.0936 1.8469 C 56.4404 1.7573 55.7719 1.8182 55.1149 1.756 C 54.4519 1.6929 53.8014 1.5008 53.1355 1.4698 C 51.8197 1.4089 50.482 1.2934 49.1789 1.4835 C 47.8224 1.6805 46.5464 2.2572 45.2261 2.6202 C 44.5719 2.8002 43.8966 2.9109 43.2494 3.1153 C 41.9698 3.5201 40.6923 3.9513 39.4457 4.4469 C 38.8303 4.6912 38.1633 4.8966 37.6682 5.332 C 37.1455 5.7908 36.9215 6.5045 36.4871 7.0451 C 36.0665 7.5681 35.4595 7.9452 35.1073 8.5148 C 34.7414 9.1079 34.5568 9.8 34.3721 10.4706 C 34.1973 11.108 34.0888 11.7666 34.0327 12.4251 C 33.9775 13.0728 34.1193 13.7325 34.0394 14.3783 C 33.9576 15.0437 33.7115 15.6813 33.5515 16.3333 C 33.4198 16.8699 33.0932 17.3984 33.1614 17.9461 Z "/>
    <path id="ID0.5261953212320805" fill="none" stroke="#1C1916" stroke-width="1.965842159492069" stroke-linecap="round" d="M 43.4283 22.6114 C 43.4283 22.6114 44.058 21.3237 44.6027 20.8885 C 45.1239 20.472 45.8223 20.3013 46.4785 20.1728 C 47.1347 20.0443 47.8192 20.1888 48.4856 20.128 C 49.7341 20.0128 52.2213 19.645 52.2213 19.645 "/>
    <path id="ID0.5261953212320805" fill="none" stroke="#1C1916" stroke-width="1.9658421141204978" stroke-linecap="round" d="M 66.5898 22.3165 C 66.5898 22.3165 65.9762 21.021 65.4369 20.5792 C 64.9209 20.1561 64.2248 19.9768 63.5702 19.8401 C 62.9156 19.7034 62.2294 19.8395 61.5638 19.7703 C 60.3168 19.6396 57.8344 19.2409 57.8344 19.2409 "/>
    <path id="ID0.8619630038738251" fill="none" stroke="#675B50" stroke-width="1.1552937760070012" stroke-linecap="round" d="M 55.3611 23.7823 C 55.3611 23.7823 55.7051 26.6066 55.8697 27.9704 C 55.9641 28.7363 55.8113 29.5966 56.1973 30.265 C 56.6673 31.0239 57.7706 31.0023 58.0334 31.6936 C 58.387 32.4161 58.5032 33.7554 57.8086 33.9615 C 56.7529 34.2745 55.7729 32.952 54.6075 32.8533 C 53.9819 32.8009 52.8953 33.634 52.8953 33.634 "/>
    <path id="ID0.6736386958509684" fill="none" stroke="#675B50" stroke-width="1.2323188881412286" stroke-linecap="round" d="M 43.0988 30.8117 C 43.0988 30.8117 43.6352 31.5445 43.9396 31.8802 C 44.2172 32.1865 44.5591 32.4321 44.8417 32.7342 C 45.1304 33.0429 45.4514 33.34 45.6511 33.7109 C 45.8539 34.0867 46.0117 34.5086 46.0274 34.9341 C 46.0691 36.0769 45.8221 38.3632 45.8221 38.3632 "/>
    <path id="ID0.18298013787716627" fill="#1C1916" stroke="#1C1916" stroke-width="1.9658421567589515" stroke-linecap="round" d="M 42.9213 9.2134 C 42.5016 9.4141 42.0348 10.32 42.1861 11.1692 C 42.4262 12.5112 43.6804 13.925 43.436 15.0714 C 43.3153 15.6354 42.0762 14.8642 41.456 14.5899 C 40.8517 14.3224 40.3526 13.8622 39.82 13.4724 C 39.2458 13.0525 38.4813 12.7768 38.1339 12.1598 C 37.8124 11.5895 37.7336 10.8124 37.9788 10.207 C 38.225 9.5977 38.8715 9.1922 39.458 8.8835 C 40.0574 8.5679 40.7593 8.461 41.4347 8.3884 C 41.7204 8.3581 42.202 8.3066 42.2761 8.5808 Z "/>
    <path id="ID0.7592270169407129" fill="none" stroke="#675B50" stroke-width="0.9987155990253224" stroke-linecap="round" d="M 55.7119 16.4822 C 55.7119 16.4822 55.9347 17.1409 55.9323 17.4817 C 55.9303 17.8124 55.7268 18.1187 55.6989 18.4482 C 55.6712 18.7797 55.7862 19.1127 55.7666 19.4447 C 55.7473 19.7748 55.7154 20.1172 55.5826 20.4203 C 55.4696 20.6781 55.0494 21.0794 55.0494 21.0794 "/>
    <path id="ID0.48112139804288745" fill="#3A3A3A" stroke="#3A3A3A" stroke-width="1.8513924505796795" stroke-linecap="round" d="M 34.0184 12.8464 C 33.4279 13.1814 34.0325 14.5185 33.7938 15.2846 C 33.6022 15.8996 32.9908 16.357 32.8681 16.9894 C 32.751 17.5959 32.9842 18.2233 33.1073 18.8281 C 33.4542 20.5349 33.421 22.7977 34.29 24.1127 C 34.6381 24.5641 35.1849 22.9323 35.5416 22.3608 C 36.2709 21.2141 37.0502 20.0157 37.5323 18.8129 C 37.7623 18.239 37.7061 17.588 37.7589 16.9725 C 37.8108 16.3616 38.1076 15.6882 37.8457 15.1327 C 37.5802 14.5688 36.889 14.3118 36.3513 13.9881 C 35.6502 13.5665 34.7066 12.5331 34.0184 12.8464 Z "/>
  </g>
</svg>