<svg xmlns="http://www.w3.org/2000/svg" xmlns:xlink="http://www.w3.org/1999/xlink" version="1.1" width="116.1697998046875" height="316.9123840332031" viewBox="1.9900999069213867 -0.27468156814575195 116.1697998046875 316.9123840332031">
  <!-- Exported by Scratch - http://scratch.mit.edu/ -->
  <g id="ID0.01508300844579935">
    <g id="ID0.7085462282411754">
      <g id="ID0.5880346246995032">
        <path id="ID0.6829322893172503" fill="#1D1E1F" stroke="none" stroke-linecap="round" d="M 6.92 174.931 L 17.7584 170.816 L 20.4988 176.6064 L 24.0143 182.8789 L 23.484 188.5695 L 22.4387 193.1871 L 20.1223 196.0462 L 18.0746 202.6204 L 13.4192 201.9815 L 12.3892 199.8356 L 10.7822 199.4808 L 7.7767 196.5357 L 4.6058 193.1653 L 2.9901 188.5047 L 4.4659 181.4673 L 6.92 174.931 Z " stroke-width="0.8164595827124561"/>
        <g id="ID0.9434720128774643">
          <path id="ID0.6507829907350242" fill="#282828" stroke="none" stroke-linecap="round" d="M 7.2925 109.8298 L 25.2463 121.7528 L 22.333 138.4963 L 20.0613 150.9946 L 18.5652 167.0501 L 20.2343 174.2166 L 5.3297 175.3287 L 6.7914 168.0029 L 5.8714 158.0772 L 4.1814 145.4148 L 4.6033 132.0881 L 7.2925 109.8298 Z " stroke-width="0.8164595827124561"/>
          <path id="ID0.9892375003546476" fill="none" stroke="#191919" stroke-width="1.9999999547007297" stroke-linecap="round" d="M 5.8842 174.5081 L 19.5811 173.0226 L 17.8806 164.3273 "/>
        </g>
      </g>
      <path id="ID0.7729651997797191" fill="#282828" stroke="none" stroke-linecap="round" d="M 9.8724 79.0414 L 33.567 77.0829 L 32.1317 97.3911 L 28.7467 108.1957 L 27.8009 117.4382 L 25.7493 126.0648 L 8.803 123.7579 L 6.1514 117.1163 L 9.2097 92.9415 L 9.8724 79.0414 Z " stroke-width="0.9588636846711274"/>
      <path id="ID0.4757494777441025" fill="#282828" stroke="none" stroke-linecap="round" d="M 20.6453 63.0922 L 29.4608 60.9496 L 45.8673 65.83 L 37.4192 91.3036 L 26.7672 96.3031 L 22.1146 97.3745 L 18.8088 94.9938 L 15.8703 92.0179 L 9.9934 89.3991 L 9.8709 83.9234 L 10.6055 75.829 L 13.9113 67.4965 L 20.6453 63.0922 Z " stroke-width="0.48299249213559925"/>
    </g>
    <g id="ID0.7085462282411754">
      <g id="ID0.5880346246995032">
        <path id="ID0.6829322893172503" fill="#1D1E1F" stroke="none" stroke-linecap="round" d="M 113.23 174.181 L 102.3916 170.066 L 99.6512 175.8564 L 96.1357 182.1289 L 96.666 187.8195 L 97.7113 192.4371 L 100.0277 195.2962 L 102.0754 201.8704 L 106.7308 201.2315 L 107.7608 199.0856 L 109.3678 198.7308 L 112.3733 195.7857 L 115.5442 192.4153 L 117.1599 187.7547 L 115.6841 180.7173 L 113.23 174.181 Z " stroke-width="0.8164595827124561"/>
        <g id="ID0.9434720128774643">
          <path id="ID0.6507829907350242" fill="#282828" stroke="none" stroke-linecap="round" d="M 112.8575 109.0798 L 94.9037 121.0028 L 97.817 137.7463 L 100.0887 150.2446 L 101.5848 166.3001 L 99.9157 173.4666 L 114.8203 174.5787 L 113.3586 167.2529 L 114.2786 157.3272 L 115.9686 144.6648 L 115.5467 131.3381 L 112.8575 109.0798 Z " stroke-width="0.8164595827124561"/>
          <path id="ID0.9892375003546476" fill="none" stroke="#191919" stroke-width="1.9999999547007297" stroke-linecap="round" d="M 114.2658 173.7581 L 100.5689 172.2726 L 102.2694 163.5773 "/>
        </g>
      </g>
      <path id="ID0.7729651997797191" fill="#282828" stroke="none" stroke-linecap="round" d="M 110.2776 78.2914 L 86.583 76.3329 L 88.0183 96.6411 L 91.4033 107.4457 L 92.3491 116.6882 L 94.4007 125.3148 L 111.347 123.0079 L 113.9986 116.3663 L 110.9403 92.1915 L 110.2776 78.2914 Z " stroke-width="0.9588636846711274"/>
      <path id="ID0.4757494777441025" fill="#282828" stroke="none" stroke-linecap="round" d="M 99.4547 62.3422 L 90.6392 60.1996 L 74.2327 65.08 L 82.6808 90.5536 L 93.3328 95.5531 L 97.9854 96.6245 L 101.2912 94.2438 L 104.2297 91.2679 L 110.1066 88.6491 L 110.2291 83.1734 L 109.4945 75.079 L 106.1887 66.7465 L 99.4547 62.3422 Z " stroke-width="0.48299249213559925"/>
    </g>
    <g id="ID0.6660797297954559">
      <path id="ID0.5368814701214433" fill="#343434" stroke="none" stroke-linecap="round" d="M 66.9028 300.4777 L 69.7862 291.6477 L 74.2751 282.4008 L 84.2512 288.2588 L 95.5173 295.8939 L 112.9793 306.2362 L 114.0578 312.7518 L 89.3604 313.9307 L 68.1154 310.2644 L 66.9028 300.4777 Z " stroke-width="0.7702165290554439"/>
      <g id="ID0.5077062323689461">
        <path id="ID0.05466862628236413" fill="#252525" stroke="none" stroke-linecap="round" d="M 68.0016 228.2262 L 89.6943 224.8459 L 87.9584 239.5291 L 87.2161 244.5423 L 87.2096 259.0268 L 89.7103 292.278 L 68.4664 295.0482 L 67.1291 276.2996 L 64.8173 269.233 L 63.6475 261.5051 L 65.2457 250.3978 L 65.1469 240.2819 L 68.0016 228.2262 Z " stroke-width="0.5998532736063101"/>
        <path id="ID0.5319394422695041" fill="none" stroke="#131313" stroke-width="2" stroke-linecap="round" d="M 89.75 291.35 L 68.5 295.35 L 67.5 283.85 "/>
      </g>
      <g id="ID0.8820344842970371">
        <path id="ID0.3809091211296618" fill="#252525" stroke="none" stroke-linecap="round" d="M 56.7785 154.5533 L 88.4936 135.0371 L 89.7562 159.2649 L 93.7446 207.7411 L 93.262 218.4936 L 89.2609 229.7764 L 81.1676 227.5924 L 68.2144 228.8829 L 67.5531 207.121 L 65.8148 193.8181 L 56.7785 154.5533 Z " stroke-width="0.7305889665074583"/>
        <path id="ID0.9495224836282432" fill="none" stroke="#131313" stroke-width="2" stroke-linecap="round" d="M 93.75 207.85 L 93.75 216.35 L 91.75 224.35 L 83.25 228.85 L 82.25 233.85 "/>
      </g>
    </g>
    <g id="ID0.18228224432095885">
      <path id="ID0.5368814701214433" fill="#404040" stroke="none" stroke-linecap="round" d="M 28.5899 301.7019 L 31.6637 292.9363 L 36.3516 283.7887 L 46.1987 289.8612 L 57.2969 297.7383 L 74.531 308.4561 L 75.4682 314.9934 L 50.7511 315.6377 L 29.5904 311.5125 L 28.5899 301.7019 Z " stroke-width="0.7702165249851639"/>
      <g id="ID0.5077062323689461">
        <path id="ID0.05466862628236413" fill="#252525" stroke="none" stroke-linecap="round" d="M 32.5416 228.8683 L 54.3698 226.516 L 51.9424 241.101 L 50.9643 246.0735 L 50.2739 260.5416 L 51.2018 293.8737 L 29.8508 295.6378 L 29.4002 276.847 L 27.4247 269.6791 L 26.621 261.9045 L 28.7419 250.8851 L 29.1209 240.7758 L 32.5416 228.8683 Z " stroke-width="0.5998532668114317"/>
        <path id="ID0.5319394422695041" fill="none" stroke="#131313" stroke-width="1.9999999924153835" stroke-linecap="round" d="M 51.2982 292.9254 L 29.8831 295.9176 L 29.4272 284.3832 "/>
      </g>
      <g id="ID0.8820344842970371">
        <path id="ID0.3809091211296618" fill="#252525" stroke="none" stroke-linecap="round" d="M 29.9568 152.1903 L 57.4669 136.7434 L 57.5842 161.0037 L 59.2793 209.6142 L 58.2895 220.3319 L 53.7602 231.4132 L 45.779 228.8495 L 32.2327 230.865 L 30.3396 207.7526 L 29.4217 194.6958 L 29.9568 152.1903 Z " stroke-width="0.7305889820079058"/>
        <path id="ID0.9495224836282432" fill="none" stroke="#131313" stroke-width="1.9999999924153835" stroke-linecap="round" d="M 59.2363 209.7074 L 58.835 218.1979 L 56.4595 226.0946 L 47.7565 230.1882 L 46.5215 235.1354 "/>
      </g>
    </g>
    <g id="ID0.8990198895335197">
      <path id="ID0.17576928716152906" fill="#DBDBDB" stroke="none" d="M 62.25 57.35 L 62 57.35 L 62 57.35 L 62.25 57.35 L 62.25 57.35 Z " stroke-width="1"/>
      <path id="ID0.4270821204409003" fill="#252525" stroke="none" stroke-linecap="round" d="M 60.0901 179.3511 L 59.8361 66.5948 L 77.1913 69.0745 L 84.005 73.5022 L 86.7772 77.6078 L 93.5615 89.1786 L 92.63 99.6366 L 91.5642 105.0913 L 93.087 112.0285 L 93.4494 117.5129 L 91.1639 124.371 L 89.4366 129.5738 L 88.0537 138.8318 L 89.0985 160.7608 L 83.7868 168.8658 L 78.8736 174.9787 L 60.0901 179.3511 Z " stroke-width="0.47614257300029306"/>
      <path id="ID0.4270821204409003" fill="#252525" stroke="none" stroke-linecap="round" d="M 60.2099 179.5011 L 60.4639 66.7448 L 43.1087 69.2245 L 36.295 73.6522 L 33.5228 77.7578 L 26.7385 89.3286 L 27.67 99.7866 L 28.7358 105.2413 L 27.213 112.1785 L 26.8506 117.6629 L 29.1361 124.521 L 30.8634 129.7238 L 32.2463 138.9818 L 31.2015 160.9108 L 36.5132 169.0158 L 41.4264 175.1287 L 60.2099 179.5011 Z " stroke-width="0.47614257300029306"/>
      <path id="ID0.5114514343440533" fill="#282828" stroke="none" d="M 33.9326 67.9277 L 86.9326 67.9277 L 86.9326 156.1777 L 33.9326 156.1777 L 33.9326 67.9277 Z " stroke-width="1.0073066040733152"/>
      <path id="ID0.9286923445761204" fill="#D4D4D4" stroke="none" stroke-linecap="round" d="M 50.0867 54.2223 L 67.3707 35.4861 L 60.2523 54.3652 L 61.5141 94.8373 L 23.5656 65.7926 L 43.7064 54.9841 L 50.0867 54.2223 Z " stroke-width="0.4761425852775574"/>
      <path id="ID0.9286923445761204" fill="#D4D4D4" stroke="none" stroke-linecap="round" d="M 66.4636 53.1153 L 52.6793 35.7361 L 59.7977 54.6152 L 61.0118 94.6111 L 96.4844 66.0426 L 76.7007 54.2342 L 66.4636 53.1153 Z " stroke-width="0.4761425852775574"/>
      <path id="ID0.39874776685610414" fill="#C3C3C3" stroke="none" stroke-linecap="round" d="M 41.7977 55.914 L 61.6674 65.7848 L 79.5354 56.8238 L 83.5386 58.9617 L 61.4721 69.5602 L 38.0386 57.87 L 41.7977 55.914 Z " stroke-width="0.943659350131214"/>
      <path id="ID0.13444371055811644" fill="#1F1F1F" stroke="none" stroke-linecap="round" d="M 59.25 67.6 L 64.5 67.35 L 67.3 95.85 L 55.25 96.35 L 59.25 67.6 Z " stroke-width="1"/>
      <path id="ID0.751046194229275" fill="#191919" stroke="none" stroke-linecap="round" d="M 56.965 62.685 L 61.64 60.65 L 66.15 62.685 L 66.59 70.66 L 62.19 71.65 L 56.965 70.66 L 56.965 62.685 Z " stroke-width="1.100000023841858"/>
      <path id="ID0.7854711129330099" fill="#282828" stroke="none" stroke-linecap="round" d="M 48 84.35 L 62 93.1 L 75.75 83.35 L 73.75 100.85 L 50.5 100.85 L 48 84.35 Z " stroke-width="1"/>
      <path id="ID0.562834897544235" fill="#282828" stroke="none" stroke-linecap="round" d="M 31.25 155.85 L 61.5 150.1 L 61.5 170.35 L 47.75 171.6 L 31.25 155.85 Z " stroke-width="1"/>
      <path id="ID0.562834897544235" fill="#282828" stroke="none" stroke-linecap="round" d="M 92.2 156.1 L 61.95 150.35 L 61.95 170.6 L 75.7 171.85 L 92.2 156.1 Z " stroke-width="1"/>
      <path id="ID0.6824178956449032" fill="none" stroke="#191919" stroke-width="2" stroke-linecap="round" d="M 61.75 93.35 L 61.5 170.1 "/>
      <path id="ID0.4144489667378366" fill="#313131" stroke="none" stroke-linecap="round" d="M 23 62.85 L 43.25 54.85 L 40.25 76.6 L 43.5 136.6 L 34 181.35 L 23 176.35 L 22.75 179.85 L 25.75 131.85 L 21 88.6 L 20 72.35 L 23 62.85 Z " stroke-width="1"/>
      <path id="ID0.5234400681219995" fill="#101010" stroke="none" d="M 63.9662 99.0625 C 64.3789 99.0625 64.7531 99.2301 65.024 99.501 C 65.2949 99.7719 65.4625 100.1461 65.4625 100.5587 C 65.4625 100.9714 65.2949 101.3456 65.024 101.6165 C 64.7531 101.8874 64.3789 102.055 63.9662 102.055 C 63.5536 102.055 63.1794 101.8874 62.9085 101.6165 C 62.6376 101.3456 62.47 100.9714 62.47 100.5587 C 62.47 100.1461 62.6376 99.7719 62.9085 99.501 C 63.1794 99.2301 63.5536 99.0625 63.9662 99.0625 Z " stroke-width="0.6299999952316284"/>
      <path id="ID0.5234400681219995" fill="#101010" stroke="none" d="M 63.9662 112.6625 C 64.3789 112.6625 64.7531 112.8301 65.024 113.101 C 65.2949 113.3719 65.4625 113.7461 65.4625 114.1587 C 65.4625 114.5714 65.2949 114.9456 65.024 115.2165 C 64.7531 115.4874 64.3789 115.655 63.9662 115.655 C 63.5536 115.655 63.1794 115.4874 62.9085 115.2165 C 62.6376 114.9456 62.47 114.5714 62.47 114.1587 C 62.47 113.7461 62.6376 113.3719 62.9085 113.101 C 63.1794 112.8301 63.5536 112.6625 63.9662 112.6625 Z " stroke-width="0.6299999952316284"/>
      <path id="ID0.5234400681219995" fill="#101010" stroke="none" d="M 63.9662 144.1625 C 64.3789 144.1625 64.7531 144.3301 65.024 144.601 C 65.2949 144.8719 65.4625 145.2461 65.4625 145.6587 C 65.4625 146.0714 65.2949 146.4456 65.024 146.7165 C 64.7531 146.9874 64.3789 147.155 63.9662 147.155 C 63.5536 147.155 63.1794 146.9874 62.9085 146.7165 C 62.6376 146.4456 62.47 146.0714 62.47 145.6587 C 62.47 145.2461 62.6376 144.8719 62.9085 144.601 C 63.1794 144.3301 63.5536 144.1625 63.9662 144.1625 Z " stroke-width="0.6299999952316284"/>
      <path id="ID0.5234400681219995" fill="#101010" stroke="none" d="M 63.9662 129.4125 C 64.3789 129.4125 64.7531 129.5801 65.024 129.851 C 65.2949 130.1219 65.4625 130.4961 65.4625 130.9087 C 65.4625 131.3214 65.2949 131.6956 65.024 131.9665 C 64.7531 132.2374 64.3789 132.405 63.9662 132.405 C 63.5536 132.405 63.1794 132.2374 62.9085 131.9665 C 62.6376 131.6956 62.47 131.3214 62.47 130.9087 C 62.47 130.4961 62.6376 130.1219 62.9085 129.851 C 63.1794 129.5801 63.5536 129.4125 63.9662 129.4125 Z " stroke-width="0.6299999952316284"/>
      <path id="ID0.5234400681219995" fill="#101010" stroke="none" d="M 63.8662 158.1625 C 64.2789 158.1625 64.6531 158.3301 64.924 158.601 C 65.1949 158.8719 65.3625 159.2461 65.3625 159.6587 C 65.3625 160.0714 65.1949 160.4456 64.924 160.7165 C 64.6531 160.9874 64.2789 161.155 63.8662 161.155 C 63.4536 161.155 63.0794 160.9874 62.8085 160.7165 C 62.5376 160.4456 62.37 160.0714 62.37 159.6587 C 62.37 159.2461 62.5376 158.8719 62.8085 158.601 C 63.0794 158.3301 63.4536 158.1625 63.8662 158.1625 Z " stroke-width="0.6299999952316284"/>
      <path id="ID0.4144489667378366" fill="#313131" stroke="none" stroke-linecap="round" d="M 96.55 62 L 76.3 54 L 79.3 75.75 L 76.05 135.75 L 85.55 180.5 L 96.55 175.5 L 96.8 179 L 93.8 131 L 98.55 87.75 L 99.55 71.5 L 96.55 62 Z " stroke-width="1"/>
      <path id="ID0.8752945330925286" fill="none" stroke="#222222" stroke-width="2" stroke-linecap="round" d="M 23.5 63.1 L 20.25 70.85 L 23.5 108.6 "/>
      <path id="ID0.8752945330925286" fill="none" stroke="#222222" stroke-width="2" stroke-linecap="round" d="M 96.75 62.6 L 100 70.35 L 96.75 108.1 "/>
      <path id="ID0.5234400681219995" fill="#101010" stroke="none" d="M 40.8662 144.8125 C 41.2789 144.8125 41.6531 144.9801 41.924 145.251 C 42.1949 145.5219 42.3625 145.8961 42.3625 146.3087 C 42.3625 146.7214 42.1949 147.0956 41.924 147.3665 C 41.6531 147.6374 41.2789 147.805 40.8662 147.805 C 40.4536 147.805 40.0794 147.6374 39.8085 147.3665 C 39.5376 147.0956 39.37 146.7214 39.37 146.3087 C 39.37 145.8961 39.5376 145.5219 39.8085 145.251 C 40.0794 144.9801 40.4536 144.8125 40.8662 144.8125 Z " stroke-width="0.6299999952316284"/>
      <path id="ID0.5234400681219995" fill="#101010" stroke="none" d="M 39.4662 152.0625 C 39.8789 152.0625 40.2531 152.2301 40.524 152.501 C 40.7949 152.7719 40.9625 153.1461 40.9625 153.5587 C 40.9625 153.9714 40.7949 154.3456 40.524 154.6165 C 40.2531 154.8874 39.8789 155.055 39.4662 155.055 C 39.0536 155.055 38.6794 154.8874 38.4085 154.6165 C 38.1376 154.3456 37.97 153.9714 37.97 153.5587 C 37.97 153.1461 38.1376 152.7719 38.4085 152.501 C 38.6794 152.2301 39.0536 152.0625 39.4662 152.0625 Z " stroke-width="0.6299999952316284"/>
      <g id="ID0.20783481979742646">
        <path id="ID0.5848579816520214" fill="#737373" stroke="none" stroke-linecap="round" d="M 85.95 90.45 L 92.8 88.95 L 92.7 92.85 L 85.45 93.35 L 85.95 90.45 Z " stroke-width="1"/>
        <path id="ID0.13105127029120922" fill="none" stroke="#222222" stroke-width="2" stroke-linecap="round" d="M 84.1 93.6 L 88.6 93.6 L 93.85 92.1 "/>
      </g>
    </g>
    <path id="ID0.46110434643924236" fill="#D8BFA7" stroke="none" stroke-linecap="round" d="M 48.4448 35.8 L 71.0595 35.8 L 71.527 54.75 L 65.3328 57.6 L 48.4448 55.9 L 48.4448 35.8 Z " stroke-width="1.0876357641452272"/>
    <path id="ID0.8999492498114705" fill="#EDD2B8" stroke="none" stroke-linecap="round" d="M 67.1733 4.0124 C 71.5775 4.4915 76.3093 7.2019 78.4416 11.0848 C 80.8745 15.5179 78.9984 21.1094 79.2265 26.112 C 79.3352 27.8521 79.5648 29.6698 79.1249 31.421 C 78.6184 34.577 77.4311 37.5866 76.4323 40.7181 C 75.7601 42.829 75.5691 45.1655 74.4001 47.0686 C 73.0843 49.3212 71.7416 52.4553 69.1419 52.911 C 65.288 53.5862 61.2115 51.7451 57.7619 49.9898 C 54.9281 48.5475 52.2746 46.3355 50.7002 43.5631 C 47.8806 38.4182 45.3196 32.7582 44.934 26.8741 C 44.5067 20.3514 43.7365 12.2853 48.4902 7.5687 C 52.7425 3.0273 60.6262 3.3032 67.1733 4.0124 Z " stroke-width="0.508037269115448"/>
    <path id="ID0.8194515448994935" fill="#EDD2B8" stroke="none" stroke-linecap="round" d="M 44.9 21.5 C 45.754 21.587 46.372 22.156 46.879 23.215 C 47.386 24.274 47.7 25.736 47.7 27.35 C 47.7 28.964 47.386 30.426 46.879 31.485 C 46.372 32.544 45.753 33.086 44.9 33.2 C 44.117 33.303 43.111 32.874 42.75 32.2 C 42.071 30.702 42.191 28.925 42.1 27.35 C 42.01 25.802 41.65 24.1 42.25 22.7 C 42.729 21.846 44.005 21.409 44.9 21.5 Z " stroke-width="1"/>
    <path id="ID0.5768358684144914" fill="#2E3234" stroke="none" d="M 43.9 18.35 L 49.9 18.35 L 49.9 20.15 L 43.9 20.15 L 43.9 18.35 Z " stroke-width="1"/>
    <path id="ID0.3245162623934448" fill="#54595E" stroke="none" stroke-linecap="round" d="M 65.4 5.1 C 68.656 5.1 71.606 7.728 73.742 11.973 C 75.878 16.218 76.635 22.939 77.2 28.55 C 77.777 34.279 79.679 40.517 77.35 45.75 C 75.555 49.782 70.609 52.853 66.1 53.1 C 61.842 53.337 56.703 50.867 54.7 47 C 51.87 41.535 53.186 34.751 53.6 28.55 C 53.976 22.924 54.922 16.218 57.058 11.973 C 59.194 7.728 62.144 5.1 65.4 5.1 Z " stroke-width="1"/>
    <path id="ID0.8999492498114705" fill="#54595E" stroke="none" stroke-linecap="round" d="M 69.0733 1.3624 C 73.324 2.6097 78.2093 4.5519 80.3416 8.4348 C 82.7745 12.8679 80.3029 18.5193 81.1265 23.462 C 81.4521 25.4144 83.9268 26.9223 83.8191 28.9996 C 83.6367 31.6724 81.5258 33.8717 80.339 36.3662 C 79.0476 39.074 77.9121 41.9348 76.3001 44.4186 C 74.8761 46.6143 73.3947 49.1164 71.0419 50.261 C 69.2303 51.1409 66.6164 51.3878 65.0471 50.1594 C 63.7994 49.183 64.9424 46.9664 64.5645 45.4093 C 64.2363 43.4879 62.9408 41.7549 62.9387 39.77 C 62.9352 34.2456 64.8002 28.8096 64.8185 23.2842 C 64.8383 17.2081 65.1731 10.9608 63.1928 5.2743 C 62.4353 3.0989 56.2194 2.5268 57.2995 1.8705 C 58.9735 0.6949 65.3072 0.2574 69.0733 1.3624 Z " stroke-width="0.508037269115448"/>
    <path id="ID0.8999492498114705" fill="#54595E" stroke="none" stroke-linecap="round" d="M 57.8418 1.7459 C 54.0595 2.8773 49.8453 4.8474 47.9605 8.3757 C 45.6647 12.6478 46.9749 18.0498 46.4618 22.8548 C 46.2723 24.6192 45.2085 26.4304 45.5981 28.113 C 46.1687 30.4413 48.2816 32.193 48.9512 34.4889 C 49.8733 37.6514 49.1183 41.2844 50.4499 44.2686 C 51.5168 46.6584 53.3553 48.9664 55.7081 50.111 C 57.5197 50.9909 60.1336 51.2378 61.7029 50.0094 C 62.9506 49.033 61.8076 46.8164 62.1855 45.2593 C 62.5137 43.3379 63.8092 41.6049 63.8113 39.62 C 63.8148 34.0956 61.9498 28.6596 61.9315 23.1342 C 61.9117 17.0581 62.0362 10.9495 63.5572 5.1243 C 63.9672 3.5585 68.6529 2.8534 67.6977 2.2539 C 65.8073 1.0783 60.9917 0.7272 57.8418 1.7459 Z " stroke-width="0.508037269115448"/>
    <path id="ID0.45774566335603595" fill="#54595E" stroke="none" stroke-linecap="round" d="M 65.825 37 C 67.929 37 69.469 38.264 71.215 39.066 C 72.807 39.798 75.812 39.936 75.8 41.75 C 75.812 44.582 73.327 47.026 71.215 49.034 C 69.822 50.358 67.929 51.1 65.825 51.1 C 63.721 51.1 61.918 50.257 60.435 49.034 C 58.383 47.343 55.755 45.352 55.8 42.75 C 55.755 40.758 58.679 40.041 60.435 39.066 C 62.115 38.132 63.721 37 65.825 37 Z " stroke-width="1"/>
    <path id="ID0.6934182443656027" fill="#54595E" stroke="none" stroke-linecap="round" d="M 51.6 31.4 L 64.85 35.5 L 78.95 31 L 75.95 37.75 L 75.45 42.25 L 55.6 42.9 L 54.45 36.75 L 51.6 31.4 Z " stroke-width="1"/>
    <path id="ID0.6236958587542176" fill="#3B4043" stroke="none" stroke-linecap="round" d="M 58.05 28.1 L 73.8 28.05 L 73.1 35.65 L 73.6 42.6 L 70.85 53.15 L 61.25 53.2 L 57.7 43.2 L 58.6 35.6 L 58.05 28.1 Z " stroke-width="1"/>
    <path id="ID0.6043254472315311" fill="#3B4043" stroke="none" stroke-linecap="round" d="M 50.75 5.45 L 55.5 2.6 L 60.25 8.2 L 66.75 9.3 L 65.5 28.6 L 62.85 31.45 L 57.5 31.1 L 53.95 29 L 52.35 25.1 L 53.85 18.6 L 50.75 5.45 Z " stroke-width="1"/>
    <path id="ID0.6043254472315311" fill="#3B4043" stroke="none" stroke-linecap="round" d="M 79.45 7.15 L 77.35 4.65 L 74.6 3.5 L 70.45 8.2 L 63.95 9.3 L 65.2 28.6 L 67.85 31.45 L 73.2 31.1 L 77.7 29.1 L 78.35 25.1 L 76.85 18.6 L 79.45 7.15 Z " stroke-width="1"/>
    <path id="ID0.9914007503539324" fill="#33383A" stroke="none" d="M 63.55 35.7 L 61.9 23.95 L 68.35 24.25 L 68.65 35.65 L 63.55 35.7 Z " stroke-width="1"/>
    <path id="ID0.28340246016159654" fill="#D8BFA7" stroke="none" stroke-linecap="round" d="M 51.6819 22.0912 L 58.5022 22.1845 L 62.9453 24.4557 L 63.8226 27.8779 L 62.4359 30.0868 L 58.9267 30.4601 L 56.1816 29.9623 L 54.0874 29.1845 L 51.9649 27.4423 L 51.0593 25.4512 L 51.6819 22.0912 Z " stroke-width="0.5947752382560764"/>
    <path id="ID0.28340246016159654" fill="#D8BFA7" stroke="none" stroke-linecap="round" d="M 80.2181 22.0912 L 73.3978 22.1845 L 68.9547 24.4557 L 68.0774 27.8779 L 69.4641 30.0868 L 72.9733 30.4601 L 75.7184 29.9623 L 77.8126 29.1845 L 79.9351 27.4423 L 80.8407 25.4512 L 80.2181 22.0912 Z " stroke-width="0.5947752382560764"/>
    <path id="ID0.17377300979569554" fill="#FFFFFF" stroke="none" stroke-linecap="round" d="M 55.5752 25.986 L 56.4822 25.1554 L 58.7694 24.9713 L 61.0218 25.5769 L 61.474 27.5276 L 58.8367 27.3957 L 55.5752 25.986 Z " stroke-width="0.9999999760882085"/>
    <path id="ID0.17377300979569554" fill="#FFFFFF" stroke="none" stroke-linecap="round" d="M 77.5248 25.986 L 76.6178 25.1554 L 74.3306 24.9713 L 72.0782 25.5769 L 71.626 27.5276 L 74.2633 27.3957 L 77.5248 25.986 Z " stroke-width="0.9999999760882085"/>
    <path id="ID0.44800941413268447" fill="none" stroke="#33383A" stroke-width="1.0503597259521484" stroke-linecap="round" d="M 64.6989 28.5198 L 63.0709 24.2133 L 58.6856 21.7712 L 52.1209 21.9025 "/>
    <path id="ID0.12448931112885475" fill="#33383A" stroke="none" stroke-linecap="round" d="M 63.75 34.05 L 68.55 34.15 L 69.5 37.3 L 66.4 38.8 L 62.9 37.25 L 63.75 34.05 Z " stroke-width="1"/>
    <path id="ID0.44800941413268447" fill="none" stroke="#33383A" stroke-width="1.050359732381415" stroke-linecap="round" d="M 63.6597 24.8596 L 64.4619 22.2918 L 63.0169 18.9273 "/>
    <path id="ID0.44800941413268447" fill="none" stroke="#33383A" stroke-width="1.050359732381415" stroke-linecap="round" d="M 68.0903 24.7596 L 67.2881 22.1918 L 68.7331 18.8273 "/>
    <g id="ID0.32985211815685034">
      <g id="ID0.08651347272098064">
        <g id="ID0.07771636918187141">
          <path id="ID0.7001032647676766" fill="none" stroke="#646B70" stroke-width="0.5238094925880432" stroke-linecap="round" d="M 57.5429 40.0929 C 57.5429 40.0929 57.4784 40.4608 57.4381 40.6429 C 57.4001 40.8141 57.2445 40.9896 57.3071 41.1536 C 57.3718 41.3233 57.5798 41.4118 57.7524 41.4679 C 57.9184 41.5215 58.1018 41.4658 58.2762 41.4679 C 58.4506 41.47 58.7157 41.6336 58.8 41.481 C 59.0022 41.1156 58.9571 40.2369 58.9571 40.2369 "/>
          <path id="ID0.7001032647676766" fill="none" stroke="#646B70" stroke-width="0.5238094925880432" stroke-linecap="round" d="M 59.0429 40.0929 C 59.0429 40.0929 58.9784 40.4608 58.9381 40.6429 C 58.9001 40.8141 58.7445 40.9896 58.8071 41.1536 C 58.8718 41.3233 59.0798 41.4118 59.2524 41.4679 C 59.4184 41.5215 59.6018 41.4658 59.7762 41.4679 C 59.9506 41.47 60.2157 41.6336 60.3 41.481 C 60.5022 41.1156 60.4571 40.2369 60.4571 40.2369 "/>
        </g>
        <g id="ID0.07771636918187141">
          <path id="ID0.7001032647676766" fill="none" stroke="#646B70" stroke-width="0.5238094925880432" stroke-linecap="round" d="M 60.6429 40.2929 C 60.6429 40.2929 60.5784 40.6608 60.5381 40.8429 C 60.5001 41.0141 60.3445 41.1896 60.4071 41.3536 C 60.4718 41.5233 60.6798 41.6118 60.8524 41.6679 C 61.0184 41.7215 61.2018 41.6658 61.3762 41.6679 C 61.5506 41.67 61.8157 41.8336 61.9 41.681 C 62.1022 41.3156 62.0571 40.4369 62.0571 40.4369 "/>
          <path id="ID0.7001032647676766" fill="none" stroke="#646B70" stroke-width="0.5238094925880432" stroke-linecap="round" d="M 62.1429 40.3429 C 62.1429 40.3429 62.0784 40.7108 62.0381 40.8929 C 62.0001 41.0641 61.8445 41.2396 61.9071 41.4036 C 61.9718 41.5733 62.1798 41.6618 62.3524 41.7179 C 62.5184 41.7715 62.7018 41.7158 62.8762 41.7179 C 63.0506 41.72 63.3157 41.8836 63.4 41.731 C 63.6022 41.3656 63.5571 40.4869 63.5571 40.4869 "/>
        </g>
        <path id="ID0.7001032647676766" fill="none" stroke="#646B70" stroke-width="0.5238095049857807" stroke-linecap="round" d="M 63.6908 40.5126 C 63.6908 40.5126 63.6653 40.8853 63.6442 41.0706 C 63.6244 41.2449 63.4881 41.4357 63.5675 41.5922 C 63.6496 41.7542 63.8657 41.8205 64.0432 41.8581 C 64.214 41.8941 64.3905 41.8194 64.5642 41.8032 C 64.7379 41.787 65.0186 41.922 65.0865 41.7613 C 65.2492 41.3768 65.1124 40.5077 65.1124 40.5077 "/>
      </g>
      <g id="ID0.08651347272098064">
        <g id="ID0.07771636918187141">
          <path id="ID0.7001032647676766" fill="none" stroke="#646B70" stroke-width="0.5238094925880432" stroke-linecap="round" d="M 72.7571 40.0929 C 72.7571 40.0929 72.8216 40.4608 72.8619 40.6429 C 72.8999 40.8141 73.0555 40.9896 72.9929 41.1536 C 72.9282 41.3233 72.7202 41.4118 72.5476 41.4679 C 72.3816 41.5215 72.1982 41.4658 72.0238 41.4679 C 71.8494 41.47 71.5843 41.6336 71.5 41.481 C 71.2978 41.1156 71.3429 40.2369 71.3429 40.2369 "/>
          <path id="ID0.7001032647676766" fill="none" stroke="#646B70" stroke-width="0.5238094925880432" stroke-linecap="round" d="M 71.2571 40.0929 C 71.2571 40.0929 71.3216 40.4608 71.3619 40.6429 C 71.3999 40.8141 71.5555 40.9896 71.4929 41.1536 C 71.4282 41.3233 71.2202 41.4118 71.0476 41.4679 C 70.8816 41.5215 70.6982 41.4658 70.5238 41.4679 C 70.3494 41.47 70.0843 41.6336 70 41.481 C 69.7978 41.1156 69.8429 40.2369 69.8429 40.2369 "/>
        </g>
        <g id="ID0.07771636918187141">
          <path id="ID0.7001032647676766" fill="none" stroke="#646B70" stroke-width="0.5238094925880432" stroke-linecap="round" d="M 69.5571 40.2929 C 69.5571 40.2929 69.6216 40.6608 69.6619 40.8429 C 69.6999 41.0141 69.8555 41.1896 69.7929 41.3536 C 69.7282 41.5233 69.5202 41.6118 69.3476 41.6679 C 69.1816 41.7215 68.9982 41.6658 68.8238 41.6679 C 68.6494 41.67 68.3843 41.8336 68.3 41.681 C 68.0978 41.3156 68.1429 40.4369 68.1429 40.4369 "/>
          <path id="ID0.7001032647676766" fill="none" stroke="#646B70" stroke-width="0.5238094925880432" stroke-linecap="round" d="M 68.0571 40.3429 C 68.0571 40.3429 68.1216 40.7108 68.1619 40.8929 C 68.1999 41.0641 68.3555 41.2396 68.2929 41.4036 C 68.2282 41.5733 68.0202 41.6618 67.8476 41.7179 C 67.6816 41.7715 67.4982 41.7158 67.3238 41.7179 C 67.1494 41.72 66.8843 41.8836 66.8 41.731 C 66.5978 41.3656 66.6429 40.4869 66.6429 40.4869 "/>
        </g>
        <path id="ID0.7001032647676766" fill="none" stroke="#646B70" stroke-width="0.5238095049857807" stroke-linecap="round" d="M 66.6092 40.5126 C 66.6092 40.5126 66.6347 40.8853 66.6558 41.0706 C 66.6756 41.2449 66.8119 41.4357 66.7325 41.5922 C 66.6504 41.7542 66.4343 41.8205 66.2568 41.8581 C 66.086 41.8941 65.9095 41.8194 65.7358 41.8032 C 65.5621 41.787 65.2814 41.922 65.2135 41.7613 C 65.0508 41.3768 65.1876 40.5077 65.1876 40.5077 "/>
      </g>
    </g>
    <path id="ID0.7001032647676766" fill="none" stroke="#646B70" stroke-width="0.523809552192688" stroke-linecap="round" d="M 57.7929 43.1571 C 57.7929 43.1571 57.7284 42.7892 57.6881 42.6071 C 57.6501 42.4359 57.4946 42.2604 57.5571 42.0964 C 57.6218 41.9267 57.8298 41.8382 58.0024 41.7821 C 58.1684 41.7285 58.3518 41.7842 58.5262 41.7821 C 58.7006 41.78 58.9657 41.6164 59.05 41.769 C 59.2522 42.1344 59.2071 43.0131 59.2071 43.0131 "/>
    <path id="ID0.7001032647676766" fill="none" stroke="#646B70" stroke-width="0.523809552192688" stroke-linecap="round" d="M 59.2929 43.1571 C 59.2929 43.1571 59.2284 42.7892 59.1881 42.6071 C 59.1501 42.4359 58.9946 42.2604 59.0571 42.0964 C 59.1218 41.9267 59.3298 41.8382 59.5024 41.7821 C 59.6684 41.7285 59.8518 41.7842 60.0262 41.7821 C 60.2006 41.78 60.4657 41.6164 60.55 41.769 C 60.7522 42.1344 60.7071 43.0131 60.7071 43.0131 "/>
    <g id="ID0.07771636918187141">
      <path id="ID0.7001032647676766" fill="none" stroke="#646B70" stroke-width="0.523809552192688" stroke-linecap="round" d="M 60.3929 43.3071 C 60.3929 43.3071 60.3284 42.9392 60.2881 42.7571 C 60.2501 42.5859 60.0946 42.4104 60.1571 42.2464 C 60.2218 42.0767 60.4298 41.9882 60.6024 41.9321 C 60.7684 41.8785 60.9518 41.9342 61.1262 41.9321 C 61.3006 41.93 61.5657 41.7664 61.65 41.919 C 61.8522 42.2844 61.8071 43.1631 61.8071 43.1631 "/>
      <path id="ID0.7001032647676766" fill="none" stroke="#646B70" stroke-width="0.523809552192688" stroke-linecap="round" d="M 61.8929 43.1571 C 61.8929 43.1571 61.8284 42.7892 61.7881 42.6071 C 61.7501 42.4359 61.5946 42.2604 61.6571 42.0964 C 61.7218 41.9267 61.9298 41.8382 62.1024 41.7821 C 62.2684 41.7285 62.4518 41.7842 62.6262 41.7821 C 62.8006 41.78 63.0657 41.6164 63.15 41.769 C 63.3522 42.1344 63.3071 43.0131 63.3071 43.0131 "/>
    </g>
    <path id="ID0.7001032647676766" fill="none" stroke="#646B70" stroke-width="0.5238095646525897" stroke-linecap="round" d="M 63.8408 43.2873 C 63.8408 43.2873 63.8153 42.9146 63.7942 42.7294 C 63.7744 42.5551 63.6381 42.3643 63.7175 42.2078 C 63.7996 42.0458 64.0157 41.9795 64.1932 41.9419 C 64.364 41.9059 64.5405 41.9806 64.7142 41.9968 C 64.8879 42.013 65.1686 41.878 65.2365 42.0387 C 65.3993 42.4232 65.2624 43.2923 65.2624 43.2923 "/>
    <path id="ID0.7001032647676766" fill="none" stroke="#646B70" stroke-width="0.523809552192688" stroke-linecap="round" d="M 73.5571 42.9571 C 73.5571 42.9571 73.6216 42.5892 73.6619 42.4071 C 73.6999 42.2359 73.8554 42.0604 73.7929 41.8964 C 73.7282 41.7267 73.5202 41.6382 73.3476 41.5821 C 73.1816 41.5285 72.9982 41.5842 72.8238 41.5821 C 72.6494 41.58 72.3843 41.4164 72.3 41.569 C 72.0978 41.9344 72.1429 42.8131 72.1429 42.8131 "/>
    <path id="ID0.7001032647676766" fill="none" stroke="#646B70" stroke-width="0.523809552192688" stroke-linecap="round" d="M 72.0571 42.9571 C 72.0571 42.9571 72.1216 42.5892 72.1619 42.4071 C 72.1999 42.2359 72.3554 42.0604 72.2929 41.8964 C 72.2282 41.7267 72.0202 41.6382 71.8476 41.5821 C 71.6816 41.5285 71.4982 41.5842 71.3238 41.5821 C 71.1494 41.58 70.8843 41.4164 70.8 41.569 C 70.5978 41.9344 70.6429 42.8131 70.6429 42.8131 "/>
    <path id="ID0.7001032647676766" fill="none" stroke="#646B70" stroke-width="0.523809552192688" stroke-linecap="round" d="M 70.2571 43.0571 C 70.2571 43.0571 70.3216 42.6892 70.3619 42.5071 C 70.3999 42.3359 70.5554 42.1604 70.4929 41.9964 C 70.4282 41.8267 70.2202 41.7382 70.0476 41.6821 C 69.8816 41.6285 69.6982 41.6842 69.5238 41.6821 C 69.3494 41.68 69.0843 41.5164 69 41.669 C 68.7978 42.0344 68.8429 42.9131 68.8429 42.9131 "/>
    <path id="ID0.7001032647676766" fill="none" stroke="#646B70" stroke-width="0.523809552192688" stroke-linecap="round" d="M 68.7571 43.2071 C 68.7571 43.2071 68.8216 42.8392 68.8619 42.6571 C 68.8999 42.4859 69.0554 42.3104 68.9929 42.1464 C 68.9282 41.9767 68.7202 41.8882 68.5476 41.8321 C 68.3816 41.7785 68.1982 41.8342 68.0238 41.8321 C 67.8494 41.83 67.5843 41.6664 67.5 41.819 C 67.2978 42.1844 67.3429 43.0631 67.3429 43.0631 "/>
    <path id="ID0.7001032647676766" fill="none" stroke="#646B70" stroke-width="0.5238095646525897" stroke-linecap="round" d="M 67.1092 43.3373 C 67.1092 43.3373 67.1347 42.9646 67.1558 42.7794 C 67.1756 42.6051 67.3119 42.4143 67.2325 42.2578 C 67.1504 42.0958 66.9343 42.0295 66.7568 41.9919 C 66.586 41.9559 66.4095 42.0306 66.2358 42.0468 C 66.0621 42.063 65.7814 41.928 65.7135 42.0887 C 65.5507 42.4732 65.6876 43.3423 65.6876 43.3423 "/>
    <path id="ID0.44800941413268447" fill="none" stroke="#2E3234" stroke-width="0.6130029273409839" stroke-linecap="round" d="M 68.602 34.5485 L 66.7944 33.247 L 63.4887 34.291 "/>
    <path id="ID0.44800941413268447" fill="none" stroke="#33383A" stroke-width="1.0503597259521484" stroke-linecap="round" d="M 67.1511 28.5198 L 68.7791 24.2133 L 73.1644 21.7712 L 79.7291 21.9025 "/>
    <g id="ID0.6897007944062352">
      <path id="ID0.2692581438459456" fill="#7AABFF" stroke="none" d="M 75.5257 25.0857 C 75.207 24.9948 74.882 25.0424 74.6137 25.1917 C 74.3453 25.341 74.1335 25.592 74.0427 25.9107 C 73.9518 26.2294 73.9994 26.5543 74.1486 26.8227 C 74.2979 27.0911 74.5489 27.3028 74.8676 27.3937 C 75.1864 27.4846 75.5113 27.437 75.7796 27.2877 C 76.048 27.1384 76.2598 26.8875 76.3507 26.5687 C 76.4415 26.25 76.394 25.9251 76.2447 25.6567 C 76.0954 25.3884 75.8444 25.1766 75.5257 25.0857 Z " stroke-width="1.1428571810382073"/>
      <path id="ID0.8070062398910522" fill="#192334" stroke="none" d="M 75.3326 25.753 C 75.2001 25.7152 75.0641 25.7342 74.9526 25.7971 C 74.8403 25.8587 74.7524 25.9642 74.7147 26.0967 C 74.6769 26.2292 74.6959 26.3652 74.7588 26.4767 C 74.8204 26.589 74.9259 26.6769 75.0584 26.7146 C 75.1909 26.7524 75.3269 26.7334 75.4384 26.6705 C 75.5507 26.6089 75.6385 26.5034 75.6763 26.3709 C 75.7141 26.2384 75.6951 26.1024 75.6322 25.9909 C 75.5706 25.8786 75.4651 25.7907 75.3326 25.753 Z " stroke-width="1.111111214644622"/>
    </g>
    <g id="ID0.5823970721103251">
      <path id="ID0.2692581438459456" fill="#7AABFF" stroke="none" d="M 59.2243 25.2857 C 59.543 25.1948 59.868 25.2424 60.1363 25.3917 C 60.4047 25.541 60.6165 25.792 60.7073 26.1107 C 60.7982 26.4294 60.7506 26.7543 60.6014 27.0227 C 60.4521 27.2911 60.2011 27.5028 59.8824 27.5937 C 59.5636 27.6846 59.2387 27.637 58.9704 27.4877 C 58.702 27.3384 58.4902 27.0875 58.3993 26.7687 C 58.3085 26.45 58.356 26.1251 58.5053 25.8567 C 58.6546 25.5884 58.9056 25.3766 59.2243 25.2857 Z " stroke-width="1.1428571810382073"/>
      <path id="ID0.8070062398910522" fill="#192334" stroke="none" d="M 59.5174 25.853 C 59.6499 25.8152 59.7859 25.8342 59.8974 25.8971 C 60.0097 25.9587 60.0976 26.0642 60.1353 26.1967 C 60.1731 26.3292 60.1541 26.4652 60.0912 26.5767 C 60.0296 26.689 59.9241 26.7769 59.7916 26.8146 C 59.6591 26.8524 59.5231 26.8334 59.4116 26.7705 C 59.2993 26.7089 59.2115 26.6034 59.1737 26.4709 C 59.1359 26.3384 59.1549 26.2024 59.2178 26.0909 C 59.2794 25.9786 59.3849 25.8907 59.5174 25.853 Z " stroke-width="1.111111214644622"/>
    </g>
    <path id="ID0.023752907756716013" fill="none" stroke="#584E44" stroke-width="1.1814345600728136" stroke-linecap="round" d="M 55.353 23.9363 L 58.6503 24.1151 L 61.0252 25.1065 "/>
    <path id="ID0.023752907756716013" fill="none" stroke="#584E44" stroke-width="1.1814345600728136" stroke-linecap="round" d="M 77.497 23.9363 L 74.1997 24.1151 L 71.8248 25.1065 "/>
  </g>
</svg>