<svg xmlns="http://www.w3.org/2000/svg" xmlns:xlink="http://www.w3.org/1999/xlink" version="1.1" width="219.24319726228714" height="13.005997478961945" viewBox="0.12430137395858765 -0.22159862518310547 219.24319726228714 13.005997478961945">
  <!-- Exported by Scratch - http://scratch.mit.edu/ -->
  <g id="ID0.46793853398412466">
    <g id="ID0.956668405327946">
      <path id="ID0.6552250953391194" fill="#FFFFFF" d="M 3.3944 2.3796 L 3.3944 10.1088 L 11.0493 10.1088 L 11.0493 7.5077 L 13.8735 8.1022 L 13.8735 9.5143 C 13.8735 10.1088 13.7991 10.5548 13.7248 10.9264 C 13.6505 11.298 13.4276 11.5952 13.2046 11.8182 C 12.9816 12.0412 12.6844 12.1898 12.2384 12.2641 C 11.8668 12.3384 11.3466 12.4128 10.8264 12.4128 L 3.543 12.4128 C 2.9485 12.4128 2.5026 12.3384 2.131 12.2641 C 1.7594 12.1898 1.4621 12.0412 1.1648 11.8182 C 0.9418 11.5952 0.7932 11.298 0.6446 10.9264 C 0.5702 10.5548 0.4959 10.1088 0.4959 9.5143 L 0.4959 3.0485 C 0.4959 2.4539 0.5702 2.008 0.6446 1.6364 C 0.7189 1.2648 0.9418 0.9675 1.1648 0.7446 C 1.3878 0.5216 1.685 0.373 2.131 0.2986 C 2.5026 0.2243 3.0228 0.15 3.543 0.15 L 10.8264 0.15 C 11.4209 0.15 11.8668 0.2243 12.2384 0.2986 C 12.61 0.373 12.9073 0.5216 13.2046 0.7446 C 13.4276 0.9675 13.5762 1.2648 13.7248 1.6364 C 13.7991 2.008 13.8735 2.4539 13.8735 3.0485 L 13.8735 4.2376 L 11.0493 4.6835 L 11.0493 2.3796 L 3.3944 2.3796 Z " stroke-width="0.7431972622871399"/>
      <path id="ID0.04840108845382929" fill="#FFFFFF" d="M 19.7447 0.2243 L 22.5689 0.2243 L 22.5689 10.1088 L 31.7102 10.1088 L 31.7102 12.4128 L 19.7447 12.4128 L 19.7447 0.2243 Z " stroke-width="0.7431972622871399"/>
      <path id="ID0.8647976238280535" fill="#FFFFFF" d="M 35.8721 0.2243 L 38.6963 0.2243 L 38.6963 12.4128 L 35.8721 12.4128 L 35.8721 0.2243 Z " stroke-width="0.7431972622871399"/>
      <path id="ID0.4986129426397383" fill="#FFFFFF" d="M 47.5403 2.3796 L 47.5403 10.1088 L 55.1952 10.1088 L 55.1952 7.5077 L 58.0194 8.1022 L 58.0194 9.5143 C 58.0194 10.1088 57.9451 10.5548 57.8707 10.9264 C 57.7964 11.298 57.5735 11.5952 57.3505 11.8182 C 57.1275 12.0412 56.8303 12.1898 56.3844 12.2641 C 56.0128 12.3384 55.4925 12.4128 54.9723 12.4128 L 47.6889 12.4128 C 47.0944 12.4128 46.6485 12.3384 46.2769 12.2641 C 45.9053 12.1898 45.608 12.0412 45.3107 11.8182 C 45.0878 11.5952 44.9391 11.298 44.7905 10.9264 C 44.7162 10.5548 44.6418 10.1088 44.6418 9.5143 L 44.6418 3.0485 C 44.6418 2.4539 44.7162 2.008 44.7905 1.6364 C 44.8648 1.2648 45.0878 0.9675 45.3107 0.7446 C 45.5337 0.5216 45.831 0.373 46.2769 0.2986 C 46.6485 0.2243 47.1687 0.15 47.6889 0.15 L 54.9723 0.15 C 55.5668 0.15 56.0128 0.2243 56.3844 0.2986 C 56.756 0.373 57.0532 0.5216 57.3505 0.7446 C 57.5735 0.9675 57.7221 1.2648 57.8707 1.6364 C 57.9451 2.008 58.0194 2.4539 58.0194 3.0485 L 58.0194 4.2376 L 55.1952 4.6835 L 55.1952 2.3796 L 47.5403 2.3796 Z " stroke-width="0.7431972622871399"/>
      <path id="ID0.7668998441658914" fill="#FFFFFF" d="M 63.8906 0.2243 L 66.7148 0.2243 L 66.7148 5.2781 L 73.4779 0.2243 L 77.5655 0.2243 L 69.4646 5.9469 L 78.5316 12.4128 L 73.9981 12.4128 L 66.7148 7.0617 L 66.7148 12.4128 L 63.8906 12.4128 L 63.8906 0.2243 Z " stroke-width="0.7431972622871399"/>
      <path id="ID0.5494179520756006" fill="#FFFFFF" d="M 97.4832 12.4128 L 94.659 12.4128 L 94.659 2.3796 L 89.085 2.3796 L 89.085 0.2243 L 103.1315 0.2243 L 103.1315 2.3796 L 97.4832 2.3796 L 97.4832 12.4128 Z " stroke-width="0.7431972622871399"/>
      <path id="ID0.04828363889828324" fill="#FFFFFF" d="M 106.4758 1.6364 C 106.5502 1.2648 106.7731 0.9675 106.9961 0.7446 C 107.219 0.5216 107.5163 0.373 107.9622 0.2986 C 108.3338 0.2243 108.8541 0.15 109.3743 0.15 L 118.367 0.15 C 118.9616 0.15 119.4075 0.2243 119.7791 0.2986 C 120.1507 0.373 120.448 0.5216 120.7452 0.7446 C 120.9682 0.9675 121.1168 1.2648 121.2655 1.6364 C 121.3398 2.008 121.4141 2.4539 121.4141 3.0485 L 121.4141 9.5143 C 121.4141 10.1088 121.3398 10.5548 121.2655 10.9264 C 121.1912 11.298 120.9682 11.5952 120.7452 11.8182 C 120.5223 12.0412 120.225 12.1898 119.7791 12.2641 C 119.3332 12.3384 118.8872 12.4128 118.367 12.4128 L 109.3743 12.4128 C 108.7798 12.4128 108.3338 12.3384 107.9622 12.2641 C 107.5906 12.1898 107.2934 12.0412 106.9961 11.8182 C 106.6988 11.5952 106.6245 11.298 106.4758 10.9264 C 106.3272 10.5548 106.3272 10.1088 106.3272 9.5143 L 106.3272 3.0485 C 106.3272 2.5282 106.4015 2.008 106.4758 1.6364 Z M 118.59 10.1088 L 118.59 2.3796 L 109.2257 2.3796 L 109.2257 10.1088 L 118.59 10.1088 Z " stroke-width="0.7431972622871399"/>
      <path id="ID0.7627872247248888" fill="#FFFFFF" d="M 139.1022 2.3053 L 139.1022 4.9065 L 146.6828 4.9065 C 147.2774 4.9065 147.7233 4.9808 148.0949 5.0551 C 148.4665 5.1294 148.8381 5.2781 149.0611 5.501 C 149.284 5.724 149.4326 6.0213 149.5813 6.3929 C 149.6556 6.7645 149.7299 7.2104 149.7299 7.8049 L 149.7299 9.5143 C 149.7299 10.1088 149.6556 10.5548 149.5813 10.9264 C 149.507 11.298 149.284 11.5952 149.0611 11.8182 C 148.8381 12.0412 148.5408 12.1898 148.0949 12.2641 C 147.649 12.3384 147.2031 12.4128 146.6828 12.4128 L 139.1022 12.4128 C 138.5076 12.4128 138.0617 12.3384 137.6901 12.2641 C 137.3185 12.1898 136.9469 12.0412 136.724 11.8182 C 136.501 11.5952 136.3524 11.298 136.2037 10.9264 C 136.1294 10.5548 136.0551 10.1088 136.0551 9.5143 L 136.0551 9.217 L 138.582 8.6968 L 138.582 10.1088 L 147.2031 10.1088 L 147.2031 7.2847 L 139.6224 7.2847 C 139.0279 7.2847 138.582 7.2104 138.2104 7.1361 C 137.8388 7.0617 137.5415 6.9131 137.2442 6.6901 C 137.0213 6.4672 136.8726 6.1699 136.724 5.7983 C 136.6497 5.4267 136.5753 4.9808 136.5753 4.3862 L 136.5753 3.0485 C 136.5753 2.4539 136.6497 2.008 136.724 1.6364 C 136.7983 1.2648 137.0213 0.9675 137.2442 0.7446 C 137.4672 0.5216 137.7645 0.373 138.2104 0.2986 C 138.582 0.2243 139.1022 0.15 139.6224 0.15 L 146.5342 0.15 C 147.0544 0.15 147.5003 0.2243 147.9463 0.2986 C 148.3179 0.373 148.6151 0.5216 148.9124 0.7446 C 149.1354 0.9675 149.3583 1.1905 149.4326 1.5621 C 149.507 1.9337 149.5813 2.3053 149.5813 2.8998 L 149.5813 3.1971 L 147.0544 3.7917 L 147.0544 2.3796 L 139.1022 2.3796 Z " stroke-width="0.7431972622871399"/>
      <path id="ID0.8259180905297399" fill="#FFFFFF" d="M 161.3238 12.4128 L 158.4997 12.4128 L 158.4997 2.3796 L 152.9257 2.3796 L 152.9257 0.2243 L 166.9721 0.2243 L 166.9721 2.3796 L 161.3238 2.3796 L 161.3238 12.4128 Z " stroke-width="0.7431972622871399"/>
      <path id="ID0.31104984786361456" fill="#FFFFFF" d="M 174.9986 0.2243 L 177.7485 0.2243 L 184.7345 12.4128 L 181.5388 12.4128 L 180.0524 9.7372 L 172.3231 9.7372 L 170.9111 12.4128 L 168.0869 12.4128 L 174.9986 0.2243 Z M 178.9376 7.5077 L 176.3364 2.5282 L 173.5866 7.5077 L 178.9376 7.5077 Z " stroke-width="0.7431972622871399"/>
      <path id="ID0.1733597652055323" fill="#FFFFFF" d="M 188.6735 0.2243 L 199.1525 0.2243 C 200.1187 0.2243 200.7876 0.373 201.2335 0.7446 C 201.6794 1.1162 201.9024 1.7107 201.9024 2.6026 L 201.9024 5.501 C 201.9024 6.3185 201.6794 6.9874 201.2335 7.2847 C 200.7876 7.6563 200.1187 7.8049 199.1525 7.8049 L 197.5175 7.8049 L 203.1658 12.4128 L 199.0782 12.4128 L 194.1731 7.8049 L 191.4976 7.8049 L 191.4976 12.4128 L 188.6735 12.4128 L 188.6735 0.2243 Z M 191.4976 2.3053 L 191.4976 5.724 L 197.8891 5.724 C 198.335 5.724 198.6323 5.6497 198.8553 5.5753 C 199.0782 5.501 199.1525 5.2037 199.1525 4.7578 L 199.1525 3.2714 C 199.1525 2.8255 199.0782 2.6026 198.8553 2.4539 C 198.6323 2.3053 198.335 2.3053 197.8891 2.3053 L 191.4976 2.3053 Z " stroke-width="0.7431972622871399"/>
      <path id="ID0.6657626158557832" fill="#FFFFFF" d="M 213.3476 12.4128 L 210.5235 12.4128 L 210.5235 2.3796 L 204.9495 2.3796 L 204.9495 0.2243 L 218.9959 0.2243 L 218.9959 2.3796 L 213.3476 2.3796 L 213.3476 12.4128 Z " stroke-width="0.7431972622871399"/>
    </g>
  </g>
</svg>