<svg xmlns="http://www.w3.org/2000/svg" xmlns:xlink="http://www.w3.org/1999/xlink" version="1.1" width="287.59635175714175" height="310.34244550714175" viewBox="-0.12119061474640591 1.18721049304168 287.59635175714175 310.34244550714175">
  <!-- Exported by Scratch - http://scratch.mit.edu/ -->
  <g id="ID0.8704665210098028">
    <g id="ID0.7085462282411754">
      <g id="ID0.5880346246995032">
        <path id="ID0.6829322893172503" fill="#796B5E" stroke="none" stroke-linecap="round" d="M 130.1319 168.4698 L 142.2724 168.6723 L 142.6208 175.4448 L 143.528 182.996 L 140.7472 188.3874 L 137.8949 192.521 L 134.5115 194.4257 L 129.9086 200.0913 L 125.6525 197.6366 L 125.5094 195.1209 L 124.0938 194.1415 L 122.355 190.0646 L 120.6255 185.5043 L 120.9168 180.2846 L 125.1502 173.9388 L 130.1319 168.4698 Z " stroke-width="0.860103544862228"/>
        <g id="ID0.9434720128774643">
          <path id="ID0.6507829907350242" fill="#2C3134" stroke="none" stroke-linecap="round" d="M 156.4109 104.5467 L 169.0563 123.3214 L 159.5634 138.654 L 152.3834 150.061 L 144.5376 165.2725 L 143.2999 172.979 L 128.416 168.2267 L 132.7506 161.5916 L 135.8134 151.464 L 139.2204 138.3414 L 144.9382 125.3937 L 156.4109 104.5467 Z " stroke-width="0.860103544862228"/>
          <path id="ID0.9892375003546476" fill="none" stroke="#191919" stroke-width="2.106910174198116" stroke-linecap="round" d="M 129.255 167.5927 L 143.1176 171.5038 L 144.934 162.2806 "/>
        </g>
      </g>
      <path id="ID0.7729651997797191" fill="#2C3134" stroke="none" stroke-linecap="round" d="M 171.1756 75.3075 L 194.9132 82.6749 L 185.4322 102.095 L 177.8482 111.3987 L 173.2499 120.1221 L 167.8254 127.8059 L 152.3254 118.8885 L 152.4022 111.3131 L 164.996 88.7251 L 171.1756 75.3075 Z " stroke-width="1.0101170654897502"/>
      <path id="ID0.4757494777441025" fill="#2C3134" stroke="none" stroke-linecap="round" d="M 187.9395 63.8165 L 197.3342 65.1661 L 211.286 76.4041 L 192.9526 98.1559 L 180.6404 98.8969 L 175.7057 98.1261 L 173.4512 94.4867 L 171.7897 90.4058 L 167.1389 85.5237 L 169.2016 80.0877 L 173.138 72.411 L 179.6604 65.5087 L 187.9395 63.8165 Z " stroke-width="0.5087011852918293"/>
    </g>
    <g id="ID0.6688785348087549">
      <path id="ID0.5368814701214433" fill="#343434" stroke="none" stroke-linecap="round" d="M 129.1344 190.1565 L 130.4465 180.0247 L 130.3613 168.7197 L 117.6848 169.8196 L 102.8871 172.0743 L 80.6565 174.0875 L 76.5046 180.0476 L 100.4722 192.8966 L 123.3027 199.3015 L 129.1344 190.1565 Z " stroke-width="0.8471283342911995"/>
      <g id="ID0.5077062323689461">
        <path id="ID0.05466862628236413" fill="#252525" stroke="none" stroke-linecap="round" d="M 162.2265 117.796 L 142.2834 104.1818 L 137.0643 119.5835 L 135.4309 124.9127 L 128.5882 139.2992 L 110.3822 171.136 L 130.168 183.9321 L 140.3613 165.9467 L 145.9984 160.0224 L 150.8142 152.9016 L 154.4792 141.1161 L 159.3606 131.1175 L 162.2265 117.796 Z " stroke-width="0.6597530586189023"/>
        <path id="ID0.5319394422695041" fill="none" stroke="#131313" stroke-width="2.1997146171461615" stroke-linecap="round" d="M 110.9834 170.431 L 130.1938 184.4512 L 136.6246 173.5043 "/>
      </g>
    </g>
    <g id="ID0.8820344842970371">
      <path id="ID0.3809091211296618" fill="#252525" stroke="none" stroke-linecap="round" d="M 187.4354 186.7958 L 227.0918 176.5549 L 208.8589 157.0727 L 173.4927 116.9334 L 164.6051 109.1135 L 152.6133 103.6767 L 148.1699 111.7552 L 137.2663 121.0338 L 154.0043 138.1585 L 163.2184 149.6837 L 187.4354 186.7958 Z " stroke-width="0.8035436656303547"/>
      <path id="ID0.9495224836282432" fill="none" stroke="#131313" stroke-width="2.1997147267116404" stroke-linecap="round" d="M 173.3125 116.8414 L 166.5777 110.3573 L 158.7135 105.8393 L 148.664 109.1413 L 143.9395 106.1194 "/>
    </g>
    <g id="ID0.7085462282411754">
      <g id="ID0.5880346246995032">
        <path id="ID0.6829322893172503" fill="#796B5E" stroke="none" stroke-linecap="round" d="M 281.4109 187.4286 L 269.8402 183.7474 L 267.3494 190.0549 L 264.0806 196.9221 L 264.9961 202.9189 L 266.3806 207.7464 L 268.9796 210.631 L 271.5345 217.469 L 276.3514 216.5003 L 277.2895 214.1618 L 278.9436 213.6851 L 281.8921 210.376 L 284.9861 206.6057 L 286.3753 201.5658 L 284.3875 194.201 L 281.4109 187.4286 Z " stroke-width="0.860103543738539"/>
        <g id="ID0.9434720128774643">
          <path id="ID0.6507829907350242" fill="#2C3134" stroke="none" stroke-linecap="round" d="M 276.8437 118.4239 L 258.8696 132.1834 L 262.975 149.7432 L 266.1407 162.8448 L 268.7238 179.7644 L 267.4383 187.4631 L 283.0605 187.7074 L 281.0691 180.0362 L 281.3974 169.4607 L 282.3548 155.9369 L 281.0663 141.8416 L 276.8437 118.4239 Z " stroke-width="0.860103543738539"/>
          <path id="ID0.9892375003546476" fill="none" stroke="#191919" stroke-width="2.106910173892899" stroke-linecap="round" d="M 282.3832 186.9734 L 267.9973 186.2577 L 269.2182 176.937 "/>
        </g>
      </g>
      <path id="ID0.7729651997797191" fill="#2C3134" stroke="none" stroke-linecap="round" d="M 272.2088 85.9801 L 247.3612 85.3897 L 250.1514 106.8196 L 254.3709 118.0567 L 255.9461 127.7913 L 258.6358 136.804 L 276.1707 133.2974 L 278.5147 126.0933 L 273.7849 100.668 L 272.2088 85.9801 Z " stroke-width="1.0101169804377628"/>
      <path id="ID0.4757494777441025" fill="#2C3134" stroke="none" stroke-linecap="round" d="M 260.0105 69.719 L 250.6761 68.001 L 233.8681 74.2008 L 244.3043 100.6648 L 255.7368 105.295 L 260.6595 106.1386 L 263.9572 103.4087 L 266.8338 100.0711 L 272.7992 96.9278 L 272.5784 91.1178 L 271.2967 82.5865 L 267.3171 73.964 L 260.0105 69.719 Z " stroke-width="0.508701167313651"/>
    </g>
    <g id="ID0.8990198895335197">
      <path id="ID0.17576928716152906" fill="#DBDBDB" stroke="none" d="M 220.973 61.517 L 221.2338 61.5334 L 221.2338 61.5334 L 220.973 61.517 L 220.973 61.517 Z " stroke-width="1.0534572489367935"/>
      <path id="ID0.4270821204409003" fill="#252525" stroke="none" stroke-linecap="round" d="M 214.9153 190.9953 L 222.6676 71.5475 L 204.3974 73.04 L 196.9952 77.2856 L 193.8305 81.4542 L 185.9845 93.2698 L 186.2619 104.4109 L 187.0115 110.2598 L 184.9622 117.5101 L 184.22 123.297 L 186.149 130.7126 L 187.6054 136.3379 L 188.4333 146.2371 L 185.8872 169.4024 L 190.8905 178.3368 L 195.6102 185.1347 L 214.9153 190.9953 Z " stroke-width="0.501595785399862"/>
      <path id="ID0.4270821204409003" fill="#252525" stroke="none" stroke-linecap="round" d="M 214.9446 191.0375 L 222.1667 71.5565 L 240.1077 75.3184 L 246.9219 80.455 L 249.5413 84.9862 L 255.8507 97.6889 L 254.1844 108.7082 L 252.7104 114.4177 L 253.8384 121.8672 L 253.8522 127.7015 L 251.0125 134.8181 L 248.8651 140.2176 L 246.8077 149.936 L 246.4415 173.2379 L 240.3619 181.4777 L 243.3692 199.0518 L 214.9446 191.0375 Z " stroke-width="0.5015958026200296"/>
      <path id="ID0.5114514343440533" fill="#282828" stroke="none" d="M 249.5709 74.5332 L 194.2795 71.0679 L 188.4195 164.5681 L 243.7109 168.0334 L 249.5709 74.5332 Z " stroke-width="1.0624883561200273"/>
      <path id="ID0.9286923445761204" fill="#D4D4D4" stroke="none" stroke-linecap="round" d="M 233.7187 58.9846 L 216.9316 38.0036 L 223.1041 58.4713 L 219.1004 101.2686 L 260.6182 72.9772 L 240.3243 60.2089 L 233.7187 58.9846 Z " stroke-width="0.5015958626722967"/>
      <path id="ID0.9286923445761204" fill="#D4D4D4" stroke="none" stroke-linecap="round" d="M 216.8181 56.7686 L 232.3524 39.2567 L 223.6727 58.7935 L 219.7503 101.0895 L 184.641 68.5021 L 206.0642 57.2847 L 216.8181 56.7686 Z " stroke-width="0.5015958626722967"/>
      <path id="ID0.39874776685610414" fill="#1F2022" stroke="none" stroke-linecap="round" d="M 242.2854 61.2244 L 220.9013 70.3833 L 202.8558 59.7209 L 198.5376 61.7243 L 220.8543 74.3961 L 246.0772 63.5425 L 242.2854 61.2244 Z " stroke-width="0.9935621547785666"/>
      <path id="ID0.13444371055811644" fill="#1F1F1F" stroke="none" stroke-linecap="round" d="M 223.1845 72.5061 L 217.7241 71.898 L 212.9106 101.9104 L 225.4484 103.2281 L 223.1845 72.5061 Z " stroke-width="1.0534572489367935"/>
      <path id="ID0.751046194229275" fill="#191919" stroke="none" stroke-linecap="round" d="M 225.9643 67.4048 L 221.2224 64.943 L 216.3822 66.8042 L 215.3937 75.2249 L 219.9182 76.5615 L 225.4348 75.8542 L 225.9643 67.4048 Z " stroke-width="1.1588030157999438"/>
      <path id="ID0.7854711129330099" fill="#282828" stroke="none" stroke-linecap="round" d="M 233.8583 90.9489 L 218.672 99.3041 L 204.9749 88.0751 L 205.8994 106.7469 L 230.1545 108.2671 L 233.8583 90.9489 Z " stroke-width="1.0534572489367935"/>
      <path id="ID0.562834897544235" fill="#282828" stroke="none" stroke-linecap="round" d="M 246.5847 167.7978 L 215.4087 159.7279 L 214.064 181.1826 L 228.3255 183.406 L 246.5847 167.7978 Z " stroke-width="1.0534572489367935"/>
      <path id="ID0.562834897544235" fill="#282828" stroke="none" stroke-linecap="round" d="M 183.1754 164.2029 L 215.1151 160.0886 L 213.7704 181.5434 L 199.343 181.9687 L 183.1754 164.2029 Z " stroke-width="1.0534572489367935"/>
      <path id="ID0.6824178956449032" fill="none" stroke="#191919" stroke-width="2.106914497873587" stroke-linecap="round" d="M 218.927 99.6517 L 214.0914 180.9841 "/>
      <path id="ID0.4144489667378366" fill="#40474C" stroke="none" stroke-linecap="round" d="M 261.3667 69.8044 L 240.7725 60.0045 L 242.4579 83.2446 L 235.0833 146.6016 L 242.0225 194.635 L 253.8301 190.0568 L 253.8585 193.7813 L 253.9161 142.7296 L 261.7434 97.2171 L 263.8656 80.0658 L 261.3667 69.8044 Z " stroke-width="1.0534572489367935"/>
      <path id="ID0.5234400681219995" fill="#101010" stroke="none" d="M 216.2278 105.3767 C 215.7973 105.3497 215.3958 105.5028 215.0952 105.7721 C 214.7946 106.0414 214.5949 106.4269 214.5675 106.8641 C 214.5401 107.3013 214.6901 107.7087 214.9547 108.0135 C 215.2194 108.3182 215.5986 108.5202 216.0291 108.5472 C 216.4596 108.5742 216.8611 108.4211 217.1617 108.1518 C 217.4623 107.8825 217.662 107.4969 217.6894 107.0598 C 217.7168 106.6226 217.5668 106.2151 217.3022 105.9104 C 217.0376 105.6057 216.6583 105.4036 216.2278 105.3767 Z " stroke-width="0.6636780913406511"/>
      <path id="ID0.5234400681219995" fill="#101010" stroke="none" d="M 215.2778 119.7767 C 214.8473 119.7497 214.4458 119.9028 214.1452 120.1721 C 213.8446 120.4414 213.6449 120.8269 213.6175 121.2641 C 213.5901 121.7013 213.7401 122.1087 214.0047 122.4135 C 214.2694 122.7182 214.6486 122.9202 215.0791 122.9472 C 215.5096 122.9742 215.9111 122.8211 216.2117 122.5518 C 216.5123 122.2825 216.712 121.8969 216.7394 121.4598 C 216.7668 121.0226 216.6168 120.6151 216.3522 120.3104 C 216.0876 120.0057 215.7083 119.8036 215.2778 119.7767 Z " stroke-width="0.6636780913406511"/>
      <path id="ID0.5234400681219995" fill="#101010" stroke="none" d="M 213.1778 153.2267 C 212.7473 153.1997 212.3458 153.3528 212.0452 153.6221 C 211.7446 153.8914 211.5449 154.2769 211.5175 154.7141 C 211.4901 155.1513 211.6401 155.5587 211.9047 155.8635 C 212.1694 156.1682 212.5486 156.3702 212.9791 156.3972 C 213.4096 156.4242 213.8111 156.2711 214.1117 156.0018 C 214.4123 155.7325 214.612 155.3469 214.6394 154.9098 C 214.6668 154.4726 214.5168 154.0651 214.2522 153.7604 C 213.9876 153.4557 213.6083 153.2536 213.1778 153.2267 Z " stroke-width="0.6636780913406511"/>
      <path id="ID0.5234400681219995" fill="#101010" stroke="none" d="M 214.2278 137.4767 C 213.7973 137.4497 213.3958 137.6028 213.0952 137.8721 C 212.7946 138.1414 212.5949 138.5269 212.5675 138.9641 C 212.5401 139.4013 212.6901 139.8087 212.9547 140.1135 C 213.2194 140.4182 213.5986 140.6202 214.0291 140.6472 C 214.4596 140.6742 214.8611 140.5211 215.1617 140.2518 C 215.4623 139.9825 215.662 139.5969 215.6894 139.1598 C 215.7168 138.7226 215.5668 138.3151 215.3022 138.0104 C 215.0376 137.7057 214.6583 137.5036 214.2278 137.4767 Z " stroke-width="0.6636780913406511"/>
      <path id="ID0.5234400681219995" fill="#101010" stroke="none" d="M 212.4278 168.0767 C 211.9973 168.0497 211.5958 168.2028 211.2952 168.4721 C 210.9946 168.7414 210.7949 169.1269 210.7675 169.5641 C 210.7401 170.0013 210.8901 170.4087 211.1547 170.7135 C 211.4194 171.0182 211.7986 171.2202 212.2291 171.2472 C 212.6596 171.2742 213.0611 171.1211 213.3617 170.8518 C 213.6623 170.5825 213.862 170.1969 213.8894 169.7598 C 213.9168 169.3226 213.7668 168.9151 213.5022 168.6104 C 213.2376 168.3057 212.8583 168.1036 212.4278 168.0767 Z " stroke-width="0.6636780913406511"/>
      <path id="ID0.4144489667378366" fill="#40474C" stroke="none" stroke-linecap="round" d="M 184.8941 64.1807 L 206.5508 57.0288 L 201.9769 79.8766 L 201.3833 143.6586 L 188.5011 190.4497 L 177.3575 184.4331 L 176.8643 188.1249 L 183.1813 137.4655 L 181.0978 91.3319 L 181.1336 74.0498 L 184.8941 64.1807 Z " stroke-width="1.0534572489367935"/>
      <path id="ID0.8752945330925286" fill="none" stroke="#222222" stroke-width="2.106914497873587" stroke-linecap="round" d="M 260.8285 70.0366 L 263.7044 78.4602 L 257.8072 118.2435 "/>
      <path id="ID0.8752945330925286" fill="none" stroke="#222222" stroke-width="2.106914497873587" stroke-linecap="round" d="M 184.6991 64.7783 L 180.794 72.7769 L 181.6779 112.9852 "/>
      <path id="ID0.5234400681219995" fill="#101010" stroke="none" d="M 237.2778 155.3767 C 236.8473 155.3497 236.4458 155.5028 236.1452 155.7721 C 235.8446 156.0414 235.6449 156.4269 235.6175 156.8641 C 235.5901 157.3013 235.7401 157.7087 236.0047 158.0135 C 236.2694 158.3182 236.6486 158.5202 237.0791 158.5472 C 237.5096 158.5742 237.9111 158.4211 238.2117 158.1518 C 238.5123 157.8825 238.712 157.4969 238.7394 157.0598 C 238.7668 156.6226 238.6168 156.2151 238.3522 155.9104 C 238.0876 155.6057 237.7083 155.4036 237.2778 155.3767 Z " stroke-width="0.6636780913406511"/>
      <path id="ID0.5234400681219995" fill="#101010" stroke="none" d="M 238.2778 163.1767 C 237.8473 163.1497 237.4458 163.3028 237.1452 163.5721 C 236.8446 163.8414 236.6449 164.2269 236.6175 164.6641 C 236.5901 165.1013 236.7401 165.5087 237.0047 165.8135 C 237.2694 166.1182 237.6486 166.3202 238.0791 166.3472 C 238.5096 166.3742 238.9111 166.2211 239.2117 165.9518 C 239.5123 165.6825 239.712 165.2969 239.7394 164.8598 C 239.7668 164.4226 239.6168 164.0151 239.3522 163.7104 C 239.0876 163.4057 238.7083 163.2036 238.2778 163.1767 Z " stroke-width="0.6636780913406511"/>
      <g id="ID0.20783481979742646">
        <path id="ID0.5848579816520214" fill="#737373" stroke="none" stroke-linecap="round" d="M 193.8452 94.9544 L 186.7986 92.9173 L 186.644 97.0558 L 194.1742 98.0596 L 193.8452 94.9544 Z " stroke-width="1.0534572489367935"/>
        <path id="ID0.13105127029120922" fill="none" stroke="#222222" stroke-width="2.106914497873587" stroke-linecap="round" d="M 195.566 98.4128 L 190.8715 98.1185 L 185.4941 96.186 "/>
      </g>
    </g>
    <path id="ID0.46110434643924236" fill="#675B50" stroke="none" stroke-linecap="round" d="M 236.3963 39.4198 L 212.8039 37.9411 L 211.0579 57.988 L 217.3307 61.4125 L 235.0617 60.7156 L 236.3963 39.4198 Z " stroke-width="1.144406894210797"/>
    <g id="ID0.9597035455517471">
      <path id="ID0.5368814701214433" fill="#404040" stroke="none" stroke-linecap="round" d="M 142.4634 216.0959 L 143.6057 205.9436 L 143.3314 194.6416 L 130.675 195.9535 L 115.9171 198.4555 L 93.7233 200.8405 L 89.6718 206.8693 L 107.0432 215.4902 L 142.4634 216.0959 Z " stroke-width="0.8471282696657984"/>
      <g id="ID0.5077062323689461">
        <path id="ID0.05466862628236413" fill="#252525" stroke="none" stroke-linecap="round" d="M 173.42 142.0035 L 152.9187 129.2455 L 148.356 144.8542 L 146.9496 150.2478 L 140.7219 164.911 L 123.8794 197.4896 L 144.1889 209.437 L 153.612 191.0363 L 158.9933 184.8789 L 163.5036 177.5606 L 166.6666 165.6306 L 171.1205 155.4343 L 173.42 142.0035 Z " stroke-width="0.6597530406986021"/>
        <path id="ID0.5319394422695041" fill="none" stroke="#131313" stroke-width="2.1997147942511126" stroke-linecap="round" d="M 124.5151 196.7528 L 144.3015 209.9475 L 150.2634 198.7383 "/>
      </g>
    </g>
    <g id="ID0.8820344842970371">
      <path id="ID0.3809091211296618" fill="#252525" stroke="none" stroke-linecap="round" d="M 212.2891 210.2892 L 245.5137 200.2758 L 226.3812 181.6763 L 189.1592 143.2516 L 179.9123 135.86 L 167.6772 130.9955 L 163.6202 139.2748 L 151.6897 148.4703 L 168.558 167.6012 L 178.203 178.2887 L 212.2891 210.2892 Z " stroke-width="0.8035436602052097"/>
      <path id="ID0.9495224836282432" fill="none" stroke="#131313" stroke-width="2.1997145314683637" stroke-linecap="round" d="M 188.913 143.3313 L 181.8797 137.1724 L 173.8109 133.0308 L 163.9285 136.8036 L 159.0666 134.0082 "/>
    </g>
    <g id="ID0.04595177713781595">
      <path id="ID0.7592270169407129" fill="none" stroke="#675B50" stroke-width="1.0984285795232644" stroke-linecap="round" d="M 213.5863 52.684 C 213.5863 52.684 213.408 53.4269 213.4447 53.8001 C 213.48 54.1623 213.7334 54.4788 213.7968 54.8373 C 213.8604 55.198 213.7676 55.5738 213.8223 55.9358 C 213.8764 56.2957 213.9455 56.6679 214.1212 56.9876 C 214.2707 57.2595 214.771 57.6596 214.771 57.6596 "/>
      <path id="ID0.48112139804288745" fill="#3A3A3A" stroke="#3A3A3A" stroke-width="2.036267538043632" stroke-linecap="round" d="M 202.9154 12.6679 C 202.2499 13.0063 202.8469 14.5058 202.5462 15.3355 C 202.3047 16.0016 201.61 16.4734 201.4434 17.162 C 201.2842 17.8225 201.5089 18.5236 201.6139 19.1942 C 201.9092 21.087 201.759 23.5714 202.6478 25.06 C 203.0076 25.5733 203.6903 23.808 204.111 23.198 C 204.9698 21.9748 205.8863 20.6973 206.4764 19.3999 C 206.758 18.781 206.7288 18.0629 206.8178 17.3892 C 206.9056 16.7206 207.2654 15.9957 207.0057 15.3721 C 206.7422 14.7393 205.9957 14.4222 205.4212 14.0395 C 204.6721 13.5411 203.6874 12.3583 202.9154 12.6679 Z "/>
      <path id="ID0.05099705280736089" fill="#1C1916" stroke="#1C1916" stroke-width="2.162145893433825" stroke-linecap="round" d="M 238.736 33.8499 C 239.0722 34.0372 238.5648 35.2736 238.369 36.0921 C 238.2011 36.7924 237.745 37.4053 237.309 37.9825 C 236.8719 38.5607 236.3114 39.0423 235.7735 39.5302 C 235.2357 40.0182 234.6457 40.4501 234.0818 40.9101 C 233.5179 41.37 233.1179 42.3584 232.3901 42.29 C 231.6623 42.2216 231.0912 41.333 230.9907 40.6181 C 230.7907 39.1948 231.0203 37.6779 231.5527 36.3414 C 231.8206 35.6701 232.6341 35.3593 233.2444 34.9616 C 233.8536 34.5648 234.4881 34.1605 235.192 33.9688 C 236.2198 33.6886 237.4837 32.9755 238.3669 33.5655 Z "/>
      <path id="ID0.8999492498114705" fill="#796B5E" stroke="none" stroke-linecap="round" d="M 215.7568 3.6419 C 210.9478 3.9536 205.6814 6.6449 203.1875 10.714 C 200.3418 15.3598 201.7826 21.4245 201.6524 26.8051 C 201.5963 29.1661 202.3012 31.6238 202.7586 34.007 C 203.4093 37.3931 204.2267 40.6426 204.9126 43.9024 C 205.3135 45.8818 204.8783 48.2066 206.0212 49.739 C 207.8394 52.176 210.3158 54.696 213.3101 55.2907 C 216.7702 55.9772 220.2645 54.1138 223.6887 53.1897 C 225.408 52.6676 227.4702 52.3582 228.6785 50.9701 C 231.2679 47.9897 232.6885 44.1074 234.3454 40.5862 C 236.085 36.8899 238.6624 33.318 238.893 29.1991 C 239.2846 22.1888 240.8566 13.5975 235.9035 8.3171 C 231.4875 3.2479 222.9055 3.1816 215.7568 3.6419 Z " stroke-width="0.5492253466322818"/>
      <path id="ID0.8194515448994935" fill="#796B5E" stroke="none" stroke-linecap="round" d="M 238.8909 24.9074 C 237.9587 24.9615 237.2611 25.5437 236.662 26.6569 C 236.0628 27.7701 235.6552 29.3247 235.5819 31.0569 C 235.5087 32.789 235.7837 34.3724 236.2867 35.5323 C 236.7897 36.6921 237.438 37.3022 238.36 37.4637 C 239.2064 37.6103 240.3194 37.1961 240.7424 36.4894 C 241.5484 34.9129 241.4986 33.0003 241.669 31.3142 C 241.8371 29.6571 242.3056 27.847 241.717 26.317 C 241.2351 25.3785 239.8679 24.8508 238.8909 24.9074 Z " stroke-width="1.0810729467169125"/>
      <path id="ID0.8256730306893587" fill="none" stroke="#675B50" stroke-width="1.098450386511347" stroke-linecap="round" d="M 209.8823 43.6904 C 209.8823 43.6904 211.2167 43.0603 211.9292 43.1287 C 212.5978 43.1414 213.0819 43.895 213.7738 43.9189 C 214.5953 43.947 215.3189 43.2403 216.1379 43.2205 C 217.4573 43.6561 218.9737 44.0968 218.9737 44.0968 "/>
      <path id="ID0.7592270169407129" fill="none" stroke="#675B50" stroke-width="1.0984506932645637" stroke-linecap="round" d="M 216.7776 46.6164 C 216.7776 46.6164 216.086 46.958 215.7099 47.0082 C 215.3449 47.0572 214.9754 46.8859 214.6077 46.907 C 214.2378 46.9285 213.8885 47.1038 213.5194 47.134 C 213.1524 47.1644 212.7699 47.1832 212.4149 47.0873 C 212.113 47.0058 211.605 46.6161 211.605 46.6161 "/>
      <path id="ID0.7788236327469349" fill="#FFFFFF" stroke="none" stroke-linecap="round" d="M 226.3697 26.0506 L 224.9114 25.774 L 222.4771 25.4022 L 220.1355 25.4107 L 219.7073 27.8116 L 222.4519 28.5728 L 227.9163 28.105 L 226.3697 26.0506 Z " stroke-width="1.0810729467169125"/>
      <path id="ID0.036129117012023926" fill="#5E3B21" stroke="none" d="M 222.0356 25.1214 C 221.5932 25.1027 221.1846 25.2628 220.8823 25.5371 C 220.58 25.8113 220.3839 26.1998 220.3654 26.6366 C 220.3469 27.0733 220.5095 27.4769 220.7876 27.7758 C 221.0657 28.0746 221.4593 28.2686 221.9017 28.2873 C 222.3441 28.306 222.7527 28.1459 223.0551 27.8716 C 223.3574 27.5974 223.5535 27.2089 223.572 26.7721 C 223.5904 26.3354 223.4278 25.9318 223.1497 25.6329 C 222.8716 25.3341 222.478 25.1401 222.0356 25.1214 Z " stroke-width="1.0810729467169125"/>
      <path id="ID0.9171876185573637" fill="#191009" stroke="none" d="M 221.5051 25.5504 C 221.2801 25.5409 221.073 25.6224 220.919 25.7621 C 220.765 25.9018 220.6652 26.0986 220.6559 26.3208 C 220.6465 26.5429 220.7293 26.7475 220.8709 26.8997 C 221.0126 27.0519 221.212 27.1506 221.4371 27.1602 C 221.6621 27.1697 221.8691 27.0881 222.0231 26.9484 C 222.1771 26.8087 222.2769 26.6119 222.2863 26.3897 C 222.2957 26.1676 222.2129 25.963 222.0712 25.8108 C 221.9296 25.6586 221.7301 25.5599 221.5051 25.5504 Z " stroke-width="1.0810729467169125"/>
      <path id="ID0.7788236327469349" fill="#FFFFFF" stroke="none" stroke-linecap="round" d="M 205.5506 25.5284 L 207.4234 25.0163 L 209.543 25.1059 L 211.8755 25.3121 L 212.0995 27.7406 L 209.3005 28.2673 L 204.2665 27.5706 L 205.5506 25.5284 Z " stroke-width="1.0810729467169125"/>
      <path id="ID0.036129117012023926" fill="#5E3B21" stroke="none" d="M 207.5856 24.6714 C 207.1432 24.6527 206.7346 24.8128 206.4323 25.0871 C 206.13 25.3613 205.9339 25.7498 205.9154 26.1866 C 205.8969 26.6233 206.0595 27.0269 206.3376 27.3258 C 206.6157 27.6246 207.0093 27.8186 207.4517 27.8373 C 207.8941 27.856 208.3027 27.6959 208.6051 27.4216 C 208.9074 27.1474 209.1035 26.7589 209.122 26.3221 C 209.1404 25.8854 208.9778 25.4818 208.6997 25.1829 C 208.4216 24.8841 208.028 24.6901 207.5856 24.6714 Z " stroke-width="1.0810729467169125"/>
      <path id="ID0.9171876185573637" fill="#191009" stroke="none" d="M 207.3051 25.0504 C 207.0801 25.0409 206.873 25.1224 206.719 25.2621 C 206.565 25.4018 206.4652 25.5986 206.4559 25.8208 C 206.4465 26.0429 206.5293 26.2475 206.6709 26.3997 C 206.8126 26.5519 207.012 26.6506 207.2371 26.6602 C 207.4621 26.6697 207.6691 26.5881 207.8231 26.4484 C 207.9771 26.3087 208.0769 26.1119 208.0863 25.8897 C 208.0957 25.6676 208.0129 25.463 207.8712 25.3108 C 207.7296 25.1586 207.5301 25.0599 207.3051 25.0504 Z " stroke-width="1.0810729467169125"/>
      <path id="ID0.2118154256604612" fill="#1C1916" stroke="#1C1916" stroke-width="2.162145893433825" stroke-linecap="round" d="M 239.9712 22.7011 C 239.9783 23.2551 239.5893 25.7329 238.6959 27.1089 C 238.3663 27.6164 238.1704 25.7084 237.8582 25.0308 C 237.556 24.374 237.1384 23.7693 236.8506 23.1067 C 236.543 22.3981 236.2987 21.661 236.0718 20.9235 C 235.8516 20.209 235.68 19.4771 235.5104 18.7496 C 235.3426 18.0308 235.2838 17.2832 235.0576 16.5802 C 234.8325 15.8783 234.4792 15.2205 234.1633 14.5534 C 233.8463 13.8864 233.7109 13.0711 233.158 12.5757 C 232.5894 12.0657 231.7772 11.8314 231.0158 11.7326 C 230.2859 11.6383 229.5551 11.9245 228.826 12.0163 C 228.0608 12.1118 227.2884 12.1727 226.5275 12.2954 C 225.7907 12.4136 225.0549 12.5621 224.3308 12.74 C 223.6255 12.9134 222.9348 13.153 222.2361 13.3503 C 221.5043 13.5569 220.7539 13.7134 220.0326 13.9559 C 219.3345 14.1909 218.6956 14.5961 217.9831 14.7831 C 217.2729 14.9692 216.5027 15.2613 215.7933 15.0668 C 215.0807 14.8711 214.6409 14.1472 214.0543 13.7031 C 213.4633 13.2567 212.9088 12.7473 212.2586 12.3908 C 211.6221 12.0425 210.93 11.7756 210.2228 11.6059 C 209.024 11.3198 207.6497 10.8338 206.3256 11.0648 C 205.0573 11.2886 203.5001 13.4031 202.8177 12.9055 C 202.1703 12.4287 203.2843 10.317 203.905 9.081 C 204.5755 7.7483 205.5677 6.5592 206.668 5.5425 C 207.7286 4.5628 208.9487 3.6768 210.3073 3.1699 C 211.6859 2.6551 213.2219 2.691 214.6892 2.5488 C 215.4109 2.4783 216.143 2.5737 216.8677 2.5334 C 217.599 2.4923 218.3222 2.3089 219.0553 2.3034 C 220.504 2.2926 221.9792 2.2227 223.4032 2.4872 C 224.8856 2.7617 226.2634 3.45 227.6989 3.9052 C 228.4102 4.131 229.1476 4.2815 229.8502 4.5338 C 231.2392 5.0333 232.6248 5.5617 233.9738 6.1595 C 234.6397 6.4543 235.364 6.7086 235.8895 7.2081 C 236.4444 7.7348 236.6602 8.5287 237.1145 9.1414 C 237.5544 9.7341 238.2054 10.1745 238.5682 10.8155 C 238.945 11.483 239.1183 12.2515 239.2926 12.9964 C 239.4576 13.7043 239.5488 14.4328 239.5823 15.1589 C 239.6153 15.8731 239.4313 16.5921 239.4916 17.3052 C 239.5531 18.04 239.7963 18.7513 239.9443 19.4746 C 240.0661 20.07 240.4025 20.6648 240.3042 21.2638 Z "/>
      <path id="ID0.5261953212320805" fill="none" stroke="#1C1916" stroke-width="2.1621460352683304" stroke-linecap="round" d="M 228.8145 25.9134 C 228.8145 25.9134 228.1773 24.4713 227.5972 23.9698 C 227.0422 23.4898 226.282 23.2724 225.5663 23.1031 C 224.8506 22.9339 224.0921 23.0635 223.3623 22.9682 C 221.995 22.7883 219.2772 22.278 219.2772 22.278 "/>
      <path id="ID0.5261953212320805" fill="none" stroke="#1C1916" stroke-width="2.1621460071975314" stroke-linecap="round" d="M 203.4518 24.6237 C 203.4518 24.6237 204.1815 23.2261 204.793 22.7635 C 205.3781 22.3206 206.1509 22.1532 206.8761 22.0309 C 207.6013 21.9086 208.3497 22.0874 209.0842 22.0398 C 210.4602 21.9494 213.2055 21.6172 213.2055 21.6172 "/>
      <path id="ID0.8619630038738251" fill="none" stroke="#675B50" stroke-width="1.270658413730668" stroke-linecap="round" d="M 215.6632 26.6743 C 215.6632 26.6743 215.1646 29.7637 214.9255 31.2555 C 214.789 32.0932 214.9202 33.0452 214.4675 33.7634 C 213.9186 34.5774 212.7069 34.5066 212.3886 35.2551 C 211.9691 36.0341 211.7842 37.501 212.5388 37.7572 C 213.6857 38.1462 214.8193 36.7346 216.1042 36.6759 C 216.7941 36.645 217.9526 37.607 217.9526 37.607 "/>
      <path id="ID0.6736386958509684" fill="none" stroke="#675B50" stroke-width="1.3553751391459186" stroke-linecap="round" d="M 228.853 35.009 C 228.853 35.009 228.2322 35.7915 227.8834 36.1474 C 227.5652 36.4723 227.179 36.7275 226.8555 37.0475 C 226.525 37.3745 226.1595 37.6873 225.9242 38.0864 C 225.6853 38.4908 225.4939 38.9477 225.4585 39.4146 C 225.3638 40.6689 225.5377 43.1921 225.5377 43.1921 "/>
      <path id="ID0.18298013787716627" fill="#1C1916" stroke="#1C1916" stroke-width="2.162145893433825" stroke-linecap="round" d="M 229.9552 11.2095 C 230.4079 11.448 230.8822 12.4636 230.6797 13.3904 C 230.3586 14.8551 228.9199 16.3553 229.1395 17.6257 C 229.2481 18.2507 230.6428 17.456 231.3361 17.181 C 232.0117 16.9129 232.5799 16.4284 233.1818 16.0227 C 233.8308 15.5857 234.6828 15.3153 235.0909 14.652 C 235.4686 14.0391 235.5884 13.1883 235.3447 12.5125 C 235.1002 11.8324 234.4069 11.3591 233.7755 10.9948 C 233.1303 10.6224 232.3634 10.4749 231.6243 10.3663 C 231.3115 10.3208 230.7844 10.2437 230.6913 10.5418 Z "/>
      <path id="ID0.7592270169407129" fill="none" stroke="#675B50" stroke-width="1.098444782719474" stroke-linecap="round" d="M 215.5528 18.7941 C 215.5528 18.7941 215.2797 19.5085 215.2678 19.883 C 215.256 20.2466 215.4665 20.5919 215.4831 20.9552 C 215.4994 21.3208 215.3588 21.6819 215.3662 22.0476 C 215.3733 22.4112 215.3937 22.7888 215.5268 23.1276 C 215.64 23.4158 216.0847 23.8747 216.0847 23.8747 "/>
      <path id="ID0.48112139804288745" fill="#3A3A3A" stroke="#3A3A3A" stroke-width="2.036267538043632" stroke-linecap="round" d="M 239.6221 15.5996 C 240.2567 15.993 239.5352 17.4367 239.7648 18.2888 C 239.9492 18.973 240.6016 19.5018 240.7094 20.2019 C 240.8123 20.8735 240.5292 21.5531 240.368 22.2126 C 239.914 24.0736 239.8539 26.5619 238.8426 27.9701 C 238.4408 28.4512 237.9095 26.6346 237.5419 25.9913 C 236.7894 24.6999 235.984 23.3495 235.5055 22.0069 C 235.2772 21.3665 235.3668 20.6534 235.335 19.9747 C 235.304 19.3011 235.0066 18.5483 235.3181 17.9489 C 235.6341 17.3406 236.4047 17.0877 237.0094 16.7548 C 237.7979 16.3214 238.879 15.226 239.6221 15.5996 Z "/>
    </g>
  </g>
  <path id="ID0.7766774026677012" fill="#0D0D0D" stroke="#0D0D0D" stroke-width="1.8086520039145781" stroke-linecap="round" d="M 1 195.2018 C 1.718 168.513 0.989 140.7886 12 115.2773 C 16.164 105.6321 31.459 101.1874 43.5 97.7377 C 48.996 96.1655 54.566 100.1119 60 101.5247 C 61.543 101.9225 62.688 102.7572 64 103.3185 C 65.857 103.9539 67.811 104.4362 69.5 105.1123 C 70.098 105.3531 70.7 105.5907 71.25 105.9096 C 71.9 106.1886 72.4 106.5872 73 106.9061 C 74.25 107.5041 75.5 108.1419 76.75 108.6999 C 78 109.1783 79.3 109.5769 80.5 110.0951 C 81.1 110.3343 81.75 110.5336 82.25 110.8924 C 82.85 111.2512 83.25 111.8092 83.75 112.2876 C 84.25 112.6862 84.75 113.0848 85.25 113.4835 C 85.75 113.8422 86.4 114.201 86.75 114.6793 C 87.15 115.1178 87.25 115.7158 87.5 116.2738 C 87.75 116.7921 88.05 117.3103 88.25 117.8683 C 88.7 118.9048 89.1 119.9811 89.5 121.0574 C 89.75 121.5756 90 122.0938 90.25 122.6519 C 90.5 123.1701 90.75 123.6883 91 124.2464 C 91.25 124.7646 91.5 125.2828 91.75 125.8409 C 92 126.3591 92.35 126.8773 92.5 127.4354 C 92.7 127.9536 92.7 128.4718 92.75 129.0299 C 92.85 129.5481 92.95 130.0663 93 130.6244 C 93.1 131.1426 93.15 131.6608 93.25 132.2189 C 93.4 132.7371 93.65 133.2553 93.75 133.8134 C 94.2 135.368 94.6 137.0024 95 138.5969 C 95.15 139.1151 95.4 139.6333 95.5 140.1914 C 95.65 140.7096 95.7 141.2278 95.75 141.7859 C 95.85 142.3041 96 142.8223 96 143.3804 C 96.05 143.8986 96 144.4168 96 144.9749 C 96 146.0114 96.1 147.0876 96 148.1639 C 96 148.6821 95.8 148.9213 95.75 149.7584 C 95.7 152.9873 95.75 156.256 95.75 159.5248 C 95.75 162.6739 95.75 165.9028 95.75 169.0918 C 95.75 170.6464 95.7 172.2808 95.75 173.8753 C 95.8 174.3935 95.9 174.9117 96 175.4698 C 96.25 176.6657 96.6 177.8217 96.75 179.0575 C 96.85 179.5757 96.75 180.0939 96.75 180.652 C 96.8 181.1702 96.95 181.6884 97 182.2465 C 97.2 183.2829 97.45 184.3592 97.5 185.4355 C 97.6 186.4719 97.5 187.5482 97.5 188.6245 C 97.5 191.7736 97.5 195.0025 97.5 198.1915 C 97.5 198.9489 97.45 199.2279 97.5 199.786 C 97.6 200.3042 97.9 200.8224 98 201.3805 C 98.35 202.9352 98.5 204.5695 98.75 206.164 C 98.85 206.6822 98.9 207.2005 99 207.7585 C 99.3 208.8747 99.75 209.9908 100 211.1469 C 100.15 211.7049 100.2 212.3427 100.25 212.9407 C 100.35 213.4987 100.5 214.0967 100.5 214.7345 C 100.55 215.2527 100.5 215.7709 100.5 216.329 C 100.5 216.8472 100.6 217.3654 100.5 217.9235 C 100.35 218.9599 100 220.0362 99.75 221.1125 C 99.65 221.6307 99.55 222.1489 99.5 222.707 C 99.5 223.2252 99.5 223.7434 99.5 224.3015 C 99.5 224.8197 99.5 225.3379 99.5 225.896 C 99.6 226.9324 99.6 228.0087 99.75 229.085 C 99.95 230.0816 100.5 232.0747 100.5 232.0747 C 100.75 232.4733 101.372 234.7423 101.75 235.8617 C 101.955 236.47 102.277 237.0512 102.5 237.6555 C 102.694 238.1809 102.833 238.719 103 239.25 C 103.167 239.781 103.373 240.3064 103.5 240.8445 C 103.624 241.3707 103.626 241.9128 103.75 242.439 C 103.877 242.9771 104.045 243.5113 104.25 244.0335 C 104.462 244.5748 104.827 245.0779 105 245.628 C 105.163 246.147 105.167 246.6915 105.25 247.2225 C 105.333 247.7535 105.417 248.286 105.5 248.817 C 105.583 249.348 105.667 249.8806 105.75 250.4115 C 105.833 250.9425 105.972 251.4711 106 252.006 C 106.055 253.0672 105.945 254.1339 106 255.195 C 106.028 255.73 106.167 256.2586 106.25 256.7895 C 106.333 257.3205 106.472 257.8491 106.5 258.384 C 106.555 259.4452 106.528 260.5111 106.5 261.5731 C 106.444 263.6977 106.317 265.8272 106.25 267.9511 C 106.233 268.482 106.25 269.0146 106.25 269.5456 C 106.25 270.0765 106.208 270.6099 106.25 271.1401 C 106.292 271.6742 106.376 272.2084 106.5 272.7346 C 106.627 273.2727 106.915 273.7862 107 274.3291 C 107.083 274.8561 106.958 275.3934 107 275.9236 C 107.042 276.4578 107.208 276.9839 107.25 277.5181 C 107.292 278.0483 107.208 278.5824 107.25 279.1126 C 107.292 279.6468 107.376 280.1809 107.5 280.7071 C 107.627 281.2453 107.873 281.7635 108 282.3016 C 108.124 282.8278 108.126 283.3699 108.25 283.8961 C 108.377 284.4343 108.637 284.9509 108.75 285.4906 C 108.971 286.5462 109.083 287.6177 109.25 288.6796 C 109.333 289.2106 109.417 289.7432 109.5 290.2741 C 109.583 290.8051 109.708 291.3345 109.75 291.8686 C 109.792 292.3988 109.792 292.933 109.75 293.4631 C 109.708 293.9973 109.528 294.5227 109.5 295.0576 C 109.445 296.1188 109.335 297.1927 109.5 298.2467 C 109.67 299.3325 110.116 300.3849 110.5 301.4357 C 110.699 301.9802 111.038 302.4888 111.25 303.0302 C 111.455 303.5524 111.545 304.1025 111.75 304.6247 C 111.962 305.166 112.369 305.6619 112.5 306.2192 C 112.623 306.7414 112.892 307.384 112.5 307.8137 C 112.082 308.2721 111.206 308.3415 110.5 308.4116 C 109.834 308.4778 109.171 308.2123 108.5 308.2123 C 107.829 308.2123 107.171 308.4116 106.5 308.4116 C 105.829 308.4116 105.17 308.2458 104.5 308.2123 C 103.835 308.1788 103.161 308.1461 102.5 308.2123 C 101.819 308.2801 101.122 308.3797 100.5 308.6109 C 99.851 308.8525 99.429 309.4273 98.75 309.6075 C 98.118 309.7757 97.416 309.6075 96.75 309.6075 C 96.084 309.6075 95.411 309.6737 94.75 309.6075 C 94.069 309.5397 93.431 309.2766 92.75 309.2089 C 92.089 309.1427 91.415 309.1754 90.75 309.2089 C 90.08 309.2424 89.42 309.3747 88.75 309.4082 C 88.085 309.4417 87.411 309.342 86.75 309.4082 C 86.069 309.476 85.431 309.739 84.75 309.8068 C 84.089 309.873 83.415 309.7733 82.75 309.8068 C 82.08 309.8403 81.416 309.94 80.75 310.0061 C 80.084 310.0723 79.421 310.2222 78.75 310.2054 C 76.746 310.1552 74.751 309.9065 72.75 309.8068 C 72.085 309.7733 71.415 309.7733 70.75 309.8068 C 70.08 309.8403 69.421 309.9838 68.75 310.0061 C 67.419 310.05 66.081 309.9623 64.75 310.0061 C 64.079 310.0284 63.42 310.172 62.75 310.2054 C 62.085 310.2389 61.415 310.2389 60.75 310.2054 C 60.08 310.172 59.42 310.0396 58.75 310.0061 C 58.085 309.9726 57.415 310.0396 56.75 310.0061 C 56.08 309.9726 55.419 309.8515 54.75 309.8068 C 53.42 309.7183 52.085 309.6075 50.75 309.6075 C 50.079 309.6075 49.41 309.708 48.75 309.8068 C 48.075 309.9081 47.431 310.1377 46.75 310.2054 C 46.089 310.2716 45.416 310.2054 44.75 310.2054 C 42.752 310.2054 40.747 310.156 38.75 310.2054 C 38.079 310.2222 37.42 310.3713 36.75 310.4047 C 36.085 310.4382 35.415 310.4382 34.75 310.4047 C 34.08 310.3713 33.416 310.2716 32.75 310.2054 C 32.084 310.1393 31.42 310.0396 30.75 310.0061 C 30.085 309.9726 29.405 310.1042 28.75 310.0061 C 28.051 309.9017 28.346 309.7438 26.75 309.4082 C 20.367 308.0656 8.928 310.6264 7.35 305.4618 C 1.723 287.0349 9.575 267.2638 8.5 248.2191 C 7.508 230.6843 0.545 213.0435 1 195.2018 Z "/>
</svg>