<svg xmlns="http://www.w3.org/2000/svg" xmlns:xlink="http://www.w3.org/1999/xlink" version="1.1" width="177.03073451051446" height="322.70264002809256" viewBox="1.2637388848794902 -0.6713764226900137 177.03073451051446 322.70264002809256">
  <defs>
    <linearGradient id="grad_1" y2="1" x2="0">
      <stop offset="0" stop-color="#222325" stop-opacity="1"/>
      <stop offset="1" stop-color="#2E3034" stop-opacity="1"/>
    </linearGradient>
  </defs>
  <!-- Exported by Scratch - http://scratch.mit.edu/ -->
  <path id="ID0.7766774026677012" fill="#0D0D0D" stroke="#0D0D0D" stroke-width="1.9445528698894574" stroke-linecap="round" d="M 122.6699 184.4003 C 124.0932 152.8316 127.0431 120.1378 118.1026 89.2627 C 114.7214 77.5895 99.8179 71.3044 88.0811 66.4148 C 82.7237 64.1858 76.8501 68.4693 71.3154 69.7698 C 69.744 70.1351 68.5347 71.0434 67.1807 71.6174 C 65.2771 72.2421 63.2889 72.6794 61.5496 73.3635 C 60.9336 73.6073 60.314 73.8471 59.7397 74.1865 C 59.0688 74.472 58.538 74.909 57.9138 75.245 C 56.6187 75.8665 55.3205 76.5351 54.0286 77.1095 C 52.7431 77.5898 51.4141 77.9726 50.1753 78.5033 C 49.5576 78.7451 48.8931 78.9365 48.3655 79.3264 C 47.7381 79.7094 47.2942 80.3414 46.757 80.8725 C 46.2262 81.3094 45.6954 81.7464 45.1646 82.1833 C 44.637 82.5731 43.9597 82.9528 43.5722 83.4941 C 43.138 83.9848 42.9902 84.6842 42.6961 85.3264 C 42.4051 85.9215 42.0643 86.5132 41.82 87.1588 C 41.2879 88.3523 40.8026 89.5964 40.3172 90.8404 C 40.0262 91.4355 39.7352 92.0306 39.4411 92.6727 C 39.1501 93.2678 38.8591 93.8629 38.565 94.5051 C 38.274 95.1002 37.983 95.6953 37.6889 96.3374 C 37.3979 96.9325 37.0072 97.5209 36.8128 98.1698 C 36.5717 98.7683 36.5301 99.3803 36.4355 100.036 C 36.2942 100.6413 36.1529 101.2465 36.0582 101.9022 C 35.9169 102.5075 35.8255 103.1161 35.681 103.7684 C 35.4898 104.3703 35.1988 104.9654 35.0543 105.6177 C 34.4807 107.4233 33.9506 109.3264 33.4237 111.1825 C 33.2325 111.7844 32.9415 112.3794 32.797 113.0318 C 32.6058 113.6336 32.5144 114.2423 32.4198 114.898 C 32.2784 115.5032 32.0872 116.1051 32.0425 116.7642 C 31.9511 117.3728 31.9594 117.9882 31.9147 118.6473 C 31.8316 119.8714 31.6455 121.1357 31.659 122.4136 C 31.6175 123.0257 31.7978 123.3217 31.7806 124.3137 C 31.5716 128.1305 31.2597 131.9875 30.9977 135.848 C 30.7452 139.5672 30.4863 143.3805 30.2307 147.1468 C 30.106 148.9829 30.0249 150.9165 29.8472 152.7963 C 29.7558 153.4049 29.6144 154.0101 29.4699 154.6625 C 29.1246 156.0579 28.6828 157.3995 28.434 158.8488 C 28.2927 159.454 28.351 160.0728 28.3062 160.7319 C 28.2148 161.3405 28.0236 161.9424 27.929 162.5981 C 27.6463 163.8086 27.3106 165.0628 27.1744 166.3305 C 26.9916 167.5478 27.0051 168.8257 26.9188 170.0968 C 26.6663 173.816 26.4075 177.6294 26.1518 181.3957 C 26.0911 182.2902 26.1186 182.6231 26.024 183.2788 C 25.8827 183.8841 25.5418 184.4758 25.3973 185.1281 C 24.9235 186.9405 24.6428 188.8605 24.2655 190.7268 C 24.1242 191.332 24.0328 191.9406 23.8883 192.593 C 23.4995 193.8908 22.961 195.1786 22.6189 196.5269 C 22.4245 197.1759 22.3235 197.9257 22.2257 198.6285 C 22.0812 199.2809 21.8836 199.9769 21.8325 200.7301 C 21.741 201.3388 21.7494 201.9542 21.7046 202.6133 C 21.6631 203.2253 21.5218 203.8305 21.5768 204.4964 C 21.6434 205.7306 21.9063 207.0254 22.0694 208.3135 C 22.1277 208.9323 22.1859 209.5511 22.191 210.2136 C 22.1495 210.8256 22.1079 211.4376 22.0632 212.0967 C 22.0217 212.7087 21.9801 213.3208 21.9354 213.9799 C 21.7525 215.1971 21.6662 216.4683 21.4303 217.7292 C 21.1509 218.8926 20.4423 221.2093 20.4423 221.2093 C 20.1609 221.6632 19.3585 224.3008 18.8916 225.5971 C 18.6383 226.3017 18.2705 226.9663 17.9995 227.6649 C 17.7638 228.2722 17.582 228.8984 17.3728 229.5142 C 17.1637 230.1299 16.916 230.7365 16.7462 231.3634 C 16.5803 231.9765 16.5348 232.6166 16.3689 233.2297 C 16.199 233.8566 15.9886 234.4761 15.7422 235.0789 C 15.4873 235.7039 15.0828 236.2733 14.8661 236.9113 C 14.6619 237.5132 14.6142 238.156 14.4889 238.7775 C 14.3635 239.399 14.237 240.0222 14.1116 240.6437 C 13.9862 241.2652 13.8597 241.8885 13.7343 242.5099 C 13.609 243.1314 13.4279 243.7462 13.3571 244.3761 C 13.2171 245.6256 13.2414 246.8929 13.1014 248.1424 C 13.0306 248.7723 12.8496 249.3872 12.7242 250.0086 C 12.5988 250.6301 12.4177 251.245 12.3469 251.8749 C 12.207 253.1244 12.1485 254.3851 12.0913 255.6411 C 11.9768 258.1542 11.9328 260.6778 11.8294 263.1906 C 11.8038 263.8189 11.7441 264.4467 11.7015 265.0738 C 11.659 265.7009 11.6581 266.3336 11.5737 266.9569 C 11.489 267.5849 11.3624 268.2101 11.1965 268.8231 C 11.0266 269.4501 10.6981 270.037 10.5698 270.6724 C 10.4447 271.2892 10.5264 271.9323 10.4419 272.5556 C 10.3572 273.1836 10.1494 273.7938 10.0647 274.4218 C 9.9803 275.0451 10.0213 275.6816 9.9369 276.3049 C 9.8521 276.9329 9.7255 277.5581 9.5596 278.1711 C 9.3898 278.7981 9.1028 279.3935 8.9329 280.0204 C 8.767 280.6335 8.7216 281.2736 8.5557 281.8866 C 8.3858 282.5136 8.085 283.1061 7.929 283.7359 C 7.6239 284.9676 7.4262 286.2255 7.1745 287.4683 C 7.0491 288.0898 6.9226 288.7131 6.7972 289.3346 C 6.6718 289.956 6.5047 290.5728 6.42 291.2008 C 6.3356 291.8241 6.2927 292.4549 6.2921 293.0839 C 6.2912 293.7176 6.4287 294.3503 6.4137 294.984 C 6.3835 296.2409 6.4072 297.5167 6.1581 298.7503 C 5.9014 300.0212 5.3721 301.2339 4.9047 302.4488 C 4.6625 303.0785 4.2835 303.6562 4.0286 304.2812 C 3.7822 304.884 3.6483 305.5276 3.4019 306.1305 C 3.147 306.7554 2.7012 307.3135 2.5258 307.9628 C 2.3612 308.5712 2.0413 309.3119 2.398 309.846 C 2.7783 310.4157 3.6467 310.5569 4.3455 310.6876 C 5.0046 310.8109 5.6874 310.5422 6.3568 310.5877 C 7.0263 310.6331 7.6668 310.9131 8.3363 310.9585 C 9.0057 311.0039 9.6765 310.8527 10.3477 310.8586 C 11.0138 310.864 11.6889 310.8711 12.3431 310.994 C 13.0171 311.1202 13.7045 311.2851 14.3065 311.6002 C 14.9347 311.9295 15.3096 312.6369 15.9726 312.8957 C 16.5897 313.1372 17.3035 312.9861 17.968 313.0312 C 18.6325 313.0763 19.2986 313.2 19.9634 313.1666 C 20.6483 313.1327 21.3059 312.8652 21.9908 312.8313 C 22.6556 312.7979 23.3254 312.8822 23.9862 312.9667 C 24.652 313.0517 25.2998 313.2527 25.9656 313.3376 C 26.6264 313.4222 27.3069 313.3501 27.961 313.473 C 28.635 313.5992 29.2505 313.9531 29.9245 314.0793 C 30.5787 314.2022 31.2591 314.1301 31.9199 314.2147 C 32.5857 314.2996 33.2402 314.4623 33.8993 314.5856 C 34.5585 314.7088 35.208 314.9307 35.8788 314.9564 C 37.8822 315.0328 39.8925 314.8741 41.8969 314.892 C 42.5631 314.8975 43.2316 314.9428 43.8923 315.0274 C 44.5581 315.1123 45.2041 315.3264 45.8718 315.3983 C 47.1962 315.5402 48.5382 315.5272 49.8626 315.6692 C 50.5303 315.741 51.1762 315.9551 51.842 316.04 C 52.5028 316.1246 53.1713 316.17 53.8374 316.1754 C 54.5086 316.1813 55.1777 316.0697 55.8488 316.0755 C 56.515 316.081 57.1781 316.2055 57.8442 316.211 C 58.5154 316.2168 59.1846 316.1184 59.8556 316.111 C 61.1896 316.0966 62.5305 316.0561 63.8624 316.1465 C 64.5319 316.192 65.1913 316.3559 65.8418 316.5174 C 66.5072 316.6827 67.1313 316.9974 67.8053 317.1236 C 68.4595 317.2465 69.1362 317.2139 69.8007 317.259 C 71.7941 317.3944 73.7985 317.4718 75.7869 317.6654 C 76.455 317.7306 77.1006 317.9513 77.7663 318.0362 C 78.4271 318.1208 79.0956 318.1662 79.7618 318.1717 C 80.4329 318.1775 81.1034 318.1048 81.7731 318.0717 C 82.4429 318.0387 83.1134 317.966 83.7845 317.9718 C 84.4507 317.9773 85.1186 318.1787 85.7799 318.1073 C 86.4857 318.0312 86.204 317.8248 87.8233 317.5365 C 94.2993 316.3832 105.5067 320.1822 107.4951 314.1896 C 114.5865 292.8081 108.3375 268.9263 110.9368 246.5069 C 113.3323 225.8651 121.6935 205.5025 122.6699 184.4003 Z "/>
  <g id="ID0.17693647183477879">
    <path id="ID0.7729651997797191" fill="#393C40" stroke="none" stroke-linecap="round" d="M 140.287 83.674 L 126.0205 96.6886 L 138.8969 107.0634 L 149.2107 115.5031 L 155.5133 117.4223 L 160.1678 117.9193 L 167.4831 107.7623 L 164.9977 102.5124 L 148.9235 90.9653 L 140.287 83.674 Z " stroke-width="0.7788099058081831"/>
    <path id="ID0.9716172609478235" fill="#34373A" stroke="none" stroke-linecap="round" d="M 140.6932 90.5018 L 142.9112 85.8095 L 137.6043 82.086 L 130.061 100.0831 L 134.1132 100.5158 L 139.3291 98.6082 L 140.6932 90.5018 Z " stroke-width="0.7788099058081831"/>
    <g id="ID0.38066427363082767">
      <path id="ID0.4757494777441025" fill="#1D1E1F" stroke="none" stroke-linecap="round" d="M 118.3587 70.7632 L 110.7131 74.307 L 101.7964 87.4853 L 123.1537 101.4742 L 133.8361 98.9814 L 137.8356 97.0669 L 138.7952 93.3743 L 139.1331 89.4539 L 141.8056 84.087 L 138.6137 79.9511 L 133.2345 74.3704 L 125.857 70.1105 L 118.3587 70.7632 Z " stroke-width="0.45418604597754514"/>
      <path id="ID0.6007084371522069" fill="none" stroke="#0D0D0D" stroke-width="0.9083720919550903" stroke-linecap="round" d="M 141.6661 84.6373 L 139.2214 89.3825 L 138.2511 94.6889 L 137.9069 97.1553 L 133.8361 98.9814 L 129.2118 99.941 "/>
    </g>
  </g>
  <g id="ID0.7397577832452953">
    <path id="ID0.6726378230378032" fill="#34373A" stroke="none" stroke-linecap="round" d="M 177.3222 117.1648 L 168.1358 102.021 L 165.9841 102.8764 L 175.3124 117.6256 L 177.3222 117.1648 Z " stroke-width="0.7788098747694377"/>
    <path id="ID0.6507829907350242" fill="#1D1E1F" stroke="none" stroke-linecap="round" d="M 176.4596 120.4125 L 166.0898 102.661 L 148.0076 103.6909 L 137.9583 105.9949 L 122.5864 106.5392 L 116.3392 106.1759 L 114.7999 117.7251 L 121.0333 117.6992 L 130.4352 119.1197 L 142.4011 121.4236 L 151.6084 122.851 L 176.4596 120.4125 Z " stroke-width="0.7788098747694377"/>
    <path id="ID0.6829322893172503" fill="#1D1E1F" stroke="none" stroke-linecap="round" d="M 115.2028 118.1004 L 119.716 108.0046 L 114.3521 105.0773 L 108.5714 101.3855 L 103.1232 101.5784 L 98.6685 102.3206 L 95.8187 104.3698 L 89.4457 105.9592 L 89.7988 110.4276 L 91.7859 111.5262 L 92.0356 113.076 L 94.6754 116.0997 L 97.7112 119.3042 L 102.0609 121.0985 L 108.8437 120.079 L 115.2028 118.1004 Z " stroke-width="0.7788098747694377"/>
    <path id="ID0.47767175547778606" fill="none" stroke="#0D0D0D" stroke-width="1.5576197495388755" stroke-linecap="round" d="M 172.6847 120.5462 L 176.5667 120.1359 L 166.0926 102.7388 L 152.7554 103.5228 "/>
    <path id="ID0.5922487881034613" fill="#282A2B" stroke="none" stroke-linecap="round" d="M 143.9788 122.4626 L 149.1108 115.54 L 148.8263 109.7053 L 142.9351 103.9912 L 128.7011 105.859 L 121.6601 110.5892 L 121.7772 113.8971 L 128.9888 119.4865 L 143.9788 122.4626 Z " stroke-width="0.7788098747694377"/>
    <path id="ID0.36820242274552584" fill="#151616" stroke="none" stroke-linecap="round" d="M 141.2591 116.639 L 141.0503 108.5417 L 130.1669 111.4988 L 130.2957 112.9359 L 141.2591 116.639 Z " stroke-width="0.7788098747694377"/>
    <path id="ID0.13569410238415003" fill="none" stroke="#232425" stroke-width="1.5576197495388755" stroke-linecap="round" d="M 130.7345 117.6674 L 123.6923 112.4617 L 130.5209 107.2324 "/>
    <path id="ID0.024502143263816833" fill="none" stroke="#0D0D0D" stroke-width="1.5576197495388755" stroke-linecap="round" d="M 144.2938 122.0579 L 149.1394 115.8468 L 149.1689 110.0789 L 143.275 104.287 L 135.1329 105.4326 "/>
  </g>
  <path id="ID0.3809091211296618" fill="#393D40" stroke="none" stroke-linecap="round" d="M 106.9574 169.4286 L 131.8385 155.4496 L 137.6404 193.8069 L 137.451 204.7511 L 133.4141 222.9196 L 124.9875 226.1361 L 112.1531 228.3102 L 110.7978 207.5348 L 111.8256 196.1237 L 106.9574 169.4286 Z " stroke-width="0.7305889842172973"/>
  <path id="ID0.5368814701214433" fill="#292D2E" stroke="none" stroke-linecap="round" d="M 99.2314 308.0861 L 101.9265 299.1968 L 106.218 289.8566 L 116.3163 295.5013 L 127.742 302.8954 L 145.4198 312.8644 L 146.6365 319.3556 L 121.9697 321.059 L 100.6516 317.8448 L 99.2314 308.0861 Z " stroke-width="0.7702165660495809"/>
  <path id="ID0.05466862628236413" fill="#292D2E" stroke="none" stroke-linecap="round" d="M 110.3227 218.0302 L 137.0435 217.033 L 130.175 235.255 L 128.0695 240.098 L 125.5393 258.0632 L 118.0045 298.1131 L 102.2192 298.3029 L 102.4163 276.0546 L 100.6272 267.1775 L 100.3134 257.6632 L 103.8295 244.4559 L 105.1516 232.2058 L 110.3227 218.0302 Z " stroke-width="0.730589000764505"/>
  <path id="ID0.4490455654449761" fill="none" stroke="#272A2B" stroke-width="1.6585524317132332" stroke-linecap="round" d="M 110.0067 218.2413 L 136.7588 216.8588 L 127.393 240.3989 "/>
  <path id="ID0.10446935473009944" fill="none" stroke="#242728" stroke-width="1.6585524317132332" stroke-linecap="round" d="M 125.7329 252.6237 L 123.7627 269.3463 L 112.4887 275.5097 "/>
  <path id="ID0.42170455446466804" fill="none" stroke="#242728" stroke-width="1.6585524317132332" stroke-linecap="round" d="M 122.5415 270.3853 L 119.4771 285.2047 L 107.9635 291.537 "/>
  <path id="ID0.047098892275244" fill="none" stroke="#242728" stroke-width="1.6585524317132332" stroke-linecap="round" d="M 105.4227 232.0576 L 104.531 235.8955 L 108.0516 245.1819 "/>
  <path id="ID0.3809091211296618" fill="#3E4246" stroke="none" stroke-linecap="round" d="M 82.8773 157.1711 L 103.8654 173.7964 L 101.1838 212.4972 L 98.6179 223.1381 L 90.7252 239.9932 L 81.8008 241.2995 L 68.8007 240.6295 L 71.4162 219.0151 L 71.6961 205.6021 L 82.8773 157.1711 Z " stroke-width="0.7305889874449502"/>
  <path id="ID0.5368814701214433" fill="#303436" stroke="none" stroke-linecap="round" d="M 15.1737 307.4307 L 17.6746 298.4849 L 21.7617 289.0535 L 31.9806 294.477 L 43.5645 301.6206 L 61.4552 311.2024 L 62.8128 317.6655 L 38.189 319.9055 L 16.806 317.1562 L 15.1737 307.4307 Z " stroke-width="0.7702165197019715"/>
  <path id="ID0.05466862628236413" fill="#303436" stroke="none" stroke-linecap="round" d="M 68.7255 226.7085 L 92.1704 239.5668 L 76.9232 251.6805 L 72.6307 254.7564 L 61.2386 268.8764 L 34.2167 299.3818 L 20.5716 291.4431 L 32.1595 272.4497 L 35.1801 263.9127 L 39.7939 255.5861 L 49.5901 246.0556 L 57.012 236.2206 L 68.7255 226.7085 Z " stroke-width="0.7305889812548075"/>
  <path id="ID0.4490455654449761" fill="none" stroke="#272A2B" stroke-width="1.658552349073714" stroke-linecap="round" d="M 68.0802 227.3843 L 91.7496 239.928 L 71.6297 255.3243 "/>
  <path id="ID0.10446935473009944" fill="none" stroke="#242728" stroke-width="1.658552349073714" stroke-linecap="round" d="M 63.9307 264.9641 L 53.6571 278.305 L 40.818 277.8085 "/>
  <path id="ID0.42170455446466804" fill="none" stroke="#242728" stroke-width="1.658552349073714" stroke-linecap="round" d="M 52.0758 278.57 L 41.8398 289.7159 L 28.7083 289.2413 "/>
  <path id="ID0.047098892275244" fill="none" stroke="#242728" stroke-width="1.658552349073714" stroke-linecap="round" d="M 57.0396 236.7898 L 54.3045 239.6261 L 52.5598 249.403 "/>
  <g id="ID0.9157347986474633">
    <path id="ID0.7477802094072104" fill="#363A3D" stroke="none" stroke-linecap="round" d="M 133.5479 122.1665 L 113.8663 120.1061 L 116.0372 161.2352 L 133.1496 169.2721 L 134.1394 144.6644 L 133.5479 122.1665 Z " stroke-width="0.4761425977718575"/>
    <path id="ID0.7477802094072104" fill="#363A3D" stroke="none" stroke-linecap="round" d="M 73.3802 125.3486 L 96.6471 121.2597 L 98.8179 162.3888 L 82.6467 172.1825 L 75.8548 147.3895 L 73.3802 125.3486 Z " stroke-width="0.4761425977718575"/>
    <path id="ID0.4270821204409003" fill="#3E4246" stroke="none" stroke-linecap="round" d="M 72.6071 105.2899 L 75.7522 92.6077 L 77.7033 86.6639 L 83.871 79.3055 L 114.9714 79.0943 L 122.0917 83.0098 L 125.1579 86.9008 L 132.7736 97.9421 L 132.6125 108.4404 L 131.9501 113.9586 L 133.9782 120.7652 L 134.7423 126.2081 L 132.9666 133.2155 L 131.626 138.5312 L 130.9267 147.8658 L 133.5789 169.6588 L 128.8766 178.1319 L 124.4255 184.5892 L 112.6107 190.6484 L 100.8733 188.2402 L 96.5968 181.7429 L 91.313 175.5849 L 82.6149 172.9448 L 80.1374 147.6857 L 78.5973 141.0917 L 73.4304 129.9211 L 71.5519 119.1729 L 72.6071 105.2899 Z " stroke-width="0.4761425977718575"/>
    <path id="ID0.052435632329434156" fill="#393C40" stroke="none" stroke-linecap="round" d="M 87.3725 154.4697 L 91.8208 154.2826 L 98.5794 157.2158 L 103.6345 156.7821 L 109.6008 158.2552 L 113.7285 156.9645 L 115.3676 156.4012 L 129.3813 152.2524 L 129.911 155.5144 L 121.572 160.1266 L 115.6122 160.1312 L 110.1859 163.4692 L 103.3434 160.302 L 96.947 161.0687 L 86.88 157.7856 L 87.3725 154.4697 Z " stroke-width="0.4761425977718575"/>
    <path id="ID0.4987568911164999" fill="none" stroke="#27282B" stroke-width="0.952285195543715" stroke-linecap="round" d="M 83.6889 79.9604 L 77.5962 86.4804 L 74.7949 96.6412 "/>
    <path id="ID0.2889464790932834" fill="none" stroke="#27282B" stroke-width="0.952285195543715" stroke-linecap="round" d="M 116.3346 79.6677 L 122.2412 83.1704 L 128.4363 92.1411 "/>
    <path id="ID0.8373676878400147" fill="#000000" stroke="#2C2F31" stroke-width="0.615510445930943" stroke-linecap="round" d="M 87.9649 92.785 L 88.2279 91.2379 L 84.6423 92.3426 L 79.9745 95.9417 L 76.1248 101.2105 L 73.9828 106.9685 L 78.9894 104.4371 L 83.674 104.0703 L 86.4672 104.8359 L 89.1668 107.6825 L 91.212 106.5456 L 95.2 106.045 L 99.7643 106.8362 L 103.7758 109.7987 L 106.0162 112.7356 L 108.0034 109.5991 L 111.5243 106.2641 L 115.5557 104.6077 L 120.704 104.3044 L 122.5653 104.7892 L 124.0889 101.5892 L 125.9736 100.226 L 128.6018 100.6116 L 131.492 102.0671 L 129.8445 98.3434 L 127.3488 94.5672 L 124.3416 91.7295 L 121.0491 89.6699 L 116.4893 89.0325 L 118.7731 90.8135 L 118.8244 92.5824 L 117.3488 94.7804 L 113.849 96.1904 L 110.707 96.6664 L 108.0966 96.8961 L 105.3792 93.4343 L 105.0549 95.5219 L 103.5937 95.5643 L 101.9095 93.2271 L 101.1862 97.4815 L 97.1169 97.8305 L 92.9394 97.105 L 89.5176 95.8957 L 87.9649 92.785 Z "/>
    <path id="ID0.5698574706912041" fill="none" stroke="#313537" stroke-width="0.952285195543715" stroke-linecap="round" d="M 87.2924 154.307 L 86.8675 157.5479 L 96.9533 161.1876 L 103.7101 160.4734 L 109.9419 163.3629 "/>
    <path id="ID0.5698574706912041" fill="none" stroke="#313537" stroke-width="0.8933066555174622" stroke-linecap="round" d="M 129.0897 152.3388 L 129.7772 155.5209 L 121.396 160.1353 L 115.4706 160.0905 L 110.3552 163.5789 "/>
    <path id="ID0.8947288258932531" fill="#393C40" stroke="none" stroke-linecap="round" d="M 87.9701 142.3035 L 94.9772 141.8144 L 102.6139 143.3186 L 108.5633 148.5355 L 101.2477 144.535 L 90.4228 143.6044 L 85.4707 146.8935 L 87.9701 142.3035 Z " stroke-width="0.4761425977718575"/>
    <path id="ID0.8947288258932531" fill="#393C40" stroke="none" stroke-linecap="round" d="M 126.6929 141.2481 L 120.4807 141.4705 L 113.9001 143.5057 L 109.1503 148.6512 L 115.2158 144.449 L 124.6556 142.6216 L 129.3201 145.0548 L 126.6929 141.2481 Z " stroke-width="0.42137390024020793"/>
    <path id="ID0.9897695370018482" fill="#393C40" stroke="none" stroke-linecap="round" d="M 92.0636 154.3651 L 85.5006 154.2347 L 85.6838 149.5762 L 87.057 153.0083 L 92.1522 152.8824 L 98.4703 156.0534 L 103.9195 155.4082 L 108.084 156.6188 L 109.0488 148.7006 L 109.8035 158.4829 L 104.1112 156.7808 L 98.239 157.0907 L 92.0636 154.3651 Z " stroke-width="0.4761425977718575"/>
    <path id="ID0.9897695370018482" fill="#393C40" stroke="none" stroke-linecap="round" d="M 124.3009 152.8886 L 129.8066 152.1546 L 129.2171 147.8621 L 128.3834 151.1655 L 124.0878 151.5252 L 119.0721 155.0493 L 114.4304 154.9617 L 111.0422 156.4708 L 109.491 149.2359 L 109.7708 158.3561 L 114.3975 156.2494 L 119.3636 155.9873 L 124.3009 152.8886 Z " stroke-width="0.42322513793792904"/>
    <path id="ID0.3524594851769507" fill="#393C40" stroke="none" stroke-linecap="round" d="M 100.6446 119.1505 L 106.656 121.0265 L 110.9788 118.462 L 108.0176 122.4327 L 109.5558 133.5088 L 118.5686 132.1748 L 108.3437 136.2905 L 96.4473 132.2219 L 106.23 133.732 L 105.231 122.4844 L 100.6446 119.1505 Z " stroke-width="0.4761425977718575"/>
    <path id="ID0.9214867809787393" fill="#393C40" stroke="none" stroke-linecap="round" d="M 87.7655 138.4283 L 90.5152 134.0634 L 95.2198 132.8615 L 89.6461 137.9237 L 89.5627 140.8605 L 94.6054 140.642 L 102.9292 143.4211 L 93.866 141.9923 L 88.0176 142.3009 L 87.7655 138.4283 Z " stroke-width="0.4761425977718575"/>
    <path id="ID0.9214867809787393" fill="#393C40" stroke="none" stroke-linecap="round" d="M 126.1629 137.1689 L 123.2311 133.2967 L 118.8316 132.6188 L 124.4019 136.8751 L 124.7667 139.6543 L 120.1564 139.9431 L 113.6699 143.1294 L 120.9621 141.1519 L 126.3145 140.8694 L 126.1629 137.1689 Z " stroke-width="0.44517886660695116"/>
    <path id="ID0.8679121839813888" fill="#2C2F31" stroke="none" stroke-linecap="round" d="M 102.5388 117.9565 L 106.428 119.3723 L 109.6697 117.5562 L 110.6709 118.457 L 106.8887 121.3268 L 101.0175 119.3957 L 102.5388 117.9565 Z " stroke-width="0.4761425977718575"/>
    <path id="ID0.24770551454275846" fill="none" stroke="#313537" stroke-width="0.952285195543715" stroke-linecap="round" d="M 106.4746 115.7742 L 111.2988 119.0956 L 118.8127 119.1758 L 126.3639 117.7045 L 131.3934 113.6245 "/>
    <path id="ID0.20603158557787538" fill="none" stroke="#313537" stroke-width="0.952285195543715" stroke-linecap="round" d="M 72.9455 113.5462 L 80.2412 118.5252 L 92.7731 121.0822 L 99.9928 120.1051 L 105.967 115.8561 "/>
    <g id="ID0.5272086253389716">
      <path id="ID0.24770551454275846" fill="none" stroke="#363A3D" stroke-width="0.95228513582557" stroke-linecap="round" d="M 78.0703 145.8585 L 87.7934 142.1745 "/>
      <path id="ID0.24770551454275846" fill="none" stroke="#363A3D" stroke-width="0.95228513582557" stroke-linecap="round" d="M 74.8728 134.0562 L 94.9434 126.7745 "/>
    </g>
    <g id="ID0.5272086253389716">
      <path id="ID0.24770551454275846" fill="none" stroke="#363A3D" stroke-width="0.9522851073422197" stroke-linecap="round" d="M 133.3731 141.9819 L 126.3477 140.5178 "/>
      <path id="ID0.24770551454275846" fill="none" stroke="#363A3D" stroke-width="0.9522851073422197" stroke-linecap="round" d="M 133.2687 130.6209 L 119.1622 126.598 "/>
    </g>
    <g id="ID0.7887678607366979">
      <path id="ID0.753661650698632" fill="none" stroke="#313537" stroke-width="0.95228513582557" stroke-linecap="round" d="M 101.1263 119.2442 L 106.4821 121.3456 L 110.3857 118.5171 "/>
      <g id="ID0.8167418288066983">
        <path id="ID0.9553722990676761" fill="none" stroke="#313537" stroke-width="1.0409108012151815" stroke-linecap="round" d="M 107.8885 136.181 L 102.1706 134.3371 L 95.9047 132.7606 L 91.1906 133.9631 L 87.9134 138.4273 L 88.0953 141.8745 "/>
        <path id="ID0.5982440118677914" fill="none" stroke="#313537" stroke-width="0.8540413731811805" stroke-linecap="round" d="M 96.1931 132.3301 L 94.7254 127.1069 L 99.5837 119.7829 "/>
      </g>
      <g id="ID0.7324484633281827">
        <path id="ID0.04993448918685317" fill="none" stroke="#313537" stroke-width="0.95228513582557" stroke-linecap="round" d="M 106.4758 121.2267 L 107.7412 131.6496 L 109.0825 148.0286 L 110.1798 164.3013 "/>
        <g id="ID0.8167418288066983">
          <path id="ID0.9553722990676761" fill="none" stroke="#313537" stroke-width="0.9699703491767683" stroke-linecap="round" d="M 108.1492 136.0062 L 113.1061 134.3856 L 118.4285 132.1975 L 122.6691 132.9273 L 125.9761 137.044 L 126.158 140.4912 "/>
          <path id="ID0.5982440118677914" fill="none" stroke="#313537" stroke-width="0.7916616355738881" stroke-linecap="round" d="M 118.146 131.8566 L 118.9125 126.5155 L 113.9402 119.7104 "/>
          <path id="ID0.3567589442245662" fill="none" stroke="#313537" stroke-width="0.8967655535582595" stroke-linecap="round" d="M 108.9413 148.6948 L 113.802 143.4556 L 121.0202 141.1674 L 126.5405 140.8761 L 129.0226 145.3939 L 129.6856 152.3918 L 124.182 153.3975 L 118.6993 156.7861 L 113.7729 156.8077 L 109.6666 158.8602 L 103.7008 156.6718 L 98.1304 157.2042 L 91.5478 154.4525 L 85.2162 154.0714 L 85.1805 147.0404 L 87.4869 142.2699 L 93.76 141.9388 L 102.1826 143.4014 L 108.2579 148.0634 Z "/>
        </g>
      </g>
    </g>
    <g id="ID0.9312638868577778">
      <path id="ID0.2888958193361759" fill="#393C40" stroke="none" stroke-linecap="round" d="M 90.2945 162.3815 L 100.6073 163.9244 L 100.1669 166.8675 L 89.8542 165.3247 L 90.2945 162.3815 Z " stroke-width="0.476142544151552"/>
      <path id="ID0.2888958193361759" fill="#393C40" stroke="none" stroke-linecap="round" d="M 79.4171 160.8701 L 91.0073 162.7244 L 90.5669 165.6675 L 80.2542 164.1247 L 79.4171 160.8701 Z " stroke-width="0.476142544151552"/>
      <g id="ID0.36424446757882833">
        <path id="ID0.7359844641759992" fill="#8A7B59" stroke="none" d="M 93.1832 161.5531 L 94.7047 161.4728 L 95.0335 167.7016 L 93.5119 167.7819 L 93.1832 161.5531 Z " stroke-width="0.476142567912785"/>
        <path id="ID0.7359844641759992" fill="#8A7B59" stroke="none" d="M 91.2332 161.2031 L 92.7547 161.1228 L 93.0835 167.3516 L 91.5619 167.4319 L 91.2332 161.2031 Z " stroke-width="0.476142567912785"/>
        <path id="ID0.7359844641759992" fill="#8A7B59" stroke="none" d="M 89.2332 160.6531 L 90.7547 160.5728 L 91.0835 166.8016 L 89.5619 166.8819 L 89.2332 160.6531 Z " stroke-width="0.476142567912785"/>
        <path id="ID0.7359844641759992" fill="#8A7B59" stroke="none" d="M 95.0332 161.9531 L 96.5547 161.8728 L 96.8835 168.1016 L 95.3619 168.1819 L 95.0332 161.9531 Z " stroke-width="0.476142567912785"/>
      </g>
      <g id="ID0.1049797898158431">
        <path id="ID0.08871637750416994" fill="#8A7B59" stroke="none" stroke-linecap="round" d="M 81.1604 160.134 L 87.6108 160.8425 L 87.8582 166.4319 L 81.6442 165.6871 L 81.1604 160.134 Z " stroke-width="0.476142567912785"/>
        <path id="ID0.13805592898279428" fill="#76694C" stroke="none" stroke-linecap="round" d="M 80.9331 159.8849 L 87.6926 160.5771 L 87.9395 163.4487 L 81.1512 162.6627 L 80.9331 159.8849 Z " stroke-width="0.476142567912785"/>
        <path id="ID0.3221200187690556" fill="#61563F" stroke="none" stroke-linecap="round" d="M 83.8305 161.9553 L 84.7269 162.2702 L 84.8969 164.0208 L 83.9245 163.7357 L 83.8305 161.9553 Z " stroke-width="0.5167889076215454"/>
        <path id="ID0.1420820001512766" fill="#BAA578" stroke="none" stroke-linecap="round" d="M 87.1228 165.5398 L 87.7607 164.0757 L 87.9299 166.3793 L 81.6247 165.7108 L 87.1228 165.5398 Z " stroke-width="0.476142567912785"/>
      </g>
      <path id="ID0.2888958193361759" fill="#393C40" stroke="none" stroke-linecap="round" d="M 127.8508 160.8274 L 120.5332 163.0293 L 121.0985 165.5395 L 128.4161 163.3376 L 127.8508 160.8274 Z " stroke-width="0.38104699715630636"/>
      <path id="ID0.2888958193361759" fill="#393C40" stroke="none" stroke-linecap="round" d="M 134.3168 158.6222 L 127.4332 160.9293 L 127.9985 163.4395 L 134.0495 161.5544 L 134.3168 158.6222 Z " stroke-width="0.38104699715630636"/>
      <path id="ID0.7359844641759992" fill="#8A7B59" stroke="none" d="M 125.7944 159.8774 L 124.6888 159.9358 L 124.9748 165.3542 L 126.0803 165.2959 L 125.7944 159.8774 Z " stroke-width="0.38160280748875314"/>
      <path id="ID0.7359844641759992" fill="#8A7B59" stroke="none" d="M 127.1444 159.3274 L 126.0388 159.3858 L 126.3248 164.8042 L 127.4303 164.7459 L 127.1444 159.3274 Z " stroke-width="0.38160280748875314"/>
      <path id="ID0.7359844641759992" fill="#8A7B59" stroke="none" d="M 128.5944 158.7774 L 127.4888 158.8358 L 127.7748 164.2542 L 128.8803 164.1959 L 128.5944 158.7774 Z " stroke-width="0.38160280748875314"/>
      <path id="ID0.7359844641759992" fill="#8A7B59" stroke="none" d="M 124.3444 160.5274 L 123.2388 160.5858 L 123.5248 166.0042 L 124.6303 165.9459 L 124.3444 160.5274 Z " stroke-width="0.38160280748875314"/>
      <g id="ID0.1049797898158431">
        <path id="ID0.08871637750416994" fill="#8A7B59" stroke="none" stroke-linecap="round" d="M 134.4444 157.5749 L 129.5584 158.8024 L 129.8677 163.9642 L 134.569 162.7245 L 134.4444 157.5749 Z " stroke-width="0.4054529781612835"/>
        <path id="ID0.13805592898279428" fill="#76694C" stroke="none" stroke-linecap="round" d="M 134.7042 157.3747 L 129.5796 158.6148 L 129.6465 161.2774 L 134.7848 159.9486 L 134.7042 157.3747 Z " stroke-width="0.4054529781612835"/>
        <path id="ID0.3221200187690556" fill="#61563F" stroke="none" stroke-linecap="round" d="M 132.7238 159.493 L 132.0641 159.8626 L 132.0899 161.4875 L 132.8106 161.1386 L 132.7238 159.493 Z " stroke-width="0.44006482109231615"/>
        <path id="ID0.1420820001512766" fill="#BAA578" stroke="none" stroke-linecap="round" d="M 130.4644 163.1233 L 129.8442 161.834 L 129.92 163.9674 L 134.6981 162.7897 L 130.4644 163.1233 Z " stroke-width="0.4054529781612835"/>
      </g>
      <g id="ID0.6836685389280319">
        <path id="ID0.09357938077300787" fill="#857656" stroke="none" d="M 101.0201 161.0687 L 118.9695 160.1213 L 119.3083 166.5403 L 101.3589 167.4877 L 101.0201 161.0687 Z " stroke-width="0.4283320877076776"/>
        <path id="ID0.6492703901603818" fill="#7C6E50" stroke="none" stroke-linecap="round" d="M 101.8048 163.2202 L 110.17 165.8779 L 118.827 162.3217 L 119.0516 166.5773 L 102.0294 167.4757 L 101.8048 163.2202 Z " stroke-width="0.476142567912785"/>
        <g id="ID0.9254062357358634">
          <g id="ID0.49943465692922473">
            <path id="ID0.140373723115772" fill="#968561" stroke="none" d="M 117.3359 159.0445 L 122.4474 158.7748 L 122.9242 167.8089 L 117.8128 168.0787 L 117.3359 159.0445 Z " stroke-width="0.476142567912785"/>
            <path id="ID0.8286363878287375" fill="#BAA578" stroke="none" stroke-linecap="round" d="M 117.33 158.8459 L 122.5729 158.8076 L 118.4763 159.7867 L 117.567 161.9803 L 117.33 158.8459 Z " stroke-width="0.476142567912785"/>
            <path id="ID0.7362233307212591" fill="#8A7B59" stroke="none" stroke-linecap="round" d="M 117.675 164.9308 L 120.3878 164.8353 L 122.7085 162.2811 L 123.0034 167.868 L 117.8444 168.1403 L 117.675 164.9308 Z " stroke-width="0.476142567912785"/>
          </g>
          <g id="ID0.49943465692922473">
            <path id="ID0.140373723115772" fill="#968561" stroke="none" d="M 102.3055 160.0859 L 97.194 160.3557 L 97.6709 169.3899 L 102.7823 169.1201 L 102.3055 160.0859 Z " stroke-width="0.476142567912785"/>
            <path id="ID0.8286363878287375" fill="#BAA578" stroke="none" stroke-linecap="round" d="M 102.329 159.8674 L 97.1112 160.3812 L 101.288 160.9237 L 102.4233 163.0094 L 102.329 159.8674 Z " stroke-width="0.476142567912785"/>
            <path id="ID0.7362233307212591" fill="#8A7B59" stroke="none" stroke-linecap="round" d="M 102.6264 165.9548 L 99.9187 166.1454 L 97.342 163.8497 L 97.6369 169.4366 L 102.7958 169.1643 L 102.6264 165.9548 Z " stroke-width="0.476142567912785"/>
          </g>
        </g>
      </g>
    </g>
  </g>
  <g id="ID0.8333355090580881">
    <path id="ID0.9286923445761204" fill="#27282B" stroke="none" stroke-linecap="round" d="M 87.5955 45.0749 L 106.4608 45.1659 L 108.724 69.4199 L 124.4439 75.424 L 102.4846 88.4275 L 64.9993 78.6072 L 84.0467 66.5819 L 87.5955 45.0749 Z " stroke-width="0.4761425967667444"/>
    <path id="ID0.5448851804248989" fill="none" stroke="#1D1E1F" stroke-width="0.9522851935334888" stroke-linecap="round" d="M 85.0482 60.7312 L 84.2226 66.378 L 101.8469 72.958 L 108.4461 69.5359 "/>
    <path id="ID0.262191956397146" fill="none" stroke="#1D1E1F" stroke-width="0.9522851935334888" stroke-linecap="round" d="M 88.166 65.467 L 101.2992 70.7066 L 104.2086 69.3704 "/>
  </g>
  <g id="ID0.3450673264451325">
    <g id="ID0.9831569031812251">
      <path id="ID0.0877610077150166" fill="#2E3034" stroke="none" stroke-linecap="round" d="M 111.6294 13.7323 L 107.3589 0.5144 L 106.7051 29.0355 L 114.3745 29.2113 L 111.6294 13.7323 Z " stroke-width="0.5866066595958204"/>
      <path id="ID0.796130308881402" fill="#242628" stroke="none" stroke-linecap="round" d="M 111.9412 13.751 L 107.3151 0.525 L 110.5533 14.4408 L 111.1518 29.3458 L 114.3329 29.1235 L 111.9412 13.751 Z " stroke-width="0.5866066595958204"/>
    </g>
    <g id="ID0.9831569031812251">
      <path id="ID0.0877610077150166" fill="#2E3034" stroke="none" stroke-linecap="round" d="M 87.7654 13.3092 L 92.6371 0.3009 L 91.9833 28.822 L 84.314 28.6462 L 87.7654 13.3092 Z " stroke-width="0.5866066595958204"/>
      <path id="ID0.796130308881402" fill="#242628" stroke="none" stroke-linecap="round" d="M 87.3549 13.3345 L 92.5822 0.3342 L 88.7098 14.0871 L 87.2841 28.6177 L 84.2613 28.5812 L 87.3549 13.3345 Z " stroke-width="0.5866066595958204"/>
    </g>
    <path id="ID0.8999492498114705" fill="#2E3034" stroke="none" stroke-linecap="round" d="M 105.17 19.5579 C 109.5621 20.1377 114.2306 22.9559 116.2733 26.8866 C 118.604 31.3744 116.5284 36.9268 116.7136 41.9279 C 116.8477 43.6349 117.5999 45.4053 117.232 47.0215 C 116.4828 50.309 114.7399 53.2987 113.5854 56.4661 C 112.8289 58.5419 112.6205 60.8925 111.4082 62.7683 C 110.0411 64.9902 108.6269 68.0927 106.0175 68.4887 C 102.1491 69.0754 98.1159 67.1413 94.7074 65.3075 C 91.9074 63.8006 89.3053 61.5284 87.7949 58.7207 C 85.0939 53.5125 82.6633 47.7953 82.4126 41.9039 C 82.1349 35.3731 81.5498 27.2915 86.4104 22.685 C 90.7656 18.2423 98.6409 18.6988 105.17 19.5579 Z " stroke-width="0.5080373012402148"/>
    <path id="ID0.2441388238221407" fill="#AB8E85" stroke="none" d="M 102.2956 44.3585 C 106.3709 44.6189 111.8811 41.5797 114.5426 44.388 C 116.9377 47.0343 113.4591 51.8172 112.4089 55.2677 C 111.363 58.6995 110.5893 62.4214 108.2866 65.2226 C 107.1904 66.4662 104.964 66.4868 103.2401 66.1747 C 100.1403 65.6099 97.1087 64.2566 94.5559 62.4068 C 91.9141 60.4934 88.4138 58.3832 87.9164 55.1459 C 87.2869 51.0452 88.0747 45.6667 91.3315 43.165 C 94.3159 40.9836 98.6305 44.1237 102.2956 44.3585 Z " stroke-width="1.2558400359954982"/>
    <path id="ID0.46721756737679243" fill="#A2887F" stroke="none" stroke-linecap="round" d="M 87.6459 45.1589 L 89.3063 45.883 L 115.3197 46.0981 L 107.9911 51.0118 L 91.3121 48.1649 L 92.3748 50.5776 L 92.5001 56.1958 L 95.9668 63.4659 L 91.5488 56.6822 L 87.6459 45.1589 Z " stroke-width="0.5080373012402148"/>
    <path id="ID0.8256730306893587" fill="none" stroke="#937B73" stroke-width="1.0160746024804297" stroke-linecap="round" d="M 98.3309 57.145 C 98.3309 57.145 101.0431 56.6106 102.4122 56.4509 C 102.7546 56.411 103.0911 56.4964 103.4263 56.5504 C 103.767 56.6054 104.0923 56.7806 104.4374 56.7768 C 105.1216 56.7696 105.795 56.5879 106.476 56.5186 C 106.8137 56.4842 107.1544 56.4539 107.4936 56.4657 C 107.8333 56.4776 108.1777 56.5058 108.5071 56.5906 C 109.0486 56.7301 110.0953 57.1352 110.0953 57.1352 "/>
    <path id="ID0.7592270169407129" fill="none" stroke="#937B73" stroke-width="1.0160746024804297" stroke-linecap="round" d="M 106.8464 58.6929 C 106.8464 58.6929 106.2168 59.0235 105.872 59.0771 C 105.5375 59.1294 105.1949 58.9767 104.8574 59.0031 C 104.5178 59.0298 104.1999 59.1994 103.8612 59.2343 C 103.5245 59.2693 103.1733 59.2937 102.8454 59.211 C 102.5665 59.1406 102.0928 58.7872 102.0928 58.7872 "/>
    <path id="ID0.5332203092984855" fill="none" stroke="#937B73" stroke-width="1.0160746024804297" stroke-linecap="round" d="M 101.1231 49.1266 C 101.1231 49.1266 100.5078 49.5445 100.3946 49.8722 C 100.2473 50.3114 99.9735 51.1502 100.4087 51.4732 C 100.9826 51.7766 101.7576 51.0671 102.4491 51.1389 C 103.1182 51.2111 104.4183 51.6922 104.4183 51.6922 "/>
    <path id="ID0.2278452254831791" fill="none" stroke="#937B73" stroke-width="1.0160746024804297" stroke-linecap="round" d="M 105.5496 45.5693 C 105.5496 45.5693 106.4409 47.4527 106.8823 48.3948 C 107.03 48.7102 107.1937 49.0198 107.3178 49.3449 C 107.442 49.6699 107.6469 49.9957 107.6253 50.3428 C 107.6036 50.6909 107.39 51.0082 107.1968 51.2985 C 107.0679 51.4928 106.6779 51.7694 106.6779 51.7694 "/>
    <path id="ID0.6473136460408568" fill="none" stroke="#937B73" stroke-width="1.016074630935581" stroke-linecap="round" d="M 105.5162 62.4999 C 105.5162 62.4999 105.8183 63.1418 105.8613 63.4874 C 105.9027 63.824 105.8347 64.1701 105.7635 64.5017 C 105.6567 65.0013 105.3291 65.9733 105.3291 65.9733 "/>
    <path id="ID0.11669129692018032" fill="#2E3034" stroke="none" stroke-linecap="round" d="M 89.6982 39.8701 L 112.8941 42.1804 L 116.7692 44.9372 L 107.2653 49.4199 L 86.6264 46.4059 L 89.6982 39.8701 Z " stroke-width="0.5080373012402148"/>
    <path id="ID0.14635155349969864" fill="#2E3034" stroke="none" stroke-linecap="round" d="M 86.9112 45.0658 L 88.7563 45.4892 L 91.2781 50.7558 L 91.4507 56.5275 L 93.1918 60.3787 L 96.006 63.975 L 87.8973 58.5803 L 86.9112 45.0658 Z " stroke-width="0.5080373012402148"/>
    <path id="ID0.28340246016159654" fill="#1C1D1F" stroke="none" stroke-linecap="round" d="M 89.953 36.6711 L 93.3465 38.2886 L 102.9914 39.4011 L 102.8596 45.1516 L 95.9427 44.0477 L 92.1068 42.8792 L 90.1166 41.3209 L 89.2923 39.5732 L 89.953 36.6711 Z " stroke-width="0.5401026503554569"/>
    <path id="ID0.6101007834076881" fill="#FFFFFF" stroke="none" stroke-linecap="round" d="M 93.6402 39.3267 L 95.2833 39.7643 L 99.0347 41.0518 L 99.5342 43.032 L 94.3141 41.4591 L 93.6402 39.3267 Z " stroke-width="0.4061062003853421"/>
    <path id="ID0.28340246016159654" fill="#1C1D1F" stroke="none" stroke-linecap="round" d="M 115.4899 37.3284 L 112.4009 38.6306 L 103.7639 39.2275 L 103.6463 44.3555 L 109.8529 43.6547 L 113.3177 42.7706 L 115.1542 41.4638 L 115.9599 39.9406 L 115.4899 37.3284 Z " stroke-width="0.48162500024422156"/>
    <path id="ID0.6101007834076881" fill="#FFFFFF" stroke="none" stroke-linecap="round" d="M 113.7596 39.3346 L 112.2073 39.7905 L 108.6703 41.1058 L 108.2432 43.0014 L 113.1701 41.3791 L 113.7596 39.3346 Z " stroke-width="0.38638674653227917"/>
    <g id="ID0.07940126257017255">
      <path id="ID0.46257128613069654" fill="#27282B" stroke="none" stroke-linecap="round" d="M 103.1492 39.2916 L 107.2635 49.3461 L 97.2616 47.8464 L 103.1492 39.2916 Z " stroke-width="0.5080373012402148"/>
      <path id="ID0.9845890481956303" fill="#27282B" stroke="none" stroke-linecap="round" d="M 103.9624 39.4348 L 112.0724 46.9892 L 107.3415 49.4216 L 103.9624 39.4348 Z " stroke-width="0.5080373012402148"/>
    </g>
    <path id="ID0.20071752788498998" fill="#202324" stroke="none" d="M 94.8482 34.5227 L 98.9288 37.1825 L 103.6509 38.4596 L 103.6951 39.858 L 95.9533 38.4101 L 90.1152 35.9387 L 91.8828 34.2006 L 94.8482 34.5227 Z " stroke-width="0.5080373012402148"/>
    <path id="ID0.20071752788498998" fill="#202324" stroke="none" d="M 111.8533 34.6495 L 108.7451 37.0259 L 103.4671 38.4668 L 103.3678 39.7466 L 110.524 38.7451 L 115.999 36.8426 L 114.5126 34.5706 L 111.8533 34.6495 Z " stroke-width="0.46609799529578166"/>
    <path id="ID0.521138689480722" fill="none" stroke="#212325" stroke-width="0.9060627424092008" stroke-linecap="round" d="M 115.5937 37.064 L 112.319 38.5749 L 103.7531 39.6247 "/>
    <path id="ID0.17828734638169408" fill="none" stroke="#202324" stroke-width="1.0160746024804297" stroke-linecap="round" d="M 107.1765 48.8589 L 104.422 41.5543 C 103.4769 39.1127 103.6121 39.6845 103.4454 38.7115 C 103.3871 38.3718 103.6127 38.0405 103.6718 37.7004 C 103.7298 37.3653 103.8016 37.027 103.7967 36.6869 C 103.7919 36.3433 103.7005 36.0053 103.6422 35.667 C 103.5512 35.139 103.3482 34.085 103.3482 34.085 "/>
    <path id="ID0.521138689480722" fill="none" stroke="#212325" stroke-width="1.0160746024804297" stroke-linecap="round" d="M 90.2182 36.1871 L 93.8089 38.048 L 103.3509 39.6642 "/>
    <path id="ID0.8012696979567409" fill="none" stroke="url(#grad_1)" stroke-width="1.0160746024804297" stroke-linecap="round" d="M 115.3302 45.641 L 107.7744 49.3807 L 89.2386 46.6183 L 91.131 50.5237 L 91.296 56.6256 L 93.1434 60.2759 L 95.9552 63.9738 "/>
    <path id="ID0.043594349175691605" fill="#D7E2FD" stroke="none" stroke-linecap="round" d="M 98.812 42.0748 L 99.0662 40.9627 L 99.5269 43.0313 L 96.9535 42.2355 L 98.812 42.0748 Z " stroke-width="0.5080373012402148"/>
    <path id="ID0.043594349175691605" fill="#D7E2FD" stroke="none" stroke-linecap="round" d="M 108.9624 42.1476 L 108.7203 41.1391 L 108.322 43.0242 L 110.6535 42.2752 L 108.9624 42.1476 Z " stroke-width="0.46186428047362077"/>
  </g>
  <path id="ID0.7729651997797191" fill="#3E4246" stroke="none" stroke-linecap="round" d="M 65.7094 114.7831 L 72.2038 95.5452 L 98.1109 105.3198 L 119.0482 113.1048 L 127.1923 118.9729 L 131.8851 123.6223 L 123.5522 134.6818 L 113.888 133.909 L 83.5637 121.2251 L 65.7094 114.7831 Z " stroke-width="1.0990894926744006"/>
  <path id="ID0.9716172609478235" fill="#393C40" stroke="none" stroke-linecap="round" d="M 59.5507 110.4392 L 54.4913 108.4376 L 55.8845 101.7857 L 74.5522 110.1534 L 71.7613 113.3879 L 66.403 115.6654 L 59.5507 110.4392 Z " stroke-width="0.8164595751938352"/>
  <g id="ID0.38066427363082767">
    <path id="ID0.4757494777441025" fill="#1D1E1F" stroke="none" stroke-linecap="round" d="M 62.6054 79.3113 L 70.9955 76.5451 L 87.2615 80.2412 L 80.9408 106.2491 L 70.9797 111.9956 L 66.5473 113.3961 L 63.1672 111.2579 L 60.0995 108.4998 L 54.2089 106.3076 L 53.6881 100.8555 L 53.806 92.7305 L 56.3995 84.1845 L 62.6054 79.3113 Z " stroke-width="0.47614256704487584"/>
    <path id="ID0.6007084371522069" fill="none" stroke="#0D0D0D" stroke-width="0.9522851340897517" stroke-linecap="round" d="M 54.71 106.6288 L 59.9808 108.5085 L 64.5255 111.874 L 66.556 113.5149 L 70.9797 111.9956 L 75.2061 109.4166 "/>
  </g>
  <g id="ID0.7397577832452953">
    <path id="ID0.6726378230378032" fill="#393C40" stroke="none" stroke-linecap="round" d="M 129.163 132.637 L 113.9692 121.9627 L 115.0155 119.7722 L 129.7864 130.5671 L 129.163 132.637 Z " stroke-width="0.8164596436197838"/>
    <path id="ID0.6507829907350242" fill="#1D1E1F" stroke="none" stroke-linecap="round" d="M 132.5162 131.8061 L 114.678 119.7106 L 117.0275 100.8695 L 120.1446 90.5202 L 121.7954 74.4799 L 121.855 67.9198 L 134.0435 67.1223 L 133.5778 73.6406 L 134.4021 83.5747 L 135.97 96.2528 L 136.8153 105.9839 L 132.5162 131.8061 Z " stroke-width="0.8164596436197838"/>
    <path id="ID0.6829322893172503" fill="#1D1E1F" stroke="none" stroke-linecap="round" d="M 134.4078 67.5702 L 123.5302 71.5805 L 120.8457 65.764 L 117.3909 59.4578 L 117.976 53.7727 L 119.0657 49.1654 L 121.4096 46.3287 L 123.5205 39.7746 L 128.1696 40.4583 L 129.1789 42.6141 L 130.7823 42.9843 L 133.7593 45.9582 L 136.8976 49.3591 L 138.4683 54.035 L 136.9247 61.0579 L 134.4078 67.5702 Z " stroke-width="0.8164596436197838"/>
    <path id="ID0.47767175547778606" fill="none" stroke="#0D0D0D" stroke-width="1.6329192872395677" stroke-linecap="round" d="M 132.9216 127.8671 L 132.2194 131.8987 L 114.7593 119.719 L 116.5176 105.8237 "/>
    <path id="ID0.5922487881034613" fill="#282A2B" stroke="none" stroke-linecap="round" d="M 137.0155 98.0994 L 129.4134 102.9804 L 123.3305 102.2723 L 117.7682 95.7082 L 120.7233 80.9511 L 126.1665 73.9192 L 129.6182 74.2744 L 134.9572 82.2109 L 137.0155 98.0994 Z " stroke-width="0.8164596436197838"/>
    <path id="ID0.36820242274552584" fill="#151616" stroke="none" stroke-linecap="round" d="M 131.0507 94.6909 L 122.5958 93.9028 L 126.4545 82.7271 L 127.9487 82.9629 L 131.0507 94.6909 Z " stroke-width="0.8164596436197838"/>
    <path id="ID0.13569410238415003" fill="none" stroke="#232425" stroke-width="1.6329192872395677" stroke-linecap="round" d="M 132.862 83.7855 L 127.9124 76.0533 L 121.9622 82.8279 "/>
    <path id="ID0.024502143263816833" fill="none" stroke="#0D0D0D" stroke-width="1.6329192872395677" stroke-linecap="round" d="M 136.5004 98.2772 L 129.6628 102.9085 L 123.6276 102.5337 L 117.9841 95.9612 L 119.7552 87.5254 "/>
  </g>
</svg>