<svg xmlns="http://www.w3.org/2000/svg" xmlns:xlink="http://www.w3.org/1999/xlink" version="1.1" width="423.9405653479488" height="295.23225235966754" viewBox="1.3164237736269262 1.6436237095400121 423.9405653479488 295.23225235966754">
  <defs>
    <linearGradient id="grad_1" y2="1" x2="0">
      <stop offset="0" stop-color="#222325" stop-opacity="1"/>
      <stop offset="1" stop-color="#2E3034" stop-opacity="1"/>
    </linearGradient>
  </defs>
  <!-- Exported by Scratch - http://scratch.mit.edu/ -->
  <path id="ID0.7927394988946617" fill="#0D0D0D" stroke="#0D0D0D" stroke-width="1.2400576641892767" stroke-linecap="round" d="M 311.361 137.6344 L 325.6788 151.4286 L 328.2935 168.7176 L 348.0159 180.7562 L 364.5828 188.4531 L 375.514 190.932 L 424.4277 234.2588 L 414.1088 231.5352 L 400.836 230.3035 L 389.8919 233.1215 L 383.016 227.4653 L 379.0838 225.1772 L 372.7771 222.1885 L 366.2916 220.1738 L 358.7177 218.1895 L 353.7605 217.2449 L 346.9912 217.2736 L 342.6531 217.7002 L 335.8483 220.4824 L 331.1698 223.255 L 326.7122 226.9355 L 321.574 238.95 L 316.6393 226.6038 L 310.9668 218.0076 L 306.2465 212.8595 L 301.6602 209.5565 L 295.9224 205.5933 L 291.1214 204.773 L 286.2289 208.2538 L 275.7796 222.0799 L 272.5113 205.021 L 269.0201 196.0198 L 266.4347 189.5515 L 262.9559 184.3118 L 257.9873 178.4536 L 254.3884 175.223 L 248.3092 171.116 L 242.6696 167.4871 L 235.4785 165.6611 L 222.2051 169.8458 L 225.4786 157.5183 L 224.3966 151.2584 L 219.3037 144.7339 L 214.8803 139.5294 L 209.8662 134.6232 L 197.6189 126.0091 L 266.0902 86.8128 L 311.361 137.6344 Z "/>
  <path id="ID0.3809091211296618" fill="#393D40" stroke="none" stroke-linecap="round" d="M 229.2796 186.1372 L 246.0952 168.7344 L 260.5694 168.7031 L 268.2506 173.2779 L 279.3053 184.1782 L 277.7469 192.9569 L 273.4392 205.2306 L 258.0761 198.0694 L 250.4456 192.5621 L 229.2796 186.1372 Z " stroke-width="0.6733301234041615"/>
  <path id="ID0.7927394988946617" fill="#0D0D0D" stroke="#0D0D0D" stroke-width="1.2400576852863578" stroke-linecap="round" d="M 141.7789 113.3063 L 123.5543 121.2526 L 115.084 136.5497 L 92.4042 140.9687 L 74.194 142.4162 L 63.0837 140.9343 L 2.1457 164.521 L 12.7673 165.5604 L 25.6385 169.0267 L 34.9168 175.4786 L 43.3318 172.5702 L 47.8146 171.7942 L 54.7673 171.1882 L 61.5485 171.5575 L 69.3393 172.3342 L 74.3153 173.1746 L 80.651 175.5582 L 84.5693 177.4685 L 89.9797 182.4457 L 93.4002 186.6737 L 96.2976 191.6759 L 96.9314 204.7276 L 105.8558 194.8718 L 114.1662 188.7883 L 120.3835 185.6056 L 125.8328 184.1061 L 132.5914 182.3884 L 137.3777 183.291 L 140.7522 188.2573 L 145.7342 204.8564 L 154.7371 190.0026 L 161.1437 182.78 L 165.8193 177.6165 L 170.9047 173.9158 L 177.602 170.1539 L 182.1005 168.3783 L 189.2292 166.6448 L 195.7795 165.2064 L 203.1564 165.9982 L 214.1424 174.5424 L 215.3656 161.8464 L 218.5594 156.3548 L 225.6051 152.0117 L 231.5637 148.6727 L 237.9722 145.8191 L 252.4524 142.0079 L 201.9111 81.4253 L 141.7789 113.3063 Z "/>
  <g id="ID0.9602425838820636">
    <g id="ID0.17693647183477879">
      <path id="ID0.7729651997797191" fill="#393C40" stroke="none" stroke-linecap="round" d="M 275.1855 92.8234 L 261.1588 106.0961 L 274.2223 116.2343 L 284.6884 124.4844 L 291.0249 126.2883 L 295.6877 126.7004 L 302.8165 116.4116 L 300.2357 111.2079 L 283.9536 99.956 L 275.1855 92.8234 Z " stroke-width="0.778809863266042"/>
      <path id="ID0.9716172609478235" fill="#34373A" stroke="none" stroke-linecap="round" d="M 275.7162 99.6427 L 277.8482 94.9107 L 272.4743 91.2846 L 265.2605 109.4163 L 269.3199 109.775 L 274.5001 107.7726 L 275.7162 99.6427 Z " stroke-width="0.778809863266042"/>
      <g id="ID0.38066427363082767">
        <path id="ID0.4757494777441025" fill="#1D1E1F" stroke="none" stroke-linecap="round" d="M 253.0738 80.3584 L 245.4941 84.0411 L 236.8193 97.3799 L 258.4282 110.9768 L 269.0634 108.2896 L 273.0273 106.3024 L 273.9194 102.5929 L 274.1857 98.667 L 276.7599 93.2523 L 273.4931 89.1753 L 268.0129 83.6936 L 260.559 79.569 L 253.0738 80.3584 Z " stroke-width="0.4541860262502994"/>
        <path id="ID0.6007084371522069" fill="none" stroke="#0D0D0D" stroke-width="0.9083720525005988" stroke-linecap="round" d="M 276.6304 93.8051 L 274.2728 98.5941 L 273.3993 103.9172 L 273.1002 106.3895 L 269.0634 108.2896 L 264.4574 109.3334 "/>
      </g>
    </g>
    <g id="ID0.7397577832452953">
      <path id="ID0.6726378230378032" fill="#34373A" stroke="none" stroke-linecap="round" d="M 297.9376 109.5433 L 291.6373 126.0972 L 293.6346 127.2688 L 299.5364 110.8456 L 297.9376 109.5433 Z " stroke-width="0.778809863266042"/>
      <path id="ID0.6507829907350242" fill="#1D1E1F" stroke="none" stroke-linecap="round" d="M 301.0509 108.2393 L 293.4207 127.3293 L 305.3463 140.9605 L 313.34 147.4718 L 323.2167 159.2634 L 326.7696 164.4148 L 336.8262 158.5311 L 332.9747 153.6298 L 328.317 145.3401 L 322.7804 134.4849 L 318.2477 126.3445 L 301.0509 108.2393 Z " stroke-width="0.778809863266042"/>
      <path id="ID0.6829322893172503" fill="#1D1E1F" stroke="none" stroke-linecap="round" d="M 336.8746 157.9826 L 326.1368 160.6272 L 327.1242 166.6575 L 327.7646 173.4865 L 331.2652 177.6658 L 334.5885 180.7237 L 337.9564 181.7124 L 343.127 185.7629 L 346.4349 182.7381 L 346.0803 180.4954 L 347.1494 179.346 L 347.9122 175.4052 L 348.5743 171.041 L 347.3165 166.507 L 342.3437 161.783 L 336.8746 157.9826 Z " stroke-width="0.778809863266042"/>
      <path id="ID0.47767175547778606" fill="none" stroke="#0D0D0D" stroke-width="1.557619726532084" stroke-linecap="round" d="M 303.4763 111.135 L 300.7669 108.3248 L 293.4804 127.2793 L 302.2957 137.3185 "/>
      <path id="ID0.5922487881034613" fill="#282A2B" stroke="none" stroke-linecap="round" d="M 322.7113 132.5427 L 314.0963 132.7489 L 309.6685 136.5592 L 308.7816 144.7183 L 319.003 154.7988 L 327.0618 157.446 L 329.5992 155.3206 L 329.5762 146.1966 L 322.7113 132.5427 Z " stroke-width="0.778809863266042"/>
      <path id="ID0.36820242274552584" fill="#151616" stroke="none" stroke-linecap="round" d="M 319.731 138.2978 L 313.4718 143.439 L 322.4932 150.207 L 323.5477 149.2222 L 319.731 138.2978 Z " stroke-width="0.778809863266042"/>
      <path id="ID0.13569410238415003" fill="none" stroke="#232425" stroke-width="1.557619726532084" stroke-linecap="round" d="M 326.9875 145.9966 L 327.2089 154.7512 L 318.8871 152.5783 "/>
      <path id="ID0.024502143263816833" fill="none" stroke="#0D0D0D" stroke-width="1.557619726532084" stroke-linecap="round" d="M 322.1175 132.6019 L 314.2399 132.5968 L 309.6717 136.1183 L 308.7252 144.3274 L 314.6328 150.0463 "/>
    </g>
  </g>
  <g id="ID0.9602425838820636">
    <g id="ID0.17693647183477879">
      <path id="ID0.7729651997797191" fill="#3E4246" stroke="none" stroke-linecap="round" d="M 188.5104 79.5944 L 199.0617 96.8718 L 183.0627 103.5461 L 170.2097 109.0225 L 163.3034 109.1094 L 158.4725 108.2472 L 154.082 95.8813 L 158.1208 91.3241 L 177.6821 84.4059 L 188.5104 79.5944 Z " stroke-width="0.8164595899724926"/>
      <path id="ID0.9716172609478235" fill="#393C40" stroke="none" stroke-linecap="round" d="M 186.1027 86.3486 L 185.2436 80.9759 L 191.6758 78.7812 L 194.0007 99.106 L 189.7949 98.3554 L 185.1028 94.9082 L 186.1027 86.3486 Z " stroke-width="0.8164595899724926"/>
      <g id="ID0.38066427363082767">
        <path id="ID0.4757494777441025" fill="#1D1E1F" stroke="none" stroke-linecap="round" d="M 214.3431 72.9444 L 221.002 78.75 L 226.1201 94.6261 L 200.5259 102.4557 L 190.5022 96.8192 L 187.0366 93.7212 L 187.1517 89.7231 L 187.9592 85.6777 L 186.84 79.4929 L 191.2639 76.2639 L 198.3125 72.2209 L 206.986 70.0923 L 214.3431 72.9444 Z " stroke-width="0.47614253661487715"/>
        <path id="ID0.6007084371522069" fill="none" stroke="#0D0D0D" stroke-width="0.9522850732297543" stroke-linecap="round" d="M 186.8194 80.0877 L 187.8911 85.5801 L 187.3146 91.2057 L 186.939 93.7892 L 190.5022 96.8192 L 194.8763 99.1389 "/>
      </g>
    </g>
    <g id="ID0.7397577832452953">
      <path id="ID0.6726378230378032" fill="#393C40" stroke="none" stroke-linecap="round" d="M 160.9653 90.0923 L 162.7988 108.5701 L 160.4565 109.2076 L 158.9904 90.9713 L 160.9653 90.0923 Z " stroke-width="0.8164595899724926"/>
      <path id="ID0.6507829907350242" fill="#1D1E1F" stroke="none" stroke-linecap="round" d="M 158.1104 88.0968 L 160.5937 109.5055 L 144.7879 120.0262 L 134.9135 124.4215 L 121.6854 133.6429 L 116.6773 137.8805 L 108.116 129.1686 L 113.3575 125.2659 L 120.3443 118.156 L 128.9243 108.6914 L 135.7437 101.6983 L 158.1104 88.0968 Z " stroke-width="0.8164595899724926"/>
      <path id="ID0.6829322893172503" fill="#1D1E1F" stroke="none" stroke-linecap="round" d="M 108.2174 128.6002 L 118.3566 134.2217 L 115.7032 140.0525 L 113.1819 146.7864 L 108.4934 150.0548 L 104.292 152.2372 L 100.6131 152.3136 L 94.2703 154.9935 L 91.753 151.0255 L 92.7271 148.8536 L 91.9608 147.3973 L 92.2699 143.2007 L 92.7972 138.6033 L 95.3138 134.3608 L 101.6412 130.9452 L 108.2174 128.6002 Z " stroke-width="0.8164595899724926"/>
      <path id="ID0.47767175547778606" fill="none" stroke="#0D0D0D" stroke-width="1.6329191799449851" stroke-linecap="round" d="M 154.862 90.3613 L 158.3743 88.2612 L 160.5471 109.4385 L 148.8736 117.1781 "/>
      <path id="ID0.5922487881034613" fill="#282A2B" stroke="none" stroke-linecap="round" d="M 129.6559 106.7009 L 138.3161 109.2729 L 141.751 114.3429 L 140.4101 122.8416 L 127.3025 130.2373 L 118.4224 130.7049 L 116.438 127.8584 L 118.9642 118.6328 L 129.6559 106.7009 Z " stroke-width="0.8164595899724926"/>
      <path id="ID0.36820242274552584" fill="#151616" stroke="none" stroke-linecap="round" d="M 130.9665 113.4166 L 135.8893 120.3356 L 124.9046 124.7087 L 124.1078 123.4229 L 130.9665 113.4166 Z " stroke-width="0.8164595899724926"/>
      <path id="ID0.13569410238415003" fill="none" stroke="#232425" stroke-width="1.6329191799449851" stroke-linecap="round" d="M 121.5095 119.185 L 118.8838 127.9822 L 127.9 128.0666 "/>
      <path id="ID0.024502143263816833" fill="none" stroke="#0D0D0D" stroke-width="1.6329191799449851" stroke-linecap="round" d="M 130.1115 106.968 L 138.0836 109.1239 L 141.7397 113.9402 L 140.4455 122.5059 L 132.8992 126.6717 "/>
    </g>
  </g>
  <g id="ID0.9157347986474633">
    <path id="ID0.7477802094072104" fill="#363A3D" stroke="none" stroke-linecap="round" d="M 260.111 127.6223 L 241.3364 121.3673 L 234.5893 161.9972 L 249.5667 173.5343 L 255.8383 149.7186 L 260.111 127.6223 Z " stroke-width="0.4761425839687243"/>
    <path id="ID0.7477802094072104" fill="#363A3D" stroke="none" stroke-linecap="round" d="M 200.5461 117.7344 L 224.1473 118.7576 L 217.4002 159.3876 L 199.4979 165.4646 L 198.2107 139.7904 L 200.5461 117.7344 Z " stroke-width="0.4761425839687243"/>
    <path id="ID0.4270821204409003" fill="#3E4246" stroke="none" stroke-linecap="round" d="M 204.1623 97.9905 L 209.9675 86.2846 L 213.1541 80.9012 L 220.7631 75.0454 L 251.1777 81.5441 L 257.2865 86.9025 L 259.4418 91.3631 L 264.498 103.7866 L 262.0774 114.0032 L 260.241 119.2489 L 260.7539 126.3327 L 260.3266 131.8124 L 257.0819 138.2722 L 254.6269 143.1738 L 251.9316 152.1381 L 249.8232 173.9905 L 243.4048 181.2506 L 237.6663 186.5964 L 224.823 189.966 L 213.8808 185.084 L 211.1055 177.8176 L 207.2735 170.6653 L 199.3492 166.212 L 202.3755 141.0128 L 202.2932 134.2418 L 199.656 122.22 L 200.1388 111.3196 L 204.1623 97.9905 Z " stroke-width="0.4761425839687243"/>
    <path id="ID0.052435632329434156" fill="#393C40" stroke="none" stroke-linecap="round" d="M 207.9851 149.1931 L 212.3691 149.9694 L 218.3364 154.2907 L 223.3661 154.957 L 228.8745 157.6817 L 233.1835 157.3113 L 234.9055 157.1146 L 249.484 156.0845 L 249.2981 159.384 L 240.1608 162.0899 L 234.3401 160.8096 L 228.3218 162.8992 L 222.3231 158.3314 L 215.9118 157.7011 L 206.7893 152.3249 L 207.9851 149.1931 Z " stroke-width="0.4761425839687243"/>
    <path id="ID0.4987568911164999" fill="none" stroke="#27282B" stroke-width="0.9522851679374486" stroke-linecap="round" d="M 220.4489 75.6799 L 213.0938 80.7331 L 208.1678 90.051 "/>
    <path id="ID0.2889464790932834" fill="none" stroke="#27282B" stroke-width="0.9522851679374486" stroke-linecap="round" d="M 252.39 82.4321 L 257.4026 87.1258 L 261.5181 97.2211 "/>
    <path id="ID0.8373676878400147" fill="#000000" stroke="#2C2F31" stroke-width="0.6155104059455094" stroke-linecap="round" d="M 221.8949 89.1234 L 222.4853 87.6694 L 218.7458 87.9751 L 213.4119 90.4833 L 208.5169 94.7982 L 205.1838 99.959 L 210.6185 98.5665 L 215.272 99.2183 L 217.8344 100.5681 L 219.8569 103.9297 L 222.0991 103.2604 L 226.1013 103.6314 L 230.3876 105.388 L 233.6661 109.1456 L 235.2207 112.4965 L 237.8373 109.8621 L 241.9944 107.3647 L 246.2881 106.6163 L 251.3807 107.4301 L 253.0938 108.3047 L 255.2714 105.5084 L 257.4057 104.5836 L 259.889 105.5267 L 262.3974 107.5711 L 261.5914 103.5797 L 259.9686 99.3544 L 257.6438 95.9351 L 254.8727 93.2141 L 250.5576 91.6086 L 252.4037 93.8401 L 252.0725 95.5784 L 250.1577 97.4066 L 246.4362 98.029 L 243.2655 97.8165 L 240.667 97.478 L 238.7598 93.5117 L 237.993 95.4803 L 236.557 95.2067 L 235.4163 92.5614 L 233.7929 96.5598 L 229.744 96.0233 L 225.8211 94.4142 L 222.7405 92.4957 L 221.8949 89.1234 Z "/>
    <path id="ID0.5698574706912041" fill="none" stroke="#313537" stroke-width="0.9522851679374486" stroke-linecap="round" d="M 207.942 149.017 L 206.8283 152.09 L 215.8923 157.8185 L 222.6442 158.5777 L 228.1065 162.7428 "/>
    <path id="ID0.5698574706912041" fill="none" stroke="#313537" stroke-width="0.8933066562151265" stroke-linecap="round" d="M 249.2304 156.1221 L 249.2157 159.3776 L 240.0368 162.0766 L 234.2604 160.7554 L 228.5131 163.059 "/>
    <path id="ID0.8947288258932531" fill="#393C40" stroke="none" stroke-linecap="round" d="M 211.1915 137.4418 L 218.1392 138.4749 L 225.2721 141.59 L 229.9569 147.9669 L 223.6758 142.4833 L 213.3061 139.2409 L 207.7614 141.3851 L 211.1915 137.4418 Z " stroke-width="0.4761425839687243"/>
    <path id="ID0.8947288258932531" fill="#393C40" stroke="none" stroke-linecap="round" d="M 249.2617 144.7898 L 243.1476 143.6677 L 236.283 144.2363 L 230.5356 148.2368 L 237.3643 145.441 L 246.9762 145.6917 L 251.0064 149.0733 L 249.2617 144.7898 Z " stroke-width="0.42137391058675056"/>
    <path id="ID0.9897695370018482" fill="#393C40" stroke="none" stroke-linecap="round" d="M 212.5884 150.1023 L 206.2079 148.5601 L 207.3911 144.0506 L 207.9921 147.698 L 212.9946 148.6735 L 218.4805 153.1321 L 223.9407 153.6768 L 227.7462 155.7568 L 230.3954 148.2327 L 229.0234 157.9478 L 223.8319 155.0585 L 218.031 154.0952 L 212.5884 150.1023 Z " stroke-width="0.4761425839687243"/>
    <path id="ID0.9897695370018482" fill="#393C40" stroke="none" stroke-linecap="round" d="M 244.4162 155.6362 L 249.9506 156.1063 L 250.3004 151.7877 L 248.7741 154.8336 L 244.502 154.2589 L 238.8445 156.6187 L 234.3308 155.5325 L 230.697 156.2757 L 230.742 148.8765 L 229.049 157.8425 L 234.0211 156.7829 L 238.9269 157.5975 L 244.4162 155.6362 Z " stroke-width="0.4232251200282832"/>
    <path id="ID0.3524594851769507" fill="#393C40" stroke="none" stroke-linecap="round" d="M 228.5583 117.5765 L 234.0239 120.7043 L 238.7979 119.1321 L 235.0503 122.371 L 234.1645 133.5183 L 243.2529 134.1587 L 232.3812 135.9733 L 221.6416 129.4356 L 230.8687 133.0192 L 232.3181 121.8208 L 228.5583 117.5765 Z " stroke-width="0.4761425839687243"/>
    <path id="ID0.9214867809787393" fill="#393C40" stroke="none" stroke-linecap="round" d="M 211.8272 133.6136 L 215.4532 129.9442 L 220.3063 129.7848 L 213.7724 133.5264 L 213.0578 136.3761 L 218.0289 137.2499 L 225.5579 141.7581 L 217.0159 138.409 L 211.2385 137.4496 L 211.8272 133.6136 Z " stroke-width="0.4761425839687243"/>
    <path id="ID0.9214867809787393" fill="#393C40" stroke="none" stroke-linecap="round" d="M 249.5975 140.6749 L 247.5695 136.2617 L 243.4196 134.6513 L 247.9412 140.0084 L 247.6984 142.8008 L 243.1342 142.089 L 236.1133 143.8019 L 243.6603 143.443 L 248.9478 144.3211 L 249.5975 140.6749 Z " stroke-width="0.4451788576535537"/>
    <path id="ID0.8679121839813888" fill="#2C2F31" stroke="none" stroke-linecap="round" d="M 230.6665 116.8081 L 234.159 119.0291 L 237.7161 117.9547 L 238.4995 119.0501 L 234.1876 121.0369 L 228.8707 117.8855 L 230.6665 116.8081 Z " stroke-width="0.4761425839687243"/>
    <path id="ID0.24770551454275846" fill="none" stroke="#313537" stroke-width="0.9522851679374486" stroke-linecap="round" d="M 234.9321 115.6161 L 238.9267 119.8994 L 246.2467 121.5977 L 253.9375 121.7888 L 259.7284 118.8892 "/>
    <path id="ID0.20603158557787538" fill="none" stroke="#313537" stroke-width="0.9522851679374486" stroke-linecap="round" d="M 202.7175 106.1598 L 208.7682 112.5946 L 220.4541 117.7931 L 227.7147 118.3955 L 234.4644 115.5344 "/>
    <g id="ID0.5272086253389716">
      <path id="ID0.24770551454275846" fill="none" stroke="#363A3D" stroke-width="0.9522851066969494" stroke-linecap="round" d="M 200.7397 138.7403 L 211.0284 137.2391 "/>
      <path id="ID0.24770551454275846" fill="none" stroke="#363A3D" stroke-width="0.9522851066969494" stroke-linecap="round" d="M 200.1599 126.6226 L 221.3284 123.8391 "/>
    </g>
    <g id="ID0.5272086253389716">
      <path id="ID0.24770551454275846" fill="none" stroke="#363A3D" stroke-width="0.9522850816809121" stroke-linecap="round" d="M 255.6664 146.9277 L 249.1218 143.9835 "/>
      <path id="ID0.24770551454275846" fill="none" stroke="#363A3D" stroke-width="0.9522850816809121" stroke-linecap="round" d="M 258.0149 135.7468 L 245.1074 128.7772 "/>
    </g>
    <g id="ID0.7887678607366979">
      <path id="ID0.753661650698632" fill="none" stroke="#313537" stroke-width="0.9522851066969494" stroke-linecap="round" d="M 229.0085 117.7719 L 233.7853 120.9784 L 238.2068 119.058 "/>
      <g id="ID0.8167418288066983">
        <path id="ID0.9553722990676761" fill="none" stroke="#313537" stroke-width="1.0409107773624173" stroke-linecap="round" d="M 231.9508 135.721 L 226.7648 132.6878 L 220.9861 129.7976 L 216.1237 129.9554 L 211.9611 133.6082 L 211.3956 137.0136 "/>
        <path id="ID0.5982440118677914" fill="none" stroke="#313537" stroke-width="0.8540413552749858" stroke-linecap="round" d="M 221.3712 129.4374 L 221.0641 124.0207 L 227.3871 117.9163 "/>
      </g>
      <g id="ID0.7324484633281827">
        <path id="ID0.04993448918685317" fill="none" stroke="#313537" stroke-width="0.9522851066969494" stroke-linecap="round" d="M 233.8048 120.861 L 232.7933 131.3116 L 230.572 147.5946 L 228.1353 163.7212 "/>
        <g id="ID0.8167418288066983">
          <path id="ID0.9553722990676761" fill="none" stroke="#313537" stroke-width="0.9699703335790443" stroke-linecap="round" d="M 232.2793 135.6442 L 237.469 135.1305 L 243.138 134.1412 L 247.1215 135.768 L 249.4633 140.5009 L 248.8978 143.9063 "/>
          <path id="ID0.5982440118677914" fill="none" stroke="#313537" stroke-width="0.7916616451019644" stroke-linecap="round" d="M 242.9554 133.7953 L 244.8554 128.7451 L 241.4671 121.028 "/>
          <path id="ID0.3567589442245662" fill="none" stroke="#313537" stroke-width="0.8967655480907116" stroke-linecap="round" d="M 230.3348 148.213 L 236.2108 144.1449 L 243.7525 143.4667 L 249.2058 144.3723 L 250.6556 149.319 L 249.7943 156.2952 L 244.2033 156.0908 L 238.119 158.2177 L 233.3038 157.1767 L 228.8515 158.2957 L 223.4979 154.8726 L 217.9436 154.1916 L 212.1091 150.0854 L 206.0085 148.3484 L 207.4895 141.475 L 210.7701 137.3138 L 216.967 138.3429 L 224.8763 141.587 L 229.8037 147.4491 Z "/>
        </g>
      </g>
    </g>
    <g id="ID0.9312638868577778">
      <path id="ID0.2888958193361759" fill="#393C40" stroke="none" stroke-linecap="round" d="M 209.1431 157.6172 L 218.8807 161.3471 L 217.8162 164.1261 L 208.0786 160.3962 L 209.1431 157.6172 Z " stroke-width="0.4761425490144655"/>
      <path id="ID0.2888958193361759" fill="#393C40" stroke="none" stroke-linecap="round" d="M 198.8629 153.8377 L 209.7807 158.1471 L 208.7162 160.9261 L 198.9786 157.1962 L 198.8629 153.8377 Z " stroke-width="0.4761425490144655"/>
      <g id="ID0.36424446757882833">
        <path id="ID0.7359844641759992" fill="#8A7B59" stroke="none" d="M 212.0751 157.3518 L 213.5781 157.6015 L 212.5563 163.7547 L 211.0533 163.5051 L 212.0751 157.3518 Z " stroke-width="0.4761425533484747"/>
        <path id="ID0.7359844641759992" fill="#8A7B59" stroke="none" d="M 210.2751 156.6518 L 211.7781 156.9015 L 210.7563 163.0547 L 209.2533 162.8051 L 210.2751 156.6518 Z " stroke-width="0.4761425533484747"/>
        <path id="ID0.7359844641759992" fill="#8A7B59" stroke="none" d="M 208.4751 155.6518 L 209.9781 155.9015 L 208.9563 162.0547 L 207.4533 161.8051 L 208.4751 155.6518 Z " stroke-width="0.4761425533484747"/>
        <path id="ID0.7359844641759992" fill="#8A7B59" stroke="none" d="M 213.8751 158.1518 L 215.3781 158.4015 L 214.3563 164.5547 L 212.8533 164.3051 L 213.8751 158.1518 Z " stroke-width="0.4761425533484747"/>
      </g>
      <g id="ID0.1049797898158431">
        <path id="ID0.08871637750416994" fill="#8A7B59" stroke="none" stroke-linecap="round" d="M 200.686 153.4027 L 206.832 155.4852 L 205.8685 160.9964 L 199.9613 158.9295 L 200.686 153.4027 Z " stroke-width="0.4761425533484747"/>
        <path id="ID0.13805592898279428" fill="#76694C" stroke="none" stroke-linecap="round" d="M 200.5285 153.1035 L 206.9798 155.2367 L 206.6018 158.094 L 200.1426 155.863 L 200.5285 153.1035 Z " stroke-width="0.4761425533484747"/>
        <path id="ID0.3221200187690556" fill="#61563F" stroke="none" stroke-linecap="round" d="M 202.9699 155.7587 L 203.7773 156.2595 L 203.566 158.0055 L 202.6778 157.5175 L 202.9699 155.7587 Z " stroke-width="0.5167888696955751"/>
        <path id="ID0.1420820001512766" fill="#BAA578" stroke="none" stroke-linecap="round" d="M 205.3427 159.9586 L 206.2813 158.6665 L 205.9499 160.9524 L 199.937 158.9403 L 205.3427 159.9586 Z " stroke-width="0.4761425533484747"/>
      </g>
      <path id="ID0.2888958193361759" fill="#393C40" stroke="none" stroke-linecap="round" d="M 246.2114 164.1116 L 238.5912 164.6841 L 238.602 167.2571 L 246.2222 166.6846 L 246.2114 164.1116 Z " stroke-width="0.38104699061083686"/>
      <path id="ID0.2888958193361759" fill="#393C40" stroke="none" stroke-linecap="round" d="M 252.9603 163.4152 L 245.7412 164.1841 L 245.752 166.7571 L 252.0671 166.2209 L 252.9603 163.4152 Z " stroke-width="0.38104699061083686"/>
      <path id="ID0.7359844641759992" fill="#8A7B59" stroke="none" d="M 244.3604 162.7896 L 243.2683 162.6083 L 242.3795 167.9609 L 243.4716 168.1423 L 244.3604 162.7896 Z " stroke-width="0.38160280584417416"/>
      <path id="ID0.7359844641759992" fill="#8A7B59" stroke="none" d="M 245.8104 162.5396 L 244.7183 162.3583 L 243.8295 167.7109 L 244.9216 167.8923 L 245.8104 162.5396 Z " stroke-width="0.38160280584417416"/>
      <path id="ID0.7359844641759992" fill="#8A7B59" stroke="none" d="M 247.3604 162.2896 L 246.2683 162.1083 L 245.3795 167.4609 L 246.4716 167.6423 L 247.3604 162.2896 Z " stroke-width="0.38160280584417416"/>
      <path id="ID0.7359844641759992" fill="#8A7B59" stroke="none" d="M 242.8604 163.0896 L 241.7683 162.9083 L 240.8795 168.2609 L 241.9716 168.4423 L 242.8604 163.0896 Z " stroke-width="0.38160280584417416"/>
      <g id="ID0.1049797898158431">
        <path id="ID0.08871637750416994" fill="#8A7B59" stroke="none" stroke-linecap="round" d="M 253.338 162.4328 L 248.3023 162.578 L 247.4915 167.6851 L 252.3495 167.4881 L 253.338 162.4328 Z " stroke-width="0.4054529774502679"/>
        <path id="ID0.13805592898279428" fill="#76694C" stroke="none" stroke-linecap="round" d="M 253.5889 162.2473 L 248.3176 162.3534 L 247.8089 164.9679 L 253.1128 164.778 L 253.5889 162.2473 Z " stroke-width="0.4054529774502679"/>
        <path id="ID0.3221200187690556" fill="#61563F" stroke="none" stroke-linecap="round" d="M 251.2157 163.9082 L 250.4919 164.1269 L 250.1668 165.7192 L 250.9458 165.5338 L 251.2157 163.9082 Z " stroke-width="0.4400648170555984"/>
        <path id="ID0.1420820001512766" fill="#BAA578" stroke="none" stroke-linecap="round" d="M 248.1987 166.9455 L 247.8711 165.5528 L 247.4852 167.6524 L 252.4049 167.5325 L 248.1987 166.9455 Z " stroke-width="0.4054529774502679"/>
      </g>
      <g id="ID0.6836685389280319">
        <path id="ID0.09357938077300787" fill="#857656" stroke="none" d="M 219.8453 158.5553 L 237.5769 161.4998 L 236.5239 167.8409 L 218.7923 164.8964 L 219.8453 158.5553 Z " stroke-width="0.4283320793639229"/>
        <path id="ID0.6492703901603818" fill="#7C6E50" stroke="none" stroke-linecap="round" d="M 220.1915 160.8492 L 227.787 165.2478 L 237.0072 163.6416 L 236.309 167.8456 L 219.4934 165.0531 L 220.1915 160.8492 Z " stroke-width="0.4761425533484747"/>
        <g id="ID0.9254062357358634">
          <g id="ID0.49943465692922473">
            <path id="ID0.140373723115772" fill="#968561" stroke="none" d="M 236.289 160.1244 L 241.3384 160.9629 L 239.8564 169.8874 L 234.807 169.0489 L 236.289 160.1244 Z " stroke-width="0.4761425533484747"/>
            <path id="ID0.8286363878287375" fill="#BAA578" stroke="none" stroke-linecap="round" d="M 236.2935 159.9356 L 241.4213 161.0285 L 237.2101 161.1014 L 235.8492 163.0474 L 236.2935 159.9356 Z " stroke-width="0.4761425533484747"/>
            <path id="ID0.7362233307212591" fill="#8A7B59" stroke="none" stroke-linecap="round" d="M 235.3186 165.9518 L 237.9881 166.4434 L 240.805 164.4496 L 239.8885 169.9686 L 234.7921 169.1223 L 235.3186 165.9518 Z " stroke-width="0.4761425533484747"/>
          </g>
          <g id="ID0.49943465692922473">
            <path id="ID0.140373723115772" fill="#968561" stroke="none" d="M 221.3756 157.889 L 216.3262 157.0505 L 214.8442 165.975 L 219.8936 166.8135 L 221.3756 157.889 Z " stroke-width="0.4761425533484747"/>
            <path id="ID0.8286363878287375" fill="#BAA578" stroke="none" stroke-linecap="round" d="M 221.4665 157.7066 L 216.2607 157.0834 L 220.2223 158.5136 L 220.8812 160.795 L 221.4665 157.7066 Z " stroke-width="0.4761425533484747"/>
            <path id="ID0.7362233307212591" fill="#8A7B59" stroke="none" stroke-linecap="round" d="M 220.4446 163.715 L 217.7594 163.3174 L 215.7382 160.5201 L 214.8217 166.0392 L 219.9181 166.8855 L 220.4446 163.715 Z " stroke-width="0.4761425533484747"/>
          </g>
        </g>
      </g>
    </g>
  </g>
  <g id="ID0.8333355090580881">
    <path id="ID0.9286923445761204" fill="#27282B" stroke="none" stroke-linecap="round" d="M 231.7494 42.4176 L 250.1514 46.5735 L 247.1325 70.7451 L 261.1883 79.997 L 236.942 87.9606 L 202.4554 70.2899 L 223.6473 62.6537 L 231.7494 42.4176 Z " stroke-width="0.47614259146178506"/>
    <path id="ID0.5448851804248989" fill="none" stroke="#1D1E1F" stroke-width="0.9522851829235701" stroke-linecap="round" d="M 225.8866 57.1566 L 223.8631 62.4925 L 239.6544 72.7173 L 246.8361 70.7984 "/>
    <path id="ID0.262191956397146" fill="none" stroke="#1D1E1F" stroke-width="0.9522851829235701" stroke-linecap="round" d="M 227.9101 62.4531 L 239.6049 70.4009 L 242.734 69.7233 "/>
  </g>
  <g id="ID0.3450673264451325">
    <g id="ID0.9831569031812251">
      <path id="ID0.0877610077150166" fill="#2E3034" stroke="none" stroke-linecap="round" d="M 266.0088 20.4009 L 265.4304 6.5223 L 257.1697 33.8287 L 264.5124 36.05 L 266.0088 20.4009 Z " stroke-width="0.5866066459857178"/>
      <path id="ID0.796130308881402" fill="#242628" stroke="none" stroke-linecap="round" d="M 266.2721 20.5548 L 265.3533 6.5732 L 264.7503 20.8481 L 261.3391 35.3698 L 264.4638 36.0068 L 266.2721 20.5548 Z " stroke-width="0.5866066459857178"/>
    </g>
    <g id="ID0.9831569031812251">
      <path id="ID0.0877610077150166" fill="#2E3034" stroke="none" stroke-linecap="round" d="M 243.0836 13.715 L 251.2581 2.4843 L 242.9974 29.7908 L 235.6547 27.5694 L 243.0836 13.715 Z " stroke-width="0.5866066459857178"/>
      <path id="ID0.796130308881402" fill="#242628" stroke="none" stroke-linecap="round" d="M 242.6907 13.6006 L 251.2056 2.4729 L 243.7948 14.6883 L 238.5335 28.3078 L 235.6307 27.4639 L 242.6907 13.6006 Z " stroke-width="0.5866066459857178"/>
    </g>
    <path id="ID0.8999492498114705" fill="#2E3034" stroke="none" stroke-linecap="round" d="M 258.1604 24.3495 C 262.2372 26.0833 265.9815 30.0477 266.8981 34.3817 C 267.9432 39.3294 264.4577 44.1241 263.2981 48.9924 C 262.9707 50.6731 263.2217 52.5802 262.4349 54.0391 C 260.8334 57.0062 258.3541 59.4207 256.3943 62.1637 C 255.11 63.9615 254.2803 66.1706 252.6104 67.6537 C 250.6986 69.4288 248.5059 72.0398 245.8857 71.7233 C 242.0013 71.2536 238.6326 68.3109 235.839 65.632 C 233.5443 63.4309 231.6449 60.5454 230.9408 57.4359 C 229.7317 51.695 228.9193 45.5358 230.254 39.7922 C 231.7338 33.4252 233.3322 25.4816 239.248 22.3435 C 244.6331 19.228 252.0992 21.7749 258.1604 24.3495 Z " stroke-width="0.5080372780427557"/>
    <path id="ID0.2441388238221407" fill="#AB8E85" stroke="none" d="M 248.8246 47.4675 C 252.6816 48.8088 258.804 47.3546 260.6172 50.7726 C 262.217 53.9633 257.5855 57.6411 255.6505 60.6849 C 253.7245 63.7117 251.9832 67.0909 249.015 69.1739 C 247.626 70.0789 245.4753 69.503 243.8978 68.7411 C 241.062 67.3676 238.5031 65.2525 236.5382 62.7872 C 234.5046 60.2367 231.6965 57.2669 232.0834 54.0146 C 232.574 49.8949 234.772 44.9233 238.5794 43.3841 C 242.0387 42.0807 245.3558 46.2607 248.8246 47.4675 Z " stroke-width="1.255840048995254"/>
    <path id="ID0.46721756737679243" fill="#A2887F" stroke="none" stroke-linecap="round" d="M 234.4656 44.3199 L 235.8717 45.4618 L 260.8792 52.6289 L 252.503 55.4028 L 237.1938 48.1972 L 237.5722 50.8063 L 236.1898 56.2532 L 237.5851 64.1857 L 235.1431 56.4673 L 234.4656 44.3199 Z " stroke-width="0.5080372780427557"/>
    <path id="ID0.8256730306893587" fill="none" stroke="#937B73" stroke-width="1.0160745560855113" stroke-linecap="round" d="M 241.4986 58.752 C 241.4986 58.752 244.2548 58.9627 245.6168 59.1751 C 245.9574 59.2282 246.2587 59.4006 246.5673 59.5423 C 246.8808 59.6865 247.1474 59.9423 247.481 60.031 C 248.1421 60.2071 248.8396 60.2122 249.5143 60.3276 C 249.8489 60.3848 250.1853 60.4468 250.5089 60.5489 C 250.8331 60.6512 251.1574 60.7706 251.452 60.9404 C 251.9366 61.2196 252.8367 61.89 252.8367 61.89 "/>
    <path id="ID0.7592270169407129" fill="none" stroke="#937B73" stroke-width="1.0160745560855113" stroke-linecap="round" d="M 249.3457 62.4931 C 249.3457 62.4931 248.6506 62.6432 248.3041 62.6026 C 247.9677 62.5635 247.6785 62.3248 247.3462 62.2598 C 247.0119 62.1947 246.6602 62.2731 246.3244 62.2161 C 245.9906 62.1597 245.6457 62.0893 245.3519 61.9219 C 245.102 61.7794 244.7402 61.3122 244.7402 61.3122 "/>
    <path id="ID0.5332203092984855" fill="none" stroke="#937B73" stroke-width="1.0160745560855113" stroke-linecap="round" d="M 246.3899 51.7488 C 246.3899 51.7488 245.6852 51.9868 245.4885 52.2722 C 245.229 52.6561 244.7408 53.391 245.0737 53.8187 C 245.5455 54.2645 246.482 53.7883 247.1291 54.0424 C 247.7545 54.2911 248.8785 55.1024 248.8785 55.1024 "/>
    <path id="ID0.2278452254831791" fill="none" stroke="#937B73" stroke-width="1.0160745560855113" stroke-linecap="round" d="M 251.6067 49.5054 C 251.6067 49.5054 251.9617 51.5586 252.1349 52.5844 C 252.1929 52.9279 252.2677 53.27 252.3004 53.6164 C 252.333 53.9628 252.4433 54.3316 252.3296 54.6603 C 252.2155 54.9899 251.9248 55.2385 251.6611 55.4665 C 251.4848 55.6191 251.035 55.7814 251.035 55.7814 "/>
    <path id="ID0.6473136460408568" fill="none" stroke="#937B73" stroke-width="1.0160745428296027" stroke-linecap="round" d="M 247.0132 65.7843 C 247.0132 65.7843 247.1326 66.4837 247.0815 66.8282 C 247.0313 67.1636 246.8733 67.4789 246.716 67.7793 C 246.4793 68.2322 245.9036 69.0811 245.9036 69.0811 "/>
    <path id="ID0.11669129692018032" fill="#2E3034" stroke="none" stroke-linecap="round" d="M 237.858 39.773 L 259.5901 48.2051 L 262.5865 51.8981 L 252.2297 53.6747 L 233.1496 45.2487 L 237.858 39.773 Z " stroke-width="0.5080372780427557"/>
    <path id="ID0.14635155349969864" fill="#2E3034" stroke="none" stroke-linecap="round" d="M 233.7825 44.0336 L 235.4471 44.9353 L 236.4679 50.6845 L 235.09 56.292 L 235.7373 60.4686 L 237.4866 64.6867 L 231.1169 57.3193 L 233.7825 44.0336 Z " stroke-width="0.5080372780427557"/>
    <path id="ID0.28340246016159654" fill="#1C1D1F" stroke="none" stroke-linecap="round" d="M 238.8933 36.7684 L 241.7303 39.2349 L 250.7259 42.8873 L 249.0603 48.3929 L 242.691 45.4786 L 239.3075 43.3265 L 237.8068 41.2925 L 237.4801 39.388 L 238.8933 36.7684 Z " stroke-width="0.5401026391431615"/>
    <path id="ID0.6101007834076881" fill="#FFFFFF" stroke="none" stroke-linecap="round" d="M 241.8238 40.3354 L 243.29 41.1967 L 246.5602 43.4409 L 246.5116 45.4826 L 241.9027 42.5704 L 241.8238 40.3354 Z " stroke-width="0.40610618689530803"/>
    <path id="ID0.28340246016159654" fill="#1C1D1F" stroke="none" stroke-linecap="round" d="M 263.426 44.2204 L 260.1012 44.6486 L 251.6193 42.913 L 250.1341 47.8225 L 256.3019 48.8078 L 259.8769 48.883 L 261.9961 48.1152 L 263.18 46.8631 L 263.426 44.2204 Z " stroke-width="0.48162497689092604"/>
    <path id="ID0.6101007834076881" fill="#FFFFFF" stroke="none" stroke-linecap="round" d="M 261.1971 45.6762 L 259.5794 45.7002 L 255.8195 46.0212 L 254.9008 47.7334 L 260.0821 47.4884 L 261.1971 45.6762 Z " stroke-width="0.38638675181693294"/>
    <g id="ID0.07940126257017255">
      <path id="ID0.46257128613069654" fill="#27282B" stroke="none" stroke-linecap="round" d="M 250.9833 42.8089 L 252.2576 53.5976 L 243.0215 49.4766 L 250.9833 42.8089 Z " stroke-width="0.5080372780427557"/>
      <path id="ID0.9845890481956303" fill="#27282B" stroke="none" stroke-linecap="round" d="M 251.7187 43.1699 L 257.5119 52.6187 L 252.3026 53.6967 L 251.7187 43.1699 Z " stroke-width="0.5080372780427557"/>
    </g>
    <path id="ID0.20071752788498998" fill="#202324" stroke="none" d="M 244.2271 36.0112 L 247.4474 39.6658 L 251.6557 42.1597 L 251.3241 43.519 L 244.2519 40.0526 L 239.2878 36.1093 L 241.456 34.9075 L 244.2271 36.0112 Z " stroke-width="0.5080372780427557"/>
    <path id="ID0.20071752788498998" fill="#202324" stroke="none" d="M 260.5984 40.6485 L 256.9677 42.1066 L 251.4966 42.0828 L 251.0585 43.2894 L 258.2217 44.2391 L 264.0062 43.8707 L 263.1818 41.2839 L 260.5984 40.6485 Z " stroke-width="0.46609798174230205"/>
    <path id="ID0.521138689480722" fill="none" stroke="#212325" stroke-width="0.9060627362210283" stroke-linecap="round" d="M 263.568 43.9674 L 260.0085 44.5471 L 251.474 43.2669 "/>
    <path id="ID0.17828734638169408" fill="none" stroke="#202324" stroke-width="1.0160745560855113" stroke-linecap="round" d="M 252.2942 53.1103 L 251.5944 45.3351 C 251.337 42.7296 251.3144 43.3167 251.414 42.3347 C 251.4488 41.9917 251.7548 41.7329 251.9027 41.421 C 252.0483 41.1136 252.2079 40.8069 252.2942 40.4779 C 252.3815 40.1455 252.3839 39.7954 252.4182 39.4538 C 252.4718 38.9207 252.5582 37.8508 252.5582 37.8508 "/>
    <path id="ID0.521138689480722" fill="none" stroke="#212325" stroke-width="1.0160745560855113" stroke-linecap="round" d="M 239.3227 36.3899 L 242.2847 39.1436 L 251.0464 43.2538 "/>
    <path id="ID0.8012696979567409" fill="none" stroke="url(#grad_1)" stroke-width="1.0160745560855113" stroke-linecap="round" d="M 261.0116 52.1913 L 252.7307 53.7731 L 235.6097 46.1522 L 236.3882 50.4216 L 234.9147 56.3451 L 235.7181 60.3566 L 237.438 64.672 "/>
    <path id="ID0.043594349175691605" fill="#D7E2FD" stroke="none" stroke-linecap="round" d="M 246.0179 44.352 L 246.5604 43.3483 L 246.4509 45.4649 L 244.1842 44.0095 L 246.0179 44.352 Z " stroke-width="0.5080372780427557"/>
    <path id="ID0.043594349175691605" fill="#D7E2FD" stroke="none" stroke-linecap="round" d="M 255.8272 47.1223 L 255.8637 46.0858 L 254.9756 47.7956 L 257.4225 47.6977 L 255.8272 47.1223 Z " stroke-width="0.46186426411256865"/>
  </g>
  <g id="ID0.8669879510998726">
    <path id="ID0.5368814701214433" fill="#292D2E" stroke="none" stroke-linecap="round" d="M 250.9923 273.6935 L 253.9874 264.9008 L 258.5933 255.7116 L 268.4943 261.6957 L 279.6626 269.4732 L 296.992 280.0363 L 297.9877 286.565 L 273.2773 287.4304 L 252.0805 283.4948 L 250.9923 273.6935 Z " stroke-width="0.7702165753443064"/>
    <path id="ID0.05466862628236413" fill="#292D2E" stroke="none" stroke-linecap="round" d="M 254.9707 184.503 L 281.4414 180.7216 L 276.5127 199.5611 L 274.9244 204.5975 L 274.2835 222.7287 L 270.971 263.3463 L 255.2917 265.1831 L 253.1651 243.0357 L 250.459 234.3939 L 249.1537 224.9644 L 251.2718 211.4621 L 251.3078 199.141 L 254.9707 184.503 Z " stroke-width="0.7305889978321375"/>
    <path id="ID0.4490455654449761" fill="none" stroke="#272A2B" stroke-width="1.6585523899149508" stroke-linecap="round" d="M 254.6802 184.6898 L 281.1417 180.522 L 274.2846 204.9112 "/>
    <path id="ID0.10446935473009944" fill="none" stroke="#242728" stroke-width="1.6585523899149508" stroke-linecap="round" d="M 273.9098 217.2425 L 273.6962 234.0795 L 263.1272 241.3861 "/>
    <path id="ID0.42170455446466804" fill="none" stroke="#242728" stroke-width="1.6585523899149508" stroke-linecap="round" d="M 272.5902 235.2403 L 271.0895 250.2986 L 260.2999 257.7983 "/>
    <path id="ID0.047098892275244" fill="none" stroke="#242728" stroke-width="1.6585523899149508" stroke-linecap="round" d="M 251.5915 198.9388 L 251.1054 202.8488 L 255.5762 211.717 "/>
  </g>
  <path id="ID0.3809091211296618" fill="#3E4246" stroke="none" stroke-linecap="round" d="M 198.7467 161.6353 L 224.3085 171.9132 L 231.2316 185.3463 L 230.7651 191.0227 L 226.3518 200.7804 L 218.0316 203.2009 L 205.4292 205.4783 L 203.8849 194.468 L 201.6375 187.9043 L 198.7467 161.6353 Z " stroke-width="0.5909086413929773"/>
  <g id="ID0.38464318960905075">
    <path id="ID0.5368814701214433" fill="#303436" stroke="none" stroke-linecap="round" d="M 196.4572 278.3673 L 200.3487 269.933 L 205.8834 261.2714 L 215.1099 268.2507 L 225.4106 277.1453 L 241.5502 289.4499 L 241.8629 296.0466 L 217.1962 294.3429 L 196.5224 288.2286 L 196.4572 278.3673 Z " stroke-width="0.7702165257494253"/>
    <path id="ID0.05466862628236413" fill="#303436" stroke="none" stroke-linecap="round" d="M 209.6835 189.4775 L 236.4037 188.4637 L 229.5464 206.69 L 227.444 211.5342 L 224.9248 229.5011 L 217.4147 269.5556 L 201.6295 269.7552 L 201.8129 247.5067 L 200.0183 238.6307 L 199.6987 229.1166 L 203.2066 215.9071 L 204.5212 203.6562 L 209.6835 189.4775 Z " stroke-width="0.7305890222817588"/>
    <path id="ID0.4490455654449761" fill="none" stroke="#272A2B" stroke-width="1.6585524084956593" stroke-linecap="round" d="M 209.4281 190.3618 L 236.1793 188.9628 L 226.828 212.5086 "/>
    <path id="ID0.10446935473009944" fill="none" stroke="#242728" stroke-width="1.6585524084956593" stroke-linecap="round" d="M 225.1755 224.7344 L 223.2156 241.4583 L 211.9454 247.6286 "/>
    <path id="ID0.42170455446466804" fill="none" stroke="#242728" stroke-width="1.6585524084956593" stroke-linecap="round" d="M 221.9951 242.498 L 218.9397 257.3193 L 207.4301 263.6587 "/>
    <path id="ID0.047098892275244" fill="none" stroke="#242728" stroke-width="1.6585524084956593" stroke-linecap="round" d="M 204.8613 204.0944 L 203.972 207.9329 L 207.4983 217.2172 "/>
  </g>
</svg>