<svg xmlns="http://www.w3.org/2000/svg" xmlns:xlink="http://www.w3.org/1999/xlink" version="1.1" width="502.51305103302" height="365.40773487091064" viewBox="-1.6379231214523315 -0.37522315979003906 502.51305103302 365.40773487091064">
  <!-- Exported by Scratch - http://scratch.mit.edu/ -->
  <path id="ID0.20282993977889419" fill="#2E3643" stroke="#8A8A8A" stroke-width="4.0975470542907715" d="M 2.2098 2.487 L 498.0129 2.487 L 498.0129 320.0469 L 2.2098 320.0469 L 2.2098 2.487 Z "/>
  <path id="ID0.5792062887921929" fill="#C03737" stroke="none" stroke-linecap="round" d="M 105 235 L 117.5 205 L 137.5 190 L 159 185 L 202.5 167.5 L 209 137 L 194.5 110.5 L 194.5 97.5 L 199.5 87.5 L 198 63.5 L 201 43.5 L 213.5 31.5 L 234 24 L 275.5 22.5 L 292.5 30 L 305.5 40 L 312 55.5 L 311.5 84.5 L 317.5 103 L 312 119.5 L 300 140.5 L 303 161.5 L 347.5 181 L 367 187 L 391.5 200.5 L 404 233.5 L 416 293 L 423 322.5 L 85.5 323 L 105 235 Z " stroke-width="1"/>
  <g id="ID0.03681139973923564">
    <path id="ID0.7729651997797191" fill="#E4E4E4" stroke="none" stroke-linecap="round" d="M 111.3437 237.4741 L 179.2697 241.5909 L 166.9195 298.5389 L 157.3138 344.5089 L 145.9242 355.8985 L 133.574 354.938 L 87.4667 360.0153 L 85.2712 343.8228 L 103.7964 276.583 L 111.3437 237.4741 Z " stroke-width="2.7444820404052734"/>
    <path id="ID0.4757494777441025" fill="#E4E4E4" stroke="none" stroke-linecap="round" d="M 141.1261 195.25 L 166.3579 189.1173 L 213.317 203.0862 L 189.1365 275.9974 L 158.6482 290.3071 L 145.3314 293.3735 L 135.8695 286.5594 L 127.4589 278.0417 L 110.6377 270.5461 L 110.2873 254.8736 L 112.3899 231.7056 L 121.8519 207.8561 L 141.1261 195.25 Z " stroke-width="1.3824324091791147"/>
    <path id="ID0.7729651997797191" fill="#E4E4E4" stroke="none" stroke-linecap="round" d="M 396.7063 235.9241 L 328.7803 240.0409 L 341.1305 296.9889 L 350.7362 342.9589 L 363.7725 362.1703 L 378.181 352.9763 L 417.976 362.1703 L 422.7788 342.2728 L 404.2536 275.033 L 396.7063 235.9241 Z " stroke-width="2.7444820404052734"/>
    <path id="ID0.4757494777441025" fill="#E4E4E4" stroke="none" stroke-linecap="round" d="M 366.8739 193.85 L 341.6421 187.7173 L 294.683 201.6862 L 318.8635 274.5974 L 349.3518 288.9071 L 362.6686 291.9735 L 372.1305 285.1594 L 380.5411 276.6417 L 397.3623 269.1461 L 397.7127 253.4736 L 395.6101 230.3056 L 386.1481 206.4561 L 366.8739 193.85 Z " stroke-width="1.3824324091791147"/>
    <path id="ID0.17576928716152906" fill="#DBDBDB" stroke="none" d="M 260.0552 179.5167 L 259.3397 179.5167 L 259.3397 179.5167 L 260.0552 179.5167 L 260.0552 179.5167 Z " stroke-width="2.8622231483459473"/>
    <path id="ID0.5114514343440533" fill="#DBDBDB" stroke="none" d="M 179.0695 209.5918 L 330.7674 209.5918 L 330.2397 347.3123 L 190.9415 345.2916 L 179.0695 209.5918 Z " stroke-width="2.88313647996082"/>
    <path id="ID0.9286923445761204" fill="#27282B" stroke="none" stroke-linecap="round" d="M 220.8952 112.7338 L 274.7269 116.9585 L 254.3526 170.9946 L 257.9641 286.8348 L 149.3468 203.7024 L 206.2448 173.3795 L 220.8952 112.7338 Z " stroke-width="1.3628263473510742"/>
    <path id="ID0.9286923445761204" fill="#27282B" stroke="none" stroke-linecap="round" d="M 286.5048 113.4338 L 232.6731 117.6585 L 253.0474 171.6946 L 256.5226 286.172 L 358.0532 204.4024 L 301.1552 174.0795 L 286.5048 113.4338 Z " stroke-width="1.3628263473510742"/>
    <path id="ID0.39874776685610414" fill="#1F2022" stroke="none" stroke-linecap="round" d="M 201.7157 175.4096 L 258.5871 203.6619 L 309.7293 178.0135 L 321.1874 184.1326 L 258.0281 214.468 L 190.9563 181.0079 L 201.7157 175.4096 Z " stroke-width="2.7009636003038677"/>
    <path id="ID0.13444371055811644" fill="#E1E1E1" stroke="none" stroke-linecap="round" d="M 251.7447 208.8345 L 266.7713 208.119 L 274.7856 289.6923 L 240.2958 291.1234 L 251.7447 208.8345 Z " stroke-width="2.8622231483459473"/>
    <path id="ID0.751046194229275" fill="#D5D5D5" stroke="none" stroke-linecap="round" d="M 245.0616 194.4167 L 258.4425 188.5921 L 271.3512 194.4167 L 272.6105 217.243 L 260.0168 220.0766 L 245.0616 217.243 L 245.0616 194.4167 Z " stroke-width="3.1484456062316895"/>
    <path id="ID0.7854711129330099" fill="#DBDBDB" stroke="none" stroke-linecap="round" d="M 219.5447 256.7834 L 259.6158 281.8279 L 298.9713 253.9212 L 293.2469 304.0101 L 226.7002 304.0101 L 219.5447 256.7834 Z " stroke-width="2.8622231483459473"/>
    <path id="ID0.6824178956449032" fill="none" stroke="#CCCCCC" stroke-width="5.7244462966918945" stroke-linecap="round" d="M 258.9847 282.5434 L 258.6984 360.9684 "/>
    <path id="ID0.4144489667378366" fill="#EAEAEA" stroke="none" stroke-linecap="round" d="M 147.9891 195.2456 L 205.9491 172.3478 L 197.3624 234.6012 L 207.5233 359.8235 L 158.2931 350.6643 L 142.2646 268.9479 L 139.4024 222.4368 L 147.9891 195.2456 Z " stroke-width="2.8622231483459473"/>
    <path id="ID0.5234400681219995" fill="#B4B4B4" stroke="none" d="M 265.0315 298.6801 C 266.2126 298.6801 267.2837 299.1597 268.0591 299.9351 C 268.8345 300.7105 269.3141 301.7816 269.3141 302.9627 C 269.3141 304.1438 268.8345 305.2149 268.0591 305.9902 C 267.2837 306.7656 266.2126 307.2453 265.0315 307.2453 C 263.8504 307.2453 262.7793 306.7656 262.004 305.9902 C 261.2286 305.2149 260.7489 304.1438 260.7489 302.9627 C 260.7489 301.7816 261.2286 300.7105 262.004 299.9351 C 262.7793 299.1597 263.8504 298.6801 265.0315 298.6801 Z " stroke-width="1.803200602531433"/>
    <path id="ID0.5234400681219995" fill="#B4B4B4" stroke="none" d="M 265.0315 337.9301 C 266.2126 337.9301 267.2837 338.4097 268.0591 339.1851 C 268.8345 339.9605 269.3141 341.0316 269.3141 342.2127 C 269.3141 343.3938 268.8345 344.4649 268.0591 345.2402 C 267.2837 346.0156 266.2126 346.4953 265.0315 346.4953 C 263.8504 346.4953 262.7793 346.0156 262.004 345.2402 C 261.2286 344.4649 260.7489 343.3938 260.7489 342.2127 C 260.7489 341.0316 261.2286 339.9605 262.004 339.1851 C 262.7793 338.4097 263.8504 337.9301 265.0315 337.9301 Z " stroke-width="1.803200602531433"/>
    <path id="ID0.4144489667378366" fill="#EAEAEA" stroke="none" stroke-linecap="round" d="M 358.1609 192.6956 L 300.2009 169.7978 L 308.7876 232.0512 L 303.4925 359.7064 L 356.8729 351.549 L 363.8854 266.3979 L 366.7476 219.8868 L 358.1609 192.6956 Z " stroke-width="2.8622231483459473"/>
    <path id="ID0.8752945330925286" fill="none" stroke="#D5D5D5" stroke-width="5.7244462966918945" stroke-linecap="round" d="M 149.4202 195.9612 L 140.118 218.1434 L 149.4202 326.1923 "/>
    <path id="ID0.8752945330925286" fill="none" stroke="#D5D5D5" stroke-width="5.7244462966918945" stroke-linecap="round" d="M 358.7798 194.4112 L 368.082 216.5934 L 358.7798 324.6423 "/>
    <g id="ID0.20783481979742646">
      <path id="ID0.5848579816520214" fill="#737373" stroke="none" stroke-linecap="round" d="M 327.8609 274.243 L 347.4671 269.9497 L 347.1809 281.1123 L 326.4298 282.5434 L 327.8609 274.243 Z " stroke-width="2.8622231483459473"/>
      <path id="ID0.13105127029120922" fill="none" stroke="#D5D5D5" stroke-width="5.7244462966918945" stroke-linecap="round" d="M 322.5658 283.259 L 335.4458 283.259 L 350.4725 278.9657 "/>
    </g>
    <g id="ID0.9062871215865016">
      <path id="ID0.3245162623934448" fill="#54595E" stroke="none" stroke-linecap="round" d="M 256.4463 38.388 C 265.7657 38.388 274.2092 45.91 280.3229 58.0601 C 286.4366 70.2102 288.6033 89.4472 290.2205 105.5072 C 291.872 121.9048 297.316 139.7594 290.6498 154.7374 C 285.5121 166.2779 271.3556 175.0678 258.4498 175.7747 C 246.2625 176.4531 231.5535 169.3834 225.8205 158.3152 C 217.7204 142.6731 221.4871 123.2558 222.672 105.5072 C 223.7482 89.4043 226.4559 70.2102 232.5696 58.0601 C 238.6833 45.91 247.1269 38.388 256.4463 38.388 Z " stroke-width="2.8622231483459473"/>
      <path id="ID0.8999492498114705" fill="#54595E" stroke="none" stroke-linecap="round" d="M 270.7372 27.8151 C 282.9038 31.385 296.8866 36.9441 302.9895 48.0579 C 309.9533 60.7465 303.5944 76.8247 305.2361 91.0692 C 305.8018 95.9187 311.3419 100.1865 310.3255 105.0287 C 308.5093 113.6472 300.9334 119.7109 297.7474 127.6402 C 294.5891 135.1565 295.1256 144.0804 291.422 151.0515 C 287.9074 157.6677 283.1059 164.4977 276.3719 167.7738 C 271.1865 170.2923 263.7051 170.999 259.2133 167.483 C 255.642 164.6882 258.9138 158.3439 257.8319 153.887 C 256.8926 148.3875 253.1846 143.4275 253.1788 137.7463 C 253.1686 121.9343 258.5066 106.3752 258.559 90.5602 C 258.6157 73.169 259.574 55.2878 253.9058 39.0118 C 251.7377 32.7853 233.9466 31.148 237.0381 29.2693 C 241.8294 25.9044 259.9578 24.6524 270.7372 27.8151 Z " stroke-width="1.4541159868240356"/>
      <path id="ID0.8999492498114705" fill="#54595E" stroke="none" stroke-linecap="round" d="M 239.7628 27.3651 C 227.5875 30.9045 213.6134 36.4941 207.5105 47.6079 C 200.5467 60.2965 207.0146 76.3848 205.2639 90.6192 C 204.6299 95.758 199.9782 100.2818 200.6834 105.3785 C 201.646 112.3175 206.9667 117.6527 209.4081 123.9911 C 213.1001 132.7304 214.5281 142.5108 219.078 150.6015 C 222.7496 157.1319 227.3941 164.0477 234.1281 167.3238 C 239.3135 169.8423 246.7949 170.549 251.2867 167.033 C 254.858 164.2382 251.5862 157.8939 252.6681 153.437 C 253.6074 147.9375 257.3154 142.9775 257.3212 137.2963 C 257.3314 121.4843 251.9934 105.9252 251.941 90.1102 C 251.8843 72.719 252.2406 55.2347 256.5942 38.5618 C 257.7677 34.0802 271.0437 32.1826 268.4452 30.3461 C 262.6273 26.5843 248.7071 24.7681 239.7628 27.3651 Z " stroke-width="1.4541159868240356"/>
      <path id="ID0.45774566335603595" fill="#54595E" stroke="none" stroke-linecap="round" d="M 256.6265 129.693 C 262.6486 129.693 267.0564 133.3108 272.0539 135.6063 C 276.6105 137.7015 285.2115 138.0964 285.1772 143.2885 C 285.2115 151.3943 278.0989 158.3896 272.0539 164.1369 C 268.0668 167.9265 262.6486 170.0503 256.6265 170.0503 C 250.6044 170.0503 245.4438 167.6374 241.1991 164.1369 C 235.3258 159.2969 227.8039 153.5982 227.9327 146.1507 C 227.8039 140.4492 236.173 138.397 241.1991 135.6063 C 246.0076 132.933 250.6044 129.693 256.6265 129.693 Z " stroke-width="2.8622231483459473"/>
      <path id="ID0.6934182443656027" fill="#54595E" stroke="none" stroke-linecap="round" d="M 216.9131 113.6645 L 254.8376 125.3996 L 295.1949 112.5196 L 286.6083 131.8396 L 285.1772 144.7196 L 228.362 146.5801 L 225.0705 128.9774 L 216.9131 113.6645 Z " stroke-width="2.8622231483459473"/>
      <path id="ID0.33607587683945894" fill="#393E40" stroke="none" stroke-linecap="round" d="M 291.6526 109.5506 L 293.0838 105.4003 L 298.8082 98.1017 L 298.8082 88.5132 L 297.3771 83.2181 L 291.9389 82.6457 L 290.6509 78.0661 L 295.5166 39.8554 L 273.7638 114.8457 L 300.8118 123.1461 L 286.2144 112.8421 L 291.6526 109.5506 Z " stroke-width="2.8622231483459473"/>
      <path id="ID0.33607587683945894" fill="#393E40" stroke="none" stroke-linecap="round" d="M 218.5974 109.1506 L 217.1662 105.0003 L 211.4418 97.7017 L 211.4418 88.1132 L 212.8729 82.8181 L 218.3111 82.2457 L 219.5991 77.6661 L 214.7334 39.4554 L 236.4862 114.4457 L 209.4382 122.7461 L 224.0356 112.4421 L 218.5974 109.1506 Z " stroke-width="2.8622231483459473"/>
      <path id="ID0.30865650391206145" fill="#393E40" stroke="none" stroke-linecap="round" d="M 299.9994 125.9816 L 267.37 107.9496 L 277.7952 149.1656 L 280.3676 119.6847 L 299.9994 125.9816 Z " stroke-width="2.786095997878372"/>
      <path id="ID0.30865650391206145" fill="#393E40" stroke="none" stroke-linecap="round" d="M 210.0982 124.1316 L 244.588 106.0996 L 233.5684 147.3156 L 230.8493 117.8347 L 210.0982 124.1316 Z " stroke-width="2.8622231483459473"/>
      <path id="ID0.6236958587542176" fill="#788087" stroke="none" stroke-linecap="round" d="M 233.7116 104.2392 L 278.7916 104.096 L 276.788 125.8489 L 278.2191 145.7414 L 270.348 175.9378 L 242.8707 176.081 L 232.7098 147.4587 L 235.2858 125.7058 L 233.7116 104.2392 Z " stroke-width="2.8622231483459473"/>
      <path id="ID0.44800941413268447" fill="none" stroke="#44494C" stroke-width="3.006364107131958" stroke-linecap="round" d="M 231.8914 112.1871 L 210.6214 123.01 L 203.4812 111.4355 "/>
      <path id="ID0.6043254472315311" fill="#788087" stroke="none" stroke-linecap="round" d="M 213.5296 39.3976 L 227.1251 31.2402 L 240.7207 47.2687 L 259.3251 50.4171 L 255.7473 105.658 L 248.1625 113.8154 L 232.8496 112.8136 L 220.542 107.2323 L 218.1091 95.6403 L 222.4024 77.0358 L 213.5296 39.3976 Z " stroke-width="2.8622231483459473"/>
      <path id="ID0.3483780794776976" fill="#6E767C" stroke="none" stroke-linecap="round" d="M 235.7707 73.2297 L 246.6471 77.523 L 250.9405 86.539 L 249.5094 92.5497 L 235.7707 92.4065 L 235.7707 73.2297 Z " stroke-width="2.8622231483459473"/>
      <path id="ID0.44800941413268447" fill="none" stroke="#5E656A" stroke-width="3.006364107131958" stroke-linecap="round" d="M 221.2414 36.1371 L 235.5968 71.3116 L 235.221 89.5001 "/>
      <path id="ID0.44800941413268447" fill="none" stroke="#44494C" stroke-width="3.006364107131958" stroke-linecap="round" d="M 278.4586 112.8871 L 298.7516 124.161 L 306.493 112.5113 "/>
      <path id="ID0.6043254472315311" fill="#788087" stroke="none" stroke-linecap="round" d="M 296.9204 39.3976 L 283.3249 31.2402 L 269.7293 47.2687 L 251.1249 50.4171 L 254.7027 105.658 L 262.2875 113.8154 L 277.6004 112.8136 L 290.4804 107.0892 L 292.3409 95.6403 L 288.0476 77.0358 L 296.9204 39.3976 Z " stroke-width="2.8622231483459473"/>
      <path id="ID0.44800941413268447" fill="none" stroke="#5E656A" stroke-width="3.006364107131958" stroke-linecap="round" d="M 289.2086 36.4371 L 274.8532 71.6116 L 275.229 89.8001 "/>
      <path id="ID0.3483780794776976" fill="#6E767C" stroke="none" stroke-linecap="round" d="M 273.7793 73.2297 L 262.9029 77.523 L 258.6095 86.539 L 260.0406 92.5497 L 273.7793 92.4065 L 273.7793 73.2297 Z " stroke-width="2.8622231483459473"/>
      <path id="ID0.9914007503539324" fill="#646B70" stroke="none" d="M 248.452 126.5645 L 244.7311 92.7903 L 266.3409 93.0765 L 262.0476 126.5645 L 248.452 126.5645 Z " stroke-width="2.8622231483459473"/>
      <path id="ID0.28340246016159654" fill="#1C1D1F" stroke="none" stroke-linecap="round" d="M 215.8211 86.3333 L 235.3422 86.6005 L 248.0593 93.1009 L 250.5703 102.8961 L 246.6013 109.2184 L 236.5572 110.287 L 228.7002 108.8622 L 222.7061 106.6361 L 216.6311 101.6494 L 214.039 95.9504 L 215.8211 86.3333 Z " stroke-width="1.7023794871066682"/>
      <path id="ID0.28340246016159654" fill="#1C1D1F" stroke="none" stroke-linecap="round" d="M 294.7289 86.4333 L 275.2078 86.7005 L 262.4907 93.2009 L 259.9797 102.9961 L 263.9487 109.3184 L 273.9928 110.387 L 281.8498 108.9622 L 287.8439 106.7361 L 293.9189 101.7494 L 296.511 96.0504 L 294.7289 86.4333 Z " stroke-width="1.7023794871066682"/>
      <g id="ID0.13833451084792614">
        <path id="ID0.17377300979569554" fill="#FFFFFF" stroke="none" stroke-linecap="round" d="M 223.6099 93.2294 L 226.206 90.8522 L 232.7524 90.325 L 239.1992 92.0584 L 240.4936 97.642 L 232.9452 97.2643 L 223.6099 93.2294 Z " stroke-width="2.8622231082330787"/>
        <path id="ID0.2692581438459456" fill="#7AABFF" stroke="none" d="M 232.1267 90.6488 C 233.039 90.3887 233.969 90.5249 234.7371 90.9522 C 235.5052 91.3795 236.1114 92.0978 236.3715 93.0101 C 236.6316 93.9224 236.4954 94.8524 236.0681 95.6205 C 235.6409 96.3886 234.9225 96.9948 234.0103 97.2549 C 233.098 97.515 232.168 97.3788 231.3999 96.9515 C 230.6318 96.5243 230.0256 95.8059 229.7655 94.8936 C 229.5053 93.9814 229.6415 93.0514 230.0688 92.2833 C 230.4961 91.5151 231.2144 90.909 232.1267 90.6488 Z " stroke-width="3.2711123108823577"/>
        <path id="ID0.8070062398910522" fill="#192334" stroke="none" d="M 232.7404 92.426 C 233.1196 92.3179 233.5088 92.3723 233.828 92.5524 C 234.1495 92.7286 234.4009 93.0306 234.509 93.4099 C 234.6172 93.7891 234.5628 94.1783 234.3826 94.4975 C 234.2064 94.8189 233.9044 95.0704 233.5252 95.1785 C 233.1459 95.2867 232.7568 95.2323 232.4375 95.0521 C 232.1161 94.8759 231.8646 94.5739 231.7565 94.1947 C 231.6484 93.8154 231.7028 93.4262 231.8829 93.107 C 232.0591 92.7856 232.3611 92.5341 232.7404 92.426 Z " stroke-width="3.1802484675808067"/>
      </g>
      <g id="ID0.17617406602948904">
        <path id="ID0.17377300979569554" fill="#FFFFFF" stroke="none" stroke-linecap="round" d="M 286.8401 93.7294 L 284.244 91.3522 L 277.6976 90.825 L 271.2508 92.5584 L 269.9564 98.142 L 277.5048 97.7643 L 286.8401 93.7294 Z " stroke-width="2.8622231082330787"/>
        <path id="ID0.2692581438459456" fill="#7AABFF" stroke="none" d="M 278.5233 90.9488 C 277.611 90.6887 276.681 90.8249 275.9129 91.2522 C 275.1448 91.6795 274.5386 92.3978 274.2785 93.3101 C 274.0184 94.2224 274.1546 95.1524 274.5819 95.9205 C 275.0091 96.6886 275.7275 97.2948 276.6397 97.5549 C 277.552 97.815 278.482 97.6788 279.2501 97.2515 C 280.0182 96.8243 280.6244 96.1059 280.8845 95.1936 C 281.1447 94.2814 281.0085 93.3514 280.5812 92.5833 C 280.1539 91.8151 279.4356 91.209 278.5233 90.9488 Z " stroke-width="3.2711123108823577"/>
        <path id="ID0.8070062398910522" fill="#192334" stroke="none" d="M 277.9096 92.426 C 277.5304 92.3179 277.1412 92.3723 276.822 92.5524 C 276.5005 92.7286 276.2491 93.0306 276.141 93.4099 C 276.0328 93.7891 276.0872 94.1783 276.2674 94.4975 C 276.4436 94.8189 276.7456 95.0704 277.1248 95.1785 C 277.5041 95.2867 277.8932 95.2323 278.2125 95.0521 C 278.5339 94.8759 278.7854 94.5739 278.8935 94.1947 C 279.0016 93.8154 278.9472 93.4262 278.7671 93.107 C 278.5909 92.7856 278.2889 92.5341 277.9096 92.426 Z " stroke-width="3.1802484675808067"/>
      </g>
      <path id="ID0.44800941413268447" fill="none" stroke="#646B70" stroke-width="3.006364107131958" stroke-linecap="round" d="M 252.3713 105.3673 L 247.7114 93.0412 L 235.1599 86.0514 L 216.3701 86.4272 "/>
      <path id="ID0.44800941413268447" fill="none" stroke="#646B70" stroke-width="3.006364107131958" stroke-linecap="round" d="M 257.1787 105.3673 L 261.8386 93.0412 L 274.3901 86.0514 L 293.1799 86.4272 "/>
      <path id="ID0.12448931112885475" fill="#646B70" stroke="none" stroke-linecap="round" d="M 248.1658 121.3921 L 261.9045 121.6783 L 264.6236 130.6943 L 255.7507 134.9876 L 245.7329 130.5512 L 248.1658 121.3921 Z " stroke-width="2.8622231483459473"/>
      <path id="ID0.6563427890650928" fill="#788087" stroke="none" stroke-linecap="round" d="M 247.7365 132.5547 L 252.0298 128.2614 L 252.7453 136.1325 L 248.3089 136.1325 L 247.7365 132.5547 Z " stroke-width="2.8622231483459473"/>
      <path id="ID0.6563427890650928" fill="#788087" stroke="none" stroke-linecap="round" d="M 263.3135 132.8547 L 259.0202 128.5614 L 258.3047 136.4325 L 262.7411 136.4325 L 263.3135 132.8547 Z " stroke-width="2.8622231483459473"/>
      <path id="ID0.44800941413268447" fill="none" stroke="#646B70" stroke-width="3.0063641437624167" stroke-linecap="round" d="M 248.6399 94.5099 L 250.9362 87.1602 L 246.8001 77.5303 "/>
      <path id="ID0.44800941413268447" fill="none" stroke="#646B70" stroke-width="3.0063641437624167" stroke-linecap="round" d="M 260.1101 94.5099 L 257.8138 87.1602 L 261.9499 77.5303 "/>
      <path id="ID0.8357716267928481" fill="#6E767C" stroke="none" stroke-linecap="round" d="M 242.9263 63.0688 L 238.3467 44.7505 L 255.52 42.3176 L 271.9778 45.323 L 267.2551 63.0688 L 255.52 64.7861 L 242.9263 63.0688 Z " stroke-width="2.8622231483459473"/>
      <path id="ID0.6231065075844526" fill="#646B70" stroke="none" stroke-linecap="round" d="M 251.8991 175.9835 L 256.4787 169.8297 L 260.9151 175.9835 L 251.8991 175.9835 Z " stroke-width="2.8622231483459473"/>
      <path id="ID0.13564336113631725" fill="#646B70" stroke="none" stroke-linecap="round" d="M 250.0249 95.1257 L 254.7476 87.9701 L 259.184 95.1257 L 250.0249 95.1257 Z " stroke-width="2.8622231483459473"/>
      <g id="ID0.27998464927077293">
        <path id="ID0.4195562661625445" fill="none" stroke="#000000" stroke-width="2.010370969772339" stroke-linecap="round" d="M 248.5659 103.237 L 238.7151 103.4883 L 220.8228 99.0152 "/>
        <path id="ID0.4195562661625445" fill="none" stroke="#000000" stroke-width="2.010370969772339" stroke-linecap="round" d="M 247.2159 106.487 L 238.6216 106.9896 L 225.0013 103.2201 "/>
      </g>
      <g id="ID0.27998464927077293">
        <path id="ID0.4195562661625445" fill="none" stroke="#000000" stroke-width="2.010370969772339" stroke-linecap="round" d="M 261.3841 103.237 L 271.2349 103.4883 L 289.1272 99.0152 "/>
        <path id="ID0.4195562661625445" fill="none" stroke="#000000" stroke-width="2.010370969772339" stroke-linecap="round" d="M 262.7841 106.487 L 271.3784 106.9896 L 284.9987 103.2201 "/>
      </g>
      <g id="ID0.32985211815685034">
        <g id="ID0.08651347272098064">
          <g id="ID0.07771636918187141">
            <path id="ID0.7001032647676766" fill="none" stroke="#646B70" stroke-width="1.4992597103118896" stroke-linecap="round" d="M 233.3827 138.702 C 233.3827 138.702 233.1983 139.7553 233.0829 140.2763 C 232.9742 140.7665 232.5289 141.2688 232.7081 141.738 C 232.8932 142.2238 233.4884 142.4772 233.9824 142.6376 C 234.4577 142.7913 234.9824 142.6316 235.4817 142.6376 C 235.9809 142.6436 236.7396 143.1121 236.9809 142.6751 C 237.5597 141.6293 237.4307 139.1143 237.4307 139.1143 "/>
            <path id="ID0.7001032647676766" fill="none" stroke="#646B70" stroke-width="1.4992597103118896" stroke-linecap="round" d="M 237.6827 138.802 C 237.6827 138.802 237.4983 139.8553 237.3829 140.3763 C 237.2742 140.8665 236.8289 141.3688 237.0081 141.838 C 237.1932 142.3238 237.7884 142.5772 238.2824 142.7376 C 238.7577 142.8913 239.2824 142.7316 239.7817 142.7376 C 240.2809 142.7436 241.0396 143.2121 241.2809 142.7751 C 241.8597 141.7293 241.7307 139.2143 241.7307 139.2143 "/>
          </g>
          <g id="ID0.07771636918187141">
            <path id="ID0.7001032647676766" fill="none" stroke="#646B70" stroke-width="1.4992597103118896" stroke-linecap="round" d="M 242.3827 139.202 C 242.3827 139.202 242.1983 140.2553 242.0829 140.7763 C 241.9742 141.2665 241.5289 141.7688 241.7081 142.238 C 241.8932 142.7238 242.4884 142.9772 242.9824 143.1376 C 243.4577 143.2913 243.9824 143.1316 244.4817 143.1376 C 244.9809 143.1436 245.7396 143.6121 245.9809 143.1751 C 246.5597 142.1293 246.4307 139.6143 246.4307 139.6143 "/>
            <path id="ID0.7001032647676766" fill="none" stroke="#646B70" stroke-width="1.4992597103118896" stroke-linecap="round" d="M 246.6827 139.502 C 246.6827 139.502 246.4983 140.5553 246.3829 141.0763 C 246.2742 141.5665 245.8289 142.0688 246.0081 142.538 C 246.1932 143.0238 246.7884 143.2772 247.2824 143.4376 C 247.7577 143.5913 248.2824 143.4316 248.7817 143.4376 C 249.2809 143.4436 250.0396 143.9121 250.2809 143.4751 C 250.8597 142.4293 250.7307 139.9143 250.7307 139.9143 "/>
          </g>
          <path id="ID0.7001032647676766" fill="none" stroke="#646B70" stroke-width="1.4992597729157722" stroke-linecap="round" d="M 251.1358 139.88 C 251.1358 139.88 251.0628 140.9468 251.0026 141.477 C 250.9459 141.9759 250.5557 142.5221 250.7831 142.97 C 251.0181 143.4337 251.6366 143.6233 252.1447 143.731 C 252.6335 143.8341 253.1386 143.6203 253.6357 143.5739 C 254.1329 143.5275 254.9364 143.914 255.1307 143.454 C 255.5966 142.3534 255.2048 139.8658 255.2048 139.8658 "/>
        </g>
        <g id="ID0.08651347272098064">
          <g id="ID0.07771636918187141">
            <path id="ID0.7001032647676766" fill="none" stroke="#646B70" stroke-width="1.4992597103118896" stroke-linecap="round" d="M 277.2173 138.702 C 277.2173 138.702 277.4017 139.7553 277.5171 140.2763 C 277.6258 140.7665 278.0711 141.2688 277.8919 141.738 C 277.7068 142.2238 277.1116 142.4772 276.6176 142.6376 C 276.1423 142.7913 275.6176 142.6316 275.1183 142.6376 C 274.6191 142.6436 273.8604 143.1121 273.6191 142.6751 C 273.0403 141.6293 273.1693 139.1143 273.1693 139.1143 "/>
            <path id="ID0.7001032647676766" fill="none" stroke="#646B70" stroke-width="1.4992597103118896" stroke-linecap="round" d="M 272.9173 138.802 C 272.9173 138.802 273.1017 139.8553 273.2171 140.3763 C 273.3258 140.8665 273.7711 141.3688 273.5919 141.838 C 273.4068 142.3238 272.8116 142.5772 272.3176 142.7376 C 271.8423 142.8913 271.3176 142.7316 270.8183 142.7376 C 270.3191 142.7436 269.5604 143.2121 269.3191 142.7751 C 268.7403 141.7293 268.8693 139.2143 268.8693 139.2143 "/>
          </g>
          <g id="ID0.07771636918187141">
            <path id="ID0.7001032647676766" fill="none" stroke="#646B70" stroke-width="1.4992597103118896" stroke-linecap="round" d="M 268.1173 139.202 C 268.1173 139.202 268.3017 140.2553 268.4171 140.7763 C 268.5258 141.2665 268.9711 141.7688 268.7919 142.238 C 268.6068 142.7238 268.0116 142.9772 267.5176 143.1376 C 267.0423 143.2913 266.5176 143.1316 266.0183 143.1376 C 265.5191 143.1436 264.7604 143.6121 264.5191 143.1751 C 263.9403 142.1293 264.0693 139.6143 264.0693 139.6143 "/>
            <path id="ID0.7001032647676766" fill="none" stroke="#646B70" stroke-width="1.4992597103118896" stroke-linecap="round" d="M 263.8173 139.502 C 263.8173 139.502 264.0017 140.5553 264.1171 141.0763 C 264.2258 141.5665 264.6711 142.0688 264.4919 142.538 C 264.3068 143.0238 263.7116 143.2772 263.2176 143.4376 C 262.7423 143.5913 262.2176 143.4316 261.7183 143.4376 C 261.2191 143.4436 260.4604 143.9121 260.2191 143.4751 C 259.6403 142.4293 259.7693 139.9143 259.7693 139.9143 "/>
          </g>
          <path id="ID0.7001032647676766" fill="none" stroke="#646B70" stroke-width="1.4992597729157722" stroke-linecap="round" d="M 259.6642 139.88 C 259.6642 139.88 259.7372 140.9468 259.7974 141.477 C 259.8541 141.9759 260.2443 142.5221 260.0169 142.97 C 259.7819 143.4337 259.1634 143.6233 258.6553 143.731 C 258.1665 143.8341 257.6614 143.6203 257.1643 143.5739 C 256.6671 143.5275 255.8636 143.914 255.6693 143.454 C 255.2034 142.3534 255.5952 139.8658 255.5952 139.8658 "/>
        </g>
      </g>
      <path id="ID0.7001032647676766" fill="none" stroke="#646B70" stroke-width="1.4992599487304688" stroke-linecap="round" d="M 232.6328 147.498 C 232.6328 147.498 232.4483 146.4447 232.3329 145.9237 C 232.2242 145.4335 231.7789 144.9312 231.9581 144.462 C 232.1432 143.9762 232.7385 143.7228 233.2325 143.5624 C 233.7077 143.4087 234.2325 143.5684 234.7317 143.5624 C 235.231 143.5564 235.9896 143.0879 236.231 143.5249 C 236.8097 144.5707 236.6808 147.0857 236.6808 147.0857 "/>
      <path id="ID0.7001032647676766" fill="none" stroke="#646B70" stroke-width="1.4992599487304688" stroke-linecap="round" d="M 236.9328 147.498 C 236.9328 147.498 236.7483 146.4447 236.6329 145.9237 C 236.5242 145.4335 236.0789 144.9312 236.2581 144.462 C 236.4432 143.9762 237.0385 143.7228 237.5325 143.5624 C 238.0077 143.4087 238.5325 143.5684 239.0317 143.5624 C 239.531 143.5564 240.2896 143.0879 240.531 143.5249 C 241.1097 144.5707 240.9808 147.0857 240.9808 147.0857 "/>
      <g id="ID0.07771636918187141">
        <path id="ID0.7001032647676766" fill="none" stroke="#646B70" stroke-width="1.4992599487304688" stroke-linecap="round" d="M 241.6328 147.848 C 241.6328 147.848 241.4483 146.7947 241.3329 146.2737 C 241.2242 145.7835 240.7789 145.2812 240.9581 144.812 C 241.1432 144.3262 241.7385 144.0728 242.2325 143.9124 C 242.7077 143.7587 243.2325 143.9184 243.7317 143.9124 C 244.231 143.9064 244.9896 143.4379 245.231 143.8749 C 245.8097 144.9207 245.6808 147.4357 245.6808 147.4357 "/>
        <path id="ID0.7001032647676766" fill="none" stroke="#646B70" stroke-width="1.4992599487304688" stroke-linecap="round" d="M 245.8328 147.498 C 245.8328 147.498 245.6483 146.4447 245.5329 145.9237 C 245.4242 145.4335 244.9789 144.9312 245.1581 144.462 C 245.3432 143.9762 245.9385 143.7228 246.4325 143.5624 C 246.9077 143.4087 247.4325 143.5684 247.9317 143.5624 C 248.431 143.5564 249.1896 143.0879 249.431 143.5249 C 250.0097 144.5707 249.8808 147.0857 249.8808 147.0857 "/>
      </g>
      <path id="ID0.7001032647676766" fill="none" stroke="#646B70" stroke-width="1.499259893030276" stroke-linecap="round" d="M 250.6859 148.67 C 250.6859 148.67 250.6128 147.6032 250.5526 147.073 C 250.4959 146.5741 250.1057 146.0279 250.3331 145.58 C 250.5682 145.1163 251.1866 144.9267 251.6947 144.819 C 252.1835 144.7159 252.6886 144.9297 253.1857 144.9761 C 253.6829 145.0225 254.4864 144.636 254.6807 145.096 C 255.1466 146.1966 254.7548 148.6842 254.7548 148.6842 "/>
      <path id="ID0.7001032647676766" fill="none" stroke="#646B70" stroke-width="1.4992599487304688" stroke-linecap="round" d="M 277.3172 147.098 C 277.3172 147.098 277.5017 146.0447 277.6171 145.5237 C 277.7258 145.0335 278.1711 144.5312 277.9919 144.062 C 277.8068 143.5762 277.2115 143.3228 276.7175 143.1624 C 276.2423 143.0087 275.7175 143.1684 275.2183 143.1624 C 274.719 143.1564 273.9604 142.6879 273.719 143.1249 C 273.1403 144.1707 273.2692 146.6857 273.2692 146.6857 "/>
      <path id="ID0.7001032647676766" fill="none" stroke="#646B70" stroke-width="1.4992599487304688" stroke-linecap="round" d="M 273.0172 147.098 C 273.0172 147.098 273.2017 146.0447 273.3171 145.5237 C 273.4258 145.0335 273.8711 144.5312 273.6919 144.062 C 273.5068 143.5762 272.9115 143.3228 272.4175 143.1624 C 271.9423 143.0087 271.4175 143.1684 270.9183 143.1624 C 270.419 143.1564 269.6604 142.6879 269.419 143.1249 C 268.8403 144.1707 268.9692 146.6857 268.9692 146.6857 "/>
      <path id="ID0.7001032647676766" fill="none" stroke="#646B70" stroke-width="1.4992599487304688" stroke-linecap="round" d="M 267.9172 147.498 C 267.9172 147.498 268.1017 146.4447 268.2171 145.9237 C 268.3258 145.4335 268.7711 144.9312 268.5919 144.462 C 268.4068 143.9762 267.8115 143.7228 267.3175 143.5624 C 266.8423 143.4087 266.3175 143.5684 265.8183 143.5624 C 265.319 143.5564 264.5604 143.0879 264.319 143.5249 C 263.7403 144.5707 263.8692 147.0857 263.8692 147.0857 "/>
      <path id="ID0.7001032647676766" fill="none" stroke="#646B70" stroke-width="1.4992599487304688" stroke-linecap="round" d="M 263.6172 147.848 C 263.6172 147.848 263.8017 146.7947 263.9171 146.2737 C 264.0258 145.7835 264.4711 145.2812 264.2919 144.812 C 264.1068 144.3262 263.5115 144.0728 263.0175 143.9124 C 262.5423 143.7587 262.0175 143.9184 261.5183 143.9124 C 261.019 143.9064 260.2604 143.4379 260.019 143.8749 C 259.4403 144.9207 259.5692 147.4357 259.5692 147.4357 "/>
      <path id="ID0.7001032647676766" fill="none" stroke="#646B70" stroke-width="1.499259893030276" stroke-linecap="round" d="M 259.4641 148.67 C 259.4641 148.67 259.5372 147.6032 259.5974 147.073 C 259.6541 146.5741 260.0443 146.0279 259.8169 145.58 C 259.5818 145.1163 258.9634 144.9267 258.4553 144.819 C 257.9665 144.7159 257.4614 144.9297 256.9643 144.9761 C 256.4671 145.0225 255.6636 144.636 255.4693 145.096 C 255.0034 146.1966 255.3952 148.6842 255.3952 148.6842 "/>
      <path id="ID0.44800941413268447" fill="none" stroke="#565D61" stroke-width="1.6373945474624634" stroke-linecap="round" d="M 261.7586 122.7882 L 255.1681 119.2269 L 248.905 122.0514 "/>
    </g>
  </g>
  <path id="ID0.16308765020221472" fill="#8A8A8A" stroke="none" d="M 1.2243 317.4872 L 497.0275 317.4872 L 497.0275 322.0969 L 1.2243 322.0969 L 1.2243 317.4872 Z " stroke-width="2.0487735271453857"/>
  <g id="ID0.7613313789479434">
    <g id="ID0.7620966574177146">
      <path id="ID0.3840450206771493" fill="#E5E5E5" stroke="none" d="M 21.3239 30.3025 L 94.9279 30.3025 L 94.9279 34.8553 L 21.3239 34.8553 L 21.3239 30.3025 Z " stroke-width="3.03521990776062"/>
      <path id="ID0.08238389994949102" fill="#E5E5E5" stroke="none" d="M 21.3003 40.167 L 135.8798 40.167 L 135.8798 43.961 L 21.3003 43.961 L 21.3003 40.167 Z " stroke-width="3.03521990776062"/>
      <path id="ID0.3840450206771493" fill="#E5E5E5" stroke="none" d="M 21.7897 47.9025 L 116.7921 47.9025 L 116.7921 52.4553 L 21.7897 52.4553 L 21.7897 47.9025 Z " stroke-width="3.5043073164554266"/>
    </g>
    <g id="ID0.7620966574177146">
      <path id="ID0.3840450206771493" fill="#E5E5E5" stroke="none" d="M 21.5239 55.7025 L 95.1279 55.7025 L 95.1279 60.2553 L 21.5239 60.2553 L 21.5239 55.7025 Z " stroke-width="3.03521990776062"/>
      <path id="ID0.08238389994949102" fill="#E5E5E5" stroke="none" d="M 21.4503 65.567 L 136.0298 65.567 L 136.0298 69.361 L 21.4503 69.361 L 21.4503 65.567 Z " stroke-width="3.03521990776062"/>
      <path id="ID0.3840450206771493" fill="#E5E5E5" stroke="none" d="M 21.9897 73.3025 L 116.9921 73.3025 L 116.9921 77.8553 L 21.9897 77.8553 L 21.9897 73.3025 Z " stroke-width="3.5043073164554266"/>
    </g>
    <g id="ID0.7620966574177146">
      <path id="ID0.3840450206771493" fill="#E5E5E5" stroke="none" d="M 21.5239 102.7475 L 95.1279 102.7475 L 95.1279 98.1947 L 21.5239 98.1947 L 21.5239 102.7475 Z " stroke-width="3.03521990776062"/>
      <path id="ID0.08238389994949102" fill="#E5E5E5" stroke="none" d="M 21.4503 92.883 L 136.0298 92.883 L 136.0298 89.089 L 21.4503 89.089 L 21.4503 92.883 Z " stroke-width="3.03521990776062"/>
      <path id="ID0.3840450206771493" fill="#E5E5E5" stroke="none" d="M 21.9897 85.0975 L 116.9921 85.0975 L 116.9921 80.5447 L 21.9897 80.5447 L 21.9897 85.0975 Z " stroke-width="3.5043073164554266"/>
    </g>
  </g>
  <g id="ID0.7259497470222414">
    <g id="ID0.09656728152185678">
      <path id="ID0.40776309464126825" fill="none" stroke="#C03737" stroke-width="2" stroke-linecap="round" d="M 312 169.5 L 306.5 183 "/>
      <path id="ID0.6395557336509228" fill="none" stroke="#C03737" stroke-width="2" stroke-linecap="round" d="M 316.5 173.5 L 309 192.5 "/>
    </g>
    <g id="ID0.09656728152185678">
      <path id="ID0.40776309464126825" fill="none" stroke="#C03737" stroke-width="2" stroke-linecap="round" d="M 322.55 173.5 L 317.05 187 "/>
      <path id="ID0.6395557336509228" fill="none" stroke="#C03737" stroke-width="2" stroke-linecap="round" d="M 327.05 177.5 L 319.55 196.5 "/>
    </g>
    <g id="ID0.09656728152185678">
      <path id="ID0.40776309464126825" fill="none" stroke="#C03737" stroke-width="2" stroke-linecap="round" d="M 334.25 177.5 L 328.75 191 "/>
      <path id="ID0.6395557336509228" fill="none" stroke="#C03737" stroke-width="2" stroke-linecap="round" d="M 338.75 181.5 L 331.25 200.5 "/>
    </g>
    <g id="ID0.09656728152185678">
      <path id="ID0.40776309464126825" fill="none" stroke="#C03737" stroke-width="2" stroke-linecap="round" d="M 346.2 182 L 340.7 195.5 "/>
      <path id="ID0.6395557336509228" fill="none" stroke="#C03737" stroke-width="2" stroke-linecap="round" d="M 350.7 186 L 343.2 205 "/>
    </g>
    <g id="ID0.09656728152185678">
      <path id="ID0.40776309464126825" fill="none" stroke="#C03737" stroke-width="2" stroke-linecap="round" d="M 357.15 186 L 351.65 199.5 "/>
      <path id="ID0.6395557336509228" fill="none" stroke="#C03737" stroke-width="2" stroke-linecap="round" d="M 361.65 190 L 354.15 209 "/>
    </g>
    <g id="ID0.09656728152185678">
      <path id="ID0.40776309464126825" fill="none" stroke="#C03737" stroke-width="2" stroke-linecap="round" d="M 369.15 190.5 L 363.65 204 "/>
      <path id="ID0.6395557336509228" fill="none" stroke="#C03737" stroke-width="2" stroke-linecap="round" d="M 373.65 194.5 L 366.15 213.5 "/>
    </g>
    <g id="ID0.09656728152185678">
      <path id="ID0.40776309464126825" fill="none" stroke="#C03737" stroke-width="2" stroke-linecap="round" d="M 379.8 196.5 L 374.3 210 "/>
      <path id="ID0.6395557336509228" fill="none" stroke="#C03737" stroke-width="2" stroke-linecap="round" d="M 384.3 200.5 L 376.8 219.5 "/>
    </g>
    <g id="ID0.09656728152185678">
      <path id="ID0.40776309464126825" fill="none" stroke="#C03737" stroke-width="2" stroke-linecap="round" d="M 388.3 208.5 L 382.8 222 "/>
      <path id="ID0.6395557336509228" fill="none" stroke="#C03737" stroke-width="2" stroke-linecap="round" d="M 392.8 212.5 L 385.3 231.5 "/>
    </g>
    <g id="ID0.09656728152185678">
      <path id="ID0.40776309464126825" fill="none" stroke="#C03737" stroke-width="2" stroke-linecap="round" d="M 395 225.5 L 389.5 239 "/>
      <path id="ID0.6395557336509228" fill="none" stroke="#C03737" stroke-width="2" stroke-linecap="round" d="M 399.5 229.5 L 392 248.5 "/>
    </g>
  </g>
  <g id="ID0.7259497470222414">
    <g id="ID0.09656728152185678">
      <path id="ID0.40776309464126825" fill="none" stroke="#C03737" stroke-width="2" stroke-linecap="round" d="M 193.15 175.5 L 198.65 189 "/>
      <path id="ID0.6395557336509228" fill="none" stroke="#C03737" stroke-width="2" stroke-linecap="round" d="M 188.65 179.5 L 196.15 198.5 "/>
    </g>
    <g id="ID0.09656728152185678">
      <path id="ID0.40776309464126825" fill="none" stroke="#C03737" stroke-width="2" stroke-linecap="round" d="M 182.6 179.5 L 188.1 193 "/>
      <path id="ID0.6395557336509228" fill="none" stroke="#C03737" stroke-width="2" stroke-linecap="round" d="M 178.1 183.5 L 185.6 202.5 "/>
    </g>
    <g id="ID0.09656728152185678">
      <path id="ID0.40776309464126825" fill="none" stroke="#C03737" stroke-width="2" stroke-linecap="round" d="M 170.9 183.5 L 176.4 197 "/>
      <path id="ID0.6395557336509228" fill="none" stroke="#C03737" stroke-width="2" stroke-linecap="round" d="M 166.4 187.5 L 173.9 206.5 "/>
    </g>
    <g id="ID0.09656728152185678">
      <path id="ID0.40776309464126825" fill="none" stroke="#C03737" stroke-width="2" stroke-linecap="round" d="M 158.95 188 L 164.45 201.5 "/>
      <path id="ID0.6395557336509228" fill="none" stroke="#C03737" stroke-width="2" stroke-linecap="round" d="M 154.45 192 L 161.95 211 "/>
    </g>
    <g id="ID0.09656728152185678">
      <path id="ID0.40776309464126825" fill="none" stroke="#C03737" stroke-width="2" stroke-linecap="round" d="M 148 192 L 153.5 205.5 "/>
      <path id="ID0.6395557336509228" fill="none" stroke="#C03737" stroke-width="2" stroke-linecap="round" d="M 143.5 196 L 151 215 "/>
    </g>
    <g id="ID0.09656728152185678">
      <path id="ID0.40776309464126825" fill="none" stroke="#C03737" stroke-width="2" stroke-linecap="round" d="M 136 196.5 L 141.5 210 "/>
      <path id="ID0.6395557336509228" fill="none" stroke="#C03737" stroke-width="2" stroke-linecap="round" d="M 131.5 200.5 L 139 219.5 "/>
    </g>
    <g id="ID0.09656728152185678">
      <path id="ID0.40776309464126825" fill="none" stroke="#C03737" stroke-width="2" stroke-linecap="round" d="M 125.35 202.5 L 130.85 216 "/>
      <path id="ID0.6395557336509228" fill="none" stroke="#C03737" stroke-width="2" stroke-linecap="round" d="M 120.85 206.5 L 128.35 225.5 "/>
    </g>
    <g id="ID0.09656728152185678">
      <path id="ID0.40776309464126825" fill="none" stroke="#C03737" stroke-width="2" stroke-linecap="round" d="M 116.85 214.5 L 122.35 228 "/>
      <path id="ID0.6395557336509228" fill="none" stroke="#C03737" stroke-width="2" stroke-linecap="round" d="M 112.35 218.5 L 119.85 237.5 "/>
    </g>
    <g id="ID0.09656728152185678">
      <path id="ID0.40776309464126825" fill="none" stroke="#C03737" stroke-width="2" stroke-linecap="round" d="M 110.15 231.5 L 115.65 245 "/>
      <path id="ID0.6395557336509228" fill="none" stroke="#C03737" stroke-width="2" stroke-linecap="round" d="M 105.65 235.5 L 113.15 254.5 "/>
    </g>
  </g>
  <g id="ID0.8991661537438631">
    <path id="ID0.5798846324905753" fill="#242B34" stroke="none" d="M 311.6062 247.3338 L 488.8251 247.3338 L 488.8251 309.3092 L 311.6062 309.3092 L 311.6062 247.3338 Z " stroke-width="2.0487735271453857"/>
    <path id="ID0.031489289831370115" fill="#C03737" stroke="none" d="M 347.9549 257.5874 L 400.1986 257.5874 L 400.1986 269.88 L 347.9549 269.88 L 347.9549 257.5874 Z " stroke-width="2.0487735271453857"/>
    <path id="ID0.990744502749294" fill="#C03737" stroke="none" d="M 325.4184 266.8069 L 473.9544 266.8069 L 473.9544 277.5629 L 325.4184 277.5629 L 325.4184 266.8069 Z " stroke-width="2.0487735271453857"/>
    <path id="ID0.031489289831370115" fill="#C03737" stroke="none" d="M 370.5049 276.5374 L 422.7486 276.5374 L 422.7486 288.83 L 370.5049 288.83 L 370.5049 276.5374 Z " stroke-width="2.0487735271453857"/>
    <path id="ID0.031489289831370115" fill="#C03737" stroke="none" d="M 404.8049 271.4374 L 457.0486 271.4374 L 457.0486 283.73 L 404.8049 283.73 L 404.8049 271.4374 Z " stroke-width="2.0487735271453857"/>
    <path id="ID0.990744502749294" fill="#C03737" stroke="none" d="M 330.774 287.3069 L 470.6028 287.3069 L 470.6028 298.0629 L 330.774 298.0629 L 330.774 287.3069 Z " stroke-width="1.9896296914394882"/>
  </g>
</svg>