<svg xmlns="http://www.w3.org/2000/svg" xmlns:xlink="http://www.w3.org/1999/xlink" version="1.1" width="136.90053525011734" height="266.94597592394547" viewBox="1.4553810832848348 9.719835448061446 136.90053525011734 266.94597592394547">
  <!-- Exported by Scratch - http://scratch.mit.edu/ -->
  <path id="ID0.7766774026677012" fill="#0D0D0D" stroke="#0D0D0D" stroke-width="1.991477632929842" stroke-linecap="round" d="M 131.7959 137.4028 C 135.5217 104.4146 140.8537 70.3436 134.1831 37.4306 C 131.6601 24.9869 117.2414 17.4643 105.882 11.603 C 100.6968 8.9306 94.5206 13.0496 88.9005 14.0642 C 87.3052 14.3482 86.0317 15.2238 84.6382 15.7401 C 82.6922 16.275 80.6756 16.6082 78.8893 17.2156 C 78.2567 17.4324 77.6206 17.6447 77.0225 17.9642 C 76.3319 18.2212 75.7701 18.6456 75.1225 18.9584 C 73.7843 19.5282 72.4395 20.1471 71.1079 20.6678 C 69.7896 21.0902 68.435 21.4077 67.1596 21.8859 C 66.5252 22.1005 65.8479 22.2592 65.2928 22.6345 C 64.6385 22.9964 64.1493 23.6308 63.5743 24.1534 C 63.0125 24.5779 62.4507 25.0023 61.8889 25.4267 C 61.3338 25.802 60.6299 26.1573 60.2035 26.7 C 59.7342 27.187 59.5357 27.9105 59.1952 28.5649 C 58.8613 29.1701 58.4778 29.7687 58.1868 30.4297 C 57.5685 31.6469 56.9932 32.9199 56.4178 34.1928 C 56.0839 34.7981 55.75 35.4033 55.4094 36.0577 C 55.0755 36.6629 54.7416 37.2682 54.4011 37.9225 C 54.0672 38.5278 53.7332 39.133 53.3927 39.7874 C 53.0588 40.3926 52.6258 40.9845 52.3843 41.6522 C 52.1 42.2642 52.0138 42.9028 51.8715 43.5839 C 51.6862 44.2092 51.5009 44.8345 51.3586 45.5156 C 51.1733 46.1409 51.0376 46.7729 50.8457 47.4473 C 50.6109 48.0659 50.277 48.6712 50.0851 49.3456 C 49.3807 51.2014 48.7125 53.1622 48.051 55.0738 C 47.8162 55.6924 47.4823 56.2977 47.2904 56.9721 C 47.0556 57.5907 46.9199 58.2227 46.7776 58.9038 C 46.5923 59.5291 46.3575 60.1477 46.2647 60.8355 C 46.129 61.4674 46.0924 62.1128 45.9996 62.8006 C 45.8273 64.0779 45.5492 65.391 45.4694 66.7308 C 45.3832 67.3695 45.5417 67.691 45.452 68.7294 C 44.9647 72.7154 44.3717 76.7372 43.8283 80.7657 C 43.3047 84.6468 42.7678 88.6262 42.2376 92.5564 C 41.9791 94.4724 41.757 96.4933 41.4423 98.4518 C 41.3066 99.0837 41.1213 99.709 40.9294 100.3835 C 40.4829 101.8239 39.9438 103.2018 39.5897 104.7047 C 39.4044 105.33 39.4174 105.982 39.3246 106.6698 C 39.1889 107.3018 38.9541 107.9204 38.8117 108.6015 C 38.4412 109.8521 38.0145 111.1451 37.786 112.4649 C 37.5146 113.7288 37.4347 115.0687 37.2558 116.3951 C 36.7322 120.2762 36.1954 124.2556 35.6651 128.1858 C 35.5392 129.1193 35.5424 129.4698 35.4 130.1509 C 35.2148 130.7762 34.8313 131.3748 34.6394 132.0492 C 34.0341 133.9184 33.6137 135.9126 33.1008 137.8443 C 32.9156 138.4696 32.7799 139.1016 32.588 139.776 C 32.1051 141.1115 31.4736 142.4269 31.0336 143.8182 C 30.7922 144.4859 30.6366 145.2653 30.4876 145.9955 C 30.2957 146.6699 30.0477 147.3868 29.9416 148.1728 C 29.8059 148.8048 29.7693 149.4502 29.6765 150.138 C 29.5903 150.7766 29.4051 151.4019 29.4114 152.1031 C 29.3877 153.4004 29.5556 154.7737 29.6245 156.1336 C 29.6374 156.7856 29.6503 157.4376 29.6071 158.1321 C 29.5209 158.7708 29.4348 159.4094 29.342 160.0972 C 29.2558 160.7359 29.1697 161.3746 29.0769 162.0623 C 28.8055 163.3263 28.6265 164.6528 28.2989 165.9592 C 27.935 167.1606 27.0586 169.5435 27.0586 169.5435 C 26.7446 170.0013 25.7509 172.7145 25.1902 174.0435 C 24.8859 174.7658 24.4701 175.439 24.1487 176.154 C 23.8691 176.7756 23.6418 177.4202 23.3881 178.0523 C 23.1343 178.6843 22.8428 179.3043 22.6274 179.9505 C 22.4171 180.5825 22.3249 181.2503 22.1146 181.8822 C 21.8992 182.5285 21.6439 183.1643 21.354 183.7805 C 21.0539 184.4193 20.6085 184.9905 20.3456 185.6454 C 20.0978 186.2632 20.0033 186.9338 19.8327 187.577 C 19.6622 188.2203 19.4904 188.8655 19.3199 189.5087 C 19.1493 190.152 18.9775 190.7971 18.807 191.4404 C 18.6365 192.0837 18.4108 192.7166 18.2941 193.3721 C 18.0632 194.6726 17.9949 196.0019 17.7639 197.3024 C 17.6472 197.9579 17.4216 198.5908 17.2511 199.2341 C 17.0805 199.8773 16.8549 200.5102 16.7382 201.1657 C 16.5073 202.4662 16.3568 203.7835 16.208 205.096 C 15.9102 207.722 15.6821 210.3634 15.3953 212.9899 C 15.3239 213.6465 15.2185 214.3006 15.1302 214.955 C 15.0419 215.6094 14.9949 216.2723 14.8651 216.9201 C 14.7347 217.5728 14.5626 218.2199 14.3523 218.8518 C 14.1369 219.498 13.7661 220.0923 13.5916 220.7501 C 13.4218 221.3884 13.4563 222.0674 13.3265 222.7152 C 13.1961 223.3679 12.9441 223.9942 12.8137 224.6469 C 12.6839 225.2947 12.6783 225.9642 12.5486 226.612 C 12.4181 227.2647 12.2461 227.9118 12.0357 228.5437 C 11.8204 229.1899 11.4904 229.7957 11.2751 230.442 C 11.0647 231.0739 10.9726 231.7417 10.7622 232.3737 C 10.5469 233.0199 10.2033 233.6218 10.0016 234.2719 C 9.6071 235.5433 9.3179 236.8489 8.9759 238.1353 C 8.8054 238.7786 8.6336 239.4237 8.463 240.067 C 8.2925 240.7103 8.0806 241.346 7.9502 241.9987 C 7.8204 242.6465 7.7316 243.3048 7.6851 243.9638 C 7.6379 244.6277 7.7289 245.2993 7.6677 245.9624 C 7.5458 247.2775 7.4763 248.6157 7.1375 249.8926 C 6.7885 251.2081 6.1715 252.4455 5.6163 253.6891 C 5.3285 254.3336 4.908 254.9152 4.6079 255.554 C 4.3179 256.1701 4.1373 256.8361 3.8473 257.4522 C 3.5472 258.0911 3.0614 258.6478 2.8389 259.3171 C 2.6302 259.9442 2.2568 260.7002 2.5738 261.2822 C 2.9118 261.9031 3.7684 262.1057 4.4564 262.2865 C 5.1054 262.4571 5.8066 262.2186 6.4716 262.3083 C 7.1366 262.398 7.7555 262.7316 8.4205 262.8213 C 9.0855 262.911 9.7661 262.7947 10.4357 262.843 C 11.1003 262.8907 11.7737 262.9405 12.4177 263.1104 C 13.0814 263.285 13.7555 263.501 14.3335 263.8691 C 14.9365 264.2536 15.2592 265.0184 15.9021 265.3313 C 16.5005 265.6231 17.2241 265.5096 17.8842 265.5987 C 18.5442 265.6877 19.2001 265.8592 19.8662 265.866 C 20.5524 265.8736 21.2284 265.6346 21.9145 265.6422 C 22.5806 265.649 23.2431 265.7794 23.8966 265.9095 C 24.555 266.0404 25.1871 266.2917 25.8455 266.4226 C 26.4989 266.5527 27.1835 266.52 27.8275 266.69 C 28.4911 266.8645 29.0797 267.2741 29.7433 267.4486 C 30.3874 267.6186 31.0719 267.5858 31.7253 267.716 C 32.3838 267.8469 33.0252 268.0585 33.6742 268.229 C 34.3233 268.3996 34.9554 268.673 35.6232 268.7421 C 37.6175 268.9481 39.636 268.9083 41.6356 269.053 C 42.3002 269.1006 42.9641 269.1902 43.6176 269.3204 C 44.276 269.4512 44.9053 269.7162 45.5665 269.8334 C 46.8783 270.0654 48.2188 270.1362 49.5306 270.3682 C 50.1919 270.4854 50.8211 270.7504 51.4795 270.8812 C 52.133 271.0114 52.797 271.1009 53.4616 271.1486 C 54.1311 271.1969 54.8072 271.122 55.4767 271.1703 C 56.1413 271.218 56.7942 271.3901 57.4588 271.4377 C 58.1283 271.486 58.8036 271.4251 59.474 271.4595 C 60.8067 271.5282 62.1482 271.5701 63.4712 271.7486 C 64.1362 271.8383 64.7825 272.0516 65.4201 272.2616 C 66.0722 272.4767 66.6723 272.8457 67.3359 273.0203 C 67.9799 273.1902 68.6579 273.1987 69.3179 273.2877 C 71.298 273.5548 73.2932 273.762 75.2641 274.0899 C 75.9262 274.2002 76.5545 274.4721 77.213 274.6029 C 77.8664 274.7331 78.5304 274.8226 79.195 274.8703 C 79.8646 274.9186 80.5392 274.8845 81.2102 274.892 C 81.8812 274.8995 82.5558 274.8655 83.2254 274.9138 C 83.89 274.9614 84.542 275.2145 85.2074 275.1812 C 85.9175 275.1459 85.6514 274.9119 87.2889 274.7116 C 93.8378 273.9104 104.7483 278.5957 107.1709 272.4417 C 115.811 250.4841 111.3167 225.0678 115.5485 201.7402 C 119.4469 180.2624 129.2804 159.4523 131.7959 137.4028 Z "/>
</svg>