<svg xmlns="http://www.w3.org/2000/svg" xmlns:xlink="http://www.w3.org/1999/xlink" version="1.1" width="287.59635175714175" height="309.575904979798" viewBox="-0.12119061474640591 0.9537758159176566 287.59635175714175 309.575904979798">
  <!-- Exported by Scratch - http://scratch.mit.edu/ -->
  <g id="ID0.7085462282411754">
    <g id="ID0.5880346246995032">
      <path id="ID0.6829322893172503" fill="#796B5E" stroke="none" stroke-linecap="round" d="M 130.1319 167.4698 L 142.2724 167.6723 L 142.6208 174.4448 L 143.528 181.996 L 140.7472 187.3874 L 137.8949 191.521 L 134.5115 193.4257 L 129.9086 199.0913 L 125.6525 196.6366 L 125.5094 194.1209 L 124.0938 193.1415 L 122.355 189.0646 L 120.6255 184.5043 L 120.9168 179.2846 L 125.1502 172.9388 L 130.1319 167.4698 Z " stroke-width="0.860103544862228"/>
      <g id="ID0.9434720128774643">
        <path id="ID0.6507829907350242" fill="#2C3134" stroke="none" stroke-linecap="round" d="M 156.4109 103.5467 L 169.0563 122.3214 L 159.5634 137.654 L 152.3834 149.061 L 144.5376 164.2725 L 143.2999 171.979 L 128.416 167.2267 L 132.7506 160.5916 L 135.8134 150.464 L 139.2204 137.3414 L 144.9382 124.3937 L 156.4109 103.5467 Z " stroke-width="0.860103544862228"/>
        <path id="ID0.9892375003546476" fill="none" stroke="#191919" stroke-width="2.106910174198116" stroke-linecap="round" d="M 129.255 166.5927 L 143.1176 170.5038 L 144.934 161.2806 "/>
      </g>
    </g>
    <path id="ID0.7729651997797191" fill="#2C3134" stroke="none" stroke-linecap="round" d="M 171.1756 74.3075 L 194.9132 81.6749 L 185.4322 101.095 L 177.8482 110.3987 L 173.2499 119.1221 L 167.8254 126.8059 L 152.3254 117.8885 L 152.4022 110.3131 L 164.996 87.7251 L 171.1756 74.3075 Z " stroke-width="1.0101170654897502"/>
    <path id="ID0.4757494777441025" fill="#2C3134" stroke="none" stroke-linecap="round" d="M 187.9395 62.8165 L 197.3342 64.1661 L 211.286 75.4041 L 192.9526 97.1559 L 180.6404 97.8969 L 175.7057 97.1261 L 173.4512 93.4867 L 171.7897 89.4058 L 167.1389 84.5237 L 169.2016 79.0877 L 173.138 71.411 L 179.6604 64.5087 L 187.9395 62.8165 Z " stroke-width="0.5087011852918293"/>
  </g>
  <g id="ID0.6688785348087549">
    <path id="ID0.5368814701214433" fill="#343434" stroke="none" stroke-linecap="round" d="M 129.1344 189.1565 L 130.4465 179.0247 L 130.3613 167.7197 L 117.6848 168.8196 L 102.8871 171.0743 L 80.6565 173.0875 L 76.5046 179.0476 L 100.4722 191.8966 L 123.3027 198.3015 L 129.1344 189.1565 Z " stroke-width="0.8471283342911995"/>
    <g id="ID0.5077062323689461">
      <path id="ID0.05466862628236413" fill="#252525" stroke="none" stroke-linecap="round" d="M 162.2265 116.796 L 142.2834 103.1818 L 137.0643 118.5835 L 135.4309 123.9127 L 128.5882 138.2992 L 110.3822 170.136 L 130.168 182.9321 L 140.3613 164.9467 L 145.9984 159.0224 L 150.8142 151.9016 L 154.4792 140.1161 L 159.3606 130.1175 L 162.2265 116.796 Z " stroke-width="0.6597530586189023"/>
      <path id="ID0.5319394422695041" fill="none" stroke="#131313" stroke-width="2.1997146171461615" stroke-linecap="round" d="M 110.9834 169.431 L 130.1938 183.4512 L 136.6246 172.5043 "/>
    </g>
  </g>
  <g id="ID0.8820344842970371">
    <path id="ID0.3809091211296618" fill="#252525" stroke="none" stroke-linecap="round" d="M 187.4354 185.7958 L 227.0918 175.5549 L 208.8589 156.0727 L 173.4927 115.9334 L 164.6051 108.1135 L 152.6133 102.6767 L 148.1699 110.7552 L 137.2663 120.0338 L 154.0043 137.1585 L 163.2184 148.6837 L 187.4354 185.7958 Z " stroke-width="0.8035436656303547"/>
    <path id="ID0.9495224836282432" fill="none" stroke="#131313" stroke-width="2.1997147267116404" stroke-linecap="round" d="M 173.3125 115.8414 L 166.5777 109.3573 L 158.7135 104.8393 L 148.664 108.1413 L 143.9395 105.1194 "/>
  </g>
  <g id="ID0.7085462282411754">
    <g id="ID0.5880346246995032">
      <path id="ID0.6829322893172503" fill="#796B5E" stroke="none" stroke-linecap="round" d="M 281.4109 186.4286 L 269.8402 182.7474 L 267.3494 189.0549 L 264.0806 195.9221 L 264.9961 201.9189 L 266.3806 206.7464 L 268.9796 209.631 L 271.5345 216.469 L 276.3514 215.5003 L 277.2895 213.1618 L 278.9436 212.6851 L 281.8921 209.376 L 284.9861 205.6057 L 286.3753 200.5658 L 284.3875 193.201 L 281.4109 186.4286 Z " stroke-width="0.860103543738539"/>
      <g id="ID0.9434720128774643">
        <path id="ID0.6507829907350242" fill="#2C3134" stroke="none" stroke-linecap="round" d="M 276.8437 117.4239 L 258.8696 131.1834 L 262.975 148.7432 L 266.1407 161.8448 L 268.7238 178.7644 L 267.4383 186.4631 L 283.0605 186.7074 L 281.0691 179.0362 L 281.3974 168.4607 L 282.3548 154.9369 L 281.0663 140.8416 L 276.8437 117.4239 Z " stroke-width="0.860103543738539"/>
        <path id="ID0.9892375003546476" fill="none" stroke="#191919" stroke-width="2.106910173892899" stroke-linecap="round" d="M 282.3832 185.9734 L 267.9973 185.2577 L 269.2182 175.937 "/>
      </g>
    </g>
    <path id="ID0.7729651997797191" fill="#2C3134" stroke="none" stroke-linecap="round" d="M 272.2088 84.9801 L 247.3612 84.3897 L 250.1514 105.8196 L 254.3709 117.0567 L 255.9461 126.7913 L 258.6358 135.804 L 276.1707 132.2974 L 278.5147 125.0933 L 273.7849 99.668 L 272.2088 84.9801 Z " stroke-width="1.0101169804377628"/>
    <path id="ID0.4757494777441025" fill="#2C3134" stroke="none" stroke-linecap="round" d="M 260.0105 68.719 L 250.6761 67.001 L 233.8681 73.2008 L 244.3043 99.6648 L 255.7368 104.295 L 260.6595 105.1386 L 263.9572 102.4087 L 266.8338 99.0711 L 272.7992 95.9278 L 272.5784 90.1178 L 271.2967 81.5865 L 267.3171 72.964 L 260.0105 68.719 Z " stroke-width="0.508701167313651"/>
  </g>
  <g id="ID0.8990198895335197">
    <path id="ID0.17576928716152906" fill="#DBDBDB" stroke="none" d="M 220.973 60.517 L 221.2338 60.5334 L 221.2338 60.5334 L 220.973 60.517 L 220.973 60.517 Z " stroke-width="1.0534572489367935"/>
    <path id="ID0.4270821204409003" fill="#252525" stroke="none" stroke-linecap="round" d="M 214.9153 189.9953 L 222.6676 70.5475 L 204.3974 72.04 L 196.9952 76.2856 L 193.8305 80.4542 L 185.9845 92.2698 L 186.2619 103.4109 L 187.0115 109.2598 L 184.9622 116.5101 L 184.22 122.297 L 186.149 129.7126 L 187.6054 135.3379 L 188.4333 145.2371 L 185.8872 168.4024 L 190.8905 177.3368 L 195.6102 184.1347 L 214.9153 189.9953 Z " stroke-width="0.501595785399862"/>
    <path id="ID0.4270821204409003" fill="#252525" stroke="none" stroke-linecap="round" d="M 214.9446 190.0375 L 222.1667 70.5565 L 240.1077 74.3184 L 246.9219 79.455 L 249.5413 83.9862 L 255.8507 96.6889 L 254.1844 107.7082 L 252.7104 113.4177 L 253.8384 120.8672 L 253.8522 126.7015 L 251.0125 133.8181 L 248.8651 139.2176 L 246.8077 148.936 L 246.4415 172.2379 L 240.3619 180.4777 L 243.3692 198.0518 L 214.9446 190.0375 Z " stroke-width="0.5015958026200296"/>
    <path id="ID0.5114514343440533" fill="#282828" stroke="none" d="M 249.5709 73.5332 L 194.2795 70.0679 L 188.4195 163.5681 L 243.7109 167.0334 L 249.5709 73.5332 Z " stroke-width="1.0624883561200273"/>
    <path id="ID0.9286923445761204" fill="#D4D4D4" stroke="none" stroke-linecap="round" d="M 233.7187 57.9846 L 216.9316 37.0036 L 223.1041 57.4713 L 219.1004 100.2686 L 260.6182 71.9772 L 240.3243 59.2089 L 233.7187 57.9846 Z " stroke-width="0.5015958626722967"/>
    <path id="ID0.9286923445761204" fill="#D4D4D4" stroke="none" stroke-linecap="round" d="M 216.8181 55.7686 L 232.3524 38.2567 L 223.6727 57.7935 L 219.7503 100.0895 L 184.641 67.5021 L 206.0642 56.2847 L 216.8181 55.7686 Z " stroke-width="0.5015958626722967"/>
    <path id="ID0.39874776685610414" fill="#1F2022" stroke="none" stroke-linecap="round" d="M 242.2854 60.2244 L 220.9013 69.3833 L 202.8558 58.7209 L 198.5376 60.7243 L 220.8543 73.3961 L 246.0772 62.5425 L 242.2854 60.2244 Z " stroke-width="0.9935621547785666"/>
    <path id="ID0.13444371055811644" fill="#1F1F1F" stroke="none" stroke-linecap="round" d="M 223.1845 71.5061 L 217.7241 70.898 L 212.9106 100.9104 L 225.4484 102.2281 L 223.1845 71.5061 Z " stroke-width="1.0534572489367935"/>
    <path id="ID0.751046194229275" fill="#191919" stroke="none" stroke-linecap="round" d="M 225.9643 66.4048 L 221.2224 63.943 L 216.3822 65.8042 L 215.3937 74.2249 L 219.9182 75.5615 L 225.4348 74.8542 L 225.9643 66.4048 Z " stroke-width="1.1588030157999438"/>
    <path id="ID0.7854711129330099" fill="#282828" stroke="none" stroke-linecap="round" d="M 233.8583 89.9489 L 218.672 98.3041 L 204.9749 87.0751 L 205.8994 105.7469 L 230.1545 107.2671 L 233.8583 89.9489 Z " stroke-width="1.0534572489367935"/>
    <path id="ID0.562834897544235" fill="#282828" stroke="none" stroke-linecap="round" d="M 246.5847 166.7978 L 215.4087 158.7279 L 214.064 180.1826 L 228.3255 182.406 L 246.5847 166.7978 Z " stroke-width="1.0534572489367935"/>
    <path id="ID0.562834897544235" fill="#282828" stroke="none" stroke-linecap="round" d="M 183.1754 163.2029 L 215.1151 159.0886 L 213.7704 180.5434 L 199.343 180.9687 L 183.1754 163.2029 Z " stroke-width="1.0534572489367935"/>
    <path id="ID0.6824178956449032" fill="none" stroke="#191919" stroke-width="2.106914497873587" stroke-linecap="round" d="M 218.927 98.6517 L 214.0914 179.9841 "/>
    <path id="ID0.4144489667378366" fill="#40474C" stroke="none" stroke-linecap="round" d="M 261.3667 68.8044 L 240.7725 59.0045 L 242.4579 82.2446 L 235.0833 145.6016 L 242.0225 193.635 L 253.8301 189.0568 L 253.8585 192.7813 L 253.9161 141.7296 L 261.7434 96.2171 L 263.8656 79.0658 L 261.3667 68.8044 Z " stroke-width="1.0534572489367935"/>
    <path id="ID0.5234400681219995" fill="#101010" stroke="none" d="M 216.2278 104.3767 C 215.7973 104.3497 215.3958 104.5028 215.0952 104.7721 C 214.7946 105.0414 214.5949 105.4269 214.5675 105.8641 C 214.5401 106.3013 214.6901 106.7087 214.9547 107.0135 C 215.2194 107.3182 215.5986 107.5202 216.0291 107.5472 C 216.4596 107.5742 216.8611 107.4211 217.1617 107.1518 C 217.4623 106.8825 217.662 106.4969 217.6894 106.0598 C 217.7168 105.6226 217.5668 105.2151 217.3022 104.9104 C 217.0376 104.6057 216.6583 104.4036 216.2278 104.3767 Z " stroke-width="0.6636780913406511"/>
    <path id="ID0.5234400681219995" fill="#101010" stroke="none" d="M 215.2778 118.7767 C 214.8473 118.7497 214.4458 118.9028 214.1452 119.1721 C 213.8446 119.4414 213.6449 119.8269 213.6175 120.2641 C 213.5901 120.7013 213.7401 121.1087 214.0047 121.4135 C 214.2694 121.7182 214.6486 121.9202 215.0791 121.9472 C 215.5096 121.9742 215.9111 121.8211 216.2117 121.5518 C 216.5123 121.2825 216.712 120.8969 216.7394 120.4598 C 216.7668 120.0226 216.6168 119.6151 216.3522 119.3104 C 216.0876 119.0057 215.7083 118.8036 215.2778 118.7767 Z " stroke-width="0.6636780913406511"/>
    <path id="ID0.5234400681219995" fill="#101010" stroke="none" d="M 213.1778 152.2267 C 212.7473 152.1997 212.3458 152.3528 212.0452 152.6221 C 211.7446 152.8914 211.5449 153.2769 211.5175 153.7141 C 211.4901 154.1513 211.6401 154.5587 211.9047 154.8635 C 212.1694 155.1682 212.5486 155.3702 212.9791 155.3972 C 213.4096 155.4242 213.8111 155.2711 214.1117 155.0018 C 214.4123 154.7325 214.612 154.3469 214.6394 153.9098 C 214.6668 153.4726 214.5168 153.0651 214.2522 152.7604 C 213.9876 152.4557 213.6083 152.2536 213.1778 152.2267 Z " stroke-width="0.6636780913406511"/>
    <path id="ID0.5234400681219995" fill="#101010" stroke="none" d="M 214.2278 136.4767 C 213.7973 136.4497 213.3958 136.6028 213.0952 136.8721 C 212.7946 137.1414 212.5949 137.5269 212.5675 137.9641 C 212.5401 138.4013 212.6901 138.8087 212.9547 139.1135 C 213.2194 139.4182 213.5986 139.6202 214.0291 139.6472 C 214.4596 139.6742 214.8611 139.5211 215.1617 139.2518 C 215.4623 138.9825 215.662 138.5969 215.6894 138.1598 C 215.7168 137.7226 215.5668 137.3151 215.3022 137.0104 C 215.0376 136.7057 214.6583 136.5036 214.2278 136.4767 Z " stroke-width="0.6636780913406511"/>
    <path id="ID0.5234400681219995" fill="#101010" stroke="none" d="M 212.4278 167.0767 C 211.9973 167.0497 211.5958 167.2028 211.2952 167.4721 C 210.9946 167.7414 210.7949 168.1269 210.7675 168.5641 C 210.7401 169.0013 210.8901 169.4087 211.1547 169.7135 C 211.4194 170.0182 211.7986 170.2202 212.2291 170.2472 C 212.6596 170.2742 213.0611 170.1211 213.3617 169.8518 C 213.6623 169.5825 213.862 169.1969 213.8894 168.7598 C 213.9168 168.3226 213.7668 167.9151 213.5022 167.6104 C 213.2376 167.3057 212.8583 167.1036 212.4278 167.0767 Z " stroke-width="0.6636780913406511"/>
    <path id="ID0.4144489667378366" fill="#40474C" stroke="none" stroke-linecap="round" d="M 184.8941 63.1807 L 206.5508 56.0288 L 201.9769 78.8766 L 201.3833 142.6586 L 188.5011 189.4497 L 177.3575 183.4331 L 176.8643 187.1249 L 183.1813 136.4655 L 181.0978 90.3319 L 181.1336 73.0498 L 184.8941 63.1807 Z " stroke-width="1.0534572489367935"/>
    <path id="ID0.8752945330925286" fill="none" stroke="#222222" stroke-width="2.106914497873587" stroke-linecap="round" d="M 260.8285 69.0366 L 263.7044 77.4602 L 257.8072 117.2435 "/>
    <path id="ID0.8752945330925286" fill="none" stroke="#222222" stroke-width="2.106914497873587" stroke-linecap="round" d="M 184.6991 63.7783 L 180.794 71.7769 L 181.6779 111.9852 "/>
    <path id="ID0.5234400681219995" fill="#101010" stroke="none" d="M 237.2778 154.3767 C 236.8473 154.3497 236.4458 154.5028 236.1452 154.7721 C 235.8446 155.0414 235.6449 155.4269 235.6175 155.8641 C 235.5901 156.3013 235.7401 156.7087 236.0047 157.0135 C 236.2694 157.3182 236.6486 157.5202 237.0791 157.5472 C 237.5096 157.5742 237.9111 157.4211 238.2117 157.1518 C 238.5123 156.8825 238.712 156.4969 238.7394 156.0598 C 238.7668 155.6226 238.6168 155.2151 238.3522 154.9104 C 238.0876 154.6057 237.7083 154.4036 237.2778 154.3767 Z " stroke-width="0.6636780913406511"/>
    <path id="ID0.5234400681219995" fill="#101010" stroke="none" d="M 238.2778 162.1767 C 237.8473 162.1497 237.4458 162.3028 237.1452 162.5721 C 236.8446 162.8414 236.6449 163.2269 236.6175 163.6641 C 236.5901 164.1013 236.7401 164.5087 237.0047 164.8135 C 237.2694 165.1182 237.6486 165.3202 238.0791 165.3472 C 238.5096 165.3742 238.9111 165.2211 239.2117 164.9518 C 239.5123 164.6825 239.712 164.2969 239.7394 163.8598 C 239.7668 163.4226 239.6168 163.0151 239.3522 162.7104 C 239.0876 162.4057 238.7083 162.2036 238.2778 162.1767 Z " stroke-width="0.6636780913406511"/>
    <g id="ID0.20783481979742646">
      <path id="ID0.5848579816520214" fill="#737373" stroke="none" stroke-linecap="round" d="M 193.8452 93.9544 L 186.7986 91.9173 L 186.644 96.0558 L 194.1742 97.0596 L 193.8452 93.9544 Z " stroke-width="1.0534572489367935"/>
      <path id="ID0.13105127029120922" fill="none" stroke="#222222" stroke-width="2.106914497873587" stroke-linecap="round" d="M 195.566 97.4128 L 190.8715 97.1185 L 185.4941 95.186 "/>
    </g>
  </g>
  <path id="ID0.46110434643924236" fill="#675B50" stroke="none" stroke-linecap="round" d="M 236.3963 38.4698 L 212.8039 36.9911 L 211.0579 57.038 L 217.3307 60.4625 L 235.0617 59.7656 L 236.3963 38.4698 Z " stroke-width="1.144406894210797"/>
  <g id="ID0.9597035455517471">
    <path id="ID0.5368814701214433" fill="#404040" stroke="none" stroke-linecap="round" d="M 142.4634 215.0959 L 143.6057 204.9436 L 143.3314 193.6416 L 130.675 194.9535 L 115.9171 197.4555 L 93.7233 199.8405 L 89.6718 205.8693 L 113.8511 218.3153 L 136.7855 224.3373 L 142.4634 215.0959 Z " stroke-width="0.8471282696657984"/>
    <g id="ID0.5077062323689461">
      <path id="ID0.05466862628236413" fill="#252525" stroke="none" stroke-linecap="round" d="M 173.42 141.0035 L 152.9187 128.2455 L 148.356 143.8542 L 146.9496 149.2478 L 140.7219 163.911 L 123.8794 196.4896 L 144.1889 208.437 L 153.612 190.0363 L 158.9933 183.8789 L 163.5036 176.5606 L 166.6666 164.6306 L 171.1205 154.4343 L 173.42 141.0035 Z " stroke-width="0.6597530406986021"/>
      <path id="ID0.5319394422695041" fill="none" stroke="#131313" stroke-width="2.1997147942511126" stroke-linecap="round" d="M 124.5151 195.7528 L 144.3015 208.9475 L 150.2634 197.7383 "/>
    </g>
  </g>
  <g id="ID0.8820344842970371">
    <path id="ID0.3809091211296618" fill="#252525" stroke="none" stroke-linecap="round" d="M 212.2891 209.2892 L 245.5137 199.2758 L 226.3812 180.6763 L 189.1592 142.2516 L 179.9123 134.86 L 167.6772 129.9955 L 163.6202 138.2748 L 151.6897 147.4703 L 168.558 166.6012 L 178.203 177.2887 L 212.2891 209.2892 Z " stroke-width="0.8035436602052097"/>
    <path id="ID0.9495224836282432" fill="none" stroke="#131313" stroke-width="2.1997145314683637" stroke-linecap="round" d="M 188.913 142.3313 L 181.8797 136.1724 L 173.8109 132.0308 L 163.9285 135.8036 L 159.0666 133.0082 "/>
  </g>
  <path id="ID0.7592270169407129" fill="none" stroke="#675B50" stroke-width="1.0984285790334851" stroke-linecap="round" d="M 214.4015 53.1825 C 214.4015 53.1825 214.2769 53.9362 214.3401 54.3058 C 214.4012 54.6646 214.6767 54.9622 214.7656 55.3152 C 214.8548 55.6704 214.7891 56.0519 214.8696 56.409 C 214.9493 56.7641 215.0449 57.1305 215.2431 57.4368 C 215.4117 57.6972 215.9393 58.0605 215.9393 58.0605 "/>
  <path id="ID0.48112139804288745" fill="#3A3A3A" stroke="#3A3A3A" stroke-width="2.0362677273147565" stroke-linecap="round" d="M 200.2944 14.3674 C 199.6618 14.7639 200.3904 16.204 200.1651 17.0573 C 199.9841 17.7423 199.3343 18.2743 199.2299 18.975 C 199.1304 19.6471 199.4168 20.3253 199.5812 20.9839 C 200.0445 22.8427 200.1169 25.3306 201.1351 26.7338 C 201.5393 27.213 202.0616 25.3937 202.426 24.7486 C 203.1721 23.4535 203.9708 22.0992 204.4427 20.7543 C 204.6678 20.1127 204.5747 19.4001 204.6031 18.7212 C 204.6308 18.0474 204.9244 17.2932 204.61 16.6954 C 204.291 16.0886 203.5192 15.8395 202.9128 15.5096 C 202.1221 15.0801 201.0357 13.9901 200.2944 14.3674 Z "/>
  <path id="ID0.05099705280736089" fill="#1C1916" stroke="#1C1916" stroke-width="2.1621457886411424" stroke-linecap="round" d="M 238.1981 31.9698 C 238.5496 32.1263 238.1547 33.4031 238.0328 34.2358 C 237.9282 34.9483 237.5287 35.5995 237.146 36.2133 C 236.7623 36.8283 236.2471 37.358 235.7549 37.8921 C 235.2628 38.4261 234.7138 38.9091 234.1933 39.4176 C 233.6727 39.9261 233.3626 40.9462 232.6316 40.9431 C 231.9006 40.94 231.2524 40.106 231.0885 39.4029 C 230.762 38.0032 230.8552 36.4718 231.2661 35.0931 C 231.473 34.4005 232.2555 34.0184 232.8278 33.5676 C 233.399 33.118 233.9949 32.6587 234.6789 32.4048 C 235.6775 32.034 236.8727 31.2108 237.805 31.7195 Z "/>
  <path id="ID0.8999492498114705" fill="#796B5E" stroke="none" stroke-linecap="round" d="M 212.5667 4.1127 C 207.8048 4.8528 202.7999 8.0039 200.6796 12.2796 C 198.2603 17.161 200.2372 23.0728 200.5882 28.4434 C 200.7433 30.8 201.6649 33.1849 202.3334 35.5178 C 203.284 38.8322 204.3885 41.9956 205.3629 45.1811 C 205.9391 47.1168 205.7133 49.4712 206.9885 50.8953 C 209.0173 53.1601 211.7089 55.4488 214.7443 55.7736 C 218.2519 56.1482 221.5658 53.9801 224.8937 52.7537 C 226.5595 52.0801 228.5858 51.5877 229.6652 50.0972 C 231.9781 46.8974 233.046 42.9036 234.3817 39.2485 C 235.7841 35.4116 238.0321 31.6237 237.8938 27.5006 C 237.6575 20.4834 238.4556 11.786 233.0505 6.9693 C 228.1993 2.3149 219.6457 3.0156 212.5667 4.1127 Z " stroke-width="0.5492253938929701"/>
  <path id="ID0.8194515448994935" fill="#796B5E" stroke="none" stroke-linecap="round" d="M 237.535 23.1208 C 236.6114 23.258 235.9686 23.9003 235.4713 25.0626 C 234.974 26.2249 234.7069 27.8096 234.7887 29.5414 C 234.8705 31.2731 235.2858 32.8257 235.8905 33.9359 C 236.4951 35.0462 237.1953 35.5959 238.1281 35.6744 C 238.9842 35.7448 240.0557 35.2328 240.4139 34.4911 C 241.0758 32.849 240.8553 30.9485 240.8744 29.2539 C 240.8938 27.5883 241.1987 25.7437 240.4757 24.2723 C 239.9119 23.3806 238.5031 22.9773 237.535 23.1208 Z " stroke-width="1.0810728943205712"/>
  <path id="ID0.7592270169407129" fill="none" stroke="#675B50" stroke-width="1.0984507877859402" stroke-linecap="round" d="M 217.7189 46.7504 C 217.7189 46.7504 217.0606 47.1524 216.6905 47.236 C 216.3314 47.3174 215.948 47.1798 215.5837 47.2336 C 215.2172 47.2881 214.885 47.4939 214.52 47.557 C 214.1572 47.6201 213.7779 47.673 213.4158 47.6092 C 213.1078 47.5549 212.567 47.2123 212.567 47.2123 "/>
  <path id="ID0.7788236327469349" fill="#FFFFFF" stroke="none" stroke-linecap="round" d="M 225.2259 25.4159 L 223.7486 25.2706 L 221.2908 25.1178 L 218.9594 25.3355 L 218.7474 27.7651 L 221.549 28.2779 L 226.9497 27.3238 L 225.2259 25.4159 Z " stroke-width="1.0810728943205712"/>
  <path id="ID0.7788236327469349" fill="#FFFFFF" stroke="none" stroke-linecap="round" d="M 204.9542 26.6475 L 206.7737 25.9701 L 208.8929 25.87 L 211.2344 25.8669 L 211.6745 28.2657 L 208.9337 29.0404 L 203.8576 28.7963 L 204.9542 26.6475 Z " stroke-width="1.0810728943205712"/>
  <path id="ID0.2118154256604612" fill="#1C1916" stroke="#1C1916" stroke-width="2.1621457886411424" stroke-linecap="round" d="M 238.4112 20.7517 C 238.4677 21.3028 238.3017 23.8055 237.5348 25.2558 C 237.2518 25.7907 236.8862 23.9078 236.5148 23.2608 C 236.1551 22.6337 235.6851 22.0687 235.3393 21.4345 C 234.9696 20.7562 234.6604 20.0438 234.3686 19.3296 C 234.0854 18.6376 233.8491 17.9239 233.6151 17.2145 C 233.3838 16.5135 233.2585 15.7742 232.9704 15.0943 C 232.6835 14.4153 232.2728 13.7916 231.8986 13.1555 C 231.5233 12.5194 231.3156 11.7195 230.7206 11.2755 C 230.1087 10.8183 229.2788 10.6575 228.5116 10.6271 C 227.7762 10.5984 227.0739 10.9488 226.3559 11.1053 C 225.6023 11.2689 224.8384 11.3985 224.0915 11.5887 C 223.3683 11.7723 222.6486 11.9859 221.9434 12.2278 C 221.2564 12.4635 220.5898 12.7638 219.9115 13.0228 C 219.2011 13.294 218.4678 13.5168 217.771 13.8229 C 217.0967 14.1193 216.4965 14.5799 215.8036 14.8299 C 215.1129 15.0786 214.3718 15.4384 213.6479 15.3081 C 212.9207 15.1768 212.4179 14.4951 211.794 14.1052 C 211.1655 13.7134 210.5677 13.2556 209.8882 12.9586 C 209.2232 12.6685 208.51 12.4645 207.7905 12.3587 C 206.5709 12.1808 205.1586 11.8195 203.8605 12.168 C 202.6173 12.5042 201.2552 14.7493 200.531 14.3147 C 199.8437 13.8976 200.7645 11.6948 201.2723 10.4084 C 201.821 9.0211 202.703 7.7481 203.7081 6.6371 C 204.677 5.5665 205.813 4.5752 207.1209 3.9488 C 208.448 3.313 209.9811 3.2115 211.4298 2.9388 C 212.1423 2.804 212.88 2.8337 213.5982 2.7288 C 214.3229 2.6225 215.0268 2.3753 215.7565 2.3042 C 217.1985 2.1641 218.6615 1.9627 220.1034 2.0989 C 221.6044 2.2398 223.0382 2.8022 224.5087 3.1274 C 225.2373 3.2887 225.9852 3.3728 226.7075 3.5612 C 228.1356 3.9347 229.5629 4.3372 230.9598 4.8121 C 231.6495 5.0462 232.3935 5.2347 232.9616 5.6853 C 233.5613 6.1603 233.8471 6.9318 234.3544 7.5014 C 234.8455 8.0525 235.5333 8.4329 235.9518 9.039 C 236.3868 9.6701 236.6281 10.42 236.8683 11.1464 C 237.0958 11.8368 237.2517 12.5542 237.35 13.2743 C 237.4466 13.9827 237.3277 14.7153 237.4514 15.4203 C 237.5782 16.1466 237.8841 16.8333 238.0961 17.5405 C 238.2706 18.1226 238.6588 18.685 238.6144 19.2903 Z "/>
  <path id="ID0.5261953212320805" fill="none" stroke="#1C1916" stroke-width="2.1621459413767057" stroke-linecap="round" d="M 227.4867 23.0873 C 227.4867 23.0873 226.7233 21.7079 226.1007 21.2602 C 225.505 20.8317 224.7284 20.6831 224.0004 20.5785 C 223.2725 20.4738 222.5286 20.6708 221.7932 20.641 C 220.4154 20.584 217.6628 20.3185 217.6628 20.3185 "/>
  <path id="ID0.5261953212320805" fill="none" stroke="#1C1916" stroke-width="2.162145830227939" stroke-linecap="round" d="M 201.8838 23.9936 C 201.8838 23.9936 202.4858 22.5365 203.0536 22.0211 C 203.5967 21.5277 204.3515 21.2919 205.0629 21.1053 C 205.7743 20.9187 206.5356 21.03 207.2629 20.9169 C 208.6254 20.7039 211.33 20.1277 211.33 20.1277 "/>
  <path id="ID0.8619630038738251" fill="none" stroke="#675B50" stroke-width="1.2706583258772661" stroke-linecap="round" d="M 214.4905 27.0019 C 214.4905 27.0019 214.2699 30.1235 214.1651 31.6306 C 214.1039 32.4772 214.3197 33.4137 213.933 34.1695 C 213.4589 35.0292 212.2459 35.0669 211.9957 35.8409 C 211.6475 36.6543 211.5944 38.1318 212.3688 38.3195 C 213.5459 38.6046 214.5488 37.0974 215.8233 36.924 C 216.5077 36.8317 217.7476 37.6863 217.7476 37.6863 "/>
  <path id="ID0.6736386958509684" fill="none" stroke="#675B50" stroke-width="1.3553751897810937" stroke-linecap="round" d="M 228.4226 34.049 C 228.4226 34.049 227.8742 34.8839 227.5585 35.2695 C 227.2706 35.6215 226.9088 35.9103 226.6152 36.2578 C 226.3152 36.6131 225.9792 36.9573 225.7804 37.3758 C 225.5786 37.8 225.4288 38.2722 225.4352 38.7404 C 225.453 39.9981 225.8516 42.4957 225.8516 42.4957 "/>
  <path id="ID0.18298013787716627" fill="#1C1916" stroke="#1C1916" stroke-width="2.1621457886411424" stroke-linecap="round" d="M 227.4369 10.1855 C 227.9092 10.3825 228.4723 11.3517 228.3534 12.2929 C 228.1644 13.7804 226.8655 15.4032 227.1977 16.6489 C 227.3617 17.2616 228.6799 16.3455 229.3458 16.0097 C 229.9947 15.6823 230.5174 15.1489 231.0807 14.6911 C 231.688 14.1979 232.5125 13.8525 232.8597 13.1554 C 233.181 12.5111 233.2244 11.6531 232.9213 11.0017 C 232.617 10.3462 231.8842 9.9367 231.2228 9.6303 C 230.5469 9.317 229.7699 9.2386 229.024 9.1964 C 228.7084 9.1791 228.1766 9.1494 228.1104 9.4547 Z "/>
  <path id="ID0.7592270169407129" fill="none" stroke="#675B50" stroke-width="1.0984448304949954" stroke-linecap="round" d="M 213.7084 19.735 C 213.7084 19.735 213.5003 20.4709 213.5219 20.8451 C 213.5426 21.2082 213.7831 21.5334 213.8321 21.8937 C 213.881 22.2564 213.7732 22.6286 213.8133 22.9922 C 213.8528 23.3537 213.9069 23.728 214.0697 24.0536 C 214.2082 24.3305 214.6921 24.7478 214.6921 24.7478 "/>
  <path id="ID0.48112139804288745" fill="#3A3A3A" stroke="#3A3A3A" stroke-width="2.0362677273147565" stroke-linecap="round" d="M 237.4295 13.7862 C 238.0967 14.1213 237.507 15.6237 237.8118 16.4519 C 238.0566 17.1169 238.7537 17.5852 238.9236 18.273 C 239.0861 18.9327 238.8649 19.6349 238.7632 20.306 C 238.4773 22.2002 238.6397 24.6839 237.7584 26.1768 C 237.4011 26.6919 236.7096 24.93 236.286 24.3221 C 235.4211 23.1031 234.4983 21.8302 233.9018 20.5357 C 233.6172 19.9182 233.6427 19.2 233.5504 18.5268 C 233.4594 17.8586 233.0959 17.1355 233.3526 16.5107 C 233.6129 15.8765 234.3579 15.5557 234.9305 15.1702 C 235.6771 14.668 236.656 13.4804 237.4295 13.7862 Z "/>
  <path id="ID0.7766774026677012" fill="#0D0D0D" stroke="#0D0D0D" stroke-width="1.8086520039145781" stroke-linecap="round" d="M 1 194.2018 C 1.718 167.513 0.989 139.7886 12 114.2773 C 16.164 104.6321 31.459 100.1874 43.5 96.7377 C 48.996 95.1655 54.566 99.1119 60 100.5247 C 61.543 100.9225 62.688 101.7572 64 102.3185 C 65.857 102.9539 67.811 103.4362 69.5 104.1123 C 70.098 104.3531 70.7 104.5907 71.25 104.9096 C 71.9 105.1886 72.4 105.5872 73 105.9061 C 74.25 106.5041 75.5 107.1419 76.75 107.6999 C 78 108.1783 79.3 108.5769 80.5 109.0951 C 81.1 109.3343 81.75 109.5336 82.25 109.8924 C 82.85 110.2512 83.25 110.8092 83.75 111.2876 C 84.25 111.6862 84.75 112.0848 85.25 112.4835 C 85.75 112.8422 86.4 113.201 86.75 113.6793 C 87.15 114.1178 87.25 114.7158 87.5 115.2738 C 87.75 115.7921 88.05 116.3103 88.25 116.8683 C 88.7 117.9048 89.1 118.9811 89.5 120.0574 C 89.75 120.5756 90 121.0938 90.25 121.6519 C 90.5 122.1701 90.75 122.6883 91 123.2464 C 91.25 123.7646 91.5 124.2828 91.75 124.8409 C 92 125.3591 92.35 125.8773 92.5 126.4354 C 92.7 126.9536 92.7 127.4718 92.75 128.0299 C 92.85 128.5481 92.95 129.0663 93 129.6244 C 93.1 130.1426 93.15 130.6608 93.25 131.2189 C 93.4 131.7371 93.65 132.2553 93.75 132.8134 C 94.2 134.368 94.6 136.0024 95 137.5969 C 95.15 138.1151 95.4 138.6333 95.5 139.1914 C 95.65 139.7096 95.7 140.2278 95.75 140.7859 C 95.85 141.3041 96 141.8223 96 142.3804 C 96.05 142.8986 96 143.4168 96 143.9749 C 96 145.0114 96.1 146.0876 96 147.1639 C 96 147.6821 95.8 147.9213 95.75 148.7584 C 95.7 151.9873 95.75 155.256 95.75 158.5248 C 95.75 161.6739 95.75 164.9028 95.75 168.0918 C 95.75 169.6464 95.7 171.2808 95.75 172.8753 C 95.8 173.3935 95.9 173.9117 96 174.4698 C 96.25 175.6657 96.6 176.8217 96.75 178.0575 C 96.85 178.5757 96.75 179.0939 96.75 179.652 C 96.8 180.1702 96.95 180.6884 97 181.2465 C 97.2 182.2829 97.45 183.3592 97.5 184.4355 C 97.6 185.4719 97.5 186.5482 97.5 187.6245 C 97.5 190.7736 97.5 194.0025 97.5 197.1915 C 97.5 197.9489 97.45 198.2279 97.5 198.786 C 97.6 199.3042 97.9 199.8224 98 200.3805 C 98.35 201.9352 98.5 203.5695 98.75 205.164 C 98.85 205.6822 98.9 206.2005 99 206.7585 C 99.3 207.8747 99.75 208.9908 100 210.1469 C 100.15 210.7049 100.2 211.3427 100.25 211.9407 C 100.35 212.4987 100.5 213.0967 100.5 213.7345 C 100.55 214.2527 100.5 214.7709 100.5 215.329 C 100.5 215.8472 100.6 216.3654 100.5 216.9235 C 100.35 217.9599 100 219.0362 99.75 220.1125 C 99.65 220.6307 99.55 221.1489 99.5 221.707 C 99.5 222.2252 99.5 222.7434 99.5 223.3015 C 99.5 223.8197 99.5 224.3379 99.5 224.896 C 99.6 225.9324 99.6 227.0087 99.75 228.085 C 99.95 229.0816 100.5 231.0747 100.5 231.0747 C 100.75 231.4733 101.372 233.7423 101.75 234.8617 C 101.955 235.47 102.277 236.0512 102.5 236.6555 C 102.694 237.1809 102.833 237.719 103 238.25 C 103.167 238.781 103.373 239.3064 103.5 239.8445 C 103.624 240.3707 103.626 240.9128 103.75 241.439 C 103.877 241.9771 104.045 242.5113 104.25 243.0335 C 104.462 243.5748 104.827 244.0779 105 244.628 C 105.163 245.147 105.167 245.6915 105.25 246.2225 C 105.333 246.7535 105.417 247.286 105.5 247.817 C 105.583 248.348 105.667 248.8806 105.75 249.4115 C 105.833 249.9425 105.972 250.4711 106 251.006 C 106.055 252.0672 105.945 253.1339 106 254.195 C 106.028 254.73 106.167 255.2586 106.25 255.7895 C 106.333 256.3205 106.472 256.8491 106.5 257.384 C 106.555 258.4452 106.528 259.5111 106.5 260.5731 C 106.444 262.6977 106.317 264.8272 106.25 266.9511 C 106.233 267.482 106.25 268.0146 106.25 268.5456 C 106.25 269.0765 106.208 269.6099 106.25 270.1401 C 106.292 270.6742 106.376 271.2084 106.5 271.7346 C 106.627 272.2727 106.915 272.7862 107 273.3291 C 107.083 273.8561 106.958 274.3934 107 274.9236 C 107.042 275.4578 107.208 275.9839 107.25 276.5181 C 107.292 277.0483 107.208 277.5824 107.25 278.1126 C 107.292 278.6468 107.376 279.1809 107.5 279.7071 C 107.627 280.2453 107.873 280.7635 108 281.3016 C 108.124 281.8278 108.126 282.3699 108.25 282.8961 C 108.377 283.4343 108.637 283.9509 108.75 284.4906 C 108.971 285.5462 109.083 286.6177 109.25 287.6796 C 109.333 288.2106 109.417 288.7432 109.5 289.2741 C 109.583 289.8051 109.708 290.3345 109.75 290.8686 C 109.792 291.3988 109.792 291.933 109.75 292.4631 C 109.708 292.9973 109.528 293.5227 109.5 294.0576 C 109.445 295.1188 109.335 296.1927 109.5 297.2467 C 109.67 298.3325 110.116 299.3849 110.5 300.4357 C 110.699 300.9802 111.038 301.4888 111.25 302.0302 C 111.455 302.5524 111.545 303.1025 111.75 303.6247 C 111.962 304.166 112.369 304.6619 112.5 305.2192 C 112.623 305.7414 112.892 306.384 112.5 306.8137 C 112.082 307.2721 111.206 307.3415 110.5 307.4116 C 109.834 307.4778 109.171 307.2123 108.5 307.2123 C 107.829 307.2123 107.171 307.4116 106.5 307.4116 C 105.829 307.4116 105.17 307.2458 104.5 307.2123 C 103.835 307.1788 103.161 307.1461 102.5 307.2123 C 101.819 307.2801 101.122 307.3797 100.5 307.6109 C 99.851 307.8525 99.429 308.4273 98.75 308.6075 C 98.118 308.7757 97.416 308.6075 96.75 308.6075 C 96.084 308.6075 95.411 308.6737 94.75 308.6075 C 94.069 308.5397 93.431 308.2766 92.75 308.2089 C 92.089 308.1427 91.415 308.1754 90.75 308.2089 C 90.08 308.2424 89.42 308.3747 88.75 308.4082 C 88.085 308.4417 87.411 308.342 86.75 308.4082 C 86.069 308.476 85.431 308.739 84.75 308.8068 C 84.089 308.873 83.415 308.7733 82.75 308.8068 C 82.08 308.8403 81.416 308.94 80.75 309.0061 C 80.084 309.0723 79.421 309.2222 78.75 309.2054 C 76.746 309.1552 74.751 308.9065 72.75 308.8068 C 72.085 308.7733 71.415 308.7733 70.75 308.8068 C 70.08 308.8403 69.421 308.9838 68.75 309.0061 C 67.419 309.05 66.081 308.9623 64.75 309.0061 C 64.079 309.0284 63.42 309.172 62.75 309.2054 C 62.085 309.2389 61.415 309.2389 60.75 309.2054 C 60.08 309.172 59.42 309.0396 58.75 309.0061 C 58.085 308.9726 57.415 309.0396 56.75 309.0061 C 56.08 308.9726 55.419 308.8515 54.75 308.8068 C 53.42 308.7183 52.085 308.6075 50.75 308.6075 C 50.079 308.6075 49.41 308.708 48.75 308.8068 C 48.075 308.9081 47.431 309.1377 46.75 309.2054 C 46.089 309.2716 45.416 309.2054 44.75 309.2054 C 42.752 309.2054 40.747 309.156 38.75 309.2054 C 38.079 309.2222 37.42 309.3713 36.75 309.4047 C 36.085 309.4382 35.415 309.4382 34.75 309.4047 C 34.08 309.3713 33.416 309.2716 32.75 309.2054 C 32.084 309.1393 31.42 309.0396 30.75 309.0061 C 30.085 308.9726 29.405 309.1042 28.75 309.0061 C 28.051 308.9017 28.346 308.7438 26.75 308.4082 C 20.367 307.0656 8.928 309.6264 7.35 304.4618 C 1.723 286.0349 9.575 266.2638 8.5 247.2191 C 7.508 229.6843 0.545 212.0435 1 194.2018 Z "/>
  <g id="ID0.15551237482577562">
    <path id="ID0.036129117012023926" fill="#5E3B21" stroke="none" d="M 220.7043 25.2871 C 220.262 25.308 219.8693 25.5039 219.5927 25.8041 C 219.3161 26.1043 219.1555 26.5087 219.1761 26.9454 C 219.1967 27.3821 219.3947 27.7695 219.6984 28.0423 C 220.0021 28.3151 220.4115 28.4732 220.8538 28.4523 C 221.2961 28.4314 221.6887 28.2354 221.9654 27.9352 C 222.242 27.635 222.4026 27.2306 222.382 26.7939 C 222.3613 26.3573 222.1633 25.9698 221.8596 25.697 C 221.5559 25.4243 221.1466 25.2662 220.7043 25.2871 Z " stroke-width="1.0810728675679087"/>
    <path id="ID0.9171876185573637" fill="#191009" stroke="none" d="M 220.2824 26.148 C 220.0575 26.1586 219.8585 26.2583 219.7176 26.4112 C 219.5767 26.5642 219.4949 26.7691 219.5054 26.9912 C 219.5159 27.2133 219.6167 27.4096 219.7713 27.5486 C 219.926 27.6875 220.1335 27.768 220.3585 27.7574 C 220.5834 27.7468 220.7824 27.6471 220.9233 27.4942 C 221.0642 27.3413 221.146 27.1363 221.1355 26.9142 C 221.125 26.6921 221.0242 26.4958 220.8696 26.3568 C 220.7149 26.2179 220.5074 26.1374 220.2824 26.148 Z " stroke-width="1.0810728675679087"/>
  </g>
  <g id="ID0.6915994533337653">
    <path id="ID0.036129117012023926" fill="#5E3B21" stroke="none" d="M 206.4084 26.2043 C 205.9661 26.2252 205.5735 26.4212 205.2969 26.7214 C 205.0202 27.0215 204.8596 27.4259 204.8803 27.8626 C 204.9009 28.2993 205.0989 28.6868 205.4026 28.9595 C 205.7063 29.2323 206.1157 29.3904 206.558 29.3695 C 207.0003 29.3486 207.3929 29.1526 207.6695 28.8525 C 207.9461 28.5523 208.1068 28.1479 208.0861 27.7112 C 208.0655 27.2745 207.8675 26.887 207.5638 26.6143 C 207.2601 26.3415 206.8507 26.1834 206.4084 26.2043 Z " stroke-width="1.0810728675679087"/>
    <path id="ID0.9171876185573637" fill="#191009" stroke="none" d="M 206.0364 27.015 C 205.8114 27.0256 205.6124 27.1253 205.4715 27.2782 C 205.3306 27.4311 205.2488 27.6361 205.2593 27.8582 C 205.2698 28.0803 205.3706 28.2766 205.5253 28.4156 C 205.68 28.5545 205.8874 28.635 206.1124 28.6244 C 206.3373 28.6138 206.5363 28.5141 206.6772 28.3612 C 206.8181 28.2083 206.8999 28.0033 206.8894 27.7812 C 206.8789 27.5591 206.7782 27.3628 206.6235 27.2238 C 206.4688 27.0849 206.2613 27.0044 206.0364 27.015 Z " stroke-width="1.0810728675679087"/>
  </g>
  <path id="ID0.8256730306893587" fill="none" stroke="#675B50" stroke-width="1.0984503671110295" stroke-linecap="round" d="M 210.1408 44.4114 C 210.1408 44.4114 211.4136 43.6645 212.1293 43.6691 C 212.7964 43.6219 213.3458 44.3293 214.0372 44.2913 C 214.8579 44.2459 215.5154 43.4773 216.3294 43.3844 C 217.6824 43.7004 219.2321 44.0039 219.2321 44.0039 "/>
</svg>