<svg xmlns="http://www.w3.org/2000/svg" xmlns:xlink="http://www.w3.org/1999/xlink" version="1.1" width="160.94198329415403" height="327.6242647882947" viewBox="0.39509590880829804 -0.08347961885970123 160.94198329415403 327.6242647882947">
  <defs>
    <linearGradient id="grad_1" y2="1" x2="0">
      <stop offset="0" stop-color="#222325" stop-opacity="1"/>
      <stop offset="1" stop-color="#2E3034" stop-opacity="1"/>
    </linearGradient>
  </defs>
  <!-- Exported by Scratch - http://scratch.mit.edu/ -->
  <path id="ID0.7766774026677012" fill="#0D0D0D" stroke="#0D0D0D" stroke-width="1.9635592218884088" stroke-linecap="round" d="M 119.3972 185.2299 C 120.2141 152.9877 122.5359 119.5645 113.0038 88.2537 C 109.3989 76.4158 94.3768 70.3242 82.5477 65.5882 C 77.1483 63.4295 71.3577 67.927 65.8487 69.3733 C 64.2846 69.78 63.0929 70.7329 61.7501 71.3478 C 59.8587 72.0262 57.8792 72.5154 56.1532 73.2509 C 55.5421 73.513 54.9271 73.7711 54.3594 74.1297 C 53.6941 74.4356 53.1717 74.8928 52.5541 75.2491 C 51.2711 75.9113 49.9859 76.6215 48.7052 77.2355 C 47.4291 77.7533 46.1077 78.1725 44.8793 78.7408 C 44.2662 79.0009 43.6055 79.2105 43.0854 79.6197 C 42.4655 80.0241 42.0338 80.6785 41.5069 81.232 C 40.9846 81.6893 40.4622 82.1466 39.9399 82.6038 C 39.4198 83.013 38.7499 83.415 38.3728 83.9757 C 37.9481 84.4858 37.8138 85.2026 37.532 85.8642 C 37.2525 86.4777 36.9231 87.0888 36.6912 87.7528 C 36.1822 88.9821 35.7207 90.262 35.2593 91.5418 C 34.9798 92.1553 34.7003 92.7688 34.4185 93.4304 C 34.139 94.0439 33.8595 94.6573 33.5777 95.3189 C 33.2982 95.9324 33.0187 96.5459 32.7369 97.2075 C 32.4574 97.821 32.078 98.4297 31.8961 99.0961 C 31.6665 99.7119 31.6368 100.3373 31.5547 101.0084 C 31.4251 101.629 31.2954 102.2497 31.2134 102.9208 C 31.0837 103.5414 31.004 104.1644 30.872 104.8331 C 30.6924 105.4514 30.4129 106.0649 30.2809 106.7336 C 29.742 108.5883 29.2486 110.5416 28.7574 112.4469 C 28.5777 113.0651 28.2982 113.6786 28.1663 114.3473 C 27.9866 114.9656 27.9069 115.5886 27.8249 116.2597 C 27.6952 116.8803 27.5156 117.4985 27.4835 118.172 C 27.4038 118.795 27.4239 119.4228 27.3919 120.0963 C 27.3323 121.347 27.1705 122.6411 27.2086 123.9448 C 27.1788 124.5701 27.3648 124.8683 27.3666 125.8809 C 27.231 129.7799 26.9931 133.7222 26.8052 137.6669 C 26.6242 141.4673 26.4386 145.3639 26.2553 149.2124 C 26.1659 151.0885 26.1219 153.0633 25.9803 154.9851 C 25.9006 155.6081 25.7709 156.2288 25.639 156.8975 C 25.3205 158.3288 24.9045 159.7072 24.6836 161.1914 C 24.5539 161.812 24.624 162.4421 24.5919 163.1156 C 24.5122 163.7386 24.3326 164.3569 24.2506 165.028 C 23.9912 166.2692 23.6796 167.5562 23.5678 168.8527 C 23.4084 170.0987 23.4464 171.4023 23.3845 172.7012 C 23.2035 176.5016 23.0179 180.3982 22.8346 184.2467 C 22.7911 185.1607 22.825 185.4998 22.7429 186.1709 C 22.6133 186.7915 22.2838 187.4026 22.1519 188.0714 C 21.7129 189.9309 21.4691 191.8961 21.1277 193.8084 C 20.9981 194.4291 20.9183 195.0521 20.7864 195.7208 C 20.4225 197.0535 19.9089 198.379 19.5927 199.7622 C 19.4108 200.4286 19.3242 201.1959 19.2399 201.9151 C 19.1079 202.5838 18.9237 203.2983 18.8871 204.068 C 18.8073 204.691 18.8275 205.3188 18.7954 205.9922 C 18.7656 206.6176 18.636 207.2383 18.7038 207.9165 C 18.794 209.1744 19.0818 210.4899 19.2696 211.8007 C 19.3397 212.4308 19.4098 213.061 19.4277 213.7368 C 19.3979 214.3622 19.3681 214.9876 19.336 215.6611 C 19.3062 216.2864 19.2764 216.9118 19.2444 217.5853 C 19.0849 218.8313 19.023 220.1302 18.8113 221.4219 C 18.5543 222.6151 17.8903 224.9942 17.8903 224.9942 C 17.6177 225.4634 16.866 228.172 16.4241 229.5048 C 16.1843 230.2292 15.8293 230.9152 15.5718 231.6339 C 15.3478 232.2587 15.1781 232.9015 14.9807 233.5344 C 14.7834 234.1672 14.5474 234.7914 14.3896 235.4348 C 14.2355 236.0639 14.2024 236.7181 14.0483 237.3472 C 13.8905 237.9906 13.692 238.6272 13.4572 239.2476 C 13.2143 239.8908 12.8208 240.4806 12.6164 241.1362 C 12.4237 241.7548 12.3884 242.4117 12.275 243.0486 C 12.1616 243.6854 12.047 244.3241 11.9336 244.9609 C 11.8202 245.5977 11.7057 246.2364 11.5923 246.8733 C 11.4788 247.5101 11.3096 248.1414 11.2509 248.7856 C 11.1349 250.0636 11.1835 251.3561 11.0676 252.6341 C 11.0089 253.2784 10.8396 253.9096 10.7262 254.5465 C 10.6128 255.1833 10.4435 255.8146 10.3848 256.4588 C 10.2689 257.7368 10.2346 259.0244 10.2015 260.3073 C 10.1353 262.874 10.1398 265.4499 10.0846 268.0162 C 10.0711 268.6578 10.0235 269.2997 9.993 269.9404 C 9.9624 270.5812 9.9737 271.2269 9.9013 271.8647 C 9.8287 272.5073 9.714 273.1479 9.5599 273.777 C 9.4021 274.4204 9.085 275.0263 8.9688 275.6775 C 8.8556 276.3095 8.9496 276.9639 8.8772 277.6017 C 8.8045 278.2444 8.6085 278.8715 8.5358 279.5141 C 8.4634 280.1519 8.5166 280.8005 8.4442 281.4384 C 8.3715 282.081 8.2569 282.7216 8.1028 283.3507 C 7.945 283.9941 7.6695 284.6078 7.5117 285.2512 C 7.3576 285.8803 7.3244 286.5344 7.1703 287.1635 C 7.0125 287.8069 6.7231 288.418 6.5792 289.064 C 6.2978 290.3273 6.1244 291.6151 5.8965 292.8887 C 5.7831 293.5255 5.6686 294.1642 5.5551 294.801 C 5.4417 295.4379 5.2864 296.0708 5.2138 296.7134 C 5.1413 297.3512 5.1106 297.9958 5.1221 298.6376 C 5.1334 299.2843 5.283 299.9269 5.2802 300.5738 C 5.2741 301.857 5.3223 303.1582 5.0969 304.4223 C 4.8646 305.7246 4.3586 306.9734 3.9147 308.2232 C 3.6846 308.8709 3.3168 309.4686 3.0739 310.1118 C 2.8391 310.7322 2.7176 311.3918 2.4828 312.0122 C 2.2399 312.6554 1.8049 313.2345 1.642 313.9008 C 1.4891 314.5251 1.1835 315.2878 1.5503 315.825 C 1.9415 316.3981 2.8125 316.5235 3.5137 316.6418 C 4.1751 316.7533 4.8526 316.4645 5.5229 316.4964 C 6.1931 316.5283 6.8389 316.8002 7.5092 316.8321 C 8.1794 316.864 8.8472 316.6952 9.5184 316.6867 C 10.1845 316.6779 10.8596 316.6706 11.5161 316.7819 C 12.1924 316.896 12.8829 317.0495 13.4909 317.3581 C 14.1253 317.6805 14.5138 318.3942 15.1816 318.644 C 15.8033 318.8771 16.5141 318.7075 17.1794 318.7391 C 17.8446 318.7708 18.5131 318.8827 19.1771 318.8343 C 19.8612 318.7849 20.5136 318.4978 21.1978 318.4484 C 21.8618 318.4 22.5332 318.4715 23.1955 318.5436 C 23.8628 318.6158 24.5145 318.807 25.1818 318.8792 C 25.8441 318.9513 26.5231 318.8631 27.1795 318.9744 C 27.8558 319.0886 28.478 319.4364 29.1543 319.5506 C 29.8108 319.6619 30.4897 319.5737 31.1521 319.6458 C 31.8194 319.7181 32.4769 319.8699 33.1383 319.9815 C 33.7998 320.093 34.4534 320.3054 35.1246 320.3171 C 37.1292 320.3519 39.1363 320.1466 41.1407 320.1215 C 41.8069 320.1128 42.4762 320.1446 43.1385 320.2167 C 43.8058 320.289 44.4558 320.4935 45.1248 320.5524 C 46.4517 320.6686 47.7933 320.6264 49.1202 320.7427 C 49.7892 320.8016 50.4392 321.0061 51.1065 321.0784 C 51.7688 321.1504 52.4381 321.1823 53.1042 321.1735 C 53.7754 321.165 54.4423 321.0367 55.1134 321.0282 C 55.7796 321.0194 56.445 321.1321 57.1112 321.1233 C 57.7823 321.1148 58.4496 321 59.1204 320.9779 C 60.4539 320.9344 61.7938 320.8642 63.1273 320.9277 C 63.7975 320.9596 64.46 321.1127 65.1136 321.2634 C 65.782 321.4177 66.4121 321.7254 67.0884 321.8396 C 67.7448 321.9509 68.4209 321.9031 69.0861 321.9348 C 71.0819 322.0298 73.0874 322.0656 75.0793 322.2202 C 75.7486 322.2724 76.3983 322.4836 77.0656 322.5559 C 77.7279 322.628 78.3972 322.6598 79.0633 322.6511 C 79.7345 322.6425 80.4035 322.5539 81.0725 322.5057 C 81.7416 322.4575 82.4106 322.3689 83.0817 322.3603 C 83.7479 322.3516 84.4196 322.5427 85.0795 322.4555 C 85.7837 322.3627 85.4981 322.1582 87.1116 321.829 C 93.5645 320.5125 104.8434 324.1471 106.7164 317.9895 C 113.3963 296.0197 106.6896 271.7864 108.8581 248.8543 C 110.8569 227.7406 118.8261 206.7829 119.3972 185.2299 Z "/>
  <g id="ID0.17693647183477879">
    <path id="ID0.7729651997797191" fill="#393C40" stroke="none" stroke-linecap="round" d="M 133.979 86.7742 L 117.1549 96.2538 L 127.3734 109.2546 L 135.5292 119.7943 L 141.2401 123.0794 L 145.6642 124.6087 L 155.073 116.3533 L 153.8296 110.6794 L 140.7581 95.8184 L 133.979 86.7742 Z " stroke-width="0.7788099197099213"/>
    <path id="ID0.9716172609478235" fill="#34373A" stroke="none" stroke-linecap="round" d="M 132.8419 93.519 L 136.0567 89.4444 L 131.7213 84.6245 L 120.3301 100.4687 L 124.1817 101.8001 L 129.6927 101.1122 L 132.8419 93.519 Z " stroke-width="0.7788099197099213"/>
    <g id="ID0.38066427363082767">
      <path id="ID0.4757494777441025" fill="#1D1E1F" stroke="none" stroke-linecap="round" d="M 115.4998 69.3092 L 107.2538 71.0461 L 95.6061 81.8862 L 113.2777 100.3128 L 124.2471 100.2819 L 128.5743 99.3141 L 130.3384 95.9312 L 131.5478 92.1867 L 135.357 87.5568 L 133.1751 82.8099 L 129.186 76.164 L 122.9532 70.3566 L 115.4998 69.3092 Z " stroke-width="0.45418603770461874"/>
      <path id="ID0.6007084371522069" fill="none" stroke="#0D0D0D" stroke-width="0.9083720754092375" stroke-linecap="round" d="M 135.0975 88.0618 L 131.6499 92.137 L 129.513 97.0901 L 128.6239 99.4162 L 124.2471 100.2819 L 119.5254 100.1788 "/>
    </g>
  </g>
  <g id="ID0.7397577832452953">
    <path id="ID0.6726378230378032" fill="#34373A" stroke="none" stroke-linecap="round" d="M 158.9606 115.0337 L 142.2236 109.2374 L 141.113 111.2693 L 157.7074 116.6711 L 158.9606 115.0337 Z " stroke-width="0.7788098812823417"/>
    <path id="ID0.6507829907350242" fill="#1D1E1F" stroke="none" stroke-linecap="round" d="M 160.3553 118.1076 L 141.043 111.0589 L 127.7792 123.3917 L 121.5129 131.5789 L 110.0257 141.8081 L 104.9843 145.5153 L 111.1697 155.3892 L 115.9522 151.3911 L 124.0971 146.4846 L 134.7797 140.6218 L 142.7791 135.8447 L 160.3553 118.1076 Z " stroke-width="0.7788098812823417"/>
    <path id="ID0.6829322893172503" fill="#1D1E1F" stroke="none" stroke-linecap="round" d="M 111.7195 155.421 L 108.751 144.7682 L 102.7533 145.9377 L 95.9468 146.7846 L 91.8754 150.4101 L 88.9195 153.8245 L 88.0333 157.2208 L 84.1412 162.5116 L 87.2648 165.7265 L 89.4957 165.3041 L 90.677 166.3378 L 94.639 166.9811 L 99.0213 167.5107 L 103.5151 166.1162 L 108.0864 161.0026 L 111.7195 155.421 Z " stroke-width="0.7788098812823417"/>
    <path id="ID0.47767175547778606" fill="none" stroke="#0D0D0D" stroke-width="1.5576197625646835" stroke-linecap="round" d="M 157.5344 120.6196 L 160.2613 117.8263 L 141.0948 111.1171 L 131.3271 120.2323 "/>
    <path id="ID0.5922487881034613" fill="#282A2B" stroke="none" stroke-linecap="round" d="M 136.6796 140.4491 L 136.2127 131.8443 L 132.27 127.5339 L 124.0879 126.8944 L 114.3214 137.4164 L 111.9195 145.5516 L 114.1207 148.0235 L 123.2398 147.7243 L 136.6796 140.4491 Z " stroke-width="0.7788098812823417"/>
    <path id="ID0.36820242274552584" fill="#151616" stroke="none" stroke-linecap="round" d="M 130.8566 137.6456 L 125.5282 131.5449 L 119.0365 140.7671 L 120.0528 141.7913 L 130.8566 137.6456 Z " stroke-width="0.7788098812823417"/>
    <path id="ID0.13569410238415003" fill="none" stroke="#232425" stroke-width="1.5576197625646835" stroke-linecap="round" d="M 123.4006 145.1755 L 114.6568 145.6619 L 116.5767 137.2781 "/>
    <path id="ID0.024502143263816833" fill="none" stroke="#0D0D0D" stroke-width="1.5576197625646835" stroke-linecap="round" d="M 136.6417 139.9022 L 136.4083 132.028 L 132.7501 127.5686 L 124.5161 126.871 L 118.9788 132.9491 "/>
  </g>
  <path id="ID0.3809091211296618" fill="#393D40" stroke="none" stroke-linecap="round" d="M 96.7973 172.3775 L 121.6681 158.3802 L 127.4983 196.7332 L 127.3169 207.6776 L 123.2934 225.849 L 114.8693 229.0718 L 102.0364 231.2553 L 100.6658 210.4809 L 101.6852 199.0691 L 96.7973 172.3775 Z " stroke-width="0.7305890041289396"/>
  <path id="ID0.5368814701214433" fill="#292D2E" stroke="none" stroke-linecap="round" d="M 91.2314 313.5861 L 93.9265 304.6968 L 98.218 295.3566 L 108.3163 301.0013 L 119.742 308.3954 L 137.4198 318.3644 L 138.6365 324.8556 L 113.9697 326.559 L 92.6516 323.3448 L 91.2314 313.5861 Z " stroke-width="0.7702165660495809"/>
  <path id="ID0.3809091211296618" fill="#3E4246" stroke="none" stroke-linecap="round" d="M 71.3576 160.1888 L 92.2842 176.8914 L 89.4598 215.5821 L 86.8547 226.2135 L 78.8998 243.0393 L 69.9706 244.3127 L 56.9731 243.5947 L 59.6683 221.9901 L 59.9978 208.5782 L 71.3576 160.1888 Z " stroke-width="0.7305889708966679"/>
  <path id="ID0.5368814701214433" fill="#303436" stroke="none" stroke-linecap="round" d="M 24.2237 312.3807 L 26.7246 303.4349 L 30.8117 294.0035 L 41.0306 299.427 L 52.6145 306.5706 L 70.5052 316.1524 L 71.8628 322.6155 L 47.239 324.8555 L 25.856 322.1062 L 24.2237 312.3807 Z " stroke-width="0.7702165197019715"/>
  <g id="ID0.9157347986474633">
    <path id="ID0.7477802094072104" fill="#363A3D" stroke="none" stroke-linecap="round" d="M 124.3567 123.633 L 104.7304 121.0993 L 105.9103 162.2687 L 122.8242 170.7153 L 124.4063 146.1386 L 124.3567 123.633 Z " stroke-width="0.47614260551683585"/>
    <path id="ID0.7477802094072104" fill="#363A3D" stroke="none" stroke-linecap="round" d="M 64.1765 125.3792 L 87.535 121.8517 L 88.7149 163.0212 L 72.3126 172.4226 L 66.1196 147.4732 L 64.1765 125.3792 Z " stroke-width="0.47614260551683585"/>
    <path id="ID0.4270821204409003" fill="#3E4246" stroke="none" stroke-linecap="round" d="M 63.8824 105.3589 L 67.332 92.7561 L 69.4256 86.861 L 75.7687 79.6532 L 106.8652 80.191 L 113.8892 84.2767 L 116.8608 88.2404 L 124.2084 99.4619 L 123.7946 109.9532 L 122.9995 115.4539 L 124.8631 122.3074 L 125.496 127.7672 L 123.552 134.7298 L 122.0838 140.0116 L 121.1599 149.3266 L 123.2866 171.1772 L 118.3817 179.5347 L 113.7765 185.8829 L 101.8191 191.6558 L 90.1432 188.9657 L 86.0243 182.3674 L 80.8903 176.084 L 72.2584 173.2352 L 70.3897 147.9237 L 69.0089 141.2945 L 64.1124 130.0028 L 62.4932 119.2125 L 63.8824 105.3589 Z " stroke-width="0.47614260551683585"/>
    <path id="ID0.052435632329434156" fill="#393C40" stroke="none" stroke-linecap="round" d="M 77.4696 154.8288 L 81.921 154.7489 L 88.607 157.844 L 93.6711 157.5321 L 99.6002 159.1485 L 103.7578 157.9576 L 105.41 157.4339 L 119.5195 153.6237 L 119.9706 156.8975 L 111.5229 161.3075 L 105.5647 161.1687 L 100.0596 164.375 L 93.2954 161.044 L 86.8824 161.6565 L 76.8974 158.132 L 77.4696 154.8288 Z " stroke-width="0.47614260551683585"/>
    <path id="ID0.4987568911164999" fill="none" stroke="#27282B" stroke-width="0.9522852110336717" stroke-linecap="round" d="M 75.6264 80.2693 L 69.3785 86.6408 L 66.3333 96.7311 "/>
    <path id="ID0.2889464790932834" fill="none" stroke="#27282B" stroke-width="0.9522852110336717" stroke-linecap="round" d="M 108.2697 80.7628 L 114.0902 84.4066 L 120.0676 93.5239 "/>
    <path id="ID0.8373676878400147" fill="#000000" stroke="#2C2F31" stroke-width="0.6155104192103448" stroke-linecap="round" d="M 79.5261 93.1917 L 79.8262 91.6514 L 76.2151 92.6694 L 71.462 96.1551 L 67.4866 101.3297 L 65.2065 107.0344 L 70.2727 104.6244 L 74.9647 104.3704 L 77.7387 105.2031 L 80.369 108.1139 L 82.441 107.0265 L 86.4399 106.6221 L 90.9837 107.523 L 94.9227 110.5812 L 97.0918 113.5712 L 99.1539 110.4834 L 102.7541 107.2342 L 106.8242 105.6754 L 111.9783 105.4961 L 113.8275 106.0256 L 115.4276 102.8632 L 117.3446 101.5457 L 119.9628 101.9945 L 122.8171 103.5192 L 121.2597 99.7568 L 118.8557 95.9217 L 115.9177 93.0125 L 112.6757 90.8741 L 108.1326 90.1271 L 110.3728 91.9626 L 110.3816 93.7322 L 108.8534 95.894 L 105.3207 97.2194 L 102.1682 97.6196 L 99.553 97.7864 L 96.9197 94.2601 L 96.5453 96.3393 L 95.0834 96.3465 L 93.456 93.9694 L 92.6305 98.2052 L 88.5539 98.4561 L 84.3951 97.6302 L 81.0034 96.339 L 79.5261 93.1917 Z "/>
    <path id="ID0.5698574706912041" fill="none" stroke="#313537" stroke-width="0.9522852110336717" stroke-linecap="round" d="M 77.3934 154.6643 L 76.8905 157.894 L 86.8858 161.7755 L 93.6578 161.2241 L 99.8182 164.2629 "/>
    <path id="ID0.5698574706912041" fill="none" stroke="#313537" stroke-width="0.893306651813283" stroke-linecap="round" d="M 119.1514 153.6984 L 119.7622 156.8961 L 111.2723 161.3074 L 105.3496 161.1199 L 100.1517 164.4842 "/>
    <path id="ID0.8947288258932531" fill="#393C40" stroke="none" stroke-linecap="round" d="M 78.3599 142.6805 L 85.3767 142.3603 L 92.975 144.0479 L 98.797 149.4066 L 91.5799 145.2311 L 80.7805 144.0401 L 75.7507 147.2091 L 78.3599 142.6805 Z " stroke-width="0.47614260551683585"/>
    <path id="ID0.8947288258932531" fill="#393C40" stroke="none" stroke-linecap="round" d="M 117.0575 142.5724 L 110.8418 142.6451 L 104.214 144.5213 L 99.3417 149.5508 L 105.5066 145.4959 L 114.9877 143.8963 L 119.5923 146.4412 L 117.0575 142.5724 Z " stroke-width="0.4213739150688661"/>
    <path id="ID0.9897695370018482" fill="#393C40" stroke="none" stroke-linecap="round" d="M 82.1617 154.8373 L 75.6038 154.5489 L 75.8992 149.8961 L 77.1893 153.3602 L 82.286 153.357 L 88.526 156.6793 L 93.9892 156.1655 L 98.1232 157.476 L 99.2784 149.5833 L 99.7974 159.381 L 94.1477 157.5423 L 88.2698 157.7108 L 82.1617 154.8373 Z " stroke-width="0.47614260551683585"/>
    <path id="ID0.9897695370018482" fill="#393C40" stroke="none" stroke-linecap="round" d="M 114.3678 154.1576 L 119.8896 153.5564 L 119.4037 149.251 L 118.4906 152.5332 L 114.1876 152.7895 L 109.0886 156.1917 L 104.4502 155.9924 L 101.0267 157.4195 L 99.6501 150.1494 L 99.7102 159.2736 L 104.3864 157.279 L 109.3573 157.1365 L 114.3678 154.1576 Z " stroke-width="0.42322514726901006"/>
    <path id="ID0.3524594851769507" fill="#393C40" stroke="none" stroke-linecap="round" d="M 91.5882 119.8406 L 97.5527 121.8608 L 101.9359 119.4011 L 98.88 123.2994 L 100.1511 134.4093 L 109.1933 133.2927 L 98.8724 137.1611 L 87.0773 132.8072 L 96.8208 134.5524 L 96.093 123.284 L 91.5882 119.8406 Z " stroke-width="0.47614260551683585"/>
    <path id="ID0.9214867809787393" fill="#393C40" stroke="none" stroke-linecap="round" d="M 78.2487 138.8015 L 81.1027 134.5042 L 85.8348 133.4159 L 80.1409 138.3424 L 79.9868 141.2763 L 85.0332 141.1793 L 93.2878 144.158 L 84.2616 142.5114 L 78.4075 142.6791 L 78.2487 138.8015 Z " stroke-width="0.47614260551683585"/>
    <path id="ID0.9214867809787393" fill="#393C40" stroke="none" stroke-linecap="round" d="M 116.6218 138.4713 L 113.7842 134.5296 L 109.4023 133.746 L 114.8684 138.1352 L 115.1663 140.9223 L 110.5504 141.1001 L 103.989 144.1293 L 111.3266 142.3279 L 116.6844 142.1744 L 116.6218 138.4713 Z " stroke-width="0.4451788735269846"/>
    <path id="ID0.8679121839813888" fill="#2C2F31" stroke="none" stroke-linecap="round" d="M 93.5106 118.6914 L 97.3645 120.2005 L 100.6491 118.463 L 101.6283 119.3876 L 97.7781 122.1654 L 91.955 120.0935 L 93.5106 118.6914 Z " stroke-width="0.47614260551683585"/>
    <path id="ID0.24770551454275846" fill="none" stroke="#313537" stroke-width="0.9522852110336717" stroke-linecap="round" d="M 97.5014 116.5932 L 102.2442 120.0298 L 109.754 120.2909 L 117.3384 119.0018 L 122.4647 115.0441 "/>
    <path id="ID0.20603158557787538" fill="none" stroke="#313537" stroke-width="0.9522852110336717" stroke-linecap="round" d="M 64.0774 113.5867 L 71.2511 118.7399 L 83.7178 121.5979 L 90.959 120.7949 L 97.0338 116.6911 "/>
    <g id="ID0.5272086253389716">
      <path id="ID0.24770551454275846" fill="none" stroke="#363A3D" stroke-width="0.9522851514001298" stroke-linecap="round" d="M 68.3557 145.9929 L 78.1647 142.5441 "/>
      <path id="ID0.24770551454275846" fill="none" stroke="#363A3D" stroke-width="0.9522851514001298" stroke-linecap="round" d="M 65.4746 134.1404 L 85.7147 127.3441 "/>
    </g>
    <g id="ID0.5272086253389716">
      <path id="ID0.24770551454275846" fill="none" stroke="#363A3D" stroke-width="0.9522851117737279" stroke-linecap="round" d="M 123.6827 143.4785 L 116.6946 141.8456 "/>
      <path id="ID0.24770551454275846" fill="none" stroke="#363A3D" stroke-width="0.9522851117737279" stroke-linecap="round" d="M 123.8609 132.0893 L 109.8553 127.7279 "/>
    </g>
    <g id="ID0.7887678607366979">
      <path id="ID0.753661650698632" fill="none" stroke="#313537" stroke-width="0.9522851514001298" stroke-linecap="round" d="M 92.0675 119.9459 L 97.3711 122.1756 L 101.3417 119.442 "/>
      <g id="ID0.8167418288066983">
        <path id="ID0.9553722990676761" fill="none" stroke="#313537" stroke-width="1.0409108335820199" stroke-linecap="round" d="M 98.4093 137.0685 L 92.7374 135.0875 L 86.5113 133.3606 L 81.7696 134.4492 L 78.3858 138.8332 L 78.4847 142.2838 "/>
        <path id="ID0.5982440118677914" fill="none" stroke="#313537" stroke-width="0.8540413871320448" stroke-linecap="round" d="M 86.8097 132.8898 L 85.4682 127.6328 L 90.5014 120.4279 "/>
      </g>
      <g id="ID0.7324484633281827">
        <path id="ID0.04993448918685317" fill="none" stroke="#313537" stroke-width="0.9522851514001298" stroke-linecap="round" d="M 97.3677 122.0566 L 98.3817 132.507 L 99.3283 148.9136 L 100.0335 165.2079 "/>
        <g id="ID0.8167418288066983">
          <path id="ID0.9553722990676761" fill="none" stroke="#313537" stroke-width="0.9699703615488809" stroke-linecap="round" d="M 98.6182 136.8968 L 103.6127 135.3961 L 108.9863 133.3367 L 113.2081 134.1684 L 116.415 138.3635 L 116.5139 141.8141 "/>
          <path id="ID0.5982440118677914" fill="none" stroke="#313537" stroke-width="0.7916616265180969" stroke-linecap="round" d="M 108.7039 132.9917 L 109.5988 127.6706 L 104.7919 120.7478 "/>
          <path id="ID0.3567589442245662" fill="none" stroke="#313537" stroke-width="0.8967655488164227" stroke-linecap="round" d="M 99.1074 149.5741 L 104.0929 144.4535 L 111.3641 142.3397 L 116.8898 142.1813 L 119.2624 146.7576 L 119.7566 153.7695 L 114.2304 154.6423 L 108.6678 157.898 L 103.7423 157.801 L 99.5877 159.7539 L 93.6764 157.4226 L 88.0947 157.8207 L 81.5803 154.9112 L 75.2597 154.3779 L 75.3934 147.3481 L 77.8139 142.6344 L 84.0932 142.4544 L 92.4782 144.1195 L 98.4395 148.9263 Z "/>
        </g>
      </g>
    </g>
    <g id="ID0.9312638868577778">
      <path id="ID0.2888958193361759" fill="#393C40" stroke="none" stroke-linecap="round" d="M 80.1943 162.8235 L 90.4669 164.6143 L 89.9559 167.5459 L 79.6832 165.7552 L 80.1943 162.8235 Z " stroke-width="0.47614253071984414"/>
      <path id="ID0.2888958193361759" fill="#393C40" stroke="none" stroke-linecap="round" d="M 69.3748 161.0314 L 80.9169 163.1643 L 80.4059 166.0959 L 70.1332 164.3052 L 69.3748 161.0314 Z " stroke-width="0.47614253071984414"/>
      <g id="ID0.36424446757882833">
        <path id="ID0.7359844641759992" fill="#8A7B59" stroke="none" d="M 83.04 162.045 L 84.563 162.0014 L 84.7417 168.2363 L 83.2187 168.2799 L 83.04 162.045 Z " stroke-width="0.4761425757000649"/>
        <path id="ID0.7359844641759992" fill="#8A7B59" stroke="none" d="M 81.14 161.645 L 82.663 161.6014 L 82.8417 167.8363 L 81.3187 167.8799 L 81.14 161.645 Z " stroke-width="0.4761425757000649"/>
        <path id="ID0.7359844641759992" fill="#8A7B59" stroke="none" d="M 79.19 161.045 L 80.713 161.0014 L 80.8917 167.2363 L 79.3687 167.2799 L 79.19 161.045 Z " stroke-width="0.4761425757000649"/>
        <path id="ID0.7359844641759992" fill="#8A7B59" stroke="none" d="M 84.94 162.495 L 86.463 162.4514 L 86.6417 168.6863 L 85.1187 168.7299 L 84.94 162.495 Z " stroke-width="0.4761425757000649"/>
      </g>
      <g id="ID0.1049797898158431">
        <path id="ID0.08871637750416994" fill="#8A7B59" stroke="none" stroke-linecap="round" d="M 71.1178 160.3611 L 77.5493 161.2247 L 77.662 166.8185 L 71.4678 165.9242 L 71.1178 160.3611 Z " stroke-width="0.4761425757000649"/>
        <path id="ID0.13805592898279428" fill="#76694C" stroke="none" stroke-linecap="round" d="M 70.9016 160.0886 L 77.6424 160.9434 L 77.8202 163.8201 L 71.0528 162.8709 L 70.9016 160.0886 Z " stroke-width="0.4761425757000649"/>
        <path id="ID0.3221200187690556" fill="#61563F" stroke="none" stroke-linecap="round" d="M 73.7297 162.2392 L 74.6182 162.5757 L 74.746 164.3298 L 73.7808 164.0214 L 73.7297 162.2392 Z " stroke-width="0.5167888844302129"/>
        <path id="ID0.1420820001512766" fill="#BAA578" stroke="none" stroke-linecap="round" d="M 76.9521 165.8909 L 77.6251 164.4426 L 77.7388 166.7496 L 71.4515 165.9295 L 76.9521 165.8909 Z " stroke-width="0.4761425757000649"/>
      </g>
      <path id="ID0.2888958193361759" fill="#393C40" stroke="none" stroke-linecap="round" d="M 117.7058 162.1722 L 110.3374 164.1973 L 110.8421 166.7204 L 118.2105 164.6953 L 117.7058 162.1722 Z " stroke-width="0.38104700122462176"/>
      <path id="ID0.2888958193361759" fill="#393C40" stroke="none" stroke-linecap="round" d="M 124.2245 160.1066 L 117.2874 162.2473 L 117.7921 164.7704 L 123.8867 163.0315 L 124.2245 160.1066 Z " stroke-width="0.38104700122462176"/>
      <path id="ID0.7359844641759992" fill="#8A7B59" stroke="none" d="M 115.6904 161.1464 L 114.5838 161.1781 L 114.7393 166.6019 L 115.8459 166.5702 L 115.6904 161.1464 Z " stroke-width="0.38160280900815635"/>
      <path id="ID0.7359844641759992" fill="#8A7B59" stroke="none" d="M 117.0404 160.6464 L 115.9338 160.6781 L 116.0893 166.1019 L 117.1959 166.0702 L 117.0404 160.6464 Z " stroke-width="0.38160280900815635"/>
      <path id="ID0.7359844641759992" fill="#8A7B59" stroke="none" d="M 118.5404 160.1464 L 117.4338 160.1781 L 117.5893 165.6019 L 118.6959 165.5702 L 118.5404 160.1464 Z " stroke-width="0.38160280900815635"/>
      <path id="ID0.7359844641759992" fill="#8A7B59" stroke="none" d="M 114.2404 161.7964 L 113.1338 161.8281 L 113.2893 167.2519 L 114.3959 167.2202 L 114.2404 161.7964 Z " stroke-width="0.38160280900815635"/>
      <g id="ID0.1049797898158431">
        <path id="ID0.08871637750416994" fill="#8A7B59" stroke="none" stroke-linecap="round" d="M 124.3739 159.0828 L 119.4598 160.1923 L 119.6447 165.3601 L 124.3744 164.2339 L 124.3739 159.0828 Z " stroke-width="0.40545298501655885"/>
        <path id="ID0.13805592898279428" fill="#76694C" stroke="none" stroke-linecap="round" d="M 124.6455 158.8999 L 119.4926 160.0161 L 119.4953 162.6797 L 124.6641 161.4749 L 124.6455 158.8999 Z " stroke-width="0.40545298501655885"/>
        <path id="ID0.3221200187690556" fill="#61563F" stroke="none" stroke-linecap="round" d="M 122.6515 160.9245 L 121.9831 161.2782 L 121.9699 162.9032 L 122.6987 162.5718 L 122.6515 160.9245 Z " stroke-width="0.4400648086914132"/>
        <path id="ID0.1420820001512766" fill="#BAA578" stroke="none" stroke-linecap="round" d="M 120.2673 164.5447 L 119.6783 163.2408 L 119.7027 165.3754 L 124.5079 164.3131 L 120.2673 164.5447 Z " stroke-width="0.40545298501655885"/>
      </g>
      <g id="ID0.6836685389280319">
        <path id="ID0.09357938077300787" fill="#857656" stroke="none" d="M 90.9304 161.7402 L 108.8974 161.2253 L 109.0816 167.6506 L 91.1146 168.1655 L 90.9304 161.7402 Z " stroke-width="0.4283320965417938"/>
        <path id="ID0.6492703901603818" fill="#7C6E50" stroke="none" stroke-linecap="round" d="M 91.687 163.9243 L 99.9857 166.7826 L 108.7259 163.436 L 108.8479 167.6957 L 91.809 168.184 L 91.687 163.9243 Z " stroke-width="0.4761425757000649"/>
        <g id="ID0.9254062357358634">
          <g id="ID0.49943465692922473">
            <path id="ID0.140373723115772" fill="#968561" stroke="none" d="M 107.3226 160.1179 L 112.4391 159.9713 L 112.6982 169.0143 L 107.5818 169.1609 L 107.3226 160.1179 Z " stroke-width="0.4761425757000649"/>
            <path id="ID0.8286363878287375" fill="#BAA578" stroke="none" stroke-linecap="round" d="M 107.313 159.9263 L 112.5552 160.0142 L 108.4363 160.8944 L 107.4744 163.0655 L 107.313 159.9263 Z " stroke-width="0.4761425757000649"/>
            <path id="ID0.7362233307212591" fill="#8A7B59" stroke="none" stroke-linecap="round" d="M 107.5114 166.0177 L 110.2256 165.9876 L 112.6072 163.49 L 112.7675 169.0824 L 107.6034 169.2304 L 107.5114 166.0177 Z " stroke-width="0.4761425757000649"/>
          </g>
          <g id="ID0.49943465692922473">
            <path id="ID0.140373723115772" fill="#968561" stroke="none" d="M 92.1821 160.8226 L 87.0657 160.9693 L 87.3248 170.0123 L 92.4413 169.8656 L 92.1821 160.8226 Z " stroke-width="0.4761425757000649"/>
            <path id="ID0.8286363878287375" fill="#BAA578" stroke="none" stroke-linecap="round" d="M 92.2513 160.5974 L 87.0227 160.9854 L 91.1853 161.6283 L 92.2699 163.7407 L 92.2513 160.5974 Z " stroke-width="0.4761425757000649"/>
            <path id="ID0.7362233307212591" fill="#8A7B59" stroke="none" stroke-linecap="round" d="M 92.4021 166.6902 L 89.6906 166.8156 L 87.1699 164.4585 L 87.3302 170.0508 L 92.4942 169.9028 L 92.4021 166.6902 Z " stroke-width="0.4761425757000649"/>
          </g>
        </g>
      </g>
    </g>
  </g>
  <g id="ID0.8333355090580881">
    <path id="ID0.9286923445761204" fill="#27282B" stroke="none" stroke-linecap="round" d="M 80.3257 45.544 L 99.1833 46.0892 L 100.8619 70.3907 L 116.4326 76.7715 L 94.1666 89.2425 L 56.9286 78.5225 L 76.26 66.9593 L 80.3257 45.544 Z " stroke-width="0.4761425990278647"/>
    <path id="ID0.5448851804248989" fill="none" stroke="#1D1E1F" stroke-width="0.9522851980557294" stroke-linecap="round" d="M 77.4021 61.1345 L 76.4408 66.7597 L 93.9016 73.7621 L 100.5812 70.4999 "/>
    <path id="ID0.262191956397146" fill="none" stroke="#1D1E1F" stroke-width="0.9522851980557294" stroke-linecap="round" d="M 80.405 65.9439 L 93.4082 71.4982 L 96.349 70.2325 "/>
  </g>
  <g id="ID0.3450673264451325">
    <g id="ID0.9831569031812251">
      <path id="ID0.0877610077150166" fill="#2E3034" stroke="none" stroke-linecap="round" d="M 105.0453 14.761 L 101.0942 1.444 L 99.7539 29.9411 L 107.4168 30.3016 L 105.0453 14.761 Z " stroke-width="0.5866066378028746"/>
      <path id="ID0.796130308881402" fill="#242628" stroke="none" stroke-linecap="round" d="M 105.3779 14.7948 L 101.0717 1.4612 L 103.9739 15.451 L 104.2133 30.3661 L 107.3989 30.2205 L 105.3779 14.7948 Z " stroke-width="0.5866066378028746"/>
    </g>
    <g id="ID0.9831569031812251">
      <path id="ID0.0877610077150166" fill="#2E3034" stroke="none" stroke-linecap="round" d="M 81.2764 13.7941 L 86.46 0.9068 L 85.1196 29.4039 L 77.4567 29.0435 L 81.2764 13.7941 Z " stroke-width="0.5866066378028746"/>
      <path id="ID0.796130308881402" fill="#242628" stroke="none" stroke-linecap="round" d="M 80.8664 13.7689 L 86.4052 0.8983 L 82.2027 14.554 L 80.4276 29.046 L 77.4066 28.9367 L 80.8664 13.7689 Z " stroke-width="0.5866066378028746"/>
    </g>
    <path id="ID0.8999492498114705" fill="#2E3034" stroke="none" stroke-linecap="round" d="M 98.486 20.4295 C 102.8628 21.1149 107.4621 24.0446 109.4095 28.0235 C 111.6316 32.566 109.4229 38.0669 109.4876 43.071 C 109.5806 44.7807 110.2899 46.5687 109.8832 48.1756 C 109.0551 51.444 107.2407 54.391 106.0102 57.5296 C 105.204 59.5866 104.9391 61.9315 103.682 63.7776 C 102.2618 65.9659 100.7733 69.0335 98.1551 69.3666 C 94.2737 69.8599 90.2882 67.8293 86.9249 65.9139 C 84.1619 64.34 81.6153 62.0058 80.1729 59.1626 C 77.5981 53.8909 75.3059 48.1168 75.1971 42.2211 C 75.0768 35.6855 74.6864 27.5921 79.6565 23.104 C 84.1174 18.7675 91.9795 19.4134 98.486 20.4295 Z " stroke-width="0.508037282917202"/>
    <path id="ID0.2441388238221407" fill="#AB8E85" stroke="none" d="M 95.0421 45.1723 C 99.11 45.5308 104.6917 42.6251 107.2848 45.4967 C 109.6156 48.1999 106.0227 52.8977 104.8898 56.3219 C 103.7616 59.7275 102.8985 63.4296 100.529 66.1746 C 99.4031 67.3915 97.1769 67.3584 95.4611 67.0049 C 92.3757 66.3657 89.3777 64.9398 86.8701 63.029 C 84.2751 61.0526 80.8266 58.8587 80.4074 55.6104 C 79.8767 51.4957 80.7938 46.1378 84.1099 43.7152 C 87.146 41.6063 91.3837 44.8493 95.0421 45.1723 Z " stroke-width="1.255840093862644"/>
    <path id="ID0.46721756737679243" fill="#A2887F" stroke="none" stroke-linecap="round" d="M 80.3534 45.6174 L 81.9958 46.3812 L 107.9965 47.2227 L 100.5517 51.9585 L 83.9461 48.7108 L 84.9504 51.1484 L 84.9403 56.768 L 88.2311 64.1194 L 83.9776 57.2313 L 80.3534 45.6174 Z " stroke-width="0.508037282917202"/>
    <path id="ID0.8256730306893587" fill="none" stroke="#937B73" stroke-width="1.016074565834404" stroke-linecap="round" d="M 90.7514 57.8634 C 90.7514 57.8634 93.4757 57.3944 94.8482 57.2677 C 95.1915 57.2361 95.5258 57.3296 95.8596 57.3916 C 96.1989 57.4549 96.5199 57.6378 96.865 57.6423 C 97.5491 57.6516 98.2267 57.4861 98.9092 57.4333 C 99.2477 57.407 99.589 57.3849 99.9278 57.4049 C 100.2671 57.425 100.6107 57.4615 100.9379 57.5542 C 101.476 57.7066 102.5126 58.1368 102.5126 58.1368 "/>
    <path id="ID0.7592270169407129" fill="none" stroke="#937B73" stroke-width="1.016074565834404" stroke-linecap="round" d="M 99.2033 59.5799 C 99.2033 59.5799 98.566 59.8953 98.22 59.9405 C 97.8843 59.9848 97.5455 59.8239 97.2075 59.8421 C 96.8673 59.8606 96.5454 60.0225 96.2059 60.0492 C 95.8685 60.0761 95.5168 60.0921 95.191 60.0015 C 94.9139 59.9244 94.4489 59.5597 94.4489 59.5597 "/>
    <path id="ID0.5332203092984855" fill="none" stroke="#937B73" stroke-width="1.016074565834404" stroke-linecap="round" d="M 93.7311 49.9085 C 93.7311 49.9085 93.1059 50.3114 92.9849 50.6363 C 92.8271 51.0718 92.5331 51.9038 92.9604 52.2372 C 93.5269 52.5543 94.3187 51.8637 95.0082 51.9521 C 95.6754 52.0404 96.9635 52.5526 96.9635 52.5526 "/>
    <path id="ID0.2278452254831791" fill="none" stroke="#937B73" stroke-width="1.016074565834404" stroke-linecap="round" d="M 98.2419 46.4587 C 98.2419 46.4587 99.0877 48.363 99.5062 49.3155 C 99.6463 49.6344 99.8025 49.9479 99.9188 50.2758 C 100.0351 50.6037 100.2321 50.9344 100.2021 51.2809 C 100.172 51.6284 99.9509 51.9404 99.7508 52.226 C 99.6172 52.4171 99.2206 52.6842 99.2206 52.6842 "/>
    <path id="ID0.6473136460408568" fill="none" stroke="#937B73" stroke-width="1.0160746214386542" stroke-linecap="round" d="M 97.8419 63.3524 C 97.8419 63.3524 98.1285 64.0015 98.1631 64.348 C 98.1964 64.6855 98.1201 65.0298 98.041 65.3596 C 97.9222 65.8566 97.5713 66.8204 97.5713 66.8204 "/>
    <path id="ID0.11669129692018032" fill="#2E3034" stroke="none" stroke-linecap="round" d="M 82.5324 40.3796 L 105.6659 43.2477 L 109.4735 46.097 L 99.8645 50.3495 L 79.3041 46.8395 L 82.5324 40.3796 Z " stroke-width="0.508037282917202"/>
    <path id="ID0.14635155349969864" fill="#2E3034" stroke="none" stroke-linecap="round" d="M 79.6211 45.5066 L 81.4555 45.9744 L 83.8497 51.3001 L 83.8833 57.0743 L 85.5312 60.9663 L 88.2579 64.6293 L 80.2815 59.041 L 79.6211 45.5066 Z " stroke-width="0.508037282917202"/>
    <path id="ID0.28340246016159654" fill="#1C1D1F" stroke="none" stroke-linecap="round" d="M 82.8725 37.202 L 86.2261 38.9007 L 95.8414 40.2451 L 95.5711 45.9909 L 88.6829 44.7207 L 84.8761 43.4602 L 82.924 41.8545 L 82.142 40.0874 L 82.8725 37.202 Z " stroke-width="0.5401026782102721"/>
    <path id="ID0.6101007834076881" fill="#FFFFFF" stroke="none" stroke-linecap="round" d="M 86.563 39.9482 L 88.1952 40.4252 L 91.9145 41.8027 L 92.3661 43.7944 L 87.1855 42.0962 L 86.563 39.9482 Z " stroke-width="0.4061061897641455"/>
    <path id="ID0.28340246016159654" fill="#1C1D1F" stroke="none" stroke-linecap="round" d="M 108.3424 38.43 L 105.223 39.6574 L 96.5741 40.0462 L 96.3331 45.1698 L 102.5547 44.6187 L 106.0398 43.8183 L 107.9073 42.5561 L 108.7494 41.0528 L 108.3424 38.43 Z " stroke-width="0.4816250145792631"/>
    <path id="ID0.6101007834076881" fill="#FFFFFF" stroke="none" stroke-linecap="round" d="M 106.5488 40.4252 L 104.986 40.8436 L 101.4184 42.0734 L 100.9457 43.9581 L 105.9103 42.4549 L 106.5488 40.4252 Z " stroke-width="0.38638674717503535"/>
    <g id="ID0.07940126257017255">
      <path id="ID0.46257128613069654" fill="#27282B" stroke="none" stroke-linecap="round" d="M 95.9898 40.125 L 99.8609 50.2757 L 89.8979 48.5356 L 95.9898 40.125 Z " stroke-width="0.508037282917202"/>
      <path id="ID0.9845890481956303" fill="#27282B" stroke="none" stroke-linecap="round" d="M 96.8029 40.2879 L 104.7287 48.0353 L 99.9406 50.3531 L 96.8029 40.2879 Z " stroke-width="0.508037282917202"/>
    </g>
    <path id="ID0.20071752788498998" fill="#202324" stroke="none" d="M 87.8303 35.1507 L 91.8457 37.908 L 96.5357 39.2984 L 96.5461 40.6975 L 88.8414 39.0636 L 83.0645 36.4524 L 84.8735 34.7574 L 87.8303 35.1507 Z " stroke-width="0.508037282917202"/>
    <path id="ID0.20071752788498998" fill="#202324" stroke="none" d="M 104.7816 35.671 L 101.6171 37.9719 L 96.3059 39.2852 L 96.1758 40.5623 L 103.354 39.7334 L 108.8733 37.9632 L 107.442 35.6561 L 104.7816 35.671 Z " stroke-width="0.46609799486602593"/>
    <path id="ID0.521138689480722" fill="none" stroke="#212325" stroke-width="0.9060627407557054" stroke-linecap="round" d="M 108.4715 38.1959 L 105.1614 39.6276 L 96.5726 40.4709 "/>
    <path id="ID0.17828734638169408" fill="none" stroke="#202324" stroke-width="1.016074565834404" stroke-linecap="round" d="M 99.7892 49.7865 L 97.2114 42.4178 C 96.3253 39.9541 96.4468 40.529 96.3035 39.5523 C 96.2534 39.2113 96.4869 38.8855 96.5542 38.5469 C 96.6203 38.2133 96.7002 37.8768 96.7035 37.5367 C 96.7069 37.1931 96.6237 36.853 96.5736 36.5134 C 96.4953 35.9834 96.3177 34.9248 96.3177 34.9248 "/>
    <path id="ID0.521138689480722" fill="none" stroke="#212325" stroke-width="1.016074565834404" stroke-linecap="round" d="M 83.1359 36.7221 L 86.6809 38.669 L 96.1811 40.5144 "/>
    <path id="ID0.8012696979567409" fill="none" stroke="url(#grad_1)" stroke-width="1.016074565834404" stroke-linecap="round" d="M 108.018 46.766 L 100.3743 50.3227 L 81.9105 47.1147 L 83.7082 51.0646 L 83.7263 57.1686 L 85.4852 60.8624 L 88.2072 64.6269 "/>
    <path id="ID0.043594349175691605" fill="#D7E2FD" stroke="none" stroke-linecap="round" d="M 91.5906 42.7911 L 91.8715 41.6853 L 92.2823 43.7645 L 89.7288 42.9069 L 91.5906 42.7911 Z " stroke-width="0.508037282917202"/>
    <path id="ID0.043594349175691605" fill="#D7E2FD" stroke="none" stroke-linecap="round" d="M 101.6889 43.0891 L 101.4711 42.0751 L 101.0275 43.9501 L 103.3764 43.2574 L 101.6889 43.0891 Z " stroke-width="0.4618642856713048"/>
  </g>
  <path id="ID0.7729651997797191" fill="#3E4246" stroke="none" stroke-linecap="round" d="M 48.1903 100.0949 L 64.3309 87.7761 L 80.345 110.3652 L 93.3513 128.5261 L 96.8225 137.9447 L 98.1138 144.4233 L 85.0215 148.9335 L 77.441 142.8895 L 59.3913 115.4186 L 48.1903 100.0949 Z " stroke-width="1.099089536804936"/>
  <path id="ID0.9716172609478235" fill="#393C40" stroke="none" stroke-linecap="round" d="M 50.7134 109.9272 L 45.7036 107.8043 L 47.2566 101.1878 L 65.7175 110.0026 L 62.8495 113.169 L 57.4378 115.3168 L 50.7134 109.9272 Z " stroke-width="0.8164595842744493"/>
  <g id="ID0.38066427363082767">
    <path id="ID0.4757494777441025" fill="#1D1E1F" stroke="none" stroke-linecap="round" d="M 54.5031 79.1169 L 62.9574 76.5535 L 79.1297 80.6401 L 72.1846 106.4884 L 62.0881 111.9933 L 57.6231 113.2867 L 54.2955 111.0677 L 51.2951 108.2365 L 45.4591 105.9032 L 45.0697 100.4401 L 45.3832 92.3203 L 48.1817 83.8392 L 54.5031 79.1169 Z " stroke-width="0.47614256926192144"/>
    <path id="ID0.6007084371522069" fill="none" stroke="#0D0D0D" stroke-width="0.9522851385238429" stroke-linecap="round" d="M 45.9523 106.2363 L 51.1763 108.2424 L 55.6386 111.7163 L 57.629 113.4056 L 62.0881 111.9933 L 66.3753 109.5168 "/>
  </g>
  <g id="ID0.7397577832452953">
    <path id="ID0.6726378230378032" fill="#393C40" stroke="none" stroke-linecap="round" d="M 90.1781 150.4005 L 83.5492 133.0555 L 85.6414 131.8244 L 91.8522 149.033 L 90.1781 150.4005 Z " stroke-width="0.8164596631842439"/>
    <path id="ID0.6507829907350242" fill="#1D1E1F" stroke="none" stroke-linecap="round" d="M 93.3888 151.6108 L 85.3622 131.609 L 97.8445 117.3016 L 106.2153 110.464 L 116.5524 98.0881 L 120.2696 92.6825 L 130.8208 98.8361 L 126.7903 103.98 L 121.9195 112.6771 L 116.1308 124.0651 L 111.3908 132.6056 L 93.3888 151.6108 Z " stroke-width="0.8164596631842439"/>
    <path id="ID0.6829322893172503" fill="#1D1E1F" stroke="none" stroke-linecap="round" d="M 130.8725 99.4111 L 119.6117 96.6542 L 120.6382 90.3309 L 121.2997 83.1708 L 124.9634 78.7845 L 128.443 75.5739 L 131.9723 74.5326 L 137.3869 70.2788 L 140.8591 73.445 L 140.4906 75.7967 L 141.613 77.0001 L 142.4185 81.1303 L 143.1189 85.7046 L 141.8068 90.4595 L 136.6004 95.4191 L 130.8725 99.4111 Z " stroke-width="0.8164596631842439"/>
    <path id="ID0.47767175547778606" fill="none" stroke="#0D0D0D" stroke-width="1.6329193263684878" stroke-linecap="round" d="M 95.9273 148.5717 L 93.091 151.5217 L 85.4249 131.6614 L 94.6518 121.1241 "/>
    <path id="ID0.5922487881034613" fill="#282A2B" stroke="none" stroke-linecap="round" d="M 116.0053 126.2054 L 106.9736 126.0017 L 102.3262 122.0135 L 101.3846 113.4613 L 112.0856 102.8787 L 120.5301 100.0919 L 123.1933 102.3164 L 123.1824 111.8815 L 116.0053 126.2054 Z " stroke-width="0.8164596631842439"/>
    <path id="ID0.36820242274552584" fill="#151616" stroke="none" stroke-linecap="round" d="M 112.9468 120.0135 L 106.3776 114.6328 L 115.8253 107.5246 L 116.9323 108.5555 L 112.9468 120.0135 Z " stroke-width="0.8164596631842439"/>
    <path id="ID0.13569410238415003" fill="none" stroke="#232425" stroke-width="1.6329193263684878" stroke-linecap="round" d="M 120.5247 111.9908 L 120.7442 102.8127 L 112.0232 105.1026 "/>
    <path id="ID0.024502143263816833" fill="none" stroke="#0D0D0D" stroke-width="1.6329193263684878" stroke-linecap="round" d="M 115.4386 126.04 L 107.1802 126.0568 L 102.3861 122.3716 L 101.3819 113.7671 L 107.5669 107.7632 "/>
  </g>
  <g id="ID0.3206949238665402">
    <path id="ID0.05466862628236413" fill="#303436" stroke="none" stroke-linecap="round" d="M 57.6471 229.2666 L 83.5519 235.895 L 71.7936 251.4179 L 68.4001 255.4641 L 60.8744 271.9722 L 42.2814 308.236 L 27.0915 303.9374 L 33.5957 282.6601 L 34.3999 273.6402 L 36.7997 264.4283 L 43.9201 252.7622 L 48.665 241.3913 L 57.6471 229.2666 Z " stroke-width="0.7305889690655878"/>
    <path id="ID0.4490455654449761" fill="none" stroke="#272A2B" stroke-width="1.6585523739065569" stroke-linecap="round" d="M 57.168 230.1396 L 83.2122 236.4076 L 67.5497 256.321 "/>
    <path id="ID0.10446935473009944" fill="none" stroke="#242728" stroke-width="1.6585523739065569" stroke-linecap="round" d="M 62.4879 267.5717 L 55.852 283.0472 L 43.2923 285.757 "/>
    <path id="ID0.42170455446466804" fill="none" stroke="#242728" stroke-width="1.6585523739065569" stroke-linecap="round" d="M 54.3861 283.6969 L 47.2412 297.0369 L 34.4038 299.8406 "/>
    <path id="ID0.047098892275244" fill="none" stroke="#242728" stroke-width="1.6585523739065569" stroke-linecap="round" d="M 48.8026 241.9838 L 46.8582 245.4108 L 47.598 255.3146 "/>
  </g>
  <g id="ID0.7190384990535676">
    <path id="ID0.05466862628236413" fill="#292D2E" stroke="none" stroke-linecap="round" d="M 100.8116 223.7491 L 127.4915 221.9657 L 121.1624 240.382 L 119.2005 245.2849 L 117.2002 263.3168 L 110.8477 303.5711 L 95.0748 304.2256 L 94.6169 281.9811 L 92.5672 273.1605 L 91.9735 263.6596 L 95.0992 250.3545 L 96.0601 238.0708 L 100.8116 223.7491 Z " stroke-width="0.73058897628315"/>
    <path id="ID0.4490455654449761" fill="none" stroke="#272A2B" stroke-width="1.6585523879458735" stroke-linecap="round" d="M 100.5 223.9642 L 127.1998 221.7947 L 118.531 245.6003 "/>
    <path id="ID0.10446935473009944" fill="none" stroke="#242728" stroke-width="1.6585523879458735" stroke-linecap="round" d="M 117.2316 257.8687 L 115.7545 274.6421 L 104.6669 281.1347 "/>
    <path id="ID0.42170455446466804" fill="none" stroke="#242728" stroke-width="1.6585523879458735" stroke-linecap="round" d="M 114.5644 275.7166 L 111.9376 290.6198 L 100.6154 297.2883 "/>
    <path id="ID0.047098892275244" fill="none" stroke="#242728" stroke-width="1.6585523879458735" stroke-linecap="round" d="M 96.3176 237.9316 L 95.5393 241.7941 L 99.3317 250.9729 "/>
  </g>
</svg>