<svg xmlns="http://www.w3.org/2000/svg" xmlns:xlink="http://www.w3.org/1999/xlink" version="1.1" width="105.2429488465876" height="336.87592919326727" viewBox="1.232123694534569 -0.6115762375638196 105.2429488465876 336.87592919326727">
  <defs>
    <linearGradient id="grad_1" y2="1" x2="0">
      <stop offset="0" stop-color="#222325" stop-opacity="1"/>
      <stop offset="1" stop-color="#2E3034" stop-opacity="1"/>
    </linearGradient>
  </defs>
  <!-- Exported by Scratch - http://scratch.mit.edu/ -->
  <g id="ID0.9602425838820636">
    <g id="ID0.17693647183477879">
      <path id="ID0.7729651997797191" fill="#393C40" stroke="none" stroke-linecap="round" d="M 95.7966 102.678 L 76.4943 103.2557 L 79.5027 119.5157 L 81.8279 132.6381 L 85.3587 138.2004 L 88.5658 141.6101 L 100.733 138.6712 L 102.2681 133.0692 L 97.5976 113.8364 L 95.7966 102.678 Z " stroke-width="0.7788099492849867"/>
      <path id="ID0.9716172609478235" fill="#34373A" stroke="none" stroke-linecap="round" d="M 91.6561 108.1223 L 96.3958 106.0079 L 94.7961 99.7255 L 77.3477 108.4633 L 80.1398 111.4318 L 85.3395 113.3831 L 91.6561 108.1223 Z " stroke-width="0.7788099492849867"/>
      <g id="ID0.38066427363082767">
        <path id="ID0.4757494777441025" fill="#1D1E1F" stroke="none" stroke-linecap="round" d="M 87.5907 78.6586 L 79.4818 76.3655 L 64.1312 80.553 L 71.2185 105.0804 L 80.9464 110.1494 L 85.2279 111.3029 L 88.3617 109.1269 L 91.1725 106.373 L 96.6966 104.043 L 96.9699 98.8257 L 96.5253 91.0873 L 93.7043 83.049 L 87.5907 78.6586 Z " stroke-width="0.45418605658343364"/>
        <path id="ID0.6007084371522069" fill="none" stroke="#0D0D0D" stroke-width="0.9083721131668673" stroke-linecap="round" d="M 96.2322 104.3695 L 91.2859 106.3765 L 87.0924 109.7696 L 85.2244 111.4164 L 80.9464 110.1494 L 76.8132 107.8645 "/>
      </g>
    </g>
    <g id="ID0.7397577832452953">
      <path id="ID0.6726378230378032" fill="#34373A" stroke="none" stroke-linecap="round" d="M 101.6677 130.2768 L 85.951 138.4443 L 86.6627 140.6478 L 101.9949 132.3126 L 101.6677 130.2768 Z " stroke-width="0.7788099492849867"/>
      <path id="ID0.6507829907350242" fill="#1D1E1F" stroke="none" stroke-linecap="round" d="M 104.8517 131.3952 L 86.4549 140.5715 L 86.2899 158.6823 L 87.9261 168.8617 L 87.4553 184.236 L 86.6808 190.4456 L 98.1032 192.7434 L 98.4885 186.5218 L 100.5261 177.234 L 103.6142 165.4462 L 105.6458 156.3531 L 104.8517 131.3952 Z " stroke-width="0.7788099492849867"/>
      <path id="ID0.6829322893172503" fill="#1D1E1F" stroke="none" stroke-linecap="round" d="M 98.5044 192.366 L 88.7282 187.1968 L 85.4535 192.356 L 81.3885 197.8805 L 81.2216 203.3297 L 81.6684 207.8236 L 83.5251 210.8024 L 84.6907 217.2662 L 89.1727 217.2087 L 90.4 215.2983 L 91.9628 215.1514 L 95.1541 212.7168 L 98.5519 209.8989 L 100.6291 205.6771 L 100.0592 198.8419 L 98.5044 192.366 Z " stroke-width="0.7788099492849867"/>
      <path id="ID0.47767175547778606" fill="none" stroke="#0D0D0D" stroke-width="1.5576198985699734" stroke-linecap="round" d="M 104.7361 135.1706 L 104.5828 131.2701 L 86.5327 140.5739 L 86.4353 153.9338 "/>
      <path id="ID0.5922487881034613" fill="#282A2B" stroke="none" stroke-linecap="round" d="M 104.7671 163.9668 L 98.198 158.3893 L 92.3573 158.2884 L 86.2671 163.7899 L 87.1919 178.1161 L 91.4475 185.4538 L 94.7559 185.5551 L 100.8088 178.7278 L 104.7671 163.9668 Z " stroke-width="0.7788099492849867"/>
      <path id="ID0.36820242274552584" fill="#151616" stroke="none" stroke-linecap="round" d="M 98.7825 166.2811 L 90.6891 165.9554 L 92.9218 177.0101 L 94.3644 176.9764 L 98.7825 166.2811 Z " stroke-width="0.7788099492849867"/>
      <path id="ID0.13569410238415003" fill="none" stroke="#232425" stroke-width="1.5576198985699734" stroke-linecap="round" d="M 99.0967 176.8396 L 93.4378 183.5231 L 88.6703 176.3645 "/>
      <path id="ID0.024502143263816833" fill="none" stroke="#0D0D0D" stroke-width="1.5576198985699734" stroke-linecap="round" d="M 104.372 163.5994 L 98.494 158.3547 L 92.7406 157.9448 L 86.5726 163.4439 L 87.1786 171.6438 "/>
    </g>
  </g>
  <path id="ID0.3809091211296618" fill="#393D40" stroke="none" stroke-linecap="round" d="M 58.6273 180.7218 L 82.8084 165.5641 L 90.4456 203.5986 L 90.7818 214.5393 L 87.622 232.8806 L 79.3597 236.4981 L 66.6444 239.286 L 64.2931 218.5996 L 64.7717 207.1523 L 58.6273 180.7218 Z " stroke-width="0.7305889689774304"/>
  <g id="ID0.8669879510998726">
    <path id="ID0.5368814701214433" fill="#292D2E" stroke="none" stroke-linecap="round" d="M 56.7014 317.4454 L 60.1543 308.8221 L 65.2365 299.8876 L 74.8096 306.3835 L 85.5539 314.7369 L 102.3045 326.1956 L 102.9558 332.7676 L 78.2342 332.3339 L 57.2734 327.2903 L 56.7014 317.4454 Z " stroke-width="0.7702165574796848"/>
    <path id="ID0.05466862628236413" fill="#292D2E" stroke="none" stroke-linecap="round" d="M 65.3761 228.5738 L 92.0089 226.1881 L 86.0974 244.7427 L 84.2467 249.6886 L 82.6543 267.7612 L 77.2128 308.1487 L 61.4588 309.1594 L 60.4984 286.9309 L 58.25 278.1588 L 57.4418 268.6738 L 60.2662 255.3014 L 60.9494 242.9992 L 65.3761 228.5738 Z " stroke-width="0.7305890249254549"/>
    <path id="ID0.4490455654449761" fill="none" stroke="#272A2B" stroke-width="1.6585524842829127" stroke-linecap="round" d="M 65.0563 228.8626 L 91.7003 226.0905 L 83.5715 250.0858 "/>
    <path id="ID0.10446935473009944" fill="none" stroke="#242728" stroke-width="1.6585524842829127" stroke-linecap="round" d="M 82.5495 262.3804 L 81.4517 279.1829 L 70.5136 285.9243 "/>
    <path id="ID0.42170455446466804" fill="none" stroke="#242728" stroke-width="1.6585524842829127" stroke-linecap="round" d="M 80.2863 280.284 L 77.9967 295.2427 L 66.8281 302.1653 "/>
    <path id="ID0.047098892275244" fill="none" stroke="#242728" stroke-width="1.6585524842829127" stroke-linecap="round" d="M 61.1851 242.8379 L 60.4942 246.717 L 64.493 255.8078 "/>
  </g>
  <path id="ID0.3809091211296618" fill="#3E4246" stroke="none" stroke-linecap="round" d="M 34.4638 153.6396 L 57.2571 167.6882 L 59.1336 206.4365 L 57.8336 217.3049 L 51.9725 234.9694 L 43.2628 237.3135 L 30.2739 238.173 L 30.336 216.4011 L 29.0407 203.0478 L 34.4638 153.6396 Z " stroke-width="0.7305889749256138"/>
  <path id="ID0.5368814701214433" fill="#303436" stroke="none" stroke-linecap="round" d="M 19.236 322.5738 L 21.8875 313.6715 L 26.1331 304.3104 L 36.259 309.9055 L 47.7208 317.2435 L 65.4473 327.1257 L 66.6957 333.6108 L 42.0377 335.4351 L 20.704 332.3255 L 19.236 322.5738 Z " stroke-width="0.7702165374590322"/>
  <path id="ID0.05466862628236413" fill="#303436" stroke="none" stroke-linecap="round" d="M 29.0658 230.5027 L 55.7622 228.9877 L 49.2482 247.3394 L 47.237 252.2223 L 45.0554 270.2332 L 38.2984 310.4216 L 22.5197 310.9174 L 22.2855 288.6694 L 20.3246 279.8286 L 19.8266 270.3222 L 23.086 257.0492 L 24.1704 244.7758 L 29.0658 230.5027 Z " stroke-width="0.7305889662041084"/>
  <path id="ID0.4490455654449761" fill="none" stroke="#272A2B" stroke-width="1.6585524133805638" stroke-linecap="round" d="M 28.8368 231.3233 L 55.5571 229.4225 L 46.6493 253.1397 "/>
  <path id="ID0.10446935473009944" fill="none" stroke="#242728" stroke-width="1.6585524133805638" stroke-linecap="round" d="M 45.2265 265.3944 L 43.5807 282.1521 L 32.4283 288.5328 "/>
  <path id="ID0.42170455446466804" fill="none" stroke="#242728" stroke-width="1.6585524133805638" stroke-linecap="round" d="M 42.3799 283.2146 L 39.6033 298.0906 L 28.2146 304.6448 "/>
  <path id="ID0.047098892275244" fill="none" stroke="#242728" stroke-width="1.6585524133805638" stroke-linecap="round" d="M 24.5167 245.1904 L 23.6996 249.0449 L 27.3995 258.2614 "/>
  <g id="ID0.17693647183477879">
    <path id="ID0.7729651997797191" fill="#3E4246" stroke="none" stroke-linecap="round" d="M 10.6451 102.1342 L 30.8888 102.3096 L 28.098 119.4188 L 25.9532 133.2243 L 22.3766 139.1329 L 19.0912 142.7781 L 6.2732 139.9689 L 4.5394 134.1316 L 9.006 113.8695 L 10.6451 102.1342 Z " stroke-width="0.816459611641152"/>
    <path id="ID0.9716172609478235" fill="#393C40" stroke="none" stroke-linecap="round" d="M 15.1061 107.7482 L 10.0912 105.6376 L 11.6279 99.0173 L 30.1103 107.7868 L 27.2501 110.9602 L 21.8437 113.1213 L 15.1061 107.7482 Z " stroke-width="0.816459611641152"/>
    <g id="ID0.38066427363082767">
      <path id="ID0.4757494777441025" fill="#1D1E1F" stroke="none" stroke-linecap="round" d="M 18.6836 76.6747 L 27.1316 74.0906 L 43.3139 78.1376 L 36.4322 104.0028 L 26.3492 109.5325 L 21.8875 110.8368 L 18.5544 108.626 L 15.5471 105.8022 L 9.7053 103.4831 L 9.3026 98.021 L 9.5962 89.9005 L 12.3738 81.4126 L 18.6836 76.6747 Z " stroke-width="0.47614257949844735"/>
      <path id="ID0.6007084371522069" fill="none" stroke="#0D0D0D" stroke-width="0.9522851589968947" stroke-linecap="round" d="M 10.1993 103.8151 L 15.4282 105.8084 L 19.8991 109.2713 L 21.8937 110.9557 L 26.3492 109.5325 L 30.6304 107.0455 "/>
    </g>
  </g>
  <g id="ID0.7397577832452953">
    <path id="ID0.6726378230378032" fill="#393C40" stroke="none" stroke-linecap="round" d="M 5.2978 131.2272 L 22.0991 139.1334 L 21.4446 141.471 L 5.0391 133.3734 L 5.2978 131.2272 Z " stroke-width="0.8164596336691106"/>
    <path id="ID0.6507829907350242" fill="#1D1E1F" stroke="none" stroke-linecap="round" d="M 2.0614 132.6239 L 21.7118 141.476 L 22.6332 160.4407 L 21.3399 171.1715 L 22.4685 187.257 L 23.5365 193.7298 L 11.6661 196.6089 L 11.0054 190.1075 L 8.4871 180.4626 L 4.7651 168.2421 L 2.2611 158.8008 L 2.0614 132.6239 Z " stroke-width="0.8164596336691106"/>
    <path id="ID0.6829322893172503" fill="#1D1E1F" stroke="none" stroke-linecap="round" d="M 11.2303 196.2302 L 21.2575 190.4113 L 24.9011 195.6803 L 29.3877 201.2994 L 29.7877 207.0006 L 29.5054 211.7266 L 27.6835 214.9236 L 26.7297 221.7429 L 22.0323 221.8679 L 20.6677 219.9174 L 19.0245 219.8281 L 15.581 217.4097 L 11.9052 214.5984 L 9.5548 210.2617 L 9.8693 203.0781 L 11.2303 196.2302 Z " stroke-width="0.8164596336691106"/>
    <path id="ID0.47767175547778606" fill="none" stroke="#0D0D0D" stroke-width="1.6329192673382211" stroke-linecap="round" d="M 2.3385 136.574 L 2.3379 132.4817 L 21.6304 141.4817 L 22.2846 155.4725 "/>
    <path id="ID0.5922487881034613" fill="#282A2B" stroke="none" stroke-linecap="round" d="M 3.4046 166.6396 L 10.0553 160.5256 L 16.1695 160.1784 L 22.7765 165.6897 L 22.3998 180.735 L 18.2452 188.5973 L 14.7838 188.8402 L 8.1611 181.9386 L 3.4046 166.6396 Z " stroke-width="0.8164596336691106"/>
    <path id="ID0.36820242274552584" fill="#151616" stroke="none" stroke-linecap="round" d="M 9.877 168.928 L 18.3416 168.2522 L 16.4596 179.9246 L 14.9472 179.9489 L 9.877 168.928 Z " stroke-width="0.8164596336691106"/>
    <path id="ID0.13569410238415003" fill="none" stroke="#232425" stroke-width="1.6329192673382211" stroke-linecap="round" d="M 9.9681 179.9904 L 16.1722 186.7576 L 20.8704 179.0617 "/>
    <path id="ID0.024502143263816833" fill="none" stroke="#0D0D0D" stroke-width="1.6329192673382211" stroke-linecap="round" d="M 3.8949 166.3388 L 9.8355 160.602 L 15.8454 159.9348 L 22.5338 165.4403 L 22.2379 174.055 "/>
  </g>
  <g id="ID0.9157347986474633">
    <path id="ID0.7477802094072104" fill="#363A3D" stroke="none" stroke-linecap="round" d="M 88.1154 124.4715 L 68.6382 120.9715 L 67.7831 162.1489 L 84.2591 171.4206 L 87.0532 146.952 L 88.1154 124.4715 Z " stroke-width="0.47614257300029306"/>
    <path id="ID0.7477802094072104" fill="#363A3D" stroke="none" stroke-linecap="round" d="M 27.7831 123.2358 L 51.2874 120.8664 L 50.4323 162.0439 L 33.5855 170.6236 L 28.6325 145.3988 L 27.7831 123.2358 Z " stroke-width="0.47614257300029306"/>
    <path id="ID0.4270821204409003" fill="#3E4246" stroke="none" stroke-linecap="round" d="M 28.5179 103.1385 L 32.5858 90.7215 L 34.968 84.937 L 41.6594 78.0513 L 72.6913 80.1245 L 79.505 84.5522 L 82.2772 88.6578 L 89.0615 100.2286 L 88.13 110.6866 L 87.0642 116.1413 L 88.587 123.0785 L 88.9494 128.5629 L 86.6639 135.421 L 84.9366 140.6238 L 83.5537 149.8818 L 84.5985 171.8108 L 79.2868 179.9158 L 74.3736 186.0287 L 62.1457 191.204 L 50.6169 187.9404 L 46.8289 181.1467 L 42.0115 174.6174 L 33.5309 171.3457 L 32.9148 145.9728 L 31.8631 139.2835 L 27.5303 127.7637 L 26.4461 116.9066 L 28.5179 103.1385 Z " stroke-width="0.47614257300029306"/>
    <path id="ID0.052435632329434156" fill="#393C40" stroke="none" stroke-linecap="round" d="M 39.6176 153.3064 L 44.0676 153.4464 L 50.5926 156.868 L 55.6659 156.8067 L 61.5079 158.7139 L 65.7193 157.7298 L 67.3953 157.2884 L 81.6758 154.1797 L 81.9646 157.4718 L 73.3094 161.4592 L 67.3653 161.0263 L 61.7086 163.9568 L 55.1172 160.2957 L 48.6817 160.5907 L 38.883 156.5772 L 39.6176 153.3064 Z " stroke-width="0.47614257300029306"/>
    <path id="ID0.4987568911164999" fill="none" stroke="#27282B" stroke-width="0.9522851460005861" stroke-linecap="round" d="M 41.4282 78.7223 L 34.8732 84.7774 L 31.3333 94.705 "/>
    <path id="ID0.2889464790932834" fill="none" stroke="#27282B" stroke-width="0.9522851460005861" stroke-linecap="round" d="M 74.0073 80.8276 L 79.6407 84.7545 L 85.1604 94.1559 "/>
    <path id="ID0.8373676878400147" fill="#000000" stroke="#2C2F31" stroke-width="0.6155104186945868" stroke-linecap="round" d="M 44.7718 91.8289 L 45.1477 90.3053 L 41.4906 91.1437 L 36.5712 94.3904 L 32.345 99.3623 L 29.7859 104.9474 L 34.9649 102.7905 L 39.6638 102.7687 L 42.3933 103.7374 L 44.8766 106.7745 L 46.9998 105.7908 L 51.0137 105.5844 L 55.5076 106.7087 L 59.2907 109.9577 L 61.3094 113.0511 L 63.5215 110.069 L 67.2778 107.0016 L 71.42 105.6457 L 76.5766 105.7213 L 78.3974 106.3414 L 80.1518 103.2619 L 82.1315 102.0408 L 84.7243 102.6183 L 87.4998 104.2822 L 86.1302 100.4475 L 83.9186 96.4983 L 81.1278 93.4475 L 77.9954 91.1516 L 73.4947 90.1811 L 75.6416 92.125 L 75.5629 93.8928 L 73.9298 95.9766 L 70.336 97.1258 L 67.1675 97.3698 L 64.5473 97.4072 L 62.0914 93.7552 L 61.6147 95.8134 L 60.1543 95.7484 L 58.6463 93.2938 L 57.6126 97.4836 L 53.5286 97.5328 L 49.4156 96.5025 L 46.0919 95.0453 L 44.7718 91.8289 Z "/>
    <path id="ID0.5698574706912041" fill="none" stroke="#313537" stroke-width="0.9522851460005861" stroke-linecap="round" d="M 39.5497 153.1383 L 38.8879 156.3392 L 48.6792 160.7097 L 55.4702 160.4935 L 61.473 163.8328 "/>
    <path id="ID0.5698574706912041" fill="none" stroke="#313537" stroke-width="0.8933066257048137" stroke-linecap="round" d="M 81.4201 154.2278 L 81.8721 157.4518 L 73.1747 161.4384 L 67.2685 160.9586 L 61.9108 164.0619 "/>
    <path id="ID0.8947288258932531" fill="#393C40" stroke="none" stroke-linecap="round" d="M 41.1069 141.2169 L 48.131 141.2437 L 55.6367 143.3045 L 61.1869 148.9442 L 54.1848 144.4173 L 43.4575 142.6944 L 38.2773 145.611 L 41.1069 141.2169 Z " stroke-width="0.47614257300029306"/>
    <path id="ID0.8947288258932531" fill="#393C40" stroke="none" stroke-linecap="round" d="M 79.8687 143.0222 L 73.657 142.7878 L 66.9447 144.3343 L 61.8299 149.1171 L 68.1875 145.3716 L 77.7361 144.2423 L 82.2093 147.0115 L 79.8687 143.0222 Z " stroke-width="0.4213738884176943"/>
    <path id="ID0.9897695370018482" fill="#393C40" stroke="none" stroke-linecap="round" d="M 44.3037 153.5466 L 37.768 152.9346 L 38.2928 148.3021 L 39.4103 151.8257 L 44.5009 152.0743 L 50.5692 155.7007 L 56.0511 155.4574 L 60.1153 156.9705 L 61.659 149.1445 L 61.6933 158.9559 L 56.1414 156.8403 L 50.2623 156.7183 L 44.3037 153.5466 Z " stroke-width="0.47614257300029306"/>
    <path id="ID0.9897695370018482" fill="#393C40" stroke="none" stroke-linecap="round" d="M 76.6103 154.4693 L 82.155 154.1415 L 81.8823 149.8173 L 80.8083 153.0505 L 76.4979 153.0939 L 71.237 156.2401 L 66.6142 155.8119 L 63.1244 157.0682 L 62.1086 149.7389 L 61.7179 158.855 L 66.4868 157.0937 L 71.4588 157.197 L 76.6103 154.4693 Z " stroke-width="0.4232251205631144"/>
    <path id="ID0.3524594851769507" fill="#393C40" stroke="none" stroke-linecap="round" d="M 55.4472 119.0607 L 61.3046 121.3731 L 65.804 119.1329 L 62.5593 122.8755 L 63.28 134.0346 L 72.3664 133.366 L 61.867 136.7199 L 50.3014 131.7887 L 59.9468 134.013 L 59.7764 122.7225 L 55.4472 119.0607 Z " stroke-width="0.47614257300029306"/>
    <path id="ID0.9214867809787393" fill="#393C40" stroke="none" stroke-linecap="round" d="M 41.1875 137.3371 L 44.2502 133.186 L 49.0304 132.3327 L 43.1001 136.972 L 42.8012 139.8947 L 47.8463 140.0471 L 55.9436 143.4299 L 47.0098 141.3394 L 41.1545 141.2178 L 41.1875 137.3371 Z " stroke-width="0.47614257300029306"/>
    <path id="ID0.9214867809787393" fill="#393C40" stroke="none" stroke-linecap="round" d="M 79.622 138.9159 L 76.9825 134.8388 L 72.6446 133.8397 L 77.8873 138.4935 L 78.0471 141.292 L 73.428 141.2415 L 66.7251 143.9429 L 74.1427 142.5062 L 79.5015 142.6175 L 79.622 138.9159 Z " stroke-width="0.4451788453890468"/>
    <path id="ID0.8679121839813888" fill="#2C2F31" stroke="none" stroke-linecap="round" d="M 57.4241 118.0054 L 61.1988 119.703 L 64.5652 118.1299 L 65.4975 119.1017 L 61.5148 121.686 L 55.8012 119.329 L 57.4241 118.0054 Z " stroke-width="0.47614257300029306"/>
    <path id="ID0.24770551454275846" fill="none" stroke="#313537" stroke-width="0.9522851460005861" stroke-linecap="round" d="M 61.4959 116.1296 L 66.0631 119.7963 L 73.5509 120.4281 L 81.1898 119.5151 L 86.5053 115.8156 "/>
    <path id="ID0.20603158557787538" fill="none" stroke="#313537" stroke-width="0.9522851460005861" stroke-linecap="round" d="M 28.2476 111.4286 L 35.158 116.9298 L 47.4683 120.4001 L 54.7403 119.9558 L 61.0103 116.157 "/>
    <g id="ID0.5272086253389716">
      <path id="ID0.24770551454275846" fill="none" stroke="#363A3D" stroke-width="0.9522850864087884" stroke-linecap="round" d="M 30.9879 144.0256 L 40.9553 141.0655 "/>
      <path id="ID0.24770551454275846" fill="none" stroke="#363A3D" stroke-width="0.9522850864087884" stroke-linecap="round" d="M 28.6542 132.0538 L 49.2053 126.2655 "/>
    </g>
    <g id="ID0.5272086253389716">
      <path id="ID0.24770551454275846" fill="none" stroke="#363A3D" stroke-width="0.9522850864087884" stroke-linecap="round" d="M 86.4797 144.2318 L 79.5807 142.2557 "/>
      <path id="ID0.24770551454275846" fill="none" stroke="#363A3D" stroke-width="0.9522850864087884" stroke-linecap="round" d="M 87.2029 132.8424 L 73.4298 127.7945 "/>
    </g>
    <g id="ID0.7887678607366979">
      <path id="ID0.753661650698632" fill="none" stroke="#313537" stroke-width="0.9522850864087884" stroke-linecap="round" d="M 55.9207 119.1896 L 61.1078 121.6786 L 65.2085 119.1444 "/>
      <g id="ID0.8167418288066983">
        <path id="ID0.9553722990676761" fill="none" stroke="#313537" stroke-width="1.0409107743576298" stroke-linecap="round" d="M 61.4063 136.5479 L 55.8392 134.2892 L 49.706 132.2569 L 44.9163 133.1099 L 41.3201 137.3214 L 41.2484 140.7727 "/>
        <path id="ID0.5982440118677914" fill="none" stroke="#313537" stroke-width="0.8540413396238158" stroke-linecap="round" d="M 50.0334 131.8556 L 48.9532 126.5387 L 54.3362 119.5913 "/>
      </g>
      <g id="ID0.7324484633281827">
        <path id="ID0.04993448918685317" fill="none" stroke="#313537" stroke-width="0.9522850864087884" stroke-linecap="round" d="M 61.1102 121.5595 L 61.6068 132.0472 L 61.7418 148.4805 L 61.6413 164.7898 "/>
        <g id="ID0.8167418288066983">
          <path id="ID0.9553722990676761" fill="none" stroke="#313537" stroke-width="0.9699703077304642" stroke-linecap="round" d="M 61.7502 136.4275 L 66.8128 135.1754 L 72.2815 133.384 L 76.457 134.4232 L 79.4528 138.7716 L 79.3811 142.2229 "/>
          <path id="ID0.5982440118677914" fill="none" stroke="#313537" stroke-width="0.7916616152166959" stroke-linecap="round" d="M 72.0361 133.0336 L 73.1927 127.7632 L 68.7336 120.6113 "/>
          <path id="ID0.3567589442245662" fill="none" stroke="#313537" stroke-width="0.8967655150693851" stroke-linecap="round" d="M 61.6263 149.1264 L 66.8586 144.2583 L 74.2253 142.5063 L 79.7521 142.6211 L 81.8958 147.309 L 82.0431 154.3367 L 76.4805 154.9355 L 70.7638 157.9124 L 65.8491 157.5722 L 61.6031 159.3176 L 55.8142 156.6971 L 50.2197 156.819 L 43.8569 153.5913 L 37.5704 152.7464 L 38.0511 145.7318 L 40.7016 141.1434 L 46.982 141.2738 L 55.2746 143.351 L 60.9911 148.4465 Z "/>
        </g>
      </g>
    </g>
    <g id="ID0.9312638868577778">
      <path id="ID0.2888958193361759" fill="#393C40" stroke="none" stroke-linecap="round" d="M 41.9592 161.4331 L 52.1308 163.729 L 51.4755 166.6319 L 41.3039 164.3359 L 41.9592 161.4331 Z " stroke-width="0.4761425459216224"/>
      <path id="ID0.2888958193361759" fill="#393C40" stroke="none" stroke-linecap="round" d="M 31.2081 159.1286 L 42.6308 161.829 L 41.9755 164.7319 L 31.8039 162.4359 L 31.2081 159.1286 Z " stroke-width="0.4761425459216224"/>
      <g id="ID0.36424446757882833">
        <path id="ID0.7359844641759992" fill="#8A7B59" stroke="none" d="M 44.8379 160.7806 L 46.3612 160.8122 L 46.2318 167.0484 L 44.7084 167.0167 L 44.8379 160.7806 Z " stroke-width="0.4761425432043942"/>
        <path id="ID0.7359844641759992" fill="#8A7B59" stroke="none" d="M 42.9879 160.3306 L 44.5112 160.3622 L 44.3818 166.5984 L 42.8584 166.5667 L 42.9879 160.3306 Z " stroke-width="0.4761425432043942"/>
        <path id="ID0.7359844641759992" fill="#8A7B59" stroke="none" d="M 41.0379 159.6306 L 42.5612 159.6622 L 42.4318 165.8984 L 40.9084 165.8667 L 41.0379 159.6306 Z " stroke-width="0.4761425432043942"/>
        <path id="ID0.7359844641759992" fill="#8A7B59" stroke="none" d="M 46.7379 161.3306 L 48.2612 161.3622 L 48.1318 167.5984 L 46.6084 167.5667 L 46.7379 161.3306 Z " stroke-width="0.4761425432043942"/>
      </g>
      <g id="ID0.1049797898158431">
        <path id="ID0.08871637750416994" fill="#8A7B59" stroke="none" stroke-linecap="round" d="M 32.9895 158.5074 L 39.3705 159.6877 L 39.2067 165.2801 L 33.0643 164.081 L 32.9895 158.5074 Z " stroke-width="0.4761425432043942"/>
        <path id="ID0.13805592898279428" fill="#76694C" stroke="none" stroke-linecap="round" d="M 32.7978 158.2378 L 39.4882 159.4245 L 39.5236 162.3065 L 32.8114 161.0241 L 32.7978 158.2378 Z " stroke-width="0.4761425432043942"/>
        <path id="ID0.3221200187690556" fill="#61563F" stroke="none" stroke-linecap="round" d="M 35.55 160.489 L 36.4208 160.8689 L 36.4618 162.6272 L 35.5129 162.2716 L 35.55 160.489 Z " stroke-width="0.5167888865886084"/>
        <path id="ID0.1420820001512766" fill="#BAA578" stroke="none" stroke-linecap="round" d="M 38.5518 164.3318 L 39.2956 162.9185 L 39.2952 165.2283 L 33.056 164.0986 L 38.5518 164.3318 Z " stroke-width="0.4761425432043942"/>
      </g>
      <path id="ID0.2888958193361759" fill="#393C40" stroke="none" stroke-linecap="round" d="M 79.5902 162.6025 L 72.1307 164.2611 L 72.5102 166.806 L 79.9697 165.1474 L 79.5902 162.6025 Z " stroke-width="0.3810469777360591"/>
      <path id="ID0.2888958193361759" fill="#393C40" stroke="none" stroke-linecap="round" d="M 86.1651 160.9157 L 79.1307 162.7111 L 79.5102 165.256 L 85.6833 163.8204 L 86.1651 160.9157 Z " stroke-width="0.3810469777360591"/>
      <path id="ID0.7359844641759992" fill="#8A7B59" stroke="none" d="M 77.5701 161.5255 L 76.4633 161.5025 L 76.3506 166.9273 L 77.4574 166.9503 L 77.5701 161.5255 Z " stroke-width="0.3816027988624045"/>
      <path id="ID0.7359844641759992" fill="#8A7B59" stroke="none" d="M 78.9701 161.0755 L 77.8633 161.0525 L 77.7506 166.4773 L 78.8574 166.5003 L 78.9701 161.0755 Z " stroke-width="0.3816027988624045"/>
      <path id="ID0.7359844641759992" fill="#8A7B59" stroke="none" d="M 80.4701 160.6255 L 79.3633 160.6025 L 79.2506 166.0273 L 80.3574 166.0503 L 80.4701 160.6255 Z " stroke-width="0.3816027988624045"/>
      <path id="ID0.7359844641759992" fill="#8A7B59" stroke="none" d="M 76.1201 162.0755 L 75.0133 162.0525 L 74.9006 167.4773 L 76.0074 167.5003 L 76.1201 162.0755 Z " stroke-width="0.3816027988624045"/>
      <g id="ID0.1049797898158431">
        <path id="ID0.08871637750416994" fill="#8A7B59" stroke="none" stroke-linecap="round" d="M 86.4077 159.8854 L 81.4448 160.7507 L 81.3742 165.9213 L 86.1538 165.0302 L 86.4077 159.8854 Z " stroke-width="0.40545296430512573"/>
        <path id="ID0.13805592898279428" fill="#76694C" stroke="none" stroke-linecap="round" d="M 86.6523 159.6886 L 81.4505 160.549 L 81.3217 163.2094 L 86.5437 162.2614 L 86.6523 159.6886 Z " stroke-width="0.40545296430512573"/>
        <path id="ID0.3221200187690556" fill="#61563F" stroke="none" stroke-linecap="round" d="M 84.5299 161.6428 L 83.8449 161.963 L 83.7513 163.5854 L 84.4957 163.2903 L 84.5299 161.6428 Z " stroke-width="0.4400648059527854"/>
        <path id="ID0.1420820001512766" fill="#BAA578" stroke="none" stroke-linecap="round" d="M 81.9982 165.1103 L 81.4743 163.7788 L 81.3933 165.912 L 86.245 165.0884 L 81.9982 165.1103 Z " stroke-width="0.40545296430512573"/>
      </g>
      <g id="ID0.6836685389280319">
        <path id="ID0.09357938077300787" fill="#857656" stroke="none" d="M 52.7247 160.9089 L 70.6952 161.2821 L 70.5618 167.7086 L 52.5913 167.3354 L 52.7247 160.9089 Z " stroke-width="0.42833206411122815"/>
        <path id="ID0.6492703901603818" fill="#7C6E50" stroke="none" stroke-linecap="round" d="M 53.3684 163.093 L 61.5158 166.3578 L 70.4106 163.4469 L 70.3221 167.7075 L 53.2799 167.3536 L 53.3684 163.093 Z " stroke-width="0.4761425432043942"/>
        <g id="ID0.9254062357358634">
          <g id="ID0.49943465692922473">
            <path id="ID0.140373723115772" fill="#968561" stroke="none" d="M 69.1906 160.0517 L 74.308 160.1579 L 74.1202 169.2027 L 69.0028 169.0964 L 69.1906 160.0517 Z " stroke-width="0.4761425432043942"/>
            <path id="ID0.8286363878287375" fill="#BAA578" stroke="none" stroke-linecap="round" d="M 69.1728 159.8742 L 74.4043 160.221 L 70.2469 160.8966 L 69.1789 163.0176 L 69.1728 159.8742 Z " stroke-width="0.4761425432043942"/>
            <path id="ID0.7362233307212591" fill="#8A7B59" stroke="none" stroke-linecap="round" d="M 69.07 165.968 L 71.7825 166.072 L 74.2845 163.6951 L 74.1683 169.2885 L 69.0033 169.1813 L 69.07 165.968 Z " stroke-width="0.4761425432043942"/>
          </g>
          <g id="ID0.49943465692922473">
            <path id="ID0.140373723115772" fill="#968561" stroke="none" d="M 54.1483 159.9906 L 49.0309 159.8843 L 48.8431 168.9291 L 53.9605 169.0354 L 54.1483 159.9906 Z " stroke-width="0.4761425432043942"/>
            <path id="ID0.8286363878287375" fill="#BAA578" stroke="none" stroke-linecap="round" d="M 54.2093 159.8013 L 48.9679 159.9306 L 53.0936 160.7782 L 54.0726 162.9417 L 54.2093 159.8013 Z " stroke-width="0.4761425432043942"/>
            <path id="ID0.7362233307212591" fill="#8A7B59" stroke="none" stroke-linecap="round" d="M 54.0589 165.8941 L 51.3445 165.8854 L 48.9433 163.4066 L 48.8272 169.0001 L 53.9922 169.1074 L 54.0589 165.8941 Z " stroke-width="0.4761425432043942"/>
          </g>
        </g>
      </g>
    </g>
  </g>
  <g id="ID0.8333355090580881">
    <path id="ID0.9286923445761204" fill="#27282B" stroke="none" stroke-linecap="round" d="M 47.863 44.1601 L 66.6707 45.6361 L 67.1468 69.9908 L 82.3834 77.1329 L 59.5285 88.4889 L 22.8656 75.9426 L 42.7445 65.3484 L 47.863 44.1601 Z " stroke-width="0.4761425852775574"/>
    <path id="ID0.5448851804248989" fill="none" stroke="#1D1E1F" stroke-width="0.9522851705551147" stroke-linecap="round" d="M 44.1729 59.5871 L 42.935 65.158 L 60.0285 73.0143 L 66.8611 70.086 "/>
    <path id="ID0.262191956397146" fill="none" stroke="#1D1E1F" stroke-width="0.9522851705551147" stroke-linecap="round" d="M 46.9346 64.539 L 59.6476 70.7288 L 62.6473 69.6099 "/>
  </g>
  <g id="ID0.3450673264451325">
    <g id="ID0.9831569031812251">
      <path id="ID0.0877610077150166" fill="#2E3034" stroke="none" stroke-linecap="round" d="M 70.7251 13.3343 L 66.1527 0.2177 L 66.1527 28.7463 L 73.8241 28.7463 L 70.7251 13.3343 Z " stroke-width="0.5866066539949776"/>
      <path id="ID0.796130308881402" fill="#242628" stroke="none" stroke-linecap="round" d="M 71.033 13.3789 L 66.105 0.2623 L 69.6613 14.1004 L 70.6012 28.9877 L 73.7764 28.6926 L 71.033 13.3789 Z " stroke-width="0.5866066539949776"/>
    </g>
    <g id="ID0.9831569031812251">
      <path id="ID0.0877610077150166" fill="#2E3034" stroke="none" stroke-linecap="round" d="M 46.8249 13.4843 L 51.3973 0.3677 L 51.3973 28.8963 L 43.7259 28.8963 L 46.8249 13.4843 Z " stroke-width="0.5866066539949776"/>
      <path id="ID0.796130308881402" fill="#242628" stroke="none" stroke-linecap="round" d="M 46.417 13.5289 L 51.345 0.4123 L 47.7887 14.2504 L 46.6964 28.8098 L 43.6736 28.8426 L 46.417 13.5289 Z " stroke-width="0.5866066539949776"/>
    </g>
    <path id="ID0.8999492498114705" fill="#2E3034" stroke="none" stroke-linecap="round" d="M 64.3733 19.3124 C 68.7775 19.7915 73.5093 22.5019 75.6416 26.3848 C 78.0745 30.8179 76.1267 36.4165 76.4265 41.412 C 76.5997 43.1155 77.3923 44.8682 77.0615 46.4924 C 76.3879 49.7962 74.7139 52.8251 73.6323 56.0181 C 72.9236 58.1107 72.7691 60.4655 71.6001 62.3686 C 70.2843 64.6212 68.9416 67.7553 66.3419 68.211 C 62.488 68.8862 58.4115 67.0451 54.9619 65.2898 C 52.1281 63.8475 49.4746 61.6355 47.9002 58.8631 C 45.0806 53.7182 42.5196 48.0582 42.134 42.1741 C 41.7067 35.6514 40.9365 27.5853 45.6902 22.8687 C 49.9425 18.3273 57.8262 18.6032 64.3733 19.3124 Z " stroke-width="0.508037269115448"/>
    <path id="ID0.2441388238221407" fill="#AB8E85" stroke="none" d="M 62.0438 44.1745 C 66.1241 44.3416 71.5631 41.1768 74.2883 43.9234 C 76.7434 46.5142 73.3753 51.3755 72.4045 54.8492 C 71.4375 58.304 70.7493 62.0426 68.5114 64.8959 C 67.4439 66.1643 65.2186 66.2359 63.488 65.9634 C 60.3761 65.4698 57.3143 64.1864 54.7198 62.3955 C 52.0348 60.5432 48.487 58.5137 47.9156 55.2887 C 47.1923 51.2035 47.8566 45.8084 51.0552 43.2327 C 53.9889 40.9834 58.3743 44.0238 62.0438 44.1745 Z " stroke-width="1.2558400630950928"/>
    <path id="ID0.46721756737679243" fill="#A2887F" stroke="none" stroke-linecap="round" d="M 47.4363 45.2953 L 49.1129 45.9812 L 75.1244 45.6001 L 67.9102 50.6805 L 51.1704 48.2165 L 52.2881 50.6043 L 52.5421 56.2181 L 56.1746 63.4068 L 51.6023 56.7261 L 47.4363 45.2953 Z " stroke-width="0.508037269115448"/>
    <path id="ID0.8256730306893587" fill="none" stroke="#937B73" stroke-width="1.016074538230896" stroke-linecap="round" d="M 58.3886 57.0778 C 58.3886 57.0778 61.0878 56.4813 62.4529 56.2903 C 62.7943 56.2425 63.1326 56.3203 63.4689 56.3665 C 63.8109 56.4138 64.1401 56.5814 64.485 56.5697 C 65.1688 56.5469 65.8379 56.3497 66.5172 56.2649 C 66.854 56.2227 67.1939 56.1846 67.5332 56.1887 C 67.8731 56.1928 68.2181 56.2131 68.5493 56.2903 C 69.0939 56.4173 70.1496 56.7983 70.1496 56.7983 "/>
    <path id="ID0.7592270169407129" fill="none" stroke="#937B73" stroke-width="1.016074538230896" stroke-linecap="round" d="M 66.9693 58.4019 C 66.9693 58.4019 66.3475 58.7468 66.004 58.8083 C 65.6708 58.8682 65.3248 58.7235 64.988 58.7575 C 64.6491 58.792 64.3351 58.9688 63.9973 59.0115 C 63.6615 59.0542 63.3109 59.0867 62.9812 59.0115 C 62.7008 58.9475 62.2192 58.6051 62.2192 58.6051 "/>
    <path id="ID0.5332203092984855" fill="none" stroke="#937B73" stroke-width="1.016074538230896" stroke-linecap="round" d="M 61.0009 48.9532 C 61.0009 48.9532 60.3954 49.385 60.2897 49.7152 C 60.1525 50.1577 59.898 51.0026 60.3405 51.3156 C 60.9212 51.6056 61.6797 50.8786 62.3726 50.9345 C 63.0433 50.9914 64.354 51.4426 64.354 51.4426 "/>
    <path id="ID0.2278452254831791" fill="none" stroke="#937B73" stroke-width="1.016074538230896" stroke-linecap="round" d="M 65.3447 45.2953 C 65.3447 45.2953 66.2789 47.1578 66.7418 48.0895 C 66.8967 48.4015 67.0674 48.7073 67.199 49.0294 C 67.3306 49.3515 67.5429 49.6726 67.5292 50.0201 C 67.5155 50.3686 67.3092 50.6907 67.1228 50.9853 C 66.9983 51.1824 66.6148 51.468 66.6148 51.468 "/>
    <path id="ID0.6473136460408568" fill="none" stroke="#937B73" stroke-width="1.016074563998663" stroke-linecap="round" d="M 65.6945 62.2247 C 65.6945 62.2247 66.0113 62.8595 66.0622 63.2041 C 66.1113 63.5396 66.0513 63.8871 65.9877 64.2203 C 65.8923 64.7223 65.5871 65.7015 65.5871 65.7015 "/>
    <path id="ID0.11669129692018032" fill="#2E3034" stroke="none" stroke-linecap="round" d="M 49.3669 39.9609 L 72.6096 41.739 L 76.5469 44.4062 L 67.1482 49.1056 L 46.4457 46.5654 L 49.3669 39.9609 Z " stroke-width="0.508037269115448"/>
    <path id="ID0.14635155349969864" fill="#2E3034" stroke="none" stroke-linecap="round" d="M 46.6997 45.2191 L 48.554 45.6001 L 51.1958 50.8075 L 51.5006 56.5737 L 53.3296 60.384 L 56.2254 63.9149 L 47.9952 58.7075 L 46.6997 45.2191 Z " stroke-width="0.508037269115448"/>
    <path id="ID0.28340246016159654" fill="#1C1D1F" stroke="none" stroke-linecap="round" d="M 49.5308 36.8008 L 52.9604 38.3401 L 62.6283 39.2313 L 62.6283 44.9834 L 55.688 44.0382 L 51.8262 42.958 L 49.8008 41.4457 L 48.9367 39.7174 L 49.5308 36.8008 Z " stroke-width="0.5401026606559753"/>
    <path id="ID0.6101007834076881" fill="#FFFFFF" stroke="none" stroke-linecap="round" d="M 53.3473 39.3334 L 55.0001 39.7332 L 58.78 40.9344 L 59.3247 42.9027 L 54.07 41.4498 L 53.3473 39.3334 Z " stroke-width="0.4061061920009203"/>
    <path id="ID0.28340246016159654" fill="#1C1D1F" stroke="none" stroke-linecap="round" d="M 75.1357 36.8586 L 72.0774 38.2313 L 63.4563 39.0259 L 63.4563 44.1553 L 69.6452 43.3124 L 73.0888 42.3492 L 74.8949 41.0006 L 75.6655 39.4594 L 75.1357 36.8586 Z " stroke-width="0.4816249907016754"/>
    <path id="ID0.6101007834076881" fill="#FFFFFF" stroke="none" stroke-linecap="round" d="M 73.4526 38.9089 L 71.9112 39.4003 L 68.4053 40.7963 L 68.0217 42.7012 L 72.9101 40.9663 L 73.4526 38.9089 Z " stroke-width="0.3863867372519633"/>
    <g id="ID0.07940126257017255">
      <path id="ID0.46257128613069654" fill="#27282B" stroke="none" stroke-linecap="round" d="M 62.8045 39.0743 L 67.1482 49.0318 L 57.1145 47.7617 L 62.8045 39.0743 Z " stroke-width="0.508037269115448"/>
      <path id="ID0.9845890481956303" fill="#27282B" stroke="none" stroke-linecap="round" d="M 63.6173 39.1989 L 71.8983 46.5654 L 67.2244 49.1056 L 63.6173 39.1989 Z " stroke-width="0.508037269115448"/>
    </g>
    <path id="ID0.20071752788498998" fill="#202324" stroke="none" d="M 54.3686 34.5018 L 58.5091 37.0673 L 63.2593 38.2358 L 63.3355 39.6329 L 55.5625 38.3628 L 49.6693 36.0259 L 51.3966 34.2477 L 54.3686 34.5018 Z " stroke-width="0.508037269115448"/>
    <path id="ID0.20071752788498998" fill="#202324" stroke="none" d="M 71.4242 34.2614 L 68.3713 36.7084 L 63.1277 38.2698 L 63.0578 39.5516 L 70.1891 38.3864 L 75.6191 36.3588 L 74.081 34.1216 L 71.4242 34.2614 Z " stroke-width="0.46609798073768616"/>
    <path id="ID0.521138689480722" fill="none" stroke="#212325" stroke-width="0.9060627222061157" stroke-linecap="round" d="M 75.2139 36.5742 L 71.9747 38.1598 L 63.4351 39.4057 "/>
    <path id="ID0.17828734638169408" fill="none" stroke="#202324" stroke-width="1.016074538230896" stroke-linecap="round" d="M 67.0466 48.5467 L 64.1254 41.3072 C 63.1245 38.8879 63.2729 39.4564 63.0839 38.4876 C 63.0179 38.1493 63.2358 37.8129 63.2871 37.4715 C 63.3374 37.1352 63.4014 36.7953 63.3887 36.4555 C 63.376 36.112 63.2769 35.7762 63.2109 35.4394 C 63.1078 34.9136 62.8807 33.8645 62.8807 33.8645 "/>
    <path id="ID0.521138689480722" fill="none" stroke="#212325" stroke-width="1.016074538230896" stroke-linecap="round" d="M 49.8068 36.3055 L 53.4392 38.0836 L 63.0157 39.4807 "/>
    <path id="ID0.8012696979567409" fill="none" stroke="url(#grad_1)" stroke-width="1.016074538230896" stroke-linecap="round" d="M 75.1244 45.1429 L 67.6562 49.0548 L 49.0621 46.7178 L 51.0434 50.5789 L 51.3482 56.6753 L 53.2788 60.2824 L 56.1746 63.9149 "/>
    <path id="ID0.043594349175691605" fill="#D7E2FD" stroke="none" stroke-linecap="round" d="M 58.5289 41.9677 L 58.7575 40.85 L 59.2656 42.9075 L 56.6746 42.1709 L 58.5289 41.9677 Z " stroke-width="0.508037269115448"/>
    <path id="ID0.043594349175691605" fill="#D7E2FD" stroke="none" stroke-linecap="round" d="M 68.7225 41.8348 L 68.4574 40.8321 L 68.1024 42.7258 L 70.4161 41.9236 L 68.7225 41.8348 Z " stroke-width="0.4618642652203811"/>
  </g>
</svg>