<svg xmlns="http://www.w3.org/2000/svg" xmlns:xlink="http://www.w3.org/1999/xlink" version="1.1" width="316.80337525069655" height="116.17219544112623" viewBox="-0.40396619170874515 2.7834000554683787 316.80337525069655 116.17219544112623">
  <!-- Exported by Scratch - http://scratch.mit.edu/ -->
  <g id="ID0.7534507988020778">
    <g id="ID0.7085462282411754">
      <g id="ID0.5880346246995032">
        <path id="ID0.6829322893172503" fill="#1D1E1F" stroke="none" stroke-linecap="round" d="M 174.3591 113.9213 L 170.3278 103.0514 L 176.1391 100.3557 L 182.4386 96.8887 L 188.1249 97.4629 L 192.7343 98.5437 L 195.5755 100.8821 L 202.1336 102.9803 L 201.459 107.6307 L 199.3051 108.6442 L 198.938 110.2483 L 195.9699 113.2311 L 192.575 116.3759 L 187.9022 117.9556 L 180.8763 116.4256 L 174.3591 113.9213 Z " stroke-width="0.8164595853887772"/>
        <g id="ID0.9434720128774643">
          <path id="ID0.6507829907350242" fill="#282828" stroke="none" stroke-linecap="round" d="M 109.2631 112.9972 L 121.3242 95.1357 L 138.0447 98.178 L 150.5251 100.5459 L 166.5686 102.1657 L 173.7477 100.5518 L 174.7449 115.4645 L 167.4306 113.9465 L 157.4982 114.79 L 144.8231 116.3824 L 131.5001 115.8578 L 109.2631 112.9972 Z " stroke-width="0.8164595853887772"/>
          <path id="ID0.9892375003546476" fill="none" stroke="#191919" stroke-width="1.9999999612566477" stroke-linecap="round" d="M 173.9287 114.9037 L 172.5487 101.1958 L 163.8406 102.8293 "/>
        </g>
      </g>
      <path id="ID0.7729651997797191" fill="#282828" stroke="none" stroke-linecap="round" d="M 78.4955 110.1801 L 76.7196 86.4711 L 97.0162 88.0628 L 107.7944 91.5309 L 117.0293 92.548 L 125.6399 94.666 L 123.2025 111.594 L 116.5406 114.1943 L 92.3901 110.9498 L 78.4955 110.1801 Z " stroke-width="0.9588636878142434"/>
      <path id="ID0.4757494777441025" fill="#282828" stroke="none" stroke-linecap="round" d="M 62.6294 99.3346 L 60.5548 90.5029 L 65.5615 74.1345 L 90.9693 82.7786 L 95.8866 93.4688 L 96.922 98.1295 L 94.5159 101.4169 L 91.5174 104.3323 L 88.8535 110.1889 L 83.377 110.2692 L 75.2885 109.4722 L 66.9817 106.1023 L 62.6294 99.3346 Z " stroke-width="0.48299249371882896"/>
    </g>
    <g id="ID0.7085462282411754">
      <g id="ID0.5880346246995032">
        <path id="ID0.6829322893172503" fill="#1D1E1F" stroke="none" stroke-linecap="round" d="M 174.4283 7.6086 L 170.23 18.415 L 175.999 21.2 L 182.2443 24.7637 L 187.9388 24.2772 L 192.5643 23.2675 L 195.4412 20.9732 L 202.0309 18.9763 L 201.428 14.3161 L 199.29 13.2695 L 198.9477 11.6599 L 196.0258 8.6318 L 192.6799 5.435 L 188.0319 3.7834 L 180.9833 5.205 L 174.4283 7.6086 Z " stroke-width="0.8164595853887773"/>
        <g id="ID0.9434720128774643">
          <path id="ID0.6507829907350242" fill="#282828" stroke="none" stroke-linecap="round" d="M 109.3262 7.4795 L 121.1105 25.5246 L 137.8759 22.7405 L 150.3913 20.5651 L 166.4579 19.1927 L 173.6114 20.9171 L 174.8382 6.0215 L 167.5014 7.4267 L 157.5831 6.4302 L 144.9341 4.6427 L 131.6046 4.9618 L 109.3262 7.4795 Z " stroke-width="0.8164595853887773"/>
          <path id="ID0.9892375003546476" fill="none" stroke="#191919" stroke-width="1.999999961256648" stroke-linecap="round" d="M 174.0134 6.5696 L 172.4224 20.2547 L 163.7405 18.4872 "/>
        </g>
      </g>
      <path id="ID0.7729651997797191" fill="#282828" stroke="none" stroke-linecap="round" d="M 78.5188 9.8221 L 76.3778 33.5009 L 96.6965 32.2221 L 107.5268 28.9205 L 116.7763 28.046 L 125.4185 26.0608 L 123.2423 9.0973 L 116.6212 6.3946 L 92.4236 9.2666 L 78.5188 9.8221 Z " stroke-width="0.9588636878142434"/>
      <path id="ID0.4757494777441025" fill="#282828" stroke="none" stroke-linecap="round" d="M 62.4867 20.5218 L 60.2762 29.3205 L 65.0301 45.7641 L 90.5681 37.5125 L 95.6495 26.8994 L 96.7566 22.2552 L 94.4015 18.9311 L 91.4483 15.9698 L 88.8749 10.0729 L 83.4003 9.9082 L 75.3005 10.5805 L 66.9428 13.8219 L 62.4867 20.5218 Z " stroke-width="0.48299249371882896"/>
    </g>
    <g id="ID0.6660797297954559">
      <path id="ID0.5368814701214433" fill="#343434" stroke="none" stroke-linecap="round" d="M 300.3143 54.9072 L 291.5068 51.9559 L 282.2948 47.3959 L 288.2294 37.4652 L 295.9512 26.2583 L 306.4277 8.8764 L 312.9514 7.8482 L 313.94 32.5539 L 310.1101 53.7701 L 300.3143 54.9072 Z " stroke-width="0.7702165315801823"/>
      <g id="ID0.5077062323689461">
        <path id="ID0.05466862628236413" fill="#252525" stroke="none" stroke-linecap="round" d="M 228.1234 53.2522 L 224.9103 31.534 L 239.5798 33.3831 L 244.5871 34.1639 L 259.0711 34.282 L 292.3406 32.0376 L 294.947 53.3022 L 276.1887 54.4951 L 269.1045 56.7523 L 261.3678 57.8625 L 250.2731 56.1788 L 240.1568 56.1996 L 228.1234 53.2522 Z " stroke-width="0.5998532755726047"/>
        <path id="ID0.5319394422695041" fill="none" stroke="#131313" stroke-width="2.000000006555918" stroke-linecap="round" d="M 291.4629 31.9912 L 295.2991 53.2713 L 283.7917 54.1827 "/>
      </g>
      <g id="ID0.8820344842970371">
        <path id="ID0.3809091211296618" fill="#252525" stroke="none" stroke-linecap="round" d="M 154.3163 63.9069 L 135.045 32.0423 L 159.2818 30.9664 L 207.7873 27.3516 L 218.5357 27.9171 L 229.7874 32.005 L 227.5411 40.0812 L 228.7317 53.044 L 206.9654 53.5376 L 193.6495 55.1733 L 154.3163 63.9069 Z " stroke-width="0.730588968902299"/>
        <path id="ID0.9495224836282432" fill="none" stroke="#131313" stroke-width="2.000000006555918" stroke-linecap="round" d="M 207.9962 27.3479 L 216.496 27.4134 L 224.4803 29.475 L 228.9147 38.0094 L 233.9068 39.0479 "/>
      </g>
    </g>
    <g id="ID0.18228224432095885">
      <path id="ID0.5368814701214433" fill="#404040" stroke="none" stroke-linecap="round" d="M 301.2932 93.2288 L 292.5516 90.0876 L 283.4404 85.3293 L 289.5886 75.5293 L 297.551 64.4922 L 308.4012 47.3411 L 314.9456 46.4543 L 315.3994 71.1756 L 311.1113 92.3039 L 301.2932 93.2288 Z " stroke-width="0.7702165275099021"/>
      <g id="ID0.5077062323689461">
        <path id="ID0.05466862628236413" fill="#252525" stroke="none" stroke-linecap="round" d="M 228.4923 88.716 L 226.3083 66.8704 L 240.8741 69.41 L 245.839 70.4265 L 260.3012 71.2283 L 293.6395 70.5573 L 295.239 91.9212 L 276.4453 92.227 L 269.2624 94.1472 L 261.4819 94.891 L 250.4791 92.6852 L 240.3731 92.2284 L 228.4923 88.716 Z " stroke-width="0.5998532687777262"/>
        <path id="ID0.5319394422695041" fill="none" stroke="#131313" stroke-width="1.9999999989713018" stroke-linecap="round" d="M 292.692 70.4535 L 295.5191 91.8911 L 283.9816 92.2581 "/>
      </g>
      <g id="ID0.8820344842970371">
        <path id="ID0.3809091211296618" fill="#252525" stroke="none" stroke-linecap="round" d="M 151.7471 90.6595 L 136.5126 63.0312 L 160.7731 63.1008 L 209.3952 61.7804 L 220.1049 62.8528 L 231.151 67.4673 L 228.5259 75.4285 L 230.4369 88.9899 L 207.3106 90.7049 L 194.2471 91.5222 L 151.7471 90.6595 Z " stroke-width="0.7305889844027466"/>
        <path id="ID0.9495224836282432" fill="none" stroke="#131313" stroke-width="1.9999999989713018" stroke-linecap="round" d="M 209.5377 61.8744 L 218.0248 62.3412 L 225.9029 64.7775 L 229.9294 73.5117 L 234.8669 74.7848 "/>
      </g>
    </g>
    <g id="ID0.8990198895335197">
      <path id="ID0.17576928716152906" fill="#DBDBDB" stroke="none" d="M 57.208 57.6869 L 57.2061 57.9369 L 57.2061 57.9369 L 57.208 57.6869 L 57.208 57.6869 Z " stroke-width="1.000000003277959"/>
      <path id="ID0.4270821204409003" fill="#252525" stroke="none" stroke-linecap="round" d="M 179.1888 60.7868 L 66.4339 60.172 L 69.0472 42.8363 L 73.5273 36.0571 L 77.6542 33.3166 L 89.2769 26.6216 L 99.7275 27.6337 L 105.1738 28.7414 L 112.1225 27.2721 L 117.6095 26.952 L 124.4497 29.2903 L 129.6391 31.0576 L 138.8862 32.5118 L 160.8226 31.636 L 168.8864 37.01 L 174.9613 41.9702 L 179.1888 60.7868 Z " stroke-width="0.4761425745610689"/>
      <path id="ID0.4270821204409003" fill="#252525" stroke="none" stroke-linecap="round" d="M 179.3398 60.6682 L 66.5887 59.5453 L 68.9346 76.9192 L 73.3097 83.7667 L 77.3938 86.5705 L 88.912 93.4438 L 99.3769 92.5928 L 104.8397 91.5691 L 111.7649 93.1454 L 117.2463 93.55 L 124.1218 91.3174 L 129.3378 89.6302 L 138.6062 88.3187 L 160.5265 89.5325 L 168.6721 84.2833 L 174.8228 79.4174 L 179.3398 60.6682 Z " stroke-width="0.47614257456106895"/>
      <path id="ID0.5114514343440533" fill="#282828" stroke="none" d="M 67.5672 86.085 L 67.9755 33.0865 L 156.2229 33.7665 L 155.8145 86.765 L 67.5672 86.085 Z " stroke-width="1.007306607375225"/>
      <path id="ID0.9286923445761204" fill="#D4D4D4" stroke="none" stroke-linecap="round" d="M 53.9867 69.8257 L 35.3842 52.3979 L 54.2078 59.6615 L 94.6885 58.7116 L 65.3522 96.4352 L 54.6993 76.2117 L 53.9867 69.8257 Z " stroke-width="0.4761425868383333"/>
      <path id="ID0.9286923445761204" fill="#D4D4D4" stroke="none" stroke-linecap="round" d="M 53.0059 53.4408 L 35.521 67.0908 L 54.4543 60.1181 L 94.4585 59.2122 L 66.1641 23.5205 L 54.2037 43.2126 L 53.0059 53.4408 Z " stroke-width="0.4761425868383333"/>
      <path id="ID0.39874776685610414" fill="#C3C3C3" stroke="none" stroke-linecap="round" d="M 55.6145 78.1275 L 65.638 58.3345 L 56.815 40.398 L 58.9837 36.4113 L 69.4119 58.5589 L 57.5414 81.9016 L 55.6145 78.1275 Z " stroke-width="0.9436593532244908"/>
      <path id="ID0.13444371055811644" fill="#1F1F1F" stroke="none" stroke-linecap="round" d="M 67.4846 60.7662 L 67.275 55.5144 L 95.7957 52.9341 L 96.2029 64.9876 L 67.4846 60.7662 Z " stroke-width="1.000000003277959"/>
      <path id="ID0.751046194229275" fill="#191919" stroke="none" stroke-linecap="round" d="M 62.5021 63.0129 L 60.5032 58.3223 L 62.5729 53.8281 L 70.551 53.4496 L 71.5071 57.8571 L 70.4769 63.0743 L 62.5021 63.0129 Z " stroke-width="1.1000000274476132"/>
      <path id="ID0.7854711129330099" fill="#282828" stroke="none" stroke-linecap="round" d="M 84.1474 72.1449 L 93.005 58.2127 L 83.3612 44.388 L 100.8453 46.5228 L 100.6661 69.7721 L 84.1474 72.1449 Z " stroke-width="1.000000003277959"/>
      <path id="ID0.562834897544235" fill="#282828" stroke="none" stroke-linecap="round" d="M 155.5162 89.4453 L 149.9994 59.1519 L 170.2488 59.308 L 171.3929 73.0672 L 155.5162 89.4453 Z " stroke-width="1.000000003277959"/>
      <path id="ID0.562834897544235" fill="#282828" stroke="none" stroke-linecap="round" d="M 156.2358 28.4991 L 150.2529 58.7039 L 170.5023 58.8599 L 171.8582 45.1199 L 156.2358 28.4991 Z " stroke-width="1.000000003277959"/>
      <path id="ID0.6824178956449032" fill="none" stroke="#191919" stroke-width="2.000000006555918" stroke-linecap="round" d="M 93.2531 58.4647 L 169.9989 59.306 "/>
      <path id="ID0.4144489667378366" fill="#313131" stroke="none" stroke-linecap="round" d="M 62.4554 96.9785 L 54.6117 76.6675 L 76.3379 79.835 L 136.3612 77.0474 L 181.0366 86.8919 L 175.952 97.8531 L 179.45 98.13 L 131.4745 94.7603 L 88.1892 99.1769 L 71.932 100.0516 L 62.4554 96.9785 Z " stroke-width="1.000000003277959"/>
      <path id="ID0.5234400681219995" fill="#101010" stroke="none" d="M 98.9325 56.2921 C 98.9356 55.8795 99.1061 55.5066 99.3791 55.2378 C 99.6521 54.969 100.0276 54.8043 100.4402 54.8074 C 100.8528 54.8106 101.2258 54.9811 101.4946 55.2541 C 101.7634 55.527 101.9281 55.9025 101.9249 56.3152 C 101.9217 56.7278 101.7512 57.1007 101.4783 57.3695 C 101.2053 57.6383 100.8298 57.803 100.4171 57.7999 C 100.0045 57.7967 99.6316 57.6262 99.3628 57.3532 C 99.094 57.0803 98.9293 56.7048 98.9325 56.2921 Z " stroke-width="0.6299999972967426"/>
      <path id="ID0.5234400681219995" fill="#101010" stroke="none" d="M 112.5321 56.3969 C 112.5352 55.9843 112.7057 55.6114 112.9787 55.3425 C 113.2517 55.0737 113.6272 54.9091 114.0398 54.9122 C 114.4524 54.9154 114.8254 55.0859 115.0942 55.3588 C 115.363 55.6318 115.5277 56.0073 115.5245 56.42 C 115.5213 56.8326 115.3508 57.2055 115.0779 57.4743 C 114.8049 57.7431 114.4294 57.9078 114.0167 57.9046 C 113.6041 57.9015 113.2312 57.731 112.9624 57.458 C 112.6936 57.185 112.5289 56.8095 112.5321 56.3969 Z " stroke-width="0.6299999972967426"/>
      <path id="ID0.5234400681219995" fill="#101010" stroke="none" d="M 143.9811 56.6392 C 143.9843 56.2266 144.1548 55.8537 144.4277 55.5849 C 144.7007 55.3161 145.0762 55.1514 145.4889 55.1546 C 145.9015 55.1577 146.2744 55.3282 146.5432 55.6012 C 146.812 55.8742 146.9767 56.2497 146.9735 56.6623 C 146.9704 57.0749 146.7999 57.4479 146.5269 57.7167 C 146.2539 57.9855 145.8784 58.1502 145.4658 58.147 C 145.0532 58.1438 144.6802 57.9733 144.4114 57.7004 C 144.1426 57.4274 143.9779 57.0519 143.9811 56.6392 Z " stroke-width="0.6299999972967426"/>
      <path id="ID0.5234400681219995" fill="#101010" stroke="none" d="M 129.2816 56.526 C 129.2847 56.1133 129.4552 55.7404 129.7282 55.4716 C 130.0012 55.2028 130.3767 55.0381 130.7893 55.0413 C 131.2019 55.0445 131.5749 55.2149 131.8437 55.4879 C 132.1125 55.7609 132.2772 56.1364 132.274 56.549 C 132.2708 56.9617 132.1003 57.3346 131.8274 57.6034 C 131.5544 57.8722 131.1789 58.0369 130.7662 58.0337 C 130.3536 58.0305 129.9807 57.8601 129.7119 57.5871 C 129.4431 57.3141 129.2784 56.9386 129.2816 56.526 Z " stroke-width="0.6299999972967426"/>
      <path id="ID0.5234400681219995" fill="#101010" stroke="none" d="M 157.9799 56.8471 C 157.9831 56.4345 158.1536 56.0616 158.4266 55.7928 C 158.6995 55.5239 159.075 55.3593 159.4877 55.3624 C 159.9003 55.3656 160.2732 55.5361 160.542 55.8091 C 160.8108 56.082 160.9755 56.4575 160.9724 56.8702 C 160.9692 57.2828 160.7987 57.6557 160.5257 57.9245 C 160.2528 58.1933 159.8773 58.358 159.4646 58.3548 C 159.052 58.3517 158.6791 58.1812 158.4103 57.9082 C 158.1415 57.6352 157.9768 57.2597 157.9799 56.8471 Z " stroke-width="0.6299999972967426"/>
      <path id="ID0.4144489667378366" fill="#313131" stroke="none" stroke-linecap="round" d="M 62.1221 23.4238 L 53.9663 43.6115 L 75.7388 40.7792 L 135.712 44.4914 L 180.5339 35.3365 L 175.6188 24.2983 L 179.1206 24.0753 L 131.0989 26.7053 L 87.8868 21.6222 L 71.645 20.497 L 62.1221 23.4238 Z " stroke-width="1.000000003277959"/>
      <path id="ID0.8752945330925286" fill="none" stroke="#222222" stroke-width="2.000000006555918" stroke-linecap="round" d="M 62.7092 96.4804 L 70.434 99.7901 L 108.2079 96.831 "/>
      <path id="ID0.8752945330925286" fill="none" stroke="#222222" stroke-width="2.000000006555918" stroke-linecap="round" d="M 62.7737 23.2288 L 70.5485 20.0386 L 108.2723 23.5794 "/>
      <path id="ID0.5234400681219995" fill="#101010" stroke="none" d="M 144.5031 79.7439 C 144.5063 79.3313 144.6768 78.9584 144.9497 78.6896 C 145.2227 78.4208 145.5982 78.2561 146.0108 78.2593 C 146.4235 78.2625 146.7964 78.4329 147.0652 78.7059 C 147.334 78.9789 147.4987 79.3544 147.4955 79.767 C 147.4923 80.1796 147.3219 80.5526 147.0489 80.8214 C 146.7759 81.0902 146.4004 81.2549 145.9878 81.2517 C 145.5752 81.2485 145.2022 81.078 144.9334 80.8051 C 144.6646 80.5321 144.4999 80.1566 144.5031 79.7439 Z " stroke-width="0.6299999972967426"/>
      <path id="ID0.5234400681219995" fill="#101010" stroke="none" d="M 151.7421 81.1998 C 151.7453 80.7871 151.9157 80.4142 152.1887 80.1454 C 152.4617 79.8766 152.8372 79.7119 153.2498 79.7151 C 153.6625 79.7183 154.0354 79.8887 154.3042 80.1617 C 154.573 80.4347 154.7377 80.8102 154.7345 81.2228 C 154.7313 81.6355 154.5609 82.0084 154.2879 82.2772 C 154.0149 82.546 153.6394 82.7107 153.2268 82.7075 C 152.8141 82.7043 152.4412 82.5339 152.1724 82.2609 C 151.9036 81.9879 151.7389 81.6124 151.7421 81.1998 Z " stroke-width="0.6299999972967426"/>
      <g id="ID0.20783481979742646">
        <path id="ID0.5848579816520214" fill="#737373" stroke="none" stroke-linecap="round" d="M 90.5396 34.243 L 89.0924 27.3817 L 92.9916 27.5117 L 93.4357 34.7654 L 90.5396 34.243 Z " stroke-width="1.000000003277959"/>
        <path id="ID0.13105127029120922" fill="none" stroke="#222222" stroke-width="2.000000006555918" stroke-linecap="round" d="M 93.6753 36.1173 L 93.7099 31.6174 L 92.2504 26.356 "/>
      </g>
    </g>
    <path id="ID0.46110434643924236" fill="#D8BFA7" stroke="none" stroke-linecap="round" d="M 35.5526 71.2756 L 35.7269 48.6616 L 54.6799 48.3401 L 57.4821 54.5561 L 55.652 71.4305 L 35.5526 71.2756 Z " stroke-width="1.087635767710453"/>
    <path id="ID0.8999492498114705" fill="#EDD2B8" stroke="none" stroke-linecap="round" d="M 3.9099 52.3528 C 4.4229 47.9524 7.1697 43.2416 11.0689 41.1393 C 15.5207 38.7406 21.0975 40.6598 26.1018 40.4702 C 27.8426 40.3749 29.662 40.1593 31.4098 40.6128 C 34.5617 41.1436 37.5621 42.354 40.6859 43.3769 C 42.7915 44.0653 45.1264 44.2743 47.0205 45.4579 C 49.2629 46.7911 52.3866 48.1579 52.8222 50.761 C 53.4677 54.62 51.5952 58.6822 49.8134 62.1182 C 48.3493 64.9408 46.1169 67.5772 43.3325 69.1302 C 38.166 71.91 32.4864 74.4274 26.5996 74.7676 C 20.0738 75.1446 12.002 75.8526 7.3221 71.0627 C 2.8137 66.7756 3.1503 58.8942 3.9099 52.3528 Z " stroke-width="0.5080372707807734"/>
    <path id="ID0.8194515448994935" fill="#EDD2B8" stroke="none" stroke-linecap="round" d="M 21.2754 74.7605 C 21.3689 73.9072 21.9427 73.2936 23.0056 72.7948 C 24.0684 72.296 25.5328 71.9933 27.1468 72.0057 C 28.7607 72.0181 30.2202 72.3434 31.2753 72.8585 C 32.3304 73.3737 32.8676 73.9968 32.975 74.8507 C 33.072 75.6345 32.6352 76.6371 31.9585 76.9929 C 30.4553 77.6604 28.6793 77.5267 27.1036 77.6055 C 25.555 77.6836 23.8502 78.0305 22.4549 77.4197 C 21.6046 76.9341 21.1775 75.6548 21.2754 74.7605 Z " stroke-width="1.000000003277959"/>
    <path id="ID0.5768358684144914" fill="#2E3234" stroke="none" d="M 18.1181 75.6862 L 18.1644 69.6864 L 19.9643 69.7003 L 19.9181 75.7001 L 18.1181 75.6862 Z " stroke-width="1.000000003277959"/>
    <path id="ID0.3245162623934448" fill="#54595E" stroke="none" stroke-linecap="round" d="M 4.9842 54.0844 C 5.0093 50.8285 7.6599 47.8988 11.9213 45.7956 C 16.1826 43.6924 22.9092 42.9872 28.5244 42.4654 C 34.2577 41.9326 40.5102 40.0787 45.7251 42.448 C 49.7431 44.274 52.7759 49.2435 52.9882 53.7543 C 53.1923 58.014 50.6828 63.1338 46.8005 65.1069 C 41.3139 67.8947 34.5402 66.5265 28.3426 66.0647 C 22.7196 65.6454 16.0211 64.6478 11.7927 62.4791 C 7.5643 60.3105 4.9591 57.3403 4.9842 54.0844 Z " stroke-width="1.000000003277959"/>
    <path id="ID0.8999492498114705" fill="#54595E" stroke="none" stroke-linecap="round" d="M 1.2746 50.4324 C 2.5546 46.1914 4.5344 41.3212 8.4336 39.219 C 12.8854 36.8202 18.5176 39.3353 23.4665 38.5499 C 25.4213 38.2393 26.9482 35.7763 29.0247 35.9 C 31.696 36.103 33.8789 38.2308 36.3642 39.4367 C 39.062 40.749 41.9139 41.9065 44.3852 43.5376 C 46.5699 44.9785 49.0605 46.4791 50.1869 48.8406 C 51.0529 50.659 51.2796 53.2747 50.0391 54.8345 C 49.0531 56.0747 46.8454 54.9145 45.2854 55.2805 C 43.3615 55.5939 41.6187 56.876 39.6338 56.8627 C 34.1096 56.8237 28.6881 54.9169 23.163 54.856 C 17.0872 54.7894 10.8426 54.4065 5.1411 56.3429 C 2.9599 57.0836 2.34 63.2949 1.6919 62.2097 C 0.5293 60.5268 0.1407 54.1899 1.2746 50.4324 Z " stroke-width="0.5080372707807734"/>
    <path id="ID0.8999492498114705" fill="#54595E" stroke="none" stroke-linecap="round" d="M 1.6215 61.6669 C 2.7237 65.4578 4.6614 69.6871 8.1751 71.599 C 12.4293 73.9277 17.8412 72.6591 22.6422 73.2092 C 24.4051 73.4123 26.208 74.4901 27.8935 74.1134 C 30.2262 73.5608 31.9941 71.4615 34.295 70.8096 C 37.4646 69.9119 41.0916 70.6948 44.086 69.3863 C 46.484 68.3378 48.8061 66.5171 49.9688 64.1733 C 50.8626 62.3684 51.1297 59.7566 49.9134 58.1778 C 48.9466 56.9226 46.7213 58.0485 45.1671 57.6586 C 43.2483 57.3156 41.5254 56.0068 39.5406 55.9895 C 34.0164 55.9433 28.5662 57.7664 23.0408 57.7421 C 16.9647 57.7151 10.8572 57.5436 5.0439 55.9777 C 3.4813 55.5556 2.8123 50.8647 2.2055 51.8152 C 1.0154 53.6965 0.6272 58.5093 1.6215 61.6669 Z " stroke-width="0.5080372707807734"/>
    <path id="ID0.45774566335603595" fill="#54595E" stroke="none" stroke-linecap="round" d="M 36.8865 53.9052 C 36.9027 51.8013 38.1786 50.2711 38.994 48.5313 C 39.7382 46.945 39.8994 43.9411 41.7132 43.9671 C 44.5452 43.9769 46.97 46.4807 48.9617 48.6081 C 50.2749 50.0113 51.0023 51.9099 50.9861 54.0139 C 50.9699 56.1178 50.113 57.9142 48.8786 59.3878 C 47.1719 61.4267 45.1607 64.0393 42.5591 63.9742 C 40.5668 64.0039 39.8724 61.0744 38.9109 59.311 C 37.9899 57.6238 36.8703 56.0091 36.8865 53.9052 Z " stroke-width="1.000000003277959"/>
    <path id="ID0.6934182443656027" fill="#54595E" stroke="none" stroke-linecap="round" d="M 31.1771 68.0866 L 35.379 54.8686 L 30.9878 40.7344 L 37.7145 43.7863 L 42.2105 44.3209 L 42.7076 64.1754 L 36.5489 65.2779 L 31.1771 68.0866 Z " stroke-width="1.000000003277959"/>
    <path id="ID0.6236958587542176" fill="#3B4043" stroke="none" stroke-linecap="round" d="M 27.9265 61.6614 L 27.9978 45.9115 L 35.5922 46.67 L 42.5459 46.2236 L 53.0744 49.0548 L 53.0504 58.6549 L 43.0233 62.1277 L 35.4305 61.1692 L 27.9265 61.6614 Z " stroke-width="1.000000003277959"/>
    <path id="ID0.6043254472315311" fill="#3B4043" stroke="none" stroke-linecap="round" d="M 5.2209 68.7867 L 2.4076 64.0148 L 8.044 59.3081 L 9.1941 52.8168 L 28.4839 54.2155 L 31.3134 56.8874 L 30.9222 62.2345 L 28.7949 65.7682 L 24.8827 67.3381 L 18.3944 65.7881 L 5.2209 68.7867 Z " stroke-width="1.000000003277959"/>
    <path id="ID0.6043254472315311" fill="#3B4043" stroke="none" stroke-linecap="round" d="M 7.142 40.1006 L 4.6259 42.1813 L 3.4547 44.9223 L 8.1226 49.1084 L 9.1725 55.6167 L 28.4816 54.5155 L 31.3519 51.8875 L 31.0431 46.535 L 29.0779 42.0197 L 25.083 41.3389 L 18.5716 42.7888 L 7.142 40.1006 Z " stroke-width="1.000000003277959"/>
    <path id="ID0.9914007503539324" fill="#33383A" stroke="none" d="M 35.5686 56.2201 L 23.8063 57.7795 L 24.156 51.332 L 35.5579 51.1199 L 35.5686 56.2201 Z " stroke-width="1.000000003277959"/>
    <path id="ID0.28340246016159654" fill="#D8BFA7" stroke="none" stroke-linecap="round" d="M 21.8688 67.983 L 22.0147 61.1636 L 24.32 56.7382 L 27.7488 55.8873 L 29.947 57.291 L 30.2933 60.8029 L 29.7744 63.5441 L 28.9805 65.6322 L 27.2219 67.7412 L 25.2239 68.6315 L 21.8688 67.983 Z " stroke-width="0.5947752402057253"/>
    <path id="ID0.28340246016159654" fill="#D8BFA7" stroke="none" stroke-linecap="round" d="M 22.0887 39.4477 L 22.1295 46.2685 L 24.3663 50.7289 L 27.7816 51.6326 L 30.0011 50.2629 L 30.4015 46.7567 L 29.9249 44.0079 L 29.1633 41.9078 L 27.4375 39.7719 L 25.4534 38.851 L 22.0887 39.4477 Z " stroke-width="0.5947752402057253"/>
    <path id="ID0.17377300979569554" fill="#C6AF99" stroke="none" stroke-linecap="round" d="M 25.7935 64.1198 L 24.9699 63.2064 L 24.8034 60.9179 L 25.4263 58.6703 L 27.3805 58.2331 L 27.2283 60.8693 L 25.7935 64.1198 Z " stroke-width="0.9999999793661676"/>
    <path id="ID0.17377300979569554" fill="#C6AF99" stroke="none" stroke-linecap="round" d="M 25.9626 42.1709 L 25.1251 43.0715 L 24.9233 45.3572 L 25.5115 47.6141 L 27.4587 48.0814 L 27.3471 45.4432 L 25.9626 42.1709 Z " stroke-width="0.9999999793661677"/>
    <path id="ID0.44800941413268447" fill="none" stroke="#33383A" stroke-width="1.0503597293951847" stroke-linecap="round" d="M 28.3475 55.0155 L 24.0286 56.6104 L 21.5528 60.9767 L 21.6335 67.5422 "/>
    <path id="ID0.12448931112885475" fill="#33383A" stroke="none" stroke-linecap="round" d="M 33.9202 56.0074 L 34.0572 51.2083 L 37.2144 50.2826 L 38.6905 53.3941 L 37.1136 56.882 L 33.9202 56.0074 Z " stroke-width="1.000000003277959"/>
    <path id="ID0.44800941413268447" fill="none" stroke="#33383A" stroke-width="1.0503597358244512" stroke-linecap="round" d="M 24.7294 56.0269 L 22.1679 55.2049 L 18.7923 56.624 "/>
    <path id="ID0.44800941413268447" fill="none" stroke="#33383A" stroke-width="1.0503597358244512" stroke-linecap="round" d="M 24.6636 51.5956 L 22.0896 52.3781 L 18.7364 50.9071 "/>
    <g id="ID0.32985211815685034">
      <g id="ID0.08651347272098064">
        <g id="ID0.07771636918187141">
          <path id="ID0.7001032647676766" fill="none" stroke="#646B70" stroke-width="0.5238094943050693" stroke-linecap="round" d="M 39.9151 62.2609 C 39.9151 62.2609 40.2825 62.3282 40.4643 62.3699 C 40.6352 62.4092 40.8095 62.5662 40.9739 62.5048 C 41.1442 62.4414 41.2343 62.2342 41.2916 62.062 C 41.3466 61.8964 41.2922 61.7126 41.2957 61.5382 C 41.2991 61.3638 41.4649 61.1 41.3128 61.0145 C 40.949 60.8095 40.07 60.8478 40.07 60.8478 "/>
          <path id="ID0.7001032647676766" fill="none" stroke="#646B70" stroke-width="0.5238094943050693" stroke-linecap="round" d="M 39.9266 60.761 C 39.9266 60.761 40.2941 60.8282 40.4758 60.87 C 40.6468 60.9093 40.8211 61.0662 40.9855 61.0049 C 41.1557 60.9415 41.2458 60.7342 41.3032 60.5621 C 41.3582 60.3964 41.3038 60.2127 41.3072 60.0383 C 41.3107 59.8639 41.4764 59.6001 41.3244 59.5146 C 40.9606 59.3096 40.0816 59.3479 40.0816 59.3479 "/>
        </g>
        <g id="ID0.07771636918187141">
          <path id="ID0.7001032647676766" fill="none" stroke="#646B70" stroke-width="0.5238094943050693" stroke-linecap="round" d="M 40.089 59.1622 C 40.089 59.1622 40.4564 59.2295 40.6381 59.2712 C 40.8091 59.3105 40.9834 59.4674 41.1478 59.4061 C 41.318 59.3427 41.4082 59.1354 41.4655 58.9633 C 41.5205 58.7976 41.4661 58.6139 41.4696 58.4395 C 41.473 58.2651 41.6387 58.0013 41.4867 57.9158 C 41.1229 57.7108 40.2439 57.7491 40.2439 57.7491 "/>
          <path id="ID0.7001032647676766" fill="none" stroke="#646B70" stroke-width="0.5238094943050693" stroke-linecap="round" d="M 40.2005 57.663 C 40.2005 57.663 40.568 57.7303 40.7497 57.772 C 40.9207 57.8113 41.0949 57.9682 41.2594 57.9069 C 41.4296 57.8435 41.5197 57.6362 41.5771 57.4641 C 41.6321 57.2985 41.5777 57.1147 41.5811 56.9403 C 41.5846 56.7659 41.7503 56.5021 41.5983 56.4166 C 41.2345 56.2116 40.3555 56.2499 40.3555 56.2499 "/>
        </g>
        <path id="ID0.7001032647676766" fill="none" stroke="#646B70" stroke-width="0.5238095067028069" stroke-linecap="round" d="M 40.3822 56.1165 C 40.3822 56.1165 40.7547 56.1448 40.9398 56.1673 C 41.114 56.1885 41.3037 56.3262 41.4608 56.248 C 41.6235 56.1671 41.6914 55.9516 41.7304 55.7744 C 41.7677 55.6039 41.6943 55.4268 41.6795 55.253 C 41.6646 55.0792 41.8018 54.7995 41.6416 54.7304 C 41.2584 54.5647 40.3882 54.6949 40.3882 54.6949 "/>
      </g>
      <g id="ID0.08651347272098064">
        <g id="ID0.07771636918187141">
          <path id="ID0.7001032647676766" fill="none" stroke="#646B70" stroke-width="0.5238094943050693" stroke-linecap="round" d="M 40.0323 47.0471 C 40.0323 47.0471 40.4008 46.9855 40.5831 46.9466 C 40.7547 46.9099 40.9313 46.7557 41.0948 46.8196 C 41.264 46.8856 41.3509 47.0942 41.4057 47.2672 C 41.4581 47.4337 41.4009 47.6166 41.4016 47.791 C 41.4024 47.9654 41.564 48.2317 41.4107 48.3149 C 41.0438 48.5143 40.1655 48.4625 40.1655 48.4625 "/>
          <path id="ID0.7001032647676766" fill="none" stroke="#646B70" stroke-width="0.5238094943050693" stroke-linecap="round" d="M 40.0207 48.5471 C 40.0207 48.5471 40.3892 48.4855 40.5715 48.4465 C 40.7431 48.4099 40.9198 48.2557 41.0832 48.3195 C 41.2525 48.3855 41.3394 48.5941 41.3941 48.7672 C 41.4465 48.9336 41.3893 49.1165 41.3901 49.291 C 41.3908 49.4654 41.5525 49.7317 41.3991 49.8149 C 41.0322 50.0142 40.1539 49.9624 40.1539 49.9624 "/>
        </g>
        <g id="ID0.07771636918187141">
          <path id="ID0.7001032647676766" fill="none" stroke="#646B70" stroke-width="0.5238094943050693" stroke-linecap="round" d="M 40.1576 50.2482 C 40.1576 50.2482 40.5261 50.1866 40.7084 50.1476 C 40.88 50.111 41.0567 49.9568 41.2201 50.0206 C 41.3894 50.0866 41.4763 50.2953 41.531 50.4683 C 41.5834 50.6347 41.5262 50.8176 41.527 50.9921 C 41.5277 51.1665 41.6893 51.4328 41.536 51.516 C 41.1691 51.7153 40.2908 51.6635 40.2908 51.6635 "/>
          <path id="ID0.7001032647676766" fill="none" stroke="#646B70" stroke-width="0.5238094943050693" stroke-linecap="round" d="M 40.2461 51.7489 C 40.2461 51.7489 40.6145 51.6873 40.7969 51.6484 C 40.9684 51.6117 41.1451 51.4575 41.3086 51.5214 C 41.4778 51.5873 41.5647 51.796 41.6194 51.969 C 41.6718 52.1355 41.6146 52.3184 41.6154 52.4928 C 41.6161 52.6672 41.7778 52.9335 41.6245 53.0167 C 41.2575 53.2161 40.3792 53.1642 40.3792 53.1642 "/>
        </g>
        <path id="ID0.7001032647676766" fill="none" stroke="#646B70" stroke-width="0.5238095067028068" stroke-linecap="round" d="M 40.4047 53.1981 C 40.4047 53.1981 40.7776 53.1754 40.963 53.1558 C 41.1375 53.1373 41.3293 53.0025 41.4852 53.0831 C 41.6466 53.1665 41.7111 53.3831 41.7474 53.5609 C 41.7821 53.7319 41.7061 53.9078 41.6885 54.0814 C 41.671 54.2549 41.8038 54.5367 41.6426 54.6033 C 41.2568 54.7632 40.3888 54.6196 40.3888 54.6196 "/>
      </g>
    </g>
    <path id="ID0.7001032647676766" fill="none" stroke="#646B70" stroke-width="0.5238095539097143" stroke-linecap="round" d="M 42.9312 62.0342 C 42.9312 62.0342 42.5627 62.0958 42.3804 62.1347 C 42.2088 62.1713 42.0322 62.3256 41.8687 62.2617 C 41.6995 62.1957 41.6126 61.9871 41.5579 61.8141 C 41.5054 61.6476 41.5626 61.4647 41.5619 61.2903 C 41.5611 61.1158 41.3995 60.8495 41.5528 60.7664 C 41.9197 60.567 42.7981 60.6188 42.7981 60.6188 "/>
    <path id="ID0.7001032647676766" fill="none" stroke="#646B70" stroke-width="0.5238095539097143" stroke-linecap="round" d="M 42.9428 60.5342 C 42.9428 60.5342 42.5743 60.5958 42.392 60.6347 C 42.2204 60.6714 42.0437 60.8256 41.8803 60.7617 C 41.711 60.6957 41.6241 60.4871 41.5694 60.3141 C 41.517 60.1476 41.5742 59.9647 41.5734 59.7903 C 41.5727 59.6159 41.4111 59.3496 41.5644 59.2664 C 41.9313 59.067 42.8096 59.1189 42.8096 59.1189 "/>
    <g id="ID0.07771636918187141">
      <path id="ID0.7001032647676766" fill="none" stroke="#646B70" stroke-width="0.5238095539097143" stroke-linecap="round" d="M 43.1512 59.4358 C 43.1512 59.4358 42.7828 59.4974 42.6004 59.5363 C 42.4289 59.573 42.2522 59.7272 42.0887 59.6633 C 41.9195 59.5973 41.8326 59.3887 41.7779 59.2157 C 41.7255 59.0492 41.7827 58.8663 41.7819 58.6919 C 41.7812 58.5174 41.6195 58.2511 41.7729 58.168 C 42.1398 57.9686 43.0181 58.0204 43.0181 58.0204 "/>
      <path id="ID0.7001032647676766" fill="none" stroke="#646B70" stroke-width="0.5238095539097143" stroke-linecap="round" d="M 42.9628 57.9343 C 42.9628 57.9343 42.5943 57.9959 42.412 58.0348 C 42.2404 58.0715 42.0638 58.2257 41.9003 58.1618 C 41.7311 58.0958 41.6442 57.8872 41.5894 57.7142 C 41.537 57.5477 41.5942 57.3648 41.5935 57.1904 C 41.5927 57.0159 41.4311 56.7496 41.5844 56.6665 C 41.9513 56.4671 42.8296 56.5189 42.8296 56.5189 "/>
    </g>
    <path id="ID0.7001032647676766" fill="none" stroke="#646B70" stroke-width="0.523809566369616" stroke-linecap="round" d="M 43.158 55.9878 C 43.158 55.9878 42.7851 56.0105 42.5997 56.0301 C 42.4252 56.0485 42.2334 56.1834 42.0775 56.1028 C 41.9161 56.0194 41.8516 55.8028 41.8153 55.625 C 41.7806 55.454 41.8567 55.2781 41.8742 55.1045 C 41.8917 54.9309 41.7589 54.6492 41.9201 54.5825 C 42.3059 54.4227 43.1739 54.5663 43.1739 54.5663 "/>
    <path id="ID0.7001032647676766" fill="none" stroke="#646B70" stroke-width="0.5238095539097143" stroke-linecap="round" d="M 42.9027 46.2692 C 42.9027 46.2692 42.5352 46.2019 42.3535 46.1602 C 42.1825 46.1209 42.0082 45.964 41.8438 46.0253 C 41.6736 46.0887 41.5835 46.296 41.5261 46.4681 C 41.4711 46.6338 41.5255 46.8175 41.5221 46.9919 C 41.5186 47.1663 41.3529 47.4301 41.5049 47.5156 C 41.8687 47.7206 42.7477 47.6823 42.7477 47.6823 "/>
    <path id="ID0.7001032647676766" fill="none" stroke="#646B70" stroke-width="0.5238095539097143" stroke-linecap="round" d="M 42.8911 47.7692 C 42.8911 47.7692 42.5236 47.7019 42.3419 47.6602 C 42.1709 47.6209 41.9967 47.4639 41.8322 47.5253 C 41.662 47.5887 41.5719 47.7959 41.5145 47.9681 C 41.4596 48.1337 41.5139 48.3175 41.5105 48.4919 C 41.5071 48.6663 41.3413 48.9301 41.4934 49.0156 C 41.8572 49.2206 42.7362 49.1823 42.7362 49.1823 "/>
    <path id="ID0.7001032647676766" fill="none" stroke="#646B70" stroke-width="0.5238095539097143" stroke-linecap="round" d="M 42.9772 49.5699 C 42.9772 49.5699 42.6098 49.5026 42.4281 49.4609 C 42.2571 49.4216 42.0828 49.2647 41.9184 49.326 C 41.7482 49.3894 41.658 49.5966 41.6007 49.7688 C 41.5457 49.9344 41.6001 50.1182 41.5966 50.2926 C 41.5932 50.467 41.4275 50.7308 41.5795 50.8163 C 41.9433 51.0213 42.8223 50.983 42.8223 50.983 "/>
    <path id="ID0.7001032647676766" fill="none" stroke="#646B70" stroke-width="0.5238095539097143" stroke-linecap="round" d="M 43.1157 51.071 C 43.1157 51.071 42.7482 51.0037 42.5665 50.962 C 42.3955 50.9227 42.2212 50.7658 42.0568 50.8271 C 41.8866 50.8905 41.7965 51.0977 41.7391 51.2699 C 41.6841 51.4355 41.7385 51.6193 41.7351 51.7937 C 41.7316 51.9681 41.5659 52.2319 41.7179 52.3174 C 42.0817 52.5224 42.9607 52.4841 42.9607 52.4841 "/>
    <path id="ID0.7001032647676766" fill="none" stroke="#646B70" stroke-width="0.523809566369616" stroke-linecap="round" d="M 43.2332 52.7198 C 43.2332 52.7198 42.8607 52.6915 42.6756 52.669 C 42.5014 52.6478 42.3117 52.5101 42.1546 52.5883 C 41.992 52.6692 41.9241 52.8847 41.885 53.0619 C 41.8477 53.2324 41.9211 53.4095 41.9359 53.5833 C 41.9508 53.7571 41.8136 54.0368 41.9738 54.1059 C 42.357 54.2716 43.2272 54.1414 43.2272 54.1414 "/>
    <path id="ID0.44800941413268447" fill="none" stroke="#2E3234" stroke-width="0.6130029293503825" stroke-linecap="round" d="M 34.4561 51.1594 L 33.1407 52.9569 L 34.1592 56.2705 "/>
    <path id="ID0.44800941413268447" fill="none" stroke="#33383A" stroke-width="1.0503597293951847" stroke-linecap="round" d="M 28.3664 52.5634 L 24.0726 50.9023 L 21.6644 46.4983 L 21.8462 39.9348 "/>
    <path id="ID0.023752907756716013" fill="none" stroke="#584E44" stroke-width="1.181434563630801" stroke-linecap="round" d="M 24.6064 64.3446 L 23.7818 61.147 L 24.0101 58.5836 "/>
    <path id="ID0.023752907756716013" fill="none" stroke="#584E44" stroke-width="1.181434602022363" stroke-linecap="round" d="M 24.825 42.2816 L 23.8833 45.4467 L 24.0172 48.0168 "/>
  </g>
</svg>