<svg xmlns="http://www.w3.org/2000/svg" xmlns:xlink="http://www.w3.org/1999/xlink" version="1.1" width="121.37755434231522" height="337.8992447109676" viewBox="1.7967236413729066 -0.6115762815702086 121.37755434231522 337.8992447109676">
  <defs>
    <linearGradient id="grad_1" y2="1" x2="0">
      <stop offset="0" stop-color="#222325" stop-opacity="1"/>
      <stop offset="1" stop-color="#2E3034" stop-opacity="1"/>
    </linearGradient>
  </defs>
  <!-- Exported by Scratch - http://scratch.mit.edu/ -->
  <g id="ID0.9602425838820636">
    <g id="ID0.17693647183477879">
      <path id="ID0.7729651997797191" fill="#393C40" stroke="none" stroke-linecap="round" d="M 105.137 100.5814 L 86.045 103.4806 L 90.9906 119.2597 L 94.8801 132.0063 L 99.0554 137.1027 L 102.6499 140.1011 L 114.3744 135.7175 L 115.2233 129.9714 L 108.2694 111.4414 L 105.137 100.5814 Z " stroke-width="0.7788099365182157"/>
      <path id="ID0.9716172609478235" fill="#34373A" stroke="none" stroke-linecap="round" d="M 101.6827 106.4849 L 106.1331 103.8147 L 103.7881 97.7709 L 87.5197 108.5475 L 90.6491 111.1579 L 96.046 112.4685 L 101.6827 106.4849 Z " stroke-width="0.7788099365182157"/>
      <g id="ID0.38066427363082767">
        <path id="ID0.4757494777441025" fill="#1D1E1F" stroke="none" stroke-linecap="round" d="M 93.9652 77.7694 L 85.639 76.47 L 70.9049 82.4767 L 80.8959 105.9714 L 91.1638 109.8314 L 95.553 110.4606 L 98.4018 107.9228 L 100.8602 104.8503 L 106.0634 101.8716 L 105.7061 96.6595 L 104.3323 89.031 L 100.5632 81.3911 L 93.9652 77.7694 Z " stroke-width="0.45418605575711973"/>
        <path id="ID0.6007084371522069" fill="none" stroke="#0D0D0D" stroke-width="0.9083721115142395" stroke-linecap="round" d="M 105.6417 102.2518 L 100.9733 104.8401 L 97.2192 108.7138 L 95.5633 110.5737 L 91.1638 109.8314 L 86.7853 108.0611 "/>
      </g>
    </g>
    <g id="ID0.7397577832452953">
      <path id="ID0.6726378230378032" fill="#34373A" stroke="none" stroke-linecap="round" d="M 114.2461 127.3092 L 99.628 137.311 L 100.6 139.4127 L 114.8163 129.2908 L 114.2461 127.3092 Z " stroke-width="0.7788099365182157"/>
      <path id="ID0.6507829907350242" fill="#1D1E1F" stroke="none" stroke-linecap="round" d="M 117.5863 127.9982 L 100.4293 139.3244 L 102.4477 157.3231 L 105.2985 167.2312 L 106.6837 182.5502 L 106.663 188.8079 L 118.2791 189.7126 L 117.912 183.4899 L 118.8156 174.0243 L 120.4608 161.9503 L 121.3819 152.6786 L 117.5863 127.9982 Z " stroke-width="0.7788099365182157"/>
      <path id="ID0.6829322893172503" fill="#1D1E1F" stroke="none" stroke-linecap="round" d="M 118.6319 189.2897 L 108.304 185.3361 L 105.6749 190.8522 L 102.3051 196.8263 L 102.796 202.2559 L 103.781 206.6632 L 105.9832 209.3966 L 107.9191 215.6729 L 112.3616 215.0757 L 113.3497 213.0314 L 114.8835 212.6972 L 117.7581 209.8958 L 120.7916 206.6891 L 122.345 202.2477 L 120.9557 195.531 L 118.6319 189.2897 Z " stroke-width="0.7788099365182157"/>
      <path id="ID0.47767175547778606" fill="none" stroke="#0D0D0D" stroke-width="1.5576198730364315" stroke-linecap="round" d="M 117.9265 131.7601 L 117.3044 127.9064 L 100.5068 139.3174 L 102.0199 152.5917 "/>
      <path id="ID0.5922487881034613" fill="#282A2B" stroke="none" stroke-linecap="round" d="M 121.3323 160.2654 L 114.1391 155.5201 L 108.3287 156.1237 L 102.9458 162.3189 L 105.5901 176.4293 L 110.6988 183.2007 L 113.9953 182.9027 L 119.1815 175.3959 L 121.3323 160.2654 Z " stroke-width="0.7788099365182157"/>
      <path id="ID0.36820242274552584" fill="#151616" stroke="none" stroke-linecap="round" d="M 115.7332 163.3858 L 107.6594 164.0376 L 111.2079 174.7428 L 112.6359 174.5354 L 115.7332 163.3858 Z " stroke-width="0.7788099365182157"/>
      <path id="ID0.13569410238415003" fill="none" stroke="#232425" stroke-width="1.5576198730364315" stroke-linecap="round" d="M 117.349 173.805 L 112.5367 181.1216 L 106.9414 174.5897 "/>
      <path id="ID0.024502143263816833" fill="none" stroke="#0D0D0D" stroke-width="1.5576198730364315" stroke-linecap="round" d="M 120.9905 160.0256 L 114.5234 155.5274 L 108.7626 155.8137 L 103.3021 162.016 L 104.8917 170.0831 "/>
    </g>
  </g>
  <path id="ID0.3809091211296618" fill="#393D40" stroke="none" stroke-linecap="round" d="M 65.6691 181.3122 L 93.1868 173.7454 L 89.5681 212.37 L 86.7451 222.9455 L 78.4463 239.6044 L 69.4928 240.6941 L 56.5128 239.7091 L 60.2072 219.22 L 63.9563 208.3935 L 65.6691 181.3122 Z " stroke-width="0.7305889811674571"/>
  <g id="ID0.9340031337924302">
    <path id="ID0.05466862628236413" fill="#292D2E" stroke="none" stroke-linecap="round" d="M 57.5073 228.8556 L 83.6854 234.3057 L 72.6411 250.3445 L 69.4341 254.54 L 62.6628 271.3716 L 45.7289 308.4392 L 30.3601 304.8319 L 35.8953 283.2822 L 36.2908 274.2353 L 38.2715 264.9242 L 44.8569 252.948 L 49.0827 241.3741 L 57.5073 228.8556 Z " stroke-width="0.7305890615739549"/>
    <path id="ID0.4490455654449761" fill="none" stroke="#272A2B" stroke-width="1.6585525722956906" stroke-linecap="round" d="M 57.0965 229.0137 L 83.3975 234.0973 L 68.6517 254.6987 "/>
    <path id="ID0.10446935473009944" fill="none" stroke="#242728" stroke-width="1.6585525722956906" stroke-linecap="round" d="M 64.1039 266.1668 L 58.1747 281.9267 L 45.7504 285.2017 "/>
    <path id="ID0.42170455446466804" fill="none" stroke="#242728" stroke-width="1.6585525722956906" stroke-linecap="round" d="M 56.7397 282.642 L 50.2055 296.2915 L 37.508 299.6729 "/>
    <path id="ID0.047098892275244" fill="none" stroke="#242728" stroke-width="1.6585525722956906" stroke-linecap="round" d="M 49.3601 241.2016 L 47.5727 244.713 L 48.7596 254.5732 "/>
  </g>
  <path id="ID0.3809091211296618" fill="#3E4246" stroke="none" stroke-linecap="round" d="M 42.0541 167.5672 L 68.7614 169.47 L 88.36 202.949 L 92.2383 213.1847 L 95.2192 231.556 L 88.5837 237.6653 L 77.4678 244.4393 L 67.4454 225.1113 L 60.1163 213.8742 L 42.0541 167.5672 Z " stroke-width="0.730588902328992"/>
  <g id="ID0.17693647183477879">
    <path id="ID0.7729651997797191" fill="#3E4246" stroke="none" stroke-linecap="round" d="M 21.558 100.9648 L 41.6506 103.4392 L 36.9339 120.1205 L 33.2344 133.5929 L 29.0095 139.0568 L 25.3312 142.3051 L 12.9154 138.0577 L 11.8561 132.0612 L 18.5961 112.4378 L 21.558 100.9648 Z " stroke-width="0.8164595457917152"/>
    <path id="ID0.9716172609478235" fill="#393C40" stroke="none" stroke-linecap="round" d="M 25.3522 107.0492 L 20.6096 104.3825 L 22.8885 97.9798 L 40.2548 108.7925 L 37.0526 111.6204 L 31.4357 113.1531 L 25.3522 107.0492 Z " stroke-width="0.8164595457917152"/>
    <g id="ID0.38066427363082767">
      <path id="ID0.4757494777441025" fill="#1D1E1F" stroke="none" stroke-linecap="round" d="M 32.3715 76.7105 L 41.0583 75.1031 L 56.6761 80.9625 L 46.9 105.8783 L 36.254 110.2264 L 31.6729 111.0154 L 28.6127 108.4401 L 25.9457 105.293 L 20.4052 102.3252 L 20.6257 96.8527 L 21.8401 88.8181 L 25.5642 80.7007 L 32.3715 76.7105 Z " stroke-width="0.4761425233378774"/>
      <path id="ID0.6007084371522069" fill="none" stroke="#0D0D0D" stroke-width="0.9522850466757548" stroke-linecap="round" d="M 20.8583 102.7111 L 25.8269 105.2856 L 29.8753 109.2341 L 31.6656 111.1342 L 36.254 110.2264 L 40.79 108.242 "/>
    </g>
  </g>
  <g id="ID0.7397577832452953">
    <path id="ID0.6726378230378032" fill="#393C40" stroke="none" stroke-linecap="round" d="M 13.4577 128.7535 L 28.4477 139.7122 L 27.3604 141.8826 L 12.7954 130.8113 L 13.4577 128.7535 Z " stroke-width="0.8164595690353219"/>
    <path id="ID0.6507829907350242" fill="#1D1E1F" stroke="none" stroke-linecap="round" d="M 10.0423 129.5211 L 27.6494 141.9505 L 24.9453 160.7441 L 21.6339 171.0328 L 19.6811 187.0392 L 19.498 193.5969 L 7.2966 194.1647 L 7.885 187.6563 L 7.248 177.7085 L 5.9192 165.003 L 5.2575 155.2578 L 10.0423 129.5211 Z " stroke-width="0.8164595690353219"/>
    <path id="ID0.6829322893172503" fill="#1D1E1F" stroke="none" stroke-linecap="round" d="M 6.9408 193.71 L 17.892 189.9053 L 20.4665 195.7714 L 23.8019 202.1415 L 23.1098 207.8146 L 21.9334 212.4006 L 19.5365 215.1926 L 17.3025 221.7058 L 12.6671 220.9346 L 11.6986 218.7602 L 10.1025 218.3598 L 7.182 215.3304 L 4.1084 211.871 L 2.626 207.1663 L 4.3016 200.1738 L 6.9408 193.71 Z " stroke-width="0.8164595690353219"/>
    <path id="ID0.47767175547778606" fill="none" stroke="#0D0D0D" stroke-width="1.6329191380706438" stroke-linecap="round" d="M 9.5628 133.4518 L 10.3408 129.4341 L 27.5683 141.9407 L 25.5485 155.8003 "/>
    <path id="ID0.5922487881034613" fill="#282A2B" stroke="none" stroke-linecap="round" d="M 4.872 163.1226 L 12.5647 158.3857 L 18.6331 159.2083 L 24.0708 165.876 L 20.8382 180.5748 L 15.2635 187.5029 L 11.8191 187.0827 L 6.6306 179.0471 L 4.872 163.1226 Z " stroke-width="0.8164595690353219"/>
    <path id="ID0.36820242274552584" fill="#151616" stroke="none" stroke-linecap="round" d="M 10.8629 166.5696 L 19.3014 167.5169 L 15.2328 178.6179 L 13.7434 178.354 L 10.8629 166.5696 Z " stroke-width="0.8164595690353219"/>
    <path id="ID0.13569410238415003" fill="none" stroke="#232425" stroke-width="1.6329191380706438" stroke-linecap="round" d="M 8.7918 177.5267 L 13.5949 185.3508 L 19.6716 178.6895 "/>
    <path id="ID0.024502143263816833" fill="none" stroke="#0D0D0D" stroke-width="1.6329191380706438" stroke-linecap="round" d="M 5.4271 162.969 L 12.3508 158.4673 L 18.3778 158.9558 L 23.8965 165.6335 L 21.9668 174.0344 "/>
  </g>
  <g id="ID0.9157347986474633">
    <path id="ID0.7477802094072104" fill="#363A3D" stroke="none" stroke-linecap="round" d="M 98.1154 124.4715 L 78.6382 120.9715 L 77.7831 162.1489 L 94.2591 171.4206 L 97.0532 146.952 L 98.1154 124.4715 Z " stroke-width="0.47614257300029306"/>
    <path id="ID0.7477802094072104" fill="#363A3D" stroke="none" stroke-linecap="round" d="M 37.7831 123.2358 L 61.2874 120.8664 L 60.4323 162.0439 L 43.5855 170.6236 L 38.6325 145.3988 L 37.7831 123.2358 Z " stroke-width="0.47614257300029306"/>
    <path id="ID0.4270821204409003" fill="#3E4246" stroke="none" stroke-linecap="round" d="M 38.5179 103.1385 L 42.5858 90.7215 L 44.968 84.937 L 51.6594 78.0513 L 82.6913 80.1245 L 89.505 84.5522 L 92.2772 88.6578 L 99.0615 100.2286 L 98.13 110.6866 L 97.0642 116.1413 L 98.587 123.0785 L 98.9494 128.5629 L 96.6639 135.421 L 94.9366 140.6238 L 93.5537 149.8818 L 94.5985 171.8108 L 89.2868 179.9158 L 84.3736 186.0287 L 72.1457 191.204 L 60.6169 187.9404 L 56.8289 181.1467 L 52.0115 174.6174 L 43.5309 171.3457 L 42.9148 145.9728 L 41.8631 139.2835 L 37.5303 127.7637 L 36.4461 116.9066 L 38.5179 103.1385 Z " stroke-width="0.47614257300029306"/>
    <path id="ID0.052435632329434156" fill="#393C40" stroke="none" stroke-linecap="round" d="M 49.6176 153.3064 L 54.0676 153.4464 L 60.5926 156.868 L 65.6659 156.8067 L 71.5079 158.7139 L 75.7193 157.7298 L 77.3953 157.2884 L 91.6758 154.1797 L 91.9646 157.4718 L 83.3094 161.4592 L 77.3653 161.0263 L 71.7086 163.9568 L 65.1172 160.2957 L 58.6817 160.5907 L 48.883 156.5772 L 49.6176 153.3064 Z " stroke-width="0.47614257300029306"/>
    <path id="ID0.4987568911164999" fill="none" stroke="#27282B" stroke-width="0.9522851460005861" stroke-linecap="round" d="M 51.4282 78.7223 L 44.8732 84.7774 L 41.3333 94.705 "/>
    <path id="ID0.2889464790932834" fill="none" stroke="#27282B" stroke-width="0.9522851460005861" stroke-linecap="round" d="M 84.0073 80.8276 L 89.6407 84.7545 L 95.1604 94.1559 "/>
    <path id="ID0.8373676878400147" fill="#000000" stroke="#2C2F31" stroke-width="0.6155104186945868" stroke-linecap="round" d="M 54.7718 91.8289 L 55.1477 90.3053 L 51.4906 91.1437 L 46.5712 94.3904 L 42.345 99.3623 L 39.7859 104.9474 L 44.9649 102.7905 L 49.6638 102.7687 L 52.3933 103.7374 L 54.8766 106.7745 L 56.9998 105.7908 L 61.0137 105.5844 L 65.5076 106.7087 L 69.2907 109.9577 L 71.3094 113.0511 L 73.5215 110.069 L 77.2778 107.0016 L 81.42 105.6457 L 86.5766 105.7213 L 88.3974 106.3414 L 90.1518 103.2619 L 92.1315 102.0408 L 94.7243 102.6183 L 97.4998 104.2822 L 96.1302 100.4475 L 93.9186 96.4983 L 91.1278 93.4475 L 87.9954 91.1516 L 83.4947 90.1811 L 85.6416 92.125 L 85.5629 93.8928 L 83.9298 95.9766 L 80.336 97.1258 L 77.1675 97.3698 L 74.5473 97.4072 L 72.0914 93.7552 L 71.6147 95.8134 L 70.1543 95.7484 L 68.6463 93.2938 L 67.6126 97.4836 L 63.5286 97.5328 L 59.4156 96.5025 L 56.0919 95.0453 L 54.7718 91.8289 Z "/>
    <path id="ID0.5698574706912041" fill="none" stroke="#313537" stroke-width="0.9522851460005861" stroke-linecap="round" d="M 49.5497 153.1383 L 48.8879 156.3392 L 58.6792 160.7097 L 65.4702 160.4935 L 71.473 163.8328 "/>
    <path id="ID0.5698574706912041" fill="none" stroke="#313537" stroke-width="0.8933066257048137" stroke-linecap="round" d="M 91.4201 154.2278 L 91.8721 157.4518 L 83.1747 161.4384 L 77.2685 160.9586 L 71.9108 164.0619 "/>
    <path id="ID0.8947288258932531" fill="#393C40" stroke="none" stroke-linecap="round" d="M 51.1069 141.2169 L 58.131 141.2437 L 65.6367 143.3045 L 71.1869 148.9442 L 64.1848 144.4173 L 53.4575 142.6944 L 48.2773 145.611 L 51.1069 141.2169 Z " stroke-width="0.47614257300029306"/>
    <path id="ID0.8947288258932531" fill="#393C40" stroke="none" stroke-linecap="round" d="M 89.8687 143.0222 L 83.657 142.7878 L 76.9447 144.3343 L 71.8299 149.1171 L 78.1875 145.3716 L 87.7361 144.2423 L 92.2093 147.0115 L 89.8687 143.0222 Z " stroke-width="0.4213738884176943"/>
    <path id="ID0.9897695370018482" fill="#393C40" stroke="none" stroke-linecap="round" d="M 54.3037 153.5466 L 47.768 152.9346 L 48.2928 148.3021 L 49.4103 151.8257 L 54.5009 152.0743 L 60.5692 155.7007 L 66.0511 155.4574 L 70.1153 156.9705 L 71.659 149.1445 L 71.6933 158.9559 L 66.1414 156.8403 L 60.2623 156.7183 L 54.3037 153.5466 Z " stroke-width="0.47614257300029306"/>
    <path id="ID0.9897695370018482" fill="#393C40" stroke="none" stroke-linecap="round" d="M 86.6103 154.4693 L 92.155 154.1415 L 91.8823 149.8173 L 90.8083 153.0505 L 86.4979 153.0939 L 81.237 156.2401 L 76.6142 155.8119 L 73.1244 157.0682 L 72.1086 149.7389 L 71.7179 158.855 L 76.4868 157.0937 L 81.4588 157.197 L 86.6103 154.4693 Z " stroke-width="0.4232251205631144"/>
    <path id="ID0.3524594851769507" fill="#393C40" stroke="none" stroke-linecap="round" d="M 65.4472 119.0607 L 71.3046 121.3731 L 75.804 119.1329 L 72.5593 122.8755 L 73.28 134.0346 L 82.3664 133.366 L 71.867 136.7199 L 60.3014 131.7887 L 69.9468 134.013 L 69.7764 122.7225 L 65.4472 119.0607 Z " stroke-width="0.47614257300029306"/>
    <path id="ID0.9214867809787393" fill="#393C40" stroke="none" stroke-linecap="round" d="M 51.1875 137.3371 L 54.2502 133.186 L 59.0304 132.3327 L 53.1001 136.972 L 52.8012 139.8947 L 57.8463 140.0471 L 65.9436 143.4299 L 57.0098 141.3394 L 51.1545 141.2178 L 51.1875 137.3371 Z " stroke-width="0.47614257300029306"/>
    <path id="ID0.9214867809787393" fill="#393C40" stroke="none" stroke-linecap="round" d="M 89.622 138.9159 L 86.9825 134.8388 L 82.6446 133.8397 L 87.8873 138.4935 L 88.0471 141.292 L 83.428 141.2415 L 76.7251 143.9429 L 84.1427 142.5062 L 89.5015 142.6175 L 89.622 138.9159 Z " stroke-width="0.4451788453890468"/>
    <path id="ID0.8679121839813888" fill="#2C2F31" stroke="none" stroke-linecap="round" d="M 67.4241 118.0054 L 71.1988 119.703 L 74.5652 118.1299 L 75.4975 119.1017 L 71.5148 121.686 L 65.8012 119.329 L 67.4241 118.0054 Z " stroke-width="0.47614257300029306"/>
    <path id="ID0.24770551454275846" fill="none" stroke="#313537" stroke-width="0.9522851460005861" stroke-linecap="round" d="M 71.4959 116.1296 L 76.0631 119.7963 L 83.5509 120.4281 L 91.1898 119.5151 L 96.5053 115.8156 "/>
    <path id="ID0.20603158557787538" fill="none" stroke="#313537" stroke-width="0.9522851460005861" stroke-linecap="round" d="M 38.2476 111.4286 L 45.158 116.9298 L 57.4683 120.4001 L 64.7403 119.9558 L 71.0103 116.157 "/>
    <g id="ID0.5272086253389716">
      <path id="ID0.24770551454275846" fill="none" stroke="#363A3D" stroke-width="0.9522850864087884" stroke-linecap="round" d="M 40.9879 144.0256 L 50.9553 141.0655 "/>
      <path id="ID0.24770551454275846" fill="none" stroke="#363A3D" stroke-width="0.9522850864087884" stroke-linecap="round" d="M 38.6542 132.0538 L 59.2053 126.2655 "/>
    </g>
    <g id="ID0.5272086253389716">
      <path id="ID0.24770551454275846" fill="none" stroke="#363A3D" stroke-width="0.9522850864087884" stroke-linecap="round" d="M 96.4797 144.2318 L 89.5807 142.2557 "/>
      <path id="ID0.24770551454275846" fill="none" stroke="#363A3D" stroke-width="0.9522850864087884" stroke-linecap="round" d="M 97.2029 132.8424 L 83.4298 127.7945 "/>
    </g>
    <g id="ID0.7887678607366979">
      <path id="ID0.753661650698632" fill="none" stroke="#313537" stroke-width="0.9522850864087884" stroke-linecap="round" d="M 65.9207 119.1896 L 71.1078 121.6786 L 75.2085 119.1444 "/>
      <g id="ID0.8167418288066983">
        <path id="ID0.9553722990676761" fill="none" stroke="#313537" stroke-width="1.0409107743576298" stroke-linecap="round" d="M 71.4063 136.5479 L 65.8392 134.2892 L 59.706 132.2569 L 54.9163 133.1099 L 51.3201 137.3214 L 51.2484 140.7727 "/>
        <path id="ID0.5982440118677914" fill="none" stroke="#313537" stroke-width="0.8540413396238158" stroke-linecap="round" d="M 60.0334 131.8556 L 58.9532 126.5387 L 64.3362 119.5913 "/>
      </g>
      <g id="ID0.7324484633281827">
        <path id="ID0.04993448918685317" fill="none" stroke="#313537" stroke-width="0.9522850864087884" stroke-linecap="round" d="M 71.1102 121.5595 L 71.6068 132.0472 L 71.7418 148.4805 L 71.6413 164.7898 "/>
        <g id="ID0.8167418288066983">
          <path id="ID0.9553722990676761" fill="none" stroke="#313537" stroke-width="0.9699703077304642" stroke-linecap="round" d="M 71.7502 136.4275 L 76.8128 135.1754 L 82.2815 133.384 L 86.457 134.4232 L 89.4528 138.7716 L 89.3811 142.2229 "/>
          <path id="ID0.5982440118677914" fill="none" stroke="#313537" stroke-width="0.7916616152166959" stroke-linecap="round" d="M 82.0361 133.0336 L 83.1927 127.7632 L 78.7336 120.6113 "/>
          <path id="ID0.3567589442245662" fill="none" stroke="#313537" stroke-width="0.8967655150693851" stroke-linecap="round" d="M 71.6263 149.1264 L 76.8586 144.2583 L 84.2253 142.5063 L 89.7521 142.6211 L 91.8958 147.309 L 92.0431 154.3367 L 86.4805 154.9355 L 80.7638 157.9124 L 75.8491 157.5722 L 71.6031 159.3176 L 65.8142 156.6971 L 60.2197 156.819 L 53.8569 153.5913 L 47.5704 152.7464 L 48.0511 145.7318 L 50.7016 141.1434 L 56.982 141.2738 L 65.2746 143.351 L 70.9911 148.4465 Z "/>
        </g>
      </g>
    </g>
    <g id="ID0.9312638868577778">
      <path id="ID0.2888958193361759" fill="#393C40" stroke="none" stroke-linecap="round" d="M 51.9592 161.4331 L 62.1308 163.729 L 61.4755 166.6319 L 51.3039 164.3359 L 51.9592 161.4331 Z " stroke-width="0.4761425459216224"/>
      <path id="ID0.2888958193361759" fill="#393C40" stroke="none" stroke-linecap="round" d="M 41.2081 159.1286 L 52.6308 161.829 L 51.9755 164.7319 L 41.8039 162.4359 L 41.2081 159.1286 Z " stroke-width="0.4761425459216224"/>
      <g id="ID0.36424446757882833">
        <path id="ID0.7359844641759992" fill="#8A7B59" stroke="none" d="M 54.8379 160.7806 L 56.3612 160.8122 L 56.2318 167.0484 L 54.7084 167.0167 L 54.8379 160.7806 Z " stroke-width="0.4761425432043942"/>
        <path id="ID0.7359844641759992" fill="#8A7B59" stroke="none" d="M 52.9879 160.3306 L 54.5112 160.3622 L 54.3818 166.5984 L 52.8584 166.5667 L 52.9879 160.3306 Z " stroke-width="0.4761425432043942"/>
        <path id="ID0.7359844641759992" fill="#8A7B59" stroke="none" d="M 51.0379 159.6306 L 52.5612 159.6622 L 52.4318 165.8984 L 50.9084 165.8667 L 51.0379 159.6306 Z " stroke-width="0.4761425432043942"/>
        <path id="ID0.7359844641759992" fill="#8A7B59" stroke="none" d="M 56.7379 161.3306 L 58.2612 161.3622 L 58.1318 167.5984 L 56.6084 167.5667 L 56.7379 161.3306 Z " stroke-width="0.4761425432043942"/>
      </g>
      <g id="ID0.1049797898158431">
        <path id="ID0.08871637750416994" fill="#8A7B59" stroke="none" stroke-linecap="round" d="M 42.9895 158.5074 L 49.3705 159.6877 L 49.2067 165.2801 L 43.0643 164.081 L 42.9895 158.5074 Z " stroke-width="0.4761425432043942"/>
        <path id="ID0.13805592898279428" fill="#76694C" stroke="none" stroke-linecap="round" d="M 42.7978 158.2378 L 49.4882 159.4245 L 49.5236 162.3065 L 42.8114 161.0241 L 42.7978 158.2378 Z " stroke-width="0.4761425432043942"/>
        <path id="ID0.3221200187690556" fill="#61563F" stroke="none" stroke-linecap="round" d="M 45.55 160.489 L 46.4208 160.8689 L 46.4618 162.6272 L 45.5129 162.2716 L 45.55 160.489 Z " stroke-width="0.5167888865886084"/>
        <path id="ID0.1420820001512766" fill="#BAA578" stroke="none" stroke-linecap="round" d="M 48.5518 164.3318 L 49.2956 162.9185 L 49.2952 165.2283 L 43.056 164.0986 L 48.5518 164.3318 Z " stroke-width="0.4761425432043942"/>
      </g>
      <path id="ID0.2888958193361759" fill="#393C40" stroke="none" stroke-linecap="round" d="M 89.5902 162.6025 L 82.1307 164.2611 L 82.5102 166.806 L 89.9697 165.1474 L 89.5902 162.6025 Z " stroke-width="0.3810469777360591"/>
      <path id="ID0.2888958193361759" fill="#393C40" stroke="none" stroke-linecap="round" d="M 96.1651 160.9157 L 89.1307 162.7111 L 89.5102 165.256 L 95.6833 163.8204 L 96.1651 160.9157 Z " stroke-width="0.3810469777360591"/>
      <path id="ID0.7359844641759992" fill="#8A7B59" stroke="none" d="M 87.5701 161.5255 L 86.4633 161.5025 L 86.3506 166.9273 L 87.4574 166.9503 L 87.5701 161.5255 Z " stroke-width="0.3816027988624045"/>
      <path id="ID0.7359844641759992" fill="#8A7B59" stroke="none" d="M 88.9701 161.0755 L 87.8633 161.0525 L 87.7506 166.4773 L 88.8574 166.5003 L 88.9701 161.0755 Z " stroke-width="0.3816027988624045"/>
      <path id="ID0.7359844641759992" fill="#8A7B59" stroke="none" d="M 90.4701 160.6255 L 89.3633 160.6025 L 89.2506 166.0273 L 90.3574 166.0503 L 90.4701 160.6255 Z " stroke-width="0.3816027988624045"/>
      <path id="ID0.7359844641759992" fill="#8A7B59" stroke="none" d="M 86.1201 162.0755 L 85.0133 162.0525 L 84.9006 167.4773 L 86.0074 167.5003 L 86.1201 162.0755 Z " stroke-width="0.3816027988624045"/>
      <g id="ID0.1049797898158431">
        <path id="ID0.08871637750416994" fill="#8A7B59" stroke="none" stroke-linecap="round" d="M 96.4077 159.8854 L 91.4448 160.7507 L 91.3742 165.9213 L 96.1538 165.0302 L 96.4077 159.8854 Z " stroke-width="0.40545296430512573"/>
        <path id="ID0.13805592898279428" fill="#76694C" stroke="none" stroke-linecap="round" d="M 96.6523 159.6886 L 91.4505 160.549 L 91.3217 163.2094 L 96.5437 162.2614 L 96.6523 159.6886 Z " stroke-width="0.40545296430512573"/>
        <path id="ID0.3221200187690556" fill="#61563F" stroke="none" stroke-linecap="round" d="M 94.5299 161.6428 L 93.8449 161.963 L 93.7513 163.5854 L 94.4957 163.2903 L 94.5299 161.6428 Z " stroke-width="0.4400648059527854"/>
        <path id="ID0.1420820001512766" fill="#BAA578" stroke="none" stroke-linecap="round" d="M 91.9982 165.1103 L 91.4743 163.7788 L 91.3933 165.912 L 96.245 165.0884 L 91.9982 165.1103 Z " stroke-width="0.40545296430512573"/>
      </g>
      <g id="ID0.6836685389280319">
        <path id="ID0.09357938077300787" fill="#857656" stroke="none" d="M 62.7247 160.9089 L 80.6952 161.2821 L 80.5618 167.7086 L 62.5913 167.3354 L 62.7247 160.9089 Z " stroke-width="0.42833206411122815"/>
        <path id="ID0.6492703901603818" fill="#7C6E50" stroke="none" stroke-linecap="round" d="M 63.3684 163.093 L 71.5158 166.3578 L 80.4106 163.4469 L 80.3221 167.7075 L 63.2799 167.3536 L 63.3684 163.093 Z " stroke-width="0.4761425432043942"/>
        <g id="ID0.9254062357358634">
          <g id="ID0.49943465692922473">
            <path id="ID0.140373723115772" fill="#968561" stroke="none" d="M 79.1906 160.0517 L 84.308 160.1579 L 84.1202 169.2027 L 79.0028 169.0964 L 79.1906 160.0517 Z " stroke-width="0.4761425432043942"/>
            <path id="ID0.8286363878287375" fill="#BAA578" stroke="none" stroke-linecap="round" d="M 79.1728 159.8742 L 84.4043 160.221 L 80.2469 160.8966 L 79.1789 163.0176 L 79.1728 159.8742 Z " stroke-width="0.4761425432043942"/>
            <path id="ID0.7362233307212591" fill="#8A7B59" stroke="none" stroke-linecap="round" d="M 79.07 165.968 L 81.7825 166.072 L 84.2845 163.6951 L 84.1683 169.2885 L 79.0033 169.1813 L 79.07 165.968 Z " stroke-width="0.4761425432043942"/>
          </g>
          <g id="ID0.49943465692922473">
            <path id="ID0.140373723115772" fill="#968561" stroke="none" d="M 64.1483 159.9906 L 59.0309 159.8843 L 58.8431 168.9291 L 63.9605 169.0354 L 64.1483 159.9906 Z " stroke-width="0.4761425432043942"/>
            <path id="ID0.8286363878287375" fill="#BAA578" stroke="none" stroke-linecap="round" d="M 64.2093 159.8013 L 58.9679 159.9306 L 63.0936 160.7782 L 64.0726 162.9417 L 64.2093 159.8013 Z " stroke-width="0.4761425432043942"/>
            <path id="ID0.7362233307212591" fill="#8A7B59" stroke="none" stroke-linecap="round" d="M 64.0589 165.8941 L 61.3445 165.8854 L 58.9433 163.4066 L 58.8272 169.0001 L 63.9922 169.1074 L 64.0589 165.8941 Z " stroke-width="0.4761425432043942"/>
          </g>
        </g>
      </g>
    </g>
  </g>
  <path id="ID0.5368814701214433" fill="#292D2E" stroke="none" stroke-linecap="round" d="M 25.7792 320.4692 L 27.3105 310.8265 L 32.2194 298.9976 L 43.02 305.3713 L 54.3433 315.5817 L 71.9142 325.7379 L 73.0619 332.2416 L 48.3784 333.6829 L 27.0957 330.2424 L 25.7792 320.4692 Z " stroke-width="0.7702165664764496"/>
  <g id="ID0.8333355090580881">
    <path id="ID0.9286923445761204" fill="#27282B" stroke="none" stroke-linecap="round" d="M 57.863 44.1601 L 76.6707 45.6361 L 77.1468 69.9908 L 92.3834 77.1329 L 69.5285 88.4889 L 32.8656 75.9426 L 52.7445 65.3484 L 57.863 44.1601 Z " stroke-width="0.4761425852775574"/>
    <path id="ID0.5448851804248989" fill="none" stroke="#1D1E1F" stroke-width="0.9522851705551147" stroke-linecap="round" d="M 54.1729 59.5871 L 52.935 65.158 L 70.0285 73.0143 L 76.8611 70.086 "/>
    <path id="ID0.262191956397146" fill="none" stroke="#1D1E1F" stroke-width="0.9522851705551147" stroke-linecap="round" d="M 56.9346 64.539 L 69.6476 70.7288 L 72.6473 69.6099 "/>
  </g>
  <g id="ID0.3450673264451325">
    <g id="ID0.9831569031812251">
      <path id="ID0.0877610077150166" fill="#2E3034" stroke="none" stroke-linecap="round" d="M 80.7251 13.3343 L 76.1527 0.2177 L 76.1527 28.7463 L 83.8241 28.7463 L 80.7251 13.3343 Z " stroke-width="0.5866066539949776"/>
      <path id="ID0.796130308881402" fill="#242628" stroke="none" stroke-linecap="round" d="M 81.033 13.3789 L 76.105 0.2623 L 79.6613 14.1004 L 80.6012 28.9877 L 83.7764 28.6926 L 81.033 13.3789 Z " stroke-width="0.5866066539949776"/>
    </g>
    <g id="ID0.9831569031812251">
      <path id="ID0.0877610077150166" fill="#2E3034" stroke="none" stroke-linecap="round" d="M 56.8249 13.4843 L 61.3973 0.3677 L 61.3973 28.8963 L 53.7259 28.8963 L 56.8249 13.4843 Z " stroke-width="0.5866066539949776"/>
      <path id="ID0.796130308881402" fill="#242628" stroke="none" stroke-linecap="round" d="M 56.417 13.5289 L 61.345 0.4123 L 57.7887 14.2504 L 56.6964 28.8098 L 53.6736 28.8426 L 56.417 13.5289 Z " stroke-width="0.5866066539949776"/>
    </g>
    <path id="ID0.8999492498114705" fill="#2E3034" stroke="none" stroke-linecap="round" d="M 74.3733 19.3124 C 78.7775 19.7915 83.5093 22.5019 85.6416 26.3848 C 88.0745 30.8179 86.1267 36.4165 86.4265 41.412 C 86.5997 43.1155 87.3923 44.8682 87.0615 46.4924 C 86.3879 49.7962 84.7139 52.8251 83.6323 56.0181 C 82.9236 58.1107 82.7691 60.4655 81.6001 62.3686 C 80.2843 64.6212 78.9416 67.7553 76.3419 68.211 C 72.488 68.8862 68.4115 67.0451 64.9619 65.2898 C 62.1281 63.8475 59.4746 61.6355 57.9002 58.8631 C 55.0806 53.7182 52.5196 48.0582 52.134 42.1741 C 51.7067 35.6514 50.9365 27.5853 55.6902 22.8687 C 59.9425 18.3273 67.8262 18.6032 74.3733 19.3124 Z " stroke-width="0.508037269115448"/>
    <path id="ID0.2441388238221407" fill="#AB8E85" stroke="none" d="M 72.0438 44.1745 C 76.1241 44.3416 81.5631 41.1768 84.2883 43.9234 C 86.7434 46.5142 83.3753 51.3755 82.4045 54.8492 C 81.4375 58.304 80.7493 62.0426 78.5114 64.8959 C 77.4439 66.1643 75.2186 66.2359 73.488 65.9634 C 70.3761 65.4698 67.3143 64.1864 64.7198 62.3955 C 62.0348 60.5432 58.487 58.5137 57.9156 55.2887 C 57.1923 51.2035 57.8566 45.8084 61.0552 43.2327 C 63.9889 40.9834 68.3743 44.0238 72.0438 44.1745 Z " stroke-width="1.2558400630950928"/>
    <path id="ID0.46721756737679243" fill="#A2887F" stroke="none" stroke-linecap="round" d="M 57.4363 45.2953 L 59.1129 45.9812 L 85.1244 45.6001 L 77.9102 50.6805 L 61.1704 48.2165 L 62.2881 50.6043 L 62.5421 56.2181 L 66.1746 63.4068 L 61.6023 56.7261 L 57.4363 45.2953 Z " stroke-width="0.508037269115448"/>
    <path id="ID0.8256730306893587" fill="none" stroke="#937B73" stroke-width="1.016074538230896" stroke-linecap="round" d="M 68.3886 57.0778 C 68.3886 57.0778 71.0878 56.4813 72.4529 56.2903 C 72.7943 56.2425 73.1326 56.3203 73.4689 56.3665 C 73.8109 56.4138 74.1401 56.5814 74.485 56.5697 C 75.1688 56.5469 75.8379 56.3497 76.5172 56.2649 C 76.854 56.2227 77.1939 56.1846 77.5332 56.1887 C 77.8731 56.1928 78.2181 56.2131 78.5493 56.2903 C 79.0939 56.4173 80.1496 56.7983 80.1496 56.7983 "/>
    <path id="ID0.7592270169407129" fill="none" stroke="#937B73" stroke-width="1.016074538230896" stroke-linecap="round" d="M 76.9693 58.4019 C 76.9693 58.4019 76.3475 58.7468 76.004 58.8083 C 75.6708 58.8682 75.3248 58.7235 74.988 58.7575 C 74.6491 58.792 74.3351 58.9688 73.9973 59.0115 C 73.6615 59.0542 73.3109 59.0867 72.9812 59.0115 C 72.7008 58.9475 72.2192 58.6051 72.2192 58.6051 "/>
    <path id="ID0.5332203092984855" fill="none" stroke="#937B73" stroke-width="1.016074538230896" stroke-linecap="round" d="M 71.0009 48.9532 C 71.0009 48.9532 70.3954 49.385 70.2897 49.7152 C 70.1525 50.1577 69.898 51.0026 70.3405 51.3156 C 70.9212 51.6056 71.6797 50.8786 72.3726 50.9345 C 73.0433 50.9914 74.354 51.4426 74.354 51.4426 "/>
    <path id="ID0.2278452254831791" fill="none" stroke="#937B73" stroke-width="1.016074538230896" stroke-linecap="round" d="M 75.3447 45.2953 C 75.3447 45.2953 76.2789 47.1578 76.7418 48.0895 C 76.8967 48.4015 77.0674 48.7073 77.199 49.0294 C 77.3306 49.3515 77.5429 49.6726 77.5292 50.0201 C 77.5155 50.3686 77.3092 50.6907 77.1228 50.9853 C 76.9983 51.1824 76.6148 51.468 76.6148 51.468 "/>
    <path id="ID0.6473136460408568" fill="none" stroke="#937B73" stroke-width="1.016074563998663" stroke-linecap="round" d="M 75.6945 62.2247 C 75.6945 62.2247 76.0113 62.8595 76.0622 63.2041 C 76.1113 63.5396 76.0513 63.8871 75.9877 64.2203 C 75.8923 64.7223 75.5871 65.7015 75.5871 65.7015 "/>
    <path id="ID0.11669129692018032" fill="#2E3034" stroke="none" stroke-linecap="round" d="M 59.3669 39.9609 L 82.6096 41.739 L 86.5469 44.4062 L 77.1482 49.1056 L 56.4457 46.5654 L 59.3669 39.9609 Z " stroke-width="0.508037269115448"/>
    <path id="ID0.14635155349969864" fill="#2E3034" stroke="none" stroke-linecap="round" d="M 56.6997 45.2191 L 58.554 45.6001 L 61.1958 50.8075 L 61.5006 56.5737 L 63.3296 60.384 L 66.2254 63.9149 L 57.9952 58.7075 L 56.6997 45.2191 Z " stroke-width="0.508037269115448"/>
    <path id="ID0.28340246016159654" fill="#1C1D1F" stroke="none" stroke-linecap="round" d="M 59.5308 36.8008 L 62.9604 38.3401 L 72.6283 39.2313 L 72.6283 44.9834 L 65.688 44.0382 L 61.8262 42.958 L 59.8008 41.4457 L 58.9367 39.7174 L 59.5308 36.8008 Z " stroke-width="0.5401026606559753"/>
    <path id="ID0.6101007834076881" fill="#FFFFFF" stroke="none" stroke-linecap="round" d="M 63.3473 39.3334 L 65.0001 39.7332 L 68.78 40.9344 L 69.3247 42.9027 L 64.07 41.4498 L 63.3473 39.3334 Z " stroke-width="0.4061061920009203"/>
    <path id="ID0.28340246016159654" fill="#1C1D1F" stroke="none" stroke-linecap="round" d="M 85.1357 36.8586 L 82.0774 38.2313 L 73.4563 39.0259 L 73.4563 44.1553 L 79.6452 43.3124 L 83.0888 42.3492 L 84.8949 41.0006 L 85.6655 39.4594 L 85.1357 36.8586 Z " stroke-width="0.4816249907016754"/>
    <path id="ID0.6101007834076881" fill="#FFFFFF" stroke="none" stroke-linecap="round" d="M 83.4526 38.9089 L 81.9112 39.4003 L 78.4053 40.7963 L 78.0217 42.7012 L 82.9101 40.9663 L 83.4526 38.9089 Z " stroke-width="0.3863867372519633"/>
    <g id="ID0.07940126257017255">
      <path id="ID0.46257128613069654" fill="#27282B" stroke="none" stroke-linecap="round" d="M 72.8045 39.0743 L 77.1482 49.0318 L 67.1145 47.7617 L 72.8045 39.0743 Z " stroke-width="0.508037269115448"/>
      <path id="ID0.9845890481956303" fill="#27282B" stroke="none" stroke-linecap="round" d="M 73.6173 39.1989 L 81.8983 46.5654 L 77.2244 49.1056 L 73.6173 39.1989 Z " stroke-width="0.508037269115448"/>
    </g>
    <path id="ID0.20071752788498998" fill="#202324" stroke="none" d="M 64.3686 34.5018 L 68.5091 37.0673 L 73.2593 38.2358 L 73.3355 39.6329 L 65.5625 38.3628 L 59.6693 36.0259 L 61.3966 34.2477 L 64.3686 34.5018 Z " stroke-width="0.508037269115448"/>
    <path id="ID0.20071752788498998" fill="#202324" stroke="none" d="M 81.4242 34.2614 L 78.3713 36.7084 L 73.1277 38.2698 L 73.0578 39.5516 L 80.1891 38.3864 L 85.6191 36.3588 L 84.081 34.1216 L 81.4242 34.2614 Z " stroke-width="0.46609798073768616"/>
    <path id="ID0.521138689480722" fill="none" stroke="#212325" stroke-width="0.9060627222061157" stroke-linecap="round" d="M 85.2139 36.5742 L 81.9747 38.1598 L 73.4351 39.4057 "/>
    <path id="ID0.17828734638169408" fill="none" stroke="#202324" stroke-width="1.016074538230896" stroke-linecap="round" d="M 77.0466 48.5467 L 74.1254 41.3072 C 73.1245 38.8879 73.2729 39.4564 73.0839 38.4876 C 73.0179 38.1493 73.2358 37.8129 73.2871 37.4715 C 73.3374 37.1352 73.4014 36.7953 73.3887 36.4555 C 73.376 36.112 73.2769 35.7762 73.2109 35.4394 C 73.1078 34.9136 72.8807 33.8645 72.8807 33.8645 "/>
    <path id="ID0.521138689480722" fill="none" stroke="#212325" stroke-width="1.016074538230896" stroke-linecap="round" d="M 59.8068 36.3055 L 63.4392 38.0836 L 73.0157 39.4807 "/>
    <path id="ID0.8012696979567409" fill="none" stroke="url(#grad_1)" stroke-width="1.016074538230896" stroke-linecap="round" d="M 85.1244 45.1429 L 77.6562 49.0548 L 59.0621 46.7178 L 61.0434 50.5789 L 61.3482 56.6753 L 63.2788 60.2824 L 66.1746 63.9149 "/>
    <path id="ID0.043594349175691605" fill="#D7E2FD" stroke="none" stroke-linecap="round" d="M 68.5289 41.9677 L 68.7575 40.85 L 69.2656 42.9075 L 66.6746 42.1709 L 68.5289 41.9677 Z " stroke-width="0.508037269115448"/>
    <path id="ID0.043594349175691605" fill="#D7E2FD" stroke="none" stroke-linecap="round" d="M 78.7225 41.8348 L 78.4574 40.8321 L 78.1024 42.7258 L 80.4161 41.9236 L 78.7225 41.8348 Z " stroke-width="0.4618642652203811"/>
  </g>
  <g id="ID0.4898335998877883">
    <path id="ID0.5368814701214433" fill="#303436" stroke="none" stroke-linecap="round" d="M 57.1334 323.903 L 59.6656 314.966 L 63.7858 305.549 L 73.9856 311.0083 L 85.5444 318.1925 L 103.4014 327.8369 L 104.7364 334.3047 L 80.1049 336.4584 L 58.7316 333.6341 L 57.1334 323.903 Z " stroke-width="0.7702165534733726"/>
    <g id="ID0.9492031107656658">
      <path id="ID0.05466862628236413" fill="#303436" stroke="none" stroke-linecap="round" d="M 72.9586 231.2848 L 99.6927 231.8196 L 91.7918 249.6183 L 89.4125 254.3328 L 85.8574 272.1236 L 76.0413 311.6762 L 60.271 310.9617 L 61.742 288.7611 L 60.4642 279.7961 L 60.6959 270.2795 L 64.9626 257.2952 L 66.9842 245.141 L 72.9586 231.2848 Z " stroke-width="0.7305889708030108"/>
      <path id="ID0.4490455654449761" fill="none" stroke="#272A2B" stroke-width="1.6585524170024866" stroke-linecap="round" d="M 72.7826 232.2292 L 99.57 232.3811 L 88.8713 255.3462 "/>
      <path id="ID0.10446935473009944" fill="none" stroke="#242728" stroke-width="1.6585524170024866" stroke-linecap="round" d="M 86.5138 267.4558 L 83.589 284.0381 L 71.9806 289.5457 "/>
      <path id="ID0.42170455446466804" fill="none" stroke="#242728" stroke-width="1.6585524170024866" stroke-linecap="round" d="M 82.3104 285.0055 L 78.4021 299.625 L 66.5448 305.2875 "/>
      <path id="ID0.047098892275244" fill="none" stroke="#242728" stroke-width="1.6585524170024866" stroke-linecap="round" d="M 67.3303 245.6676 L 66.2203 249.4482 L 69.2032 258.921 "/>
    </g>
  </g>
</svg>