<svg xmlns="http://www.w3.org/2000/svg" xmlns:xlink="http://www.w3.org/1999/xlink" version="1.1" width="406.996865272522" height="157.42575931549072" viewBox="-0.40552908182144165 -0.8333291411399841 406.996865272522 157.42575931549072">
  <!-- Exported by Scratch - http://scratch.mit.edu/ -->
  <g id="ID0.3009450575336814">
    <path id="ID0.6386144929565489" fill="#767B7F" stroke="none" d="M 11.4785 6.5527 L 405.5421 6.5527 L 405.5421 155.5432 L 11.4785 155.5432 L 11.4785 6.5527 Z " stroke-width="1.2061737737916896"/>
    <path id="ID0.10353772528469563" fill="#6A6F73" stroke="none" d="M 0.6437 0.2159 L 385.2118 0.2159 L 385.2118 17.5282 L 0.6437 17.5282 L 0.6437 0.2159 Z " stroke-width="1.0580781367651642"/>
    <path id="ID0.7202957817353308" fill="none" stroke="#6A6F73" stroke-width="2.0984582901000977" stroke-linecap="round" d="M 14.6775 37.5049 C 14.6775 37.5049 15.861 36.1881 16.2513 35.4065 C 16.5734 34.7622 16.6007 34.0068 16.7759 33.308 C 16.9512 32.6092 17.2114 31.9241 17.3006 31.2095 C 17.3876 30.516 17.3006 29.8099 17.3006 29.1111 C 17.3006 28.4123 16.8641 27.5582 17.3006 27.0126 C 17.7507 26.4502 18.7244 26.7409 19.399 26.488 C 20.1303 26.2142 20.7567 25.6854 21.4975 25.4388 C 22.8646 24.9834 24.2821 24.6718 25.6944 24.3896 C 26.048 24.3193 26.7436 24.3896 26.7436 24.3896 "/>
    <path id="ID0.08655582694336772" fill="none" stroke="#6A6F73" stroke-width="2.0984582901000977" stroke-linecap="round" d="M 24.6452 30.1603 C 24.6452 30.1603 24.2192 31.8978 24.1205 32.7834 C 24.0429 33.478 24.3954 34.2397 24.1205 34.8818 C 23.8289 35.5628 22.4114 36.0507 22.5467 36.4557 C 22.6737 36.8376 24.003 36.7306 24.6452 36.4557 C 25.3261 36.164 25.6157 35.3131 26.219 34.8818 C 26.8548 34.4275 27.6816 34.2869 28.3175 33.8326 C 28.9208 33.4014 29.8273 32.1948 29.8913 32.2588 C 29.9553 32.3228 29.2565 33.6952 28.8421 34.3572 C 28.3794 35.098 27.7309 35.7149 27.2682 36.4557 C 26.8538 37.1178 26.6733 37.9183 26.219 38.5542 C 25.7878 39.1575 25.0124 39.4848 24.6452 40.128 C 24.2874 40.7533 24.4783 41.6011 24.1205 42.2265 C 23.7533 42.8696 22.4418 43.5894 22.5467 43.8003 C 22.6516 44.0112 24.0198 43.6335 24.6452 43.2757 C 25.2883 42.9085 25.6157 42.1331 26.219 41.7018 C 26.8548 41.2475 27.6816 41.1069 28.3175 40.6526 C 28.9208 40.2214 29.3667 39.6034 29.8913 39.0788 C 30.4159 38.5542 30.8618 37.9362 31.4652 37.5049 C 32.101 37.0506 32.9708 36.9646 33.5636 36.4557 C 34.2267 35.887 34.9643 34.3572 35.1375 34.3572 C 35.3106 34.3572 34.8657 35.781 34.6128 36.4557 C 34.339 37.187 33.913 37.8554 33.5636 38.5542 C 33.2142 39.2529 32.8638 39.9538 32.5144 40.6526 C 32.165 41.3514 31.9195 42.1152 31.4652 42.7511 C 31.0339 43.3544 30.4159 43.8003 29.8913 44.3249 C 29.3667 44.8495 28.7487 45.2954 28.3175 45.8988 C 27.8631 46.5346 27.7226 47.3614 27.2682 47.9972 C 26.837 48.6005 26.2977 49.1398 25.6944 49.5711 C 25.0586 50.0254 24.1489 50.0673 23.5959 50.6203 C 23.3494 50.8669 23.5959 51.6695 23.5959 51.6695 "/>
    <path id="ID0.5409221323207021" fill="none" stroke="#6A6F73" stroke-width="2.0984582901000977" stroke-linecap="round" d="M 48.7774 30.1603 C 48.7774 30.1603 48.5057 31.5841 48.2528 32.2588 C 47.979 32.9901 47.618 33.6952 47.2036 34.3572 C 46.7409 35.098 46.0694 35.7013 45.6297 36.4557 C 44.8428 37.805 44.3707 39.3348 43.5313 40.6526 C 43.1336 41.2779 42.3499 41.598 41.9574 42.2265 C 41.4591 43.0239 41.4727 44.0972 40.9082 44.8495 C 40.3836 45.5483 39.3176 45.713 38.8098 46.4234 C 38.3911 47.0099 38.6429 47.8965 38.2851 48.5218 C 37.9179 49.165 37.1425 49.4924 36.7113 50.0957 C 36.257 50.7315 36.1311 51.5688 35.6621 52.1941 C 34.5478 53.6798 33.1785 54.9641 31.9898 56.391 C 31.4305 57.0626 30.9846 57.8264 30.4159 58.4895 C 29.9333 59.0519 29.053 60.1683 28.8421 60.0633 C 28.6312 59.9584 29.139 58.6479 29.3667 57.9649 C 29.8388 56.5484 30.3278 55.1288 30.9405 53.768 C 31.9027 51.6307 32.9393 49.5154 34.0882 47.4726 C 34.5163 46.7109 35.0934 46.0373 35.6621 45.3741 C 36.1447 44.8118 36.7533 44.3627 37.2359 43.8003 C 37.8046 43.1372 38.111 42.2265 38.8098 41.7018 C 39.5621 41.1374 40.5735 41.0345 41.4328 40.6526 C 42.1463 40.3357 42.8 39.8772 43.5313 39.6034 C 44.2059 39.3505 44.931 39.2529 45.6297 39.0788 C 46.3285 38.9046 47.5991 37.8459 47.7282 38.5542 C 48.108 40.6453 47.3862 42.8455 46.679 44.8495 C 46.3065 45.904 45.2006 46.5419 44.5805 47.4726 C 44.1472 48.1231 43.8051 48.8397 43.5313 49.5711 C 43.2784 50.2457 43.2952 51.0095 43.0067 51.6695 C 42.0676 53.8173 40.9072 55.8685 39.859 57.9649 C 39.5096 58.6637 39.2641 59.4275 38.8098 60.0633 C 38.3785 60.6667 37.6671 61.0339 37.2359 61.6372 C 36.7816 62.273 35.938 63.487 36.1867 63.7356 C 36.4354 63.9843 37.7322 63.2394 38.2851 62.6864 C 39.348 61.6236 39.8453 60.077 40.9082 59.0141 C 41.9711 57.9512 43.7684 55.985 44.5805 56.391 C 45.3423 56.7719 44.5375 59.2638 44.0559 60.588 C 43.803 61.2847 42.9448 61.5826 42.4821 62.1618 C 41.543 63.3348 40.0122 65.0661 39.859 65.8341 C 39.7688 66.2832 41.2261 65.0587 41.9574 64.7849 C 42.6321 64.532 43.5229 63.8605 44.0559 64.2603 C 44.5721 64.6474 44.3308 65.7166 44.0559 66.3587 C 43.7642 67.0397 42.4821 67.9326 42.4821 67.9326 "/>
    <path id="ID0.8510192781686783" fill="none" stroke="#6A6F73" stroke-width="2.0984582901000977" stroke-linecap="round" d="M 79.7297 78.4249 C 79.7297 78.4249 78.3678 80.2064 77.6312 81.0479 C 77.1433 81.6061 76.4886 82.0185 76.0574 82.6218 C 75.6031 83.2576 74.7312 84.1662 75.0082 84.7202 C 75.2558 85.2155 76.4645 84.9951 77.1066 84.7202 C 77.7876 84.4285 78.0772 83.5776 78.6805 83.1464 C 79.3163 82.6921 80.1431 82.5515 80.7789 82.0972 C 81.3822 81.6659 81.7495 80.9545 82.3528 80.5233 C 82.9886 80.069 83.6779 79.3639 84.4512 79.4741 C 85.1846 79.579 85.8215 80.3355 86.0251 81.0479 C 86.2234 81.7404 85.7533 82.4717 85.5005 83.1464 C 85.2266 83.8777 84.8006 84.5461 84.4512 85.2448 C 84.1018 85.9436 83.8563 86.7075 83.402 87.3433 C 82.9708 87.9466 81.8282 88.9602 81.8282 88.9171 C 81.8282 88.8741 82.8333 87.4818 83.402 86.8187 C 83.8846 86.2563 84.4932 85.8072 84.9758 85.2448 C 85.5445 84.5817 86.0649 83.8735 86.5497 83.1464 C 87.1152 82.2986 87.558 81.3711 88.1235 80.5233 C 88.6083 79.7962 89.2126 79.152 89.6974 78.4249 C 90.2629 77.5771 90.6595 76.617 91.2712 75.8018 C 91.7161 75.209 92.3204 74.7526 92.8451 74.2279 C 93.5438 73.5292 94.42 72.9678 94.9435 72.1295 C 95.3254 71.5188 95.0862 70.6417 95.4681 70.031 C 95.9917 69.1927 96.9738 68.7226 97.5666 67.9326 C 98.0356 67.3072 98.2664 66.5329 98.6158 65.8341 C 98.9652 65.1353 99.2506 64.3977 99.665 63.7356 C 100.1278 62.9949 100.8486 62.4189 101.2389 61.6372 C 101.561 60.993 101.4414 60.183 101.7635 59.5387 C 102.1538 58.7571 103.1642 57.4403 103.3373 57.4403 C 103.5105 57.4403 103.0656 58.8641 102.8127 59.5387 C 102.5389 60.27 102.0374 60.9059 101.7635 61.6372 C 101.5106 62.3118 101.4918 63.061 101.2389 63.7356 C 100.965 64.467 100.6041 65.172 100.1897 65.8341 C 99.727 66.5749 99.0785 67.1918 98.6158 67.9326 C 98.2014 68.5946 97.8404 69.2997 97.5666 70.031 C 97.3137 70.7057 97.3095 71.4611 97.042 72.1295 C 96.6065 73.2175 95.9927 74.229 95.4681 75.2772 C 95.1187 75.976 94.2636 77.3756 94.4189 77.3756 C 94.5742 77.3756 95.9245 76.0672 96.5174 75.2772 C 96.9864 74.6518 97.1123 73.8145 97.5666 73.1787 C 97.9978 72.5754 98.6158 72.1295 99.1404 71.6049 C 99.8392 70.9061 100.6461 70.2965 101.2389 69.5064 C 101.7079 68.8811 101.8338 68.0438 102.2881 67.408 C 102.7194 66.8046 103.3373 66.3587 103.862 65.8341 C 104.5608 65.1353 105.3099 64.4796 105.9604 63.7356 C 106.5354 63.0778 106.9656 62.3003 107.5343 61.6372 C 108.0169 61.0748 108.5835 60.588 109.1081 60.0633 C 109.6327 59.5387 110.1573 59.0141 110.682 58.4895 C 111.3807 57.7907 111.9746 56.2567 112.7804 56.391 C 113.5484 56.5191 113.8296 58.073 113.8296 59.0141 C 113.8296 59.7958 113.0543 60.3813 112.7804 61.1126 C 112.5275 61.7872 112.5087 62.5364 112.2558 63.211 C 111.9819 63.9423 111.556 64.6107 111.2066 65.3095 C 110.8572 66.0083 110.4312 66.6766 110.1573 67.408 C 109.9045 68.0826 109.8604 68.8234 109.6327 69.5064 C 109.3347 70.3993 108.9654 71.2702 108.5835 72.1295 C 108.2666 72.843 107.7808 73.4872 107.5343 74.2279 C 107.2531 75.0726 107.2027 75.9812 107.0097 76.851 C 106.8533 77.554 106.6603 78.2507 106.485 78.9495 C 106.3098 79.6483 106.1356 80.3491 105.9604 81.0479 C 105.7852 81.7467 105.6887 82.4717 105.4358 83.1464 C 105.162 83.8777 104.736 84.5461 104.3866 85.2448 C 104.0372 85.9436 103.5273 86.5858 103.3373 87.3433 C 103.1674 88.0211 103.5073 88.764 103.3373 89.4418 C 103.1474 90.1993 102.562 90.8089 102.2881 91.5402 C 102.0353 92.2149 102.1213 93.0133 101.7635 93.6387 C 101.3963 94.2819 100.0543 94.8075 100.1897 95.2125 C 100.3166 95.5944 101.6103 95.3825 102.2881 95.2125 C 103.0457 95.0226 103.7507 94.6176 104.3866 94.1633 C 104.9899 93.7321 105.5292 93.1928 105.9604 92.5895 C 106.4147 91.9536 106.6603 91.1898 107.0097 90.491 C 107.359 89.7922 107.7095 89.0913 108.0589 88.3925 C 108.4083 87.6937 108.7587 86.9929 109.1081 86.2941 C 109.4575 85.5953 109.9716 84.1956 110.1573 84.1956 C 110.3431 84.1956 110.1573 85.5953 110.1573 86.2941 C 110.1573 86.9929 110.1573 87.6937 110.1573 88.3925 C 110.1573 89.0913 110.2444 89.7975 110.1573 90.491 C 110.0682 91.2055 109.5866 92.5895 109.6327 92.5895 C 109.6789 92.5895 110.2276 91.1268 110.682 90.491 C 111.1132 89.8877 111.8886 89.5603 112.2558 88.9171 C 112.6136 88.2918 112.4226 87.444 112.7804 86.8187 C 113.1476 86.1755 113.923 85.8482 114.3543 85.2448 C 114.8086 84.609 115.2178 83.1464 115.4035 83.1464 C 115.5892 83.1464 115.4035 84.5461 115.4035 85.2448 C 115.4035 85.9436 115.4035 86.6445 115.4035 87.3433 C 115.4035 88.0421 115.4035 88.743 115.4035 89.4418 C 115.4035 90.1406 114.9082 91.2926 115.4035 91.5402 C 115.9575 91.8172 116.949 91.0439 117.5019 90.491 C 118.0549 89.938 118.2018 89.0913 118.5512 88.3925 C 118.9006 87.6937 119.1912 86.2941 119.6004 86.2941 C 119.9781 86.2941 120.0358 87.678 120.125 88.3925 C 120.2121 89.0861 120.125 89.7922 120.125 90.491 C 120.125 91.1898 120.125 91.8907 120.125 92.5895 C 120.125 92.7636 120.125 92.5895 120.125 92.5895 "/>
    <path id="ID0.8510192781686783" fill="none" stroke="#6A6F73" stroke-width="2.0984582901000977" stroke-linecap="round" d="M 177.8326 53.663 C 177.8326 53.663 176.4707 55.4446 175.7342 56.2861 C 175.2463 56.8443 174.5916 57.2567 174.1603 57.86 C 173.706 58.4958 172.8341 59.4044 173.1111 59.9584 C 173.3587 60.4537 174.5674 60.2333 175.2095 59.9584 C 175.8905 59.6667 176.1801 58.8158 176.7834 58.3846 C 177.4192 57.9303 178.246 57.7897 178.8818 57.3354 C 179.4852 56.9041 179.8524 56.1927 180.4557 55.7615 C 181.0915 55.3072 181.7809 54.6021 182.5542 54.7123 C 183.2876 54.8172 183.9244 55.5737 184.128 56.2861 C 184.3263 56.9786 183.8562 57.7099 183.6034 58.3846 C 183.3295 59.1159 182.9035 59.7843 182.5542 60.483 C 182.2048 61.1818 181.9592 61.9457 181.5049 62.5815 C 181.0737 63.1848 179.9311 64.1984 179.9311 64.1553 C 179.9311 64.1123 180.9362 62.72 181.5049 62.0569 C 181.9876 61.4945 182.5961 61.0454 183.0788 60.483 C 183.6474 59.8199 184.1679 59.1117 184.6526 58.3846 C 185.2181 57.5368 185.6609 56.6093 186.2265 55.7615 C 186.7112 55.0344 187.3156 54.3902 187.8003 53.663 C 188.3658 52.8153 188.7624 51.8552 189.3741 51.04 C 189.819 50.4472 190.4234 49.9907 190.948 49.4661 C 191.6468 48.7673 192.5229 48.206 193.0464 47.3677 C 193.4284 46.757 193.1891 45.8799 193.5711 45.2692 C 194.0946 44.4309 195.0767 43.9608 195.6695 43.1708 C 196.1385 42.5454 196.3694 41.7711 196.7187 41.0723 C 197.0681 40.3735 197.3535 39.6359 197.768 38.9738 C 198.2307 38.2331 198.9515 37.6571 199.3418 36.8754 C 199.6639 36.2312 199.5443 35.4212 199.8664 34.7769 C 200.2567 33.9952 201.2672 32.6785 201.4403 32.6785 C 201.6134 32.6785 201.1685 34.1023 200.9157 34.7769 C 200.6418 35.5082 200.1403 36.1441 199.8664 36.8754 C 199.6136 37.55 199.5947 38.2992 199.3418 38.9738 C 199.068 39.7052 198.707 40.4102 198.2926 41.0723 C 197.8299 41.8131 197.1815 42.43 196.7187 43.1708 C 196.3043 43.8328 195.9434 44.5379 195.6695 45.2692 C 195.4167 45.9439 195.4125 46.6993 195.1449 47.3677 C 194.7095 48.4557 194.0957 49.4672 193.5711 50.5154 C 193.2217 51.2141 192.3665 52.6138 192.5218 52.6138 C 192.6771 52.6138 194.0275 51.3054 194.6203 50.5154 C 195.0893 49.89 195.2152 49.0527 195.6695 48.4169 C 196.1007 47.8136 196.7187 47.3677 197.2434 46.8431 C 197.9421 46.1443 198.749 45.5347 199.3418 44.7446 C 199.8108 44.1193 199.9367 43.282 200.391 42.6461 C 200.8223 42.0428 201.4403 41.5969 201.9649 41.0723 C 202.6637 40.3735 203.4128 39.7177 204.0633 38.9738 C 204.6383 38.316 205.0685 37.5385 205.6372 36.8754 C 206.1198 36.313 206.6864 35.8262 207.211 35.3015 C 207.7356 34.7769 208.2603 34.2523 208.7849 33.7277 C 209.4837 33.0289 210.0775 31.4949 210.8833 31.6292 C 211.6514 31.7572 211.9326 33.3112 211.9326 34.2523 C 211.9326 35.034 211.1572 35.6195 210.8833 36.3508 C 210.6305 37.0254 210.6116 37.7746 210.3587 38.4492 C 210.0849 39.1805 209.6589 39.8489 209.3095 40.5477 C 208.9601 41.2465 208.5341 41.9148 208.2603 42.6461 C 208.0074 43.3208 207.9633 44.0616 207.7356 44.7446 C 207.4377 45.6375 207.0683 46.5084 206.6864 47.3677 C 206.3696 48.0812 205.8838 48.7254 205.6372 49.4661 C 205.356 50.3108 205.3056 51.2194 205.1126 52.0892 C 204.9562 52.7922 204.7632 53.4889 204.588 54.1877 C 204.4127 54.8865 204.2386 55.5873 204.0633 56.2861 C 203.8881 56.9849 203.7916 57.7099 203.5387 58.3846 C 203.2649 59.1159 202.8389 59.7843 202.4895 60.483 C 202.1401 61.1818 201.6302 61.824 201.4403 62.5815 C 201.2703 63.2593 201.6102 64.0022 201.4403 64.68 C 201.2504 65.4375 200.6649 66.0471 200.391 66.7784 C 200.1382 67.4531 200.2242 68.2515 199.8664 68.8769 C 199.4992 69.52 198.1572 70.0457 198.2926 70.4507 C 198.4195 70.8326 199.7132 70.6207 200.391 70.4507 C 201.1486 70.2608 201.8537 69.8558 202.4895 69.4015 C 203.0928 68.9703 203.6321 68.4309 204.0633 67.8276 C 204.5177 67.1918 204.7632 66.428 205.1126 65.7292 C 205.462 65.0304 205.8124 64.3295 206.1618 63.6307 C 206.5112 62.9319 206.8616 62.2311 207.211 61.5323 C 207.5604 60.8335 208.0746 59.4338 208.2603 59.4338 C 208.446 59.4338 208.2603 60.8335 208.2603 61.5323 C 208.2603 62.2311 208.2603 62.9319 208.2603 63.6307 C 208.2603 64.3295 208.3474 65.0356 208.2603 65.7292 C 208.1711 66.4437 207.6895 67.8276 207.7356 67.8276 C 207.7818 67.8276 208.3306 66.365 208.7849 65.7292 C 209.2161 65.1259 209.9915 64.7985 210.3587 64.1553 C 210.7165 63.53 210.5255 62.6822 210.8833 62.0569 C 211.2506 61.4137 212.0259 61.0863 212.4572 60.483 C 212.9115 59.8472 213.3207 58.3846 213.5064 58.3846 C 213.6921 58.3846 213.5064 59.7843 213.5064 60.483 C 213.5064 61.1818 213.5064 61.8827 213.5064 62.5815 C 213.5064 63.2803 213.5064 63.9812 213.5064 64.68 C 213.5064 65.3787 213.0112 66.5308 213.5064 66.7784 C 214.0604 67.0554 215.0519 66.2821 215.6049 65.7292 C 216.1578 65.1762 216.3047 64.3295 216.6541 63.6307 C 217.0035 62.9319 217.2941 61.5323 217.7033 61.5323 C 218.081 61.5323 218.1388 62.9162 218.2279 63.6307 C 218.315 64.3243 218.2279 65.0304 218.2279 65.7292 C 218.2279 66.428 218.2279 67.1289 218.2279 67.8276 C 218.2279 68.0018 218.2279 67.8276 218.2279 67.8276 "/>
  </g>
</svg>