<svg xmlns="http://www.w3.org/2000/svg" xmlns:xlink="http://www.w3.org/1999/xlink" version="1.1" width="216.593101978302" height="588.0458607673645" viewBox="3.2104475498199463 0.9075489044189453 216.593101978302 588.0458607673645">
  <!-- Exported by Scratch - http://scratch.mit.edu/ -->
  <g id="ID0.7085462282411754">
    <g id="ID0.5880346246995032">
      <path id="ID0.6829322893172503" fill="#EDD2B8" stroke="none" stroke-linecap="round" d="M 12.402 324.748 L 32.6098 317.0758 L 37.7191 327.8716 L 44.2735 339.5666 L 43.2848 350.1764 L 41.3359 358.7856 L 37.017 364.1163 L 33.1993 376.3735 L 24.5194 375.1824 L 22.599 371.1814 L 19.603 370.52 L 13.9993 365.029 L 8.0873 358.7449 L 5.0749 350.0556 L 7.8265 336.9346 L 12.402 324.748 Z " stroke-width="1.5222501921743408"/>
      <g id="ID0.9434720128774643">
        <path id="ID0.6507829907350242" fill="#282828" stroke="none" stroke-linecap="round" d="M 13.0964 203.2767 L 46.5705 225.5066 L 41.1389 256.724 L 36.9034 280.0264 L 34.1139 309.9612 L 37.2259 323.3228 L 9.437 325.3962 L 12.1623 311.7377 L 10.4469 293.2317 L 7.296 269.6231 L 8.0825 244.7763 L 13.0964 203.2767 Z " stroke-width="1.5222501921743408"/>
        <path id="ID0.9892375003546476" fill="none" stroke="#191919" stroke-width="3.7289051164999094" stroke-linecap="round" d="M 10.4709 323.9596 L 36.0081 321.1899 L 32.8376 304.9779 "/>
      </g>
    </g>
    <path id="ID0.7729651997797191" fill="#282828" stroke="none" stroke-linecap="round" d="M 17.9067 145.9663 L 62.0842 142.3148 L 59.408 180.1786 L 53.0969 200.3232 L 51.3335 217.5553 L 47.5083 233.6394 L 15.9128 229.3382 L 10.969 216.9552 L 16.6711 171.8824 L 17.9067 145.9663 Z " stroke-width="1.7877558903900799"/>
    <path id="ID0.4757494777441025" fill="#282828" stroke="none" stroke-linecap="round" d="M 37.9923 116.2299 L 54.4282 112.235 L 85.0174 121.3344 L 69.2663 168.8288 L 49.4061 178.1501 L 40.7316 180.1475 L 34.5681 175.7088 L 29.0895 170.1604 L 18.1321 165.2778 L 17.9039 155.0687 L 19.2735 139.977 L 25.437 124.4415 L 37.9923 116.2299 Z " stroke-width="0.9005166079741119"/>
  </g>
  <g id="ID0.7085462282411754">
    <g id="ID0.5880346246995032">
      <path id="ID0.6829322893172503" fill="#EDD2B8" stroke="none" stroke-linecap="round" d="M 210.612 323.3496 L 190.4042 315.6775 L 185.2949 326.4733 L 178.7405 338.1682 L 179.7292 348.778 L 181.6781 357.3873 L 185.997 362.718 L 189.8147 374.9752 L 198.4945 373.7841 L 200.415 369.783 L 203.411 369.1216 L 209.0147 363.6307 L 214.9267 357.3466 L 217.9391 348.6572 L 215.1875 335.5362 L 210.612 323.3496 Z " stroke-width="1.5222501921743408"/>
      <g id="ID0.9434720128774643">
        <path id="ID0.6507829907350242" fill="#282828" stroke="none" stroke-linecap="round" d="M 209.9175 201.8783 L 176.4434 224.1083 L 181.8751 255.3257 L 186.1106 278.6281 L 188.9001 308.5628 L 185.7881 321.9245 L 213.5769 323.9979 L 210.8517 310.3393 L 212.5671 291.8333 L 215.718 268.2248 L 214.9314 243.3779 L 209.9175 201.8783 Z " stroke-width="1.5222501921743408"/>
        <path id="ID0.9892375003546476" fill="none" stroke="#191919" stroke-width="3.7289051164999094" stroke-linecap="round" d="M 212.5431 322.5612 L 187.0059 319.7915 L 190.1764 303.5796 "/>
      </g>
    </g>
    <path id="ID0.7729651997797191" fill="#282828" stroke="none" stroke-linecap="round" d="M 205.1073 144.568 L 160.9298 140.9165 L 163.6059 178.7803 L 169.917 198.9249 L 171.6805 216.157 L 175.5057 232.241 L 207.1012 227.9399 L 212.045 215.5568 L 206.3429 170.4841 L 205.1073 144.568 Z " stroke-width="1.7877558903900799"/>
    <path id="ID0.4757494777441025" fill="#282828" stroke="none" stroke-linecap="round" d="M 184.9285 114.8315 L 168.4925 110.8367 L 137.9034 119.9361 L 153.6545 167.4304 L 173.5146 176.7517 L 182.1892 178.7492 L 188.3526 174.3105 L 193.8313 168.762 L 204.7886 163.8794 L 205.0169 153.6704 L 203.6472 138.5787 L 197.4837 123.0432 L 184.9285 114.8315 Z " stroke-width="0.9005166079741119"/>
  </g>
  <path id="ID0.05099705280736089" fill="#D5D5D5" stroke="#D5D5D5" stroke-width="3.728905200958252" stroke-linecap="round" d="M 81.8635 55.176 C 81.2743 55.4761 82.0536 57.6575 82.3296 59.0913 C 82.5664 60.3181 83.3028 61.4144 84.0076 62.4473 C 84.7142 63.4821 85.639 64.3584 86.5246 65.244 C 87.4102 66.1296 88.389 66.922 89.3213 67.761 C 90.2535 68.6 90.8669 70.3433 92.1179 70.278 C 93.369 70.2128 94.4112 68.7137 94.635 67.4813 C 95.0806 65.0277 94.7972 62.3802 93.9824 60.0235 C 93.5722 58.8396 92.2018 58.2411 91.1857 57.5065 C 90.1715 56.7738 89.1143 56.0261 87.9229 55.6421 C 86.1834 55.0809 84.071 53.7515 82.516 54.7098 Z "/>
  <g id="ID0.6660797297954559">
    <path id="ID0.5368814701214433" fill="#343434" stroke="none" stroke-linecap="round" d="M 124.2372 558.9171 L 129.613 542.454 L 137.9823 525.2136 L 156.5824 536.1355 L 177.5875 550.3709 L 210.1446 569.6536 L 212.1553 581.8015 L 166.1083 583.9996 L 126.498 577.1639 L 124.2372 558.9171 Z " stroke-width="1.4360322105294288"/>
    <g id="ID0.5077062323689461">
      <path id="ID0.05466862628236413" fill="#252525" stroke="none" stroke-linecap="round" d="M 126.2857 424.1143 L 166.7308 417.8119 L 163.4942 445.1882 L 162.1103 454.5351 L 162.0982 481.5407 L 166.7605 543.5359 L 127.1524 548.7008 L 124.659 513.745 L 120.3489 500.5696 L 118.1677 486.1613 L 121.1475 465.4523 L 120.9633 446.5917 L 126.2857 424.1143 Z " stroke-width="1.1183979958812016"/>
      <path id="ID0.5319394422695041" fill="none" stroke="#131313" stroke-width="3.728905200958252" stroke-linecap="round" d="M 166.8346 541.8057 L 127.215 549.2635 L 125.3506 527.8223 "/>
    </g>
    <g id="ID0.8820344842970371">
      <path id="ID0.3809091211296618" fill="#252525" stroke="none" stroke-linecap="round" d="M 105.3608 286.8481 L 164.4921 250.461 L 166.8463 295.6325 L 174.2824 386.0141 L 173.3825 406.0616 L 165.9227 427.0979 L 150.8332 423.0259 L 126.6826 425.432 L 125.4496 384.8579 L 122.2087 360.0553 L 105.3608 286.8481 Z " stroke-width="1.3621484984861876"/>
      <path id="ID0.9495224836282432" fill="none" stroke="#131313" stroke-width="3.728905200958252" stroke-linecap="round" d="M 174.2924 386.1239 L 174.2924 401.9718 L 170.5635 416.8874 L 154.7157 425.2774 L 152.8512 434.5997 "/>
    </g>
  </g>
  <g id="ID0.18228224432095885">
    <path id="ID0.5368814701214433" fill="#404040" stroke="none" stroke-linecap="round" d="M 52.8046 561.1062 L 58.5354 544.7633 L 67.2758 527.708 L 85.6352 539.0299 L 106.3273 553.7164 L 138.4596 573.6992 L 140.207 585.8877 L 94.1231 587.0889 L 54.67 579.3977 L 52.8046 561.1062 Z " stroke-width="1.4360322029405845"/>
    <g id="ID0.5077062323689461">
      <path id="ID0.05466862628236413" fill="#252525" stroke="none" stroke-linecap="round" d="M 60.1723 425.3115 L 100.8698 420.9259 L 96.3442 448.1188 L 94.5205 457.3899 L 93.2334 484.3648 L 94.9633 546.511 L 55.1555 549.8 L 54.3153 514.7655 L 50.6321 501.4012 L 49.1337 486.906 L 53.088 466.3608 L 53.7945 447.5126 L 60.1723 425.3115 Z " stroke-width="1.1183979832124726"/>
      <path id="ID0.5319394422695041" fill="none" stroke="#131313" stroke-width="3.728905186817094" stroke-linecap="round" d="M 95.1431 544.743 L 55.2155 550.3218 L 54.3656 528.8165 "/>
    </g>
    <g id="ID0.8820344842970371">
      <path id="ID0.3809091211296618" fill="#252525" stroke="none" stroke-linecap="round" d="M 55.3531 282.4423 L 106.6444 253.6423 L 106.8631 298.8745 L 110.0235 389.5064 L 108.178 409.489 L 99.7333 430.1497 L 84.8528 425.3697 L 59.5963 429.1275 L 56.0667 386.0356 L 54.3553 361.6917 L 55.3531 282.4423 Z " stroke-width="1.3621485273860374"/>
      <path id="ID0.9495224836282432" fill="none" stroke="#131313" stroke-width="3.728905186817094" stroke-linecap="round" d="M 109.9433 389.587 L 109.1951 405.4172 L 104.7661 420.1401 L 88.5397 427.7725 L 86.2372 436.9963 "/>
    </g>
  </g>
  <g id="ID0.8990198895335197">
    <path id="ID0.17576928716152906" fill="#DBDBDB" stroke="none" d="M 115.5622 105.5238 L 115.0961 105.5238 L 115.0961 105.5238 L 115.5622 105.5238 L 115.5622 105.5238 Z " stroke-width="1.864452600479126"/>
    <path id="ID0.4270821204409003" fill="#252525" stroke="none" stroke-linecap="round" d="M 111.5352 332.9891 L 111.0615 122.7603 L 143.4196 127.3835 L 156.1233 135.6388 L 161.2919 143.2936 L 173.941 164.8667 L 172.2042 184.3652 L 170.2171 194.5353 L 173.0563 207.4693 L 173.7319 217.6946 L 169.4707 230.4812 L 166.2503 240.1816 L 163.672 257.4428 L 165.62 298.3284 L 155.7165 313.4396 L 146.556 324.837 L 111.5352 332.9891 Z " stroke-width="0.8877452584292184"/>
    <path id="ID0.4270821204409003" fill="#252525" stroke="none" stroke-linecap="round" d="M 111.7584 333.2688 L 112.2321 123.0399 L 79.874 127.6632 L 67.1704 135.9184 L 62.0017 143.5732 L 49.3526 165.1464 L 51.0895 184.6449 L 53.0765 194.8149 L 50.2373 207.749 L 49.5617 217.9743 L 53.823 230.7609 L 57.0434 240.4613 L 59.6217 257.7225 L 57.6737 298.608 L 67.5772 313.7193 L 76.7376 325.1166 L 111.7584 333.2688 Z " stroke-width="0.8877452584292184"/>
    <path id="ID0.5114514343440533" fill="#282828" stroke="none" d="M 62.7657 125.2454 L 161.5817 125.2454 L 161.5817 289.7834 L 62.7657 289.7834 L 62.7657 125.2454 Z " stroke-width="1.8780754174442897"/>
    <path id="ID0.9286923445761204" fill="#D4D4D4" stroke="none" stroke-linecap="round" d="M 92.8843 99.6924 L 125.1094 64.7596 L 111.8376 99.9587 L 114.1902 175.4171 L 43.4369 121.2646 L 80.9885 101.1128 L 92.8843 99.6924 Z " stroke-width="0.8877452813195958"/>
    <path id="ID0.9286923445761204" fill="#D4D4D4" stroke="none" stroke-linecap="round" d="M 123.4183 97.6284 L 97.7181 65.2257 L 110.9899 100.4248 L 113.2536 174.9954 L 179.3907 121.7307 L 142.5048 99.7146 L 123.4183 97.6284 Z " stroke-width="0.8877452813195958"/>
    <path id="ID0.39874776685610414" fill="#1F2022" stroke="none" stroke-linecap="round" d="M 77.4299 102.8465 L 114.4759 121.2501 L 147.79 104.5427 L 155.2538 108.5287 L 114.1118 128.2892 L 70.4212 106.4933 L 77.4299 102.8465 Z " stroke-width="1.759408129318584"/>
    <path id="ID0.13444371055811644" fill="#1F1F1F" stroke="none" stroke-linecap="round" d="M 109.9688 124.6344 L 119.7572 124.1683 L 124.9777 177.3052 L 102.511 178.2374 L 109.9688 124.6344 Z " stroke-width="1.864452600479126"/>
    <path id="ID0.751046194229275" fill="#191919" stroke="none" stroke-linecap="round" d="M 105.7086 115.3774 L 114.4249 111.5833 L 122.8336 115.3774 L 123.6539 130.2464 L 115.4503 132.0923 L 105.7086 130.2464 L 105.7086 115.3774 Z " stroke-width="2.0508979049790526"/>
    <path id="ID0.7854711129330099" fill="#282828" stroke="none" stroke-linecap="round" d="M 88.9937 155.864 L 115.0961 172.178 L 140.7323 153.9996 L 137.0034 186.6275 L 93.6549 186.6275 L 88.9937 155.864 Z " stroke-width="1.864452600479126"/>
    <path id="ID0.562834897544235" fill="#282828" stroke="none" stroke-linecap="round" d="M 57.7641 289.1724 L 114.1638 278.4518 L 114.1638 316.2069 L 88.5276 318.5375 L 57.7641 289.1724 Z " stroke-width="1.864452600479126"/>
    <path id="ID0.562834897544235" fill="#282828" stroke="none" stroke-linecap="round" d="M 171.4025 289.6385 L 115.0028 278.9179 L 115.0028 316.6731 L 140.6391 319.0036 L 171.4025 289.6385 Z " stroke-width="1.864452600479126"/>
    <path id="ID0.6824178956449032" fill="none" stroke="#191919" stroke-width="3.728905200958252" stroke-linecap="round" d="M 114.6299 172.6441 L 114.1638 315.7408 "/>
    <path id="ID0.4144489667378366" fill="#313131" stroke="none" stroke-linecap="round" d="M 42.3824 115.7783 L 80.1376 100.8627 L 74.5442 141.4145 L 80.6037 253.2817 L 62.8914 336.7159 L 42.3824 327.3937 L 41.9163 333.9192 L 47.5097 244.4255 L 38.6535 163.7879 L 36.7891 133.4906 L 42.3824 115.7783 Z " stroke-width="1.864452600479126"/>
    <path id="ID0.5234400681219995" fill="#101010" stroke="none" d="M 118.762 183.2948 C 119.5314 183.2948 120.2291 183.6072 120.7342 184.1123 C 121.2393 184.6174 121.5517 185.3151 121.5517 186.0845 C 121.5517 186.8538 121.2393 187.5515 120.7342 188.0566 C 120.2291 188.5617 119.5314 188.8742 118.762 188.8742 C 117.9927 188.8742 117.295 188.5617 116.7899 188.0566 C 116.2848 187.5515 115.9724 186.8538 115.9724 186.0845 C 115.9724 185.3151 116.2848 184.6174 116.7899 184.1123 C 117.295 183.6072 117.9927 183.2948 118.762 183.2948 Z " stroke-width="1.1746051294114466"/>
    <path id="ID0.5234400681219995" fill="#101010" stroke="none" d="M 118.762 208.6513 C 119.5314 208.6513 120.2291 208.9638 120.7342 209.4689 C 121.2393 209.9739 121.5517 210.6717 121.5517 211.441 C 121.5517 212.2104 121.2393 212.9081 120.7342 213.4132 C 120.2291 213.9183 119.5314 214.2307 118.762 214.2307 C 117.9927 214.2307 117.295 213.9183 116.7899 213.4132 C 116.2848 212.9081 115.9724 212.2104 115.9724 211.441 C 115.9724 210.6717 116.2848 209.9739 116.7899 209.4689 C 117.295 208.9638 117.9927 208.6513 118.762 208.6513 Z " stroke-width="1.1746051294114466"/>
    <path id="ID0.5234400681219995" fill="#101010" stroke="none" d="M 118.762 267.4748 C 119.5314 267.4748 120.2291 267.7873 120.7342 268.2923 C 121.2393 268.7974 121.5517 269.4951 121.5517 270.2645 C 121.5517 271.0339 121.2393 271.7316 120.7342 272.2367 C 120.2291 272.7417 119.5314 273.0542 118.762 273.0542 C 117.9927 273.0542 117.295 272.7417 116.7899 272.2367 C 116.2848 271.7316 115.9724 271.0339 115.9724 270.2645 C 115.9724 269.4951 116.2848 268.7974 116.7899 268.2923 C 117.295 267.7873 117.9927 267.4748 118.762 267.4748 Z " stroke-width="1.1746051294114466"/>
    <path id="ID0.5234400681219995" fill="#101010" stroke="none" d="M 118.762 239.8809 C 119.5314 239.8809 120.2291 240.1934 120.7342 240.6984 C 121.2393 241.2035 121.5517 241.9012 121.5517 242.6706 C 121.5517 243.44 121.2393 244.1377 120.7342 244.6428 C 120.2291 245.1478 119.5314 245.4603 118.762 245.4603 C 117.9927 245.4603 117.295 245.1478 116.7899 244.6428 C 116.2848 244.1377 115.9724 243.44 115.9724 242.6706 C 115.9724 241.9012 116.2848 241.2035 116.7899 240.6984 C 117.295 240.1934 117.9927 239.8809 118.762 239.8809 Z " stroke-width="1.1746051294114466"/>
    <path id="ID0.5234400681219995" fill="#101010" stroke="none" d="M 118.5756 293.5771 C 119.345 293.5771 120.0427 293.8896 120.5478 294.3947 C 121.0528 294.8998 121.3653 295.5975 121.3653 296.3668 C 121.3653 297.1362 121.0528 297.8339 120.5478 298.339 C 120.0427 298.8441 119.345 299.1565 118.5756 299.1565 C 117.8062 299.1565 117.1085 298.8441 116.6034 298.339 C 116.0984 297.8339 115.7859 297.1362 115.7859 296.3668 C 115.7859 295.5975 116.0984 294.8998 116.6034 294.3947 C 117.1085 293.8896 117.8062 293.5771 118.5756 293.5771 Z " stroke-width="1.1746051294114466"/>
    <path id="ID0.4144489667378366" fill="#313131" stroke="none" stroke-linecap="round" d="M 179.5129 114.1935 L 141.7577 99.2779 L 147.3511 139.8297 L 141.2916 251.6969 L 159.0039 335.1311 L 179.5129 325.8089 L 179.979 332.3345 L 174.3857 242.8407 L 183.2418 162.2032 L 185.1063 131.9058 L 179.5129 114.1935 Z " stroke-width="1.864452600479126"/>
    <path id="ID0.8752945330925286" fill="none" stroke="#222222" stroke-width="3.728905200958252" stroke-linecap="round" d="M 43.3146 116.2444 L 37.2552 130.6939 L 43.3146 201.077 "/>
    <path id="ID0.8752945330925286" fill="none" stroke="#222222" stroke-width="3.728905200958252" stroke-linecap="round" d="M 179.8858 115.3122 L 185.9453 129.7617 L 179.8858 200.1448 "/>
    <path id="ID0.5234400681219995" fill="#101010" stroke="none" d="M 75.6932 268.5935 C 76.4626 268.5935 77.1603 268.9059 77.6653 269.411 C 78.1704 269.9161 78.4829 270.6138 78.4829 271.3832 C 78.4829 272.1525 78.1704 272.8503 77.6653 273.3553 C 77.1603 273.8604 76.4626 274.1729 75.6932 274.1729 C 74.9238 274.1729 74.2261 273.8604 73.721 273.3553 C 73.2159 272.8503 72.9035 272.1525 72.9035 271.3832 C 72.9035 270.6138 73.2159 269.9161 73.721 269.411 C 74.2261 268.9059 74.9238 268.5935 75.6932 268.5935 Z " stroke-width="1.1746051294114466"/>
    <path id="ID0.5234400681219995" fill="#101010" stroke="none" d="M 73.083 282.1108 C 73.8523 282.1108 74.55 282.4232 75.0551 282.9283 C 75.5602 283.4334 75.8726 284.1311 75.8726 284.9005 C 75.8726 285.6698 75.5602 286.3675 75.0551 286.8726 C 74.55 287.3777 73.8523 287.6901 73.083 287.6901 C 72.3136 287.6901 71.6159 287.3777 71.1108 286.8726 C 70.6057 286.3675 70.2933 285.6698 70.2933 284.9005 C 70.2933 284.1311 70.6057 283.4334 71.1108 282.9283 C 71.6159 282.4232 72.3136 282.1108 73.083 282.1108 Z " stroke-width="1.1746051294114466"/>
    <g id="ID0.20783481979742646">
      <path id="ID0.5848579816520214" fill="#737373" stroke="none" stroke-linecap="round" d="M 159.7497 167.2372 L 172.5212 164.4405 L 172.3348 171.7119 L 158.8175 172.6441 L 159.7497 167.2372 Z " stroke-width="1.864452600479126"/>
      <path id="ID0.13105127029120922" fill="none" stroke="#222222" stroke-width="3.728905200958252" stroke-linecap="round" d="M 156.3005 173.1102 L 164.6905 173.1102 L 174.4789 170.3135 "/>
    </g>
  </g>
  <path id="ID0.46110434643924236" fill="#D8BFA7" stroke="none" stroke-linecap="round" d="M 89.8617 65.1551 L 132.0257 65.1551 L 132.8973 100.4865 L 121.3485 105.8002 L 89.8617 102.6306 L 89.8617 65.1551 Z " stroke-width="2.0278453373021867"/>
  <path id="ID0.8999492498114705" fill="#EDD2B8" stroke="none" stroke-linecap="round" d="M 124.7614 6.0066 C 132.9728 6.8999 141.7951 11.9532 145.7705 19.1928 C 150.3067 27.4581 146.8087 37.8831 147.234 47.2103 C 147.4367 50.4545 147.8648 53.8437 147.0445 57.1087 C 146.1002 62.9928 143.8865 68.6041 142.0243 74.4427 C 140.7712 78.3783 140.415 82.7346 138.2355 86.2828 C 135.7822 90.4827 133.2787 96.3261 128.4318 97.1757 C 121.2463 98.4346 113.6459 95.0019 107.2143 91.7293 C 101.9308 89.0401 96.9835 84.916 94.0481 79.7471 C 88.791 70.1546 84.0161 59.6018 83.2972 48.6312 C 82.5006 36.4699 81.0646 21.431 89.9277 12.6371 C 97.8559 4.17 112.5547 4.6843 124.7614 6.0066 Z " stroke-width="0.9472113847732544"/>
  <path id="ID0.3135040863417089" fill="none" stroke="#D8BFA7" stroke-width="2.0797495611997507" stroke-linecap="round" d="M 125.5791 42.5248 C 125.5791 42.5248 126.3382 48.2641 126.6109 50.462 C 126.7013 51.1795 126.6136 51.9137 126.7008 52.6314 C 126.7875 53.3383 126.9651 54.0341 127.1316 54.727 C 127.2941 55.406 127.7526 56.0522 127.6888 56.7475 C 127.624 57.451 127.3996 58.3382 126.7712 58.6596 C 125.3097 59.4068 121.9488 59.6819 121.9488 59.6819 "/>
  <path id="ID0.8194515448994935" fill="#EDD2B8" stroke="none" stroke-linecap="round" d="M 83.2169 38.7628 C 84.8092 38.925 85.9614 39.9858 86.9067 41.9603 C 87.8519 43.9347 88.4374 46.6606 88.4374 49.6698 C 88.4374 52.679 87.8519 55.4049 86.9067 57.3793 C 85.9614 59.3538 84.8073 60.3643 83.2169 60.5768 C 81.757 60.7689 79.8814 59.969 79.2083 58.7124 C 77.9424 55.9194 78.1661 52.6063 77.9964 49.6698 C 77.8286 46.7836 77.1574 43.6103 78.2761 41.0001 C 79.1692 39.4079 81.5482 38.5931 83.2169 38.7628 Z " stroke-width="1.864452600479126"/>
  <path id="ID0.39239801559597254" fill="#DEDEDE" stroke="#DEDEDE" stroke-width="3.728905200958252" stroke-linecap="round" d="M 81.1135 37.9298 C 81.4938 38.8322 82.0662 42.5499 84.5627 44.735 C 85.5434 45.5945 86.9268 43.4038 87.639 42.3112 C 88.3382 41.2392 88.4594 39.8576 88.5713 38.5823 C 88.6794 37.3425 87.764 35.9814 88.2916 34.8534 C 88.8286 33.7068 90.6128 33.6341 91.3679 32.6161 C 92.11 31.6149 91.8117 30.0543 92.5798 29.0736 C 93.3555 28.0836 95.067 28.0799 95.7494 27.0227 C 96.4299 25.9674 95.9974 24.5094 96.3087 23.2938 C 96.6201 22.0763 96.7338 20.6482 97.6139 19.7514 C 98.5013 18.8452 100.0544 18.9813 101.1563 18.353 C 102.2508 17.7284 102.976 16.5072 104.1394 16.0224 C 105.2954 15.5414 106.6173 15.588 107.8684 15.5563 C 109.1138 15.5246 110.4394 16.2947 111.5973 15.836 C 112.7812 15.3662 113.2753 13.9082 114.2075 13.0393 C 115.1434 12.1668 115.9321 10.8486 117.1906 10.6155 C 118.4156 10.3881 119.5025 11.6223 120.7331 11.8274 C 121.958 12.0307 123.2482 11.5627 124.462 11.8274 C 125.7242 12.1034 126.8224 12.892 128.0044 13.4122 C 129.1492 13.9156 130.2026 14.9038 131.4537 14.9038 C 132.7905 14.9038 133.8495 13.5129 135.1826 13.4122 C 136.4597 13.3171 137.6996 13.9343 138.9115 14.3444 C 140.0973 14.7453 141.1563 16.1772 142.3607 15.836 C 143.5614 15.4948 144.5048 14.0088 144.5048 12.7597 C 144.5048 11.5105 143.3918 10.3881 142.3607 9.6833 C 141.3036 8.9618 139.8251 9.2153 138.6318 8.7511 C 137.4143 8.2775 136.4001 7.3602 135.1826 6.8866 C 133.9893 6.4224 132.6413 6.4298 131.4537 5.9544 C 130.2921 5.4902 129.3245 4.6176 128.1909 4.0899 C 127.0517 3.5586 125.9013 2.8967 124.6484 2.7848 C 123.3937 2.673 122.1762 3.3274 120.9195 3.4374 C 119.6834 3.5455 118.4323 3.4374 117.1906 3.4374 C 115.9489 3.4374 114.6941 3.2826 113.4617 3.4374 C 112.192 3.5959 110.9969 4.1645 109.7328 4.3696 C 108.5041 4.5691 107.2475 4.571 106.0039 4.6493 C 104.7622 4.7276 103.4701 4.4945 102.275 4.8357 C 101.0202 5.1937 100.0526 6.2546 98.8258 6.7002 C 97.6362 7.1327 96.3423 7.2129 95.0969 7.446 C 93.857 7.679 92.5332 7.6194 91.3679 8.0985 C 90.2139 8.574 89.3133 9.5248 88.2916 10.2426 C 87.2345 10.9847 85.9871 11.5198 85.122 12.48 C 84.2662 13.4309 83.5839 14.5999 83.2576 15.836 C 82.9425 17.0367 83.2259 18.3232 83.2576 19.5649 C 83.2893 20.8085 83.6976 22.0763 83.444 23.2938 C 83.1849 24.5449 82.3123 25.589 81.766 26.743 C 81.2253 27.886 80.4982 28.9692 80.1812 30.1923 C 79.868 31.3967 79.9016 32.6757 79.9016 33.9212 C 79.9016 34.5495 79.8531 35.0231 80.1812 35.7856 Z "/>
  <path id="ID0.3928942778147757" fill="none" stroke="#B7B7B7" stroke-width="3.728905200958252" stroke-linecap="round" d="M 113.4236 72.1238 C 113.4236 72.1238 116.032 71.6558 117.339 71.7509 C 118.6161 71.8441 119.8038 72.478 121.0679 72.6831 C 122.2965 72.8826 123.5811 73.235 124.7968 72.9628 C 126.0441 72.6831 126.8775 71.1841 128.1528 71.0983 C 129.4187 71.0126 130.461 72.2058 131.6952 72.4967 C 132.6014 72.7092 134.4919 72.5899 134.4919 72.5899 "/>
  <path id="ID0.8256730306893587" fill="none" stroke="#D8BFA7" stroke-width="1.894422747961262" stroke-linecap="round" d="M 113.7933 77.8272 C 113.7933 77.8272 117.3546 77.4708 119.5522 77.3279 C 120.1865 77.2881 120.8158 77.4407 121.4384 77.555 C 122.0712 77.6716 122.6703 78.0115 123.3138 78.0186 C 124.5894 78.0334 125.8521 77.7223 127.1244 77.6212 C 127.7553 77.5709 128.3915 77.5284 129.0233 77.5644 C 129.656 77.6005 130.2848 77.7236 130.9073 77.8388 C 132.2184 78.0742 135.2388 78.5078 135.2388 78.5078 "/>
  <path id="ID0.7592270169407129" fill="none" stroke="#D8BFA7" stroke-width="1.8944227695465088" stroke-linecap="round" d="M 128.4443 81.421 C 128.4443 81.421 127.2849 82.0641 126.6446 82.1787 C 126.0232 82.2905 125.3781 82.0205 124.7501 82.084 C 124.1183 82.1484 123.533 82.478 122.9031 82.5576 C 122.277 82.6372 121.6234 82.6978 121.0087 82.5576 C 120.4858 82.4383 119.5878 81.7998 119.5878 81.7998 "/>
  <path id="ID0.7592270169407129" fill="none" stroke="#D8BFA7" stroke-width="1.8944228186159804" stroke-linecap="round" d="M 127.5028 91.843 C 127.5028 91.843 127.6576 93.1598 127.5206 93.7957 C 127.388 94.413 126.8934 94.9072 126.7137 95.5123 C 126.5334 96.1212 126.6161 96.7879 126.4505 97.4009 C 126.2864 98.0103 126.0944 98.638 125.7313 99.1534 C 125.4223 99.5918 124.4908 100.1802 124.4908 100.1802 "/>
  <path id="ID0.3135040863417089" fill="none" stroke="#D8BFA7" stroke-width="2.079749571192438" stroke-linecap="round" d="M 117.8088 61.5793 C 117.8088 61.5793 112.2235 66.0728 110.0063 68.5328 C 109.0517 69.5974 108.0934 72.3801 108.0934 72.3801 "/>
  <path id="ID0.3135040863417089" fill="none" stroke="#D8BFA7" stroke-width="2.079749571192438" stroke-linecap="round" d="M 129.8412 61.1293 C 129.8412 61.1293 135.4265 65.6228 137.6437 68.0828 C 138.5983 69.1474 139.5566 71.9301 139.5566 71.9301 "/>
  <path id="ID0.3780672522261739" fill="none" stroke="#B7B7B7" stroke-width="3.728905200958252" stroke-linecap="round" d="M 99.0122 41.5629 C 99.0122 41.5629 100.2483 39.1596 101.3428 38.4865 C 102.4167 37.8265 103.8299 38.0521 105.0717 37.834 C 106.3134 37.6158 107.5421 37.2541 108.8006 37.1814 C 111.2803 37.036 116.2584 37.1814 116.2584 37.1814 "/>
  <path id="ID0.3780672522261739" fill="none" stroke="#B7B7B7" stroke-width="3.187098503112793" stroke-linecap="round" d="M 144.0195 40.7465 C 144.0195 40.7465 142.963 38.6924 142.0275 38.1171 C 141.1097 37.553 139.9017 37.7458 138.8404 37.5594 C 137.7791 37.3729 136.729 37.0638 135.6533 37.0016 C 133.5339 36.8773 129.2791 37.0016 129.2791 37.0016 "/>
  <path id="ID0.2118763979524374" fill="#D8BFA7" stroke="none" d="M 109.3319 46.471 C 111.133 46.471 112.7644 46.6228 113.9446 46.8671 C 115.1266 47.1115 115.8575 47.4494 115.8575 47.8227 C 115.8575 48.196 115.1266 48.5339 113.9446 48.7783 C 112.7644 49.0226 111.133 49.1744 109.3319 49.1744 C 107.5308 49.1744 105.8995 49.0226 104.7193 48.7783 C 103.5372 48.5339 102.8063 48.196 102.8063 47.8227 C 102.8063 47.4494 103.5372 47.1115 104.7193 46.8671 C 105.8995 46.6228 107.5308 46.471 109.3319 46.471 Z " stroke-width="1.5095278318382033"/>
  <path id="ID0.2118763979524374" fill="#D8BFA7" stroke="none" d="M 136.1819 46.4738 C 137.983 46.4738 139.6144 46.6466 140.7946 46.9246 C 141.9766 47.2027 142.7075 47.5872 142.7075 48.012 C 142.7075 48.4368 141.9766 48.8213 140.7946 49.0994 C 139.6144 49.3774 137.983 49.5502 136.1819 49.5502 C 134.3808 49.5502 132.7495 49.3774 131.5693 49.0994 C 130.3872 48.8213 129.6563 48.4368 129.6563 48.012 C 129.6563 47.5872 130.3872 47.2027 131.5693 46.9246 C 132.7495 46.6466 134.3808 46.4738 136.1819 46.4738 Z " stroke-width="1.5614368389292774"/>
  <path id="ID0.7788236327469349" fill="#FFFFFF" stroke="none" stroke-linecap="round" d="M 104.8607 44.1444 L 107.3777 43.7715 L 111.5727 43.3053 L 115.5813 43.4918 L 116.1406 47.6868 L 111.3863 48.8055 L 102.064 47.5936 L 104.8607 44.1444 Z " stroke-width="1.864452600479126"/>
  <g id="ID0.3830250068567693">
    <path id="ID0.7788236327469349" fill="#FFFFFF" stroke="none" stroke-linecap="round" d="M 141.012 44.5562 L 137.8424 43.5307 L 134.2067 43.5307 L 130.1981 43.7172 L 129.6388 47.9122 L 134.3931 49.0309 L 143.0629 48.1919 L 141.012 44.5562 Z " stroke-width="1.864452600479126"/>
    <g id="ID0.8607796453870833">
      <path id="ID0.036129117012023926" fill="#5E3B21" stroke="none" d="M 137.05 43.5307 C 137.8088 43.5307 138.4968 43.8384 138.9946 44.3362 C 139.4924 44.834 139.8001 45.522 139.8001 46.2808 C 139.8001 47.0396 139.4924 47.7276 138.9946 48.2254 C 138.4968 48.7232 137.8088 49.0309 137.05 49.0309 C 136.2912 49.0309 135.6032 48.7232 135.1054 48.2254 C 134.6076 47.7276 134.2999 47.0396 134.2999 46.2808 C 134.2999 45.522 134.6076 44.834 135.1054 44.3362 C 135.6032 43.8384 136.2912 43.5307 137.05 43.5307 Z " stroke-width="1.864452600479126"/>
      <path id="ID0.9171876185573637" fill="#191009" stroke="none" d="M 137.6559 44.7426 C 138.0419 44.7426 138.3905 44.8993 138.6441 45.1528 C 138.8977 45.4064 139.0543 45.755 139.0543 46.141 C 139.0543 46.5269 138.8977 46.8756 138.6441 47.1291 C 138.3905 47.3827 138.0419 47.5393 137.6559 47.5393 C 137.27 47.5393 136.9213 47.3827 136.6678 47.1291 C 136.4142 46.8756 136.2576 46.5269 136.2576 46.141 C 136.2576 45.755 136.4142 45.4064 136.6678 45.1528 C 136.9213 44.8993 137.27 44.7426 137.6559 44.7426 Z " stroke-width="1.864452600479126"/>
    </g>
  </g>
  <g id="ID0.7976634502410889">
    <path id="ID0.036129117012023926" fill="#5E3B21" stroke="none" d="M 111.8897 43.5231 C 112.6485 43.5231 113.3365 43.8308 113.8343 44.3286 C 114.3321 44.8264 114.6397 45.5144 114.6397 46.2732 C 114.6397 47.032 114.3321 47.72 113.8343 48.2178 C 113.3365 48.7156 112.6485 49.0233 111.8897 49.0233 C 111.1308 49.0233 110.4428 48.7156 109.945 48.2178 C 109.4472 47.72 109.1396 47.032 109.1396 46.2732 C 109.1396 45.5144 109.4472 44.8264 109.945 44.3286 C 110.4428 43.8308 111.1308 43.5231 111.8897 43.5231 Z " stroke-width="1.864452600479126"/>
    <path id="ID0.9171876185573637" fill="#191009" stroke="none" d="M 112.4956 44.7918 C 112.8815 44.7918 113.2302 44.9484 113.4838 45.202 C 113.7373 45.4555 113.8939 45.8042 113.8939 46.1901 C 113.8939 46.5761 113.7373 46.9247 113.4838 47.1783 C 113.2302 47.4319 112.8815 47.5885 112.4956 47.5885 C 112.1097 47.5885 111.761 47.4319 111.5074 47.1783 C 111.2539 46.9247 111.0973 46.5761 111.0973 46.1901 C 111.0973 45.8042 111.2539 45.4555 111.5074 45.202 C 111.761 44.9484 112.1097 44.7918 112.4956 44.7918 Z " stroke-width="1.864452600479126"/>
  </g>
</svg>