<svg xmlns="http://www.w3.org/2000/svg" xmlns:xlink="http://www.w3.org/1999/xlink" version="1.1" width="122.66975230986488" height="341.51887340361486" viewBox="-0.5848761698335991 0.04112383219295879 122.66975230986488 341.51887340361486">
  <!-- Exported by Scratch - http://scratch.mit.edu/ -->
  <g id="ID0.3168069599196315">
    <path id="ID0.3809091211296618" fill="#3E4246" stroke="none" stroke-linecap="round" d="M 56.2785 169.8033 L 87.9936 150.2871 L 91.0275 197.0687 L 94.5656 222.3606 L 89.2946 240.2102 L 80.6676 242.8424 L 67.7144 244.1329 L 67.0531 222.371 L 65.3148 209.0681 L 56.2785 169.8033 Z " stroke-width="0.7305889665074583"/>
    <g id="ID0.38464318960905075">
      <path id="ID0.5368814701214433" fill="#303436" stroke="none" stroke-linecap="round" d="M 63.8528 327.2777 L 66.7362 318.4477 L 71.2251 309.2008 L 81.2012 315.0588 L 92.4673 322.6939 L 109.9293 333.0362 L 111.0078 339.5518 L 86.3104 340.7307 L 65.0654 337.0644 L 63.8528 327.2777 Z " stroke-width="0.7702165290554439"/>
      <path id="ID0.05466862628236413" fill="#303436" stroke="none" stroke-linecap="round" d="M 66.5675 237.4585 L 92.9881 233.3415 L 88.2989 252.242 L 86.7746 257.2981 L 86.3639 275.436 L 83.5671 316.0924 L 67.9124 318.128 L 65.5049 296.0094 L 62.6893 287.4026 L 61.2645 277.9904 L 63.211 264.4624 L 63.0907 252.1418 L 66.5675 237.4585 Z " stroke-width="0.7305889665074583"/>
      <path id="ID0.4490455654449761" fill="none" stroke="#272A2B" stroke-width="1.6585523586930009" stroke-linecap="round" d="M 66.3337 238.3168 L 92.7403 233.8135 L 86.1932 258.2878 "/>
      <path id="ID0.10446935473009944" fill="none" stroke="#242728" stroke-width="1.6585523586930009" stroke-linecap="round" d="M 85.975 270.6228 L 85.975 287.4611 L 75.4996 294.9013 "/>
      <path id="ID0.42170455446466804" fill="none" stroke="#242728" stroke-width="1.6585523586930009" stroke-linecap="round" d="M 84.8838 288.6359 L 83.5744 303.712 L 72.8808 311.348 "/>
      <path id="ID0.047098892275244" fill="none" stroke="#242728" stroke-width="1.6585523586930009" stroke-linecap="round" d="M 63.3737 252.5139 L 62.9372 256.4298 L 67.5202 265.2406 "/>
    </g>
  </g>
  <g id="ID0.9602425838820636">
    <g id="ID0.17693647183477879">
      <path id="ID0.7729651997797191" fill="#3E4246" stroke="none" stroke-linecap="round" d="M 109.2128 106.0033 L 89.0054 107.228 L 92.6795 124.1696 L 95.5371 137.8453 L 99.4153 143.5605 L 102.8853 147.0304 L 115.5404 143.5605 L 116.9692 137.6411 L 111.4581 117.6379 L 109.2128 106.0033 Z " stroke-width="0.816459596157074"/>
      <path id="ID0.9716172609478235" fill="#393C40" stroke="none" stroke-linecap="round" d="M 105.0489 111.841 L 109.9476 109.4733 L 108.0698 102.9416 L 90.0668 112.6575 L 93.0877 115.6784 L 98.5988 117.5562 L 105.0489 111.841 Z " stroke-width="0.816459596157074"/>
      <g id="ID0.38066427363082767">
        <path id="ID0.4757494777441025" fill="#1D1E1F" stroke="none" stroke-linecap="round" d="M 99.8337 81.0922 L 91.2631 78.9496 L 75.3123 83.83 L 83.5258 109.3036 L 93.8819 114.3031 L 98.4053 115.3745 L 101.6192 112.9938 L 104.4761 110.0179 L 110.1898 107.3991 L 110.3088 101.9234 L 109.5946 93.829 L 106.3807 85.4965 L 99.8337 81.0922 Z " stroke-width="0.476142555475235"/>
        <path id="ID0.6007084371522069" fill="none" stroke="#0D0D0D" stroke-width="0.95228511095047" stroke-linecap="round" d="M 109.7136 107.7562 L 104.5951 110.0179 L 100.3098 113.708 L 98.4053 115.4935 L 93.8819 114.3031 L 89.4776 112.0415 "/>
      </g>
    </g>
    <g id="ID0.7397577832452953">
      <path id="ID0.6726378230378032" fill="#393C40" stroke="none" stroke-linecap="round" d="M 116.2568 134.7835 L 100.0501 143.8462 L 100.8666 146.1323 L 116.6651 136.9063 L 116.2568 134.7835 Z " stroke-width="0.816459596157074"/>
      <path id="ID0.6507829907350242" fill="#1D1E1F" stroke="none" stroke-linecap="round" d="M 119.6227 135.8041 L 100.64 146.0099 L 101.0482 164.9925 L 103.0894 175.6065 L 103.0894 191.7316 L 102.477 198.2633 L 114.5198 200.3044 L 114.7239 193.7727 L 116.561 183.9752 L 119.4186 171.5242 L 121.2556 161.9308 L 119.6227 135.8041 Z " stroke-width="0.816459596157074"/>
      <path id="ID0.6829322893172503" fill="#1D1E1F" stroke="none" stroke-linecap="round" d="M 114.928 199.8962 L 104.5182 194.7933 L 101.2523 200.3044 L 97.17 206.2238 L 97.17 211.939 L 97.7824 216.6336 L 99.8235 219.6953 L 101.2523 226.4311 L 105.947 226.227 L 107.1717 224.1859 L 108.8046 223.9817 L 112.0704 221.3283 L 115.5404 218.2665 L 117.5815 213.776 L 116.7651 206.632 L 114.928 199.8962 Z " stroke-width="0.816459596157074"/>
      <path id="ID0.47767175547778606" fill="none" stroke="#0D0D0D" stroke-width="1.632919192314148" stroke-linecap="round" d="M 119.6227 139.7639 L 119.3369 135.6816 L 100.7216 146.0099 L 101.0482 160.0121 "/>
      <path id="ID0.5922487881034613" fill="#282A2B" stroke="none" stroke-linecap="round" d="M 120.5863 169.8438 L 113.5239 164.2102 L 107.4005 164.2919 L 101.1954 170.252 L 102.6242 185.2341 L 107.3188 192.7863 L 110.7888 192.7863 L 116.9122 185.4382 L 120.5863 169.8438 Z " stroke-width="0.816459596157074"/>
      <path id="ID0.36820242274552584" fill="#151616" stroke="none" stroke-linecap="round" d="M 114.3442 172.609 L 105.853 172.5274 L 108.5473 184.0395 L 110.0578 183.9578 L 114.3442 172.609 Z " stroke-width="0.816459596157074"/>
      <path id="ID0.13569410238415003" fill="none" stroke="#232425" stroke-width="1.632919192314148" stroke-linecap="round" d="M 115.0505 183.6078 L 109.3353 190.7927 L 104.1099 183.4445 "/>
      <path id="ID0.024502143263816833" fill="none" stroke="#0D0D0D" stroke-width="1.632919192314148" stroke-linecap="round" d="M 120.1534 169.5647 L 113.8258 164.2577 L 107.784 164.0128 L 101.4973 169.9729 L 102.3954 178.5458 "/>
    </g>
  </g>
  <path id="ID0.4270821204409003" fill="#3E4246" stroke="none" stroke-linecap="round" d="M 60.5901 194.4011 L 60.3361 81.6448 L 77.6913 84.1245 L 84.505 88.5522 L 87.2772 92.6578 L 94.0615 104.2286 L 93.13 114.6866 L 92.0642 120.1413 L 93.587 127.0785 L 93.9494 132.5629 L 91.6639 139.421 L 89.9366 144.6238 L 88.5537 153.8818 L 89.5985 175.8108 L 84.2868 183.9158 L 79.3736 190.0287 L 60.5901 194.4011 Z " stroke-width="0.47614257300029306"/>
  <g id="ID0.9602425838820636">
    <g id="ID0.17693647183477879">
      <path id="ID0.7729651997797191" fill="#3E4246" stroke="none" stroke-linecap="round" d="M 12.2872 106.2533 L 32.4946 107.478 L 28.8205 124.4196 L 25.9629 138.0953 L 22.0847 143.8105 L 18.6147 147.2804 L 5.9596 143.8105 L 4.5308 137.8911 L 10.0419 117.8879 L 12.2872 106.2533 Z " stroke-width="0.816459596157074"/>
      <path id="ID0.9716172609478235" fill="#393C40" stroke="none" stroke-linecap="round" d="M 16.4511 112.091 L 11.5524 109.7233 L 13.4302 103.1916 L 31.4332 112.9075 L 28.4123 115.9284 L 22.9012 117.8062 L 16.4511 112.091 Z " stroke-width="0.816459596157074"/>
      <g id="ID0.38066427363082767">
        <path id="ID0.4757494777441025" fill="#1D1E1F" stroke="none" stroke-linecap="round" d="M 21.7163 81.2922 L 30.2869 79.1496 L 46.2377 84.03 L 38.0242 109.5036 L 27.6681 114.5031 L 23.1447 115.5745 L 19.9308 113.1938 L 17.0739 110.2179 L 11.3602 107.5991 L 11.2412 102.1234 L 11.9554 94.029 L 15.1693 85.6965 L 21.7163 81.2922 Z " stroke-width="0.476142555475235"/>
        <path id="ID0.6007084371522069" fill="none" stroke="#0D0D0D" stroke-width="0.95228511095047" stroke-linecap="round" d="M 11.8364 107.9562 L 16.9549 110.2179 L 21.2402 113.908 L 23.1447 115.6935 L 27.6681 114.5031 L 32.0724 112.2415 "/>
      </g>
    </g>
    <g id="ID0.7397577832452953">
      <path id="ID0.6726378230378032" fill="#393C40" stroke="none" stroke-linecap="round" d="M 5.1932 134.9835 L 21.3999 144.0462 L 20.5834 146.3323 L 4.7849 137.1063 L 5.1932 134.9835 Z " stroke-width="0.816459596157074"/>
      <path id="ID0.6507829907350242" fill="#1D1E1F" stroke="none" stroke-linecap="round" d="M 1.8773 136.0541 L 20.86 146.2599 L 20.4518 165.2425 L 18.4106 175.8565 L 18.4106 191.9816 L 19.023 198.5133 L 6.9802 200.5544 L 6.7761 194.0227 L 4.939 184.2252 L 2.0814 171.7742 L 0.2444 162.1808 L 1.8773 136.0541 Z " stroke-width="0.816459596157074"/>
      <path id="ID0.6829322893172503" fill="#1D1E1F" stroke="none" stroke-linecap="round" d="M 6.572 200.1462 L 16.9818 195.0433 L 20.2477 200.5544 L 24.33 206.4738 L 24.33 212.189 L 23.7176 216.8836 L 21.6765 219.9453 L 20.2477 226.6811 L 15.553 226.477 L 14.3283 224.4359 L 12.6954 224.2317 L 9.4296 221.5783 L 5.9596 218.5165 L 3.9185 214.026 L 4.7349 206.882 L 6.572 200.1462 Z " stroke-width="0.816459596157074"/>
      <path id="ID0.47767175547778606" fill="none" stroke="#0D0D0D" stroke-width="1.632919192314148" stroke-linecap="round" d="M 1.8773 140.0139 L 2.1631 135.9316 L 20.7784 146.2599 L 20.4518 160.2621 "/>
      <path id="ID0.5922487881034613" fill="#282A2B" stroke="none" stroke-linecap="round" d="M 0.8637 170.0938 L 7.9261 164.4602 L 14.0495 164.5419 L 20.2546 170.502 L 18.8258 185.4841 L 14.1312 193.0363 L 10.6612 193.0363 L 4.5378 185.6882 L 0.8637 170.0938 Z " stroke-width="0.816459596157074"/>
      <path id="ID0.36820242274552584" fill="#151616" stroke="none" stroke-linecap="round" d="M 7.1558 172.859 L 15.647 172.7774 L 12.9527 184.2895 L 11.4422 184.2078 L 7.1558 172.859 Z " stroke-width="0.816459596157074"/>
      <path id="ID0.13569410238415003" fill="none" stroke="#232425" stroke-width="1.632919192314148" stroke-linecap="round" d="M 6.4495 183.8578 L 12.1647 191.0427 L 17.3901 183.6945 "/>
      <path id="ID0.024502143263816833" fill="none" stroke="#0D0D0D" stroke-width="1.632919192314148" stroke-linecap="round" d="M 1.3466 169.8147 L 7.6742 164.5077 L 13.716 164.2628 L 20.0027 170.2229 L 19.1046 178.7958 "/>
    </g>
  </g>
  <path id="ID0.4270821204409003" fill="#3E4246" stroke="none" stroke-linecap="round" d="M 60.7099 194.4511 L 60.9639 81.6948 L 43.6087 84.1745 L 36.795 88.6022 L 34.0228 92.7078 L 27.2385 104.2786 L 28.17 114.7366 L 29.2358 120.1913 L 27.713 127.1285 L 27.3506 132.6129 L 29.6361 139.471 L 31.3634 144.6738 L 32.7463 153.9318 L 31.7015 175.8608 L 37.0132 183.9658 L 41.9264 190.0787 L 60.7099 194.4511 Z " stroke-width="0.47614257300029306"/>
  <g id="ID0.3168069599196315">
    <path id="ID0.3809091211296618" fill="#3E4246" stroke="none" stroke-linecap="round" d="M 64.9715 169.8033 L 33.2564 150.2871 L 30.2225 197.0687 L 26.6844 222.3606 L 31.9554 240.2102 L 40.5824 242.8424 L 53.5356 244.1329 L 54.1969 222.371 L 55.9352 209.0681 L 64.9715 169.8033 Z " stroke-width="0.7305889665074583"/>
    <g id="ID0.38464318960905075">
      <path id="ID0.5368814701214433" fill="#303436" stroke="none" stroke-linecap="round" d="M 57.4472 327.2777 L 54.5638 318.4477 L 50.0749 309.2008 L 40.0988 315.0588 L 28.8327 322.6939 L 11.3707 333.0362 L 10.2922 339.5518 L 34.9896 340.7307 L 56.2346 337.0644 L 57.4472 327.2777 Z " stroke-width="0.7702165290554439"/>
      <path id="ID0.05466862628236413" fill="#303436" stroke="none" stroke-linecap="round" d="M 54.6325 237.4585 L 28.2119 233.3415 L 32.9011 252.242 L 34.4254 257.2981 L 34.8361 275.436 L 37.6329 316.0924 L 53.2876 318.128 L 55.6951 296.0094 L 58.5107 287.4026 L 59.9355 277.9904 L 57.989 264.4624 L 58.1093 252.1418 L 54.6325 237.4585 Z " stroke-width="0.7305889665074583"/>
      <path id="ID0.4490455654449761" fill="none" stroke="#272A2B" stroke-width="1.6585523586930009" stroke-linecap="round" d="M 54.9163 238.3168 L 28.5097 233.8135 L 35.0568 258.2878 "/>
      <path id="ID0.10446935473009944" fill="none" stroke="#242728" stroke-width="1.6585523586930009" stroke-linecap="round" d="M 35.275 270.6228 L 35.275 287.4611 L 45.7504 294.9013 "/>
      <path id="ID0.42170455446466804" fill="none" stroke="#242728" stroke-width="1.6585523586930009" stroke-linecap="round" d="M 36.3662 288.6359 L 37.6756 303.712 L 48.3692 311.348 "/>
      <path id="ID0.047098892275244" fill="none" stroke="#242728" stroke-width="1.6585523586930009" stroke-linecap="round" d="M 57.8263 252.5139 L 58.2628 256.4298 L 53.6798 265.2406 "/>
    </g>
  </g>
  <path id="ID0.052435632329434156" fill="#393C40" stroke="none" stroke-linecap="round" d="M 40.8676 158.1064 L 45.3176 158.2464 L 51.8426 161.668 L 56.9159 161.6067 L 62.7579 163.5139 L 71.6463 162.0554 L 78.0746 158.6647 L 82.9258 158.9797 L 84.6219 162.1582 L 74.5594 166.2592 L 68.6153 165.8263 L 62.9586 168.7568 L 56.3672 165.0957 L 49.9317 165.3907 L 40.133 161.3772 L 40.8676 158.1064 Z " stroke-width="0.47614257300029306"/>
  <path id="ID0.4987568911164999" fill="none" stroke="#27282B" stroke-width="0.9522851460005861" stroke-linecap="round" d="M 42.4282 84.0723 L 35.8732 90.1274 L 30.3642 99.7046 "/>
  <path id="ID0.2889464790932834" fill="none" stroke="#27282B" stroke-width="0.9522851460005861" stroke-linecap="round" d="M 79.6573 85.6776 L 85.2907 89.6045 L 90.8104 99.0059 "/>
  <path id="ID0.8373676878400147" fill="#000000" stroke="#2C2F31" stroke-width="0.6155104186945868" stroke-linecap="round" d="M 45.2218 96.7789 L 45.5977 95.2553 L 41.9406 96.0937 L 37.0212 99.3404 L 32.795 104.3123 L 30.2359 109.8974 L 35.4149 107.7405 L 40.1138 107.7187 L 42.8433 108.6874 L 45.3266 111.7245 L 47.4498 110.7408 L 51.4637 110.5344 L 55.9576 111.6587 L 59.7407 114.9077 L 61.7594 118.0011 L 63.9715 115.019 L 67.7278 111.9516 L 71.87 110.5957 L 77.0266 110.6713 L 78.8474 111.2914 L 80.6018 108.2119 L 82.5815 106.9908 L 85.1743 107.5683 L 87.9498 109.2322 L 86.5802 105.3975 L 84.3686 101.4483 L 81.5778 98.3975 L 78.4454 96.1016 L 73.9447 95.1311 L 76.0916 97.075 L 76.0129 98.8428 L 74.3798 100.9266 L 70.786 102.0758 L 67.6175 102.3198 L 64.9973 102.3572 L 63.2083 98.2574 L 62.0647 100.7634 L 60.6043 100.6984 L 59.0963 98.2438 L 58.0626 102.4336 L 53.9786 102.4828 L 49.8656 101.4525 L 46.5419 99.9953 L 45.2218 96.7789 Z "/>
  <path id="ID0.5698574706912041" fill="none" stroke="#313537" stroke-width="0.9522851460005861" stroke-linecap="round" d="M 40.3497 157.9383 L 39.6879 161.1392 L 49.4792 165.5097 L 56.2702 165.2935 L 62.273 168.6328 "/>
  <path id="ID0.5698574706912041" fill="none" stroke="#313537" stroke-width="0.8933066257048137" stroke-linecap="round" d="M 83.0198 159.1006 L 83.7618 162.3545 L 73.6747 166.2884 L 67.7685 165.8086 L 62.4108 168.9119 "/>
  <path id="ID0.8947288258932531" fill="#393C40" stroke="none" stroke-linecap="round" d="M 41.4569 146.0169 L 48.481 146.0437 L 55.9867 148.1045 L 61.5369 153.7442 L 54.5348 149.2173 L 43.8075 147.4944 L 38.6273 150.411 L 41.4569 146.0169 Z " stroke-width="0.47614257300029306"/>
  <path id="ID0.9897695370018482" fill="#393C40" stroke="none" stroke-linecap="round" d="M 44.6537 158.3466 L 38.118 157.7346 L 38.6428 153.1021 L 39.7603 156.6257 L 44.8509 156.8743 L 50.9192 160.5007 L 56.4011 160.2574 L 60.4653 161.7705 L 62.009 153.9445 L 62.0433 163.7559 L 56.4914 161.6403 L 50.6123 161.5183 L 44.6537 158.3466 Z " stroke-width="0.47614257300029306"/>
  <path id="ID0.9214867809787393" fill="#393C40" stroke="none" stroke-linecap="round" d="M 41.5375 142.1371 L 44.6002 137.986 L 49.3804 137.1327 L 43.4501 141.772 L 43.1512 144.6947 L 48.1963 144.8471 L 56.2936 148.2299 L 47.3598 146.1394 L 41.5045 146.0178 L 41.5375 142.1371 Z " stroke-width="0.47614257300029306"/>
  <path id="ID0.8679121839813888" fill="#2C2F31" stroke="none" stroke-linecap="round" d="M 57.7741 122.8054 L 61.5488 124.503 L 64.9152 122.9299 L 65.8475 123.9017 L 61.8648 126.486 L 56.1512 124.129 L 57.7741 122.8054 Z " stroke-width="0.47614257300029306"/>
  <path id="ID0.20603158557787538" fill="none" stroke="#313537" stroke-width="0.9522851460005861" stroke-linecap="round" d="M 27.9255 114.3586 L 35.558 121.7798 L 47.8683 125.2501 L 55.1403 124.8058 L 61.4103 121.007 "/>
  <path id="ID0.24770551454275846" fill="none" stroke="#363A3D" stroke-width="0.9522850864087884" stroke-linecap="round" d="M 32.2379 148.7256 L 42.2053 145.7655 "/>
  <path id="ID0.24770551454275846" fill="none" stroke="#363A3D" stroke-width="0.9522850864087884" stroke-linecap="round" d="M 29.4542 136.7538 L 50.0053 130.9655 "/>
  <path id="ID0.753661650698632" fill="none" stroke="#313537" stroke-width="0.9522850864087884" stroke-linecap="round" d="M 56.2707 123.9896 L 61.4578 126.4786 L 65.5585 123.9444 "/>
  <g id="ID0.8167418288066983">
    <path id="ID0.9553722990676761" fill="none" stroke="#313537" stroke-width="1.0409107743576298" stroke-linecap="round" d="M 61.8563 141.5979 L 56.2892 139.3392 L 50.156 137.3069 L 45.3663 138.1599 L 41.7701 142.3714 L 41.6984 145.8227 "/>
    <path id="ID0.5982440118677914" fill="none" stroke="#313537" stroke-width="0.8540413396238158" stroke-linecap="round" d="M 50.4834 136.9056 L 49.4032 131.5887 L 54.7862 124.6413 "/>
  </g>
  <path id="ID0.04993448918685317" fill="none" stroke="#313537" stroke-width="0.9522850864087884" stroke-linecap="round" d="M 61.6102 126.3095 L 62.1068 136.7972 L 62.2418 153.2305 L 62.1413 169.5398 "/>
  <path id="ID0.9286923445761204" fill="#27282B" stroke="none" stroke-linecap="round" d="M 49.063 49.0601 L 67.8707 50.5361 L 60.7523 69.4152 L 61.0618 93.1985 L 24.0656 80.8426 L 43.9445 70.2484 L 49.063 49.0601 Z " stroke-width="0.4761425852775574"/>
  <path id="ID0.9286923445761204" fill="#27282B" stroke="none" stroke-linecap="round" d="M 71.987 49.1601 L 53.1793 50.6361 L 60.2977 69.5152 L 60.9404 93.1794 L 96.9844 80.9426 L 77.1055 70.3484 L 71.987 49.1601 Z " stroke-width="0.4761425852775574"/>
  <path id="ID0.20603158557787538" fill="none" stroke="#313537" stroke-width="0.9522851460005861" stroke-linecap="round" d="M 92.5966 114.173 L 87.492 121.7798 L 75.1817 125.2501 L 67.9097 124.8058 L 61.6397 121.007 "/>
  <path id="ID0.24770551454275846" fill="none" stroke="#363A3D" stroke-width="0.9522850864087884" stroke-linecap="round" d="M 88.9879 148.725 L 82.8947 146.5655 "/>
  <path id="ID0.24770551454275846" fill="none" stroke="#363A3D" stroke-width="0.9522850864087884" stroke-linecap="round" d="M 92.412 137.0749 L 74.9447 131.8655 "/>
  <path id="ID0.8947288258932531" fill="#393C40" stroke="none" stroke-linecap="round" d="M 82.089 146.8979 L 74.2442 147.0437 L 67.0326 149.1045 L 61.6998 154.7442 L 68.4276 150.2173 L 78.7347 148.4944 L 83.7119 151.411 L 82.089 146.8979 Z " stroke-width="0.46690889510719985"/>
  <path id="ID0.9897695370018482" fill="#393C40" stroke="none" stroke-linecap="round" d="M 78.0597 158.9398 L 84.0405 158.3343 L 83.5554 153.7014 L 82.5364 157.2239 L 77.8777 157.4674 L 72.3278 161.0878 L 67.3106 160.839 L 63.5925 162.3481 L 62.1718 154.5208 L 62.1504 164.3319 L 67.2293 162.2219 L 72.6097 162.1056 L 78.0597 158.9398 Z " stroke-width="0.4563933125293939"/>
  <path id="ID0.9214867809787393" fill="#393C40" stroke="none" stroke-linecap="round" d="M 82.1157 142.5371 L 79.173 138.386 L 74.5801 137.5327 L 80.2781 142.172 L 80.5652 145.0947 L 75.7178 145.2471 L 67.9377 148.6299 L 76.5215 146.5394 L 82.1474 146.4178 L 82.1157 142.5371 Z " stroke-width="0.46690889510719985"/>
  <path id="ID0.3567589442245662" fill="none" stroke="#313537" stroke-width="0.8967655150693851" stroke-linecap="round" d="M 61.9763 153.9264 L 67.2086 149.0583 L 74.4786 146.9233 L 82.2358 146.5367 L 83.97 152.7877 L 84.2223 158.7936 L 78.1982 159.4305 L 71.1138 162.7124 L 67.3724 162.349 L 61.9531 164.1176 L 56.1642 161.4971 L 50.5697 161.619 L 44.2069 158.3913 L 37.9204 157.5464 L 38.4011 150.5318 L 41.0516 145.9434 L 47.332 146.0738 L 55.6246 148.151 L 61.3411 153.2465 Z "/>
  <g id="ID0.8167418288066983">
    <path id="ID0.9553722990676761" fill="none" stroke="#313537" stroke-width="1.0409107743576298" stroke-linecap="round" d="M 62.2437 141.6979 L 67.8108 139.4392 L 73.944 137.4069 L 78.7337 138.2599 L 82.3299 142.4714 L 82.4016 145.9227 "/>
    <path id="ID0.5982440118677914" fill="none" stroke="#313537" stroke-width="0.8540413396238158" stroke-linecap="round" d="M 73.5666 137.0056 L 74.6468 131.6887 L 69.2638 124.7413 "/>
  </g>
  <g id="ID0.2217248771339655">
    <path id="ID0.2888958193361759" fill="#393C40" stroke="none" stroke-linecap="round" d="M 41.8892 165.6912 L 51.0792 167.7656 L 50.4872 170.3883 L 41.2972 168.3139 L 41.8892 165.6912 Z " stroke-width="0.43019204909156267"/>
    <g id="ID0.8823104286566377">
      <path id="ID0.2888958193361759" fill="#393C40" stroke="none" stroke-linecap="round" d="M 32.2589 163.6758 L 42.5792 166.1156 L 41.9872 168.7383 L 32.1333 166.3817 L 32.2589 163.6758 Z " stroke-width="0.43019204909156267"/>
      <g id="ID0.36424446757882833">
        <path id="ID0.7359844641759992" fill="#8A7B59" stroke="none" d="M 44.5433 165.1822 L 45.9196 165.2108 L 45.8026 170.8451 L 44.4263 170.8165 L 44.5433 165.1822 Z " stroke-width="0.430192031338367"/>
        <path id="ID0.7359844641759992" fill="#8A7B59" stroke="none" d="M 42.7933 164.7322 L 44.1696 164.7608 L 44.0526 170.3951 L 42.6763 170.3665 L 42.7933 164.7322 Z " stroke-width="0.430192031338367"/>
        <path id="ID0.7359844641759992" fill="#8A7B59" stroke="none" d="M 41.0433 164.1322 L 42.4196 164.1608 L 42.3026 169.7951 L 40.9263 169.7665 L 41.0433 164.1322 Z " stroke-width="0.430192031338367"/>
        <path id="ID0.7359844641759992" fill="#8A7B59" stroke="none" d="M 46.1933 165.6322 L 47.5696 165.6608 L 47.4526 171.2951 L 46.0763 171.2665 L 46.1933 165.6322 Z " stroke-width="0.430192031338367"/>
      </g>
      <g id="ID0.1049797898158431">
        <path id="ID0.08871637750416994" fill="#8A7B59" stroke="none" stroke-linecap="round" d="M 33.8418 163.1267 L 39.6069 164.193 L 39.459 169.2458 L 33.9093 168.1624 L 33.8418 163.1267 Z " stroke-width="0.430192031338367"/>
        <path id="ID0.13805592898279428" fill="#76694C" stroke="none" stroke-linecap="round" d="M 33.6409 162.8572 L 39.6857 163.9294 L 39.7177 166.5332 L 33.6532 165.3746 L 33.6409 162.8572 Z " stroke-width="0.430192031338367"/>
        <path id="ID0.3221200187690556" fill="#61563F" stroke="none" stroke-linecap="round" d="M 36.0506 164.9121 L 36.8374 165.2553 L 36.8745 166.8439 L 36.0172 166.5226 L 36.0506 164.9121 Z " stroke-width="0.4669157820338706"/>
        <path id="ID0.1420820001512766" fill="#BAA578" stroke="none" stroke-linecap="round" d="M 38.8397 168.3583 L 39.5116 167.0814 L 39.5113 169.1682 L 33.8743 168.1476 L 38.8397 168.3583 Z " stroke-width="0.430192031338367"/>
      </g>
    </g>
  </g>
  <g id="ID0.2217248771339655">
    <path id="ID0.2888958193361759" fill="#393C40" stroke="none" stroke-linecap="round" d="M 80.384 166.5557 L 72.1622 168.4116 L 72.6918 170.758 L 80.9136 168.9021 L 80.384 166.5557 Z " stroke-width="0.3848699794467982"/>
    <g id="ID0.8823104286566377">
      <path id="ID0.2888958193361759" fill="#393C40" stroke="none" stroke-linecap="round" d="M 89.1452 164.6788 L 79.9122 166.8616 L 80.4418 169.208 L 89.2577 167.0997 L 89.1452 164.6788 Z " stroke-width="0.3848699794467982"/>
      <g id="ID0.36424446757882833">
        <path id="ID0.7359844641759992" fill="#8A7B59" stroke="none" d="M 78.112 166.015 L 76.8807 166.0406 L 76.9853 171.0813 L 78.2167 171.0558 L 78.112 166.015 Z " stroke-width="0.3848699772584817"/>
        <path id="ID0.7359844641759992" fill="#8A7B59" stroke="none" d="M 79.662 165.665 L 78.4307 165.6906 L 78.5353 170.7313 L 79.7667 170.7058 L 79.662 165.665 Z " stroke-width="0.3848699772584817"/>
        <path id="ID0.7359844641759992" fill="#8A7B59" stroke="none" d="M 81.212 165.115 L 79.9807 165.1406 L 80.0853 170.1813 L 81.3167 170.1558 L 81.212 165.115 Z " stroke-width="0.3848699772584817"/>
        <path id="ID0.7359844641759992" fill="#8A7B59" stroke="none" d="M 76.612 166.465 L 75.3807 166.4906 L 75.4853 171.5313 L 76.7167 171.5058 L 76.612 166.465 Z " stroke-width="0.3848699772584817"/>
      </g>
      <g id="ID0.1049797898158431">
        <path id="ID0.08871637750416994" fill="#8A7B59" stroke="none" stroke-linecap="round" d="M 87.6809 164.1735 L 82.5231 165.1275 L 82.6554 169.6479 L 87.6204 168.6787 L 87.6809 164.1735 Z " stroke-width="0.3848699772584817"/>
        <path id="ID0.13805592898279428" fill="#76694C" stroke="none" stroke-linecap="round" d="M 87.842 163.9535 L 82.4341 164.9126 L 82.4055 167.2422 L 87.8311 166.2057 L 87.842 163.9535 Z " stroke-width="0.3848699772584817"/>
        <path id="ID0.3221200187690556" fill="#61563F" stroke="none" stroke-linecap="round" d="M 85.6606 165.7803 L 84.9567 166.0874 L 84.9235 167.5087 L 85.6905 167.2212 L 85.6606 165.7803 Z " stroke-width="0.41772476123181423"/>
        <path id="ID0.1420820001512766" fill="#BAA578" stroke="none" stroke-linecap="round" d="M 83.191 168.9197 L 82.5899 167.7773 L 82.5901 169.6443 L 87.6333 168.7312 L 83.191 168.9197 Z " stroke-width="0.3848699772584817"/>
      </g>
    </g>
  </g>
  <g id="ID0.6836685389280319">
    <path id="ID0.09357938077300787" fill="#857656" stroke="none" d="M 52.6955 165.8011 L 70.6698 165.8253 L 70.6612 172.2532 L 52.6868 172.229 L 52.6955 165.8011 Z " stroke-width="0.4283320650603944"/>
    <path id="ID0.6492703901603818" fill="#7C6E50" stroke="none" stroke-linecap="round" d="M 53.3423 167.9965 L 61.5516 171.1025 L 70.3882 168.0195 L 70.3825 172.281 L 53.3366 172.258 L 53.3423 167.9965 Z " stroke-width="0.476142540860191"/>
    <g id="ID0.9254062357358634">
      <g id="ID0.49943465692922473">
        <path id="ID0.140373723115772" fill="#968561" stroke="none" d="M 69.0957 164.6535 L 74.2143 164.6604 L 74.2021 173.7071 L 69.0835 173.7002 L 69.0957 164.6535 Z " stroke-width="0.476142540860191"/>
        <path id="ID0.8286363878287375" fill="#BAA578" stroke="none" stroke-linecap="round" d="M 69.0812 164.4705 L 74.3184 164.7157 L 70.175 165.4719 L 69.1484 167.6132 L 69.0812 164.4705 Z " stroke-width="0.476142540860191"/>
        <path id="ID0.7362233307212591" fill="#8A7B59" stroke="none" stroke-linecap="round" d="M 69.0968 170.5652 L 71.8107 170.6164 L 74.2661 168.1914 L 74.2586 173.7861 L 69.0925 173.7791 L 69.0968 170.5652 Z " stroke-width="0.476142540860191"/>
      </g>
      <g id="ID0.49943465692922473">
        <path id="ID0.140373723115772" fill="#968561" stroke="none" d="M 54.0465 164.8457 L 48.928 164.8388 L 48.9158 173.8855 L 54.0343 173.8924 L 54.0465 164.8457 Z " stroke-width="0.476142540860191"/>
        <path id="ID0.8286363878287375" fill="#BAA578" stroke="none" stroke-linecap="round" d="M 54.0606 164.662 L 48.8227 164.893 L 52.9641 165.6604 L 53.9849 167.8044 L 54.0606 164.662 Z " stroke-width="0.476142540860191"/>
        <path id="ID0.7362233307212591" fill="#8A7B59" stroke="none" stroke-linecap="round" d="M 54.0286 170.7566 L 51.3145 170.8005 L 48.8656 168.3689 L 48.8581 173.9636 L 54.0242 173.9705 L 54.0286 170.7566 Z " stroke-width="0.476142540860191"/>
      </g>
    </g>
  </g>
  <path id="ID0.5448851804248989" fill="none" stroke="#1D1E1F" stroke-width="0.9522851705551147" stroke-linecap="round" d="M 45.5229 63.0871 L 44.4278 69.8007 L 61.3785 76.5143 L 76.8055 70.0388 L 75.8056 63.9203 "/>
  <path id="ID0.262191956397146" fill="none" stroke="#1D1E1F" stroke-width="0.9522851705551147" stroke-linecap="round" d="M 48.1346 67.539 L 60.8476 73.7288 L 74.0843 67.3009 "/>
  <path id="ID0.3245162623934448" fill="#2E3034" stroke="none" stroke-linecap="round" d="M 60.9906 27.1084 C 64.1665 27.1084 67.0439 29.6717 69.1273 33.8123 C 71.2108 37.9528 71.9491 44.5084 72.5002 49.9813 C 73.063 55.5693 74.9182 61.6538 72.6465 66.7581 C 70.8957 70.6908 66.0714 73.6863 61.6734 73.9272 C 57.5202 74.1583 52.5076 71.7491 50.5539 67.9773 C 47.7936 62.6468 49.0772 56.0297 49.481 49.9813 C 49.8477 44.4938 50.7705 37.9528 52.8539 33.8123 C 54.9373 29.6717 57.8147 27.1084 60.9906 27.1084 Z " stroke-width="0.9753915071487427"/>
  <g id="ID0.9831569031812251">
    <path id="ID0.0877610077150166" fill="#2E3034" stroke="none" stroke-linecap="round" d="M 73.3193 18.6698 L 68.8595 5.876 L 68.8595 33.7025 L 76.3421 33.7025 L 73.3193 18.6698 Z " stroke-width="0.5721711509673608"/>
    <path id="ID0.796130308881402" fill="#242628" stroke="none" stroke-linecap="round" d="M 73.626 18.6799 L 68.8193 5.8861 L 72.2881 19.3836 L 73.2048 33.9046 L 76.3019 33.6167 L 73.626 18.6799 Z " stroke-width="0.5721711509673608"/>
  </g>
  <g id="ID0.9831569031812251">
    <path id="ID0.0877610077150166" fill="#2E3034" stroke="none" stroke-linecap="round" d="M 47.8307 18.5698 L 52.2905 5.776 L 52.2905 33.6025 L 44.8079 33.6025 L 47.8307 18.5698 Z " stroke-width="0.5721711509673608"/>
    <path id="ID0.796130308881402" fill="#242628" stroke="none" stroke-linecap="round" d="M 47.424 18.5299 L 52.2307 5.7361 L 48.7619 19.2336 L 47.6965 33.4347 L 44.7481 33.4667 L 47.424 18.5299 Z " stroke-width="0.5721711509673608"/>
  </g>
  <path id="ID0.8999492498114705" fill="#2E3034" stroke="none" stroke-linecap="round" d="M 65.9399 23.6154 C 70.0861 24.8319 74.8511 26.7263 76.9309 30.5137 C 79.304 34.8377 77.4041 40.2985 77.6965 45.1711 C 77.8655 46.8327 78.6385 48.5423 78.3159 50.1265 C 77.6589 53.349 76.0261 56.3033 74.9711 59.4178 C 74.2798 61.4589 74.1292 63.7557 72.9889 65.612 C 71.7055 67.8092 70.155 70.1942 67.8601 71.3106 C 66.0931 72.1689 63.5435 72.4097 62.0128 71.2115 C 60.7958 70.2591 61.9107 68.0971 61.5421 66.5783 C 61.2219 64.7041 59.9583 63.0139 59.9564 61.0778 C 59.9529 55.6894 61.772 50.3871 61.7898 44.9977 C 61.8092 39.0711 62.1357 32.9775 60.2041 27.431 C 59.4653 25.3091 53.4024 24.7511 54.4559 24.1109 C 56.0887 22.9642 62.2665 22.5376 65.9399 23.6154 Z " stroke-width="0.4955352246761322"/>
  <path id="ID0.8999492498114705" fill="#2E3034" stroke="none" stroke-linecap="round" d="M 55.4101 23.4154 C 51.2609 24.6215 46.4989 26.5263 44.4191 30.3137 C 42.046 34.6377 43.9459 40.0985 43.6535 44.9711 C 43.4845 46.6327 42.7115 48.3423 43.0341 49.9265 C 43.6911 53.149 45.3239 56.1033 46.3789 59.2178 C 47.0702 61.2589 47.2208 63.5557 48.3611 65.412 C 49.6445 67.6092 51.195 69.9942 53.4899 71.1106 C 55.2569 71.9689 57.8065 72.2097 59.3372 71.0115 C 60.5542 70.0591 59.4393 67.8971 59.8079 66.3783 C 60.1281 64.5041 61.3917 62.8139 61.3936 60.8778 C 61.3971 55.4894 59.578 50.1871 59.5602 44.7977 C 59.5408 38.8711 59.6622 32.9128 61.1459 27.231 C 61.5458 25.7037 66.07 25.0571 65.1845 24.4312 C 63.2019 23.1493 58.4581 22.5303 55.4101 23.4154 Z " stroke-width="0.4955352246761322"/>
  <path id="ID0.45774566335603595" fill="#AB8E85" stroke="none" stroke-linecap="round" d="M 61.2076 58.2234 C 63.2598 58.2234 64.7619 59.4563 66.465 60.2385 C 68.0178 60.9525 70.9488 61.0871 70.9371 62.8565 C 70.9488 65.6188 68.525 68.0027 66.465 69.9612 C 65.1062 71.2527 63.2598 71.9764 61.2076 71.9764 C 59.1554 71.9764 57.3968 71.1541 55.9502 69.9612 C 53.9487 68.3119 51.3854 66.3698 51.4293 63.8319 C 51.3854 61.8889 54.2375 61.1895 55.9502 60.2385 C 57.5889 59.3275 59.1554 58.2234 61.2076 58.2234 Z " stroke-width="0.9753915071487427"/>
  <path id="ID0.6934182443656027" fill="#AB8E85" stroke="none" stroke-linecap="round" d="M 47.6741 52.7612 L 60.598 56.7603 L 74.351 52.371 L 71.4248 58.9549 L 70.9371 63.3442 L 51.5756 63.9782 L 50.4539 57.9795 L 47.6741 52.7612 Z " stroke-width="0.9753915071487427"/>
  <path id="ID0.2542315670289099" fill="#27282B" stroke="none" d="M 86.4483 0.8704 L 86.6434 0.8704 L 86.6434 0.8704 L 86.4483 0.8704 L 86.4483 0.8704 Z " stroke-width="0.9753915071487427"/>
  <path id="ID0.8256730306893587" fill="none" stroke="#937B73" stroke-width="0.9910704746219959" stroke-linecap="round" d="M 55.1712 62.6383 C 55.1712 62.6383 57.8197 62.1325 59.156 61.9846 C 59.4902 61.9476 59.8179 62.0329 60.1445 62.0874 C 60.4765 62.143 60.7928 62.3157 61.1295 62.314 C 61.7968 62.3109 62.4547 62.1375 63.1193 62.0738 C 63.4489 62.0422 63.7814 62.0145 64.1121 62.028 C 64.4434 62.0415 64.7792 62.071 65.0999 62.1556 C 65.6274 62.2947 66.646 62.6958 66.646 62.6958 "/>
  <path id="ID0.7592270169407129" fill="none" stroke="#937B73" stroke-width="0.9910704746219959" stroke-linecap="round" d="M 63.6404 64.1858 C 63.6404 64.1858 63.0245 64.5047 62.6879 64.555 C 62.3613 64.6041 62.028 64.4532 61.6987 64.4769 C 61.3673 64.5011 61.0562 64.6647 60.7256 64.6968 C 60.397 64.729 60.0543 64.7508 59.735 64.6683 C 59.4634 64.598 59.0034 64.2506 59.0034 64.2506 "/>
  <path id="ID0.6473136460408568" fill="none" stroke="#937B73" stroke-width="0.9910705047993922" stroke-linecap="round" d="M 61.3838 68.3442 C 61.3838 68.3442 61.6928 68.9634 61.7424 69.2995 C 61.7903 69.6268 61.7318 69.9658 61.6698 70.2907 C 61.5768 70.7803 61.2791 71.7355 61.2791 71.7355 "/>
  <path id="ID0.5030081016011536" fill="#A1887F" stroke="none" stroke-linecap="round" d="M 47.7253 53.005 L 61.5758 56.9066 L 74.6461 52.3223 L 71.1347 58.4672 L 70.4519 64.222 L 69.4765 58.4672 L 71.3298 55.0046 L 61.6734 58.1746 L 50.3101 55.1997 L 51.9195 58.7111 L 51.2855 65.4413 L 50.3101 58.4185 L 47.7253 53.005 Z " stroke-width="0.9753915071487427"/>
  <g id="ID0.7768427198752761">
    <path id="ID0.2278452254831791" fill="none" stroke="#937B73" stroke-width="0.9910704493522644" stroke-linecap="round" d="M 62.8697 52.6138 C 62.8697 52.6138 63.781 54.4304 64.2325 55.3392 C 64.3836 55.6435 64.5501 55.9418 64.6784 56.256 C 64.8068 56.5701 65.0139 56.8833 65.0005 57.2222 C 64.9872 57.5622 64.786 57.8764 64.6041 58.1638 C 64.4827 58.356 64.1086 58.6345 64.1086 58.6345 "/>
    <path id="ID0.2278452254831791" fill="none" stroke="#937B73" stroke-width="0.9910704493522644" stroke-linecap="round" d="M 59.8303 52.4638 C 59.8303 52.4638 58.919 54.2804 58.4675 55.1892 C 58.3164 55.4935 58.1499 55.7918 58.0216 56.106 C 57.8932 56.4201 57.6861 56.7333 57.6995 57.0722 C 57.7128 57.4122 57.914 57.7264 58.0959 58.0138 C 58.2173 58.206 58.5914 58.4845 58.5914 58.4845 "/>
  </g>
  <g id="ID0.04747973429039121">
    <path id="ID0.28340246016159654" fill="#1C1D1F" stroke="none" stroke-linecap="round" d="M 46.6696 42.3431 L 50.1753 43.9165 L 61.2719 45.2415 L 60.0573 50.7069 L 52.9632 49.7408 L 49.0159 48.6367 L 46.9457 47.0909 L 46.0623 45.3243 L 46.6696 42.3431 Z " stroke-width="0.5520696640014648"/>
    <path id="ID0.6101007834076881" fill="#FFFFFF" stroke="none" stroke-linecap="round" d="M 50.5321 45.1727 L 52.2215 45.5813 L 56.0851 46.8092 L 56.6419 48.8211 L 51.2707 47.336 L 50.5321 45.1727 Z " stroke-width="0.41510424290821346"/>
    <path id="ID0.20071752788498998" fill="#202324" stroke="none" d="M 51.5608 40.1398 L 55.7931 42.7622 L 61.2716 44.8134 L 60.7264 45.3846 L 52.7812 44.0864 L 46.7574 41.6977 L 48.523 39.8801 L 51.5608 40.1398 Z " stroke-width="0.5192937850952148"/>
    <path id="ID0.521138689480722" fill="none" stroke="#212325" stroke-width="1.0385875701904297" stroke-linecap="round" d="M 46.9623 41.9637 L 50.6752 43.7812 L 60.4639 45.2092 "/>
    <path id="ID0.043594349175691605" fill="#D7E2FD" stroke="none" stroke-linecap="round" d="M 55.9055 47.748 L 56.1392 46.6055 L 56.6585 48.7087 L 54.0101 47.9557 L 55.9055 47.748 Z " stroke-width="0.5192937850952148"/>
  </g>
  <g id="ID0.04747973429039121">
    <path id="ID0.28340246016159654" fill="#1C1D1F" stroke="none" stroke-linecap="round" d="M 75.4304 42.4431 L 71.9247 44.0165 L 60.8281 45.3415 L 62.0427 50.8069 L 69.1368 49.8408 L 73.0841 48.7367 L 75.1543 47.1909 L 76.0377 45.4243 L 75.4304 42.4431 Z " stroke-width="0.5520696640014648"/>
    <path id="ID0.6101007834076881" fill="#FFFFFF" stroke="none" stroke-linecap="round" d="M 71.5179 45.3227 L 69.8285 45.7313 L 65.9649 46.9592 L 65.4081 48.9711 L 70.7793 47.486 L 71.5179 45.3227 Z " stroke-width="0.41510424290821346"/>
    <path id="ID0.20071752788498998" fill="#202324" stroke="none" d="M 70.4892 40.2398 L 66.2569 42.8622 L 60.7784 44.9134 L 61.3236 45.4846 L 69.2688 44.1864 L 75.2926 41.7977 L 73.527 39.9801 L 70.4892 40.2398 Z " stroke-width="0.5192937850952148"/>
    <path id="ID0.521138689480722" fill="none" stroke="#212325" stroke-width="1.0385875701904297" stroke-linecap="round" d="M 75.0877 42.1137 L 71.3748 43.9312 L 61.5861 45.3592 "/>
    <path id="ID0.043594349175691605" fill="#D7E2FD" stroke="none" stroke-linecap="round" d="M 66.1945 47.848 L 65.9608 46.7055 L 65.4415 48.8087 L 68.0899 48.0557 L 66.1945 47.848 Z " stroke-width="0.5192937850952148"/>
  </g>
  <path id="ID0.17828734638169408" fill="none" stroke="#202324" stroke-width="0.9910704493522644" stroke-linecap="round" d="M 62.2791 48.8468 C 62.2791 48.8468 61.3376 46.8642 61.1146 45.8736 C 61.0408 45.5456 61.2628 45.2155 61.3128 44.8825 C 61.3619 44.5545 61.4243 44.223 61.4119 43.8915 C 61.3995 43.5565 61.3029 43.2289 61.2385 42.9004 C 61.1379 42.3875 60.9164 41.3642 60.9164 41.3642 "/>
  <g id="ID0.6393627882935107">
    <path id="ID0.8684103740379214" fill="#27282B" stroke="none" stroke-linecap="round" d="M 61.3672 46.7625 L 66.9757 54.6632 L 60.8308 56.5652 L 55.3198 55.0046 L 61.3672 46.7625 Z " stroke-width="0.9753915071487427"/>
    <path id="ID0.8012696979567409" fill="none" stroke="#242527" stroke-width="0.9910704493522644" stroke-linecap="round" d="M 70.5604 66.1352 L 71.1798 58.826 L 74.4503 52.3593 L 61.5912 56.8191 L 47.6418 52.9539 L 50.3177 58.4544 L 51.4079 65.3919 "/>
    <path id="ID0.8012696979567409" fill="none" stroke="#242527" stroke-width="0.9910704493522644" stroke-linecap="round" d="M 61.4041 56.5086 L 61.3545 47.0687 "/>
  </g>
</svg>