<svg xmlns="http://www.w3.org/2000/svg" xmlns:xlink="http://www.w3.org/1999/xlink" version="1.1" width="278.2979627549701" height="141.85335215926702" viewBox="-0.5239813774850675 -0.33707498014238557 278.2979627549701 141.85335215926702">
  <!-- Exported by Scratch - http://scratch.mit.edu/ -->
  <path id="ID0.14518280653283" fill="#0D0D0D" stroke="#0D0D0D" stroke-width="2.047962754970135" d="M 19.4879 19.25 L 250.914 14.5 L 247.667 18.25 L 262.4356 15.25 L 260.4455 52 L 261.9119 56.25 L 260.4455 74.25 L 259.9218 93.5 L 259.1886 98.25 L 260.3931 122.25 L 140.15 125.5 L 86.4177 122 L 92.6498 125.75 L 68.664 123 L 63.1651 124.5 L 19.4879 122.25 L 20.4306 98.25 L 21.1638 91 L 19.9069 82.25 L 19.1737 77.25 L 19.6974 48 L 19.1737 40.25 L 20.1688 34.75 L 19.4879 19.25 Z "/>
  <g id="ID0.35936416359618306">
    <g id="ID0.1390957785770297">
      <path id="ID0.6395725780166686" fill="#246DA9" stroke="none" d="M 58.1813 27.9018 C 58.8493 24.028 57.881 20.2455 55.7779 17.2647 C 53.6737 14.2848 50.4338 12.1056 46.56 11.4376 C 42.6862 10.7696 38.9036 11.7379 35.9229 13.841 C 32.943 15.9452 30.7638 19.185 30.0958 23.0589 C 29.4278 26.9327 30.3961 30.7152 32.4992 33.696 C 34.6034 36.6759 37.8432 38.8551 41.717 39.5231 C 45.5909 40.1911 49.3734 39.2228 52.3541 37.1197 C 55.3341 35.0155 57.5133 31.7757 58.1813 27.9018 Z " stroke-width="0.9999999868792101"/>
      <path id="ID0.2644723285920918" fill="#246DA9" stroke="none" d="M 36.4015 35.0266 C 36.5539 34.1426 36.3332 33.2806 35.8527 32.601 C 35.3733 31.9207 34.635 31.424 33.7511 31.2716 C 32.8671 31.1191 32.0051 31.3399 31.3255 31.8204 C 30.6452 32.2997 30.1485 33.0381 29.996 33.922 C 29.8436 34.806 30.0643 35.668 30.5449 36.3476 C 31.0242 37.0279 31.7626 37.5246 32.6465 37.677 C 33.5305 37.8294 34.3925 37.6087 35.072 37.1282 C 35.7524 36.6488 36.2491 35.9105 36.4015 35.0266 Z " stroke-width="0.9999999868792101"/>
    </g>
    <g id="ID0.13357754703611135">
      <path id="ID0.36414373060688376" fill="#246DA9" stroke="none" d="M 50.1551 20.1062 C 50.3083 19.7971 49.4925 19.0447 48.053 18.0781 C 46.6122 17.1119 44.5462 15.932 42.1977 14.7684 C 39.8492 13.6047 37.6589 12.6757 36.0174 12.1146 C 34.3763 11.5548 33.2835 11.3616 33.1304 11.6707 C 32.9772 11.9798 33.7929 12.7322 35.2325 13.6988 C 36.6733 14.6649 38.7392 15.8448 41.0878 17.0085 C 43.4363 18.1721 45.6265 19.1011 47.2681 19.6623 C 48.9091 20.2221 50.0019 20.4153 50.1551 20.1062 Z " stroke-width="0.9999999910572765"/>
      <path id="ID0.2644723285920918" fill="#FFFFFF" stroke="none" d="M 30.9331 10.4668 C 30.9741 10.2288 30.9147 9.9967 30.7853 9.8137 C 30.6563 9.6306 30.4575 9.4968 30.2195 9.4558 C 29.9815 9.4148 29.7494 9.4742 29.5665 9.6036 C 29.3833 9.7326 29.2496 9.9314 29.2086 10.1694 C 29.1675 10.4074 29.2269 10.6395 29.3563 10.8224 C 29.4854 11.0056 29.6841 11.1393 29.9221 11.1803 C 30.1601 11.2214 30.3922 11.162 30.5752 11.0326 C 30.7583 10.9035 30.8921 10.7048 30.9331 10.4668 Z " stroke-width="0.2692307731574152"/>
    </g>
    <g id="ID0.13357754703611135">
      <path id="ID0.36414373060688376" fill="#FFFFFF" stroke="none" d="M 47.1845 14.5077 C 47.3802 14.1128 46.338 13.1515 44.499 11.9167 C 42.6583 10.6824 40.019 9.1751 37.0186 7.6885 C 34.0183 6.2019 31.2202 5.015 29.1231 4.2982 C 27.0266 3.583 25.6305 3.3361 25.4348 3.731 C 25.2391 4.126 26.2813 5.0872 28.1203 6.322 C 29.9611 7.5563 32.6004 9.0637 35.6007 10.5503 C 38.601 12.0369 41.3991 13.2237 43.4962 13.9406 C 45.5927 14.6557 46.9888 14.9026 47.1845 14.5077 Z " stroke-width="1.2775330292423985"/>
      <path id="ID0.2644723285920918" fill="#FFFFFF" stroke="none" d="M 22.5879 2.1661 C 22.6403 1.8621 22.5644 1.5656 22.3991 1.3319 C 22.2342 1.0979 21.9803 0.927 21.6762 0.8746 C 21.3722 0.8222 21.0757 0.8981 20.842 1.0634 C 20.608 1.2282 20.4371 1.4822 20.3847 1.7862 C 20.3323 2.0903 20.4082 2.3868 20.5735 2.6205 C 20.7384 2.8545 20.9923 3.0253 21.2963 3.0778 C 21.6004 3.1302 21.8969 3.0543 22.1306 2.889 C 22.3646 2.7241 22.5355 2.4702 22.5879 2.1661 Z " stroke-width="0.34395121934581036"/>
    </g>
    <g id="ID0.13357754703611135">
      <path id="ID0.36414373060688376" fill="#FFFFFF" stroke="none" d="M 52.7551 11.5562 C 52.9083 11.2471 52.0925 10.4947 50.653 9.5281 C 49.2122 8.5619 47.1462 7.382 44.7977 6.2184 C 42.4492 5.0547 40.2589 4.1257 38.6174 3.5646 C 36.9763 3.0048 35.8835 2.8116 35.7304 3.1207 C 35.5772 3.4298 36.3929 4.1822 37.8325 5.1488 C 39.2733 6.1149 41.3392 7.2948 43.6878 8.4585 C 46.0363 9.6221 48.2265 10.5511 49.8681 11.1123 C 51.5091 11.6721 52.6019 11.8653 52.7551 11.5562 Z " stroke-width="0.9999999910572765"/>
      <path id="ID0.2644723285920918" fill="#FFFFFF" stroke="none" d="M 33.4831 1.9168 C 33.5241 1.6788 33.4647 1.4467 33.3353 1.2637 C 33.2063 1.0806 33.0075 0.9468 32.7695 0.9058 C 32.5315 0.8648 32.2994 0.9242 32.1165 1.0536 C 31.9333 1.1826 31.7996 1.3814 31.7586 1.6194 C 31.7175 1.8574 31.7769 2.0895 31.9063 2.2724 C 32.0354 2.4556 32.2341 2.5893 32.4721 2.6303 C 32.7101 2.6714 32.9422 2.612 33.1252 2.4826 C 33.3083 2.3535 33.4421 2.1548 33.4831 1.9168 Z " stroke-width="0.2692307731574152"/>
    </g>
  </g>
  <g id="ID0.35936416359618306">
    <g id="ID0.1390957785770297">
      <path id="ID0.6395725780166686" fill="#FFFFFF" stroke="none" d="M 49.0737 36.3081 C 52.8816 37.2841 56.7295 36.6218 59.8691 34.7641 C 63.0079 32.9053 65.4395 29.8503 66.4155 26.0424 C 67.3916 22.2345 66.7292 18.3866 64.8715 15.247 C 63.0127 12.1082 59.9578 9.6766 56.1498 8.7006 C 52.3419 7.7245 48.494 8.3869 45.3545 10.2446 C 42.2156 12.1034 39.784 15.1583 38.808 18.9663 C 37.832 22.7742 38.4943 26.6221 40.352 29.7616 C 42.2108 32.9005 45.2658 35.3321 49.0737 36.3081 Z " stroke-width="1.000000012168309"/>
      <path id="ID0.2644723285920918" fill="#FFFFFF" stroke="none" d="M 43.7019 14.0281 C 44.5708 14.2508 45.4477 14.0998 46.1636 13.6752 C 46.8801 13.2519 47.4343 12.5557 47.657 11.6868 C 47.8797 10.8178 47.7288 9.9409 47.3042 9.2251 C 46.8808 8.5085 46.1846 7.9543 45.3157 7.7316 C 44.4468 7.5089 43.5699 7.6599 42.854 8.0844 C 42.1375 8.5078 41.5833 9.204 41.3606 10.0729 C 41.1379 10.9418 41.2889 11.8188 41.7134 12.5346 C 42.1368 13.2511 42.833 13.8053 43.7019 14.0281 Z " stroke-width="1.000000012168309"/>
    </g>
    <g id="ID0.13357754703611135">
      <path id="ID0.36414373060688376" fill="#246DA9" stroke="none" d="M 57.4634 28.9234 C 57.7593 29.1008 58.5746 28.3479 59.6533 26.9904 C 60.7317 25.6316 62.0733 23.6667 63.4212 21.4189 C 64.7692 19.1711 65.8706 17.0623 66.5613 15.4709 C 67.2507 13.88 67.5309 12.8061 67.235 12.6287 C 66.9391 12.4513 66.1238 13.2042 65.0451 14.5617 C 63.9667 15.9205 62.6251 17.8854 61.2772 20.1332 C 59.9292 22.381 58.8278 24.4898 58.1371 26.0811 C 57.4477 27.6721 57.1675 28.746 57.4634 28.9234 Z " stroke-width="1.0000000339068997"/>
      <path id="ID0.2644723285920918" fill="#FFFFFF" stroke="none" d="M 68.6159 10.5191 C 68.8498 10.5791 69.0859 10.5384 69.2787 10.4241 C 69.4716 10.3101 69.6208 10.1227 69.6807 9.8887 C 69.7407 9.6548 69.7001 9.4187 69.5857 9.226 C 69.4718 9.0331 69.2843 8.8839 69.0504 8.8239 C 68.8165 8.7639 68.5804 8.8046 68.3876 8.9189 C 68.1947 9.0329 68.0455 9.2203 67.9855 9.4542 C 67.9256 9.6882 67.9662 9.9243 68.0805 10.117 C 68.1945 10.3099 68.382 10.4591 68.6159 10.5191 Z " stroke-width="0.26923078403725104"/>
    </g>
    <g id="ID0.13357754703611135">
      <path id="ID0.36414373060688376" fill="#FFFFFF" stroke="none" d="M 63.2945 26.4217 C 63.6725 26.6484 64.714 25.6865 66.0922 23.9523 C 67.4699 22.2163 69.1837 19.7061 70.9058 16.8345 C 72.6278 13.9628 74.0349 11.2687 74.9173 9.2358 C 75.7981 7.2032 76.156 5.8314 75.778 5.6047 C 75.4 5.378 74.3584 6.3399 72.9803 8.0741 C 71.6026 9.8101 69.8887 12.3203 68.1667 15.1919 C 66.4446 18.0636 65.0376 20.7577 64.1551 22.7907 C 63.2744 24.8232 62.9165 26.195 63.2945 26.4217 Z " stroke-width="1.2775331593786323"/>
      <path id="ID0.2644723285920918" fill="#FFFFFF" stroke="none" d="M 77.5529 2.8878 C 77.8518 2.9644 78.1534 2.9125 78.3996 2.7665 C 78.6461 2.6209 78.8367 2.3814 78.9133 2.0825 C 78.9899 1.7837 78.938 1.482 78.7919 1.2358 C 78.6463 0.9894 78.4069 0.7988 78.108 0.7221 C 77.8091 0.6455 77.5075 0.6975 77.2613 0.8435 C 77.0148 0.9891 76.8242 1.2286 76.7476 1.5274 C 76.671 1.8263 76.7229 2.1279 76.869 2.3741 C 77.0146 2.6206 77.254 2.8112 77.5529 2.8878 Z " stroke-width="0.3439512373318717"/>
    </g>
    <g id="ID0.13357754703611135">
      <path id="ID0.36414373060688376" fill="#246DA9" stroke="none" d="M 65.8134 32.2234 C 66.1093 32.4008 66.9246 31.6479 68.0033 30.2904 C 69.0817 28.9316 70.4233 26.9667 71.7712 24.7189 C 73.1192 22.4711 74.2206 20.3623 74.9113 18.7709 C 75.6007 17.18 75.8809 16.1061 75.585 15.9287 C 75.2891 15.7513 74.4738 16.5042 73.3951 17.8617 C 72.3167 19.2205 70.9751 21.1854 69.6272 23.4332 C 68.2792 25.681 67.1778 27.7898 66.4871 29.3811 C 65.7977 30.9721 65.5175 32.046 65.8134 32.2234 Z " stroke-width="1.0000000339068997"/>
      <path id="ID0.2644723285920918" fill="#246DA9" stroke="none" d="M 76.9659 13.7691 C 77.1998 13.8291 77.4359 13.7884 77.6287 13.6741 C 77.8216 13.5601 77.9708 13.3727 78.0307 13.1387 C 78.0907 12.9048 78.0501 12.6687 77.9357 12.476 C 77.8218 12.2831 77.6343 12.1339 77.4004 12.0739 C 77.1665 12.0139 76.9304 12.0546 76.7376 12.1689 C 76.5447 12.2829 76.3955 12.4703 76.3355 12.7042 C 76.2756 12.9382 76.3162 13.1743 76.4305 13.367 C 76.5445 13.5599 76.732 13.7091 76.9659 13.7691 Z " stroke-width="0.26923078403725104"/>
    </g>
  </g>
  <g id="ID0.35936416359618306">
    <g id="ID0.1390957785770297">
      <path id="ID0.6395725780166686" fill="#FFFFFF" stroke="none" d="M 212.25 92.5 C 216.181 92.5 219.744 94.097 222.324 96.676 C 224.903 99.256 226.5 102.819 226.5 106.75 C 226.5 110.681 224.903 114.244 222.324 116.824 C 219.744 119.403 216.181 121 212.25 121 C 208.319 121 204.756 119.403 202.176 116.824 C 199.597 114.244 198 110.681 198 106.75 C 198 102.819 199.597 99.256 202.176 96.676 C 204.756 94.097 208.319 92.5 212.25 92.5 Z " stroke-width="1"/>
      <path id="ID0.2644723285920918" fill="#FFFFFF" stroke="none" d="M 201.5 112.75 C 202.397 112.75 203.209 113.114 203.797 113.703 C 204.386 114.291 204.75 115.103 204.75 116 C 204.75 116.897 204.386 117.709 203.797 118.297 C 203.209 118.886 202.397 119.25 201.5 119.25 C 200.603 119.25 199.791 118.886 199.203 118.297 C 198.614 117.709 198.25 116.897 198.25 116 C 198.25 115.103 198.614 114.291 199.203 113.703 C 199.791 113.114 200.603 112.75 201.5 112.75 Z " stroke-width="1"/>
    </g>
    <g id="ID0.13357754703611135">
      <path id="ID0.36414373060688376" fill="#246DA9" stroke="#FFFFFF" stroke-width="2.000000045984297" d="M 218.5319 101.7326 C 218.8625 101.6342 219.4654 102.5659 220.1733 104.1488 C 220.8805 105.7328 221.6922 107.9692 222.4398 110.4813 C 223.1875 112.9934 223.7308 115.3097 224.0048 117.0227 C 224.2776 118.735 224.2824 119.8448 223.9517 119.9432 C 223.621 120.0416 223.0182 119.1098 222.3103 117.527 C 221.603 115.9429 220.7914 113.7066 220.0437 111.1945 C 219.2961 108.6823 218.7528 106.3661 218.4787 104.6531 C 218.206 102.9408 218.2012 101.831 218.5319 101.7326 Z "/>
      <path id="ID0.2644723285920918" fill="#FFFFFF" stroke="none" d="M 224.7115 122.3038 C 224.953 122.3038 225.1717 122.4018 225.33 122.5604 C 225.4885 122.7187 225.5865 122.9373 225.5865 123.1788 C 225.5865 123.4203 225.4885 123.639 225.33 123.7973 C 225.1717 123.9558 224.953 124.0538 224.7115 124.0538 C 224.47 124.0538 224.2514 123.9558 224.0931 123.7973 C 223.9345 123.639 223.8365 123.4203 223.8365 123.1788 C 223.8365 122.9373 223.9345 122.7187 224.0931 122.5604 C 224.2514 122.4018 224.47 122.3038 224.7115 122.3038 Z " stroke-width="0.26923078298568726"/>
    </g>
    <g id="ID0.13357754703611135">
      <path id="ID0.36414373060688376" fill="#FFFFFF" stroke="none" d="M 223.5324 105.6476 C 223.9548 105.5219 224.7249 106.7122 225.6293 108.7343 C 226.5328 110.758 227.5698 113.6151 228.5249 116.8244 C 229.4801 120.0337 230.1741 122.9928 230.5242 125.1812 C 230.8727 127.3688 230.8788 128.7865 230.4564 128.9122 C 230.0339 129.0379 229.2638 127.8476 228.3594 125.8255 C 227.4559 123.8018 226.4189 120.9447 225.4638 117.7354 C 224.5086 114.5261 223.8146 111.567 223.4645 109.3786 C 223.116 107.1911 223.1099 105.7733 223.5324 105.6476 Z " stroke-width="1.2775331222961144"/>
      <path id="ID0.2644723285920918" fill="#FFFFFF" stroke="none" d="M 231.4965 131.9366 C 231.805 131.9366 232.0843 132.0618 232.2865 132.2644 C 232.4891 132.4667 232.6143 132.746 232.6143 133.0545 C 232.6143 133.363 232.4891 133.6423 232.2865 133.8445 C 232.0843 134.0471 231.805 134.1723 231.4965 134.1723 C 231.1879 134.1723 230.9087 134.0471 230.7064 133.8445 C 230.5038 133.6423 230.3786 133.363 230.3786 133.0545 C 230.3786 132.746 230.5038 132.4667 230.7064 132.2644 C 230.9087 132.0618 231.1879 131.9366 231.4965 131.9366 Z " stroke-width="0.3439512252807617"/>
    </g>
    <g id="ID0.13357754703611135">
      <path id="ID0.36414373060688376" fill="#246DA9" stroke="#FFFFFF" stroke-width="2.000000045984297" d="M 227.4319 100.6326 C 227.7625 100.5342 228.3654 101.4659 229.0733 103.0488 C 229.7805 104.6328 230.5922 106.8692 231.3398 109.3813 C 232.0875 111.8934 232.6308 114.2097 232.9048 115.9227 C 233.1776 117.635 233.1824 118.7448 232.8517 118.8432 C 232.521 118.9416 231.9182 118.0098 231.2103 116.427 C 230.503 114.8429 229.6914 112.6066 228.9437 110.0945 C 228.1961 107.5823 227.6528 105.2661 227.3787 103.5531 C 227.106 101.8408 227.1012 100.731 227.4319 100.6326 Z "/>
      <path id="ID0.2644723285920918" fill="#FFFFFF" stroke="none" d="M 233.6615 121.2538 C 233.903 121.2538 234.1217 121.3518 234.28 121.5104 C 234.4385 121.6687 234.5365 121.8873 234.5365 122.1288 C 234.5365 122.3703 234.4385 122.589 234.28 122.7473 C 234.1217 122.9058 233.903 123.0038 233.6615 123.0038 C 233.42 123.0038 233.2014 122.9058 233.0431 122.7473 C 232.8845 122.589 232.7865 122.3703 232.7865 122.1288 C 232.7865 121.8873 232.8845 121.6687 233.0431 121.5104 C 233.2014 121.3518 233.42 121.2538 233.6615 121.2538 Z " stroke-width="0.26923078298568726"/>
    </g>
  </g>
  <path id="ID0.6395725780166686" fill="#FFFFFF" stroke="none" d="M 17.5044 88.9158 C 20.8837 88.9158 23.9466 90.2886 26.1645 92.5057 C 28.3815 94.7236 29.7544 97.7865 29.7544 101.1658 C 29.7544 104.5451 28.3815 107.608 26.1645 109.8259 C 23.9466 112.0429 20.8837 113.4158 17.5044 113.4158 C 14.1251 113.4158 11.0622 112.0429 8.8443 109.8259 C 6.6272 107.608 5.2544 104.5451 5.2544 101.1658 C 5.2544 97.7865 6.6272 94.7236 8.8443 92.5057 C 11.0622 90.2886 14.1251 88.9158 17.5044 88.9158 Z " stroke-width="0.859649121761322"/>
  <path id="ID0.6395725780166686" fill="#FFFFFF" stroke="none" d="M 30.2544 101.5658 C 33.6337 101.5658 36.6966 102.9386 38.9145 105.1557 C 41.1315 107.3736 42.5044 110.4365 42.5044 113.8158 C 42.5044 117.1951 41.1315 120.258 38.9145 122.4759 C 36.6966 124.6929 33.6337 126.0658 30.2544 126.0658 C 26.8751 126.0658 23.8122 124.6929 21.5943 122.4759 C 19.3772 120.258 18.0044 117.1951 18.0044 113.8158 C 18.0044 110.4365 19.3772 107.3736 21.5943 105.1557 C 23.8122 102.9386 26.8751 101.5658 30.2544 101.5658 Z " stroke-width="0.859649121761322"/>
  <path id="ID0.6395725780166686" fill="#FFFFFF" stroke="none" d="M 14.75 99.5 C 18.681 99.5 22.244 101.097 24.824 103.676 C 27.403 106.256 29 109.819 29 113.75 C 29 117.681 27.403 121.244 24.824 123.824 C 22.244 126.403 18.681 128 14.75 128 C 10.819 128 7.256 126.403 4.676 123.824 C 2.097 121.244 0.5 117.681 0.5 113.75 C 0.5 109.819 2.097 106.256 4.676 103.676 C 7.256 101.097 10.819 99.5 14.75 99.5 Z " stroke-width="1"/>
  <path id="ID0.09471079101786017" fill="#FFFFFF" stroke="none" d="M 248.75 66.25 C 251.509 66.25 254.009 67.371 255.819 69.181 C 257.629 70.991 258.75 73.491 258.75 76.25 C 258.75 79.009 257.629 81.509 255.819 83.319 C 254.009 85.129 251.509 86.25 248.75 86.25 C 245.991 86.25 243.491 85.129 241.681 83.319 C 239.871 81.509 238.75 79.009 238.75 76.25 C 238.75 73.491 239.871 70.991 241.681 69.181 C 243.491 67.371 245.991 66.25 248.75 66.25 Z " stroke-width="1"/>
  <path id="ID0.6395725780166686" fill="#FFFFFF" stroke="none" d="M 254.25 45.5 C 258.181 45.5 261.744 47.097 264.324 49.676 C 266.903 52.256 268.5 55.819 268.5 59.75 C 268.5 63.681 266.903 67.244 264.324 69.824 C 261.744 72.403 258.181 74 254.25 74 C 250.319 74 246.756 72.403 244.176 69.824 C 241.597 67.244 240 63.681 240 59.75 C 240 55.819 241.597 52.256 244.176 49.676 C 246.756 47.097 250.319 45.5 254.25 45.5 Z " stroke-width="1"/>
  <path id="ID0.14518280653283" fill="#1F1F1F" stroke="#FFFFFF" stroke-width="2.047962754970135" d="M 12.5879 12 L 244.014 7.25 L 240.767 11 L 255.5356 8 L 253.5455 44.75 L 255.0119 49 L 253.5455 67 L 253.0218 86.25 L 252.2886 91 L 253.4931 115 L 133.25 118.25 L 79.5177 114.75 L 85.7498 118.5 L 61.764 115.75 L 56.2651 117.25 L 12.5879 115 L 13.5306 91 L 14.2638 83.75 L 13.0069 75 L 12.2737 70 L 12.7974 40.75 L 12.2737 33 L 13.2688 27.5 L 12.5879 12 Z "/>
  <g id="ID0.36682082805782557">
    <g id="ID0.9894569311290979">
      <path id="ID0.01115502417087555" fill="#FFFFFF" d="M 32.2818 25.3125 L 34.4088 25.3125 L 43.8167 33.2479 C 44.0622 33.4933 44.3894 33.7387 44.6348 33.9024 C 44.8802 34.1478 45.1257 34.3932 45.3711 34.6386 C 45.3711 34.066 45.2893 33.5751 45.2893 33.2479 C 45.2893 32.9207 45.2893 32.5934 45.2893 32.348 L 45.2893 25.3125 L 48.0708 25.3125 L 48.0708 38.7291 L 45.9438 38.7291 L 36.0449 30.4664 C 35.8813 30.3028 35.6359 30.1392 35.4723 29.9756 C 35.3087 29.8119 35.0632 29.6483 34.8996 29.4029 C 34.9814 29.8938 34.9814 30.3846 34.9814 30.7118 C 34.9814 31.0391 34.9814 31.3663 34.9814 31.5299 L 34.9814 38.8109 L 32.2818 38.8109 L 32.2818 25.3125 Z " stroke-width="0.8180839419364929"/>
      <path id="ID0.6548556215129793" fill="#FFFFFF" d="M 54.9427 25.3125 L 68.6865 25.3125 L 68.6865 27.6031 L 58.0514 27.6031 L 58.0514 30.63 L 64.2688 30.63 L 64.2688 32.9207 L 58.0514 32.9207 L 58.0514 36.2748 L 68.7683 36.2748 L 68.7683 38.8109 L 54.8609 38.8109 L 54.8609 25.3125 Z " stroke-width="0.8180839419364929"/>
      <path id="ID0.6326617826707661" fill="#FFFFFF" d="M 72.1224 25.3125 L 75.313 25.3125 L 78.7489 34.3114 L 82.3485 25.3125 L 84.5573 25.3125 L 88.2387 34.3114 L 91.511 25.3125 L 94.2925 25.3125 L 89.1386 38.7291 L 87.0116 38.7291 L 83.3302 29.4029 L 79.567 38.7291 L 77.2764 38.7291 L 72.1224 25.3125 Z " stroke-width="0.8180839419364929"/>
      <path id="ID0.02899526385590434" fill="#FFFFFF" d="M 111.5541 27.6849 L 111.5541 36.193 L 121.2893 36.193 L 121.2893 33.1661 L 116.2172 33.1661 L 116.2172 30.8755 L 124.398 30.8755 L 124.398 35.5385 C 124.398 36.193 124.3162 36.6839 124.2344 37.0929 C 124.1526 37.5019 123.9072 37.8292 123.6617 38.0746 C 123.4163 38.32 123.0891 38.4836 122.5982 38.5654 C 122.1892 38.6473 121.6165 38.7291 121.0439 38.7291 L 111.7995 38.7291 C 111.145 38.7291 110.6542 38.6473 110.2452 38.5654 C 109.8361 38.4836 109.5089 38.32 109.1816 38.0746 C 108.9362 37.8292 108.7726 37.5019 108.609 37.0929 C 108.5272 36.6839 108.4454 36.193 108.4454 35.5385 L 108.4454 28.4212 C 108.4454 27.7667 108.5272 27.2759 108.609 26.8668 C 108.6908 26.4578 108.9362 26.1306 109.1816 25.8851 C 109.4271 25.6397 109.7543 25.4761 110.2452 25.3943 C 110.6542 25.3125 111.2269 25.2307 111.7995 25.2307 L 121.0439 25.2307 C 121.6165 25.2307 122.1892 25.3125 122.5982 25.3943 C 123.0073 25.4761 123.3345 25.6397 123.6617 25.8851 C 123.9072 26.1306 124.1526 26.4578 124.2344 26.785 C 124.3162 27.1941 124.398 27.6849 124.398 28.2576 L 124.398 28.5848 L 121.3711 29.1575 L 121.3711 27.6849 L 111.5541 27.6849 Z " stroke-width="0.8180839419364929"/>
      <path id="ID0.0075077093206346035" fill="#FFFFFF" d="M 136.0148 25.3125 L 139.0417 25.3125 L 146.7317 38.7291 L 143.2139 38.7291 L 141.5778 35.784 L 133.0697 35.784 L 131.5153 38.7291 L 128.4066 38.7291 L 136.0148 25.3125 Z M 140.2688 33.3297 L 137.4055 27.8485 L 134.3786 33.3297 L 140.2688 33.3297 Z " stroke-width="0.8180839419364929"/>
      <path id="ID0.3216411196626723" fill="#FFFFFF" d="M 151.0675 25.3125 L 153.6036 25.3125 L 159.9028 33.4115 L 166.1203 25.3125 L 168.6563 25.3125 L 168.6563 38.7291 L 165.7931 38.7291 L 165.7931 30.4664 C 165.7931 30.3028 165.7931 30.1392 165.7931 29.8938 C 165.7931 29.6483 165.8749 29.4029 165.8749 28.9939 C 165.7112 29.3211 165.6294 29.5665 165.4658 29.8119 C 165.3022 30.0574 165.2204 30.221 165.0568 30.3846 L 159.9847 37.0929 L 159.3302 37.0929 L 154.2581 30.3846 C 154.0945 30.1392 153.9308 29.9756 153.849 29.7301 C 153.6854 29.4847 153.6036 29.2393 153.5218 28.9939 C 153.6036 29.5665 153.6036 30.0574 153.6036 30.4664 L 153.6036 38.7291 L 151.0675 38.7291 L 151.0675 25.3125 Z " stroke-width="0.8180839419364929"/>
      <path id="ID0.41031998954713345" fill="#FFFFFF" d="M 175.201 25.3125 L 188.9448 25.3125 L 188.9448 27.6031 L 178.3097 27.6031 L 178.3097 30.63 L 184.5272 30.63 L 184.5272 32.9207 L 178.3097 32.9207 L 178.3097 36.2748 L 189.0266 36.2748 L 189.0266 38.8109 L 175.1192 38.8109 L 175.1192 25.3125 Z " stroke-width="0.8180839419364929"/>
    </g>
    <g id="ID0.9832993703894317">
      <path id="ID0.07725802483037114" fill="#FFFFFF" d="M 35.145 58.9357 L 35.145 67.4438 L 43.5713 67.4438 L 43.5713 64.4987 L 46.68 65.1532 L 46.68 66.7075 C 46.68 67.362 46.5982 67.8528 46.5164 68.2619 C 46.4346 68.6709 46.1892 68.9982 45.9438 69.2436 C 45.6983 69.489 45.3711 69.6526 44.8802 69.7344 C 44.4712 69.8163 43.8985 69.8981 43.3259 69.8981 L 35.3087 69.8981 C 34.6542 69.8981 34.1633 69.8163 33.7543 69.7344 C 33.3453 69.6526 33.018 69.489 32.6908 69.2436 C 32.4454 68.9982 32.2818 68.6709 32.1181 68.2619 C 32.0363 67.8528 31.9545 67.362 31.9545 66.7075 L 31.9545 59.5902 C 31.9545 58.9357 32.0363 58.4449 32.1181 58.0358 C 32.1999 57.6268 32.4454 57.2996 32.6908 57.0541 C 32.9362 56.8087 33.2635 56.6451 33.7543 56.5633 C 34.1633 56.4815 34.736 56.3997 35.3087 56.3997 L 43.3259 56.3997 C 43.9804 56.3997 44.4712 56.4815 44.8802 56.5633 C 45.2893 56.6451 45.6165 56.8087 45.9438 57.0541 C 46.1892 57.2996 46.3528 57.6268 46.5164 58.0358 C 46.68 58.4449 46.68 58.9357 46.68 59.5902 L 46.68 60.8991 L 43.5713 61.39 L 43.5713 58.8539 L 35.145 58.8539 Z " stroke-width="0.8180839419364929"/>
      <path id="ID0.04272456793114543" fill="#FFFFFF" d="M 52.9793 58.1176 C 53.0611 57.7086 53.3065 57.3814 53.5519 57.1359 C 53.7974 56.8905 54.1246 56.7269 54.6154 56.6451 C 55.0245 56.5633 55.5971 56.4815 56.1698 56.4815 L 66.0686 56.4815 C 66.7231 56.4815 67.2139 56.5633 67.623 56.6451 C 68.032 56.7269 68.3593 56.8905 68.6865 57.1359 C 68.9319 57.3814 69.0955 57.7086 69.2591 58.1176 C 69.341 58.5267 69.4228 59.0175 69.4228 59.672 L 69.4228 66.7893 C 69.4228 67.4438 69.341 67.9347 69.2591 68.3437 C 69.1773 68.7527 68.9319 69.08 68.6865 69.3254 C 68.4411 69.5708 68.1138 69.7344 67.623 69.8163 C 67.2139 69.8981 66.6413 69.9799 66.0686 69.9799 L 56.1698 69.9799 C 55.5153 69.9799 55.0245 69.8981 54.6154 69.8163 C 54.2064 69.7344 53.8792 69.5708 53.5519 69.3254 C 53.3065 69.08 53.1429 68.7527 52.9793 68.3437 C 52.8975 67.9347 52.8157 67.4438 52.8157 66.7893 L 52.8157 59.672 C 52.8157 59.0994 52.8975 58.5267 52.9793 58.1176 Z M 66.314 67.4438 L 66.314 58.9357 L 56.0062 58.9357 L 56.0062 67.4438 L 66.314 67.4438 Z " stroke-width="0.8180839419364929"/>
      <path id="ID0.5109845036640763" fill="#FFFFFF" d="M 75.9674 56.4815 L 78.0945 56.4815 L 87.5024 64.4169 C 87.7478 64.6623 88.0751 64.9077 88.3205 65.0714 C 88.5659 65.3168 88.8114 65.5622 89.0568 65.8076 C 89.0568 65.235 88.975 64.7441 88.975 64.4169 C 88.975 64.0079 88.975 63.7624 88.975 63.517 L 88.975 56.4815 L 91.7565 56.4815 L 91.7565 69.8981 L 89.6294 69.8981 L 79.7306 61.6354 C 79.567 61.4718 79.3216 61.3082 79.158 61.1446 C 78.9943 60.9809 78.7489 60.8173 78.5853 60.5719 C 78.6671 61.0628 78.6671 61.5536 78.6671 61.8808 C 78.6671 62.2081 78.6671 62.5353 78.6671 62.6989 L 78.6671 69.9799 L 75.8856 69.9799 L 75.8856 56.4815 Z " stroke-width="0.8180839419364929"/>
      <path id="ID0.5137312570586801" fill="#FFFFFF" d="M 104.8458 69.9799 L 101.7371 69.9799 L 101.7371 58.9357 L 95.6014 58.9357 L 95.6014 56.5633 L 111.0632 56.5633 L 111.0632 58.9357 L 104.8458 58.9357 L 104.8458 69.9799 Z " stroke-width="0.8180839419364929"/>
      <path id="ID0.024844693019986153" fill="#FFFFFF" d="M 114.9082 56.4815 L 118.0169 56.4815 L 118.0169 69.8981 L 114.9082 69.8981 L 114.9082 56.4815 Z " stroke-width="0.8180839419364929"/>
      <path id="ID0.27327645383775234" fill="#FFFFFF" d="M 124.807 56.4815 L 126.9341 56.4815 L 136.342 64.4169 C 136.5875 64.6623 136.9147 64.9077 137.1601 65.0714 C 137.4055 65.3168 137.651 65.5622 137.8964 65.8076 C 137.8964 65.235 137.8146 64.7441 137.8146 64.4169 C 137.8146 64.0079 137.8146 63.7624 137.8146 63.517 L 137.8146 56.4815 L 140.5961 56.4815 L 140.5961 69.8981 L 138.469 69.8981 L 128.5702 61.5536 C 128.4066 61.39 128.1612 61.2264 127.9976 61.0628 C 127.834 60.8991 127.5885 60.7355 127.4249 60.4901 C 127.5067 60.9809 127.5067 61.4718 127.5067 61.799 C 127.5067 62.1263 127.5067 62.4535 127.5067 62.6171 L 127.5067 69.8981 L 124.7252 69.8981 L 124.7252 56.4815 Z " stroke-width="0.8180839419364929"/>
      <path id="ID0.7468566494062543" fill="#FFFFFF" d="M 150.5767 67.4438 L 159.4938 67.4438 L 159.4938 56.5633 L 162.6025 56.5633 L 162.6025 66.7893 C 162.6025 67.4438 162.5207 67.9347 162.4389 68.3437 C 162.3571 68.7527 162.1117 69.08 161.8662 69.3254 C 161.6208 69.5708 161.2936 69.7344 160.8027 69.8163 C 160.3119 69.8981 159.821 69.9799 159.2484 69.9799 L 150.7403 69.9799 C 150.0858 69.9799 149.595 69.8981 149.1859 69.8163 C 148.7769 69.7344 148.4497 69.5708 148.1224 69.3254 C 147.7952 69.08 147.7134 68.7527 147.5498 68.3437 C 147.468 67.9347 147.3862 67.4438 147.3862 66.7893 L 147.3862 56.5633 L 150.4949 56.5633 L 150.4949 67.4438 Z " stroke-width="0.8180839419364929"/>
      <path id="ID0.49892297061160207" fill="#FFFFFF" d="M 169.4744 56.4815 L 183.2182 56.4815 L 183.2182 58.7721 L 172.5831 58.7721 L 172.5831 61.799 L 178.8006 61.799 L 178.8006 64.0897 L 172.5831 64.0897 L 172.5831 67.4438 L 183.3 67.4438 L 183.3 69.9799 L 169.3926 69.9799 L 169.3926 56.4815 Z " stroke-width="0.8180839419364929"/>
    </g>
    <g id="ID0.5109028634615242">
      <path id="ID0.41925208270549774" fill="#FFFFFF" d="M 35.145 90.1047 L 35.145 92.968 L 43.4895 92.968 C 44.144 92.968 44.6348 93.0498 45.0439 93.1316 C 45.4529 93.2135 45.8619 93.3771 46.1074 93.6225 C 46.3528 93.8679 46.5164 94.1952 46.68 94.6042 C 46.7618 95.0132 46.8436 95.5041 46.8436 96.1586 L 46.8436 98.0401 C 46.8436 98.6946 46.7618 99.1855 46.68 99.5945 C 46.5982 100.0035 46.3528 100.3308 46.1074 100.5762 C 45.8619 100.8216 45.5347 100.9852 45.0439 101.0671 C 44.6348 101.1489 44.0622 101.2307 43.4895 101.2307 L 35.2269 101.2307 C 34.5724 101.2307 34.0815 101.1489 33.6725 101.0671 C 33.2635 100.9852 32.8544 100.8216 32.609 100.5762 C 32.3636 100.3308 32.1999 100.0035 32.0363 99.5945 C 31.9545 99.1855 31.8727 98.6946 31.8727 98.0401 L 31.8727 97.7129 L 34.6542 97.1403 L 34.6542 98.6946 L 44.144 98.6946 L 44.144 95.5859 L 35.7995 95.5859 C 35.145 95.5859 34.6542 95.5041 34.2452 95.4223 C 33.8361 95.3405 33.5089 95.1769 33.1816 94.9314 C 32.9362 94.686 32.7726 94.3588 32.609 93.9497 C 32.5272 93.5407 32.4454 93.0498 32.4454 92.3954 L 32.4454 90.9228 C 32.4454 90.2683 32.5272 89.7775 32.609 89.3685 C 32.6908 88.9594 32.9362 88.6322 33.1816 88.3868 C 33.4271 88.1413 33.7543 87.9777 34.2452 87.8959 C 34.6542 87.8141 35.2269 87.7323 35.7995 87.7323 L 43.4077 87.7323 C 43.9804 87.7323 44.4712 87.8141 44.9621 87.8959 C 45.3711 87.9777 45.6983 88.1413 46.0256 88.3868 C 46.271 88.6322 46.5164 88.8776 46.5982 89.2866 C 46.68 89.6957 46.7618 90.1047 46.7618 90.7592 L 46.7618 91.0046 L 43.9804 91.6591 L 43.9804 90.1047 L 35.145 90.1047 Z " stroke-width="0.8180839419364929"/>
      <path id="ID0.9276553154923022" fill="#FFFFFF" d="M 53.3065 87.7323 L 56.4152 87.7323 L 56.4152 92.968 L 66.1504 92.968 L 66.1504 87.7323 L 69.2591 87.7323 L 69.2591 101.1489 L 66.1504 101.1489 L 66.1504 95.3405 L 56.4152 95.3405 L 56.4152 101.1489 L 53.3065 101.1489 L 53.3065 87.7323 Z " stroke-width="0.8180839419364929"/>
      <path id="ID0.35677889501675963" fill="#FFFFFF" d="M 76.1311 89.3685 C 76.2129 88.9594 76.4583 88.6322 76.7037 88.3868 C 76.9491 88.1413 77.2764 87.9777 77.7672 87.8959 C 78.1763 87.8141 78.7489 87.7323 79.3216 87.7323 L 89.2204 87.7323 C 89.8749 87.7323 90.3657 87.8141 90.7748 87.8959 C 91.1838 87.9777 91.511 88.1413 91.8383 88.3868 C 92.0837 88.6322 92.2473 88.9594 92.4109 89.3685 C 92.4927 89.7775 92.5745 90.2683 92.5745 90.9228 L 92.5745 98.0401 C 92.5745 98.6946 92.4927 99.1855 92.4109 99.5945 C 92.3291 100.0035 92.0837 100.3308 91.8383 100.5762 C 91.5928 100.8216 91.2656 100.9852 90.7748 101.0671 C 90.3657 101.1489 89.7931 101.2307 89.2204 101.2307 L 79.3216 101.2307 C 78.6671 101.2307 78.1763 101.1489 77.7672 101.0671 C 77.3582 100.9852 77.0309 100.8216 76.7037 100.5762 C 76.4583 100.3308 76.2947 100.0035 76.1311 99.5945 C 76.0492 99.1855 75.9674 98.6946 75.9674 98.0401 L 75.9674 90.9228 C 75.9674 90.2683 76.0492 89.7775 76.1311 89.3685 Z M 89.384 98.6128 L 89.384 90.1047 L 79.0762 90.1047 L 79.0762 98.6128 L 89.384 98.6128 Z " stroke-width="0.8180839419364929"/>
      <path id="ID0.6179660353809595" fill="#FFFFFF" d="M 96.665 87.7323 L 99.8555 87.7323 L 103.2914 96.7312 L 106.891 87.7323 L 109.0998 87.7323 L 112.7812 96.7312 L 116.0535 87.7323 L 118.835 87.7323 L 113.6811 101.1489 L 111.5541 101.1489 L 107.8727 91.8227 L 104.1095 101.1489 L 101.9825 101.1489 L 96.665 87.7323 Z " stroke-width="0.8180839419364929"/>
      <path id="ID0.8478643051348627" fill="#FFFFFF" d="M 126.0342 90.1047 L 126.0342 98.6128 L 134.4604 98.6128 L 134.4604 95.7495 L 137.5692 96.404 L 137.5692 97.9583 C 137.5692 98.6128 137.4873 99.1037 137.4055 99.5127 C 137.3237 99.9217 137.0783 100.249 136.8329 100.4944 C 136.5875 100.7398 136.2602 100.9034 135.7694 100.9852 C 135.2785 101.0671 134.7877 101.1489 134.215 101.1489 L 126.1978 101.1489 C 125.5433 101.1489 125.0525 101.0671 124.6434 100.9852 C 124.2344 100.9034 123.9072 100.7398 123.5799 100.4944 C 123.3345 100.249 123.1709 99.9217 123.0073 99.5127 C 122.9255 99.1037 122.8436 98.6128 122.8436 97.9583 L 122.8436 90.841 C 122.8436 90.1865 122.9255 89.6957 123.0073 89.2866 C 123.0891 88.8776 123.3345 88.5504 123.5799 88.3049 C 123.8253 88.0595 124.1526 87.8959 124.6434 87.8141 C 125.0525 87.7323 125.6251 87.6505 126.1978 87.6505 L 134.215 87.6505 C 134.8695 87.6505 135.3603 87.7323 135.7694 87.8141 C 136.1784 87.8959 136.5056 88.0595 136.8329 88.3049 C 137.1601 88.5504 137.2419 88.8776 137.4055 89.2866 C 137.4873 89.6957 137.5692 90.1865 137.5692 90.841 L 137.5692 92.1499 L 134.4604 92.6408 L 134.4604 90.1047 L 126.0342 90.1047 Z " stroke-width="0.8180839419364929"/>
      <path id="ID0.08214924624189734" fill="#FFFFFF" d="M 149.1041 87.7323 L 152.131 87.7323 L 159.821 101.1489 L 156.3033 101.1489 L 154.6671 98.2038 L 146.159 98.2038 L 144.6047 101.1489 L 141.496 101.1489 L 149.1041 87.7323 Z M 153.3582 95.8313 L 150.4949 90.3502 L 147.468 95.8313 L 153.3582 95.8313 Z " stroke-width="0.8180839419364929"/>
      <path id="ID0.9592152368277311" fill="#FFFFFF" d="M 166.9384 90.1047 L 166.9384 92.968 L 175.2828 92.968 C 175.9373 92.968 176.4281 93.0498 176.8372 93.1316 C 177.2462 93.2135 177.6553 93.3771 177.9007 93.6225 C 178.1461 93.8679 178.3097 94.1952 178.4734 94.6042 C 178.5552 95.0132 178.637 95.5041 178.637 96.1586 L 178.637 98.0401 C 178.637 98.6946 178.5552 99.1855 178.4734 99.5945 C 178.3915 100.0035 178.1461 100.3308 177.9007 100.5762 C 177.6553 100.8216 177.328 100.9852 176.8372 101.0671 C 176.3463 101.1489 175.8555 101.2307 175.2828 101.2307 L 166.9384 101.2307 C 166.2839 101.2307 165.7931 101.1489 165.384 101.0671 C 164.975 100.9852 164.5659 100.8216 164.3205 100.5762 C 164.0751 100.3308 163.9115 100.0035 163.7478 99.5945 C 163.666 99.1855 163.5842 98.6946 163.5842 98.0401 L 163.5842 97.7129 L 166.3657 97.1403 L 166.3657 98.6946 L 175.8555 98.6946 L 175.8555 95.5859 L 167.511 95.5859 C 166.8566 95.5859 166.3657 95.5041 165.9567 95.4223 C 165.5476 95.3405 165.2204 95.1769 164.8932 94.9314 C 164.6477 94.686 164.4841 94.3588 164.3205 93.9497 C 164.2387 93.5407 164.1569 93.0498 164.1569 92.3954 L 164.1569 90.9228 C 164.1569 90.2683 164.2387 89.7775 164.3205 89.3685 C 164.4023 88.9594 164.6477 88.6322 164.8932 88.3868 C 165.1386 88.1413 165.4658 87.9777 165.9567 87.8959 C 166.3657 87.8141 166.9384 87.7323 167.511 87.7323 L 175.1192 87.7323 C 175.6919 87.7323 176.1827 87.8141 176.6736 87.8959 C 177.1644 87.9777 177.4098 88.1413 177.7371 88.3868 C 177.9825 88.6322 178.2279 88.8776 178.3097 89.2866 C 178.3915 89.6957 178.4734 90.1047 178.4734 90.7592 L 178.4734 91.0046 L 175.6919 91.6591 L 175.6919 90.1047 L 166.9384 90.1047 Z " stroke-width="0.8180839419364929"/>
      <path id="ID0.23987771524116397" fill="#FFFFFF" d="M 185.1816 87.7323 L 198.9255 87.7323 L 198.9255 90.0229 L 188.2904 90.0229 L 188.2904 93.0498 L 194.5078 93.0498 L 194.5078 95.3405 L 188.2904 95.3405 L 188.2904 98.6946 L 199.0073 98.6946 L 199.0073 101.2307 L 185.0998 101.2307 L 185.0998 87.7323 Z " stroke-width="0.8180839419364929"/>
    </g>
  </g>
  <path id="ID0.2644723285920918" fill="#FFFFFF" stroke="none" d="M 273.5 42 C 274.397 42 275.209 42.364 275.797 42.953 C 276.386 43.541 276.75 44.353 276.75 45.25 C 276.75 46.147 276.386 46.959 275.797 47.547 C 275.209 48.136 274.397 48.5 273.5 48.5 C 272.603 48.5 271.791 48.136 271.203 47.547 C 270.614 46.959 270.25 46.147 270.25 45.25 C 270.25 44.353 270.614 43.541 271.203 42.953 C 271.791 42.364 272.603 42 273.5 42 Z " stroke-width="1"/>
  <path id="ID0.2644723285920918" fill="#FFFFFF" stroke="none" d="M 273.9769 51.4923 C 274.3909 51.4923 274.7657 51.6603 275.0371 51.9322 C 275.3089 52.2035 275.4769 52.5783 275.4769 52.9923 C 275.4769 53.4063 275.3089 53.7811 275.0371 54.0525 C 274.7657 54.3243 274.3909 54.4923 273.9769 54.4923 C 273.5629 54.4923 273.1882 54.3243 272.9168 54.0525 C 272.6449 53.7811 272.4769 53.4063 272.4769 52.9923 C 272.4769 52.5783 272.6449 52.2035 272.9168 51.9322 C 273.1882 51.6603 273.5629 51.4923 273.9769 51.4923 Z " stroke-width="0.4615384638309479"/>
  <path id="ID0.2644723285920918" fill="#FFFFFF" stroke="none" d="M 14 126.25 C 14.897 126.25 15.709 126.614 16.297 127.203 C 16.886 127.791 17.25 128.603 17.25 129.5 C 17.25 130.397 16.886 131.209 16.297 131.797 C 15.709 132.386 14.897 132.75 14 132.75 C 13.103 132.75 12.291 132.386 11.703 131.797 C 11.114 131.209 10.75 130.397 10.75 129.5 C 10.75 128.603 11.114 127.791 11.703 127.203 C 12.291 126.614 13.103 126.25 14 126.25 Z " stroke-width="1"/>
  <path id="ID0.2644723285920918" fill="#FFFFFF" stroke="none" d="M 14.4769 137.4923 C 14.8909 137.4923 15.2657 137.6603 15.5371 137.9322 C 15.8089 138.2035 15.9769 138.5783 15.9769 138.9923 C 15.9769 139.4063 15.8089 139.7811 15.5371 140.0525 C 15.2657 140.3243 14.8909 140.4923 14.4769 140.4923 C 14.0629 140.4923 13.6882 140.3243 13.4168 140.0525 C 13.1449 139.7811 12.9769 139.4063 12.9769 138.9923 C 12.9769 138.5783 13.1449 138.2035 13.4168 137.9322 C 13.6882 137.6603 14.0629 137.4923 14.4769 137.4923 Z " stroke-width="0.4615384638309479"/>
  <path id="ID0.2644723285920918" fill="#FFFFFF" stroke="none" d="M 17.5 123.25 C 18.397 123.25 19.209 123.614 19.797 124.203 C 20.386 124.791 20.75 125.603 20.75 126.5 C 20.75 127.397 20.386 128.209 19.797 128.797 C 19.209 129.386 18.397 129.75 17.5 129.75 C 16.603 129.75 15.791 129.386 15.203 128.797 C 14.614 128.209 14.25 127.397 14.25 126.5 C 14.25 125.603 14.614 124.791 15.203 124.203 C 15.791 123.614 16.603 123.25 17.5 123.25 Z " stroke-width="1"/>
  <g id="ID0.13357754703611135">
    <path id="ID0.36414373060688376" fill="#FFFFFF" stroke="none" d="M 33.5819 114.8826 C 33.9125 114.7842 34.5154 115.7159 35.2233 117.2988 C 35.9305 118.8828 36.7422 121.1192 37.4898 123.6313 C 38.2375 126.1434 38.7808 128.4597 39.0548 130.1727 C 39.3276 131.885 39.3324 132.9948 39.0017 133.0932 C 38.671 133.1916 38.0682 132.2598 37.3603 130.677 C 36.653 129.0929 35.8414 126.8566 35.0937 124.3445 C 34.3461 121.8323 33.8028 119.5161 33.5287 117.8031 C 33.256 116.0908 33.2512 114.981 33.5819 114.8826 Z " stroke-width="1.0000000229921484"/>
    <path id="ID0.2644723285920918" fill="#FFFFFF" stroke="none" d="M 39.8115 135.5038 C 40.053 135.5038 40.2717 135.6018 40.43 135.7604 C 40.5885 135.9187 40.6865 136.1373 40.6865 136.3788 C 40.6865 136.6203 40.5885 136.839 40.43 136.9973 C 40.2717 137.1558 40.053 137.2538 39.8115 137.2538 C 39.57 137.2538 39.3514 137.1558 39.1931 136.9973 C 39.0345 136.839 38.9365 136.6203 38.9365 136.3788 C 38.9365 136.1373 39.0345 135.9187 39.1931 135.7604 C 39.3514 135.6018 39.57 135.5038 39.8115 135.5038 Z " stroke-width="0.26923078298568726"/>
  </g>
</svg>