<svg xmlns="http://www.w3.org/2000/svg" xmlns:xlink="http://www.w3.org/1999/xlink" version="1.1" width="130.39749153682467" height="314.92929085323095" viewBox="0.020899970189343753 -0.041604082926500974 130.39749153682467 314.92929085323095">
  <!-- Exported by Scratch - http://scratch.mit.edu/ -->
  <path id="ID0.7729651997797191" fill="#282828" stroke="none" stroke-linecap="round" d="M 10.3038 76.0059 L 34.0301 77.5343 L 29.6396 97.4142 L 24.7107 107.6074 L 22.4231 116.6121 L 19.1317 124.8459 L 2.7052 120.085 L 1.0536 113.1269 L 7.6151 89.6595 L 10.3038 76.0059 Z " stroke-width="0.9588636791095254"/>
  <path id="ID0.4757494777441025" fill="#282828" stroke="none" stroke-linecap="round" d="M 23.0861 60.2198 L 32.1201 59.3896 L 47.6363 66.6174 L 35.5529 90.5813 L 24.2842 93.969 L 19.525 94.3482 L 16.603 91.5096 L 14.1314 88.1359 L 8.7007 84.6856 L 9.3805 79.251 L 11.2912 71.3511 L 15.7802 63.5917 L 23.0861 60.2198 Z " stroke-width="0.4829924872373927"/>
  <g id="ID0.5880346246995032">
    <path id="ID0.6829322893172503" fill="#1D1E1F" stroke="none" stroke-linecap="round" d="M 109.7221 172.8586 L 119.1354 166.0915 L 123.2745 170.9809 L 128.2866 176.1367 L 129.2395 181.7719 L 129.4184 186.503 L 127.9164 189.8622 L 127.6306 196.7419 L 122.9677 197.3234 L 121.4198 195.515 L 119.7757 195.586 L 116.1132 193.5142 L 112.1813 191.0739 L 109.42 186.9865 L 109.0339 179.8064 L 109.7221 172.8586 Z " stroke-width="0.8164595974671907"/>
    <g id="ID0.9434720128774643">
      <path id="ID0.6507829907350242" fill="#282828" stroke="none" stroke-linecap="round" d="M 93.3069 109.8464 L 113.7255 116.7443 L 115.2219 133.6733 L 116.2452 146.335 L 118.9338 162.2344 L 122.392 168.7294 L 108.2764 173.6419 L 107.8024 166.1868 L 104.3575 156.8327 L 99.4639 145.0325 L 96.4399 132.0466 L 93.3069 109.8464 Z " stroke-width="0.8164595974671907"/>
      <path id="ID0.9892375003546476" fill="none" stroke="#191919" stroke-width="2.0000000817465566" stroke-linecap="round" d="M 108.612 172.7177 L 121.4646 167.7553 L 117.5823 159.7911 "/>
    </g>
  </g>
  <path id="ID0.7729651997797191" fill="#282828" stroke="none" stroke-linecap="round" d="M 114.3284 79.828 L 91.0029 75.2247 L 90.1517 95.5658 L 92.3036 106.6818 L 92.207 115.972 L 93.2783 124.7744 L 110.3763 124.3824 L 113.756 118.08 L 113.4281 93.7148 L 114.3284 79.828 Z " stroke-width="0.9588636550441055"/>
  <path id="ID0.4757494777441025" fill="#282828" stroke="none" stroke-linecap="round" d="M 105.3478 62.808 L 96.8283 59.6903 L 79.9779 62.7 L 85.516 88.9604 L 95.5401 95.1229 L 100.0433 96.7092 L 103.5952 94.7143 L 106.8488 92.0867 L 112.9824 90.1435 L 113.7181 84.7161 L 113.8959 76.5904 L 111.5454 67.9397 L 105.3478 62.808 Z " stroke-width="0.482992481961726"/>
  <g id="ID0.6660797297954559">
    <path id="ID0.5368814701214433" fill="#343434" stroke="none" stroke-linecap="round" d="M 67.2028 298.7277 L 70.0862 289.8977 L 74.5751 280.6508 L 84.5512 286.5088 L 95.8173 294.1439 L 113.2793 304.4862 L 114.3578 311.0018 L 89.6604 312.1807 L 68.4154 308.5144 L 67.2028 298.7277 Z " stroke-width="0.7702165290554439"/>
    <g id="ID0.5077062323689461">
      <path id="ID0.05466862628236413" fill="#252525" stroke="none" stroke-linecap="round" d="M 68.3016 226.4762 L 89.9943 223.0959 L 88.2584 237.7791 L 87.5161 242.7923 L 87.5096 257.2768 L 90.0103 290.528 L 68.7664 293.2982 L 67.4291 274.5496 L 65.1173 267.483 L 63.9475 259.7551 L 65.5457 248.6478 L 65.4469 238.5319 L 68.3016 226.4762 Z " stroke-width="0.5998532736063101"/>
      <path id="ID0.5319394422695041" fill="none" stroke="#131313" stroke-width="2" stroke-linecap="round" d="M 90.05 289.6 L 68.8 293.6 L 67.8 282.1 "/>
    </g>
    <g id="ID0.8820344842970371">
      <path id="ID0.3809091211296618" fill="#252525" stroke="none" stroke-linecap="round" d="M 57.0785 152.8033 L 88.7936 133.2871 L 90.0562 157.5149 L 94.0446 205.9911 L 93.562 216.7436 L 89.5609 228.0264 L 81.4676 225.8424 L 68.5144 227.1329 L 67.8531 205.371 L 66.1148 192.0681 L 57.0785 152.8033 Z " stroke-width="0.7305889665074583"/>
      <path id="ID0.9495224836282432" fill="none" stroke="#131313" stroke-width="2" stroke-linecap="round" d="M 94.05 206.1 L 94.05 214.6 L 92.05 222.6 L 83.55 227.1 L 82.55 232.1 "/>
    </g>
  </g>
  <g id="ID0.18228224432095885">
    <path id="ID0.5368814701214433" fill="#404040" stroke="none" stroke-linecap="round" d="M 28.8899 299.9519 L 31.9637 291.1863 L 36.6516 282.0387 L 46.4987 288.1112 L 57.5969 295.9883 L 74.831 306.7061 L 75.7682 313.2434 L 51.0511 313.8877 L 29.8904 309.7625 L 28.8899 299.9519 Z " stroke-width="0.7702165249851639"/>
    <g id="ID0.5077062323689461">
      <path id="ID0.05466862628236413" fill="#252525" stroke="none" stroke-linecap="round" d="M 32.8416 227.1183 L 54.6698 224.766 L 52.2424 239.351 L 51.2643 244.3235 L 50.5739 258.7916 L 51.5018 292.1237 L 30.1508 293.8878 L 29.7002 275.097 L 27.7247 267.9291 L 26.921 260.1545 L 29.0419 249.1351 L 29.4209 239.0258 L 32.8416 227.1183 Z " stroke-width="0.5998532668114317"/>
      <path id="ID0.5319394422695041" fill="none" stroke="#131313" stroke-width="1.9999999924153835" stroke-linecap="round" d="M 51.5982 291.1754 L 30.1831 294.1676 L 29.7272 282.6332 "/>
    </g>
    <g id="ID0.8820344842970371">
      <path id="ID0.3809091211296618" fill="#252525" stroke="none" stroke-linecap="round" d="M 30.3068 150.4403 L 57.8169 134.9934 L 57.9342 159.2537 L 59.6293 207.8642 L 58.6395 218.5819 L 54.1102 229.6632 L 46.129 227.0995 L 32.5827 229.115 L 30.6896 206.0026 L 29.7717 192.9458 L 30.3068 150.4403 Z " stroke-width="0.7305889820079058"/>
      <path id="ID0.9495224836282432" fill="none" stroke="#131313" stroke-width="1.9999999924153835" stroke-linecap="round" d="M 59.5363 207.9574 L 59.135 216.4479 L 56.7595 224.3446 L 48.0565 228.4382 L 46.8215 233.3854 "/>
    </g>
  </g>
  <g id="ID0.8990198895335197">
    <path id="ID0.17576928716152906" fill="#DBDBDB" stroke="none" d="M 62.55 55.6 L 62.3 55.6 L 62.3 55.6 L 62.55 55.6 L 62.55 55.6 Z " stroke-width="1"/>
    <path id="ID0.4270821204409003" fill="#252525" stroke="none" stroke-linecap="round" d="M 60.3901 177.6011 L 60.1361 64.8448 L 77.4913 67.3245 L 84.305 71.7522 L 87.0772 75.8578 L 93.8615 87.4286 L 92.93 97.8866 L 91.8642 103.3413 L 93.387 110.2785 L 93.7494 115.7629 L 91.4639 122.621 L 89.7366 127.8238 L 88.3537 137.0818 L 89.3985 159.0108 L 84.0868 167.1158 L 79.1736 173.2287 L 60.3901 177.6011 Z " stroke-width="0.47614257300029306"/>
    <path id="ID0.4270821204409003" fill="#252525" stroke="none" stroke-linecap="round" d="M 60.5099 177.7511 L 60.7639 64.9948 L 43.4087 67.4745 L 36.595 71.9022 L 33.8228 76.0078 L 27.0385 87.5786 L 27.97 98.0366 L 29.0358 103.4913 L 27.513 110.4285 L 27.1506 115.9129 L 29.4361 122.771 L 31.1634 127.9738 L 32.5463 137.2318 L 31.5015 159.1608 L 36.8132 167.2658 L 41.7264 173.3787 L 60.5099 177.7511 Z " stroke-width="0.47614257300029306"/>
    <path id="ID0.5114514343440533" fill="#282828" stroke="none" d="M 34.2326 66.1777 L 87.2326 66.1777 L 87.2326 154.4277 L 34.2326 154.4277 L 34.2326 66.1777 Z " stroke-width="1.0073066040733152"/>
    <path id="ID0.9286923445761204" fill="#D4D4D4" stroke="none" stroke-linecap="round" d="M 50.3867 52.4723 L 67.6707 33.7361 L 60.5523 52.6152 L 61.8141 93.0873 L 23.8656 64.0426 L 44.0064 53.2341 L 50.3867 52.4723 Z " stroke-width="0.4761425852775574"/>
    <path id="ID0.9286923445761204" fill="#D4D4D4" stroke="none" stroke-linecap="round" d="M 66.7636 51.3653 L 52.9793 33.9861 L 60.0977 52.8652 L 61.3118 92.8611 L 96.7844 64.2926 L 77.0007 52.4842 L 66.7636 51.3653 Z " stroke-width="0.4761425852775574"/>
    <path id="ID0.39874776685610414" fill="#C3C3C3" stroke="none" stroke-linecap="round" d="M 42.0977 54.164 L 61.9674 64.0348 L 79.8354 55.0738 L 83.8386 57.2117 L 61.7721 67.8102 L 38.3386 56.12 L 42.0977 54.164 Z " stroke-width="0.943659350131214"/>
    <path id="ID0.13444371055811644" fill="#1F1F1F" stroke="none" stroke-linecap="round" d="M 59.55 65.85 L 64.8 65.6 L 67.6 94.1 L 55.55 94.6 L 59.55 65.85 Z " stroke-width="1"/>
    <path id="ID0.751046194229275" fill="#191919" stroke="none" stroke-linecap="round" d="M 57.265 60.935 L 61.94 58.9 L 66.45 60.935 L 66.89 68.91 L 62.49 69.9 L 57.265 68.91 L 57.265 60.935 Z " stroke-width="1.100000023841858"/>
    <path id="ID0.7854711129330099" fill="#282828" stroke="none" stroke-linecap="round" d="M 48.3 82.6 L 62.3 91.35 L 76.05 81.6 L 74.05 99.1 L 50.8 99.1 L 48.3 82.6 Z " stroke-width="1"/>
    <path id="ID0.562834897544235" fill="#282828" stroke="none" stroke-linecap="round" d="M 31.55 154.1 L 61.8 148.35 L 61.8 168.6 L 48.05 169.85 L 31.55 154.1 Z " stroke-width="1"/>
    <path id="ID0.562834897544235" fill="#282828" stroke="none" stroke-linecap="round" d="M 92.5 154.35 L 62.25 148.6 L 62.25 168.85 L 76 170.1 L 92.5 154.35 Z " stroke-width="1"/>
    <path id="ID0.6824178956449032" fill="none" stroke="#191919" stroke-width="2" stroke-linecap="round" d="M 62.05 91.6 L 61.8 168.35 "/>
    <path id="ID0.4144489667378366" fill="#313131" stroke="none" stroke-linecap="round" d="M 23.3 61.1 L 43.55 53.1 L 40.55 74.85 L 43.8 134.85 L 34.3 179.6 L 23.3 174.6 L 23.05 178.1 L 26.05 130.1 L 21.3 86.85 L 20.3 70.6 L 23.3 61.1 Z " stroke-width="1"/>
    <path id="ID0.5234400681219995" fill="#101010" stroke="none" d="M 64.2662 97.3125 C 64.6789 97.3125 65.0531 97.4801 65.324 97.751 C 65.5949 98.0219 65.7625 98.3961 65.7625 98.8087 C 65.7625 99.2214 65.5949 99.5956 65.324 99.8665 C 65.0531 100.1374 64.6789 100.305 64.2662 100.305 C 63.8536 100.305 63.4794 100.1374 63.2085 99.8665 C 62.9376 99.5956 62.77 99.2214 62.77 98.8087 C 62.77 98.3961 62.9376 98.0219 63.2085 97.751 C 63.4794 97.4801 63.8536 97.3125 64.2662 97.3125 Z " stroke-width="0.6299999952316284"/>
    <path id="ID0.5234400681219995" fill="#101010" stroke="none" d="M 64.2662 110.9125 C 64.6789 110.9125 65.0531 111.0801 65.324 111.351 C 65.5949 111.6219 65.7625 111.9961 65.7625 112.4087 C 65.7625 112.8214 65.5949 113.1956 65.324 113.4665 C 65.0531 113.7374 64.6789 113.905 64.2662 113.905 C 63.8536 113.905 63.4794 113.7374 63.2085 113.4665 C 62.9376 113.1956 62.77 112.8214 62.77 112.4087 C 62.77 111.9961 62.9376 111.6219 63.2085 111.351 C 63.4794 111.0801 63.8536 110.9125 64.2662 110.9125 Z " stroke-width="0.6299999952316284"/>
    <path id="ID0.5234400681219995" fill="#101010" stroke="none" d="M 64.2662 142.4125 C 64.6789 142.4125 65.0531 142.5801 65.324 142.851 C 65.5949 143.1219 65.7625 143.4961 65.7625 143.9087 C 65.7625 144.3214 65.5949 144.6956 65.324 144.9665 C 65.0531 145.2374 64.6789 145.405 64.2662 145.405 C 63.8536 145.405 63.4794 145.2374 63.2085 144.9665 C 62.9376 144.6956 62.77 144.3214 62.77 143.9087 C 62.77 143.4961 62.9376 143.1219 63.2085 142.851 C 63.4794 142.5801 63.8536 142.4125 64.2662 142.4125 Z " stroke-width="0.6299999952316284"/>
    <path id="ID0.5234400681219995" fill="#101010" stroke="none" d="M 64.2662 127.6625 C 64.6789 127.6625 65.0531 127.8301 65.324 128.101 C 65.5949 128.3719 65.7625 128.7461 65.7625 129.1587 C 65.7625 129.5714 65.5949 129.9456 65.324 130.2165 C 65.0531 130.4874 64.6789 130.655 64.2662 130.655 C 63.8536 130.655 63.4794 130.4874 63.2085 130.2165 C 62.9376 129.9456 62.77 129.5714 62.77 129.1587 C 62.77 128.7461 62.9376 128.3719 63.2085 128.101 C 63.4794 127.8301 63.8536 127.6625 64.2662 127.6625 Z " stroke-width="0.6299999952316284"/>
    <path id="ID0.5234400681219995" fill="#101010" stroke="none" d="M 64.1662 156.4125 C 64.5789 156.4125 64.9531 156.5801 65.224 156.851 C 65.4949 157.1219 65.6625 157.4961 65.6625 157.9087 C 65.6625 158.3214 65.4949 158.6956 65.224 158.9665 C 64.9531 159.2374 64.5789 159.405 64.1662 159.405 C 63.7536 159.405 63.3794 159.2374 63.1085 158.9665 C 62.8376 158.6956 62.67 158.3214 62.67 157.9087 C 62.67 157.4961 62.8376 157.1219 63.1085 156.851 C 63.3794 156.5801 63.7536 156.4125 64.1662 156.4125 Z " stroke-width="0.6299999952316284"/>
    <path id="ID0.4144489667378366" fill="#313131" stroke="none" stroke-linecap="round" d="M 96.85 60.25 L 76.6 52.25 L 79.6 74 L 76.35 134 L 85.85 178.75 L 96.85 173.75 L 97.1 177.25 L 94.1 129.25 L 98.85 86 L 99.85 69.75 L 96.85 60.25 Z " stroke-width="1"/>
    <path id="ID0.8752945330925286" fill="none" stroke="#222222" stroke-width="2" stroke-linecap="round" d="M 23.8 61.35 L 20.55 69.1 L 23.8 106.85 "/>
    <path id="ID0.8752945330925286" fill="none" stroke="#222222" stroke-width="2" stroke-linecap="round" d="M 97.05 60.85 L 100.3 68.6 L 97.05 106.35 "/>
    <path id="ID0.5234400681219995" fill="#101010" stroke="none" d="M 41.1662 143.0625 C 41.5789 143.0625 41.9531 143.2301 42.224 143.501 C 42.4949 143.7719 42.6625 144.1461 42.6625 144.5587 C 42.6625 144.9714 42.4949 145.3456 42.224 145.6165 C 41.9531 145.8874 41.5789 146.055 41.1662 146.055 C 40.7536 146.055 40.3794 145.8874 40.1085 145.6165 C 39.8376 145.3456 39.67 144.9714 39.67 144.5587 C 39.67 144.1461 39.8376 143.7719 40.1085 143.501 C 40.3794 143.2301 40.7536 143.0625 41.1662 143.0625 Z " stroke-width="0.6299999952316284"/>
    <path id="ID0.5234400681219995" fill="#101010" stroke="none" d="M 39.7662 150.3125 C 40.1789 150.3125 40.5531 150.4801 40.824 150.751 C 41.0949 151.0219 41.2625 151.3961 41.2625 151.8087 C 41.2625 152.2214 41.0949 152.5956 40.824 152.8665 C 40.5531 153.1374 40.1789 153.305 39.7662 153.305 C 39.3536 153.305 38.9794 153.1374 38.7085 152.8665 C 38.4376 152.5956 38.27 152.2214 38.27 151.8087 C 38.27 151.3961 38.4376 151.0219 38.7085 150.751 C 38.9794 150.4801 39.3536 150.3125 39.7662 150.3125 Z " stroke-width="0.6299999952316284"/>
    <g id="ID0.20783481979742646">
      <path id="ID0.5848579816520214" fill="#737373" stroke="none" stroke-linecap="round" d="M 86.25 88.7 L 93.1 87.2 L 93 91.1 L 85.75 91.6 L 86.25 88.7 Z " stroke-width="1"/>
      <path id="ID0.13105127029120922" fill="none" stroke="#222222" stroke-width="2" stroke-linecap="round" d="M 84.4 91.85 L 88.9 91.85 L 94.15 90.35 "/>
    </g>
  </g>
  <path id="ID0.46110434643924236" fill="#D8BFA7" stroke="none" stroke-linecap="round" d="M 48.7948 34.05 L 71.4095 34.05 L 71.877 53 L 65.6828 55.85 L 48.7948 54.15 L 48.7948 34.05 Z " stroke-width="1.0876357641452272"/>
  <g id="ID0.9046455742791295">
    <path id="ID0.8999492498114705" fill="#EDD2B8" stroke="none" stroke-linecap="round" d="M 55.159 4.222 C 50.7572 4.7228 46.0388 7.4566 43.9258 11.35 C 41.5148 15.7951 43.4186 21.3772 43.2153 26.3809 C 43.1152 28.1215 42.8945 29.9404 43.3431 31.6894 C 43.8653 34.8428 45.0674 37.8465 46.0817 40.973 C 46.7643 43.0806 46.9669 45.416 48.1453 47.3133 C 49.4722 49.5594 50.8304 52.6868 53.4323 53.1297 C 57.2895 53.7858 61.3569 51.9245 64.7977 50.1522 C 67.6244 48.6959 70.2669 46.4708 71.8276 43.6907 C 74.6217 38.5319 77.1547 32.8593 77.5111 26.9733 C 77.9061 20.4486 78.6364 12.3788 73.8594 7.6857 C 69.5847 3.1655 61.7025 3.4804 55.159 4.222 Z " stroke-width="0.5080372285945052"/>
    <path id="ID0.8194515448994935" fill="#EDD2B8" stroke="none" stroke-linecap="round" d="M 77.5902 21.5939 C 76.7367 21.6852 76.1215 22.2572 75.6197 23.3187 C 75.118 24.3802 74.8112 25.8437 74.8192 27.4577 C 74.8272 29.0717 75.1484 30.5321 75.6607 31.5886 C 76.1729 32.6451 76.7946 33.184 77.6481 33.2938 C 78.4316 33.3929 79.4355 32.9589 79.7931 32.2832 C 80.4647 30.7818 80.3359 29.0054 80.4191 27.43 C 80.5015 25.8816 80.8531 24.1778 80.2461 22.7808 C 79.7629 21.9292 78.4848 21.4985 77.5902 21.5939 Z " stroke-width="0.9999999606170507"/>
    <path id="ID0.5768358684144914" fill="#2E3234" stroke="none" d="M 78.5278 18.4641 L 72.5279 18.4938 L 72.5368 20.2938 L 78.5367 20.2641 L 78.5278 18.4641 Z " stroke-width="0.9999999606170507"/>
    <path id="ID0.3245162623934448" fill="#54595E" stroke="none" stroke-linecap="round" d="M 56.9228 5.2789 C 53.6668 5.295 50.7298 7.9376 48.6149 12.1931 C 46.4999 16.4486 45.7762 23.1733 45.2389 28.787 C 44.6903 34.5188 42.8192 40.7661 45.174 45.9875 C 46.9889 50.0106 51.9501 53.0571 56.4602 53.2818 C 60.7194 53.4977 65.8461 51.0023 67.8299 47.1255 C 70.6329 41.6465 69.2833 34.8691 68.8386 28.6703 C 68.4348 23.0462 67.4556 16.3449 65.2987 12.1106 C 63.1417 7.8762 60.1787 5.2628 56.9228 5.2789 Z " stroke-width="0.9999999606170507"/>
    <path id="ID0.8999492498114705" fill="#54595E" stroke="none" stroke-linecap="round" d="M 53.359 1.622 C 49.1144 2.8902 44.2388 4.8566 42.1258 8.75 C 39.7148 13.1951 42.2143 18.8342 41.4153 23.7809 C 41.0993 25.7349 38.6321 27.255 38.7501 29.3318 C 38.9457 32.0037 41.0675 34.1925 42.2666 36.681 C 43.5714 39.3825 44.721 42.2376 46.3453 44.7133 C 47.7801 46.902 49.2739 49.3967 51.6323 50.5297 C 53.4483 51.4006 56.0633 51.6346 57.6265 50.3984 C 58.8694 49.4158 57.7154 47.2049 58.0857 45.6459 C 58.4044 43.7229 59.6913 41.9836 59.6835 39.9988 C 59.6597 34.4744 57.7678 29.0477 57.7222 23.5225 C 57.6723 17.4465 57.3066 11.2009 59.2588 5.5047 C 60.0055 3.3256 66.2184 2.7228 65.1351 2.0717 C 63.4553 0.9044 57.1195 0.4984 53.359 1.622 Z " stroke-width="0.5080372285945052"/>
    <path id="ID0.8999492498114705" fill="#54595E" stroke="none" stroke-linecap="round" d="M 64.6898 1.986 C 68.4777 3.0986 72.7015 5.0479 74.6038 8.5669 C 76.9207 12.8276 75.6372 18.2359 76.1741 23.0384 C 76.3723 24.8018 77.4451 26.6077 77.0638 28.2922 C 76.5048 30.6233 74.4006 32.3855 73.7423 34.6846 C 72.8359 37.8516 73.6088 41.4808 72.292 44.4716 C 71.237 46.8667 69.4098 49.1837 67.0628 50.34 C 65.2555 51.2288 62.6429 51.4887 61.0675 50.268 C 59.815 49.2978 60.9471 47.0756 60.5614 45.5203 C 60.2237 43.6006 58.9197 41.8741 58.9078 39.8892 C 58.8769 34.3649 60.715 28.9198 60.706 23.3943 C 60.6957 17.3182 60.541 11.2102 58.9912 5.3927 C 58.5734 3.8289 53.8844 3.147 54.8365 2.5428 C 56.7211 1.3578 61.535 0.983 64.6898 1.986 Z " stroke-width="0.5080372285945052"/>
    <path id="ID0.45774566335603595" fill="#54595E" stroke="none" stroke-linecap="round" d="M 56.6056 37.1801 C 54.5016 37.1906 52.9679 38.4622 51.2259 39.2728 C 49.6375 40.0127 46.6332 40.1655 46.6542 41.9794 C 46.6562 44.8115 49.1533 47.2431 51.2752 49.2407 C 52.6747 50.5578 54.5714 51.2904 56.6753 51.28 C 58.7793 51.2696 60.5781 50.4176 62.0551 49.1873 C 64.0987 47.4862 66.7168 45.4822 66.6589 42.8805 C 66.6941 40.8883 63.7665 40.1857 62.0057 39.2194 C 60.3211 38.2938 58.7096 37.1697 56.6056 37.1801 Z " stroke-width="0.9999999606170507"/>
    <path id="ID0.6934182443656027" fill="#54595E" stroke="none" stroke-linecap="round" d="M 70.8527 31.5116 L 57.6232 35.6771 L 43.5011 31.2469 L 46.5344 37.982 L 47.0567 42.4794 L 66.9097 43.0312 L 68.0292 36.8756 L 70.8527 31.5116 Z " stroke-width="0.9999999606170507"/>
    <path id="ID0.6236958587542176" fill="#3B4043" stroke="none" stroke-linecap="round" d="M 64.4137 28.2501 L 48.6637 28.278 L 49.4013 35.8745 L 48.9356 42.8269 L 51.7378 53.3631 L 61.3379 53.3656 L 64.8384 43.3482 L 63.9008 35.7528 L 64.4137 28.2501 Z " stroke-width="0.9999999606170507"/>
    <path id="ID0.6043254472315311" fill="#3B4043" stroke="none" stroke-linecap="round" d="M 71.5966 5.5692 L 66.8326 2.7428 L 62.1104 8.3662 L 55.6159 9.4984 L 56.9613 28.7919 L 59.6254 31.6288 L 64.9736 31.2523 L 68.5132 29.1348 L 70.0939 25.2269 L 68.5617 18.7344 L 71.5966 5.5692 Z " stroke-width="0.9999999606170507"/>
    <path id="ID0.6043254472315311" fill="#3B4043" stroke="none" stroke-linecap="round" d="M 43.0492 7.3275 L 45.1368 4.8172 L 47.8811 3.6536 L 52.0543 8.333 L 58.5597 9.4008 L 57.4052 28.7068 L 54.7693 31.5699 L 49.4176 31.2463 L 44.9078 29.2686 L 44.238 25.2719 L 45.7058 18.7645 L 43.0492 7.3275 Z " stroke-width="0.9999999606170507"/>
    <path id="ID0.9914007503539324" fill="#33383A" stroke="none" d="M 59.0021 35.9272 L 60.594 24.1692 L 54.1455 24.5011 L 53.9019 35.9025 L 59.0021 35.9272 Z " stroke-width="0.9999999606170507"/>
    <path id="ID0.28340246016159654" fill="#D8BFA7" stroke="none" stroke-linecap="round" d="M 70.8036 22.2662 L 63.9839 22.3933 L 59.5521 24.6864 L 58.6918 28.1129 L 60.0894 30.3149 L 63.6004 30.6709 L 66.343 30.1595 L 68.4333 29.3714 L 70.5471 27.6187 L 71.4429 25.6231 L 70.8036 22.2662 Z " stroke-width="0.594775208916994"/>
    <path id="ID0.28340246016159654" fill="#D8BFA7" stroke="none" stroke-linecap="round" d="M 42.3641 22.4143 L 49.1848 22.4738 L 53.639 24.723 L 54.5333 28.1408 L 53.1575 30.3565 L 49.6502 30.7472 L 46.9027 30.263 L 44.8047 29.4956 L 42.6736 27.7639 L 41.7582 25.7773 L 42.3641 22.4143 Z " stroke-width="0.594775208916994"/>
    <path id="ID0.17377300979569554" fill="#FFFFFF" stroke="none" stroke-linecap="round" d="M 66.8355 26.0487 L 65.9243 25.2227 L 63.6363 25.0498 L 61.3869 25.6666 L 60.9444 27.6195 L 63.5809 27.4746 L 66.8355 26.0487 Z " stroke-width="0.9999999493703404"/>
    <path id="ID0.17377300979569554" fill="#FFFFFF" stroke="none" stroke-linecap="round" d="M 45.0799 26.1737 L 45.9828 25.3387 L 48.269 25.1432 L 50.5243 25.7376 L 50.9862 27.6861 L 48.3483 27.5673 L 45.0799 26.1737 Z " stroke-width="0.9999999437466285"/>
    <path id="ID0.44800941413268447" fill="none" stroke="#33383A" stroke-width="1.0503597068734245" stroke-linecap="round" d="M 57.8302 28.74 L 59.4369 24.4255 L 63.8101 21.9617 L 70.3754 22.0606 "/>
    <path id="ID0.12448931112885475" fill="#33383A" stroke="none" stroke-linecap="round" d="M 58.7514 34.275 L 53.9519 34.3988 L 53.0175 37.5534 L 56.1249 39.0381 L 59.6172 37.4708 L 58.7514 34.275 Z " stroke-width="0.9999999606170507"/>
    <path id="ID0.44800941413268447" fill="none" stroke="#33383A" stroke-width="1.050359743690335" stroke-linecap="round" d="M 58.9916 25.0856 L 58.1766 22.5218 L 59.605 19.1502 "/>
    <path id="ID0.44800941413268447" fill="none" stroke="#33383A" stroke-width="1.0503597091903172" stroke-linecap="round" d="M 54.5097 25.0304 L 55.2993 22.4586 L 53.8376 19.1013 "/>
    <g id="ID0.32985211815685034">
      <g id="ID0.08651347272098064">
        <g id="ID0.07771636918187141">
          <path id="ID0.7001032647676766" fill="none" stroke="#646B70" stroke-width="0.5238094662752378" stroke-linecap="round" d="M 65.0759 40.2155 C 65.0759 40.2155 65.1421 40.5831 65.1834 40.765 C 65.2222 40.936 65.3786 41.1108 65.3168 41.275 C 65.253 41.445 65.0455 41.5346 64.8732 41.5915 C 64.7074 41.646 64.5238 41.5911 64.3494 41.5941 C 64.1749 41.597 63.9107 41.762 63.8256 41.6098 C 63.6216 41.2454 63.6623 40.3665 63.6623 40.3665 "/>
          <path id="ID0.7001032647676766" fill="none" stroke="#646B70" stroke-width="0.5238094662752378" stroke-linecap="round" d="M 63.5259 40.2655 C 63.5259 40.2655 63.5921 40.6331 63.6334 40.815 C 63.6722 40.986 63.8286 41.1608 63.7668 41.325 C 63.703 41.495 63.4955 41.5846 63.3232 41.6415 C 63.1574 41.696 62.9738 41.6411 62.7994 41.6441 C 62.6249 41.647 62.3607 41.812 62.2756 41.6598 C 62.0716 41.2954 62.1123 40.4165 62.1123 40.4165 "/>
        </g>
        <g id="ID0.07771636918187141">
          <path id="ID0.7001032647676766" fill="none" stroke="#646B70" stroke-width="0.5238094662752378" stroke-linecap="round" d="M 62.0259 40.4655 C 62.0259 40.4655 62.0921 40.8331 62.1334 41.015 C 62.1722 41.186 62.3286 41.3608 62.2668 41.525 C 62.203 41.695 61.9955 41.7846 61.8232 41.8415 C 61.6574 41.896 61.4738 41.8411 61.2994 41.8441 C 61.1249 41.847 60.8607 42.012 60.7756 41.8598 C 60.5716 41.4954 60.6123 40.6165 60.6123 40.6165 "/>
          <path id="ID0.7001032647676766" fill="none" stroke="#646B70" stroke-width="0.5238094662752378" stroke-linecap="round" d="M 60.4759 40.5155 C 60.4759 40.5155 60.5421 40.8831 60.5834 41.065 C 60.6222 41.236 60.7786 41.4108 60.7168 41.575 C 60.653 41.745 60.4455 41.8346 60.2732 41.8915 C 60.1074 41.946 59.9238 41.8911 59.7494 41.8941 C 59.5749 41.897 59.3107 42.062 59.2256 41.9098 C 59.0216 41.5454 59.0623 40.6665 59.0623 40.6665 "/>
        </g>
        <path id="ID0.7001032647676766" fill="none" stroke="#646B70" stroke-width="0.5238094420798628" stroke-linecap="round" d="M 58.9932 40.6012 C 58.9932 40.6012 59.0206 40.9737 59.0425 41.1589 C 59.0632 41.3331 59.2005 41.5233 59.1218 41.6801 C 59.0405 41.8425 58.8248 41.9098 58.6474 41.9484 C 58.4768 41.9852 58.3 41.9114 58.1262 41.896 C 57.9525 41.8807 57.6724 42.0171 57.6037 41.8568 C 57.439 41.473 57.5716 40.6032 57.5716 40.6032 "/>
      </g>
      <g id="ID0.08651347272098064">
        <g id="ID0.07771636918187141">
          <path id="ID0.7001032647676766" fill="none" stroke="#646B70" stroke-width="0.5238094662752378" stroke-linecap="round" d="M 49.96 40.2694 C 49.96 40.2694 49.8974 40.6377 49.8579 40.8199 C 49.8208 40.9914 49.6661 41.1676 49.7295 41.3313 C 49.7951 41.5007 50.0034 41.5882 50.1763 41.6433 C 50.3426 41.6962 50.5257 41.6395 50.7001 41.6408 C 50.8745 41.642 51.1404 41.8044 51.224 41.6513 C 51.4244 41.2849 51.375 40.4064 51.375 40.4064 "/>
          <path id="ID0.7001032647676766" fill="none" stroke="#646B70" stroke-width="0.5238094662752378" stroke-linecap="round" d="M 51.41 40.2694 C 51.41 40.2694 51.3474 40.6377 51.3079 40.8199 C 51.2708 40.9914 51.1161 41.1676 51.1795 41.3313 C 51.2451 41.5007 51.4534 41.5882 51.6263 41.6433 C 51.7926 41.6962 51.9757 41.6395 52.1501 41.6408 C 52.3245 41.642 52.5904 41.8044 52.674 41.6513 C 52.8744 41.2849 52.825 40.4064 52.825 40.4064 "/>
        </g>
        <g id="ID0.07771636918187141">
          <path id="ID0.7001032647676766" fill="none" stroke="#646B70" stroke-width="0.5238094662752378" stroke-linecap="round" d="M 53.16 40.4694 C 53.16 40.4694 53.0974 40.8377 53.0579 41.0199 C 53.0208 41.1914 52.8661 41.3676 52.9295 41.5313 C 52.9951 41.7007 53.2034 41.7882 53.3763 41.8433 C 53.5426 41.8962 53.7257 41.8395 53.9001 41.8408 C 54.0745 41.842 54.3404 42.0044 54.424 41.8513 C 54.6244 41.4849 54.575 40.6064 54.575 40.6064 "/>
          <path id="ID0.7001032647676766" fill="none" stroke="#646B70" stroke-width="0.5238094662752378" stroke-linecap="round" d="M 54.66 40.5194 C 54.66 40.5194 54.5974 40.8877 54.5579 41.0699 C 54.5208 41.2414 54.3661 41.4176 54.4295 41.5813 C 54.4951 41.7507 54.7034 41.8382 54.8763 41.8933 C 55.0426 41.9462 55.2257 41.8895 55.4001 41.8908 C 55.5745 41.892 55.8404 42.0544 55.924 41.9013 C 56.1244 41.5349 56.075 40.6564 56.075 40.6564 "/>
        </g>
        <path id="ID0.7001032647676766" fill="none" stroke="#646B70" stroke-width="0.5238095037189421" stroke-linecap="round" d="M 56.1231 40.6735 C 56.1231 40.6735 56.0994 41.0463 56.0793 41.2316 C 56.0603 41.4061 55.925 41.5975 56.0052 41.7536 C 56.0881 41.9152 56.3045 41.9804 56.4822 42.0172 C 56.6531 42.0523 56.8292 41.9767 57.0029 41.9597 C 57.1765 41.9426 57.4579 42.0762 57.5249 41.9152 C 57.6858 41.5299 57.5446 40.6614 57.5446 40.6614 "/>
      </g>
    </g>
    <path id="ID0.7001032647676766" fill="none" stroke="#646B70" stroke-width="0.5238095258791531" stroke-linecap="round" d="M 64.74 43.2806 C 64.74 43.2806 64.8026 42.9123 64.842 42.7301 C 64.8792 42.5586 65.0339 42.3824 64.9705 42.2187 C 64.9049 42.0493 64.6966 41.9618 64.5237 41.9067 C 64.3574 41.8538 64.1743 41.9105 63.9999 41.9092 C 63.8254 41.908 63.5596 41.7456 63.476 41.8987 C 63.2756 42.2651 63.325 43.1435 63.325 43.1435 "/>
    <path id="ID0.7001032647676766" fill="none" stroke="#646B70" stroke-width="0.5238095258791531" stroke-linecap="round" d="M 63.24 43.2306 C 63.24 43.2306 63.3026 42.8623 63.342 42.6801 C 63.3792 42.5086 63.5339 42.3324 63.4705 42.1687 C 63.4049 41.9993 63.1966 41.9118 63.0237 41.8567 C 62.8574 41.8038 62.6743 41.8605 62.4999 41.8592 C 62.3254 41.858 62.0596 41.6956 61.976 41.8487 C 61.7756 42.2151 61.825 43.0935 61.825 43.0935 "/>
    <g id="ID0.07771636918187141">
      <path id="ID0.7001032647676766" fill="none" stroke="#646B70" stroke-width="0.5238095258791531" stroke-linecap="round" d="M 62.19 43.3806 C 62.19 43.3806 62.2526 43.0123 62.292 42.8301 C 62.3292 42.6586 62.4839 42.4824 62.4205 42.3187 C 62.3549 42.1493 62.1466 42.0618 61.9737 42.0067 C 61.8074 41.9538 61.6243 42.0105 61.4499 42.0092 C 61.2754 42.008 61.0096 41.8456 60.926 41.9987 C 60.7256 42.3651 60.775 43.2435 60.775 43.2435 "/>
      <path id="ID0.7001032647676766" fill="none" stroke="#646B70" stroke-width="0.5238095258791531" stroke-linecap="round" d="M 60.74 43.2806 C 60.74 43.2806 60.8026 42.9123 60.842 42.7301 C 60.8792 42.5586 61.0339 42.3824 60.9705 42.2187 C 60.9049 42.0493 60.6966 41.9618 60.5237 41.9067 C 60.3574 41.8538 60.1743 41.9105 59.9999 41.9092 C 59.8254 41.908 59.5596 41.7456 59.476 41.8987 C 59.2756 42.2651 59.325 43.1435 59.325 43.1435 "/>
    </g>
    <path id="ID0.7001032647676766" fill="none" stroke="#646B70" stroke-width="0.5238095629636748" stroke-linecap="round" d="M 58.7269 43.4265 C 58.7269 43.4265 58.7506 43.0537 58.7707 42.8684 C 58.7897 42.6939 58.925 42.5025 58.8448 42.3464 C 58.7619 42.1848 58.5455 42.1196 58.3678 42.0828 C 58.1969 42.0477 58.0207 42.1233 57.8471 42.1403 C 57.6735 42.1574 57.3921 42.0237 57.3251 42.1848 C 57.1642 42.5701 57.3054 43.4385 57.3054 43.4385 "/>
    <path id="ID0.7001032647676766" fill="none" stroke="#646B70" stroke-width="0.5238095258791531" stroke-linecap="round" d="M 49.2241 43.1345 C 49.2241 43.1345 49.1579 42.7669 49.1166 42.585 C 49.0778 42.4139 48.9214 42.2392 48.9832 42.075 C 49.047 41.905 49.2545 41.8154 49.4268 41.7585 C 49.5926 41.704 49.7762 41.7589 49.9506 41.7559 C 50.1251 41.7529 50.3893 41.5879 50.4744 41.7402 C 50.6784 42.1046 50.6377 42.9835 50.6377 42.9835 "/>
    <path id="ID0.7001032647676766" fill="none" stroke="#646B70" stroke-width="0.5238095258791531" stroke-linecap="round" d="M 50.6741 43.1345 C 50.6741 43.1345 50.6079 42.7669 50.5666 42.585 C 50.5278 42.4139 50.3714 42.2392 50.4332 42.075 C 50.497 41.905 50.7045 41.8154 50.8768 41.7585 C 51.0426 41.704 51.2262 41.7589 51.4006 41.7559 C 51.5751 41.7529 51.8393 41.5879 51.9244 41.7402 C 52.1284 42.1046 52.0877 42.9835 52.0877 42.9835 "/>
    <path id="ID0.7001032647676766" fill="none" stroke="#646B70" stroke-width="0.5238095258791531" stroke-linecap="round" d="M 52.4241 43.1845 C 52.4241 43.1845 52.3579 42.8169 52.3166 42.635 C 52.2778 42.4639 52.1214 42.2892 52.1832 42.125 C 52.247 41.955 52.4545 41.8654 52.6268 41.8085 C 52.7926 41.754 52.9762 41.8089 53.1506 41.8059 C 53.3251 41.8029 53.5893 41.6379 53.6744 41.7902 C 53.8784 42.1546 53.8377 43.0335 53.8377 43.0335 "/>
    <path id="ID0.7001032647676766" fill="none" stroke="#646B70" stroke-width="0.5238095258791531" stroke-linecap="round" d="M 53.9241 43.3345 C 53.9241 43.3345 53.8579 42.9669 53.8166 42.785 C 53.7778 42.6139 53.6214 42.4392 53.6832 42.275 C 53.747 42.105 53.9545 42.0154 54.1268 41.9585 C 54.2926 41.904 54.4762 41.9589 54.6506 41.9559 C 54.8251 41.9529 55.0893 41.7879 55.1744 41.9402 C 55.3784 42.3046 55.3377 43.1835 55.3377 43.1835 "/>
    <path id="ID0.7001032647676766" fill="none" stroke="#646B70" stroke-width="0.5238095017585197" stroke-linecap="round" d="M 55.6568 43.4488 C 55.6568 43.4488 55.6294 43.0762 55.6075 42.8911 C 55.5868 42.7169 55.4495 42.5267 55.5282 42.3699 C 55.6095 42.2075 55.8253 42.1402 56.0026 42.1016 C 56.1732 42.0648 56.35 42.1386 56.5238 42.1539 C 56.6975 42.1693 56.9776 42.0329 57.0463 42.1932 C 57.211 42.577 57.0784 43.4468 57.0784 43.4468 "/>
    <path id="ID0.44800941413268447" fill="none" stroke="#2E3234" stroke-width="0.6130029046947648" stroke-linecap="round" d="M 53.8293 34.6949 L 55.6303 33.3845 L 58.9412 34.4122 "/>
    <path id="ID0.44800941413268447" fill="none" stroke="#33383A" stroke-width="1.0503597068734245" stroke-linecap="round" d="M 55.4747 28.6987 L 53.8254 24.4003 L 49.4281 21.98 L 42.8641 22.1438 "/>
    <g id="ID0.6897007944062352">
      <path id="ID0.2692581438459456" fill="#7AABFF" stroke="none" d="M 47.0634 25.2946 C 47.3817 25.2021 47.7068 25.2481 47.9759 25.3961 C 48.245 25.544 48.4581 25.7939 48.5505 26.1122 C 48.643 26.4305 48.597 26.7557 48.449 27.0248 C 48.3011 27.2938 48.0512 27.5069 47.7329 27.5993 C 47.4146 27.6918 47.0895 27.6458 46.8204 27.4979 C 46.5513 27.3499 46.3382 27.1 46.2458 26.7817 C 46.1533 26.4634 46.1993 26.1383 46.3473 25.8692 C 46.4952 25.6001 46.7451 25.387 47.0634 25.2946 Z " stroke-width="1.1428571276292854"/>
      <path id="ID0.8070062398910522" fill="#192334" stroke="none" d="M 47.2629 25.949 C 47.3952 25.9105 47.5313 25.9289 47.6431 25.9913 C 47.7557 26.0523 47.8441 26.1573 47.8825 26.2896 C 47.9209 26.422 47.9026 26.558 47.8402 26.6699 C 47.7792 26.7825 47.6741 26.8708 47.5418 26.9093 C 47.4095 26.9477 47.2734 26.9294 47.1616 26.867 C 47.049 26.806 46.9606 26.7009 46.9222 26.5686 C 46.8838 26.4363 46.9021 26.3002 46.9645 26.1884 C 47.0255 26.0758 47.1306 25.9874 47.2629 25.949 Z " stroke-width="1.1111111122058779"/>
    </g>
    <g id="ID0.5823970721103251">
      <path id="ID0.2692581438459456" fill="#7AABFF" stroke="none" d="M 63.3217 25.3773 C 63.0025 25.288 62.6778 25.3372 62.4102 25.4878 C 62.1426 25.6384 61.9321 25.8905 61.8428 26.2096 C 61.7535 26.5288 61.8027 26.8535 61.9533 27.1211 C 62.1039 27.3887 62.3559 27.5993 62.6751 27.6886 C 62.9942 27.7779 63.3189 27.7287 63.5865 27.5781 C 63.8542 27.4275 64.0647 27.1755 64.154 26.8563 C 64.2433 26.5371 64.1941 26.2124 64.0435 25.9448 C 63.8929 25.6772 63.6409 25.4666 63.3217 25.3773 Z " stroke-width="1.142857200942549"/>
      <path id="ID0.8070062398910522" fill="#192334" stroke="none" d="M 62.9348 25.9074 C 62.8021 25.8703 62.6662 25.89 62.555 25.9535 C 62.443 26.0156 62.3557 26.1215 62.3185 26.2542 C 62.2814 26.3869 62.3011 26.5228 62.3646 26.634 C 62.4267 26.746 62.5326 26.8333 62.6653 26.8705 C 62.798 26.9076 62.9339 26.8879 63.0451 26.8244 C 63.1571 26.7623 63.2444 26.6563 63.2816 26.5237 C 63.3187 26.391 63.299 26.2551 63.2355 26.1439 C 63.1734 26.0319 63.0674 25.9446 62.9348 25.9074 Z " stroke-width="1.1111112515437287"/>
    </g>
    <path id="ID0.023752907756716013" fill="none" stroke="#584E44" stroke-width="1.1814345388093446" stroke-linecap="round" d="M 67.1929 24.0997 L 63.8965 24.2949 L 61.5265 25.2979 "/>
    <path id="ID0.023752907756716013" fill="none" stroke="#584E44" stroke-width="1.1814344494898792" stroke-linecap="round" d="M 45.1458 24.2216 L 48.444 24.3842 L 50.8238 25.3638 "/>
  </g>
  <g id="ID0.5880346246995032">
    <path id="ID0.6829322893172503" fill="#1D1E1F" stroke="none" stroke-linecap="round" d="M 31.3792 171.9972 L 38.9915 163.2532 L 44.1407 167.0642 L 50.2008 170.9344 L 52.4196 176.2014 L 53.6778 180.7655 L 52.9854 184.3795 L 54.2836 191.1417 L 49.8779 192.7761 L 47.9569 191.3705 L 46.3728 191.8164 L 42.333 190.6389 L 37.9466 189.1644 L 34.3222 185.8185 L 32.3012 178.9178 L 31.3792 171.9972 Z " stroke-width="0.8164596018285326"/>
    <g id="ID0.9434720128774643">
      <path id="ID0.6507829907350242" fill="#282828" stroke="none" stroke-linecap="round" d="M 1.0209 114.4046 L 22.4768 116.4404 L 27.8123 132.5761 L 31.7095 144.6666 L 37.9696 159.5269 L 42.8241 165.0568 L 30.2096 173.0729 L 28.04 165.9247 L 22.5435 157.6089 L 15.0763 147.2438 L 9.1573 135.2963 L 1.0209 114.4046 Z " stroke-width="0.8164596018285326"/>
      <path id="ID0.9892375003546476" fill="none" stroke="#191919" stroke-width="2.0000000175411055" stroke-linecap="round" d="M 30.3131 172.0995 L 41.6867 164.3242 L 36.0829 157.4615 "/>
    </g>
  </g>
</svg>