<svg xmlns="http://www.w3.org/2000/svg" xmlns:xlink="http://www.w3.org/1999/xlink" version="1.1" width="171.81999213394118" height="312.6764832228084" viewBox="5.201399768905871 1.876391138153307 171.81999213394118 312.6764832228084">
  <!-- Exported by Scratch - http://scratch.mit.edu/ -->
  <g id="ID0.7275983458384871">
    <path id="ID0.7477802094072104" fill="#670A0A" stroke="none" stroke-linecap="round" d="M 85.1154 105.9715 L 65.6382 102.4715 L 64.7831 143.6489 L 81.2591 152.9206 L 84.0532 128.452 L 85.1154 105.9715 Z " stroke-width="0.47614257300029306"/>
    <path id="ID0.7477802094072104" fill="#670A0A" stroke="none" stroke-linecap="round" d="M 24.7831 104.7358 L 48.2874 102.3664 L 47.4323 143.5439 L 30.5855 152.1236 L 25.6325 126.8988 L 24.7831 104.7358 Z " stroke-width="0.47614257300029306"/>
    <path id="ID0.4270821204409003" fill="#7C0D0D" stroke="none" stroke-linecap="round" d="M 25.5179 84.6385 L 29.5858 72.2215 L 31.968 66.437 L 38.6594 59.5513 L 69.6913 61.6245 L 76.505 66.0522 L 79.2772 70.1578 L 86.0615 81.7286 L 85.13 92.1866 L 84.0642 97.6413 L 85.587 104.5785 L 85.9494 110.0629 L 83.6639 116.921 L 81.9366 122.1238 L 80.5537 131.3818 L 81.5985 153.3108 L 76.2868 161.4158 L 71.3736 167.5287 L 59.1457 172.704 L 47.6169 169.4404 L 43.8289 162.6467 L 39.0115 156.1174 L 30.5309 152.8457 L 29.9148 127.4728 L 28.8631 120.7835 L 24.5303 109.2637 L 23.4461 98.4066 L 25.5179 84.6385 Z " stroke-width="0.47614257300029306"/>
    <path id="ID0.7729651997797191" fill="#282828" stroke="none" stroke-linecap="round" d="M 9.9224 78.3414 L 33.617 76.3829 L 32.1817 96.6911 L 28.7967 107.4957 L 27.8509 116.7382 L 25.7993 125.3648 L 8.853 123.0579 L 6.2014 116.4163 L 9.2597 92.2415 L 9.9224 78.3414 Z " stroke-width="0.9588636846711274"/>
    <path id="ID0.4757494777441025" fill="#282828" stroke="none" stroke-linecap="round" d="M 20.6453 62.3922 L 29.4608 60.2496 L 45.8673 65.13 L 37.4192 90.6036 L 26.7672 95.6031 L 22.1146 96.6745 L 18.8088 94.2938 L 15.8703 91.3179 L 9.9934 88.6991 L 9.8709 83.2234 L 10.6055 75.129 L 13.9113 66.7965 L 20.6453 62.3922 Z " stroke-width="0.48299249213559925"/>
    <g id="ID0.5880346246995032">
      <path id="ID0.6829322893172503" fill="#1D1E1F" stroke="none" stroke-linecap="round" d="M 146.3429 141.9669 L 145.3275 130.4182 L 151.6446 129.3541 L 158.6364 127.6752 L 163.9688 129.7317 L 168.1286 131.9922 L 170.2508 134.9983 L 176.0214 138.7551 L 174.1417 143.0619 L 171.7966 143.4701 L 171.0186 144.9202 L 167.3677 147.0125 L 163.2624 149.1484 L 158.3382 149.437 L 151.9665 146.1046 L 146.3429 141.9669 Z " stroke-width="0.8164595734863839"/>
      <g id="ID0.9434720128774643">
        <path id="ID0.6507829907350242" fill="#282828" stroke="none" stroke-linecap="round" d="M 83.8044 123.9353 L 100.157 109.8963 L 115.4791 117.2492 L 126.89 122.8312 L 141.935 128.6334 L 149.2854 128.9742 L 146.3061 143.6202 L 139.653 140.2231 L 129.8507 138.4118 L 117.2055 136.5978 L 104.4948 132.5709 L 83.8044 123.9353 Z " stroke-width="0.8164595734863839"/>
        <path id="ID0.9892375003546476" fill="none" stroke="#191919" stroke-width="1.9999999702602558" stroke-linecap="round" d="M 145.6336 142.8534 L 147.9254 129.2681 L 139.0952 128.5422 "/>
      </g>
    </g>
    <path id="ID0.7729651997797191" fill="#282828" stroke="none" stroke-linecap="round" d="M 110.2776 77.5914 L 86.583 75.6329 L 88.0183 95.9411 L 91.4033 106.7457 L 92.3491 115.9882 L 94.4007 124.6148 L 111.347 122.3079 L 113.9986 115.6663 L 110.9403 91.4915 L 110.2776 77.5914 Z " stroke-width="0.9588636846711274"/>
    <path id="ID0.4757494777441025" fill="#282828" stroke="none" stroke-linecap="round" d="M 99.4547 61.6422 L 90.6392 59.4996 L 74.2327 64.38 L 82.6808 89.8536 L 93.3328 94.8531 L 97.9854 95.9245 L 101.2912 93.5438 L 104.2297 90.5679 L 110.1066 87.9491 L 110.2291 82.4734 L 109.4945 74.379 L 106.1887 66.0465 L 99.4547 61.6422 Z " stroke-width="0.48299249213559925"/>
    <g id="ID0.6660797297954559">
      <path id="ID0.5368814701214433" fill="#343434" stroke="none" stroke-linecap="round" d="M 105.9318 291.6374 L 105.9964 282.3488 L 107.464 272.1752 L 118.7483 274.7257 L 131.8014 278.5775 L 151.58 283.1263 L 154.5868 289.0062 L 131.4148 297.6323 L 110.0601 300.5932 L 105.9318 291.6374 Z " stroke-width="0.770216529008345"/>
      <g id="ID0.5077062323689461">
        <path id="ID0.05466862628236413" fill="#252525" stroke="none" stroke-linecap="round" d="M 85.0247 222.4946 L 104.6653 212.684 L 107.4721 227.2007 L 108.2878 232.2025 L 112.6819 246.0044 L 125.1656 276.9244 L 105.7674 286.0174 L 98.7976 268.5611 L 94.4484 262.5307 L 90.9862 255.5235 L 89.1346 244.4556 L 85.9674 234.8478 L 85.0247 222.4946 Z " stroke-width="0.5998532751146471"/>
        <path id="ID0.5319394422695041" fill="none" stroke="#131313" stroke-width="2.0000000081463805" stroke-linecap="round" d="M 124.9177 276.1352 L 105.8871 286.4016 L 101.4408 275.7489 "/>
      </g>
      <g id="ID0.8820344842970371">
        <path id="ID0.3809091211296618" fill="#252525" stroke="none" stroke-linecap="round" d="M 51.9606 155.6704 L 76.2481 127.4418 L 84.8112 150.141 L 103.3376 195.1145 L 106.1442 205.5055 L 105.7598 217.4706 L 97.3855 217.8484 L 85.4366 223.013 L 78.1955 202.4804 L 72.4981 190.3343 L 51.9606 155.6704 Z " stroke-width="0.7305889625732381"/>
        <path id="ID0.9495224836282432" fill="none" stroke="#131313" stroke-width="2.0000000081463805" stroke-linecap="round" d="M 103.3623 195.3663 L 105.9445 203.4645 L 106.4693 211.694 L 99.7381 218.5636 L 100.3043 223.6311 "/>
      </g>
    </g>
    <g id="ID0.18228224432095885">
      <path id="ID0.5368814701214433" fill="#404040" stroke="none" stroke-linecap="round" d="M 69.8207 304.5098 L 70.0863 295.2248 L 71.7737 285.0854 L 83.0002 287.8794 L 95.9668 292.0128 L 115.6424 296.9885 L 118.5213 302.9321 L 95.1681 311.0547 L 73.7543 313.5529 L 69.8207 304.5098 Z " stroke-width="0.770216507091829"/>
      <g id="ID0.5077062323689461">
        <path id="ID0.05466862628236413" fill="#252525" stroke="none" stroke-linecap="round" d="M 51.4312 233.8996 L 71.5132 225.0274 L 73.6313 239.6604 L 74.21 244.6951 L 77.9475 258.6891 L 88.9574 290.164 L 69.1514 298.3309 L 63.0137 280.5651 L 58.954 274.3361 L 55.8265 267.1731 L 54.4996 256.0302 L 51.7895 246.2836 L 51.4312 233.8996 Z " stroke-width="0.5998532678978049"/>
        <path id="ID0.5319394422695041" fill="none" stroke="#131313" stroke-width="2.000000043508195" stroke-linecap="round" d="M 88.7407 289.2922 L 69.2467 298.6487 L 65.3083 287.7979 "/>
      </g>
      <g id="ID0.8820344842970371">
        <path id="ID0.3809091211296618" fill="#252525" stroke="none" stroke-linecap="round" d="M 25.6669 161.583 L 47.1842 138.5088 L 54.666 161.587 L 71.0483 207.3852 L 73.3611 217.897 L 72.4123 229.8306 L 64.0295 229.8126 L 51.7356 235.8481 L 42.9107 214.4031 L 38.0697 202.2422 L 25.6669 161.583 Z " stroke-width="0.7305890010607352"/>
        <path id="ID0.9495224836282432" fill="none" stroke="#131313" stroke-width="2.000000043508195" stroke-linecap="round" d="M 71.023 207.5956 L 73.22 215.8068 L 73.3556 224.0519 L 66.3076 230.5959 L 66.6339 235.6845 "/>
      </g>
    </g>
    <g id="ID0.8990198895335197">
      <path id="ID0.17576928716152906" fill="#DBDBDB" stroke="none" d="M 62.25 56.65 L 62 56.65 L 62 56.65 L 62.25 56.65 L 62.25 56.65 Z " stroke-width="1"/>
      <path id="ID0.4270821204409003" fill="#252525" stroke="none" stroke-linecap="round" d="M 60.0901 178.6511 L 59.8361 65.8948 L 77.1913 68.3745 L 84.005 72.8022 L 86.7772 76.9078 L 93.5615 88.4786 L 92.63 98.9366 L 91.5642 104.3913 L 93.087 111.3285 L 93.4494 116.8129 L 91.1639 123.671 L 89.4366 128.8738 L 88.0537 138.1318 L 89.0985 160.0608 L 83.7868 168.1658 L 78.8736 174.2787 L 60.0901 178.6511 Z " stroke-width="0.47614257300029306"/>
      <path id="ID0.4270821204409003" fill="#252525" stroke="none" stroke-linecap="round" d="M 60.2099 178.8011 L 60.4639 66.0448 L 43.1087 68.5245 L 36.295 72.9522 L 33.5228 77.0578 L 26.7385 88.6286 L 27.67 99.0866 L 28.7358 104.5413 L 27.213 111.4785 L 26.8506 116.9629 L 29.1361 123.821 L 30.8634 129.0238 L 32.2463 138.2818 L 31.2015 160.2108 L 36.5132 168.3158 L 41.4264 174.4287 L 60.2099 178.8011 Z " stroke-width="0.47614257300029306"/>
      <path id="ID0.5114514343440533" fill="#282828" stroke="none" d="M 33.9326 67.2277 L 86.9326 67.2277 L 86.9326 155.4777 L 33.9326 155.4777 L 33.9326 67.2277 Z " stroke-width="1.0073066040733152"/>
      <path id="ID0.9286923445761204" fill="#D4D4D4" stroke="none" stroke-linecap="round" d="M 50.0867 53.5223 L 67.3707 34.7861 L 60.2523 53.6652 L 61.5141 94.1373 L 23.5656 65.0926 L 43.7064 54.2841 L 50.0867 53.5223 Z " stroke-width="0.4761425852775574"/>
      <path id="ID0.9286923445761204" fill="#D4D4D4" stroke="none" stroke-linecap="round" d="M 66.4636 52.4153 L 52.6793 35.0361 L 59.7977 53.9152 L 61.0118 93.9111 L 96.4844 65.3426 L 76.7007 53.5342 L 66.4636 52.4153 Z " stroke-width="0.4761425852775574"/>
      <path id="ID0.39874776685610414" fill="#C3C3C3" stroke="none" stroke-linecap="round" d="M 41.7977 55.214 L 61.6674 65.0848 L 79.5354 56.1238 L 83.5386 58.2617 L 61.4721 68.8602 L 38.0386 57.17 L 41.7977 55.214 Z " stroke-width="0.943659350131214"/>
      <path id="ID0.13444371055811644" fill="#1F1F1F" stroke="none" stroke-linecap="round" d="M 59.25 66.95 L 64.5 66.7 L 67.3 95.2 L 55.25 95.7 L 59.25 66.95 Z " stroke-width="1"/>
      <path id="ID0.751046194229275" fill="#191919" stroke="none" stroke-linecap="round" d="M 56.965 61.985 L 61.64 59.95 L 66.15 61.985 L 66.59 69.96 L 62.19 70.95 L 56.965 69.96 L 56.965 61.985 Z " stroke-width="1.100000023841858"/>
      <path id="ID0.7854711129330099" fill="#282828" stroke="none" stroke-linecap="round" d="M 48 83.7 L 62 92.45 L 75.75 82.7 L 73.75 100.2 L 50.5 100.2 L 48 83.7 Z " stroke-width="1"/>
      <path id="ID0.562834897544235" fill="#282828" stroke="none" stroke-linecap="round" d="M 31.25 155.2 L 61.5 149.45 L 61.5 169.7 L 47.75 170.95 L 31.25 155.2 Z " stroke-width="1"/>
      <path id="ID0.562834897544235" fill="#282828" stroke="none" stroke-linecap="round" d="M 92.2 155.45 L 61.95 149.7 L 61.95 169.95 L 75.7 171.2 L 92.2 155.45 Z " stroke-width="1"/>
      <path id="ID0.6824178956449032" fill="none" stroke="#191919" stroke-width="2" stroke-linecap="round" d="M 61.75 92.7 L 61.5 169.45 "/>
      <path id="ID0.4144489667378366" fill="#313131" stroke="none" stroke-linecap="round" d="M 23 62.2 L 43.25 54.2 L 40.25 75.95 L 43.5 135.95 L 34 180.7 L 23 175.7 L 22.75 179.2 L 25.75 131.2 L 21 87.95 L 20 71.7 L 23 62.2 Z " stroke-width="1"/>
      <path id="ID0.5234400681219995" fill="#101010" stroke="none" d="M 63.9662 98.3625 C 64.3789 98.3625 64.7531 98.5301 65.024 98.801 C 65.2949 99.0719 65.4625 99.4461 65.4625 99.8587 C 65.4625 100.2714 65.2949 100.6456 65.024 100.9165 C 64.7531 101.1874 64.3789 101.355 63.9662 101.355 C 63.5536 101.355 63.1794 101.1874 62.9085 100.9165 C 62.6376 100.6456 62.47 100.2714 62.47 99.8587 C 62.47 99.4461 62.6376 99.0719 62.9085 98.801 C 63.1794 98.5301 63.5536 98.3625 63.9662 98.3625 Z " stroke-width="0.6299999952316284"/>
      <path id="ID0.5234400681219995" fill="#101010" stroke="none" d="M 63.9662 111.9625 C 64.3789 111.9625 64.7531 112.1301 65.024 112.401 C 65.2949 112.6719 65.4625 113.0461 65.4625 113.4587 C 65.4625 113.8714 65.2949 114.2456 65.024 114.5165 C 64.7531 114.7874 64.3789 114.955 63.9662 114.955 C 63.5536 114.955 63.1794 114.7874 62.9085 114.5165 C 62.6376 114.2456 62.47 113.8714 62.47 113.4587 C 62.47 113.0461 62.6376 112.6719 62.9085 112.401 C 63.1794 112.1301 63.5536 111.9625 63.9662 111.9625 Z " stroke-width="0.6299999952316284"/>
      <path id="ID0.5234400681219995" fill="#101010" stroke="none" d="M 63.9662 143.4125 C 64.3789 143.4125 64.7531 143.5801 65.024 143.851 C 65.2949 144.1219 65.4625 144.4961 65.4625 144.9087 C 65.4625 145.3214 65.2949 145.6956 65.024 145.9665 C 64.7531 146.2374 64.3789 146.405 63.9662 146.405 C 63.5536 146.405 63.1794 146.2374 62.9085 145.9665 C 62.6376 145.6956 62.47 145.3214 62.47 144.9087 C 62.47 144.4961 62.6376 144.1219 62.9085 143.851 C 63.1794 143.5801 63.5536 143.4125 63.9662 143.4125 Z " stroke-width="0.6299999952316284"/>
      <path id="ID0.5234400681219995" fill="#101010" stroke="none" d="M 63.9662 128.7125 C 64.3789 128.7125 64.7531 128.8801 65.024 129.151 C 65.2949 129.4219 65.4625 129.7961 65.4625 130.2087 C 65.4625 130.6214 65.2949 130.9956 65.024 131.2665 C 64.7531 131.5374 64.3789 131.705 63.9662 131.705 C 63.5536 131.705 63.1794 131.5374 62.9085 131.2665 C 62.6376 130.9956 62.47 130.6214 62.47 130.2087 C 62.47 129.7961 62.6376 129.4219 62.9085 129.151 C 63.1794 128.8801 63.5536 128.7125 63.9662 128.7125 Z " stroke-width="0.6299999952316284"/>
      <path id="ID0.5234400681219995" fill="#101010" stroke="none" d="M 63.8662 157.4125 C 64.2789 157.4125 64.6531 157.5801 64.924 157.851 C 65.1949 158.1219 65.3625 158.4961 65.3625 158.9087 C 65.3625 159.3214 65.1949 159.6956 64.924 159.9665 C 64.6531 160.2374 64.2789 160.405 63.8662 160.405 C 63.4536 160.405 63.0794 160.2374 62.8085 159.9665 C 62.5376 159.6956 62.37 159.3214 62.37 158.9087 C 62.37 158.4961 62.5376 158.1219 62.8085 157.851 C 63.0794 157.5801 63.4536 157.4125 63.8662 157.4125 Z " stroke-width="0.6299999952316284"/>
      <path id="ID0.4144489667378366" fill="#313131" stroke="none" stroke-linecap="round" d="M 96.55 61.3 L 76.3 53.3 L 79.3 75.05 L 76.05 135.05 L 85.55 179.8 L 96.55 174.8 L 96.8 178.3 L 93.8 130.3 L 98.55 87.05 L 99.55 70.8 L 96.55 61.3 Z " stroke-width="1"/>
      <path id="ID0.8752945330925286" fill="none" stroke="#222222" stroke-width="2" stroke-linecap="round" d="M 23.5 62.45 L 20.25 70.2 L 23.5 107.95 "/>
      <path id="ID0.8752945330925286" fill="none" stroke="#222222" stroke-width="2" stroke-linecap="round" d="M 96.75 61.95 L 100 69.7 L 96.75 107.45 "/>
      <path id="ID0.5234400681219995" fill="#101010" stroke="none" d="M 40.8662 144.1125 C 41.2789 144.1125 41.6531 144.2801 41.924 144.551 C 42.1949 144.8219 42.3625 145.1961 42.3625 145.6087 C 42.3625 146.0214 42.1949 146.3956 41.924 146.6665 C 41.6531 146.9374 41.2789 147.105 40.8662 147.105 C 40.4536 147.105 40.0794 146.9374 39.8085 146.6665 C 39.5376 146.3956 39.37 146.0214 39.37 145.6087 C 39.37 145.1961 39.5376 144.8219 39.8085 144.551 C 40.0794 144.2801 40.4536 144.1125 40.8662 144.1125 Z " stroke-width="0.6299999952316284"/>
      <path id="ID0.5234400681219995" fill="#101010" stroke="none" d="M 39.4662 151.3625 C 39.8789 151.3625 40.2531 151.5301 40.524 151.801 C 40.7949 152.0719 40.9625 152.4461 40.9625 152.8587 C 40.9625 153.2714 40.7949 153.6456 40.524 153.9165 C 40.2531 154.1874 39.8789 154.355 39.4662 154.355 C 39.0536 154.355 38.6794 154.1874 38.4085 153.9165 C 38.1376 153.6456 37.97 153.2714 37.97 152.8587 C 37.97 152.4461 38.1376 152.0719 38.4085 151.801 C 38.6794 151.5301 39.0536 151.3625 39.4662 151.3625 Z " stroke-width="0.6299999952316284"/>
      <g id="ID0.20783481979742646">
        <path id="ID0.5848579816520214" fill="#737373" stroke="none" stroke-linecap="round" d="M 85.95 89.8 L 92.8 88.3 L 92.7 92.2 L 85.45 92.7 L 85.95 89.8 Z " stroke-width="1"/>
        <path id="ID0.13105127029120922" fill="none" stroke="#222222" stroke-width="2" stroke-linecap="round" d="M 84.1 92.95 L 88.6 92.95 L 93.85 91.45 "/>
      </g>
    </g>
    <path id="ID0.46110434643924236" fill="#D8BFA7" stroke="none" stroke-linecap="round" d="M 48.4448 35.05 L 71.0595 35.05 L 71.527 54 L 65.3328 56.85 L 48.4448 55.15 L 48.4448 35.05 Z " stroke-width="1.0876357641452272"/>
    <g id="ID0.5880346246995032">
      <path id="ID0.6829322893172503" fill="#1D1E1F" stroke="none" stroke-linecap="round" d="M 74.6966 130.1562 L 71.889 118.908 L 77.9622 116.8698 L 84.6057 114.1189 L 90.194 115.3168 L 94.656 116.8995 L 97.2219 119.5371 L 103.5086 122.346 L 102.325 126.8935 L 100.0725 127.6632 L 99.5307 129.2171 L 96.2516 131.8542 L 92.5306 134.6053 L 87.712 135.6599 L 80.8978 133.3642 L 74.6966 130.1562 Z " stroke-width="0.8164595828947994"/>
      <g id="ID0.9434720128774643">
        <path id="ID0.6507829907350242" fill="#282828" stroke="none" stroke-linecap="round" d="M 10.0942 122.113 L 24.052 105.691 L 40.3349 110.5592 L 52.4779 114.2894 L 68.2448 117.6692 L 75.5581 116.8571 L 74.9042 131.7888 L 67.802 129.4732 L 57.8371 129.2158 L 45.0637 129.4003 L 31.8799 127.4092 L 10.0942 122.113 Z " stroke-width="0.8164595828947994"/>
        <path id="ID0.9892375003546476" fill="none" stroke="#191919" stroke-width="2.0000000685115014" stroke-linecap="round" d="M 74.1512 131.1391 L 74.2919 117.3625 L 65.4567 118.0254 "/>
      </g>
    </g>
    <path id="ID0.6101007834076881" fill="#FFFFFF" stroke="none" stroke-linecap="round" d="M 59.2644 23.8081 L 60.6492 24.795 L 63.7092 27.3182 L 63.4812 29.3478 L 59.1464 26.0413 L 59.2644 23.8081 Z " stroke-width="0.4061061868223912"/>
    <path id="ID0.6101007834076881" fill="#FFFFFF" stroke="none" stroke-linecap="round" d="M 78.3025 30.7541 L 76.689 30.6357 L 72.9154 30.6247 L 71.8496 32.2494 L 77.0324 32.4612 L 78.3025 30.7541 Z " stroke-width="0.38638673216819563"/>
    <path id="ID0.043594349175691605" fill="#D7E2FD" stroke="none" stroke-linecap="round" d="M 63.0901 28.1731 L 63.7187 27.2212 L 63.4235 29.3198 L 61.2936 27.6707 L 63.0901 28.1731 Z " stroke-width="0.5080372810150616"/>
    <path id="ID0.043594349175691605" fill="#D7E2FD" stroke="none" stroke-linecap="round" d="M 72.9476 31.6523 L 73.0752 30.623 L 72.0401 32.248 L 74.4861 32.3658 L 72.9476 31.6523 Z " stroke-width="0.46186425282374727"/>
    <path id="ID0.8999492498114705" fill="#EDD2B8" stroke="none" stroke-linecap="round" d="M 73.3251 7.0144 C 77.5972 8.187 81.8385 11.6146 83.3268 15.7869 C 85.0248 20.5502 82.2842 25.7726 81.7148 30.748 C 81.5457 32.4832 81.4837 34.3144 80.7711 35.9734 C 79.7698 39.0088 78.1195 41.7917 76.6359 44.7248 C 75.637 46.7021 75.0773 48.9786 73.6208 50.6718 C 71.9639 52.6868 70.1404 55.5678 67.5014 55.6048 C 63.5891 55.6592 59.8568 53.194 56.7298 50.913 C 54.1611 49.0389 51.8927 46.4335 50.7786 43.4462 C 48.8121 37.9188 47.1826 31.9238 47.7366 26.0532 C 48.3509 19.5454 48.8717 11.4594 54.3143 7.5577 C 59.234 3.7495 66.9738 5.2742 73.3251 7.0144 Z " stroke-width="0.5080372851443906"/>
    <path id="ID0.8194515448994935" fill="#EDD2B8" stroke="none" stroke-linecap="round" d="M 48.5212 20.7056 C 49.3506 20.9271 49.8703 21.5871 50.2027 22.7131 C 50.535 23.8392 50.6128 25.3326 50.3564 26.9261 C 50.1001 28.5196 49.5578 29.9131 48.889 30.8781 C 48.2203 31.8432 47.523 32.28 46.6627 32.257 C 45.8733 32.2343 44.9482 31.651 44.6989 30.9282 C 44.2665 29.3414 44.6672 27.606 44.8275 26.0365 C 44.9846 24.4939 44.8995 22.7563 45.7143 21.4694 C 46.3228 20.7023 47.6521 20.4736 48.5212 20.7056 Z " stroke-width="1.0000000264076117"/>
    <path id="ID0.5768358684144914" fill="#2E3234" stroke="none" d="M 48.0922 17.4576 L 54.016 18.4107 L 53.7301 20.1879 L 47.8063 19.2348 L 48.0922 17.4576 Z " stroke-width="1.0000000264076117"/>
    <path id="ID0.3245162623934448" fill="#54595E" stroke="none" stroke-linecap="round" d="M 71.4994 7.6564 C 74.7141 8.1736 77.2092 11.2369 78.6437 15.7673 C 80.0783 20.2977 79.7581 27.0536 79.4246 32.6831 C 79.0843 38.431 79.9713 44.8919 76.8406 49.6885 C 74.4279 53.3842 69.0569 55.6306 64.5659 55.1582 C 60.3243 54.7158 55.6429 51.4609 54.2796 47.3248 C 52.3536 41.4796 54.7305 34.9908 56.1243 28.9343 C 57.3892 23.4395 59.3884 16.9689 62.1716 13.1171 C 64.9548 9.2653 68.2847 7.1392 71.4994 7.6564 Z " stroke-width="1.0000000264076117"/>
    <path id="ID0.8999492498114705" fill="#54595E" stroke="none" stroke-linecap="round" d="M 75.6751 4.6644 C 79.6737 6.571 84.1885 9.2646 85.6768 13.4369 C 87.3748 18.2002 84.0368 23.3873 84.0648 28.398 C 84.0762 30.3773 86.2799 32.2591 85.8436 34.293 C 85.2389 36.9029 82.8055 38.739 81.2375 41.0132 C 79.5324 43.4815 77.9569 46.1256 75.9708 48.3218 C 74.2161 50.2635 72.356 52.4985 69.8514 53.2548 C 67.9229 53.8358 65.303 53.6644 63.9488 52.2023 C 62.872 51.04 64.3526 49.0332 64.2268 47.4357 C 64.208 45.4866 63.2042 43.5699 63.5175 41.6099 C 64.3915 36.1551 67.0963 31.0843 67.9921 25.632 C 68.9768 19.6362 70.2997 13.5213 69.2478 7.5925 C 68.8455 5.3244 62.7994 3.7722 63.9701 3.2957 C 65.8096 2.401 72.1323 2.9752 75.6751 4.6644 Z " stroke-width="0.5080372851443906"/>
    <path id="ID0.8999492498114705" fill="#54595E" stroke="none" stroke-linecap="round" d="M 64.4948 3.2297 C 60.5808 3.7459 56.1072 5.0217 53.6858 8.2058 C 50.7405 12.059 51.1761 17.6005 49.9062 22.263 C 49.4388 23.9749 48.1008 25.5941 48.2183 27.3172 C 48.4117 29.7066 50.2195 31.7717 50.5159 34.1448 C 50.924 37.4136 49.6015 40.8805 50.4422 44.0384 C 51.1159 46.5673 52.5645 49.1381 54.7055 50.6419 C 56.3544 51.7984 58.8959 52.4574 60.6404 51.4938 C 62.0274 50.7279 61.2509 48.3579 61.8714 46.8806 C 62.5007 45.0358 64.055 43.5306 64.3723 41.5712 C 65.2533 36.1176 64.2755 30.4543 65.1351 24.9962 C 66.0807 18.994 67.174 12.9827 69.601 7.4731 C 70.2545 5.9924 74.9927 6.0405 74.1449 5.2969 C 72.4652 3.8359 67.7665 2.7244 64.4948 3.2297 Z " stroke-width="0.5080372851443906"/>
    <path id="ID0.45774566335603595" fill="#54595E" stroke="none" stroke-linecap="round" d="M 66.9031 39.253 C 68.9804 39.5872 70.3 41.0798 71.8965 42.149 C 73.352 43.1246 76.2969 43.7381 75.9969 45.5272 C 75.5589 48.3252 72.7172 50.3434 70.3131 51.9904 C 68.7275 53.0763 66.7406 53.5082 64.6634 53.174 C 62.5861 52.8398 60.9399 51.7211 59.67 50.2781 C 57.9126 48.2826 55.6343 45.8994 56.092 43.3376 C 56.364 41.3637 59.3648 41.1203 61.2533 40.4366 C 63.0604 39.7813 64.8258 38.9188 66.9031 39.253 Z " stroke-width="1.0000000264076117"/>
    <path id="ID0.6934182443656027" fill="#54595E" stroke="none" stroke-linecap="round" d="M 53.6938 31.4701 L 66.1243 37.6228 L 80.7601 35.4197 L 76.726 41.6074 L 75.5175 45.9709 L 55.8163 43.4595 L 55.6578 37.2049 L 53.6938 31.4701 Z " stroke-width="1.0000000264076117"/>
    <path id="ID0.6236958587542176" fill="#3B4043" stroke="none" stroke-linecap="round" d="M 60.5473 29.2328 L 76.1053 31.6853 L 74.207 39.0776 L 73.5966 46.0188 L 69.2057 55.998 L 59.7197 54.5225 L 57.8032 44.0855 L 59.899 36.725 L 60.5473 29.2328 Z " stroke-width="1.0000000264076117"/>
    <path id="ID0.6043254472315311" fill="#3B4043" stroke="none" stroke-linecap="round" d="M 56.934 5.7324 L 62.0764 3.6731 L 65.8766 9.9565 L 72.1193 12.075 L 67.8195 30.9314 L 64.7504 33.3243 L 59.5239 32.1289 L 56.3526 29.4917 L 55.3924 25.3871 L 57.9059 19.2079 L 56.934 5.7324 Z " stroke-width="1.0000000264076117"/>
    <path id="ID0.6043254472315311" fill="#3B4043" stroke="none" stroke-linecap="round" d="M 84.9733 11.8789 L 83.2971 9.0771 L 80.7647 7.5049 L 75.9208 11.486 L 69.3286 11.5395 L 67.497 30.793 L 69.6606 34.0278 L 74.9983 34.5321 L 79.7589 33.2723 L 81.036 29.4263 L 80.5875 22.7706 L 84.9733 11.8789 Z " stroke-width="1.0000000264076117"/>
    <path id="ID0.9914007503539324" fill="#33383A" stroke="none" d="M 64.7464 37.6581 L 64.9838 25.7952 L 71.3043 27.1159 L 69.7896 38.4189 L 64.7464 37.6581 Z " stroke-width="1.0000000264076117"/>
    <path id="ID0.28340246016159654" fill="#D8BFA7" stroke="none" stroke-linecap="round" d="M 55.1721 22.3595 L 61.8909 23.535 L 65.9169 26.4831 L 66.2394 30.0012 L 64.5194 31.9618 L 60.9955 31.773 L 58.3643 30.8455 L 56.4203 29.7449 L 54.6015 27.6876 L 54.0237 25.578 L 55.1721 22.3595 Z " stroke-width="0.5947752466774443"/>
    <path id="ID0.28340246016159654" fill="#D8BFA7" stroke="none" stroke-linecap="round" d="M 83.3278 26.8526 L 76.5793 25.8614 L 71.8318 27.3979 L 70.4221 30.6373 L 71.4403 33.0384 L 74.8456 33.9644 L 77.6349 33.909 L 79.8261 33.4738 L 82.1984 32.0908 L 83.4088 30.2688 L 83.3278 26.8526 Z " stroke-width="0.5947752466774443"/>
    <path id="ID0.17377300979569554" fill="#C6AF99" stroke="none" stroke-linecap="round" d="M 58.5283 26.7522 L 59.5557 26.0763 L 61.8431 26.2577 L 63.9707 27.2134 L 64.1073 29.2113 L 61.5245 28.6621 L 58.5283 26.7522 Z " stroke-width="1.000000008379362"/>
    <path id="ID0.17377300979569554" fill="#C6AF99" stroke="none" stroke-linecap="round" d="M 80.1011 30.2437 L 79.3375 29.2796 L 77.1087 28.7345 L 74.7887 28.9746 L 74.0324 30.8288 L 76.6571 31.1174 L 80.1011 30.2437 Z " stroke-width="0.9999999935218438"/>
    <path id="ID0.44800941413268447" fill="none" stroke="#33383A" stroke-width="1.0503597143661105" stroke-linecap="round" d="M 67.0801 30.6958 L 66.1568 26.1854 L 62.2151 23.0777 L 55.7129 22.1646 "/>
    <path id="ID0.12448931112885475" fill="#33383A" stroke="none" stroke-linecap="round" d="M 65.176 36.0385 L 69.8992 36.8997 L 70.3367 40.1606 L 67.0378 41.1492 L 63.8285 39.0629 L 65.176 36.0385 Z " stroke-width="1.0000000264076117"/>
    <path id="ID0.44800941413268447" fill="none" stroke="#33383A" stroke-width="1.0503597619514151" stroke-linecap="round" d="M 66.5357 26.9983 L 67.7357 24.5906 L 66.8434 21.0392 "/>
    <path id="ID0.44800941413268447" fill="none" stroke="#33383A" stroke-width="1.0503597347769384" stroke-linecap="round" d="M 70.9347 27.6314 L 70.5505 24.9688 L 72.5117 21.8765 "/>
    <g id="ID0.32985211815685034">
      <g id="ID0.08651347272098064">
        <g id="ID0.07771636918187141">
          <path id="ID0.7001032647676766" fill="none" stroke="#646B70" stroke-width="0.5238094924674718" stroke-linecap="round" d="M 58.1722 41.0334 C 58.1722 41.0334 58.0501 41.3865 57.9814 41.5598 C 57.9167 41.7229 57.7352 41.8714 57.7709 42.0432 C 57.8079 42.2211 57.9991 42.3415 58.1606 42.4242 C 58.316 42.5036 58.5059 42.4777 58.6778 42.5074 C 58.8497 42.5372 59.0853 42.7409 59.1928 42.6036 C 59.4505 42.275 59.5456 41.4003 59.5456 41.4003 "/>
          <path id="ID0.7001032647676766" fill="none" stroke="#646B70" stroke-width="0.5238094924674718" stroke-linecap="round" d="M 59.5722 41.2834 C 59.5722 41.2834 59.4501 41.6365 59.3814 41.8098 C 59.3167 41.9729 59.1352 42.1214 59.1709 42.2932 C 59.2079 42.4711 59.3991 42.5915 59.5606 42.6742 C 59.716 42.7536 59.9059 42.7277 60.0778 42.7574 C 60.2497 42.7872 60.4853 42.9909 60.5928 42.8536 C 60.8505 42.525 60.9456 41.6503 60.9456 41.6503 "/>
        </g>
        <g id="ID0.07771636918187141">
          <path id="ID0.7001032647676766" fill="none" stroke="#646B70" stroke-width="0.5238094924674718" stroke-linecap="round" d="M 61.1222 41.6834 C 61.1222 41.6834 61.0001 42.0365 60.9314 42.2098 C 60.8667 42.3729 60.6852 42.5214 60.7209 42.6932 C 60.7579 42.8711 60.9491 42.9915 61.1106 43.0742 C 61.266 43.1536 61.4559 43.1277 61.6278 43.1574 C 61.7997 43.1872 62.0353 43.3909 62.1428 43.2536 C 62.4005 42.925 62.4956 42.0503 62.4956 42.0503 "/>
          <path id="ID0.7001032647676766" fill="none" stroke="#646B70" stroke-width="0.5238094924674718" stroke-linecap="round" d="M 62.6222 42.0334 C 62.6222 42.0334 62.5001 42.3865 62.4314 42.5598 C 62.3667 42.7229 62.1852 42.8714 62.2209 43.0432 C 62.2579 43.2211 62.4491 43.3415 62.6106 43.4242 C 62.766 43.5036 62.9559 43.4777 63.1278 43.5074 C 63.2997 43.5372 63.5353 43.7409 63.6428 43.6036 C 63.9005 43.275 63.9956 42.4003 63.9956 42.4003 "/>
        </g>
        <path id="ID0.7001032647676766" fill="none" stroke="#646B70" stroke-width="0.5238095418560489" stroke-linecap="round" d="M 64.0962 42.4004 C 64.0962 42.4004 64.0118 42.7644 63.9616 42.9439 C 63.9144 43.1129 63.7495 43.2796 63.803 43.4467 C 63.8584 43.6197 64.0612 43.7194 64.2305 43.7848 C 64.3933 43.8475 64.5794 43.8018 64.7535 43.8134 C 64.9276 43.825 65.1833 44.0028 65.2758 43.855 C 65.4976 43.5012 65.5005 42.6213 65.5005 42.6213 "/>
      </g>
      <g id="ID0.08651347272098064">
        <g id="ID0.07771636918187141">
          <path id="ID0.7001032647676766" fill="none" stroke="#646B70" stroke-width="0.5238094924674718" stroke-linecap="round" d="M 73.1445 43.4404 C 73.1445 43.4404 73.1496 43.8139 73.1605 44 C 73.1708 44.1752 73.2965 44.3731 73.2087 44.5251 C 73.1179 44.6823 72.8985 44.7367 72.7192 44.7646 C 72.5467 44.7913 72.3746 44.7071 72.202 44.6814 C 72.0295 44.6558 71.7418 44.7753 71.6828 44.6112 C 71.5412 44.2183 71.7252 43.3579 71.7252 43.3579 "/>
          <path id="ID0.7001032647676766" fill="none" stroke="#646B70" stroke-width="0.5238094924674718" stroke-linecap="round" d="M 71.6445 43.1904 C 71.6445 43.1904 71.6496 43.5639 71.6605 43.75 C 71.6708 43.9252 71.7965 44.1231 71.7087 44.2751 C 71.6179 44.4323 71.3985 44.4867 71.2192 44.5146 C 71.0467 44.5413 70.8746 44.4571 70.702 44.4314 C 70.5295 44.4058 70.2418 44.5253 70.1828 44.3612 C 70.0412 43.9683 70.2252 43.1079 70.2252 43.1079 "/>
        </g>
        <g id="ID0.07771636918187141">
          <path id="ID0.7001032647676766" fill="none" stroke="#646B70" stroke-width="0.5238094924674718" stroke-linecap="round" d="M 69.9445 43.0404 C 69.9445 43.0404 69.9496 43.4139 69.9605 43.6 C 69.9708 43.7752 70.0965 43.9731 70.0087 44.1251 C 69.9179 44.2823 69.6985 44.3367 69.5192 44.3646 C 69.3467 44.3913 69.1746 44.3071 69.002 44.2814 C 68.8295 44.2558 68.5418 44.3753 68.4828 44.2112 C 68.3412 43.8183 68.5252 42.9579 68.5252 42.9579 "/>
          <path id="ID0.7001032647676766" fill="none" stroke="#646B70" stroke-width="0.5238094924674718" stroke-linecap="round" d="M 68.4445 42.9404 C 68.4445 42.9404 68.4496 43.3139 68.4605 43.5 C 68.4708 43.6752 68.5965 43.8731 68.5087 44.0251 C 68.4179 44.1823 68.1985 44.2367 68.0192 44.2646 C 67.8467 44.2913 67.6746 44.2071 67.502 44.1814 C 67.3295 44.1558 67.0418 44.2753 66.9828 44.1112 C 66.8412 43.7183 67.0252 42.8579 67.0252 42.8579 "/>
        </g>
        <path id="ID0.7001032647676766" fill="none" stroke="#646B70" stroke-width="0.5238095212323052" stroke-linecap="round" d="M 67.0039 42.8415 C 67.0039 42.8415 66.9699 43.2135 66.9612 43.3997 C 66.9531 43.575 67.0574 43.785 66.9541 43.9269 C 66.8473 44.0738 66.6234 44.1049 66.4421 44.1139 C 66.2678 44.1223 66.1055 44.0205 65.9366 43.9769 C 65.7676 43.9333 65.469 44.022 65.4275 43.8526 C 65.3279 43.4471 65.6011 42.6107 65.6011 42.6107 "/>
      </g>
    </g>
    <path id="ID0.7001032647676766" fill="none" stroke="#646B70" stroke-width="0.5238095524988331" stroke-linecap="round" d="M 57.8556 44.1096 C 57.8556 44.1096 57.8504 43.7361 57.8395 43.55 C 57.8292 43.3748 57.7035 43.1769 57.7913 43.0249 C 57.8821 42.8676 58.1015 42.8133 58.2808 42.7854 C 58.4533 42.7587 58.6254 42.8429 58.798 42.8686 C 58.9705 42.8942 59.2582 42.7747 59.3172 42.9388 C 59.4588 43.3317 59.2748 44.1921 59.2748 44.1921 "/>
    <path id="ID0.7001032647676766" fill="none" stroke="#646B70" stroke-width="0.5238095524988331" stroke-linecap="round" d="M 59.3556 44.3096 C 59.3556 44.3096 59.3504 43.9361 59.3395 43.75 C 59.3292 43.5748 59.2035 43.3769 59.2913 43.2249 C 59.3821 43.0676 59.6015 43.0133 59.7808 42.9854 C 59.9533 42.9587 60.1254 43.0429 60.298 43.0686 C 60.4705 43.0942 60.7582 42.9747 60.8172 43.1388 C 60.9588 43.5317 60.7748 44.3921 60.7748 44.3921 "/>
    <g id="ID0.07771636918187141">
      <path id="ID0.7001032647676766" fill="none" stroke="#646B70" stroke-width="0.5238095524988331" stroke-linecap="round" d="M 60.4556 44.6096 C 60.4556 44.6096 60.4504 44.2361 60.4395 44.05 C 60.4292 43.8748 60.3035 43.6769 60.3913 43.5249 C 60.4821 43.3676 60.7015 43.3133 60.8808 43.2854 C 61.0533 43.2587 61.2254 43.3429 61.398 43.3686 C 61.5705 43.3942 61.8582 43.2747 61.9172 43.4388 C 62.0588 43.8317 61.8748 44.6921 61.8748 44.6921 "/>
      <path id="ID0.7001032647676766" fill="none" stroke="#646B70" stroke-width="0.5238095524988331" stroke-linecap="round" d="M 61.9556 44.6596 C 61.9556 44.6596 61.9504 44.2861 61.9395 44.1 C 61.9292 43.9248 61.8035 43.7269 61.8913 43.5749 C 61.9821 43.4176 62.2015 43.3633 62.3808 43.3354 C 62.5533 43.3087 62.7254 43.3929 62.898 43.4186 C 63.0705 43.4442 63.3582 43.3247 63.4172 43.4888 C 63.5588 43.8817 63.3748 44.7421 63.3748 44.7421 "/>
    </g>
    <path id="ID0.7001032647676766" fill="none" stroke="#646B70" stroke-width="0.5238095826596323" stroke-linecap="round" d="M 63.8461 45.1585 C 63.8461 45.1585 63.8802 44.7865 63.8888 44.6003 C 63.8969 44.425 63.7927 44.215 63.8959 44.0731 C 64.0028 43.9262 64.2266 43.8951 64.4079 43.8861 C 64.5822 43.8777 64.7445 43.9795 64.9135 44.0231 C 65.0824 44.0667 65.381 43.978 65.4225 44.1474 C 65.5221 44.5529 65.2489 45.3893 65.2489 45.3893 "/>
    <path id="ID0.7001032647676766" fill="none" stroke="#646B70" stroke-width="0.5238095524988331" stroke-linecap="round" d="M 73.4778 46.4166 C 73.4778 46.4166 73.5999 46.0635 73.6686 45.8902 C 73.7333 45.7271 73.9148 45.5786 73.879 45.4068 C 73.8421 45.2289 73.6509 45.1085 73.4894 45.0258 C 73.334 44.9464 73.1441 44.9723 72.9722 44.9426 C 72.8003 44.9128 72.5647 44.7091 72.4571 44.8464 C 72.1995 45.175 72.1044 46.0497 72.1044 46.0497 "/>
    <path id="ID0.7001032647676766" fill="none" stroke="#646B70" stroke-width="0.5238095524988331" stroke-linecap="round" d="M 71.9778 46.1666 C 71.9778 46.1666 72.0999 45.8135 72.1686 45.6402 C 72.2333 45.4771 72.4148 45.3286 72.379 45.1568 C 72.3421 44.9789 72.1509 44.8585 71.9894 44.7758 C 71.834 44.6964 71.6441 44.7223 71.4722 44.6926 C 71.3003 44.6628 71.0647 44.4591 70.9571 44.5964 C 70.6995 44.925 70.6044 45.7997 70.6044 45.7997 "/>
    <path id="ID0.7001032647676766" fill="none" stroke="#646B70" stroke-width="0.5238095524988331" stroke-linecap="round" d="M 70.1778 45.9666 C 70.1778 45.9666 70.2999 45.6135 70.3686 45.4402 C 70.4333 45.2771 70.6148 45.1286 70.579 44.9568 C 70.5421 44.7789 70.3509 44.6585 70.1894 44.5758 C 70.034 44.4964 69.8441 44.5223 69.6722 44.4926 C 69.5003 44.4628 69.2647 44.2591 69.1571 44.3964 C 68.8995 44.725 68.8044 45.5997 68.8044 45.5997 "/>
    <path id="ID0.7001032647676766" fill="none" stroke="#646B70" stroke-width="0.5238095524988331" stroke-linecap="round" d="M 68.6778 45.8666 C 68.6778 45.8666 68.7999 45.5135 68.8686 45.3402 C 68.9333 45.1771 69.1148 45.0286 69.079 44.8568 C 69.0421 44.6789 68.8509 44.5585 68.6894 44.4758 C 68.534 44.3964 68.3441 44.4223 68.1722 44.3926 C 68.0003 44.3628 67.7647 44.1591 67.6571 44.2964 C 67.3995 44.625 67.3044 45.4997 67.3044 45.4997 "/>
    <path id="ID0.7001032647676766" fill="none" stroke="#646B70" stroke-width="0.5238096016766342" stroke-linecap="round" d="M 67.0038 45.7496 C 67.0038 45.7496 67.0882 45.3856 67.1384 45.2061 C 67.1856 45.0371 67.3505 44.8704 67.297 44.7033 C 67.2416 44.5303 67.0388 44.4305 66.8695 44.3652 C 66.7066 44.3025 66.5205 44.3482 66.3465 44.3366 C 66.1724 44.325 65.9167 44.1471 65.8242 44.295 C 65.6024 44.6488 65.5995 45.5287 65.5995 45.5287 "/>
    <path id="ID0.44800941413268447" fill="none" stroke="#2E3234" stroke-width="0.613002961388512" stroke-linecap="round" d="M 69.9249 37.2514 L 68.3471 35.6793 L 64.9175 36.185 "/>
    <path id="ID0.44800941413268447" fill="none" stroke="#33383A" stroke-width="1.0503597143661105" stroke-linecap="round" d="M 69.4243 31.0829 L 71.7158 27.0897 L 76.4333 25.3752 L 82.8938 26.5477 "/>
    <path id="ID0.023752907756716013" fill="none" stroke="#584E44" stroke-width="1.1814345745673567" stroke-linecap="round" d="M 58.4194 25.3216 L 61.7216 25.3198 L 64.1472 26.1796 "/>
    <path id="ID0.023752907756716013" fill="none" stroke="#584E44" stroke-width="1.181434694168865" stroke-linecap="round" d="M 80.1675 29.171 L 77.2095 27.703 L 74.6544 27.3963 "/>
  </g>
</svg>