<svg xmlns="http://www.w3.org/2000/svg" xmlns:xlink="http://www.w3.org/1999/xlink" version="1.1" width="205.94483947364023" height="254.76498412696054" viewBox="21.147405626339058 -0.7920447568472808 205.94483947364023 254.76498412696054">
  <defs>
    <linearGradient id="grad_1" y2="1" x2="0">
      <stop offset="0" stop-color="#222325" stop-opacity="1"/>
      <stop offset="1" stop-color="#2E3034" stop-opacity="1"/>
    </linearGradient>
  </defs>
  <!-- Exported by Scratch - http://scratch.mit.edu/ -->
  <path id="ID0.21634112810716033" fill="#0D0D0D" stroke="#0D0D0D" stroke-width="2.6515911383870434" stroke-linecap="round" d="M 160.0786 169.8322 C 166.8442 169.4566 166.1161 164.5946 168.7627 162.6501 C 169.486 162.1017 169.3013 164.5599 169.4309 165.5383 C 169.5769 166.6322 169.4289 167.7577 169.5883 168.8491 C 170.6996 176.2193 170.4969 177.9233 170.8172 180.7363 C 170.9246 181.7211 171.4158 182.6396 171.4855 183.6246 C 171.5514 184.5593 171.1545 185.4897 171.2204 186.4245 C 171.2901 187.4095 171.5664 188.3801 171.8887 189.3127 C 172.1858 190.1733 172.9126 190.8815 173.0678 191.7785 C 173.2282 192.7005 172.8424 193.6424 172.8027 194.5785 C 172.7176 196.6119 172.3587 198.6826 172.6951 200.6891 C 173.1702 203.5186 174.422 206.1721 175.2107 208.9315 C 175.4825 209.88 175.5567 210.8871 175.879 211.8197 C 176.1761 212.6803 176.714 213.4431 177.058 214.2855 C 178.1148 216.8697 179.1158 219.4862 180.0845 222.1054 C 180.7391 223.8746 181.7811 225.5797 181.9318 227.4594 C 182.011 228.4434 180.9341 229.205 180.7335 230.171 C 180.3527 232.0051 180.3799 233.9061 180.2034 235.7708 C 180.1142 236.7031 179.8724 237.636 179.9383 238.5708 C 180.008 239.5557 180.7879 240.4884 180.6066 241.459 C 180.4391 242.3528 179.5259 242.9274 178.9857 243.6598 C 178.4456 244.3921 178.1584 245.4158 177.3649 245.8605 C 175.8981 246.6831 174.1499 247.7022 172.5217 247.2854 C 170.7969 246.8434 169.875 244.8944 168.631 243.6212 C 168.0138 242.9893 167.7259 241.9818 166.9411 241.5779 C 166.1087 241.1498 165.0469 241.553 164.1412 241.3129 C 163.1868 241.0596 162.2246 240.6992 161.4296 240.1145 C 160.7183 239.5914 160.383 238.6764 159.7397 238.0712 C 159.0774 237.4473 158.2713 236.9905 157.5389 236.4504 C 156.8066 235.9102 156.077 235.65 155.3382 234.8295 C 152.385 231.5479 149.7023 228.0151 146.8886 224.613 C 145.7632 223.2521 144.5167 221.9759 143.5088 220.5263 C 142.9891 219.7794 142.8646 218.7967 142.3297 218.0605 C 140.7726 215.9177 138.8171 214.0734 137.26 211.9306 C 136.7251 211.1944 136.5695 210.2324 136.0809 209.4648 C 135.6072 208.7194 134.8647 208.1669 134.391 207.4215 C 133.9024 206.6539 133.7568 205.6853 133.2119 204.9557 C 131.0994 202.1247 128.5648 199.6135 126.4523 196.7824 C 125.9074 196.0529 125.3379 195.2249 125.2732 194.3167 C 125.1956 193.216 125.5348 192.0701 126.049 191.0943 C 126.8974 189.4843 127.9894 187.9651 129.2907 186.6928 C 131.8165 184.2236 134.5316 181.9024 137.464 179.9331 C 138.2835 179.3826 139.3904 179.4874 140.3522 179.2649 C 141.314 179.0423 142.3499 179.0217 143.2405 178.5966 C 144.0374 178.2163 144.6034 177.4694 145.2838 176.9067 C 145.9642 176.344 146.5303 175.5971 147.3271 175.2168 C 148.2177 174.7916 149.3014 174.9225 150.2154 174.5485 C 152.7428 173.5146 155.149 172.1887 157.6128 171.0113 C 158.4343 170.6191 159.24 170.0268 160.0786 169.8322 Z "/>
  <path id="ID0.7766774026677012" fill="#0D0D0D" stroke="#0D0D0D" stroke-width="1.709986149434082" stroke-linecap="round" d="M 168.6859 152.9863 C 170.5692 130.2985 173.9907 106.8987 165.5337 84.0337 C 162.3353 75.389 147.5726 69.8789 135.9459 65.5829 C 130.6387 63.6241 124.7212 66.3311 119.1852 66.9076 C 117.6136 67.0685 116.3949 67.6449 115.0368 67.9706 C 113.1301 68.2969 111.142 68.4825 109.3982 68.8624 C 108.7807 68.9981 108.1595 69.1306 107.5821 69.3379 C 106.9092 69.5001 106.3737 69.7807 105.7466 69.9824 C 104.4466 70.3462 103.1427 70.7438 101.8465 71.0738 C 100.5582 71.3363 99.2279 71.5256 97.9853 71.8276 C 97.3659 71.9618 96.7008 72.0564 96.1692 72.3032 C 95.5382 72.5386 95.0865 72.9657 94.5432 73.3138 C 94.0077 73.5944 93.4722 73.875 92.9367 74.1556 C 92.405 74.4024 91.7244 74.6321 91.3301 74.9973 C 90.8901 75.3231 90.7326 75.8181 90.4299 76.2623 C 90.1311 76.6727 89.7826 77.0774 89.5297 77.5273 C 88.9818 78.3538 88.4797 79.2198 87.9776 80.0858 C 87.6788 80.4962 87.38 80.9066 87.0773 81.3508 C 86.7785 81.7612 86.4798 82.1716 86.1771 82.6158 C 85.8783 83.0262 85.5795 83.4366 85.2769 83.8808 C 84.9781 84.2912 84.58 84.6902 84.3766 85.1457 C 84.1275 85.5619 84.0771 86.0008 83.9731 86.4678 C 83.8234 86.8953 83.6736 87.3228 83.5696 87.7898 C 83.4199 88.2173 83.3198 88.6506 83.1661 89.1119 C 82.9667 89.5337 82.6679 89.9441 82.5143 90.4054 C 81.916 91.6708 81.3596 93.0095 80.8071 94.3144 C 80.6076 94.7363 80.3088 95.1467 80.1552 95.608 C 79.9557 96.0298 79.8557 96.463 79.7517 96.93 C 79.6019 97.3575 79.4025 97.7793 79.3482 98.252 C 79.2481 98.6853 79.2474 99.1299 79.1931 99.6026 C 79.0922 100.4805 78.8882 101.3807 78.8828 102.3038 C 78.8324 102.7427 79.0078 102.9681 78.976 103.6829 C 78.7116 106.4235 78.3439 109.1864 78.0259 111.9551 C 77.7195 114.6225 77.4053 117.3574 77.0951 120.0585 C 76.9438 121.3753 76.8345 122.7654 76.6297 124.1102 C 76.5296 124.5435 76.3798 124.971 76.2262 125.4323 C 75.8615 126.4167 75.4013 127.3559 75.132 128.3855 C 74.9823 128.813 75.0312 129.2633 74.9769 129.736 C 74.8768 130.1693 74.6774 130.5911 74.5734 131.0581 C 74.2739 131.9131 73.9208 132.7962 73.7664 133.7022 C 73.5662 134.5686 73.5609 135.4917 73.4562 136.4033 C 73.1498 139.0707 72.8356 141.8056 72.5254 144.5067 C 72.4517 145.1482 72.4742 145.3903 72.3702 145.8573 C 72.2205 146.2848 71.872 146.6895 71.7184 147.1508 C 71.2194 148.4277 70.9114 149.7949 70.5079 151.1169 C 70.3581 151.5445 70.258 151.9777 70.1044 152.439 C 69.6977 153.3501 69.1421 154.2442 68.7813 155.1948 C 68.5779 155.6504 68.4662 156.1849 68.3584 156.6857 C 68.2047 157.147 67.9975 157.6363 67.9355 158.1765 C 67.8354 158.6098 67.8346 159.0544 67.7804 159.5271 C 67.7299 159.9661 67.5802 160.3936 67.6252 160.8777 C 67.6734 161.7727 67.9164 162.7243 68.0601 163.6644 C 68.109 164.1148 68.1579 164.5651 68.1533 165.0435 C 68.1029 165.4824 68.0525 165.9214 67.9982 166.3941 C 67.9477 166.833 67.8973 167.272 67.843 167.7447 C 67.6429 168.6111 67.5381 169.5227 67.2844 170.4173 C 66.9888 171.2385 66.2484 172.864 66.2484 172.864 C 65.9613 173.1731 65.1226 175.024 64.6382 175.929 C 64.3753 176.4208 63.9989 176.8763 63.7185 177.3628 C 63.4747 177.7856 63.2842 178.2256 63.0667 178.6563 C 62.8491 179.087 62.5933 179.5085 62.4148 179.9498 C 62.2404 180.3813 62.1857 180.8403 62.0113 181.2718 C 61.8328 181.7132 61.6139 182.1464 61.3594 182.5654 C 61.0962 182.9997 60.6846 183.3841 60.4592 183.8303 C 60.2468 184.2513 60.1898 184.7121 60.0557 185.1524 C 59.9216 185.5926 59.7863 186.0342 59.6522 186.4744 C 59.5181 186.9147 59.3828 187.3562 59.2487 187.7965 C 59.1146 188.2367 58.9251 188.6686 58.8452 189.1185 C 58.6873 190.011 58.6928 190.9271 58.535 191.8196 C 58.4551 192.2696 58.2656 192.7014 58.1315 193.1417 C 57.9974 193.582 57.8078 194.0138 57.728 194.4637 C 57.5701 195.3563 57.4932 196.2622 57.4177 197.1649 C 57.2666 198.9709 57.1856 200.7891 57.0456 202.5957 C 57.0108 203.0474 56.9421 203.4965 56.8904 203.9462 C 56.8388 204.396 56.8286 204.8525 56.7353 205.2968 C 56.6416 205.7445 56.5062 206.1873 56.3318 206.6189 C 56.1533 207.0602 55.8172 207.4622 55.6799 207.9124 C 55.5462 208.3493 55.6181 208.8187 55.5248 209.2629 C 55.4311 209.7106 55.215 210.1373 55.1213 210.585 C 55.028 211.0293 55.0595 211.4913 54.9662 211.9356 C 54.8725 212.3832 54.7371 212.8261 54.5627 213.2576 C 54.3841 213.6989 54.0893 214.1098 53.9108 214.5511 C 53.7364 214.9826 53.6817 215.4416 53.5073 215.8732 C 53.3288 216.3145 53.0202 216.7224 52.8554 217.1667 C 52.5332 218.0355 52.3177 218.9303 52.0484 219.8107 C 51.9143 220.251 51.7791 220.6925 51.645 221.1328 C 51.5108 221.5731 51.3351 222.0072 51.2415 222.4548 C 51.1481 222.8991 51.0962 223.3515 51.0863 223.8054 C 51.0761 224.2626 51.2038 224.7282 51.1796 225.1845 C 51.131 226.0896 51.1358 227.0117 50.8693 227.8856 C 50.5948 228.786 50.0493 229.6265 49.5656 230.4727 C 49.3149 230.9112 48.9286 231.3033 48.6653 231.7377 C 48.4109 232.1566 48.2679 232.6122 48.0135 233.0312 C 47.7502 233.4655 47.2976 233.8391 47.1132 234.2962 C 46.9402 234.7244 46.6105 235.238 46.9581 235.6467 C 47.3288 236.0827 48.1923 236.2414 48.8869 236.3814 C 49.5421 236.5135 50.2266 236.3642 50.8932 236.4408 C 51.5598 236.5174 52.1941 236.7613 52.8607 236.8379 C 53.5274 236.9144 54.1982 236.8492 54.8671 236.8973 C 55.531 236.9448 56.2038 236.994 56.854 237.1255 C 57.524 237.2606 58.2067 237.4246 58.8022 237.6914 C 59.4234 237.97 59.7867 238.5051 60.4438 238.7352 C 61.0553 238.9498 61.7691 238.8874 62.4307 238.9634 C 63.0924 239.0394 63.7545 239.1722 64.4176 239.1916 C 65.1008 239.2119 65.7602 239.0619 66.4434 239.0822 C 67.1065 239.1016 67.7729 239.2062 68.4303 239.3104 C 69.0927 239.4152 69.7355 239.6027 70.3978 239.7075 C 71.0552 239.8117 71.7345 239.8042 72.3848 239.9357 C 73.0547 240.0708 73.663 240.3665 74.3329 240.5016 C 74.9832 240.633 75.6625 240.6255 76.3199 240.7298 C 76.9822 240.8346 77.6322 240.9948 78.2874 241.1268 C 78.9426 241.2589 79.5867 241.4615 80.255 241.5239 C 82.2507 241.71 84.2569 241.727 86.2545 241.8709 C 86.9185 241.9184 87.5841 241.9949 88.2415 242.0991 C 88.9038 242.204 89.5446 242.4007 90.209 242.4962 C 91.5271 242.6852 92.8649 242.7636 94.1829 242.9526 C 94.8473 243.0481 95.4881 243.2449 96.1504 243.3497 C 96.8078 243.4539 97.4735 243.5304 98.1374 243.5779 C 98.8063 243.626 99.4748 243.5892 100.1437 243.6373 C 100.8076 243.6848 101.4667 243.818 102.1306 243.8656 C 102.7995 243.9136 103.468 243.8864 104.137 243.925 C 105.4669 244.0018 106.8039 244.0602 108.1302 244.2126 C 108.7968 244.2892 109.4517 244.4506 110.0978 244.6096 C 110.7585 244.7724 111.376 245.0404 112.0459 245.1755 C 112.6962 245.307 113.3712 245.3277 114.0329 245.4037 C 116.0178 245.6317 118.0145 245.8187 119.9937 246.0884 C 120.6587 246.1792 121.2988 246.3806 121.9612 246.4855 C 122.6186 246.5897 123.2842 246.6662 123.9481 246.7137 C 124.617 246.7618 125.2864 246.7531 125.9545 246.7731 C 126.6226 246.793 127.2919 246.7844 127.9608 246.8325 C 128.6247 246.88 129.2875 247.069 129.9477 247.0607 C 130.6523 247.052 130.3746 246.8846 131.9928 246.7825 C 138.4648 246.3737 149.5799 249.848 151.6501 245.6536 C 159.0331 230.6879 153.1559 213.0454 156.0768 197.0369 C 158.7683 182.2979 167.4021 168.1504 168.6859 152.9863 Z "/>
  <g id="ID0.9602425838820636">
    <g id="ID0.17693647183477879">
      <path id="ID0.7729651997797191" fill="#393C40" stroke="none" stroke-linecap="round" d="M 182.9735 101.9233 L 163.9244 105.0927 L 169.0931 120.8001 L 173.1627 133.4903 L 177.4097 138.5271 L 181.0463 141.4743 L 192.7075 136.9251 L 193.475 131.1675 L 186.2594 112.738 L 182.9735 101.9233 Z " stroke-width="0.7788098927570646"/>
      <path id="ID0.9716172609478235" fill="#34373A" stroke="none" stroke-linecap="round" d="M 179.6031 107.8752 L 184.0153 105.1423 L 181.5849 99.1322 L 165.4708 110.1381 L 168.6368 112.704 L 174.0517 113.938 L 179.6031 107.8752 Z " stroke-width="0.7788098927570646"/>
      <g id="ID0.38066427363082767">
        <path id="ID0.4757494777441025" fill="#1D1E1F" stroke="none" stroke-linecap="round" d="M 171.7048 79.2696 L 163.3611 78.0883 L 148.7134 84.303 L 159.0362 107.6538 L 169.3577 111.368 L 173.7554 111.935 L 176.568 109.3572 L 178.9826 106.2501 L 184.1431 103.1981 L 183.712 97.9915 L 182.2303 90.3833 L 178.3534 82.7975 L 171.7048 79.2696 Z " stroke-width="0.45418603404838404"/>
        <path id="ID0.6007084371522069" fill="none" stroke="#0D0D0D" stroke-width="0.9083720680967681" stroke-linecap="round" d="M 183.7268 103.5841 L 179.0956 106.2383 L 175.3967 110.1648 L 173.7672 112.0479 L 169.3577 111.368 L 164.9546 109.6599 "/>
      </g>
    </g>
    <g id="ID0.7397577832452953">
      <path id="ID0.6726378230378032" fill="#34373A" stroke="none" stroke-linecap="round" d="M 192.5602 128.5174 L 178.0852 138.7252 L 179.0869 140.8129 L 193.1583 130.4907 L 192.5602 128.5174 Z " stroke-width="0.7788098927570646"/>
      <path id="ID0.6507829907350242" fill="#1D1E1F" stroke="none" stroke-linecap="round" d="M 195.8099 129.1611 L 178.8149 140.7291 L 181.088 158.6974 L 184.0788 168.5641 L 185.6808 183.862 L 185.7487 190.1194 L 197.3765 190.8595 L 196.9212 184.6426 L 197.6907 175.1652 L 199.1648 163.0691 L 199.9545 153.7853 L 195.8099 129.1611 Z " stroke-width="0.7788098927570646"/>
      <path id="ID0.6829322893172503" fill="#1D1E1F" stroke="none" stroke-linecap="round" d="M 197.7232 190.4316 L 187.3404 186.6247 L 184.7896 192.1775 L 181.5048 198.1987 L 182.0726 203.6208 L 183.1199 208.0137 L 185.3605 210.7156 L 187.3852 216.9639 L 191.8187 216.3039 L 192.7778 214.2458 L 194.3067 213.8899 L 197.1413 211.0481 L 200.1291 207.7987 L 201.6195 203.3358 L 200.1352 196.6394 L 197.7232 190.4316 Z " stroke-width="0.7788098927570646"/>
      <path id="ID0.47767175547778606" fill="none" stroke="#0D0D0D" stroke-width="1.5576197855141292" stroke-linecap="round" d="M 196.2032 132.9178 L 195.5266 129.0733 L 178.8923 140.721 L 180.5932 153.9725 "/>
      <path id="ID0.5922487881034613" fill="#282A2B" stroke="none" stroke-linecap="round" d="M 200.2163 161.4589 L 192.9565 156.816 L 187.1553 157.5018 L 181.8607 163.7726 L 184.7046 177.8441 L 189.9086 184.5425 L 193.2006 184.1978 L 198.2799 176.6183 L 200.2163 161.4589 Z " stroke-width="0.7788098927570646"/>
      <path id="ID0.36820242274552584" fill="#151616" stroke="none" stroke-linecap="round" d="M 194.5545 164.5299 L 186.4908 165.296 L 190.1906 175.9498 L 191.6154 175.7223 L 194.5545 164.5299 Z " stroke-width="0.7788098927570646"/>
      <path id="ID0.13569410238415003" fill="none" stroke="#232425" stroke-width="1.5576197855141292" stroke-linecap="round" d="M 196.2212 174.9667 L 191.513 182.3507 L 185.8257 175.8987 "/>
      <path id="ID0.024502143263816833" fill="none" stroke="#0D0D0D" stroke-width="1.5576197855141292" stroke-linecap="round" d="M 199.6672 161.1371 L 193.1371 156.7309 L 187.3809 157.0988 L 182.0088 163.3777 L 183.7125 171.4215 "/>
    </g>
  </g>
  <path id="ID0.3809091211296618" fill="#393D40" stroke="none" stroke-linecap="round" d="M 136.7353 177.9214 L 114.9863 157.2929 L 161.9883 140.6549 L 175.7147 137.7318 L 199.1389 136.5598 L 199.7916 142.2434 L 198.2979 156.5609 L 183.7588 163.2942 L 169.3047 165.5211 L 136.7353 177.9214 Z " stroke-width="0.8302534523072926"/>
  <g id="ID0.8669879510998726">
    <path id="ID0.5368814701214433" fill="#292D2E" stroke="none" stroke-linecap="round" d="M 178.0876 232.1718 L 180.8481 223.3027 L 185.2082 213.9943 L 195.2647 219.7133 L 206.6357 227.1913 L 224.2396 237.2903 L 225.4083 243.7902 L 200.7297 245.3118 L 179.4359 241.9407 L 178.0876 232.1718 Z " stroke-width="0.7702165358449906"/>
    <path id="ID0.05466862628236413" fill="#292D2E" stroke="none" stroke-linecap="round" d="M 179.672 142.9535 L 206.033 138.4703 L 201.6065 157.434 L 200.1525 162.5108 L 199.9936 180.6527 L 197.7613 221.3439 L 182.1364 223.5966 L 179.4221 201.5136 L 176.4874 192.9467 L 174.932 183.5552 L 176.6906 170.0014 L 176.3993 157.6837 L 179.672 142.9535 Z " stroke-width="0.7305889981849147"/>
    <path id="ID0.4490455654449761" fill="none" stroke="#272A2B" stroke-width="1.6585523695998627" stroke-linecap="round" d="M 179.3955 143.1017 L 205.7371 138.2324 L 199.5303 162.7951 "/>
    <path id="ID0.10446935473009944" fill="none" stroke="#242728" stroke-width="1.6585523695998627" stroke-linecap="round" d="M 199.4833 175.132 L 199.717 191.9687 L 189.3459 199.5536 "/>
    <path id="ID0.42170455446466804" fill="none" stroke="#242728" stroke-width="1.6585523695998627" stroke-linecap="round" d="M 198.6422 193.1585 L 197.5421 208.2514 L 186.9556 216.035 "/>
    <path id="ID0.047098892275244" fill="none" stroke="#242728" stroke-width="1.6585523695998627" stroke-linecap="round" d="M 176.6815 157.399 L 176.2995 161.3206 L 181.0043 170.0669 "/>
  </g>
  <g id="ID0.9602425838820636">
    <g id="ID0.17693647183477879">
      <path id="ID0.7729651997797191" fill="#3E4246" stroke="none" stroke-linecap="round" d="M 97.385 74.4444 L 113.5605 86.6177 L 101.147 98.718 L 91.2166 108.5454 L 84.8284 111.1712 L 80.0197 112.1499 L 71.3813 102.2721 L 73.4565 96.5473 L 89.0917 82.9076 L 97.385 74.4444 Z " stroke-width="0.8164595819217226"/>
      <path id="ID0.9716172609478235" fill="#393C40" stroke="none" stroke-linecap="round" d="M 97.6357 81.6105 L 94.8572 76.9325 L 100.0279 72.5219 L 109.679 90.5597 L 105.4926 91.4117 L 99.8604 89.9362 L 97.6357 81.6105 Z " stroke-width="0.8164595819217226"/>
      <g id="ID0.38066427363082767">
        <path id="ID0.4757494777441025" fill="#1D1E1F" stroke="none" stroke-linecap="round" d="M 118.9248 58.7966 L 127.2544 61.7397 L 137.8628 74.6125 L 116.955 91.3228 L 105.5597 89.7767 L 101.1963 88.1737 L 99.83 84.4147 L 99.0899 80.3564 L 95.7704 75.0192 L 98.693 70.3873 L 103.7557 64.0313 L 111.0344 58.8563 L 118.9248 58.7966 Z " stroke-width="0.4761425372359981"/>
        <path id="ID0.6007084371522069" fill="none" stroke="#0D0D0D" stroke-width="0.9522850744719962" stroke-linecap="round" d="M 95.9704 75.5798 L 98.9907 80.2907 L 100.5278 85.7329 L 101.1306 88.273 L 105.5597 89.7767 L 110.4808 90.3212 "/>
      </g>
    </g>
    <g id="ID0.7397577832452953">
      <path id="ID0.6726378230378032" fill="#393C40" stroke="none" stroke-linecap="round" d="M 75.6442 94.4023 L 84.1579 110.904 L 82.2154 112.3598 L 74.1323 95.9472 L 75.6442 94.4023 Z " stroke-width="0.8164595819217226"/>
      <path id="ID0.6507829907350242" fill="#1D1E1F" stroke="none" stroke-linecap="round" d="M 72.2575 93.551 L 82.4553 112.5379 L 71.6388 128.1428 L 64.079 135.8676 L 55.1799 149.3147 L 52.0859 155.0995 L 40.9166 150.1556 L 44.3511 144.596 L 48.2262 135.4118 L 52.7146 123.4515 L 56.477 114.4375 L 72.2575 93.551 Z " stroke-width="0.8164595819217226"/>
      <path id="ID0.6829322893172503" fill="#1D1E1F" stroke="none" stroke-linecap="round" d="M 40.8015 149.5898 L 52.2987 151.0794 L 51.9807 157.4776 L 52.1183 164.6668 L 48.9642 169.4329 L 45.8627 173.0099 L 42.4708 174.4367 L 37.562 179.2653 L 33.7596 176.5042 L 33.8648 174.1262 L 32.6157 173.0548 L 31.3566 169.0396 L 30.1527 164.5714 L 30.9287 159.7002 L 35.5522 154.1932 L 40.8015 149.5898 Z " stroke-width="0.8164595819217226"/>
      <path id="ID0.47767175547778606" fill="none" stroke="#0D0D0D" stroke-width="1.6329191638434453" stroke-linecap="round" d="M 70.0722 96.8532 L 72.5634 93.6066 L 82.3872 112.4929 L 74.3873 123.9895 "/>
      <path id="ID0.5922487881034613" fill="#282A2B" stroke="none" stroke-linecap="round" d="M 52.7387 121.3415 L 61.7372 120.5411 L 66.7986 123.9886 L 68.6839 132.3834 L 59.2242 144.0888 L 51.1413 147.7959 L 48.2476 145.8809 L 47.1964 136.3737 L 52.7387 121.3415 Z " stroke-width="0.8164595819217226"/>
      <path id="ID0.36820242274552584" fill="#151616" stroke="none" stroke-linecap="round" d="M 56.4411 127.1459 L 63.5672 131.7639 L 54.967 139.8772 L 53.7525 138.9755 L 56.4411 127.1459 Z " stroke-width="0.8164595819217226"/>
      <path id="ID0.13569410238415003" fill="none" stroke="#232425" stroke-width="1.6329191638434453" stroke-linecap="round" d="M 49.6886 135.939 L 50.4895 145.0847 L 58.9023 141.8407 "/>
      <path id="ID0.024502143263816833" fill="none" stroke="#0D0D0D" stroke-width="1.6329191638434453" stroke-linecap="round" d="M 53.1832 121.4119 L 61.3887 120.4783 L 66.5623 123.6084 L 68.5157 132.0482 L 63.0356 138.7017 "/>
    </g>
  </g>
  <g id="ID0.9157347986474633">
    <path id="ID0.7477802094072104" fill="#363A3D" stroke="none" stroke-linecap="round" d="M 163.8645 126.8352 L 146.5944 117.173 L 132.3537 155.8191 L 144.904 169.9582 L 155.5271 147.7396 L 163.8645 126.8352 Z " stroke-width="0.4761425793065096"/>
    <path id="ID0.7477802094072104" fill="#363A3D" stroke="none" stroke-linecap="round" d="M 107.255 106.0191 L 130.2464 111.4466 L 116.0057 150.0927 L 97.2817 152.7076 L 100.8282 127.2469 L 107.255 106.0191 Z " stroke-width="0.4761425793065096"/>
    <path id="ID0.4270821204409003" fill="#3E4246" stroke="none" stroke-linecap="round" d="M 114.4026 87.2679 L 122.2984 76.8571 L 126.4374 72.1661 L 135.0088 67.8399 L 163.667 79.9225 L 168.6636 86.3306 L 169.9448 91.116 L 172.5836 104.2669 L 168.2915 113.849 L 165.5047 118.6577 L 164.6812 125.7121 L 163.2347 131.0147 L 158.8371 136.7521 L 155.5071 141.1068 L 151.1798 149.4074 L 145.0141 170.4776 L 137.349 176.4064 L 130.7104 180.5823 L 117.4632 181.4856 L 107.6296 174.6398 L 106.2651 166.9821 L 103.8411 159.2384 L 96.8916 153.3792 L 104.5861 129.1934 L 105.774 122.5269 L 105.4361 110.2239 L 107.9529 99.607 L 114.4026 87.2679 Z " stroke-width="0.4761425793065096"/>
    <path id="ID0.052435632329434156" fill="#393C40" stroke="none" stroke-linecap="round" d="M 108.6645 138.319 L 112.8253 139.903 L 117.8772 145.2659 L 122.693 146.8629 L 127.5933 150.5715 L 131.8953 151.015 L 133.6237 151.1444 L 148.137 152.8643 L 147.3362 156.0705 L 137.8537 157.0164 L 132.376 154.6681 L 126.0727 155.593 L 121.0362 149.982 L 114.8565 148.1616 L 106.903 141.1713 L 108.6645 138.319 Z " stroke-width="0.4761425793065096"/>
    <path id="ID0.4987568911164999" fill="none" stroke="#27282B" stroke-width="0.9522851586130192" stroke-linecap="round" d="M 134.6074 68.4408 L 126.4357 72.0263 L 119.851 80.2561 "/>
    <path id="ID0.2889464790932834" fill="none" stroke="#27282B" stroke-width="0.9522851586130192" stroke-linecap="round" d="M 164.7176 81.0584 L 168.7618 86.6082 L 170.9128 97.2959 "/>
    <path id="ID0.8373676878400147" fill="#000000" stroke="#2C2F31" stroke-width="0.6155103849940785" stroke-linecap="round" d="M 133.5399 81.9059 L 134.3922 80.5883 L 130.6618 80.1879 L 124.9523 81.6522 L 119.3355 84.9735 L 115.0945 89.4184 L 120.6938 89.0689 L 125.1428 90.581 L 127.4069 92.3871 L 128.7636 96.0681 L 131.0915 95.8309 L 134.9533 96.9452 L 138.8345 99.4738 L 141.3509 103.7792 L 142.25 107.362 L 145.314 105.2646 L 149.8654 103.5903 L 154.2232 103.6598 L 159.0732 105.4133 L 160.592 106.5935 L 163.255 104.2548 L 165.5248 103.7463 L 167.7874 105.138 L 169.8683 107.6162 L 169.8245 103.5445 L 169.0221 99.0899 L 167.3792 95.2956 L 165.1671 92.1035 L 161.2292 89.7179 L 162.6245 92.2558 L 161.9734 93.9013 L 159.75 95.3383 L 155.9778 95.2523 L 152.9031 94.4494 L 150.414 93.63 L 149.2838 89.3766 L 148.1617 91.1667 L 146.8024 90.6289 L 146.1776 87.8166 L 143.8337 91.44 L 139.9571 90.1543 L 136.4052 87.8388 L 133.7386 85.377 L 133.5399 81.9059 Z "/>
    <path id="ID0.5698574706912041" fill="none" stroke="#313537" stroke-width="0.9522851586130192" stroke-linecap="round" d="M 108.6551 138.1379 L 106.9853 140.9479 L 114.8154 148.2733 L 121.3054 150.2842 L 125.8905 155.399 "/>
    <path id="ID0.5698574706912041" fill="none" stroke="#313537" stroke-width="0.8933066447871894" stroke-linecap="round" d="M 147.8483 152.7965 L 147.2238 155.9916 L 137.7017 156.9229 L 132.2752 154.5427 L 126.1982 155.7286 "/>
    <path id="ID0.8947288258932531" fill="#393C40" stroke="none" stroke-linecap="round" d="M 114.016 127.3766 L 120.6471 129.6933 L 127.0699 134.0898 L 130.4768 141.2315 L 125.3345 134.6681 L 115.756 129.5401 L 109.9077 130.6073 L 114.016 127.3766 Z " stroke-width="0.4761425793065096"/>
    <path id="ID0.8947288258932531" fill="#393C40" stroke="none" stroke-linecap="round" d="M 149.9787 141.6668 L 144.1832 139.4189 L 137.3335 138.6912 L 130.9384 141.5439 L 138.17 140.0772 L 147.5646 142.1244 L 150.8899 146.2014 L 149.9787 141.6668 Z " stroke-width="0.42137390413238834"/>
    <path id="ID0.9897695370018482" fill="#393C40" stroke="none" stroke-linecap="round" d="M 113.0158 140.0747 L 107.0373 137.3642 L 109.0446 133.1563 L 108.9514 136.8517 L 113.6825 138.7473 L 118.2359 144.1548 L 123.4973 145.713 L 126.8456 148.4692 L 130.8577 141.5748 L 127.6897 150.8607 L 123.1315 147.0498 L 117.6139 145.0166 L 113.0158 140.0747 Z " stroke-width="0.4761425793065096"/>
    <path id="ID0.9897695370018482" fill="#393C40" stroke="none" stroke-linecap="round" d="M 143.2101 151.4305 L 148.5584 152.9294 L 149.7112 148.7528 L 147.6413 151.4588 L 143.5525 150.0937 L 137.553 151.3516 L 133.3228 149.4389 L 129.6141 149.4881 L 131.0447 142.2283 L 127.7017 150.7183 L 132.7843 150.6091 L 137.4506 152.3285 L 143.2101 151.4305 Z " stroke-width="0.4232251091752223"/>
    <path id="ID0.3524594851769507" fill="#393C40" stroke="none" stroke-linecap="round" d="M 134.7466 111.0767 L 139.5293 115.1733 L 144.5133 114.5234 L 140.2252 117.0028 L 137.2664 127.7866 L 146.0738 130.1187 L 135.0546 129.864 L 125.7303 121.4298 L 134.1225 126.6789 L 137.6445 115.9503 L 134.7466 111.0767 Z " stroke-width="0.4761425793065096"/>
    <path id="ID0.9214867809787393" fill="#393C40" stroke="none" stroke-linecap="round" d="M 115.3577 123.7354 L 119.6071 120.8104 L 124.4041 121.5632 L 117.2848 124.0142 L 116.0489 126.6795 L 120.7682 128.4693 L 127.3192 134.3085 L 119.556 129.4181 L 114.0607 127.3931 L 115.3577 123.7354 Z " stroke-width="0.4761425793065096"/>
    <path id="ID0.9214867809787393" fill="#393C40" stroke="none" stroke-linecap="round" d="M 151.0915 137.6719 L 149.9264 132.9569 L 146.1517 130.5974 L 149.5895 136.7068 L 148.8277 139.4043 L 144.4777 137.8499 L 137.2602 138.2169 L 144.7408 139.2785 L 149.7701 141.1318 L 151.0915 137.6719 Z " stroke-width="0.44517885822810954"/>
    <path id="ID0.8679121839813888" fill="#2C2F31" stroke="none" stroke-linecap="round" d="M 137.0123 110.7576 L 140.0268 113.5937 L 143.7222 113.2048 L 144.2865 114.4276 L 139.6786 115.5713 L 135.0464 111.4794 L 137.0123 110.7576 Z " stroke-width="0.4761425793065096"/>
    <path id="ID0.24770551454275846" fill="none" stroke="#313537" stroke-width="0.9522851586130192" stroke-linecap="round" d="M 141.3206 110.3744 L 144.442 115.3303 L 151.314 118.3701 L 158.8329 119.999 L 165.0644 118.2357 "/>
    <path id="ID0.20603158557787538" fill="none" stroke="#313537" stroke-width="0.9522851586130192" stroke-linecap="round" d="M 111.4788 95.0583 L 116.2166 102.5129 L 126.7214 109.809 L 133.7406 111.7612 L 140.9068 110.2155 "/>
    <g id="ID0.5272086253389716">
      <path id="ID0.24770551454275846" fill="none" stroke="#363A3D" stroke-width="0.9522851026846784" stroke-linecap="round" d="M 103.5267 126.7324 L 113.9144 127.1857 "/>
      <path id="ID0.24770551454275846" fill="none" stroke="#363A3D" stroke-width="0.9522851026846784" stroke-linecap="round" d="M 105.1993 114.6534 L 126.5144 115.8857 "/>
    </g>
    <g id="ID0.5272086253389716">
      <path id="ID0.24770551454275846" fill="none" stroke="#363A3D" stroke-width="0.9522850502056919" stroke-linecap="round" d="M 155.8934 144.9736 L 150.0164 140.8552 "/>
      <path id="ID0.24770551454275846" fill="none" stroke="#363A3D" stroke-width="0.9522850502056919" stroke-linecap="round" d="M 160.2767 134.3939 L 148.9038 125.1292 "/>
    </g>
    <g id="ID0.7887678607366979">
      <path id="ID0.753661650698632" fill="none" stroke="#313537" stroke-width="0.9522851026846784" stroke-linecap="round" d="M 135.1522 111.353 L 139.2435 115.3978 L 143.9466 114.34 "/>
      <g id="ID0.8167418288066983">
        <path id="ID0.9553722990676761" fill="none" stroke="#313537" stroke-width="1.0409107538714453" stroke-linecap="round" d="M 134.6434 129.55 L 130.1176 125.5988 L 124.9829 121.677 L 120.177 120.9209 L 115.4037 123.729 L 114.2101 126.9681 "/>
        <path id="ID0.5982440118677914" fill="none" stroke="#313537" stroke-width="0.8540413570941988" stroke-linecap="round" d="M 125.4525 121.3629 L 126.1658 115.9845 L 133.5206 111.173 "/>
      </g>
      <g id="ID0.7324484633281827">
        <path id="ID0.04993448918685317" fill="none" stroke="#313537" stroke-width="0.9522851026846784" stroke-linecap="round" d="M 139.2847 115.2861 L 136.3329 125.3621 L 131.0999 140.9405 L 125.6846 156.3249 "/>
        <g id="ID0.8167418288066983">
          <path id="ID0.9553722990676761" fill="none" stroke="#313537" stroke-width="0.969970334519266" stroke-linecap="round" d="M 135.0206 129.5021 L 140.2147 129.9698 L 145.9687 130.0603 L 149.5768 132.4048 L 150.9902 137.4926 L 149.7966 140.7317 "/>
          <path id="ID0.5982440118677914" fill="none" stroke="#313537" stroke-width="0.7916616321563681" stroke-linecap="round" d="M 145.8464 129.6677 L 148.659 125.0629 L 146.7767 116.8476 "/>
          <path id="ID0.3567589442245662" fill="none" stroke="#313537" stroke-width="0.8967655306691669" stroke-linecap="round" d="M 130.7399 141.4908 L 137.274 138.5958 L 144.8093 139.3427 L 149.9964 141.2541 L 150.4935 146.3848 L 148.3402 153.0761 L 142.8866 151.8277 L 136.5116 152.7769 L 131.9767 150.8521 L 127.3936 151.1169 L 122.7762 146.7514 L 117.4479 145.0417 L 112.4861 139.9149 L 106.8191 137.0655 L 109.5618 130.5914 L 113.564 127.1187 L 119.4583 129.2907 L 126.6196 133.9593 L 130.3613 140.6409 Z "/>
        </g>
      </g>
    </g>
    <g id="ID0.9312638868577778">
      <path id="ID0.2888958193361759" fill="#393C40" stroke="none" stroke-linecap="round" d="M 108.1884 146.7763 L 117.0546 152.2648 L 115.4883 154.7951 L 106.622 149.3067 L 108.1884 146.7763 Z " stroke-width="0.4761425547091017"/>
      <path id="ID0.2888958193361759" fill="#393C40" stroke="none" stroke-linecap="round" d="M 98.7377 141.1359 L 108.6546 147.4148 L 107.0883 149.9451 L 98.222 144.4567 L 98.7377 141.1359 Z " stroke-width="0.4761425547091017"/>
      <g id="ID0.36424446757882833">
        <path id="ID0.7359844641759992" fill="#8A7B59" stroke="none" d="M 111.1273 147.081 L 112.557 147.6078 L 110.4003 153.4606 L 108.9706 152.9338 L 111.1273 147.081 Z " stroke-width="0.4761425513423392"/>
        <path id="ID0.7359844641759992" fill="#8A7B59" stroke="none" d="M 109.5273 146.081 L 110.957 146.6078 L 108.8003 152.4606 L 107.3706 151.9338 L 109.5273 146.081 Z " stroke-width="0.4761425513423392"/>
        <path id="ID0.7359844641759992" fill="#8A7B59" stroke="none" d="M 107.8773 144.731 L 109.307 145.2578 L 107.1503 151.1106 L 105.7206 150.5838 L 107.8773 144.731 Z " stroke-width="0.4761425513423392"/>
        <path id="ID0.7359844641759992" fill="#8A7B59" stroke="none" d="M 112.7273 148.181 L 114.157 148.7078 L 112.0003 154.5606 L 110.5706 154.0338 L 112.7273 148.181 Z " stroke-width="0.4761425513423392"/>
      </g>
      <g id="ID0.1049797898158431">
        <path id="ID0.08871637750416994" fill="#8A7B59" stroke="none" stroke-linecap="round" d="M 100.727 141.0707 L 106.3739 144.2679 L 104.3948 149.501 L 98.9795 146.3638 L 100.727 141.0707 Z " stroke-width="0.4761425513423392"/>
        <path id="ID0.13805592898279428" fill="#76694C" stroke="none" stroke-linecap="round" d="M 100.5563 140.7223 L 106.4936 144.0265 L 105.5869 146.7624 L 99.6602 143.3606 L 100.5563 140.7223 Z " stroke-width="0.4761425513423392"/>
        <path id="ID0.3221200187690556" fill="#61563F" stroke="none" stroke-linecap="round" d="M 102.4665 143.8341 L 103.1658 144.4773 L 102.631 146.1528 L 101.8501 145.507 L 102.4665 143.8341 Z " stroke-width="0.5167888569280765"/>
        <path id="ID0.1420820001512766" fill="#BAA578" stroke="none" stroke-linecap="round" d="M 103.9913 148.3572 L 105.1554 147.2638 L 104.4016 149.4472 L 98.8723 146.344 L 103.9913 148.3572 Z " stroke-width="0.4761425513423392"/>
      </g>
      <path id="ID0.2888958193361759" fill="#393C40" stroke="none" stroke-linecap="round" d="M 143.3831 160.0623 L 135.7906 159.1968 L 135.3191 161.7263 L 142.9116 162.5917 L 143.3831 160.0623 Z " stroke-width="0.3810470018996758"/>
      <path id="ID0.2888958193361759" fill="#393C40" stroke="none" stroke-linecap="round" d="M 150.1259 160.6442 L 142.8906 160.0468 L 142.4191 162.5763 L 148.7228 163.2328 L 150.1259 160.6442 Z " stroke-width="0.3810470018996758"/>
      <path id="ID0.7359844641759992" fill="#8A7B59" stroke="none" d="M 141.7803 158.4417 L 140.7416 158.059 L 138.8655 163.1503 L 139.9042 163.5331 L 141.7803 158.4417 Z " stroke-width="0.381602802718986"/>
      <path id="ID0.7359844641759992" fill="#8A7B59" stroke="none" d="M 143.2803 158.4417 L 142.2416 158.059 L 140.3655 163.1503 L 141.4042 163.5331 L 143.2803 158.4417 Z " stroke-width="0.381602802718986"/>
      <path id="ID0.7359844641759992" fill="#8A7B59" stroke="none" d="M 144.8303 158.4917 L 143.7916 158.109 L 141.9155 163.2003 L 142.9542 163.5831 L 144.8303 158.4917 Z " stroke-width="0.381602802718986"/>
      <path id="ID0.7359844641759992" fill="#8A7B59" stroke="none" d="M 140.2803 158.4417 L 139.2416 158.059 L 137.3655 163.1503 L 138.4042 163.5331 L 140.2803 158.4417 Z " stroke-width="0.381602802718986"/>
      <g id="ID0.1049797898158431">
        <path id="ID0.08871637750416994" fill="#8A7B59" stroke="none" stroke-linecap="round" d="M 150.6821 159.7299 L 145.7084 158.929 L 143.9549 163.7938 L 148.7638 164.5105 L 150.6821 159.7299 Z " stroke-width="0.4054529741088901"/>
        <path id="ID0.13805592898279428" fill="#76694C" stroke="none" stroke-linecap="round" d="M 150.9817 159.6005 L 145.7838 158.717 L 144.7942 161.1899 L 150.0398 161.9972 L 150.9817 159.6005 Z " stroke-width="0.4054529741088901"/>
        <path id="ID0.3221200187690556" fill="#61563F" stroke="none" stroke-linecap="round" d="M 148.3129 160.7928 L 147.5609 160.872 L 146.9433 162.3752 L 147.7431 162.339 L 148.3129 160.7928 Z " stroke-width="0.4400648186213347"/>
        <path id="ID0.1420820001512766" fill="#BAA578" stroke="none" stroke-linecap="round" d="M 144.7972 163.2046 L 144.7364 161.7752 L 143.9639 163.7652 L 148.8189 164.5693 L 144.7972 163.2046 Z " stroke-width="0.4054529741088901"/>
      </g>
      <g id="ID0.6836685389280319">
        <path id="ID0.09357938077300787" fill="#857656" stroke="none" d="M 118.4738 149.7057 L 135.3395 155.9206 L 133.117 161.9521 L 116.2512 155.7372 L 118.4738 149.7057 Z " stroke-width="0.42833208123276656"/>
        <path id="ID0.6492703901603818" fill="#7C6E50" stroke="none" stroke-linecap="round" d="M 118.4705 152.0559 L 125.1073 157.7998 L 134.4651 157.9497 L 132.9916 161.9484 L 116.9971 156.0545 L 118.4705 152.0559 Z " stroke-width="0.4761425513423392"/>
        <g id="ID0.9254062357358634">
          <g id="ID0.49943465692922473">
            <path id="ID0.140373723115772" fill="#968561" stroke="none" d="M 134.3972 154.3298 L 139.2 156.0996 L 136.072 164.5884 L 131.2692 162.8186 L 134.3972 154.3298 Z " stroke-width="0.4761425513423392"/>
            <path id="ID0.8286363878287375" fill="#BAA578" stroke="none" stroke-linecap="round" d="M 134.4077 154.135 L 139.2399 156.1693 L 135.0895 155.4519 L 133.3881 157.1084 L 134.4077 154.135 Z " stroke-width="0.4761425513423392"/>
            <path id="ID0.7362233307212591" fill="#8A7B59" stroke="none" stroke-linecap="round" d="M 132.3227 159.8619 L 134.8528 160.845 L 137.9934 159.4143 L 136.0589 164.6639 L 131.2114 162.8777 L 132.3227 159.8619 Z " stroke-width="0.4761425513423392"/>
          </g>
          <g id="ID0.49943465692922473">
            <path id="ID0.140373723115772" fill="#968561" stroke="none" d="M 120.1202 149.2972 L 115.3173 147.5274 L 112.1893 156.0161 L 116.9921 157.7859 L 120.1202 149.2972 Z " stroke-width="0.4761425513423392"/>
            <path id="ID0.8286363878287375" fill="#BAA578" stroke="none" stroke-linecap="round" d="M 120.2445 149.1548 L 115.2476 147.5672 L 118.8712 149.7144 L 119.0909 152.0788 L 120.2445 149.1548 Z " stroke-width="0.4761425513423392"/>
            <path id="ID0.7362233307212591" fill="#8A7B59" stroke="none" stroke-linecap="round" d="M 118.1148 154.8653 L 115.5518 153.9716 L 114.0905 150.8451 L 112.1561 156.0948 L 117.0036 157.881 L 118.1148 154.8653 Z " stroke-width="0.4761425513423392"/>
          </g>
        </g>
      </g>
    </g>
  </g>
  <g id="ID0.8333355090580881">
    <path id="ID0.9286923445761204" fill="#27282B" stroke="none" stroke-linecap="round" d="M 151.9904 37.8768 L 169.2877 45.4073 L 161.7931 68.5851 L 173.8664 80.3068 L 148.5573 83.5862 L 117.9926 59.7664 L 140.2401 56.2364 L 151.9904 37.8768 Z " stroke-width="0.4761425809350073"/>
    <path id="ID0.5448851804248989" fill="none" stroke="#1D1E1F" stroke-width="0.9522851618700146" stroke-linecap="round" d="M 143.4697 51.2562 L 140.4822 56.1185 L 154.0779 69.1211 L 161.492 68.5819 "/>
    <path id="ID0.262191956397146" fill="none" stroke="#1D1E1F" stroke-width="0.9522851618700146" stroke-linecap="round" d="M 144.465 56.8381 L 154.4634 66.8364 L 157.664 66.7572 "/>
  </g>
  <g id="ID0.3450673264451325">
    <g id="ID0.9831569031812251">
      <path id="ID0.0877610077150166" fill="#2E3034" stroke="none" stroke-linecap="round" d="M 178.8423 15.8562 L 175.7654 2.3106 L 172.5753 30.6602 L 180.1985 31.5181 L 178.8423 15.8562 Z " stroke-width="0.5866066551382524"/>
      <path id="ID0.796130308881402" fill="#242628" stroke="none" stroke-linecap="round" d="M 179.1054 15.948 L 175.6751 2.3626 L 177.6617 16.5115 L 176.9309 31.4106 L 180.1192 31.4724 L 179.1054 15.948 Z " stroke-width="0.5866066551382524"/>
    </g>
    <g id="ID0.9831569031812251">
      <path id="ID0.0877610077150166" fill="#2E3034" stroke="none" stroke-linecap="round" d="M 155.066 13.4178 L 161.0763 0.8948 L 157.8862 29.2445 L 150.263 28.3866 L 155.066 13.4178 Z " stroke-width="0.5866066551382524"/>
      <path id="ID0.796130308881402" fill="#242628" stroke="none" stroke-linecap="round" d="M 154.6609 13.3752 L 161.0247 0.8919 L 155.9434 14.2454 L 153.2299 28.5914 L 150.2224 28.286 L 154.6609 13.3752 Z " stroke-width="0.5866066551382524"/>
    </g>
    <path id="ID0.8999492498114705" fill="#2E3034" stroke="none" stroke-linecap="round" d="M 171.7743 21.1896 C 176.0972 22.1582 180.4963 25.3807 182.181 29.4777 C 184.103 34.1551 181.5414 39.5007 181.2806 44.4984 C 181.2623 46.2106 181.8539 48.0409 181.3436 49.618 C 180.3047 52.8257 178.3026 55.6484 176.8707 58.7005 C 175.9324 60.7007 175.5156 63.0234 174.1412 64.7839 C 172.5817 66.8752 170.8969 69.8395 168.2627 70.0017 C 164.3574 70.2417 160.5123 67.9562 157.2806 65.8263 C 154.6259 64.0761 152.2364 61.5813 150.9819 58.6502 C 148.7552 53.2223 146.8432 47.3114 147.118 41.4211 C 147.4228 34.8915 147.5594 26.7899 152.8107 22.6344 C 157.5441 18.5971 165.3475 19.7528 171.7743 21.1896 Z " stroke-width="0.5080372740651576"/>
    <path id="ID0.2441388238221407" fill="#AB8E85" stroke="none" d="M 166.8939 45.5574 C 170.9299 46.1796 176.6887 43.6429 179.0897 46.677 C 181.2397 49.526 177.3491 53.9803 175.996 57.3236 C 174.6487 60.6486 173.5468 64.2868 171.0039 66.872 C 169.8013 68.0131 167.5819 67.8353 165.8926 67.371 C 162.8554 66.5326 159.9564 64.9148 157.5783 62.8451 C 155.1173 60.7041 151.8187 58.2907 151.6115 55.022 C 151.3495 50.8815 152.613 45.5945 156.0796 43.3926 C 159.2463 41.4856 163.2642 44.9973 166.8939 45.5574 Z " stroke-width="1.255840093333544"/>
    <path id="ID0.46721756737679243" fill="#A2887F" stroke="none" stroke-linecap="round" d="M 152.1432 45.0744 L 153.7325 45.9434 L 179.6235 48.4734 L 171.8865 52.7153 L 155.5272 48.3949 L 156.3709 50.8926 L 155.9956 56.4996 L 158.8014 64.0495 L 155.0048 56.8994 L 152.1432 45.0744 Z " stroke-width="0.5080372740651576"/>
    <path id="ID0.8256730306893587" fill="none" stroke="#937B73" stroke-width="1.0160745481303153" stroke-linecap="round" d="M 161.6356 58.0372 C 161.6356 58.0372 164.3846 57.7463 165.7625 57.7091 C 166.1071 57.6999 166.4346 57.8149 166.7637 57.8985 C 167.0981 57.9837 167.4065 58.1871 167.7506 58.214 C 168.4327 58.2678 169.1196 58.1467 169.8041 58.1384 C 170.1436 58.1341 170.4856 58.1343 170.8223 58.1763 C 171.1596 58.2183 171.5002 58.2771 171.8207 58.3908 C 172.3477 58.578 173.3542 59.0746 173.3542 59.0746 "/>
    <path id="ID0.7592270169407129" fill="none" stroke="#937B73" stroke-width="1.0160745481303153" stroke-linecap="round" d="M 170.0587 60.2558 C 170.0587 60.2558 169.4022 60.5291 169.054 60.5517 C 168.7161 60.5741 168.3885 60.3915 168.05 60.3876 C 167.7094 60.3841 167.3776 60.5247 167.0371 60.5293 C 166.6986 60.5341 166.3467 60.5273 166.0274 60.4157 C 165.7559 60.3207 165.3156 59.9266 165.3156 59.9266 "/>
    <path id="ID0.5332203092984855" fill="none" stroke="#937B73" stroke-width="1.0160745481303153" stroke-linecap="round" d="M 165.2137 50.2262 C 165.2137 50.2262 164.5636 50.5876 164.4217 50.9039 C 164.2359 51.3283 163.8885 52.1394 164.2932 52.4999 C 164.8378 52.8531 165.6729 52.2154 166.3553 52.3485 C 167.0153 52.48 168.2674 53.0749 168.2674 53.0749 "/>
    <path id="ID0.2278452254831791" fill="none" stroke="#937B73" stroke-width="1.0160745481303153" stroke-linecap="round" d="M 169.9392 47.0769 C 169.9392 47.0769 170.6594 49.0322 171.0151 50.0098 C 171.1342 50.3372 171.2696 50.6602 171.3644 50.995 C 171.4591 51.3297 171.6342 51.6726 171.5817 52.0163 C 171.5291 52.3611 171.2882 52.6581 171.0699 52.9301 C 170.9242 53.1121 170.5111 53.3529 170.5111 53.3529 "/>
    <path id="ID0.6473136460408568" fill="none" stroke="#937B73" stroke-width="1.0160745573675745" stroke-linecap="round" d="M 168.2971 63.9223 C 168.2971 63.9223 168.541 64.5885 168.553 64.9366 C 168.5643 65.2755 168.4657 65.6142 168.3654 65.9381 C 168.2144 66.4263 167.8016 67.3653 167.8016 67.3653 "/>
    <path id="ID0.11669129692018032" fill="#2E3034" stroke="none" stroke-linecap="round" d="M 154.6581 39.9894 L 177.5562 44.3554 L 181.1706 47.4461 L 171.3054 51.065 L 151.0167 46.2258 L 154.6581 39.9894 Z " stroke-width="0.5080372740651576"/>
    <path id="ID0.14635155349969864" fill="#2E3034" stroke="none" stroke-linecap="round" d="M 151.4197 44.9163 L 153.2198 45.5023 L 155.2627 50.9724 L 154.9209 56.7366 L 156.3123 60.7275 L 158.7951 64.56 L 151.1988 58.465 L 151.4197 44.9163 Z " stroke-width="0.5080372740651576"/>
    <path id="ID0.28340246016159654" fill="#1C1D1F" stroke="none" stroke-linecap="round" d="M 155.0818 36.8577 L 158.3179 38.7709 L 167.8254 40.7375 L 167.1822 46.4535 L 160.3911 44.7382 L 156.6744 43.233 L 154.8308 41.5037 L 154.1653 39.6896 L 155.0818 36.8577 Z " stroke-width="0.5401026632648769"/>
    <path id="ID0.6101007834076881" fill="#FFFFFF" stroke="none" stroke-linecap="round" d="M 158.6385 39.8563 L 160.2362 40.4384 L 163.8581 42.0547 L 164.1793 44.0716 L 159.12 42.0402 L 158.6385 39.8563 Z " stroke-width="0.40610618625693395"/>
    <path id="ID0.28340246016159654" fill="#1C1D1F" stroke="none" stroke-linecap="round" d="M 180.5991 39.7312 L 177.4065 40.7532 L 168.7506 40.5789 L 168.177 45.676 L 174.4213 45.5305 L 177.9511 44.9584 L 179.8966 43.8202 L 180.8347 42.3749 L 180.5991 39.7312 Z " stroke-width="0.48162495880594886"/>
    <path id="ID0.6101007834076881" fill="#FFFFFF" stroke="none" stroke-linecap="round" d="M 178.6868 41.5842 L 177.1 41.9001 L 173.46 42.8954 L 172.8658 44.7454 L 177.9176 43.5681 L 178.6868 41.5842 Z " stroke-width="0.3863867636036148"/>
    <g id="ID0.07940126257017255">
      <path id="ID0.46257128613069654" fill="#27282B" stroke="none" stroke-linecap="round" d="M 168.0438 40.6099 L 171.2468 50.9907 L 161.4181 48.6066 L 168.0438 40.6099 Z " stroke-width="0.5080372740651576"/>
      <path id="ID0.9845890481956303" fill="#27282B" stroke="none" stroke-linecap="round" d="M 168.9044 40.8256 L 176.3098 49.0719 L 171.3811 51.0735 L 168.9044 40.8256 Z " stroke-width="0.5080372740651576"/>
    </g>
    <path id="ID0.20071752788498998" fill="#202324" stroke="none" d="M 160.2209 35.1363 L 164.0486 38.1488 L 168.6383 39.8411 L 168.5578 41.2379 L 160.9756 39.1066 L 155.3806 36.1253 L 157.2959 34.5515 L 160.2209 35.1363 Z " stroke-width="0.5080372740651576"/>
    <path id="ID0.20071752788498998" fill="#202324" stroke="none" d="M 177.2053 36.729 L 173.8979 38.8193 L 168.5126 39.7846 L 168.2998 41.0505 L 175.5166 40.69 L 181.1394 39.2823 L 179.861 36.8871 L 177.2053 36.729 Z " stroke-width="0.46609799300929616"/>
    <path id="ID0.521138689480722" fill="none" stroke="#212325" stroke-width="0.906062702133695" stroke-linecap="round" d="M 180.7094 39.493 L 177.3133 40.7065 L 168.6879 40.9896 "/>
    <path id="ID0.17828734638169408" fill="none" stroke="#202324" stroke-width="1.0160745481303153" stroke-linecap="round" d="M 171.2669 50.4983 L 169.1735 42.9775 C 168.4495 40.4615 168.5333 41.043 168.4539 40.0591 C 168.4261 39.7155 168.6803 39.4057 168.7694 39.0722 C 168.857 38.7436 168.9586 38.413 168.984 38.0738 C 169.0098 37.7311 168.9489 37.3863 168.9209 37.0442 C 168.8773 36.5102 168.7689 35.4423 168.7689 35.4423 "/>
    <path id="ID0.521138689480722" fill="none" stroke="#212325" stroke-width="1.0160745481303153" stroke-linecap="round" d="M 155.4341 36.411 L 158.845 38.5841 L 168.2052 41.0433 "/>
    <path id="ID0.8012696979567409" fill="none" stroke="url(#grad_1)" stroke-width="1.0160745481303153" stroke-linecap="round" d="M 179.6746 48.0191 L 171.8159 51.0713 L 153.5997 46.6698 L 155.1368 50.7282 L 154.758 56.8205 L 156.2731 60.6208 L 158.7446 64.5543 "/>
    <path id="ID0.043594349175691605" fill="#D7E2FD" stroke="none" stroke-linecap="round" d="M 163.4915 43.0021 L 163.8436 41.917 L 164.1184 44.0185 L 161.626 42.9967 L 163.4915 43.0021 Z " stroke-width="0.5080372740651576"/>
    <path id="ID0.043594349175691605" fill="#D7E2FD" stroke="none" stroke-linecap="round" d="M 173.6806 43.971 L 173.5292 42.9449 L 172.9647 44.7871 L 175.3536 44.2486 L 173.6806 43.971 Z " stroke-width="0.4618642640535775"/>
  </g>
  <path id="ID0.21634112810716033" fill="#0D0D0D" stroke="#0D0D0D" stroke-width="3.367889400398053" stroke-linecap="round" d="M 78.7784 160.3293 C 72.1524 154.305 75.2759 149.3923 73.5678 144.9966 C 73.1093 143.7761 72.0866 146.7174 71.475 147.72 C 70.7902 148.8401 70.3859 150.2391 69.6888 151.3453 C 64.9465 158.7862 64.3127 160.8869 62.6072 163.8127 C 62.0149 164.841 61.0688 165.4764 60.5144 166.5361 C 59.9885 167.5418 59.9306 168.9258 59.4046 169.9315 C 58.8502 170.9912 58.0948 171.8636 57.3119 172.6549 C 56.5897 173.3852 55.5099 173.5872 54.9126 174.4763 C 54.2978 175.3895 54.2231 176.7771 53.8028 177.8717 C 52.8887 180.2489 52.2319 182.8947 50.9067 184.8924 C 49.0373 187.7089 46.4726 189.6832 44.3219 192.1606 C 43.5819 193.0117 43.0121 194.0927 42.2292 194.884 C 41.507 195.6143 40.5904 196.0345 39.8299 196.7054 C 37.4956 198.7624 35.2015 200.9022 32.9386 203.0717 C 31.4098 204.537 29.5225 205.6089 28.4466 207.6165 C 27.8831 208.6672 28.5926 210.4221 28.3197 211.684 C 27.8013 214.0796 26.8392 216.2134 26.1001 218.4748 C 25.7315 219.6061 25.5162 220.8645 24.9903 221.8702 C 24.4358 222.9299 23.1922 223.3425 22.8975 224.5936 C 22.6266 225.746 23.2634 227.1535 23.4471 228.4311 C 23.6308 229.7088 23.4165 231.1077 23.9967 232.2687 C 25.0688 234.4156 26.3275 237.0181 28.1715 237.8926 C 30.1251 238.8183 32.0114 237.3704 33.8896 236.9554 C 34.8216 236.7494 35.6068 235.8447 36.5954 236.0359 C 37.6438 236.239 38.5144 237.575 39.5442 238.0521 C 40.6295 238.5545 41.7753 238.9418 42.863 238.9364 C 43.8363 238.9316 44.6236 238.1711 45.5688 238.0169 C 46.5422 237.8571 47.5783 238.006 48.5811 237.9993 C 49.5838 237.9925 50.4463 238.3011 51.5933 237.9817 C 56.1796 236.7028 60.6171 234.9151 65.1222 233.3841 C 66.9243 232.7717 68.8065 232.3554 70.5338 231.5451 C 71.4242 231.1278 72.0327 230.1161 72.933 229.7236 C 75.5541 228.5814 78.4293 228.1073 81.0503 226.9651 C 81.9507 226.5726 82.5804 225.61 83.4496 225.1436 C 84.293 224.69 85.312 224.6777 86.1554 224.2241 C 87.0246 223.7577 87.6474 222.7794 88.5547 222.4026 C 92.0732 220.9393 95.8593 220.1879 99.3778 218.7246 C 100.285 218.3478 101.2654 217.8799 101.777 216.9031 C 102.3962 215.7188 102.6182 214.1383 102.5803 212.6058 C 102.518 210.0776 102.1655 207.4507 101.4812 204.9306 C 100.1526 200.0398 98.5607 195.16 96.5771 190.4998 C 96.0227 189.1972 94.8569 188.4002 93.9982 187.3519 C 93.1394 186.3036 92.1067 185.4231 91.4192 184.204 C 90.8041 183.1132 90.6015 181.7976 90.1932 180.5963 C 89.7849 179.3949 89.5824 178.0794 88.9672 176.9886 C 88.2797 175.7694 87.1245 175.0211 86.3883 173.8406 C 84.3524 170.5765 82.5821 167.0814 80.6809 163.7072 C 80.0467 162.5826 79.5269 161.244 78.7784 160.3293 Z "/>
  <path id="ID0.3809091211296618" fill="#3E4246" stroke="none" stroke-linecap="round" d="M 96.5999 174.0016 L 95.7176 153.4896 L 119.1829 139.8572 L 126.6667 136.23 L 140.9655 133.4153 L 147.3814 139.5609 L 155.3139 149.865 L 141.7702 159.2204 L 134.2231 166.0542 L 109.7707 184.3999 L 96.5999 174.0016 Z " stroke-width="0.657086427579416"/>
  <g id="ID0.38464318960905075">
    <path id="ID0.5368814701214433" fill="#303436" stroke="none" stroke-linecap="round" d="M 104.6405 230.4582 L 109.3006 222.4229 L 115.6178 214.3143 L 124.1543 222.1226 L 133.582 231.9377 L 148.5056 245.6917 L 148.2026 252.289 L 123.8018 248.2956 L 103.7871 240.2827 L 104.6405 230.4582 Z " stroke-width="0.7702165408800234"/>
    <path id="ID0.05466862628236413" fill="#303436" stroke="none" stroke-linecap="round" d="M 126.1167 143.2012 L 152.8152 144.6801 L 144.2904 162.1886 L 141.746 166.8161 L 137.5647 184.4702 L 126.3573 223.6513 L 110.6221 222.3801 L 112.8765 200.2453 L 111.9162 191.2408 L 112.484 181.7383 L 117.2068 168.9129 L 119.6565 156.8377 L 126.1167 143.2012 Z " stroke-width="0.730588969250632"/>
    <path id="ID0.4490455654449761" fill="none" stroke="#272A2B" stroke-width="1.6585523236336421" stroke-linecap="round" d="M 125.7662 144.0153 L 152.5315 145.1135 L 141.0282 167.6863 "/>
    <path id="ID0.10446935473009944" fill="none" stroke="#242728" stroke-width="1.6585523236336421" stroke-linecap="round" d="M 138.2443 179.7051 L 134.7356 196.1737 L 122.9398 201.2677 "/>
    <path id="ID0.42170455446466804" fill="none" stroke="#242728" stroke-width="1.6585523236336421" stroke-linecap="round" d="M 133.4235 197.0953 L 129.0013 211.5677 L 116.9513 216.8077 "/>
    <path id="ID0.047098892275244" fill="none" stroke="#242728" stroke-width="1.6585523236336421" stroke-linecap="round" d="M 119.9001 157.2799 L 118.6572 161.0189 L 121.3036 170.5912 "/>
  </g>
</svg>