<svg xmlns="http://www.w3.org/2000/svg" xmlns:xlink="http://www.w3.org/1999/xlink" version="1.1" width="345.22104623608425" height="48.377761629150626" viewBox="0.929419861770511 0.4861199722059968 345.22104623608425 48.377761629150626">
  <defs>
    <linearGradient id="grad_1" y2="1" x2="0">
      <stop offset="0" stop-color="#6D6D6D" stop-opacity="1"/>
      <stop offset="1" stop-color="#515151" stop-opacity="1"/>
    </linearGradient>
    <linearGradient id="grad_2" y2="1" x2="0">
      <stop offset="0" stop-color="#6D6D6D" stop-opacity="1"/>
      <stop offset="1" stop-color="#515151" stop-opacity="1"/>
    </linearGradient>
    <linearGradient id="grad_3" y2="1" x2="0">
      <stop offset="0" stop-color="#6D6D6D" stop-opacity="1"/>
      <stop offset="1" stop-color="#515151" stop-opacity="1"/>
    </linearGradient>
    <linearGradient id="grad_4" y2="1" x2="0">
      <stop offset="0" stop-color="#6D6D6D" stop-opacity="1"/>
      <stop offset="1" stop-color="#515151" stop-opacity="1"/>
    </linearGradient>
    <linearGradient id="grad_5" y2="1" x2="0">
      <stop offset="0" stop-color="#6D6D6D" stop-opacity="1"/>
      <stop offset="1" stop-color="#515151" stop-opacity="1"/>
    </linearGradient>
    <linearGradient id="grad_6" y2="1" x2="0">
      <stop offset="0" stop-color="#2E67A2" stop-opacity="1"/>
      <stop offset="1" stop-color="#224F7E" stop-opacity="1"/>
    </linearGradient>
    <linearGradient id="grad_7" y2="1" x2="0">
      <stop offset="0" stop-color="#2E67A2" stop-opacity="1"/>
      <stop offset="1" stop-color="#224F7E" stop-opacity="1"/>
    </linearGradient>
    <linearGradient id="grad_8" y2="1" x2="0">
      <stop offset="0" stop-color="#2E67A2" stop-opacity="1"/>
      <stop offset="1" stop-color="#224F7E" stop-opacity="1"/>
    </linearGradient>
    <linearGradient id="grad_9" y2="1" x2="0">
      <stop offset="0" stop-color="#2E67A2" stop-opacity="1"/>
      <stop offset="1" stop-color="#224F7E" stop-opacity="1"/>
    </linearGradient>
    <linearGradient id="grad_10" y2="1" x2="0">
      <stop offset="0" stop-color="#2E67A2" stop-opacity="1"/>
      <stop offset="1" stop-color="#224F7E" stop-opacity="1"/>
    </linearGradient>
    <linearGradient id="grad_11" y2="1" x2="0">
      <stop offset="0" stop-color="#2E67A2" stop-opacity="1"/>
      <stop offset="1" stop-color="#224F7E" stop-opacity="1"/>
    </linearGradient>
    <linearGradient id="grad_12" y2="1" x2="0">
      <stop offset="0" stop-color="#2E67A2" stop-opacity="1"/>
      <stop offset="1" stop-color="#224F7E" stop-opacity="1"/>
    </linearGradient>
    <linearGradient id="grad_13" y2="1" x2="0">
      <stop offset="0" stop-color="#2E67A2" stop-opacity="1"/>
      <stop offset="1" stop-color="#224F7E" stop-opacity="1"/>
    </linearGradient>
    <linearGradient id="grad_14" y2="1" x2="0">
      <stop offset="0" stop-color="#2E67A2" stop-opacity="1"/>
      <stop offset="1" stop-color="#224F7E" stop-opacity="1"/>
    </linearGradient>
    <linearGradient id="grad_15" y2="1" x2="0">
      <stop offset="0" stop-color="#6D6D6D" stop-opacity="1"/>
      <stop offset="1" stop-color="#515151" stop-opacity="1"/>
    </linearGradient>
    <linearGradient id="grad_16" y2="1" x2="0">
      <stop offset="0" stop-color="#6D6D6D" stop-opacity="1"/>
      <stop offset="1" stop-color="#515151" stop-opacity="1"/>
    </linearGradient>
    <linearGradient id="grad_17" y2="1" x2="0">
      <stop offset="0" stop-color="#6D6D6D" stop-opacity="1"/>
      <stop offset="1" stop-color="#515151" stop-opacity="1"/>
    </linearGradient>
    <linearGradient id="grad_18" y2="1" x2="0">
      <stop offset="0" stop-color="#6D6D6D" stop-opacity="1"/>
      <stop offset="1" stop-color="#515151" stop-opacity="1"/>
    </linearGradient>
    <linearGradient id="grad_19" y2="1" x2="0">
      <stop offset="0" stop-color="#6D6D6D" stop-opacity="1"/>
      <stop offset="1" stop-color="#515151" stop-opacity="1"/>
    </linearGradient>
    <linearGradient id="grad_20" y2="1" x2="0">
      <stop offset="0" stop-color="#6D6D6D" stop-opacity="1"/>
      <stop offset="1" stop-color="#515151" stop-opacity="1"/>
    </linearGradient>
    <linearGradient id="grad_21" y2="1" x2="0">
      <stop offset="0" stop-color="#6D6D6D" stop-opacity="1"/>
      <stop offset="1" stop-color="#515151" stop-opacity="1"/>
    </linearGradient>
  <linearGradient id="grad_1-.6395768523216248,0,0,0.6395768523216248,-48.85,-132.4" y2="33.2504" x2="20.1603" x1="20.1603" y1="21.4822" gradientUnits="userSpaceOnUse">
      <stop offset="0" stop-color="#6D6D6D" stop-opacity="1"/>
      <stop offset="1" stop-color="#515151" stop-opacity="1"/>
    </linearGradient><linearGradient id="grad_2-.6395768523216248,0,0,0.6395768523216248,-48.85,-132.4" y2="33.1864" x2="31.289" x1="31.289" y1="21.4822" gradientUnits="userSpaceOnUse">
      <stop offset="0" stop-color="#6D6D6D" stop-opacity="1"/>
      <stop offset="1" stop-color="#515151" stop-opacity="1"/>
    </linearGradient><linearGradient id="grad_3-.6395768523216248,0,0,0.6395768523216248,-48.85,-132.4" y2="33.1864" x2="43.377" x1="43.377" y1="21.4822" gradientUnits="userSpaceOnUse">
      <stop offset="0" stop-color="#6D6D6D" stop-opacity="1"/>
      <stop offset="1" stop-color="#515151" stop-opacity="1"/>
    </linearGradient><linearGradient id="grad_4-.6395768523216248,0,0,0.6395768523216248,-48.85,-132.4" y2="33.3783" x2="53.7381" x1="53.7381" y1="21.2903" gradientUnits="userSpaceOnUse">
      <stop offset="0" stop-color="#6D6D6D" stop-opacity="1"/>
      <stop offset="1" stop-color="#515151" stop-opacity="1"/>
    </linearGradient><linearGradient id="grad_5-.6395768523216248,0,0,0.6395768523216248,-48.85,-132.4" y2="33.3783" x2="64.4191" x1="64.4191" y1="21.2903" gradientUnits="userSpaceOnUse">
      <stop offset="0" stop-color="#6D6D6D" stop-opacity="1"/>
      <stop offset="1" stop-color="#515151" stop-opacity="1"/>
    </linearGradient><linearGradient id="grad_6-.6395768523216248,0,0,0.6395768523216248,-48.85,-132.4" y2="33.1864" x2="81.2399" x1="81.2399" y1="19.3076" gradientUnits="userSpaceOnUse">
      <stop offset="0" stop-color="#2E67A2" stop-opacity="1"/>
      <stop offset="1" stop-color="#224F7E" stop-opacity="1"/>
    </linearGradient><linearGradient id="grad_7-.6395768523216248,0,0,0.6395768523216248,-48.85,-132.4" y2="33.4423" x2="96.0781" x1="96.0781" y1="18.9878" gradientUnits="userSpaceOnUse">
      <stop offset="0" stop-color="#2E67A2" stop-opacity="1"/>
      <stop offset="1" stop-color="#224F7E" stop-opacity="1"/>
    </linearGradient><linearGradient id="grad_8-.6395768523216248,0,0,0.6395768523216248,-48.85,-132.4" y2="33.3144" x2="112.5152" x1="112.5152" y1="19.2437" gradientUnits="userSpaceOnUse">
      <stop offset="0" stop-color="#2E67A2" stop-opacity="1"/>
      <stop offset="1" stop-color="#224F7E" stop-opacity="1"/>
    </linearGradient><linearGradient id="grad_9-.6395768523216248,0,0,0.6395768523216248,-48.85,-132.4" y2="33.1864" x2="135.7958" x1="135.7958" y1="19.3076" gradientUnits="userSpaceOnUse">
      <stop offset="0" stop-color="#2E67A2" stop-opacity="1"/>
      <stop offset="1" stop-color="#224F7E" stop-opacity="1"/>
    </linearGradient><linearGradient id="grad_10-.6395768523216248,0,0,0.6395768523216248,-48.85,-132.4" y2="33.2504" x2="156.1983" x1="156.1983" y1="19.2437" gradientUnits="userSpaceOnUse">
      <stop offset="0" stop-color="#2E67A2" stop-opacity="1"/>
      <stop offset="1" stop-color="#224F7E" stop-opacity="1"/>
    </linearGradient><linearGradient id="grad_11-.6395768523216248,0,0,0.6395768523216248,-48.85,-132.4" y2="33.2504" x2="173.0832" x1="173.0832" y1="19.3076" gradientUnits="userSpaceOnUse">
      <stop offset="0" stop-color="#2E67A2" stop-opacity="1"/>
      <stop offset="1" stop-color="#224F7E" stop-opacity="1"/>
    </linearGradient><linearGradient id="grad_12-.6395768523216248,0,0,0.6395768523216248,-48.85,-132.4" y2="33.2504" x2="187.2818" x1="187.2818" y1="19.3076" gradientUnits="userSpaceOnUse">
      <stop offset="0" stop-color="#2E67A2" stop-opacity="1"/>
      <stop offset="1" stop-color="#224F7E" stop-opacity="1"/>
    </linearGradient><linearGradient id="grad_13-.6395768523216248,0,0,0.6395768523216248,-48.85,-132.4" y2="33.4423" x2="201.1606" x1="201.1606" y1="18.9878" gradientUnits="userSpaceOnUse">
      <stop offset="0" stop-color="#2E67A2" stop-opacity="1"/>
      <stop offset="1" stop-color="#224F7E" stop-opacity="1"/>
    </linearGradient><linearGradient id="grad_14-.6395768523216248,0,0,0.6395768523216248,-48.85,-132.4" y2="33.3144" x2="217.5338" x1="217.5338" y1="19.2437" gradientUnits="userSpaceOnUse">
      <stop offset="0" stop-color="#2E67A2" stop-opacity="1"/>
      <stop offset="1" stop-color="#224F7E" stop-opacity="1"/>
    </linearGradient><linearGradient id="grad_15-.6395768523216248,0,0,0.6395768523216248,-48.85,-132.4" y2="33.3144" x2="245.6112" x1="245.6112" y1="21.9299" gradientUnits="userSpaceOnUse">
      <stop offset="0" stop-color="#6D6D6D" stop-opacity="1"/>
      <stop offset="1" stop-color="#515151" stop-opacity="1"/>
    </linearGradient><linearGradient id="grad_16-.6395768523216248,0,0,0.6395768523216248,-48.85,-132.4" y2="33.3783" x2="252.7105" x1="252.7105" y1="24.0405" gradientUnits="userSpaceOnUse">
      <stop offset="0" stop-color="#6D6D6D" stop-opacity="1"/>
      <stop offset="1" stop-color="#515151" stop-opacity="1"/>
    </linearGradient><linearGradient id="grad_17-.6395768523216248,0,0,0.6395768523216248,-48.85,-132.4" y2="33.2504" x2="269.5953" x1="269.5953" y1="21.4822" gradientUnits="userSpaceOnUse">
      <stop offset="0" stop-color="#6D6D6D" stop-opacity="1"/>
      <stop offset="1" stop-color="#515151" stop-opacity="1"/>
    </linearGradient><linearGradient id="grad_18-.6395768523216248,0,0,0.6395768523216248,-48.85,-132.4" y2="33.3783" x2="280.5321" x1="280.5321" y1="21.4822" gradientUnits="userSpaceOnUse">
      <stop offset="0" stop-color="#6D6D6D" stop-opacity="1"/>
      <stop offset="1" stop-color="#515151" stop-opacity="1"/>
    </linearGradient><linearGradient id="grad_19-.6395768523216248,0,0,0.6395768523216248,-48.85,-132.4" y2="33.1864" x2="293.3236" x1="293.3236" y1="21.4822" gradientUnits="userSpaceOnUse">
      <stop offset="0" stop-color="#6D6D6D" stop-opacity="1"/>
      <stop offset="1" stop-color="#515151" stop-opacity="1"/>
    </linearGradient><linearGradient id="grad_20-.6395768523216248,0,0,0.6395768523216248,-48.85,-132.4" y2="33.3783" x2="305.9872" x1="305.9872" y1="21.2903" gradientUnits="userSpaceOnUse">
      <stop offset="0" stop-color="#6D6D6D" stop-opacity="1"/>
      <stop offset="1" stop-color="#515151" stop-opacity="1"/>
    </linearGradient><linearGradient id="grad_21-.6395768523216248,0,0,0.6395768523216248,-48.85,-132.4" y2="33.1864" x2="318.8427" x1="318.8427" y1="21.4822" gradientUnits="userSpaceOnUse">
      <stop offset="0" stop-color="#6D6D6D" stop-opacity="1"/>
      <stop offset="1" stop-color="#515151" stop-opacity="1"/>
    </linearGradient></defs>
  <!-- Exported by Scratch - http://scratch.mit.edu/ -->
  <path id="ID0.14518280653283" fill="#1F1F1F" stroke="#FFFFFF" stroke-width="2.2277601032717222" d="M 345.0366 2.5 L 286.2482 3.6 L 61.9881 1.6 L 54.9894 8 L 46.8954 4.6 L 8.5551 1.6 L 9.1637 30.6 L 2.0433 47.1 L 50.486 45.5 L 75.8636 47.6 L 146.1541 47.1 L 251.0725 47.75 L 313.5124 44.25 L 332.5 43.5 L 340.5332 46.75 L 342.6632 20.6 L 341.02 9.5 L 345.0366 2.5 Z "/>
  <g id="ID0.254332032520324">
    <path id="ID0.06028365017846227" fill="url(#grad_1-.6395768523216248,0,0,0.6395768523216248,-48.85,-132.4)" d="M 20.1603 21.4822 L 24.9572 21.4822 C 25.6607 21.4822 26.3003 21.6101 26.8119 21.802 C 27.3876 21.9939 27.8353 22.2497 28.219 22.6334 C 28.6028 23.0172 28.9225 23.4009 29.1144 23.9126 C 29.3063 24.4242 29.4342 24.9359 29.4342 25.5755 L 29.4342 25.6394 C 29.4342 26.343 29.3063 26.9186 29.0505 27.4303 C 28.7946 27.9419 28.4748 28.3896 28.0271 28.7094 C 27.5794 29.0292 27.0678 29.285 26.5561 29.4769 C 25.9805 29.6688 25.3409 29.7327 24.7013 29.7327 L 22.7186 29.7327 L 22.7186 33.2504 L 20.1603 33.2504 L 20.1603 21.4822 Z M 24.7653 27.3663 C 25.4049 27.3663 25.9165 27.1744 26.2363 26.8546 C 26.6201 26.5348 26.748 26.0871 26.748 25.5755 L 26.748 25.5755 C 26.748 24.9999 26.5561 24.5522 26.1724 24.2324 C 25.7886 23.9126 25.277 23.7847 24.6374 23.7847 L 22.6547 23.7847 L 22.6547 27.3663 L 24.7653 27.3663 Z " stroke-width="0.6395768523216248"/>
    <path id="ID0.40728791430592537" fill="url(#grad_2-.6395768523216248,0,0,0.6395768523216248,-48.85,-132.4)" d="M 31.289 21.4822 L 36.6614 21.4822 C 38.1325 21.4822 39.2837 21.8659 40.0512 22.6974 C 40.6908 23.337 41.0745 24.2324 41.0745 25.3836 L 41.0745 25.4476 C 41.0745 26.4069 40.8187 27.1744 40.371 27.75 C 39.9233 28.3257 39.2837 28.7734 38.5802 29.0292 L 41.4583 33.1864 L 38.4522 33.1864 L 35.9579 29.4769 L 35.8939 29.4769 L 33.9112 29.4769 L 33.9112 33.1864 L 31.3529 33.1864 L 31.3529 21.4822 Z M 36.4696 27.1744 C 37.1091 27.1744 37.6208 27.0465 37.9406 26.7267 C 38.2604 26.4069 38.4522 26.0232 38.4522 25.5115 L 38.4522 25.4476 C 38.4522 24.8719 38.2604 24.4882 37.9406 24.1684 C 37.5568 23.9126 37.1091 23.7207 36.4696 23.7207 L 33.9112 23.7207 L 33.9112 27.0465 L 36.4696 27.0465 Z " stroke-width="0.6395768523216248"/>
    <path id="ID0.3432423137128353" fill="url(#grad_3-.6395768523216248,0,0,0.6395768523216248,-48.85,-132.4)" d="M 43.377 21.4822 L 52.2031 21.4822 L 52.2031 23.7847 L 45.9353 23.7847 L 45.9353 26.1511 L 51.4357 26.1511 L 51.4357 28.4536 L 45.9353 28.4536 L 45.9353 30.884 L 52.2671 30.884 L 52.2671 33.1864 L 43.377 33.1864 L 43.377 21.4822 Z " stroke-width="0.6395768523216248"/>
    <path id="ID0.59780891565606" fill="url(#grad_4-.6395768523216248,0,0,0.6395768523216248,-48.85,-132.4)" d="M 58.7268 33.3783 C 57.8314 33.3783 56.936 33.2504 56.1046 32.9306 C 55.2731 32.6108 54.4417 32.1631 53.7381 31.5235 L 55.2731 29.7327 C 55.7848 30.1804 56.3604 30.5002 56.936 30.7561 C 57.5116 31.0119 58.0872 31.1398 58.7908 31.1398 C 59.3024 31.1398 59.7501 31.0119 60.006 30.82 C 60.3258 30.6281 60.4537 30.3723 60.4537 29.9886 L 60.4537 29.9246 C 60.4537 29.7327 60.4537 29.6048 60.3897 29.4769 C 60.3258 29.349 60.1979 29.2211 60.0699 29.0932 C 59.8781 28.9652 59.6862 28.9013 59.3664 28.7734 C 59.0466 28.6455 58.6629 28.5175 58.1512 28.4536 C 57.5756 28.3257 57 28.1338 56.5523 27.9419 C 56.0406 27.75 55.6569 27.5582 55.3371 27.3023 C 55.0173 27.0465 54.7615 26.7267 54.5696 26.343 C 54.3777 25.9592 54.3137 25.4476 54.3137 24.8719 L 54.3137 24.808 C 54.3137 24.2963 54.4417 23.7847 54.6335 23.337 C 54.8254 22.8893 55.0812 22.5695 55.465 22.2497 C 55.8487 21.9299 56.2325 21.6741 56.7441 21.5461 C 57.2558 21.3543 57.7675 21.2903 58.407 21.2903 C 59.2385 21.2903 60.0699 21.4182 60.7735 21.6741 C 61.477 21.9299 62.1805 22.3136 62.7562 22.7613 L 61.413 24.6801 C 60.9014 24.2963 60.3897 24.0405 59.8781 23.8486 C 59.3664 23.6568 58.8547 23.5288 58.407 23.5288 C 57.9593 23.5288 57.5116 23.6568 57.2558 23.8486 C 57 24.0405 56.8721 24.2963 56.8721 24.5522 L 56.8721 24.6161 C 56.8721 24.808 56.936 24.9999 57 25.1278 C 57.0639 25.2557 57.1918 25.3836 57.3837 25.5115 C 57.5756 25.6394 57.8314 25.7034 58.1512 25.8313 C 58.471 25.9592 58.9187 26.0232 59.4304 26.1511 C 60.006 26.279 60.5176 26.4709 61.0293 26.6628 C 61.541 26.8546 61.8608 27.1105 62.1805 27.3663 C 62.5003 27.6221 62.7562 27.9419 62.8841 28.3257 C 63.012 28.7094 63.1399 29.1571 63.1399 29.6688 L 63.1399 29.7327 C 63.1399 30.3084 63.012 30.82 62.8201 31.2677 C 62.6282 31.7154 62.3085 32.0992 61.9247 32.419 C 61.541 32.7387 61.0933 32.9306 60.5816 33.1225 C 59.942 33.2504 59.3664 33.3783 58.7268 33.3783 Z " stroke-width="0.6395768523216248"/>
    <path id="ID0.4454928608611226" fill="url(#grad_5-.6395768523216248,0,0,0.6395768523216248,-48.85,-132.4)" d="M 69.4078 33.3783 C 68.5124 33.3783 67.6169 33.2504 66.7855 32.9306 C 65.954 32.6108 65.1226 32.1631 64.4191 31.5235 L 65.954 29.7327 C 66.4657 30.1804 67.0413 30.5002 67.6169 30.7561 C 68.1926 31.0119 68.7682 31.1398 69.4717 31.1398 C 69.9834 31.1398 70.4311 31.0119 70.6869 30.82 C 71.0067 30.6281 71.1346 30.3723 71.1346 29.9886 L 71.1346 29.9246 C 71.1346 29.7327 71.1346 29.6048 71.0707 29.4769 C 71.0067 29.349 70.8788 29.2211 70.7509 29.0932 C 70.559 28.9652 70.3671 28.9013 70.0473 28.7734 C 69.7275 28.6455 69.3438 28.5175 68.8321 28.4536 C 68.2565 28.3257 67.6809 28.1338 67.2332 27.9419 C 66.7215 27.75 66.3378 27.5582 66.018 27.3023 C 65.6982 27.0465 65.4424 26.7267 65.2505 26.343 C 65.0586 25.9592 64.9947 25.4476 64.9947 24.8719 L 64.9947 24.808 C 64.9947 24.2963 65.1226 23.7847 65.3145 23.337 C 65.5063 22.8893 65.7622 22.5695 66.1459 22.2497 C 66.5297 21.9299 66.9134 21.6741 67.4251 21.5461 C 67.9367 21.3543 68.4484 21.2903 69.088 21.2903 C 69.9194 21.2903 70.7509 21.4182 71.4544 21.6741 C 72.1579 21.9299 72.8615 22.3136 73.4371 22.7613 L 72.094 24.6801 C 71.5823 24.2963 71.0707 24.0405 70.559 23.8486 C 70.0473 23.6568 69.5357 23.5288 69.088 23.5288 C 68.6403 23.5288 68.1926 23.6568 67.9367 23.8486 C 67.6809 24.0405 67.553 24.2963 67.553 24.5522 L 67.553 24.6161 C 67.553 24.808 67.6169 24.9999 67.6809 25.1278 C 67.7449 25.2557 67.8728 25.3836 68.0646 25.5115 C 68.2565 25.6394 68.5124 25.7034 68.8321 25.8313 C 69.1519 25.9592 69.5996 26.0232 70.1113 26.1511 C 70.6869 26.279 71.1986 26.4709 71.7102 26.6628 C 72.2219 26.8546 72.5417 27.1105 72.8615 27.3663 C 73.1813 27.6221 73.4371 27.9419 73.565 28.3257 C 73.6929 28.7094 73.8208 29.1571 73.8208 29.6688 L 73.8208 29.7327 C 73.8208 30.3084 73.6929 30.82 73.5011 31.2677 C 73.3092 31.7154 72.9894 32.0992 72.6056 32.419 C 72.2219 32.7387 71.7742 32.9306 71.2625 33.1225 C 70.623 33.2504 70.0473 33.3783 69.4078 33.3783 Z " stroke-width="0.6395768523216248"/>
    <path id="ID0.9008547533303499" fill="url(#grad_6-.6395768523216248,0,0,0.6395768523216248,-48.85,-132.4)" d="M 81.2399 19.3076 L 86.6763 19.3076 C 87.7636 19.3076 88.7869 19.4995 89.6823 19.8193 C 90.5778 20.1391 91.3452 20.6507 92.0488 21.2903 C 92.7523 21.9299 93.2 22.6334 93.5838 23.4649 C 93.9675 24.2963 94.0954 25.1917 94.0954 26.2151 L 94.0954 26.279 C 94.0954 27.2384 93.9036 28.1977 93.5838 29.0292 C 93.2 29.8606 92.7523 30.6281 92.0488 31.2038 C 91.4092 31.8433 90.6417 32.291 89.6823 32.6748 C 88.723 33.0585 87.7636 33.1864 86.6763 33.1864 L 81.2399 33.1864 L 81.2399 19.3076 Z M 86.6124 30.4363 C 87.252 30.4363 87.8276 30.3084 88.3392 30.1165 C 88.8509 29.9246 89.2986 29.6048 89.6823 29.285 C 90.0661 28.9013 90.3219 28.4536 90.5138 28.0059 C 90.7057 27.4942 90.8336 26.9186 90.8336 26.343 L 90.8336 26.279 C 90.8336 25.6394 90.7057 25.1278 90.5138 24.6161 C 90.3219 24.1045 90.0021 23.6568 89.6823 23.273 C 89.2986 22.8893 88.8509 22.6334 88.3392 22.4416 C 87.8276 22.2497 87.252 22.1218 86.6124 22.1218 L 84.2459 22.1218 L 84.2459 30.5002 L 86.6124 30.5002 Z " stroke-width="0.6395768523216248"/>
    <path id="ID0.7658922760747373" fill="url(#grad_7-.6395768523216248,0,0,0.6395768523216248,-48.85,-132.4)" d="M 103.4332 33.4423 C 102.346 33.4423 101.3866 33.2504 100.4912 32.8667 C 99.5958 32.4829 98.8283 31.9713 98.1887 31.3317 C 97.5491 30.6921 97.0375 29.9246 96.6537 29.0932 C 96.27 28.1977 96.0781 27.3023 96.0781 26.279 L 96.0781 26.2151 C 96.0781 25.1917 96.27 24.2963 96.6537 23.4009 C 97.0375 22.5055 97.5491 21.802 98.1887 21.0984 C 98.8283 20.4589 99.5958 19.9472 100.5552 19.5635 C 101.5145 19.1797 102.4739 18.9878 103.4972 18.9878 C 104.5205 18.9878 105.5439 19.1797 106.4393 19.5635 C 107.3347 19.9472 108.1022 20.4589 108.7417 21.0984 C 109.3813 21.738 109.893 22.5055 110.2767 23.337 C 110.6605 24.2324 110.8523 25.1278 110.8523 26.1511 L 110.8523 26.2151 C 110.8523 27.1744 110.6605 28.1338 110.2767 29.0292 C 109.893 29.9246 109.3813 30.6281 108.7417 31.3317 C 108.1022 32.0352 107.3347 32.4829 106.3753 32.8667 C 105.5439 33.2504 104.5205 33.4423 103.4332 33.4423 Z M 103.4972 30.6281 C 104.1368 30.6281 104.6484 30.5002 105.1601 30.3084 C 105.6718 30.0525 106.1195 29.7967 106.5032 29.349 C 106.887 28.9652 107.1428 28.5175 107.3347 27.9419 C 107.5265 27.3663 107.6545 26.8546 107.6545 26.279 L 107.6545 26.2151 C 107.6545 25.6394 107.5265 25.0638 107.3347 24.5522 C 107.1428 24.0405 106.823 23.5288 106.4393 23.1451 C 106.0555 22.7613 105.6078 22.4416 105.0961 22.1857 C 104.5845 21.9299 104.0089 21.8659 103.4332 21.8659 C 102.7937 21.8659 102.2181 21.9939 101.7064 22.1857 C 101.1947 22.4416 100.747 22.6974 100.4272 23.1451 C 100.0435 23.5288 99.7877 23.9765 99.5958 24.5522 C 99.4039 25.1278 99.276 25.6394 99.276 26.2151 L 99.276 26.279 C 99.276 26.8546 99.4039 27.4303 99.5958 27.9419 C 99.7877 28.4536 100.1074 28.9013 100.4912 29.349 C 100.8749 29.7967 101.3226 30.0525 101.8343 30.3084 C 102.282 30.5002 102.8576 30.6281 103.4972 30.6281 Z " stroke-width="0.6395768523216248"/>
    <path id="ID0.1881058420985937" fill="url(#grad_8-.6395768523216248,0,0,0.6395768523216248,-48.85,-132.4)" d="M 112.5152 19.3076 L 115.7771 19.3076 L 118.6552 28.7094 L 121.7891 19.2437 L 124.4114 19.2437 L 127.5453 28.7094 L 130.4234 19.3076 L 133.6213 19.3076 L 128.8884 33.3144 L 126.2022 33.3144 L 123.0683 24.2324 L 119.9343 33.3144 L 117.2481 33.3144 L 112.5152 19.3076 Z " stroke-width="0.6395768523216248"/>
    <path id="ID0.19610963808372617" fill="url(#grad_9-.6395768523216248,0,0,0.6395768523216248,-48.85,-132.4)" d="M 135.7958 19.3076 L 138.61 19.3076 L 145.1337 27.878 L 145.1337 19.3076 L 148.1397 19.3076 L 148.1397 33.1864 L 145.5814 33.1864 L 138.8658 24.3603 L 138.8658 33.1864 L 135.8598 33.1864 L 135.8598 19.3076 Z " stroke-width="0.6395768523216248"/>
    <path id="ID0.05429967446252704" fill="url(#grad_10-.6395768523216248,0,0,0.6395768523216248,-48.85,-132.4)" d="M 162.2104 19.2437 L 165.0245 19.2437 L 170.9726 33.2504 L 167.7747 33.2504 L 166.4955 30.1165 L 160.6114 30.1165 L 159.3323 33.2504 L 156.1983 33.2504 L 162.2104 19.2437 Z M 165.4082 27.3663 L 163.5535 22.8893 L 161.6987 27.3663 L 165.4082 27.3663 Z " stroke-width="0.6395768523216248"/>
    <path id="ID0.683148963842541" fill="url(#grad_11-.6395768523216248,0,0,0.6395768523216248,-48.85,-132.4)" d="M 173.0832 19.3076 L 179.415 19.3076 C 181.1418 19.3076 182.5489 19.7553 183.4443 20.7147 C 184.2118 21.4822 184.6595 22.5695 184.6595 23.9126 L 184.6595 23.9765 C 184.6595 25.1278 184.4037 26.0232 183.8281 26.7267 C 183.2524 27.4303 182.5489 27.9419 181.6535 28.2617 L 185.0433 33.2504 L 181.4616 33.2504 L 178.4556 28.8373 L 178.3917 28.8373 L 176.0252 28.8373 L 176.0252 33.2504 L 173.0832 33.2504 L 173.0832 19.3076 Z M 179.2231 26.0232 C 179.9906 26.0232 180.5662 25.8313 180.95 25.5115 C 181.3337 25.1278 181.5256 24.6801 181.5256 24.1045 L 181.5256 24.0405 C 181.5256 23.4009 181.3337 22.8893 180.886 22.5695 C 180.4383 22.2497 179.8627 22.0578 179.0952 22.0578 L 176.0892 22.0578 L 176.0892 26.0232 L 179.2231 26.0232 Z " stroke-width="0.6395768523216248"/>
    <path id="ID0.2773745604790747" fill="url(#grad_12-.6395768523216248,0,0,0.6395768523216248,-48.85,-132.4)" d="M 187.4097 19.3076 L 193.7415 19.3076 C 195.4684 19.3076 196.8754 19.7553 197.7708 20.7147 C 198.5383 21.4822 198.986 22.5695 198.986 23.9126 L 198.986 23.9765 C 198.986 25.1278 198.7302 26.0232 198.1546 26.7267 C 197.579 27.4303 196.8754 27.9419 195.98 28.2617 L 199.3698 33.2504 L 195.7881 33.2504 L 192.7821 28.8373 L 192.7182 28.8373 L 190.3517 28.8373 L 190.3517 33.2504 L 187.2818 33.2504 L 187.2818 19.3076 Z M 193.5496 26.0232 C 194.3171 26.0232 194.8927 25.8313 195.2765 25.5115 C 195.6602 25.1278 195.8521 24.6801 195.8521 24.1045 L 195.8521 24.0405 C 195.8521 23.4009 195.6602 22.8893 195.2125 22.5695 C 194.7648 22.2497 194.1892 22.0578 193.4217 22.0578 L 190.4157 22.0578 L 190.4157 26.0232 L 193.5496 26.0232 Z " stroke-width="0.6395768523216248"/>
    <path id="ID0.11104170326143503" fill="url(#grad_13-.6395768523216248,0,0,0.6395768523216248,-48.85,-132.4)" d="M 208.5157 33.4423 C 207.4284 33.4423 206.4691 33.2504 205.5737 32.8667 C 204.6783 32.4829 203.9108 31.9713 203.2712 31.3317 C 202.6316 30.6921 202.12 29.9246 201.7362 29.0932 C 201.3525 28.1977 201.1606 27.3023 201.1606 26.279 L 201.1606 26.2151 C 201.1606 25.1917 201.3525 24.2963 201.7362 23.4009 C 202.12 22.5055 202.6316 21.802 203.2712 21.0984 C 203.9108 20.4589 204.6783 19.9472 205.6376 19.5635 C 206.597 19.1797 207.5564 18.9878 208.5797 18.9878 C 209.603 18.9878 210.6263 19.1797 211.5217 19.5635 C 212.4171 19.9472 213.1846 20.4589 213.8242 21.0984 C 214.4638 21.738 214.9755 22.5055 215.3592 23.337 C 215.7429 24.1684 215.9348 25.1278 215.9348 26.1511 L 215.9348 26.2151 C 215.9348 27.1744 215.7429 28.1338 215.3592 29.0292 C 214.9755 29.9246 214.4638 30.6281 213.8242 31.3317 C 213.1846 32.0352 212.4171 32.4829 211.4578 32.8667 C 210.5624 33.2504 209.603 33.4423 208.5157 33.4423 Z M 208.5157 30.6281 C 209.1553 30.6281 209.667 30.5002 210.1786 30.3084 C 210.6903 30.0525 211.138 29.7967 211.5217 29.349 C 211.9055 28.9652 212.1613 28.5175 212.3532 27.9419 C 212.5451 27.3663 212.673 26.8546 212.673 26.279 L 212.673 26.2151 C 212.673 25.6394 212.5451 25.0638 212.3532 24.5522 C 212.1613 24.0405 211.8415 23.5288 211.4578 23.1451 C 211.074 22.7613 210.6263 22.4416 210.1147 22.1857 C 209.603 21.9299 209.0274 21.8659 208.4518 21.8659 C 207.8122 21.8659 207.2366 21.9939 206.7249 22.1857 C 206.2132 22.3776 205.7655 22.6974 205.4458 23.1451 C 205.062 23.5288 204.8062 23.9765 204.6143 24.5522 C 204.4224 25.1278 204.2945 25.6394 204.2945 26.2151 L 204.2945 26.279 C 204.2945 26.8546 204.4224 27.4303 204.6143 27.9419 C 204.8062 28.4536 205.126 28.9013 205.5097 29.349 C 205.8935 29.7967 206.3412 30.0525 206.8528 30.3084 C 207.3645 30.5002 207.9401 30.6281 208.5157 30.6281 Z " stroke-width="0.6395768523216248"/>
    <path id="ID0.571792425122112" fill="url(#grad_14-.6395768523216248,0,0,0.6395768523216248,-48.85,-132.4)" d="M 217.5338 19.3076 L 220.7956 19.3076 L 223.6737 28.7094 L 226.8076 19.2437 L 229.4299 19.2437 L 232.5638 28.7094 L 235.4419 19.3076 L 238.6398 19.3076 L 233.9069 33.3144 L 231.2207 33.3144 L 228.0868 24.2324 L 224.9529 33.3144 L 222.2666 33.3144 L 217.5338 19.3076 Z " stroke-width="0.6395768523216248"/>
    <path id="ID0.07000341964885592" fill="url(#grad_15-.6395768523216248,0,0,0.6395768523216248,-48.85,-132.4)" d="M 249.3207 33.3144 C 248.937 33.3144 248.5532 33.2504 248.2334 33.1864 C 247.9137 33.1225 247.6578 32.9306 247.402 32.7387 C 247.1462 32.5469 247.0183 32.2271 246.8903 31.9073 C 246.7624 31.5875 246.6985 31.1398 246.6985 30.6281 L 246.6985 26.4069 L 245.6112 26.4069 L 245.6112 24.2324 L 246.6985 24.2324 L 246.6985 21.9299 L 249.2568 21.9299 L 249.2568 24.2324 L 251.3674 24.2324 L 251.3674 26.4069 L 249.2568 26.4069 L 249.2568 30.2444 C 249.2568 30.82 249.5126 31.1398 250.0882 31.1398 C 250.5359 31.1398 250.9197 31.0119 251.3674 30.82 L 251.3674 32.8667 C 251.1115 32.9946 250.7918 33.1225 250.472 33.2504 C 250.0882 33.3144 249.7045 33.3144 249.3207 33.3144 Z " stroke-width="0.6395768523216248"/>
    <path id="ID0.28094456857070327" fill="url(#grad_16-.6395768523216248,0,0,0.6395768523216248,-48.85,-132.4)" d="M 257.5713 33.3783 C 256.8677 33.3783 256.2282 33.2504 255.6525 32.9946 C 255.0769 32.7387 254.5653 32.419 254.1176 32.0352 C 253.6699 31.5875 253.3501 31.1398 253.0942 30.5642 C 252.8384 29.9886 252.7105 29.4129 252.7105 28.7734 L 252.7105 28.7094 C 252.7105 28.0698 252.8384 27.4303 253.0942 26.9186 C 253.3501 26.343 253.6699 25.8953 254.1176 25.4476 C 254.5653 24.9999 255.0769 24.6801 255.6525 24.4242 C 256.2282 24.1684 256.8677 24.0405 257.5713 24.0405 C 258.2748 24.0405 258.9144 24.1684 259.49 24.4242 C 260.0656 24.6801 260.5773 24.9999 261.025 25.3836 C 261.4727 25.8313 261.7925 26.279 262.0483 26.8546 C 262.3041 27.4303 262.4321 28.0059 262.4321 28.6455 L 262.4321 28.7094 C 262.4321 29.349 262.3041 29.9886 262.0483 30.5002 C 261.7925 31.0758 261.4727 31.5235 261.025 31.9713 C 260.5773 32.419 260.0656 32.7387 259.49 32.9946 C 258.9144 33.2504 258.2748 33.3783 257.5713 33.3783 Z M 257.6352 31.2038 C 258.019 31.2038 258.3388 31.1398 258.5946 31.0119 C 258.8504 30.884 259.1063 30.6921 259.2981 30.5002 C 259.49 30.3084 259.6819 29.9886 259.7458 29.7327 C 259.8737 29.4129 259.8737 29.0932 259.8737 28.7734 L 259.8737 28.7094 C 259.8737 28.3896 259.8098 28.0698 259.6819 27.75 C 259.554 27.4303 259.426 27.1744 259.1702 26.9826 C 258.9783 26.7267 258.7225 26.5988 258.4027 26.4709 C 258.0829 26.343 257.8271 26.279 257.4434 26.279 C 257.0596 26.279 256.7398 26.343 256.484 26.4709 C 256.2282 26.5988 255.9723 26.7907 255.7805 26.9826 C 255.5886 27.1744 255.3967 27.4942 255.3328 27.75 C 255.2048 28.0698 255.2048 28.3896 255.2048 28.7094 L 255.2048 28.7734 C 255.2048 29.0932 255.2688 29.4129 255.3967 29.7327 C 255.5246 30.0525 255.6525 30.3084 255.9084 30.5002 C 256.1002 30.7561 256.3561 30.884 256.6759 31.0119 C 256.9317 31.1398 257.2515 31.2038 257.6352 31.2038 Z " stroke-width="0.6395768523216248"/>
    <path id="ID0.9390186527743936" fill="url(#grad_17-.6395768523216248,0,0,0.6395768523216248,-48.85,-132.4)" d="M 269.5953 21.4822 L 274.3921 21.4822 C 275.0957 21.4822 275.7353 21.6101 276.2469 21.802 C 276.8225 21.9939 277.2702 22.2497 277.654 22.6334 C 278.0377 23.0172 278.3575 23.4009 278.5494 23.9126 C 278.7413 24.4242 278.8692 24.9359 278.8692 25.5755 L 278.8692 25.6394 C 278.8692 26.343 278.7413 26.9186 278.4854 27.4303 C 278.2296 27.9419 277.9098 28.3896 277.4621 28.7094 C 277.0144 29.0292 276.5027 29.285 275.9911 29.4769 C 275.4155 29.6688 274.7759 29.7327 274.1363 29.7327 L 272.1536 29.7327 L 272.1536 33.2504 L 269.5953 33.2504 L 269.5953 21.4822 Z M 274.2003 27.3663 C 274.8398 27.3663 275.3515 27.1744 275.6713 26.8546 C 276.055 26.5348 276.183 26.0871 276.183 25.5755 L 276.183 25.5755 C 276.183 24.9999 275.9911 24.5522 275.6073 24.2324 C 275.2236 23.9126 274.7119 23.7847 274.0724 23.7847 L 272.0897 23.7847 L 272.0897 27.3663 L 274.2003 27.3663 Z " stroke-width="0.6395768523216248"/>
    <path id="ID0.8418873543851078" fill="url(#grad_18-.6395768523216248,0,0,0.6395768523216248,-48.85,-132.4)" d="M 285.5847 33.3783 C 283.9858 33.3783 282.7706 32.9306 281.8752 32.0992 C 280.9798 31.2038 280.5321 29.9246 280.5321 28.1977 L 280.5321 21.5461 L 283.0904 21.5461 L 283.0904 28.1338 C 283.0904 29.0932 283.2823 29.7967 283.73 30.3084 C 284.1777 30.82 284.8172 31.0119 285.5847 31.0119 C 286.3522 31.0119 286.9918 30.7561 287.4395 30.3084 C 287.8872 29.8606 288.0791 29.1571 288.0791 28.1977 L 288.0791 21.4822 L 290.6374 21.4822 L 290.6374 28.0698 C 290.6374 28.9652 290.5095 29.7327 290.2536 30.3723 C 289.9978 31.0119 289.678 31.5875 289.2303 32.0352 C 288.7826 32.4829 288.271 32.8027 287.6314 32.9946 C 287.0558 33.2504 286.3522 33.3783 285.5847 33.3783 Z " stroke-width="0.6395768523216248"/>
    <path id="ID0.8361080349422991" fill="url(#grad_19-.6395768523216248,0,0,0.6395768523216248,-48.85,-132.4)" d="M 293.3236 21.4822 L 295.6901 21.4822 L 301.1904 28.7094 L 301.1904 21.4822 L 303.7487 21.4822 L 303.7487 33.1864 L 301.5742 33.1864 L 295.9459 25.7674 L 295.9459 33.1864 L 293.3876 33.1864 L 293.3876 21.4822 Z " stroke-width="0.6395768523216248"/>
    <path id="ID0.5396302249282598" fill="url(#grad_20-.6395768523216248,0,0,0.6395768523216248,-48.85,-132.4)" d="M 311.9993 33.3783 C 311.1678 33.3783 310.3364 33.2504 309.6328 32.9306 C 308.9293 32.6108 308.2897 32.1631 307.7141 31.6515 C 307.2024 31.1398 306.7547 30.5002 306.4349 29.7327 C 306.1152 29.0292 305.9872 28.1977 305.9872 27.3663 L 305.9872 27.3023 C 305.9872 26.4709 306.1152 25.7034 306.4349 24.9359 C 306.7547 24.2324 307.1385 23.5928 307.7141 23.0172 C 308.2258 22.4416 308.8653 22.0578 309.6328 21.738 C 310.4003 21.4182 311.2318 21.2903 312.1272 21.2903 C 312.7028 21.2903 313.1505 21.3543 313.5982 21.4182 C 314.0459 21.4822 314.4297 21.6101 314.8134 21.802 C 315.1971 21.9299 315.5169 22.1218 315.8367 22.3776 C 316.1565 22.5695 316.4123 22.8253 316.7321 23.0811 L 315.0692 24.9999 C 314.6215 24.6161 314.1738 24.2963 313.6622 24.0405 C 313.2145 23.7847 312.6388 23.7207 312.0632 23.7207 C 311.5516 23.7207 311.1039 23.7847 310.7201 23.9765 C 310.3364 24.1684 309.9526 24.4242 309.6328 24.744 C 309.313 25.0638 309.1212 25.4476 308.9293 25.8953 C 308.7374 26.343 308.6735 26.7907 308.6735 27.3023 L 308.6735 27.3663 C 308.6735 27.878 308.7374 28.3257 308.9293 28.7734 C 309.1212 29.2211 309.313 29.6048 309.6328 29.9246 C 309.9526 30.2444 310.2724 30.5002 310.7201 30.6921 C 311.1678 30.884 311.6155 31.0119 312.1272 31.0119 C 312.7668 31.0119 313.3424 30.884 313.7901 30.6281 C 314.2378 30.3723 314.6855 30.0525 315.1971 29.6048 L 316.86 31.2677 C 316.5403 31.5875 316.2205 31.9073 315.9007 32.1631 C 315.5809 32.419 315.1971 32.6108 314.8134 32.8027 C 314.4297 32.9946 313.9819 33.1225 313.5342 33.2504 C 313.0865 33.3144 312.5749 33.3783 311.9993 33.3783 Z " stroke-width="0.6395768523216248"/>
    <path id="ID0.42719059996306896" fill="url(#grad_21-.6395768523216248,0,0,0.6395768523216248,-48.85,-132.4)" d="M 318.8427 21.4822 L 321.401 21.4822 L 321.401 26.0871 L 326.1339 26.0871 L 326.1339 21.4822 L 328.6922 21.4822 L 328.6922 33.1864 L 326.1339 33.1864 L 326.1339 28.5175 L 321.401 28.5175 L 321.401 33.1864 L 318.8427 33.1864 L 318.8427 21.4822 Z " stroke-width="0.6395768523216248"/>
  </g>
</svg>