<svg xmlns="http://www.w3.org/2000/svg" xmlns:xlink="http://www.w3.org/1999/xlink" version="1.1" width="111.21780395507812" height="301.4122619628906" viewBox="1.8899998664855957 0.8754205703735352 111.21780395507812 301.4122619628906">
  <!-- Exported by Scratch - http://scratch.mit.edu/ -->
  <g id="ID0.7138465116731822">
    <g id="ID0.7085462282411754">
      <g id="ID0.5880346246995032">
        <path id="ID0.6829322893172503" fill="#796B5E" stroke="none" stroke-linecap="round" d="M 6.6249 168.9302 L 16.9255 164.9584 L 19.5299 170.5472 L 22.8709 176.6015 L 22.3669 182.0939 L 21.3735 186.5508 L 19.172 189.3104 L 17.226 195.6557 L 12.8015 195.0391 L 11.8226 192.9678 L 10.2954 192.6254 L 7.439 189.7829 L 4.4255 186.5297 L 2.89 182.0314 L 4.2925 175.2389 L 6.6249 168.9302 Z " stroke-width="0.782013722007206"/>
        <g id="ID0.9434720128774643">
          <path id="ID0.6507829907350242" fill="#2C3134" stroke="none" stroke-linecap="round" d="M 7.0342 106.0156 L 24.0971 117.5236 L 21.3284 133.6842 L 19.1694 145.7474 L 17.7475 161.244 L 19.3338 168.1611 L 5.1688 169.2344 L 6.558 162.1637 L 5.6836 152.5835 L 4.0775 140.3618 L 4.4784 127.4991 L 7.0342 106.0156 Z " stroke-width="0.782013722007206"/>
          <path id="ID0.9892375003546476" fill="none" stroke="#191919" stroke-width="1.9156212489993418" stroke-linecap="round" d="M 5.7158 168.5264 L 18.733 167.0926 L 17.1169 158.7 "/>
        </g>
      </g>
      <path id="ID0.7729651997797191" fill="#2C3134" stroke="none" stroke-linecap="round" d="M 9.4781 76.3844 L 31.9969 74.494 L 30.6328 94.0954 L 27.4158 104.5238 L 26.5169 113.4445 L 24.5671 121.7709 L 8.4617 119.5443 L 5.9417 113.1338 L 8.8483 89.8006 L 9.4781 76.3844 Z " stroke-width="0.9184073120953726"/>
      <path id="ID0.4757494777441025" fill="#2C3134" stroke="none" stroke-linecap="round" d="M 19.6921 60.9447 L 28.0701 58.8766 L 43.6625 63.5872 L 35.6336 88.1741 L 25.5101 92.9995 L 21.0884 94.0336 L 17.9467 91.7357 L 15.154 88.8634 L 9.5687 86.3358 L 9.4523 81.0508 L 10.1505 73.2381 L 13.2922 65.1957 L 19.6921 60.9447 Z " stroke-width="0.4625155836208068"/>
    </g>
    <g id="ID0.7085462282411754">
      <g id="ID0.5880346246995032">
        <path id="ID0.6829322893172503" fill="#796B5E" stroke="none" stroke-linecap="round" d="M 107.6251 168.1802 L 97.3245 164.2084 L 94.7201 169.7972 L 91.3791 175.8515 L 91.8831 181.3439 L 92.8765 185.8008 L 95.078 188.5604 L 97.024 194.9057 L 101.4485 194.2891 L 102.4274 192.2178 L 103.9546 191.8754 L 106.811 189.0329 L 109.8245 185.7797 L 111.36 181.2814 L 109.9575 174.4889 L 107.6251 168.1802 Z " stroke-width="0.782013722007206"/>
        <g id="ID0.9434720128774643">
          <path id="ID0.6507829907350242" fill="#2C3134" stroke="none" stroke-linecap="round" d="M 107.2658 105.3156 L 90.2029 116.8236 L 92.9716 132.9842 L 95.1306 145.0474 L 96.5525 160.544 L 94.9662 167.4611 L 109.1312 168.5344 L 107.742 161.4637 L 108.6164 151.8835 L 110.2225 139.6618 L 109.8216 126.7991 L 107.2658 105.3156 Z " stroke-width="0.782013722007206"/>
          <path id="ID0.9892375003546476" fill="none" stroke="#191919" stroke-width="1.9156212489993418" stroke-linecap="round" d="M 108.6342 167.7764 L 95.617 166.3426 L 97.2331 157.95 "/>
        </g>
      </g>
      <path id="ID0.7729651997797191" fill="#2C3134" stroke="none" stroke-linecap="round" d="M 104.8219 75.6344 L 82.3031 73.744 L 83.6672 93.3454 L 86.8842 103.7738 L 87.7831 112.6945 L 89.7329 121.0209 L 105.8383 118.7943 L 108.3583 112.3838 L 105.4517 89.0506 L 104.8219 75.6344 Z " stroke-width="0.9184073120953726"/>
      <path id="ID0.4757494777441025" fill="#2C3134" stroke="none" stroke-linecap="round" d="M 94.5579 60.2447 L 86.1799 58.1766 L 70.5875 62.8872 L 78.6164 87.4741 L 88.7399 92.2995 L 93.1616 93.3336 L 96.3033 91.0357 L 99.096 88.1634 L 104.6813 85.6358 L 104.7977 80.3508 L 104.0995 72.5381 L 100.9578 64.4957 L 94.5579 60.2447 Z " stroke-width="0.4625155836208068"/>
    </g>
    <g id="ID0.6660797297954559">
      <path id="ID0.5368814701214433" fill="#343434" stroke="none" stroke-linecap="round" d="M 64.9528 286.1777 L 67.8362 277.3477 L 72.3251 268.1008 L 82.3012 273.9588 L 93.5673 281.5939 L 111.0293 291.9362 L 112.1078 298.4518 L 87.4104 299.6307 L 66.1654 295.9644 L 64.9528 286.1777 Z " stroke-width="0.7702165290554439"/>
      <g id="ID0.5077062323689461">
        <path id="ID0.05466862628236413" fill="#252525" stroke="none" stroke-linecap="round" d="M 66.0516 213.8762 L 87.7443 210.4959 L 86.0084 225.1791 L 85.2661 230.1923 L 85.2596 244.6768 L 87.7603 277.928 L 66.5164 280.6982 L 65.1791 261.9496 L 62.8673 254.883 L 61.6975 247.1551 L 63.2957 236.0478 L 63.1969 225.9319 L 66.0516 213.8762 Z " stroke-width="0.5998532736063101"/>
        <path id="ID0.5319394422695041" fill="none" stroke="#131313" stroke-width="2" stroke-linecap="round" d="M 87.8 277 L 66.55 281 L 65.55 269.5 "/>
      </g>
      <g id="ID0.8820344842970371">
        <path id="ID0.3809091211296618" fill="#252525" stroke="none" stroke-linecap="round" d="M 54.8285 140.2533 L 86.5436 120.7371 L 87.8062 144.9649 L 91.7946 193.4411 L 91.312 204.1936 L 87.3109 215.4764 L 79.2176 213.2924 L 66.2644 214.5829 L 65.6031 192.821 L 63.8648 179.5181 L 54.8285 140.2533 Z " stroke-width="0.7305889665074583"/>
        <path id="ID0.9495224836282432" fill="none" stroke="#131313" stroke-width="2" stroke-linecap="round" d="M 91.8 193.5 L 91.8 202 L 89.8 210 L 81.3 214.5 L 80.3 219.5 "/>
      </g>
    </g>
    <g id="ID0.18228224432095885">
      <path id="ID0.5368814701214433" fill="#404040" stroke="none" stroke-linecap="round" d="M 26.6399 287.3519 L 29.7137 278.5863 L 34.4016 269.4387 L 44.2487 275.5112 L 55.3469 283.3883 L 72.581 294.1061 L 73.5182 300.6434 L 48.8011 301.2877 L 27.6404 297.1625 L 26.6399 287.3519 Z " stroke-width="0.7702165249851639"/>
      <g id="ID0.5077062323689461">
        <path id="ID0.05466862628236413" fill="#252525" stroke="none" stroke-linecap="round" d="M 30.5916 214.5183 L 52.4198 212.166 L 49.9924 226.751 L 49.0143 231.7235 L 48.3239 246.1916 L 49.2518 279.5237 L 27.9008 281.2878 L 27.4502 262.497 L 25.4747 255.3291 L 24.671 247.5545 L 26.7919 236.5351 L 27.1709 226.4258 L 30.5916 214.5183 Z " stroke-width="0.5998532668114317"/>
        <path id="ID0.5319394422695041" fill="none" stroke="#131313" stroke-width="1.9999999924153835" stroke-linecap="round" d="M 49.3482 278.5754 L 27.9331 281.5676 L 27.4772 270.0332 "/>
      </g>
      <g id="ID0.8820344842970371">
        <path id="ID0.3809091211296618" fill="#252525" stroke="none" stroke-linecap="round" d="M 28.0568 137.8903 L 55.5669 122.4434 L 55.6842 146.7037 L 57.3793 195.3142 L 56.3895 206.0319 L 51.8602 217.1132 L 43.879 214.5495 L 30.3327 216.565 L 28.4396 193.4526 L 27.5217 180.3958 L 28.0568 137.8903 Z " stroke-width="0.7305889820079058"/>
        <path id="ID0.9495224836282432" fill="none" stroke="#131313" stroke-width="1.9999999924153835" stroke-linecap="round" d="M 57.2863 195.3574 L 56.885 203.8479 L 54.5095 211.7446 L 45.8065 215.8382 L 44.5715 220.7854 "/>
      </g>
    </g>
    <g id="ID0.8990198895335197">
      <path id="ID0.17576928716152906" fill="#DBDBDB" stroke="none" d="M 59.1897 55.4308 L 58.9521 55.4308 L 58.9521 55.4308 L 59.1897 55.4308 L 59.1897 55.4308 Z " stroke-width="0.9578126561445575"/>
      <path id="ID0.4270821204409003" fill="#252525" stroke="none" stroke-linecap="round" d="M 57.2029 173.1964 L 56.9614 64.3652 L 73.4555 66.7586 L 79.931 71.0321 L 82.5656 74.9949 L 89.0133 86.1628 L 88.128 96.2568 L 87.1151 101.5217 L 88.5624 108.2173 L 88.9068 113.5108 L 86.7347 120.1301 L 85.0931 125.1519 L 83.7789 134.0876 L 84.7718 155.2533 L 79.7236 163.0761 L 75.0542 168.9762 L 57.2029 173.1964 Z " stroke-width="0.45605532861233733"/>
      <path id="ID0.4270821204409003" fill="#252525" stroke="none" stroke-linecap="round" d="M 57.2471 173.3464 L 57.4886 64.5152 L 40.9945 66.9086 L 34.519 71.1821 L 31.8844 75.1449 L 25.4367 86.3128 L 26.322 96.4068 L 27.3349 101.6717 L 25.8876 108.3673 L 25.5432 113.6608 L 27.7153 120.2801 L 29.3569 125.3019 L 30.6711 134.2376 L 29.6782 155.4033 L 34.7264 163.2261 L 39.3958 169.1262 L 57.2471 173.3464 Z " stroke-width="0.45605532861233733"/>
      <path id="ID0.5114514343440533" fill="#282828" stroke="none" d="M 32.3462 65.6169 L 82.7163 65.6169 L 82.7163 150.7949 L 32.3462 150.7949 L 32.3462 65.6169 Z " stroke-width="0.9660237260502915"/>
      <path id="ID0.9286923445761204" fill="#D4D4D4" stroke="none" stroke-linecap="round" d="M 47.6509 52.3831 L 64.0773 34.2991 L 57.3122 52.5209 L 58.5113 91.5842 L 22.4458 63.5506 L 41.5872 53.1184 L 47.6509 52.3831 Z " stroke-width="0.4560553998843857"/>
      <path id="ID0.9286923445761204" fill="#D4D4D4" stroke="none" stroke-linecap="round" d="M 63.1731 51.3233 L 50.0727 34.5491 L 56.8378 52.7709 L 57.9918 91.3746 L 91.7042 63.8006 L 72.9022 52.4033 L 63.1731 51.3233 Z " stroke-width="0.4560553998843857"/>
      <path id="ID0.39874776685610414" fill="#1F2022" stroke="none" stroke-linecap="round" d="M 39.7752 54.0303 L 58.6589 63.5574 L 75.6403 54.9084 L 79.4449 56.9719 L 58.4733 67.2015 L 36.2027 55.9182 L 39.7752 54.0303 Z " stroke-width="0.9033555066465148"/>
      <path id="ID0.13444371055811644" fill="#1F1F1F" stroke="none" stroke-linecap="round" d="M 56.401 65.3258 L 61.3905 65.0845 L 64.0515 92.5924 L 52.5995 93.075 L 56.401 65.3258 Z " stroke-width="0.9578126561445575"/>
      <path id="ID0.751046194229275" fill="#191919" stroke="none" stroke-linecap="round" d="M 54.1934 60.5402 L 58.6364 58.5761 L 62.9226 60.5402 L 63.3408 68.2376 L 59.1591 69.1932 L 54.1934 68.2376 L 54.1934 60.5402 Z " stroke-width="1.0535939545636304"/>
      <path id="ID0.7854711129330099" fill="#282828" stroke="none" stroke-linecap="round" d="M 45.7092 81.4949 L 59.0145 89.9403 L 72.0822 80.5297 L 70.1815 97.4205 L 48.0852 97.4205 L 45.7092 81.4949 Z " stroke-width="0.9578126561445575"/>
      <path id="ID0.562834897544235" fill="#282828" stroke="none" stroke-linecap="round" d="M 29.7904 150.506 L 58.5393 144.9561 L 58.5393 164.5012 L 45.4716 165.7077 L 29.7904 150.506 Z " stroke-width="0.9578126561445575"/>
      <path id="ID0.562834897544235" fill="#282828" stroke="none" stroke-linecap="round" d="M 87.6596 150.756 L 58.9107 145.2061 L 58.9107 164.7512 L 71.9784 165.9577 L 87.6596 150.756 Z " stroke-width="0.9578126561445575"/>
      <path id="ID0.6824178956449032" fill="none" stroke="#191919" stroke-width="1.915625312289115" stroke-linecap="round" d="M 58.7393 90.1816 L 58.5017 164.2599 "/>
      <path id="ID0.4144489667378366" fill="#40474C" stroke="none" stroke-linecap="round" d="M 21.9497 60.7433 L 41.1949 53.0218 L 38.3438 74.0147 L 41.4325 131.9261 L 32.4039 175.1183 L 21.9497 170.2923 L 21.7122 173.6705 L 24.5633 127.3414 L 20.049 85.597 L 19.0986 69.9126 L 21.9497 60.7433 Z " stroke-width="0.9578126561445575"/>
      <path id="ID0.5234400681219995" fill="#101010" stroke="none" d="M 60.8768 95.6582 C 61.269 95.6582 61.6246 95.82 61.8821 96.0815 C 62.1395 96.3429 62.2988 96.7041 62.2988 97.1024 C 62.2988 97.5007 62.1395 97.8619 61.8821 98.1234 C 61.6246 98.3848 61.269 98.5466 60.8768 98.5466 C 60.4846 98.5466 60.129 98.3848 59.8715 98.1234 C 59.6141 97.8619 59.4548 97.5007 59.4548 97.1024 C 59.4548 96.7041 59.6141 96.3429 59.8715 96.0815 C 60.129 95.82 60.4846 95.6582 60.8768 95.6582 Z " stroke-width="0.6034219623284118"/>
      <path id="ID0.5234400681219995" fill="#101010" stroke="none" d="M 60.8768 108.7582 C 61.269 108.7582 61.6246 108.92 61.8821 109.1815 C 62.1395 109.4429 62.2988 109.8041 62.2988 110.2024 C 62.2988 110.6007 62.1395 110.9619 61.8821 111.2234 C 61.6246 111.4848 61.269 111.6466 60.8768 111.6466 C 60.4846 111.6466 60.129 111.4848 59.8715 111.2234 C 59.6141 110.9619 59.4548 110.6007 59.4548 110.2024 C 59.4548 109.8041 59.6141 109.4429 59.8715 109.1815 C 60.129 108.92 60.4846 108.7582 60.8768 108.7582 Z " stroke-width="0.6034219623284118"/>
      <path id="ID0.5234400681219995" fill="#101010" stroke="none" d="M 60.8768 139.2082 C 61.269 139.2082 61.6246 139.37 61.8821 139.6315 C 62.1395 139.8929 62.2988 140.2541 62.2988 140.6524 C 62.2988 141.0507 62.1395 141.4119 61.8821 141.6734 C 61.6246 141.9348 61.269 142.0966 60.8768 142.0966 C 60.4846 142.0966 60.129 141.9348 59.8715 141.6734 C 59.6141 141.4119 59.4548 141.0507 59.4548 140.6524 C 59.4548 140.2541 59.6141 139.8929 59.8715 139.6315 C 60.129 139.37 60.4846 139.2082 60.8768 139.2082 Z " stroke-width="0.6034219623284118"/>
      <path id="ID0.5234400681219995" fill="#101010" stroke="none" d="M 60.8768 124.9082 C 61.269 124.9082 61.6246 125.07 61.8821 125.3315 C 62.1395 125.5929 62.2988 125.9541 62.2988 126.3524 C 62.2988 126.7507 62.1395 127.1119 61.8821 127.3734 C 61.6246 127.6348 61.269 127.7966 60.8768 127.7966 C 60.4846 127.7966 60.129 127.6348 59.8715 127.3734 C 59.6141 127.1119 59.4548 126.7507 59.4548 126.3524 C 59.4548 125.9541 59.6141 125.5929 59.8715 125.3315 C 60.129 125.07 60.4846 124.9082 60.8768 124.9082 Z " stroke-width="0.6034219623284118"/>
      <path id="ID0.5234400681219995" fill="#101010" stroke="none" d="M 60.7768 152.7082 C 61.169 152.7082 61.5246 152.87 61.7821 153.1315 C 62.0395 153.3929 62.1988 153.7541 62.1988 154.1524 C 62.1988 154.5507 62.0395 154.9119 61.7821 155.1734 C 61.5246 155.4348 61.169 155.5966 60.7768 155.5966 C 60.3846 155.5966 60.029 155.4348 59.7715 155.1734 C 59.5141 154.9119 59.3548 154.5507 59.3548 154.1524 C 59.3548 153.7541 59.5141 153.3929 59.7715 153.1315 C 60.029 152.87 60.3846 152.7082 60.7768 152.7082 Z " stroke-width="0.6034219623284118"/>
      <path id="ID0.4144489667378366" fill="#40474C" stroke="none" stroke-linecap="round" d="M 91.8003 59.8933 L 72.5551 52.1718 L 75.4062 73.1647 L 72.3175 131.0761 L 81.3461 174.2683 L 91.8003 169.4423 L 92.0378 172.8205 L 89.1867 126.4914 L 93.701 84.747 L 94.6514 69.0626 L 91.8003 59.8933 Z " stroke-width="0.9578126561445575"/>
      <path id="ID0.8752945330925286" fill="none" stroke="#222222" stroke-width="1.915625312289115" stroke-linecap="round" d="M 22.4249 60.9846 L 19.3362 68.4648 L 22.4249 104.9008 "/>
      <path id="ID0.8752945330925286" fill="none" stroke="#222222" stroke-width="1.915625312289115" stroke-linecap="round" d="M 91.9751 60.4846 L 95.0638 67.9648 L 91.9751 104.4008 "/>
      <path id="ID0.5234400681219995" fill="#101010" stroke="none" d="M 38.9268 139.8082 C 39.319 139.8082 39.6746 139.97 39.9321 140.2315 C 40.1895 140.4929 40.3488 140.8541 40.3488 141.2524 C 40.3488 141.6507 40.1895 142.0119 39.9321 142.2734 C 39.6746 142.5348 39.319 142.6966 38.9268 142.6966 C 38.5346 142.6966 38.179 142.5348 37.9215 142.2734 C 37.6641 142.0119 37.5048 141.6507 37.5048 141.2524 C 37.5048 140.8541 37.6641 140.4929 37.9215 140.2315 C 38.179 139.97 38.5346 139.8082 38.9268 139.8082 Z " stroke-width="0.6034219623284118"/>
      <path id="ID0.5234400681219995" fill="#101010" stroke="none" d="M 37.5768 146.8082 C 37.969 146.8082 38.3246 146.97 38.5821 147.2315 C 38.8395 147.4929 38.9988 147.8541 38.9988 148.2524 C 38.9988 148.6507 38.8395 149.0119 38.5821 149.2734 C 38.3246 149.5348 37.969 149.6966 37.5768 149.6966 C 37.1846 149.6966 36.829 149.5348 36.5715 149.2734 C 36.3141 149.0119 36.1548 148.6507 36.1548 148.2524 C 36.1548 147.8541 36.3141 147.4929 36.5715 147.2315 C 36.829 146.97 37.1846 146.8082 37.5768 146.8082 Z " stroke-width="0.6034219623284118"/>
      <g id="ID0.20783481979742646">
        <path id="ID0.5848579816520214" fill="#737373" stroke="none" stroke-linecap="round" d="M 81.7562 87.3826 L 88.2663 85.9348 L 88.1713 89.699 L 81.281 90.1816 L 81.7562 87.3826 Z " stroke-width="0.9578126561445575"/>
        <path id="ID0.13105127029120922" fill="none" stroke="#222222" stroke-width="1.915625312289115" stroke-linecap="round" d="M 79.998 90.4229 L 84.2747 90.4229 L 89.2642 88.9751 "/>
      </g>
    </g>
    <path id="ID0.46110434643924236" fill="#675B50" stroke="none" stroke-linecap="round" d="M 46.202 34.5367 L 67.6946 34.5367 L 68.1389 52.827 L 62.252 55.5778 L 46.202 53.937 L 46.202 34.5367 Z " stroke-width="1.040504872437649"/>
    <g id="ID0.8169596269726753">
      <path id="ID0.48112139804288745" fill="#3A3A3A" stroke="#3A3A3A" stroke-width="1.85139251370624" stroke-linecap="round" d="M 75.9293 11.8509 C 76.5208 12.1838 75.9209 13.523 76.1622 14.2883 C 76.356 14.9027 76.9689 15.358 77.0938 15.9899 C 77.213 16.596 76.982 17.2242 76.8609 17.8294 C 76.5199 19.5374 76.5609 21.8001 75.6964 23.1181 C 75.3498 23.5706 74.7974 21.9408 74.4388 21.3705 C 73.7056 20.2263 72.9221 19.0306 72.4359 17.8294 C 72.2039 17.2564 72.2579 16.6052 72.203 15.9899 C 72.1489 15.3791 71.8499 14.7068 72.1098 14.1503 C 72.3734 13.5856 73.0637 13.3262 73.6003 13.0006 C 74.3 12.5766 75.2399 11.54 75.9293 11.8509 Z "/>
      <path id="ID0.05099705280736089" fill="#1C1916" stroke="#1C1916" stroke-width="1.9658422573216503" stroke-linecap="round" d="M 42.4205 29.7666 C 42.1079 29.9238 42.5214 31.0665 42.6678 31.8175 C 42.7934 32.4601 43.1841 33.0344 43.5581 33.5754 C 43.9329 34.1175 44.4236 34.5765 44.8934 35.0404 C 45.3633 35.5043 45.8826 35.9193 46.3772 36.3588 C 46.8718 36.7983 47.1972 37.7115 47.8609 37.6773 C 48.5247 37.6431 49.0776 36.8579 49.1963 36.2123 C 49.4327 34.9271 49.2824 33.5403 48.8501 32.3058 C 48.6325 31.6857 47.9055 31.3722 47.3664 30.9874 C 46.8283 30.6035 46.2674 30.2119 45.6353 30.0107 C 44.7124 29.7168 43.5917 29.0204 42.7667 29.5224 Z "/>
      <path id="ID0.8999492498114705" fill="#796B5E" stroke="none" stroke-linecap="round" d="M 64.5285 3.2231 C 68.885 3.691 73.5657 6.338 75.6748 10.1302 C 78.0814 14.4598 76.5397 19.9136 76.4512 24.8063 C 76.4115 26.9532 75.6768 29.1586 75.1698 31.306 C 74.4486 34.3569 73.5812 37.2774 72.833 40.2122 C 72.3927 41.9949 72.6988 44.1235 71.6017 45.4715 C 69.8564 47.6155 67.5101 49.8095 64.7673 50.2347 C 61.5978 50.7254 58.4951 48.8985 55.4201 47.9275 C 53.8783 47.3872 52.0169 47.027 50.9726 45.7196 C 48.7348 42.9128 47.5936 39.3315 46.2237 36.0692 C 44.7854 32.6447 42.5813 29.301 42.53 25.5505 C 42.4436 19.1674 41.3456 11.3027 46.0478 6.6963 C 50.254 2.261 58.0524 2.5305 64.5285 3.2231 Z " stroke-width="0.4993605606851747"/>
      <path id="ID0.8194515448994935" fill="#796B5E" stroke="none" stroke-linecap="round" d="M 42.6048 21.6643 C 43.4496 21.7493 44.0609 22.305 44.5624 23.3392 C 45.0639 24.3735 45.3745 25.8013 45.3745 27.3776 C 45.3745 28.9539 45.0639 30.3817 44.5624 31.4159 C 44.0609 32.4502 43.4486 32.9795 42.6048 33.0909 C 41.8303 33.1915 40.8352 32.7725 40.4781 32.1142 C 39.8064 30.6512 39.9251 28.9158 39.8351 27.3776 C 39.7461 25.8658 39.39 24.2035 39.9835 22.8363 C 40.4573 22.0022 41.7195 21.5754 42.6048 21.6643 Z " stroke-width="0.9829211286608251"/>
      <path id="ID0.8256730306893587" fill="none" stroke="#675B50" stroke-width="0.9987208063912982" stroke-linecap="round" d="M 68.3832 39.8242 C 68.3832 39.8242 67.1953 39.2005 66.5454 39.2353 C 65.9376 39.2211 65.469 39.8871 64.8394 39.8823 C 64.0921 39.8763 63.462 39.2064 62.7187 39.157 C 61.5035 39.5021 60.1091 39.8441 60.1091 39.8441 "/>
      <path id="ID0.7592270169407129" fill="none" stroke="#675B50" stroke-width="0.9987211213703494" stroke-linecap="round" d="M 61.9223 42.1549 C 61.9223 42.1549 62.5374 42.4918 62.8771 42.5518 C 63.2068 42.6104 63.549 42.469 63.8822 42.5022 C 64.2174 42.536 64.528 42.7086 64.8622 42.7503 C 65.1943 42.792 65.5411 42.8237 65.8672 42.7503 C 66.1446 42.6878 66.621 42.3534 66.621 42.3534 "/>
      <path id="ID0.7592270169407129" fill="none" stroke="#675B50" stroke-width="0.9987009041634296" stroke-linecap="round" d="M 65.2163 48.1197 C 65.2163 48.1197 65.2984 48.8095 65.2257 49.1426 C 65.1554 49.4659 64.8929 49.7248 64.7976 50.0417 C 64.7019 50.3607 64.7458 50.7099 64.658 51.031 C 64.5709 51.3502 64.469 51.679 64.2764 51.949 C 64.1125 52.1787 63.6182 52.4868 63.6182 52.4868 "/>
      <g id="ID0.16937132459133863">
        <path id="ID0.7788236327469349" fill="#FFFFFF" stroke="none" stroke-linecap="round" d="M 53.9765 23.2404 L 55.3119 23.0451 L 57.5375 22.801 L 59.6642 22.8986 L 59.961 25.096 L 57.4386 25.682 L 52.4927 25.0472 L 53.9765 23.2404 Z " stroke-width="0.9829211286608251"/>
        <path id="ID0.036129117012023926" fill="#5E3B21" stroke="none" d="M 57.9639 22.9126 C 58.3665 22.9126 58.7315 23.0738 58.9956 23.3345 C 59.2597 23.5953 59.4229 23.9557 59.4229 24.3532 C 59.4229 24.7507 59.2597 25.111 58.9956 25.3718 C 58.7315 25.6326 58.3665 25.7937 57.9639 25.7937 C 57.5613 25.7937 57.1963 25.6326 56.9322 25.3718 C 56.668 25.111 56.5048 24.7507 56.5048 24.3532 C 56.5048 23.9557 56.668 23.5953 56.9322 23.3345 C 57.1963 23.0738 57.5613 22.9126 57.9639 22.9126 Z " stroke-width="0.9829211286608251"/>
        <path id="ID0.9171876185573637" fill="#191009" stroke="none" d="M 58.2853 23.5986 C 58.4901 23.5986 58.6751 23.6807 58.8096 23.8135 C 58.9441 23.9463 59.0272 24.1289 59.0272 24.3311 C 59.0272 24.5333 58.9441 24.7159 58.8096 24.8487 C 58.6751 24.9815 58.4901 25.0636 58.2853 25.0636 C 58.0806 25.0636 57.8956 24.9815 57.7611 24.8487 C 57.6266 24.7159 57.5435 24.5333 57.5435 24.3311 C 57.5435 24.1289 57.6266 23.9463 57.7611 23.8135 C 57.8956 23.6807 58.0806 23.5986 58.2853 23.5986 Z " stroke-width="0.9829211286608251"/>
      </g>
      <g id="ID0.3830250068567693">
        <path id="ID0.7788236327469349" fill="#FFFFFF" stroke="none" stroke-linecap="round" d="M 73.123 23.4381 L 71.4414 22.901 L 69.5125 22.901 L 67.3858 22.9986 L 67.089 25.196 L 69.6114 25.782 L 74.2111 25.3425 L 73.123 23.4381 Z " stroke-width="0.9829211286608251"/>
        <g id="ID0.8607796453870833">
          <path id="ID0.036129117012023926" fill="#5E3B21" stroke="none" d="M 71.0639 22.9126 C 71.4665 22.9126 71.8315 23.0738 72.0956 23.3345 C 72.3597 23.5953 72.5229 23.9557 72.5229 24.3532 C 72.5229 24.7507 72.3597 25.111 72.0956 25.3718 C 71.8315 25.6326 71.4665 25.7937 71.0639 25.7937 C 70.6613 25.7937 70.2963 25.6326 70.0322 25.3718 C 69.768 25.111 69.6048 24.7507 69.6048 24.3532 C 69.6048 23.9557 69.768 23.5953 70.0322 23.3345 C 70.2963 23.0738 70.6613 22.9126 71.0639 22.9126 Z " stroke-width="0.9829211286608251"/>
          <path id="ID0.9171876185573637" fill="#191009" stroke="none" d="M 71.3853 23.5486 C 71.5901 23.5486 71.7751 23.6307 71.9096 23.7635 C 72.0441 23.8963 72.1272 24.0789 72.1272 24.2811 C 72.1272 24.4833 72.0441 24.6659 71.9096 24.7987 C 71.7751 24.9315 71.5901 25.0136 71.3853 25.0136 C 71.1806 25.0136 70.9956 24.9315 70.8611 24.7987 C 70.7266 24.6659 70.6435 24.4833 70.6435 24.2811 C 70.6435 24.0789 70.7266 23.8963 70.8611 23.7635 C 70.9956 23.6307 71.1806 23.5486 71.3853 23.5486 Z " stroke-width="0.9829211286608251"/>
        </g>
      </g>
      <path id="ID0.2118154256604612" fill="#1C1916" stroke="#1C1916" stroke-width="1.9658422573216503" stroke-linecap="round" d="M 41.7848 19.7003 C 41.7571 20.2032 42.0153 22.469 42.774 23.7533 C 43.054 24.227 43.3052 22.5012 43.6148 21.8977 C 43.9145 21.3127 44.3171 20.7794 44.604 20.1886 C 44.9106 19.5567 45.1609 18.8965 45.3953 18.2353 C 45.6228 17.5947 45.8068 16.9364 45.9888 16.2821 C 46.1689 15.6355 46.251 14.9587 46.4834 14.3288 C 46.7149 13.6999 47.0611 13.1158 47.3737 12.522 C 47.6872 11.9282 47.8415 11.1928 48.3628 10.7641 C 48.899 10.3227 49.6458 10.141 50.3412 10.0805 C 51.0079 10.0228 51.6607 10.3109 52.3195 10.4223 C 53.011 10.5385 53.7103 10.6235 54.3968 10.7641 C 55.0615 10.8999 55.7243 11.063 56.3751 11.2524 C 57.0092 11.437 57.6274 11.6812 58.2546 11.8872 C 58.9114 12.1031 59.587 12.274 60.2329 12.522 C 60.8581 12.7623 61.4229 13.1549 62.0629 13.3522 C 62.7009 13.5485 63.3893 13.8434 64.0412 13.694 C 64.696 13.5436 65.1234 12.9029 65.6733 12.522 C 66.2273 12.1392 66.7506 11.6978 67.3549 11.3989 C 67.9465 11.1069 68.5855 10.8911 69.2344 10.7641 C 70.3343 10.5502 71.6014 10.1615 72.7954 10.4223 C 73.9389 10.6743 75.2723 12.6549 75.9113 12.229 C 76.5176 11.8208 75.5868 9.8597 75.0705 8.7132 C 74.5126 7.4768 73.6569 6.3585 72.6965 5.3926 C 71.7706 4.4619 70.6964 3.6103 69.4817 3.0976 C 68.2491 2.577 66.8524 2.5506 65.525 2.3651 C 64.8721 2.2733 64.2034 2.3319 63.5466 2.2674 C 62.8839 2.202 62.234 2.0076 61.5683 1.9744 C 60.2527 1.909 58.9153 1.7889 57.6116 1.9744 C 56.2544 2.1668 54.9764 2.7391 53.6549 3.0976 C 53.0001 3.2753 52.3245 3.3837 51.6766 3.5859 C 50.3956 3.9863 49.1166 4.4131 47.8682 4.9043 C 47.252 5.1465 46.5843 5.3497 46.0877 5.7833 C 45.5635 6.2404 45.337 6.9533 44.9007 7.4924 C 44.4784 8.0139 43.87 8.3889 43.5159 8.9573 C 43.1479 9.5492 42.961 10.2406 42.774 10.9106 C 42.597 11.5474 42.4862 12.2056 42.4278 12.8639 C 42.3704 13.5114 42.5099 14.1716 42.4278 14.8171 C 42.3437 15.4822 42.0954 16.119 41.9332 16.7704 C 41.7997 17.3066 41.4713 17.8339 41.5376 18.3818 Z "/>
      <path id="ID0.5261953212320805" fill="none" stroke="#1C1916" stroke-width="1.9658422573216503" stroke-linecap="round" d="M 51.5282 22.2652 C 51.5282 22.2652 52.3937 21.1226 53.0119 20.8003 C 53.6035 20.4917 54.3216 20.4585 54.9903 20.4585 C 55.659 20.4585 56.3029 20.7319 56.9686 20.8003 C 58.216 20.9272 60.7275 21.0444 60.7275 21.0444 "/>
      <path id="ID0.5261953212320805" fill="none" stroke="#1C1916" stroke-width="1.9658422573216503" stroke-linecap="round" d="M 75.3718 22.0152 C 75.3718 22.0152 74.5063 20.8726 73.8881 20.5503 C 73.2965 20.2417 72.5784 20.2085 71.9097 20.2085 C 71.241 20.2085 70.5971 20.4819 69.9314 20.5503 C 68.684 20.6772 66.1725 20.7944 66.1725 20.7944 "/>
      <path id="ID0.8619630038738251" fill="none" stroke="#675B50" stroke-width="1.1552938483768196" stroke-linecap="round" d="M 63.6831 24.4719 C 63.6831 24.4719 64.0173 27.2975 64.1772 28.6617 C 64.269 29.428 64.1132 30.2877 64.4969 30.9575 C 64.9643 31.718 66.0676 31.7002 66.3281 32.3924 C 66.6792 33.1162 66.7908 34.4558 66.0956 34.6595 C 65.0387 34.9689 64.0633 33.6431 62.8983 33.5403 C 62.2728 33.4858 61.1834 34.3151 61.1834 34.3151 "/>
      <path id="ID0.6736386958509684" fill="none" stroke="#675B50" stroke-width="1.2323190411433007" stroke-linecap="round" d="M 51.4 31.2966 C 51.4 31.2966 51.9339 32.0313 52.2371 32.368 C 52.5137 32.6753 52.8547 32.922 53.1363 33.2251 C 53.424 33.5349 53.7439 33.833 53.9424 34.2046 C 54.1439 34.5811 54.3001 35.0036 54.3144 35.4291 C 54.3522 36.5721 54.0974 38.8575 54.0974 38.8575 "/>
      <path id="ID0.18298013787716627" fill="#1C1916" stroke="#1C1916" stroke-width="1.9658422573216503" stroke-linecap="round" d="M 51.3266 9.634 C 50.9062 9.8332 50.4363 10.7376 50.5847 11.5872 C 50.8201 12.9301 52.0694 14.3482 51.8211 15.4938 C 51.6985 16.0573 50.462 15.2818 49.8428 15.0054 C 49.2394 14.7359 48.7419 14.2739 48.2107 13.8823 C 47.6379 13.4604 46.8743 13.1821 46.5291 12.5639 C 46.2096 11.9925 46.1334 11.2151 46.3807 10.6106 C 46.629 10.0022 47.2769 9.5988 47.8645 9.2921 C 48.4649 8.9786 49.1672 8.8741 49.8428 8.8038 C 50.1287 8.7745 50.6104 8.7247 50.6836 8.9992 Z "/>
      <path id="ID0.7592270169407129" fill="none" stroke="#675B50" stroke-width="0.9987156615504462" stroke-linecap="round" d="M 64.0139 16.8834 C 64.0139 16.8834 64.2345 17.5429 64.2309 17.8836 C 64.2278 18.2143 64.0233 18.5199 63.9942 18.8493 C 63.9653 19.1807 64.0793 19.5142 64.0585 19.8461 C 64.038 20.1761 64.005 20.5184 63.8711 20.8211 C 63.7572 21.0785 63.3356 21.4783 63.3356 21.4783 "/>
      <path id="ID0.48112139804288745" fill="#3A3A3A" stroke="#3A3A3A" stroke-width="1.85139251370624" stroke-linecap="round" d="M 42.3707 13.2509 C 41.7792 13.5838 42.3791 14.923 42.1378 15.6883 C 41.944 16.3027 41.3311 16.758 41.2062 17.3899 C 41.087 17.996 41.318 18.6242 41.4391 19.2294 C 41.7801 20.9374 41.7391 23.2001 42.6036 24.5181 C 42.9502 24.9706 43.5026 23.3408 43.8612 22.7705 C 44.5944 21.6263 45.3779 20.4306 45.8641 19.2294 C 46.0961 18.6564 46.0421 18.0052 46.097 17.3899 C 46.1511 16.7791 46.4501 16.1068 46.1902 15.5503 C 45.9266 14.9856 45.2363 14.7262 44.6997 14.4006 C 44 13.9766 43.0601 12.94 42.3707 13.2509 Z "/>
    </g>
  </g>
</svg>