<svg xmlns="http://www.w3.org/2000/svg" xmlns:xlink="http://www.w3.org/1999/xlink" version="1.1" width="110.52574013371166" height="337.7691483368367" viewBox="2.0473237102285213 -0.6115763122781926 110.52574013371166 337.7691483368367">
  <defs>
    <linearGradient id="grad_1" y2="1" x2="0">
      <stop offset="0" stop-color="#222325" stop-opacity="1"/>
      <stop offset="1" stop-color="#2E3034" stop-opacity="1"/>
    </linearGradient>
  </defs>
  <!-- Exported by Scratch - http://scratch.mit.edu/ -->
  <g id="ID0.9602425838820636">
    <g id="ID0.17693647183477879">
      <path id="ID0.7729651997797191" fill="#393C40" stroke="none" stroke-linecap="round" d="M 98.5487 101.6786 L 79.3206 103.4654 L 83.3425 119.5048 L 86.486 132.4556 L 90.3585 137.7856 L 93.7731 140.9875 L 105.7321 137.2915 L 106.9129 131.6043 L 101.0458 112.7021 L 98.5487 101.6786 Z " stroke-width="0.7788099571385078"/>
      <path id="ID0.9716172609478235" fill="#34373A" stroke="none" stroke-linecap="round" d="M 94.7576 107.3718 L 99.3555 104.9643 L 97.3651 98.7946 L 80.4989 108.6093 L 83.4715 111.3968 L 88.7833 113.0183 L 94.7576 107.3718 Z " stroke-width="0.7788099571385078"/>
      <g id="ID0.38066427363082767">
        <path id="ID0.4757494777441025" fill="#1D1E1F" stroke="none" stroke-linecap="round" d="M 88.731 78.1639 L 80.4942 76.3837 L 65.4364 81.5255 L 74.0476 105.5602 L 84.0742 110.0094 L 88.4196 110.8922 L 91.4108 108.5239 L 94.0433 105.5992 L 99.4105 102.9274 L 99.3562 97.7033 L 98.4273 90.008 L 95.1078 82.1623 L 88.731 78.1639 Z " stroke-width="0.4541860702289205"/>
        <path id="ID0.6007084371522069" fill="none" stroke="#0D0D0D" stroke-width="0.908372140457841" stroke-linecap="round" d="M 98.9675 103.2825 L 94.1568 105.5956 L 90.1843 109.245 L 88.4232 111.0057 L 84.0742 110.0094 L 79.8059 107.9881 "/>
      </g>
    </g>
    <g id="ID0.7397577832452953">
      <path id="ID0.6726378230378032" fill="#34373A" stroke="none" stroke-linecap="round" d="M 106.0916 128.8986 L 90.9179 138.0355 L 91.7663 140.1901 L 106.5458 130.91 L 106.0916 128.8986 Z " stroke-width="0.7788099571385078"/>
      <path id="ID0.6507829907350242" fill="#1D1E1F" stroke="none" stroke-linecap="round" d="M 109.3865 129.7716 L 91.6012 140.0833 L 92.5721 158.1688 L 94.8433 168.2255 L 95.3374 183.5991 L 94.9537 189.8451 L 106.4978 191.4221 L 106.4922 185.1886 L 107.9435 175.7914 L 110.2864 163.8332 L 111.7438 154.6306 L 109.3865 129.7716 Z " stroke-width="0.7788099571385078"/>
      <path id="ID0.6829322893172503" fill="#1D1E1F" stroke="none" stroke-linecap="round" d="M 106.8745 191.0204 L 96.7934 186.4743 L 93.8487 191.8287 L 90.138 197.5972 L 90.3131 203.0461 L 91.0408 207.5032 L 93.0806 210.3596 L 94.6492 216.7377 L 99.1188 216.3993 L 100.2239 214.4157 L 101.7744 214.1711 L 104.8067 211.5412 L 108.0212 208.5158 L 109.8296 204.1721 L 108.8323 197.386 L 106.8745 191.0204 Z " stroke-width="0.7788099571385078"/>
      <path id="ID0.47767175547778606" fill="none" stroke="#0D0D0D" stroke-width="1.5576199142770155" stroke-linecap="round" d="M 109.5078 133.5468 L 109.1103 129.6635 L 91.679 140.0808 L 92.4195 153.4205 "/>
      <path id="ID0.5922487881034613" fill="#282A2B" stroke="none" stroke-linecap="round" d="M 111.2412 162.1123 L 104.3353 156.9577 L 98.4998 157.2232 L 92.7665 163.0957 L 94.5878 177.3357 L 99.295 184.3921 L 102.6032 184.2858 L 108.2161 177.0925 L 111.2412 162.1123 Z " stroke-width="0.7788099571385078"/>
      <path id="ID0.36820242274552584" fill="#151616" stroke="none" stroke-linecap="round" d="M 105.499 165.0576 L 97.401 165.2399 L 100.3225 176.1329 L 101.7601 176.0088 L 105.499 165.0576 Z " stroke-width="0.7788099571385078"/>
      <path id="ID0.13569410238415003" fill="none" stroke="#232425" stroke-width="1.5576199142770155" stroke-linecap="round" d="M 106.4921 175.4874 L 101.2634 182.5125 L 96.0565 175.667 "/>
      <path id="ID0.024502143263816833" fill="none" stroke="#0D0D0D" stroke-width="1.5576199142770155" stroke-linecap="round" d="M 110.9269 161.9425 L 104.7316 157.0767 L 98.9639 157.0283 L 93.1528 162.9033 L 94.2717 171.0491 "/>
    </g>
  </g>
  <path id="ID0.3809091211296618" fill="#393D40" stroke="none" stroke-linecap="round" d="M 61.1102 182.7859 L 87.4473 171.7931 L 88.7523 210.5648 L 87.2922 221.4129 L 81.1712 238.9891 L 72.4279 241.2045 L 59.4278 241.8723 L 60.4961 221.0802 L 62.8431 209.8659 L 61.1102 182.7859 Z " stroke-width="0.7305889607695778"/>
  <g id="ID0.9340031337924302">
    <path id="ID0.05466862628236413" fill="#292D2E" stroke="none" stroke-linecap="round" d="M 58.1158 232.8406 L 84.7709 234.9621 L 75.8269 252.2602 L 73.1718 256.825 L 68.5665 274.3733 L 56.4187 313.2731 L 40.7186 311.6233 L 43.5055 289.5493 L 42.7624 280.5242 L 43.5589 271.0382 L 48.5892 258.3302 L 51.329 246.3175 L 58.1158 232.8406 Z " stroke-width="0.7305890607942443"/>
    <path id="ID0.4490455654449761" fill="none" stroke="#272A2B" stroke-width="1.6585526337116587" stroke-linecap="round" d="M 57.7266 233.0908 L 84.4577 234.8333 L 72.414 257.1224 "/>
    <path id="ID0.10446935473009944" fill="none" stroke="#242728" stroke-width="1.6585526337116587" stroke-linecap="round" d="M 69.3416 269.0707 L 65.4371 285.4501 L 53.5221 290.2585 "/>
    <path id="ID0.42170455446466804" fill="none" stroke="#242728" stroke-width="1.6585526337116587" stroke-linecap="round" d="M 64.1033 286.3398 L 59.3338 300.7014 L 47.1611 305.6497 "/>
    <path id="ID0.047098892275244" fill="none" stroke="#242728" stroke-width="1.6585526337116587" stroke-linecap="round" d="M 51.5989 246.0935 L 50.2664 249.8014 L 52.6814 259.4347 "/>
  </g>
  <path id="ID0.3809091211296618" fill="#3E4246" stroke="none" stroke-linecap="round" d="M 36.4705 161.957 L 61.7656 170.7353 L 71.9899 208.1574 L 73.0747 219.0494 L 71.1786 237.5641 L 63.1834 241.739 L 50.689 245.3912 L 46.0341 224.1227 L 41.8773 211.3669 L 36.4705 161.957 Z " stroke-width="0.7305889492156714"/>
  <g id="ID0.17693647183477879">
    <path id="ID0.7729651997797191" fill="#3E4246" stroke="none" stroke-linecap="round" d="M 16.0746 101.3224 L 36.2736 102.6778 L 32.49 119.5952 L 29.544 133.2521 L 25.6289 138.9421 L 22.1366 142.3896 L 9.5042 138.8378 L 8.1137 132.9093 L 13.7541 112.9422 L 16.0746 101.3224 Z " stroke-width="0.8164595839229583"/>
    <path id="ID0.9716172609478235" fill="#393C40" stroke="none" stroke-linecap="round" d="M 20.2007 107.1869 L 15.3174 104.7875 L 17.2375 98.2681 L 35.1771 108.1003 L 32.1368 111.1016 L 26.6136 112.9437 L 20.2007 107.1869 Z " stroke-width="0.8164595839229583"/>
    <g id="ID0.38066427363082767">
      <path id="ID0.4757494777441025" fill="#1D1E1F" stroke="none" stroke-linecap="round" d="M 25.5633 76.4728 L 34.1475 74.3856 L 50.0664 79.3692 L 41.6883 104.7892 L 31.3 109.7215 L 26.7699 110.7636 L 23.5714 108.3621 L 20.7338 105.3678 L 15.0372 102.7121 L 14.9536 97.2358 L 15.7202 89.1462 L 18.988 80.8346 L 25.5633 76.4728 Z " stroke-width="0.4761425407545711"/>
      <path id="ID0.6007084371522069" fill="none" stroke="#0D0D0D" stroke-width="0.9522850815091422" stroke-linecap="round" d="M 15.511 103.0723 L 20.6148 105.367 L 24.8761 109.0848 L 26.7691 110.8826 L 31.3 109.7215 L 35.7189 107.4884 "/>
    </g>
  </g>
  <g id="ID0.7397577832452953">
    <path id="ID0.6726378230378032" fill="#393C40" stroke="none" stroke-linecap="round" d="M 9.6015 129.5255 L 25.1766 139.6353 L 24.2115 141.8627 L 9.0545 131.6169 L 9.6015 129.5255 Z " stroke-width="0.8164595826565703"/>
    <path id="ID0.6507829907350242" fill="#1D1E1F" stroke="none" stroke-linecap="round" d="M 6.2256 130.4789 L 24.4954 141.912 L 22.8386 160.8266 L 20.1033 171.2832 L 19.042 187.3733 L 19.2231 193.9312 L 7.0721 195.1752 L 7.2983 188.6443 L 6.1101 178.7471 L 4.0782 166.135 L 2.8766 156.4415 L 6.2256 130.4789 Z " stroke-width="0.8164595826565703"/>
    <path id="ID0.6829322893172503" fill="#1D1E1F" stroke="none" stroke-linecap="round" d="M 6.6916 194.741 L 17.4148 190.3344 L 20.3108 196.0485 L 23.9946 202.2237 L 23.6185 207.9265 L 22.6984 212.5707 L 20.4602 215.4914 L 18.5911 222.1185 L 13.9201 221.6059 L 12.8324 219.4886 L 11.2165 219.1774 L 8.1324 216.3147 L 4.8715 213.0312 L 3.1303 208.4161 L 4.4152 201.3413 L 6.6916 194.741 Z " stroke-width="0.8164595826565703"/>
    <path id="ID0.47767175547778606" fill="none" stroke="#0D0D0D" stroke-width="1.6329191653131405" stroke-linecap="round" d="M 5.965 134.4302 L 6.5188 130.3755 L 24.4139 141.9066 L 23.1664 155.857 "/>
    <path id="ID0.5922487881034613" fill="#282A2B" stroke="none" stroke-linecap="round" d="M 2.8934 164.3596 L 10.3113 159.2031 L 16.4161 159.6876 L 22.2154 166.0432 L 19.8036 180.8987 L 14.6221 188.1256 L 11.1597 187.8972 L 5.5331 180.162 L 2.8934 164.3596 Z " stroke-width="0.8164595826565703"/>
    <path id="ID0.36820242274552584" fill="#151616" stroke="none" stroke-linecap="round" d="M 9.092 167.3917 L 17.5701 167.8691 L 14.1239 179.1789 L 12.6221 178.998 L 9.092 167.3917 Z " stroke-width="0.8164595826565703"/>
    <path id="ID0.13569410238415003" fill="none" stroke="#232425" stroke-width="1.6329191653131405" stroke-linecap="round" d="M 7.6415 178.4799 L 12.8714 186.0254 L 18.5691 179.0371 "/>
    <path id="ID0.024502143263816833" fill="none" stroke="#0D0D0D" stroke-width="1.6329191653131405" stroke-linecap="round" d="M 3.474 164.1314 L 10.1371 159.2524 L 16.1819 159.4057 L 22.0628 165.7667 L 20.6023 174.2618 "/>
  </g>
  <g id="ID0.9157347986474633">
    <path id="ID0.7477802094072104" fill="#363A3D" stroke="none" stroke-linecap="round" d="M 92.1154 124.4715 L 72.6382 120.9715 L 71.7831 162.1489 L 88.2591 171.4206 L 91.0532 146.952 L 92.1154 124.4715 Z " stroke-width="0.47614257300029306"/>
    <path id="ID0.7477802094072104" fill="#363A3D" stroke="none" stroke-linecap="round" d="M 31.7831 123.2358 L 55.2874 120.8664 L 54.4323 162.0439 L 37.5855 170.6236 L 32.6325 145.3988 L 31.7831 123.2358 Z " stroke-width="0.47614257300029306"/>
    <path id="ID0.4270821204409003" fill="#3E4246" stroke="none" stroke-linecap="round" d="M 32.5179 103.1385 L 36.5858 90.7215 L 38.968 84.937 L 45.6594 78.0513 L 76.6913 80.1245 L 83.505 84.5522 L 86.2772 88.6578 L 93.0615 100.2286 L 92.13 110.6866 L 91.0642 116.1413 L 92.587 123.0785 L 92.9494 128.5629 L 90.6639 135.421 L 88.9366 140.6238 L 87.5537 149.8818 L 88.5985 171.8108 L 83.2868 179.9158 L 78.3736 186.0287 L 66.1457 191.204 L 54.6169 187.9404 L 50.8289 181.1467 L 46.0115 174.6174 L 37.5309 171.3457 L 36.9148 145.9728 L 35.8631 139.2835 L 31.5303 127.7637 L 30.4461 116.9066 L 32.5179 103.1385 Z " stroke-width="0.47614257300029306"/>
    <path id="ID0.052435632329434156" fill="#393C40" stroke="none" stroke-linecap="round" d="M 43.6176 153.3064 L 48.0676 153.4464 L 54.5926 156.868 L 59.6659 156.8067 L 65.5079 158.7139 L 69.7193 157.7298 L 71.3953 157.2884 L 85.6758 154.1797 L 85.9646 157.4718 L 77.3094 161.4592 L 71.3653 161.0263 L 65.7086 163.9568 L 59.1172 160.2957 L 52.6817 160.5907 L 42.883 156.5772 L 43.6176 153.3064 Z " stroke-width="0.47614257300029306"/>
    <path id="ID0.4987568911164999" fill="none" stroke="#27282B" stroke-width="0.9522851460005861" stroke-linecap="round" d="M 45.4282 78.7223 L 38.8732 84.7774 L 35.3333 94.705 "/>
    <path id="ID0.2889464790932834" fill="none" stroke="#27282B" stroke-width="0.9522851460005861" stroke-linecap="round" d="M 78.0073 80.8276 L 83.6407 84.7545 L 89.1604 94.1559 "/>
    <path id="ID0.8373676878400147" fill="#000000" stroke="#2C2F31" stroke-width="0.6155104186945868" stroke-linecap="round" d="M 48.7718 91.8289 L 49.1477 90.3053 L 45.4906 91.1437 L 40.5712 94.3904 L 36.345 99.3623 L 33.7859 104.9474 L 38.9649 102.7905 L 43.6638 102.7687 L 46.3933 103.7374 L 48.8766 106.7745 L 50.9998 105.7908 L 55.0137 105.5844 L 59.5076 106.7087 L 63.2907 109.9577 L 65.3094 113.0511 L 67.5215 110.069 L 71.2778 107.0016 L 75.42 105.6457 L 80.5766 105.7213 L 82.3974 106.3414 L 84.1518 103.2619 L 86.1315 102.0408 L 88.7243 102.6183 L 91.4998 104.2822 L 90.1302 100.4475 L 87.9186 96.4983 L 85.1278 93.4475 L 81.9954 91.1516 L 77.4947 90.1811 L 79.6416 92.125 L 79.5629 93.8928 L 77.9298 95.9766 L 74.336 97.1258 L 71.1675 97.3698 L 68.5473 97.4072 L 66.0914 93.7552 L 65.6147 95.8134 L 64.1543 95.7484 L 62.6463 93.2938 L 61.6126 97.4836 L 57.5286 97.5328 L 53.4156 96.5025 L 50.0919 95.0453 L 48.7718 91.8289 Z "/>
    <path id="ID0.5698574706912041" fill="none" stroke="#313537" stroke-width="0.9522851460005861" stroke-linecap="round" d="M 43.5497 153.1383 L 42.8879 156.3392 L 52.6792 160.7097 L 59.4702 160.4935 L 65.473 163.8328 "/>
    <path id="ID0.5698574706912041" fill="none" stroke="#313537" stroke-width="0.8933066257048137" stroke-linecap="round" d="M 85.4201 154.2278 L 85.8721 157.4518 L 77.1747 161.4384 L 71.2685 160.9586 L 65.9108 164.0619 "/>
    <path id="ID0.8947288258932531" fill="#393C40" stroke="none" stroke-linecap="round" d="M 45.1069 141.2169 L 52.131 141.2437 L 59.6367 143.3045 L 65.1869 148.9442 L 58.1848 144.4173 L 47.4575 142.6944 L 42.2773 145.611 L 45.1069 141.2169 Z " stroke-width="0.47614257300029306"/>
    <path id="ID0.8947288258932531" fill="#393C40" stroke="none" stroke-linecap="round" d="M 83.8687 143.0222 L 77.657 142.7878 L 70.9447 144.3343 L 65.8299 149.1171 L 72.1875 145.3716 L 81.7361 144.2423 L 86.2093 147.0115 L 83.8687 143.0222 Z " stroke-width="0.4213738884176943"/>
    <path id="ID0.9897695370018482" fill="#393C40" stroke="none" stroke-linecap="round" d="M 48.3037 153.5466 L 41.768 152.9346 L 42.2928 148.3021 L 43.4103 151.8257 L 48.5009 152.0743 L 54.5692 155.7007 L 60.0511 155.4574 L 64.1153 156.9705 L 65.659 149.1445 L 65.6933 158.9559 L 60.1414 156.8403 L 54.2623 156.7183 L 48.3037 153.5466 Z " stroke-width="0.47614257300029306"/>
    <path id="ID0.9897695370018482" fill="#393C40" stroke="none" stroke-linecap="round" d="M 80.6103 154.4693 L 86.155 154.1415 L 85.8823 149.8173 L 84.8083 153.0505 L 80.4979 153.0939 L 75.237 156.2401 L 70.6142 155.8119 L 67.1244 157.0682 L 66.1086 149.7389 L 65.7179 158.855 L 70.4868 157.0937 L 75.4588 157.197 L 80.6103 154.4693 Z " stroke-width="0.4232251205631144"/>
    <path id="ID0.3524594851769507" fill="#393C40" stroke="none" stroke-linecap="round" d="M 59.4472 119.0607 L 65.3046 121.3731 L 69.804 119.1329 L 66.5593 122.8755 L 67.28 134.0346 L 76.3664 133.366 L 65.867 136.7199 L 54.3014 131.7887 L 63.9468 134.013 L 63.7764 122.7225 L 59.4472 119.0607 Z " stroke-width="0.47614257300029306"/>
    <path id="ID0.9214867809787393" fill="#393C40" stroke="none" stroke-linecap="round" d="M 45.1875 137.3371 L 48.2502 133.186 L 53.0304 132.3327 L 47.1001 136.972 L 46.8012 139.8947 L 51.8463 140.0471 L 59.9436 143.4299 L 51.0098 141.3394 L 45.1545 141.2178 L 45.1875 137.3371 Z " stroke-width="0.47614257300029306"/>
    <path id="ID0.9214867809787393" fill="#393C40" stroke="none" stroke-linecap="round" d="M 83.622 138.9159 L 80.9825 134.8388 L 76.6446 133.8397 L 81.8873 138.4935 L 82.0471 141.292 L 77.428 141.2415 L 70.7251 143.9429 L 78.1427 142.5062 L 83.5015 142.6175 L 83.622 138.9159 Z " stroke-width="0.4451788453890468"/>
    <path id="ID0.8679121839813888" fill="#2C2F31" stroke="none" stroke-linecap="round" d="M 61.4241 118.0054 L 65.1988 119.703 L 68.5652 118.1299 L 69.4975 119.1017 L 65.5148 121.686 L 59.8012 119.329 L 61.4241 118.0054 Z " stroke-width="0.47614257300029306"/>
    <path id="ID0.24770551454275846" fill="none" stroke="#313537" stroke-width="0.9522851460005861" stroke-linecap="round" d="M 65.4959 116.1296 L 70.0631 119.7963 L 77.5509 120.4281 L 85.1898 119.5151 L 90.5053 115.8156 "/>
    <path id="ID0.20603158557787538" fill="none" stroke="#313537" stroke-width="0.9522851460005861" stroke-linecap="round" d="M 32.2476 111.4286 L 39.158 116.9298 L 51.4683 120.4001 L 58.7403 119.9558 L 65.0103 116.157 "/>
    <g id="ID0.5272086253389716">
      <path id="ID0.24770551454275846" fill="none" stroke="#363A3D" stroke-width="0.9522850864087884" stroke-linecap="round" d="M 34.9879 144.0256 L 44.9553 141.0655 "/>
      <path id="ID0.24770551454275846" fill="none" stroke="#363A3D" stroke-width="0.9522850864087884" stroke-linecap="round" d="M 32.6542 132.0538 L 53.2053 126.2655 "/>
    </g>
    <g id="ID0.5272086253389716">
      <path id="ID0.24770551454275846" fill="none" stroke="#363A3D" stroke-width="0.9522850864087884" stroke-linecap="round" d="M 90.4797 144.2318 L 83.5807 142.2557 "/>
      <path id="ID0.24770551454275846" fill="none" stroke="#363A3D" stroke-width="0.9522850864087884" stroke-linecap="round" d="M 91.2029 132.8424 L 77.4298 127.7945 "/>
    </g>
    <g id="ID0.7887678607366979">
      <path id="ID0.753661650698632" fill="none" stroke="#313537" stroke-width="0.9522850864087884" stroke-linecap="round" d="M 59.9207 119.1896 L 65.1078 121.6786 L 69.2085 119.1444 "/>
      <g id="ID0.8167418288066983">
        <path id="ID0.9553722990676761" fill="none" stroke="#313537" stroke-width="1.0409107743576298" stroke-linecap="round" d="M 65.4063 136.5479 L 59.8392 134.2892 L 53.706 132.2569 L 48.9163 133.1099 L 45.3201 137.3214 L 45.2484 140.7727 "/>
        <path id="ID0.5982440118677914" fill="none" stroke="#313537" stroke-width="0.8540413396238158" stroke-linecap="round" d="M 54.0334 131.8556 L 52.9532 126.5387 L 58.3362 119.5913 "/>
      </g>
      <g id="ID0.7324484633281827">
        <path id="ID0.04993448918685317" fill="none" stroke="#313537" stroke-width="0.9522850864087884" stroke-linecap="round" d="M 65.1102 121.5595 L 65.6068 132.0472 L 65.7418 148.4805 L 65.6413 164.7898 "/>
        <g id="ID0.8167418288066983">
          <path id="ID0.9553722990676761" fill="none" stroke="#313537" stroke-width="0.9699703077304642" stroke-linecap="round" d="M 65.7502 136.4275 L 70.8128 135.1754 L 76.2815 133.384 L 80.457 134.4232 L 83.4528 138.7716 L 83.3811 142.2229 "/>
          <path id="ID0.5982440118677914" fill="none" stroke="#313537" stroke-width="0.7916616152166959" stroke-linecap="round" d="M 76.0361 133.0336 L 77.1927 127.7632 L 72.7336 120.6113 "/>
          <path id="ID0.3567589442245662" fill="none" stroke="#313537" stroke-width="0.8967655150693851" stroke-linecap="round" d="M 65.6263 149.1264 L 70.8586 144.2583 L 78.2253 142.5063 L 83.7521 142.6211 L 85.8958 147.309 L 86.0431 154.3367 L 80.4805 154.9355 L 74.7638 157.9124 L 69.8491 157.5722 L 65.6031 159.3176 L 59.8142 156.6971 L 54.2197 156.819 L 47.8569 153.5913 L 41.5704 152.7464 L 42.0511 145.7318 L 44.7016 141.1434 L 50.982 141.2738 L 59.2746 143.351 L 64.9911 148.4465 Z "/>
        </g>
      </g>
    </g>
    <g id="ID0.9312638868577778">
      <path id="ID0.2888958193361759" fill="#393C40" stroke="none" stroke-linecap="round" d="M 45.9592 161.4331 L 56.1308 163.729 L 55.4755 166.6319 L 45.3039 164.3359 L 45.9592 161.4331 Z " stroke-width="0.4761425459216224"/>
      <path id="ID0.2888958193361759" fill="#393C40" stroke="none" stroke-linecap="round" d="M 35.2081 159.1286 L 46.6308 161.829 L 45.9755 164.7319 L 35.8039 162.4359 L 35.2081 159.1286 Z " stroke-width="0.4761425459216224"/>
      <g id="ID0.36424446757882833">
        <path id="ID0.7359844641759992" fill="#8A7B59" stroke="none" d="M 48.8379 160.7806 L 50.3612 160.8122 L 50.2318 167.0484 L 48.7084 167.0167 L 48.8379 160.7806 Z " stroke-width="0.4761425432043942"/>
        <path id="ID0.7359844641759992" fill="#8A7B59" stroke="none" d="M 46.9879 160.3306 L 48.5112 160.3622 L 48.3818 166.5984 L 46.8584 166.5667 L 46.9879 160.3306 Z " stroke-width="0.4761425432043942"/>
        <path id="ID0.7359844641759992" fill="#8A7B59" stroke="none" d="M 45.0379 159.6306 L 46.5612 159.6622 L 46.4318 165.8984 L 44.9084 165.8667 L 45.0379 159.6306 Z " stroke-width="0.4761425432043942"/>
        <path id="ID0.7359844641759992" fill="#8A7B59" stroke="none" d="M 50.7379 161.3306 L 52.2612 161.3622 L 52.1318 167.5984 L 50.6084 167.5667 L 50.7379 161.3306 Z " stroke-width="0.4761425432043942"/>
      </g>
      <g id="ID0.1049797898158431">
        <path id="ID0.08871637750416994" fill="#8A7B59" stroke="none" stroke-linecap="round" d="M 36.9895 158.5074 L 43.3705 159.6877 L 43.2067 165.2801 L 37.0643 164.081 L 36.9895 158.5074 Z " stroke-width="0.4761425432043942"/>
        <path id="ID0.13805592898279428" fill="#76694C" stroke="none" stroke-linecap="round" d="M 36.7978 158.2378 L 43.4882 159.4245 L 43.5236 162.3065 L 36.8114 161.0241 L 36.7978 158.2378 Z " stroke-width="0.4761425432043942"/>
        <path id="ID0.3221200187690556" fill="#61563F" stroke="none" stroke-linecap="round" d="M 39.55 160.489 L 40.4208 160.8689 L 40.4618 162.6272 L 39.5129 162.2716 L 39.55 160.489 Z " stroke-width="0.5167888865886084"/>
        <path id="ID0.1420820001512766" fill="#BAA578" stroke="none" stroke-linecap="round" d="M 42.5518 164.3318 L 43.2956 162.9185 L 43.2952 165.2283 L 37.056 164.0986 L 42.5518 164.3318 Z " stroke-width="0.4761425432043942"/>
      </g>
      <path id="ID0.2888958193361759" fill="#393C40" stroke="none" stroke-linecap="round" d="M 83.5902 162.6025 L 76.1307 164.2611 L 76.5102 166.806 L 83.9697 165.1474 L 83.5902 162.6025 Z " stroke-width="0.3810469777360591"/>
      <path id="ID0.2888958193361759" fill="#393C40" stroke="none" stroke-linecap="round" d="M 90.1651 160.9157 L 83.1307 162.7111 L 83.5102 165.256 L 89.6833 163.8204 L 90.1651 160.9157 Z " stroke-width="0.3810469777360591"/>
      <path id="ID0.7359844641759992" fill="#8A7B59" stroke="none" d="M 81.5701 161.5255 L 80.4633 161.5025 L 80.3506 166.9273 L 81.4574 166.9503 L 81.5701 161.5255 Z " stroke-width="0.3816027988624045"/>
      <path id="ID0.7359844641759992" fill="#8A7B59" stroke="none" d="M 82.9701 161.0755 L 81.8633 161.0525 L 81.7506 166.4773 L 82.8574 166.5003 L 82.9701 161.0755 Z " stroke-width="0.3816027988624045"/>
      <path id="ID0.7359844641759992" fill="#8A7B59" stroke="none" d="M 84.4701 160.6255 L 83.3633 160.6025 L 83.2506 166.0273 L 84.3574 166.0503 L 84.4701 160.6255 Z " stroke-width="0.3816027988624045"/>
      <path id="ID0.7359844641759992" fill="#8A7B59" stroke="none" d="M 80.1201 162.0755 L 79.0133 162.0525 L 78.9006 167.4773 L 80.0074 167.5003 L 80.1201 162.0755 Z " stroke-width="0.3816027988624045"/>
      <g id="ID0.1049797898158431">
        <path id="ID0.08871637750416994" fill="#8A7B59" stroke="none" stroke-linecap="round" d="M 90.4077 159.8854 L 85.4448 160.7507 L 85.3742 165.9213 L 90.1538 165.0302 L 90.4077 159.8854 Z " stroke-width="0.40545296430512573"/>
        <path id="ID0.13805592898279428" fill="#76694C" stroke="none" stroke-linecap="round" d="M 90.6523 159.6886 L 85.4505 160.549 L 85.3217 163.2094 L 90.5437 162.2614 L 90.6523 159.6886 Z " stroke-width="0.40545296430512573"/>
        <path id="ID0.3221200187690556" fill="#61563F" stroke="none" stroke-linecap="round" d="M 88.5299 161.6428 L 87.8449 161.963 L 87.7513 163.5854 L 88.4957 163.2903 L 88.5299 161.6428 Z " stroke-width="0.4400648059527854"/>
        <path id="ID0.1420820001512766" fill="#BAA578" stroke="none" stroke-linecap="round" d="M 85.9982 165.1103 L 85.4743 163.7788 L 85.3933 165.912 L 90.245 165.0884 L 85.9982 165.1103 Z " stroke-width="0.40545296430512573"/>
      </g>
      <g id="ID0.6836685389280319">
        <path id="ID0.09357938077300787" fill="#857656" stroke="none" d="M 56.7247 160.9089 L 74.6952 161.2821 L 74.5618 167.7086 L 56.5913 167.3354 L 56.7247 160.9089 Z " stroke-width="0.42833206411122815"/>
        <path id="ID0.6492703901603818" fill="#7C6E50" stroke="none" stroke-linecap="round" d="M 57.3684 163.093 L 65.5158 166.3578 L 74.4106 163.4469 L 74.3221 167.7075 L 57.2799 167.3536 L 57.3684 163.093 Z " stroke-width="0.4761425432043942"/>
        <g id="ID0.9254062357358634">
          <g id="ID0.49943465692922473">
            <path id="ID0.140373723115772" fill="#968561" stroke="none" d="M 73.1906 160.0517 L 78.308 160.1579 L 78.1202 169.2027 L 73.0028 169.0964 L 73.1906 160.0517 Z " stroke-width="0.4761425432043942"/>
            <path id="ID0.8286363878287375" fill="#BAA578" stroke="none" stroke-linecap="round" d="M 73.1728 159.8742 L 78.4043 160.221 L 74.2469 160.8966 L 73.1789 163.0176 L 73.1728 159.8742 Z " stroke-width="0.4761425432043942"/>
            <path id="ID0.7362233307212591" fill="#8A7B59" stroke="none" stroke-linecap="round" d="M 73.07 165.968 L 75.7825 166.072 L 78.2845 163.6951 L 78.1683 169.2885 L 73.0033 169.1813 L 73.07 165.968 Z " stroke-width="0.4761425432043942"/>
          </g>
          <g id="ID0.49943465692922473">
            <path id="ID0.140373723115772" fill="#968561" stroke="none" d="M 58.1483 159.9906 L 53.0309 159.8843 L 52.8431 168.9291 L 57.9605 169.0354 L 58.1483 159.9906 Z " stroke-width="0.4761425432043942"/>
            <path id="ID0.8286363878287375" fill="#BAA578" stroke="none" stroke-linecap="round" d="M 58.2093 159.8013 L 52.9679 159.9306 L 57.0936 160.7782 L 58.0726 162.9417 L 58.2093 159.8013 Z " stroke-width="0.4761425432043942"/>
            <path id="ID0.7362233307212591" fill="#8A7B59" stroke="none" stroke-linecap="round" d="M 58.0589 165.8941 L 55.3445 165.8854 L 52.9433 163.4066 L 52.8272 169.0001 L 57.9922 169.1074 L 58.0589 165.8941 Z " stroke-width="0.4761425432043942"/>
          </g>
        </g>
      </g>
    </g>
  </g>
  <path id="ID0.5368814701214433" fill="#292D2E" stroke="none" stroke-linecap="round" d="M 38.7825 324.3662 L 39.0915 314.6076 L 42.477 302.256 L 53.9921 307.2239 L 66.5074 315.9324 L 85.214 323.8031 L 87.1688 330.1113 L 62.8614 334.6391 L 41.3151 333.8969 L 38.7825 324.3662 Z " stroke-width="0.7702165698021627"/>
  <g id="ID0.8333355090580881">
    <path id="ID0.9286923445761204" fill="#27282B" stroke="none" stroke-linecap="round" d="M 51.863 44.1601 L 70.6707 45.6361 L 71.1468 69.9908 L 86.3834 77.1329 L 63.5285 88.4889 L 26.8656 75.9426 L 46.7445 65.3484 L 51.863 44.1601 Z " stroke-width="0.4761425852775574"/>
    <path id="ID0.5448851804248989" fill="none" stroke="#1D1E1F" stroke-width="0.9522851705551147" stroke-linecap="round" d="M 48.1729 59.5871 L 46.935 65.158 L 64.0285 73.0143 L 70.8611 70.086 "/>
    <path id="ID0.262191956397146" fill="none" stroke="#1D1E1F" stroke-width="0.9522851705551147" stroke-linecap="round" d="M 50.9346 64.539 L 63.6476 70.7288 L 66.6473 69.6099 "/>
  </g>
  <g id="ID0.3450673264451325">
    <g id="ID0.9831569031812251">
      <path id="ID0.0877610077150166" fill="#2E3034" stroke="none" stroke-linecap="round" d="M 74.7251 13.3343 L 70.1527 0.2177 L 70.1527 28.7463 L 77.8241 28.7463 L 74.7251 13.3343 Z " stroke-width="0.5866066539949776"/>
      <path id="ID0.796130308881402" fill="#242628" stroke="none" stroke-linecap="round" d="M 75.033 13.3789 L 70.105 0.2623 L 73.6613 14.1004 L 74.6012 28.9877 L 77.7764 28.6926 L 75.033 13.3789 Z " stroke-width="0.5866066539949776"/>
    </g>
    <g id="ID0.9831569031812251">
      <path id="ID0.0877610077150166" fill="#2E3034" stroke="none" stroke-linecap="round" d="M 50.8249 13.4843 L 55.3973 0.3677 L 55.3973 28.8963 L 47.7259 28.8963 L 50.8249 13.4843 Z " stroke-width="0.5866066539949776"/>
      <path id="ID0.796130308881402" fill="#242628" stroke="none" stroke-linecap="round" d="M 50.417 13.5289 L 55.345 0.4123 L 51.7887 14.2504 L 50.6964 28.8098 L 47.6736 28.8426 L 50.417 13.5289 Z " stroke-width="0.5866066539949776"/>
    </g>
    <path id="ID0.8999492498114705" fill="#2E3034" stroke="none" stroke-linecap="round" d="M 68.3733 19.3124 C 72.7775 19.7915 77.5093 22.5019 79.6416 26.3848 C 82.0745 30.8179 80.1267 36.4165 80.4265 41.412 C 80.5997 43.1155 81.3923 44.8682 81.0615 46.4924 C 80.3879 49.7962 78.7139 52.8251 77.6323 56.0181 C 76.9236 58.1107 76.7691 60.4655 75.6001 62.3686 C 74.2843 64.6212 72.9416 67.7553 70.3419 68.211 C 66.488 68.8862 62.4115 67.0451 58.9619 65.2898 C 56.1281 63.8475 53.4746 61.6355 51.9002 58.8631 C 49.0806 53.7182 46.5196 48.0582 46.134 42.1741 C 45.7067 35.6514 44.9365 27.5853 49.6902 22.8687 C 53.9425 18.3273 61.8262 18.6032 68.3733 19.3124 Z " stroke-width="0.508037269115448"/>
    <path id="ID0.2441388238221407" fill="#AB8E85" stroke="none" d="M 66.0438 44.1745 C 70.1241 44.3416 75.5631 41.1768 78.2883 43.9234 C 80.7434 46.5142 77.3753 51.3755 76.4045 54.8492 C 75.4375 58.304 74.7493 62.0426 72.5114 64.8959 C 71.4439 66.1643 69.2186 66.2359 67.488 65.9634 C 64.3761 65.4698 61.3143 64.1864 58.7198 62.3955 C 56.0348 60.5432 52.487 58.5137 51.9156 55.2887 C 51.1923 51.2035 51.8566 45.8084 55.0552 43.2327 C 57.9889 40.9834 62.3743 44.0238 66.0438 44.1745 Z " stroke-width="1.2558400630950928"/>
    <path id="ID0.46721756737679243" fill="#A2887F" stroke="none" stroke-linecap="round" d="M 51.4363 45.2953 L 53.1129 45.9812 L 79.1244 45.6001 L 71.9102 50.6805 L 55.1704 48.2165 L 56.2881 50.6043 L 56.5421 56.2181 L 60.1746 63.4068 L 55.6023 56.7261 L 51.4363 45.2953 Z " stroke-width="0.508037269115448"/>
    <path id="ID0.8256730306893587" fill="none" stroke="#937B73" stroke-width="1.016074538230896" stroke-linecap="round" d="M 62.3886 57.0778 C 62.3886 57.0778 65.0878 56.4813 66.4529 56.2903 C 66.7943 56.2425 67.1326 56.3203 67.4689 56.3665 C 67.8109 56.4138 68.1401 56.5814 68.485 56.5697 C 69.1688 56.5469 69.8379 56.3497 70.5172 56.2649 C 70.854 56.2227 71.1939 56.1846 71.5332 56.1887 C 71.8731 56.1928 72.2181 56.2131 72.5493 56.2903 C 73.0939 56.4173 74.1496 56.7983 74.1496 56.7983 "/>
    <path id="ID0.7592270169407129" fill="none" stroke="#937B73" stroke-width="1.016074538230896" stroke-linecap="round" d="M 70.9693 58.4019 C 70.9693 58.4019 70.3475 58.7468 70.004 58.8083 C 69.6708 58.8682 69.3248 58.7235 68.988 58.7575 C 68.6491 58.792 68.3351 58.9688 67.9973 59.0115 C 67.6615 59.0542 67.3109 59.0867 66.9812 59.0115 C 66.7008 58.9475 66.2192 58.6051 66.2192 58.6051 "/>
    <path id="ID0.5332203092984855" fill="none" stroke="#937B73" stroke-width="1.016074538230896" stroke-linecap="round" d="M 65.0009 48.9532 C 65.0009 48.9532 64.3954 49.385 64.2897 49.7152 C 64.1525 50.1577 63.898 51.0026 64.3405 51.3156 C 64.9212 51.6056 65.6797 50.8786 66.3726 50.9345 C 67.0433 50.9914 68.354 51.4426 68.354 51.4426 "/>
    <path id="ID0.2278452254831791" fill="none" stroke="#937B73" stroke-width="1.016074538230896" stroke-linecap="round" d="M 69.3447 45.2953 C 69.3447 45.2953 70.2789 47.1578 70.7418 48.0895 C 70.8967 48.4015 71.0674 48.7073 71.199 49.0294 C 71.3306 49.3515 71.5429 49.6726 71.5292 50.0201 C 71.5155 50.3686 71.3092 50.6907 71.1228 50.9853 C 70.9983 51.1824 70.6148 51.468 70.6148 51.468 "/>
    <path id="ID0.6473136460408568" fill="none" stroke="#937B73" stroke-width="1.016074563998663" stroke-linecap="round" d="M 69.6945 62.2247 C 69.6945 62.2247 70.0113 62.8595 70.0622 63.2041 C 70.1113 63.5396 70.0513 63.8871 69.9877 64.2203 C 69.8923 64.7223 69.5871 65.7015 69.5871 65.7015 "/>
    <path id="ID0.11669129692018032" fill="#2E3034" stroke="none" stroke-linecap="round" d="M 53.3669 39.9609 L 76.6096 41.739 L 80.5469 44.4062 L 71.1482 49.1056 L 50.4457 46.5654 L 53.3669 39.9609 Z " stroke-width="0.508037269115448"/>
    <path id="ID0.14635155349969864" fill="#2E3034" stroke="none" stroke-linecap="round" d="M 50.6997 45.2191 L 52.554 45.6001 L 55.1958 50.8075 L 55.5006 56.5737 L 57.3296 60.384 L 60.2254 63.9149 L 51.9952 58.7075 L 50.6997 45.2191 Z " stroke-width="0.508037269115448"/>
    <path id="ID0.28340246016159654" fill="#1C1D1F" stroke="none" stroke-linecap="round" d="M 53.5308 36.8008 L 56.9604 38.3401 L 66.6283 39.2313 L 66.6283 44.9834 L 59.688 44.0382 L 55.8262 42.958 L 53.8008 41.4457 L 52.9367 39.7174 L 53.5308 36.8008 Z " stroke-width="0.5401026606559753"/>
    <path id="ID0.6101007834076881" fill="#FFFFFF" stroke="none" stroke-linecap="round" d="M 57.3473 39.3334 L 59.0001 39.7332 L 62.78 40.9344 L 63.3247 42.9027 L 58.07 41.4498 L 57.3473 39.3334 Z " stroke-width="0.4061061920009203"/>
    <path id="ID0.28340246016159654" fill="#1C1D1F" stroke="none" stroke-linecap="round" d="M 79.1357 36.8586 L 76.0774 38.2313 L 67.4563 39.0259 L 67.4563 44.1553 L 73.6452 43.3124 L 77.0888 42.3492 L 78.8949 41.0006 L 79.6655 39.4594 L 79.1357 36.8586 Z " stroke-width="0.4816249907016754"/>
    <path id="ID0.6101007834076881" fill="#FFFFFF" stroke="none" stroke-linecap="round" d="M 77.4526 38.9089 L 75.9112 39.4003 L 72.4053 40.7963 L 72.0217 42.7012 L 76.9101 40.9663 L 77.4526 38.9089 Z " stroke-width="0.3863867372519633"/>
    <g id="ID0.07940126257017255">
      <path id="ID0.46257128613069654" fill="#27282B" stroke="none" stroke-linecap="round" d="M 66.8045 39.0743 L 71.1482 49.0318 L 61.1145 47.7617 L 66.8045 39.0743 Z " stroke-width="0.508037269115448"/>
      <path id="ID0.9845890481956303" fill="#27282B" stroke="none" stroke-linecap="round" d="M 67.6173 39.1989 L 75.8983 46.5654 L 71.2244 49.1056 L 67.6173 39.1989 Z " stroke-width="0.508037269115448"/>
    </g>
    <path id="ID0.20071752788498998" fill="#202324" stroke="none" d="M 58.3686 34.5018 L 62.5091 37.0673 L 67.2593 38.2358 L 67.3355 39.6329 L 59.5625 38.3628 L 53.6693 36.0259 L 55.3966 34.2477 L 58.3686 34.5018 Z " stroke-width="0.508037269115448"/>
    <path id="ID0.20071752788498998" fill="#202324" stroke="none" d="M 75.4242 34.2614 L 72.3713 36.7084 L 67.1277 38.2698 L 67.0578 39.5516 L 74.1891 38.3864 L 79.6191 36.3588 L 78.081 34.1216 L 75.4242 34.2614 Z " stroke-width="0.46609798073768616"/>
    <path id="ID0.521138689480722" fill="none" stroke="#212325" stroke-width="0.9060627222061157" stroke-linecap="round" d="M 79.2139 36.5742 L 75.9747 38.1598 L 67.4351 39.4057 "/>
    <path id="ID0.17828734638169408" fill="none" stroke="#202324" stroke-width="1.016074538230896" stroke-linecap="round" d="M 71.0466 48.5467 L 68.1254 41.3072 C 67.1245 38.8879 67.2729 39.4564 67.0839 38.4876 C 67.0179 38.1493 67.2358 37.8129 67.2871 37.4715 C 67.3374 37.1352 67.4014 36.7953 67.3887 36.4555 C 67.376 36.112 67.2769 35.7762 67.2109 35.4394 C 67.1078 34.9136 66.8807 33.8645 66.8807 33.8645 "/>
    <path id="ID0.521138689480722" fill="none" stroke="#212325" stroke-width="1.016074538230896" stroke-linecap="round" d="M 53.8068 36.3055 L 57.4392 38.0836 L 67.0157 39.4807 "/>
    <path id="ID0.8012696979567409" fill="none" stroke="url(#grad_1)" stroke-width="1.016074538230896" stroke-linecap="round" d="M 79.1244 45.1429 L 71.6562 49.0548 L 53.0621 46.7178 L 55.0434 50.5789 L 55.3482 56.6753 L 57.2788 60.2824 L 60.1746 63.9149 "/>
    <path id="ID0.043594349175691605" fill="#D7E2FD" stroke="none" stroke-linecap="round" d="M 62.5289 41.9677 L 62.7575 40.85 L 63.2656 42.9075 L 60.6746 42.1709 L 62.5289 41.9677 Z " stroke-width="0.508037269115448"/>
    <path id="ID0.043594349175691605" fill="#D7E2FD" stroke="none" stroke-linecap="round" d="M 72.7225 41.8348 L 72.4574 40.8321 L 72.1024 42.7258 L 74.4161 41.9236 L 72.7225 41.8348 Z " stroke-width="0.4618642652203811"/>
  </g>
  <path id="ID0.5368814701214433" fill="#303436" stroke="none" stroke-linecap="round" d="M 34.2389 322.9763 L 37.0825 314.1334 L 41.5299 304.8665 L 51.5323 310.6796 L 62.8325 318.2641 L 80.3408 328.5279 L 81.4485 335.0385 L 56.7566 336.3283 L 35.4954 332.7574 L 34.2389 322.9763 Z " stroke-width="0.77021656551251"/>
  <g id="ID0.9492031107656658">
    <path id="ID0.05466862628236413" fill="#303436" stroke="none" stroke-linecap="round" d="M 46.9786 231.7279 L 73.6983 230.7015 L 66.8496 248.931 L 64.7495 253.7762 L 62.2388 271.7443 L 54.7477 311.8023 L 38.9625 312.0093 L 39.1354 289.7608 L 37.3366 280.8856 L 37.0125 271.3717 L 40.5142 258.1605 L 41.823 245.9091 L 46.9786 231.7279 Z " stroke-width="0.7305889717435513"/>
    <path id="ID0.4490455654449761" fill="none" stroke="#272A2B" stroke-width="1.6585524130670992" stroke-linecap="round" d="M 46.8706 232.6615 L 73.6212 231.2498 L 64.281 254.8001 "/>
    <path id="ID0.10446935473009944" fill="none" stroke="#242728" stroke-width="1.6585524130670992" stroke-linecap="round" d="M 62.6343 267.0267 L 60.6823 283.7514 L 49.415 289.9271 "/>
    <path id="ID0.42170455446466804" fill="none" stroke="#242728" stroke-width="1.6585524130670992" stroke-linecap="round" d="M 59.4622 284.7918 L 56.4139 299.6145 L 44.9072 305.9593 "/>
    <path id="ID0.047098892275244" fill="none" stroke="#242728" stroke-width="1.6585524130670992" stroke-linecap="round" d="M 42.2014 246.3835 L 41.3139 250.2224 L 44.8445 259.505 "/>
  </g>
</svg>