<svg xmlns="http://www.w3.org/2000/svg" xmlns:xlink="http://www.w3.org/1999/xlink" version="1.1" width="117.33876004706036" height="267.13341489325177" viewBox="0.9864532207935479 2.3918172573536065 117.33876004706036 267.13341489325177">
  <!-- Exported by Scratch - http://scratch.mit.edu/ -->
  <path id="ID0.7766774026677012" fill="#0D0D0D" stroke="#0D0D0D" stroke-width="1.9914776373923964" stroke-linecap="round" d="M 117.1693 126.1502 C 117.2894 92.9526 118.8886 58.5039 108.682 26.5104 C 104.8222 14.4144 89.6716 8.5027 77.7427 3.91 C 72.2978 1.8167 66.6057 6.5823 61.1291 8.2014 C 59.5741 8.657 58.4032 9.6659 57.074 10.3305 C 55.1977 11.0736 53.2292 11.6239 51.5195 12.4217 C 50.9141 12.706 50.3048 12.9861 49.745 13.3687 C 49.0864 13.6992 48.5741 14.1821 47.9643 14.5634 C 46.6959 15.2752 45.4263 16.0366 44.1592 16.6988 C 42.8945 17.262 41.5824 17.7247 40.3665 18.3387 C 39.7592 18.6209 39.1032 18.8522 38.5921 19.2856 C 37.981 19.7165 37.5636 20.4002 37.0488 20.9823 C 36.5364 21.4652 36.024 21.9482 35.5117 22.4311 C 35.0006 22.8645 34.3395 23.2941 33.9746 23.88 C 33.561 24.415 33.4422 25.1558 33.1748 25.8433 C 32.9086 26.4813 32.5924 27.1179 32.375 27.8067 C 31.8926 29.0838 31.4589 30.4117 31.0253 31.7397 C 30.7591 32.3776 30.4929 33.0156 30.2254 33.703 C 29.9593 34.341 29.6931 34.9789 29.4256 35.6664 C 29.1594 36.3043 28.8932 36.9423 28.6258 37.6298 C 28.3596 38.2677 27.9935 38.9031 27.826 39.5931 C 27.6098 40.2323 27.5935 40.8765 27.526 41.5691 C 27.4098 42.2108 27.2935 42.8525 27.226 43.5451 C 27.1098 44.1868 27.0435 44.8298 26.926 45.521 C 26.7598 46.1615 26.4936 46.7994 26.3761 47.4907 C 25.8775 49.4121 25.4263 51.4338 24.9764 53.406 C 24.8102 54.0465 24.544 54.6844 24.4265 55.3757 C 24.2603 56.0161 24.194 56.6591 24.1265 57.3516 C 24.0103 57.9934 23.844 58.6338 23.8265 59.3276 C 23.7603 59.9706 23.794 60.6161 23.7765 61.3099 C 23.7439 62.5984 23.6102 63.9339 23.6763 65.2745 C 23.6601 65.9187 23.8525 66.2211 23.8762 67.2631 C 23.8248 71.2785 23.6722 75.3409 23.5696 79.4046 C 23.4707 83.3196 23.3694 87.3337 23.2692 91.2983 C 23.2204 93.231 23.2191 95.2641 23.1191 97.2452 C 23.0528 97.8881 22.9366 98.5299 22.8191 99.2211 C 22.5316 100.7015 22.1454 102.1299 21.9567 103.6623 C 21.8405 104.3041 21.9242 104.9508 21.9066 105.6446 C 21.8404 106.2876 21.6742 106.9281 21.6067 107.6206 C 21.3742 108.904 21.0905 110.2358 21.0067 111.5726 C 20.8742 112.8585 20.9404 114.1991 20.9066 115.5371 C 20.8077 119.4521 20.7063 123.4663 20.6062 127.4309 C 20.5825 128.3724 20.6237 128.7206 20.5562 129.4131 C 20.4399 130.0549 20.1238 130.6915 20.0063 131.3828 C 19.6076 133.3067 19.4063 135.3348 19.1063 137.3107 C 18.9901 137.9524 18.9238 138.5954 18.8064 139.2867 C 18.4714 140.6667 17.9865 142.043 17.7003 143.4738 C 17.5328 144.1638 17.4628 144.9555 17.3941 145.6976 C 17.2766 146.3889 17.1079 147.1284 17.0878 147.9213 C 17.0216 148.5643 17.0553 149.2098 17.0378 149.9036 C 17.0215 150.5479 16.9053 151.1896 16.9877 151.8859 C 17.1051 153.1782 17.4212 154.5251 17.6374 155.8694 C 17.7211 156.5162 17.8048 157.163 17.8372 157.858 C 17.8209 158.5023 17.8047 159.1465 17.7872 159.8403 C 17.7709 160.4845 17.7546 161.1288 17.7371 161.8226 C 17.6046 163.1086 17.5708 164.4466 17.3871 165.7809 C 17.1558 167.0147 16.5434 169.4787 16.5434 169.4787 C 16.281 169.968 15.588 172.7731 15.175 174.1551 C 14.9509 174.9062 14.6108 175.6206 14.3689 176.3662 C 14.1584 177.0145 14.0026 177.68 13.819 178.3359 C 13.6354 178.9918 13.4129 179.6397 13.2691 180.3056 C 13.1286 180.9566 13.1096 181.6305 12.9691 182.2815 C 12.8252 182.9473 12.6405 183.6072 12.4192 184.2512 C 12.1903 184.9188 11.8096 185.535 11.6194 186.2145 C 11.4401 186.8557 11.419 187.5325 11.3194 188.1905 C 11.2198 188.8485 11.1191 189.5085 11.0194 190.1665 C 10.9198 190.8245 10.8191 191.4845 10.7194 192.1425 C 10.6198 192.8005 10.4642 193.4541 10.4195 194.1184 C 10.3312 195.4363 10.4076 196.7652 10.3193 198.083 C 10.2746 198.7474 10.119 199.401 10.0194 200.059 C 9.9197 200.717 9.7642 201.3706 9.7194 202.035 C 9.6311 203.3528 9.6246 204.6786 9.6193 205.9995 C 9.6086 208.6424 9.6687 211.2929 9.669 213.935 C 9.6693 214.5955 9.6356 215.2572 9.6189 215.9173 C 9.6022 216.5774 9.6275 217.2415 9.5688 217.8996 C 9.5101 218.5626 9.4093 219.2245 9.2689 219.8756 C 9.125 220.5414 8.821 221.1724 8.719 221.8452 C 8.6194 222.4983 8.7275 223.1695 8.6689 223.8275 C 8.6101 224.4905 8.4277 225.1405 8.3689 225.8035 C 8.3103 226.4615 8.3775 227.1277 8.3189 227.7858 C 8.2601 228.4488 8.1594 229.1107 8.0189 229.7617 C 7.875 230.4276 7.6128 231.0656 7.469 231.7314 C 7.3285 232.3824 7.3095 233.0564 7.169 233.7074 C 7.0252 234.3732 6.749 235.0089 6.6191 235.677 C 6.365 236.9837 6.2194 238.313 6.0192 239.629 C 5.9195 240.287 5.8188 240.947 5.7192 241.605 C 5.6195 242.263 5.478 242.9179 5.4192 243.5809 C 5.3606 244.239 5.3438 244.9031 5.3691 245.5632 C 5.3944 246.2284 5.5578 246.8861 5.569 247.5518 C 5.5907 248.8724 5.6669 250.2103 5.4689 251.5164 C 5.2648 252.862 4.7859 254.1591 4.3691 255.4557 C 4.1531 256.1277 3.7982 256.7515 3.5693 257.4191 C 3.3479 258.0631 3.2407 258.7447 3.0194 259.3887 C 2.7904 260.0564 2.368 260.6626 2.2195 261.3521 C 2.0802 261.9982 1.7911 262.7903 2.1695 263.3344 C 2.573 263.9148 3.4465 264.0232 4.1501 264.1282 C 4.8138 264.2273 5.4849 263.914 6.1557 263.9309 C 6.8265 263.9479 7.478 264.2123 8.1488 264.2292 C 8.8196 264.2462 9.4836 264.0566 10.1544 264.0319 C 10.8203 264.0071 11.4951 263.9835 12.1538 264.0824 C 12.8324 264.1838 13.5261 264.3253 14.1406 264.6285 C 14.7818 264.9452 15.1857 265.6704 15.8588 265.9116 C 16.4853 266.1367 17.1924 265.9453 17.8581 265.9621 C 18.5239 265.9789 19.1946 266.0781 19.8575 266.0126 C 20.5404 265.9455 21.1865 265.6345 21.8694 265.5675 C 22.5323 265.5019 23.205 265.5595 23.8688 265.618 C 24.5375 265.6765 25.1931 265.8577 25.8619 265.9162 C 26.5256 265.9747 27.2025 265.8678 27.8612 265.9667 C 28.5399 266.0682 29.1694 266.4114 29.8481 266.5128 C 30.5068 266.6117 31.1837 266.5049 31.8474 266.5633 C 32.5162 266.6218 33.1768 266.7625 33.8405 266.8616 C 34.5042 266.9606 35.1623 267.1637 35.8336 267.1598 C 37.8386 267.148 39.8408 266.8891 41.8442 266.8157 C 42.5101 266.7909 43.1799 266.8078 43.8436 266.8662 C 44.5123 266.9248 45.1666 267.1198 45.8367 267.1645 C 47.1659 267.2526 48.5062 267.1774 49.8354 267.2655 C 50.5055 267.3102 51.1598 267.5052 51.8285 267.5638 C 52.4923 267.6222 53.1621 267.6391 53.8279 267.6142 C 54.4987 267.5895 55.1627 267.4417 55.8335 267.4169 C 56.4994 267.3921 57.167 267.4923 57.8329 267.4674 C 58.5037 267.4427 59.1683 267.3088 59.8385 267.2701 C 61.1709 267.1937 62.5089 267.0896 63.8435 267.1233 C 64.5143 267.1403 65.1799 267.282 65.8366 267.4216 C 66.5082 267.5645 67.1448 267.8662 67.8234 267.9677 C 68.4822 268.0666 69.157 268.0013 69.8228 268.0182 C 71.8202 268.0686 73.8261 268.0578 75.8209 268.1696 C 76.4912 268.2074 77.1453 268.4094 77.814 268.4679 C 78.4777 268.5263 79.1475 268.5432 79.8134 268.5184 C 80.4842 268.4937 81.1511 268.3865 81.819 268.3211 C 82.4868 268.2556 83.1538 268.1485 83.8246 268.1238 C 84.4904 268.099 85.1661 268.2797 85.824 268.1743 C 86.526 268.0621 86.2361 267.8584 87.8421 267.4814 C 94.2652 265.9735 105.6202 269.4458 107.3598 263.065 C 113.5635 240.2988 106.3347 215.5212 108.0073 191.8719 C 109.5495 170.0977 117.0641 148.3425 117.1693 126.1502 Z "/>
</svg>