<svg xmlns="http://www.w3.org/2000/svg" xmlns:xlink="http://www.w3.org/1999/xlink" version="1.1" width="363.90747089648795" height="376.7540590312536" viewBox="0.24465932714665584 0.8512749897214239 363.90747089648795 376.7540590312536">
  <defs>
    <linearGradient id="grad_1" y2="1" x2="0">
      <stop offset="0" stop-color="#FFFFFF" stop-opacity="1"/>
      <stop offset="1" stop-color="#D4D4D4" stop-opacity="1"/>
    </linearGradient>
  <linearGradient id="grad_1-,0,0,1,-0.75,0.5999999999999943" y2="377.1" x2="0.75" x1="0.75" y1="2.1" gradientUnits="userSpaceOnUse">
      <stop offset="0" stop-color="#FFFFFF" stop-opacity="1"/>
      <stop offset="1" stop-color="#D4D4D4" stop-opacity="1"/>
    </linearGradient></defs>
  <!-- Exported by Scratch - http://scratch.mit.edu/ -->
  <g id="ID0.9358411086723208">
    <path id="ID0.7409284724853933" fill="url(#grad_1-,0,0,1,-0.75,0.5999999999999943)" d="M 363.25 70.9 C 363.25 51.9 355.55 34.7 343.15 22.3 C 330.65 9.8 313.45 2.1 294.55 2.1 C 275.65 2.1 258.35 9.8 245.95 22.2 C 241.65 26.5 237.95 31.3 234.95 36.6 L 234.35 36.1 L 0.75 377.1 L 329.05 130.2 C 334.15 127.2 338.85 123.6 343.05 119.4 C 355.55 107 363.25 89.8 363.25 70.9 Z " stroke-width="1"/>
    <g id="ID0.786568024661392">
      <g id="ID0.9115818035788834">
        <path id="ID0.8356261667795479" fill="#FFFFFF" d="M 322.4962 79.752 L 308.5204 86.9862 L 299.9534 97.0449 L 296.001 109.1054 L 294.888 103.4251 L 288.4408 90.6762 L 279.6869 82.6376 L 271.3832 77.7405 L 228.4373 82.6454 C 230.9328 95.9313 237.3924 107.9729 246.4245 117.4315 C 258.637 129.9787 275.6808 137.961 294.5776 138.2936 C 313.4744 138.6261 330.6875 131.2467 343.3356 119.036 C 352.1791 110.4984 358.741 99.4947 361.9896 87.2196 L 322.4962 79.752 Z " stroke-width="1.0106813457066883"/>
        <path id="ID0.6131421527825296" fill="#FFFFFF" d="M 231.8231 56.8276 L 248.6234 44.1845 L 259.2626 36.9926 L 260.824 45.9155 L 268.6279 50.5005 L 279.4846 53.9262 L 286.4484 54.5542 L 287.8086 46.1882 L 292.1767 50.7128 L 302.0798 50.887 L 306.0902 47.0154 L 307.1588 55.2219 L 314.6331 55.5556 L 325.086 53.2125 L 330.5873 50.7822 L 333.6014 46.0843 L 334.7257 39.6348 L 342.8274 44.5283 L 363.6468 61.9778 C 361.8961 46.5823 355.0643 32.7147 344.839 22.1231 C 332.8269 9.6805 315.8842 1.7 296.9873 1.3674 C 278.0905 1.0349 260.7764 8.4125 248.2311 20.524 C 237.331 31.047 229.9055 45.1692 227.8074 61.0024 L 231.8231 56.8276 Z " stroke-width="1.0106813457066883"/>
      </g>
    </g>
  </g>
</svg>