<svg xmlns="http://www.w3.org/2000/svg" xmlns:xlink="http://www.w3.org/1999/xlink" version="1.1" width="128.91915737179662" height="336.59504543332" viewBox="1.4449237059168838 -0.6115762521214462 128.91915737179662 336.59504543332">
  <defs>
    <linearGradient id="grad_1" y2="1" x2="0">
      <stop offset="0" stop-color="#222325" stop-opacity="1"/>
      <stop offset="1" stop-color="#2E3034" stop-opacity="1"/>
    </linearGradient>
  </defs>
  <!-- Exported by Scratch - http://scratch.mit.edu/ -->
  <g id="ID0.9602425838820636">
    <g id="ID0.17693647183477879">
      <path id="ID0.7729651997797191" fill="#393C40" stroke="none" stroke-linecap="round" d="M 113.2245 103.5311 L 93.9141 103.3902 L 96.3154 119.7509 L 98.1509 132.9507 L 101.4722 138.6406 L 104.5502 142.1672 L 116.8183 139.6831 L 118.5608 134.142 L 114.6091 114.7488 L 113.2245 103.5311 Z " stroke-width="0.7788099523229959"/>
      <path id="ID0.9716172609478235" fill="#34373A" stroke="none" stroke-linecap="round" d="M 108.8843 108.8176 L 113.6995 106.8809 L 112.3346 100.5434 L 94.5732 108.626 L 97.2529 111.6963 L 102.3764 113.8397 L 108.8843 108.8176 Z " stroke-width="0.7788099523229959"/>
      <g id="ID0.38066427363082767">
        <path id="ID0.4757494777441025" fill="#1D1E1F" stroke="none" stroke-linecap="round" d="M 105.8734 79.2313 L 97.8554 76.6381 L 82.3596 80.2516 L 88.5294 105.0256 L 98.0621 110.4532 L 102.2976 111.7652 L 105.5103 109.7072 L 108.4215 107.0598 L 114.0285 104.9369 L 114.4958 99.7335 L 114.3394 91.9839 L 111.8194 83.8461 L 105.8734 79.2313 Z " stroke-width="0.4541860524295818"/>
        <path id="ID0.6007084371522069" fill="none" stroke="#0D0D0D" stroke-width="0.9083721048591636" stroke-linecap="round" d="M 113.5523 105.246 L 108.5348 107.0675 L 104.2179 110.3023 L 102.2899 111.8784 L 98.0621 110.4532 L 94.0167 108.016 "/>
      </g>
    </g>
    <g id="ID0.7397577832452953">
      <path id="ID0.6726378230378032" fill="#34373A" stroke="none" stroke-linecap="round" d="M 118.0628 131.3329 L 102.053 138.91 L 102.6823 141.1385 L 118.3141 133.3795 L 118.0628 131.3329 Z " stroke-width="0.7788099523229959"/>
      <path id="ID0.6507829907350242" fill="#1D1E1F" stroke="none" stroke-linecap="round" d="M 121.2049 132.5653 L 102.4794 141.0508 L 101.6407 159.1429 L 102.897 169.3761 L 101.8545 184.7222 L 100.8495 190.8988 L 112.1785 193.6199 L 112.7951 187.417 L 115.1768 178.2115 L 118.7013 166.5467 L 121.0698 157.5355 L 121.2049 132.5653 Z " stroke-width="0.7788099523229959"/>
      <path id="ID0.6829322893172503" fill="#1D1E1F" stroke="none" stroke-linecap="round" d="M 112.5934 193.2578 L 103.0164 187.7284 L 99.552 192.7622 L 95.2842 198.1316 L 94.9147 203.5708 L 95.194 208.0782 L 96.9386 211.124 L 97.8629 217.6268 L 102.3439 217.736 L 103.6414 215.8727 L 105.2087 215.784 L 108.4883 213.4698 L 111.9886 210.7803 L 114.2214 206.6387 L 113.9063 199.787 L 112.5934 193.2578 Z " stroke-width="0.7788099523229959"/>
      <path id="ID0.47767175547778606" fill="none" stroke="#0D0D0D" stroke-width="1.5576199046459918" stroke-linecap="round" d="M 120.9489 136.3338 L 120.9408 132.4303 L 102.5571 141.0561 L 101.9626 154.4031 "/>
      <path id="ID0.5922487881034613" fill="#282A2B" stroke="none" stroke-linecap="round" d="M 119.8766 165.1099 L 113.5196 159.2919 L 107.6867 158.9738 L 101.396 164.2448 L 101.7872 178.5955 L 105.7668 186.0864 L 109.0692 186.3108 L 115.3719 179.7135 L 119.8766 165.1099 Z " stroke-width="0.7788099523229959"/>
      <path id="ID0.36820242274552584" fill="#151616" stroke="none" stroke-linecap="round" d="M 113.8535 167.2292 L 105.7778 166.6025 L 107.5977 177.7327 L 109.0405 177.7526 L 113.8535 167.2292 Z " stroke-width="0.7788099523229959"/>
      <path id="ID0.13569410238415003" fill="none" stroke="#232425" stroke-width="1.5576199046459918" stroke-linecap="round" d="M 113.763 177.7642 L 107.8594 184.2325 L 103.3615 176.9015 "/>
      <path id="ID0.024502143263816833" fill="none" stroke="#0D0D0D" stroke-width="1.5576199046459918" stroke-linecap="round" d="M 119.5273 164.7294 L 113.8485 159.2696 L 108.1144 158.6459 L 101.746 163.9117 L 102.0465 172.1285 "/>
    </g>
  </g>
  <path id="ID0.3809091211296618" fill="#393D40" stroke="none" stroke-linecap="round" d="M 79.0233 185.0916 L 102.0275 168.2012 L 112.4338 205.573 L 113.5717 216.4596 L 111.7657 234.9833 L 103.7909 239.197 L 91.3144 242.9101 L 87.4521 222.4519 L 87.0898 211.0003 L 79.0233 185.0916 Z " stroke-width="0.7305889841721228"/>
  <path id="ID0.3809091211296618" fill="#3E4246" stroke="none" stroke-linecap="round" d="M 53.0774 152.0452 L 75.7899 166.2242 L 77.4443 204.9825 L 76.0821 215.8433 L 70.1198 233.474 L 61.3969 235.7682 L 48.4033 236.5532 L 48.5901 214.782 L 47.3713 201.4215 L 53.0774 152.0452 Z " stroke-width="0.730588917519037"/>
  <g id="ID0.17693647183477879">
    <path id="ID0.7729651997797191" fill="#3E4246" stroke="none" stroke-linecap="round" d="M 28.971 102.5308 L 49.1993 101.7219 L 47.2435 118.9466 L 45.7724 132.84 L 42.4872 138.9154 L 39.3829 142.716 L 26.4435 140.5333 L 24.428 134.7872 L 27.9044 114.3319 L 28.971 102.5308 Z " stroke-width="0.8164595748506152"/>
    <path id="ID0.9716172609478235" fill="#393C40" stroke="none" stroke-linecap="round" d="M 33.6996 107.9213 L 28.588 106.057 L 29.8011 99.3699 L 48.688 107.2304 L 45.9854 110.5392 L 40.6905 112.9605 L 33.6996 107.9213 Z " stroke-width="0.8164595748506152"/>
    <g id="ID0.38066427363082767">
      <path id="ID0.4757494777441025" fill="#1D1E1F" stroke="none" stroke-linecap="round" d="M 35.7652 76.7249 L 44.0775 73.7331 L 60.4375 76.9886 L 54.8213 103.1578 L 45.0191 109.1711 L 40.626 110.6908 L 37.1894 108.6446 L 34.0484 105.9703 L 28.1008 103.938 L 27.4329 98.502 L 27.3314 90.3767 L 29.6932 81.7638 L 35.7652 76.7249 Z " stroke-width="0.476142530452991"/>
      <path id="ID0.6007084371522069" fill="none" stroke="#0D0D0D" stroke-width="0.952285060905982" stroke-linecap="round" d="M 28.6103 104.2456 L 33.93 105.9823 L 38.5638 109.2238 L 40.638 110.8092 L 45.0191 109.1711 L 49.1742 106.4789 "/>
    </g>
  </g>
  <g id="ID0.7397577832452953">
    <path id="ID0.6726378230378032" fill="#393C40" stroke="none" stroke-linecap="round" d="M 24.8929 132.5685 L 42.4736 138.5443 L 42.0849 140.9405 L 24.8761 134.7301 L 24.8929 132.5685 Z " stroke-width="0.8164596033283589"/>
    <path id="ID0.6507829907350242" fill="#1D1E1F" stroke="none" stroke-linecap="round" d="M 21.8161 134.3139 L 42.3339 140.9109 L 45.3723 159.6533 L 45.2883 170.4614 L 48.2103 186.3195 L 49.9961 192.6321 L 38.5226 196.8217 L 37.1382 190.4352 L 33.5562 181.1327 L 28.4897 169.4057 L 24.9446 160.304 L 21.8161 134.3139 Z " stroke-width="0.8164596033283589"/>
    <path id="ID0.6829322893172503" fill="#1D1E1F" stroke="none" stroke-linecap="round" d="M 38.0471 196.4942 L 47.36 189.5895 L 51.5704 194.4175 L 56.6578 199.4991 L 57.6934 205.1197 L 57.9419 209.8476 L 56.4894 213.2285 L 56.3048 220.1117 L 51.6509 220.7617 L 50.0766 218.9762 L 48.4337 219.0714 L 44.7411 217.0536 L 40.7738 214.6714 L 37.9527 210.6251 L 37.4611 203.4514 L 38.0471 196.4942 Z " stroke-width="0.8164596033283589"/>
    <path id="ID0.47767175547778606" fill="none" stroke="#0D0D0D" stroke-width="1.6329192066567177" stroke-linecap="round" d="M 22.5337 138.2082 L 22.0749 134.1417 L 42.2536 140.9257 L 44.4698 154.7553 "/>
    <path id="ID0.5922487881034613" fill="#282A2B" stroke="none" stroke-linecap="round" d="M 26.9586 167.9368 L 32.8832 161.1167 L 38.9201 160.0874 L 46.1025 164.8244 L 47.4122 179.8174 L 44.1639 188.0953 L 40.7514 188.7241 L 33.3977 182.6072 L 26.9586 167.9368 Z " stroke-width="0.8164596033283589"/>
    <path id="ID0.36820242274552584" fill="#151616" stroke="none" stroke-linecap="round" d="M 33.7033 169.5001 L 42.0391 167.8811 L 41.4755 179.6908 L 39.9752 179.8842 L 33.7033 169.5001 Z " stroke-width="0.8164596033283589"/>
    <path id="ID0.13569410238415003" fill="none" stroke="#232425" stroke-width="1.6329192066567177" stroke-linecap="round" d="M 34.9751 180.4977 L 41.8976 186.528 L 45.7049 178.3546 "/>
    <path id="ID0.024502143263816833" fill="none" stroke="#0D0D0D" stroke-width="1.6329192066567177" stroke-linecap="round" d="M 27.4119 167.6118 L 32.6731 161.246 L 38.5705 159.9103 L 45.8332 164.6326 L 46.5034 173.2262 "/>
  </g>
  <g id="ID0.9157347986474633">
    <path id="ID0.7477802094072104" fill="#363A3D" stroke="none" stroke-linecap="round" d="M 106.1154 124.4715 L 86.6382 120.9715 L 85.7831 162.1489 L 102.2591 171.4206 L 105.0532 146.952 L 106.1154 124.4715 Z " stroke-width="0.47614257300029306"/>
    <path id="ID0.7477802094072104" fill="#363A3D" stroke="none" stroke-linecap="round" d="M 45.7831 123.2358 L 69.2874 120.8664 L 68.4323 162.0439 L 51.5855 170.6236 L 46.6325 145.3988 L 45.7831 123.2358 Z " stroke-width="0.47614257300029306"/>
    <path id="ID0.4270821204409003" fill="#3E4246" stroke="none" stroke-linecap="round" d="M 46.5179 103.1385 L 50.5858 90.7215 L 52.968 84.937 L 59.6594 78.0513 L 90.6913 80.1245 L 97.505 84.5522 L 100.2772 88.6578 L 107.0615 100.2286 L 106.13 110.6866 L 105.0642 116.1413 L 106.587 123.0785 L 106.9494 128.5629 L 104.6639 135.421 L 102.9366 140.6238 L 101.5537 149.8818 L 102.5985 171.8108 L 97.2868 179.9158 L 92.3736 186.0287 L 80.1457 191.204 L 68.6169 187.9404 L 64.8289 181.1467 L 60.0115 174.6174 L 51.5309 171.3457 L 50.9148 145.9728 L 49.8631 139.2835 L 45.5303 127.7637 L 44.4461 116.9066 L 46.5179 103.1385 Z " stroke-width="0.47614257300029306"/>
    <path id="ID0.052435632329434156" fill="#393C40" stroke="none" stroke-linecap="round" d="M 57.6176 153.3064 L 62.0676 153.4464 L 68.5926 156.868 L 73.6659 156.8067 L 79.5079 158.7139 L 83.7193 157.7298 L 85.3953 157.2884 L 99.6758 154.1797 L 99.9646 157.4718 L 91.3094 161.4592 L 85.3653 161.0263 L 79.7086 163.9568 L 73.1172 160.2957 L 66.6817 160.5907 L 56.883 156.5772 L 57.6176 153.3064 Z " stroke-width="0.47614257300029306"/>
    <path id="ID0.4987568911164999" fill="none" stroke="#27282B" stroke-width="0.9522851460005861" stroke-linecap="round" d="M 59.4282 78.7223 L 52.8732 84.7774 L 49.3333 94.705 "/>
    <path id="ID0.2889464790932834" fill="none" stroke="#27282B" stroke-width="0.9522851460005861" stroke-linecap="round" d="M 92.0073 80.8276 L 97.6407 84.7545 L 103.1604 94.1559 "/>
    <path id="ID0.8373676878400147" fill="#000000" stroke="#2C2F31" stroke-width="0.6155104186945868" stroke-linecap="round" d="M 62.7718 91.8289 L 63.1477 90.3053 L 59.4906 91.1437 L 54.5712 94.3904 L 50.345 99.3623 L 47.7859 104.9474 L 52.9649 102.7905 L 57.6638 102.7687 L 60.3933 103.7374 L 62.8766 106.7745 L 64.9998 105.7908 L 69.0137 105.5844 L 73.5076 106.7087 L 77.2907 109.9577 L 79.3094 113.0511 L 81.5215 110.069 L 85.2778 107.0016 L 89.42 105.6457 L 94.5766 105.7213 L 96.3974 106.3414 L 98.1518 103.2619 L 100.1315 102.0408 L 102.7243 102.6183 L 105.4998 104.2822 L 104.1302 100.4475 L 101.9186 96.4983 L 99.1278 93.4475 L 95.9954 91.1516 L 91.4947 90.1811 L 93.6416 92.125 L 93.5629 93.8928 L 91.9298 95.9766 L 88.336 97.1258 L 85.1675 97.3698 L 82.5473 97.4072 L 80.0914 93.7552 L 79.6147 95.8134 L 78.1543 95.7484 L 76.6463 93.2938 L 75.6126 97.4836 L 71.5286 97.5328 L 67.4156 96.5025 L 64.0919 95.0453 L 62.7718 91.8289 Z "/>
    <path id="ID0.5698574706912041" fill="none" stroke="#313537" stroke-width="0.9522851460005861" stroke-linecap="round" d="M 57.5497 153.1383 L 56.8879 156.3392 L 66.6792 160.7097 L 73.4702 160.4935 L 79.473 163.8328 "/>
    <path id="ID0.5698574706912041" fill="none" stroke="#313537" stroke-width="0.8933066257048137" stroke-linecap="round" d="M 99.4201 154.2278 L 99.8721 157.4518 L 91.1747 161.4384 L 85.2685 160.9586 L 79.9108 164.0619 "/>
    <path id="ID0.8947288258932531" fill="#393C40" stroke="none" stroke-linecap="round" d="M 59.1069 141.2169 L 66.131 141.2437 L 73.6367 143.3045 L 79.1869 148.9442 L 72.1848 144.4173 L 61.4575 142.6944 L 56.2773 145.611 L 59.1069 141.2169 Z " stroke-width="0.47614257300029306"/>
    <path id="ID0.8947288258932531" fill="#393C40" stroke="none" stroke-linecap="round" d="M 97.8687 143.0222 L 91.657 142.7878 L 84.9447 144.3343 L 79.8299 149.1171 L 86.1875 145.3716 L 95.7361 144.2423 L 100.2093 147.0115 L 97.8687 143.0222 Z " stroke-width="0.4213738884176943"/>
    <path id="ID0.9897695370018482" fill="#393C40" stroke="none" stroke-linecap="round" d="M 62.3037 153.5466 L 55.768 152.9346 L 56.2928 148.3021 L 57.4103 151.8257 L 62.5009 152.0743 L 68.5692 155.7007 L 74.0511 155.4574 L 78.1153 156.9705 L 79.659 149.1445 L 79.6933 158.9559 L 74.1414 156.8403 L 68.2623 156.7183 L 62.3037 153.5466 Z " stroke-width="0.47614257300029306"/>
    <path id="ID0.9897695370018482" fill="#393C40" stroke="none" stroke-linecap="round" d="M 94.6103 154.4693 L 100.155 154.1415 L 99.8823 149.8173 L 98.8083 153.0505 L 94.4979 153.0939 L 89.237 156.2401 L 84.6142 155.8119 L 81.1244 157.0682 L 80.1086 149.7389 L 79.7179 158.855 L 84.4868 157.0937 L 89.4588 157.197 L 94.6103 154.4693 Z " stroke-width="0.4232251205631144"/>
    <path id="ID0.3524594851769507" fill="#393C40" stroke="none" stroke-linecap="round" d="M 73.4472 119.0607 L 79.3046 121.3731 L 83.804 119.1329 L 80.5593 122.8755 L 81.28 134.0346 L 90.3664 133.366 L 79.867 136.7199 L 68.3014 131.7887 L 77.9468 134.013 L 77.7764 122.7225 L 73.4472 119.0607 Z " stroke-width="0.47614257300029306"/>
    <path id="ID0.9214867809787393" fill="#393C40" stroke="none" stroke-linecap="round" d="M 59.1875 137.3371 L 62.2502 133.186 L 67.0304 132.3327 L 61.1001 136.972 L 60.8012 139.8947 L 65.8463 140.0471 L 73.9436 143.4299 L 65.0098 141.3394 L 59.1545 141.2178 L 59.1875 137.3371 Z " stroke-width="0.47614257300029306"/>
    <path id="ID0.9214867809787393" fill="#393C40" stroke="none" stroke-linecap="round" d="M 97.622 138.9159 L 94.9825 134.8388 L 90.6446 133.8397 L 95.8873 138.4935 L 96.0471 141.292 L 91.428 141.2415 L 84.7251 143.9429 L 92.1427 142.5062 L 97.5015 142.6175 L 97.622 138.9159 Z " stroke-width="0.4451788453890468"/>
    <path id="ID0.8679121839813888" fill="#2C2F31" stroke="none" stroke-linecap="round" d="M 75.4241 118.0054 L 79.1988 119.703 L 82.5652 118.1299 L 83.4975 119.1017 L 79.5148 121.686 L 73.8012 119.329 L 75.4241 118.0054 Z " stroke-width="0.47614257300029306"/>
    <path id="ID0.24770551454275846" fill="none" stroke="#313537" stroke-width="0.9522851460005861" stroke-linecap="round" d="M 79.4959 116.1296 L 84.0631 119.7963 L 91.5509 120.4281 L 99.1898 119.5151 L 104.5053 115.8156 "/>
    <path id="ID0.20603158557787538" fill="none" stroke="#313537" stroke-width="0.9522851460005861" stroke-linecap="round" d="M 46.2476 111.4286 L 53.158 116.9298 L 65.4683 120.4001 L 72.7403 119.9558 L 79.0103 116.157 "/>
    <g id="ID0.5272086253389716">
      <path id="ID0.24770551454275846" fill="none" stroke="#363A3D" stroke-width="0.9522850864087884" stroke-linecap="round" d="M 48.9879 144.0256 L 58.9553 141.0655 "/>
      <path id="ID0.24770551454275846" fill="none" stroke="#363A3D" stroke-width="0.9522850864087884" stroke-linecap="round" d="M 46.6542 132.0538 L 67.2053 126.2655 "/>
    </g>
    <g id="ID0.5272086253389716">
      <path id="ID0.24770551454275846" fill="none" stroke="#363A3D" stroke-width="0.9522850864087884" stroke-linecap="round" d="M 104.4797 144.2318 L 97.5807 142.2557 "/>
      <path id="ID0.24770551454275846" fill="none" stroke="#363A3D" stroke-width="0.9522850864087884" stroke-linecap="round" d="M 105.2029 132.8424 L 91.4298 127.7945 "/>
    </g>
    <g id="ID0.7887678607366979">
      <path id="ID0.753661650698632" fill="none" stroke="#313537" stroke-width="0.9522850864087884" stroke-linecap="round" d="M 73.9207 119.1896 L 79.1078 121.6786 L 83.2085 119.1444 "/>
      <g id="ID0.8167418288066983">
        <path id="ID0.9553722990676761" fill="none" stroke="#313537" stroke-width="1.0409107743576298" stroke-linecap="round" d="M 79.4063 136.5479 L 73.8392 134.2892 L 67.706 132.2569 L 62.9163 133.1099 L 59.3201 137.3214 L 59.2484 140.7727 "/>
        <path id="ID0.5982440118677914" fill="none" stroke="#313537" stroke-width="0.8540413396238158" stroke-linecap="round" d="M 68.0334 131.8556 L 66.9532 126.5387 L 72.3362 119.5913 "/>
      </g>
      <g id="ID0.7324484633281827">
        <path id="ID0.04993448918685317" fill="none" stroke="#313537" stroke-width="0.9522850864087884" stroke-linecap="round" d="M 79.1102 121.5595 L 79.6068 132.0472 L 79.7418 148.4805 L 79.6413 164.7898 "/>
        <g id="ID0.8167418288066983">
          <path id="ID0.9553722990676761" fill="none" stroke="#313537" stroke-width="0.9699703077304642" stroke-linecap="round" d="M 79.7502 136.4275 L 84.8128 135.1754 L 90.2815 133.384 L 94.457 134.4232 L 97.4528 138.7716 L 97.3811 142.2229 "/>
          <path id="ID0.5982440118677914" fill="none" stroke="#313537" stroke-width="0.7916616152166959" stroke-linecap="round" d="M 90.0361 133.0336 L 91.1927 127.7632 L 86.7336 120.6113 "/>
          <path id="ID0.3567589442245662" fill="none" stroke="#313537" stroke-width="0.8967655150693851" stroke-linecap="round" d="M 79.6263 149.1264 L 84.8586 144.2583 L 92.2253 142.5063 L 97.7521 142.6211 L 99.8958 147.309 L 100.0431 154.3367 L 94.4805 154.9355 L 88.7638 157.9124 L 83.8491 157.5722 L 79.6031 159.3176 L 73.8142 156.6971 L 68.2197 156.819 L 61.8569 153.5913 L 55.5704 152.7464 L 56.0511 145.7318 L 58.7016 141.1434 L 64.982 141.2738 L 73.2746 143.351 L 78.9911 148.4465 Z "/>
        </g>
      </g>
    </g>
    <g id="ID0.9312638868577778">
      <path id="ID0.2888958193361759" fill="#393C40" stroke="none" stroke-linecap="round" d="M 59.9592 161.4331 L 70.1308 163.729 L 69.4755 166.6319 L 59.3039 164.3359 L 59.9592 161.4331 Z " stroke-width="0.4761425459216224"/>
      <path id="ID0.2888958193361759" fill="#393C40" stroke="none" stroke-linecap="round" d="M 49.2081 159.1286 L 60.6308 161.829 L 59.9755 164.7319 L 49.8039 162.4359 L 49.2081 159.1286 Z " stroke-width="0.4761425459216224"/>
      <g id="ID0.36424446757882833">
        <path id="ID0.7359844641759992" fill="#8A7B59" stroke="none" d="M 62.8379 160.7806 L 64.3612 160.8122 L 64.2318 167.0484 L 62.7084 167.0167 L 62.8379 160.7806 Z " stroke-width="0.4761425432043942"/>
        <path id="ID0.7359844641759992" fill="#8A7B59" stroke="none" d="M 60.9879 160.3306 L 62.5112 160.3622 L 62.3818 166.5984 L 60.8584 166.5667 L 60.9879 160.3306 Z " stroke-width="0.4761425432043942"/>
        <path id="ID0.7359844641759992" fill="#8A7B59" stroke="none" d="M 59.0379 159.6306 L 60.5612 159.6622 L 60.4318 165.8984 L 58.9084 165.8667 L 59.0379 159.6306 Z " stroke-width="0.4761425432043942"/>
        <path id="ID0.7359844641759992" fill="#8A7B59" stroke="none" d="M 64.7379 161.3306 L 66.2612 161.3622 L 66.1318 167.5984 L 64.6084 167.5667 L 64.7379 161.3306 Z " stroke-width="0.4761425432043942"/>
      </g>
      <g id="ID0.1049797898158431">
        <path id="ID0.08871637750416994" fill="#8A7B59" stroke="none" stroke-linecap="round" d="M 50.9895 158.5074 L 57.3705 159.6877 L 57.2067 165.2801 L 51.0643 164.081 L 50.9895 158.5074 Z " stroke-width="0.4761425432043942"/>
        <path id="ID0.13805592898279428" fill="#76694C" stroke="none" stroke-linecap="round" d="M 50.7978 158.2378 L 57.4882 159.4245 L 57.5236 162.3065 L 50.8114 161.0241 L 50.7978 158.2378 Z " stroke-width="0.4761425432043942"/>
        <path id="ID0.3221200187690556" fill="#61563F" stroke="none" stroke-linecap="round" d="M 53.55 160.489 L 54.4208 160.8689 L 54.4618 162.6272 L 53.5129 162.2716 L 53.55 160.489 Z " stroke-width="0.5167888865886084"/>
        <path id="ID0.1420820001512766" fill="#BAA578" stroke="none" stroke-linecap="round" d="M 56.5518 164.3318 L 57.2956 162.9185 L 57.2952 165.2283 L 51.056 164.0986 L 56.5518 164.3318 Z " stroke-width="0.4761425432043942"/>
      </g>
      <path id="ID0.2888958193361759" fill="#393C40" stroke="none" stroke-linecap="round" d="M 97.5902 162.6025 L 90.1307 164.2611 L 90.5102 166.806 L 97.9697 165.1474 L 97.5902 162.6025 Z " stroke-width="0.3810469777360591"/>
      <path id="ID0.2888958193361759" fill="#393C40" stroke="none" stroke-linecap="round" d="M 104.1651 160.9157 L 97.1307 162.7111 L 97.5102 165.256 L 103.6833 163.8204 L 104.1651 160.9157 Z " stroke-width="0.3810469777360591"/>
      <path id="ID0.7359844641759992" fill="#8A7B59" stroke="none" d="M 95.5701 161.5255 L 94.4633 161.5025 L 94.3506 166.9273 L 95.4574 166.9503 L 95.5701 161.5255 Z " stroke-width="0.3816027988624045"/>
      <path id="ID0.7359844641759992" fill="#8A7B59" stroke="none" d="M 96.9701 161.0755 L 95.8633 161.0525 L 95.7506 166.4773 L 96.8574 166.5003 L 96.9701 161.0755 Z " stroke-width="0.3816027988624045"/>
      <path id="ID0.7359844641759992" fill="#8A7B59" stroke="none" d="M 98.4701 160.6255 L 97.3633 160.6025 L 97.2506 166.0273 L 98.3574 166.0503 L 98.4701 160.6255 Z " stroke-width="0.3816027988624045"/>
      <path id="ID0.7359844641759992" fill="#8A7B59" stroke="none" d="M 94.1201 162.0755 L 93.0133 162.0525 L 92.9006 167.4773 L 94.0074 167.5003 L 94.1201 162.0755 Z " stroke-width="0.3816027988624045"/>
      <g id="ID0.1049797898158431">
        <path id="ID0.08871637750416994" fill="#8A7B59" stroke="none" stroke-linecap="round" d="M 104.4077 159.8854 L 99.4448 160.7507 L 99.3742 165.9213 L 104.1538 165.0302 L 104.4077 159.8854 Z " stroke-width="0.40545296430512573"/>
        <path id="ID0.13805592898279428" fill="#76694C" stroke="none" stroke-linecap="round" d="M 104.6523 159.6886 L 99.4505 160.549 L 99.3217 163.2094 L 104.5437 162.2614 L 104.6523 159.6886 Z " stroke-width="0.40545296430512573"/>
        <path id="ID0.3221200187690556" fill="#61563F" stroke="none" stroke-linecap="round" d="M 102.5299 161.6428 L 101.8449 161.963 L 101.7513 163.5854 L 102.4957 163.2903 L 102.5299 161.6428 Z " stroke-width="0.4400648059527854"/>
        <path id="ID0.1420820001512766" fill="#BAA578" stroke="none" stroke-linecap="round" d="M 99.9982 165.1103 L 99.4743 163.7788 L 99.3933 165.912 L 104.245 165.0884 L 99.9982 165.1103 Z " stroke-width="0.40545296430512573"/>
      </g>
      <g id="ID0.6836685389280319">
        <path id="ID0.09357938077300787" fill="#857656" stroke="none" d="M 70.7247 160.9089 L 88.6952 161.2821 L 88.5618 167.7086 L 70.5913 167.3354 L 70.7247 160.9089 Z " stroke-width="0.42833206411122815"/>
        <path id="ID0.6492703901603818" fill="#7C6E50" stroke="none" stroke-linecap="round" d="M 71.3684 163.093 L 79.5158 166.3578 L 88.4106 163.4469 L 88.3221 167.7075 L 71.2799 167.3536 L 71.3684 163.093 Z " stroke-width="0.4761425432043942"/>
        <g id="ID0.9254062357358634">
          <g id="ID0.49943465692922473">
            <path id="ID0.140373723115772" fill="#968561" stroke="none" d="M 87.1906 160.0517 L 92.308 160.1579 L 92.1202 169.2027 L 87.0028 169.0964 L 87.1906 160.0517 Z " stroke-width="0.4761425432043942"/>
            <path id="ID0.8286363878287375" fill="#BAA578" stroke="none" stroke-linecap="round" d="M 87.1728 159.8742 L 92.4043 160.221 L 88.2469 160.8966 L 87.1789 163.0176 L 87.1728 159.8742 Z " stroke-width="0.4761425432043942"/>
            <path id="ID0.7362233307212591" fill="#8A7B59" stroke="none" stroke-linecap="round" d="M 87.07 165.968 L 89.7825 166.072 L 92.2845 163.6951 L 92.1683 169.2885 L 87.0033 169.1813 L 87.07 165.968 Z " stroke-width="0.4761425432043942"/>
          </g>
          <g id="ID0.49943465692922473">
            <path id="ID0.140373723115772" fill="#968561" stroke="none" d="M 72.1483 159.9906 L 67.0309 159.8843 L 66.8431 168.9291 L 71.9605 169.0354 L 72.1483 159.9906 Z " stroke-width="0.4761425432043942"/>
            <path id="ID0.8286363878287375" fill="#BAA578" stroke="none" stroke-linecap="round" d="M 72.2093 159.8013 L 66.9679 159.9306 L 71.0936 160.7782 L 72.0726 162.9417 L 72.2093 159.8013 Z " stroke-width="0.4761425432043942"/>
            <path id="ID0.7362233307212591" fill="#8A7B59" stroke="none" stroke-linecap="round" d="M 72.0589 165.8941 L 69.3445 165.8854 L 66.9433 163.4066 L 66.8272 169.0001 L 71.9922 169.1074 L 72.0589 165.8941 Z " stroke-width="0.4761425432043942"/>
          </g>
        </g>
      </g>
    </g>
  </g>
  <g id="ID0.8333355090580881">
    <path id="ID0.9286923445761204" fill="#27282B" stroke="none" stroke-linecap="round" d="M 65.863 44.1601 L 84.6707 45.6361 L 85.1468 69.9908 L 100.3834 77.1329 L 77.5285 88.4889 L 40.8656 75.9426 L 60.7445 65.3484 L 65.863 44.1601 Z " stroke-width="0.4761425852775574"/>
    <path id="ID0.5448851804248989" fill="none" stroke="#1D1E1F" stroke-width="0.9522851705551147" stroke-linecap="round" d="M 62.1729 59.5871 L 60.935 65.158 L 78.0285 73.0143 L 84.8611 70.086 "/>
    <path id="ID0.262191956397146" fill="none" stroke="#1D1E1F" stroke-width="0.9522851705551147" stroke-linecap="round" d="M 64.9346 64.539 L 77.6476 70.7288 L 80.6473 69.6099 "/>
  </g>
  <g id="ID0.3450673264451325">
    <g id="ID0.9831569031812251">
      <path id="ID0.0877610077150166" fill="#2E3034" stroke="none" stroke-linecap="round" d="M 88.7251 13.3343 L 84.1527 0.2177 L 84.1527 28.7463 L 91.8241 28.7463 L 88.7251 13.3343 Z " stroke-width="0.5866066539949776"/>
      <path id="ID0.796130308881402" fill="#242628" stroke="none" stroke-linecap="round" d="M 89.033 13.3789 L 84.105 0.2623 L 87.6613 14.1004 L 88.6012 28.9877 L 91.7764 28.6926 L 89.033 13.3789 Z " stroke-width="0.5866066539949776"/>
    </g>
    <g id="ID0.9831569031812251">
      <path id="ID0.0877610077150166" fill="#2E3034" stroke="none" stroke-linecap="round" d="M 64.8249 13.4843 L 69.3973 0.3677 L 69.3973 28.8963 L 61.7259 28.8963 L 64.8249 13.4843 Z " stroke-width="0.5866066539949776"/>
      <path id="ID0.796130308881402" fill="#242628" stroke="none" stroke-linecap="round" d="M 64.417 13.5289 L 69.345 0.4123 L 65.7887 14.2504 L 64.6964 28.8098 L 61.6736 28.8426 L 64.417 13.5289 Z " stroke-width="0.5866066539949776"/>
    </g>
    <path id="ID0.8999492498114705" fill="#2E3034" stroke="none" stroke-linecap="round" d="M 82.3733 19.3124 C 86.7775 19.7915 91.5093 22.5019 93.6416 26.3848 C 96.0745 30.8179 94.1267 36.4165 94.4265 41.412 C 94.5997 43.1155 95.3923 44.8682 95.0615 46.4924 C 94.3879 49.7962 92.7139 52.8251 91.6323 56.0181 C 90.9236 58.1107 90.7691 60.4655 89.6001 62.3686 C 88.2843 64.6212 86.9416 67.7553 84.3419 68.211 C 80.488 68.8862 76.4115 67.0451 72.9619 65.2898 C 70.1281 63.8475 67.4746 61.6355 65.9002 58.8631 C 63.0806 53.7182 60.5196 48.0582 60.134 42.1741 C 59.7067 35.6514 58.9365 27.5853 63.6902 22.8687 C 67.9425 18.3273 75.8262 18.6032 82.3733 19.3124 Z " stroke-width="0.508037269115448"/>
    <path id="ID0.2441388238221407" fill="#AB8E85" stroke="none" d="M 80.0438 44.1745 C 84.1241 44.3416 89.5631 41.1768 92.2883 43.9234 C 94.7434 46.5142 91.3753 51.3755 90.4045 54.8492 C 89.4375 58.304 88.7493 62.0426 86.5114 64.8959 C 85.4439 66.1643 83.2186 66.2359 81.488 65.9634 C 78.3761 65.4698 75.3143 64.1864 72.7198 62.3955 C 70.0348 60.5432 66.487 58.5137 65.9156 55.2887 C 65.1923 51.2035 65.8566 45.8084 69.0552 43.2327 C 71.9889 40.9834 76.3743 44.0238 80.0438 44.1745 Z " stroke-width="1.2558400630950928"/>
    <path id="ID0.46721756737679243" fill="#A2887F" stroke="none" stroke-linecap="round" d="M 65.4363 45.2953 L 67.1129 45.9812 L 93.1244 45.6001 L 85.9102 50.6805 L 69.1704 48.2165 L 70.2881 50.6043 L 70.5421 56.2181 L 74.1746 63.4068 L 69.6023 56.7261 L 65.4363 45.2953 Z " stroke-width="0.508037269115448"/>
    <path id="ID0.8256730306893587" fill="none" stroke="#937B73" stroke-width="1.016074538230896" stroke-linecap="round" d="M 76.3886 57.0778 C 76.3886 57.0778 79.0878 56.4813 80.4529 56.2903 C 80.7943 56.2425 81.1326 56.3203 81.4689 56.3665 C 81.8109 56.4138 82.1401 56.5814 82.485 56.5697 C 83.1688 56.5469 83.8379 56.3497 84.5172 56.2649 C 84.854 56.2227 85.1939 56.1846 85.5332 56.1887 C 85.8731 56.1928 86.2181 56.2131 86.5493 56.2903 C 87.0939 56.4173 88.1496 56.7983 88.1496 56.7983 "/>
    <path id="ID0.7592270169407129" fill="none" stroke="#937B73" stroke-width="1.016074538230896" stroke-linecap="round" d="M 84.9693 58.4019 C 84.9693 58.4019 84.3475 58.7468 84.004 58.8083 C 83.6708 58.8682 83.3248 58.7235 82.988 58.7575 C 82.6491 58.792 82.3351 58.9688 81.9973 59.0115 C 81.6615 59.0542 81.3109 59.0867 80.9812 59.0115 C 80.7008 58.9475 80.2192 58.6051 80.2192 58.6051 "/>
    <path id="ID0.5332203092984855" fill="none" stroke="#937B73" stroke-width="1.016074538230896" stroke-linecap="round" d="M 79.0009 48.9532 C 79.0009 48.9532 78.3954 49.385 78.2897 49.7152 C 78.1525 50.1577 77.898 51.0026 78.3405 51.3156 C 78.9212 51.6056 79.6797 50.8786 80.3726 50.9345 C 81.0433 50.9914 82.354 51.4426 82.354 51.4426 "/>
    <path id="ID0.2278452254831791" fill="none" stroke="#937B73" stroke-width="1.016074538230896" stroke-linecap="round" d="M 83.3447 45.2953 C 83.3447 45.2953 84.2789 47.1578 84.7418 48.0895 C 84.8967 48.4015 85.0674 48.7073 85.199 49.0294 C 85.3306 49.3515 85.5429 49.6726 85.5292 50.0201 C 85.5155 50.3686 85.3092 50.6907 85.1228 50.9853 C 84.9983 51.1824 84.6148 51.468 84.6148 51.468 "/>
    <path id="ID0.6473136460408568" fill="none" stroke="#937B73" stroke-width="1.016074563998663" stroke-linecap="round" d="M 83.6945 62.2247 C 83.6945 62.2247 84.0113 62.8595 84.0622 63.2041 C 84.1113 63.5396 84.0513 63.8871 83.9877 64.2203 C 83.8923 64.7223 83.5871 65.7015 83.5871 65.7015 "/>
    <path id="ID0.11669129692018032" fill="#2E3034" stroke="none" stroke-linecap="round" d="M 67.3669 39.9609 L 90.6096 41.739 L 94.5469 44.4062 L 85.1482 49.1056 L 64.4457 46.5654 L 67.3669 39.9609 Z " stroke-width="0.508037269115448"/>
    <path id="ID0.14635155349969864" fill="#2E3034" stroke="none" stroke-linecap="round" d="M 64.6997 45.2191 L 66.554 45.6001 L 69.1958 50.8075 L 69.5006 56.5737 L 71.3296 60.384 L 74.2254 63.9149 L 65.9952 58.7075 L 64.6997 45.2191 Z " stroke-width="0.508037269115448"/>
    <path id="ID0.28340246016159654" fill="#1C1D1F" stroke="none" stroke-linecap="round" d="M 67.5308 36.8008 L 70.9604 38.3401 L 80.6283 39.2313 L 80.6283 44.9834 L 73.688 44.0382 L 69.8262 42.958 L 67.8008 41.4457 L 66.9367 39.7174 L 67.5308 36.8008 Z " stroke-width="0.5401026606559753"/>
    <path id="ID0.6101007834076881" fill="#FFFFFF" stroke="none" stroke-linecap="round" d="M 71.3473 39.3334 L 73.0001 39.7332 L 76.78 40.9344 L 77.3247 42.9027 L 72.07 41.4498 L 71.3473 39.3334 Z " stroke-width="0.4061061920009203"/>
    <path id="ID0.28340246016159654" fill="#1C1D1F" stroke="none" stroke-linecap="round" d="M 93.1357 36.8586 L 90.0774 38.2313 L 81.4563 39.0259 L 81.4563 44.1553 L 87.6452 43.3124 L 91.0888 42.3492 L 92.8949 41.0006 L 93.6655 39.4594 L 93.1357 36.8586 Z " stroke-width="0.4816249907016754"/>
    <path id="ID0.6101007834076881" fill="#FFFFFF" stroke="none" stroke-linecap="round" d="M 91.4526 38.9089 L 89.9112 39.4003 L 86.4053 40.7963 L 86.0217 42.7012 L 90.9101 40.9663 L 91.4526 38.9089 Z " stroke-width="0.3863867372519633"/>
    <g id="ID0.07940126257017255">
      <path id="ID0.46257128613069654" fill="#27282B" stroke="none" stroke-linecap="round" d="M 80.8045 39.0743 L 85.1482 49.0318 L 75.1145 47.7617 L 80.8045 39.0743 Z " stroke-width="0.508037269115448"/>
      <path id="ID0.9845890481956303" fill="#27282B" stroke="none" stroke-linecap="round" d="M 81.6173 39.1989 L 89.8983 46.5654 L 85.2244 49.1056 L 81.6173 39.1989 Z " stroke-width="0.508037269115448"/>
    </g>
    <path id="ID0.20071752788498998" fill="#202324" stroke="none" d="M 72.3686 34.5018 L 76.5091 37.0673 L 81.2593 38.2358 L 81.3355 39.6329 L 73.5625 38.3628 L 67.6693 36.0259 L 69.3966 34.2477 L 72.3686 34.5018 Z " stroke-width="0.508037269115448"/>
    <path id="ID0.20071752788498998" fill="#202324" stroke="none" d="M 89.4242 34.2614 L 86.3713 36.7084 L 81.1277 38.2698 L 81.0578 39.5516 L 88.1891 38.3864 L 93.6191 36.3588 L 92.081 34.1216 L 89.4242 34.2614 Z " stroke-width="0.46609798073768616"/>
    <path id="ID0.521138689480722" fill="none" stroke="#212325" stroke-width="0.9060627222061157" stroke-linecap="round" d="M 93.2139 36.5742 L 89.9747 38.1598 L 81.4351 39.4057 "/>
    <path id="ID0.17828734638169408" fill="none" stroke="#202324" stroke-width="1.016074538230896" stroke-linecap="round" d="M 85.0466 48.5467 L 82.1254 41.3072 C 81.1245 38.8879 81.2729 39.4564 81.0839 38.4876 C 81.0179 38.1493 81.2358 37.8129 81.2871 37.4715 C 81.3374 37.1352 81.4014 36.7953 81.3887 36.4555 C 81.376 36.112 81.2769 35.7762 81.2109 35.4394 C 81.1078 34.9136 80.8807 33.8645 80.8807 33.8645 "/>
    <path id="ID0.521138689480722" fill="none" stroke="#212325" stroke-width="1.016074538230896" stroke-linecap="round" d="M 67.8068 36.3055 L 71.4392 38.0836 L 81.0157 39.4807 "/>
    <path id="ID0.8012696979567409" fill="none" stroke="url(#grad_1)" stroke-width="1.016074538230896" stroke-linecap="round" d="M 93.1244 45.1429 L 85.6562 49.0548 L 67.0621 46.7178 L 69.0434 50.5789 L 69.3482 56.6753 L 71.2788 60.2824 L 74.1746 63.9149 "/>
    <path id="ID0.043594349175691605" fill="#D7E2FD" stroke="none" stroke-linecap="round" d="M 76.5289 41.9677 L 76.7575 40.85 L 77.2656 42.9075 L 74.6746 42.1709 L 76.5289 41.9677 Z " stroke-width="0.508037269115448"/>
    <path id="ID0.043594349175691605" fill="#D7E2FD" stroke="none" stroke-linecap="round" d="M 86.7225 41.8348 L 86.4574 40.8321 L 86.1024 42.7258 L 88.4161 41.9236 L 86.7225 41.8348 Z " stroke-width="0.4618642652203811"/>
  </g>
  <g id="ID0.3079507672227919">
    <path id="ID0.5368814701214433" fill="#292D2E" stroke="none" stroke-linecap="round" d="M 82.1748 322.0912 L 83.642 312.4386 L 88.472 300.5772 L 99.3147 306.8789 L 110.7058 317.0137 L 128.344 327.0527 L 129.5348 333.5486 L 104.8615 335.1542 L 83.5563 331.8555 L 82.1748 322.0912 Z " stroke-width="0.7702165798975615"/>
    <g id="ID0.9340031337924302">
      <path id="ID0.05466862628236413" fill="#292D2E" stroke="none" stroke-linecap="round" d="M 87.8243 229.6033 L 114.4314 226.9467 L 108.7091 245.5605 L 106.9088 250.525 L 105.5004 268.6128 L 100.4701 309.0536 L 84.7271 310.2245 L 83.5406 288.007 L 81.2031 279.2583 L 80.2984 269.7819 L 82.9866 256.3815 L 83.5446 244.073 L 87.8243 229.6033 Z " stroke-width="0.7305890425389004"/>
      <path id="ID0.4490455654449761" fill="none" stroke="#272A2B" stroke-width="1.6585525133981658" stroke-linecap="round" d="M 87.5141 229.7814 L 114.1285 226.7384 L 106.2443 250.8152 "/>
      <path id="ID0.10446935473009944" fill="none" stroke="#242728" stroke-width="1.6585525133981658" stroke-linecap="round" d="M 105.3474 263.1195 L 104.4207 279.9323 L 93.5517 286.7847 "/>
      <path id="ID0.42170455446466804" fill="none" stroke="#242728" stroke-width="1.6585525133981658" stroke-linecap="round" d="M 103.2665 281.0453 L 101.1293 296.0265 L 90.0316 303.0623 "/>
      <path id="ID0.047098892275244" fill="none" stroke="#242728" stroke-width="1.6585525133981658" stroke-linecap="round" d="M 83.7838 243.903 L 83.1324 247.789 L 87.2235 256.8386 "/>
    </g>
  </g>
  <g id="ID0.4898335998877883">
    <path id="ID0.5368814701214433" fill="#303436" stroke="none" stroke-linecap="round" d="M 3.8664 306.1103 L 9.1193 298.4494 L 16.0302 290.8405 L 23.9533 299.2705 L 32.6137 309.7689 L 46.4572 324.6095 L 45.6575 331.1651 L 21.6274 325.3423 L 2.2742 315.8424 L 3.8664 306.1103 Z " stroke-width="0.7702165979912763"/>
    <g id="ID0.9492031107656658">
      <path id="ID0.05466862628236413" fill="#303436" stroke="none" stroke-linecap="round" d="M 48.4521 223.5303 L 73.6165 232.572 L 60.4467 246.9169 L 56.6868 250.6251 L 47.638 266.35 L 25.7082 300.6988 L 10.9913 294.987 L 19.4729 274.4178 L 21.1241 265.514 L 24.3819 256.5694 L 32.5706 245.6268 L 38.3667 234.754 L 48.4521 223.5303 Z " stroke-width="0.7305890071438415"/>
      <path id="ID0.4490455654449761" fill="none" stroke="#272A2B" stroke-width="1.6585525114738977" stroke-linecap="round" d="M 47.9379 224.3262 L 73.275 233.0222 L 55.8045 251.3699 "/>
      <path id="ID0.10446935473009944" fill="none" stroke="#242728" stroke-width="1.6585525114738977" stroke-linecap="round" d="M 49.7043 262.0931 L 41.6386 276.874 L 28.8794 278.3873 "/>
      <path id="ID0.42170455446466804" fill="none" stroke="#242728" stroke-width="1.6585525114738977" stroke-linecap="round" d="M 40.1181 277.3825 L 31.747 289.9893 L 18.7024 291.5699 "/>
      <path id="ID0.047098892275244" fill="none" stroke="#242728" stroke-width="1.6585525114738977" stroke-linecap="round" d="M 38.4286 235.3737 L 36.1697 238.6021 L 35.9722 248.5315 "/>
    </g>
  </g>
</svg>