<svg xmlns="http://www.w3.org/2000/svg" xmlns:xlink="http://www.w3.org/1999/xlink" version="1.1" width="270.29066905379824" height="50.547962754970136" viewBox="0.9814185649130038 -0.023981377485067457 270.29066905379824 50.547962754970136">
  <defs>
    <linearGradient id="grad_1" y2="1" x2="0">
      <stop offset="0" stop-color="#707070" stop-opacity="1"/>
      <stop offset="1" stop-color="#4E4E4E" stop-opacity="1"/>
    </linearGradient>
    <linearGradient id="grad_2" y2="1" x2="0">
      <stop offset="0" stop-color="#707070" stop-opacity="1"/>
      <stop offset="1" stop-color="#4E4E4E" stop-opacity="1"/>
    </linearGradient>
    <linearGradient id="grad_3" y2="1" x2="0">
      <stop offset="0" stop-color="#707070" stop-opacity="1"/>
      <stop offset="1" stop-color="#4E4E4E" stop-opacity="1"/>
    </linearGradient>
    <linearGradient id="grad_4" y2="1" x2="0">
      <stop offset="0" stop-color="#707070" stop-opacity="1"/>
      <stop offset="1" stop-color="#4E4E4E" stop-opacity="1"/>
    </linearGradient>
    <linearGradient id="grad_5" y2="1" x2="0">
      <stop offset="0" stop-color="#707070" stop-opacity="1"/>
      <stop offset="1" stop-color="#4E4E4E" stop-opacity="1"/>
    </linearGradient>
    <linearGradient id="grad_6" y2="1" x2="0">
      <stop offset="0" stop-color="#326EAB" stop-opacity="1"/>
      <stop offset="1" stop-color="#214B75" stop-opacity="1"/>
    </linearGradient>
    <linearGradient id="grad_7" y2="1" x2="0">
      <stop offset="0" stop-color="#707070" stop-opacity="1"/>
      <stop offset="1" stop-color="#4E4E4E" stop-opacity="1"/>
    </linearGradient>
    <linearGradient id="grad_8" y2="1" x2="0">
      <stop offset="0" stop-color="#707070" stop-opacity="1"/>
      <stop offset="1" stop-color="#4E4E4E" stop-opacity="1"/>
    </linearGradient>
    <linearGradient id="grad_9" y2="1" x2="0">
      <stop offset="0" stop-color="#707070" stop-opacity="1"/>
      <stop offset="1" stop-color="#4E4E4E" stop-opacity="1"/>
    </linearGradient>
    <linearGradient id="grad_10" y2="1" x2="0">
      <stop offset="0" stop-color="#707070" stop-opacity="1"/>
      <stop offset="1" stop-color="#4E4E4E" stop-opacity="1"/>
    </linearGradient>
    <linearGradient id="grad_11" y2="1" x2="0">
      <stop offset="0" stop-color="#707070" stop-opacity="1"/>
      <stop offset="1" stop-color="#4E4E4E" stop-opacity="1"/>
    </linearGradient>
    <linearGradient id="grad_12" y2="1" x2="0">
      <stop offset="0" stop-color="#707070" stop-opacity="1"/>
      <stop offset="1" stop-color="#4E4E4E" stop-opacity="1"/>
    </linearGradient>
    <linearGradient id="grad_13" y2="1" x2="0">
      <stop offset="0" stop-color="#707070" stop-opacity="1"/>
      <stop offset="1" stop-color="#4E4E4E" stop-opacity="1"/>
    </linearGradient>
  <linearGradient id="grad_1-.8409090638160706,0,0,0.8409090638160706,-106.4,-173.85" y2="35.5364" x2="31.425" x1="31.425" y1="20.0636" gradientUnits="userSpaceOnUse">
      <stop offset="0" stop-color="#707070" stop-opacity="1"/>
      <stop offset="1" stop-color="#4E4E4E" stop-opacity="1"/>
    </linearGradient><linearGradient id="grad_2-.8409090638160706,0,0,0.8409090638160706,-106.4,-173.85" y2="35.4523" x2="46.0568" x1="46.0568" y1="20.0636" gradientUnits="userSpaceOnUse">
      <stop offset="0" stop-color="#707070" stop-opacity="1"/>
      <stop offset="1" stop-color="#4E4E4E" stop-opacity="1"/>
    </linearGradient><linearGradient id="grad_3-.8409090638160706,0,0,0.8409090638160706,-106.4,-173.85" y2="35.4523" x2="61.95" x1="61.95" y1="20.0636" gradientUnits="userSpaceOnUse">
      <stop offset="0" stop-color="#707070" stop-opacity="1"/>
      <stop offset="1" stop-color="#4E4E4E" stop-opacity="1"/>
    </linearGradient><linearGradient id="grad_4-.8409090638160706,0,0,0.8409090638160706,-106.4,-173.85" y2="35.7045" x2="75.5727" x1="75.5727" y1="19.8114" gradientUnits="userSpaceOnUse">
      <stop offset="0" stop-color="#707070" stop-opacity="1"/>
      <stop offset="1" stop-color="#4E4E4E" stop-opacity="1"/>
    </linearGradient><linearGradient id="grad_5-.8409090638160706,0,0,0.8409090638160706,-106.4,-173.85" y2="35.7045" x2="89.6159" x1="89.6159" y1="19.8114" gradientUnits="userSpaceOnUse">
      <stop offset="0" stop-color="#707070" stop-opacity="1"/>
      <stop offset="1" stop-color="#4E4E4E" stop-opacity="1"/>
    </linearGradient><linearGradient id="grad_6-.8409090638160706,0,0,0.8409090638160706,-106.4,-173.85" y2="35.3682" x2="111.7318" x1="111.7318" y1="17.2045" gradientUnits="userSpaceOnUse">
      <stop offset="0" stop-color="#326EAB" stop-opacity="1"/>
      <stop offset="1" stop-color="#214B75" stop-opacity="1"/>
    </linearGradient><linearGradient id="grad_7-.8409090638160706,0,0,0.8409090638160706,-106.4,-173.85" y2="35.6205" x2="134.1841" x1="134.1841" y1="20.6523" gradientUnits="userSpaceOnUse">
      <stop offset="0" stop-color="#707070" stop-opacity="1"/>
      <stop offset="1" stop-color="#4E4E4E" stop-opacity="1"/>
    </linearGradient><linearGradient id="grad_8-.8409090638160706,0,0,0.8409090638160706,-106.4,-173.85" y2="35.7045" x2="143.5182" x1="143.5182" y1="23.4273" gradientUnits="userSpaceOnUse">
      <stop offset="0" stop-color="#707070" stop-opacity="1"/>
      <stop offset="1" stop-color="#4E4E4E" stop-opacity="1"/>
    </linearGradient><linearGradient id="grad_9-.8409090638160706,0,0,0.8409090638160706,-106.4,-173.85" y2="35.4523" x2="165.6341" x1="165.6341" y1="20.0636" gradientUnits="userSpaceOnUse">
      <stop offset="0" stop-color="#707070" stop-opacity="1"/>
      <stop offset="1" stop-color="#4E4E4E" stop-opacity="1"/>
    </linearGradient><linearGradient id="grad_10-.8409090638160706,0,0,0.8409090638160706,-106.4,-173.85" y2="35.4523" x2="180.35" x1="180.35" y1="20.0636" gradientUnits="userSpaceOnUse">
      <stop offset="0" stop-color="#707070" stop-opacity="1"/>
      <stop offset="1" stop-color="#4E4E4E" stop-opacity="1"/>
    </linearGradient><linearGradient id="grad_11-.8409090638160706,0,0,0.8409090638160706,-106.4,-173.85" y2="35.4523" x2="196.5795" x1="196.5795" y1="20.0636" gradientUnits="userSpaceOnUse">
      <stop offset="0" stop-color="#707070" stop-opacity="1"/>
      <stop offset="1" stop-color="#4E4E4E" stop-opacity="1"/>
    </linearGradient><linearGradient id="grad_12-.8409090638160706,0,0,0.8409090638160706,-106.4,-173.85" y2="35.4523" x2="211.9682" x1="211.9682" y1="20.0636" gradientUnits="userSpaceOnUse">
      <stop offset="0" stop-color="#707070" stop-opacity="1"/>
      <stop offset="1" stop-color="#4E4E4E" stop-opacity="1"/>
    </linearGradient><linearGradient id="grad_13-.8409090638160706,0,0,0.8409090638160706,-106.4,-173.85" y2="35.4523" x2="226.6841" x1="226.6841" y1="20.0636" gradientUnits="userSpaceOnUse">
      <stop offset="0" stop-color="#707070" stop-opacity="1"/>
      <stop offset="1" stop-color="#4E4E4E" stop-opacity="1"/>
    </linearGradient></defs>
  <!-- Exported by Scratch - http://scratch.mit.edu/ -->
  <path id="ID0.14518280653283" fill="#1F1F1F" stroke="#FFFFFF" stroke-width="2.047962754970135" d="M 270.2481 49.5 L 5.9856 46.5 L 2.0054 32 L 3.4718 16.5 L 7.4519 16 L 4.4668 3 L 23.5297 4.5 L 36.6748 3 L 76.5289 1 L 97.1629 3.5 L 137.4884 3 L 187.45 2.85 L 241.1823 6.35 L 234.9502 2.6 L 258.936 5.35 L 264.4349 3.85 L 266.2679 30 L 270.2481 49.5 Z "/>
  <g id="ID0.835694651119411">
    <path id="ID0.8684108564630151" fill="url(#grad_1-.8409090638160706,0,0,0.8409090638160706,-106.4,-173.85)" d="M 31.425 20.0636 L 37.7318 20.0636 C 38.6568 20.0636 39.4977 20.2318 40.1704 20.4841 C 40.9273 20.7364 41.5159 21.0727 42.0204 21.5773 C 42.525 22.0818 42.9454 22.5864 43.1977 23.2591 C 43.45 23.9318 43.6182 24.6045 43.6182 25.4454 L 43.6182 25.5295 C 43.6182 26.4545 43.45 27.2114 43.1136 27.8841 C 42.7773 28.5568 42.3568 29.1454 41.7682 29.5659 C 41.1795 29.9864 40.5068 30.3227 39.8341 30.575 C 39.0773 30.8273 38.2364 30.9114 37.3954 30.9114 L 34.7886 30.9114 L 34.7886 35.5364 L 31.425 35.5364 L 31.425 20.0636 Z M 37.4795 27.8 C 38.3204 27.8 38.9932 27.5477 39.4136 27.1273 C 39.9182 26.7068 40.0864 26.1182 40.0864 25.4454 L 40.0864 25.4454 C 40.0864 24.6886 39.8341 24.1 39.3295 23.6795 C 38.825 23.2591 38.1523 23.0909 37.3114 23.0909 L 34.7045 23.0909 L 34.7045 27.8 L 37.4795 27.8 Z " stroke-width="0.8409090638160706"/>
    <path id="ID0.9723289427347481" fill="url(#grad_2-.8409090638160706,0,0,0.8409090638160706,-106.4,-173.85)" d="M 46.0568 20.0636 L 53.1204 20.0636 C 55.0545 20.0636 56.5682 20.5682 57.5773 21.6614 C 58.4182 22.5023 58.9227 23.6795 58.9227 25.1932 L 58.9227 25.2773 C 58.9227 26.5386 58.5864 27.5477 57.9977 28.3045 C 57.4091 29.0614 56.5682 29.65 55.6432 29.9864 L 59.4273 35.4523 L 55.475 35.4523 L 52.1954 30.575 L 52.1114 30.575 L 49.5045 30.575 L 49.5045 35.4523 L 46.1409 35.4523 L 46.1409 20.0636 Z M 52.8682 27.5477 C 53.7091 27.5477 54.3818 27.3795 54.8023 26.9591 C 55.2227 26.5386 55.475 26.0341 55.475 25.3614 L 55.475 25.2773 C 55.475 24.5204 55.2227 24.0159 54.8023 23.5954 C 54.3818 23.175 53.7091 23.0068 52.8682 23.0068 L 49.5045 23.0068 L 49.5045 27.3795 L 52.8682 27.3795 Z " stroke-width="0.8409090638160706"/>
    <path id="ID0.4137624027207494" fill="url(#grad_3-.8409090638160706,0,0,0.8409090638160706,-106.4,-173.85)" d="M 61.95 20.0636 L 73.5545 20.0636 L 73.5545 23.0909 L 65.3136 23.0909 L 65.3136 26.2023 L 72.5454 26.2023 L 72.5454 29.2295 L 65.3136 29.2295 L 65.3136 32.425 L 73.6386 32.425 L 73.6386 35.4523 L 61.95 35.4523 L 61.95 20.0636 Z " stroke-width="0.8409090638160706"/>
    <path id="ID0.9843781399540603" fill="url(#grad_4-.8409090638160706,0,0,0.8409090638160706,-106.4,-173.85)" d="M 82.1318 35.7045 C 80.9545 35.7045 79.7773 35.5364 78.6841 35.1159 C 77.5909 34.6954 76.4977 34.1068 75.5727 33.2659 L 77.5909 30.9114 C 78.2636 31.5 79.0204 31.9204 79.7773 32.2568 C 80.5341 32.5932 81.2909 32.7614 82.2159 32.7614 C 82.8886 32.7614 83.4773 32.5932 83.8136 32.3409 C 84.2341 32.0886 84.4023 31.7523 84.4023 31.2477 L 84.4023 31.1636 C 84.4023 30.9114 84.4023 30.7432 84.3182 30.575 C 84.2341 30.4068 84.0659 30.2386 83.8977 30.0704 C 83.6454 29.9023 83.3932 29.8182 82.9727 29.65 C 82.5523 29.4818 82.0477 29.3136 81.375 29.2295 C 80.6182 29.0614 79.8614 28.8091 79.2727 28.5568 C 78.6 28.3045 78.0954 28.0523 77.675 27.7159 C 77.2545 27.3795 76.9182 26.9591 76.6659 26.4545 C 76.4136 25.95 76.3295 25.2773 76.3295 24.5204 L 76.3295 24.4364 C 76.3295 23.7636 76.4977 23.0909 76.75 22.5023 C 77.0023 21.9136 77.3386 21.4932 77.8432 21.0727 C 78.3477 20.6523 78.8523 20.3159 79.525 20.1477 C 80.1977 19.8954 80.8704 19.8114 81.7114 19.8114 C 82.8045 19.8114 83.8977 19.9795 84.8227 20.3159 C 85.7477 20.6523 86.6727 21.1568 87.4295 21.7454 L 85.6636 24.2682 C 84.9909 23.7636 84.3182 23.4273 83.6454 23.175 C 82.9727 22.9227 82.3 22.7545 81.7114 22.7545 C 81.1227 22.7545 80.5341 22.9227 80.1977 23.175 C 79.8614 23.4273 79.6932 23.7636 79.6932 24.1 L 79.6932 24.1841 C 79.6932 24.4364 79.7773 24.6886 79.8614 24.8568 C 79.9454 25.025 80.1136 25.1932 80.3659 25.3614 C 80.6182 25.5295 80.9545 25.6136 81.375 25.7818 C 81.7954 25.95 82.3841 26.0341 83.0568 26.2023 C 83.8136 26.3704 84.4864 26.6227 85.1591 26.875 C 85.7477 27.1273 86.2523 27.4636 86.6727 27.8 C 87.0932 28.1364 87.4295 28.5568 87.5977 29.0614 C 87.85 29.5659 87.9341 30.1545 87.9341 30.8273 L 87.9341 30.9114 C 87.9341 31.6682 87.7659 32.3409 87.5136 32.9295 C 87.2614 33.5182 86.8409 34.0227 86.3364 34.4432 C 85.8318 34.8636 85.2432 35.1159 84.5704 35.3682 C 83.7295 35.5364 82.9727 35.7045 82.1318 35.7045 Z " stroke-width="0.8409090638160706"/>
    <path id="ID0.3311116583645344" fill="url(#grad_5-.8409090638160706,0,0,0.8409090638160706,-106.4,-173.85)" d="M 96.175 35.7045 C 94.9977 35.7045 93.8204 35.5364 92.7273 35.1159 C 91.6341 34.6954 90.5409 34.1068 89.6159 33.2659 L 91.6341 30.9114 C 92.3068 31.5 93.0636 31.9204 93.8204 32.2568 C 94.5773 32.5932 95.3341 32.7614 96.2591 32.7614 C 96.9318 32.7614 97.5204 32.5932 97.8568 32.3409 C 98.2773 32.0886 98.4454 31.7523 98.4454 31.2477 L 98.4454 31.1636 C 98.4454 30.9114 98.4454 30.7432 98.3614 30.575 C 98.2773 30.4068 98.1091 30.2386 97.9409 30.0704 C 97.6886 29.9023 97.4364 29.8182 97.0159 29.65 C 96.5954 29.4818 96.0909 29.3136 95.4182 29.2295 C 94.6614 29.0614 93.9045 28.8091 93.3159 28.5568 C 92.6432 28.3045 92.1386 28.0523 91.7182 27.7159 C 91.2977 27.3795 90.9614 26.9591 90.7091 26.4545 C 90.4568 25.95 90.3727 25.2773 90.3727 24.5204 L 90.3727 24.4364 C 90.3727 23.7636 90.5409 23.0909 90.7932 22.5023 C 91.0454 21.9136 91.3818 21.4932 91.8864 21.0727 C 92.3909 20.6523 92.8954 20.3159 93.5682 20.1477 C 94.2409 19.8954 94.9136 19.8114 95.7545 19.8114 C 96.8477 19.8114 97.9409 19.9795 98.8659 20.3159 C 99.7909 20.6523 100.7159 21.1568 101.4727 21.7454 L 99.7068 24.2682 C 99.0341 23.7636 98.3614 23.4273 97.6886 23.175 C 97.0159 22.9227 96.3432 22.7545 95.7545 22.7545 C 95.1659 22.7545 94.5773 22.9227 94.2409 23.175 C 93.9045 23.4273 93.7364 23.7636 93.7364 24.1 L 93.7364 24.1841 C 93.7364 24.4364 93.8204 24.6886 93.9045 24.8568 C 93.9886 25.025 94.1568 25.1932 94.4091 25.3614 C 94.6614 25.5295 94.9977 25.6136 95.4182 25.7818 C 95.8386 25.95 96.4273 26.0341 97.1 26.2023 C 97.8568 26.3704 98.5295 26.6227 99.2023 26.875 C 99.7909 27.1273 100.2954 27.4636 100.7159 27.8 C 101.1364 28.1364 101.4727 28.5568 101.6409 29.0614 C 101.8932 29.5659 101.9773 30.1545 101.9773 30.8273 L 101.9773 30.9114 C 101.9773 31.6682 101.8091 32.3409 101.5568 32.9295 C 101.3045 33.5182 100.8841 34.0227 100.3795 34.4432 C 99.875 34.8636 99.2864 35.1159 98.6136 35.3682 C 97.7727 35.5364 97.0159 35.7045 96.175 35.7045 Z " stroke-width="0.8409090638160706"/>
    <path id="ID0.724059212487191" fill="url(#grad_6-.8409090638160706,0,0,0.8409090638160706,-106.4,-173.85)" d="M 111.7318 17.2045 L 125.4386 17.2045 L 125.4386 20.7364 L 115.6841 20.7364 L 115.6841 24.4364 L 124.2614 24.4364 L 124.2614 27.9682 L 115.6841 27.9682 L 115.6841 31.8364 L 125.6068 31.8364 L 125.6068 35.3682 L 111.7318 35.3682 L 111.7318 17.2045 Z " stroke-width="0.8409090638160706"/>
    <path id="ID0.472880769520998" fill="url(#grad_7-.8409090638160706,0,0,0.8409090638160706,-106.4,-173.85)" d="M 139.0614 35.6204 C 138.5568 35.6204 138.0523 35.5364 137.6318 35.4523 C 137.2114 35.3682 136.875 35.1159 136.5386 34.8636 C 136.2023 34.6114 136.0341 34.1909 135.8659 33.7704 C 135.6977 33.35 135.6136 32.7614 135.6136 32.0886 L 135.6136 26.5386 L 134.1841 26.5386 L 134.1841 23.6795 L 135.6136 23.6795 L 135.6136 20.6523 L 138.9773 20.6523 L 138.9773 23.6795 L 141.7523 23.6795 L 141.7523 26.5386 L 138.9773 26.5386 L 138.9773 31.5841 C 138.9773 32.3409 139.3136 32.7614 140.0704 32.7614 C 140.6591 32.7614 141.1636 32.5932 141.7523 32.3409 L 141.7523 35.0318 C 141.4159 35.2 140.9954 35.3682 140.575 35.5364 C 140.0704 35.6204 139.5659 35.6204 139.0614 35.6204 Z " stroke-width="0.8409090638160706"/>
    <path id="ID0.3387170974165201" fill="url(#grad_8-.8409090638160706,0,0,0.8409090638160706,-106.4,-173.85)" d="M 149.9091 35.7045 C 148.9841 35.7045 148.1432 35.5364 147.3864 35.2 C 146.6295 34.8636 145.9568 34.4432 145.3682 33.9386 C 144.7795 33.35 144.3591 32.7614 144.0227 32.0045 C 143.6864 31.2477 143.5182 30.4909 143.5182 29.65 L 143.5182 29.5659 C 143.5182 28.725 143.6864 27.8841 144.0227 27.2114 C 144.3591 26.4545 144.7795 25.8659 145.3682 25.2773 C 145.9568 24.6886 146.6295 24.2682 147.3864 23.9318 C 148.1432 23.5954 148.9841 23.4273 149.9091 23.4273 C 150.8341 23.4273 151.675 23.5954 152.4318 23.9318 C 153.1886 24.2682 153.8614 24.6886 154.45 25.1932 C 155.0386 25.7818 155.4591 26.3704 155.7954 27.1273 C 156.1318 27.8841 156.3 28.6409 156.3 29.4818 L 156.3 29.5659 C 156.3 30.4068 156.1318 31.2477 155.7954 31.9204 C 155.4591 32.6773 155.0386 33.2659 154.45 33.8545 C 153.8614 34.4432 153.1886 34.8636 152.4318 35.2 C 151.675 35.5364 150.8341 35.7045 149.9091 35.7045 Z M 149.9932 32.8454 C 150.4977 32.8454 150.9182 32.7614 151.2545 32.5932 C 151.5909 32.425 151.9273 32.1727 152.1795 31.9204 C 152.4318 31.6682 152.6841 31.2477 152.7682 30.9114 C 152.9364 30.4909 152.9364 30.0704 152.9364 29.65 L 152.9364 29.5659 C 152.9364 29.1454 152.8523 28.725 152.6841 28.3045 C 152.5159 27.8841 152.3477 27.5477 152.0114 27.2954 C 151.7591 26.9591 151.4227 26.7909 151.0023 26.6227 C 150.5818 26.4545 150.2454 26.3704 149.7409 26.3704 C 149.2364 26.3704 148.8159 26.4545 148.4795 26.6227 C 148.1432 26.7909 147.8068 27.0432 147.5545 27.2954 C 147.3023 27.5477 147.05 27.9682 146.9659 28.3045 C 146.7977 28.725 146.7977 29.1454 146.7977 29.5659 L 146.7977 29.65 C 146.7977 30.0704 146.8818 30.4909 147.05 30.9114 C 147.2182 31.3318 147.3864 31.6682 147.7227 31.9204 C 147.975 32.2568 148.3114 32.425 148.7318 32.5932 C 149.0682 32.7614 149.4886 32.8454 149.9932 32.8454 Z " stroke-width="0.8409090638160706"/>
    <path id="ID0.32807148108258843" fill="url(#grad_9-.8409090638160706,0,0,0.8409090638160706,-106.4,-173.85)" d="M 165.6341 20.0636 L 177.2386 20.0636 L 177.2386 23.0909 L 168.9977 23.0909 L 168.9977 26.2023 L 176.2295 26.2023 L 176.2295 29.2295 L 168.9977 29.2295 L 168.9977 32.425 L 177.3227 32.425 L 177.3227 35.4523 L 165.6341 35.4523 L 165.6341 20.0636 Z " stroke-width="0.8409090638160706"/>
    <path id="ID0.6943921134807169" fill="url(#grad_10-.8409090638160706,0,0,0.8409090638160706,-106.4,-173.85)" d="M 180.35 20.0636 L 183.4614 20.0636 L 190.6932 29.5659 L 190.6932 20.0636 L 194.0568 20.0636 L 194.0568 35.4523 L 191.1977 35.4523 L 183.7977 25.6977 L 183.7977 35.4523 L 180.4341 35.4523 L 180.4341 20.0636 Z " stroke-width="0.8409090638160706"/>
    <path id="ID0.8031242098659277" fill="url(#grad_11-.8409090638160706,0,0,0.8409090638160706,-106.4,-173.85)" d="M 201.2886 23.175 L 196.5795 23.175 L 196.5795 20.0636 L 209.2773 20.0636 L 209.2773 23.175 L 204.5682 23.175 L 204.5682 35.4523 L 201.2045 35.4523 L 201.2045 23.175 Z " stroke-width="0.8409090638160706"/>
    <path id="ID0.5209877924062312" fill="url(#grad_12-.8409090638160706,0,0,0.8409090638160706,-106.4,-173.85)" d="M 211.9682 20.0636 L 223.5727 20.0636 L 223.5727 23.0909 L 215.3318 23.0909 L 215.3318 26.2023 L 222.5636 26.2023 L 222.5636 29.2295 L 215.3318 29.2295 L 215.3318 32.425 L 223.6568 32.425 L 223.6568 35.4523 L 211.9682 35.4523 L 211.9682 20.0636 Z " stroke-width="0.8409090638160706"/>
    <path id="ID0.16192359197884798" fill="url(#grad_13-.8409090638160706,0,0,0.8409090638160706,-106.4,-173.85)" d="M 226.6841 20.0636 L 233.7477 20.0636 C 235.6818 20.0636 237.1954 20.5682 238.2045 21.6614 C 239.0454 22.5023 239.55 23.6795 239.55 25.1932 L 239.55 25.2773 C 239.55 26.5386 239.2136 27.5477 238.625 28.3045 C 238.0364 29.0614 237.1954 29.65 236.2704 29.9864 L 240.0545 35.4523 L 236.1023 35.4523 L 232.8227 30.575 L 232.7386 30.575 L 230.1318 30.575 L 230.1318 35.4523 L 226.7682 35.4523 L 226.7682 20.0636 Z M 233.4954 27.5477 C 234.3364 27.5477 235.0091 27.3795 235.4295 26.9591 C 235.85 26.5386 236.1023 26.0341 236.1023 25.3614 L 236.1023 25.2773 C 236.1023 24.5204 235.85 24.0159 235.4295 23.5954 C 234.925 23.2591 234.3364 23.0068 233.4954 23.0068 L 230.1318 23.0068 L 230.1318 27.3795 L 233.4954 27.3795 Z " stroke-width="0.8409090638160706"/>
  </g>
</svg>