<svg xmlns="http://www.w3.org/2000/svg" xmlns:xlink="http://www.w3.org/1999/xlink" version="1.1" width="120.75559997558594" height="390.6683349609375" viewBox="-0.5056000002659857 0.26239997148513794 120.75559997558594 390.6683349609375">
  <!-- Exported by Scratch - http://scratch.mit.edu/ -->
  <path id="ID0.7729651997797191" fill="#7C0D0D" stroke="none" stroke-linecap="round" d="M 97.9463 157.2565 L 78.6707 158.4248 L 82.1754 174.5851 L 84.9012 187.6301 L 88.6006 193.0818 L 91.9105 196.3917 L 103.9821 193.0818 L 105.345 187.4354 L 100.088 168.3546 L 97.9463 157.2565 Z " stroke-width="0.7788099050521851"/>
  <path id="ID0.4757494777441025" fill="#7C0D0D" stroke="none" stroke-linecap="round" d="M 89.0199 133.5188 L 80.8445 131.4749 L 65.6293 136.1303 L 73.464 160.4293 L 83.3426 165.1983 L 87.6573 166.2202 L 90.7231 163.9492 L 93.4482 161.1106 L 98.8984 158.6126 L 99.012 153.3894 L 98.3307 145.6683 L 95.2649 137.72 L 89.0199 133.5188 Z " stroke-width="0.4541860520839691"/>
  <path id="ID0.6507829907350242" fill="#7C0D0D" stroke="none" stroke-linecap="round" d="M 107.8761 185.6831 L 89.7688 195.4182 L 90.1582 213.5256 L 92.1052 223.6501 L 92.1052 239.0316 L 91.5211 245.2621 L 103.0086 247.2091 L 103.2033 240.9786 L 104.9556 231.6329 L 107.6814 219.756 L 109.4337 210.605 L 107.8761 185.6831 Z " stroke-width="0.7788099050521851"/>
  <path id="ID0.6829322893172503" fill="#7C0D0D" stroke="none" stroke-linecap="round" d="M 103.398 246.8197 L 93.4681 241.9521 L 90.3529 247.2091 L 86.4588 252.8555 L 86.4588 258.3071 L 87.043 262.7853 L 88.99 265.7058 L 90.3529 272.131 L 94.8311 271.9363 L 95.9993 269.9893 L 97.5569 269.7946 L 100.6721 267.2634 L 103.9821 264.3429 L 105.9291 260.0594 L 105.1503 253.2449 L 103.398 246.8197 Z " stroke-width="0.7788099050521851"/>
  <path id="ID0.3809091211296618" fill="#7C0D0D" stroke="none" stroke-linecap="round" d="M 59.8613 233.5837 L 85.6409 221.3405 L 88.8037 260.005 L 87.8656 270.9106 L 82.5946 288.7602 L 73.9676 291.3924 L 61.0144 292.6829 L 61.0844 271.8635 L 62.8908 260.5495 L 59.8613 233.5837 Z " stroke-width="0.7305889665074583"/>
  <path id="ID0.5368814701214433" fill="#7C0D0D" stroke="none" stroke-linecap="round" d="M 57.0028 375.2777 L 59.8862 366.4477 L 64.3751 357.2008 L 74.3512 363.0588 L 85.6173 370.6939 L 103.0793 381.0362 L 104.1578 387.5518 L 79.4604 388.7307 L 58.2154 385.0644 L 57.0028 375.2777 Z " stroke-width="0.7702165290554439"/>
  <path id="ID0.05466862628236413" fill="#7C0D0D" stroke="none" stroke-linecap="round" d="M 59.8175 286.0085 L 86.2381 281.8915 L 81.5489 300.792 L 80.0246 305.8481 L 79.6139 323.986 L 76.8171 364.6424 L 61.1624 366.678 L 58.7549 344.5594 L 55.9393 335.9526 L 54.5145 326.5404 L 56.461 313.0124 L 56.3407 300.6918 L 59.8175 286.0085 Z " stroke-width="0.7305889665074583"/>
  <path id="ID0.3809091211296618" fill="#7C0D0D" stroke="none" stroke-linecap="round" d="M 34.4933 209.207 L 57.7409 222.4905 L 60.9037 261.155 L 59.9656 272.0606 L 54.6946 289.9102 L 46.0676 292.5424 L 33.1144 293.8329 L 32.4531 272.071 L 30.7148 258.7681 L 34.4933 209.207 Z " stroke-width="0.7305889665074583"/>
  <path id="ID0.5368814701214433" fill="#7C0D0D" stroke="none" stroke-linecap="round" d="M 29.1528 376.9777 L 32.0362 368.1477 L 36.5251 358.9008 L 46.5012 364.7588 L 57.7673 372.3939 L 75.2293 382.7362 L 76.3078 389.2518 L 51.6104 390.4307 L 30.3654 386.7644 L 29.1528 376.9777 Z " stroke-width="0.7702165290554439"/>
  <path id="ID0.05466862628236413" fill="#7C0D0D" stroke="none" stroke-linecap="round" d="M 31.9175 287.1585 L 58.3381 283.0415 L 53.6489 301.942 L 52.1246 306.9981 L 51.7139 325.136 L 48.9171 365.7924 L 33.2624 367.828 L 30.8549 345.7094 L 28.0393 337.1026 L 26.6145 327.6904 L 28.561 314.1624 L 28.4407 301.8418 L 31.9175 287.1585 Z " stroke-width="0.7305889665074583"/>
  <path id="ID0.7729651997797191" fill="#7C0D0D" stroke="none" stroke-linecap="round" d="M 12.0372 156.5533 L 32.2446 157.778 L 28.5705 174.7196 L 25.7129 188.3953 L 21.8347 194.1105 L 18.3647 197.5804 L 5.7096 194.1105 L 4.2808 188.1911 L 9.7919 168.1879 L 12.0372 156.5533 Z " stroke-width="0.816459596157074"/>
  <path id="ID0.4757494777441025" fill="#7C0D0D" stroke="none" stroke-linecap="round" d="M 21.4163 131.5922 L 29.9869 129.4496 L 45.9377 134.33 L 37.7242 159.8036 L 27.3681 164.8031 L 22.8447 165.8745 L 19.6308 163.4938 L 16.7739 160.5179 L 11.0602 157.8991 L 10.9412 152.4234 L 11.6554 144.329 L 14.8693 135.9965 L 21.4163 131.5922 Z " stroke-width="0.476142555475235"/>
  <path id="ID0.6507829907350242" fill="#7C0D0D" stroke="none" stroke-linecap="round" d="M 1.6273 186.3541 L 20.61 196.5599 L 20.2018 215.5425 L 18.1606 226.1565 L 18.1606 242.2816 L 18.773 248.8133 L 6.7302 250.8544 L 6.5261 244.3227 L 4.689 234.5252 L 1.8314 222.0742 L -0.0056 212.4808 L 1.6273 186.3541 Z " stroke-width="0.816459596157074"/>
  <path id="ID0.6829322893172503" fill="#7C0D0D" stroke="none" stroke-linecap="round" d="M 6.322 250.4462 L 16.7318 245.3433 L 19.9977 250.8544 L 24.08 256.7738 L 24.08 262.489 L 23.4676 267.1836 L 21.4265 270.2453 L 19.9977 276.9811 L 15.303 276.777 L 14.0783 274.7359 L 12.4454 274.5317 L 9.1796 271.8783 L 5.7096 268.8165 L 3.6685 264.326 L 4.4849 257.182 L 6.322 250.4462 Z " stroke-width="0.816459596157074"/>
  <path id="ID0.5922487881034613" fill="#7C0D0D" stroke="none" stroke-linecap="round" d="M 0.6137 220.2438 L 7.6761 214.6102 L 13.7995 214.6919 L 20.0046 220.652 L 18.5758 235.6341 L 13.8812 243.1863 L 10.4112 243.1863 L 4.2878 235.8382 L 0.6137 220.2438 Z " stroke-width="0.816459596157074"/>
  <path id="ID0.7477802094072104" fill="#670A0A" stroke="none" stroke-linecap="round" d="M 89.1154 179.4215 L 69.6382 175.9215 L 68.7831 217.0989 L 85.2591 226.3706 L 88.0532 201.902 L 89.1154 179.4215 Z " stroke-width="0.47614257300029306"/>
  <path id="ID0.7477802094072104" fill="#670A0A" stroke="none" stroke-linecap="round" d="M 28.7831 178.2358 L 52.2874 175.8664 L 51.4323 217.0439 L 34.5855 225.6236 L 29.6325 200.3988 L 28.7831 178.2358 Z " stroke-width="0.47614257300029306"/>
  <path id="ID0.4270821204409003" fill="#7C0D0D" stroke="none" stroke-linecap="round" d="M 29.5179 158.1385 L 33.5858 145.7215 L 35.968 139.937 L 42.6594 133.0513 L 73.6913 135.1245 L 80.505 139.5522 L 83.2772 143.6578 L 90.0615 155.2286 L 89.13 165.6866 L 88.0642 171.1413 L 89.587 178.0785 L 89.9494 183.5629 L 87.6639 190.421 L 85.9366 195.6238 L 84.5537 204.8818 L 85.5985 226.8108 L 80.2868 234.9158 L 75.3736 241.0287 L 63.1457 246.204 L 51.6169 242.9404 L 47.8289 236.1467 L 43.0115 229.6174 L 34.5309 226.3457 L 33.9148 200.9728 L 32.8631 194.2835 L 28.5303 182.7637 L 27.4461 171.9066 L 29.5179 158.1385 Z " stroke-width="0.47614257300029306"/>
  <path id="ID0.9286923445761204" fill="#7C0D0D" stroke="none" stroke-linecap="round" d="M 48.863 99.1601 L 67.6707 100.6361 L 68.1468 124.9908 L 83.3834 132.1329 L 60.5285 143.4889 L 23.8656 130.9426 L 43.7445 120.3484 L 48.863 99.1601 Z " stroke-width="0.4761425852775574"/>
  <path id="ID0.8999492498114705" fill="#7C0D0D" stroke="none" stroke-linecap="round" d="M 65.3733 74.3624 C 69.7775 74.8415 74.5093 77.5519 76.6416 81.4348 C 79.0745 85.8679 77.1267 91.4665 77.4265 96.462 C 77.5997 98.1655 78.3923 99.9182 78.0615 101.5424 C 77.3879 104.8462 75.7139 107.8751 74.6323 111.0681 C 73.9236 113.1607 73.7691 115.5155 72.6001 117.4186 C 71.2843 119.6712 69.9416 122.8053 67.3419 123.261 C 63.488 123.9362 59.4115 122.0951 55.9619 120.3398 C 53.1281 118.8975 50.4746 116.6855 48.9002 113.9131 C 46.0806 108.7682 43.5196 103.1082 43.134 97.2241 C 42.7067 90.7014 41.9365 82.6353 46.6902 77.9187 C 50.9425 73.3773 58.8262 73.6532 65.3733 74.3624 Z " stroke-width="0.508037269115448"/>
  <path id="ID0.6101007834076881" fill="#FFFFFF" stroke="none" stroke-linecap="round" d="M 54.3473 94.3334 L 56.0001 94.7332 L 59.78 95.9344 L 60.3247 97.9027 L 55.07 96.4498 L 54.3473 94.3334 Z " stroke-width="0.4061061920009203"/>
  <path id="ID0.6101007834076881" fill="#FFFFFF" stroke="none" stroke-linecap="round" d="M 74.4526 94.0089 L 72.9112 94.5003 L 69.4053 95.8963 L 69.0217 97.8012 L 73.9101 96.0663 L 74.4526 94.0089 Z " stroke-width="0.3863867372519633"/>
  <path id="ID0.043594349175691605" fill="#D7E2FD" stroke="none" stroke-linecap="round" d="M 59.5289 96.9677 L 59.7575 95.85 L 60.2656 97.9075 L 57.6746 97.1709 L 59.5289 96.9677 Z " stroke-width="0.508037269115448"/>
  <path id="ID0.043594349175691605" fill="#D7E2FD" stroke="none" stroke-linecap="round" d="M 69.7225 96.8848 L 69.4574 95.8821 L 69.1024 97.7758 L 71.4161 96.9736 L 69.7225 96.8848 Z " stroke-width="0.4618642652203811"/>
  <path id="ID0.2311431379057467" fill="#A5F3FF" stroke="none" stroke-linecap="round" d="M 1 3.5 L 8.5 6.5 L 34.5 32 L 44.5 71.5 L 24.5 42.5 L 1 3.5 Z " stroke-width="1"/>
  <path id="ID0.2311431379057467" fill="#A5F3FF" stroke="none" stroke-linecap="round" d="M 119.75 4 L 112.25 7 L 86.25 32.5 L 76.25 72 L 96.25 43 L 119.75 4 Z " stroke-width="1"/>
  <path id="ID0.2311431379057467" fill="#A5F3FF" stroke="none" stroke-linecap="round" d="M 62.0508 0.7624 L 50.8187 36.6438 L 61.5949 69.7663 L 68.702 35.677 L 62.0508 0.7624 Z " stroke-width="0.8548387417999216"/>
</svg>