<svg xmlns="http://www.w3.org/2000/svg" xmlns:xlink="http://www.w3.org/1999/xlink" version="1.1" width="254.6649018392938" height="247.78849803070005" viewBox="6.868294662933664 6.347800201874094 254.6649018392938 247.78849803070005">
  <!-- Exported by Scratch - http://scratch.mit.edu/ -->
  <path id="ID0.7477802094072104" fill="#670A0A" stroke="none" stroke-linecap="round" d="M 93.0721 82.5475 L 75.5642 91.7716 L 100.2245 124.7592 L 118.9175 121.9315 L 106.0659 100.9231 L 93.0721 82.5475 Z " stroke-width="0.4761425813206427"/>
  <path id="ID0.7477802094072104" fill="#670A0A" stroke="none" stroke-linecap="round" d="M 44.8454 118.657 L 61.9168 102.3281 L 86.5771 135.3157 L 78.575 152.4444 L 59.1508 135.6062 L 44.8454 118.657 Z " stroke-width="0.4761425813206427"/>
  <path id="ID0.4270821204409003" fill="#7C0D0D" stroke="none" stroke-linecap="round" d="M 33.0463 102.3807 L 28.6136 90.0892 L 26.9327 84.0634 L 27.9713 74.5184 L 53.7103 57.0603 L 61.8058 56.3587 L 66.5172 57.8897 L 78.9845 62.8373 L 84.6844 71.6548 L 87.2002 76.6106 L 92.6688 81.1425 L 96.3287 85.2431 L 98.7464 92.0557 L 100.5858 97.2199 L 105.1917 105.3692 L 119.5071 122.0137 L 120.3062 131.6711 L 120.194 139.513 L 113.7384 151.1161 L 102.642 155.6364 L 95.476 152.6112 L 87.6611 150.4278 L 78.9627 153.0664 L 62.8663 133.4432 L 57.9217 128.8169 L 47.4184 122.4011 L 39.8839 114.5092 L 33.0463 102.3807 Z " stroke-width="0.4761425813206427"/>
  <path id="ID0.7729651997797191" fill="#282828" stroke="none" stroke-linecap="round" d="M 16.8817 106.967 L 34.356 90.845 L 45.7191 107.7377 L 49.6981 118.3379 L 54.6389 126.206 L 58.3291 134.2689 L 43.5505 142.8765 L 37.3739 139.2721 L 24.9113 118.3327 L 16.8817 106.967 Z " stroke-width="0.9588636742397272"/>
  <path id="ID0.4757494777441025" fill="#282828" stroke="none" stroke-linecap="round" d="M 15.5491 87.8336 L 21.1803 80.7208 L 37.1168 74.4741 L 46.1295 99.7535 L 40.8081 110.2484 L 37.7995 113.9554 L 33.7287 114.1125 L 29.5813 113.5744 L 23.337 115.1258 L 19.8716 110.8845 L 15.4707 104.0514 L 12.9502 95.4487 L 15.5491 87.8336 Z " stroke-width="0.482992493019239"/>
  <g id="ID0.5880346246995032">
    <path id="ID0.6829322893172503" fill="#1D1E1F" stroke="none" stroke-linecap="round" d="M 163.5026 73.2237 L 155.5968 64.7442 L 159.9221 60.0188 L 164.401 54.3935 L 169.87 52.7339 L 174.5401 51.9567 L 178.0626 53.0208 L 184.9231 52.4321 L 186.091 56.9837 L 184.4934 58.7484 L 184.7723 60.3702 L 183.1814 64.2658 L 181.2592 68.4753 L 177.5549 71.7325 L 170.4816 73.0257 L 163.5026 73.2237 Z " stroke-width="0.8164596112112118"/>
    <g id="ID0.9434720128774643">
      <path id="ID0.6507829907350242" fill="#282828" stroke="none" stroke-linecap="round" d="M 103.1354 97.4772 L 107.3892 76.3489 L 123.992 72.7185 L 136.4219 70.0984 L 151.8521 65.416 L 157.8564 61.1623 L 164.5187 74.5413 L 157.1838 75.9566 L 148.3419 80.5594 L 137.2571 86.9094 L 124.7594 91.5552 L 103.1354 97.4772 Z " stroke-width="0.8164596112112118"/>
      <path id="ID0.9892375003546476" fill="none" stroke="#191919" stroke-width="1.9999999958005334" stroke-linecap="round" d="M 163.4994 74.3366 L 156.9477 62.2168 L 149.5399 67.0774 "/>
    </g>
  </g>
  <path id="ID0.7729651997797191" fill="#282828" stroke="none" stroke-linecap="round" d="M 95.464 44.7228 L 75.5798 57.757 L 89.206 72.8835 L 98.522 79.3185 L 104.954 86.0227 L 111.8789 91.5611 L 123.8189 79.3163 L 121.8229 72.4491 L 104.5385 55.273 L 95.464 44.7228 Z " stroke-width="0.9588636813362725"/>
  <path id="ID0.4757494777441025" fill="#282828" stroke="none" stroke-linecap="round" d="M 77.1051 38.7456 L 68.8373 42.4802 L 58.9062 56.4217 L 81.2388 71.3057 L 92.7121 68.6933 L 97.039 66.6754 L 98.1803 62.7647 L 98.6659 58.6108 L 101.6877 52.9306 L 98.4153 48.5386 L 92.8561 42.6095 L 85.1235 38.0746 L 77.1051 38.7456 Z " stroke-width="0.482992493019239"/>
  <g id="ID0.6660797297954559">
    <path id="ID0.5368814701214433" fill="#343434" stroke="none" stroke-linecap="round" d="M 223.7957 216.0514 L 218.1318 208.6891 L 213.0295 199.766 L 223.4944 194.834 L 236.1544 189.8396 L 254.5452 181.2567 L 260.5332 184.0421 L 247.5731 205.0988 L 232.5602 220.5715 L 223.7957 216.0514 Z " stroke-width="0.7702165266795703"/>
    <g id="ID0.5077062323689461">
      <path id="ID0.05466862628236413" fill="#252525" stroke="none" stroke-linecap="round" d="M 164.7417 174.4261 L 174.1891 154.6082 L 185.3331 164.3253 L 189.0536 167.7665 L 201.0092 175.9435 L 229.8741 192.6381 L 220.1762 211.7412 L 203.9418 202.268 L 196.8029 200.1899 L 189.7623 196.796 L 181.4932 189.21 L 173.0852 183.5845 L 164.7417 174.4261 Z " stroke-width="0.5998532896292259"/>
      <path id="ID0.5319394422695041" fill="none" stroke="#131313" stroke-width="1.999999995622865" stroke-linecap="round" d="M 229.1868 192.2066 L 220.5008 212.0085 L 210.4415 206.3463 "/>
    </g>
    <g id="ID0.8820344842970371">
      <path id="ID0.3809091211296618" fill="#252525" stroke="none" stroke-linecap="round" d="M 97.5618 142.1131 L 99.3407 104.9168 L 120.0569 117.5428 L 162.3319 141.5985 L 170.9374 148.0633 L 177.9959 157.7322 L 171.6267 163.1824 L 165.3844 174.6053 L 147.0434 162.8739 L 135.0791 156.8041 L 97.5618 142.1131 Z " stroke-width="0.7305889705043063"/>
      <path id="ID0.9495224836282432" fill="none" stroke="#131313" stroke-width="1.999999995622865" stroke-linecap="round" d="M 162.5009 141.7958 L 169.519 146.5913 L 174.9959 152.7559 L 173.916 162.3128 L 177.4801 165.9593 "/>
    </g>
  </g>
  <g id="ID0.18228224432095885">
    <path id="ID0.5368814701214433" fill="#404040" stroke="none" stroke-linecap="round" d="M 203.2158 248.4276 L 197.7125 240.9445 L 192.8045 231.913 L 203.3737 227.2086 L 216.1388 222.4893 L 234.711 214.3064 L 240.6374 217.2208 L 227.2247 237.9921 L 211.8804 253.1363 L 203.2158 248.4276 Z " stroke-width="0.7702165134229046"/>
    <g id="ID0.5077062323689461">
      <path id="ID0.05466862628236413" fill="#252525" stroke="none" stroke-linecap="round" d="M 145.301 204.0784 L 155.6736 184.7287 L 166.3463 194.9612 L 169.9001 198.5742 L 181.4563 207.3066 L 209.5008 225.3455 L 198.9117 243.9693 L 183.1427 233.7402 L 176.11 231.3274 L 169.2374 227.6048 L 161.3357 219.6368 L 153.2027 213.6206 L 145.301 204.0784 Z " stroke-width="0.5998532869973129"/>
      <path id="ID0.5319394422695041" fill="none" stroke="#131313" stroke-width="2.000000041986915" stroke-linecap="round" d="M 208.7371 224.8464 L 199.1259 244.2161 L 189.3452 238.0852 "/>
    </g>
    <g id="ID0.8820344842970371">
      <path id="ID0.3809091211296618" fill="#252525" stroke="none" stroke-linecap="round" d="M 80.477 162.9527 L 83.2435 131.5241 L 103.3404 145.1141 L 144.4324 171.1391 L 152.7231 178.003 L 159.3172 187.9944 L 152.6978 193.1377 L 146.7194 205.4595 L 126.5685 193.9832 L 115.2701 187.3748 L 80.477 162.9527 Z " stroke-width="0.7305890169974967"/>
      <path id="ID0.9495224836282432" fill="none" stroke="#131313" stroke-width="2.000000041986915" stroke-linecap="round" d="M 144.5059 171.3432 L 151.2897 176.4646 L 156.4695 182.881 L 154.9395 192.3762 L 158.3274 196.187 "/>
    </g>
  </g>
  <g id="ID0.8990198895335197">
    <path id="ID0.17576928716152906" fill="#DBDBDB" stroke="none" d="M 44.7434 57.758 L 44.5463 57.9118 L 44.5463 57.9118 L 44.7434 57.758 L 44.7434 57.758 Z " stroke-width="1.0000000135674316"/>
    <path id="ID0.4270821204409003" fill="#252525" stroke="none" stroke-linecap="round" d="M 118.1265 155.2164 L 48.5529 66.4833 L 63.7603 57.7603 L 71.8558 57.0587 L 76.5672 58.5897 L 89.0345 63.5373 L 94.7344 72.3548 L 97.2502 77.3106 L 102.7188 81.8425 L 106.3787 85.9431 L 108.7964 92.7557 L 110.6358 97.9199 L 115.2417 106.0692 L 129.5571 122.7137 L 130.3562 132.3711 L 130.244 140.213 L 118.1265 155.2164 Z " stroke-width="0.4761425813206427"/>
    <path id="ID0.4270821204409003" fill="#252525" stroke="none" stroke-linecap="round" d="M 118.2863 155.2781 L 49.1133 66.2323 L 36.9572 78.8649 L 34.31 86.5475 L 34.6505 91.4897 L 36.4211 104.7854 L 43.5898 112.4567 L 47.786 116.1011 L 50.8536 122.5068 L 53.9422 127.0532 L 59.9634 131.0535 L 64.5261 134.0924 L 71.3123 140.54 L 83.9804 158.4701 L 93.1544 161.5914 L 100.7886 163.3876 L 118.2863 155.2781 Z " stroke-width="0.47614258941319987"/>
    <path id="ID0.5114514343440533" fill="#282828" stroke="none" d="M 28.9722 83.4816 L 70.7538 50.8733 L 125.0496 120.4437 L 83.268 153.0519 L 28.9722 83.4816 Z " stroke-width="1.0073066365329326"/>
    <path id="ID0.9286923445761204" fill="#D4D4D4" stroke="none" stroke-linecap="round" d="M 33.2459 62.7187 L 35.344 37.3144 L 41.3477 56.5769 L 67.2429 87.7061 L 19.457 88.1571 L 28.6848 67.2448 L 33.2459 62.7187 Z " stroke-width="0.4761425987087038"/>
    <path id="ID0.9286923445761204" fill="#D4D4D4" stroke="none" stroke-linecap="round" d="M 45.4262 51.8065 L 23.867 46.5867 L 41.0939 57.0901 L 66.6586 87.8732 L 77.046 43.5272 L 54.1848 46.3902 L 45.4262 51.8065 Z " stroke-width="0.4761425987087038"/>
    <path id="ID0.39874776685610414" fill="#C3C3C3" stroke="none" stroke-linecap="round" d="M 27.7903 69.1684 L 49.5272 64.725 L 58.0999 46.6675 L 62.5711 45.8899 L 51.6961 67.8215 L 26.0303 73.0231 L 27.7903 69.1684 Z " stroke-width="0.9436593595739239"/>
    <path id="ID0.13444371055811644" fill="#1F1F1F" stroke="none" stroke-linecap="round" d="M 48.7413 67.6882 L 52.7263 64.261 L 72.4682 85.0058 L 63.2764 92.8137 L 48.7413 67.6882 Z " stroke-width="1.0000000135674316"/>
    <path id="ID0.751046194229275" fill="#191919" stroke="none" stroke-linecap="round" d="M 43.8787 65.1336 L 46.3122 60.6531 L 51.1196 59.4826 L 56.3731 65.4988 L 53.5135 68.9864 L 48.7854 71.4206 L 43.8787 65.1336 Z " stroke-width="1.1000000185913492"/>
    <path id="ID0.7854711129330099" fill="#282828" stroke="none" stroke-linecap="round" d="M 50.2052 87.7818 L 66.6252 86.0662 L 71.4661 69.9203 L 80.6563 84.9466 L 62.3276 99.2512 L 50.2052 87.7818 Z " stroke-width="1.0000000135674316"/>
    <path id="ID0.562834897544235" fill="#282828" stroke="none" stroke-linecap="round" d="M 80.9909 154.453 L 101.3003 131.3088 L 113.7591 147.2725 L 103.6886 156.7176 L 80.9909 154.453 Z " stroke-width="1.0000000135674316"/>
    <path id="ID0.562834897544235" fill="#282828" stroke="none" stroke-linecap="round" d="M 129.1422 117.2283 L 101.7575 131.3067 L 114.2163 147.2704 L 125.8249 139.7961 L 129.1422 117.2283 Z " stroke-width="1.0000000135674316"/>
    <path id="ID0.6824178956449032" fill="none" stroke="#191919" stroke-width="2.0000000271348632" stroke-linecap="round" d="M 66.5849 86.4209 L 113.6082 147.0792 "/>
    <path id="ID0.4144489667378366" fill="#313131" stroke="none" stroke-linecap="round" d="M 17.269 86.2139 L 28.3107 67.4484 L 39.3274 86.4404 L 78.8045 131.7408 L 98.8477 172.8635 L 87.0998 175.6896 L 89.0561 178.6026 L 61.8891 138.9169 L 31.535 107.744 L 20.7489 95.5488 L 17.269 86.2139 Z " stroke-width="1.0000000135674316"/>
    <path id="ID0.5234400681219995" fill="#101010" stroke="none" d="M 71.7739 89.5064 C 72.0992 89.2525 72.4973 89.1544 72.8775 89.2013 C 73.2577 89.2482 73.6201 89.4401 73.874 89.7654 C 74.1278 90.0907 74.226 90.4888 74.1791 90.869 C 74.1322 91.2493 73.9403 91.6116 73.615 91.8655 C 73.2897 92.1194 72.8916 92.2175 72.5113 92.1706 C 72.1311 92.1237 71.7688 91.9318 71.5149 91.6065 C 71.261 91.2812 71.1629 90.8831 71.2098 90.5029 C 71.2566 90.1226 71.4485 89.7603 71.7739 89.5064 Z " stroke-width="0.6299999939472843"/>
    <path id="ID0.5234400681219995" fill="#101010" stroke="none" d="M 80.1739 100.2564 C 80.4992 100.0025 80.8973 99.9044 81.2775 99.9513 C 81.6577 99.9982 82.0201 100.1901 82.274 100.5154 C 82.5278 100.8407 82.626 101.2388 82.5791 101.619 C 82.5322 101.9993 82.3403 102.3616 82.015 102.6155 C 81.6897 102.8694 81.2916 102.9675 80.9113 102.9206 C 80.5311 102.8737 80.1688 102.6818 79.9149 102.3565 C 79.661 102.0312 79.5629 101.6331 79.6098 101.2529 C 79.6566 100.8726 79.8485 100.5103 80.1739 100.2564 Z " stroke-width="0.6299999939472843"/>
    <path id="ID0.5234400681219995" fill="#101010" stroke="none" d="M 99.5239 125.0564 C 99.8492 124.8025 100.2473 124.7044 100.6275 124.7513 C 101.0077 124.7982 101.3701 124.9901 101.624 125.3154 C 101.8778 125.6407 101.976 126.0388 101.9291 126.419 C 101.8822 126.7993 101.6903 127.1616 101.365 127.4155 C 101.0397 127.6694 100.6416 127.7675 100.2613 127.7206 C 99.8811 127.6737 99.5188 127.4818 99.2649 127.1565 C 99.011 126.8312 98.9129 126.4331 98.9598 126.0529 C 99.0066 125.6726 99.1985 125.3103 99.5239 125.0564 Z " stroke-width="0.6299999939472843"/>
    <path id="ID0.5234400681219995" fill="#101010" stroke="none" d="M 90.4739 113.4564 C 90.7992 113.2025 91.1973 113.1044 91.5775 113.1513 C 91.9577 113.1982 92.3201 113.3901 92.574 113.7154 C 92.8278 114.0407 92.926 114.4388 92.8791 114.819 C 92.8322 115.1993 92.6403 115.5616 92.315 115.8155 C 91.9897 116.0694 91.5916 116.1675 91.2113 116.1206 C 90.8311 116.0737 90.4688 115.8818 90.2149 115.5565 C 89.961 115.2312 89.8629 114.8331 89.9098 114.4529 C 89.9566 114.0726 90.1485 113.7103 90.4739 113.4564 Z " stroke-width="0.6299999939472843"/>
    <path id="ID0.5234400681219995" fill="#101010" stroke="none" d="M 108.0239 136.1564 C 108.3492 135.9025 108.7473 135.8044 109.1275 135.8513 C 109.5077 135.8982 109.8701 136.0901 110.124 136.4154 C 110.3778 136.7407 110.476 137.1388 110.4291 137.519 C 110.3822 137.8993 110.1903 138.2616 109.865 138.5155 C 109.5397 138.7694 109.1416 138.8675 108.7613 138.8206 C 108.3811 138.7737 108.0188 138.5818 107.7649 138.2565 C 107.511 137.9312 107.4129 137.5331 107.4598 137.1529 C 107.5066 136.7726 107.6985 136.4103 108.0239 136.1564 Z " stroke-width="0.6299999939472843"/>
    <path id="ID0.4144489667378366" fill="#313131" stroke="none" stroke-linecap="round" d="M 74.6277 40.3376 L 53.742 46.4897 L 69.4887 61.7902 L 103.8416 111.0897 L 138.8632 140.5227 L 144.4586 129.8133 L 146.8091 132.4186 L 114.9121 96.4244 L 92.0471 59.4066 L 82.8376 45.981 L 74.6277 40.3376 Z " stroke-width="1.0000000135674316"/>
    <path id="ID0.8752945330925286" fill="none" stroke="#222222" stroke-width="2.0000000271348632" stroke-linecap="round" d="M 17.817 86.1034 L 20.0231 94.2125 L 45.8108 121.9725 "/>
    <path id="ID0.8752945330925286" fill="none" stroke="#222222" stroke-width="2.0000000271348632" stroke-linecap="round" d="M 75.1874 40.6923 L 82.5177 44.8023 L 103.1813 76.5614 "/>
    <path id="ID0.5234400681219995" fill="#101010" stroke="none" d="M 81.7239 139.8064 C 82.0492 139.5525 82.4473 139.4544 82.8275 139.5013 C 83.2077 139.5482 83.5701 139.7401 83.824 140.0654 C 84.0778 140.3907 84.176 140.7888 84.1291 141.169 C 84.0822 141.5493 83.8903 141.9116 83.565 142.1655 C 83.2397 142.4194 82.8416 142.5175 82.4613 142.4706 C 82.0811 142.4237 81.7188 142.2318 81.4649 141.9065 C 81.211 141.5812 81.1129 141.1831 81.1598 140.8029 C 81.2066 140.4226 81.3985 140.0603 81.7239 139.8064 Z " stroke-width="0.6299999939472843"/>
    <path id="ID0.5234400681219995" fill="#101010" stroke="none" d="M 85.0739 146.4064 C 85.3992 146.1525 85.7973 146.0544 86.1775 146.1013 C 86.5577 146.1482 86.9201 146.3401 87.174 146.6654 C 87.4278 146.9907 87.526 147.3888 87.4791 147.769 C 87.4322 148.1493 87.2403 148.5116 86.915 148.7655 C 86.5897 149.0194 86.1916 149.1175 85.8113 149.0706 C 85.4311 149.0237 85.0688 148.8318 84.8149 148.5065 C 84.561 148.1812 84.4629 147.7831 84.5098 147.4029 C 84.5566 147.0226 84.7485 146.6603 85.0739 146.4064 Z " stroke-width="0.6299999939472843"/>
    <g id="ID0.20783481979742646">
      <path id="ID0.5848579816520214" fill="#737373" stroke="none" stroke-linecap="round" d="M 83.8407 69.2458 L 88.3179 63.8488 L 90.6386 66.9849 L 85.2308 71.8396 L 83.8407 69.2458 Z " stroke-width="1.0000000135674316"/>
      <path id="ID0.13105127029120922" fill="none" stroke="#222222" stroke-width="2.0000000271348632" stroke-linecap="round" d="M 84.3203 72.8673 L 87.8678 70.0986 L 91.0837 65.6861 "/>
    </g>
  </g>
  <path id="ID0.46110434643924236" fill="#D8BFA7" stroke="none" stroke-linecap="round" d="M 20.6091 49.0967 L 38.437 35.183 L 50.4645 49.8343 L 47.3349 55.892 L 32.9756 64.9422 L 20.6091 49.0967 Z " stroke-width="1.0876357653519848"/>
  <g id="ID0.5880346246995032">
    <path id="ID0.6829322893172503" fill="#1D1E1F" stroke="none" stroke-linecap="round" d="M 99.7895 107.982 L 90.6557 100.8421 L 94.1895 95.4988 L 97.7342 89.2427 L 102.8766 86.7489 L 107.368 85.2513 L 111.0135 85.7519 L 117.6977 84.0984 L 119.5625 88.4116 L 118.2603 90.4042 L 118.7892 91.9625 L 117.8267 96.0589 L 116.5859 100.5171 L 113.4361 104.3131 L 106.6518 106.6957 L 99.7895 107.982 Z " stroke-width="0.8164595984843368"/>
    <g id="ID0.9434720128774643">
      <path id="ID0.6507829907350242" fill="#282828" stroke="none" stroke-linecap="round" d="M 43.9195 141.3727 L 44.8193 119.8393 L 60.6507 113.659 L 72.5185 109.1286 L 87.0274 102.0925 L 92.2932 96.9527 L 100.9643 109.1262 L 93.9407 111.6703 L 85.9268 117.5984 L 75.9705 125.6026 L 64.3523 132.1443 L 43.9195 141.3727 Z " stroke-width="0.8164595984843368"/>
      <path id="ID0.9892375003546476" fill="none" stroke="#191919" stroke-width="2.000000105895368" stroke-linecap="round" d="M 99.9678 109.093 L 91.6027 98.146 L 85.0454 104.1044 "/>
    </g>
  </g>
  <path id="ID0.6101007834076881" fill="#FFFFFF" stroke="none" stroke-linecap="round" d="M 22.2755 33.5877 L 23.9743 33.5137 L 27.9391 33.6202 L 29.008 35.3604 L 23.5564 35.4208 L 22.2755 33.5877 Z " stroke-width="0.4061061864567673"/>
  <path id="ID0.6101007834076881" fill="#FFFFFF" stroke="none" stroke-linecap="round" d="M 41.4581 27.4665 L 40.1133 28.3659 L 37.1317 30.6789 L 37.2911 32.6155 L 41.5072 29.5937 L 41.4581 27.4665 Z " stroke-width="0.3863867326583277"/>
  <path id="ID0.043594349175691605" fill="#D7E2FD" stroke="none" stroke-linecap="round" d="M 27.9357 34.6774 L 27.8456 33.5401 L 28.904 35.3762 L 26.2104 35.3866 L 27.9357 34.6774 Z " stroke-width="0.508037277652756"/>
  <path id="ID0.043594349175691605" fill="#D7E2FD" stroke="none" stroke-linecap="round" d="M 37.7809 31.3904 L 37.2483 30.5004 L 37.432 32.4184 L 39.4328 31.0063 L 37.7809 31.3904 Z " stroke-width="0.4618642732889857"/>
  <path id="ID0.8999492498114705" fill="#EDD2B8" stroke="none" stroke-linecap="round" d="M 22.9631 11.7463 C 27.0524 10.0422 32.5047 10.1349 36.2451 12.5084 C 40.5142 15.2188 41.5669 21.0219 44.1791 25.2945 C 45.1134 26.7664 46.1911 28.2482 46.6501 29.9945 C 47.7282 33.0035 48.1394 36.2126 48.7745 39.4376 C 49.2035 41.611 50.1629 43.75 50.0565 45.9809 C 49.99 48.5888 50.325 51.9819 48.2673 53.6347 C 45.2166 56.0847 40.7576 56.4375 36.8892 56.5632 C 33.7111 56.6662 30.3198 56.0079 27.6037 54.3384 C 22.6526 51.1908 17.6797 47.4673 14.5045 42.4985 C 10.9848 36.9903 6.4205 30.2953 8.3106 23.871 C 9.8459 17.842 16.8855 14.2821 22.9631 11.7463 Z " stroke-width="0.5080372958545466"/>
  <path id="ID0.8194515448994935" fill="#EDD2B8" stroke="none" stroke-linecap="round" d="M 11.8589 37.7865 C 12.649 37.4509 13.4648 37.6514 14.4196 38.3347 C 15.3744 39.0179 16.3545 40.1473 17.1328 41.5612 C 17.9111 42.9752 18.341 44.4074 18.4075 45.5796 C 18.474 46.7518 18.1931 47.5251 17.5008 48.0363 C 16.8645 48.5042 15.7763 48.6134 15.1351 48.1971 C 13.8179 47.2121 13.0661 45.5975 12.2269 44.2616 C 11.4016 42.9489 10.2655 41.6315 10.116 40.1157 C 10.1238 39.1365 11.0309 38.1384 11.8589 37.7865 Z " stroke-width="1.0000000157768338"/>
  <path id="ID0.5768358684144914" fill="#2E3234" stroke="none" d="M 9.5089 35.4829 L 14.7652 32.5896 L 15.6332 34.1665 L 10.3769 37.0598 L 9.5089 35.4829 Z " stroke-width="1.0000000157768338"/>
  <path id="ID0.3245162623934448" fill="#54595E" stroke="none" stroke-linecap="round" d="M 21.9335 13.3992 C 24.7859 11.8291 28.6375 12.7088 32.5558 15.3977 C 36.474 18.0865 40.3782 23.6094 43.5788 28.2525 C 46.8469 32.9932 51.5212 37.5408 52.0043 43.2483 C 52.3761 47.6461 49.524 52.7215 45.693 55.1122 C 42.0771 57.3731 36.384 57.6873 32.7645 55.2655 C 27.65 51.8426 25.5315 45.2648 22.904 39.6328 C 20.5204 34.5228 18.1155 28.1918 17.9397 23.4429 C 17.764 18.6941 19.0811 14.9693 21.9335 13.3992 Z " stroke-width="1.0000000157768338"/>
  <path id="ID0.8999492498114705" fill="#54595E" stroke="none" stroke-linecap="round" d="M 23.3631 8.4463 C 27.6884 7.4892 32.9047 6.8349 36.6451 9.2084 C 40.9142 11.9188 41.4742 18.0616 44.5791 21.9945 C 45.8058 23.5479 48.7009 23.6755 49.6082 25.5473 C 50.7373 27.9768 49.9486 30.9214 50.1118 33.6789 C 50.2862 36.6739 50.671 39.7276 50.4565 42.6809 C 50.2678 45.2912 50.1765 48.1975 48.6673 50.3347 C 47.5045 51.9792 45.3337 53.4559 43.3665 53.1365 C 41.8026 52.8828 41.7351 50.3897 40.6531 49.2079 C 39.4391 47.6829 37.4685 46.7895 36.5096 45.0516 C 33.8425 40.2136 32.8551 34.5521 30.2067 29.7027 C 27.294 24.3701 24.5748 18.7357 20.0978 14.709 C 18.3852 13.1685 12.6639 15.6647 13.2936 14.5688 C 14.1932 12.7317 19.531 9.2943 23.3631 8.4463 Z " stroke-width="0.5080372958545466"/>
  <path id="ID0.8999492498114705" fill="#54595E" stroke="none" stroke-linecap="round" d="M 13.6432 14.2613 C 10.8752 17.0764 8.1334 20.8345 8.1836 24.8344 C 8.2324 29.684 11.9852 33.7846 13.8527 38.2415 C 14.5375 39.8786 14.4789 41.9783 15.6317 43.2644 C 17.2542 45.0291 19.95 45.5448 21.6437 47.2331 C 23.9765 49.559 25.067 53.1058 27.6725 55.078 C 29.7596 56.6571 32.4832 57.7925 35.0963 57.6607 C 37.1077 57.5579 39.5166 56.5138 40.2991 54.6809 C 40.9213 53.2238 38.8511 51.8332 38.4313 50.2868 C 37.7923 48.4453 38.0916 46.3024 37.1362 44.5626 C 34.4754 39.7212 30.2202 35.8583 27.5398 31.0266 C 24.5924 25.7131 21.7558 20.3016 20.2793 14.465 C 19.8835 12.8956 23.6483 10.0183 22.5225 9.9537 C 20.2995 9.8354 15.9114 11.8501 13.6432 14.2613 Z " stroke-width="0.5080372958545466"/>
  <path id="ID0.45774566335603595" fill="#54595E" stroke="none" stroke-linecap="round" d="M 37.7508 41.1386 C 39.5941 40.124 41.5527 40.4887 43.469 40.3494 C 45.2167 40.2229 47.9158 38.8948 48.78 40.4897 C 50.1561 42.9649 49.1577 46.3043 48.2757 49.0819 C 47.6939 50.9135 46.3933 52.4763 44.5501 53.4909 C 42.7069 54.5055 40.7208 54.6364 38.8319 54.2801 C 36.2188 53.7882 32.9564 53.3113 31.7411 51.0101 C 30.7412 49.2867 32.957 47.2485 34.0252 45.5476 C 35.0466 43.9193 35.9076 42.1531 37.7508 41.1386 Z " stroke-width="1.0000000157768338"/>
  <path id="ID0.6934182443656027" fill="#54595E" stroke="none" stroke-linecap="round" d="M 22.5452 43.1234 L 36.13 40.3259 L 46.3124 29.5844 L 46.9392 36.9444 L 48.6711 41.1278 L 31.5949 51.2691 L 27.6218 46.436 L 22.5452 43.1234 Z " stroke-width="1.0000000157768338"/>
  <path id="ID0.6236958587542176" fill="#3B4043" stroke="none" stroke-linecap="round" d="M 26.5808 37.1345 L 40.3545 29.4958 L 43.4061 36.4914 L 47.1955 42.3388 L 49.8738 52.9073 L 41.4878 57.5803 L 33.5556 50.5317 L 30.6792 43.4397 L 26.5808 37.1345 Z " stroke-width="1.0000000157768338"/>
  <path id="ID0.6043254472315311" fill="#3B4043" stroke="none" stroke-linecap="round" d="M 9.2573 20.8538 L 12.0442 16.0665 L 18.9059 18.6819 L 25.1307 16.5112 L 33.3423 34.0218 L 32.3951 37.7964 L 27.5395 40.0696 L 23.4168 39.9418 L 20.1345 37.2967 L 18.3142 30.879 L 9.2573 20.8538 Z " stroke-width="1.0000000157768338"/>
  <path id="ID0.6043254472315311" fill="#3B4043" stroke="none" stroke-linecap="round" d="M 35.0911 8.5253 L 32.0459 7.3478 L 29.0822 7.6664 L 27.713 13.7851 L 22.5491 17.8831 L 32.9509 34.1882 L 36.6467 35.4071 L 41.1648 32.5206 L 44.1426 28.5985 L 42.7832 24.7809 L 38.3347 19.8099 L 35.0911 8.5253 Z " stroke-width="1.0000000157768338"/>
  <path id="ID0.9914007503539324" fill="#33383A" stroke="none" d="M 35.0363 41.1717 L 27.9247 31.6738 L 33.72 28.8263 L 39.48 38.6686 L 35.0363 41.1717 Z " stroke-width="1.0000000157768338"/>
  <path id="ID0.28340246016159654" fill="#D8BFA7" stroke="none" stroke-linecap="round" d="M 18.1124 35.0381 L 24.1324 31.831 L 29.1199 31.6781 L 31.5387 34.2531 L 31.3891 36.8569 L 28.4948 38.8762 L 25.85 39.7638 L 23.6403 40.0923 L 20.9407 39.5895 L 19.1872 38.2819 L 18.1124 35.0381 Z " stroke-width="0.5947752534093179"/>
  <path id="ID0.28340246016159654" fill="#D8BFA7" stroke="none" stroke-linecap="round" d="M 43.0188 21.3599 L 37.0889 24.7305 L 34.2917 28.8627 L 35.1734 32.2838 L 37.4533 33.5502 L 40.7076 32.1851 L 42.8724 30.4253 L 44.332 28.734 L 45.3513 26.1843 L 45.1845 24.0032 L 43.0188 21.3599 Z " stroke-width="0.5947752534093179"/>
  <path id="ID0.17377300979569554" fill="#C6AF99" stroke="none" stroke-linecap="round" d="M 23.4488 36.4205 L 23.8429 35.2555 L 25.7578 33.9912 L 28.023 33.4356 L 29.3599 34.9266 L 26.9859 36.0827 L 23.4488 36.4205 Z " stroke-width="0.9999999970313418"/>
  <path id="ID0.17377300979569554" fill="#C6AF99" stroke="none" stroke-linecap="round" d="M 42.551 25.8782 L 41.3559 25.588 L 39.2634 26.5295 L 37.5823 28.1462 L 38.1268 30.0732 L 40.3735 28.6859 L 42.551 25.8782 Z " stroke-width="1.0000000034738896"/>
  <path id="ID0.44800941413268447" fill="none" stroke="#33383A" stroke-width="1.050359747750176" stroke-linecap="round" d="M 32.595 34.2102 L 29.0921 31.2225 L 24.0728 31.1978 L 18.385 34.4784 "/>
  <path id="ID0.12448931112885475" fill="#33383A" stroke="none" stroke-linecap="round" d="M 34.4197 39.6573 L 38.673 37.4303 L 41.0242 39.7318 L 39.0318 42.5407 L 35.2181 42.8706 L 34.4197 39.6573 Z " stroke-width="1.0000000157768338"/>
  <path id="ID0.44800941413268447" fill="none" stroke="#33383A" stroke-width="1.050359797365743" stroke-linecap="round" d="M 29.9228 31.7229 L 29.3874 29.0865 L 26.499 26.8358 "/>
  <path id="ID0.44800941413268447" fill="none" stroke="#33383A" stroke-width="1.050359701671558" stroke-linecap="round" d="M 33.709 29.5959 L 31.7679 27.7333 L 31.4114 24.0889 "/>
  <g id="ID0.32985211815685034">
    <g id="ID0.08651347272098064">
      <g id="ID0.07771636918187141">
        <path id="ID0.7001032647676766" fill="none" stroke="#646B70" stroke-width="0.5238094977530963" stroke-linecap="round" d="M 31.9677 47.9006 C 31.9677 47.9006 32.0887 48.254 32.1412 48.4329 C 32.1905 48.6013 32.1388 48.83 32.2727 48.9435 C 32.4113 49.061 32.6361 49.0382 32.8143 49.0041 C 32.9857 48.9711 33.1194 48.8338 33.2732 48.7515 C 33.4271 48.6692 33.7382 48.6848 33.7384 48.5104 C 33.7394 48.0928 33.2762 47.3448 33.2762 47.3448 "/>
        <path id="ID0.7001032647676766" fill="none" stroke="#646B70" stroke-width="0.5238094977530963" stroke-linecap="round" d="M 33.2177 47.2506 C 33.2177 47.2506 33.3387 47.604 33.3912 47.7829 C 33.4405 47.9513 33.3888 48.18 33.5227 48.2935 C 33.6613 48.411 33.8861 48.3882 34.0643 48.3541 C 34.2357 48.3211 34.3694 48.1838 34.5232 48.1015 C 34.6771 48.0192 34.9882 48.0348 34.9884 47.8604 C 34.9894 47.4428 34.5262 46.6948 34.5262 46.6948 "/>
      </g>
      <g id="ID0.07771636918187141">
        <path id="ID0.7001032647676766" fill="none" stroke="#646B70" stroke-width="0.5238094977530963" stroke-linecap="round" d="M 34.6677 46.6006 C 34.6677 46.6006 34.7887 46.954 34.8412 47.1329 C 34.8905 47.3013 34.8388 47.53 34.9727 47.6435 C 35.1113 47.761 35.3361 47.7382 35.5143 47.7041 C 35.6857 47.6711 35.8194 47.5338 35.9732 47.4515 C 36.1271 47.3692 36.4382 47.3848 36.4384 47.2104 C 36.4394 46.7928 35.9762 46.0448 35.9762 46.0448 "/>
        <path id="ID0.7001032647676766" fill="none" stroke="#646B70" stroke-width="0.5238094977530963" stroke-linecap="round" d="M 36.0677 45.9506 C 36.0677 45.9506 36.1887 46.304 36.2412 46.4829 C 36.2905 46.6513 36.2388 46.88 36.3727 46.9935 C 36.5113 47.111 36.7361 47.0882 36.9143 47.0541 C 37.0857 47.0211 37.2194 46.8838 37.3732 46.8015 C 37.5271 46.7192 37.8382 46.7348 37.8384 46.5604 C 37.8394 46.1428 37.3762 45.3948 37.3762 45.3948 "/>
      </g>
      <path id="ID0.7001032647676766" fill="none" stroke="#646B70" stroke-width="0.5238095428124622" stroke-linecap="round" d="M 37.4792 45.3497 C 37.4792 45.3497 37.6366 45.6885 37.7075 45.8609 C 37.7742 46.0232 37.7468 46.2561 37.8918 46.3549 C 38.0419 46.4572 38.2631 46.411 38.4368 46.3584 C 38.6038 46.3076 38.7224 46.157 38.8667 46.0591 C 39.011 45.9612 39.3221 45.944 39.3041 45.7706 C 39.2612 45.3552 38.7222 44.6598 38.7222 44.6598 "/>
    </g>
    <g id="ID0.08651347272098064">
      <g id="ID0.07771636918187141">
        <path id="ID0.7001032647676766" fill="none" stroke="#646B70" stroke-width="0.5238094977530963" stroke-linecap="round" d="M 45.1677 40.6209 C 45.1677 40.6209 45.4016 40.9122 45.5247 41.0522 C 45.6406 41.184 45.8615 41.2627 45.8857 41.4365 C 45.9109 41.6164 45.7714 41.7942 45.6472 41.9265 C 45.5277 42.0536 45.3401 42.0932 45.1883 42.1791 C 45.0365 42.2651 44.8833 42.5363 44.7358 42.4432 C 44.3825 42.2206 43.9982 41.4291 43.9982 41.4291 "/>
        <path id="ID0.7001032647676766" fill="none" stroke="#646B70" stroke-width="0.5238094977530963" stroke-linecap="round" d="M 43.8677 41.3709 C 43.8677 41.3709 44.1016 41.6622 44.2247 41.8022 C 44.3406 41.934 44.5615 42.0127 44.5857 42.1865 C 44.6109 42.3664 44.4714 42.5442 44.3472 42.6765 C 44.2277 42.8036 44.0401 42.8432 43.8883 42.9291 C 43.7365 43.0151 43.5833 43.2863 43.4358 43.1932 C 43.0825 42.9706 42.6982 42.1791 42.6982 42.1791 "/>
      </g>
      <g id="ID0.07771636918187141">
        <path id="ID0.7001032647676766" fill="none" stroke="#646B70" stroke-width="0.5238094977530963" stroke-linecap="round" d="M 42.4177 42.2709 C 42.4177 42.2709 42.6516 42.5622 42.7747 42.7022 C 42.8906 42.834 43.1115 42.9127 43.1357 43.0865 C 43.1609 43.2664 43.0214 43.4442 42.8972 43.5765 C 42.7777 43.7036 42.5901 43.7432 42.4383 43.8291 C 42.2865 43.9151 42.1333 44.1863 41.9858 44.0932 C 41.6325 43.8706 41.2482 43.0791 41.2482 43.0791 "/>
        <path id="ID0.7001032647676766" fill="none" stroke="#646B70" stroke-width="0.5238094977530963" stroke-linecap="round" d="M 41.1677 43.1209 C 41.1677 43.1209 41.4016 43.4122 41.5247 43.5522 C 41.6406 43.684 41.8615 43.7627 41.8857 43.9365 C 41.9109 44.1164 41.7714 44.2942 41.6472 44.4265 C 41.5277 44.5536 41.3401 44.5932 41.1883 44.6791 C 41.0365 44.7651 40.8833 45.0363 40.7358 44.9432 C 40.3825 44.7206 39.9982 43.9291 39.9982 43.9291 "/>
      </g>
      <path id="ID0.7001032647676766" fill="none" stroke="#646B70" stroke-width="0.5238095156140793" stroke-linecap="round" d="M 39.9761 43.9542 C 39.9761 43.9542 40.1782 44.2684 40.286 44.4205 C 40.3874 44.5637 40.5988 44.6651 40.6047 44.8405 C 40.6109 45.022 40.4535 45.1842 40.3161 45.3028 C 40.1839 45.4167 39.9933 45.4364 39.8333 45.5059 C 39.6733 45.5755 39.4925 45.8292 39.3556 45.7211 C 39.0275 45.4627 38.7283 44.6353 38.7283 44.6353 "/>
    </g>
  </g>
  <path id="ID0.7001032647676766" fill="none" stroke="#646B70" stroke-width="0.5238095643410463" stroke-linecap="round" d="M 33.5823 50.5291 C 33.5823 50.5291 33.3484 50.2378 33.2253 50.0978 C 33.1094 49.966 32.8885 49.8873 32.8643 49.7135 C 32.8391 49.5336 32.9786 49.3558 33.1028 49.2235 C 33.2224 49.0964 33.4099 49.0568 33.5617 48.9709 C 33.7135 48.8849 33.8667 48.6137 34.0142 48.7068 C 34.3675 48.9294 34.7518 49.7209 34.7518 49.7209 "/>
  <path id="ID0.7001032647676766" fill="none" stroke="#646B70" stroke-width="0.5238095643410463" stroke-linecap="round" d="M 34.8823 49.7291 C 34.8823 49.7291 34.6484 49.4378 34.5253 49.2978 C 34.4094 49.166 34.1885 49.0873 34.1643 48.9135 C 34.1391 48.7336 34.2786 48.5558 34.4028 48.4235 C 34.5224 48.2964 34.7099 48.2568 34.8617 48.1709 C 35.0135 48.0849 35.1667 47.8137 35.3142 47.9068 C 35.6675 48.1294 36.0518 48.9209 36.0518 48.9209 "/>
  <g id="ID0.07771636918187141">
    <path id="ID0.7001032647676766" fill="none" stroke="#646B70" stroke-width="0.5238095643410463" stroke-linecap="round" d="M 35.9323 49.3291 C 35.9323 49.3291 35.6984 49.0378 35.5753 48.8978 C 35.4594 48.766 35.2385 48.6873 35.2143 48.5135 C 35.1891 48.3336 35.3286 48.1558 35.4528 48.0235 C 35.5724 47.8964 35.7599 47.8568 35.9117 47.7709 C 36.0635 47.6849 36.2167 47.4137 36.3642 47.5068 C 36.7175 47.7294 37.1018 48.5209 37.1018 48.5209 "/>
    <path id="ID0.7001032647676766" fill="none" stroke="#646B70" stroke-width="0.5238095643410463" stroke-linecap="round" d="M 37.1823 48.4291 C 37.1823 48.4291 36.9484 48.1378 36.8253 47.9978 C 36.7094 47.866 36.4885 47.7873 36.4643 47.6135 C 36.4391 47.4336 36.5786 47.2558 36.7028 47.1235 C 36.8224 46.9964 37.0099 46.9568 37.1617 46.8709 C 37.3135 46.7849 37.4667 46.5137 37.6142 46.6068 C 37.9675 46.8294 38.3518 47.6209 38.3518 47.6209 "/>
  </g>
  <path id="ID0.7001032647676766" fill="none" stroke="#646B70" stroke-width="0.5238095821113364" stroke-linecap="round" d="M 39.0239 47.6458 C 39.0239 47.6458 38.8218 47.3316 38.714 47.1795 C 38.6126 47.0363 38.4012 46.9349 38.3953 46.7595 C 38.3891 46.578 38.5465 46.4157 38.6839 46.2972 C 38.8161 46.1833 39.0067 46.1636 39.1667 46.0941 C 39.3267 46.0245 39.5075 45.7708 39.6444 45.8789 C 39.9725 46.1373 40.2717 46.9647 40.2717 46.9647 "/>
  <path id="ID0.7001032647676766" fill="none" stroke="#646B70" stroke-width="0.5238095643410463" stroke-linecap="round" d="M 47.2822 42.7494 C 47.2822 42.7494 47.1612 42.396 47.1088 42.2171 C 47.0595 42.0487 47.1111 41.82 46.9772 41.7065 C 46.8387 41.589 46.6139 41.6118 46.4356 41.6459 C 46.2643 41.6789 46.1306 41.8162 45.9768 41.8985 C 45.8229 41.9808 45.5118 41.9652 45.5116 42.1396 C 45.5106 42.5572 45.9738 43.3052 45.9738 43.3052 "/>
  <path id="ID0.7001032647676766" fill="none" stroke="#646B70" stroke-width="0.5238095643410463" stroke-linecap="round" d="M 45.9322 43.3994 C 45.9322 43.3994 45.8112 43.046 45.7588 42.8671 C 45.7095 42.6987 45.7611 42.47 45.6272 42.3565 C 45.4887 42.239 45.2639 42.2618 45.0856 42.2959 C 44.9143 42.3289 44.7806 42.4662 44.6268 42.5485 C 44.4729 42.6308 44.1618 42.6152 44.1616 42.7896 C 44.1606 43.2072 44.6238 43.9552 44.6238 43.9552 "/>
  <path id="ID0.7001032647676766" fill="none" stroke="#646B70" stroke-width="0.5238095643410463" stroke-linecap="round" d="M 44.3822 44.3994 C 44.3822 44.3994 44.2612 44.046 44.2088 43.8671 C 44.1595 43.6987 44.2111 43.47 44.0772 43.3565 C 43.9387 43.239 43.7139 43.2618 43.5356 43.2959 C 43.3643 43.3289 43.2306 43.4662 43.0768 43.5485 C 42.9229 43.6308 42.6118 43.6152 42.6116 43.7896 C 42.6106 44.2072 43.0738 44.9552 43.0738 44.9552 "/>
  <path id="ID0.7001032647676766" fill="none" stroke="#646B70" stroke-width="0.5238095643410463" stroke-linecap="round" d="M 43.1822 45.2494 C 43.1822 45.2494 43.0612 44.896 43.0088 44.7171 C 42.9595 44.5487 43.0111 44.32 42.8772 44.2065 C 42.7387 44.089 42.5139 44.1118 42.3356 44.1459 C 42.1643 44.1789 42.0306 44.3162 41.8768 44.3985 C 41.7229 44.4808 41.4118 44.4652 41.4116 44.6396 C 41.4106 45.0572 41.8738 45.8052 41.8738 45.8052 "/>
  <path id="ID0.7001032647676766" fill="none" stroke="#646B70" stroke-width="0.5238096087576251" stroke-linecap="round" d="M 41.7708 46.2003 C 41.7708 46.2003 41.6134 45.8615 41.5425 45.6891 C 41.4758 45.5268 41.5032 45.2939 41.3582 45.1951 C 41.2081 45.0928 40.9868 45.139 40.8132 45.1916 C 40.6462 45.2424 40.5276 45.393 40.3833 45.4909 C 40.2389 45.5888 39.9279 45.606 39.9459 45.7794 C 39.9887 46.1948 40.5278 46.8902 40.5278 46.8902 "/>
  <path id="ID0.44800941413268447" fill="none" stroke="#2E3234" stroke-width="0.6130029782399207" stroke-linecap="round" d="M 38.8736 37.67 L 36.6625 37.4014 L 34.27 39.9101 "/>
  <path id="ID0.44800941413268447" fill="none" stroke="#33383A" stroke-width="1.050359747750176" stroke-linecap="round" d="M 34.6489 33.1875 L 33.9985 28.6297 L 36.6626 24.3757 L 42.477 21.3251 "/>
  <path id="ID0.023752907756716013" fill="none" stroke="#584E44" stroke-width="1.1814346397241526" stroke-linecap="round" d="M 22.4795 35.3686 L 25.0816 33.3355 L 27.5229 32.521 "/>
  <path id="ID0.023752907756716013" fill="none" stroke="#584E44" stroke-width="1.1814347130889002" stroke-linecap="round" d="M 41.9242 25.0759 L 38.6891 25.7385 L 36.4861 27.0688 "/>
</svg>