<svg xmlns="http://www.w3.org/2000/svg" xmlns:xlink="http://www.w3.org/1999/xlink" version="1.1" width="182.98035705533363" height="324.16784179654456" viewBox="0.8176725484592897 -0.25972980482745345 182.98035705533363 324.16784179654456">
  <defs>
    <linearGradient id="grad_1" y2="1" x2="0">
      <stop offset="0" stop-color="#222325" stop-opacity="1"/>
      <stop offset="1" stop-color="#2E3034" stop-opacity="1"/>
    </linearGradient>
  </defs>
  <!-- Exported by Scratch - http://scratch.mit.edu/ -->
  <path id="ID0.7766774026677012" fill="#0D0D0D" stroke="#0D0D0D" stroke-width="1.9548596188101803" stroke-linecap="round" d="M 113.5 182.388 C 112.782 150.441 113.511 117.2543 102.5 86.7169 C 98.336 75.1714 83.041 69.851 71 65.7217 C 65.504 63.8398 59.934 68.5637 54.5 70.2547 C 52.957 70.7309 51.812 71.7301 50.5 72.402 C 48.643 73.1626 46.689 73.7399 45 74.5492 C 44.402 74.8374 43.8 75.1218 43.25 75.5035 C 42.6 75.8375 42.1 76.3147 41.5 76.6964 C 40.25 77.4122 39 78.1756 37.75 78.8437 C 36.5 79.4163 35.2 79.8934 34 80.5137 C 33.4 80.8 32.75 81.0386 32.25 81.4681 C 31.65 81.8975 31.25 82.5655 30.75 83.1381 C 30.25 83.6153 29.75 84.0925 29.25 84.5696 C 28.75 84.9991 28.1 85.4285 27.75 86.0011 C 27.35 86.526 27.25 87.2417 27 87.9098 C 26.75 88.5301 26.45 89.1504 26.25 89.8184 C 25.8 91.059 25.4 92.3474 25 93.6357 C 24.75 94.256 24.5 94.8763 24.25 95.5444 C 24 96.1647 23.75 96.785 23.5 97.453 C 23.25 98.0733 23 98.6936 22.75 99.3617 C 22.5 99.982 22.15 100.6023 22 101.2703 C 21.8 101.8906 21.8 102.5109 21.75 103.179 C 21.65 103.7993 21.55 104.4196 21.5 105.0876 C 21.4 105.7079 21.35 106.3283 21.25 106.9963 C 21.1 107.6166 20.85 108.2369 20.75 108.9049 C 20.3 110.7659 19.9 112.7222 19.5 114.6309 C 19.35 115.2512 19.1 115.8715 19 116.5395 C 18.85 117.1599 18.8 117.7802 18.75 118.4482 C 18.65 119.0685 18.5 119.6888 18.5 120.3568 C 18.45 120.9772 18.5 121.5975 18.5 122.2655 C 18.5 123.5061 18.4 124.7945 18.5 126.0828 C 18.5 126.7031 18.7 126.9894 18.75 127.9915 C 18.8 131.8565 18.75 135.7692 18.75 139.6819 C 18.75 143.4515 18.75 147.3166 18.75 151.1339 C 18.75 152.9948 18.8 154.9512 18.75 156.8598 C 18.7 157.4801 18.6 158.1004 18.5 158.7685 C 18.25 160.2 17.9 161.5837 17.75 163.0629 C 17.65 163.6832 17.75 164.3036 17.75 164.9716 C 17.7 165.5919 17.55 166.2122 17.5 166.8802 C 17.3 168.1209 17.05 169.4092 17 170.6975 C 16.9 171.9382 17 173.2265 17 174.5148 C 17 178.2844 17 182.1495 17 185.9668 C 17 186.8734 17.05 187.2074 17 187.8754 C 16.9 188.4957 16.6 189.116 16.5 189.7841 C 16.15 191.645 16 193.6014 15.75 195.51 C 15.65 196.1303 15.6 196.7506 15.5 197.4187 C 15.2 198.7547 14.75 200.0908 14.5 201.4746 C 14.35 202.1426 14.3 202.906 14.25 203.6218 C 14.15 204.2898 14 205.0056 14 205.769 C 13.95 206.3893 14 207.0096 14 207.6777 C 14 208.298 13.9 208.9183 14 209.5863 C 14.15 210.8269 14.5 212.1153 14.75 213.4036 C 14.85 214.0239 14.95 214.6442 15 215.3123 C 15 215.9326 15 216.5529 15 217.2209 C 15 217.8412 15 218.4616 15 219.1296 C 14.9 220.3702 14.9 221.6585 14.75 222.9469 C 14.55 224.1398 14 226.5256 14 226.5256 C 13.75 227.0028 13.128 229.7188 12.75 231.0587 C 12.545 231.7868 12.223 232.4825 12 233.2059 C 11.806 233.8348 11.667 234.479 11.5 235.1145 C 11.333 235.7501 11.127 236.379 11 237.0232 C 10.876 237.653 10.874 238.302 10.75 238.9318 C 10.623 239.576 10.455 240.2154 10.25 240.8405 C 10.038 241.4885 9.673 242.0907 9.5 242.7491 C 9.337 243.3704 9.333 244.0222 9.25 244.6578 C 9.167 245.2934 9.083 245.9309 9 246.5665 C 8.917 247.202 8.833 247.8395 8.75 248.4751 C 8.667 249.1107 8.528 249.7434 8.5 250.3838 C 8.445 251.654 8.555 252.9309 8.5 254.2011 C 8.472 254.8414 8.333 255.4741 8.25 256.1097 C 8.167 256.7453 8.028 257.378 8 258.0184 C 7.945 259.2886 7.972 260.5645 8 261.8357 C 8.056 264.3789 8.183 266.928 8.25 269.4703 C 8.267 270.1059 8.25 270.7433 8.25 271.3789 C 8.25 272.0145 8.292 272.653 8.25 273.2876 C 8.208 273.927 8.124 274.5664 8 275.1962 C 7.873 275.8404 7.585 276.455 7.5 277.1049 C 7.417 277.7357 7.542 278.3789 7.5 279.0135 C 7.458 279.6529 7.292 280.2828 7.25 280.9222 C 7.208 281.5568 7.292 282.1962 7.25 282.8308 C 7.208 283.4702 7.124 284.1096 7 284.7395 C 6.873 285.3837 6.627 286.004 6.5 286.6481 C 6.376 287.278 6.374 287.9269 6.25 288.5568 C 6.123 289.201 5.863 289.8194 5.75 290.4654 C 5.529 291.729 5.417 293.0116 5.25 294.2828 C 5.167 294.9183 5.083 295.5558 5 296.1914 C 4.917 296.827 4.792 297.4607 4.75 298.1001 C 4.708 298.7347 4.708 299.3741 4.75 300.0087 C 4.792 300.6481 4.972 301.277 5 301.9174 C 5.055 303.1876 5.165 304.473 5 305.7347 C 4.83 307.0345 4.384 308.2942 4 309.552 C 3.801 310.2038 3.462 310.8126 3.25 311.4606 C 3.045 312.0857 2.955 312.7442 2.75 313.3693 C 2.538 314.0173 2.131 314.6108 2 315.2779 C 1.877 315.903 1.608 316.6722 2 317.1866 C 2.418 317.7353 3.294 317.8183 4 317.9023 C 4.666 317.9815 5.329 317.6637 6 317.6637 C 6.671 317.6637 7.329 317.9023 8 317.9023 C 8.671 317.9023 9.33 317.7038 10 317.6637 C 10.665 317.6237 11.339 317.5845 12 317.6637 C 12.681 317.7449 13.378 317.8641 14 318.1409 C 14.649 318.4301 15.071 319.1181 15.75 319.3338 C 16.382 319.5352 17.084 319.3338 17.75 319.3338 C 18.416 319.3338 19.089 319.413 19.75 319.3338 C 20.431 319.2527 21.069 318.9378 21.75 318.8566 C 22.411 318.7774 23.085 318.8166 23.75 318.8566 C 24.42 318.8967 25.08 319.0551 25.75 319.0952 C 26.415 319.1353 27.089 319.016 27.75 319.0952 C 28.431 319.1763 29.069 319.4913 29.75 319.5724 C 30.411 319.6516 31.085 319.5323 31.75 319.5724 C 32.42 319.6125 33.084 319.7318 33.75 319.811 C 34.416 319.8902 35.079 320.0696 35.75 320.0496 C 37.754 319.9894 39.749 319.6917 41.75 319.5724 C 42.415 319.5323 43.085 319.5323 43.75 319.5724 C 44.42 319.6125 45.079 319.7843 45.75 319.811 C 47.081 319.8635 48.419 319.7585 49.75 319.811 C 50.421 319.8377 51.08 320.0095 51.75 320.0496 C 52.415 320.0896 53.085 320.0896 53.75 320.0496 C 54.42 320.0095 55.08 319.8511 55.75 319.811 C 56.415 319.7709 57.085 319.8511 57.75 319.811 C 58.42 319.7709 59.081 319.6258 59.75 319.5724 C 61.08 319.4665 62.415 319.3338 63.75 319.3338 C 64.421 319.3338 65.09 319.4541 65.75 319.5724 C 66.425 319.6936 67.069 319.9684 67.75 320.0496 C 68.411 320.1288 69.084 320.0496 69.75 320.0496 C 71.748 320.0496 73.753 319.9904 75.75 320.0496 C 76.421 320.0696 77.08 320.2481 77.75 320.2881 C 78.415 320.3282 79.085 320.3282 79.75 320.2881 C 80.42 320.2481 81.084 320.1288 81.75 320.0496 C 82.416 319.9703 83.08 319.8511 83.75 319.811 C 84.415 319.7709 85.095 319.9284 85.75 319.811 C 86.449 319.686 86.154 319.497 87.75 319.0952 C 94.133 317.4881 105.572 320.5534 107.15 314.3713 C 112.777 292.314 104.925 268.6476 106 245.8507 C 106.992 224.8613 113.955 203.7449 113.5 182.388 Z "/>
  <g id="ID0.17693647183477879">
    <path id="ID0.7729651997797191" fill="#393C40" stroke="none" stroke-linecap="round" d="M 109.8143 109.4112 L 92.6754 100.5134 L 87.3824 116.1793 L 83.0211 128.7723 L 83.3952 135.35 L 84.5351 139.89 L 96.5928 143.2501 L 100.6623 139.1054 L 105.9519 120.0336 L 109.8143 109.4112 Z " stroke-width="0.7788098973073632"/>
    <path id="ID0.9716172609478235" fill="#34373A" stroke="none" stroke-linecap="round" d="M 103.5462 112.149 L 108.7157 112.6112 L 110.3788 106.3453 L 90.8841 105.4772 L 91.8766 109.4297 L 95.4671 113.6667 L 103.5462 112.149 Z " stroke-width="0.7788098973073632"/>
    <g id="ID0.38066427363082767">
      <path id="ID0.4757494777441025" fill="#1D1E1F" stroke="none" stroke-linecap="round" d="M 114.3961 84.4663 L 108.4312 78.5137 L 92.9851 74.6934 L 87.2272 99.5665 L 93.2538 108.7321 L 96.4311 111.825 L 100.228 111.4511 L 104.0242 110.4152 L 109.9836 111.0711 L 112.7637 106.6479 L 116.1448 99.673 L 117.5967 91.2786 L 114.3961 84.4663 Z " stroke-width="0.454186042613169"/>
      <path id="ID0.6007084371522069" fill="none" stroke="#0D0D0D" stroke-width="0.908372085226338" stroke-linecap="round" d="M 109.419 111.1301 L 104.1216 110.4735 L 98.8064 111.3942 L 96.3728 111.9225 L 93.2538 108.7321 L 90.7572 104.7232 "/>
    </g>
  </g>
  <g id="ID0.7397577832452953">
    <path id="ID0.6726378230378032" fill="#34373A" stroke="none" stroke-linecap="round" d="M 86.1936 127.8788 L 103.9012 127.4716 L 104.3381 129.7455 L 86.8868 129.8208 L 86.1936 127.8788 Z " stroke-width="0.7788099281432914"/>
    <path id="ID0.6507829907350242" fill="#1D1E1F" stroke="none" stroke-linecap="round" d="M 84.0048 130.4499 L 104.5471 129.6367 L 113.4103 145.4313 L 116.8766 155.1412 L 124.6904 168.3901 L 128.3587 173.46 L 119.453 180.9728 L 116.1202 175.7051 L 109.8632 168.5453 L 101.4817 159.6998 L 95.3236 152.7078 L 84.0048 130.4499 Z " stroke-width="0.7788099281432914"/>
    <path id="ID0.6829322893172503" fill="#1D1E1F" stroke="none" stroke-linecap="round" d="M 118.9198 180.8352 L 125.0001 171.5981 L 130.354 174.5436 L 136.5766 177.429 L 139.346 182.1248 L 141.1179 186.2788 L 140.9244 189.7835 L 143.0145 196.0102 L 139.0583 198.1175 L 137.063 197.0338 L 135.6224 197.6574 L 131.6532 197.0598 L 127.3186 196.2256 L 123.4655 193.5252 L 120.6744 187.2597 L 118.9198 180.8352 Z " stroke-width="0.7788099281432914"/>
    <path id="ID0.47767175547778606" fill="none" stroke="#0D0D0D" stroke-width="1.5576198562865828" stroke-linecap="round" d="M 85.9236 133.7034 L 84.1802 130.2108 L 104.48 129.6762 L 110.9969 141.3392 "/>
    <path id="ID0.5922487881034613" fill="#282A2B" stroke="none" stroke-linecap="round" d="M 99.7229 158.9051 L 102.7957 150.8541 L 107.8665 147.9539 L 115.853 149.8441 L 121.939 162.8462 L 121.7414 171.3263 L 118.8904 173.0078 L 110.2984 169.9376 L 99.7229 158.9051 Z " stroke-width="0.7788099281432914"/>
    <path id="ID0.36820242274552584" fill="#151616" stroke="none" stroke-linecap="round" d="M 106.0501 158.0539 L 112.9872 153.8722 L 116.3519 164.6365 L 115.0713 165.3013 L 106.0501 158.0539 Z " stroke-width="0.7788099281432914"/>
    <path id="ID0.13569410238415003" fill="none" stroke="#232425" stroke-width="1.5576198562865828" stroke-linecap="round" d="M 110.9261 167.5115 L 119.1036 170.6453 L 119.8362 162.0757 "/>
    <path id="ID0.024502143263816833" fill="none" stroke="#0D0D0D" stroke-width="1.5576198562865828" stroke-linecap="round" d="M 99.9285 158.4459 L 102.5557 151.0193 L 107.4012 147.8903 L 115.4548 149.741 L 118.8711 157.2199 "/>
  </g>
  <path id="ID0.3809091211296618" fill="#393D40" stroke="none" stroke-linecap="round" d="M 85.9857 180.7216 L 107.0164 161.4294 L 121.4256 197.4478 L 123.7407 208.146 L 123.9601 226.7562 L 116.4909 231.8123 L 104.4922 236.8603 L 98.4278 216.9436 L 96.8222 205.5993 L 85.9857 180.7216 Z " stroke-width="0.7305889621493067"/>
  <g id="ID0.12414784263819456">
    <path id="ID0.05466862628236413" fill="#292D2E" stroke="none" stroke-linecap="round" d="M 98.6162 222.3388 L 125.1528 225.6267 L 115.4592 242.5161 L 112.6065 246.9601 L 107.2364 264.2898 L 93.3952 302.6197 L 77.7825 300.2832 L 81.5343 278.3526 L 81.1875 269.3036 L 82.399 259.8616 L 87.9815 247.3863 L 91.2452 235.5053 L 98.6162 222.3388 Z " stroke-width="0.7305889723056431"/>
    <path id="ID0.4490455654449761" fill="none" stroke="#272A2B" stroke-width="1.6585523297656188" stroke-linecap="round" d="M 98.3067 222.4904 L 124.9357 225.403 L 111.9267 247.1428 "/>
    <path id="ID0.10446935473009944" fill="none" stroke="#242728" stroke-width="1.6585523297656188" stroke-linecap="round" d="M 108.3334 258.9449 L 103.7148 275.1374 L 91.6004 279.4189 "/>
    <path id="ID0.42170455446466804" fill="none" stroke="#242728" stroke-width="1.6585523297656188" stroke-linecap="round" d="M 102.3432 275.9678 L 96.9487 290.1066 L 84.5708 294.5165 "/>
    <path id="ID0.047098892275244" fill="none" stroke="#242728" stroke-width="1.6585523297656188" stroke-linecap="round" d="M 91.5723 235.3793 L 90.0785 239.0253 L 92.0689 248.7552 "/>
  </g>
  <path id="ID0.5368814701214433" fill="#292D2E" stroke="none" stroke-linecap="round" d="M 74.9528 307.2777 L 77.8362 298.4477 L 82.3251 289.2008 L 92.3012 295.0588 L 103.5673 302.6939 L 121.0293 313.0362 L 122.1078 319.5518 L 97.4104 320.7307 L 76.1654 317.0644 L 74.9528 307.2777 Z " stroke-width="0.7702165290554439"/>
  <path id="ID0.3809091211296618" fill="#3E4246" stroke="none" stroke-linecap="round" d="M 54.4952 155.9948 L 76.2309 165.9299 L 86.3597 203.378 L 87.4167 214.2727 L 85.4734 232.7825 L 77.4676 236.9369 L 64.9638 240.5573 L 60.3632 219.2769 L 56.2391 206.5106 L 54.4952 155.9948 Z " stroke-width="0.7305889481522947"/>
  <path id="ID0.5368814701214433" fill="#303436" stroke="none" stroke-linecap="round" d="M 35.1528 309.4777 L 38.0362 300.6477 L 42.5251 291.4008 L 52.5012 297.2588 L 63.7673 304.8939 L 81.2293 315.2362 L 82.3078 321.7518 L 57.6104 322.9307 L 36.3654 319.2644 L 35.1528 309.4777 Z " stroke-width="0.7702165290554439"/>
  <g id="ID0.9157347986474633">
    <path id="ID0.7477802094072104" fill="#363A3D" stroke="none" stroke-linecap="round" d="M 111.6154 124.9715 L 92.1382 121.4715 L 91.2831 162.6489 L 107.7591 171.9206 L 110.5532 147.452 L 111.6154 124.9715 Z " stroke-width="0.47614257300029306"/>
    <path id="ID0.7477802094072104" fill="#363A3D" stroke="none" stroke-linecap="round" d="M 51.2831 123.7358 L 74.7874 121.3664 L 73.9323 162.5439 L 57.0855 171.1236 L 52.1325 145.8988 L 51.2831 123.7358 Z " stroke-width="0.47614257300029306"/>
    <path id="ID0.4270821204409003" fill="#3E4246" stroke="none" stroke-linecap="round" d="M 52.0179 103.6385 L 56.0858 91.2215 L 58.468 85.437 L 65.1594 78.5513 L 96.1913 80.6245 L 103.005 85.0522 L 105.7772 89.1578 L 112.5615 100.7286 L 111.63 111.1866 L 110.5642 116.6413 L 112.087 123.5785 L 112.4494 129.0629 L 110.1639 135.921 L 108.4366 141.1238 L 107.0537 150.3818 L 108.0985 172.3108 L 102.7868 180.4158 L 97.8736 186.5287 L 85.6457 191.704 L 74.1169 188.4404 L 70.3289 181.6467 L 65.5115 175.1174 L 57.0309 171.8457 L 56.4148 146.4728 L 55.3631 139.7835 L 51.0303 128.2637 L 49.9461 117.4066 L 52.0179 103.6385 Z " stroke-width="0.47614257300029306"/>
    <path id="ID0.052435632329434156" fill="#393C40" stroke="none" stroke-linecap="round" d="M 63.1176 153.8064 L 67.5676 153.9464 L 74.0926 157.368 L 79.1659 157.3067 L 85.0079 159.2139 L 89.2193 158.2298 L 90.8953 157.7884 L 105.1758 154.6797 L 105.4646 157.9718 L 96.8094 161.9592 L 90.8653 161.5263 L 85.2086 164.4568 L 78.6172 160.7957 L 72.1817 161.0907 L 62.383 157.0772 L 63.1176 153.8064 Z " stroke-width="0.47614257300029306"/>
    <path id="ID0.4987568911164999" fill="none" stroke="#27282B" stroke-width="0.9522851460005861" stroke-linecap="round" d="M 64.9282 79.2223 L 58.3732 85.2774 L 54.8333 95.205 "/>
    <path id="ID0.2889464790932834" fill="none" stroke="#27282B" stroke-width="0.9522851460005861" stroke-linecap="round" d="M 97.5073 81.3276 L 103.1407 85.2545 L 108.6604 94.6559 "/>
    <path id="ID0.8373676878400147" fill="#000000" stroke="#2C2F31" stroke-width="0.6155104186945868" stroke-linecap="round" d="M 68.2718 92.3289 L 68.6477 90.8053 L 64.9906 91.6437 L 60.0712 94.8904 L 55.845 99.8623 L 53.2859 105.4474 L 58.4649 103.2905 L 63.1638 103.2687 L 65.8933 104.2374 L 68.3766 107.2745 L 70.4998 106.2908 L 74.5137 106.0844 L 79.0076 107.2087 L 82.7907 110.4577 L 84.8094 113.5511 L 87.0215 110.569 L 90.7778 107.5016 L 94.92 106.1457 L 100.0766 106.2213 L 101.8974 106.8414 L 103.6518 103.7619 L 105.6315 102.5408 L 108.2243 103.1183 L 110.9998 104.7822 L 109.6302 100.9475 L 107.4186 96.9983 L 104.6278 93.9475 L 101.4954 91.6516 L 96.9947 90.6811 L 99.1416 92.625 L 99.0629 94.3928 L 97.4298 96.4766 L 93.836 97.6258 L 90.6675 97.8698 L 88.0473 97.9072 L 85.5914 94.2552 L 85.1147 96.3134 L 83.6543 96.2484 L 82.1463 93.7938 L 81.1126 97.9836 L 77.0286 98.0328 L 72.9156 97.0025 L 69.5919 95.5453 L 68.2718 92.3289 Z "/>
    <path id="ID0.5698574706912041" fill="none" stroke="#313537" stroke-width="0.9522851460005861" stroke-linecap="round" d="M 63.0497 153.6383 L 62.3879 156.8392 L 72.1792 161.2097 L 78.9702 160.9935 L 84.973 164.3328 "/>
    <path id="ID0.5698574706912041" fill="none" stroke="#313537" stroke-width="0.8933066257048137" stroke-linecap="round" d="M 104.9201 154.7278 L 105.3721 157.9518 L 96.6747 161.9384 L 90.7685 161.4586 L 85.4108 164.5619 "/>
    <path id="ID0.8947288258932531" fill="#393C40" stroke="none" stroke-linecap="round" d="M 64.6069 141.7169 L 71.631 141.7437 L 79.1367 143.8045 L 84.6869 149.4442 L 77.6848 144.9173 L 66.9575 143.1944 L 61.7773 146.111 L 64.6069 141.7169 Z " stroke-width="0.47614257300029306"/>
    <path id="ID0.8947288258932531" fill="#393C40" stroke="none" stroke-linecap="round" d="M 103.3687 143.5222 L 97.157 143.2878 L 90.4447 144.8343 L 85.3299 149.6171 L 91.6875 145.8716 L 101.2361 144.7423 L 105.7093 147.5115 L 103.3687 143.5222 Z " stroke-width="0.4213738884176943"/>
    <path id="ID0.9897695370018482" fill="#393C40" stroke="none" stroke-linecap="round" d="M 67.8037 154.0466 L 61.268 153.4346 L 61.7928 148.8021 L 62.9103 152.3257 L 68.0009 152.5743 L 74.0692 156.2007 L 79.5511 155.9574 L 83.6153 157.4705 L 85.159 149.6445 L 85.1933 159.4559 L 79.6414 157.3403 L 73.7623 157.2183 L 67.8037 154.0466 Z " stroke-width="0.47614257300029306"/>
    <path id="ID0.9897695370018482" fill="#393C40" stroke="none" stroke-linecap="round" d="M 100.1103 154.9693 L 105.655 154.6415 L 105.3823 150.3173 L 104.3083 153.5505 L 99.9979 153.5939 L 94.737 156.7401 L 90.1142 156.3119 L 86.6244 157.5682 L 85.6086 150.2389 L 85.2179 159.355 L 89.9868 157.5937 L 94.9588 157.697 L 100.1103 154.9693 Z " stroke-width="0.4232251205631144"/>
    <path id="ID0.3524594851769507" fill="#393C40" stroke="none" stroke-linecap="round" d="M 78.9472 119.5607 L 84.8046 121.8731 L 89.304 119.6329 L 86.0593 123.3755 L 86.78 134.5346 L 95.8664 133.866 L 85.367 137.2199 L 73.8014 132.2887 L 83.4468 134.513 L 83.2764 123.2225 L 78.9472 119.5607 Z " stroke-width="0.47614257300029306"/>
    <path id="ID0.9214867809787393" fill="#393C40" stroke="none" stroke-linecap="round" d="M 64.6875 137.8371 L 67.7502 133.686 L 72.5304 132.8327 L 66.6001 137.472 L 66.3012 140.3947 L 71.3463 140.5471 L 79.4436 143.9299 L 70.5098 141.8394 L 64.6545 141.7178 L 64.6875 137.8371 Z " stroke-width="0.47614257300029306"/>
    <path id="ID0.9214867809787393" fill="#393C40" stroke="none" stroke-linecap="round" d="M 103.122 139.4159 L 100.4825 135.3388 L 96.1446 134.3397 L 101.3873 138.9935 L 101.5471 141.792 L 96.928 141.7415 L 90.2251 144.4429 L 97.6427 143.0062 L 103.0015 143.1175 L 103.122 139.4159 Z " stroke-width="0.4451788453890468"/>
    <path id="ID0.8679121839813888" fill="#2C2F31" stroke="none" stroke-linecap="round" d="M 80.9241 118.5054 L 84.6988 120.203 L 88.0652 118.6299 L 88.9975 119.6017 L 85.0148 122.186 L 79.3012 119.829 L 80.9241 118.5054 Z " stroke-width="0.47614257300029306"/>
    <path id="ID0.24770551454275846" fill="none" stroke="#313537" stroke-width="0.9522851460005861" stroke-linecap="round" d="M 84.9959 116.6296 L 89.5631 120.2963 L 97.0509 120.9281 L 104.6898 120.0151 L 110.0053 116.3156 "/>
    <path id="ID0.20603158557787538" fill="none" stroke="#313537" stroke-width="0.9522851460005861" stroke-linecap="round" d="M 51.7476 111.9286 L 58.658 117.4298 L 70.9683 120.9001 L 78.2403 120.4558 L 84.5103 116.657 "/>
    <g id="ID0.5272086253389716">
      <path id="ID0.24770551454275846" fill="none" stroke="#363A3D" stroke-width="0.9522850864087884" stroke-linecap="round" d="M 54.4879 144.5256 L 64.4553 141.5655 "/>
      <path id="ID0.24770551454275846" fill="none" stroke="#363A3D" stroke-width="0.9522850864087884" stroke-linecap="round" d="M 52.1542 132.5538 L 72.7053 126.7655 "/>
    </g>
    <g id="ID0.5272086253389716">
      <path id="ID0.24770551454275846" fill="none" stroke="#363A3D" stroke-width="0.9522850864087884" stroke-linecap="round" d="M 109.9797 144.7318 L 103.0807 142.7557 "/>
      <path id="ID0.24770551454275846" fill="none" stroke="#363A3D" stroke-width="0.9522850864087884" stroke-linecap="round" d="M 110.7029 133.3424 L 96.9298 128.2945 "/>
    </g>
    <g id="ID0.7887678607366979">
      <path id="ID0.753661650698632" fill="none" stroke="#313537" stroke-width="0.9522850864087884" stroke-linecap="round" d="M 79.4207 119.6896 L 84.6078 122.1786 L 88.7085 119.6444 "/>
      <g id="ID0.8167418288066983">
        <path id="ID0.9553722990676761" fill="none" stroke="#313537" stroke-width="1.0409107743576298" stroke-linecap="round" d="M 84.9063 137.0479 L 79.3392 134.7892 L 73.206 132.7569 L 68.4163 133.6099 L 64.8201 137.8214 L 64.7484 141.2727 "/>
        <path id="ID0.5982440118677914" fill="none" stroke="#313537" stroke-width="0.8540413396238158" stroke-linecap="round" d="M 73.5334 132.3556 L 72.4532 127.0387 L 77.8362 120.0913 "/>
      </g>
      <g id="ID0.7324484633281827">
        <path id="ID0.04993448918685317" fill="none" stroke="#313537" stroke-width="0.9522850864087884" stroke-linecap="round" d="M 84.6102 122.0595 L 85.1068 132.5472 L 85.2418 148.9805 L 85.1413 165.2898 "/>
        <g id="ID0.8167418288066983">
          <path id="ID0.9553722990676761" fill="none" stroke="#313537" stroke-width="0.9699703077304642" stroke-linecap="round" d="M 85.2502 136.9275 L 90.3128 135.6754 L 95.7815 133.884 L 99.957 134.9232 L 102.9528 139.2716 L 102.8811 142.7229 "/>
          <path id="ID0.5982440118677914" fill="none" stroke="#313537" stroke-width="0.7916616152166959" stroke-linecap="round" d="M 95.5361 133.5336 L 96.6927 128.2632 L 92.2336 121.1113 "/>
          <path id="ID0.3567589442245662" fill="none" stroke="#313537" stroke-width="0.8967655150693851" stroke-linecap="round" d="M 85.1263 149.6264 L 90.3586 144.7583 L 97.7253 143.0063 L 103.2521 143.1211 L 105.3958 147.809 L 105.5431 154.8367 L 99.9805 155.4355 L 94.2638 158.4124 L 89.3491 158.0722 L 85.1031 159.8176 L 79.3142 157.1971 L 73.7197 157.319 L 67.3569 154.0913 L 61.0704 153.2464 L 61.5511 146.2318 L 64.2016 141.6434 L 70.482 141.7738 L 78.7746 143.851 L 84.4911 148.9465 Z "/>
        </g>
      </g>
    </g>
    <g id="ID0.9312638868577778">
      <path id="ID0.2888958193361759" fill="#393C40" stroke="none" stroke-linecap="round" d="M 65.5092 161.9331 L 75.6808 164.229 L 75.0255 167.1319 L 64.8539 164.8359 L 65.5092 161.9331 Z " stroke-width="0.4761425459216224"/>
      <path id="ID0.2888958193361759" fill="#393C40" stroke="none" stroke-linecap="round" d="M 54.7581 159.6286 L 66.1808 162.329 L 65.5255 165.2319 L 55.3539 162.9359 L 54.7581 159.6286 Z " stroke-width="0.4761425459216224"/>
      <g id="ID0.36424446757882833">
        <path id="ID0.7359844641759992" fill="#8A7B59" stroke="none" d="M 68.3379 161.2806 L 69.8612 161.3122 L 69.7318 167.5484 L 68.2084 167.5167 L 68.3379 161.2806 Z " stroke-width="0.4761425432043942"/>
        <path id="ID0.7359844641759992" fill="#8A7B59" stroke="none" d="M 66.4879 160.8306 L 68.0112 160.8622 L 67.8818 167.0984 L 66.3584 167.0667 L 66.4879 160.8306 Z " stroke-width="0.4761425432043942"/>
        <path id="ID0.7359844641759992" fill="#8A7B59" stroke="none" d="M 64.5879 160.1306 L 66.1112 160.1622 L 65.9818 166.3984 L 64.4584 166.3667 L 64.5879 160.1306 Z " stroke-width="0.4761425432043942"/>
        <path id="ID0.7359844641759992" fill="#8A7B59" stroke="none" d="M 70.2379 161.8306 L 71.7612 161.8622 L 71.6318 168.0984 L 70.1084 168.0667 L 70.2379 161.8306 Z " stroke-width="0.4761425432043942"/>
      </g>
      <g id="ID0.1049797898158431">
        <path id="ID0.08871637750416994" fill="#8A7B59" stroke="none" stroke-linecap="round" d="M 56.4895 159.0074 L 62.8705 160.1877 L 62.7067 165.7801 L 56.5643 164.581 L 56.4895 159.0074 Z " stroke-width="0.4761425432043942"/>
        <path id="ID0.13805592898279428" fill="#76694C" stroke="none" stroke-linecap="round" d="M 56.2978 158.7378 L 62.9882 159.9245 L 63.0236 162.8065 L 56.3114 161.5241 L 56.2978 158.7378 Z " stroke-width="0.4761425432043942"/>
        <path id="ID0.3221200187690556" fill="#61563F" stroke="none" stroke-linecap="round" d="M 59.1 160.989 L 59.9708 161.3689 L 60.0118 163.1272 L 59.0629 162.7716 L 59.1 160.989 Z " stroke-width="0.5167888865886084"/>
        <path id="ID0.1420820001512766" fill="#BAA578" stroke="none" stroke-linecap="round" d="M 62.0518 164.8318 L 62.7956 163.4185 L 62.7952 165.7283 L 56.556 164.5986 L 62.0518 164.8318 Z " stroke-width="0.4761425432043942"/>
      </g>
      <path id="ID0.2888958193361759" fill="#393C40" stroke="none" stroke-linecap="round" d="M 103.0902 163.1025 L 95.6307 164.7611 L 96.0102 167.306 L 103.4697 165.6474 L 103.0902 163.1025 Z " stroke-width="0.3810469777360591"/>
      <path id="ID0.2888958193361759" fill="#393C40" stroke="none" stroke-linecap="round" d="M 109.6651 161.4157 L 102.6307 163.2111 L 103.0102 165.756 L 109.1833 164.3204 L 109.6651 161.4157 Z " stroke-width="0.3810469777360591"/>
      <path id="ID0.7359844641759992" fill="#8A7B59" stroke="none" d="M 101.0701 162.0255 L 99.9633 162.0025 L 99.8506 167.4273 L 100.9574 167.4503 L 101.0701 162.0255 Z " stroke-width="0.3816027988624045"/>
      <path id="ID0.7359844641759992" fill="#8A7B59" stroke="none" d="M 102.4701 161.5755 L 101.3633 161.5525 L 101.2506 166.9773 L 102.3574 167.0003 L 102.4701 161.5755 Z " stroke-width="0.3816027988624045"/>
      <path id="ID0.7359844641759992" fill="#8A7B59" stroke="none" d="M 103.9701 161.1255 L 102.8633 161.1025 L 102.7506 166.5273 L 103.8574 166.5503 L 103.9701 161.1255 Z " stroke-width="0.3816027988624045"/>
      <path id="ID0.7359844641759992" fill="#8A7B59" stroke="none" d="M 99.6201 162.5755 L 98.5133 162.5525 L 98.4006 167.9773 L 99.5074 168.0003 L 99.6201 162.5755 Z " stroke-width="0.3816027988624045"/>
      <g id="ID0.1049797898158431">
        <path id="ID0.08871637750416994" fill="#8A7B59" stroke="none" stroke-linecap="round" d="M 109.9077 160.3854 L 104.9448 161.2507 L 104.8742 166.4213 L 109.6538 165.5302 L 109.9077 160.3854 Z " stroke-width="0.40545296430512573"/>
        <path id="ID0.13805592898279428" fill="#76694C" stroke="none" stroke-linecap="round" d="M 110.1523 160.1886 L 104.9505 161.049 L 104.8217 163.7094 L 110.0437 162.7614 L 110.1523 160.1886 Z " stroke-width="0.40545296430512573"/>
        <path id="ID0.3221200187690556" fill="#61563F" stroke="none" stroke-linecap="round" d="M 108.0299 162.1428 L 107.3449 162.463 L 107.2513 164.0854 L 107.9957 163.7903 L 108.0299 162.1428 Z " stroke-width="0.4400648059527854"/>
        <path id="ID0.1420820001512766" fill="#BAA578" stroke="none" stroke-linecap="round" d="M 105.4982 165.6103 L 104.9743 164.2788 L 104.8933 166.412 L 109.745 165.5884 L 105.4982 165.6103 Z " stroke-width="0.40545296430512573"/>
      </g>
      <g id="ID0.6836685389280319">
        <path id="ID0.09357938077300787" fill="#857656" stroke="none" d="M 76.2247 161.4089 L 94.1952 161.7821 L 94.0618 168.2086 L 76.0913 167.8354 L 76.2247 161.4089 Z " stroke-width="0.42833206411122815"/>
        <path id="ID0.6492703901603818" fill="#7C6E50" stroke="none" stroke-linecap="round" d="M 76.8684 163.593 L 85.0158 166.8578 L 93.9106 163.9469 L 93.8221 168.2075 L 76.7799 167.8536 L 76.8684 163.593 Z " stroke-width="0.4761425432043942"/>
        <g id="ID0.9254062357358634">
          <g id="ID0.49943465692922473">
            <path id="ID0.140373723115772" fill="#968561" stroke="none" d="M 92.6906 160.5517 L 97.808 160.6579 L 97.6202 169.7027 L 92.5028 169.5964 L 92.6906 160.5517 Z " stroke-width="0.4761425432043942"/>
            <path id="ID0.8286363878287375" fill="#BAA578" stroke="none" stroke-linecap="round" d="M 92.6728 160.3742 L 97.9043 160.721 L 93.7469 161.3966 L 92.6789 163.5176 L 92.6728 160.3742 Z " stroke-width="0.4761425432043942"/>
            <path id="ID0.7362233307212591" fill="#8A7B59" stroke="none" stroke-linecap="round" d="M 92.57 166.468 L 95.2825 166.572 L 97.7845 164.1951 L 97.6683 169.7885 L 92.5033 169.6813 L 92.57 166.468 Z " stroke-width="0.4761425432043942"/>
          </g>
          <g id="ID0.49943465692922473">
            <path id="ID0.140373723115772" fill="#968561" stroke="none" d="M 77.6483 160.4906 L 72.5309 160.3843 L 72.3431 169.4291 L 77.4605 169.5354 L 77.6483 160.4906 Z " stroke-width="0.4761425432043942"/>
            <path id="ID0.8286363878287375" fill="#BAA578" stroke="none" stroke-linecap="round" d="M 77.7093 160.3013 L 72.4679 160.4306 L 76.5936 161.2782 L 77.5726 163.4417 L 77.7093 160.3013 Z " stroke-width="0.4761425432043942"/>
            <path id="ID0.7362233307212591" fill="#8A7B59" stroke="none" stroke-linecap="round" d="M 77.5589 166.3941 L 74.8445 166.3854 L 72.4433 163.9066 L 72.3272 169.5001 L 77.4922 169.6074 L 77.5589 166.3941 Z " stroke-width="0.4761425432043942"/>
          </g>
        </g>
      </g>
    </g>
  </g>
  <g id="ID0.8333355090580881">
    <path id="ID0.9286923445761204" fill="#27282B" stroke="none" stroke-linecap="round" d="M 71.363 44.6601 L 90.1707 46.1361 L 90.6468 70.4908 L 105.8834 77.6329 L 83.0285 88.9889 L 46.3656 76.4426 L 66.2445 65.8484 L 71.363 44.6601 Z " stroke-width="0.4761425852775574"/>
    <path id="ID0.5448851804248989" fill="none" stroke="#1D1E1F" stroke-width="0.9522851705551147" stroke-linecap="round" d="M 67.6729 60.0871 L 66.435 65.658 L 83.5285 73.5143 L 90.3611 70.586 "/>
    <path id="ID0.262191956397146" fill="none" stroke="#1D1E1F" stroke-width="0.9522851705551147" stroke-linecap="round" d="M 70.4346 65.039 L 83.1476 71.2288 L 86.1473 70.1099 "/>
  </g>
  <g id="ID0.3450673264451325">
    <g id="ID0.9831569031812251">
      <path id="ID0.0877610077150166" fill="#2E3034" stroke="none" stroke-linecap="round" d="M 94.2251 13.8343 L 89.6527 0.7177 L 89.6527 29.2463 L 97.3241 29.2463 L 94.2251 13.8343 Z " stroke-width="0.5866066539949776"/>
      <path id="ID0.796130308881402" fill="#242628" stroke="none" stroke-linecap="round" d="M 94.533 13.8789 L 89.605 0.7623 L 93.1613 14.6004 L 94.1012 29.4877 L 97.2764 29.1926 L 94.533 13.8789 Z " stroke-width="0.5866066539949776"/>
    </g>
    <g id="ID0.9831569031812251">
      <path id="ID0.0877610077150166" fill="#2E3034" stroke="none" stroke-linecap="round" d="M 70.3249 13.9843 L 74.8973 0.8677 L 74.8973 29.3963 L 67.2259 29.3963 L 70.3249 13.9843 Z " stroke-width="0.5866066539949776"/>
      <path id="ID0.796130308881402" fill="#242628" stroke="none" stroke-linecap="round" d="M 69.917 14.0289 L 74.845 0.9123 L 71.2887 14.7504 L 70.1964 29.3098 L 67.1736 29.3426 L 69.917 14.0289 Z " stroke-width="0.5866066539949776"/>
    </g>
    <path id="ID0.8999492498114705" fill="#2E3034" stroke="none" stroke-linecap="round" d="M 87.8733 19.8124 C 92.2775 20.2915 97.0093 23.0019 99.1416 26.8848 C 101.5745 31.3179 99.6267 36.9165 99.9265 41.912 C 100.0997 43.6155 100.8923 45.3682 100.5615 46.9924 C 99.8879 50.2962 98.2139 53.3251 97.1323 56.5181 C 96.4236 58.6107 96.2691 60.9655 95.1001 62.8686 C 93.7843 65.1212 92.4416 68.2553 89.8419 68.711 C 85.988 69.3862 81.9115 67.5451 78.4619 65.7898 C 75.6281 64.3475 72.9746 62.1355 71.4002 59.3631 C 68.5806 54.2182 66.0196 48.5582 65.634 42.6741 C 65.2067 36.1514 64.4365 28.0853 69.1902 23.3687 C 73.4425 18.8273 81.3262 19.1032 87.8733 19.8124 Z " stroke-width="0.508037269115448"/>
    <path id="ID0.2441388238221407" fill="#AB8E85" stroke="none" d="M 85.5438 44.6745 C 89.6241 44.8416 95.0631 41.6768 97.7883 44.4234 C 100.2434 47.0142 96.8753 51.8755 95.9045 55.3492 C 94.9375 58.804 94.2493 62.5426 92.0114 65.3959 C 90.9439 66.6643 88.7186 66.7359 86.988 66.4634 C 83.8761 65.9698 80.8143 64.6864 78.2198 62.8955 C 75.5348 61.0432 71.987 59.0137 71.4156 55.7887 C 70.6923 51.7035 71.3566 46.3084 74.5552 43.7327 C 77.4889 41.4834 81.8743 44.5238 85.5438 44.6745 Z " stroke-width="1.2558400630950928"/>
    <path id="ID0.46721756737679243" fill="#A2887F" stroke="none" stroke-linecap="round" d="M 70.9363 45.7953 L 72.6129 46.4812 L 98.6244 46.1001 L 91.4102 51.1805 L 74.6704 48.7165 L 75.7881 51.1043 L 76.0421 56.7181 L 79.6746 63.9068 L 75.1023 57.2261 L 70.9363 45.7953 Z " stroke-width="0.508037269115448"/>
    <path id="ID0.8256730306893587" fill="none" stroke="#937B73" stroke-width="1.016074538230896" stroke-linecap="round" d="M 81.8886 57.5778 C 81.8886 57.5778 84.5878 56.9813 85.9529 56.7903 C 86.2943 56.7425 86.6326 56.8203 86.9689 56.8665 C 87.3109 56.9138 87.6401 57.0814 87.985 57.0697 C 88.6688 57.0469 89.3379 56.8497 90.0172 56.7649 C 90.354 56.7227 90.6939 56.6846 91.0332 56.6887 C 91.3731 56.6928 91.7181 56.7131 92.0493 56.7903 C 92.5939 56.9173 93.6496 57.2983 93.6496 57.2983 "/>
    <path id="ID0.7592270169407129" fill="none" stroke="#937B73" stroke-width="1.016074538230896" stroke-linecap="round" d="M 90.4693 58.9019 C 90.4693 58.9019 89.8475 59.2468 89.504 59.3083 C 89.1708 59.3682 88.8248 59.2235 88.488 59.2575 C 88.1491 59.292 87.8351 59.4688 87.4973 59.5115 C 87.1615 59.5542 86.8109 59.5867 86.4812 59.5115 C 86.2008 59.4475 85.7192 59.1051 85.7192 59.1051 "/>
    <path id="ID0.5332203092984855" fill="none" stroke="#937B73" stroke-width="1.016074538230896" stroke-linecap="round" d="M 84.5009 49.4532 C 84.5009 49.4532 83.8954 49.885 83.7897 50.2152 C 83.6525 50.6577 83.398 51.5026 83.8405 51.8156 C 84.4212 52.1056 85.1797 51.3786 85.8726 51.4345 C 86.5433 51.4914 87.854 51.9426 87.854 51.9426 "/>
    <path id="ID0.2278452254831791" fill="none" stroke="#937B73" stroke-width="1.016074538230896" stroke-linecap="round" d="M 88.8447 45.7953 C 88.8447 45.7953 89.7789 47.6578 90.2418 48.5895 C 90.3967 48.9015 90.5674 49.2073 90.699 49.5294 C 90.8306 49.8515 91.0429 50.1726 91.0292 50.5201 C 91.0155 50.8686 90.8092 51.1907 90.6228 51.4853 C 90.4983 51.6824 90.1148 51.968 90.1148 51.968 "/>
    <path id="ID0.6473136460408568" fill="none" stroke="#937B73" stroke-width="1.016074563998663" stroke-linecap="round" d="M 89.1945 62.7247 C 89.1945 62.7247 89.5113 63.3595 89.5622 63.7041 C 89.6113 64.0396 89.5513 64.3871 89.4877 64.7203 C 89.3923 65.2223 89.0871 66.2015 89.0871 66.2015 "/>
    <path id="ID0.11669129692018032" fill="#2E3034" stroke="none" stroke-linecap="round" d="M 72.8669 40.4609 L 96.1096 42.239 L 100.0469 44.9062 L 90.6482 49.6056 L 69.9457 47.0654 L 72.8669 40.4609 Z " stroke-width="0.508037269115448"/>
    <path id="ID0.14635155349969864" fill="#2E3034" stroke="none" stroke-linecap="round" d="M 70.1997 45.7191 L 72.054 46.1001 L 74.6958 51.3075 L 75.0006 57.0737 L 76.8296 60.884 L 79.7254 64.4149 L 71.4952 59.2075 L 70.1997 45.7191 Z " stroke-width="0.508037269115448"/>
    <path id="ID0.28340246016159654" fill="#1C1D1F" stroke="none" stroke-linecap="round" d="M 73.0308 37.3008 L 76.4604 38.8401 L 86.1283 39.7313 L 86.1283 45.4834 L 79.188 44.5382 L 75.3262 43.458 L 73.3008 41.9457 L 72.4367 40.2174 L 73.0308 37.3008 Z " stroke-width="0.5401026606559753"/>
    <path id="ID0.6101007834076881" fill="#FFFFFF" stroke="none" stroke-linecap="round" d="M 76.8473 39.8334 L 78.5001 40.2332 L 82.28 41.4344 L 82.8247 43.4027 L 77.57 41.9498 L 76.8473 39.8334 Z " stroke-width="0.4061061920009203"/>
    <path id="ID0.28340246016159654" fill="#1C1D1F" stroke="none" stroke-linecap="round" d="M 98.6357 37.3586 L 95.5774 38.7313 L 86.9563 39.5259 L 86.9563 44.6553 L 93.1452 43.8124 L 96.5888 42.8492 L 98.3949 41.5006 L 99.1655 39.9594 L 98.6357 37.3586 Z " stroke-width="0.4816249907016754"/>
    <path id="ID0.6101007834076881" fill="#FFFFFF" stroke="none" stroke-linecap="round" d="M 96.9526 39.4089 L 95.4112 39.9003 L 91.9053 41.2963 L 91.5217 43.2012 L 96.4101 41.4663 L 96.9526 39.4089 Z " stroke-width="0.3863867372519633"/>
    <g id="ID0.07940126257017255">
      <path id="ID0.46257128613069654" fill="#27282B" stroke="none" stroke-linecap="round" d="M 86.3045 39.5743 L 90.6482 49.5318 L 80.6145 48.2617 L 86.3045 39.5743 Z " stroke-width="0.508037269115448"/>
      <path id="ID0.9845890481956303" fill="#27282B" stroke="none" stroke-linecap="round" d="M 87.1173 39.6989 L 95.3983 47.0654 L 90.7244 49.6056 L 87.1173 39.6989 Z " stroke-width="0.508037269115448"/>
    </g>
    <path id="ID0.20071752788498998" fill="#202324" stroke="none" d="M 77.8686 35.0018 L 82.0091 37.5673 L 86.7593 38.7358 L 86.8355 40.1329 L 79.0625 38.8628 L 73.1693 36.5259 L 74.8966 34.7477 L 77.8686 35.0018 Z " stroke-width="0.508037269115448"/>
    <path id="ID0.20071752788498998" fill="#202324" stroke="none" d="M 94.9242 34.7614 L 91.8713 37.2084 L 86.6277 38.7698 L 86.5578 40.0516 L 93.6891 38.8864 L 99.1191 36.8588 L 97.581 34.6216 L 94.9242 34.7614 Z " stroke-width="0.46609798073768616"/>
    <path id="ID0.521138689480722" fill="none" stroke="#212325" stroke-width="0.9060627222061157" stroke-linecap="round" d="M 98.7139 37.0742 L 95.4747 38.6598 L 86.9351 39.9057 "/>
    <path id="ID0.17828734638169408" fill="none" stroke="#202324" stroke-width="1.016074538230896" stroke-linecap="round" d="M 90.5466 49.0467 L 87.6254 41.8072 C 86.6245 39.3879 86.7729 39.9564 86.5839 38.9876 C 86.5179 38.6493 86.7358 38.3129 86.7871 37.9715 C 86.8374 37.6352 86.9014 37.2953 86.8887 36.9555 C 86.876 36.612 86.7769 36.2762 86.7109 35.9394 C 86.6078 35.4136 86.3807 34.3645 86.3807 34.3645 "/>
    <path id="ID0.521138689480722" fill="none" stroke="#212325" stroke-width="1.016074538230896" stroke-linecap="round" d="M 73.3068 36.8055 L 76.9392 38.5836 L 86.5157 39.9807 "/>
    <path id="ID0.8012696979567409" fill="none" stroke="url(#grad_1)" stroke-width="1.016074538230896" stroke-linecap="round" d="M 98.6244 45.6429 L 91.1562 49.5548 L 72.5621 47.2178 L 74.5434 51.0789 L 74.8482 57.1753 L 76.7788 60.7824 L 79.6746 64.4149 "/>
    <path id="ID0.043594349175691605" fill="#D7E2FD" stroke="none" stroke-linecap="round" d="M 82.0289 42.4677 L 82.2575 41.35 L 82.7656 43.4075 L 80.1746 42.6709 L 82.0289 42.4677 Z " stroke-width="0.508037269115448"/>
    <path id="ID0.043594349175691605" fill="#D7E2FD" stroke="none" stroke-linecap="round" d="M 92.2225 42.3348 L 91.9574 41.3321 L 91.6024 43.2258 L 93.9161 42.4236 L 92.2225 42.3348 Z " stroke-width="0.4618642652203811"/>
  </g>
  <g id="ID0.7049301471561193">
    <path id="ID0.05466862628236413" fill="#303436" stroke="none" stroke-linecap="round" d="M 60.2717 226.9601 L 86.7174 230.9125 L 76.6032 247.5535 L 73.6399 251.9246 L 67.8368 269.114 L 53.0385 307.0847 L 37.4894 304.3574 L 41.7901 282.5277 L 41.6704 273.4729 L 43.1183 264.0643 L 49.012 251.7329 L 52.5727 239.9375 L 60.2717 226.9601 Z " stroke-width="0.7305889563433441"/>
    <path id="ID0.4490455654449761" fill="none" stroke="#272A2B" stroke-width="1.658552281395819" stroke-linecap="round" d="M 59.9225 227.7536 L 86.47 231.3332 L 72.9197 252.7399 "/>
    <path id="ID0.10446935473009944" fill="none" stroke="#242728" stroke-width="1.658552281395819" stroke-linecap="round" d="M 69.0315 264.4481 L 64.0082 280.5197 L 51.7903 284.496 "/>
    <path id="ID0.42170455446466804" fill="none" stroke="#242728" stroke-width="1.658552281395819" stroke-linecap="round" d="M 62.6162 281.3154 L 56.8688 295.3144 L 44.3842 299.4125 "/>
    <path id="ID0.047098892275244" fill="none" stroke="#242728" stroke-width="1.658552281395819" stroke-linecap="round" d="M 52.8258 240.4021 L 51.241 244.0095 L 52.9868 253.7862 "/>
  </g>
  <path id="ID0.7729651997797191" fill="#3E4246" stroke="none" stroke-linecap="round" d="M 59.3947 111.99 L 58.3223 91.7739 L 75.571 93.5051 L 89.4824 94.7951 L 95.6002 98.0008 L 99.4409 101.0554 L 97.4269 114.0221 L 91.7075 116.1123 L 71.2087 112.9028 L 59.3947 111.99 Z " stroke-width="0.8164596233286261"/>
  <path id="ID0.9716172609478235" fill="#393C40" stroke="none" stroke-linecap="round" d="M 46.9005 112.4952 L 41.4597 112.5433 L 40.2489 105.8558 L 60.6932 106.5884 L 59.3236 110.6352 L 55.2152 114.7606 L 46.9005 112.4952 Z " stroke-width="0.8164596120359878"/>
  <g id="ID0.38066427363082767">
    <path id="ID0.4757494777441025" fill="#1D1E1F" stroke="none" stroke-linecap="round" d="M 38.539 82.4503 L 45.2728 76.7318 L 61.7347 74.039 L 65.6593 100.5148 L 58.5907 109.5855 L 55.0104 112.5503 L 51.0742 111.8402 L 47.1945 110.4383 L 40.9119 110.6224 L 38.3789 105.7665 L 35.4325 98.1936 L 34.6215 89.2997 L 38.539 82.4503 Z " stroke-width="0.47614258261410847"/>
    <path id="ID0.6007084371522069" fill="none" stroke="#0D0D0D" stroke-width="0.9522851652282169" stroke-linecap="round" d="M 41.497 110.7316 L 47.0878 110.491 L 52.5645 111.9003 L 55.0631 112.657 L 58.5907 109.5855 L 61.5368 105.6064 "/>
  </g>
  <g id="ID0.7397577832452953">
    <path id="ID0.6726378230378032" fill="#393C40" stroke="none" stroke-linecap="round" d="M 92.0934 117.1141 L 100.0364 100.3302 L 102.3726 100.9897 L 94.239 117.3774 L 92.0934 117.1141 Z " stroke-width="0.8164594938636577"/>
    <path id="ID0.6507829907350242" fill="#1D1E1F" stroke="none" stroke-linecap="round" d="M 93.5331 120.3532 L 102.4283 100.7222 L 121.3949 99.8424 L 132.1229 101.1592 L 148.2109 100.0659 L 154.686 99.0121 L 157.539 110.8888 L 151.0362 111.5353 L 141.3857 114.0324 L 129.1571 117.7276 L 119.7104 120.2109 L 93.5331 120.3532 Z " stroke-width="0.8164594938636577"/>
    <path id="ID0.6829322893172503" fill="#1D1E1F" stroke="none" stroke-linecap="round" d="M 157.1594 111.3237 L 151.3624 101.2838 L 156.6394 97.6518 L 162.2683 93.1776 L 167.9704 92.7901 L 172.6957 93.0827 L 175.8888 94.9116 L 182.706 95.8804 L 182.8206 100.5781 L 180.8672 101.9383 L 180.7743 103.5813 L 178.3483 107.0196 L 175.5289 110.6891 L 171.1871 113.03 L 164.0042 112.6998 L 157.1594 111.3237 Z " stroke-width="0.8164594938636577"/>
    <path id="ID0.47767175547778606" fill="none" stroke="#0D0D0D" stroke-width="1.6329189877273154" stroke-linecap="round" d="M 97.4838 120.0847 L 93.3915 120.0764 L 102.4338 100.8037 L 116.426 100.1801 "/>
    <path id="ID0.5922487881034613" fill="#282A2B" stroke="none" stroke-linecap="round" d="M 127.4987 119.0276 L 121.3993 112.3634 L 121.0656 106.2486 L 126.5913 99.6536 L 141.6357 100.0633 L 149.4889 104.2351 L 149.7242 107.6971 L 142.8081 114.3046 L 127.4987 119.0276 Z " stroke-width="0.8164594938636577"/>
    <path id="ID0.36820242274552584" fill="#151616" stroke="none" stroke-linecap="round" d="M 129.8055 112.5665 L 129.1483 104.1004 L 140.8166 106.0079 L 140.8376 107.5204 L 129.8055 112.5665 Z " stroke-width="0.8164594938636577"/>
    <path id="ID0.13569410238415003" fill="none" stroke="#232425" stroke-width="1.6329189877273154" stroke-linecap="round" d="M 140.9168 112.5503 L 147.6976 106.3611 L 140.0121 101.646 "/>
    <path id="ID0.024502143263816833" fill="none" stroke="#0D0D0D" stroke-width="1.6329189877273154" stroke-linecap="round" d="M 127.252 118.5936 L 121.5282 112.6404 L 120.8742 106.6291 L 126.3943 99.9528 L 135.0083 100.2675 "/>
  </g>
</svg>