<svg xmlns="http://www.w3.org/2000/svg" xmlns:xlink="http://www.w3.org/1999/xlink" version="1.1" width="130.0959545952048" height="266.91036194383764" viewBox="1.3909560748951542 6.852015168370496 130.0959545952048 266.91036194383764">
  <!-- Exported by Scratch - http://scratch.mit.edu/ -->
  <path id="ID0.7766774026677012" fill="#0D0D0D" stroke="#0D0D0D" stroke-width="1.9914776664938711" stroke-linecap="round" d="M 127.1548 133.374 C 129.6769 100.2721 133.7648 66.0295 125.9002 33.3812 C 122.9257 21.0376 108.2427 14.045 96.6774 8.6012 C 91.3983 6.1194 85.3763 10.4605 79.7968 11.6791 C 78.2129 12.021 76.9722 12.9424 75.5983 13.5091 C 73.6731 14.1145 71.67 14.5209 69.907 15.1929 C 69.2827 15.4326 68.6547 15.6679 68.0687 16.009 C 67.3879 16.291 66.842 16.7356 66.2061 17.0717 C 64.8896 17.6899 63.5682 18.3574 62.2565 18.9262 C 60.9544 19.3963 59.6123 19.7629 58.3551 20.2873 C 57.729 20.5248 57.0579 20.7081 56.5168 21.1034 C 55.8761 21.4889 55.4104 22.1406 54.8547 22.6839 C 54.3088 23.1285 53.7628 23.5731 53.2169 24.0177 C 52.6757 24.4129 51.9853 24.7936 51.579 25.3515 C 51.1277 25.8552 50.9557 26.5855 50.6392 27.2518 C 50.3275 27.8688 49.9661 28.4809 49.6994 29.1521 C 49.1258 30.391 48.5972 31.6841 48.0686 32.9772 C 47.7569 33.5942 47.4453 34.2112 47.1288 34.8775 C 46.8171 35.4945 46.5055 36.1115 46.189 36.7778 C 45.8773 37.3948 45.5657 38.0118 45.2492 38.6782 C 44.9375 39.2952 44.5264 39.9024 44.3094 40.5785 C 44.0475 41.2004 43.9846 41.8417 43.8672 42.5276 C 43.7048 43.1592 43.5425 43.7908 43.425 44.4767 C 43.2626 45.1083 43.15 45.7448 42.9828 46.4257 C 42.7707 47.0525 42.459 47.6695 42.2918 48.3505 C 41.6554 50.2307 41.0591 52.2145 40.4677 54.149 C 40.2555 54.7757 39.9439 55.3927 39.7767 56.0737 C 39.5646 56.7004 39.4519 57.3369 39.3345 58.0227 C 39.1721 58.6544 38.96 59.2811 38.8923 59.9718 C 38.7797 60.6083 38.7666 61.2546 38.6989 61.9453 C 38.5732 63.2281 38.3432 64.5504 38.3122 65.8922 C 38.2493 66.5336 38.4194 66.8491 38.3676 67.8901 C 38.0258 71.8912 37.5796 75.932 37.1832 79.9776 C 36.8013 83.8752 36.4097 87.8714 36.023 91.8184 C 35.8344 93.7425 35.686 95.7702 35.4428 97.7388 C 35.3302 98.3753 35.1678 99.0069 35.0006 99.6879 C 34.6068 101.1436 34.1183 102.5402 33.8191 104.055 C 33.6568 104.6866 33.6934 105.3378 33.6257 106.0285 C 33.5131 106.665 33.301 107.2917 33.1836 107.9776 C 32.8588 109.2408 32.4795 110.5485 32.2992 111.8757 C 32.074 113.1488 32.043 114.4906 31.9124 115.8227 C 31.5305 119.7203 31.1389 123.7166 30.7522 127.6635 C 30.6603 128.6009 30.6763 128.9511 30.5588 129.637 C 30.3964 130.2686 30.035 130.8807 29.8678 131.5617 C 29.331 133.4517 28.9835 135.4598 28.5413 137.4089 C 28.3789 138.0405 28.2663 138.677 28.0991 139.358 C 27.6652 140.7102 27.0819 142.0477 26.6929 143.4541 C 26.476 144.1302 26.3489 144.9147 26.2266 145.6499 C 26.0594 146.3308 25.8376 147.0563 25.7602 147.8456 C 25.6476 148.4821 25.6345 149.1284 25.5668 149.8191 C 25.504 150.4605 25.3416 151.0921 25.3735 151.7926 C 25.3971 153.09 25.6149 154.4562 25.7331 155.8127 C 25.7698 156.4638 25.8065 157.1149 25.7886 157.8105 C 25.7257 158.4519 25.6629 159.0933 25.5952 159.784 C 25.5324 160.4253 25.4695 161.0667 25.4018 161.7574 C 25.1766 163.0304 25.0461 164.3625 24.7663 165.68 C 24.4464 166.8939 23.6573 169.3071 23.6573 169.3071 C 23.3601 169.7761 22.4659 172.5237 21.954 173.8722 C 21.6762 174.6051 21.2852 175.293 20.99 176.0192 C 20.7332 176.6505 20.5296 177.303 20.299 177.9439 C 20.0684 178.5848 19.7997 179.2149 19.608 179.8686 C 19.4208 180.5078 19.353 181.1785 19.1658 181.8177 C 18.9742 182.4714 18.7422 183.1161 18.4748 183.7424 C 18.1982 184.3917 17.7739 184.9788 17.535 185.6427 C 17.3099 186.2692 17.2398 186.9427 17.0928 187.5918 C 16.9458 188.2409 16.7977 188.8918 16.6507 189.5409 C 16.5037 190.19 16.3555 190.8409 16.2085 191.49 C 16.0615 192.1391 15.859 192.7797 15.7663 193.4391 C 15.5829 194.7471 15.563 196.078 15.3795 197.386 C 15.2868 198.0454 15.0844 198.686 14.9374 199.3351 C 14.7904 199.9842 14.5879 200.6248 14.4952 201.2842 C 14.3117 202.5922 14.2093 203.9141 14.1084 205.2311 C 13.9065 207.8662 13.7746 210.5142 13.5837 213.1494 C 13.5363 213.8082 13.4548 214.4657 13.3904 215.1228 C 13.326 215.78 13.3031 216.4442 13.197 217.0963 C 13.0904 217.7533 12.942 218.4062 12.7548 219.0454 C 12.5631 219.699 12.2142 220.3064 12.0638 220.9701 C 11.9173 221.6142 11.9765 222.2915 11.8704 222.9436 C 11.7639 223.6006 11.5348 224.2356 11.4282 224.8927 C 11.3222 225.5447 11.341 226.214 11.2349 226.8661 C 11.1283 227.5231 10.9799 228.1761 10.7927 228.8152 C 10.601 229.4689 10.2934 230.0863 10.1017 230.7399 C 9.9145 231.3791 9.8467 232.0498 9.6595 232.689 C 9.4679 233.3427 9.1464 233.9567 8.9685 234.6137 C 8.6206 235.8986 8.3791 237.2138 8.0842 238.5119 C 7.9372 239.1609 7.789 239.8119 7.642 240.461 C 7.495 241.11 7.3064 241.753 7.1998 242.4101 C 7.0937 243.0621 7.0289 243.7232 7.0064 244.3835 C 6.9834 245.0487 7.0989 245.7165 7.0618 246.3814 C 6.9879 247.7001 6.9671 249.0399 6.6751 250.3283 C 6.3742 251.6557 5.8027 252.9146 5.2931 254.1777 C 5.029 254.8322 4.63 255.4287 4.3533 256.078 C 4.086 256.7044 3.9297 257.3764 3.6623 258.0027 C 3.3857 258.6521 2.9205 259.2261 2.7225 259.9031 C 2.5368 260.5374 2.1911 261.3065 2.5291 261.8765 C 2.8896 262.4847 3.753 262.656 4.4471 262.8116 C 5.1019 262.9585 5.7939 262.6946 6.4617 262.76 C 7.1295 262.8254 7.7602 263.1363 8.428 263.2017 C 9.0958 263.2672 9.7718 263.1262 10.4427 263.1501 C 11.1086 263.1735 11.7833 263.1988 12.4331 263.3451 C 13.1027 263.4954 13.7843 263.6867 14.3753 264.0335 C 14.9919 264.3958 15.3421 265.1484 15.9961 265.4376 C 16.6046 265.7074 17.3237 265.5677 17.9865 265.6326 C 18.6493 265.6976 19.3111 265.8451 19.977 265.8277 C 20.663 265.8102 21.3298 265.5468 22.0158 265.5294 C 22.6817 265.5119 23.3485 265.6181 24.0063 265.7244 C 24.669 265.8312 25.3098 266.0593 25.9726 266.1661 C 26.6303 266.2724 27.3132 266.2148 27.963 266.3612 C 28.6326 266.5114 29.2356 266.8993 29.9052 267.0496 C 30.555 267.1959 31.2379 267.1383 31.8956 267.2446 C 32.5584 267.3514 33.2071 267.5395 33.8619 267.6863 C 34.5167 267.8332 35.1584 268.0833 35.8282 268.1281 C 37.8288 268.2613 39.8444 268.148 41.848 268.2198 C 42.5138 268.2432 43.1807 268.3086 43.8384 268.4149 C 44.5012 268.5216 45.1396 268.7635 45.8047 268.8566 C 47.1241 269.0407 48.4663 269.0626 49.7857 269.2467 C 50.4507 269.3397 51.0892 269.5816 51.7519 269.6884 C 52.4097 269.7947 53.0765 269.86 53.7424 269.8834 C 54.4133 269.9073 55.0862 269.8079 55.7571 269.8318 C 56.4229 269.8552 57.0816 270.0034 57.7475 270.0268 C 58.4184 270.0507 59.0909 269.9652 59.7622 269.9752 C 61.0966 269.9954 62.4386 269.9884 63.7673 270.1186 C 64.4351 270.184 65.0887 270.3736 65.7336 270.5603 C 66.3931 270.7515 67.0061 271.0984 67.6757 271.2487 C 68.3255 271.3951 69.0033 271.3788 69.6662 271.4438 C 71.6546 271.6386 73.6561 271.773 75.6376 272.0289 C 76.3033 272.115 76.9411 272.3638 77.6038 272.4706 C 78.2616 272.5769 78.9284 272.6422 79.5943 272.6656 C 80.2652 272.6895 80.9381 272.631 81.609 272.614 C 82.2798 272.5971 82.9527 272.5385 83.6236 272.5624 C 84.2895 272.5858 84.9503 272.8149 85.6141 272.7574 C 86.3224 272.6963 86.0479 272.4722 87.677 272.2124 C 94.1924 271.1732 105.2664 275.4581 107.4632 269.22 C 115.2981 246.9623 109.8813 221.7266 113.2608 198.2603 C 116.3746 176.6549 125.4439 155.5004 127.1548 133.374 Z "/>
</svg>