<svg xmlns="http://www.w3.org/2000/svg" xmlns:xlink="http://www.w3.org/1999/xlink" version="1.1" width="116.1697998046875" height="316.9123840332031" viewBox="2.29010009765625 -1.024681568145752 116.1697998046875 316.9123840332031">
  <!-- Exported by Scratch - http://scratch.mit.edu/ -->
  <g id="ID0.01508300844579935">
    <g id="ID0.7085462282411754">
      <g id="ID0.5880346246995032">
        <path id="ID0.6829322893172503" fill="#1D1E1F" stroke="none" stroke-linecap="round" d="M 7.22 174.181 L 18.0584 170.066 L 20.7988 175.8564 L 24.3143 182.1289 L 23.784 187.8195 L 22.7387 192.4371 L 20.4223 195.2962 L 18.3746 201.8704 L 13.7192 201.2315 L 12.6892 199.0856 L 11.0822 198.7308 L 8.0767 195.7857 L 4.9058 192.4153 L 3.2901 187.7547 L 4.7659 180.7173 L 7.22 174.181 Z " stroke-width="0.8164595827124561"/>
        <g id="ID0.9434720128774643">
          <path id="ID0.6507829907350242" fill="#282828" stroke="none" stroke-linecap="round" d="M 7.5925 109.0798 L 25.5463 121.0028 L 22.633 137.7463 L 20.3613 150.2446 L 18.8652 166.3001 L 20.5343 173.4666 L 5.6297 174.5787 L 7.0914 167.2529 L 6.1714 157.3272 L 4.4814 144.6648 L 4.9033 131.3381 L 7.5925 109.0798 Z " stroke-width="0.8164595827124561"/>
          <path id="ID0.9892375003546476" fill="none" stroke="#191919" stroke-width="1.9999999547007297" stroke-linecap="round" d="M 6.1842 173.7581 L 19.8811 172.2726 L 18.1806 163.5773 "/>
        </g>
      </g>
      <path id="ID0.7729651997797191" fill="#282828" stroke="none" stroke-linecap="round" d="M 10.1724 78.2914 L 33.867 76.3329 L 32.4317 96.6411 L 29.0467 107.4457 L 28.1009 116.6882 L 26.0493 125.3148 L 9.103 123.0079 L 6.4514 116.3663 L 9.5097 92.1915 L 10.1724 78.2914 Z " stroke-width="0.9588636846711274"/>
      <path id="ID0.4757494777441025" fill="#282828" stroke="none" stroke-linecap="round" d="M 20.9453 62.3422 L 29.7608 60.1996 L 46.1673 65.08 L 37.7192 90.5536 L 27.0672 95.5531 L 22.4146 96.6245 L 19.1088 94.2438 L 16.1703 91.2679 L 10.2934 88.6491 L 10.1709 83.1734 L 10.9055 75.079 L 14.2113 66.7465 L 20.9453 62.3422 Z " stroke-width="0.48299249213559925"/>
    </g>
    <g id="ID0.7085462282411754">
      <g id="ID0.5880346246995032">
        <path id="ID0.6829322893172503" fill="#1D1E1F" stroke="none" stroke-linecap="round" d="M 113.53 173.431 L 102.6916 169.316 L 99.9512 175.1064 L 96.4357 181.3789 L 96.966 187.0695 L 98.0113 191.6871 L 100.3277 194.5462 L 102.3754 201.1204 L 107.0308 200.4815 L 108.0608 198.3356 L 109.6678 197.9808 L 112.6733 195.0357 L 115.8442 191.6653 L 117.4599 187.0047 L 115.9841 179.9673 L 113.53 173.431 Z " stroke-width="0.8164595827124561"/>
        <g id="ID0.9434720128774643">
          <path id="ID0.6507829907350242" fill="#282828" stroke="none" stroke-linecap="round" d="M 113.1575 108.3298 L 95.2037 120.2528 L 98.117 136.9963 L 100.3887 149.4946 L 101.8848 165.5501 L 100.2157 172.7166 L 115.1203 173.8287 L 113.6586 166.5029 L 114.5786 156.5772 L 116.2686 143.9148 L 115.8467 130.5881 L 113.1575 108.3298 Z " stroke-width="0.8164595827124561"/>
          <path id="ID0.9892375003546476" fill="none" stroke="#191919" stroke-width="1.9999999547007297" stroke-linecap="round" d="M 114.5658 173.0081 L 100.8689 171.5226 L 102.5694 162.8273 "/>
        </g>
      </g>
      <path id="ID0.7729651997797191" fill="#282828" stroke="none" stroke-linecap="round" d="M 110.5776 77.5414 L 86.883 75.5829 L 88.3183 95.8911 L 91.7033 106.6957 L 92.6491 115.9382 L 94.7007 124.5648 L 111.647 122.2579 L 114.2986 115.6163 L 111.2403 91.4415 L 110.5776 77.5414 Z " stroke-width="0.9588636846711274"/>
      <path id="ID0.4757494777441025" fill="#282828" stroke="none" stroke-linecap="round" d="M 99.7547 61.5922 L 90.9392 59.4496 L 74.5327 64.33 L 82.9808 89.8036 L 93.6328 94.8031 L 98.2854 95.8745 L 101.5912 93.4938 L 104.5297 90.5179 L 110.4066 87.8991 L 110.5291 82.4234 L 109.7945 74.329 L 106.4887 65.9965 L 99.7547 61.5922 Z " stroke-width="0.48299249213559925"/>
    </g>
    <g id="ID0.6660797297954559">
      <path id="ID0.5368814701214433" fill="#343434" stroke="none" stroke-linecap="round" d="M 67.2028 299.7277 L 70.0862 290.8977 L 74.5751 281.6508 L 84.5512 287.5088 L 95.8173 295.1439 L 113.2793 305.4862 L 114.3578 312.0018 L 89.6604 313.1807 L 68.4154 309.5144 L 67.2028 299.7277 Z " stroke-width="0.7702165290554439"/>
      <g id="ID0.5077062323689461">
        <path id="ID0.05466862628236413" fill="#252525" stroke="none" stroke-linecap="round" d="M 68.3016 227.4762 L 89.9943 224.0959 L 88.2584 238.7791 L 87.5161 243.7923 L 87.5096 258.2768 L 90.0103 291.528 L 68.7664 294.2982 L 67.4291 275.5496 L 65.1173 268.483 L 63.9475 260.7551 L 65.5457 249.6478 L 65.4469 239.5319 L 68.3016 227.4762 Z " stroke-width="0.5998532736063101"/>
        <path id="ID0.5319394422695041" fill="none" stroke="#131313" stroke-width="2" stroke-linecap="round" d="M 90.05 290.6 L 68.8 294.6 L 67.8 283.1 "/>
      </g>
      <g id="ID0.8820344842970371">
        <path id="ID0.3809091211296618" fill="#252525" stroke="none" stroke-linecap="round" d="M 57.0785 153.8033 L 88.7936 134.2871 L 90.0562 158.5149 L 94.0446 206.9911 L 93.562 217.7436 L 89.5609 229.0264 L 81.4676 226.8424 L 68.5144 228.1329 L 67.8531 206.371 L 66.1148 193.0681 L 57.0785 153.8033 Z " stroke-width="0.7305889665074583"/>
        <path id="ID0.9495224836282432" fill="none" stroke="#131313" stroke-width="2" stroke-linecap="round" d="M 94.05 207.1 L 94.05 215.6 L 92.05 223.6 L 83.55 228.1 L 82.55 233.1 "/>
      </g>
    </g>
    <g id="ID0.18228224432095885">
      <path id="ID0.5368814701214433" fill="#404040" stroke="none" stroke-linecap="round" d="M 28.8899 300.9519 L 31.9637 292.1863 L 36.6516 283.0387 L 46.4987 289.1112 L 57.5969 296.9883 L 74.831 307.7061 L 75.7682 314.2434 L 51.0511 314.8877 L 29.8904 310.7625 L 28.8899 300.9519 Z " stroke-width="0.7702165249851639"/>
      <g id="ID0.5077062323689461">
        <path id="ID0.05466862628236413" fill="#252525" stroke="none" stroke-linecap="round" d="M 32.8416 228.1183 L 54.6698 225.766 L 52.2424 240.351 L 51.2643 245.3235 L 50.5739 259.7916 L 51.5018 293.1237 L 30.1508 294.8878 L 29.7002 276.097 L 27.7247 268.9291 L 26.921 261.1545 L 29.0419 250.1351 L 29.4209 240.0258 L 32.8416 228.1183 Z " stroke-width="0.5998532668114317"/>
        <path id="ID0.5319394422695041" fill="none" stroke="#131313" stroke-width="1.9999999924153835" stroke-linecap="round" d="M 51.5982 292.1754 L 30.1831 295.1676 L 29.7272 283.6332 "/>
      </g>
      <g id="ID0.8820344842970371">
        <path id="ID0.3809091211296618" fill="#252525" stroke="none" stroke-linecap="round" d="M 30.2568 151.4403 L 57.7669 135.9934 L 57.8842 160.2537 L 59.5793 208.8642 L 58.5895 219.5819 L 54.0602 230.6632 L 46.079 228.0995 L 32.5327 230.115 L 30.6396 207.0026 L 29.7217 193.9458 L 30.2568 151.4403 Z " stroke-width="0.7305889820079058"/>
        <path id="ID0.9495224836282432" fill="none" stroke="#131313" stroke-width="1.9999999924153835" stroke-linecap="round" d="M 59.5363 208.9574 L 59.135 217.4479 L 56.7595 225.3446 L 48.0565 229.4382 L 46.8215 234.3854 "/>
      </g>
    </g>
    <g id="ID0.8990198895335197">
      <path id="ID0.17576928716152906" fill="#DBDBDB" stroke="none" d="M 62.55 56.6 L 62.3 56.6 L 62.3 56.6 L 62.55 56.6 L 62.55 56.6 Z " stroke-width="1"/>
      <path id="ID0.4270821204409003" fill="#252525" stroke="none" stroke-linecap="round" d="M 60.3901 178.6011 L 60.1361 65.8448 L 77.4913 68.3245 L 84.305 72.7522 L 87.0772 76.8578 L 93.8615 88.4286 L 92.93 98.8866 L 91.8642 104.3413 L 93.387 111.2785 L 93.7494 116.7629 L 91.4639 123.621 L 89.7366 128.8238 L 88.3537 138.0818 L 89.3985 160.0108 L 84.0868 168.1158 L 79.1736 174.2287 L 60.3901 178.6011 Z " stroke-width="0.47614257300029306"/>
      <path id="ID0.4270821204409003" fill="#252525" stroke="none" stroke-linecap="round" d="M 60.5099 178.7511 L 60.7639 65.9948 L 43.4087 68.4745 L 36.595 72.9022 L 33.8228 77.0078 L 27.0385 88.5786 L 27.97 99.0366 L 29.0358 104.4913 L 27.513 111.4285 L 27.1506 116.9129 L 29.4361 123.771 L 31.1634 128.9738 L 32.5463 138.2318 L 31.5015 160.1608 L 36.8132 168.2658 L 41.7264 174.3787 L 60.5099 178.7511 Z " stroke-width="0.47614257300029306"/>
      <path id="ID0.5114514343440533" fill="#282828" stroke="none" d="M 34.2326 67.1777 L 87.2326 67.1777 L 87.2326 155.4277 L 34.2326 155.4277 L 34.2326 67.1777 Z " stroke-width="1.0073066040733152"/>
      <path id="ID0.9286923445761204" fill="#D4D4D4" stroke="none" stroke-linecap="round" d="M 50.3867 53.4723 L 67.6707 34.7361 L 60.5523 53.6152 L 61.8141 94.0873 L 23.8656 65.0426 L 44.0064 54.2341 L 50.3867 53.4723 Z " stroke-width="0.4761425852775574"/>
      <path id="ID0.9286923445761204" fill="#D4D4D4" stroke="none" stroke-linecap="round" d="M 66.7636 52.3653 L 52.9793 34.9861 L 60.0977 53.8652 L 61.3118 93.8611 L 96.7844 65.2926 L 77.0007 53.4842 L 66.7636 52.3653 Z " stroke-width="0.4761425852775574"/>
      <path id="ID0.39874776685610414" fill="#C3C3C3" stroke="none" stroke-linecap="round" d="M 42.0977 55.164 L 61.9674 65.0348 L 79.8354 56.0738 L 83.8386 58.2117 L 61.7721 68.8102 L 38.3386 57.12 L 42.0977 55.164 Z " stroke-width="0.943659350131214"/>
      <path id="ID0.13444371055811644" fill="#1F1F1F" stroke="none" stroke-linecap="round" d="M 59.55 66.85 L 64.8 66.6 L 67.6 95.1 L 55.55 95.6 L 59.55 66.85 Z " stroke-width="1"/>
      <path id="ID0.751046194229275" fill="#191919" stroke="none" stroke-linecap="round" d="M 57.265 61.935 L 61.94 59.9 L 66.45 61.935 L 66.89 69.91 L 62.49 70.9 L 57.265 69.91 L 57.265 61.935 Z " stroke-width="1.100000023841858"/>
      <path id="ID0.7854711129330099" fill="#282828" stroke="none" stroke-linecap="round" d="M 48.3 83.6 L 62.3 92.35 L 76.05 82.6 L 74.05 100.1 L 50.8 100.1 L 48.3 83.6 Z " stroke-width="1"/>
      <path id="ID0.562834897544235" fill="#282828" stroke="none" stroke-linecap="round" d="M 31.55 155.1 L 61.8 149.35 L 61.8 169.6 L 48.05 170.85 L 31.55 155.1 Z " stroke-width="1"/>
      <path id="ID0.562834897544235" fill="#282828" stroke="none" stroke-linecap="round" d="M 92.5 155.35 L 62.25 149.6 L 62.25 169.85 L 76 171.1 L 92.5 155.35 Z " stroke-width="1"/>
      <path id="ID0.6824178956449032" fill="none" stroke="#191919" stroke-width="2" stroke-linecap="round" d="M 62.05 92.6 L 61.8 169.35 "/>
      <path id="ID0.4144489667378366" fill="#313131" stroke="none" stroke-linecap="round" d="M 23.3 62.1 L 43.55 54.1 L 40.55 75.85 L 43.8 135.85 L 34.3 180.6 L 23.3 175.6 L 23.05 179.1 L 26.05 131.1 L 21.3 87.85 L 20.3 71.6 L 23.3 62.1 Z " stroke-width="1"/>
      <path id="ID0.5234400681219995" fill="#101010" stroke="none" d="M 64.2662 98.3125 C 64.6789 98.3125 65.0531 98.4801 65.324 98.751 C 65.5949 99.0219 65.7625 99.3961 65.7625 99.8087 C 65.7625 100.2214 65.5949 100.5956 65.324 100.8665 C 65.0531 101.1374 64.6789 101.305 64.2662 101.305 C 63.8536 101.305 63.4794 101.1374 63.2085 100.8665 C 62.9376 100.5956 62.77 100.2214 62.77 99.8087 C 62.77 99.3961 62.9376 99.0219 63.2085 98.751 C 63.4794 98.4801 63.8536 98.3125 64.2662 98.3125 Z " stroke-width="0.6299999952316284"/>
      <path id="ID0.5234400681219995" fill="#101010" stroke="none" d="M 64.2662 111.9125 C 64.6789 111.9125 65.0531 112.0801 65.324 112.351 C 65.5949 112.6219 65.7625 112.9961 65.7625 113.4087 C 65.7625 113.8214 65.5949 114.1956 65.324 114.4665 C 65.0531 114.7374 64.6789 114.905 64.2662 114.905 C 63.8536 114.905 63.4794 114.7374 63.2085 114.4665 C 62.9376 114.1956 62.77 113.8214 62.77 113.4087 C 62.77 112.9961 62.9376 112.6219 63.2085 112.351 C 63.4794 112.0801 63.8536 111.9125 64.2662 111.9125 Z " stroke-width="0.6299999952316284"/>
      <path id="ID0.5234400681219995" fill="#101010" stroke="none" d="M 64.2662 143.4125 C 64.6789 143.4125 65.0531 143.5801 65.324 143.851 C 65.5949 144.1219 65.7625 144.4961 65.7625 144.9087 C 65.7625 145.3214 65.5949 145.6956 65.324 145.9665 C 65.0531 146.2374 64.6789 146.405 64.2662 146.405 C 63.8536 146.405 63.4794 146.2374 63.2085 145.9665 C 62.9376 145.6956 62.77 145.3214 62.77 144.9087 C 62.77 144.4961 62.9376 144.1219 63.2085 143.851 C 63.4794 143.5801 63.8536 143.4125 64.2662 143.4125 Z " stroke-width="0.6299999952316284"/>
      <path id="ID0.5234400681219995" fill="#101010" stroke="none" d="M 64.2662 128.6625 C 64.6789 128.6625 65.0531 128.8301 65.324 129.101 C 65.5949 129.3719 65.7625 129.7461 65.7625 130.1587 C 65.7625 130.5714 65.5949 130.9456 65.324 131.2165 C 65.0531 131.4874 64.6789 131.655 64.2662 131.655 C 63.8536 131.655 63.4794 131.4874 63.2085 131.2165 C 62.9376 130.9456 62.77 130.5714 62.77 130.1587 C 62.77 129.7461 62.9376 129.3719 63.2085 129.101 C 63.4794 128.8301 63.8536 128.6625 64.2662 128.6625 Z " stroke-width="0.6299999952316284"/>
      <path id="ID0.5234400681219995" fill="#101010" stroke="none" d="M 64.1662 157.4125 C 64.5789 157.4125 64.9531 157.5801 65.224 157.851 C 65.4949 158.1219 65.6625 158.4961 65.6625 158.9087 C 65.6625 159.3214 65.4949 159.6956 65.224 159.9665 C 64.9531 160.2374 64.5789 160.405 64.1662 160.405 C 63.7536 160.405 63.3794 160.2374 63.1085 159.9665 C 62.8376 159.6956 62.67 159.3214 62.67 158.9087 C 62.67 158.4961 62.8376 158.1219 63.1085 157.851 C 63.3794 157.5801 63.7536 157.4125 64.1662 157.4125 Z " stroke-width="0.6299999952316284"/>
      <path id="ID0.4144489667378366" fill="#313131" stroke="none" stroke-linecap="round" d="M 96.85 61.25 L 76.6 53.25 L 79.6 75 L 76.35 135 L 85.85 179.75 L 96.85 174.75 L 97.1 178.25 L 94.1 130.25 L 98.85 87 L 99.85 70.75 L 96.85 61.25 Z " stroke-width="1"/>
      <path id="ID0.8752945330925286" fill="none" stroke="#222222" stroke-width="2" stroke-linecap="round" d="M 23.8 62.35 L 20.55 70.1 L 23.8 107.85 "/>
      <path id="ID0.8752945330925286" fill="none" stroke="#222222" stroke-width="2" stroke-linecap="round" d="M 97.05 61.85 L 100.3 69.6 L 97.05 107.35 "/>
      <path id="ID0.5234400681219995" fill="#101010" stroke="none" d="M 41.1662 144.0625 C 41.5789 144.0625 41.9531 144.2301 42.224 144.501 C 42.4949 144.7719 42.6625 145.1461 42.6625 145.5587 C 42.6625 145.9714 42.4949 146.3456 42.224 146.6165 C 41.9531 146.8874 41.5789 147.055 41.1662 147.055 C 40.7536 147.055 40.3794 146.8874 40.1085 146.6165 C 39.8376 146.3456 39.67 145.9714 39.67 145.5587 C 39.67 145.1461 39.8376 144.7719 40.1085 144.501 C 40.3794 144.2301 40.7536 144.0625 41.1662 144.0625 Z " stroke-width="0.6299999952316284"/>
      <path id="ID0.5234400681219995" fill="#101010" stroke="none" d="M 39.7662 151.3125 C 40.1789 151.3125 40.5531 151.4801 40.824 151.751 C 41.0949 152.0219 41.2625 152.3961 41.2625 152.8087 C 41.2625 153.2214 41.0949 153.5956 40.824 153.8665 C 40.5531 154.1374 40.1789 154.305 39.7662 154.305 C 39.3536 154.305 38.9794 154.1374 38.7085 153.8665 C 38.4376 153.5956 38.27 153.2214 38.27 152.8087 C 38.27 152.3961 38.4376 152.0219 38.7085 151.751 C 38.9794 151.4801 39.3536 151.3125 39.7662 151.3125 Z " stroke-width="0.6299999952316284"/>
      <g id="ID0.20783481979742646">
        <path id="ID0.5848579816520214" fill="#737373" stroke="none" stroke-linecap="round" d="M 86.25 89.7 L 93.1 88.2 L 93 92.1 L 85.75 92.6 L 86.25 89.7 Z " stroke-width="1"/>
        <path id="ID0.13105127029120922" fill="none" stroke="#222222" stroke-width="2" stroke-linecap="round" d="M 84.4 92.85 L 88.9 92.85 L 94.15 91.35 "/>
      </g>
    </g>
    <path id="ID0.46110434643924236" fill="#D8BFA7" stroke="none" stroke-linecap="round" d="M 48.7448 35.05 L 71.3595 35.05 L 71.827 54 L 65.6328 56.85 L 48.7448 55.15 L 48.7448 35.05 Z " stroke-width="1.0876357641452272"/>
    <path id="ID0.8999492498114705" fill="#EDD2B8" stroke="none" stroke-linecap="round" d="M 67.4733 3.2624 C 71.8775 3.7415 76.6093 6.4519 78.7416 10.3348 C 81.1745 14.7679 79.2984 20.3594 79.5265 25.362 C 79.6352 27.1021 79.8648 28.9198 79.4249 30.671 C 78.9184 33.827 77.7311 36.8366 76.7323 39.9681 C 76.0601 42.079 75.8691 44.4155 74.7001 46.3186 C 73.3843 48.5712 72.0416 51.7053 69.4419 52.161 C 65.588 52.8362 61.5115 50.9951 58.0619 49.2398 C 55.2281 47.7975 52.5746 45.5855 51.0002 42.8131 C 48.1806 37.6682 45.6196 32.0082 45.234 26.1241 C 44.8067 19.6014 44.0365 11.5353 48.7902 6.8187 C 53.0425 2.2773 60.9262 2.5532 67.4733 3.2624 Z " stroke-width="0.508037269115448"/>
    <path id="ID0.8194515448994935" fill="#EDD2B8" stroke="none" stroke-linecap="round" d="M 45.2 20.75 C 46.054 20.837 46.672 21.406 47.179 22.465 C 47.686 23.524 48 24.986 48 26.6 C 48 28.214 47.686 29.676 47.179 30.735 C 46.672 31.794 46.053 32.336 45.2 32.45 C 44.417 32.553 43.411 32.124 43.05 31.45 C 42.371 29.952 42.491 28.175 42.4 26.6 C 42.31 25.052 41.95 23.35 42.55 21.95 C 43.029 21.096 44.305 20.659 45.2 20.75 Z " stroke-width="1"/>
    <path id="ID0.5768358684144914" fill="#2E3234" stroke="none" d="M 44.2 17.6 L 50.2 17.6 L 50.2 19.4 L 44.2 19.4 L 44.2 17.6 Z " stroke-width="1"/>
    <path id="ID0.3245162623934448" fill="#54595E" stroke="none" stroke-linecap="round" d="M 65.7 4.35 C 68.956 4.35 71.906 6.978 74.042 11.223 C 76.178 15.468 76.935 22.189 77.5 27.8 C 78.077 33.529 79.979 39.767 77.65 45 C 75.855 49.032 70.909 52.103 66.4 52.35 C 62.142 52.587 57.003 50.117 55 46.25 C 52.17 40.785 53.486 34.001 53.9 27.8 C 54.276 22.174 55.222 15.468 57.358 11.223 C 59.494 6.978 62.444 4.35 65.7 4.35 Z " stroke-width="1"/>
    <path id="ID0.8999492498114705" fill="#54595E" stroke="none" stroke-linecap="round" d="M 69.3733 0.6124 C 73.624 1.8597 78.5093 3.8019 80.6416 7.6848 C 83.0745 12.1179 80.6029 17.7693 81.4265 22.712 C 81.7521 24.6644 84.2268 26.1723 84.1191 28.2496 C 83.9367 30.9224 81.8258 33.1217 80.639 35.6162 C 79.3476 38.324 78.2121 41.1848 76.6001 43.6686 C 75.1761 45.8643 73.6947 48.3664 71.3419 49.511 C 69.5303 50.3909 66.9164 50.6378 65.3471 49.4094 C 64.0994 48.433 65.2424 46.2164 64.8645 44.6593 C 64.5363 42.7379 63.2408 41.0049 63.2387 39.02 C 63.2352 33.4956 65.1002 28.0596 65.1185 22.5342 C 65.1383 16.4581 65.4731 10.2108 63.4928 4.5243 C 62.7353 2.3489 56.5194 1.7768 57.5995 1.1205 C 59.2735 -0.0551 65.6072 -0.4926 69.3733 0.6124 Z " stroke-width="0.508037269115448"/>
    <path id="ID0.8999492498114705" fill="#54595E" stroke="none" stroke-linecap="round" d="M 58.1418 0.9959 C 54.3595 2.1273 50.1453 4.0974 48.2605 7.6257 C 45.9647 11.8978 47.2749 17.2998 46.7618 22.1048 C 46.5723 23.8692 45.5085 25.6804 45.8981 27.363 C 46.4687 29.6913 48.5816 31.443 49.2512 33.7389 C 50.1733 36.9014 49.4183 40.5344 50.7499 43.5186 C 51.8168 45.9084 53.6553 48.2164 56.0081 49.361 C 57.8197 50.2409 60.4336 50.4878 62.0029 49.2594 C 63.2506 48.283 62.1076 46.0664 62.4855 44.5093 C 62.8137 42.5879 64.1092 40.8549 64.1113 38.87 C 64.1148 33.3456 62.2498 27.9096 62.2315 22.3842 C 62.2117 16.3081 62.3362 10.1995 63.8572 4.3743 C 64.2672 2.8085 68.9529 2.1034 67.9977 1.5039 C 66.1073 0.3283 61.2917 -0.0228 58.1418 0.9959 Z " stroke-width="0.508037269115448"/>
    <path id="ID0.45774566335603595" fill="#54595E" stroke="none" stroke-linecap="round" d="M 66.125 36.25 C 68.229 36.25 69.769 37.514 71.515 38.316 C 73.107 39.048 76.112 39.186 76.1 41 C 76.112 43.832 73.627 46.276 71.515 48.284 C 70.122 49.608 68.229 50.35 66.125 50.35 C 64.021 50.35 62.218 49.507 60.735 48.284 C 58.683 46.593 56.055 44.602 56.1 42 C 56.055 40.008 58.979 39.291 60.735 38.316 C 62.415 37.382 64.021 36.25 66.125 36.25 Z " stroke-width="1"/>
    <path id="ID0.6934182443656027" fill="#54595E" stroke="none" stroke-linecap="round" d="M 51.9 30.65 L 65.15 34.75 L 79.25 30.25 L 76.25 37 L 75.75 41.5 L 55.9 42.15 L 54.75 36 L 51.9 30.65 Z " stroke-width="1"/>
    <path id="ID0.6236958587542176" fill="#3B4043" stroke="none" stroke-linecap="round" d="M 58.35 27.35 L 74.1 27.3 L 73.4 34.9 L 73.9 41.85 L 71.15 52.4 L 61.55 52.45 L 58 42.45 L 58.9 34.85 L 58.35 27.35 Z " stroke-width="1"/>
    <path id="ID0.6043254472315311" fill="#3B4043" stroke="none" stroke-linecap="round" d="M 51.05 4.7 L 55.8 1.85 L 60.55 7.45 L 67.05 8.55 L 65.8 27.85 L 63.15 30.7 L 57.8 30.35 L 54.25 28.25 L 52.65 24.35 L 54.15 17.85 L 51.05 4.7 Z " stroke-width="1"/>
    <path id="ID0.6043254472315311" fill="#3B4043" stroke="none" stroke-linecap="round" d="M 79.75 6.4 L 77.65 3.9 L 74.9 2.75 L 70.75 7.45 L 64.25 8.55 L 65.5 27.85 L 68.15 30.7 L 73.5 30.35 L 78 28.35 L 78.65 24.35 L 77.15 17.85 L 79.75 6.4 Z " stroke-width="1"/>
    <path id="ID0.9914007503539324" fill="#33383A" stroke="none" d="M 63.85 34.95 L 62.2 23.2 L 68.65 23.5 L 68.95 34.9 L 63.85 34.95 Z " stroke-width="1"/>
    <path id="ID0.28340246016159654" fill="#D8BFA7" stroke="none" stroke-linecap="round" d="M 51.9819 21.3412 L 58.8022 21.4345 L 63.2453 23.7057 L 64.1226 27.1279 L 62.7359 29.3368 L 59.2267 29.7101 L 56.4816 29.2123 L 54.3874 28.4345 L 52.2649 26.6923 L 51.3593 24.7012 L 51.9819 21.3412 Z " stroke-width="0.5947752382560764"/>
    <path id="ID0.28340246016159654" fill="#D8BFA7" stroke="none" stroke-linecap="round" d="M 80.5181 21.3412 L 73.6978 21.4345 L 69.2547 23.7057 L 68.3774 27.1279 L 69.7641 29.3368 L 73.2733 29.7101 L 76.0184 29.2123 L 78.1126 28.4345 L 80.2351 26.6923 L 81.1407 24.7012 L 80.5181 21.3412 Z " stroke-width="0.5947752382560764"/>
    <path id="ID0.17377300979569554" fill="#FFFFFF" stroke="none" stroke-linecap="round" d="M 55.8752 25.236 L 56.7822 24.4054 L 59.0694 24.2213 L 61.3218 24.8269 L 61.774 26.7776 L 59.1367 26.6457 L 55.8752 25.236 Z " stroke-width="0.9999999760882085"/>
    <path id="ID0.17377300979569554" fill="#FFFFFF" stroke="none" stroke-linecap="round" d="M 77.8248 25.236 L 76.9178 24.4054 L 74.6306 24.2213 L 72.3782 24.8269 L 71.926 26.7776 L 74.5633 26.6457 L 77.8248 25.236 Z " stroke-width="0.9999999760882085"/>
    <path id="ID0.44800941413268447" fill="none" stroke="#33383A" stroke-width="1.0503597259521484" stroke-linecap="round" d="M 64.9989 27.7698 L 63.3709 23.4633 L 58.9856 21.0212 L 52.4209 21.1525 "/>
    <path id="ID0.12448931112885475" fill="#33383A" stroke="none" stroke-linecap="round" d="M 64.05 33.3 L 68.85 33.4 L 69.8 36.55 L 66.7 38.05 L 63.2 36.5 L 64.05 33.3 Z " stroke-width="1"/>
    <path id="ID0.44800941413268447" fill="none" stroke="#33383A" stroke-width="1.050359732381415" stroke-linecap="round" d="M 63.9597 24.1096 L 64.7619 21.5418 L 63.3169 18.1773 "/>
    <path id="ID0.44800941413268447" fill="none" stroke="#33383A" stroke-width="1.050359732381415" stroke-linecap="round" d="M 68.3903 24.0096 L 67.5881 21.4418 L 69.0331 18.0773 "/>
    <g id="ID0.32985211815685034">
      <g id="ID0.08651347272098064">
        <g id="ID0.07771636918187141">
          <path id="ID0.7001032647676766" fill="none" stroke="#646B70" stroke-width="0.5238094925880432" stroke-linecap="round" d="M 57.8429 39.3429 C 57.8429 39.3429 57.7784 39.7108 57.7381 39.8929 C 57.7001 40.0641 57.5445 40.2396 57.6071 40.4036 C 57.6718 40.5733 57.8798 40.6618 58.0524 40.7179 C 58.2184 40.7715 58.4018 40.7158 58.5762 40.7179 C 58.7506 40.72 59.0157 40.8836 59.1 40.731 C 59.3022 40.3656 59.2571 39.4869 59.2571 39.4869 "/>
          <path id="ID0.7001032647676766" fill="none" stroke="#646B70" stroke-width="0.5238094925880432" stroke-linecap="round" d="M 59.3429 39.3429 C 59.3429 39.3429 59.2784 39.7108 59.2381 39.8929 C 59.2001 40.0641 59.0445 40.2396 59.1071 40.4036 C 59.1718 40.5733 59.3798 40.6618 59.5524 40.7179 C 59.7184 40.7715 59.9018 40.7158 60.0762 40.7179 C 60.2506 40.72 60.5157 40.8836 60.6 40.731 C 60.8022 40.3656 60.7571 39.4869 60.7571 39.4869 "/>
        </g>
        <g id="ID0.07771636918187141">
          <path id="ID0.7001032647676766" fill="none" stroke="#646B70" stroke-width="0.5238094925880432" stroke-linecap="round" d="M 60.9429 39.5429 C 60.9429 39.5429 60.8784 39.9108 60.8381 40.0929 C 60.8001 40.2641 60.6445 40.4396 60.7071 40.6036 C 60.7718 40.7733 60.9798 40.8618 61.1524 40.9179 C 61.3184 40.9715 61.5018 40.9158 61.6762 40.9179 C 61.8506 40.92 62.1157 41.0836 62.2 40.931 C 62.4022 40.5656 62.3571 39.6869 62.3571 39.6869 "/>
          <path id="ID0.7001032647676766" fill="none" stroke="#646B70" stroke-width="0.5238094925880432" stroke-linecap="round" d="M 62.4429 39.5929 C 62.4429 39.5929 62.3784 39.9608 62.3381 40.1429 C 62.3001 40.3141 62.1445 40.4896 62.2071 40.6536 C 62.2718 40.8233 62.4798 40.9118 62.6524 40.9679 C 62.8184 41.0215 63.0018 40.9658 63.1762 40.9679 C 63.3506 40.97 63.6157 41.1336 63.7 40.981 C 63.9022 40.6156 63.8571 39.7369 63.8571 39.7369 "/>
        </g>
        <path id="ID0.7001032647676766" fill="none" stroke="#646B70" stroke-width="0.5238095049857807" stroke-linecap="round" d="M 63.9908 39.7626 C 63.9908 39.7626 63.9653 40.1353 63.9442 40.3206 C 63.9244 40.4949 63.7881 40.6857 63.8675 40.8422 C 63.9496 41.0042 64.1657 41.0705 64.3432 41.1081 C 64.514 41.1441 64.6905 41.0694 64.8642 41.0532 C 65.0379 41.037 65.3186 41.172 65.3865 41.0113 C 65.5492 40.6268 65.4124 39.7577 65.4124 39.7577 "/>
      </g>
      <g id="ID0.08651347272098064">
        <g id="ID0.07771636918187141">
          <path id="ID0.7001032647676766" fill="none" stroke="#646B70" stroke-width="0.5238094925880432" stroke-linecap="round" d="M 73.0571 39.3429 C 73.0571 39.3429 73.1216 39.7108 73.1619 39.8929 C 73.1999 40.0641 73.3555 40.2396 73.2929 40.4036 C 73.2282 40.5733 73.0202 40.6618 72.8476 40.7179 C 72.6816 40.7715 72.4982 40.7158 72.3238 40.7179 C 72.1494 40.72 71.8843 40.8836 71.8 40.731 C 71.5978 40.3656 71.6429 39.4869 71.6429 39.4869 "/>
          <path id="ID0.7001032647676766" fill="none" stroke="#646B70" stroke-width="0.5238094925880432" stroke-linecap="round" d="M 71.5571 39.3429 C 71.5571 39.3429 71.6216 39.7108 71.6619 39.8929 C 71.6999 40.0641 71.8555 40.2396 71.7929 40.4036 C 71.7282 40.5733 71.5202 40.6618 71.3476 40.7179 C 71.1816 40.7715 70.9982 40.7158 70.8238 40.7179 C 70.6494 40.72 70.3843 40.8836 70.3 40.731 C 70.0978 40.3656 70.1429 39.4869 70.1429 39.4869 "/>
        </g>
        <g id="ID0.07771636918187141">
          <path id="ID0.7001032647676766" fill="none" stroke="#646B70" stroke-width="0.5238094925880432" stroke-linecap="round" d="M 69.8571 39.5429 C 69.8571 39.5429 69.9216 39.9108 69.9619 40.0929 C 69.9999 40.2641 70.1555 40.4396 70.0929 40.6036 C 70.0282 40.7733 69.8202 40.8618 69.6476 40.9179 C 69.4816 40.9715 69.2982 40.9158 69.1238 40.9179 C 68.9494 40.92 68.6843 41.0836 68.6 40.931 C 68.3978 40.5656 68.4429 39.6869 68.4429 39.6869 "/>
          <path id="ID0.7001032647676766" fill="none" stroke="#646B70" stroke-width="0.5238094925880432" stroke-linecap="round" d="M 68.3571 39.5929 C 68.3571 39.5929 68.4216 39.9608 68.4619 40.1429 C 68.4999 40.3141 68.6555 40.4896 68.5929 40.6536 C 68.5282 40.8233 68.3202 40.9118 68.1476 40.9679 C 67.9816 41.0215 67.7982 40.9658 67.6238 40.9679 C 67.4494 40.97 67.1843 41.1336 67.1 40.981 C 66.8978 40.6156 66.9429 39.7369 66.9429 39.7369 "/>
        </g>
        <path id="ID0.7001032647676766" fill="none" stroke="#646B70" stroke-width="0.5238095049857807" stroke-linecap="round" d="M 66.9092 39.7626 C 66.9092 39.7626 66.9347 40.1353 66.9558 40.3206 C 66.9756 40.4949 67.1119 40.6857 67.0325 40.8422 C 66.9504 41.0042 66.7343 41.0705 66.5568 41.1081 C 66.386 41.1441 66.2095 41.0694 66.0358 41.0532 C 65.8621 41.037 65.5814 41.172 65.5135 41.0113 C 65.3508 40.6268 65.4876 39.7577 65.4876 39.7577 "/>
      </g>
    </g>
    <path id="ID0.7001032647676766" fill="none" stroke="#646B70" stroke-width="0.523809552192688" stroke-linecap="round" d="M 58.0929 42.4071 C 58.0929 42.4071 58.0284 42.0392 57.9881 41.8571 C 57.9501 41.6859 57.7946 41.5104 57.8571 41.3464 C 57.9218 41.1767 58.1298 41.0882 58.3024 41.0321 C 58.4684 40.9785 58.6518 41.0342 58.8262 41.0321 C 59.0006 41.03 59.2657 40.8664 59.35 41.019 C 59.5522 41.3844 59.5071 42.2631 59.5071 42.2631 "/>
    <path id="ID0.7001032647676766" fill="none" stroke="#646B70" stroke-width="0.523809552192688" stroke-linecap="round" d="M 59.5929 42.4071 C 59.5929 42.4071 59.5284 42.0392 59.4881 41.8571 C 59.4501 41.6859 59.2946 41.5104 59.3571 41.3464 C 59.4218 41.1767 59.6298 41.0882 59.8024 41.0321 C 59.9684 40.9785 60.1518 41.0342 60.3262 41.0321 C 60.5006 41.03 60.7657 40.8664 60.85 41.019 C 61.0522 41.3844 61.0071 42.2631 61.0071 42.2631 "/>
    <g id="ID0.07771636918187141">
      <path id="ID0.7001032647676766" fill="none" stroke="#646B70" stroke-width="0.523809552192688" stroke-linecap="round" d="M 60.6929 42.5571 C 60.6929 42.5571 60.6284 42.1892 60.5881 42.0071 C 60.5501 41.8359 60.3946 41.6604 60.4571 41.4964 C 60.5218 41.3267 60.7298 41.2382 60.9024 41.1821 C 61.0684 41.1285 61.2518 41.1842 61.4262 41.1821 C 61.6006 41.18 61.8657 41.0164 61.95 41.169 C 62.1522 41.5344 62.1071 42.4131 62.1071 42.4131 "/>
      <path id="ID0.7001032647676766" fill="none" stroke="#646B70" stroke-width="0.523809552192688" stroke-linecap="round" d="M 62.1929 42.4071 C 62.1929 42.4071 62.1284 42.0392 62.0881 41.8571 C 62.0501 41.6859 61.8946 41.5104 61.9571 41.3464 C 62.0218 41.1767 62.2298 41.0882 62.4024 41.0321 C 62.5684 40.9785 62.7518 41.0342 62.9262 41.0321 C 63.1006 41.03 63.3657 40.8664 63.45 41.019 C 63.6522 41.3844 63.6071 42.2631 63.6071 42.2631 "/>
    </g>
    <path id="ID0.7001032647676766" fill="none" stroke="#646B70" stroke-width="0.5238095646525897" stroke-linecap="round" d="M 64.1408 42.5373 C 64.1408 42.5373 64.1153 42.1646 64.0942 41.9794 C 64.0744 41.8051 63.9381 41.6143 64.0175 41.4578 C 64.0996 41.2958 64.3157 41.2295 64.4932 41.1919 C 64.664 41.1559 64.8405 41.2306 65.0142 41.2468 C 65.1879 41.263 65.4686 41.128 65.5365 41.2887 C 65.6993 41.6732 65.5624 42.5423 65.5624 42.5423 "/>
    <path id="ID0.7001032647676766" fill="none" stroke="#646B70" stroke-width="0.523809552192688" stroke-linecap="round" d="M 73.8571 42.2071 C 73.8571 42.2071 73.9216 41.8392 73.9619 41.6571 C 73.9999 41.4859 74.1554 41.3104 74.0929 41.1464 C 74.0282 40.9767 73.8202 40.8882 73.6476 40.8321 C 73.4816 40.7785 73.2982 40.8342 73.1238 40.8321 C 72.9494 40.83 72.6843 40.6664 72.6 40.819 C 72.3978 41.1844 72.4429 42.0631 72.4429 42.0631 "/>
    <path id="ID0.7001032647676766" fill="none" stroke="#646B70" stroke-width="0.523809552192688" stroke-linecap="round" d="M 72.3571 42.2071 C 72.3571 42.2071 72.4216 41.8392 72.4619 41.6571 C 72.4999 41.4859 72.6554 41.3104 72.5929 41.1464 C 72.5282 40.9767 72.3202 40.8882 72.1476 40.8321 C 71.9816 40.7785 71.7982 40.8342 71.6238 40.8321 C 71.4494 40.83 71.1843 40.6664 71.1 40.819 C 70.8978 41.1844 70.9429 42.0631 70.9429 42.0631 "/>
    <path id="ID0.7001032647676766" fill="none" stroke="#646B70" stroke-width="0.523809552192688" stroke-linecap="round" d="M 70.5571 42.3071 C 70.5571 42.3071 70.6216 41.9392 70.6619 41.7571 C 70.6999 41.5859 70.8554 41.4104 70.7929 41.2464 C 70.7282 41.0767 70.5202 40.9882 70.3476 40.9321 C 70.1816 40.8785 69.9982 40.9342 69.8238 40.9321 C 69.6494 40.93 69.3843 40.7664 69.3 40.919 C 69.0978 41.2844 69.1429 42.1631 69.1429 42.1631 "/>
    <path id="ID0.7001032647676766" fill="none" stroke="#646B70" stroke-width="0.523809552192688" stroke-linecap="round" d="M 69.0571 42.4571 C 69.0571 42.4571 69.1216 42.0892 69.1619 41.9071 C 69.1999 41.7359 69.3554 41.5604 69.2929 41.3964 C 69.2282 41.2267 69.0202 41.1382 68.8476 41.0821 C 68.6816 41.0285 68.4982 41.0842 68.3238 41.0821 C 68.1494 41.08 67.8843 40.9164 67.8 41.069 C 67.5978 41.4344 67.6429 42.3131 67.6429 42.3131 "/>
    <path id="ID0.7001032647676766" fill="none" stroke="#646B70" stroke-width="0.5238095646525897" stroke-linecap="round" d="M 67.4092 42.5873 C 67.4092 42.5873 67.4347 42.2146 67.4558 42.0294 C 67.4756 41.8551 67.6119 41.6643 67.5325 41.5078 C 67.4504 41.3458 67.2343 41.2795 67.0568 41.2419 C 66.886 41.2059 66.7095 41.2806 66.5358 41.2968 C 66.3621 41.313 66.0814 41.178 66.0135 41.3387 C 65.8507 41.7232 65.9876 42.5923 65.9876 42.5923 "/>
    <path id="ID0.44800941413268447" fill="none" stroke="#2E3234" stroke-width="0.6130029273409839" stroke-linecap="round" d="M 68.902 33.7985 L 67.0944 32.497 L 63.7887 33.541 "/>
    <path id="ID0.44800941413268447" fill="none" stroke="#33383A" stroke-width="1.0503597259521484" stroke-linecap="round" d="M 67.4511 27.7698 L 69.0791 23.4633 L 73.4644 21.0212 L 80.0291 21.1525 "/>
    <g id="ID0.6897007944062352">
      <path id="ID0.2692581438459456" fill="#7AABFF" stroke="none" d="M 75.8257 24.3357 C 75.507 24.2448 75.182 24.2924 74.9137 24.4417 C 74.6453 24.591 74.4335 24.842 74.3427 25.1607 C 74.2518 25.4794 74.2994 25.8043 74.4486 26.0727 C 74.5979 26.3411 74.8489 26.5528 75.1676 26.6437 C 75.4864 26.7346 75.8113 26.687 76.0796 26.5377 C 76.348 26.3884 76.5598 26.1375 76.6507 25.8187 C 76.7415 25.5 76.694 25.1751 76.5447 24.9067 C 76.3954 24.6384 76.1444 24.4266 75.8257 24.3357 Z " stroke-width="1.1428571810382073"/>
      <path id="ID0.8070062398910522" fill="#192334" stroke="none" d="M 75.6326 25.003 C 75.5001 24.9652 75.3641 24.9842 75.2526 25.0471 C 75.1403 25.1087 75.0524 25.2142 75.0147 25.3467 C 74.9769 25.4792 74.9959 25.6152 75.0588 25.7267 C 75.1204 25.839 75.2259 25.9269 75.3584 25.9646 C 75.4909 26.0024 75.6269 25.9834 75.7384 25.9205 C 75.8507 25.8589 75.9385 25.7534 75.9763 25.6209 C 76.0141 25.4884 75.9951 25.3524 75.9322 25.2409 C 75.8706 25.1286 75.7651 25.0407 75.6326 25.003 Z " stroke-width="1.111111214644622"/>
    </g>
    <g id="ID0.5823970721103251">
      <path id="ID0.2692581438459456" fill="#7AABFF" stroke="none" d="M 59.5243 24.5357 C 59.843 24.4448 60.168 24.4924 60.4363 24.6417 C 60.7047 24.791 60.9165 25.042 61.0073 25.3607 C 61.0982 25.6794 61.0506 26.0043 60.9014 26.2727 C 60.7521 26.5411 60.5011 26.7528 60.1824 26.8437 C 59.8636 26.9346 59.5387 26.887 59.2704 26.7377 C 59.002 26.5884 58.7902 26.3375 58.6993 26.0187 C 58.6085 25.7 58.656 25.3751 58.8053 25.1067 C 58.9546 24.8384 59.2056 24.6266 59.5243 24.5357 Z " stroke-width="1.1428571810382073"/>
      <path id="ID0.8070062398910522" fill="#192334" stroke="none" d="M 59.8174 25.103 C 59.9499 25.0652 60.0859 25.0842 60.1974 25.1471 C 60.3097 25.2087 60.3976 25.3142 60.4353 25.4467 C 60.4731 25.5792 60.4541 25.7152 60.3912 25.8267 C 60.3296 25.939 60.2241 26.0269 60.0916 26.0646 C 59.9591 26.1024 59.8231 26.0834 59.7116 26.0205 C 59.5993 25.9589 59.5115 25.8534 59.4737 25.7209 C 59.4359 25.5884 59.4549 25.4524 59.5178 25.3409 C 59.5794 25.2286 59.6849 25.1407 59.8174 25.103 Z " stroke-width="1.111111214644622"/>
    </g>
    <path id="ID0.023752907756716013" fill="none" stroke="#584E44" stroke-width="1.1814345600728136" stroke-linecap="round" d="M 55.653 23.1863 L 58.9503 23.3651 L 61.3252 24.3565 "/>
    <path id="ID0.023752907756716013" fill="none" stroke="#584E44" stroke-width="1.1814345600728136" stroke-linecap="round" d="M 77.797 23.1863 L 74.4997 23.3651 L 72.1248 24.3565 "/>
  </g>
</svg>