<svg xmlns="http://www.w3.org/2000/svg" xmlns:xlink="http://www.w3.org/1999/xlink" version="1.1" width="365.3917064666748" height="377.7051830291748" viewBox="-0.8996496200561523 -0.2555495500564575 365.3917064666748 377.7051830291748">
  <defs>
    <linearGradient id="grad_1" y2="1" x2="0">
      <stop offset="0" stop-color="#FFFFFF" stop-opacity="1"/>
      <stop offset="1" stop-color="#D3D3D3" stop-opacity="1"/>
    </linearGradient>
  <linearGradient id="grad_1-,0,0,1,-1.5,0.05" y2="376.55" x2="0" x1="0" y1="1.55" gradientUnits="userSpaceOnUse">
      <stop offset="0" stop-color="#FFFFFF" stop-opacity="1"/>
      <stop offset="1" stop-color="#D3D3D3" stop-opacity="1"/>
    </linearGradient></defs>
  <!-- Exported by Scratch - http://scratch.mit.edu/ -->
  <path id="ID0.7409284724853933" fill="url(#grad_1-,0,0,1,-1.5,0.05)" d="M 362.5 70.35 C 362.5 51.35 354.8 34.15 342.4 21.75 C 329.9 9.25 312.7 1.55 293.8 1.55 C 274.9 1.55 257.6 9.25 245.2 21.65 C 240.9 25.95 237.2 30.75 234.2 36.05 L 233.6 35.55 L 0 376.55 L 328.3 129.65 C 333.4 126.65 338.1 123.05 342.3 118.85 C 354.8 106.45 362.5 89.25 362.5 70.35 Z " stroke-width="1"/>
  <g id="ID0.4646224989555776">
    <path id="ID0.8992251446470618" fill="#FFFFFF" d="M 232.1692 42.3879 C 232.3491 42.208 232.3491 42.208 232.709 42.028 C 232.8889 42.028 232.8889 41.8481 233.0688 41.8481 C 233.2487 41.8481 233.2487 41.6682 233.4287 41.6682 C 233.6086 41.4882 233.7885 41.4882 233.9685 41.3083 C 234.1484 41.1284 234.3283 41.1284 234.3283 41.1284 C 234.3283 41.1284 234.5083 40.9484 234.6882 40.9484 C 234.8681 40.9484 235.048 40.7685 235.228 40.5886 C 235.4079 40.4087 235.5878 40.4087 235.5878 40.4087 C 235.5878 40.4087 235.5878 40.4087 235.5878 40.4087 C 235.5878 40.4087 235.9477 40.2287 236.1276 40.0488 C 236.1276 40.0488 236.3076 39.8689 236.4875 39.8689 C 236.6674 39.8689 236.8473 39.6889 236.8473 39.6889 C 236.8473 39.6889 237.0273 39.509 237.2072 39.509 C 237.3871 39.3291 237.747 39.1491 237.9269 38.9692 C 238.1069 38.7893 238.2868 38.7893 238.4667 38.6094 C 238.6466 38.6094 238.6466 38.4294 238.6466 38.4294 C 238.6466 38.4294 238.8266 38.2495 239.0065 38.2495 C 239.1864 38.2495 239.1864 38.0696 239.3664 38.0696 C 239.3664 38.0696 239.5463 37.8896 239.5463 37.8896 C 239.5463 37.8896 239.7262 37.8896 239.7262 37.7097 C 239.9062 37.7097 240.0861 37.5298 240.266 37.3498 C 240.6259 37.1699 240.9857 36.99 240.9857 36.8101 C 240.9857 36.8101 241.1657 36.8101 241.3456 36.6301 C 241.3456 36.6301 241.5255 36.6301 241.5255 36.4502 C 241.7055 36.4502 241.7055 36.2703 241.7055 36.2703 C 241.7055 36.2703 241.7055 36.2703 241.8854 36.2703 C 241.8854 36.2703 242.0653 36.0903 242.0653 36.0903 C 242.2452 36.0903 242.785 35.7305 242.785 35.7305 C 242.785 35.7305 242.785 35.7305 242.965 35.7305 C 242.965 35.7305 243.1449 35.7305 243.1449 35.7305 C 243.1449 35.7305 243.1449 35.7305 243.3248 35.7305 C 243.5048 35.7305 243.5048 35.7305 243.6847 35.5505 C 243.8646 35.3706 244.0445 35.3706 244.2245 35.3706 C 244.2245 35.3706 244.4044 35.3706 244.4044 35.1907 C 244.4044 35.1907 244.5843 35.0108 244.5843 35.0108 C 244.5843 35.0108 244.7643 35.0108 244.9442 34.8308 C 245.1241 34.8308 245.1241 34.6509 245.1241 34.6509 C 245.1241 34.6509 245.6639 34.471 245.8438 34.291 C 245.8438 34.291 245.8438 34.291 245.8438 34.291 C 245.8438 34.291 246.0238 34.291 246.5636 34.1111 C 246.5636 34.1111 246.7435 34.1111 246.7435 33.9312 C 246.7435 33.9312 246.9234 33.9312 246.9234 33.9312 C 247.1034 33.9312 247.4632 33.7512 247.4632 33.7512 C 247.4632 33.7512 247.4632 33.7512 247.6431 33.7512 C 247.6431 33.7512 247.8231 33.7512 247.8231 33.5713 C 247.8231 33.5713 248.003 33.5713 248.003 33.5713 C 248.003 33.5713 248.1829 33.5713 248.1829 33.5713 C 248.1829 33.5713 248.3629 33.5713 248.3629 33.5713 C 248.3629 33.5713 248.5428 33.5713 248.5428 33.5713 C 248.7227 33.5713 249.2625 33.3914 249.6224 33.2115 C 249.6224 33.2115 249.8023 33.2115 249.8023 33.0315 C 249.9822 33.0315 249.9822 32.8516 250.3421 32.8516 C 250.3421 32.8516 250.522 32.8516 250.522 32.6717 C 250.522 32.6717 250.7019 32.6717 250.7019 32.6717 C 250.7019 32.6717 250.8819 32.6717 250.8819 32.6717 C 250.8819 32.6717 251.0618 32.4917 251.2417 32.4917 C 251.6016 32.4917 251.9615 32.3118 251.9615 32.3118 C 251.9615 32.3118 252.1414 32.3118 252.3213 32.1319 C 252.5012 32.1319 252.6812 32.1319 252.6812 31.9519 C 252.6812 31.9519 252.8611 31.9519 252.8611 31.9519 C 253.041 31.9519 253.4009 31.772 253.5808 31.772 C 253.5808 31.772 253.7608 31.772 253.7608 31.772 C 253.7608 31.772 253.9407 31.772 253.9407 31.772 C 253.9407 31.772 254.1206 31.772 254.3005 31.772 C 254.4805 31.772 254.4805 31.772 254.6604 31.5921 C 254.6604 31.5921 254.8403 31.5921 254.8403 31.5921 C 255.0203 31.5921 255.0203 31.5921 255.2002 31.5921 C 255.2002 31.5921 255.3801 31.5921 255.5601 31.5921 C 255.9199 31.5921 256.4597 31.5921 256.4597 31.4122 C 256.4597 31.4122 256.6396 31.4122 256.8196 31.4122 C 256.9995 31.4122 257.1794 31.4122 257.1794 31.4122 C 257.1794 31.4122 257.5393 31.4122 257.8991 31.4122 C 258.4389 31.4122 258.4389 31.4122 258.4389 31.4122 C 258.4389 31.4122 258.259 31.5921 258.259 31.5921 C 258.259 31.5921 258.0791 31.5921 258.0791 31.772 C 257.8991 31.772 257.7192 31.9519 257.5393 32.1319 C 257.3594 32.3118 257.1794 32.3118 257.1794 32.4917 C 257.1794 32.4917 256.9995 32.6717 256.9995 32.6717 C 256.9995 32.6717 256.9995 32.6717 256.8196 32.8516 C 256.8196 32.8516 256.6396 33.0315 256.6396 33.0315 C 256.6396 33.0315 256.4597 33.0315 256.4597 33.2115 C 256.0998 33.5713 255.74 33.9312 255.74 33.9312 C 255.74 33.9312 255.3801 34.291 255.2002 34.291 C 255.2002 34.291 255.0203 34.291 255.0203 34.471 C 255.0203 34.471 254.8403 34.6509 254.8403 34.6509 C 254.8403 34.6509 254.6604 34.8308 254.6604 34.8308 C 254.6604 34.8308 254.4805 35.0108 254.4805 35.0108 C 254.4805 35.0108 254.1206 35.1907 253.9407 35.3706 C 253.9407 35.3706 253.7608 35.5505 253.7608 35.5505 C 253.4009 35.9104 252.6812 36.6301 252.6812 36.6301 C 252.6812 36.6301 252.6812 36.8101 252.5012 36.8101 C 252.5012 36.8101 252.3213 36.99 252.3213 36.99 C 252.3213 36.99 252.3213 37.1699 252.1414 37.1699 C 252.1414 37.1699 252.1414 37.3498 251.9615 37.3498 C 251.9615 37.3498 251.7815 37.5298 251.7815 37.7097 C 251.6016 37.8896 251.4217 38.4294 251.4217 38.7893 C 251.2417 39.1491 251.2417 40.4087 251.4217 41.1284 C 251.4217 41.4882 251.4217 41.6682 251.6016 41.6682 C 251.6016 41.6682 251.6016 41.8481 251.6016 42.028 C 251.6016 42.3879 251.7815 43.1076 251.9615 43.1076 C 251.9615 43.1076 251.9615 43.2875 251.9615 43.2875 C 251.9615 43.2875 251.9615 43.4675 251.9615 43.4675 C 251.9615 43.4675 251.9615 43.6474 252.1414 43.6474 C 252.1414 43.6474 252.1414 43.8273 252.3213 43.8273 C 252.3213 43.8273 252.3213 44.0073 252.3213 44.0073 C 252.3213 44.1872 252.3213 44.3671 252.5012 44.727 C 252.5012 44.9069 252.6812 45.0868 252.6812 45.0868 C 252.6812 45.0868 252.6812 45.2668 252.6812 45.2668 C 252.6812 45.2668 252.8611 45.4467 252.8611 45.6266 C 253.221 46.3463 253.4009 46.7062 253.5808 46.7062 C 253.5808 46.7062 253.5808 46.7062 253.5808 46.8861 C 253.5808 46.8861 253.5808 47.0661 253.7608 47.0661 C 253.7608 47.0661 253.9407 47.246 253.9407 47.246 C 253.9407 47.246 253.9407 47.4259 253.9407 47.4259 C 253.9407 47.4259 254.1206 47.6059 254.1206 47.6059 C 254.1206 47.6059 254.3005 47.7858 254.3005 47.7858 C 254.3005 47.7858 254.4805 48.1456 254.6604 48.3256 C 255.3801 49.0453 256.8196 50.4847 256.9995 50.4847 C 256.9995 50.4847 257.1794 50.4847 257.1794 50.6647 C 257.3594 50.8446 257.5393 51.0245 257.7192 51.0245 C 257.7192 51.0245 257.8991 51.0245 257.8991 51.2045 C 257.8991 51.2045 258.0791 51.3844 258.0791 51.3844 C 258.0791 51.3844 258.259 51.3844 258.259 51.5643 C 258.259 51.5643 258.6189 51.7442 258.6189 51.7442 C 258.6189 51.7442 258.6189 51.7442 258.7988 51.7442 C 258.7988 51.7442 258.9787 51.9242 258.9787 51.9242 C 258.9787 51.9242 259.1587 52.1041 259.1587 52.1041 C 259.1587 52.1041 259.5185 52.284 259.5185 52.284 C 259.5185 52.284 259.6984 52.284 259.6984 52.284 C 259.6984 52.284 260.0583 52.6439 260.2382 52.6439 C 260.2382 52.6439 260.4182 52.6439 260.4182 52.6439 C 260.5981 52.6439 260.778 52.8238 260.778 52.8238 C 260.778 52.8238 260.958 52.8238 260.958 53.0037 C 260.958 53.0037 261.1379 53.1837 261.1379 53.1837 C 261.1379 53.1837 261.3178 53.1837 261.4977 53.3636 C 261.6777 53.3636 261.6777 53.3636 261.6777 53.3636 C 261.6777 53.3636 261.8576 53.3636 262.0375 53.5435 C 262.2175 53.5435 262.3974 53.7235 262.5773 53.7235 C 262.7573 53.7235 262.7573 53.7235 262.9372 53.9034 C 262.9372 53.9034 263.1171 53.9034 263.1171 53.9034 C 263.1171 53.9034 263.297 53.9034 263.297 53.9034 C 263.477 54.0833 263.8368 54.0833 263.8368 54.0833 C 263.8368 54.0833 264.0168 54.0833 264.0168 54.0833 C 264.0168 54.0833 264.3766 54.2633 264.5566 54.2633 C 264.5566 54.2633 264.7365 54.2633 264.7365 54.2633 C 264.9164 54.4432 265.996 54.803 266.1759 54.803 C 266.1759 54.803 266.3559 54.803 266.3559 54.803 C 266.7157 54.983 267.6154 55.1629 267.9752 55.1629 C 267.9752 55.1629 268.1552 55.1629 268.3351 55.3428 C 268.515 55.3428 268.6949 55.5228 268.8749 55.5228 C 268.8749 55.5228 268.8749 55.5228 269.0548 55.5228 C 269.0548 55.5228 269.2347 55.5228 269.2347 55.5228 C 269.2347 55.5228 269.4147 55.5228 269.4147 55.5228 C 269.4147 55.5228 269.7745 55.7027 270.1344 55.7027 C 270.6742 55.7027 270.8541 55.8826 270.8541 55.8826 C 270.8541 55.8826 271.3939 56.0626 271.5738 56.0626 C 271.5738 56.0626 271.7537 56.0626 271.7537 56.0626 C 272.1136 56.0626 272.8333 56.2425 273.3731 56.2425 C 273.553 56.2425 273.9129 56.2425 273.9129 56.2425 C 273.9129 56.2425 274.2728 56.2425 274.6326 56.2425 C 274.8126 56.2425 275.1724 56.2425 275.3523 56.2425 C 275.5323 56.2425 275.7122 56.2425 275.8921 56.2425 C 276.0721 56.2425 276.0721 56.2425 276.252 56.2425 C 276.252 56.2425 276.4319 56.2425 276.6119 56.2425 C 276.7918 56.2425 277.1516 56.2425 277.3316 56.2425 C 277.5115 56.2425 277.8714 56.2425 277.8714 56.2425 C 278.0513 56.2425 278.2312 56.2425 278.4112 56.2425 C 278.5911 56.2425 278.9509 56.2425 279.1309 56.2425 C 279.3108 56.2425 279.8506 56.2425 280.2105 56.2425 C 280.5703 56.2425 281.8298 56.2425 282.7295 56.2425 L 284.5288 56.2425 L 284.5288 56.2425 C 284.5288 56.2425 284.5288 56.0626 284.5288 56.0626 C 284.5288 56.0626 284.5288 55.8826 284.5288 55.8826 C 284.5288 55.8826 284.5288 55.7027 284.5288 55.7027 C 284.5288 55.7027 284.5288 55.5228 284.5288 55.5228 C 284.5288 55.5228 284.5288 55.3428 284.5288 55.3428 C 284.5288 55.1629 284.7087 54.803 284.7087 54.803 C 284.7087 54.803 284.7087 54.6231 284.8886 54.4432 C 284.8886 54.2633 284.8886 54.0833 285.0686 54.0833 C 285.2485 54.0833 285.0686 53.9034 285.2485 53.7235 C 285.2485 53.7235 285.2485 53.3636 285.4284 53.1837 C 285.6084 52.464 285.6084 52.284 285.6084 52.284 C 285.6084 52.1041 285.6084 52.1041 285.6084 52.1041 C 285.6084 52.1041 285.6084 51.9242 285.6084 51.9242 C 285.6084 51.9242 285.6084 51.7442 285.6084 51.7442 C 285.6084 51.5643 285.6084 51.3844 285.6084 51.3844 C 285.6084 51.3844 285.6084 51.0245 285.6084 51.0245 C 285.6084 51.0245 285.6084 50.8446 285.6084 50.6647 C 285.6084 50.4847 285.6084 50.3048 285.6084 50.3048 C 285.6084 50.3048 285.6084 50.1249 285.6084 50.1249 C 285.6084 49.9449 285.6084 49.765 285.7883 49.5851 C 285.7883 49.4052 285.7883 49.0453 285.9682 48.8654 C 285.9682 48.6854 285.9682 48.5055 285.9682 48.5055 C 285.9682 48.5055 285.9682 48.3256 285.9682 47.9657 C 285.9682 47.7858 285.9682 47.4259 285.9682 47.246 C 285.9682 47.0661 285.9682 46.8861 285.9682 46.8861 C 285.9682 46.7062 285.9682 46.5263 285.9682 46.3463 C 285.9682 46.1664 285.9682 45.9865 285.9682 45.9865 C 285.9682 45.8066 285.9682 45.4467 286.1481 45.0868 C 286.1481 44.9069 286.1481 44.547 286.1481 44.3671 C 286.1481 44.1872 286.1481 43.8273 286.1481 43.6474 C 286.1481 43.4675 286.1481 43.1076 286.1481 43.1076 C 286.1481 42.9277 286.3281 42.3879 286.3281 42.028 C 286.3281 41.8481 286.3281 41.8481 286.3281 41.8481 C 286.3281 41.8481 286.3281 41.6682 286.3281 41.6682 C 286.3281 41.3083 286.3281 41.1284 286.508 40.9484 C 286.508 40.9484 286.508 40.7685 286.508 40.5886 C 286.508 40.2287 286.508 40.0488 286.6879 39.8689 C 286.6879 39.8689 286.6879 39.6889 286.6879 39.6889 C 286.6879 39.6889 286.6879 39.509 286.6879 39.509 C 286.6879 39.509 286.6879 39.3291 286.6879 39.1491 C 286.6879 38.7893 286.8679 38.7893 286.8679 38.7893 C 286.8679 38.7893 287.4077 39.6889 287.5876 40.0488 C 287.5876 40.0488 287.9474 40.9484 288.1274 41.1284 C 288.3073 41.4882 288.4872 41.8481 288.6672 42.208 C 288.6672 42.3879 288.8471 42.5678 288.8471 42.5678 C 288.8471 42.5678 289.027 42.7477 289.027 42.9277 C 289.027 43.1076 289.207 43.2875 289.207 43.2875 C 289.207 43.2875 289.207 43.4675 289.207 43.4675 C 289.207 43.4675 289.3869 43.6474 289.3869 43.8273 C 289.5668 44.1872 289.5668 44.3671 289.5668 44.547 C 289.5668 44.547 289.5668 44.547 289.5668 44.727 C 289.5668 44.727 289.5668 44.9069 289.5668 44.9069 C 289.5668 44.9069 289.5668 45.0868 289.7467 45.0868 C 289.7467 45.2668 289.9267 45.2668 289.9267 45.2668 C 289.9267 45.2668 289.9267 45.4467 289.9267 45.4467 C 289.9267 45.4467 289.9267 45.6266 290.1066 45.8066 C 290.1066 45.8066 290.2865 46.1664 290.2865 46.1664 C 290.2865 46.3463 290.4665 46.5263 290.4665 46.5263 C 290.4665 46.5263 290.4665 46.7062 290.4665 46.7062 C 290.4665 46.7062 290.4665 46.8861 290.4665 46.8861 C 290.4665 46.8861 290.4665 47.0661 290.4665 47.0661 C 290.4665 47.0661 290.4665 47.246 290.4665 47.246 C 290.4665 47.246 290.4665 47.4259 290.4665 47.4259 C 290.4665 47.6059 290.6464 47.7858 290.8263 48.3256 C 291.0063 48.6854 291.0063 48.8654 291.1862 48.8654 C 291.1862 48.8654 291.1862 48.8654 291.3661 48.8654 C 291.3661 48.8654 291.546 48.8654 291.9059 48.8654 C 292.2658 48.8654 292.4457 48.8654 292.6256 48.8654 C 292.9855 48.8654 294.245 48.8654 295.5045 48.8654 C 295.8644 48.8654 296.0443 48.8654 296.0443 48.8654 C 296.2242 48.8654 296.5841 48.8654 296.5841 48.8654 C 296.5841 48.8654 296.764 48.8654 296.764 48.6854 C 296.764 48.6854 296.764 48.5055 296.9439 48.5055 C 296.9439 48.5055 296.9439 48.3256 296.9439 48.3256 C 296.9439 48.3256 296.9439 48.1456 296.9439 48.1456 C 296.9439 48.1456 296.9439 47.9657 297.1239 47.9657 C 297.1239 47.9657 297.1239 47.7858 297.3038 47.6059 C 297.4837 47.246 297.4837 47.246 297.4837 47.0661 C 297.4837 47.0661 297.4837 46.8861 297.6637 46.8861 C 297.6637 46.8861 297.6637 46.7062 297.6637 46.7062 C 297.6637 46.7062 297.6637 46.5263 297.8436 46.5263 C 297.8436 46.3463 298.0235 46.1664 298.0235 46.1664 C 298.0235 45.9865 298.2034 45.8066 298.2034 45.8066 C 298.3834 45.6266 298.5633 45.0868 298.3834 44.9069 C 298.3834 44.9069 298.3834 44.9069 298.3834 44.9069 C 298.3834 44.9069 298.5633 44.3671 298.5633 44.3671 C 298.5633 44.3671 298.5633 44.1872 298.5633 44.1872 C 298.5633 44.1872 298.5633 44.0073 298.5633 44.0073 C 298.5633 44.0073 298.5633 43.8273 298.5633 43.8273 C 298.5633 43.8273 298.5633 43.6474 298.7432 43.6474 C 298.7432 43.6474 298.7432 43.4675 298.7432 43.4675 C 298.7432 43.4675 298.7432 43.2875 298.7432 43.2875 C 298.7432 43.1076 298.9232 42.7477 298.9232 42.5678 C 298.9232 42.5678 298.9232 42.3879 299.1031 42.3879 C 299.283 42.3879 299.1031 42.208 299.283 42.208 C 299.283 42.208 299.283 42.208 299.283 42.028 C 299.283 42.028 299.283 41.8481 299.283 41.8481 C 299.283 41.6682 299.283 41.6682 299.283 41.6682 C 299.283 41.6682 299.283 41.4882 299.283 41.4882 C 299.283 41.4882 299.283 41.3083 299.463 41.3083 C 299.463 41.1284 299.463 41.1284 299.6429 40.9484 C 299.6429 40.9484 299.8228 40.7685 299.8228 40.5886 C 299.8228 40.4087 299.8228 40.4087 299.8228 40.4087 C 299.8228 40.4087 299.8228 40.4087 299.8228 40.2287 C 299.8228 40.2287 299.8228 40.0488 299.8228 40.0488 C 299.8228 40.0488 299.8228 39.8689 300.0027 39.8689 C 300.0027 39.8689 300.0027 39.6889 300.0027 39.6889 C 300.0027 39.6889 300.0027 39.509 300.0027 39.509 C 300.0027 39.509 300.0027 39.509 300.0027 39.3291 C 300.0027 39.3291 300.1827 39.1491 300.1827 39.1491 C 300.1827 39.1491 300.3626 39.3291 300.3626 39.509 C 300.3626 39.6889 300.3626 40.0488 300.3626 40.0488 C 300.3626 40.0488 300.3626 40.4087 300.5425 40.7685 C 300.5425 40.9484 300.5425 41.1284 300.5425 41.1284 C 300.5425 41.1284 300.5425 41.3083 300.5425 41.3083 C 300.5425 41.3083 300.5425 41.4882 300.5425 41.4882 C 300.5425 41.4882 300.5425 41.6682 300.5425 41.6682 C 300.5425 41.6682 300.5425 41.8481 300.5425 41.8481 C 300.5425 41.8481 300.5425 42.028 300.5425 42.208 C 300.5425 42.3879 300.5425 42.3879 300.5425 42.5678 C 300.5425 42.7477 300.5425 42.9277 300.7225 43.1076 C 300.7225 43.2875 300.7225 43.4675 300.7225 43.6474 C 300.7225 43.6474 300.7225 44.0073 300.9024 44.3671 C 300.9024 44.727 300.9024 45.0868 300.9024 45.2668 C 300.9024 45.4467 300.9024 45.6266 300.9024 45.8066 C 300.9024 45.9865 300.9024 46.1664 300.9024 46.3463 C 300.9024 46.5263 300.9024 46.7062 300.9024 46.8861 C 300.9024 47.0661 300.9024 47.246 300.9024 47.246 C 300.9024 47.4259 300.9024 47.4259 300.9024 47.6059 C 300.9024 47.6059 300.9024 47.7858 300.9024 47.9657 C 300.9024 48.1456 300.9024 48.3256 300.9024 48.5055 C 300.9024 48.6854 301.0823 49.2252 301.0823 49.9449 C 301.0823 50.1249 301.0823 50.3048 301.0823 50.3048 C 301.0823 50.4847 301.0823 50.4847 301.0823 50.4847 C 301.0823 50.4847 301.0823 50.6647 301.0823 50.6647 C 301.0823 51.0245 301.2623 51.3844 301.2623 51.3844 C 301.2623 51.3844 301.2623 51.5643 301.2623 51.7442 C 301.2623 52.1041 301.4422 52.464 301.4422 52.6439 C 301.4422 52.6439 301.4422 52.8238 301.4422 53.0037 C 301.4422 53.1837 301.4422 53.3636 301.6221 53.7235 C 301.6221 53.9034 301.6221 53.9034 301.6221 54.0833 C 301.6221 54.2633 301.6221 54.2633 301.6221 54.4432 C 301.6221 54.4432 301.6221 54.6231 301.6221 54.6231 C 301.6221 54.6231 301.6221 54.803 301.6221 54.803 C 301.6221 54.983 301.6221 54.983 301.802 55.1629 C 301.802 55.3428 301.802 55.3428 301.802 55.5228 C 301.802 55.8826 301.982 56.2425 301.982 56.4224 C 301.982 56.6023 301.982 56.6023 302.1619 56.7823 C 302.1619 56.9622 302.3418 56.9622 302.3418 57.1421 C 302.3418 57.3221 302.3418 57.3221 302.3418 57.3221 C 302.3418 57.3221 302.3418 57.502 302.3418 57.502 C 302.3418 57.502 302.3418 57.6819 302.5218 57.8619 C 302.5218 58.0418 302.7017 58.2217 302.8816 58.2217 C 302.8816 58.2217 303.0616 58.2217 303.0616 58.2217 C 303.2415 58.2217 304.8609 58.2217 305.5806 58.2217 C 306.4802 58.2217 308.2795 58.2217 308.2795 58.2217 C 308.2795 58.2217 308.4595 58.2217 308.4595 58.2217 C 308.4595 58.2217 308.6394 58.2217 308.6394 58.2217 C 308.6394 58.2217 308.9992 58.2217 309.1792 58.2217 C 310.2588 58.2217 310.6186 58.2217 310.6186 58.2217 C 310.6186 58.2217 310.7985 58.2217 310.9785 58.2217 C 311.1584 58.2217 311.3383 58.2217 311.5183 58.2217 C 311.5183 58.2217 311.6982 58.2217 311.6982 58.2217 C 311.6982 58.2217 311.8781 58.2217 312.0581 58.2217 C 312.238 58.2217 312.5978 58.2217 312.9577 58.0418 C 313.3176 58.0418 313.4975 58.0418 313.6774 57.8619 C 313.6774 57.8619 313.8574 57.8619 313.8574 57.8619 C 313.8574 57.8619 314.0373 57.8619 314.2172 57.8619 C 314.3971 57.8619 314.3971 57.8619 314.5771 57.8619 C 314.757 57.8619 314.757 57.8619 314.9369 57.8619 C 315.1169 57.8619 315.2968 57.8619 315.4767 57.6819 C 315.6567 57.6819 316.0165 57.502 316.1964 57.502 C 316.3764 57.502 316.5563 57.502 316.5563 57.502 C 316.7362 57.502 317.0961 57.502 317.0961 57.3221 C 317.0961 57.3221 317.276 57.3221 317.456 57.3221 C 317.6359 57.3221 317.8158 57.3221 318.1757 57.1421 C 318.1757 57.1421 318.3556 57.1421 318.5355 57.1421 C 318.5355 57.1421 318.7155 57.1421 318.8954 57.1421 C 319.6151 56.9622 319.795 56.9622 319.795 56.9622 C 319.795 56.9622 319.975 56.9622 319.975 56.9622 C 320.1549 56.9622 320.1549 56.9622 320.3348 56.7823 C 320.3348 56.7823 320.5148 56.7823 320.5148 56.7823 C 320.5148 56.7823 320.6947 56.7823 320.6947 56.7823 C 320.6947 56.7823 320.8746 56.6023 321.0545 56.6023 C 321.2345 56.6023 321.4144 56.4224 321.4144 56.4224 C 321.4144 56.4224 321.5943 56.2425 321.5943 56.2425 C 321.7743 56.2425 322.8538 55.8826 323.2137 55.7027 C 323.3936 55.7027 323.3936 55.5228 323.5736 55.5228 C 323.7535 55.5228 324.1134 55.3428 324.6531 54.983 C 324.8331 54.803 325.1929 54.803 325.1929 54.803 C 325.1929 54.803 325.9127 54.4432 326.0926 54.4432 C 326.0926 54.4432 326.2725 54.4432 326.2725 54.4432 C 326.2725 54.4432 326.4524 54.4432 326.4524 54.4432 C 326.4524 54.4432 326.6324 54.4432 326.6324 54.2633 C 326.8123 54.2633 326.9922 54.0833 327.3521 53.9034 C 327.3521 53.9034 327.532 53.7235 327.532 53.7235 C 327.532 53.7235 327.712 53.5435 327.712 53.5435 C 327.712 53.5435 327.8919 53.5435 328.0718 53.3636 C 328.2517 53.1837 328.4317 53.1837 328.4317 53.1837 C 328.4317 53.1837 328.6116 53.0037 328.6116 53.0037 C 328.6116 53.0037 328.7915 52.8238 328.7915 52.8238 C 328.9715 52.8238 329.1514 52.6439 329.3313 52.6439 C 329.3313 52.6439 329.5113 52.464 329.5113 52.464 C 329.5113 52.464 330.231 51.9242 330.4109 51.7442 C 330.4109 51.7442 330.5908 51.5643 330.5908 51.5643 C 330.7708 51.3844 331.6704 50.6647 332.0303 50.3048 C 332.0303 50.3048 332.2102 50.1249 332.3901 49.9449 C 332.75 49.5851 333.1099 49.2252 333.1099 49.2252 C 333.1099 49.2252 333.1099 49.0453 333.2898 49.0453 C 333.4697 48.8654 333.6496 48.6854 333.6496 48.6854 C 333.6496 48.6854 333.6496 48.5055 333.8296 48.5055 C 333.8296 48.5055 334.0095 48.3256 334.0095 48.3256 C 334.0095 48.3256 334.0095 48.3256 334.0095 48.3256 C 334.0095 48.3256 334.1894 48.3256 334.1894 48.1456 C 334.1894 48.1456 334.3694 47.9657 334.3694 47.9657 C 334.5493 47.7858 334.7292 47.4259 334.7292 47.246 C 334.7292 47.246 334.7292 47.0661 334.9092 47.0661 C 334.9092 47.0661 334.9092 46.8861 334.9092 46.8861 C 334.9092 46.8861 334.9092 46.7062 334.9092 46.7062 C 335.0891 46.5263 335.0891 46.1664 335.269 45.9865 C 335.269 45.8066 335.4489 45.8066 335.4489 45.6266 C 335.4489 45.6266 335.6289 45.4467 335.6289 45.2668 C 335.6289 45.0868 335.6289 44.9069 335.8088 44.9069 C 335.9887 44.3671 335.9887 44.1872 335.9887 43.4675 C 335.9887 42.7477 335.9887 42.208 335.9887 42.028 C 335.9887 42.028 335.9887 41.8481 335.9887 41.8481 C 335.9887 41.6682 335.9887 41.6682 335.9887 41.6682 C 335.9887 41.6682 335.9887 41.4882 335.9887 41.3083 C 335.9887 40.9484 335.8088 40.5886 335.8088 40.4087 C 335.8088 40.4087 335.8088 40.2287 335.8088 40.2287 C 335.8088 40.2287 335.8088 40.0488 335.8088 40.0488 C 335.8088 40.0488 335.6289 39.8689 335.6289 39.6889 C 335.4489 39.3291 335.269 38.7893 335.0891 38.6094 C 335.0891 38.6094 334.9092 38.4294 334.9092 38.4294 C 334.7292 38.2495 334.7292 38.2495 334.3694 37.5298 C 334.1894 37.3498 334.0095 36.99 333.8296 36.8101 C 333.6496 36.6301 333.6496 36.4502 333.4697 36.4502 C 333.2898 36.4502 333.2898 36.2703 333.2898 36.2703 C 333.2898 36.2703 333.1099 36.0903 333.1099 36.0903 C 333.1099 36.0903 332.9299 35.9104 332.9299 35.7305 C 332.75 35.5505 332.75 35.5505 332.75 35.3706 C 332.75 35.3706 332.5701 35.1907 332.5701 35.1907 C 332.5701 35.1907 332.3901 35.0108 332.3901 35.0108 C 332.3901 35.0108 332.2102 34.8308 332.2102 34.8308 C 332.2102 34.8308 332.0303 34.6509 332.0303 34.6509 C 332.0303 34.471 331.6704 34.1111 331.6704 34.1111 C 331.6704 34.1111 331.6704 34.1111 331.4905 33.9312 C 331.3106 33.7512 331.3106 33.5713 331.1306 33.5713 C 331.1306 33.5713 330.9507 33.3914 330.9507 33.3914 C 330.7708 33.2115 330.5908 32.8516 330.5908 32.8516 C 330.4109 32.8516 330.4109 32.6717 330.4109 32.6717 C 330.4109 32.6717 330.4109 32.6717 330.7708 32.6717 C 330.9507 32.6717 331.1306 32.6717 331.1306 32.6717 C 331.3106 32.6717 331.3106 32.6717 331.4905 32.6717 C 331.6704 32.6717 331.6704 32.6717 332.0303 32.8516 C 332.3901 32.8516 332.5701 33.0315 332.75 33.0315 C 332.9299 33.0315 332.9299 33.0315 333.1099 33.0315 C 333.1099 33.0315 333.2898 33.0315 333.4697 33.0315 C 333.4697 33.0315 333.6496 33.0315 333.8296 33.2115 C 334.0095 33.2115 334.0095 33.2115 334.1894 33.2115 C 334.3694 33.2115 334.3694 33.2115 334.3694 33.2115 C 334.3694 33.2115 334.5493 33.2115 334.7292 33.3914 C 334.9092 33.3914 335.0891 33.5713 335.269 33.5713 C 335.4489 33.5713 335.4489 33.5713 335.6289 33.7512 C 335.6289 33.7512 335.8088 33.7512 335.9887 33.9312 C 336.1687 33.9312 336.3486 33.9312 336.3486 33.9312 C 336.3486 33.9312 336.5285 33.9312 336.5285 33.9312 C 336.5285 33.9312 336.7085 33.9312 336.7085 33.9312 C 336.7085 33.9312 336.8884 34.1111 337.0683 34.1111 C 337.2482 34.1111 337.2482 34.1111 337.4282 34.291 C 337.4282 34.291 337.6081 34.291 337.6081 34.291 C 337.788 34.291 337.968 34.291 338.3278 34.471 C 338.3278 34.471 338.5078 34.6509 338.8676 34.6509 C 339.0475 34.6509 339.2275 34.8308 339.4074 34.8308 C 339.4074 34.8308 339.5873 34.8308 339.7673 34.8308 C 339.7673 34.8308 339.9472 34.8308 339.9472 34.8308 C 339.9472 34.8308 340.1271 34.8308 340.1271 35.0108 C 340.3071 35.0108 340.487 35.1907 340.487 35.1907 C 340.6669 35.1907 340.8468 35.3706 340.8468 35.3706 C 341.0268 35.3706 341.2067 35.5505 341.3866 35.5505 C 341.5666 35.5505 341.7465 35.7305 341.7465 35.7305 C 341.7465 35.7305 341.9264 35.7305 341.9264 35.7305 C 341.9264 35.7305 342.1064 35.7305 342.1064 35.7305 C 342.1064 35.7305 342.2863 35.7305 342.2863 35.9104 C 342.2863 35.9104 342.4662 35.9104 342.4662 35.9104 C 342.4662 35.9104 342.6461 35.9104 342.6461 36.0903 C 342.6461 36.0903 342.8261 36.2703 342.8261 36.2703 C 342.8261 36.2703 343.006 36.2703 343.006 36.2703 C 343.1859 36.2703 343.3659 36.4502 343.5458 36.4502 C 343.5458 36.4502 343.7257 36.4502 343.9056 36.6301 C 344.0856 36.6301 344.2655 36.8101 344.2655 36.8101 C 344.2655 36.8101 344.4454 36.99 344.8053 36.99 C 345.1652 37.1699 345.3451 37.1699 345.3451 37.1699 C 345.3451 37.1699 345.525 37.1699 345.525 37.3498 C 345.525 37.3498 345.7049 37.3498 345.7049 37.3498 C 345.7049 37.3498 345.7049 37.3498 345.8849 37.3498 C 345.8849 37.3498 346.0648 37.5298 346.2447 37.5298 C 346.6046 37.7097 346.9645 37.8896 347.3243 38.0696 C 347.5042 38.0696 347.6842 38.2495 347.6842 38.2495 C 347.6842 38.2495 347.8641 38.2495 347.8641 38.4294 C 347.8641 38.4294 348.224 38.6094 348.4039 38.7893 C 348.5838 38.9692 348.9437 39.1491 349.1236 39.1491 C 349.3035 39.1491 349.4835 39.3291 349.4835 39.3291 C 349.4835 39.3291 349.6634 39.3291 349.6634 39.509 C 349.8433 39.509 350.2032 39.6889 350.3831 39.8689 C 350.3831 39.8689 350.5631 39.8689 350.5631 39.8689 C 350.5631 39.8689 350.743 40.0488 350.9229 40.0488 C 351.8226 40.5886 352.0025 40.7685 352.0025 40.7685 C 352.3624 40.9484 352.5423 41.1284 352.7222 41.1284 C 352.7222 41.1284 352.9021 41.1284 352.9021 41.3083 C 352.9021 41.3083 353.0821 41.4882 353.0821 41.4882 C 353.0821 41.4882 353.262 41.6682 353.4419 41.6682 C 353.6219 41.8481 353.8018 41.8481 353.8018 41.8481 C 353.8018 41.8481 353.9817 41.8481 353.9817 42.028 C 354.1617 42.028 354.1617 42.208 354.1617 42.208 C 354.3416 42.208 354.3416 42.208 354.3416 42.3879 C 354.3416 42.3879 354.7014 42.7477 354.8814 42.7477 C 354.8814 42.7477 355.0613 42.7477 355.0613 42.9277 C 355.0613 42.9277 355.2412 43.1076 355.2412 43.1076 C 355.2412 43.1076 355.4212 43.2875 355.6011 43.2875 C 355.961 43.4675 356.3208 43.8273 356.5007 44.0073 C 356.5007 44.0073 356.6807 44.0073 356.6807 44.1872 C 356.6807 44.1872 356.8606 44.3671 356.8606 44.3671 C 356.8606 44.3671 357.0405 44.547 357.0405 44.547 C 357.0405 44.547 357.2205 44.727 357.2205 44.727 C 357.2205 44.727 357.2205 44.727 357.4004 44.727 C 353.9817 35.7305 348.5838 27.4537 341.7465 20.7963 C 329.3313 8.3811 312.0581 0.6441 292.9855 0.6441 C 273.9129 0.6441 260.0583 6.4019 247.4632 18.8171 C 240.8058 25.4745 235.4079 33.5713 231.9892 42.5678 C 232.1692 42.3879 232.1692 42.3879 232.1692 42.3879 Z " stroke-width="1.7992992401123047"/>
    <path id="ID0.2152900560759008" fill="#FFFFFF" d="M 363.4575 69.5573 C 363.2775 69.5573 363.0976 69.5573 360.9384 69.5573 C 359.3191 69.5573 358.5993 69.5573 358.4194 69.5573 C 358.2395 69.5573 358.0596 69.5573 357.6997 69.5573 C 357.3398 69.5573 356.98 69.5573 356.8 69.5573 C 356.6201 69.5573 356.2603 69.5573 356.0803 69.5573 C 355.9004 69.5573 355.5405 69.5573 355.5405 69.5573 C 355.5405 69.5573 355.3606 69.5573 355.0007 69.5573 C 354.8208 69.5573 354.461 69.5573 354.461 69.5573 C 354.461 69.5573 354.281 69.5573 354.1011 69.5573 C 353.9212 69.5573 353.7412 69.5573 353.7412 69.5573 C 353.7412 69.5573 353.5613 69.5573 353.3814 69.5573 C 353.2014 69.5573 353.2014 69.5573 352.8416 69.7372 C 352.6617 69.7372 352.4817 69.7372 352.3018 69.7372 C 351.9419 69.7372 351.762 69.7372 351.5821 69.9172 C 351.5821 69.9172 351.4021 69.9172 351.2222 69.9172 C 350.8624 69.9172 350.5025 70.0971 350.3226 70.0971 C 350.1426 70.0971 350.1426 70.0971 350.1426 70.0971 C 349.9627 70.0971 349.243 70.277 349.243 70.277 C 349.243 70.277 349.0631 70.277 349.0631 70.277 C 349.0631 70.277 348.8831 70.277 348.8831 70.277 C 348.8831 70.277 348.7032 70.277 348.7032 70.277 C 348.7032 70.277 348.5233 70.277 348.5233 70.277 C 348.5233 70.277 348.3433 70.457 348.1634 70.457 C 347.9835 70.457 347.9835 70.457 347.8035 70.457 C 347.6236 70.457 347.4437 70.6369 347.2638 70.6369 C 347.0838 70.6369 347.0838 70.6369 346.9039 70.8168 C 346.9039 70.8168 346.724 70.8168 346.544 70.9967 C 346.3641 70.9967 346.1842 71.1767 346.0042 71.1767 C 346.0042 71.1767 345.8243 71.1767 345.8243 71.1767 C 345.8243 71.1767 345.8243 71.1767 345.6444 71.1767 C 345.6444 71.1767 345.4645 71.1767 345.4645 71.1767 C 345.4645 71.1767 345.2845 71.1767 345.2845 71.1767 C 345.2845 71.1767 345.1046 71.1767 345.1046 71.3566 C 345.1046 71.3566 344.9247 71.3566 344.7447 71.5365 C 344.5648 71.7165 344.5648 71.5365 344.5648 71.5365 C 344.5648 71.5365 344.5648 71.5365 344.3849 71.5365 C 344.3849 71.5365 344.2049 71.7165 344.025 71.7165 C 343.8451 71.7165 343.8451 71.8964 343.8451 71.8964 C 343.8451 71.8964 343.8451 71.8964 343.6652 71.8964 C 343.6652 71.8964 343.4852 72.0763 342.9454 72.2563 C 342.7655 72.2563 342.7655 72.4362 342.5856 72.4362 C 342.5856 72.4362 342.5856 72.4362 342.5856 72.4362 C 342.5856 72.4362 342.4056 72.6161 342.4056 72.6161 C 342.2257 72.6161 342.2257 72.796 342.0458 72.796 C 342.0458 72.796 341.8659 72.976 341.8659 72.976 C 341.8659 72.976 341.6859 73.1559 341.6859 73.1559 C 341.6859 73.1559 341.506 73.3358 341.3261 73.3358 C 341.1461 73.3358 341.1461 73.5158 341.1461 73.5158 C 341.1461 73.5158 341.1461 73.5158 340.9662 73.6957 C 340.9662 73.6957 340.7863 73.8756 340.7863 73.8756 C 340.7863 73.8756 340.6064 74.0556 340.6064 74.0556 C 340.6064 74.0556 340.4264 74.2355 340.4264 74.2355 C 340.4264 74.2355 340.4264 74.2355 340.2465 74.2355 C 340.0666 74.2355 339.8866 74.4154 339.8866 74.4154 C 339.8866 74.4154 339.8866 74.5953 339.7067 74.5953 C 339.5268 74.7753 339.3468 74.9552 339.3468 74.9552 C 339.3468 74.9552 339.3468 75.1351 339.1669 75.1351 C 338.987 75.3151 338.987 75.3151 338.8071 75.495 C 338.8071 75.6749 338.6271 75.6749 338.6271 75.8549 C 338.6271 76.0348 338.4472 76.0348 338.4472 76.2147 C 338.4472 76.2147 338.4472 76.3946 338.4472 76.3946 C 338.2673 76.3946 338.0873 76.9344 337.9074 77.4742 C 337.7275 78.014 337.5475 78.3739 337.5475 78.5538 C 337.5475 78.5538 337.5475 78.7337 337.5475 78.7337 C 337.5475 78.7337 337.3676 79.2735 337.3676 79.6334 C 337.3676 79.8133 337.3676 80.1732 337.3676 80.713 C 337.3676 81.6126 337.3676 81.9725 337.7275 83.7718 C 337.7275 84.1316 337.9074 84.4915 337.9074 84.4915 C 337.9074 84.6714 337.9074 84.6714 337.9074 84.8513 C 337.9074 85.0313 337.9074 85.2112 337.7275 85.0313 C 337.7275 85.0313 336.6479 84.3116 336.288 84.1316 C 336.1081 83.9517 336.1081 83.9517 335.5683 83.5918 C 335.2085 83.232 334.8486 83.052 334.4887 82.8721 C 334.3088 82.8721 334.3088 82.6922 334.3088 82.6922 C 334.1289 82.6922 333.9489 82.5123 333.9489 82.5123 C 333.9489 82.5123 333.769 82.5123 333.769 82.3323 C 333.5891 82.1524 333.0493 81.9725 332.6894 81.7925 C 332.5095 81.7925 332.3296 81.6126 332.1496 81.6126 C 331.9697 81.6126 331.9697 81.4327 331.7898 81.4327 C 331.7898 81.4327 331.6099 81.4327 331.6099 81.4327 C 331.6099 81.4327 331.4299 81.4327 331.4299 81.2527 C 331.4299 81.2527 331.25 81.2527 331.0701 81.0728 C 330.8901 81.0728 330.8901 80.8929 330.7102 80.8929 C 330.7102 80.8929 330.5303 80.8929 330.5303 80.8929 C 330.5303 80.8929 330.3503 80.8929 330.3503 80.8929 C 330.3503 80.8929 330.1704 80.8929 330.1704 80.713 C 329.9905 80.713 329.8106 80.533 329.8106 80.533 C 329.8106 80.533 329.6306 80.533 329.6306 80.533 C 329.6306 80.533 329.4507 80.3531 329.2708 80.3531 C 329.2708 80.3531 329.0908 80.3531 329.0908 80.3531 C 329.0908 80.3531 328.9109 80.3531 328.9109 80.3531 C 328.9109 80.3531 328.731 80.3531 328.731 80.3531 C 328.731 80.3531 328.551 80.3531 328.3711 80.3531 C 328.1912 80.3531 328.1912 80.3531 328.0113 80.3531 C 327.8313 80.3531 327.4715 80.1732 327.1116 80.1732 C 326.9317 80.1732 326.7517 80.1732 326.7517 80.1732 C 326.7517 80.1732 326.5718 80.1732 326.3919 80.1732 C 326.212 80.1732 326.032 80.1732 326.032 80.1732 C 325.8521 80.1732 325.8521 80.1732 325.6722 80.1732 C 325.6722 80.1732 325.4922 80.1732 325.4922 80.1732 C 325.3123 80.1732 325.3123 80.1732 324.9524 80.1732 C 323.8729 80.1732 321.8936 80.1732 321.7137 80.1732 C 321.7137 80.1732 321.5338 80.1732 321.5338 80.1732 C 321.5338 80.1732 320.6341 80.1732 320.6341 80.3531 C 320.6341 80.3531 320.4542 80.3531 320.4542 80.3531 C 320.4542 80.3531 320.2743 80.3531 320.2743 80.3531 C 320.2743 80.3531 320.0943 80.3531 319.9144 80.3531 C 319.7345 80.3531 319.5545 80.3531 319.5545 80.533 C 319.5545 80.533 319.3746 80.533 319.1947 80.533 C 319.0148 80.533 318.8348 80.533 318.8348 80.533 C 318.8348 80.533 318.6549 80.533 318.475 80.533 C 318.295 80.533 318.295 80.533 318.295 80.533 C 318.295 80.533 318.1151 80.533 318.1151 80.533 C 318.1151 80.533 317.9352 80.533 317.9352 80.533 C 317.9352 80.533 317.7552 80.533 317.7552 80.533 C 317.5753 80.533 317.3954 80.533 317.3954 80.713 C 317.3954 80.713 317.2155 80.713 317.2155 80.713 C 317.0355 80.713 316.6757 80.8929 316.4957 80.8929 C 316.4957 80.8929 316.3158 80.8929 316.3158 80.8929 C 316.3158 80.8929 316.1359 80.8929 315.956 81.0728 C 315.776 81.0728 315.776 81.2527 315.5961 81.2527 C 315.5961 81.2527 315.4162 81.2527 315.4162 81.2527 C 315.4162 81.2527 314.8764 81.4327 314.8764 81.4327 C 314.8764 81.4327 314.6964 81.4327 314.6964 81.4327 C 314.6964 81.4327 314.5165 81.4327 314.5165 81.6126 C 314.3366 81.6126 314.1567 81.7925 314.1567 81.7925 C 313.9767 81.7925 313.7968 81.9725 313.7968 81.9725 C 313.7968 81.9725 313.6169 81.9725 313.6169 82.1524 C 313.4369 82.3323 313.257 82.3323 313.257 82.3323 C 313.0771 82.3323 313.0771 82.3323 312.8971 82.5123 C 312.8971 82.5123 312.7172 82.5123 312.7172 82.5123 C 312.7172 82.5123 312.5373 82.5123 312.5373 82.6922 C 312.5373 82.6922 312.5373 82.6922 312.3574 82.6922 C 312.1774 82.6922 312.1774 82.6922 312.1774 82.8721 C 312.1774 82.8721 311.9975 82.8721 311.9975 82.8721 C 311.9975 82.8721 311.8176 82.8721 311.8176 82.8721 C 311.6376 82.8721 311.4577 83.052 311.2778 83.052 C 311.0978 83.052 310.9179 83.232 310.9179 83.232 C 310.9179 83.232 310.738 83.4119 310.5581 83.4119 C 310.3781 83.4119 310.1982 83.5918 310.1982 83.5918 C 310.1982 83.5918 310.0183 83.5918 310.0183 83.7718 C 310.0183 83.7718 309.8383 83.9517 309.6584 83.9517 C 309.8383 85.2112 309.8383 85.3911 309.6584 85.3911 C 309.6584 85.3911 309.4785 85.5711 309.4785 85.5711 C 309.4785 85.5711 309.2985 85.751 309.1186 85.751 C 308.9387 85.751 308.9387 85.9309 308.7588 85.9309 C 308.7588 85.9309 308.5788 86.1109 308.3989 86.1109 C 308.219 86.2908 308.039 86.2908 307.6792 86.6506 C 307.4992 86.6506 307.3193 86.8306 307.3193 87.0105 C 306.9595 87.1904 306.5996 87.5503 306.5996 87.5503 C 306.5996 87.5503 306.5996 87.5503 306.4197 87.7302 C 306.4197 87.7302 306.2397 87.9102 306.2397 87.9102 C 306.2397 87.9102 306.0598 88.0901 305.8799 88.0901 C 305.6999 88.27 305.1602 88.6299 305.1602 88.8098 C 305.1602 88.8098 305.1602 88.8098 304.9802 88.9897 C 304.9802 88.9897 304.8003 89.1697 304.8003 89.1697 C 304.8003 89.1697 304.6204 89.3496 304.6204 89.3496 C 304.6204 89.3496 304.4404 89.5295 304.2605 89.5295 C 302.4612 91.1489 301.0218 92.5883 300.1221 93.8478 C 299.9422 94.0278 299.7623 94.2077 299.7623 94.2077 C 299.4024 94.7475 298.5027 95.8271 298.3228 96.007 C 298.3228 96.007 298.1429 96.1869 298.1429 96.1869 C 298.1429 96.1869 297.963 96.3669 297.963 96.3669 C 297.963 96.3669 297.963 96.3669 297.783 96.5468 C 297.783 96.5468 297.6031 96.7267 297.6031 96.9067 C 297.4232 97.0866 297.4232 97.2665 297.4232 97.2665 C 297.4232 97.2665 297.2432 97.4464 297.2432 97.4464 C 297.2432 97.4464 297.2432 97.6264 297.0633 97.6264 C 296.8834 97.6264 297.0633 97.8063 297.0633 97.8063 C 297.0633 97.8063 297.0633 97.8063 297.0633 97.9862 C 296.8834 98.1662 296.7034 98.526 296.7034 98.526 C 296.7034 98.526 296.7034 98.706 296.7034 98.706 C 296.7034 98.8859 296.5235 99.0658 296.1637 99.4257 C 295.9837 99.6056 295.9837 99.7855 295.9837 99.9655 C 295.9837 99.9655 295.9837 100.1454 295.9837 100.1454 C 295.9837 100.1454 295.8038 100.3253 295.8038 100.3253 C 295.6239 100.6852 295.4439 100.8651 295.4439 100.8651 C 295.4439 100.8651 295.4439 101.045 295.264 101.225 C 295.264 101.4049 295.0841 101.5848 295.0841 101.7648 C 295.0841 101.9447 294.9041 102.1246 294.9041 102.3045 C 294.9041 102.4845 294.7242 102.4845 294.7242 102.6644 C 294.7242 102.8443 294.7242 102.8443 294.5443 103.0243 C 294.5443 103.0243 294.5443 103.2042 294.5443 103.2042 C 294.5443 103.3841 294.5443 103.3841 294.5443 103.3841 C 294.5443 103.3841 294.5443 103.3841 294.3644 103.5641 C 294.3644 103.5641 294.3644 103.5641 294.3644 103.5641 C 294.3644 103.5641 294.1844 103.2042 294.1844 103.2042 C 294.1844 103.2042 294.0045 102.6644 293.8246 102.4845 C 293.8246 102.4845 293.8246 102.3045 293.8246 102.3045 C 293.8246 102.1246 293.6446 101.5848 293.4647 101.4049 C 293.4647 101.4049 293.4647 101.225 293.4647 101.225 C 293.4647 101.225 293.4647 101.045 293.2848 101.045 C 293.2848 100.8651 293.1049 100.8651 293.1049 100.8651 C 293.1049 100.8651 292.9249 100.6852 292.9249 100.3253 C 292.745 100.1454 292.745 99.7855 292.5651 99.7855 C 292.5651 99.6056 292.3851 99.4257 292.3851 99.4257 C 292.3851 99.2457 292.2052 99.0658 292.2052 98.8859 C 292.2052 98.706 292.0253 98.706 292.0253 98.526 C 292.0253 98.526 292.0253 98.526 292.0253 98.3461 C 292.0253 98.3461 292.0253 98.1662 291.8453 97.9862 C 291.8453 97.9862 291.6654 97.8063 291.6654 97.8063 C 291.6654 97.6264 291.4855 97.4464 291.3056 97.2665 C 291.3056 97.2665 291.3056 97.0866 291.3056 97.0866 C 291.3056 97.0866 291.3056 96.9067 291.1256 96.9067 C 291.1256 96.7267 290.9457 96.7267 290.9457 96.5468 C 290.9457 96.5468 290.7658 96.3669 290.7658 96.3669 C 290.5858 96.3669 290.5858 96.1869 290.5858 96.1869 C 290.5858 96.1869 290.5858 96.007 290.4059 96.007 C 290.4059 96.007 290.226 95.8271 290.226 95.8271 C 290.226 95.8271 290.226 95.6471 290.046 95.6471 C 289.8661 95.4672 289.8661 95.4672 289.8661 95.2873 C 289.6862 95.1074 289.5063 94.7475 289.5063 94.7475 C 289.5063 94.7475 289.5063 94.7475 289.5063 94.5676 C 289.5063 94.5676 289.3263 94.2077 289.1464 94.2077 C 289.1464 94.2077 288.9665 94.0278 288.9665 94.0278 C 288.9665 93.8478 288.6066 93.488 288.4267 93.3081 C 288.4267 93.3081 288.2467 93.1281 288.0668 92.9482 C 288.0668 92.7683 287.8869 92.5883 287.707 92.5883 C 287.527 92.5883 287.527 92.4084 287.527 92.4084 C 287.3471 92.2285 285.7277 90.6091 285.1879 90.0693 C 285.008 89.8894 284.6481 89.5295 284.4682 89.3496 C 284.2883 89.1697 284.1084 88.9897 283.9284 88.8098 C 283.5686 88.4499 283.3886 88.27 283.2087 88.27 C 283.2087 88.27 283.0288 88.0901 282.8488 88.0901 C 282.8488 88.0901 282.6689 87.9102 282.6689 87.9102 C 282.6689 87.9102 282.6689 87.9102 282.489 87.7302 C 282.489 87.7302 282.3091 87.5503 281.9492 87.3704 C 281.7693 87.1904 281.4094 87.0105 281.4094 87.0105 C 281.4094 87.0105 281.2295 86.8306 281.0495 86.8306 C 281.0495 86.8306 280.8696 86.6506 280.6897 86.6506 C 280.5098 86.4707 280.1499 86.2908 280.1499 86.2908 C 280.1499 86.2908 280.1499 86.2908 279.97 86.1109 C 279.97 86.1109 279.79 85.9309 279.79 85.9309 C 279.79 85.9309 279.6101 85.751 279.6101 85.751 C 279.6101 85.751 279.4302 85.5711 279.2502 85.5711 C 279.0703 85.5711 278.8904 85.3911 278.8904 85.3911 C 278.8904 85.3911 278.7105 85.3911 278.7105 85.3911 C 278.7105 85.3911 278.5305 85.3911 278.5305 85.2112 C 278.3506 85.0313 278.1707 85.0313 277.9907 85.0313 C 277.9907 85.0313 277.9907 85.0313 277.9907 85.0313 C 277.9907 85.0313 277.8108 85.0313 277.8108 84.8513 C 277.8108 84.8513 277.6309 84.8513 277.6309 84.8513 C 277.6309 84.8513 277.4509 84.8513 277.4509 84.6714 C 277.271 84.6714 277.271 84.4915 277.0911 84.4915 C 277.0911 84.4915 276.9112 84.4915 276.9112 84.4915 C 276.9112 84.4915 276.7312 84.4915 276.1914 84.1316 C 276.0115 84.1316 276.0115 83.9517 276.0115 83.9517 C 276.0115 83.9517 276.0115 83.9517 275.8316 83.9517 C 275.8316 83.9517 275.6516 83.9517 275.6516 83.9517 C 275.6516 83.9517 275.2918 83.7718 274.9319 83.5918 C 274.9319 83.5918 274.752 83.4119 274.5721 83.4119 C 274.3921 83.4119 274.2122 83.232 274.0323 83.232 C 273.8523 83.232 273.6724 83.052 273.6724 83.052 C 273.6724 83.052 273.4925 83.052 273.4925 83.052 C 273.3126 82.8721 273.1326 82.8721 272.9527 82.8721 C 272.9527 82.8721 272.7728 82.8721 272.5928 82.6922 C 272.4129 82.5123 272.053 82.5123 272.053 82.5123 C 272.053 82.5123 271.8731 82.5123 271.6932 82.3323 C 271.6932 82.3323 271.5133 82.1524 271.3333 82.1524 C 271.1534 82.1524 271.1534 81.9725 270.9735 81.9725 C 270.9735 81.9725 270.7935 81.9725 270.7935 81.9725 C 270.7935 81.9725 270.6136 81.9725 270.6136 81.9725 C 270.6136 81.9725 270.0738 81.7925 270.0738 81.7925 C 270.0738 81.7925 269.8939 81.7925 269.714 81.6126 C 269.534 81.6126 269.3541 81.4327 269.1742 81.4327 C 269.1742 81.4327 268.9942 81.4327 268.9942 81.4327 C 268.9942 81.4327 268.8143 81.4327 268.6344 81.2527 C 268.4545 81.2527 268.2745 81.2527 268.0946 81.0728 C 267.9147 81.0728 267.7347 81.0728 267.5548 81.0728 C 267.3749 81.0728 267.1949 81.0728 267.1949 81.0728 C 267.015 81.0728 265.9354 80.8929 265.7555 80.8929 C 265.7555 80.8929 265.5756 80.8929 265.5756 80.8929 C 265.3956 80.8929 264.8559 80.713 264.3161 80.713 C 264.1361 80.713 263.7763 80.713 263.4164 80.713 C 262.8766 80.713 261.977 80.713 261.6171 80.713 C 261.2573 80.713 260.5375 80.8929 260.3576 80.8929 C 260.1777 80.8929 260.1777 80.8929 259.9977 80.8929 C 259.9977 80.8929 259.8178 80.8929 259.6379 80.8929 C 259.458 80.8929 259.278 80.8929 259.278 80.8929 C 259.278 80.8929 259.0981 80.8929 259.0981 80.8929 C 258.9182 80.8929 258.5583 80.8929 258.3784 81.0728 C 258.0185 81.2527 257.4787 81.2527 257.2988 81.4327 C 257.2988 81.4327 257.1189 81.4327 257.1189 81.4327 C 257.1189 81.4327 256.9389 81.4327 256.9389 81.4327 C 256.9389 81.4327 256.759 81.4327 256.759 81.4327 C 256.5791 81.4327 256.2192 81.6126 255.8594 81.7925 C 255.8594 81.7925 255.6794 81.7925 255.6794 81.7925 C 255.4995 81.7925 255.1396 81.9725 255.1396 81.9725 C 255.1396 81.9725 254.9597 81.9725 254.9597 81.9725 C 254.7798 81.9725 254.24 82.3323 253.8801 82.5123 C 253.7002 82.5123 253.5203 82.6922 253.5203 82.6922 C 253.5203 82.6922 253.3403 82.8721 253.1604 82.8721 C 252.9805 82.8721 252.9805 83.052 252.9805 83.052 C 252.9805 83.052 252.8005 83.052 252.8005 83.232 C 252.8005 83.4119 252.6206 83.4119 252.6206 83.4119 C 252.4407 83.4119 252.4407 83.5918 252.2608 83.5918 C 252.2608 83.5918 252.0808 83.7718 251.9009 83.7718 C 251.721 83.9517 251.541 83.9517 251.3611 84.1316 C 251.0012 84.4915 250.8213 84.4915 250.8213 84.4915 C 250.8213 84.4915 250.6414 84.4915 250.6414 84.6714 C 250.6414 84.8513 250.4615 84.8513 250.4615 84.8513 C 250.4615 84.8513 250.2815 84.8513 250.2815 85.0313 C 250.2815 85.0313 250.1016 85.2112 250.1016 85.2112 C 250.1016 85.2112 250.1016 85.2112 249.9217 84.4915 C 249.9217 84.1316 249.9217 83.5918 249.9217 83.232 C 249.9217 82.8721 249.9217 82.5123 249.9217 82.5123 C 249.9217 82.3323 249.9217 82.1524 249.9217 81.9725 C 249.9217 81.7925 249.9217 81.6126 249.9217 81.4327 C 249.9217 81.2527 249.9217 81.0728 249.9217 81.0728 C 249.9217 81.0728 249.9217 80.8929 249.9217 80.8929 C 249.9217 80.8929 249.9217 80.713 249.9217 80.533 C 249.9217 80.3531 249.9217 80.3531 249.9217 80.1732 C 249.9217 80.1732 249.9217 79.8133 249.7417 79.6334 C 249.7417 79.4534 249.5618 79.0936 249.5618 79.0936 C 249.5618 79.0936 249.5618 78.9137 249.3819 78.9137 C 249.2019 78.5538 248.6622 77.1144 248.3023 76.7545 C 248.3023 76.7545 248.1224 76.5746 248.1224 76.5746 C 248.1224 76.5746 247.4026 75.6749 247.2227 75.3151 C 247.0428 75.1351 246.8629 74.9552 246.8629 74.9552 C 246.6829 74.7753 246.3231 74.4154 245.9632 74.0556 C 245.6034 73.6957 245.6034 73.6957 245.4234 73.6957 C 245.2435 73.6957 245.2435 73.5158 245.2435 73.5158 C 245.2435 73.5158 245.2435 73.5158 245.0636 73.3358 C 245.0636 73.3358 244.8836 73.3358 244.8836 73.1559 C 244.8836 73.1559 244.8836 72.976 244.7037 72.976 C 244.7037 72.976 244.5238 72.976 244.5238 72.796 C 244.5238 72.6161 244.3438 72.6161 244.1639 72.6161 C 243.984 72.6161 243.8041 72.4362 243.8041 72.2563 C 243.2643 71.8964 242.5445 71.5365 242.1847 71.3566 C 242.1847 71.3566 242.0048 71.3566 242.0048 71.1767 C 242.0048 71.1767 241.8248 71.1767 241.8248 70.9967 C 241.8248 70.9967 241.6449 70.9967 241.6449 70.8168 C 241.465 70.8168 241.285 70.6369 241.285 70.6369 C 241.1051 70.6369 240.9252 70.457 240.9252 70.457 C 240.9252 70.457 240.7452 70.457 240.7452 70.457 C 240.7452 70.457 240.5653 70.457 240.5653 70.277 C 240.5653 70.277 240.3854 70.0971 240.3854 70.0971 C 240.3854 70.0971 240.2055 70.0971 240.2055 70.0971 C 240.0255 70.0971 239.4857 69.9172 239.4857 69.7372 C 239.4857 69.7372 239.3058 69.7372 239.3058 69.7372 C 239.6657 70.9967 239.3058 70.9967 239.1259 70.9967 C 239.1259 70.9967 238.9459 70.9967 238.9459 70.9967 C 238.766 70.9967 238.766 70.9967 238.4062 70.8168 C 238.2262 70.8168 238.2262 70.8168 238.0463 70.6369 C 237.8664 70.6369 237.5065 70.457 237.3266 70.457 C 237.1466 70.457 236.9667 70.457 236.9667 70.457 C 236.7868 70.457 236.6069 70.457 236.6069 70.457 C 236.6069 70.457 236.4269 70.457 236.4269 70.457 C 236.4269 70.457 236.247 70.457 236.0671 70.457 C 235.8871 70.457 235.7072 70.457 235.5273 70.457 C 235.3473 70.457 235.1674 70.457 234.9875 70.457 C 234.8076 70.457 234.6276 70.457 234.6276 70.457 C 234.6276 70.457 234.4477 70.457 234.4477 70.457 C 234.2678 70.457 234.0878 70.457 233.728 70.457 C 233.1882 70.457 232.8283 70.277 231.9287 70.277 C 231.5688 70.277 231.209 70.277 231.029 70.277 C 230.8491 70.277 230.6692 70.277 230.4892 70.277 C 230.4892 70.277 230.3093 70.277 230.3093 70.277 C 230.1294 70.277 227.9702 70.277 227.4304 70.277 C 227.4304 70.277 226.7107 70.277 226.1709 70.277 C 225.991 70.277 225.8111 70.277 225.6311 70.277 C 226.1709 88.4499 233.728 105.0035 245.7833 117.0588 C 258.1984 129.474 275.4717 137.211 294.5443 137.211 C 313.6169 137.211 330.8901 129.474 343.3053 117.0588 C 355.5405 104.2838 363.0976 87.9102 363.4575 69.5573 C 363.6374 69.5573 363.6374 69.5573 363.4575 69.5573 Z " stroke-width="1.7992992401123047"/>
  </g>
</svg>