<svg xmlns="http://www.w3.org/2000/svg" xmlns:xlink="http://www.w3.org/1999/xlink" version="1.1" width="268.9213614463806" height="120.23058080673218" viewBox="7.512010812759399 -2.3192891404032707 268.9213614463806 120.23058080673218">
  <!-- Exported by Scratch - http://scratch.mit.edu/ -->
  <g id="ID0.6169916936196387">
    <path id="ID0.6829322893172503" fill="#EDD2B8" stroke="none" stroke-linecap="round" d="M 152.2869 101.1087 L 146.562 73.8365 L 161.3343 69.491 L 177.5411 63.4851 L 190.8555 66.8686 L 201.4298 71.0745 L 207.3541 77.6423 L 222.2002 84.9586 L 218.9453 95.7746 L 213.4651 97.4193 L 212.0229 101.1026 L 203.9077 107.1399 L 194.7207 113.411 L 183.051 115.5076 L 166.8913 109.3761 L 152.2869 101.1087 Z " stroke-width="1.9625150201816377"/>
    <g id="ID0.9434720128774643">
      <path id="ID0.6507829907350242" fill="#282828" stroke="none" stroke-linecap="round" d="M 9.9157 77.225 L 10.3891 41.0997 L 75.2813 55.4645 L 100.0595 60.7488 L 137.6251 70.2953 L 155.2653 69.0072 L 152.3419 104.8136 L 135.4923 98.608 L 111.5801 97.0873 L 80.8819 96.3732 L 57.4452 94.9733 L 9.9157 77.225 Z " stroke-width="1.9625150201816377"/>
      <path id="ID0.9892375003546476" fill="none" stroke="#191919" stroke-width="4.807378066780115" stroke-linecap="round" d="M 150.9489 103.3049 L 152.5348 70.2267 L 131.2528 71.0186 "/>
    </g>
  </g>
  <g id="ID0.08065540948882699">
    <path id="ID0.2553020962513983" fill="#999FA5" stroke="none" d="M 186.2951 37.987 C 210.5002 37.987 232.4339 40.6815 248.3175 45.0322 C 264.1987 49.3829 274.0297 55.3921 274.0297 62.0239 C 274.0297 68.6556 264.1987 74.6649 248.3175 79.0155 C 232.4339 83.3662 210.5002 86.0608 186.2951 86.0608 C 162.0899 86.0608 140.1563 83.3662 124.2727 79.0155 C 108.3915 74.6649 98.5604 68.6556 98.5604 62.0239 C 98.5604 55.3921 108.3915 49.3829 124.2727 45.0322 C 140.1563 40.6815 162.0899 37.987 186.2951 37.987 Z " stroke-width="2.40368914604187"/>
    <path id="ID0.4823109242133796" fill="#8B9196" stroke="none" stroke-linecap="round" d="M 183.8971 0.0844 C 203.9583 0.0844 222.135 4.4615 235.2976 11.5332 C 248.4602 18.6024 253.0513 28.0946 256.6087 39.1443 C 259.4018 47.8337 261.8848 61.9073 254.205 66.1858 C 233.0718 77.3846 207.2225 78.6225 183.8971 78.2043 C 160.1968 77.7788 135.2873 74.9545 114.1901 63.7822 C 107.1954 59.8641 108.616 47.0933 111.1855 39.1443 C 114.7646 28.1018 119.334 18.6024 132.4966 11.5332 C 145.6592 4.4615 163.8359 0.0844 183.8971 0.0844 Z " stroke-width="2.40368914604187"/>
    <path id="ID0.0372768803499639" fill="none" stroke="#A4ABB1" stroke-width="4.80737829208374" stroke-linecap="round" d="M 207.934 7.3418 C 207.934 7.3418 214.835 8.6398 218.1497 9.7455 C 219.6808 10.255 221.0774 11.166 222.3562 12.1492 C 223.7022 13.1851 225.9617 15.7547 225.9617 15.7547 "/>
    <path id="ID0.0845643924549222" fill="none" stroke="#A4ABB1" stroke-width="4.80737829208374" stroke-linecap="round" d="M 214.5442 18.1584 C 214.5442 18.1584 217.8372 19.1679 219.3515 19.9611 C 222.0581 21.3793 227.1635 24.7685 227.1635 24.7685 "/>
  </g>
</svg>