<svg xmlns="http://www.w3.org/2000/svg" xmlns:xlink="http://www.w3.org/1999/xlink" version="1.1" width="896.5" height="643.75" viewBox="-1 -0.75 896.5 643.75">
  <!-- Exported by Scratch - http://scratch.mit.edu/ -->
  <path id="ID0.1375492145307362" fill="#282828" stroke="none" d="M 97.5 225 L 789.7236 225 L 789.7236 609.6717 L 97.5 609.6717 L 97.5 225 Z " stroke-width="1.2691548284607623"/>
  <path id="ID0.8509373352862895" fill="#2E2E2E" stroke="none" stroke-linecap="round" d="M 107 237 L 230 182 L 412.5 316 L 397.5 353 L 392 368.5 L 379.5 382.5 L 371 400 L 365 411 L 359.5 416.5 L 357 422 L 348.5 425 L 340 420 L 337 431 L 332 438.5 L 326 466 L 319 468 L 309.75 463.5 L 303.5 471.5 L 298.5 482.75 L 277.75 454.5 L 284 512 L 265 511 L 94.5 515.5 L 0 528 L 107 237 Z " stroke-width="1"/>
  <path id="ID0.8628232381306589" fill="#252525" stroke="none" d="M 107 319.5 L 116.5 387.5 L 122.5 377 L 130.5 401 L 142.5 398 L 143 423.5 L 144.5 437 L 151 438.5 L 152 455 L 153.5 448 L 160.5 515 L 96.5 518.5 L 107 319.5 Z " stroke-width="1"/>
  <g id="ID0.35708296764642">
    <path id="ID0.8807901288382709" fill="#1F1F1F" stroke="none" stroke-linecap="round" d="M 39.5 3.8 L 524.5 3.8 L 524.5 131.1125 L 315.4953 293.9917 L 305.4922 300.4583 L 291.5989 311.9771 L 268.9656 299.4984 L 240.4719 295.962 L 221.476 286.4641 L 200.4594 281.4625 L 182.474 279.4922 L 164.4885 269.4891 L 156.5062 250.9984 L 142.4615 243.976 L 39.5 131.1125 L 39.5 3.8 Z " stroke-width="1.0104166269302368"/>
    <path id="ID0.8807901288382709" fill="#1F1F1F" stroke="none" stroke-linecap="round" d="M 149.5 36.8 L 634.5 36.8 L 634.5 164.1125 L 465.0026 290.263 L 448.9875 305.975 L 441.5104 317.9989 L 428.476 326.4864 L 419.4833 331.9932 L 401.5989 344.9771 L 380.4812 331.488 L 366.9922 317.9989 L 356.4838 314.9677 L 342.4896 305.4698 L 335.5177 297.4875 L 326.0198 296.9823 L 149.5 164.1125 L 149.5 36.8 Z " stroke-width="1.0104166269302368"/>
    <path id="ID0.8807901288382709" fill="#1F1F1F" stroke="none" stroke-linecap="round" d="M 278.5 0.25 L 763.5 0.25 L 763.5 127.5625 L 554.4953 288.5219 L 551.0094 294.5338 L 530.5989 308.4271 L 510.9969 296.5042 L 499.5286 289.0271 L 278.5 127.5625 L 278.5 0.25 Z " stroke-width="1.0104166269302368"/>
    <path id="ID0.8807901288382709" fill="#1F1F1F" stroke="none" stroke-linecap="round" d="M 409.5 48.3 L 894.5 48.3 L 894.5 175.6125 L 661.5989 356.4771 L 578.9974 301.0052 L 569.4995 293.0229 L 409.5 175.6125 L 409.5 48.3 Z " stroke-width="1.0104166269302368"/>
  </g>
  <g id="ID0.18401193944737315">
    <g id="ID0.8776086419820786">
      <path id="ID0.43921747663989663" fill="none" stroke="#909090" stroke-width="1.9999999880808903" stroke-linecap="round" d="M 186.3552 462.5932 L 279.138 459.8257 L 283.3601 511.6274 L 190.631 513.3964 L 186.3552 462.5932 Z "/>
      <path id="ID0.6832200000062585" fill="none" stroke="#909090" stroke-width="1.9999999880808903" stroke-linecap="round" d="M 211.8634 463.214 L 220.7403 512.262 "/>
      <path id="ID0.5864850380457938" fill="none" stroke="#909090" stroke-width="1.9999999880808903" stroke-linecap="round" d="M 253.046 460.924 L 261.3698 510.9436 "/>
    </g>
    <g id="ID0.8776086419820786">
      <path id="ID0.43921747663989663" fill="none" stroke="#909090" stroke-width="1.9826921178553705" stroke-linecap="round" d="M 93.5305 465.4363 L 186.3193 462.558 L 197.1012 513.4227 L 97.8667 515.1176 L 93.5305 465.4363 Z "/>
      <path id="ID0.6832200000062585" fill="none" stroke="#909090" stroke-width="1.9826921178553705" stroke-linecap="round" d="M 119.0816 465.8607 L 128.0037 514.0668 "/>
      <path id="ID0.5864850380457938" fill="none" stroke="#909090" stroke-width="1.9826921178553705" stroke-linecap="round" d="M 160.26 463.6488 L 168.63 512.8092 "/>
    </g>
  </g>
  <path id="ID0.5387833956629038" fill="#4E5B61" stroke="none" d="M 217.5 534.0035 C 250.745 534.0035 280.87 538.094 302.684 544.7005 C 324.497 551.3082 338 560.4332 338 570.5035 C 338 580.5737 324.497 589.6987 302.684 596.3064 C 280.87 602.9129 250.745 607.0035 217.5 607.0035 C 184.255 607.0035 154.13 602.9129 132.316 596.3064 C 110.503 589.6987 97 580.5737 97 570.5035 C 97 560.4332 110.503 551.3082 132.316 544.7005 C 154.13 538.094 184.255 534.0035 217.5 534.0035 Z " stroke-width="1.1366895276632272"/>
  <path id="ID0.96548081189394" fill="#475358" stroke="none" d="M 225.5 538 C 263.987 538 298.862 543.827 324.115 553.24 C 349.368 562.654 365 575.654 365 590 C 365 604.346 349.368 617.346 324.115 626.76 C 298.862 636.173 263.987 642 225.5 642 C 187.013 642 152.138 636.173 126.885 626.76 C 101.632 617.346 86 604.346 86 590 C 86 575.654 101.632 562.654 126.885 553.24 C 152.138 543.827 187.013 538 225.5 538 Z " stroke-width="1"/>
  <path id="ID0.6961059258319438" fill="#475358" stroke="none" stroke-linecap="round" d="M 302.9273 547.0409 L 613.8363 568.8045 L 608.6545 604.0409 L 310.1818 604.0409 L 302.9273 547.0409 Z " stroke-width="1.0363636016845703"/>
  <path id="ID0.04282420501112938" fill="none" stroke="#3A3A3A" stroke-width="2" stroke-linecap="round" d="M 286.5 459 C 286.5 459 287.025 460.74 287.5 461.5 C 287.874 462.099 288.589 462.425 289 463 C 289.433 463.606 289.567 464.394 290 465 C 290.411 465.575 290.887 466.15 291.5 466.5 C 292.096 466.841 292.973 466.561 293.5 467 C 294.072 467.477 294.167 468.334 294.5 469 C 294.833 469.666 295.11 471 295.5 471 C 295.86 471 295.833 469.666 296 469 C 296.167 468.334 296.259 467.643 296.5 467 C 296.761 466.303 296.88 465.413 297.5 465 C 298.054 464.631 298.98 465.416 299.5 465 C 300.036 464.571 299.693 463.614 300 463 C 300.372 462.255 301.059 461.706 301.5 461 C 301.895 460.369 302.239 459.697 302.5 459 C 302.741 458.357 302.435 457.113 303 457 C 303.685 456.863 304.192 458.298 305 458.5 C 305.666 458.667 306.473 458.439 307 458 C 307.572 457.523 307.38 456.413 308 456 C 308.554 455.631 309.388 455.738 310 456 C 310.649 456.278 310.794 457.5 311.5 457.5 C 312.206 457.5 312.294 456 313 456 C 313.706 456 314.089 456.925 314.5 457.5 C 314.933 458.106 314.859 459.372 315.5 459.5 C 316.109 459.622 316.294 458 317 458 C 317.706 458 317.794 459.5 318.5 459.5 C 319.206 459.5 319.65 458.613 320 458 C 320.341 457.404 320.259 456.643 320.5 456 C 320.761 455.303 321.067 454.606 321.5 454 C 321.911 453.425 322.65 453.113 323 452.5 C 323.341 451.904 323.333 451.166 323.5 450.5 C 323.667 449.834 323.759 449.143 324 448.5 C 324.261 447.803 324.819 447.222 325 446.5 C 325.162 445.854 324.917 445.161 325 444.5 C 325.085 443.819 325.333 443.166 325.5 442.5 C 325.667 441.834 325.833 441.166 326 440.5 C 326.167 439.834 326.333 439.166 326.5 438.5 C 326.667 437.834 326.759 437.143 327 436.5 C 327.261 435.803 327.739 435.197 328 434.5 C 328.241 433.857 328.333 433.166 328.5 432.5 C 328.667 431.834 328.833 431.166 329 430.5 C 329.167 429.834 329.333 429.166 329.5 428.5 C 329.667 427.834 329.659 427.096 330 426.5 C 330.35 425.887 331 425.5 331.5 425 C 332 424.5 332.5 424 333 423.5 C 333.5 423 334.15 422.613 334.5 422 C 334.841 421.404 334.833 420.666 335 420 C 335.167 419.334 335.333 418.666 335.5 418 C 335.667 417.334 335.833 416.666 336 416 C 336.167 415.334 336.415 414.681 336.5 414 C 336.583 413.339 336.029 412.471 336.5 412 C 336.971 411.529 337.946 411.631 338.5 412 C 339.12 412.413 338.928 413.523 339.5 414 C 340.027 414.439 340.886 414.807 341.5 414.5 C 342.166 414.167 342 412.5 342.5 412.5 C 343 412.5 342.88 414.087 343.5 414.5 C 344.054 414.869 344.839 414.417 345.5 414.5 C 346.181 414.585 346.819 414.915 347.5 415 C 348.161 415.083 348.839 415.083 349.5 415 C 350.181 414.915 350.84 414.311 351.5 414.5 C 352.179 414.694 352.614 416.129 353 416 C 353.364 415.879 353 414.666 353 414 C 353 413.334 353 412.666 353 412 C 353 411.334 352.917 410.661 353 410 C 353.085 409.319 353.159 408.596 353.5 408 C 353.85 407.387 354.589 407.075 355 406.5 C 355.433 405.894 355.428 404.977 356 404.5 C 356.527 404.061 357.34 403.811 358 404 C 358.679 404.194 358.993 405.627 359.5 405.5 C 359.993 405.377 359.783 404.151 360 403.5 C 360.284 402.649 360.716 401.851 361 401 C 361.217 400.349 361.259 399.643 361.5 399 C 361.761 398.303 361.88 397.413 362.5 397 C 363.054 396.631 363.946 397.369 364.5 397 C 365.12 396.587 365.239 395.697 365.5 395 C 365.741 394.357 365.759 393.643 366 393 C 366.261 392.303 366.739 391.697 367 391 C 367.241 390.357 367.334 389.666 367.5 389 C 367.666 388.334 367.759 387.643 368 387 C 368.261 386.303 368.739 385.697 369 385 C 369.241 384.357 369.193 383.614 369.5 383 C 369.872 382.255 370.559 381.706 371 381 C 371.395 380.369 371.739 379.697 372 379 C 372.241 378.357 372.259 377.643 372.5 377 C 372.761 376.303 372.928 375.477 373.5 375 C 374.027 374.561 374.904 374.841 375.5 374.5 C 376.113 374.15 376.54 373.536 377 373 C 377.542 372.368 378.059 371.706 378.5 371 C 378.895 370.369 379.067 369.606 379.5 369 C 379.911 368.425 380.589 368.075 381 367.5 C 381.433 366.894 381.567 366.106 382 365.5 C 382.411 364.925 382.891 363.878 383.5 364 C 384.141 364.128 383.973 365.473 384.5 366 C 385.027 366.527 385.794 367.235 386.5 367 C 387.206 366.765 387.239 365.697 387.5 365 C 387.741 364.357 387.834 363.666 388 363 C 388.166 362.334 388.334 361.666 388.5 361 C 388.666 360.334 388.834 359.666 389 359 C 389.166 358.334 389.259 357.643 389.5 357 C 389.761 356.303 390.319 355.722 390.5 355 C 390.662 354.354 390.417 353.661 390.5 353 C 390.585 352.319 390.759 351.643 391 351 C 391.261 350.303 391.739 349.697 392 349 C 392.241 348.357 392.334 347.666 392.5 347 C 392.542 346.834 392.5 347 392.5 347 "/>
  <path id="ID0.5814925273880363" fill="none" stroke="#3A3A3A" stroke-width="2" stroke-linecap="round" d="M 308.5 306 C 308.5 306 307.542 307.368 307 308 C 306.54 308.536 305.886 309.629 305.5 309.5 C 305.136 309.379 305.546 307.5 305.5 307.5 C 305.454 307.5 305.341 308.904 305 309.5 C 304.65 310.113 304 310.501 303.5 311 C 303 311.499 302.452 311.957 302 312.5 C 301.616 312.961 301 314 301 314 "/>
  <path id="ID0.28727586567401886" fill="none" stroke="#3A3A3A" stroke-width="2" stroke-linecap="round" d="M 300.5 309.5 C 300.5 309.5 300.241 310.857 300 311.5 C 299.739 312.197 299.433 312.894 299 313.5 C 298.589 314.075 298 314.501 297.5 315 C 296.501 315.999 295.55 317.055 294.5 318 C 293.881 318.557 293.132 318.958 292.5 319.5 C 291.964 319.96 291.5 320.501 291 321 C 290.667 321.333 290 322 290 322 "/>
  <path id="ID0.6103049954399467" fill="none" stroke="#3A3A3A" stroke-width="2" stroke-linecap="round" d="M 303.5 320 C 303.5 320 304.5 318.666 305 318 C 305.5 317.334 306.128 316.745 306.5 316 C 306.807 315.386 307 313.662 307 314 C 307 314.493 306.377 317.506 306.5 318 C 306.589 318.357 306.88 316.413 307.5 316 C 308.054 315.631 308.946 316.369 309.5 316 C 310.12 315.587 310.067 314.606 310.5 314 C 310.911 313.425 311.621 313.096 312 312.5 C 312.8 311.244 313.2 309.756 314 308.5 C 314.379 307.904 315.059 307.552 315.5 307 C 315.733 306.709 316 306 316 306 "/>
  <path id="ID0.5220733326859772" fill="none" stroke="#3A3A3A" stroke-width="2" stroke-linecap="round" d="M 321 305 C 321 305 320.667 306.334 320.5 307 C 320.333 307.666 319.746 309.254 320 309 C 320.392 308.608 321.378 305.967 322 305.5 C 322.332 305.251 322 306.834 322 307.5 C 322 308.166 321.636 309.379 322 309.5 C 322.386 309.629 322.925 308.411 323.5 308 C 324.106 307.567 324.972 306.736 325.5 307 C 325.972 307.236 325.5 308.334 325.5 309 C 325.5 309.666 325.056 310.889 325.5 311 C 326.056 311.139 326.794 309.941 327.5 309.5 C 328.131 309.105 328.794 308.265 329.5 308.5 C 330.206 308.735 330.167 309.834 330.5 310.5 C 330.583 310.666 330.5 310.5 330.5 310.5 "/>
  <path id="ID0.5301661482080817" fill="none" stroke="#3A3A3A" stroke-width="2" stroke-linecap="round" d="M 274.5 307 C 274.5 307 273.106 307.567 272.5 308 C 271.925 308.411 271.507 309.627 271 309.5 C 270.507 309.377 270.667 308.166 270.5 307.5 C 270.333 306.834 270.485 305.985 270 305.5 C 269.515 305.015 268.66 304.811 268 305 C 267.321 305.194 267.149 306.222 266.5 306.5 C 265.888 306.762 265.161 306.583 264.5 306.5 C 263.819 306.415 263.096 306.341 262.5 306 C 261.887 305.65 261.5 304.999 261 304.5 C 260.5 304.001 260.149 303.278 259.5 303 C 258.888 302.738 258.161 303.083 257.5 303 C 256.819 302.915 256.181 302.585 255.5 302.5 C 254.839 302.417 254.166 302.5 253.5 302.5 C 252.834 302.5 252.166 302.5 251.5 302.5 C 250.834 302.5 250.146 302.662 249.5 302.5 C 248.778 302.319 248.166 301.833 247.5 301.5 C 246.834 301.167 246.166 300.833 245.5 300.5 C 244.834 300.167 244.197 299.761 243.5 299.5 C 242.857 299.259 242.166 299.166 241.5 299 C 240.834 298.834 240.16 298.311 239.5 298.5 C 238.821 298.694 238.575 299.589 238 300 C 237.394 300.433 236.739 300.908 236 301 C 235.319 301.085 234.596 300.841 234 300.5 C 233.387 300.15 232.96 299.536 232.5 299 C 231.958 298.368 231.542 297.632 231 297 C 230.54 296.464 230.036 295.96 229.5 295.5 C 228.868 294.958 228.132 294.542 227.5 294 C 226.964 293.54 226.613 292.85 226 292.5 C 225.404 292.159 224.681 292.085 224 292 C 223.339 291.917 222.666 292 222 292 C 221.334 292 220.661 292.083 220 292 C 219.319 291.915 218.643 291.741 218 291.5 C 217.303 291.239 216.666 290.833 216 290.5 C 215.334 290.167 214.697 289.761 214 289.5 C 213.357 289.259 212.666 289.166 212 289 C 211.334 288.834 210.681 288.585 210 288.5 C 209.339 288.417 208.666 288.5 208 288.5 C 207.334 288.5 206.666 288.5 206 288.5 C 205.834 288.5 206 288.5 206 288.5 "/>
  <path id="ID0.6634597317315638" fill="none" stroke="#1F1F1F" stroke-width="2" stroke-linecap="round" d="M 409.5 342 C 409.5 342 411.163 341.322 412 341 C 413.328 340.489 414.687 340.047 416 339.5 C 416.687 339.214 417.419 338.965 418 338.5 C 419.103 337.617 419.897 336.383 421 335.5 C 421.581 335.035 422.303 334.761 423 334.5 C 423.643 334.259 424.349 334.217 425 334 C 426.35 333.55 427.602 332.762 429 332.5 C 430.309 332.255 431.673 332.611 433 332.5 C 433.684 332.443 434.357 332.241 435 332 C 435.697 331.739 436.394 331.433 437 331 C 437.575 330.589 437.925 329.911 438.5 329.5 C 439.106 329.067 439.778 328.681 440.5 328.5 C 441.146 328.338 441.888 328.762 442.5 328.5 C 443.149 328.222 443.589 327.575 444 327 C 444.433 326.394 444.739 325.697 445 325 C 445.241 324.357 445.101 323.559 445.5 323 C 446.802 321.177 448.542 319.701 450 318 C 450.542 317.368 451.059 316.706 451.5 316 C 451.895 315.369 452.067 314.606 452.5 314 C 452.911 313.425 453.559 313.052 454 312.5 C 454.895 311.382 455.605 310.118 456.5 309 C 456.941 308.448 457.5 307.999 458 307.5 C 459.498 306.001 461.131 304.618 462.5 303 C 462.981 302.432 463.067 301.606 463.5 301 C 463.911 300.425 464.435 299.924 465 299.5 C 465.141 299.394 465.5 299.5 465.5 299.5 "/>
  <path id="ID0.738395182415843" fill="none" stroke="#1F1F1F" stroke-width="2" stroke-linecap="round" d="M 478 289 C 478 289 476 290.335 476 290.5 C 476 290.665 477.9 289.799 478 290 C 478.1 290.201 477 291.001 476.5 291.5 C 476 291.999 475.575 292.589 475 293 C 474.394 293.433 473.606 293.567 473 294 C 472.425 294.411 471.371 295.114 471.5 295.5 C 471.621 295.864 472.854 295.662 473.5 295.5 C 474.222 295.319 474.869 294.895 475.5 294.5 C 476.206 294.059 476.794 293.441 477.5 293 C 478.131 292.605 478.834 292.333 479.5 292 C 480.166 291.667 480.834 291.333 481.5 291 C 482.166 290.667 483.439 289.939 483.5 290 C 483.561 290.061 482.536 291.04 482 291.5 C 481.368 292.042 480 292.452 480 293 C 480 293.452 481.319 293.585 482 293.5 C 482.739 293.408 483.294 292.265 484 292.5 C 484.706 292.735 485 293.755 485 294.5 C 485 295.245 484.333 295.834 484 296.5 C 483.667 297.166 482.736 297.972 483 298.5 C 483.236 298.972 484.376 298.734 485 298.5 C 485.779 298.208 486.307 297.462 487 297 C 487.31 296.793 488 296.5 488 296.5 "/>
  <path id="ID0.1818475848995149" fill="none" stroke="#1F1F1F" stroke-width="2" stroke-linecap="round" d="M 489.5 294 C 489.5 294 491.24 294.525 492 295 C 492.599 295.374 493.089 295.925 493.5 296.5 C 493.933 297.106 494.067 297.894 494.5 298.5 C 494.911 299.075 495.65 299.387 496 300 C 496.341 300.596 496.159 301.404 496.5 302 C 496.85 302.613 497.5 303.001 498 303.5 C 498.166 303.666 498.5 304 498.5 304 "/>
  <path id="ID0.119818230625242" fill="none" stroke="#1F1F1F" stroke-width="2" stroke-linecap="round" d="M 493.5 295 C 493.5 295 495.156 295.406 496 295.5 C 496.662 295.574 497.368 295.289 498 295.5 C 499.413 295.971 500.788 296.634 502 297.5 C 503.15 298.321 503.897 299.617 505 300.5 C 505.581 300.965 506.394 301.067 507 301.5 C 507.575 301.911 507.925 302.589 508.5 303 C 509.106 303.433 509.88 303.587 510.5 304 C 510.892 304.261 511.5 305 511.5 305 "/>
  <path id="ID0.9678202248178422" fill="none" stroke="#1F1F1F" stroke-width="2" stroke-linecap="round" d="M 516.5 305 C 516.5 305 516.4 306.9 517 307.5 C 517.471 307.971 518.334 307.5 519 307.5 C 519.666 307.5 520.446 307.131 521 307.5 C 521.62 307.913 521.473 308.973 522 309.5 C 522.527 310.027 523.394 310.067 524 310.5 C 524.575 310.911 525.059 311.448 525.5 312 C 525.733 312.291 526 313 526 313 "/>
  <path id="ID0.6210101279430091" fill="none" stroke="#1F1F1F" stroke-width="2" stroke-linecap="round" d="M 531.5 316.5 C 531.5 316.5 533.195 316.268 534 316 C 534.706 315.765 535.394 315.433 536 315 C 536.575 314.589 537.114 313.371 537.5 313.5 C 537.864 313.621 537.136 315.379 537.5 315.5 C 537.886 315.629 538.589 314.575 539 314 C 539.433 313.394 539.567 312.606 540 312 C 540.411 311.425 540.821 310.694 541.5 310.5 C 542.16 310.311 542.819 311.085 543.5 311 C 544.239 310.908 544.894 310.433 545.5 310 C 546.075 309.589 546.5 308.999 547 308.5 C 547.5 308.001 548 307.499 548.5 307 C 549 306.501 549.54 306.036 550 305.5 C 550.542 304.868 550.958 304.132 551.5 303.5 C 551.96 302.964 552.391 301.878 553 302 C 553.641 302.128 553.38 303.587 554 304 C 554.554 304.369 555.446 304.369 556 304 C 556.62 303.587 556.667 302.666 557 302 C 557.333 301.334 557.5 300 558 300 C 558.5 300 558.567 301.394 559 302 C 559.411 302.575 560 303.001 560.5 303.5 C 561 303.999 561.5 304.501 562 305 C 562.5 305.499 562.887 306.15 563.5 306.5 C 564.096 306.841 564.857 306.759 565.5 307 C 566.197 307.261 566.869 307.605 567.5 308 C 568.206 308.441 568.834 309.001 569.5 309.5 C 569.666 309.625 569.5 309.5 569.5 309.5 "/>
  <path id="ID0.9742986303754151" fill="none" stroke="#1F1F1F" stroke-width="2" stroke-linecap="round" d="M 565.5 299.5 C 565.5 299.5 566.904 299.659 567.5 300 C 568.113 300.35 568.5 301.001 569 301.5 C 569.5 301.999 570.089 302.425 570.5 303 C 570.933 303.606 571.067 304.394 571.5 305 C 571.911 305.575 572.5 306.001 573 306.5 C 573.5 306.999 573.935 307.576 574.5 308 C 574.641 308.106 575 308 575 308 "/>
  <path id="ID0.545967401470989" fill="none" stroke="#1F1F1F" stroke-width="2" stroke-linecap="round" d="M 294 483.5 C 294 483.5 294.254 485.503 295 486 C 295.571 486.381 296.411 485.147 297 485.5 C 297.589 485.853 297.14 487.5 297.5 487.5 C 297.89 487.5 298.323 485.5 298.5 485.5 C 298.677 485.5 298.008 487.131 298.5 487.5 C 299.008 487.881 300.071 487.536 300.5 487 C 300.916 486.48 300.029 485.471 300.5 485 C 300.971 484.529 301.98 485.416 302.5 485 C 303.036 484.571 302.833 483.666 303 483 C 303.167 482.334 303.259 481.643 303.5 481 C 303.761 480.303 304.319 479.722 304.5 479 C 304.662 478.354 304.029 477.471 304.5 477 C 304.971 476.529 305.888 476.738 306.5 477 C 307.149 477.278 307.391 478.622 308 478.5 C 308.641 478.372 308.739 477.197 309 476.5 C 309.241 475.857 309.415 475.181 309.5 474.5 C 309.583 473.839 309.028 472.736 309.5 472.5 C 310.028 472.236 310.834 473.167 311.5 473.5 C 312.166 473.833 312.755 474.5 313.5 474.5 C 314.245 474.5 314.894 473.933 315.5 473.5 C 316.075 473.089 316.5 472.5 317 472 C 317.5 471.5 318.114 470.371 318.5 470.5 C 318.864 470.621 318.131 471.946 318.5 472.5 C 318.913 473.12 319.794 473.265 320.5 473.5 C 320.816 473.605 321.5 473.5 321.5 473.5 "/>
  <path id="ID0.01610897947102785" fill="none" stroke="#1F1F1F" stroke-width="2" stroke-linecap="round" d="M 346.5 431 C 346.5 431 345.042 431.868 344.5 432.5 C 344.015 433.065 343.439 434.439 343.5 434.5 C 343.561 434.561 344.387 433.35 345 433 C 345.596 432.659 346.9 432.299 347 432.5 C 347.1 432.701 345.96 433.464 345.5 434 C 344.958 434.632 344 435.167 344 436 C 344 436.706 345 437 345.5 437.5 C 346 438 346.722 438.351 347 439 C 347.262 439.612 347.162 440.354 347 441 C 346.819 441.722 346.261 442.303 346 443 C 345.759 443.643 345.667 444.334 345.5 445 C 345.333 445.666 345.217 446.349 345 447 C 344.882 447.353 344.5 448 344.5 448 "/>
  <path id="ID0.9534135041758418" fill="none" stroke="#1F1F1F" stroke-width="2" stroke-linecap="round" d="M 340 442 C 340 442 339.674 447.072 339 449.5 C 338.811 450.181 337.911 450.425 337.5 451 C 337.067 451.606 336.965 452.419 336.5 453 C 335.617 454.103 334.499 455.001 333.5 456 C 333.25 456.25 333 456.5 333 456.5 "/>
  <path id="ID0.1659815744496882" fill="none" stroke="#3B4549" stroke-width="2" stroke-linecap="round" d="M 149.5 581.5 C 149.5 581.5 150.559 580.206 151 579.5 C 151.395 578.869 151.515 578.065 152 577.5 C 152.542 576.868 153.373 576.548 154 576 C 154.709 575.38 155.291 574.62 156 574 C 156.627 573.452 157.294 572.941 158 572.5 C 158.631 572.105 159.394 571.933 160 571.5 C 160.575 571.089 160.904 570.379 161.5 570 C 162.756 569.2 164.237 568.789 165.5 568 C 166.912 567.118 168.131 565.948 169.5 565 C 170.298 564.447 171.168 564 172 563.5 C 172.832 563 173.632 562.434 174.5 562 C 175.302 561.599 176.163 561.322 177 561 C 178.328 560.489 179.728 560.136 181 559.5 C 181.745 559.128 182.294 558.441 183 558 C 183.631 557.605 184.334 557.333 185 557 C 185.666 556.667 186.305 556.267 187 556 C 188.474 555.433 190.001 555 191.5 554.5 C 191.875 554.375 191.5 554.5 191.5 554.5 "/>
  <path id="ID0.5334842689335346" fill="none" stroke="#3B4549" stroke-width="2" stroke-linecap="round" d="M 174.5 582 C 174.5 582 176.9 580.77 178 580 C 178.579 579.595 178.901 578.874 179.5 578.5 C 180.26 578.025 181.254 577.997 182 577.5 C 182.784 576.978 183.334 576.166 184 575.5 C 184.499 575 184.925 574.411 185.5 574 C 186.106 573.567 186.894 573.433 187.5 573 C 188.075 572.589 188.425 571.911 189 571.5 C 189.606 571.067 190.404 570.947 191 570.5 C 191.753 569.935 192.257 569.078 193 568.5 C 193.766 567.904 194.723 567.583 195.5 567 C 196.065 566.576 196.464 565.96 197 565.5 C 197.632 564.958 198.334 564.5 199 564 C 199.666 563.5 200.368 563.042 201 562.5 C 201.536 562.04 201.925 561.411 202.5 561 C 203.106 560.567 203.904 560.447 204.5 560 C 205.916 558.938 207.162 557.659 208.5 556.5 C 209.66 555.495 210.759 554.403 212 553.5 C 212.602 553.062 213.394 552.933 214 552.5 C 214.575 552.089 214.925 551.411 215.5 551 C 216.106 550.567 216.857 550.375 217.5 550 C 218.857 549.209 220.095 548.202 221.5 547.5 C 222.114 547.193 223.5 547 223.5 547 "/>
  <path id="ID0.7959483140148222" fill="none" stroke="#3B4549" stroke-width="2" stroke-linecap="round" d="M 203 584 C 203 584 204.001 582.666 204.5 582 C 204.999 581.334 205.559 580.706 206 580 C 206.395 579.369 206.567 578.606 207 578 C 207.411 577.425 208.076 577.065 208.5 576.5 C 209.083 575.723 209.385 574.751 210 574 C 210.895 572.907 212.055 572.05 213 571 C 213.557 570.381 213.947 569.622 214.5 569 C 215.282 568.12 216.168 567.332 217 566.5 C 218.665 564.835 220.335 563.165 222 561.5 C 222.499 561 222.935 560.424 223.5 560 C 223.641 559.894 224 560 224 560 "/>
  <path id="ID0.8135135504417121" fill="none" stroke="#3B4549" stroke-width="2" stroke-linecap="round" d="M 233 582 C 233 582 233.195 580.292 233.5 579.5 C 234.035 578.11 234.75 576.786 235.5 575.5 C 235.919 574.781 236.5 574.166 237 573.5 C 237.5 572.834 238 572.166 238.5 571.5 C 239 570.834 239.384 570.06 240 569.5 C 241.232 568.38 242.736 567.584 244 566.5 C 245.073 565.581 245.843 564.31 247 563.5 C 247.562 563.106 248.404 563.341 249 563 C 249.613 562.65 250 562 250.5 561.5 C 250.625 561.375 250.5 561.5 250.5 561.5 "/>
  <path id="ID0.7275845436379313" fill="none" stroke="#3B4549" stroke-width="2" stroke-linecap="round" d="M 241 576.5 C 241 576.5 240.594 578.73 241 579 C 241.344 579.23 241.925 577.911 242.5 577.5 C 243.106 577.067 243.894 576.933 244.5 576.5 C 245.075 576.089 245.464 575.46 246 575 C 246.632 574.458 247.255 573.872 248 573.5 C 248.614 573.193 249.404 573.341 250 573 C 250.613 572.65 250.925 571.911 251.5 571.5 C 252.106 571.067 252.894 570.933 253.5 570.5 C 254.075 570.089 254.435 569.424 255 569 C 255.777 568.417 256.723 568.083 257.5 567.5 C 258.065 567.076 258.5 566.5 259 566 C 259.167 565.834 259.5 565.5 259.5 565.5 "/>
  <path id="ID0.7915392830036581" fill="none" stroke="#3B4549" stroke-width="2" stroke-linecap="round" d="M 262 567 C 262 567 262 573.5 262 573.5 "/>
  <path id="ID0.5059722671285272" fill="none" stroke="#3B4549" stroke-width="2" stroke-linecap="round" d="M 199 551.5 C 199 551.5 202.027 552.067 203.5 552.5 C 204.865 552.901 206.16 553.522 207.5 554 C 208.492 554.354 209.51 554.64 210.5 555 C 211.343 555.306 212.125 555.805 213 556 C 213.65 556.144 214.342 555.899 215 556 C 216.517 556.233 217.98 556.783 219.5 557 C 220.324 557.118 221.177 556.873 222 557 C 223.357 557.209 224.643 557.791 226 558 C 226.823 558.127 227.672 557.917 228.5 558 C 229.345 558.084 230.156 558.406 231 558.5 C 231.662 558.574 232.341 558.406 233 558.5 C 234.681 558.74 236.311 559.322 238 559.5 C 239.49 559.657 241.006 559.385 242.5 559.5 C 243.184 559.553 243.819 559.915 244.5 560 C 246.489 560.249 248.515 560.216 250.5 560.5 C 254.348 561.05 262 562.5 262 562.5 "/>
  <path id="ID0.3308943076990545" fill="none" stroke="#3B4549" stroke-width="2" stroke-linecap="round" d="M 182.5 563 C 182.5 563 187.534 563.071 190 563.5 C 191.402 563.744 192.62 564.655 194 565 C 194.646 565.162 195.354 564.838 196 565 C 196.722 565.181 197.289 565.778 198 566 C 199.966 566.614 201.995 567.028 204 567.5 C 204.826 567.694 205.712 567.685 206.5 568 C 207.401 568.361 208.079 569.193 209 569.5 C 210.611 570.037 212.359 570.062 214 570.5 C 214.866 570.731 215.641 571.242 216.5 571.5 C 217.313 571.744 218.186 571.76 219 572 C 221.02 572.594 222.975 573.421 225 574 C 226.476 574.422 228.017 574.604 229.5 575 C 230.517 575.271 231.522 575.609 232.5 576 C 233.191 576.277 233.778 576.819 234.5 577 C 235.146 577.162 235.854 576.838 236.5 577 C 237.222 577.181 237.551 577.719 238.5 578 C 242.295 579.124 250 581 250 581 "/>
  <path id="ID0.9816788625903428" fill="none" stroke="#3B4549" stroke-width="2" stroke-linecap="round" d="M 266 551.5 C 266 551.5 267.294 552.265 268 552.5 C 269.303 552.934 270.704 553.046 272 553.5 C 274.043 554.215 275.947 555.316 278 556 C 279.954 556.651 282.024 556.919 284 557.5 C 284.86 557.753 285.649 558.216 286.5 558.5 C 287.151 558.717 287.819 558.915 288.5 559 C 289.161 559.083 289.854 558.838 290.5 559 C 291.222 559.181 291.82 559.698 292.5 560 C 293.319 560.364 294.141 560.742 295 561 C 295.813 561.244 296.687 561.256 297.5 561.5 C 298.359 561.758 299.149 562.216 300 562.5 C 302.148 563.216 304.352 563.784 306.5 564.5 C 307.037 564.679 307.5 565 307.5 565 "/>
  <path id="ID0.5959833641536534" fill="none" stroke="#3B4549" stroke-width="2" stroke-linecap="round" d="M 278 566 C 278 566 280.012 566.276 281 566.5 C 283.678 567.109 289 568.5 289 568.5 "/>
  <path id="ID0.655509399715811" fill="none" stroke="#3B4549" stroke-width="2" stroke-linecap="round" d="M 286.5 554.5 C 286.5 554.5 285.882 556.189 285.5 557 C 284.549 559.021 283.545 561.026 282.5 563 C 282.046 563.858 281.46 564.645 281 565.5 C 280.294 566.811 279.75 568.214 279 569.5 C 278.581 570.219 277.844 570.742 277.5 571.5 C 276.998 572.603 276.5 575 276.5 575 "/>
  <path id="ID0.5218769600614905" fill="none" stroke="#3B4549" stroke-width="2" stroke-linecap="round" d="M 297.5 557 C 297.5 557 297.935 558.654 298 559.5 C 298.102 560.828 298 562.168 298 563.5 C 298 564.166 298.162 564.854 298 565.5 C 297.489 567.543 296.605 569.483 296 571.5 C 295.605 572.815 295.269 574.154 295 575.5 C 294.933 575.837 295 576.5 295 576.5 "/>
  <path id="ID0.593637797050178" fill="none" stroke="#3B4549" stroke-width="2" stroke-linecap="round" d="M 239 547.5 C 239 547.5 238.768 549.195 238.5 550 C 238.265 550.706 237.933 551.394 237.5 552 C 237.089 552.575 236.575 553.089 236 553.5 C 235.394 553.933 234.568 554.019 234 554.5 C 232.382 555.869 230.999 557.502 229.5 559 C 229.001 559.5 228.4 559.918 228 560.5 C 226.56 562.594 225.189 564.754 224 567 C 223.679 567.607 223.741 568.357 223.5 569 C 223.239 569.697 222.705 570.284 222.5 571 C 222.363 571.48 222.5 572.5 222.5 572.5 "/>
  <path id="ID0.740105445496738" fill="none" stroke="#3B4549" stroke-width="2" stroke-linecap="round" d="M 173 550.5 C 173 550.5 171.472 552.636 170.5 553.5 C 169.943 553.995 169.106 554.067 168.5 554.5 C 167.925 554.911 167.525 555.527 167 556 C 165.859 557.027 164.777 558.149 163.5 559 C 162.261 559.826 160.756 560.2 159.5 561 C 158.904 561.379 158.575 562.089 158 562.5 C 157.394 562.933 156.606 563.067 156 563.5 C 155.425 563.911 154.952 564.457 154.5 565 C 154.116 565.461 153.5 566.5 153.5 566.5 "/>
  <path id="ID0.635040289722383" fill="none" stroke="#3B4549" stroke-width="2" stroke-linecap="round" d="M 253 547 C 253 547 252.48 550.701 252 552.5 C 251.808 553.219 251.333 553.834 251 554.5 C 250.667 555.166 250.433 555.894 250 556.5 C 249.589 557.075 248.96 557.464 248.5 558 C 247.958 558.632 247.542 559.368 247 560 C 246.54 560.536 245.911 560.925 245.5 561.5 C 245.067 562.106 245.027 562.973 244.5 563.5 C 243.973 564.027 243.106 564.067 242.5 564.5 C 241.925 564.911 241.5 565.5 241 566 C 240.5 566.5 240 567 239.5 567.5 C 239 568 238.424 568.435 238 569 C 237.894 569.141 238 569.5 238 569.5 "/>
  <path id="ID0.7333401665091515" fill="none" stroke="#3B4549" stroke-width="2" stroke-linecap="round" d="M 314.5 552.5 C 314.5 552.5 320.204 553.701 323 554.5 C 323.716 554.705 324.294 555.265 325 555.5 C 326.303 555.934 327.646 556.274 329 556.5 C 329.657 556.609 331 556.5 331 556.5 "/>
  <path id="ID0.41423711460083723" fill="none" stroke="#3B4549" stroke-width="2" stroke-linecap="round" d="M 345 554.5 C 345 554.5 346.641 555.242 347.5 555.5 C 348.313 555.744 349.171 555.816 350 556 C 350.67 556.149 351.334 556.334 352 556.5 C 352.666 556.666 353.357 556.759 354 557 C 354.697 557.261 355.278 557.819 356 558 C 356.646 558.162 357.343 557.891 358 558 C 358.367 558.061 359 558.5 359 558.5 "/>
  <path id="ID0.443627430126071" fill="none" stroke="#3B4549" stroke-width="2" stroke-linecap="round" d="M 320 560 C 320 560 321.458 559.132 322 558.5 C 322.485 557.935 322.567 557.106 323 556.5 C 323.411 555.925 324.15 555.613 324.5 555 C 324.841 554.404 324.833 553.666 325 553 C 325.042 552.834 325 553 325 553 "/>
  <path id="ID0.3989587347023189" fill="none" stroke="#3B4549" stroke-width="2" stroke-linecap="round" d="M 346.5 564.5 C 346.5 564.5 347.167 563.166 347.5 562.5 C 348.499 560.502 349.649 558.566 350.5 556.5 C 350.823 555.715 351 554 351 554 "/>
</svg>