<svg xmlns="http://www.w3.org/2000/svg" xmlns:xlink="http://www.w3.org/1999/xlink" version="1.1" width="611.1691665544198" height="989.4596938981698" viewBox="0.8432440810359569 -2.0346565193973927 611.1691665544198 989.4596938981698">
  <!-- Exported by Scratch - http://scratch.mit.edu/ -->
  <path id="ID0.3538601119071245" fill="#616D68" stroke="none" d="M 25.15 274 L 529.0138 274 L 529.0138 564.7714 L 25.15 564.7714 L 25.15 274 Z " stroke-width="1.0497163534164429"/>
  <path id="ID0.5921244332566857" fill="#515B57" stroke="none" d="M 290.1445 79.9056 L 483.7278 79.9056 L 483.7278 545.6278 L 290.1445 545.6278 L 290.1445 79.9056 Z " stroke-width="1.8703703880310059"/>
  <path id="ID0.3581747869029641" fill="#49524E" stroke="none" stroke-linecap="round" d="M 263.9593 550.3037 L 485.9722 494.0056 L 609.9778 496.9982 L 537.0333 584.9056 L 263.9593 550.3037 Z " stroke-width="1.8703703880310059"/>
  <g id="ID0.3669205326586962">
    <path id="ID0.40186213981360197" fill="#464646" stroke="none" d="M 187.6191 0 L 354.5688 0 L 354.5688 521.4832 L 187.6191 521.4832 L 187.6191 0 Z " stroke-width="1.8758388757705688"/>
    <path id="ID0.26974465046077967" fill="#525252" stroke="none" d="M 182 510.2315 L 362.0805 510.2315 L 362.0805 559.0033 L 182 559.0033 L 182 510.2315 Z " stroke-width="1.8758388757705688"/>
    <path id="ID0.27754563372582197" fill="#464646" stroke="none" d="M 207.2896 524.2694 C 210.1352 524.2694 212.7145 525.425 214.5828 527.2933 C 216.4512 529.1616 217.6067 531.7409 217.6067 534.5866 C 217.6067 537.4322 216.4512 540.0115 214.5828 541.8798 C 212.7145 543.7482 210.1352 544.9037 207.2896 544.9037 C 204.4439 544.9037 201.8647 543.7482 199.9963 541.8798 C 198.128 540.0115 196.9725 537.4322 196.9725 534.5866 C 196.9725 531.7409 198.128 529.1616 199.9963 527.2933 C 201.8647 525.425 204.4439 524.2694 207.2896 524.2694 Z " stroke-width="1.8758388757705688"/>
    <path id="ID0.27754563372582197" fill="#464646" stroke="none" d="M 340.4896 523.3194 C 343.3352 523.3194 345.9145 524.475 347.7828 526.3433 C 349.6512 528.2116 350.8067 530.7909 350.8067 533.6366 C 350.8067 536.4822 349.6512 539.0615 347.7828 540.9298 C 345.9145 542.7982 343.3352 543.9537 340.4896 543.9537 C 337.6439 543.9537 335.0647 542.7982 333.1963 540.9298 C 331.328 539.0615 330.1725 536.4822 330.1725 533.6366 C 330.1725 530.7909 331.328 528.2116 333.1963 526.3433 C 335.0647 524.475 337.6439 523.3194 340.4896 523.3194 Z " stroke-width="1.8758388757705688"/>
    <path id="ID0.1625989256426692" fill="none" stroke="#463727" stroke-width="3.7516777515411377" stroke-linecap="round" d="M 189.4691 491.4698 C 189.4691 491.4698 189.244 488.2039 188.5312 486.7802 C 187.9384 485.5947 186.0813 485.2401 185.7174 483.9664 C 185.3629 482.7284 186.344 481.4641 186.6554 480.2148 C 186.9667 478.9654 187.4338 477.7405 187.5933 476.4631 C 187.749 475.2231 187.749 473.9513 187.5933 472.7114 C 187.4338 471.434 186.4959 470.2372 186.6554 468.9597 C 186.8279 467.5735 188.1917 466.5624 188.5312 465.208 C 188.8351 463.9962 188.5312 462.7057 188.5312 461.4564 C 188.5312 456.4591 188.7807 451.4413 188.5312 446.4497 C 188.4674 445.1628 187.6739 443.9829 187.5933 442.698 C 187.3588 438.9576 187.5933 435.1909 187.5933 431.4429 C 187.5933 430.1936 187.2894 428.9031 187.5933 427.6913 C 187.9328 426.3369 188.6569 425.0763 189.4691 423.9396 C 190.2401 422.861 191.7614 422.3432 192.2829 421.1258 C 192.7743 419.9778 192.2829 418.6235 192.2829 417.3741 C 192.2829 416.1248 192.5868 414.8343 192.2829 413.6225 C 191.9433 412.2681 190.8479 411.1951 190.407 409.8708 C 189.5929 407.4266 189.3453 404.8117 188.5312 402.3674 C 188.0904 401.0431 186.9949 399.9701 186.6554 398.6158 C 186.3515 397.404 186.4997 396.104 186.6554 394.8641 C 186.8148 393.5866 187.0981 392.3017 187.5933 391.1124 C 188.6681 388.5331 190.2701 386.1883 191.345 383.6091 C 191.8402 382.4198 191.8308 381.0635 192.2829 379.8574 C 192.7725 378.5499 193.6691 377.4132 194.1587 376.1057 C 194.6108 374.8995 195.0329 373.6408 195.0966 372.354 C 195.3461 367.3624 194.8471 362.3389 195.0966 357.3473 C 195.1604 356.0605 195.7232 354.8449 196.0345 353.5956 C 196.3459 352.3463 196.8655 351.127 196.9725 349.844 C 197.1807 347.3547 196.663 344.8205 196.9725 342.3406 C 197.2914 339.7857 198.4244 337.3771 198.8483 334.8372 C 199.0528 333.6048 198.8483 332.3349 198.8483 331.0856 C 198.8483 330.7723 198.8483 330.1476 198.8483 330.1476 "/>
    <path id="ID0.6309166713617742" fill="none" stroke="#463727" stroke-width="3.7516777515411377" stroke-linecap="round" d="M 186.6554 286.0654 C 186.6554 286.0654 187.37 292.3138 187.5933 295.4446 C 187.6814 296.6902 187.2894 297.9845 187.5933 299.1963 C 187.9328 300.5507 189.1371 302.948 189.4691 302.948 C 189.8011 302.948 189.4691 298.5716 189.4691 299.1963 C 189.4691 300.1361 188.9645 305.6905 189.4691 306.6997 C 189.8049 307.3731 190.407 302.948 191.345 302.948 C 192.2829 302.948 192.7012 305.4035 193.2208 306.6997 C 193.3502 307.0242 193.2208 307.6376 193.2208 307.6376 "/>
    <path id="ID0.17616035882383585" fill="none" stroke="#554230" stroke-width="3.7516777515411377" stroke-linecap="round" d="M 186.6554 314.203 C 186.6554 314.203 186.8955 322.663 187.5933 325.458 C 187.8334 326.4147 187.8559 321.7064 188.5312 321.7064 C 189.2628 321.7064 189.6755 325.458 190.407 325.458 C 191.0823 325.458 191.2587 321.7064 191.345 321.7064 C 191.4312 321.7064 191.0129 325.458 191.345 325.458 C 191.677 325.458 192.78 323.0307 193.2208 321.7064 C 193.4178 321.1136 193.2208 319.8305 193.2208 319.8305 "/>
    <path id="ID0.3645863118581474" fill="none" stroke="#554230" stroke-width="3.7516777515411377" stroke-linecap="round" d="M 190.407 336.7131 C 190.407 336.7131 190.9754 346.7075 191.345 350.7819 C 191.4444 351.8661 191.345 348.2795 191.345 347.0302 C 191.345 345.7809 191.5006 342.6557 191.345 343.2785 C 191.1048 344.2408 190.8704 348.3076 190.407 350.7819 C 189.9324 353.3124 188.8501 355.7303 188.5312 358.2852 C 188.2217 360.7651 188.323 363.2993 188.5312 365.7886 C 188.9495 370.8064 190.1557 375.7662 190.407 380.7953 C 190.4708 382.0821 190.1088 383.429 189.4691 384.547 C 188.8126 385.6969 187.1768 386.1433 186.6554 387.3607 C 186.1639 388.5087 186.3515 389.9006 186.6554 391.1124 C 186.9949 392.4668 188.3023 393.4872 188.5312 394.8641 C 188.942 397.3289 188.323 399.8782 188.5312 402.3674 C 188.6381 403.6505 189.4016 404.247 189.4691 406.1191 C 189.7374 413.6093 190.0037 421.1521 189.4691 428.6292 C 189.3359 430.4975 187.6796 430.9871 187.5933 432.3809 C 187.3588 436.1344 188.5312 439.8748 188.5312 443.6359 C 188.5312 444.9227 187.2387 446.1495 187.5933 447.3876 C 187.9572 448.6613 189.7505 449.0514 190.407 450.2013 C 191.0467 451.3193 191.2793 452.3923 191.345 453.953 C 191.6057 460.1939 191.345 472.7114 191.345 472.7114 "/>
    <path id="ID0.4189241696149111" fill="none" stroke="#554230" stroke-width="3.7516777515411377" stroke-linecap="round" d="M 199.7862 527.7673 C 199.7862 527.7673 198.0154 529.992 197.7228 531.3314 C 197.4546 532.5619 197.7509 533.9031 198.1918 535.083 C 198.6495 536.308 199.9663 537.1146 200.349 538.3658 C 200.7148 539.5607 199.5968 541.1195 200.349 542.1174 C 201.1406 543.166 202.827 543.0178 204.1007 543.3367 C 205.3312 543.6444 206.588 544.0889 207.8523 543.9933 C 209.1617 543.8957 210.4129 543.3255 211.604 542.774 C 212.1274 542.532 212.9171 541.6485 212.9171 541.6485 "/>
    <path id="ID0.32698389142751694" fill="none" stroke="#554230" stroke-width="3.7516777515411377" stroke-linecap="round" d="M 338.9735 524.0156 C 338.9735 524.0156 336.3942 525.3343 335.2218 526.1728 C 334.1957 526.9063 333.1152 527.6622 332.408 528.7052 C 331.699 529.7519 331.0443 531.005 331.0949 532.2693 C 331.1456 533.5692 332.0816 534.6835 332.6894 535.8334 C 333.8656 538.06 334.3233 541.037 336.4411 542.3988 C 338.4145 543.6688 343.4755 542.774 343.4755 542.774 "/>
    <path id="ID0.8513722200877964" fill="none" stroke="#554230" stroke-width="3.7516777515411377" stroke-linecap="round" d="M 265.1592 509.5716 C 265.1592 509.5716 267.8454 509.2903 269.1923 509.2903 C 271.6928 509.2903 274.2195 509.2208 276.6956 509.5716 C 278.0068 509.7573 279.1342 510.7196 280.4473 510.8847 C 281.6929 511.0404 282.9572 510.6953 284.199 510.5096 C 285.4595 510.3201 286.677 509.7592 287.9507 509.7592 C 290.4624 509.7592 292.9479 510.3426 295.454 510.5096 C 296.7014 510.5921 298.0202 510.1137 299.2057 510.5096 C 300.3912 510.9054 301.5449 511.7007 302.207 512.7606 C 302.8823 513.841 302.9893 515.2385 302.9574 516.5122 C 302.9255 517.7991 302.5897 519.1084 302.0194 520.2639 C 301.4398 521.4401 299.4233 522.0572 299.5809 523.359 C 299.7365 524.6421 301.6874 524.871 302.676 525.7038 C 303.6571 526.5292 305.0789 527.1164 305.4897 528.33 C 305.8968 529.5306 304.8332 532.0817 304.8332 532.0817 "/>
    <path id="ID0.10430877655744553" fill="none" stroke="#433425" stroke-width="3.7516777515411377" stroke-linecap="round" d="M 276.8832 516.3247 C 276.8832 516.3247 281.2239 515.5368 283.2611 516.1371 C 284.471 516.4935 284.6248 518.48 285.7934 518.9508 C 286.9546 519.4198 288.2921 518.6694 289.5451 518.6694 C 290.7982 518.6694 292.0888 519.281 293.2968 518.9508 C 294.5086 518.6188 295.5234 516.3941 296.3919 516.7936 C 297.2586 517.1913 296.7671 520.5453 296.7671 520.5453 "/>
    <path id="ID0.6340935183688998" fill="none" stroke="#433425" stroke-width="3.7516777515411377" stroke-linecap="round" d="M 307.647 513.6985 C 307.647 513.6985 308.4198 516.3622 308.5849 517.7315 C 308.7349 518.9715 308.5849 520.2339 308.5849 521.4832 C 308.5849 522.2636 308.5849 523.828 308.5849 523.828 "/>
    <path id="ID0.09934926778078079" fill="none" stroke="#433425" stroke-width="3.7516777515411377" stroke-linecap="round" d="M 354.9181 89.2899 C 354.9181 89.2899 354.0909 91.8861 353.9802 93.2292 C 353.7757 95.7203 354.0308 98.2339 353.9802 100.7325 C 353.9051 104.4823 353.605 108.2378 353.605 111.9876 C 353.605 114.4899 353.8976 116.9904 353.9802 119.4909 C 354.0215 120.7402 353.8564 121.9989 353.9802 123.2426 C 354.1077 124.5107 354.603 125.7262 354.7305 126.9943 C 354.8543 128.238 354.8093 129.4985 354.7305 130.746 C 354.6517 132.0028 354.4942 133.2596 354.2616 134.4976 C 354.0233 135.7638 353.5656 136.985 353.3236 138.2493 C 352.8472 140.7348 353.2542 143.4979 352.1043 145.7527 C 351.521 146.8969 349.8665 147.8086 348.634 147.4409 C 347.4279 147.0808 347.4954 145.1787 346.7582 144.1582 C 346.0191 143.1359 345.462 141.5921 344.2258 141.3445 C 342.9502 141.0893 341.9204 142.6163 340.6617 142.9389 C 339.4481 143.2503 338.1631 143.2334 336.91 143.2203 C 331.9109 143.1697 326.9024 142.832 321.9033 142.7513 C 320.654 142.7307 319.2772 142.9389 319.2772 142.9389 "/>
    <path id="ID0.0030906405299901962" fill="none" stroke="#433425" stroke-width="3.7516777515411377" stroke-linecap="round" d="M 335.9721 144.1582 C 335.9721 144.1582 336.8988 146.8107 337.0976 148.1913 C 337.2758 149.4274 337.0507 150.6936 337.0976 151.9429 C 337.1445 153.1941 337.289 154.4453 337.379 155.6946 C 337.4015 156.0079 337.379 155.8822 337.379 155.8822 "/>
    <path id="ID0.7796101425774395" fill="none" stroke="#433425" stroke-width="3.7516777515411377" stroke-linecap="round" d="M 353.605 168.2627 C 353.605 168.2627 354.1471 170.9396 354.2616 172.2958 C 354.3666 173.5414 354.2616 174.7982 354.2616 176.0475 C 354.2616 177.2968 354.9425 178.7506 354.2616 179.7992 C 353.5694 180.8665 351.9374 180.844 350.7913 181.3936 C 349.6582 181.9376 348.6716 183.0331 347.4147 183.0819 C 346.081 183.1344 344.9218 182.1158 343.6631 181.675 C 342.4231 181.2417 341.2189 180.3281 339.9114 180.4557 C 338.739 180.5701 336.91 182.3315 336.91 182.3315 "/>
    <path id="ID0.510544499848038" fill="none" stroke="#433425" stroke-width="3.7516777515411377" stroke-linecap="round" d="M 353.605 180.4557 C 353.605 180.4557 354.1959 183.1288 354.2616 184.4888 C 354.3216 185.7399 354.0834 186.9911 353.9802 188.2404 C 353.772 190.739 353.6144 193.2527 353.3236 195.7438 C 353.1773 197.0044 352.7721 198.2311 352.6671 199.4955 C 352.4589 201.9866 352.3857 204.4983 352.3857 206.9988 C 352.3857 208.0343 352.6671 210.094 352.6671 210.094 "/>
    <path id="ID0.2437504162080586" fill="none" stroke="#464646" stroke-width="3.7516777515411377" stroke-linecap="round" d="M 246.6822 519.8887 C 246.6822 519.8887 244.3243 521.4513 243.3057 522.4211 C 242.3415 523.3403 241.5311 524.4208 240.7733 525.5163 C 240.0567 526.5517 238.4585 528.4257 238.8975 528.799 C 239.3364 529.1723 241.428 527.7298 242.6491 527.1107 C 243.7728 526.5423 244.8082 525.8033 245.9319 525.2349 C 247.0911 524.6477 248.9126 523.1039 249.496 523.6404 C 250.085 524.1825 248.9088 526.2403 248.2767 527.3921 C 247.637 528.5607 245.5154 530.189 245.7443 530.4872 C 245.9731 530.7855 248.2992 529.6018 249.496 528.9866 C 250.6215 528.4088 252.2272 526.5123 252.6849 526.9231 C 253.1426 527.3339 252.0621 529.5456 251.3718 530.6748 C 250.6571 531.8435 249.4734 532.6576 248.558 533.6762 C 246.7253 535.7171 243.6921 538.0788 243.1181 539.8664 C 242.848 540.7049 245.7011 539.4706 246.8698 538.9285 C 248.301 538.2663 249.4716 537.1371 250.809 536.3023 C 251.9721 535.5764 253.1839 534.9236 254.3731 534.2389 C 255.4649 533.6105 257.0762 531.8997 257.6559 532.3631 C 258.2486 532.8377 257.4345 535.0455 256.7179 536.1148 C 255.2792 538.2626 251.7807 540.7818 251.3718 541.7423 C 251.0923 542.4007 253.9248 540.583 255.1235 539.8664 C 256.3353 539.1424 257.3951 538.1744 258.5938 537.4278 C 259.7099 536.7338 260.8861 536.1335 262.0641 535.552 C 263.2308 534.9761 264.3864 533.573 265.6282 533.9575 C 266.8306 534.3308 267.8567 536.0322 267.504 537.2403 C 266.7668 539.7708 263.2534 542.6445 262.8144 543.6181 C 262.5312 544.2465 264.8047 541.8529 265.8158 540.9919 C 266.93 540.0428 268.018 539.0504 269.1923 538.1782 C 270.2071 537.4241 271.8241 535.6964 272.3812 536.1148 C 272.9496 536.5406 272.0323 538.7203 271.4433 539.8664 C 270.8449 541.0294 268.0949 542.5901 268.9109 542.8678 C 270.4397 543.3874 273.7524 542.0405 276.1329 541.4609 C 277.3522 541.1645 278.5152 540.6618 279.697 540.2416 C 280.8881 539.8177 282.4357 538.3151 283.2611 538.9285 C 284.077 539.5344 283.5143 541.5472 282.9797 542.6802 C 282.4151 543.8788 279.9296 544.5016 280.1659 545.4939 C 280.3985 546.4713 282.6176 546.5088 283.9176 546.6194 C 287.8081 546.9496 291.7417 546.6176 295.6416 546.807 C 296.904 546.8689 298.1327 547.276 299.3933 547.3698 C 300.6388 547.4636 301.8975 547.3098 303.1449 547.3698 C 304.4618 547.4336 305.7805 547.5536 307.0842 547.745 C 308.3448 547.9288 309.5828 548.2627 310.8359 548.4953 C 311.1492 548.5534 311.1173 548.4953 311.1173 548.4953 "/>
    <path id="ID0.4610351463779807" fill="none" stroke="#464646" stroke-width="3.7516777515411377" stroke-linecap="round" d="M 296.7671 541.4609 C 296.7671 541.4609 316.4634 540.054 316.4634 540.054 "/>
    <path id="ID0.20848078886047006" fill="none" stroke="#464646" stroke-width="3.7516777515411377" stroke-linecap="round" d="M 189.6567 550.1835 C 189.6567 550.1835 191.3562 552.5996 192.658 552.7159 C 195.2017 552.9429 197.6853 551.7517 200.1614 551.1215 C 201.3769 550.8119 202.4818 549.7315 203.7255 549.9022 C 205.0217 550.0804 205.7326 551.7705 207.0082 552.0594 C 208.2406 552.3389 209.5181 551.264 210.7599 551.4966 C 211.9979 551.7274 212.7877 553.2693 214.0426 553.3725 C 215.3032 553.4756 216.5881 552.8078 217.6067 552.0594 C 219.7076 550.5156 221.349 548.4203 223.2342 546.6194 C 224.1609 545.7341 225.1269 544.8843 226.048 543.9933 C 227.0009 543.0722 227.8694 540.9432 228.8617 541.1795 C 229.839 541.4121 229.0099 544.6986 229.9872 544.9312 C 230.9796 545.1675 232.0544 543.2129 232.801 542.1174 C 234.4161 539.7483 237.0216 534.6141 237.0216 534.6141 "/>
    <path id="ID0.20281869592145085" fill="none" stroke="#464646" stroke-width="3.7516777515411377" stroke-linecap="round" d="M 228.1114 529.2679 C 228.1114 529.2679 229.5051 526.9625 230.1748 525.7976 C 230.8164 524.6834 231.3772 523.5166 232.0507 522.4211 C 232.7222 521.3294 233.5232 520.3164 234.2079 519.2322 C 234.6487 518.5344 235.4272 517.075 235.4272 517.075 "/>
    <path id="ID0.0035314783453941345" fill="none" stroke="#464646" stroke-width="3.7516777515411377" stroke-linecap="round" d="M 222.4839 523.1715 C 222.4839 523.1715 223.5869 520.7029 224.3597 519.6074 C 225.0988 518.5607 226.1624 517.7765 226.9859 516.7936 C 227.7887 515.8369 228.4265 514.7433 229.2369 513.7923 C 229.6815 513.2708 230.7376 512.3854 230.7376 512.3854 "/>
    <path id="ID0.854882332496345" fill="none" stroke="#464646" stroke-width="3.7516777515411377" stroke-linecap="round" d="M 333.1584 517.5439 C 333.1584 517.5439 322.6649 523.0439 322.6537 522.9839 C 322.6424 522.9257 329.3936 518.48 332.9708 516.606 C 335.2574 515.4074 337.6566 514.2687 340.1928 513.7923 C 341.444 513.5559 342.8058 513.9723 343.9444 514.5426 C 345.0718 515.1072 345.7828 516.2759 346.7582 517.075 C 347.0021 517.2738 347.0396 517.075 347.0396 517.075 "/>
    <path id="ID0.9488746449351311" fill="none" stroke="#464646" stroke-width="3.7516777515411377" stroke-linecap="round" d="M 355.6684 544.7436 C 355.6684 544.7436 354.5654 547.2122 353.7926 548.3077 C 353.0535 549.3544 352.0725 550.2154 351.1664 551.1215 C 350.8213 551.4666 350.0409 552.0594 350.0409 552.0594 "/>
    <path id="ID0.9566807094961405" fill="none" stroke="#464646" stroke-width="3.7516777515411377" stroke-linecap="round" d="M 342.0686 553.6538 C 342.0686 553.6538 337.0657 553.8883 334.5652 553.9352 C 332.0666 553.9821 329.5605 553.9352 327.0619 553.9352 C 326.4372 553.9352 326.5929 553.9352 326.5929 553.9352 "/>
    <path id="ID0.46704209549352527" fill="none" stroke="#3D3D3D" stroke-width="3.7516777515411377" stroke-linecap="round" d="M 287.3879 492.8767 C 287.3879 492.8767 288.7666 492.6159 291.421 492.5953 C 302.0401 492.5128 323.3102 492.5953 323.3102 492.5953 "/>
    <path id="ID0.8799887984059751" fill="none" stroke="#3D3D3D" stroke-width="3.7516777515411377" stroke-linecap="round" d="M 309.898 492.8767 C 309.898 492.8767 310.9822 495.5122 311.1173 496.9097 C 311.2373 498.1628 310.7646 499.4083 310.6483 500.6614 C 310.6089 501.0966 310.6483 501.9745 310.6483 501.9745 "/>
    <path id="ID0.7237194897606969" fill="none" stroke="#3D3D3D" stroke-width="3.7516777515411377" stroke-linecap="round" d="M 226.7045 400.4916 C 226.7045 400.4916 234.5268 400.1783 238.4285 400.304 C 242.2496 400.4278 246.0575 400.9812 249.8711 401.2419 C 252.4598 401.4183 255.0616 401.5383 257.6559 401.6171 C 262.3398 401.7578 271.7246 401.8985 271.7246 401.8985 "/>
    <path id="ID0.934737775940448" fill="none" stroke="#3D3D3D" stroke-width="3.7516777515411377" stroke-linecap="round" d="M 247.3387 402.555 C 247.3387 402.555 247.5882 405.2431 247.6201 406.5881 C 247.682 409.3043 247.6201 414.748 247.6201 414.748 "/>
    <path id="ID0.4893196043558419" fill="none" stroke="#3D3D3D" stroke-width="3.7516777515411377" stroke-linecap="round" d="M 215.9184 229.9778 C 215.9184 229.9778 218.4977 228.9686 219.8577 228.8523 C 221.1126 228.7454 222.3582 229.1825 223.6094 229.3213 C 227.4492 229.7452 231.2891 230.3324 235.1458 230.5406 C 239.9798 230.8013 249.6835 230.7282 249.6835 230.7282 "/>
    <path id="ID0.5065370434895158" fill="none" stroke="#3D3D3D" stroke-width="3.7516777515411377" stroke-linecap="round" d="M 231.8631 230.9158 C 231.8631 230.9158 231.8105 233.9227 231.6755 235.4178 C 231.5611 236.6765 231.2703 237.9164 231.1127 239.1695 C 230.957 240.415 230.9308 241.6812 230.7376 242.9211 C 230.6888 243.2306 230.4562 243.3901 230.4562 243.3901 "/>
    <path id="ID0.10896475100889802" fill="none" stroke="#3D3D3D" stroke-width="3.7516777515411377" stroke-linecap="round" d="M 284.8555 201.6527 C 284.8555 201.6527 287.3429 201.0599 288.6072 200.9023 C 289.849 200.7466 291.1114 200.8179 292.3589 200.7148 C 294.8612 200.5065 297.3599 200.167 299.8622 199.9644 C 301.2016 199.8556 302.5559 199.8894 303.8953 199.7768 C 305.1502 199.6718 306.3939 199.4298 307.647 199.3079 C 308.9563 199.1803 310.2769 199.1409 311.5862 199.0265 C 312.7755 198.9233 315.1503 198.6513 315.1503 198.6513 "/>
    <path id="ID0.18587719602510333" fill="none" stroke="#3D3D3D" stroke-width="3.7516777515411377" stroke-linecap="round" d="M 303.3325 200.7148 C 303.3325 200.7148 303.1768 203.5285 303.1449 204.9354 C 303.1149 206.2785 303.1768 207.6254 303.1449 208.9685 C 303.1149 210.2196 303.1131 211.4783 302.9574 212.7201 C 302.7998 213.9844 302.207 216.4718 302.207 216.4718 "/>
    <path id="ID0.8999351100064814" fill="none" stroke="#3D3D3D" stroke-width="3.7516777515411377" stroke-linecap="round" d="M 221.546 125.6812 C 221.546 125.6812 245.6336 125.5574 257.6559 125.306 C 260.6609 125.2423 263.471 124.8746 266.3785 124.7433 C 267.6259 124.687 268.8809 124.7827 270.1302 124.7433 C 270.8824 124.7189 272.3812 124.5557 272.3812 124.5557 "/>
    <path id="ID0.4354576333425939" fill="none" stroke="#3D3D3D" stroke-width="3.7516777515411377" stroke-linecap="round" d="M 251.5594 126.244 C 251.5594 126.244 251.8314 129.1853 251.747 130.6522 C 251.6738 131.9184 251.4168 133.1789 251.0904 134.4039 C 250.7903 135.5312 249.8711 137.6866 249.8711 137.6866 "/>
    <path id="ID0.3101573558524251" fill="none" stroke="#3D3D3D" stroke-width="3.7516777515411377" stroke-linecap="round" d="M 287.6693 81.8804 C 287.6693 81.8804 292.8541 81.3251 295.454 81.2238 C 300.8227 81.0137 306.2138 80.858 311.5862 80.9424 C 314.1561 80.9837 316.711 81.4433 319.2772 81.599 C 320.3051 81.6609 322.3723 81.599 322.3723 81.599 "/>
    <path id="ID0.14644941315054893" fill="none" stroke="#3D3D3D" stroke-width="3.7516777515411377" stroke-linecap="round" d="M 311.5862 81.4114 C 311.5862 81.4114 310.7477 83.8913 310.4607 85.1631 C 310.1831 86.3955 309.9918 87.6542 309.898 88.9148 C 309.8042 90.1603 309.898 91.4171 309.898 92.6664 C 309.898 92.9778 309.898 93.4168 309.898 93.4168 "/>
    <path id="ID0.9907007454894483" fill="none" stroke="#3D3D3D" stroke-width="3.7516777515411377" stroke-linecap="round" d="M 297.7988 254.6451 C 297.7988 254.6451 296.4951 257.3557 295.454 258.3968 C 293.3324 260.5184 290.6969 262.0716 288.4196 264.0243 C 287.4142 264.8872 285.6846 267.6259 285.6059 266.8381 C 285.4652 265.4368 288.8567 258.7907 287.9507 259.3347 C 287.0052 259.9031 283.6062 266.4817 280.9163 269.6518 C 279.1961 271.6796 275.2737 275.1124 274.8198 274.8104 C 274.3658 274.5084 278.2563 269.6312 278.1025 267.776 C 278.0218 266.8174 275.4988 268.5038 274.3508 269.1829 C 272.0379 270.5504 270.0514 272.43 267.7854 273.8725 C 266.6074 274.6228 265.2305 275.0299 264.0337 275.7483 C 262.8819 276.4386 261.7771 277.2246 260.751 278.0931 C 259.7399 278.9485 258.7457 279.8564 257.9372 280.9069 C 257.17 281.9048 256.7836 283.1579 256.0614 284.1896 C 255.6806 284.7317 254.6545 285.5965 254.6545 285.5965 "/>
    <path id="ID0.21829202864319086" fill="none" stroke="#3D3D3D" stroke-width="3.7516777515411377" stroke-linecap="round" d="M 263.5647 285.1275 C 263.5647 285.1275 261.415 287.3579 260.282 288.4102 C 259.2278 289.3894 258.2336 290.483 256.9993 291.224 C 255.8551 291.9105 254.4576 292.0662 253.2476 292.6309 C 252.1071 293.1636 251.1054 293.974 249.9649 294.5067 C 248.755 295.0713 246.2132 295.9136 246.2132 295.9136 C 246.2132 295.9136 250.1938 293.6701 249.9649 294.5067 C 249.5072 296.1818 246.6072 298.9543 244.8064 301.0721 C 243.9491 302.0813 242.9305 302.948 241.9926 303.8859 C 241.0547 304.8238 238.9406 305.7486 239.1788 306.6997 C 239.4096 307.6244 241.6456 307.5569 242.9305 307.6376 C 244.1873 307.7164 246.2132 306.4652 246.6822 307.1686 C 247.1512 307.8721 245.6974 309.5603 244.8064 310.4513 C 242.8405 312.4172 240.4019 313.8597 238.2409 315.6099 C 237.121 316.5159 234.9582 317.0899 234.9582 318.4236 C 234.9582 319.6692 236.9428 320.4214 238.2409 320.7684 C 239.4583 321.093 240.7433 320.4552 241.9926 320.2995 C 243.2419 320.1438 245.8981 318.9039 245.7443 319.8305 C 245.4291 321.7176 241.4636 324.6983 241.0547 325.927 C 240.8221 326.6229 243.2438 324.6758 244.3374 324.0512 C 246.5246 322.8019 248.65 321.425 250.9028 320.2995 C 252.0959 319.703 253.7316 318.7388 254.6545 318.8926 C 255.1385 318.9733 253.7166 320.7684 253.7166 320.7684 "/>
    <path id="ID0.6975410105660558" fill="none" stroke="#3D3D3D" stroke-width="3.7516777515411377" stroke-linecap="round" d="M 246.6822 337.651 C 246.6822 337.651 249.1208 335.3831 250.4339 334.3683 C 252.5592 332.725 254.7633 331.1681 256.9993 329.6787 C 258.046 328.9809 259.1415 328.3356 260.282 327.8028 C 261.4919 327.2382 262.7957 326.8912 264.0337 326.396 C 264.3582 326.2665 264.9716 325.927 264.9716 325.927 "/>
    <path id="ID0.30681268544867635" fill="none" stroke="#3D3D3D" stroke-width="3.7516777515411377" stroke-linecap="round" d="M 255.5924 341.8716 C 255.5924 341.8716 257.7103 339.9039 258.8752 339.0579 C 261.1524 337.4015 263.5047 335.8314 265.9095 334.3683 C 267.1026 333.6423 268.3819 333.0514 269.6612 332.4924 C 270.8843 331.9578 272.1974 331.6371 273.4129 331.0856 C 273.925 330.853 274.8198 330.1476 274.8198 330.1476 "/>
    <path id="ID0.8871159958653152" fill="none" stroke="#3D3D3D" stroke-width="3.7516777515411377" stroke-linecap="round" d="M 266.8475 344.6854 C 266.8475 344.6854 269.4117 343.211 270.5991 342.3406 C 271.7603 341.489 272.7095 340.3635 273.8819 339.5268 C 274.9061 338.7953 276.0241 338.1837 277.1646 337.651 C 278.3745 337.0864 279.6838 336.7581 280.9163 336.2441 C 281.5615 335.9759 282.7921 335.3062 282.7921 335.3062 "/>
    <path id="ID0.784622700419277" fill="none" stroke="#3D3D3D" stroke-width="3.7516777515411377" stroke-linecap="round" d="M 282.3231 347.4992 C 282.3231 347.4992 284.1596 345.2744 285.1369 344.2164 C 286.0354 343.2429 286.9396 342.2581 287.9507 341.4027 C 288.9767 340.5342 290.2129 339.932 291.2334 339.0579 C 291.4885 338.8384 291.2334 338.5889 291.2334 338.5889 "/>
    <path id="ID0.8315397361293435" fill="none" stroke="#3D3D3D" stroke-width="3.7516777515411377" stroke-linecap="round" d="M 304.3642 158.9773 C 304.3642 158.9773 302.2314 161.2265 301.0815 162.2601 C 299.1044 164.0384 297.1498 165.8729 294.985 167.4186 C 293.8483 168.2309 292.3964 168.5197 291.2334 169.2945 C 290.0347 170.0936 289.1231 171.2716 287.9507 172.1082 C 286.9264 172.8398 285.7615 173.3594 284.6679 173.9841 C 283.5743 174.6087 282.2087 176.3307 281.3852 175.8599 C 280.5674 175.3928 281.0626 173.3163 281.3852 172.1082 C 281.7097 170.8908 283.4899 168.9774 283.2611 168.8255 C 283.0322 168.6736 281.0044 170.3018 279.9783 171.1703 C 278.9673 172.0257 278.1757 173.1287 277.1646 173.9841 C 276.1385 174.8526 275.0674 175.6967 273.8819 176.3289 C 272.7038 176.9573 270.8468 178.3323 270.1302 177.7357 C 269.4399 177.1599 270.8299 175.2502 271.0681 173.9841 C 271.3007 172.746 272.3099 171.2266 271.5371 170.2324 C 270.7642 169.2382 268.9428 169.2682 267.7854 169.7634 C 266.4629 170.3299 265.9264 171.9675 264.9716 173.0461 C 262.3342 176.0287 259.6705 179.0038 256.9993 181.9564 C 256.3315 182.6936 256.0614 182.8943 256.0614 182.8943 "/>
    <path id="ID0.22734893672168255" fill="none" stroke="#3D3D3D" stroke-width="3.7516777515411377" stroke-linecap="round" d="M 260.751 169.2945 C 253.0919 175.858 254.0674 174.7963 250.9028 177.7357 C 247.5038 180.8909 241.0547 187.5839 241.0547 187.5839 "/>
    <path id="ID0.6868329523131251" fill="none" stroke="#3D3D3D" stroke-width="3.7516777515411377" stroke-linecap="round" d="M 244.3374 173.0461 C 244.3374 173.0461 242.4991 175.5785 241.5236 176.7978 C 240.6251 177.9214 239.6872 179.0226 238.7099 180.0805 C 237.8114 181.0541 236.9466 182.0858 235.8961 182.8943 C 234.8982 183.6615 233.6939 184.123 232.6134 184.7701 C 230.5687 185.9969 226.5169 188.5218 226.5169 188.5218 "/>
    <path id="ID0.6187588525936007" fill="none" stroke="#3D3D3D" stroke-width="3.7516777515411377" stroke-linecap="round" d="M 227.4549 35.6409 C 227.4549 35.6409 225.2601 38.1377 224.1721 39.3926 C 223.2286 40.4806 222.2963 41.5817 221.3584 42.6753 C 220.4205 43.7689 219.3812 44.7857 218.5446 45.9581 C 217.0346 48.0721 214.4815 50.642 214.324 52.5235 C 214.2471 53.4558 216.9089 52.1296 218.0757 51.5856 C 219.2931 51.0172 220.2291 49.9667 221.3584 49.2408 C 222.4182 48.5598 223.3824 47.3649 224.6411 47.3649 C 225.8998 47.3649 227.4398 48.0778 227.9238 49.2408 C 228.419 50.4301 227.4642 51.7975 226.9859 52.9924 C 226.5188 54.1611 225.7347 55.1816 225.1101 56.2752 C 224.4854 57.3688 223.9658 58.5337 223.2342 59.5579 C 222.3976 60.7303 219.5726 62.5011 220.4205 62.8406 C 221.908 63.4352 225.4158 61.852 227.9238 61.4337 C 229.1656 61.2274 230.6438 60.2426 231.6755 60.9648 C 232.7297 61.7038 232.9454 63.4728 232.6134 64.7164 C 232.242 66.1083 230.8182 66.9806 229.7996 67.9992 C 228.9368 68.862 226.9859 70.344 226.9859 70.344 "/>
    <path id="ID0.27279094979166985" fill="none" stroke="#3D3D3D" stroke-width="3.7516777515411377" stroke-linecap="round" d="M 256.0614 52.9924 C 256.0614 52.9924 254.1687 58.3048 253.2476 60.9648 C 252.7637 62.3641 252.5198 63.8686 251.8408 65.1854 C 250.0099 68.7307 247.7627 72.0604 245.7443 75.5025 C 245.1084 76.5886 244.5869 77.7516 243.8684 78.7852 C 242.0845 81.3495 240.098 83.7768 238.2409 86.2886 C 237.4418 87.3691 236.7346 88.5227 235.8961 89.5713 C 235.4816 90.089 234.4892 90.9782 234.4892 90.9782 "/>
    <path id="ID0.009650591295212507" fill="none" stroke="#3D3D3D" stroke-width="3.7516777515411377" stroke-linecap="round" d="M 255.5924 72.2198 C 255.5924 72.2198 254.7802 75.0823 254.1856 76.4404 C 253.681 77.5941 252.9025 78.6127 252.3097 79.7232 C 251.6532 80.9556 251.1036 82.248 250.4339 83.4748 C 249.2277 85.6846 248.0497 87.9262 246.6822 90.0403 C 246.322 90.5974 245.2753 91.4471 245.2753 91.4471 "/>
    <path id="ID0.7780201733112335" fill="none" stroke="#3D3D3D" stroke-width="3.7516777515411377" stroke-linecap="round" d="M 290.7644 39.8616 C 290.7644 39.8616 288.5003 41.6568 287.4817 42.6753 C 286.4631 43.6939 285.6059 44.8644 284.6679 45.9581 C 283.73 47.0517 282.7433 48.1078 281.8542 49.2408 C 281.0251 50.2969 279.1455 51.7975 279.5094 52.5235 C 279.8489 53.2044 282.1074 52.5591 283.2611 52.0545 C 284.6923 51.428 285.7128 50.1074 287.0127 49.2408 C 288.0595 48.543 289.2712 48.0965 290.2955 47.3649 C 291.4679 46.5283 293.1524 43.6977 293.5782 44.5512 C 294.3248 46.0425 291.8018 49.6797 292.6403 52.0545 C 293.0586 53.2419 295.1426 52.6792 296.3919 52.5235 C 297.7163 52.3584 298.96 51.7338 300.1436 51.1166 C 302.5653 49.8523 305.2872 47.0535 307.178 46.896 C 308.1009 46.8191 306.1632 49.3721 305.7711 50.6476 C 305.5366 51.4092 305.3022 52.9924 305.3022 52.9924 "/>
    <path id="ID0.04566007945686579" fill="none" stroke="#3D3D3D" stroke-width="3.7516777515411377" stroke-linecap="round" d="M 328.7501 34.703 C 328.7501 34.703 327.5853 37.2523 326.8743 38.4547 C 325.5518 40.6926 323.9761 42.7823 322.6537 45.0201 C 321.9427 46.2225 321.4344 47.5394 320.7778 48.7718 C 320.1851 49.8823 319.5266 50.9609 318.902 52.0545 C 318.2773 53.1481 317.6377 54.2361 317.0262 55.3372 C 316.8573 55.643 316.5572 56.2752 316.5572 56.2752 "/>
    <path id="ID0.2200843240134418" fill="none" stroke="#3D3D3D" stroke-width="3.7516777515411377" stroke-linecap="round" d="M 330.157 45.9581 C 330.157 45.9581 329.7237 48.83 329.2191 50.1787 C 328.7764 51.3567 327.8554 52.3115 327.3433 53.4614 C 327.2157 53.7484 327.3433 54.3993 327.3433 54.3993 "/>
    <path id="ID0.17037720745429397" fill="none" stroke="#3D3D3D" stroke-width="3.7516777515411377" stroke-linecap="round" d="M 223.2342 349.375 C 223.2342 349.375 221.3434 351.868 220.4205 353.1267 C 219.6251 354.2109 217.7174 355.811 218.0757 356.4094 C 218.4208 356.9834 220.578 355.7847 221.8273 355.4715 C 224.326 354.8468 226.8321 354.2203 229.3307 353.5956 C 231.8293 352.971 234.3354 351.0951 236.834 351.7198 C 238.0458 352.0237 237.1567 354.2634 236.834 355.4715 C 236.5095 356.6889 234.4949 357.7112 234.9582 358.7542 C 235.4328 359.8215 237.4231 359.6921 238.7099 359.6921 C 241.2273 359.6921 243.709 359.0224 246.2132 358.7542 C 248.0835 358.5535 251.8408 358.2852 251.8408 358.2852 "/>
    <path id="ID0.8857165835797787" fill="none" stroke="#3D3D3D" stroke-width="3.7516777515411377" stroke-linecap="round" d="M 286.5438 452.0772 C 286.5438 452.0772 284.5666 454.1875 283.73 455.3599 C 282.22 457.474 280.905 459.7325 279.5094 461.9253 C 278.7178 463.169 277.9224 464.4146 277.1646 465.677 C 276.5174 466.7575 275.8778 467.8473 275.2887 468.9597 C 274.4728 470.5035 272.9439 473.6493 272.9439 473.6493 "/>
    <path id="ID0.31918108090758324" fill="none" stroke="#3D3D3D" stroke-width="3.7516777515411377" stroke-linecap="round" d="M 276.6956 457.2357 C 276.6956 457.2357 274.6078 460.1358 273.4129 461.4564 C 271.6346 463.4222 269.62 465.1724 267.7854 467.0839 C 265.872 469.076 263.9305 472.3756 262.1579 473.1804 C 261.3513 473.548 262.4711 470.678 262.6268 469.4287 C 262.7825 468.1794 263.8518 466.0015 263.0958 465.677 C 262.2104 465.2981 260.5034 467.112 259.3441 468.0218 C 258.303 468.8397 257.4683 469.8976 256.5304 470.8356 C 255.5924 471.7735 254.5588 473.8894 253.7166 473.6493 C 252.9175 473.4205 253.1688 471.1545 253.2476 469.8976 C 253.3283 468.6127 253.9473 467.4122 254.1856 466.146 C 254.4182 464.9079 254.8609 462.4637 254.6545 462.3943 C 254.4482 462.3249 253.6434 464.7616 252.7787 465.677 C 250.9535 467.611 248.9707 469.4793 246.6822 470.8356 C 244.6844 472.0192 240.1168 473.1804 240.1168 473.1804 "/>
    <path id="ID0.8827336332760751" fill="none" stroke="#3D3D3D" stroke-width="3.7516777515411377" stroke-linecap="round" d="M 247.6201 453.484 C 247.6201 453.484 246.1851 456.0765 245.2753 457.2357 C 244.4575 458.2768 243.3601 459.0759 242.4616 460.0495 C 241.4842 461.1075 240.537 462.1992 239.6478 463.3322 C 238.8187 464.3883 238.1715 465.5888 237.303 466.6149 C 236.4476 467.626 235.2658 468.3538 234.4892 469.4287 C 233.2193 471.1882 231.2065 475.0562 231.2065 475.0562 "/>
    <path id="ID0.4415109190158546" fill="none" stroke="#3D3D3D" stroke-width="3.7516777515411377" stroke-linecap="round" d="M 234.9582 453.953 C 234.9582 453.953 233.3356 456.4197 232.6134 457.7047 C 231.9287 458.9221 231.5498 460.3196 230.7376 461.4564 C 229.9666 462.535 228.7323 463.2197 227.9238 464.2701 C 227.1566 465.2681 226.7289 466.493 226.048 467.5528 C 225.322 468.6821 224.5285 469.7757 223.7032 470.8356 C 223.4312 471.1845 222.7653 471.7735 222.7653 471.7735 "/>
    <g id="ID0.18221612041816115">
      <path id="ID0.26974465046077967" fill="#525252" stroke="none" d="M 361.1 102.2185 L 181.0195 102.2185 L 181.0195 53.4467 L 361.1 53.4467 L 361.1 102.2185 Z " stroke-width="1.8758388757705688"/>
      <path id="ID0.27754563372582197" fill="#464646" stroke="none" d="M 335.7604 88.1306 C 332.9148 88.1306 330.3355 86.975 328.4672 85.1067 C 326.5988 83.2384 325.4433 80.6591 325.4433 77.8134 C 325.4433 74.9678 326.5988 72.3885 328.4672 70.5202 C 330.3355 68.6518 332.9148 67.4963 335.7604 67.4963 C 338.6061 67.4963 341.1853 68.6518 343.0537 70.5202 C 344.922 72.3885 346.0775 74.9678 346.0775 77.8134 C 346.0775 80.6591 344.922 83.2384 343.0537 85.1067 C 341.1853 86.975 338.6061 88.1306 335.7604 88.1306 Z " stroke-width="1.8758388757705688"/>
      <path id="ID0.27754563372582197" fill="#464646" stroke="none" d="M 202.5604 89.0806 C 199.7148 89.0806 197.1355 87.925 195.2672 86.0567 C 193.3988 84.1884 192.2433 81.6091 192.2433 78.7634 C 192.2433 75.9178 193.3988 73.3385 195.2672 71.4702 C 197.1355 69.6018 199.7148 68.4463 202.5604 68.4463 C 205.4061 68.4463 207.9853 69.6018 209.8537 71.4702 C 211.722 73.3385 212.8775 75.9178 212.8775 78.7634 C 212.8775 81.6091 211.722 84.1884 209.8537 86.0567 C 207.9853 87.925 205.4061 89.0806 202.5604 89.0806 Z " stroke-width="1.8758388757705688"/>
      <path id="ID0.4189241696149111" fill="none" stroke="#554230" stroke-width="3.7516777515411377" stroke-linecap="round" d="M 343.2638 84.6827 C 343.2638 84.6827 345.0346 82.458 345.3272 81.1186 C 345.5954 79.8881 345.2991 78.5469 344.8582 77.367 C 344.4005 76.142 343.0837 75.3354 342.701 74.0842 C 342.3352 72.8893 343.4532 71.3305 342.701 70.3326 C 341.9094 69.284 340.223 69.4322 338.9493 69.1133 C 337.7188 68.8056 336.462 68.3611 335.1977 68.4567 C 333.8883 68.5543 332.6371 69.1245 331.446 69.676 C 330.9226 69.918 330.1329 70.8015 330.1329 70.8015 "/>
      <path id="ID0.32698389142751694" fill="none" stroke="#554230" stroke-width="3.7516777515411377" stroke-linecap="round" d="M 204.0765 88.4344 C 204.0765 88.4344 206.6558 87.1157 207.8282 86.2772 C 208.8543 85.5437 209.9348 84.7878 210.642 83.7448 C 211.351 82.6981 212.0057 81.445 211.9551 80.1807 C 211.9044 78.8808 210.9684 77.7665 210.3606 76.6166 C 209.1844 74.39 208.7267 71.413 206.6089 70.0512 C 204.6355 68.7812 199.5745 69.676 199.5745 69.676 "/>
      <path id="ID0.8513722200877964" fill="none" stroke="#554230" stroke-width="3.7516777515411377" stroke-linecap="round" d="M 277.8908 102.8784 C 277.8908 102.8784 275.2046 103.1597 273.8577 103.1597 C 271.3572 103.1597 268.8305 103.2292 266.3544 102.8784 C 265.0432 102.6927 263.9158 101.7304 262.6027 101.5653 C 261.3571 101.4096 260.0928 101.7547 258.851 101.9404 C 257.5905 102.1299 256.373 102.6908 255.0993 102.6908 C 252.5876 102.6908 250.1021 102.1074 247.596 101.9404 C 246.3486 101.8579 245.0298 102.3363 243.8443 101.9404 C 242.6588 101.5446 241.5051 100.7493 240.843 99.6894 C 240.1677 98.609 240.0607 97.2115 240.0926 95.9378 C 240.1245 94.6509 240.4603 93.3416 241.0306 92.1861 C 241.6102 91.0099 243.6267 90.3928 243.4691 89.091 C 243.3135 87.8079 241.3626 87.579 240.374 86.7462 C 239.3929 85.9208 237.9711 85.3336 237.5603 84.12 C 237.1532 82.9194 238.2168 80.3683 238.2168 80.3683 "/>
      <path id="ID0.10430877655744553" fill="none" stroke="#433425" stroke-width="3.7516777515411377" stroke-linecap="round" d="M 266.1668 96.1253 C 266.1668 96.1253 261.8261 96.9132 259.7889 96.3129 C 258.579 95.9565 258.4252 93.97 257.2566 93.4992 C 256.0954 93.0302 254.7579 93.7806 253.5049 93.7806 C 252.2518 93.7806 250.9612 93.169 249.7532 93.4992 C 248.5414 93.8312 247.5266 96.0559 246.6581 95.6564 C 245.7914 95.2587 246.2829 91.9047 246.2829 91.9047 "/>
      <path id="ID0.6340935183688998" fill="none" stroke="#433425" stroke-width="3.7516777515411377" stroke-linecap="round" d="M 235.403 98.7515 C 235.403 98.7515 234.6302 96.0878 234.4651 94.7185 C 234.3151 93.4785 234.4651 92.2161 234.4651 90.9668 C 234.4651 90.1864 234.4651 88.622 234.4651 88.622 "/>
      <path id="ID0.2437504162080586" fill="none" stroke="#464646" stroke-width="3.7516777515411377" stroke-linecap="round" d="M 296.3678 92.5613 C 296.3678 92.5613 298.7257 90.9987 299.7443 90.0289 C 300.7085 89.1097 301.5189 88.0292 302.2767 86.9337 C 302.9933 85.8983 304.5915 84.0243 304.1525 83.651 C 303.7136 83.2777 301.622 84.7202 300.4009 85.3393 C 299.2772 85.9077 298.2418 86.6467 297.1181 87.2151 C 295.9589 87.8023 294.1374 89.3461 293.554 88.8096 C 292.965 88.2675 294.1412 86.2097 294.7733 85.0579 C 295.413 83.8893 297.5346 82.261 297.3057 81.9628 C 297.0769 81.6645 294.7508 82.8482 293.554 83.4634 C 292.4285 84.0412 290.8228 85.9377 290.3651 85.5269 C 289.9074 85.1161 290.9879 82.9044 291.6782 81.7752 C 292.3929 80.6065 293.5766 79.7924 294.492 78.7738 C 296.3247 76.7329 299.3579 74.3712 299.9319 72.5836 C 300.202 71.7451 297.3489 72.9794 296.1802 73.5215 C 294.749 74.1837 293.5784 75.3129 292.241 76.1477 C 291.0779 76.8736 289.8661 77.5264 288.6769 78.2111 C 287.5851 78.8395 285.9738 80.5503 285.3941 80.0869 C 284.8014 79.6123 285.6155 77.4045 286.3321 76.3352 C 287.7708 74.1874 291.2693 71.6682 291.6782 70.7077 C 291.9577 70.0493 289.1252 71.867 287.9265 72.5836 C 286.7147 73.3076 285.6549 74.2756 284.4562 75.0222 C 283.3401 75.7162 282.1639 76.3165 280.9859 76.898 C 279.8192 77.4739 278.6636 78.877 277.4218 78.4925 C 276.2194 78.1192 275.1933 76.4178 275.546 75.2097 C 276.2832 72.6792 279.7966 69.8055 280.2356 68.8319 C 280.5188 68.2035 278.2453 70.5971 277.2342 71.4581 C 276.12 72.4072 275.032 73.3996 273.8577 74.2718 C 272.8429 75.0259 271.2259 76.7536 270.6688 76.3352 C 270.1004 75.9094 271.0177 73.7297 271.6067 72.5836 C 272.2051 71.4206 274.9551 69.8599 274.1391 69.5822 C 272.6103 69.0626 269.2976 70.4095 266.9171 70.9891 C 265.6978 71.2855 264.5348 71.7882 263.353 72.2084 C 262.1619 72.6323 260.6143 74.1349 259.7889 73.5215 C 258.973 72.9156 259.5357 70.9028 260.0703 69.7698 C 260.6349 68.5712 263.1204 67.9484 262.8841 66.9561 C 262.6515 65.9787 260.4324 65.9412 259.1324 65.8306 C 255.2419 65.5004 251.3083 65.8324 247.4084 65.643 C 246.146 65.5811 244.9173 65.174 243.6567 65.0802 C 242.4112 64.9864 241.1525 65.1402 239.9051 65.0802 C 238.5882 65.0164 237.2695 64.8964 235.9658 64.705 C 234.7052 64.5212 233.4672 64.1873 232.2141 63.9547 C 231.9008 63.8966 231.9327 63.9547 231.9327 63.9547 "/>
      <path id="ID0.4610351463779807" fill="none" stroke="#464646" stroke-width="3.7516777515411377" stroke-linecap="round" d="M 246.2829 70.9891 C 246.2829 70.9891 226.5866 72.396 226.5866 72.396 "/>
      <path id="ID0.20848078886047006" fill="none" stroke="#464646" stroke-width="3.7516777515411377" stroke-linecap="round" d="M 353.3933 62.2665 C 353.3933 62.2665 351.6938 59.8504 350.392 59.7341 C 347.8483 59.5071 345.3647 60.6983 342.8886 61.3285 C 341.6731 61.6381 340.5682 62.7185 339.3245 62.5478 C 338.0283 62.3696 337.3174 60.6795 336.0418 60.3906 C 334.8094 60.1111 333.5319 61.186 332.2901 60.9534 C 331.0521 60.7226 330.2623 59.1807 329.0074 59.0775 C 327.7468 58.9744 326.4619 59.6422 325.4433 60.3906 C 323.3424 61.9344 321.701 64.0297 319.8158 65.8306 C 318.8891 66.7159 317.9231 67.5657 317.002 68.4567 C 316.0491 69.3778 315.1806 71.5068 314.1883 71.2705 C 313.211 71.0379 314.0401 67.7514 313.0628 67.5188 C 312.0704 67.2825 310.9956 69.2371 310.249 70.3326 C 308.6339 72.7017 306.0284 77.8359 306.0284 77.8359 "/>
      <path id="ID0.20281869592145085" fill="none" stroke="#464646" stroke-width="3.7516777515411377" stroke-linecap="round" d="M 314.9386 83.1821 C 314.9386 83.1821 313.5449 85.4875 312.8752 86.6524 C 312.2336 87.7666 311.6728 88.9334 310.9993 90.0289 C 310.3278 91.1206 309.5268 92.1336 308.8421 93.2178 C 308.4013 93.9156 307.6228 95.375 307.6228 95.375 "/>
      <path id="ID0.0035314783453941345" fill="none" stroke="#464646" stroke-width="3.7516777515411377" stroke-linecap="round" d="M 320.5661 89.2785 C 320.5661 89.2785 319.4631 91.7471 318.6903 92.8426 C 317.9512 93.8893 316.8876 94.6735 316.0641 95.6564 C 315.2613 96.6131 314.6235 97.7067 313.8131 98.6577 C 313.3685 99.1792 312.3124 100.0646 312.3124 100.0646 "/>
      <path id="ID0.854882332496345" fill="none" stroke="#464646" stroke-width="3.7516777515411377" stroke-linecap="round" d="M 209.8916 94.9061 C 209.8916 94.9061 220.3851 89.4061 220.3963 89.4661 C 220.4076 89.5243 213.6564 93.97 210.0792 95.844 C 207.7926 97.0426 205.3934 98.1813 202.8572 98.6577 C 201.606 98.8941 200.2442 98.4777 199.1056 97.9074 C 197.9782 97.3428 197.2672 96.1741 196.2918 95.375 C 196.0479 95.1762 196.0104 95.375 196.0104 95.375 "/>
      <path id="ID0.9488746449351311" fill="none" stroke="#464646" stroke-width="3.7516777515411377" stroke-linecap="round" d="M 187.3816 67.7064 C 187.3816 67.7064 188.4846 65.2378 189.2574 64.1423 C 189.9965 63.0956 190.9775 62.2346 191.8836 61.3285 C 192.2287 60.9834 193.0091 60.3906 193.0091 60.3906 "/>
      <path id="ID0.9566807094961405" fill="none" stroke="#464646" stroke-width="3.7516777515411377" stroke-linecap="round" d="M 200.9814 58.7962 C 200.9814 58.7962 205.9843 58.5617 208.4848 58.5148 C 210.9834 58.4679 213.4895 58.5148 215.9881 58.5148 C 216.6128 58.5148 216.4571 58.5148 216.4571 58.5148 "/>
    </g>
    <g id="ID0.573540604673326">
      <path id="ID0.13642344623804092" fill="none" stroke="#3D3D3D" stroke-width="3.7516777515411377" stroke-linecap="round" d="M 287.6693 293.5688 C 287.6693 293.5688 291.7417 293.5894 293.7658 293.7564 C 296.2756 293.9646 298.763 294.4429 301.2691 294.6943 C 303.7621 294.9438 306.2663 295.2158 308.7725 295.257 C 317.7671 295.4034 335.7845 295.257 335.7845 295.257 "/>
      <path id="ID0.9549536933191121" fill="none" stroke="#3D3D3D" stroke-width="3.7516777515411377" stroke-linecap="round" d="M 312.0552 297.3205 C 312.3797 302.7904 312.406 302.6366 312.3366 305.2928 C 312.3122 306.2476 311.7738 308.1065 311.7738 308.1065 "/>
      <path id="ID0.5734184011816978" fill="none" stroke="#3D3D3D" stroke-width="3.7516777515411377" stroke-linecap="round" d="M 294.985 377.9815 C 294.985 377.9815 294.2403 380.8778 293.5782 382.2022 C 292.9779 383.4046 292.0719 384.4363 291.2334 385.4849 C 290.196 386.7811 288.9317 387.8972 287.9507 389.2366 C 287.2059 390.2514 285.619 392.0635 286.0748 392.5193 C 286.555 392.9995 288.6166 391.677 289.8265 391.1124 C 290.967 390.5797 291.9987 389.8293 293.1092 389.2366 C 294.3416 388.58 295.5534 387.8503 296.8609 387.3607 C 298.0671 386.9087 299.6596 385.7081 300.6126 386.4228 C 301.5355 387.115 300.9352 388.9664 300.6126 390.1745 C 300.288 391.3919 298.2659 392.6337 298.7367 393.4572 C 299.2038 394.2751 301.2804 393.7798 302.4884 393.4572 C 303.7058 393.1327 304.6175 392.086 305.7711 391.5814 C 307.1292 390.9867 308.5699 390.5928 309.9918 390.1745 C 311.2279 389.8106 313.1676 388.5463 313.7434 389.2366 C 314.34 389.9531 313.1507 391.9303 312.3366 392.9882 C 311.5168 394.0537 310.0555 394.4364 309.0538 395.333 C 307.0786 397.1001 303.9122 399.9889 303.4263 400.9606 C 303.1018 401.6077 305.8855 399.6175 307.178 399.0847 C 311.1998 397.4284 315.2685 395.8433 319.371 394.3951 C 320.5846 393.9674 322.2935 392.7463 323.1226 393.4572 C 323.9349 394.1531 323.1752 396.0627 322.6537 397.2089 C 321.5788 399.5743 319.8005 401.5646 318.433 403.7743 C 317.7709 404.8454 317.255 406.0103 316.5572 407.057 C 315.0678 409.293 313.3289 411.3677 311.8676 413.6225 C 309.5791 417.1509 307.5907 420.8801 305.3022 424.4085 C 303.8409 426.6633 302.072 428.7173 300.6126 430.974 C 300.2468 431.5386 300.1436 432.3809 300.1436 432.3809 "/>
      <path id="ID0.7060040021315217" fill="none" stroke="#3D3D3D" stroke-width="3.7516777515411377" stroke-linecap="round" d="M 322.1847 419.25 C 322.1847 419.25 318.827 423.6976 317.0262 425.8154 C 316.1689 426.8246 315.1109 427.6556 314.2124 428.6292 C 313.2351 429.6872 312.2878 430.7789 311.3986 431.9119 C 310.5695 432.968 309.731 434.0335 309.0538 435.1946 C 308.6299 435.9206 308.1159 437.5394 308.1159 437.5394 "/>
    </g>
    <path id="ID0.4018660974688828" fill="none" stroke="#3D3D3D" stroke-width="3.7516777515411377" stroke-linecap="round" d="M 313.2745 240.1074 C 313.2745 240.1074 311.1379 242.1202 310.4607 243.3901 C 309.8548 244.5269 310.0011 245.9469 309.5228 247.1418 C 309.0557 248.3104 307.3693 250.1469 307.647 250.4245 C 307.9246 250.7021 310.6521 248.271 310.9297 248.5487 C 311.2073 248.8263 309.8211 250.8334 309.0538 251.8314 C 308.2454 252.8818 307.2136 253.7466 306.2401 254.6451 C 305.1821 255.6224 303.9759 256.4403 302.9574 257.4589 C 301.9388 258.4775 299.8922 259.8637 300.1436 260.7416 C 300.3612 261.5051 302.6872 261.0642 303.8953 260.7416 C 305.1127 260.4171 306.2401 258.3968 307.178 258.8658 C 308.1159 259.3347 307.1349 261.4676 307.647 262.6174 C 307.8477 263.0695 309.0538 263.0864 309.0538 263.0864 "/>
  </g>
  <path id="ID0.7169728362932801" fill="#49524E" stroke="none" d="M 16 550.0625 L 550 550.0625 L 550 678 L 16 678 L 16 550.0625 Z " stroke-width="1.1124999523162842"/>
  <g id="ID0.3617890104651451">
    <g id="ID0.9337176559492946">
      <g id="ID0.9831569031812251">
        <path id="ID0.0877610077150166" fill="#2E3034" stroke="none" stroke-linecap="round" d="M 213.1511 329.9603 L 204.4744 302.9352 L 203.0315 361.2117 L 218.702 361.5997 L 213.1511 329.9603 Z " stroke-width="1.1986506374691914"/>
        <path id="ID0.796130308881402" fill="#242628" stroke="none" stroke-linecap="round" d="M 213.7908 329.8613 L 204.3877 302.8183 L 210.9523 331.2656 L 212.1192 361.724 L 218.6203 361.2818 L 213.7908 329.8613 Z " stroke-width="1.1986506374691914"/>
      </g>
      <g id="ID0.9831569031812251">
        <path id="ID0.0877610077150166" fill="#2E3034" stroke="none" stroke-linecap="round" d="M 161.2009 327.4189 L 171.2044 300.8564 L 169.7615 359.1328 L 154.0909 358.7448 L 161.2009 327.4189 Z " stroke-width="1.1986506374691914"/>
        <path id="ID0.796130308881402" fill="#242628" stroke="none" stroke-linecap="round" d="M 160.3969 327.3982 L 171.1268 300.8537 L 163.1624 328.9412 L 160.1947 358.6271 L 154.0182 358.5411 L 160.3969 327.3982 Z " stroke-width="1.1986506374691914"/>
      </g>
      <path id="ID0.3245162623934448" fill="#27282B" stroke="none" stroke-linecap="round" d="M 185.267 343.1242 C 191.9182 343.2888 197.8113 348.8064 201.9599 357.5858 C 206.1085 366.3653 207.3149 380.1328 208.1852 391.6232 C 209.0741 403.3552 212.6439 416.194 207.6217 426.7659 C 203.751 434.9114 193.4923 440.9345 184.2691 441.211 C 175.5591 441.4797 165.1864 436.1742 161.2904 428.1736 C 155.7859 416.8669 158.8173 403.0756 159.9766 390.4295 C 161.0293 378.9561 163.3009 365.3053 167.8789 356.7419 C 172.4569 348.1786 178.6159 342.9595 185.267 343.1242 Z " stroke-width="2.043363588065075"/>
      <path id="ID0.8999492498114705" fill="#27282B" stroke="none" stroke-linecap="round" d="M 173.5936 334.9684 C 164.8417 337.2792 154.7698 341.0215 150.2178 348.8455 C 145.0236 357.7781 148.7193 369.3131 147.8543 379.5025 C 147.4143 382.9734 145.7067 386.5137 146.3001 389.8482 C 147.5091 396.631 150.7754 402.903 152.8234 409.4802 C 154.1652 413.7907 154.3616 418.6086 156.6533 422.5553 C 159.2272 427.2234 162.3508 432.2987 167.0989 434.7558 C 170.7551 436.6449 176.0821 437.2814 179.3499 434.8515 C 181.9481 432.9199 179.7252 428.3343 180.5761 425.1726 C 181.3437 421.2643 184.0777 417.7899 184.1822 413.7354 C 184.4689 402.4506 180.9342 391.252 181.1763 379.9641 C 181.4431 367.5512 182.0064 355.0791 185.4081 343.2568 C 186.3248 340.0791 195.8333 338.9594 194.0113 337.6027 C 189.9256 334.8152 180.0229 333.273 173.5936 334.9684 Z " stroke-width="1.0381048063639307"/>
      <path id="ID0.8999492498114705" fill="#27282B" stroke="none" stroke-linecap="round" d="M 195.5411 335.8155 C 204.1612 338.5782 214.0423 342.7928 218.2015 350.8324 C 222.9472 360.0112 218.6852 371.3491 219.0448 381.5688 C 219.3125 385.0573 220.8428 388.6777 220.085 391.9788 C 218.5418 398.6935 214.9691 404.7961 212.5982 411.2639 C 211.0446 415.5027 210.61 420.305 208.1258 424.1334 C 205.324 428.6684 201.9531 433.5829 197.0892 435.802 C 193.344 437.5078 187.9921 437.88 184.8485 435.2912 C 182.3491 433.2335 184.7962 428.7635 184.1028 425.5635 C 183.5296 421.622 180.9709 418.0166 181.0672 413.9619 C 181.3393 402.6768 185.424 391.6668 185.7408 380.3808 C 186.0886 367.9698 187.0885 355.2251 183.3308 343.509 C 181.8935 339.0269 169.2251 337.5439 171.4647 336.2577 C 174.9437 333.941 187.9039 333.3678 195.5411 335.8155 Z " stroke-width="1.0381048063639307"/>
      <path id="ID0.2542315670289099" fill="#27282B" stroke="none" d="M 239.9431 289.4946 L 240.3516 289.5048 L 240.3516 289.5048 L 239.9431 289.4946 L 239.9431 289.4946 Z " stroke-width="2.043363588065075"/>
    </g>
    <g id="ID0.3168069599196315">
      <path id="ID0.3809091211296618" fill="#3E4246" stroke="none" stroke-linecap="round" d="M 170.419 636.1529 L 235.2244 596.2743 L 241.4238 691.8661 L 248.6534 743.5466 L 237.8828 780.0196 L 220.2548 785.3982 L 193.7868 788.0353 L 192.4354 743.5677 L 188.8835 716.385 L 170.419 636.1529 Z " stroke-width="1.4928588842775454"/>
      <g id="ID0.38464318960905075">
        <path id="ID0.5368814701214433" fill="#303436" stroke="none" stroke-linecap="round" d="M 185.875 957.901 L 191.7667 939.8581 L 200.9391 920.9633 L 221.3241 932.9332 L 244.3447 948.5346 L 280.026 969.6677 L 282.2297 982.9813 L 231.764 985.3903 L 188.3528 977.8987 L 185.875 957.901 Z " stroke-width="1.5738323719005207"/>
        <path id="ID0.05466862628236413" fill="#303436" stroke="none" stroke-linecap="round" d="M 191.4127 774.397 L 245.3996 765.9845 L 235.8178 804.6051 L 232.7032 814.9366 L 231.8638 851.9989 L 226.149 935.0747 L 194.1608 939.2342 L 189.2413 894.0378 L 183.4881 876.451 L 180.5766 857.2185 L 184.5541 829.5758 L 184.3083 804.4003 L 191.4127 774.397 Z " stroke-width="1.4928588842775454"/>
        <path id="ID0.4490455654449761" fill="none" stroke="#272A2B" stroke-width="3.3890255033974293" stroke-linecap="round" d="M 190.9689 776.1504 L 244.9271 766.9485 L 231.5491 816.9584 "/>
        <path id="ID0.10446935473009944" fill="none" stroke="#242728" stroke-width="3.3890255033974293" stroke-linecap="round" d="M 231.1031 842.1634 L 231.1031 876.5702 L 209.6982 891.7732 "/>
        <path id="ID0.42170455446466804" fill="none" stroke="#242728" stroke-width="3.3890255033974293" stroke-linecap="round" d="M 228.8735 878.9706 L 226.1978 909.7767 L 204.347 925.3798 "/>
        <path id="ID0.047098892275244" fill="none" stroke="#242728" stroke-width="3.3890255033974293" stroke-linecap="round" d="M 184.888 805.156 L 183.9962 813.1576 L 193.3608 831.1612 "/>
      </g>
    </g>
    <g id="ID0.9602425838820636">
      <g id="ID0.17693647183477879">
        <path id="ID0.7729651997797191" fill="#3E4246" stroke="none" stroke-linecap="round" d="M 278.4974 505.8734 L 237.2063 508.3759 L 244.7138 542.9936 L 250.5529 570.938 L 258.4775 582.6163 L 265.5678 589.7067 L 291.4269 582.6163 L 294.3464 570.5209 L 283.0852 529.647 L 278.4974 505.8734 Z " stroke-width="1.6683237552642822"/>
        <path id="ID0.9716172609478235" fill="#393C40" stroke="none" stroke-linecap="round" d="M 269.9889 517.8019 L 279.9988 512.9638 L 276.1617 499.6172 L 239.3752 519.4702 L 245.548 525.643 L 256.8091 529.4802 L 269.9889 517.8019 Z " stroke-width="1.6683237552642822"/>
        <g id="ID0.38066427363082767">
          <path id="ID0.4757494777441025" fill="#1D1E1F" stroke="none" stroke-linecap="round" d="M 259.3361 454.9947 L 241.8233 450.6165 L 209.2301 460.5891 L 226.0132 512.641 L 247.1744 522.8568 L 256.4173 525.0459 L 262.9846 520.1812 L 268.8222 514.1004 L 280.4974 508.7492 L 280.7406 497.5605 L 279.2812 481.0207 L 272.7139 463.9944 L 259.3361 454.9947 Z " stroke-width="0.9729323387145996"/>
          <path id="ID0.6007084371522069" fill="none" stroke="#0D0D0D" stroke-width="1.9458646774291992" stroke-linecap="round" d="M 279.5244 509.4789 L 269.0654 514.1004 L 260.309 521.6406 L 256.4173 525.2891 L 247.1744 522.8568 L 238.1748 518.2353 "/>
        </g>
      </g>
      <g id="ID0.7397577832452953">
        <path id="ID0.6726378230378032" fill="#393C40" stroke="none" stroke-linecap="round" d="M 292.8952 564.6818 L 259.779 583.2002 L 261.4473 587.8715 L 293.7294 569.0194 L 292.8952 564.6818 Z " stroke-width="1.6683237552642822"/>
        <path id="ID0.6507829907350242" fill="#1D1E1F" stroke="none" stroke-linecap="round" d="M 299.7685 566.7672 L 260.98 587.6213 L 261.8141 626.4098 L 265.9849 648.098 L 265.9849 681.0474 L 264.7337 694.394 L 289.3415 698.5648 L 289.7585 685.2182 L 293.5123 665.1983 L 299.3514 639.7564 L 303.1051 620.1536 L 299.7685 566.7672 Z " stroke-width="1.6683237552642822"/>
        <path id="ID0.6829322893172503" fill="#1D1E1F" stroke="none" stroke-linecap="round" d="M 290.1756 697.7306 L 268.9045 687.3036 L 262.2312 698.5648 L 253.8896 710.6601 L 253.8896 722.3384 L 255.1408 731.9313 L 259.3116 738.1875 L 262.2312 751.9511 L 271.8241 751.5341 L 274.3265 747.3633 L 277.6632 746.9462 L 284.3365 741.5241 L 291.4269 735.2679 L 295.5977 726.0921 L 293.9294 711.4943 L 290.1756 697.7306 Z " stroke-width="1.6683237552642822"/>
        <path id="ID0.47767175547778606" fill="none" stroke="#0D0D0D" stroke-width="3.3366475105285645" stroke-linecap="round" d="M 299.7685 574.8586 L 299.1846 566.517 L 261.1468 587.6213 L 261.8141 616.233 "/>
        <path id="ID0.5922487881034613" fill="#282A2B" stroke="none" stroke-linecap="round" d="M 301.7395 636.2296 L 287.3085 624.7182 L 274.7961 624.885 L 262.1169 637.0638 L 265.0364 667.6775 L 274.6293 683.1095 L 281.7197 683.1095 L 294.2321 668.0946 L 301.7395 636.2296 Z " stroke-width="1.6683237552642822"/>
        <path id="ID0.36820242274552584" fill="#151616" stroke="none" stroke-linecap="round" d="M 289.0066 641.8579 L 271.656 641.691 L 277.1615 665.2144 L 280.2479 665.0476 L 289.0066 641.8579 Z " stroke-width="1.6683237552642822"/>
        <path id="ID0.13569410238415003" fill="none" stroke="#232425" stroke-width="3.3366475105285645" stroke-linecap="round" d="M 290.4259 664.4476 L 278.7476 679.1288 L 268.0703 664.1139 "/>
        <path id="ID0.024502143263816833" fill="none" stroke="#0D0D0D" stroke-width="3.3366475105285645" stroke-linecap="round" d="M 300.8529 635.7524 L 287.9234 624.9083 L 275.5778 624.4078 L 262.7317 636.5866 L 264.5669 654.104 "/>
      </g>
    </g>
    <path id="ID0.4270821204409003" fill="#3E4246" stroke="none" stroke-linecap="round" d="M 179.2192 686.4386 L 178.7001 456.0364 L 214.1632 461.1033 L 228.0859 470.1507 L 233.7505 478.5401 L 247.6134 502.1834 L 245.7099 523.553 L 243.5322 534.6989 L 246.6438 548.874 L 247.3843 560.0806 L 242.7141 574.0941 L 239.1847 584.7254 L 236.359 603.643 L 238.4939 648.4519 L 227.6401 665.0132 L 217.6006 677.5042 L 179.2192 686.4386 Z " stroke-width="0.9729324133014133"/>
    <g id="ID0.9602425838820636">
      <g id="ID0.17693647183477879">
        <path id="ID0.7729651997797191" fill="#3E4246" stroke="none" stroke-linecap="round" d="M 80.5026 506.3734 L 121.7937 508.8759 L 114.2862 543.4936 L 108.4471 571.438 L 100.5225 583.1163 L 93.4322 590.2067 L 67.5731 583.1163 L 64.6536 571.0209 L 75.9148 530.147 L 80.5026 506.3734 Z " stroke-width="1.6683237552642822"/>
        <path id="ID0.9716172609478235" fill="#393C40" stroke="none" stroke-linecap="round" d="M 89.0111 518.3019 L 79.0012 513.4638 L 82.8383 500.1172 L 119.6248 519.9702 L 113.452 526.143 L 102.1909 529.9802 L 89.0111 518.3019 Z " stroke-width="1.6683237552642822"/>
        <g id="ID0.38066427363082767">
          <path id="ID0.4757494777441025" fill="#1D1E1F" stroke="none" stroke-linecap="round" d="M 99.6639 455.2947 L 117.1767 450.9165 L 149.7699 460.8891 L 132.9868 512.941 L 111.8256 523.1568 L 102.5827 525.3459 L 96.0154 520.4812 L 90.1778 514.4004 L 78.5026 509.0492 L 78.2594 497.8605 L 79.7188 481.3207 L 86.2861 464.2944 L 99.6639 455.2947 Z " stroke-width="0.9729323387145996"/>
          <path id="ID0.6007084371522069" fill="none" stroke="#0D0D0D" stroke-width="1.9458646774291992" stroke-linecap="round" d="M 79.4756 509.7789 L 89.9346 514.4004 L 98.691 521.9406 L 102.5827 525.5891 L 111.8256 523.1568 L 120.8252 518.5353 "/>
        </g>
      </g>
      <g id="ID0.7397577832452953">
        <path id="ID0.6726378230378032" fill="#393C40" stroke="none" stroke-linecap="round" d="M 66.0048 564.9818 L 99.121 583.5002 L 97.4527 588.1715 L 65.1706 569.3194 L 66.0048 564.9818 Z " stroke-width="1.6683237552642822"/>
        <path id="ID0.6507829907350242" fill="#1D1E1F" stroke="none" stroke-linecap="round" d="M 59.2315 567.2672 L 98.02 588.1213 L 97.1859 626.9098 L 93.0151 648.598 L 93.0151 681.5474 L 94.2663 694.894 L 69.6585 699.0648 L 69.2415 685.7182 L 65.4877 665.6983 L 59.6486 640.2564 L 55.8949 620.6536 L 59.2315 567.2672 Z " stroke-width="1.6683237552642822"/>
        <path id="ID0.6829322893172503" fill="#1D1E1F" stroke="none" stroke-linecap="round" d="M 68.8244 698.2306 L 90.0955 687.8036 L 96.7688 699.0648 L 105.1104 711.1601 L 105.1104 722.8384 L 103.8592 732.4313 L 99.6884 738.6875 L 96.7688 752.4511 L 87.1759 752.0341 L 84.6735 747.8633 L 81.3368 747.4462 L 74.6635 742.0241 L 67.5731 735.7679 L 63.4023 726.5921 L 65.0706 711.9943 L 68.8244 698.2306 Z " stroke-width="1.6683237552642822"/>
        <path id="ID0.47767175547778606" fill="none" stroke="#0D0D0D" stroke-width="3.3366475105285645" stroke-linecap="round" d="M 59.2315 575.3586 L 59.8154 567.017 L 97.8532 588.1213 L 97.1859 616.733 "/>
        <path id="ID0.5922487881034613" fill="#282A2B" stroke="none" stroke-linecap="round" d="M 57.1605 636.7296 L 71.5915 625.2182 L 84.1039 625.385 L 96.7831 637.5638 L 93.8636 668.1775 L 84.2707 683.6095 L 77.1803 683.6095 L 64.6679 668.5946 L 57.1605 636.7296 Z " stroke-width="1.6683237552642822"/>
        <path id="ID0.36820242274552584" fill="#151616" stroke="none" stroke-linecap="round" d="M 70.0434 642.4079 L 87.394 642.241 L 81.8885 665.7644 L 78.8021 665.5976 L 70.0434 642.4079 Z " stroke-width="1.6683237552642822"/>
        <path id="ID0.13569410238415003" fill="none" stroke="#232425" stroke-width="3.3366475105285645" stroke-linecap="round" d="M 68.5741 664.9476 L 80.2524 679.6288 L 90.9297 664.6139 "/>
        <path id="ID0.024502143263816833" fill="none" stroke="#0D0D0D" stroke-width="3.3366475105285645" stroke-linecap="round" d="M 58.1471 636.2524 L 71.0766 625.4083 L 83.4222 624.9078 L 96.2683 637.0866 L 94.4331 654.604 "/>
      </g>
    </g>
    <path id="ID0.4270821204409003" fill="#3E4246" stroke="none" stroke-linecap="round" d="M 179.3808 686.5886 L 179.8999 456.1864 L 144.4368 461.2533 L 130.5141 470.3007 L 124.8495 478.6901 L 110.9866 502.3334 L 112.8901 523.703 L 115.0678 534.8489 L 111.9562 549.024 L 111.2157 560.2306 L 115.8859 574.2441 L 119.4153 584.8754 L 122.241 603.793 L 120.1061 648.6019 L 130.9599 665.1632 L 140.9994 677.6542 L 179.3808 686.5886 Z " stroke-width="0.9729324133014133"/>
    <g id="ID0.3168069599196315">
      <path id="ID0.3809091211296618" fill="#3E4246" stroke="none" stroke-linecap="round" d="M 188.131 636.1529 L 123.3256 596.2743 L 117.1262 691.8661 L 109.8966 743.5466 L 120.6672 780.0196 L 138.2952 785.3982 L 164.7632 788.0353 L 166.1146 743.5677 L 169.6665 716.385 L 188.131 636.1529 Z " stroke-width="1.4928588842775454"/>
      <g id="ID0.38464318960905075">
        <path id="ID0.5368814701214433" fill="#303436" stroke="none" stroke-linecap="round" d="M 172.725 957.901 L 166.8333 939.8581 L 157.6609 920.9633 L 137.2759 932.9332 L 114.2553 948.5346 L 78.574 969.6677 L 76.3703 982.9813 L 126.836 985.3903 L 170.2472 977.8987 L 172.725 957.901 Z " stroke-width="1.5738323719005207"/>
        <path id="ID0.05466862628236413" fill="#303436" stroke="none" stroke-linecap="round" d="M 166.9873 774.397 L 113.0004 765.9845 L 122.5822 804.6051 L 125.6968 814.9366 L 126.5362 851.9989 L 132.251 935.0747 L 164.2392 939.2342 L 169.1587 894.0378 L 174.9119 876.451 L 177.8234 857.2185 L 173.8459 829.5758 L 174.0917 804.4003 L 166.9873 774.397 Z " stroke-width="1.4928588842775454"/>
        <path id="ID0.4490455654449761" fill="none" stroke="#272A2B" stroke-width="3.3890255033974293" stroke-linecap="round" d="M 167.5811 776.1504 L 113.6229 766.9485 L 127.0009 816.9584 "/>
        <path id="ID0.10446935473009944" fill="none" stroke="#242728" stroke-width="3.3890255033974293" stroke-linecap="round" d="M 127.4469 842.1634 L 127.4469 876.5702 L 148.8518 891.7732 "/>
        <path id="ID0.42170455446466804" fill="none" stroke="#242728" stroke-width="3.3890255033974293" stroke-linecap="round" d="M 129.6765 878.9706 L 132.3522 909.7767 L 154.203 925.3798 "/>
        <path id="ID0.047098892275244" fill="none" stroke="#242728" stroke-width="3.3890255033974293" stroke-linecap="round" d="M 173.512 805.156 L 174.4038 813.1576 L 165.0392 831.1612 "/>
      </g>
    </g>
    <path id="ID0.052435632329434156" fill="#393C40" stroke="none" stroke-linecap="round" d="M 138.8984 612.2591 L 147.9914 612.5452 L 161.3242 619.5368 L 171.6908 619.4115 L 183.6281 623.3086 L 201.7905 620.3284 L 214.9258 613.4 L 224.8385 614.0437 L 228.3042 620.5384 L 207.7429 628.9184 L 195.597 628.0336 L 184.0382 634.0217 L 170.5696 626.5408 L 157.4196 627.1435 L 137.3972 618.9426 L 138.8984 612.2591 Z " stroke-width="0.9729324133014133"/>
    <path id="ID0.4987568911164999" fill="none" stroke="#27282B" stroke-width="1.9458648266028267" stroke-linecap="round" d="M 142.0859 461.0689 L 128.6915 473.4416 L 117.4346 493.0113 "/>
    <path id="ID0.2889464790932834" fill="none" stroke="#27282B" stroke-width="1.9458648266028267" stroke-linecap="round" d="M 218.1568 464.1207 L 229.6679 472.1449 L 240.9467 491.3554 "/>
    <path id="ID0.8373676878400147" fill="#000000" stroke="#2C2F31" stroke-width="1.2577116243420101" stroke-linecap="round" d="M 147.6505 487.04 L 148.4186 483.9268 L 140.9459 485.6399 L 130.8937 492.274 L 122.2582 502.4334 L 117.029 513.8459 L 127.6116 509.4386 L 137.2131 509.3939 L 142.7903 511.3733 L 147.8646 517.5792 L 152.2031 515.5692 L 160.4051 515.1475 L 169.5876 517.4448 L 177.3179 524.0837 L 181.4429 530.4047 L 185.9631 524.3112 L 193.6385 518.0434 L 202.1025 515.2728 L 212.6394 515.4271 L 216.3598 516.6944 L 219.9447 510.4018 L 223.9901 507.9066 L 229.2881 509.0867 L 234.9594 512.4866 L 232.1608 504.6509 L 227.6416 496.5812 L 221.9391 490.3473 L 215.5385 485.656 L 206.3419 483.6729 L 210.7288 487.645 L 210.568 491.2574 L 207.231 495.5152 L 199.8875 497.8635 L 193.4131 498.3621 L 188.0592 498.4385 L 184.4035 490.0611 L 182.0667 495.1817 L 179.0826 495.0489 L 176.0012 490.0332 L 173.889 498.5945 L 165.5439 498.6951 L 157.1396 496.5899 L 150.3479 493.6122 L 147.6505 487.04 Z "/>
    <path id="ID0.5698574706912041" fill="none" stroke="#313537" stroke-width="1.9458648266028267" stroke-linecap="round" d="M 137.9596 611.9156 L 136.6073 618.4562 L 156.6146 627.3867 L 170.491 626.945 L 182.7569 633.7684 "/>
    <path id="ID0.5698574706912041" fill="none" stroke="#313537" stroke-width="1.8253502592509434" stroke-linecap="round" d="M 224.9727 614.2674 L 226.4889 620.9163 L 205.8772 628.9546 L 193.8088 627.9741 L 182.8609 634.3155 "/>
    <path id="ID0.8947288258932531" fill="#393C40" stroke="none" stroke-linecap="round" d="M 140.0916 587.5558 L 154.4443 587.6106 L 169.7811 591.8216 L 181.1222 603.3456 L 166.8145 594.0956 L 144.8946 590.575 L 134.3096 596.5346 L 140.0916 587.5558 Z " stroke-width="0.9729324133014133"/>
    <path id="ID0.9897695370018482" fill="#393C40" stroke="none" stroke-linecap="round" d="M 146.6237 612.7499 L 133.2689 611.4994 L 134.3413 602.0336 L 136.6247 609.2336 L 147.0268 609.7415 L 159.4264 617.1516 L 170.6279 616.6543 L 178.9327 619.7462 L 182.0869 603.7549 L 182.1571 623.8031 L 170.8125 619.4803 L 158.7993 619.2308 L 146.6237 612.7499 Z " stroke-width="0.9729324133014133"/>
    <path id="ID0.9214867809787393" fill="#393C40" stroke="none" stroke-linecap="round" d="M 140.2562 579.6281 L 146.5145 571.1458 L 156.2821 569.4023 L 144.1643 578.8821 L 143.5537 584.8543 L 153.8625 585.1657 L 170.4084 592.0779 L 152.1533 587.8063 L 140.1888 587.5578 L 140.2562 579.6281 Z " stroke-width="0.9729324133014133"/>
    <path id="ID0.8679121839813888" fill="#2C2F31" stroke="none" stroke-linecap="round" d="M 173.4335 540.1263 L 181.1466 543.5952 L 188.0253 540.3807 L 189.9304 542.3665 L 181.7923 547.6471 L 170.1173 542.8309 L 173.4335 540.1263 Z " stroke-width="0.9729324133014133"/>
    <path id="ID0.20603158557787538" fill="none" stroke="#313537" stroke-width="1.9458648266028267" stroke-linecap="round" d="M 112.4776 522.7265 L 128.0735 537.8908 L 153.228 544.9818 L 168.0872 544.074 L 180.8993 536.3116 "/>
    <path id="ID0.24770551454275846" fill="none" stroke="#363A3D" stroke-width="1.9458647074192312" stroke-linecap="round" d="M 121.2689 593.0493 L 141.6359 587.0008 "/>
    <path id="ID0.24770551454275846" fill="none" stroke="#363A3D" stroke-width="1.9458647074192312" stroke-linecap="round" d="M 115.5925 568.6283 L 157.5859 556.8008 "/>
    <path id="ID0.753661650698632" fill="none" stroke="#313537" stroke-width="1.9458647074192312" stroke-linecap="round" d="M 170.4638 542.5462 L 181.0627 547.632 L 189.442 542.4537 "/>
    <g id="ID0.8167418288066983">
      <path id="ID0.9553722990676761" fill="none" stroke="#313537" stroke-width="2.1269591271903505" stroke-linecap="round" d="M 181.7875 578.5247 L 170.4119 573.9094 L 157.8795 569.7565 L 148.0926 571.4996 L 140.7442 580.1053 L 140.5978 587.1575 "/>
      <path id="ID0.5982440118677914" fill="none" stroke="#313537" stroke-width="1.7451169700472504" stroke-linecap="round" d="M 158.5533 568.897 L 156.346 558.0327 L 167.3454 543.8366 "/>
    </g>
    <path id="ID0.04993448918685317" fill="none" stroke="#313537" stroke-width="1.9458647074192312" stroke-linecap="round" d="M 181.3178 547.2888 L 182.3325 568.719 L 182.6083 602.2981 L 182.4029 635.624 "/>
    <path id="ID0.9286923445761204" fill="#27282B" stroke="none" stroke-linecap="round" d="M 158.8166 389.2674 L 197.2474 392.2835 L 182.702 430.8602 L 183.3345 479.4582 L 107.7376 454.2106 L 148.3575 432.5629 L 158.8166 389.2674 Z " stroke-width="0.9729323983192444"/>
    <path id="ID0.9286923445761204" fill="#27282B" stroke="none" stroke-linecap="round" d="M 204.4834 389.6674 L 166.0526 392.6835 L 180.598 431.2602 L 181.9114 479.615 L 255.5624 454.6106 L 214.9425 432.9629 L 204.4834 389.6674 Z " stroke-width="0.9729323983192444"/>
    <path id="ID0.20603158557787538" fill="none" stroke="#313537" stroke-width="1.9458648266028267" stroke-linecap="round" d="M 244.5569 522.3472 L 234.1265 537.8908 L 208.972 544.9818 L 194.1128 544.074 L 181.3007 536.3116 "/>
    <path id="ID0.24770551454275846" fill="none" stroke="#363A3D" stroke-width="1.9458647074192312" stroke-linecap="round" d="M 237.1647 593.0634 L 224.7141 588.6508 "/>
    <path id="ID0.24770551454275846" fill="none" stroke="#363A3D" stroke-width="1.9458647074192312" stroke-linecap="round" d="M 244.2062 569.2454 L 208.5141 558.6008 "/>
    <path id="ID0.8947288258932531" fill="#393C40" stroke="none" stroke-linecap="round" d="M 223.0712 589.3128 L 207.0416 589.6106 L 192.3055 593.8216 L 181.4088 605.3456 L 195.156 596.0956 L 216.2172 592.575 L 226.3875 598.5346 L 223.0712 589.3128 Z " stroke-width="0.9540646378733829"/>
    <path id="ID0.9897695370018482" fill="#393C40" stroke="none" stroke-linecap="round" d="M 214.8461 613.9318 L 227.067 612.6945 L 226.0758 603.2278 L 223.9935 610.4254 L 214.4741 610.9231 L 203.1337 618.3208 L 192.8817 617.8125 L 185.2844 620.8961 L 182.3813 604.902 L 182.3376 624.9497 L 192.7156 620.6382 L 203.7097 620.4006 L 214.8461 613.9318 Z " stroke-width="0.9325774826173389"/>
    <path id="ID0.9214867809787393" fill="#393C40" stroke="none" stroke-linecap="round" d="M 223.1238 580.4281 L 217.1107 571.9458 L 207.7258 570.2023 L 219.3689 579.6821 L 219.9555 585.6543 L 210.0506 585.9657 L 194.1529 592.8779 L 211.6928 588.6063 L 223.1886 588.3578 L 223.1238 580.4281 Z " stroke-width="0.9540646378733829"/>
    <path id="ID0.3567589442245662" fill="none" stroke="#313537" stroke-width="1.832418003184858" stroke-linecap="round" d="M 181.9861 603.6773 L 192.6777 593.73 L 207.5329 589.3674 L 223.3838 588.5774 L 226.9274 601.3505 L 227.4429 613.6228 L 215.1334 614.9242 L 200.6575 621.6302 L 193.0125 620.8876 L 181.9389 624.5015 L 170.11 619.1469 L 158.6783 619.3961 L 145.6769 612.8007 L 132.8312 611.0742 L 133.8136 596.7408 L 139.2294 587.3651 L 152.0626 587.6316 L 169.0073 591.876 L 180.6883 602.2879 Z "/>
    <g id="ID0.8167418288066983">
      <path id="ID0.9553722990676761" fill="none" stroke="#313537" stroke-width="2.1269591271903505" stroke-linecap="round" d="M 182.5125 578.7247 L 193.8881 574.1094 L 206.4205 569.9565 L 216.2074 571.6996 L 223.5558 580.3053 L 223.7022 587.3575 "/>
      <path id="ID0.5982440118677914" fill="none" stroke="#313537" stroke-width="1.7451169700472504" stroke-linecap="round" d="M 205.6967 569.097 L 207.904 558.2327 L 196.9046 544.0366 "/>
    </g>
    <g id="ID0.2217248771339655">
      <path id="ID0.2888958193361759" fill="#393C40" stroke="none" stroke-linecap="round" d="M 140.9487 627.7593 L 159.7272 631.998 L 158.5175 637.3572 L 139.739 633.1185 L 140.9487 627.7593 Z " stroke-width="0.8790387881411569"/>
      <g id="ID0.8823104286566377">
        <path id="ID0.2888958193361759" fill="#393C40" stroke="none" stroke-linecap="round" d="M 121.239 623.6127 L 142.3272 628.598 L 141.1175 633.9572 L 120.9823 629.1419 L 121.239 623.6127 Z " stroke-width="0.8790387881411569"/>
        <g id="ID0.36424446757882833">
          <path id="ID0.7359844641759992" fill="#8A7B59" stroke="none" d="M 146.3253 626.6929 L 149.1376 626.7513 L 148.8985 638.2643 L 146.0862 638.2059 L 146.3253 626.6929 Z " stroke-width="0.879038734443284"/>
          <path id="ID0.7359844641759992" fill="#8A7B59" stroke="none" d="M 142.8253 625.7929 L 145.6376 625.8513 L 145.3985 637.3643 L 142.5862 637.3059 L 142.8253 625.7929 Z " stroke-width="0.879038734443284"/>
          <path id="ID0.7359844641759992" fill="#8A7B59" stroke="none" d="M 139.1753 624.5429 L 141.9876 624.6013 L 141.7485 636.1143 L 138.9362 636.0559 L 139.1753 624.5429 Z " stroke-width="0.879038734443284"/>
          <path id="ID0.7359844641759992" fill="#8A7B59" stroke="none" d="M 149.7753 627.5929 L 152.5876 627.6513 L 152.3485 639.1643 L 149.5362 639.1059 L 149.7753 627.5929 Z " stroke-width="0.879038734443284"/>
        </g>
        <g id="ID0.1049797898158431">
          <path id="ID0.08871637750416994" fill="#8A7B59" stroke="none" stroke-linecap="round" d="M 124.4473 622.4732 L 136.2276 624.6521 L 135.9253 634.9768 L 124.5853 632.763 L 124.4473 622.4732 Z " stroke-width="0.879038734443284"/>
          <path id="ID0.13805592898279428" fill="#76694C" stroke="none" stroke-linecap="round" d="M 124.0587 621.9639 L 136.4103 624.1547 L 136.4757 629.4754 L 124.0838 627.1079 L 124.0587 621.9639 Z " stroke-width="0.879038734443284"/>
          <path id="ID0.3221200187690556" fill="#61563F" stroke="none" stroke-linecap="round" d="M 129.0513 626.1202 L 130.659 626.8215 L 130.7348 630.0677 L 128.983 629.411 L 129.0513 626.1202 Z " stroke-width="0.9540786787503805"/>
          <path id="ID0.1420820001512766" fill="#BAA578" stroke="none" stroke-linecap="round" d="M 134.6816 633.2067 L 136.0547 630.5975 L 136.054 634.8618 L 124.5355 632.7762 L 134.6816 633.2067 Z " stroke-width="0.879038734443284"/>
        </g>
      </g>
    </g>
    <g id="ID0.2217248771339655">
      <path id="ID0.2888958193361759" fill="#393C40" stroke="none" stroke-linecap="round" d="M 219.7002 629.4929 L 202.9001 633.285 L 203.9823 638.0796 L 220.7824 634.2874 L 219.7002 629.4929 Z " stroke-width="0.7864292942640029"/>
      <g id="ID0.8823104286566377">
        <path id="ID0.2888958193361759" fill="#393C40" stroke="none" stroke-linecap="round" d="M 237.5165 625.6749 L 218.6501 630.135 L 219.7323 634.9296 L 237.7462 630.6216 L 237.5165 625.6749 Z " stroke-width="0.7864292942640029"/>
        <g id="ID0.36424446757882833">
          <path id="ID0.7359844641759992" fill="#8A7B59" stroke="none" d="M 214.9713 628.3919 L 212.4552 628.4442 L 212.6691 638.7442 L 215.1851 638.6919 L 214.9713 628.3919 Z " stroke-width="0.7864292759567261"/>
          <path id="ID0.7359844641759992" fill="#8A7B59" stroke="none" d="M 218.1213 627.6919 L 215.6052 627.7442 L 215.8191 638.0442 L 218.3351 637.9919 L 218.1213 627.6919 Z " stroke-width="0.7864292759567261"/>
          <path id="ID0.7359844641759992" fill="#8A7B59" stroke="none" d="M 221.3213 626.5419 L 218.8052 626.5942 L 219.0191 636.8942 L 221.5351 636.8419 L 221.3213 626.5419 Z " stroke-width="0.7864292759567261"/>
          <path id="ID0.7359844641759992" fill="#8A7B59" stroke="none" d="M 211.9213 629.3419 L 209.4052 629.3942 L 209.6191 639.6942 L 212.1351 639.6419 L 211.9213 629.3419 Z " stroke-width="0.7864292759567261"/>
        </g>
        <g id="ID0.1049797898158431">
          <path id="ID0.08871637750416994" fill="#8A7B59" stroke="none" stroke-linecap="round" d="M 234.5393 624.6116 L 224 626.5609 L 224.2704 635.7978 L 234.4158 633.8173 L 234.5393 624.6116 Z " stroke-width="0.7864292759567261"/>
          <path id="ID0.13805592898279428" fill="#76694C" stroke="none" stroke-linecap="round" d="M 234.8446 624.2033 L 223.7943 626.1633 L 223.7358 630.9234 L 234.8222 628.8054 L 234.8446 624.2033 Z " stroke-width="0.7864292759567261"/>
          <path id="ID0.3221200187690556" fill="#61563F" stroke="none" stroke-linecap="round" d="M 230.403 627.8961 L 228.9647 628.5236 L 228.8969 631.4278 L 230.4642 630.8403 L 230.403 627.8961 Z " stroke-width="0.8535635827780463"/>
          <path id="ID0.1420820001512766" fill="#BAA578" stroke="none" stroke-linecap="round" d="M 225.3409 634.3512 L 224.1125 632.0169 L 224.113 635.8319 L 234.4181 633.966 L 225.3409 634.3512 Z " stroke-width="0.7864292759567261"/>
        </g>
      </g>
    </g>
    <g id="ID0.6836685389280319">
      <path id="ID0.09357938077300787" fill="#857656" stroke="none" d="M 163.1003 627.9694 L 199.8285 628.0189 L 199.8108 641.1535 L 163.0826 641.104 L 163.1003 627.9694 Z " stroke-width="0.875238129149299"/>
      <path id="ID0.6492703901603818" fill="#7C6E50" stroke="none" stroke-linecap="round" d="M 164.41 632.4663 L 181.1845 638.813 L 199.2409 632.5133 L 199.2292 641.221 L 164.3983 641.1741 L 164.41 632.4663 Z " stroke-width="0.9729323282357318"/>
      <g id="ID0.9254062357358634">
        <g id="ID0.49943465692922473">
          <path id="ID0.140373723115772" fill="#968561" stroke="none" d="M 196.5891 625.6201 L 207.0481 625.6342 L 207.0232 644.1199 L 196.5642 644.1058 L 196.5891 625.6201 Z " stroke-width="0.9729323282357318"/>
          <path id="ID0.8286363878287375" fill="#BAA578" stroke="none" stroke-linecap="round" d="M 196.5724 625.2615 L 207.274 625.7624 L 198.8074 627.3076 L 196.7097 631.683 L 196.5724 625.2615 Z " stroke-width="0.9729323282357318"/>
          <path id="ID0.7362233307212591" fill="#8A7B59" stroke="none" stroke-linecap="round" d="M 196.6043 637.715 L 202.1499 637.8198 L 207.1672 632.8646 L 207.1518 644.2966 L 196.5954 644.2823 L 196.6043 637.715 Z " stroke-width="0.9729323282357318"/>
        </g>
        <g id="ID0.49943465692922473">
          <path id="ID0.140373723115772" fill="#968561" stroke="none" d="M 165.7799 625.9891 L 155.3208 625.975 L 155.2959 644.4607 L 165.7549 644.4748 L 165.7799 625.9891 Z " stroke-width="0.9729323282357318"/>
          <path id="ID0.8286363878287375" fill="#BAA578" stroke="none" stroke-linecap="round" d="M 165.7956 625.6289 L 155.0927 626.1009 L 163.5551 627.669 L 165.641 632.05 L 165.7956 625.6289 Z " stroke-width="0.9729323282357318"/>
          <path id="ID0.7362233307212591" fill="#8A7B59" stroke="none" stroke-linecap="round" d="M 165.7302 638.0823 L 160.1844 638.1721 L 155.1805 633.2034 L 155.165 644.6354 L 165.7214 644.6496 L 165.7302 638.0823 Z " stroke-width="0.9729323282357318"/>
        </g>
      </g>
    </g>
    <path id="ID0.7766774026677012" fill="#0D0D0D" stroke="#0D0D0D" stroke-width="4.06931280140088" stroke-linecap="round" d="M 231.1316 678.2194 C 229.6645 610.4 231.1541 539.9489 208.6546 475.1217 C 200.1461 450.6123 168.8928 439.3178 144.2887 430.5517 C 133.0583 426.5566 121.6768 436.5849 110.5732 440.1748 C 107.4203 441.1857 105.0806 443.3068 102.3997 444.7331 C 98.6052 446.3477 94.6125 447.5734 91.1612 449.2914 C 89.9393 449.9032 88.7092 450.5069 87.5853 451.3173 C 86.2571 452.0264 85.2355 453.0393 84.0094 453.8497 C 81.4552 455.3691 78.901 456.9898 76.3468 458.408 C 73.7926 459.6235 71.1363 460.6365 68.6842 461.9533 C 67.4582 462.5611 66.13 463.0676 65.1083 463.9792 C 63.8823 464.8909 63.065 466.309 62.0433 467.5246 C 61.0216 468.5375 59.9999 469.5505 58.9782 470.5634 C 57.9566 471.4751 56.6284 472.3868 55.9132 473.6023 C 55.0958 474.7166 54.8915 476.236 54.3807 477.6541 C 53.8698 478.971 53.2568 480.2878 52.8481 481.706 C 51.9286 484.3396 51.1113 487.0746 50.2939 489.8096 C 49.7831 491.1265 49.2723 492.4433 48.7614 493.8614 C 48.2506 495.1783 47.7397 496.4951 47.2289 497.9133 C 46.7181 499.2301 46.2072 500.5469 45.6964 501.9651 C 45.1855 503.2819 44.4704 504.5988 44.1639 506.0169 C 43.7552 507.3337 43.7552 508.6506 43.653 510.0687 C 43.4487 511.3856 43.2443 512.7024 43.1422 514.1205 C 42.9378 515.4374 42.8357 516.7542 42.6313 518.1724 C 42.3248 519.4892 41.814 520.8061 41.6096 522.2242 C 40.6901 526.1747 39.8728 530.3278 39.0554 534.3797 C 38.7489 535.6965 38.2381 537.0134 38.0338 538.4315 C 37.7273 539.7483 37.6251 541.0652 37.5229 542.4833 C 37.3186 543.8002 37.0121 545.117 37.0121 546.5351 C 36.9099 547.852 37.0121 549.1688 37.0121 550.587 C 37.0121 553.2206 36.8077 555.9556 37.0121 558.6906 C 37.0121 560.0075 37.4208 560.6152 37.5229 562.7424 C 37.6251 570.9474 37.5229 579.2536 37.5229 587.5599 C 37.5229 595.5622 37.5229 603.7671 37.5229 611.8708 C 37.5229 615.8213 37.6251 619.9744 37.5229 624.0263 C 37.4208 625.3431 37.2164 626.66 37.0121 628.0781 C 36.5012 631.117 35.7861 634.0545 35.4796 637.1947 C 35.2752 638.5115 35.4796 639.8284 35.4796 641.2465 C 35.3774 642.5634 35.0709 643.8802 34.9687 645.2983 C 34.56 647.932 34.0492 650.667 33.947 653.402 C 33.7427 656.0357 33.947 658.7707 33.947 661.5056 C 33.947 669.508 33.947 677.7129 33.947 685.8166 C 33.947 687.7412 34.0492 688.4503 33.947 689.8684 C 33.7427 691.1852 33.1297 692.5021 32.9254 693.9202 C 32.2102 697.8708 31.9037 702.0239 31.3928 706.0757 C 31.1885 707.3925 31.0863 708.7094 30.882 710.1275 C 30.269 712.9638 29.3495 715.8001 28.8386 718.7376 C 28.5321 720.1558 28.43 721.7765 28.3278 723.2959 C 28.1234 724.7141 27.8169 726.2335 27.8169 727.8542 C 27.7148 729.1711 27.8169 730.4879 27.8169 731.9061 C 27.8169 733.2229 27.6126 734.5398 27.8169 735.9579 C 28.1234 738.5916 28.8386 741.3266 29.3495 744.0615 C 29.5538 745.3784 29.7581 746.6952 29.8603 748.1134 C 29.8603 749.4302 29.8603 750.747 29.8603 752.1652 C 29.8603 753.482 29.8603 754.7989 29.8603 756.217 C 29.656 758.8507 29.656 761.5857 29.3495 764.3207 C 28.9408 766.853 27.8169 771.9178 27.8169 771.9178 C 27.3061 772.9308 26.0351 778.6965 25.2627 781.5409 C 24.8438 783.0867 24.1859 784.5636 23.7302 786.0992 C 23.3338 787.4343 23.0498 788.8018 22.7085 790.151 C 22.3673 791.5003 21.9464 792.8354 21.6869 794.2029 C 21.4335 795.54 21.4294 796.9176 21.176 798.2547 C 20.9165 799.6222 20.5732 800.9795 20.1543 802.3065 C 19.7211 803.6821 18.9753 804.9604 18.6218 806.3583 C 18.2887 807.6772 18.2806 809.0609 18.111 810.4102 C 17.9414 811.7594 17.7697 813.1127 17.6001 814.462 C 17.4305 815.8112 17.2589 817.1645 17.0893 818.5138 C 16.9197 819.8631 16.6357 821.2062 16.5784 822.5656 C 16.4661 825.2621 16.6908 827.9728 16.5784 830.6693 C 16.5212 832.0287 16.2372 833.3718 16.0676 834.7211 C 15.898 836.0704 15.614 837.4135 15.5568 838.7729 C 15.4444 841.4694 15.4995 844.178 15.5568 846.8766 C 15.6712 852.2756 15.9307 857.6868 16.0676 863.0839 C 16.1023 864.4331 16.0676 865.7864 16.0676 867.1357 C 16.0676 868.4849 16.1534 869.8403 16.0676 871.1875 C 15.9818 872.5449 15.8101 873.9022 15.5568 875.2393 C 15.2973 876.6068 14.7088 877.9115 14.5351 879.2912 C 14.3655 880.6303 14.6209 881.9957 14.5351 883.343 C 14.4493 884.7003 14.1101 886.0374 14.0242 887.3948 C 13.9384 888.742 14.1101 890.0994 14.0242 891.4466 C 13.9384 892.804 13.7668 894.1613 13.5134 895.4984 C 13.2539 896.8659 12.7512 898.1828 12.4917 899.5503 C 12.2383 900.8874 12.2343 902.265 11.9809 903.6021 C 11.7214 904.9696 11.1901 906.2824 10.9592 907.6539 C 10.5076 910.3362 10.2788 913.0591 9.9375 915.7576 C 9.7679 917.1068 9.5963 918.4601 9.4267 919.8094 C 9.2571 921.1586 9.0017 922.5039 8.9158 923.8612 C 8.83 925.2084 8.83 926.5658 8.9158 927.913 C 9.0017 929.2704 9.3695 930.6055 9.4267 931.9649 C 9.5391 934.6613 9.7638 937.3903 9.4267 940.0685 C 9.0793 942.8278 8.168 945.502 7.3833 948.1722 C 6.9767 949.5559 6.284 950.8484 5.8508 952.224 C 5.4319 953.5509 5.248 954.9488 4.8291 956.2758 C 4.3959 957.6514 3.5643 958.9115 3.2966 960.3276 C 3.0452 961.6546 2.4956 963.2875 3.2966 964.3794 C 4.1507 965.5443 5.9407 965.7206 7.3833 965.8989 C 8.7442 966.067 10.0989 965.3924 11.47 965.3924 C 12.8411 965.3924 14.1857 965.8989 15.5568 965.8989 C 16.9279 965.8989 18.2744 965.4775 19.6435 965.3924 C 21.0023 965.3073 22.3796 965.2243 23.7302 965.3924 C 25.1217 965.5646 26.546 965.8178 27.8169 966.4054 C 29.1431 967.0192 30.0054 968.4799 31.3928 968.9378 C 32.6842 969.3652 34.1187 968.9378 35.4796 968.9378 C 36.8404 968.9378 38.2156 969.1059 39.5663 968.9378 C 40.9578 968.7655 42.2615 968.097 43.653 967.9248 C 45.0037 967.7566 46.3809 967.8397 47.7397 967.9248 C 49.1088 968.0099 50.4574 968.3462 51.8265 968.4313 C 53.1853 968.5164 54.5625 968.2631 55.9132 968.4313 C 57.3047 968.6035 58.6084 969.272 59.9999 969.4442 C 61.3506 969.6124 62.7278 969.3591 64.0866 969.4442 C 65.4557 969.5293 66.8125 969.7826 68.1734 969.9507 C 69.5343 970.1189 70.889 970.4997 72.2601 970.4572 C 76.355 970.3296 80.4315 969.6975 84.5203 969.4442 C 85.8791 969.3591 87.2482 969.3591 88.607 969.4442 C 89.9761 969.5293 91.3226 969.894 92.6937 969.9507 C 95.4135 970.0621 98.1475 969.8393 100.8672 969.9507 C 102.2383 970.0074 103.5849 970.3721 104.9539 970.4572 C 106.3128 970.5423 107.6818 970.5423 109.0406 970.4572 C 110.4097 970.3721 111.7583 970.0358 113.1274 969.9507 C 114.4862 969.8656 115.8553 970.0358 117.2141 969.9507 C 118.5832 969.8656 119.9338 969.5577 121.3008 969.4442 C 124.0185 969.2194 126.7464 968.9378 129.4743 968.9378 C 130.8454 968.9378 132.2124 969.193 133.561 969.4442 C 134.9403 969.7015 136.2562 970.285 137.6477 970.4572 C 138.9984 970.6253 140.3736 970.4572 141.7345 970.4572 C 145.8171 970.4572 149.914 970.3316 153.9946 970.4572 C 155.3657 970.4997 156.7123 970.8786 158.0814 970.9637 C 159.4402 971.0488 160.8093 971.0488 162.1681 970.9637 C 163.5372 970.8786 164.8939 970.6253 166.2548 970.4572 C 167.6157 970.289 168.9725 970.0358 170.3416 969.9507 C 171.7004 969.8656 173.0899 970.1999 174.4283 969.9507 C 175.8566 969.6853 175.2538 969.2842 178.515 968.4313 C 191.5578 965.0196 214.9318 971.5269 218.1563 958.403 C 229.6543 911.5781 213.6098 861.3375 215.8064 812.9425 C 217.8334 768.3846 232.0613 723.5573 231.1316 678.2194 Z "/>
    <path id="ID0.7766774026677012" fill="#0D0D0D" stroke="#0D0D0D" stroke-width="4.069313038794785" stroke-linecap="round" d="M 112.3684 677.6195 C 113.8355 609.8 112.3459 539.3489 134.8454 474.5218 C 143.3539 450.0123 174.6072 438.7178 199.2113 429.9517 C 210.4417 425.9566 221.8232 435.9849 232.9268 439.5748 C 236.0797 440.5857 238.4194 442.7068 241.1003 444.1331 C 244.8948 445.7477 248.8875 446.9734 252.3388 448.6914 C 253.5607 449.3032 254.7908 449.9069 255.9147 450.7173 C 257.2429 451.4264 258.2645 452.4393 259.4906 453.2497 C 262.0448 454.7691 264.599 456.3899 267.1532 457.808 C 269.7074 459.0235 272.3637 460.0365 274.8158 461.3533 C 276.0418 461.9611 277.37 462.4676 278.3917 463.3793 C 279.6177 464.2909 280.435 465.7091 281.4567 466.9246 C 282.4784 467.9376 283.5001 468.9505 284.5218 469.9635 C 285.5434 470.8751 286.8716 471.7868 287.5868 473.0023 C 288.4042 474.1166 288.6085 475.636 289.1193 477.0542 C 289.6302 478.371 290.2432 479.6878 290.6519 481.106 C 291.5714 483.7397 292.3887 486.4747 293.2061 489.2096 C 293.7169 490.5265 294.2277 491.8433 294.7386 493.2615 C 295.2494 494.5783 295.7603 495.8951 296.2711 497.3133 C 296.7819 498.6301 297.2928 499.947 297.8036 501.3651 C 298.3145 502.6819 299.0296 503.9988 299.3361 505.4169 C 299.7448 506.7338 299.7448 508.0506 299.847 509.4688 C 300.0513 510.7856 300.2557 512.1024 300.3578 513.5206 C 300.5622 514.8374 300.6643 516.1543 300.8687 517.5724 C 301.1752 518.8892 301.686 520.2061 301.8904 521.6242 C 302.8099 525.5748 303.6272 529.7279 304.4446 533.7797 C 304.7511 535.0965 305.2619 536.4134 305.4662 537.8315 C 305.7727 539.1484 305.8749 540.4652 305.9771 541.8833 C 306.1814 543.2002 306.4879 544.517 306.4879 545.9352 C 306.5901 547.252 306.4879 548.5689 306.4879 549.987 C 306.4879 552.6207 306.6923 555.3557 306.4879 558.0906 C 306.4879 559.4075 306.0792 560.0153 305.9771 562.1425 C 305.8749 570.3474 305.9771 578.6536 305.9771 586.9599 C 305.9771 594.9622 305.9771 603.1672 305.9771 611.2708 C 305.9771 615.2214 305.8749 619.3745 305.9771 623.4263 C 306.0792 624.7431 306.2836 626.06 306.4879 627.4781 C 306.9988 630.517 307.7139 633.4546 308.0204 636.5947 C 308.2248 637.9116 308.0204 639.2284 308.0204 640.6466 C 308.1226 641.9634 308.4291 643.2802 308.5313 644.6984 C 308.94 647.3321 309.4508 650.067 309.553 652.802 C 309.7573 655.4357 309.553 658.1707 309.553 660.9057 C 309.553 668.908 309.553 677.113 309.553 685.2166 C 309.553 687.1412 309.4508 687.8503 309.553 689.2684 C 309.7573 690.5853 310.3703 691.9021 310.5746 693.3203 C 311.2898 697.2708 311.5963 701.4239 312.1072 705.4757 C 312.3115 706.7926 312.4137 708.1094 312.618 709.5276 C 313.231 712.3638 314.1505 715.2001 314.6614 718.1377 C 314.9679 719.5558 315.07 721.1766 315.1722 722.696 C 315.3766 724.1141 315.6831 725.6336 315.6831 727.2543 C 315.7852 728.5711 315.6831 729.888 315.6831 731.3061 C 315.6831 732.623 315.8874 733.9398 315.6831 735.3579 C 315.3766 737.9916 314.6614 740.7266 314.1505 743.4616 C 313.9462 744.7784 313.7419 746.0953 313.6397 747.5134 C 313.6397 748.8303 313.6397 750.1471 313.6397 751.5652 C 313.6397 752.8821 313.6397 754.1989 313.6397 755.6171 C 313.844 758.2508 313.844 760.9857 314.1505 763.7207 C 314.5592 766.2531 315.6831 771.3179 315.6831 771.3179 C 316.1939 772.3308 317.4649 778.0966 318.2373 780.941 C 318.6562 782.4867 319.3141 783.9636 319.7698 785.4993 C 320.1662 786.8343 320.4502 788.2018 320.7915 789.5511 C 321.1327 790.9004 321.5536 792.2354 321.8131 793.6029 C 322.0665 794.94 322.0706 796.3176 322.324 797.6547 C 322.5835 799.0222 322.9268 800.3796 323.3457 801.7066 C 323.7789 803.0822 324.5247 804.3605 324.8782 805.7584 C 325.2113 807.0773 325.2194 808.461 325.389 809.8102 C 325.5586 811.1595 325.7303 812.5128 325.8999 813.862 C 326.0695 815.2113 326.2411 816.5646 326.4107 817.9139 C 326.5803 819.2631 326.8643 820.6063 326.9216 821.9657 C 327.0339 824.6622 326.8092 827.3728 326.9216 830.0693 C 326.9788 831.4287 327.2628 832.7719 327.4324 834.1212 C 327.602 835.4704 327.886 836.8136 327.9432 838.173 C 328.0556 840.8695 328.0005 843.5781 327.9432 846.2766 C 327.8288 851.6757 327.5693 857.0869 327.4324 862.4839 C 327.3977 863.8332 327.4324 865.1865 327.4324 866.5358 C 327.4324 867.885 327.3466 869.2403 327.4324 870.5876 C 327.5182 871.9449 327.6899 873.3023 327.9432 874.6394 C 328.2027 876.0069 328.7912 877.3116 328.9649 878.6912 C 329.1345 880.0304 328.8791 881.3958 328.9649 882.743 C 329.0507 884.1004 329.3899 885.4375 329.4758 886.7949 C 329.5616 888.1421 329.3899 889.4995 329.4758 890.8467 C 329.5616 892.2041 329.7332 893.5614 329.9866 894.8985 C 330.2461 896.266 330.7488 897.5829 331.0083 898.9503 C 331.2617 900.2874 331.2657 901.6651 331.5191 903.0022 C 331.7786 904.3697 332.3099 905.6825 332.5408 907.054 C 332.9924 909.7363 333.2212 912.4591 333.5625 915.1576 C 333.7321 916.5069 333.9037 917.8602 334.0733 919.2095 C 334.2429 920.5587 334.4983 921.9039 334.5842 923.2613 C 334.67 924.6085 334.67 925.9659 334.5842 927.3131 C 334.4983 928.6705 334.1305 930.0056 334.0733 931.3649 C 333.9609 934.0614 333.7362 936.7903 334.0733 939.4686 C 334.4207 942.2279 335.332 944.9021 336.1167 947.5722 C 336.5233 948.9559 337.216 950.2485 337.6492 951.6241 C 338.0681 952.951 338.252 954.3489 338.6709 955.6759 C 339.1041 957.0515 339.9357 958.3116 340.2034 959.7277 C 340.4548 961.0547 341.0044 962.6876 340.2034 963.7795 C 339.3493 964.9444 337.5593 965.1207 336.1167 965.299 C 334.7558 965.4671 333.4011 964.7925 332.03 964.7925 C 330.6589 964.7925 329.3143 965.299 327.9432 965.299 C 326.5721 965.299 325.2256 964.8776 323.8565 964.7925 C 322.4977 964.7074 321.1204 964.6243 319.7698 964.7925 C 318.3783 964.9647 316.954 965.2179 315.6831 965.8054 C 314.3569 966.4193 313.4946 967.88 312.1072 968.3378 C 310.8158 968.7653 309.3813 968.3378 308.0204 968.3378 C 306.6596 968.3378 305.2844 968.506 303.9337 968.3378 C 302.5422 968.1656 301.2385 967.4971 299.847 967.3249 C 298.4963 967.1567 297.1191 967.2398 295.7603 967.3249 C 294.3912 967.41 293.0426 967.7463 291.6735 967.8314 C 290.3147 967.9164 288.9375 967.6632 287.5868 967.8314 C 286.1953 968.0036 284.8916 968.6721 283.5001 968.8443 C 282.1494 969.0125 280.7722 968.7592 279.4134 968.8443 C 278.0443 968.9294 276.6875 969.1826 275.3266 969.3508 C 273.9657 969.5189 272.611 969.8998 271.2399 969.8573 C 267.145 969.7296 263.0685 969.0975 258.9797 968.8443 C 257.6209 968.7592 256.2518 968.7592 254.893 968.8443 C 253.5239 968.9294 252.1774 969.2941 250.8063 969.3508 C 248.0865 969.4622 245.3525 969.2394 242.6328 969.3508 C 241.2617 969.4075 239.9151 969.7722 238.5461 969.8573 C 237.1872 969.9424 235.8182 969.9424 234.4594 969.8573 C 233.0903 969.7722 231.7417 969.4359 230.3726 969.3508 C 229.0138 969.2657 227.6447 969.4359 226.2859 969.3508 C 224.9168 969.2657 223.5662 968.9578 222.1992 968.8443 C 219.4815 968.6194 216.7536 968.3378 214.0257 968.3378 C 212.6546 968.3378 211.2876 968.5931 209.939 968.8443 C 208.5597 969.1016 207.2438 969.6851 205.8523 969.8573 C 204.5016 970.0254 203.1264 969.8573 201.7655 969.8573 C 197.6829 969.8573 193.586 969.7317 189.5054 969.8573 C 188.1343 969.8998 186.7877 970.2787 185.4186 970.3637 C 184.0598 970.4488 182.6907 970.4488 181.3319 970.3637 C 179.9628 970.2787 178.6061 970.0254 177.2452 969.8573 C 175.8843 969.6891 174.5275 969.4359 173.1584 969.3508 C 171.7996 969.2657 170.4101 969.6 169.0717 969.3508 C 167.6434 969.0854 168.2462 968.6843 164.985 967.8314 C 151.9422 964.4197 128.5682 970.9269 125.3437 957.8031 C 113.8457 910.9782 129.8902 860.7376 127.6936 812.3426 C 125.6666 767.7847 111.4387 722.9573 112.3684 677.6195 Z "/>
  </g>
  <path id="ID0.3148955628275871" fill="#3E4642" stroke="none" d="M 405.75 519.5 C 405.819 519.5 405.881 519.5 405.927 519.5 C 405.972 519.5 406 519.5 406 519.5 C 406 519.5 405.972 519.5 405.927 519.5 C 405.881 519.5 405.819 519.5 405.75 519.5 C 405.681 519.5 405.619 519.5 405.573 519.5 C 405.528 519.5 405.5 519.5 405.5 519.5 C 405.5 519.5 405.528 519.5 405.573 519.5 C 405.619 519.5 405.681 519.5 405.75 519.5 Z " stroke-width="1"/>
  <g id="ID0.43209060141816735">
    <path id="ID0.8571467022411525" fill="#3E4642" stroke="none" d="M 427.25 566 C 445.942 566 462.879 568.101 475.144 571.495 C 487.408 574.89 495 579.577 495 584.75 C 495 589.923 487.408 594.61 475.144 598.005 C 462.879 601.399 445.942 603.5 427.25 603.5 C 408.558 603.5 391.621 601.399 379.356 598.005 C 367.092 594.61 359.5 589.923 359.5 584.75 C 359.5 579.577 367.092 574.89 379.356 571.495 C 391.621 568.101 408.558 566 427.25 566 Z " stroke-width="1"/>
    <path id="ID0.8439310728572309" fill="#3E4642" stroke="none" stroke-linecap="round" d="M 359.5468 581.9208 C 367.8729 578.1362 376.1131 576.2372 382.6995 576.2257 C 389.2874 576.2146 392.3244 579.0654 395.9325 581.8587 C 402.3266 586.5921 420.4391 593.8826 416.4942 598.546 C 411.4214 604.5294 390.9387 600.3705 378.4985 603.514 C 368.1612 605.883 358.9753 613.4504 348.8083 614.9269 C 343.6046 615.6818 337.2876 613.061 335.5752 609.2939 C 333.8629 605.5268 335.6923 600.576 340.0324 595.6198 C 344.3718 590.6651 351.2208 585.7053 359.5468 581.9208 Z " stroke-width="1.1075018604376932"/>
    <path id="ID0.8505393760278821" fill="#3E4642" stroke="none" stroke-linecap="round" d="M 480.5 577.425 C 488.884 577.5662 493.068 587.0805 498.552 591.7803 C 501.106 593.9526 505 596.1977 505 599.0259 C 505 601.8542 502.535 604.4167 498.552 606.2715 C 494.57 608.1272 489.07 609.2759 483 609.2759 C 476.93 609.2759 471.43 608.1272 467.448 606.2715 C 463.465 604.4167 461 601.8542 461 599.0259 C 461 596.1977 465.162 594.1135 467.448 591.7803 C 471.829 587.2635 473.358 577.5662 480.5 577.425 Z " stroke-width="0.8878273085588414"/>
  </g>
</svg>