<svg xmlns="http://www.w3.org/2000/svg" xmlns:xlink="http://www.w3.org/1999/xlink" version="1.1" width="507.65591394901276" height="164.15591394901276" viewBox="-0.3279569745063782 -0.29225701093673706 507.65591394901276 164.15591394901276">
  <defs>
    <linearGradient id="grad_1" y2="1" x2="0">
      <stop offset="0" stop-color="#000000" stop-opacity="1"/>
      <stop offset="1" stop-color="#000000" stop-opacity="0"/>
    </linearGradient>
  <linearGradient id="grad_1-.0541666746139526,0,0,1.7857142686843872,0.5,-251.25" y2="163.0357" x2="0.5" x1="0.5" y1="0.5357" gradientUnits="userSpaceOnUse">
      <stop offset="0" stop-color="#000000" stop-opacity="1"/>
      <stop offset="1" stop-color="#000000" stop-opacity="0"/>
    </linearGradient></defs>
  <!-- Exported by Scratch - http://scratch.mit.edu/ -->
  <path id="ID0.6054479461163282" fill="url(#grad_1-.0541666746139526,0,0,1.7857142686843872,0.5,-251.25)" stroke="none" d="M 0.5 0.5357 L 506.5 0.5357 L 506.5 163.0357 L 0.5 163.0357 L 0.5 0.5357 Z " stroke-width="1.4662951318287964"/>
  <g id="ID0.7105660038068891">
    <g id="ID0.37601081002503633">
      <path id="ID0.25803531473502517" d="M 161.5622 90.1195 L 164.655 90.1195 L 164.655 101.4082 L 171.6912 101.4082 L 171.6912 104.1918 L 161.5622 104.1918 L 161.5622 90.1195 Z " stroke-width="0.7732044458389282" fill="undefined"/>
      <path id="ID0.8319718483835459" d="M 180.8923 104.5011 C 179.8098 104.5011 178.8046 104.3464 177.8768 103.9598 C 176.949 103.5732 176.1758 103.032 175.4799 102.4134 C 174.784 101.7948 174.3201 101.0216 173.9335 100.0938 C 173.5469 99.2433 173.3922 98.2381 173.3922 97.2329 L 173.3922 97.1556 C 173.3922 96.1504 173.5469 95.2226 173.9335 94.2948 C 174.3201 93.4442 174.8613 92.671 175.4799 91.9751 C 176.1758 91.2793 176.949 90.8153 177.8768 90.4287 C 178.8046 90.0421 179.8098 89.8875 180.8923 89.8875 C 181.9748 89.8875 182.9799 90.0421 183.9078 90.4287 C 184.8356 90.8153 185.6088 91.3566 186.3047 91.9751 C 187.0006 92.5937 187.4645 93.3669 187.8511 94.2948 C 188.2377 95.1453 188.3924 96.1504 188.3924 97.1556 L 188.3924 97.2329 C 188.3924 98.2381 188.2377 99.1659 187.8511 100.0938 C 187.4645 100.9443 186.9233 101.7175 186.3047 102.4134 C 185.6088 103.1093 184.8356 103.5732 183.9078 103.9598 C 182.9799 104.3464 181.9748 104.5011 180.8923 104.5011 Z M 180.9696 101.6402 C 181.5882 101.6402 182.1294 101.5629 182.6707 101.3309 C 183.2119 101.099 183.6758 100.7897 183.9851 100.4031 C 184.3717 100.0165 184.681 99.5525 184.8356 99.0113 C 185.0676 98.4701 185.1449 97.9288 185.1449 97.3103 L 185.1449 97.2329 C 185.1449 96.6144 185.0676 96.0731 184.8356 95.5319 C 184.6037 94.9906 184.2944 94.5267 183.9851 94.1401 C 183.5985 93.7535 183.1346 93.4442 182.5933 93.2123 C 182.0521 92.9803 181.5109 92.8257 180.8923 92.8257 C 180.2737 92.8257 179.6552 92.903 179.1912 93.1349 C 178.65 93.3669 178.2634 93.6762 177.8768 94.0628 C 177.4902 94.4494 177.1809 94.9133 177.0263 95.4546 C 176.7943 95.9958 176.717 96.537 176.717 97.1556 L 176.717 97.2329 C 176.717 97.8515 176.7943 98.3927 177.0263 98.934 C 177.2582 99.4752 177.5675 99.9391 177.8768 100.3258 C 178.2634 100.7124 178.7273 101.0216 179.1912 101.2536 C 179.7325 101.5629 180.3511 101.6402 180.9696 101.6402 Z " stroke-width="0.7732044458389282" fill="undefined"/>
      <path id="ID0.3427641256712377" d="M 197.8255 104.5011 C 196.8203 104.5011 195.8151 104.3464 194.9646 103.9598 C 194.1141 103.5732 193.3409 103.032 192.645 102.4134 C 192.0264 101.7948 191.4852 101.0216 191.0986 100.0938 C 190.712 99.2433 190.5574 98.2381 190.5574 97.2329 L 190.5574 97.1556 C 190.5574 96.1504 190.712 95.2226 191.0986 94.2948 C 191.4852 93.4442 191.9491 92.671 192.645 91.9751 C 193.2636 91.2793 194.0368 90.8153 194.9646 90.4287 C 195.8925 90.0421 196.8976 89.8875 197.9801 89.8875 C 198.676 89.8875 199.2172 89.9648 199.7585 90.0421 C 200.2997 90.1195 200.7637 90.2741 201.2276 90.5061 C 201.6915 90.738 202.0781 90.8927 202.4647 91.2019 C 202.8513 91.4339 203.1606 91.7432 203.5472 92.0525 L 201.5369 94.2948 C 200.9956 93.8308 200.4544 93.4442 199.8358 93.1349 C 199.2946 92.8257 198.5987 92.7483 197.9028 92.7483 C 197.2842 92.7483 196.743 92.8257 196.2791 93.0576 C 195.7378 93.2896 195.3512 93.5989 194.9646 93.9855 C 194.578 94.3721 194.3461 94.836 194.1141 95.3772 C 193.8821 95.9185 193.8048 96.4597 193.8048 97.0783 L 193.8048 97.1556 C 193.8048 97.7742 193.8821 98.3154 194.1141 98.8567 C 194.3461 99.3979 194.578 99.8618 194.9646 100.2484 C 195.3512 100.635 195.7378 100.9443 196.2791 101.1763 C 196.8203 101.4082 197.3616 101.5629 197.9801 101.5629 C 198.7533 101.5629 199.4492 101.4082 199.9904 101.099 C 200.5317 100.7897 201.0729 100.4031 201.6915 99.8618 L 203.7018 101.8722 C 203.3152 102.2588 202.9286 102.6454 202.542 102.9546 C 202.1554 103.2639 201.6915 103.4959 201.2276 103.7279 C 200.7637 103.9598 200.2224 104.1145 199.6812 104.2691 C 199.1399 104.4237 198.5214 104.5011 197.8255 104.5011 Z " stroke-width="0.7732044458389282" fill="undefined"/>
      <path id="ID0.7519368180073798" d="M 210.97 90.0421 L 213.8308 90.0421 L 219.8618 104.2691 L 216.6143 104.2691 L 215.2999 101.099 L 209.3462 101.099 L 208.0318 104.2691 L 204.8616 104.2691 L 210.97 90.0421 Z M 214.2174 98.3927 L 212.3617 93.8308 L 210.506 98.3927 L 214.2174 98.3927 Z " stroke-width="0.7732044458389282" fill="undefined"/>
      <path id="ID0.6483700005337596" d="M 225.3516 92.9803 L 221.0216 92.9803 L 221.0216 90.1195 L 232.7743 90.1195 L 232.7743 92.9803 L 228.4444 92.9803 L 228.4444 104.2691 L 225.3516 104.2691 L 225.3516 92.9803 Z " stroke-width="0.7732044458389282" fill="undefined"/>
      <path id="ID0.12424559099599719" d="M 235.1712 90.1195 L 245.8415 90.1195 L 245.8415 92.903 L 238.1867 92.903 L 238.1867 95.7638 L 244.8363 95.7638 L 244.8363 98.5474 L 238.1867 98.5474 L 238.1867 101.4856 L 245.8415 101.4856 L 245.8415 104.2691 L 235.0939 104.2691 L 235.0939 90.1195 Z " stroke-width="0.7732044458389282" fill="undefined"/>
      <path id="ID0.7832190324552357" d="M 254.7333 90.1195 L 261.3056 90.1195 C 262.9293 90.1195 264.1664 90.5061 265.0169 91.3566 C 265.6355 91.9751 266.0221 92.8257 266.0221 93.7535 L 266.0221 93.8308 C 266.0221 94.2174 265.9448 94.604 265.8675 94.9133 C 265.7901 95.2226 265.6355 95.5319 265.4809 95.7638 C 265.3262 95.9958 265.0943 96.2278 264.8623 96.3824 C 264.6303 96.537 264.3984 96.769 264.1664 96.8463 C 265.0169 97.1556 265.6355 97.5422 266.0994 98.0835 C 266.5634 98.6247 266.7953 99.3206 266.7953 100.3258 L 266.7953 100.4031 C 266.7953 101.0216 266.6407 101.6402 266.4087 102.1041 C 266.1767 102.568 265.7901 102.9546 265.3262 103.3412 C 264.8623 103.6505 264.3211 103.8825 263.6252 104.0371 C 263.0066 104.1918 262.2334 104.2691 261.4602 104.2691 L 254.7333 104.2691 L 254.7333 90.1195 Z M 260.6097 95.8412 C 261.3056 95.8412 261.8468 95.6865 262.2334 95.4546 C 262.62 95.2226 262.852 94.836 262.852 94.2948 L 262.852 94.2948 C 262.852 93.8308 262.6973 93.4442 262.3107 93.2123 C 261.9241 92.9803 261.4602 92.8257 260.7643 92.8257 L 257.6715 92.8257 L 257.6715 95.8412 L 260.6097 95.8412 Z M 261.4602 101.5629 C 262.1561 101.5629 262.6973 101.4082 263.0839 101.1763 C 263.4705 100.9443 263.7025 100.5577 263.7025 100.0165 L 263.7025 99.9391 C 263.7025 99.4752 263.5479 99.0886 263.1613 98.8567 C 262.7746 98.5474 262.2334 98.4701 261.3829 98.4701 L 257.8261 98.4701 L 257.8261 101.5629 L 261.4602 101.5629 Z " stroke-width="0.7732044458389282" fill="undefined"/>
      <path id="ID0.9375820741988719" d="M 269.2696 90.1195 L 272.3624 90.1195 L 272.3624 101.4082 L 279.3985 101.4082 L 279.3985 104.1918 L 269.2696 104.1918 L 269.2696 90.1195 Z " stroke-width="0.7732044458389282" fill="undefined"/>
      <path id="ID0.6408444712869823" d="M 286.5893 90.0421 L 289.4502 90.0421 L 295.4812 104.2691 L 292.3111 104.2691 L 290.9966 101.099 L 285.0429 101.099 L 283.7285 104.2691 L 280.5584 104.2691 L 286.5893 90.0421 Z M 289.9141 98.3927 L 288.0584 93.8308 L 286.2027 98.3927 L 289.9141 98.3927 Z " stroke-width="0.7732044458389282" fill="undefined"/>
      <path id="ID0.6350985025055707" d="M 304.373 104.5011 C 303.3679 104.5011 302.3627 104.3464 301.5122 103.9598 C 300.6617 103.5732 299.8885 103.032 299.1926 102.4134 C 298.574 101.7948 298.0328 101.0216 297.6462 100.0938 C 297.2596 99.2433 297.1049 98.2381 297.1049 97.2329 L 297.1049 97.1556 C 297.1049 96.1504 297.2596 95.2226 297.6462 94.2948 C 298.0328 93.4442 298.4967 92.671 299.1926 91.9751 C 299.8111 91.2793 300.5843 90.8153 301.5122 90.4287 C 302.44 90.0421 303.4452 89.8875 304.5277 89.8875 C 305.2236 89.8875 305.7648 89.9648 306.3061 90.0421 C 306.8473 90.1195 307.3112 90.2741 307.7751 90.5061 C 308.2391 90.6607 308.6257 90.8927 309.0123 91.2019 C 309.3989 91.4339 309.7082 91.7432 310.0948 92.0525 L 308.0844 94.2948 C 307.5432 93.8308 307.0019 93.4442 306.3834 93.1349 C 305.8421 92.8257 305.1463 92.7483 304.4504 92.7483 C 303.8318 92.7483 303.2906 92.8257 302.8266 93.0576 C 302.3627 93.2896 301.8988 93.5989 301.5122 93.9855 C 301.1256 94.3721 300.8936 94.836 300.6617 95.3772 C 300.4297 95.9185 300.3524 96.4597 300.3524 97.0783 L 300.3524 97.1556 C 300.3524 97.7742 300.4297 98.3154 300.6617 98.8567 C 300.8936 99.3979 301.1256 99.8618 301.5122 100.2484 C 301.8988 100.635 302.2854 100.9443 302.8266 101.1763 C 303.3679 101.4082 303.9091 101.5629 304.5277 101.5629 C 305.3009 101.5629 305.9968 101.4082 306.538 101.099 C 307.0793 100.7897 307.6205 100.4031 308.2391 99.8618 L 310.2494 101.8722 C 309.8628 102.2588 309.4762 102.6454 309.0896 102.9546 C 308.703 103.2639 308.2391 103.4959 307.7751 103.7279 C 307.3112 103.9598 306.77 104.1145 306.2287 104.2691 C 305.6102 104.4237 304.9916 104.5011 304.373 104.5011 Z " stroke-width="0.7732044458389282" fill="undefined"/>
      <path id="ID0.5034119137562811" d="M 312.6463 90.1195 L 315.7392 90.1195 L 315.7392 96.3051 L 321.4609 90.1195 L 325.2496 90.1195 L 319.5279 96.1504 L 325.5588 104.2691 L 321.8475 104.2691 L 317.4402 98.2381 L 315.8165 99.9391 L 315.8165 104.2691 L 312.7237 104.2691 L 312.7237 90.1195 Z " stroke-width="0.7732044458389282" fill="undefined"/>
      <path id="ID0.9183974945917726" d="M 333.4455 90.1195 L 336.7703 90.1195 L 340.4817 96.0731 L 344.1931 90.1195 L 347.5179 90.1195 L 347.5179 104.2691 L 344.425 104.2691 L 344.425 95.068 L 340.4817 101.099 L 340.4044 101.099 L 336.461 95.1453 L 336.461 104.3464 L 333.3682 104.3464 L 333.3682 90.1195 Z " stroke-width="0.7732044458389282" fill="undefined"/>
      <path id="ID0.9843428749591112" d="M 355.7911 90.0421 L 358.652 90.0421 L 364.683 104.2691 L 361.4355 104.2691 L 360.1211 101.099 L 354.1674 101.099 L 352.853 104.2691 L 349.6828 104.2691 L 355.7911 90.0421 Z M 359.0386 98.3927 L 357.1829 93.8308 L 355.3272 98.3927 L 359.0386 98.3927 Z " stroke-width="0.7732044458389282" fill="undefined"/>
      <path id="ID0.15167492954060435" d="M 371.9511 104.5011 C 370.8686 104.5011 369.7861 104.3464 368.781 103.9598 C 367.7758 103.5732 366.7706 103.032 365.9201 102.2588 L 367.7758 100.0938 C 368.3944 100.635 369.0903 101.0216 369.7861 101.3309 C 370.482 101.6402 371.1779 101.7948 372.0284 101.7948 C 372.647 101.7948 373.1882 101.6402 373.4975 101.4082 C 373.8841 101.1763 374.0388 100.867 374.0388 100.4031 L 374.0388 100.3258 C 374.0388 100.0938 374.0388 99.9391 373.9614 99.7845 C 373.8841 99.6299 373.7295 99.4752 373.5748 99.3206 C 373.3429 99.1659 373.1109 99.0886 372.7243 98.934 C 372.3377 98.7793 371.8738 98.6247 371.2552 98.5474 C 370.5593 98.3927 369.8635 98.1608 369.3222 97.9288 C 368.7037 97.6969 368.2397 97.4649 367.8531 97.1556 C 367.4665 96.8463 367.1572 96.4597 366.9253 95.9958 C 366.6933 95.5319 366.616 94.9133 366.616 94.2174 L 366.616 94.1401 C 366.616 93.5216 366.7706 92.903 367.0026 92.3617 C 367.2346 91.8205 367.5439 91.4339 368.0078 91.0473 C 368.4717 90.6607 368.9356 90.3514 369.5542 90.1968 C 370.1727 89.9648 370.7913 89.8875 371.5645 89.8875 C 372.5697 89.8875 373.5748 90.0421 374.4254 90.3514 C 375.2759 90.6607 376.1264 91.1246 376.8223 91.6659 L 375.1986 93.9855 C 374.58 93.5216 373.9614 93.2123 373.3429 92.9803 C 372.7243 92.7483 372.1058 92.5937 371.5645 92.5937 C 370.946 92.5937 370.482 92.7483 370.1727 92.9803 C 369.8635 93.2123 369.7088 93.5216 369.7088 93.8308 L 369.7088 93.9082 C 369.7088 94.1401 369.7861 94.3721 369.8635 94.5267 C 369.9408 94.6814 370.0954 94.836 370.3274 94.9906 C 370.5593 95.1453 370.8686 95.2226 371.2552 95.3772 C 371.6418 95.5319 372.1831 95.6092 372.8016 95.7638 C 373.4975 95.9185 374.1161 96.1504 374.7347 96.3824 C 375.2759 96.6144 375.7398 96.9237 376.1264 97.2329 C 376.513 97.5422 376.8223 97.9288 376.9769 98.3927 C 377.1316 98.8567 377.2862 99.3979 377.2862 100.0165 L 377.2862 100.0938 C 377.2862 100.7897 377.1316 101.4082 376.8996 101.9495 C 376.6677 102.4907 376.2811 102.9546 375.8171 103.3412 C 375.3532 103.7279 374.812 103.9598 374.1934 104.1918 C 373.4202 104.3464 372.647 104.5011 371.9511 104.5011 Z " stroke-width="0.7732044458389282" fill="undefined"/>
      <path id="ID0.4081715322099626" d="M 379.7605 90.1195 L 382.8533 90.1195 L 382.8533 96.3051 L 388.575 90.1195 L 392.3637 90.1195 L 386.642 96.1504 L 392.673 104.2691 L 388.9616 104.2691 L 384.5543 98.2381 L 382.9306 99.9391 L 382.9306 104.2691 L 379.8378 104.2691 L 379.8378 90.1195 Z " stroke-width="0.7732044458389282" fill="undefined"/>
    </g>
    <g id="ID0.37601081002503633">
      <path id="ID0.25803531473502517" fill="#6CE3FF" d="M 160.6622 88.9695 L 163.755 88.9695 L 163.755 100.2582 L 170.7912 100.2582 L 170.7912 103.0418 L 160.6622 103.0418 L 160.6622 88.9695 Z " stroke-width="0.7732044458389282"/>
      <path id="ID0.8319718483835459" fill="#6CE3FF" d="M 179.9923 103.3511 C 178.9098 103.3511 177.9046 103.1964 176.9768 102.8098 C 176.049 102.4232 175.2758 101.882 174.5799 101.2634 C 173.884 100.6448 173.4201 99.8716 173.0335 98.9438 C 172.6469 98.0933 172.4922 97.0881 172.4922 96.0829 L 172.4922 96.0056 C 172.4922 95.0004 172.6469 94.0726 173.0335 93.1448 C 173.4201 92.2942 173.9613 91.521 174.5799 90.8251 C 175.2758 90.1293 176.049 89.6653 176.9768 89.2787 C 177.9046 88.8921 178.9098 88.7375 179.9923 88.7375 C 181.0748 88.7375 182.0799 88.8921 183.0078 89.2787 C 183.9356 89.6653 184.7088 90.2066 185.4047 90.8251 C 186.1006 91.4437 186.5645 92.2169 186.9511 93.1448 C 187.3377 93.9953 187.4924 95.0004 187.4924 96.0056 L 187.4924 96.0829 C 187.4924 97.0881 187.3377 98.0159 186.9511 98.9438 C 186.5645 99.7943 186.0233 100.5675 185.4047 101.2634 C 184.7088 101.9593 183.9356 102.4232 183.0078 102.8098 C 182.0799 103.1964 181.0748 103.3511 179.9923 103.3511 Z M 180.0696 100.4902 C 180.6882 100.4902 181.2294 100.4129 181.7707 100.1809 C 182.3119 99.949 182.7758 99.6397 183.0851 99.2531 C 183.4717 98.8665 183.781 98.4025 183.9356 97.8613 C 184.1676 97.3201 184.2449 96.7788 184.2449 96.1603 L 184.2449 96.0829 C 184.2449 95.4644 184.1676 94.9231 183.9356 94.3819 C 183.7037 93.8406 183.3944 93.3767 183.0851 92.9901 C 182.6985 92.6035 182.2346 92.2942 181.6933 92.0623 C 181.1521 91.8303 180.6109 91.6757 179.9923 91.6757 C 179.3737 91.6757 178.7552 91.753 178.2912 91.9849 C 177.75 92.2169 177.3634 92.5262 176.9768 92.9128 C 176.5902 93.2994 176.2809 93.7633 176.1263 94.3046 C 175.8943 94.8458 175.817 95.387 175.817 96.0056 L 175.817 96.0829 C 175.817 96.7015 175.8943 97.2427 176.1263 97.784 C 176.3582 98.3252 176.6675 98.7891 176.9768 99.1758 C 177.3634 99.5624 177.8273 99.8716 178.2912 100.1036 C 178.8325 100.4129 179.4511 100.4902 180.0696 100.4902 Z " stroke-width="0.7732044458389282"/>
      <path id="ID0.3427641256712377" fill="#6CE3FF" d="M 196.9255 103.3511 C 195.9203 103.3511 194.9151 103.1964 194.0646 102.8098 C 193.2141 102.4232 192.4409 101.882 191.745 101.2634 C 191.1264 100.6448 190.5852 99.8716 190.1986 98.9438 C 189.812 98.0933 189.6574 97.0881 189.6574 96.0829 L 189.6574 96.0056 C 189.6574 95.0004 189.812 94.0726 190.1986 93.1448 C 190.5852 92.2942 191.0491 91.521 191.745 90.8251 C 192.3636 90.1293 193.1368 89.6653 194.0646 89.2787 C 194.9925 88.8921 195.9976 88.7375 197.0801 88.7375 C 197.776 88.7375 198.3172 88.8148 198.8585 88.8921 C 199.3997 88.9695 199.8637 89.1241 200.3276 89.3561 C 200.7915 89.588 201.1781 89.7427 201.5647 90.0519 C 201.9513 90.2839 202.2606 90.5932 202.6472 90.9025 L 200.6369 93.1448 C 200.0956 92.6808 199.5544 92.2942 198.9358 91.9849 C 198.3946 91.6757 197.6987 91.5983 197.0028 91.5983 C 196.3842 91.5983 195.843 91.6757 195.3791 91.9076 C 194.8378 92.1396 194.4512 92.4489 194.0646 92.8355 C 193.678 93.2221 193.4461 93.686 193.2141 94.2272 C 192.9821 94.7685 192.9048 95.3097 192.9048 95.9283 L 192.9048 96.0056 C 192.9048 96.6242 192.9821 97.1654 193.2141 97.7067 C 193.4461 98.2479 193.678 98.7118 194.0646 99.0984 C 194.4512 99.485 194.8378 99.7943 195.3791 100.0263 C 195.9203 100.2582 196.4616 100.4129 197.0801 100.4129 C 197.8533 100.4129 198.5492 100.2582 199.0904 99.949 C 199.6317 99.6397 200.1729 99.2531 200.7915 98.7118 L 202.8018 100.7222 C 202.4152 101.1088 202.0286 101.4954 201.642 101.8046 C 201.2554 102.1139 200.7915 102.3459 200.3276 102.5779 C 199.8637 102.8098 199.3224 102.9645 198.7812 103.1191 C 198.2399 103.2737 197.6214 103.3511 196.9255 103.3511 Z " stroke-width="0.7732044458389282"/>
      <path id="ID0.7519368180073798" fill="#6CE3FF" d="M 210.07 88.8921 L 212.9308 88.8921 L 218.9618 103.1191 L 215.7143 103.1191 L 214.3999 99.949 L 208.4462 99.949 L 207.1318 103.1191 L 203.9616 103.1191 L 210.07 88.8921 Z M 213.3174 97.2427 L 211.4617 92.6808 L 209.606 97.2427 L 213.3174 97.2427 Z " stroke-width="0.7732044458389282"/>
      <path id="ID0.6483700005337596" fill="#6CE3FF" d="M 224.4516 91.8303 L 220.1216 91.8303 L 220.1216 88.9695 L 231.8743 88.9695 L 231.8743 91.8303 L 227.5444 91.8303 L 227.5444 103.1191 L 224.4516 103.1191 L 224.4516 91.8303 Z " stroke-width="0.7732044458389282"/>
      <path id="ID0.12424559099599719" fill="#6CE3FF" d="M 234.2712 88.9695 L 244.9415 88.9695 L 244.9415 91.753 L 237.2867 91.753 L 237.2867 94.6138 L 243.9363 94.6138 L 243.9363 97.3974 L 237.2867 97.3974 L 237.2867 100.3356 L 244.9415 100.3356 L 244.9415 103.1191 L 234.1939 103.1191 L 234.1939 88.9695 Z " stroke-width="0.7732044458389282"/>
      <path id="ID0.7832190324552357" fill="#6CE3FF" d="M 253.8333 88.9695 L 260.4056 88.9695 C 262.0293 88.9695 263.2664 89.3561 264.1169 90.2066 C 264.7355 90.8251 265.1221 91.6757 265.1221 92.6035 L 265.1221 92.6808 C 265.1221 93.0674 265.0448 93.454 264.9675 93.7633 C 264.8901 94.0726 264.7355 94.3819 264.5809 94.6138 C 264.4262 94.8458 264.1943 95.0778 263.9623 95.2324 C 263.7303 95.387 263.4984 95.619 263.2664 95.6963 C 264.1169 96.0056 264.7355 96.3922 265.1994 96.9335 C 265.6634 97.4747 265.8953 98.1706 265.8953 99.1758 L 265.8953 99.2531 C 265.8953 99.8716 265.7407 100.4902 265.5087 100.9541 C 265.2767 101.418 264.8901 101.8046 264.4262 102.1912 C 263.9623 102.5005 263.4211 102.7325 262.7252 102.8871 C 262.1066 103.0418 261.3334 103.1191 260.5602 103.1191 L 253.8333 103.1191 L 253.8333 88.9695 Z M 259.7097 94.6912 C 260.4056 94.6912 260.9468 94.5365 261.3334 94.3046 C 261.72 94.0726 261.952 93.686 261.952 93.1448 L 261.952 93.1448 C 261.952 92.6808 261.7973 92.2942 261.4107 92.0623 C 261.0241 91.8303 260.5602 91.6757 259.8643 91.6757 L 256.7715 91.6757 L 256.7715 94.6912 L 259.7097 94.6912 Z M 260.5602 100.4129 C 261.2561 100.4129 261.7973 100.2582 262.1839 100.0263 C 262.5705 99.7943 262.8025 99.4077 262.8025 98.8665 L 262.8025 98.7891 C 262.8025 98.3252 262.6479 97.9386 262.2613 97.7067 C 261.8746 97.3974 261.3334 97.3201 260.4829 97.3201 L 256.9261 97.3201 L 256.9261 100.4129 L 260.5602 100.4129 Z " stroke-width="0.7732044458389282"/>
      <path id="ID0.9375820741988719" fill="#6CE3FF" d="M 268.3696 88.9695 L 271.4624 88.9695 L 271.4624 100.2582 L 278.4985 100.2582 L 278.4985 103.0418 L 268.3696 103.0418 L 268.3696 88.9695 Z " stroke-width="0.7732044458389282"/>
      <path id="ID0.6408444712869823" fill="#6CE3FF" d="M 285.6893 88.8921 L 288.5502 88.8921 L 294.5812 103.1191 L 291.4111 103.1191 L 290.0966 99.949 L 284.1429 99.949 L 282.8285 103.1191 L 279.6584 103.1191 L 285.6893 88.8921 Z M 289.0141 97.2427 L 287.1584 92.6808 L 285.3027 97.2427 L 289.0141 97.2427 Z " stroke-width="0.7732044458389282"/>
      <path id="ID0.6350985025055707" fill="#6CE3FF" d="M 303.473 103.3511 C 302.4679 103.3511 301.4627 103.1964 300.6122 102.8098 C 299.7617 102.4232 298.9885 101.882 298.2926 101.2634 C 297.674 100.6448 297.1328 99.8716 296.7462 98.9438 C 296.3596 98.0933 296.2049 97.0881 296.2049 96.0829 L 296.2049 96.0056 C 296.2049 95.0004 296.3596 94.0726 296.7462 93.1448 C 297.1328 92.2942 297.5967 91.521 298.2926 90.8251 C 298.9111 90.1293 299.6843 89.6653 300.6122 89.2787 C 301.54 88.8921 302.5452 88.7375 303.6277 88.7375 C 304.3236 88.7375 304.8648 88.8148 305.4061 88.8921 C 305.9473 88.9695 306.4112 89.1241 306.8751 89.3561 C 307.3391 89.5107 307.7257 89.7427 308.1123 90.0519 C 308.4989 90.2839 308.8082 90.5932 309.1948 90.9025 L 307.1844 93.1448 C 306.6432 92.6808 306.1019 92.2942 305.4834 91.9849 C 304.9421 91.6757 304.2463 91.5983 303.5504 91.5983 C 302.9318 91.5983 302.3906 91.6757 301.9266 91.9076 C 301.4627 92.1396 300.9988 92.4489 300.6122 92.8355 C 300.2256 93.2221 299.9936 93.686 299.7617 94.2272 C 299.5297 94.7685 299.4524 95.3097 299.4524 95.9283 L 299.4524 96.0056 C 299.4524 96.6242 299.5297 97.1654 299.7617 97.7067 C 299.9936 98.2479 300.2256 98.7118 300.6122 99.0984 C 300.9988 99.485 301.3854 99.7943 301.9266 100.0263 C 302.4679 100.2582 303.0091 100.4129 303.6277 100.4129 C 304.4009 100.4129 305.0968 100.2582 305.638 99.949 C 306.1793 99.6397 306.7205 99.2531 307.3391 98.7118 L 309.3494 100.7222 C 308.9628 101.1088 308.5762 101.4954 308.1896 101.8046 C 307.803 102.1139 307.3391 102.3459 306.8751 102.5779 C 306.4112 102.8098 305.87 102.9645 305.3287 103.1191 C 304.7102 103.2737 304.0916 103.3511 303.473 103.3511 Z " stroke-width="0.7732044458389282"/>
      <path id="ID0.5034119137562811" fill="#6CE3FF" d="M 311.7463 88.9695 L 314.8392 88.9695 L 314.8392 95.1551 L 320.5609 88.9695 L 324.3496 88.9695 L 318.6279 95.0004 L 324.6588 103.1191 L 320.9475 103.1191 L 316.5402 97.0881 L 314.9165 98.7891 L 314.9165 103.1191 L 311.8237 103.1191 L 311.8237 88.9695 Z " stroke-width="0.7732044458389282"/>
      <path id="ID0.9183974945917726" fill="#6CE3FF" d="M 332.5455 88.9695 L 335.8703 88.9695 L 339.5817 94.9231 L 343.2931 88.9695 L 346.6179 88.9695 L 346.6179 103.1191 L 343.525 103.1191 L 343.525 93.918 L 339.5817 99.949 L 339.5044 99.949 L 335.561 93.9953 L 335.561 103.1964 L 332.4682 103.1964 L 332.4682 88.9695 Z " stroke-width="0.7732044458389282"/>
      <path id="ID0.9843428749591112" fill="#6CE3FF" d="M 354.8911 88.8921 L 357.752 88.8921 L 363.783 103.1191 L 360.5355 103.1191 L 359.2211 99.949 L 353.2674 99.949 L 351.953 103.1191 L 348.7828 103.1191 L 354.8911 88.8921 Z M 358.1386 97.2427 L 356.2829 92.6808 L 354.4272 97.2427 L 358.1386 97.2427 Z " stroke-width="0.7732044458389282"/>
      <path id="ID0.15167492954060435" fill="#6CE3FF" d="M 371.0511 103.3511 C 369.9686 103.3511 368.8861 103.1964 367.881 102.8098 C 366.8758 102.4232 365.8706 101.882 365.0201 101.1088 L 366.8758 98.9438 C 367.4944 99.485 368.1903 99.8716 368.8861 100.1809 C 369.582 100.4902 370.2779 100.6448 371.1284 100.6448 C 371.747 100.6448 372.2882 100.4902 372.5975 100.2582 C 372.9841 100.0263 373.1388 99.717 373.1388 99.2531 L 373.1388 99.1758 C 373.1388 98.9438 373.1388 98.7891 373.0614 98.6345 C 372.9841 98.4799 372.8295 98.3252 372.6748 98.1706 C 372.4429 98.0159 372.2109 97.9386 371.8243 97.784 C 371.4377 97.6293 370.9738 97.4747 370.3552 97.3974 C 369.6593 97.2427 368.9635 97.0108 368.4222 96.7788 C 367.8037 96.5469 367.3397 96.3149 366.9531 96.0056 C 366.5665 95.6963 366.2572 95.3097 366.0253 94.8458 C 365.7933 94.3819 365.716 93.7633 365.716 93.0674 L 365.716 92.9901 C 365.716 92.3716 365.8706 91.753 366.1026 91.2117 C 366.3346 90.6705 366.6439 90.2839 367.1078 89.8973 C 367.5717 89.5107 368.0356 89.2014 368.6542 89.0468 C 369.2727 88.8148 369.8913 88.7375 370.6645 88.7375 C 371.6697 88.7375 372.6748 88.8921 373.5254 89.2014 C 374.3759 89.5107 375.2264 89.9746 375.9223 90.5159 L 374.2986 92.8355 C 373.68 92.3716 373.0614 92.0623 372.4429 91.8303 C 371.8243 91.5983 371.2058 91.4437 370.6645 91.4437 C 370.046 91.4437 369.582 91.5983 369.2727 91.8303 C 368.9635 92.0623 368.8088 92.3716 368.8088 92.6808 L 368.8088 92.7582 C 368.8088 92.9901 368.8861 93.2221 368.9635 93.3767 C 369.0408 93.5314 369.1954 93.686 369.4274 93.8406 C 369.6593 93.9953 369.9686 94.0726 370.3552 94.2272 C 370.7418 94.3819 371.2831 94.4592 371.9016 94.6138 C 372.5975 94.7685 373.2161 95.0004 373.8347 95.2324 C 374.3759 95.4644 374.8398 95.7737 375.2264 96.0829 C 375.613 96.3922 375.9223 96.7788 376.0769 97.2427 C 376.2316 97.7067 376.3862 98.2479 376.3862 98.8665 L 376.3862 98.9438 C 376.3862 99.6397 376.2316 100.2582 375.9996 100.7995 C 375.7677 101.3407 375.3811 101.8046 374.9171 102.1912 C 374.4532 102.5779 373.912 102.8098 373.2934 103.0418 C 372.5202 103.1964 371.747 103.3511 371.0511 103.3511 Z " stroke-width="0.7732044458389282"/>
      <path id="ID0.4081715322099626" fill="#6CE3FF" d="M 378.8605 88.9695 L 381.9533 88.9695 L 381.9533 95.1551 L 387.675 88.9695 L 391.4637 88.9695 L 385.742 95.0004 L 391.773 103.1191 L 388.0616 103.1191 L 383.6543 97.0881 L 382.0306 98.7891 L 382.0306 103.1191 L 378.9378 103.1191 L 378.9378 88.9695 Z " stroke-width="0.7732044458389282"/>
    </g>
  </g>
  <g id="ID0.38686514599248767">
    <path id="ID0.9548746612854302" fill="#329F39" stroke="#2B8D2B" stroke-width="1.6559139490127563" d="M 125.329 78.4382 C 130.4119 78.4382 135.017 80.5023 138.352 83.8373 C 141.687 87.1723 143.7511 91.7774 143.7511 96.8602 C 143.7511 101.943 141.687 106.5481 138.352 109.8831 C 135.017 113.2182 130.4119 115.2823 125.329 115.2823 C 120.2462 115.2823 115.6411 113.2182 112.3061 109.8831 C 108.9711 106.5481 106.907 101.943 106.907 96.8602 C 106.907 91.7774 108.9711 87.1723 112.3061 83.8373 C 115.6411 80.5023 120.2462 78.4382 125.329 78.4382 Z "/>
    <path id="ID0.9260170599445701" fill="none" stroke="#59F350" stroke-width="1.5961066484451294" d="M 125.3867 80.1732 C 130.0378 80.1732 134.2523 82.0622 137.3049 85.114 C 140.3566 88.1665 142.2456 92.381 142.2456 97.0321 C 142.2456 101.6831 140.3566 105.8977 137.3049 108.9502 C 134.2523 112.002 130.0378 113.891 125.3867 113.891 C 120.7357 113.891 116.5212 112.002 113.4686 108.9502 C 110.4168 105.8977 108.5279 101.6831 108.5279 97.0321 C 108.5279 92.381 110.4168 88.1665 113.4686 85.114 C 116.5212 82.0622 120.7357 80.1732 125.3867 80.1732 Z "/>
    <g id="ID0.9982413933612406">
      <path id="ID0.14168968982994556" fill="none" stroke="#59F350" stroke-width="1.6559139490127563" stroke-linecap="round" d="M 122.214 84.9527 L 128.672 84.9527 L 127.7613 99.8973 L 123.2075 99.8973 L 122.214 84.9527 Z "/>
      <path id="ID0.5756189492531121" fill="none" stroke="#59F350" stroke-width="1.6559139490127563" d="M 122.7866 102.3731 L 128.1683 102.3731 L 128.1683 108.3758 L 122.7866 108.3758 L 122.7866 102.3731 Z "/>
    </g>
  </g>
</svg>