<svg xmlns="http://www.w3.org/2000/svg" xmlns:xlink="http://www.w3.org/1999/xlink" version="1.1" width="137.80878291699239" height="333.0844634589846" viewBox="0.1512104959639482 -0.7761918811646529 137.80878291699239 333.0844634589846">
  <defs>
    <linearGradient id="grad_1" y2="1" x2="0">
      <stop offset="0" stop-color="#222325" stop-opacity="1"/>
      <stop offset="1" stop-color="#2E3034" stop-opacity="1"/>
    </linearGradient>
  </defs>
  <!-- Exported by Scratch - http://scratch.mit.edu/ -->
  <path id="ID0.7766774026677012" fill="#0D0D0D" stroke="#0D0D0D" stroke-width="1.9877837714845792" stroke-linecap="round" d="M 112.85 186.0053 C 112.132 152.9395 112.861 118.5907 101.85 86.9838 C 97.686 75.034 82.391 69.5274 70.35 65.2534 C 64.854 63.3055 59.284 68.1949 53.85 69.9452 C 52.307 70.4381 51.162 71.4722 49.85 72.1676 C 47.993 72.9548 46.039 73.5524 44.35 74.39 C 43.752 74.6883 43.15 74.9827 42.6 75.3778 C 41.95 75.7235 41.45 76.2174 40.85 76.6125 C 39.6 77.3533 38.35 78.1435 37.1 78.8349 C 35.85 79.4275 34.55 79.9214 33.35 80.5634 C 32.75 80.8598 32.1 81.1067 31.6 81.5512 C 31 81.9957 30.6 82.6871 30.1 83.2797 C 29.6 83.7736 29.1 84.2675 28.6 84.7614 C 28.1 85.2058 27.45 85.6503 27.1 86.243 C 26.7 86.7862 26.6 87.5271 26.35 88.2185 C 26.1 88.8605 25.8 89.5025 25.6 90.194 C 25.15 91.478 24.75 92.8115 24.35 94.1449 C 24.1 94.787 23.85 95.429 23.6 96.1204 C 23.35 96.7625 23.1 97.4045 22.85 98.0959 C 22.6 98.738 22.35 99.38 22.1 100.0714 C 21.85 100.7135 21.5 101.3555 21.35 102.0469 C 21.15 102.689 21.15 103.331 21.1 104.0224 C 21 104.6644 20.9 105.3065 20.85 105.9979 C 20.75 106.6399 20.7 107.282 20.6 107.9734 C 20.45 108.6154 20.2 109.2575 20.1 109.9489 C 19.65 111.875 19.25 113.8999 18.85 115.8754 C 18.7 116.5174 18.45 117.1594 18.35 117.8509 C 18.2 118.4929 18.15 119.1349 18.1 119.8263 C 18 120.4684 17.85 121.1104 17.85 121.8018 C 17.8 122.4439 17.85 123.0859 17.85 123.7773 C 17.85 125.0614 17.75 126.3949 17.85 127.7283 C 17.85 128.3703 18.05 128.6667 18.1 129.7038 C 18.15 133.7042 18.1 137.7539 18.1 141.8037 C 18.1 145.7053 18.1 149.7057 18.1 153.6566 C 18.1 155.5828 18.15 157.6076 18.1 159.5831 C 18.05 160.2252 17.95 160.8672 17.85 161.5586 C 17.6 163.0402 17.25 164.4725 17.1 166.0035 C 17 166.6455 17.1 167.2875 17.1 167.979 C 17.05 168.621 16.9 169.263 16.85 169.9545 C 16.65 171.2385 16.4 172.572 16.35 173.9054 C 16.25 175.1895 16.35 176.523 16.35 177.8564 C 16.35 181.758 16.35 185.7584 16.35 189.7094 C 16.35 190.6477 16.4 190.9934 16.35 191.6849 C 16.25 192.3269 15.95 192.9689 15.85 193.6604 C 15.5 195.5865 15.35 197.6113 15.1 199.5868 C 15 200.2289 14.95 200.8709 14.85 201.5623 C 14.55 202.9452 14.1 204.328 13.85 205.7602 C 13.7 206.4517 13.65 207.2419 13.6 207.9827 C 13.5 208.6741 13.35 209.4149 13.35 210.2051 C 13.3 210.8471 13.35 211.4892 13.35 212.1806 C 13.35 212.8226 13.25 213.4647 13.35 214.1561 C 13.5 215.4402 13.85 216.7736 14.1 218.1071 C 14.2 218.7491 14.3 219.3911 14.35 220.0826 C 14.35 220.7246 14.35 221.3666 14.35 222.0581 C 14.35 222.7001 14.35 223.3421 14.35 224.0335 C 14.25 225.3176 14.25 226.6511 14.1 227.9845 C 13.9 229.2192 13.35 231.6886 13.35 231.6886 C 13.1 232.1825 12.478 234.9936 12.1 236.3804 C 11.895 237.134 11.573 237.8541 11.35 238.6028 C 11.156 239.2537 11.017 239.9205 10.85 240.5783 C 10.683 241.2361 10.477 241.8871 10.35 242.5538 C 10.226 243.2057 10.224 243.8774 10.1 244.5293 C 9.973 245.196 9.805 245.8578 9.6 246.5048 C 9.388 247.1754 9.023 247.7987 8.85 248.4803 C 8.687 249.1233 8.683 249.7979 8.6 250.4558 C 8.517 251.1136 8.433 251.7734 8.35 252.4312 C 8.267 253.0891 8.183 253.7489 8.1 254.4067 C 8.017 255.0646 7.878 255.7195 7.85 256.3822 C 7.795 257.6969 7.905 259.0185 7.85 260.3332 C 7.822 260.996 7.683 261.6509 7.6 262.3087 C 7.517 262.9665 7.378 263.6214 7.35 264.2842 C 7.295 265.5989 7.322 266.9195 7.35 268.2352 C 7.406 270.8675 7.533 273.5058 7.6 276.1371 C 7.617 276.795 7.6 277.4548 7.6 278.1126 C 7.6 278.7705 7.642 279.4313 7.6 280.0881 C 7.558 280.7499 7.474 281.4117 7.35 282.0636 C 7.223 282.7304 6.935 283.3665 6.85 284.0391 C 6.767 284.692 6.892 285.3578 6.85 286.0146 C 6.808 286.6764 6.642 287.3283 6.6 287.9901 C 6.558 288.647 6.642 289.3087 6.6 289.9656 C 6.558 290.6274 6.474 291.2892 6.35 291.9411 C 6.223 292.6078 5.977 293.2498 5.85 293.9166 C 5.726 294.5685 5.724 295.2402 5.6 295.8921 C 5.473 296.5588 5.213 297.1989 5.1 297.8676 C 4.879 299.1753 4.767 300.5029 4.6 301.8185 C 4.517 302.4764 4.433 303.1362 4.35 303.794 C 4.267 304.4519 4.142 305.1077 4.1 305.7695 C 4.058 306.4264 4.058 307.0882 4.1 307.745 C 4.142 308.4068 4.322 309.0577 4.35 309.7205 C 4.405 311.0352 4.515 312.3657 4.35 313.6715 C 4.18 315.0168 3.734 316.3206 3.35 317.6225 C 3.151 318.2971 2.812 318.9273 2.6 319.598 C 2.395 320.2449 2.305 320.9265 2.1 321.5735 C 1.888 322.2441 1.481 322.8585 1.35 323.549 C 1.227 324.1959 0.958 324.9921 1.35 325.5244 C 1.768 326.0924 2.644 326.1783 3.35 326.2653 C 4.016 326.3472 4.679 326.0183 5.35 326.0183 C 6.021 326.0183 6.679 326.2653 7.35 326.2653 C 8.021 326.2653 8.68 326.0598 9.35 326.0183 C 10.015 325.9768 10.689 325.9363 11.35 326.0183 C 12.031 326.1023 12.728 326.2257 13.35 326.5122 C 13.999 326.8115 14.421 327.5236 15.1 327.7469 C 15.732 327.9553 16.434 327.7469 17.1 327.7469 C 17.766 327.7469 18.439 327.8289 19.1 327.7469 C 19.781 327.6629 20.419 327.337 21.1 327.253 C 21.761 327.171 22.435 327.2115 23.1 327.253 C 23.77 327.2945 24.43 327.4585 25.1 327.4999 C 25.765 327.5414 26.439 327.418 27.1 327.4999 C 27.781 327.5839 28.419 327.9099 29.1 327.9938 C 29.761 328.0758 30.435 327.9523 31.1 327.9938 C 31.77 328.0353 32.434 328.1588 33.1 328.2408 C 33.766 328.3227 34.429 328.5084 35.1 328.4877 C 37.104 328.4255 39.099 328.1173 41.1 327.9938 C 41.765 327.9523 42.435 327.9523 43.1 327.9938 C 43.77 328.0353 44.429 328.2131 45.1 328.2408 C 46.431 328.2951 47.769 328.1864 49.1 328.2408 C 49.771 328.2684 50.43 328.4462 51.1 328.4877 C 51.765 328.5292 52.435 328.5292 53.1 328.4877 C 53.77 328.4462 54.43 328.2822 55.1 328.2408 C 55.765 328.1993 56.435 328.2822 57.1 328.2408 C 57.77 328.1993 58.431 328.0491 59.1 327.9938 C 60.43 327.8842 61.765 327.7469 63.1 327.7469 C 63.771 327.7469 64.44 327.8713 65.1 327.9938 C 65.775 328.1193 66.419 328.4037 67.1 328.4877 C 67.761 328.5697 68.434 328.4877 69.1 328.4877 C 71.098 328.4877 73.103 328.4264 75.1 328.4877 C 75.771 328.5084 76.43 328.6931 77.1 328.7346 C 77.765 328.7761 78.435 328.7761 79.1 328.7346 C 79.77 328.6931 80.434 328.5697 81.1 328.4877 C 81.766 328.4057 82.43 328.2822 83.1 328.2408 C 83.765 328.1993 84.445 328.3622 85.1 328.2408 C 85.799 328.1114 85.504 327.9158 87.1 327.4999 C 93.483 325.8366 104.922 329.0092 106.5 322.6106 C 112.127 299.7808 104.275 275.2857 105.35 251.6904 C 106.342 229.966 113.305 208.1101 112.85 186.0053 Z "/>
  <g id="ID0.9602425838820636">
    <g id="ID0.17693647183477879">
      <path id="ID0.7729651997797191" fill="#3E4246" stroke="none" stroke-linecap="round" d="M 36.9372 100.9533 L 57.1446 102.178 L 53.4705 119.1196 L 50.6129 132.7953 L 46.7347 138.5105 L 43.2647 141.9804 L 30.6096 138.5105 L 29.1808 132.5911 L 34.6919 112.5879 L 36.9372 100.9533 Z " stroke-width="0.816459596157074"/>
      <path id="ID0.9716172609478235" fill="#393C40" stroke="none" stroke-linecap="round" d="M 41.1011 106.791 L 36.2024 104.4233 L 38.0802 97.8916 L 56.0832 107.6075 L 53.0623 110.6284 L 47.5512 112.5062 L 41.1011 106.791 Z " stroke-width="0.816459596157074"/>
      <g id="ID0.38066427363082767">
        <path id="ID0.4757494777441025" fill="#1D1E1F" stroke="none" stroke-linecap="round" d="M 46.3163 75.9422 L 54.8869 73.7996 L 70.8377 78.68 L 62.6242 104.1536 L 52.2681 109.1531 L 47.7447 110.2245 L 44.5308 107.8438 L 41.6739 104.8679 L 35.9602 102.2491 L 35.8412 96.7734 L 36.5554 88.679 L 39.7693 80.3465 L 46.3163 75.9422 Z " stroke-width="0.476142555475235"/>
        <path id="ID0.6007084371522069" fill="none" stroke="#0D0D0D" stroke-width="0.95228511095047" stroke-linecap="round" d="M 36.4364 102.6062 L 41.5549 104.8679 L 45.8402 108.558 L 47.7447 110.3435 L 52.2681 109.1531 L 56.6724 106.8915 "/>
      </g>
    </g>
    <g id="ID0.7397577832452953">
      <path id="ID0.6726378230378032" fill="#393C40" stroke="none" stroke-linecap="round" d="M 29.8932 129.5835 L 46.0999 138.6462 L 45.2834 140.9323 L 29.4849 131.7063 L 29.8932 129.5835 Z " stroke-width="0.816459596157074"/>
      <path id="ID0.6507829907350242" fill="#1D1E1F" stroke="none" stroke-linecap="round" d="M 26.5273 130.7541 L 45.51 140.9599 L 45.1018 159.9425 L 43.0606 170.5565 L 43.0606 186.6816 L 43.673 193.2133 L 31.6302 195.2544 L 31.4261 188.7227 L 29.589 178.9252 L 26.7314 166.4742 L 24.8944 156.8808 L 26.5273 130.7541 Z " stroke-width="0.816459596157074"/>
      <path id="ID0.6829322893172503" fill="#1D1E1F" stroke="none" stroke-linecap="round" d="M 31.222 194.8462 L 41.6318 189.7433 L 44.8977 195.2544 L 48.98 201.1738 L 48.98 206.889 L 48.3676 211.5836 L 46.3265 214.6453 L 44.8977 221.3811 L 40.203 221.177 L 38.9783 219.1359 L 37.3454 218.9317 L 34.0796 216.2783 L 30.6096 213.2165 L 28.5685 208.726 L 29.3849 201.582 L 31.222 194.8462 Z " stroke-width="0.816459596157074"/>
      <path id="ID0.47767175547778606" fill="none" stroke="#0D0D0D" stroke-width="1.632919192314148" stroke-linecap="round" d="M 26.5273 134.7139 L 26.8131 130.6316 L 45.4284 140.9599 L 45.1018 154.9621 "/>
      <path id="ID0.5922487881034613" fill="#282A2B" stroke="none" stroke-linecap="round" d="M 25.5137 164.7438 L 32.5761 159.1102 L 38.6995 159.1919 L 44.9046 165.152 L 43.4758 180.1341 L 38.7812 187.6863 L 35.3112 187.6863 L 29.1878 180.3382 L 25.5137 164.7438 Z " stroke-width="0.816459596157074"/>
      <path id="ID0.36820242274552584" fill="#151616" stroke="none" stroke-linecap="round" d="M 31.8058 167.509 L 40.297 167.4274 L 37.6027 178.9395 L 36.0922 178.8578 L 31.8058 167.509 Z " stroke-width="0.816459596157074"/>
      <path id="ID0.13569410238415003" fill="none" stroke="#232425" stroke-width="1.632919192314148" stroke-linecap="round" d="M 31.0995 178.5578 L 36.8147 185.7427 L 42.0401 178.3945 "/>
      <path id="ID0.024502143263816833" fill="none" stroke="#0D0D0D" stroke-width="1.632919192314148" stroke-linecap="round" d="M 25.9966 164.5147 L 32.3242 159.2077 L 38.366 158.9628 L 44.6527 164.9229 L 43.7546 173.4958 "/>
    </g>
  </g>
  <g id="ID0.17693647183477879">
    <path id="ID0.7729651997797191" fill="#393C40" stroke="none" stroke-linecap="round" d="M 119.7488 105.9132 L 100.5413 103.9176 L 101.3596 120.4333 L 101.9183 133.7484 L 104.6776 139.731 L 107.4025 143.5371 L 119.8526 142.2432 L 122.1193 136.8952 L 120.0493 117.212 L 119.7488 105.9132 Z " stroke-width="0.7788099208925566"/>
    <path id="ID0.9716172609478235" fill="#34373A" stroke="none" stroke-linecap="round" d="M 114.9208 110.7582 L 119.8998 109.2931 L 119.1501 102.8538 L 100.6943 109.1925 L 103.0666 112.506 L 107.9604 115.1318 L 114.9208 110.7582 Z " stroke-width="0.7788099208925566"/>
    <g id="ID0.38066427363082767">
      <path id="ID0.4757494777441025" fill="#1D1E1F" stroke="none" stroke-linecap="round" d="M 114.9518 80.9675 L 107.2201 77.6159 L 91.4488 79.7238 L 95.2098 104.9761 L 104.1768 111.2943 L 108.2668 113.0072 L 111.6623 111.2675 L 114.8144 108.912 L 120.5994 107.3377 L 121.5645 102.2032 L 122.1534 94.4744 L 120.4269 86.1322 L 114.9518 80.9675 Z " stroke-width="0.4541860309438696"/>
      <path id="ID0.6007084371522069" fill="none" stroke="#0D0D0D" stroke-width="0.9083720618877392" stroke-linecap="round" d="M 120.0957 107.5996 L 114.9264 108.9306 L 110.3187 111.7356 L 108.2482 113.1193 L 104.1768 111.2943 L 100.3844 108.4798 "/>
    </g>
  </g>
  <g id="ID0.7397577832452953">
    <path id="ID0.6726378230378032" fill="#34373A" stroke="none" stroke-linecap="round" d="M 119.1205 128.4496 L 103.1913 136.1946 L 103.8439 138.4163 L 119.3933 130.4935 L 119.1205 128.4496 Z " stroke-width="0.7788100106482843"/>
    <path id="ID0.6507829907350242" fill="#1D1E1F" stroke="none" stroke-linecap="round" d="M 122.2749 129.7 L 103.6396 138.3818 L 102.991 156.4817 L 104.3549 166.7011 L 103.4737 182.0574 L 102.5336 188.2442 L 113.8907 190.8461 L 114.442 184.637 L 116.7268 175.407 L 120.1286 163.7058 L 122.4022 154.6702 L 122.2749 129.7 Z " stroke-width="0.7788100106482843"/>
    <path id="ID0.6829322893172503" fill="#1D1E1F" stroke="none" stroke-linecap="round" d="M 114.3018 190.4796 L 104.6671 185.0512 L 101.2558 190.1211 L 97.0447 195.5351 L 96.7324 200.9778 L 97.059 205.4821 L 98.8355 208.5093 L 99.8281 215.0021 L 104.3101 215.0642 L 105.5879 213.1873 L 107.1541 213.0822 L 110.4092 210.7336 L 113.8811 208.0075 L 116.0703 203.8426 L 115.6831 196.9946 L 114.3018 190.4796 Z " stroke-width="0.7788100106482843"/>
    <path id="ID0.47767175547778606" fill="none" stroke="#0D0D0D" stroke-width="1.5576200212965685" stroke-linecap="round" d="M 122.0585 133.471 L 122.0094 129.5677 L 103.7173 138.3862 L 103.2632 151.7387 "/>
    <path id="ID0.5922487881034613" fill="#282A2B" stroke="none" stroke-linecap="round" d="M 121.3056 162.1422 L 114.8878 156.3913 L 109.0518 156.1345 L 102.8169 161.4714 L 103.3589 175.8171 L 107.417 183.2658 L 110.7215 183.4555 L 116.9545 176.7923 L 121.3056 162.1422 Z " stroke-width="0.7788100106482843"/>
    <path id="ID0.36820242274552584" fill="#151616" stroke="none" stroke-linecap="round" d="M 115.2846 164.2955 L 107.2027 163.7537 L 109.1395 174.8641 L 110.5824 174.8689 L 115.2846 164.2955 Z " stroke-width="0.7788100106482843"/>
    <path id="ID0.13569410238415003" fill="none" stroke="#232425" stroke-width="1.5576200212965685" stroke-linecap="round" d="M 115.3085 174.9745 L 109.4731 181.5045 L 104.8985 174.2212 "/>
    <path id="ID0.024502143263816833" fill="none" stroke="#0D0D0D" stroke-width="1.5576200212965685" stroke-linecap="round" d="M 120.9354 161.8799 L 115.1996 156.4801 L 109.4592 155.9167 L 103.1465 161.2492 L 103.5334 169.4623 "/>
  </g>
  <path id="ID0.3809091211296618" fill="#393D40" stroke="none" stroke-linecap="round" d="M 87.1736 189.2753 L 104.7719 166.8078 L 124.8691 199.9899 L 128.9001 210.1665 L 132.1554 228.4911 L 125.6121 234.699 L 114.5988 241.6385 L 105.3635 222.9793 L 101.927 212.0496 L 87.1736 189.2753 Z " stroke-width="0.7305889367433909"/>
  <path id="ID0.3809091211296618" fill="#3E4246" stroke="none" stroke-linecap="round" d="M 58.8945 162.5213 L 79.2807 174.9935 L 84.8415 213.3865 L 84.5832 224.3293 L 80.4322 242.4721 L 71.9856 245.6356 L 59.1378 247.729 L 57.1246 226.0503 L 54.5626 212.8812 L 58.8945 162.5213 Z " stroke-width="0.7305889404387307"/>
  <path id="ID0.5368814701214433" fill="#303436" stroke="none" stroke-linecap="round" d="M 44.6101 318.7348 L 47.1518 309.8005 L 51.2819 300.3879 L 61.4759 305.8579 L 73.0272 313.0543 L 90.874 322.7175 L 92.2021 329.1868 L 67.5684 331.3144 L 46.1981 328.4677 L 44.6101 318.7348 Z " stroke-width="0.770216546757846"/>
  <g id="ID0.9157347986474633">
    <path id="ID0.7477802094072104" fill="#363A3D" stroke="none" stroke-linecap="round" d="M 113.1154 124.4715 L 93.6382 120.9715 L 92.7831 162.1489 L 109.2591 171.4206 L 112.0532 146.952 L 113.1154 124.4715 Z " stroke-width="0.47614257300029306"/>
    <path id="ID0.7477802094072104" fill="#363A3D" stroke="none" stroke-linecap="round" d="M 52.7831 123.2358 L 76.2874 120.8664 L 75.4323 162.0439 L 58.5855 170.6236 L 53.6325 145.3988 L 52.7831 123.2358 Z " stroke-width="0.47614257300029306"/>
    <path id="ID0.4270821204409003" fill="#3E4246" stroke="none" stroke-linecap="round" d="M 53.5179 103.1385 L 57.5858 90.7215 L 59.968 84.937 L 66.6594 78.0513 L 97.6913 80.1245 L 104.505 84.5522 L 107.2772 88.6578 L 114.0615 100.2286 L 113.13 110.6866 L 112.0642 116.1413 L 113.587 123.0785 L 113.9494 128.5629 L 111.6639 135.421 L 109.9366 140.6238 L 108.5537 149.8818 L 109.5985 171.8108 L 104.2868 179.9158 L 99.3736 186.0287 L 87.1457 191.204 L 75.6169 187.9404 L 71.8289 181.1467 L 67.0115 174.6174 L 58.5309 171.3457 L 57.9148 145.9728 L 56.8631 139.2835 L 52.5303 127.7637 L 51.4461 116.9066 L 53.5179 103.1385 Z " stroke-width="0.47614257300029306"/>
    <path id="ID0.052435632329434156" fill="#393C40" stroke="none" stroke-linecap="round" d="M 64.6176 153.3064 L 69.0676 153.4464 L 75.5926 156.868 L 80.6659 156.8067 L 86.5079 158.7139 L 90.7193 157.7298 L 92.3953 157.2884 L 106.6758 154.1797 L 106.9646 157.4718 L 98.3094 161.4592 L 92.3653 161.0263 L 86.7086 163.9568 L 80.1172 160.2957 L 73.6817 160.5907 L 63.883 156.5772 L 64.6176 153.3064 Z " stroke-width="0.47614257300029306"/>
    <path id="ID0.4987568911164999" fill="none" stroke="#27282B" stroke-width="0.9522851460005861" stroke-linecap="round" d="M 66.4282 78.7223 L 59.8732 84.7774 L 56.3333 94.705 "/>
    <path id="ID0.2889464790932834" fill="none" stroke="#27282B" stroke-width="0.9522851460005861" stroke-linecap="round" d="M 99.0073 80.8276 L 104.6407 84.7545 L 110.1604 94.1559 "/>
    <path id="ID0.8373676878400147" fill="#000000" stroke="#2C2F31" stroke-width="0.6155104186945868" stroke-linecap="round" d="M 69.7718 91.8289 L 70.1477 90.3053 L 66.4906 91.1437 L 61.5712 94.3904 L 57.345 99.3623 L 54.7859 104.9474 L 59.9649 102.7905 L 64.6638 102.7687 L 67.3933 103.7374 L 69.8766 106.7745 L 71.9998 105.7908 L 76.0137 105.5844 L 80.5076 106.7087 L 84.2907 109.9577 L 86.3094 113.0511 L 88.5215 110.069 L 92.2778 107.0016 L 96.42 105.6457 L 101.5766 105.7213 L 103.3974 106.3414 L 105.1518 103.2619 L 107.1315 102.0408 L 109.7243 102.6183 L 112.4998 104.2822 L 111.1302 100.4475 L 108.9186 96.4983 L 106.1278 93.4475 L 102.9954 91.1516 L 98.4947 90.1811 L 100.6416 92.125 L 100.5629 93.8928 L 98.9298 95.9766 L 95.336 97.1258 L 92.1675 97.3698 L 89.5473 97.4072 L 87.0914 93.7552 L 86.6147 95.8134 L 85.1543 95.7484 L 83.6463 93.2938 L 82.6126 97.4836 L 78.5286 97.5328 L 74.4156 96.5025 L 71.0919 95.0453 L 69.7718 91.8289 Z "/>
    <path id="ID0.5698574706912041" fill="none" stroke="#313537" stroke-width="0.9522851460005861" stroke-linecap="round" d="M 64.5497 153.1383 L 63.8879 156.3392 L 73.6792 160.7097 L 80.4702 160.4935 L 86.473 163.8328 "/>
    <path id="ID0.5698574706912041" fill="none" stroke="#313537" stroke-width="0.8933066257048137" stroke-linecap="round" d="M 106.4201 154.2278 L 106.8721 157.4518 L 98.1747 161.4384 L 92.2685 160.9586 L 86.9108 164.0619 "/>
    <path id="ID0.8947288258932531" fill="#393C40" stroke="none" stroke-linecap="round" d="M 66.1069 141.2169 L 73.131 141.2437 L 80.6367 143.3045 L 86.1869 148.9442 L 79.1848 144.4173 L 68.4575 142.6944 L 63.2773 145.611 L 66.1069 141.2169 Z " stroke-width="0.47614257300029306"/>
    <path id="ID0.8947288258932531" fill="#393C40" stroke="none" stroke-linecap="round" d="M 104.8687 143.0222 L 98.657 142.7878 L 91.9447 144.3343 L 86.8299 149.1171 L 93.1875 145.3716 L 102.7361 144.2423 L 107.2093 147.0115 L 104.8687 143.0222 Z " stroke-width="0.4213738884176943"/>
    <path id="ID0.9897695370018482" fill="#393C40" stroke="none" stroke-linecap="round" d="M 69.3037 153.5466 L 62.768 152.9346 L 63.2928 148.3021 L 64.4103 151.8257 L 69.5009 152.0743 L 75.5692 155.7007 L 81.0511 155.4574 L 85.1153 156.9705 L 86.659 149.1445 L 86.6933 158.9559 L 81.1414 156.8403 L 75.2623 156.7183 L 69.3037 153.5466 Z " stroke-width="0.47614257300029306"/>
    <path id="ID0.9897695370018482" fill="#393C40" stroke="none" stroke-linecap="round" d="M 101.6103 154.4693 L 107.155 154.1415 L 106.8823 149.8173 L 105.8083 153.0505 L 101.4979 153.0939 L 96.237 156.2401 L 91.6142 155.8119 L 88.1244 157.0682 L 87.1086 149.7389 L 86.7179 158.855 L 91.4868 157.0937 L 96.4588 157.197 L 101.6103 154.4693 Z " stroke-width="0.4232251205631144"/>
    <path id="ID0.3524594851769507" fill="#393C40" stroke="none" stroke-linecap="round" d="M 80.4472 119.0607 L 86.3046 121.3731 L 90.804 119.1329 L 87.5593 122.8755 L 88.28 134.0346 L 97.3664 133.366 L 86.867 136.7199 L 75.3014 131.7887 L 84.9468 134.013 L 84.7764 122.7225 L 80.4472 119.0607 Z " stroke-width="0.47614257300029306"/>
    <path id="ID0.9214867809787393" fill="#393C40" stroke="none" stroke-linecap="round" d="M 66.1875 137.3371 L 69.2502 133.186 L 74.0304 132.3327 L 68.1001 136.972 L 67.8012 139.8947 L 72.8463 140.0471 L 80.9436 143.4299 L 72.0098 141.3394 L 66.1545 141.2178 L 66.1875 137.3371 Z " stroke-width="0.47614257300029306"/>
    <path id="ID0.9214867809787393" fill="#393C40" stroke="none" stroke-linecap="round" d="M 104.622 138.9159 L 101.9825 134.8388 L 97.6446 133.8397 L 102.8873 138.4935 L 103.0471 141.292 L 98.428 141.2415 L 91.7251 143.9429 L 99.1427 142.5062 L 104.5015 142.6175 L 104.622 138.9159 Z " stroke-width="0.4451788453890468"/>
    <path id="ID0.8679121839813888" fill="#2C2F31" stroke="none" stroke-linecap="round" d="M 82.4241 118.0054 L 86.1988 119.703 L 89.5652 118.1299 L 90.4975 119.1017 L 86.5148 121.686 L 80.8012 119.329 L 82.4241 118.0054 Z " stroke-width="0.47614257300029306"/>
    <path id="ID0.24770551454275846" fill="none" stroke="#313537" stroke-width="0.9522851460005861" stroke-linecap="round" d="M 86.4959 116.1296 L 91.0631 119.7963 L 98.5509 120.4281 L 106.1898 119.5151 L 111.5053 115.8156 "/>
    <path id="ID0.20603158557787538" fill="none" stroke="#313537" stroke-width="0.9522851460005861" stroke-linecap="round" d="M 53.2476 111.4286 L 60.158 116.9298 L 72.4683 120.4001 L 79.7403 119.9558 L 86.0103 116.157 "/>
    <g id="ID0.5272086253389716">
      <path id="ID0.24770551454275846" fill="none" stroke="#363A3D" stroke-width="0.9522850864087884" stroke-linecap="round" d="M 55.9879 144.0256 L 65.9553 141.0655 "/>
      <path id="ID0.24770551454275846" fill="none" stroke="#363A3D" stroke-width="0.9522850864087884" stroke-linecap="round" d="M 53.6542 132.0538 L 74.2053 126.2655 "/>
    </g>
    <g id="ID0.5272086253389716">
      <path id="ID0.24770551454275846" fill="none" stroke="#363A3D" stroke-width="0.9522850864087884" stroke-linecap="round" d="M 111.4797 144.2318 L 104.5807 142.2557 "/>
      <path id="ID0.24770551454275846" fill="none" stroke="#363A3D" stroke-width="0.9522850864087884" stroke-linecap="round" d="M 112.2029 132.8424 L 98.4298 127.7945 "/>
    </g>
    <g id="ID0.7887678607366979">
      <path id="ID0.753661650698632" fill="none" stroke="#313537" stroke-width="0.9522850864087884" stroke-linecap="round" d="M 80.9207 119.1896 L 86.1078 121.6786 L 90.2085 119.1444 "/>
      <g id="ID0.8167418288066983">
        <path id="ID0.9553722990676761" fill="none" stroke="#313537" stroke-width="1.0409107743576298" stroke-linecap="round" d="M 86.4063 136.5479 L 80.8392 134.2892 L 74.706 132.2569 L 69.9163 133.1099 L 66.3201 137.3214 L 66.2484 140.7727 "/>
        <path id="ID0.5982440118677914" fill="none" stroke="#313537" stroke-width="0.8540413396238158" stroke-linecap="round" d="M 75.0334 131.8556 L 73.9532 126.5387 L 79.3362 119.5913 "/>
      </g>
      <g id="ID0.7324484633281827">
        <path id="ID0.04993448918685317" fill="none" stroke="#313537" stroke-width="0.9522850864087884" stroke-linecap="round" d="M 86.1102 121.5595 L 86.6068 132.0472 L 86.7418 148.4805 L 86.6413 164.7898 "/>
        <g id="ID0.8167418288066983">
          <path id="ID0.9553722990676761" fill="none" stroke="#313537" stroke-width="0.9699703077304642" stroke-linecap="round" d="M 86.7502 136.4275 L 91.8128 135.1754 L 97.2815 133.384 L 101.457 134.4232 L 104.4528 138.7716 L 104.3811 142.2229 "/>
          <path id="ID0.5982440118677914" fill="none" stroke="#313537" stroke-width="0.7916616152166959" stroke-linecap="round" d="M 97.0361 133.0336 L 98.1927 127.7632 L 93.7336 120.6113 "/>
          <path id="ID0.3567589442245662" fill="none" stroke="#313537" stroke-width="0.8967655150693851" stroke-linecap="round" d="M 86.6263 149.1264 L 91.8586 144.2583 L 99.2253 142.5063 L 104.7521 142.6211 L 106.8958 147.309 L 107.0431 154.3367 L 101.4805 154.9355 L 95.7638 157.9124 L 90.8491 157.5722 L 86.6031 159.3176 L 80.8142 156.6971 L 75.2197 156.819 L 68.8569 153.5913 L 62.5704 152.7464 L 63.0511 145.7318 L 65.7016 141.1434 L 71.982 141.2738 L 80.2746 143.351 L 85.9911 148.4465 Z "/>
        </g>
      </g>
    </g>
    <g id="ID0.9312638868577778">
      <path id="ID0.2888958193361759" fill="#393C40" stroke="none" stroke-linecap="round" d="M 66.9592 161.4331 L 77.1308 163.729 L 76.4755 166.6319 L 66.3039 164.3359 L 66.9592 161.4331 Z " stroke-width="0.4761425459216224"/>
      <path id="ID0.2888958193361759" fill="#393C40" stroke="none" stroke-linecap="round" d="M 56.2581 159.1286 L 67.6808 161.829 L 67.0255 164.7319 L 56.8539 162.4359 L 56.2581 159.1286 Z " stroke-width="0.4761425459216224"/>
      <g id="ID0.36424446757882833">
        <path id="ID0.7359844641759992" fill="#8A7B59" stroke="none" d="M 69.8379 160.7806 L 71.3612 160.8122 L 71.2318 167.0484 L 69.7084 167.0167 L 69.8379 160.7806 Z " stroke-width="0.4761425432043942"/>
        <path id="ID0.7359844641759992" fill="#8A7B59" stroke="none" d="M 67.9879 160.3306 L 69.5112 160.3622 L 69.3818 166.5984 L 67.8584 166.5667 L 67.9879 160.3306 Z " stroke-width="0.4761425432043942"/>
        <path id="ID0.7359844641759992" fill="#8A7B59" stroke="none" d="M 66.0379 159.6306 L 67.5612 159.6622 L 67.4318 165.8984 L 65.9084 165.8667 L 66.0379 159.6306 Z " stroke-width="0.4761425432043942"/>
        <path id="ID0.7359844641759992" fill="#8A7B59" stroke="none" d="M 71.7379 161.3306 L 73.2612 161.3622 L 73.1318 167.5984 L 71.6084 167.5667 L 71.7379 161.3306 Z " stroke-width="0.4761425432043942"/>
      </g>
      <g id="ID0.1049797898158431">
        <path id="ID0.08871637750416994" fill="#8A7B59" stroke="none" stroke-linecap="round" d="M 57.9895 158.5074 L 64.3705 159.6877 L 64.2067 165.2801 L 58.0643 164.081 L 57.9895 158.5074 Z " stroke-width="0.4761425432043942"/>
        <path id="ID0.13805592898279428" fill="#76694C" stroke="none" stroke-linecap="round" d="M 57.7978 158.2378 L 64.4882 159.4245 L 64.5236 162.3065 L 57.8114 161.0241 L 57.7978 158.2378 Z " stroke-width="0.4761425432043942"/>
        <path id="ID0.3221200187690556" fill="#61563F" stroke="none" stroke-linecap="round" d="M 60.6 160.489 L 61.4708 160.8689 L 61.5118 162.6272 L 60.5629 162.2716 L 60.6 160.489 Z " stroke-width="0.5167888865886084"/>
        <path id="ID0.1420820001512766" fill="#BAA578" stroke="none" stroke-linecap="round" d="M 63.5518 164.3318 L 64.2956 162.9185 L 64.2952 165.2283 L 58.056 164.0986 L 63.5518 164.3318 Z " stroke-width="0.4761425432043942"/>
      </g>
      <path id="ID0.2888958193361759" fill="#393C40" stroke="none" stroke-linecap="round" d="M 104.5902 162.6025 L 97.1307 164.2611 L 97.5102 166.806 L 104.9697 165.1474 L 104.5902 162.6025 Z " stroke-width="0.3810469777360591"/>
      <path id="ID0.2888958193361759" fill="#393C40" stroke="none" stroke-linecap="round" d="M 111.1651 160.9157 L 104.1307 162.7111 L 104.5102 165.256 L 110.6833 163.8204 L 111.1651 160.9157 Z " stroke-width="0.3810469777360591"/>
      <path id="ID0.7359844641759992" fill="#8A7B59" stroke="none" d="M 102.5701 161.5255 L 101.4633 161.5025 L 101.3506 166.9273 L 102.4574 166.9503 L 102.5701 161.5255 Z " stroke-width="0.3816027988624045"/>
      <path id="ID0.7359844641759992" fill="#8A7B59" stroke="none" d="M 103.9701 161.0755 L 102.8633 161.0525 L 102.7506 166.4773 L 103.8574 166.5003 L 103.9701 161.0755 Z " stroke-width="0.3816027988624045"/>
      <path id="ID0.7359844641759992" fill="#8A7B59" stroke="none" d="M 105.4701 160.6255 L 104.3633 160.6025 L 104.2506 166.0273 L 105.3574 166.0503 L 105.4701 160.6255 Z " stroke-width="0.3816027988624045"/>
      <path id="ID0.7359844641759992" fill="#8A7B59" stroke="none" d="M 101.1201 162.0755 L 100.0133 162.0525 L 99.9006 167.4773 L 101.0074 167.5003 L 101.1201 162.0755 Z " stroke-width="0.3816027988624045"/>
      <g id="ID0.1049797898158431">
        <path id="ID0.08871637750416994" fill="#8A7B59" stroke="none" stroke-linecap="round" d="M 111.4077 159.8854 L 106.4448 160.7507 L 106.3742 165.9213 L 111.1538 165.0302 L 111.4077 159.8854 Z " stroke-width="0.40545296430512573"/>
        <path id="ID0.13805592898279428" fill="#76694C" stroke="none" stroke-linecap="round" d="M 111.6523 159.6886 L 106.4505 160.549 L 106.3217 163.2094 L 111.5437 162.2614 L 111.6523 159.6886 Z " stroke-width="0.40545296430512573"/>
        <path id="ID0.3221200187690556" fill="#61563F" stroke="none" stroke-linecap="round" d="M 109.5299 161.6428 L 108.8449 161.963 L 108.7513 163.5854 L 109.4957 163.2903 L 109.5299 161.6428 Z " stroke-width="0.4400648059527854"/>
        <path id="ID0.1420820001512766" fill="#BAA578" stroke="none" stroke-linecap="round" d="M 106.9982 165.1103 L 106.4743 163.7788 L 106.3933 165.912 L 111.245 165.0884 L 106.9982 165.1103 Z " stroke-width="0.40545296430512573"/>
      </g>
      <g id="ID0.6836685389280319">
        <path id="ID0.09357938077300787" fill="#857656" stroke="none" d="M 77.7247 160.9089 L 95.6952 161.2821 L 95.5618 167.7086 L 77.5913 167.3354 L 77.7247 160.9089 Z " stroke-width="0.42833206411122815"/>
        <path id="ID0.6492703901603818" fill="#7C6E50" stroke="none" stroke-linecap="round" d="M 78.3684 163.093 L 86.5158 166.3578 L 95.4106 163.4469 L 95.3221 167.7075 L 78.2799 167.3536 L 78.3684 163.093 Z " stroke-width="0.4761425432043942"/>
        <g id="ID0.9254062357358634">
          <g id="ID0.49943465692922473">
            <path id="ID0.140373723115772" fill="#968561" stroke="none" d="M 94.1906 160.0517 L 99.308 160.1579 L 99.1202 169.2027 L 94.0028 169.0964 L 94.1906 160.0517 Z " stroke-width="0.4761425432043942"/>
            <path id="ID0.8286363878287375" fill="#BAA578" stroke="none" stroke-linecap="round" d="M 94.1728 159.8742 L 99.4043 160.221 L 95.2469 160.8966 L 94.1789 163.0176 L 94.1728 159.8742 Z " stroke-width="0.4761425432043942"/>
            <path id="ID0.7362233307212591" fill="#8A7B59" stroke="none" stroke-linecap="round" d="M 94.07 165.968 L 96.7825 166.072 L 99.2845 163.6951 L 99.1683 169.2885 L 94.0033 169.1813 L 94.07 165.968 Z " stroke-width="0.4761425432043942"/>
          </g>
          <g id="ID0.49943465692922473">
            <path id="ID0.140373723115772" fill="#968561" stroke="none" d="M 79.1483 159.9906 L 74.0309 159.8843 L 73.8431 168.9291 L 78.9605 169.0354 L 79.1483 159.9906 Z " stroke-width="0.4761425432043942"/>
            <path id="ID0.8286363878287375" fill="#BAA578" stroke="none" stroke-linecap="round" d="M 79.2093 159.8013 L 73.9679 159.9306 L 78.0936 160.7782 L 79.0726 162.9417 L 79.2093 159.8013 Z " stroke-width="0.4761425432043942"/>
            <path id="ID0.7362233307212591" fill="#8A7B59" stroke="none" stroke-linecap="round" d="M 79.0589 165.8941 L 76.3445 165.8854 L 73.9433 163.4066 L 73.8272 169.0001 L 78.9922 169.1074 L 79.0589 165.8941 Z " stroke-width="0.4761425432043942"/>
          </g>
        </g>
      </g>
    </g>
  </g>
  <g id="ID0.8333355090580881">
    <path id="ID0.9286923445761204" fill="#27282B" stroke="none" stroke-linecap="round" d="M 72.863 44.1601 L 91.6707 45.6361 L 92.1468 69.9908 L 107.3834 77.1329 L 84.5285 88.4889 L 47.8656 75.9426 L 67.7445 65.3484 L 72.863 44.1601 Z " stroke-width="0.4761425852775574"/>
    <path id="ID0.5448851804248989" fill="none" stroke="#1D1E1F" stroke-width="0.9522851705551147" stroke-linecap="round" d="M 69.1729 59.5871 L 67.935 65.158 L 85.0285 73.0143 L 91.8611 70.086 "/>
    <path id="ID0.262191956397146" fill="none" stroke="#1D1E1F" stroke-width="0.9522851705551147" stroke-linecap="round" d="M 71.9346 64.539 L 84.6476 70.7288 L 87.6473 69.6099 "/>
  </g>
  <g id="ID0.3450673264451325">
    <g id="ID0.9831569031812251">
      <path id="ID0.0877610077150166" fill="#2E3034" stroke="none" stroke-linecap="round" d="M 95.7251 13.3343 L 91.1527 0.2177 L 91.1527 28.7463 L 98.8241 28.7463 L 95.7251 13.3343 Z " stroke-width="0.5866066539949776"/>
      <path id="ID0.796130308881402" fill="#242628" stroke="none" stroke-linecap="round" d="M 96.033 13.3789 L 91.105 0.2623 L 94.6613 14.1004 L 95.6012 28.9877 L 98.7764 28.6926 L 96.033 13.3789 Z " stroke-width="0.5866066539949776"/>
    </g>
    <g id="ID0.9831569031812251">
      <path id="ID0.0877610077150166" fill="#2E3034" stroke="none" stroke-linecap="round" d="M 71.8749 13.4843 L 76.4473 0.3677 L 76.4473 28.8963 L 68.7759 28.8963 L 71.8749 13.4843 Z " stroke-width="0.5866066539949776"/>
      <path id="ID0.796130308881402" fill="#242628" stroke="none" stroke-linecap="round" d="M 71.417 13.5289 L 76.345 0.4123 L 72.7887 14.2504 L 71.6964 28.8098 L 68.6736 28.8426 L 71.417 13.5289 Z " stroke-width="0.5866066539949776"/>
    </g>
    <path id="ID0.8999492498114705" fill="#2E3034" stroke="none" stroke-linecap="round" d="M 89.3733 19.3124 C 93.7775 19.7915 98.5093 22.5019 100.6416 26.3848 C 103.0745 30.8179 101.1267 36.4165 101.4265 41.412 C 101.5997 43.1155 102.3923 44.8682 102.0615 46.4924 C 101.3879 49.7962 99.7139 52.8251 98.6323 56.0181 C 97.9236 58.1107 97.7691 60.4655 96.6001 62.3686 C 95.2843 64.6212 93.9416 67.7553 91.3419 68.211 C 87.488 68.8862 83.4115 67.0451 79.9619 65.2898 C 77.1281 63.8475 74.4746 61.6355 72.9002 58.8631 C 70.0806 53.7182 67.5196 48.0582 67.134 42.1741 C 66.7067 35.6514 65.9365 27.5853 70.6902 22.8687 C 74.9425 18.3273 82.8262 18.6032 89.3733 19.3124 Z " stroke-width="0.508037269115448"/>
    <path id="ID0.2441388238221407" fill="#AB8E85" stroke="none" d="M 87.0438 44.1745 C 91.1241 44.3416 96.5631 41.1768 99.2883 43.9234 C 101.7434 46.5142 98.3753 51.3755 97.4045 54.8492 C 96.4375 58.304 95.7493 62.0426 93.5114 64.8959 C 92.4439 66.1643 90.2186 66.2359 88.488 65.9634 C 85.3761 65.4698 82.3143 64.1864 79.7198 62.3955 C 77.0348 60.5432 73.487 58.5137 72.9156 55.2887 C 72.1923 51.2035 72.8566 45.8084 76.0552 43.2327 C 78.9889 40.9834 83.3743 44.0238 87.0438 44.1745 Z " stroke-width="1.2558400630950928"/>
    <path id="ID0.46721756737679243" fill="#A2887F" stroke="none" stroke-linecap="round" d="M 72.4363 45.2953 L 74.1129 45.9812 L 100.1244 45.6001 L 92.9102 50.6805 L 76.1704 48.2165 L 77.2881 50.6043 L 77.5421 56.2181 L 81.1746 63.4068 L 76.6023 56.7261 L 72.4363 45.2953 Z " stroke-width="0.508037269115448"/>
    <path id="ID0.8256730306893587" fill="none" stroke="#937B73" stroke-width="1.016074538230896" stroke-linecap="round" d="M 83.3886 57.0778 C 83.3886 57.0778 86.0878 56.4813 87.4529 56.2903 C 87.7943 56.2425 88.1326 56.3203 88.4689 56.3665 C 88.8109 56.4138 89.1401 56.5814 89.485 56.5697 C 90.1688 56.5469 90.8379 56.3497 91.5172 56.2649 C 91.854 56.2227 92.1939 56.1846 92.5332 56.1887 C 92.8731 56.1928 93.2181 56.2131 93.5493 56.2903 C 94.0939 56.4173 95.1496 56.7983 95.1496 56.7983 "/>
    <path id="ID0.7592270169407129" fill="none" stroke="#937B73" stroke-width="1.016074538230896" stroke-linecap="round" d="M 91.9693 58.4019 C 91.9693 58.4019 91.3475 58.7468 91.004 58.8083 C 90.6708 58.8682 90.3248 58.7235 89.988 58.7575 C 89.6491 58.792 89.3351 58.9688 88.9973 59.0115 C 88.6615 59.0542 88.3109 59.0867 87.9812 59.0115 C 87.7008 58.9475 87.2192 58.6051 87.2192 58.6051 "/>
    <path id="ID0.5332203092984855" fill="none" stroke="#937B73" stroke-width="1.016074538230896" stroke-linecap="round" d="M 86.0009 48.9532 C 86.0009 48.9532 85.3954 49.385 85.2897 49.7152 C 85.1525 50.1577 84.898 51.0026 85.3405 51.3156 C 85.9212 51.6056 86.6797 50.8786 87.3726 50.9345 C 88.0433 50.9914 89.354 51.4426 89.354 51.4426 "/>
    <path id="ID0.2278452254831791" fill="none" stroke="#937B73" stroke-width="1.016074538230896" stroke-linecap="round" d="M 90.3447 45.2953 C 90.3447 45.2953 91.2789 47.1578 91.7418 48.0895 C 91.8967 48.4015 92.0674 48.7073 92.199 49.0294 C 92.3306 49.3515 92.5429 49.6726 92.5292 50.0201 C 92.5155 50.3686 92.3092 50.6907 92.1228 50.9853 C 91.9983 51.1824 91.6148 51.468 91.6148 51.468 "/>
    <path id="ID0.6473136460408568" fill="none" stroke="#937B73" stroke-width="1.016074563998663" stroke-linecap="round" d="M 90.6945 62.2247 C 90.6945 62.2247 91.0113 62.8595 91.0622 63.2041 C 91.1113 63.5396 91.0513 63.8871 90.9877 64.2203 C 90.8923 64.7223 90.5871 65.7015 90.5871 65.7015 "/>
    <path id="ID0.11669129692018032" fill="#2E3034" stroke="none" stroke-linecap="round" d="M 74.3669 39.9609 L 97.6096 41.739 L 101.5469 44.4062 L 92.1482 49.1056 L 71.4457 46.5654 L 74.3669 39.9609 Z " stroke-width="0.508037269115448"/>
    <path id="ID0.14635155349969864" fill="#2E3034" stroke="none" stroke-linecap="round" d="M 71.6997 45.2191 L 73.554 45.6001 L 76.1958 50.8075 L 76.5006 56.5737 L 78.3296 60.384 L 81.2254 63.9149 L 72.9952 58.7075 L 71.6997 45.2191 Z " stroke-width="0.508037269115448"/>
    <path id="ID0.28340246016159654" fill="#1C1D1F" stroke="none" stroke-linecap="round" d="M 74.5308 36.8008 L 77.9604 38.3401 L 87.6283 39.2313 L 87.6283 44.9834 L 80.688 44.0382 L 76.8262 42.958 L 74.8008 41.4457 L 73.9367 39.7174 L 74.5308 36.8008 Z " stroke-width="0.5401026606559753"/>
    <path id="ID0.6101007834076881" fill="#FFFFFF" stroke="none" stroke-linecap="round" d="M 78.3473 39.3334 L 80.0001 39.7332 L 83.78 40.9344 L 84.3247 42.9027 L 79.07 41.4498 L 78.3473 39.3334 Z " stroke-width="0.4061061920009203"/>
    <path id="ID0.28340246016159654" fill="#1C1D1F" stroke="none" stroke-linecap="round" d="M 100.1357 36.8586 L 97.0774 38.2313 L 88.4563 39.0259 L 88.4563 44.1553 L 94.6452 43.3124 L 98.0888 42.3492 L 99.8949 41.0006 L 100.6655 39.4594 L 100.1357 36.8586 Z " stroke-width="0.4816249907016754"/>
    <path id="ID0.6101007834076881" fill="#FFFFFF" stroke="none" stroke-linecap="round" d="M 98.4526 38.9089 L 96.9112 39.4003 L 93.4053 40.7963 L 93.0217 42.7012 L 97.9101 40.9663 L 98.4526 38.9089 Z " stroke-width="0.3863867372519633"/>
    <g id="ID0.07940126257017255">
      <path id="ID0.46257128613069654" fill="#27282B" stroke="none" stroke-linecap="round" d="M 87.8045 39.0743 L 92.1482 49.0318 L 82.1145 47.7617 L 87.8045 39.0743 Z " stroke-width="0.508037269115448"/>
      <path id="ID0.9845890481956303" fill="#27282B" stroke="none" stroke-linecap="round" d="M 88.6173 39.1989 L 96.8983 46.5654 L 92.2244 49.1056 L 88.6173 39.1989 Z " stroke-width="0.508037269115448"/>
    </g>
    <path id="ID0.20071752788498998" fill="#202324" stroke="none" d="M 79.3686 34.5018 L 83.5091 37.0673 L 88.2593 38.2358 L 88.3355 39.6329 L 80.5625 38.3628 L 74.6693 36.0259 L 76.3966 34.2477 L 79.3686 34.5018 Z " stroke-width="0.508037269115448"/>
    <path id="ID0.20071752788498998" fill="#202324" stroke="none" d="M 96.4242 34.2614 L 93.3713 36.7084 L 88.1277 38.2698 L 88.0578 39.5516 L 95.1891 38.3864 L 100.6191 36.3588 L 99.081 34.1216 L 96.4242 34.2614 Z " stroke-width="0.46609798073768616"/>
    <path id="ID0.521138689480722" fill="none" stroke="#212325" stroke-width="0.9060627222061157" stroke-linecap="round" d="M 100.2139 36.5742 L 96.9747 38.1598 L 88.4351 39.4057 "/>
    <path id="ID0.17828734638169408" fill="none" stroke="#202324" stroke-width="1.016074538230896" stroke-linecap="round" d="M 92.0466 48.5467 L 89.1254 41.3072 C 88.1245 38.8879 88.2729 39.4564 88.0839 38.4876 C 88.0179 38.1493 88.2358 37.8129 88.2871 37.4715 C 88.3374 37.1352 88.4014 36.7953 88.3887 36.4555 C 88.376 36.112 88.2769 35.7762 88.2109 35.4394 C 88.1078 34.9136 87.8807 33.8645 87.8807 33.8645 "/>
    <path id="ID0.521138689480722" fill="none" stroke="#212325" stroke-width="1.016074538230896" stroke-linecap="round" d="M 74.8068 36.3055 L 78.4392 38.0836 L 88.0157 39.4807 "/>
    <path id="ID0.8012696979567409" fill="none" stroke="url(#grad_1)" stroke-width="1.016074538230896" stroke-linecap="round" d="M 100.1244 45.1429 L 92.6562 49.0548 L 74.0621 46.7178 L 76.0434 50.5789 L 76.3482 56.6753 L 78.2788 60.2824 L 81.1746 63.9149 "/>
    <path id="ID0.043594349175691605" fill="#D7E2FD" stroke="none" stroke-linecap="round" d="M 83.5289 41.9677 L 83.7575 40.85 L 84.2656 42.9075 L 81.6746 42.1709 L 83.5289 41.9677 Z " stroke-width="0.508037269115448"/>
    <path id="ID0.043594349175691605" fill="#D7E2FD" stroke="none" stroke-linecap="round" d="M 93.7225 41.8348 L 93.4574 40.8321 L 93.1024 42.7258 L 95.4161 41.9236 L 93.7225 41.8348 Z " stroke-width="0.4618642652203811"/>
  </g>
  <g id="ID0.7049301471561193">
    <path id="ID0.05466862628236413" fill="#303436" stroke="none" stroke-linecap="round" d="M 58.4838 235.3728 L 85.2195 234.9256 L 77.9774 253.0024 L 75.7728 257.8011 L 72.8734 275.7105 L 64.5161 315.5968 L 48.7302 315.4618 L 49.385 293.2222 L 47.779 284.3101 L 47.6611 274.7914 L 51.4482 261.6592 L 53.0221 249.439 L 58.4838 235.3728 Z " stroke-width="0.7305889771857395"/>
    <path id="ID0.4490455654449761" fill="none" stroke="#272A2B" stroke-width="1.6585522901089766" stroke-linecap="round" d="M 58.262 236.2016 L 85.0369 235.3699 L 75.1887 258.7123 "/>
    <path id="ID0.10446935473009944" fill="none" stroke="#242728" stroke-width="1.6585522901089766" stroke-linecap="round" d="M 73.2774 270.9003 L 70.9634 287.5789 L 59.565 293.5089 "/>
    <path id="ID0.42170455446466804" fill="none" stroke="#242728" stroke-width="1.6585522901089766" stroke-linecap="round" d="M 69.7212 288.5925 L 66.3524 303.3457 L 54.7109 309.4397 "/>
    <path id="ID0.047098892275244" fill="none" stroke="#242728" stroke-width="1.6585522901089766" stroke-linecap="round" d="M 53.4 249.9052 L 52.4295 253.724 L 55.7582 263.0809 "/>
  </g>
  <g id="ID0.4107501800172031">
    <g id="ID0.12414784263819456">
      <path id="ID0.05466862628236413" fill="#292D2E" stroke="none" stroke-linecap="round" d="M 112.2339 220.5734 L 136.9661 230.7378 L 123.1644 244.4759 L 119.2415 248.0112 L 109.4946 263.3132 L 86.0421 296.641 L 71.597 290.273 L 80.9952 270.1061 L 83.0452 261.2856 L 86.702 252.4965 L 95.3746 241.9333 L 101.6538 231.3322 L 112.2339 220.5734 Z " stroke-width="0.7305889819884505"/>
      <path id="ID0.4490455654449761" fill="none" stroke="#272A2B" stroke-width="1.6585523491714311" stroke-linecap="round" d="M 111.8703 220.7333 L 136.7906 230.5601 L 118.5125 248.1034 "/>
      <path id="ID0.10446935473009944" fill="none" stroke="#242728" stroke-width="1.6585523491714311" stroke-linecap="round" d="M 111.9362 258.5415 L 103.2139 272.9446 L 90.3995 273.8825 "/>
      <path id="ID0.42170455446466804" fill="none" stroke="#242728" stroke-width="1.6585523491714311" stroke-linecap="round" d="M 101.672 273.3842 L 92.7424 285.6017 L 79.6399 286.5941 "/>
      <path id="ID0.047098892275244" fill="none" stroke="#242728" stroke-width="1.6585523491714311" stroke-linecap="round" d="M 101.9944 231.37 L 99.5926 234.4934 L 98.9488 244.4039 "/>
    </g>
    <path id="ID0.5368814701214433" fill="#292D2E" stroke="none" stroke-linecap="round" d="M 64.2453 292.806 L 70.1455 285.6318 L 77.693 278.6539 L 84.8517 287.742 L 92.5647 298.9549 L 105.0628 314.945 L 103.695 321.406 L 80.2635 313.5121 L 61.8115 302.3625 L 64.2453 292.806 Z " stroke-width="0.7702165300685189"/>
  </g>
</svg>