<svg xmlns="http://www.w3.org/2000/svg" xmlns:xlink="http://www.w3.org/1999/xlink" version="1.1" width="113.71770443066471" height="266.94692195996157" viewBox="0.2993635458523396 0.14202683396879467 113.71770443066471 266.94692195996157">
  <!-- Exported by Scratch - http://scratch.mit.edu/ -->
  <path id="ID0.7766774026677012" fill="#0D0D0D" stroke="#0D0D0D" stroke-width="1.9914776240240806" stroke-linecap="round" d="M 113 122.7961 C 112.282 89.606 113.011 55.128 102 23.4023 C 97.836 11.4077 82.541 5.8803 70.5 1.5902 C 65.004 -0.3649 59.434 4.5428 54 6.2997 C 52.457 6.7944 51.312 7.8325 50 8.5304 C 48.143 9.3206 46.189 9.9205 44.5 10.7612 C 43.902 11.0607 43.3 11.3561 42.75 11.7527 C 42.1 12.0997 41.6 12.5954 41 12.992 C 39.75 13.7356 38.5 14.5288 37.25 15.2228 C 36 15.8177 34.7 16.3134 33.5 16.9579 C 32.9 17.2553 32.25 17.5032 31.75 17.9493 C 31.15 18.3955 30.75 19.0895 30.25 19.6844 C 29.75 20.1801 29.25 20.6758 28.75 21.1716 C 28.25 21.6177 27.6 22.0639 27.25 22.6587 C 26.85 23.204 26.75 23.9476 26.5 24.6417 C 26.25 25.2861 25.95 25.9306 25.75 26.6246 C 25.3 27.9135 24.9 29.2519 24.5 30.5904 C 24.25 31.2349 24 31.8793 23.75 32.5733 C 23.5 33.2178 23.25 33.8622 23 34.5563 C 22.75 35.2007 22.5 35.8452 22.25 36.5392 C 22 37.1836 21.65 37.8281 21.5 38.5221 C 21.3 39.1665 21.3 39.811 21.25 40.505 C 21.15 41.1495 21.05 41.7939 21 42.4879 C 20.9 43.1324 20.85 43.7768 20.75 44.4708 C 20.6 45.1153 20.35 45.7597 20.25 46.4538 C 19.8 48.3871 19.4 50.4196 19 52.4025 C 18.85 53.047 18.6 53.6914 18.5 54.3854 C 18.35 55.0299 18.3 55.6743 18.25 56.3684 C 18.15 57.0128 18 57.6573 18 58.3513 C 17.95 58.9957 18 59.6402 18 60.3342 C 18 61.6231 17.9 62.9616 18 64.3 C 18 64.9445 18.2 65.2419 18.25 66.283 C 18.3 70.2984 18.25 74.3633 18.25 78.4283 C 18.25 82.3446 18.25 86.36 18.25 90.3258 C 18.25 92.2592 18.3 94.2917 18.25 96.2746 C 18.2 96.919 18.1 97.5635 18 98.2575 C 17.75 99.7447 17.4 101.1823 17.25 102.7191 C 17.15 103.3635 17.25 104.008 17.25 104.702 C 17.2 105.3464 17.05 105.9909 17 106.6849 C 16.8 107.9738 16.55 109.3123 16.5 110.6508 C 16.4 111.9397 16.5 113.2781 16.5 114.6166 C 16.5 118.5329 16.5 122.5483 16.5 126.5141 C 16.5 127.456 16.55 127.803 16.5 128.497 C 16.4 129.1415 16.1 129.7859 16 130.4799 C 15.65 132.4133 15.5 134.4458 15.25 136.4287 C 15.15 137.0731 15.1 137.7176 15 138.4116 C 14.7 139.7997 14.25 141.1877 14 142.6253 C 13.85 143.3193 13.8 144.1125 13.75 144.8561 C 13.65 145.5501 13.5 146.2937 13.5 147.0869 C 13.45 147.7313 13.5 148.3758 13.5 149.0698 C 13.5 149.7143 13.4 150.3587 13.5 151.0527 C 13.65 152.3416 14 153.6801 14.25 155.0186 C 14.35 155.663 14.45 156.3075 14.5 157.0015 C 14.5 157.6459 14.5 158.2904 14.5 158.9844 C 14.5 159.6288 14.5 160.2733 14.5 160.9673 C 14.4 162.2562 14.4 163.5947 14.25 164.9332 C 14.05 166.1725 13.5 168.6511 13.5 168.6511 C 13.25 169.1469 12.628 171.9685 12.25 173.3606 C 12.045 174.117 11.723 174.8398 11.5 175.5913 C 11.306 176.2447 11.167 176.9139 11 177.5743 C 10.833 178.2346 10.627 178.8879 10.5 179.5572 C 10.376 180.2115 10.374 180.8857 10.25 181.5401 C 10.123 182.2093 9.955 182.8736 9.75 183.523 C 9.538 184.1962 9.173 184.8218 9 185.5059 C 8.837 186.1514 8.833 186.8285 8.75 187.4889 C 8.667 188.1492 8.583 188.8115 8.5 189.4718 C 8.417 190.1321 8.333 190.7944 8.25 191.4547 C 8.167 192.115 8.028 192.7723 8 193.4376 C 7.945 194.7572 8.055 196.0838 8 197.4034 C 7.972 198.0687 7.833 198.7261 7.75 199.3864 C 7.667 200.0467 7.528 200.704 7.5 201.3693 C 7.445 202.6889 7.472 204.0145 7.5 205.3351 C 7.556 207.9774 7.683 210.6255 7.75 213.2668 C 7.767 213.9271 7.75 214.5894 7.75 215.2497 C 7.75 215.91 7.792 216.5733 7.75 217.2326 C 7.708 217.8969 7.624 218.5612 7.5 219.2156 C 7.373 219.8848 7.085 220.5233 7 221.1985 C 6.917 221.8538 7.042 222.5221 7 223.1814 C 6.958 223.8457 6.792 224.5 6.75 225.1643 C 6.708 225.8236 6.792 226.4879 6.75 227.1472 C 6.708 227.8115 6.624 228.4758 6.5 229.1301 C 6.373 229.7994 6.127 230.4438 6 231.1131 C 5.876 231.7674 5.874 232.4416 5.75 233.096 C 5.623 233.7652 5.363 234.4077 5.25 235.0789 C 5.029 236.3916 4.917 237.7241 4.75 239.0447 C 4.667 239.705 4.583 240.3673 4.5 241.0277 C 4.417 241.688 4.292 242.3463 4.25 243.0106 C 4.208 243.6699 4.208 244.3342 4.25 244.9935 C 4.292 245.6578 4.472 246.3111 4.5 246.9764 C 4.555 248.296 4.665 249.6315 4.5 250.9422 C 4.33 252.2926 3.884 253.6013 3.5 254.9081 C 3.301 255.5853 2.962 256.2178 2.75 256.891 C 2.545 257.5404 2.455 258.2245 2.25 258.8739 C 2.038 259.5471 1.631 260.1638 1.5 260.8568 C 1.377 261.5062 1.108 262.3054 1.5 262.8398 C 1.918 263.4098 2.794 263.4961 3.5 263.5834 C 4.166 263.6656 4.829 263.3355 5.5 263.3355 C 6.171 263.3355 6.829 263.5834 7.5 263.5834 C 8.171 263.5834 8.83 263.3771 9.5 263.3355 C 10.165 263.2938 10.839 263.2532 11.5 263.3355 C 12.181 263.4198 12.878 263.5437 13.5 263.8312 C 14.149 264.1316 14.571 264.8465 15.25 265.0705 C 15.882 265.2797 16.584 265.0705 17.25 265.0705 C 17.916 265.0705 18.589 265.1528 19.25 265.0705 C 19.931 264.9863 20.569 264.6591 21.25 264.5748 C 21.911 264.4925 22.585 264.5332 23.25 264.5748 C 23.92 264.6165 24.58 264.781 25.25 264.8227 C 25.915 264.8643 26.589 264.7404 27.25 264.8227 C 27.931 264.907 28.569 265.2341 29.25 265.3184 C 29.911 265.4007 30.585 265.2768 31.25 265.3184 C 31.92 265.36 32.584 265.484 33.25 265.5663 C 33.916 265.6486 34.579 265.835 35.25 265.8141 C 37.254 265.7517 39.249 265.4423 41.25 265.3184 C 41.915 265.2768 42.585 265.2768 43.25 265.3184 C 43.92 265.36 44.579 265.5385 45.25 265.5663 C 46.581 265.6208 47.919 265.5117 49.25 265.5663 C 49.921 265.594 50.58 265.7725 51.25 265.8141 C 51.915 265.8558 52.585 265.8558 53.25 265.8141 C 53.92 265.7725 54.58 265.6079 55.25 265.5663 C 55.915 265.5246 56.585 265.6079 57.25 265.5663 C 57.92 265.5246 58.581 265.3739 59.25 265.3184 C 60.58 265.2084 61.915 265.0705 63.25 265.0705 C 63.921 265.0705 64.59 265.1955 65.25 265.3184 C 65.925 265.4443 66.569 265.7299 67.25 265.8141 C 67.911 265.8964 68.584 265.8141 69.25 265.8141 C 71.248 265.8141 73.253 265.7527 75.25 265.8141 C 75.921 265.835 76.58 266.0204 77.25 266.062 C 77.915 266.1036 78.585 266.1036 79.25 266.062 C 79.92 266.0204 80.584 265.8964 81.25 265.8141 C 81.916 265.7318 82.58 265.6079 83.25 265.5663 C 83.915 265.5246 84.595 265.6882 85.25 265.5663 C 85.949 265.4364 85.654 265.2401 87.25 264.8227 C 93.633 263.1531 105.072 266.3376 106.65 259.915 C 112.277 236.9994 104.425 212.4122 105.5 188.7282 C 106.492 166.922 113.455 144.984 113 122.7961 Z "/>
</svg>