<svg xmlns="http://www.w3.org/2000/svg" xmlns:xlink="http://www.w3.org/1999/xlink" version="1.1" width="287.59635175714175" height="309.738258495423" viewBox="-0.12119061474640591 1.791399650527642 287.59635175714175 309.738258495423">
  <!-- Exported by Scratch - http://scratch.mit.edu/ -->
  <g id="ID0.7085462282411754">
    <g id="ID0.5880346246995032">
      <path id="ID0.6829322893172503" fill="#796B5E" stroke="none" stroke-linecap="round" d="M 130.1319 168.4698 L 142.2724 168.6723 L 142.6208 175.4448 L 143.528 182.996 L 140.7472 188.3874 L 137.8949 192.521 L 134.5115 194.4257 L 129.9086 200.0913 L 125.6525 197.6366 L 125.5094 195.1209 L 124.0938 194.1415 L 122.355 190.0646 L 120.6255 185.5043 L 120.9168 180.2846 L 125.1502 173.9388 L 130.1319 168.4698 Z " stroke-width="0.860103544862228"/>
      <g id="ID0.9434720128774643">
        <path id="ID0.6507829907350242" fill="#2C3134" stroke="none" stroke-linecap="round" d="M 156.4109 104.5467 L 169.0563 123.3214 L 159.5634 138.654 L 152.3834 150.061 L 144.5376 165.2725 L 143.2999 172.979 L 128.416 168.2267 L 132.7506 161.5916 L 135.8134 151.464 L 139.2204 138.3414 L 144.9382 125.3937 L 156.4109 104.5467 Z " stroke-width="0.860103544862228"/>
        <path id="ID0.9892375003546476" fill="none" stroke="#191919" stroke-width="2.106910174198116" stroke-linecap="round" d="M 129.255 167.5927 L 143.1176 171.5038 L 144.934 162.2806 "/>
      </g>
    </g>
    <path id="ID0.7729651997797191" fill="#2C3134" stroke="none" stroke-linecap="round" d="M 171.1756 75.3075 L 194.9132 82.6749 L 185.4322 102.095 L 177.8482 111.3987 L 173.2499 120.1221 L 167.8254 127.8059 L 152.3254 118.8885 L 152.4022 111.3131 L 164.996 88.7251 L 171.1756 75.3075 Z " stroke-width="1.0101170654897502"/>
    <path id="ID0.4757494777441025" fill="#2C3134" stroke="none" stroke-linecap="round" d="M 187.9395 63.8165 L 197.3342 65.1661 L 211.286 76.4041 L 192.9526 98.1559 L 180.6404 98.8969 L 175.7057 98.1261 L 173.4512 94.4867 L 171.7897 90.4058 L 167.1389 85.5237 L 169.2016 80.0877 L 173.138 72.411 L 179.6604 65.5087 L 187.9395 63.8165 Z " stroke-width="0.5087011852918293"/>
  </g>
  <g id="ID0.6688785348087549">
    <path id="ID0.5368814701214433" fill="#343434" stroke="none" stroke-linecap="round" d="M 129.1344 190.1565 L 130.4465 180.0247 L 130.3613 168.7197 L 117.6848 169.8196 L 102.8871 172.0743 L 80.6565 174.0875 L 76.5046 180.0476 L 100.4722 192.8966 L 123.3027 199.3015 L 129.1344 190.1565 Z " stroke-width="0.8471283342911995"/>
    <g id="ID0.5077062323689461">
      <path id="ID0.05466862628236413" fill="#252525" stroke="none" stroke-linecap="round" d="M 162.2265 117.796 L 142.2834 104.1818 L 137.0643 119.5835 L 135.4309 124.9127 L 128.5882 139.2992 L 110.3822 171.136 L 130.168 183.9321 L 140.3613 165.9467 L 145.9984 160.0224 L 150.8142 152.9016 L 154.4792 141.1161 L 159.3606 131.1175 L 162.2265 117.796 Z " stroke-width="0.6597530586189023"/>
      <path id="ID0.5319394422695041" fill="none" stroke="#131313" stroke-width="2.1997146171461615" stroke-linecap="round" d="M 110.9834 170.431 L 130.1938 184.4512 L 136.6246 173.5043 "/>
    </g>
  </g>
  <g id="ID0.8820344842970371">
    <path id="ID0.3809091211296618" fill="#252525" stroke="none" stroke-linecap="round" d="M 187.4354 186.7958 L 227.0918 176.5549 L 208.8589 157.0727 L 173.4927 116.9334 L 164.6051 109.1135 L 152.6133 103.6767 L 148.1699 111.7552 L 137.2663 121.0338 L 154.0043 138.1585 L 163.2184 149.6837 L 187.4354 186.7958 Z " stroke-width="0.8035436656303547"/>
    <path id="ID0.9495224836282432" fill="none" stroke="#131313" stroke-width="2.1997147267116404" stroke-linecap="round" d="M 173.3125 116.8414 L 166.5777 110.3573 L 158.7135 105.8393 L 148.664 109.1413 L 143.9395 106.1194 "/>
  </g>
  <g id="ID0.7085462282411754">
    <g id="ID0.5880346246995032">
      <path id="ID0.6829322893172503" fill="#796B5E" stroke="none" stroke-linecap="round" d="M 281.4109 187.4286 L 269.8402 183.7474 L 267.3494 190.0549 L 264.0806 196.9221 L 264.9961 202.9189 L 266.3806 207.7464 L 268.9796 210.631 L 271.5345 217.469 L 276.3514 216.5003 L 277.2895 214.1618 L 278.9436 213.6851 L 281.8921 210.376 L 284.9861 206.6057 L 286.3753 201.5658 L 284.3875 194.201 L 281.4109 187.4286 Z " stroke-width="0.860103543738539"/>
      <g id="ID0.9434720128774643">
        <path id="ID0.6507829907350242" fill="#2C3134" stroke="none" stroke-linecap="round" d="M 276.8437 118.4239 L 258.8696 132.1834 L 262.975 149.7432 L 266.1407 162.8448 L 268.7238 179.7644 L 267.4383 187.4631 L 283.0605 187.7074 L 281.0691 180.0362 L 281.3974 169.4607 L 282.3548 155.9369 L 281.0663 141.8416 L 276.8437 118.4239 Z " stroke-width="0.860103543738539"/>
        <path id="ID0.9892375003546476" fill="none" stroke="#191919" stroke-width="2.106910173892899" stroke-linecap="round" d="M 282.3832 186.9734 L 267.9973 186.2577 L 269.2182 176.937 "/>
      </g>
    </g>
    <path id="ID0.7729651997797191" fill="#2C3134" stroke="none" stroke-linecap="round" d="M 272.2088 85.9801 L 247.3612 85.3897 L 250.1514 106.8196 L 254.3709 118.0567 L 255.9461 127.7913 L 258.6358 136.804 L 276.1707 133.2974 L 278.5147 126.0933 L 273.7849 100.668 L 272.2088 85.9801 Z " stroke-width="1.0101169804377628"/>
    <path id="ID0.4757494777441025" fill="#2C3134" stroke="none" stroke-linecap="round" d="M 260.0105 69.719 L 250.6761 68.001 L 233.8681 74.2008 L 244.3043 100.6648 L 255.7368 105.295 L 260.6595 106.1386 L 263.9572 103.4087 L 266.8338 100.0711 L 272.7992 96.9278 L 272.5784 91.1178 L 271.2967 82.5865 L 267.3171 73.964 L 260.0105 69.719 Z " stroke-width="0.508701167313651"/>
  </g>
  <g id="ID0.8990198895335197">
    <path id="ID0.17576928716152906" fill="#DBDBDB" stroke="none" d="M 220.973 61.517 L 221.2338 61.5334 L 221.2338 61.5334 L 220.973 61.517 L 220.973 61.517 Z " stroke-width="1.0534572489367935"/>
    <path id="ID0.4270821204409003" fill="#252525" stroke="none" stroke-linecap="round" d="M 214.9153 190.9953 L 222.6676 71.5475 L 204.3974 73.04 L 196.9952 77.2856 L 193.8305 81.4542 L 185.9845 93.2698 L 186.2619 104.4109 L 187.0115 110.2598 L 184.9622 117.5101 L 184.22 123.297 L 186.149 130.7126 L 187.6054 136.3379 L 188.4333 146.2371 L 185.8872 169.4024 L 190.8905 178.3368 L 195.6102 185.1347 L 214.9153 190.9953 Z " stroke-width="0.501595785399862"/>
    <path id="ID0.4270821204409003" fill="#252525" stroke="none" stroke-linecap="round" d="M 214.9446 191.0375 L 222.1667 71.5565 L 240.1077 75.3184 L 246.9219 80.455 L 249.5413 84.9862 L 255.8507 97.6889 L 254.1844 108.7082 L 252.7104 114.4177 L 253.8384 121.8672 L 253.8522 127.7015 L 251.0125 134.8181 L 248.8651 140.2176 L 246.8077 149.936 L 246.4415 173.2379 L 240.3619 181.4777 L 243.3692 199.0518 L 214.9446 191.0375 Z " stroke-width="0.5015958026200296"/>
    <path id="ID0.5114514343440533" fill="#282828" stroke="none" d="M 249.5709 74.5332 L 194.2795 71.0679 L 188.4195 164.5681 L 243.7109 168.0334 L 249.5709 74.5332 Z " stroke-width="1.0624883561200273"/>
    <path id="ID0.9286923445761204" fill="#D4D4D4" stroke="none" stroke-linecap="round" d="M 233.7187 58.9846 L 216.9316 38.0036 L 223.1041 58.4713 L 219.1004 101.2686 L 260.6182 72.9772 L 240.3243 60.2089 L 233.7187 58.9846 Z " stroke-width="0.5015958626722967"/>
    <path id="ID0.9286923445761204" fill="#D4D4D4" stroke="none" stroke-linecap="round" d="M 216.8181 56.7686 L 232.3524 39.2567 L 223.6727 58.7935 L 219.7503 101.0895 L 184.641 68.5021 L 206.0642 57.2847 L 216.8181 56.7686 Z " stroke-width="0.5015958626722967"/>
    <path id="ID0.39874776685610414" fill="#1F2022" stroke="none" stroke-linecap="round" d="M 242.2854 61.2244 L 220.9013 70.3833 L 202.8558 59.7209 L 198.5376 61.7243 L 220.8543 74.3961 L 246.0772 63.5425 L 242.2854 61.2244 Z " stroke-width="0.9935621547785666"/>
    <path id="ID0.13444371055811644" fill="#1F1F1F" stroke="none" stroke-linecap="round" d="M 223.1845 72.5061 L 217.7241 71.898 L 212.9106 101.9104 L 225.4484 103.2281 L 223.1845 72.5061 Z " stroke-width="1.0534572489367935"/>
    <path id="ID0.751046194229275" fill="#191919" stroke="none" stroke-linecap="round" d="M 225.9643 67.4048 L 221.2224 64.943 L 216.3822 66.8042 L 215.3937 75.2249 L 219.9182 76.5615 L 225.4348 75.8542 L 225.9643 67.4048 Z " stroke-width="1.1588030157999438"/>
    <path id="ID0.7854711129330099" fill="#282828" stroke="none" stroke-linecap="round" d="M 233.8583 90.9489 L 218.672 99.3041 L 204.9749 88.0751 L 205.8994 106.7469 L 230.1545 108.2671 L 233.8583 90.9489 Z " stroke-width="1.0534572489367935"/>
    <path id="ID0.562834897544235" fill="#282828" stroke="none" stroke-linecap="round" d="M 246.5847 167.7978 L 215.4087 159.7279 L 214.064 181.1826 L 228.3255 183.406 L 246.5847 167.7978 Z " stroke-width="1.0534572489367935"/>
    <path id="ID0.562834897544235" fill="#282828" stroke="none" stroke-linecap="round" d="M 183.1754 164.2029 L 215.1151 160.0886 L 213.7704 181.5434 L 199.343 181.9687 L 183.1754 164.2029 Z " stroke-width="1.0534572489367935"/>
    <path id="ID0.6824178956449032" fill="none" stroke="#191919" stroke-width="2.106914497873587" stroke-linecap="round" d="M 218.927 99.6517 L 214.0914 180.9841 "/>
    <path id="ID0.4144489667378366" fill="#40474C" stroke="none" stroke-linecap="round" d="M 261.3667 69.8044 L 240.7725 60.0045 L 242.4579 83.2446 L 235.0833 146.6016 L 242.0225 194.635 L 253.8301 190.0568 L 253.8585 193.7813 L 253.9161 142.7296 L 261.7434 97.2171 L 263.8656 80.0658 L 261.3667 69.8044 Z " stroke-width="1.0534572489367935"/>
    <path id="ID0.5234400681219995" fill="#101010" stroke="none" d="M 216.2278 105.3767 C 215.7973 105.3497 215.3958 105.5028 215.0952 105.7721 C 214.7946 106.0414 214.5949 106.4269 214.5675 106.8641 C 214.5401 107.3013 214.6901 107.7087 214.9547 108.0135 C 215.2194 108.3182 215.5986 108.5202 216.0291 108.5472 C 216.4596 108.5742 216.8611 108.4211 217.1617 108.1518 C 217.4623 107.8825 217.662 107.4969 217.6894 107.0598 C 217.7168 106.6226 217.5668 106.2151 217.3022 105.9104 C 217.0376 105.6057 216.6583 105.4036 216.2278 105.3767 Z " stroke-width="0.6636780913406511"/>
    <path id="ID0.5234400681219995" fill="#101010" stroke="none" d="M 215.2778 119.7767 C 214.8473 119.7497 214.4458 119.9028 214.1452 120.1721 C 213.8446 120.4414 213.6449 120.8269 213.6175 121.2641 C 213.5901 121.7013 213.7401 122.1087 214.0047 122.4135 C 214.2694 122.7182 214.6486 122.9202 215.0791 122.9472 C 215.5096 122.9742 215.9111 122.8211 216.2117 122.5518 C 216.5123 122.2825 216.712 121.8969 216.7394 121.4598 C 216.7668 121.0226 216.6168 120.6151 216.3522 120.3104 C 216.0876 120.0057 215.7083 119.8036 215.2778 119.7767 Z " stroke-width="0.6636780913406511"/>
    <path id="ID0.5234400681219995" fill="#101010" stroke="none" d="M 213.1778 153.2267 C 212.7473 153.1997 212.3458 153.3528 212.0452 153.6221 C 211.7446 153.8914 211.5449 154.2769 211.5175 154.7141 C 211.4901 155.1513 211.6401 155.5587 211.9047 155.8635 C 212.1694 156.1682 212.5486 156.3702 212.9791 156.3972 C 213.4096 156.4242 213.8111 156.2711 214.1117 156.0018 C 214.4123 155.7325 214.612 155.3469 214.6394 154.9098 C 214.6668 154.4726 214.5168 154.0651 214.2522 153.7604 C 213.9876 153.4557 213.6083 153.2536 213.1778 153.2267 Z " stroke-width="0.6636780913406511"/>
    <path id="ID0.5234400681219995" fill="#101010" stroke="none" d="M 214.2278 137.4767 C 213.7973 137.4497 213.3958 137.6028 213.0952 137.8721 C 212.7946 138.1414 212.5949 138.5269 212.5675 138.9641 C 212.5401 139.4013 212.6901 139.8087 212.9547 140.1135 C 213.2194 140.4182 213.5986 140.6202 214.0291 140.6472 C 214.4596 140.6742 214.8611 140.5211 215.1617 140.2518 C 215.4623 139.9825 215.662 139.5969 215.6894 139.1598 C 215.7168 138.7226 215.5668 138.3151 215.3022 138.0104 C 215.0376 137.7057 214.6583 137.5036 214.2278 137.4767 Z " stroke-width="0.6636780913406511"/>
    <path id="ID0.5234400681219995" fill="#101010" stroke="none" d="M 212.4278 168.0767 C 211.9973 168.0497 211.5958 168.2028 211.2952 168.4721 C 210.9946 168.7414 210.7949 169.1269 210.7675 169.5641 C 210.7401 170.0013 210.8901 170.4087 211.1547 170.7135 C 211.4194 171.0182 211.7986 171.2202 212.2291 171.2472 C 212.6596 171.2742 213.0611 171.1211 213.3617 170.8518 C 213.6623 170.5825 213.862 170.1969 213.8894 169.7598 C 213.9168 169.3226 213.7668 168.9151 213.5022 168.6104 C 213.2376 168.3057 212.8583 168.1036 212.4278 168.0767 Z " stroke-width="0.6636780913406511"/>
    <path id="ID0.4144489667378366" fill="#40474C" stroke="none" stroke-linecap="round" d="M 184.8941 64.1807 L 206.5508 57.0288 L 201.9769 79.8766 L 201.3833 143.6586 L 188.5011 190.4497 L 177.3575 184.4331 L 176.8643 188.1249 L 183.1813 137.4655 L 181.0978 91.3319 L 181.1336 74.0498 L 184.8941 64.1807 Z " stroke-width="1.0534572489367935"/>
    <path id="ID0.8752945330925286" fill="none" stroke="#222222" stroke-width="2.106914497873587" stroke-linecap="round" d="M 260.8285 70.0366 L 263.7044 78.4602 L 257.8072 118.2435 "/>
    <path id="ID0.8752945330925286" fill="none" stroke="#222222" stroke-width="2.106914497873587" stroke-linecap="round" d="M 184.6991 64.7783 L 180.794 72.7769 L 181.6779 112.9852 "/>
    <path id="ID0.5234400681219995" fill="#101010" stroke="none" d="M 237.2778 155.3767 C 236.8473 155.3497 236.4458 155.5028 236.1452 155.7721 C 235.8446 156.0414 235.6449 156.4269 235.6175 156.8641 C 235.5901 157.3013 235.7401 157.7087 236.0047 158.0135 C 236.2694 158.3182 236.6486 158.5202 237.0791 158.5472 C 237.5096 158.5742 237.9111 158.4211 238.2117 158.1518 C 238.5123 157.8825 238.712 157.4969 238.7394 157.0598 C 238.7668 156.6226 238.6168 156.2151 238.3522 155.9104 C 238.0876 155.6057 237.7083 155.4036 237.2778 155.3767 Z " stroke-width="0.6636780913406511"/>
    <path id="ID0.5234400681219995" fill="#101010" stroke="none" d="M 238.2778 163.1767 C 237.8473 163.1497 237.4458 163.3028 237.1452 163.5721 C 236.8446 163.8414 236.6449 164.2269 236.6175 164.6641 C 236.5901 165.1013 236.7401 165.5087 237.0047 165.8135 C 237.2694 166.1182 237.6486 166.3202 238.0791 166.3472 C 238.5096 166.3742 238.9111 166.2211 239.2117 165.9518 C 239.5123 165.6825 239.712 165.2969 239.7394 164.8598 C 239.7668 164.4226 239.6168 164.0151 239.3522 163.7104 C 239.0876 163.4057 238.7083 163.2036 238.2778 163.1767 Z " stroke-width="0.6636780913406511"/>
    <g id="ID0.20783481979742646">
      <path id="ID0.5848579816520214" fill="#737373" stroke="none" stroke-linecap="round" d="M 193.8452 94.9544 L 186.7986 92.9173 L 186.644 97.0558 L 194.1742 98.0596 L 193.8452 94.9544 Z " stroke-width="1.0534572489367935"/>
      <path id="ID0.13105127029120922" fill="none" stroke="#222222" stroke-width="2.106914497873587" stroke-linecap="round" d="M 195.566 98.4128 L 190.8715 98.1185 L 185.4941 96.186 "/>
    </g>
  </g>
  <path id="ID0.46110434643924236" fill="#675B50" stroke="none" stroke-linecap="round" d="M 236.3963 39.4698 L 212.8039 37.9911 L 211.0579 58.038 L 217.3307 61.4625 L 235.0617 60.7656 L 236.3963 39.4698 Z " stroke-width="1.144406894210797"/>
  <g id="ID0.9597035455517471">
    <path id="ID0.5368814701214433" fill="#404040" stroke="none" stroke-linecap="round" d="M 142.4634 216.0959 L 143.6057 205.9436 L 143.3314 194.6416 L 130.675 195.9535 L 115.9171 198.4555 L 93.7233 200.8405 L 89.6718 206.8693 L 113.8511 219.3153 L 136.7855 225.3373 L 142.4634 216.0959 Z " stroke-width="0.8471282696657984"/>
    <g id="ID0.5077062323689461">
      <path id="ID0.05466862628236413" fill="#252525" stroke="none" stroke-linecap="round" d="M 173.42 142.0035 L 152.9187 129.2455 L 148.356 144.8542 L 146.9496 150.2478 L 140.7219 164.911 L 123.8794 197.4896 L 144.1889 209.437 L 153.612 191.0363 L 158.9933 184.8789 L 163.5036 177.5606 L 166.6666 165.6306 L 171.1205 155.4343 L 173.42 142.0035 Z " stroke-width="0.6597530406986021"/>
      <path id="ID0.5319394422695041" fill="none" stroke="#131313" stroke-width="2.1997147942511126" stroke-linecap="round" d="M 124.5151 196.7528 L 144.3015 209.9475 L 150.2634 198.7383 "/>
    </g>
  </g>
  <g id="ID0.8820344842970371">
    <path id="ID0.3809091211296618" fill="#252525" stroke="none" stroke-linecap="round" d="M 212.2891 210.2892 L 245.5137 200.2758 L 226.3812 181.6763 L 189.1592 143.2516 L 179.9123 135.86 L 167.6772 130.9955 L 163.6202 139.2748 L 151.6897 148.4703 L 168.558 167.6012 L 178.203 178.2887 L 212.2891 210.2892 Z " stroke-width="0.8035436602052097"/>
    <path id="ID0.9495224836282432" fill="none" stroke="#131313" stroke-width="2.1997145314683637" stroke-linecap="round" d="M 188.913 143.3313 L 181.8797 137.1724 L 173.8109 133.0308 L 163.9285 136.8036 L 159.0666 134.0082 "/>
  </g>
  <path id="ID0.7592270169407129" fill="none" stroke="#675B50" stroke-width="1.0984285708558985" stroke-linecap="round" d="M 214.3661 53.952 C 214.3661 53.952 214.2379 54.7051 214.2994 55.075 C 214.3588 55.4341 214.6328 55.7329 214.7201 56.0863 C 214.8076 56.442 214.7402 56.8232 214.819 57.1807 C 214.897 57.5362 214.9909 57.9029 215.1876 58.2101 C 215.355 58.4714 215.8809 58.8372 215.8809 58.8372 "/>
  <path id="ID0.48112139804288745" fill="#3A3A3A" stroke="#3A3A3A" stroke-width="2.036267687491303" stroke-linecap="round" d="M 200.4838 15.0062 C 199.8493 15.3997 200.5711 16.8433 200.3417 17.6954 C 200.1575 18.3797 199.5052 18.9086 199.3976 19.6088 C 199.2949 20.2804 199.5781 20.9599 199.7395 21.6193 C 200.1939 23.4803 200.2546 25.9685 201.2662 27.3764 C 201.6682 27.8575 202.1991 26.0407 202.5665 25.3973 C 203.3187 24.1057 204.1237 22.7552 204.602 21.4125 C 204.8301 20.772 204.7403 20.059 204.7719 19.3802 C 204.8027 18.7066 205.0999 17.9538 204.7883 17.3545 C 204.4722 16.7462 203.7015 16.4935 203.0967 16.1607 C 202.3081 15.7275 201.2267 14.6324 200.4838 15.0062 Z "/>
  <path id="ID0.05099705280736089" fill="#1C1916" stroke="#1C1916" stroke-width="2.1621457926588104" stroke-linecap="round" d="M 238.253 32.8577 C 238.6038 33.0159 238.2028 34.2908 238.0771 35.1229 C 237.969 35.835 237.5665 36.4843 237.1809 37.0963 C 236.7943 37.7094 236.2766 38.2367 235.782 38.7685 C 235.2874 39.3002 234.7361 39.7805 234.2132 40.2866 C 233.6902 40.7926 233.3753 41.8113 232.6443 41.8047 C 231.9134 41.7982 231.2691 40.9612 231.1085 40.2574 C 230.7886 38.8561 230.889 37.3252 231.3063 35.9484 C 231.5165 35.2568 232.3008 34.8783 232.8752 34.4303 C 233.4486 33.9834 234.0466 33.5268 234.7317 33.2762 C 235.7321 32.9101 236.9311 32.0925 237.8611 32.6056 Z "/>
  <path id="ID0.8999492498114705" fill="#796B5E" stroke="none" stroke-linecap="round" d="M 212.7009 4.9914 C 207.9356 5.7091 202.9159 8.8366 200.7755 13.1023 C 198.3333 17.9723 200.2823 23.8933 200.6082 29.2655 C 200.7521 31.6228 201.6625 34.012 202.3201 36.348 C 203.2551 39.6668 204.3447 42.8355 205.3041 46.0255 C 205.8712 47.9638 205.6343 50.3171 206.9028 51.7472 C 208.9209 54.0215 211.6017 56.3228 214.6356 56.6619 C 218.1414 57.053 221.4654 54.9005 224.7991 53.6898 C 226.468 53.024 228.4966 52.5412 229.583 51.0558 C 231.9109 47.8669 232.9976 43.8782 234.3505 40.2294 C 235.7709 36.3991 238.0367 32.6218 237.9177 28.4981 C 237.7144 21.4799 238.5535 12.7863 233.1711 7.9443 C 228.3418 3.2671 219.785 3.9276 212.7009 4.9914 Z " stroke-width="0.5492253811065834"/>
  <path id="ID0.8194515448994935" fill="#796B5E" stroke="none" stroke-linecap="round" d="M 237.6431 24.049 C 236.7188 24.1818 236.073 24.821 235.5702 25.981 C 235.0675 27.1409 234.7929 28.7244 234.8666 30.4565 C 234.9402 32.1887 235.3483 33.7431 235.9477 34.8562 C 236.5471 35.9693 237.2447 36.5223 238.1771 36.6052 C 239.0329 36.6796 240.1068 36.1727 240.4684 35.4327 C 241.1381 33.7936 240.9265 31.8921 240.9536 30.1977 C 240.9807 28.5322 241.2944 26.689 240.5783 25.2143 C 240.0187 24.3199 238.6117 23.9099 237.6431 24.049 Z " stroke-width="1.0810728963294052"/>
  <path id="ID0.7592270169407129" fill="none" stroke="#675B50" stroke-width="1.0984507622131667" stroke-linecap="round" d="M 217.7068 47.1814 C 217.7068 47.1814 217.0467 47.5804 216.6762 47.6622 C 216.3167 47.7419 215.934 47.6026 215.5694 47.6547 C 215.2027 47.7074 214.8695 47.9116 214.5042 47.9731 C 214.1411 48.0344 213.7616 48.0855 213.3997 48.02 C 213.092 47.9643 212.5529 47.6191 212.5529 47.6191 "/>
  <path id="ID0.7788236327469349" fill="#FFFFFF" stroke="none" stroke-linecap="round" d="M 225.3044 26.2846 L 223.8279 26.1324 L 221.3708 25.9681 L 219.0384 26.1748 L 218.815 28.6034 L 221.6141 29.1294 L 227.0193 28.2007 L 225.3044 26.2846 Z " stroke-width="1.0810728963294052"/>
  <path id="ID0.7788236327469349" fill="#FFFFFF" stroke="none" stroke-linecap="round" d="M 204.9391 27.3481 L 206.7619 26.6793 L 208.8814 26.5891 L 211.223 26.597 L 211.6518 28.9978 L 208.9074 29.7596 L 203.8325 29.4917 L 204.9391 27.3481 Z " stroke-width="1.0810728963294052"/>
  <path id="ID0.2118154256604612" fill="#1C1916" stroke="#1C1916" stroke-width="2.1621457926588104" stroke-linecap="round" d="M 238.5274 21.6801 C 238.5813 22.2315 238.4035 24.7333 237.6298 26.18 C 237.3444 26.7136 236.9876 24.829 236.6192 24.1803 C 236.2625 23.5514 235.7952 22.9843 235.4524 22.3484 C 235.0859 21.6684 234.78 20.9546 234.4915 20.239 C 234.2116 19.5457 233.9786 18.8309 233.7481 18.1204 C 233.52 17.4184 233.3982 16.6785 233.1133 15.9972 C 232.8295 15.3168 232.4218 14.6913 232.0506 14.0534 C 231.6783 13.4155 231.4743 12.6146 230.8815 12.1679 C 230.2717 11.7078 229.4426 11.5431 228.6756 11.5091 C 227.9403 11.4769 227.2364 11.824 226.5176 11.9772 C 225.7633 12.1372 224.9988 12.2632 224.251 12.4499 C 223.5269 12.6301 222.8062 12.8403 222.0999 13.0789 C 221.4118 13.3114 220.7438 13.6085 220.0643 13.8643 C 219.3526 14.1322 218.6182 14.3515 217.92 14.6543 C 217.2443 14.9475 216.642 15.4054 215.9479 15.652 C 215.256 15.8976 214.5133 16.2538 213.79 16.1201 C 213.0634 15.9854 212.5639 15.3014 211.9417 14.9086 C 211.3151 14.5138 210.7195 14.0531 210.0414 13.753 C 209.3778 13.4597 208.6655 13.2524 207.9465 13.1432 C 206.7278 12.9596 205.3172 12.5917 204.0175 12.934 C 202.7727 13.2644 201.4 15.5031 200.678 15.0651 C 199.9926 14.6448 200.9238 12.4463 201.4376 11.1623 C 201.9928 9.7776 202.8808 8.5088 203.8911 7.4025 C 204.865 6.3365 206.0057 5.3505 207.3165 4.7303 C 208.6465 4.1007 210.1801 4.0065 211.6301 3.7405 C 212.3432 3.6091 213.0808 3.6423 213.7995 3.5407 C 214.5247 3.4379 215.2297 3.1939 215.9597 3.1263 C 217.4023 2.993 218.8663 2.7985 220.3076 2.9414 C 221.8079 3.0894 223.239 3.6586 224.7079 3.9907 C 225.4358 4.1554 226.1833 4.243 226.9047 4.4348 C 228.331 4.815 229.7564 5.2242 231.1511 5.7057 C 231.8396 5.943 232.5828 6.135 233.1487 6.5883 C 233.7462 7.0661 234.0284 7.8389 234.533 8.4109 C 235.0215 8.9643 235.7075 9.3479 236.1232 9.956 C 236.5552 10.5891 236.7929 11.3402 237.0297 12.0677 C 237.254 12.7591 237.4065 13.4773 237.5014 14.1979 C 237.5947 14.9067 237.4723 15.6387 237.5927 16.3442 C 237.7161 17.0711 238.0187 17.7592 238.2274 18.4675 C 238.3992 19.0504 238.7847 19.6146 238.7375 20.2197 Z "/>
  <path id="ID0.5261953212320805" fill="none" stroke="#1C1916" stroke-width="2.162145956565438" stroke-linecap="round" d="M 227.5715 23.9863 C 227.5715 23.9863 226.8146 22.6033 226.1941 22.1528 C 225.6004 21.7214 224.8245 21.5692 224.0971 21.4611 C 223.3696 21.3531 222.6248 21.5465 221.8895 21.5133 C 220.512 21.4498 217.7608 21.1713 217.7608 21.1713 "/>
  <path id="ID0.5261953212320805" fill="none" stroke="#1C1916" stroke-width="2.1621459068046036" stroke-linecap="round" d="M 202.0226 24.7461 C 202.0226 24.7461 202.6313 23.2917 203.2015 22.779 C 203.747 22.2882 204.5029 22.056 205.2151 21.8728 C 205.9274 21.6895 206.6882 21.8043 207.4161 21.6947 C 208.7795 21.4881 211.4868 20.9246 211.4868 20.9246 "/>
  <path id="ID0.8619630038738251" fill="none" stroke="#675B50" stroke-width="1.2706583519908656" stroke-linecap="round" d="M 214.5961 27.7224 C 214.5961 27.7224 214.3608 30.843 214.2489 32.3496 C 214.1838 33.1959 214.3951 34.1334 214.0048 34.8873 C 213.5268 35.7448 212.3135 35.7768 212.0597 36.5496 C 211.7077 37.3613 211.6477 38.8386 212.4212 39.03 C 213.597 39.3205 214.6069 37.8181 215.8822 37.6507 C 216.567 37.5616 217.8029 38.422 217.8029 38.422 "/>
  <path id="ID0.6736386958509684" fill="none" stroke="#675B50" stroke-width="1.3553751762221407" stroke-linecap="round" d="M 228.4974 34.8781 C 228.4974 34.8781 227.945 35.7104 227.6276 36.0946 C 227.338 36.4452 226.9748 36.7322 226.6796 37.0784 C 226.3779 37.4323 226.0403 37.7748 225.8396 38.1925 C 225.6358 38.6156 225.4838 39.0871 225.488 39.5553 C 225.4999 40.8131 225.8867 43.3126 225.8867 43.3126 "/>
  <path id="ID0.18298013787716627" fill="#1C1916" stroke="#1C1916" stroke-width="2.1621457926588104" stroke-linecap="round" d="M 227.6013 11.0605 C 228.0726 11.2598 228.6312 12.2316 228.5078 13.1722 C 228.3119 14.6589 227.0053 16.2755 227.3317 17.5227 C 227.4928 18.1362 228.8153 17.2263 229.4828 16.8937 C 230.1333 16.5693 230.6584 16.0384 231.2238 15.5833 C 231.8335 15.0929 232.6596 14.7513 233.01 14.0559 C 233.3344 13.4131 233.3818 12.5553 233.0818 11.9026 C 232.7805 11.2456 232.0497 10.8326 231.3897 10.5231 C 230.7153 10.2067 229.9387 10.1247 229.193 10.079 C 228.8775 10.0601 228.3458 10.0279 228.2782 10.3329 Z "/>
  <path id="ID0.7592270169407129" fill="none" stroke="#675B50" stroke-width="1.098444852714749" stroke-linecap="round" d="M 213.8969 20.4678 C 213.8969 20.4678 213.6853 21.2028 213.7052 21.577 C 213.7241 21.9403 213.9631 22.2665 214.0104 22.6271 C 214.0576 22.99 213.948 23.3617 213.9864 23.7255 C 214.0243 24.0871 214.0766 24.4617 214.2378 24.788 C 214.375 25.0656 214.857 25.4852 214.857 25.4852 "/>
  <path id="ID0.48112139804288745" fill="#3A3A3A" stroke="#3A3A3A" stroke-width="2.036267687491303" stroke-linecap="round" d="M 237.5941 14.7107 C 238.2597 15.0489 237.663 16.5485 237.9639 17.3782 C 238.2056 18.0443 238.9004 18.5159 239.0671 19.2044 C 239.2265 19.8649 239.002 20.566 238.8972 21.2367 C 238.6023 23.1295 238.7531 25.6139 237.8647 27.1027 C 237.5051 27.6161 236.8219 25.851 236.4011 25.2411 C 235.542 24.0181 234.6252 22.7408 234.0347 21.4435 C 233.753 20.8247 233.7819 20.1066 233.6928 19.433 C 233.6049 18.7644 233.2449 18.0396 233.5045 17.4159 C 233.7678 16.783 234.5142 16.4658 235.0886 16.0829 C 235.8376 15.5843 236.8221 14.4013 237.5941 14.7107 Z "/>
  <path id="ID0.7766774026677012" fill="#0D0D0D" stroke="#0D0D0D" stroke-width="1.8086520039145781" stroke-linecap="round" d="M 1 195.2018 C 1.718 168.513 0.989 140.7886 12 115.2773 C 16.164 105.6321 31.459 101.1874 43.5 97.7377 C 48.996 96.1655 54.566 100.1119 60 101.5247 C 61.543 101.9225 62.688 102.7572 64 103.3185 C 65.857 103.9539 67.811 104.4362 69.5 105.1123 C 70.098 105.3531 70.7 105.5907 71.25 105.9096 C 71.9 106.1886 72.4 106.5872 73 106.9061 C 74.25 107.5041 75.5 108.1419 76.75 108.6999 C 78 109.1783 79.3 109.5769 80.5 110.0951 C 81.1 110.3343 81.75 110.5336 82.25 110.8924 C 82.85 111.2512 83.25 111.8092 83.75 112.2876 C 84.25 112.6862 84.75 113.0848 85.25 113.4835 C 85.75 113.8422 86.4 114.201 86.75 114.6793 C 87.15 115.1178 87.25 115.7158 87.5 116.2738 C 87.75 116.7921 88.05 117.3103 88.25 117.8683 C 88.7 118.9048 89.1 119.9811 89.5 121.0574 C 89.75 121.5756 90 122.0938 90.25 122.6519 C 90.5 123.1701 90.75 123.6883 91 124.2464 C 91.25 124.7646 91.5 125.2828 91.75 125.8409 C 92 126.3591 92.35 126.8773 92.5 127.4354 C 92.7 127.9536 92.7 128.4718 92.75 129.0299 C 92.85 129.5481 92.95 130.0663 93 130.6244 C 93.1 131.1426 93.15 131.6608 93.25 132.2189 C 93.4 132.7371 93.65 133.2553 93.75 133.8134 C 94.2 135.368 94.6 137.0024 95 138.5969 C 95.15 139.1151 95.4 139.6333 95.5 140.1914 C 95.65 140.7096 95.7 141.2278 95.75 141.7859 C 95.85 142.3041 96 142.8223 96 143.3804 C 96.05 143.8986 96 144.4168 96 144.9749 C 96 146.0114 96.1 147.0876 96 148.1639 C 96 148.6821 95.8 148.9213 95.75 149.7584 C 95.7 152.9873 95.75 156.256 95.75 159.5248 C 95.75 162.6739 95.75 165.9028 95.75 169.0918 C 95.75 170.6464 95.7 172.2808 95.75 173.8753 C 95.8 174.3935 95.9 174.9117 96 175.4698 C 96.25 176.6657 96.6 177.8217 96.75 179.0575 C 96.85 179.5757 96.75 180.0939 96.75 180.652 C 96.8 181.1702 96.95 181.6884 97 182.2465 C 97.2 183.2829 97.45 184.3592 97.5 185.4355 C 97.6 186.4719 97.5 187.5482 97.5 188.6245 C 97.5 191.7736 97.5 195.0025 97.5 198.1915 C 97.5 198.9489 97.45 199.2279 97.5 199.786 C 97.6 200.3042 97.9 200.8224 98 201.3805 C 98.35 202.9352 98.5 204.5695 98.75 206.164 C 98.85 206.6822 98.9 207.2005 99 207.7585 C 99.3 208.8747 99.75 209.9908 100 211.1469 C 100.15 211.7049 100.2 212.3427 100.25 212.9407 C 100.35 213.4987 100.5 214.0967 100.5 214.7345 C 100.55 215.2527 100.5 215.7709 100.5 216.329 C 100.5 216.8472 100.6 217.3654 100.5 217.9235 C 100.35 218.9599 100 220.0362 99.75 221.1125 C 99.65 221.6307 99.55 222.1489 99.5 222.707 C 99.5 223.2252 99.5 223.7434 99.5 224.3015 C 99.5 224.8197 99.5 225.3379 99.5 225.896 C 99.6 226.9324 99.6 228.0087 99.75 229.085 C 99.95 230.0816 100.5 232.0747 100.5 232.0747 C 100.75 232.4733 101.372 234.7423 101.75 235.8617 C 101.955 236.47 102.277 237.0512 102.5 237.6555 C 102.694 238.1809 102.833 238.719 103 239.25 C 103.167 239.781 103.373 240.3064 103.5 240.8445 C 103.624 241.3707 103.626 241.9128 103.75 242.439 C 103.877 242.9771 104.045 243.5113 104.25 244.0335 C 104.462 244.5748 104.827 245.0779 105 245.628 C 105.163 246.147 105.167 246.6915 105.25 247.2225 C 105.333 247.7535 105.417 248.286 105.5 248.817 C 105.583 249.348 105.667 249.8806 105.75 250.4115 C 105.833 250.9425 105.972 251.4711 106 252.006 C 106.055 253.0672 105.945 254.1339 106 255.195 C 106.028 255.73 106.167 256.2586 106.25 256.7895 C 106.333 257.3205 106.472 257.8491 106.5 258.384 C 106.555 259.4452 106.528 260.5111 106.5 261.5731 C 106.444 263.6977 106.317 265.8272 106.25 267.9511 C 106.233 268.482 106.25 269.0146 106.25 269.5456 C 106.25 270.0765 106.208 270.6099 106.25 271.1401 C 106.292 271.6742 106.376 272.2084 106.5 272.7346 C 106.627 273.2727 106.915 273.7862 107 274.3291 C 107.083 274.8561 106.958 275.3934 107 275.9236 C 107.042 276.4578 107.208 276.9839 107.25 277.5181 C 107.292 278.0483 107.208 278.5824 107.25 279.1126 C 107.292 279.6468 107.376 280.1809 107.5 280.7071 C 107.627 281.2453 107.873 281.7635 108 282.3016 C 108.124 282.8278 108.126 283.3699 108.25 283.8961 C 108.377 284.4343 108.637 284.9509 108.75 285.4906 C 108.971 286.5462 109.083 287.6177 109.25 288.6796 C 109.333 289.2106 109.417 289.7432 109.5 290.2741 C 109.583 290.8051 109.708 291.3345 109.75 291.8686 C 109.792 292.3988 109.792 292.933 109.75 293.4631 C 109.708 293.9973 109.528 294.5227 109.5 295.0576 C 109.445 296.1188 109.335 297.1927 109.5 298.2467 C 109.67 299.3325 110.116 300.3849 110.5 301.4357 C 110.699 301.9802 111.038 302.4888 111.25 303.0302 C 111.455 303.5524 111.545 304.1025 111.75 304.6247 C 111.962 305.166 112.369 305.6619 112.5 306.2192 C 112.623 306.7414 112.892 307.384 112.5 307.8137 C 112.082 308.2721 111.206 308.3415 110.5 308.4116 C 109.834 308.4778 109.171 308.2123 108.5 308.2123 C 107.829 308.2123 107.171 308.4116 106.5 308.4116 C 105.829 308.4116 105.17 308.2458 104.5 308.2123 C 103.835 308.1788 103.161 308.1461 102.5 308.2123 C 101.819 308.2801 101.122 308.3797 100.5 308.6109 C 99.851 308.8525 99.429 309.4273 98.75 309.6075 C 98.118 309.7757 97.416 309.6075 96.75 309.6075 C 96.084 309.6075 95.411 309.6737 94.75 309.6075 C 94.069 309.5397 93.431 309.2766 92.75 309.2089 C 92.089 309.1427 91.415 309.1754 90.75 309.2089 C 90.08 309.2424 89.42 309.3747 88.75 309.4082 C 88.085 309.4417 87.411 309.342 86.75 309.4082 C 86.069 309.476 85.431 309.739 84.75 309.8068 C 84.089 309.873 83.415 309.7733 82.75 309.8068 C 82.08 309.8403 81.416 309.94 80.75 310.0061 C 80.084 310.0723 79.421 310.2222 78.75 310.2054 C 76.746 310.1552 74.751 309.9065 72.75 309.8068 C 72.085 309.7733 71.415 309.7733 70.75 309.8068 C 70.08 309.8403 69.421 309.9838 68.75 310.0061 C 67.419 310.05 66.081 309.9623 64.75 310.0061 C 64.079 310.0284 63.42 310.172 62.75 310.2054 C 62.085 310.2389 61.415 310.2389 60.75 310.2054 C 60.08 310.172 59.42 310.0396 58.75 310.0061 C 58.085 309.9726 57.415 310.0396 56.75 310.0061 C 56.08 309.9726 55.419 309.8515 54.75 309.8068 C 53.42 309.7183 52.085 309.6075 50.75 309.6075 C 50.079 309.6075 49.41 309.708 48.75 309.8068 C 48.075 309.9081 47.431 310.1377 46.75 310.2054 C 46.089 310.2716 45.416 310.2054 44.75 310.2054 C 42.752 310.2054 40.747 310.156 38.75 310.2054 C 38.079 310.2222 37.42 310.3713 36.75 310.4047 C 36.085 310.4382 35.415 310.4382 34.75 310.4047 C 34.08 310.3713 33.416 310.2716 32.75 310.2054 C 32.084 310.1393 31.42 310.0396 30.75 310.0061 C 30.085 309.9726 29.405 310.1042 28.75 310.0061 C 28.051 309.9017 28.346 309.7438 26.75 309.4082 C 20.367 308.0656 8.928 310.6264 7.35 305.4618 C 1.723 287.0349 9.575 267.2638 8.5 248.2191 C 7.508 230.6843 0.545 213.0435 1 195.2018 Z "/>
  <g id="ID0.15551237482577562">
    <path id="ID0.036129117012023926" fill="#5E3B21" stroke="none" d="M 220.8339 26.1257 C 220.3915 26.1446 219.9979 26.3387 219.7199 26.6376 C 219.4418 26.9365 219.2793 27.3401 219.2979 27.7769 C 219.3165 28.2137 219.5127 28.602 219.8151 28.8762 C 220.1175 29.1504 220.5261 29.3104 220.9685 29.2916 C 221.4109 29.2728 221.8045 29.0787 222.0825 28.7798 C 222.3605 28.4809 222.523 28.0773 222.5045 27.6405 C 222.4859 27.2037 222.2897 26.8153 221.9873 26.5411 C 221.6849 26.2669 221.2763 26.1069 220.8339 26.1257 Z " stroke-width="1.0810728370024403"/>
    <path id="ID0.9171876185573637" fill="#191009" stroke="none" d="M 220.408 26.9847 C 220.183 26.9942 219.9836 27.093 219.8419 27.2453 C 219.7003 27.3975 219.6175 27.6021 219.627 27.8242 C 219.6364 28.0464 219.7363 28.2432 219.8903 28.3828 C 220.0443 28.5225 220.2514 28.604 220.4764 28.5944 C 220.7014 28.5849 220.9009 28.4861 221.0425 28.3338 C 221.1841 28.1816 221.2669 27.977 221.2574 27.7549 C 221.248 27.5327 221.1481 27.3359 220.9941 27.1963 C 220.8401 27.0566 220.633 26.9751 220.408 26.9847 Z " stroke-width="1.0810728370024403"/>
  </g>
  <g id="ID0.6915994533337653">
    <path id="ID0.036129117012023926" fill="#5E3B21" stroke="none" d="M 206.5339 26.9757 C 206.0915 26.9946 205.6979 27.1887 205.4199 27.4876 C 205.1418 27.7865 204.9793 28.1901 204.9979 28.6269 C 205.0165 29.0637 205.2127 29.452 205.5151 29.7262 C 205.8175 30.0004 206.2261 30.1604 206.6685 30.1416 C 207.1109 30.1228 207.5045 29.9287 207.7825 29.6298 C 208.0605 29.3309 208.223 28.9273 208.2045 28.4905 C 208.1859 28.0537 207.9897 27.6653 207.6873 27.3911 C 207.3849 27.1169 206.9763 26.9569 206.5339 26.9757 Z " stroke-width="1.0810728370024403"/>
    <path id="ID0.9171876185573637" fill="#191009" stroke="none" d="M 206.158 27.7847 C 205.933 27.7942 205.7336 27.893 205.5919 28.0453 C 205.4503 28.1975 205.3675 28.4021 205.377 28.6242 C 205.3864 28.8464 205.4863 29.0432 205.6403 29.1828 C 205.7943 29.3225 206.0014 29.404 206.2264 29.3944 C 206.4514 29.3849 206.6509 29.2861 206.7925 29.1338 C 206.9341 28.9816 207.0169 28.777 207.0074 28.5549 C 206.998 28.3327 206.8981 28.1359 206.7441 27.9963 C 206.5901 27.8566 206.383 27.7751 206.158 27.7847 Z " stroke-width="1.0810728370024403"/>
  </g>
  <path id="ID0.8256730306893587" fill="none" stroke="#675B50" stroke-width="1.0984503712175593" stroke-linecap="round" d="M 210.2193 45.4912 C 210.2193 45.4912 211.4955 44.7504 212.2112 44.7583 C 212.8785 44.7142 213.4246 45.4242 214.1162 45.3895 C 214.9371 45.3479 215.5982 44.5824 216.4126 44.4934 C 217.7641 44.8157 219.3124 45.1265 219.3124 45.1265 "/>
</svg>