<svg xmlns="http://www.w3.org/2000/svg" xmlns:xlink="http://www.w3.org/1999/xlink" version="1.1" width="287.59635175714175" height="309.6233598137824" viewBox="-0.12119061474640591 0.9062995242611624 287.59635175714175 309.6233598137824">
  <!-- Exported by Scratch - http://scratch.mit.edu/ -->
  <g id="ID0.7085462282411754">
    <g id="ID0.5880346246995032">
      <path id="ID0.6829322893172503" fill="#796B5E" stroke="none" stroke-linecap="round" d="M 130.1319 167.4698 L 142.2724 167.6723 L 142.6208 174.4448 L 143.528 181.996 L 140.7472 187.3874 L 137.8949 191.521 L 134.5115 193.4257 L 129.9086 199.0913 L 125.6525 196.6366 L 125.5094 194.1209 L 124.0938 193.1415 L 122.355 189.0646 L 120.6255 184.5043 L 120.9168 179.2846 L 125.1502 172.9388 L 130.1319 167.4698 Z " stroke-width="0.860103544862228"/>
      <g id="ID0.9434720128774643">
        <path id="ID0.6507829907350242" fill="#2C3134" stroke="none" stroke-linecap="round" d="M 156.4109 103.5467 L 169.0563 122.3214 L 159.5634 137.654 L 152.3834 149.061 L 144.5376 164.2725 L 143.2999 171.979 L 128.416 167.2267 L 132.7506 160.5916 L 135.8134 150.464 L 139.2204 137.3414 L 144.9382 124.3937 L 156.4109 103.5467 Z " stroke-width="0.860103544862228"/>
        <path id="ID0.9892375003546476" fill="none" stroke="#191919" stroke-width="2.106910174198116" stroke-linecap="round" d="M 129.255 166.5927 L 143.1176 170.5038 L 144.934 161.2806 "/>
      </g>
    </g>
    <path id="ID0.7729651997797191" fill="#2C3134" stroke="none" stroke-linecap="round" d="M 171.1756 74.3075 L 194.9132 81.6749 L 185.4322 101.095 L 177.8482 110.3987 L 173.2499 119.1221 L 167.8254 126.8059 L 152.3254 117.8885 L 152.4022 110.3131 L 164.996 87.7251 L 171.1756 74.3075 Z " stroke-width="1.0101170654897502"/>
    <path id="ID0.4757494777441025" fill="#2C3134" stroke="none" stroke-linecap="round" d="M 187.9395 62.8165 L 197.3342 64.1661 L 211.286 75.4041 L 192.9526 97.1559 L 180.6404 97.8969 L 175.7057 97.1261 L 173.4512 93.4867 L 171.7897 89.4058 L 167.1389 84.5237 L 169.2016 79.0877 L 173.138 71.411 L 179.6604 64.5087 L 187.9395 62.8165 Z " stroke-width="0.5087011852918293"/>
  </g>
  <g id="ID0.6688785348087549">
    <path id="ID0.5368814701214433" fill="#343434" stroke="none" stroke-linecap="round" d="M 129.1344 189.1565 L 130.4465 179.0247 L 130.3613 167.7197 L 117.6848 168.8196 L 102.8871 171.0743 L 80.6565 173.0875 L 76.5046 179.0476 L 100.4722 191.8966 L 123.3027 198.3015 L 129.1344 189.1565 Z " stroke-width="0.8471283342911995"/>
    <g id="ID0.5077062323689461">
      <path id="ID0.05466862628236413" fill="#252525" stroke="none" stroke-linecap="round" d="M 162.2265 116.796 L 142.2834 103.1818 L 137.0643 118.5835 L 135.4309 123.9127 L 128.5882 138.2992 L 110.3822 170.136 L 130.168 182.9321 L 140.3613 164.9467 L 145.9984 159.0224 L 150.8142 151.9016 L 154.4792 140.1161 L 159.3606 130.1175 L 162.2265 116.796 Z " stroke-width="0.6597530586189023"/>
      <path id="ID0.5319394422695041" fill="none" stroke="#131313" stroke-width="2.1997146171461615" stroke-linecap="round" d="M 110.9834 169.431 L 130.1938 183.4512 L 136.6246 172.5043 "/>
    </g>
  </g>
  <g id="ID0.8820344842970371">
    <path id="ID0.3809091211296618" fill="#252525" stroke="none" stroke-linecap="round" d="M 187.4354 185.7958 L 227.0918 175.5549 L 208.8589 156.0727 L 173.4927 115.9334 L 164.6051 108.1135 L 152.6133 102.6767 L 148.1699 110.7552 L 137.2663 120.0338 L 154.0043 137.1585 L 163.2184 148.6837 L 187.4354 185.7958 Z " stroke-width="0.8035436656303547"/>
    <path id="ID0.9495224836282432" fill="none" stroke="#131313" stroke-width="2.1997147267116404" stroke-linecap="round" d="M 173.3125 115.8414 L 166.5777 109.3573 L 158.7135 104.8393 L 148.664 108.1413 L 143.9395 105.1194 "/>
  </g>
  <g id="ID0.7085462282411754">
    <g id="ID0.5880346246995032">
      <path id="ID0.6829322893172503" fill="#796B5E" stroke="none" stroke-linecap="round" d="M 281.4109 186.4286 L 269.8402 182.7474 L 267.3494 189.0549 L 264.0806 195.9221 L 264.9961 201.9189 L 266.3806 206.7464 L 268.9796 209.631 L 271.5345 216.469 L 276.3514 215.5003 L 277.2895 213.1618 L 278.9436 212.6851 L 281.8921 209.376 L 284.9861 205.6057 L 286.3753 200.5658 L 284.3875 193.201 L 281.4109 186.4286 Z " stroke-width="0.860103543738539"/>
      <g id="ID0.9434720128774643">
        <path id="ID0.6507829907350242" fill="#2C3134" stroke="none" stroke-linecap="round" d="M 276.8437 117.4239 L 258.8696 131.1834 L 262.975 148.7432 L 266.1407 161.8448 L 268.7238 178.7644 L 267.4383 186.4631 L 283.0605 186.7074 L 281.0691 179.0362 L 281.3974 168.4607 L 282.3548 154.9369 L 281.0663 140.8416 L 276.8437 117.4239 Z " stroke-width="0.860103543738539"/>
        <path id="ID0.9892375003546476" fill="none" stroke="#191919" stroke-width="2.106910173892899" stroke-linecap="round" d="M 282.3832 185.9734 L 267.9973 185.2577 L 269.2182 175.937 "/>
      </g>
    </g>
    <path id="ID0.7729651997797191" fill="#2C3134" stroke="none" stroke-linecap="round" d="M 272.2088 84.9801 L 247.3612 84.3897 L 250.1514 105.8196 L 254.3709 117.0567 L 255.9461 126.7913 L 258.6358 135.804 L 276.1707 132.2974 L 278.5147 125.0933 L 273.7849 99.668 L 272.2088 84.9801 Z " stroke-width="1.0101169804377628"/>
    <path id="ID0.4757494777441025" fill="#2C3134" stroke="none" stroke-linecap="round" d="M 260.0105 68.719 L 250.6761 67.001 L 233.8681 73.2008 L 244.3043 99.6648 L 255.7368 104.295 L 260.6595 105.1386 L 263.9572 102.4087 L 266.8338 99.0711 L 272.7992 95.9278 L 272.5784 90.1178 L 271.2967 81.5865 L 267.3171 72.964 L 260.0105 68.719 Z " stroke-width="0.508701167313651"/>
  </g>
  <g id="ID0.8990198895335197">
    <path id="ID0.17576928716152906" fill="#DBDBDB" stroke="none" d="M 220.973 60.517 L 221.2338 60.5334 L 221.2338 60.5334 L 220.973 60.517 L 220.973 60.517 Z " stroke-width="1.0534572489367935"/>
    <path id="ID0.4270821204409003" fill="#252525" stroke="none" stroke-linecap="round" d="M 214.9153 189.9953 L 222.6676 70.5475 L 204.3974 72.04 L 196.9952 76.2856 L 193.8305 80.4542 L 185.9845 92.2698 L 186.2619 103.4109 L 187.0115 109.2598 L 184.9622 116.5101 L 184.22 122.297 L 186.149 129.7126 L 187.6054 135.3379 L 188.4333 145.2371 L 185.8872 168.4024 L 190.8905 177.3368 L 195.6102 184.1347 L 214.9153 189.9953 Z " stroke-width="0.501595785399862"/>
    <path id="ID0.4270821204409003" fill="#252525" stroke="none" stroke-linecap="round" d="M 214.9446 190.0375 L 222.1667 70.5565 L 240.1077 74.3184 L 246.9219 79.455 L 249.5413 83.9862 L 255.8507 96.6889 L 254.1844 107.7082 L 252.7104 113.4177 L 253.8384 120.8672 L 253.8522 126.7015 L 251.0125 133.8181 L 248.8651 139.2176 L 246.8077 148.936 L 246.4415 172.2379 L 240.3619 180.4777 L 243.3692 198.0518 L 214.9446 190.0375 Z " stroke-width="0.5015958026200296"/>
    <path id="ID0.5114514343440533" fill="#282828" stroke="none" d="M 249.5709 73.5332 L 194.2795 70.0679 L 188.4195 163.5681 L 243.7109 167.0334 L 249.5709 73.5332 Z " stroke-width="1.0624883561200273"/>
    <path id="ID0.9286923445761204" fill="#D4D4D4" stroke="none" stroke-linecap="round" d="M 233.7187 57.9846 L 216.9316 37.0036 L 223.1041 57.4713 L 219.1004 100.2686 L 260.6182 71.9772 L 240.3243 59.2089 L 233.7187 57.9846 Z " stroke-width="0.5015958626722967"/>
    <path id="ID0.9286923445761204" fill="#D4D4D4" stroke="none" stroke-linecap="round" d="M 216.8181 55.7686 L 232.3524 38.2567 L 223.6727 57.7935 L 219.7503 100.0895 L 184.641 67.5021 L 206.0642 56.2847 L 216.8181 55.7686 Z " stroke-width="0.5015958626722967"/>
    <path id="ID0.39874776685610414" fill="#1F2022" stroke="none" stroke-linecap="round" d="M 242.2854 60.2244 L 220.9013 69.3833 L 202.8558 58.7209 L 198.5376 60.7243 L 220.8543 73.3961 L 246.0772 62.5425 L 242.2854 60.2244 Z " stroke-width="0.9935621547785666"/>
    <path id="ID0.13444371055811644" fill="#1F1F1F" stroke="none" stroke-linecap="round" d="M 223.1845 71.5061 L 217.7241 70.898 L 212.9106 100.9104 L 225.4484 102.2281 L 223.1845 71.5061 Z " stroke-width="1.0534572489367935"/>
    <path id="ID0.751046194229275" fill="#191919" stroke="none" stroke-linecap="round" d="M 225.9643 66.4048 L 221.2224 63.943 L 216.3822 65.8042 L 215.3937 74.2249 L 219.9182 75.5615 L 225.4348 74.8542 L 225.9643 66.4048 Z " stroke-width="1.1588030157999438"/>
    <path id="ID0.7854711129330099" fill="#282828" stroke="none" stroke-linecap="round" d="M 233.8583 89.9489 L 218.672 98.3041 L 204.9749 87.0751 L 205.8994 105.7469 L 230.1545 107.2671 L 233.8583 89.9489 Z " stroke-width="1.0534572489367935"/>
    <path id="ID0.562834897544235" fill="#282828" stroke="none" stroke-linecap="round" d="M 246.5847 166.7978 L 215.4087 158.7279 L 214.064 180.1826 L 228.3255 182.406 L 246.5847 166.7978 Z " stroke-width="1.0534572489367935"/>
    <path id="ID0.562834897544235" fill="#282828" stroke="none" stroke-linecap="round" d="M 183.1754 163.2029 L 215.1151 159.0886 L 213.7704 180.5434 L 199.343 180.9687 L 183.1754 163.2029 Z " stroke-width="1.0534572489367935"/>
    <path id="ID0.6824178956449032" fill="none" stroke="#191919" stroke-width="2.106914497873587" stroke-linecap="round" d="M 218.927 98.6517 L 214.0914 179.9841 "/>
    <path id="ID0.4144489667378366" fill="#40474C" stroke="none" stroke-linecap="round" d="M 261.3667 68.8044 L 240.7725 59.0045 L 242.4579 82.2446 L 235.0833 145.6016 L 242.0225 193.635 L 253.8301 189.0568 L 253.8585 192.7813 L 253.9161 141.7296 L 261.7434 96.2171 L 263.8656 79.0658 L 261.3667 68.8044 Z " stroke-width="1.0534572489367935"/>
    <path id="ID0.5234400681219995" fill="#101010" stroke="none" d="M 216.2278 104.3767 C 215.7973 104.3497 215.3958 104.5028 215.0952 104.7721 C 214.7946 105.0414 214.5949 105.4269 214.5675 105.8641 C 214.5401 106.3013 214.6901 106.7087 214.9547 107.0135 C 215.2194 107.3182 215.5986 107.5202 216.0291 107.5472 C 216.4596 107.5742 216.8611 107.4211 217.1617 107.1518 C 217.4623 106.8825 217.662 106.4969 217.6894 106.0598 C 217.7168 105.6226 217.5668 105.2151 217.3022 104.9104 C 217.0376 104.6057 216.6583 104.4036 216.2278 104.3767 Z " stroke-width="0.6636780913406511"/>
    <path id="ID0.5234400681219995" fill="#101010" stroke="none" d="M 215.2778 118.7767 C 214.8473 118.7497 214.4458 118.9028 214.1452 119.1721 C 213.8446 119.4414 213.6449 119.8269 213.6175 120.2641 C 213.5901 120.7013 213.7401 121.1087 214.0047 121.4135 C 214.2694 121.7182 214.6486 121.9202 215.0791 121.9472 C 215.5096 121.9742 215.9111 121.8211 216.2117 121.5518 C 216.5123 121.2825 216.712 120.8969 216.7394 120.4598 C 216.7668 120.0226 216.6168 119.6151 216.3522 119.3104 C 216.0876 119.0057 215.7083 118.8036 215.2778 118.7767 Z " stroke-width="0.6636780913406511"/>
    <path id="ID0.5234400681219995" fill="#101010" stroke="none" d="M 213.1778 152.2267 C 212.7473 152.1997 212.3458 152.3528 212.0452 152.6221 C 211.7446 152.8914 211.5449 153.2769 211.5175 153.7141 C 211.4901 154.1513 211.6401 154.5587 211.9047 154.8635 C 212.1694 155.1682 212.5486 155.3702 212.9791 155.3972 C 213.4096 155.4242 213.8111 155.2711 214.1117 155.0018 C 214.4123 154.7325 214.612 154.3469 214.6394 153.9098 C 214.6668 153.4726 214.5168 153.0651 214.2522 152.7604 C 213.9876 152.4557 213.6083 152.2536 213.1778 152.2267 Z " stroke-width="0.6636780913406511"/>
    <path id="ID0.5234400681219995" fill="#101010" stroke="none" d="M 214.2278 136.4767 C 213.7973 136.4497 213.3958 136.6028 213.0952 136.8721 C 212.7946 137.1414 212.5949 137.5269 212.5675 137.9641 C 212.5401 138.4013 212.6901 138.8087 212.9547 139.1135 C 213.2194 139.4182 213.5986 139.6202 214.0291 139.6472 C 214.4596 139.6742 214.8611 139.5211 215.1617 139.2518 C 215.4623 138.9825 215.662 138.5969 215.6894 138.1598 C 215.7168 137.7226 215.5668 137.3151 215.3022 137.0104 C 215.0376 136.7057 214.6583 136.5036 214.2278 136.4767 Z " stroke-width="0.6636780913406511"/>
    <path id="ID0.5234400681219995" fill="#101010" stroke="none" d="M 212.4278 167.0767 C 211.9973 167.0497 211.5958 167.2028 211.2952 167.4721 C 210.9946 167.7414 210.7949 168.1269 210.7675 168.5641 C 210.7401 169.0013 210.8901 169.4087 211.1547 169.7135 C 211.4194 170.0182 211.7986 170.2202 212.2291 170.2472 C 212.6596 170.2742 213.0611 170.1211 213.3617 169.8518 C 213.6623 169.5825 213.862 169.1969 213.8894 168.7598 C 213.9168 168.3226 213.7668 167.9151 213.5022 167.6104 C 213.2376 167.3057 212.8583 167.1036 212.4278 167.0767 Z " stroke-width="0.6636780913406511"/>
    <path id="ID0.4144489667378366" fill="#40474C" stroke="none" stroke-linecap="round" d="M 184.8941 63.1807 L 206.5508 56.0288 L 201.9769 78.8766 L 201.3833 142.6586 L 188.5011 189.4497 L 177.3575 183.4331 L 176.8643 187.1249 L 183.1813 136.4655 L 181.0978 90.3319 L 181.1336 73.0498 L 184.8941 63.1807 Z " stroke-width="1.0534572489367935"/>
    <path id="ID0.8752945330925286" fill="none" stroke="#222222" stroke-width="2.106914497873587" stroke-linecap="round" d="M 260.8285 69.0366 L 263.7044 77.4602 L 257.8072 117.2435 "/>
    <path id="ID0.8752945330925286" fill="none" stroke="#222222" stroke-width="2.106914497873587" stroke-linecap="round" d="M 184.6991 63.7783 L 180.794 71.7769 L 181.6779 111.9852 "/>
    <path id="ID0.5234400681219995" fill="#101010" stroke="none" d="M 237.2778 154.3767 C 236.8473 154.3497 236.4458 154.5028 236.1452 154.7721 C 235.8446 155.0414 235.6449 155.4269 235.6175 155.8641 C 235.5901 156.3013 235.7401 156.7087 236.0047 157.0135 C 236.2694 157.3182 236.6486 157.5202 237.0791 157.5472 C 237.5096 157.5742 237.9111 157.4211 238.2117 157.1518 C 238.5123 156.8825 238.712 156.4969 238.7394 156.0598 C 238.7668 155.6226 238.6168 155.2151 238.3522 154.9104 C 238.0876 154.6057 237.7083 154.4036 237.2778 154.3767 Z " stroke-width="0.6636780913406511"/>
    <path id="ID0.5234400681219995" fill="#101010" stroke="none" d="M 238.2778 162.1767 C 237.8473 162.1497 237.4458 162.3028 237.1452 162.5721 C 236.8446 162.8414 236.6449 163.2269 236.6175 163.6641 C 236.5901 164.1013 236.7401 164.5087 237.0047 164.8135 C 237.2694 165.1182 237.6486 165.3202 238.0791 165.3472 C 238.5096 165.3742 238.9111 165.2211 239.2117 164.9518 C 239.5123 164.6825 239.712 164.2969 239.7394 163.8598 C 239.7668 163.4226 239.6168 163.0151 239.3522 162.7104 C 239.0876 162.4057 238.7083 162.2036 238.2778 162.1767 Z " stroke-width="0.6636780913406511"/>
    <g id="ID0.20783481979742646">
      <path id="ID0.5848579816520214" fill="#737373" stroke="none" stroke-linecap="round" d="M 193.8452 93.9544 L 186.7986 91.9173 L 186.644 96.0558 L 194.1742 97.0596 L 193.8452 93.9544 Z " stroke-width="1.0534572489367935"/>
      <path id="ID0.13105127029120922" fill="none" stroke="#222222" stroke-width="2.106914497873587" stroke-linecap="round" d="M 195.566 97.4128 L 190.8715 97.1185 L 185.4941 95.186 "/>
    </g>
  </g>
  <path id="ID0.46110434643924236" fill="#675B50" stroke="none" stroke-linecap="round" d="M 236.3963 38.4698 L 212.8039 36.9911 L 211.0579 57.038 L 217.3307 60.4625 L 235.0617 59.7656 L 236.3963 38.4698 Z " stroke-width="1.144406894210797"/>
  <g id="ID0.9597035455517471">
    <path id="ID0.5368814701214433" fill="#404040" stroke="none" stroke-linecap="round" d="M 142.4634 215.0959 L 143.6057 204.9436 L 143.3314 193.6416 L 130.675 194.9535 L 115.9171 197.4555 L 93.7233 199.8405 L 89.6718 205.8693 L 113.8511 218.3153 L 136.7855 224.3373 L 142.4634 215.0959 Z " stroke-width="0.8471282696657984"/>
    <g id="ID0.5077062323689461">
      <path id="ID0.05466862628236413" fill="#252525" stroke="none" stroke-linecap="round" d="M 173.42 141.0035 L 152.9187 128.2455 L 148.356 143.8542 L 146.9496 149.2478 L 140.7219 163.911 L 123.8794 196.4896 L 144.1889 208.437 L 153.612 190.0363 L 158.9933 183.8789 L 163.5036 176.5606 L 166.6666 164.6306 L 171.1205 154.4343 L 173.42 141.0035 Z " stroke-width="0.6597530406986021"/>
      <path id="ID0.5319394422695041" fill="none" stroke="#131313" stroke-width="2.1997147942511126" stroke-linecap="round" d="M 124.5151 195.7528 L 144.3015 208.9475 L 150.2634 197.7383 "/>
    </g>
  </g>
  <g id="ID0.8820344842970371">
    <path id="ID0.3809091211296618" fill="#252525" stroke="none" stroke-linecap="round" d="M 212.2891 209.2892 L 245.5137 199.2758 L 226.3812 180.6763 L 189.1592 142.2516 L 179.9123 134.86 L 167.6772 129.9955 L 163.6202 138.2748 L 151.6897 147.4703 L 168.558 166.6012 L 178.203 177.2887 L 212.2891 209.2892 Z " stroke-width="0.8035436602052097"/>
    <path id="ID0.9495224836282432" fill="none" stroke="#131313" stroke-width="2.1997145314683637" stroke-linecap="round" d="M 188.913 142.3313 L 181.8797 136.1724 L 173.8109 132.0308 L 163.9285 135.8036 L 159.0666 133.0082 "/>
  </g>
  <path id="ID0.7592270169407129" fill="none" stroke="#675B50" stroke-width="1.0984285790334851" stroke-linecap="round" d="M 214.4015 53.1825 C 214.4015 53.1825 214.2769 53.9362 214.3401 54.3058 C 214.4012 54.6646 214.6767 54.9622 214.7656 55.3152 C 214.8548 55.6704 214.7891 56.0519 214.8696 56.409 C 214.9493 56.7641 215.0449 57.1305 215.2431 57.4368 C 215.4117 57.6972 215.9393 58.0605 215.9393 58.0605 "/>
  <path id="ID0.48112139804288745" fill="#3A3A3A" stroke="#3A3A3A" stroke-width="2.0362676490280456" stroke-linecap="round" d="M 200.6837 13.8133 C 200.0403 14.1921 200.7287 15.6519 200.4797 16.4986 C 200.2798 17.1784 199.6154 17.6921 199.4917 18.3897 C 199.3735 19.0587 199.641 19.7446 199.7871 20.4075 C 200.1985 22.2785 200.2018 24.7674 201.1806 26.1983 C 201.5714 26.6886 202.144 24.8845 202.5262 24.2498 C 203.308 22.9759 204.144 21.6443 204.6531 20.313 C 204.8959 19.6779 204.8226 18.9629 204.8698 18.2851 C 204.9162 17.6124 205.2307 16.8666 204.933 16.2603 C 204.631 15.6449 203.8664 15.3744 203.2693 15.0278 C 202.4909 14.5765 201.4351 13.4567 200.6837 13.8133 Z "/>
  <path id="ID0.05099705280736089" fill="#1C1916" stroke="#1C1916" stroke-width="2.1621458491684233" stroke-linecap="round" d="M 238.081 32.4325 C 238.4281 32.5988 237.9978 33.8641 237.8529 34.6931 C 237.7285 35.4025 237.3111 36.0423 236.9115 36.6453 C 236.5108 37.2493 235.9811 37.7646 235.4744 38.2847 C 234.9676 38.8049 234.4054 39.2724 233.8709 39.7663 C 233.3364 40.2601 232.9981 41.2712 232.2675 41.2478 C 231.5369 41.2244 230.9121 40.3728 230.7677 39.6654 C 230.4803 38.2572 230.616 36.729 231.0649 35.3622 C 231.291 34.6756 232.0838 34.3153 232.6684 33.8807 C 233.2519 33.4471 233.8603 33.0045 234.5511 32.7697 C 235.5596 32.4268 236.7772 31.6371 237.6951 32.1715 Z "/>
  <path id="ID0.8999492498114705" fill="#796B5E" stroke="none" stroke-linecap="round" d="M 213.1928 3.8803 C 208.4122 4.4879 203.3217 7.4988 201.0835 11.7139 C 198.5296 16.5263 200.3415 22.4907 200.5434 27.869 C 200.6329 30.229 201.488 32.6385 202.0915 34.9891 C 202.9497 38.3286 203.9659 41.5215 204.8515 44.7328 C 205.3737 46.6838 205.0826 49.031 206.3178 50.4899 C 208.2828 52.8102 210.9099 55.1727 213.9351 55.5817 C 217.4309 56.0535 220.8037 53.9783 224.1644 52.8448 C 225.8483 52.2177 227.8875 51.7818 229.0079 50.3218 C 231.4087 47.1875 232.5871 43.2249 234.0238 39.6083 C 235.5322 35.8117 237.8845 32.0878 237.8607 27.9624 C 237.8193 20.9413 238.8587 12.2695 233.5894 7.3045 C 228.8693 2.5173 220.2996 2.9802 213.1928 3.8803 Z " stroke-width="0.5492253879603634"/>
  <path id="ID0.8194515448994935" fill="#796B5E" stroke="none" stroke-linecap="round" d="M 237.6325 23.5793 C 236.7054 23.6908 236.045 24.3149 235.5157 25.463 C 234.9863 26.611 234.6753 28.1878 234.7089 29.9211 C 234.7426 31.6545 235.1147 33.218 235.6883 34.3446 C 236.2619 35.4712 236.9465 36.0401 237.8767 36.1445 C 238.7306 36.2386 239.8159 35.7566 240.1945 35.0251 C 240.9018 33.402 240.7342 31.4961 240.8003 29.8027 C 240.8659 28.1384 241.2219 26.3029 240.5401 24.812 C 240.0012 23.905 238.6041 23.4627 237.6325 23.5793 Z " stroke-width="1.0810729245842117"/>
  <path id="ID0.7592270169407129" fill="none" stroke="#675B50" stroke-width="1.0984507759207267" stroke-linecap="round" d="M 217.1858 46.6685 C 217.1858 46.6685 216.5166 47.0522 216.1443 47.1254 C 215.7831 47.1969 215.4037 47.0487 215.0381 47.0924 C 214.6702 47.1366 214.3324 47.3331 213.9658 47.3861 C 213.6014 47.439 213.2208 47.4814 212.8605 47.4076 C 212.5542 47.3448 212.0231 46.9872 212.0231 46.9872 "/>
  <path id="ID0.7788236327469349" fill="#FFFFFF" stroke="none" stroke-linecap="round" d="M 225.2534 25.5218 L 223.7808 25.3355 L 221.3281 25.1146 L 218.9916 25.2675 L 218.7122 27.6902 L 221.4985 28.2807 L 226.9236 27.4769 L 225.2534 25.5218 Z " stroke-width="1.0810729245842117"/>
  <path id="ID0.7788236327469349" fill="#FFFFFF" stroke="none" stroke-linecap="round" d="M 205.0478 26.2261 L 206.8855 25.5994 L 209.0066 25.5582 L 211.3473 25.6202 L 211.7206 28.0302 L 208.9594 28.7285 L 203.892 28.3435 L 205.0478 26.2261 Z " stroke-width="1.0810729245842117"/>
  <path id="ID0.2118154256604612" fill="#1C1916" stroke="#1C1916" stroke-width="2.1621458491684233" stroke-linecap="round" d="M 238.59 21.2388 C 238.6312 21.7913 238.3958 24.2884 237.5889 25.7168 C 237.2912 26.2437 236.978 24.3514 236.6247 23.6943 C 236.2826 23.0574 235.8285 22.4796 235.5004 21.836 C 235.1497 21.1477 234.8604 20.4271 234.5885 19.705 C 234.3246 19.0054 234.1082 18.2855 233.8941 17.5698 C 233.6823 16.8627 233.5775 16.1202 233.3084 15.4325 C 233.0405 14.7458 232.6473 14.111 232.2909 13.4647 C 231.9334 12.8184 231.7479 12.0131 231.1655 11.5527 C 230.5666 11.0788 229.7414 10.895 228.9754 10.8433 C 228.2411 10.7941 227.5293 11.1249 226.8073 11.2614 C 226.0494 11.404 225.2822 11.5124 224.5303 11.6817 C 223.8023 11.8452 223.077 12.0387 222.3653 12.261 C 221.672 12.4775 220.9973 12.7592 220.3121 12.9992 C 219.5945 13.2506 218.8552 13.453 218.1502 13.7395 C 217.4679 14.0171 216.8552 14.4609 216.1556 14.6915 C 215.4582 14.921 214.7075 15.2601 213.9874 15.1097 C 213.2641 14.9583 212.7805 14.2629 212.1676 13.8558 C 211.5503 13.4467 210.9655 12.9724 210.2945 12.6567 C 209.6377 12.3483 208.9305 12.1246 208.2142 11.9988 C 207 11.7871 205.5983 11.3868 204.291 11.6991 C 203.039 12.0006 201.615 14.207 200.9032 13.7525 C 200.2277 13.3165 201.2094 11.1401 201.7527 9.8683 C 202.3397 8.4967 203.2567 7.2488 204.2923 6.1661 C 205.2905 5.1228 206.4536 4.1634 207.7784 3.5736 C 209.1226 2.9748 210.6579 2.916 212.1137 2.6836 C 212.8296 2.5687 213.5662 2.6188 214.2871 2.5339 C 215.0145 2.4478 215.725 2.2202 216.4563 2.1694 C 217.9016 2.0693 219.3697 1.9087 220.8073 2.0848 C 222.3038 2.2674 223.7214 2.8694 225.1823 3.2353 C 225.9061 3.4168 226.6514 3.5216 227.3682 3.73 C 228.7854 4.143 230.2009 4.5849 231.5842 5.0985 C 232.267 5.3516 233.0056 5.5607 233.5609 6.027 C 234.1472 6.5184 234.4115 7.2975 234.9027 7.881 C 235.3783 8.4455 236.0553 8.8449 236.4569 9.4623 C 236.8742 10.1053 237.0945 10.8616 237.3144 11.5944 C 237.5227 12.2908 237.6586 13.0123 237.7369 13.7349 C 237.8138 14.4457 237.6745 15.1747 237.7786 15.8828 C 237.8853 16.6123 238.1719 17.3073 238.3642 18.0201 C 238.5225 18.6069 238.8949 19.1798 238.8338 19.7837 Z "/>
  <path id="ID0.5261953212320805" fill="none" stroke="#1C1916" stroke-width="2.162146014329555" stroke-linecap="round" d="M 227.6166 23.2169 C 227.6166 23.2169 226.8917 21.8168 226.2818 21.3521 C 225.6983 20.9071 224.9261 20.7371 224.2013 20.6123 C 223.4765 20.4874 222.7275 20.6636 221.9931 20.6134 C 220.6175 20.5182 217.8734 20.1764 217.8734 20.1764 "/>
  <path id="ID0.5261953212320805" fill="none" stroke="#1C1916" stroke-width="2.1621458407330354" stroke-linecap="round" d="M 202.0475 23.4708 C 202.0475 23.4708 202.6897 22.0309 203.2715 21.5314 C 203.8282 21.0533 204.5892 20.8386 205.3055 20.6718 C 206.0218 20.5051 206.7798 20.6374 207.51 20.5446 C 208.8778 20.3695 211.5974 19.8686 211.5974 19.8686 "/>
  <path id="ID0.8619630038738251" fill="none" stroke="#675B50" stroke-width="1.2706583316954507" stroke-linecap="round" d="M 214.4771 26.8202 C 214.4771 26.8202 214.17 29.9344 214.0233 31.4381 C 213.9387 32.2826 214.1284 33.2247 213.7208 33.9695 C 213.2231 34.8157 212.0094 34.8198 211.7378 35.5865 C 211.3672 36.3899 211.2731 37.8653 212.042 38.0745 C 213.2108 38.3921 214.2551 36.9133 215.5339 36.7755 C 216.2206 36.7021 217.4363 37.5909 217.4363 37.5909 "/>
  <path id="ID0.6736386958509684" fill="none" stroke="#675B50" stroke-width="1.3553752065477427" stroke-linecap="round" d="M 228.2267 34.2657 C 228.2267 34.2657 227.6554 35.0849 227.3291 35.4617 C 227.0316 35.8056 226.6618 36.0842 226.3587 36.4234 C 226.049 36.7702 225.7035 37.1049 225.4932 37.5178 C 225.2797 37.9362 225.1169 38.404 225.1103 38.8722 C 225.0931 40.1299 225.4222 42.6376 225.4222 42.6376 "/>
  <path id="ID0.18298013787716627" fill="#1C1916" stroke="#1C1916" stroke-width="2.1621458491684233" stroke-linecap="round" d="M 227.9039 10.3607 C 228.3704 10.5708 228.9064 11.5552 228.7614 12.4927 C 228.5312 13.9745 227.1877 15.5605 227.4852 16.815 C 227.6322 17.432 228.9753 16.5529 229.6503 16.2357 C 230.308 15.9264 230.8453 15.4078 231.4211 14.9658 C 232.0418 14.4896 232.8756 14.1672 233.242 13.48 C 233.5812 12.8449 233.6483 11.9884 233.3634 11.3289 C 233.0774 10.6652 232.3563 10.2355 231.7037 9.9108 C 231.0367 9.5789 230.2622 9.479 229.5177 9.4161 C 229.2027 9.39 228.672 9.3455 228.5973 9.6489 Z "/>
  <path id="ID0.7592270169407129" fill="none" stroke="#675B50" stroke-width="1.098444823974968" stroke-linecap="round" d="M 213.9295 19.6053 C 213.9295 19.6053 213.7011 20.3352 213.7123 20.7098 C 213.7229 21.0733 213.9543 21.405 213.9932 21.7666 C 214.0321 22.1305 213.9139 22.4996 213.9439 22.8641 C 213.9734 23.2266 214.0171 23.6022 214.1708 23.9322 C 214.3015 24.2129 214.7736 24.6435 214.7736 24.6435 "/>
  <path id="ID0.48112139804288745" fill="#3A3A3A" stroke="#3A3A3A" stroke-width="2.0362676490280456" stroke-linecap="round" d="M 237.791 14.2485 C 238.4486 14.602 237.8175 16.0875 238.0992 16.9238 C 238.3254 17.5953 239.0092 18.0829 239.16 18.7751 C 239.3041 19.4391 239.0634 20.1348 238.9432 20.8029 C 238.6048 22.6884 238.6982 25.1756 237.7757 26.6435 C 237.4043 27.1485 236.762 25.3681 236.3554 24.7487 C 235.5247 23.5061 234.6376 22.208 234.0772 20.8975 C 233.8099 20.2723 233.8554 19.5551 233.7818 18.8796 C 233.7093 18.2092 233.3661 17.4762 233.64 16.8587 C 233.9179 16.2321 234.6714 15.9321 235.2545 15.5626 C 236.0148 15.0814 237.0263 13.9214 237.791 14.2485 Z "/>
  <path id="ID0.7766774026677012" fill="#0D0D0D" stroke="#0D0D0D" stroke-width="1.8086520039145781" stroke-linecap="round" d="M 1 194.2018 C 1.718 167.513 0.989 139.7886 12 114.2773 C 16.164 104.6321 31.459 100.1874 43.5 96.7377 C 48.996 95.1655 54.566 99.1119 60 100.5247 C 61.543 100.9225 62.688 101.7572 64 102.3185 C 65.857 102.9539 67.811 103.4362 69.5 104.1123 C 70.098 104.3531 70.7 104.5907 71.25 104.9096 C 71.9 105.1886 72.4 105.5872 73 105.9061 C 74.25 106.5041 75.5 107.1419 76.75 107.6999 C 78 108.1783 79.3 108.5769 80.5 109.0951 C 81.1 109.3343 81.75 109.5336 82.25 109.8924 C 82.85 110.2512 83.25 110.8092 83.75 111.2876 C 84.25 111.6862 84.75 112.0848 85.25 112.4835 C 85.75 112.8422 86.4 113.201 86.75 113.6793 C 87.15 114.1178 87.25 114.7158 87.5 115.2738 C 87.75 115.7921 88.05 116.3103 88.25 116.8683 C 88.7 117.9048 89.1 118.9811 89.5 120.0574 C 89.75 120.5756 90 121.0938 90.25 121.6519 C 90.5 122.1701 90.75 122.6883 91 123.2464 C 91.25 123.7646 91.5 124.2828 91.75 124.8409 C 92 125.3591 92.35 125.8773 92.5 126.4354 C 92.7 126.9536 92.7 127.4718 92.75 128.0299 C 92.85 128.5481 92.95 129.0663 93 129.6244 C 93.1 130.1426 93.15 130.6608 93.25 131.2189 C 93.4 131.7371 93.65 132.2553 93.75 132.8134 C 94.2 134.368 94.6 136.0024 95 137.5969 C 95.15 138.1151 95.4 138.6333 95.5 139.1914 C 95.65 139.7096 95.7 140.2278 95.75 140.7859 C 95.85 141.3041 96 141.8223 96 142.3804 C 96.05 142.8986 96 143.4168 96 143.9749 C 96 145.0114 96.1 146.0876 96 147.1639 C 96 147.6821 95.8 147.9213 95.75 148.7584 C 95.7 151.9873 95.75 155.256 95.75 158.5248 C 95.75 161.6739 95.75 164.9028 95.75 168.0918 C 95.75 169.6464 95.7 171.2808 95.75 172.8753 C 95.8 173.3935 95.9 173.9117 96 174.4698 C 96.25 175.6657 96.6 176.8217 96.75 178.0575 C 96.85 178.5757 96.75 179.0939 96.75 179.652 C 96.8 180.1702 96.95 180.6884 97 181.2465 C 97.2 182.2829 97.45 183.3592 97.5 184.4355 C 97.6 185.4719 97.5 186.5482 97.5 187.6245 C 97.5 190.7736 97.5 194.0025 97.5 197.1915 C 97.5 197.9489 97.45 198.2279 97.5 198.786 C 97.6 199.3042 97.9 199.8224 98 200.3805 C 98.35 201.9352 98.5 203.5695 98.75 205.164 C 98.85 205.6822 98.9 206.2005 99 206.7585 C 99.3 207.8747 99.75 208.9908 100 210.1469 C 100.15 210.7049 100.2 211.3427 100.25 211.9407 C 100.35 212.4987 100.5 213.0967 100.5 213.7345 C 100.55 214.2527 100.5 214.7709 100.5 215.329 C 100.5 215.8472 100.6 216.3654 100.5 216.9235 C 100.35 217.9599 100 219.0362 99.75 220.1125 C 99.65 220.6307 99.55 221.1489 99.5 221.707 C 99.5 222.2252 99.5 222.7434 99.5 223.3015 C 99.5 223.8197 99.5 224.3379 99.5 224.896 C 99.6 225.9324 99.6 227.0087 99.75 228.085 C 99.95 229.0816 100.5 231.0747 100.5 231.0747 C 100.75 231.4733 101.372 233.7423 101.75 234.8617 C 101.955 235.47 102.277 236.0512 102.5 236.6555 C 102.694 237.1809 102.833 237.719 103 238.25 C 103.167 238.781 103.373 239.3064 103.5 239.8445 C 103.624 240.3707 103.626 240.9128 103.75 241.439 C 103.877 241.9771 104.045 242.5113 104.25 243.0335 C 104.462 243.5748 104.827 244.0779 105 244.628 C 105.163 245.147 105.167 245.6915 105.25 246.2225 C 105.333 246.7535 105.417 247.286 105.5 247.817 C 105.583 248.348 105.667 248.8806 105.75 249.4115 C 105.833 249.9425 105.972 250.4711 106 251.006 C 106.055 252.0672 105.945 253.1339 106 254.195 C 106.028 254.73 106.167 255.2586 106.25 255.7895 C 106.333 256.3205 106.472 256.8491 106.5 257.384 C 106.555 258.4452 106.528 259.5111 106.5 260.5731 C 106.444 262.6977 106.317 264.8272 106.25 266.9511 C 106.233 267.482 106.25 268.0146 106.25 268.5456 C 106.25 269.0765 106.208 269.6099 106.25 270.1401 C 106.292 270.6742 106.376 271.2084 106.5 271.7346 C 106.627 272.2727 106.915 272.7862 107 273.3291 C 107.083 273.8561 106.958 274.3934 107 274.9236 C 107.042 275.4578 107.208 275.9839 107.25 276.5181 C 107.292 277.0483 107.208 277.5824 107.25 278.1126 C 107.292 278.6468 107.376 279.1809 107.5 279.7071 C 107.627 280.2453 107.873 280.7635 108 281.3016 C 108.124 281.8278 108.126 282.3699 108.25 282.8961 C 108.377 283.4343 108.637 283.9509 108.75 284.4906 C 108.971 285.5462 109.083 286.6177 109.25 287.6796 C 109.333 288.2106 109.417 288.7432 109.5 289.2741 C 109.583 289.8051 109.708 290.3345 109.75 290.8686 C 109.792 291.3988 109.792 291.933 109.75 292.4631 C 109.708 292.9973 109.528 293.5227 109.5 294.0576 C 109.445 295.1188 109.335 296.1927 109.5 297.2467 C 109.67 298.3325 110.116 299.3849 110.5 300.4357 C 110.699 300.9802 111.038 301.4888 111.25 302.0302 C 111.455 302.5524 111.545 303.1025 111.75 303.6247 C 111.962 304.166 112.369 304.6619 112.5 305.2192 C 112.623 305.7414 112.892 306.384 112.5 306.8137 C 112.082 307.2721 111.206 307.3415 110.5 307.4116 C 109.834 307.4778 109.171 307.2123 108.5 307.2123 C 107.829 307.2123 107.171 307.4116 106.5 307.4116 C 105.829 307.4116 105.17 307.2458 104.5 307.2123 C 103.835 307.1788 103.161 307.1461 102.5 307.2123 C 101.819 307.2801 101.122 307.3797 100.5 307.6109 C 99.851 307.8525 99.429 308.4273 98.75 308.6075 C 98.118 308.7757 97.416 308.6075 96.75 308.6075 C 96.084 308.6075 95.411 308.6737 94.75 308.6075 C 94.069 308.5397 93.431 308.2766 92.75 308.2089 C 92.089 308.1427 91.415 308.1754 90.75 308.2089 C 90.08 308.2424 89.42 308.3747 88.75 308.4082 C 88.085 308.4417 87.411 308.342 86.75 308.4082 C 86.069 308.476 85.431 308.739 84.75 308.8068 C 84.089 308.873 83.415 308.7733 82.75 308.8068 C 82.08 308.8403 81.416 308.94 80.75 309.0061 C 80.084 309.0723 79.421 309.2222 78.75 309.2054 C 76.746 309.1552 74.751 308.9065 72.75 308.8068 C 72.085 308.7733 71.415 308.7733 70.75 308.8068 C 70.08 308.8403 69.421 308.9838 68.75 309.0061 C 67.419 309.05 66.081 308.9623 64.75 309.0061 C 64.079 309.0284 63.42 309.172 62.75 309.2054 C 62.085 309.2389 61.415 309.2389 60.75 309.2054 C 60.08 309.172 59.42 309.0396 58.75 309.0061 C 58.085 308.9726 57.415 309.0396 56.75 309.0061 C 56.08 308.9726 55.419 308.8515 54.75 308.8068 C 53.42 308.7183 52.085 308.6075 50.75 308.6075 C 50.079 308.6075 49.41 308.708 48.75 308.8068 C 48.075 308.9081 47.431 309.1377 46.75 309.2054 C 46.089 309.2716 45.416 309.2054 44.75 309.2054 C 42.752 309.2054 40.747 309.156 38.75 309.2054 C 38.079 309.2222 37.42 309.3713 36.75 309.4047 C 36.085 309.4382 35.415 309.4382 34.75 309.4047 C 34.08 309.3713 33.416 309.2716 32.75 309.2054 C 32.084 309.1393 31.42 309.0396 30.75 309.0061 C 30.085 308.9726 29.405 309.1042 28.75 309.0061 C 28.051 308.9017 28.346 308.7438 26.75 308.4082 C 20.367 307.0656 8.928 309.6264 7.35 304.4618 C 1.723 286.0349 9.575 266.2638 8.5 247.2191 C 7.508 229.6843 0.545 212.0435 1 194.2018 Z "/>
  <g id="ID0.15551237482577562">
    <path id="ID0.036129117012023926" fill="#5E3B21" stroke="none" d="M 220.763 25.1934 C 220.3203 25.202 219.9224 25.387 219.6375 25.6794 C 219.3526 25.9718 219.1809 26.3716 219.1894 26.8087 C 219.1979 27.2458 219.385 27.6386 219.681 27.9197 C 219.977 28.2008 220.3819 28.3702 220.8246 28.3616 C 221.2673 28.353 221.6652 28.168 221.9501 27.8756 C 222.2349 27.5832 222.4067 27.1834 222.3982 26.7463 C 222.3897 26.3092 222.2025 25.9164 221.9065 25.6353 C 221.6105 25.3542 221.2057 25.1848 220.763 25.1934 Z " stroke-width="1.0810728316549743"/>
    <path id="ID0.9171876185573637" fill="#191009" stroke="none" d="M 220.3165 26.0418 C 220.0913 26.0462 219.8897 26.1403 219.7446 26.2893 C 219.5995 26.4382 219.512 26.6408 219.5163 26.8631 C 219.5207 27.0854 219.6159 27.2845 219.7667 27.4277 C 219.9175 27.5708 220.1226 27.6571 220.3478 27.6527 C 220.573 27.6483 220.7746 27.5542 220.9197 27.4052 C 221.0648 27.2563 221.1523 27.0537 221.148 26.8314 C 221.1436 26.6091 221.0484 26.41 220.8976 26.2669 C 220.7468 26.1237 220.5417 26.0374 220.3165 26.0418 Z " stroke-width="1.0810728316549743"/>
  </g>
  <g id="ID0.6915994533337653">
    <path id="ID0.036129117012023926" fill="#5E3B21" stroke="none" d="M 206.4435 25.696 C 206.0008 25.7046 205.6029 25.8896 205.318 26.182 C 205.0332 26.4744 204.8614 26.8742 204.8699 27.3113 C 204.8784 27.7484 205.0656 28.1412 205.3616 28.4223 C 205.6576 28.7034 206.0624 28.8728 206.5051 28.8641 C 206.9478 28.8555 207.3457 28.6705 207.6306 28.3781 C 207.9154 28.0858 208.0872 27.686 208.0787 27.2489 C 208.0702 26.8118 207.8831 26.419 207.5871 26.1379 C 207.2911 25.8568 206.8862 25.6874 206.4435 25.696 Z " stroke-width="1.0810728316549743"/>
    <path id="ID0.9171876185573637" fill="#191009" stroke="none" d="M 206.0484 26.4958 C 205.8232 26.5002 205.6216 26.5943 205.4765 26.7433 C 205.3314 26.8922 205.2439 27.0948 205.2482 27.3171 C 205.2526 27.5394 205.3478 27.7385 205.4986 27.8816 C 205.6494 28.0248 205.8545 28.1111 206.0797 28.1067 C 206.3049 28.1023 206.5065 28.0082 206.6516 27.8592 C 206.7967 27.7103 206.8842 27.5077 206.8798 27.2854 C 206.8755 27.0631 206.7802 26.864 206.6295 26.7209 C 206.4787 26.5777 206.2735 26.4914 206.0484 26.4958 Z " stroke-width="1.0810728316549743"/>
  </g>
  <path id="ID0.8256730306893587" fill="none" stroke="#675B50" stroke-width="1.0984503695974155" stroke-linecap="round" d="M 209.6551 44.1474 C 209.6551 44.1474 210.9481 43.4361 211.6634 43.4606 C 212.3315 43.4319 212.8611 44.1543 213.5533 44.1355 C 214.3749 44.1129 215.0536 43.3629 215.8698 43.2926 C 217.2135 43.6461 218.7542 43.9925 218.7542 43.9925 "/>
</svg>