<svg xmlns="http://www.w3.org/2000/svg" xmlns:xlink="http://www.w3.org/1999/xlink" version="1.1" width="144.0753094316644" height="266.73064390432063" viewBox="0.812849324885877 11.947519463244946 144.0753094316644 266.73064390432063">
  <!-- Exported by Scratch - http://scratch.mit.edu/ -->
  <path id="ID0.7766774026677012" fill="#0D0D0D" stroke="#0D0D0D" stroke-width="1.9914776445550282" stroke-linecap="round" d="M 135.709 140.6693 C 140.6747 107.8449 147.2862 73.9989 141.86 40.858 C 139.8075 28.3281 125.6824 20.2677 114.5518 13.9827 C 109.4709 11.1169 103.144 15.0003 97.4897 15.8025 C 95.8848 16.0262 94.5793 16.8533 93.1673 17.3168 C 91.2025 17.7779 89.1748 18.0349 87.3669 18.5746 C 86.7265 18.7674 86.0829 18.9556 85.4732 19.2524 C 84.7734 19.4832 84.1961 19.8862 83.5371 20.1743 C 82.1784 20.6933 80.8112 21.2612 79.461 21.7313 C 78.1277 22.1038 76.7621 22.37 75.4696 22.7999 C 74.8276 22.9904 74.1448 23.1235 73.5759 23.4776 C 72.9085 23.8146 72.3957 24.4301 71.8014 24.9307 C 71.224 25.3337 70.6467 25.7367 70.0693 26.1397 C 69.5004 26.4938 68.7837 26.8223 68.3371 27.3486 C 67.8498 27.8175 67.6242 28.533 67.2593 29.1741 C 66.9028 29.7663 66.497 30.35 66.1814 30.9997 C 65.5177 32.1927 64.8948 33.4431 64.2719 34.6935 C 63.9154 35.2857 63.5589 35.8779 63.194 36.519 C 62.8375 37.1112 62.481 37.7035 62.1161 38.3446 C 61.7596 38.9368 61.4031 39.529 61.0382 40.1701 C 60.6817 40.7623 60.2267 41.3375 59.9603 41.9956 C 59.6531 42.5964 59.5429 43.2314 59.375 43.9066 C 59.1664 44.5245 58.9577 45.1424 58.7898 45.8176 C 58.5811 46.4355 58.4217 47.0619 58.2045 47.7287 C 57.9466 48.338 57.5901 48.9302 57.373 49.5969 C 56.5991 51.4249 55.8576 53.3591 55.1245 55.2445 C 54.8666 55.8538 54.5101 56.446 54.293 57.1128 C 54.035 57.7221 53.8756 58.3485 53.7077 59.0238 C 53.499 59.6416 53.2411 60.251 53.1225 60.9348 C 52.963 61.5612 52.9022 62.2047 52.7835 62.8885 C 52.5632 64.1584 52.2359 65.4601 52.1057 66.796 C 51.9955 67.4309 52.1417 67.7582 52.013 68.7924 C 51.376 72.7573 50.6319 76.7539 49.9371 80.7591 C 49.2677 84.6177 48.5813 88.574 47.9035 92.4815 C 47.573 94.3864 47.2749 96.3975 46.8867 98.3427 C 46.7272 98.9691 46.5186 99.587 46.3014 100.2537 C 45.8009 101.6763 45.2103 103.0329 44.7998 104.5214 C 44.5912 105.1393 44.5795 105.7914 44.4609 106.4752 C 44.3015 107.1016 44.0435 107.7109 43.8757 108.3862 C 43.4583 109.6219 42.9832 110.898 42.7051 112.2082 C 42.3863 113.461 42.2561 114.7969 42.0273 116.1157 C 41.3579 119.9743 40.6715 123.9306 39.9937 127.8381 C 39.8327 128.7661 39.8226 129.1166 39.6547 129.7918 C 39.4461 130.4097 39.0403 130.9934 38.8232 131.6601 C 38.1478 133.5052 37.6526 135.4821 37.0674 137.3931 C 36.8587 138.011 36.6993 138.6374 36.4821 139.3041 C 35.9493 140.6205 35.2687 141.9112 34.7766 143.2849 C 34.5102 143.9431 34.3254 144.716 34.149 145.4401 C 33.9318 146.1068 33.6569 146.8138 33.5214 147.5953 C 33.362 148.2218 33.3011 148.8653 33.1824 149.5491 C 33.0723 150.184 32.8636 150.8019 32.8435 151.5028 C 32.771 152.7984 32.8871 154.177 32.9046 155.5385 C 32.893 156.1905 32.8813 156.8426 32.812 157.535 C 32.7018 158.1699 32.5917 158.8049 32.4731 159.4887 C 32.3629 160.1237 32.2527 160.7586 32.1341 161.4424 C 31.8153 162.6953 31.5865 164.014 31.2099 165.3072 C 30.801 166.4941 29.8355 168.8422 29.8355 168.8422 C 29.5044 169.2879 28.4093 171.9618 27.7989 173.2687 C 27.4676 173.979 27.0268 174.6361 26.6786 175.3385 C 26.3758 175.9491 26.1245 176.5847 25.847 177.2067 C 25.5696 177.8288 25.255 178.4373 25.0155 179.075 C 24.7814 179.6985 24.6642 180.3625 24.4302 180.986 C 24.1907 181.6237 23.9116 182.2495 23.5986 182.8543 C 23.2747 183.4813 22.8081 184.0354 22.5207 184.6798 C 22.2498 185.2879 22.1301 185.9544 21.9355 186.5908 C 21.7408 187.2272 21.5449 187.8654 21.3502 188.5018 C 21.1556 189.1382 20.9596 189.7764 20.765 190.4128 C 20.5703 191.0493 20.321 191.6732 20.1797 192.3239 C 19.9 193.6147 19.7816 194.9405 19.5019 196.2313 C 19.3606 196.882 19.1112 197.5059 18.9166 198.1423 C 18.722 198.7787 18.4726 199.4026 18.3313 200.0533 C 18.0516 201.3442 17.8516 202.6548 17.6535 203.9608 C 17.257 206.5737 16.9295 209.2047 16.5441 211.8185 C 16.4479 212.472 16.318 213.1216 16.2051 213.7722 C 16.0923 214.4228 16.0203 215.0835 15.8662 215.726 C 15.7113 216.3733 15.515 217.0134 15.2809 217.637 C 15.0414 218.2747 14.6485 218.8545 14.4494 219.5052 C 14.2556 220.1368 14.2645 220.8165 14.1104 221.459 C 13.9555 222.1063 13.6801 222.7227 13.5252 223.37 C 13.3711 224.0124 13.3403 224.6813 13.1862 225.3237 C 13.0313 225.9711 12.835 226.6112 12.601 227.2347 C 12.3615 227.8724 12.0089 228.4653 11.7694 229.103 C 11.5354 229.7265 11.4182 230.3905 11.1841 231.014 C 10.9446 231.6517 10.5786 232.2403 10.3526 232.8823 C 9.9105 234.1379 9.5723 235.4317 9.1821 236.7043 C 8.9874 237.3407 8.7915 237.9789 8.5968 238.6153 C 8.4022 239.2517 8.1665 239.879 8.0116 240.5263 C 7.8575 241.1688 7.7439 241.8233 7.6726 242.48 C 7.6005 243.1417 7.6661 243.8163 7.58 244.4765 C 7.4086 245.7861 7.2887 247.1208 6.9021 248.384 C 6.5038 249.6854 5.8407 250.8987 5.239 252.1205 C 4.9272 252.7537 4.485 253.319 4.1611 253.9461 C 3.8481 254.5509 3.6425 255.2095 3.3295 255.8144 C 3.0056 256.4414 2.4991 256.9795 2.2516 257.6399 C 2.0194 258.2587 1.6178 259.0001 1.9127 259.5936 C 2.2271 260.2268 3.0754 260.4615 3.7561 260.6681 C 4.3983 260.8631 5.108 260.6511 5.7691 260.7658 C 6.4302 260.8805 7.0362 261.2372 7.6973 261.3518 C 8.3584 261.4665 9.043 261.376 9.7102 261.4495 C 10.3725 261.5221 11.0436 261.5973 11.6808 261.7913 C 12.3374 261.9908 13.0029 262.232 13.5666 262.6216 C 14.1547 263.0286 14.4483 263.805 15.079 264.1418 C 15.666 264.456 16.3934 264.3699 17.0496 264.4837 C 17.7058 264.5975 18.3548 264.7936 19.0202 264.8255 C 19.7055 264.8589 20.3901 264.6456 21.0755 264.679 C 21.7408 264.7109 22.3979 264.8661 23.046 265.0208 C 23.6991 265.1764 24.3212 265.4513 24.9742 265.6069 C 25.6223 265.7616 26.3076 265.7547 26.9448 265.9487 C 27.6014 266.1482 28.1741 266.5796 28.8306 266.779 C 29.4678 266.9731 30.1531 266.9662 30.8012 267.1209 C 31.4542 267.2764 32.0873 267.512 32.7294 267.707 C 33.3715 267.9019 33.9929 268.1988 34.6576 268.293 C 36.6428 268.574 38.6613 268.6102 40.654 268.8302 C 41.3164 268.9028 41.9765 269.0173 42.6246 269.172 C 43.2776 269.3276 43.8964 269.616 44.5528 269.7581 C 45.8549 270.0393 47.1919 270.1606 48.4939 270.4418 C 49.1503 270.5838 49.7691 270.8723 50.4221 271.0279 C 51.0702 271.1826 51.7304 271.2971 52.3927 271.3697 C 53.06 271.4432 53.7384 271.3939 54.4056 271.4673 C 55.068 271.54 55.7139 271.7366 56.3762 271.8092 C 57.0435 271.8827 57.7205 271.8472 58.3891 271.9068 C 59.7184 272.0257 61.0573 272.1181 62.3726 272.3463 C 63.0338 272.461 63.6716 272.6985 64.3008 272.9324 C 64.9444 273.1718 65.5301 273.5633 66.1867 273.7627 C 66.8239 273.9568 67.5011 273.9907 68.1573 274.1045 C 70.1258 274.4461 72.1118 274.7282 74.069 275.1301 C 74.7265 275.2653 75.3441 275.5606 75.9972 275.7162 C 76.6453 275.8709 77.3054 275.9854 77.9677 276.058 C 78.635 276.1315 79.3104 276.1229 79.9807 276.1557 C 80.6509 276.1884 81.3263 276.1798 81.9936 276.2533 C 82.6559 276.3259 83.298 276.6034 83.9642 276.5952 C 84.6751 276.5867 84.418 276.3428 86.0618 276.2044 C 92.6363 275.6503 103.3626 280.7433 106.0152 274.6848 C 115.4763 253.0683 111.9424 227.5008 117.0499 204.3491 C 121.7545 183.0334 132.3648 162.6084 135.709 140.6693 Z "/>
</svg>