<svg xmlns="http://www.w3.org/2000/svg" xmlns:xlink="http://www.w3.org/1999/xlink" version="1.1" width="581.8281614780426" height="679.8209593296051" viewBox="-1.4140807390213013 1.5931192636489868 581.8281614780426 679.8209593296051">
  <!-- Exported by Scratch - http://scratch.mit.edu/ -->
  <path id="ID0.7234083823859692" fill="#000000" stroke="none" stroke-linecap="round" d="M 54.0113 162.7532 L 144.0417 79.9773 L 462.9913 117.5714 L 567.0238 181.2398 L 579 437.1552 L 7 437.1552 L 54.0113 162.7532 Z " stroke-width="1.2890615367803726"/>
  <path id="ID0.5175954140722752" fill="#000000" stroke="#000000" stroke-width="2.8281614780426025" stroke-linecap="round" d="M 192.7015 28.4607 L 187.7522 3.0072 L 158.0565 24.2184 L 110.6848 60.9845 L 74.6257 99.8718 L 63.3131 119.6689 L 59.0709 156.435 L 82.4032 137.3449 L 223.8113 118.2548 L 247.8506 131.6886 L 273.3041 154.3139 L 292.3942 190.3729 L 295.9294 206.6348 L 306.535 171.9899 L 330.5744 143.0012 L 370.1686 121.79 L 510.1626 145.8294 L 538.4442 167.0406 L 532.0809 118.9618 L 488.9514 70.8831 L 426.7318 20.6832 L 403.3995 7.2495 L 400.5714 25.6325 L 392.0869 39.0663 L 376.532 46.1367 L 346.8363 53.2071 L 325.6251 52.5 L 322.0899 29.1677 L 310.7772 40.4804 L 282.4956 40.4804 L 269.7689 27.7536 L 266.2337 51.793 L 246.4366 50.3789 L 215.3268 41.1874 L 192.7015 28.4607 Z "/>
  <path id="ID0.2405326054431498" fill="#000000" stroke="none" d="M 0 246.5 L 578 246.5 L 578 680 L 0 680 L 0 246.5 Z " stroke-width="1.2041666507720947"/>
</svg>