<svg xmlns="http://www.w3.org/2000/svg" xmlns:xlink="http://www.w3.org/1999/xlink" version="1.1" width="355.3982374700987" height="282.0548536810362" viewBox="1.6309238655823486 0.9091237766999024 355.3982374700987 282.0548536810362">
  <defs>
    <linearGradient id="grad_1" y2="1" x2="0">
      <stop offset="0" stop-color="#222325" stop-opacity="1"/>
      <stop offset="1" stop-color="#2E3034" stop-opacity="1"/>
    </linearGradient>
  </defs>
  <!-- Exported by Scratch - http://scratch.mit.edu/ -->
  <path id="ID0.7927394988946617" fill="#0D0D0D" stroke="#0D0D0D" stroke-width="1.240057714341795" stroke-linecap="round" d="M 273.684 143.0371 L 283.7091 160.2061 L 281.5218 177.5544 L 295.9878 198.4998 L 310.495 208.4841 L 320.9179 211.7771 L 356.1999 266.7767 L 347.0111 261.3486 L 334.574 256.5525 L 323.276 256.2869 L 318.1982 248.9735 L 315.0368 245.7019 L 308.978 244.5078 L 304.9867 242.486 L 299.5006 239.4878 L 292.9792 237.9935 L 274.7092 229.422 L 271.0066 235.5076 L 264.1621 233.1464 L 255.9492 243.3099 L 254.5593 230.0868 L 250.5081 221.503 L 247.9843 226.5056 L 236.5001 220.9991 L 240.4962 209.5059 L 235.9429 202.1374 L 230.288 204.1559 L 216.4714 214.6178 L 217.9673 197.3131 L 217.0564 187.7017 L 216.3283 180.774 L 214.4061 174.7855 L 211.2186 167.7966 L 208.6343 163.7087 L 203.9017 158.1028 L 199.462 153.0765 L 193.0389 149.3631 L 179.1277 149.779 L 185.6314 138.8069 L 186.2932 132.4887 L 183.1673 124.8249 L 180.3267 118.6132 L 176.8364 112.528 L 167.3944 100.907 L 243.9466 81.8164 L 273.684 143.0371 Z "/>
  <path id="ID0.3809091211296618" fill="#393D40" stroke="none" stroke-linecap="round" d="M 203.4582 180.9851 L 216.544 168.4973 L 230.0309 163.2431 L 238.8456 164.7365 L 253.0898 170.9112 L 256.4541 174.9901 L 251.9531 193.0056 L 238.3067 191.5292 L 229.2027 189.1479 L 203.4582 180.9851 Z " stroke-width="0.6733301269535571"/>
  <path id="ID0.7927394988946617" fill="#0D0D0D" stroke="#0D0D0D" stroke-width="1.2400576524385234" stroke-linecap="round" d="M 126.8841 118.6343 L 110.9302 130.4981 L 106.1406 147.315 L 85.0489 156.751 L 67.6385 162.2813 L 56.481 163.3516 L 2.4602 200.1146 L 13.0415 198.7238 L 26.3632 199.188 L 36.8607 203.3732 L 44.3994 198.6362 L 48.5903 196.8661 L 62.4915 201.9853 L 75.0053 196.5097 L 81.9894 197.5169 L 87.9922 200.492 L 93.5 200.0166 L 95.9911 204.0151 L 100.3145 205.2622 L 103.885 217.8321 L 110.348 206.2126 L 124.0049 200.5129 L 129.4892 196.4855 L 138.5039 190.5189 L 142.8427 191.8738 L 151.4513 206.9152 L 156.8598 190.4096 L 162.4938 186.9946 L 167.9856 180.9868 L 174.4995 179.5165 L 185.1725 159.8533 L 191.2273 156.9701 L 198.5921 156.0723 L 211.2265 161.9091 L 209.5453 149.2656 L 211.4137 143.1938 L 217.294 137.3691 L 222.3426 132.7685 L 227.9393 128.539 L 241.1816 121.5503 L 178.2434 73.9744 L 126.8841 118.6343 Z "/>
  <g id="ID0.9602425838820636">
    <g id="ID0.17693647183477879">
      <path id="ID0.7729651997797191" fill="#393C40" stroke="none" stroke-linecap="round" d="M 248.9619 93.636 L 233.6031 105.3415 L 245.5141 116.8117 L 255.0433 126.1282 L 261.152 128.5958 L 265.7446 129.5015 L 273.9272 120.0293 L 271.9146 114.5807 L 256.9216 101.6607 L 248.9619 93.636 Z " stroke-width="0.7788098475600804"/>
      <path id="ID0.9716172609478235" fill="#34373A" stroke="none" stroke-linecap="round" d="M 248.7642 100.473 L 251.3875 95.9947 L 246.4297 91.8176 L 237.3284 109.0791 L 241.3266 109.8676 L 246.6904 108.4275 L 248.7642 100.473 Z " stroke-width="0.7788098475600804"/>
      <g id="ID0.38066427363082767">
        <path id="ID0.4757494777441025" fill="#1D1E1F" stroke="none" stroke-linecap="round" d="M 228.3319 78.8807 L 220.4035 81.7363 L 210.3591 94.0768 L 230.3992 109.895 L 241.2599 108.3542 L 245.4127 106.7999 L 246.6942 103.2063 L 247.3766 99.3309 L 250.5121 94.2208 L 247.6975 89.8194 L 242.8315 83.786 L 235.8585 78.8919 L 228.3319 78.8807 Z " stroke-width="0.4541860211249934"/>
        <path id="ID0.6007084371522069" fill="none" stroke="#0D0D0D" stroke-width="0.9083720422499868" stroke-linecap="round" d="M 250.3246 94.7566 L 247.4709 99.2677 L 246.0363 104.4678 L 245.4759 106.8942 L 241.2599 108.3542 L 236.569 108.9021 "/>
      </g>
    </g>
    <g id="ID0.7397577832452953">
      <path id="ID0.6726378230378032" fill="#34373A" stroke="none" stroke-linecap="round" d="M 269.8113 112.692 L 261.786 128.4819 L 263.6473 129.8593 L 271.2625 114.1569 L 269.8113 112.692 Z " stroke-width="0.7788098475600804"/>
      <path id="ID0.6507829907350242" fill="#1D1E1F" stroke="none" stroke-linecap="round" d="M 273.0409 111.7156 L 263.4235 129.8857 L 273.8316 144.708 L 281.0874 152.0327 L 289.6539 164.8079 L 292.6387 170.3079 L 303.264 165.5273 L 299.9558 160.2441 L 296.2062 151.506 L 291.8556 140.1235 L 288.2144 131.5472 L 273.0409 111.7156 Z " stroke-width="0.7788098475600804"/>
      <path id="ID0.6829322893172503" fill="#1D1E1F" stroke="none" stroke-linecap="round" d="M 303.3706 164.987 L 292.4124 166.4745 L 292.7528 172.5757 L 292.6632 179.434 L 295.6994 183.962 L 298.6786 187.356 L 301.9223 188.6973 L 306.6327 193.2747 L 310.2436 190.619 L 310.1295 188.3512 L 311.3147 187.322 L 312.4924 183.4848 L 313.615 179.2157 L 312.8465 174.5737 L 308.4044 169.3476 L 303.3706 164.987 Z " stroke-width="0.7788098475600804"/>
      <path id="ID0.47767175547778606" fill="none" stroke="#0D0D0D" stroke-width="1.5576196951201609" stroke-linecap="round" d="M 275.1445 114.8528 L 272.7494 111.7704 L 263.4882 129.8424 L 271.1857 140.7623 "/>
      <path id="ID0.5922487881034613" fill="#282A2B" stroke="none" stroke-linecap="round" d="M 291.9856 138.1699 L 283.3975 137.4586 L 278.5895 140.7763 L 276.8398 148.7948 L 285.9311 159.9053 L 293.6626 163.3946 L 296.4117 161.5512 L 297.3593 152.4765 L 291.9856 138.1699 Z " stroke-width="0.7788098475600804"/>
      <path id="ID0.36820242274552584" fill="#151616" stroke="none" stroke-linecap="round" d="M 288.4503 143.6202 L 281.6798 148.0665 L 289.9302 155.7556 L 291.0835 154.8885 L 288.4503 143.6202 Z " stroke-width="0.7788098475600804"/>
      <path id="ID0.13569410238415003" fill="none" stroke="#232425" stroke-width="1.5576196951201609" stroke-linecap="round" d="M 294.8144 152.0174 L 294.1034 160.7458 L 286.0599 157.7002 "/>
      <path id="ID0.024502143263816833" fill="none" stroke="#0D0D0D" stroke-width="1.5576196951201609" stroke-linecap="round" d="M 291.3967 138.1807 L 283.5643 137.3378 L 278.6475 140.3534 L 276.8332 148.4152 L 282.099 154.73 "/>
    </g>
  </g>
  <g id="ID0.9602425838820636">
    <g id="ID0.17693647183477879">
      <path id="ID0.7729651997797191" fill="#3E4246" stroke="none" stroke-linecap="round" d="M 162.2201 80.215 L 174.1003 96.607 L 158.6771 104.5216 L 146.2958 110.994 L 139.4179 111.625 L 134.534 111.1463 L 129.1825 99.1648 L 132.8496 94.3035 L 151.8047 85.865 L 162.2201 80.215 Z " stroke-width="0.8164595948950127"/>
      <path id="ID0.9716172609478235" fill="#393C40" stroke="none" stroke-linecap="round" d="M 160.3522 87.138 L 159.0724 81.8497 L 165.3115 79.1548 L 169.2311 99.2332 L 164.9793 98.8164 L 160.0301 95.7498 L 160.3522 87.138 Z " stroke-width="0.8164595948950127"/>
      <g id="ID0.38066427363082767">
        <path id="ID0.4757494777441025" fill="#1D1E1F" stroke="none" stroke-linecap="round" d="M 187.4692 71.5682 L 194.565 76.8308 L 200.9185 92.2541 L 176.021 102.0767 L 165.5843 97.2478 L 161.8853 94.4325 L 161.6849 90.4379 L 162.171 86.3414 L 160.5679 80.264 L 164.7234 76.6964 L 171.4315 72.1104 L 179.9102 69.3048 L 187.4692 71.5682 Z " stroke-width="0.47614254833297776"/>
        <path id="ID0.6007084371522069" fill="none" stroke="#0D0D0D" stroke-width="0.9522850966659555" stroke-linecap="round" d="M 160.5941 80.8586 L 162.0955 86.2494 L 161.9641 91.903 L 161.7933 94.5081 L 165.5843 97.2478 L 170.1276 99.2155 "/>
      </g>
    </g>
    <g id="ID0.7397577832452953">
      <path id="ID0.6726378230378032" fill="#393C40" stroke="none" stroke-linecap="round" d="M 135.5964 92.8628 L 138.8806 111.1386 L 136.5959 111.9588 L 133.6969 93.8948 L 135.5964 92.8628 Z " stroke-width="0.8164595948950127"/>
      <path id="ID0.6507829907350242" fill="#1D1E1F" stroke="none" stroke-linecap="round" d="M 132.5848 91.087 L 136.7478 112.2334 L 121.8204 123.9672 L 112.3231 129.1271 L 99.863 139.3625 L 95.2045 143.9816 L 85.9831 135.9715 L 90.9007 131.6678 L 97.3054 124.0294 L 105.1127 113.918 L 111.3597 106.4091 L 132.5848 91.087 Z " stroke-width="0.8164595948950127"/>
      <path id="ID0.6829322893172503" fill="#1D1E1F" stroke="none" stroke-linecap="round" d="M 86.0395 135.3969 L 96.5902 140.2018 L 94.4046 146.2235 L 92.4219 153.1353 L 88.0056 156.763 L 83.9893 159.2697 L 80.3278 159.6359 L 74.216 162.8074 L 71.3938 159.0502 L 72.1937 156.8082 L 71.3149 155.4169 L 71.2923 151.209 L 71.4557 146.5843 L 73.63 142.1567 L 79.6685 138.2529 L 86.0395 135.3969 Z " stroke-width="0.8164595948950127"/>
      <path id="ID0.47767175547778606" fill="none" stroke="#0D0D0D" stroke-width="1.6329191897900255" stroke-linecap="round" d="M 129.525 93.6005 L 132.8608 91.2301 L 136.696 112.1703 L 125.6688 120.8059 "/>
      <path id="ID0.5922487881034613" fill="#282A2B" stroke="none" stroke-linecap="round" d="M 105.7083 111.8771 L 114.5443 113.7584 L 118.368 118.542 L 117.7011 127.12 L 105.2173 135.5257 L 96.4016 136.6918 L 94.1991 134.0105 L 95.9903 124.6146 L 105.7083 111.8771 Z " stroke-width="0.8164595948950127"/>
      <path id="ID0.36820242274552584" fill="#151616" stroke="none" stroke-linecap="round" d="M 107.5467 118.4691 L 112.9995 124.9786 L 102.3937 130.2039 L 101.4981 128.9849 L 107.5467 118.4691 Z " stroke-width="0.8164595948950127"/>
      <path id="ID0.13569410238415003" fill="none" stroke="#232425" stroke-width="1.6329191897900255" stroke-linecap="round" d="M 98.5481 124.9633 L 96.6239 133.9401 L 105.6187 133.3136 "/>
      <path id="ID0.024502143263816833" fill="none" stroke="#0D0D0D" stroke-width="1.6329191897900255" stroke-linecap="round" d="M 106.1604 112.1064 L 114.2777 113.6272 L 118.3019 118.1404 L 117.6869 126.7815 L 110.4924 131.5291 "/>
    </g>
  </g>
  <g id="ID0.9157347986474633">
    <path id="ID0.7477802094072104" fill="#363A3D" stroke="none" stroke-linecap="round" d="M 234.111 127.1223 L 215.3364 120.8673 L 208.5893 161.4972 L 223.5667 173.0343 L 229.8383 149.2186 L 234.111 127.1223 Z " stroke-width="0.4761425839687243"/>
    <path id="ID0.7477802094072104" fill="#363A3D" stroke="none" stroke-linecap="round" d="M 174.5461 117.2344 L 198.1473 118.2576 L 191.4002 158.8876 L 173.4979 164.9646 L 172.2107 139.2904 L 174.5461 117.2344 Z " stroke-width="0.4761425839687243"/>
    <path id="ID0.4270821204409003" fill="#3E4246" stroke="none" stroke-linecap="round" d="M 178.1623 97.4905 L 183.9675 85.7846 L 187.1541 80.4012 L 194.7631 74.5454 L 225.1777 81.0441 L 231.2865 86.4025 L 233.4418 90.8631 L 238.498 103.2866 L 236.0774 113.5032 L 234.241 118.7489 L 234.7539 125.8327 L 234.3266 131.3124 L 231.0819 137.7722 L 228.6269 142.6738 L 225.9316 151.6381 L 223.8232 173.4905 L 217.4048 180.7506 L 211.6663 186.0964 L 198.823 189.466 L 187.8808 184.584 L 185.1055 177.3176 L 181.2735 170.1653 L 173.3492 165.712 L 176.3755 140.5128 L 176.2932 133.7418 L 173.656 121.72 L 174.1388 110.8196 L 178.1623 97.4905 Z " stroke-width="0.4761425839687243"/>
    <path id="ID0.052435632329434156" fill="#393C40" stroke="none" stroke-linecap="round" d="M 181.9851 148.6931 L 186.3691 149.4694 L 192.3364 153.7907 L 197.3661 154.457 L 202.8745 157.1817 L 207.1835 156.8113 L 208.9055 156.6146 L 223.484 155.5845 L 223.2981 158.884 L 214.1608 161.5899 L 208.3401 160.3096 L 202.3218 162.3992 L 196.3231 157.8314 L 189.9118 157.2011 L 180.7893 151.8249 L 181.9851 148.6931 Z " stroke-width="0.4761425839687243"/>
    <path id="ID0.4987568911164999" fill="none" stroke="#27282B" stroke-width="0.9522851679374486" stroke-linecap="round" d="M 194.4489 75.1799 L 187.0938 80.2331 L 182.1678 89.551 "/>
    <path id="ID0.2889464790932834" fill="none" stroke="#27282B" stroke-width="0.9522851679374486" stroke-linecap="round" d="M 226.39 81.9321 L 231.4026 86.6258 L 235.5181 96.7211 "/>
    <path id="ID0.8373676878400147" fill="#000000" stroke="#2C2F31" stroke-width="0.6155104059455094" stroke-linecap="round" d="M 195.8949 88.6234 L 196.4853 87.1694 L 192.7458 87.4751 L 187.4119 89.9833 L 182.5169 94.2982 L 179.1838 99.459 L 184.6185 98.0665 L 189.272 98.7183 L 191.8344 100.0681 L 193.8569 103.4297 L 196.0991 102.7604 L 200.1013 103.1314 L 204.3876 104.888 L 207.6661 108.6456 L 209.2207 111.9965 L 211.8373 109.3621 L 215.9944 106.8647 L 220.2881 106.1163 L 225.3807 106.9301 L 227.0938 107.8047 L 229.2714 105.0084 L 231.4057 104.0836 L 233.889 105.0267 L 236.3974 107.0711 L 235.5914 103.0797 L 233.9686 98.8544 L 231.6438 95.4351 L 228.8727 92.7141 L 224.5576 91.1086 L 226.4037 93.3401 L 226.0725 95.0784 L 224.1577 96.9066 L 220.4362 97.529 L 217.2655 97.3165 L 214.667 96.978 L 212.7598 93.0117 L 211.993 94.9803 L 210.557 94.7067 L 209.4163 92.0614 L 207.7929 96.0598 L 203.744 95.5233 L 199.8211 93.9142 L 196.7405 91.9957 L 195.8949 88.6234 Z "/>
    <path id="ID0.5698574706912041" fill="none" stroke="#313537" stroke-width="0.9522851679374486" stroke-linecap="round" d="M 181.942 148.517 L 180.8283 151.59 L 189.8923 157.3185 L 196.6442 158.0777 L 202.1065 162.2428 "/>
    <path id="ID0.5698574706912041" fill="none" stroke="#313537" stroke-width="0.8933066562151265" stroke-linecap="round" d="M 223.2304 155.6221 L 223.2157 158.8776 L 214.0368 161.5766 L 208.2604 160.2554 L 202.5131 162.559 "/>
    <path id="ID0.8947288258932531" fill="#393C40" stroke="none" stroke-linecap="round" d="M 185.1915 136.9418 L 192.1392 137.9749 L 199.2721 141.09 L 203.9569 147.4669 L 197.6758 141.9833 L 187.3061 138.7409 L 181.7614 140.8851 L 185.1915 136.9418 Z " stroke-width="0.4761425839687243"/>
    <path id="ID0.8947288258932531" fill="#393C40" stroke="none" stroke-linecap="round" d="M 223.2617 144.2898 L 217.1476 143.1677 L 210.283 143.7363 L 204.5356 147.7368 L 211.3643 144.941 L 220.9762 145.1917 L 225.0064 148.5733 L 223.2617 144.2898 Z " stroke-width="0.42137391058675056"/>
    <path id="ID0.9897695370018482" fill="#393C40" stroke="none" stroke-linecap="round" d="M 186.5884 149.6023 L 180.2079 148.0601 L 181.3911 143.5506 L 181.9921 147.198 L 186.9946 148.1735 L 192.4805 152.6321 L 197.9407 153.1768 L 201.7462 155.2568 L 204.3954 147.7327 L 203.0234 157.4478 L 197.8319 154.5585 L 192.031 153.5952 L 186.5884 149.6023 Z " stroke-width="0.4761425839687243"/>
    <path id="ID0.9897695370018482" fill="#393C40" stroke="none" stroke-linecap="round" d="M 218.4162 155.1362 L 223.9506 155.6063 L 224.3004 151.2877 L 222.7741 154.3336 L 218.502 153.7589 L 212.8445 156.1187 L 208.3308 155.0325 L 204.697 155.7757 L 204.742 148.3765 L 203.049 157.3425 L 208.0211 156.2829 L 212.9269 157.0975 L 218.4162 155.1362 Z " stroke-width="0.4232251200282832"/>
    <path id="ID0.3524594851769507" fill="#393C40" stroke="none" stroke-linecap="round" d="M 202.5583 117.0765 L 208.0239 120.2043 L 212.7979 118.6321 L 209.0503 121.871 L 208.1645 133.0183 L 217.2529 133.6587 L 206.3812 135.4733 L 195.6416 128.9356 L 204.8687 132.5192 L 206.3181 121.3208 L 202.5583 117.0765 Z " stroke-width="0.4761425839687243"/>
    <path id="ID0.9214867809787393" fill="#393C40" stroke="none" stroke-linecap="round" d="M 185.8272 133.1136 L 189.4532 129.4442 L 194.3063 129.2848 L 187.7724 133.0264 L 187.0578 135.8761 L 192.0289 136.7499 L 199.5579 141.2581 L 191.0159 137.909 L 185.2385 136.9496 L 185.8272 133.1136 Z " stroke-width="0.4761425839687243"/>
    <path id="ID0.9214867809787393" fill="#393C40" stroke="none" stroke-linecap="round" d="M 223.5975 140.1749 L 221.5695 135.7617 L 217.4196 134.1513 L 221.9412 139.5084 L 221.6984 142.3008 L 217.1342 141.589 L 210.1133 143.3019 L 217.6603 142.943 L 222.9478 143.8211 L 223.5975 140.1749 Z " stroke-width="0.4451788576535537"/>
    <path id="ID0.8679121839813888" fill="#2C2F31" stroke="none" stroke-linecap="round" d="M 204.6665 116.3081 L 208.159 118.5291 L 211.7161 117.4547 L 212.4995 118.5501 L 208.1876 120.5369 L 202.8707 117.3855 L 204.6665 116.3081 Z " stroke-width="0.4761425839687243"/>
    <path id="ID0.24770551454275846" fill="none" stroke="#313537" stroke-width="0.9522851679374486" stroke-linecap="round" d="M 208.9321 115.1161 L 212.9267 119.3994 L 220.2467 121.0977 L 227.9375 121.2888 L 233.7284 118.3892 "/>
    <path id="ID0.20603158557787538" fill="none" stroke="#313537" stroke-width="0.9522851679374486" stroke-linecap="round" d="M 176.7175 105.6598 L 182.7682 112.0946 L 194.4541 117.2931 L 201.7147 117.8955 L 208.4644 115.0344 "/>
    <g id="ID0.5272086253389716">
      <path id="ID0.24770551454275846" fill="none" stroke="#363A3D" stroke-width="0.9522851066969494" stroke-linecap="round" d="M 174.7397 138.2403 L 185.0284 136.7391 "/>
      <path id="ID0.24770551454275846" fill="none" stroke="#363A3D" stroke-width="0.9522851066969494" stroke-linecap="round" d="M 174.1599 126.1226 L 195.3284 123.3391 "/>
    </g>
    <g id="ID0.5272086253389716">
      <path id="ID0.24770551454275846" fill="none" stroke="#363A3D" stroke-width="0.9522850816809121" stroke-linecap="round" d="M 229.6664 146.4277 L 223.1218 143.4835 "/>
      <path id="ID0.24770551454275846" fill="none" stroke="#363A3D" stroke-width="0.9522850816809121" stroke-linecap="round" d="M 232.0149 135.2468 L 219.1074 128.2772 "/>
    </g>
    <g id="ID0.7887678607366979">
      <path id="ID0.753661650698632" fill="none" stroke="#313537" stroke-width="0.9522851066969494" stroke-linecap="round" d="M 203.0085 117.2719 L 207.7853 120.4784 L 212.2068 118.558 "/>
      <g id="ID0.8167418288066983">
        <path id="ID0.9553722990676761" fill="none" stroke="#313537" stroke-width="1.0409107773624173" stroke-linecap="round" d="M 205.9508 135.221 L 200.7648 132.1878 L 194.9861 129.2976 L 190.1237 129.4554 L 185.9611 133.1082 L 185.3956 136.5136 "/>
        <path id="ID0.5982440118677914" fill="none" stroke="#313537" stroke-width="0.8540413552749858" stroke-linecap="round" d="M 195.3712 128.9374 L 195.0641 123.5207 L 201.3871 117.4163 "/>
      </g>
      <g id="ID0.7324484633281827">
        <path id="ID0.04993448918685317" fill="none" stroke="#313537" stroke-width="0.9522851066969494" stroke-linecap="round" d="M 207.8048 120.361 L 206.7933 130.8116 L 204.572 147.0946 L 202.1353 163.2212 "/>
        <g id="ID0.8167418288066983">
          <path id="ID0.9553722990676761" fill="none" stroke="#313537" stroke-width="0.9699703335790443" stroke-linecap="round" d="M 206.2793 135.1442 L 211.469 134.6305 L 217.138 133.6412 L 221.1215 135.268 L 223.4633 140.0009 L 222.8978 143.4063 "/>
          <path id="ID0.5982440118677914" fill="none" stroke="#313537" stroke-width="0.7916616451019644" stroke-linecap="round" d="M 216.9554 133.2953 L 218.8554 128.2451 L 215.4671 120.528 "/>
          <path id="ID0.3567589442245662" fill="none" stroke="#313537" stroke-width="0.8967655480907116" stroke-linecap="round" d="M 204.3348 147.713 L 210.2108 143.6449 L 217.7525 142.9667 L 223.2058 143.8723 L 224.6556 148.819 L 223.7943 155.7952 L 218.2033 155.5908 L 212.119 157.7177 L 207.3038 156.6767 L 202.8515 157.7957 L 197.4979 154.3726 L 191.9436 153.6916 L 186.1091 149.5854 L 180.0085 147.8484 L 181.4895 140.975 L 184.7701 136.8138 L 190.967 137.8429 L 198.8763 141.087 L 203.8037 146.9491 Z "/>
        </g>
      </g>
    </g>
    <g id="ID0.9312638868577778">
      <path id="ID0.2888958193361759" fill="#393C40" stroke="none" stroke-linecap="round" d="M 183.1431 157.1172 L 192.8807 160.8471 L 191.8162 163.6261 L 182.0786 159.8962 L 183.1431 157.1172 Z " stroke-width="0.4761425490144655"/>
      <path id="ID0.2888958193361759" fill="#393C40" stroke="none" stroke-linecap="round" d="M 172.8629 153.3377 L 183.7807 157.6471 L 182.7162 160.4261 L 172.9786 156.6962 L 172.8629 153.3377 Z " stroke-width="0.4761425490144655"/>
      <g id="ID0.36424446757882833">
        <path id="ID0.7359844641759992" fill="#8A7B59" stroke="none" d="M 186.0751 156.8518 L 187.5781 157.1015 L 186.5563 163.2547 L 185.0533 163.0051 L 186.0751 156.8518 Z " stroke-width="0.4761425533484747"/>
        <path id="ID0.7359844641759992" fill="#8A7B59" stroke="none" d="M 184.2751 156.1518 L 185.7781 156.4015 L 184.7563 162.5547 L 183.2533 162.3051 L 184.2751 156.1518 Z " stroke-width="0.4761425533484747"/>
        <path id="ID0.7359844641759992" fill="#8A7B59" stroke="none" d="M 182.4751 155.1518 L 183.9781 155.4015 L 182.9563 161.5547 L 181.4533 161.3051 L 182.4751 155.1518 Z " stroke-width="0.4761425533484747"/>
        <path id="ID0.7359844641759992" fill="#8A7B59" stroke="none" d="M 187.8751 157.6518 L 189.3781 157.9015 L 188.3563 164.0547 L 186.8533 163.8051 L 187.8751 157.6518 Z " stroke-width="0.4761425533484747"/>
      </g>
      <g id="ID0.1049797898158431">
        <path id="ID0.08871637750416994" fill="#8A7B59" stroke="none" stroke-linecap="round" d="M 174.686 152.9027 L 180.832 154.9852 L 179.8685 160.4964 L 173.9613 158.4295 L 174.686 152.9027 Z " stroke-width="0.4761425533484747"/>
        <path id="ID0.13805592898279428" fill="#76694C" stroke="none" stroke-linecap="round" d="M 174.5285 152.6035 L 180.9798 154.7367 L 180.6018 157.594 L 174.1426 155.363 L 174.5285 152.6035 Z " stroke-width="0.4761425533484747"/>
        <path id="ID0.3221200187690556" fill="#61563F" stroke="none" stroke-linecap="round" d="M 176.9699 155.2587 L 177.7773 155.7595 L 177.566 157.5055 L 176.6778 157.0175 L 176.9699 155.2587 Z " stroke-width="0.5167888696955751"/>
        <path id="ID0.1420820001512766" fill="#BAA578" stroke="none" stroke-linecap="round" d="M 179.3427 159.4586 L 180.2813 158.1665 L 179.9499 160.4524 L 173.937 158.4403 L 179.3427 159.4586 Z " stroke-width="0.4761425533484747"/>
      </g>
      <path id="ID0.2888958193361759" fill="#393C40" stroke="none" stroke-linecap="round" d="M 220.2114 163.6116 L 212.5912 164.1841 L 212.602 166.7571 L 220.2222 166.1846 L 220.2114 163.6116 Z " stroke-width="0.38104699061083686"/>
      <path id="ID0.2888958193361759" fill="#393C40" stroke="none" stroke-linecap="round" d="M 226.9603 162.9152 L 219.7412 163.6841 L 219.752 166.2571 L 226.0671 165.7209 L 226.9603 162.9152 Z " stroke-width="0.38104699061083686"/>
      <path id="ID0.7359844641759992" fill="#8A7B59" stroke="none" d="M 218.3604 162.2896 L 217.2683 162.1083 L 216.3795 167.4609 L 217.4716 167.6423 L 218.3604 162.2896 Z " stroke-width="0.38160280584417416"/>
      <path id="ID0.7359844641759992" fill="#8A7B59" stroke="none" d="M 219.8104 162.0396 L 218.7183 161.8583 L 217.8295 167.2109 L 218.9216 167.3923 L 219.8104 162.0396 Z " stroke-width="0.38160280584417416"/>
      <path id="ID0.7359844641759992" fill="#8A7B59" stroke="none" d="M 221.3604 161.7896 L 220.2683 161.6083 L 219.3795 166.9609 L 220.4716 167.1423 L 221.3604 161.7896 Z " stroke-width="0.38160280584417416"/>
      <path id="ID0.7359844641759992" fill="#8A7B59" stroke="none" d="M 216.8604 162.5896 L 215.7683 162.4083 L 214.8795 167.7609 L 215.9716 167.9423 L 216.8604 162.5896 Z " stroke-width="0.38160280584417416"/>
      <g id="ID0.1049797898158431">
        <path id="ID0.08871637750416994" fill="#8A7B59" stroke="none" stroke-linecap="round" d="M 227.338 161.9328 L 222.3023 162.078 L 221.4915 167.1851 L 226.3495 166.9881 L 227.338 161.9328 Z " stroke-width="0.4054529774502679"/>
        <path id="ID0.13805592898279428" fill="#76694C" stroke="none" stroke-linecap="round" d="M 227.5889 161.7473 L 222.3176 161.8534 L 221.8089 164.4679 L 227.1128 164.278 L 227.5889 161.7473 Z " stroke-width="0.4054529774502679"/>
        <path id="ID0.3221200187690556" fill="#61563F" stroke="none" stroke-linecap="round" d="M 225.2157 163.4082 L 224.4919 163.6269 L 224.1668 165.2192 L 224.9458 165.0338 L 225.2157 163.4082 Z " stroke-width="0.4400648170555984"/>
        <path id="ID0.1420820001512766" fill="#BAA578" stroke="none" stroke-linecap="round" d="M 222.1987 166.4455 L 221.8711 165.0528 L 221.4852 167.1524 L 226.4049 167.0325 L 222.1987 166.4455 Z " stroke-width="0.4054529774502679"/>
      </g>
      <g id="ID0.6836685389280319">
        <path id="ID0.09357938077300787" fill="#857656" stroke="none" d="M 193.8453 158.0553 L 211.5769 160.9998 L 210.5239 167.3409 L 192.7923 164.3964 L 193.8453 158.0553 Z " stroke-width="0.4283320793639229"/>
        <path id="ID0.6492703901603818" fill="#7C6E50" stroke="none" stroke-linecap="round" d="M 194.1915 160.3492 L 201.787 164.7478 L 211.0072 163.1416 L 210.309 167.3456 L 193.4934 164.5531 L 194.1915 160.3492 Z " stroke-width="0.4761425533484747"/>
        <g id="ID0.9254062357358634">
          <g id="ID0.49943465692922473">
            <path id="ID0.140373723115772" fill="#968561" stroke="none" d="M 210.289 159.6244 L 215.3384 160.4629 L 213.8564 169.3874 L 208.807 168.5489 L 210.289 159.6244 Z " stroke-width="0.4761425533484747"/>
            <path id="ID0.8286363878287375" fill="#BAA578" stroke="none" stroke-linecap="round" d="M 210.2935 159.4356 L 215.4213 160.5285 L 211.2101 160.6014 L 209.8492 162.5474 L 210.2935 159.4356 Z " stroke-width="0.4761425533484747"/>
            <path id="ID0.7362233307212591" fill="#8A7B59" stroke="none" stroke-linecap="round" d="M 209.3186 165.4518 L 211.9881 165.9434 L 214.805 163.9496 L 213.8885 169.4686 L 208.7921 168.6223 L 209.3186 165.4518 Z " stroke-width="0.4761425533484747"/>
          </g>
          <g id="ID0.49943465692922473">
            <path id="ID0.140373723115772" fill="#968561" stroke="none" d="M 195.3756 157.389 L 190.3262 156.5505 L 188.8442 165.475 L 193.8936 166.3135 L 195.3756 157.389 Z " stroke-width="0.4761425533484747"/>
            <path id="ID0.8286363878287375" fill="#BAA578" stroke="none" stroke-linecap="round" d="M 195.4665 157.2066 L 190.2607 156.5834 L 194.2223 158.0136 L 194.8812 160.295 L 195.4665 157.2066 Z " stroke-width="0.4761425533484747"/>
            <path id="ID0.7362233307212591" fill="#8A7B59" stroke="none" stroke-linecap="round" d="M 194.4446 163.215 L 191.7594 162.8174 L 189.7382 160.0201 L 188.8217 165.5392 L 193.9181 166.3855 L 194.4446 163.215 Z " stroke-width="0.4761425533484747"/>
          </g>
        </g>
      </g>
    </g>
  </g>
  <g id="ID0.8333355090580881">
    <path id="ID0.9286923445761204" fill="#27282B" stroke="none" stroke-linecap="round" d="M 205.7494 41.9176 L 224.1514 46.0735 L 221.1325 70.2451 L 235.1883 79.497 L 210.942 87.4606 L 176.4554 69.7899 L 197.6473 62.1537 L 205.7494 41.9176 Z " stroke-width="0.47614259146178506"/>
    <path id="ID0.5448851804248989" fill="none" stroke="#1D1E1F" stroke-width="0.9522851829235701" stroke-linecap="round" d="M 199.8866 56.6566 L 197.8631 61.9925 L 213.6544 72.2173 L 220.8361 70.2984 "/>
    <path id="ID0.262191956397146" fill="none" stroke="#1D1E1F" stroke-width="0.9522851829235701" stroke-linecap="round" d="M 201.9101 61.9531 L 213.6049 69.9009 L 216.734 69.2233 "/>
  </g>
  <g id="ID0.3450673264451325">
    <g id="ID0.9831569031812251">
      <path id="ID0.0877610077150166" fill="#2E3034" stroke="none" stroke-linecap="round" d="M 237.8681 17.8402 L 235.6934 4.1208 L 230.636 32.1975 L 238.1859 33.5574 L 237.8681 17.8402 Z " stroke-width="0.5866066354084487"/>
      <path id="ID0.796130308881402" fill="#242628" stroke="none" stroke-linecap="round" d="M 238.1473 17.9627 L 235.6226 4.1802 L 236.6694 18.4295 L 234.9553 33.2477 L 238.1325 33.5201 L 238.1473 17.9627 Z " stroke-width="0.5866066354084487"/>
    </g>
    <g id="ID0.9831569031812251">
      <path id="ID0.0877610077150166" fill="#2E3034" stroke="none" stroke-linecap="round" d="M 214.3249 13.842 L 221.15 1.7437 L 216.0927 29.8205 L 208.5428 28.4605 L 214.3249 13.842 Z " stroke-width="0.5866066354084487"/>
      <path id="ID0.796130308881402" fill="#242628" stroke="none" stroke-linecap="round" d="M 213.9214 13.7737 L 221.0966 1.7384 L 215.1435 14.7268 L 211.4875 28.862 L 208.5068 28.3584 L 213.9214 13.7737 Z " stroke-width="0.5866066354084487"/>
    </g>
    <path id="ID0.8999492498114705" fill="#2E3034" stroke="none" stroke-linecap="round" d="M 230.5272 22.6672 C 234.7767 23.9195 238.9532 27.4258 240.3633 31.6252 C 241.9718 36.4194 239.0624 41.584 238.4718 46.5536 C 238.3403 48.2607 238.8096 50.1262 238.1962 51.666 C 236.9475 54.7981 234.7631 57.4823 233.1326 60.433 C 232.0641 62.3668 231.4947 64.6569 230.0069 66.3226 C 228.3125 68.3063 226.4355 71.1527 223.7962 71.1403 C 219.8836 71.1216 216.1981 68.587 213.1143 66.248 C 210.581 64.3262 208.3617 61.6788 207.3037 58.6713 C 205.4408 53.108 203.9237 47.0836 204.5873 41.2244 C 205.3232 34.7293 205.9951 26.6544 211.5096 22.8552 C 216.4996 19.1396 224.2096 20.8086 230.5272 22.6672 Z " stroke-width="0.5080372688821929"/>
    <path id="ID0.2441388238221407" fill="#AB8E85" stroke="none" d="M 223.919 46.7075 C 227.905 47.5952 233.8189 45.4448 236.014 48.6309 C 237.971 51.6159 233.7944 55.8032 232.2232 59.0497 C 230.6591 62.2784 229.319 65.8358 226.6108 68.2472 C 225.3354 69.3063 223.1326 68.9822 221.4777 68.4072 C 218.5025 67.3698 215.7168 65.5639 213.4808 63.3415 C 211.1667 61.0425 208.0349 58.4163 208.0443 55.1411 C 208.0566 50.9923 209.6668 45.8004 213.2714 43.8325 C 216.5573 42.139 220.3343 45.9086 223.919 46.7075 Z " stroke-width="1.2558400263508496"/>
    <path id="ID0.46721756737679243" fill="#A2887F" stroke="none" stroke-linecap="round" d="M 209.2928 45.2363 L 210.8212 46.2085 L 236.4883 50.4447 L 228.4878 54.1657 L 212.4499 48.7732 L 213.1266 51.3213 L 212.3814 56.8913 L 214.682 64.6101 L 211.3664 57.2246 L 209.2928 45.2363 Z " stroke-width="0.5080372688821929"/>
    <path id="ID0.8256730306893587" fill="none" stroke="#937B73" stroke-width="1.0160745377643858" stroke-linecap="round" d="M 217.9429 58.7613 C 217.9429 58.7613 220.705 58.6528 222.0824 58.7068 C 222.4268 58.7204 222.7461 58.8568 223.0689 58.962 C 223.397 59.0691 223.6912 59.2924 224.0328 59.3421 C 224.7099 59.4408 225.4033 59.3654 226.0868 59.4023 C 226.4258 59.4206 226.767 59.4433 227.1003 59.5075 C 227.4341 59.5717 227.77 59.6529 228.0823 59.7876 C 228.5957 60.0091 229.5672 60.5713 229.5672 60.5713 "/>
    <path id="ID0.7592270169407129" fill="none" stroke="#937B73" stroke-width="1.0160745377643858" stroke-linecap="round" d="M 226.169 61.5728 C 226.169 61.5728 225.4958 61.8021 225.1469 61.8017 C 224.8083 61.8016 224.4935 61.5978 224.1559 61.5716 C 223.8163 61.5455 223.476 61.6639 223.1359 61.646 C 222.7979 61.6284 222.4471 61.5983 222.136 61.4658 C 221.8713 61.3531 221.458 60.9308 221.458 60.9308 "/>
    <path id="ID0.5332203092984855" fill="none" stroke="#937B73" stroke-width="1.0160745377643858" stroke-linecap="round" d="M 221.9941 51.2409 C 221.9941 51.2409 221.3216 51.5586 221.1591 51.8648 C 220.9456 52.276 220.5454 53.0624 220.9254 53.4488 C 221.4454 53.8372 222.3208 53.2562 222.9929 53.434 C 223.6428 53.6089 224.8528 54.2853 224.8528 54.2853 "/>
    <path id="ID0.2278452254831791" fill="none" stroke="#937B73" stroke-width="1.0160745377643858" stroke-linecap="round" d="M 226.9175 48.411 C 226.9175 48.411 227.5068 50.4096 227.7971 51.4086 C 227.8943 51.7431 228.0081 52.0743 228.0805 52.4147 C 228.1529 52.755 228.305 53.1086 228.2299 53.4482 C 228.1546 53.7888 227.8945 54.0692 227.6588 54.3261 C 227.5013 54.4981 227.0732 54.7111 227.0732 54.7111 "/>
    <path id="ID0.6473136460408568" fill="none" stroke="#937B73" stroke-width="1.0160745245084777" stroke-linecap="round" d="M 224.2315 65.111 C 224.2315 65.111 224.4307 65.792 224.4197 66.14 C 224.4085 66.479 224.2879 66.8104 224.1663 67.127 C 223.9834 67.6041 223.5094 68.5137 223.5094 68.5137 "/>
    <path id="ID0.11669129692018032" fill="#2E3034" stroke="none" stroke-linecap="round" d="M 212.1385 40.3287 L 234.6978 46.199 L 238.0999 49.5219 L 228.017 52.4807 L 208.0927 46.3107 L 212.1385 40.3287 Z " stroke-width="0.5080372688821929"/>
    <path id="ID0.14635155349969864" fill="#2E3034" stroke="none" stroke-linecap="round" d="M 208.5814 45.0307 L 210.3388 45.7345 L 212.0156 51.3277 L 211.2934 57.0566 L 212.4179 61.1308 L 214.6419 65.1191 L 207.4652 58.5352 L 208.5814 45.0307 Z " stroke-width="0.5080372688821929"/>
    <path id="ID0.28340246016159654" fill="#1C1D1F" stroke="none" stroke-linecap="round" d="M 212.8204 37.2248 L 215.9228 39.3477 L 225.2796 41.9386 L 224.2599 47.5996 L 217.597 45.439 L 213.9879 43.6913 L 212.2627 41.844 L 211.7186 39.9898 L 212.8204 37.2248 Z " stroke-width="0.5401026294044192"/>
    <path id="ID0.6101007834076881" fill="#FFFFFF" stroke="none" stroke-linecap="round" d="M 216.1426 40.4301 L 217.6983 41.1166 L 221.2054 42.9688 L 221.3926 45.0025 L 216.4786 42.6411 L 216.1426 40.4301 Z " stroke-width="0.40610617957269346"/>
    <path id="ID0.28340246016159654" fill="#1C1D1F" stroke="none" stroke-linecap="round" d="M 238.0486 41.7986 L 234.7954 42.6073 L 226.17 41.8611 L 225.2607 46.9092 L 231.501 47.1768 L 235.0608 46.8393 L 237.0774 45.8322 L 238.109 44.4521 L 238.0486 41.7986 Z " stroke-width="0.481624968206611"/>
    <path id="ID0.6101007834076881" fill="#FFFFFF" stroke="none" stroke-linecap="round" d="M 236.0025 43.5016 L 234.3984 43.712 L 230.7005 44.4644 L 229.9853 46.2711 L 235.1039 45.4303 L 236.0025 43.5016 Z " stroke-width="0.38638674484988494"/>
    <g id="ID0.07940126257017255">
      <path id="ID0.46257128613069654" fill="#27282B" stroke="none" stroke-linecap="round" d="M 225.5262 41.831 L 228.0359 52.4009 L 218.3862 49.3722 L 225.5262 41.831 Z " stroke-width="0.5080372688821929"/>
      <path id="ID0.9845890481956303" fill="#27282B" stroke="none" stroke-linecap="round" d="M 226.2983 42.1049 L 233.1422 50.8228 L 228.092 52.4942 L 226.2983 42.1049 Z " stroke-width="0.5080372688821929"/>
    </g>
    <path id="ID0.20071752788498998" fill="#202324" stroke="none" d="M 218.0314 35.8576 L 221.6515 39.1166 L 226.1193 41.1087 L 225.9466 42.4971 L 218.5219 39.8692 L 213.1363 36.5245 L 215.1515 35.0808 L 218.0314 35.8576 Z " stroke-width="0.5080372688821929"/>
    <path id="ID0.20071752788498998" fill="#202324" stroke="none" d="M 234.8281 38.5765 L 231.3897 40.4435 L 225.9524 41.0507 L 225.6563 42.2997 L 232.8813 42.4171 L 238.5847 41.3843 L 237.4676 38.9098 L 234.8281 38.5765 Z " stroke-width="0.46609797333795855"/>
    <path id="ID0.521138689480722" fill="none" stroke="#212325" stroke-width="0.9060627198835568" stroke-linecap="round" d="M 238.1606 41.5309 L 234.6916 42.5171 L 226.0664 42.2294 "/>
    <path id="ID0.17828734638169408" fill="none" stroke="#202324" stroke-width="1.0160745377643858" stroke-linecap="round" d="M 228.0161 51.9127 L 226.4245 44.2699 C 225.8684 41.7116 225.9136 42.2973 225.8994 41.3104 C 225.8944 40.9657 226.1685 40.6733 226.2795 40.3464 C 226.3886 40.0243 226.5119 39.7012 226.5596 39.3644 C 226.608 39.0242 226.57 38.6761 226.5648 38.3329 C 226.5565 37.7972 226.519 36.7244 226.519 36.7244 "/>
    <path id="ID0.521138689480722" fill="none" stroke="#212325" stroke-width="1.0160745377643858" stroke-linecap="round" d="M 213.2033 36.7992 L 216.463 39.1931 L 225.6402 42.2658 "/>
    <path id="ID0.8012696979567409" fill="none" stroke="url(#grad_1)" stroke-width="1.0160745377643858" stroke-linecap="round" d="M 236.5694 49.9947 L 228.526 52.5207 L 210.6406 46.9245 L 211.9061 51.0757 L 211.1254 57.1296 L 212.3859 61.0218 L 214.5919 65.1101 "/>
    <path id="ID0.043594349175691605" fill="#D7E2FD" stroke="none" stroke-linecap="round" d="M 220.7718 43.9363 L 221.195 42.8768 L 221.3302 44.9919 L 218.9109 43.8076 L 220.7718 43.9363 Z " stroke-width="0.5080372688821929"/>
    <path id="ID0.043594349175691605" fill="#D7E2FD" stroke="none" stroke-linecap="round" d="M 230.8351 45.5572 L 230.7519 44.5234 L 230.0668 46.3242 L 232.4861 45.9448 L 230.8351 45.5572 Z " stroke-width="0.46186425578456447"/>
  </g>
  <g id="ID0.8669879510998726">
    <path id="ID0.5368814701214433" fill="#292D2E" stroke="none" stroke-linecap="round" d="M 228.9923 264.6935 L 231.9874 255.9008 L 236.5933 246.7116 L 246.4943 252.6957 L 257.6626 260.4732 L 274.992 271.0363 L 275.9877 277.565 L 251.2773 278.4304 L 230.0805 274.4948 L 228.9923 264.6935 Z " stroke-width="0.7702165753443064"/>
    <path id="ID0.05466862628236413" fill="#292D2E" stroke="none" stroke-linecap="round" d="M 232.9707 175.503 L 259.4414 171.7216 L 254.5127 190.5611 L 252.9244 195.5975 L 252.2835 213.7287 L 248.971 254.3463 L 233.2917 256.1831 L 231.1651 234.0357 L 228.459 225.3939 L 227.1537 215.9644 L 229.2718 202.4621 L 229.3078 190.141 L 232.9707 175.503 Z " stroke-width="0.7305889978321375"/>
    <path id="ID0.4490455654449761" fill="none" stroke="#272A2B" stroke-width="1.6585523899149508" stroke-linecap="round" d="M 232.6802 175.6898 L 259.1417 171.522 L 252.2846 195.9112 "/>
    <path id="ID0.10446935473009944" fill="none" stroke="#242728" stroke-width="1.6585523899149508" stroke-linecap="round" d="M 251.9098 208.2425 L 251.6962 225.0795 L 241.1272 232.3861 "/>
    <path id="ID0.42170455446466804" fill="none" stroke="#242728" stroke-width="1.6585523899149508" stroke-linecap="round" d="M 250.5902 226.2403 L 249.0895 241.2986 L 238.2999 248.7983 "/>
    <path id="ID0.047098892275244" fill="none" stroke="#242728" stroke-width="1.6585523899149508" stroke-linecap="round" d="M 229.5415 189.9388 L 229.0554 193.8488 L 233.5262 202.717 "/>
  </g>
  <path id="ID0.3809091211296618" fill="#3E4246" stroke="none" stroke-linecap="round" d="M 172.7967 156.1353 L 198.3585 166.4132 L 205.2816 179.8463 L 204.8151 185.5227 L 200.4018 195.2804 L 192.0816 197.7009 L 179.4792 199.9783 L 177.9349 188.968 L 175.6875 182.4043 L 172.7967 156.1353 Z " stroke-width="0.5909086413929773"/>
  <g id="ID0.38464318960905075">
    <path id="ID0.5368814701214433" fill="#303436" stroke="none" stroke-linecap="round" d="M 169.557 263.8374 L 173.5632 255.457 L 179.2156 246.8717 L 188.346 253.9763 L 198.5245 263.0106 L 214.4946 275.5342 L 214.7173 282.1347 L 190.0761 280.0945 L 169.4876 273.6987 L 169.557 263.8374 Z " stroke-width="0.770216547129682"/>
    <path id="ID0.05466862628236413" fill="#303436" stroke="none" stroke-linecap="round" d="M 183.8895 175.0885 L 210.621 174.4394 L 203.5157 192.5704 L 201.3473 197.3856 L 198.5832 215.3163 L 190.5273 255.2646 L 174.7408 255.2488 L 175.2278 233.0049 L 173.5544 224.1052 L 173.3647 214.5877 L 177.0526 201.4273 L 178.5342 189.1955 L 183.8895 175.0885 Z " stroke-width="0.7305890362007086"/>
    <path id="ID0.4490455654449761" fill="none" stroke="#272A2B" stroke-width="1.6585524115049803" stroke-linecap="round" d="M 183.7261 175.9777 L 210.494 174.9438 L 200.8222 198.3599 "/>
    <path id="ID0.10446935473009944" fill="none" stroke="#242728" stroke-width="1.6585524115049803" stroke-linecap="round" d="M 199.0031 210.562 L 196.8151 227.2576 L 185.4618 233.2735 "/>
    <path id="ID0.42170455446466804" fill="none" stroke="#242728" stroke-width="1.6585524115049803" stroke-linecap="round" d="M 195.5805 228.2806 L 192.3232 243.0588 L 180.7281 249.2405 "/>
    <path id="ID0.047098892275244" fill="none" stroke="#242728" stroke-width="1.6585524115049803" stroke-linecap="round" d="M 178.9658 189.6733 L 178.0242 193.4993 L 181.4235 202.8308 "/>
  </g>
</svg>