<svg xmlns="http://www.w3.org/2000/svg" xmlns:xlink="http://www.w3.org/1999/xlink" version="1.1" width="285.3174796104431" height="178.05008459091187" viewBox="8.115910768508911 -2.3192891404032707 285.3174796104431 178.05008459091187">
  <!-- Exported by Scratch - http://scratch.mit.edu/ -->
  <g id="ID0.6169916936196387">
    <path id="ID0.6829322893172503" fill="#EDD2B8" stroke="none" stroke-linecap="round" d="M 123.4778 141.9984 L 131.6895 115.3691 L 146.7168 118.7286 L 163.8036 121.331 L 173.8093 130.7441 L 181.0197 139.5484 L 183.0181 148.1647 L 192.4572 161.7602 L 184.3676 169.6429 L 178.777 168.4252 L 175.7302 170.9478 L 165.7058 172.2949 L 154.6304 173.3271 L 143.407 169.5045 L 132.2446 156.3086 L 123.4778 141.9984 Z " stroke-width="1.962514912155474"/>
    <g id="ID0.9434720128774643">
      <path id="ID0.6507829907350242" fill="#282828" stroke="none" stroke-linecap="round" d="M 10.5196 52.1338 L 28.4441 20.7654 L 78.2408 64.7839 L 97.3522 81.4164 L 125.5826 107.9749 L 141.6364 115.3987 L 121.7235 145.3006 L 109.9936 131.7055 L 89.8153 118.7848 L 63.3105 103.2804 L 43.4896 90.6959 L 10.5196 52.1338 Z " stroke-width="1.962514912155474"/>
      <path id="ID0.9892375003546476" fill="none" stroke="#191919" stroke-width="4.807377778442385" stroke-linecap="round" d="M 121.3244 143.2973 L 138.7449 115.1333 L 119.7462 105.5103 "/>
    </g>
  </g>
  <g id="ID0.08065540948882699">
    <path id="ID0.2553020962513983" fill="#999FA5" stroke="none" d="M 203.2951 37.987 C 227.5002 37.987 249.4339 40.6815 265.3175 45.0322 C 281.1987 49.3829 291.0297 55.3921 291.0297 62.0239 C 291.0297 68.6556 281.1987 74.6649 265.3175 79.0155 C 249.4339 83.3662 227.5002 86.0608 203.2951 86.0608 C 179.0899 86.0608 157.1563 83.3662 141.2727 79.0155 C 125.3915 74.6649 115.5604 68.6556 115.5604 62.0239 C 115.5604 55.3921 125.3915 49.3829 141.2727 45.0322 C 157.1563 40.6815 179.0899 37.987 203.2951 37.987 Z " stroke-width="2.40368914604187"/>
    <path id="ID0.4823109242133796" fill="#8B9196" stroke="none" stroke-linecap="round" d="M 200.8971 0.0844 C 220.9583 0.0844 239.135 4.4615 252.2976 11.5332 C 265.4602 18.6024 270.0513 28.0946 273.6087 39.1443 C 276.4018 47.8337 278.8848 61.9073 271.205 66.1858 C 250.0718 77.3846 224.2225 78.6225 200.8971 78.2043 C 177.1968 77.7788 152.2873 74.9545 131.1901 63.7822 C 124.1954 59.8641 125.616 47.0933 128.1855 39.1443 C 131.7646 28.1018 136.334 18.6024 149.4966 11.5332 C 162.6592 4.4615 180.8359 0.0844 200.8971 0.0844 Z " stroke-width="2.40368914604187"/>
    <path id="ID0.0372768803499639" fill="none" stroke="#A4ABB1" stroke-width="4.80737829208374" stroke-linecap="round" d="M 224.934 7.3418 C 224.934 7.3418 231.835 8.6398 235.1497 9.7455 C 236.6808 10.255 238.0774 11.166 239.3562 12.1492 C 240.7022 13.1851 242.9617 15.7547 242.9617 15.7547 "/>
    <path id="ID0.0845643924549222" fill="none" stroke="#A4ABB1" stroke-width="4.80737829208374" stroke-linecap="round" d="M 231.5442 18.1584 C 231.5442 18.1584 234.8372 19.1679 236.3515 19.9611 C 239.0581 21.3793 244.1635 24.7685 244.1635 24.7685 "/>
  </g>
</svg>