<svg xmlns="http://www.w3.org/2000/svg" xmlns:xlink="http://www.w3.org/1999/xlink" version="1.1" width="479.67985363249835" height="329.5246412301546" viewBox="1.7542237269637218 8.143624209141457 479.67985363249835 329.5246412301546">
  <defs>
    <linearGradient id="grad_1" y2="1" x2="0">
      <stop offset="0" stop-color="#222325" stop-opacity="1"/>
      <stop offset="1" stop-color="#2E3034" stop-opacity="1"/>
    </linearGradient>
  </defs>
  <!-- Exported by Scratch - http://scratch.mit.edu/ -->
  <path id="ID0.7927394988946617" fill="#0D0D0D" stroke="#0D0D0D" stroke-width="1.2400576843338058" stroke-linecap="round" d="M 337.3545 117.7118 L 356.1511 124.19 L 365.8062 138.7683 L 388.7647 141.3775 L 407.0323 141.3784 L 417.9904 139.0214 L 480.6048 157.7084 L 470.0988 159.5857 L 457.5426 164.0604 L 448.8043 171.2267 L 440.1854 168.9938 L 435.6553 168.5752 L 428.6764 168.5217 L 421.9458 169.4268 L 414.2409 170.8181 L 409.3471 172.0498 L 403.22 174.9277 L 399.4654 177.1422 L 394.466 182.5322 L 391.3911 187.0178 L 388.8989 192.2337 L 389.3006 205.2947 L 379.6238 196.1766 L 370.8577 190.7702 L 364.4079 188.0899 L 358.857 187.0266 L 351.9836 185.8495 L 347.2839 187.1282 L 344.3132 192.3462 L 340.6613 209.2876 L 330.5104 195.1934 L 323.552 188.5009 L 318.4822 183.7238 L 313.1197 180.4374 L 306.1455 177.2177 L 301.5206 175.8039 L 294.277 174.6404 L 287.6334 173.7251 L 280.3423 175.0987 L 270.0674 184.4859 L 267.8427 171.9267 L 264.2241 166.7052 L 256.8565 162.9337 L 250.6522 160.0771 L 244.0379 157.7399 L 229.3014 155.0873 L 274.8866 90.6927 L 337.3545 117.7118 Z "/>
  <path id="ID0.7927394988946617" fill="#0D0D0D" stroke="#0D0D0D" stroke-width="1.2400576652173554" stroke-linecap="round" d="M 151.2821 92.7683 L 131.4159 93.5506 L 117.9668 104.7251 L 95.2313 100.6026 L 77.7395 95.3354 L 67.9268 89.9183 L 2.5835 89.7544 L 12.1017 94.5817 L 22.8341 102.4873 L 29.1345 111.8692 L 38.0311 112.2167 L 42.4895 113.1223 L 49.1873 115.0836 L 55.3709 117.8913 L 62.3472 121.4454 L 66.6779 124.0361 L 71.7148 128.5587 L 74.6713 131.762 L 77.9038 138.3647 L 79.5545 143.5465 L 80.4366 149.2595 L 76.2854 161.6497 L 88.1806 155.7096 L 98.1334 153.0609 L 105.0821 152.3545 L 110.7038 152.9372 L 117.6247 153.7923 L 121.756 156.372 L 123.0957 162.225 L 121.7068 179.4998 L 135.4909 168.9318 L 144.0838 164.5303 L 150.3158 161.4182 L 156.3982 159.8179 L 164.0046 158.7462 L 168.8408 158.7263 L 176.1122 159.7011 L 182.7374 160.7407 L 189.3226 164.1585 L 196.4539 176.11 L 202.206 164.7259 L 207.1766 160.7699 L 215.3188 159.2833 L 222.0833 158.3372 L 229.0907 158.0069 L 243.966 159.7168 L 218.888 84.9119 L 151.2821 92.7683 Z "/>
  <g id="ID0.9602425838820636">
    <g id="ID0.17693647183477879">
      <path id="ID0.7729651997797191" fill="#393C40" stroke="none" stroke-linecap="round" d="M 286.0401 91.8688 L 278.9107 109.8155 L 295.0294 113.5065 L 307.9971 116.5795 L 314.5038 115.5459 L 318.9062 113.9552 L 321.0369 101.6208 L 316.504 97.9887 L 296.997 94.6436 L 286.0401 91.8688 Z " stroke-width="0.7788098566524262"/>
      <path id="ID0.9716172609478235" fill="#34373A" stroke="none" stroke-linecap="round" d="M 289.3943 97.8298 L 289.3343 92.6401 L 282.933 91.6155 L 284.0294 111.0986 L 287.8621 109.7138 L 291.7166 105.7154 L 289.3943 97.8298 Z " stroke-width="0.7788098566524262"/>
      <g id="ID0.38066427363082767">
        <path id="ID0.4757494777441025" fill="#1D1E1F" stroke="none" stroke-linecap="round" d="M 260.7296 89.846 L 255.407 96.3792 L 253.1591 112.1311 L 278.4851 115.3589 L 286.9982 108.4412 L 289.756 104.969 L 289.0023 101.229 L 287.5898 97.5562 L 287.6432 91.561 L 282.9629 89.2398 L 275.6834 86.5771 L 267.1856 85.9767 L 260.7296 89.846 Z " stroke-width="0.4541860174070635"/>
        <path id="ID0.6007084371522069" fill="none" stroke="#0D0D0D" stroke-width="0.908372034814127" stroke-linecap="round" d="M 287.7587 92.1169 L 287.6381 97.4534 L 289.0885 102.6491 L 289.8588 105.0173 L 286.9982 108.4412 L 283.2607 111.3283 "/>
      </g>
    </g>
    <g id="ID0.7397577832452953">
      <path id="ID0.6726378230378032" fill="#34373A" stroke="none" stroke-linecap="round" d="M 313.6882 97.4098 L 314.9483 115.0772 L 317.2533 115.2983 L 315.6868 97.9173 L 313.6882 97.4098 Z " stroke-width="0.7788098566524262"/>
      <path id="ID0.6507829907350242" fill="#1D1E1F" stroke="none" stroke-linecap="round" d="M 315.9927 94.953 L 317.1152 115.4807 L 333.6735 122.819 L 343.6664 125.3566 L 357.5915 131.8897 L 362.984 135.0648 L 369.6258 125.492 L 364.0679 122.6694 L 356.3514 117.1135 L 346.7568 109.6012 L 339.2165 104.1281 L 315.9927 94.953 Z " stroke-width="0.7788098566524262"/>
      <path id="ID0.6829322893172503" fill="#1D1E1F" stroke="none" stroke-linecap="round" d="M 369.4386 124.974 L 360.8144 131.8962 L 364.2505 136.9493 L 367.7083 142.8729 L 372.6438 145.1884 L 376.946 146.5617 L 380.417 146.0394 L 386.8127 147.5346 L 388.5385 143.3977 L 387.272 141.5132 L 387.7573 140.0203 L 386.789 136.125 L 385.5508 131.888 L 382.4999 128.306 L 375.9997 126.1166 L 369.4386 124.974 Z " stroke-width="0.7788098566524262"/>
      <path id="ID0.47767175547778606" fill="none" stroke="#0D0D0D" stroke-width="1.5576197133048524" stroke-linecap="round" d="M 319.4123 96.5573 L 315.7711 95.1501 L 317.1483 115.4102 L 329.3726 120.8012 "/>
      <path id="ID0.5922487881034613" fill="#282A2B" stroke="none" stroke-linecap="round" d="M 345.8652 107.8887 L 338.1389 111.7051 L 335.7284 117.0262 L 338.3615 124.7995 L 351.8784 129.6356 L 360.3023 128.6413 L 361.7082 125.6447 L 357.8434 117.3796 L 345.8652 107.8887 Z " stroke-width="0.7788098566524262"/>
      <path id="ID0.36820242274552584" fill="#151616" stroke="none" stroke-linecap="round" d="M 345.5924 114.3492 L 342.0817 121.6488 L 353.1148 123.9862 L 353.6562 122.6488 L 345.5924 114.3492 Z " stroke-width="0.7788098566524262"/>
      <path id="ID0.13569410238415003" fill="none" stroke="#232425" stroke-width="1.5576197133048524" stroke-linecap="round" d="M 355.4221 118.269 L 359.3112 126.1155 L 350.8485 127.6508 "/>
      <path id="ID0.024502143263816833" fill="none" stroke="#0D0D0D" stroke-width="1.5576197133048524" stroke-linecap="round" d="M 345.3623 108.1728 L 338.2158 111.4869 L 335.5564 116.6052 L 338.1564 124.449 L 345.9235 127.1467 "/>
    </g>
  </g>
  <path id="ID0.3809091211296618" fill="#393D40" stroke="none" stroke-linecap="round" d="M 240.5318 187.0426 L 260.4204 166.5749 L 276.8734 201.7068 L 279.7989 212.2545 L 281.0862 230.8214 L 273.9196 236.298 L 262.2305 242.0264 L 255.0327 222.4906 L 252.7785 211.2572 L 240.5318 187.0426 Z " stroke-width="0.7305889714181204"/>
  <g id="ID0.8669879510998726">
    <path id="ID0.5368814701214433" fill="#292D2E" stroke="none" stroke-linecap="round" d="M 245.9717 316.8574 L 249.9603 308.4685 L 255.5947 299.8715 L 264.74 306.9569 L 274.9373 315.9699 L 290.9337 328.46 L 291.1702 335.0599 L 266.5248 333.0714 L 245.923 326.7188 L 245.9717 316.8574 Z " stroke-width="0.7702165535018164"/>
    <path id="ID0.05466862628236413" fill="#292D2E" stroke="none" stroke-linecap="round" d="M 260.1945 228.7027 L 286.9247 227.9976 L 279.8573 246.1435 L 277.6991 250.9632 L 274.9725 268.8997 L 267.0004 308.8648 L 251.2139 308.882 L 251.6542 286.6372 L 249.9623 277.741 L 249.7526 268.2239 L 253.4128 255.0558 L 254.8688 242.8209 L 260.1945 228.7027 Z " stroke-width="0.7305889802345722"/>
    <path id="ID0.4490455654449761" fill="none" stroke="#272A2B" stroke-width="1.6585523629670877" stroke-linecap="round" d="M 259.8971 228.8892 L 286.6628 227.7993 L 277.0401 251.2356 "/>
    <path id="ID0.10446935473009944" fill="none" stroke="#242728" stroke-width="1.6585523629670877" stroke-linecap="round" d="M 275.2465 263.4415 L 273.0936 280.1416 L 261.7529 286.1813 "/>
    <path id="ID0.42170455446466804" fill="none" stroke="#242728" stroke-width="1.6585523629670877" stroke-linecap="round" d="M 271.8611 281.1672 L 268.6348 295.9522 L 257.0527 302.1582 "/>
    <path id="ID0.047098892275244" fill="none" stroke="#242728" stroke-width="1.6585523629670877" stroke-linecap="round" d="M 255.1651 242.6464 L 254.2315 246.4743 L 257.6503 255.7987 "/>
  </g>
  <path id="ID0.3809091211296618" fill="#3E4246" stroke="none" stroke-linecap="round" d="M 210.692 163.1259 L 236.444 170.4564 L 248.773 207.2388 L 250.4734 218.0518 L 249.6298 236.6442 L 241.8841 241.2656 L 229.6168 245.6202 L 223.7638 224.6496 L 218.8908 212.15 L 210.692 163.1259 Z " stroke-width="0.7305889569749423"/>
  <g id="ID0.38464318960905075">
    <path id="ID0.5368814701214433" fill="#303436" stroke="none" stroke-linecap="round" d="M 205.1405 315.0082 L 209.8006 306.9729 L 216.1178 298.8643 L 224.6543 306.6726 L 234.082 316.4877 L 249.0056 330.2417 L 248.7026 336.839 L 224.3018 332.8456 L 204.2871 324.8327 L 205.1405 315.0082 Z " stroke-width="0.7702165408800234"/>
    <path id="ID0.05466862628236413" fill="#303436" stroke="none" stroke-linecap="round" d="M 226.6167 227.7512 L 253.3152 229.2301 L 244.7904 246.7386 L 242.246 251.3661 L 238.0647 269.0202 L 226.8573 308.2013 L 211.1221 306.9301 L 213.3765 284.7953 L 212.4162 275.7908 L 212.984 266.2883 L 217.7068 253.4629 L 220.1565 241.3877 L 226.6167 227.7512 Z " stroke-width="0.730588969250632"/>
    <path id="ID0.4490455654449761" fill="none" stroke="#272A2B" stroke-width="1.6585523236336421" stroke-linecap="round" d="M 226.2662 228.5653 L 253.0315 229.6635 L 241.5282 252.2363 "/>
    <path id="ID0.10446935473009944" fill="none" stroke="#242728" stroke-width="1.6585523236336421" stroke-linecap="round" d="M 238.7443 264.2551 L 235.2356 280.7237 L 223.4398 285.8177 "/>
    <path id="ID0.42170455446466804" fill="none" stroke="#242728" stroke-width="1.6585523236336421" stroke-linecap="round" d="M 233.9235 281.6453 L 229.5013 296.1177 L 217.4513 301.3577 "/>
    <path id="ID0.047098892275244" fill="none" stroke="#242728" stroke-width="1.6585523236336421" stroke-linecap="round" d="M 220.4001 241.8299 L 219.1572 245.5689 L 221.8036 255.1412 "/>
  </g>
  <g id="ID0.9602425838820636">
    <g id="ID0.17693647183477879">
      <path id="ID0.7729651997797191" fill="#3E4246" stroke="none" stroke-linecap="round" d="M 207.0044 78.322 L 210.5578 98.2521 L 193.2272 98.6579 L 179.2629 99.0907 L 172.7969 96.6626 L 168.6094 94.1042 L 169.0114 80.9881 L 174.4299 78.2096 L 195.1679 78.8708 L 207.0044 78.322 Z " stroke-width="0.816459556978026"/>
      <path id="ID0.9716172609478235" fill="#393C40" stroke="none" stroke-linecap="round" d="M 202.3074 83.74 L 203.459 78.4223 L 210.2489 78.7143 L 205.0309 98.495 L 201.3853 96.2677 L 198.2661 91.3515 L 202.3074 83.74 Z " stroke-width="0.816459556978026"/>
      <g id="ID0.38066427363082767">
        <path id="ID0.4757494777441025" fill="#1D1E1F" stroke="none" stroke-linecap="round" d="M 233.4668 81.5758 L 237.5616 89.4039 L 236.5621 106.0546 L 209.8722 104.0509 L 202.5812 95.1579 L 200.4779 91.0124 L 202.0376 87.3294 L 204.2597 83.8537 L 205.4639 77.6849 L 210.7586 76.2838 L 218.7945 75.0778 L 227.6486 76.2458 L 233.4668 81.5758 Z " stroke-width="0.4761425511813004"/>
        <path id="ID0.6007084371522069" fill="none" stroke="#0D0D0D" stroke-width="0.9522851023626008" stroke-linecap="round" d="M 205.2286 78.2316 L 204.2317 83.738 L 201.6507 88.7698 L 200.3622 91.0404 L 202.5812 95.1579 L 205.8136 98.9081 "/>
      </g>
    </g>
    <g id="ID0.7397577832452953">
      <path id="ID0.6726378230378032" fill="#393C40" stroke="none" stroke-linecap="round" d="M 177.5014 78.134 L 172.4967 96.0154 L 170.0828 95.7584 L 175.3421 78.2356 L 177.5014 78.134 Z " stroke-width="0.816459556978026"/>
      <path id="ID0.6507829907350242" fill="#1D1E1F" stroke="none" stroke-linecap="round" d="M 175.5927 75.199 L 170.1285 96.0471 L 151.5805 100.1067 L 140.784 100.6143 L 125.1095 104.3998 L 118.9041 106.5284 L 114.0929 95.3013 L 120.3941 93.5696 L 129.4865 89.4838 L 140.9187 83.7831 L 149.8128 79.7452 L 175.5927 75.199 Z " stroke-width="0.816459556978026"/>
      <path id="ID0.6829322893172503" fill="#1D1E1F" stroke="none" stroke-linecap="round" d="M 114.3939 94.8087 L 121.7979 103.7297 L 117.2075 108.198 L 112.412 113.5559 L 106.8565 114.8976 L 102.1493 115.4044 L 98.6939 114.1391 L 91.811 114.3315 L 90.9073 109.7201 L 92.6039 108.0505 L 92.4189 106.4153 L 94.2316 102.6178 L 96.3931 98.5261 L 100.279 95.4878 L 107.415 94.6043 L 114.3939 94.8087 Z " stroke-width="0.816459556978026"/>
      <path id="ID0.47767175547778606" fill="none" stroke="#0D0D0D" stroke-width="1.632919113956052" stroke-linecap="round" d="M 171.7435 76.1287 L 175.7788 75.4481 L 170.1093 95.9678 L 156.4217 98.9375 "/>
      <path id="ID0.5922487881034613" fill="#282A2B" stroke="none" stroke-linecap="round" d="M 142.3041 82.2123 L 149.4382 87.7548 L 150.7964 93.7263 L 146.4595 101.1572 L 131.5607 103.2855 L 123.1174 100.495 L 122.3028 97.122 L 128.0081 89.4446 L 142.3041 82.2123 Z " stroke-width="0.816459556978026"/>
      <path id="ID0.36820242274552584" fill="#151616" stroke="none" stroke-linecap="round" d="M 141.0866 88.9714 L 143.1593 97.2061 L 131.3365 97.2897 L 131.0612 95.8022 L 141.0866 88.9714 Z " stroke-width="0.816459556978026"/>
      <path id="ID0.13569410238415003" fill="none" stroke="#232425" stroke-width="1.632919113956052" stroke-linecap="round" d="M 130.1983 90.8658 L 124.5559 98.108 L 132.9254 101.4623 "/>
      <path id="ID0.024502143263816833" fill="none" stroke="#0D0D0D" stroke-width="1.632919113956052" stroke-linecap="round" d="M 142.651 82.6088 L 149.2951 87.5137 L 150.9516 93.3291 L 146.6338 100.8394 L 138.0898 101.9789 "/>
    </g>
  </g>
  <g id="ID0.9157347986474633">
    <path id="ID0.7477802094072104" fill="#363A3D" stroke="none" stroke-linecap="round" d="M 272.611 134.1223 L 253.8364 127.8673 L 247.0893 168.4972 L 262.0667 180.0343 L 268.3383 156.2186 L 272.611 134.1223 Z " stroke-width="0.4761425839687243"/>
    <path id="ID0.7477802094072104" fill="#363A3D" stroke="none" stroke-linecap="round" d="M 213.0461 124.2344 L 236.6473 125.2576 L 229.9002 165.8876 L 211.9979 171.9646 L 210.7107 146.2904 L 213.0461 124.2344 Z " stroke-width="0.4761425839687243"/>
    <path id="ID0.4270821204409003" fill="#3E4246" stroke="none" stroke-linecap="round" d="M 216.6623 104.4905 L 222.4675 92.7846 L 225.6541 87.4012 L 233.2631 81.5454 L 263.6777 88.0441 L 269.7865 93.4025 L 271.9418 97.8631 L 276.998 110.2866 L 274.5774 120.5032 L 272.741 125.7489 L 273.2539 132.8327 L 272.8266 138.3124 L 269.5819 144.7722 L 267.1269 149.6738 L 264.4316 158.6381 L 262.3232 180.4905 L 255.9048 187.7506 L 250.1663 193.0964 L 237.323 196.466 L 226.3808 191.584 L 223.6055 184.3176 L 219.7735 177.1653 L 211.8492 172.712 L 214.8755 147.5128 L 214.7932 140.7418 L 212.156 128.72 L 212.6388 117.8196 L 216.6623 104.4905 Z " stroke-width="0.4761425839687243"/>
    <path id="ID0.052435632329434156" fill="#393C40" stroke="none" stroke-linecap="round" d="M 220.4851 155.6931 L 224.8691 156.4694 L 230.8364 160.7907 L 235.8661 161.457 L 241.3745 164.1817 L 245.6835 163.8113 L 247.4055 163.6146 L 261.984 162.5845 L 261.7981 165.884 L 252.6608 168.5899 L 246.8401 167.3096 L 240.8218 169.3992 L 234.8231 164.8314 L 228.4118 164.2011 L 219.2893 158.8249 L 220.4851 155.6931 Z " stroke-width="0.4761425839687243"/>
    <path id="ID0.4987568911164999" fill="none" stroke="#27282B" stroke-width="0.9522851679374486" stroke-linecap="round" d="M 232.9489 82.1799 L 225.5938 87.2331 L 220.6678 96.551 "/>
    <path id="ID0.2889464790932834" fill="none" stroke="#27282B" stroke-width="0.9522851679374486" stroke-linecap="round" d="M 264.89 88.9321 L 269.9026 93.6258 L 274.0181 103.7211 "/>
    <path id="ID0.8373676878400147" fill="#000000" stroke="#2C2F31" stroke-width="0.6155104059455094" stroke-linecap="round" d="M 234.3949 95.6234 L 234.9853 94.1694 L 231.2458 94.4751 L 225.9119 96.9833 L 221.0169 101.2982 L 217.6838 106.459 L 223.1185 105.0665 L 227.772 105.7183 L 230.3344 107.0681 L 232.3569 110.4297 L 234.5991 109.7604 L 238.6013 110.1314 L 242.8876 111.888 L 246.1661 115.6456 L 247.7207 118.9965 L 250.3373 116.3621 L 254.4944 113.8647 L 258.7881 113.1163 L 263.8807 113.9301 L 265.5938 114.8047 L 267.7714 112.0084 L 269.9057 111.0836 L 272.389 112.0267 L 274.8974 114.0711 L 274.0914 110.0797 L 272.4686 105.8544 L 270.1438 102.4351 L 267.3727 99.7141 L 263.0576 98.1086 L 264.9037 100.3401 L 264.5725 102.0784 L 262.6577 103.9066 L 258.9362 104.529 L 255.7655 104.3165 L 253.167 103.978 L 251.2598 100.0117 L 250.493 101.9803 L 249.057 101.7067 L 247.9163 99.0614 L 246.2929 103.0598 L 242.244 102.5233 L 238.3211 100.9142 L 235.2405 98.9957 L 234.3949 95.6234 Z "/>
    <path id="ID0.5698574706912041" fill="none" stroke="#313537" stroke-width="0.9522851679374486" stroke-linecap="round" d="M 220.442 155.517 L 219.3283 158.59 L 228.3923 164.3185 L 235.1442 165.0777 L 240.6065 169.2428 "/>
    <path id="ID0.5698574706912041" fill="none" stroke="#313537" stroke-width="0.8933066562151265" stroke-linecap="round" d="M 261.7304 162.6221 L 261.7157 165.8776 L 252.5368 168.5766 L 246.7604 167.2554 L 241.0131 169.559 "/>
    <path id="ID0.8947288258932531" fill="#393C40" stroke="none" stroke-linecap="round" d="M 223.6915 143.9418 L 230.6392 144.9749 L 237.7721 148.09 L 242.4569 154.4669 L 236.1758 148.9833 L 225.8061 145.7409 L 220.2614 147.8851 L 223.6915 143.9418 Z " stroke-width="0.4761425839687243"/>
    <path id="ID0.8947288258932531" fill="#393C40" stroke="none" stroke-linecap="round" d="M 261.7617 151.2898 L 255.6476 150.1677 L 248.783 150.7363 L 243.0356 154.7368 L 249.8643 151.941 L 259.4762 152.1917 L 263.5064 155.5733 L 261.7617 151.2898 Z " stroke-width="0.42137391058675056"/>
    <path id="ID0.9897695370018482" fill="#393C40" stroke="none" stroke-linecap="round" d="M 225.0884 156.6023 L 218.7079 155.0601 L 219.8911 150.5506 L 220.4921 154.198 L 225.4946 155.1735 L 230.9805 159.6321 L 236.4407 160.1768 L 240.2462 162.2568 L 242.8954 154.7327 L 241.5234 164.4478 L 236.3319 161.5585 L 230.531 160.5952 L 225.0884 156.6023 Z " stroke-width="0.4761425839687243"/>
    <path id="ID0.9897695370018482" fill="#393C40" stroke="none" stroke-linecap="round" d="M 256.9162 162.1362 L 262.4506 162.6063 L 262.8004 158.2877 L 261.2741 161.3336 L 257.002 160.7589 L 251.3445 163.1187 L 246.8308 162.0325 L 243.197 162.7757 L 243.242 155.3765 L 241.549 164.3425 L 246.5211 163.2829 L 251.4269 164.0975 L 256.9162 162.1362 Z " stroke-width="0.4232251200282832"/>
    <path id="ID0.3524594851769507" fill="#393C40" stroke="none" stroke-linecap="round" d="M 241.0583 124.0765 L 246.5239 127.2043 L 251.2979 125.6321 L 247.5503 128.871 L 246.6645 140.0183 L 255.7529 140.6587 L 244.8812 142.4733 L 234.1416 135.9356 L 243.3687 139.5192 L 244.8181 128.3208 L 241.0583 124.0765 Z " stroke-width="0.4761425839687243"/>
    <path id="ID0.9214867809787393" fill="#393C40" stroke="none" stroke-linecap="round" d="M 224.3272 140.1136 L 227.9532 136.4442 L 232.8063 136.2848 L 226.2724 140.0264 L 225.5578 142.8761 L 230.5289 143.7499 L 238.0579 148.2581 L 229.5159 144.909 L 223.7385 143.9496 L 224.3272 140.1136 Z " stroke-width="0.4761425839687243"/>
    <path id="ID0.9214867809787393" fill="#393C40" stroke="none" stroke-linecap="round" d="M 262.0975 147.1749 L 260.0695 142.7617 L 255.9196 141.1513 L 260.4412 146.5084 L 260.1984 149.3008 L 255.6342 148.589 L 248.6133 150.3019 L 256.1603 149.943 L 261.4478 150.8211 L 262.0975 147.1749 Z " stroke-width="0.4451788576535537"/>
    <path id="ID0.8679121839813888" fill="#2C2F31" stroke="none" stroke-linecap="round" d="M 243.1665 123.3081 L 246.659 125.5291 L 250.2161 124.4547 L 250.9995 125.5501 L 246.6876 127.5369 L 241.3707 124.3855 L 243.1665 123.3081 Z " stroke-width="0.4761425839687243"/>
    <path id="ID0.24770551454275846" fill="none" stroke="#313537" stroke-width="0.9522851679374486" stroke-linecap="round" d="M 247.4321 122.1161 L 251.4267 126.3994 L 258.7467 128.0977 L 266.4375 128.2888 L 272.2284 125.3892 "/>
    <path id="ID0.20603158557787538" fill="none" stroke="#313537" stroke-width="0.9522851679374486" stroke-linecap="round" d="M 215.2175 112.6598 L 221.2682 119.0946 L 232.9541 124.2931 L 240.2147 124.8955 L 246.9644 122.0344 "/>
    <g id="ID0.5272086253389716">
      <path id="ID0.24770551454275846" fill="none" stroke="#363A3D" stroke-width="0.9522851066969494" stroke-linecap="round" d="M 213.2397 145.2903 L 223.5284 143.7891 "/>
      <path id="ID0.24770551454275846" fill="none" stroke="#363A3D" stroke-width="0.9522851066969494" stroke-linecap="round" d="M 212.6599 133.1226 L 233.8284 130.3391 "/>
    </g>
    <g id="ID0.5272086253389716">
      <path id="ID0.24770551454275846" fill="none" stroke="#363A3D" stroke-width="0.9522850816809121" stroke-linecap="round" d="M 268.1664 153.4277 L 261.6218 150.4835 "/>
      <path id="ID0.24770551454275846" fill="none" stroke="#363A3D" stroke-width="0.9522850816809121" stroke-linecap="round" d="M 270.5149 142.2468 L 257.6074 135.2772 "/>
    </g>
    <g id="ID0.7887678607366979">
      <path id="ID0.753661650698632" fill="none" stroke="#313537" stroke-width="0.9522851066969494" stroke-linecap="round" d="M 241.5085 124.2719 L 246.2853 127.4784 L 250.7068 125.558 "/>
      <g id="ID0.8167418288066983">
        <path id="ID0.9553722990676761" fill="none" stroke="#313537" stroke-width="1.0409107773624173" stroke-linecap="round" d="M 244.4508 142.221 L 239.2648 139.1878 L 233.4861 136.2976 L 228.6237 136.4554 L 224.4611 140.1082 L 223.8956 143.5136 "/>
        <path id="ID0.5982440118677914" fill="none" stroke="#313537" stroke-width="0.8540413552749858" stroke-linecap="round" d="M 233.8712 135.9374 L 233.5641 130.5207 L 239.8871 124.4163 "/>
      </g>
      <g id="ID0.7324484633281827">
        <path id="ID0.04993448918685317" fill="none" stroke="#313537" stroke-width="0.9522851066969494" stroke-linecap="round" d="M 246.3048 127.361 L 245.2933 137.8116 L 243.072 154.0946 L 240.6353 170.2212 "/>
        <g id="ID0.8167418288066983">
          <path id="ID0.9553722990676761" fill="none" stroke="#313537" stroke-width="0.9699703335790443" stroke-linecap="round" d="M 244.7793 142.1442 L 249.969 141.6305 L 255.638 140.6412 L 259.6215 142.268 L 261.9633 147.0009 L 261.3978 150.4063 "/>
          <path id="ID0.5982440118677914" fill="none" stroke="#313537" stroke-width="0.7916616451019644" stroke-linecap="round" d="M 255.4554 140.2953 L 257.3554 135.2451 L 253.9671 127.528 "/>
          <path id="ID0.3567589442245662" fill="none" stroke="#313537" stroke-width="0.8967655480907116" stroke-linecap="round" d="M 242.8348 154.713 L 248.7108 150.6449 L 256.2525 149.9667 L 261.7058 150.8723 L 263.1556 155.819 L 262.2943 162.7952 L 256.7033 162.5908 L 250.619 164.7177 L 245.8038 163.6767 L 241.3515 164.7957 L 235.9979 161.3726 L 230.4436 160.6916 L 224.6091 156.5854 L 218.5085 154.8484 L 219.9895 147.975 L 223.2701 143.8138 L 229.467 144.8429 L 237.3763 148.087 L 242.3037 153.9491 Z "/>
        </g>
      </g>
    </g>
    <g id="ID0.9312638868577778">
      <path id="ID0.2888958193361759" fill="#393C40" stroke="none" stroke-linecap="round" d="M 221.6431 164.1172 L 231.3807 167.8471 L 230.3162 170.6261 L 220.5786 166.8962 L 221.6431 164.1172 Z " stroke-width="0.4761425490144655"/>
      <path id="ID0.2888958193361759" fill="#393C40" stroke="none" stroke-linecap="round" d="M 211.3629 160.3377 L 222.2807 164.6471 L 221.2162 167.4261 L 211.4786 163.6962 L 211.3629 160.3377 Z " stroke-width="0.4761425490144655"/>
      <g id="ID0.36424446757882833">
        <path id="ID0.7359844641759992" fill="#8A7B59" stroke="none" d="M 224.5751 163.8518 L 226.0781 164.1015 L 225.0563 170.2547 L 223.5533 170.0051 L 224.5751 163.8518 Z " stroke-width="0.4761425533484747"/>
        <path id="ID0.7359844641759992" fill="#8A7B59" stroke="none" d="M 222.7751 163.1518 L 224.2781 163.4015 L 223.2563 169.5547 L 221.7533 169.3051 L 222.7751 163.1518 Z " stroke-width="0.4761425533484747"/>
        <path id="ID0.7359844641759992" fill="#8A7B59" stroke="none" d="M 220.9751 162.1518 L 222.4781 162.4015 L 221.4563 168.5547 L 219.9533 168.3051 L 220.9751 162.1518 Z " stroke-width="0.4761425533484747"/>
        <path id="ID0.7359844641759992" fill="#8A7B59" stroke="none" d="M 226.3751 164.6518 L 227.8781 164.9015 L 226.8563 171.0547 L 225.3533 170.8051 L 226.3751 164.6518 Z " stroke-width="0.4761425533484747"/>
      </g>
      <g id="ID0.1049797898158431">
        <path id="ID0.08871637750416994" fill="#8A7B59" stroke="none" stroke-linecap="round" d="M 213.186 159.9027 L 219.332 161.9852 L 218.3685 167.4964 L 212.4613 165.4295 L 213.186 159.9027 Z " stroke-width="0.4761425533484747"/>
        <path id="ID0.13805592898279428" fill="#76694C" stroke="none" stroke-linecap="round" d="M 213.0285 159.6035 L 219.4798 161.7367 L 219.1018 164.594 L 212.6426 162.363 L 213.0285 159.6035 Z " stroke-width="0.4761425533484747"/>
        <path id="ID0.3221200187690556" fill="#61563F" stroke="none" stroke-linecap="round" d="M 215.4699 162.2587 L 216.2773 162.7595 L 216.066 164.5055 L 215.1778 164.0175 L 215.4699 162.2587 Z " stroke-width="0.5167888696955751"/>
        <path id="ID0.1420820001512766" fill="#BAA578" stroke="none" stroke-linecap="round" d="M 217.8427 166.4586 L 218.7813 165.1665 L 218.4499 167.4524 L 212.437 165.4403 L 217.8427 166.4586 Z " stroke-width="0.4761425533484747"/>
      </g>
      <path id="ID0.2888958193361759" fill="#393C40" stroke="none" stroke-linecap="round" d="M 258.7114 170.6116 L 251.0912 171.1841 L 251.102 173.7571 L 258.7222 173.1846 L 258.7114 170.6116 Z " stroke-width="0.38104699061083686"/>
      <path id="ID0.2888958193361759" fill="#393C40" stroke="none" stroke-linecap="round" d="M 265.4603 169.9152 L 258.2412 170.6841 L 258.252 173.2571 L 264.5671 172.7209 L 265.4603 169.9152 Z " stroke-width="0.38104699061083686"/>
      <path id="ID0.7359844641759992" fill="#8A7B59" stroke="none" d="M 256.8604 169.2896 L 255.7683 169.1083 L 254.8795 174.4609 L 255.9716 174.6423 L 256.8604 169.2896 Z " stroke-width="0.38160280584417416"/>
      <path id="ID0.7359844641759992" fill="#8A7B59" stroke="none" d="M 258.3104 169.0396 L 257.2183 168.8583 L 256.3295 174.2109 L 257.4216 174.3923 L 258.3104 169.0396 Z " stroke-width="0.38160280584417416"/>
      <path id="ID0.7359844641759992" fill="#8A7B59" stroke="none" d="M 259.8604 168.7896 L 258.7683 168.6083 L 257.8795 173.9609 L 258.9716 174.1423 L 259.8604 168.7896 Z " stroke-width="0.38160280584417416"/>
      <path id="ID0.7359844641759992" fill="#8A7B59" stroke="none" d="M 255.3604 169.5896 L 254.2683 169.4083 L 253.3795 174.7609 L 254.4716 174.9423 L 255.3604 169.5896 Z " stroke-width="0.38160280584417416"/>
      <g id="ID0.1049797898158431">
        <path id="ID0.08871637750416994" fill="#8A7B59" stroke="none" stroke-linecap="round" d="M 265.838 168.9328 L 260.8023 169.078 L 259.9915 174.1851 L 264.8495 173.9881 L 265.838 168.9328 Z " stroke-width="0.4054529774502679"/>
        <path id="ID0.13805592898279428" fill="#76694C" stroke="none" stroke-linecap="round" d="M 266.0889 168.7473 L 260.8176 168.8534 L 260.3089 171.4679 L 265.6128 171.278 L 266.0889 168.7473 Z " stroke-width="0.4054529774502679"/>
        <path id="ID0.3221200187690556" fill="#61563F" stroke="none" stroke-linecap="round" d="M 263.7157 170.4082 L 262.9919 170.6269 L 262.6668 172.2192 L 263.4458 172.0338 L 263.7157 170.4082 Z " stroke-width="0.4400648170555984"/>
        <path id="ID0.1420820001512766" fill="#BAA578" stroke="none" stroke-linecap="round" d="M 260.6987 173.4455 L 260.3711 172.0528 L 259.9852 174.1524 L 264.9049 174.0325 L 260.6987 173.4455 Z " stroke-width="0.4054529774502679"/>
      </g>
      <g id="ID0.6836685389280319">
        <path id="ID0.09357938077300787" fill="#857656" stroke="none" d="M 232.3453 165.1053 L 250.0769 168.0498 L 249.0239 174.3909 L 231.2923 171.4464 L 232.3453 165.1053 Z " stroke-width="0.4283320793639229"/>
        <path id="ID0.6492703901603818" fill="#7C6E50" stroke="none" stroke-linecap="round" d="M 232.6915 167.3492 L 240.287 171.7478 L 249.5072 170.1416 L 248.809 174.3456 L 231.9934 171.5531 L 232.6915 167.3492 Z " stroke-width="0.4761425533484747"/>
        <g id="ID0.9254062357358634">
          <g id="ID0.49943465692922473">
            <path id="ID0.140373723115772" fill="#968561" stroke="none" d="M 248.789 166.6244 L 253.8384 167.4629 L 252.3564 176.3874 L 247.307 175.5489 L 248.789 166.6244 Z " stroke-width="0.4761425533484747"/>
            <path id="ID0.8286363878287375" fill="#BAA578" stroke="none" stroke-linecap="round" d="M 248.7935 166.4356 L 253.9213 167.5285 L 249.7101 167.6014 L 248.3492 169.5474 L 248.7935 166.4356 Z " stroke-width="0.4761425533484747"/>
            <path id="ID0.7362233307212591" fill="#8A7B59" stroke="none" stroke-linecap="round" d="M 247.8186 172.4518 L 250.4881 172.9434 L 253.305 170.9496 L 252.3885 176.4686 L 247.2921 175.6223 L 247.8186 172.4518 Z " stroke-width="0.4761425533484747"/>
          </g>
          <g id="ID0.49943465692922473">
            <path id="ID0.140373723115772" fill="#968561" stroke="none" d="M 233.8756 164.389 L 228.8262 163.5505 L 227.3442 172.475 L 232.3936 173.3135 L 233.8756 164.389 Z " stroke-width="0.4761425533484747"/>
            <path id="ID0.8286363878287375" fill="#BAA578" stroke="none" stroke-linecap="round" d="M 233.9665 164.2066 L 228.7607 163.5834 L 232.7223 165.0136 L 233.3812 167.295 L 233.9665 164.2066 Z " stroke-width="0.4761425533484747"/>
            <path id="ID0.7362233307212591" fill="#8A7B59" stroke="none" stroke-linecap="round" d="M 232.9446 170.215 L 230.2594 169.8174 L 228.2382 167.0201 L 227.3217 172.5392 L 232.4181 173.3855 L 232.9446 170.215 Z " stroke-width="0.4761425533484747"/>
          </g>
        </g>
      </g>
    </g>
  </g>
  <g id="ID0.8333355090580881">
    <path id="ID0.9286923445761204" fill="#27282B" stroke="none" stroke-linecap="round" d="M 244.2494 48.9176 L 262.6514 53.0735 L 259.6325 77.2451 L 273.6883 86.497 L 249.442 94.4606 L 214.9554 76.7899 L 236.1473 69.1537 L 244.2494 48.9176 Z " stroke-width="0.47614259146178506"/>
    <path id="ID0.5448851804248989" fill="none" stroke="#1D1E1F" stroke-width="0.9522851829235701" stroke-linecap="round" d="M 238.3866 63.6566 L 236.3631 68.9925 L 252.1544 79.2173 L 259.3361 77.2984 "/>
    <path id="ID0.262191956397146" fill="none" stroke="#1D1E1F" stroke-width="0.9522851829235701" stroke-linecap="round" d="M 240.4101 68.9531 L 252.1049 76.9009 L 255.234 76.2233 "/>
  </g>
  <g id="ID0.3450673264451325">
    <g id="ID0.9831569031812251">
      <path id="ID0.0877610077150166" fill="#2E3034" stroke="none" stroke-linecap="round" d="M 278.5088 26.9009 L 277.9304 13.0223 L 269.6697 40.3287 L 277.0124 42.55 L 278.5088 26.9009 Z " stroke-width="0.5866066459857178"/>
      <path id="ID0.796130308881402" fill="#242628" stroke="none" stroke-linecap="round" d="M 278.7721 27.0548 L 277.8533 13.0732 L 277.2503 27.3481 L 273.8391 41.8698 L 276.9638 42.5068 L 278.7721 27.0548 Z " stroke-width="0.5866066459857178"/>
    </g>
    <g id="ID0.9831569031812251">
      <path id="ID0.0877610077150166" fill="#2E3034" stroke="none" stroke-linecap="round" d="M 255.5836 20.215 L 263.7581 8.9843 L 255.4974 36.2908 L 248.1547 34.0694 L 255.5836 20.215 Z " stroke-width="0.5866066459857178"/>
      <path id="ID0.796130308881402" fill="#242628" stroke="none" stroke-linecap="round" d="M 255.1907 20.1006 L 263.7056 8.9729 L 256.2948 21.1883 L 251.0335 34.8078 L 248.1307 33.9639 L 255.1907 20.1006 Z " stroke-width="0.5866066459857178"/>
    </g>
    <path id="ID0.8999492498114705" fill="#2E3034" stroke="none" stroke-linecap="round" d="M 270.6604 30.8495 C 274.7372 32.5833 278.4815 36.5477 279.3981 40.8817 C 280.4432 45.8294 276.9577 50.6241 275.7981 55.4924 C 275.4707 57.1731 275.7217 59.0802 274.9349 60.5391 C 273.3334 63.5062 270.8541 65.9207 268.8943 68.6637 C 267.61 70.4615 266.7803 72.6706 265.1104 74.1537 C 263.1986 75.9288 261.0059 78.5398 258.3857 78.2233 C 254.5013 77.7536 251.1326 74.8109 248.339 72.132 C 246.0443 69.9309 244.1449 67.0454 243.4408 63.9359 C 242.2317 58.195 241.4193 52.0358 242.754 46.2922 C 244.2338 39.9252 245.8322 31.9816 251.748 28.8435 C 257.1331 25.728 264.5992 28.2749 270.6604 30.8495 Z " stroke-width="0.5080372780427557"/>
    <path id="ID0.2441388238221407" fill="#AB8E85" stroke="none" d="M 261.3246 53.9675 C 265.1816 55.3088 271.304 53.8546 273.1172 57.2726 C 274.717 60.4633 270.0855 64.1411 268.1505 67.1849 C 266.2245 70.2117 264.4832 73.5909 261.515 75.6739 C 260.126 76.5789 257.9753 76.003 256.3978 75.2411 C 253.562 73.8676 251.0031 71.7525 249.0382 69.2872 C 247.0046 66.7367 244.1965 63.7669 244.5834 60.5146 C 245.074 56.3949 247.272 51.4233 251.0794 49.8841 C 254.5387 48.5807 257.8558 52.7607 261.3246 53.9675 Z " stroke-width="1.255840048995254"/>
    <path id="ID0.46721756737679243" fill="#A2887F" stroke="none" stroke-linecap="round" d="M 246.9656 50.8199 L 248.3717 51.9618 L 273.3792 59.1289 L 265.003 61.9028 L 249.6938 54.6972 L 250.0722 57.3063 L 248.6898 62.7532 L 250.0851 70.6857 L 247.6431 62.9673 L 246.9656 50.8199 Z " stroke-width="0.5080372780427557"/>
    <path id="ID0.8256730306893587" fill="none" stroke="#937B73" stroke-width="1.0160745560855113" stroke-linecap="round" d="M 253.9986 65.252 C 253.9986 65.252 256.7548 65.4627 258.1168 65.6751 C 258.4574 65.7282 258.7587 65.9006 259.0673 66.0423 C 259.3808 66.1865 259.6474 66.4423 259.981 66.531 C 260.6421 66.7071 261.3396 66.7122 262.0143 66.8276 C 262.3489 66.8848 262.6853 66.9468 263.0089 67.0489 C 263.3331 67.1512 263.6574 67.2706 263.952 67.4404 C 264.4366 67.7196 265.3367 68.39 265.3367 68.39 "/>
    <path id="ID0.7592270169407129" fill="none" stroke="#937B73" stroke-width="1.0160745560855113" stroke-linecap="round" d="M 261.8457 68.9931 C 261.8457 68.9931 261.1506 69.1432 260.8041 69.1026 C 260.4677 69.0635 260.1785 68.8248 259.8462 68.7598 C 259.5119 68.6947 259.1602 68.7731 258.8244 68.7161 C 258.4906 68.6597 258.1457 68.5893 257.8519 68.4219 C 257.602 68.2794 257.2402 67.8122 257.2402 67.8122 "/>
    <path id="ID0.5332203092984855" fill="none" stroke="#937B73" stroke-width="1.0160745560855113" stroke-linecap="round" d="M 258.8899 58.2488 C 258.8899 58.2488 258.1852 58.4868 257.9885 58.7722 C 257.729 59.1561 257.2408 59.891 257.5737 60.3187 C 258.0455 60.7645 258.982 60.2883 259.6291 60.5424 C 260.2545 60.7911 261.3785 61.6024 261.3785 61.6024 "/>
    <path id="ID0.2278452254831791" fill="none" stroke="#937B73" stroke-width="1.0160745560855113" stroke-linecap="round" d="M 264.1067 56.0054 C 264.1067 56.0054 264.4617 58.0586 264.6349 59.0844 C 264.6929 59.4279 264.7677 59.77 264.8004 60.1164 C 264.833 60.4628 264.9433 60.8316 264.8296 61.1603 C 264.7155 61.4899 264.4248 61.7385 264.1611 61.9665 C 263.9848 62.1191 263.535 62.2814 263.535 62.2814 "/>
    <path id="ID0.6473136460408568" fill="none" stroke="#937B73" stroke-width="1.0160745428296027" stroke-linecap="round" d="M 259.5132 72.2843 C 259.5132 72.2843 259.6326 72.9837 259.5815 73.3282 C 259.5313 73.6636 259.3733 73.9789 259.216 74.2793 C 258.9793 74.7322 258.4036 75.5811 258.4036 75.5811 "/>
    <path id="ID0.11669129692018032" fill="#2E3034" stroke="none" stroke-linecap="round" d="M 250.358 46.273 L 272.0901 54.7051 L 275.0865 58.3981 L 264.7297 60.1747 L 245.6496 51.7487 L 250.358 46.273 Z " stroke-width="0.5080372780427557"/>
    <path id="ID0.14635155349969864" fill="#2E3034" stroke="none" stroke-linecap="round" d="M 246.2825 50.5336 L 247.9471 51.4353 L 248.9679 57.1845 L 247.59 62.792 L 248.2373 66.9686 L 249.9866 71.1867 L 243.6169 63.8193 L 246.2825 50.5336 Z " stroke-width="0.5080372780427557"/>
    <path id="ID0.28340246016159654" fill="#1C1D1F" stroke="none" stroke-linecap="round" d="M 251.3933 43.2684 L 254.2303 45.7349 L 263.2259 49.3873 L 261.5603 54.8929 L 255.191 51.9786 L 251.8075 49.8265 L 250.3068 47.7925 L 249.9801 45.888 L 251.3933 43.2684 Z " stroke-width="0.5401026391431615"/>
    <path id="ID0.6101007834076881" fill="#FFFFFF" stroke="none" stroke-linecap="round" d="M 254.3238 46.8354 L 255.79 47.6967 L 259.0602 49.9409 L 259.0116 51.9826 L 254.4027 49.0704 L 254.3238 46.8354 Z " stroke-width="0.40610618689530803"/>
    <path id="ID0.28340246016159654" fill="#1C1D1F" stroke="none" stroke-linecap="round" d="M 275.926 50.7204 L 272.6012 51.1486 L 264.1193 49.413 L 262.6341 54.3225 L 268.8019 55.3078 L 272.3769 55.383 L 274.4961 54.6152 L 275.68 53.3631 L 275.926 50.7204 Z " stroke-width="0.48162497689092604"/>
    <path id="ID0.6101007834076881" fill="#FFFFFF" stroke="none" stroke-linecap="round" d="M 273.6971 52.1762 L 272.0794 52.2002 L 268.3195 52.5212 L 267.4008 54.2334 L 272.5821 53.9884 L 273.6971 52.1762 Z " stroke-width="0.38638675181693294"/>
    <g id="ID0.07940126257017255">
      <path id="ID0.46257128613069654" fill="#27282B" stroke="none" stroke-linecap="round" d="M 263.4833 49.3089 L 264.7576 60.0976 L 255.5215 55.9766 L 263.4833 49.3089 Z " stroke-width="0.5080372780427557"/>
      <path id="ID0.9845890481956303" fill="#27282B" stroke="none" stroke-linecap="round" d="M 264.2187 49.6699 L 270.0119 59.1187 L 264.8026 60.1967 L 264.2187 49.6699 Z " stroke-width="0.5080372780427557"/>
    </g>
    <path id="ID0.20071752788498998" fill="#202324" stroke="none" d="M 256.7271 42.5112 L 259.9474 46.1658 L 264.1557 48.6597 L 263.8241 50.019 L 256.7519 46.5526 L 251.7878 42.6093 L 253.956 41.4075 L 256.7271 42.5112 Z " stroke-width="0.5080372780427557"/>
    <path id="ID0.20071752788498998" fill="#202324" stroke="none" d="M 273.0984 47.1485 L 269.4677 48.6066 L 263.9966 48.5828 L 263.5585 49.7894 L 270.7217 50.7391 L 276.5062 50.3707 L 275.6818 47.7839 L 273.0984 47.1485 Z " stroke-width="0.46609798174230205"/>
    <path id="ID0.521138689480722" fill="none" stroke="#212325" stroke-width="0.9060627362210283" stroke-linecap="round" d="M 276.068 50.4674 L 272.5085 51.0471 L 263.974 49.7669 "/>
    <path id="ID0.17828734638169408" fill="none" stroke="#202324" stroke-width="1.0160745560855113" stroke-linecap="round" d="M 264.7942 59.6103 L 264.0944 51.8351 C 263.837 49.2296 263.8144 49.8167 263.914 48.8347 C 263.9488 48.4917 264.2548 48.2329 264.4027 47.921 C 264.5483 47.6136 264.7079 47.3069 264.7942 46.9779 C 264.8815 46.6455 264.8839 46.2954 264.9182 45.9538 C 264.9718 45.4207 265.0582 44.3508 265.0582 44.3508 "/>
    <path id="ID0.521138689480722" fill="none" stroke="#212325" stroke-width="1.0160745560855113" stroke-linecap="round" d="M 251.8227 42.8899 L 254.7847 45.6436 L 263.5464 49.7538 "/>
    <path id="ID0.8012696979567409" fill="none" stroke="url(#grad_1)" stroke-width="1.0160745560855113" stroke-linecap="round" d="M 273.5116 58.6913 L 265.2307 60.2731 L 248.1097 52.6522 L 248.8882 56.9216 L 247.4147 62.8451 L 248.2181 66.8566 L 249.938 71.172 "/>
    <path id="ID0.043594349175691605" fill="#D7E2FD" stroke="none" stroke-linecap="round" d="M 258.5179 50.852 L 259.0604 49.8483 L 258.9509 51.9649 L 256.6842 50.5095 L 258.5179 50.852 Z " stroke-width="0.5080372780427557"/>
    <path id="ID0.043594349175691605" fill="#D7E2FD" stroke="none" stroke-linecap="round" d="M 268.3272 53.6223 L 268.3637 52.5858 L 267.4756 54.2956 L 269.9225 54.1977 L 268.3272 53.6223 Z " stroke-width="0.46186426411256865"/>
  </g>
</svg>