<svg xmlns="http://www.w3.org/2000/svg" xmlns:xlink="http://www.w3.org/1999/xlink" version="1.1" width="274.372879943026" height="318.14000030435415" viewBox="0.6145366625125539 -0.5609082384769786 274.372879943026 318.14000030435415">
  <defs>
    <linearGradient id="grad_1" y2="1" x2="0">
      <stop offset="0" stop-color="#222325" stop-opacity="1"/>
      <stop offset="1" stop-color="#2E3034" stop-opacity="1"/>
    </linearGradient>
  </defs>
  <!-- Exported by Scratch - http://scratch.mit.edu/ -->
  <path id="ID0.7766774026677012" fill="#0D0D0D" stroke="#0D0D0D" stroke-width="1.9440164176354147" stroke-linecap="round" d="M 129.025 183.7019 C 132.2672 152.2865 137.0985 119.8368 129.9544 88.5143 C 127.2523 76.672 112.7364 69.5394 101.3013 63.9823 C 96.0816 61.4486 89.9707 65.383 84.3701 66.3606 C 82.7803 66.6343 81.5207 67.4706 80.1358 67.965 C 78.1993 68.4782 76.1892 68.7996 74.4133 69.3816 C 73.7844 69.5893 73.1519 69.7928 72.559 70.0982 C 71.8728 70.3443 71.3176 70.7496 70.6751 71.0487 C 69.3463 71.594 68.0117 72.186 66.6888 72.6845 C 65.3778 73.0894 64.029 73.3944 62.7616 73.8524 C 62.1309 74.058 61.4565 74.2105 60.9073 74.569 C 60.2588 74.9149 59.7793 75.5198 59.2124 76.0187 C 58.6572 76.4239 58.1021 76.8292 57.547 77.2344 C 56.9978 77.5929 56.2997 77.9326 55.8816 78.4502 C 55.4198 78.9148 55.232 79.6041 54.9012 80.2278 C 54.5764 80.8047 54.202 81.3754 53.9209 82.0054 C 53.3208 83.1655 52.7645 84.3787 52.2082 85.5918 C 51.8834 86.1688 51.5586 86.7457 51.2278 87.3694 C 50.903 87.9464 50.5782 88.5233 50.2475 89.147 C 49.9227 89.7239 49.5978 90.3009 49.2671 90.9246 C 48.9423 91.5015 48.5183 92.0659 48.2868 92.7022 C 48.0115 93.2854 47.9348 93.8936 47.8025 94.5424 C 47.6265 95.1381 47.4505 95.7338 47.3182 96.3826 C 47.1422 96.9783 47.0158 97.5803 46.8339 98.2228 C 46.6083 98.8122 46.2834 99.3892 46.1015 100.0317 C 45.4247 101.8 44.7857 103.6683 44.1526 105.4897 C 43.927 106.0791 43.6022 106.6561 43.4203 107.2986 C 43.1947 107.888 43.0683 108.49 42.936 109.1388 C 42.76 109.7345 42.5344 110.3239 42.4517 110.979 C 42.3253 111.581 42.2981 112.1955 42.2154 112.8505 C 42.0618 114.067 41.8031 115.3177 41.7429 116.5935 C 41.6661 117.2018 41.8291 117.5075 41.7546 118.4964 C 41.3258 122.2924 40.7919 126.1228 40.3075 129.9594 C 39.8409 133.6557 39.3625 137.4455 38.8899 141.1885 C 38.6596 143.0132 38.467 144.9378 38.1811 146.8031 C 38.0548 147.405 37.8788 148.0008 37.6968 148.6433 C 37.2716 150.0156 36.7531 151.3286 36.4212 152.7603 C 36.2452 153.356 36.2676 153.9767 36.1849 154.6318 C 36.0585 155.2337 35.8329 155.8232 35.7006 156.472 C 35.3486 157.6634 34.9411 158.8954 34.732 160.1524 C 34.4792 161.3563 34.419 162.6321 34.2595 163.8954 C 33.7929 167.5917 33.3144 171.3815 32.8419 175.1245 C 32.7297 176.0135 32.7379 176.3473 32.6056 176.996 C 32.4296 177.5918 32.0552 178.1624 31.8733 178.8049 C 31.2957 180.5858 30.9047 182.4854 30.4204 184.3256 C 30.2444 184.9213 30.118 185.5233 29.9361 186.1658 C 29.4731 187.4382 28.8613 188.692 28.4419 190.0175 C 28.2104 190.6537 28.0663 191.3961 27.9281 192.0916 C 27.7462 192.7341 27.5088 193.4172 27.4143 194.1658 C 27.2879 194.7678 27.2607 195.3823 27.178 196.0373 C 27.1012 196.6455 26.9252 197.2413 26.9417 197.9088 C 26.937 199.1441 27.1248 200.4512 27.2133 201.7458 C 27.2357 202.3666 27.2582 202.9873 27.2251 203.6486 C 27.1483 204.2569 27.0715 204.8651 26.9888 205.5201 C 26.912 206.1284 26.8352 206.7366 26.7525 207.3917 C 26.4998 208.5956 26.3403 209.8589 26.032 211.1034 C 25.6859 212.248 24.8449 214.5185 24.8449 214.5185 C 24.5378 214.9551 23.5845 217.5404 23.0436 218.8068 C 22.7501 219.4951 22.3445 220.137 22.0337 220.8184 C 21.7634 221.4107 21.5458 222.0249 21.3014 222.6272 C 21.057 223.2295 20.7748 223.8204 20.5691 224.4361 C 20.3681 225.0382 20.2858 225.6743 20.0848 226.2763 C 19.879 226.8921 19.6332 227.498 19.3524 228.0852 C 19.0619 228.6941 18.6252 229.2388 18.3721 229.8628 C 18.1335 230.4516 18.0488 231.0902 17.8878 231.703 C 17.7268 232.3158 17.5645 232.9304 17.4035 233.5432 C 17.2425 234.1561 17.0802 234.7706 16.9192 235.3834 C 16.7582 235.9963 16.5419 236.5993 16.4349 237.2236 C 16.2231 238.4623 16.1742 239.7281 15.9624 240.9667 C 15.8553 241.5911 15.6391 242.1941 15.4781 242.8069 C 15.317 243.4197 15.1008 244.0227 14.9938 244.6471 C 14.782 245.8857 14.6508 247.1402 14.5212 248.3901 C 14.262 250.8909 14.0725 253.4063 13.8242 255.9075 C 13.7624 256.5329 13.6666 257.1558 13.588 257.779 C 13.5093 258.4022 13.4719 259.0335 13.3517 259.6505 C 13.2309 260.2722 13.0684 260.8887 12.8674 261.4908 C 12.6617 262.1065 12.2998 262.673 12.1351 263.2996 C 11.9746 263.9078 12.019 264.5541 11.8988 265.1712 C 11.778 265.7929 11.5353 266.3897 11.4145 267.0114 C 11.2943 267.6284 11.2985 268.2659 11.1782 268.8829 C 11.0574 269.5046 10.8949 270.121 10.6939 270.7231 C 10.4882 271.3388 10.1674 271.9163 9.9616 272.532 C 9.7606 273.1341 9.6783 273.7701 9.4773 274.3722 C 9.2716 274.9879 8.9371 275.5617 8.745 276.1811 C 8.3693 277.3923 8.0994 278.636 7.7764 279.8615 C 7.6154 280.4743 7.4531 281.0889 7.2921 281.7017 C 7.1311 282.3145 6.9286 282.9202 6.8078 283.5419 C 6.6876 284.1589 6.6084 284.7859 6.5716 285.4134 C 6.5341 286.0456 6.6348 286.6849 6.5833 287.3163 C 6.4806 288.5686 6.4307 289.8429 6.1108 291.0593 C 5.7812 292.3125 5.1828 293.4918 4.6461 294.6771 C 4.368 295.2913 3.9563 295.8458 3.6658 296.4547 C 3.385 297.0419 3.2142 297.6763 2.9334 298.2636 C 2.6429 298.8724 2.1656 299.4034 1.9531 300.0411 C 1.7537 300.6387 1.3916 301.3592 1.7168 301.9127 C 2.0636 302.5031 2.9224 302.6942 3.6125 302.865 C 4.2634 303.0261 4.9605 302.7975 5.6263 302.8815 C 6.292 302.9656 6.9153 303.2819 7.581 303.366 C 8.2467 303.45 8.9251 303.3379 9.5948 303.3825 C 10.2595 303.4265 10.933 303.4726 11.579 303.633 C 12.2446 303.7978 12.9214 304.0021 13.5042 304.3514 C 14.1123 304.7162 14.4458 305.4437 15.0928 305.7403 C 15.6948 306.0169 16.4162 305.9074 17.077 305.9908 C 17.7378 306.0742 18.3957 306.2361 19.0613 306.2413 C 19.7469 306.247 20.4189 306.0181 21.1046 306.0239 C 21.7702 306.029 22.434 306.1518 23.0888 306.2744 C 23.7486 306.3976 24.3838 306.6356 25.0435 306.7588 C 25.6983 306.8814 26.3818 306.8489 27.0278 307.0093 C 27.6934 307.1741 28.2874 307.5629 28.953 307.7277 C 29.599 307.8881 30.2824 307.8556 30.9372 307.9782 C 31.597 308.1014 32.241 308.3015 32.8919 308.4626 C 33.5429 308.6237 34.1785 308.8827 34.8467 308.9471 C 36.8423 309.1391 38.8585 309.097 40.8585 309.2307 C 41.5232 309.2746 42.1879 309.3586 42.8427 309.4812 C 43.5025 309.6044 44.135 309.8554 44.7974 309.9656 C 46.1115 310.1838 47.4519 310.2484 48.766 310.4666 C 49.4284 310.5768 50.0609 310.8278 50.7207 310.951 C 51.3755 311.0736 52.0402 311.1575 52.7049 311.2015 C 53.3746 311.2461 54.049 311.1735 54.7187 311.2181 C 55.3834 311.2621 56.0382 311.4246 56.703 311.4686 C 57.3726 311.5132 58.0464 311.4537 58.7167 311.4851 C 60.0494 311.5478 61.3903 311.585 62.7148 311.7522 C 63.3805 311.8362 64.0293 312.0379 64.6695 312.2366 C 65.3242 312.44 65.9291 312.7902 66.5947 312.955 C 67.2407 313.1154 67.9182 313.1221 68.5789 313.2055 C 70.5612 313.4557 72.5577 313.6488 74.5317 313.957 C 75.1949 314.0607 75.8266 314.3182 76.4864 314.4414 C 77.1412 314.564 77.8059 314.6479 78.4706 314.6919 C 79.1403 314.7365 79.8139 314.7027 80.4844 314.7085 C 81.155 314.7142 81.8285 314.6804 82.4982 314.725 C 83.1629 314.769 83.8181 315.0086 84.4825 314.9755 C 85.1914 314.9405 84.9222 314.7183 86.5553 314.5242 C 93.087 313.7478 104.0565 318.1862 106.3873 312.322 C 114.7004 291.3986 109.8398 267.2092 113.7283 244.9905 C 117.3106 224.5336 126.8327 204.7002 129.025 183.7019 Z "/>
  <g id="ID0.17693647183477879">
    <path id="ID0.7729651997797191" fill="#3E4246" stroke="none" stroke-linecap="round" d="M 57.589 108.8483 L 77.8215 109.5452 L 74.5908 126.5769 L 72.0911 140.3225 L 68.3634 146.137 L 64.9852 149.6963 L 52.2438 146.5578 L 50.661 140.6778 L 55.6482 120.5375 L 57.589 108.8483 Z " stroke-width="0.8164595898422625"/>
    <path id="ID0.9716172609478235" fill="#393C40" stroke="none" stroke-linecap="round" d="M 61.9039 114.5754 L 56.945 112.3363 L 58.6518 105.7578 L 76.9022 115.0005 L 73.9611 118.0992 L 68.5009 120.1203 L 61.9039 114.5754 Z " stroke-width="0.8164595898422625"/>
    <g id="ID0.38066427363082767">
      <path id="ID0.4757494777441025" fill="#1D1E1F" stroke="none" stroke-linecap="round" d="M 66.3634 83.471 L 74.8751 81.1054 L 90.9478 85.5679 L 83.402 111.2473 L 73.1799 116.5153 L 68.686 117.7043 L 65.411 115.4083 L 62.4775 112.508 L 56.6974 110.0392 L 56.4355 104.5686 L 56.9382 96.4583 L 59.9336 88.0447 L 66.3634 83.471 Z " stroke-width="0.47614255857339044"/>
      <path id="ID0.6007084371522069" fill="none" stroke="#0D0D0D" stroke-width="0.9522851171467809" stroke-linecap="round" d="M 57.1827 110.3838 L 62.3585 112.5111 L 66.7386 116.0881 L 68.6891 117.8233 L 73.1799 116.5153 L 77.5237 114.1395 "/>
    </g>
  </g>
  <g id="ID0.17693647183477879">
    <path id="ID0.7729651997797191" fill="#393C40" stroke="none" stroke-linecap="round" d="M 139.3469 99.0683 L 120.1607 96.878 L 120.8114 113.4012 L 121.235 126.7212 L 123.9335 132.7316 L 126.6196 136.5651 L 139.0822 135.3975 L 141.4031 130.0728 L 139.5328 110.3696 L 139.3469 99.0683 Z " stroke-width="0.7788098246961779"/>
    <path id="ID0.9716172609478235" fill="#34373A" stroke="none" stroke-linecap="round" d="M 134.47 103.8641 L 139.4636 102.4496 L 138.7793 96.003 L 120.2601 102.1542 L 122.5987 105.4916 L 127.4656 108.1669 L 134.47 103.8641 Z " stroke-width="0.7788098246961779"/>
    <g id="ID0.38066427363082767">
      <path id="ID0.4757494777441025" fill="#1D1E1F" stroke="none" stroke-linecap="round" d="M 134.7341 74.1305 L 127.0367 70.7006 L 111.2448 72.6485 L 114.7495 97.9376 L 123.652 104.3465 L 127.7243 106.1008 L 131.1373 104.3956 L 134.3132 102.0722 L 140.1139 100.5566 L 141.131 95.4322 L 141.7982 87.7098 L 140.1565 79.3505 L 134.7341 74.1305 Z " stroke-width="0.45418602765175714"/>
      <path id="ID0.6007084371522069" fill="none" stroke="#0D0D0D" stroke-width="0.9083720553035143" stroke-linecap="round" d="M 139.6075 100.8134 L 134.425 102.0919 L 129.7891 104.8501 L 127.7047 106.2126 L 123.652 104.3465 L 119.8883 101.4936 "/>
    </g>
  </g>
  <g id="ID0.7397577832452953">
    <path id="ID0.6726378230378032" fill="#34373A" stroke="none" stroke-linecap="round" d="M 123.3402 144.1607 L 128.3841 127.1818 L 130.6825 127.4634 L 125.4012 144.0966 L 123.3402 144.1607 Z " stroke-width="0.778809995147325"/>
    <path id="ID0.6507829907350242" fill="#1D1E1F" stroke="none" stroke-linecap="round" d="M 125.1732 146.9866 L 130.7002 127.1851 L 148.4521 123.5939 L 158.7571 123.273 L 173.7642 119.8997 L 179.7149 117.9634 L 184.1338 128.7442 L 178.0977 130.3005 L 169.3638 134.0598 L 158.3739 139.324 L 149.83 143.0406 L 125.1732 146.9866 Z " stroke-width="0.778809995147325"/>
    <path id="ID0.6829322893172503" fill="#1D1E1F" stroke="none" stroke-linecap="round" d="M 183.8393 129.2095 L 176.9125 120.5889 L 181.3583 116.3966 L 186.0132 111.359 L 191.3321 110.1634 L 195.8294 109.7512 L 199.1058 111.0103 L 205.6735 110.9309 L 206.4656 115.3427 L 204.8222 116.9095 L 204.9738 118.4719 L 203.1875 122.0664 L 201.064 125.9363 L 197.3119 128.7753 L 190.4924 129.51 L 183.8393 129.2095 Z " stroke-width="0.778809995147325"/>
    <path id="ID0.47767175547778606" fill="none" stroke="#0D0D0D" stroke-width="1.55761999029465" stroke-linecap="round" d="M 128.8585 146.1582 L 124.9995 146.7463 L 130.7173 127.2611 L 143.817 124.6357 "/>
    <path id="ID0.5922487881034613" fill="#282A2B" stroke="none" stroke-linecap="round" d="M 157.1842 140.7695 L 150.4638 135.3753 L 149.2587 129.6594 L 153.5075 122.6377 L 167.7497 120.8332 L 175.7604 123.6224 L 176.4863 126.8518 L 170.9287 134.0879 L 157.1842 140.7695 Z " stroke-width="0.778809995147325"/>
    <path id="ID0.36820242274552584" fill="#151616" stroke="none" stroke-linecap="round" d="M 158.2207 134.5394 L 156.3684 126.654 L 167.6459 126.7532 L 167.8859 128.176 L 158.2207 134.5394 Z " stroke-width="0.778809995147325"/>
    <path id="ID0.13569410238415003" fill="none" stroke="#232425" stroke-width="1.55761999029465" stroke-linecap="round" d="M 168.7059 132.731 L 174.197 125.909 L 166.2652 122.5831 "/>
    <path id="ID0.024502143263816833" fill="none" stroke="#0D0D0D" stroke-width="1.55761999029465" stroke-linecap="round" d="M 156.704 140.4178 L 150.4413 135.6392 L 148.9494 130.0676 L 153.1811 122.9699 L 161.3474 122.0123 "/>
  </g>
  <path id="ID0.3809091211296618" fill="#393D40" stroke="none" stroke-linecap="round" d="M 134.0591 184.4802 L 115.7746 162.5676 L 152.4293 149.8639 L 163.2243 148.0531 L 181.8244 148.707 L 186.5245 156.4051 L 191.0041 168.6274 L 170.8248 173.7509 L 159.4177 174.8226 L 134.0591 184.4802 Z " stroke-width="0.7305889591873509"/>
  <path id="ID0.3809091211296618" fill="#3E4246" stroke="none" stroke-linecap="round" d="M 96.8945 151.5213 L 117.2807 163.9935 L 122.8415 202.3865 L 122.5832 213.3293 L 118.4322 231.4721 L 109.9856 234.6356 L 97.1378 236.729 L 95.1246 215.0503 L 92.5626 201.8812 L 96.8945 151.5213 Z " stroke-width="0.7305889404387307"/>
  <path id="ID0.5368814701214433" fill="#303436" stroke="none" stroke-linecap="round" d="M 42.356 284.9295 L 48.8137 278.2526 L 56.8975 271.9038 L 63.3028 281.5377 L 70.0897 293.3341 L 81.2625 310.2769 L 79.38 316.6071 L 56.6585 306.8558 L 39.1621 294.2594 L 42.356 284.9295 Z " stroke-width="0.7702165261379248"/>
  <g id="ID0.9157347986474633">
    <path id="ID0.7477802094072104" fill="#363A3D" stroke="none" stroke-linecap="round" d="M 139.0668 116.2889 L 119.3016 117.262 L 127.7356 157.5756 L 145.8756 162.9015 L 143.0913 138.4318 L 139.0668 116.2889 Z " stroke-width="0.4761425731684311"/>
    <path id="ID0.7477802094072104" fill="#363A3D" stroke="none" stroke-linecap="round" d="M 80.2388 128.6092 L 102.6069 121.0108 L 111.0408 161.3244 L 96.5572 173.4755 L 86.0543 150.0125 L 80.2388 128.6092 Z " stroke-width="0.4761425731684311"/>
    <path id="ID0.4270821204409003" fill="#3E4246" stroke="none" stroke-linecap="round" d="M 76.4064 108.9624 L 77.5754 95.9485 L 78.5947 89.7762 L 83.5648 81.5613 L 114.2672 76.5974 L 121.9025 79.3781 L 125.5276 82.7545 L 134.7419 92.5016 L 136.1879 102.901 L 136.3771 108.4556 L 139.422 114.8721 L 141.0094 120.1342 L 140.3259 127.3307 L 139.8139 132.7888 L 140.55 142.1206 L 146.5032 163.2519 L 143.1518 172.3443 L 139.7404 179.4062 L 128.9908 187.2007 L 117.0233 186.6154 L 111.8036 180.8485 L 105.6404 175.5708 L 96.641 174.2916 L 90.3304 149.7083 L 87.8003 143.4273 L 80.9861 133.1781 L 77.4863 122.8435 L 76.4064 108.9624 Z " stroke-width="0.4761425731684311"/>
    <path id="ID0.052435632329434156" fill="#393C40" stroke="none" stroke-linecap="round" d="M 98.531 155.2513 L 102.8983 154.3863 L 110.0259 156.2516 L 114.9552 155.0501 L 121.0766 155.5937 L 124.9585 153.687 L 126.4922 152.8797 L 139.7067 146.637 L 140.729 149.7796 L 133.1932 155.6126 L 127.3042 156.5285 L 122.4521 160.6569 L 115.2058 158.5731 L 109.0019 160.3088 L 98.5513 158.6036 L 98.531 155.2513 Z " stroke-width="0.4761425731684311"/>
    <path id="ID0.4987568911164999" fill="none" stroke="#27282B" stroke-width="0.9522851463368622" stroke-linecap="round" d="M 83.5259 82.156 L 78.5017 89.531 L 77.2869 100.0006 "/>
    <path id="ID0.2889464790932834" fill="none" stroke="#27282B" stroke-width="0.9522851463368622" stroke-linecap="round" d="M 115.743 76.8752 L 122.1156 79.4336 L 129.6096 87.3516 "/>
    <path id="ID0.8373676878400147" fill="#000000" stroke="#2C2F31" stroke-width="0.6155103831726892" stroke-linecap="round" d="M 89.6075 94.1633 L 89.6309 92.5942 L 86.2563 94.2341 L 82.1937 98.5046 L 79.1949 104.3001 L 77.9585 110.3179 L 82.5192 107.0508 L 87.0926 105.972 L 89.97 106.3015 L 93.0731 108.7019 L 94.9205 107.2656 L 98.785 106.1612 L 103.4166 106.2452 L 107.8339 108.5595 L 110.497 111.1193 L 111.9813 107.7158 L 114.9508 103.8817 L 118.6816 101.6284 L 123.7229 100.5415 L 125.6366 100.736 L 126.6529 97.3406 L 128.307 95.7053 L 130.9633 95.6845 L 134.042 96.681 L 131.8446 93.2529 L 128.8009 89.9028 L 125.3951 87.5583 L 121.8264 86.0263 L 117.2227 86.0935 L 119.752 87.5044 L 120.0732 89.2446 L 118.951 91.6424 L 115.708 93.571 L 112.6757 94.5218 L 110.1312 95.1479 L 106.9163 92.1423 L 106.9151 94.255 L 105.4775 94.5203 L 103.4557 92.4681 L 103.3915 96.783 L 99.4233 97.7501 L 95.184 97.6719 L 91.6176 97.0001 L 89.6075 94.1633 Z "/>
    <path id="ID0.5698574706912041" fill="none" stroke="#313537" stroke-width="0.9522851463368622" stroke-linecap="round" d="M 98.4269 155.1028 L 98.5025 158.3706 L 109.0262 160.4254 L 115.5944 158.6864 L 122.1947 160.5891 "/>
    <path id="ID0.5698574706912041" fill="none" stroke="#313537" stroke-width="0.8933066172614318" stroke-linecap="round" d="M 139.1992 146.7596 L 140.3652 149.7992 L 132.7881 155.6409 L 126.9255 156.5026 L 122.4036 160.7321 "/>
    <path id="ID0.8947288258932531" fill="#393C40" stroke="none" stroke-linecap="round" d="M 97.2613 143.1368 L 104.1112 141.5821 L 111.8881 141.9009 L 118.5652 146.1468 L 110.724 143.3119 L 99.884 144.0474 L 95.4931 148.055 L 97.2613 143.1368 Z " stroke-width="0.4761425731684311"/>
    <path id="ID0.8947288258932531" fill="#393C40" stroke="none" stroke-linecap="round" d="M 135.2266 136.151 L 129.1215 137.3207 L 122.9294 140.3381 L 119.0222 146.1493 L 124.3738 141.0691 L 133.4232 137.8198 L 138.4049 139.5112 L 135.2266 136.151 Z " stroke-width="0.42137387572514795"/>
    <path id="ID0.9897695370018482" fill="#393C40" stroke="none" stroke-linecap="round" d="M 103.1508 154.4308 L 96.6451 155.3054 L 96.1139 150.6736 L 97.9957 153.8553 L 103.0117 152.9519 L 109.7404 155.1196 L 115.0269 153.6487 L 119.3275 154.2084 L 119.0702 146.2358 L 121.3118 155.7877 L 115.4262 154.9759 L 109.6704 156.1801 L 103.1508 154.4308 Z " stroke-width="0.4761425731684311"/>
    <path id="ID0.9897695370018482" fill="#393C40" stroke="none" stroke-linecap="round" d="M 134.5818 148.033 L 139.9105 146.4657 L 138.6716 142.3139 L 138.3528 145.7058 L 134.1627 146.7181 L 129.7448 150.9676 L 125.1442 151.5908 L 122.0267 153.6003 L 119.3875 146.6876 L 121.0584 155.6577 L 125.3087 152.8684 L 130.1763 151.8501 L 134.5818 148.033 Z " stroke-width="0.4232251083069431"/>
    <path id="ID0.3524594851769507" fill="#393C40" stroke="none" stroke-linecap="round" d="M 106.2461 118.3105 L 112.4736 119.2453 L 116.3535 116.05 L 114.0342 120.4268 L 117.2479 131.1374 L 125.9507 128.4411 L 116.4754 134.0718 L 104.0967 131.87 L 113.9953 131.8665 L 111.2883 120.904 L 106.2461 118.3105 Z " stroke-width="0.4761425731684311"/>
    <path id="ID0.9214867809787393" fill="#393C40" stroke="none" stroke-linecap="round" d="M 96.4666 139.3385 L 98.5166 134.6045 L 102.9821 132.6974 L 98.248 138.5523 L 98.6146 141.4673 L 103.5645 140.4804 L 112.2154 141.954 L 103.0403 141.9278 L 97.3079 143.127 L 96.4666 139.3385 Z " stroke-width="0.4761425731684311"/>
    <path id="ID0.9214867809787393" fill="#393C40" stroke="none" stroke-linecap="round" d="M 134.0569 132.2178 L 130.5676 128.8393 L 126.1162 128.8422 L 132.2717 132.1967 L 133.0572 134.8874 L 128.5453 135.8778 L 122.6222 140.0184 L 129.5263 136.9492 L 134.7726 135.8516 L 134.0569 132.2178 Z " stroke-width="0.44517881396030046"/>
    <path id="ID0.8679121839813888" fill="#2C2F31" stroke="none" stroke-linecap="round" d="M 107.936 116.8485 L 111.9959 117.6531 L 114.9219 115.3627 L 116.049 116.0998 L 112.7501 119.5141 L 106.6526 118.5034 L 107.936 116.8485 Z " stroke-width="0.4761425731684311"/>
    <path id="ID0.24770551454275846" fill="none" stroke="#313537" stroke-width="0.9522851463368622" stroke-linecap="round" d="M 111.4555 114.0813 L 116.7307 116.6261 L 124.1686 115.5564 L 131.406 112.9478 L 135.7526 108.1468 "/>
    <path id="ID0.20603158557787538" fill="none" stroke="#313537" stroke-width="0.9522851463368622" stroke-linecap="round" d="M 78.044 116.9896 L 86.0152 120.7945 L 98.7907 121.4053 L 105.7761 119.3358 L 111.0304 114.2234 "/>
    <g id="ID0.5272086253389716">
      <path id="ID0.24770551454275846" fill="none" stroke="#363A3D" stroke-width="0.9522850879953051" stroke-linecap="round" d="M 88.0571 148.0741 L 97.1026 142.9468 "/>
      <path id="ID0.24770551454275846" fill="none" stroke="#363A3D" stroke-width="0.9522850879953051" stroke-linecap="round" d="M 83.0813 137.0117 L 101.8026 126.7468 "/>
    </g>
    <g id="ID0.5272086253389716">
      <path id="ID0.24770551454275846" fill="none" stroke="#363A3D" stroke-width="0.9522851113879124" stroke-linecap="round" d="M 141.8792 135.823 L 134.7125 135.4503 "/>
      <path id="ID0.24770551454275846" fill="none" stroke="#363A3D" stroke-width="0.9522851113879124" stroke-linecap="round" d="M 140.0772 124.8167 L 125.5214 122.998 "/>
    </g>
    <g id="ID0.7887678607366979">
      <path id="ID0.753661650698632" fill="none" stroke="#313537" stroke-width="0.9522850879953051" stroke-linecap="round" d="M 106.7365 118.3295 L 112.3506 119.5872 L 115.7758 116.1951 "/>
      <g id="ID0.8167418288066983">
        <path id="ID0.9553722990676761" fill="none" stroke="#313537" stroke-width="1.0409108435012333" stroke-linecap="round" d="M 115.9268 133.9634 L 109.9942 133.0155 L 103.5609 132.4156 L 99.0862 134.3247 L 96.53 139.2375 L 97.2369 142.6164 "/>
        <path id="ID0.5982440118677914" fill="none" stroke="#313537" stroke-width="0.8540413443789141" stroke-linecap="round" d="M 103.8206 132.015 L 101.5715 127.0776 L 105.2528 119.0969 "/>
      </g>
      <g id="ID0.7324484633281827">
        <path id="ID0.04993448918685317" fill="none" stroke="#313537" stroke-width="0.9522850879953051" stroke-linecap="round" d="M 112.3262 119.4707 L 115.1703 129.5776 L 119.0002 145.5589 L 122.5727 161.4725 "/>
        <g id="ID0.8167418288066983">
          <path id="ID0.9553722990676761" fill="none" stroke="#313537" stroke-width="0.9699703024720207" stroke-linecap="round" d="M 116.0377 133.81 L 120.6885 131.4506 L 125.6138 128.4744 L 129.9161 128.5472 L 133.8137 132.1099 L 134.5206 135.4888 "/>
          <path id="ID0.5982440118677914" fill="none" stroke="#313537" stroke-width="0.7916616436959342" stroke-linecap="round" d="M 125.3409 128.1808 L 125.2817 122.7853 L 119.3275 116.8205 "/>
          <path id="ID0.3567589442245662" fill="none" stroke="#313537" stroke-width="0.8967655373669481" stroke-linecap="round" d="M 118.86 146.2216 L 122.8625 140.3008 L 129.6459 136.9358 L 135.0568 135.8038 L 138.2005 139.889 L 139.9256 146.7033 L 134.6405 148.5387 L 129.7404 152.7257 L 124.8752 153.5003 L 121.131 156.1565 L 114.9008 154.906 L 109.4772 156.2839 L 102.5513 154.571 L 96.2359 155.1625 L 95.1256 148.2197 L 96.6755 143.1525 L 102.8241 141.8662 L 111.3714 142.0238 L 118.0881 145.702 Z "/>
        </g>
      </g>
    </g>
    <g id="ID0.9312638868577778">
      <path id="ID0.2888958193361759" fill="#393C40" stroke="none" stroke-linecap="round" d="M 102.5743 162.6341 L 113.0017 162.582 L 113.0165 165.5579 L 102.5891 165.6099 L 102.5743 162.6341 Z " stroke-width="0.4761425071816273"/>
      <path id="ID0.2888958193361759" fill="#393C40" stroke="none" stroke-linecap="round" d="M 91.7143 162.7716 L 103.4517 162.832 L 103.4665 165.8079 L 93.0391 165.8599 L 91.7143 162.7716 Z " stroke-width="0.4761425071816273"/>
      <g id="ID0.36424446757882833">
        <path id="ID0.7359844641759992" fill="#8A7B59" stroke="none" d="M 105.3233 161.3347 L 106.8147 161.0227 L 108.092 167.128 L 106.6006 167.44 L 105.3233 161.3347 Z " stroke-width="0.47614254399765255"/>
        <path id="ID0.7359844641759992" fill="#8A7B59" stroke="none" d="M 103.3733 161.2847 L 104.8647 160.9727 L 106.142 167.078 L 104.6506 167.39 L 103.3733 161.2847 Z " stroke-width="0.47614254399765255"/>
        <path id="ID0.7359844641759992" fill="#8A7B59" stroke="none" d="M 101.2733 161.0347 L 102.7647 160.7227 L 104.042 166.828 L 102.5506 167.14 L 101.2733 161.0347 Z " stroke-width="0.47614254399765255"/>
        <path id="ID0.7359844641759992" fill="#8A7B59" stroke="none" d="M 107.3233 161.4347 L 108.8147 161.1227 L 110.092 167.228 L 108.6006 167.54 L 107.3233 161.4347 Z " stroke-width="0.47614254399765255"/>
      </g>
      <g id="ID0.1049797898158431">
        <path id="ID0.08871637750416994" fill="#8A7B59" stroke="none" stroke-linecap="round" d="M 93.2291 161.7742 L 99.712 161.4881 L 100.8111 166.9739 L 94.5563 167.188 L 93.2291 161.7742 Z " stroke-width="0.47614254399765255"/>
        <path id="ID0.13805592898279428" fill="#76694C" stroke="none" stroke-linecap="round" d="M 92.9946 161.5798 L 99.7805 161.2304 L 100.4636 164.0305 L 93.6349 164.2916 L 92.9946 161.5798 Z " stroke-width="0.47614254399765255"/>
        <path id="ID0.3221200187690556" fill="#61563F" stroke="none" stroke-linecap="round" d="M 96.1094 163.1421 L 97.0434 163.3163 L 97.4791 165.0202 L 96.4745 164.8872 L 96.1094 163.1421 Z " stroke-width="0.5167888805826728"/>
        <path id="ID0.1420820001512766" fill="#BAA578" stroke="none" stroke-linecap="round" d="M 99.9838 166.2212 L 100.3904 164.6768 L 100.9098 166.9274 L 94.5765 167.2309 L 99.9838 166.2212 Z " stroke-width="0.47614254399765255"/>
      </g>
      <path id="ID0.2888958193361759" fill="#393C40" stroke="none" stroke-linecap="round" d="M 139.3325 155.3118 L 132.4377 158.6066 L 133.3801 161.0008 L 140.275 157.706 L 139.3325 155.3118 Z " stroke-width="0.38104697013794087"/>
      <path id="ID0.2888958193361759" fill="#393C40" stroke="none" stroke-linecap="round" d="M 145.3375 152.1741 L 138.8877 155.5066 L 139.8301 157.9008 L 145.5217 155.1127 L 145.3375 152.1741 Z " stroke-width="0.38104697013794087"/>
      <path id="ID0.7359844641759992" fill="#8A7B59" stroke="none" d="M 137.1208 154.7352 L 136.0372 154.9619 L 137.1483 160.2729 L 138.2319 160.0462 L 137.1208 154.7352 Z " stroke-width="0.38160279537011327"/>
      <path id="ID0.7359844641759992" fill="#8A7B59" stroke="none" d="M 138.3708 153.9352 L 137.2872 154.1619 L 138.3983 159.4729 L 139.4819 159.2462 L 138.3708 153.9352 Z " stroke-width="0.38160279537011327"/>
      <path id="ID0.7359844641759992" fill="#8A7B59" stroke="none" d="M 139.7208 153.1352 L 138.6372 153.3619 L 139.7483 158.6729 L 140.8319 158.4462 L 139.7208 153.1352 Z " stroke-width="0.38160279537011327"/>
      <path id="ID0.7359844641759992" fill="#8A7B59" stroke="none" d="M 135.8708 155.5352 L 134.7872 155.7619 L 135.8983 161.0729 L 136.9819 160.8462 L 135.8708 155.5352 Z " stroke-width="0.38160279537011327"/>
      <g id="ID0.1049797898158431">
        <path id="ID0.08871637750416994" fill="#8A7B59" stroke="none" stroke-linecap="round" d="M 145.3602 151.1029 L 140.7194 153.0629 L 141.8143 158.1168 L 146.2707 156.1729 L 145.3602 151.1029 Z " stroke-width="0.40545296255715224"/>
        <path id="ID0.13805592898279428" fill="#76694C" stroke="none" stroke-linecap="round" d="M 145.5852 150.9 L 140.7105 152.909 L 141.1838 155.5302 L 146.0584 153.4313 L 145.5852 150.9 Z " stroke-width="0.40545296255715224"/>
        <path id="ID0.3221200187690556" fill="#61563F" stroke="none" stroke-linecap="round" d="M 143.9032 153.2189 L 143.3078 153.6851 L 143.5818 155.2869 L 144.2407 154.8319 L 143.9032 153.2189 Z " stroke-width="0.44006480312107793"/>
        <path id="ID0.1420820001512766" fill="#BAA578" stroke="none" stroke-linecap="round" d="M 142.2819 157.2287 L 141.4718 156.0493 L 141.8729 158.1461 L 146.4148 156.2517 L 142.2819 157.2287 Z " stroke-width="0.40545296255715224"/>
      </g>
      <g id="ID0.6836685389280319">
        <path id="ID0.09357938077300787" fill="#857656" stroke="none" d="M 112.8821 159.6037 L 130.4756 155.9229 L 131.7919 162.2146 L 114.1984 165.8954 L 112.8821 159.6037 Z " stroke-width="0.4283320763483961"/>
        <path id="ID0.6492703901603818" fill="#7C6E50" stroke="none" stroke-linecap="round" d="M 114.1315 161.6923 L 122.8046 163.0397 L 130.8162 158.2017 L 131.6888 162.3728 L 115.0041 165.8634 L 114.1315 161.6923 Z " stroke-width="0.47614254399765255"/>
        <g id="ID0.9254062357358634">
          <g id="ID0.49943465692922473">
            <path id="ID0.140373723115772" fill="#968561" stroke="none" d="M 128.841 155.1833 L 133.851 154.1352 L 135.7036 162.9902 L 130.6935 164.0383 L 128.841 155.1833 Z " stroke-width="0.47614254399765255"/>
            <path id="ID0.8286363878287375" fill="#BAA578" stroke="none" stroke-linecap="round" d="M 128.8047 154.988 L 133.9801 154.1485 L 130.0814 155.7424 L 129.5181 158.0493 L 128.8047 154.988 Z " stroke-width="0.47614254399765255"/>
            <path id="ID0.7362233307212591" fill="#8A7B59" stroke="none" stroke-linecap="round" d="M 130.0761 160.9486 L 132.7423 160.4394 L 134.6452 157.5604 L 135.7909 163.0365 L 130.7342 164.0944 L 130.0761 160.9486 Z " stroke-width="0.47614254399765255"/>
          </g>
          <g id="ID0.49943465692922473">
            <path id="ID0.140373723115772" fill="#968561" stroke="none" d="M 114.0167 158.441 L 109.0066 159.4891 L 110.8591 168.3441 L 115.8692 167.296 L 114.0167 158.441 Z " stroke-width="0.47614254399765255"/>
            <path id="ID0.8286363878287375" fill="#BAA578" stroke="none" stroke-linecap="round" d="M 113.9212 158.3126 L 108.8433 159.6181 L 113.054 159.5156 L 114.4948 161.4032 L 113.9212 158.3126 Z " stroke-width="0.47614254399765255"/>
            <path id="ID0.7362233307212591" fill="#8A7B59" stroke="none" stroke-linecap="round" d="M 115.1459 164.2829 L 112.4991 164.8853 L 109.6017 163.0106 L 110.7474 168.4867 L 115.804 167.4288 L 115.1459 164.2829 Z " stroke-width="0.47614254399765255"/>
          </g>
        </g>
      </g>
    </g>
  </g>
  <g id="ID0.8333355090580881">
    <path id="ID0.9286923445761204" fill="#27282B" stroke="none" stroke-linecap="round" d="M 81.9948 47.192 L 100.6521 44.3975 L 106.5971 68.0203 L 123.0502 71.5502 L 103.3374 87.7584 L 64.7913 83.785 L 81.7761 68.9888 L 81.9948 47.192 Z " stroke-width="0.4761425735457949"/>
    <path id="ID0.5448851804248989" fill="none" stroke="#1D1E1F" stroke-width="0.9522851470915898" stroke-linecap="round" d="M 81.8712 63.0538 L 81.9188 68.7603 L 100.3419 72.5682 L 106.3402 68.1773 "/>
    <path id="ID0.262191956397146" fill="none" stroke="#1D1E1F" stroke-width="0.9522851470915898" stroke-linecap="round" d="M 85.6765 67.2571 L 99.4564 70.4271 L 102.1273 68.6618 "/>
  </g>
  <g id="ID0.3450673264451325">
    <g id="ID0.9831569031812251">
      <path id="ID0.0877610077150166" fill="#2E3034" stroke="none" stroke-linecap="round" d="M 106.0686 13.4098 L 101.1711 0.4111 L 101.8813 28.9308 L 109.5503 28.7399 L 106.0686 13.4098 Z " stroke-width="0.5866066119672141"/>
      <path id="ID0.796130308881402" fill="#242628" stroke="none" stroke-linecap="round" d="M 106.3655 13.418 L 101.1125 0.4281 L 105.0122 14.1733 L 106.3224 29.0326 L 109.4893 28.6586 L 106.3655 13.418 Z " stroke-width="0.5866066119672141"/>
    </g>
    <g id="ID0.9831569031812251">
      <path id="ID0.0877610077150166" fill="#2E3034" stroke="none" stroke-linecap="round" d="M 82.4537 14.1395 L 86.6981 0.9132 L 87.4083 29.4329 L 79.7394 29.6239 L 82.4537 14.1395 Z " stroke-width="0.5866066119672141"/>
      <path id="ID0.796130308881402" fill="#242628" stroke="none" stroke-linecap="round" d="M 82.04 14.2105 L 86.6399 0.9753 L 83.4292 14.8975 L 82.6997 29.4796 L 79.6786 29.5877 L 82.04 14.2105 Z " stroke-width="0.5866066119672141"/>
    </g>
    <path id="ID0.8999492498114705" fill="#2E3034" stroke="none" stroke-linecap="round" d="M 100.1007 19.5016 C 104.5154 19.8709 109.3133 22.4627 111.5415 26.2913 C 114.0841 30.6625 112.2763 36.3078 112.7003 41.2943 C 112.9159 42.993 113.7518 44.7254 113.4616 46.3573 C 112.8704 49.6769 111.2724 52.7465 110.2706 55.9655 C 109.6142 58.0751 109.5184 60.4329 108.3972 62.3645 C 107.1378 64.6492 105.8735 67.8158 103.286 68.3361 C 99.4501 69.107 95.329 67.3679 91.8368 65.6991 C 88.968 64.3277 86.2602 62.1825 84.6173 59.4502 C 81.6705 54.3771 78.9694 48.7825 78.4374 42.9099 C 77.8479 36.3998 76.8771 28.3554 81.5119 23.5219 C 85.6498 18.8761 93.538 18.9556 100.1007 19.5016 Z " stroke-width="0.5080372388459536"/>
    <path id="ID0.2441388238221407" fill="#AB8E85" stroke="none" d="M 98.4074 44.2584 C 102.4905 44.3238 107.8491 41.0246 110.6418 43.7025 C 113.1607 46.2313 109.9146 51.175 109.0306 54.6718 C 108.1499 58.1496 107.555 61.9042 105.3888 64.8123 C 104.3532 66.1069 102.1304 66.2338 100.3936 66.0045 C 97.2703 65.5886 94.1775 64.3817 91.5392 62.656 C 88.8089 60.8711 85.2118 58.9306 84.5602 55.7208 C 83.7354 51.6548 84.2652 46.2449 87.3987 43.5903 C 90.2755 41.2688 94.7352 44.1991 98.4074 44.2584 Z " stroke-width="1.255839933852946"/>
    <path id="ID0.46721756737679243" fill="#A2887F" stroke="none" stroke-linecap="round" d="M 83.8242 45.958 L 85.5173 46.6019 L 111.5112 45.5735 L 104.4258 50.8318 L 87.6298 48.7854 L 88.8066 51.1446 L 89.2003 56.7503 L 93.0106 63.8464 L 88.2734 57.2816 L 83.8242 45.958 Z " stroke-width="0.5080372388459536"/>
    <path id="ID0.8256730306893587" fill="none" stroke="#937B73" stroke-width="1.0160744776919073" stroke-linecap="round" d="M 95.1402 57.445 C 95.1402 57.445 97.8237 56.7815 99.1836 56.5566 C 99.5237 56.5003 99.8639 56.5696 100.2013 56.6075 C 100.5442 56.6462 100.8775 56.8056 101.2221 56.7853 C 101.9051 56.7454 102.5691 56.5317 103.246 56.43 C 103.5817 56.3795 103.9205 56.3329 104.2599 56.3285 C 104.5997 56.3241 104.9451 56.3358 105.2782 56.4048 C 105.8258 56.5182 106.8906 56.8728 106.8906 56.8728 "/>
    <path id="ID0.7592270169407129" fill="none" stroke="#937B73" stroke-width="1.0160744776919073" stroke-linecap="round" d="M 103.4701 58.5545 C 103.4701 58.5545 102.8571 58.9148 102.5153 58.9848 C 102.1836 59.053 101.8341 58.9169 101.4982 58.9593 C 101.1603 59.0023 100.8509 59.1869 100.5142 59.2379 C 100.1796 59.289 99.8299 59.3302 99.4984 59.2632 C 99.2165 59.2062 98.7265 58.8759 98.7265 58.8759 "/>
    <path id="ID0.5332203092984855" fill="none" stroke="#937B73" stroke-width="1.0160744776919073" stroke-linecap="round" d="M 97.4756 49.2771 C 97.4756 49.2771 96.881 49.7238 96.7836 50.0566 C 96.6575 50.5024 96.424 51.3533 96.8742 51.6551 C 97.4619 51.9307 98.2021 51.185 98.8962 51.2236 C 99.5681 51.2638 100.8896 51.6822 100.8896 51.6822 "/>
    <path id="ID0.2278452254831791" fill="none" stroke="#937B73" stroke-width="1.0160744776919073" stroke-linecap="round" d="M 101.7269 45.5122 C 101.7269 45.5122 102.7073 47.3508 103.1932 48.2707 C 103.3558 48.5787 103.5341 48.8802 103.6737 49.1989 C 103.8132 49.5177 104.0335 49.8334 104.0285 50.1811 C 104.0234 50.5298 103.8252 50.857 103.6462 51.1562 C 103.5267 51.3563 103.1503 51.6513 103.1503 51.6513 "/>
    <path id="ID0.6473136460408568" fill="none" stroke="#937B73" stroke-width="1.016074610996588" stroke-linecap="round" d="M 102.6238 62.3359 C 102.6238 62.3359 102.9563 62.9627 103.0157 63.3059 C 103.0731 63.6401 103.0218 63.989 102.9665 64.3236 C 102.8837 64.8278 102.6029 65.8144 102.6029 65.8144 "/>
    <path id="ID0.11669129692018032" fill="#2E3034" stroke="none" stroke-linecap="round" d="M 85.6213 40.5772 L 108.9011 41.7762 L 112.9036 44.3445 L 103.6248 49.2764 L 82.8654 47.2524 L 85.6213 40.5772 Z " stroke-width="0.5080372388459536"/>
    <path id="ID0.14635155349969864" fill="#2E3034" stroke="none" stroke-linecap="round" d="M 83.0859 45.9002 L 84.9491 46.2349 L 87.7197 51.3749 L 88.168 57.1318 L 90.0912 60.8953 L 93.074 64.353 L 84.7167 59.3521 L 83.0859 45.9002 Z " stroke-width="0.5080372388459536"/>
    <path id="ID0.28340246016159654" fill="#1C1D1F" stroke="none" stroke-linecap="round" d="M 85.7242 37.3845 L 89.1911 38.8379 L 98.8782 39.4881 L 99.0214 45.2385 L 92.0597 44.4663 L 88.1722 43.4826 L 86.1098 42.0212 L 85.2029 40.3149 L 85.7242 37.3845 Z " stroke-width="0.5401026110893634"/>
    <path id="ID0.6101007834076881" fill="#FFFFFF" stroke="none" stroke-linecap="round" d="M 89.5891 39.7695 L 91.2513 40.128 L 95.06 41.2348 L 95.6535 43.1889 L 90.3642 41.8672 L 89.5891 39.7695 Z " stroke-width="0.4061062113677288"/>
    <path id="ID0.28340246016159654" fill="#1C1D1F" stroke="none" stroke-linecap="round" d="M 111.0822 36.7963 L 108.059 38.2446 L 99.4603 39.2537 L 99.588 44.3814 L 105.754 43.3848 L 109.1726 42.3361 L 110.9445 40.943 L 111.6765 39.3831 L 111.0822 36.7963 Z " stroke-width="0.48162498516148433"/>
    <path id="ID0.6101007834076881" fill="#FFFFFF" stroke="none" stroke-linecap="round" d="M 109.4639 38.8845 L 107.9352 39.4141 L 104.4652 40.8969 L 104.1291 42.8108 L 108.9729 40.9548 L 109.4639 38.8845 Z " stroke-width="0.38638675412561657"/>
    <g id="ID0.07940126257017255">
      <path id="ID0.46257128613069654" fill="#27282B" stroke="none" stroke-linecap="round" d="M 99.0985 39.3608 L 103.6887 49.2071 L 93.6265 48.1872 L 99.0985 39.3608 Z " stroke-width="0.5080372388459536"/>
      <path id="ID0.9845890481956303" fill="#27282B" stroke="none" stroke-linecap="round" d="M 99.8484 39.4606 L 108.3102 46.6187 L 103.701 49.2745 L 99.8484 39.4606 Z " stroke-width="0.5080372388459536"/>
    </g>
    <path id="ID0.20071752788498998" fill="#202324" stroke="none" d="M 90.5371 34.9967 L 94.7402 37.4584 L 99.5179 38.5083 L 99.6289 39.903 L 91.8267 38.8269 L 85.8771 36.6373 L 87.5596 34.8167 L 90.5371 34.9967 Z " stroke-width="0.5080372388459536"/>
    <path id="ID0.20071752788498998" fill="#202324" stroke="none" d="M 107.3439 34.2586 L 104.3528 36.7809 L 99.1497 38.4724 L 99.1117 39.7555 L 106.2118 38.4131 L 111.5897 36.251 L 109.9963 34.0527 L 107.3439 34.2586 Z " stroke-width="0.4660979845662752"/>
    <path id="ID0.521138689480722" fill="none" stroke="#212325" stroke-width="0.9060627543631252" stroke-linecap="round" d="M 111.1334 36.5005 L 107.9347 38.1662 L 99.4287 39.6243 "/>
    <path id="ID0.17828734638169408" fill="none" stroke="#202324" stroke-width="1.0160744776919073" stroke-linecap="round" d="M 103.5093 48.7203 L 100.4088 41.5557 C 99.348 39.1621 99.5105 39.7267 99.2974 38.7629 C 99.223 38.4263 99.4325 38.0846 99.4753 37.7421 C 99.5172 37.4046 99.5727 37.0632 99.5515 36.7238 C 99.5303 36.3808 99.4229 36.0475 99.3485 35.7124 C 99.2323 35.1894 98.9792 34.1462 98.9792 34.1462 "/>
    <path id="ID0.521138689480722" fill="none" stroke="#212325" stroke-width="1.0160744776919073" stroke-linecap="round" d="M 86.0373 36.8633 L 89.713 38.5504 L 99.3213 39.7087 "/>
    <path id="ID0.8012696979567409" fill="none" stroke="url(#grad_1)" stroke-width="1.0160744776919073" stroke-linecap="round" d="M 111.4998 45.1164 L 104.1314 49.213 L 85.4848 47.3396 L 87.5617 51.1502 L 88.0182 57.2371 L 90.0379 60.795 L 93.0232 64.3543 "/>
    <path id="ID0.043594349175691605" fill="#D7E2FD" stroke="none" stroke-linecap="round" d="M 94.833 42.3586 L 95.0338 41.2356 L 95.5929 43.2798 L 92.9843 42.6079 L 94.833 42.3586 Z " stroke-width="0.5080372388459536"/>
    <path id="ID0.043594349175691605" fill="#D7E2FD" stroke="none" stroke-linecap="round" d="M 104.8148 41.865 L 104.5248 40.8693 L 104.217 42.7713 L 106.51 41.9117 L 104.8148 41.865 Z " stroke-width="0.4618642793519491"/>
  </g>
  <g id="ID0.7049301471561193">
    <path id="ID0.05466862628236413" fill="#303436" stroke="none" stroke-linecap="round" d="M 94.6013 218.6766 L 118.3826 230.9015 L 103.4659 243.4198 L 99.2573 246.6097 L 88.248 261.0302 L 62.0541 292.2494 L 48.201 284.6795 L 59.2753 265.3821 L 62.0658 256.7672 L 66.4546 248.3199 L 75.9917 238.53 L 83.1472 228.4995 L 94.6013 218.6766 Z " stroke-width="0.7305889520647921"/>
    <path id="ID0.4490455654449761" fill="none" stroke="#272A2B" stroke-width="1.658552230644972" stroke-linecap="round" d="M 94.1152 219.3653 L 118.1125 231.2697 L 98.4128 247.2 "/>
    <path id="ID0.10446935473009944" fill="none" stroke="#242728" stroke-width="1.658552230644972" stroke-linecap="round" d="M 90.9752 257.0429 L 81.063 270.6545 L 68.2152 270.5025 "/>
    <path id="ID0.42170455446466804" fill="none" stroke="#242728" stroke-width="1.658552230644972" stroke-linecap="round" d="M 79.4894 270.9618 L 69.556 282.3782 L 56.4166 282.256 "/>
    <path id="ID0.047098892275244" fill="none" stroke="#242728" stroke-width="1.658552230644972" stroke-linecap="round" d="M 83.3176 229.0771 L 80.6596 231.9857 L 79.1777 241.8059 "/>
  </g>
  <g id="ID0.4107501800172031">
    <g id="ID0.12414784263819456">
      <path id="ID0.05466862628236413" fill="#292D2E" stroke="none" stroke-linecap="round" d="M 175.8884 173.9699 L 175.8113 147.2305 L 193.7861 154.7221 L 198.5538 156.9929 L 216.4213 160.1399 L 256.1882 169.0484 L 255.8347 184.831 L 233.6063 183.8683 L 224.6729 185.3509 L 215.1535 185.3371 L 202.0749 181.3686 L 189.8776 179.6257 L 175.8884 173.9699 Z " stroke-width="0.7305889834365055"/>
      <path id="ID0.4490455654449761" fill="none" stroke="#272A2B" stroke-width="1.6585522180291297" stroke-linecap="round" d="M 176.2135 174.2524 L 175.7525 147.4685 L 198.9563 157.6389 "/>
      <path id="ID0.10446935473009944" fill="none" stroke="#242728" stroke-width="1.6585522180291297" stroke-linecap="round" d="M 211.1167 159.7187 L 227.7616 162.2632 L 233.5334 173.7426 "/>
      <path id="ID0.42170455446466804" fill="none" stroke="#242728" stroke-width="1.6585522180291297" stroke-linecap="round" d="M 228.758 163.5194 L 243.4632 167.092 L 249.3955 178.8167 "/>
      <path id="ID0.047098892275244" fill="none" stroke="#242728" stroke-width="1.6585522180291297" stroke-linecap="round" d="M 189.8382 179.2001 L 193.6431 180.2233 L 203.0452 177.0244 "/>
    </g>
    <path id="ID0.5368814701214433" fill="#292D2E" stroke="none" stroke-linecap="round" d="M 261.018 190.6503 L 252.1317 187.9457 L 242.7961 183.6442 L 248.4517 173.5519 L 255.858 162.1341 L 265.846 144.4671 L 272.3385 143.2574 L 274.0154 167.926 L 270.7783 189.2406 L 261.018 190.6503 Z " stroke-width="0.7702164928877708"/>
  </g>
  <g id="ID0.7397577832452953">
    <path id="ID0.6726378230378032" fill="#393C40" stroke="none" stroke-linecap="round" d="M 45.3985 152.4984 L 52.4079 135.3037 L 54.7767 135.834 L 47.5553 152.6436 L 45.3985 152.4984 Z " stroke-width="0.8164596042748921"/>
    <path id="ID0.6507829907350242" fill="#1D1E1F" stroke="none" stroke-linecap="round" d="M 46.9614 155.6647 L 54.7652 135.5749 L 73.6549 133.6549 L 84.439 134.3805 L 100.4427 132.4054 L 106.8501 130.9976 L 110.351 142.6997 L 103.8935 143.7023 L 94.3948 146.7256 L 82.3876 151.0868 L 73.0914 154.0851 L 46.9614 155.6647 Z " stroke-width="0.8164596042748921"/>
    <path id="ID0.6829322893172503" fill="#1D1E1F" stroke="none" stroke-linecap="round" d="M 109.9959 143.1549 L 103.6563 133.4484 L 108.7259 129.5321 L 114.1006 124.7555 L 119.7728 124.0555 L 124.5071 124.0882 L 127.7958 125.7389 L 134.6559 126.3319 L 135.0283 131.0162 L 133.1526 132.4817 L 133.15 134.1273 L 130.9165 137.6936 L 128.3029 141.5124 L 124.0962 144.0883 L 116.906 144.153 L 109.9959 143.1549 Z " stroke-width="0.8164596042748921"/>
    <path id="ID0.47767175547778606" fill="none" stroke="#0D0D0D" stroke-width="1.6329192085497841" stroke-linecap="round" d="M 50.8915 155.1797 L 46.8049 155.3961 L 54.7752 135.6559 L 68.712 134.2649 "/>
    <path id="ID0.5922487881034613" fill="#282A2B" stroke="none" stroke-linecap="round" d="M 80.6347 152.5468 L 74.1785 146.2276 L 73.5095 140.1403 L 78.6647 133.2519 L 93.7089 132.8348 L 101.7793 136.569 L 102.2044 140.0128 L 95.6616 146.9902 L 80.6347 152.5468 Z " stroke-width="0.8164596042748921"/>
    <path id="ID0.36820242274552584" fill="#151616" stroke="none" stroke-linecap="round" d="M 82.7718 145.9151 L 81.6507 137.4979 L 93.4061 138.7618 L 93.5101 140.2709 L 82.7718 145.9151 Z " stroke-width="0.8164596042748921"/>
    <path id="ID0.13569410238415003" fill="none" stroke="#232425" stroke-width="1.6329192085497841" stroke-linecap="round" d="M 93.8452 145.2715 L 100.2758 138.7193 L 92.343 134.4334 "/>
    <path id="ID0.024502143263816833" fill="none" stroke="#0D0D0D" stroke-width="1.6329192085497841" stroke-linecap="round" d="M 80.5328 152.0561 L 74.4908 146.4262 L 73.5076 140.4599 L 78.6528 133.4905 L 87.2711 133.3318 "/>
  </g>
</svg>