<svg xmlns="http://www.w3.org/2000/svg" xmlns:xlink="http://www.w3.org/1999/xlink" version="1.1" width="1075.5261632880681" height="1333.4493810615056" viewBox="-2.1326381902453586 -2.6516381840464756 1075.5261632880681 1333.4493810615056">
  <defs>
    <linearGradient id="grad_1" y2="1" x2="0">
      <stop offset="0" stop-color="#102E4C" stop-opacity="1"/>
      <stop offset="1" stop-color="#102E4C" stop-opacity="0"/>
    </linearGradient>
    <linearGradient id="grad_2" y2="1" x2="0">
      <stop offset="0" stop-color="#000000" stop-opacity="1"/>
      <stop offset="1" stop-color="#000000" stop-opacity="0"/>
    </linearGradient>
    <linearGradient id="grad_3" y2="1" x2="0">
      <stop offset="0" stop-color="#000000" stop-opacity="1"/>
      <stop offset="1" stop-color="#000000" stop-opacity="0"/>
    </linearGradient>
  <linearGradient id="grad_1-0.8137351870536804,1.3993521928787231,-1.5494823455810547,-0.9010372161865234,851.7,268" y2="0.392" x2="391.5037" x1="851.7" y1="268" gradientUnits="userSpaceOnUse">
      <stop offset="0" stop-color="#102E4C" stop-opacity="1"/>
      <stop offset="1" stop-color="#102E4C" stop-opacity="0"/>
    </linearGradient><linearGradient id="grad_2-0.8137351870536804,1.3993521928787231,-1.4773262739181519,-0.8590778112411499,1070.35,370.1" y2="114.9539" x2="631.5841" x1="1070.35" y1="370.1" gradientUnits="userSpaceOnUse">
      <stop offset="0" stop-color="#000000" stop-opacity="1"/>
      <stop offset="1" stop-color="#000000" stop-opacity="0"/>
    </linearGradient><linearGradient id="grad_3-1.4169244766235352,0.7827364802360535,-0.7654732465744019,-1.3856743574142456,983.85,695.6" y2="284.0547" x2="756.5044" x1="983.85" y1="695.6" gradientUnits="userSpaceOnUse">
      <stop offset="0" stop-color="#000000" stop-opacity="1"/>
      <stop offset="1" stop-color="#000000" stop-opacity="0"/>
    </linearGradient></defs>
  <!-- Exported by Scratch - http://scratch.mit.edu/ -->
  <path id="ID0.9746242561377585" fill="url(#grad_1-0.8137351870536804,1.3993521928787231,-1.5494823455810547,-0.9010372161865234,851.7,268)" stroke="none" d="M 851.7 268 L 461.1071 939.6891 L 0.9109 672.081 L 391.5037 0.3919 L 851.7 268 Z " stroke-width="1.7077931839927665"/>
  <g id="ID0.5097200940363109">
    <path id="ID0.7766774026677012" fill="#0D0D0D" stroke="#0D0D0D" stroke-width="6.087076374005732" stroke-linecap="round" d="M 431.6518 871.8263 C 433.8464 770.3787 431.6182 664.9945 465.274 568.0229 C 478.0015 531.3605 524.7517 514.4657 561.5557 501.3529 C 578.3546 495.3768 595.3797 510.3776 611.989 515.7475 C 616.7053 517.2597 620.2051 520.4326 624.2153 522.5661 C 629.8913 524.9813 635.8638 526.8148 641.0264 529.3846 C 642.8542 530.2998 644.6942 531.2029 646.3754 532.4151 C 648.3621 533.4757 649.8904 534.9909 651.7243 536.2031 C 655.545 538.476 659.3657 540.9003 663.1865 543.0217 C 667.0072 544.8399 670.9807 546.3552 674.6486 548.325 C 676.4825 549.2341 678.4693 549.9917 679.9975 551.3554 C 681.8315 552.7191 683.0541 554.8404 684.5824 556.6587 C 686.1107 558.1739 687.639 559.6892 689.1672 561.2044 C 690.6955 562.5681 692.6823 563.9318 693.7521 565.7501 C 694.9747 567.4168 695.2804 569.6897 696.0445 571.811 C 696.8086 573.7808 697.7256 575.7506 698.3369 577.8719 C 699.7124 581.8115 700.935 585.9026 702.1576 589.9937 C 702.9218 591.9635 703.6859 593.9333 704.45 596.0547 C 705.2142 598.0245 705.9783 599.9943 706.7425 602.1156 C 707.5066 604.0854 708.2708 606.0552 709.0349 608.1765 C 709.799 610.1463 710.8688 612.1161 711.3273 614.2374 C 711.9386 616.2072 711.9386 618.177 712.0915 620.2983 C 712.3971 622.2681 712.7028 624.2379 712.8556 626.3592 C 713.1613 628.329 713.3141 630.2988 713.6197 632.4202 C 714.0782 634.39 714.8424 636.3598 715.148 638.4811 C 716.5235 644.3905 717.7461 650.6029 718.9687 656.6638 C 719.4272 658.6336 720.1913 660.6034 720.497 662.7247 C 720.9555 664.6945 721.1083 666.6643 721.2611 668.7856 C 721.5668 670.7554 722.0253 672.7252 722.0253 674.8466 C 722.1781 676.8164 722.0253 678.7862 722.0253 680.9075 C 722.0253 684.8471 722.3309 688.9382 722.0253 693.0293 C 722.0253 694.9991 721.414 695.9082 721.2611 699.0902 C 721.1083 711.3636 721.2611 723.7885 721.2611 736.2133 C 721.2611 748.1836 721.2611 760.457 721.2611 772.5788 C 721.2611 778.4882 721.1083 784.7007 721.2611 790.7616 C 721.414 792.7314 721.7196 794.7012 722.0253 796.8225 C 722.7894 801.3682 723.8592 805.7623 724.3177 810.4595 C 724.6234 812.4293 724.3177 814.3991 724.3177 816.5205 C 724.4705 818.4903 724.929 820.4601 725.0818 822.5814 C 725.6932 826.521 726.4573 830.6121 726.6101 834.7032 C 726.9158 838.6428 726.6101 842.7339 726.6101 846.825 C 726.6101 858.7953 726.6101 871.0687 726.6101 883.1905 C 726.6101 886.0695 726.4573 887.1301 726.6101 889.2515 C 726.9158 891.2212 727.8328 893.191 728.1384 895.3124 C 729.2082 901.2218 729.6667 907.4342 730.4308 913.4951 C 730.7365 915.4649 730.8893 917.4347 731.195 919.556 C 732.1119 923.7987 733.4874 928.0413 734.2515 932.4355 C 734.71 934.5568 734.8628 936.9812 735.0157 939.254 C 735.3213 941.3753 735.7798 943.6482 735.7798 946.0725 C 735.9326 948.0423 735.7798 950.0121 735.7798 952.1334 C 735.7798 954.1032 736.0855 956.073 735.7798 958.1944 C 735.3213 962.134 734.2515 966.2251 733.4874 970.3162 C 733.1817 972.286 732.8761 974.2558 732.7233 976.3771 C 732.7233 978.3469 732.7233 980.3167 732.7233 982.438 C 732.7233 984.4078 732.7233 986.3776 732.7233 988.4989 C 733.0289 992.4385 733.0289 996.5297 733.4874 1000.6208 C 734.0987 1004.4088 735.7798 1011.985 735.7798 1011.985 C 736.544 1013.5002 738.4451 1022.1249 739.6005 1026.3797 C 740.2271 1028.6919 741.2113 1030.9011 741.8929 1033.1982 C 742.4859 1035.1953 742.9108 1037.2408 743.4212 1039.2591 C 743.9317 1041.2774 744.5613 1043.2745 744.9495 1045.32 C 745.3285 1047.3201 745.3346 1049.3808 745.7136 1051.3809 C 746.1018 1053.4265 746.6153 1055.4569 747.2419 1057.4419 C 747.8899 1059.4995 749.0056 1061.4118 749.5343 1063.5028 C 750.0326 1065.4756 750.0448 1067.5454 750.2985 1069.5637 C 750.5522 1071.582 750.8089 1073.6063 751.0626 1075.6246 C 751.3163 1077.6429 751.5731 1079.6672 751.8268 1081.6855 C 752.0805 1083.7038 752.5053 1085.713 752.5909 1087.7464 C 752.759 1091.78 752.4228 1095.8347 752.5909 1099.8683 C 752.6765 1101.9017 753.1014 1103.9109 753.3551 1105.9292 C 753.6087 1107.9475 754.0336 1109.9567 754.1192 1111.9901 C 754.2873 1116.0236 754.2048 1120.0754 754.1192 1124.1119 C 753.948 1132.1881 753.5598 1140.2824 753.3551 1148.3556 C 753.3031 1150.3739 753.3551 1152.3982 753.3551 1154.4165 C 753.3551 1156.4348 753.2267 1158.4622 753.3551 1160.4774 C 753.4834 1162.5078 753.7402 1164.5382 754.1192 1166.5383 C 754.5074 1168.5839 755.3877 1170.5355 755.6475 1172.5992 C 755.9012 1174.6024 755.5191 1176.6449 755.6475 1178.6602 C 755.7758 1180.6906 756.2832 1182.6907 756.4116 1184.7211 C 756.54 1186.7363 756.2832 1188.7667 756.4116 1190.782 C 756.54 1192.8124 756.7967 1194.8428 757.1758 1196.8429 C 757.5639 1198.8885 758.3159 1200.8583 758.704 1202.9038 C 759.083 1204.9039 759.0892 1206.9646 759.4682 1208.9647 C 759.8564 1211.0103 760.6511 1212.974 760.9965 1215.0257 C 761.672 1219.038 762.0143 1223.1109 762.5247 1227.1475 C 762.7784 1229.1658 763.0352 1231.1901 763.2889 1233.2084 C 763.5426 1235.2267 763.9246 1237.2389 764.053 1239.2693 C 764.1814 1241.2846 764.1814 1243.315 764.053 1245.3302 C 763.9246 1247.3606 763.3745 1249.3577 763.2889 1251.3911 C 763.1208 1255.4247 762.7845 1259.5067 763.2889 1263.513 C 763.8085 1267.6405 765.1717 1271.6407 766.3454 1275.6348 C 766.9537 1277.7046 767.9899 1279.638 768.6379 1281.6957 C 769.2645 1283.6807 769.5396 1285.7717 770.1661 1287.7566 C 770.8141 1289.8143 772.0582 1291.6993 772.4586 1293.8176 C 772.8345 1295.8025 773.6567 1298.2451 772.4586 1299.8785 C 771.1809 1301.621 768.5034 1301.8846 766.3454 1302.1513 C 764.3098 1302.4028 762.2833 1301.3937 760.2323 1301.3937 C 758.1814 1301.3937 756.1701 1302.1513 754.1192 1302.1513 C 752.0682 1302.1513 750.054 1301.521 748.0061 1301.3937 C 745.9735 1301.2664 743.9133 1301.1422 741.8929 1301.3937 C 739.8114 1301.6513 737.681 1302.0301 735.7798 1302.9089 C 733.7961 1303.8272 732.5062 1306.0121 730.4308 1306.697 C 728.4991 1307.3364 726.3534 1306.697 724.3177 1306.697 C 722.282 1306.697 720.225 1306.9485 718.2046 1306.697 C 716.1231 1306.4394 714.173 1305.4394 712.0915 1305.1818 C 710.0711 1304.9302 708.0109 1305.0545 705.9783 1305.1818 C 703.9304 1305.3091 701.9131 1305.8121 699.8652 1305.9394 C 697.8326 1306.0667 695.7725 1305.6879 693.7521 1305.9394 C 691.6706 1306.197 689.7205 1307.197 687.639 1307.4546 C 685.6186 1307.7061 683.5584 1307.3273 681.5258 1307.4546 C 679.4779 1307.5819 677.4484 1307.9607 675.4127 1308.2122 C 673.377 1308.4638 671.3505 1309.0335 669.2996 1308.9698 C 663.1742 1308.7789 657.0764 1307.8334 650.9602 1307.4546 C 648.9276 1307.3273 646.8797 1307.3273 644.8471 1307.4546 C 642.7992 1307.5819 640.7849 1308.1274 638.734 1308.2122 C 634.6657 1308.3789 630.576 1308.0456 626.5077 1308.2122 C 624.4567 1308.2971 622.4425 1308.8426 620.3946 1308.9698 C 618.362 1309.0971 616.3141 1309.0971 614.2814 1308.9698 C 612.2336 1308.8426 610.2162 1308.3395 608.1683 1308.2122 C 606.1357 1308.085 604.0878 1308.3395 602.0552 1308.2122 C 600.0073 1308.085 597.9869 1307.6243 595.9421 1307.4546 C 591.8768 1307.1182 587.7963 1306.697 583.7158 1306.697 C 581.6649 1306.697 579.62 1307.0788 577.6027 1307.4546 C 575.5395 1307.8395 573.5711 1308.7123 571.4896 1308.9698 C 569.4692 1309.2214 567.4121 1308.9698 565.3764 1308.9698 C 559.2694 1308.9698 553.141 1308.782 547.0371 1308.9698 C 544.9861 1309.0335 542.9718 1309.6002 540.9239 1309.7275 C 538.8913 1309.8547 536.8434 1309.8547 534.8108 1309.7275 C 532.7629 1309.6002 530.7334 1309.2214 528.6977 1308.9698 C 526.662 1308.7183 524.6325 1308.3395 522.5846 1308.2122 C 520.552 1308.085 518.4735 1308.585 516.4714 1308.2122 C 514.3349 1307.8152 515.2366 1307.2152 510.3583 1305.9394 C 490.8483 1300.8361 455.8843 1310.5699 451.061 1290.9386 C 433.8617 1220.8957 457.8619 1145.7433 454.5761 1073.3518 C 451.5439 1006.6999 430.2611 939.6449 431.6518 871.8263 Z "/>
    <path id="ID0.7766774026677012" fill="#0D0D0D" stroke="#0D0D0D" stroke-width="6.087076136611828" stroke-linecap="round" d="M 609.5982 872.8763 C 607.4036 771.4287 609.6318 666.0445 575.976 569.0729 C 563.2485 532.4104 516.4983 515.5156 479.6943 502.4028 C 462.8954 496.4268 445.8703 511.4275 429.261 516.7975 C 424.5447 518.3097 421.0449 521.4826 417.0347 523.616 C 411.3587 526.0313 405.3862 527.8647 400.2236 530.4346 C 398.3958 531.3498 396.5558 532.2528 394.8746 533.465 C 392.8879 534.5257 391.3596 536.0409 389.5257 537.2531 C 385.705 539.5259 381.8843 541.9503 378.0635 544.0716 C 374.2428 545.8899 370.2693 547.4051 366.6014 549.3749 C 364.7675 550.2841 362.7807 551.0417 361.2525 552.4054 C 359.4185 553.7691 358.1959 555.8904 356.6676 557.7087 C 355.1393 559.2239 353.611 560.7391 352.0828 562.2544 C 350.5545 563.6181 348.5677 564.9818 347.4979 566.8001 C 346.2753 568.4668 345.9696 570.7397 345.2055 572.861 C 344.4414 574.8308 343.5244 576.8006 342.9131 578.9219 C 341.5376 582.8615 340.315 586.9526 339.0924 591.0437 C 338.3282 593.0135 337.5641 594.9833 336.8 597.1046 C 336.0358 599.0744 335.2717 601.0442 334.5075 603.1656 C 333.7434 605.1354 332.9792 607.1051 332.2151 609.2265 C 331.451 611.1963 330.3812 613.1661 329.9227 615.2874 C 329.3114 617.2572 329.3114 619.227 329.1585 621.3483 C 328.8529 623.3181 328.5472 625.2879 328.3944 627.4092 C 328.0887 629.379 327.9359 631.3488 327.6303 633.4701 C 327.1718 635.4399 326.4076 637.4097 326.102 639.531 C 324.7265 645.4404 323.5039 651.6529 322.2813 657.7138 C 321.8228 659.6836 321.0587 661.6534 320.753 663.7747 C 320.2945 665.7445 320.1417 667.7143 319.9889 669.8356 C 319.6832 671.8054 319.2247 673.7752 319.2247 675.8965 C 319.0719 677.8663 319.2247 679.8361 319.2247 681.9574 C 319.2247 685.897 318.9191 689.9882 319.2247 694.0793 C 319.2247 696.0491 319.836 696.9582 319.9889 700.1402 C 320.1417 712.4135 319.9889 724.8384 319.9889 737.2633 C 319.9889 749.2336 319.9889 761.507 319.9889 773.6288 C 319.9889 779.5382 320.1417 785.7506 319.9889 791.8115 C 319.836 793.7813 319.5304 795.7511 319.2247 797.8724 C 318.4606 802.4181 317.3908 806.8123 316.9323 811.5095 C 316.6266 813.4793 316.9323 815.4491 316.9323 817.5704 C 316.7795 819.5402 316.321 821.51 316.1682 823.6313 C 315.5568 827.5709 314.7927 831.662 314.6399 835.7532 C 314.3342 839.6928 314.6399 843.7839 314.6399 847.875 C 314.6399 859.8453 314.6399 872.1187 314.6399 884.2405 C 314.6399 887.1194 314.7927 888.1801 314.6399 890.3014 C 314.3342 892.2712 313.4172 894.241 313.1116 896.3623 C 312.0418 902.2717 311.5833 908.4841 310.8192 914.5451 C 310.5135 916.5149 310.3607 918.4847 310.055 920.606 C 309.1381 924.8486 307.7626 929.0913 306.9985 933.4854 C 306.54 935.6067 306.3872 938.0311 306.2343 940.3039 C 305.9287 942.4253 305.4702 944.6981 305.4702 947.1225 C 305.3174 949.0923 305.4702 951.0621 305.4702 953.1834 C 305.4702 955.1532 305.1645 957.123 305.4702 959.2443 C 305.9287 963.1839 306.9985 967.275 307.7626 971.3661 C 308.0683 973.3359 308.3739 975.3057 308.5267 977.4271 C 308.5267 979.3969 308.5267 981.3666 308.5267 983.488 C 308.5267 985.4578 308.5267 987.4276 308.5267 989.5489 C 308.2211 993.4885 308.2211 997.5796 307.7626 1001.6707 C 307.1513 1005.4588 305.4702 1013.0349 305.4702 1013.0349 C 304.706 1014.5502 302.8049 1023.1748 301.6495 1027.4296 C 301.0229 1029.7418 300.0387 1031.951 299.3571 1034.2481 C 298.7641 1036.2452 298.3392 1038.2908 297.8288 1040.309 C 297.3183 1042.3273 296.6887 1044.3244 296.3005 1046.37 C 295.9215 1048.3701 295.9154 1050.4308 295.5364 1052.4309 C 295.1482 1054.4764 294.6347 1056.5068 294.0081 1058.4918 C 293.3601 1060.5495 292.2444 1062.4617 291.7157 1064.5527 C 291.2174 1066.5255 291.2052 1068.5953 290.9515 1070.6136 C 290.6978 1072.6319 290.4411 1074.6563 290.1874 1076.6745 C 289.9337 1078.6928 289.6769 1080.7172 289.4232 1082.7355 C 289.1695 1084.7537 288.7447 1086.7629 288.6591 1088.7964 C 288.491 1092.8299 288.8272 1096.8847 288.6591 1100.9182 C 288.5735 1102.9516 288.1486 1104.9608 287.8949 1106.9791 C 287.6413 1108.9974 287.2164 1111.0066 287.1308 1113.04 C 286.9627 1117.0736 287.0452 1121.1253 287.1308 1125.1619 C 287.302 1133.238 287.6902 1141.3324 287.8949 1149.4055 C 287.9469 1151.4238 287.8949 1153.4481 287.8949 1155.4664 C 287.8949 1157.4847 288.0233 1159.5121 287.8949 1161.5273 C 287.7666 1163.5578 287.5098 1165.5882 287.1308 1167.5883 C 286.7426 1169.6338 285.8623 1171.5854 285.6025 1173.6492 C 285.3488 1175.6523 285.7309 1177.6948 285.6025 1179.7101 C 285.4742 1181.7405 284.9668 1183.7406 284.8384 1185.771 C 284.71 1187.7863 284.9668 1189.8167 284.8384 1191.8319 C 284.71 1193.8623 284.4533 1195.8927 284.0742 1197.8928 C 283.6861 1199.9384 282.9341 1201.9082 282.546 1203.9538 C 282.167 1205.9539 282.1608 1208.0146 281.7818 1210.0147 C 281.3936 1212.0602 280.5989 1214.024 280.2535 1216.0756 C 279.578 1220.0879 279.2357 1224.1608 278.7253 1228.1974 C 278.4716 1230.2157 278.2148 1232.24 277.9611 1234.2583 C 277.7074 1236.2766 277.3254 1238.2888 277.197 1240.3192 C 277.0686 1242.3345 277.0686 1244.3649 277.197 1246.3802 C 277.3254 1248.4106 277.8755 1250.4076 277.9611 1252.4411 C 278.1292 1256.4746 278.4655 1260.5566 277.9611 1264.5629 C 277.4415 1268.6904 276.0783 1272.6906 274.9046 1276.6847 C 274.2963 1278.7545 273.2601 1280.688 272.6121 1282.7456 C 271.9855 1284.7306 271.7104 1286.8216 271.0839 1288.8066 C 270.4359 1290.8642 269.1918 1292.7492 268.7914 1294.8675 C 268.4155 1296.8524 267.5933 1299.295 268.7914 1300.9284 C 270.0691 1302.6709 272.7466 1302.9346 274.9046 1303.2012 C 276.9402 1303.4528 278.9667 1302.4436 281.0177 1302.4436 C 283.0686 1302.4436 285.0799 1303.2012 287.1308 1303.2012 C 289.1818 1303.2012 291.196 1302.5709 293.2439 1302.4436 C 295.2765 1302.3163 297.3367 1302.1921 299.3571 1302.4436 C 301.4386 1302.7012 303.569 1303.08 305.4702 1303.9588 C 307.4539 1304.8771 308.7438 1307.062 310.8192 1307.7469 C 312.7509 1308.3863 314.8966 1307.7469 316.9323 1307.7469 C 318.968 1307.7469 321.025 1307.9984 323.0454 1307.7469 C 325.1269 1307.4893 327.077 1306.4893 329.1585 1306.2317 C 331.1789 1305.9802 333.2391 1306.1044 335.2717 1306.2317 C 337.3196 1306.359 339.3369 1306.862 341.3848 1306.9893 C 343.4174 1307.1166 345.4775 1306.7378 347.4979 1306.9893 C 349.5794 1307.2469 351.5295 1308.2469 353.611 1308.5045 C 355.6314 1308.7561 357.6916 1308.3773 359.7242 1308.5045 C 361.7721 1308.6318 363.8016 1309.0106 365.8373 1309.2622 C 367.873 1309.5137 369.8995 1310.0834 371.9504 1310.0198 C 378.0758 1309.8288 384.1736 1308.8833 390.2898 1308.5045 C 392.3224 1308.3773 394.3703 1308.3773 396.4029 1308.5045 C 398.4508 1308.6318 400.4651 1309.1773 402.516 1309.2622 C 406.5843 1309.4288 410.674 1309.0955 414.7423 1309.2622 C 416.7933 1309.347 418.8075 1309.8925 420.8554 1310.0198 C 422.888 1310.147 424.9359 1310.147 426.9686 1310.0198 C 429.0164 1309.8925 431.0338 1309.3894 433.0817 1309.2622 C 435.1143 1309.1349 437.1622 1309.3894 439.1948 1309.2622 C 441.2427 1309.1349 443.2631 1308.6742 445.3079 1308.5045 C 449.3732 1308.1682 453.4537 1307.7469 457.5342 1307.7469 C 459.5851 1307.7469 461.63 1308.1288 463.6473 1308.5045 C 465.7105 1308.8894 467.6789 1309.7622 469.7604 1310.0198 C 471.7808 1310.2713 473.8379 1310.0198 475.8736 1310.0198 C 481.9806 1310.0198 488.109 1309.8319 494.2129 1310.0198 C 496.2639 1310.0834 498.2782 1310.6501 500.3261 1310.7774 C 502.3587 1310.9047 504.4066 1310.9047 506.4392 1310.7774 C 508.4871 1310.6501 510.5166 1310.2713 512.5523 1310.0198 C 514.588 1309.7682 516.6175 1309.3894 518.6654 1309.2622 C 520.698 1309.1349 522.7765 1309.6349 524.7786 1309.2622 C 526.9151 1308.8652 526.0134 1308.2651 530.8917 1306.9893 C 550.4017 1301.886 585.3657 1311.6198 590.189 1291.9885 C 607.3883 1221.9456 583.3881 1146.7933 586.6739 1074.4017 C 589.7061 1007.7498 610.9889 940.6949 609.5982 872.8763 Z "/>
    <g id="ID0.3168069599196315">
      <path id="ID0.3809091211296618" fill="#3E4246" stroke="none" stroke-linecap="round" d="M 509.3123 805.3052 L 606.2514 745.6527 L 615.5247 888.6436 L 626.3391 965.9498 L 610.228 1020.508 L 583.8592 1028.5536 L 544.2669 1032.4981 L 542.2455 965.9814 L 536.9324 925.3203 L 509.3123 805.3052 Z " stroke-width="2.233090902777266"/>
      <g id="ID0.38464318960905075">
        <path id="ID0.5368814701214433" fill="#303436" stroke="none" stroke-linecap="round" d="M 532.4688 1286.6342 L 541.2819 1259.6448 L 555.0025 1231.381 L 585.4953 1249.2862 L 619.9307 1272.6235 L 673.3045 1304.2354 L 676.6009 1324.1505 L 601.1118 1327.7541 L 536.1751 1316.5477 L 532.4688 1286.6342 Z " stroke-width="2.354214989347851"/>
        <path id="ID0.05466862628236413" fill="#303436" stroke="none" stroke-linecap="round" d="M 540.7868 1012.0975 L 621.543 999.5136 L 607.2101 1057.2842 L 602.551 1072.7384 L 601.2955 1128.1781 L 592.747 1252.4469 L 544.8975 1258.6688 L 537.5387 1191.0619 L 528.9328 1164.7548 L 524.5777 1135.9859 L 530.5274 1094.6365 L 530.1596 1056.9778 L 540.7868 1012.0975 Z " stroke-width="2.233090902777266"/>
        <path id="ID0.4490455654449761" fill="none" stroke="#272A2B" stroke-width="5.069469299445694" stroke-linecap="round" d="M 540.0513 1014.7159 L 620.7646 1000.9514 L 600.753 1075.7586 "/>
        <path id="ID0.10446935473009944" fill="none" stroke="#242728" stroke-width="5.069469299445694" stroke-linecap="round" d="M 600.086 1113.4614 L 600.086 1164.9287 L 568.0675 1187.6701 "/>
        <path id="ID0.42170455446466804" fill="none" stroke="#242728" stroke-width="5.069469299445694" stroke-linecap="round" d="M 596.7507 1168.5195 L 592.7484 1214.6007 L 560.0629 1237.9405 "/>
        <path id="ID0.047098892275244" fill="none" stroke="#242728" stroke-width="5.069469299445694" stroke-linecap="round" d="M 530.9614 1058.1048 L 529.6273 1070.074 L 543.6354 1097.0046 "/>
      </g>
    </g>
    <g id="ID0.9602425838820636">
      <g id="ID0.17693647183477879">
        <path id="ID0.7729651997797191" fill="#3E4246" stroke="none" stroke-linecap="round" d="M 671.0252 610.4711 L 609.2601 614.2144 L 620.4901 665.9973 L 629.2246 707.7979 L 641.0785 725.2669 L 651.6846 735.873 L 690.3658 725.2669 L 694.733 707.174 L 677.888 646.0328 L 671.0252 610.4711 Z " stroke-width="2.4955599308013916"/>
        <path id="ID0.9716172609478235" fill="#393C40" stroke="none" stroke-linecap="round" d="M 658.2979 628.3144 L 673.2712 621.0772 L 667.5314 601.1128 L 612.5043 630.8099 L 621.7379 640.0435 L 638.5829 645.7833 L 658.2979 628.3144 Z " stroke-width="2.4955599308013916"/>
        <g id="ID0.38066427363082767">
          <path id="ID0.4757494777441025" fill="#1D1E1F" stroke="none" stroke-linecap="round" d="M 642.3862 534.3098 L 616.1898 527.7607 L 567.4352 542.6781 L 592.5402 620.5398 L 624.1942 635.8211 L 638.0201 639.0957 L 647.8438 631.8189 L 656.576 622.7229 L 674.0403 614.7184 L 674.4041 597.9818 L 672.2211 573.2406 L 662.3974 547.7718 L 642.3862 534.3098 Z " stroke-width="1.4553595781326294"/>
          <path id="ID0.6007084371522069" fill="none" stroke="#0D0D0D" stroke-width="2.910719156265259" stroke-linecap="round" d="M 672.5849 615.8099 L 656.9398 622.7229 L 643.8416 634.0019 L 638.0201 639.4595 L 624.1942 635.8211 L 610.7322 628.9081 "/>
        </g>
      </g>
      <g id="ID0.7397577832452953">
        <path id="ID0.6726378230378032" fill="#393C40" stroke="none" stroke-linecap="round" d="M 692.5614 698.4396 L 643.0245 726.1403 L 645.5201 733.1279 L 693.8092 704.928 L 692.5614 698.4396 Z " stroke-width="2.4955599308013916"/>
        <path id="ID0.6507829907350242" fill="#1D1E1F" stroke="none" stroke-linecap="round" d="M 702.8436 701.559 L 644.8218 732.7535 L 646.0696 790.7753 L 652.3085 823.2176 L 652.3085 872.5049 L 650.4369 892.4694 L 687.2464 898.7083 L 687.8703 878.7438 L 693.4853 848.7971 L 702.2197 810.7398 L 707.8347 781.417 L 702.8436 701.559 Z " stroke-width="2.4955599308013916"/>
        <path id="ID0.6829322893172503" fill="#1D1E1F" stroke="none" stroke-linecap="round" d="M 688.4941 897.4605 L 656.6758 881.8632 L 646.6935 898.7083 L 634.2157 916.8011 L 634.2157 934.27 L 636.0874 948.6195 L 642.3263 957.9778 L 646.6935 978.5662 L 661.043 977.9423 L 664.7863 971.7034 L 669.7774 971.0795 L 679.7597 962.9689 L 690.3658 953.6106 L 696.6047 939.885 L 694.1092 918.0489 L 688.4941 897.4605 Z " stroke-width="2.4955599308013916"/>
        <path id="ID0.47767175547778606" fill="none" stroke="#0D0D0D" stroke-width="4.991119861602783" stroke-linecap="round" d="M 702.8436 713.6625 L 701.9702 701.1847 L 645.0714 732.7535 L 646.0696 775.5524 "/>
        <path id="ID0.5922487881034613" fill="#282A2B" stroke="none" stroke-linecap="round" d="M 705.8068 805.4669 L 684.2203 788.2475 L 665.5036 788.4971 L 646.5373 806.7147 L 650.9045 852.5082 L 665.254 875.5921 L 675.8601 875.5921 L 694.5768 853.1321 L 705.8068 805.4669 Z " stroke-width="2.4955599308013916"/>
        <path id="ID0.36820242274552584" fill="#151616" stroke="none" stroke-linecap="round" d="M 686.7256 813.8858 L 660.7718 813.6362 L 669.0071 848.8236 L 673.6239 848.5741 L 686.7256 813.8858 Z " stroke-width="2.4955599308013916"/>
        <path id="ID0.13569410238415003" fill="none" stroke="#232425" stroke-width="4.991119861602783" stroke-linecap="round" d="M 688.8685 847.6741 L 671.3996 869.635 L 655.428 847.175 "/>
        <path id="ID0.024502143263816833" fill="none" stroke="#0D0D0D" stroke-width="4.991119861602783" stroke-linecap="round" d="M 704.4657 804.7504 L 685.1251 788.5293 L 666.658 787.7806 L 647.4422 805.9982 L 650.1873 832.2016 "/>
      </g>
    </g>
    <path id="ID0.4270821204409003" fill="#3E4246" stroke="none" stroke-linecap="round" d="M 522.5323 880.5663 L 521.7557 535.9195 L 574.8032 543.4989 L 595.6294 557.0324 L 604.1028 569.5816 L 624.8396 604.9483 L 621.9923 636.914 L 618.7347 653.5866 L 623.3893 674.7906 L 624.4969 691.5538 L 617.511 712.516 L 612.2315 728.4188 L 608.0047 756.7166 L 611.1982 823.7439 L 594.9625 848.5171 L 579.945 867.2018 L 522.5323 880.5663 Z " stroke-width="1.4553596241029623"/>
    <g id="ID0.9602425838820636">
      <g id="ID0.17693647183477879">
        <path id="ID0.7729651997797191" fill="#3E4246" stroke="none" stroke-linecap="round" d="M 374.8748 611.2211 L 436.6399 614.9644 L 425.4099 666.7473 L 416.6754 708.5479 L 404.8215 726.0169 L 394.2154 736.623 L 355.5342 726.0169 L 351.167 707.924 L 368.012 646.7828 L 374.8748 611.2211 Z " stroke-width="2.4955599308013916"/>
        <path id="ID0.9716172609478235" fill="#393C40" stroke="none" stroke-linecap="round" d="M 387.6021 629.0644 L 372.6288 621.8272 L 378.3686 601.8628 L 433.3957 631.5599 L 424.1621 640.7935 L 407.3171 646.5333 L 387.6021 629.0644 Z " stroke-width="2.4955599308013916"/>
        <g id="ID0.38066427363082767">
          <path id="ID0.4757494777441025" fill="#1D1E1F" stroke="none" stroke-linecap="round" d="M 403.5138 534.7598 L 429.7102 528.2107 L 478.4648 543.1281 L 453.3598 620.9898 L 421.7058 636.2711 L 407.8799 639.5457 L 398.0562 632.2689 L 389.324 623.1729 L 371.8597 615.1684 L 371.4959 598.4318 L 373.6789 573.6906 L 383.5026 548.2218 L 403.5138 534.7598 Z " stroke-width="1.4553595781326294"/>
          <path id="ID0.6007084371522069" fill="none" stroke="#0D0D0D" stroke-width="2.910719156265259" stroke-linecap="round" d="M 373.3151 616.2599 L 388.9602 623.1729 L 402.0584 634.4519 L 407.8799 639.9095 L 421.7058 636.2711 L 435.1678 629.3581 "/>
        </g>
      </g>
      <g id="ID0.7397577832452953">
        <path id="ID0.6726378230378032" fill="#393C40" stroke="none" stroke-linecap="round" d="M 353.1386 698.8896 L 402.6755 726.5903 L 400.1799 733.5779 L 351.8908 705.378 L 353.1386 698.8896 Z " stroke-width="2.4955599308013916"/>
        <path id="ID0.6507829907350242" fill="#1D1E1F" stroke="none" stroke-linecap="round" d="M 343.0564 702.309 L 401.0782 733.5035 L 399.8304 791.5253 L 393.5915 823.9676 L 393.5915 873.2549 L 395.4631 893.2194 L 358.6536 899.4583 L 358.0297 879.4938 L 352.4147 849.5471 L 343.6803 811.4898 L 338.0653 782.167 L 343.0564 702.309 Z " stroke-width="2.4955599308013916"/>
        <path id="ID0.6829322893172503" fill="#1D1E1F" stroke="none" stroke-linecap="round" d="M 357.4059 898.2105 L 389.2242 882.6132 L 399.2065 899.4583 L 411.6843 917.5511 L 411.6843 935.02 L 409.8126 949.3695 L 403.5737 958.7278 L 399.2065 979.3162 L 384.857 978.6923 L 381.1137 972.4534 L 376.1226 971.8295 L 366.1403 963.7189 L 355.5342 954.3606 L 349.2953 940.635 L 351.7908 918.7989 L 357.4059 898.2105 Z " stroke-width="2.4955599308013916"/>
        <path id="ID0.47767175547778606" fill="none" stroke="#0D0D0D" stroke-width="4.991119861602783" stroke-linecap="round" d="M 343.0564 714.4125 L 343.9298 701.9347 L 400.8286 733.5035 L 399.8304 776.3024 "/>
        <path id="ID0.5922487881034613" fill="#282A2B" stroke="none" stroke-linecap="round" d="M 339.9432 806.2169 L 361.5297 788.9975 L 380.2464 789.2471 L 399.2127 807.4647 L 394.8455 853.2582 L 380.496 876.3421 L 369.8899 876.3421 L 351.1732 853.8821 L 339.9432 806.2169 Z " stroke-width="2.4955599308013916"/>
        <path id="ID0.36820242274552584" fill="#151616" stroke="none" stroke-linecap="round" d="M 359.1244 814.6358 L 385.0782 814.3862 L 376.8429 849.5736 L 372.2261 849.3241 L 359.1244 814.6358 Z " stroke-width="2.4955599308013916"/>
        <path id="ID0.13569410238415003" fill="none" stroke="#232425" stroke-width="4.991119861602783" stroke-linecap="round" d="M 357.0315 848.4241 L 374.5004 870.385 L 390.472 847.925 "/>
        <path id="ID0.024502143263816833" fill="none" stroke="#0D0D0D" stroke-width="4.991119861602783" stroke-linecap="round" d="M 341.4343 805.5004 L 360.7749 789.2793 L 379.242 788.5306 L 398.4578 806.7482 L 395.7127 832.9516 "/>
      </g>
    </g>
    <path id="ID0.4270821204409003" fill="#3E4246" stroke="none" stroke-linecap="round" d="M 522.7677 880.7163 L 523.5443 536.0695 L 470.4968 543.6489 L 449.6706 557.1824 L 441.1972 569.7316 L 420.4604 605.0983 L 423.3077 637.064 L 426.5653 653.7366 L 421.9107 674.9406 L 420.8031 691.7038 L 427.789 712.666 L 433.0685 728.5688 L 437.2953 756.8666 L 434.1018 823.8939 L 450.3375 848.6671 L 465.355 867.3518 L 522.7677 880.7163 Z " stroke-width="1.4553596241029623"/>
    <g id="ID0.3168069599196315">
      <path id="ID0.3809091211296618" fill="#3E4246" stroke="none" stroke-linecap="round" d="M 535.8377 805.3052 L 438.8986 745.6527 L 429.6253 888.6436 L 418.8109 965.9498 L 434.922 1020.508 L 461.2908 1028.5536 L 500.8831 1032.4981 L 502.9045 965.9814 L 508.2176 925.3203 L 535.8377 805.3052 Z " stroke-width="2.233090902777266"/>
      <g id="ID0.38464318960905075">
        <path id="ID0.5368814701214433" fill="#303436" stroke="none" stroke-linecap="round" d="M 512.8312 1286.6342 L 504.0181 1259.6448 L 490.2975 1231.381 L 459.8047 1249.2862 L 425.3693 1272.6235 L 371.9955 1304.2354 L 368.6991 1324.1505 L 444.1882 1327.7541 L 509.1249 1316.5477 L 512.8312 1286.6342 Z " stroke-width="2.354214989347851"/>
        <path id="ID0.05466862628236413" fill="#303436" stroke="none" stroke-linecap="round" d="M 504.2132 1012.0975 L 423.457 999.5136 L 437.7899 1057.2842 L 442.449 1072.7384 L 443.7045 1128.1781 L 452.253 1252.4469 L 500.1025 1258.6688 L 507.4613 1191.0619 L 516.0672 1164.7548 L 520.4223 1135.9859 L 514.4726 1094.6365 L 514.8404 1056.9778 L 504.2132 1012.0975 Z " stroke-width="2.233090902777266"/>
        <path id="ID0.4490455654449761" fill="none" stroke="#272A2B" stroke-width="5.069469299445694" stroke-linecap="round" d="M 505.0987 1014.7159 L 424.3854 1000.9514 L 444.397 1075.7586 "/>
        <path id="ID0.10446935473009944" fill="none" stroke="#242728" stroke-width="5.069469299445694" stroke-linecap="round" d="M 445.064 1113.4614 L 445.064 1164.9287 L 477.0825 1187.6701 "/>
        <path id="ID0.42170455446466804" fill="none" stroke="#242728" stroke-width="5.069469299445694" stroke-linecap="round" d="M 448.3993 1168.5195 L 452.4016 1214.6007 L 485.0871 1237.9405 "/>
        <path id="ID0.047098892275244" fill="none" stroke="#242728" stroke-width="5.069469299445694" stroke-linecap="round" d="M 513.9886 1058.1048 L 515.3227 1070.074 L 501.3146 1097.0046 "/>
      </g>
    </g>
    <path id="ID0.052435632329434156" fill="#393C40" stroke="none" stroke-linecap="round" d="M 462.1941 769.5689 L 475.7958 769.9969 L 495.7397 780.4552 L 511.2465 780.2677 L 529.103 786.0973 L 556.2711 781.6394 L 575.9196 771.2754 L 590.7474 772.2384 L 595.9317 781.9535 L 565.175 794.4887 L 547.0066 793.1652 L 529.7164 802.1225 L 509.5694 790.9321 L 489.8991 791.8337 L 459.9486 779.5664 L 462.1941 769.5689 Z " stroke-width="1.4553596241029623"/>
    <path id="ID0.4987568911164999" fill="none" stroke="#27282B" stroke-width="2.9107192482059245" stroke-linecap="round" d="M 467.021 543.4139 L 446.9851 561.9216 L 430.1465 591.1949 "/>
    <path id="ID0.2889464790932834" fill="none" stroke="#27282B" stroke-width="2.9107192482059245" stroke-linecap="round" d="M 580.751 548.1988 L 597.9699 560.2017 L 614.8412 588.9377 "/>
    <path id="ID0.8373676878400147" fill="#000000" stroke="#2C2F31" stroke-width="1.8813461484817318" stroke-linecap="round" d="M 475.281 582.2658 L 476.4299 577.6089 L 465.252 580.1715 L 450.2153 590.0951 L 437.2979 605.2919 L 429.4759 622.3634 L 445.3058 615.7707 L 459.6683 615.7039 L 468.0109 618.6647 L 475.6013 627.9479 L 482.091 624.9412 L 494.3599 624.3104 L 508.0956 627.7467 L 519.659 637.6775 L 525.8292 647.1329 L 532.5909 638.0178 L 544.0721 628.6421 L 556.7329 624.4978 L 572.4945 624.7287 L 578.0597 626.6242 L 583.4222 617.2115 L 589.4734 613.4791 L 597.3985 615.2443 L 605.8819 620.33 L 601.6957 608.609 L 594.9356 596.538 L 586.4055 587.213 L 576.8311 580.1955 L 563.0745 577.229 L 569.6366 583.1708 L 569.396 588.5743 L 564.4045 594.9433 L 553.4196 598.4561 L 543.735 599.202 L 535.7262 599.3162 L 530.2579 586.7848 L 526.7625 594.4446 L 522.2987 594.2458 L 517.6893 586.7432 L 514.5297 599.5496 L 502.0468 599.7001 L 489.4753 596.551 L 479.316 592.0969 L 475.281 582.2658 Z "/>
    <path id="ID0.5698574706912041" fill="none" stroke="#313537" stroke-width="2.9107192482059245" stroke-linecap="round" d="M 460.5864 769.0551 L 458.5637 778.8389 L 488.4915 792.1975 L 509.2486 791.5368 L 527.5964 801.7436 "/>
    <path id="ID0.5698574706912041" fill="none" stroke="#313537" stroke-width="2.730447659226277" stroke-linecap="round" d="M 590.985 772.6166 L 593.253 782.5623 L 562.421 794.5864 L 544.3686 793.1198 L 527.9922 802.6055 "/>
    <path id="ID0.8947288258932531" fill="#393C40" stroke="none" stroke-linecap="round" d="M 463.9962 732.6165 L 485.4657 732.6985 L 508.4073 738.9975 L 525.3719 756.2356 L 503.9697 742.399 L 471.1808 737.1328 L 455.3472 746.0475 L 463.9962 732.6165 Z " stroke-width="1.4553596241029623"/>
    <path id="ID0.9897695370018482" fill="#393C40" stroke="none" stroke-linecap="round" d="M 473.7673 770.303 L 453.7906 768.4325 L 455.3947 754.273 L 458.8103 765.0432 L 474.3702 765.803 L 492.9182 776.8873 L 509.6739 776.1435 L 522.0966 780.7685 L 526.8148 756.8479 L 526.9199 786.8369 L 509.95 780.3707 L 491.9802 779.9976 L 473.7673 770.303 Z " stroke-width="1.4553596241029623"/>
    <path id="ID0.9214867809787393" fill="#393C40" stroke="none" stroke-linecap="round" d="M 464.2425 720.7579 L 473.6039 708.0696 L 488.2148 705.4617 L 470.0883 719.642 L 469.175 728.5754 L 484.5955 729.0412 L 509.3455 739.3809 L 482.0388 732.9912 L 464.1417 732.6196 L 464.2425 720.7579 Z " stroke-width="1.4553596241029623"/>
    <path id="ID0.8679121839813888" fill="#2C2F31" stroke="none" stroke-linecap="round" d="M 513.8706 661.6692 L 525.4083 666.8581 L 535.6978 662.0496 L 538.5475 665.0202 L 526.3742 672.9192 L 508.9101 665.7148 L 513.8706 661.6692 Z " stroke-width="1.4553596241029623"/>
    <path id="ID0.20603158557787538" fill="none" stroke="#313537" stroke-width="2.9107192482059245" stroke-linecap="round" d="M 422.4765 635.8642 L 445.8057 658.5476 L 483.4329 669.1548 L 505.6602 667.7968 L 524.825 656.1854 "/>
    <path id="ID0.24770551454275846" fill="none" stroke="#363A3D" stroke-width="2.9107190098387337" stroke-linecap="round" d="M 435.7897 740.8723 L 466.2556 731.8247 "/>
    <path id="ID0.24770551454275846" fill="none" stroke="#363A3D" stroke-width="2.9107190098387337" stroke-linecap="round" d="M 427.2898 704.3169 L 490.1056 686.6247 "/>
    <path id="ID0.753661650698632" fill="none" stroke="#313537" stroke-width="2.9107190098387337" stroke-linecap="round" d="M 509.2784 665.2889 L 525.1328 672.8965 L 537.6669 665.1505 "/>
    <g id="ID0.8167418288066983">
      <path id="ID0.9553722990676761" fill="none" stroke="#313537" stroke-width="3.1816089769462326" stroke-linecap="round" d="M 526.3538 719.0968 L 509.3376 712.1929 L 490.591 705.9809 L 475.9513 708.5883 L 464.9592 721.4611 L 464.7401 732.0102 "/>
      <path id="ID0.5982440118677914" fill="none" stroke="#313537" stroke-width="2.6104308036925574" stroke-linecap="round" d="M 491.5588 704.7549 L 488.2571 688.5036 L 504.7105 667.2683 "/>
    </g>
    <path id="ID0.04993448918685317" fill="none" stroke="#313537" stroke-width="2.9107190098387337" stroke-linecap="round" d="M 525.5904 672.3827 L 527.1082 704.439 L 527.5209 754.6683 L 527.2135 804.5188 "/>
    <path id="ID0.9286923445761204" fill="#27282B" stroke="none" stroke-linecap="round" d="M 487.2421 435.9941 L 544.7288 440.5057 L 522.9712 498.2107 L 523.9172 570.9059 L 410.8357 533.1394 L 471.597 500.7576 L 487.2421 435.9941 Z " stroke-width="1.455359697341919"/>
    <path id="ID0.9286923445761204" fill="#27282B" stroke="none" stroke-linecap="round" d="M 557.2579 436.5941 L 499.7712 441.1057 L 521.5288 498.8107 L 523.4936 571.1421 L 633.6643 533.7394 L 572.903 501.3576 L 557.2579 436.5941 Z " stroke-width="1.455359697341919"/>
    <path id="ID0.20603158557787538" fill="none" stroke="#313537" stroke-width="2.9107192482059245" stroke-linecap="round" d="M 620.2467 635.2968 L 604.6443 658.5476 L 567.0171 669.1548 L 544.7898 667.7968 L 525.625 656.1854 "/>
    <path id="ID0.24770551454275846" fill="none" stroke="#363A3D" stroke-width="2.9107190098387337" stroke-linecap="round" d="M 609.2185 740.8752 L 590.5944 734.2747 "/>
    <path id="ID0.24770551454275846" fill="none" stroke="#363A3D" stroke-width="2.9107190098387337" stroke-linecap="round" d="M 619.6844 705.2974 L 566.2944 689.3747 "/>
    <path id="ID0.8947288258932531" fill="#393C40" stroke="none" stroke-linecap="round" d="M 588.1297 735.303 L 564.1518 735.7485 L 542.109 742.0475 L 525.809 759.2856 L 546.3728 745.449 L 577.8771 740.1828 L 593.0904 749.0975 L 588.1297 735.303 Z " stroke-width="1.4271362860366292"/>
    <path id="ID0.9897695370018482" fill="#393C40" stroke="none" stroke-linecap="round" d="M 575.8355 772.1268 L 594.1161 770.2761 L 592.6335 756.1153 L 589.5187 766.8818 L 575.2791 767.6263 L 558.3155 778.6921 L 542.9801 777.9318 L 531.6157 782.5444 L 527.2731 758.6196 L 527.2077 788.6079 L 542.7317 782.1586 L 559.1772 781.8032 L 575.8355 772.1268 Z " stroke-width="1.3949947494523087"/>
    <path id="ID0.9214867809787393" fill="#393C40" stroke="none" stroke-linecap="round" d="M 588.1936 721.9579 L 579.1989 709.2696 L 565.1604 706.6617 L 582.5768 720.842 L 583.4544 729.7754 L 568.638 730.2412 L 544.8575 740.5809 L 571.0945 734.1912 L 588.2904 733.8196 L 588.1936 721.9579 Z " stroke-width="1.4271362860366292"/>
    <path id="ID0.3567589442245662" fill="none" stroke="#313537" stroke-width="2.7410199724279223" stroke-linecap="round" d="M 526.6812 756.7787 L 542.6741 741.899 L 564.8952 735.3732 L 588.6058 734.1916 L 593.9064 753.2982 L 594.6775 771.6557 L 576.2644 773.6024 L 554.6107 783.6336 L 543.1749 782.5227 L 526.6104 787.9286 L 508.9162 779.9189 L 491.8162 780.2917 L 472.3681 770.4259 L 453.1528 767.8434 L 454.6223 746.4027 L 462.7235 732.3781 L 481.9201 732.7768 L 507.2667 739.1258 L 524.7398 754.7004 Z "/>
    <g id="ID0.8167418288066983">
      <path id="ID0.9553722990676761" fill="none" stroke="#313537" stroke-width="3.1816089769462326" stroke-linecap="round" d="M 527.4962 719.3968 L 544.5124 712.4929 L 563.259 706.2809 L 577.8987 708.8883 L 588.8908 721.7611 L 589.1099 732.3102 "/>
      <path id="ID0.5982440118677914" fill="none" stroke="#313537" stroke-width="2.6104308036925574" stroke-linecap="round" d="M 562.0912 705.0549 L 565.3929 688.8036 L 548.9395 667.5683 "/>
    </g>
    <g id="ID0.2217248771339655">
      <path id="ID0.2888958193361759" fill="#393C40" stroke="none" stroke-linecap="round" d="M 465.3116 792.7654 L 493.4014 799.1059 L 491.5919 807.1224 L 463.5021 800.7819 L 465.3116 792.7654 Z " stroke-width="1.3149089507714182"/>
      <g id="ID0.8823104286566377">
        <path id="ID0.2888958193361759" fill="#393C40" stroke="none" stroke-linecap="round" d="M 435.7067 786.5986 L 467.2514 794.0559 L 465.4419 802.0724 L 435.3226 794.8694 L 435.7067 786.5986 Z " stroke-width="1.3149089507714182"/>
        <g id="ID0.36424446757882833">
          <path id="ID0.7359844641759992" fill="#8A7B59" stroke="none" d="M 473.2783 791.2123 L 477.4851 791.2996 L 477.1275 808.5212 L 472.9207 808.4339 L 473.2783 791.2123 Z " stroke-width="1.3149089148292419"/>
          <path id="ID0.7359844641759992" fill="#8A7B59" stroke="none" d="M 468.0783 789.8123 L 472.2851 789.8996 L 471.9275 807.1212 L 467.7207 807.0339 L 468.0783 789.8123 Z " stroke-width="1.3149089148292419"/>
          <path id="ID0.7359844641759992" fill="#8A7B59" stroke="none" d="M 462.5783 787.9623 L 466.7851 788.0496 L 466.4275 805.2712 L 462.2207 805.1839 L 462.5783 787.9623 Z " stroke-width="1.3149089148292419"/>
          <path id="ID0.7359844641759992" fill="#8A7B59" stroke="none" d="M 478.4783 792.5623 L 482.6851 792.6496 L 482.3275 809.8712 L 478.1207 809.7839 L 478.4783 792.5623 Z " stroke-width="1.3149089148292419"/>
        </g>
        <g id="ID0.1049797898158431">
          <path id="ID0.08871637750416994" fill="#8A7B59" stroke="none" stroke-linecap="round" d="M 440.5694 784.9039 L 458.1911 788.1632 L 457.7388 803.6073 L 440.7759 800.2959 L 440.5694 784.9039 Z " stroke-width="1.3149089148292419"/>
          <path id="ID0.13805592898279428" fill="#76694C" stroke="none" stroke-linecap="round" d="M 439.9688 784.0689 L 458.445 787.346 L 458.5427 795.305 L 440.0063 791.7636 L 439.9688 784.0689 Z " stroke-width="1.3149089148292419"/>
          <path id="ID0.3221200187690556" fill="#61563F" stroke="none" stroke-linecap="round" d="M 447.4499 790.3464 L 449.8548 791.3956 L 449.9681 796.2513 L 447.3477 795.2691 L 447.4499 790.3464 Z " stroke-width="1.4271573298430154"/>
          <path id="ID0.1420820001512766" fill="#BAA578" stroke="none" stroke-linecap="round" d="M 455.8591 800.8861 L 457.9129 796.9832 L 457.912 803.3618 L 440.682 800.2421 L 455.8591 800.8861 Z " stroke-width="1.3149089148292419"/>
        </g>
      </g>
    </g>
    <g id="ID0.2217248771339655">
      <path id="ID0.2888958193361759" fill="#393C40" stroke="none" stroke-linecap="round" d="M 583.0526 795.417 L 557.9221 801.0895 L 559.541 808.2615 L 584.6715 802.589 L 583.0526 795.417 Z " stroke-width="1.1763792052446838"/>
      <g id="ID0.8823104286566377">
        <path id="ID0.2888958193361759" fill="#393C40" stroke="none" stroke-linecap="round" d="M 609.6935 789.6679 L 581.4721 796.3395 L 583.091 803.5115 L 610.0371 797.0673 L 609.6935 789.6679 Z " stroke-width="1.1763792052446838"/>
        <g id="ID0.36424446757882833">
          <path id="ID0.7359844641759992" fill="#8A7B59" stroke="none" d="M 575.9562 793.7216 L 572.1926 793.7998 L 572.5125 809.207 L 576.2761 809.1289 L 575.9562 793.7216 Z " stroke-width="1.176379200326733"/>
          <path id="ID0.7359844641759992" fill="#8A7B59" stroke="none" d="M 580.7062 792.6716 L 576.9426 792.7498 L 577.2625 808.157 L 581.0261 808.0789 L 580.7062 792.6716 Z " stroke-width="1.176379200326733"/>
          <path id="ID0.7359844641759992" fill="#8A7B59" stroke="none" d="M 585.4562 790.9716 L 581.6926 791.0498 L 582.0125 806.457 L 585.7761 806.3789 L 585.4562 790.9716 Z " stroke-width="1.176379200326733"/>
          <path id="ID0.7359844641759992" fill="#8A7B59" stroke="none" d="M 571.4062 795.1216 L 567.6426 795.1998 L 567.9625 810.607 L 571.7261 810.5289 L 571.4062 795.1216 Z " stroke-width="1.176379200326733"/>
        </g>
        <g id="ID0.1049797898158431">
          <path id="ID0.08871637750416994" fill="#8A7B59" stroke="none" stroke-linecap="round" d="M 605.2088 788.1201 L 589.4436 791.036 L 589.8482 804.8531 L 605.0241 801.8905 L 605.2088 788.1201 Z " stroke-width="1.176379200326733"/>
          <path id="ID0.13805592898279428" fill="#76694C" stroke="none" stroke-linecap="round" d="M 605.7354 787.4363 L 589.2058 790.3681 L 589.1183 797.4886 L 605.7019 794.3203 L 605.7354 787.4363 Z " stroke-width="1.176379200326733"/>
          <path id="ID0.3221200187690556" fill="#61563F" stroke="none" stroke-linecap="round" d="M 599.0471 793.0048 L 596.8956 793.9434 L 596.7942 798.2876 L 599.1386 797.4088 L 599.0471 793.0048 Z " stroke-width="1.2768018891816488"/>
          <path id="ID0.1420820001512766" fill="#BAA578" stroke="none" stroke-linecap="round" d="M 591.5192 802.6159 L 589.6818 799.1242 L 589.6826 804.8308 L 605.0974 802.0398 L 591.5192 802.6159 Z " stroke-width="1.176379200326733"/>
        </g>
      </g>
    </g>
    <g id="ID0.6836685389280319">
      <path id="ID0.09357938077300787" fill="#857656" stroke="none" d="M 498.3401 793.0912 L 553.2799 793.1652 L 553.2534 812.8126 L 498.3136 812.7385 L 498.3401 793.0912 Z " stroke-width="1.3092237550081451"/>
      <path id="ID0.6492703901603818" fill="#7C6E50" stroke="none" stroke-linecap="round" d="M 500.2971 799.8158 L 525.3893 809.3094 L 552.399 799.886 L 552.3814 812.9115 L 500.2796 812.8412 L 500.2971 799.8158 Z " stroke-width="1.4553594693393883"/>
      <g id="ID0.9254062357358634">
        <g id="ID0.49943465692922473">
          <path id="ID0.140373723115772" fill="#968561" stroke="none" d="M 548.4843 789.5778 L 564.1294 789.5989 L 564.0922 817.2507 L 548.4471 817.2296 L 548.4843 789.5778 Z " stroke-width="1.4553594693393883"/>
          <path id="ID0.8286363878287375" fill="#BAA578" stroke="none" stroke-linecap="round" d="M 548.4069 789.0384 L 564.4148 789.7876 L 551.7501 792.0991 L 548.6122 798.644 L 548.4069 789.0384 Z " stroke-width="1.4553594693393883"/>
          <path id="ID0.7362233307212591" fill="#8A7B59" stroke="none" stroke-linecap="round" d="M 548.4545 807.6671 L 556.7499 807.8238 L 564.255 800.4116 L 564.2319 817.512 L 548.4413 817.4907 L 548.4545 807.6671 Z " stroke-width="1.4553594693393883"/>
        </g>
        <g id="ID0.49943465692922473">
          <path id="ID0.140373723115772" fill="#968561" stroke="none" d="M 502.4222 790.1843 L 486.7771 790.1633 L 486.7398 817.8151 L 502.3849 817.8361 L 502.4222 790.1843 Z " stroke-width="1.4553594693393883"/>
          <path id="ID0.8286363878287375" fill="#BAA578" stroke="none" stroke-linecap="round" d="M 502.4483 789.5925 L 486.4384 790.2986 L 499.0968 792.6443 L 502.217 799.1976 L 502.4483 789.5925 Z " stroke-width="1.4553594693393883"/>
          <path id="ID0.7362233307212591" fill="#8A7B59" stroke="none" stroke-linecap="round" d="M 502.3504 808.221 L 494.0547 808.3554 L 486.5696 800.923 L 486.5465 818.0234 L 502.3372 818.0447 L 502.3504 808.221 Z " stroke-width="1.4553594693393883"/>
        </g>
      </g>
    </g>
    <path id="ID0.5448851804248989" fill="none" stroke="#1D1E1F" stroke-width="2.910719394683838" stroke-linecap="round" d="M 476.4131 479.1978 L 473.0657 499.7183 L 524.8765 520.2389 L 572.0302 500.446 L 568.9739 481.7446 "/>
    <path id="ID0.262191956397146" fill="none" stroke="#1D1E1F" stroke-width="2.910719394683838" stroke-linecap="round" d="M 484.4041 492.6335 L 523.2622 511.5532 L 563.7212 491.9058 "/>
    <g id="ID0.30767992651090026">
      <path id="ID0.3245162623934448" fill="#2E3034" stroke="none" stroke-linecap="round" d="M 524.191 366.5844 C 534.1431 366.5844 543.16 374.6171 549.6888 387.5922 C 556.2176 400.5673 558.5314 421.1105 560.2584 438.2608 C 562.022 455.7719 567.8356 474.8387 560.7169 490.8337 C 555.2303 503.1578 540.1126 512.5445 526.3305 513.2995 C 513.3157 514.0239 497.608 506.4741 491.4857 494.6544 C 482.8357 477.9503 486.8581 457.2146 488.1235 438.2608 C 489.2728 421.0646 492.1643 400.5673 498.6931 387.5922 C 505.2219 374.6171 514.2388 366.5844 524.191 366.5844 Z " stroke-width="3.056562662124634"/>
      <g id="ID0.9831569031812251">
        <path id="ID0.0877610077150166" fill="#2E3034" stroke="none" stroke-linecap="round" d="M 563.043 340.1093 L 549.0673 300.0176 L 549.0673 387.217 L 572.5153 387.217 L 563.043 340.1093 Z " stroke-width="1.7930000281881437"/>
        <path id="ID0.796130308881402" fill="#242628" stroke="none" stroke-linecap="round" d="M 563.9799 339.948 L 548.9173 299.8563 L 559.7872 342.1531 L 562.66 387.6572 L 572.3653 386.7551 L 563.9799 339.948 Z " stroke-width="1.7930000281881437"/>
      </g>
      <g id="ID0.9831569031812251">
        <path id="ID0.0877610077150166" fill="#2E3034" stroke="none" stroke-linecap="round" d="M 483.007 339.6593 L 496.9827 299.5676 L 496.9827 386.767 L 473.5347 386.767 L 483.007 339.6593 Z " stroke-width="1.7930000281881437"/>
        <path id="ID0.796130308881402" fill="#242628" stroke="none" stroke-linecap="round" d="M 481.7701 339.648 L 496.8327 299.5563 L 485.9628 341.8531 L 482.6242 386.3549 L 473.3847 386.4551 L 481.7701 339.648 Z " stroke-width="1.7930000281881437"/>
      </g>
      <path id="ID0.8999492498114705" fill="#2E3034" stroke="none" stroke-linecap="round" d="M 539.9166 355.4738 C 552.9093 359.286 567.8415 365.2226 574.3588 377.091 C 581.7954 390.6411 575.8418 407.7535 576.758 423.0227 C 577.2875 428.2294 579.7099 433.5867 578.699 438.5511 C 576.6399 448.6493 571.5233 457.9074 568.2173 467.667 C 566.0511 474.0632 565.579 481.2607 562.0059 487.0776 C 557.984 493.963 553.1252 501.4368 545.9339 504.9354 C 540.3965 507.6249 532.4071 508.3796 527.6103 504.6248 C 523.7965 501.6402 527.2904 494.8652 526.1351 490.1057 C 525.132 484.2328 521.1722 478.936 521.166 472.8691 C 521.1551 455.9834 526.8556 439.3679 526.9115 422.4792 C 526.9721 403.9071 527.9954 384.8117 521.9424 367.4307 C 519.6271 360.7814 500.628 359.0329 503.9294 357.0266 C 509.046 353.4333 528.4054 352.0963 539.9166 355.4738 Z " stroke-width="1.5528477430343628"/>
      <path id="ID0.8999492498114705" fill="#2E3034" stroke="none" stroke-linecap="round" d="M 506.9334 355.0238 C 493.9314 358.8034 479.0085 364.7726 472.4912 376.641 C 465.0546 390.1911 471.0082 407.3035 470.092 422.5727 C 469.5625 427.7794 467.1401 433.1367 468.151 438.1011 C 470.2101 448.1993 475.3267 457.4574 478.6327 467.217 C 480.7989 473.6132 481.271 480.8107 484.8441 486.6276 C 488.866 493.513 493.7248 500.9868 500.9161 504.4854 C 506.4535 507.1749 514.4429 507.9296 519.2397 504.1748 C 523.0535 501.1902 519.5596 494.4152 520.7149 489.6557 C 521.718 483.7828 525.6778 478.486 525.684 472.4191 C 525.6949 455.5334 519.9944 438.9179 519.9385 422.0292 C 519.8779 403.4571 520.2583 384.7857 524.9076 366.9807 C 526.1607 362.1948 540.3382 360.1684 537.5633 358.2071 C 531.3503 354.1899 516.4849 352.2504 506.9334 355.0238 Z " stroke-width="1.5528477430343628"/>
      <path id="ID0.45774566335603595" fill="#AB8E85" stroke="none" stroke-linecap="round" d="M 524.7843 464.0888 C 531.2153 464.0888 535.9225 467.9523 541.2592 470.4037 C 546.1253 472.6411 555.3102 473.0629 555.2735 478.6075 C 555.3102 487.2637 547.7147 494.7339 541.2592 500.8715 C 537.0014 504.9184 531.2153 507.1863 524.7843 507.1863 C 518.3533 507.1863 512.8423 504.6096 508.3095 500.8715 C 502.0374 495.7028 494.0047 489.6172 494.1423 481.664 C 494.0047 475.5754 502.9421 473.3838 508.3095 470.4037 C 513.4445 467.5488 518.3533 464.0888 524.7843 464.0888 Z " stroke-width="3.056562662124634"/>
      <path id="ID0.6934182443656027" fill="#AB8E85" stroke="none" stroke-linecap="round" d="M 482.3745 446.972 L 522.874 459.5039 L 565.9715 445.7494 L 556.8018 466.3812 L 555.2735 480.1357 L 494.6008 482.1225 L 491.0857 463.3247 L 482.3745 446.972 Z " stroke-width="3.056562662124634"/>
      <path id="ID0.2542315670289099" fill="#27282B" stroke="none" d="M 603.9672 284.3629 L 604.5786 284.3629 L 604.5786 284.3629 L 603.9672 284.3629 L 603.9672 284.3629 Z " stroke-width="3.056562662124634"/>
      <path id="ID0.8256730306893587" fill="none" stroke="#937B73" stroke-width="3.1056955475959676" stroke-linecap="round" d="M 506.0496 477.6928 C 506.0496 477.6928 514.3489 476.1078 518.5364 475.6442 C 519.5837 475.5283 520.6107 475.7955 521.6342 475.9663 C 522.6746 476.1408 523.6657 476.6819 524.7207 476.6766 C 526.812 476.6668 528.8736 476.1234 530.9563 475.9239 C 531.9891 475.8247 533.0309 475.7382 534.0674 475.7804 C 535.1055 475.8227 536.1577 475.9151 537.1629 476.1802 C 538.8157 476.6161 542.0077 477.8731 542.0077 477.8731 "/>
      <path id="ID0.7592270169407129" fill="none" stroke="#937B73" stroke-width="3.1056955475959676" stroke-linecap="round" d="M 532.8973 482.7395 C 532.8973 482.7395 530.9671 483.7388 529.9124 483.8964 C 528.8888 484.0502 527.8445 483.5774 526.8124 483.6518 C 525.7741 483.7276 524.7992 484.2401 523.7633 484.3408 C 522.7335 484.4417 521.6596 484.5102 520.6589 484.2515 C 519.8077 484.0313 518.3663 482.9427 518.3663 482.9427 "/>
      <path id="ID0.6473136460408568" fill="none" stroke="#937B73" stroke-width="3.105695669050948" stroke-linecap="round" d="M 525.5537 495.6351 C 525.5537 495.6351 526.522 497.5756 526.6775 498.6287 C 526.8276 499.6543 526.6441 500.7165 526.4499 501.7348 C 526.1584 503.2692 525.2254 506.2623 525.2254 506.2623 "/>
      <path id="ID0.5030081016011536" fill="#A1887F" stroke="none" stroke-linecap="round" d="M 482.6217 447.7362 L 526.0249 459.9624 L 566.9828 445.5966 L 555.9792 464.8529 L 553.8396 482.8867 L 550.783 464.8529 L 556.5905 454.0021 L 526.3305 463.936 L 490.7216 454.6134 L 495.7649 465.6171 L 493.7782 486.7074 L 490.7216 464.7001 L 482.6217 447.7362 Z " stroke-width="3.056562662124634"/>
      <g id="ID0.7768427198752761">
        <path id="ID0.2278452254831791" fill="none" stroke="#937B73" stroke-width="3.1056954860687256" stroke-linecap="round" d="M 530.1412 446.3308 C 530.1412 446.3308 532.9969 452.0235 534.4116 454.8715 C 534.8852 455.8249 535.407 456.7597 535.8091 457.7442 C 536.2113 458.7287 536.8604 459.7101 536.8185 460.7723 C 536.7766 461.8375 536.1461 462.822 535.5762 463.7227 C 535.1958 464.3252 534.0234 465.1979 534.0234 465.1979 "/>
        <path id="ID0.2278452254831791" fill="none" stroke="#937B73" stroke-width="3.1056954860687256" stroke-linecap="round" d="M 520.8088 446.0308 C 520.8088 446.0308 517.9531 451.7235 516.5384 454.5715 C 516.0648 455.5249 515.543 456.4597 515.1409 457.4442 C 514.7387 458.4287 514.0896 459.4101 514.1315 460.4723 C 514.1734 461.5375 514.8039 462.522 515.3738 463.4227 C 515.7542 464.0252 516.9266 464.8979 516.9266 464.8979 "/>
      </g>
      <g id="ID0.04747973429039121">
        <path id="ID0.28340246016159654" fill="#1C1D1F" stroke="none" stroke-linecap="round" d="M 479.374 418.782 L 490.3596 423.7126 L 525.1327 427.8646 L 521.3267 444.9917 L 499.0961 441.9642 L 486.7266 438.5041 L 480.239 433.6601 L 477.471 428.1241 L 479.374 418.782 Z " stroke-width="1.7300083637237549"/>
        <path id="ID0.6101007834076881" fill="#FFFFFF" stroke="none" stroke-linecap="round" d="M 491.561 427.6108 L 496.855 428.8914 L 508.9625 432.739 L 510.7072 439.0436 L 493.8758 434.3898 L 491.561 427.6108 Z " stroke-width="1.3008029009587065"/>
        <path id="ID0.20071752788498998" fill="#202324" stroke="none" d="M 494.7016 411.8875 L 507.9641 420.1054 L 525.1321 426.5332 L 523.4235 428.3232 L 498.5258 424.255 L 479.6491 416.7694 L 485.1819 411.0739 L 494.7016 411.8875 Z " stroke-width="1.627299427986145"/>
        <path id="ID0.521138689480722" fill="none" stroke="#212325" stroke-width="3.25459885597229" stroke-linecap="round" d="M 480.3714 417.6252 L 492.0066 423.3207 L 522.6812 427.7958 "/>
        <path id="ID0.043594349175691605" fill="#D7E2FD" stroke="none" stroke-linecap="round" d="M 508.2564 435.7314 L 508.9887 432.1513 L 510.616 438.7419 L 502.3167 436.3823 L 508.2564 435.7314 Z " stroke-width="1.627299427986145"/>
      </g>
      <g id="ID0.04747973429039121">
        <path id="ID0.28340246016159654" fill="#1C1D1F" stroke="none" stroke-linecap="round" d="M 569.576 419.082 L 558.5904 424.0126 L 523.8173 428.1646 L 527.6233 445.2917 L 549.8539 442.2642 L 562.2234 438.8041 L 568.711 433.9601 L 571.479 428.4241 L 569.576 419.082 Z " stroke-width="1.7300083637237549"/>
        <path id="ID0.6101007834076881" fill="#FFFFFF" stroke="none" stroke-linecap="round" d="M 557.389 428.0608 L 552.095 429.3414 L 539.9875 433.189 L 538.2428 439.4936 L 555.0742 434.8398 L 557.389 428.0608 Z " stroke-width="1.3008029009587065"/>
        <path id="ID0.20071752788498998" fill="#202324" stroke="none" d="M 554.1984 412.1875 L 540.9359 420.4054 L 523.7679 426.8332 L 525.4765 428.6232 L 550.3742 424.555 L 569.2509 417.0694 L 563.7181 411.3739 L 554.1984 412.1875 Z " stroke-width="1.627299427986145"/>
        <path id="ID0.521138689480722" fill="none" stroke="#212325" stroke-width="3.25459885597229" stroke-linecap="round" d="M 568.5786 417.9252 L 556.9434 423.6207 L 526.2688 428.0958 "/>
        <path id="ID0.043594349175691605" fill="#D7E2FD" stroke="none" stroke-linecap="round" d="M 540.6436 436.0814 L 539.9113 432.5013 L 538.284 439.0919 L 546.5833 436.7323 L 540.6436 436.0814 Z " stroke-width="1.627299427986145"/>
      </g>
      <path id="ID0.17828734638169408" fill="none" stroke="#202324" stroke-width="3.1056954860687256" stroke-linecap="round" d="M 528.5303 437.4397 C 528.5303 437.4397 525.5799 431.2268 524.8811 428.1226 C 524.6497 427.0947 525.3454 426.0605 525.5022 425.0169 C 525.6559 423.989 525.8516 422.9501 525.8128 421.9113 C 525.774 420.8615 525.4712 419.8351 525.2693 418.8056 C 524.9541 417.1984 524.2599 413.9917 524.2599 413.9917 "/>
      <g id="ID0.6393627882935107">
        <path id="ID0.8684103740379214" fill="#27282B" stroke="none" stroke-linecap="round" d="M 525.4447 428.1742 L 543.0199 452.9323 L 523.7636 458.8926 L 506.494 454.0021 L 525.4447 428.1742 Z " stroke-width="3.056562662124634"/>
        <path id="ID0.8012696979567409" fill="none" stroke="#242527" stroke-width="3.1056954860687256" stroke-linecap="round" d="M 554.2941 488.6028 L 556.2352 465.6983 L 566.484 445.4337 L 526.1876 459.4093 L 482.4749 447.2971 L 490.8603 464.5337 L 494.2766 486.2735 "/>
        <path id="ID0.8012696979567409" fill="none" stroke="#242527" stroke-width="3.1056954860687256" stroke-linecap="round" d="M 525.6181 458.5963 L 525.4628 429.0146 "/>
      </g>
    </g>
  </g>
  <path id="ID0.9746242561377585" fill="url(#grad_2-0.8137351870536804,1.3993521928787231,-1.4773262739181519,-0.8590778112411499,1070.35,370.1)" stroke="none" d="M 1070.35 370.1 L 679.7571 1041.7891 L 240.9912 786.6429 L 631.5841 114.9539 L 1070.35 370.1 Z " stroke-width="1.6644607414624646"/>
  <path id="ID0.9746242561377585" fill="url(#grad_3-1.4169244766235352,0.7827364802360535,-0.7654732465744019,-1.3856743574142456,983.85,695.6)" stroke="none" d="M 983.85 695.6 L 303.7263 1071.3135 L 76.3807 659.7682 L 756.5044 284.0547 L 983.85 695.6 Z " stroke-width="1.6009987642037296"/>
</svg>