<svg xmlns="http://www.w3.org/2000/svg" xmlns:xlink="http://www.w3.org/1999/xlink" version="1.1" width="170.1479357743006" height="276.9566973709803" viewBox="-1.1239664536585996 0.39187257171962764 170.1479357743006 276.9566973709803">
  <!-- Exported by Scratch - http://scratch.mit.edu/ -->
  <g id="ID0.840499843005091">
    <g id="ID0.7085462282411754">
      <g id="ID0.5880346246995032">
        <path id="ID0.6829322893172503" fill="#796B5E" stroke="none" stroke-linecap="round" d="M 10.1426 224.2398 L 24.3074 220.0094 L 27.2028 227.7416 L 31.033 236.1718 L 29.7886 243.4519 L 27.9986 249.2984 L 24.7724 252.7534 L 21.5141 261.022 L 15.6715 259.7384 L 14.5802 256.8714 L 12.577 256.2553 L 9.0595 252.1632 L 5.3749 247.5066 L 3.7931 241.3415 L 6.3724 232.4194 L 10.1426 224.2398 Z " stroke-width="1.047168310776844"/>
        <g id="ID0.9434720128774643">
          <path id="ID0.6507829907350242" fill="#2C3134" stroke="none" stroke-linecap="round" d="M 17.1107 140.3752 L 38.6924 157.5142 L 33.3143 178.8008 L 29.1767 194.6807 L 25.6657 215.2209 L 27.0637 224.6204 L 8.0415 224.5792 L 10.6319 215.2842 L 10.4615 202.4035 L 9.5891 185.9203 L 11.463 168.79 L 17.1107 140.3752 Z " stroke-width="1.047168310776844"/>
          <path id="ID0.9892375003546476" fill="none" stroke="#191919" stroke-width="2.565144132804562" stroke-linecap="round" d="M 8.7854 223.5782 L 26.3128 223.0187 L 25.0286 211.6462 "/>
        </g>
      </g>
      <path id="ID0.7729651997797191" fill="#2C3134" stroke="none" stroke-linecap="round" d="M 23.5132 100.977 L 53.7729 100.7969 L 49.912 126.823 L 44.532 140.4104 L 42.4037 152.2262 L 38.9341 163.1391 L 17.6649 158.4905 L 14.9677 149.6702 L 21.2762 118.8224 L 23.5132 100.977 Z " stroke-width="1.229808358252144"/>
      <path id="ID0.4757494777441025" fill="#2C3134" stroke="none" stroke-linecap="round" d="M 38.7118 81.5325 L 50.1118 79.6435 L 70.4377 87.5548 L 57.1603 119.5431 L 43.1432 124.9317 L 37.1325 125.852 L 33.1774 122.4574 L 29.748 118.3322 L 22.5545 114.3766 L 22.9492 107.3088 L 24.6943 96.9515 L 29.7255 86.5416 L 38.7118 81.5325 Z " stroke-width="0.6193390731862156"/>
    </g>
    <g id="ID0.7085462282411754">
      <g id="ID0.5880346246995032">
        <path id="ID0.6829322893172503" fill="#796B5E" stroke="none" stroke-linecap="round" d="M 158.8815 227.5103 L 144.6592 223.4777 L 141.8718 231.2494 L 138.1594 239.7321 L 139.5051 246.9942 L 141.3764 252.8152 L 144.6504 256.225 L 148.0236 264.4474 L 153.8477 263.0825 L 154.8989 260.2005 L 156.8933 259.5566 L 160.3535 255.4159 L 163.9729 250.7084 L 165.4687 244.5219 L 162.7653 235.6366 L 158.8815 227.5103 Z " stroke-width="1.0471682773911808"/>
        <g id="ID0.9434720128774643">
          <path id="ID0.6507829907350242" fill="#2C3134" stroke="none" stroke-linecap="round" d="M 150.6127 143.6661 L 129.2719 161.1041 L 134.9459 182.3137 L 139.3043 198.1344 L 143.1011 218.6238 L 141.8342 228.0418 L 160.854 227.7356 L 158.1344 218.4776 L 158.1253 205.5958 L 158.768 189.102 L 156.6557 171.9995 L 150.6127 143.6661 Z " stroke-width="1.0471682773911808"/>
          <path id="ID0.9892375003546476" fill="none" stroke="#191919" stroke-width="2.5651439252452954" stroke-linecap="round" d="M 160.0903 226.8763 L 142.5567 226.561 L 143.6824 215.1717 "/>
        </g>
      </g>
      <path id="ID0.7729651997797191" fill="#2C3134" stroke="none" stroke-linecap="round" d="M 143.7282 104.3891 L 113.4688 104.6304 L 117.692 130.6003 L 123.2607 144.1114 L 125.5534 155.8964 L 129.1747 166.7599 L 150.3771 161.8155 L 152.9511 152.9585 L 146.2135 122.2015 L 143.7282 104.3891 Z " stroke-width="1.2298084090332497"/>
      <path id="ID0.4757494777441025" fill="#2C3134" stroke="none" stroke-linecap="round" d="M 128.2434 85.1183 L 116.8182 83.3882 L 96.6045 91.5819 L 110.3262 123.3822 L 124.417 128.575 L 130.4399 129.4115 L 134.3474 125.9621 L 137.719 121.7896 L 144.8566 117.7341 L 144.3636 110.6726 L 142.4744 100.3405 L 137.2986 90.0018 L 128.2434 85.1183 Z " stroke-width="0.619339067019053"/>
    </g>
    <g id="ID0.8990198895335197">
      <path id="ID0.17576928716152906" fill="#DBDBDB" stroke="none" d="M 82.9527 76.5925 L 83.2707 76.6023 L 83.2707 76.6023 L 82.9527 76.5925 L 82.9527 76.5925 Z " stroke-width="1.2825747308335271"/>
      <path id="ID0.4270821204409003" fill="#252525" stroke="none" stroke-linecap="round" d="M 82.9881 234.5134 L 85.3855 88.7138 L 63.2104 91.2357 L 54.3669 96.688 L 50.6768 101.8829 L 41.5856 116.5641 L 42.3535 130.1108 L 43.4916 137.1992 L 41.278 146.1011 L 40.5983 153.1718 L 43.232 162.1211 L 45.2217 168.9101 L 46.6115 180.9243 L 44.408 209.212 L 50.8414 219.8908 L 56.8473 227.9807 L 82.9881 234.5134 Z " stroke-width="0.6106883553434233"/>
      <path id="ID0.4270821204409003" fill="#252525" stroke="none" stroke-linecap="round" d="M 80.6041 234.4802 L 84.7775 88.8074 L 106.7548 92.6922 L 115.2452 98.6797 L 118.6078 104.0923 L 126.7762 119.3063 L 125.1742 132.7798 L 123.601 139.7845 L 125.2614 148.806 L 125.5036 155.9052 L 122.3229 164.675 L 119.9183 171.3283 L 117.7901 183.234 L 118.2446 211.6037 L 111.1647 221.8653 L 115.503 243.1348 L 80.6041 234.4802 Z " stroke-width="0.6106883634741141"/>
      <path id="ID0.5114514343440533" fill="#282828" stroke="none" d="M 118.2545 91.3029 L 50.8378 89.2218 L 47.3185 203.2265 L 114.7352 205.3076 L 118.2545 91.3029 Z " stroke-width="1.2935699093428636"/>
      <path id="ID0.9286923445761204" fill="#D4D4D4" stroke="none" stroke-linecap="round" d="M 98.3653 72.9712 L 77.127 48.0884 L 85.4288 72.7566 L 82.2098 124.9904 L 131.6392 88.9595 L 106.4508 74.2059 L 98.3653 72.9712 Z " stroke-width="0.6106884705490362"/>
      <path id="ID0.9286923445761204" fill="#D4D4D4" stroke="none" stroke-linecap="round" d="M 77.6914 70.9794 L 95.9184 49.0695 L 86.1109 73.1787 L 82.9714 124.7993 L 38.9891 86.5005 L 64.6251 72.0229 L 77.6914 70.9794 Z " stroke-width="0.6106884705490362"/>
      <path id="ID0.39874776685610414" fill="#1F2022" stroke="none" stroke-linecap="round" d="M 108.8562 75.4804 L 83.1882 87.4516 L 60.8171 75.1738 L 55.6397 77.7785 L 83.286 92.3365 L 113.5599 78.1548 L 108.8562 75.4804 Z " stroke-width="1.2096530143208386"/>
      <path id="ID0.13444371055811644" fill="#1F1F1F" stroke="none" stroke-linecap="round" d="M 86.0876 89.9138 L 79.4195 89.3847 L 74.7213 126.0921 L 90.0292 127.2112 L 86.0876 89.9138 Z " stroke-width="1.2825747308335271"/>
      <path id="ID0.751046194229275" fill="#191919" stroke="none" stroke-linecap="round" d="M 89.2904 83.5988 L 83.4249 80.7864 L 77.607 83.2382 L 76.7292 93.5233 L 82.2866 94.975 L 88.9724 93.9013 L 89.2904 83.5988 Z " stroke-width="1.4108322337244363"/>
      <path id="ID0.7854711129330099" fill="#282828" stroke="none" stroke-linecap="round" d="M 99.7396 111.9561 L 81.5825 122.7099 L 64.4811 109.5746 L 66.3273 132.2603 L 95.9016 133.1732 L 99.7396 111.9561 Z " stroke-width="1.2825747308335271"/>
      <path id="ID0.562834897544235" fill="#282828" stroke="none" stroke-linecap="round" d="M 118.1945 204.9802 L 79.9454 196.3643 L 79.1379 222.524 L 96.5782 224.6787 L 118.1945 204.9802 Z " stroke-width="1.2825747308335271"/>
      <path id="ID0.562834897544235" fill="#282828" stroke="none" stroke-linecap="round" d="M 40.8283 203.0385 L 79.536 196.7982 L 78.7284 222.9579 L 61.1884 224.0328 L 40.8283 203.0385 Z " stroke-width="1.2825747308335271"/>
      <path id="ID0.6824178956449032" fill="none" stroke="#191919" stroke-width="2.5651494616670543" stroke-linecap="round" d="M 81.9585 123.1025 L 79.2159 222.2609 "/>
      <path id="ID0.4144489667378366" fill="#40474C" stroke="none" stroke-linecap="round" d="M 132.3974 85.1632 L 106.9581 74.0334 L 109.9068 102.2487 L 103.38 179.6313 L 113.6796 237.8141 L 127.8711 231.7868 L 128.0496 236.3181 L 126.1477 174.1921 L 133.9145 118.5066 L 135.8346 97.5535 L 132.3974 85.1632 Z " stroke-width="1.2825747308335271"/>
      <path id="ID0.5234400681219995" fill="#101010" stroke="none" d="M 78.893 130.2981 C 78.3681 130.2819 77.8854 130.4837 77.53 130.823 C 77.1747 131.1624 76.9466 131.6392 76.9301 132.1723 C 76.9137 132.7054 77.1119 133.1954 77.4457 133.556 C 77.7795 133.9166 78.2488 134.1477 78.7737 134.1639 C 79.2986 134.1802 79.7813 133.9784 80.1367 133.639 C 80.4921 133.2997 80.7202 132.8229 80.7366 132.2898 C 80.7531 131.7567 80.5548 131.2667 80.221 130.9061 C 79.8873 130.5455 79.4179 130.3143 78.893 130.2981 Z " stroke-width="0.8080220593322809"/>
      <path id="ID0.5234400681219995" fill="#101010" stroke="none" d="M 78.293 147.8481 C 77.7681 147.8319 77.2854 148.0337 76.93 148.373 C 76.5747 148.7124 76.3466 149.1892 76.3301 149.7223 C 76.3137 150.2554 76.5119 150.7454 76.8457 151.106 C 77.1795 151.4666 77.6488 151.6977 78.1737 151.7139 C 78.6986 151.7302 79.1813 151.5284 79.5367 151.189 C 79.8921 150.8497 80.1202 150.3729 80.1366 149.8398 C 80.1531 149.3067 79.9548 148.8167 79.621 148.4561 C 79.2873 148.0955 78.8179 147.8643 78.293 147.8481 Z " stroke-width="0.8080220593322809"/>
      <path id="ID0.5234400681219995" fill="#101010" stroke="none" d="M 77.043 188.5981 C 76.5181 188.5819 76.0354 188.7837 75.68 189.123 C 75.3247 189.4624 75.0966 189.9392 75.0801 190.4723 C 75.0637 191.0054 75.2619 191.4954 75.5957 191.856 C 75.9295 192.2166 76.3988 192.4477 76.9237 192.4639 C 77.4486 192.4802 77.9313 192.2784 78.2867 191.939 C 78.6421 191.5997 78.8702 191.1229 78.8866 190.5898 C 78.9031 190.0567 78.7048 189.5667 78.371 189.2061 C 78.0373 188.8455 77.5679 188.6143 77.043 188.5981 Z " stroke-width="0.8080220593322809"/>
      <path id="ID0.5234400681219995" fill="#101010" stroke="none" d="M 77.693 169.3981 C 77.1681 169.3819 76.6854 169.5837 76.33 169.923 C 75.9747 170.2624 75.7466 170.7392 75.7301 171.2723 C 75.7137 171.8054 75.9119 172.2954 76.2457 172.656 C 76.5795 173.0166 77.0488 173.2477 77.5737 173.2639 C 78.0986 173.2802 78.5813 173.0784 78.9367 172.739 C 79.2921 172.3997 79.5202 171.9229 79.5366 171.3898 C 79.5531 170.8567 79.3548 170.3667 79.021 170.0061 C 78.6873 169.6455 78.2179 169.4143 77.693 169.3981 Z " stroke-width="0.8080220593322809"/>
      <path id="ID0.5234400681219995" fill="#101010" stroke="none" d="M 76.643 206.6481 C 76.1181 206.6319 75.6354 206.8337 75.28 207.173 C 74.9247 207.5124 74.6966 207.9892 74.6801 208.5223 C 74.6637 209.0554 74.8619 209.5454 75.1957 209.906 C 75.5295 210.2666 75.9988 210.4977 76.5237 210.5139 C 77.0486 210.5302 77.5313 210.3284 77.8867 209.989 C 78.2421 209.6497 78.4702 209.1729 78.4866 208.6398 C 78.5031 208.1067 78.3048 207.6167 77.971 207.2561 C 77.6373 206.8955 77.1679 206.6643 76.643 206.6481 Z " stroke-width="0.8080220593322809"/>
      <path id="ID0.4144489667378366" fill="#40474C" stroke="none" stroke-linecap="round" d="M 39.1429 81.2736 L 65.2202 71.7341 L 60.5368 99.7138 L 62.2781 177.3516 L 48.4094 234.7883 L 34.6166 227.8972 L 34.1591 232.4088 L 39.8893 170.5184 L 35.572 114.4599 L 34.948 93.4283 L 39.1429 81.2736 Z " stroke-width="1.2825747308335271"/>
      <path id="ID0.8752945330925286" fill="none" stroke="#222222" stroke-width="2.5651494616670543" stroke-linecap="round" d="M 131.7514 85.4666 L 135.5764 95.6059 L 129.9369 144.2452 "/>
      <path id="ID0.8752945330925286" fill="none" stroke="#222222" stroke-width="2.5651494616670543" stroke-linecap="round" d="M 38.8689 82.0162 L 34.4258 91.9003 L 37.0544 140.7948 "/>
      <path id="ID0.5234400681219995" fill="#101010" stroke="none" d="M 106.393 190.2981 C 105.8681 190.2819 105.3854 190.4837 105.03 190.823 C 104.6747 191.1624 104.4466 191.6392 104.4301 192.1723 C 104.4137 192.7054 104.6119 193.1954 104.9457 193.556 C 105.2795 193.9166 105.7488 194.1477 106.2737 194.1639 C 106.7986 194.1802 107.2813 193.9784 107.6367 193.639 C 107.9921 193.2997 108.2202 192.8229 108.2366 192.2898 C 108.2531 191.7567 108.0548 191.2667 107.721 190.9061 C 107.3873 190.5455 106.9179 190.3143 106.393 190.2981 Z " stroke-width="0.8080220593322809"/>
      <path id="ID0.5234400681219995" fill="#101010" stroke="none" d="M 107.943 199.7481 C 107.4181 199.7319 106.9354 199.9337 106.58 200.273 C 106.2247 200.6124 105.9966 201.0892 105.9801 201.6223 C 105.9637 202.1554 106.1619 202.6454 106.4957 203.006 C 106.8295 203.3666 107.2988 203.5977 107.8237 203.6139 C 108.3486 203.6302 108.8313 203.4284 109.1867 203.089 C 109.5421 202.7497 109.7702 202.2729 109.7866 201.7398 C 109.8031 201.2067 109.6048 200.7167 109.271 200.3561 C 108.9373 199.9955 108.4679 199.7643 107.943 199.7481 Z " stroke-width="0.8080220593322809"/>
      <g id="ID0.20783481979742646">
        <path id="ID0.5848579816520214" fill="#737373" stroke="none" stroke-linecap="round" d="M 51.2646 118.3804 L 42.6112 116.1737 L 42.5828 121.2158 L 51.785 122.1464 L 51.2646 118.3804 Z " stroke-width="1.2825747308335271"/>
        <path id="ID0.13105127029120922" fill="none" stroke="#222222" stroke-width="2.5651494616670543" stroke-linecap="round" d="M 53.4923 122.5223 L 47.7682 122.3456 L 41.1499 120.2017 "/>
      </g>
    </g>
    <g id="ID0.8616764373145998">
      <path id="ID0.3809091211296618" fill="#252525" stroke="none" stroke-linecap="round" d="M 128.4832 239.7724 L 110.2551 248.6457 L 92.1117 247.5909 L 81.2234 243.3931 L 86.5437 224.5761 L 94.5751 159.9409 L 98.1489 145.9783 L 106.4797 132.2828 L 118.9886 133.0112 L 133.8237 139.2108 L 128.7382 167.9179 L 127.378 185.8312 L 128.4832 239.7724 Z " stroke-width="0.9783070755333396"/>
      <g id="ID0.27848909283056855">
        <path id="ID0.5368814701214433" fill="#404040" stroke="none" stroke-linecap="round" d="M 105.0551 257.1132 L 109.2642 245.4087 L 115.6388 233.2097 L 128.7597 241.4457 L 143.5366 252.1115 L 166.4995 266.6462 L 167.6849 275.4098 L 134.5812 276.0095 L 106.2904 270.2606 L 105.0551 257.1132 Z " stroke-width="1.031371003231262"/>
        <g id="ID0.5077062323689461">
          <path id="ID0.05466862628236413" fill="#252525" stroke="none" stroke-linecap="round" d="M 111.0826 159.6052 L 132.9779 138.9941 L 140.336 156.6878 L 136.9306 176.1915 L 135.5679 182.8395 L 134.4895 202.2052 L 135.3772 246.8476 L 106.769 248.9825 L 106.3656 223.8164 L 103.7966 214.1974 L 102.8032 203.7785 L 105.7604 189.0458 L 106.3754 175.5133 L 111.0826 159.6052 Z " stroke-width="0.8032433718072065"/>
          <path id="ID0.5319394422695041" fill="none" stroke="#131313" stroke-width="2.6781329178553004" stroke-linecap="round" d="M 135.1798 245.7389 L 106.4725 249.5176 L 105.9848 234.068 "/>
        </g>
      </g>
    </g>
    <g id="ID0.8616764373145998">
      <path id="ID0.3809091211296618" fill="#252525" stroke="none" stroke-linecap="round" d="M 39.4168 239.0224 L 57.6449 247.8957 L 75.7883 246.8409 L 86.6766 242.6431 L 81.3563 223.8261 L 73.3249 159.1909 L 69.7511 145.2283 L 61.4203 131.5328 L 48.9114 132.2612 L 34.0763 138.4608 L 39.1618 167.1679 L 40.522 185.0812 L 39.4168 239.0224 Z " stroke-width="0.9783070755333396"/>
      <g id="ID0.27848909283056855">
        <path id="ID0.5368814701214433" fill="#404040" stroke="none" stroke-linecap="round" d="M 62.8449 256.3632 L 58.6358 244.6587 L 52.2612 232.4597 L 39.1403 240.6957 L 24.3634 251.3615 L 1.4005 265.8962 L 0.2151 274.6598 L 33.3188 275.2595 L 61.6096 269.5106 L 62.8449 256.3632 Z " stroke-width="1.031371003231262"/>
        <g id="ID0.5077062323689461">
          <path id="ID0.05466862628236413" fill="#252525" stroke="none" stroke-linecap="round" d="M 56.8174 158.8552 L 34.9221 138.2441 L 27.564 155.9378 L 30.9694 175.4415 L 32.3321 182.0895 L 33.4105 201.4552 L 32.5228 246.0976 L 61.131 248.2325 L 61.5344 223.0664 L 64.1034 213.4474 L 65.0968 203.0285 L 62.1396 188.2958 L 61.5246 174.7633 L 56.8174 158.8552 Z " stroke-width="0.8032433718072065"/>
          <path id="ID0.5319394422695041" fill="none" stroke="#131313" stroke-width="2.6781329178553004" stroke-linecap="round" d="M 32.7202 244.9889 L 61.4275 248.7676 L 61.9152 233.318 "/>
        </g>
      </g>
    </g>
    <g id="ID0.1717304247431457">
      <path id="ID0.8194515448994935" fill="#796B5E" stroke="none" stroke-linecap="round" d="M 62.0497 30.6775 C 63.182 30.7793 64.0084 31.5148 64.6945 32.8926 C 65.3806 34.2704 65.4728 36.4888 65.8388 38.2885 C 66.2075 40.092 67.8973 42.0648 67.1549 43.7676 C 66.3411 45.3626 63.937 45.7488 62.2108 45.9776 C 61.175 46.1153 59.8368 45.5762 59.3493 44.6998 C 58.4294 42.7504 58.5639 40.4249 58.4216 38.3666 C 58.2811 36.3435 57.7809 34.1228 58.5563 32.2837 C 59.179 31.1602 60.863 30.5709 62.0497 30.6775 Z " stroke-width="1.3161966769965103"/>
      <path id="ID0.8194515448994935" fill="#796B5E" stroke="none" stroke-linecap="round" d="M 107.4003 30.6275 C 106.268 30.7293 105.4416 31.4648 104.7555 32.8426 C 104.0694 34.2204 103.9772 36.4388 103.6112 38.2385 C 103.2425 40.042 101.5527 42.0148 102.2951 43.7176 C 103.1089 45.3125 105.513 45.6988 107.2392 45.9276 C 108.275 46.0653 109.6132 45.5262 110.1007 44.6498 C 111.0206 42.7004 110.8861 40.3749 111.0284 38.3166 C 111.1689 36.2935 111.6691 34.0728 110.8937 32.2337 C 110.271 31.1102 108.587 30.5209 107.4003 30.6275 Z " stroke-width="1.3161966177716813"/>
      <path id="ID0.46110434643924236" fill="#675B50" stroke="none" stroke-linecap="round" d="M 100.1086 50.4886 L 71.3424 49.6006 L 69.992 74.0625 L 77.7575 77.9875 L 91.1451 78.1421 L 99.2766 75.0312 L 100.1086 50.4886 Z " stroke-width="1.3933051265125578"/>
      <path id="ID0.8999492498114705" fill="#796B5E" stroke="none" stroke-linecap="round" d="M 82.7269 6.3454 C 76.4047 6.5672 68.956 8.516 65.4562 13.6052 C 61.0153 19.9324 61.6067 28.7012 61.8518 36.3574 C 62.0249 41.7743 64.834 46.8111 66.8705 51.8583 C 68.4978 56.1976 70.2165 60.6142 72.8279 64.4788 C 73.7046 65.7764 75.4277 66.3885 76.8394 66.9795 C 79.6287 68.1463 82.4718 69.8227 85.4567 69.8608 C 87.9638 69.8932 90.2078 68.271 92.4509 67.1106 C 93.6962 66.5005 95.0413 65.8183 95.8423 64.5882 C 98.4601 60.5634 100.4568 56.0822 102.3371 51.7334 C 104.3112 47.1682 107.3096 42.7222 107.4311 37.701 C 107.6369 29.1552 108.2695 19.1801 102.9867 12.4057 C 98.7231 6.9397 89.7707 6.0993 82.7269 6.3454 Z " stroke-width="0.6686769378224409"/>
      <path id="ID0.8256730306893587" fill="none" stroke="#675B50" stroke-width="1.3373534616839085" stroke-linecap="round" d="M 78.9138 54.1761 C 78.9138 54.1761 80.5133 53.3577 81.3829 53.4135 C 82.197 53.403 82.8151 54.3014 83.6581 54.3038 C 84.6588 54.3063 85.5121 53.4183 86.508 53.3626 C 88.1303 53.8417 89.9926 54.3194 89.9926 54.3194 "/>
      <path id="ID0.7592270169407129" fill="none" stroke="#675B50" stroke-width="1.3373538756448817" stroke-linecap="round" d="M 87.5899 57.3675 C 87.5899 57.3675 86.7616 57.8099 86.3058 57.8855 C 85.8636 57.9593 85.4074 57.7651 84.9608 57.8049 C 84.5115 57.8454 84.0932 58.0722 83.6451 58.1233 C 83.1998 58.1744 82.735 58.212 82.2993 58.1091 C 81.9288 58.0215 81.2956 57.567 81.2956 57.567 "/>
      <path id="ID0.8619630038738251" fill="none" stroke="#675B50" stroke-width="1.5470150911974783" stroke-linecap="round" d="M 84.2763 32.9798 C 84.2763 32.9798 83.7889 36.7585 83.5557 38.583 C 83.4219 39.6077 83.6184 40.7611 83.0952 41.6526 C 82.4586 42.6643 80.9815 42.6249 80.623 43.548 C 80.1427 44.5122 79.9744 46.3043 80.9024 46.5869 C 82.3132 47.0161 83.638 45.2546 85.1993 45.1334 C 86.0376 45.0692 87.4846 46.1951 87.4846 46.1951 "/>
      <path id="ID0.6736386958509684" fill="none" stroke="#675B50" stroke-width="1.650156940441199" stroke-linecap="round" d="M 100.6933 42.5663 C 100.6933 42.5663 99.9681 43.5425 99.5573 43.9891 C 99.1827 44.3967 98.7226 44.7223 98.3413 45.1241 C 97.9517 45.5348 97.5191 45.9295 97.2482 46.4243 C 96.973 46.9256 96.7578 47.4891 96.7327 48.0586 C 96.666 49.5885 96.975 52.6523 96.975 52.6523 "/>
      <path id="ID0.6736386958509684" fill="none" stroke="#675B50" stroke-width="1.6501569996611" stroke-linecap="round" d="M 69.4067 42.3163 C 69.4067 42.3163 70.1319 43.2925 70.5427 43.7391 C 70.9173 44.1467 71.3774 44.4723 71.7587 44.8741 C 72.1483 45.2848 72.5809 45.6795 72.8518 46.1743 C 73.127 46.6756 73.3422 47.2391 73.3673 47.8086 C 73.434 49.3385 73.125 52.4023 73.125 52.4023 "/>
      <path id="ID0.7592270169407129" fill="none" stroke="#675B50" stroke-width="1.33732686612353" stroke-linecap="round" d="M 84.8561 65.2746 C 84.8561 65.2746 84.6678 66.1855 84.7269 66.6382 C 84.7838 67.0776 85.1044 67.453 85.1954 67.8868 C 85.2867 68.3232 85.1883 68.7842 85.2688 69.2226 C 85.3486 69.6584 85.447 70.1087 85.6732 70.4909 C 85.8657 70.816 86.4899 71.2836 86.4899 71.2836 "/>
      <path id="ID0.2118154256604612" fill="#1C1916" stroke="#1C1916" stroke-width="2.6323932355433626" stroke-linecap="round" d="M 108.376 26.5946 C 108.406 27.2685 108.0284 30.2987 106.9944 32.0077 C 106.6129 32.6379 106.3008 30.3237 105.8947 29.5112 C 105.5016 28.7236 104.9701 28.0039 104.5943 27.2087 C 104.1926 26.3583 103.8668 25.4708 103.5622 24.5822 C 103.2666 23.7211 103.0296 22.8371 102.7951 21.9584 C 102.5631 21.0902 102.4628 20.1828 102.1604 19.3361 C 101.8593 18.4906 101.404 17.7037 100.9938 16.9043 C 100.5823 16.1048 100.3861 15.1179 99.6941 14.5365 C 98.9824 13.9378 97.985 13.6841 97.0547 13.5932 C 96.1628 13.5066 95.2846 13.8832 94.4009 14.023 C 93.4735 14.1688 92.5359 14.2728 91.6147 14.4514 C 90.7227 14.6238 89.8381 14.8538 88.9588 15.0774 C 88.1327 15.2884 86.2704 15.1419 86.5692 15.5753 C 87.1277 16.3816 92.0505 17.345 90.8545 17.4514 C 87.0112 17.8805 81.1752 17.3456 76.4907 16.6463 C 75.3202 16.4718 75.0599 15.5274 74.2549 15.1187 C 73.4669 14.7194 72.6144 14.4214 71.7473 14.2422 C 70.2775 13.9403 68.5863 13.402 66.9839 13.7343 C 65.4493 14.0556 63.6359 16.6888 62.7863 16.1097 C 61.9801 15.5545 63.2541 12.9418 63.9617 11.4138 C 64.7261 9.7661 65.8876 8.2809 67.1873 7.0011 C 68.4401 5.7679 69.8905 4.6427 71.5242 3.9733 C 73.1819 3.2937 75.0524 3.2781 76.8325 3.0483 C 77.708 2.9346 78.6025 3.0225 79.4829 2.9454 C 80.3712 2.8671 81.2442 2.6161 82.136 2.581 C 83.8985 2.5119 85.6909 2.3699 87.434 2.6368 C 89.2485 2.9135 90.9516 3.6978 92.7161 4.1964 C 93.5904 4.4436 94.4935 4.5983 95.3582 4.8781 C 97.0678 5.4324 98.7744 6.0218 100.4389 6.6972 C 101.2607 7.0302 102.1519 7.3116 102.8106 7.8992 C 103.5062 8.5186 103.7994 9.4765 104.3759 10.2045 C 104.9341 10.9087 105.7434 11.4195 106.2096 12.1855 C 106.6939 12.9832 106.9345 13.9117 107.1754 14.8114 C 107.4035 15.6665 107.5426 16.5495 107.6114 17.4317 C 107.6791 18.2995 107.4831 19.1815 107.5839 20.0471 C 107.6871 20.9388 108.0106 21.7949 108.2186 22.6694 C 108.3899 23.3893 108.8222 24.1 108.7257 24.8327 Z "/>
      <path id="ID0.2118154256604612" fill="#1C1916" stroke="#1C1916" stroke-width="2.6323933539930207" stroke-linecap="round" d="M 61.174 25.8446 C 61.144 26.5185 61.5216 29.5487 62.5556 31.2577 C 62.9371 31.8879 63.2492 29.5737 63.6553 28.7612 C 64.0484 27.9736 64.5799 27.254 64.9557 26.4588 C 65.3574 25.6083 65.6832 24.7208 65.9878 23.8322 C 66.2834 22.9711 66.5204 22.0872 66.7549 21.2084 C 66.9869 20.3402 67.0872 19.4328 67.3896 18.5861 C 67.6907 17.7406 68.146 16.9537 68.5562 16.1543 C 68.9677 15.3548 69.1639 14.3679 69.8559 13.7865 C 70.5676 13.1878 71.565 12.9341 72.4953 12.8432 C 73.3872 12.7566 74.2654 13.1332 75.1491 13.273 C 76.0765 13.4189 77.0141 13.5228 77.9353 13.7014 C 78.8273 13.8738 79.717 14.0828 80.5912 14.3274 C 81.4428 14.5656 82.274 14.8838 83.1167 15.1509 C 83.9992 15.4306 84.9062 15.6499 85.7746 15.973 C 86.6151 16.2859 87.3769 16.8036 88.2366 17.0587 C 89.0937 17.3126 90.0197 17.6978 90.8904 17.4885 C 91.7651 17.2779 92.3283 16.4141 93.0593 15.8963 C 93.7956 15.3759 94.4901 14.7774 95.2951 14.3687 C 96.0831 13.9694 96.9356 13.6714 97.8027 13.4922 C 99.2725 13.1903 100.9637 12.652 102.5661 12.9843 C 104.1007 13.3056 105.9141 15.9388 106.7637 15.3597 C 107.5699 14.8045 106.2959 12.1918 105.5883 10.6638 C 104.8239 9.0161 103.6624 7.5309 102.3627 6.2511 C 101.1099 5.0179 99.6595 3.8927 98.0258 3.2233 C 96.3681 2.5437 94.4976 2.5281 92.7175 2.2983 C 91.842 2.1846 90.9475 2.2725 90.0671 2.1954 C 89.1788 2.1171 88.3058 1.8661 87.414 1.831 C 85.6515 1.7619 83.8591 1.6199 82.116 1.8868 C 80.3015 2.1635 78.5984 2.9478 76.8339 3.4464 C 75.9596 3.6936 75.0565 3.8483 74.1918 4.1281 C 72.4822 4.6824 70.7756 5.2719 69.1111 5.9472 C 68.2893 6.2802 67.3981 6.5616 66.7394 7.1493 C 66.0438 7.7686 65.7506 8.7265 65.1741 9.4545 C 64.6159 10.1587 63.8066 10.6695 63.3404 11.4355 C 62.8561 12.2332 62.6155 13.1617 62.3746 14.0614 C 62.1465 14.9165 62.0074 15.7995 61.9386 16.6817 C 61.8709 17.5495 62.0669 18.4315 61.9661 19.2971 C 61.8629 20.1888 61.5394 21.0449 61.3314 21.9194 C 61.1601 22.6393 60.7278 23.35 60.8243 24.0827 Z "/>
      <path id="ID0.5261953212320805" fill="none" stroke="#1C1916" stroke-width="2.6323931674389898" stroke-linecap="round" d="M 102.0602 30.9712 C 102.0602 30.9712 101.2291 29.2409 100.5038 28.6531 C 99.8099 28.0904 98.8764 27.8552 97.9989 27.6769 C 97.1215 27.4986 96.2035 27.6857 95.3117 27.5978 C 93.641 27.4317 90.3141 26.9157 90.3141 26.9157 "/>
      <path id="ID0.5261953212320805" fill="none" stroke="#1C1916" stroke-width="2.6323933284327885" stroke-linecap="round" d="M 67.384 31.0455 C 67.384 31.0455 68.2179 29.3167 68.9443 28.7301 C 69.6391 28.1686 70.5731 27.9351 71.4508 27.7582 C 72.3286 27.5814 73.2462 27.7701 74.1382 27.6838 C 75.8091 27.5206 79.137 27.0102 79.137 27.0102 "/>
      <path id="ID0.7592270169407129" fill="none" stroke="#675B50" stroke-width="1.3373465678705396" stroke-linecap="round" d="M 84.2111 23.5933 C 84.2111 23.5933 83.9064 24.4732 83.9064 24.9295 C 83.906 25.3723 84.1755 25.7844 84.2097 26.2258 C 84.2437 26.67 84.0865 27.1149 84.1097 27.5597 C 84.1324 28.0018 84.1718 28.4606 84.3468 28.8677 C 84.4957 29.214 85.0545 29.7553 85.0545 29.7553 "/>
      <path id="ID0.48112139804288745" fill="#3A3A3A" stroke="#3A3A3A" stroke-width="2.4791373688665157" stroke-linecap="round" d="M 108.2737 18.6428 C 109.0611 19.0969 108.2389 20.8817 108.5512 21.9097 C 108.802 22.7351 109.6163 23.3534 109.7746 24.2012 C 109.9257 25.0145 109.6075 25.8524 109.4368 26.6611 C 108.9562 28.9433 108.9792 31.9735 107.803 33.7262 C 107.3326 34.3272 106.6159 32.1371 106.1437 31.3685 C 105.1781 29.8261 104.1459 28.214 103.5117 26.5987 C 103.2092 25.8282 103.2908 24.957 103.2258 24.1323 C 103.1621 23.3138 102.7712 22.4093 103.127 21.6679 C 103.488 20.9154 104.416 20.5778 105.139 20.1494 C 106.0818 19.5915 107.355 18.2168 108.2737 18.6428 Z "/>
      <path id="ID0.48112139804288745" fill="#3A3A3A" stroke="#3A3A3A" stroke-width="2.4791373688665157" stroke-linecap="round" d="M 61.5263 17.5428 C 60.7389 17.9969 61.5611 19.7817 61.2488 20.8097 C 60.998 21.6351 60.1837 22.2534 60.0254 23.1012 C 59.8743 23.9145 60.1925 24.7524 60.3632 25.5611 C 60.8438 27.8433 60.8208 30.8735 61.997 32.6262 C 62.4674 33.2272 63.1841 31.0371 63.6563 30.2685 C 64.6219 28.7261 65.6541 27.114 66.2883 25.4987 C 66.5908 24.7282 66.5092 23.857 66.5742 23.0323 C 66.6379 22.2138 67.0288 21.3093 66.673 20.5679 C 66.312 19.8154 65.384 19.4778 64.661 19.0494 C 63.7182 18.4915 62.445 17.1168 61.5263 17.5428 Z "/>
      <g id="ID0.6671336451545358">
        <path id="ID0.7788236327469349" fill="#FFFFFF" stroke="none" stroke-linecap="round" d="M 97.6321 30.893 L 95.8468 30.6127 L 92.8701 30.2544 L 90.0211 30.3552 L 89.5928 33.2933 L 92.962 34.1135 L 99.5934 33.3332 L 97.6321 30.893 Z " stroke-width="1.3161966177716813"/>
        <g id="ID0.9270983412861824">
          <path id="ID0.036129117012023926" fill="#5E3B21" stroke="none" d="M 94.0926 30.0023 C 93.5535 29.9966 93.0625 30.2072 92.7052 30.5527 C 92.3479 30.8981 92.1242 31.3783 92.1186 31.9106 C 92.113 32.4428 92.3265 32.9276 92.6765 33.2805 C 93.0264 33.6334 93.5129 33.8543 94.052 33.86 C 94.591 33.8657 95.082 33.655 95.4393 33.3096 C 95.7967 32.9642 96.0203 32.4839 96.0259 31.9517 C 96.0315 31.4195 95.818 30.9346 95.4681 30.5817 C 95.1181 30.2289 94.6316 30.0079 94.0926 30.0023 Z " stroke-width="1.3161966177716813"/>
          <path id="ID0.9171876185573637" fill="#191009" stroke="none" d="M 94.0038 30.8824 C 93.7297 30.8795 93.4808 30.9867 93.2988 31.1627 C 93.1168 31.3386 93.003 31.582 93.0001 31.8527 C 92.9973 32.1234 93.106 32.3691 93.2842 32.5488 C 93.4625 32.7286 93.709 32.841 93.9832 32.8439 C 94.2574 32.8468 94.5062 32.7396 94.6882 32.5636 C 94.8702 32.3877 94.984 32.1443 94.9869 31.8736 C 94.9897 31.6029 94.8811 31.3572 94.7028 31.1774 C 94.5245 30.9977 94.278 30.8852 94.0038 30.8824 Z " stroke-width="1.3161966177716813"/>
        </g>
        <path id="ID0.7788236327469349" fill="#FFFFFF" stroke="none" stroke-linecap="round" d="M 72.4679 30.943 L 74.2532 30.6627 L 77.2299 30.3044 L 80.0789 30.4052 L 80.5072 33.3433 L 77.138 34.1635 L 70.5066 33.3832 L 72.4679 30.943 Z " stroke-width="1.3161966177716813"/>
        <g id="ID0.9270983412861824">
          <path id="ID0.036129117012023926" fill="#5E3B21" stroke="none" d="M 76.1074 30.1523 C 76.6465 30.1466 77.1375 30.3572 77.4948 30.7027 C 77.8521 31.0481 78.0758 31.5283 78.0814 32.0606 C 78.087 32.5928 77.8735 33.0776 77.5235 33.4305 C 77.1736 33.7834 76.6871 34.0043 76.148 34.01 C 75.609 34.0157 75.118 33.805 74.7607 33.4596 C 74.4033 33.1142 74.1797 32.6339 74.1741 32.1017 C 74.1685 31.5695 74.382 31.0846 74.7319 30.7317 C 75.0819 30.3789 75.5684 30.1579 76.1074 30.1523 Z " stroke-width="1.3161966177716813"/>
          <path id="ID0.9171876185573637" fill="#191009" stroke="none" d="M 76.0962 31.0324 C 76.3703 31.0295 76.6192 31.1367 76.8012 31.3127 C 76.9832 31.4886 77.097 31.732 77.0999 32.0027 C 77.1027 32.2734 76.994 32.5191 76.8158 32.6988 C 76.6375 32.8786 76.391 32.991 76.1168 32.9939 C 75.8426 32.9968 75.5938 32.8896 75.4118 32.7136 C 75.2298 32.5377 75.116 32.2943 75.1131 32.0236 C 75.1103 31.7529 75.2189 31.5072 75.3972 31.3274 C 75.5755 31.1477 75.822 31.0352 76.0962 31.0324 Z " stroke-width="1.3161966177716813"/>
        </g>
      </g>
    </g>
  </g>
</svg>