<svg xmlns="http://www.w3.org/2000/svg" xmlns:xlink="http://www.w3.org/1999/xlink" version="1.1" width="778.3454277173657" height="298.34542771736574" viewBox="-0.6727138586828714 -0.6727138586828714 778.3454277173657 298.34542771736574">
  <defs>
    <linearGradient id="grad_1" y2="1" x2="0">
      <stop offset="0" stop-color="#000000" stop-opacity="1"/>
      <stop offset="1" stop-color="#000000" stop-opacity="0"/>
    </linearGradient>
    <linearGradient id="grad_2" y2="1" x2="0">
      <stop offset="0" stop-color="#DBDBDB" stop-opacity="1"/>
      <stop offset="1" stop-color="#D4D4D4" stop-opacity="1"/>
    </linearGradient>
    <linearGradient id="grad_3" y2="1" x2="0">
      <stop offset="0" stop-color="#FFFFFF" stop-opacity="1"/>
      <stop offset="1" stop-color="#B2B2B2" stop-opacity="1"/>
    </linearGradient>
  <linearGradient id="grad_1-.618749976158142,0,0,1,0,0" y2="297" x2="0" x1="0" y1="0" gradientUnits="userSpaceOnUse">
      <stop offset="0" stop-color="#000000" stop-opacity="1"/>
      <stop offset="1" stop-color="#000000" stop-opacity="0"/>
    </linearGradient><linearGradient id="grad_2-.6541786789894104,0,0,0.6541786789894104,243.35,80.35" y2="221.5872" x2="320.1332" x1="320.1332" y1="203.6627" gradientUnits="userSpaceOnUse">
      <stop offset="0" stop-color="#DBDBDB" stop-opacity="1"/>
      <stop offset="1" stop-color="#D4D4D4" stop-opacity="1"/>
    </linearGradient><linearGradient id="grad_3-.6541786789894104,0,0,0.6541786789894104,243.35,80.35" y2="272.0898" x2="260.1194" x1="260.1194" y1="147.2295" gradientUnits="userSpaceOnUse">
      <stop offset="0" stop-color="#FFFFFF" stop-opacity="1"/>
      <stop offset="1" stop-color="#B2B2B2" stop-opacity="1"/>
    </linearGradient></defs>
  <!-- Exported by Scratch - http://scratch.mit.edu/ -->
  <path id="ID0.9746242561377585" fill="url(#grad_1-.618749976158142,0,0,1,0,0)" stroke="none" d="M 0 0 L 777 0 L 777 297 L 0 297 L 0 0 Z " stroke-width="1.3454277173657427"/>
  <g id="ID0.1879118848592043">
    <g id="ID0.8914648843929172">
      <path id="ID0.6708827102556825" fill="url(#grad_2-.6541786789894104,0,0,0.6541786789894104,243.35,80.35)" d="M 320.1506 203.6627 C 320.0852 209.6157 320.216 215.6342 320.3468 221.5872 C 322.8327 221.5872 325.2532 221.5872 327.739 221.5872 C 327.6736 219.6246 327.6736 217.6621 327.6082 215.6996 C 326.2344 215.6996 324.7442 215.9573 323.4869 215.6996 C 322.537 213.4682 321.1417 210.7376 321.3281 208.569 C 322.7935 207.8102 325.5476 208.9596 327.4774 208.6999 C 327.7947 207.2829 327.4774 205.4944 327.4774 203.9244 C 325.0569 203.8589 322.571 203.7935 320.1506 203.6627 Z " stroke-width="0.6541786789894104"/>
      <path id="ID0.750841427128762" fill="url(#grad_3-.6541786789894104,0,0,0.6541786789894104,243.35,80.35)" d="M 543.5526 216.4192 C 543.5526 215.9612 543.4872 215.4379 543.4218 215.1762 C 543.4218 214.9146 543.3563 214.522 543.4218 214.3258 C 543.4218 213.9987 543.4218 213.8679 543.3563 213.737 C 543.2909 213.5408 543.0947 212.6249 543.0293 211.7091 C 543.0293 211.5128 542.9638 211.3166 542.8984 211.1857 C 542.833 211.0549 542.833 210.7278 542.7676 210.4661 C 542.7676 210.2045 542.7022 209.9428 542.6367 209.8774 C 542.5059 209.6811 542.3751 209.1578 542.3751 208.9615 C 542.3751 208.7653 542.1134 207.7186 541.9826 207.5223 C 541.9171 207.4569 541.8517 207.1952 541.8517 206.999 C 541.8517 206.8027 541.7863 206.6065 541.7209 206.5411 C 541.6555 206.4102 541.4592 205.8215 541.263 205.2981 C 541.1321 204.8402 541.0667 204.7094 540.805 203.9898 C 540.6742 203.6627 540.5434 203.2702 540.478 203.1393 C 540.4125 203.0085 540.2817 202.6814 540.2163 202.4852 C 540.1509 202.2889 540.0854 202.0927 540.0854 202.0927 C 540.0854 202.0272 540.02 201.8964 539.9546 201.7001 C 539.8892 201.5039 539.7584 201.2422 539.6929 201.046 C 539.6275 200.8497 539.4967 200.588 539.4967 200.5226 C 539.4313 200.4572 539.4313 200.3264 539.4313 200.261 C 539.4313 200.1955 539.3659 200.0647 539.3004 199.9993 C 539.235 199.8684 539.1042 199.6068 539.0388 199.4105 C 538.9733 199.2143 538.8425 199.018 538.8425 198.9526 C 538.7771 198.8872 538.7117 198.6909 538.6463 198.5601 C 538.5808 198.4293 538.5154 198.233 538.45 198.1676 C 538.2537 197.7751 537.8612 196.9901 537.7958 196.7938 C 537.7304 196.663 537.665 196.5321 537.5996 196.4667 C 537.5342 196.4013 537.4687 196.2705 537.4687 196.205 C 537.4687 196.1396 537.4687 196.0742 537.4033 196.0742 C 537.2071 195.9434 536.1604 194.0463 536.1604 193.85 C 536.1604 193.7846 536.095 193.6537 536.0295 193.5883 C 535.9641 193.5229 535.8333 193.3921 535.7679 193.2612 C 535.7025 193.1958 535.5716 192.9342 535.4408 192.7379 C 535.3099 192.5416 535.1137 192.28 535.0483 192.1491 C 534.9829 192.0183 534.7866 191.7566 534.6558 191.495 C 533.8053 190.1866 533.5437 189.7941 533.1512 189.2053 C 532.8895 188.8128 532.6278 188.4203 532.5624 188.2895 C 532.497 188.1586 532.3007 187.897 532.1699 187.7007 C 532.0391 187.5045 531.7774 187.2428 531.6465 187.0465 C 531.5157 186.8503 531.3849 186.654 531.3849 186.654 C 531.3195 186.654 530.9269 186.1307 530.2728 185.2148 C 530.1419 185.084 529.9457 184.8223 529.8148 184.6261 C 529.684 184.4298 529.4223 184.1682 529.3569 184.0373 C 529.2261 183.9065 529.0298 183.6448 528.899 183.4486 C 528.7682 183.2523 528.3757 182.8598 528.114 182.4673 C 527.8523 182.1402 527.5906 181.8131 527.5906 181.8131 C 527.5906 181.8131 527.4598 181.6823 527.329 181.486 C 527.1981 181.3552 526.9365 181.0281 526.7402 180.8318 C 526.544 180.6356 526.2823 180.3085 526.1514 180.1777 C 526.0206 180.0468 525.5627 179.5889 525.2356 179.131 C 524.8431 178.6731 524.516 178.2805 524.4506 178.2805 C 523.6656 177.561 523.2076 177.0376 523.1422 176.9068 C 523.1422 176.8414 523.0114 176.7759 522.946 176.7105 C 522.6843 176.5797 522.3572 176.2526 522.3572 176.1218 C 522.3572 176.0563 521.7684 175.533 521.703 175.533 C 521.6376 175.533 521.5722 175.4676 521.4414 175.3367 C 521.3105 175.2059 521.1797 175.0751 521.1797 175.0751 C 521.1143 175.0751 520.7872 174.748 520.4601 174.4209 C 520.133 174.0938 519.6751 173.7013 519.5442 173.5705 C 519.348 173.4396 519.1517 173.2434 519.1517 173.178 C 519.0863 173.1125 519.0209 173.0471 519.0209 173.0471 C 518.8901 173.0471 518.3667 172.5238 518.3667 172.3929 C 518.3667 172.1967 518.3013 172.1313 518.105 172.1313 C 517.9742 172.1313 517.8434 172.0659 517.7125 171.935 C 517.6471 171.8696 517.4509 171.6733 517.3854 171.6079 C 516.9929 171.3463 515.2921 169.9071 515.1612 169.7108 C 515.0958 169.6454 514.8996 169.4491 514.7687 169.3837 C 514.6379 169.3183 514.3762 169.0566 514.18 168.9258 C 513.8529 168.6641 513.5258 168.4025 513.3295 168.2716 C 513.2641 168.2062 513.1333 168.1408 513.0679 168.0754 C 513.0025 168.0099 512.7408 167.8137 512.5445 167.6829 C 512.3483 167.552 512.152 167.4212 512.0866 167.3558 C 512.0212 167.2903 511.8903 167.2249 511.8249 167.0941 C 511.6941 167.0287 511.5633 166.8978 511.4978 166.8324 C 511.4324 166.767 511.3016 166.6362 511.2362 166.6362 C 511.0399 166.5053 510.2549 165.982 509.7316 165.5241 C 509.4699 165.3278 509.2736 165.197 509.2736 165.197 C 509.2736 165.197 509.1428 165.1316 509.012 165.0007 C 508.8811 164.9353 508.7503 164.8045 508.6849 164.739 C 508.4232 164.6082 507.7036 164.0849 507.7036 164.0195 C 507.7036 163.954 507.5728 163.8232 507.3765 163.8232 C 507.3111 163.8232 507.1803 163.7578 506.984 163.5615 C 506.8532 163.4307 506.7223 163.2999 506.6569 163.2999 C 506.5915 163.2999 506.3952 163.169 506.1336 163.0382 C 505.8719 162.9073 505.6102 162.7111 505.4794 162.6457 C 505.3486 162.5803 505.2177 162.4494 505.1523 162.384 C 505.0869 162.3186 504.9561 162.1878 504.8252 162.1878 C 504.629 162.1223 504.2365 161.8607 503.5823 161.4682 C 503.386 161.3373 502.9935 161.0756 501.6197 160.2252 C 501.3581 160.029 501.0964 159.8981 501.0964 159.8327 C 501.0964 159.8327 501.031 159.7673 500.9001 159.7019 C 500.6385 159.571 500.0497 159.3094 499.788 159.1131 C 499.6572 159.0477 499.5264 158.9169 499.3955 158.9169 C 499.3301 158.8514 499.003 158.7206 498.6759 158.5244 C 498.4143 158.3281 497.8255 158.0664 497.4984 157.8702 C 497.1059 157.6739 496.7134 157.4777 496.648 157.4122 C 496.5826 157.3468 496.3863 157.216 496.2555 157.216 C 496.1246 157.216 495.7976 157.0197 495.5359 156.8889 C 495.0125 156.6272 494.4238 156.3001 493.7696 155.9731 C 493.5079 155.8422 493.3117 155.7114 493.2463 155.7114 C 493.1808 155.646 493.1154 155.646 493.1154 155.646 C 493.05 155.646 492.9846 155.5805 492.9192 155.5151 C 492.8537 155.4497 492.6575 155.3843 492.5921 155.3843 C 492.4612 155.3843 492.0033 155.188 491.5454 154.9264 C 491.0875 154.6647 490.6295 154.4684 490.6295 154.4684 C 490.6295 154.4684 490.3679 154.3376 490.0408 154.2068 C 489.7791 154.0759 489.5174 153.9451 489.452 153.9451 C 489.3866 153.9451 488.8633 153.6834 488.667 153.5526 C 488.5362 153.4872 488.4053 153.4218 488.4053 153.4218 C 488.4053 153.4218 488.2091 153.3563 488.0782 153.2909 C 487.9474 153.2255 487.8166 153.1601 487.7512 153.1601 C 487.6857 153.1601 487.5549 153.0947 487.3586 153.0293 C 487.2278 152.9638 487.0316 152.8984 486.9661 152.833 C 486.9007 152.833 486.7699 152.7676 486.6391 152.7022 C 486.5736 152.6367 486.4428 152.6367 486.3774 152.6367 C 486.312 152.6367 486.0503 152.5059 485.7232 152.3751 C 485.3961 152.2442 485.069 152.1134 484.8728 152.048 C 484.7419 151.9826 484.4148 151.9171 484.1532 151.7863 C 483.8915 151.7209 483.5644 151.5901 483.4336 151.5246 C 483.2373 151.4592 483.0411 151.3938 482.9757 151.3284 C 482.9102 151.263 482.7794 151.1976 482.6486 151.1976 C 482.5177 151.1976 482.3215 151.1321 482.1906 151.0667 C 482.0598 151.0013 481.6673 150.8705 481.3402 150.805 C 481.0131 150.6742 480.6206 150.6088 480.5552 150.5434 C 480.0973 150.3471 479.6393 150.1509 479.4431 150.1509 C 479.3777 150.1509 479.2468 150.0854 479.0506 150.02 C 478.9197 149.9546 478.6581 149.8892 478.4618 149.8238 C 478.2656 149.7584 478.0693 149.6929 478.0039 149.6275 C 477.8731 149.4967 477.8076 149.4967 477.6768 149.4967 C 477.546 149.4967 477.4151 149.4967 477.2843 149.4313 C 477.1535 149.3659 476.9572 149.3004 476.6955 149.3004 C 476.4339 149.3004 476.1722 149.235 476.0414 149.1696 C 475.9105 149.1042 475.6488 149.0388 475.4526 149.0388 C 475.2563 149.0388 474.9293 148.9079 474.6676 148.8425 C 474.4059 148.7771 474.1442 148.7117 474.0788 148.7117 C 474.0134 148.7117 473.8171 148.6463 473.6209 148.6463 C 473.4246 148.5808 473.163 148.5808 472.9667 148.5154 C 472.7705 148.5154 472.5088 148.45 472.378 148.3846 C 472.2471 148.3192 471.9854 148.3192 471.92 148.3192 C 471.7892 148.3192 471.5929 148.2537 471.3967 148.1883 C 471.135 148.1229 470.6771 147.9921 470.0883 147.8612 C 469.3687 147.7304 469.2379 147.665 469.0416 147.5996 C 468.9108 147.5342 468.7146 147.4687 468.5837 147.4687 C 468.4529 147.4687 468.1258 147.4033 467.8641 147.3379 C 467.3408 147.2071 467.2754 147.2071 467.2099 147.2725 C 467.1445 147.4033 467.2754 147.5996 467.4062 147.665 C 467.6025 147.7304 467.995 148.1883 468.1912 148.5154 C 468.2566 148.6463 468.3875 148.7771 468.4529 148.8425 C 468.5837 148.9079 468.7146 149.0388 468.9762 149.4967 C 469.0416 149.5621 469.1071 149.6929 469.1725 149.6929 C 469.2379 149.6929 469.8267 150.2817 469.8921 150.478 C 469.9575 150.5434 470.0229 150.6742 470.1537 150.7396 C 470.2192 150.805 470.35 150.9359 470.4154 151.0667 C 470.4808 151.1976 470.6117 151.3284 470.6771 151.3938 C 470.7425 151.4592 470.8733 151.5246 470.9388 151.5901 C 471.0042 151.6555 471.2004 151.8517 471.3967 152.048 C 471.5929 152.2442 471.7892 152.5059 471.8546 152.6367 C 471.92 152.7676 472.0509 152.8984 472.1163 152.8984 C 472.1817 152.9638 472.3125 153.0947 472.378 153.2255 C 472.4434 153.3563 472.6396 153.618 472.8359 153.8143 C 473.0321 154.0105 473.3592 154.5339 473.6863 154.9918 C 474.3405 155.9731 474.4059 156.0385 474.5367 156.3656 C 474.6022 156.4964 474.733 156.6927 474.7984 156.7581 C 474.9293 156.9543 475.3872 157.8702 475.6488 158.5898 C 475.7797 158.9169 475.9105 159.2439 475.9759 159.3094 C 475.9759 159.3094 476.0414 159.4402 476.0414 159.5056 C 476.0414 159.571 476.0414 159.7019 476.1068 159.7673 C 476.1722 159.8981 476.4339 160.7486 476.4993 161.2719 C 476.5647 161.4682 476.5647 161.7298 476.6301 161.7952 C 476.6301 161.8607 476.6955 162.0569 476.6955 162.2532 C 476.6955 162.4494 476.6955 162.5803 476.761 162.7111 C 476.8918 162.9073 476.8918 163.8232 476.8264 165.0661 C 476.761 166.2437 476.6955 166.8324 476.4993 167.6174 C 476.4339 167.7483 476.3684 168.0754 476.3684 168.2716 C 476.303 168.4679 476.2376 168.795 476.1722 168.9258 C 476.1068 169.0566 476.0414 169.3183 475.9759 169.5146 C 475.8451 169.9071 475.5834 170.5612 475.3872 170.7575 C 475.3218 170.8229 475.2563 171.0192 475.2563 171.0846 C 475.2563 171.15 475.1909 171.2808 475.1255 171.3463 C 475.0601 171.4117 474.9947 171.5425 474.9947 171.6733 C 474.9293 171.935 474.4713 172.72 474.2751 172.9817 C 474.2097 173.1125 474.0788 173.2434 474.0134 173.3088 C 473.948 173.3742 473.8826 173.505 473.8171 173.505 C 473.7517 173.505 473.6863 173.5705 473.6863 173.6359 C 473.6863 173.7667 473.5555 173.963 473.4246 174.0284 C 473.3592 174.0938 473.2938 174.1592 473.2284 174.2901 C 473.163 174.4863 472.9667 174.748 472.6396 175.0751 C 472.5742 175.1405 472.4434 175.2713 472.4434 175.3367 C 472.3125 175.533 471.7238 176.1872 471.2659 176.6451 C 471.0696 176.8414 470.8079 177.103 470.7425 177.1684 C 470.0229 177.9535 468.5837 179.1964 468.2566 179.3927 C 468.1912 179.3927 467.995 179.5235 467.8641 179.6543 C 467.6025 179.916 466.4249 180.7664 466.2941 180.7664 C 466.2941 180.7664 466.1633 180.8318 466.0324 180.9627 C 465.7708 181.1589 465.5091 181.2898 465.2474 181.4206 C 465.1166 181.486 465.0512 181.5514 464.9857 181.6823 C 464.9203 181.7477 464.8549 181.8785 464.7895 181.9439 C 464.7241 182.0094 464.4624 182.1402 464.2007 182.3365 C 463.9391 182.4673 463.6774 182.5981 463.6774 182.5981 C 463.612 182.5981 463.4811 182.6635 463.3503 182.7944 C 463.2195 182.8598 463.0232 182.9906 462.8924 183.0561 C 462.1728 183.4486 461.9111 183.5794 461.6494 183.6448 C 461.5186 183.7102 461.3223 183.7756 461.2569 183.8411 C 461.1915 183.9065 461.1261 183.9065 461.0607 183.9065 C 460.9952 183.9065 460.8644 183.9719 460.8644 184.0373 C 460.7336 184.1682 459.4906 184.8223 459.4252 184.8223 C 459.4252 184.8223 459.0327 185.0186 458.5748 185.2148 C 457.6589 185.6728 457.0702 185.9344 456.6777 186.0653 C 456.4814 186.1307 456.2197 186.1961 456.0889 186.3269 C 455.3039 186.7195 453.603 187.3082 453.2759 187.3082 C 453.1451 187.3082 453.0143 187.3736 452.8834 187.439 C 452.7526 187.5045 452.4255 187.6353 452.1638 187.7007 C 451.9022 187.7661 451.5751 187.897 451.4442 187.9624 C 451.3134 188.0278 451.1826 188.0932 451.0517 188.0932 C 450.9209 188.0932 450.8555 188.1586 450.7901 188.1586 C 450.7246 188.2241 450.5284 188.2895 450.2667 188.3549 C 450.0705 188.4203 449.8742 188.4857 449.8088 188.4857 C 449.8088 188.4857 449.4163 188.6166 448.1733 188.9437 C 447.9771 189.0091 447.7154 189.0745 447.5846 189.0745 C 447.4537 189.0745 447.2575 189.1399 447.1267 189.2053 C 446.5379 189.4016 446.2762 189.467 445.9491 189.467 C 445.7529 189.467 445.5566 189.5324 445.4912 189.5324 C 445.3604 189.5978 444.7062 189.7287 444.5099 189.7287 C 444.4445 189.7287 444.1174 189.7941 443.8558 189.8595 C 443.5941 189.9249 443.0708 190.0558 442.6782 190.1212 C 442.3512 190.1866 441.8932 190.252 441.7624 190.3174 C 441.5661 190.3829 441.3045 190.3829 441.1082 190.3829 C 440.912 190.3829 440.6503 190.4483 440.5195 190.4483 C 440.3886 190.5137 440.1269 190.5137 439.9961 190.5137 C 439.8653 190.5137 439.669 190.5137 439.5382 190.5791 C 439.2765 190.6445 438.8186 190.7754 438.2952 190.8408 C 437.7065 190.9062 437.1831 190.9716 436.7906 191.037 C 436.5944 191.037 436.3981 191.1025 436.2673 191.037 C 436.2019 191.037 436.0056 191.037 435.8748 191.1025 C 435.7439 191.1679 435.3514 191.1679 435.0244 191.1679 C 434.6973 191.1679 434.3702 191.2333 434.3048 191.2333 C 434.1739 191.2987 433.5852 191.2987 431.8189 191.3641 C 431.2955 191.3641 430.8376 191.4295 430.7722 191.4295 C 430.7068 191.4295 430.5105 191.495 430.4451 191.495 C 430.3797 191.495 430.1834 191.495 430.0526 191.5604 C 429.9218 191.6258 426.9125 191.6912 425.2771 191.6912 C 423.9033 191.6912 421.0903 191.6258 420.8941 191.5604 C 420.7633 191.5604 420.6324 191.495 420.5016 191.5604 C 420.2399 191.6258 420.1091 191.495 419.9782 191.1025 C 419.9128 190.9062 419.8474 190.6445 419.782 190.5137 C 419.782 190.4483 419.7166 190.3174 419.7166 190.252 C 419.6512 190.1866 419.6512 189.9903 419.6512 189.8595 C 419.6512 189.7287 419.5857 189.4016 419.4549 189.2708 C 419.3895 189.0745 419.2586 188.8128 419.2586 188.6166 C 419.1932 188.2895 418.997 187.6353 418.8661 187.112 C 418.8007 186.9811 418.7353 186.7195 418.7353 186.5232 C 418.6699 186.3269 418.6045 186.0653 418.6045 185.9344 C 418.5391 185.8036 418.5391 185.6073 418.5391 185.4765 C 418.5391 185.4111 418.5391 185.2148 418.4736 185.084 C 418.4082 184.9532 418.3428 184.6915 418.3428 184.4952 C 418.2774 184.299 418.2774 184.0373 418.212 183.9065 C 418.0811 183.3177 418.0157 182.9906 417.9503 182.6635 C 417.9503 182.4673 417.8849 182.2056 417.8195 182.0748 C 417.6886 181.8131 417.5578 181.0935 417.4924 180.5702 C 417.4924 180.3739 417.4269 180.1122 417.4269 180.1122 C 417.3615 180.0468 417.2961 179.5235 417.2307 178.8039 C 417.2307 178.6076 417.1653 178.4114 417.1653 178.4114 C 417.1653 178.346 417.0999 178.2151 417.0999 178.0189 C 417.0999 177.8226 417.0344 177.561 417.0344 177.3647 C 416.8382 176.1872 416.7073 175.3367 416.6419 174.9442 C 416.6419 174.6826 416.5765 174.3555 416.5111 174.1592 C 416.5111 173.963 416.4457 173.7013 416.4457 173.5705 C 416.4457 173.4396 416.3803 173.178 416.3803 172.9817 C 416.3148 172.7854 416.3148 172.5238 416.2494 172.3275 C 416.2494 172.1313 416.184 171.7388 416.184 171.5425 C 416.184 171.2808 416.1186 170.8883 416.1186 170.6267 C 416.1186 170.365 416.0532 169.9071 415.9878 169.6454 C 415.9878 169.3837 415.9223 168.7295 415.8569 168.1408 C 415.7915 167.4866 415.7915 167.0287 415.7261 166.8978 C 415.6607 166.767 415.5952 166.4399 415.5952 166.1128 C 415.5298 165.7857 415.4644 165.4586 415.399 165.2624 C 415.3336 165.0661 415.2682 164.8045 415.2682 164.6082 C 415.2682 164.412 415.2682 164.2157 415.2027 164.1503 C 415.1373 164.0849 415.1373 163.954 415.1373 163.8886 C 415.1373 163.8232 415.1373 163.6924 415.0719 163.6269 C 415.0065 163.4961 415.0065 163.3653 415.0065 163.2999 C 415.0065 163.2344 415.0065 163.1036 414.9411 163.1036 C 414.9411 163.0382 414.8756 162.7765 414.8102 162.5803 C 414.6794 161.9261 414.614 161.4027 414.5486 161.3373 C 414.4831 161.2719 414.4177 160.7486 414.4177 160.4215 C 414.4177 160.1598 414.2215 159.7019 414.0906 159.7019 C 414.0252 159.7019 413.829 159.9635 413.829 160.029 C 413.829 160.0944 413.7635 160.1598 413.7635 160.2252 C 413.6981 160.2906 413.6981 160.4215 413.6981 160.5523 C 413.6981 160.6831 413.6327 160.814 413.5673 160.9448 C 413.5019 161.0102 413.4365 161.2065 413.4365 161.4027 C 413.4365 161.5336 413.371 161.7298 413.3056 161.8607 C 413.2402 161.9915 413.2402 162.0569 413.2402 162.1223 C 413.2402 162.1878 413.1748 162.3186 413.1094 162.5148 C 413.0439 162.7111 412.9131 162.9728 412.8477 163.1036 C 412.7823 163.2344 412.7169 163.4961 412.6514 163.6269 C 412.586 163.7578 412.5206 163.954 412.4552 164.0849 C 412.3898 164.1503 412.3244 164.2811 412.3244 164.3465 C 412.3244 164.412 412.2589 164.6082 412.1935 164.8045 C 412.1281 165.0007 412.0627 165.1316 412.0627 165.197 C 412.0627 165.2624 412.0627 165.3278 411.9973 165.3932 C 411.9318 165.4586 411.8664 165.5895 411.8664 165.7203 C 411.801 165.8512 411.7356 166.0474 411.7356 166.1128 C 411.6702 166.3091 411.3431 167.0941 411.2777 167.3558 C 411.2777 167.4212 411.2122 167.6174 411.1468 167.7483 C 411.0814 167.8791 411.016 168.0099 411.016 168.0754 C 411.016 168.1408 410.9506 168.337 410.8852 168.4679 C 410.8197 168.5987 410.7543 168.795 410.7543 168.795 C 410.7543 168.795 410.6889 168.9258 410.6235 169.0566 C 410.5581 169.1875 410.4927 169.3183 410.4927 169.3837 C 410.4927 169.58 410.1656 170.2996 410.0347 170.365 C 409.9693 170.365 409.9693 170.4304 409.9693 170.4958 C 410.0347 170.6267 409.7731 171.4771 409.5114 171.935 C 409.446 172.0659 409.3151 172.3929 409.2497 172.5892 C 409.1843 172.7854 409.0535 173.1125 408.988 173.3742 C 408.9226 173.5705 408.7918 173.7667 408.7918 173.8321 C 408.7918 173.8976 408.7264 173.963 408.661 174.0284 C 408.5955 174.0938 408.5301 174.2901 408.5301 174.4209 C 408.4647 174.748 408.3993 175.0097 408.203 175.4676 C 408.1376 175.6638 408.0068 175.9909 408.0068 176.1218 C 407.9414 176.2526 407.8759 176.3834 407.8105 176.5143 C 407.7451 176.5797 407.6797 176.7105 407.6797 176.7759 C 407.6797 176.8414 407.6143 176.9722 407.5488 177.103 C 407.4834 177.2339 407.418 177.4301 407.418 177.561 C 407.3526 177.8226 407.2218 178.0189 407.0909 177.9535 C 406.9601 177.888 406.3713 177.888 406.1097 177.888 C 406.0442 177.888 405.5209 177.888 405.063 177.888 C 402.9042 177.888 400.8108 177.888 400.0912 177.9535 C 399.895 177.9535 399.3062 178.0189 398.8483 178.0189 C 398.3903 178.0189 397.9324 178.0843 397.9324 178.0843 C 397.9324 178.0843 397.8016 178.0843 397.7362 178.0843 C 397.6053 178.0843 397.4745 177.7572 397.2128 177.103 C 396.8857 176.1872 396.7549 175.7947 396.6241 175.4676 C 396.5586 175.3367 396.4932 175.1405 396.4932 175.0751 C 396.4932 175.0097 396.4278 174.8788 396.3624 174.748 C 396.297 174.6171 396.2316 174.4863 396.2316 174.4209 C 396.2316 174.3555 396.1661 174.2246 396.1007 174.0938 C 396.0353 173.963 395.9699 173.7667 395.9699 173.7013 C 395.9699 173.6359 395.8391 173.3742 395.7082 173.1125 C 395.5774 172.8509 395.4465 172.5238 395.4465 172.3929 C 395.3811 172.2621 395.3157 172.0004 395.2503 171.935 C 395.1849 171.8042 395.1195 171.6733 395.1195 171.6079 C 395.1195 171.5425 395.054 171.4117 394.9886 171.2154 C 394.9232 171.0192 394.8578 170.8229 394.8578 170.7575 C 394.8578 170.6921 394.7924 170.5612 394.7269 170.4958 C 394.6615 170.4304 394.5961 170.365 394.5961 170.2996 C 394.5961 170.2342 394.3999 169.6454 394.2036 169.1875 C 394.1382 168.9912 394.0073 168.7295 393.9419 168.5987 C 393.8765 168.4679 393.8765 168.337 393.8111 168.337 C 393.8111 168.337 393.6803 168.0754 393.6148 167.7483 C 393.484 167.4866 393.3532 167.1595 393.3532 167.0287 C 393.2878 166.8978 393.2223 166.6362 393.0915 166.4399 C 392.8952 165.9166 392.6336 165.197 392.3065 164.6082 C 392.1102 164.2157 391.4561 162.9728 391.3906 162.8419 C 391.1944 162.384 390.3439 160.7486 390.2785 160.7486 C 390.2131 160.7486 390.0823 160.9448 390.0169 161.4682 C 389.9514 161.7298 389.9514 161.9915 389.886 162.0569 C 389.886 162.1223 389.8206 162.3186 389.8206 162.384 C 389.8206 162.4494 389.7552 162.6457 389.7552 162.7765 C 389.6898 162.9728 389.6244 163.2344 389.5589 164.0195 C 389.5589 164.2157 389.4935 164.5428 389.4281 164.6736 C 389.3627 164.9353 389.2973 165.3278 389.1664 165.8512 C 389.1664 166.0474 389.101 166.2437 389.101 166.2437 C 389.101 166.3091 389.0356 166.4399 389.0356 166.6362 C 388.9702 167.2903 388.8393 168.2716 388.7739 168.5333 C 388.7739 168.6641 388.7085 169.122 388.7085 169.5146 C 388.7085 169.9071 388.6431 170.4304 388.6431 170.7575 C 388.6431 171.0192 388.5777 171.5425 388.5122 171.8696 C 388.4468 172.4584 388.3814 173.0471 388.316 173.4396 C 388.316 173.505 388.2506 173.8321 388.2506 174.1592 C 388.2506 174.4863 388.1852 174.8788 388.1197 175.0097 C 388.1197 175.1405 388.0543 175.4676 387.9889 175.7293 C 387.9889 175.9255 387.9235 176.5143 387.8581 176.9068 C 387.7927 177.2993 387.7272 177.7572 387.7272 177.7572 C 387.6618 177.8226 387.6618 178.0843 387.6618 178.346 C 387.6618 178.6076 387.5964 179.1964 387.4656 179.5889 C 387.3347 179.9814 387.3347 180.4393 387.2693 180.6356 C 387.2693 180.8318 387.2039 180.9627 387.2039 181.0935 C 387.2039 181.1589 387.1385 181.4206 387.1385 181.6169 C 387.1385 181.8131 387.0731 182.1402 387.0076 182.271 C 386.9422 182.4019 386.8768 182.6635 386.8768 182.8598 C 386.8768 183.0561 386.8114 183.3831 386.746 183.5794 C 386.6805 183.7756 386.6151 183.9719 386.6151 184.0373 C 386.6151 184.1027 386.5497 184.2336 386.4843 184.3644 C 386.3535 184.4952 386.3535 184.5607 386.3535 184.7569 C 386.3535 184.9532 386.3535 185.1494 385.961 186.4578 C 385.8955 186.8503 385.7647 187.2428 385.7647 187.3082 C 385.7647 187.439 385.6993 187.6353 385.6339 187.7661 C 385.5684 187.897 385.503 188.2241 385.4376 188.4203 C 385.3722 188.6166 385.3068 188.8782 385.2414 188.9437 C 385.1105 189.1399 384.9143 189.6633 384.9143 189.9249 C 384.9143 189.9903 384.8488 190.1866 384.8488 190.3174 C 384.7834 190.4483 384.718 190.5791 384.718 190.7099 C 384.718 190.7754 384.6526 190.9062 384.5872 190.9716 C 384.5218 191.037 384.5218 191.1679 384.5218 191.2333 C 384.5218 191.2987 384.4563 191.4295 384.3909 191.495 L 384.2601 191.6258 L 381.1854 191.6258 C 379.4846 191.6258 377.5875 191.6258 376.8679 191.5604 C 376.1483 191.495 375.2978 191.495 374.9053 191.495 C 374.5128 191.495 373.9895 191.4295 373.6624 191.4295 C 373.4007 191.4295 373.0736 191.3641 372.8774 191.3641 C 372.7465 191.3641 372.2886 191.3641 371.9615 191.2987 C 371.6344 191.2987 371.1111 191.2333 370.784 191.2333 C 370.4569 191.2333 370.1952 191.1679 370.1298 191.1025 C 370.0644 191.037 369.9336 191.037 369.6065 191.037 C 369.4102 191.037 369.0177 191.037 368.7561 191.037 C 368.4944 191.037 367.971 190.9716 367.5785 190.9716 C 367.186 190.9716 366.6627 190.9062 366.4664 190.8408 C 366.2702 190.7754 365.8122 190.7099 365.4852 190.7099 C 364.6347 190.6445 363.3264 190.4483 362.7376 190.3174 C 362.6068 190.252 362.4105 190.252 362.2797 190.252 C 362.018 190.252 361.1676 190.1212 361.1022 190.0558 C 361.0367 189.9903 360.5788 189.9249 359.7284 189.7941 C 359.1396 189.7287 358.5509 189.5324 358.42 189.4016 C 358.3546 189.3362 358.2892 189.3362 358.1584 189.3362 C 358.0929 189.4016 357.9621 189.4016 357.8313 189.3362 C 357.7004 189.3362 357.635 189.2708 357.5696 189.2708 C 357.2425 189.2053 356.9154 189.1399 356.6537 189.0745 C 356.4575 189.0091 356.1958 188.9437 356.065 188.9437 C 355.5416 188.8782 353.9716 188.4857 353.4483 188.2895 C 353.3174 188.2241 353.1866 188.2241 353.1212 188.2241 C 352.8595 188.2241 350.8316 187.5699 350.5699 187.3736 C 350.5045 187.3082 350.3082 187.2428 350.2428 187.2428 C 349.9811 187.2428 349.5232 187.112 349.3924 186.9811 C 349.3269 186.8503 349.2615 186.8503 349.1307 186.8503 C 348.9344 186.9157 348.2148 186.654 348.084 186.4578 C 348.0186 186.3924 347.8878 186.3269 347.7569 186.3269 C 347.6261 186.3269 347.4952 186.2615 347.4298 186.1961 C 347.3644 186.1307 347.1027 186.0653 346.9065 185.9999 C 346.7102 185.9344 346.3831 185.8036 346.1215 185.6728 C 345.8598 185.5419 345.6635 185.4765 345.5981 185.4765 C 345.5327 185.4765 345.4019 185.4111 345.2056 185.3457 C 345.0748 185.2803 344.8131 185.1494 344.6823 185.1494 C 344.5514 185.084 344.3552 185.0186 344.2898 184.8878 C 344.1589 184.8223 344.0281 184.6915 343.8973 184.6915 C 343.701 184.6261 343.3085 184.4298 343.1777 184.299 C 343.1122 184.2336 342.9814 184.1682 342.8506 184.1682 C 342.5889 184.1027 342.0001 183.7756 341.9347 183.6448 C 341.9347 183.5794 341.8039 183.514 341.7385 183.514 C 341.4768 183.4486 341.1497 183.3177 341.0189 183.1869 C 340.9535 183.1215 340.7572 182.9906 340.6264 182.9906 C 340.4955 182.9252 340.3647 182.8598 340.2993 182.7944 C 340.2339 182.729 340.1684 182.6635 340.1684 182.6635 C 340.103 182.6635 339.5797 182.4019 339.5143 182.3365 C 339.4488 182.271 339.318 182.2056 339.2526 182.1402 C 339.1218 182.0748 338.9255 181.9439 338.8601 181.8785 C 338.7293 181.8131 338.5984 181.6823 338.533 181.6169 C 338.2713 181.486 337.8788 181.1589 337.6171 180.8973 C 337.4209 180.701 337.2901 180.6356 337.2246 180.6356 C 336.8976 180.6356 334.2154 178.1497 333.1033 176.8414 C 332.8416 176.5143 332.5146 176.1872 332.4491 176.0563 C 332.3183 175.9255 332.1875 175.7293 332.1875 175.6638 C 332.122 175.5984 331.9912 175.4022 331.9258 175.3367 C 331.8604 175.2713 331.795 175.1405 331.795 175.0751 C 331.795 175.0097 331.7295 174.8788 331.5987 174.748 C 331.4679 174.6171 331.4025 174.4863 331.4025 174.4209 C 331.4025 174.3555 331.337 174.2901 331.2716 174.2901 C 331.0754 174.2246 330.6829 173.505 330.0287 172.2621 C 329.8978 172.0004 329.767 171.6733 329.7016 171.6733 C 329.7016 171.6079 329.6362 171.4771 329.5707 171.3463 C 329.5053 171.2154 329.3745 170.9537 329.3091 170.7575 C 329.0474 170.1033 328.8512 169.7108 328.8512 169.5146 C 328.8512 169.4491 328.7857 169.2529 328.7857 169.1875 C 328.7203 169.122 328.6549 168.9912 328.5895 168.8604 C 328.5241 168.7295 328.4586 168.5333 328.4586 168.4025 C 328.4586 168.2716 328.3932 168.1408 328.3932 168.0099 C 328.3932 167.9445 328.3278 167.7483 328.3278 167.6174 C 328.197 167.3558 327.9353 166.1782 327.8699 165.6549 C 327.8699 165.3932 327.8045 165.197 327.8045 165.0661 C 327.8045 165.0007 327.739 164.5428 327.6736 164.0849 C 327.5428 162.7765 327.5428 160.7486 327.6736 160.029 C 327.8045 159.3748 328.1316 158.5898 328.3278 158.1318 C 328.4586 157.8702 328.5895 157.6085 328.6549 157.5431 C 328.7203 157.4777 328.7857 157.2814 328.8512 157.216 C 328.9166 157.1506 328.982 157.0197 329.0474 156.8889 C 329.1128 156.7581 329.2437 156.5618 329.3091 156.431 C 329.4399 156.3001 329.5053 156.1693 329.5053 156.1693 C 329.5053 156.1039 330.552 154.9264 331.2062 154.2722 C 331.4025 154.0759 331.5987 153.8797 331.6641 153.8143 C 331.9912 153.4872 332.3183 153.1601 332.4491 153.0947 C 332.5146 153.0293 332.7108 152.8984 332.8416 152.7676 C 332.9725 152.6367 333.1687 152.4405 333.2996 152.3751 C 333.4304 152.3097 333.5612 152.1788 333.5612 152.1788 C 333.6267 152.1134 333.6921 152.048 333.8229 151.9826 C 334.0192 151.9171 334.7388 151.3284 334.7388 151.263 C 334.7388 151.263 335.3275 150.7396 336.1125 150.1509 C 336.2434 150.02 336.4396 149.8892 336.5705 149.8892 C 336.6359 149.8892 336.7667 149.7584 336.8321 149.6275 C 336.8976 149.4967 337.0284 149.4313 337.0284 149.3659 C 337.0938 149.3659 337.2246 149.235 337.3555 149.1042 C 337.4863 148.9733 337.8134 148.7771 338.0097 148.5808 C 338.2713 148.45 338.5984 148.1883 338.7947 148.0575 C 338.9909 147.9267 339.1872 147.7958 339.2526 147.7958 C 339.3834 147.7958 339.7105 147.5342 339.6451 147.4687 C 339.6451 147.4033 339.5143 147.4033 338.6638 147.4033 C 338.1405 147.4033 337.6171 147.4687 337.4209 147.4687 C 337.2901 147.4687 336.963 147.5342 336.7013 147.5996 C 336.4396 147.665 336.178 147.665 336.1125 147.7304 C 336.0471 147.7304 335.1967 147.8612 334.6079 147.9267 C 334.4117 147.9267 334.15 147.9921 334.0192 147.9921 C 333.8883 148.0575 333.6921 148.0575 333.4958 148.0575 C 333.2996 148.0575 333.1687 148.0575 333.0379 148.1229 C 332.9725 148.1883 332.7108 148.2537 332.58 148.3192 C 332.4491 148.3846 332.1875 148.3846 332.122 148.45 C 332.0566 148.45 331.8604 148.5154 331.7295 148.5154 C 331.5987 148.5154 331.4025 148.5808 331.2716 148.5808 C 331.0099 148.7117 330.0941 148.9079 329.9633 148.9079 C 329.8978 148.9079 329.7016 148.9733 329.5707 149.0388 C 329.4399 149.1042 329.1782 149.1696 328.9166 149.235 C 328.7203 149.3004 328.4586 149.3659 328.3932 149.4313 C 328.2624 149.5621 327.739 149.6929 327.1503 149.8238 C 326.954 149.8892 326.6269 149.9546 326.4961 150.02 C 326.3653 150.0854 326.169 150.1509 326.1036 150.1509 C 326.0382 150.1509 325.9073 150.2163 325.8419 150.2817 C 325.7765 150.3471 325.5803 150.4125 325.4494 150.4125 C 324.9915 150.478 324.7952 150.5434 324.6644 150.6742 C 324.599 150.7396 324.4027 150.805 324.3373 150.805 C 323.814 150.9359 322.8981 151.263 322.6365 151.3938 C 322.571 151.4592 322.3748 151.5246 322.2439 151.5246 C 322.1131 151.5246 321.9169 151.5901 321.786 151.6555 C 321.6552 151.7209 321.5244 151.7863 321.3935 151.7863 C 321.2627 151.7863 321.1318 151.8517 321.001 151.9171 C 320.8702 151.9826 320.7393 152.1134 320.6085 152.1134 C 320.4777 152.1134 320.4122 152.1788 320.3468 152.1788 C 320.2814 152.2442 319.6272 152.5059 319.431 152.5059 C 319.3656 152.5059 319.1693 152.5713 319.1039 152.6367 C 319.0385 152.7022 318.8422 152.7676 318.646 152.833 C 317.6647 153.1601 317.4684 153.2255 317.403 153.2255 C 317.3376 153.2255 317.3376 153.2255 317.2722 153.2909 C 317.2068 153.3563 316.2909 153.8143 316.1601 153.8143 C 316.1601 153.8143 315.9638 153.8797 315.7676 154.0105 C 315.5713 154.0759 315.3097 154.2068 315.2442 154.2068 C 315.1788 154.2068 314.9171 154.3376 314.7863 154.403 C 314.6555 154.4684 314.4592 154.5993 314.3938 154.5993 C 314.1321 154.6647 313.805 154.7955 313.4125 155.0572 C 313.1509 155.188 312.9546 155.3189 312.8892 155.3189 C 312.8238 155.3189 312.7584 155.3843 312.6929 155.3843 C 312.6275 155.4497 312.5621 155.4497 312.4967 155.4497 C 312.4313 155.4497 312.3659 155.5151 312.3004 155.5151 C 312.235 155.5805 311.3192 156.0385 310.9921 156.1693 C 310.8612 156.2347 310.7304 156.3001 310.5996 156.3656 C 310.5342 156.431 310.4033 156.4964 310.4033 156.4964 C 310.3379 156.4964 310.2071 156.5618 310.0762 156.6927 C 309.9454 156.7581 309.7491 156.8889 309.6837 156.9543 C 309.2258 157.1506 309.0295 157.2814 309.0295 157.2814 C 309.0295 157.3468 308.3099 157.7393 307.6558 158.0664 C 307.3941 158.1973 307.0016 158.4589 306.8053 158.5898 C 306.6091 158.7206 306.4128 158.8514 306.4128 158.8514 C 306.4128 158.8514 306.282 158.9169 306.1512 159.0477 C 306.0203 159.1131 305.7586 159.3094 305.5624 159.4402 C 305.3661 159.571 305.1699 159.7019 305.039 159.7673 C 304.9736 159.8327 304.7774 159.9635 304.5811 160.029 C 304.254 160.2252 303.9924 160.3561 303.6653 160.6177 C 303.3382 160.8794 302.8148 161.2065 302.3569 161.4682 C 302.1607 161.599 301.899 161.7298 301.7682 161.8607 C 301.6373 161.9261 301.3756 162.1223 301.1794 162.2532 C 300.9831 162.384 300.7215 162.5148 300.6561 162.5803 C 300.2635 162.8419 299.6748 163.2344 299.6094 163.2344 C 299.5439 163.2344 299.5439 163.2999 299.4785 163.3653 C 299.4131 163.4307 299.2169 163.6269 298.8898 163.8232 C 298.6281 164.0195 298.2356 164.2811 298.0393 164.412 C 297.8431 164.5428 297.5814 164.739 297.3852 164.8045 C 297.2543 164.8699 296.9272 165.0661 296.731 165.2624 C 296.5347 165.4586 296.1422 165.7203 295.8805 165.8512 C 295.6189 166.0474 295.3572 166.2437 295.2264 166.3091 C 295.161 166.3745 294.8993 166.5707 294.7684 166.7016 C 294.1143 167.1595 293.9834 167.2249 293.7872 167.4212 C 293.6563 167.552 293.3947 167.7483 293.1984 167.8791 C 293.0022 168.0099 292.7405 168.2716 292.5442 168.4025 C 292.2826 168.5987 292.1517 168.6641 292.0863 168.6641 C 291.8901 168.6641 291.8246 168.7295 291.8246 168.8604 C 291.8246 168.9912 291.6284 169.1875 291.4976 169.1875 C 291.4321 169.1875 291.2359 169.3183 291.105 169.5146 C 290.6471 169.9725 290.32 170.2342 290.0584 170.365 C 289.9929 170.4304 289.7967 170.5612 289.7313 170.6267 C 289.6659 170.7575 289.4042 170.9537 289.2733 171.0192 C 289.1425 171.0846 288.9463 171.2808 288.8808 171.2808 C 288.75 171.4117 287.8342 172.1967 287.5071 172.3929 C 287.3762 172.4584 287.2454 172.5892 287.18 172.6546 C 286.7875 173.0471 286.3295 173.4396 286.1987 173.505 C 286.1333 173.5705 285.8716 173.7667 285.6754 173.963 C 285.4791 174.1592 285.2174 174.4209 285.0866 174.4863 C 284.8903 174.6171 284.4324 175.0097 284.4324 175.1405 C 284.4324 175.1405 284.1053 175.4676 283.7128 175.7947 C 283.3203 176.1218 282.8624 176.5143 282.797 176.6451 C 282.6661 176.7759 282.5353 176.9068 282.4045 176.9068 C 282.339 176.9068 282.2736 176.9722 282.2082 177.103 C 282.1428 177.2339 281.8811 177.561 281.554 177.888 C 280.4419 179.0001 278.8719 180.6356 278.2177 181.3552 C 278.0869 181.5514 277.8252 181.8131 277.629 181.9439 C 277.3673 182.271 275.9935 183.8411 275.5356 184.4298 C 275.4048 184.5607 275.2739 184.7569 275.1431 184.8223 C 275.0777 184.8878 274.9468 184.9532 274.9468 185.0186 C 274.9468 185.084 274.8814 185.1494 274.816 185.1494 C 274.816 185.1494 274.7506 185.2148 274.6852 185.3457 C 274.6197 185.4765 274.4889 185.6728 274.3581 185.8036 C 274.2272 185.9344 274.031 186.1961 273.9001 186.3924 C 273.7693 186.5232 273.5076 186.9157 273.3114 187.1774 C 273.1151 187.439 272.8535 187.7661 272.788 187.8316 C 272.7226 187.897 272.5264 188.1586 272.3955 188.3549 C 272.2647 188.5512 272.003 188.8782 271.8722 189.0745 C 271.7414 189.2708 271.5451 189.5324 271.4797 189.5978 C 271.4143 189.6633 271.3488 189.7941 271.2834 189.8595 C 271.218 189.9249 271.0218 190.252 270.8909 190.4483 C 270.7601 190.7099 270.4984 191.1025 270.3022 191.3641 C 270.1059 191.6258 269.9097 191.9529 269.8442 192.0837 C 269.648 192.3454 269.5826 192.4762 269.3209 192.9342 C 269.2555 193.065 269.1246 193.3267 268.9938 193.3921 C 268.9284 193.5229 268.7321 193.7846 268.6013 193.9808 C 268.4705 194.1771 268.3396 194.4388 268.2742 194.5696 C 268.2088 194.7004 268.1434 194.8313 268.1434 194.8313 C 268.1434 194.8967 267.8163 195.42 267.7509 195.4854 C 267.6854 195.4854 267.62 195.6163 267.5546 195.7471 C 267.3584 196.205 267.1621 196.5976 267.0967 196.663 C 267.0967 196.663 266.9004 196.9901 266.7042 197.3826 C 266.5079 197.7751 266.3117 198.1676 266.2463 198.233 C 266.1808 198.2984 266.1154 198.4293 266.1154 198.4293 C 266.1154 198.4947 266.05 198.5601 265.9846 198.6255 C 265.9192 198.6909 265.8537 198.8218 265.8537 198.8218 C 265.8537 198.8872 265.7883 198.9526 265.7883 199.018 C 265.7229 199.0834 265.5921 199.3451 265.5267 199.6068 C 265.3958 199.8684 265.265 200.1301 265.1996 200.261 C 265.1342 200.3264 265.0687 200.4572 265.0687 200.4572 C 265.0687 200.5226 264.8725 200.9805 264.7416 201.1768 C 264.7416 201.2422 264.6108 201.5039 264.5454 201.7656 C 264.48 202.0272 264.3491 202.2889 264.3491 202.2889 C 264.2837 202.2889 264.022 202.8777 264.022 202.9431 C 264.022 203.0085 263.695 203.8589 263.5641 204.186 C 263.4987 204.3169 263.4333 204.5785 263.3679 204.7094 C 263.3024 204.9056 263.1716 205.2327 262.9754 205.8215 C 262.9099 205.8869 262.9099 206.0831 262.9099 206.1486 C 262.9099 206.214 262.8445 206.3448 262.8445 206.4102 C 262.7791 206.4756 262.7137 206.6719 262.7137 206.8027 C 262.7137 206.9336 262.6483 207.1298 262.5829 207.3261 C 262.5174 207.4569 262.452 207.7186 262.452 207.784 C 262.452 207.8494 262.3212 208.1111 262.2558 208.3073 C 262.1903 208.5036 262.1249 208.6999 262.1249 208.7653 C 262.1249 208.8307 262.0595 208.9615 262.0595 209.0269 C 261.9941 209.1578 261.9287 209.354 261.9287 209.4849 C 261.9287 209.6157 261.8633 209.7465 261.7978 209.8774 C 261.7324 209.9428 261.667 210.2045 261.667 210.4661 C 261.6016 210.7278 261.5362 210.9241 261.5362 211.0549 C 261.4707 211.1857 261.4053 211.5128 261.3399 211.8399 C 261.3399 211.9708 261.2745 212.2324 261.2091 212.3633 C 261.1437 212.4941 261.0782 212.7558 261.0782 212.8866 C 261.0128 213.3445 260.8166 214.3912 260.6857 214.7183 C 260.6203 214.8491 260.5549 215.1762 260.5549 215.4379 C 260.5549 215.6996 260.4895 215.9612 260.4241 216.0921 C 260.3586 216.2883 260.2932 216.4192 260.2932 216.7463 C 260.2932 217.0079 260.2278 217.2696 260.2278 217.4004 C 260.097 217.6621 260.097 217.9892 260.1624 218.0546 C 260.2278 218.12 260.4895 218.12 260.6203 218.0546 C 260.6857 218.0546 260.882 217.9892 261.1437 217.9238 C 261.9941 217.7275 262.1903 217.6621 262.3866 217.5967 C 262.5174 217.5313 262.6483 217.5313 262.7137 217.5313 C 262.7791 217.5313 262.9754 217.4659 263.0408 217.4659 C 263.1062 217.4659 263.3679 217.335 263.5641 217.2696 C 263.7604 217.2042 264.0875 217.1388 264.2837 217.0733 C 264.48 217.0079 264.8725 216.9425 265.1342 216.8771 C 265.5921 216.8117 266.05 216.6808 266.3117 216.55 C 266.3771 216.55 266.5733 216.4846 266.7696 216.4846 C 266.9659 216.4846 267.0967 216.4846 267.1621 216.4192 C 267.2275 216.3537 267.2929 216.3537 267.3584 216.3537 C 267.4238 216.3537 267.4892 216.3537 267.5546 216.2883 C 267.8163 216.1575 269.3209 215.8958 269.5826 215.9612 C 269.7788 215.9612 269.8442 215.9612 270.0405 215.8304 C 270.1713 215.765 270.3676 215.6996 270.5638 215.6342 C 270.7601 215.6342 271.0218 215.5687 271.218 215.5033 C 271.4143 215.4379 271.8722 215.3725 272.1993 215.3725 C 272.5264 215.3071 272.8535 215.3071 272.8535 215.2416 C 272.9843 215.1762 273.6385 215.1108 274.2927 215.0454 C 274.5543 215.0454 274.816 214.98 274.8814 214.98 C 275.1431 214.8491 275.4702 214.7837 277.2365 214.6529 C 277.7598 214.5875 278.3486 214.522 278.5448 214.522 C 278.7411 214.4566 279.3952 214.3912 279.9186 214.3912 C 280.4419 214.3912 280.9653 214.3258 281.1615 214.2604 C 281.2924 214.2604 281.8811 214.195 282.4699 214.1295 C 283.0586 214.1295 283.7128 214.0641 284.0399 213.9987 C 284.3016 213.9987 285.4791 213.9333 286.5258 213.9333 C 287.6379 213.9333 288.6192 213.8679 288.6846 213.8679 C 289.4042 213.8679 293.3293 213.9333 293.5255 213.9987 C 293.6563 213.9987 293.8526 214.0641 293.918 214.0641 C 293.9834 214.0641 294.3759 214.0641 294.703 214.1295 C 295.0301 214.1295 295.7497 214.195 296.2076 214.2604 C 297.6468 214.3258 298.2356 214.3912 299.2169 214.5875 C 299.6748 214.6529 300.1327 214.7183 300.329 214.7183 C 300.5252 214.7183 300.7215 214.7837 300.7215 214.7837 C 300.7869 214.7837 300.9831 214.8491 301.2448 214.8491 C 301.5065 214.8491 301.8336 214.9146 302.0952 214.98 C 302.2915 215.0454 302.684 215.1108 302.8803 215.1108 C 303.0765 215.1108 303.3382 215.1762 303.4036 215.1762 C 303.469 215.1762 303.6653 215.2416 303.7961 215.2416 C 303.9269 215.2416 304.1886 215.3071 304.3849 215.3725 C 304.5811 215.4379 304.9082 215.5033 305.1045 215.5033 C 305.6278 215.5687 306.1512 215.6996 306.4128 215.8304 C 306.5437 215.8958 306.8053 215.9612 307.0016 216.0267 C 307.6558 216.1575 307.7866 216.1575 307.9174 216.2883 C 308.0483 216.3537 308.1791 216.3537 308.3099 216.3537 C 308.637 216.3537 309.0295 216.4846 309.2912 216.55 C 309.422 216.6154 309.5529 216.6808 309.6837 216.6808 C 309.88 216.7463 310.9267 217.0733 311.0575 217.1388 C 311.1229 217.2042 311.2537 217.2042 311.3192 217.2042 C 311.3846 217.2042 311.5808 217.2696 311.7117 217.335 C 311.8425 217.4004 311.9733 217.4659 312.1042 217.4659 C 312.1696 217.4659 312.3659 217.5313 312.4967 217.5967 C 312.6275 217.6621 312.9546 217.7929 313.2163 217.8584 C 313.2163 217.8584 313.2163 217.8584 313.2163 217.8584 C 313.02 210.7278 312.8892 203.5973 313.4125 196.4667 C 319.8235 196.9901 326.2999 197.448 332.7108 197.8405 C 333.9537 199.0834 335.2621 200.3264 336.5705 201.5693 C 336.505 204.3823 336.505 207.2607 336.505 210.0736 C 335.3929 211.1203 334.3463 212.1016 333.2996 213.1483 C 334.4117 214.195 335.5238 215.3071 336.6359 216.3537 C 336.7013 219.2321 336.7667 222.1759 336.7667 225.0543 C 335.4584 226.3627 334.0846 227.7365 332.7762 229.0448 C 330.6174 229.0448 328.4586 229.0448 326.2999 229.0448 C 326.6269 229.7644 326.954 230.4186 327.0195 230.8111 C 327.0195 230.9419 327.1503 231.1382 327.2157 231.269 C 327.2811 231.3999 327.412 231.7924 327.5428 232.1849 C 327.6736 232.5774 327.739 232.9699 327.8045 233.0353 C 327.8045 233.1007 327.8699 233.3624 327.9353 233.5586 C 327.9353 233.7549 328.0007 234.0166 328.0661 234.1474 C 328.0661 234.2782 328.1316 234.4745 328.1316 234.5399 C 328.1316 234.6708 328.197 234.9324 328.197 235.1287 C 328.2624 235.3249 328.3278 235.7174 328.3278 235.9791 C 328.3278 236.2408 328.3932 236.5679 328.3932 236.7641 C 328.3932 236.895 328.3932 237.4837 328.4586 238.0071 C 328.4586 238.5304 328.5241 239.5117 328.5241 240.1659 C 328.5895 241.3434 328.5895 241.3434 328.6549 241.3434 C 328.7203 241.3434 328.8512 241.278 328.9166 241.1471 C 329.0474 241.0163 329.1128 240.9509 329.2437 240.9509 C 329.3745 240.9509 329.4399 240.8854 329.5707 240.6892 C 329.7016 240.5584 329.8324 240.4275 329.8324 240.4275 C 329.8978 240.4275 330.0287 240.3621 330.6829 239.7733 C 330.8791 239.6425 331.2062 239.3808 331.4679 239.25 C 331.7295 239.0537 331.9912 238.8575 332.122 238.7921 C 332.1875 238.7267 332.4491 238.5958 332.58 238.465 C 332.7762 238.3996 332.9071 238.2687 332.9725 238.2033 C 333.0379 238.1379 333.1687 238.0725 333.2996 238.0071 C 333.4304 237.9416 333.6267 237.8108 333.7575 237.7454 C 333.8883 237.68 334.0846 237.5491 334.2154 237.4837 C 334.3463 237.4183 334.6733 237.222 334.8696 237.0912 C 335.3929 236.8295 336.505 236.2408 336.6359 236.2408 C 336.7013 236.2408 336.8321 236.1754 336.8976 236.1099 C 337.0938 235.9791 337.6826 235.7174 337.8788 235.652 C 337.9442 235.652 338.1405 235.5866 338.2059 235.5212 C 338.533 235.3249 339.4488 234.9978 339.5797 234.9978 C 339.7105 234.9978 339.8414 234.9324 339.9068 234.867 C 339.9722 234.8016 340.103 234.7362 340.1684 234.7362 C 340.2339 234.7362 340.3647 234.6708 340.4301 234.6708 C 340.561 234.6053 341.4114 234.3437 342.131 234.1474 C 342.6543 234.0166 343.3085 233.8857 343.5048 233.8857 C 343.5702 233.8857 343.701 233.8203 343.8318 233.8203 C 343.8973 233.7549 344.1589 233.7549 344.4206 233.6895 C 344.7477 233.6895 344.9439 233.6241 345.0748 233.5586 C 345.2056 233.4932 345.4019 233.4278 345.5981 233.4278 C 345.9252 233.3624 347.0373 233.2316 347.7569 233.1661 C 348.5419 233.1007 349.9157 233.0353 350.897 233.0353 C 351.4203 233.0353 352.1399 233.0353 352.467 233.0353 C 353.1866 233.0353 354.1679 233.1661 354.5604 233.297 C 354.7566 233.3624 354.822 233.3624 354.8875 233.297 C 355.0837 233.2316 356.9808 233.3624 357.3079 233.4932 C 357.4388 233.5586 357.7004 233.5586 357.8967 233.6241 C 358.0929 233.6241 358.4854 233.6895 358.7471 233.7549 C 359.0088 233.8203 359.4013 233.8857 359.663 233.9512 C 359.9246 234.0166 360.1863 234.082 360.2517 234.1474 C 360.3171 234.2128 360.448 234.2128 360.5788 234.2128 C 360.7097 234.2128 361.1022 234.2782 361.4293 234.4091 C 361.7563 234.4745 362.0834 234.6053 362.0834 234.6053 C 362.2797 234.6053 362.9993 234.867 363.1301 234.9324 C 363.1955 234.9978 363.3264 235.0633 363.4572 235.0633 C 363.588 235.0633 363.7189 235.1287 363.8497 235.1287 C 363.9151 235.1941 364.1768 235.2595 364.3731 235.3249 C 364.5693 235.3903 364.831 235.5212 364.831 235.5212 C 364.9618 235.652 365.2889 235.7829 365.3543 235.7174 C 365.4197 235.652 366.0085 235.7829 366.2702 235.9791 C 366.4664 236.0445 366.6627 236.1754 366.7935 236.1754 C 367.0552 236.2408 367.5131 236.437 367.7094 236.5679 C 367.7748 236.6333 367.9056 236.6333 367.971 236.6333 C 368.0365 236.6333 368.2981 236.7641 368.5598 236.8295 C 368.8215 236.9604 369.214 237.1566 369.4102 237.222 C 369.6065 237.2875 369.9336 237.4183 369.999 237.4837 C 370.3915 237.7454 371.0457 238.0725 371.1111 238.0725 C 371.1765 238.0725 371.2419 238.1379 371.3073 238.2033 C 371.3728 238.2687 371.4382 238.3342 371.5036 238.3342 C 371.569 238.3342 371.6999 238.3996 371.8961 238.5304 C 372.7465 239.0537 373.0082 239.1846 373.0736 239.1846 C 373.139 239.1846 373.2699 239.25 373.3353 239.3154 C 373.4007 239.3808 373.6624 239.5117 373.8586 239.6425 C 374.0549 239.7733 374.2512 239.8388 374.2512 239.9042 C 374.2512 239.9042 374.382 239.9696 374.4474 240.035 C 374.5782 240.1004 374.6437 240.1659 374.7091 240.2313 C 374.7745 240.2967 374.8399 240.3621 374.8399 240.3621 C 374.9708 240.3621 375.4941 240.6238 375.6903 240.82 C 375.7558 240.8854 375.8866 240.9509 375.952 240.9509 C 376.0174 240.9509 376.1483 241.0163 376.2791 241.0817 C 376.4099 241.1471 376.6716 241.3434 376.8679 241.4742 C 377.1295 241.605 377.3258 241.7359 377.3912 241.8013 C 377.4566 241.8667 377.5875 241.9321 377.7183 241.9976 C 377.8491 242.063 378.0454 242.1938 378.1762 242.3246 C 378.3071 242.3901 378.3725 242.5209 378.4379 242.5209 C 378.5033 242.5209 379.0267 242.848 379.3537 243.1097 C 379.4846 243.1751 379.6808 243.3059 379.8117 243.4367 C 379.9425 243.5022 380.1388 243.633 380.2696 243.7638 C 380.4004 243.8293 380.7929 244.1563 381.1854 244.4834 C 381.578 244.8105 381.9705 245.0722 382.0359 245.203 C 382.1013 245.2684 382.1667 245.3339 382.2321 245.3339 C 382.2976 245.3339 382.4284 245.3993 382.5592 245.5301 C 382.6901 245.661 382.9517 245.7918 383.0171 245.9226 C 383.2134 246.0535 383.3442 246.1843 384.1293 246.8385 C 384.3255 247.0347 384.7834 247.3618 385.1105 247.6235 C 385.4376 247.8852 386.0264 248.4085 386.4189 248.801 C 387.531 249.8477 390.2131 252.5298 390.4748 252.9223 C 390.5402 252.9878 390.7365 253.2494 390.8673 253.3803 C 390.9981 253.5111 391.2598 253.8382 391.3906 254.0344 C 391.5215 254.2307 391.7177 254.4924 391.8486 254.6232 C 392.1756 254.9503 392.7644 255.7353 392.8298 255.9316 C 392.8298 256.0624 392.9607 256.1278 393.0915 256.1932 C 393.2878 256.3241 393.6148 256.7166 393.6148 256.8474 C 393.6148 256.9128 393.6803 256.9782 393.6803 256.9782 C 393.7457 257.0437 394.2036 257.6324 394.4653 257.8941 C 394.5307 258.0249 394.7269 258.2866 394.8578 258.4829 C 394.9886 258.6791 395.1195 258.8754 395.1195 258.8754 C 395.1195 258.8754 395.1849 259.0062 395.3157 259.137 C 395.4465 259.2679 395.512 259.3987 395.512 259.4641 C 395.512 259.6604 395.5774 259.7912 395.7082 259.8566 C 395.7736 259.922 395.9045 260.0529 395.9699 260.1183 C 396.0353 260.2491 396.1661 260.4454 396.297 260.6416 C 396.4278 260.7725 396.4932 260.9033 396.4932 260.9687 C 396.4932 260.9687 396.5586 261.0996 396.6241 261.165 C 396.8857 261.4267 397.082 261.8192 397.1474 262.0154 C 397.2128 262.1463 397.2782 262.2771 397.3437 262.4079 C 397.4745 262.6042 397.6708 262.8659 397.6708 262.9967 C 397.6708 263.0621 397.7362 263.1275 397.8016 263.1929 C 397.867 263.2584 397.9978 263.4546 398.1287 263.6509 C 398.2595 263.8471 398.3903 264.1742 398.5212 264.4359 C 398.652 264.6321 398.8483 265.0246 398.9137 265.1555 C 398.9791 265.3517 399.2408 265.8097 399.437 266.2022 C 399.6333 266.5947 399.7641 266.9872 399.7641 266.9872 C 399.7641 267.0526 399.8295 267.1834 399.9604 267.3797 C 400.0258 267.5759 400.1566 267.7722 400.1566 267.8376 C 400.1566 267.903 400.222 268.0339 400.2875 268.1647 C 400.4837 268.6226 400.8762 269.5385 400.9416 269.7347 C 400.9416 269.8001 401.0071 269.9964 401.0725 270.1272 C 401.2033 270.3235 401.5304 271.3048 401.5304 271.3702 C 401.5304 271.501 401.8575 272.0898 401.9229 272.0898 C 401.9883 272.0898 402.0537 272.0244 402.0537 271.9589 C 402.1192 271.8935 402.1846 271.7627 402.25 271.7627 C 402.3154 271.7627 402.3808 271.6973 402.3808 271.501 C 402.3808 271.3702 402.4463 271.1739 402.5117 271.0431 C 402.5771 270.9122 402.7079 270.6506 402.7079 270.5197 C 402.7733 270.3235 402.8388 270.0618 402.9696 269.931 C 403.035 269.7347 403.2313 269.3422 403.3621 269.0151 C 403.4929 268.688 403.6892 268.2301 403.82 267.9684 C 403.9509 267.7068 404.0163 267.4451 404.0817 267.3797 C 404.1471 267.2488 404.3434 266.7909 404.605 266.333 C 404.6705 266.2022 404.8013 266.0713 404.8667 266.0059 C 404.9976 265.9405 404.9976 265.8751 404.9976 265.7442 C 404.9976 265.6134 405.063 265.4171 405.3246 264.9592 C 405.7826 264.1742 405.9788 263.8471 406.1751 263.6509 C 406.2405 263.5854 406.3059 263.4546 406.3059 263.3892 C 406.3713 263.2584 406.8293 262.5388 406.9601 262.3425 C 407.0255 262.2771 407.0909 262.2117 407.0909 262.1463 C 407.0909 262.0808 407.1563 262.0154 407.2218 261.8846 C 407.2872 261.8192 407.418 261.6229 407.418 261.5575 C 407.4834 261.4921 407.5488 261.2958 407.6143 261.165 C 407.6797 261.0996 407.8759 260.7725 408.0722 260.5762 C 408.203 260.3146 408.4647 260.0529 408.5301 259.9875 C 408.5955 259.922 408.661 259.7912 408.661 259.7912 C 408.661 259.7258 408.7264 259.6604 408.7918 259.5295 C 408.8572 259.4641 409.0535 259.2679 409.1189 259.137 C 409.446 258.6137 410.8852 256.782 411.6048 255.997 C 411.801 255.8007 412.0627 255.4736 412.2589 255.212 C 414.0252 253.1186 416.5111 250.5673 419.4549 247.8197 C 419.5857 247.6889 419.8474 247.4927 419.9128 247.4272 C 420.0437 247.3618 420.1745 247.231 420.3053 247.1001 C 420.3708 246.9693 420.6324 246.8385 420.7633 246.7076 C 420.8941 246.6422 421.0249 246.5114 421.0249 246.5114 C 421.0249 246.446 421.8754 245.7264 422.2679 245.3993 C 422.3987 245.3339 422.6604 245.1376 422.7912 245.0068 C 422.922 244.8759 423.1183 244.7451 423.2491 244.7451 C 423.3146 244.6797 423.4454 244.6143 423.4454 244.5488 C 423.5108 244.418 424.165 243.8947 424.6883 243.5676 C 424.95 243.4367 425.2771 243.1751 425.4733 243.0442 C 426.1275 242.5209 426.3238 242.3901 426.7163 242.2592 C 426.978 242.1284 427.1088 242.063 427.1742 241.9321 C 427.2396 241.8013 427.3705 241.7359 427.6321 241.605 C 427.8284 241.5396 428.0901 241.3434 428.2863 241.2125 C 428.4171 241.0817 428.6134 240.9509 428.7442 240.8854 C 428.8097 240.82 429.0713 240.6892 429.2022 240.5584 C 429.3984 240.4275 429.6601 240.2967 429.7909 240.2313 C 429.9218 240.1659 430.118 240.1004 430.118 240.035 C 430.1834 239.9696 430.3797 239.8388 430.6414 239.6425 C 430.903 239.5117 431.1647 239.3154 431.2955 239.25 C 431.361 239.1846 431.688 238.9883 432.0151 238.8575 C 432.3422 238.7267 432.6693 238.5304 432.8001 238.465 C 432.931 238.3996 433.1272 238.3342 433.1927 238.3342 C 433.2581 238.3342 433.3889 238.2687 433.4543 238.2033 C 433.5197 238.1379 433.6506 238.0725 433.8468 238.0071 C 433.9777 237.9416 434.1085 237.9416 434.1085 237.8762 C 434.1085 237.7454 434.3048 237.6146 434.4356 237.6146 C 434.501 237.6146 434.6318 237.5491 434.6973 237.4837 C 434.8281 237.3529 435.0244 237.2875 435.1552 237.2875 C 435.3514 237.2875 435.6785 237.0912 435.8094 236.895 C 435.8748 236.8295 436.0056 236.7641 436.071 236.7641 C 436.1365 236.7641 436.4635 236.6333 436.6598 236.5679 C 436.8561 236.437 437.2486 236.3062 437.3794 236.2408 C 437.5102 236.2408 437.6411 236.1099 437.7719 236.0445 C 437.9027 235.9791 438.0336 235.9137 438.0336 235.9137 C 438.2298 235.9137 438.9494 235.652 439.0803 235.5212 C 439.1457 235.4558 439.2765 235.4558 439.3419 235.4558 C 439.4074 235.4558 439.669 235.3903 439.8653 235.2595 C 440.0615 235.1287 440.3886 235.0633 440.5195 234.9978 C 440.6503 234.9978 440.8465 234.9324 440.912 234.867 C 441.1082 234.8016 441.5661 234.6053 442.0241 234.5399 C 442.2203 234.4745 442.4166 234.4745 442.4166 234.4091 C 442.4166 234.3437 442.7437 234.2128 443.0053 234.2128 C 443.0708 234.2128 443.267 234.1474 443.3978 234.1474 C 443.4633 234.082 443.6595 234.082 443.7249 234.082 C 443.7903 234.082 443.9212 234.082 443.9866 234.0166 C 444.052 233.9512 444.2483 233.9512 444.4445 233.8857 C 444.6408 233.8857 444.837 233.8203 444.9679 233.7549 C 445.0987 233.6895 445.3604 233.6895 445.622 233.6895 C 446.0146 233.6895 446.08 233.6895 446.2108 233.5586 C 446.3416 233.4932 446.4725 233.4278 446.7996 233.4278 C 447.0612 233.4278 447.3229 233.3624 447.4537 233.297 C 447.5846 233.2316 447.7154 233.2316 447.8463 233.2316 C 447.9771 233.2316 448.1733 233.2316 448.3042 233.1661 C 448.5659 233.1007 449.8742 232.9045 449.9396 232.9699 C 450.005 232.9699 450.0705 232.9699 450.1359 232.9699 C 450.3976 232.8391 453.9955 232.8391 455.6964 232.9045 C 456.2852 232.9045 456.4814 232.9699 456.6777 233.0353 C 456.8739 233.1007 456.9393 233.1661 457.0702 233.1007 C 457.201 233.0353 457.3318 233.0353 457.5935 233.1007 C 457.7898 233.1661 458.1169 233.1661 458.3785 233.2316 C 458.5748 233.2316 458.9019 233.297 458.9673 233.297 C 459.0327 233.297 459.3598 233.3624 459.6869 233.4278 C 460.2102 233.4932 460.799 233.6241 461.1915 233.6895 C 461.3223 233.6895 461.5186 233.7549 461.7148 233.8203 C 461.9111 233.8857 462.1074 233.9512 462.1728 233.9512 C 462.2382 234.0166 462.4344 234.0166 462.5653 234.0166 C 462.6961 234.0166 462.8269 234.082 462.9578 234.1474 C 463.0232 234.2128 463.2195 234.2782 463.2849 234.2782 C 463.4811 234.2782 463.8082 234.4091 463.8736 234.4745 C 463.8736 234.4745 464.0045 234.5399 464.1353 234.5399 C 464.2661 234.5399 464.5278 234.6053 464.7241 234.6708 C 464.9203 234.7362 465.1166 234.8016 465.182 234.8016 C 465.182 234.8016 465.3128 234.8016 465.3782 234.867 C 465.4437 234.9324 465.5745 234.9324 465.7053 234.9978 C 465.7708 234.9978 466.0324 235.1287 466.2287 235.1941 C 466.4249 235.2595 466.6866 235.3903 466.8174 235.3903 C 466.9483 235.4558 467.0791 235.5212 467.2099 235.5866 C 467.2754 235.652 467.4062 235.7174 467.4716 235.7174 C 467.537 235.7174 467.7987 235.8483 467.995 235.9137 C 468.1912 235.9791 468.5183 236.1754 468.78 236.3062 C 469.4342 236.6333 470.4154 237.0912 470.7425 237.3529 C 470.9388 237.4837 471.0696 237.5491 471.0696 237.5491 C 471.135 237.5491 471.5275 237.8108 471.7238 238.0071 C 471.7892 238.0725 471.9854 238.2033 472.1163 238.2687 C 472.4434 238.465 473.0976 238.8575 473.8171 239.3808 C 474.5367 239.9042 474.6022 239.9696 474.9947 240.2313 C 475.4526 240.4929 477.2189 241.8013 477.2843 241.8667 C 477.4805 242.063 477.6114 241.8667 477.4805 241.4742 C 477.4805 241.3434 477.4151 241.1471 477.3497 240.9509 C 477.3497 240.7546 477.2189 240.1659 477.088 239.5771 C 476.4993 236.5679 476.3684 235.8483 476.3684 234.2782 C 476.3684 233.4932 476.3684 232.9699 476.4339 232.512 C 476.4993 231.7924 476.6301 231.1382 476.761 231.0073 C 476.761 230.9419 476.8264 230.8111 476.8264 230.6148 C 476.9572 230.0261 477.088 229.5682 477.4805 228.6523 C 477.8731 227.7365 478.331 227.0169 478.4618 226.9514 C 478.5272 226.9514 478.5272 226.8206 478.5927 226.6898 C 478.5927 226.6244 478.7235 226.4281 478.7889 226.2973 C 476.4993 221.3255 474.2751 216.2883 471.92 211.382 C 471.8546 217.2696 471.6584 223.0918 471.6584 228.9794 C 468.9762 228.9794 466.3595 228.9794 463.6774 228.9794 C 463.6774 218.7088 464.2661 208.3728 463.6774 198.0367 C 466.3595 197.9059 468.9762 197.7097 471.6584 197.5788 C 474.8638 202.9431 477.6114 208.569 480.2281 214.2604 C 480.3589 208.5036 480.3589 202.7468 479.9664 196.9901 C 482.6486 196.7938 485.2653 196.5976 487.9474 196.4013 C 488.5362 203.9244 488.2745 211.4474 488.1437 219.0359 C 488.2745 218.9705 488.4053 218.905 488.4708 218.8396 C 488.5362 218.7742 488.667 218.7088 488.7324 218.7088 C 488.7978 218.7088 488.9287 218.6434 489.1249 218.578 C 489.3212 218.5125 489.5174 218.3817 489.7137 218.3817 C 489.8445 218.3163 490.0408 218.2509 490.1062 218.1854 C 490.1716 218.12 490.3025 218.12 490.3679 218.12 C 490.4333 218.12 490.5641 218.0546 490.6295 217.9892 C 490.695 217.9238 490.8258 217.8584 490.8258 217.8584 C 490.8258 217.8584 491.022 217.7929 491.1529 217.7275 C 491.5454 217.5313 491.8071 217.4659 492.1996 217.335 C 492.3958 217.2696 492.6575 217.2042 492.7229 217.1388 C 492.7883 217.0733 493.05 217.0079 493.2463 217.0079 C 493.7696 216.8771 494.0967 216.8117 494.2929 216.6808 C 494.3584 216.6154 494.62 216.55 494.8163 216.55 C 495.2088 216.4846 495.5359 216.4192 495.6013 216.2883 C 495.6013 216.2883 495.7321 216.2229 495.7976 216.2229 C 495.863 216.2229 495.9938 216.1575 496.1246 216.1575 C 496.1901 216.0921 496.3209 216.0921 496.4517 216.0921 C 496.5171 216.0921 496.648 216.0921 496.7134 216.0267 C 496.9097 215.8958 497.9563 215.6342 498.3488 215.6342 C 498.4143 215.6342 498.6105 215.5687 498.8068 215.5033 C 499.1339 215.3725 499.8535 215.2416 500.3768 215.1762 C 500.5731 215.1762 500.8347 215.1108 500.9001 215.0454 C 501.0964 214.9146 501.6197 214.8491 502.1431 214.8491 C 502.4702 214.8491 502.6664 214.7837 502.9281 214.7183 C 503.4514 214.522 503.5823 214.522 503.8439 214.522 C 503.9748 214.522 504.2365 214.522 504.3673 214.4566 C 504.4981 214.4566 504.7598 214.3912 504.9561 214.3912 C 505.1523 214.3912 505.414 214.3258 505.5448 214.3258 C 505.6757 214.3258 506.1336 214.2604 506.5915 214.2604 C 507.0494 214.2604 507.3765 214.195 507.4419 214.195 C 507.5074 214.195 507.8344 214.1295 508.2924 214.1295 C 508.6849 214.1295 509.2736 214.0641 509.5353 214.0641 C 509.797 214.0641 510.4512 213.9987 510.9091 213.9987 C 511.367 213.9987 511.9558 213.9333 512.0866 213.9333 C 512.2829 213.8679 513.5258 213.8679 516.3388 213.8679 C 519.9367 213.8679 520.3293 213.8679 520.5255 213.9333 C 520.6563 213.9987 520.8526 213.9987 521.1143 213.9987 C 521.5722 213.9333 524.2543 214.1295 524.516 214.195 C 524.5814 214.195 524.9739 214.2604 525.3664 214.2604 C 525.7589 214.2604 526.2169 214.3258 526.3477 214.3912 C 526.544 214.4566 526.7402 214.4566 526.871 214.4566 C 527.0019 214.4566 527.1327 214.4566 527.1981 214.4566 C 527.329 214.522 527.7215 214.5875 528.8336 214.6529 C 529.1607 214.6529 529.4878 214.7183 529.5532 214.7183 C 529.6186 214.7183 530.0111 214.8491 530.4036 214.9146 C 530.7961 214.98 531.254 215.0454 531.3849 215.0454 C 531.6465 215.1108 532.2353 215.1762 533.0857 215.3071 C 533.282 215.3071 533.5437 215.3725 533.6091 215.3725 C 533.6745 215.3725 533.8708 215.4379 533.9362 215.4379 C 534.067 215.4379 534.2633 215.5033 534.4595 215.5687 C 534.6558 215.6342 534.9174 215.6996 535.1791 215.765 C 535.3754 215.8304 535.7025 215.8958 535.8987 215.9612 C 536.0295 216.0267 536.2912 216.0921 536.4875 216.0921 C 536.6183 216.0921 536.88 216.1575 536.9454 216.1575 C 537.0108 216.1575 537.2725 216.2229 537.5342 216.2883 C 537.7304 216.2883 538.0575 216.4192 538.1883 216.4846 C 538.3846 216.55 538.5808 216.6154 538.9079 216.6808 C 539.1696 216.6808 539.3659 216.7463 539.4967 216.8117 C 539.5621 216.8771 539.8238 216.9425 539.9546 216.9425 C 540.0854 216.9425 540.2817 217.0079 540.3471 217.0733 C 540.4125 217.1388 540.5434 217.1388 540.7396 217.1388 C 540.8705 217.1388 541.0667 217.2042 541.1321 217.2696 C 541.1976 217.335 541.4592 217.4004 541.6555 217.4004 C 541.8517 217.4659 542.2442 217.5313 542.5713 217.5967 C 543.0947 217.7275 543.6834 217.9238 543.8797 217.9238 C 543.618 217.7275 543.6834 217.5967 543.5526 216.4192 Z M 361.233 228.7831 C 360.5134 226.5589 359.7284 224.3347 358.9434 222.1105 C 357.4388 222.1105 355.9996 222.1105 354.495 222.1105 C 353.8408 219.7555 353.1212 217.4004 352.4016 215.1108 C 353.7754 215.1108 355.0837 215.1108 356.4575 215.1108 C 355.6071 212.8212 354.7566 210.597 353.9062 208.3073 C 351.3549 215.0454 349.1961 221.9797 346.9065 228.7831 C 344.3552 228.7831 341.8039 228.7831 339.1872 228.7831 C 342.6543 218.6434 345.5981 208.3073 350.1774 198.6255 C 352.7287 198.7563 355.28 198.8218 357.8967 198.9526 C 361.8218 208.8307 365.5506 218.7742 368.9523 228.7831 C 366.401 228.7831 363.8497 228.7831 361.233 228.7831 Z M 395.6428 205.429 C 393.0915 205.429 390.5402 205.429 387.9889 205.429 C 387.9889 213.2137 388.0543 220.9984 388.0543 228.7831 C 385.3722 228.7831 382.6901 228.7831 380.0733 228.7831 C 380.0733 220.9984 380.0079 213.1483 380.0079 205.3635 C 377.4566 205.3635 374.9053 205.2981 372.354 205.2981 C 372.354 203.3356 372.354 201.3731 372.4195 199.3451 C 380.2042 199.5414 387.9235 199.6722 395.7082 199.6722 C 395.6428 201.6347 395.6428 203.5318 395.6428 205.429 Z M 426.6509 228.7831 C 423.9687 228.7831 421.352 228.7831 418.6699 228.7831 C 418.6699 223.0264 418.7353 217.335 418.7353 211.5782 C 416.7073 215.5033 414.8102 219.4284 412.9131 223.3535 C 411.016 219.363 409.1189 215.4379 407.0909 211.5128 C 407.0909 217.2696 407.0909 222.961 407.0909 228.7177 C 404.4088 228.7177 401.7921 228.7177 399.1099 228.7177 C 399.1099 219.0359 399.1099 209.2886 399.1099 199.6068 C 401.7921 199.6068 404.4088 199.6068 407.0909 199.6068 C 409.2497 202.8122 411.1468 206.0831 412.9131 209.4849 C 414.7448 206.0831 416.6419 202.7468 418.7353 199.4759 C 421.4174 199.4105 424.0342 199.3451 426.7163 199.3451 C 426.9125 209.1578 426.6509 218.9705 426.6509 228.7831 Z M 452.0984 228.7831 C 451.3788 226.5589 450.5938 224.3347 449.8742 222.1105 C 448.3696 222.1105 446.9304 222.1105 445.4258 222.1105 C 444.7716 219.7555 444.1829 217.4659 443.5287 215.1108 C 444.9025 215.1108 446.2108 215.1108 447.5846 215.1108 C 446.7996 212.8212 445.9491 210.597 445.0987 208.3728 C 442.5474 215.1762 440.0615 221.9797 437.7719 228.8486 C 435.2206 228.8486 432.6693 228.8486 430.0526 228.8486 C 433.4543 218.8396 437.1177 208.8961 441.1082 199.018 C 443.6595 198.9526 446.2108 198.8218 448.8275 198.6909 C 453.4722 208.3073 456.416 218.7088 459.8177 228.7831 C 457.2664 228.7831 454.6497 228.7831 452.0984 228.7831 Z " stroke-width="0.6541786789894104"/>
    </g>
    <g id="ID0.7171066431328654">
      <g id="ID0.10407323855906725">
        <path id="ID0.03453554445877671" fill="#FFFFFF" d="M 301.3338 266.5083 C 300.4185 266.6391 300.2877 266.7698 300.2877 267.6851 L 300.2877 268.9927 C 300.2877 269.5157 300.2877 270.0388 300.4185 270.4311 C 299.5031 270.6926 298.1956 270.9541 296.888 270.9541 C 293.3575 270.9541 291.1346 268.7312 291.1346 265.593 C 291.1346 262.324 293.8805 260.3627 297.0187 260.3627 C 298.5878 260.3627 299.7647 260.6242 300.2877 260.7549 C 300.2877 261.278 300.4185 262.324 300.5492 263.2393 L 300.0262 263.3701 C 299.6339 262.0625 299.2416 261.4087 298.1956 261.1472 C 297.8033 261.0165 297.1495 260.8857 296.7572 260.8857 C 294.4036 260.8857 292.8345 262.5856 292.8345 265.4622 C 292.8345 267.9466 294.1421 270.4311 297.1495 270.4311 C 297.6725 270.4311 298.1956 270.3003 298.4571 270.1695 C 298.8494 270.0388 298.9801 269.7773 298.9801 269.1235 L 298.9801 267.8159 C 298.9801 266.6391 298.8494 266.5083 297.411 266.3775 L 297.411 265.9853 L 301.4645 265.9853 L 301.4645 266.5083 Z " stroke-width="1.3075836896896362"/>
        <path id="ID0.6780291399918497" fill="#FFFFFF" d="M 313.4943 260.3627 C 316.2402 260.3627 318.5939 262.4548 318.5939 265.593 C 318.5939 268.9927 316.2402 271.0848 313.3635 271.0848 C 310.3561 271.0848 308.1332 268.7312 308.1332 265.8545 C 308.1332 262.9778 310.0946 260.3627 313.4943 260.3627 Z M 313.102 260.8857 C 311.4022 260.8857 309.7023 262.324 309.7023 265.3315 C 309.7023 268.2082 311.2714 270.4311 313.4943 270.4311 C 315.4557 270.4311 316.7632 268.9927 316.7632 265.9853 C 316.894 262.7163 315.1941 260.8857 313.102 260.8857 Z " stroke-width="1.3075836896896362"/>
        <path id="ID0.27237664395943284" fill="#FFFFFF" d="M 333.7618 262.9778 C 333.6311 262.4548 333.3696 261.9318 333.2388 261.6702 C 332.9773 261.278 332.8465 261.1472 331.9312 261.1472 L 330.3621 261.1472 L 330.3621 268.7312 C 330.3621 269.908 330.4929 270.1695 331.9312 270.1695 L 331.9312 270.5618 L 327.3547 270.5618 L 327.3547 270.1695 C 328.793 270.0388 328.9238 269.908 328.9238 268.7312 L 328.9238 261.1472 L 327.4854 261.1472 C 326.5701 261.1472 326.3086 261.278 326.0471 261.6702 C 325.9163 261.9318 325.7856 262.324 325.5241 262.9778 L 325.001 262.9778 C 325.1318 262.0625 325.1318 261.0165 325.2625 260.1011 L 325.6548 260.1011 C 325.9163 260.4934 326.0471 260.4934 326.4394 260.4934 L 332.585 260.4934 C 332.9773 260.4934 333.108 260.4934 333.3696 260.1011 L 333.7618 260.1011 C 333.7618 260.8857 333.7618 261.9318 333.8926 262.8471 L 333.7618 262.9778 Z " stroke-width="1.3075836896896362"/>
        <path id="ID0.5223182160407305" fill="#FFFFFF" d="M 351.8065 261.0165 C 350.4989 261.1472 350.3681 261.278 350.3681 262.5856 L 350.3681 268.862 C 350.3681 270.1695 350.4989 270.1695 351.8065 270.4311 L 351.8065 270.8233 L 347.6222 270.8233 L 347.6222 270.4311 C 348.9298 270.3003 349.0606 270.3003 349.0606 268.862 L 349.0606 265.7238 L 343.6995 265.7238 L 343.6995 268.862 C 343.6995 270.1695 343.8302 270.1695 345.1378 270.4311 L 345.1378 270.8233 L 340.9535 270.8233 L 340.9535 270.4311 C 342.2611 270.3003 342.3919 270.3003 342.3919 268.862 L 342.3919 262.5856 C 342.3919 261.278 342.2611 261.1472 340.9535 261.0165 L 340.9535 260.6242 L 345.1378 260.6242 L 345.1378 261.0165 C 343.8302 261.1472 343.6995 261.278 343.6995 262.5856 L 343.6995 265.07 L 349.0606 265.07 L 349.0606 262.5856 C 349.0606 261.278 348.9298 261.1472 347.6222 261.0165 L 347.6222 260.6242 L 351.8065 260.6242 L 351.8065 261.0165 Z " stroke-width="1.3075836896896362"/>
        <path id="ID0.11777243064716458" fill="#FFFFFF" d="M 363.967 270.6926 L 363.967 270.3003 C 365.0131 270.1695 365.1438 270.0388 364.8823 269.385 C 364.6208 268.7312 364.3593 267.9466 364.0978 267.0313 L 360.6981 267.0313 C 360.4365 267.6851 360.175 268.3389 360.0443 268.9927 C 359.652 270.0388 359.9135 270.1695 361.2211 270.3003 L 361.2211 270.6926 L 357.5599 270.6926 L 357.5599 270.3003 C 358.6059 270.1695 358.7367 270.0388 359.3905 268.6004 L 362.6594 260.3627 L 363.1825 260.2319 C 364.2285 262.9778 365.2746 265.8545 366.1899 268.6004 C 366.7129 269.908 366.8437 270.0388 367.8898 270.1695 L 367.8898 270.5618 L 363.967 270.5618 Z M 362.3979 262.324 C 361.8749 263.6316 361.3519 265.07 360.8288 266.3775 L 363.7055 266.3775 L 362.3979 262.324 Z " stroke-width="1.3075836896896362"/>
        <path id="ID0.26843242160975933" fill="#FFFFFF" d="M 382.5347 270.6926 L 382.5347 270.3003 C 383.8423 270.1695 383.8423 270.0388 383.8423 268.3389 L 383.8423 261.9318 C 382.5347 264.8084 380.4426 269.2542 379.9195 270.6926 L 379.5273 270.6926 C 379.0042 269.2542 377.1736 264.9392 375.9968 262.0625 C 375.7353 267.5544 375.7353 268.7312 375.7353 269.1235 C 375.7353 270.0388 376.1275 270.1695 377.1736 270.3003 L 377.1736 270.6926 L 373.5124 270.6926 L 373.5124 270.3003 C 374.4277 270.1695 374.82 270.0388 374.9507 269.1235 C 375.0815 268.4697 375.0815 267.8159 375.4738 262.1933 C 375.4738 261.4087 375.343 261.1472 374.0354 261.0165 L 374.0354 260.6242 L 376.7813 260.6242 L 380.3118 268.6004 L 383.9731 260.6242 L 386.719 260.6242 L 386.719 261.0165 C 385.4114 261.1472 385.1499 261.278 385.2806 262.4548 L 385.2806 268.4697 C 385.2806 270.1695 385.4114 270.1695 386.719 270.4311 L 386.719 270.8233 L 382.5347 270.8233 Z " stroke-width="1.3075836896896362"/>
        <path id="ID0.6725782961584628" fill="#FFFFFF" d="M 429.6077 270.6926 L 429.6077 270.3003 C 430.9153 270.1695 430.9153 270.0388 430.9153 268.3389 L 430.9153 261.9318 C 429.6077 264.8084 427.5156 269.2542 426.9926 270.6926 L 426.6003 270.6926 C 426.0772 269.2542 424.2466 264.9392 423.0698 262.0625 C 422.8083 267.5544 422.8083 268.7312 422.8083 269.1235 C 422.8083 270.0388 423.2006 270.1695 424.2466 270.3003 L 424.2466 270.6926 L 420.5854 270.6926 L 420.5854 270.3003 C 421.5007 270.1695 421.893 270.0388 422.0237 269.1235 C 422.1545 268.4697 422.1545 267.8159 422.5468 262.1933 C 422.5468 261.4087 422.416 261.1472 421.1084 261.0165 L 421.1084 260.6242 L 423.8544 260.6242 L 427.3848 268.6004 L 431.0461 260.6242 L 433.792 260.6242 L 433.792 261.0165 C 432.4844 261.1472 432.2229 261.278 432.3536 262.4548 L 432.3536 268.4697 C 432.3536 270.1695 432.4844 270.1695 433.792 270.4311 L 433.792 270.8233 L 429.6077 270.8233 Z " stroke-width="1.3075836896896362"/>
        <path id="ID0.6685515288263559" fill="#FFFFFF" d="M 448.6984 268.2082 C 448.5677 268.6004 448.1754 270.1695 448.0447 270.6926 L 440.4607 270.6926 L 440.4607 270.3003 C 441.899 270.1695 442.0298 270.0388 442.0298 268.7312 L 442.0298 262.5856 C 442.0298 261.1472 441.899 261.1472 440.7222 261.0165 L 440.7222 260.6242 L 445.5602 260.6242 C 446.9986 260.6242 447.6524 260.6242 447.7831 260.6242 C 447.7831 261.0165 447.9139 262.1933 447.9139 262.9778 L 447.3909 263.1086 C 447.2601 262.5856 447.1293 262.1933 446.8678 261.9318 C 446.6063 261.4087 446.214 261.278 445.2987 261.278 L 443.8604 261.278 C 443.3374 261.278 443.3374 261.278 443.3374 261.801 L 443.3374 265.3315 L 445.0372 265.3315 C 446.214 265.3315 446.3448 265.07 446.4756 264.0239 L 446.9986 264.0239 L 446.9986 267.2929 L 446.4756 267.2929 C 446.214 266.116 446.0833 265.9853 445.0372 265.9853 L 443.3374 265.9853 L 443.3374 269.1235 C 443.3374 270.1695 443.7296 270.3003 444.5142 270.3003 L 445.9525 270.3003 C 446.8678 270.3003 447.1293 270.1695 447.3909 269.7773 C 447.6524 269.385 448.0447 268.862 448.1754 268.3389 L 448.6984 268.2082 Z " stroke-width="1.3075836896896362"/>
        <path id="ID0.8592948471195996" fill="#FFFFFF" d="M 466.0893 261.0165 C 465.0432 261.1472 464.7817 261.278 464.651 262.0625 C 464.651 262.5856 464.651 263.2393 464.651 264.6777 L 464.651 270.9541 L 464.1279 270.9541 L 457.4593 262.7163 L 457.4593 266.6391 C 457.4593 268.0774 457.4593 268.7312 457.59 269.2542 C 457.59 270.0388 457.9823 270.3003 459.1591 270.4311 L 459.1591 270.8233 L 455.3671 270.8233 L 455.3671 270.4311 C 456.2824 270.3003 456.6747 270.1695 456.8055 269.385 C 456.8055 268.862 456.9362 268.2082 456.9362 266.7698 L 456.9362 262.7163 C 456.9362 262.324 456.9362 262.0625 456.6747 261.6702 C 456.4132 261.278 456.0209 261.1472 455.2364 261.1472 L 455.2364 260.7549 L 457.59 260.7549 L 464.2587 268.6004 L 464.2587 264.8084 C 464.2587 263.3701 464.2587 262.7163 464.1279 262.1933 C 464.1279 261.5395 463.7357 261.278 462.4281 261.1472 L 462.4281 260.7549 L 466.3508 260.7549 L 466.3508 261.0165 Z " stroke-width="1.3075836896896362"/>
        <path id="ID0.9346009567379951" fill="#FFFFFF" d="M 477.9883 270.6926 L 477.9883 270.3003 C 479.0344 270.1695 479.1651 270.0388 478.9036 269.385 C 478.6421 268.7312 478.3806 267.9466 478.1191 267.0313 L 474.7194 267.0313 C 474.4578 267.6851 474.1963 268.3389 474.0656 268.9927 C 473.6733 270.0388 473.9348 270.1695 475.2424 270.3003 L 475.2424 270.6926 L 471.5812 270.6926 L 471.5812 270.3003 C 472.6272 270.1695 472.758 270.0388 473.4118 268.6004 L 476.6807 260.3627 L 477.2038 260.2319 C 478.2498 262.9778 479.2959 265.8545 480.2112 268.6004 C 480.7342 269.908 480.865 270.0388 481.9111 270.1695 L 481.9111 270.5618 L 477.9883 270.5618 Z M 476.4192 262.324 C 475.8962 263.6316 475.3732 265.07 474.8501 266.3775 L 477.7268 266.3775 L 476.4192 262.324 Z " stroke-width="1.3075836896896362"/>
        <path id="ID0.17000851361081004" fill="#FFFFFF" d="M 497.2098 268.2082 C 496.9483 268.9927 496.556 270.0388 496.2945 270.5618 C 495.9022 270.6926 494.5946 270.9541 493.4178 270.9541 C 489.6258 270.9541 487.7952 268.4697 487.7952 265.7238 C 487.7952 262.5856 490.2796 260.3627 493.6793 260.3627 C 494.9869 260.3627 496.1637 260.6242 496.6868 260.7549 C 496.6868 261.4087 496.8175 262.4548 496.9483 263.2393 L 496.4252 263.3701 C 496.1637 262.324 495.7715 261.6702 494.9869 261.4087 C 494.5946 261.278 493.9408 261.1472 493.287 261.1472 C 490.6719 261.1472 489.3643 263.1086 489.3643 265.593 C 489.3643 268.6004 490.9334 270.5618 493.4178 270.5618 C 494.9869 270.5618 495.7715 269.7773 496.556 268.2082 L 497.2098 268.2082 Z " stroke-width="1.3075836896896362"/>
        <path id="ID0.09259189711883664" fill="#FFFFFF" d="M 512.247 268.2082 C 512.1163 268.6004 511.724 270.1695 511.5932 270.6926 L 504.0092 270.6926 L 504.0092 270.3003 C 505.4476 270.1695 505.5783 270.0388 505.5783 268.7312 L 505.5783 262.5856 C 505.5783 261.1472 505.4476 261.1472 504.2708 261.0165 L 504.2708 260.6242 L 509.1088 260.6242 C 510.5472 260.6242 511.2009 260.6242 511.3317 260.6242 C 511.3317 261.0165 511.4625 262.1933 511.4625 262.9778 L 510.9394 263.1086 C 510.8087 262.5856 510.6779 262.1933 510.4164 261.9318 C 510.1549 261.4087 509.7626 261.278 508.8473 261.278 L 507.2782 261.278 C 506.7552 261.278 506.7552 261.278 506.7552 261.801 L 506.7552 265.3315 L 508.455 265.3315 C 509.6318 265.3315 509.7626 265.07 509.8934 264.0239 L 510.4164 264.0239 L 510.4164 267.2929 L 509.8934 267.2929 C 509.6318 266.116 509.5011 265.9853 508.455 265.9853 L 506.7552 265.9853 L 506.7552 269.1235 C 506.7552 270.1695 507.1474 270.3003 507.932 270.3003 L 509.3703 270.3003 C 510.2856 270.3003 510.5472 270.1695 510.8087 269.7773 C 511.0702 269.385 511.4625 268.862 511.5932 268.3389 L 512.247 268.2082 Z " stroke-width="1.3075836896896362"/>
      </g>
    </g>
  </g>
</svg>