<svg xmlns="http://www.w3.org/2000/svg" xmlns:xlink="http://www.w3.org/1999/xlink" version="1.1" width="130.39749153682467" height="314.92929085323095" viewBox="0.020899970189343753 -0.041604082926500974 130.39749153682467 314.92929085323095">
  <!-- Exported by Scratch - http://scratch.mit.edu/ -->
  <path id="ID0.7729651997797191" fill="#282828" stroke="none" stroke-linecap="round" d="M 10.3038 76.0059 L 34.0301 77.5343 L 29.6396 97.4142 L 24.7107 107.6074 L 22.4231 116.6121 L 19.1317 124.8459 L 2.7052 120.085 L 1.0536 113.1269 L 7.6151 89.6595 L 10.3038 76.0059 Z " stroke-width="0.9588636791095254"/>
  <path id="ID0.4757494777441025" fill="#282828" stroke="none" stroke-linecap="round" d="M 23.0861 60.2198 L 32.1201 59.3896 L 47.6363 66.6174 L 35.5529 90.5813 L 24.2842 93.969 L 19.525 94.3482 L 16.603 91.5096 L 14.1314 88.1359 L 8.7007 84.6856 L 9.3805 79.251 L 11.2912 71.3511 L 15.7802 63.5917 L 23.0861 60.2198 Z " stroke-width="0.4829924872373927"/>
  <g id="ID0.5880346246995032">
    <path id="ID0.6829322893172503" fill="#1D1E1F" stroke="none" stroke-linecap="round" d="M 109.7221 172.8586 L 119.1354 166.0915 L 123.2745 170.9809 L 128.2866 176.1367 L 129.2395 181.7719 L 129.4184 186.503 L 127.9164 189.8622 L 127.6306 196.7419 L 122.9677 197.3234 L 121.4198 195.515 L 119.7757 195.586 L 116.1132 193.5142 L 112.1813 191.0739 L 109.42 186.9865 L 109.0339 179.8064 L 109.7221 172.8586 Z " stroke-width="0.8164595974671907"/>
    <g id="ID0.9434720128774643">
      <path id="ID0.6507829907350242" fill="#282828" stroke="none" stroke-linecap="round" d="M 93.3069 109.8464 L 113.7255 116.7443 L 115.2219 133.6733 L 116.2452 146.335 L 118.9338 162.2344 L 122.392 168.7294 L 108.2764 173.6419 L 107.8024 166.1868 L 104.3575 156.8327 L 99.4639 145.0325 L 96.4399 132.0466 L 93.3069 109.8464 Z " stroke-width="0.8164595974671907"/>
      <path id="ID0.9892375003546476" fill="none" stroke="#191919" stroke-width="2.0000000817465566" stroke-linecap="round" d="M 108.612 172.7177 L 121.4646 167.7553 L 117.5823 159.7911 "/>
    </g>
  </g>
  <path id="ID0.7729651997797191" fill="#282828" stroke="none" stroke-linecap="round" d="M 114.3284 79.828 L 91.0029 75.2247 L 90.1517 95.5658 L 92.3036 106.6818 L 92.207 115.972 L 93.2783 124.7744 L 110.3763 124.3824 L 113.756 118.08 L 113.4281 93.7148 L 114.3284 79.828 Z " stroke-width="0.9588636550441055"/>
  <path id="ID0.4757494777441025" fill="#282828" stroke="none" stroke-linecap="round" d="M 105.3478 62.808 L 96.8283 59.6903 L 79.9779 62.7 L 85.516 88.9604 L 95.5401 95.1229 L 100.0433 96.7092 L 103.5952 94.7143 L 106.8488 92.0867 L 112.9824 90.1435 L 113.7181 84.7161 L 113.8959 76.5904 L 111.5454 67.9397 L 105.3478 62.808 Z " stroke-width="0.482992481961726"/>
  <g id="ID0.6660797297954559">
    <path id="ID0.5368814701214433" fill="#343434" stroke="none" stroke-linecap="round" d="M 67.2028 298.7277 L 70.0862 289.8977 L 74.5751 280.6508 L 84.5512 286.5088 L 95.8173 294.1439 L 113.2793 304.4862 L 114.3578 311.0018 L 89.6604 312.1807 L 68.4154 308.5144 L 67.2028 298.7277 Z " stroke-width="0.7702165290554439"/>
    <g id="ID0.5077062323689461">
      <path id="ID0.05466862628236413" fill="#252525" stroke="none" stroke-linecap="round" d="M 68.3016 226.4762 L 89.9943 223.0959 L 88.2584 237.7791 L 87.5161 242.7923 L 87.5096 257.2768 L 90.0103 290.528 L 68.7664 293.2982 L 67.4291 274.5496 L 65.1173 267.483 L 63.9475 259.7551 L 65.5457 248.6478 L 65.4469 238.5319 L 68.3016 226.4762 Z " stroke-width="0.5998532736063101"/>
      <path id="ID0.5319394422695041" fill="none" stroke="#131313" stroke-width="2" stroke-linecap="round" d="M 90.05 289.6 L 68.8 293.6 L 67.8 282.1 "/>
    </g>
    <g id="ID0.8820344842970371">
      <path id="ID0.3809091211296618" fill="#252525" stroke="none" stroke-linecap="round" d="M 57.0785 152.8033 L 88.7936 133.2871 L 90.0562 157.5149 L 94.0446 205.9911 L 93.562 216.7436 L 89.5609 228.0264 L 81.4676 225.8424 L 68.5144 227.1329 L 67.8531 205.371 L 66.1148 192.0681 L 57.0785 152.8033 Z " stroke-width="0.7305889665074583"/>
      <path id="ID0.9495224836282432" fill="none" stroke="#131313" stroke-width="2" stroke-linecap="round" d="M 94.05 206.1 L 94.05 214.6 L 92.05 222.6 L 83.55 227.1 L 82.55 232.1 "/>
    </g>
  </g>
  <g id="ID0.18228224432095885">
    <path id="ID0.5368814701214433" fill="#404040" stroke="none" stroke-linecap="round" d="M 28.8899 299.9519 L 31.9637 291.1863 L 36.6516 282.0387 L 46.4987 288.1112 L 57.5969 295.9883 L 74.831 306.7061 L 75.7682 313.2434 L 51.0511 313.8877 L 29.8904 309.7625 L 28.8899 299.9519 Z " stroke-width="0.7702165249851639"/>
    <g id="ID0.5077062323689461">
      <path id="ID0.05466862628236413" fill="#252525" stroke="none" stroke-linecap="round" d="M 32.8416 227.1183 L 54.6698 224.766 L 52.2424 239.351 L 51.2643 244.3235 L 50.5739 258.7916 L 51.5018 292.1237 L 30.1508 293.8878 L 29.7002 275.097 L 27.7247 267.9291 L 26.921 260.1545 L 29.0419 249.1351 L 29.4209 239.0258 L 32.8416 227.1183 Z " stroke-width="0.5998532668114317"/>
      <path id="ID0.5319394422695041" fill="none" stroke="#131313" stroke-width="1.9999999924153835" stroke-linecap="round" d="M 51.5982 291.1754 L 30.1831 294.1676 L 29.7272 282.6332 "/>
    </g>
    <g id="ID0.8820344842970371">
      <path id="ID0.3809091211296618" fill="#252525" stroke="none" stroke-linecap="round" d="M 30.3068 150.4403 L 57.8169 134.9934 L 57.9342 159.2537 L 59.6293 207.8642 L 58.6395 218.5819 L 54.1102 229.6632 L 46.129 227.0995 L 32.5827 229.115 L 30.6896 206.0026 L 29.7717 192.9458 L 30.3068 150.4403 Z " stroke-width="0.7305889820079058"/>
      <path id="ID0.9495224836282432" fill="none" stroke="#131313" stroke-width="1.9999999924153835" stroke-linecap="round" d="M 59.5363 207.9574 L 59.135 216.4479 L 56.7595 224.3446 L 48.0565 228.4382 L 46.8215 233.3854 "/>
    </g>
  </g>
  <g id="ID0.8990198895335197">
    <path id="ID0.17576928716152906" fill="#DBDBDB" stroke="none" d="M 62.55 55.6 L 62.3 55.6 L 62.3 55.6 L 62.55 55.6 L 62.55 55.6 Z " stroke-width="1"/>
    <path id="ID0.4270821204409003" fill="#252525" stroke="none" stroke-linecap="round" d="M 60.3901 177.6011 L 60.1361 64.8448 L 77.4913 67.3245 L 84.305 71.7522 L 87.0772 75.8578 L 93.8615 87.4286 L 92.93 97.8866 L 91.8642 103.3413 L 93.387 110.2785 L 93.7494 115.7629 L 91.4639 122.621 L 89.7366 127.8238 L 88.3537 137.0818 L 89.3985 159.0108 L 84.0868 167.1158 L 79.1736 173.2287 L 60.3901 177.6011 Z " stroke-width="0.47614257300029306"/>
    <path id="ID0.4270821204409003" fill="#252525" stroke="none" stroke-linecap="round" d="M 60.5099 177.7511 L 60.7639 64.9948 L 43.4087 67.4745 L 36.595 71.9022 L 33.8228 76.0078 L 27.0385 87.5786 L 27.97 98.0366 L 29.0358 103.4913 L 27.513 110.4285 L 27.1506 115.9129 L 29.4361 122.771 L 31.1634 127.9738 L 32.5463 137.2318 L 31.5015 159.1608 L 36.8132 167.2658 L 41.7264 173.3787 L 60.5099 177.7511 Z " stroke-width="0.47614257300029306"/>
    <path id="ID0.5114514343440533" fill="#282828" stroke="none" d="M 34.2326 66.1777 L 87.2326 66.1777 L 87.2326 154.4277 L 34.2326 154.4277 L 34.2326 66.1777 Z " stroke-width="1.0073066040733152"/>
    <path id="ID0.9286923445761204" fill="#D4D4D4" stroke="none" stroke-linecap="round" d="M 50.3867 52.4723 L 67.6707 33.7361 L 60.5523 52.6152 L 61.8141 93.0873 L 23.8656 64.0426 L 44.0064 53.2341 L 50.3867 52.4723 Z " stroke-width="0.4761425852775574"/>
    <path id="ID0.9286923445761204" fill="#D4D4D4" stroke="none" stroke-linecap="round" d="M 66.7636 51.3653 L 52.9793 33.9861 L 60.0977 52.8652 L 61.3118 92.8611 L 96.7844 64.2926 L 77.0007 52.4842 L 66.7636 51.3653 Z " stroke-width="0.4761425852775574"/>
    <path id="ID0.39874776685610414" fill="#C3C3C3" stroke="none" stroke-linecap="round" d="M 42.0977 54.164 L 61.9674 64.0348 L 79.8354 55.0738 L 83.8386 57.2117 L 61.7721 67.8102 L 38.3386 56.12 L 42.0977 54.164 Z " stroke-width="0.943659350131214"/>
    <path id="ID0.13444371055811644" fill="#1F1F1F" stroke="none" stroke-linecap="round" d="M 59.55 65.85 L 64.8 65.6 L 67.6 94.1 L 55.55 94.6 L 59.55 65.85 Z " stroke-width="1"/>
    <path id="ID0.751046194229275" fill="#191919" stroke="none" stroke-linecap="round" d="M 57.265 60.935 L 61.94 58.9 L 66.45 60.935 L 66.89 68.91 L 62.49 69.9 L 57.265 68.91 L 57.265 60.935 Z " stroke-width="1.100000023841858"/>
    <path id="ID0.7854711129330099" fill="#282828" stroke="none" stroke-linecap="round" d="M 48.3 82.6 L 62.3 91.35 L 76.05 81.6 L 74.05 99.1 L 50.8 99.1 L 48.3 82.6 Z " stroke-width="1"/>
    <path id="ID0.562834897544235" fill="#282828" stroke="none" stroke-linecap="round" d="M 31.55 154.1 L 61.8 148.35 L 61.8 168.6 L 48.05 169.85 L 31.55 154.1 Z " stroke-width="1"/>
    <path id="ID0.562834897544235" fill="#282828" stroke="none" stroke-linecap="round" d="M 92.5 154.35 L 62.25 148.6 L 62.25 168.85 L 76 170.1 L 92.5 154.35 Z " stroke-width="1"/>
    <path id="ID0.6824178956449032" fill="none" stroke="#191919" stroke-width="2" stroke-linecap="round" d="M 62.05 91.6 L 61.8 168.35 "/>
    <path id="ID0.4144489667378366" fill="#313131" stroke="none" stroke-linecap="round" d="M 23.3 61.1 L 43.55 53.1 L 40.55 74.85 L 43.8 134.85 L 34.3 179.6 L 23.3 174.6 L 23.05 178.1 L 26.05 130.1 L 21.3 86.85 L 20.3 70.6 L 23.3 61.1 Z " stroke-width="1"/>
    <path id="ID0.5234400681219995" fill="#101010" stroke="none" d="M 64.2662 97.3125 C 64.6789 97.3125 65.0531 97.4801 65.324 97.751 C 65.5949 98.0219 65.7625 98.3961 65.7625 98.8087 C 65.7625 99.2214 65.5949 99.5956 65.324 99.8665 C 65.0531 100.1374 64.6789 100.305 64.2662 100.305 C 63.8536 100.305 63.4794 100.1374 63.2085 99.8665 C 62.9376 99.5956 62.77 99.2214 62.77 98.8087 C 62.77 98.3961 62.9376 98.0219 63.2085 97.751 C 63.4794 97.4801 63.8536 97.3125 64.2662 97.3125 Z " stroke-width="0.6299999952316284"/>
    <path id="ID0.5234400681219995" fill="#101010" stroke="none" d="M 64.2662 110.9125 C 64.6789 110.9125 65.0531 111.0801 65.324 111.351 C 65.5949 111.6219 65.7625 111.9961 65.7625 112.4087 C 65.7625 112.8214 65.5949 113.1956 65.324 113.4665 C 65.0531 113.7374 64.6789 113.905 64.2662 113.905 C 63.8536 113.905 63.4794 113.7374 63.2085 113.4665 C 62.9376 113.1956 62.77 112.8214 62.77 112.4087 C 62.77 111.9961 62.9376 111.6219 63.2085 111.351 C 63.4794 111.0801 63.8536 110.9125 64.2662 110.9125 Z " stroke-width="0.6299999952316284"/>
    <path id="ID0.5234400681219995" fill="#101010" stroke="none" d="M 64.2662 142.4125 C 64.6789 142.4125 65.0531 142.5801 65.324 142.851 C 65.5949 143.1219 65.7625 143.4961 65.7625 143.9087 C 65.7625 144.3214 65.5949 144.6956 65.324 144.9665 C 65.0531 145.2374 64.6789 145.405 64.2662 145.405 C 63.8536 145.405 63.4794 145.2374 63.2085 144.9665 C 62.9376 144.6956 62.77 144.3214 62.77 143.9087 C 62.77 143.4961 62.9376 143.1219 63.2085 142.851 C 63.4794 142.5801 63.8536 142.4125 64.2662 142.4125 Z " stroke-width="0.6299999952316284"/>
    <path id="ID0.5234400681219995" fill="#101010" stroke="none" d="M 64.2662 127.6625 C 64.6789 127.6625 65.0531 127.8301 65.324 128.101 C 65.5949 128.3719 65.7625 128.7461 65.7625 129.1587 C 65.7625 129.5714 65.5949 129.9456 65.324 130.2165 C 65.0531 130.4874 64.6789 130.655 64.2662 130.655 C 63.8536 130.655 63.4794 130.4874 63.2085 130.2165 C 62.9376 129.9456 62.77 129.5714 62.77 129.1587 C 62.77 128.7461 62.9376 128.3719 63.2085 128.101 C 63.4794 127.8301 63.8536 127.6625 64.2662 127.6625 Z " stroke-width="0.6299999952316284"/>
    <path id="ID0.5234400681219995" fill="#101010" stroke="none" d="M 64.1662 156.4125 C 64.5789 156.4125 64.9531 156.5801 65.224 156.851 C 65.4949 157.1219 65.6625 157.4961 65.6625 157.9087 C 65.6625 158.3214 65.4949 158.6956 65.224 158.9665 C 64.9531 159.2374 64.5789 159.405 64.1662 159.405 C 63.7536 159.405 63.3794 159.2374 63.1085 158.9665 C 62.8376 158.6956 62.67 158.3214 62.67 157.9087 C 62.67 157.4961 62.8376 157.1219 63.1085 156.851 C 63.3794 156.5801 63.7536 156.4125 64.1662 156.4125 Z " stroke-width="0.6299999952316284"/>
    <path id="ID0.4144489667378366" fill="#313131" stroke="none" stroke-linecap="round" d="M 96.85 60.25 L 76.6 52.25 L 79.6 74 L 76.35 134 L 85.85 178.75 L 96.85 173.75 L 97.1 177.25 L 94.1 129.25 L 98.85 86 L 99.85 69.75 L 96.85 60.25 Z " stroke-width="1"/>
    <path id="ID0.8752945330925286" fill="none" stroke="#222222" stroke-width="2" stroke-linecap="round" d="M 23.8 61.35 L 20.55 69.1 L 23.8 106.85 "/>
    <path id="ID0.8752945330925286" fill="none" stroke="#222222" stroke-width="2" stroke-linecap="round" d="M 97.05 60.85 L 100.3 68.6 L 97.05 106.35 "/>
    <path id="ID0.5234400681219995" fill="#101010" stroke="none" d="M 41.1662 143.0625 C 41.5789 143.0625 41.9531 143.2301 42.224 143.501 C 42.4949 143.7719 42.6625 144.1461 42.6625 144.5587 C 42.6625 144.9714 42.4949 145.3456 42.224 145.6165 C 41.9531 145.8874 41.5789 146.055 41.1662 146.055 C 40.7536 146.055 40.3794 145.8874 40.1085 145.6165 C 39.8376 145.3456 39.67 144.9714 39.67 144.5587 C 39.67 144.1461 39.8376 143.7719 40.1085 143.501 C 40.3794 143.2301 40.7536 143.0625 41.1662 143.0625 Z " stroke-width="0.6299999952316284"/>
    <path id="ID0.5234400681219995" fill="#101010" stroke="none" d="M 39.7662 150.3125 C 40.1789 150.3125 40.5531 150.4801 40.824 150.751 C 41.0949 151.0219 41.2625 151.3961 41.2625 151.8087 C 41.2625 152.2214 41.0949 152.5956 40.824 152.8665 C 40.5531 153.1374 40.1789 153.305 39.7662 153.305 C 39.3536 153.305 38.9794 153.1374 38.7085 152.8665 C 38.4376 152.5956 38.27 152.2214 38.27 151.8087 C 38.27 151.3961 38.4376 151.0219 38.7085 150.751 C 38.9794 150.4801 39.3536 150.3125 39.7662 150.3125 Z " stroke-width="0.6299999952316284"/>
    <g id="ID0.20783481979742646">
      <path id="ID0.5848579816520214" fill="#737373" stroke="none" stroke-linecap="round" d="M 86.25 88.7 L 93.1 87.2 L 93 91.1 L 85.75 91.6 L 86.25 88.7 Z " stroke-width="1"/>
      <path id="ID0.13105127029120922" fill="none" stroke="#222222" stroke-width="2" stroke-linecap="round" d="M 84.4 91.85 L 88.9 91.85 L 94.15 90.35 "/>
    </g>
  </g>
  <path id="ID0.46110434643924236" fill="#D8BFA7" stroke="none" stroke-linecap="round" d="M 48.7948 34.05 L 71.4095 34.05 L 71.877 53 L 65.6828 55.85 L 48.7948 54.15 L 48.7948 34.05 Z " stroke-width="1.0876357641452272"/>
  <g id="ID0.9046455742791295">
    <path id="ID0.8999492498114705" fill="#EDD2B8" stroke="none" stroke-linecap="round" d="M 56.209 4.222 C 51.8072 4.7228 47.0888 7.4566 44.9758 11.35 C 42.5648 15.7951 44.4686 21.3772 44.2653 26.3809 C 44.1652 28.1215 43.9445 29.9404 44.3931 31.6894 C 44.9153 34.8428 46.1174 37.8465 47.1317 40.973 C 47.8143 43.0806 48.0169 45.416 49.1953 47.3133 C 50.5222 49.5594 51.8804 52.6868 54.4823 53.1297 C 58.3395 53.7858 62.4069 51.9245 65.8477 50.1522 C 68.6744 48.6959 71.3169 46.4708 72.8776 43.6907 C 75.6717 38.5319 78.2047 32.8593 78.5611 26.9733 C 78.9561 20.4486 79.6864 12.3788 74.9094 7.6857 C 70.6347 3.1655 62.7525 3.4804 56.209 4.222 Z " stroke-width="0.5080372285945052"/>
    <path id="ID0.8194515448994935" fill="#EDD2B8" stroke="none" stroke-linecap="round" d="M 78.5902 21.5939 C 77.7367 21.6852 77.1215 22.2572 76.6197 23.3187 C 76.118 24.3802 75.8112 25.8437 75.8192 27.4577 C 75.8272 29.0717 76.1484 30.5321 76.6607 31.5886 C 77.1729 32.6451 77.7946 33.184 78.6481 33.2938 C 79.4316 33.3929 80.4355 32.9589 80.7931 32.2832 C 81.4647 30.7818 81.3359 29.0054 81.4191 27.43 C 81.5015 25.8816 81.8531 24.1778 81.2461 22.7808 C 80.7629 21.9292 79.4848 21.4985 78.5902 21.5939 Z " stroke-width="0.9999999606170507"/>
    <path id="ID0.5768358684144914" fill="#2E3234" stroke="none" d="M 79.5278 18.4641 L 73.5279 18.4938 L 73.5368 20.2938 L 79.5367 20.2641 L 79.5278 18.4641 Z " stroke-width="0.9999999606170507"/>
    <path id="ID0.3245162623934448" fill="#54595E" stroke="none" stroke-linecap="round" d="M 57.9228 5.2789 C 54.6668 5.295 51.7298 7.9376 49.6149 12.1931 C 47.4999 16.4486 46.7762 23.1733 46.2389 28.787 C 45.6903 34.5188 43.8192 40.7661 46.174 45.9875 C 47.9889 50.0106 52.9501 53.0571 57.4602 53.2818 C 61.7194 53.4977 66.8461 51.0023 68.8299 47.1255 C 71.6329 41.6465 70.2833 34.8691 69.8386 28.6703 C 69.4348 23.0462 68.4556 16.3449 66.2987 12.1106 C 64.1417 7.8762 61.1787 5.2628 57.9228 5.2789 Z " stroke-width="0.9999999606170507"/>
    <path id="ID0.8999492498114705" fill="#54595E" stroke="none" stroke-linecap="round" d="M 54.359 1.622 C 50.1144 2.8902 45.2388 4.8566 43.1258 8.75 C 40.7148 13.1951 43.2143 18.8342 42.4153 23.7809 C 42.0993 25.7349 39.6321 27.255 39.7501 29.3318 C 39.9457 32.0037 42.0675 34.1925 43.2666 36.681 C 44.5714 39.3825 45.721 42.2376 47.3453 44.7133 C 48.7801 46.902 50.2739 49.3967 52.6323 50.5297 C 54.4483 51.4006 57.0633 51.6346 58.6265 50.3984 C 59.8694 49.4158 58.7154 47.2049 59.0857 45.6459 C 59.4044 43.7229 60.6913 41.9836 60.6835 39.9988 C 60.6597 34.4744 58.7678 29.0477 58.7222 23.5225 C 58.6723 17.4465 58.3066 11.2009 60.2588 5.5047 C 61.0055 3.3256 67.2184 2.7228 66.1351 2.0717 C 64.4553 0.9044 58.1195 0.4984 54.359 1.622 Z " stroke-width="0.5080372285945052"/>
    <path id="ID0.8999492498114705" fill="#54595E" stroke="none" stroke-linecap="round" d="M 65.6898 1.986 C 69.4777 3.0986 73.7015 5.0479 75.6038 8.5669 C 77.9207 12.8276 76.6372 18.2359 77.1741 23.0384 C 77.3723 24.8018 78.4451 26.6077 78.0638 28.2922 C 77.5048 30.6233 75.4006 32.3855 74.7423 34.6846 C 73.8359 37.8516 74.6088 41.4808 73.292 44.4716 C 72.237 46.8667 70.4098 49.1837 68.0628 50.34 C 66.2555 51.2288 63.6429 51.4887 62.0675 50.268 C 60.815 49.2978 61.9471 47.0756 61.5614 45.5203 C 61.2237 43.6006 59.9197 41.8741 59.9078 39.8892 C 59.8769 34.3649 61.715 28.9198 61.706 23.3943 C 61.6957 17.3182 61.541 11.2102 59.9912 5.3927 C 59.5734 3.8289 54.8844 3.147 55.8365 2.5428 C 57.7211 1.3578 62.535 0.983 65.6898 1.986 Z " stroke-width="0.5080372285945052"/>
    <path id="ID0.45774566335603595" fill="#54595E" stroke="none" stroke-linecap="round" d="M 57.6556 37.1801 C 55.5516 37.1906 54.0179 38.4622 52.2759 39.2728 C 50.6875 40.0127 47.6832 40.1655 47.7042 41.9794 C 47.7062 44.8115 50.2033 47.2431 52.3252 49.2407 C 53.7247 50.5578 55.6214 51.2904 57.7253 51.28 C 59.8293 51.2696 61.6281 50.4176 63.1051 49.1873 C 65.1487 47.4862 67.7668 45.4822 67.7089 42.8805 C 67.7441 40.8883 64.8165 40.1857 63.0557 39.2194 C 61.3711 38.2938 59.7596 37.1697 57.6556 37.1801 Z " stroke-width="0.9999999606170507"/>
    <path id="ID0.6934182443656027" fill="#54595E" stroke="none" stroke-linecap="round" d="M 71.8527 31.5116 L 58.6232 35.6771 L 44.5011 31.2469 L 47.5344 37.982 L 48.0567 42.4794 L 67.9097 43.0312 L 69.0292 36.8756 L 71.8527 31.5116 Z " stroke-width="0.9999999606170507"/>
    <path id="ID0.6236958587542176" fill="#3B4043" stroke="none" stroke-linecap="round" d="M 65.4137 28.2501 L 49.6637 28.278 L 50.4013 35.8745 L 49.9356 42.8269 L 52.7378 53.3631 L 62.3379 53.3656 L 65.8384 43.3482 L 64.9008 35.7528 L 65.4137 28.2501 Z " stroke-width="0.9999999606170507"/>
    <path id="ID0.6043254472315311" fill="#3B4043" stroke="none" stroke-linecap="round" d="M 72.5966 5.5692 L 67.8326 2.7428 L 63.1104 8.3662 L 56.6159 9.4984 L 57.9613 28.7919 L 60.6254 31.6288 L 65.9736 31.2523 L 69.5132 29.1348 L 71.0939 25.2269 L 69.5617 18.7344 L 72.5966 5.5692 Z " stroke-width="0.9999999606170507"/>
    <path id="ID0.6043254472315311" fill="#3B4043" stroke="none" stroke-linecap="round" d="M 44.0492 7.3275 L 46.1368 4.8172 L 48.8811 3.6536 L 53.0543 8.333 L 59.5597 9.4008 L 58.4052 28.7068 L 55.7693 31.5699 L 50.4176 31.2463 L 45.9078 29.2686 L 45.238 25.2719 L 46.7058 18.7645 L 44.0492 7.3275 Z " stroke-width="0.9999999606170507"/>
    <path id="ID0.9914007503539324" fill="#33383A" stroke="none" d="M 60.0021 35.9272 L 61.594 24.1692 L 55.1455 24.5011 L 54.9019 35.9025 L 60.0021 35.9272 Z " stroke-width="0.9999999606170507"/>
    <path id="ID0.28340246016159654" fill="#D8BFA7" stroke="none" stroke-linecap="round" d="M 71.8036 22.2662 L 64.9839 22.3933 L 60.5521 24.6864 L 59.6918 28.1129 L 61.0894 30.3149 L 64.6004 30.6709 L 67.343 30.1595 L 69.4333 29.3714 L 71.5471 27.6187 L 72.4429 25.6231 L 71.8036 22.2662 Z " stroke-width="0.594775208916994"/>
    <path id="ID0.28340246016159654" fill="#D8BFA7" stroke="none" stroke-linecap="round" d="M 43.3641 22.4143 L 50.1848 22.4738 L 54.639 24.723 L 55.5333 28.1408 L 54.1575 30.3565 L 50.6502 30.7472 L 47.9027 30.263 L 45.8047 29.4956 L 43.6736 27.7639 L 42.7582 25.7773 L 43.3641 22.4143 Z " stroke-width="0.594775208916994"/>
    <path id="ID0.17377300979569554" fill="#FFFFFF" stroke="none" stroke-linecap="round" d="M 67.8855 26.0487 L 66.9743 25.2227 L 64.6863 25.0498 L 62.4369 25.6666 L 61.9944 27.6195 L 64.6309 27.4746 L 67.8855 26.0487 Z " stroke-width="0.9999999493703404"/>
    <path id="ID0.17377300979569554" fill="#FFFFFF" stroke="none" stroke-linecap="round" d="M 46.0799 26.1737 L 46.9828 25.3387 L 49.269 25.1432 L 51.5243 25.7376 L 51.9862 27.6861 L 49.3483 27.5673 L 46.0799 26.1737 Z " stroke-width="0.9999999437466285"/>
    <path id="ID0.44800941413268447" fill="none" stroke="#33383A" stroke-width="1.0503597068734245" stroke-linecap="round" d="M 58.8302 28.74 L 60.4369 24.4255 L 64.8101 21.9617 L 71.3754 22.0606 "/>
    <path id="ID0.12448931112885475" fill="#33383A" stroke="none" stroke-linecap="round" d="M 59.7514 34.275 L 54.9519 34.3988 L 54.0175 37.5534 L 57.1249 39.0381 L 60.6172 37.4708 L 59.7514 34.275 Z " stroke-width="0.9999999606170507"/>
    <path id="ID0.44800941413268447" fill="none" stroke="#33383A" stroke-width="1.050359743690335" stroke-linecap="round" d="M 59.9916 25.0856 L 59.1766 22.5218 L 60.605 19.1502 "/>
    <path id="ID0.44800941413268447" fill="none" stroke="#33383A" stroke-width="1.0503597091903172" stroke-linecap="round" d="M 55.5597 25.0304 L 56.3493 22.4586 L 54.8876 19.1013 "/>
    <g id="ID0.32985211815685034">
      <g id="ID0.08651347272098064">
        <g id="ID0.07771636918187141">
          <path id="ID0.7001032647676766" fill="none" stroke="#646B70" stroke-width="0.5238094662752378" stroke-linecap="round" d="M 66.0759 40.2155 C 66.0759 40.2155 66.1421 40.5831 66.1834 40.765 C 66.2222 40.936 66.3786 41.1108 66.3168 41.275 C 66.253 41.445 66.0455 41.5346 65.8732 41.5915 C 65.7074 41.646 65.5238 41.5911 65.3494 41.5941 C 65.1749 41.597 64.9107 41.762 64.8256 41.6098 C 64.6216 41.2454 64.6623 40.3665 64.6623 40.3665 "/>
          <path id="ID0.7001032647676766" fill="none" stroke="#646B70" stroke-width="0.5238094662752378" stroke-linecap="round" d="M 64.5259 40.2655 C 64.5259 40.2655 64.5921 40.6331 64.6334 40.815 C 64.6722 40.986 64.8286 41.1608 64.7668 41.325 C 64.703 41.495 64.4955 41.5846 64.3232 41.6415 C 64.1574 41.696 63.9738 41.6411 63.7994 41.6441 C 63.6249 41.647 63.3607 41.812 63.2756 41.6598 C 63.0716 41.2954 63.1123 40.4165 63.1123 40.4165 "/>
        </g>
        <g id="ID0.07771636918187141">
          <path id="ID0.7001032647676766" fill="none" stroke="#646B70" stroke-width="0.5238094662752378" stroke-linecap="round" d="M 63.0259 40.4655 C 63.0259 40.4655 63.0921 40.8331 63.1334 41.015 C 63.1722 41.186 63.3286 41.3608 63.2668 41.525 C 63.203 41.695 62.9955 41.7846 62.8232 41.8415 C 62.6574 41.896 62.4738 41.8411 62.2994 41.8441 C 62.1249 41.847 61.8607 42.012 61.7756 41.8598 C 61.5716 41.4954 61.6123 40.6165 61.6123 40.6165 "/>
          <path id="ID0.7001032647676766" fill="none" stroke="#646B70" stroke-width="0.5238094662752378" stroke-linecap="round" d="M 61.4759 40.5155 C 61.4759 40.5155 61.5421 40.8831 61.5834 41.065 C 61.6222 41.236 61.7786 41.4108 61.7168 41.575 C 61.653 41.745 61.4455 41.8346 61.2732 41.8915 C 61.1074 41.946 60.9238 41.8911 60.7494 41.8941 C 60.5749 41.897 60.3107 42.062 60.2256 41.9098 C 60.0216 41.5454 60.0623 40.6665 60.0623 40.6665 "/>
        </g>
        <path id="ID0.7001032647676766" fill="none" stroke="#646B70" stroke-width="0.5238094420798628" stroke-linecap="round" d="M 59.9932 40.6012 C 59.9932 40.6012 60.0206 40.9737 60.0425 41.1589 C 60.0632 41.3331 60.2005 41.5233 60.1218 41.6801 C 60.0405 41.8425 59.8248 41.9098 59.6474 41.9484 C 59.4768 41.9852 59.3 41.9114 59.1262 41.896 C 58.9525 41.8807 58.6724 42.0171 58.6037 41.8568 C 58.439 41.473 58.5716 40.6032 58.5716 40.6032 "/>
      </g>
      <g id="ID0.08651347272098064">
        <g id="ID0.07771636918187141">
          <path id="ID0.7001032647676766" fill="none" stroke="#646B70" stroke-width="0.5238094662752378" stroke-linecap="round" d="M 50.96 40.2694 C 50.96 40.2694 50.8974 40.6377 50.8579 40.8199 C 50.8208 40.9914 50.6661 41.1676 50.7295 41.3313 C 50.7951 41.5007 51.0034 41.5882 51.1763 41.6433 C 51.3426 41.6962 51.5257 41.6395 51.7001 41.6408 C 51.8745 41.642 52.1404 41.8044 52.224 41.6513 C 52.4244 41.2849 52.375 40.4064 52.375 40.4064 "/>
          <path id="ID0.7001032647676766" fill="none" stroke="#646B70" stroke-width="0.5238094662752378" stroke-linecap="round" d="M 52.41 40.2694 C 52.41 40.2694 52.3474 40.6377 52.3079 40.8199 C 52.2708 40.9914 52.1161 41.1676 52.1795 41.3313 C 52.2451 41.5007 52.4534 41.5882 52.6263 41.6433 C 52.7926 41.6962 52.9757 41.6395 53.1501 41.6408 C 53.3245 41.642 53.5904 41.8044 53.674 41.6513 C 53.8744 41.2849 53.825 40.4064 53.825 40.4064 "/>
        </g>
        <g id="ID0.07771636918187141">
          <path id="ID0.7001032647676766" fill="none" stroke="#646B70" stroke-width="0.5238094662752378" stroke-linecap="round" d="M 54.16 40.4694 C 54.16 40.4694 54.0974 40.8377 54.0579 41.0199 C 54.0208 41.1914 53.8661 41.3676 53.9295 41.5313 C 53.9951 41.7007 54.2034 41.7882 54.3763 41.8433 C 54.5426 41.8962 54.7257 41.8395 54.9001 41.8408 C 55.0745 41.842 55.3404 42.0044 55.424 41.8513 C 55.6244 41.4849 55.575 40.6064 55.575 40.6064 "/>
          <path id="ID0.7001032647676766" fill="none" stroke="#646B70" stroke-width="0.5238094662752378" stroke-linecap="round" d="M 55.61 40.5194 C 55.61 40.5194 55.5474 40.8877 55.5079 41.0699 C 55.4708 41.2414 55.3161 41.4176 55.3795 41.5813 C 55.4451 41.7507 55.6534 41.8382 55.8263 41.8933 C 55.9926 41.9462 56.1757 41.8895 56.3501 41.8908 C 56.5245 41.892 56.7904 42.0544 56.874 41.9013 C 57.0744 41.5349 57.025 40.6564 57.025 40.6564 "/>
        </g>
        <path id="ID0.7001032647676766" fill="none" stroke="#646B70" stroke-width="0.5238095037189421" stroke-linecap="round" d="M 57.1231 40.6735 C 57.1231 40.6735 57.0994 41.0463 57.0793 41.2316 C 57.0603 41.4061 56.925 41.5975 57.0052 41.7536 C 57.0881 41.9152 57.3045 41.9804 57.4822 42.0172 C 57.6531 42.0523 57.8292 41.9767 58.0029 41.9597 C 58.1765 41.9426 58.4579 42.0762 58.5249 41.9152 C 58.6858 41.5299 58.5446 40.6614 58.5446 40.6614 "/>
      </g>
    </g>
    <path id="ID0.7001032647676766" fill="none" stroke="#646B70" stroke-width="0.5238095258791531" stroke-linecap="round" d="M 65.74 43.2806 C 65.74 43.2806 65.8026 42.9123 65.842 42.7301 C 65.8792 42.5586 66.0339 42.3824 65.9705 42.2187 C 65.9049 42.0493 65.6966 41.9618 65.5237 41.9067 C 65.3574 41.8538 65.1743 41.9105 64.9999 41.9092 C 64.8254 41.908 64.5596 41.7456 64.476 41.8987 C 64.2756 42.2651 64.325 43.1435 64.325 43.1435 "/>
    <path id="ID0.7001032647676766" fill="none" stroke="#646B70" stroke-width="0.5238095258791531" stroke-linecap="round" d="M 64.24 43.2306 C 64.24 43.2306 64.3026 42.8623 64.342 42.6801 C 64.3792 42.5086 64.5339 42.3324 64.4705 42.1687 C 64.4049 41.9993 64.1966 41.9118 64.0237 41.8567 C 63.8574 41.8038 63.6743 41.8605 63.4999 41.8592 C 63.3254 41.858 63.0596 41.6956 62.976 41.8487 C 62.7756 42.2151 62.825 43.0935 62.825 43.0935 "/>
    <g id="ID0.07771636918187141">
      <path id="ID0.7001032647676766" fill="none" stroke="#646B70" stroke-width="0.5238095258791531" stroke-linecap="round" d="M 63.19 43.3806 C 63.19 43.3806 63.2526 43.0123 63.292 42.8301 C 63.3292 42.6586 63.4839 42.4824 63.4205 42.3187 C 63.3549 42.1493 63.1466 42.0618 62.9737 42.0067 C 62.8074 41.9538 62.6243 42.0105 62.4499 42.0092 C 62.2754 42.008 62.0096 41.8456 61.926 41.9987 C 61.7256 42.3651 61.775 43.2435 61.775 43.2435 "/>
      <path id="ID0.7001032647676766" fill="none" stroke="#646B70" stroke-width="0.5238095258791531" stroke-linecap="round" d="M 61.74 43.2806 C 61.74 43.2806 61.8026 42.9123 61.842 42.7301 C 61.8792 42.5586 62.0339 42.3824 61.9705 42.2187 C 61.9049 42.0493 61.6966 41.9618 61.5237 41.9067 C 61.3574 41.8538 61.1743 41.9105 60.9999 41.9092 C 60.8254 41.908 60.5596 41.7456 60.476 41.8987 C 60.2756 42.2651 60.325 43.1435 60.325 43.1435 "/>
    </g>
    <path id="ID0.7001032647676766" fill="none" stroke="#646B70" stroke-width="0.5238095629636748" stroke-linecap="round" d="M 59.7269 43.4265 C 59.7269 43.4265 59.7506 43.0537 59.7707 42.8684 C 59.7897 42.6939 59.925 42.5025 59.8448 42.3464 C 59.7619 42.1848 59.5455 42.1196 59.3678 42.0828 C 59.1969 42.0477 59.0207 42.1233 58.8471 42.1403 C 58.6735 42.1574 58.3921 42.0237 58.3251 42.1848 C 58.1642 42.5701 58.3054 43.4385 58.3054 43.4385 "/>
    <path id="ID0.7001032647676766" fill="none" stroke="#646B70" stroke-width="0.5238095258791531" stroke-linecap="round" d="M 50.2241 43.1345 C 50.2241 43.1345 50.1579 42.7669 50.1166 42.585 C 50.0778 42.4139 49.9214 42.2392 49.9832 42.075 C 50.047 41.905 50.2545 41.8154 50.4268 41.7585 C 50.5926 41.704 50.7762 41.7589 50.9506 41.7559 C 51.1251 41.7529 51.3893 41.5879 51.4744 41.7402 C 51.6784 42.1046 51.6377 42.9835 51.6377 42.9835 "/>
    <path id="ID0.7001032647676766" fill="none" stroke="#646B70" stroke-width="0.5238095258791531" stroke-linecap="round" d="M 51.6741 43.1345 C 51.6741 43.1345 51.6079 42.7669 51.5666 42.585 C 51.5278 42.4139 51.3714 42.2392 51.4332 42.075 C 51.497 41.905 51.7045 41.8154 51.8768 41.7585 C 52.0426 41.704 52.2262 41.7589 52.4006 41.7559 C 52.5751 41.7529 52.8393 41.5879 52.9244 41.7402 C 53.1284 42.1046 53.0877 42.9835 53.0877 42.9835 "/>
    <path id="ID0.7001032647676766" fill="none" stroke="#646B70" stroke-width="0.5238095258791531" stroke-linecap="round" d="M 53.4241 43.1845 C 53.4241 43.1845 53.3579 42.8169 53.3166 42.635 C 53.2778 42.4639 53.1214 42.2892 53.1832 42.125 C 53.247 41.955 53.4545 41.8654 53.6268 41.8085 C 53.7926 41.754 53.9762 41.8089 54.1506 41.8059 C 54.3251 41.8029 54.5893 41.6379 54.6744 41.7902 C 54.8784 42.1546 54.8377 43.0335 54.8377 43.0335 "/>
    <path id="ID0.7001032647676766" fill="none" stroke="#646B70" stroke-width="0.5238095258791531" stroke-linecap="round" d="M 54.9241 43.3345 C 54.9241 43.3345 54.8579 42.9669 54.8166 42.785 C 54.7778 42.6139 54.6214 42.4392 54.6832 42.275 C 54.747 42.105 54.9545 42.0154 55.1268 41.9585 C 55.2926 41.904 55.4762 41.9589 55.6506 41.9559 C 55.8251 41.9529 56.0893 41.7879 56.1744 41.9402 C 56.3784 42.3046 56.3377 43.1835 56.3377 43.1835 "/>
    <path id="ID0.7001032647676766" fill="none" stroke="#646B70" stroke-width="0.5238095017585197" stroke-linecap="round" d="M 56.6568 43.4488 C 56.6568 43.4488 56.6294 43.0762 56.6075 42.8911 C 56.5868 42.7169 56.4495 42.5267 56.5282 42.3699 C 56.6095 42.2075 56.8253 42.1402 57.0026 42.1016 C 57.1732 42.0648 57.35 42.1386 57.5238 42.1539 C 57.6975 42.1693 57.9776 42.0329 58.0463 42.1932 C 58.211 42.577 58.0784 43.4468 58.0784 43.4468 "/>
    <path id="ID0.44800941413268447" fill="none" stroke="#2E3234" stroke-width="0.6130029046947648" stroke-linecap="round" d="M 54.8793 34.6949 L 56.6803 33.3845 L 59.9912 34.4122 "/>
    <path id="ID0.44800941413268447" fill="none" stroke="#33383A" stroke-width="1.0503597068734245" stroke-linecap="round" d="M 56.4747 28.6987 L 54.8254 24.4003 L 50.4281 21.98 L 43.8641 22.1438 "/>
    <g id="ID0.6897007944062352">
      <path id="ID0.2692581438459456" fill="#7AABFF" stroke="none" d="M 48.0634 25.2946 C 48.3817 25.2021 48.7068 25.2481 48.9759 25.3961 C 49.245 25.544 49.4581 25.7939 49.5505 26.1122 C 49.643 26.4305 49.597 26.7557 49.449 27.0248 C 49.3011 27.2938 49.0512 27.5069 48.7329 27.5993 C 48.4146 27.6918 48.0895 27.6458 47.8204 27.4979 C 47.5513 27.3499 47.3382 27.1 47.2458 26.7817 C 47.1533 26.4634 47.1993 26.1383 47.3473 25.8692 C 47.4952 25.6001 47.7451 25.387 48.0634 25.2946 Z " stroke-width="1.1428571276292854"/>
      <path id="ID0.8070062398910522" fill="#192334" stroke="none" d="M 48.2629 25.949 C 48.3952 25.9105 48.5313 25.9289 48.6431 25.9913 C 48.7557 26.0523 48.8441 26.1573 48.8825 26.2896 C 48.9209 26.422 48.9026 26.558 48.8402 26.6699 C 48.7792 26.7825 48.6741 26.8708 48.5418 26.9093 C 48.4095 26.9477 48.2734 26.9294 48.1616 26.867 C 48.049 26.806 47.9606 26.7009 47.9222 26.5686 C 47.8838 26.4363 47.9021 26.3002 47.9645 26.1884 C 48.0255 26.0758 48.1306 25.9874 48.2629 25.949 Z " stroke-width="1.1111111122058779"/>
    </g>
    <g id="ID0.5823970721103251">
      <path id="ID0.2692581438459456" fill="#7AABFF" stroke="none" d="M 64.3217 25.3773 C 64.0025 25.288 63.6778 25.3372 63.4102 25.4878 C 63.1426 25.6384 62.9321 25.8905 62.8428 26.2096 C 62.7535 26.5288 62.8027 26.8535 62.9533 27.1211 C 63.1039 27.3887 63.3559 27.5993 63.6751 27.6886 C 63.9942 27.7779 64.3189 27.7287 64.5865 27.5781 C 64.8542 27.4275 65.0647 27.1755 65.154 26.8563 C 65.2433 26.5371 65.1941 26.2124 65.0435 25.9448 C 64.8929 25.6772 64.6409 25.4666 64.3217 25.3773 Z " stroke-width="1.142857200942549"/>
      <path id="ID0.8070062398910522" fill="#192334" stroke="none" d="M 63.9848 25.9074 C 63.8521 25.8703 63.7162 25.89 63.605 25.9535 C 63.493 26.0156 63.4057 26.1215 63.3685 26.2542 C 63.3314 26.3869 63.3511 26.5228 63.4146 26.634 C 63.4767 26.746 63.5826 26.8333 63.7153 26.8705 C 63.848 26.9076 63.9839 26.8879 64.0951 26.8244 C 64.2071 26.7623 64.2944 26.6563 64.3316 26.5237 C 64.3687 26.391 64.349 26.2551 64.2855 26.1439 C 64.2234 26.0319 64.1174 25.9446 63.9848 25.9074 Z " stroke-width="1.1111112515437287"/>
    </g>
    <path id="ID0.023752907756716013" fill="none" stroke="#584E44" stroke-width="1.1814345388093446" stroke-linecap="round" d="M 68.1929 24.0997 L 64.8965 24.2949 L 62.5265 25.2979 "/>
    <path id="ID0.023752907756716013" fill="none" stroke="#584E44" stroke-width="1.1814344494898792" stroke-linecap="round" d="M 46.1458 24.2216 L 49.444 24.3842 L 51.8238 25.3638 "/>
  </g>
  <g id="ID0.5880346246995032">
    <path id="ID0.6829322893172503" fill="#1D1E1F" stroke="none" stroke-linecap="round" d="M 31.3792 171.9972 L 38.9915 163.2532 L 44.1407 167.0642 L 50.2008 170.9344 L 52.4196 176.2014 L 53.6778 180.7655 L 52.9854 184.3795 L 54.2836 191.1417 L 49.8779 192.7761 L 47.9569 191.3705 L 46.3728 191.8164 L 42.333 190.6389 L 37.9466 189.1644 L 34.3222 185.8185 L 32.3012 178.9178 L 31.3792 171.9972 Z " stroke-width="0.8164596018285326"/>
    <g id="ID0.9434720128774643">
      <path id="ID0.6507829907350242" fill="#282828" stroke="none" stroke-linecap="round" d="M 1.0209 114.4046 L 22.4768 116.4404 L 27.8123 132.5761 L 31.7095 144.6666 L 37.9696 159.5269 L 42.8241 165.0568 L 30.2096 173.0729 L 28.04 165.9247 L 22.5435 157.6089 L 15.0763 147.2438 L 9.1573 135.2963 L 1.0209 114.4046 Z " stroke-width="0.8164596018285326"/>
      <path id="ID0.9892375003546476" fill="none" stroke="#191919" stroke-width="2.0000000175411055" stroke-linecap="round" d="M 30.3131 172.0995 L 41.6867 164.3242 L 36.0829 157.4615 "/>
    </g>
  </g>
</svg>