<svg xmlns="http://www.w3.org/2000/svg" xmlns:xlink="http://www.w3.org/1999/xlink" version="1.1" width="143.69475797548137" height="327.1787515057548" viewBox="0.8122176938541625 -0.2651846594325806 143.69475797548137 327.1787515057548">
  <defs>
    <linearGradient id="grad_1" y2="1" x2="0">
      <stop offset="0" stop-color="#222325" stop-opacity="1"/>
      <stop offset="1" stop-color="#2E3034" stop-opacity="1"/>
    </linearGradient>
  </defs>
  <!-- Exported by Scratch - http://scratch.mit.edu/ -->
  <path id="ID0.7766774026677012" fill="#0D0D0D" stroke="#0D0D0D" stroke-width="1.9657693280204347" stroke-linecap="round" d="M 113.5 183.3105 C 112.782 150.9905 113.511 117.4164 102.5 86.5225 C 98.336 74.8423 83.041 69.4598 71 65.2822 C 65.504 63.3783 59.934 68.1574 54.5 69.8682 C 52.957 70.35 51.812 71.3608 50.5 72.0405 C 48.643 72.81 46.689 73.3941 45 74.2128 C 44.402 74.5044 43.8 74.7921 43.25 75.1783 C 42.6 75.5162 42.1 75.9989 41.5 76.3851 C 40.25 77.1092 39 77.8816 37.75 78.5574 C 36.5 79.1367 35.2 79.6194 34 80.247 C 33.4 80.5366 32.75 80.778 32.25 81.2124 C 31.65 81.6469 31.25 82.3227 30.75 82.902 C 30.25 83.3847 29.75 83.8675 29.25 84.3502 C 28.75 84.7847 28.1 85.2191 27.75 85.7984 C 27.35 86.3294 27.25 87.0535 27 87.7293 C 26.75 88.3569 26.45 88.9844 26.25 89.6603 C 25.8 90.9154 25.4 92.2187 25 93.5221 C 24.75 94.1497 24.5 94.7772 24.25 95.4531 C 24 96.0806 23.75 96.7082 23.5 97.384 C 23.25 98.0115 23 98.6391 22.75 99.3149 C 22.5 99.9425 22.15 100.57 22 101.2459 C 21.8 101.8734 21.8 102.501 21.75 103.1768 C 21.65 103.8043 21.55 104.4319 21.5 105.1077 C 21.4 105.7353 21.35 106.3628 21.25 107.0386 C 21.1 107.6662 20.85 108.2938 20.75 108.9696 C 20.3 110.8522 19.9 112.8314 19.5 114.7624 C 19.35 115.3899 19.1 116.0175 19 116.6933 C 18.85 117.3209 18.8 117.9484 18.75 118.6242 C 18.65 119.2518 18.5 119.8793 18.5 120.5552 C 18.45 121.1827 18.5 121.8103 18.5 122.4861 C 18.5 123.7412 18.4 125.0446 18.5 126.348 C 18.5 126.9755 18.7 127.2652 18.75 128.2789 C 18.8 132.189 18.75 136.1474 18.75 140.1059 C 18.75 143.9194 18.75 147.8296 18.75 151.6914 C 18.75 153.5741 18.8 155.5533 18.75 157.4842 C 18.7 158.1118 18.6 158.7394 18.5 159.4152 C 18.25 160.8634 17.9 162.2633 17.75 163.7598 C 17.65 164.3873 17.75 165.0149 17.75 165.6907 C 17.7 166.3183 17.55 166.9458 17.5 167.6216 C 17.3 168.8767 17.05 170.1801 17 171.4835 C 16.9 172.7386 17 174.042 17 175.3454 C 17 179.159 17 183.0691 17 186.931 C 17 187.8481 17.05 188.1861 17 188.8619 C 16.9 189.4894 16.6 190.117 16.5 190.7928 C 16.15 192.6755 16 194.6547 15.75 196.5856 C 15.65 197.2132 15.6 197.8407 15.5 198.5165 C 15.2 199.8682 14.75 201.2199 14.5 202.6198 C 14.35 203.2956 14.3 204.068 14.25 204.7921 C 14.15 205.4679 14 206.192 14 206.9644 C 13.95 207.5919 14 208.2195 14 208.8953 C 14 209.5229 13.9 210.1504 14 210.8262 C 14.15 212.0813 14.5 213.3847 14.75 214.6881 C 14.85 215.3157 14.95 215.9432 15 216.619 C 15 217.2466 15 217.8741 15 218.55 C 15 219.1775 15 219.8051 15 220.4809 C 14.9 221.736 14.9 223.0394 14.75 224.3428 C 14.55 225.5496 14 227.9633 14 227.9633 C 13.75 228.446 13.128 231.1937 12.75 232.5492 C 12.545 233.2859 12.223 233.9897 12 234.7215 C 11.806 235.3578 11.667 236.0095 11.5 236.6525 C 11.333 237.2955 11.127 237.9317 11 238.5834 C 10.876 239.2206 10.874 239.8771 10.75 240.5143 C 10.623 241.166 10.455 241.8129 10.25 242.4452 C 10.038 243.1008 9.673 243.71 9.5 244.3762 C 9.337 245.0047 9.333 245.6641 9.25 246.3071 C 9.167 246.9501 9.083 247.595 9 248.238 C 8.917 248.881 8.833 249.526 8.75 250.169 C 8.667 250.812 8.528 251.4521 8.5 252.0999 C 8.445 253.3849 8.555 254.6767 8.5 255.9618 C 8.472 256.6096 8.333 257.2497 8.25 257.8927 C 8.167 258.5357 8.028 259.1758 8 259.8236 C 7.945 261.1087 7.972 262.3995 8 263.6855 C 8.056 266.2585 8.183 268.8372 8.25 271.4092 C 8.267 272.0522 8.25 272.6972 8.25 273.3402 C 8.25 273.9832 8.292 274.6291 8.25 275.2711 C 8.208 275.918 8.124 276.5648 8 277.202 C 7.873 277.8537 7.585 278.4755 7.5 279.133 C 7.417 279.7711 7.542 280.4219 7.5 281.0639 C 7.458 281.7108 7.292 282.348 7.25 282.9948 C 7.208 283.6369 7.292 284.2837 7.25 284.9258 C 7.208 285.5726 7.124 286.2195 7 286.8567 C 6.873 287.5084 6.627 288.1359 6.5 288.7876 C 6.376 289.4248 6.374 290.0813 6.25 290.7185 C 6.123 291.3702 5.863 291.9959 5.75 292.6495 C 5.529 293.9278 5.417 295.2253 5.25 296.5113 C 5.167 297.1543 5.083 297.7993 5 298.4423 C 4.917 299.0853 4.792 299.7263 4.75 300.3732 C 4.708 301.0152 4.708 301.6621 4.75 302.3041 C 4.792 302.951 4.972 303.5872 5 304.2351 C 5.055 305.5201 5.165 306.8206 5 308.0969 C 4.83 309.4119 4.384 310.6863 4 311.9588 C 3.801 312.6182 3.462 313.2342 3.25 313.8897 C 3.045 314.5221 2.955 315.1883 2.75 315.8207 C 2.538 316.4762 2.131 317.0767 2 317.7516 C 1.877 318.384 1.608 319.1621 2 319.6825 C 2.418 320.2377 3.294 320.3217 4 320.4066 C 4.666 320.4868 5.329 320.1653 6 320.1653 C 6.671 320.1653 7.329 320.4066 8 320.4066 C 8.671 320.4066 9.33 320.2058 10 320.1653 C 10.665 320.1247 11.339 320.0851 12 320.1653 C 12.681 320.2473 13.378 320.368 14 320.648 C 14.649 320.9405 15.071 321.6366 15.75 321.8548 C 16.382 322.0585 17.084 321.8548 17.75 321.8548 C 18.416 321.8548 19.089 321.935 19.75 321.8548 C 20.431 321.7728 21.069 321.4542 21.75 321.3721 C 22.411 321.292 23.085 321.3315 23.75 321.3721 C 24.42 321.4126 25.08 321.5729 25.75 321.6135 C 26.415 321.654 27.089 321.5333 27.75 321.6135 C 28.431 321.6955 29.069 322.0141 29.75 322.0962 C 30.411 322.1763 31.085 322.0556 31.75 322.0962 C 32.42 322.1367 33.084 322.2574 33.75 322.3376 C 34.416 322.4177 35.079 322.5992 35.75 322.5789 C 37.754 322.5181 39.749 322.2169 41.75 322.0962 C 42.415 322.0556 43.085 322.0556 43.75 322.0962 C 44.42 322.1367 45.079 322.3105 45.75 322.3376 C 47.081 322.3907 48.419 322.2845 49.75 322.3376 C 50.421 322.3646 51.08 322.5384 51.75 322.5789 C 52.415 322.6195 53.085 322.6195 53.75 322.5789 C 54.42 322.5384 55.08 322.3781 55.75 322.3376 C 56.415 322.297 57.085 322.3781 57.75 322.3376 C 58.42 322.297 59.081 322.1503 59.75 322.0962 C 61.08 321.989 62.415 321.8548 63.75 321.8548 C 64.421 321.8548 65.09 321.9765 65.75 322.0962 C 66.425 322.2188 67.069 322.4969 67.75 322.5789 C 68.411 322.6591 69.084 322.5789 69.75 322.5789 C 71.748 322.5789 73.753 322.5191 75.75 322.5789 C 76.421 322.5992 77.08 322.7797 77.75 322.8203 C 78.415 322.8608 79.085 322.8608 79.75 322.8203 C 80.42 322.7797 81.084 322.6591 81.75 322.5789 C 82.416 322.4988 83.08 322.3781 83.75 322.3376 C 84.415 322.297 85.095 322.4563 85.75 322.3376 C 86.449 322.2111 86.154 322.0199 87.75 321.6135 C 94.133 319.9876 105.572 323.0887 107.15 316.8344 C 112.777 294.5196 104.925 270.577 106 247.5139 C 106.992 226.2795 113.955 204.9166 113.5 183.3105 Z "/>
  <g id="ID0.17693647183477879">
    <path id="ID0.7729651997797191" fill="#393C40" stroke="none" stroke-linecap="round" d="M 115.2432 108.3271 L 97.042 101.8751 L 93.9574 118.1208 L 91.3724 131.1945 L 92.649 137.658 L 94.4036 141.9977 L 106.8092 143.6648 L 110.2689 138.999 L 112.8808 119.3803 L 115.2432 108.3271 Z " stroke-width="0.7788098744947473"/>
    <path id="ID0.9716172609478235" fill="#34373A" stroke="none" stroke-linecap="round" d="M 109.412 111.9023 L 114.5958 111.648 L 115.3799 105.2127 L 95.9515 107.0383 L 97.479 110.8164 L 101.619 114.5184 L 109.412 111.9023 Z " stroke-width="0.7788098744947473"/>
    <g id="ID0.38066427363082767">
      <path id="ID0.4757494777441025" fill="#1D1E1F" stroke="none" stroke-linecap="round" d="M 116.3973 82.991 L 109.6692 77.9168 L 93.8442 76.2607 L 91.5675 101.6898 L 98.7993 109.9378 L 102.3723 112.5636 L 106.0815 111.6702 L 109.6988 110.1212 L 115.6918 109.9499 L 117.836 105.1859 L 120.2241 97.8118 L 120.5058 89.2974 L 116.3973 82.991 Z " stroke-width="0.4541860282443321"/>
      <path id="ID0.6007084371522069" fill="none" stroke="#0D0D0D" stroke-width="0.9083720564886641" stroke-linecap="round" d="M 115.1406 110.0862 L 109.8033 110.1655 L 104.6656 111.8096 L 102.328 112.6681 L 98.7993 109.9378 L 95.7742 106.3111 "/>
    </g>
  </g>
  <g id="ID0.7397577832452953">
    <path id="ID0.6726378230378032" fill="#34373A" stroke="none" stroke-linecap="round" d="M 91.0267 125.5014 L 108.4069 128.9153 L 108.3441 131.23 L 91.2857 127.5471 L 91.0267 125.5014 Z " stroke-width="0.7788099521062836"/>
    <path id="ID0.6507829907350242" fill="#1D1E1F" stroke="none" stroke-linecap="round" d="M 88.3181 127.5446 L 108.5539 131.1722 L 113.8095 148.5044 L 115.1044 158.7328 L 119.8832 173.3531 L 122.3742 179.0938 L 112.0601 184.5135 L 109.9393 178.6518 L 105.3701 170.313 L 99.0892 159.8708 L 94.5805 151.7171 L 88.3181 127.5446 Z " stroke-width="0.7788099521062836"/>
    <path id="ID0.6829322893172503" fill="#1D1E1F" stroke="none" stroke-linecap="round" d="M 111.569 184.2643 L 119.4952 176.5526 L 124.0895 180.5815 L 129.5451 184.7386 L 131.2389 189.9205 L 132.075 194.3585 L 131.1317 197.7394 L 131.8324 204.2701 L 127.5154 205.4763 L 125.8001 203.9886 L 124.2591 204.2875 L 120.5116 202.8495 L 116.4581 201.1018 L 113.2766 197.6353 L 111.8996 190.916 L 111.569 184.2643 Z " stroke-width="0.7788099521062836"/>
    <path id="ID0.47767175547778606" fill="none" stroke="#0D0D0D" stroke-width="1.5576199042125671" stroke-linecap="round" d="M 89.4916 131.1349 L 88.5409 127.3488 L 108.4799 131.1964 L 112.3335 143.9888 "/>
    <path id="ID0.5922487881034613" fill="#282A2B" stroke="none" stroke-linecap="round" d="M 97.5664 158.7569 L 102.3002 151.556 L 107.8764 149.8153 L 115.2688 153.3803 L 118.4134 167.3877 L 116.3951 175.6265 L 113.2489 176.6548 L 105.5192 171.8072 L 97.5664 158.7569 Z " stroke-width="0.7788099521062836"/>
    <path id="ID0.36820242274552584" fill="#151616" stroke="none" stroke-linecap="round" d="M 103.9018 159.2554 L 111.5764 156.6649 L 112.5453 167.9012 L 111.1516 168.2748 L 103.9018 159.2554 Z " stroke-width="0.7788099521062836"/>
    <path id="ID0.13569410238415003" fill="none" stroke="#232425" stroke-width="1.5576199042125671" stroke-linecap="round" d="M 106.6307 169.5323 L 113.9419 174.3529 L 116.5019 166.1419 "/>
    <path id="ID0.024502143263816833" fill="none" stroke="#0D0D0D" stroke-width="1.5576199042125671" stroke-linecap="round" d="M 97.8422 158.3119 L 102.0065 151.625 L 107.4119 149.6123 L 114.8784 153.1531 L 116.6047 161.1921 "/>
  </g>
  <path id="ID0.3809091211296618" fill="#393D40" stroke="none" stroke-linecap="round" d="M 84.677 181.7951 L 107.3973 164.5245 L 118.4235 201.7182 L 119.7421 212.5843 L 118.2444 231.1355 L 110.3407 235.4812 L 97.9277 239.4012 L 93.7258 219.01 L 93.1732 207.5661 L 84.677 181.7951 Z " stroke-width="0.7305889442746694"/>
  <g id="ID0.12414784263819456">
    <path id="ID0.05466862628236413" fill="#292D2E" stroke="none" stroke-linecap="round" d="M 93.4253 225.5532 L 120.1607 226.0154 L 112.3081 243.8355 L 109.9416 248.5564 L 106.4349 266.3568 L 96.7261 305.9359 L 80.9539 305.2642 L 82.3646 283.0597 L 81.0625 274.0982 L 81.2684 264.581 L 85.4999 251.5852 L 87.4884 239.4255 L 93.4253 225.5532 Z " stroke-width="0.7305889871806578"/>
    <path id="ID0.4490455654449761" fill="none" stroke="#272A2B" stroke-width="1.6585523329398981" stroke-linecap="round" d="M 93.1228 225.7802 L 119.9105 225.8595 L 109.2742 248.8535 "/>
    <path id="ID0.10446935473009944" fill="none" stroke="#242728" stroke-width="1.6585523329398981" stroke-linecap="round" d="M 106.9495 260.9695 L 104.0698 277.5597 L 92.4763 283.0987 "/>
    <path id="ID0.42170455446466804" fill="none" stroke="#242728" stroke-width="1.6585523329398981" stroke-linecap="round" d="M 102.7938 278.5305 L 98.9253 293.1606 L 87.0833 298.8552 "/>
    <path id="ID0.047098892275244" fill="none" stroke="#242728" stroke-width="1.6585523329398981" stroke-linecap="round" d="M 87.8065 239.2852 L 86.7067 243.0688 L 89.7153 252.5335 "/>
  </g>
  <path id="ID0.5368814701214433" fill="#292D2E" stroke="none" stroke-linecap="round" d="M 75.0028 310.2777 L 77.8862 301.4477 L 82.3751 292.2008 L 92.3512 298.0588 L 103.6173 305.6939 L 121.0793 316.0362 L 122.1578 322.5518 L 97.4604 323.7307 L 76.2154 320.0644 L 75.0028 310.2777 Z " stroke-width="0.7702165290554439"/>
  <path id="ID0.3809091211296618" fill="#3E4246" stroke="none" stroke-linecap="round" d="M 56.8945 157.5213 L 77.2807 169.9935 L 82.8415 208.3865 L 82.5832 219.3293 L 78.4322 237.4721 L 69.9856 240.6356 L 57.1378 242.729 L 55.1246 221.0503 L 52.5626 207.8812 L 56.8945 157.5213 Z " stroke-width="0.7305889404387307"/>
  <path id="ID0.5368814701214433" fill="#303436" stroke="none" stroke-linecap="round" d="M 37.6528 312.4777 L 40.5362 303.6477 L 45.0251 294.4008 L 55.0012 300.2588 L 66.2673 307.8939 L 83.7293 318.2362 L 84.8078 324.7518 L 60.1104 325.9307 L 38.8654 322.2644 L 37.6528 312.4777 Z " stroke-width="0.7702165290554439"/>
  <g id="ID0.9157347986474633">
    <path id="ID0.7477802094072104" fill="#363A3D" stroke="none" stroke-linecap="round" d="M 111.1154 124.9715 L 91.6382 121.4715 L 90.7831 162.6489 L 107.2591 171.9206 L 110.0532 147.452 L 111.1154 124.9715 Z " stroke-width="0.47614257300029306"/>
    <path id="ID0.7477802094072104" fill="#363A3D" stroke="none" stroke-linecap="round" d="M 50.7831 123.7358 L 74.2874 121.3664 L 73.4323 162.5439 L 56.5855 171.1236 L 51.6325 145.8988 L 50.7831 123.7358 Z " stroke-width="0.47614257300029306"/>
    <path id="ID0.4270821204409003" fill="#3E4246" stroke="none" stroke-linecap="round" d="M 51.5179 103.6385 L 55.5858 91.2215 L 57.968 85.437 L 64.6594 78.5513 L 95.6913 80.6245 L 102.505 85.0522 L 105.2772 89.1578 L 112.0615 100.7286 L 111.13 111.1866 L 110.0642 116.6413 L 111.587 123.5785 L 111.9494 129.0629 L 109.6639 135.921 L 107.9366 141.1238 L 106.5537 150.3818 L 107.5985 172.3108 L 102.2868 180.4158 L 97.3736 186.5287 L 85.1457 191.704 L 73.6169 188.4404 L 69.8289 181.6467 L 65.0115 175.1174 L 56.5309 171.8457 L 55.9148 146.4728 L 54.8631 139.7835 L 50.5303 128.2637 L 49.4461 117.4066 L 51.5179 103.6385 Z " stroke-width="0.47614257300029306"/>
    <path id="ID0.052435632329434156" fill="#393C40" stroke="none" stroke-linecap="round" d="M 62.6176 153.8064 L 67.0676 153.9464 L 73.5926 157.368 L 78.6659 157.3067 L 84.5079 159.2139 L 88.7193 158.2298 L 90.3953 157.7884 L 104.6758 154.6797 L 104.9646 157.9718 L 96.3094 161.9592 L 90.3653 161.5263 L 84.7086 164.4568 L 78.1172 160.7957 L 71.6817 161.0907 L 61.883 157.0772 L 62.6176 153.8064 Z " stroke-width="0.47614257300029306"/>
    <path id="ID0.4987568911164999" fill="none" stroke="#27282B" stroke-width="0.9522851460005861" stroke-linecap="round" d="M 64.4782 79.2223 L 57.9232 85.2774 L 54.3833 95.205 "/>
    <path id="ID0.2889464790932834" fill="none" stroke="#27282B" stroke-width="0.9522851460005861" stroke-linecap="round" d="M 97.0573 81.3276 L 102.6907 85.2545 L 108.2104 94.6559 "/>
    <path id="ID0.8373676878400147" fill="#000000" stroke="#2C2F31" stroke-width="0.6155104186945868" stroke-linecap="round" d="M 67.7718 92.3289 L 68.1477 90.8053 L 64.4906 91.6437 L 59.5712 94.8904 L 55.345 99.8623 L 52.7859 105.4474 L 57.9649 103.2905 L 62.6638 103.2687 L 65.3933 104.2374 L 67.8766 107.2745 L 69.9998 106.2908 L 74.0137 106.0844 L 78.5076 107.2087 L 82.2907 110.4577 L 84.3094 113.5511 L 86.5215 110.569 L 90.2778 107.5016 L 94.42 106.1457 L 99.5766 106.2213 L 101.3974 106.8414 L 103.1518 103.7619 L 105.1315 102.5408 L 107.7243 103.1183 L 110.4998 104.7822 L 109.1302 100.9475 L 106.9186 96.9983 L 104.1278 93.9475 L 100.9954 91.6516 L 96.4947 90.6811 L 98.6416 92.625 L 98.5629 94.3928 L 96.9298 96.4766 L 93.336 97.6258 L 90.1675 97.8698 L 87.5473 97.9072 L 85.0914 94.2552 L 84.6147 96.3134 L 83.1543 96.2484 L 81.6463 93.7938 L 80.6126 97.9836 L 76.5286 98.0328 L 72.4156 97.0025 L 69.0919 95.5453 L 67.7718 92.3289 Z "/>
    <path id="ID0.5698574706912041" fill="none" stroke="#313537" stroke-width="0.9522851460005861" stroke-linecap="round" d="M 62.5497 153.6383 L 61.8879 156.8392 L 71.6792 161.2097 L 78.4702 160.9935 L 84.473 164.3328 "/>
    <path id="ID0.5698574706912041" fill="none" stroke="#313537" stroke-width="0.8933066257048137" stroke-linecap="round" d="M 104.4201 154.7278 L 104.8721 157.9518 L 96.1747 161.9384 L 90.2685 161.4586 L 84.9108 164.5619 "/>
    <path id="ID0.8947288258932531" fill="#393C40" stroke="none" stroke-linecap="round" d="M 64.1069 141.7169 L 71.131 141.7437 L 78.6367 143.8045 L 84.1869 149.4442 L 77.1848 144.9173 L 66.4575 143.1944 L 61.2773 146.111 L 64.1069 141.7169 Z " stroke-width="0.47614257300029306"/>
    <path id="ID0.8947288258932531" fill="#393C40" stroke="none" stroke-linecap="round" d="M 102.8687 143.5222 L 96.657 143.2878 L 89.9447 144.8343 L 84.8299 149.6171 L 91.1875 145.8716 L 100.7361 144.7423 L 105.2093 147.5115 L 102.8687 143.5222 Z " stroke-width="0.4213738884176943"/>
    <path id="ID0.9897695370018482" fill="#393C40" stroke="none" stroke-linecap="round" d="M 67.3037 154.0466 L 60.768 153.4346 L 61.2928 148.8021 L 62.4103 152.3257 L 67.5009 152.5743 L 73.5692 156.2007 L 79.0511 155.9574 L 83.1153 157.4705 L 84.659 149.6445 L 84.6933 159.4559 L 79.1414 157.3403 L 73.2623 157.2183 L 67.3037 154.0466 Z " stroke-width="0.47614257300029306"/>
    <path id="ID0.9897695370018482" fill="#393C40" stroke="none" stroke-linecap="round" d="M 99.6103 154.9693 L 105.155 154.6415 L 104.8823 150.3173 L 103.8083 153.5505 L 99.4979 153.5939 L 94.237 156.7401 L 89.6142 156.3119 L 86.1244 157.5682 L 85.1086 150.2389 L 84.7179 159.355 L 89.4868 157.5937 L 94.4588 157.697 L 99.6103 154.9693 Z " stroke-width="0.4232251205631144"/>
    <path id="ID0.3524594851769507" fill="#393C40" stroke="none" stroke-linecap="round" d="M 78.4472 119.5607 L 84.3046 121.8731 L 88.804 119.6329 L 85.5593 123.3755 L 86.28 134.5346 L 95.3664 133.866 L 84.867 137.2199 L 73.3014 132.2887 L 82.9468 134.513 L 82.7764 123.2225 L 78.4472 119.5607 Z " stroke-width="0.47614257300029306"/>
    <path id="ID0.9214867809787393" fill="#393C40" stroke="none" stroke-linecap="round" d="M 64.1875 137.8371 L 67.2502 133.686 L 72.0304 132.8327 L 66.1001 137.472 L 65.8012 140.3947 L 70.8463 140.5471 L 78.9436 143.9299 L 70.0098 141.8394 L 64.1545 141.7178 L 64.1875 137.8371 Z " stroke-width="0.47614257300029306"/>
    <path id="ID0.9214867809787393" fill="#393C40" stroke="none" stroke-linecap="round" d="M 102.622 139.4159 L 99.9825 135.3388 L 95.6446 134.3397 L 100.8873 138.9935 L 101.0471 141.792 L 96.428 141.7415 L 89.7251 144.4429 L 97.1427 143.0062 L 102.5015 143.1175 L 102.622 139.4159 Z " stroke-width="0.4451788453890468"/>
    <path id="ID0.8679121839813888" fill="#2C2F31" stroke="none" stroke-linecap="round" d="M 80.4241 118.5054 L 84.1988 120.203 L 87.5652 118.6299 L 88.4975 119.6017 L 84.5148 122.186 L 78.8012 119.829 L 80.4241 118.5054 Z " stroke-width="0.47614257300029306"/>
    <path id="ID0.24770551454275846" fill="none" stroke="#313537" stroke-width="0.9522851460005861" stroke-linecap="round" d="M 84.4959 116.6296 L 89.0631 120.2963 L 96.5509 120.9281 L 104.1898 120.0151 L 109.5053 116.3156 "/>
    <path id="ID0.20603158557787538" fill="none" stroke="#313537" stroke-width="0.9522851460005861" stroke-linecap="round" d="M 51.2976 111.9286 L 58.208 117.4298 L 70.5183 120.9001 L 77.7903 120.4558 L 84.0603 116.657 "/>
    <g id="ID0.5272086253389716">
      <path id="ID0.24770551454275846" fill="none" stroke="#363A3D" stroke-width="0.9522850864087884" stroke-linecap="round" d="M 53.9879 144.5256 L 63.9553 141.5655 "/>
      <path id="ID0.24770551454275846" fill="none" stroke="#363A3D" stroke-width="0.9522850864087884" stroke-linecap="round" d="M 51.6542 132.5538 L 72.2053 126.7655 "/>
    </g>
    <g id="ID0.5272086253389716">
      <path id="ID0.24770551454275846" fill="none" stroke="#363A3D" stroke-width="0.9522850864087884" stroke-linecap="round" d="M 109.4797 144.7318 L 102.5807 142.7557 "/>
      <path id="ID0.24770551454275846" fill="none" stroke="#363A3D" stroke-width="0.9522850864087884" stroke-linecap="round" d="M 110.2029 133.3424 L 96.4298 128.2945 "/>
    </g>
    <g id="ID0.7887678607366979">
      <path id="ID0.753661650698632" fill="none" stroke="#313537" stroke-width="0.9522850864087884" stroke-linecap="round" d="M 78.9207 119.6896 L 84.1078 122.1786 L 88.2085 119.6444 "/>
      <g id="ID0.8167418288066983">
        <path id="ID0.9553722990676761" fill="none" stroke="#313537" stroke-width="1.0409107743576298" stroke-linecap="round" d="M 84.4063 137.0479 L 78.8392 134.7892 L 72.706 132.7569 L 67.9163 133.6099 L 64.3201 137.8214 L 64.2484 141.2727 "/>
        <path id="ID0.5982440118677914" fill="none" stroke="#313537" stroke-width="0.8540413396238158" stroke-linecap="round" d="M 73.0334 132.3556 L 71.9532 127.0387 L 77.3362 120.0913 "/>
      </g>
      <g id="ID0.7324484633281827">
        <path id="ID0.04993448918685317" fill="none" stroke="#313537" stroke-width="0.9522850864087884" stroke-linecap="round" d="M 84.1102 122.0595 L 84.6068 132.5472 L 84.7418 148.9805 L 84.6413 165.2898 "/>
        <g id="ID0.8167418288066983">
          <path id="ID0.9553722990676761" fill="none" stroke="#313537" stroke-width="0.9699703077304642" stroke-linecap="round" d="M 84.7502 136.9275 L 89.8128 135.6754 L 95.2815 133.884 L 99.457 134.9232 L 102.4528 139.2716 L 102.3811 142.7229 "/>
          <path id="ID0.5982440118677914" fill="none" stroke="#313537" stroke-width="0.7916616152166959" stroke-linecap="round" d="M 95.0361 133.5336 L 96.1927 128.2632 L 91.7336 121.1113 "/>
          <path id="ID0.3567589442245662" fill="none" stroke="#313537" stroke-width="0.8967655150693851" stroke-linecap="round" d="M 84.6263 149.6264 L 89.8586 144.7583 L 97.2253 143.0063 L 102.7521 143.1211 L 104.8958 147.809 L 105.0431 154.8367 L 99.4805 155.4355 L 93.7638 158.4124 L 88.8491 158.0722 L 84.6031 159.8176 L 78.8142 157.1971 L 73.2197 157.319 L 66.8569 154.0913 L 60.5704 153.2464 L 61.0511 146.2318 L 63.7016 141.6434 L 69.982 141.7738 L 78.2746 143.851 L 83.9911 148.9465 Z "/>
        </g>
      </g>
    </g>
    <g id="ID0.9312638868577778">
      <path id="ID0.2888958193361759" fill="#393C40" stroke="none" stroke-linecap="round" d="M 65.0092 161.9331 L 75.1808 164.229 L 74.5255 167.1319 L 64.3539 164.8359 L 65.0092 161.9331 Z " stroke-width="0.4761425459216224"/>
      <path id="ID0.2888958193361759" fill="#393C40" stroke="none" stroke-linecap="round" d="M 54.2581 159.6286 L 65.6808 162.329 L 65.0255 165.2319 L 54.8539 162.9359 L 54.2581 159.6286 Z " stroke-width="0.4761425459216224"/>
      <g id="ID0.36424446757882833">
        <path id="ID0.7359844641759992" fill="#8A7B59" stroke="none" d="M 67.8379 161.2806 L 69.3612 161.3122 L 69.2318 167.5484 L 67.7084 167.5167 L 67.8379 161.2806 Z " stroke-width="0.4761425432043942"/>
        <path id="ID0.7359844641759992" fill="#8A7B59" stroke="none" d="M 65.9879 160.8306 L 67.5112 160.8622 L 67.3818 167.0984 L 65.8584 167.0667 L 65.9879 160.8306 Z " stroke-width="0.4761425432043942"/>
        <path id="ID0.7359844641759992" fill="#8A7B59" stroke="none" d="M 64.0879 160.1306 L 65.6112 160.1622 L 65.4818 166.3984 L 63.9584 166.3667 L 64.0879 160.1306 Z " stroke-width="0.4761425432043942"/>
        <path id="ID0.7359844641759992" fill="#8A7B59" stroke="none" d="M 69.7379 161.8306 L 71.2612 161.8622 L 71.1318 168.0984 L 69.6084 168.0667 L 69.7379 161.8306 Z " stroke-width="0.4761425432043942"/>
      </g>
      <g id="ID0.1049797898158431">
        <path id="ID0.08871637750416994" fill="#8A7B59" stroke="none" stroke-linecap="round" d="M 55.9895 159.0074 L 62.3705 160.1877 L 62.2067 165.7801 L 56.0643 164.581 L 55.9895 159.0074 Z " stroke-width="0.4761425432043942"/>
        <path id="ID0.13805592898279428" fill="#76694C" stroke="none" stroke-linecap="round" d="M 55.7978 158.7378 L 62.4882 159.9245 L 62.5236 162.8065 L 55.8114 161.5241 L 55.7978 158.7378 Z " stroke-width="0.4761425432043942"/>
        <path id="ID0.3221200187690556" fill="#61563F" stroke="none" stroke-linecap="round" d="M 58.6 160.989 L 59.4708 161.3689 L 59.5118 163.1272 L 58.5629 162.7716 L 58.6 160.989 Z " stroke-width="0.5167888865886084"/>
        <path id="ID0.1420820001512766" fill="#BAA578" stroke="none" stroke-linecap="round" d="M 61.5518 164.8318 L 62.2956 163.4185 L 62.2952 165.7283 L 56.056 164.5986 L 61.5518 164.8318 Z " stroke-width="0.4761425432043942"/>
      </g>
      <path id="ID0.2888958193361759" fill="#393C40" stroke="none" stroke-linecap="round" d="M 102.5902 163.1025 L 95.1307 164.7611 L 95.5102 167.306 L 102.9697 165.6474 L 102.5902 163.1025 Z " stroke-width="0.3810469777360591"/>
      <path id="ID0.2888958193361759" fill="#393C40" stroke="none" stroke-linecap="round" d="M 109.1651 161.4157 L 102.1307 163.2111 L 102.5102 165.756 L 108.6833 164.3204 L 109.1651 161.4157 Z " stroke-width="0.3810469777360591"/>
      <path id="ID0.7359844641759992" fill="#8A7B59" stroke="none" d="M 100.5701 162.0255 L 99.4633 162.0025 L 99.3506 167.4273 L 100.4574 167.4503 L 100.5701 162.0255 Z " stroke-width="0.3816027988624045"/>
      <path id="ID0.7359844641759992" fill="#8A7B59" stroke="none" d="M 101.9701 161.5755 L 100.8633 161.5525 L 100.7506 166.9773 L 101.8574 167.0003 L 101.9701 161.5755 Z " stroke-width="0.3816027988624045"/>
      <path id="ID0.7359844641759992" fill="#8A7B59" stroke="none" d="M 103.4701 161.1255 L 102.3633 161.1025 L 102.2506 166.5273 L 103.3574 166.5503 L 103.4701 161.1255 Z " stroke-width="0.3816027988624045"/>
      <path id="ID0.7359844641759992" fill="#8A7B59" stroke="none" d="M 99.1201 162.5755 L 98.0133 162.5525 L 97.9006 167.9773 L 99.0074 168.0003 L 99.1201 162.5755 Z " stroke-width="0.3816027988624045"/>
      <g id="ID0.1049797898158431">
        <path id="ID0.08871637750416994" fill="#8A7B59" stroke="none" stroke-linecap="round" d="M 109.4077 160.3854 L 104.4448 161.2507 L 104.3742 166.4213 L 109.1538 165.5302 L 109.4077 160.3854 Z " stroke-width="0.40545296430512573"/>
        <path id="ID0.13805592898279428" fill="#76694C" stroke="none" stroke-linecap="round" d="M 109.6523 160.1886 L 104.4505 161.049 L 104.3217 163.7094 L 109.5437 162.7614 L 109.6523 160.1886 Z " stroke-width="0.40545296430512573"/>
        <path id="ID0.3221200187690556" fill="#61563F" stroke="none" stroke-linecap="round" d="M 107.5299 162.1428 L 106.8449 162.463 L 106.7513 164.0854 L 107.4957 163.7903 L 107.5299 162.1428 Z " stroke-width="0.4400648059527854"/>
        <path id="ID0.1420820001512766" fill="#BAA578" stroke="none" stroke-linecap="round" d="M 104.9982 165.6103 L 104.4743 164.2788 L 104.3933 166.412 L 109.245 165.5884 L 104.9982 165.6103 Z " stroke-width="0.40545296430512573"/>
      </g>
      <g id="ID0.6836685389280319">
        <path id="ID0.09357938077300787" fill="#857656" stroke="none" d="M 75.7247 161.4089 L 93.6952 161.7821 L 93.5618 168.2086 L 75.5913 167.8354 L 75.7247 161.4089 Z " stroke-width="0.42833206411122815"/>
        <path id="ID0.6492703901603818" fill="#7C6E50" stroke="none" stroke-linecap="round" d="M 76.3684 163.593 L 84.5158 166.8578 L 93.4106 163.9469 L 93.3221 168.2075 L 76.2799 167.8536 L 76.3684 163.593 Z " stroke-width="0.4761425432043942"/>
        <g id="ID0.9254062357358634">
          <g id="ID0.49943465692922473">
            <path id="ID0.140373723115772" fill="#968561" stroke="none" d="M 92.1906 160.5517 L 97.308 160.6579 L 97.1202 169.7027 L 92.0028 169.5964 L 92.1906 160.5517 Z " stroke-width="0.4761425432043942"/>
            <path id="ID0.8286363878287375" fill="#BAA578" stroke="none" stroke-linecap="round" d="M 92.1728 160.3742 L 97.4043 160.721 L 93.2469 161.3966 L 92.1789 163.5176 L 92.1728 160.3742 Z " stroke-width="0.4761425432043942"/>
            <path id="ID0.7362233307212591" fill="#8A7B59" stroke="none" stroke-linecap="round" d="M 92.07 166.468 L 94.7825 166.572 L 97.2845 164.1951 L 97.1683 169.7885 L 92.0033 169.6813 L 92.07 166.468 Z " stroke-width="0.4761425432043942"/>
          </g>
          <g id="ID0.49943465692922473">
            <path id="ID0.140373723115772" fill="#968561" stroke="none" d="M 77.1483 160.4906 L 72.0309 160.3843 L 71.8431 169.4291 L 76.9605 169.5354 L 77.1483 160.4906 Z " stroke-width="0.4761425432043942"/>
            <path id="ID0.8286363878287375" fill="#BAA578" stroke="none" stroke-linecap="round" d="M 77.2093 160.3013 L 71.9679 160.4306 L 76.0936 161.2782 L 77.0726 163.4417 L 77.2093 160.3013 Z " stroke-width="0.4761425432043942"/>
            <path id="ID0.7362233307212591" fill="#8A7B59" stroke="none" stroke-linecap="round" d="M 77.0589 166.3941 L 74.3445 166.3854 L 71.9433 163.9066 L 71.8272 169.5001 L 76.9922 169.6074 L 77.0589 166.3941 Z " stroke-width="0.4761425432043942"/>
          </g>
        </g>
      </g>
    </g>
  </g>
  <g id="ID0.8333355090580881">
    <path id="ID0.9286923445761204" fill="#27282B" stroke="none" stroke-linecap="round" d="M 70.863 44.6601 L 89.6707 46.1361 L 90.1468 70.4908 L 105.3834 77.6329 L 82.5285 88.9889 L 45.8656 76.4426 L 65.7445 65.8484 L 70.863 44.6601 Z " stroke-width="0.4761425852775574"/>
    <path id="ID0.5448851804248989" fill="none" stroke="#1D1E1F" stroke-width="0.9522851705551147" stroke-linecap="round" d="M 67.1729 60.0871 L 65.935 65.658 L 83.0285 73.5143 L 89.8611 70.586 "/>
    <path id="ID0.262191956397146" fill="none" stroke="#1D1E1F" stroke-width="0.9522851705551147" stroke-linecap="round" d="M 69.9346 65.039 L 82.6476 71.2288 L 85.6473 70.1099 "/>
  </g>
  <g id="ID0.3450673264451325">
    <g id="ID0.9831569031812251">
      <path id="ID0.0877610077150166" fill="#2E3034" stroke="none" stroke-linecap="round" d="M 93.7251 13.8343 L 89.1527 0.7177 L 89.1527 29.2463 L 96.8241 29.2463 L 93.7251 13.8343 Z " stroke-width="0.5866066539949776"/>
      <path id="ID0.796130308881402" fill="#242628" stroke="none" stroke-linecap="round" d="M 94.033 13.8789 L 89.105 0.7623 L 92.6613 14.6004 L 93.6012 29.4877 L 96.7764 29.1926 L 94.033 13.8789 Z " stroke-width="0.5866066539949776"/>
    </g>
    <g id="ID0.9831569031812251">
      <path id="ID0.0877610077150166" fill="#2E3034" stroke="none" stroke-linecap="round" d="M 69.8749 13.9843 L 74.4473 0.8677 L 74.4473 29.3963 L 66.7759 29.3963 L 69.8749 13.9843 Z " stroke-width="0.5866066539949776"/>
      <path id="ID0.796130308881402" fill="#242628" stroke="none" stroke-linecap="round" d="M 69.417 14.0289 L 74.345 0.9123 L 70.7887 14.7504 L 69.6964 29.3098 L 66.6736 29.3426 L 69.417 14.0289 Z " stroke-width="0.5866066539949776"/>
    </g>
    <path id="ID0.8999492498114705" fill="#2E3034" stroke="none" stroke-linecap="round" d="M 87.3733 19.8124 C 91.7775 20.2915 96.5093 23.0019 98.6416 26.8848 C 101.0745 31.3179 99.1267 36.9165 99.4265 41.912 C 99.5997 43.6155 100.3923 45.3682 100.0615 46.9924 C 99.3879 50.2962 97.7139 53.3251 96.6323 56.5181 C 95.9236 58.6107 95.7691 60.9655 94.6001 62.8686 C 93.2843 65.1212 91.9416 68.2553 89.3419 68.711 C 85.488 69.3862 81.4115 67.5451 77.9619 65.7898 C 75.1281 64.3475 72.4746 62.1355 70.9002 59.3631 C 68.0806 54.2182 65.5196 48.5582 65.134 42.6741 C 64.7067 36.1514 63.9365 28.0853 68.6902 23.3687 C 72.9425 18.8273 80.8262 19.1032 87.3733 19.8124 Z " stroke-width="0.508037269115448"/>
    <path id="ID0.2441388238221407" fill="#AB8E85" stroke="none" d="M 85.0438 44.6745 C 89.1241 44.8416 94.5631 41.6768 97.2883 44.4234 C 99.7434 47.0142 96.3753 51.8755 95.4045 55.3492 C 94.4375 58.804 93.7493 62.5426 91.5114 65.3959 C 90.4439 66.6643 88.2186 66.7359 86.488 66.4634 C 83.3761 65.9698 80.3143 64.6864 77.7198 62.8955 C 75.0348 61.0432 71.487 59.0137 70.9156 55.7887 C 70.1923 51.7035 70.8566 46.3084 74.0552 43.7327 C 76.9889 41.4834 81.3743 44.5238 85.0438 44.6745 Z " stroke-width="1.2558400630950928"/>
    <path id="ID0.46721756737679243" fill="#A2887F" stroke="none" stroke-linecap="round" d="M 70.4363 45.7953 L 72.1129 46.4812 L 98.1244 46.1001 L 90.9102 51.1805 L 74.1704 48.7165 L 75.2881 51.1043 L 75.5421 56.7181 L 79.1746 63.9068 L 74.6023 57.2261 L 70.4363 45.7953 Z " stroke-width="0.508037269115448"/>
    <path id="ID0.8256730306893587" fill="none" stroke="#937B73" stroke-width="1.016074538230896" stroke-linecap="round" d="M 81.3886 57.5778 C 81.3886 57.5778 84.0878 56.9813 85.4529 56.7903 C 85.7943 56.7425 86.1326 56.8203 86.4689 56.8665 C 86.8109 56.9138 87.1401 57.0814 87.485 57.0697 C 88.1688 57.0469 88.8379 56.8497 89.5172 56.7649 C 89.854 56.7227 90.1939 56.6846 90.5332 56.6887 C 90.8731 56.6928 91.2181 56.7131 91.5493 56.7903 C 92.0939 56.9173 93.1496 57.2983 93.1496 57.2983 "/>
    <path id="ID0.7592270169407129" fill="none" stroke="#937B73" stroke-width="1.016074538230896" stroke-linecap="round" d="M 89.9693 58.9019 C 89.9693 58.9019 89.3475 59.2468 89.004 59.3083 C 88.6708 59.3682 88.3248 59.2235 87.988 59.2575 C 87.6491 59.292 87.3351 59.4688 86.9973 59.5115 C 86.6615 59.5542 86.3109 59.5867 85.9812 59.5115 C 85.7008 59.4475 85.2192 59.1051 85.2192 59.1051 "/>
    <path id="ID0.5332203092984855" fill="none" stroke="#937B73" stroke-width="1.016074538230896" stroke-linecap="round" d="M 84.0009 49.4532 C 84.0009 49.4532 83.3954 49.885 83.2897 50.2152 C 83.1525 50.6577 82.898 51.5026 83.3405 51.8156 C 83.9212 52.1056 84.6797 51.3786 85.3726 51.4345 C 86.0433 51.4914 87.354 51.9426 87.354 51.9426 "/>
    <path id="ID0.2278452254831791" fill="none" stroke="#937B73" stroke-width="1.016074538230896" stroke-linecap="round" d="M 88.3447 45.7953 C 88.3447 45.7953 89.2789 47.6578 89.7418 48.5895 C 89.8967 48.9015 90.0674 49.2073 90.199 49.5294 C 90.3306 49.8515 90.5429 50.1726 90.5292 50.5201 C 90.5155 50.8686 90.3092 51.1907 90.1228 51.4853 C 89.9983 51.6824 89.6148 51.968 89.6148 51.968 "/>
    <path id="ID0.6473136460408568" fill="none" stroke="#937B73" stroke-width="1.016074563998663" stroke-linecap="round" d="M 88.6945 62.7247 C 88.6945 62.7247 89.0113 63.3595 89.0622 63.7041 C 89.1113 64.0396 89.0513 64.3871 88.9877 64.7203 C 88.8923 65.2223 88.5871 66.2015 88.5871 66.2015 "/>
    <path id="ID0.11669129692018032" fill="#2E3034" stroke="none" stroke-linecap="round" d="M 72.3669 40.4609 L 95.6096 42.239 L 99.5469 44.9062 L 90.1482 49.6056 L 69.4457 47.0654 L 72.3669 40.4609 Z " stroke-width="0.508037269115448"/>
    <path id="ID0.14635155349969864" fill="#2E3034" stroke="none" stroke-linecap="round" d="M 69.6997 45.7191 L 71.554 46.1001 L 74.1958 51.3075 L 74.5006 57.0737 L 76.3296 60.884 L 79.2254 64.4149 L 70.9952 59.2075 L 69.6997 45.7191 Z " stroke-width="0.508037269115448"/>
    <path id="ID0.28340246016159654" fill="#1C1D1F" stroke="none" stroke-linecap="round" d="M 72.5308 37.3008 L 75.9604 38.8401 L 85.6283 39.7313 L 85.6283 45.4834 L 78.688 44.5382 L 74.8262 43.458 L 72.8008 41.9457 L 71.9367 40.2174 L 72.5308 37.3008 Z " stroke-width="0.5401026606559753"/>
    <path id="ID0.6101007834076881" fill="#FFFFFF" stroke="none" stroke-linecap="round" d="M 76.3473 39.8334 L 78.0001 40.2332 L 81.78 41.4344 L 82.3247 43.4027 L 77.07 41.9498 L 76.3473 39.8334 Z " stroke-width="0.4061061920009203"/>
    <path id="ID0.28340246016159654" fill="#1C1D1F" stroke="none" stroke-linecap="round" d="M 98.1357 37.3586 L 95.0774 38.7313 L 86.4563 39.5259 L 86.4563 44.6553 L 92.6452 43.8124 L 96.0888 42.8492 L 97.8949 41.5006 L 98.6655 39.9594 L 98.1357 37.3586 Z " stroke-width="0.4816249907016754"/>
    <path id="ID0.6101007834076881" fill="#FFFFFF" stroke="none" stroke-linecap="round" d="M 96.4526 39.4089 L 94.9112 39.9003 L 91.4053 41.2963 L 91.0217 43.2012 L 95.9101 41.4663 L 96.4526 39.4089 Z " stroke-width="0.3863867372519633"/>
    <g id="ID0.07940126257017255">
      <path id="ID0.46257128613069654" fill="#27282B" stroke="none" stroke-linecap="round" d="M 85.8045 39.5743 L 90.1482 49.5318 L 80.1145 48.2617 L 85.8045 39.5743 Z " stroke-width="0.508037269115448"/>
      <path id="ID0.9845890481956303" fill="#27282B" stroke="none" stroke-linecap="round" d="M 86.6173 39.6989 L 94.8983 47.0654 L 90.2244 49.6056 L 86.6173 39.6989 Z " stroke-width="0.508037269115448"/>
    </g>
    <path id="ID0.20071752788498998" fill="#202324" stroke="none" d="M 77.3686 35.0018 L 81.5091 37.5673 L 86.2593 38.7358 L 86.3355 40.1329 L 78.5625 38.8628 L 72.6693 36.5259 L 74.3966 34.7477 L 77.3686 35.0018 Z " stroke-width="0.508037269115448"/>
    <path id="ID0.20071752788498998" fill="#202324" stroke="none" d="M 94.4242 34.7614 L 91.3713 37.2084 L 86.1277 38.7698 L 86.0578 40.0516 L 93.1891 38.8864 L 98.6191 36.8588 L 97.081 34.6216 L 94.4242 34.7614 Z " stroke-width="0.46609798073768616"/>
    <path id="ID0.521138689480722" fill="none" stroke="#212325" stroke-width="0.9060627222061157" stroke-linecap="round" d="M 98.2139 37.0742 L 94.9747 38.6598 L 86.4351 39.9057 "/>
    <path id="ID0.17828734638169408" fill="none" stroke="#202324" stroke-width="1.016074538230896" stroke-linecap="round" d="M 90.0466 49.0467 L 87.1254 41.8072 C 86.1245 39.3879 86.2729 39.9564 86.0839 38.9876 C 86.0179 38.6493 86.2358 38.3129 86.2871 37.9715 C 86.3374 37.6352 86.4014 37.2953 86.3887 36.9555 C 86.376 36.612 86.2769 36.2762 86.2109 35.9394 C 86.1078 35.4136 85.8807 34.3645 85.8807 34.3645 "/>
    <path id="ID0.521138689480722" fill="none" stroke="#212325" stroke-width="1.016074538230896" stroke-linecap="round" d="M 72.8068 36.8055 L 76.4392 38.5836 L 86.0157 39.9807 "/>
    <path id="ID0.8012696979567409" fill="none" stroke="url(#grad_1)" stroke-width="1.016074538230896" stroke-linecap="round" d="M 98.1244 45.6429 L 90.6562 49.5548 L 72.0621 47.2178 L 74.0434 51.0789 L 74.3482 57.1753 L 76.2788 60.7824 L 79.1746 64.4149 "/>
    <path id="ID0.043594349175691605" fill="#D7E2FD" stroke="none" stroke-linecap="round" d="M 81.5289 42.4677 L 81.7575 41.35 L 82.2656 43.4075 L 79.6746 42.6709 L 81.5289 42.4677 Z " stroke-width="0.508037269115448"/>
    <path id="ID0.043594349175691605" fill="#D7E2FD" stroke="none" stroke-linecap="round" d="M 91.7225 42.3348 L 91.4574 41.3321 L 91.1024 43.2258 L 93.4161 42.4236 L 91.7225 42.3348 Z " stroke-width="0.4618642652203811"/>
  </g>
  <g id="ID0.7049301471561193">
    <path id="ID0.05466862628236413" fill="#303436" stroke="none" stroke-linecap="round" d="M 55.1919 230.2418 L 81.9251 230.8229 L 73.9933 248.6079 L 71.6058 253.3183 L 68.0199 271.1029 L 58.1352 310.6384 L 42.3662 309.8966 L 43.8757 287.6986 L 42.6134 278.7314 L 42.8616 269.2152 L 47.1509 256.2383 L 49.1935 244.0876 L 55.1919 230.2418 Z " stroke-width="0.7305889897063004"/>
    <path id="ID0.4490455654449761" fill="none" stroke="#272A2B" stroke-width="1.6585523271142377" stroke-linecap="round" d="M 54.9506 231.0791 L 81.7377 231.2775 L 70.9992 254.2239 "/>
    <path id="ID0.10446935473009944" fill="none" stroke="#242728" stroke-width="1.6585523271142377" stroke-linecap="round" d="M 68.6208 266.3295 L 65.6673 282.9067 L 54.0493 288.3941 "/>
    <path id="ID0.42170455446466804" fill="none" stroke="#242728" stroke-width="1.6585523271142377" stroke-linecap="round" d="M 64.3869 283.8719 L 60.4534 298.4846 L 48.5862 304.1265 "/>
    <path id="ID0.047098892275244" fill="none" stroke="#242728" stroke-width="1.6585523271142377" stroke-linecap="round" d="M 49.5254 244.557 L 48.4089 248.3356 L 51.3753 257.8136 "/>
  </g>
  <path id="ID0.7729651997797191" fill="#3E4246" stroke="none" stroke-linecap="round" d="M 34.8357 95.1395 L 53.663 87.6985 L 57.5028 104.6032 L 60.7004 118.2035 L 59.6049 125.0228 L 57.9292 129.6351 L 44.9946 131.8461 L 41.1952 127.0874 L 37.7244 106.6312 L 34.8357 95.1395 Z " stroke-width="0.816459635760876"/>
  <path id="ID0.9716172609478235" fill="#393C40" stroke="none" stroke-linecap="round" d="M 42.9818 112.8836 L 37.5714 112.3071 L 37.1359 105.5248 L 57.3611 108.5983 L 55.5363 112.4611 L 50.9817 116.088 L 42.9818 112.8836 Z " stroke-width="0.8164596076457761"/>
  <g id="ID0.38066427363082767">
    <path id="ID0.4757494777441025" fill="#1D1E1F" stroke="none" stroke-linecap="round" d="M 37.4891 82.1135 L 44.8345 77.2053 L 61.4967 76.4191 L 62.3577 103.1702 L 54.2951 111.3701 L 50.3982 113.9045 L 46.5696 112.7475 L 42.8763 110.9098 L 36.6141 110.3719 L 34.655 105.2573 L 32.5968 97.3964 L 32.8116 88.4682 L 37.4891 82.1135 Z " stroke-width="0.4761425630660614"/>
    <path id="ID0.6007084371522069" fill="none" stroke="#0D0D0D" stroke-width="0.9522851261321228" stroke-linecap="round" d="M 37.1828 110.5474 L 42.7643 110.9499 L 48.0431 112.9782 L 50.4384 114.0166 L 54.2951 111.3701 L 57.6783 107.7553 "/>
  </g>
  <g id="ID0.7397577832452953">
    <path id="ID0.6726378230378032" fill="#393C40" stroke="none" stroke-linecap="round" d="M 50.9137 129.5736 L 60.8869 113.9107 L 63.1226 114.8563 L 53.0097 130.1023 L 50.9137 129.5736 Z " stroke-width="0.8164595156741782"/>
    <path id="ID0.6507829907350242" fill="#1D1E1F" stroke="none" stroke-linecap="round" d="M 51.9961 132.9923 L 63.269 114.6233 L 82.1974 116.1147 L 92.6775 118.7585 L 108.7763 119.6791 L 115.3323 119.4407 L 116.6826 131.5803 L 110.1499 131.4112 L 100.2635 132.6859 L 87.6696 134.8279 L 77.987 136.1143 L 51.9961 132.9923 Z " stroke-width="0.8164595156741782"/>
    <path id="ID0.6829322893172503" fill="#1D1E1F" stroke="none" stroke-linecap="round" d="M 116.2517 131.9646 L 111.7515 121.2804 L 117.44 118.3345 L 123.5828 114.5968 L 129.2887 114.9231 L 133.9407 115.8025 L 136.8809 118.0151 L 143.5241 119.8262 L 143.0523 124.5015 L 140.9446 125.6077 L 140.6476 127.2263 L 137.8119 130.3353 L 134.5571 133.6248 L 129.9574 135.4062 L 122.8716 134.1832 L 116.2517 131.9646 Z " stroke-width="0.8164595156741782"/>
    <path id="ID0.47767175547778606" fill="none" stroke="#0D0D0D" stroke-width="1.6329190313483564" stroke-linecap="round" d="M 55.9495 133.2184 L 51.8902 132.7001 L 63.2644 114.7048 L 77.2251 115.8303 "/>
    <path id="ID0.5922487881034613" fill="#282A2B" stroke="none" stroke-linecap="round" d="M 85.8122 135.9075 L 80.591 128.535 L 81.0221 122.4262 L 87.3268 116.5715 L 102.2028 118.8533 L 109.4747 123.9715 L 109.2766 127.4358 L 101.5909 133.1297 L 85.8122 135.9075 Z " stroke-width="0.8164595156741782"/>
    <path id="ID0.36820242274552584" fill="#151616" stroke="none" stroke-linecap="round" d="M 88.9272 129.7048 L 89.3305 121.2228 L 100.67 124.57 L 100.5022 126.0733 L 88.9272 129.7048 Z " stroke-width="0.8164595156741782"/>
    <path id="ID0.13569410238415003" fill="none" stroke="#232425" stroke-width="1.6329190313483564" stroke-linecap="round" d="M 99.9829 131.1569 L 107.4823 125.8612 L 100.4445 120.2249 "/>
    <path id="ID0.024502143263816833" fill="none" stroke="#0D0D0D" stroke-width="1.6329190313483564" stroke-linecap="round" d="M 85.6714 135.4497 L 80.7343 128.8295 L 80.8347 122.7835 L 87.1441 116.8473 L 95.6516 118.2334 "/>
  </g>
</svg>