<svg xmlns="http://www.w3.org/2000/svg" xmlns:xlink="http://www.w3.org/1999/xlink" version="1.1" width="176.49946677489598" height="328.17329489989595" viewBox="1.0219354043229476 -0.49810814759889677 176.49946677489598 328.17329489989595">
  <defs>
    <linearGradient id="grad_1" y2="1" x2="0">
      <stop offset="0" stop-color="#222325" stop-opacity="1"/>
      <stop offset="1" stop-color="#2E3034" stop-opacity="1"/>
    </linearGradient>
  </defs>
  <!-- Exported by Scratch - http://scratch.mit.edu/ -->
  <path id="ID0.7766774026677012" fill="#0D0D0D" stroke="#0D0D0D" stroke-width="1.9440163354428497" stroke-linecap="round" d="M 117.3299 183.237 C 117.4872 151.6552 119.1249 118.8887 108.9546 88.4141 C 105.1084 76.8924 89.965 71.2123 78.0418 66.799 C 72.5994 64.7874 66.9022 69.3 61.4239 70.8201 C 59.8685 71.2478 58.6966 72.2032 57.3667 72.8306 C 55.4896 73.5306 53.5205 74.0468 51.81 74.7995 C 51.2043 75.0677 50.5947 75.332 50.0345 75.6939 C 49.3756 76.0058 48.8627 76.4634 48.2525 76.8239 C 46.9834 77.4964 45.7129 78.216 44.4451 78.8413 C 43.1799 79.3724 41.8674 79.8078 40.6508 80.3873 C 40.0432 80.6535 39.3869 80.8712 38.8754 81.2817 C 38.2638 81.6893 37.8457 82.3382 37.3302 82.89 C 36.8173 83.3476 36.3044 83.8051 35.7916 84.2627 C 35.28 84.6731 34.6185 85.0794 34.2529 85.6354 C 33.8387 86.1428 33.7191 86.8472 33.4509 87.5002 C 33.184 88.1061 32.8672 88.7106 32.6489 89.3651 C 32.1651 90.5783 31.73 91.84 31.2949 93.1017 C 31.028 93.7076 30.7611 94.3135 30.4929 94.9666 C 30.226 95.5725 29.9591 96.1784 29.6909 96.8314 C 29.424 97.4374 29.1571 98.0433 28.8889 98.6963 C 28.622 99.3022 28.2551 99.9054 28.0869 100.5612 C 27.87 101.1685 27.853 101.7813 27.7847 102.4399 C 27.6678 103.05 27.5508 103.66 27.4825 104.3186 C 27.3656 104.9287 27.2986 105.5401 27.1803 106.1973 C 27.0134 106.806 26.7465 107.4119 26.6283 108.0691 C 26.1275 109.8952 25.674 111.8169 25.2219 113.6914 C 25.055 114.3001 24.7881 114.906 24.6698 115.5632 C 24.5029 116.1719 24.4359 116.7833 24.3676 117.4419 C 24.2507 118.052 24.0837 118.6607 24.0654 119.3206 C 23.9985 119.9321 24.0315 120.5463 24.0132 121.2063 C 23.9792 122.432 23.8439 123.702 23.9086 124.9776 C 23.8916 125.5904 24.0837 125.8788 24.1062 126.8702 C 24.0503 130.69 23.8932 134.5542 23.786 138.4198 C 23.6828 142.1439 23.5769 145.9623 23.4723 149.7336 C 23.4214 151.5721 23.4178 153.5063 23.3155 155.3906 C 23.2485 156.002 23.1316 156.6121 23.0133 157.2693 C 22.7242 158.6766 22.3364 160.034 22.146 161.4912 C 22.029 162.1013 22.112 162.7169 22.0937 163.3769 C 22.0267 163.9883 21.8598 164.597 21.7915 165.2556 C 21.5576 166.4757 21.2724 167.7416 21.1871 169.013 C 21.0532 170.2359 21.1179 171.5115 21.0826 172.7843 C 20.9793 176.5085 20.8735 180.3269 20.7689 184.0982 C 20.7441 184.9939 20.7849 185.3253 20.7166 185.9839 C 20.5997 186.5939 20.2828 187.1984 20.1645 187.8556 C 19.7637 189.6844 19.5602 191.6131 19.258 193.4918 C 19.141 194.1019 19.0741 194.7133 18.9558 195.3705 C 18.6193 196.6822 18.1329 197.9896 17.8451 199.3498 C 17.6769 200.0056 17.606 200.7585 17.5364 201.4642 C 17.4181 202.1214 17.2486 202.8244 17.2277 203.5787 C 17.1607 204.1901 17.1937 204.8043 17.1754 205.4643 C 17.1584 206.0771 17.0414 206.6872 17.1231 207.3499 C 17.2391 208.5798 17.5536 209.8623 17.7683 211.142 C 17.8512 211.7576 17.9342 212.3732 17.9659 213.0346 C 17.9489 213.6474 17.9319 214.2603 17.9136 214.9203 C 17.8966 215.5331 17.8796 216.1459 17.8613 216.8059 C 17.7274 218.0288 17.6921 219.3016 17.5069 220.5703 C 17.2743 221.7433 16.6591 224.0851 16.6591 224.0851 C 16.3962 224.5496 15.7 227.2156 15.2854 228.5288 C 15.0606 229.2425 14.7196 229.9209 14.4769 230.6294 C 14.2658 231.2454 14.1092 231.8779 13.9248 232.5012 C 13.7405 233.1245 13.5173 233.7401 13.3727 234.373 C 13.2315 234.9918 13.2118 235.6329 13.0706 236.2517 C 12.926 236.8846 12.7405 237.5116 12.5185 238.1235 C 12.2888 238.7578 11.9074 239.3426 11.7165 239.9884 C 11.5365 240.5976 11.5147 241.2415 11.4143 241.8671 C 11.3139 242.4927 11.2125 243.1202 11.1121 243.7458 C 11.0117 244.3714 10.9103 244.9989 10.8099 245.6245 C 10.7095 246.2501 10.5533 246.8714 10.5077 247.5032 C 10.418 248.7566 10.493 250.0212 10.4032 251.2745 C 10.3577 251.9064 10.2014 252.5276 10.101 253.1532 C 10.0006 253.7789 9.8443 254.4001 9.7988 255.032 C 9.709 256.2853 9.7011 257.5466 9.6943 258.8033 C 9.6806 261.3174 9.7377 263.8392 9.735 266.3528 C 9.7346 266.9812 9.7002 267.6105 9.6828 268.2384 C 9.6654 268.8663 9.6899 269.4983 9.6305 270.1241 C 9.571 270.7546 9.4695 271.384 9.3283 272.0028 C 9.1837 272.6357 8.879 273.2349 8.7762 273.8746 C 8.676 274.4955 8.7833 275.1344 8.7239 275.7602 C 8.6644 276.3908 8.4812 277.0084 8.4218 277.639 C 8.3624 278.2648 8.4288 278.8988 8.3695 279.5246 C 8.31 280.1551 8.2085 280.7845 8.0673 281.4033 C 7.9227 282.0362 7.6598 282.6422 7.5152 283.2751 C 7.374 283.8939 7.3542 284.535 7.213 285.1538 C 7.0684 285.7867 6.7916 286.3905 6.6609 287.0256 C 6.4054 288.2678 6.2583 289.5318 6.0566 290.7831 C 5.9562 291.4087 5.8548 292.0362 5.7544 292.6618 C 5.654 293.2874 5.5117 293.91 5.4522 294.5405 C 5.3928 295.1663 5.3753 295.798 5.3999 296.4261 C 5.4244 297.059 5.5871 297.6853 5.5975 298.3187 C 5.6177 299.5751 5.6925 300.8482 5.493 302.09 C 5.2874 303.3694 4.8071 304.6016 4.3888 305.8336 C 4.172 306.472 3.8165 307.0641 3.5868 307.6985 C 3.3648 308.3103 3.2568 308.9584 3.0347 309.5702 C 2.8051 310.2045 2.382 310.7797 2.2327 311.4351 C 2.0927 312.0492 1.8027 312.8017 2.1805 313.3208 C 2.5833 313.8745 3.4567 313.9808 4.1601 314.0833 C 4.8237 314.18 5.4951 313.8844 6.1659 313.903 C 6.8366 313.9216 7.4878 314.1756 8.1585 314.1942 C 8.8293 314.2128 9.4935 314.0349 10.1643 314.0139 C 10.8302 313.9927 11.505 313.9727 12.1635 314.0693 C 12.8421 314.1683 13.5355 314.3055 14.1497 314.5961 C 14.7905 314.8998 15.1935 315.5913 15.8664 315.8232 C 16.4926 316.0396 17.1998 315.8601 17.8656 315.8786 C 18.5313 315.8971 19.2019 315.994 19.8648 315.934 C 20.5478 315.8728 21.1942 315.5793 21.8771 315.518 C 22.54 315.4581 23.2127 315.5154 23.8764 315.5735 C 24.545 315.6316 25.2004 315.8064 25.8691 315.8646 C 26.5327 315.9226 27.2097 315.8235 27.8683 315.92 C 28.5468 316.0191 29.1759 316.3479 29.8544 316.4469 C 30.513 316.5435 31.19 316.4443 31.8537 316.5023 C 32.5223 316.5605 33.1828 316.6967 33.8464 316.7934 C 34.51 316.8902 35.1678 317.0858 35.8391 317.0846 C 37.844 317.0807 39.8463 316.8418 41.8498 316.7795 C 42.5157 316.7583 43.1854 316.7769 43.8491 316.8349 C 44.5177 316.893 45.1718 317.081 45.8418 317.126 C 47.1708 317.2148 48.5112 317.1481 49.8402 317.2369 C 50.5102 317.2819 51.1643 317.4698 51.8329 317.528 C 52.4966 317.586 53.1663 317.6046 53.8322 317.5834 C 54.503 317.5624 55.1671 317.4242 55.8379 317.4032 C 56.5038 317.382 57.1713 317.4798 57.8372 317.4586 C 58.508 317.4376 59.1727 317.3126 59.8429 317.2783 C 61.1753 317.2105 62.5134 317.1165 63.8479 317.1535 C 64.5187 317.1721 65.1841 317.3094 65.8406 317.4446 C 66.512 317.583 67.1483 317.8724 67.8268 317.9714 C 68.4854 318.068 69.1603 318.0084 69.826 318.0269 C 71.8232 318.0822 73.8291 318.0794 75.8237 318.1932 C 76.4939 318.2315 77.1478 318.4261 77.8164 318.4843 C 78.4801 318.5423 79.1498 318.5609 79.8156 318.5397 C 80.4865 318.5187 81.1535 318.4192 81.8214 318.3594 C 82.4893 318.2996 83.1563 318.2002 83.8272 318.1792 C 84.493 318.158 85.1684 318.3324 85.8264 318.2346 C 86.5286 318.1305 86.2388 317.9356 87.8452 317.5829 C 94.2698 316.1721 105.6204 319.5175 107.3672 313.4536 C 113.5962 291.818 106.3954 268.2193 108.0945 245.727 C 109.661 225.018 117.1997 204.3491 117.3299 183.237 Z "/>
  <g id="ID0.17693647183477879">
    <path id="ID0.7729651997797191" fill="#3E4246" stroke="none" stroke-linecap="round" d="M 43.5058 103.749 L 63.4077 107.4575 L 57.6715 123.8163 L 53.1484 137.0349 L 48.5947 142.228 L 44.7231 145.2433 L 32.5928 140.2385 L 31.9053 134.1881 L 39.8422 115.0176 L 43.5058 103.749 Z " stroke-width="0.8164595795133216"/>
    <path id="ID0.9716172609478235" fill="#393C40" stroke="none" stroke-linecap="round" d="M 46.9177 110.0558 L 42.3485 107.1018 L 45.0179 100.8517 L 61.6845 112.7145 L 58.314 115.3396 L 52.6133 116.5232 L 46.9177 110.0558 Z " stroke-width="0.8164595795133216"/>
    <g id="ID0.38066427363082767">
      <path id="ID0.4757494777441025" fill="#1D1E1F" stroke="none" stroke-linecap="round" d="M 55.886 79.9939 L 64.6555 78.9251 L 79.8822 85.7362 L 68.5886 110.0018 L 57.6948 113.6854 L 53.0738 114.1905 L 50.1782 111.4314 L 47.7103 108.1258 L 42.3633 104.822 L 42.9208 99.3736 L 44.6282 91.4291 L 48.8457 83.5568 L 55.886 79.9939 Z " stroke-width="0.4761425413062927"/>
      <path id="ID0.6007084371522069" fill="none" stroke="#0D0D0D" stroke-width="0.9522850826125854" stroke-linecap="round" d="M 42.7918 105.2352 L 47.5922 108.1111 L 51.3894 112.3017 L 53.0591 114.3086 L 57.6948 113.6854 L 62.3445 111.9844 "/>
    </g>
  </g>
  <g id="ID0.17693647183477879">
    <path id="ID0.7729651997797191" fill="#393C40" stroke="none" stroke-linecap="round" d="M 125.7815 106.2319 L 107.1369 101.2028 L 105.3145 117.638 L 103.7455 130.8722 L 105.5168 137.2179 L 107.6008 141.4094 L 120.098 142.1147 L 123.1876 137.196 L 124.2786 117.4343 L 125.7815 106.2319 Z " stroke-width="0.7788097954843827"/>
    <path id="ID0.9716172609478235" fill="#34373A" stroke="none" stroke-linecap="round" d="M 120.2434 110.2462 L 125.3922 109.5928 L 125.6776 103.1162 L 106.4479 106.4348 L 108.2622 110.0838 L 112.6754 113.4555 L 120.2434 110.2462 Z " stroke-width="0.7788097954843827"/>
    <g id="ID0.38066427363082767">
      <path id="ID0.4757494777441025" fill="#1D1E1F" stroke="none" stroke-linecap="round" d="M 124.9856 80.944 L 117.8863 76.4039 L 101.9806 75.9732 L 101.6719 101.5021 L 109.5183 109.1678 L 113.2832 111.5102 L 116.9124 110.3335 L 120.3995 108.51 L 126.3614 107.8771 L 128.1318 102.9619 L 129.9441 95.4255 L 129.5682 86.9148 L 124.9856 80.944 Z " stroke-width="0.4541860303467282"/>
      <path id="ID0.6007084371522069" fill="none" stroke="#0D0D0D" stroke-width="0.9083720606934564" stroke-linecap="round" d="M 125.8224 108.0554 L 120.5071 108.5462 L 115.5115 110.5817 L 113.2471 111.6179 L 109.5183 109.1678 L 106.2225 105.7852 "/>
    </g>
  </g>
  <g id="ID0.7397577832452953">
    <path id="ID0.6726378230378032" fill="#34373A" stroke="none" stroke-linecap="round" d="M 104.6821 136.3183 L 121.7482 131.5777 L 122.7299 133.6749 L 105.8307 138.0307 L 104.6821 136.3183 Z " stroke-width="0.7788100517785228"/>
    <path id="ID0.6507829907350242" fill="#1D1E1F" stroke="none" stroke-linecap="round" d="M 103.2544 139.4025 L 122.9689 133.5726 L 135.4374 146.709 L 141.1807 155.2712 L 152.0072 166.1972 L 156.8075 170.2118 L 150.018 179.6805 L 145.4943 175.3918 L 137.6714 169.9866 L 127.3755 163.4687 L 119.6897 158.2018 L 103.2544 139.4025 Z " stroke-width="0.7788100517785228"/>
    <path id="ID0.6829322893172503" fill="#1D1E1F" stroke="none" stroke-linecap="round" d="M 149.4673 179.6779 L 153.0947 169.2311 L 159.0077 170.7726 L 165.7481 172.0425 L 169.5853 175.915 L 172.3224 179.5071 L 172.9951 182.9521 L 176.5494 188.4755 L 173.2314 191.4892 L 171.0311 190.9284 L 169.7876 191.8865 L 165.7932 192.2812 L 161.3863 192.5364 L 156.9883 190.8642 L 152.745 185.4754 L 149.4673 179.6779 Z " stroke-width="0.7788100517785228"/>
    <path id="ID0.47767175547778606" fill="none" stroke="#0D0D0D" stroke-width="1.5576201035570456" stroke-linecap="round" d="M 105.9131 142.0856 L 103.3658 139.1277 L 122.9136 133.6274 L 132.0935 143.3343 "/>
    <path id="ID0.5922487881034613" fill="#282A2B" stroke="none" stroke-linecap="round" d="M 125.5273 163.1837 L 126.5302 154.6248 L 130.7341 150.5688 L 138.9402 150.4412 L 148.0311 161.552 L 149.9208 169.8212 L 147.5696 172.151 L 138.4869 171.2834 L 125.5273 163.1837 Z " stroke-width="0.7788100517785228"/>
    <path id="ID0.36820242274552584" fill="#151616" stroke="none" stroke-linecap="round" d="M 131.4137 160.7567 L 137.1123 155.0004 L 143.016 164.6097 L 141.9377 165.5685 L 131.4137 160.7567 Z " stroke-width="0.7788100517785228"/>
    <path id="ID0.13569410238415003" fill="none" stroke="#232425" stroke-width="1.5576201035570456" stroke-linecap="round" d="M 138.4482 168.7235 L 147.1446 169.7546 L 145.7516 161.2673 "/>
    <path id="ID0.024502143263816833" fill="none" stroke="#0D0D0D" stroke-width="1.5576201035570456" stroke-linecap="round" d="M 125.562 162.6343 L 126.2862 154.79 L 130.2156 150.5676 L 138.477 150.3851 L 143.6243 156.7968 "/>
  </g>
  <path id="ID0.3809091211296618" fill="#393D40" stroke="none" stroke-linecap="round" d="M 102.8747 183.8873 L 115.259 158.1752 L 141.9896 186.2897 L 148.1044 195.3683 L 155.2045 212.5723 L 150.1408 220.0363 L 140.8669 229.1712 L 127.8537 212.9197 L 122.1586 202.9782 L 102.8747 183.8873 Z " stroke-width="0.7305889220034542"/>
  <path id="ID0.3809091211296618" fill="#3E4246" stroke="none" stroke-linecap="round" d="M 74.7973 152.4917 L 95.206 164.9268 L 100.8364 203.3097 L 100.598 214.253 L 96.48 232.4032 L 88.0392 235.5821 L 75.1951 237.6988 L 73.1426 216.0238 L 70.5567 202.8594 L 74.7973 152.4917 Z " stroke-width="0.7305889285258406"/>
  <g id="ID0.9157347986474633">
    <path id="ID0.7477802094072104" fill="#363A3D" stroke="none" stroke-linecap="round" d="M 122.9783 123.2473 L 103.2892 121.2599 L 105.6124 162.3806 L 122.7545 170.354 L 123.6531 145.7428 L 122.9783 123.2473 Z " stroke-width="0.47614257347961325"/>
    <path id="ID0.7477802094072104" fill="#363A3D" stroke="none" stroke-linecap="round" d="M 62.9222 126.6429 L 86.1737 122.4678 L 88.4969 163.5885 L 72.3621 173.442 L 65.4784 148.6744 L 62.9222 126.6429 Z " stroke-width="0.47614257347961325"/>
    <path id="ID0.4270821204409003" fill="#3E4246" stroke="none" stroke-linecap="round" d="M 62.1024 106.6922 L 65.2005 93.9984 L 67.1295 88.0474 L 73.2699 80.6662 L 104.3693 80.3398 L 111.5041 84.2288 L 114.5847 88.1084 L 122.2412 99.1215 L 122.1191 109.6202 L 121.4772 115.1409 L 123.5305 121.94 L 124.3147 127.38 L 122.5649 134.394 L 121.2441 139.7145 L 120.5793 149.0516 L 123.3123 170.8347 L 118.6415 179.3252 L 114.2143 185.7989 L 102.422 191.9018 L 90.6758 189.5371 L 86.3752 183.0558 L 81.0686 176.9174 L 72.3609 174.3095 L 69.7898 149.0598 L 68.2253 142.4715 L 63.017 131.3202 L 61.0986 120.579 L 62.1024 106.6922 Z " stroke-width="0.47614257347961325"/>
    <path id="ID0.052435632329434156" fill="#393C40" stroke="none" stroke-linecap="round" d="M 77.0714 155.7119 L 81.5189 155.5083 L 88.2883 158.4165 L 93.3417 157.964 L 99.3135 159.415 L 103.4364 158.109 L 105.0734 157.5397 L 119.0716 153.3389 L 119.6134 156.5989 L 111.2915 161.242 L 105.3318 161.2687 L 99.9179 164.6268 L 93.0638 161.485 L 86.6703 162.2754 L 76.5912 159.0296 L 77.0714 155.7119 Z " stroke-width="0.47614257347961325"/>
    <path id="ID0.4987568911164999" fill="none" stroke="#27282B" stroke-width="0.9522851469592265" stroke-linecap="round" d="M 73.1127 81.1858 L 67.0442 87.7284 L 64.2805 97.8995 "/>
    <path id="ID0.2889464790932834" fill="none" stroke="#27282B" stroke-width="0.9522851469592265" stroke-linecap="round" d="M 105.7571 80.7721 L 111.6766 84.2529 L 117.9049 93.2006 "/>
    <path id="ID0.8373676878400147" fill="#000000" stroke="#2C2F31" stroke-width="0.6155104282475532" stroke-linecap="round" d="M 77.3828 93.9833 L 77.6401 92.4352 L 74.0586 93.5532 L 69.4042 97.1696 L 65.5741 102.4526 L 63.4534 108.2185 L 68.4507 105.6686 L 73.1339 105.2844 L 75.9299 106.0397 L 78.64 108.8762 L 80.681 107.7317 L 84.6671 107.2164 L 89.2343 107.9907 L 93.2567 110.9383 L 95.508 113.8668 L 97.4835 110.723 L 100.992 107.375 L 105.0173 105.7037 L 110.1644 105.3813 L 112.0276 105.8592 L 113.5392 102.6536 L 115.4189 101.2834 L 118.0485 101.6592 L 120.9441 103.1041 L 119.2828 99.3864 L 116.7732 95.6195 L 113.7554 92.793 L 110.4553 90.7456 L 105.8932 90.1251 L 108.1836 91.8976 L 108.2415 93.6663 L 106.774 95.8698 L 103.2794 97.2928 L 100.1392 97.7804 L 97.5297 98.0198 L 94.7995 94.568 L 94.4829 96.6569 L 93.0219 96.7047 L 91.329 94.3737 L 90.6215 98.6307 L 86.5535 98.9948 L 82.3733 98.2848 L 78.9471 97.0883 L 77.3828 93.9833 Z "/>
    <path id="ID0.5698574706912041" fill="none" stroke="#313537" stroke-width="0.9522851469592265" stroke-linecap="round" d="M 76.9907 155.5495 L 76.5777 158.7919 L 86.677 162.3942 L 93.4311 161.655 L 99.6735 164.5214 "/>
    <path id="ID0.5698574706912041" fill="none" stroke="#313537" stroke-width="0.8933066266780764" stroke-linecap="round" d="M 118.577 153.396 L 119.2763 156.5756 L 110.9122 161.2211 L 104.9867 161.1982 L 99.8842 164.7055 "/>
    <path id="ID0.8947288258932531" fill="#393C40" stroke="none" stroke-linecap="round" d="M 77.6238 143.5435 L 84.629 143.0285 L 92.2713 144.5043 L 98.2399 149.6992 L 90.9096 145.7258 L 80.0813 144.8354 L 75.1415 148.1428 L 77.6238 143.5435 Z " stroke-width="0.47614257347961325"/>
    <path id="ID0.8947288258932531" fill="#393C40" stroke="none" stroke-linecap="round" d="M 116.1876 142.2698 L 109.9763 142.5153 L 103.4033 144.5748 L 98.6726 149.7378 L 104.7224 145.5132 L 114.1554 143.6508 L 118.8289 146.0667 L 116.1876 142.2698 Z " stroke-width="0.42137385954810047"/>
    <path id="ID0.9897695370018482" fill="#393C40" stroke="none" stroke-linecap="round" d="M 81.762 155.5899 L 75.1986 155.4839 L 75.3645 150.8247 L 76.7504 154.2516 L 81.8451 154.1068 L 88.175 157.2544 L 93.6217 156.589 L 97.7906 157.7842 L 98.7261 149.8625 L 99.517 159.642 L 93.8185 157.9609 L 87.9475 158.2926 L 81.762 155.5899 Z " stroke-width="0.47614257347961325"/>
    <path id="ID0.9897695370018482" fill="#393C40" stroke="none" stroke-linecap="round" d="M 113.8067 153.9526 L 119.3096 153.1981 L 118.7043 148.9079 L 117.8828 152.2143 L 113.5886 152.59 L 108.586 156.1326 L 103.9439 156.0622 L 100.5614 157.5839 L 98.9834 150.3548 L 99.2969 159.4738 L 103.9158 157.35 L 108.8809 157.0695 L 113.8067 153.9526 Z " stroke-width="0.4232251058660709"/>
    <path id="ID0.3524594851769507" fill="#393C40" stroke="none" stroke-linecap="round" d="M 90.2124 120.3435 L 96.2308 122.1972 L 100.544 119.6167 L 97.5976 123.5984 L 99.1768 134.6687 L 108.1845 133.3014 L 97.9751 137.4549 L 86.0636 133.4304 L 95.8518 134.9042 L 94.8112 123.6605 L 90.2124 120.3435 Z " stroke-width="0.47614257347961325"/>
    <path id="ID0.9214867809787393" fill="#393C40" stroke="none" stroke-linecap="round" d="M 77.4049 139.6691 L 80.1384 135.2941 L 84.8385 134.0748 L 79.2836 139.1576 L 79.2111 142.0947 L 84.2529 141.8575 L 92.587 144.6057 L 83.5186 143.2105 L 77.6714 143.5408 L 77.4049 139.6691 Z " stroke-width="0.47614257347961325"/>
    <path id="ID0.9214867809787393" fill="#393C40" stroke="none" stroke-linecap="round" d="M 115.624 138.2514 L 112.6779 134.3901 L 108.2759 133.7285 L 113.8619 137.9641 L 114.2371 140.7419 L 109.6279 141.0479 L 103.1532 144.2582 L 110.438 142.2537 L 115.7894 141.9513 L 115.624 138.2514 Z " stroke-width="0.44517882117051777"/>
    <path id="ID0.8679121839813888" fill="#2C2F31" stroke="none" stroke-linecap="round" d="M 92.1022 119.1427 L 95.9966 120.5441 L 99.2316 118.7161 L 100.2361 119.6131 L 96.4646 122.4968 L 90.5862 120.5875 L 92.1022 119.1427 Z " stroke-width="0.47614257347961325"/>
    <path id="ID0.24770551454275846" fill="none" stroke="#313537" stroke-width="0.9522851469592265" stroke-linecap="round" d="M 95.9796 116.9616 L 100.8161 120.2651 L 108.3302 120.3175 L 115.8759 118.8181 L 120.8903 114.7196 "/>
    <path id="ID0.20603158557787538" fill="none" stroke="#313537" stroke-width="0.9522851469592265" stroke-linecap="round" d="M 62.4938 114.8112 L 69.8079 119.7631 L 82.3492 122.2736 L 89.5652 121.2698 L 95.5236 116.9987 "/>
    <g id="ID0.5272086253389716">
      <path id="ID0.24770551454275846" fill="none" stroke="#363A3D" stroke-width="0.9522850876596245" stroke-linecap="round" d="M 67.7809 147.0396 L 77.4903 143.3196 "/>
      <path id="ID0.24770551454275846" fill="none" stroke="#363A3D" stroke-width="0.9522850876596245" stroke-linecap="round" d="M 64.4968 135.3756 L 84.5403 128.0196 "/>
    </g>
    <g id="ID0.5272086253389716">
      <path id="ID0.24770551454275846" fill="none" stroke="#363A3D" stroke-width="0.9522850815103717" stroke-linecap="round" d="M 122.8553 142.9529 L 115.8245 141.5148 "/>
      <path id="ID0.24770551454275846" fill="none" stroke="#363A3D" stroke-width="0.9522850815103717" stroke-linecap="round" d="M 122.7108 131.8076 L 108.5894 127.8369 "/>
    </g>
    <g id="ID0.7887678607366979">
      <path id="ID0.753661650698632" fill="none" stroke="#313537" stroke-width="0.9522850876596245" stroke-linecap="round" d="M 90.6945 120.4355 L 96.058 122.517 L 99.9511 119.6741 "/>
      <g id="ID0.8167418288066983">
        <path id="ID0.9553722990676761" fill="none" stroke="#313537" stroke-width="1.0409108361777322" stroke-linecap="round" d="M 97.4469 137.2661 L 91.7221 135.4435 L 85.4505 133.8903 L 80.7409 135.1101 L 77.4802 139.5865 L 77.6749 143.033 "/>
        <path id="ID0.5982440118677914" fill="none" stroke="#313537" stroke-width="0.8540413465398939" stroke-linecap="round" d="M 85.7846 133.5436 L 84.2975 128.3258 L 89.1287 120.9839 "/>
      </g>
      <g id="ID0.7324484633281827">
        <path id="ID0.04993448918685317" fill="none" stroke="#313537" stroke-width="0.9522850876596245" stroke-linecap="round" d="M 96.0513 122.3981 L 97.3553 132.8163 L 98.7573 149.1902 L 99.9149 165.4587 "/>
        <g id="ID0.8167418288066983">
          <path id="ID0.9553722990676761" fill="none" stroke="#313537" stroke-width="0.9699702979885059" stroke-linecap="round" d="M 97.6105 137.1136 L 102.5613 135.4747 L 107.8756 133.2669 L 112.1189 133.9809 L 115.4411 138.0853 L 115.6358 141.5319 "/>
          <path id="ID0.5982440118677914" fill="none" stroke="#313537" stroke-width="0.7916616384032232" stroke-linecap="round" d="M 107.6305 132.9582 L 108.3772 127.6143 L 103.3798 120.8277 "/>
          <path id="ID0.3567589442245662" fill="none" stroke="#313537" stroke-width="0.8967655302800723" stroke-linecap="round" d="M 98.5135 149.8262 L 103.3548 144.5691 L 110.5645 142.2541 L 116.0837 141.9423 L 118.5825 146.4509 L 119.2714 153.4463 L 113.7716 154.4724 L 108.3015 157.8813 L 103.3752 157.9212 L 99.2765 159.9888 L 93.3027 157.8226 L 87.7342 158.3757 L 81.1415 155.6483 L 74.8085 155.2907 L 74.7468 148.2599 L 77.0355 143.4808 L 83.3073 143.1265 L 91.7353 144.5579 L 97.8279 149.1973 Z "/>
        </g>
      </g>
    </g>
    <g id="ID0.9312638868577778">
      <path id="ID0.2888958193361759" fill="#393C40" stroke="none" stroke-linecap="round" d="M 79.952 163.6172 L 90.2703 165.1218 L 89.8409 168.0666 L 79.5225 166.5619 L 79.952 163.6172 Z " stroke-width="0.476142524769872"/>
      <path id="ID0.2888958193361759" fill="#393C40" stroke="none" stroke-linecap="round" d="M 69.1234 162.1104 L 80.7203 163.9218 L 80.2909 166.8666 L 69.9725 165.3619 L 69.1234 162.1104 Z " stroke-width="0.476142524769872"/>
      <g id="ID0.36424446757882833">
        <path id="ID0.7359844641759992" fill="#8A7B59" stroke="none" d="M 82.861 162.7244 L 84.3822 162.6385 L 84.7341 168.866 L 83.2128 168.952 L 82.861 162.7244 Z " stroke-width="0.47614254382981225"/>
        <path id="ID0.7359844641759992" fill="#8A7B59" stroke="none" d="M 80.911 162.4244 L 82.4322 162.3385 L 82.7841 168.566 L 81.2628 168.652 L 80.911 162.4244 Z " stroke-width="0.47614254382981225"/>
        <path id="ID0.7359844641759992" fill="#8A7B59" stroke="none" d="M 78.911 161.8744 L 80.4322 161.7885 L 80.7841 168.016 L 79.2628 168.102 L 78.911 161.8744 Z " stroke-width="0.47614254382981225"/>
        <path id="ID0.7359844641759992" fill="#8A7B59" stroke="none" d="M 84.861 163.1244 L 86.3822 163.0385 L 86.7341 169.266 L 85.2128 169.352 L 84.861 163.1244 Z " stroke-width="0.47614254382981225"/>
      </g>
      <g id="ID0.1049797898158431">
        <path id="ID0.08871637750416994" fill="#8A7B59" stroke="none" stroke-linecap="round" d="M 70.831 161.3962 L 77.284 162.0808 L 77.5521 167.6692 L 71.3354 166.9474 L 70.831 161.3962 Z " stroke-width="0.47614254382981225"/>
        <path id="ID0.13805592898279428" fill="#76694C" stroke="none" stroke-linecap="round" d="M 70.652 161.1507 L 77.414 161.8179 L 77.6716 164.6886 L 70.8805 163.9277 L 70.652 161.1507 Z " stroke-width="0.47614254382981225"/>
        <path id="ID0.3221200187690556" fill="#61563F" stroke="none" stroke-linecap="round" d="M 73.498 163.1773 L 74.3956 163.4889 L 74.5721 165.2388 L 73.5986 164.9574 L 73.498 163.1773 Z " stroke-width="0.5167889057744438"/>
        <path id="ID0.1420820001512766" fill="#BAA578" stroke="none" stroke-linecap="round" d="M 76.8628 166.7826 L 77.4953 165.3162 L 77.6731 167.6191 L 71.3654 166.974 L 76.8628 166.7826 Z " stroke-width="0.47614254382981225"/>
      </g>
      <path id="ID0.2888958193361759" fill="#393C40" stroke="none" stroke-linecap="round" d="M 117.4104 161.9058 L 110.1011 164.1348 L 110.6756 166.6429 L 117.985 164.4139 L 117.4104 161.9058 Z " stroke-width="0.38104698091303124"/>
      <path id="ID0.2888958193361759" fill="#393C40" stroke="none" stroke-linecap="round" d="M 123.826 159.6522 L 116.9511 161.9848 L 117.5256 164.4929 L 123.5696 162.5854 L 123.826 159.6522 Z " stroke-width="0.38104698091303124"/>
      <path id="ID0.7359844641759992" fill="#8A7B59" stroke="none" d="M 115.345 160.9453 L 114.2397 161.0077 L 114.5458 166.4251 L 115.6511 166.3626 L 115.345 160.9453 Z " stroke-width="0.3816027899077977"/>
      <path id="ID0.7359844641759992" fill="#8A7B59" stroke="none" d="M 116.645 160.3453 L 115.5397 160.4077 L 115.8458 165.8251 L 116.9511 165.7626 L 116.645 160.3453 Z " stroke-width="0.3816027899077977"/>
      <path id="ID0.7359844641759992" fill="#8A7B59" stroke="none" d="M 118.095 159.7953 L 116.9897 159.8577 L 117.2958 165.2751 L 118.4011 165.2126 L 118.095 159.7953 Z " stroke-width="0.3816027899077977"/>
      <path id="ID0.7359844641759992" fill="#8A7B59" stroke="none" d="M 113.945 161.5453 L 112.8397 161.6077 L 113.1458 167.0251 L 114.2511 166.9626 L 113.945 161.5453 Z " stroke-width="0.3816027899077977"/>
      <g id="ID0.1049797898158431">
        <path id="ID0.08871637750416994" fill="#8A7B59" stroke="none" stroke-linecap="round" d="M 124.0128 158.6289 L 119.1314 159.8744 L 119.4598 165.0351 L 124.1565 163.7779 L 124.0128 158.6289 Z " stroke-width="0.4054529664298929"/>
        <path id="ID0.13805592898279428" fill="#76694C" stroke="none" stroke-linecap="round" d="M 124.2207 158.426 L 119.1008 159.685 L 119.1776 162.3475 L 124.3109 160.9995 L 124.2207 158.426 Z " stroke-width="0.4054529664298929"/>
        <path id="ID0.3221200187690556" fill="#61563F" stroke="none" stroke-linecap="round" d="M 122.239 160.5234 L 121.5807 160.8954 L 121.6126 162.5203 L 122.3319 162.1686 L 122.239 160.5234 Z " stroke-width="0.44006480543241705"/>
        <path id="ID0.1420820001512766" fill="#BAA578" stroke="none" stroke-linecap="round" d="M 120.0024 164.1903 L 119.3775 162.9033 L 119.4612 165.0363 L 124.235 163.841 L 120.0024 164.1903 Z " stroke-width="0.4054529664298929"/>
      </g>
      <g id="ID0.6836685389280319">
        <path id="ID0.09357938077300787" fill="#857656" stroke="none" d="M 90.6485 162.1701 L 108.5943 161.1562 L 108.9569 167.5739 L 91.0111 168.5878 L 90.6485 162.1701 Z " stroke-width="0.428332066636398"/>
        <path id="ID0.6492703901603818" fill="#7C6E50" stroke="none" stroke-linecap="round" d="M 91.536 164.4088 L 99.9109 167.0355 L 108.5547 163.4473 L 108.7951 167.702 L 91.7763 168.6635 L 91.536 164.4088 Z " stroke-width="0.47614254382981225"/>
        <g id="ID0.9254062357358634">
          <g id="ID0.49943465692922473">
            <path id="ID0.140373723115772" fill="#968561" stroke="none" d="M 107.0502 160.1266 L 112.1606 159.8379 L 112.6709 168.8702 L 107.5605 169.1589 L 107.0502 160.1266 Z " stroke-width="0.47614254382981225"/>
            <path id="ID0.8286363878287375" fill="#BAA578" stroke="none" stroke-linecap="round" d="M 107.0449 159.9769 L 112.2875 159.9191 L 108.1946 160.9134 L 107.2934 163.1104 L 107.0449 159.9769 Z " stroke-width="0.47614254382981225"/>
            <path id="ID0.7362233307212591" fill="#8A7B59" stroke="none" stroke-linecap="round" d="M 107.4124 166.0604 L 110.1248 165.9549 L 112.436 163.3921 L 112.7516 168.9779 L 107.5937 169.2693 L 107.4124 166.0604 Z " stroke-width="0.47614254382981225"/>
          </g>
          <g id="ID0.49943465692922473">
            <path id="ID0.140373723115772" fill="#968561" stroke="none" d="M 91.8734 161.1502 L 86.763 161.439 L 87.2733 170.4713 L 92.3837 170.1825 L 91.8734 161.1502 Z " stroke-width="0.47614254382981225"/>
            <path id="ID0.8286363878287375" fill="#BAA578" stroke="none" stroke-linecap="round" d="M 91.8476 161.0327 L 86.6318 161.5659 L 90.8106 162.0928 L 91.9535 164.1743 L 91.8476 161.0327 Z " stroke-width="0.47614254382981225"/>
            <path id="ID0.7362233307212591" fill="#8A7B59" stroke="none" stroke-linecap="round" d="M 92.1676 167.119 L 89.4606 167.3196 L 86.8754 165.0335 L 87.191 170.6192 L 92.3489 170.3278 L 92.1676 167.119 Z " stroke-width="0.47614254382981225"/>
          </g>
        </g>
      </g>
    </g>
  </g>
  <g id="ID0.8333355090580881">
    <path id="ID0.9286923445761204" fill="#27282B" stroke="none" stroke-linecap="round" d="M 76.8583 46.4111 L 95.7238 46.4323 L 98.0768 70.6777 L 113.8188 76.6234 L 91.9079 89.7083 L 54.3865 80.0269 L 73.3892 67.9311 L 76.8583 46.4111 Z " stroke-width="0.47614256282639195"/>
    <path id="ID0.5448851804248989" fill="none" stroke="#1D1E1F" stroke-width="0.9522851256527839" stroke-linecap="round" d="M 74.369 62.0768 L 73.5644 67.7266 L 91.2129 74.2412 L 97.7993 70.7947 "/>
    <path id="ID0.262191956397146" fill="none" stroke="#1D1E1F" stroke-width="0.9522851256527839" stroke-linecap="round" d="M 77.5043 66.801 L 90.6568 71.9919 L 93.5613 70.6449 "/>
  </g>
  <g id="ID0.3450673264451325">
    <g id="ID0.9831569031812251">
      <path id="ID0.0877610077150166" fill="#2E3034" stroke="none" stroke-linecap="round" d="M 99.5813 13.442 L 94.6034 0.4739 L 95.4903 28.9887 L 103.1579 28.7502 L 99.5813 13.442 Z " stroke-width="0.5866066148496055"/>
      <path id="ID0.796130308881402" fill="#242628" stroke="none" stroke-linecap="round" d="M 99.8229 13.4684 L 94.4896 0.5113 L 98.4743 14.2321 L 99.8765 29.083 L 103.041 28.6893 L 99.8229 13.4684 Z " stroke-width="0.5866066148496055"/>
    </g>
    <g id="ID0.9831569031812251">
      <path id="ID0.0877610077150166" fill="#2E3034" stroke="none" stroke-linecap="round" d="M 75.9135 14.3269 L 80.0759 1.0745 L 80.9628 29.5893 L 73.2951 29.8278 L 75.9135 14.3269 Z " stroke-width="0.5866066148496055"/>
      <path id="ID0.796130308881402" fill="#242628" stroke="none" stroke-linecap="round" d="M 75.5276 14.3983 L 80.0454 1.1349 L 76.921 15.0767 L 76.2819 29.6631 L 73.2615 29.7898 L 75.5276 14.3983 Z " stroke-width="0.5866066148496055"/>
    </g>
    <path id="ID0.8999492498114705" fill="#2E3034" stroke="none" stroke-linecap="round" d="M 93.6079 19.6421 C 98.0248 19.984 102.8386 22.546 105.0905 26.3608 C 107.6602 30.7161 105.8873 36.3725 106.3422 41.3563 C 106.5683 43.0536 107.415 44.7808 107.1349 46.4145 C 106.5643 49.7376 104.9853 52.8171 104.0034 56.0422 C 103.3601 58.1558 103.279 60.5143 102.1697 62.4528 C 100.9245 64.7452 99.6799 67.9195 97.0957 68.4558 C 93.2646 69.2505 89.1328 67.537 85.6303 65.8898 C 82.753 64.5363 80.0321 62.4079 78.3722 59.6858 C 75.3941 54.631 72.6583 49.0533 72.09 43.1841 C 71.4602 36.6778 70.4396 28.6396 75.0444 23.7774 C 79.1534 19.1061 87.0419 19.1368 93.6079 19.6421 Z " stroke-width="0.5080372484200042"/>
    <path id="ID0.2441388238221407" fill="#AB8E85" stroke="none" d="M 92.1087 44.442 C 96.1922 44.4821 101.5302 41.1498 104.3394 43.8103 C 106.874 46.3235 103.6585 51.2872 102.7962 54.7894 C 101.9371 58.2726 101.3655 62.0308 99.2173 64.9523 C 98.1898 66.2532 95.9678 66.394 94.2296 66.1754 C 91.1038 65.7788 88.0036 64.5912 85.3546 62.8819 C 82.6134 61.1139 79.0042 59.1957 78.3329 55.99 C 77.4828 51.9292 77.9791 46.5161 81.0962 43.8422 C 83.9585 41.5028 88.4362 44.4054 92.1087 44.442 Z " stroke-width="1.25584003674567"/>
    <path id="ID0.46721756737679243" fill="#A2887F" stroke="none" stroke-linecap="round" d="M 77.4793 46.1536 L 79.1763 46.787 L 105.1634 45.5975 L 98.1107 50.8997 L 81.3024 48.9573 L 82.4938 51.3092 L 82.9222 56.9124 L 86.7764 63.9847 L 81.9985 57.4494 L 77.4793 46.1536 Z " stroke-width="0.5080372484200042"/>
    <path id="ID0.8256730306893587" fill="none" stroke="#937B73" stroke-width="1.0160744968400084" stroke-linecap="round" d="M 88.8846 57.5822 C 88.8846 57.5822 91.564 56.9021 92.9225 56.6688 C 93.2622 56.6104 93.6028 56.6776 93.9404 56.7133 C 94.2836 56.7499 94.6179 56.9073 94.9623 56.8849 C 95.6451 56.8408 96.3077 56.6229 96.984 56.517 C 97.3194 56.4644 97.6579 56.4158 97.9972 56.4093 C 98.3371 56.4028 98.6825 56.4124 99.016 56.4792 C 99.5643 56.5893 100.6313 56.9373 100.6313 56.9373 "/>
    <path id="ID0.7592270169407129" fill="none" stroke="#937B73" stroke-width="1.0160744968400084" stroke-linecap="round" d="M 97.2409 58.5974 C 97.2409 58.5974 96.6301 58.9616 96.2887 59.0337 C 95.9575 59.104 95.6072 58.97 95.2716 59.0145 C 94.9339 59.0596 94.6256 59.246 94.2893 59.2992 C 93.9549 59.3523 93.6056 59.3957 93.2737 59.3308 C 92.9914 59.2755 92.4994 58.9482 92.4994 58.9482 "/>
    <path id="ID0.5332203092984855" fill="none" stroke="#937B73" stroke-width="1.0160744968400084" stroke-linecap="round" d="M 91.151 49.388 C 91.151 49.388 90.5592 49.8384 90.4638 50.1718 C 90.3405 50.6183 90.1123 51.4707 90.5644 51.7697 C 91.1538 52.0416 91.8893 51.2914 92.5837 51.3257 C 93.2557 51.3617 94.5799 51.7719 94.5799 51.7719 "/>
    <path id="ID0.2278452254831791" fill="none" stroke="#937B73" stroke-width="1.0160744968400084" stroke-linecap="round" d="M 95.379 45.5968 C 95.379 45.5968 96.3707 47.4294 96.8622 48.3463 C 97.0268 48.6532 97.2069 48.9536 97.3485 49.2715 C 97.49 49.5893 97.7122 49.9036 97.7093 50.2514 C 97.7065 50.6002 97.5103 50.9285 97.3331 51.2288 C 97.2148 51.4297 96.8403 51.727 96.8403 51.727 "/>
    <path id="ID0.6473136460408568" fill="none" stroke="#937B73" stroke-width="1.0160746448338933" stroke-linecap="round" d="M 96.3716 62.4187 C 96.3716 62.4187 96.708 63.0434 96.7695 63.3862 C 96.829 63.72 96.7798 64.0692 96.7267 64.4042 C 96.647 64.9089 96.3723 65.8972 96.3723 65.8972 "/>
    <path id="ID0.11669129692018032" fill="#2E3034" stroke="none" stroke-linecap="round" d="M 79.2431 40.7617 L 102.5298 41.8164 L 106.5481 44.36 L 97.3001 49.3492 L 76.5286 47.4538 L 79.2431 40.7617 Z " stroke-width="0.5080372484200042"/>
    <path id="ID0.14635155349969864" fill="#2E3034" stroke="none" stroke-linecap="round" d="M 76.7406 46.1003 L 78.6059 46.4235 L 81.4083 51.5462 L 81.8922 57.3002 L 83.8388 61.0518 L 86.8429 64.4909 L 78.4548 59.5419 L 76.7406 46.1003 Z " stroke-width="0.5080372484200042"/>
    <path id="ID0.28340246016159654" fill="#1C1D1F" stroke="none" stroke-linecap="round" d="M 79.3615 37.565 L 82.8374 38.997 L 92.5282 39.5872 L 92.7071 45.3365 L 85.7407 44.6075 L 81.8473 43.6479 L 79.7758 42.1993 L 78.8584 40.4987 L 79.3615 37.565 Z " stroke-width="0.5401026406962295"/>
    <path id="ID0.6101007834076881" fill="#FFFFFF" stroke="none" stroke-linecap="round" d="M 83.1896 39.9112 L 84.854 40.2594 L 88.6694 41.3425 L 89.275 43.2929 L 83.9777 42.004 L 83.1896 39.9112 Z " stroke-width="0.40610621887076404"/>
    <path id="ID0.28340246016159654" fill="#1C1D1F" stroke="none" stroke-linecap="round" d="M 104.709 36.794 L 101.6948 38.261 L 93.1026 39.3233 L 93.2621 44.4501 L 99.4217 43.4153 L 102.8338 42.3455 L 104.5971 40.9414 L 105.3194 39.377 L 104.709 36.794 Z " stroke-width="0.48162501909543004"/>
    <path id="ID0.6101007834076881" fill="#FFFFFF" stroke="none" stroke-linecap="round" d="M 103.0981 38.9048 L 101.5726 39.4439 L 98.1118 40.9482 L 97.7877 42.8641 L 102.6198 40.9781 L 103.0981 38.9048 Z " stroke-width="0.38638676336133676"/>
    <g id="ID0.07940126257017255">
      <path id="ID0.46257128613069654" fill="#27282B" stroke="none" stroke-linecap="round" d="M 92.7013 39.4577 L 97.3524 49.2754 L 87.2841 48.3178 L 92.7013 39.4577 Z " stroke-width="0.5080372484200042"/>
      <path id="ID0.9845890481956303" fill="#27282B" stroke="none" stroke-linecap="round" d="M 93.4629 39.557 L 101.969 46.6626 L 97.3762 49.3468 L 93.4629 39.557 Z " stroke-width="0.5080372484200042"/>
    </g>
    <path id="ID0.20071752788498998" fill="#202324" stroke="none" d="M 84.1254 35.1528 L 88.3436 37.5884 L 93.1278 38.6087 L 93.2474 40.0027 L 85.4387 38.9749 L 79.4757 36.8223 L 81.1469 34.9913 L 84.1254 35.1528 Z " stroke-width="0.5080372484200042"/>
    <path id="ID0.20071752788498998" fill="#202324" stroke="none" d="M 100.963 34.3227 L 97.9876 36.8635 L 92.7951 38.5872 L 92.765 39.8705 L 99.8567 38.4841 L 105.2211 36.2888 L 103.6141 34.1004 L 100.963 34.3227 Z " stroke-width="0.46609798474404573"/>
    <path id="ID0.521138689480722" fill="none" stroke="#212325" stroke-width="0.9060627949799468" stroke-linecap="round" d="M 104.7284 36.5318 L 101.5401 38.2174 L 93.0433 39.7281 "/>
    <path id="ID0.17828734638169408" fill="none" stroke="#202324" stroke-width="1.0160744968400084" stroke-linecap="round" d="M 97.1811 48.7938 L 94.0363 41.6486 C 92.9607 39.2616 93.1267 39.8252 92.9076 38.8627 C 92.8311 38.5266 93.0385 38.1836 93.0792 37.8408 C 93.119 37.5031 93.1724 37.1614 93.1491 36.8221 C 93.1258 36.4792 93.0163 36.1466 92.9398 35.812 C 92.8204 35.2897 92.5608 34.2481 92.5608 34.2481 "/>
    <path id="ID0.521138689480722" fill="none" stroke="#212325" stroke-width="1.0160744968400084" stroke-linecap="round" d="M 79.6235 37.0788 L 83.3095 38.7431 L 92.9248 39.8418 "/>
    <path id="ID0.8012696979567409" fill="none" stroke="url(#grad_1)" stroke-width="1.0160744968400084" stroke-linecap="round" d="M 105.1492 45.1405 L 97.8063 49.2826 L 79.1485 47.5248 L 81.2489 51.3225 L 81.7431 57.4065 L 83.7848 60.9518 L 86.7921 64.4925 "/>
    <path id="ID0.043594349175691605" fill="#D7E2FD" stroke="none" stroke-linecap="round" d="M 88.4633 42.4982 L 88.6571 41.374 L 89.2288 43.4147 L 86.6162 42.759 L 88.4633 42.4982 Z " stroke-width="0.5080372484200042"/>
    <path id="ID0.043594349175691605" fill="#D7E2FD" stroke="none" stroke-linecap="round" d="M 98.4848 41.9538 L 98.1886 40.9599 L 97.8926 42.8637 L 100.1803 41.9899 L 98.4848 41.9538 Z " stroke-width="0.4618643019112854"/>
  </g>
  <g id="ID0.4107501800172031">
    <g id="ID0.12414784263819456">
      <path id="ID0.05466862628236413" fill="#292D2E" stroke="none" stroke-linecap="round" d="M 130.4939 211.2118 L 157.1252 208.8097 L 151.2251 227.368 L 149.3775 232.315 L 147.7962 250.3886 L 142.3795 290.7794 L 126.626 291.7997 L 125.652 269.5718 L 123.3982 260.8012 L 122.5842 251.3166 L 125.4004 237.9425 L 126.076 225.6399 L 130.4939 211.2118 Z " stroke-width="0.73058893904612"/>
      <path id="ID0.4490455654449761" fill="none" stroke="#272A2B" stroke-width="1.6585521964136851" stroke-linecap="round" d="M 130.2661 211.5257 L 156.9084 208.7373 L 148.7944 232.7376 "/>
      <path id="ID0.10446935473009944" fill="none" stroke="#242728" stroke-width="1.6585521964136851" stroke-linecap="round" d="M 147.7799 245.0328 L 146.6925 261.836 L 135.7585 268.5841 "/>
      <path id="ID0.42170455446466804" fill="none" stroke="#242728" stroke-width="1.6585521964136851" stroke-linecap="round" d="M 145.5277 262.9378 L 143.2473 277.8979 L 132.0829 284.8273 "/>
      <path id="ID0.047098892275244" fill="none" stroke="#242728" stroke-width="1.6585521964136851" stroke-linecap="round" d="M 126.5309 225.5774 L 125.8425 229.457 L 129.8468 238.5453 "/>
    </g>
    <path id="ID0.5368814701214433" fill="#292D2E" stroke="none" stroke-linecap="round" d="M 121.3029 297.4385 L 123.2245 288.3506 L 126.6979 278.6764 L 137.2438 283.4329 L 149.2623 289.8183 L 167.731 298.2321 L 169.5007 304.5948 L 145.0714 308.4105 L 123.556 307.0392 L 121.3029 297.4385 Z " stroke-width="0.7702164790851229"/>
  </g>
  <g id="ID0.7397577832452953">
    <path id="ID0.6726378230378032" fill="#393C40" stroke="none" stroke-linecap="round" d="M 31.2069 136.0537 L 49.683 134.2038 L 50.3227 136.5455 L 32.0877 138.0278 L 31.2069 136.0537 Z " stroke-width="0.8164596103734705"/>
    <path id="ID0.6507829907350242" fill="#1D1E1F" stroke="none" stroke-linecap="round" d="M 29.0638 138.9104 L 50.4703 136.4081 L 61.005 152.2046 L 65.409 162.0751 L 74.6421 175.2951 L 78.8842 180.2994 L 70.1798 188.8684 L 66.2724 183.6304 L 59.1564 176.6498 L 49.6842 168.0783 L 42.685 161.2651 L 29.0638 138.9104 Z " stroke-width="0.8164596103734705"/>
    <path id="ID0.6829322893172503" fill="#1D1E1F" stroke="none" stroke-linecap="round" d="M 69.6113 188.7675 L 75.2239 178.6233 L 81.057 181.2715 L 87.7932 183.787 L 91.0657 188.4725 L 93.2518 192.672 L 93.3315 196.3509 L 96.0169 202.6913 L 92.0512 205.212 L 89.8784 204.2399 L 88.4228 205.0075 L 84.226 204.7021 L 79.628 204.1788 L 75.3834 201.6661 L 71.9621 195.3416 L 69.6113 188.7675 Z " stroke-width="0.8164596103734705"/>
    <path id="ID0.47767175547778606" fill="none" stroke="#0D0D0D" stroke-width="1.632919220746941" stroke-linecap="round" d="M 31.3312 142.1568 L 29.2279 138.6463 L 50.4033 136.4548 L 58.1532 148.1215 "/>
    <path id="ID0.5922487881034613" fill="#282A2B" stroke="none" stroke-linecap="round" d="M 47.5913 167.1509 L 50.1556 158.4884 L 55.2226 155.0491 L 63.7225 156.3825 L 71.1297 169.4834 L 71.6052 178.3632 L 68.7604 180.3501 L 59.5327 177.832 L 47.5913 167.1509 Z " stroke-width="0.8164596103734705"/>
    <path id="ID0.36820242274552584" fill="#151616" stroke="none" stroke-linecap="round" d="M 54.5071 165.9816 L 61.4217 161.0526 L 65.8045 172.0334 L 64.5195 172.8314 L 54.5071 165.9816 Z " stroke-width="0.8164596103734705"/>
    <path id="ID0.13569410238415003" fill="none" stroke="#232425" stroke-width="1.632919220746941" stroke-linecap="round" d="M 60.1843 175.4838 L 68.9839 178.1017 L 69.0603 169.0854 "/>
    <path id="ID0.024502143263816833" fill="none" stroke="#0D0D0D" stroke-width="1.632919220746941" stroke-linecap="round" d="M 47.9598 166.8925 L 50.1086 158.9185 L 54.9217 155.2582 L 63.4886 156.5449 L 67.661 164.0874 "/>
  </g>
  <g id="ID0.5524204187095165">
    <path id="ID0.5368814701214433" fill="#303436" stroke="none" stroke-linecap="round" d="M 56.8448 313.4445 L 59.6518 304.59 L 64.0608 295.3047 L 74.0871 301.0763 L 85.4186 308.6139 L 102.9693 318.8051 L 104.104 325.3111 L 79.4177 326.7032 L 58.1418 323.2204 L 56.8448 313.4445 Z " stroke-width="0.7702165175001954"/>
    <g id="ID0.7049301471561193">
      <path id="ID0.05466862628236413" fill="#303436" stroke="none" stroke-linecap="round" d="M 74.0648 230.8585 L 100.802 231.2089 L 93.024 249.0617 L 90.6772 253.7924 L 87.245 271.6074 L 77.7019 311.2267 L 61.927 310.621 L 63.2449 288.4108 L 61.9053 279.4548 L 62.0713 269.9369 L 66.2484 256.9234 L 68.1861 244.7556 L 74.0648 230.8585 Z " stroke-width="0.7305889466754005"/>
      <path id="ID0.4490455654449761" fill="none" stroke="#272A2B" stroke-width="1.6585521968573858" stroke-linecap="round" d="M 73.9484 231.7318 L 100.7362 231.6989 L 90.1962 254.7372 "/>
      <path id="ID0.10446935473009944" fill="none" stroke="#242728" stroke-width="1.6585521968573858" stroke-linecap="round" d="M 87.9223 266.8628 L 85.112 283.4649 L 73.5418 289.0524 "/>
      <path id="ID0.42170455446466804" fill="none" stroke="#242728" stroke-width="1.6585521968573858" stroke-linecap="round" d="M 83.84 284.4411 L 80.0327 299.0873 L 68.2147 304.8314 "/>
      <path id="ID0.047098892275244" fill="none" stroke="#242728" stroke-width="1.6585521968573858" stroke-linecap="round" d="M 68.6376 245.212 L 67.5537 249.0001 L 70.6019 258.4522 "/>
    </g>
  </g>
</svg>