<svg xmlns="http://www.w3.org/2000/svg" xmlns:xlink="http://www.w3.org/1999/xlink" version="1.1" width="257.76121520996094" height="313.0054016113281" viewBox="-0.7555999904870987 -0.774681568145752 257.76121520996094 313.0054016113281">
  <!-- Exported by Scratch - http://scratch.mit.edu/ -->
  <g id="ID0.6660797297954559">
    <path id="ID0.5368814701214433" fill="#343434" stroke="none" stroke-linecap="round" d="M 202.4028 295.2277 L 205.2862 286.3977 L 209.7751 277.1508 L 219.7512 283.0088 L 231.0173 290.6439 L 248.4793 300.9862 L 249.5578 307.5018 L 224.8604 308.6807 L 203.6154 305.0144 L 202.4028 295.2277 Z " stroke-width="0.7702165290554439"/>
    <g id="ID0.5077062323689461">
      <path id="ID0.05466862628236413" fill="#C3C3C3" stroke="none" stroke-linecap="round" d="M 203.5016 222.8762 L 225.1943 219.4959 L 223.4584 234.1791 L 222.7161 239.1923 L 222.7096 253.6768 L 225.2103 286.928 L 203.9664 289.6982 L 202.6291 270.9496 L 200.3173 263.883 L 199.1475 256.1551 L 200.7457 245.0478 L 200.6469 234.9319 L 203.5016 222.8762 Z " stroke-width="0.5998532736063101"/>
      <path id="ID0.5319394422695041" fill="none" stroke="#BDBDBD" stroke-width="2" stroke-linecap="round" d="M 225.25 285.95 L 204 289.95 L 203 278.45 "/>
    </g>
    <g id="ID0.8820344842970371">
      <path id="ID0.3809091211296618" fill="#C3C3C3" stroke="none" stroke-linecap="round" d="M 192.2785 149.2533 L 223.9936 129.7371 L 225.2562 153.9649 L 229.2446 202.4411 L 228.762 213.1936 L 224.7609 224.4764 L 216.6676 222.2924 L 203.7144 223.5829 L 203.0531 201.821 L 201.3148 188.5181 L 192.2785 149.2533 Z " stroke-width="0.7305889665074583"/>
      <path id="ID0.9495224836282432" fill="none" stroke="#BDBDBD" stroke-width="2" stroke-linecap="round" d="M 229.25 202.45 L 229.25 210.95 L 227.25 218.95 L 218.75 223.45 L 217.75 228.45 "/>
    </g>
  </g>
  <g id="ID0.18228224432095885">
    <path id="ID0.5368814701214433" fill="#404040" stroke="none" stroke-linecap="round" d="M 164.0899 296.3519 L 167.1637 287.5863 L 171.8516 278.4387 L 181.6987 284.5112 L 192.7969 292.3883 L 210.031 303.1061 L 210.9682 309.6434 L 186.2511 310.2877 L 165.0904 306.1625 L 164.0899 296.3519 Z " stroke-width="0.7702165249851639"/>
    <g id="ID0.5077062323689461">
      <path id="ID0.05466862628236413" fill="#CCCCCC" stroke="none" stroke-linecap="round" d="M 168.0416 223.5183 L 189.8698 221.166 L 187.4424 235.751 L 186.4643 240.7235 L 185.7739 255.1916 L 186.7018 288.5237 L 165.3508 290.2878 L 164.9002 271.497 L 162.9247 264.3291 L 162.121 256.5545 L 164.2419 245.5351 L 164.6209 235.4258 L 168.0416 223.5183 Z " stroke-width="0.5998532668114317"/>
      <path id="ID0.5319394422695041" fill="none" stroke="#BDBDBD" stroke-width="1.9999999924153835" stroke-linecap="round" d="M 186.7982 287.5754 L 165.3831 290.5676 L 164.9272 279.0332 "/>
    </g>
    <g id="ID0.8820344842970371">
      <path id="ID0.3809091211296618" fill="#CCCCCC" stroke="none" stroke-linecap="round" d="M 165.4568 146.8903 L 192.9669 131.4434 L 193.0842 155.7037 L 194.7793 204.3142 L 193.7895 215.0319 L 189.2602 226.1132 L 181.279 223.5495 L 167.7327 225.565 L 165.8396 202.4526 L 164.9217 189.3958 L 165.4568 146.8903 Z " stroke-width="0.7305889820079058"/>
      <path id="ID0.9495224836282432" fill="none" stroke="#BDBDBD" stroke-width="1.9999999924153835" stroke-linecap="round" d="M 194.7363 204.3574 L 194.335 212.8479 L 191.9595 220.7446 L 183.2565 224.8382 L 182.0215 229.7854 "/>
    </g>
  </g>
  <g id="ID0.2886172877624631">
    <g id="ID0.6660797297954559">
      <path id="ID0.5368814701214433" fill="#404040" stroke="none" stroke-linecap="round" d="M 66.8528 297.7277 L 69.7362 288.8977 L 74.2251 279.6508 L 84.2012 285.5088 L 95.4673 293.1439 L 112.9293 303.4862 L 114.0078 310.0018 L 89.3104 311.1807 L 68.0654 307.5144 L 66.8528 297.7277 Z " stroke-width="0.7702165290554439"/>
      <g id="ID0.5077062323689461">
        <path id="ID0.05466862628236413" fill="#CCCCCC" stroke="none" stroke-linecap="round" d="M 68.0016 225.3762 L 89.6943 221.9959 L 87.9584 236.6791 L 87.2161 241.6923 L 87.2096 256.1768 L 89.7103 289.428 L 68.4664 292.1982 L 67.1291 273.4496 L 64.8173 266.383 L 63.6475 258.6551 L 65.2457 247.5478 L 65.1469 237.4319 L 68.0016 225.3762 Z " stroke-width="0.5998532736063101"/>
        <path id="ID0.5319394422695041" fill="none" stroke="#BDBDBD" stroke-width="2" stroke-linecap="round" d="M 89.75 288.45 L 68.5 292.45 L 67.5 280.95 "/>
      </g>
      <g id="ID0.8820344842970371">
        <path id="ID0.3809091211296618" fill="#CCCCCC" stroke="none" stroke-linecap="round" d="M 56.7785 151.7533 L 88.4936 132.2371 L 89.7562 156.4649 L 93.7446 204.9411 L 93.262 215.6936 L 89.2609 226.9764 L 81.1676 224.7924 L 68.2144 226.0829 L 67.5531 204.321 L 65.8148 191.0181 L 56.7785 151.7533 Z " stroke-width="0.7305889665074583"/>
        <path id="ID0.9495224836282432" fill="none" stroke="#BDBDBD" stroke-width="2" stroke-linecap="round" d="M 93.75 204.95 L 93.75 213.45 L 91.75 221.45 L 83.25 225.95 L 82.25 230.95 "/>
      </g>
    </g>
    <g id="ID0.6660797297954559">
      <path id="ID0.5368814701214433" fill="#404040" stroke="none" stroke-linecap="round" d="M 54.9472 297.7777 L 52.0638 288.9477 L 47.5749 279.7008 L 37.5988 285.5588 L 26.3327 293.1939 L 8.8707 303.5362 L 7.7922 310.0518 L 32.4896 311.2307 L 53.7346 307.5644 L 54.9472 297.7777 Z " stroke-width="0.7702165290554439"/>
      <g id="ID0.5077062323689461">
        <path id="ID0.05466862628236413" fill="#CCCCCC" stroke="none" stroke-linecap="round" d="M 53.7484 225.4262 L 32.0557 222.0459 L 33.7916 236.7291 L 34.5339 241.7423 L 34.5404 256.2268 L 32.0397 289.478 L 53.2836 292.2482 L 54.6209 273.4996 L 56.9327 266.433 L 58.1025 258.7051 L 56.5043 247.5978 L 56.6031 237.4819 L 53.7484 225.4262 Z " stroke-width="0.5998532736063101"/>
        <path id="ID0.5319394422695041" fill="none" stroke="#BDBDBD" stroke-width="2" stroke-linecap="round" d="M 32 288.5 L 53.25 292.5 L 54.25 281 "/>
      </g>
      <g id="ID0.8820344842970371">
        <path id="ID0.3809091211296618" fill="#CCCCCC" stroke="none" stroke-linecap="round" d="M 64.9715 151.8033 L 33.2564 132.2871 L 31.9938 156.5149 L 28.0054 204.9911 L 28.488 215.7436 L 32.4891 227.0264 L 40.5824 224.8424 L 53.5356 226.1329 L 54.1969 204.371 L 55.9352 191.0681 L 64.9715 151.8033 Z " stroke-width="0.7305889665074583"/>
        <path id="ID0.9495224836282432" fill="none" stroke="#BDBDBD" stroke-width="2" stroke-linecap="round" d="M 28 205 L 28 213.5 L 30 221.5 L 38.5 226 L 39.5 231 "/>
      </g>
    </g>
    <g id="ID0.3117931908927858">
      <path id="ID0.7729651997797191" fill="#E4E4E4" stroke="none" stroke-linecap="round" d="M 10.7596 74.7182 L 34.4915 76.1565 L 30.1766 96.053 L 26.8206 112.1139 L 22.266 118.826 L 18.1908 122.9011 L 3.3284 118.826 L 1.6504 111.8742 L 8.1227 88.3821 L 10.7596 74.7182 Z " stroke-width="0.9588636755943298"/>
      <path id="ID0.4757494777441025" fill="#E4E4E4" stroke="none" stroke-linecap="round" d="M 21.1953 59.9922 L 30.0108 57.8496 L 46.4173 62.73 L 37.9692 88.2036 L 27.3172 93.2031 L 22.6646 94.2745 L 19.3588 91.8938 L 16.4203 88.9179 L 10.5434 86.2991 L 10.4209 80.8234 L 11.1555 72.729 L 14.4613 64.3965 L 21.1953 59.9922 Z " stroke-width="0.48299249213559925"/>
      <path id="ID0.6829322893172503" fill="#1D1E1F" stroke="none" stroke-linecap="round" d="M 7.572 175.1462 L 17.9818 170.0433 L 21.2477 175.5544 L 25.33 181.4738 L 25.33 187.189 L 24.7176 191.8836 L 22.6765 194.9453 L 21.2477 201.6811 L 16.553 201.477 L 15.3283 199.4359 L 13.6954 199.2317 L 10.4296 196.5783 L 6.9596 193.5165 L 4.9185 189.026 L 5.7349 181.882 L 7.572 175.1462 Z " stroke-width="0.816459596157074"/>
      <g id="ID0.9434720128774643">
        <path id="ID0.6507829907350242" fill="#E4E4E4" stroke="none" stroke-linecap="round" d="M 1.8773 110.1041 L 20.86 120.3099 L 20.4518 139.2925 L 18.4106 149.9065 L 18.4106 166.0316 L 20.7375 173.0123 L 6.0004 175.5025 L 6.7761 168.0727 L 4.939 158.2752 L 2.0814 145.8242 L 0.2444 136.2308 L 1.8773 110.1041 Z " stroke-width="0.816459596157074"/>
        <path id="ID0.9892375003546476" fill="none" stroke="#CCCCCC" stroke-width="2" stroke-linecap="round" d="M 6.5 174.75 L 20 172 L 17.5 163.5 "/>
      </g>
    </g>
    <g id="ID0.04046707320958376">
      <path id="ID0.7729651997797191" fill="#E4E4E4" stroke="none" stroke-linecap="round" d="M 110.4904 74.2182 L 86.7585 75.6565 L 91.0734 95.553 L 94.4294 111.6139 L 98.984 118.326 L 103.0592 122.4011 L 117.9216 118.326 L 119.5996 111.3742 L 113.1273 87.8821 L 110.4904 74.2182 Z " stroke-width="0.9588636755943298"/>
      <path id="ID0.4757494777441025" fill="#E4E4E4" stroke="none" stroke-linecap="round" d="M 100.0547 59.4922 L 91.2392 57.3496 L 74.8327 62.23 L 83.2808 87.7036 L 93.9328 92.7031 L 98.5854 93.7745 L 101.8912 91.3938 L 104.8297 88.4179 L 110.7066 85.7991 L 110.8291 80.3234 L 110.0945 72.229 L 106.7887 63.8965 L 100.0547 59.4922 Z " stroke-width="0.48299249213559925"/>
      <path id="ID0.6829322893172503" fill="#1D1E1F" stroke="none" stroke-linecap="round" d="M 113.678 174.6462 L 103.2682 169.5433 L 100.0023 175.0544 L 95.92 180.9738 L 95.92 186.689 L 96.5324 191.3836 L 98.5735 194.4453 L 100.0023 201.1811 L 104.697 200.977 L 105.9217 198.9359 L 107.5546 198.7317 L 110.8204 196.0783 L 114.2904 193.0165 L 116.3315 188.526 L 115.5151 181.382 L 113.678 174.6462 Z " stroke-width="0.816459596157074"/>
      <g id="ID0.9434720128774643">
        <path id="ID0.6507829907350242" fill="#E4E4E4" stroke="none" stroke-linecap="round" d="M 119.3727 109.6041 L 100.39 119.8099 L 100.7982 138.7925 L 102.8394 149.4065 L 102.8394 165.5316 L 100.5125 172.5123 L 115.2496 175.0025 L 114.4739 167.5727 L 116.311 157.7752 L 119.1686 145.3242 L 121.0056 135.7308 L 119.3727 109.6041 Z " stroke-width="0.816459596157074"/>
        <path id="ID0.9892375003546476" fill="none" stroke="#CCCCCC" stroke-width="2" stroke-linecap="round" d="M 114.75 174.25 L 101.25 171.5 L 103.75 163 "/>
      </g>
    </g>
    <g id="ID0.8990198895335197">
      <path id="ID0.17576928716152906" fill="#DBDBDB" stroke="none" d="M 62.75 54.5 L 62.5 54.5 L 62.5 54.5 L 62.75 54.5 L 62.75 54.5 Z " stroke-width="1"/>
      <path id="ID0.4270821204409003" fill="#CCCCCC" stroke="none" stroke-linecap="round" d="M 60.5901 176.5011 L 60.3361 63.7448 L 77.6913 66.2245 L 84.505 70.6522 L 87.2772 74.7578 L 94.0615 86.3286 L 93.13 96.7866 L 92.0642 102.2413 L 93.587 109.1785 L 93.9494 114.6629 L 91.6639 121.521 L 89.9366 126.7238 L 88.5537 135.9818 L 89.5985 157.9108 L 84.2868 166.0158 L 79.3736 172.1287 L 60.5901 176.5011 Z " stroke-width="0.47614257300029306"/>
      <path id="ID0.4270821204409003" fill="#CCCCCC" stroke="none" stroke-linecap="round" d="M 60.7099 176.6511 L 60.9639 63.8948 L 43.6087 66.3745 L 36.795 70.8022 L 34.0228 74.9078 L 27.2385 86.4786 L 28.17 96.9366 L 29.2358 102.3913 L 27.713 109.3285 L 27.3506 114.8129 L 29.6361 121.671 L 31.3634 126.8738 L 32.7463 136.1318 L 31.7015 158.0608 L 37.0132 166.1658 L 41.9264 172.2787 L 60.7099 176.6511 Z " stroke-width="0.47614257300029306"/>
      <path id="ID0.5114514343440533" fill="#DBDBDB" stroke="none" d="M 34.4326 65.0777 L 87.4326 65.0777 L 87.4326 153.3277 L 34.4326 153.3277 L 34.4326 65.0777 Z " stroke-width="1.0073066040733152"/>
      <path id="ID0.9286923445761204" fill="#27282B" stroke="none" stroke-linecap="round" d="M 49.063 31.1601 L 67.8707 32.6361 L 60.7523 51.5152 L 62.0141 91.9873 L 24.0656 62.9426 L 43.9445 52.3484 L 49.063 31.1601 Z " stroke-width="0.4761425852775574"/>
      <path id="ID0.9286923445761204" fill="#27282B" stroke="none" stroke-linecap="round" d="M 71.987 31.4101 L 53.1793 32.8861 L 60.2977 51.7652 L 61.5118 91.7611 L 96.9844 63.1926 L 77.1055 52.5984 L 71.987 31.4101 Z " stroke-width="0.4761425852775574"/>
      <path id="ID0.39874776685610414" fill="#1F2022" stroke="none" stroke-linecap="round" d="M 42.2977 53.064 L 62.1674 62.9348 L 80.0354 53.9738 L 84.0386 56.1117 L 61.9721 66.7102 L 38.5386 55.02 L 42.2977 53.064 Z " stroke-width="0.943659350131214"/>
      <path id="ID0.13444371055811644" fill="#E1E1E1" stroke="none" stroke-linecap="round" d="M 59.75 64.75 L 65 64.5 L 67.8 93 L 55.75 93.5 L 59.75 64.75 Z " stroke-width="1"/>
      <path id="ID0.751046194229275" fill="#D5D5D5" stroke="none" stroke-linecap="round" d="M 57.465 59.735 L 62.14 57.7 L 66.65 59.735 L 67.09 67.71 L 62.69 68.7 L 57.465 67.71 L 57.465 59.735 Z " stroke-width="1.100000023841858"/>
      <path id="ID0.7854711129330099" fill="#DBDBDB" stroke="none" stroke-linecap="round" d="M 48.5 81.5 L 62.5 90.25 L 76.25 80.5 L 74.25 98 L 51 98 L 48.5 81.5 Z " stroke-width="1"/>
      <path id="ID0.562834897544235" fill="#DBDBDB" stroke="none" stroke-linecap="round" d="M 31.75 153 L 62 147.25 L 62 167.5 L 48.25 168.75 L 31.75 153 Z " stroke-width="1"/>
      <path id="ID0.562834897544235" fill="#DBDBDB" stroke="none" stroke-linecap="round" d="M 92.7 153.25 L 62.45 147.5 L 62.45 167.75 L 76.2 169 L 92.7 153.25 Z " stroke-width="1"/>
      <path id="ID0.6824178956449032" fill="none" stroke="#CCCCCC" stroke-width="2" stroke-linecap="round" d="M 62.25 90.5 L 62 167.25 "/>
      <path id="ID0.4144489667378366" fill="#EAEAEA" stroke="none" stroke-linecap="round" d="M 23.5 60 L 43.75 52 L 40.75 73.75 L 44 133.75 L 34.5 178.5 L 23.5 173.5 L 23.25 177 L 26.25 129 L 21.5 85.75 L 20.5 69.5 L 23.5 60 Z " stroke-width="1"/>
      <path id="ID0.5234400681219995" fill="#B4B4B4" stroke="none" d="M 64.4662 96.2125 C 64.8789 96.2125 65.2531 96.3801 65.524 96.651 C 65.7949 96.9219 65.9625 97.2961 65.9625 97.7087 C 65.9625 98.1214 65.7949 98.4956 65.524 98.7665 C 65.2531 99.0374 64.8789 99.205 64.4662 99.205 C 64.0536 99.205 63.6794 99.0374 63.4085 98.7665 C 63.1376 98.4956 62.97 98.1214 62.97 97.7087 C 62.97 97.2961 63.1376 96.9219 63.4085 96.651 C 63.6794 96.3801 64.0536 96.2125 64.4662 96.2125 Z " stroke-width="0.6299999952316284"/>
      <path id="ID0.5234400681219995" fill="#B4B4B4" stroke="none" d="M 64.4662 109.8625 C 64.8789 109.8625 65.2531 110.0301 65.524 110.301 C 65.7949 110.5719 65.9625 110.9461 65.9625 111.3587 C 65.9625 111.7714 65.7949 112.1456 65.524 112.4165 C 65.2531 112.6874 64.8789 112.855 64.4662 112.855 C 64.0536 112.855 63.6794 112.6874 63.4085 112.4165 C 63.1376 112.1456 62.97 111.7714 62.97 111.3587 C 62.97 110.9461 63.1376 110.5719 63.4085 110.301 C 63.6794 110.0301 64.0536 109.8625 64.4662 109.8625 Z " stroke-width="0.6299999952316284"/>
      <path id="ID0.5234400681219995" fill="#B4B4B4" stroke="none" d="M 64.4662 141.4125 C 64.8789 141.4125 65.2531 141.5801 65.524 141.851 C 65.7949 142.1219 65.9625 142.4961 65.9625 142.9087 C 65.9625 143.3214 65.7949 143.6956 65.524 143.9665 C 65.2531 144.2374 64.8789 144.405 64.4662 144.405 C 64.0536 144.405 63.6794 144.2374 63.4085 143.9665 C 63.1376 143.6956 62.97 143.3214 62.97 142.9087 C 62.97 142.4961 63.1376 142.1219 63.4085 141.851 C 63.6794 141.5801 64.0536 141.4125 64.4662 141.4125 Z " stroke-width="0.6299999952316284"/>
      <path id="ID0.5234400681219995" fill="#B4B4B4" stroke="none" d="M 64.4662 126.5625 C 64.8789 126.5625 65.2531 126.7301 65.524 127.001 C 65.7949 127.2719 65.9625 127.6461 65.9625 128.0587 C 65.9625 128.4714 65.7949 128.8456 65.524 129.1165 C 65.2531 129.3874 64.8789 129.555 64.4662 129.555 C 64.0536 129.555 63.6794 129.3874 63.4085 129.1165 C 63.1376 128.8456 62.97 128.4714 62.97 128.0587 C 62.97 127.6461 63.1376 127.2719 63.4085 127.001 C 63.6794 126.7301 64.0536 126.5625 64.4662 126.5625 Z " stroke-width="0.6299999952316284"/>
      <path id="ID0.5234400681219995" fill="#B4B4B4" stroke="none" d="M 64.3662 155.4125 C 64.7789 155.4125 65.1531 155.5801 65.424 155.851 C 65.6949 156.1219 65.8625 156.4961 65.8625 156.9087 C 65.8625 157.3214 65.6949 157.6956 65.424 157.9665 C 65.1531 158.2374 64.7789 158.405 64.3662 158.405 C 63.9536 158.405 63.5794 158.2374 63.3085 157.9665 C 63.0376 157.6956 62.87 157.3214 62.87 156.9087 C 62.87 156.4961 63.0376 156.1219 63.3085 155.851 C 63.5794 155.5801 63.9536 155.4125 64.3662 155.4125 Z " stroke-width="0.6299999952316284"/>
      <path id="ID0.4144489667378366" fill="#EAEAEA" stroke="none" stroke-linecap="round" d="M 97.05 59.15 L 76.8 51.15 L 79.8 72.9 L 76.55 132.9 L 86.05 177.65 L 97.05 172.65 L 97.3 176.15 L 94.3 128.15 L 99.05 84.9 L 100.05 68.65 L 97.05 59.15 Z " stroke-width="1"/>
      <path id="ID0.8752945330925286" fill="none" stroke="#D5D5D5" stroke-width="2" stroke-linecap="round" d="M 24 60.25 L 20.75 68 L 24 105.75 "/>
      <path id="ID0.8752945330925286" fill="none" stroke="#D5D5D5" stroke-width="2" stroke-linecap="round" d="M 97.25 59.75 L 100.5 67.5 L 97.25 105.25 "/>
      <path id="ID0.5234400681219995" fill="#B4B4B4" stroke="none" d="M 41.3662 141.9625 C 41.7789 141.9625 42.1531 142.1301 42.424 142.401 C 42.6949 142.6719 42.8625 143.0461 42.8625 143.4587 C 42.8625 143.8714 42.6949 144.2456 42.424 144.5165 C 42.1531 144.7874 41.7789 144.955 41.3662 144.955 C 40.9536 144.955 40.5794 144.7874 40.3085 144.5165 C 40.0376 144.2456 39.87 143.8714 39.87 143.4587 C 39.87 143.0461 40.0376 142.6719 40.3085 142.401 C 40.5794 142.1301 40.9536 141.9625 41.3662 141.9625 Z " stroke-width="0.6299999952316284"/>
      <path id="ID0.5234400681219995" fill="#B4B4B4" stroke="none" d="M 39.9662 149.2125 C 40.3789 149.2125 40.7531 149.3801 41.024 149.651 C 41.2949 149.9219 41.4625 150.2961 41.4625 150.7087 C 41.4625 151.1214 41.2949 151.4956 41.024 151.7665 C 40.7531 152.0374 40.3789 152.205 39.9662 152.205 C 39.5536 152.205 39.1794 152.0374 38.9085 151.7665 C 38.6376 151.4956 38.47 151.1214 38.47 150.7087 C 38.47 150.2961 38.6376 149.9219 38.9085 149.651 C 39.1794 149.3801 39.5536 149.2125 39.9662 149.2125 Z " stroke-width="0.6299999952316284"/>
      <g id="ID0.20783481979742646">
        <path id="ID0.5848579816520214" fill="#737373" stroke="none" stroke-linecap="round" d="M 86.4 87.6 L 93.25 86.1 L 93.15 90 L 85.9 90.5 L 86.4 87.6 Z " stroke-width="1"/>
        <path id="ID0.13105127029120922" fill="none" stroke="#D5D5D5" stroke-width="2" stroke-linecap="round" d="M 84.55 90.75 L 89.05 90.75 L 94.3 89.25 "/>
      </g>
    </g>
    <g id="ID0.9062871215865016">
      <path id="ID0.3245162623934448" fill="#54595E" stroke="none" stroke-linecap="round" d="M 61.45 5.2 C 64.706 5.2 67.656 7.828 69.792 12.073 C 71.928 16.318 72.685 23.039 73.25 28.65 C 73.827 34.379 75.729 40.617 73.4 45.85 C 71.605 49.882 66.659 52.953 62.15 53.2 C 57.892 53.437 52.753 50.967 50.75 47.1 C 47.92 41.635 49.236 34.851 49.65 28.65 C 50.026 23.024 50.972 16.318 53.108 12.073 C 55.244 7.828 58.194 5.2 61.45 5.2 Z " stroke-width="1"/>
      <path id="ID0.8999492498114705" fill="#54595E" stroke="none" stroke-linecap="round" d="M 66.4733 1.5124 C 70.724 2.7597 75.6093 4.7019 77.7416 8.5848 C 80.1745 13.0179 77.9529 18.6353 78.5265 23.612 C 78.7241 25.3063 80.6597 26.7974 80.3046 28.4892 C 79.6701 31.5003 77.0232 33.6189 75.9101 36.3892 C 74.8066 39.0152 74.9941 42.133 73.7001 44.5686 C 72.4722 46.8801 70.7947 49.2664 68.4419 50.411 C 66.6303 51.2909 64.0164 51.5378 62.4471 50.3094 C 61.1994 49.333 62.3424 47.1164 61.9645 45.5593 C 61.6363 43.6379 60.3408 41.9049 60.3387 39.92 C 60.3352 34.3956 62.2002 28.9596 62.2185 23.4342 C 62.2383 17.3581 62.5731 11.1108 60.5928 5.4243 C 59.8353 3.2489 53.6194 2.6768 54.6995 2.0205 C 56.3735 0.8449 62.7072 0.4074 66.4733 1.5124 Z " stroke-width="0.508037269115448"/>
      <path id="ID0.8999492498114705" fill="#54595E" stroke="none" stroke-linecap="round" d="M 55.6767 1.3624 C 51.4229 2.599 46.5407 4.5519 44.4084 8.4348 C 41.9755 12.8679 44.2352 18.4889 43.6235 23.462 C 43.402 25.2574 41.7768 26.8379 42.0232 28.6186 C 42.3595 31.043 44.2184 32.907 45.0714 35.1215 C 46.3613 38.1748 46.8602 41.5919 48.4499 44.4186 C 49.7327 46.7002 51.3553 49.1164 53.7081 50.261 C 55.5197 51.1409 58.1336 51.3878 59.7029 50.1594 C 60.9506 49.183 59.8076 46.9664 60.1855 45.4093 C 60.5137 43.4879 61.8092 41.7549 61.8113 39.77 C 61.8148 34.2456 59.9498 28.8096 59.9315 23.2842 C 59.9117 17.2081 60.0362 11.0995 61.5572 5.2743 C 61.9672 3.7085 66.6056 3.0455 65.6977 2.4039 C 63.6651 1.0896 58.8016 0.4551 55.6767 1.3624 Z " stroke-width="0.508037269115448"/>
      <path id="ID0.45774566335603595" fill="#54595E" stroke="none" stroke-linecap="round" d="M 61.525 37.1 C 63.629 37.1 65.169 38.364 66.915 39.166 C 68.507 39.898 71.512 40.036 71.5 41.85 C 71.512 44.682 69.027 47.126 66.915 49.134 C 65.522 50.458 63.629 51.2 61.525 51.2 C 59.421 51.2 57.618 50.357 56.135 49.134 C 54.083 47.443 51.455 45.452 51.5 42.85 C 51.455 40.858 54.379 40.141 56.135 39.166 C 57.815 38.232 59.421 37.1 61.525 37.1 Z " stroke-width="1"/>
      <path id="ID0.6934182443656027" fill="#54595E" stroke="none" stroke-linecap="round" d="M 47.65 31.5 L 60.9 35.6 L 75 31.1 L 72 37.85 L 71.5 42.35 L 51.65 43 L 50.5 36.85 L 47.65 31.5 Z " stroke-width="1"/>
      <path id="ID0.33607587683945894" fill="#393E40" stroke="none" stroke-linecap="round" d="M 73.8 30.05 L 74.3 28.6 L 76.3 26.05 L 76.3 22.7 L 75.8 20.85 L 73.9 20.65 L 73.45 19.05 L 75.15 5.7 L 67.55 31.9 L 77 34.8 L 71.9 31.2 L 73.8 30.05 Z " stroke-width="1"/>
      <path id="ID0.33607587683945894" fill="#393E40" stroke="none" stroke-linecap="round" d="M 48.2 29.9 L 47.7 28.45 L 45.7 25.9 L 45.7 22.55 L 46.2 20.7 L 48.1 20.5 L 48.55 18.9 L 46.85 5.55 L 54.45 31.75 L 45 34.65 L 50.1 31.05 L 48.2 29.9 Z " stroke-width="1"/>
      <path id="ID0.30865650391206145" fill="#393E40" stroke="none" stroke-linecap="round" d="M 76.6967 35.8 L 65.2967 29.5 L 68.939 43.9 L 69.8378 33.6 L 76.6967 35.8 Z " stroke-width="0.9734027733091273"/>
      <path id="ID0.30865650391206145" fill="#393E40" stroke="none" stroke-linecap="round" d="M 45.25 35.15 L 57.3 28.85 L 53.45 43.25 L 52.5 32.95 L 45.25 35.15 Z " stroke-width="1"/>
      <path id="ID0.6236958587542176" fill="#788087" stroke="none" stroke-linecap="round" d="M 53.5 28.2 L 69.25 28.15 L 68.55 35.75 L 69.05 42.7 L 66.3 53.25 L 56.7 53.3 L 53.15 43.3 L 54.05 35.7 L 53.5 28.2 Z " stroke-width="1"/>
      <path id="ID0.44800941413268447" fill="none" stroke="#44494C" stroke-width="1.0503597259521484" stroke-linecap="round" d="M 52.9122 31.0079 L 45.4809 34.7892 L 42.9863 30.7453 "/>
      <path id="ID0.6043254472315311" fill="#788087" stroke="none" stroke-linecap="round" d="M 46.45 5.55 L 51.2 2.7 L 55.95 8.3 L 62.45 9.4 L 61.2 28.7 L 58.55 31.55 L 53.2 31.2 L 48.9 29.25 L 48.05 25.2 L 49.55 18.7 L 46.45 5.55 Z " stroke-width="1"/>
      <path id="ID0.3483780794776976" fill="#6E767C" stroke="none" stroke-linecap="round" d="M 54.2 17.35 L 58 18.85 L 59.5 22 L 59 24.1 L 54.2 24.05 L 54.2 17.35 Z " stroke-width="1"/>
      <path id="ID0.44800941413268447" fill="none" stroke="#5E656A" stroke-width="1.0503597259521484" stroke-linecap="round" d="M 49.1622 4.4079 L 54.1777 16.6971 L 54.0464 23.0518 "/>
      <path id="ID0.44800941413268447" fill="none" stroke="#44494C" stroke-width="1.0503597259521484" stroke-linecap="round" d="M 69.1878 31.2579 L 76.2777 35.1968 L 78.9824 31.1266 "/>
      <path id="ID0.6043254472315311" fill="#788087" stroke="none" stroke-linecap="round" d="M 75.65 5.55 L 70.9 2.7 L 66.15 8.3 L 59.65 9.4 L 60.9 28.7 L 63.55 31.55 L 68.9 31.2 L 73.4 29.2 L 74.05 25.2 L 72.55 18.7 L 75.65 5.55 Z " stroke-width="1"/>
      <path id="ID0.44800941413268447" fill="none" stroke="#5E656A" stroke-width="1.0503597259521484" stroke-linecap="round" d="M 72.9378 4.5079 L 67.9223 16.7971 L 68.0536 23.1518 "/>
      <path id="ID0.3483780794776976" fill="#6E767C" stroke="none" stroke-linecap="round" d="M 67.55 17.35 L 63.75 18.85 L 62.25 22 L 62.75 24.1 L 67.55 24.05 L 67.55 17.35 Z " stroke-width="1"/>
      <path id="ID0.9914007503539324" fill="#646B70" stroke="none" d="M 58.65 36 L 57.35 24.2 L 64.9 24.3 L 63.4 36 L 58.65 36 Z " stroke-width="1"/>
      <path id="ID0.28340246016159654" fill="#1C1D1F" stroke="none" stroke-linecap="round" d="M 47.3319 21.9412 L 54.1522 22.0345 L 58.5953 24.3057 L 59.4726 27.7279 L 58.0859 29.9368 L 54.5767 30.3101 L 51.8316 29.8123 L 49.7374 29.0345 L 47.6149 27.2923 L 46.7093 25.3012 L 47.3319 21.9412 Z " stroke-width="0.5947752382560764"/>
      <path id="ID0.28340246016159654" fill="#1C1D1F" stroke="none" stroke-linecap="round" d="M 74.8681 21.9912 L 68.0478 22.0845 L 63.6047 24.3557 L 62.7274 27.7779 L 64.1141 29.9868 L 67.6233 30.3601 L 70.3684 29.8623 L 72.4626 29.0845 L 74.5851 27.3423 L 75.4907 25.3512 L 74.8681 21.9912 Z " stroke-width="0.5947752382560764"/>
      <g id="ID0.13833451084792614">
        <path id="ID0.17377300979569554" fill="#FFFFFF" stroke="none" stroke-linecap="round" d="M 49.9752 24.386 L 50.8822 23.5554 L 53.1694 23.3713 L 55.4218 23.9769 L 55.874 25.9276 L 53.2367 25.7957 L 49.9752 24.386 Z " stroke-width="0.9999999760882085"/>
        <path id="ID0.2692581438459456" fill="#7AABFF" stroke="none" d="M 52.9243 23.4857 C 53.243 23.3948 53.568 23.4424 53.8363 23.5917 C 54.1047 23.741 54.3165 23.992 54.4073 24.3107 C 54.4982 24.6294 54.4506 24.9543 54.3014 25.2227 C 54.1521 25.4911 53.9011 25.7028 53.5824 25.7937 C 53.2636 25.8846 52.9387 25.837 52.6704 25.6877 C 52.402 25.5384 52.1902 25.2875 52.0993 24.9687 C 52.0085 24.65 52.056 24.3251 52.2053 24.0567 C 52.3546 23.7884 52.6056 23.5766 52.9243 23.4857 Z " stroke-width="1.1428571810382073"/>
        <path id="ID0.8070062398910522" fill="#192334" stroke="none" d="M 53.1674 24.103 C 53.2999 24.0652 53.4359 24.0842 53.5474 24.1471 C 53.6597 24.2087 53.7476 24.3142 53.7853 24.4467 C 53.8231 24.5792 53.8041 24.7152 53.7412 24.8267 C 53.6796 24.939 53.5741 25.0269 53.4416 25.0646 C 53.3091 25.1024 53.1731 25.0834 53.0616 25.0205 C 52.9493 24.9589 52.8615 24.8534 52.8237 24.7209 C 52.7859 24.5884 52.8049 24.4524 52.8678 24.3409 C 52.9294 24.2286 53.0349 24.1407 53.1674 24.103 Z " stroke-width="1.111111214644622"/>
      </g>
      <g id="ID0.17617406602948904">
        <path id="ID0.17377300979569554" fill="#FFFFFF" stroke="none" stroke-linecap="round" d="M 72.1248 24.536 L 71.2178 23.7054 L 68.9306 23.5213 L 66.6782 24.1269 L 66.226 26.0776 L 68.8633 25.9457 L 72.1248 24.536 Z " stroke-width="0.9999999760882085"/>
        <path id="ID0.2692581438459456" fill="#7AABFF" stroke="none" d="M 69.2257 23.5857 C 68.907 23.4948 68.582 23.5424 68.3137 23.6917 C 68.0453 23.841 67.8335 24.092 67.7427 24.4107 C 67.6518 24.7294 67.6994 25.0543 67.8486 25.3227 C 67.9979 25.5911 68.2489 25.8028 68.5676 25.8937 C 68.8864 25.9846 69.2113 25.937 69.4796 25.7877 C 69.748 25.6384 69.9598 25.3875 70.0507 25.0687 C 70.1415 24.75 70.094 24.4251 69.9447 24.1567 C 69.7954 23.8884 69.5444 23.6766 69.2257 23.5857 Z " stroke-width="1.1428571810382073"/>
        <path id="ID0.8070062398910522" fill="#192334" stroke="none" d="M 68.9826 24.103 C 68.8501 24.0652 68.7141 24.0842 68.6026 24.1471 C 68.4903 24.2087 68.4024 24.3142 68.3647 24.4467 C 68.3269 24.5792 68.3459 24.7152 68.4088 24.8267 C 68.4704 24.939 68.5759 25.0269 68.7084 25.0646 C 68.8409 25.1024 68.9769 25.0834 69.0884 25.0205 C 69.2007 24.9589 69.2885 24.8534 69.3263 24.7209 C 69.3641 24.5884 69.3451 24.4524 69.2822 24.3409 C 69.2206 24.2286 69.1151 24.1407 68.9826 24.103 Z " stroke-width="1.111111214644622"/>
      </g>
      <path id="ID0.44800941413268447" fill="none" stroke="#646B70" stroke-width="1.0503597259521484" stroke-linecap="round" d="M 60.0489 28.6198 L 58.4209 24.3133 L 54.0356 21.8712 L 47.4709 22.0025 "/>
      <path id="ID0.44800941413268447" fill="none" stroke="#646B70" stroke-width="1.0503597259521484" stroke-linecap="round" d="M 61.7511 28.6198 L 63.3791 24.3133 L 67.7644 21.8712 L 74.3291 22.0025 "/>
      <path id="ID0.12448931112885475" fill="#646B70" stroke="none" stroke-linecap="round" d="M 58.55 34.2 L 63.35 34.3 L 64.3 37.45 L 61.2 38.95 L 57.7 37.4 L 58.55 34.2 Z " stroke-width="1"/>
      <path id="ID0.6563427890650928" fill="#788087" stroke="none" stroke-linecap="round" d="M 58.4 38.1 L 59.9 36.6 L 60.15 39.35 L 58.6 39.35 L 58.4 38.1 Z " stroke-width="1"/>
      <path id="ID0.6563427890650928" fill="#788087" stroke="none" stroke-linecap="round" d="M 63.9 38.2 L 62.4 36.7 L 62.15 39.45 L 63.7 39.45 L 63.9 38.2 Z " stroke-width="1"/>
      <path id="ID0.44800941413268447" fill="none" stroke="#646B70" stroke-width="1.050359732381415" stroke-linecap="round" d="M 58.7597 24.7596 L 59.5619 22.1918 L 58.1169 18.8273 "/>
      <path id="ID0.44800941413268447" fill="none" stroke="#646B70" stroke-width="1.050359732381415" stroke-linecap="round" d="M 62.7903 24.7596 L 61.9881 22.1918 L 63.4331 18.8273 "/>
      <path id="ID0.8357716267928481" fill="#6E767C" stroke="none" stroke-linecap="round" d="M 56.7 13.8 L 55.1 7.4 L 61.1 6.55 L 66.85 7.6 L 65.2 13.8 L 61.1 14.4 L 56.7 13.8 Z " stroke-width="1"/>
      <path id="ID0.6231065075844526" fill="#646B70" stroke="none" stroke-linecap="round" d="M 59.85 53.25 L 61.45 51.1 L 63 53.25 L 59.85 53.25 Z " stroke-width="1"/>
      <path id="ID0.13564336113631725" fill="#646B70" stroke="none" stroke-linecap="round" d="M 59.2 25 L 60.85 22.5 L 62.4 25 L 59.2 25 Z " stroke-width="1"/>
      <g id="ID0.27998464927077293">
        <path id="ID0.4195562661625445" fill="none" stroke="#000000" stroke-width="0.7023809552192688" stroke-linecap="round" d="M 58.7426 27.8548 L 55.3009 27.9426 L 49.0497 26.3798 "/>
        <path id="ID0.4195562661625445" fill="none" stroke="#000000" stroke-width="0.7023809552192688" stroke-linecap="round" d="M 58.2426 29.0048 L 55.2399 29.1804 L 50.4813 27.8634 "/>
      </g>
      <g id="ID0.27998464927077293">
        <path id="ID0.4195562661625445" fill="none" stroke="#000000" stroke-width="0.7023809552192688" stroke-linecap="round" d="M 63.2074 27.8548 L 66.6491 27.9426 L 72.9003 26.3798 "/>
        <path id="ID0.4195562661625445" fill="none" stroke="#000000" stroke-width="0.7023809552192688" stroke-linecap="round" d="M 63.7074 29.0048 L 66.7101 29.1804 L 71.4687 27.8634 "/>
      </g>
      <g id="ID0.32985211815685034">
        <g id="ID0.08651347272098064">
          <g id="ID0.07771636918187141">
            <path id="ID0.7001032647676766" fill="none" stroke="#646B70" stroke-width="0.5238094925880432" stroke-linecap="round" d="M 53.4429 40.2429 C 53.4429 40.2429 53.3784 40.6108 53.3381 40.7929 C 53.3001 40.9641 53.1445 41.1396 53.2071 41.3036 C 53.2718 41.4733 53.4798 41.5618 53.6524 41.6179 C 53.8184 41.6715 54.0018 41.6158 54.1762 41.6179 C 54.3506 41.62 54.6157 41.7836 54.7 41.631 C 54.9022 41.2656 54.8571 40.3869 54.8571 40.3869 "/>
            <path id="ID0.7001032647676766" fill="none" stroke="#646B70" stroke-width="0.5238094925880432" stroke-linecap="round" d="M 54.9429 40.2929 C 54.9429 40.2929 54.8784 40.6608 54.8381 40.8429 C 54.8001 41.0141 54.6445 41.1896 54.7071 41.3536 C 54.7718 41.5233 54.9798 41.6118 55.1524 41.6679 C 55.3184 41.7215 55.5018 41.6658 55.6762 41.6679 C 55.8506 41.67 56.1157 41.8336 56.2 41.681 C 56.4022 41.3156 56.3571 40.4369 56.3571 40.4369 "/>
          </g>
          <g id="ID0.07771636918187141">
            <path id="ID0.7001032647676766" fill="none" stroke="#646B70" stroke-width="0.5238094925880432" stroke-linecap="round" d="M 56.5929 40.4429 C 56.5929 40.4429 56.5284 40.8108 56.4881 40.9929 C 56.4501 41.1641 56.2945 41.3396 56.3571 41.5036 C 56.4218 41.6733 56.6298 41.7618 56.8024 41.8179 C 56.9684 41.8715 57.1518 41.8158 57.3262 41.8179 C 57.5006 41.82 57.7657 41.9836 57.85 41.831 C 58.0522 41.4656 58.0071 40.5869 58.0071 40.5869 "/>
            <path id="ID0.7001032647676766" fill="none" stroke="#646B70" stroke-width="0.5238094925880432" stroke-linecap="round" d="M 58.0929 40.5429 C 58.0929 40.5429 58.0284 40.9108 57.9881 41.0929 C 57.9501 41.2641 57.7945 41.4396 57.8571 41.6036 C 57.9218 41.7733 58.1298 41.8618 58.3024 41.9179 C 58.4684 41.9715 58.6518 41.9158 58.8262 41.9179 C 59.0006 41.92 59.2657 42.0836 59.35 41.931 C 59.5522 41.5656 59.5071 40.6869 59.5071 40.6869 "/>
          </g>
          <path id="ID0.7001032647676766" fill="none" stroke="#646B70" stroke-width="0.5238095049857807" stroke-linecap="round" d="M 59.6408 40.6626 C 59.6408 40.6626 59.6153 41.0353 59.5942 41.2206 C 59.5744 41.3949 59.4381 41.5857 59.5175 41.7422 C 59.5996 41.9042 59.8157 41.9705 59.9932 42.0081 C 60.164 42.0441 60.3405 41.9694 60.5142 41.9532 C 60.6879 41.937 60.9686 42.072 61.0365 41.9113 C 61.1992 41.5268 61.0624 40.6577 61.0624 40.6577 "/>
        </g>
        <g id="ID0.08651347272098064">
          <g id="ID0.07771636918187141">
            <path id="ID0.7001032647676766" fill="none" stroke="#646B70" stroke-width="0.5238094925880432" stroke-linecap="round" d="M 68.7571 40.2429 C 68.7571 40.2429 68.8216 40.6108 68.8619 40.7929 C 68.8999 40.9641 69.0555 41.1396 68.9929 41.3036 C 68.9282 41.4733 68.7202 41.5618 68.5476 41.6179 C 68.3816 41.6715 68.1982 41.6158 68.0238 41.6179 C 67.8494 41.62 67.5843 41.7836 67.5 41.631 C 67.2978 41.2656 67.3429 40.3869 67.3429 40.3869 "/>
            <path id="ID0.7001032647676766" fill="none" stroke="#646B70" stroke-width="0.5238094925880432" stroke-linecap="round" d="M 67.2571 40.2929 C 67.2571 40.2929 67.3216 40.6608 67.3619 40.8429 C 67.3999 41.0141 67.5555 41.1896 67.4929 41.3536 C 67.4282 41.5233 67.2202 41.6118 67.0476 41.6679 C 66.8816 41.7215 66.6982 41.6658 66.5238 41.6679 C 66.3494 41.67 66.0843 41.8336 66 41.681 C 65.7978 41.3156 65.8429 40.4369 65.8429 40.4369 "/>
          </g>
          <g id="ID0.07771636918187141">
            <path id="ID0.7001032647676766" fill="none" stroke="#646B70" stroke-width="0.5238094925880432" stroke-linecap="round" d="M 65.5571 40.4429 C 65.5571 40.4429 65.6216 40.8108 65.6619 40.9929 C 65.6999 41.1641 65.8555 41.3396 65.7929 41.5036 C 65.7282 41.6733 65.5202 41.7618 65.3476 41.8179 C 65.1816 41.8715 64.9982 41.8158 64.8238 41.8179 C 64.6494 41.82 64.3843 41.9836 64.3 41.831 C 64.0978 41.4656 64.1429 40.5869 64.1429 40.5869 "/>
            <path id="ID0.7001032647676766" fill="none" stroke="#646B70" stroke-width="0.5238094925880432" stroke-linecap="round" d="M 64.0571 40.5429 C 64.0571 40.5429 64.1216 40.9108 64.1619 41.0929 C 64.1999 41.2641 64.3555 41.4396 64.2929 41.6036 C 64.2282 41.7733 64.0202 41.8618 63.8476 41.9179 C 63.6816 41.9715 63.4982 41.9158 63.3238 41.9179 C 63.1494 41.92 62.8843 42.0836 62.8 41.931 C 62.5978 41.5656 62.6429 40.6869 62.6429 40.6869 "/>
          </g>
          <path id="ID0.7001032647676766" fill="none" stroke="#646B70" stroke-width="0.5238095049857807" stroke-linecap="round" d="M 62.6092 40.6626 C 62.6092 40.6626 62.6347 41.0353 62.6558 41.2206 C 62.6756 41.3949 62.8119 41.5857 62.7325 41.7422 C 62.6504 41.9042 62.4343 41.9705 62.2568 42.0081 C 62.086 42.0441 61.9095 41.9694 61.7358 41.9532 C 61.5621 41.937 61.2814 42.072 61.2135 41.9113 C 61.0508 41.5268 61.1876 40.6577 61.1876 40.6577 "/>
        </g>
      </g>
      <path id="ID0.7001032647676766" fill="none" stroke="#646B70" stroke-width="0.523809552192688" stroke-linecap="round" d="M 53.1929 43.3571 C 53.1929 43.3571 53.1284 42.9892 53.0881 42.8071 C 53.0501 42.6359 52.8946 42.4604 52.9571 42.2964 C 53.0218 42.1267 53.2298 42.0382 53.4024 41.9821 C 53.5684 41.9285 53.7518 41.9842 53.9262 41.9821 C 54.1006 41.98 54.3657 41.8164 54.45 41.969 C 54.6522 42.3344 54.6071 43.2131 54.6071 43.2131 "/>
      <path id="ID0.7001032647676766" fill="none" stroke="#646B70" stroke-width="0.523809552192688" stroke-linecap="round" d="M 54.6929 43.3571 C 54.6929 43.3571 54.6284 42.9892 54.5881 42.8071 C 54.5501 42.6359 54.3946 42.4604 54.4571 42.2964 C 54.5218 42.1267 54.7298 42.0382 54.9024 41.9821 C 55.0684 41.9285 55.2518 41.9842 55.4262 41.9821 C 55.6006 41.98 55.8657 41.8164 55.95 41.969 C 56.1522 42.3344 56.1071 43.2131 56.1071 43.2131 "/>
      <g id="ID0.07771636918187141">
        <path id="ID0.7001032647676766" fill="none" stroke="#646B70" stroke-width="0.523809552192688" stroke-linecap="round" d="M 56.3429 43.4571 C 56.3429 43.4571 56.2784 43.0892 56.2381 42.9071 C 56.2001 42.7359 56.0446 42.5604 56.1071 42.3964 C 56.1718 42.2267 56.3798 42.1382 56.5524 42.0821 C 56.7184 42.0285 56.9018 42.0842 57.0762 42.0821 C 57.2506 42.08 57.5157 41.9164 57.6 42.069 C 57.8022 42.4344 57.7571 43.3131 57.7571 43.3131 "/>
        <path id="ID0.7001032647676766" fill="none" stroke="#646B70" stroke-width="0.523809552192688" stroke-linecap="round" d="M 57.7929 43.3571 C 57.7929 43.3571 57.7284 42.9892 57.6881 42.8071 C 57.6501 42.6359 57.4946 42.4604 57.5571 42.2964 C 57.6218 42.1267 57.8298 42.0382 58.0024 41.9821 C 58.1684 41.9285 58.3518 41.9842 58.5262 41.9821 C 58.7006 41.98 58.9657 41.8164 59.05 41.969 C 59.2522 42.3344 59.2071 43.2131 59.2071 43.2131 "/>
      </g>
      <path id="ID0.7001032647676766" fill="none" stroke="#646B70" stroke-width="0.5238095646525897" stroke-linecap="round" d="M 59.4908 43.7373 C 59.4908 43.7373 59.4653 43.3646 59.4442 43.1794 C 59.4244 43.0051 59.2881 42.8143 59.3675 42.6578 C 59.4496 42.4958 59.6657 42.4295 59.8432 42.3919 C 60.014 42.3559 60.1905 42.4306 60.3642 42.4468 C 60.5379 42.463 60.8186 42.328 60.8865 42.4887 C 61.0493 42.8732 60.9124 43.7423 60.9124 43.7423 "/>
      <path id="ID0.7001032647676766" fill="none" stroke="#646B70" stroke-width="0.523809552192688" stroke-linecap="round" d="M 68.8071 43.2071 C 68.8071 43.2071 68.8716 42.8392 68.9119 42.6571 C 68.9499 42.4859 69.1054 42.3104 69.0429 42.1464 C 68.9782 41.9767 68.7702 41.8882 68.5976 41.8321 C 68.4316 41.7785 68.2482 41.8342 68.0738 41.8321 C 67.8994 41.83 67.6343 41.6664 67.55 41.819 C 67.3478 42.1844 67.3929 43.0631 67.3929 43.0631 "/>
      <path id="ID0.7001032647676766" fill="none" stroke="#646B70" stroke-width="0.523809552192688" stroke-linecap="round" d="M 67.3071 43.2071 C 67.3071 43.2071 67.3716 42.8392 67.4119 42.6571 C 67.4499 42.4859 67.6054 42.3104 67.5429 42.1464 C 67.4782 41.9767 67.2702 41.8882 67.0976 41.8321 C 66.9316 41.7785 66.7482 41.8342 66.5738 41.8321 C 66.3994 41.83 66.1343 41.6664 66.05 41.819 C 65.8478 42.1844 65.8929 43.0631 65.8929 43.0631 "/>
      <path id="ID0.7001032647676766" fill="none" stroke="#646B70" stroke-width="0.523809552192688" stroke-linecap="round" d="M 65.5071 43.3571 C 65.5071 43.3571 65.5716 42.9892 65.6119 42.8071 C 65.6499 42.6359 65.8054 42.4604 65.7429 42.2964 C 65.6782 42.1267 65.4702 42.0382 65.2976 41.9821 C 65.1316 41.9285 64.9482 41.9842 64.7738 41.9821 C 64.5994 41.98 64.3343 41.8164 64.25 41.969 C 64.0478 42.3344 64.0929 43.2131 64.0929 43.2131 "/>
      <path id="ID0.7001032647676766" fill="none" stroke="#646B70" stroke-width="0.523809552192688" stroke-linecap="round" d="M 64.0071 43.4571 C 64.0071 43.4571 64.0716 43.0892 64.1119 42.9071 C 64.1499 42.7359 64.3054 42.5604 64.2429 42.3964 C 64.1782 42.2267 63.9702 42.1382 63.7976 42.0821 C 63.6316 42.0285 63.4482 42.0842 63.2738 42.0821 C 63.0994 42.08 62.8343 41.9164 62.75 42.069 C 62.5478 42.4344 62.5929 43.3131 62.5929 43.3131 "/>
      <path id="ID0.7001032647676766" fill="none" stroke="#646B70" stroke-width="0.5238095646525897" stroke-linecap="round" d="M 62.5592 43.7373 C 62.5592 43.7373 62.5847 43.3646 62.6058 43.1794 C 62.6256 43.0051 62.7619 42.8143 62.6825 42.6578 C 62.6004 42.4958 62.3843 42.4295 62.2068 42.3919 C 62.036 42.3559 61.8595 42.4306 61.6858 42.4468 C 61.5121 42.463 61.2314 42.328 61.1635 42.4887 C 61.0007 42.8732 61.1376 43.7423 61.1376 43.7423 "/>
      <path id="ID0.44800941413268447" fill="none" stroke="#565D61" stroke-width="0.5720708966255188" stroke-linecap="round" d="M 63.3504 34.6985 L 61.0478 33.4542 L 58.8597 34.441 "/>
    </g>
  </g>
  <g id="ID0.3117931908927858">
    <path id="ID0.7729651997797191" fill="#E4E4E4" stroke="none" stroke-linecap="round" d="M 145.7596 72.2182 L 169.4915 73.6565 L 165.1766 93.553 L 161.8206 109.6139 L 157.266 116.326 L 153.1908 120.4011 L 138.3284 116.326 L 136.6504 109.3742 L 143.1227 85.8821 L 145.7596 72.2182 Z " stroke-width="0.9588636755943298"/>
    <path id="ID0.4757494777441025" fill="#E4E4E4" stroke="none" stroke-linecap="round" d="M 156.1953 57.4922 L 165.0108 55.3496 L 181.4173 60.23 L 172.9692 85.7036 L 162.3172 90.7031 L 157.6646 91.7745 L 154.3588 89.3938 L 151.4203 86.4179 L 145.5434 83.7991 L 145.4209 78.3234 L 146.1555 70.229 L 149.4613 61.8965 L 156.1953 57.4922 Z " stroke-width="0.48299249213559925"/>
    <path id="ID0.6829322893172503" fill="#1D1E1F" stroke="none" stroke-linecap="round" d="M 142.572 172.6462 L 152.9818 167.5433 L 156.2477 173.0544 L 160.33 178.9738 L 160.33 184.689 L 159.7176 189.3836 L 157.6765 192.4453 L 156.2477 199.1811 L 151.553 198.977 L 150.3283 196.9359 L 148.6954 196.7317 L 145.4296 194.0783 L 141.9596 191.0165 L 139.9185 186.526 L 140.7349 179.382 L 142.572 172.6462 Z " stroke-width="0.816459596157074"/>
    <g id="ID0.9434720128774643">
      <path id="ID0.6507829907350242" fill="#E4E4E4" stroke="none" stroke-linecap="round" d="M 136.8773 107.6041 L 155.86 117.8099 L 155.4518 136.7925 L 153.4106 147.4065 L 153.4106 163.5316 L 155.7375 170.5123 L 141.0004 173.0025 L 141.7761 165.5727 L 139.939 155.7752 L 137.0814 143.3242 L 135.2444 133.7308 L 136.8773 107.6041 Z " stroke-width="0.816459596157074"/>
      <path id="ID0.9892375003546476" fill="none" stroke="#CCCCCC" stroke-width="2" stroke-linecap="round" d="M 141.5 172.25 L 155 169.5 L 152.5 161 "/>
    </g>
  </g>
  <g id="ID0.04046707320958376">
    <path id="ID0.7729651997797191" fill="#E4E4E4" stroke="none" stroke-linecap="round" d="M 245.4904 71.7182 L 221.7585 73.1565 L 226.0734 93.053 L 229.4294 109.1139 L 233.984 115.826 L 238.0592 119.9011 L 252.9216 115.826 L 254.5996 108.8742 L 248.1273 85.3821 L 245.4904 71.7182 Z " stroke-width="0.9588636755943298"/>
    <path id="ID0.4757494777441025" fill="#E4E4E4" stroke="none" stroke-linecap="round" d="M 235.0547 56.9922 L 226.2392 54.8496 L 209.8327 59.73 L 218.2808 85.2036 L 228.9328 90.2031 L 233.5854 91.2745 L 236.8912 88.8938 L 239.8297 85.9179 L 245.7066 83.2991 L 245.8291 77.8234 L 245.0945 69.729 L 241.7887 61.3965 L 235.0547 56.9922 Z " stroke-width="0.48299249213559925"/>
    <path id="ID0.6829322893172503" fill="#1D1E1F" stroke="none" stroke-linecap="round" d="M 248.678 172.1462 L 238.2682 167.0433 L 235.0023 172.5544 L 230.92 178.4738 L 230.92 184.189 L 231.5324 188.8836 L 233.5735 191.9453 L 235.0023 198.6811 L 239.697 198.477 L 240.9217 196.4359 L 242.5546 196.2317 L 245.8204 193.5783 L 249.2904 190.5165 L 251.3315 186.026 L 250.5151 178.882 L 248.678 172.1462 Z " stroke-width="0.816459596157074"/>
    <g id="ID0.9434720128774643">
      <path id="ID0.6507829907350242" fill="#E4E4E4" stroke="none" stroke-linecap="round" d="M 254.3727 107.1041 L 235.39 117.3099 L 235.7982 136.2925 L 237.8394 146.9065 L 237.8394 163.0316 L 235.5125 170.0123 L 250.2496 172.5025 L 249.4739 165.0727 L 251.311 155.2752 L 254.1686 142.8242 L 256.0056 133.2308 L 254.3727 107.1041 Z " stroke-width="0.816459596157074"/>
      <path id="ID0.9892375003546476" fill="none" stroke="#CCCCCC" stroke-width="2" stroke-linecap="round" d="M 249.75 171.75 L 236.25 169 L 238.75 160.5 "/>
    </g>
  </g>
  <g id="ID0.8990198895335197">
    <path id="ID0.17576928716152906" fill="#DBDBDB" stroke="none" d="M 197.75 52 L 197.5 52 L 197.5 52 L 197.75 52 L 197.75 52 Z " stroke-width="1"/>
    <path id="ID0.4270821204409003" fill="#CCCCCC" stroke="none" stroke-linecap="round" d="M 195.5901 174.0011 L 195.3361 61.2448 L 212.6913 63.7245 L 219.505 68.1522 L 222.2772 72.2578 L 229.0615 83.8286 L 228.13 94.2866 L 227.0642 99.7413 L 228.587 106.6785 L 228.9494 112.1629 L 226.6639 119.021 L 224.9366 124.2238 L 223.5537 133.4818 L 224.5985 155.4108 L 219.2868 163.5158 L 214.3736 169.6287 L 195.5901 174.0011 Z " stroke-width="0.47614257300029306"/>
    <path id="ID0.4270821204409003" fill="#CCCCCC" stroke="none" stroke-linecap="round" d="M 195.7099 174.1511 L 195.9639 61.3948 L 178.6087 63.8745 L 171.795 68.3022 L 169.0228 72.4078 L 162.2385 83.9786 L 163.17 94.4366 L 164.2358 99.8913 L 162.713 106.8285 L 162.3506 112.3129 L 164.6361 119.171 L 166.3634 124.3738 L 167.7463 133.6318 L 166.7015 155.5608 L 172.0132 163.6658 L 176.9264 169.7787 L 195.7099 174.1511 Z " stroke-width="0.47614257300029306"/>
    <path id="ID0.5114514343440533" fill="#DBDBDB" stroke="none" d="M 169.4326 62.5777 L 222.4326 62.5777 L 222.4326 150.8277 L 169.4326 150.8277 L 169.4326 62.5777 Z " stroke-width="1.0073066040733152"/>
    <path id="ID0.9286923445761204" fill="#27282B" stroke="none" stroke-linecap="round" d="M 184.063 28.6601 L 202.8707 30.1361 L 195.7523 49.0152 L 197.0141 89.4873 L 159.0656 60.4426 L 178.9445 49.8484 L 184.063 28.6601 Z " stroke-width="0.4761425852775574"/>
    <path id="ID0.9286923445761204" fill="#27282B" stroke="none" stroke-linecap="round" d="M 206.987 28.9101 L 188.1793 30.3861 L 195.2977 49.2652 L 196.5118 89.2611 L 231.9844 60.6926 L 212.1055 50.0984 L 206.987 28.9101 Z " stroke-width="0.4761425852775574"/>
    <path id="ID0.39874776685610414" fill="#1F2022" stroke="none" stroke-linecap="round" d="M 177.2977 50.564 L 197.1674 60.4348 L 215.0354 51.4738 L 219.0386 53.6117 L 196.9721 64.2102 L 173.5386 52.52 L 177.2977 50.564 Z " stroke-width="0.943659350131214"/>
    <path id="ID0.13444371055811644" fill="#E1E1E1" stroke="none" stroke-linecap="round" d="M 194.75 62.25 L 200 62 L 202.8 90.5 L 190.75 91 L 194.75 62.25 Z " stroke-width="1"/>
    <path id="ID0.751046194229275" fill="#D5D5D5" stroke="none" stroke-linecap="round" d="M 192.465 57.235 L 197.14 55.2 L 201.65 57.235 L 202.09 65.21 L 197.69 66.2 L 192.465 65.21 L 192.465 57.235 Z " stroke-width="1.100000023841858"/>
    <path id="ID0.7854711129330099" fill="#DBDBDB" stroke="none" stroke-linecap="round" d="M 183.5 79 L 197.5 87.75 L 211.25 78 L 209.25 95.5 L 186 95.5 L 183.5 79 Z " stroke-width="1"/>
    <path id="ID0.562834897544235" fill="#DBDBDB" stroke="none" stroke-linecap="round" d="M 166.75 150.5 L 197 144.75 L 197 165 L 183.25 166.25 L 166.75 150.5 Z " stroke-width="1"/>
    <path id="ID0.562834897544235" fill="#DBDBDB" stroke="none" stroke-linecap="round" d="M 227.7 150.75 L 197.45 145 L 197.45 165.25 L 211.2 166.5 L 227.7 150.75 Z " stroke-width="1"/>
    <path id="ID0.6824178956449032" fill="none" stroke="#CCCCCC" stroke-width="2" stroke-linecap="round" d="M 197.25 88 L 197 164.75 "/>
    <path id="ID0.4144489667378366" fill="#EAEAEA" stroke="none" stroke-linecap="round" d="M 158.5 57.5 L 178.75 49.5 L 175.75 71.25 L 179 131.25 L 169.5 176 L 158.5 171 L 158.25 174.5 L 161.25 126.5 L 156.5 83.25 L 155.5 67 L 158.5 57.5 Z " stroke-width="1"/>
    <path id="ID0.5234400681219995" fill="#B4B4B4" stroke="none" d="M 199.4662 93.7125 C 199.8789 93.7125 200.2531 93.8801 200.524 94.151 C 200.7949 94.4219 200.9625 94.7961 200.9625 95.2087 C 200.9625 95.6214 200.7949 95.9956 200.524 96.2665 C 200.2531 96.5374 199.8789 96.705 199.4662 96.705 C 199.0536 96.705 198.6794 96.5374 198.4085 96.2665 C 198.1376 95.9956 197.97 95.6214 197.97 95.2087 C 197.97 94.7961 198.1376 94.4219 198.4085 94.151 C 198.6794 93.8801 199.0536 93.7125 199.4662 93.7125 Z " stroke-width="0.6299999952316284"/>
    <path id="ID0.5234400681219995" fill="#B4B4B4" stroke="none" d="M 199.4662 107.3625 C 199.8789 107.3625 200.2531 107.5301 200.524 107.801 C 200.7949 108.0719 200.9625 108.4461 200.9625 108.8587 C 200.9625 109.2714 200.7949 109.6456 200.524 109.9165 C 200.2531 110.1874 199.8789 110.355 199.4662 110.355 C 199.0536 110.355 198.6794 110.1874 198.4085 109.9165 C 198.1376 109.6456 197.97 109.2714 197.97 108.8587 C 197.97 108.4461 198.1376 108.0719 198.4085 107.801 C 198.6794 107.5301 199.0536 107.3625 199.4662 107.3625 Z " stroke-width="0.6299999952316284"/>
    <path id="ID0.5234400681219995" fill="#B4B4B4" stroke="none" d="M 199.4662 138.9125 C 199.8789 138.9125 200.2531 139.0801 200.524 139.351 C 200.7949 139.6219 200.9625 139.9961 200.9625 140.4087 C 200.9625 140.8214 200.7949 141.1956 200.524 141.4665 C 200.2531 141.7374 199.8789 141.905 199.4662 141.905 C 199.0536 141.905 198.6794 141.7374 198.4085 141.4665 C 198.1376 141.1956 197.97 140.8214 197.97 140.4087 C 197.97 139.9961 198.1376 139.6219 198.4085 139.351 C 198.6794 139.0801 199.0536 138.9125 199.4662 138.9125 Z " stroke-width="0.6299999952316284"/>
    <path id="ID0.5234400681219995" fill="#B4B4B4" stroke="none" d="M 199.4662 124.0625 C 199.8789 124.0625 200.2531 124.2301 200.524 124.501 C 200.7949 124.7719 200.9625 125.1461 200.9625 125.5587 C 200.9625 125.9714 200.7949 126.3456 200.524 126.6165 C 200.2531 126.8874 199.8789 127.055 199.4662 127.055 C 199.0536 127.055 198.6794 126.8874 198.4085 126.6165 C 198.1376 126.3456 197.97 125.9714 197.97 125.5587 C 197.97 125.1461 198.1376 124.7719 198.4085 124.501 C 198.6794 124.2301 199.0536 124.0625 199.4662 124.0625 Z " stroke-width="0.6299999952316284"/>
    <path id="ID0.5234400681219995" fill="#B4B4B4" stroke="none" d="M 199.3662 152.9125 C 199.7789 152.9125 200.1531 153.0801 200.424 153.351 C 200.6949 153.6219 200.8625 153.9961 200.8625 154.4087 C 200.8625 154.8214 200.6949 155.1956 200.424 155.4665 C 200.1531 155.7374 199.7789 155.905 199.3662 155.905 C 198.9536 155.905 198.5794 155.7374 198.3085 155.4665 C 198.0376 155.1956 197.87 154.8214 197.87 154.4087 C 197.87 153.9961 198.0376 153.6219 198.3085 153.351 C 198.5794 153.0801 198.9536 152.9125 199.3662 152.9125 Z " stroke-width="0.6299999952316284"/>
    <path id="ID0.4144489667378366" fill="#EAEAEA" stroke="none" stroke-linecap="round" d="M 232.05 56.65 L 211.8 48.65 L 214.8 70.4 L 211.55 130.4 L 221.05 175.15 L 232.05 170.15 L 232.3 173.65 L 229.3 125.65 L 234.05 82.4 L 235.05 66.15 L 232.05 56.65 Z " stroke-width="1"/>
    <path id="ID0.8752945330925286" fill="none" stroke="#D5D5D5" stroke-width="2" stroke-linecap="round" d="M 159 57.75 L 155.75 65.5 L 159 103.25 "/>
    <path id="ID0.8752945330925286" fill="none" stroke="#D5D5D5" stroke-width="2" stroke-linecap="round" d="M 232.25 57.25 L 235.5 65 L 232.25 102.75 "/>
    <path id="ID0.5234400681219995" fill="#B4B4B4" stroke="none" d="M 176.3662 139.4625 C 176.7789 139.4625 177.1531 139.6301 177.424 139.901 C 177.6949 140.1719 177.8625 140.5461 177.8625 140.9587 C 177.8625 141.3714 177.6949 141.7456 177.424 142.0165 C 177.1531 142.2874 176.7789 142.455 176.3662 142.455 C 175.9536 142.455 175.5794 142.2874 175.3085 142.0165 C 175.0376 141.7456 174.87 141.3714 174.87 140.9587 C 174.87 140.5461 175.0376 140.1719 175.3085 139.901 C 175.5794 139.6301 175.9536 139.4625 176.3662 139.4625 Z " stroke-width="0.6299999952316284"/>
    <path id="ID0.5234400681219995" fill="#B4B4B4" stroke="none" d="M 174.9662 146.7125 C 175.3789 146.7125 175.7531 146.8801 176.024 147.151 C 176.2949 147.4219 176.4625 147.7961 176.4625 148.2087 C 176.4625 148.6214 176.2949 148.9956 176.024 149.2665 C 175.7531 149.5374 175.3789 149.705 174.9662 149.705 C 174.5536 149.705 174.1794 149.5374 173.9085 149.2665 C 173.6376 148.9956 173.47 148.6214 173.47 148.2087 C 173.47 147.7961 173.6376 147.4219 173.9085 147.151 C 174.1794 146.8801 174.5536 146.7125 174.9662 146.7125 Z " stroke-width="0.6299999952316284"/>
    <g id="ID0.20783481979742646">
      <path id="ID0.5848579816520214" fill="#737373" stroke="none" stroke-linecap="round" d="M 221.45 85.1 L 228.3 83.6 L 228.2 87.5 L 220.95 88 L 221.45 85.1 Z " stroke-width="1"/>
      <path id="ID0.13105127029120922" fill="none" stroke="#D5D5D5" stroke-width="2" stroke-linecap="round" d="M 219.6 88.25 L 224.1 88.25 L 229.35 86.75 "/>
    </g>
  </g>
  <g id="ID0.8653961070813239">
    <path id="ID0.3245162623934448" fill="#54595E" stroke="none" stroke-linecap="round" d="M 198.4 4.55 C 201.656 4.55 204.606 7.178 206.742 11.423 C 208.878 15.668 209.635 22.389 210.2 28 C 210.777 33.729 212.679 39.967 210.35 45.2 C 208.555 49.232 203.609 52.303 199.1 52.55 C 194.842 52.787 189.703 50.317 187.7 46.45 C 184.87 40.985 186.186 34.201 186.6 28 C 186.976 22.374 187.922 15.668 190.058 11.423 C 192.194 7.178 195.144 4.55 198.4 4.55 Z " stroke-width="1"/>
    <path id="ID0.8999492498114705" fill="#54595E" stroke="none" stroke-linecap="round" d="M 202.1233 0.8624 C 206.374 2.1097 211.2593 4.0519 213.3916 7.9348 C 215.8245 12.3679 213.3529 18.0193 214.1765 22.962 C 214.5021 24.9144 216.9768 26.4223 216.8691 28.4996 C 216.6867 31.1724 214.5758 33.3717 213.389 35.8662 C 212.0976 38.574 210.9621 41.4348 209.3501 43.9186 C 207.9261 46.1143 206.4447 48.6164 204.0919 49.761 C 202.2803 50.6409 199.6664 50.8878 198.0971 49.6594 C 196.8494 48.683 197.9924 46.4664 197.6145 44.9093 C 197.2863 42.9879 195.9908 41.2549 195.9887 39.27 C 195.9852 33.7456 197.8502 28.3096 197.8685 22.7842 C 197.8883 16.7081 198.2231 10.4608 196.2428 4.7743 C 195.4853 2.5989 189.2694 2.0268 190.3495 1.3705 C 192.0235 0.1949 198.3572 -0.2426 202.1233 0.8624 Z " stroke-width="0.508037269115448"/>
    <path id="ID0.8999492498114705" fill="#54595E" stroke="none" stroke-linecap="round" d="M 190.8918 1.2459 C 187.1095 2.3773 182.8953 4.3474 181.0105 7.8757 C 178.7147 12.1478 180.0249 17.5498 179.5118 22.3548 C 179.3223 24.1192 178.2585 25.9304 178.6481 27.613 C 179.2187 29.9413 181.3316 31.693 182.0012 33.9889 C 182.9233 37.1514 182.1683 40.7844 183.4999 43.7686 C 184.5668 46.1584 186.4053 48.4664 188.7581 49.611 C 190.5697 50.4909 193.1836 50.7378 194.7529 49.5094 C 196.0006 48.533 194.8576 46.3164 195.2355 44.7593 C 195.5637 42.8379 196.8592 41.1049 196.8613 39.12 C 196.8648 33.5956 194.9998 28.1596 194.9815 22.6342 C 194.9617 16.5581 195.0862 10.4495 196.6072 4.6243 C 197.0172 3.0585 201.7029 2.3534 200.7477 1.7539 C 198.8573 0.5783 194.0417 0.2272 190.8918 1.2459 Z " stroke-width="0.508037269115448"/>
    <path id="ID0.45774566335603595" fill="#54595E" stroke="none" stroke-linecap="round" d="M 198.775 36.45 C 200.879 36.45 202.419 37.714 204.165 38.516 C 205.757 39.248 208.762 39.386 208.75 41.2 C 208.762 44.032 206.277 46.476 204.165 48.484 C 202.772 49.808 200.879 50.55 198.775 50.55 C 196.671 50.55 194.868 49.707 193.385 48.484 C 191.333 46.793 188.705 44.802 188.75 42.2 C 188.705 40.208 191.629 39.491 193.385 38.516 C 195.065 37.582 196.671 36.45 198.775 36.45 Z " stroke-width="1"/>
    <path id="ID0.6934182443656027" fill="#54595E" stroke="none" stroke-linecap="round" d="M 184.6 30.85 L 197.85 34.95 L 211.95 30.45 L 208.95 37.2 L 208.45 41.7 L 188.6 42.35 L 187.45 36.2 L 184.6 30.85 Z " stroke-width="1"/>
    <path id="ID0.33607587683945894" fill="#393E40" stroke="none" stroke-linecap="round" d="M 211.15 29.4 L 211.65 27.95 L 213.65 25.4 L 213.65 22.05 L 213.15 20.2 L 211.25 20 L 210.8 18.4 L 212.45 6.65 L 204.9 31.25 L 214.35 34.15 L 209.25 30.55 L 211.15 29.4 Z " stroke-width="1"/>
    <path id="ID0.33607587683945894" fill="#393E40" stroke="none" stroke-linecap="round" d="M 185.35 29.25 L 184.85 27.8 L 182.85 25.25 L 182.85 21.9 L 183.35 20.05 L 185.25 19.85 L 185.7 18.25 L 184 4.9 L 191.6 31.1 L 182.15 34 L 187.25 30.4 L 185.35 29.25 Z " stroke-width="1"/>
    <path id="ID0.30865650391206145" fill="#393E40" stroke="none" stroke-linecap="round" d="M 214.0467 35.15 L 202.6467 28.85 L 206.289 43.25 L 207.1878 32.95 L 214.0467 35.15 Z " stroke-width="0.9734027733091273"/>
    <path id="ID0.30865650391206145" fill="#393E40" stroke="none" stroke-linecap="round" d="M 182.55 34.5 L 194.6 28.2 L 190.75 42.6 L 189.8 32.3 L 182.55 34.5 Z " stroke-width="1"/>
    <path id="ID0.6236958587542176" fill="#788087" stroke="none" stroke-linecap="round" d="M 191.05 27.55 L 206.8 27.5 L 206.1 35.1 L 206.6 42.05 L 203.85 52.6 L 194.25 52.65 L 190.7 42.65 L 191.6 35.05 L 191.05 27.55 Z " stroke-width="1"/>
    <path id="ID0.44800941413268447" fill="none" stroke="#44494C" stroke-width="1.0503597259521484" stroke-linecap="round" d="M 189.5122 30.3579 L 182.0809 34.1392 L 179.5863 30.0953 "/>
    <path id="ID0.6043254472315311" fill="#788087" stroke="none" stroke-linecap="round" d="M 183.75 4.9 L 188.5 2.05 L 193.25 7.65 L 199.75 8.75 L 198.5 28.05 L 195.85 30.9 L 190.5 30.55 L 186.2 28.6 L 185.35 24.55 L 186.85 18.05 L 183.75 4.9 Z " stroke-width="1"/>
    <path id="ID0.3483780794776976" fill="#6E767C" stroke="none" stroke-linecap="round" d="M 192.1 16.85 L 195.9 18.35 L 197.4 21.5 L 196.9 23.6 L 192.1 23.55 L 192.1 16.85 Z " stroke-width="1"/>
    <path id="ID0.44800941413268447" fill="none" stroke="#5E656A" stroke-width="1.0503597259521484" stroke-linecap="round" d="M 186.6622 3.7079 L 191.6777 15.9971 L 191.5464 22.3518 "/>
    <path id="ID0.44800941413268447" fill="none" stroke="#44494C" stroke-width="1.0503597259521484" stroke-linecap="round" d="M 206.5878 30.6079 L 213.6777 34.5468 L 216.3824 30.4766 "/>
    <path id="ID0.6043254472315311" fill="#788087" stroke="none" stroke-linecap="round" d="M 212.45 6.6 L 210.35 4.1 L 207.6 2.95 L 203.45 7.65 L 196.95 8.75 L 198.2 28.05 L 200.85 30.9 L 206.2 30.55 L 210.7 28.55 L 211.35 24.55 L 209.85 18.05 L 212.45 6.6 Z " stroke-width="1"/>
    <path id="ID0.3483780794776976" fill="#6E767C" stroke="none" stroke-linecap="round" d="M 206.1 16.85 L 202.3 18.35 L 200.8 21.5 L 201.3 23.6 L 206.1 23.55 L 206.1 16.85 Z " stroke-width="1"/>
    <path id="ID0.9914007503539324" fill="#646B70" stroke="none" d="M 196.55 35.2 L 194.9 23.45 L 201.35 23.75 L 201.65 35.15 L 196.55 35.2 Z " stroke-width="1"/>
    <path id="ID0.28340246016159654" fill="#1C1D1F" stroke="none" stroke-linecap="round" d="M 184.6819 21.5912 L 191.5022 21.6845 L 195.9453 23.9557 L 196.8226 27.3779 L 195.4359 29.5868 L 191.9267 29.9601 L 189.1816 29.4623 L 187.0874 28.6845 L 184.9649 26.9423 L 184.0593 24.9512 L 184.6819 21.5912 Z " stroke-width="0.5947752382560764"/>
    <path id="ID0.28340246016159654" fill="#1C1D1F" stroke="none" stroke-linecap="round" d="M 213.2181 21.5912 L 206.3978 21.6845 L 201.9547 23.9557 L 201.0774 27.3779 L 202.4641 29.5868 L 205.9733 29.9601 L 208.7184 29.4623 L 210.8126 28.6845 L 212.9351 26.9423 L 213.8407 24.9512 L 213.2181 21.5912 Z " stroke-width="0.5947752382560764"/>
    <path id="ID0.17377300979569554" fill="#FFFFFF" stroke="none" stroke-linecap="round" d="M 188.3252 24.236 L 189.2322 23.4054 L 191.5194 23.2213 L 193.7718 23.8269 L 194.224 25.7776 L 191.5867 25.6457 L 188.3252 24.236 Z " stroke-width="0.9999999760882085"/>
    <path id="ID0.17377300979569554" fill="#FFFFFF" stroke="none" stroke-linecap="round" d="M 210.6748 24.236 L 209.7678 23.4054 L 207.4806 23.2213 L 205.2282 23.8269 L 204.776 25.7776 L 207.4133 25.6457 L 210.6748 24.236 Z " stroke-width="0.9999999760882085"/>
    <path id="ID0.44800941413268447" fill="none" stroke="#646B70" stroke-width="1.0503597259521484" stroke-linecap="round" d="M 197.6989 28.0198 L 196.0709 23.7133 L 191.6856 21.2712 L 185.1209 21.4025 "/>
    <path id="ID0.12448931112885475" fill="#646B70" stroke="none" stroke-linecap="round" d="M 196.75 33.55 L 201.55 33.65 L 202.5 36.8 L 199.4 38.3 L 195.9 36.75 L 196.75 33.55 Z " stroke-width="1"/>
    <path id="ID0.6563427890650928" fill="#788087" stroke="none" stroke-linecap="round" d="M 196.45 37.45 L 197.95 35.95 L 198.2 38.7 L 196.65 38.7 L 196.45 37.45 Z " stroke-width="1"/>
    <path id="ID0.6563427890650928" fill="#788087" stroke="none" stroke-linecap="round" d="M 202.05 37.55 L 200.55 36.05 L 200.3 38.8 L 201.85 38.8 L 202.05 37.55 Z " stroke-width="1"/>
    <path id="ID0.44800941413268447" fill="none" stroke="#646B70" stroke-width="1.050359732381415" stroke-linecap="round" d="M 196.8097 24.2596 L 197.6119 21.6918 L 196.1669 18.3273 "/>
    <path id="ID0.44800941413268447" fill="none" stroke="#646B70" stroke-width="1.050359732381415" stroke-linecap="round" d="M 201.0903 24.2596 L 200.2881 21.6918 L 201.7331 18.3273 "/>
    <path id="ID0.8357716267928481" fill="#6E767C" stroke="none" stroke-linecap="round" d="M 194.15 13.15 L 192.55 6.75 L 198.55 5.9 L 204.3 6.95 L 202.65 13.15 L 198.55 13.75 L 194.15 13.15 Z " stroke-width="1"/>
    <path id="ID0.6231065075844526" fill="#646B70" stroke="none" stroke-linecap="round" d="M 198.25 52.6 L 199.85 50.45 L 201.4 52.6 L 198.25 52.6 Z " stroke-width="1"/>
    <path id="ID0.13564336113631725" fill="#646B70" stroke="none" stroke-linecap="round" d="M 197.15 24.5 L 198.8 22 L 200.35 24.5 L 197.15 24.5 Z " stroke-width="1"/>
    <g id="ID0.27998464927077293">
      <path id="ID0.4195562661625445" fill="none" stroke="#000000" stroke-width="0.7023809552192688" stroke-linecap="round" d="M 196.2426 27.3548 L 192.8009 27.4426 L 186.5497 25.8798 "/>
      <path id="ID0.4195562661625445" fill="none" stroke="#000000" stroke-width="0.7023809552192688" stroke-linecap="round" d="M 195.7426 28.5048 L 192.7399 28.6804 L 187.9813 27.3634 "/>
    </g>
    <g id="ID0.27998464927077293">
      <path id="ID0.4195562661625445" fill="none" stroke="#000000" stroke-width="0.7023809552192688" stroke-linecap="round" d="M 201.5574 27.3548 L 204.9991 27.4426 L 211.2503 25.8798 "/>
      <path id="ID0.4195562661625445" fill="none" stroke="#000000" stroke-width="0.7023809552192688" stroke-linecap="round" d="M 202.0574 28.5048 L 205.0601 28.6804 L 209.8187 27.3634 "/>
    </g>
    <g id="ID0.32985211815685034">
      <g id="ID0.08651347272098064">
        <g id="ID0.07771636918187141">
          <path id="ID0.7001032647676766" fill="none" stroke="#646B70" stroke-width="0.5238094925880432" stroke-linecap="round" d="M 190.4929 39.5929 C 190.4929 39.5929 190.4284 39.9608 190.3881 40.1429 C 190.3501 40.3141 190.1945 40.4896 190.2571 40.6536 C 190.3218 40.8233 190.5298 40.9118 190.7024 40.9679 C 190.8684 41.0215 191.0518 40.9658 191.2262 40.9679 C 191.4006 40.97 191.6657 41.1336 191.75 40.981 C 191.9522 40.6156 191.9071 39.7369 191.9071 39.7369 "/>
          <path id="ID0.7001032647676766" fill="none" stroke="#646B70" stroke-width="0.5238094925880432" stroke-linecap="round" d="M 191.9929 39.5929 C 191.9929 39.5929 191.9284 39.9608 191.8881 40.1429 C 191.8501 40.3141 191.6945 40.4896 191.7571 40.6536 C 191.8218 40.8233 192.0298 40.9118 192.2024 40.9679 C 192.3684 41.0215 192.5518 40.9658 192.7262 40.9679 C 192.9006 40.97 193.1657 41.1336 193.25 40.981 C 193.4522 40.6156 193.4071 39.7369 193.4071 39.7369 "/>
        </g>
        <g id="ID0.07771636918187141">
          <path id="ID0.7001032647676766" fill="none" stroke="#646B70" stroke-width="0.5238094925880432" stroke-linecap="round" d="M 193.6429 39.7929 C 193.6429 39.7929 193.5784 40.1608 193.5381 40.3429 C 193.5001 40.5141 193.3445 40.6896 193.4071 40.8536 C 193.4718 41.0233 193.6798 41.1118 193.8524 41.1679 C 194.0184 41.2215 194.2018 41.1658 194.3762 41.1679 C 194.5506 41.17 194.8157 41.3336 194.9 41.181 C 195.1022 40.8156 195.0571 39.9369 195.0571 39.9369 "/>
          <path id="ID0.7001032647676766" fill="none" stroke="#646B70" stroke-width="0.5238094925880432" stroke-linecap="round" d="M 195.1429 39.8429 C 195.1429 39.8429 195.0784 40.2108 195.0381 40.3929 C 195.0001 40.5641 194.8445 40.7396 194.9071 40.9036 C 194.9718 41.0733 195.1798 41.1618 195.3524 41.2179 C 195.5184 41.2715 195.7018 41.2158 195.8762 41.2179 C 196.0506 41.22 196.3157 41.3836 196.4 41.231 C 196.6022 40.8656 196.5571 39.9869 196.5571 39.9869 "/>
        </g>
        <path id="ID0.7001032647676766" fill="none" stroke="#646B70" stroke-width="0.5238095049857807" stroke-linecap="round" d="M 196.6908 40.0126 C 196.6908 40.0126 196.6653 40.3853 196.6442 40.5706 C 196.6244 40.7449 196.4881 40.9357 196.5675 41.0922 C 196.6496 41.2542 196.8657 41.3205 197.0432 41.3581 C 197.214 41.3941 197.3905 41.3194 197.5642 41.3032 C 197.7379 41.287 198.0186 41.422 198.0865 41.2613 C 198.2492 40.8768 198.1124 40.0077 198.1124 40.0077 "/>
      </g>
      <g id="ID0.08651347272098064">
        <g id="ID0.07771636918187141">
          <path id="ID0.7001032647676766" fill="none" stroke="#646B70" stroke-width="0.5238094925880432" stroke-linecap="round" d="M 205.7571 39.5929 C 205.7571 39.5929 205.8216 39.9608 205.8619 40.1429 C 205.8999 40.3141 206.0555 40.4896 205.9929 40.6536 C 205.9282 40.8233 205.7202 40.9118 205.5476 40.9679 C 205.3816 41.0215 205.1982 40.9658 205.0238 40.9679 C 204.8494 40.97 204.5843 41.1336 204.5 40.981 C 204.2978 40.6156 204.3429 39.7369 204.3429 39.7369 "/>
          <path id="ID0.7001032647676766" fill="none" stroke="#646B70" stroke-width="0.5238094925880432" stroke-linecap="round" d="M 204.2571 39.5929 C 204.2571 39.5929 204.3216 39.9608 204.3619 40.1429 C 204.3999 40.3141 204.5555 40.4896 204.4929 40.6536 C 204.4282 40.8233 204.2202 40.9118 204.0476 40.9679 C 203.8816 41.0215 203.6982 40.9658 203.5238 40.9679 C 203.3494 40.97 203.0843 41.1336 203 40.981 C 202.7978 40.6156 202.8429 39.7369 202.8429 39.7369 "/>
        </g>
        <g id="ID0.07771636918187141">
          <path id="ID0.7001032647676766" fill="none" stroke="#646B70" stroke-width="0.5238094925880432" stroke-linecap="round" d="M 202.6071 39.7929 C 202.6071 39.7929 202.6716 40.1608 202.7119 40.3429 C 202.7499 40.5141 202.9055 40.6896 202.8429 40.8536 C 202.7782 41.0233 202.5702 41.1118 202.3976 41.1679 C 202.2316 41.2215 202.0482 41.1658 201.8738 41.1679 C 201.6994 41.17 201.4343 41.3336 201.35 41.181 C 201.1478 40.8156 201.1929 39.9369 201.1929 39.9369 "/>
          <path id="ID0.7001032647676766" fill="none" stroke="#646B70" stroke-width="0.5238094925880432" stroke-linecap="round" d="M 201.1071 39.8429 C 201.1071 39.8429 201.1716 40.2108 201.2119 40.3929 C 201.2499 40.5641 201.4055 40.7396 201.3429 40.9036 C 201.2782 41.0733 201.0702 41.1618 200.8976 41.2179 C 200.7316 41.2715 200.5482 41.2158 200.3738 41.2179 C 200.1994 41.22 199.9343 41.3836 199.85 41.231 C 199.6478 40.8656 199.6929 39.9869 199.6929 39.9869 "/>
        </g>
        <path id="ID0.7001032647676766" fill="none" stroke="#646B70" stroke-width="0.5238095049857807" stroke-linecap="round" d="M 199.6592 40.0126 C 199.6592 40.0126 199.6847 40.3853 199.7058 40.5706 C 199.7256 40.7449 199.8619 40.9357 199.7825 41.0922 C 199.7004 41.2542 199.4843 41.3205 199.3068 41.3581 C 199.136 41.3941 198.9595 41.3194 198.7858 41.3032 C 198.6121 41.287 198.3314 41.422 198.2635 41.2613 C 198.1008 40.8768 198.2376 40.0077 198.2376 40.0077 "/>
      </g>
    </g>
    <path id="ID0.7001032647676766" fill="none" stroke="#646B70" stroke-width="0.523809552192688" stroke-linecap="round" d="M 190.7929 42.6571 C 190.7929 42.6571 190.7284 42.2892 190.6881 42.1071 C 190.6501 41.9359 190.4946 41.7604 190.5571 41.5964 C 190.6218 41.4267 190.8298 41.3382 191.0024 41.2821 C 191.1684 41.2285 191.3518 41.2842 191.5262 41.2821 C 191.7006 41.28 191.9657 41.1164 192.05 41.269 C 192.2522 41.6344 192.2071 42.5131 192.2071 42.5131 "/>
    <path id="ID0.7001032647676766" fill="none" stroke="#646B70" stroke-width="0.523809552192688" stroke-linecap="round" d="M 192.2929 42.6571 C 192.2929 42.6571 192.2284 42.2892 192.1881 42.1071 C 192.1501 41.9359 191.9946 41.7604 192.0571 41.5964 C 192.1218 41.4267 192.3298 41.3382 192.5024 41.2821 C 192.6684 41.2285 192.8518 41.2842 193.0262 41.2821 C 193.2006 41.28 193.4657 41.1164 193.55 41.269 C 193.7522 41.6344 193.7071 42.5131 193.7071 42.5131 "/>
    <g id="ID0.07771636918187141">
      <path id="ID0.7001032647676766" fill="none" stroke="#646B70" stroke-width="0.523809552192688" stroke-linecap="round" d="M 193.3929 42.8071 C 193.3929 42.8071 193.3284 42.4392 193.2881 42.2571 C 193.2501 42.0859 193.0946 41.9104 193.1571 41.7464 C 193.2218 41.5767 193.4298 41.4882 193.6024 41.4321 C 193.7684 41.3785 193.9518 41.4342 194.1262 41.4321 C 194.3006 41.43 194.5657 41.2664 194.65 41.419 C 194.8522 41.7844 194.8071 42.6631 194.8071 42.6631 "/>
      <path id="ID0.7001032647676766" fill="none" stroke="#646B70" stroke-width="0.523809552192688" stroke-linecap="round" d="M 194.8429 42.6571 C 194.8429 42.6571 194.7784 42.2892 194.7381 42.1071 C 194.7001 41.9359 194.5446 41.7604 194.6071 41.5964 C 194.6718 41.4267 194.8798 41.3382 195.0524 41.2821 C 195.2184 41.2285 195.4018 41.2842 195.5762 41.2821 C 195.7506 41.28 196.0157 41.1164 196.1 41.269 C 196.3022 41.6344 196.2571 42.5131 196.2571 42.5131 "/>
    </g>
    <path id="ID0.7001032647676766" fill="none" stroke="#646B70" stroke-width="0.5238095646525897" stroke-linecap="round" d="M 196.8408 42.7873 C 196.8408 42.7873 196.8153 42.4146 196.7942 42.2294 C 196.7744 42.0551 196.6381 41.8643 196.7175 41.7078 C 196.7996 41.5458 197.0157 41.4795 197.1932 41.4419 C 197.364 41.4059 197.5405 41.4806 197.7142 41.4968 C 197.8879 41.513 198.1686 41.378 198.2365 41.5387 C 198.3993 41.9232 198.2624 42.7923 198.2624 42.7923 "/>
    <path id="ID0.7001032647676766" fill="none" stroke="#646B70" stroke-width="0.523809552192688" stroke-linecap="round" d="M 206.5571 42.4571 C 206.5571 42.4571 206.6216 42.0892 206.6619 41.9071 C 206.6999 41.7359 206.8554 41.5604 206.7929 41.3964 C 206.7282 41.2267 206.5202 41.1382 206.3476 41.0821 C 206.1816 41.0285 205.9982 41.0842 205.8238 41.0821 C 205.6494 41.08 205.3843 40.9164 205.3 41.069 C 205.0978 41.4344 205.1429 42.3131 205.1429 42.3131 "/>
    <path id="ID0.7001032647676766" fill="none" stroke="#646B70" stroke-width="0.523809552192688" stroke-linecap="round" d="M 205.0571 42.4571 C 205.0571 42.4571 205.1216 42.0892 205.1619 41.9071 C 205.1999 41.7359 205.3554 41.5604 205.2929 41.3964 C 205.2282 41.2267 205.0202 41.1382 204.8476 41.0821 C 204.6816 41.0285 204.4982 41.0842 204.3238 41.0821 C 204.1494 41.08 203.8843 40.9164 203.8 41.069 C 203.5978 41.4344 203.6429 42.3131 203.6429 42.3131 "/>
    <path id="ID0.7001032647676766" fill="none" stroke="#646B70" stroke-width="0.523809552192688" stroke-linecap="round" d="M 203.2571 42.5571 C 203.2571 42.5571 203.3216 42.1892 203.3619 42.0071 C 203.3999 41.8359 203.5554 41.6604 203.4929 41.4964 C 203.4282 41.3267 203.2202 41.2382 203.0476 41.1821 C 202.8816 41.1285 202.6982 41.1842 202.5238 41.1821 C 202.3494 41.18 202.0843 41.0164 202 41.169 C 201.7978 41.5344 201.8429 42.4131 201.8429 42.4131 "/>
    <path id="ID0.7001032647676766" fill="none" stroke="#646B70" stroke-width="0.523809552192688" stroke-linecap="round" d="M 201.7571 42.7071 C 201.7571 42.7071 201.8216 42.3392 201.8619 42.1571 C 201.8999 41.9859 202.0554 41.8104 201.9929 41.6464 C 201.9282 41.4767 201.7202 41.3882 201.5476 41.3321 C 201.3816 41.2785 201.1982 41.3342 201.0238 41.3321 C 200.8494 41.33 200.5843 41.1664 200.5 41.319 C 200.2978 41.6844 200.3429 42.5631 200.3429 42.5631 "/>
    <path id="ID0.7001032647676766" fill="none" stroke="#646B70" stroke-width="0.5238095646525897" stroke-linecap="round" d="M 200.1592 42.8373 C 200.1592 42.8373 200.1847 42.4646 200.2058 42.2794 C 200.2256 42.1051 200.3619 41.9143 200.2825 41.7578 C 200.2004 41.5958 199.9843 41.5295 199.8068 41.4919 C 199.636 41.4559 199.4595 41.5306 199.2858 41.5468 C 199.1121 41.563 198.8314 41.428 198.7635 41.5887 C 198.6007 41.9732 198.7376 42.8423 198.7376 42.8423 "/>
    <path id="ID0.44800941413268447" fill="none" stroke="#565D61" stroke-width="0.6130029273409839" stroke-linecap="round" d="M 201.552 34.0485 L 199.7444 32.747 L 196.4387 33.791 "/>
    <path id="ID0.44800941413268447" fill="none" stroke="#5E656A" stroke-width="1.0503597259521484" stroke-linecap="round" d="M 210.614 4.3831 L 205.5723 16.1471 L 205.7561 21.4514 "/>
    <path id="ID0.44800941413268447" fill="none" stroke="#646B70" stroke-width="1.0503597259521484" stroke-linecap="round" d="M 200.1511 28.0198 L 201.7791 23.7133 L 206.1644 21.2712 L 212.7291 21.4025 "/>
    <g id="ID0.6897007944062352">
      <path id="ID0.2692581438459456" fill="#7AABFF" stroke="none" d="M 208.5257 23.1857 C 208.207 23.0948 207.882 23.1424 207.6137 23.2917 C 207.3453 23.441 207.1335 23.692 207.0427 24.0107 C 206.9518 24.3294 206.9994 24.6543 207.1486 24.9227 C 207.2979 25.1911 207.5489 25.4028 207.8676 25.4937 C 208.1864 25.5846 208.5113 25.537 208.7796 25.3877 C 209.048 25.2384 209.2598 24.9875 209.3507 24.6687 C 209.4415 24.35 209.394 24.0251 209.2447 23.7567 C 209.0954 23.4884 208.8444 23.2766 208.5257 23.1857 Z " stroke-width="1.1428571810382073"/>
      <path id="ID0.8070062398910522" fill="#192334" stroke="none" d="M 208.3326 23.853 C 208.2001 23.8152 208.0641 23.8342 207.9526 23.8971 C 207.8403 23.9587 207.7524 24.0642 207.7147 24.1967 C 207.6769 24.3292 207.6959 24.4652 207.7588 24.5767 C 207.8204 24.689 207.9259 24.7769 208.0584 24.8146 C 208.1909 24.8524 208.3269 24.8334 208.4384 24.7705 C 208.5507 24.7089 208.6385 24.6034 208.6763 24.4709 C 208.7141 24.3384 208.6951 24.2024 208.6322 24.0909 C 208.5706 23.9786 208.4651 23.8907 208.3326 23.853 Z " stroke-width="1.111111214644622"/>
    </g>
    <g id="ID0.5823970721103251">
      <path id="ID0.2692581438459456" fill="#7AABFF" stroke="none" d="M 192.2243 23.3857 C 192.543 23.2948 192.868 23.3424 193.1363 23.4917 C 193.4047 23.641 193.6165 23.892 193.7073 24.2107 C 193.7982 24.5294 193.7506 24.8543 193.6014 25.1227 C 193.4521 25.3911 193.2011 25.6028 192.8824 25.6937 C 192.5636 25.7846 192.2387 25.737 191.9704 25.5877 C 191.702 25.4384 191.4902 25.1875 191.3993 24.8687 C 191.3085 24.55 191.356 24.2251 191.5053 23.9567 C 191.6546 23.6884 191.9056 23.4766 192.2243 23.3857 Z " stroke-width="1.1428571810382073"/>
      <path id="ID0.8070062398910522" fill="#192334" stroke="none" d="M 192.5174 23.953 C 192.6499 23.9152 192.7859 23.9342 192.8974 23.9971 C 193.0097 24.0587 193.0976 24.1642 193.1353 24.2967 C 193.1731 24.4292 193.1541 24.5652 193.0912 24.6767 C 193.0296 24.789 192.9241 24.8769 192.7916 24.9146 C 192.6591 24.9524 192.5231 24.9334 192.4116 24.8705 C 192.2993 24.8089 192.2115 24.7034 192.1737 24.5709 C 192.1359 24.4384 192.1549 24.3024 192.2178 24.1909 C 192.2794 24.0786 192.3849 23.9907 192.5174 23.953 Z " stroke-width="1.111111214644622"/>
    </g>
  </g>
</svg>