<svg xmlns="http://www.w3.org/2000/svg" xmlns:xlink="http://www.w3.org/1999/xlink" version="1.1" width="269.7637688729411" height="681.6715752694255" viewBox="12.038110871451794 -1.9272891985002172 269.7637688729411 681.6715752694255">
  <!-- Exported by Scratch - http://scratch.mit.edu/ -->
  <g id="ID0.5880346246995032">
    <path id="ID0.6829322893172503" fill="#EDD2B8" stroke="none" stroke-linecap="round" d="M 269.9519 337.3781 L 243.8997 327.487 L 237.3127 341.4052 L 228.8626 356.4825 L 230.1373 370.1609 L 232.6498 381.2601 L 238.2178 388.1325 L 243.1397 403.9348 L 254.3299 402.3992 L 256.8058 397.2409 L 260.6683 396.3882 L 267.8927 389.3092 L 275.5146 381.2076 L 279.3982 370.0051 L 275.8508 353.0893 L 269.9519 337.3781 Z " stroke-width="1.9625150121594088"/>
    <g id="ID0.9434720128774643">
      <path id="ID0.6507829907350242" fill="#282828" stroke="none" stroke-linecap="round" d="M 268.9934 180.6882 L 225.8379 209.3475 L 232.8405 249.5936 L 238.3009 279.6355 L 241.8973 318.228 L 237.8852 335.4541 L 273.7111 338.1271 L 270.1977 320.5182 L 272.4092 296.66 L 276.4714 266.2234 L 275.4574 234.1903 L 268.9934 180.6882 Z " stroke-width="1.9625150121594088"/>
      <path id="ID0.9892375003546476" fill="none" stroke="#191919" stroke-width="4.8073783505083005" stroke-linecap="round" d="M 272.4054 336.3789 L 239.4823 332.8081 L 243.5698 311.9074 "/>
    </g>
  </g>
  <g id="ID0.6660797297954559">
    <path id="ID0.5368814701214433" fill="#343434" stroke="none" stroke-linecap="round" d="M 158.6669 641.0186 L 165.5975 619.7941 L 176.3874 597.5673 L 200.367 611.6481 L 227.4471 630.0006 L 269.4204 654.8602 L 272.0127 670.5216 L 212.6479 673.3554 L 161.5815 664.5427 L 158.6669 641.0186 Z " stroke-width="1.8513610569684396"/>
    <g id="ID0.5077062323689461">
      <path id="ID0.05466862628236413" fill="#252525" stroke="none" stroke-linecap="round" d="M 161.3134 467.2281 L 213.456 459.1029 L 209.2834 494.397 L 207.4991 506.4472 L 207.4837 541.2633 L 213.4944 621.1887 L 162.4308 627.8475 L 159.2162 582.7818 L 153.6595 565.7958 L 150.8475 547.2203 L 154.6892 520.5219 L 154.4517 496.2064 L 161.3134 467.2281 Z " stroke-width="1.4418608323296336"/>
      <path id="ID0.5319394422695041" fill="none" stroke="#131313" stroke-width="4.80737829208374" stroke-linecap="round" d="M 213.49 618.901 L 162.4116 628.5158 L 160.008 600.8733 "/>
    </g>
    <g id="ID0.8820344842970371">
      <path id="ID0.3809091211296618" fill="#252525" stroke="none" stroke-linecap="round" d="M 134.3213 290.2834 L 210.5545 243.3725 L 213.5895 301.6084 L 223.1764 418.1302 L 222.0162 443.9758 L 212.3989 471.0962 L 192.9451 465.8465 L 161.8097 468.9485 L 160.2201 416.6396 L 156.0418 384.6636 L 134.3213 290.2834 Z " stroke-width="1.756108777162344"/>
      <path id="ID0.9495224836282432" fill="none" stroke="#131313" stroke-width="4.80737829208374" stroke-linecap="round" d="M 223.1048 418.193 L 223.1048 438.6243 L 218.2974 457.8538 L 197.8661 468.6704 L 195.4624 480.6889 "/>
    </g>
  </g>
  <g id="ID0.18228224432095885">
    <path id="ID0.5368814701214433" fill="#404040" stroke="none" stroke-linecap="round" d="M 66.5482 643.8432 L 73.9364 622.7736 L 85.2048 600.7856 L 108.8741 615.3819 L 135.5507 634.3161 L 176.9762 660.0783 L 179.229 675.792 L 119.8168 677.3406 L 68.9531 667.4249 L 66.5482 643.8432 Z " stroke-width="1.8513610861806322"/>
    <g id="ID0.5077062323689461">
      <path id="ID0.05466862628236413" fill="#252525" stroke="none" stroke-linecap="round" d="M 76.0316 468.7676 L 128.4996 463.1135 L 122.6652 498.1712 L 120.314 510.1237 L 118.6546 544.9003 L 120.8848 625.0203 L 69.5638 629.2606 L 68.4806 584.0934 L 63.7322 566.864 L 61.8004 548.1764 L 66.8983 521.6892 L 67.8092 497.3896 L 76.0316 468.7676 Z " stroke-width="1.4418608018806498"/>
      <path id="ID0.5319394422695041" fill="none" stroke="#131313" stroke-width="4.807378492081764" stroke-linecap="round" d="M 121.0823 622.8349 L 69.6069 630.0272 L 68.511 602.3021 "/>
    </g>
    <g id="ID0.8820344842970371">
      <path id="ID0.3809091211296618" fill="#252525" stroke="none" stroke-linecap="round" d="M 69.838 284.5857 L 135.9638 247.4561 L 136.2458 305.7704 L 140.3202 422.6149 L 137.9409 448.3769 L 127.0538 475.013 L 107.8697 468.8506 L 75.3085 473.6951 L 70.7581 418.1402 L 68.5517 386.7555 L 69.838 284.5857 Z " stroke-width="1.7561088489791046"/>
      <path id="ID0.9495224836282432" fill="none" stroke="#131313" stroke-width="4.807378492081764" stroke-linecap="round" d="M 140.163 422.8047 L 139.1983 443.2133 L 133.4883 462.1943 L 112.5691 472.0342 L 109.6006 483.9257 "/>
    </g>
  </g>
  <path id="ID0.7729651997797191" fill="#282828" stroke="none" stroke-linecap="round" d="M 14.4418 131.5517 L 54.3187 90.615 L 83.7582 129.706 L 91.9842 149.2811 L 107.1806 170.303 L 116.3186 190.056 L 83.0562 214.3264 L 67.7687 206.4663 L 35.1717 157.8033 L 14.4418 131.5517 Z " stroke-width="2.3048101467641104"/>
  <path id="ID0.4757494777441025" fill="#282828" stroke="none" stroke-linecap="round" d="M 42.2816 69.7672 L 63.4712 64.6169 L 102.9073 76.348 L 82.6006 137.5787 L 56.9966 149.5959 L 45.8132 152.1711 L 37.8671 146.4486 L 30.8039 139.2955 L 16.6775 133.0007 L 16.3832 119.839 L 18.149 100.3825 L 26.0951 80.3538 L 42.2816 69.7672 Z " stroke-width="1.1609638120206986"/>
  <path id="ID0.7729651997797191" fill="#282828" stroke="none" stroke-linecap="round" d="M 262.8434 106.8938 L 205.8889 102.1862 L 209.339 151.001 L 217.4754 176.9719 L 219.7488 199.1878 L 224.6804 219.9237 L 265.4139 214.3786 L 271.7876 198.4141 L 264.4363 140.3054 L 262.8434 106.8938 Z " stroke-width="2.3048102210803942"/>
  <path id="ID0.4757494777441025" fill="#282828" stroke="none" stroke-linecap="round" d="M 236.8184 68.5672 L 215.6288 63.4169 L 176.1927 75.148 L 196.4994 136.3787 L 222.1034 148.3959 L 233.2868 150.9711 L 241.2329 145.2486 L 248.2961 138.0955 L 262.4225 131.8007 L 262.7168 118.639 L 260.951 99.1825 L 253.0049 79.1538 L 236.8184 68.5672 Z " stroke-width="1.1609638120206986"/>
  <path id="ID0.4270821204409003" fill="#313131" stroke="none" stroke-linecap="round" d="M 143.279 395.0833 L 141.7302 78.8729 L 183.4705 85.9712 L 199.8863 98.4447 L 206.5845 109.9814 L 222.9894 142.4864 L 220.8371 171.8066 L 218.3205 187.0946 L 222.0388 206.5616 L 222.9555 221.9446 L 217.5185 241.1581 L 213.4097 255.7343 L 210.1625 281.6857 L 212.8565 343.1909 L 200.1552 365.8757 L 188.3954 382.9778 L 143.279 395.0833 Z " stroke-width="1.2435334406681842"/>
  <path id="ID0.4270821204409003" fill="#313131" stroke="none" stroke-linecap="round" d="M 143.4844 395.4764 L 143.1571 79.2702 L 101.458 86.0797 L 85.1159 98.4399 L 78.486 109.9305 L 62.2737 142.3225 L 64.6 171.6583 L 67.2073 186.964 L 63.6044 206.4057 L 62.779 221.7827 L 68.3301 241.0342 L 72.5255 255.6391 L 75.9267 281.6135 L 73.5976 343.1013 L 86.4338 365.8746 L 98.2953 383.0584 L 143.4844 395.4764 Z " stroke-width="1.2435925513956865"/>
  <path id="ID0.9286923445761204" fill="#313131" stroke="none" stroke-linecap="round" d="M 114.5761 0.4764 L 159.7838 4.0243 L 142.6735 49.4037 L 145.7064 146.6861 L 54.4899 76.8717 L 102.2727 51.4066 L 114.5761 0.4764 Z " stroke-width="1.1444987058639526"/>
  <path id="ID0.9286923445761204" fill="#313131" stroke="none" stroke-linecap="round" d="M 169.6239 1.0764 L 124.4162 4.6243 L 141.5265 50.0037 L 144.4449 146.1416 L 229.7101 77.4717 L 181.9273 52.0066 L 169.6239 1.0764 Z " stroke-width="1.1444987058639526"/>
  <path id="ID0.562834897544235" fill="#313131" stroke="none" stroke-linecap="round" d="M 72.959 293.3011 L 145.6706 279.4799 L 145.6706 328.1546 L 112.6199 331.1592 L 72.959 293.3011 Z " stroke-width="2.40368914604187"/>
  <path id="ID0.562834897544235" fill="#313131" stroke="none" stroke-linecap="round" d="M 219.341 293.9011 L 146.6294 280.0799 L 146.6294 328.7546 L 179.6801 331.7592 L 219.341 293.9011 Z " stroke-width="2.40368914604187"/>
  <path id="ID0.4144489667378366" fill="#313131" stroke="none" stroke-linecap="round" d="M 53.1286 69.758 L 101.8033 50.5285 L 94.5922 102.8088 L 102.4042 247.0301 L 79.5692 354.5952 L 53.1286 342.5768 L 52.5277 350.9897 L 59.7388 235.6126 L 48.3212 131.653 L 45.9175 92.5931 L 53.1286 69.758 Z " stroke-width="2.40368914604187"/>
  <path id="ID0.4144489667378366" fill="#313131" stroke="none" stroke-linecap="round" d="M 229.8714 67.758 L 181.1967 48.5285 L 188.4078 100.8088 L 180.5958 245.0301 L 203.4308 352.5952 L 229.8714 340.5768 L 230.4723 348.9897 L 223.2612 233.6126 L 234.6788 129.653 L 237.0825 90.5931 L 229.8714 67.758 Z " stroke-width="2.40368914604187"/>
  <path id="ID0.8752945330925286" fill="none" stroke="#222222" stroke-width="4.80737829208374" stroke-linecap="round" d="M 54.3305 70.359 L 46.5185 88.9876 L 54.3305 179.7268 "/>
  <path id="ID0.8752945330925286" fill="none" stroke="#222222" stroke-width="4.80737829208374" stroke-linecap="round" d="M 230.3195 69.159 L 238.1315 87.7876 L 230.3195 178.5268 "/>
</svg>