<svg xmlns="http://www.w3.org/2000/svg" xmlns:xlink="http://www.w3.org/1999/xlink" version="1.1" width="289.87595963806746" height="275.48155045837996" viewBox="1.44852387740791 0.09762376382529914 289.87595963806746 275.48155045837996">
  <defs>
    <linearGradient id="grad_1" y2="1" x2="0">
      <stop offset="0" stop-color="#222325" stop-opacity="1"/>
      <stop offset="1" stop-color="#2E3034" stop-opacity="1"/>
    </linearGradient>
  </defs>
  <!-- Exported by Scratch - http://scratch.mit.edu/ -->
  <path id="ID0.8497670474462211" fill="#0D0D0D" stroke="none" stroke-linecap="round" d="M 112.5 160.5 L 215 160.5 L 215 214.5 L 185 212.5 L 172 205 L 135 214.5 L 112.5 214.5 L 112.5 160.5 Z " stroke-width="1"/>
  <path id="ID0.7927394988946617" fill="#0D0D0D" stroke="#0D0D0D" stroke-width="1.2400576669369916" stroke-linecap="round" d="M 233.9205 137.2011 L 240.3741 156.0061 L 234.8183 172.5856 L 246.8824 192.2924 L 258.1177 206.6964 L 266.7163 213.8866 L 290.4952 274.7499 L 282.5531 267.6209 L 271.3018 260.4731 L 260.2766 257.9912 L 256.7359 249.8221 L 250.4754 249.4983 L 244.4936 245.4846 L 237.9969 244.5 L 232.4987 238.4995 L 196.8157 232.0293 L 198.0529 218.7911 L 196.9238 208.554 L 195.07 201.82 L 192.4941 196.7893 L 189.1945 190.6458 L 185.2956 187.7268 L 179.3542 188.594 L 163.7502 196.135 L 168.6194 179.4623 L 169.6162 169.8593 L 170.2644 162.9237 L 169.5572 156.6742 L 167.8062 149.1949 L 166.0762 144.6787 L 162.5382 138.2517 L 159.1735 132.4506 L 153.6059 127.5467 L 139.8844 125.2192 L 148.4186 115.7401 L 150.3098 109.6754 L 148.7518 101.5465 L 147.188 94.8976 L 144.9624 88.2449 L 137.9897 74.9941 L 195.0031 85.9835 L 233.9205 137.2011 Z "/>
  <path id="ID0.3809091211296618" fill="#393D40" stroke="none" stroke-linecap="round" d="M 174.5545 184.6181 L 179.0741 167.1037 L 187.7535 155.5205 L 196.028 152.1347 L 211.385 149.8576 L 216.3958 151.5453 L 222.0854 169.2214 L 209.7167 175.1728 L 200.7278 177.9573 L 174.5545 184.6181 Z " stroke-width="0.6733301246556747"/>
  <path id="ID0.7927394988946617" fill="#0D0D0D" stroke="#0D0D0D" stroke-width="1.2400576190918482" stroke-linecap="round" d="M 111.7245 120.1848 L 97.9223 134.4948 L 95.9434 151.8681 L 76.6759 164.6219 L 60.4024 172.9213 L 49.5695 175.7994 L 2.2778 220.8911 L 12.4899 217.7909 L 25.7085 216.0733 L 36.7486 218.4879 L 41.4716 222.5106 L 48.4932 215.9973 L 52.5014 213.993 L 57.9861 215.4947 L 65.487 214.0032 L 77.4896 210.0086 L 90.2923 203.8751 L 95.0693 206.4743 L 99.659 209.9888 L 105.2344 221.8068 L 118.4793 211.0119 L 123.983 214.5157 L 128.9823 206.5115 L 132.9708 202.996 L 136.9991 202.0119 L 140.9722 204.9989 L 150.3792 203.2683 L 153.0196 186.1011 L 156.1783 176.9779 L 158.5247 170.4191 L 161.809 165.0553 L 166.5594 159.0189 L 170.0374 155.6584 L 175.9619 151.3312 L 181.4646 147.4979 L 188.5839 145.4094 L 202.0018 149.1045 L 198.2784 136.9053 L 199.1301 130.6099 L 203.9803 123.903 L 208.2097 118.5397 L 213.0405 113.4529 L 224.9637 104.3954 L 155.1007 67.7369 L 111.7245 120.1848 Z "/>
  <g id="ID0.9602425838820636">
    <g id="ID0.17693647183477879">
      <path id="ID0.7729651997797191" fill="#393C40" stroke="none" stroke-linecap="round" d="M 215.341 98.6025 L 196.5548 103.0734 L 202.7906 118.3885 L 207.7226 130.7691 L 212.3057 135.5021 L 216.1363 138.1925 L 227.4573 132.8527 L 227.8273 127.056 L 219.3623 109.1658 L 215.341 98.6025 Z " stroke-width="0.7788098529418102"/>
      <path id="ID0.9716172609478235" fill="#34373A" stroke="none" stroke-linecap="round" d="M 212.3876 104.7719 L 216.6016 101.7423 L 213.7639 95.9135 L 198.4442 108.0007 L 201.779 110.3429 L 207.266 111.2019 L 212.3876 104.7719 Z " stroke-width="0.7788098529418102"/>
      <g id="ID0.38066427363082767">
        <path id="ID0.4757494777441025" fill="#1D1E1F" stroke="none" stroke-linecap="round" d="M 202.4644 76.7572 L 194.0592 76.152 L 179.8732 83.3586 L 191.7762 105.9449 L 202.3285 108.9411 L 206.7548 109.2045 L 209.3836 106.4395 L 211.579 103.1738 L 216.5175 99.7744 L 215.7297 94.6097 L 213.7287 87.1213 L 209.3397 79.8199 L 202.4644 76.7572 Z " stroke-width="0.4541860136580067"/>
        <path id="ID0.6007084371522069" fill="none" stroke="#0D0D0D" stroke-width="0.9083720273160134" stroke-linecap="round" d="M 216.1288 100.1882 L 211.6909 103.1543 L 208.2706 107.3257 L 206.7744 109.3164 L 202.3285 108.9411 L 197.8185 107.5396 "/>
      </g>
    </g>
    <g id="ID0.7397577832452953">
      <path id="ID0.6726378230378032" fill="#34373A" stroke="none" stroke-linecap="round" d="M 226.6324 124.4715 L 212.8931 135.6499 L 214.0359 137.6638 L 227.3648 126.3991 L 226.6324 124.4715 Z " stroke-width="0.7788098529418102"/>
      <path id="ID0.6507829907350242" fill="#1D1E1F" stroke="none" stroke-linecap="round" d="M 230.0188 124.8939 L 213.8589 137.6024 L 217.3614 155.372 L 221.0232 165.0099 L 223.6726 180.1615 L 224.1704 186.3994 L 235.8215 186.3387 L 234.9401 180.1678 L 235.0565 170.66 L 235.6959 158.4911 L 235.8458 149.175 L 230.0188 124.8939 Z " stroke-width="0.7788098529418102"/>
      <path id="ID0.6829322893172503" fill="#1D1E1F" stroke="none" stroke-linecap="round" d="M 236.138 185.8881 L 225.5182 182.8036 L 223.355 188.5186 L 220.4917 194.7513 L 221.4307 200.1215 L 222.7774 204.4321 L 225.1984 206.9736 L 227.6476 213.068 L 232.0253 212.1049 L 232.8407 209.9857 L 234.3415 209.5257 L 236.9742 206.4958 L 239.7317 203.0488 L 240.9118 198.494 L 238.9708 191.9154 L 236.138 185.8881 Z " stroke-width="0.7788098529418102"/>
      <path id="ID0.47767175547778606" fill="none" stroke="#0D0D0D" stroke-width="1.5576197058836203" stroke-linecap="round" d="M 230.6694 128.6147 L 229.7301 124.8258 L 213.9356 137.589 L 216.5431 150.6923 "/>
      <path id="ID0.5922487881034613" fill="#282A2B" stroke="none" stroke-linecap="round" d="M 236.6024 156.7723 L 229.0407 152.6392 L 223.3004 153.722 L 218.4491 160.3419 L 222.2533 174.1847 L 227.9053 180.5097 L 231.1658 179.9396 L 235.7123 172.0289 L 236.6024 156.7723 Z " stroke-width="0.7788098529418102"/>
      <path id="ID0.36820242274552584" fill="#151616" stroke="none" stroke-linecap="round" d="M 231.1348 160.3139 L 223.1428 161.6323 L 227.5659 172.0067 L 228.9717 171.6818 L 231.1348 160.3139 Z " stroke-width="0.7788098529418102"/>
      <path id="ID0.13569410238415003" fill="none" stroke="#232425" stroke-width="1.5576197058836203" stroke-linecap="round" d="M 233.5769 170.5629 L 229.3871 178.253 L 223.2699 172.207 "/>
      <path id="ID0.024502143263816833" fill="none" stroke="#0D0D0D" stroke-width="1.5576197058836203" stroke-linecap="round" d="M 236.0644 156.5292 L 229.2468 152.5822 L 223.5295 153.3447 L 218.6016 159.978 L 220.854 167.8857 "/>
    </g>
  </g>
  <g id="ID0.9602425838820636">
    <g id="ID0.17693647183477879">
      <path id="ID0.7729651997797191" fill="#3E4246" stroke="none" stroke-linecap="round" d="M 126.7201 79.215 L 138.6003 95.607 L 123.1771 103.5216 L 110.7958 109.994 L 103.9179 110.625 L 99.034 110.1463 L 93.6825 98.1648 L 97.3496 93.3035 L 116.3047 84.865 L 126.7201 79.215 Z " stroke-width="0.8164595948950127"/>
      <path id="ID0.9716172609478235" fill="#393C40" stroke="none" stroke-linecap="round" d="M 124.8522 86.138 L 123.5724 80.8497 L 129.8115 78.1548 L 133.7311 98.2332 L 129.4793 97.8164 L 124.5301 94.7498 L 124.8522 86.138 Z " stroke-width="0.8164595948950127"/>
      <g id="ID0.38066427363082767">
        <path id="ID0.4757494777441025" fill="#1D1E1F" stroke="none" stroke-linecap="round" d="M 151.9692 70.5682 L 159.065 75.8308 L 165.4185 91.2541 L 140.521 101.0767 L 130.0843 96.2478 L 126.3853 93.4325 L 126.1849 89.4379 L 126.671 85.3414 L 125.0679 79.264 L 129.2234 75.6964 L 135.9315 71.1104 L 144.4102 68.3048 L 151.9692 70.5682 Z " stroke-width="0.47614254833297776"/>
        <path id="ID0.6007084371522069" fill="none" stroke="#0D0D0D" stroke-width="0.9522850966659555" stroke-linecap="round" d="M 125.0941 79.8586 L 126.5955 85.2494 L 126.4641 90.903 L 126.2933 93.5081 L 130.0843 96.2478 L 134.6276 98.2155 "/>
      </g>
    </g>
    <g id="ID0.7397577832452953">
      <path id="ID0.6726378230378032" fill="#393C40" stroke="none" stroke-linecap="round" d="M 100.0964 91.8628 L 103.3806 110.1386 L 101.0959 110.9588 L 98.1969 92.8948 L 100.0964 91.8628 Z " stroke-width="0.8164595948950127"/>
      <path id="ID0.6507829907350242" fill="#1D1E1F" stroke="none" stroke-linecap="round" d="M 97.0848 90.087 L 101.2478 111.2334 L 86.3204 122.9672 L 76.8231 128.1271 L 64.363 138.3625 L 59.7045 142.9816 L 50.4831 134.9715 L 55.4007 130.6678 L 61.8054 123.0294 L 69.6127 112.918 L 75.8597 105.4091 L 97.0848 90.087 Z " stroke-width="0.8164595948950127"/>
      <path id="ID0.6829322893172503" fill="#1D1E1F" stroke="none" stroke-linecap="round" d="M 50.5395 134.3969 L 61.0902 139.2018 L 58.9046 145.2235 L 56.9219 152.1353 L 52.5056 155.763 L 48.4893 158.2697 L 44.8278 158.6359 L 38.716 161.8074 L 35.8938 158.0502 L 36.6937 155.8082 L 35.8149 154.4169 L 35.7923 150.209 L 35.9557 145.5843 L 38.13 141.1567 L 44.1685 137.2529 L 50.5395 134.3969 Z " stroke-width="0.8164595948950127"/>
      <path id="ID0.47767175547778606" fill="none" stroke="#0D0D0D" stroke-width="1.6329191897900255" stroke-linecap="round" d="M 94.025 92.6005 L 97.3608 90.2301 L 101.196 111.1703 L 90.1688 119.8059 "/>
      <path id="ID0.5922487881034613" fill="#282A2B" stroke="none" stroke-linecap="round" d="M 70.2083 110.8771 L 79.0443 112.7584 L 82.868 117.542 L 82.2011 126.12 L 69.7173 134.5257 L 60.9016 135.6918 L 58.6991 133.0105 L 60.4903 123.6146 L 70.2083 110.8771 Z " stroke-width="0.8164595948950127"/>
      <path id="ID0.36820242274552584" fill="#151616" stroke="none" stroke-linecap="round" d="M 72.0467 117.4691 L 77.4995 123.9786 L 66.8937 129.2039 L 65.9981 127.9849 L 72.0467 117.4691 Z " stroke-width="0.8164595948950127"/>
      <path id="ID0.13569410238415003" fill="none" stroke="#232425" stroke-width="1.6329191897900255" stroke-linecap="round" d="M 63.0481 123.9633 L 61.1239 132.9401 L 70.1187 132.3136 "/>
      <path id="ID0.024502143263816833" fill="none" stroke="#0D0D0D" stroke-width="1.6329191897900255" stroke-linecap="round" d="M 70.6604 111.1064 L 78.7777 112.6272 L 82.8019 117.1404 L 82.1869 125.7815 L 74.9924 130.5291 "/>
    </g>
  </g>
  <g id="ID0.9157347986474633">
    <path id="ID0.7477802094072104" fill="#363A3D" stroke="none" stroke-linecap="round" d="M 198.611 126.1223 L 179.8364 119.8673 L 173.0893 160.4972 L 188.0667 172.0343 L 194.3383 148.2186 L 198.611 126.1223 Z " stroke-width="0.4761425839687243"/>
    <path id="ID0.7477802094072104" fill="#363A3D" stroke="none" stroke-linecap="round" d="M 139.0461 116.2344 L 162.6473 117.2576 L 155.9002 157.8876 L 137.9979 163.9646 L 136.7107 138.2904 L 139.0461 116.2344 Z " stroke-width="0.4761425839687243"/>
    <path id="ID0.4270821204409003" fill="#3E4246" stroke="none" stroke-linecap="round" d="M 142.6623 96.4905 L 148.4675 84.7846 L 151.6541 79.4012 L 159.2631 73.5454 L 189.6777 80.0441 L 195.7865 85.4025 L 197.9418 89.8631 L 202.998 102.2866 L 200.5774 112.5032 L 198.741 117.7489 L 199.2539 124.8327 L 198.8266 130.3124 L 195.5819 136.7722 L 193.1269 141.6738 L 190.4316 150.6381 L 188.3232 172.4905 L 181.9048 179.7506 L 176.1663 185.0964 L 163.323 188.466 L 152.3808 183.584 L 149.6055 176.3176 L 145.7735 169.1653 L 137.8492 164.712 L 140.8755 139.5128 L 140.7932 132.7418 L 138.156 120.72 L 138.6388 109.8196 L 142.6623 96.4905 Z " stroke-width="0.4761425839687243"/>
    <path id="ID0.052435632329434156" fill="#393C40" stroke="none" stroke-linecap="round" d="M 146.4851 147.6931 L 150.8691 148.4694 L 156.8364 152.7907 L 161.8661 153.457 L 167.3745 156.1817 L 171.6835 155.8113 L 173.4055 155.6146 L 187.984 154.5845 L 187.7981 157.884 L 178.6608 160.5899 L 172.8401 159.3096 L 166.8218 161.3992 L 160.8231 156.8314 L 154.4118 156.2011 L 145.2893 150.8249 L 146.4851 147.6931 Z " stroke-width="0.4761425839687243"/>
    <path id="ID0.4987568911164999" fill="none" stroke="#27282B" stroke-width="0.9522851679374486" stroke-linecap="round" d="M 158.9489 74.1799 L 151.5938 79.2331 L 146.6678 88.551 "/>
    <path id="ID0.2889464790932834" fill="none" stroke="#27282B" stroke-width="0.9522851679374486" stroke-linecap="round" d="M 190.89 80.9321 L 195.9026 85.6258 L 200.0181 95.7211 "/>
    <path id="ID0.8373676878400147" fill="#000000" stroke="#2C2F31" stroke-width="0.6155104059455094" stroke-linecap="round" d="M 160.3949 87.6234 L 160.9853 86.1694 L 157.2458 86.4751 L 151.9119 88.9833 L 147.0169 93.2982 L 143.6838 98.459 L 149.1185 97.0665 L 153.772 97.7183 L 156.3344 99.0681 L 158.3569 102.4297 L 160.5991 101.7604 L 164.6013 102.1314 L 168.8876 103.888 L 172.1661 107.6456 L 173.7207 110.9965 L 176.3373 108.3621 L 180.4944 105.8647 L 184.7881 105.1163 L 189.8807 105.9301 L 191.5938 106.8047 L 193.7714 104.0084 L 195.9057 103.0836 L 198.389 104.0267 L 200.8974 106.0711 L 200.0914 102.0797 L 198.4686 97.8544 L 196.1438 94.4351 L 193.3727 91.7141 L 189.0576 90.1086 L 190.9037 92.3401 L 190.5725 94.0784 L 188.6577 95.9066 L 184.9362 96.529 L 181.7655 96.3165 L 179.167 95.978 L 177.2598 92.0117 L 176.493 93.9803 L 175.057 93.7067 L 173.9163 91.0614 L 172.2929 95.0598 L 168.244 94.5233 L 164.3211 92.9142 L 161.2405 90.9957 L 160.3949 87.6234 Z "/>
    <path id="ID0.5698574706912041" fill="none" stroke="#313537" stroke-width="0.9522851679374486" stroke-linecap="round" d="M 146.442 147.517 L 145.3283 150.59 L 154.3923 156.3185 L 161.1442 157.0777 L 166.6065 161.2428 "/>
    <path id="ID0.5698574706912041" fill="none" stroke="#313537" stroke-width="0.8933066562151265" stroke-linecap="round" d="M 187.7304 154.6221 L 187.7157 157.8776 L 178.5368 160.5766 L 172.7604 159.2554 L 167.0131 161.559 "/>
    <path id="ID0.8947288258932531" fill="#393C40" stroke="none" stroke-linecap="round" d="M 149.6915 135.9418 L 156.6392 136.9749 L 163.7721 140.09 L 168.4569 146.4669 L 162.1758 140.9833 L 151.8061 137.7409 L 146.2614 139.8851 L 149.6915 135.9418 Z " stroke-width="0.4761425839687243"/>
    <path id="ID0.8947288258932531" fill="#393C40" stroke="none" stroke-linecap="round" d="M 187.7617 143.2898 L 181.6476 142.1677 L 174.783 142.7363 L 169.0356 146.7368 L 175.8643 143.941 L 185.4762 144.1917 L 189.5064 147.5733 L 187.7617 143.2898 Z " stroke-width="0.42137391058675056"/>
    <path id="ID0.9897695370018482" fill="#393C40" stroke="none" stroke-linecap="round" d="M 151.0884 148.6023 L 144.7079 147.0601 L 145.8911 142.5506 L 146.4921 146.198 L 151.4946 147.1735 L 156.9805 151.6321 L 162.4407 152.1768 L 166.2462 154.2568 L 168.8954 146.7327 L 167.5234 156.4478 L 162.3319 153.5585 L 156.531 152.5952 L 151.0884 148.6023 Z " stroke-width="0.4761425839687243"/>
    <path id="ID0.9897695370018482" fill="#393C40" stroke="none" stroke-linecap="round" d="M 182.9162 154.1362 L 188.4506 154.6063 L 188.8004 150.2877 L 187.2741 153.3336 L 183.002 152.7589 L 177.3445 155.1187 L 172.8308 154.0325 L 169.197 154.7757 L 169.242 147.3765 L 167.549 156.3425 L 172.5211 155.2829 L 177.4269 156.0975 L 182.9162 154.1362 Z " stroke-width="0.4232251200282832"/>
    <path id="ID0.3524594851769507" fill="#393C40" stroke="none" stroke-linecap="round" d="M 167.0583 116.0765 L 172.5239 119.2043 L 177.2979 117.6321 L 173.5503 120.871 L 172.6645 132.0183 L 181.7529 132.6587 L 170.8812 134.4733 L 160.1416 127.9356 L 169.3687 131.5192 L 170.8181 120.3208 L 167.0583 116.0765 Z " stroke-width="0.4761425839687243"/>
    <path id="ID0.9214867809787393" fill="#393C40" stroke="none" stroke-linecap="round" d="M 150.3272 132.1136 L 153.9532 128.4442 L 158.8063 128.2848 L 152.2724 132.0264 L 151.5578 134.8761 L 156.5289 135.7499 L 164.0579 140.2581 L 155.5159 136.909 L 149.7385 135.9496 L 150.3272 132.1136 Z " stroke-width="0.4761425839687243"/>
    <path id="ID0.9214867809787393" fill="#393C40" stroke="none" stroke-linecap="round" d="M 188.0975 139.1749 L 186.0695 134.7617 L 181.9196 133.1513 L 186.4412 138.5084 L 186.1984 141.3008 L 181.6342 140.589 L 174.6133 142.3019 L 182.1603 141.943 L 187.4478 142.8211 L 188.0975 139.1749 Z " stroke-width="0.4451788576535537"/>
    <path id="ID0.8679121839813888" fill="#2C2F31" stroke="none" stroke-linecap="round" d="M 169.1665 115.3081 L 172.659 117.5291 L 176.2161 116.4547 L 176.9995 117.5501 L 172.6876 119.5369 L 167.3707 116.3855 L 169.1665 115.3081 Z " stroke-width="0.4761425839687243"/>
    <path id="ID0.24770551454275846" fill="none" stroke="#313537" stroke-width="0.9522851679374486" stroke-linecap="round" d="M 173.4321 114.1161 L 177.4267 118.3994 L 184.7467 120.0977 L 192.4375 120.2888 L 198.2284 117.3892 "/>
    <path id="ID0.20603158557787538" fill="none" stroke="#313537" stroke-width="0.9522851679374486" stroke-linecap="round" d="M 141.2175 104.6598 L 147.2682 111.0946 L 158.9541 116.2931 L 166.2147 116.8955 L 172.9644 114.0344 "/>
    <g id="ID0.5272086253389716">
      <path id="ID0.24770551454275846" fill="none" stroke="#363A3D" stroke-width="0.9522851066969494" stroke-linecap="round" d="M 139.2397 137.2403 L 149.5284 135.7391 "/>
      <path id="ID0.24770551454275846" fill="none" stroke="#363A3D" stroke-width="0.9522851066969494" stroke-linecap="round" d="M 138.6599 125.1226 L 159.8284 122.3391 "/>
    </g>
    <g id="ID0.5272086253389716">
      <path id="ID0.24770551454275846" fill="none" stroke="#363A3D" stroke-width="0.9522850816809121" stroke-linecap="round" d="M 194.1664 145.4277 L 187.6218 142.4835 "/>
      <path id="ID0.24770551454275846" fill="none" stroke="#363A3D" stroke-width="0.9522850816809121" stroke-linecap="round" d="M 196.5149 134.2468 L 183.6074 127.2772 "/>
    </g>
    <g id="ID0.7887678607366979">
      <path id="ID0.753661650698632" fill="none" stroke="#313537" stroke-width="0.9522851066969494" stroke-linecap="round" d="M 167.5085 116.2719 L 172.2853 119.4784 L 176.7068 117.558 "/>
      <g id="ID0.8167418288066983">
        <path id="ID0.9553722990676761" fill="none" stroke="#313537" stroke-width="1.0409107773624173" stroke-linecap="round" d="M 170.4508 134.221 L 165.2648 131.1878 L 159.4861 128.2976 L 154.6237 128.4554 L 150.4611 132.1082 L 149.8956 135.5136 "/>
        <path id="ID0.5982440118677914" fill="none" stroke="#313537" stroke-width="0.8540413552749858" stroke-linecap="round" d="M 159.8712 127.9374 L 159.5641 122.5207 L 165.8871 116.4163 "/>
      </g>
      <g id="ID0.7324484633281827">
        <path id="ID0.04993448918685317" fill="none" stroke="#313537" stroke-width="0.9522851066969494" stroke-linecap="round" d="M 172.3048 119.361 L 171.2933 129.8116 L 169.072 146.0946 L 166.6353 162.2212 "/>
        <g id="ID0.8167418288066983">
          <path id="ID0.9553722990676761" fill="none" stroke="#313537" stroke-width="0.9699703335790443" stroke-linecap="round" d="M 170.7793 134.1442 L 175.969 133.6305 L 181.638 132.6412 L 185.6215 134.268 L 187.9633 139.0009 L 187.3978 142.4063 "/>
          <path id="ID0.5982440118677914" fill="none" stroke="#313537" stroke-width="0.7916616451019644" stroke-linecap="round" d="M 181.4554 132.2953 L 183.3554 127.2451 L 179.9671 119.528 "/>
          <path id="ID0.3567589442245662" fill="none" stroke="#313537" stroke-width="0.8967655480907116" stroke-linecap="round" d="M 168.8348 146.713 L 174.7108 142.6449 L 182.2525 141.9667 L 187.7058 142.8723 L 189.1556 147.819 L 188.2943 154.7952 L 182.7033 154.5908 L 176.619 156.7177 L 171.8038 155.6767 L 167.3515 156.7957 L 161.9979 153.3726 L 156.4436 152.6916 L 150.6091 148.5854 L 144.5085 146.8484 L 145.9895 139.975 L 149.2701 135.8138 L 155.467 136.8429 L 163.3763 140.087 L 168.3037 145.9491 Z "/>
        </g>
      </g>
    </g>
    <g id="ID0.9312638868577778">
      <path id="ID0.2888958193361759" fill="#393C40" stroke="none" stroke-linecap="round" d="M 147.6431 156.1172 L 157.3807 159.8471 L 156.3162 162.6261 L 146.5786 158.8962 L 147.6431 156.1172 Z " stroke-width="0.4761425490144655"/>
      <path id="ID0.2888958193361759" fill="#393C40" stroke="none" stroke-linecap="round" d="M 137.3629 152.3377 L 148.2807 156.6471 L 147.2162 159.4261 L 137.4786 155.6962 L 137.3629 152.3377 Z " stroke-width="0.4761425490144655"/>
      <g id="ID0.36424446757882833">
        <path id="ID0.7359844641759992" fill="#8A7B59" stroke="none" d="M 150.5751 155.8518 L 152.0781 156.1015 L 151.0563 162.2547 L 149.5533 162.0051 L 150.5751 155.8518 Z " stroke-width="0.4761425533484747"/>
        <path id="ID0.7359844641759992" fill="#8A7B59" stroke="none" d="M 148.7751 155.1518 L 150.2781 155.4015 L 149.2563 161.5547 L 147.7533 161.3051 L 148.7751 155.1518 Z " stroke-width="0.4761425533484747"/>
        <path id="ID0.7359844641759992" fill="#8A7B59" stroke="none" d="M 146.9751 154.1518 L 148.4781 154.4015 L 147.4563 160.5547 L 145.9533 160.3051 L 146.9751 154.1518 Z " stroke-width="0.4761425533484747"/>
        <path id="ID0.7359844641759992" fill="#8A7B59" stroke="none" d="M 152.3751 156.6518 L 153.8781 156.9015 L 152.8563 163.0547 L 151.3533 162.8051 L 152.3751 156.6518 Z " stroke-width="0.4761425533484747"/>
      </g>
      <g id="ID0.1049797898158431">
        <path id="ID0.08871637750416994" fill="#8A7B59" stroke="none" stroke-linecap="round" d="M 139.186 151.9027 L 145.332 153.9852 L 144.3685 159.4964 L 138.4613 157.4295 L 139.186 151.9027 Z " stroke-width="0.4761425533484747"/>
        <path id="ID0.13805592898279428" fill="#76694C" stroke="none" stroke-linecap="round" d="M 139.0285 151.6035 L 145.4798 153.7367 L 145.1018 156.594 L 138.6426 154.363 L 139.0285 151.6035 Z " stroke-width="0.4761425533484747"/>
        <path id="ID0.3221200187690556" fill="#61563F" stroke="none" stroke-linecap="round" d="M 141.4699 154.2587 L 142.2773 154.7595 L 142.066 156.5055 L 141.1778 156.0175 L 141.4699 154.2587 Z " stroke-width="0.5167888696955751"/>
        <path id="ID0.1420820001512766" fill="#BAA578" stroke="none" stroke-linecap="round" d="M 143.8427 158.4586 L 144.7813 157.1665 L 144.4499 159.4524 L 138.437 157.4403 L 143.8427 158.4586 Z " stroke-width="0.4761425533484747"/>
      </g>
      <path id="ID0.2888958193361759" fill="#393C40" stroke="none" stroke-linecap="round" d="M 184.7114 162.6116 L 177.0912 163.1841 L 177.102 165.7571 L 184.7222 165.1846 L 184.7114 162.6116 Z " stroke-width="0.38104699061083686"/>
      <path id="ID0.2888958193361759" fill="#393C40" stroke="none" stroke-linecap="round" d="M 191.4603 161.9152 L 184.2412 162.6841 L 184.252 165.2571 L 190.5671 164.7209 L 191.4603 161.9152 Z " stroke-width="0.38104699061083686"/>
      <path id="ID0.7359844641759992" fill="#8A7B59" stroke="none" d="M 182.8604 161.2896 L 181.7683 161.1083 L 180.8795 166.4609 L 181.9716 166.6423 L 182.8604 161.2896 Z " stroke-width="0.38160280584417416"/>
      <path id="ID0.7359844641759992" fill="#8A7B59" stroke="none" d="M 184.3104 161.0396 L 183.2183 160.8583 L 182.3295 166.2109 L 183.4216 166.3923 L 184.3104 161.0396 Z " stroke-width="0.38160280584417416"/>
      <path id="ID0.7359844641759992" fill="#8A7B59" stroke="none" d="M 185.8604 160.7896 L 184.7683 160.6083 L 183.8795 165.9609 L 184.9716 166.1423 L 185.8604 160.7896 Z " stroke-width="0.38160280584417416"/>
      <path id="ID0.7359844641759992" fill="#8A7B59" stroke="none" d="M 181.3604 161.5896 L 180.2683 161.4083 L 179.3795 166.7609 L 180.4716 166.9423 L 181.3604 161.5896 Z " stroke-width="0.38160280584417416"/>
      <g id="ID0.1049797898158431">
        <path id="ID0.08871637750416994" fill="#8A7B59" stroke="none" stroke-linecap="round" d="M 191.838 160.9328 L 186.8023 161.078 L 185.9915 166.1851 L 190.8495 165.9881 L 191.838 160.9328 Z " stroke-width="0.4054529774502679"/>
        <path id="ID0.13805592898279428" fill="#76694C" stroke="none" stroke-linecap="round" d="M 192.0889 160.7473 L 186.8176 160.8534 L 186.3089 163.4679 L 191.6128 163.278 L 192.0889 160.7473 Z " stroke-width="0.4054529774502679"/>
        <path id="ID0.3221200187690556" fill="#61563F" stroke="none" stroke-linecap="round" d="M 189.7157 162.4082 L 188.9919 162.6269 L 188.6668 164.2192 L 189.4458 164.0338 L 189.7157 162.4082 Z " stroke-width="0.4400648170555984"/>
        <path id="ID0.1420820001512766" fill="#BAA578" stroke="none" stroke-linecap="round" d="M 186.6987 165.4455 L 186.3711 164.0528 L 185.9852 166.1524 L 190.9049 166.0325 L 186.6987 165.4455 Z " stroke-width="0.4054529774502679"/>
      </g>
      <g id="ID0.6836685389280319">
        <path id="ID0.09357938077300787" fill="#857656" stroke="none" d="M 158.3453 157.0553 L 176.0769 159.9998 L 175.0239 166.3409 L 157.2923 163.3964 L 158.3453 157.0553 Z " stroke-width="0.4283320793639229"/>
        <path id="ID0.6492703901603818" fill="#7C6E50" stroke="none" stroke-linecap="round" d="M 158.6915 159.3492 L 166.287 163.7478 L 175.5072 162.1416 L 174.809 166.3456 L 157.9934 163.5531 L 158.6915 159.3492 Z " stroke-width="0.4761425533484747"/>
        <g id="ID0.9254062357358634">
          <g id="ID0.49943465692922473">
            <path id="ID0.140373723115772" fill="#968561" stroke="none" d="M 174.789 158.6244 L 179.8384 159.4629 L 178.3564 168.3874 L 173.307 167.5489 L 174.789 158.6244 Z " stroke-width="0.4761425533484747"/>
            <path id="ID0.8286363878287375" fill="#BAA578" stroke="none" stroke-linecap="round" d="M 174.7935 158.4356 L 179.9213 159.5285 L 175.7101 159.6014 L 174.3492 161.5474 L 174.7935 158.4356 Z " stroke-width="0.4761425533484747"/>
            <path id="ID0.7362233307212591" fill="#8A7B59" stroke="none" stroke-linecap="round" d="M 173.8186 164.4518 L 176.4881 164.9434 L 179.305 162.9496 L 178.3885 168.4686 L 173.2921 167.6223 L 173.8186 164.4518 Z " stroke-width="0.4761425533484747"/>
          </g>
          <g id="ID0.49943465692922473">
            <path id="ID0.140373723115772" fill="#968561" stroke="none" d="M 159.8756 156.389 L 154.8262 155.5505 L 153.3442 164.475 L 158.3936 165.3135 L 159.8756 156.389 Z " stroke-width="0.4761425533484747"/>
            <path id="ID0.8286363878287375" fill="#BAA578" stroke="none" stroke-linecap="round" d="M 159.9665 156.2066 L 154.7607 155.5834 L 158.7223 157.0136 L 159.3812 159.295 L 159.9665 156.2066 Z " stroke-width="0.4761425533484747"/>
            <path id="ID0.7362233307212591" fill="#8A7B59" stroke="none" stroke-linecap="round" d="M 158.9446 162.215 L 156.2594 161.8174 L 154.2382 159.0201 L 153.3217 164.5392 L 158.4181 165.3855 L 158.9446 162.215 Z " stroke-width="0.4761425533484747"/>
          </g>
        </g>
      </g>
    </g>
  </g>
  <g id="ID0.8333355090580881">
    <path id="ID0.9286923445761204" fill="#27282B" stroke="none" stroke-linecap="round" d="M 170.2494 40.9176 L 188.6514 45.0735 L 185.6325 69.2451 L 199.6883 78.497 L 175.442 86.4606 L 140.9554 68.7899 L 162.1473 61.1537 L 170.2494 40.9176 Z " stroke-width="0.47614259146178506"/>
    <path id="ID0.5448851804248989" fill="none" stroke="#1D1E1F" stroke-width="0.9522851829235701" stroke-linecap="round" d="M 164.3866 55.6566 L 162.3631 60.9925 L 178.1544 71.2173 L 185.3361 69.2984 "/>
    <path id="ID0.262191956397146" fill="none" stroke="#1D1E1F" stroke-width="0.9522851829235701" stroke-linecap="round" d="M 166.4101 60.9531 L 178.1049 68.9009 L 181.234 68.2233 "/>
  </g>
  <g id="ID0.3450673264451325">
    <g id="ID0.9831569031812251">
      <path id="ID0.0877610077150166" fill="#2E3034" stroke="none" stroke-linecap="round" d="M 198.2271 15.5212 L 194.8596 2.0448 L 192.2798 30.4566 L 199.9198 31.1503 L 198.2271 15.5212 Z " stroke-width="0.5866066417642142"/>
      <path id="ID0.796130308881402" fill="#242628" stroke="none" stroke-linecap="round" d="M 198.5264 15.6037 L 194.8047 2.0953 L 197.0951 16.1982 L 196.6849 31.1095 L 199.8738 31.1027 L 198.5264 15.6037 Z " stroke-width="0.5866066417642142"/>
    </g>
    <g id="ID0.9831569031812251">
      <path id="ID0.0877610077150166" fill="#2E3034" stroke="none" stroke-linecap="round" d="M 174.43 13.5764 L 180.1697 0.9269 L 177.5899 29.3387 L 169.95 28.645 L 174.43 13.5764 Z " stroke-width="0.5866066417642142"/>
      <path id="ID0.796130308881402" fill="#242628" stroke="none" stroke-linecap="round" d="M 174.014 13.5549 L 180.1079 0.9376 L 175.3149 14.3973 L 172.9105 28.7984 L 169.8971 28.5577 L 174.014 13.5549 Z " stroke-width="0.5866066417642142"/>
    </g>
    <path id="ID0.8999492498114705" fill="#2E3034" stroke="none" stroke-linecap="round" d="M 191.3617 20.9864 C 195.7045 21.8618 200.1719 24.9889 201.9443 29.0488 C 203.9664 33.6837 201.5203 39.0832 201.3671 44.0854 C 201.3856 45.7976 202.0164 47.6148 201.5402 49.2024 C 200.5705 52.4317 198.6295 55.2969 197.2636 58.379 C 196.3686 60.3989 196.0018 62.7301 194.6655 64.5197 C 193.1514 66.6441 191.5307 69.6439 188.9006 69.8627 C 185.0013 70.1866 181.108 67.9844 177.8313 65.9244 C 175.1395 64.2317 172.6969 61.7888 171.3797 58.8855 C 169.0368 53.5067 166.9981 47.6383 167.1462 41.7434 C 167.3105 35.2088 167.2729 27.1061 172.4336 22.8387 C 177.0791 18.7004 184.9056 19.6881 191.3617 20.9864 Z " stroke-width="0.5080372794381931"/>
    <path id="ID0.2441388238221407" fill="#AB8E85" stroke="none" d="M 186.9073 45.4764 C 190.9557 46.0117 196.6586 43.3517 199.1243 46.3334 C 201.3351 49.1356 197.5412 53.6725 196.2603 57.0441 C 194.9848 60.3974 193.9614 64.0585 191.4746 66.6977 C 190.2968 67.8643 188.0741 67.7344 186.3753 67.3065 C 183.3207 66.5336 180.3876 64.9785 177.9656 62.9604 C 175.4591 60.8728 172.1094 58.5309 171.832 55.2675 C 171.481 51.1335 172.6305 45.8206 176.0489 43.5447 C 179.1739 41.57 183.2664 44.9945 186.9073 45.4764 Z " stroke-width="1.2558400810781467"/>
    <path id="ID0.46721756737679243" fill="#A2887F" stroke="none" stroke-linecap="round" d="M 172.2014 45.3308 L 173.8091 46.1654 L 199.7485 48.1381 L 192.1045 52.5453 L 175.6561 48.5777 L 176.5532 51.0568 L 176.2986 56.6706 L 179.2661 64.1583 L 175.3166 57.0915 L 172.2014 45.3308 Z " stroke-width="0.5080372794381931"/>
    <path id="ID0.8256730306893587" fill="none" stroke="#937B73" stroke-width="1.0160745588763862" stroke-linecap="round" d="M 181.9649 58.029 C 181.9649 58.029 184.707 57.6791 186.0838 57.6123 C 186.4281 57.5956 186.758 57.7036 187.0888 57.78 C 187.425 57.858 187.7377 58.0547 188.0823 58.0743 C 188.7654 58.1134 189.4496 57.9776 190.1337 57.9545 C 190.473 57.9429 190.8149 57.9357 191.1525 57.9705 C 191.4906 58.0053 191.8323 58.0567 192.1552 58.1635 C 192.6861 58.3393 193.7031 58.8142 193.7031 58.8142 "/>
    <path id="ID0.7592270169407129" fill="none" stroke="#937B73" stroke-width="1.0160745588763862" stroke-linecap="round" d="M 190.394 60.1231 C 190.394 60.1231 189.7435 60.4104 189.3959 60.4406 C 189.0586 60.4702 188.7271 60.2947 188.3886 60.2981 C 188.048 60.3019 187.7193 60.4496 187.379 60.4615 C 187.0407 60.4737 186.6887 60.4744 186.3671 60.3697 C 186.0936 60.2805 185.6449 59.896 185.6449 59.896 "/>
    <path id="ID0.5332203092984855" fill="none" stroke="#937B73" stroke-width="1.0160745588763862" stroke-linecap="round" d="M 185.3797 50.2003 C 185.3797 50.2003 184.7375 50.5756 184.6024 50.8949 C 184.4258 51.3232 184.0959 52.1416 184.5083 52.4933 C 185.0604 52.8347 185.8815 52.1792 186.5666 52.2975 C 187.2293 52.4149 188.4939 52.9827 188.4939 52.9827 "/>
    <path id="ID0.2278452254831791" fill="none" stroke="#937B73" stroke-width="1.0160745588763862" stroke-linecap="round" d="M 190.0364 46.9502 C 190.0364 46.9502 190.7984 48.8895 191.1751 49.8593 C 191.3012 50.1839 191.4435 50.504 191.5455 50.8366 C 191.6474 51.1693 191.8298 51.5083 191.7847 51.8531 C 191.7396 52.199 191.505 52.5011 191.2927 52.7777 C 191.1509 52.9627 190.7431 53.2124 190.7431 53.2124 "/>
    <path id="ID0.6473136460408568" fill="none" stroke="#937B73" stroke-width="1.0160745386284473" stroke-linecap="round" d="M 188.7437 63.7916 C 188.7437 63.7916 189.0017 64.4525 189.0212 64.8002 C 189.0398 65.1388 188.9486 65.4795 188.8552 65.8055 C 188.7148 66.2968 188.3223 67.2444 188.3223 67.2444 "/>
    <path id="ID0.11669129692018032" fill="#2E3034" stroke="none" stroke-linecap="round" d="M 174.6064 40.1928 L 197.5931 44.0654 L 201.2731 47.0777 L 191.488 50.9079 L 171.1 46.5061 L 174.6064 40.1928 Z " stroke-width="0.5080372794381931"/>
    <path id="ID0.14635155349969864" fill="#2E3034" stroke="none" stroke-linecap="round" d="M 171.4747 45.1883 L 173.287 45.7354 L 175.4471 51.1604 L 175.2292 56.9305 L 176.7061 60.8906 L 179.2708 64.6688 L 171.5452 58.7386 L 171.4747 45.1883 Z " stroke-width="0.5080372794381931"/>
    <path id="ID0.28340246016159654" fill="#1C1D1F" stroke="none" stroke-linecap="round" d="M 175.0064 37.0147 L 178.2828 38.8578 L 187.8304 40.6196 L 187.3103 46.3481 L 180.4839 44.7792 L 176.7356 43.3542 L 174.8553 41.665 L 174.1509 39.8656 L 175.0064 37.0147 Z " stroke-width="0.5401026700211686"/>
    <path id="ID0.6101007834076881" fill="#FFFFFF" stroke="none" stroke-linecap="round" d="M 178.5947 39.9166 L 180.2046 40.4642 L 183.8604 42.0023 L 184.2249 44.0117 L 179.1231 42.0896 L 178.5947 39.9166 Z " stroke-width="0.40610620718450907"/>
    <path id="ID0.28340246016159654" fill="#1C1D1F" stroke="none" stroke-linecap="round" d="M 200.5312 39.3493 L 197.3613 40.4397 L 188.7036 40.4516 L 188.2398 45.5599 L 194.4796 45.2801 L 197.9962 44.6322 L 199.9168 43.4525 L 200.8236 41.9873 L 200.5312 39.3493 Z " stroke-width="0.48162497700163115"/>
    <path id="ID0.6101007834076881" fill="#FFFFFF" stroke="none" stroke-linecap="round" d="M 198.6215 41.2391 L 197.0419 41.589 L 193.4242 42.6623 L 192.8699 44.5247 L 197.8952 43.239 L 198.6215 41.2391 Z " stroke-width="0.38638675281547813"/>
    <g id="ID0.07940126257017255">
      <path id="ID0.46257128613069654" fill="#27282B" stroke="none" stroke-linecap="round" d="M 188.0556 40.5243 L 191.4811 50.8338 L 181.6033 48.6616 L 188.0556 40.5243 Z " stroke-width="0.5080372794381931"/>
      <path id="ID0.9845890481956303" fill="#27282B" stroke="none" stroke-linecap="round" d="M 188.8674 40.7225 L 196.4484 48.8077 L 191.5639 50.9148 L 188.8674 40.7225 Z " stroke-width="0.5080372794381931"/>
    </g>
    <path id="ID0.20071752788498998" fill="#202324" stroke="none" d="M 180.0836 35.2312 L 183.9751 38.1607 L 188.6001 39.754 L 188.5497 41.1522 L 180.9234 39.1845 L 175.2656 36.3242 L 177.1467 34.7095 L 180.0836 35.2312 Z " stroke-width="0.5080372794381931"/>
    <path id="ID0.20071752788498998" fill="#202324" stroke="none" d="M 197.0157 36.4278 L 193.7539 38.5887 L 188.3906 39.6696 L 188.2051 40.9398 L 195.4126 40.4242 L 201.0037 38.896 L 199.6742 36.5288 L 197.0157 36.4278 Z " stroke-width="0.4660979837123361"/>
    <path id="ID0.521138689480722" fill="none" stroke="#212325" stroke-width="0.9060627743811707" stroke-linecap="round" d="M 200.5852 39.0959 L 197.2159 40.3821 L 188.5986 40.8506 "/>
    <path id="ID0.17828734638169408" fill="none" stroke="#202324" stroke-width="1.0160745588763862" stroke-linecap="round" d="M 191.4373 50.3422 L 189.1827 42.8682 C 188.4047 40.3683 188.5011 40.9479 188.4005 39.9659 C 188.3653 39.623 188.6128 39.3078 188.6947 38.9724 C 188.7752 38.642 188.8697 38.3093 188.8878 37.9697 C 188.9062 37.6265 188.8379 37.2831 188.8026 36.9417 C 188.7474 36.4087 188.6161 35.3434 188.6161 35.3434 "/>
    <path id="ID0.521138689480722" fill="none" stroke="#212325" stroke-width="1.0160745588763862" stroke-linecap="round" d="M 175.3094 36.5867 L 178.7662 38.686 L 188.1772 40.9434 "/>
    <path id="ID0.8012696979567409" fill="none" stroke="url(#grad_1)" stroke-width="1.0160745588763862" stroke-linecap="round" d="M 199.7898 47.6827 L 191.9985 50.9033 L 173.6919 46.8945 L 175.3159 50.9189 L 175.0682 57.018 L 176.6647 60.7848 L 179.2202 64.6643 "/>
    <path id="ID0.043594349175691605" fill="#D7E2FD" stroke="none" stroke-linecap="round" d="M 183.5015 43.0246 L 183.8303 41.9322 L 184.1502 44.0273 L 181.6364 43.0593 L 183.5015 43.0246 Z " stroke-width="0.5080372794381931"/>
    <path id="ID0.043594349175691605" fill="#D7E2FD" stroke="none" stroke-linecap="round" d="M 193.6665 43.7668 L 193.4931 42.7443 L 192.9683 44.5982 L 195.3451 44.0084 L 193.6665 43.7668 Z " stroke-width="0.46186428837490134"/>
  </g>
  <g id="ID0.8669879510998726">
    <path id="ID0.5368814701214433" fill="#292D2E" stroke="none" stroke-linecap="round" d="M 195.4923 250.1935 L 198.4874 241.4008 L 203.0933 232.2116 L 212.9943 238.1957 L 224.1626 245.9732 L 241.492 256.5363 L 242.4877 263.065 L 217.7773 263.9304 L 196.5805 259.9948 L 195.4923 250.1935 Z " stroke-width="0.7702165753443064"/>
    <path id="ID0.05466862628236413" fill="#292D2E" stroke="none" stroke-linecap="round" d="M 199.4707 161.003 L 225.9414 157.2216 L 221.0127 176.0611 L 219.4244 181.0975 L 218.7835 199.2287 L 215.471 239.8463 L 199.7917 241.6831 L 197.6651 219.5357 L 194.959 210.8939 L 193.6537 201.4644 L 195.7718 187.9621 L 195.8078 175.641 L 199.4707 161.003 Z " stroke-width="0.7305889978321375"/>
    <path id="ID0.4490455654449761" fill="none" stroke="#272A2B" stroke-width="1.6585523899149508" stroke-linecap="round" d="M 199.1802 161.1898 L 225.6417 157.022 L 218.7846 181.4112 "/>
    <path id="ID0.10446935473009944" fill="none" stroke="#242728" stroke-width="1.6585523899149508" stroke-linecap="round" d="M 218.4098 193.7425 L 218.1962 210.5795 L 207.6272 217.8861 "/>
    <path id="ID0.42170455446466804" fill="none" stroke="#242728" stroke-width="1.6585523899149508" stroke-linecap="round" d="M 217.0902 211.7403 L 215.5895 226.7986 L 204.7999 234.2983 "/>
    <path id="ID0.047098892275244" fill="none" stroke="#242728" stroke-width="1.6585523899149508" stroke-linecap="round" d="M 196.0415 175.4388 L 195.5554 179.3488 L 200.0262 188.217 "/>
  </g>
  <path id="ID0.3809091211296618" fill="#3E4246" stroke="none" stroke-linecap="round" d="M 137.2967 155.1353 L 162.8585 165.4132 L 169.7816 178.8463 L 169.3151 184.5227 L 164.9018 194.2804 L 156.5816 196.7009 L 143.9792 198.9783 L 142.4349 187.968 L 140.1875 181.4043 L 137.2967 155.1353 Z " stroke-width="0.5909086413929773"/>
  <g id="ID0.38464318960905075">
    <path id="ID0.5368814701214433" fill="#303436" stroke="none" stroke-linecap="round" d="M 133.557 250.8374 L 137.5632 242.457 L 143.2156 233.8717 L 152.346 240.9763 L 162.5245 250.0106 L 178.4946 262.5342 L 178.7173 269.1347 L 154.0761 267.0945 L 133.4876 260.6987 L 133.557 250.8374 Z " stroke-width="0.770216547129682"/>
    <path id="ID0.05466862628236413" fill="#303436" stroke="none" stroke-linecap="round" d="M 147.8895 162.0885 L 174.621 161.4394 L 167.5157 179.5704 L 165.3473 184.3856 L 162.5832 202.3163 L 154.5273 242.2646 L 138.7408 242.2488 L 139.2278 220.0049 L 137.5544 211.1052 L 137.3647 201.5877 L 141.0526 188.4273 L 142.5342 176.1955 L 147.8895 162.0885 Z " stroke-width="0.7305890362007086"/>
    <path id="ID0.4490455654449761" fill="none" stroke="#272A2B" stroke-width="1.6585524115049803" stroke-linecap="round" d="M 147.7261 162.9777 L 174.494 161.9438 L 164.8222 185.3599 "/>
    <path id="ID0.10446935473009944" fill="none" stroke="#242728" stroke-width="1.6585524115049803" stroke-linecap="round" d="M 163.0031 197.562 L 160.8151 214.2576 L 149.4618 220.2735 "/>
    <path id="ID0.42170455446466804" fill="none" stroke="#242728" stroke-width="1.6585524115049803" stroke-linecap="round" d="M 159.5805 215.2806 L 156.3232 230.0588 L 144.7281 236.2405 "/>
    <path id="ID0.047098892275244" fill="none" stroke="#242728" stroke-width="1.6585524115049803" stroke-linecap="round" d="M 142.9658 176.6733 L 142.0242 180.4993 L 145.4235 189.8308 "/>
  </g>
</svg>