<svg xmlns="http://www.w3.org/2000/svg" xmlns:xlink="http://www.w3.org/1999/xlink" version="1.1" width="126.92864834482984" height="335.5228408497127" viewBox="0.4045237937792302 -0.6115762552396297 126.92864834482984 335.5228408497127">
  <defs>
    <linearGradient id="grad_1" y2="1" x2="0">
      <stop offset="0" stop-color="#222325" stop-opacity="1"/>
      <stop offset="1" stop-color="#2E3034" stop-opacity="1"/>
    </linearGradient>
  </defs>
  <!-- Exported by Scratch - http://scratch.mit.edu/ -->
  <g id="ID0.9602425838820636">
    <g id="ID0.17693647183477879">
      <path id="ID0.7729651997797191" fill="#393C40" stroke="none" stroke-linecap="round" d="M 99.6712 103.8082 L 80.3675 103.2785 L 82.4388 119.6842 L 84.0081 132.9183 L 87.2142 138.6739 L 90.2205 142.2618 L 102.5362 140.0252 L 104.3899 134.5204 L 100.8296 115.0515 L 99.6712 103.8082 Z " stroke-width="0.7788099444460893"/>
      <path id="ID0.9716172609478235" fill="#34373A" stroke="none" stroke-linecap="round" d="M 95.2254 109.0062 L 100.0786 107.167 L 98.8416 100.8032 L 80.921 108.5265 L 83.5383 111.6501 L 88.6176 113.8963 L 95.2254 109.0062 Z " stroke-width="0.7788099444460893"/>
      <g id="ID0.38066427363082767">
        <path id="ID0.4757494777441025" fill="#1D1E1F" stroke="none" stroke-linecap="round" d="M 92.8006 79.3882 L 84.8364 76.634 L 69.271 79.9347 L 74.9407 104.828 L 84.362 110.4464 L 88.5703 111.8435 L 91.8237 109.8506 L 94.7877 107.2624 L 100.4363 105.2528 L 101.0083 100.0599 L 101.008 92.3087 L 98.6524 84.1218 L 92.8006 79.3882 Z " stroke-width="0.4541860442197114"/>
        <path id="ID0.6007084371522069" fill="none" stroke="#0D0D0D" stroke-width="0.9083720884394229" stroke-linecap="round" d="M 99.954 105.5523 L 94.9008 107.2723 L 90.5197 110.4196 L 88.5604 111.9566 L 84.362 110.4464 L 80.3666 107.9283 "/>
      </g>
    </g>
    <g id="ID0.7397577832452953">
      <path id="ID0.6726378230378032" fill="#34373A" stroke="none" stroke-linecap="round" d="M 103.9475 131.7038 L 87.7884 138.957 L 88.3726 141.1977 L 104.1575 133.7551 L 103.9475 131.7038 Z " stroke-width="0.7788099444460893"/>
      <path id="ID0.6507829907350242" fill="#1D1E1F" stroke="none" stroke-linecap="round" d="M 107.0652 132.9973 L 88.1726 141.1039 L 86.9697 159.1755 L 88.0197 169.4319 L 86.6683 184.7539 L 85.5391 190.909 L 96.8111 193.8577 L 97.5524 187.6684 L 100.119 178.5128 L 103.8778 166.9213 L 106.4273 157.9597 L 107.0652 132.9973 Z " stroke-width="0.7788099444460893"/>
      <path id="ID0.6829322893172503" fill="#1D1E1F" stroke="none" stroke-linecap="round" d="M 97.2332 193.504 L 87.7694 187.7829 L 84.2043 192.7458 L 79.8293 198.0283 L 79.3503 203.4589 L 79.5388 207.971 L 81.2217 211.0513 L 82.0148 217.5714 L 86.4928 217.7709 L 87.8275 215.934 L 89.3962 215.8769 L 92.7218 213.6292 L 96.2755 211.0108 L 98.5914 206.915 L 98.4142 200.0583 L 97.2332 193.504 Z " stroke-width="0.7788099444460893"/>
      <path id="ID0.47767175547778606" fill="none" stroke="#0D0D0D" stroke-width="1.5576198888921786" stroke-linecap="round" d="M 106.7333 136.7599 L 106.8039 132.8569 L 88.2502 141.1108 L 87.387 154.4431 "/>
      <path id="ID0.5922487881034613" fill="#282A2B" stroke="none" stroke-linecap="round" d="M 105.0949 165.5374 L 98.8564 159.5925 L 93.0311 159.1569 L 86.6355 164.3003 L 86.7376 178.6559 L 90.5656 186.2255 L 93.8627 186.5163 L 100.297 180.0472 L 105.0949 165.5374 Z " stroke-width="0.7788099444460893"/>
      <path id="ID0.36820242274552584" fill="#151616" stroke="none" stroke-linecap="round" d="M 99.0244 167.494 L 90.9629 166.7049 L 92.5583 177.8694 L 94.0004 177.9184 L 99.0244 167.494 Z " stroke-width="0.7788099444460893"/>
      <path id="ID0.13569410238415003" fill="none" stroke="#232425" stroke-width="1.5576198888921786" stroke-linecap="round" d="M 98.7146 178.0371 L 92.6819 184.3852 L 88.3326 176.9651 "/>
      <path id="ID0.024502143263816833" fill="none" stroke="#0D0D0D" stroke-width="1.5576198888921786" stroke-linecap="round" d="M 104.7402 165.121 L 99.1725 159.548 L 93.4521 158.809 L 86.979 163.9455 L 87.1139 172.1666 "/>
    </g>
  </g>
  <path id="ID0.3809091211296618" fill="#393D40" stroke="none" stroke-linecap="round" d="M 64.691 185.8017 L 84.1167 164.8941 L 101.3516 199.6491 L 104.5123 210.1287 L 106.2147 228.6622 L 99.1724 234.2977 L 87.6143 240.2862 L 79.9813 220.9163 L 77.4764 209.7362 L 64.691 185.8017 Z " stroke-width="0.730588988761455"/>
  <path id="ID0.3809091211296618" fill="#3E4246" stroke="none" stroke-linecap="round" d="M 42.6578 153.8048 L 63.3704 170.7722 L 60.0541 209.4239 L 57.314 220.0212 L 49.1458 236.7445 L 40.2011 237.9042 L 27.2138 237.0209 L 30.1835 215.4524 L 30.6835 202.0458 L 42.6578 153.8048 Z " stroke-width="0.730588981385902"/>
  <path id="ID0.5368814701214433" fill="#303436" stroke="none" stroke-linecap="round" d="M 1.2531 316.0144 L 5.2167 307.6137 L 10.8254 298.9999 L 19.9918 306.058 L 30.216 315.0405 L 46.2495 327.4828 L 46.5057 334.082 L 21.8545 332.167 L 1.2338 325.8759 L 1.2531 316.0144 Z " stroke-width="0.7702165152737619"/>
  <g id="ID0.17693647183477879">
    <path id="ID0.7729651997797191" fill="#3E4246" stroke="none" stroke-linecap="round" d="M 15.8054 102.8955 L 36.0076 101.5885 L 34.4768 118.8561 L 33.3485 132.7815 L 30.214 138.9361 L 27.2042 142.812 L 14.215 140.9487 L 12.0585 135.254 L 15.0299 114.7193 L 15.8054 102.8955 Z " stroke-width="0.8164595616557667"/>
    <path id="ID0.9716172609478235" fill="#393C40" stroke="none" stroke-linecap="round" d="M 20.6654 108.1678 L 15.5094 106.43 L 16.5574 99.7151 L 35.6322 107.1079 L 33.012 110.4823 L 27.7784 113.0333 L 20.6654 108.1678 Z " stroke-width="0.8164595616557667"/>
    <g id="ID0.38066427363082767">
      <path id="ID0.4757494777441025" fill="#1D1E1F" stroke="none" stroke-linecap="round" d="M 21.9557 76.9356 L 30.1918 73.7399 L 46.627 76.5914 L 41.6572 102.8909 L 32.0061 109.1439 L 27.6519 110.7714 L 24.1659 108.8105 L 20.9599 106.2145 L 14.9641 104.3293 L 14.1625 98.9113 L 13.8608 90.7911 L 16.0097 82.1226 L 21.9557 76.9356 Z " stroke-width="0.47614255698965335"/>
      <path id="ID0.6007084371522069" fill="none" stroke="#0D0D0D" stroke-width="0.9522851139793067" stroke-linecap="round" d="M 15.481 104.6242 L 20.8418 106.2293 L 25.5542 109.3557 L 27.6667 110.8896 L 32.0061 109.1439 L 36.0937 106.3502 "/>
    </g>
  </g>
  <g id="ID0.7397577832452953">
    <path id="ID0.6726378230378032" fill="#393C40" stroke="none" stroke-linecap="round" d="M 12.5006 133.2339 L 30.2926 138.5477 L 29.9938 140.9567 L 12.5647 135.3946 L 12.5006 133.2339 Z " stroke-width="0.8164596120381669"/>
    <path id="ID0.6507829907350242" fill="#1D1E1F" stroke="none" stroke-linecap="round" d="M 9.5356 135.0915 L 30.2859 140.916 L 34.0234 159.5316 L 34.3439 170.3353 L 37.8573 186.073 L 39.8781 192.3143 L 28.5694 196.9303 L 26.947 190.6001 L 23.0194 181.4382 L 17.5176 169.9089 L 13.6345 160.9463 L 9.5356 135.0915 Z " stroke-width="0.8164596120381669"/>
    <path id="ID0.6829322893172503" fill="#1D1E1F" stroke="none" stroke-linecap="round" d="M 28.082 196.6209 L 37.1299 189.3724 L 41.5181 194.0396 L 46.792 198.9272 L 48.0373 204.5051 L 48.4625 209.2204 L 47.1375 212.6533 L 47.2107 219.5386 L 42.5843 220.3623 L 40.9443 218.637 L 39.3062 218.7936 L 35.5407 216.9154 L 31.487 214.6833 L 28.5164 210.7454 L 27.7567 203.5951 L 28.082 196.6209 Z " stroke-width="0.8164596120381669"/>
    <path id="ID0.47767175547778606" fill="none" stroke="#0D0D0D" stroke-width="1.6329192240763337" stroke-linecap="round" d="M 10.3984 138.9562 L 9.7878 134.9097 L 30.2062 140.9338 L 32.9383 154.6708 "/>
    <path id="ID0.5922487881034613" fill="#282A2B" stroke="none" stroke-linecap="round" d="M 15.9216 168.5141 L 21.5868 161.4771 L 27.581 160.2226 L 34.9356 164.6875 L 36.8055 179.6209 L 33.8691 188.0146 L 30.4825 188.7707 L 22.9052 182.9333 L 15.9216 168.5141 Z " stroke-width="0.8164596120381669"/>
    <path id="ID0.36820242274552584" fill="#151616" stroke="none" stroke-linecap="round" d="M 22.6658 169.7897 L 30.9352 167.86 L 30.8139 179.6825 L 29.3219 179.9319 L 22.6658 169.7897 Z " stroke-width="0.8164596120381669"/>
    <path id="ID0.13569410238415003" fill="none" stroke="#232425" stroke-width="1.6329192240763337" stroke-linecap="round" d="M 24.4135 180.7505 L 31.5569 186.5175 L 35.0557 178.2074 "/>
    <path id="ID0.024502143263816833" fill="none" stroke="#0D0D0D" stroke-width="1.6329192240763337" stroke-linecap="round" d="M 16.3735 168.1566 L 21.3927 161.5985 L 27.236 160.043 L 34.6703 164.4902 L 35.6617 173.0527 "/>
  </g>
  <g id="ID0.9157347986474633">
    <path id="ID0.7477802094072104" fill="#363A3D" stroke="none" stroke-linecap="round" d="M 93.1154 124.4715 L 73.6382 120.9715 L 72.7831 162.1489 L 89.2591 171.4206 L 92.0532 146.952 L 93.1154 124.4715 Z " stroke-width="0.47614257300029306"/>
    <path id="ID0.7477802094072104" fill="#363A3D" stroke="none" stroke-linecap="round" d="M 32.7831 123.2358 L 56.2874 120.8664 L 55.4323 162.0439 L 38.5855 170.6236 L 33.6325 145.3988 L 32.7831 123.2358 Z " stroke-width="0.47614257300029306"/>
    <path id="ID0.4270821204409003" fill="#3E4246" stroke="none" stroke-linecap="round" d="M 33.5179 103.1385 L 37.5858 90.7215 L 39.968 84.937 L 46.6594 78.0513 L 77.6913 80.1245 L 84.505 84.5522 L 87.2772 88.6578 L 94.0615 100.2286 L 93.13 110.6866 L 92.0642 116.1413 L 93.587 123.0785 L 93.9494 128.5629 L 91.6639 135.421 L 89.9366 140.6238 L 88.5537 149.8818 L 89.5985 171.8108 L 84.2868 179.9158 L 79.3736 186.0287 L 67.1457 191.204 L 55.6169 187.9404 L 51.8289 181.1467 L 47.0115 174.6174 L 38.5309 171.3457 L 37.9148 145.9728 L 36.8631 139.2835 L 32.5303 127.7637 L 31.4461 116.9066 L 33.5179 103.1385 Z " stroke-width="0.47614257300029306"/>
    <path id="ID0.052435632329434156" fill="#393C40" stroke="none" stroke-linecap="round" d="M 44.6176 153.3064 L 49.0676 153.4464 L 55.5926 156.868 L 60.6659 156.8067 L 66.5079 158.7139 L 70.7193 157.7298 L 72.3953 157.2884 L 86.6758 154.1797 L 86.9646 157.4718 L 78.3094 161.4592 L 72.3653 161.0263 L 66.7086 163.9568 L 60.1172 160.2957 L 53.6817 160.5907 L 43.883 156.5772 L 44.6176 153.3064 Z " stroke-width="0.47614257300029306"/>
    <path id="ID0.4987568911164999" fill="none" stroke="#27282B" stroke-width="0.9522851460005861" stroke-linecap="round" d="M 46.4282 78.7223 L 39.8732 84.7774 L 36.3333 94.705 "/>
    <path id="ID0.2889464790932834" fill="none" stroke="#27282B" stroke-width="0.9522851460005861" stroke-linecap="round" d="M 79.0073 80.8276 L 84.6407 84.7545 L 90.1604 94.1559 "/>
    <path id="ID0.8373676878400147" fill="#000000" stroke="#2C2F31" stroke-width="0.6155104186945868" stroke-linecap="round" d="M 49.7718 91.8289 L 50.1477 90.3053 L 46.4906 91.1437 L 41.5712 94.3904 L 37.345 99.3623 L 34.7859 104.9474 L 39.9649 102.7905 L 44.6638 102.7687 L 47.3933 103.7374 L 49.8766 106.7745 L 51.9998 105.7908 L 56.0137 105.5844 L 60.5076 106.7087 L 64.2907 109.9577 L 66.3094 113.0511 L 68.5215 110.069 L 72.2778 107.0016 L 76.42 105.6457 L 81.5766 105.7213 L 83.3974 106.3414 L 85.1518 103.2619 L 87.1315 102.0408 L 89.7243 102.6183 L 92.4998 104.2822 L 91.1302 100.4475 L 88.9186 96.4983 L 86.1278 93.4475 L 82.9954 91.1516 L 78.4947 90.1811 L 80.6416 92.125 L 80.5629 93.8928 L 78.9298 95.9766 L 75.336 97.1258 L 72.1675 97.3698 L 69.5473 97.4072 L 67.0914 93.7552 L 66.6147 95.8134 L 65.1543 95.7484 L 63.6463 93.2938 L 62.6126 97.4836 L 58.5286 97.5328 L 54.4156 96.5025 L 51.0919 95.0453 L 49.7718 91.8289 Z "/>
    <path id="ID0.5698574706912041" fill="none" stroke="#313537" stroke-width="0.9522851460005861" stroke-linecap="round" d="M 44.5497 153.1383 L 43.8879 156.3392 L 53.6792 160.7097 L 60.4702 160.4935 L 66.473 163.8328 "/>
    <path id="ID0.5698574706912041" fill="none" stroke="#313537" stroke-width="0.8933066257048137" stroke-linecap="round" d="M 86.4201 154.2278 L 86.8721 157.4518 L 78.1747 161.4384 L 72.2685 160.9586 L 66.9108 164.0619 "/>
    <path id="ID0.8947288258932531" fill="#393C40" stroke="none" stroke-linecap="round" d="M 46.1069 141.2169 L 53.131 141.2437 L 60.6367 143.3045 L 66.1869 148.9442 L 59.1848 144.4173 L 48.4575 142.6944 L 43.2773 145.611 L 46.1069 141.2169 Z " stroke-width="0.47614257300029306"/>
    <path id="ID0.8947288258932531" fill="#393C40" stroke="none" stroke-linecap="round" d="M 84.8687 143.0222 L 78.657 142.7878 L 71.9447 144.3343 L 66.8299 149.1171 L 73.1875 145.3716 L 82.7361 144.2423 L 87.2093 147.0115 L 84.8687 143.0222 Z " stroke-width="0.4213738884176943"/>
    <path id="ID0.9897695370018482" fill="#393C40" stroke="none" stroke-linecap="round" d="M 49.3037 153.5466 L 42.768 152.9346 L 43.2928 148.3021 L 44.4103 151.8257 L 49.5009 152.0743 L 55.5692 155.7007 L 61.0511 155.4574 L 65.1153 156.9705 L 66.659 149.1445 L 66.6933 158.9559 L 61.1414 156.8403 L 55.2623 156.7183 L 49.3037 153.5466 Z " stroke-width="0.47614257300029306"/>
    <path id="ID0.9897695370018482" fill="#393C40" stroke="none" stroke-linecap="round" d="M 81.6103 154.4693 L 87.155 154.1415 L 86.8823 149.8173 L 85.8083 153.0505 L 81.4979 153.0939 L 76.237 156.2401 L 71.6142 155.8119 L 68.1244 157.0682 L 67.1086 149.7389 L 66.7179 158.855 L 71.4868 157.0937 L 76.4588 157.197 L 81.6103 154.4693 Z " stroke-width="0.4232251205631144"/>
    <path id="ID0.3524594851769507" fill="#393C40" stroke="none" stroke-linecap="round" d="M 60.4472 119.0607 L 66.3046 121.3731 L 70.804 119.1329 L 67.5593 122.8755 L 68.28 134.0346 L 77.3664 133.366 L 66.867 136.7199 L 55.3014 131.7887 L 64.9468 134.013 L 64.7764 122.7225 L 60.4472 119.0607 Z " stroke-width="0.47614257300029306"/>
    <path id="ID0.9214867809787393" fill="#393C40" stroke="none" stroke-linecap="round" d="M 46.1875 137.3371 L 49.2502 133.186 L 54.0304 132.3327 L 48.1001 136.972 L 47.8012 139.8947 L 52.8463 140.0471 L 60.9436 143.4299 L 52.0098 141.3394 L 46.1545 141.2178 L 46.1875 137.3371 Z " stroke-width="0.47614257300029306"/>
    <path id="ID0.9214867809787393" fill="#393C40" stroke="none" stroke-linecap="round" d="M 84.622 138.9159 L 81.9825 134.8388 L 77.6446 133.8397 L 82.8873 138.4935 L 83.0471 141.292 L 78.428 141.2415 L 71.7251 143.9429 L 79.1427 142.5062 L 84.5015 142.6175 L 84.622 138.9159 Z " stroke-width="0.4451788453890468"/>
    <path id="ID0.8679121839813888" fill="#2C2F31" stroke="none" stroke-linecap="round" d="M 62.4241 118.0054 L 66.1988 119.703 L 69.5652 118.1299 L 70.4975 119.1017 L 66.5148 121.686 L 60.8012 119.329 L 62.4241 118.0054 Z " stroke-width="0.47614257300029306"/>
    <path id="ID0.24770551454275846" fill="none" stroke="#313537" stroke-width="0.9522851460005861" stroke-linecap="round" d="M 66.4959 116.1296 L 71.0631 119.7963 L 78.5509 120.4281 L 86.1898 119.5151 L 91.5053 115.8156 "/>
    <path id="ID0.20603158557787538" fill="none" stroke="#313537" stroke-width="0.9522851460005861" stroke-linecap="round" d="M 33.2476 111.4286 L 40.158 116.9298 L 52.4683 120.4001 L 59.7403 119.9558 L 66.0103 116.157 "/>
    <g id="ID0.5272086253389716">
      <path id="ID0.24770551454275846" fill="none" stroke="#363A3D" stroke-width="0.9522850864087884" stroke-linecap="round" d="M 35.9879 144.0256 L 45.9553 141.0655 "/>
      <path id="ID0.24770551454275846" fill="none" stroke="#363A3D" stroke-width="0.9522850864087884" stroke-linecap="round" d="M 33.6542 132.0538 L 54.2053 126.2655 "/>
    </g>
    <g id="ID0.5272086253389716">
      <path id="ID0.24770551454275846" fill="none" stroke="#363A3D" stroke-width="0.9522850864087884" stroke-linecap="round" d="M 91.4797 144.2318 L 84.5807 142.2557 "/>
      <path id="ID0.24770551454275846" fill="none" stroke="#363A3D" stroke-width="0.9522850864087884" stroke-linecap="round" d="M 92.2029 132.8424 L 78.4298 127.7945 "/>
    </g>
    <g id="ID0.7887678607366979">
      <path id="ID0.753661650698632" fill="none" stroke="#313537" stroke-width="0.9522850864087884" stroke-linecap="round" d="M 60.9207 119.1896 L 66.1078 121.6786 L 70.2085 119.1444 "/>
      <g id="ID0.8167418288066983">
        <path id="ID0.9553722990676761" fill="none" stroke="#313537" stroke-width="1.0409107743576298" stroke-linecap="round" d="M 66.4063 136.5479 L 60.8392 134.2892 L 54.706 132.2569 L 49.9163 133.1099 L 46.3201 137.3214 L 46.2484 140.7727 "/>
        <path id="ID0.5982440118677914" fill="none" stroke="#313537" stroke-width="0.8540413396238158" stroke-linecap="round" d="M 55.0334 131.8556 L 53.9532 126.5387 L 59.3362 119.5913 "/>
      </g>
      <g id="ID0.7324484633281827">
        <path id="ID0.04993448918685317" fill="none" stroke="#313537" stroke-width="0.9522850864087884" stroke-linecap="round" d="M 66.1102 121.5595 L 66.6068 132.0472 L 66.7418 148.4805 L 66.6413 164.7898 "/>
        <g id="ID0.8167418288066983">
          <path id="ID0.9553722990676761" fill="none" stroke="#313537" stroke-width="0.9699703077304642" stroke-linecap="round" d="M 66.7502 136.4275 L 71.8128 135.1754 L 77.2815 133.384 L 81.457 134.4232 L 84.4528 138.7716 L 84.3811 142.2229 "/>
          <path id="ID0.5982440118677914" fill="none" stroke="#313537" stroke-width="0.7916616152166959" stroke-linecap="round" d="M 77.0361 133.0336 L 78.1927 127.7632 L 73.7336 120.6113 "/>
          <path id="ID0.3567589442245662" fill="none" stroke="#313537" stroke-width="0.8967655150693851" stroke-linecap="round" d="M 66.6263 149.1264 L 71.8586 144.2583 L 79.2253 142.5063 L 84.7521 142.6211 L 86.8958 147.309 L 87.0431 154.3367 L 81.4805 154.9355 L 75.7638 157.9124 L 70.8491 157.5722 L 66.6031 159.3176 L 60.8142 156.6971 L 55.2197 156.819 L 48.8569 153.5913 L 42.5704 152.7464 L 43.0511 145.7318 L 45.7016 141.1434 L 51.982 141.2738 L 60.2746 143.351 L 65.9911 148.4465 Z "/>
        </g>
      </g>
    </g>
    <g id="ID0.9312638868577778">
      <path id="ID0.2888958193361759" fill="#393C40" stroke="none" stroke-linecap="round" d="M 47.0092 161.4331 L 57.1808 163.729 L 56.5255 166.6319 L 46.3539 164.3359 L 47.0092 161.4331 Z " stroke-width="0.4761425459216224"/>
      <path id="ID0.2888958193361759" fill="#393C40" stroke="none" stroke-linecap="round" d="M 36.2081 159.1286 L 47.6308 161.829 L 46.9755 164.7319 L 36.8039 162.4359 L 36.2081 159.1286 Z " stroke-width="0.4761425459216224"/>
      <g id="ID0.36424446757882833">
        <path id="ID0.7359844641759992" fill="#8A7B59" stroke="none" d="M 49.8379 160.7806 L 51.3612 160.8122 L 51.2318 167.0484 L 49.7084 167.0167 L 49.8379 160.7806 Z " stroke-width="0.4761425432043942"/>
        <path id="ID0.7359844641759992" fill="#8A7B59" stroke="none" d="M 47.9879 160.3306 L 49.5112 160.3622 L 49.3818 166.5984 L 47.8584 166.5667 L 47.9879 160.3306 Z " stroke-width="0.4761425432043942"/>
        <path id="ID0.7359844641759992" fill="#8A7B59" stroke="none" d="M 46.0379 159.6306 L 47.5612 159.6622 L 47.4318 165.8984 L 45.9084 165.8667 L 46.0379 159.6306 Z " stroke-width="0.4761425432043942"/>
        <path id="ID0.7359844641759992" fill="#8A7B59" stroke="none" d="M 51.7379 161.3306 L 53.2612 161.3622 L 53.1318 167.5984 L 51.6084 167.5667 L 51.7379 161.3306 Z " stroke-width="0.4761425432043942"/>
      </g>
      <g id="ID0.1049797898158431">
        <path id="ID0.08871637750416994" fill="#8A7B59" stroke="none" stroke-linecap="round" d="M 37.9895 158.5074 L 44.3705 159.6877 L 44.2067 165.2801 L 38.0643 164.081 L 37.9895 158.5074 Z " stroke-width="0.4761425432043942"/>
        <path id="ID0.13805592898279428" fill="#76694C" stroke="none" stroke-linecap="round" d="M 37.7978 158.2378 L 44.4882 159.4245 L 44.5236 162.3065 L 37.8114 161.0241 L 37.7978 158.2378 Z " stroke-width="0.4761425432043942"/>
        <path id="ID0.3221200187690556" fill="#61563F" stroke="none" stroke-linecap="round" d="M 40.55 160.489 L 41.4208 160.8689 L 41.4618 162.6272 L 40.5129 162.2716 L 40.55 160.489 Z " stroke-width="0.5167888865886084"/>
        <path id="ID0.1420820001512766" fill="#BAA578" stroke="none" stroke-linecap="round" d="M 43.5518 164.3318 L 44.2956 162.9185 L 44.2952 165.2283 L 38.056 164.0986 L 43.5518 164.3318 Z " stroke-width="0.4761425432043942"/>
      </g>
      <path id="ID0.2888958193361759" fill="#393C40" stroke="none" stroke-linecap="round" d="M 84.5902 162.6025 L 77.1307 164.2611 L 77.5102 166.806 L 84.9697 165.1474 L 84.5902 162.6025 Z " stroke-width="0.3810469777360591"/>
      <path id="ID0.2888958193361759" fill="#393C40" stroke="none" stroke-linecap="round" d="M 91.1651 160.9157 L 84.1307 162.7111 L 84.5102 165.256 L 90.6833 163.8204 L 91.1651 160.9157 Z " stroke-width="0.3810469777360591"/>
      <path id="ID0.7359844641759992" fill="#8A7B59" stroke="none" d="M 82.5701 161.5255 L 81.4633 161.5025 L 81.3506 166.9273 L 82.4574 166.9503 L 82.5701 161.5255 Z " stroke-width="0.3816027988624045"/>
      <path id="ID0.7359844641759992" fill="#8A7B59" stroke="none" d="M 83.9701 161.0755 L 82.8633 161.0525 L 82.7506 166.4773 L 83.8574 166.5003 L 83.9701 161.0755 Z " stroke-width="0.3816027988624045"/>
      <path id="ID0.7359844641759992" fill="#8A7B59" stroke="none" d="M 85.4701 160.6255 L 84.3633 160.6025 L 84.2506 166.0273 L 85.3574 166.0503 L 85.4701 160.6255 Z " stroke-width="0.3816027988624045"/>
      <path id="ID0.7359844641759992" fill="#8A7B59" stroke="none" d="M 81.1201 162.0755 L 80.0133 162.0525 L 79.9006 167.4773 L 81.0074 167.5003 L 81.1201 162.0755 Z " stroke-width="0.3816027988624045"/>
      <g id="ID0.1049797898158431">
        <path id="ID0.08871637750416994" fill="#8A7B59" stroke="none" stroke-linecap="round" d="M 91.4077 159.8854 L 86.4448 160.7507 L 86.3742 165.9213 L 91.1538 165.0302 L 91.4077 159.8854 Z " stroke-width="0.40545296430512573"/>
        <path id="ID0.13805592898279428" fill="#76694C" stroke="none" stroke-linecap="round" d="M 91.6523 159.6886 L 86.4505 160.549 L 86.3217 163.2094 L 91.5437 162.2614 L 91.6523 159.6886 Z " stroke-width="0.40545296430512573"/>
        <path id="ID0.3221200187690556" fill="#61563F" stroke="none" stroke-linecap="round" d="M 89.5299 161.6428 L 88.8449 161.963 L 88.7513 163.5854 L 89.4957 163.2903 L 89.5299 161.6428 Z " stroke-width="0.4400648059527854"/>
        <path id="ID0.1420820001512766" fill="#BAA578" stroke="none" stroke-linecap="round" d="M 86.9982 165.1103 L 86.4743 163.7788 L 86.3933 165.912 L 91.245 165.0884 L 86.9982 165.1103 Z " stroke-width="0.40545296430512573"/>
      </g>
      <g id="ID0.6836685389280319">
        <path id="ID0.09357938077300787" fill="#857656" stroke="none" d="M 57.7747 160.9089 L 75.7452 161.2821 L 75.6118 167.7086 L 57.6413 167.3354 L 57.7747 160.9089 Z " stroke-width="0.42833206411122815"/>
        <path id="ID0.6492703901603818" fill="#7C6E50" stroke="none" stroke-linecap="round" d="M 58.3684 163.093 L 66.5158 166.3578 L 75.4106 163.4469 L 75.3221 167.7075 L 58.2799 167.3536 L 58.3684 163.093 Z " stroke-width="0.4761425432043942"/>
        <g id="ID0.9254062357358634">
          <g id="ID0.49943465692922473">
            <path id="ID0.140373723115772" fill="#968561" stroke="none" d="M 74.1906 160.0517 L 79.308 160.1579 L 79.1202 169.2027 L 74.0028 169.0964 L 74.1906 160.0517 Z " stroke-width="0.4761425432043942"/>
            <path id="ID0.8286363878287375" fill="#BAA578" stroke="none" stroke-linecap="round" d="M 74.1728 159.8742 L 79.4043 160.221 L 75.2469 160.8966 L 74.1789 163.0176 L 74.1728 159.8742 Z " stroke-width="0.4761425432043942"/>
            <path id="ID0.7362233307212591" fill="#8A7B59" stroke="none" stroke-linecap="round" d="M 74.07 165.968 L 76.7825 166.072 L 79.2845 163.6951 L 79.1683 169.2885 L 74.0033 169.1813 L 74.07 165.968 Z " stroke-width="0.4761425432043942"/>
          </g>
          <g id="ID0.49943465692922473">
            <path id="ID0.140373723115772" fill="#968561" stroke="none" d="M 59.1483 159.9906 L 54.0309 159.8843 L 53.8431 168.9291 L 58.9605 169.0354 L 59.1483 159.9906 Z " stroke-width="0.4761425432043942"/>
            <path id="ID0.8286363878287375" fill="#BAA578" stroke="none" stroke-linecap="round" d="M 59.2093 159.8013 L 53.9679 159.9306 L 58.0936 160.7782 L 59.0726 162.9417 L 59.2093 159.8013 Z " stroke-width="0.4761425432043942"/>
            <path id="ID0.7362233307212591" fill="#8A7B59" stroke="none" stroke-linecap="round" d="M 59.0589 165.8941 L 56.3445 165.8854 L 53.9433 163.4066 L 53.8272 169.0001 L 58.9922 169.1074 L 59.0589 165.8941 Z " stroke-width="0.4761425432043942"/>
          </g>
        </g>
      </g>
    </g>
  </g>
  <g id="ID0.8333355090580881">
    <path id="ID0.9286923445761204" fill="#27282B" stroke="none" stroke-linecap="round" d="M 52.863 44.1601 L 71.6707 45.6361 L 72.1468 69.9908 L 87.3834 77.1329 L 64.5285 88.4889 L 27.8656 75.9426 L 47.7445 65.3484 L 52.863 44.1601 Z " stroke-width="0.4761425852775574"/>
    <path id="ID0.5448851804248989" fill="none" stroke="#1D1E1F" stroke-width="0.9522851705551147" stroke-linecap="round" d="M 49.1729 59.5871 L 47.935 65.158 L 65.0285 73.0143 L 71.8611 70.086 "/>
    <path id="ID0.262191956397146" fill="none" stroke="#1D1E1F" stroke-width="0.9522851705551147" stroke-linecap="round" d="M 51.9346 64.539 L 64.6476 70.7288 L 67.6473 69.6099 "/>
  </g>
  <g id="ID0.3450673264451325">
    <g id="ID0.9831569031812251">
      <path id="ID0.0877610077150166" fill="#2E3034" stroke="none" stroke-linecap="round" d="M 75.7251 13.3343 L 71.1527 0.2177 L 71.1527 28.7463 L 78.8241 28.7463 L 75.7251 13.3343 Z " stroke-width="0.5866066539949776"/>
      <path id="ID0.796130308881402" fill="#242628" stroke="none" stroke-linecap="round" d="M 76.033 13.3789 L 71.105 0.2623 L 74.6613 14.1004 L 75.6012 28.9877 L 78.7764 28.6926 L 76.033 13.3789 Z " stroke-width="0.5866066539949776"/>
    </g>
    <g id="ID0.9831569031812251">
      <path id="ID0.0877610077150166" fill="#2E3034" stroke="none" stroke-linecap="round" d="M 51.8249 13.4843 L 56.3973 0.3677 L 56.3973 28.8963 L 48.7259 28.8963 L 51.8249 13.4843 Z " stroke-width="0.5866066539949776"/>
      <path id="ID0.796130308881402" fill="#242628" stroke="none" stroke-linecap="round" d="M 51.417 13.5289 L 56.345 0.4123 L 52.7887 14.2504 L 51.6964 28.8098 L 48.6736 28.8426 L 51.417 13.5289 Z " stroke-width="0.5866066539949776"/>
    </g>
    <path id="ID0.8999492498114705" fill="#2E3034" stroke="none" stroke-linecap="round" d="M 69.3733 19.3124 C 73.7775 19.7915 78.5093 22.5019 80.6416 26.3848 C 83.0745 30.8179 81.1267 36.4165 81.4265 41.412 C 81.5997 43.1155 82.3923 44.8682 82.0615 46.4924 C 81.3879 49.7962 79.7139 52.8251 78.6323 56.0181 C 77.9236 58.1107 77.7691 60.4655 76.6001 62.3686 C 75.2843 64.6212 73.9416 67.7553 71.3419 68.211 C 67.488 68.8862 63.4115 67.0451 59.9619 65.2898 C 57.1281 63.8475 54.4746 61.6355 52.9002 58.8631 C 50.0806 53.7182 47.5196 48.0582 47.134 42.1741 C 46.7067 35.6514 45.9365 27.5853 50.6902 22.8687 C 54.9425 18.3273 62.8262 18.6032 69.3733 19.3124 Z " stroke-width="0.508037269115448"/>
    <path id="ID0.2441388238221407" fill="#AB8E85" stroke="none" d="M 67.0438 44.1745 C 71.1241 44.3416 76.5631 41.1768 79.2883 43.9234 C 81.7434 46.5142 78.3753 51.3755 77.4045 54.8492 C 76.4375 58.304 75.7493 62.0426 73.5114 64.8959 C 72.4439 66.1643 70.2186 66.2359 68.488 65.9634 C 65.3761 65.4698 62.3143 64.1864 59.7198 62.3955 C 57.0348 60.5432 53.487 58.5137 52.9156 55.2887 C 52.1923 51.2035 52.8566 45.8084 56.0552 43.2327 C 58.9889 40.9834 63.3743 44.0238 67.0438 44.1745 Z " stroke-width="1.2558400630950928"/>
    <path id="ID0.46721756737679243" fill="#A2887F" stroke="none" stroke-linecap="round" d="M 52.4363 45.2953 L 54.1129 45.9812 L 80.1244 45.6001 L 72.9102 50.6805 L 56.1704 48.2165 L 57.2881 50.6043 L 57.5421 56.2181 L 61.1746 63.4068 L 56.6023 56.7261 L 52.4363 45.2953 Z " stroke-width="0.508037269115448"/>
    <path id="ID0.8256730306893587" fill="none" stroke="#937B73" stroke-width="1.016074538230896" stroke-linecap="round" d="M 63.3886 57.0778 C 63.3886 57.0778 66.0878 56.4813 67.4529 56.2903 C 67.7943 56.2425 68.1326 56.3203 68.4689 56.3665 C 68.8109 56.4138 69.1401 56.5814 69.485 56.5697 C 70.1688 56.5469 70.8379 56.3497 71.5172 56.2649 C 71.854 56.2227 72.1939 56.1846 72.5332 56.1887 C 72.8731 56.1928 73.2181 56.2131 73.5493 56.2903 C 74.0939 56.4173 75.1496 56.7983 75.1496 56.7983 "/>
    <path id="ID0.7592270169407129" fill="none" stroke="#937B73" stroke-width="1.016074538230896" stroke-linecap="round" d="M 71.9693 58.4019 C 71.9693 58.4019 71.3475 58.7468 71.004 58.8083 C 70.6708 58.8682 70.3248 58.7235 69.988 58.7575 C 69.6491 58.792 69.3351 58.9688 68.9973 59.0115 C 68.6615 59.0542 68.3109 59.0867 67.9812 59.0115 C 67.7008 58.9475 67.2192 58.6051 67.2192 58.6051 "/>
    <path id="ID0.5332203092984855" fill="none" stroke="#937B73" stroke-width="1.016074538230896" stroke-linecap="round" d="M 66.0009 48.9532 C 66.0009 48.9532 65.3954 49.385 65.2897 49.7152 C 65.1525 50.1577 64.898 51.0026 65.3405 51.3156 C 65.9212 51.6056 66.6797 50.8786 67.3726 50.9345 C 68.0433 50.9914 69.354 51.4426 69.354 51.4426 "/>
    <path id="ID0.2278452254831791" fill="none" stroke="#937B73" stroke-width="1.016074538230896" stroke-linecap="round" d="M 70.3447 45.2953 C 70.3447 45.2953 71.2789 47.1578 71.7418 48.0895 C 71.8967 48.4015 72.0674 48.7073 72.199 49.0294 C 72.3306 49.3515 72.5429 49.6726 72.5292 50.0201 C 72.5155 50.3686 72.3092 50.6907 72.1228 50.9853 C 71.9983 51.1824 71.6148 51.468 71.6148 51.468 "/>
    <path id="ID0.6473136460408568" fill="none" stroke="#937B73" stroke-width="1.016074563998663" stroke-linecap="round" d="M 70.6945 62.2247 C 70.6945 62.2247 71.0113 62.8595 71.0622 63.2041 C 71.1113 63.5396 71.0513 63.8871 70.9877 64.2203 C 70.8923 64.7223 70.5871 65.7015 70.5871 65.7015 "/>
    <path id="ID0.11669129692018032" fill="#2E3034" stroke="none" stroke-linecap="round" d="M 54.3669 39.9609 L 77.6096 41.739 L 81.5469 44.4062 L 72.1482 49.1056 L 51.4457 46.5654 L 54.3669 39.9609 Z " stroke-width="0.508037269115448"/>
    <path id="ID0.14635155349969864" fill="#2E3034" stroke="none" stroke-linecap="round" d="M 51.6997 45.2191 L 53.554 45.6001 L 56.1958 50.8075 L 56.5006 56.5737 L 58.3296 60.384 L 61.2254 63.9149 L 52.9952 58.7075 L 51.6997 45.2191 Z " stroke-width="0.508037269115448"/>
    <path id="ID0.28340246016159654" fill="#1C1D1F" stroke="none" stroke-linecap="round" d="M 54.5308 36.8008 L 57.9604 38.3401 L 67.6283 39.2313 L 67.6283 44.9834 L 60.688 44.0382 L 56.8262 42.958 L 54.8008 41.4457 L 53.9367 39.7174 L 54.5308 36.8008 Z " stroke-width="0.5401026606559753"/>
    <path id="ID0.6101007834076881" fill="#FFFFFF" stroke="none" stroke-linecap="round" d="M 58.3473 39.3334 L 60.0001 39.7332 L 63.78 40.9344 L 64.3247 42.9027 L 59.07 41.4498 L 58.3473 39.3334 Z " stroke-width="0.4061061920009203"/>
    <path id="ID0.28340246016159654" fill="#1C1D1F" stroke="none" stroke-linecap="round" d="M 80.1357 36.8586 L 77.0774 38.2313 L 68.4563 39.0259 L 68.4563 44.1553 L 74.6452 43.3124 L 78.0888 42.3492 L 79.8949 41.0006 L 80.6655 39.4594 L 80.1357 36.8586 Z " stroke-width="0.4816249907016754"/>
    <path id="ID0.6101007834076881" fill="#FFFFFF" stroke="none" stroke-linecap="round" d="M 78.4526 38.9089 L 76.9112 39.4003 L 73.4053 40.7963 L 73.0217 42.7012 L 77.9101 40.9663 L 78.4526 38.9089 Z " stroke-width="0.3863867372519633"/>
    <g id="ID0.07940126257017255">
      <path id="ID0.46257128613069654" fill="#27282B" stroke="none" stroke-linecap="round" d="M 67.8045 39.0743 L 72.1482 49.0318 L 62.1145 47.7617 L 67.8045 39.0743 Z " stroke-width="0.508037269115448"/>
      <path id="ID0.9845890481956303" fill="#27282B" stroke="none" stroke-linecap="round" d="M 68.6173 39.1989 L 76.8983 46.5654 L 72.2244 49.1056 L 68.6173 39.1989 Z " stroke-width="0.508037269115448"/>
    </g>
    <path id="ID0.20071752788498998" fill="#202324" stroke="none" d="M 59.3686 34.5018 L 63.5091 37.0673 L 68.2593 38.2358 L 68.3355 39.6329 L 60.5625 38.3628 L 54.6693 36.0259 L 56.3966 34.2477 L 59.3686 34.5018 Z " stroke-width="0.508037269115448"/>
    <path id="ID0.20071752788498998" fill="#202324" stroke="none" d="M 76.4242 34.2614 L 73.3713 36.7084 L 68.1277 38.2698 L 68.0578 39.5516 L 75.1891 38.3864 L 80.6191 36.3588 L 79.081 34.1216 L 76.4242 34.2614 Z " stroke-width="0.46609798073768616"/>
    <path id="ID0.521138689480722" fill="none" stroke="#212325" stroke-width="0.9060627222061157" stroke-linecap="round" d="M 80.2139 36.5742 L 76.9747 38.1598 L 68.4351 39.4057 "/>
    <path id="ID0.17828734638169408" fill="none" stroke="#202324" stroke-width="1.016074538230896" stroke-linecap="round" d="M 72.0466 48.5467 L 69.1254 41.3072 C 68.1245 38.8879 68.2729 39.4564 68.0839 38.4876 C 68.0179 38.1493 68.2358 37.8129 68.2871 37.4715 C 68.3374 37.1352 68.4014 36.7953 68.3887 36.4555 C 68.376 36.112 68.2769 35.7762 68.2109 35.4394 C 68.1078 34.9136 67.8807 33.8645 67.8807 33.8645 "/>
    <path id="ID0.521138689480722" fill="none" stroke="#212325" stroke-width="1.016074538230896" stroke-linecap="round" d="M 54.8068 36.3055 L 58.4392 38.0836 L 68.0157 39.4807 "/>
    <path id="ID0.8012696979567409" fill="none" stroke="url(#grad_1)" stroke-width="1.016074538230896" stroke-linecap="round" d="M 80.1244 45.1429 L 72.6562 49.0548 L 54.0621 46.7178 L 56.0434 50.5789 L 56.3482 56.6753 L 58.2788 60.2824 L 61.1746 63.9149 "/>
    <path id="ID0.043594349175691605" fill="#D7E2FD" stroke="none" stroke-linecap="round" d="M 63.5289 41.9677 L 63.7575 40.85 L 64.2656 42.9075 L 61.6746 42.1709 L 63.5289 41.9677 Z " stroke-width="0.508037269115448"/>
    <path id="ID0.043594349175691605" fill="#D7E2FD" stroke="none" stroke-linecap="round" d="M 73.7225 41.8348 L 73.4574 40.8321 L 73.1024 42.7258 L 75.4161 41.9236 L 73.7225 41.8348 Z " stroke-width="0.4618642652203811"/>
  </g>
  <g id="ID0.9492031107656658">
    <path id="ID0.05466862628236413" fill="#303436" stroke="none" stroke-linecap="round" d="M 26.7813 227.8657 L 53.3314 231.0425 L 43.7085 247.9723 L 40.8745 252.4283 L 35.5769 269.7802 L 21.8963 308.1677 L 6.274 305.8967 L 9.9339 283.9505 L 9.5493 274.9031 L 10.7212 265.4561 L 16.2515 252.9576 L 19.4655 241.0629 L 26.7813 227.8657 Z " stroke-width="0.7305889649893706"/>
    <path id="ID0.4490455654449761" fill="none" stroke="#272A2B" stroke-width="1.6585523838013894" stroke-linecap="round" d="M 26.4187 228.6679 L 53.0596 231.469 L 40.1417 253.263 "/>
    <path id="ID0.10446935473009944" fill="none" stroke="#242728" stroke-width="1.6585523838013894" stroke-linecap="round" d="M 36.5978 265.0801 L 32.047 281.2917 L 19.9507 285.6239 "/>
    <path id="ID0.42170455446466804" fill="none" stroke="#242728" stroke-width="1.6585523838013894" stroke-linecap="round" d="M 30.6789 282.1279 L 25.3437 296.2891 L 12.9843 300.7508 "/>
    <path id="ID0.047098892275244" fill="none" stroke="#242728" stroke-width="1.6585523838013894" stroke-linecap="round" d="M 19.7368 241.5878 L 18.2582 245.24 L 20.2894 254.9615 "/>
  </g>
  <path id="ID0.5368814701214433" fill="#292D2E" stroke="none" stroke-linecap="round" d="M 78.8629 318.1397 L 81.3621 309.1934 L 85.4475 299.7612 L 95.6674 305.1828 L 107.2526 312.3243 L 125.1451 321.9027 L 126.5039 328.3656 L 101.8805 330.6102 L 80.497 327.8648 L 78.8629 318.1397 Z " stroke-width="0.7702165709703532"/>
  <g id="ID0.9340031337924302">
    <path id="ID0.05466862628236413" fill="#292D2E" stroke="none" stroke-linecap="round" d="M 82.3704 227.2474 L 108.8917 223.8384 L 103.6987 242.6067 L 102.0398 247.6203 L 101.1442 265.7407 L 97.2612 306.3078 L 81.5577 307.924 L 79.7425 285.7489 L 77.1581 277.07 L 75.9854 267.623 L 78.293 254.1519 L 78.5022 241.8325 L 82.3704 227.2474 Z " stroke-width="0.7305890484502938"/>
    <path id="ID0.4490455654449761" fill="none" stroke="#272A2B" stroke-width="1.6585525196345328" stroke-linecap="round" d="M 82.1122 227.4971 L 108.6297 223.7016 L 101.4305 247.992 "/>
    <path id="ID0.10446935473009944" fill="none" stroke="#242728" stroke-width="1.6585525196345328" stroke-linecap="round" d="M 100.8825 260.3168 L 100.4322 277.1491 L 89.7617 284.3065 "/>
    <path id="ID0.42170455446466804" fill="none" stroke="#242728" stroke-width="1.6585525196345328" stroke-linecap="round" d="M 99.31 278.2943 L 97.5979 293.3301 L 86.704 300.6773 "/>
    <path id="ID0.047098892275244" fill="none" stroke="#242728" stroke-width="1.6585525196345328" stroke-linecap="round" d="M 78.7765 241.6401 L 78.2355 245.5429 L 82.5812 254.473 "/>
  </g>
</svg>