<svg xmlns="http://www.w3.org/2000/svg" xmlns:xlink="http://www.w3.org/1999/xlink" version="1.1" width="856.9610530137318" height="622.006035923888" viewBox="-0.48052650686589793 -0.7305265068658979 856.9610530137318 622.006035923888">
  <!-- Exported by Scratch - http://scratch.mit.edu/ -->
  <path id="ID0.1375492145307362" fill="#2E2E2E" stroke="none" d="M 201.25 212.35 L 727.2679 212.35 L 727.2679 606.8634 L 201.25 606.8634 L 201.25 212.35 Z " stroke-width="1.0958706140518188"/>
  <g id="ID0.35708296764642">
    <path id="ID0.8807901288382709" fill="#1F1F1F" stroke="none" stroke-linecap="round" d="M 855.5 3.8 L 370.5 3.8 L 370.5 131.1125 L 579.5047 293.9917 L 589.5078 300.4583 L 603.4011 311.9771 L 626.0344 299.4984 L 654.5281 295.962 L 673.524 286.4641 L 694.5406 281.4625 L 712.526 279.4922 L 730.5115 269.4891 L 738.4938 250.9984 L 752.5385 243.976 L 855.5 131.1125 L 855.5 3.8 Z " stroke-width="1.0104166269302368"/>
    <path id="ID0.8807901288382709" fill="#1F1F1F" stroke="none" stroke-linecap="round" d="M 745.5 36.8 L 260.5 36.8 L 260.5 164.1125 L 429.9974 290.263 L 446.0125 305.975 L 453.4896 317.9989 L 472.9906 314.0078 L 491.9865 316.0286 L 498.9583 323.0005 L 514.5188 331.488 L 528.0078 317.9989 L 538.5162 314.9677 L 552.5104 305.4698 L 559.4823 297.4875 L 568.9802 296.9823 L 745.5 164.1125 L 745.5 36.8 Z " stroke-width="1.0104166269302368"/>
    <path id="ID0.8807901288382709" fill="#1F1F1F" stroke="none" stroke-linecap="round" d="M 616.5 0.25 L 131.5 0.25 L 131.5 127.5625 L 340.5047 288.5219 L 343.9906 294.5338 L 364.4011 308.4271 L 384.0031 296.5042 L 395.4714 289.0271 L 616.5 127.5625 L 616.5 0.25 Z " stroke-width="1.0104166269302368"/>
    <path id="ID0.8807901288382709" fill="#1F1F1F" stroke="none" stroke-linecap="round" d="M 485.5 48.3 L 0.5 48.3 L 0.5 175.6125 L 236.0281 336.0161 L 253.0031 351.0208 L 269.0182 330.0042 L 297.0068 317.9802 L 316.0026 301.0052 L 325.5005 293.0229 L 485.5 175.6125 L 485.5 48.3 Z " stroke-width="1.0104166269302368"/>
  </g>
  <g id="ID0.5951862884685397">
    <g id="ID0.5229665343649685">
      <path id="ID0.24483878118917346" fill="#494949" stroke="none" d="M 659.1617 463.9485 L 676.7653 463.9485 L 676.7653 491.6419 L 659.1617 491.6419 L 659.1617 463.9485 Z " stroke-width="0.42935416102409363"/>
      <path id="ID0.2592703038826585" fill="#767676" stroke="none" d="M 673.9391 471.465 L 677.8033 471.465 L 677.8033 493.5767 L 673.9391 493.5767 L 673.9391 471.465 Z " stroke-width="0.42935416102409363"/>
      <path id="ID0.24483878118917346" fill="#494949" stroke="none" d="M 512.9617 462.0985 L 530.5653 462.0985 L 530.5653 489.7919 L 512.9617 489.7919 L 512.9617 462.0985 Z " stroke-width="0.42935416102409363"/>
      <path id="ID0.2592703038826585" fill="#767676" stroke="none" d="M 527.9891 471.115 L 531.8533 471.115 L 531.8533 493.2267 L 527.9891 493.2267 L 527.9891 471.115 Z " stroke-width="0.42935416102409363"/>
      <path id="ID0.4796627936884761" fill="#343434" stroke="none" d="M 503.1334 363.3924 L 687.1116 363.3924 L 687.1116 474.5951 L 503.1334 474.5951 L 503.1334 363.3924 Z " stroke-width="0.42935416102409363"/>
      <path id="ID0.31264673080295324" fill="#285399" stroke="none" d="M 509.7801 368.5553 L 680.6631 368.5553 L 680.6631 468.3801 L 509.7801 468.3801 L 509.7801 368.5553 Z " stroke-width="0.42935416102409363"/>
      <g id="ID0.33731687534600496">
        <path id="ID0.02510488172993064" fill="#387ACF" stroke="none" d="M 520.466 462.8398 L 671.3052 462.8398 L 671.3052 422.0882 L 520.466 422.0882 L 520.466 462.8398 Z " stroke-width="1.34218620302776"/>
        <path id="ID0.09801957989111543" fill="#285399" stroke="none" d="M 515.0149 431.0104 L 675.7305 431.0104 L 675.7305 429.4726 L 515.0149 429.4726 L 515.0149 431.0104 Z " stroke-width="1.34218620302776"/>
        <path id="ID0.09801957989111543" fill="#285399" stroke="none" d="M 514.1149 434.8104 L 674.8305 434.8104 L 674.8305 433.2726 L 514.1149 433.2726 L 514.1149 434.8104 Z " stroke-width="1.34218620302776"/>
        <path id="ID0.09801957989111543" fill="#285399" stroke="none" d="M 511.4649 436.8604 L 672.1805 436.8604 L 672.1805 435.3226 L 511.4649 435.3226 L 511.4649 436.8604 Z " stroke-width="1.34218620302776"/>
        <path id="ID0.09801957989111543" fill="#285399" stroke="none" d="M 518.2649 439.4604 L 678.9805 439.4604 L 678.9805 437.9226 L 518.2649 437.9226 L 518.2649 439.4604 Z " stroke-width="1.34218620302776"/>
        <path id="ID0.09801957989111543" fill="#285399" stroke="none" d="M 513.2649 442.9604 L 673.9805 442.9604 L 673.9805 441.4226 L 513.2649 441.4226 L 513.2649 442.9604 Z " stroke-width="1.34218620302776"/>
        <path id="ID0.09801957989111543" fill="#285399" stroke="none" d="M 518.2649 446.8104 L 678.9805 446.8104 L 678.9805 445.2726 L 518.2649 445.2726 L 518.2649 446.8104 Z " stroke-width="1.34218620302776"/>
        <path id="ID0.09801957989111543" fill="#285399" stroke="none" d="M 518.2649 448.9604 L 678.9805 448.9604 L 678.9805 447.4226 L 518.2649 447.4226 L 518.2649 448.9604 Z " stroke-width="1.34218620302776"/>
        <path id="ID0.09801957989111543" fill="#285399" stroke="none" d="M 517.3149 451.6104 L 678.0305 451.6104 L 678.0305 450.0726 L 517.3149 450.0726 L 517.3149 451.6104 Z " stroke-width="1.34218620302776"/>
        <path id="ID0.09801957989111543" fill="#285399" stroke="none" d="M 515.0149 454.8604 L 675.7305 454.8604 L 675.7305 453.3226 L 515.0149 453.3226 L 515.0149 454.8604 Z " stroke-width="1.34218620302776"/>
        <path id="ID0.09801957989111543" fill="#285399" stroke="none" d="M 515.4649 457.7604 L 676.1805 457.7604 L 676.1805 456.2226 L 515.4649 456.2226 L 515.4649 457.7604 Z " stroke-width="1.34218620302776"/>
        <path id="ID0.09801957989111543" fill="#285399" stroke="none" d="M 516.4149 459.8604 L 677.1305 459.8604 L 677.1305 458.3226 L 516.4149 458.3226 L 516.4149 459.8604 Z " stroke-width="1.34218620302776"/>
        <path id="ID0.09801957989111543" fill="#285399" stroke="none" d="M 517.3149 462.1604 L 678.0305 462.1604 L 678.0305 460.6226 L 517.3149 460.6226 L 517.3149 462.1604 Z " stroke-width="1.34218620302776"/>
        <path id="ID0.09801957989111543" fill="#285399" stroke="none" d="M 514.6649 428.8104 L 675.3805 428.8104 L 675.3805 427.2726 L 514.6649 427.2726 L 514.6649 428.8104 Z " stroke-width="1.34218620302776"/>
        <path id="ID0.09801957989111543" fill="#285399" stroke="none" d="M 515.0149 426.3604 L 675.7305 426.3604 L 675.7305 424.8226 L 515.0149 424.8226 L 515.0149 426.3604 Z " stroke-width="1.34218620302776"/>
        <path id="ID0.09801957989111543" fill="#285399" stroke="none" d="M 513.7149 424.0604 L 674.4305 424.0604 L 674.4305 422.5226 L 513.7149 422.5226 L 513.7149 424.0604 Z " stroke-width="1.34218620302776"/>
      </g>
      <g id="ID0.33731687534600496">
        <path id="ID0.02510488172993064" fill="#387ACF" stroke="none" d="M 577.5934 412.9898 L 668.6731 412.9898 L 668.6731 372.2382 L 577.5934 372.2382 L 577.5934 412.9898 Z " stroke-width="0.8814864445308188"/>
        <path id="ID0.09801957989111543" fill="#285399" stroke="none" d="M 574.3144 381.1604 L 671.3577 381.1604 L 671.3577 379.6226 L 574.3144 379.6226 L 574.3144 381.1604 Z " stroke-width="0.8814864445308188"/>
        <path id="ID0.09801957989111543" fill="#285399" stroke="none" d="M 573.8144 385.0104 L 670.8577 385.0104 L 670.8577 383.4726 L 573.8144 383.4726 L 573.8144 385.0104 Z " stroke-width="0.8814864445308188"/>
        <path id="ID0.09801957989111543" fill="#285399" stroke="none" d="M 572.1644 387.0604 L 669.2077 387.0604 L 669.2077 385.5226 L 572.1644 385.5226 L 572.1644 387.0604 Z " stroke-width="0.8814864445308188"/>
        <path id="ID0.09801957989111543" fill="#285399" stroke="none" d="M 576.2644 389.6604 L 673.3077 389.6604 L 673.3077 388.1226 L 576.2644 388.1226 L 576.2644 389.6604 Z " stroke-width="0.8814864445308188"/>
        <path id="ID0.09801957989111543" fill="#285399" stroke="none" d="M 573.2144 393.2104 L 670.2577 393.2104 L 670.2577 391.6726 L 573.2144 391.6726 L 573.2144 393.2104 Z " stroke-width="0.8814864445308188"/>
        <path id="ID0.09801957989111543" fill="#285399" stroke="none" d="M 576.2644 397.0104 L 673.3077 397.0104 L 673.3077 395.4726 L 576.2644 395.4726 L 576.2644 397.0104 Z " stroke-width="0.8814864445308188"/>
        <path id="ID0.09801957989111543" fill="#285399" stroke="none" d="M 576.2644 399.1604 L 673.3077 399.1604 L 673.3077 397.6226 L 576.2644 397.6226 L 576.2644 399.1604 Z " stroke-width="0.8814864445308188"/>
        <path id="ID0.09801957989111543" fill="#285399" stroke="none" d="M 575.7144 401.7604 L 672.7577 401.7604 L 672.7577 400.2226 L 575.7144 400.2226 L 575.7144 401.7604 Z " stroke-width="0.8814864445308188"/>
        <path id="ID0.09801957989111543" fill="#285399" stroke="none" d="M 574.3144 405.0604 L 671.3577 405.0604 L 671.3577 403.5226 L 574.3144 403.5226 L 574.3144 405.0604 Z " stroke-width="0.8814864445308188"/>
        <path id="ID0.09801957989111543" fill="#285399" stroke="none" d="M 574.6144 407.9604 L 671.6577 407.9604 L 671.6577 406.4226 L 574.6144 406.4226 L 574.6144 407.9604 Z " stroke-width="0.8814864445308188"/>
        <path id="ID0.09801957989111543" fill="#285399" stroke="none" d="M 575.1144 410.0604 L 672.1577 410.0604 L 672.1577 408.5226 L 575.1144 408.5226 L 575.1144 410.0604 Z " stroke-width="0.8814864445308188"/>
        <path id="ID0.09801957989111543" fill="#285399" stroke="none" d="M 575.7144 412.3604 L 672.7577 412.3604 L 672.7577 410.8226 L 575.7144 410.8226 L 575.7144 412.3604 Z " stroke-width="0.8814864445308188"/>
        <path id="ID0.09801957989111543" fill="#285399" stroke="none" d="M 574.0644 379.0104 L 671.1077 379.0104 L 671.1077 377.4726 L 574.0644 377.4726 L 574.0644 379.0104 Z " stroke-width="0.8814864445308188"/>
        <path id="ID0.09801957989111543" fill="#285399" stroke="none" d="M 574.3144 376.5604 L 671.3577 376.5604 L 671.3577 375.0226 L 574.3144 375.0226 L 574.3144 376.5604 Z " stroke-width="0.8814864445308188"/>
        <path id="ID0.09801957989111543" fill="#285399" stroke="none" d="M 573.5644 374.2604 L 670.6077 374.2604 L 670.6077 372.7226 L 573.5644 372.7226 L 573.5644 374.2604 Z " stroke-width="0.8814864445308188"/>
      </g>
      <path id="ID0.16757748136296868" fill="#282828" stroke="none" d="M 507.8095 466.8214 L 682.986 466.8214 L 682.986 470.4709 L 507.8095 470.4709 L 507.8095 466.8214 Z " stroke-width="0.42935416102409363"/>
      <g id="ID0.33598986687138677">
        <path id="ID0.29201917676255107" fill="#2D61A5" stroke="none" d="M 511.909 370.2374 L 555.7031 370.2374 L 555.7031 414.0315 L 511.909 414.0315 L 511.909 370.2374 Z " stroke-width="0.42935416102409363"/>
        <path id="ID0.02510488172993064" fill="#387ACF" stroke="none" d="M 515.6998 372.9029 L 551.7656 372.9029 L 551.7656 401.3476 L 515.6998 401.3476 L 515.6998 372.9029 Z " stroke-width="0.42935416102409363"/>
        <path id="ID0.09801957989111543" fill="#2D61A5" stroke="none" d="M 514.3571 395.1193 L 552.7843 395.1193 L 552.7843 396.1927 L 514.3571 396.1927 L 514.3571 395.1193 Z " stroke-width="0.42935416102409363"/>
        <path id="ID0.09801957989111543" fill="#2D61A5" stroke="none" d="M 514.2071 392.4693 L 552.6343 392.4693 L 552.6343 393.5427 L 514.2071 393.5427 L 514.2071 392.4693 Z " stroke-width="0.42935416102409363"/>
        <path id="ID0.09801957989111543" fill="#2D61A5" stroke="none" d="M 513.5571 391.0693 L 551.9843 391.0693 L 551.9843 392.1427 L 513.5571 392.1427 L 513.5571 391.0693 Z " stroke-width="0.42935416102409363"/>
        <path id="ID0.09801957989111543" fill="#2D61A5" stroke="none" d="M 515.1571 389.2693 L 553.5843 389.2693 L 553.5843 390.3427 L 515.1571 390.3427 L 515.1571 389.2693 Z " stroke-width="0.42935416102409363"/>
        <path id="ID0.09801957989111543" fill="#2D61A5" stroke="none" d="M 514.0071 386.7693 L 552.4343 386.7693 L 552.4343 387.8427 L 514.0071 387.8427 L 514.0071 386.7693 Z " stroke-width="0.42935416102409363"/>
        <path id="ID0.09801957989111543" fill="#2D61A5" stroke="none" d="M 515.1571 384.0693 L 553.5843 384.0693 L 553.5843 385.1427 L 515.1571 385.1427 L 515.1571 384.0693 Z " stroke-width="0.42935416102409363"/>
        <path id="ID0.09801957989111543" fill="#2D61A5" stroke="none" d="M 515.1571 382.5693 L 553.5843 382.5693 L 553.5843 383.6427 L 515.1571 383.6427 L 515.1571 382.5693 Z " stroke-width="0.42935416102409363"/>
        <path id="ID0.09801957989111543" fill="#2D61A5" stroke="none" d="M 514.9571 380.7693 L 553.3843 380.7693 L 553.3843 381.8427 L 514.9571 381.8427 L 514.9571 380.7693 Z " stroke-width="0.42935416102409363"/>
        <path id="ID0.09801957989111543" fill="#2D61A5" stroke="none" d="M 514.3571 378.5193 L 552.7843 378.5193 L 552.7843 379.5927 L 514.3571 379.5927 L 514.3571 378.5193 Z " stroke-width="0.42935416102409363"/>
        <path id="ID0.09801957989111543" fill="#2D61A5" stroke="none" d="M 514.5071 376.4693 L 552.9343 376.4693 L 552.9343 377.5427 L 514.5071 377.5427 L 514.5071 376.4693 Z " stroke-width="0.42935416102409363"/>
        <path id="ID0.09801957989111543" fill="#2D61A5" stroke="none" d="M 514.7571 374.9693 L 553.1843 374.9693 L 553.1843 376.0427 L 514.7571 376.0427 L 514.7571 374.9693 Z " stroke-width="0.42935416102409363"/>
        <path id="ID0.09801957989111543" fill="#2D61A5" stroke="none" d="M 514.9571 373.3693 L 553.3843 373.3693 L 553.3843 374.4427 L 514.9571 374.4427 L 514.9571 373.3693 Z " stroke-width="0.42935416102409363"/>
        <path id="ID0.09801957989111543" fill="#2D61A5" stroke="none" d="M 514.3071 396.6693 L 552.7343 396.6693 L 552.7343 397.7427 L 514.3071 397.7427 L 514.3071 396.6693 Z " stroke-width="0.42935416102409363"/>
        <path id="ID0.09801957989111543" fill="#2D61A5" stroke="none" d="M 514.3571 398.3693 L 552.7843 398.3693 L 552.7843 399.4427 L 514.3571 399.4427 L 514.3571 398.3693 Z " stroke-width="0.42935416102409363"/>
        <path id="ID0.09801957989111543" fill="#2D61A5" stroke="none" d="M 514.0571 399.9693 L 552.4843 399.9693 L 552.4843 401.0427 L 514.0571 401.0427 L 514.0571 399.9693 Z " stroke-width="0.42935416102409363"/>
        <path id="ID0.29663251154124737" fill="#387ACF" stroke="none" d="M 519.9947 403.3843 L 546.9367 403.3843 L 546.9367 411.2201 L 519.9947 411.2201 L 519.9947 403.3843 Z " stroke-width="0.42935416102409363"/>
        <path id="ID0.3309404538013041" fill="#3A87D5" stroke="none" d="M 536.5762 406.3898 L 547.8468 406.3898 L 547.8468 409.5026 L 536.5762 409.5026 L 536.5762 406.3898 Z " stroke-width="0.42935416102409363"/>
        <path id="ID0.3623736593872309" fill="#4198F0" stroke="none" d="M 534.3221 404.4577 L 548.3835 404.4577 L 548.3835 408.2146 L 534.3221 408.2146 L 534.3221 404.4577 Z " stroke-width="0.42935416102409363"/>
        <path id="ID0.8995337798260152" fill="#1E456D" stroke="none" d="M 520.8401 403.8564 L 532.218 403.8564 L 532.218 408.6866 L 520.8401 408.6866 L 520.8401 403.8564 Z " stroke-width="0.42935416102409363"/>
        <path id="ID0.8450785279273987" fill="#26578A" stroke="none" d="M 522.6869 409.3953 L 535.5675 409.3953 L 535.5675 410.4687 L 522.6869 410.4687 L 522.6869 409.3953 Z " stroke-width="0.42935416102409363"/>
      </g>
      <path id="ID0.20282993977889419" fill="#2E3643" stroke="#8A8A8A" stroke-width="0.8587083220481873" d="M 570.1017 389.3523 L 674.0054 389.3523 L 674.0054 455.9022 L 570.1017 455.9022 L 570.1017 389.3523 Z "/>
      <path id="ID0.8705466133542359" fill="#4D5A70" stroke="none" d="M 670.7494 386.7469 L 676.7604 386.7469 L 676.7604 392.7578 L 670.7494 392.7578 L 670.7494 386.7469 Z " stroke-width="0.42935416102409363"/>
      <path id="ID0.7485618502832949" fill="none" stroke="#2C3440" stroke-width="0.8587083220481873" stroke-linecap="round" d="M 675.8802 387.6056 L 671.6081 391.8991 "/>
      <path id="ID0.26482382509857416" fill="none" stroke="#2C3440" stroke-width="0.8587083220481873" stroke-linecap="round" d="M 671.5652 387.3694 L 675.9875 391.942 "/>
      <path id="ID0.16308765020221472" fill="#8A8A8A" stroke="none" d="M 569.8512 455.3362 L 673.7549 455.3362 L 673.7549 456.3022 L 569.8512 456.3022 L 569.8512 455.3362 Z " stroke-width="0.42935416102409363"/>
      <path id="ID0.15116297779604793" fill="#285399" stroke="none" d="M 569.4425 456.0876 L 678.0691 456.0876 L 678.0691 465.748 L 569.4425 465.748 L 569.4425 456.0876 Z " stroke-width="0.42935416102409363"/>
      <path id="ID0.5798846324905753" fill="#242B34" stroke="none" d="M 634.9736 440.6707 L 672.1127 440.6707 L 672.1127 453.6587 L 634.9736 453.6587 L 634.9736 440.6707 Z " stroke-width="0.42935416102409363"/>
      <path id="ID0.031489289831370115" fill="#C03737" stroke="none" d="M 642.5547 442.8336 L 653.5032 442.8336 L 653.5032 445.4097 L 642.5547 445.4097 L 642.5547 442.8336 Z " stroke-width="0.42935416102409363"/>
      <path id="ID0.990744502749294" fill="#C03737" stroke="none" d="M 637.8318 444.7656 L 668.96 444.7656 L 668.96 447.0198 L 637.8318 447.0198 L 637.8318 444.7656 Z " stroke-width="0.42935416102409363"/>
      <path id="ID0.031489289831370115" fill="#C03737" stroke="none" d="M 647.3047 446.7836 L 658.2532 446.7836 L 658.2532 449.3597 L 647.3047 449.3597 L 647.3047 446.7836 Z " stroke-width="0.42935416102409363"/>
      <path id="ID0.031489289831370115" fill="#C03737" stroke="none" d="M 654.4547 445.6836 L 665.4032 445.6836 L 665.4032 448.2597 L 654.4547 448.2597 L 654.4547 445.6836 Z " stroke-width="0.42935416102409363"/>
      <path id="ID0.990744502749294" fill="#C03737" stroke="none" d="M 638.9803 449.0656 L 668.2837 449.0656 L 668.2837 451.3198 L 638.9803 451.3198 L 638.9803 449.0656 Z " stroke-width="0.4169596071031467"/>
      <path id="ID0.06273413496091962" fill="#387ACF" stroke="none" d="M 589.3868 374.5103 L 603.8775 374.5103 L 603.8775 385.2441 L 589.3868 385.2441 L 589.3868 374.5103 Z " stroke-width="0.42935416102409363"/>
      <path id="ID0.4984698323532939" fill="#4196ED" stroke="none" d="M 590.8469 375.719 L 595.1404 375.719 L 595.1404 380.0125 L 590.8469 380.0125 L 590.8469 375.719 Z " stroke-width="0.42935416102409363"/>
      <path id="ID0.4984698323532939" fill="#4196ED" stroke="none" d="M 598.4469 380.369 L 602.7404 380.369 L 602.7404 384.6625 L 598.4469 384.6625 L 598.4469 380.369 Z " stroke-width="0.42935416102409363"/>
      <g id="ID0.7613313789479434">
        <g id="ID0.7620966574177146">
          <path id="ID0.3840450206771493" fill="#E5E5E5" stroke="none" d="M 574.0906 395.16 L 589.5155 395.16 L 589.5155 396.1142 L 574.0906 396.1142 L 574.0906 395.16 Z " stroke-width="0.636080265045166"/>
          <path id="ID0.08238389994949102" fill="#E5E5E5" stroke="none" d="M 574.0676 397.2273 L 598.0796 397.2273 L 598.0796 398.0224 L 574.0676 398.0224 L 574.0676 397.2273 Z " stroke-width="0.636080265045166"/>
          <path id="ID0.3840450206771493" fill="#E5E5E5" stroke="none" d="M 574.1692 398.86 L 594.0786 398.86 L 594.0786 399.8142 L 574.1692 399.8142 L 574.1692 398.86 Z " stroke-width="0.7343852119791583"/>
        </g>
        <g id="ID0.7620966574177146">
          <path id="ID0.3840450206771493" fill="#E5E5E5" stroke="none" d="M 574.1406 400.51 L 589.5655 400.51 L 589.5655 401.4642 L 574.1406 401.4642 L 574.1406 400.51 Z " stroke-width="0.636080265045166"/>
          <path id="ID0.08238389994949102" fill="#E5E5E5" stroke="none" d="M 574.1176 402.5773 L 598.1296 402.5773 L 598.1296 403.3724 L 574.1176 403.3724 L 574.1176 402.5773 Z " stroke-width="0.636080265045166"/>
          <path id="ID0.3840450206771493" fill="#E5E5E5" stroke="none" d="M 574.1692 404.16 L 594.0786 404.16 L 594.0786 405.1142 L 574.1692 405.1142 L 574.1692 404.16 Z " stroke-width="0.7343852119791583"/>
        </g>
        <g id="ID0.7620966574177146">
          <path id="ID0.3840450206771493" fill="#E5E5E5" stroke="none" d="M 574.1406 410.24 L 589.5655 410.24 L 589.5655 409.2858 L 574.1406 409.2858 L 574.1406 410.24 Z " stroke-width="0.636080265045166"/>
          <path id="ID0.08238389994949102" fill="#E5E5E5" stroke="none" d="M 574.1176 408.1727 L 598.1296 408.1727 L 598.1296 407.3776 L 574.1176 407.3776 L 574.1176 408.1727 Z " stroke-width="0.636080265045166"/>
          <path id="ID0.3840450206771493" fill="#E5E5E5" stroke="none" d="M 574.1692 406.59 L 594.0786 406.59 L 594.0786 405.6358 L 574.1692 405.6358 L 574.1692 406.59 Z " stroke-width="0.7343852119791583"/>
        </g>
      </g>
      <path id="ID0.9902663305401802" fill="#387ACF" stroke="none" d="M 597.8665 379.4049 L 600.4426 379.4049 L 600.4426 381.981 L 597.8665 381.981 L 597.8665 379.4049 Z " stroke-width="0.42935416102409363"/>
      <path id="ID0.9902663305401802" fill="#387ACF" stroke="none" d="M 593.2665 377.8049 L 595.8426 377.8049 L 595.8426 380.381 L 593.2665 380.381 L 593.2665 377.8049 Z " stroke-width="0.42935416102409363"/>
    </g>
    <path id="ID0.5798527128063142" fill="none" stroke="#64B1FF" stroke-width="0.8587083220481873" stroke-linecap="round" d="M 622.459 406.0972 C 622.459 406.0972 622.2336 406.8442 622.0296 407.1705 C 621.8691 407.4277 621.6325 407.6381 621.3856 407.8146 C 621.1254 408.0005 620.7695 408.0357 620.5269 408.2439 C 620.2555 408.4766 620.1156 408.8313 619.8829 409.1026 C 619.6854 409.3328 619.2126 409.7205 619.2388 409.7467 C 619.265 409.7729 619.8374 409.5032 620.0975 409.3173 C 620.3444 409.1408 620.5758 408.6179 620.7416 408.6733 C 620.8979 408.7252 620.8541 409.2692 620.7416 409.532 C 620.6222 409.8106 620.3122 409.9613 620.0975 410.176 C 619.8829 410.3907 619.399 410.6024 619.4535 410.8201 C 619.5063 411.0317 620.0177 411.0347 620.3122 411.0347 C 620.6068 411.0347 620.8785 410.8565 621.1709 410.8201 C 621.4547 410.7844 621.8274 410.6178 622.0296 410.8201 C 622.2319 411.0223 622.0653 411.395 622.0296 411.6788 C 621.9931 411.9711 621.9614 412.2816 621.815 412.5375 C 621.6647 412.8007 621.3066 412.9101 621.1709 413.1815 C 621.1258 413.2721 621.3856 413.3962 621.3856 413.3962 "/>
    <path id="ID0.7120610969141126" fill="none" stroke="#64B1FF" stroke-width="0.8587083220481873" stroke-linecap="round" d="M 633.6222 401.8036 C 633.6222 401.8036 633.5226 402.5314 633.4075 402.877 C 633.3066 403.1801 633.1211 403.4498 632.9782 403.7357 C 632.8352 404.0217 632.7261 404.3282 632.5488 404.5944 C 632.1521 405.1891 631.6575 405.7172 631.2607 406.3118 C 631.0834 406.578 630.9868 406.891 630.8314 407.1705 C 630.6292 407.5351 630.4325 407.9069 630.1874 408.2439 C 629.8589 408.6956 629.4424 409.0803 629.114 409.532 C 628.8688 409.869 628.7014 410.2585 628.4699 410.6054 C 628.2716 410.9029 627.9994 411.1515 627.8259 411.4641 C 627.6391 411.8007 627.6005 412.2112 627.3966 412.5375 C 626.8813 413.3618 626.254 414.1149 625.6791 414.8989 C 625.4679 415.187 625.2086 415.4451 625.0351 415.7576 C 624.8483 416.0942 624.762 416.4794 624.6058 416.831 C 624.4761 417.123 624.3318 417.4102 624.1764 417.6897 C 623.9742 418.0542 623.7346 418.3986 623.5324 418.7631 C 623.3769 419.0426 623.2889 419.3616 623.103 419.6218 C 622.9266 419.8687 622.6217 420.0099 622.459 420.2658 C 622.1155 420.8051 621.9176 421.4281 621.6003 421.9833 C 621.3444 422.4306 621.003 422.8269 620.7416 423.2713 C 620.2873 424.0433 619.9378 424.8793 619.4535 425.6328 C 619.2895 425.8878 618.9915 426.0342 618.8095 426.2768 C 618.5592 426.6104 618.4158 427.0166 618.1654 427.3502 C 617.9834 427.5928 617.7035 427.7516 617.5214 427.9942 C 617.2711 428.3278 617.1277 428.734 616.8774 429.0676 C 616.6953 429.3102 616.4309 429.4815 616.2334 429.7116 C 616.0006 429.983 615.7787 430.2672 615.5893 430.5703 C 615.4197 430.8413 615.3459 431.1689 615.16 431.4291 C 614.9835 431.6759 614.5159 432.0731 614.5159 432.0731 "/>
    <path id="ID0.493214410264045" fill="none" stroke="#64B1FF" stroke-width="0.8587083220481873" stroke-linecap="round" d="M 627.6112 424.13 C 627.6112 424.13 627.0763 424.8797 626.7525 425.2034 C 626.4996 425.4563 626.1596 425.6083 625.8938 425.8474 C 625.443 426.2532 624.9849 426.6619 624.6058 427.1355 C 624.4061 427.385 624.3623 427.734 624.1764 427.9942 C 623.9999 428.2411 623.7299 428.4081 623.5324 428.6382 C 623.2997 428.9096 622.8008 429.4094 622.8883 429.497 C 622.9759 429.5845 623.6101 429.2239 623.9617 429.0676 C 624.2537 428.9379 624.5495 428.8078 624.8204 428.6382 C 625.1236 428.4489 625.3704 428.1741 625.6791 427.9942 C 626.2313 427.6722 626.8062 427.3815 627.3966 427.1355 C 627.6688 427.0222 627.9693 426.9925 628.2553 426.9208 C 628.5412 426.8491 628.8959 426.5426 629.114 426.7062 C 629.3252 426.8646 629.1573 427.2823 629.114 427.5649 C 629.0139 428.2162 628.8139 428.8508 628.6846 429.497 C 628.5992 429.9233 628.4699 430.785 628.4699 430.785 "/>
    <path id="ID0.3716850262135267" fill="none" stroke="#64B1FF" stroke-width="0.8587083220481873" stroke-linecap="round" d="M 617.7361 417.6897 C 617.7361 417.6897 617.4437 418.6905 617.3067 419.1925 C 617.229 419.4767 617.1955 419.7751 617.0921 420.0512 C 616.98 420.3504 616.7748 420.6106 616.6627 420.9099 C 616.5592 421.1859 616.5614 421.4964 616.448 421.7686 C 616.202 422.3589 615.8572 422.9055 615.5893 423.486 C 615.4279 423.8355 615.3467 424.2228 615.16 424.5594 C 614.9865 424.872 614.7053 425.115 614.5159 425.4181 C 614.3463 425.689 614.2562 426.0059 614.0866 426.2768 C 613.8972 426.5799 613.6319 426.8324 613.4426 427.1355 C 613.273 427.4064 613.1828 427.7233 613.0132 427.9942 C 612.8239 428.2973 612.5632 428.5528 612.3692 428.8529 C 611.7762 429.7692 611.27 430.7447 610.6517 431.6437 C 610.48 431.8936 610.2052 432.0576 610.0077 432.2878 C 609.775 432.5591 609.541 432.836 609.3637 433.1465 C 608.967 433.8403 608.687 434.5994 608.2903 435.2932 C 608.113 435.6037 607.8356 435.8488 607.6463 436.1519 C 607.4767 436.4229 607.3011 436.7024 607.2169 437.0107 C 607.0838 437.4984 607.0022 438.5134 607.0022 438.5134 "/>
    <path id="ID0.9111205753870308" fill="none" stroke="#64B1FF" stroke-width="0.8587083220481873" stroke-linecap="round" d="M 613.0132 435.7226 C 613.0132 435.7226 612.7401 436.4443 612.5838 436.796 C 612.4542 437.0879 612.0429 437.4872 612.1545 437.6547 C 612.2575 437.8093 612.7496 437.5718 613.0132 437.44 C 613.3331 437.2803 613.586 437.0107 613.8719 436.796 C 614.1579 436.5813 614.4365 436.0931 614.7306 436.1519 C 614.9732 436.2005 615.0166 436.7247 614.9453 437.0107 C 614.8586 437.3576 614.2416 437.6306 614.3013 437.8694 C 614.3489 438.06 614.9148 437.7221 615.16 437.8694 C 615.3536 437.9857 615.3746 438.5134 615.3746 438.5134 "/>
    <path id="ID0.30684019485488534" fill="none" stroke="#64B1FF" stroke-width="0.8587083220481873" stroke-linecap="round" d="M 623.3177 434.2199 C 623.3177 434.2199 622.9064 434.8072 622.6737 435.0786 C 622.4762 435.3087 622.1799 435.4594 622.0296 435.7226 C 621.8832 435.9785 621.9614 436.3254 621.815 436.5813 C 621.6647 436.8445 621.3212 436.9621 621.1709 437.2253 C 621.0245 437.4812 621.1027 437.8281 620.9562 438.084 C 620.806 438.3472 620.4711 438.4696 620.3122 438.7281 C 619.8932 439.4086 619.2388 440.8748 619.2388 440.8748 "/>
    <path id="ID0.531047492288053" fill="none" stroke="#64B1FF" stroke-width="0.8587083220481873" stroke-linecap="round" d="M 628.0406 435.2932 C 628.0406 435.2932 627.5563 435.8321 627.3966 436.1519 C 627.2647 436.4156 627.3283 436.7548 627.1819 437.0107 C 627.0316 437.2738 626.7354 437.4246 626.5379 437.6547 C 626.3051 437.926 626.0832 438.2103 625.8938 438.5134 C 625.7242 438.7843 625.6418 439.1059 625.4645 439.3721 C 625.3524 439.5404 625.0351 439.8015 625.0351 439.8015 "/>
    <path id="ID0.06554725440219045" fill="none" stroke="#64B1FF" stroke-width="0.8587083220481873" stroke-linecap="round" d="M 629.3287 419.6218 C 629.3287 419.6218 629.7258 418.7451 629.9727 418.3337 C 630.1564 418.0272 630.4274 417.7782 630.6167 417.475 C 630.7863 417.2041 630.8765 416.8873 631.0461 416.6163 C 631.2354 416.3132 631.5008 416.0607 631.6901 415.7576 C 631.8597 415.4867 631.9335 415.1591 632.1195 414.8989 C 632.2959 414.652 632.6132 414.5181 632.7635 414.2549 C 632.9099 413.999 632.8584 413.6654 632.9782 413.3962 C 633.1473 413.0153 633.42 412.6873 633.6222 412.3228 C 633.7776 412.0433 633.8656 411.7243 634.0516 411.4641 C 634.228 411.2172 634.5453 411.0832 634.6956 410.8201 C 634.842 410.5642 634.7638 410.2172 634.9103 409.9613 C 635.0605 409.6981 635.3722 409.5599 635.5543 409.3173 C 635.8046 408.9837 636.1983 408.2439 636.1983 408.2439 "/>
    <path id="ID0.6533632772043347" fill="none" stroke="#64B1FF" stroke-width="0.8587083220481873" stroke-linecap="round" d="M 634.2662 420.0512 C 634.2662 420.0512 634.3774 419.4685 634.4809 419.1925 C 634.593 418.8932 634.7407 418.6047 634.9103 418.3337 C 635.0996 418.0306 635.3744 417.7837 635.5543 417.475 C 635.8763 416.9229 636.1069 416.3188 636.413 415.7576 C 636.5362 415.5314 636.8424 415.1136 636.8424 415.1136 "/>
    <path id="ID0.0075440797954797745" fill="none" stroke="#64B1FF" stroke-width="0.8587083220481873" stroke-linecap="round" d="M 636.1983 424.13 C 636.1983 424.13 635.9119 424.7028 635.769 424.9887 C 635.483 425.5606 635.2537 426.1669 634.9103 426.7062 C 634.7475 426.9621 634.4427 427.1033 634.2662 427.3502 C 634.0803 427.6104 634.0228 427.9487 633.8369 428.2089 C 633.6604 428.4558 633.3693 428.606 633.1928 428.8529 C 633.0069 429.1131 632.6626 429.4085 632.7635 429.7116 C 632.8644 430.0148 633.3023 430.141 633.6222 430.141 C 633.9421 430.141 634.1842 429.8306 634.4809 429.7116 C 634.5552 429.682 634.6956 429.7116 634.6956 429.7116 "/>
    <path id="ID0.25274927308782935" fill="none" stroke="#64B1FF" stroke-width="0.8587083220481873" stroke-linecap="round" d="M 635.3396 430.141 L 635.4684 430.2698 "/>
    <path id="ID0.907470793928951" fill="none" stroke="#64B1FF" stroke-width="0.8587083220481873" stroke-linecap="round" d="M 617.0921 412.3228 C 617.0921 412.3228 616.9925 413.0505 616.8774 413.3962 C 616.7765 413.6993 616.591 413.9689 616.448 414.2549 C 616.3051 414.5408 616.2046 414.8534 616.0187 415.1136 C 615.8422 415.3605 615.5511 415.5107 615.3746 415.7576 C 615.1887 416.0178 615.1449 416.3669 614.9453 416.6163 C 614.5662 417.0899 614.0518 417.4437 613.6572 417.9044 C 613.1918 418.4471 612.85 419.0928 612.3692 419.6218 C 612.1287 419.8863 611.7633 420.013 611.5105 420.2658 C 611.0446 420.7317 610.4019 421.529 610.2224 421.7686 C 610.1211 421.9038 610.6689 421.3547 610.8664 421.1246 C 611.0991 420.8532 611.3507 420.5857 611.5105 420.2658 C 611.6423 420.0022 611.6217 419.6832 611.7251 419.4071 C 611.8372 419.1079 612.0768 418.8584 612.1545 418.5484 C 612.224 418.2711 612.3129 417.9276 612.1545 417.6897 C 611.9772 417.4235 611.6058 417.3381 611.2958 417.2604 C 611.0184 417.1908 610.6998 417.1479 610.4371 417.2604 C 610.1584 417.3797 609.985 417.6695 609.793 417.9044 C 609.3405 418.4578 608.9017 419.0272 608.505 419.6218 C 608.3277 419.888 608.2615 420.2203 608.0756 420.4805 C 607.8992 420.7274 607.6081 420.8777 607.4316 421.1246 C 607.2457 421.3847 607.1031 421.6801 607.0022 421.9833 C 606.9572 422.1189 607.0022 422.4126 607.0022 422.4126 "/>
  </g>
  <path id="ID0.6386144929565489" fill="#767B7F" stroke="none" d="M 333.0927 489.5189 L 722.4422 489.5189 L 722.4422 620.295 L 333.0927 620.295 L 333.0927 489.5189 Z " stroke-width="1.1432353985935166"/>
  <path id="ID0.10353772528469563" fill="#6A6F73" stroke="none" d="M 322.3974 483.8443 L 702.365 483.8443 L 702.365 499.0401 L 322.3974 499.0401 L 322.3974 483.8443 Z " stroke-width="1.0037343878287286"/>
  <path id="ID0.7202957817353308" fill="none" stroke="#6A6F73" stroke-width="1.9610530137317959" stroke-linecap="round" d="M 336.3397 516.5836 C 336.3397 516.5836 337.5091 515.4278 337.8947 514.7417 C 338.213 514.1762 338.2399 513.5131 338.4131 512.8998 C 338.5862 512.2864 338.8433 511.685 338.9314 511.0579 C 339.0174 510.4491 338.9314 509.8293 338.9314 509.2159 C 338.9314 508.6026 338.5001 507.8529 338.9314 507.374 C 339.3761 506.8804 340.3382 507.1355 341.0047 506.9135 C 341.7273 506.6732 342.3462 506.209 343.0781 505.9926 C 344.4289 505.5929 345.8294 505.3194 347.2248 505.0716 C 347.5742 505.0099 348.2615 505.0716 348.2615 505.0716 "/>
  <path id="ID0.08655582694336772" fill="none" stroke="#6A6F73" stroke-width="1.9610530137317959" stroke-linecap="round" d="M 346.1881 510.1369 C 346.1881 510.1369 345.7672 511.662 345.6698 512.4393 C 345.5931 513.049 345.9414 513.7176 345.6698 514.2812 C 345.3816 514.8789 343.9811 515.3072 344.1148 515.6626 C 344.2402 515.9979 345.5537 515.9039 346.1881 515.6626 C 346.8609 515.4066 347.1471 514.6597 347.7432 514.2812 C 348.3714 513.8824 349.1883 513.759 349.8165 513.3603 C 350.4126 512.9817 351.3083 511.9226 351.3715 511.9788 C 351.4348 512.035 350.7443 513.2396 350.3348 513.8207 C 349.8777 514.4709 349.237 515.0125 348.7798 515.6626 C 348.3703 516.2438 348.192 516.9465 347.7432 517.5046 C 347.3171 518.0341 346.551 518.3215 346.1881 518.886 C 345.8346 519.4349 346.0233 520.179 345.6698 520.7279 C 345.307 521.2925 344.0111 521.9242 344.1148 522.1094 C 344.2185 522.2945 345.5703 521.9629 346.1881 521.6489 C 346.8236 521.3265 347.1471 520.646 347.7432 520.2674 C 348.3714 519.8687 349.1883 519.7453 349.8165 519.3465 C 350.4126 518.968 350.8532 518.4255 351.3715 517.965 C 351.8899 517.5046 352.3305 516.9621 352.9265 516.5836 C 353.5548 516.1848 354.4142 516.1093 354.9999 515.6626 C 355.6551 515.1635 356.3839 513.8207 356.5549 513.8207 C 356.726 513.8207 356.2864 515.0705 356.0366 515.6626 C 355.766 516.3046 355.3451 516.8912 354.9999 517.5046 C 354.6547 518.1179 354.3084 518.7331 353.9632 519.3465 C 353.618 519.9598 353.3754 520.6303 352.9265 521.1884 C 352.5005 521.7179 351.8899 522.1094 351.3715 522.5698 C 350.8532 523.0303 350.2426 523.4217 349.8165 523.9513 C 349.3676 524.5094 349.2287 525.2351 348.7798 525.7932 C 348.3538 526.3227 347.8209 526.7961 347.2248 527.1746 C 346.5966 527.5734 345.6978 527.6102 345.1515 528.0956 C 344.9078 528.312 345.1515 529.0165 345.1515 529.0165 "/>
  <path id="ID0.5409221323207021" fill="none" stroke="#6A6F73" stroke-width="1.9610530137317959" stroke-linecap="round" d="M 370.0317 510.1369 C 370.0317 510.1369 369.7632 511.3866 369.5134 511.9788 C 369.2428 512.6207 368.8862 513.2396 368.4767 513.8207 C 368.0195 514.4709 367.3561 515.0005 366.9217 515.6626 C 366.1442 516.847 365.6777 518.1898 364.8483 519.3465 C 364.4554 519.8954 363.681 520.1763 363.2933 520.7279 C 362.8009 521.4278 362.8144 522.37 362.2566 523.0303 C 361.7383 523.6437 360.685 523.7883 360.1833 524.4118 C 359.7696 524.9266 360.0185 525.7048 359.6649 526.2537 C 359.3021 526.8182 358.536 527.1056 358.1099 527.6351 C 357.661 528.1932 357.5366 528.9281 357.0733 529.477 C 355.9723 530.7811 354.6194 531.9084 353.4449 533.1609 C 352.8923 533.7503 352.4517 534.4207 351.8899 535.0028 C 351.413 535.4964 350.5432 536.4763 350.3348 536.3842 C 350.1265 536.2921 350.6282 535.1418 350.8532 534.5423 C 351.3197 533.299 351.8028 532.0529 352.4082 530.8585 C 353.3588 528.9825 354.3831 527.1258 355.5182 525.3327 C 355.9412 524.6641 356.5114 524.0728 357.0733 523.4908 C 357.5501 522.9972 358.1514 522.603 358.6283 522.1094 C 359.1901 521.5273 359.4929 520.7279 360.1833 520.2674 C 360.9266 519.772 361.9259 519.6817 362.775 519.3465 C 363.4799 519.0684 364.1258 518.6659 364.8483 518.4255 C 365.5149 518.2036 366.2313 518.1179 366.9217 517.965 C 367.6121 517.8122 368.8675 516.8829 368.995 517.5046 C 369.3703 519.34 368.6571 521.2713 367.9584 523.0303 C 367.5903 523.9559 366.4977 524.5158 365.885 525.3327 C 365.4569 525.9037 365.1189 526.5327 364.8483 527.1746 C 364.5985 527.7668 364.6151 528.4373 364.33 529.0165 C 363.4022 530.9017 362.2556 532.7022 361.22 534.5423 C 360.8747 535.1557 360.6322 535.8261 360.1833 536.3842 C 359.7572 536.9138 359.0543 537.2361 358.6283 537.7656 C 358.1794 538.3237 357.3459 539.3893 357.5916 539.6076 C 357.8373 539.8258 359.1186 539.172 359.6649 538.6866 C 360.7151 537.7537 361.2065 536.3962 362.2566 535.4633 C 363.3068 534.5303 365.0826 532.8044 365.885 533.1609 C 366.6376 533.4952 365.8425 535.6824 365.3667 536.8447 C 365.1168 537.4562 364.2688 537.7178 363.8117 538.2261 C 362.8838 539.2558 361.3713 540.7753 361.22 541.4495 C 361.1308 541.8437 362.5708 540.7689 363.2933 540.5285 C 363.9599 540.3066 364.84 539.7172 365.3667 540.068 C 365.8767 540.4079 365.6383 541.3463 365.3667 541.91 C 365.0785 542.5077 363.8117 543.2914 363.8117 543.2914 "/>
  <path id="ID0.8510192781686783" fill="none" stroke="#6A6F73" stroke-width="1.9610530137317959" stroke-linecap="round" d="M 400.3935 552.5597 C 400.3935 552.5597 399.0479 554.1235 398.3201 554.8621 C 397.8381 555.352 397.1912 555.714 396.7651 556.2435 C 396.3162 556.8016 395.4547 557.5992 395.7284 558.0854 C 395.9731 558.5201 397.1673 558.3267 397.8018 558.0854 C 398.4746 557.8294 398.7607 557.0825 399.3568 556.704 C 399.985 556.3052 400.8019 556.1818 401.4302 555.783 C 402.0262 555.4045 402.3891 554.7801 402.9852 554.4016 C 403.6134 554.0028 404.2945 553.3839 405.0585 553.4806 C 405.7832 553.5727 406.4124 554.2367 406.6135 554.8621 C 406.8095 555.4699 406.345 556.1118 406.0952 556.704 C 405.8246 557.3459 405.4037 557.9325 405.0585 558.5459 C 404.7133 559.1593 404.4707 559.8297 404.0218 560.3878 C 403.5958 560.9174 402.4668 561.807 402.4668 561.7693 C 402.4668 561.7315 403.46 560.5094 404.0218 559.9273 C 404.4987 559.4337 405.1 559.0395 405.5769 558.5459 C 406.1387 557.9639 406.6529 557.3422 407.1319 556.704 C 407.6907 555.9598 408.1281 555.1457 408.6869 554.4016 C 409.1658 553.7634 409.763 553.1979 410.2419 552.5597 C 410.8007 551.8155 411.1925 550.9729 411.7969 550.2573 C 412.2365 549.7369 412.8336 549.3363 413.3519 548.8758 C 414.0424 548.2625 414.908 547.7698 415.4253 547.0339 C 415.8027 546.4979 415.5663 545.728 415.9436 545.192 C 416.4609 544.4562 417.4313 544.0436 418.017 543.3501 C 418.4804 542.8012 418.7085 542.1215 419.0537 541.5082 C 419.3989 540.8948 419.6809 540.2474 420.0903 539.6663 C 420.5475 539.0161 421.2597 538.5104 421.6454 537.8243 C 421.9636 537.2589 421.8454 536.5479 422.1637 535.9824 C 422.5493 535.2963 423.5477 534.1405 423.7187 534.1405 C 423.8898 534.1405 423.4502 535.3902 423.2004 535.9824 C 422.9298 536.6243 422.4343 537.1824 422.1637 537.8243 C 421.9139 538.4165 421.8952 539.0741 421.6454 539.6663 C 421.3748 540.3082 421.0182 540.927 420.6087 541.5082 C 420.1515 542.1584 419.5108 542.6999 419.0537 543.3501 C 418.6442 543.9312 418.2876 544.5501 418.017 545.192 C 417.7672 545.7842 417.763 546.4473 417.4987 547.0339 C 417.0684 547.989 416.462 548.8768 415.9436 549.7968 C 415.5984 550.4102 414.7535 551.6387 414.907 551.6387 C 415.0604 551.6387 416.3946 550.4903 416.9803 549.7968 C 417.4437 549.2479 417.5681 548.513 418.017 547.9549 C 418.4431 547.4253 419.0537 547.0339 419.572 546.5734 C 420.2624 545.9601 421.0596 545.425 421.6454 544.7315 C 422.1088 544.1826 422.2332 543.4477 422.682 542.8896 C 423.1081 542.3601 423.7187 541.9686 424.2371 541.5082 C 424.9275 540.8948 425.6677 540.3192 426.3104 539.6663 C 426.8785 539.0888 427.3036 538.4064 427.8654 537.8243 C 428.3423 537.3307 428.9021 536.9034 429.4204 536.4429 C 429.9388 535.9824 430.4571 535.5219 430.9755 535.0615 C 431.6659 534.4481 432.2527 533.1017 433.0488 533.2195 C 433.8077 533.3319 434.0855 534.6958 434.0855 535.5219 C 434.0855 536.2081 433.3194 536.7219 433.0488 537.3639 C 432.799 537.956 432.7803 538.6136 432.5305 539.2058 C 432.2599 539.8477 431.839 540.4343 431.4938 541.0477 C 431.1486 541.661 430.7277 542.2477 430.4571 542.8896 C 430.2073 543.4818 430.1637 544.132 429.9388 544.7315 C 429.6444 545.5153 429.2795 546.2797 428.9021 547.0339 C 428.589 547.6602 428.1091 548.2256 427.8654 548.8758 C 427.5876 549.6172 427.5378 550.4148 427.3471 551.1782 C 427.1926 551.7953 427.0019 552.4068 426.8288 553.0201 C 426.6556 553.6335 426.4835 554.2487 426.3104 554.8621 C 426.1373 555.4754 426.0419 556.1118 425.7921 556.704 C 425.5215 557.3459 425.1006 557.9325 424.7554 558.5459 C 424.4102 559.1593 423.9064 559.7229 423.7187 560.3878 C 423.5508 560.9828 423.8867 561.6348 423.7187 562.2297 C 423.5311 562.8947 422.9526 563.4297 422.682 564.0716 C 422.4322 564.6638 422.5172 565.3647 422.1637 565.9136 C 421.8009 566.4781 420.475 566.9395 420.6087 567.295 C 420.7341 567.6302 422.0124 567.4442 422.682 567.295 C 423.4305 567.1283 424.1272 566.7728 424.7554 566.374 C 425.3515 565.9955 425.8843 565.5222 426.3104 564.9926 C 426.7593 564.4345 427.0019 563.764 427.3471 563.1507 C 427.6923 562.5373 428.0386 561.9221 428.3838 561.3088 C 428.729 560.6954 429.0752 560.0802 429.4204 559.4669 C 429.7657 558.8535 430.2736 557.6249 430.4571 557.6249 C 430.6406 557.6249 430.4571 558.8535 430.4571 559.4669 C 430.4571 560.0802 430.4571 560.6954 430.4571 561.3088 C 430.4571 561.9221 430.5432 562.5419 430.4571 563.1507 C 430.369 563.7779 429.8932 564.9926 429.9388 564.9926 C 429.9844 564.9926 430.5266 563.7088 430.9755 563.1507 C 431.4015 562.6211 432.1676 562.3338 432.5305 561.7693 C 432.884 561.2204 432.6953 560.4762 433.0488 559.9273 C 433.4117 559.3628 434.1778 559.0754 434.6038 558.5459 C 435.0527 557.9878 435.457 556.704 435.6405 556.704 C 435.824 556.704 435.6405 557.9325 435.6405 558.5459 C 435.6405 559.1593 435.6405 559.7745 435.6405 560.3878 C 435.6405 561.0012 435.6405 561.6164 435.6405 562.2297 C 435.6405 562.8431 435.1512 563.8543 435.6405 564.0716 C 436.1879 564.3148 437.1675 563.636 437.7139 563.1507 C 438.2602 562.6653 438.4053 561.9221 438.7505 561.3088 C 439.0958 560.6954 439.3829 559.4669 439.7872 559.4669 C 440.1604 559.4669 440.2174 560.6816 440.3056 561.3088 C 440.3916 561.9175 440.3056 562.5373 440.3056 563.1507 C 440.3056 563.764 440.3056 564.3792 440.3056 564.9926 C 440.3056 565.1455 440.3056 564.9926 440.3056 564.9926 "/>
  <path id="ID0.8510192781686783" fill="none" stroke="#6A6F73" stroke-width="1.9610530137317959" stroke-linecap="round" d="M 497.1435 530.9097 C 497.1435 530.9097 495.7979 532.4735 495.0701 533.2121 C 494.5881 533.702 493.9412 534.064 493.5151 534.5935 C 493.0662 535.1516 492.2047 535.9492 492.4784 536.4354 C 492.7231 536.8701 493.9173 536.6767 494.5518 536.4354 C 495.2246 536.1794 495.5107 535.4325 496.1068 535.054 C 496.735 534.6552 497.5519 534.5318 498.1802 534.133 C 498.7762 533.7545 499.1391 533.1301 499.7352 532.7516 C 500.3634 532.3528 501.0445 531.7339 501.8085 531.8306 C 502.5332 531.9227 503.1624 532.5867 503.3635 533.2121 C 503.5595 533.8199 503.095 534.4618 502.8452 535.054 C 502.5746 535.6959 502.1537 536.2825 501.8085 536.8959 C 501.4633 537.5093 501.2207 538.1797 500.7718 538.7378 C 500.3458 539.2674 499.2168 540.157 499.2168 540.1193 C 499.2168 540.0815 500.21 538.8594 500.7718 538.2773 C 501.2487 537.7837 501.85 537.3895 502.3269 536.8959 C 502.8887 536.3139 503.4029 535.6922 503.8819 535.054 C 504.4407 534.3098 504.8781 533.4957 505.4369 532.7516 C 505.9158 532.1134 506.513 531.5479 506.9919 530.9097 C 507.5507 530.1655 507.9425 529.3229 508.5469 528.6073 C 508.9865 528.0869 509.5836 527.6863 510.1019 527.2258 C 510.7924 526.6125 511.658 526.1198 512.1753 525.3839 C 512.5527 524.8479 512.3163 524.078 512.6936 523.542 C 513.2109 522.8062 514.1813 522.3936 514.767 521.7001 C 515.2304 521.1512 515.4585 520.4715 515.8037 519.8582 C 516.1489 519.2448 516.4309 518.5974 516.8403 518.0163 C 517.2975 517.3661 518.0097 516.8604 518.3954 516.1743 C 518.7136 515.6089 518.5954 514.8979 518.9137 514.3324 C 519.2993 513.6463 520.2977 512.4905 520.4687 512.4905 C 520.6398 512.4905 520.2002 513.7402 519.9504 514.3324 C 519.6798 514.9743 519.1843 515.5324 518.9137 516.1743 C 518.6639 516.7665 518.6452 517.4241 518.3954 518.0163 C 518.1248 518.6582 517.7682 519.277 517.3587 519.8582 C 516.9015 520.5084 516.2608 521.0499 515.8037 521.7001 C 515.3942 522.2812 515.0376 522.9001 514.767 523.542 C 514.5172 524.1342 514.513 524.7973 514.2487 525.3839 C 513.8184 526.339 513.212 527.2268 512.6936 528.1468 C 512.3484 528.7602 511.5035 529.9887 511.657 529.9887 C 511.8104 529.9887 513.1446 528.8403 513.7303 528.1468 C 514.1937 527.5979 514.3181 526.863 514.767 526.3049 C 515.1931 525.7753 515.8037 525.3839 516.322 524.9234 C 517.0124 524.3101 517.8096 523.775 518.3954 523.0815 C 518.8588 522.5326 518.9832 521.7977 519.432 521.2396 C 519.8581 520.7101 520.4687 520.3186 520.9871 519.8582 C 521.6775 519.2448 522.4177 518.6692 523.0604 518.0163 C 523.6285 517.4388 524.0536 516.7564 524.6154 516.1743 C 525.0923 515.6807 525.6521 515.2534 526.1704 514.7929 C 526.6888 514.3324 527.2071 513.8719 527.7255 513.4115 C 528.4159 512.7981 529.0027 511.4517 529.7988 511.5695 C 530.5577 511.6819 530.8355 513.0458 530.8355 513.8719 C 530.8355 514.5581 530.0694 515.0719 529.7988 515.7139 C 529.549 516.306 529.5303 516.9636 529.2805 517.5558 C 529.0099 518.1977 528.589 518.7843 528.2438 519.3977 C 527.8986 520.011 527.4777 520.5977 527.2071 521.2396 C 526.9573 521.8318 526.9137 522.482 526.6888 523.0815 C 526.3944 523.8653 526.0295 524.6297 525.6521 525.3839 C 525.339 526.0102 524.8591 526.5756 524.6154 527.2258 C 524.3376 527.9672 524.2878 528.7648 524.0971 529.5282 C 523.9426 530.1453 523.7519 530.7568 523.5788 531.3701 C 523.4056 531.9835 523.2335 532.5987 523.0604 533.2121 C 522.8873 533.8254 522.7919 534.4618 522.5421 535.054 C 522.2715 535.6959 521.8506 536.2825 521.5054 536.8959 C 521.1602 537.5093 520.6564 538.0729 520.4687 538.7378 C 520.3008 539.3328 520.6367 539.9848 520.4687 540.5797 C 520.2811 541.2447 519.7026 541.7797 519.432 542.4216 C 519.1822 543.0138 519.2672 543.7147 518.9137 544.2636 C 518.5509 544.8281 517.225 545.2895 517.3587 545.645 C 517.4841 545.9802 518.7624 545.7942 519.432 545.645 C 520.1805 545.4783 520.8772 545.1228 521.5054 544.724 C 522.1015 544.3455 522.6343 543.8722 523.0604 543.3426 C 523.5093 542.7845 523.7519 542.114 524.0971 541.5007 C 524.4423 540.8873 524.7886 540.2721 525.1338 539.6588 C 525.479 539.0454 525.8252 538.4302 526.1704 537.8169 C 526.5157 537.2035 527.0236 535.9749 527.2071 535.9749 C 527.3906 535.9749 527.2071 537.2035 527.2071 537.8169 C 527.2071 538.4302 527.2071 539.0454 527.2071 539.6588 C 527.2071 540.2721 527.2932 540.8919 527.2071 541.5007 C 527.119 542.1279 526.6432 543.3426 526.6888 543.3426 C 526.7344 543.3426 527.2766 542.0588 527.7255 541.5007 C 528.1515 540.9711 528.9176 540.6838 529.2805 540.1193 C 529.634 539.5704 529.4453 538.8262 529.7988 538.2773 C 530.1617 537.7128 530.9278 537.4254 531.3538 536.8959 C 531.8027 536.3378 532.207 535.054 532.3905 535.054 C 532.574 535.054 532.3905 536.2825 532.3905 536.8959 C 532.3905 537.5093 532.3905 538.1245 532.3905 538.7378 C 532.3905 539.3512 532.3905 539.9664 532.3905 540.5797 C 532.3905 541.1931 531.9012 542.2043 532.3905 542.4216 C 532.9379 542.6648 533.9175 541.986 534.4639 541.5007 C 535.0102 541.0153 535.1553 540.2721 535.5005 539.6588 C 535.8458 539.0454 536.1329 537.8169 536.5372 537.8169 C 536.9104 537.8169 536.9674 539.0316 537.0556 539.6588 C 537.1416 540.2675 537.0556 540.8873 537.0556 541.5007 C 537.0556 542.114 537.0556 542.7292 537.0556 543.3426 C 537.0556 543.4955 537.0556 543.3426 537.0556 543.3426 "/>
  <path id="ID0.5409221323207021" fill="none" stroke="#6A6F73" stroke-width="1.9610530137317959" stroke-linecap="round" d="M 559.5817 533.7369 C 559.5817 533.7369 559.3132 534.9866 559.0634 535.5788 C 558.7928 536.2207 558.4362 536.8396 558.0267 537.4207 C 557.5695 538.0709 556.9061 538.6005 556.4717 539.2626 C 555.6942 540.447 555.2277 541.7898 554.3983 542.9465 C 554.0054 543.4954 553.231 543.7763 552.8433 544.3279 C 552.3509 545.0278 552.3644 545.97 551.8066 546.6303 C 551.2883 547.2437 550.235 547.3883 549.7333 548.0118 C 549.3196 548.5266 549.5685 549.3048 549.2149 549.8537 C 548.8521 550.4182 548.086 550.7056 547.6599 551.2351 C 547.211 551.7932 547.0866 552.5281 546.6233 553.077 C 545.5223 554.3811 544.1694 555.5084 542.9949 556.7609 C 542.4423 557.3503 542.0017 558.0207 541.4399 558.6028 C 540.963 559.0964 540.0932 560.0763 539.8848 559.9842 C 539.6765 559.8921 540.1782 558.7418 540.4032 558.1423 C 540.8697 556.899 541.3528 555.6529 541.9582 554.4585 C 542.9088 552.5825 543.9331 550.7258 545.0682 548.9327 C 545.4912 548.2641 546.0614 547.6728 546.6233 547.0908 C 547.1001 546.5972 547.7014 546.203 548.1783 545.7094 C 548.7401 545.1273 549.0429 544.3279 549.7333 543.8674 C 550.4766 543.372 551.4759 543.2817 552.325 542.9465 C 553.0299 542.6684 553.6758 542.2659 554.3983 542.0255 C 555.0649 541.8036 555.7813 541.7179 556.4717 541.565 C 557.1621 541.4122 558.4175 540.4829 558.545 541.1046 C 558.9203 542.94 558.2071 544.8713 557.5084 546.6303 C 557.1403 547.5559 556.0477 548.1158 555.435 548.9327 C 555.0069 549.5037 554.6689 550.1327 554.3983 550.7746 C 554.1485 551.3668 554.1651 552.0373 553.88 552.6165 C 552.9522 554.5017 551.8056 556.3022 550.77 558.1423 C 550.4247 558.7557 550.1822 559.4261 549.7333 559.9842 C 549.3072 560.5138 548.6043 560.8361 548.1783 561.3656 C 547.7294 561.9237 546.8959 562.9893 547.1416 563.2076 C 547.3873 563.4258 548.6686 562.772 549.2149 562.2866 C 550.2651 561.3537 550.7565 559.9962 551.8066 559.0633 C 552.8568 558.1303 554.6326 556.4044 555.435 556.7609 C 556.1876 557.0952 555.3925 559.2824 554.9167 560.4447 C 554.6668 561.0562 553.8188 561.3178 553.3617 561.8261 C 552.4338 562.8558 550.9213 564.3753 550.77 565.0495 C 550.6808 565.4437 552.1208 564.3689 552.8433 564.1285 C 553.5099 563.9066 554.39 563.3172 554.9167 563.668 C 555.4267 564.0079 555.1883 564.9463 554.9167 565.51 C 554.6285 566.1077 553.3617 566.8914 553.3617 566.8914 "/>
  <path id="ID0.5409221323207021" fill="none" stroke="#6A6F73" stroke-width="1.9610530137317959" stroke-linecap="round" d="M 613.0817 510.3869 C 613.0817 510.3869 612.8132 511.6366 612.5634 512.2288 C 612.2928 512.8707 611.9362 513.4896 611.5267 514.0707 C 611.0695 514.7209 610.4061 515.2505 609.9717 515.9126 C 609.1942 517.097 608.7277 518.4398 607.8983 519.5965 C 607.5054 520.1454 606.731 520.4263 606.3433 520.9779 C 605.8509 521.6778 605.8644 522.62 605.3066 523.2803 C 604.7883 523.8937 603.735 524.0383 603.2333 524.6618 C 602.8196 525.1766 603.0685 525.9548 602.7149 526.5037 C 602.3521 527.0682 601.586 527.3556 601.1599 527.8851 C 600.711 528.4432 600.5866 529.1781 600.1233 529.727 C 599.0223 531.0311 597.6694 532.1584 596.4949 533.4109 C 595.9423 534.0003 595.5017 534.6707 594.9399 535.2528 C 594.463 535.7464 593.5932 536.7263 593.3848 536.6342 C 593.1765 536.5421 593.6782 535.3918 593.9032 534.7923 C 594.3697 533.549 594.8528 532.3029 595.4582 531.1085 C 596.4088 529.2325 597.4331 527.3758 598.5682 525.5827 C 598.9912 524.9141 599.5614 524.3228 600.1233 523.7408 C 600.6001 523.2472 601.2014 522.853 601.6783 522.3594 C 602.2401 521.7773 602.5429 520.9779 603.2333 520.5174 C 603.9766 520.022 604.9759 519.9317 605.825 519.5965 C 606.5299 519.3184 607.1758 518.9159 607.8983 518.6755 C 608.5649 518.4536 609.2813 518.3679 609.9717 518.215 C 610.6621 518.0622 611.9175 517.1329 612.045 517.7546 C 612.4203 519.59 611.7071 521.5213 611.0084 523.2803 C 610.6403 524.2059 609.5477 524.7658 608.935 525.5827 C 608.5069 526.1537 608.1689 526.7827 607.8983 527.4246 C 607.6485 528.0168 607.6651 528.6873 607.38 529.2665 C 606.4522 531.1517 605.3056 532.9522 604.27 534.7923 C 603.9247 535.4057 603.6822 536.0761 603.2333 536.6342 C 602.8072 537.1638 602.1043 537.4861 601.6783 538.0156 C 601.2294 538.5737 600.3959 539.6393 600.6416 539.8576 C 600.8873 540.0758 602.1686 539.422 602.7149 538.9366 C 603.7651 538.0037 604.2565 536.6462 605.3066 535.7133 C 606.3568 534.7803 608.1326 533.0544 608.935 533.4109 C 609.6876 533.7452 608.8925 535.9324 608.4167 537.0947 C 608.1668 537.7062 607.3188 537.9678 606.8617 538.4761 C 605.9338 539.5058 604.4213 541.0253 604.27 541.6995 C 604.1808 542.0937 605.6208 541.0189 606.3433 540.7785 C 607.0099 540.5566 607.89 539.9672 608.4167 540.318 C 608.9267 540.6579 608.6883 541.5963 608.4167 542.16 C 608.1285 542.7577 606.8617 543.5414 606.8617 543.5414 "/>
  <path id="ID0.5409221323207021" fill="none" stroke="#6A6F73" stroke-width="1.9610530137317959" stroke-linecap="round" d="M 675.8317 526.4869 C 675.8317 526.4869 675.5632 527.7366 675.3134 528.3288 C 675.0428 528.9707 674.6862 529.5896 674.2767 530.1707 C 673.8195 530.8209 673.1561 531.3505 672.7217 532.0126 C 671.9442 533.197 671.4777 534.5398 670.6483 535.6965 C 670.2554 536.2454 669.481 536.5263 669.0933 537.0779 C 668.6009 537.7778 668.6144 538.72 668.0566 539.3803 C 667.5383 539.9937 666.485 540.1383 665.9833 540.7618 C 665.5696 541.2766 665.8185 542.0548 665.4649 542.6037 C 665.1021 543.1682 664.336 543.4556 663.9099 543.9851 C 663.461 544.5432 663.3366 545.2781 662.8733 545.827 C 661.7723 547.1311 660.4194 548.2584 659.2449 549.5109 C 658.6923 550.1003 658.2517 550.7707 657.6899 551.3528 C 657.213 551.8464 656.3432 552.8263 656.1348 552.7342 C 655.9265 552.6421 656.4282 551.4918 656.6532 550.8923 C 657.1197 549.649 657.6028 548.4029 658.2082 547.2085 C 659.1588 545.3325 660.1831 543.4758 661.3182 541.6827 C 661.7412 541.0141 662.3114 540.4228 662.8733 539.8408 C 663.3501 539.3472 663.9514 538.953 664.4283 538.4594 C 664.9901 537.8773 665.2929 537.0779 665.9833 536.6174 C 666.7266 536.122 667.7259 536.0317 668.575 535.6965 C 669.2799 535.4184 669.9258 535.0159 670.6483 534.7755 C 671.3149 534.5536 672.0313 534.4679 672.7217 534.315 C 673.4121 534.1622 674.6675 533.2329 674.795 533.8546 C 675.1703 535.69 674.4571 537.6213 673.7584 539.3803 C 673.3903 540.3059 672.2977 540.8658 671.685 541.6827 C 671.2569 542.2537 670.9189 542.8827 670.6483 543.5246 C 670.3985 544.1168 670.4151 544.7873 670.13 545.3665 C 669.2022 547.2517 668.0556 549.0522 667.02 550.8923 C 666.6747 551.5057 666.4322 552.1761 665.9833 552.7342 C 665.5572 553.2638 664.8543 553.5861 664.4283 554.1156 C 663.9794 554.6737 663.1459 555.7393 663.3916 555.9576 C 663.6373 556.1758 664.9186 555.522 665.4649 555.0366 C 666.5151 554.1037 667.0065 552.7462 668.0566 551.8133 C 669.1068 550.8803 670.8826 549.1544 671.685 549.5109 C 672.4376 549.8452 671.6425 552.0324 671.1667 553.1947 C 670.9168 553.8062 670.0688 554.0678 669.6117 554.5761 C 668.6838 555.6058 667.1713 557.1253 667.02 557.7995 C 666.9308 558.1937 668.3708 557.1189 669.0933 556.8785 C 669.7599 556.6566 670.64 556.0672 671.1667 556.418 C 671.6767 556.7579 671.4383 557.6963 671.1667 558.26 C 670.8785 558.8577 669.6117 559.6414 669.6117 559.6414 "/>
</svg>