<svg xmlns="http://www.w3.org/2000/svg" xmlns:xlink="http://www.w3.org/1999/xlink" version="1.1" width="267.8223626229411" height="681.6715752694255" viewBox="14.979510445731579 -1.9272891985002172 267.8223626229411 681.6715752694255">
  <!-- Exported by Scratch - http://scratch.mit.edu/ -->
  <g id="ID0.5880346246995032">
    <path id="ID0.6829322893172503" fill="#EDD2B8" stroke="none" stroke-linecap="round" d="M 270.9519 337.3781 L 244.8997 327.487 L 238.3127 341.4052 L 229.8626 356.4825 L 231.1373 370.1609 L 233.6498 381.2601 L 239.2178 388.1325 L 244.1397 403.9348 L 255.3299 402.3992 L 257.8058 397.2409 L 261.6683 396.3882 L 268.8927 389.3092 L 276.5146 381.2076 L 280.3982 370.0051 L 276.8508 353.0893 L 270.9519 337.3781 Z " stroke-width="1.9625150121594088"/>
    <g id="ID0.9434720128774643">
      <path id="ID0.6507829907350242" fill="#282828" stroke="none" stroke-linecap="round" d="M 269.9934 180.6882 L 226.8379 209.3475 L 233.8405 249.5936 L 239.3009 279.6355 L 242.8973 318.228 L 238.8852 335.4541 L 274.7111 338.1271 L 271.1977 320.5182 L 273.4092 296.66 L 277.4714 266.2234 L 276.4574 234.1903 L 269.9934 180.6882 Z " stroke-width="1.9625150121594088"/>
      <path id="ID0.9892375003546476" fill="none" stroke="#191919" stroke-width="4.8073783505083005" stroke-linecap="round" d="M 273.4054 336.3789 L 240.4823 332.8081 L 244.5698 311.9074 "/>
    </g>
  </g>
  <g id="ID0.6660797297954559">
    <path id="ID0.5368814701214433" fill="#343434" stroke="none" stroke-linecap="round" d="M 159.6669 641.0186 L 166.5975 619.7941 L 177.3874 597.5673 L 201.367 611.6481 L 228.4471 630.0006 L 270.4204 654.8602 L 273.0127 670.5216 L 213.6479 673.3554 L 162.5815 664.5427 L 159.6669 641.0186 Z " stroke-width="1.8513610569684396"/>
    <g id="ID0.5077062323689461">
      <path id="ID0.05466862628236413" fill="#252525" stroke="none" stroke-linecap="round" d="M 162.3134 467.2281 L 214.456 459.1029 L 210.2834 494.397 L 208.4991 506.4472 L 208.4837 541.2633 L 214.4944 621.1887 L 163.4308 627.8475 L 160.2162 582.7818 L 154.6595 565.7958 L 151.8475 547.2203 L 155.6892 520.5219 L 155.4517 496.2064 L 162.3134 467.2281 Z " stroke-width="1.4418608323296336"/>
      <path id="ID0.5319394422695041" fill="none" stroke="#131313" stroke-width="4.80737829208374" stroke-linecap="round" d="M 214.49 618.901 L 163.4116 628.5158 L 161.008 600.8733 "/>
    </g>
    <g id="ID0.8820344842970371">
      <path id="ID0.3809091211296618" fill="#252525" stroke="none" stroke-linecap="round" d="M 135.3213 290.2834 L 211.5545 243.3725 L 214.5895 301.6084 L 224.1764 418.1302 L 223.0162 443.9758 L 213.3989 471.0962 L 193.9451 465.8465 L 162.8097 468.9485 L 161.2201 416.6396 L 157.0418 384.6636 L 135.3213 290.2834 Z " stroke-width="1.756108777162344"/>
      <path id="ID0.9495224836282432" fill="none" stroke="#131313" stroke-width="4.80737829208374" stroke-linecap="round" d="M 224.1048 418.193 L 224.1048 438.6243 L 219.2974 457.8538 L 198.8661 468.6704 L 196.4624 480.6889 "/>
    </g>
  </g>
  <g id="ID0.18228224432095885">
    <path id="ID0.5368814701214433" fill="#404040" stroke="none" stroke-linecap="round" d="M 67.5482 643.8432 L 74.9364 622.7736 L 86.2048 600.7856 L 109.8741 615.3819 L 136.5507 634.3161 L 177.9762 660.0783 L 180.229 675.792 L 120.8168 677.3406 L 69.9531 667.4249 L 67.5482 643.8432 Z " stroke-width="1.8513610861806322"/>
    <g id="ID0.5077062323689461">
      <path id="ID0.05466862628236413" fill="#252525" stroke="none" stroke-linecap="round" d="M 77.0316 468.7676 L 129.4996 463.1135 L 123.6652 498.1712 L 121.314 510.1237 L 119.6546 544.9003 L 121.8848 625.0203 L 70.5638 629.2606 L 69.4806 584.0934 L 64.7322 566.864 L 62.8004 548.1764 L 67.8983 521.6892 L 68.8092 497.3896 L 77.0316 468.7676 Z " stroke-width="1.4418608018806498"/>
      <path id="ID0.5319394422695041" fill="none" stroke="#131313" stroke-width="4.807378492081764" stroke-linecap="round" d="M 122.0823 622.8349 L 70.6069 630.0272 L 69.511 602.3021 "/>
    </g>
    <g id="ID0.8820344842970371">
      <path id="ID0.3809091211296618" fill="#252525" stroke="none" stroke-linecap="round" d="M 70.838 284.5857 L 136.9638 247.4561 L 137.2458 305.7704 L 141.3202 422.6149 L 138.9409 448.3769 L 128.0538 475.013 L 108.8697 468.8506 L 76.3085 473.6951 L 71.7581 418.1402 L 69.5517 386.7555 L 70.838 284.5857 Z " stroke-width="1.7561088489791046"/>
      <path id="ID0.9495224836282432" fill="none" stroke="#131313" stroke-width="4.807378492081764" stroke-linecap="round" d="M 141.163 422.8047 L 140.1983 443.2133 L 134.4883 462.1943 L 113.5691 472.0342 L 110.6006 483.9257 "/>
    </g>
  </g>
  <path id="ID0.7729651997797191" fill="#282828" stroke="none" stroke-linecap="round" d="M 17.5136 130.5957 L 64.4157 97.9434 L 85.9271 141.8984 L 90.3008 162.6764 L 101.2452 186.1939 L 106.4807 207.3191 L 69.227 224.8575 L 55.7028 214.2469 L 32.902 160.2953 L 17.5136 130.5957 Z " stroke-width="2.304810126867771"/>
  <path id="ID0.4757494777441025" fill="#282828" stroke="none" stroke-linecap="round" d="M 43.2816 69.7672 L 64.4712 64.6169 L 103.9073 76.348 L 83.6006 137.5787 L 57.9966 149.5959 L 46.8132 152.1711 L 38.8671 146.4486 L 31.8039 139.2955 L 17.6775 133.0007 L 17.3832 119.839 L 19.149 100.3825 L 27.0951 80.3538 L 43.2816 69.7672 Z " stroke-width="1.1609638120206986"/>
  <path id="ID0.7729651997797191" fill="#282828" stroke="none" stroke-linecap="round" d="M 263.8434 106.8938 L 206.8889 102.1862 L 210.339 151.001 L 218.4754 176.9719 L 220.7488 199.1878 L 225.6804 219.9237 L 266.4139 214.3786 L 272.7876 198.4141 L 265.4363 140.3054 L 263.8434 106.8938 Z " stroke-width="2.3048102210803942"/>
  <path id="ID0.4757494777441025" fill="#282828" stroke="none" stroke-linecap="round" d="M 237.8184 68.5672 L 216.6288 63.4169 L 177.1927 75.148 L 197.4994 136.3787 L 223.1034 148.3959 L 234.2868 150.9711 L 242.2329 145.2486 L 249.2961 138.0955 L 263.4225 131.8007 L 263.7168 118.639 L 261.951 99.1825 L 254.0049 79.1538 L 237.8184 68.5672 Z " stroke-width="1.1609638120206986"/>
  <path id="ID0.4270821204409003" fill="#313131" stroke="none" stroke-linecap="round" d="M 144.279 395.0833 L 142.7302 78.8729 L 184.4705 85.9712 L 200.8863 98.4447 L 207.5845 109.9814 L 223.9894 142.4864 L 221.8371 171.8066 L 219.3205 187.0946 L 223.0388 206.5616 L 223.9555 221.9446 L 218.5185 241.1581 L 214.4097 255.7343 L 211.1625 281.6857 L 213.8565 343.1909 L 201.1552 365.8757 L 189.3954 382.9778 L 144.279 395.0833 Z " stroke-width="1.2435334406681842"/>
  <path id="ID0.4270821204409003" fill="#313131" stroke="none" stroke-linecap="round" d="M 144.4844 395.4764 L 144.1571 79.2702 L 102.458 86.0797 L 86.1159 98.4399 L 79.486 109.9305 L 63.2737 142.3225 L 65.6 171.6583 L 68.2073 186.964 L 64.6044 206.4057 L 63.779 221.7827 L 69.3301 241.0342 L 73.5255 255.6391 L 76.9267 281.6135 L 74.5976 343.1013 L 87.4338 365.8746 L 99.2953 383.0584 L 144.4844 395.4764 Z " stroke-width="1.2435925513956865"/>
  <path id="ID0.9286923445761204" fill="#313131" stroke="none" stroke-linecap="round" d="M 115.5761 0.4764 L 160.7838 4.0243 L 143.6735 49.4037 L 146.7064 146.6861 L 55.4899 76.8717 L 103.2727 51.4066 L 115.5761 0.4764 Z " stroke-width="1.1444987058639526"/>
  <path id="ID0.9286923445761204" fill="#313131" stroke="none" stroke-linecap="round" d="M 170.6239 1.0764 L 125.4162 4.6243 L 142.5265 50.0037 L 145.4449 146.1416 L 230.7101 77.4717 L 182.9273 52.0066 L 170.6239 1.0764 Z " stroke-width="1.1444987058639526"/>
  <path id="ID0.562834897544235" fill="#313131" stroke="none" stroke-linecap="round" d="M 73.959 293.3011 L 146.6706 279.4799 L 146.6706 328.1546 L 113.6199 331.1592 L 73.959 293.3011 Z " stroke-width="2.40368914604187"/>
  <path id="ID0.562834897544235" fill="#313131" stroke="none" stroke-linecap="round" d="M 220.341 293.9011 L 147.6294 280.0799 L 147.6294 328.7546 L 180.6801 331.7592 L 220.341 293.9011 Z " stroke-width="2.40368914604187"/>
  <path id="ID0.4144489667378366" fill="#313131" stroke="none" stroke-linecap="round" d="M 54.1286 69.758 L 102.8033 50.5285 L 95.5922 102.8088 L 103.4042 247.0301 L 80.5692 354.5952 L 54.1286 342.5768 L 53.5277 350.9897 L 60.7388 235.6126 L 49.3212 131.653 L 46.9175 92.5931 L 54.1286 69.758 Z " stroke-width="2.40368914604187"/>
  <path id="ID0.4144489667378366" fill="#313131" stroke="none" stroke-linecap="round" d="M 230.8714 67.758 L 182.1967 48.5285 L 189.4078 100.8088 L 181.5958 245.0301 L 204.4308 352.5952 L 230.8714 340.5768 L 231.4723 348.9897 L 224.2612 233.6126 L 235.6788 129.653 L 238.0825 90.5931 L 230.8714 67.758 Z " stroke-width="2.40368914604187"/>
  <path id="ID0.8752945330925286" fill="none" stroke="#222222" stroke-width="4.80737829208374" stroke-linecap="round" d="M 55.3305 70.359 L 47.5185 88.9876 L 55.3305 179.7268 "/>
  <path id="ID0.8752945330925286" fill="none" stroke="#222222" stroke-width="4.80737829208374" stroke-linecap="round" d="M 231.3195 69.159 L 239.1315 87.7876 L 231.3195 178.5268 "/>
</svg>