<svg xmlns="http://www.w3.org/2000/svg" xmlns:xlink="http://www.w3.org/1999/xlink" version="1.1" width="275.5160574913025" height="139.08568334579468" viewBox="7.917310953140259 -2.3192891404032707 275.5160574913025 139.08568334579468">
  <!-- Exported by Scratch - http://scratch.mit.edu/ -->
  <g id="ID0.6169916936196387">
    <path id="ID0.6829322893172503" fill="#EDD2B8" stroke="none" stroke-linecap="round" d="M 146.9944 115.215 L 145.7187 87.3776 L 160.9968 85.4582 L 177.9572 82.13 L 190.5563 87.6056 L 200.319 93.4534 L 205.1129 100.8865 L 218.593 110.4898 L 213.6452 120.6435 L 207.9721 121.3878 L 205.9577 124.792 L 196.9791 129.4492 L 186.905 134.1653 L 175.0501 134.3627 L 160.0834 125.7182 L 146.9944 115.215 Z " stroke-width="1.962515084802013"/>
    <g id="ID0.9434720128774643">
      <path id="ID0.6507829907350242" fill="#282828" stroke="none" stroke-linecap="round" d="M 10.321 68.7968 L 16.5836 33.2154 L 78.3308 57.8042 L 101.9404 66.9952 L 137.4881 82.4444 L 155.1064 84.0029 L 146.4766 118.8765 L 130.8409 110.0483 L 107.4823 104.7111 L 77.2963 99.0816 L 54.3876 93.94 L 10.321 68.7968 Z " stroke-width="1.962515084802013"/>
      <path id="ID0.9892375003546476" fill="none" stroke="#191919" stroke-width="4.807377929262396" stroke-linecap="round" d="M 145.3613 117.144 L 152.2331 84.7486 L 131.0997 82.1161 "/>
    </g>
  </g>
  <g id="ID0.08065540948882699">
    <path id="ID0.2553020962513983" fill="#999FA5" stroke="none" d="M 193.2951 37.987 C 217.5002 37.987 239.4339 40.6815 255.3175 45.0322 C 271.1987 49.3829 281.0297 55.3921 281.0297 62.0239 C 281.0297 68.6556 271.1987 74.6649 255.3175 79.0155 C 239.4339 83.3662 217.5002 86.0608 193.2951 86.0608 C 169.0899 86.0608 147.1563 83.3662 131.2727 79.0155 C 115.3915 74.6649 105.5604 68.6556 105.5604 62.0239 C 105.5604 55.3921 115.3915 49.3829 131.2727 45.0322 C 147.1563 40.6815 169.0899 37.987 193.2951 37.987 Z " stroke-width="2.40368914604187"/>
    <path id="ID0.4823109242133796" fill="#8B9196" stroke="none" stroke-linecap="round" d="M 190.8971 0.0844 C 210.9583 0.0844 229.135 4.4615 242.2976 11.5332 C 255.4602 18.6024 260.0513 28.0946 263.6087 39.1443 C 266.4018 47.8337 268.8848 61.9073 261.205 66.1858 C 240.0718 77.3846 214.2225 78.6225 190.8971 78.2043 C 167.1968 77.7788 142.2873 74.9545 121.1901 63.7822 C 114.1954 59.8641 115.616 47.0933 118.1855 39.1443 C 121.7646 28.1018 126.334 18.6024 139.4966 11.5332 C 152.6592 4.4615 170.8359 0.0844 190.8971 0.0844 Z " stroke-width="2.40368914604187"/>
    <path id="ID0.0372768803499639" fill="none" stroke="#A4ABB1" stroke-width="4.80737829208374" stroke-linecap="round" d="M 214.934 7.3418 C 214.934 7.3418 221.835 8.6398 225.1497 9.7455 C 226.6808 10.255 228.0774 11.166 229.3562 12.1492 C 230.7022 13.1851 232.9617 15.7547 232.9617 15.7547 "/>
    <path id="ID0.0845643924549222" fill="none" stroke="#A4ABB1" stroke-width="4.80737829208374" stroke-linecap="round" d="M 221.5442 18.1584 C 221.5442 18.1584 224.8372 19.1679 226.3515 19.9611 C 229.0581 21.3793 234.1635 24.7685 234.1635 24.7685 "/>
  </g>
</svg>