<svg xmlns="http://www.w3.org/2000/svg" xmlns:xlink="http://www.w3.org/1999/xlink" version="1.1" width="248.7828907542987" height="325.0436024242206" viewBox="0.26585795613312024 -0.13364444045043689 248.7828907542987 325.0436024242206">
  <defs>
    <linearGradient id="grad_1" y2="1" x2="0">
      <stop offset="0" stop-color="#222325" stop-opacity="1"/>
      <stop offset="1" stop-color="#2E3034" stop-opacity="1"/>
    </linearGradient>
  </defs>
  <!-- Exported by Scratch - http://scratch.mit.edu/ -->
  <path id="ID0.7766774026677012" fill="#0D0D0D" stroke="#0D0D0D" stroke-width="1.958488898829951" stroke-linecap="round" d="M 112.95 182.6288 C 112.232 150.5575 112.961 117.2417 101.95 86.5854 C 97.786 74.995 82.491 69.654 70.45 65.5085 C 64.954 63.6193 59.384 68.3616 53.95 70.0592 C 52.407 70.5373 51.262 71.5404 49.95 72.2148 C 48.093 72.9784 46.139 73.558 44.45 74.3704 C 43.852 74.6597 43.25 74.9452 42.7 75.3284 C 42.05 75.6638 41.55 76.1428 40.95 76.526 C 39.7 77.2445 38.45 78.011 37.2 78.6816 C 35.95 79.2564 34.65 79.7354 33.45 80.3581 C 32.85 80.6456 32.2 80.8851 31.7 81.3162 C 31.1 81.7473 30.7 82.4179 30.2 82.9928 C 29.7 83.4718 29.2 83.9508 28.7 84.4298 C 28.2 84.8609 27.55 85.2921 27.2 85.8669 C 26.8 86.3938 26.7 87.1123 26.45 87.783 C 26.2 88.4057 25.9 89.0284 25.7 89.699 C 25.25 90.9445 24.85 92.2378 24.45 93.5312 C 24.2 94.1539 23.95 94.7766 23.7 95.4473 C 23.45 96.07 23.2 96.6927 22.95 97.3633 C 22.7 97.9861 22.45 98.6088 22.2 99.2794 C 21.95 99.9022 21.6 100.5249 21.45 101.1955 C 21.25 101.8182 21.25 102.441 21.2 103.1116 C 21.1 103.7343 21 104.357 20.95 105.0277 C 20.85 105.6504 20.8 106.2731 20.7 106.9437 C 20.55 107.5665 20.3 108.1892 20.2 108.8598 C 19.75 110.728 19.35 112.692 18.95 114.6081 C 18.8 115.2308 18.55 115.8535 18.45 116.5241 C 18.3 117.1469 18.25 117.7696 18.2 118.4402 C 18.1 119.0629 17.95 119.6857 17.95 120.3563 C 17.9 120.979 17.95 121.6017 17.95 122.2724 C 17.95 123.5178 17.85 124.8112 17.95 126.1045 C 17.95 126.7273 18.15 127.0147 18.2 128.0206 C 18.25 131.9007 18.2 135.8286 18.2 139.7566 C 18.2 143.5408 18.2 147.4209 18.2 151.2531 C 18.2 153.1212 18.25 155.0852 18.2 157.0013 C 18.15 157.624 18.05 158.2467 17.95 158.9174 C 17.7 160.3544 17.35 161.7436 17.2 163.2286 C 17.1 163.8513 17.2 164.474 17.2 165.1446 C 17.15 165.7674 17 166.3901 16.95 167.0607 C 16.75 168.3062 16.5 169.5995 16.45 170.8929 C 16.35 172.1383 16.45 173.4317 16.45 174.725 C 16.45 178.5093 16.45 182.3893 16.45 186.2215 C 16.45 187.1316 16.5 187.4669 16.45 188.1376 C 16.35 188.7603 16.05 189.383 15.95 190.0537 C 15.6 191.9218 15.45 193.8858 15.2 195.8019 C 15.1 196.4246 15.05 197.0473 14.95 197.718 C 14.65 199.0592 14.2 200.4005 13.95 201.7896 C 13.8 202.4603 13.75 203.2267 13.7 203.9452 C 13.6 204.6159 13.45 205.3344 13.45 206.1008 C 13.4 206.7235 13.45 207.3463 13.45 208.0169 C 13.45 208.6396 13.35 209.2623 13.45 209.933 C 13.6 211.1784 13.95 212.4718 14.2 213.7651 C 14.3 214.3879 14.4 215.0106 14.45 215.6812 C 14.45 216.3039 14.45 216.9267 14.45 217.5973 C 14.45 218.22 14.45 218.8427 14.45 219.5134 C 14.35 220.7588 14.35 222.0522 14.2 223.3455 C 14 224.5431 13.45 226.9382 13.45 226.9382 C 13.2 227.4172 12.578 230.1438 12.2 231.4889 C 11.995 232.2198 11.673 232.9183 11.45 233.6444 C 11.256 234.2758 11.117 234.9225 10.95 235.5605 C 10.783 236.1986 10.577 236.8299 10.45 237.4766 C 10.326 238.1089 10.324 238.7604 10.2 239.3927 C 10.073 240.0394 9.905 240.6812 9.7 241.3088 C 9.488 241.9593 9.123 242.5638 8.95 243.2248 C 8.787 243.8485 8.783 244.5029 8.7 245.1409 C 8.617 245.779 8.533 246.4189 8.45 247.057 C 8.367 247.695 8.283 248.335 8.2 248.9731 C 8.117 249.6111 7.978 250.2463 7.95 250.8892 C 7.895 252.1643 8.005 253.4462 7.95 254.7213 C 7.922 255.3642 7.783 255.9993 7.7 256.6374 C 7.617 257.2754 7.478 257.9106 7.45 258.5535 C 7.395 259.8286 7.422 261.1095 7.45 262.3856 C 7.506 264.9388 7.633 267.4977 7.7 270.0499 C 7.717 270.688 7.7 271.328 7.7 271.966 C 7.7 272.6041 7.742 273.245 7.7 273.8821 C 7.658 274.524 7.574 275.1659 7.45 275.7982 C 7.323 276.4449 7.035 277.0618 6.95 277.7143 C 6.867 278.3475 6.992 278.9932 6.95 279.6303 C 6.908 280.2722 6.742 280.9045 6.7 281.5464 C 6.658 282.1835 6.742 282.8254 6.7 283.4625 C 6.658 284.1044 6.574 284.7463 6.45 285.3786 C 6.323 286.0252 6.077 286.648 5.95 287.2946 C 5.826 287.927 5.824 288.5784 5.7 289.2107 C 5.573 289.8574 5.313 290.4782 5.2 291.1268 C 4.979 292.3952 4.867 293.6829 4.7 294.959 C 4.617 295.597 4.533 296.237 4.45 296.875 C 4.367 297.5131 4.242 298.1492 4.2 298.7911 C 4.158 299.4282 4.158 300.0701 4.2 300.7072 C 4.242 301.3491 4.422 301.9804 4.45 302.6233 C 4.505 303.8984 4.615 305.1889 4.45 306.4554 C 4.28 307.7603 3.834 309.0249 3.45 310.2876 C 3.251 310.9419 2.912 311.5532 2.7 312.2037 C 2.495 312.8312 2.405 313.4922 2.2 314.1197 C 1.988 314.7703 1.581 315.3662 1.45 316.0358 C 1.327 316.6633 1.058 317.4355 1.45 317.9519 C 1.868 318.5028 2.744 318.5861 3.45 318.6704 C 4.116 318.75 4.779 318.4309 5.45 318.4309 C 6.121 318.4309 6.779 318.6704 7.45 318.6704 C 8.121 318.6704 8.78 318.4712 9.45 318.4309 C 10.115 318.3907 10.789 318.3514 11.45 318.4309 C 12.131 318.5124 12.828 318.6321 13.45 318.9099 C 14.099 319.2002 14.521 319.891 15.2 320.1075 C 15.832 320.3096 16.534 320.1075 17.2 320.1075 C 17.866 320.1075 18.539 320.187 19.2 320.1075 C 19.881 320.0261 20.519 319.7099 21.2 319.6285 C 21.861 319.549 22.535 319.5882 23.2 319.6285 C 23.87 319.6687 24.53 319.8277 25.2 319.868 C 25.865 319.9082 26.539 319.7885 27.2 319.868 C 27.881 319.9494 28.519 320.2656 29.2 320.347 C 29.861 320.4265 30.535 320.3068 31.2 320.347 C 31.87 320.3872 32.534 320.507 33.2 320.5865 C 33.866 320.666 34.529 320.8461 35.2 320.826 C 37.204 320.7657 39.199 320.4668 41.2 320.347 C 41.865 320.3068 42.535 320.3068 43.2 320.347 C 43.87 320.3872 44.529 320.5597 45.2 320.5865 C 46.531 320.6392 47.869 320.5338 49.2 320.5865 C 49.871 320.6133 50.53 320.7858 51.2 320.826 C 51.865 320.8663 52.535 320.8663 53.2 320.826 C 53.87 320.7858 54.53 320.6268 55.2 320.5865 C 55.865 320.5463 56.535 320.6268 57.2 320.5865 C 57.87 320.5463 58.531 320.4007 59.2 320.347 C 60.53 320.2407 61.865 320.1075 63.2 320.1075 C 63.871 320.1075 64.54 320.2282 65.2 320.347 C 65.875 320.4687 66.519 320.7446 67.2 320.826 C 67.861 320.9055 68.534 320.826 69.2 320.826 C 71.198 320.826 73.203 320.7666 75.2 320.826 C 75.871 320.8461 76.53 321.0253 77.2 321.0655 C 77.865 321.1058 78.535 321.1058 79.2 321.0655 C 79.87 321.0253 80.534 320.9055 81.2 320.826 C 81.866 320.7465 82.53 320.6268 83.2 320.5865 C 83.865 320.5463 84.545 320.7044 85.2 320.5865 C 85.899 320.461 85.604 320.2713 87.2 319.868 C 93.583 318.2546 105.022 321.3319 106.6 315.1257 C 112.227 292.9825 104.375 269.2241 105.45 246.3385 C 106.442 225.2673 113.405 204.0688 112.95 182.6288 Z "/>
  <g id="ID0.9602425838820636">
    <g id="ID0.17693647183477879">
      <path id="ID0.7729651997797191" fill="#3E4246" stroke="none" stroke-linecap="round" d="M 41.6346 104.3858 L 61.8074 106.0876 L 57.7341 122.9376 L 54.5542 136.5419 L 50.5421 142.1639 L 46.9911 145.551 L 34.4215 141.783 L 33.133 135.8315 L 39.1151 115.9641 L 41.6346 104.3858 Z " stroke-width="0.8164595611609116"/>
      <path id="ID0.9716172609478235" fill="#393C40" stroke="none" stroke-linecap="round" d="M 45.6595 110.3202 L 40.818 107.8374 L 42.8497 101.352 L 60.618 111.4904 L 57.5266 114.4391 L 51.9727 116.1863 L 45.6595 110.3202 Z " stroke-width="0.8164595611609116"/>
      <g id="ID0.38066427363082767">
        <path id="ID0.4757494777441025" fill="#1D1E1F" stroke="none" stroke-linecap="round" d="M 51.6647 79.5311 L 60.2835 77.5915 L 76.1145 82.8474 L 67.3015 108.1199 L 56.8302 112.8733 L 52.2828 113.8375 L 49.126 111.3815 L 46.3402 108.339 L 40.69 105.5859 L 40.7003 100.109 L 41.6056 92.0337 L 45.0155 83.7795 L 51.6647 79.5311 Z " stroke-width="0.4761425397885496"/>
        <path id="ID0.6007084371522069" fill="none" stroke="#0D0D0D" stroke-width="0.9522850795770992" stroke-linecap="round" d="M 41.1576 105.9542 L 46.2212 108.3362 L 50.4181 112.1265 L 52.28 113.9565 L 56.8302 112.8733 L 61.2867 110.7164 "/>
      </g>
    </g>
    <g id="ID0.7397577832452953">
      <path id="ID0.6726378230378032" fill="#393C40" stroke="none" stroke-linecap="round" d="M 33.9126 132.7892 L 49.9007 142.2323 L 49.0305 144.4984 L 33.4544 134.9018 L 33.9126 132.7892 Z " stroke-width="0.8164595611609116"/>
      <path id="ID0.6507829907350242" fill="#1D1E1F" stroke="none" stroke-linecap="round" d="M 30.5236 133.9323 L 49.2599 144.5837 L 48.4033 163.5514 L 46.1119 174.1142 L 45.731 190.2348 L 46.1888 196.7791 L 34.1012 198.5352 L 34.0515 192.0005 L 32.4464 182.1623 L 29.8838 169.6473 L 28.2739 160.0132 L 30.5236 133.9323 Z " stroke-width="0.8164595611609116"/>
      <path id="ID0.6829322893172503" fill="#1D1E1F" stroke="none" stroke-linecap="round" d="M 33.7027 198.1174 L 44.2302 193.2619 L 47.365 198.8486 L 51.3063 204.8628 L 51.1712 210.5764 L 50.4482 215.2553 L 48.3352 218.2679 L 46.7477 224.9681 L 42.0592 224.6531 L 40.8831 222.5836 L 39.2554 222.3409 L 36.0532 219.611 L 32.6565 216.4682 L 30.7221 211.9307 L 31.7071 204.8079 L 33.7027 198.1174 Z " stroke-width="0.8164595611609116"/>
      <path id="ID0.47767175547778606" fill="none" stroke="#0D0D0D" stroke-width="1.6329191223218231" stroke-linecap="round" d="M 30.4301 137.8911 L 30.8122 133.8167 L 49.1783 144.5818 L 48.5209 158.5724 "/>
      <path id="ID0.5922487881034613" fill="#282A2B" stroke="none" stroke-linecap="round" d="M 28.6844 167.7623 L 35.8779 162.2972 L 41.9977 162.5235 L 48.0602 168.6286 L 46.2778 183.5727 L 41.4061 191.0119 L 37.9371 190.9299 L 31.989 183.4392 L 28.6844 167.7623 Z " stroke-width="0.8164595611609116"/>
      <path id="ID0.36820242274552584" fill="#151616" stroke="none" stroke-linecap="round" d="M 34.9392 170.816 L 43.4299 170.9349 L 40.4644 182.3802 L 38.9563 182.2629 L 34.9392 170.816 Z " stroke-width="0.8164595611609116"/>
      <path id="ID0.13569410238415003" fill="none" stroke="#232425" stroke-width="1.6329191223218231" stroke-linecap="round" d="M 33.9651 181.8307 L 39.509 189.1486 L 44.9065 181.9259 "/>
      <path id="ID0.024502143263816833" fill="none" stroke="#0D0D0D" stroke-width="1.6329191223218231" stroke-linecap="round" d="M 29.1954 167.671 L 35.6466 162.515 L 41.6925 162.4128 L 47.8367 168.5199 L 46.7363 177.0691 "/>
    </g>
  </g>
  <g id="ID0.17693647183477879">
    <path id="ID0.7729651997797191" fill="#393C40" stroke="none" stroke-linecap="round" d="M 121.5449 103.9313 L 102.6973 99.7267 L 101.5991 116.2262 L 100.6134 129.5165 L 102.662 135.7782 L 104.9282 139.874 L 117.4444 140.0293 L 120.3147 134.9795 L 120.536 115.189 L 121.5449 103.9313 Z " stroke-width="0.778809859095503"/>
    <path id="ID0.9716172609478235" fill="#34373A" stroke="none" stroke-linecap="round" d="M 116.1887 108.1851 L 121.3038 107.306 L 121.3042 100.8232 L 102.239 104.9839 L 104.2119 108.5496 L 108.7691 111.724 L 116.1887 108.1851 Z " stroke-width="0.778809859095503"/>
    <g id="ID0.38066427363082767">
      <path id="ID0.4757494777441025" fill="#1D1E1F" stroke="none" stroke-linecap="round" d="M 119.6091 78.6947 L 112.317 74.471 L 96.4078 74.7399 L 97.2217 100.2578 L 105.3974 107.5712 L 109.2617 109.7458 L 112.8356 108.4106 L 116.2392 106.4357 L 122.1675 105.5413 L 123.7202 100.5529 L 125.1994 92.9442 L 124.4498 84.4583 L 119.6091 78.6947 Z " stroke-width="0.4541860253087114"/>
      <path id="ID0.6007084371522069" fill="none" stroke="#0D0D0D" stroke-width="0.9083720506174228" stroke-linecap="round" d="M 121.6369 105.7431 L 116.3483 106.467 L 111.447 108.7201 L 109.2303 109.8549 L 105.3974 107.5712 L 101.9561 104.3367 "/>
    </g>
  </g>
  <g id="ID0.7397577832452953">
    <path id="ID0.6726378230378032" fill="#34373A" stroke="none" stroke-linecap="round" d="M 101.2354 127.4397 L 118.94 126.9191 L 119.3915 129.1902 L 101.941 129.3772 L 101.2354 127.4397 Z " stroke-width="0.7788099935756427"/>
    <path id="ID0.6507829907350242" fill="#1D1E1F" stroke="none" stroke-linecap="round" d="M 99.0622 130.0748 L 119.5988 129.13 L 128.563 144.8676 L 132.0913 154.5551 L 139.9899 167.7537 L 143.6905 172.8001 L 134.8331 180.3697 L 131.4666 175.1234 L 125.1639 168.0038 L 116.726 159.2122 L 110.5232 152.2597 L 99.0622 130.0748 Z " stroke-width="0.7788099935756427"/>
    <path id="ID0.6829322893172503" fill="#1D1E1F" stroke="none" stroke-linecap="round" d="M 134.299 180.2355 L 140.3201 170.9597 L 145.6927 173.8709 L 151.9336 176.7163 L 154.7331 181.3943 L 156.5315 185.5369 L 156.3605 189.0428 L 158.4904 195.256 L 154.5478 197.3885 L 152.5455 196.3177 L 151.109 196.9504 L 147.1361 196.3782 L 142.7962 195.5718 L 138.9259 192.8961 L 136.0948 186.6487 L 134.299 180.2355 Z " stroke-width="0.7788099935756427"/>
    <path id="ID0.47767175547778606" fill="none" stroke="#0D0D0D" stroke-width="1.5576199871512855" stroke-linecap="round" d="M 101.0018 133.316 L 99.2361 129.8346 L 119.532 129.17 L 126.1234 140.7911 "/>
    <path id="ID0.5922487881034613" fill="#282A2B" stroke="none" stroke-linecap="round" d="M 114.9984 158.4455 L 118.0196 150.375 L 123.0717 147.4423 L 131.0701 149.2814 L 137.2393 162.2443 L 137.096 170.7255 L 134.2558 172.4251 L 125.6443 169.41 L 114.9984 158.4455 Z " stroke-width="0.7788099935756427"/>
    <path id="ID0.36820242274552584" fill="#151616" stroke="none" stroke-linecap="round" d="M 121.2805 157.5342 L 128.1907 153.3081 L 131.6243 164.0507 L 130.348 164.7237 L 121.2805 157.5342 Z " stroke-width="0.7788099935756427"/>
    <path id="ID0.13569410238415003" fill="none" stroke="#232425" stroke-width="1.5576199871512855" stroke-linecap="round" d="M 126.2202 166.9632 L 134.4176 170.0446 L 135.0953 161.4706 "/>
    <path id="ID0.024502143263816833" fill="none" stroke="#0D0D0D" stroke-width="1.5576199871512855" stroke-linecap="round" d="M 115.1647 157.9683 L 117.7444 150.525 L 122.5697 147.3651 L 130.635 149.1641 L 134.0991 156.621 "/>
  </g>
  <path id="ID0.3809091211296618" fill="#393D40" stroke="none" stroke-linecap="round" d="M 103.8816 186.7213 L 97.7008 158.8595 L 136.0959 164.4057 L 146.5171 167.7541 L 162.7399 176.8759 L 163.3804 185.8727 L 161.7474 198.7872 L 141.4687 194.0725 L 130.8433 189.7865 L 103.8816 186.7213 Z " stroke-width="0.7305889351527725"/>
  <path id="ID0.3809091211296618" fill="#3E4246" stroke="none" stroke-linecap="round" d="M 70.8945 155.5213 L 91.2807 167.9935 L 96.8415 206.3865 L 96.5832 217.3293 L 92.4322 235.4721 L 83.9856 238.6356 L 71.1378 240.729 L 69.1246 219.0503 L 66.5626 205.8812 L 70.8945 155.5213 Z " stroke-width="0.7305889404387307"/>
  <path id="ID0.5368814701214433" fill="#303436" stroke="none" stroke-linecap="round" d="M 51.6528 310.4777 L 54.5362 301.6477 L 59.0251 292.4008 L 69.0012 298.2588 L 80.2673 305.8939 L 97.7293 316.2362 L 98.8078 322.7518 L 74.1104 323.9307 L 52.8654 320.2644 L 51.6528 310.4777 Z " stroke-width="0.7702165290554439"/>
  <g id="ID0.9157347986474633">
    <path id="ID0.7477802094072104" fill="#363A3D" stroke="none" stroke-linecap="round" d="M 119.4833 121.0135 L 99.7258 119.8935 L 103.8545 160.8723 L 121.3304 168.0845 L 121.1463 143.4576 L 119.4833 121.0135 Z " stroke-width="0.4761425951164267"/>
    <path id="ID0.7477802094072104" fill="#363A3D" stroke="none" stroke-linecap="round" d="M 59.5775 127.0762 L 82.623 121.883 L 86.7517 162.8619 L 71.0656 173.4151 L 63.0998 148.974 L 59.5775 127.0762 Z " stroke-width="0.4761425951164267"/>
    <path id="ID0.4270821204409003" fill="#3E4246" stroke="none" stroke-linecap="round" d="M 57.8363 107.0917 L 60.3733 94.2741 L 62.0389 88.244 L 67.8489 80.6 L 98.9039 78.9068 L 106.2027 82.4784 L 109.4509 86.2189 L 117.5842 96.8847 L 117.9236 107.3787 L 117.525 112.9222 L 119.8752 119.6244 L 120.8978 125.0248 L 119.4581 132.1088 L 118.3724 137.4823 L 118.1188 146.8396 L 121.8066 168.4815 L 117.5135 177.1691 L 113.3753 183.8312 L 101.8626 190.4466 L 90.0239 188.6005 L 85.4425 182.3145 L 79.8712 176.4153 L 71.0572 174.1928 L 67.3786 149.0804 L 65.526 142.5673 L 59.8326 131.6557 L 57.4439 121.0093 L 57.8363 107.0917 Z " stroke-width="0.4761425951164267"/>
    <path id="ID0.052435632329434156" fill="#393C40" stroke="none" stroke-linecap="round" d="M 74.93 155.4976 L 79.3643 155.0987 L 86.2549 157.7064 L 91.2836 157.0323 L 97.3133 158.2194 L 101.3749 156.7334 L 102.9853 156.0926 L 116.7853 151.2806 L 117.4699 154.5136 L 109.3602 159.518 L 103.4073 159.8067 L 98.1463 163.3995 L 91.1607 160.562 L 84.8081 161.6328 L 74.5961 158.8332 L 74.93 155.4976 Z " stroke-width="0.4761425951164267"/>
    <path id="ID0.4987568911164999" fill="none" stroke="#27282B" stroke-width="0.9522851902328534" stroke-linecap="round" d="M 67.704 81.2153 L 61.929 88.0184 L 59.6151 98.3011 "/>
    <path id="ID0.2889464790932834" fill="none" stroke="#27282B" stroke-width="0.9522851902328534" stroke-linecap="round" d="M 100.2987 79.3671 L 106.3655 82.5843 L 112.9811 91.2495 "/>
    <path id="ID0.8373676878400147" fill="#000000" stroke="#2C2F31" stroke-width="0.6155104090909895" stroke-linecap="round" d="M 72.5836 93.8076 L 72.7726 92.2497 L 69.2437 93.524 L 64.7528 97.3415 L 61.1586 102.7878 L 59.2934 108.6414 L 64.1737 105.8742 L 68.8355 105.2846 L 71.662 105.9162 L 74.4942 108.6309 L 76.4829 107.3978 L 80.4425 106.7077 L 85.0393 107.2805 L 89.1874 110.0484 L 91.5653 112.8751 L 93.4007 109.6475 L 96.7587 106.1485 L 100.7066 104.3019 L 105.8345 103.7535 L 107.7169 104.1491 L 109.0862 100.8801 L 110.9038 99.4286 L 113.5474 99.6885 L 116.5036 101.0046 L 114.6806 97.3636 L 112.0078 93.7107 L 108.8687 91.0196 L 105.4817 89.1192 L 100.8967 88.6998 L 103.2629 90.37 L 103.3984 92.1344 L 102.0292 94.4002 L 98.6006 95.9755 L 95.4849 96.6007 L 92.8885 96.9545 L 90.0091 93.6262 L 89.7847 95.7269 L 88.3271 95.8389 L 86.5334 93.5845 L 86.0138 97.8686 L 81.9657 98.4111 L 77.7584 97.8856 L 74.2828 96.8408 L 72.5836 93.8076 Z "/>
    <path id="ID0.5698574706912041" fill="none" stroke="#313537" stroke-width="0.9522851902328534" stroke-linecap="round" d="M 74.8422 155.3389 L 74.5722 158.5963 L 84.82 161.7512 L 91.5351 160.7157 L 97.8975 163.305 "/>
    <path id="ID0.5698574706912041" fill="none" stroke="#313537" stroke-width="0.893306647449576" stroke-linecap="round" d="M 116.394 151.353 L 117.2324 154.4988 L 109.0806 159.5074 L 103.1598 159.745 L 98.2164 163.4733 "/>
    <path id="ID0.8947288258932531" fill="#393C40" stroke="none" stroke-linecap="round" d="M 74.947 143.3167 L 81.9228 142.4942 L 89.6225 143.6327 L 95.8138 148.5601 L 88.3159 144.9128 L 77.4589 144.4992 L 72.6692 148.0206 L 74.947 143.3167 Z " stroke-width="0.4761425951164267"/>
    <path id="ID0.8947288258932531" fill="#393C40" stroke="none" stroke-linecap="round" d="M 113.5605 140.3741 L 107.366 140.8924 L 100.8898 143.2389 L 96.3907 148.6048 L 102.2489 144.1184 L 111.5909 141.8431 L 116.3661 144.0513 L 113.5605 140.3741 Z " stroke-width="0.42137389186558005"/>
    <path id="ID0.9897695370018482" fill="#393C40" stroke="none" stroke-linecap="round" d="M 79.6107 155.1695 L 73.049 155.3521 L 73.01 150.6901 L 74.5451 154.0528 L 79.6285 153.6842 L 86.0906 156.5505 L 91.5029 155.6463 L 95.7203 156.6571 L 96.3066 148.7019 L 97.5267 158.4371 L 91.7598 157.0082 L 85.909 157.5977 L 79.6107 155.1695 Z " stroke-width="0.4761425951164267"/>
    <path id="ID0.9897695370018482" fill="#393C40" stroke="none" stroke-linecap="round" d="M 111.6521 152.1478 L 117.1165 151.1522 L 116.3231 146.8927 L 115.6478 150.232 L 111.3743 150.7961 L 106.5322 154.5552 L 101.8916 154.6889 L 98.5792 156.3579 L 96.6849 149.2051 L 97.399 158.3015 L 101.9201 155.9767 L 106.8681 155.4782 L 111.6521 152.1478 Z " stroke-width="0.4232251205935011"/>
    <path id="ID0.3524594851769507" fill="#393C40" stroke="none" stroke-linecap="round" d="M 86.5535 119.5835 L 92.6475 121.1709 L 96.8431 118.4033 L 94.0746 122.5106 L 96.139 133.5008 L 105.0779 131.7388 L 95.0608 136.3372 L 82.984 132.8402 L 92.8275 133.8823 L 91.2936 122.6951 L 86.5535 119.5835 Z " stroke-width="0.4761425951164267"/>
    <path id="ID0.9214867809787393" fill="#393C40" stroke="none" stroke-linecap="round" d="M 74.558 139.4557 L 77.0965 134.9647 L 81.7384 133.5399 L 76.4124 138.862 L 76.469 141.7994 L 81.4955 141.3409 L 89.9424 143.7201 L 80.8214 142.7248 L 74.9944 143.3119 L 74.558 139.4557 Z " stroke-width="0.4761425951164267"/>
    <path id="ID0.9214867809787393" fill="#393C40" stroke="none" stroke-linecap="round" d="M 112.7944 136.3795 L 109.6815 132.6514 L 105.2547 132.184 L 111.0214 136.17 L 111.5184 138.9286 L 106.9271 139.4368 L 100.5998 142.9287 L 107.7894 140.6059 L 113.1223 140.0686 L 112.7944 136.3795 Z " stroke-width="0.44517883300469746"/>
    <path id="ID0.8679121839813888" fill="#2C2F31" stroke="none" stroke-linecap="round" d="M 88.3387 118.303 L 92.291 119.5319 L 95.4425 117.5633 L 96.4854 118.4154 L 92.8443 121.4621 L 86.8877 119.8131 L 88.3387 118.303 Z " stroke-width="0.4761425951164267"/>
    <path id="ID0.24770551454275846" fill="none" stroke="#313537" stroke-width="0.9522851902328534" stroke-linecap="round" d="M 92.153 115.96 L 97.13 119.0477 L 104.6392 118.7697 L 112.1117 116.9401 L 116.9411 112.6251 "/>
    <path id="ID0.20603158557787538" fill="none" stroke="#313537" stroke-width="0.9522851902328534" stroke-linecap="round" d="M 58.5735 115.275 L 66.0982 119.9006 L 78.7378 121.8574 L 85.9027 120.5374 L 91.6676 116.0085 "/>
    <g id="ID0.5272086253389716">
      <path id="ID0.24770551454275846" fill="none" stroke="#363A3D" stroke-width="0.9522851309284399" stroke-linecap="round" d="M 65.2546 147.2683 L 74.7911 143.1251 "/>
      <path id="ID0.24770551454275846" fill="none" stroke="#363A3D" stroke-width="0.9522851309284399" stroke-linecap="round" d="M 61.4903 135.7051 L 81.1911 127.4751 "/>
    </g>
    <g id="ID0.5272086253389716">
      <path id="ID0.24770551454275846" fill="none" stroke="#363A3D" stroke-width="0.9522851192096888" stroke-linecap="round" d="M 120.2081 140.7529 L 113.1209 139.6253 "/>
      <path id="ID0.24770551454275846" fill="none" stroke="#363A3D" stroke-width="0.9522851192096888" stroke-linecap="round" d="M 119.5714 129.4982 L 105.2891 126.1521 "/>
    </g>
    <g id="ID0.7887678607366979">
      <path id="ID0.753661650698632" fill="none" stroke="#313537" stroke-width="0.9522851309284399" stroke-linecap="round" d="M 87.0392 119.6542 L 92.489 121.4979 L 96.2533 118.4866 "/>
      <g id="ID0.8167418288066983">
        <path id="ID0.9553722990676761" fill="none" stroke="#313537" stroke-width="1.040910847241569" stroke-linecap="round" d="M 94.4877 136.1649 L 88.6884 134.5957 L 82.3545 133.3196 L 77.7031 134.7454 L 74.6424 139.3607 L 74.9884 142.7954 "/>
        <path id="ID0.5982440118677914" fill="none" stroke="#313537" stroke-width="0.8540413823261114" stroke-linecap="round" d="M 82.7189 132.9334 L 81.0039 127.7861 L 85.5076 120.2389 "/>
      </g>
      <g id="ID0.7324484633281827">
        <path id="ID0.04993448918685317" fill="none" stroke="#313537" stroke-width="0.9522851309284399" stroke-linecap="round" d="M 92.4771 121.3795 L 94.2378 131.7303 L 96.3582 148.0267 L 98.2298 164.2286 "/>
        <g id="ID0.8167418288066983">
          <path id="ID0.9553722990676761" fill="none" stroke="#313537" stroke-width="0.969970338309865" stroke-linecap="round" d="M 94.7185 136.0236 L 99.5925 134.1687 L 104.8046 131.7293 L 109.0751 132.2562 L 112.5746 136.2106 L 112.9206 139.6452 "/>
          <path id="ID0.5982440118677914" fill="none" stroke="#313537" stroke-width="0.7916616527727998" stroke-linecap="round" d="M 104.5486 131.4346 L 105.0596 126.063 L 99.7687 119.5026 "/>
          <path id="ID0.3567589442245662" fill="none" stroke="#313537" stroke-width="0.8967655548318422" stroke-linecap="round" d="M 96.1732 148.6669 L 100.7787 143.202 L 107.8796 140.5723 L 113.3798 140.0182 L 116.0743 144.4126 L 117.07 151.371 L 111.6207 152.6378 L 106.3058 156.2839 L 101.3859 156.5403 L 97.3821 158.7861 L 91.3189 156.8846 L 85.7801 157.6819 L 79.0738 155.247 L 72.7312 155.1681 L 72.3606 148.1468 L 74.4369 143.2717 L 80.6871 142.642 L 89.1699 143.7016 L 95.4605 148.0687 Z "/>
        </g>
      </g>
    </g>
    <g id="ID0.9312638868577778">
      <path id="ID0.2888958193361759" fill="#393C40" stroke="none" stroke-linecap="round" d="M 78.1753 163.2809 L 88.5499 164.3305 L 88.2503 167.2913 L 77.8758 166.2417 L 78.1753 163.2809 Z " stroke-width="0.47614252862528017"/>
      <path id="ID0.2888958193361759" fill="#393C40" stroke="none" stroke-linecap="round" d="M 67.3346 162.2307 L 78.9999 163.5305 L 78.7003 166.4913 L 68.3258 165.4417 L 67.3346 162.2307 Z " stroke-width="0.47614252862528017"/>
      <g id="ID0.36424446757882833">
        <path id="ID0.7359844641759992" fill="#8A7B59" stroke="none" d="M 81.0076 162.2546 L 82.5236 162.1019 L 83.1488 168.3079 L 81.6328 168.4607 L 81.0076 162.2546 Z " stroke-width="0.47614256546421996"/>
        <path id="ID0.7359844641759992" fill="#8A7B59" stroke="none" d="M 79.1576 162.0046 L 80.6736 161.8519 L 81.2988 168.0579 L 79.7828 168.2107 L 79.1576 162.0046 Z " stroke-width="0.47614256546421996"/>
        <path id="ID0.7359844641759992" fill="#8A7B59" stroke="none" d="M 77.0576 161.5546 L 78.5736 161.4019 L 79.1988 167.6079 L 77.6828 167.7607 L 77.0576 161.5546 Z " stroke-width="0.47614256546421996"/>
        <path id="ID0.7359844641759992" fill="#8A7B59" stroke="none" d="M 82.9576 162.5546 L 84.4736 162.4019 L 85.0988 168.6079 L 83.5828 168.7607 L 82.9576 162.5546 Z " stroke-width="0.47614256546421996"/>
      </g>
      <g id="ID0.1049797898158431">
        <path id="ID0.08871637750416994" fill="#8A7B59" stroke="none" stroke-linecap="round" d="M 68.9535 161.4631 L 75.4303 161.8634 L 75.9438 167.4347 L 69.7014 166.9868 L 68.9535 161.4631 Z " stroke-width="0.47614256546421996"/>
        <path id="ID0.13805592898279428" fill="#76694C" stroke="none" stroke-linecap="round" d="M 68.8059 161.2111 L 75.5907 161.5804 L 75.9742 164.437 L 69.1562 163.9754 L 68.8059 161.2111 Z " stroke-width="0.47614256546421996"/>
        <path id="ID0.3221200187690556" fill="#61563F" stroke="none" stroke-linecap="round" d="M 71.7152 163.1043 L 72.6256 163.3762 L 72.8789 165.1166 L 71.8939 164.8782 L 71.7152 163.1043 Z " stroke-width="0.5167888755556505"/>
        <path id="ID0.1420820001512766" fill="#BAA578" stroke="none" stroke-linecap="round" d="M 75.2604 166.5645 L 75.8278 165.0717 L 76.1067 167.3646 L 69.7767 166.9974 L 75.2604 166.5645 Z " stroke-width="0.47614256546421996"/>
      </g>
      <path id="ID0.2888958193361759" fill="#393C40" stroke="none" stroke-linecap="round" d="M 115.6057 159.878 L 108.4014 162.4262 L 109.0857 164.9066 L 116.29 162.3584 L 115.6057 159.878 Z " stroke-width="0.38104698764554984"/>
      <path id="ID0.2888958193361759" fill="#393C40" stroke="none" stroke-linecap="round" d="M 121.9172 157.3936 L 115.1514 160.0262 L 115.8357 162.5066 L 121.79 160.3352 L 121.9172 157.3936 Z " stroke-width="0.38104698764554984"/>
      <path id="ID0.7359844641759992" fill="#8A7B59" stroke="none" d="M 113.4665 159.0451 L 112.365 159.1561 L 112.9089 164.5547 L 114.0104 164.4437 L 113.4665 159.0451 Z " stroke-width="0.38160279929779717"/>
      <path id="ID0.7359844641759992" fill="#8A7B59" stroke="none" d="M 114.8165 158.3951 L 113.715 158.5061 L 114.2589 163.9047 L 115.3604 163.7937 L 114.8165 158.3951 Z " stroke-width="0.38160279929779717"/>
      <path id="ID0.7359844641759992" fill="#8A7B59" stroke="none" d="M 116.2165 157.7951 L 115.115 157.9061 L 115.6589 163.3047 L 116.7604 163.1937 L 116.2165 157.7951 Z " stroke-width="0.38160279929779717"/>
      <path id="ID0.7359844641759992" fill="#8A7B59" stroke="none" d="M 112.1165 159.7451 L 111.015 159.8561 L 111.5589 165.2547 L 112.6604 165.1437 L 112.1165 159.7451 Z " stroke-width="0.38160279929779717"/>
      <g id="ID0.1049797898158431">
        <path id="ID0.08871637750416994" fill="#8A7B59" stroke="none" stroke-linecap="round" d="M 122.0409 156.3584 L 117.219 157.8173 L 117.774 162.9586 L 122.4108 161.4962 L 122.0409 156.3584 Z " stroke-width="0.40545296750678006"/>
        <path id="ID0.13805592898279428" fill="#76694C" stroke="none" stroke-linecap="round" d="M 122.276 156.1249 L 117.2164 157.6078 L 117.4102 160.2643 L 122.4793 158.692 L 122.276 156.1249 Z " stroke-width="0.40545296750678006"/>
        <path id="ID0.3221200187690556" fill="#61563F" stroke="none" stroke-linecap="round" d="M 120.3798 158.3038 L 119.7386 158.7045 L 119.8418 160.3263 L 120.545 159.9434 L 120.3798 158.3038 Z " stroke-width="0.4400648134813"/>
        <path id="ID0.1420820001512766" fill="#BAA578" stroke="none" stroke-linecap="round" d="M 118.3174 162.069 L 117.6365 160.8107 L 117.8139 162.938 L 122.5305 161.534 L 118.3174 162.069 Z " stroke-width="0.40545296750678006"/>
      </g>
      <g id="ID0.6836685389280319">
        <path id="ID0.09357938077300787" fill="#857656" stroke="none" d="M 88.8746 161.4002 L 106.7584 159.5984 L 107.4028 165.994 L 89.519 167.7958 L 88.8746 161.4002 Z " stroke-width="0.42833207993175776"/>
        <path id="ID0.6492703901603818" fill="#7C6E50" stroke="none" stroke-linecap="round" d="M 89.7629 163.5503 L 98.2452 165.8062 L 106.7229 161.8415 L 107.1501 166.0815 L 90.1901 167.7903 L 89.7629 163.5503 Z " stroke-width="0.47614256546421996"/>
        <g id="ID0.9254062357358634">
          <g id="ID0.49943465692922473">
            <path id="ID0.140373723115772" fill="#968561" stroke="none" d="M 105.061 158.6014 L 110.1537 158.0883 L 111.0606 167.0895 L 105.9678 167.6026 L 105.061 158.6014 Z " stroke-width="0.47614256546421996"/>
            <path id="ID0.8286363878287375" fill="#BAA578" stroke="none" stroke-linecap="round" d="M 105.1119 158.4386 L 110.347 158.1504 L 106.3018 159.3237 L 105.498 161.5582 L 105.1119 158.4386 Z " stroke-width="0.47614256546421996"/>
            <path id="ID0.7362233307212591" fill="#8A7B59" stroke="none" stroke-linecap="round" d="M 105.7466 164.5001 L 108.4517 164.2755 L 110.648 161.6136 L 111.2089 167.18 L 106.0687 167.6979 L 105.7466 164.5001 Z " stroke-width="0.47614256546421996"/>
          </g>
          <g id="ID0.49943465692922473">
            <path id="ID0.140373723115772" fill="#968561" stroke="none" d="M 90.0486 160.311 L 84.9558 160.8241 L 85.8627 169.8252 L 90.9554 169.3121 L 90.0486 160.311 Z " stroke-width="0.47614256546421996"/>
            <path id="ID0.8286363878287375" fill="#BAA578" stroke="none" stroke-linecap="round" d="M 90.031 160.1554 L 84.8437 160.9173 L 89.0416 161.2601 L 90.275 163.2893 L 90.031 160.1554 Z " stroke-width="0.47614256546421996"/>
            <path id="ID0.7362233307212591" fill="#8A7B59" stroke="none" stroke-linecap="round" d="M 90.6183 166.2217 L 87.9227 166.5412 L 85.2395 164.3709 L 85.8003 169.9374 L 90.9405 169.4195 L 90.6183 166.2217 Z " stroke-width="0.47614256546421996"/>
          </g>
        </g>
      </g>
    </g>
  </g>
  <g id="ID0.8333355090580881">
    <path id="ID0.9286923445761204" fill="#27282B" stroke="none" stroke-linecap="round" d="M 69.8652 46.243 L 88.7134 45.4348 L 92.13 69.5534 L 108.1182 74.8014 L 86.8036 88.8368 L 48.8929 80.8142 L 67.3454 67.8947 L 69.8652 46.243 Z " stroke-width="0.476142582617073"/>
    <path id="ID0.5448851804248989" fill="none" stroke="#1D1E1F" stroke-width="0.952285165234146" stroke-linecap="round" d="M 68.067 62.003 L 67.5115 67.6826 L 85.4293 73.4152 L 91.8579 69.6824 "/>
    <path id="ID0.262191956397146" fill="none" stroke="#1D1E1F" stroke-width="0.952285165234146" stroke-linecap="round" d="M 71.4069 66.5847 L 84.7749 71.1925 L 87.6174 69.7191 "/>
  </g>
  <g id="ID0.3450673264451325">
    <g id="ID0.9831569031812251">
      <path id="ID0.0877610077150166" fill="#2E3034" stroke="none" stroke-linecap="round" d="M 92.3246 13.8639 L 87.4794 0.8456 L 88.0751 29.368 L 95.7448 29.2078 L 92.3246 13.8639 Z " stroke-width="0.5866066156186637"/>
      <path id="ID0.796130308881402" fill="#242628" stroke="none" stroke-linecap="round" d="M 92.6523 13.914 L 87.4516 0.9032 L 91.296 14.6639 L 92.5465 29.5284 L 95.7149 29.167 L 92.6523 13.914 Z " stroke-width="0.5866066156186637"/>
    </g>
    <g id="ID0.9831569031812251">
      <path id="ID0.0877610077150166" fill="#2E3034" stroke="none" stroke-linecap="round" d="M 68.5714 14.5323 L 72.8688 1.323 L 73.4646 29.8454 L 65.7949 30.0056 L 68.5714 14.5323 Z " stroke-width="0.5866066156186637"/>
      <path id="ID0.796130308881402" fill="#242628" stroke="none" stroke-linecap="round" d="M 68.228 14.5753 L 72.881 1.3587 L 69.6145 15.2679 L 68.8265 29.847 L 65.805 29.9429 L 68.228 14.5753 Z " stroke-width="0.5866066156186637"/>
    </g>
    <path id="ID0.8999492498114705" fill="#2E3034" stroke="none" stroke-linecap="round" d="M 86.3175 19.9661 C 90.7308 20.3531 95.5182 22.9641 97.731 26.8017 C 100.2561 31.183 98.4256 36.8211 98.8296 41.8092 C 99.0384 43.5087 99.8673 45.2445 99.5706 46.8752 C 98.9661 50.1923 97.3557 53.2556 96.341 56.4705 C 95.6761 58.5774 95.5709 60.9349 94.4419 62.862 C 93.1734 65.1416 91.8964 68.303 89.3069 68.8129 C 85.4678 69.5684 81.3538 67.8128 77.8683 66.13 C 75.005 64.7472 72.3059 62.5911 70.6739 59.8522 C 67.7475 54.7673 65.0688 49.162 64.5605 43.2872 C 63.9971 36.7749 63.0586 28.7266 67.7128 23.9117 C 71.8693 19.2826 79.7571 19.3938 86.3175 19.9661 Z " stroke-width="0.5080372417183971"/>
    <path id="ID0.2441388238221407" fill="#AB8E85" stroke="none" d="M 84.4633 44.8093 C 88.5461 44.8911 93.9179 41.6135 96.6998 44.3025 C 99.2086 46.8415 95.9426 51.7721 95.0446 55.2652 C 94.15 58.7395 93.54 62.4917 91.3622 65.3911 C 90.3214 66.6815 88.0981 66.7995 86.3622 66.5632 C 83.2406 66.1347 80.1527 64.9155 77.5213 63.1792 C 74.7982 61.3833 71.2089 59.4284 70.5703 56.2161 C 69.7618 52.1468 70.3133 46.739 73.4574 44.0971 C 76.3435 41.7871 80.7914 44.7352 84.4633 44.8093 Z " stroke-width="1.2558400756198447"/>
    <path id="ID0.46721756737679243" fill="#A2887F" stroke="none" stroke-linecap="round" d="M 69.9221 46.2896 L 71.6126 46.9403 L 97.6104 46.0162 L 90.504 51.2461 L 73.7164 49.1322 L 74.8837 51.4962 L 75.2548 57.1034 L 79.0366 64.2147 L 74.3258 57.631 L 69.9221 46.2896 Z " stroke-width="0.5080372417183971"/>
    <path id="ID0.8256730306893587" fill="none" stroke="#937B73" stroke-width="1.0160744834367943" stroke-linecap="round" d="M 81.1127 57.8356 C 81.1127 57.8356 83.7988 57.183 85.1597 56.9635 C 85.5 56.9086 85.8399 56.9793 86.1771 57.0185 C 86.5199 57.0586 86.8526 57.2193 87.1972 57.2004 C 87.8804 57.1633 88.5452 56.9522 89.2225 56.8532 C 89.5584 56.804 89.8974 56.7588 90.2368 56.7558 C 90.5767 56.7528 90.922 56.7659 91.2548 56.8362 C 91.8019 56.9518 92.8654 57.3107 92.8654 57.3107 "/>
    <path id="ID0.7592270169407129" fill="none" stroke="#937B73" stroke-width="1.0160744834367943" stroke-linecap="round" d="M 89.5331 58.9956 C 89.5331 58.9956 88.9186 59.3535 88.5765 59.4221 C 88.2446 59.489 87.8956 59.3515 87.5596 59.3925 C 87.2215 59.4342 86.9113 59.6175 86.5745 59.6672 C 86.2396 59.7169 85.8898 59.7567 85.5586 59.6884 C 85.2769 59.6303 84.7882 59.298 84.7882 59.298 "/>
    <path id="ID0.5332203092984855" fill="none" stroke="#937B73" stroke-width="1.0160744834367943" stroke-linecap="round" d="M 83.5601 49.6635 C 83.5601 49.6635 82.9637 50.1078 82.8649 50.4402 C 82.737 50.8855 82.5002 51.7355 82.9491 52.0391 C 83.5358 52.317 84.2789 51.5743 84.9729 51.6157 C 85.6445 51.6586 86.9644 52.0823 86.9644 52.0823 "/>
    <path id="ID0.2278452254831791" fill="none" stroke="#937B73" stroke-width="1.0160744834367943" stroke-linecap="round" d="M 87.8265 45.9157 C 87.8265 45.9157 88.7995 47.7582 89.2816 48.6801 C 89.4431 48.9887 89.6201 49.2909 89.7584 49.6102 C 89.8967 49.9295 90.1157 50.2461 90.1092 50.5938 C 90.1028 50.9425 89.9033 51.2688 89.7231 51.5673 C 89.6027 51.767 89.2252 52.0605 89.2252 52.0605 "/>
    <path id="ID0.6473136460408568" fill="none" stroke="#937B73" stroke-width="1.016074529151222" stroke-linecap="round" d="M 88.4924 62.8462 C 88.4924 62.8462 88.8224 63.4742 88.8804 63.8176 C 88.9365 64.1521 88.8838 64.5008 88.8272 64.8352 C 88.7423 65.3391 88.4576 66.3245 88.4576 66.3245 "/>
    <path id="ID0.11669129692018032" fill="#2E3034" stroke="none" stroke-linecap="round" d="M 71.7408 40.9161 L 95.0156 42.2085 L 99.0077 44.7929 L 89.7092 49.6875 L 68.9582 47.5801 L 71.7408 40.9161 Z " stroke-width="0.5080372417183971"/>
    <path id="ID0.14635155349969864" fill="#2E3034" stroke="none" stroke-linecap="round" d="M 69.184 46.2288 L 71.0459 46.5711 L 73.7959 51.7221 L 74.221 57.4807 L 76.1291 61.252 L 79.098 64.7216 L 70.7609 59.6872 L 69.184 46.2288 Z " stroke-width="0.5080372417183971"/>
    <path id="ID0.28340246016159654" fill="#1C1D1F" stroke="none" stroke-linecap="round" d="M 71.8088 37.7635 L 75.2698 39.2309 L 84.9542 39.92 L 85.0743 45.6708 L 78.1157 44.8708 L 74.2323 43.8714 L 72.1758 42.4018 L 71.2757 40.6919 L 71.8088 37.7635 Z " stroke-width="0.5401027107722249"/>
    <path id="ID0.6101007834076881" fill="#FFFFFF" stroke="none" stroke-linecap="round" d="M 75.6443 40.2093 L 77.305 40.5745 L 81.1092 41.6965 L 81.6949 43.653 L 76.411 42.3101 L 75.6443 40.2093 Z " stroke-width="0.4061061874722976"/>
    <path id="ID0.28340246016159654" fill="#1C1D1F" stroke="none" stroke-linecap="round" d="M 97.2652 37.2734 L 94.2362 38.7096 L 85.6336 39.6841 L 85.7407 44.8123 L 91.9107 43.8404 L 95.3334 42.8054 L 97.1109 41.4195 L 97.8492 39.8625 L 97.2652 37.2734 Z " stroke-width="0.48162498571674184"/>
    <path id="ID0.6101007834076881" fill="#FFFFFF" stroke="none" stroke-linecap="round" d="M 95.5665 39.3761 L 94.0356 39.8996 L 90.5597 41.3685 L 90.2159 43.281 L 95.0671 41.4445 L 95.5665 39.3761 Z " stroke-width="0.38638674313664645"/>
    <g id="ID0.07940126257017255">
      <path id="ID0.46257128613069654" fill="#27282B" stroke="none" stroke-linecap="round" d="M 85.1601 39.749 L 89.7108 49.6137 L 79.6527 48.5534 L 85.1601 39.749 Z " stroke-width="0.5080372417183971"/>
      <path id="ID0.9845890481956303" fill="#27282B" stroke="none" stroke-linecap="round" d="M 85.9722 39.8566 L 94.4053 47.0486 L 89.7854 49.6859 L 85.9722 39.8566 Z " stroke-width="0.5080372417183971"/>
    </g>
    <path id="ID0.20071752788498998" fill="#202324" stroke="none" d="M 76.5964 35.3561 L 80.7896 37.8347 L 85.5631 38.9037 L 85.6685 40.2989 L 77.8707 39.1914 L 71.9299 36.978 L 73.6198 35.1642 L 76.5964 35.3561 Z " stroke-width="0.5080372417183971"/>
    <path id="ID0.20071752788498998" fill="#202324" stroke="none" d="M 93.4806 34.7599 L 90.4794 37.2701 L 85.2696 38.9407 L 85.2265 40.2237 L 92.3319 38.9097 L 97.7184 36.7693 L 96.1339 34.5646 L 93.4806 34.7599 Z " stroke-width="0.46609798750218784"/>
    <path id="ID0.521138689480722" fill="none" stroke="#212325" stroke-width="0.9060627594735033" stroke-linecap="round" d="M 97.2711 37.0356 L 94.0658 38.6885 L 85.554 40.1124 "/>
    <path id="ID0.17828734638169408" fill="none" stroke="#202324" stroke-width="1.0160744834367943" stroke-linecap="round" d="M 89.5959 49.1309 L 86.5242 41.9539 C 85.4731 39.5561 85.6332 40.1213 85.4241 39.1567 C 85.351 38.8198 85.5619 38.479 85.606 38.1366 C 85.6493 37.7993 85.7062 37.4581 85.6864 37.1186 C 85.6665 36.7755 85.5605 36.4418 85.4874 36.1065 C 85.3733 35.5829 85.1244 34.5388 85.1244 34.5388 "/>
    <path id="ID0.521138689480722" fill="none" stroke="#212325" stroke-width="1.0160744834367943" stroke-linecap="round" d="M 72.1073 37.2418 L 75.7761 38.9437 L 85.3797 40.1405 "/>
    <path id="ID0.8012696979567409" fill="none" stroke="url(#grad_1)" stroke-width="1.0160744834367943" stroke-linecap="round" d="M 97.6009 45.5591 L 90.2161 49.6261 L 71.5772 47.6779 L 73.6387 51.4968 L 74.0708 57.5855 L 76.0762 61.1515 L 79.0472 64.7227 "/>
    <path id="ID0.043594349175691605" fill="#D7E2FD" stroke="none" stroke-linecap="round" d="M 80.9429 42.7415 L 81.1481 41.6193 L 81.699 43.6658 L 79.0932 42.9834 L 80.9429 42.7415 Z " stroke-width="0.5080372417183971"/>
    <path id="ID0.043594349175691605" fill="#D7E2FD" stroke="none" stroke-linecap="round" d="M 90.8963 42.356 L 90.6103 41.359 L 90.2949 43.2598 L 92.5914 42.4094 L 90.8963 42.356 Z " stroke-width="0.4618642839366465"/>
  </g>
  <g id="ID0.7049301471561193">
    <path id="ID0.05466862628236413" fill="#303436" stroke="none" stroke-linecap="round" d="M 69.1919 228.2418 L 95.9251 228.8229 L 87.9933 246.6079 L 85.6058 251.3183 L 82.0199 269.1029 L 72.1352 308.6384 L 56.3662 307.8966 L 57.8757 285.6986 L 56.6134 276.7314 L 56.8616 267.2152 L 61.1509 254.2383 L 63.1935 242.0876 L 69.1919 228.2418 Z " stroke-width="0.7305889897063004"/>
    <path id="ID0.4490455654449761" fill="none" stroke="#272A2B" stroke-width="1.6585523271142377" stroke-linecap="round" d="M 68.9506 229.0791 L 95.7377 229.2775 L 84.9992 252.2239 "/>
    <path id="ID0.10446935473009944" fill="none" stroke="#242728" stroke-width="1.6585523271142377" stroke-linecap="round" d="M 82.6208 264.3295 L 79.6673 280.9067 L 68.0493 286.3941 "/>
    <path id="ID0.42170455446466804" fill="none" stroke="#242728" stroke-width="1.6585523271142377" stroke-linecap="round" d="M 78.3869 281.8719 L 74.4534 296.4846 L 62.5862 302.1265 "/>
    <path id="ID0.047098892275244" fill="none" stroke="#242728" stroke-width="1.6585523271142377" stroke-linecap="round" d="M 63.5254 242.557 L 62.4089 246.3356 L 65.3753 255.8136 "/>
  </g>
  <g id="ID0.4107501800172031">
    <g id="ID0.12414784263819456">
      <path id="ID0.05466862628236413" fill="#292D2E" stroke="none" stroke-linecap="round" d="M 147.369 196.3345 L 157.9203 171.7648 L 171.4401 185.7803 L 174.9134 189.7582 L 190.0605 199.744 L 223.0162 223.7166 L 216.4223 238.0601 L 196.4054 228.3466 L 187.6181 226.1584 L 178.8876 222.3642 L 168.4617 213.5268 L 157.9604 207.0821 L 147.369 196.3345 Z " stroke-width="0.7305890110531084"/>
      <path id="ID0.4490455654449761" fill="none" stroke="#272A2B" stroke-width="1.6585523183273798" stroke-linecap="round" d="M 147.5397 196.719 L 157.7562 171.956 L 175.0106 190.5071 "/>
      <path id="ID0.10446935473009944" fill="none" stroke="#242728" stroke-width="1.6585523183273798" stroke-linecap="round" d="M 185.3442 197.2463 L 199.6087 206.1936 L 200.3453 219.0211 "/>
      <path id="ID0.42170455446466804" fill="none" stroke="#242728" stroke-width="1.6585523183273798" stroke-linecap="round" d="M 200.024 207.7422 L 212.0999 216.8624 L 212.8865 229.9789 "/>
      <path id="ID0.047098892275244" fill="none" stroke="#242728" stroke-width="1.6585523183273798" stroke-linecap="round" d="M 158.0606 206.7027 L 161.146 209.1532 L 171.0452 209.9525 "/>
    </g>
    <path id="ID0.5368814701214433" fill="#292D2E" stroke="none" stroke-linecap="round" d="M 218.854 245.4443 L 211.7733 239.4322 L 204.9147 231.7762 L 214.1139 224.7609 L 225.4465 217.2249 L 241.6307 204.9792 L 248.0695 206.4482 L 239.8089 229.753 L 228.3711 248.0278 L 218.854 245.4443 Z " stroke-width="0.770216529798505"/>
  </g>
</svg>