<svg xmlns="http://www.w3.org/2000/svg" xmlns:xlink="http://www.w3.org/1999/xlink" version="1.1" width="122.3796721822519" height="330.1360732442636" viewBox="0.8085629281153834 -0.2688394251713597 122.3796721822519 330.1360732442636">
  <defs>
    <linearGradient id="grad_1" y2="1" x2="0">
      <stop offset="0" stop-color="#222325" stop-opacity="1"/>
      <stop offset="1" stop-color="#2E3034" stop-opacity="1"/>
    </linearGradient>
  </defs>
  <!-- Exported by Scratch - http://scratch.mit.edu/ -->
  <path id="ID0.7766774026677012" fill="#0D0D0D" stroke="#0D0D0D" stroke-width="1.9730788594979929" stroke-linecap="round" d="M 113.5 183.9421 C 112.782 151.3735 113.511 117.5412 102.5 86.4096 C 98.336 74.6395 83.041 69.2157 71 65.006 C 65.504 63.0874 59.934 67.9032 54.5 69.6272 C 52.957 70.1127 51.812 71.1313 50.5 71.8162 C 48.643 72.5916 46.689 73.1802 45 74.0052 C 44.402 74.299 43.8 74.5889 43.25 74.9781 C 42.6 75.3186 42.1 75.8051 41.5 76.1942 C 40.25 76.9239 39 77.7022 37.75 78.3832 C 36.5 78.967 35.2 79.4534 34 80.0858 C 33.4 80.3777 32.75 80.6209 32.25 81.0587 C 31.65 81.4965 31.25 82.1775 30.75 82.7612 C 30.25 83.2477 29.75 83.7341 29.25 84.2206 C 28.75 84.6584 28.1 85.0962 27.75 85.6799 C 27.35 86.215 27.25 86.9447 27 87.6257 C 26.75 88.2581 26.45 88.8905 26.25 89.5715 C 25.8 90.8363 25.4 92.1497 25 93.4631 C 24.75 94.0954 24.5 94.7278 24.25 95.4089 C 24 96.0412 23.75 96.6736 23.5 97.3546 C 23.25 97.987 23 98.6194 22.75 99.3004 C 22.5 99.9328 22.15 100.5652 22 101.2462 C 21.8 101.8786 21.8 102.511 21.75 103.192 C 21.65 103.8244 21.55 104.4568 21.5 105.1378 C 21.4 105.7702 21.35 106.4025 21.25 107.0836 C 21.1 107.7159 20.85 108.3483 20.75 109.0293 C 20.3 110.9265 19.9 112.9209 19.5 114.8667 C 19.35 115.4991 19.1 116.1315 19 116.8125 C 18.85 117.4449 18.8 118.0773 18.75 118.7583 C 18.65 119.3907 18.5 120.023 18.5 120.7041 C 18.45 121.3364 18.5 121.9688 18.5 122.6498 C 18.5 123.9146 18.4 125.228 18.5 126.5414 C 18.5 127.1738 18.7 127.4657 18.75 128.4872 C 18.8 132.4274 18.75 136.4163 18.75 140.4051 C 18.75 144.2481 18.75 148.1883 18.75 152.0798 C 18.75 153.977 18.8 155.9714 18.75 157.9172 C 18.7 158.5496 18.6 159.182 18.5 159.863 C 18.25 161.3223 17.9 162.733 17.75 164.241 C 17.65 164.8734 17.75 165.5058 17.75 166.1868 C 17.7 166.8192 17.55 167.4516 17.5 168.1326 C 17.3 169.3973 17.05 170.7107 17 172.0241 C 16.9 173.2889 17 174.6023 17 175.9157 C 17 179.7586 17 183.6989 17 187.5904 C 17 188.5147 17.05 188.8552 17 189.5362 C 16.9 190.1686 16.6 190.801 16.5 191.482 C 16.15 193.3791 16 195.3736 15.75 197.3194 C 15.65 197.9517 15.6 198.5841 15.5 199.2651 C 15.2 200.6272 14.75 201.9892 14.5 203.3999 C 14.35 204.081 14.3 204.8593 14.25 205.5889 C 14.15 206.27 14 206.9996 14 207.778 C 13.95 208.4103 14 209.0427 14 209.7237 C 14 210.3561 13.9 210.9885 14 211.6695 C 14.15 212.9343 14.5 214.2477 14.75 215.5611 C 14.85 216.1935 14.95 216.8259 15 217.5069 C 15 218.1393 15 218.7716 15 219.4527 C 15 220.085 15 220.7174 15 221.3984 C 14.9 222.6632 14.9 223.9766 14.75 225.29 C 14.55 226.5061 14 228.9384 14 228.9384 C 13.75 229.4248 13.128 232.1937 12.75 233.5596 C 12.545 234.3019 12.223 235.0112 12 235.7486 C 11.806 236.3898 11.667 237.0465 11.5 237.6944 C 11.333 238.3423 11.127 238.9835 11 239.6402 C 10.876 240.2823 10.874 240.9439 10.75 241.586 C 10.623 242.2427 10.455 242.8945 10.25 243.5318 C 10.038 244.1924 9.673 244.8062 9.5 245.4775 C 9.337 246.1109 9.333 246.7754 9.25 247.4233 C 9.167 248.0713 9.083 248.7212 9 249.3691 C 8.917 250.0171 8.833 250.667 8.75 251.3149 C 8.667 251.9628 8.528 252.6079 8.5 253.2607 C 8.445 254.5556 8.555 255.8573 8.5 257.1523 C 8.472 257.8051 8.333 258.4501 8.25 259.098 C 8.167 259.746 8.028 260.391 8 261.0438 C 7.945 262.3387 7.972 263.6395 8 264.9354 C 8.056 267.5282 8.183 270.1267 8.25 272.7185 C 8.267 273.3665 8.25 274.0164 8.25 274.6643 C 8.25 275.3123 8.292 275.9631 8.25 276.6101 C 8.208 277.2619 8.124 277.9138 8 278.5559 C 7.873 279.2126 7.585 279.8391 7.5 280.5017 C 7.417 281.1448 7.542 281.8005 7.5 282.4475 C 7.458 283.0993 7.292 283.7414 7.25 284.3932 C 7.208 285.0402 7.292 285.6921 7.25 286.339 C 7.208 286.9909 7.124 287.6427 7 288.2848 C 6.873 288.9415 6.627 289.5739 6.5 290.2306 C 6.376 290.8727 6.374 291.5343 6.25 292.1764 C 6.123 292.8331 5.863 293.4635 5.75 294.1222 C 5.529 295.4103 5.417 296.7179 5.25 298.0137 C 5.167 298.6617 5.083 299.3116 5 299.9595 C 4.917 300.6075 4.792 301.2535 4.75 301.9053 C 4.708 302.5523 4.708 303.2041 4.75 303.8511 C 4.792 304.5029 4.972 305.1441 5 305.7969 C 5.055 307.0918 5.165 308.4023 5 309.6885 C 4.83 311.0135 4.384 312.2978 4 313.58 C 3.801 314.2445 3.462 314.8652 3.25 315.5258 C 3.045 316.1631 2.955 316.8344 2.75 317.4716 C 2.538 318.1322 2.131 318.7373 2 319.4174 C 1.877 320.0546 1.608 320.8388 2 321.3632 C 2.418 321.9226 3.294 322.0072 4 322.0928 C 4.666 322.1736 5.329 321.8496 6 321.8496 C 6.671 321.8496 7.329 322.0928 8 322.0928 C 8.671 322.0928 9.33 321.8905 10 321.8496 C 10.665 321.8088 11.339 321.7689 12 321.8496 C 12.681 321.9323 13.378 322.0539 14 322.3361 C 14.649 322.6308 15.071 323.3323 15.75 323.5522 C 16.382 323.7575 17.084 323.5522 17.75 323.5522 C 18.416 323.5522 19.089 323.6329 19.75 323.5522 C 20.431 323.4695 21.069 323.1484 21.75 323.0657 C 22.411 322.985 23.085 323.0249 23.75 323.0657 C 24.42 323.1066 25.08 323.2681 25.75 323.309 C 26.415 323.3498 27.089 323.2282 27.75 323.309 C 28.431 323.3916 29.069 323.7127 29.75 323.7954 C 30.411 323.8761 31.085 323.7545 31.75 323.7954 C 32.42 323.8363 33.084 323.9579 33.75 324.0386 C 34.416 324.1194 35.079 324.3023 35.75 324.2818 C 37.754 324.2206 39.749 323.917 41.75 323.7954 C 42.415 323.7545 43.085 323.7545 43.75 323.7954 C 44.42 323.8363 45.079 324.0114 45.75 324.0386 C 47.081 324.0921 48.419 323.9851 49.75 324.0386 C 50.421 324.0659 51.08 324.241 51.75 324.2818 C 52.415 324.3227 53.085 324.3227 53.75 324.2818 C 54.42 324.241 55.08 324.0795 55.75 324.0386 C 56.415 323.9978 57.085 324.0795 57.75 324.0386 C 58.42 323.9978 59.081 323.8499 59.75 323.7954 C 61.08 323.6874 62.415 323.5522 63.75 323.5522 C 64.421 323.5522 65.09 323.6748 65.75 323.7954 C 66.425 323.919 67.069 324.1991 67.75 324.2818 C 68.411 324.3626 69.084 324.2818 69.75 324.2818 C 71.748 324.2818 73.753 324.2215 75.75 324.2818 C 76.421 324.3023 77.08 324.4842 77.75 324.5251 C 78.415 324.5659 79.085 324.5659 79.75 324.5251 C 80.42 324.4842 81.084 324.3626 81.75 324.2818 C 82.416 324.2011 83.08 324.0795 83.75 324.0386 C 84.415 323.9978 85.095 324.1583 85.75 324.0386 C 86.449 323.9112 86.154 323.7185 87.75 323.309 C 94.133 321.6706 105.572 324.7955 107.15 318.4931 C 112.777 296.0067 104.925 271.8799 106 248.6394 C 106.992 227.2416 113.955 205.7144 113.5 183.9421 Z "/>
  <path id="ID0.7729651997797191" fill="#3E4246" stroke="none" stroke-linecap="round" d="M 32.4964 101.4746 L 50.2257 91.7016 L 56.1824 107.9814 L 61.0822 121.0651 L 60.862 127.9684 L 59.786 132.7562 L 47.2371 136.5928 L 42.864 132.3554 L 36.822 112.5061 L 32.4964 101.4746 Z " stroke-width="0.8164596154731287"/>
  <g id="ID0.19023223826661706">
    <path id="ID0.9716172609478235" fill="#393C40" stroke="none" stroke-linecap="round" d="M 39.9818 112.3836 L 34.5714 111.8071 L 34.1359 105.0248 L 54.3611 108.0983 L 52.5363 111.9611 L 47.9817 115.588 L 39.9818 112.3836 Z " stroke-width="0.8164596076457761"/>
    <g id="ID0.38066427363082767">
      <path id="ID0.4757494777441025" fill="#1D1E1F" stroke="none" stroke-linecap="round" d="M 34.4891 81.6135 L 41.8345 76.7053 L 58.4967 75.9191 L 59.3577 102.6702 L 51.2951 110.8701 L 47.3982 113.4045 L 43.5696 112.2475 L 39.8763 110.4098 L 33.6141 109.8719 L 31.655 104.7573 L 29.5968 96.8964 L 29.8116 87.9682 L 34.4891 81.6135 Z " stroke-width="0.4761425630660614"/>
      <path id="ID0.6007084371522069" fill="none" stroke="#0D0D0D" stroke-width="0.9522851261321228" stroke-linecap="round" d="M 34.1828 110.0474 L 39.7643 110.4499 L 45.0431 112.4782 L 47.4384 113.5166 L 51.2951 110.8701 L 54.6783 107.2553 "/>
    </g>
  </g>
  <g id="ID0.17693647183477879">
    <path id="ID0.7729651997797191" fill="#393C40" stroke="none" stroke-linecap="round" d="M 114.4023 106.6397 L 95.4314 103.0316 L 94.8542 119.5575 L 94.2881 132.8723 L 96.5331 139.0663 L 98.9274 143.0886 L 111.4422 142.849 L 114.1519 137.7113 L 113.7489 117.9236 L 114.4023 106.6397 Z " stroke-width="0.7788098922064032"/>
    <path id="ID0.9716172609478235" fill="#34373A" stroke="none" stroke-linecap="round" d="M 109.1829 111.0603 L 114.2677 110.0203 L 114.0637 103.5407 L 95.1391 108.3006 L 97.2235 111.8024 L 101.8785 114.8315 L 109.1829 111.0603 Z " stroke-width="0.7788098922064032"/>
    <g id="ID0.38066427363082767">
      <path id="ID0.4757494777441025" fill="#1D1E1F" stroke="none" stroke-linecap="round" d="M 111.6742 81.418 L 104.2525 77.4264 L 88.3597 78.1969 L 89.978 103.6764 L 98.3803 110.7283 L 102.3113 112.7799 L 105.8414 111.3327 L 109.1809 109.2514 L 115.0781 108.1705 L 116.4726 103.1357 L 117.7111 95.4841 L 116.6942 87.026 L 111.6742 81.418 Z " stroke-width="0.4541860295317496"/>
      <path id="ID0.6007084371522069" fill="none" stroke="#0D0D0D" stroke-width="0.9083720590634992" stroke-linecap="round" d="M 114.5541 108.389 L 109.2909 109.2793 L 104.4632 111.6859 L 102.2833 112.89 L 98.3803 110.7283 L 94.8387 107.604 "/>
    </g>
  </g>
  <g id="ID0.7397577832452953">
    <path id="ID0.6726378230378032" fill="#34373A" stroke="none" stroke-linecap="round" d="M 109.9089 121.3527 L 95.1182 131.0973 L 96.0533 133.2157 L 110.4444 123.344 L 109.9089 121.3527 Z " stroke-width="0.7788100324571109"/>
    <path id="ID0.6507829907350242" fill="#1D1E1F" stroke="none" stroke-linecap="round" d="M 113.1866 122.1974 L 95.8341 133.2218 L 97.5374 151.253 L 100.2145 161.2094 L 101.3316 176.5503 L 101.2014 182.8068 L 112.8 183.9144 L 112.5417 177.6863 L 113.6107 168.238 L 115.4668 156.1945 L 116.55 146.9404 L 113.1866 122.1974 Z " stroke-width="0.7788100324571109"/>
    <path id="ID0.6829322893172503" fill="#1D1E1F" stroke="none" stroke-linecap="round" d="M 113.1601 183.4978 L 102.903 179.3642 L 100.1777 184.8335 L 96.704 190.7477 L 97.0999 196.185 L 98.0076 200.6089 L 100.1616 203.3804 L 101.9875 209.6896 L 106.4397 209.1702 L 107.4635 207.1435 L 109.0028 206.8362 L 111.926 204.0855 L 115.0152 200.9323 L 116.646 196.5188 L 115.3743 189.7787 L 113.1601 183.4978 Z " stroke-width="0.7788100324571109"/>
    <path id="ID0.47767175547778606" fill="none" stroke="#0D0D0D" stroke-width="1.5576200649142218" stroke-linecap="round" d="M 113.4609 125.9647 L 112.9063 122.1007 L 95.9118 133.2161 L 97.1924 146.5148 "/>
    <path id="ID0.5922487881034613" fill="#282A2B" stroke="none" stroke-linecap="round" d="M 116.4244 154.5923 L 109.3153 149.7219 L 103.4953 150.2238 L 98.0048 156.3239 L 100.4019 170.4784 L 105.3914 177.3381 L 108.6926 177.0978 L 114.0093 169.6828 L 116.4244 154.5923 Z " stroke-width="0.7788100324571109"/>
    <path id="ID0.36820242274552584" fill="#151616" stroke="none" stroke-linecap="round" d="M 110.7693 157.4867 L 102.6854 157.9972 L 106.0461 168.7628 L 107.4775 168.5805 L 110.7693 157.4867 Z " stroke-width="0.7788100324571109"/>
    <path id="ID0.13569410238415003" fill="none" stroke="#232425" stroke-width="1.5576200649142218" stroke-linecap="round" d="M 112.1482 167.9931 L 107.2087 175.2244 L 101.7284 168.5956 "/>
    <path id="ID0.024502143263816833" fill="none" stroke="#0D0D0D" stroke-width="1.5576200649142218" stroke-linecap="round" d="M 116.0302 154.2794 L 109.6427 149.6688 L 103.8778 149.8543 L 98.3096 155.9601 L 99.7579 164.0538 "/>
  </g>
  <path id="ID0.3809091211296618" fill="#393D40" stroke="none" stroke-linecap="round" d="M 83.129 181.0119 L 108.3535 167.6624 L 113.1899 206.1534 L 112.7255 217.0894 L 108.2335 235.1507 L 99.7288 238.1545 L 86.8438 240.0055 L 86.0109 219.2026 L 87.325 207.8209 L 83.129 181.0119 Z " stroke-width="0.7305889428066659"/>
  <g id="ID0.12414784263819456">
    <path id="ID0.05466862628236413" fill="#292D2E" stroke="none" stroke-linecap="round" d="M 84.776 229.4597 L 111.3706 226.681 L 105.7338 245.3208 L 103.9563 250.2936 L 102.631 268.3877 L 97.7865 308.8512 L 82.049 310.0943 L 80.7605 287.8824 L 78.3828 279.1446 L 77.4347 269.6725 L 80.0613 256.2599 L 80.5627 243.9489 L 84.776 229.4597 Z " stroke-width="0.7305889918764055"/>
    <path id="ID0.4490455654449761" fill="none" stroke="#272A2B" stroke-width="1.658552294459341" stroke-linecap="round" d="M 84.4918 229.7201 L 111.0919 226.5549 L 103.3183 250.6676 "/>
    <path id="ID0.10446935473009944" fill="none" stroke="#242728" stroke-width="1.658552294459341" stroke-linecap="round" d="M 102.478 262.976 L 101.6284 279.7928 L 90.7911 286.695 "/>
    <path id="ID0.42170455446466804" fill="none" stroke="#242728" stroke-width="1.658552294459341" stroke-linecap="round" d="M 100.4794 280.911 L 98.411 295.9019 L 87.3458 302.9886 "/>
    <path id="ID0.047098892275244" fill="none" stroke="#242728" stroke-width="1.658552294459341" stroke-linecap="round" d="M 80.8752 243.7621 L 80.2417 247.651 L 84.3743 256.6817 "/>
  </g>
  <path id="ID0.5368814701214433" fill="#292D2E" stroke="none" stroke-linecap="round" d="M 74.0028 313.2777 L 76.8862 304.4477 L 81.3751 295.2008 L 91.3512 301.0588 L 102.6173 308.6939 L 120.0793 319.0362 L 121.1578 325.5518 L 96.4604 326.7307 L 75.2154 323.0644 L 74.0028 313.2777 Z " stroke-width="0.7702165290554439"/>
  <path id="ID0.3809091211296618" fill="#3E4246" stroke="none" stroke-linecap="round" d="M 58.126 159.9436 L 77.4779 173.9669 L 80.0289 212.6766 L 78.9184 223.566 L 73.3657 241.3299 L 64.6982 243.8254 L 51.7263 244.9109 L 51.4092 223.1412 L 49.8815 209.8125 L 58.126 159.9436 Z " stroke-width="0.7305889236108433"/>
  <path id="ID0.5368814701214433" fill="#303436" stroke="none" stroke-linecap="round" d="M 39.1528 315.4277 L 42.0362 306.5977 L 46.5251 297.3508 L 56.5012 303.2088 L 67.7673 310.8439 L 85.2293 321.1862 L 86.3078 327.7018 L 61.6104 328.8807 L 40.3654 325.2144 L 39.1528 315.4277 Z " stroke-width="0.7702165290554439"/>
  <g id="ID0.9157347986474633">
    <path id="ID0.7477802094072104" fill="#363A3D" stroke="none" stroke-linecap="round" d="M 109.1154 124.9715 L 89.6382 121.4715 L 88.7831 162.6489 L 105.2591 171.9206 L 108.0532 147.452 L 109.1154 124.9715 Z " stroke-width="0.47614257300029306"/>
    <path id="ID0.7477802094072104" fill="#363A3D" stroke="none" stroke-linecap="round" d="M 48.7831 123.7358 L 72.2874 121.3664 L 71.4323 162.5439 L 54.5855 171.1236 L 49.6325 145.8988 L 48.7831 123.7358 Z " stroke-width="0.47614257300029306"/>
    <path id="ID0.4270821204409003" fill="#3E4246" stroke="none" stroke-linecap="round" d="M 49.5179 103.6385 L 53.5858 91.2215 L 55.968 85.437 L 62.6594 78.5513 L 93.6913 80.6245 L 100.505 85.0522 L 103.2772 89.1578 L 110.0615 100.7286 L 109.13 111.1866 L 108.0642 116.6413 L 109.587 123.5785 L 109.9494 129.0629 L 107.6639 135.921 L 105.9366 141.1238 L 104.5537 150.3818 L 105.5985 172.3108 L 100.2868 180.4158 L 95.3736 186.5287 L 83.1457 191.704 L 71.6169 188.4404 L 67.8289 181.6467 L 63.0115 175.1174 L 54.5309 171.8457 L 53.9148 146.4728 L 52.8631 139.7835 L 48.5303 128.2637 L 47.4461 117.4066 L 49.5179 103.6385 Z " stroke-width="0.47614257300029306"/>
    <path id="ID0.052435632329434156" fill="#393C40" stroke="none" stroke-linecap="round" d="M 60.6176 153.8064 L 65.0676 153.9464 L 71.5926 157.368 L 76.6659 157.3067 L 82.5079 159.2139 L 86.7193 158.2298 L 88.3953 157.7884 L 102.6758 154.6797 L 102.9646 157.9718 L 94.3094 161.9592 L 88.3653 161.5263 L 82.7086 164.4568 L 76.1172 160.7957 L 69.6817 161.0907 L 59.883 157.0772 L 60.6176 153.8064 Z " stroke-width="0.47614257300029306"/>
    <path id="ID0.4987568911164999" fill="none" stroke="#27282B" stroke-width="0.9522851460005861" stroke-linecap="round" d="M 62.4282 79.2223 L 55.8732 85.2774 L 52.3333 95.205 "/>
    <path id="ID0.2889464790932834" fill="none" stroke="#27282B" stroke-width="0.9522851460005861" stroke-linecap="round" d="M 95.0073 81.3276 L 100.6407 85.2545 L 106.1604 94.6559 "/>
    <path id="ID0.8373676878400147" fill="#000000" stroke="#2C2F31" stroke-width="0.6155104186945868" stroke-linecap="round" d="M 65.7718 92.3289 L 66.1477 90.8053 L 62.4906 91.6437 L 57.5712 94.8904 L 53.345 99.8623 L 50.7859 105.4474 L 55.9649 103.2905 L 60.6638 103.2687 L 63.3933 104.2374 L 65.8766 107.2745 L 67.9998 106.2908 L 72.0137 106.0844 L 76.5076 107.2087 L 80.2907 110.4577 L 82.3094 113.5511 L 84.5215 110.569 L 88.2778 107.5016 L 92.42 106.1457 L 97.5766 106.2213 L 99.3974 106.8414 L 101.1518 103.7619 L 103.1315 102.5408 L 105.7243 103.1183 L 108.4998 104.7822 L 107.1302 100.9475 L 104.9186 96.9983 L 102.1278 93.9475 L 98.9954 91.6516 L 94.4947 90.6811 L 96.6416 92.625 L 96.5629 94.3928 L 94.9298 96.4766 L 91.336 97.6258 L 88.1675 97.8698 L 85.5473 97.9072 L 83.0914 94.2552 L 82.6147 96.3134 L 81.1543 96.2484 L 79.6463 93.7938 L 78.6126 97.9836 L 74.5286 98.0328 L 70.4156 97.0025 L 67.0919 95.5453 L 65.7718 92.3289 Z "/>
    <path id="ID0.5698574706912041" fill="none" stroke="#313537" stroke-width="0.9522851460005861" stroke-linecap="round" d="M 60.5497 153.6383 L 59.8879 156.8392 L 69.6792 161.2097 L 76.4702 160.9935 L 82.473 164.3328 "/>
    <path id="ID0.5698574706912041" fill="none" stroke="#313537" stroke-width="0.8933066257048137" stroke-linecap="round" d="M 102.4201 154.7278 L 102.8721 157.9518 L 94.1747 161.9384 L 88.2685 161.4586 L 82.9108 164.5619 "/>
    <path id="ID0.8947288258932531" fill="#393C40" stroke="none" stroke-linecap="round" d="M 62.1069 141.7169 L 69.131 141.7437 L 76.6367 143.8045 L 82.1869 149.4442 L 75.1848 144.9173 L 64.4575 143.1944 L 59.2773 146.111 L 62.1069 141.7169 Z " stroke-width="0.47614257300029306"/>
    <path id="ID0.8947288258932531" fill="#393C40" stroke="none" stroke-linecap="round" d="M 100.8687 143.5222 L 94.657 143.2878 L 87.9447 144.8343 L 82.8299 149.6171 L 89.1875 145.8716 L 98.7361 144.7423 L 103.2093 147.5115 L 100.8687 143.5222 Z " stroke-width="0.4213738884176943"/>
    <path id="ID0.9897695370018482" fill="#393C40" stroke="none" stroke-linecap="round" d="M 65.3037 154.0466 L 58.768 153.4346 L 59.2928 148.8021 L 60.4103 152.3257 L 65.5009 152.5743 L 71.5692 156.2007 L 77.0511 155.9574 L 81.1153 157.4705 L 82.659 149.6445 L 82.6933 159.4559 L 77.1414 157.3403 L 71.2623 157.2183 L 65.3037 154.0466 Z " stroke-width="0.47614257300029306"/>
    <path id="ID0.9897695370018482" fill="#393C40" stroke="none" stroke-linecap="round" d="M 97.6103 154.9693 L 103.155 154.6415 L 102.8823 150.3173 L 101.8083 153.5505 L 97.4979 153.5939 L 92.237 156.7401 L 87.6142 156.3119 L 84.1244 157.5682 L 83.1086 150.2389 L 82.7179 159.355 L 87.4868 157.5937 L 92.4588 157.697 L 97.6103 154.9693 Z " stroke-width="0.4232251205631144"/>
    <path id="ID0.3524594851769507" fill="#393C40" stroke="none" stroke-linecap="round" d="M 76.4472 119.5607 L 82.3046 121.8731 L 86.804 119.6329 L 83.5593 123.3755 L 84.28 134.5346 L 93.3664 133.866 L 82.867 137.2199 L 71.3014 132.2887 L 80.9468 134.513 L 80.7764 123.2225 L 76.4472 119.5607 Z " stroke-width="0.47614257300029306"/>
    <path id="ID0.9214867809787393" fill="#393C40" stroke="none" stroke-linecap="round" d="M 62.1875 137.8371 L 65.2502 133.686 L 70.0304 132.8327 L 64.1001 137.472 L 63.8012 140.3947 L 68.8463 140.5471 L 76.9436 143.9299 L 68.0098 141.8394 L 62.1545 141.7178 L 62.1875 137.8371 Z " stroke-width="0.47614257300029306"/>
    <path id="ID0.9214867809787393" fill="#393C40" stroke="none" stroke-linecap="round" d="M 100.622 139.4159 L 97.9825 135.3388 L 93.6446 134.3397 L 98.8873 138.9935 L 99.0471 141.792 L 94.428 141.7415 L 87.7251 144.4429 L 95.1427 143.0062 L 100.5015 143.1175 L 100.622 139.4159 Z " stroke-width="0.4451788453890468"/>
    <path id="ID0.8679121839813888" fill="#2C2F31" stroke="none" stroke-linecap="round" d="M 78.4241 118.5054 L 82.1988 120.203 L 85.5652 118.6299 L 86.4975 119.6017 L 82.5148 122.186 L 76.8012 119.829 L 78.4241 118.5054 Z " stroke-width="0.47614257300029306"/>
    <path id="ID0.24770551454275846" fill="none" stroke="#313537" stroke-width="0.9522851460005861" stroke-linecap="round" d="M 82.4959 116.6296 L 87.0631 120.2963 L 94.5509 120.9281 L 102.1898 120.0151 L 107.5053 116.3156 "/>
    <path id="ID0.20603158557787538" fill="none" stroke="#313537" stroke-width="0.9522851460005861" stroke-linecap="round" d="M 49.2476 111.9286 L 56.158 117.4298 L 68.4683 120.9001 L 75.7403 120.4558 L 82.0103 116.657 "/>
    <g id="ID0.5272086253389716">
      <path id="ID0.24770551454275846" fill="none" stroke="#363A3D" stroke-width="0.9522850864087884" stroke-linecap="round" d="M 51.9879 144.5256 L 61.9553 141.5655 "/>
      <path id="ID0.24770551454275846" fill="none" stroke="#363A3D" stroke-width="0.9522850864087884" stroke-linecap="round" d="M 49.6542 132.5538 L 70.2053 126.7655 "/>
    </g>
    <g id="ID0.5272086253389716">
      <path id="ID0.24770551454275846" fill="none" stroke="#363A3D" stroke-width="0.9522850864087884" stroke-linecap="round" d="M 107.4797 144.7318 L 100.5807 142.7557 "/>
      <path id="ID0.24770551454275846" fill="none" stroke="#363A3D" stroke-width="0.9522850864087884" stroke-linecap="round" d="M 108.2029 133.3424 L 94.4298 128.2945 "/>
    </g>
    <g id="ID0.7887678607366979">
      <path id="ID0.753661650698632" fill="none" stroke="#313537" stroke-width="0.9522850864087884" stroke-linecap="round" d="M 76.9207 119.6896 L 82.1078 122.1786 L 86.2085 119.6444 "/>
      <g id="ID0.8167418288066983">
        <path id="ID0.9553722990676761" fill="none" stroke="#313537" stroke-width="1.0409107743576298" stroke-linecap="round" d="M 82.4063 137.0479 L 76.8392 134.7892 L 70.706 132.7569 L 65.9163 133.6099 L 62.3201 137.8214 L 62.2484 141.2727 "/>
        <path id="ID0.5982440118677914" fill="none" stroke="#313537" stroke-width="0.8540413396238158" stroke-linecap="round" d="M 71.0334 132.3556 L 69.9532 127.0387 L 75.3362 120.0913 "/>
      </g>
      <g id="ID0.7324484633281827">
        <path id="ID0.04993448918685317" fill="none" stroke="#313537" stroke-width="0.9522850864087884" stroke-linecap="round" d="M 82.1102 122.0595 L 82.6068 132.5472 L 82.7418 148.9805 L 82.6413 165.2898 "/>
        <g id="ID0.8167418288066983">
          <path id="ID0.9553722990676761" fill="none" stroke="#313537" stroke-width="0.9699703077304642" stroke-linecap="round" d="M 82.7502 136.9275 L 87.8128 135.6754 L 93.2815 133.884 L 97.457 134.9232 L 100.4528 139.2716 L 100.3811 142.7229 "/>
          <path id="ID0.5982440118677914" fill="none" stroke="#313537" stroke-width="0.7916616152166959" stroke-linecap="round" d="M 93.0361 133.5336 L 94.1927 128.2632 L 89.7336 121.1113 "/>
          <path id="ID0.3567589442245662" fill="none" stroke="#313537" stroke-width="0.8967655150693851" stroke-linecap="round" d="M 82.6263 149.6264 L 87.8586 144.7583 L 95.2253 143.0063 L 100.7521 143.1211 L 102.8958 147.809 L 103.0431 154.8367 L 97.4805 155.4355 L 91.7638 158.4124 L 86.8491 158.0722 L 82.6031 159.8176 L 76.8142 157.1971 L 71.2197 157.319 L 64.8569 154.0913 L 58.5704 153.2464 L 59.0511 146.2318 L 61.7016 141.6434 L 67.982 141.7738 L 76.2746 143.851 L 81.9911 148.9465 Z "/>
        </g>
      </g>
    </g>
    <g id="ID0.9312638868577778">
      <path id="ID0.2888958193361759" fill="#393C40" stroke="none" stroke-linecap="round" d="M 63.0092 161.9331 L 73.1808 164.229 L 72.5255 167.1319 L 62.3539 164.8359 L 63.0092 161.9331 Z " stroke-width="0.4761425459216224"/>
      <path id="ID0.2888958193361759" fill="#393C40" stroke="none" stroke-linecap="round" d="M 52.2581 159.6286 L 63.6808 162.329 L 63.0255 165.2319 L 52.8539 162.9359 L 52.2581 159.6286 Z " stroke-width="0.4761425459216224"/>
      <g id="ID0.36424446757882833">
        <path id="ID0.7359844641759992" fill="#8A7B59" stroke="none" d="M 65.8379 161.2806 L 67.3612 161.3122 L 67.2318 167.5484 L 65.7084 167.5167 L 65.8379 161.2806 Z " stroke-width="0.4761425432043942"/>
        <path id="ID0.7359844641759992" fill="#8A7B59" stroke="none" d="M 63.9879 160.8306 L 65.5112 160.8622 L 65.3818 167.0984 L 63.8584 167.0667 L 63.9879 160.8306 Z " stroke-width="0.4761425432043942"/>
        <path id="ID0.7359844641759992" fill="#8A7B59" stroke="none" d="M 62.0879 160.1306 L 63.6112 160.1622 L 63.4818 166.3984 L 61.9584 166.3667 L 62.0879 160.1306 Z " stroke-width="0.4761425432043942"/>
        <path id="ID0.7359844641759992" fill="#8A7B59" stroke="none" d="M 67.7379 161.8306 L 69.2612 161.8622 L 69.1318 168.0984 L 67.6084 168.0667 L 67.7379 161.8306 Z " stroke-width="0.4761425432043942"/>
      </g>
      <g id="ID0.1049797898158431">
        <path id="ID0.08871637750416994" fill="#8A7B59" stroke="none" stroke-linecap="round" d="M 53.9895 159.0074 L 60.3705 160.1877 L 60.2067 165.7801 L 54.0643 164.581 L 53.9895 159.0074 Z " stroke-width="0.4761425432043942"/>
        <path id="ID0.13805592898279428" fill="#76694C" stroke="none" stroke-linecap="round" d="M 53.7978 158.7378 L 60.4882 159.9245 L 60.5236 162.8065 L 53.8114 161.5241 L 53.7978 158.7378 Z " stroke-width="0.4761425432043942"/>
        <path id="ID0.3221200187690556" fill="#61563F" stroke="none" stroke-linecap="round" d="M 56.6 160.989 L 57.4708 161.3689 L 57.5118 163.1272 L 56.5629 162.7716 L 56.6 160.989 Z " stroke-width="0.5167888865886084"/>
        <path id="ID0.1420820001512766" fill="#BAA578" stroke="none" stroke-linecap="round" d="M 59.5518 164.8318 L 60.2956 163.4185 L 60.2952 165.7283 L 54.056 164.5986 L 59.5518 164.8318 Z " stroke-width="0.4761425432043942"/>
      </g>
      <path id="ID0.2888958193361759" fill="#393C40" stroke="none" stroke-linecap="round" d="M 100.5902 163.1025 L 93.1307 164.7611 L 93.5102 167.306 L 100.9697 165.6474 L 100.5902 163.1025 Z " stroke-width="0.3810469777360591"/>
      <path id="ID0.2888958193361759" fill="#393C40" stroke="none" stroke-linecap="round" d="M 107.1651 161.4157 L 100.1307 163.2111 L 100.5102 165.756 L 106.6833 164.3204 L 107.1651 161.4157 Z " stroke-width="0.3810469777360591"/>
      <path id="ID0.7359844641759992" fill="#8A7B59" stroke="none" d="M 98.5701 162.0255 L 97.4633 162.0025 L 97.3506 167.4273 L 98.4574 167.4503 L 98.5701 162.0255 Z " stroke-width="0.3816027988624045"/>
      <path id="ID0.7359844641759992" fill="#8A7B59" stroke="none" d="M 99.9701 161.5755 L 98.8633 161.5525 L 98.7506 166.9773 L 99.8574 167.0003 L 99.9701 161.5755 Z " stroke-width="0.3816027988624045"/>
      <path id="ID0.7359844641759992" fill="#8A7B59" stroke="none" d="M 101.4701 161.1255 L 100.3633 161.1025 L 100.2506 166.5273 L 101.3574 166.5503 L 101.4701 161.1255 Z " stroke-width="0.3816027988624045"/>
      <path id="ID0.7359844641759992" fill="#8A7B59" stroke="none" d="M 97.1201 162.5755 L 96.0133 162.5525 L 95.9006 167.9773 L 97.0074 168.0003 L 97.1201 162.5755 Z " stroke-width="0.3816027988624045"/>
      <g id="ID0.1049797898158431">
        <path id="ID0.08871637750416994" fill="#8A7B59" stroke="none" stroke-linecap="round" d="M 107.4077 160.3854 L 102.4448 161.2507 L 102.3742 166.4213 L 107.1538 165.5302 L 107.4077 160.3854 Z " stroke-width="0.40545296430512573"/>
        <path id="ID0.13805592898279428" fill="#76694C" stroke="none" stroke-linecap="round" d="M 107.6523 160.1886 L 102.4505 161.049 L 102.3217 163.7094 L 107.5437 162.7614 L 107.6523 160.1886 Z " stroke-width="0.40545296430512573"/>
        <path id="ID0.3221200187690556" fill="#61563F" stroke="none" stroke-linecap="round" d="M 105.5299 162.1428 L 104.8449 162.463 L 104.7513 164.0854 L 105.4957 163.7903 L 105.5299 162.1428 Z " stroke-width="0.4400648059527854"/>
        <path id="ID0.1420820001512766" fill="#BAA578" stroke="none" stroke-linecap="round" d="M 102.9982 165.6103 L 102.4743 164.2788 L 102.3933 166.412 L 107.245 165.5884 L 102.9982 165.6103 Z " stroke-width="0.40545296430512573"/>
      </g>
      <g id="ID0.6836685389280319">
        <path id="ID0.09357938077300787" fill="#857656" stroke="none" d="M 73.7247 161.4089 L 91.6952 161.7821 L 91.5618 168.2086 L 73.5913 167.8354 L 73.7247 161.4089 Z " stroke-width="0.42833206411122815"/>
        <path id="ID0.6492703901603818" fill="#7C6E50" stroke="none" stroke-linecap="round" d="M 74.3684 163.593 L 82.5158 166.8578 L 91.4106 163.9469 L 91.3221 168.2075 L 74.2799 167.8536 L 74.3684 163.593 Z " stroke-width="0.4761425432043942"/>
        <g id="ID0.9254062357358634">
          <g id="ID0.49943465692922473">
            <path id="ID0.140373723115772" fill="#968561" stroke="none" d="M 90.1906 160.5517 L 95.308 160.6579 L 95.1202 169.7027 L 90.0028 169.5964 L 90.1906 160.5517 Z " stroke-width="0.4761425432043942"/>
            <path id="ID0.8286363878287375" fill="#BAA578" stroke="none" stroke-linecap="round" d="M 90.1728 160.3742 L 95.4043 160.721 L 91.2469 161.3966 L 90.1789 163.5176 L 90.1728 160.3742 Z " stroke-width="0.4761425432043942"/>
            <path id="ID0.7362233307212591" fill="#8A7B59" stroke="none" stroke-linecap="round" d="M 90.07 166.468 L 92.7825 166.572 L 95.2845 164.1951 L 95.1683 169.7885 L 90.0033 169.6813 L 90.07 166.468 Z " stroke-width="0.4761425432043942"/>
          </g>
          <g id="ID0.49943465692922473">
            <path id="ID0.140373723115772" fill="#968561" stroke="none" d="M 75.1483 160.4906 L 70.0309 160.3843 L 69.8431 169.4291 L 74.9605 169.5354 L 75.1483 160.4906 Z " stroke-width="0.4761425432043942"/>
            <path id="ID0.8286363878287375" fill="#BAA578" stroke="none" stroke-linecap="round" d="M 75.2093 160.3013 L 69.9679 160.4306 L 74.0936 161.2782 L 75.0726 163.4417 L 75.2093 160.3013 Z " stroke-width="0.4761425432043942"/>
            <path id="ID0.7362233307212591" fill="#8A7B59" stroke="none" stroke-linecap="round" d="M 75.0589 166.3941 L 72.3445 166.3854 L 69.9433 163.9066 L 69.8272 169.5001 L 74.9922 169.6074 L 75.0589 166.3941 Z " stroke-width="0.4761425432043942"/>
          </g>
        </g>
      </g>
    </g>
  </g>
  <g id="ID0.8333355090580881">
    <path id="ID0.9286923445761204" fill="#27282B" stroke="none" stroke-linecap="round" d="M 68.863 44.6601 L 87.6707 46.1361 L 88.1468 70.4908 L 103.3834 77.6329 L 80.5285 88.9889 L 43.8656 76.4426 L 63.7445 65.8484 L 68.863 44.6601 Z " stroke-width="0.4761425852775574"/>
    <path id="ID0.5448851804248989" fill="none" stroke="#1D1E1F" stroke-width="0.9522851705551147" stroke-linecap="round" d="M 65.1729 60.0871 L 63.935 65.658 L 81.0285 73.5143 L 87.8611 70.586 "/>
    <path id="ID0.262191956397146" fill="none" stroke="#1D1E1F" stroke-width="0.9522851705551147" stroke-linecap="round" d="M 67.9346 65.039 L 80.6476 71.2288 L 83.6473 70.1099 "/>
  </g>
  <g id="ID0.3450673264451325">
    <g id="ID0.9831569031812251">
      <path id="ID0.0877610077150166" fill="#2E3034" stroke="none" stroke-linecap="round" d="M 91.7251 13.8343 L 87.1527 0.7177 L 87.1527 29.2463 L 94.8241 29.2463 L 91.7251 13.8343 Z " stroke-width="0.5866066539949776"/>
      <path id="ID0.796130308881402" fill="#242628" stroke="none" stroke-linecap="round" d="M 92.033 13.8789 L 87.105 0.7623 L 90.6613 14.6004 L 91.6012 29.4877 L 94.7764 29.1926 L 92.033 13.8789 Z " stroke-width="0.5866066539949776"/>
    </g>
    <g id="ID0.9831569031812251">
      <path id="ID0.0877610077150166" fill="#2E3034" stroke="none" stroke-linecap="round" d="M 67.8249 13.9843 L 72.3973 0.8677 L 72.3973 29.3963 L 64.7259 29.3963 L 67.8249 13.9843 Z " stroke-width="0.5866066539949776"/>
      <path id="ID0.796130308881402" fill="#242628" stroke="none" stroke-linecap="round" d="M 67.417 14.0289 L 72.345 0.9123 L 68.7887 14.7504 L 67.6964 29.3098 L 64.6736 29.3426 L 67.417 14.0289 Z " stroke-width="0.5866066539949776"/>
    </g>
    <path id="ID0.8999492498114705" fill="#2E3034" stroke="none" stroke-linecap="round" d="M 85.3733 19.8124 C 89.7775 20.2915 94.5093 23.0019 96.6416 26.8848 C 99.0745 31.3179 97.1267 36.9165 97.4265 41.912 C 97.5997 43.6155 98.3923 45.3682 98.0615 46.9924 C 97.3879 50.2962 95.7139 53.3251 94.6323 56.5181 C 93.9236 58.6107 93.7691 60.9655 92.6001 62.8686 C 91.2843 65.1212 89.9416 68.2553 87.3419 68.711 C 83.488 69.3862 79.4115 67.5451 75.9619 65.7898 C 73.1281 64.3475 70.4746 62.1355 68.9002 59.3631 C 66.0806 54.2182 63.5196 48.5582 63.134 42.6741 C 62.7067 36.1514 61.9365 28.0853 66.6902 23.3687 C 70.9425 18.8273 78.8262 19.1032 85.3733 19.8124 Z " stroke-width="0.508037269115448"/>
    <path id="ID0.2441388238221407" fill="#AB8E85" stroke="none" d="M 83.0438 44.6745 C 87.1241 44.8416 92.5631 41.6768 95.2883 44.4234 C 97.7434 47.0142 94.3753 51.8755 93.4045 55.3492 C 92.4375 58.804 91.7493 62.5426 89.5114 65.3959 C 88.4439 66.6643 86.2186 66.7359 84.488 66.4634 C 81.3761 65.9698 78.3143 64.6864 75.7198 62.8955 C 73.0348 61.0432 69.487 59.0137 68.9156 55.7887 C 68.1923 51.7035 68.8566 46.3084 72.0552 43.7327 C 74.9889 41.4834 79.3743 44.5238 83.0438 44.6745 Z " stroke-width="1.2558400630950928"/>
    <path id="ID0.46721756737679243" fill="#A2887F" stroke="none" stroke-linecap="round" d="M 68.4363 45.7953 L 70.1129 46.4812 L 96.1244 46.1001 L 88.9102 51.1805 L 72.1704 48.7165 L 73.2881 51.1043 L 73.5421 56.7181 L 77.1746 63.9068 L 72.6023 57.2261 L 68.4363 45.7953 Z " stroke-width="0.508037269115448"/>
    <path id="ID0.8256730306893587" fill="none" stroke="#937B73" stroke-width="1.016074538230896" stroke-linecap="round" d="M 79.3886 57.5778 C 79.3886 57.5778 82.0878 56.9813 83.4529 56.7903 C 83.7943 56.7425 84.1326 56.8203 84.4689 56.8665 C 84.8109 56.9138 85.1401 57.0814 85.485 57.0697 C 86.1688 57.0469 86.8379 56.8497 87.5172 56.7649 C 87.854 56.7227 88.1939 56.6846 88.5332 56.6887 C 88.8731 56.6928 89.2181 56.7131 89.5493 56.7903 C 90.0939 56.9173 91.1496 57.2983 91.1496 57.2983 "/>
    <path id="ID0.7592270169407129" fill="none" stroke="#937B73" stroke-width="1.016074538230896" stroke-linecap="round" d="M 87.9693 58.9019 C 87.9693 58.9019 87.3475 59.2468 87.004 59.3083 C 86.6708 59.3682 86.3248 59.2235 85.988 59.2575 C 85.6491 59.292 85.3351 59.4688 84.9973 59.5115 C 84.6615 59.5542 84.3109 59.5867 83.9812 59.5115 C 83.7008 59.4475 83.2192 59.1051 83.2192 59.1051 "/>
    <path id="ID0.5332203092984855" fill="none" stroke="#937B73" stroke-width="1.016074538230896" stroke-linecap="round" d="M 82.0009 49.4532 C 82.0009 49.4532 81.3954 49.885 81.2897 50.2152 C 81.1525 50.6577 80.898 51.5026 81.3405 51.8156 C 81.9212 52.1056 82.6797 51.3786 83.3726 51.4345 C 84.0433 51.4914 85.354 51.9426 85.354 51.9426 "/>
    <path id="ID0.2278452254831791" fill="none" stroke="#937B73" stroke-width="1.016074538230896" stroke-linecap="round" d="M 86.3447 45.7953 C 86.3447 45.7953 87.2789 47.6578 87.7418 48.5895 C 87.8967 48.9015 88.0674 49.2073 88.199 49.5294 C 88.3306 49.8515 88.5429 50.1726 88.5292 50.5201 C 88.5155 50.8686 88.3092 51.1907 88.1228 51.4853 C 87.9983 51.6824 87.6148 51.968 87.6148 51.968 "/>
    <path id="ID0.6473136460408568" fill="none" stroke="#937B73" stroke-width="1.016074563998663" stroke-linecap="round" d="M 86.6945 62.7247 C 86.6945 62.7247 87.0113 63.3595 87.0622 63.7041 C 87.1113 64.0396 87.0513 64.3871 86.9877 64.7203 C 86.8923 65.2223 86.5871 66.2015 86.5871 66.2015 "/>
    <path id="ID0.11669129692018032" fill="#2E3034" stroke="none" stroke-linecap="round" d="M 70.3669 40.4609 L 93.6096 42.239 L 97.5469 44.9062 L 88.1482 49.6056 L 67.4457 47.0654 L 70.3669 40.4609 Z " stroke-width="0.508037269115448"/>
    <path id="ID0.14635155349969864" fill="#2E3034" stroke="none" stroke-linecap="round" d="M 67.6997 45.7191 L 69.554 46.1001 L 72.1958 51.3075 L 72.5006 57.0737 L 74.3296 60.884 L 77.2254 64.4149 L 68.9952 59.2075 L 67.6997 45.7191 Z " stroke-width="0.508037269115448"/>
    <path id="ID0.28340246016159654" fill="#1C1D1F" stroke="none" stroke-linecap="round" d="M 70.5308 37.3008 L 73.9604 38.8401 L 83.6283 39.7313 L 83.6283 45.4834 L 76.688 44.5382 L 72.8262 43.458 L 70.8008 41.9457 L 69.9367 40.2174 L 70.5308 37.3008 Z " stroke-width="0.5401026606559753"/>
    <path id="ID0.6101007834076881" fill="#FFFFFF" stroke="none" stroke-linecap="round" d="M 74.3473 39.8334 L 76.0001 40.2332 L 79.78 41.4344 L 80.3247 43.4027 L 75.07 41.9498 L 74.3473 39.8334 Z " stroke-width="0.4061061920009203"/>
    <path id="ID0.28340246016159654" fill="#1C1D1F" stroke="none" stroke-linecap="round" d="M 96.1357 37.3586 L 93.0774 38.7313 L 84.4563 39.5259 L 84.4563 44.6553 L 90.6452 43.8124 L 94.0888 42.8492 L 95.8949 41.5006 L 96.6655 39.9594 L 96.1357 37.3586 Z " stroke-width="0.4816249907016754"/>
    <path id="ID0.6101007834076881" fill="#FFFFFF" stroke="none" stroke-linecap="round" d="M 94.4526 39.4089 L 92.9112 39.9003 L 89.4053 41.2963 L 89.0217 43.2012 L 93.9101 41.4663 L 94.4526 39.4089 Z " stroke-width="0.3863867372519633"/>
    <g id="ID0.07940126257017255">
      <path id="ID0.46257128613069654" fill="#27282B" stroke="none" stroke-linecap="round" d="M 83.8045 39.5743 L 88.1482 49.5318 L 78.1145 48.2617 L 83.8045 39.5743 Z " stroke-width="0.508037269115448"/>
      <path id="ID0.9845890481956303" fill="#27282B" stroke="none" stroke-linecap="round" d="M 84.6173 39.6989 L 92.8983 47.0654 L 88.2244 49.6056 L 84.6173 39.6989 Z " stroke-width="0.508037269115448"/>
    </g>
    <path id="ID0.20071752788498998" fill="#202324" stroke="none" d="M 75.3686 35.0018 L 79.5091 37.5673 L 84.2593 38.7358 L 84.3355 40.1329 L 76.5625 38.8628 L 70.6693 36.5259 L 72.3966 34.7477 L 75.3686 35.0018 Z " stroke-width="0.508037269115448"/>
    <path id="ID0.20071752788498998" fill="#202324" stroke="none" d="M 92.4242 34.7614 L 89.3713 37.2084 L 84.1277 38.7698 L 84.0578 40.0516 L 91.1891 38.8864 L 96.6191 36.8588 L 95.081 34.6216 L 92.4242 34.7614 Z " stroke-width="0.46609798073768616"/>
    <path id="ID0.521138689480722" fill="none" stroke="#212325" stroke-width="0.9060627222061157" stroke-linecap="round" d="M 96.2139 37.0742 L 92.9747 38.6598 L 84.4351 39.9057 "/>
    <path id="ID0.17828734638169408" fill="none" stroke="#202324" stroke-width="1.016074538230896" stroke-linecap="round" d="M 88.0466 49.0467 L 85.1254 41.8072 C 84.1245 39.3879 84.2729 39.9564 84.0839 38.9876 C 84.0179 38.6493 84.2358 38.3129 84.2871 37.9715 C 84.3374 37.6352 84.4014 37.2953 84.3887 36.9555 C 84.376 36.612 84.2769 36.2762 84.2109 35.9394 C 84.1078 35.4136 83.8807 34.3645 83.8807 34.3645 "/>
    <path id="ID0.521138689480722" fill="none" stroke="#212325" stroke-width="1.016074538230896" stroke-linecap="round" d="M 70.8068 36.8055 L 74.4392 38.5836 L 84.0157 39.9807 "/>
    <path id="ID0.8012696979567409" fill="none" stroke="url(#grad_1)" stroke-width="1.016074538230896" stroke-linecap="round" d="M 96.1244 45.6429 L 88.6562 49.5548 L 70.0621 47.2178 L 72.0434 51.0789 L 72.3482 57.1753 L 74.2788 60.7824 L 77.1746 64.4149 "/>
    <path id="ID0.043594349175691605" fill="#D7E2FD" stroke="none" stroke-linecap="round" d="M 79.5289 42.4677 L 79.7575 41.35 L 80.2656 43.4075 L 77.6746 42.6709 L 79.5289 42.4677 Z " stroke-width="0.508037269115448"/>
    <path id="ID0.043594349175691605" fill="#D7E2FD" stroke="none" stroke-linecap="round" d="M 89.7225 42.3348 L 89.4574 41.3321 L 89.1024 43.2258 L 91.4161 42.4236 L 89.7225 42.3348 Z " stroke-width="0.4618642652203811"/>
  </g>
  <g id="ID0.7049301471561193">
    <path id="ID0.05466862628236413" fill="#303436" stroke="none" stroke-linecap="round" d="M 50.2472 233.3077 L 76.9053 231.2247 L 70.7834 249.711 L 68.8767 254.6356 L 67.079 272.6889 L 61.1791 313.012 L 45.4145 313.8436 L 44.7067 291.6056 L 42.5581 282.8086 L 41.8578 273.315 L 44.8339 259.9755 L 45.6568 247.6819 L 50.2472 233.3077 Z " stroke-width="0.7305889985687658"/>
    <path id="ID0.4490455654449761" fill="none" stroke="#272A2B" stroke-width="1.658552358865696" stroke-linecap="round" d="M 50.1076 234.1867 L 76.7814 231.7175 L 68.3805 255.619 "/>
    <path id="ID0.10446935473009944" fill="none" stroke="#242728" stroke-width="1.658552358865696" stroke-linecap="round" d="M 67.2189 267.9011 L 65.9303 284.6901 L 54.9163 291.3068 "/>
    <path id="ID0.42170455446466804" fill="none" stroke="#242728" stroke-width="1.658552358865696" stroke-linecap="round" d="M 64.7524 285.7779 L 62.2931 300.7096 L 51.0465 307.5048 "/>
    <path id="ID0.047098892275244" fill="none" stroke="#242728" stroke-width="1.658552358865696" stroke-linecap="round" d="M 46.0297 248.1086 L 45.2948 251.9796 L 49.19 261.1152 "/>
  </g>
  <g id="ID0.7397577832452953">
    <path id="ID0.6726378230378032" fill="#393C40" stroke="none" stroke-linecap="round" d="M 39.329 129.1922 L 56.224 121.4882 L 57.584 123.499 L 40.7989 130.7772 L 39.329 129.1922 Z " stroke-width="0.8164594632358481"/>
    <path id="ID0.6507829907350242" fill="#1D1E1F" stroke="none" stroke-linecap="round" d="M 38.2696 132.5789 L 57.7285 123.3133 L 72.7907 134.8734 L 80.1401 142.7986 L 93.1401 152.3389 L 98.7682 155.7097 L 93.2888 166.6262 L 87.9022 162.9263 L 78.9165 158.6107 L 67.1879 153.5479 L 58.3668 149.3531 L 38.2696 132.5789 Z " stroke-width="0.8164594632358481"/>
    <path id="ID0.6829322893172503" fill="#1D1E1F" stroke="none" stroke-linecap="round" d="M 92.7181 166.7138 L 94.7631 155.3023 L 101.1384 155.93 L 108.3258 156.141 L 112.9334 159.5224 L 116.3559 162.7936 L 117.6167 166.2506 L 122.2017 171.3877 L 119.2596 175.0518 L 116.8894 174.8315 L 115.7588 176.0272 L 111.6873 177.0902 L 107.166 178.0762 L 102.3381 177.065 L 97.0616 172.18 L 92.7181 166.7138 Z " stroke-width="0.8164594632358481"/>
    <path id="ID0.47767175547778606" fill="none" stroke="#0D0D0D" stroke-width="1.6329189264716961" stroke-linecap="round" d="M 41.462 134.9217 L 38.3399 132.2761 L 57.6801 123.3791 L 68.7756 131.9267 "/>
    <path id="ID0.5922487881034613" fill="#282A2B" stroke="none" stroke-linecap="round" d="M 65.1218 153.5102 L 64.7585 144.4834 L 68.4472 139.595 L 76.9235 138.1188 L 88.1566 148.1347 L 91.4677 156.3878 L 89.4147 159.1852 L 79.8677 159.7745 L 65.1218 153.5102 Z " stroke-width="0.8164594632358481"/>
    <path id="ID0.36820242274552584" fill="#151616" stroke="none" stroke-linecap="round" d="M 71.0875 150.008 L 76.0454 143.1141 L 83.7324 152.0973 L 82.7729 153.2668 L 71.0875 150.008 Z " stroke-width="0.8164594632358481"/>
    <path id="ID0.13569410238415003" fill="none" stroke="#232425" stroke-width="1.6329189264716961" stroke-linecap="round" d="M 79.514 157.1756 L 88.6878 156.8189 L 85.8553 148.2587 "/>
    <path id="ID0.024502143263816833" fill="none" stroke="#0D0D0D" stroke-width="1.6329189264716961" stroke-linecap="round" d="M 65.1734 152.981 L 64.6386 144.7399 L 68.0157 139.7241 L 76.5403 138.182 L 82.9203 143.9781 "/>
  </g>
</svg>