<svg xmlns="http://www.w3.org/2000/svg" xmlns:xlink="http://www.w3.org/1999/xlink" version="1.1" width="433.1469443107726" height="190.09572055588978" viewBox="1.7015336620270274 7.101433621591236 433.1469443107726 190.09572055588978">
  <!-- Exported by Scratch - http://scratch.mit.edu/ -->
  <g id="ID0.6008762675337493">
    <g id="ID0.13380952645093203">
      <path id="ID0.7927394988946617" fill="#0D0D0D" stroke="#0D0D0D" stroke-width="1.0677579463861724" stroke-linecap="round" d="M 307.6584 77.2634 L 324.6964 75.5984 L 337.4806 83.5514 L 356.3903 77.3656 L 370.6926 70.819 L 378.4271 65.0461 L 434.1465 57.2347 L 426.5941 62.4699 L 418.3674 70.4735 L 414.0945 79.2161 L 406.5464 80.557 L 402.8497 81.8529 L 397.3666 84.3123 L 392.4215 87.4333 L 386.8879 91.2841 L 383.498 94.0024 L 379.7324 98.4516 L 377.5865 101.5311 L 375.6043 107.5428 L 374.8046 112.1568 L 374.7229 117.1336 L 379.7186 127.2152 L 368.8744 123.5448 L 360.0736 122.454 L 354.0633 122.6672 L 349.3363 123.8242 L 343.5331 125.3662 L 340.312 128.0517 L 339.8564 133.2017 L 343.0693 147.7743 L 330.0704 140.3779 L 322.2239 137.6322 L 316.5425 135.7092 L 311.1662 135.0583 L 304.5521 135.0372 L 300.4244 135.5879 L 294.3362 137.2732 L 288.8069 138.9377 L 283.5909 142.6263 L 278.911 153.6584 L 272.6678 144.6229 L 267.9633 141.8319 L 260.8434 141.5198 L 254.9621 141.507 L 248.946 142.0478 L 236.4578 145.2528 L 249.0673 78.499 L 307.6584 77.2634 Z "/>
      <g id="ID0.5249647456221282">
        <g id="ID0.17693647183477879">
          <path id="ID0.7729651997797191" fill="#3E4246" stroke="none" stroke-linecap="round" d="M 254.1809 72.0152 L 255.6345 89.36 L 270.1235 85.8659 L 281.8216 83.1384 L 286.6571 79.6915 L 289.5709 76.6401 L 286.3373 65.8314 L 281.221 64.7207 L 264.1367 69.8545 L 254.1809 72.0152 Z " stroke-width="0.7019664301643495"/>
          <path id="ID0.9716172609478235" fill="#393C40" stroke="none" stroke-linecap="round" d="M 259.2813 75.4785 L 257.1489 71.3148 L 251.5719 73.0585 L 260.2802 88.34 L 262.8169 85.6834 L 264.3217 80.9092 L 259.2813 75.4785 Z " stroke-width="0.7019664301643495"/>
          <g id="ID0.38066427363082767">
            <path id="ID0.4757494777441025" fill="#1D1E1F" stroke="none" stroke-linecap="round" d="M 232.8359 80.4624 L 231.1642 87.8717 L 235.6756 101.4852 L 257.4083 93.9201 L 261.5001 84.9194 L 262.3312 81.0101 L 260.2211 78.2948 L 257.6065 75.8983 L 255.2423 71.0391 L 250.5334 71.0454 L 243.59 71.8199 L 236.4917 74.7477 L 232.8359 80.4624 Z " stroke-width="0.4093724796244285"/>
            <path id="ID0.6007084371522069" fill="none" stroke="#0D0D0D" stroke-width="0.818744959248857" stroke-linecap="round" d="M 255.5586 71.4413 L 257.6042 75.796 L 260.861 79.4062 L 262.4335 81.0078 L 261.5001 84.9194 L 259.6435 88.75 "/>
          </g>
        </g>
        <g id="ID0.7397577832452953">
          <path id="ID0.6726378230378032" fill="#393C40" stroke="none" stroke-linecap="round" d="M 279.2464 66.0755 L 286.2088 80.4419 L 288.212 79.8563 L 281.0889 65.832 L 279.2464 66.0755 Z " stroke-width="0.7019664180816153"/>
          <path id="ID0.6507829907350242" fill="#1D1E1F" stroke="none" stroke-linecap="round" d="M 280.3368 63.2738 L 288.1405 80.0804 L 304.4537 80.6858 L 313.6664 79.4684 L 327.5064 80.2803 L 333.0817 81.1348 L 335.44 70.9013 L 329.8442 70.3972 L 321.5275 68.3272 L 310.9848 65.2476 L 302.8434 63.1878 L 280.3368 63.2738 Z " stroke-width="0.7019664180816153"/>
          <path id="ID0.6829322893172503" fill="#1D1E1F" stroke="none" stroke-linecap="round" d="M 335.1102 70.5304 L 330.2062 79.2081 L 334.7719 82.2887 L 339.6469 86.0905 L 344.5522 86.3783 L 348.6124 86.0891 L 351.3431 84.4914 L 357.1963 83.6042 L 357.2575 79.5646 L 355.5673 78.4107 L 355.4743 76.9989 L 353.3613 74.0622 L 350.9081 70.9298 L 347.1567 68.9518 L 340.9839 69.2928 L 335.1102 70.5304 Z " stroke-width="0.7019664180816153"/>
          <path id="ID0.47767175547778606" fill="none" stroke="#0D0D0D" stroke-width="1.4039328361632306" stroke-linecap="round" d="M 283.7355 63.4732 L 280.2173 63.5129 L 288.1446 80.0103 L 300.1791 80.4351 "/>
          <path id="ID0.5922487881034613" fill="#282A2B" stroke="none" stroke-linecap="round" d="M 309.5794 64.1646 L 304.3885 69.9425 L 304.1503 75.2023 L 308.9534 80.8282 L 321.8843 80.3563 L 328.6027 76.7072 L 328.7774 73.729 L 322.7789 68.1032 L 309.5794 64.1646 Z " stroke-width="0.7019664180816153"/>
          <path id="ID0.36820242274552584" fill="#151616" stroke="none" stroke-linecap="round" d="M 311.6298 69.6049 L 311.1321 76.8887 L 321.1485 75.1558 L 321.1545 73.8553 L 311.6298 69.6049 Z " stroke-width="0.7019664180816153"/>
          <path id="ID0.13569410238415003" fill="none" stroke="#232425" stroke-width="1.4039328361632306" stroke-linecap="round" d="M 321.1361 69.6051 L 327.0151 74.8722 L 320.4451 78.9871 "/>
          <path id="ID0.024502143263816833" fill="none" stroke="#0D0D0D" stroke-width="1.4039328361632306" stroke-linecap="round" d="M 309.34 64.5182 L 304.4664 69.6819 L 303.952 74.8552 L 308.751 80.5512 L 316.1542 80.212 "/>
        </g>
      </g>
    </g>
    <g id="ID0.13380952645093203">
      <path id="ID0.7927394988946617" fill="#0D0D0D" stroke="#0D0D0D" stroke-width="1.0677579463861724" stroke-linecap="round" d="M 128.8916 75.5134 L 111.8536 73.8484 L 99.0694 81.8014 L 80.1597 75.6156 L 65.8574 69.069 L 58.1229 63.2961 L 2.4035 55.4847 L 9.9559 60.7199 L 18.1826 68.7235 L 22.4555 77.4661 L 30.0036 78.807 L 33.7003 80.1029 L 39.1834 82.5623 L 44.1285 85.6833 L 49.6621 89.5341 L 53.052 92.2524 L 56.8176 96.7016 L 58.9635 99.7811 L 60.9457 105.7928 L 61.7454 110.4068 L 61.8271 115.3836 L 56.8314 125.4652 L 67.6756 121.7948 L 76.4764 120.704 L 82.4867 120.9172 L 87.2137 122.0742 L 93.0169 123.6162 L 96.238 126.3017 L 96.6936 131.4517 L 93.4807 146.0243 L 106.4796 138.6279 L 114.3261 135.8822 L 120.0075 133.9592 L 125.3838 133.3083 L 131.9979 133.2872 L 136.1256 133.8379 L 142.2138 135.5232 L 147.7431 137.1877 L 152.9591 140.8763 L 157.639 151.9084 L 163.8822 142.8729 L 168.5867 140.0819 L 175.7066 139.7698 L 181.5879 139.757 L 187.604 140.2978 L 200.0922 143.5028 L 187.4827 76.749 L 128.8916 75.5134 Z "/>
      <g id="ID0.5249647456221282">
        <g id="ID0.17693647183477879">
          <path id="ID0.7729651997797191" fill="#3E4246" stroke="none" stroke-linecap="round" d="M 182.3691 70.2652 L 180.9155 87.61 L 166.4265 84.1159 L 154.7284 81.3884 L 149.8929 77.9415 L 146.9791 74.8901 L 150.2127 64.0814 L 155.329 62.9707 L 172.4133 68.1045 L 182.3691 70.2652 Z " stroke-width="0.7019664301643495"/>
          <path id="ID0.9716172609478235" fill="#393C40" stroke="none" stroke-linecap="round" d="M 177.2687 73.7285 L 179.4011 69.5648 L 184.9781 71.3085 L 176.2698 86.59 L 173.7331 83.9334 L 172.2283 79.1592 L 177.2687 73.7285 Z " stroke-width="0.7019664301643495"/>
          <g id="ID0.38066427363082767">
            <path id="ID0.4757494777441025" fill="#1D1E1F" stroke="none" stroke-linecap="round" d="M 203.6641 78.7624 L 205.3358 86.1717 L 200.8244 99.7852 L 179.0917 92.2201 L 174.9999 83.2194 L 174.1688 79.3101 L 176.2789 76.5948 L 178.8935 74.1983 L 181.2577 69.3391 L 185.9666 69.3454 L 192.91 70.1199 L 200.0083 73.0477 L 203.6641 78.7624 Z " stroke-width="0.4093724796244285"/>
            <path id="ID0.6007084371522069" fill="none" stroke="#0D0D0D" stroke-width="0.818744959248857" stroke-linecap="round" d="M 180.9414 69.7413 L 178.8958 74.096 L 175.639 77.7062 L 174.0665 79.3078 L 174.9999 83.2194 L 176.8565 87.05 "/>
          </g>
        </g>
        <g id="ID0.7397577832452953">
          <path id="ID0.6726378230378032" fill="#393C40" stroke="none" stroke-linecap="round" d="M 157.3036 64.3255 L 150.3412 78.6919 L 148.338 78.1063 L 155.4611 64.082 L 157.3036 64.3255 Z " stroke-width="0.7019664180816153"/>
          <path id="ID0.6507829907350242" fill="#1D1E1F" stroke="none" stroke-linecap="round" d="M 156.2132 61.5238 L 148.4095 78.3304 L 132.0963 78.9358 L 122.8836 77.7184 L 109.0436 78.5303 L 103.4683 79.3848 L 101.11 69.1513 L 106.7058 68.6472 L 115.0225 66.5772 L 125.5652 63.4976 L 133.7066 61.4378 L 156.2132 61.5238 Z " stroke-width="0.7019664180816153"/>
          <path id="ID0.6829322893172503" fill="#1D1E1F" stroke="none" stroke-linecap="round" d="M 101.4398 68.7804 L 106.3438 77.4581 L 101.7781 80.5387 L 96.9031 84.3405 L 91.9978 84.6283 L 87.9376 84.3391 L 85.2069 82.7414 L 79.3537 81.8542 L 79.2925 77.8146 L 80.9827 76.6607 L 81.0757 75.2489 L 83.1887 72.3122 L 85.6419 69.1798 L 89.3933 67.2018 L 95.5661 67.5428 L 101.4398 68.7804 Z " stroke-width="0.7019664180816153"/>
          <path id="ID0.47767175547778606" fill="none" stroke="#0D0D0D" stroke-width="1.4039328361632306" stroke-linecap="round" d="M 152.8145 61.7232 L 156.3327 61.7629 L 148.4054 78.2603 L 136.3709 78.6851 "/>
          <path id="ID0.5922487881034613" fill="#282A2B" stroke="none" stroke-linecap="round" d="M 126.9206 62.4146 L 132.1115 68.1925 L 132.3497 73.4523 L 127.5466 79.0782 L 114.6157 78.6063 L 107.8973 74.9572 L 107.7226 71.979 L 113.7211 66.3532 L 126.9206 62.4146 Z " stroke-width="0.7019664180816153"/>
          <path id="ID0.36820242274552584" fill="#151616" stroke="none" stroke-linecap="round" d="M 124.9202 67.9049 L 125.4179 75.1887 L 115.4015 73.4558 L 115.3955 72.1553 L 124.9202 67.9049 Z " stroke-width="0.7019664180816153"/>
          <path id="ID0.13569410238415003" fill="none" stroke="#232425" stroke-width="1.4039328361632306" stroke-linecap="round" d="M 115.4139 67.8551 L 109.5349 73.1222 L 116.1049 77.2371 "/>
          <path id="ID0.024502143263816833" fill="none" stroke="#0D0D0D" stroke-width="1.4039328361632306" stroke-linecap="round" d="M 127.21 62.7682 L 132.0836 67.9319 L 132.598 73.1052 L 127.799 78.8012 L 120.3958 78.462 "/>
        </g>
      </g>
    </g>
    <path id="ID0.7987830764614046" fill="#393D40" stroke="none" stroke-linecap="round" d="M 231.9337 173.4996 L 235.4384 165.5268 L 240.4176 145.7641 L 220.9647 152.0761 L 217.6904 162.1348 L 217.0651 172.4966 L 215.1009 184.8128 L 216.0004 190.0345 L 219.9501 184.4898 L 225.9181 179.5195 L 231.9337 173.4996 Z " stroke-width="0.8076105856908047"/>
    <path id="ID0.4270821204409003" fill="#3E4246" stroke="none" stroke-linecap="round" d="M 218.9417 158.0159 L 218.7233 73.8948 L 233.7986 74.4507 L 239.9199 78.7358 L 241.8864 82.111 L 247.7194 90.7433 L 246.9184 98.5455 L 246.0021 102.6149 L 247.3114 107.7903 L 247.6229 111.8819 L 245.6579 116.9983 L 244.1729 120.8799 L 242.9839 127.7868 L 239.3153 150.1934 L 235.0911 154.7539 L 218.9417 158.0159 Z " stroke-width="0.3832522701189328"/>
    <path id="ID0.4270821204409003" fill="#3E4246" stroke="none" stroke-linecap="round" d="M 219.0083 158.0159 L 219.2267 73.8948 L 203.6726 74.1218 L 198.0843 78.4328 L 196.0636 82.111 L 190.2306 90.7433 L 191.0316 98.5455 L 191.9479 102.6149 L 190.6386 107.7903 L 190.3271 111.8819 L 192.2921 116.9983 L 193.7771 120.8799 L 194.9661 127.7868 L 198.6347 150.1934 L 202.8589 154.7539 L 219.0083 158.0159 Z " stroke-width="0.3832522701189328"/>
    <path id="ID0.052435632329434156" fill="#393C40" stroke="none" stroke-linecap="round" d="M 201.9579 130.7316 L 205.7839 130.836 L 211.3938 133.3887 L 215.7557 133.3429 L 220.7784 134.7658 L 228.4205 133.6777 L 233.9473 131.1481 L 238.1182 131.3831 L 239.5764 133.7544 L 230.925 136.814 L 225.8145 136.4909 L 220.951 138.6772 L 215.2839 135.9459 L 209.7509 136.166 L 201.3263 133.1718 L 201.9579 130.7316 Z " stroke-width="0.3832522701189328"/>
    <path id="ID0.4987568911164999" fill="none" stroke="#27282B" stroke-width="0.8187449985414065" stroke-linecap="round" d="M 203.3742 73.6254 L 197.7384 78.8314 L 193.0019 87.0655 "/>
    <path id="ID0.2889464790932834" fill="none" stroke="#27282B" stroke-width="0.8187449985414065" stroke-linecap="round" d="M 235.2847 74.9354 L 240.1281 78.3117 L 244.8738 86.3947 "/>
    <path id="ID0.8373676878400147" fill="#000000" stroke="#2C2F31" stroke-width="0.5003219865051398" stroke-linecap="round" d="M 206.0574 84.4247 L 206.374 83.2634 L 203.2341 83.8876 L 199.0194 86.3445 L 195.4081 90.1212 L 193.2323 94.3731 L 197.6748 92.7491 L 201.7138 92.7526 L 204.0641 93.5037 L 206.2117 95.8324 L 208.0326 95.0908 L 211.482 94.9505 L 215.3496 95.8279 L 218.6155 98.324 L 220.364 100.6938 L 222.2527 98.4271 L 225.4683 96.1021 L 229.023 95.085 L 233.4559 95.1648 L 235.0236 95.6459 L 236.5184 93.303 L 238.2149 92.3795 L 240.4461 92.8314 L 242.839 94.1133 L 241.6453 91.1806 L 239.7272 88.1568 L 237.3152 85.8162 L 234.6128 84.0504 L 230.74 83.2903 L 232.5937 84.7833 L 232.5337 86.1323 L 231.1389 87.7157 L 228.0546 88.5774 L 225.3321 88.7501 L 223.08 88.7673 L 221.5246 85.6304 L 220.5524 87.5382 L 219.2968 87.4823 L 217.9899 85.6023 L 217.1194 88.7958 L 213.6091 88.8158 L 210.0693 88.0118 L 207.206 86.8853 L 206.0574 84.4247 Z "/>
    <path id="ID0.5698574706912041" fill="none" stroke="#313537" stroke-width="0.7665045402378656" stroke-linecap="round" d="M 201.4995 130.6062 L 200.9305 132.9942 L 209.3488 136.2547 L 215.1875 136.0935 L 220.3485 138.5847 "/>
    <path id="ID0.5698574706912041" fill="none" stroke="#313537" stroke-width="0.7120922798284232" stroke-linecap="round" d="M 238.1982 131.4812 L 238.8361 133.9087 L 230.1635 136.8436 L 225.0856 136.4856 L 220.4792 138.8009 "/>
    <path id="ID0.8947288258932531" fill="#393C40" stroke="none" stroke-linecap="round" d="M 202.3883 121.7123 L 208.4274 121.7323 L 214.8806 123.2697 L 219.6525 127.4772 L 213.6323 124.1 L 204.4093 122.8146 L 199.9555 124.9905 L 202.3883 121.7123 Z " stroke-width="0.3832522701189328"/>
    <path id="ID0.9897695370018482" fill="#393C40" stroke="none" stroke-linecap="round" d="M 205.1368 130.9108 L 199.5176 130.4542 L 199.9689 126.9982 L 200.9296 129.6269 L 205.3064 129.8124 L 210.5237 132.5178 L 215.2368 132.3363 L 218.7312 133.4652 L 220.0583 127.6266 L 220.0879 134.9463 L 215.3145 133.3681 L 210.2599 133.277 L 205.1368 130.9108 Z " stroke-width="0.3832522701189328"/>
    <path id="ID0.9214867809787393" fill="#393C40" stroke="none" stroke-linecap="round" d="M 202.4576 118.8178 L 205.0909 115.7209 L 209.2007 115.0843 L 204.102 118.5455 L 203.8451 120.7259 L 208.1826 120.8396 L 215.1445 123.3633 L 207.4635 121.8037 L 202.4293 121.713 L 202.4576 118.8178 Z " stroke-width="0.3832522701189328"/>
    <path id="ID0.8679121839813888" fill="#2C2F31" stroke="none" stroke-linecap="round" d="M 216.4173 104.3955 L 219.6627 105.662 L 222.557 104.4884 L 223.3586 105.2134 L 219.9344 107.1414 L 215.022 105.383 L 216.4173 104.3955 Z " stroke-width="0.3832522701189328"/>
    <path id="ID0.20603158557787538" fill="none" stroke="#313537" stroke-width="0.7665045402378656" stroke-linecap="round" d="M 190.7711 98.1005 L 197.3333 103.6371 L 207.9173 106.2261 L 214.1695 105.8946 L 219.5603 103.0605 "/>
    <path id="ID0.24770551454275846" fill="none" stroke="#363A3D" stroke-width="0.7665044807941204" stroke-linecap="round" d="M 194.5772 123.7403 L 203.1469 121.5319 "/>
    <path id="ID0.24770551454275846" fill="none" stroke="#363A3D" stroke-width="0.7665044807941204" stroke-linecap="round" d="M 192.1777 114.8002 L 209.8469 110.4819 "/>
    <path id="ID0.753661650698632" fill="none" stroke="#313537" stroke-width="0.7665044807941204" stroke-linecap="round" d="M 215.1678 105.279 L 219.6274 107.1359 L 223.1531 105.2452 "/>
    <g id="ID0.8167418288066983">
      <path id="ID0.9553722990676761" fill="none" stroke="#313537" stroke-width="0.8474043621513785" stroke-linecap="round" d="M 220.0139 118.3965 L 215.2275 116.7114 L 209.9544 115.1952 L 205.8364 115.8316 L 202.7445 118.9735 L 202.6829 121.5484 "/>
      <path id="ID0.5982440118677914" fill="none" stroke="#313537" stroke-width="0.6991050133003093" stroke-linecap="round" d="M 210.2429 114.9337 L 209.3142 110.9671 L 213.9423 105.784 "/>
    </g>
    <path id="ID0.04993448918685317" fill="none" stroke="#313537" stroke-width="0.7665044807941204" stroke-linecap="round" d="M 219.8295 106.9971 L 220.2565 114.8214 L 220.3726 127.0813 L 220.2861 139.2487 "/>
    <path id="ID0.9286923445761204" fill="#27282B" stroke="none" stroke-linecap="round" d="M 208.9565 43.6025 L 225.1267 44.8715 L 219.0066 61.1031 L 219.2727 81.5513 L 187.4644 70.9281 L 204.5557 61.8195 L 208.9565 43.6025 Z " stroke-width="0.4093725085258484"/>
    <path id="ID0.9286923445761204" fill="#27282B" stroke="none" stroke-linecap="round" d="M 228.7435 43.8525 L 212.5733 45.1215 L 218.6934 61.3531 L 219.2461 81.699 L 250.2356 71.1781 L 233.1443 62.0695 L 228.7435 43.8525 Z " stroke-width="0.4093725085258484"/>
    <path id="ID0.20603158557787538" fill="none" stroke="#313537" stroke-width="0.7665045402378656" stroke-linecap="round" d="M 246.4554 97.962 L 242.0667 103.6371 L 231.4827 106.2261 L 225.2305 105.8946 L 219.8397 103.0605 "/>
    <path id="ID0.24770551454275846" fill="none" stroke="#363A3D" stroke-width="0.7665044807941204" stroke-linecap="round" d="M 243.3418 123.743 L 238.1031 122.1319 "/>
    <path id="ID0.24770551454275846" fill="none" stroke="#363A3D" stroke-width="0.7665044807941204" stroke-linecap="round" d="M 246.271 114.9683 L 231.2531 111.0819 "/>
    <path id="ID0.8947288258932531" fill="#393C40" stroke="none" stroke-linecap="round" d="M 237.393 122.3235 L 230.6483 122.4323 L 224.4479 123.9697 L 219.863 128.1772 L 225.6473 124.8 L 234.509 123.5146 L 238.7883 125.6905 L 237.393 122.3235 Z " stroke-width="0.37476226922264394"/>
    <path id="ID0.9897695370018482" fill="#393C40" stroke="none" stroke-linecap="round" d="M 233.9556 131.3311 L 239.0977 130.8794 L 238.6806 127.4231 L 237.8045 130.0509 L 233.7991 130.2326 L 229.0275 132.9336 L 224.7138 132.748 L 221.5172 133.8738 L 220.2957 128.0343 L 220.2773 135.3538 L 224.644 133.7797 L 229.2698 133.6929 L 233.9556 131.3311 Z " stroke-width="0.36506249230694493"/>
    <path id="ID0.9214867809787393" fill="#393C40" stroke="none" stroke-linecap="round" d="M 237.4342 119.1178 L 234.9041 116.0209 L 230.9553 115.3843 L 235.8543 118.8455 L 236.1011 121.0259 L 231.9335 121.1396 L 225.2444 123.6633 L 232.6245 122.1037 L 237.4615 122.013 L 237.4342 119.1178 Z " stroke-width="0.37476226922264394"/>
    <path id="ID0.3567589442245662" fill="none" stroke="#313537" stroke-width="0.715298405668949" stroke-linecap="round" d="M 220.1135 127.5726 L 224.6121 123.9408 L 230.8626 122.348 L 237.5321 122.0596 L 239.0231 126.7231 L 239.24 131.2038 L 234.0606 131.6789 L 227.9697 134.1273 L 224.753 133.8562 L 220.0937 135.1757 L 215.1165 133.2207 L 210.3065 133.3116 L 204.836 130.9036 L 199.431 130.2733 L 199.8444 125.0401 L 202.1232 121.6169 L 207.5229 121.7142 L 214.6525 123.2639 L 219.5675 127.0654 Z "/>
    <g id="ID0.8167418288066983">
      <path id="ID0.9553722990676761" fill="none" stroke="#313537" stroke-width="0.8474043621513785" stroke-linecap="round" d="M 220.3361 118.4465 L 225.1225 116.7614 L 230.3956 115.2452 L 234.5136 115.8816 L 237.6055 119.0235 L 237.6671 121.5984 "/>
      <path id="ID0.5982440118677914" fill="none" stroke="#313537" stroke-width="0.6991050133003093" stroke-linecap="round" d="M 230.1071 114.9337 L 231.0358 110.9671 L 226.4077 105.784 "/>
    </g>
    <g id="ID0.2217248771339655">
      <path id="ID0.2888958193361759" fill="#393C40" stroke="none" stroke-linecap="round" d="M 204.0519 137.5136 L 211.3276 138.9387 L 210.8589 140.7404 L 203.5832 139.3154 L 204.0519 137.5136 Z " stroke-width="0.31859408970350034"/>
      <g id="ID0.8823104286566377">
        <path id="ID0.2888958193361759" fill="#393C40" stroke="none" stroke-linecap="round" d="M 196.407 136.1626 L 204.5776 137.8387 L 204.1089 139.6404 L 196.3075 138.0215 L 196.407 136.1626 Z " stroke-width="0.31859408970350034"/>
        <g id="ID0.36424446757882833">
          <path id="ID0.7359844641759992" fill="#8A7B59" stroke="none" d="M 206.1122 137.1571 L 207.2018 137.1767 L 207.1092 141.0474 L 206.0196 141.0277 L 206.1122 137.1571 Z " stroke-width="0.31885095894493315"/>
          <path id="ID0.7359844641759992" fill="#8A7B59" stroke="none" d="M 204.7622 136.8571 L 205.8518 136.8767 L 205.7592 140.7474 L 204.6696 140.7277 L 204.7622 136.8571 Z " stroke-width="0.31885095894493315"/>
          <path id="ID0.7359844641759992" fill="#8A7B59" stroke="none" d="M 203.3622 136.4571 L 204.4518 136.4767 L 204.3592 140.3474 L 203.2696 140.3277 L 203.3622 136.4571 Z " stroke-width="0.31885095894493315"/>
          <path id="ID0.7359844641759992" fill="#8A7B59" stroke="none" d="M 207.5122 137.4571 L 208.6018 137.4767 L 208.5092 141.3474 L 207.4196 141.3277 L 207.5122 137.4571 Z " stroke-width="0.31885095894493315"/>
        </g>
        <g id="ID0.1049797898158431">
          <path id="ID0.08871637750416994" fill="#8A7B59" stroke="none" stroke-linecap="round" d="M 197.6524 135.7359 L 202.2167 136.4684 L 202.0995 139.9395 L 197.7058 139.1953 L 197.6524 135.7359 Z " stroke-width="0.31885095894493315"/>
          <path id="ID0.13805592898279428" fill="#76694C" stroke="none" stroke-linecap="round" d="M 197.5288 135.5633 L 202.3144 136.2999 L 202.3397 138.0887 L 197.5385 137.2928 L 197.5288 135.5633 Z " stroke-width="0.31885095894493315"/>
          <path id="ID0.3221200187690556" fill="#61563F" stroke="none" stroke-linecap="round" d="M 199.4555 137.0226 L 200.0784 137.2584 L 200.1078 138.3497 L 199.429 138.129 L 199.4555 137.0226 Z " stroke-width="0.3460699674458438"/>
          <path id="ID0.1420820001512766" fill="#BAA578" stroke="none" stroke-linecap="round" d="M 201.6446 139.3268 L 202.1766 138.4496 L 202.1763 139.8832 L 197.7135 139.1821 L 201.6446 139.3268 Z " stroke-width="0.31885095894493315"/>
        </g>
      </g>
    </g>
    <g id="ID0.2217248771339655">
      <path id="ID0.2888958193361759" fill="#393C40" stroke="none" stroke-linecap="round" d="M 234.5688 138.0877 L 228.0597 139.3626 L 228.479 140.9745 L 234.9881 139.6996 L 234.5688 138.0877 Z " stroke-width="0.28502922031196737"/>
      <g id="ID0.8823104286566377">
        <path id="ID0.2888958193361759" fill="#393C40" stroke="none" stroke-linecap="round" d="M 241.4694 136.8131 L 234.1597 138.3126 L 234.579 139.9245 L 241.5584 138.4762 L 241.4694 136.8131 Z " stroke-width="0.28502922031196737"/>
        <g id="ID0.36424446757882833">
          <path id="ID0.7359844641759992" fill="#8A7B59" stroke="none" d="M 232.7485 137.7303 L 231.7737 137.7478 L 231.8566 141.2107 L 232.8314 141.1931 L 232.7485 137.7303 Z " stroke-width="0.28525903132703206"/>
          <path id="ID0.7359844641759992" fill="#8A7B59" stroke="none" d="M 233.9485 137.4803 L 232.9737 137.4978 L 233.0566 140.9607 L 234.0314 140.9431 L 233.9485 137.4803 Z " stroke-width="0.28525903132703206"/>
          <path id="ID0.7359844641759992" fill="#8A7B59" stroke="none" d="M 235.1985 137.1303 L 234.2237 137.1478 L 234.3066 140.6107 L 235.2814 140.5931 L 235.1985 137.1303 Z " stroke-width="0.28525903132703206"/>
          <path id="ID0.7359844641759992" fill="#8A7B59" stroke="none" d="M 231.5485 138.0303 L 230.5737 138.0478 L 230.6566 141.5107 L 231.6314 141.4931 L 231.5485 138.0303 Z " stroke-width="0.28525903132703206"/>
        </g>
        <g id="ID0.1049797898158431">
          <path id="ID0.08871637750416994" fill="#8A7B59" stroke="none" stroke-linecap="round" d="M 240.2908 136.4404 L 236.2074 137.0957 L 236.3122 140.2012 L 240.243 139.5353 L 240.2908 136.4404 Z " stroke-width="0.28525903132703206"/>
          <path id="ID0.13805592898279428" fill="#76694C" stroke="none" stroke-linecap="round" d="M 240.4434 136.3518 L 236.162 137.0108 L 236.1394 138.6111 L 240.4348 137.899 L 240.4434 136.3518 Z " stroke-width="0.28525903132703206"/>
          <path id="ID0.3221200187690556" fill="#61563F" stroke="none" stroke-linecap="round" d="M 238.7308 137.5488 L 238.1735 137.7597 L 238.1472 138.7361 L 238.7544 138.5386 L 238.7308 137.5488 Z " stroke-width="0.3096104197134408"/>
          <path id="ID0.1420820001512766" fill="#BAA578" stroke="none" stroke-linecap="round" d="M 236.7612 139.7635 L 236.2853 138.9787 L 236.2855 140.2613 L 240.2782 139.634 L 236.7612 139.7635 Z " stroke-width="0.28525903132703206"/>
        </g>
      </g>
    </g>
    <g id="ID0.6836685389280319">
      <path id="ID0.09357938077300787" fill="#857656" stroke="none" d="M 212.5866 137.5585 L 226.8168 137.5752 L 226.81 141.991 L 212.5797 141.9744 L 212.5866 137.5585 Z " stroke-width="0.3121572129083903"/>
      <path id="ID0.6492703901603818" fill="#7C6E50" stroke="none" stroke-linecap="round" d="M 213.1121 139.0385 L 219.6114 141.1722 L 226.6073 139.0543 L 226.6027 141.9818 L 213.1076 141.966 L 213.1121 139.0385 Z " stroke-width="0.35291133354590853"/>
      <g id="ID0.9254062357358634">
        <g id="ID0.49943465692922473">
          <path id="ID0.140373723115772" fill="#968561" stroke="none" d="M 225.5861 136.8015 L 229.6385 136.8062 L 229.6288 143.0211 L 225.5765 143.0163 L 225.5861 136.8015 Z " stroke-width="0.35291133354590853"/>
          <path id="ID0.8286363878287375" fill="#BAA578" stroke="none" stroke-linecap="round" d="M 225.6121 136.6162 L 229.7584 136.7846 L 226.4781 137.3041 L 225.6653 138.7751 L 225.6121 136.6162 Z " stroke-width="0.35291133354590853"/>
          <path id="ID0.7362233307212591" fill="#8A7B59" stroke="none" stroke-linecap="round" d="M 225.6245 140.8031 L 227.7731 140.8383 L 229.717 139.1724 L 229.7111 143.0158 L 225.6211 143.011 L 225.6245 140.8031 Z " stroke-width="0.35291133354590853"/>
        </g>
        <g id="ID0.49943465692922473">
          <path id="ID0.140373723115772" fill="#968561" stroke="none" d="M 213.7306 136.9057 L 209.6783 136.901 L 209.6687 143.1158 L 213.721 143.1206 L 213.7306 136.9057 Z " stroke-width="0.35291133354590853"/>
          <path id="ID0.8286363878287375" fill="#BAA578" stroke="none" stroke-linecap="round" d="M 213.7043 136.8199 L 209.5575 136.9786 L 212.8362 137.5058 L 213.6444 138.9787 L 213.7043 136.8199 Z " stroke-width="0.35291133354590853"/>
          <path id="ID0.7362233307212591" fill="#8A7B59" stroke="none" stroke-linecap="round" d="M 213.6789 141.0067 L 211.5302 141.0369 L 209.5914 139.3665 L 209.5855 143.2099 L 213.6755 143.2147 L 213.6789 141.0067 Z " stroke-width="0.35291133354590853"/>
        </g>
      </g>
    </g>
    <path id="ID0.5448851804248989" fill="none" stroke="#1D1E1F" stroke-width="0.8187450170516968" stroke-linecap="round" d="M 206.0338 55.7661 L 205.0923 61.5383 L 219.6659 67.3104 L 232.9296 61.743 L 232.0699 56.4825 "/>
    <path id="ID0.262191956397146" fill="none" stroke="#1D1E1F" stroke-width="0.8187450170516968" stroke-linecap="round" d="M 208.1582 59.5736 L 219.0884 64.8955 L 230.469 59.3689 "/>
    <path id="ID0.3245162623934448" fill="#2E3034" stroke="none" stroke-linecap="round" d="M 219.2103 32.3207 C 222.1779 32.3207 224.8666 34.7159 226.8134 38.5849 C 228.7602 42.4539 229.4501 48.5796 229.9651 53.6936 C 230.491 58.9151 232.2245 64.6006 230.1018 69.3701 C 228.4658 73.0449 223.9579 75.8439 219.8483 76.069 C 215.9675 76.285 211.2837 74.0338 209.4581 70.5093 C 206.8787 65.5284 208.0782 59.3453 208.4555 53.6936 C 208.7982 48.5659 209.6604 42.4539 211.6072 38.5849 C 213.554 34.7159 216.2427 32.3207 219.2103 32.3207 Z " stroke-width="0.9114236831665039"/>
    <g id="ID0.9831569031812251">
      <path id="ID0.0877610077150166" fill="#2E3034" stroke="none" stroke-linecap="round" d="M 230.6526 24.5328 L 226.4853 12.5781 L 226.4853 38.5797 L 233.4771 38.5797 L 230.6526 24.5328 Z " stroke-width="0.5346472016115493"/>
      <path id="ID0.796130308881402" fill="#242628" stroke="none" stroke-linecap="round" d="M 230.936 24.453 L 226.4445 12.4983 L 229.6858 25.1105 L 230.5424 38.6792 L 233.4364 38.4102 L 230.936 24.453 Z " stroke-width="0.5346472016115493"/>
    </g>
    <g id="ID0.9831569031812251">
      <path id="ID0.0877610077150166" fill="#2E3034" stroke="none" stroke-linecap="round" d="M 206.7474 24.3328 L 210.9147 12.3781 L 210.9147 38.3797 L 203.9229 38.3797 L 206.7474 24.3328 Z " stroke-width="0.5346472016115493"/>
      <path id="ID0.796130308881402" fill="#242628" stroke="none" stroke-linecap="round" d="M 206.364 24.353 L 210.8555 12.3983 L 207.6142 25.0105 L 206.6187 38.2803 L 203.8636 38.3102 L 206.364 24.353 Z " stroke-width="0.5346472016115493"/>
    </g>
    <path id="ID0.8999492498114705" fill="#2E3034" stroke="none" stroke-linecap="round" d="M 223.7551 29.0837 C 227.6294 30.2204 232.0819 31.9906 234.0253 35.5296 C 236.2428 39.5701 234.4675 44.6727 234.7407 49.2258 C 234.8986 50.7783 235.6209 52.3758 235.3195 53.8562 C 234.7055 56.8673 233.1798 59.6279 232.194 62.5381 C 231.5481 64.4453 231.4073 66.5915 230.3418 68.3261 C 229.1426 70.3792 227.6937 72.6078 225.5494 73.651 C 223.8982 74.453 221.5159 74.678 220.0856 73.5584 C 218.9484 72.6684 219.9902 70.6482 219.6457 69.229 C 219.3466 67.4778 218.1658 65.8984 218.164 64.0893 C 218.1607 59.0542 219.8605 54.0997 219.8772 49.0637 C 219.8953 43.5258 220.2004 37.8318 218.3955 32.649 C 217.7051 30.6663 212.0398 30.1449 213.0243 29.5467 C 214.55 28.4752 220.3226 28.0766 223.7551 29.0837 Z " stroke-width="0.4630371928215027"/>
    <path id="ID0.8999492498114705" fill="#2E3034" stroke="none" stroke-linecap="round" d="M 213.8949 28.9837 C 210.0178 30.1107 205.5681 31.8906 203.6247 35.4296 C 201.4072 39.4701 203.1825 44.5727 202.9093 49.1258 C 202.7514 50.6783 202.0291 52.2758 202.3305 53.7562 C 202.9445 56.7673 204.4702 59.5279 205.456 62.4381 C 206.1019 64.3453 206.2427 66.4915 207.3082 68.2261 C 208.5074 70.2792 209.9563 72.5078 212.1006 73.551 C 213.7518 74.353 216.1341 74.578 217.5644 73.4584 C 218.7016 72.5684 217.6598 70.5482 218.0043 69.129 C 218.3034 67.3778 219.4842 65.7984 219.486 63.9893 C 219.4893 58.9542 217.7895 53.9997 217.7728 48.9637 C 217.7547 43.4258 217.8682 37.8582 219.2545 32.549 C 219.6282 31.122 223.8557 30.5177 223.0283 29.9329 C 221.1757 28.735 216.743 28.1567 213.8949 28.9837 Z " stroke-width="0.4630371928215027"/>
    <path id="ID0.45774566335603595" fill="#AB8E85" stroke="none" stroke-linecap="round" d="M 219.3565 61.3951 C 221.2742 61.3951 222.6777 62.5471 224.2691 63.2781 C 225.7201 63.9453 228.4589 64.071 228.448 65.7244 C 228.4589 68.3055 226.194 70.533 224.2691 72.3632 C 222.9995 73.5699 221.2742 74.2462 219.3565 74.2462 C 217.4389 74.2462 215.7956 73.4778 214.4439 72.3632 C 212.5737 70.822 210.1785 69.0073 210.2195 66.6358 C 210.1785 64.8202 212.8435 64.1667 214.4439 63.2781 C 215.9751 62.4268 217.4389 61.3951 219.3565 61.3951 Z " stroke-width="0.9114236831665039"/>
    <path id="ID0.6934182443656027" fill="#AB8E85" stroke="none" stroke-linecap="round" d="M 206.7105 56.2911 L 218.7869 60.028 L 231.6379 55.9266 L 228.9037 62.0787 L 228.448 66.1801 L 210.3562 66.7725 L 209.3081 61.1672 L 206.7105 56.2911 Z " stroke-width="0.9114236831665039"/>
    <path id="ID0.2542315670289099" fill="#27282B" stroke="none" d="M 242.9985 7.8034 L 243.1807 7.8034 L 243.1807 7.8034 L 242.9985 7.8034 L 242.9985 7.8034 Z " stroke-width="0.9114236831665039"/>
    <path id="ID0.8256730306893587" fill="none" stroke="#937B73" stroke-width="0.9260743376260078" stroke-linecap="round" d="M 213.6353 65.5318 C 213.6353 65.5318 216.11 65.0592 217.3587 64.921 C 217.6709 64.8864 217.9772 64.9661 218.2824 65.017 C 218.5926 65.069 218.8881 65.2304 219.2027 65.2288 C 219.8263 65.2259 220.441 65.0639 221.0621 65.0044 C 221.3701 64.9748 221.6807 64.949 221.9898 64.9616 C 222.2993 64.9742 222.6131 65.0018 222.9128 65.0808 C 223.4056 65.2108 224.3575 65.5856 224.3575 65.5856 "/>
    <path id="ID0.7592270169407129" fill="none" stroke="#937B73" stroke-width="0.9260743376260078" stroke-linecap="round" d="M 221.6593 67.0697 C 221.6593 67.0697 221.0838 67.3676 220.7693 67.4146 C 220.4641 67.4605 220.1527 67.3195 219.8449 67.3417 C 219.5353 67.3643 219.2446 67.5172 218.9357 67.5472 C 218.6286 67.5772 218.3084 67.5977 218.01 67.5205 C 217.7562 67.4549 217.3264 67.1303 217.3264 67.1303 "/>
    <path id="ID0.6473136460408568" fill="none" stroke="#937B73" stroke-width="0.9260744609928169" stroke-linecap="round" d="M 219.4577 70.9265 C 219.4577 70.9265 219.7464 71.5052 219.7928 71.8192 C 219.8375 72.125 219.7828 72.4417 219.7249 72.7454 C 219.638 73.2029 219.3598 74.0954 219.3598 74.0954 "/>
    <path id="ID0.5030081016011536" fill="#A1887F" stroke="none" stroke-linecap="round" d="M 206.8149 56.519 L 219.7572 60.1647 L 231.9702 55.881 L 228.6891 61.623 L 228.0511 67.0004 L 227.1397 61.623 L 228.8714 58.3874 L 219.8483 61.3495 L 209.2302 58.5697 L 210.7341 61.8508 L 210.1416 68.1396 L 209.2302 61.5774 L 206.8149 56.519 Z " stroke-width="0.9114236831665039"/>
    <g id="ID0.7768427198752761">
      <path id="ID0.2278452254831791" fill="none" stroke="#937B73" stroke-width="0.9260743856430054" stroke-linecap="round" d="M 220.7969 56.1828 C 220.7969 56.1828 221.6484 57.8803 222.0702 58.7295 C 222.2115 59.0138 222.367 59.2926 222.487 59.5861 C 222.6069 59.8797 222.8005 60.1723 222.788 60.489 C 222.7754 60.8067 222.5875 61.1003 222.4175 61.3688 C 222.3041 61.5485 221.9545 61.8087 221.9545 61.8087 "/>
      <path id="ID0.2278452254831791" fill="none" stroke="#937B73" stroke-width="0.9260743856430054" stroke-linecap="round" d="M 218.0531 56.0828 C 218.0531 56.0828 217.2016 57.7803 216.7798 58.6295 C 216.6385 58.9138 216.483 59.1926 216.363 59.4861 C 216.2431 59.7797 216.0495 60.0723 216.062 60.389 C 216.0746 60.7067 216.2625 61.0003 216.4325 61.2688 C 216.5459 61.4485 216.8955 61.7087 216.8955 61.7087 "/>
    </g>
    <path id="ID0.7987830764614046" fill="#3E4246" stroke="none" stroke-linecap="round" d="M 199.7894 165.9116 L 198.6287 160.8374 L 198.3277 145.6148 L 222.7452 147.9674 L 220.5528 160.8374 L 220.7677 174.4455 L 221.2836 186.9003 L 221.2406 191.2365 L 219.779 194.4655 L 216.9847 196.1262 L 215.0073 196.4952 L 212.8578 196.3107 L 209.7627 195.4804 L 207.6133 193.9581 L 204.4321 188.3765 L 201.7668 177.4439 L 199.7894 165.9116 Z " stroke-width="0.8917290627976765"/>
    <path id="ID0.28340246016159654" fill="#1C1D1F" stroke="none" stroke-linecap="round" d="M 205.6296 48.7282 L 208.9053 50.1985 L 219.2742 51.4365 L 218.1393 56.5436 L 211.5104 55.6408 L 207.822 54.6091 L 205.8875 53.1647 L 205.0621 51.5139 L 205.6296 48.7282 Z " stroke-width="0.5158640146255493"/>
    <path id="ID0.20071752788498998" fill="#202324" stroke="none" d="M 210.2632 46.7391 L 214.2179 49.1896 L 219.3371 51.1062 L 218.8276 51.64 L 211.4035 50.4269 L 205.7748 48.1948 L 207.4246 46.4965 L 210.2632 46.7391 Z " stroke-width="0.48523765802383423"/>
    <path id="ID0.521138689480722" fill="none" stroke="#212325" stroke-width="0.9704753160476685" stroke-linecap="round" d="M 205.9769 48.4532 L 209.4463 50.1516 L 218.5931 51.486 "/>
    <path id="ID0.28340246016159654" fill="#1C1D1F" stroke="none" stroke-linecap="round" d="M 232.6204 48.8282 L 229.3447 50.2985 L 218.9758 51.5365 L 220.1107 56.6436 L 226.7396 55.7408 L 230.428 54.7091 L 232.3625 53.2647 L 233.1879 51.6139 L 232.6204 48.8282 Z " stroke-width="0.5158640146255493"/>
    <path id="ID0.20071752788498998" fill="#202324" stroke="none" d="M 227.9868 46.7391 L 224.0321 49.1896 L 218.9129 51.1062 L 219.4224 51.64 L 226.8465 50.4269 L 232.4752 48.1948 L 230.8254 46.4965 L 227.9868 46.7391 Z " stroke-width="0.48523765802383423"/>
    <path id="ID0.521138689480722" fill="none" stroke="#212325" stroke-width="0.9704753160476685" stroke-linecap="round" d="M 232.3231 48.4532 L 228.8537 50.1516 L 219.7069 51.486 "/>
    <path id="ID0.17828734638169408" fill="none" stroke="#202324" stroke-width="0.9260743856430054" stroke-linecap="round" d="M 220.3745 54.3563 C 220.3745 54.3563 219.4947 52.5037 219.2864 51.5781 C 219.2174 51.2716 219.4248 50.9632 219.4716 50.652 C 219.5174 50.3455 219.5758 50.0357 219.5642 49.726 C 219.5526 49.4129 219.4623 49.1069 219.4021 48.7999 C 219.3081 48.3206 219.1012 47.3645 219.1012 47.3645 "/>
    <g id="ID0.6393627882935107">
      <path id="ID0.8684103740379214" fill="#27282B" stroke="none" stroke-linecap="round" d="M 219.5762 50.6859 L 224.8168 58.0684 L 219.0749 59.8457 L 213.9253 58.3874 L 219.5762 50.6859 Z " stroke-width="0.9114236831665039"/>
      <path id="ID0.8012696979567409" fill="none" stroke="#242527" stroke-width="0.9260743856430054" stroke-linecap="round" d="M 228.0553 68.7683 L 228.6341 61.9385 L 231.6901 55.8958 L 219.6743 60.0632 L 206.6398 56.4515 L 209.1402 61.5912 L 210.1589 68.0737 "/>
      <path id="ID0.8012696979567409" fill="none" stroke="#242527" stroke-width="0.9260743856430054" stroke-linecap="round" d="M 219.4535 59.8303 L 219.4072 51.0095 "/>
    </g>
    <g id="ID0.770418758969754">
      <path id="ID0.6101007834076881" fill="#FFFFFF" stroke="none" stroke-linecap="round" d="M 209.3234 51.7732 L 210.902 52.1551 L 214.5123 53.3024 L 215.0326 55.1823 L 210.0137 53.7946 L 209.3234 51.7732 Z " stroke-width="0.38788099492369477"/>
      <path id="ID0.043594349175691605" fill="#D7E2FD" stroke="none" stroke-linecap="round" d="M 214.3025 54.3181 L 214.5208 53.2505 L 215.0061 55.2157 L 212.5314 54.5122 L 214.3025 54.3181 Z " stroke-width="0.48523765802383423"/>
      <path id="ID0.6101007834076881" fill="#FFFFFF" stroke="none" stroke-linecap="round" d="M 228.9766 51.9232 L 227.398 52.3051 L 223.7877 53.4524 L 223.2674 55.3323 L 228.2863 53.9446 L 228.9766 51.9232 Z " stroke-width="0.38788099492369477"/>
      <path id="ID0.043594349175691605" fill="#D7E2FD" stroke="none" stroke-linecap="round" d="M 223.9975 54.4181 L 223.7792 53.3505 L 223.2939 55.3157 L 225.7686 54.6122 L 223.9975 54.4181 Z " stroke-width="0.48523765802383423"/>
    </g>
  </g>
</svg>