<svg xmlns="http://www.w3.org/2000/svg" xmlns:xlink="http://www.w3.org/1999/xlink" version="1.1" width="139.87950134332377" height="318.4565734868785" viewBox="1.8903999325861571 -0.7496532204518678 139.87950134332377 318.4565734868785">
  <!-- Exported by Scratch - http://scratch.mit.edu/ -->
  <g id="ID0.6660797297954559">
    <path id="ID0.5368814701214433" fill="#343434" stroke="none" stroke-linecap="round" d="M 60.0528 299.7777 L 62.9362 290.9477 L 67.4251 281.7008 L 77.4012 287.5588 L 88.6673 295.1939 L 106.1293 305.5362 L 107.2078 312.0518 L 82.5104 313.2307 L 61.2654 309.5644 L 60.0528 299.7777 Z " stroke-width="0.7702165290554439"/>
    <g id="ID0.5077062323689461">
      <path id="ID0.05466862628236413" fill="#252525" stroke="none" stroke-linecap="round" d="M 61.1516 227.5262 L 82.8443 224.1459 L 81.1084 238.8291 L 80.3661 243.8423 L 80.3596 258.3268 L 82.8603 291.578 L 61.6164 294.3482 L 60.2791 275.5996 L 57.9673 268.533 L 56.7975 260.8051 L 58.3957 249.6978 L 58.2969 239.5819 L 61.1516 227.5262 Z " stroke-width="0.5998532736063101"/>
      <path id="ID0.5319394422695041" fill="none" stroke="#131313" stroke-width="2" stroke-linecap="round" d="M 82.9 290.75 L 61.65 294.75 L 60.65 283.25 "/>
    </g>
    <g id="ID0.8820344842970371">
      <path id="ID0.3809091211296618" fill="#252525" stroke="none" stroke-linecap="round" d="M 49.9285 153.8533 L 81.6436 134.3371 L 82.9062 158.5649 L 86.8946 207.0411 L 86.412 217.7936 L 82.4109 229.0764 L 74.3176 226.8924 L 61.3644 228.1829 L 60.7031 206.421 L 58.9648 193.1181 L 49.9285 153.8533 Z " stroke-width="0.7305889665074583"/>
      <path id="ID0.9495224836282432" fill="none" stroke="#131313" stroke-width="2" stroke-linecap="round" d="M 86.9 207.25 L 86.9 215.75 L 84.9 223.75 L 76.4 228.25 L 75.4 233.25 "/>
    </g>
  </g>
  <g id="ID0.18228224432095885">
    <path id="ID0.5368814701214433" fill="#404040" stroke="none" stroke-linecap="round" d="M 3.5878 295.5704 L 8.1196 287.4621 L 14.3074 279.2543 L 22.9667 286.926 L 32.5491 296.5903 L 47.6891 310.1057 L 47.491 316.7069 L 23.0298 313.1014 L 2.8904 305.4072 L 3.5878 295.5704 Z " stroke-width="0.7702165265523853"/>
    <g id="ID0.5077062323689461">
      <path id="ID0.05466862628236413" fill="#252525" stroke="none" stroke-linecap="round" d="M 19.9564 224.5513 L 41.8645 225.9785 L 36.9712 239.9308 L 35.1545 244.6619 L 31.9924 258.797 L 27.1884 291.7942 L 5.8513 289.8694 L 8.6309 271.2798 L 7.9144 263.8793 L 8.4563 256.0821 L 12.4361 245.5899 L 14.5437 235.6955 L 19.9564 224.5513 Z " stroke-width="0.5998532681134454"/>
      <path id="ID0.5319394422695041" fill="none" stroke="#131313" stroke-width="2.000000000550342" stroke-linecap="round" d="M 27.422 290.8727 L 5.811 290.1467 L 7.3405 278.7051 "/>
    </g>
    <g id="ID0.8820344842970371">
      <path id="ID0.3809091211296618" fill="#252525" stroke="none" stroke-linecap="round" d="M 30.6173 148.5037 L 60.3695 138.0051 L 56.3232 161.9259 L 49.6541 210.1065 L 46.8403 220.4955 L 40.4771 230.6356 L 33.0541 226.7407 L 19.3629 226.4024 L 21.4627 203.3079 L 22.7983 190.2872 L 30.6173 148.5037 Z " stroke-width="0.7305889973140245"/>
      <path id="ID0.9495224836282432" fill="none" stroke="#131313" stroke-width="2.000000000550342" stroke-linecap="round" d="M 49.5184 210.2501 L 47.6665 218.5459 L 43.9715 225.918 L 34.6953 228.4579 L 32.6299 233.1199 "/>
    </g>
  </g>
  <g id="ID0.7085462282411754">
    <g id="ID0.5880346246995032">
      <path id="ID0.6829322893172503" fill="#1D1E1F" stroke="none" stroke-linecap="round" d="M 106.1829 175.7283 L 95.5544 171.0982 L 92.5394 176.7505 L 88.7271 182.8472 L 88.9839 188.5567 L 89.8065 193.2191 L 91.9831 196.186 L 93.7131 202.8508 L 98.3938 202.436 L 99.5256 200.3419 L 101.1477 200.0646 L 104.291 197.2671 L 107.6199 194.0526 L 109.4573 189.4749 L 108.3207 182.3748 L 106.1829 175.7283 Z " stroke-width="0.8164595870621234"/>
      <g id="ID0.9434720128774643">
        <path id="ID0.6507829907350242" fill="#282828" stroke="none" stroke-linecap="round" d="M 108.9436 110.64 L 90.4386 121.6882 L 92.5454 138.5521 L 94.2151 151.145 L 94.9394 167.2538 L 92.9285 174.332 L 107.7626 176.1576 L 106.6539 168.7702 L 108.049 158.9 L 110.3444 146.3332 L 110.5622 133.0017 L 108.9436 110.64 Z " stroke-width="0.8164595870621234"/>
        <path id="ID0.9892375003546476" fill="none" stroke="#191919" stroke-width="1.9999999493310705" stroke-linecap="round" d="M 107.2476 175.3504 L 93.6377 173.2097 L 95.7534 164.6059 "/>
      </g>
    </g>
    <path id="ID0.7729651997797191" fill="#282828" stroke="none" stroke-linecap="round" d="M 107.8688 79.7901 L 84.2954 76.6974 L 84.7551 97.0511 L 87.6179 108.0056 L 88.1193 117.2828 L 89.7549 125.9979 L 106.7923 124.5065 L 109.7594 117.9996 L 107.8641 93.706 L 107.8688 79.7901 Z " stroke-width="0.9588636729962308"/>
    <path id="ID0.4757494777441025" fill="#282828" stroke="none" stroke-linecap="round" d="M 97.8261 63.3269 L 89.1236 60.7639 L 72.5019 64.8518 L 79.7185 90.7013 L 90.1184 96.206 L 94.7143 97.4992 L 98.1305 95.2798 L 101.2083 92.4483 L 107.2041 90.1144 L 107.589 84.6509 L 107.2435 76.5306 L 104.3411 68.0491 L 97.8261 63.3269 Z " stroke-width="0.48299247528778044"/>
  </g>
  <g id="ID0.8990198895335197">
    <path id="ID0.17576928716152906" fill="#DBDBDB" stroke="none" d="M 60.9038 56.5299 L 60.6541 56.5179 L 60.6541 56.5179 L 60.9038 56.5299 L 60.9038 56.5299 Z " stroke-width="0.9999999739625841"/>
    <path id="ID0.4270821204409003" fill="#252525" stroke="none" stroke-linecap="round" d="M 52.9404 178.3568 L 58.0948 65.7181 L 75.3111 69.0273 L 81.9045 73.7767 L 84.4766 78.0106 L 90.6982 89.8935 L 89.2661 100.2948 L 87.94 105.6921 L 89.1283 112.6943 L 89.2272 118.1897 L 86.6154 124.9303 L 84.6405 130.0443 L 82.8152 139.2254 L 82.807 161.1793 L 77.1127 169.0201 L 71.9119 174.8904 L 52.9404 178.3568 Z " stroke-width="0.47614255505486397"/>
    <path id="ID0.4270821204409003" fill="#252525" stroke="none" stroke-linecap="round" d="M 52.967 178.4525 L 58.6289 65.8381 L 41.1747 67.4825 L 34.1565 71.5783 L 31.1906 75.5463 L 23.8591 86.7783 L 24.2879 97.269 L 25.0909 102.7686 L 23.2371 109.6247 L 22.6121 115.0854 L 24.566 122.0452 L 26.0418 127.3249 L 26.979 136.6386 L 24.8836 158.4922 L 29.8005 166.8426 L 34.4149 173.1842 L 52.967 178.4525 Z " stroke-width="0.47614254893708563"/>
    <path id="ID0.5114514343440533" fill="#282828" stroke="none" d="M 32.1363 65.8259 L 85.0753 68.368 L 80.8426 156.5164 L 27.9036 153.9744 L 32.1363 65.8259 Z " stroke-width="1.0073065914999595"/>
    <path id="ID0.9286923445761204" fill="#D4D4D4" stroke="none" stroke-linecap="round" d="M 48.9431 52.8292 L 67.1058 34.9436 L 59.0902 53.4595 L 58.4094 93.9455 L 21.8975 63.1141 L 42.5336 53.2841 L 48.9431 52.8292 Z " stroke-width="0.47614256319854315"/>
    <path id="ID0.9286923445761204" fill="#D4D4D4" stroke="none" stroke-linecap="round" d="M 65.289 52.5445 L 52.3541 34.5241 L 58.5587 53.7229 L 57.8532 93.731 L 94.6552 66.8967 L 75.4606 54.1531 L 65.289 52.5445 Z " stroke-width="0.47614256319854315"/>
    <path id="ID0.39874776685610414" fill="#C3C3C3" stroke="none" stroke-linecap="round" d="M 40.5516 54.156 L 59.9249 64.9684 L 78.2022 56.8747 L 82.0982 59.2022 L 59.5488 68.7302 L 36.703 55.9294 L 40.5516 54.156 Z " stroke-width="0.9436593405319237"/>
    <path id="ID0.13444371055811644" fill="#1F1F1F" stroke="none" stroke-linecap="round" d="M 57.4263 66.708 L 62.6823 66.7101 L 64.1121 95.3116 L 52.052 95.2331 L 57.4263 66.708 Z " stroke-width="0.9999999739625841"/>
    <path id="ID0.751046194229275" fill="#191919" stroke="none" stroke-linecap="round" d="M 55.4126 61.6225 L 60.1798 59.814 L 64.587 62.063 L 64.644 70.0499 L 60.2016 70.8277 L 55.0301 69.5883 L 55.4126 61.6225 Z " stroke-width="1.099999989201789"/>
    <path id="ID0.7854711129330099" fill="#282828" stroke="none" stroke-linecap="round" d="M 45.4078 82.9009 L 58.972 92.3123 L 73.1738 83.233 L 70.3368 100.6169 L 47.1136 99.5018 L 45.4078 82.9009 Z " stroke-width="0.9999999739625841"/>
    <path id="ID0.562834897544235" fill="#282828" stroke="none" stroke-linecap="round" d="M 25.2478 153.5152 L 55.7387 149.2227 L 54.7675 169.4494 L 40.9734 170.0385 L 25.2478 153.5152 Z " stroke-width="0.9999999739625841"/>
    <path id="ID0.562834897544235" fill="#282828" stroke="none" stroke-linecap="round" d="M 86.0714 156.6785 L 56.132 149.4842 L 55.1607 169.7109 L 68.8349 171.619 L 86.0714 156.6785 Z " stroke-width="0.9999999739625841"/>
    <path id="ID0.6824178956449032" fill="none" stroke="#191919" stroke-width="1.9999999479251682" stroke-linecap="round" d="M 58.7106 92.538 L 54.7798 169.1877 "/>
    <path id="ID0.4144489667378366" fill="#313131" stroke="none" stroke-linecap="round" d="M 21.4678 60.2266 L 42.0782 53.207 L 38.0385 74.7881 L 38.4069 134.8749 L 26.7715 179.1178 L 16.024 173.5959 L 15.6064 177.0799 L 20.9052 129.279 L 18.2351 85.851 L 18.0156 69.5717 L 21.4678 60.2266 Z " stroke-width="0.9999999739625841"/>
    <path id="ID0.5234400681219995" fill="#101010" stroke="none" d="M 60.6566 98.2688 C 61.0688 98.2886 61.4346 98.474 61.6922 98.7576 C 61.9498 99.0411 62.0992 99.423 62.0794 99.8351 C 62.0596 100.2473 61.8743 100.6131 61.5907 100.8707 C 61.3071 101.1283 60.9253 101.2777 60.5131 101.2579 C 60.1009 101.2381 59.7352 101.0528 59.4776 100.7692 C 59.22 100.4856 59.0706 100.1038 59.0903 99.6916 C 59.1101 99.2794 59.2955 98.9137 59.5791 98.6561 C 59.8626 98.3985 60.2445 98.2491 60.6566 98.2688 Z " stroke-width="0.6299999591812886"/>
    <path id="ID0.5234400681219995" fill="#101010" stroke="none" d="M 60.0066 111.8188 C 60.4188 111.8386 60.7846 112.024 61.0422 112.3076 C 61.2998 112.5911 61.4492 112.973 61.4294 113.3851 C 61.4096 113.7973 61.2243 114.1631 60.9407 114.4207 C 60.6571 114.6783 60.2753 114.8277 59.8631 114.8079 C 59.4509 114.7881 59.0852 114.6028 58.8276 114.3192 C 58.57 114.0356 58.4206 113.6538 58.4403 113.2416 C 58.4601 112.8294 58.6455 112.4637 58.9291 112.2061 C 59.2126 111.9485 59.5945 111.7991 60.0066 111.8188 Z " stroke-width="0.6299999591812886"/>
    <path id="ID0.5234400681219995" fill="#101010" stroke="none" d="M 58.5066 143.2688 C 58.9188 143.2886 59.2846 143.474 59.5422 143.7576 C 59.7998 144.0411 59.9492 144.423 59.9294 144.8351 C 59.9096 145.2473 59.7243 145.6131 59.4407 145.8707 C 59.1571 146.1283 58.7753 146.2777 58.3631 146.2579 C 57.9509 146.2381 57.5852 146.0528 57.3276 145.7692 C 57.07 145.4856 56.9206 145.1038 56.9403 144.6916 C 56.9601 144.2794 57.1455 143.9137 57.4291 143.6561 C 57.7126 143.3985 58.0945 143.2491 58.5066 143.2688 Z " stroke-width="0.6299999591812886"/>
    <path id="ID0.5234400681219995" fill="#101010" stroke="none" d="M 59.2066 128.5688 C 59.6188 128.5886 59.9846 128.774 60.2422 129.0576 C 60.4998 129.3411 60.6492 129.723 60.6294 130.1351 C 60.6096 130.5473 60.4243 130.9131 60.1407 131.1707 C 59.8571 131.4283 59.4753 131.5777 59.0631 131.5579 C 58.6509 131.5381 58.2852 131.3528 58.0276 131.0692 C 57.77 130.7856 57.6206 130.4038 57.6403 129.9916 C 57.6601 129.5794 57.8455 129.2137 58.1291 128.9561 C 58.4126 128.6985 58.7945 128.5491 59.2066 128.5688 Z " stroke-width="0.6299999591812886"/>
    <path id="ID0.5234400681219995" fill="#101010" stroke="none" d="M 57.7066 157.2188 C 58.1188 157.2386 58.4846 157.424 58.7422 157.7076 C 58.9998 157.9911 59.1492 158.373 59.1294 158.7851 C 59.1096 159.1973 58.9243 159.5631 58.6407 159.8207 C 58.3571 160.0783 57.9753 160.2277 57.5631 160.2079 C 57.1509 160.1881 56.7852 160.0028 56.5276 159.7192 C 56.27 159.4356 56.1206 159.0538 56.1403 158.6416 C 56.1601 158.2294 56.3455 157.8637 56.6291 157.6061 C 56.9126 157.3485 57.2945 157.1991 57.7066 157.2188 Z " stroke-width="0.6299999591812886"/>
    <path id="ID0.4144489667378366" fill="#313131" stroke="none" stroke-linecap="round" d="M 94.9224 62.8312 L 75.0794 53.8692 L 77.0328 75.7381 L 70.9087 135.5131 L 78.2515 180.6673 L 89.4786 176.2006 L 89.5605 179.7086 L 88.8661 131.6199 L 95.6851 88.6475 L 97.4633 72.4642 L 94.9224 62.8312 Z " stroke-width="0.9999999739625841"/>
    <path id="ID0.8752945330925286" fill="none" stroke="#222222" stroke-width="1.9999999479251682" stroke-linecap="round" d="M 21.9552 60.5003 L 18.3373 68.0855 L 19.7729 105.9479 "/>
    <path id="ID0.8752945330925286" fill="none" stroke="#222222" stroke-width="1.9999999479251682" stroke-linecap="round" d="M 95.111 63.507 L 97.9855 71.4039 L 92.9287 108.9546 "/>
    <path id="ID0.5234400681219995" fill="#101010" stroke="none" d="M 35.4066 142.8188 C 35.8188 142.8386 36.1846 143.024 36.4422 143.3076 C 36.6998 143.5911 36.8492 143.973 36.8294 144.3851 C 36.8096 144.7973 36.6243 145.1631 36.3407 145.4207 C 36.0571 145.6783 35.6753 145.8277 35.2631 145.8079 C 34.8509 145.7881 34.4852 145.6028 34.2276 145.3192 C 33.97 145.0356 33.8206 144.6538 33.8403 144.2416 C 33.8601 143.8294 34.0455 143.4637 34.3291 143.2061 C 34.6126 142.9485 34.9945 142.7991 35.4066 142.8188 Z " stroke-width="0.6299999591812886"/>
    <path id="ID0.5234400681219995" fill="#101010" stroke="none" d="M 33.6566 150.0188 C 34.0688 150.0386 34.4346 150.224 34.6922 150.5076 C 34.9498 150.7911 35.0992 151.173 35.0794 151.5851 C 35.0596 151.9973 34.8743 152.3631 34.5907 152.6207 C 34.3071 152.8783 33.9253 153.0277 33.5131 153.0079 C 33.1009 152.9881 32.7352 152.8028 32.4776 152.5192 C 32.22 152.2356 32.0706 151.8538 32.0903 151.4416 C 32.1101 151.0294 32.2955 150.6637 32.5791 150.4061 C 32.8626 150.1485 33.2445 149.9991 33.6566 150.0188 Z " stroke-width="0.6299999591812886"/>
    <g id="ID0.20783481979742646">
      <path id="ID0.5848579816520214" fill="#737373" stroke="none" stroke-linecap="round" d="M 83.0211 90.7832 L 89.9352 89.6135 L 89.6482 93.5042 L 82.3826 93.6559 L 83.0211 90.7832 Z " stroke-width="0.9999999739625841"/>
      <path id="ID0.13105127029120922" fill="none" stroke="#222222" stroke-width="1.9999999479251682" stroke-linecap="round" d="M 81.0222 93.8409 L 85.517 94.0567 L 90.8329 92.8103 "/>
    </g>
  </g>
  <path id="ID0.6101007834076881" fill="#FFFFFF" stroke="none" stroke-linecap="round" d="M 69.8313 20.2858 L 71.4605 20.773 L 75.171 22.1739 L 75.6101 24.1684 L 70.4402 22.4376 L 69.8313 20.2858 Z " stroke-width="0.40610620427617633"/>
  <path id="ID0.043594349175691605" fill="#D7E2FD" stroke="none" stroke-linecap="round" d="M 74.9159 23.2348 L 75.2037 22.1308 L 75.6014 24.2125 L 73.0533 23.3389 L 74.9159 23.2348 Z " stroke-width="0.5080372725919315"/>
  <path id="ID0.46110434643924236" fill="#D8BFA7" stroke="none" stroke-linecap="round" d="M 48.5372 34.1919 L 71.1259 35.2765 L 70.6839 54.2272 L 64.3602 56.7768 L 47.5732 54.2687 L 48.5372 34.1919 Z " stroke-width="1.0876357609968201"/>
  <path id="ID0.8999492498114705" fill="#EDD2B8" stroke="none" stroke-linecap="round" d="M 67.7357 3.5724 C 72.1319 4.1196 76.8212 6.903 78.8931 10.8184 C 81.2572 15.2887 79.2946 20.8504 79.4453 25.856 C 79.527 27.5975 79.7285 29.4186 79.2615 31.1628 C 78.7062 34.3105 77.4724 37.3014 76.4253 40.4171 C 75.7205 42.5173 75.4934 44.8505 74.2951 46.7353 C 72.9445 48.9673 71.5534 52.0802 68.9471 52.4956 C 65.0831 53.1111 61.0356 51.2071 57.6136 49.3986 C 54.8024 47.9126 52.1835 45.6598 50.6522 42.8634 C 47.9126 37.6754 45.4395 31.9764 45.1451 26.0871 C 44.8188 19.5586 44.1736 11.4815 48.9998 6.839 C 53.3219 2.3641 61.2004 2.7619 67.7357 3.5724 Z " stroke-width="0.5080372992401803"/>
  <path id="ID0.8194515448994935" fill="#EDD2B8" stroke="none" stroke-linecap="round" d="M 44.9867 20.47 C 45.8393 20.5702 46.4484 21.1487 46.9389 22.2154 C 47.4295 23.2821 47.7208 24.7488 47.6958 26.3626 C 47.6708 27.9764 47.3342 29.4334 46.8109 30.4844 C 46.2876 31.5354 45.6603 32.0678 44.8056 32.1686 C 44.0211 32.2594 43.0219 31.8149 42.6713 31.1354 C 42.0156 29.6271 42.1631 27.8521 42.0965 26.2759 C 42.0305 24.7267 41.6969 23.0194 42.3185 21.6288 C 42.8106 20.7823 44.0933 20.3651 44.9867 20.47 Z " stroke-width="0.9999999815431039"/>
  <path id="ID0.5768358684144914" fill="#2E3234" stroke="none" d="M 44.0795 17.3511 L 50.0787 17.444 L 50.0509 19.2438 L 44.0516 19.1509 L 44.0795 17.3511 Z " stroke-width="0.9999999815431039"/>
  <path id="ID0.3245162623934448" fill="#54595E" stroke="none" stroke-linecap="round" d="M 66.3359 4.6185 C 69.5915 4.6689 72.5005 7.3423 74.5705 11.6198 C 76.6405 15.8974 77.2934 22.6293 77.7714 28.2484 C 78.2597 33.9856 80.0649 40.2523 77.6551 45.4487 C 75.7979 49.4524 70.805 52.4464 66.2927 52.6236 C 62.0315 52.7947 56.9314 50.2454 54.9885 46.3478 C 52.2435 40.8397 53.6643 34.0769 54.1743 27.883 C 54.6373 22.2635 55.687 15.573 57.8885 11.3616 C 60.09 7.1501 63.0803 4.5681 66.3359 4.6185 Z " stroke-width="0.9999999815431039"/>
  <path id="ID0.8999492498114705" fill="#54595E" stroke="none" stroke-linecap="round" d="M 69.6357 0.9724 C 73.8666 2.2853 78.7212 4.303 80.7931 8.2184 C 83.1572 12.6887 80.5984 18.3012 81.3453 23.256 C 81.6407 25.2132 84.0917 26.7592 83.9518 28.8346 C 83.7281 31.5043 81.5834 33.6706 80.3581 36.1464 C 79.0249 38.8339 77.8453 41.6768 76.1951 44.1353 C 74.7372 46.3087 73.2172 48.7876 70.8471 49.8956 C 69.022 50.7474 66.4046 50.9538 64.8545 49.7012 C 63.622 48.7056 64.7993 46.507 64.4455 44.9442 C 64.1471 43.0179 62.8786 41.2652 62.9072 39.2805 C 62.9892 33.7567 64.9382 28.3502 65.042 22.8257 C 65.1559 16.7507 65.5873 10.5093 63.6953 4.7928 C 62.9716 2.6059 56.7653 1.9377 57.8555 1.2981 C 59.5474 0.1486 65.8872 -0.1907 69.6357 0.9724 Z " stroke-width="0.5080372992401803"/>
  <path id="ID0.8999492498114705" fill="#54595E" stroke="none" stroke-linecap="round" d="M 58.3779 1.3272 C 54.5785 2.3999 50.3343 4.3046 48.3951 7.8033 C 46.0334 12.0393 47.2599 17.4609 46.6724 22.2574 C 46.4556 24.0187 45.3639 25.8131 45.7275 27.5016 C 46.2619 29.8385 48.3474 31.6227 48.9814 33.9286 C 49.8544 37.105 49.0433 40.7259 50.3285 43.7304 C 51.3583 46.1364 53.1609 48.4726 55.4956 49.6535 C 57.2934 50.5614 59.9032 50.8487 61.4913 49.6447 C 62.754 48.6877 61.6454 46.4537 62.0474 44.9026 C 62.4053 42.9865 63.7275 41.2739 63.7603 39.2892 C 63.8493 33.7655 62.0687 28.3013 62.136 22.7763 C 62.2102 16.7006 62.4293 10.5946 64.0403 4.7937 C 64.4745 3.2345 69.1705 2.6019 68.2248 1.9877 C 66.3528 0.783 61.5431 0.3574 58.3779 1.3272 Z " stroke-width="0.5080372992401803"/>
  <path id="ID0.45774566335603595" fill="#54595E" stroke="none" stroke-linecap="round" d="M 66.267 36.5197 C 68.3707 36.5523 69.891 37.84 71.6244 38.6689 C 73.2048 39.4255 76.2074 39.61 76.1673 41.4236 C 76.1354 44.2554 73.6129 46.6607 71.4701 48.6357 C 70.0567 49.938 68.1525 50.6506 66.0487 50.618 C 63.945 50.5855 62.1552 49.7147 60.6913 48.4688 C 58.6658 46.7463 56.0689 44.7148 56.1542 42.1138 C 56.14 40.1214 59.0748 39.4497 60.8457 38.502 C 62.5399 37.5942 64.1633 36.4872 66.267 36.5197 Z " stroke-width="0.9999999815431039"/>
  <path id="ID0.6934182443656027" fill="#54595E" stroke="none" stroke-linecap="round" d="M 52.1304 30.6056 L 65.3153 34.9102 L 79.4833 30.6291 L 76.3791 37.3318 L 75.8095 41.8235 L 55.9518 42.1661 L 54.8972 35.9991 L 52.1304 30.6056 Z " stroke-width="0.9999999815431039"/>
  <path id="ID0.6236958587542176" fill="#3B4043" stroke="none" stroke-linecap="round" d="M 58.355 27.5011 L 74.1039 27.6949 L 73.2863 35.2831 L 73.6787 42.2401 L 70.7657 52.7462 L 61.1661 52.6476 L 57.7713 42.5938 L 58.7889 35.0087 L 58.355 27.5011 Z " stroke-width="0.9999999815431039"/>
  <path id="ID0.6043254472315311" fill="#3B4043" stroke="none" stroke-linecap="round" d="M 51.5219 4.7064 L 56.3155 1.9302 L 60.9782 7.6031 L 67.4604 8.8036 L 65.9118 28.0819 L 63.218 30.8906 L 57.874 30.4578 L 54.357 28.3031 L 52.8175 24.3788 L 54.418 17.9028 L 51.5219 4.7064 Z " stroke-width="0.9999999815431039"/>
  <path id="ID0.6043254472315311" fill="#3B4043" stroke="none" stroke-linecap="round" d="M 79.9023 6.6787 L 77.8413 4.1465 L 75.1094 2.9541 L 70.8872 7.5893 L 64.3709 8.5885 L 65.322 27.9056 L 67.9275 30.7962 L 73.2823 30.5291 L 77.8127 28.599 L 78.5246 24.6096 L 77.1254 18.0871 L 79.9023 6.6787 Z " stroke-width="0.9999999815431039"/>
  <path id="ID0.9914007503539324" fill="#33383A" stroke="none" d="M 63.8344 35.1353 L 62.3665 23.3611 L 68.8111 23.761 L 68.9346 35.1642 L 63.8344 35.1353 Z " stroke-width="0.9999999815431039"/>
  <path id="ID0.28340246016159654" fill="#D8BFA7" stroke="none" stroke-linecap="round" d="M 51.9143 21.4472 L 58.7323 21.6461 L 63.1397 23.9857 L 63.9639 27.4211 L 62.5432 29.6083 L 59.0287 29.9272 L 56.2916 29.387 L 54.2097 28.5769 L 52.1144 26.802 L 51.2398 24.7971 L 51.9143 21.4472 Z " stroke-width="0.5947752426330791"/>
  <path id="ID0.28340246016159654" fill="#D8BFA7" stroke="none" stroke-linecap="round" d="M 80.5332 21.9666 L 73.7123 21.9544 L 69.2346 24.1564 L 68.3044 27.5647 L 69.6568 29.7947 L 73.1598 30.2224 L 75.9122 29.7671 L 78.0182 29.0219 L 80.1674 27.3127 L 81.1037 25.3359 L 80.5332 21.9666 Z " stroke-width="0.5947752426330791"/>
  <path id="ID0.17377300979569554" fill="#FFFFFF" stroke="none" stroke-linecap="round" d="M 56.1848 25.1824 L 57.1046 24.366 L 59.3943 24.2172 L 61.637 24.8576 L 62.059 26.8152 L 59.4241 26.6424 L 56.1848 25.1824 Z " stroke-width="1.0000000105773528"/>
  <path id="ID0.17377300979569554" fill="#FFFFFF" stroke="none" stroke-linecap="round" d="M 77.6931 25.5441 L 76.7991 24.6996 L 74.515 24.48 L 72.2535 25.0507 L 71.7712 26.9942 L 74.4101 26.9031 L 77.6931 25.5441 Z " stroke-width="0.9999999590935742"/>
  <path id="ID0.44800941413268447" fill="none" stroke="#33383A" stroke-width="1.0503597228235653" stroke-linecap="round" d="M 64.7774 27.864 L 63.2162 23.5328 L 58.8692 21.0231 L 52.3033 21.0528 "/>
  <path id="ID0.12448931112885475" fill="#33383A" stroke="none" stroke-linecap="round" d="M 63.9368 33.4783 L 68.7346 33.6526 L 69.6358 36.817 L 66.5129 38.2688 L 63.0373 36.6648 L 63.9368 33.4783 Z " stroke-width="0.9999999815431039"/>
  <path id="ID0.44800941413268447" fill="none" stroke="#33383A" stroke-width="1.0503597594031666" stroke-linecap="round" d="M 63.9682 24.3562 L 64.8101 21.8011 L 63.4173 18.4146 "/>
  <path id="ID0.44800941413268447" fill="none" stroke="#33383A" stroke-width="1.0503597765910548" stroke-linecap="round" d="M 68.2599 24.2816 L 67.4975 21.7016 L 68.9944 18.3599 "/>
  <g id="ID0.32985211815685034">
    <g id="ID0.08651347272098064">
      <g id="ID0.07771636918187141">
        <path id="ID0.7001032647676766" fill="none" stroke="#646B70" stroke-width="0.5238095056153385" stroke-linecap="round" d="M 57.4095 39.2996 C 57.4095 39.2996 57.3394 39.6666 57.2963 39.8479 C 57.2557 40.0186 57.0974 40.1917 57.1574 40.3566 C 57.2195 40.5273 57.426 40.619 57.5978 40.6777 C 57.7629 40.734 57.9471 40.681 58.1215 40.6858 C 58.2959 40.6906 58.5584 40.8584 58.645 40.707 C 58.8529 40.3448 58.8214 39.4655 58.8214 39.4655 "/>
        <path id="ID0.7001032647676766" fill="none" stroke="#646B70" stroke-width="0.5238095056153385" stroke-linecap="round" d="M 58.9095 39.2996 C 58.9095 39.2996 58.8394 39.6666 58.7963 39.8479 C 58.7557 40.0186 58.5974 40.1917 58.6574 40.3566 C 58.7195 40.5273 58.926 40.619 59.0978 40.6777 C 59.2629 40.734 59.4471 40.681 59.6215 40.6858 C 59.7959 40.6906 60.0584 40.8584 60.145 40.707 C 60.3529 40.3448 60.3214 39.4655 60.3214 39.4655 "/>
      </g>
      <g id="ID0.07771636918187141">
        <path id="ID0.7001032647676766" fill="none" stroke="#646B70" stroke-width="0.5238095056153385" stroke-linecap="round" d="M 60.5095 39.4496 C 60.5095 39.4496 60.4394 39.8166 60.3963 39.9979 C 60.3557 40.1686 60.1974 40.3417 60.2574 40.5066 C 60.3195 40.6773 60.526 40.769 60.6978 40.8277 C 60.8629 40.884 61.0471 40.831 61.2215 40.8358 C 61.3959 40.8406 61.6584 41.0084 61.745 40.857 C 61.9529 40.4948 61.9214 39.6155 61.9214 39.6155 "/>
        <path id="ID0.7001032647676766" fill="none" stroke="#646B70" stroke-width="0.5238095056153385" stroke-linecap="round" d="M 62.0095 39.5996 C 62.0095 39.5996 61.9394 39.9666 61.8963 40.1479 C 61.8557 40.3186 61.6974 40.4917 61.7574 40.6566 C 61.8195 40.8273 62.026 40.919 62.1978 40.9777 C 62.3629 41.034 62.5471 40.981 62.7215 40.9858 C 62.8959 40.9906 63.1584 41.1584 63.245 41.007 C 63.4529 40.6448 63.4214 39.7655 63.4214 39.7655 "/>
      </g>
      <path id="ID0.7001032647676766" fill="none" stroke="#646B70" stroke-width="0.5238094976121259" stroke-linecap="round" d="M 63.5659 39.7698 C 63.5659 39.7698 63.5346 40.142 63.5107 40.3269 C 63.4882 40.5009 63.349 40.6896 63.426 40.8473 C 63.5056 41.0106 63.7206 41.0801 63.8975 41.1205 C 64.0677 41.1592 64.2453 41.0872 64.4192 41.0737 C 64.5931 41.0602 64.8718 41.1995 64.9421 41.0399 C 65.1108 40.6579 64.9874 39.7868 64.9874 39.7868 "/>
    </g>
    <g id="ID0.08651347272098064">
      <g id="ID0.07771636918187141">
        <path id="ID0.7001032647676766" fill="none" stroke="#646B70" stroke-width="0.5238095056153385" stroke-linecap="round" d="M 72.5395 39.528 C 72.5395 39.528 72.5982 39.8969 72.6357 40.0795 C 72.671 40.2514 72.8239 40.4292 72.7587 40.5922 C 72.6914 40.7609 72.4821 40.8462 72.3087 40.8995 C 72.1418 40.9507 71.9594 40.892 71.7849 40.8914 C 71.6105 40.8908 71.343 41.0504 71.261 40.8964 C 71.0645 40.528 71.1231 39.6501 71.1231 39.6501 "/>
        <path id="ID0.7001032647676766" fill="none" stroke="#646B70" stroke-width="0.5238095056153385" stroke-linecap="round" d="M 71.0395 39.478 C 71.0395 39.478 71.0982 39.8469 71.1357 40.0295 C 71.171 40.2014 71.3239 40.3792 71.2587 40.5422 C 71.1914 40.7109 70.9821 40.7962 70.8087 40.8495 C 70.6418 40.9007 70.4594 40.842 70.2849 40.8414 C 70.1105 40.8408 69.843 41.0004 69.761 40.8464 C 69.5645 40.478 69.6231 39.6001 69.6231 39.6001 "/>
      </g>
      <g id="ID0.07771636918187141">
        <path id="ID0.7001032647676766" fill="none" stroke="#646B70" stroke-width="0.5238095056153385" stroke-linecap="round" d="M 69.3395 39.628 C 69.3395 39.628 69.3982 39.9969 69.4357 40.1795 C 69.471 40.3514 69.6239 40.5292 69.5587 40.6922 C 69.4914 40.8609 69.2821 40.9462 69.1087 40.9995 C 68.9418 41.0507 68.7594 40.992 68.5849 40.9914 C 68.4105 40.9908 68.143 41.1504 68.061 40.9964 C 67.8645 40.628 67.9231 39.7501 67.9231 39.7501 "/>
        <path id="ID0.7001032647676766" fill="none" stroke="#646B70" stroke-width="0.5238095056153385" stroke-linecap="round" d="M 67.8395 39.678 C 67.8395 39.678 67.8982 40.0469 67.9357 40.2295 C 67.971 40.4014 68.1239 40.5792 68.0587 40.7422 C 67.9914 40.9109 67.7821 40.9962 67.6087 41.0495 C 67.4418 41.1007 67.2594 41.042 67.0849 41.0414 C 66.9105 41.0408 66.643 41.2004 66.561 41.0464 C 66.3645 40.678 66.4231 39.8001 66.4231 39.8001 "/>
      </g>
      <path id="ID0.7001032647676766" fill="none" stroke="#646B70" stroke-width="0.5238095028113345" stroke-linecap="round" d="M 66.4008 39.8491 C 66.4008 39.8491 66.4205 40.2221 66.4387 40.4077 C 66.4558 40.5823 66.5892 40.7752 66.5073 40.9304 C 66.4227 41.0911 66.2056 41.154 66.0275 41.1889 C 65.8562 41.2223 65.6809 41.1449 65.5075 41.126 C 65.3341 41.1071 65.0513 41.2377 64.9859 41.076 C 64.8291 40.689 64.9795 39.8221 64.9795 39.8221 "/>
    </g>
  </g>
  <path id="ID0.7001032647676766" fill="none" stroke="#646B70" stroke-width="0.5238095652416765" stroke-linecap="round" d="M 57.6605 42.372 C 57.6605 42.372 57.6018 42.0031 57.5643 41.8205 C 57.529 41.6486 57.3761 41.4708 57.4413 41.3078 C 57.5086 41.1391 57.7179 41.0538 57.8913 41.0005 C 58.0582 40.9493 58.2406 41.008 58.4151 41.0086 C 58.5895 41.0092 58.857 40.8496 58.939 41.0036 C 59.1355 41.372 59.0769 42.2499 59.0769 42.2499 "/>
  <path id="ID0.7001032647676766" fill="none" stroke="#646B70" stroke-width="0.5238095652416765" stroke-linecap="round" d="M 59.1605 42.372 C 59.1605 42.372 59.1018 42.0031 59.0643 41.8205 C 59.029 41.6486 58.8761 41.4708 58.9413 41.3078 C 59.0086 41.1391 59.2179 41.0538 59.3913 41.0005 C 59.5582 40.9493 59.7406 41.008 59.9151 41.0086 C 60.0895 41.0092 60.357 40.8496 60.439 41.0036 C 60.6355 41.372 60.5769 42.2499 60.5769 42.2499 "/>
  <g id="ID0.07771636918187141">
    <path id="ID0.7001032647676766" fill="none" stroke="#646B70" stroke-width="0.5238095652272582" stroke-linecap="round" d="M 60.2105 42.522 C 60.2105 42.522 60.1518 42.1531 60.1143 41.9705 C 60.079 41.7986 59.9261 41.6208 59.9913 41.4578 C 60.0586 41.2891 60.2679 41.2038 60.4413 41.1505 C 60.6082 41.0993 60.7906 41.158 60.9651 41.1586 C 61.1395 41.1592 61.407 40.9996 61.489 41.1536 C 61.6855 41.522 61.6269 42.3999 61.6269 42.3999 "/>
    <path id="ID0.7001032647676766" fill="none" stroke="#646B70" stroke-width="0.5238095652272582" stroke-linecap="round" d="M 61.7105 42.372 C 61.7105 42.372 61.6518 42.0031 61.6143 41.8205 C 61.579 41.6486 61.4261 41.4708 61.4913 41.3078 C 61.5586 41.1391 61.7679 41.0538 61.9413 41.0005 C 62.1082 40.9493 62.2906 41.008 62.4651 41.0086 C 62.6395 41.0092 62.907 40.8496 62.989 41.0036 C 63.1855 41.372 63.1269 42.2499 63.1269 42.2499 "/>
  </g>
  <path id="ID0.7001032647676766" fill="none" stroke="#646B70" stroke-width="0.5238095628793856" stroke-linecap="round" d="M 63.7492 42.6009 C 63.7492 42.6009 63.7295 42.2279 63.7113 42.0423 C 63.6942 41.8677 63.5608 41.6748 63.6427 41.5196 C 63.7273 41.3589 63.9444 41.296 64.1225 41.2611 C 64.2938 41.2277 64.4691 41.3051 64.6425 41.324 C 64.8159 41.3429 65.0987 41.2123 65.1641 41.374 C 65.3209 41.761 65.1706 42.6279 65.1706 42.6279 "/>
  <path id="ID0.7001032647676766" fill="none" stroke="#646B70" stroke-width="0.5238095652416765" stroke-linecap="round" d="M 73.4905 42.4504 C 73.4905 42.4504 73.5606 42.0834 73.6037 41.9021 C 73.6443 41.7314 73.8026 41.5583 73.7426 41.3934 C 73.6805 41.2227 73.4739 41.131 73.3022 41.0723 C 73.137 41.016 72.9529 41.069 72.7785 41.0642 C 72.6041 41.0594 72.3416 40.8916 72.2549 41.043 C 72.0471 41.4052 72.0786 42.2844 72.0786 42.2844 "/>
  <path id="ID0.7001032647676766" fill="none" stroke="#646B70" stroke-width="0.5238095652416765" stroke-linecap="round" d="M 71.9905 42.4504 C 71.9905 42.4504 72.0606 42.0834 72.1037 41.9021 C 72.1443 41.7314 72.3026 41.5583 72.2426 41.3934 C 72.1805 41.2227 71.9739 41.131 71.8022 41.0723 C 71.637 41.016 71.4529 41.069 71.2785 41.0642 C 71.1041 41.0594 70.8416 40.8916 70.7549 41.043 C 70.5471 41.4052 70.5786 42.2844 70.5786 42.2844 "/>
  <path id="ID0.7001032647676766" fill="none" stroke="#646B70" stroke-width="0.5238095652416765" stroke-linecap="round" d="M 70.0905 42.5004 C 70.0905 42.5004 70.1606 42.1334 70.2037 41.9521 C 70.2443 41.7814 70.4026 41.6083 70.3426 41.4434 C 70.2805 41.2727 70.0739 41.181 69.9022 41.1223 C 69.737 41.066 69.5529 41.119 69.3785 41.1142 C 69.2041 41.1094 68.9416 40.9416 68.8549 41.093 C 68.6471 41.4552 68.6786 42.3344 68.6786 42.3344 "/>
  <path id="ID0.7001032647676766" fill="none" stroke="#646B70" stroke-width="0.5238095652416765" stroke-linecap="round" d="M 68.5905 42.6004 C 68.5905 42.6004 68.6606 42.2334 68.7037 42.0521 C 68.7443 41.8814 68.9026 41.7083 68.8426 41.5434 C 68.7805 41.3727 68.5739 41.281 68.4022 41.2223 C 68.237 41.166 68.0529 41.219 67.8785 41.2142 C 67.7041 41.2094 67.4416 41.0416 67.3549 41.193 C 67.1471 41.5552 67.1786 42.4344 67.1786 42.4344 "/>
  <path id="ID0.7001032647676766" fill="none" stroke="#646B70" stroke-width="0.5238095573111431" stroke-linecap="round" d="M 66.9841 42.7302 C 66.9841 42.7302 67.0154 42.358 67.0393 42.1731 C 67.0618 41.9991 67.201 41.8104 67.124 41.6527 C 67.0444 41.4894 66.8294 41.4199 66.6525 41.3795 C 66.4823 41.3408 66.3047 41.4128 66.1308 41.4263 C 65.9569 41.4398 65.6782 41.3005 65.6079 41.4601 C 65.4392 41.8421 65.5626 42.7132 65.5626 42.7132 "/>
  <path id="ID0.44800941413268447" fill="none" stroke="#2E3234" stroke-width="0.6130029249851505" stroke-linecap="round" d="M 68.6607 33.9402 L 66.8735 32.611 L 63.552 33.6037 "/>
  <path id="ID0.44800941413268447" fill="none" stroke="#33383A" stroke-width="1.0503597228235653" stroke-linecap="round" d="M 67.262 27.917 L 68.9565 23.6362 L 73.3791 21.2623 L 79.941 21.4952 "/>
  <g id="ID0.6897007944062352">
    <path id="ID0.2692581438459456" fill="#7AABFF" stroke="none" d="M 75.5456 24.5345 C 75.2283 24.4387 74.9027 24.4813 74.632 24.6264 C 74.3614 24.7715 74.1458 25.0192 74.05 25.3364 C 73.9542 25.6537 73.9967 25.9793 74.1418 26.25 C 74.2869 26.5206 74.5346 26.7363 74.8519 26.8321 C 75.1691 26.9279 75.4948 26.8853 75.7654 26.7402 C 76.0361 26.5951 76.2517 26.3474 76.3475 26.0302 C 76.4433 25.7129 76.4008 25.3872 76.2556 25.1166 C 76.1105 24.846 75.8629 24.6303 75.5456 24.5345 Z " stroke-width="1.1428571200984377"/>
    <path id="ID0.8070062398910522" fill="#192334" stroke="none" d="M 75.382 25.2178 C 75.2501 25.178 75.1138 25.1949 75.0013 25.2561 C 74.8881 25.3159 74.7986 25.4201 74.7588 25.552 C 74.719 25.6839 74.7358 25.8201 74.7971 25.9326 C 74.8569 26.0458 74.961 26.1353 75.0929 26.1751 C 75.2248 26.215 75.3611 26.1981 75.4736 26.1369 C 75.5868 26.0771 75.6763 25.9729 75.7161 25.841 C 75.7559 25.7091 75.739 25.5729 75.6778 25.4604 C 75.618 25.3471 75.5139 25.2577 75.382 25.2178 Z " stroke-width="1.111111137911344"/>
  </g>
  <g id="ID0.5823970721103251">
    <path id="ID0.2692581438459456" fill="#7AABFF" stroke="none" d="M 59.3267 24.4921 C 59.6468 24.4062 59.971 24.4588 60.237 24.6122 C 60.503 24.7656 60.7109 25.0198 60.7968 25.3399 C 60.8828 25.66 60.8302 25.9842 60.6767 26.2502 C 60.5233 26.5162 60.2691 26.7241 59.949 26.81 C 59.6289 26.896 59.3048 26.8433 59.0387 26.6899 C 58.7727 26.5365 58.5648 26.2823 58.4789 25.9622 C 58.393 25.6421 58.4456 25.3179 58.599 25.0519 C 58.7524 24.7859 59.0067 24.578 59.3267 24.4921 Z " stroke-width="1.1428571056029395"/>
    <path id="ID0.8070062398910522" fill="#192334" stroke="none" d="M 59.6012 25.043 C 59.7342 25.0073 59.8699 25.0284 59.9804 25.093 C 60.0918 25.1563 60.178 25.2632 60.2137 25.3962 C 60.2494 25.5293 60.2283 25.665 60.1637 25.7755 C 60.1004 25.8869 59.9935 25.9731 59.8604 26.0088 C 59.7274 26.0445 59.5917 26.0234 59.4812 25.9587 C 59.3698 25.8954 59.2836 25.7886 59.2479 25.6555 C 59.2122 25.5225 59.2333 25.3868 59.2979 25.2762 C 59.3612 25.1649 59.4681 25.0787 59.6012 25.043 Z " stroke-width="1.111111226062502"/>
  </g>
  <path id="ID0.023752907756716013" fill="none" stroke="#584E44" stroke-width="1.1814346310524628" stroke-linecap="round" d="M 55.6235 22.9016 L 58.9177 23.1316 L 61.277 24.1595 "/>
  <path id="ID0.023752907756716013" fill="none" stroke="#584E44" stroke-width="1.1814345717284167" stroke-linecap="round" d="M 77.6473 23.309 L 74.3476 23.4369 L 71.9576 24.3913 "/>
  <g id="ID0.5880346246995032">
    <path id="ID0.6829322893172503" fill="#1D1E1F" stroke="none" stroke-linecap="round" d="M 112.0211 112.0676 L 109.1239 100.8422 L 115.1807 98.7557 L 121.802 95.9519 L 127.3997 97.1052 L 131.8741 98.6523 L 134.461 101.2693 L 140.7699 104.028 L 139.6226 108.5849 L 137.3763 109.3725 L 136.8468 110.9306 L 133.5889 113.5938 L 129.8899 116.3745 L 125.0799 117.4675 L 118.2476 115.2261 L 112.0211 112.0676 Z " stroke-width="0.8164595300180623"/>
    <g id="ID0.9434720128774643">
      <path id="ID0.6507829907350242" fill="#282828" stroke="none" stroke-linecap="round" d="M 48.5463 107.7396 L 57.5258 87.6242 L 77.4478 92.6875 L 89.6202 96.3209 L 105.4135 99.5749 L 112.7202 98.7046 L 112.1852 113.641 L 105.0648 111.382 L 95.0981 111.2041 L 82.3266 111.4903 L 69.1274 109.6044 L 48.5463 107.7396 Z " stroke-width="0.8164595300180623"/>
      <path id="ID0.9892375003546476" fill="none" stroke="#191919" stroke-width="1.9999998573373274" stroke-linecap="round" d="M 111.4816 112.9847 L 111.5125 99.2074 L 102.6829 99.9407 "/>
    </g>
  </g>
  <path id="ID0.7729651997797191" fill="#282828" stroke="none" stroke-linecap="round" d="M 5.8079 89.28 L 5.7854 69.2235 L 32.4232 77.0362 L 43.6713 83.1353 L 53.8137 86.4669 L 62.9683 90.707 L 55.8482 106.4938 L 47.6702 107.3217 L 21.2974 98.0424 L 5.8079 89.28 Z " stroke-width="1.0371909997573505"/>
  <path id="ID0.4757494777441025" fill="#282828" stroke="none" stroke-linecap="round" d="M 11.5579 61.9035 L 19.8218 58.1604 L 36.8494 59.9078 L 33.2809 86.5075 L 23.7432 93.3989 L 19.3707 95.316 L 15.6801 93.5909 L 12.2399 91.2127 L 5.9788 89.7314 L 4.8412 84.3738 L 4.0592 76.2838 L 5.7594 67.4822 L 11.5579 61.9035 Z " stroke-width="0.48299248891069474"/>
</svg>