<svg xmlns="http://www.w3.org/2000/svg" xmlns:xlink="http://www.w3.org/1999/xlink" version="1.1" width="177.2068988841387" height="275.88176460679495" viewBox="14.29188289435644 -0.1600851794884699 177.2068988841387 275.88176460679495">
  <defs>
    <linearGradient id="grad_1" y2="1" x2="0">
      <stop offset="0" stop-color="#222325" stop-opacity="1"/>
      <stop offset="1" stop-color="#2E3034" stop-opacity="1"/>
    </linearGradient>
  </defs>
  <!-- Exported by Scratch - http://scratch.mit.edu/ -->
  <path id="ID0.21634112810716033" fill="#0D0D0D" stroke="#0D0D0D" stroke-width="2.6342683520450367" stroke-linecap="round" d="M 138.8534 201.0434 C 145.5753 199.5283 144.8061 194.8956 147.4187 192.5444 C 148.1326 191.8854 147.972 194.3214 148.11 195.2565 C 148.2653 196.3019 148.1287 197.4279 148.2974 198.4685 C 149.4709 205.4899 149.2852 207.1913 149.63 209.8887 C 149.7459 210.8338 150.2428 211.649 150.3212 212.6008 C 150.3955 213.504 150.0096 214.4815 150.0839 215.3847 C 150.1624 216.3365 150.4461 217.2391 150.7752 218.0968 C 151.0785 218.8883 151.8076 219.4578 151.9703 220.309 C 152.1383 221.1837 151.7636 222.1705 151.7329 223.0929 C 151.6673 225.0966 151.3298 227.1831 151.683 229.0889 C 152.1817 231.7763 153.4508 234.1597 154.2606 236.7252 C 154.5397 237.607 154.6228 238.5796 154.9519 239.4373 C 155.2552 240.2287 155.7971 240.8837 156.147 241.6494 C 157.2216 243.9981 158.241 246.388 159.2284 248.7858 C 159.8956 250.4055 160.9474 251.8968 161.1148 253.71 C 161.2026 254.6592 160.1393 255.5869 159.9489 256.5659 C 159.5875 258.4247 159.8438 260.3518 159.4742 262.1338 C 156.5387 269.2142 152.6377 269.636 148.9855 271.0121 C 147.9872 271.3825 147.2438 270.2343 146.3451 270.0642 C 145.4722 269.8939 144.462 270.3612 143.5594 270.2798 C 142.6083 270.194 141.6485 270.0046 140.8528 269.5675 C 140.1408 269.1764 139.799 268.3382 139.1538 267.8553 C 138.4897 267.3573 137.6841 267.0472 136.9511 266.643 C 136.218 266.2388 135.4903 266.108 134.7483 265.4308 C 131.782 262.7215 129.0823 259.7206 126.2536 256.8697 C 125.1221 255.7294 123.8711 254.6924 122.8557 253.4453 C 122.3321 252.8028 122.1992 251.8626 121.6606 251.2332 C 120.0927 249.4011 118.1317 247.9286 116.5638 246.0966 C 116.0253 245.4671 115.8616 244.5524 115.3687 243.8844 C 114.8909 243.2355 114.1476 242.8211 113.6698 242.1722 C 113.177 241.5042 113.0232 240.5814 112.4747 239.9601 C 110.3483 237.549 107.8054 235.5223 105.6789 233.1112 C 105.1305 232.49 104.5566 231.7766 104.4839 230.8991 C 104.3965 229.8356 104.7229 228.6571 105.225 227.6152 C 106.0532 225.8963 107.1246 224.225 108.4063 222.7596 C 110.894 219.9157 113.5713 217.1844 116.4678 214.7606 C 117.2773 214.083 118.3786 213.9978 119.3326 213.617 C 120.2866 213.2361 121.3161 213.0403 122.1974 212.4733 C 122.986 211.9661 123.5417 211.1395 124.2128 210.4736 C 124.8839 209.8076 125.4396 208.981 126.2282 208.4738 C 127.1095 207.9069 128.188 207.851 129.093 207.3302 C 131.5957 205.8901 133.9752 204.1848 136.4133 202.6151 C 137.2263 202.0921 138.0216 201.376 138.8534 201.0434 Z "/>
  <path id="ID0.7766774026677012" fill="#0D0D0D" stroke="#0D0D0D" stroke-width="1.8077516373781657" stroke-linecap="round" d="M 155.9196 161.4864 C 157.7805 134.9475 161.1787 107.577 152.7002 80.8223 C 149.4937 70.7069 134.7273 64.2488 123.0977 59.2136 C 117.7892 56.9178 111.875 60.0796 106.3402 60.7494 C 104.7689 60.9363 103.5509 61.6095 102.1933 61.9894 C 100.2872 62.3695 98.2994 62.5849 96.5562 63.0279 C 95.9389 63.1861 95.3179 63.3406 94.7408 63.5827 C 94.0681 63.7719 93.5329 64.0997 92.9061 64.335 C 91.6066 64.7596 90.3032 65.2236 89.0076 65.6086 C 87.7196 65.9146 86.3896 66.135 85.1475 66.4872 C 84.5283 66.6436 83.8634 66.7538 83.332 67.0421 C 82.7013 67.3169 82.2501 67.8161 81.7073 68.2229 C 81.1721 68.5507 80.6369 68.8785 80.1017 69.2062 C 79.5704 69.4945 78.89 69.7627 78.4962 70.1896 C 78.0565 70.5703 77.8995 71.1493 77.5973 71.6687 C 77.2989 72.1485 76.9509 72.6216 76.6984 73.1477 C 76.1514 74.1141 75.6502 75.1267 75.149 76.1394 C 74.8506 76.6192 74.5523 77.0991 74.2501 77.6184 C 73.9517 78.0983 73.6534 78.5781 73.3512 79.0975 C 73.0528 79.5773 72.7545 80.0572 72.4523 80.5765 C 72.1539 81.0563 71.7563 81.5228 71.5534 82.0555 C 71.3047 82.5421 71.2547 83.0555 71.1512 83.6017 C 71.0019 84.1017 70.8526 84.6017 70.7491 85.148 C 70.5998 85.6479 70.5001 86.1547 70.3469 86.6942 C 70.1479 87.1874 69.8496 87.6673 69.6964 88.2068 C 69.0994 89.6866 68.5444 91.2522 67.9932 92.7782 C 67.7942 93.2715 67.4959 93.7514 67.3427 94.2909 C 67.1437 94.7841 67.044 95.2908 66.9405 95.8371 C 66.7912 96.3371 66.5922 96.8303 66.5384 97.3833 C 66.4387 97.89 66.4384 98.4101 66.3846 98.963 C 66.2846 99.9899 66.0815 101.0428 66.077 102.1226 C 66.027 102.636 66.2026 102.8999 66.1716 103.736 C 65.9098 106.9417 65.5449 110.1736 65.2296 113.4121 C 64.9259 116.5322 64.6145 119.7313 64.3069 122.8908 C 64.1569 124.4311 64.049 126.0571 63.8455 127.6302 C 63.7459 128.1369 63.5965 128.6369 63.4433 129.1764 C 63.0796 130.3277 62.6204 131.426 62.3522 132.6302 C 62.2029 133.1302 62.2523 133.657 62.1984 134.2099 C 62.0988 134.7167 61.8998 135.2099 61.7963 135.7562 C 61.4976 136.7561 61.1454 137.7889 60.992 138.8486 C 60.7926 139.862 60.7882 140.9418 60.6844 142.0081 C 60.3806 145.1282 60.0692 148.3273 59.7616 151.4868 C 59.6886 152.2372 59.7114 152.5204 59.6079 153.0666 C 59.4585 153.5666 59.1105 154.0397 58.9573 154.5792 C 58.4597 156.0725 58.153 157.6716 57.7509 159.2178 C 57.6015 159.7178 57.5019 160.2246 57.3487 160.764 C 56.943 161.8296 56.3883 162.875 56.0284 163.9868 C 55.8256 164.5195 55.7144 165.1447 55.607 165.7304 C 55.4539 166.2699 55.2472 166.8422 55.1857 167.4741 C 55.086 167.9808 55.0857 168.501 55.0319 169.0539 C 54.9819 169.5673 54.8326 170.0673 54.8781 170.6337 C 54.9271 171.6807 55.1711 172.7941 55.3156 173.894 C 55.365 174.4209 55.4143 174.9477 55.4102 175.5074 C 55.3602 176.0208 55.3102 176.5342 55.2564 177.0871 C 55.2064 177.6006 55.1564 178.114 55.1026 178.6669 C 54.9033 179.6803 54.7995 180.7467 54.5467 181.7929 C 54.2518 182.7534 53.5132 184.6543 53.5132 184.6543 C 53.2264 185.0156 52.3896 187.1801 51.9061 188.2383 C 51.6438 188.8135 51.2678 189.3461 50.988 189.9149 C 50.7446 190.4093 50.5546 190.9239 50.3375 191.4275 C 50.1204 191.9311 49.865 192.424 49.687 192.9401 C 49.513 193.4448 49.4587 193.9816 49.2848 194.4863 C 49.1067 195.0024 48.8883 195.5091 48.6343 195.9989 C 48.3714 196.5068 47.9603 196.9562 47.7354 197.478 C 47.5234 197.9703 47.4669 198.5093 47.3332 199.0242 C 47.1996 199.5391 47.0647 200.0555 46.9311 200.5704 C 46.7974 201.0853 46.6626 201.6017 46.5289 202.1166 C 46.3952 202.6315 46.2062 203.1365 46.1268 203.6628 C 45.9698 204.7068 45.9762 205.7784 45.8192 206.8224 C 45.7398 207.3486 45.5507 207.8536 45.417 208.3686 C 45.2834 208.8835 45.0943 209.3885 45.0149 209.9148 C 44.8579 210.9587 44.7819 212.0184 44.7073 213.0743 C 44.558 215.1869 44.4788 217.3138 44.3405 219.427 C 44.3062 219.9554 44.2379 220.4808 44.1867 221.0068 C 44.1355 221.5329 44.1258 222.067 44.0329 222.5866 C 43.9397 223.1102 43.8047 223.6281 43.6308 224.1328 C 43.4527 224.6489 43.117 225.1189 42.9802 225.6454 C 42.8469 226.1564 42.9193 226.7056 42.8264 227.2252 C 42.7332 227.7488 42.5175 228.2478 42.4243 228.7714 C 42.3314 229.2911 42.3634 229.8316 42.2705 230.3512 C 42.1772 230.8748 42.0423 231.3927 41.8683 231.8974 C 41.6903 232.4135 41.3959 232.8939 41.2178 233.41 C 41.0439 233.9147 40.9896 234.4516 40.8157 234.9562 C 40.6376 235.4724 40.3295 235.9493 40.1651 236.4689 C 39.8438 237.485 39.6292 238.5316 39.3608 239.5613 C 39.2271 240.0762 39.0923 240.5926 38.9587 241.1075 C 38.825 241.6224 38.6498 242.1301 38.5565 242.6537 C 38.4636 243.1733 38.4121 243.7025 38.4027 244.2335 C 38.3929 244.7683 38.5211 245.313 38.4973 245.8468 C 38.4496 246.9056 38.4553 247.9843 38.1897 249.0064 C 37.9161 250.0594 37.3715 251.0421 36.8887 252.0316 C 36.6384 252.5444 36.2526 253.0028 35.9898 253.5107 C 35.7357 254.0005 35.5933 254.5335 35.3393 255.0233 C 35.0764 255.5312 34.6243 255.9678 34.4404 256.5024 C 34.2678 257.0032 33.9386 257.6037 34.2866 258.0821 C 34.6576 258.5925 35.5212 258.7789 36.2158 258.9432 C 36.8711 259.0982 37.5554 258.9242 38.222 259.0144 C 38.8886 259.1045 39.5231 259.3903 40.1897 259.4805 C 40.8563 259.5706 41.527 259.4948 42.1959 259.5516 C 42.8598 259.6078 43.5325 259.6659 44.1828 259.8203 C 44.8528 259.9789 45.5357 260.1712 46.1313 260.4838 C 46.7528 260.8104 47.1166 261.4365 47.7737 261.7063 C 48.3854 261.9578 49.099 261.8854 49.7607 261.9749 C 50.4223 262.0644 51.0845 262.2203 51.7476 262.2435 C 52.4307 262.2679 53.0899 262.0929 53.773 262.1172 C 54.4361 262.1404 55.1025 262.2634 55.7599 262.3859 C 56.4223 262.509 57.0652 262.7288 57.7276 262.852 C 58.3851 262.9745 59.0643 262.9663 59.7146 263.1206 C 60.3846 263.2792 60.993 263.6256 61.6631 263.7842 C 62.3134 263.9385 62.9926 263.9303 63.65 264.0528 C 64.3124 264.176 64.9624 264.3639 65.6177 264.5189 C 66.273 264.6739 66.9172 264.9115 67.5854 264.985 C 69.5812 265.2044 71.5871 265.226 73.5847 265.396 C 74.2486 265.4521 74.9142 265.5421 75.5716 265.6646 C 76.234 265.7878 76.8749 266.0185 77.5393 266.1307 C 78.8574 266.353 80.1951 266.4458 81.5132 266.668 C 82.1777 266.7803 82.8185 267.0109 83.4809 267.1341 C 84.1383 267.2566 84.804 267.3466 85.4678 267.4028 C 86.1367 267.4596 86.8052 267.4171 87.474 267.4739 C 88.1379 267.5301 88.7971 267.6864 89.4609 267.7425 C 90.1298 267.7994 90.7982 267.7681 91.4671 267.8137 C 92.7969 267.9047 94.1339 267.9742 95.4602 268.1535 C 96.1268 268.2436 96.7818 268.433 97.4279 268.6196 C 98.0887 268.8106 98.7064 269.1246 99.3764 269.2832 C 100.0267 269.4375 100.7017 269.4624 101.3633 269.5518 C 103.3483 269.8202 105.3449 270.0405 107.3241 270.3577 C 107.9891 270.4645 108.6295 270.7007 109.2918 270.8238 C 109.9493 270.9463 110.6149 271.0363 111.2788 271.0925 C 111.9476 271.1493 112.6169 271.1397 113.2849 271.1636 C 113.953 271.1875 114.6223 271.178 115.2911 271.2348 C 115.955 271.291 116.6179 271.5126 117.278 271.5034 C 117.9825 271.4939 117.7047 271.2978 119.3226 271.1797 C 125.7934 270.7068 136.9107 274.7804 138.9766 269.8755 C 146.3441 252.3745 140.4503 231.7313 143.3551 213.0068 C 146.0319 195.7672 154.6508 179.2245 155.9196 161.4864 Z "/>
  <path id="ID0.21634112810716033" fill="#0D0D0D" stroke="#0D0D0D" stroke-width="3.173970417341808" stroke-linecap="round" d="M 67.1586 190.7486 C 61.8718 183.9631 64.8082 179.5844 63.6083 175.0568 C 63.2885 173.8018 62.2506 176.538 61.6733 177.4351 C 61.0271 178.4372 60.6032 179.7498 59.9473 180.7366 C 55.4899 187.367 54.8308 189.3344 53.2135 191.9631 C 52.6511 192.8879 51.8105 193.3808 51.2785 194.3415 C 50.7738 195.2533 50.6453 196.5981 50.1406 197.5098 C 49.6086 198.4705 48.9166 199.2209 48.2057 199.8882 C 47.55 200.5043 46.6206 200.5554 46.062 201.3435 C 45.4871 202.1528 45.344 203.499 44.924 204.5119 C 44.0108 206.7115 43.301 209.2086 42.06 210.9817 C 40.3096 213.4813 38.0165 215.0636 36.0465 217.1938 C 35.3687 217.9254 34.8224 218.9048 34.1115 219.5721 C 33.4558 220.1882 32.6526 220.4747 31.9678 221.0275 C 29.8657 222.7218 27.7931 224.5025 25.7454 226.3165 C 24.3619 227.5416 22.6963 228.3337 21.6667 230.1502 C 21.1275 231.1008 21.6301 232.9122 21.3258 234.1086 C 20.7478 236.3798 19.8078 238.3351 19.0499 240.4453 C 18.6718 241.5011 18.4167 242.7018 17.912 243.6136 C 17.38 244.5743 16.2993 244.8091 15.9771 245.992 C 15.6808 247.0817 16.1414 248.5436 16.2243 249.8173 C 16.3072 251.0909 16.0449 252.4291 16.4715 253.6425 C 17.2598 255.886 18.1806 258.6003 19.6979 259.7047 C 21.3053 260.874 22.9916 259.7143 24.6119 259.5631 C 25.4159 259.488 26.1352 258.7101 26.9645 259.0309 C 27.844 259.3714 28.5074 260.7951 29.3555 261.4008 C 30.2492 262.0389 31.2009 262.5726 32.1257 262.7146 C 32.9533 262.8418 33.6661 262.205 34.4783 262.1823 C 35.3149 262.158 36.187 262.4439 37.0398 262.5731 C 37.8925 262.7023 38.6079 263.1207 39.6012 262.9639 C 43.5728 262.335 47.4471 261.1887 51.3642 260.3025 C 52.931 259.948 54.5548 259.796 56.0694 259.2379 C 56.8502 258.9506 57.4253 258.0443 58.2132 257.7826 C 60.5065 257.0211 62.9776 256.9472 65.2709 256.1857 C 66.0587 255.9241 66.6491 255.0686 67.4147 254.7304 C 68.1576 254.4013 69.0244 254.5273 69.7673 254.1981 C 70.5329 253.86 71.1183 252.9881 71.911 252.7428 C 74.9856 251.7891 78.2469 251.5674 81.3214 250.6137 C 82.1142 250.3683 82.9743 250.0437 83.4652 249.1584 C 84.0594 248.0847 84.3386 246.5699 84.3943 245.067 C 84.4862 242.5874 84.3371 239.9722 83.8998 237.4164 C 83.0508 232.4562 81.9774 227.4711 80.5584 222.6476 C 80.1618 221.2994 79.2166 220.3625 78.5467 219.2216 C 77.8768 218.0807 77.0495 217.0802 76.535 215.7955 C 76.0747 214.6461 75.9778 213.3328 75.6997 212.1033 C 75.4215 210.8738 75.3247 209.5606 74.8643 208.4111 C 74.3498 207.1264 73.4107 206.2386 72.8526 204.9851 C 71.3092 201.5191 70.0048 197.8631 68.5821 194.3077 C 68.1075 193.1227 67.7424 191.744 67.1586 190.7486 Z "/>
  <path id="ID0.3809091211296618" fill="#393D40" stroke="none" stroke-linecap="round" d="M 123.5545 185.1181 L 128.0741 167.6037 L 136.7535 156.0205 L 145.028 152.6347 L 160.385 150.3576 L 165.3958 152.0453 L 171.0854 169.7214 L 158.7167 175.6728 L 149.7278 178.4573 L 123.5545 185.1181 Z " stroke-width="0.6733301246556747"/>
  <g id="ID0.9602425838820636">
    <g id="ID0.17693647183477879">
      <path id="ID0.7729651997797191" fill="#393C40" stroke="none" stroke-linecap="round" d="M 164.341 99.1025 L 145.5548 103.5734 L 151.7906 118.8885 L 156.7226 131.2691 L 161.3057 136.0021 L 165.1363 138.6925 L 176.4573 133.3527 L 176.8273 127.556 L 168.3623 109.6658 L 164.341 99.1025 Z " stroke-width="0.7788098529418102"/>
      <path id="ID0.9716172609478235" fill="#34373A" stroke="none" stroke-linecap="round" d="M 161.3876 105.2719 L 165.6016 102.2423 L 162.7639 96.4135 L 147.4442 108.5007 L 150.779 110.8429 L 156.266 111.7019 L 161.3876 105.2719 Z " stroke-width="0.7788098529418102"/>
      <g id="ID0.38066427363082767">
        <path id="ID0.4757494777441025" fill="#1D1E1F" stroke="none" stroke-linecap="round" d="M 151.4644 77.2572 L 143.0592 76.652 L 128.8732 83.8586 L 140.7762 106.4449 L 151.3285 109.4411 L 155.7548 109.7045 L 158.3836 106.9395 L 160.579 103.6738 L 165.5175 100.2744 L 164.7297 95.1097 L 162.7287 87.6213 L 158.3397 80.3199 L 151.4644 77.2572 Z " stroke-width="0.4541860136580067"/>
        <path id="ID0.6007084371522069" fill="none" stroke="#0D0D0D" stroke-width="0.9083720273160134" stroke-linecap="round" d="M 165.1288 100.6882 L 160.6909 103.6543 L 157.2706 107.8257 L 155.7744 109.8164 L 151.3285 109.4411 L 146.8185 108.0396 "/>
      </g>
    </g>
    <g id="ID0.7397577832452953">
      <path id="ID0.6726378230378032" fill="#34373A" stroke="none" stroke-linecap="round" d="M 175.6324 124.9715 L 161.8931 136.1499 L 163.0359 138.1638 L 176.3648 126.8991 L 175.6324 124.9715 Z " stroke-width="0.7788098529418102"/>
      <path id="ID0.6507829907350242" fill="#1D1E1F" stroke="none" stroke-linecap="round" d="M 179.0188 125.3939 L 162.8589 138.1024 L 166.3614 155.872 L 170.0232 165.5099 L 172.6726 180.6615 L 173.1704 186.8994 L 184.8215 186.8387 L 183.9401 180.6678 L 184.0565 171.16 L 184.6959 158.9911 L 184.8458 149.675 L 179.0188 125.3939 Z " stroke-width="0.7788098529418102"/>
      <path id="ID0.6829322893172503" fill="#1D1E1F" stroke="none" stroke-linecap="round" d="M 185.138 186.3881 L 174.5182 183.3036 L 172.355 189.0186 L 169.4917 195.2513 L 170.4307 200.6215 L 171.7774 204.9321 L 174.1984 207.4736 L 176.6476 213.568 L 181.0253 212.6049 L 181.8407 210.4857 L 183.3415 210.0257 L 185.9742 206.9958 L 188.7317 203.5488 L 189.9118 198.994 L 187.9708 192.4154 L 185.138 186.3881 Z " stroke-width="0.7788098529418102"/>
      <path id="ID0.47767175547778606" fill="none" stroke="#0D0D0D" stroke-width="1.5576197058836203" stroke-linecap="round" d="M 179.6694 129.1147 L 178.7301 125.3258 L 162.9356 138.089 L 165.5431 151.1923 "/>
      <path id="ID0.5922487881034613" fill="#282A2B" stroke="none" stroke-linecap="round" d="M 185.6024 157.2723 L 178.0407 153.1392 L 172.3004 154.222 L 167.4491 160.8419 L 171.2533 174.6847 L 176.9053 181.0097 L 180.1658 180.4396 L 184.7123 172.5289 L 185.6024 157.2723 Z " stroke-width="0.7788098529418102"/>
      <path id="ID0.36820242274552584" fill="#151616" stroke="none" stroke-linecap="round" d="M 180.1348 160.8139 L 172.1428 162.1323 L 176.5659 172.5067 L 177.9717 172.1818 L 180.1348 160.8139 Z " stroke-width="0.7788098529418102"/>
      <path id="ID0.13569410238415003" fill="none" stroke="#232425" stroke-width="1.5576197058836203" stroke-linecap="round" d="M 182.5769 171.0629 L 178.3871 178.753 L 172.2699 172.707 "/>
      <path id="ID0.024502143263816833" fill="none" stroke="#0D0D0D" stroke-width="1.5576197058836203" stroke-linecap="round" d="M 185.0644 157.0292 L 178.2468 153.0822 L 172.5295 153.8447 L 167.6016 160.478 L 169.854 168.3857 "/>
    </g>
  </g>
  <g id="ID0.9602425838820636">
    <g id="ID0.17693647183477879">
      <path id="ID0.7729651997797191" fill="#3E4246" stroke="none" stroke-linecap="round" d="M 76.0871 89.2774 L 95.1899 95.9797 L 87.0243 111.2715 L 80.537 123.645 L 75.2441 128.0823 L 70.9577 130.4715 L 59.7333 123.6741 L 59.9771 117.5897 L 70.7467 99.855 L 76.0871 89.2774 Z " stroke-width="0.8164595869551228"/>
      <path id="ID0.9716172609478235" fill="#393C40" stroke="none" stroke-linecap="round" d="M 78.4965 96.0311 L 74.4316 92.4143 L 78.0236 86.6448 L 92.6846 100.9122 L 88.953 102.9922 L 83.1384 103.2919 L 78.4965 96.0311 Z " stroke-width="0.8164595869551228"/>
      <g id="ID0.38066427363082767">
        <path id="ID0.4757494777441025" fill="#1D1E1F" stroke="none" stroke-linecap="round" d="M 91.8432 67.7613 L 100.673 68.0433 L 114.682 77.0984 L 99.8175 99.3563 L 88.4892 101.3342 L 83.8453 101.1282 L 81.4046 97.9595 L 79.4701 94.316 L 74.6899 90.235 L 76.0723 84.9354 L 78.9722 77.3445 L 84.3416 70.2081 L 91.8432 67.7613 Z " stroke-width="0.4761425512224913"/>
        <path id="ID0.6007084371522069" fill="none" stroke="#0D0D0D" stroke-width="0.9522851024449825" stroke-linecap="round" d="M 75.0503 90.7086 L 79.3556 94.2834 L 82.4688 99.0045 L 83.8127 101.2427 L 88.4892 101.3342 L 93.344 100.3627 "/>
      </g>
    </g>
    <g id="ID0.7397577832452953">
      <path id="ID0.6726378230378032" fill="#393C40" stroke="none" stroke-linecap="round" d="M 61.3973 114.8583 L 74.5092 128.0063 L 73.0989 129.9821 L 60.4243 116.7886 L 61.3973 114.8583 Z " stroke-width="0.8164595869551228"/>
      <path id="ID0.6507829907350242" fill="#1D1E1F" stroke="none" stroke-linecap="round" d="M 57.9269 115.0972 L 73.3965 130.1036 L 67.8144 148.2516 L 62.9494 157.9032 L 58.5411 173.4141 L 57.3446 179.8643 L 45.2025 178.5355 L 46.7918 172.1968 L 47.7031 162.2703 L 48.3582 149.5124 L 49.2138 139.7823 L 57.9269 115.0972 Z " stroke-width="0.8164595869551228"/>
      <path id="ID0.6829322893172503" fill="#1D1E1F" stroke="none" stroke-linecap="round" d="M 44.9214 178.0312 L 56.3298 175.9686 L 57.9646 182.1625 L 60.2732 188.9724 L 58.7108 194.4699 L 56.8383 198.8183 L 54.0379 201.2054 L 50.8222 207.294 L 46.3622 205.8142 L 45.7421 203.516 L 44.2272 202.8733 L 41.8112 199.4281 L 39.3104 195.5344 L 38.5746 190.6569 L 41.313 184.0082 L 44.9214 178.0312 Z " stroke-width="0.8164595869551228"/>
      <path id="ID0.47767175547778606" fill="none" stroke="#0D0D0D" stroke-width="1.6329191739102455" stroke-linecap="round" d="M 56.8444 118.9062 L 58.2353 115.0575 L 73.3179 130.0813 L 69.1759 143.4609 "/>
      <path id="ID0.5922487881034613" fill="#282A2B" stroke="none" stroke-linecap="round" d="M 47.6922 147.4745 L 56.0256 143.9862 L 61.8935 145.7387 L 66.2329 153.1682 L 60.7627 167.1889 L 54.1823 173.17 L 50.8445 172.2214 L 46.9632 163.4792 L 47.6922 147.4745 Z " stroke-width="0.8164595869551228"/>
      <path id="ID0.36820242274552584" fill="#151616" stroke="none" stroke-linecap="round" d="M 52.9656 151.8705 L 61.1556 154.1133 L 55.4168 164.4502 L 53.9862 163.9588 L 52.9656 151.8705 Z " stroke-width="0.8164595869551228"/>
      <path id="ID0.13569410238415003" fill="none" stroke="#232425" stroke-width="1.6329191739102455" stroke-linecap="round" d="M 49.2565 162.3299 L 52.7898 170.8034 L 59.8249 165.1637 "/>
      <path id="ID0.024502143263816833" fill="none" stroke="#0D0D0D" stroke-width="1.6329191739102455" stroke-linecap="round" d="M 48.1871 147.4267 L 55.7244 144.0517 L 61.603 145.4677 L 66.0209 152.9195 L 62.8134 160.9202 "/>
    </g>
  </g>
  <g id="ID0.9157347986474633">
    <path id="ID0.7477802094072104" fill="#363A3D" stroke="none" stroke-linecap="round" d="M 147.611 126.6223 L 128.8364 120.3673 L 122.0893 160.9972 L 137.0667 172.5343 L 143.3383 148.7186 L 147.611 126.6223 Z " stroke-width="0.4761425839687243"/>
    <path id="ID0.7477802094072104" fill="#363A3D" stroke="none" stroke-linecap="round" d="M 88.0461 116.7344 L 111.6473 117.7576 L 104.9002 158.3876 L 86.9979 164.4646 L 85.7107 138.7904 L 88.0461 116.7344 Z " stroke-width="0.4761425839687243"/>
    <path id="ID0.4270821204409003" fill="#3E4246" stroke="none" stroke-linecap="round" d="M 91.6623 96.9905 L 97.4675 85.2846 L 100.6541 79.9012 L 108.2631 74.0454 L 138.6777 80.5441 L 144.7865 85.9025 L 146.9418 90.3631 L 151.998 102.7866 L 149.5774 113.0032 L 147.741 118.2489 L 148.2539 125.3327 L 147.8266 130.8124 L 144.5819 137.2722 L 142.1269 142.1738 L 139.4316 151.1381 L 137.3232 172.9905 L 130.9048 180.2506 L 125.1663 185.5964 L 112.323 188.966 L 101.3808 184.084 L 98.6055 176.8176 L 94.7735 169.6653 L 86.8492 165.212 L 89.8755 140.0128 L 89.7932 133.2418 L 87.156 121.22 L 87.6388 110.3196 L 91.6623 96.9905 Z " stroke-width="0.4761425839687243"/>
    <path id="ID0.052435632329434156" fill="#393C40" stroke="none" stroke-linecap="round" d="M 95.4851 148.1931 L 99.8691 148.9694 L 105.8364 153.2907 L 110.8661 153.957 L 116.3745 156.6817 L 120.6835 156.3113 L 122.4055 156.1146 L 136.984 155.0845 L 136.7981 158.384 L 127.6608 161.0899 L 121.8401 159.8096 L 115.8218 161.8992 L 109.8231 157.3314 L 103.4118 156.7011 L 94.2893 151.3249 L 95.4851 148.1931 Z " stroke-width="0.4761425839687243"/>
    <path id="ID0.4987568911164999" fill="none" stroke="#27282B" stroke-width="0.9522851679374486" stroke-linecap="round" d="M 107.8489 74.6799 L 100.4938 79.7331 L 95.5678 89.051 "/>
    <path id="ID0.2889464790932834" fill="none" stroke="#27282B" stroke-width="0.9522851679374486" stroke-linecap="round" d="M 139.79 81.4321 L 144.8026 86.1258 L 148.9181 96.2211 "/>
    <path id="ID0.8373676878400147" fill="#000000" stroke="#2C2F31" stroke-width="0.6155104059455094" stroke-linecap="round" d="M 109.3949 88.1234 L 109.9853 86.6694 L 106.2458 86.9751 L 100.9119 89.4833 L 96.0169 93.7982 L 92.6838 98.959 L 98.1185 97.5665 L 102.772 98.2183 L 105.3344 99.5681 L 107.3569 102.9297 L 109.5991 102.2604 L 113.6013 102.6314 L 117.8876 104.388 L 121.1661 108.1456 L 122.7207 111.4965 L 125.3373 108.8621 L 129.4944 106.3647 L 133.7881 105.6163 L 138.8807 106.4301 L 140.5938 107.3047 L 142.7714 104.5084 L 144.9057 103.5836 L 147.389 104.5267 L 149.8974 106.5711 L 149.0914 102.5797 L 147.4686 98.3544 L 145.1438 94.9351 L 142.3727 92.2141 L 138.0576 90.6086 L 139.9037 92.8401 L 139.5725 94.5784 L 137.6577 96.4066 L 133.9362 97.029 L 130.7655 96.8165 L 128.167 96.478 L 126.2598 92.5117 L 125.493 94.4803 L 124.057 94.2067 L 122.9163 91.5614 L 121.2929 95.5598 L 117.244 95.0233 L 113.3211 93.4142 L 110.2405 91.4957 L 109.3949 88.1234 Z "/>
    <path id="ID0.5698574706912041" fill="none" stroke="#313537" stroke-width="0.9522851679374486" stroke-linecap="round" d="M 95.442 148.017 L 94.3283 151.09 L 103.3923 156.8185 L 110.1442 157.5777 L 115.6065 161.7428 "/>
    <path id="ID0.5698574706912041" fill="none" stroke="#313537" stroke-width="0.8933066562151265" stroke-linecap="round" d="M 136.7304 155.1221 L 136.7157 158.3776 L 127.5368 161.0766 L 121.7604 159.7554 L 116.0131 162.059 "/>
    <path id="ID0.8947288258932531" fill="#393C40" stroke="none" stroke-linecap="round" d="M 98.6915 136.4418 L 105.6392 137.4749 L 112.7721 140.59 L 117.4569 146.9669 L 111.1758 141.4833 L 100.8061 138.2409 L 95.2614 140.3851 L 98.6915 136.4418 Z " stroke-width="0.4761425839687243"/>
    <path id="ID0.8947288258932531" fill="#393C40" stroke="none" stroke-linecap="round" d="M 136.7617 143.7898 L 130.6476 142.6677 L 123.783 143.2363 L 118.0356 147.2368 L 124.8643 144.441 L 134.4762 144.6917 L 138.5064 148.0733 L 136.7617 143.7898 Z " stroke-width="0.42137391058675056"/>
    <path id="ID0.9897695370018482" fill="#393C40" stroke="none" stroke-linecap="round" d="M 100.0884 149.1023 L 93.7079 147.5601 L 94.8911 143.0506 L 95.4921 146.698 L 100.4946 147.6735 L 105.9805 152.1321 L 111.4407 152.6768 L 115.2462 154.7568 L 117.8954 147.2327 L 116.5234 156.9478 L 111.3319 154.0585 L 105.531 153.0952 L 100.0884 149.1023 Z " stroke-width="0.4761425839687243"/>
    <path id="ID0.9897695370018482" fill="#393C40" stroke="none" stroke-linecap="round" d="M 131.9162 154.6362 L 137.4506 155.1063 L 137.8004 150.7877 L 136.2741 153.8336 L 132.002 153.2589 L 126.3445 155.6187 L 121.8308 154.5325 L 118.197 155.2757 L 118.242 147.8765 L 116.549 156.8425 L 121.5211 155.7829 L 126.4269 156.5975 L 131.9162 154.6362 Z " stroke-width="0.4232251200282832"/>
    <path id="ID0.3524594851769507" fill="#393C40" stroke="none" stroke-linecap="round" d="M 115.9583 116.5765 L 121.4239 119.7043 L 126.1979 118.1321 L 122.4503 121.371 L 121.5645 132.5183 L 130.6529 133.1587 L 119.7812 134.9733 L 109.0416 128.4356 L 118.2687 132.0192 L 119.7181 120.8208 L 115.9583 116.5765 Z " stroke-width="0.4761425839687243"/>
    <path id="ID0.9214867809787393" fill="#393C40" stroke="none" stroke-linecap="round" d="M 99.3272 132.6136 L 102.9532 128.9442 L 107.8063 128.7848 L 101.2724 132.5264 L 100.5578 135.3761 L 105.5289 136.2499 L 113.0579 140.7581 L 104.5159 137.409 L 98.7385 136.4496 L 99.3272 132.6136 Z " stroke-width="0.4761425839687243"/>
    <path id="ID0.9214867809787393" fill="#393C40" stroke="none" stroke-linecap="round" d="M 137.0975 139.6749 L 135.0695 135.2617 L 130.9196 133.6513 L 135.4412 139.0084 L 135.1984 141.8008 L 130.6342 141.089 L 123.6133 142.8019 L 131.1603 142.443 L 136.4478 143.3211 L 137.0975 139.6749 Z " stroke-width="0.4451788576535537"/>
    <path id="ID0.8679121839813888" fill="#2C2F31" stroke="none" stroke-linecap="round" d="M 118.1665 115.8081 L 121.659 118.0291 L 125.2161 116.9547 L 125.9995 118.0501 L 121.6876 120.0369 L 116.3707 116.8855 L 118.1665 115.8081 Z " stroke-width="0.4761425839687243"/>
    <path id="ID0.24770551454275846" fill="none" stroke="#313537" stroke-width="0.9522851679374486" stroke-linecap="round" d="M 122.3321 114.6161 L 126.3267 118.8994 L 133.6467 120.5977 L 141.3375 120.7888 L 147.1284 117.8892 "/>
    <path id="ID0.20603158557787538" fill="none" stroke="#313537" stroke-width="0.9522851679374486" stroke-linecap="round" d="M 90.1175 105.1598 L 96.1682 111.5946 L 107.8541 116.7931 L 115.1147 117.3955 L 121.8644 114.5344 "/>
    <g id="ID0.5272086253389716">
      <path id="ID0.24770551454275846" fill="none" stroke="#363A3D" stroke-width="0.9522851066969494" stroke-linecap="round" d="M 88.2397 137.7403 L 98.5284 136.2391 "/>
      <path id="ID0.24770551454275846" fill="none" stroke="#363A3D" stroke-width="0.9522851066969494" stroke-linecap="round" d="M 87.6599 125.6226 L 108.8284 122.8391 "/>
    </g>
    <g id="ID0.5272086253389716">
      <path id="ID0.24770551454275846" fill="none" stroke="#363A3D" stroke-width="0.9522850816809121" stroke-linecap="round" d="M 143.1664 145.9277 L 136.6218 142.9835 "/>
      <path id="ID0.24770551454275846" fill="none" stroke="#363A3D" stroke-width="0.9522850816809121" stroke-linecap="round" d="M 145.5149 134.7468 L 132.6074 127.7772 "/>
    </g>
    <g id="ID0.7887678607366979">
      <path id="ID0.753661650698632" fill="none" stroke="#313537" stroke-width="0.9522851066969494" stroke-linecap="round" d="M 116.4085 116.7719 L 121.1853 119.9784 L 125.6068 118.058 "/>
      <g id="ID0.8167418288066983">
        <path id="ID0.9553722990676761" fill="none" stroke="#313537" stroke-width="1.0409107773624173" stroke-linecap="round" d="M 119.4508 134.721 L 114.2648 131.6878 L 108.4861 128.7976 L 103.6237 128.9554 L 99.4611 132.6082 L 98.8956 136.0136 "/>
        <path id="ID0.5982440118677914" fill="none" stroke="#313537" stroke-width="0.8540413552749858" stroke-linecap="round" d="M 108.8712 128.4374 L 108.5641 123.0207 L 114.8871 116.9163 "/>
      </g>
      <g id="ID0.7324484633281827">
        <path id="ID0.04993448918685317" fill="none" stroke="#313537" stroke-width="0.9522851066969494" stroke-linecap="round" d="M 121.2048 119.861 L 120.1933 130.3116 L 117.972 146.5946 L 115.5353 162.7212 "/>
        <g id="ID0.8167418288066983">
          <path id="ID0.9553722990676761" fill="none" stroke="#313537" stroke-width="0.9699703335790443" stroke-linecap="round" d="M 119.7793 134.6442 L 124.969 134.1305 L 130.638 133.1412 L 134.6215 134.768 L 136.9633 139.5009 L 136.3978 142.9063 "/>
          <path id="ID0.5982440118677914" fill="none" stroke="#313537" stroke-width="0.7916616451019644" stroke-linecap="round" d="M 130.4554 132.7953 L 132.3554 127.7451 L 128.9671 120.028 "/>
          <path id="ID0.3567589442245662" fill="none" stroke="#313537" stroke-width="0.8967655480907116" stroke-linecap="round" d="M 117.8348 147.213 L 123.7108 143.1449 L 131.2525 142.4667 L 136.7058 143.3723 L 138.1556 148.319 L 137.2943 155.2952 L 131.7033 155.0908 L 125.619 157.2177 L 120.8038 156.1767 L 116.3515 157.2957 L 110.9979 153.8726 L 105.4436 153.1916 L 99.6091 149.0854 L 93.5085 147.3484 L 94.9895 140.475 L 98.2701 136.3138 L 104.467 137.3429 L 112.3763 140.587 L 117.3037 146.4491 Z "/>
        </g>
      </g>
    </g>
    <g id="ID0.9312638868577778">
      <path id="ID0.2888958193361759" fill="#393C40" stroke="none" stroke-linecap="round" d="M 96.6431 156.6172 L 106.3807 160.3471 L 105.3162 163.1261 L 95.5786 159.3962 L 96.6431 156.6172 Z " stroke-width="0.4761425490144655"/>
      <path id="ID0.2888958193361759" fill="#393C40" stroke="none" stroke-linecap="round" d="M 86.3629 152.8377 L 97.2807 157.1471 L 96.2162 159.9261 L 86.4786 156.1962 L 86.3629 152.8377 Z " stroke-width="0.4761425490144655"/>
      <g id="ID0.36424446757882833">
        <path id="ID0.7359844641759992" fill="#8A7B59" stroke="none" d="M 99.5751 156.3518 L 101.0781 156.6015 L 100.0563 162.7547 L 98.5533 162.5051 L 99.5751 156.3518 Z " stroke-width="0.4761425533484747"/>
        <path id="ID0.7359844641759992" fill="#8A7B59" stroke="none" d="M 97.7751 155.6518 L 99.2781 155.9015 L 98.2563 162.0547 L 96.7533 161.8051 L 97.7751 155.6518 Z " stroke-width="0.4761425533484747"/>
        <path id="ID0.7359844641759992" fill="#8A7B59" stroke="none" d="M 95.9751 154.6518 L 97.4781 154.9015 L 96.4563 161.0547 L 94.9533 160.8051 L 95.9751 154.6518 Z " stroke-width="0.4761425533484747"/>
        <path id="ID0.7359844641759992" fill="#8A7B59" stroke="none" d="M 101.3751 157.1518 L 102.8781 157.4015 L 101.8563 163.5547 L 100.3533 163.3051 L 101.3751 157.1518 Z " stroke-width="0.4761425533484747"/>
      </g>
      <g id="ID0.1049797898158431">
        <path id="ID0.08871637750416994" fill="#8A7B59" stroke="none" stroke-linecap="round" d="M 88.186 152.4027 L 94.332 154.4852 L 93.3685 159.9964 L 87.4613 157.9295 L 88.186 152.4027 Z " stroke-width="0.4761425533484747"/>
        <path id="ID0.13805592898279428" fill="#76694C" stroke="none" stroke-linecap="round" d="M 87.9285 152.1035 L 94.3798 154.2367 L 94.0018 157.094 L 87.5426 154.863 L 87.9285 152.1035 Z " stroke-width="0.4761425533484747"/>
        <path id="ID0.3221200187690556" fill="#61563F" stroke="none" stroke-linecap="round" d="M 90.4699 154.7587 L 91.2773 155.2595 L 91.066 157.0055 L 90.1778 156.5175 L 90.4699 154.7587 Z " stroke-width="0.5167888696955751"/>
        <path id="ID0.1420820001512766" fill="#BAA578" stroke="none" stroke-linecap="round" d="M 92.7427 158.9586 L 93.6813 157.6665 L 93.3499 159.9524 L 87.337 157.9403 L 92.7427 158.9586 Z " stroke-width="0.4761425533484747"/>
      </g>
      <path id="ID0.2888958193361759" fill="#393C40" stroke="none" stroke-linecap="round" d="M 133.7114 163.1116 L 126.0912 163.6841 L 126.102 166.2571 L 133.7222 165.6846 L 133.7114 163.1116 Z " stroke-width="0.38104699061083686"/>
      <path id="ID0.2888958193361759" fill="#393C40" stroke="none" stroke-linecap="round" d="M 140.4603 162.4152 L 133.2412 163.1841 L 133.252 165.7571 L 139.5671 165.2209 L 140.4603 162.4152 Z " stroke-width="0.38104699061083686"/>
      <path id="ID0.7359844641759992" fill="#8A7B59" stroke="none" d="M 131.8604 161.7896 L 130.7683 161.6083 L 129.8795 166.9609 L 130.9716 167.1423 L 131.8604 161.7896 Z " stroke-width="0.38160280584417416"/>
      <path id="ID0.7359844641759992" fill="#8A7B59" stroke="none" d="M 133.3104 161.5396 L 132.2183 161.3583 L 131.3295 166.7109 L 132.4216 166.8923 L 133.3104 161.5396 Z " stroke-width="0.38160280584417416"/>
      <path id="ID0.7359844641759992" fill="#8A7B59" stroke="none" d="M 134.8604 161.2896 L 133.7683 161.1083 L 132.8795 166.4609 L 133.9716 166.6423 L 134.8604 161.2896 Z " stroke-width="0.38160280584417416"/>
      <path id="ID0.7359844641759992" fill="#8A7B59" stroke="none" d="M 130.3604 162.0896 L 129.2683 161.9083 L 128.3795 167.2609 L 129.4716 167.4423 L 130.3604 162.0896 Z " stroke-width="0.38160280584417416"/>
      <g id="ID0.1049797898158431">
        <path id="ID0.08871637750416994" fill="#8A7B59" stroke="none" stroke-linecap="round" d="M 140.838 161.4328 L 135.8023 161.578 L 134.9915 166.6851 L 139.8495 166.4881 L 140.838 161.4328 Z " stroke-width="0.4054529774502679"/>
        <path id="ID0.13805592898279428" fill="#76694C" stroke="none" stroke-linecap="round" d="M 141.0889 161.2473 L 135.8176 161.3534 L 135.3089 163.9679 L 140.6128 163.778 L 141.0889 161.2473 Z " stroke-width="0.4054529774502679"/>
        <path id="ID0.3221200187690556" fill="#61563F" stroke="none" stroke-linecap="round" d="M 138.7157 162.9082 L 137.9919 163.1269 L 137.6668 164.7192 L 138.4458 164.5338 L 138.7157 162.9082 Z " stroke-width="0.4400648170555984"/>
        <path id="ID0.1420820001512766" fill="#BAA578" stroke="none" stroke-linecap="round" d="M 135.6987 165.9455 L 135.3711 164.5528 L 134.9852 166.6524 L 139.9049 166.5325 L 135.6987 165.9455 Z " stroke-width="0.4054529774502679"/>
      </g>
      <g id="ID0.6836685389280319">
        <path id="ID0.09357938077300787" fill="#857656" stroke="none" d="M 107.2953 157.5553 L 125.0269 160.4998 L 123.9739 166.8409 L 106.2423 163.8964 L 107.2953 157.5553 Z " stroke-width="0.4283320793639229"/>
        <path id="ID0.6492703901603818" fill="#7C6E50" stroke="none" stroke-linecap="round" d="M 107.6915 159.8492 L 115.287 164.2478 L 124.5072 162.6416 L 123.809 166.8456 L 106.9934 164.0531 L 107.6915 159.8492 Z " stroke-width="0.4761425533484747"/>
        <g id="ID0.9254062357358634">
          <g id="ID0.49943465692922473">
            <path id="ID0.140373723115772" fill="#968561" stroke="none" d="M 123.689 159.1244 L 128.7384 159.9629 L 127.2564 168.8874 L 122.207 168.0489 L 123.689 159.1244 Z " stroke-width="0.4761425533484747"/>
            <path id="ID0.8286363878287375" fill="#BAA578" stroke="none" stroke-linecap="round" d="M 123.6935 158.9356 L 128.8213 160.0285 L 124.6101 160.1014 L 123.2492 162.0474 L 123.6935 158.9356 Z " stroke-width="0.4761425533484747"/>
            <path id="ID0.7362233307212591" fill="#8A7B59" stroke="none" stroke-linecap="round" d="M 122.7186 164.9518 L 125.3881 165.4434 L 128.205 163.4496 L 127.2885 168.9686 L 122.1921 168.1223 L 122.7186 164.9518 Z " stroke-width="0.4761425533484747"/>
          </g>
          <g id="ID0.49943465692922473">
            <path id="ID0.140373723115772" fill="#968561" stroke="none" d="M 108.8756 156.889 L 103.8262 156.0505 L 102.3442 164.975 L 107.3936 165.8135 L 108.8756 156.889 Z " stroke-width="0.4761425533484747"/>
            <path id="ID0.8286363878287375" fill="#BAA578" stroke="none" stroke-linecap="round" d="M 108.9665 156.7066 L 103.7607 156.0834 L 107.7223 157.5136 L 108.3812 159.795 L 108.9665 156.7066 Z " stroke-width="0.4761425533484747"/>
            <path id="ID0.7362233307212591" fill="#8A7B59" stroke="none" stroke-linecap="round" d="M 107.9446 162.715 L 105.2594 162.3174 L 103.2382 159.5201 L 102.3217 165.0392 L 107.4181 165.8855 L 107.9446 162.715 Z " stroke-width="0.4761425533484747"/>
          </g>
        </g>
      </g>
    </g>
  </g>
  <g id="ID0.8333355090580881">
    <path id="ID0.9286923445761204" fill="#27282B" stroke="none" stroke-linecap="round" d="M 119.2494 41.4176 L 137.6514 45.5735 L 134.6325 69.7451 L 148.6883 78.997 L 124.442 86.9606 L 89.9554 69.2899 L 111.1473 61.6537 L 119.2494 41.4176 Z " stroke-width="0.47614259146178506"/>
    <path id="ID0.5448851804248989" fill="none" stroke="#1D1E1F" stroke-width="0.9522851829235701" stroke-linecap="round" d="M 113.3866 56.1566 L 111.3631 61.4925 L 127.1544 71.7173 L 134.3361 69.7984 "/>
    <path id="ID0.262191956397146" fill="none" stroke="#1D1E1F" stroke-width="0.9522851829235701" stroke-linecap="round" d="M 115.4101 61.4531 L 127.1049 69.4009 L 130.234 68.7233 "/>
  </g>
  <g id="ID0.3450673264451325">
    <g id="ID0.9831569031812251">
      <path id="ID0.0877610077150166" fill="#2E3034" stroke="none" stroke-linecap="round" d="M 147.2271 16.0212 L 143.8596 2.5448 L 141.2798 30.9566 L 148.9198 31.6503 L 147.2271 16.0212 Z " stroke-width="0.5866066417642142"/>
      <path id="ID0.796130308881402" fill="#242628" stroke="none" stroke-linecap="round" d="M 147.5264 16.1037 L 143.8047 2.5953 L 146.0951 16.6982 L 145.6849 31.6095 L 148.8738 31.6027 L 147.5264 16.1037 Z " stroke-width="0.5866066417642142"/>
    </g>
    <g id="ID0.9831569031812251">
      <path id="ID0.0877610077150166" fill="#2E3034" stroke="none" stroke-linecap="round" d="M 123.38 14.0764 L 129.1197 1.4269 L 126.5399 29.8387 L 118.9 29.145 L 123.38 14.0764 Z " stroke-width="0.5866066417642142"/>
      <path id="ID0.796130308881402" fill="#242628" stroke="none" stroke-linecap="round" d="M 123.064 14.0549 L 129.1579 1.4376 L 124.3649 14.8973 L 121.9605 29.2984 L 118.9471 29.0577 L 123.064 14.0549 Z " stroke-width="0.5866066417642142"/>
    </g>
    <path id="ID0.8999492498114705" fill="#2E3034" stroke="none" stroke-linecap="round" d="M 140.3617 21.4864 C 144.7045 22.3618 149.1719 25.4889 150.9443 29.5488 C 152.9664 34.1837 150.5203 39.5832 150.3671 44.5854 C 150.3856 46.2976 151.0164 48.1148 150.5402 49.7024 C 149.5705 52.9317 147.6295 55.7969 146.2636 58.879 C 145.3686 60.8989 145.0018 63.2301 143.6655 65.0197 C 142.1514 67.1441 140.5307 70.1439 137.9006 70.3627 C 134.0013 70.6866 130.108 68.4844 126.8313 66.4244 C 124.1395 64.7317 121.6969 62.2888 120.3797 59.3855 C 118.0368 54.0067 115.9981 48.1383 116.1462 42.2434 C 116.3105 35.7088 116.2729 27.6061 121.4336 23.3387 C 126.0791 19.2004 133.9056 20.1881 140.3617 21.4864 Z " stroke-width="0.5080372794381931"/>
    <path id="ID0.2441388238221407" fill="#AB8E85" stroke="none" d="M 135.9073 45.9764 C 139.9557 46.5117 145.6586 43.8517 148.1243 46.8334 C 150.3351 49.6356 146.5412 54.1725 145.2603 57.5441 C 143.9848 60.8974 142.9614 64.5585 140.4746 67.1977 C 139.2968 68.3643 137.0741 68.2344 135.3753 67.8065 C 132.3207 67.0336 129.3876 65.4785 126.9656 63.4604 C 124.4591 61.3728 121.1094 59.0309 120.832 55.7675 C 120.481 51.6335 121.6305 46.3206 125.0489 44.0447 C 128.1739 42.07 132.2664 45.4945 135.9073 45.9764 Z " stroke-width="1.2558400810781467"/>
    <path id="ID0.46721756737679243" fill="#A2887F" stroke="none" stroke-linecap="round" d="M 121.2014 45.8308 L 122.8091 46.6654 L 148.7485 48.6381 L 141.1045 53.0453 L 124.6561 49.0777 L 125.5532 51.5568 L 125.2986 57.1706 L 128.2661 64.6583 L 124.3166 57.5915 L 121.2014 45.8308 Z " stroke-width="0.5080372794381931"/>
    <path id="ID0.8256730306893587" fill="none" stroke="#937B73" stroke-width="1.0160745588763862" stroke-linecap="round" d="M 130.9149 58.529 C 130.9149 58.529 133.657 58.1791 135.0338 58.1123 C 135.3781 58.0956 135.708 58.2036 136.0388 58.28 C 136.375 58.358 136.6877 58.5547 137.0323 58.5743 C 137.7154 58.6134 138.3996 58.4776 139.0837 58.4545 C 139.423 58.4429 139.7649 58.4357 140.1025 58.4705 C 140.4406 58.5053 140.7823 58.5567 141.1052 58.6635 C 141.6361 58.8393 142.6531 59.3142 142.6531 59.3142 "/>
    <path id="ID0.7592270169407129" fill="none" stroke="#937B73" stroke-width="1.0160745588763862" stroke-linecap="round" d="M 139.394 60.6231 C 139.394 60.6231 138.7435 60.9104 138.3959 60.9406 C 138.0586 60.9702 137.7271 60.7947 137.3886 60.7981 C 137.048 60.8019 136.7193 60.9496 136.379 60.9615 C 136.0407 60.9737 135.6887 60.9744 135.3671 60.8697 C 135.0936 60.7805 134.6449 60.396 134.6449 60.396 "/>
    <path id="ID0.5332203092984855" fill="none" stroke="#937B73" stroke-width="1.0160745588763862" stroke-linecap="round" d="M 134.3797 50.7003 C 134.3797 50.7003 133.7375 51.0756 133.6024 51.3949 C 133.4258 51.8232 133.0959 52.6416 133.5083 52.9933 C 134.0604 53.3347 134.8815 52.6792 135.5666 52.7975 C 136.2293 52.9149 137.4939 53.4827 137.4939 53.4827 "/>
    <path id="ID0.2278452254831791" fill="none" stroke="#937B73" stroke-width="1.0160745588763862" stroke-linecap="round" d="M 139.0364 47.4502 C 139.0364 47.4502 139.7984 49.3895 140.1751 50.3593 C 140.3012 50.6839 140.4435 51.004 140.5455 51.3366 C 140.6474 51.6693 140.8298 52.0083 140.7847 52.3531 C 140.7396 52.699 140.505 53.0011 140.2927 53.2777 C 140.1509 53.4627 139.7431 53.7124 139.7431 53.7124 "/>
    <path id="ID0.6473136460408568" fill="none" stroke="#937B73" stroke-width="1.0160745386284473" stroke-linecap="round" d="M 137.7437 64.2916 C 137.7437 64.2916 138.0017 64.9525 138.0212 65.3002 C 138.0398 65.6388 137.9486 65.9795 137.8552 66.3055 C 137.7148 66.7968 137.3223 67.7444 137.3223 67.7444 "/>
    <path id="ID0.11669129692018032" fill="#2E3034" stroke="none" stroke-linecap="round" d="M 123.6064 40.6928 L 146.5931 44.5654 L 150.2731 47.5777 L 140.488 51.4079 L 120.1 47.0061 L 123.6064 40.6928 Z " stroke-width="0.5080372794381931"/>
    <path id="ID0.14635155349969864" fill="#2E3034" stroke="none" stroke-linecap="round" d="M 120.4747 45.6883 L 122.287 46.2354 L 124.4471 51.6604 L 124.2292 57.4305 L 125.7061 61.3906 L 128.2708 65.1688 L 120.5452 59.2386 L 120.4747 45.6883 Z " stroke-width="0.5080372794381931"/>
    <path id="ID0.28340246016159654" fill="#1C1D1F" stroke="none" stroke-linecap="round" d="M 124.0064 37.5147 L 127.2828 39.3578 L 136.8304 41.1196 L 136.3103 46.8481 L 129.4839 45.2792 L 125.7356 43.8542 L 123.8553 42.165 L 123.1509 40.3656 L 124.0064 37.5147 Z " stroke-width="0.5401026700211686"/>
    <path id="ID0.6101007834076881" fill="#FFFFFF" stroke="none" stroke-linecap="round" d="M 127.5947 40.4166 L 129.2046 40.9642 L 132.8604 42.5023 L 133.2249 44.5117 L 128.1231 42.5896 L 127.5947 40.4166 Z " stroke-width="0.40610620718450907"/>
    <path id="ID0.28340246016159654" fill="#1C1D1F" stroke="none" stroke-linecap="round" d="M 149.5312 39.8493 L 146.3613 40.9397 L 137.7036 40.9516 L 137.2398 46.0599 L 143.4796 45.7801 L 146.9962 45.1322 L 148.9168 43.9525 L 149.8236 42.4873 L 149.5312 39.8493 Z " stroke-width="0.48162497700163115"/>
    <path id="ID0.6101007834076881" fill="#FFFFFF" stroke="none" stroke-linecap="round" d="M 147.6215 41.7391 L 146.0419 42.089 L 142.4242 43.1623 L 141.8699 45.0247 L 146.8952 43.739 L 147.6215 41.7391 Z " stroke-width="0.38638675281547813"/>
    <g id="ID0.07940126257017255">
      <path id="ID0.46257128613069654" fill="#27282B" stroke="none" stroke-linecap="round" d="M 137.0556 41.0243 L 140.4811 51.3338 L 130.6033 49.1616 L 137.0556 41.0243 Z " stroke-width="0.5080372794381931"/>
      <path id="ID0.9845890481956303" fill="#27282B" stroke="none" stroke-linecap="round" d="M 137.8674 41.2225 L 145.4484 49.3077 L 140.5639 51.4148 L 137.8674 41.2225 Z " stroke-width="0.5080372794381931"/>
    </g>
    <path id="ID0.20071752788498998" fill="#202324" stroke="none" d="M 129.0836 35.7312 L 132.9751 38.6607 L 137.6001 40.254 L 137.5497 41.6522 L 129.9234 39.6845 L 124.2656 36.8242 L 126.1467 35.2095 L 129.0836 35.7312 Z " stroke-width="0.5080372794381931"/>
    <path id="ID0.20071752788498998" fill="#202324" stroke="none" d="M 146.0157 36.9278 L 142.7539 39.0887 L 137.3906 40.1696 L 137.2051 41.4398 L 144.4126 40.9242 L 150.0037 39.396 L 148.6742 37.0288 L 146.0157 36.9278 Z " stroke-width="0.4660979837123361"/>
    <path id="ID0.521138689480722" fill="none" stroke="#212325" stroke-width="0.9060627743811707" stroke-linecap="round" d="M 149.5852 39.5959 L 146.2159 40.8821 L 137.5986 41.3506 "/>
    <path id="ID0.17828734638169408" fill="none" stroke="#202324" stroke-width="1.0160745588763862" stroke-linecap="round" d="M 140.4373 50.8422 L 138.1827 43.3682 C 137.4047 40.8683 137.5011 41.4479 137.4005 40.4659 C 137.3653 40.123 137.6128 39.8078 137.6947 39.4724 C 137.7752 39.142 137.8697 38.8093 137.8878 38.4697 C 137.9062 38.1265 137.8379 37.7831 137.8026 37.4417 C 137.7474 36.9087 137.6161 35.8434 137.6161 35.8434 "/>
    <path id="ID0.521138689480722" fill="none" stroke="#212325" stroke-width="1.0160745588763862" stroke-linecap="round" d="M 124.3094 37.0867 L 127.7662 39.186 L 137.1772 41.4434 "/>
    <path id="ID0.8012696979567409" fill="none" stroke="url(#grad_1)" stroke-width="1.0160745588763862" stroke-linecap="round" d="M 148.7898 48.1827 L 140.9985 51.4033 L 122.6919 47.3945 L 124.3159 51.4189 L 124.0682 57.518 L 125.6647 61.2848 L 128.2202 65.1643 "/>
    <path id="ID0.043594349175691605" fill="#D7E2FD" stroke="none" stroke-linecap="round" d="M 132.5015 43.5246 L 132.8303 42.4322 L 133.1502 44.5273 L 130.6364 43.5593 L 132.5015 43.5246 Z " stroke-width="0.5080372794381931"/>
    <path id="ID0.043594349175691605" fill="#D7E2FD" stroke="none" stroke-linecap="round" d="M 142.6665 44.2668 L 142.4931 43.2443 L 141.9683 45.0982 L 144.3451 44.5084 L 142.6665 44.2668 Z " stroke-width="0.46186428837490134"/>
  </g>
  <g id="ID0.8669879510998726">
    <path id="ID0.5368814701214433" fill="#292D2E" stroke="none" stroke-linecap="round" d="M 140.4923 255.1935 L 143.4874 246.4008 L 148.0933 237.2116 L 157.9943 243.1957 L 169.1626 250.9732 L 186.492 261.5363 L 187.4877 268.065 L 162.7773 268.9304 L 141.5805 264.9948 L 140.4923 255.1935 Z " stroke-width="0.7702165753443064"/>
    <path id="ID0.05466862628236413" fill="#292D2E" stroke="none" stroke-linecap="round" d="M 144.4707 166.003 L 170.9414 162.2216 L 166.0127 181.0611 L 164.4244 186.0975 L 163.7835 204.2287 L 160.471 244.8463 L 144.7917 246.6831 L 142.6651 224.5357 L 139.959 215.8939 L 138.6537 206.4644 L 140.7718 192.9621 L 140.8078 180.641 L 144.4707 166.003 Z " stroke-width="0.7305889978321375"/>
    <path id="ID0.4490455654449761" fill="none" stroke="#272A2B" stroke-width="1.6585523899149508" stroke-linecap="round" d="M 144.1802 166.1898 L 170.6417 162.022 L 163.7846 186.4112 "/>
    <path id="ID0.10446935473009944" fill="none" stroke="#242728" stroke-width="1.6585523899149508" stroke-linecap="round" d="M 163.4098 198.7425 L 163.1962 215.5795 L 152.6272 222.8861 "/>
    <path id="ID0.42170455446466804" fill="none" stroke="#242728" stroke-width="1.6585523899149508" stroke-linecap="round" d="M 162.0902 216.7403 L 160.5895 231.7986 L 149.7999 239.2983 "/>
    <path id="ID0.047098892275244" fill="none" stroke="#242728" stroke-width="1.6585523899149508" stroke-linecap="round" d="M 141.0415 180.4388 L 140.5554 184.3488 L 145.0262 193.217 "/>
  </g>
  <path id="ID0.3809091211296618" fill="#3E4246" stroke="none" stroke-linecap="round" d="M 86.2967 155.6353 L 111.8585 165.9132 L 118.7816 179.3463 L 118.3151 185.0227 L 113.9018 194.7804 L 105.5816 197.2009 L 92.9792 199.4783 L 91.4349 188.468 L 89.1875 181.9043 L 86.2967 155.6353 Z " stroke-width="0.5909086413929773"/>
  <g id="ID0.38464318960905075">
    <path id="ID0.5368814701214433" fill="#303436" stroke="none" stroke-linecap="round" d="M 82.557 255.8374 L 86.5632 247.457 L 92.2156 238.8717 L 101.346 245.9763 L 111.5245 255.0106 L 127.4946 267.5342 L 127.7173 274.1347 L 103.0761 272.0945 L 82.4876 265.6987 L 82.557 255.8374 Z " stroke-width="0.770216547129682"/>
    <path id="ID0.05466862628236413" fill="#303436" stroke="none" stroke-linecap="round" d="M 96.8895 167.0885 L 123.621 166.4394 L 116.5157 184.5704 L 114.3473 189.3856 L 111.5832 207.3163 L 103.5273 247.2646 L 87.7408 247.2488 L 88.2278 225.0049 L 86.5544 216.1052 L 86.3647 206.5877 L 90.0526 193.4273 L 91.5342 181.1955 L 96.8895 167.0885 Z " stroke-width="0.7305890362007086"/>
    <path id="ID0.4490455654449761" fill="none" stroke="#272A2B" stroke-width="1.6585524115049803" stroke-linecap="round" d="M 96.7261 167.9777 L 123.494 166.9438 L 113.8222 190.3599 "/>
    <path id="ID0.10446935473009944" fill="none" stroke="#242728" stroke-width="1.6585524115049803" stroke-linecap="round" d="M 112.0031 202.562 L 109.8151 219.2576 L 98.4618 225.2735 "/>
    <path id="ID0.42170455446466804" fill="none" stroke="#242728" stroke-width="1.6585524115049803" stroke-linecap="round" d="M 108.5805 220.2806 L 105.3232 235.0588 L 93.7281 241.2405 "/>
    <path id="ID0.047098892275244" fill="none" stroke="#242728" stroke-width="1.6585524115049803" stroke-linecap="round" d="M 91.9658 181.6733 L 91.0242 185.4993 L 94.4235 194.8308 "/>
  </g>
</svg>