<svg xmlns="http://www.w3.org/2000/svg" xmlns:xlink="http://www.w3.org/1999/xlink" version="1.1" width="278.372879943026" height="318.10240264810415" viewBox="0.6145366625125539 -0.5233082278435099 278.372879943026 318.10240264810415">
  <defs>
    <linearGradient id="grad_1" y2="1" x2="0">
      <stop offset="0" stop-color="#222325" stop-opacity="1"/>
      <stop offset="1" stop-color="#2E3034" stop-opacity="1"/>
    </linearGradient>
  </defs>
  <!-- Exported by Scratch - http://scratch.mit.edu/ -->
  <path id="ID0.7766774026677012" fill="#0D0D0D" stroke="#0D0D0D" stroke-width="1.9440164176354147" stroke-linecap="round" d="M 129.025 183.7519 C 132.2672 152.3365 137.0985 119.8868 129.9544 88.5643 C 127.2523 76.722 112.7364 69.5894 101.3013 64.0323 C 96.0816 61.4986 89.9707 65.433 84.3701 66.4106 C 82.7803 66.6843 81.5207 67.5206 80.1358 68.015 C 78.1993 68.5282 76.1892 68.8496 74.4133 69.4316 C 73.7844 69.6393 73.1519 69.8428 72.559 70.1482 C 71.8728 70.3943 71.3176 70.7996 70.6751 71.0987 C 69.3463 71.644 68.0117 72.236 66.6888 72.7345 C 65.3778 73.1394 64.029 73.4444 62.7616 73.9024 C 62.1309 74.108 61.4565 74.2605 60.9073 74.619 C 60.2588 74.9649 59.7793 75.5698 59.2124 76.0687 C 58.6572 76.4739 58.1021 76.8792 57.547 77.2844 C 56.9978 77.6429 56.2997 77.9826 55.8816 78.5002 C 55.4198 78.9648 55.232 79.6541 54.9012 80.2778 C 54.5764 80.8547 54.202 81.4254 53.9209 82.0554 C 53.3208 83.2155 52.7645 84.4287 52.2082 85.6418 C 51.8834 86.2188 51.5586 86.7957 51.2278 87.4194 C 50.903 87.9964 50.5782 88.5733 50.2475 89.197 C 49.9227 89.7739 49.5978 90.3509 49.2671 90.9746 C 48.9423 91.5515 48.5183 92.1159 48.2868 92.7522 C 48.0115 93.3354 47.9348 93.9436 47.8025 94.5924 C 47.6265 95.1881 47.4505 95.7838 47.3182 96.4326 C 47.1422 97.0283 47.0158 97.6303 46.8339 98.2728 C 46.6083 98.8622 46.2834 99.4392 46.1015 100.0817 C 45.4247 101.85 44.7857 103.7183 44.1526 105.5397 C 43.927 106.1291 43.6022 106.7061 43.4203 107.3486 C 43.1947 107.938 43.0683 108.54 42.936 109.1888 C 42.76 109.7845 42.5344 110.3739 42.4517 111.029 C 42.3253 111.631 42.2981 112.2455 42.2154 112.9005 C 42.0618 114.117 41.8031 115.3677 41.7429 116.6435 C 41.6661 117.2518 41.8291 117.5575 41.7546 118.5464 C 41.3258 122.3424 40.7919 126.1728 40.3075 130.0094 C 39.8409 133.7057 39.3625 137.4955 38.8899 141.2385 C 38.6596 143.0632 38.467 144.9878 38.1811 146.8531 C 38.0548 147.455 37.8788 148.0508 37.6968 148.6933 C 37.2716 150.0656 36.7531 151.3786 36.4212 152.8103 C 36.2452 153.406 36.2676 154.0267 36.1849 154.6818 C 36.0585 155.2837 35.8329 155.8732 35.7006 156.522 C 35.3486 157.7134 34.9411 158.9454 34.732 160.2024 C 34.4792 161.4063 34.419 162.6821 34.2595 163.9454 C 33.7929 167.6417 33.3144 171.4315 32.8419 175.1745 C 32.7297 176.0635 32.7379 176.3973 32.6056 177.046 C 32.4296 177.6418 32.0552 178.2124 31.8733 178.8549 C 31.2957 180.6358 30.9047 182.5354 30.4204 184.3756 C 30.2444 184.9713 30.118 185.5733 29.9361 186.2158 C 29.4731 187.4882 28.8613 188.742 28.4419 190.0675 C 28.2104 190.7037 28.0663 191.4461 27.9281 192.1416 C 27.7462 192.7841 27.5088 193.4672 27.4143 194.2158 C 27.2879 194.8178 27.2607 195.4323 27.178 196.0873 C 27.1012 196.6955 26.9252 197.2913 26.9417 197.9588 C 26.937 199.1941 27.1248 200.5012 27.2133 201.7958 C 27.2357 202.4166 27.2582 203.0373 27.2251 203.6986 C 27.1483 204.3069 27.0715 204.9151 26.9888 205.5701 C 26.912 206.1784 26.8352 206.7866 26.7525 207.4417 C 26.4998 208.6456 26.3403 209.9089 26.032 211.1534 C 25.6859 212.298 24.8449 214.5685 24.8449 214.5685 C 24.5378 215.0051 23.5845 217.5904 23.0436 218.8568 C 22.7501 219.5451 22.3445 220.187 22.0337 220.8684 C 21.7634 221.4607 21.5458 222.0749 21.3014 222.6772 C 21.057 223.2795 20.7748 223.8704 20.5691 224.4861 C 20.3681 225.0882 20.2858 225.7243 20.0848 226.3263 C 19.879 226.9421 19.6332 227.548 19.3524 228.1352 C 19.0619 228.7441 18.6252 229.2888 18.3721 229.9128 C 18.1335 230.5016 18.0488 231.1402 17.8878 231.753 C 17.7268 232.3658 17.5645 232.9804 17.4035 233.5932 C 17.2425 234.2061 17.0802 234.8206 16.9192 235.4334 C 16.7582 236.0463 16.5419 236.6493 16.4349 237.2736 C 16.2231 238.5123 16.1742 239.7781 15.9624 241.0167 C 15.8553 241.6411 15.6391 242.2441 15.4781 242.8569 C 15.317 243.4697 15.1008 244.0727 14.9938 244.6971 C 14.782 245.9357 14.6508 247.1902 14.5212 248.4401 C 14.262 250.9409 14.0725 253.4563 13.8242 255.9575 C 13.7624 256.5829 13.6666 257.2058 13.588 257.829 C 13.5093 258.4522 13.4719 259.0835 13.3517 259.7005 C 13.2309 260.3222 13.0684 260.9387 12.8674 261.5408 C 12.6617 262.1565 12.2998 262.723 12.1351 263.3496 C 11.9746 263.9578 12.019 264.6041 11.8988 265.2212 C 11.778 265.8429 11.5353 266.4397 11.4145 267.0614 C 11.2943 267.6784 11.2985 268.3159 11.1782 268.9329 C 11.0574 269.5546 10.8949 270.171 10.6939 270.7731 C 10.4882 271.3888 10.1674 271.9663 9.9616 272.582 C 9.7606 273.1841 9.6783 273.8201 9.4773 274.4222 C 9.2716 275.0379 8.9371 275.6117 8.745 276.2311 C 8.3693 277.4423 8.0994 278.686 7.7764 279.9115 C 7.6154 280.5243 7.4531 281.1389 7.2921 281.7517 C 7.1311 282.3645 6.9286 282.9702 6.8078 283.5919 C 6.6876 284.2089 6.6084 284.8359 6.5716 285.4634 C 6.5341 286.0956 6.6348 286.7349 6.5833 287.3663 C 6.4806 288.6186 6.4307 289.8929 6.1108 291.1093 C 5.7812 292.3625 5.1828 293.5418 4.6461 294.7271 C 4.368 295.3413 3.9563 295.8958 3.6658 296.5047 C 3.385 297.0919 3.2142 297.7263 2.9334 298.3136 C 2.6429 298.9224 2.1656 299.4534 1.9531 300.0911 C 1.7537 300.6887 1.3916 301.4092 1.7168 301.9627 C 2.0636 302.5531 2.9224 302.7442 3.6125 302.915 C 4.2634 303.0761 4.9605 302.8475 5.6263 302.9315 C 6.292 303.0156 6.9153 303.3319 7.581 303.416 C 8.2467 303.5 8.9251 303.3879 9.5948 303.4325 C 10.2595 303.4765 10.933 303.5226 11.579 303.683 C 12.2446 303.8478 12.9214 304.0521 13.5042 304.4014 C 14.1123 304.7662 14.4458 305.4937 15.0928 305.7903 C 15.6948 306.0669 16.4162 305.9574 17.077 306.0408 C 17.7378 306.1242 18.3957 306.2861 19.0613 306.2913 C 19.7469 306.297 20.4189 306.0681 21.1046 306.0739 C 21.7702 306.079 22.434 306.2018 23.0888 306.3244 C 23.7486 306.4476 24.3838 306.6856 25.0435 306.8088 C 25.6983 306.9314 26.3818 306.8989 27.0278 307.0593 C 27.6934 307.2241 28.2874 307.6129 28.953 307.7777 C 29.599 307.9381 30.2824 307.9056 30.9372 308.0282 C 31.597 308.1514 32.241 308.3515 32.8919 308.5126 C 33.5429 308.6737 34.1785 308.9327 34.8467 308.9971 C 36.8423 309.1891 38.8585 309.147 40.8585 309.2807 C 41.5232 309.3246 42.1879 309.4086 42.8427 309.5312 C 43.5025 309.6544 44.135 309.9054 44.7974 310.0156 C 46.1115 310.2338 47.4519 310.2984 48.766 310.5166 C 49.4284 310.6268 50.0609 310.8778 50.7207 311.001 C 51.3755 311.1236 52.0402 311.2075 52.7049 311.2515 C 53.3746 311.2961 54.049 311.2235 54.7187 311.2681 C 55.3834 311.3121 56.0382 311.4746 56.703 311.5186 C 57.3726 311.5632 58.0464 311.5037 58.7167 311.5351 C 60.0494 311.5978 61.3903 311.635 62.7148 311.8022 C 63.3805 311.8862 64.0293 312.0879 64.6695 312.2866 C 65.3242 312.49 65.9291 312.8402 66.5947 313.005 C 67.2407 313.1654 67.9182 313.1721 68.5789 313.2555 C 70.5612 313.5057 72.5577 313.6988 74.5317 314.007 C 75.1949 314.1107 75.8266 314.3682 76.4864 314.4914 C 77.1412 314.614 77.8059 314.6979 78.4706 314.7419 C 79.1403 314.7865 79.8139 314.7527 80.4844 314.7585 C 81.155 314.7642 81.8285 314.7304 82.4982 314.775 C 83.1629 314.819 83.8181 315.0586 84.4825 315.0255 C 85.1914 314.9905 84.9222 314.7683 86.5553 314.5742 C 93.087 313.7978 104.0565 318.2362 106.3873 312.372 C 114.7004 291.4486 109.8398 267.2592 113.7283 245.0405 C 117.3106 224.5836 126.8327 204.7502 129.025 183.7519 Z "/>
  <g id="ID0.17693647183477879">
    <path id="ID0.7729651997797191" fill="#3E4246" stroke="none" stroke-linecap="round" d="M 59.589 108.8483 L 79.8215 109.5452 L 76.5908 126.5769 L 74.0911 140.3225 L 70.3634 146.137 L 66.9852 149.6963 L 54.2438 146.5578 L 52.661 140.6778 L 57.6482 120.5375 L 59.589 108.8483 Z " stroke-width="0.8164595898422625"/>
    <path id="ID0.9716172609478235" fill="#393C40" stroke="none" stroke-linecap="round" d="M 63.9039 114.5754 L 58.945 112.3363 L 60.6518 105.7578 L 78.9022 115.0005 L 75.9611 118.0992 L 70.5009 120.1203 L 63.9039 114.5754 Z " stroke-width="0.8164595898422625"/>
    <g id="ID0.38066427363082767">
      <path id="ID0.4757494777441025" fill="#1D1E1F" stroke="none" stroke-linecap="round" d="M 68.3634 83.471 L 76.8751 81.1054 L 92.9478 85.5679 L 85.402 111.2473 L 75.1799 116.5153 L 70.686 117.7043 L 67.411 115.4083 L 64.4775 112.508 L 58.6974 110.0392 L 58.4355 104.5686 L 58.9382 96.4583 L 61.9336 88.0447 L 68.3634 83.471 Z " stroke-width="0.47614255857339044"/>
      <path id="ID0.6007084371522069" fill="none" stroke="#0D0D0D" stroke-width="0.9522851171467809" stroke-linecap="round" d="M 59.1827 110.3838 L 64.3585 112.5111 L 68.7386 116.0881 L 70.6891 117.8233 L 75.1799 116.5153 L 79.5237 114.1395 "/>
    </g>
  </g>
  <g id="ID0.17693647183477879">
    <path id="ID0.7729651997797191" fill="#393C40" stroke="none" stroke-linecap="round" d="M 141.3469 99.0683 L 122.1607 96.878 L 122.8114 113.4012 L 123.235 126.7212 L 125.9335 132.7316 L 128.6196 136.5651 L 141.0822 135.3975 L 143.4031 130.0728 L 141.5328 110.3696 L 141.3469 99.0683 Z " stroke-width="0.7788098246961779"/>
    <path id="ID0.9716172609478235" fill="#34373A" stroke="none" stroke-linecap="round" d="M 136.47 103.8641 L 141.4636 102.4496 L 140.7793 96.003 L 122.2601 102.1542 L 124.5987 105.4916 L 129.4656 108.1669 L 136.47 103.8641 Z " stroke-width="0.7788098246961779"/>
    <g id="ID0.38066427363082767">
      <path id="ID0.4757494777441025" fill="#1D1E1F" stroke="none" stroke-linecap="round" d="M 136.7341 74.1305 L 129.0367 70.7006 L 113.2448 72.6485 L 116.7495 97.9376 L 125.652 104.3465 L 129.7243 106.1008 L 133.1373 104.3956 L 136.3132 102.0722 L 142.1139 100.5566 L 143.131 95.4322 L 143.7982 87.7098 L 142.1565 79.3505 L 136.7341 74.1305 Z " stroke-width="0.45418602765175714"/>
      <path id="ID0.6007084371522069" fill="none" stroke="#0D0D0D" stroke-width="0.9083720553035143" stroke-linecap="round" d="M 141.6075 100.8134 L 136.425 102.0919 L 131.7891 104.8501 L 129.7047 106.2126 L 125.652 104.3465 L 121.8883 101.4936 "/>
    </g>
  </g>
  <g id="ID0.7397577832452953">
    <path id="ID0.6726378230378032" fill="#34373A" stroke="none" stroke-linecap="round" d="M 127.3402 142.1607 L 132.3841 125.1818 L 134.6825 125.4634 L 129.4012 142.0966 L 127.3402 142.1607 Z " stroke-width="0.778809995147325"/>
    <path id="ID0.6507829907350242" fill="#1D1E1F" stroke="none" stroke-linecap="round" d="M 129.1732 144.9866 L 134.7002 125.1851 L 152.4521 121.5939 L 162.7571 121.273 L 177.7642 117.8997 L 183.7149 115.9634 L 188.1338 126.7442 L 182.0977 128.3005 L 173.3638 132.0598 L 162.3739 137.324 L 153.83 141.0406 L 129.1732 144.9866 Z " stroke-width="0.778809995147325"/>
    <path id="ID0.6829322893172503" fill="#1D1E1F" stroke="none" stroke-linecap="round" d="M 187.8393 127.2095 L 180.9125 118.5889 L 185.3583 114.3966 L 190.0132 109.359 L 195.3321 108.1634 L 199.8294 107.7512 L 203.1058 109.0103 L 209.6735 108.9309 L 210.4656 113.3427 L 208.8222 114.9095 L 208.9738 116.4719 L 207.1875 120.0664 L 205.064 123.9363 L 201.3119 126.7753 L 194.4924 127.51 L 187.8393 127.2095 Z " stroke-width="0.778809995147325"/>
    <path id="ID0.47767175547778606" fill="none" stroke="#0D0D0D" stroke-width="1.55761999029465" stroke-linecap="round" d="M 132.8585 144.1582 L 128.9995 144.7463 L 134.7173 125.2611 L 147.817 122.6357 "/>
    <path id="ID0.5922487881034613" fill="#282A2B" stroke="none" stroke-linecap="round" d="M 161.1842 138.7695 L 154.4638 133.3753 L 153.2587 127.6594 L 157.5075 120.6377 L 171.7497 118.8332 L 179.7604 121.6224 L 180.4863 124.8518 L 174.9287 132.0879 L 161.1842 138.7695 Z " stroke-width="0.778809995147325"/>
    <path id="ID0.36820242274552584" fill="#151616" stroke="none" stroke-linecap="round" d="M 162.2207 132.5394 L 160.3684 124.654 L 171.6459 124.7532 L 171.8859 126.176 L 162.2207 132.5394 Z " stroke-width="0.778809995147325"/>
    <path id="ID0.13569410238415003" fill="none" stroke="#232425" stroke-width="1.55761999029465" stroke-linecap="round" d="M 172.7059 130.731 L 178.197 123.909 L 170.2652 120.5831 "/>
    <path id="ID0.024502143263816833" fill="none" stroke="#0D0D0D" stroke-width="1.55761999029465" stroke-linecap="round" d="M 160.704 138.4178 L 154.4413 133.6392 L 152.9494 128.0676 L 157.1811 120.9699 L 165.3474 120.0123 "/>
  </g>
  <path id="ID0.3809091211296618" fill="#393D40" stroke="none" stroke-linecap="round" d="M 138.0591 182.4802 L 119.7746 160.5676 L 156.4293 147.8639 L 167.2243 146.0531 L 185.8244 146.707 L 190.5245 154.4051 L 195.0041 166.6274 L 174.8248 171.7509 L 163.4177 172.8226 L 138.0591 182.4802 Z " stroke-width="0.7305889591873509"/>
  <path id="ID0.3809091211296618" fill="#3E4246" stroke="none" stroke-linecap="round" d="M 98.8945 151.5213 L 119.2807 163.9935 L 124.8415 202.3865 L 124.5832 213.3293 L 120.4322 231.4721 L 111.9856 234.6356 L 99.1378 236.729 L 97.1246 215.0503 L 94.5626 201.8812 L 98.8945 151.5213 Z " stroke-width="0.7305889404387307"/>
  <path id="ID0.5368814701214433" fill="#303436" stroke="none" stroke-linecap="round" d="M 44.356 284.9295 L 50.8137 278.2526 L 58.8975 271.9038 L 65.3028 281.5377 L 72.0897 293.3341 L 83.2625 310.2769 L 81.38 316.6071 L 58.6585 306.8558 L 41.1621 294.2594 L 44.356 284.9295 Z " stroke-width="0.7702165261379248"/>
  <g id="ID0.9157347986474633">
    <path id="ID0.7477802094072104" fill="#363A3D" stroke="none" stroke-linecap="round" d="M 141.0668 116.2889 L 121.3016 117.262 L 129.7356 157.5756 L 147.8756 162.9015 L 145.0913 138.4318 L 141.0668 116.2889 Z " stroke-width="0.4761425731684311"/>
    <path id="ID0.7477802094072104" fill="#363A3D" stroke="none" stroke-linecap="round" d="M 82.2388 128.6092 L 104.6069 121.0108 L 113.0408 161.3244 L 98.5572 173.4755 L 88.0543 150.0125 L 82.2388 128.6092 Z " stroke-width="0.4761425731684311"/>
    <path id="ID0.4270821204409003" fill="#3E4246" stroke="none" stroke-linecap="round" d="M 78.4064 108.9624 L 79.5754 95.9485 L 80.5947 89.7762 L 85.5648 81.5613 L 116.2672 76.5974 L 123.9025 79.3781 L 127.5276 82.7545 L 136.7419 92.5016 L 138.1879 102.901 L 138.3771 108.4556 L 141.422 114.8721 L 143.0094 120.1342 L 142.3259 127.3307 L 141.8139 132.7888 L 142.55 142.1206 L 148.5032 163.2519 L 145.1518 172.3443 L 141.7404 179.4062 L 130.9908 187.2007 L 119.0233 186.6154 L 113.8036 180.8485 L 107.6404 175.5708 L 98.641 174.2916 L 92.3304 149.7083 L 89.8003 143.4273 L 82.9861 133.1781 L 79.4863 122.8435 L 78.4064 108.9624 Z " stroke-width="0.4761425731684311"/>
    <path id="ID0.052435632329434156" fill="#393C40" stroke="none" stroke-linecap="round" d="M 100.531 155.2513 L 104.8983 154.3863 L 112.0259 156.2516 L 116.9552 155.0501 L 123.0766 155.5937 L 126.9585 153.687 L 128.4922 152.8797 L 141.7067 146.637 L 142.729 149.7796 L 135.1932 155.6126 L 129.3042 156.5285 L 124.4521 160.6569 L 117.2058 158.5731 L 111.0019 160.3088 L 100.5513 158.6036 L 100.531 155.2513 Z " stroke-width="0.4761425731684311"/>
    <path id="ID0.4987568911164999" fill="none" stroke="#27282B" stroke-width="0.9522851463368622" stroke-linecap="round" d="M 85.5259 82.156 L 80.5017 89.531 L 79.2869 100.0006 "/>
    <path id="ID0.2889464790932834" fill="none" stroke="#27282B" stroke-width="0.9522851463368622" stroke-linecap="round" d="M 117.743 76.8752 L 124.1156 79.4336 L 131.6096 87.3516 "/>
    <path id="ID0.8373676878400147" fill="#000000" stroke="#2C2F31" stroke-width="0.6155103831726892" stroke-linecap="round" d="M 91.6075 94.1633 L 91.6309 92.5942 L 88.2563 94.2341 L 84.1937 98.5046 L 81.1949 104.3001 L 79.9585 110.3179 L 84.5192 107.0508 L 89.0926 105.972 L 91.97 106.3015 L 95.0731 108.7019 L 96.9205 107.2656 L 100.785 106.1612 L 105.4166 106.2452 L 109.8339 108.5595 L 112.497 111.1193 L 113.9813 107.7158 L 116.9508 103.8817 L 120.6816 101.6284 L 125.7229 100.5415 L 127.6366 100.736 L 128.6529 97.3406 L 130.307 95.7053 L 132.9633 95.6845 L 136.042 96.681 L 133.8446 93.2529 L 130.8009 89.9028 L 127.3951 87.5583 L 123.8264 86.0263 L 119.2227 86.0935 L 121.752 87.5044 L 122.0732 89.2446 L 120.951 91.6424 L 117.708 93.571 L 114.6757 94.5218 L 112.1312 95.1479 L 108.9163 92.1423 L 108.9151 94.255 L 107.4775 94.5203 L 105.4557 92.4681 L 105.3915 96.783 L 101.4233 97.7501 L 97.184 97.6719 L 93.6176 97.0001 L 91.6075 94.1633 Z "/>
    <path id="ID0.5698574706912041" fill="none" stroke="#313537" stroke-width="0.9522851463368622" stroke-linecap="round" d="M 100.4269 155.1028 L 100.5025 158.3706 L 111.0262 160.4254 L 117.5944 158.6864 L 124.1947 160.5891 "/>
    <path id="ID0.5698574706912041" fill="none" stroke="#313537" stroke-width="0.8933066172614318" stroke-linecap="round" d="M 141.1992 146.7596 L 142.3652 149.7992 L 134.7881 155.6409 L 128.9255 156.5026 L 124.4036 160.7321 "/>
    <path id="ID0.8947288258932531" fill="#393C40" stroke="none" stroke-linecap="round" d="M 99.2613 143.1368 L 106.1112 141.5821 L 113.8881 141.9009 L 120.5652 146.1468 L 112.724 143.3119 L 101.884 144.0474 L 97.4931 148.055 L 99.2613 143.1368 Z " stroke-width="0.4761425731684311"/>
    <path id="ID0.8947288258932531" fill="#393C40" stroke="none" stroke-linecap="round" d="M 137.2266 136.151 L 131.1215 137.3207 L 124.9294 140.3381 L 121.0222 146.1493 L 126.3738 141.0691 L 135.4232 137.8198 L 140.4049 139.5112 L 137.2266 136.151 Z " stroke-width="0.42137387572514795"/>
    <path id="ID0.9897695370018482" fill="#393C40" stroke="none" stroke-linecap="round" d="M 105.1508 154.4308 L 98.6451 155.3054 L 98.1139 150.6736 L 99.9957 153.8553 L 105.0117 152.9519 L 111.7404 155.1196 L 117.0269 153.6487 L 121.3275 154.2084 L 121.0702 146.2358 L 123.3118 155.7877 L 117.4262 154.9759 L 111.6704 156.1801 L 105.1508 154.4308 Z " stroke-width="0.4761425731684311"/>
    <path id="ID0.9897695370018482" fill="#393C40" stroke="none" stroke-linecap="round" d="M 136.5818 148.033 L 141.9105 146.4657 L 140.6716 142.3139 L 140.3528 145.7058 L 136.1627 146.7181 L 131.7448 150.9676 L 127.1442 151.5908 L 124.0267 153.6003 L 121.3875 146.6876 L 123.0584 155.6577 L 127.3087 152.8684 L 132.1763 151.8501 L 136.5818 148.033 Z " stroke-width="0.4232251083069431"/>
    <path id="ID0.3524594851769507" fill="#393C40" stroke="none" stroke-linecap="round" d="M 108.2461 118.3105 L 114.4736 119.2453 L 118.3535 116.05 L 116.0342 120.4268 L 119.2479 131.1374 L 127.9507 128.4411 L 118.4754 134.0718 L 106.0967 131.87 L 115.9953 131.8665 L 113.2883 120.904 L 108.2461 118.3105 Z " stroke-width="0.4761425731684311"/>
    <path id="ID0.9214867809787393" fill="#393C40" stroke="none" stroke-linecap="round" d="M 98.4666 139.3385 L 100.5166 134.6045 L 104.9821 132.6974 L 100.248 138.5523 L 100.6146 141.4673 L 105.5645 140.4804 L 114.2154 141.954 L 105.0403 141.9278 L 99.3079 143.127 L 98.4666 139.3385 Z " stroke-width="0.4761425731684311"/>
    <path id="ID0.9214867809787393" fill="#393C40" stroke="none" stroke-linecap="round" d="M 136.0569 132.2178 L 132.5676 128.8393 L 128.1162 128.8422 L 134.2717 132.1967 L 135.0572 134.8874 L 130.5453 135.8778 L 124.6222 140.0184 L 131.5263 136.9492 L 136.7726 135.8516 L 136.0569 132.2178 Z " stroke-width="0.44517881396030046"/>
    <path id="ID0.8679121839813888" fill="#2C2F31" stroke="none" stroke-linecap="round" d="M 109.936 116.8485 L 113.9959 117.6531 L 116.9219 115.3627 L 118.049 116.0998 L 114.7501 119.5141 L 108.6526 118.5034 L 109.936 116.8485 Z " stroke-width="0.4761425731684311"/>
    <path id="ID0.24770551454275846" fill="none" stroke="#313537" stroke-width="0.9522851463368622" stroke-linecap="round" d="M 113.4555 114.0813 L 118.7307 116.6261 L 126.1686 115.5564 L 133.406 112.9478 L 137.7526 108.1468 "/>
    <path id="ID0.20603158557787538" fill="none" stroke="#313537" stroke-width="0.9522851463368622" stroke-linecap="round" d="M 80.044 116.9896 L 88.0152 120.7945 L 100.7907 121.4053 L 107.7761 119.3358 L 113.0304 114.2234 "/>
    <g id="ID0.5272086253389716">
      <path id="ID0.24770551454275846" fill="none" stroke="#363A3D" stroke-width="0.9522850879953051" stroke-linecap="round" d="M 90.0571 148.0741 L 99.1026 142.9468 "/>
      <path id="ID0.24770551454275846" fill="none" stroke="#363A3D" stroke-width="0.9522850879953051" stroke-linecap="round" d="M 85.0813 137.0117 L 103.8026 126.7468 "/>
    </g>
    <g id="ID0.5272086253389716">
      <path id="ID0.24770551454275846" fill="none" stroke="#363A3D" stroke-width="0.9522851113879124" stroke-linecap="round" d="M 143.8792 135.823 L 136.7125 135.4503 "/>
      <path id="ID0.24770551454275846" fill="none" stroke="#363A3D" stroke-width="0.9522851113879124" stroke-linecap="round" d="M 142.0772 124.8167 L 127.5214 122.998 "/>
    </g>
    <g id="ID0.7887678607366979">
      <path id="ID0.753661650698632" fill="none" stroke="#313537" stroke-width="0.9522850879953051" stroke-linecap="round" d="M 108.7365 118.3295 L 114.3506 119.5872 L 117.7758 116.1951 "/>
      <g id="ID0.8167418288066983">
        <path id="ID0.9553722990676761" fill="none" stroke="#313537" stroke-width="1.0409108435012333" stroke-linecap="round" d="M 117.9268 133.9634 L 111.9942 133.0155 L 105.5609 132.4156 L 101.0862 134.3247 L 98.53 139.2375 L 99.2369 142.6164 "/>
        <path id="ID0.5982440118677914" fill="none" stroke="#313537" stroke-width="0.8540413443789141" stroke-linecap="round" d="M 105.8206 132.015 L 103.5715 127.0776 L 107.2528 119.0969 "/>
      </g>
      <g id="ID0.7324484633281827">
        <path id="ID0.04993448918685317" fill="none" stroke="#313537" stroke-width="0.9522850879953051" stroke-linecap="round" d="M 114.3262 119.4707 L 117.1703 129.5776 L 121.0002 145.5589 L 124.5727 161.4725 "/>
        <g id="ID0.8167418288066983">
          <path id="ID0.9553722990676761" fill="none" stroke="#313537" stroke-width="0.9699703024720207" stroke-linecap="round" d="M 118.0377 133.81 L 122.6885 131.4506 L 127.6138 128.4744 L 131.9161 128.5472 L 135.8137 132.1099 L 136.5206 135.4888 "/>
          <path id="ID0.5982440118677914" fill="none" stroke="#313537" stroke-width="0.7916616436959342" stroke-linecap="round" d="M 127.3409 128.1808 L 127.2817 122.7853 L 121.3275 116.8205 "/>
          <path id="ID0.3567589442245662" fill="none" stroke="#313537" stroke-width="0.8967655373669481" stroke-linecap="round" d="M 120.86 146.2216 L 124.8625 140.3008 L 131.6459 136.9358 L 137.0568 135.8038 L 140.2005 139.889 L 141.9256 146.7033 L 136.6405 148.5387 L 131.7404 152.7257 L 126.8752 153.5003 L 123.131 156.1565 L 116.9008 154.906 L 111.4772 156.2839 L 104.5513 154.571 L 98.2359 155.1625 L 97.1256 148.2197 L 98.6755 143.1525 L 104.8241 141.8662 L 113.3714 142.0238 L 120.0881 145.702 Z "/>
        </g>
      </g>
    </g>
    <g id="ID0.9312638868577778">
      <path id="ID0.2888958193361759" fill="#393C40" stroke="none" stroke-linecap="round" d="M 104.5743 162.6341 L 115.0017 162.582 L 115.0165 165.5579 L 104.5891 165.6099 L 104.5743 162.6341 Z " stroke-width="0.4761425071816273"/>
      <path id="ID0.2888958193361759" fill="#393C40" stroke="none" stroke-linecap="round" d="M 93.7143 162.7716 L 105.4517 162.832 L 105.4665 165.8079 L 95.0391 165.8599 L 93.7143 162.7716 Z " stroke-width="0.4761425071816273"/>
      <g id="ID0.36424446757882833">
        <path id="ID0.7359844641759992" fill="#8A7B59" stroke="none" d="M 107.3233 161.3347 L 108.8147 161.0227 L 110.092 167.128 L 108.6006 167.44 L 107.3233 161.3347 Z " stroke-width="0.47614254399765255"/>
        <path id="ID0.7359844641759992" fill="#8A7B59" stroke="none" d="M 105.3733 161.2847 L 106.8647 160.9727 L 108.142 167.078 L 106.6506 167.39 L 105.3733 161.2847 Z " stroke-width="0.47614254399765255"/>
        <path id="ID0.7359844641759992" fill="#8A7B59" stroke="none" d="M 103.2733 161.0347 L 104.7647 160.7227 L 106.042 166.828 L 104.5506 167.14 L 103.2733 161.0347 Z " stroke-width="0.47614254399765255"/>
        <path id="ID0.7359844641759992" fill="#8A7B59" stroke="none" d="M 109.3233 161.4347 L 110.8147 161.1227 L 112.092 167.228 L 110.6006 167.54 L 109.3233 161.4347 Z " stroke-width="0.47614254399765255"/>
      </g>
      <g id="ID0.1049797898158431">
        <path id="ID0.08871637750416994" fill="#8A7B59" stroke="none" stroke-linecap="round" d="M 95.2291 161.7742 L 101.712 161.4881 L 102.8111 166.9739 L 96.5563 167.188 L 95.2291 161.7742 Z " stroke-width="0.47614254399765255"/>
        <path id="ID0.13805592898279428" fill="#76694C" stroke="none" stroke-linecap="round" d="M 94.9946 161.5798 L 101.7805 161.2304 L 102.4636 164.0305 L 95.6349 164.2916 L 94.9946 161.5798 Z " stroke-width="0.47614254399765255"/>
        <path id="ID0.3221200187690556" fill="#61563F" stroke="none" stroke-linecap="round" d="M 98.1094 163.1421 L 99.0434 163.3163 L 99.4791 165.0202 L 98.4745 164.8872 L 98.1094 163.1421 Z " stroke-width="0.5167888805826728"/>
        <path id="ID0.1420820001512766" fill="#BAA578" stroke="none" stroke-linecap="round" d="M 101.9838 166.2212 L 102.3904 164.6768 L 102.9098 166.9274 L 96.5765 167.2309 L 101.9838 166.2212 Z " stroke-width="0.47614254399765255"/>
      </g>
      <path id="ID0.2888958193361759" fill="#393C40" stroke="none" stroke-linecap="round" d="M 141.3325 155.3118 L 134.4377 158.6066 L 135.3801 161.0008 L 142.275 157.706 L 141.3325 155.3118 Z " stroke-width="0.38104697013794087"/>
      <path id="ID0.2888958193361759" fill="#393C40" stroke="none" stroke-linecap="round" d="M 147.3375 152.1741 L 140.8877 155.5066 L 141.8301 157.9008 L 147.5217 155.1127 L 147.3375 152.1741 Z " stroke-width="0.38104697013794087"/>
      <path id="ID0.7359844641759992" fill="#8A7B59" stroke="none" d="M 139.1208 154.7352 L 138.0372 154.9619 L 139.1483 160.2729 L 140.2319 160.0462 L 139.1208 154.7352 Z " stroke-width="0.38160279537011327"/>
      <path id="ID0.7359844641759992" fill="#8A7B59" stroke="none" d="M 140.3708 153.9352 L 139.2872 154.1619 L 140.3983 159.4729 L 141.4819 159.2462 L 140.3708 153.9352 Z " stroke-width="0.38160279537011327"/>
      <path id="ID0.7359844641759992" fill="#8A7B59" stroke="none" d="M 141.7208 153.1352 L 140.6372 153.3619 L 141.7483 158.6729 L 142.8319 158.4462 L 141.7208 153.1352 Z " stroke-width="0.38160279537011327"/>
      <path id="ID0.7359844641759992" fill="#8A7B59" stroke="none" d="M 137.8708 155.5352 L 136.7872 155.7619 L 137.8983 161.0729 L 138.9819 160.8462 L 137.8708 155.5352 Z " stroke-width="0.38160279537011327"/>
      <g id="ID0.1049797898158431">
        <path id="ID0.08871637750416994" fill="#8A7B59" stroke="none" stroke-linecap="round" d="M 147.3602 151.1029 L 142.7194 153.0629 L 143.8143 158.1168 L 148.2707 156.1729 L 147.3602 151.1029 Z " stroke-width="0.40545296255715224"/>
        <path id="ID0.13805592898279428" fill="#76694C" stroke="none" stroke-linecap="round" d="M 147.5852 150.9 L 142.7105 152.909 L 143.1838 155.5302 L 148.0584 153.4313 L 147.5852 150.9 Z " stroke-width="0.40545296255715224"/>
        <path id="ID0.3221200187690556" fill="#61563F" stroke="none" stroke-linecap="round" d="M 145.9032 153.2189 L 145.3078 153.6851 L 145.5818 155.2869 L 146.2407 154.8319 L 145.9032 153.2189 Z " stroke-width="0.44006480312107793"/>
        <path id="ID0.1420820001512766" fill="#BAA578" stroke="none" stroke-linecap="round" d="M 144.2819 157.2287 L 143.4718 156.0493 L 143.8729 158.1461 L 148.4148 156.2517 L 144.2819 157.2287 Z " stroke-width="0.40545296255715224"/>
      </g>
      <g id="ID0.6836685389280319">
        <path id="ID0.09357938077300787" fill="#857656" stroke="none" d="M 114.8821 159.6037 L 132.4756 155.9229 L 133.7919 162.2146 L 116.1984 165.8954 L 114.8821 159.6037 Z " stroke-width="0.4283320763483961"/>
        <path id="ID0.6492703901603818" fill="#7C6E50" stroke="none" stroke-linecap="round" d="M 116.1315 161.6923 L 124.8046 163.0397 L 132.8162 158.2017 L 133.6888 162.3728 L 117.0041 165.8634 L 116.1315 161.6923 Z " stroke-width="0.47614254399765255"/>
        <g id="ID0.9254062357358634">
          <g id="ID0.49943465692922473">
            <path id="ID0.140373723115772" fill="#968561" stroke="none" d="M 130.841 155.1833 L 135.851 154.1352 L 137.7036 162.9902 L 132.6935 164.0383 L 130.841 155.1833 Z " stroke-width="0.47614254399765255"/>
            <path id="ID0.8286363878287375" fill="#BAA578" stroke="none" stroke-linecap="round" d="M 130.8047 154.988 L 135.9801 154.1485 L 132.0814 155.7424 L 131.5181 158.0493 L 130.8047 154.988 Z " stroke-width="0.47614254399765255"/>
            <path id="ID0.7362233307212591" fill="#8A7B59" stroke="none" stroke-linecap="round" d="M 132.0761 160.9486 L 134.7423 160.4394 L 136.6452 157.5604 L 137.7909 163.0365 L 132.7342 164.0944 L 132.0761 160.9486 Z " stroke-width="0.47614254399765255"/>
          </g>
          <g id="ID0.49943465692922473">
            <path id="ID0.140373723115772" fill="#968561" stroke="none" d="M 116.0167 158.441 L 111.0066 159.4891 L 112.8591 168.3441 L 117.8692 167.296 L 116.0167 158.441 Z " stroke-width="0.47614254399765255"/>
            <path id="ID0.8286363878287375" fill="#BAA578" stroke="none" stroke-linecap="round" d="M 115.9212 158.3126 L 110.8433 159.6181 L 115.054 159.5156 L 116.4948 161.4032 L 115.9212 158.3126 Z " stroke-width="0.47614254399765255"/>
            <path id="ID0.7362233307212591" fill="#8A7B59" stroke="none" stroke-linecap="round" d="M 117.1459 164.2829 L 114.4991 164.8853 L 111.6017 163.0106 L 112.7474 168.4867 L 117.804 167.4288 L 117.1459 164.2829 Z " stroke-width="0.47614254399765255"/>
          </g>
        </g>
      </g>
    </g>
  </g>
  <g id="ID0.8333355090580881">
    <path id="ID0.9286923445761204" fill="#27282B" stroke="none" stroke-linecap="round" d="M 83.9948 47.192 L 102.6521 44.3975 L 108.5971 68.0203 L 125.0502 71.5502 L 105.3374 87.7584 L 66.7913 83.785 L 83.7761 68.9888 L 83.9948 47.192 Z " stroke-width="0.4761425735457949"/>
    <path id="ID0.5448851804248989" fill="none" stroke="#1D1E1F" stroke-width="0.9522851470915898" stroke-linecap="round" d="M 83.8712 63.0538 L 83.9188 68.7603 L 102.3419 72.5682 L 108.3402 68.1773 "/>
    <path id="ID0.262191956397146" fill="none" stroke="#1D1E1F" stroke-width="0.9522851470915898" stroke-linecap="round" d="M 87.6765 67.2571 L 101.4564 70.4271 L 104.1273 68.6618 "/>
  </g>
  <g id="ID0.3450673264451325">
    <g id="ID0.9831569031812251">
      <path id="ID0.0877610077150166" fill="#2E3034" stroke="none" stroke-linecap="round" d="M 108.042 13.4474 L 103.1445 0.4487 L 103.8547 28.9685 L 111.5237 28.7775 L 108.042 13.4474 Z " stroke-width="0.5866066126233376"/>
      <path id="ID0.796130308881402" fill="#242628" stroke="none" stroke-linecap="round" d="M 108.3357 13.4471 L 103.0827 0.4572 L 106.9824 14.2024 L 108.2926 29.0617 L 111.4595 28.6877 L 108.3357 13.4471 Z " stroke-width="0.5866066126233376"/>
    </g>
    <g id="ID0.9831569031812251">
      <path id="ID0.0877610077150166" fill="#2E3034" stroke="none" stroke-linecap="round" d="M 84.4664 14.1893 L 88.7108 0.9629 L 89.421 29.4827 L 81.752 29.6737 L 84.4664 14.1893 Z " stroke-width="0.5866066126233376"/>
      <path id="ID0.796130308881402" fill="#242628" stroke="none" stroke-linecap="round" d="M 84.0868 14.2344 L 88.6867 0.9992 L 85.476 14.9214 L 84.7465 29.5035 L 81.7255 29.6116 L 84.0868 14.2344 Z " stroke-width="0.5866066126233376"/>
    </g>
    <path id="ID0.8999492498114705" fill="#2E3034" stroke="none" stroke-linecap="round" d="M 102.1423 19.5264 C 106.5571 19.8957 111.3549 22.4875 113.5832 26.3161 C 116.1258 30.6873 114.3179 36.3326 114.7419 41.3191 C 114.9575 43.0178 115.7935 44.7502 115.5033 46.3821 C 114.9121 49.7016 113.314 52.7713 112.3122 55.9903 C 111.6558 58.0999 111.56 60.4577 110.4388 62.3893 C 109.1795 64.674 107.9152 67.8406 105.3277 68.3609 C 101.4917 69.1318 97.3707 67.3927 93.8785 65.7239 C 91.0096 64.3525 88.3019 62.2073 86.6589 59.475 C 83.7121 54.4019 81.011 48.8073 80.479 42.9347 C 79.8895 36.4246 78.9188 28.3802 83.5536 23.5467 C 87.6915 18.9009 95.5796 18.9804 102.1423 19.5264 Z " stroke-width="0.5080372454214919"/>
    <path id="ID0.2441388238221407" fill="#AB8E85" stroke="none" d="M 100.4317 44.2753 C 104.5148 44.3407 109.8734 41.0416 112.6661 43.7194 C 115.185 46.2483 111.9389 51.192 111.0549 54.6887 C 110.1742 58.1666 109.5793 61.9212 107.4131 64.8293 C 106.3776 66.1238 104.1547 66.2508 102.4179 66.0215 C 99.2946 65.6055 96.2019 64.3987 93.5635 62.673 C 90.8332 60.8881 87.2361 58.9476 86.5846 55.7378 C 85.7597 51.6718 86.2895 46.2619 89.4231 43.6073 C 92.2998 41.2858 96.7595 44.216 100.4317 44.2753 Z " stroke-width="1.2558399379931342"/>
    <path id="ID0.46721756737679243" fill="#A2887F" stroke="none" stroke-linecap="round" d="M 85.8516 46.0045 L 87.5447 46.6484 L 113.5387 45.62 L 106.4533 50.8783 L 89.6573 48.8319 L 90.8341 51.1911 L 91.2278 56.7968 L 95.0381 63.8929 L 90.3008 57.3281 L 85.8516 46.0045 Z " stroke-width="0.5080372454214919"/>
    <path id="ID0.8256730306893587" fill="none" stroke="#937B73" stroke-width="1.0160744908429837" stroke-linecap="round" d="M 97.1875 57.4545 C 97.1875 57.4545 99.871 56.7911 101.2309 56.5661 C 101.571 56.5099 101.9112 56.5792 102.2486 56.617 C 102.5916 56.6557 102.9248 56.8151 103.2694 56.7949 C 103.9524 56.755 104.6164 56.5413 105.2933 56.4395 C 105.629 56.389 105.9678 56.3425 106.3072 56.3381 C 106.6471 56.3337 106.9924 56.3454 107.3255 56.4143 C 107.8731 56.5278 108.938 56.8824 108.938 56.8824 "/>
    <path id="ID0.7592270169407129" fill="none" stroke="#937B73" stroke-width="1.0160744908429837" stroke-linecap="round" d="M 105.4384 58.5782 C 105.4384 58.5782 104.8253 58.9386 104.4835 59.0086 C 104.1518 59.0768 103.8024 58.9406 103.4665 58.9831 C 103.1286 59.026 102.8191 59.2106 102.4824 59.2617 C 102.1478 59.3127 101.7982 59.3539 101.4667 59.287 C 101.1847 59.2299 100.6948 58.8996 100.6948 58.8996 "/>
    <path id="ID0.5332203092984855" fill="none" stroke="#937B73" stroke-width="1.0160744908429837" stroke-linecap="round" d="M 99.5031 49.3236 C 99.5031 49.3236 98.9085 49.7703 98.811 50.1031 C 98.6849 50.5489 98.4515 51.3998 98.9017 51.7016 C 99.4894 51.9772 100.2296 51.2315 100.9237 51.2701 C 101.5955 51.3103 102.9171 51.7287 102.9171 51.7287 "/>
    <path id="ID0.2278452254831791" fill="none" stroke="#937B73" stroke-width="1.0160744908429837" stroke-linecap="round" d="M 103.7544 45.5587 C 103.7544 45.5587 104.7348 47.3973 105.2206 48.3173 C 105.3833 48.6252 105.5616 48.9267 105.7011 49.2454 C 105.8407 49.5642 106.061 49.8799 106.0559 50.2276 C 106.0509 50.5763 105.8527 50.9035 105.6736 51.2027 C 105.5541 51.4028 105.1778 51.6978 105.1778 51.6978 "/>
    <path id="ID0.6473136460408568" fill="none" stroke="#937B73" stroke-width="1.0160746644137884" stroke-linecap="round" d="M 104.6683 62.3452 C 104.6683 62.3452 105.0008 62.972 105.0602 63.3151 C 105.1176 63.6494 105.0663 63.9983 105.0111 64.3329 C 104.9282 64.8371 104.6475 65.8236 104.6475 65.8236 "/>
    <path id="ID0.11669129692018032" fill="#2E3034" stroke="none" stroke-linecap="round" d="M 87.6488 40.6237 L 110.9286 41.8227 L 114.931 44.391 L 105.6522 49.3229 L 84.8929 47.2989 L 87.6488 40.6237 Z " stroke-width="0.5080372454214919"/>
    <path id="ID0.14635155349969864" fill="#2E3034" stroke="none" stroke-linecap="round" d="M 85.1133 45.9467 L 86.9766 46.2814 L 89.7472 51.4214 L 90.1955 57.1783 L 92.1187 60.9418 L 95.1015 64.3995 L 86.7442 59.3986 L 85.1133 45.9467 Z " stroke-width="0.5080372454214919"/>
    <path id="ID0.28340246016159654" fill="#1C1D1F" stroke="none" stroke-linecap="round" d="M 87.767 37.4341 L 91.234 38.8876 L 100.921 39.5378 L 101.0642 45.2881 L 94.1025 44.516 L 90.215 43.5322 L 88.1526 42.0709 L 87.2457 40.3646 L 87.767 37.4341 Z " stroke-width="0.5401026206315164"/>
    <path id="ID0.6101007834076881" fill="#FFFFFF" stroke="none" stroke-linecap="round" d="M 91.6099 39.8175 L 93.2721 40.176 L 97.0808 41.2828 L 97.6743 43.2369 L 92.385 41.9152 L 91.6099 39.8175 Z " stroke-width="0.4061062165979924"/>
    <path id="ID0.28340246016159654" fill="#1C1D1F" stroke="none" stroke-linecap="round" d="M 113.0669 36.8344 L 110.0437 38.2827 L 101.4451 39.2918 L 101.5728 44.4195 L 107.7387 43.4228 L 111.1573 42.3742 L 112.9293 40.9811 L 113.6613 39.4212 L 113.0669 36.8344 Z " stroke-width="0.48162497687293043"/>
    <path id="ID0.6101007834076881" fill="#FFFFFF" stroke="none" stroke-linecap="round" d="M 111.4637 38.9224 L 109.935 39.452 L 106.4649 40.9348 L 106.1289 42.8487 L 110.9726 40.9927 L 111.4637 38.9224 Z " stroke-width="0.3863867521627226"/>
    <g id="ID0.07940126257017255">
      <path id="ID0.46257128613069654" fill="#27282B" stroke="none" stroke-linecap="round" d="M 101.1139 39.4028 L 105.7041 49.2491 L 95.6419 48.2292 L 101.1139 39.4028 Z " stroke-width="0.5080372454214919"/>
      <path id="ID0.9845890481956303" fill="#27282B" stroke="none" stroke-linecap="round" d="M 101.8759 39.5071 L 110.3377 46.6652 L 105.7284 49.321 L 101.8759 39.5071 Z " stroke-width="0.5080372454214919"/>
    </g>
    <path id="ID0.20071752788498998" fill="#202324" stroke="none" d="M 92.5453 35.0444 L 96.7484 37.5062 L 101.5261 38.556 L 101.6371 39.9508 L 93.8349 38.8746 L 87.8853 36.6851 L 89.5679 34.8645 L 92.5453 35.0444 Z " stroke-width="0.5080372454214919"/>
    <path id="ID0.20071752788498998" fill="#202324" stroke="none" d="M 109.3278 34.2679 L 106.3368 36.7901 L 101.1337 38.4816 L 101.0957 39.7647 L 108.1958 38.4223 L 113.5736 36.2602 L 111.9803 34.0619 L 109.3278 34.2679 Z " stroke-width="0.4660979826965212"/>
    <path id="ID0.521138689480722" fill="none" stroke="#212325" stroke-width="0.9060627332056248" stroke-linecap="round" d="M 113.1085 36.5173 L 109.9098 38.1831 L 101.4039 39.6411 "/>
    <path id="ID0.17828734638169408" fill="none" stroke="#202324" stroke-width="1.0160744908429837" stroke-linecap="round" d="M 105.5368 48.7668 L 102.4362 41.6022 C 101.3755 39.2086 101.5379 39.7732 101.3249 38.8094 C 101.2504 38.4728 101.4599 38.1311 101.5027 37.7886 C 101.5446 37.4511 101.6002 37.1097 101.579 36.7703 C 101.5578 36.4273 101.4504 36.094 101.376 35.7589 C 101.2598 35.2359 101.0066 34.1927 101.0066 34.1927 "/>
    <path id="ID0.521138689480722" fill="none" stroke="#212325" stroke-width="1.0160744908429837" stroke-linecap="round" d="M 88.0511 36.8959 L 91.7267 38.5831 L 101.335 39.7414 "/>
    <path id="ID0.8012696979567409" fill="none" stroke="url(#grad_1)" stroke-width="1.0160744908429837" stroke-linecap="round" d="M 113.5273 45.1629 L 106.1589 49.2595 L 87.5123 47.3861 L 89.5891 51.1967 L 90.0456 57.2836 L 92.0654 60.8415 L 95.0507 64.4008 "/>
    <path id="ID0.043594349175691605" fill="#D7E2FD" stroke="none" stroke-linecap="round" d="M 96.8581 42.3642 L 97.0588 41.2412 L 97.6179 43.2854 L 95.0094 42.6135 L 96.8581 42.3642 Z " stroke-width="0.5080372454214919"/>
    <path id="ID0.043594349175691605" fill="#D7E2FD" stroke="none" stroke-linecap="round" d="M 106.7853 41.9082 L 106.4952 40.9124 L 106.1875 42.8144 L 108.4805 41.9548 L 106.7853 41.9082 Z " stroke-width="0.461864292904943"/>
  </g>
  <g id="ID0.7049301471561193">
    <path id="ID0.05466862628236413" fill="#303436" stroke="none" stroke-linecap="round" d="M 96.874 219.6384 L 119.8355 233.3412 L 104.1577 244.8921 L 99.756 247.8098 L 87.8578 261.5059 L 59.7439 291.008 L 46.3966 282.5781 L 58.6679 264.0189 L 61.9971 255.5975 L 66.9108 247.4443 L 77.0473 238.2765 L 84.8222 228.718 L 96.874 219.6384 Z " stroke-width="0.7305889855478901"/>
    <path id="ID0.4490455654449761" fill="none" stroke="#272A2B" stroke-width="1.6585522282288765" stroke-linecap="round" d="M 96.3673 220.3029 L 119.5646 233.6995 L 98.8979 248.3535 "/>
    <path id="ID0.10446935473009944" fill="none" stroke="#242728" stroke-width="1.6585522282288765" stroke-linecap="round" d="M 90.8533 257.7068 L 80.101 270.6651 L 67.2885 269.7018 "/>
    <path id="ID0.42170455446466804" fill="none" stroke="#242728" stroke-width="1.6585522282288765" stroke-linecap="round" d="M 78.5111 270.8724 L 67.8764 281.6385 L 54.7709 280.6864 "/>
    <path id="ID0.047098892275244" fill="none" stroke="#242728" stroke-width="1.6585522282288765" stroke-linecap="round" d="M 84.9603 229.3326 L 82.1238 232.0675 L 80.0246 241.7745 "/>
  </g>
  <g id="ID0.4107501800172031">
    <g id="ID0.12414784263819456">
      <path id="ID0.05466862628236413" fill="#292D2E" stroke="none" stroke-linecap="round" d="M 179.8884 171.9699 L 179.8113 145.2305 L 197.7861 152.7221 L 202.5538 154.9929 L 220.4213 158.1399 L 260.1882 167.0484 L 259.8347 182.831 L 237.6063 181.8683 L 228.6729 183.3509 L 219.1535 183.3371 L 206.0749 179.3686 L 193.8776 177.6257 L 179.8884 171.9699 Z " stroke-width="0.7305889834365055"/>
      <path id="ID0.4490455654449761" fill="none" stroke="#272A2B" stroke-width="1.6585522180291297" stroke-linecap="round" d="M 180.2135 172.2524 L 179.7525 145.4685 L 202.9563 155.6389 "/>
      <path id="ID0.10446935473009944" fill="none" stroke="#242728" stroke-width="1.6585522180291297" stroke-linecap="round" d="M 215.1167 157.7187 L 231.7616 160.2632 L 237.5334 171.7426 "/>
      <path id="ID0.42170455446466804" fill="none" stroke="#242728" stroke-width="1.6585522180291297" stroke-linecap="round" d="M 232.758 161.5194 L 247.4632 165.092 L 253.3955 176.8167 "/>
      <path id="ID0.047098892275244" fill="none" stroke="#242728" stroke-width="1.6585522180291297" stroke-linecap="round" d="M 193.8382 177.2001 L 197.6431 178.2233 L 207.0452 175.0244 "/>
    </g>
    <path id="ID0.5368814701214433" fill="#292D2E" stroke="none" stroke-linecap="round" d="M 265.018 188.6503 L 256.1317 185.9457 L 246.7961 181.6442 L 252.4517 171.5519 L 259.858 160.1341 L 269.846 142.4671 L 276.3385 141.2574 L 278.0154 165.926 L 274.7783 187.2406 L 265.018 188.6503 Z " stroke-width="0.7702164928877708"/>
  </g>
  <g id="ID0.7397577832452953">
    <path id="ID0.6726378230378032" fill="#393C40" stroke="none" stroke-linecap="round" d="M 49.3985 150.4984 L 56.4079 133.3037 L 58.7767 133.834 L 51.5553 150.6436 L 49.3985 150.4984 Z " stroke-width="0.8164596042748921"/>
    <path id="ID0.6507829907350242" fill="#1D1E1F" stroke="none" stroke-linecap="round" d="M 50.9614 153.6647 L 58.7652 133.5749 L 77.6549 131.6549 L 88.439 132.3805 L 104.4427 130.4054 L 110.8501 128.9976 L 114.351 140.6997 L 107.8935 141.7023 L 98.3948 144.7256 L 86.3876 149.0868 L 77.0914 152.0851 L 50.9614 153.6647 Z " stroke-width="0.8164596042748921"/>
    <path id="ID0.6829322893172503" fill="#1D1E1F" stroke="none" stroke-linecap="round" d="M 113.9959 141.1549 L 107.6563 131.4484 L 112.7259 127.5321 L 118.1006 122.7555 L 123.7728 122.0555 L 128.5071 122.0882 L 131.7958 123.7389 L 138.6559 124.3319 L 139.0283 129.0162 L 137.1526 130.4817 L 137.15 132.1273 L 134.9165 135.6936 L 132.3029 139.5124 L 128.0962 142.0883 L 120.906 142.153 L 113.9959 141.1549 Z " stroke-width="0.8164596042748921"/>
    <path id="ID0.47767175547778606" fill="none" stroke="#0D0D0D" stroke-width="1.6329192085497841" stroke-linecap="round" d="M 54.8915 153.1797 L 50.8049 153.3961 L 58.7752 133.6559 L 72.712 132.2649 "/>
    <path id="ID0.5922487881034613" fill="#282A2B" stroke="none" stroke-linecap="round" d="M 84.6347 150.5468 L 78.1785 144.2276 L 77.5095 138.1403 L 82.6647 131.2519 L 97.7089 130.8348 L 105.7793 134.569 L 106.2044 138.0128 L 99.6616 144.9902 L 84.6347 150.5468 Z " stroke-width="0.8164596042748921"/>
    <path id="ID0.36820242274552584" fill="#151616" stroke="none" stroke-linecap="round" d="M 86.7718 143.9151 L 85.6507 135.4979 L 97.4061 136.7618 L 97.5101 138.2709 L 86.7718 143.9151 Z " stroke-width="0.8164596042748921"/>
    <path id="ID0.13569410238415003" fill="none" stroke="#232425" stroke-width="1.6329192085497841" stroke-linecap="round" d="M 97.8452 143.2715 L 104.2758 136.7193 L 96.343 132.4334 "/>
    <path id="ID0.024502143263816833" fill="none" stroke="#0D0D0D" stroke-width="1.6329192085497841" stroke-linecap="round" d="M 84.5328 150.0561 L 78.4908 144.4262 L 77.5076 138.4599 L 82.6528 131.4905 L 91.2711 131.3318 "/>
  </g>
</svg>