<svg xmlns="http://www.w3.org/2000/svg" xmlns:xlink="http://www.w3.org/1999/xlink" version="1.1" width="114.5214382718289" height="267.0038372586453" viewBox="0.521724268283246 1.1810464108842593 114.5214382718289 267.0038372586453">
  <!-- Exported by Scratch - http://scratch.mit.edu/ -->
  <path id="ID0.7766774026677012" fill="#0D0D0D" stroke="#0D0D0D" stroke-width="1.991477639504675" stroke-linecap="round" d="M 114.0366 124.0978 C 113.5131 90.9041 114.444 56.431 103.6191 24.6413 C 99.5254 12.6224 84.263 7.0055 72.2474 2.645 C 66.7629 0.6577 61.1643 5.5327 55.7201 7.2577 C 54.1742 7.7434 53.0231 8.7747 51.7071 9.465 C 49.8455 10.2443 47.888 10.8327 46.1941 11.6636 C 45.5943 11.9595 44.9906 12.2514 44.4383 12.6448 C 43.7863 12.988 43.2834 13.4807 42.6811 13.8738 C 41.4267 14.6101 40.1721 15.3959 38.9181 16.0826 C 37.6646 16.6701 36.3617 17.1582 35.158 17.7956 C 34.5562 18.0896 33.9048 18.3336 33.4022 18.7768 C 32.7996 19.2195 32.3955 19.9111 31.8921 20.5031 C 31.3892 20.9959 30.8863 21.4887 30.3834 21.9814 C 29.8808 22.4247 29.2282 22.867 28.8747 23.4598 C 28.4715 24.0028 28.3671 24.7458 28.1131 25.4383 C 27.8593 26.0813 27.5555 26.724 27.3515 27.4168 C 26.8939 28.703 26.4861 30.0391 26.0783 31.3753 C 25.8245 32.0182 25.5707 32.6612 25.3167 33.3537 C 25.0629 33.9967 24.8091 34.6397 24.5551 35.3322 C 24.3013 35.9752 24.0475 36.6182 23.7935 37.3107 C 23.5397 37.9537 23.1859 38.5961 23.0319 39.2892 C 22.8281 39.9325 22.8243 40.5769 22.7703 41.2706 C 22.6665 41.9145 22.5627 42.5583 22.5086 43.2521 C 22.4049 43.8959 22.3511 44.5401 22.247 45.2335 C 22.0933 45.877 21.8395 46.52 21.7354 47.2134 C 21.2741 49.1441 20.8622 51.1742 20.4506 53.1548 C 20.2968 53.7983 20.0431 54.4413 19.939 55.1347 C 19.7852 55.7783 19.7314 56.4224 19.6774 57.1161 C 19.5736 57.76 19.4198 58.4036 19.4158 59.0976 C 19.362 59.7417 19.4082 60.3864 19.4041 61.0804 C 19.3966 62.3693 19.2888 63.7072 19.3809 65.0462 C 19.3771 65.6907 19.5754 65.9893 19.6193 67.0306 C 19.6458 71.0462 19.572 75.1108 19.5482 79.1757 C 19.5252 83.0919 19.5017 87.1073 19.4785 91.073 C 19.4671 93.0064 19.5052 95.0391 19.4436 97.0217 C 19.3898 97.6658 19.2861 98.3097 19.182 99.0031 C 18.9233 100.4888 18.5649 101.9244 18.4059 103.4602 C 18.3021 104.1041 18.3983 104.7491 18.3943 105.4431 C 18.3405 106.0872 18.1867 106.7308 18.1326 107.4245 C 17.9251 108.7122 17.6673 110.0492 17.6094 111.3874 C 17.5019 112.6756 17.594 114.0147 17.5862 115.3531 C 17.5633 119.2693 17.5397 123.2847 17.5165 127.2504 C 17.511 128.1923 17.5589 128.5396 17.5049 129.2333 C 17.4011 129.8772 17.0973 130.5199 16.9933 131.2133 C 16.632 133.1445 16.4701 135.1761 16.2084 137.1575 C 16.1047 137.8014 16.0509 138.4455 15.9468 139.139 C 15.6387 140.5252 15.1806 141.9106 14.9222 143.3467 C 14.7681 144.0399 14.7135 144.8327 14.6591 145.576 C 14.555 146.2694 14.4007 147.0121 14.396 147.8053 C 14.3423 148.4494 14.3885 149.0942 14.3844 149.7882 C 14.3806 150.4326 14.2769 151.0765 14.3728 151.7711 C 14.5153 153.0608 14.8574 154.4013 15.0996 155.7412 C 15.1958 156.3862 15.292 157.0313 15.3379 157.7256 C 15.3342 158.37 15.3304 159.0144 15.3263 159.7085 C 15.3225 160.3529 15.3188 160.9973 15.3147 161.6913 C 15.2072 162.9796 15.1993 164.3181 15.0415 165.6556 C 14.8342 166.8938 14.2697 169.3692 14.2697 169.3692 C 14.0168 169.8634 13.3783 172.6814 12.9921 174.0712 C 12.7827 174.8265 12.4565 175.5473 12.2291 176.2975 C 12.0313 176.9498 11.8884 177.6182 11.7175 178.2775 C 11.5466 178.9368 11.3368 179.589 11.2059 180.2575 C 11.078 180.9111 11.0721 181.5852 10.9443 182.2389 C 10.8133 182.9074 10.6415 183.5706 10.4327 184.2188 C 10.2167 184.8908 9.8481 185.5142 9.6711 186.1973 C 9.5043 186.8418 9.4963 187.5189 9.4094 188.1787 C 9.3226 188.8386 9.2347 189.5003 9.1478 190.1602 C 9.061 190.82 8.9731 191.4818 8.8862 192.1416 C 8.7994 192.8014 8.6565 193.4579 8.6246 194.123 C 8.5619 195.4423 8.6641 196.7695 8.6014 198.0888 C 8.5695 198.7539 8.4266 199.4104 8.3398 200.0702 C 8.2529 200.73 8.1101 201.3865 8.0782 202.0516 C 8.0154 203.3709 8.0347 204.6966 8.0549 206.0174 C 8.0954 208.6599 8.2069 211.3088 8.2585 213.9504 C 8.2716 214.6108 8.2507 215.273 8.2468 215.9333 C 8.243 216.5936 8.2811 217.2571 8.2352 217.9162 C 8.1893 218.5802 8.1014 219.2439 7.9736 219.8976 C 7.8427 220.566 7.551 221.2029 7.462 221.8775 C 7.3752 222.5324 7.4963 223.2013 7.4504 223.8604 C 7.4045 224.5244 7.2347 225.1778 7.1888 225.8418 C 7.1429 226.5009 7.223 227.1657 7.1772 227.8247 C 7.1313 228.4887 7.0434 229.1525 6.9156 229.8061 C 6.7846 230.4746 6.5349 231.1176 6.4039 231.7861 C 6.2761 232.4397 6.2702 233.1139 6.1423 233.7675 C 6.0114 234.436 5.7477 235.0769 5.6307 235.7475 C 5.402 237.0588 5.2822 238.3907 5.1075 239.7103 C 5.0206 240.3701 4.9328 241.0319 4.8459 241.6917 C 4.759 242.3515 4.6302 243.0091 4.5843 243.6731 C 4.5384 244.3322 4.5345 244.9965 4.5727 245.656 C 4.6108 246.3205 4.7869 246.975 4.811 247.6404 C 4.8583 248.9603 4.9605 250.2964 4.7878 251.6062 C 4.6099 252.9555 4.1562 254.2616 3.7646 255.5661 C 3.5616 256.2421 3.2189 256.8726 3.003 257.5446 C 2.7942 258.1927 2.7002 258.8763 2.4914 259.5245 C 2.2754 260.1965 1.8648 260.8107 1.7298 261.503 C 1.603 262.1517 1.3293 262.9492 1.7182 263.4859 C 2.1328 264.0584 3.0083 264.1498 3.7138 264.2412 C 4.3793 264.3274 5.0442 264.0011 5.7152 264.005 C 6.3862 264.009 7.0427 264.2607 7.7137 264.2646 C 8.3847 264.2685 9.0449 264.0662 9.7151 264.0285 C 10.3804 263.9907 11.0546 263.954 11.7151 264.0402 C 12.3956 264.1284 13.0919 264.2565 13.7122 264.5476 C 14.3594 264.8518 14.7772 265.5691 15.4549 265.7972 C 16.0856 266.0101 16.7888 265.805 17.4548 265.8089 C 18.1208 265.8128 18.7933 265.899 19.4548 265.8206 C 20.1363 265.7403 20.7762 265.4169 21.4577 265.3366 C 22.1191 265.2582 22.7929 265.3028 23.4576 265.3483 C 24.1274 265.3939 24.7864 265.5623 25.4561 265.6079 C 26.1209 265.6534 26.7956 265.5334 27.4561 265.6196 C 28.1366 265.7079 28.7727 266.0388 29.4532 266.127 C 30.1137 266.2132 30.7884 266.0932 31.4531 266.1388 C 32.1229 266.1843 32.7861 266.3121 33.4517 266.3983 C 34.1172 266.4845 34.7791 266.6748 35.4502 266.6579 C 37.4545 266.6072 39.4513 266.3096 41.453 266.1973 C 42.1182 266.1596 42.7882 266.1635 43.4529 266.2091 C 44.1227 266.2546 44.7806 266.4369 45.4514 266.4686 C 46.7821 266.531 48.1207 266.4297 49.4514 266.4921 C 50.1222 266.5238 50.7801 266.7061 51.4499 266.7516 C 52.1146 266.7972 52.7846 266.8011 53.4499 266.7634 C 54.1201 266.7256 54.781 266.5649 55.4513 266.5272 C 56.1165 266.4895 56.786 266.5767 57.4512 266.5389 C 58.1215 266.5012 58.7833 266.3544 59.4527 266.3028 C 60.7833 266.2005 62.1191 266.0705 63.454 266.0784 C 64.125 266.0823 64.7933 266.2111 65.4526 266.3379 C 66.1268 266.4678 66.7691 266.7571 67.4496 266.8454 C 68.1101 266.9315 68.7836 266.8532 69.4496 266.8571 C 71.4475 266.8688 73.4529 266.8191 75.4495 266.8922 C 76.1203 266.917 76.7782 267.1062 77.448 267.1518 C 78.1127 267.1973 78.7827 267.2013 79.448 267.1635 C 80.1182 267.1258 80.7829 267.0058 81.4494 266.9274 C 82.1158 266.849 82.7806 266.729 83.4508 266.6912 C 84.116 266.6535 84.7951 266.8211 85.4508 266.703 C 86.1505 266.5772 85.8567 266.3791 87.4551 265.9711 C 93.8478 264.3389 105.2679 267.5904 106.8835 261.1771 C 112.6446 238.2948 104.9368 213.6621 106.1505 189.9848 C 107.2702 168.1848 114.3616 146.288 114.0366 124.0978 Z "/>
</svg>