<svg xmlns="http://www.w3.org/2000/svg" xmlns:xlink="http://www.w3.org/1999/xlink" version="1.1" width="190.76689153923883" height="202.1692047716607" viewBox="5.76210018985325 3.102585762668191 190.76689153923883 202.1692047716607">
  <!-- Exported by Scratch - http://scratch.mit.edu/ -->
  <g id="ID0.7085462282411754">
    <g id="ID0.5880346246995032">
      <path id="ID0.6829322893172503" fill="#796B5E" stroke="none" stroke-linecap="round" d="M 145.8952 145.0112 L 134.9537 146.4807 L 135.3569 152.6334 L 135.3379 159.5483 L 138.4204 164.122 L 141.4342 167.5524 L 144.6913 168.9138 L 149.4483 173.5421 L 153.0314 170.8743 L 152.894 168.5875 L 154.0685 167.553 L 155.2065 163.6873 L 156.2849 159.386 L 155.4687 154.7034 L 150.9733 149.4217 L 145.8952 145.0112 Z " stroke-width="0.7820137311437043"/>
      <g id="ID0.9434720128774643">
        <path id="ID0.6507829907350242" fill="#2C3134" stroke="none" stroke-linecap="round" d="M 115.3705 90.0651 L 105.9414 108.3591 L 116.1386 121.1985 L 123.8313 130.7381 L 132.5283 143.6427 L 134.4628 150.4706 L 147.3994 144.6017 L 142.782 139.0696 L 138.9429 130.2488 L 134.4755 118.7601 L 127.94 107.6742 L 115.3705 90.0651 Z " stroke-width="0.7820137311437043"/>
        <path id="ID0.9892375003546476" fill="none" stroke="#191919" stroke-width="1.9156213270159816" stroke-linecap="round" d="M 146.5932 144.1482 L 134.4897 149.1492 L 131.872 141.0131 "/>
      </g>
    </g>
    <path id="ID0.7729651997797191" fill="#2C3134" stroke="none" stroke-linecap="round" d="M 98.9717 65.214 L 78.3172 74.3828 L 88.937 90.9144 L 96.7714 98.512 L 101.8484 105.902 L 107.5611 112.2655 L 120.6126 102.5702 L 119.7404 95.7377 L 105.974 76.6753 L 98.9717 65.214 Z " stroke-width="0.9184073403197718"/>
    <path id="ID0.4757494777441025" fill="#2C3134" stroke="none" stroke-linecap="round" d="M 82.537 56.6536 L 74.1965 58.868 L 62.7889 70.4947 L 81.6496 88.1937 L 92.8462 87.558 L 97.2205 86.3389 L 98.8707 82.8136 L 99.9385 78.9524 L 103.6208 74.0508 L 101.182 69.3607 L 96.8138 62.8458 L 90.1924 57.3042 L 82.537 56.6536 Z " stroke-width="0.4625155945395199"/>
  </g>
  <g id="ID0.6688785348087549">
    <path id="ID0.5368814701214433" fill="#343434" stroke="none" stroke-linecap="round" d="M 149.0751 164.6161 L 146.8165 155.6061 L 145.6952 145.3885 L 157.2588 145.0381 L 170.8603 145.5058 L 191.1481 144.9676 L 195.529 149.9096 L 175.2478 164.0526 L 155.3105 172.2561 L 149.0751 164.6161 Z " stroke-width="0.7702165533500696"/>
    <g id="ID0.5077062323689461">
      <path id="ID0.05466862628236413" fill="#252525" stroke="none" stroke-linecap="round" d="M 111.5066 102.7821 L 128.0725 88.3747 L 134.4178 101.7294 L 136.4576 106.3686 L 144.1613 118.6346 L 163.9758 145.4539 L 147.4653 159.1059 L 136.3544 143.9452 L 130.6362 139.193 L 125.5327 133.2733 L 120.9741 123.0193 L 115.5064 114.5078 L 111.5066 102.7821 Z " stroke-width="0.5998532857109622"/>
      <path id="ID0.5319394422695041" fill="none" stroke="#131313" stroke-width="1.9999999994122568" stroke-linecap="round" d="M 163.4093 144.7786 L 147.5481 159.475 L 140.5808 150.2714 "/>
    </g>
  </g>
  <g id="ID0.8820344842970371">
    <path id="ID0.3809091211296618" fill="#252525" stroke="none" stroke-linecap="round" d="M 96.1109 167.7127 L 59.2154 162.6681 L 73.615 143.1431 L 101.2969 103.1485 L 108.4937 95.145 L 118.7461 88.9646 L 123.6147 95.7886 L 134.4442 103.0117 L 121.1447 120.2495 L 114.0457 131.6334 L 96.1109 167.7127 Z " stroke-width="0.7305889591093907"/>
    <path id="ID0.9495224836282432" fill="none" stroke="#131313" stroke-width="2.000000011729554" stroke-linecap="round" d="M 101.4214 103.0542 L 106.8157 96.4852 L 113.4383 91.5719 L 122.8631 93.4885 L 126.8091 90.259 "/>
  </g>
  <g id="ID0.7085462282411754">
    <g id="ID0.5880346246995032">
      <path id="ID0.6829322893172503" fill="#796B5E" stroke="none" stroke-linecap="round" d="M 11.259 178.1918 L 21.3174 173.6412 L 24.2351 179.073 L 27.9147 184.9277 L 27.7235 190.4399 L 26.9849 194.946 L 24.9438 197.8262 L 23.3614 204.2718 L 18.9091 203.9076 L 17.8141 201.8953 L 16.2699 201.6402 L 13.2566 198.9645 L 10.0631 195.8878 L 8.2745 191.484 L 9.2889 184.6228 L 11.259 178.1918 Z " stroke-width="0.78201369932095"/>
      <g id="ID0.9434720128774643">
        <path id="ID0.6507829907350242" fill="#2C3134" stroke="none" stroke-linecap="round" d="M 8.0932 115.3586 L 25.7824 125.8787 L 23.9363 142.1705 L 22.4661 154.3368 L 21.9269 169.8892 L 23.9036 176.705 L 9.8225 178.5813 L 10.8077 171.4431 L 9.3904 161.928 L 7.0926 149.8174 L 6.7621 136.9526 L 8.0932 115.3586 Z " stroke-width="0.78201369932095"/>
        <path id="ID0.9892375003546476" fill="none" stroke="#191919" stroke-width="1.9156212048797878" stroke-linecap="round" d="M 10.2986 177.8597 L 23.2133 175.6887 L 21.123 167.4014 "/>
      </g>
    </g>
    <path id="ID0.7729651997797191" fill="#2C3134" stroke="none" stroke-linecap="round" d="M 8.8296 85.5828 L 31.2047 82.4162 L 30.9564 102.0634 L 28.337 112.6578 L 27.9464 121.6152 L 26.4728 130.0389 L 10.2669 128.7308 L 7.3868 122.4739 L 8.963 99.0132 L 8.8296 85.5828 Z " stroke-width="0.9184072936475666"/>
    <path id="ID0.4757494777441025" fill="#2C3134" stroke="none" stroke-linecap="round" d="M 18.1237 69.6355 L 26.3707 67.0948 L 42.2055 70.9119 L 35.5864 95.9153 L 25.7535 101.3081 L 21.3977 102.5916 L 18.1304 100.476 L 15.1791 97.767 L 9.4592 95.5608 L 9.0427 90.2909 L 9.2959 82.4512 L 11.9757 74.2432 L 18.1237 69.6355 Z " stroke-width="0.4625155688856304"/>
  </g>
  <g id="ID0.8990198895335197">
    <path id="ID0.17576928716152906" fill="#DBDBDB" stroke="none" d="M 52.5754 58.0287 L 52.3416 58.0712 L 52.3416 58.0712 L 52.5754 58.0287 L 52.5754 58.0287 Z " stroke-width="0.9578126376112066"/>
    <path id="ID0.4270821204409003" fill="#252525" stroke="none" stroke-linecap="round" d="M 71.6886 174.3013 L 52.0283 67.2603 L 68.6848 66.6716 L 75.819 69.7209 L 79.1186 73.1498 L 87.4559 82.9878 L 88.3862 93.0778 L 88.3292 98.4388 L 90.9481 104.7688 L 92.2317 109.9158 L 91.2758 116.8165 L 90.5568 122.0506 L 90.8584 131.0774 L 95.6127 151.7261 L 92.0417 160.3242 L 88.5002 166.963 L 71.6886 174.3013 Z " stroke-width="0.45605531970161484"/>
    <path id="ID0.4270821204409003" fill="#252525" stroke="none" stroke-linecap="round" d="M 71.688 174.405 L 52.5029 67.2778 L 36.7008 72.5764 L 31.0919 77.937 L 29.2068 82.3063 L 24.8557 94.4457 L 27.5282 104.2197 L 29.4644 109.2192 L 29.2354 116.0657 L 29.8412 121.3356 L 33.1598 127.461 L 35.6712 132.1092 L 38.5591 140.667 L 41.3594 161.67 L 47.7227 168.4663 L 46.8697 184.6546 L 71.688 174.405 Z " stroke-width="0.4560553208573387"/>
    <path id="ID0.5114514343440533" fill="#282828" stroke="none" d="M 28.0315 72.8134 L 77.5929 63.8241 L 92.7943 147.6346 L 43.2329 156.624 L 28.0315 72.8134 Z " stroke-width="0.9660237102854617"/>
    <path id="ID0.9286923445761204" fill="#D4D4D4" stroke="none" stroke-linecap="round" d="M 40.6868 57.0935 L 53.622 36.3683 L 50.2175 55.505 L 58.3689 93.7271 L 17.8793 72.58 L 34.8517 58.8992 L 40.6868 57.0935 Z " stroke-width="0.4560553904036264"/>
    <path id="ID0.9286923445761204" fill="#D4D4D4" stroke="none" stroke-linecap="round" d="M 55.7405 53.3163 L 39.8569 39.1493 L 49.7654 55.8713 L 57.7902 93.6493 L 86.0404 60.5014 L 65.5062 52.6426 L 55.7405 53.3163 Z " stroke-width="0.4560553904036264"/>
    <path id="ID0.39874776685610414" fill="#1F2022" stroke="none" stroke-linecap="round" d="M 33.2482 60.1011 L 53.5289 66.1052 L 68.6941 54.5644 L 72.8059 55.9157 L 53.9967 69.7238 L 30.0698 62.5962 L 33.2482 60.1011 Z " stroke-width="0.9033554864802262"/>
    <path id="ID0.13444371055811644" fill="#1F1F1F" stroke="none" stroke-linecap="round" d="M 51.6443 68.2386 L 56.5107 67.1108 L 64.0382 93.7021 L 52.8561 96.2208 L 51.6443 68.2386 Z " stroke-width="0.9578126376112066"/>
    <path id="ID0.751046194229275" fill="#191919" stroke="none" stroke-linecap="round" d="M 48.5982 63.9388 L 52.6194 61.2133 L 57.1873 62.381 L 58.9725 69.8801 L 55.0285 71.5666 L 49.9719 71.5126 L 48.5982 63.9388 Z " stroke-width="1.0535939081810382"/>
    <path id="ID0.7854711129330099" fill="#282828" stroke="none" stroke-linecap="round" d="M 44.0011 86.0296 L 58.6 91.9649 L 69.7784 80.3732 L 70.9226 97.3321 L 49.1811 101.2755 L 44.0011 86.0296 Z " stroke-width="0.9578126376112066"/>
    <path id="ID0.562834897544235" fill="#282828" stroke="none" stroke-linecap="round" d="M 40.6539 156.7737 L 67.9509 146.1823 L 71.439 165.4136 L 58.7964 168.9328 L 40.6539 156.7737 Z " stroke-width="0.9578126376112066"/>
    <path id="ID0.562834897544235" fill="#282828" stroke="none" stroke-linecap="round" d="M 97.6016 146.7684 L 68.3237 146.4384 L 71.8119 165.6697 L 84.8851 164.5247 L 97.6016 146.7684 Z " stroke-width="0.9578126376112066"/>
    <path id="ID0.6824178956449032" fill="none" stroke="#191919" stroke-width="1.9156252752224132" stroke-linecap="round" d="M 58.3755 92.2871 L 71.3622 165.2186 "/>
    <path id="ID0.4144489667378366" fill="#40474C" stroke="none" stroke-linecap="round" d="M 16.9196 69.8514 L 34.4778 58.8193 L 35.4189 79.9839 L 48.7933 136.4144 L 47.618 180.5245 L 36.4704 177.6417 L 36.8395 181.0081 L 31.3767 134.9139 L 19.4849 94.6453 L 15.7507 79.3824 L 16.9196 69.8514 Z " stroke-width="0.9578126376112066"/>
    <path id="ID0.5234400681219995" fill="#101010" stroke="none" d="M 61.4415 97.2913 C 61.8273 97.2213 62.2061 97.317 62.5061 97.5283 C 62.8061 97.7396 63.0273 98.0666 63.0984 98.4585 C 63.1694 98.8504 63.0772 99.2342 62.8705 99.5374 C 62.6639 99.8406 62.3428 100.0632 61.9569 100.1332 C 61.571 100.2032 61.1922 100.1075 60.8923 99.8962 C 60.5923 99.6849 60.3711 99.3579 60.3 98.966 C 60.2289 98.5741 60.3212 98.1903 60.5278 97.8871 C 60.7345 97.5839 61.0556 97.3613 61.4415 97.2913 Z " stroke-width="0.6034219456099621"/>
    <path id="ID0.5234400681219995" fill="#101010" stroke="none" d="M 63.7915 110.1913 C 64.1773 110.1213 64.5561 110.217 64.8561 110.4283 C 65.1561 110.6396 65.3773 110.9666 65.4484 111.3585 C 65.5194 111.7504 65.4272 112.1342 65.2205 112.4374 C 65.0139 112.7406 64.6928 112.9632 64.3069 113.0332 C 63.921 113.1032 63.5422 113.0075 63.2423 112.7962 C 62.9423 112.5849 62.7211 112.2579 62.65 111.866 C 62.5789 111.4741 62.6712 111.0903 62.8778 110.7871 C 63.0845 110.4839 63.4056 110.2613 63.7915 110.1913 Z " stroke-width="0.6034219456099621"/>
    <path id="ID0.5234400681219995" fill="#101010" stroke="none" d="M 69.2415 140.1413 C 69.6273 140.0713 70.0061 140.167 70.3061 140.3783 C 70.6061 140.5896 70.8273 140.9166 70.8984 141.3085 C 70.9694 141.7004 70.8772 142.0842 70.6705 142.3874 C 70.4639 142.6906 70.1428 142.9132 69.7569 142.9832 C 69.371 143.0532 68.9922 142.9575 68.6923 142.7462 C 68.3923 142.5349 68.1711 142.2079 68.1 141.816 C 68.0289 141.4241 68.1212 141.0403 68.3278 140.7371 C 68.5345 140.4339 68.8556 140.2113 69.2415 140.1413 Z " stroke-width="0.6034219456099621"/>
    <path id="ID0.5234400681219995" fill="#101010" stroke="none" d="M 66.6415 126.0413 C 67.0273 125.9713 67.4061 126.067 67.7061 126.2783 C 68.0061 126.4896 68.2273 126.8166 68.2984 127.2085 C 68.3694 127.6004 68.2772 127.9842 68.0705 128.2874 C 67.8639 128.5906 67.5428 128.8132 67.1569 128.8832 C 66.771 128.9532 66.3922 128.8575 66.0923 128.6462 C 65.7923 128.4349 65.5711 128.1079 65.5 127.716 C 65.4289 127.3241 65.5212 126.9403 65.7278 126.6371 C 65.9345 126.3339 66.2556 126.1113 66.6415 126.0413 Z " stroke-width="0.6034219456099621"/>
    <path id="ID0.5234400681219995" fill="#101010" stroke="none" d="M 71.5415 153.4413 C 71.9273 153.3713 72.3061 153.467 72.6061 153.6783 C 72.9061 153.8896 73.1273 154.2166 73.1984 154.6085 C 73.2694 155.0004 73.1772 155.3842 72.9705 155.6874 C 72.7639 155.9906 72.4428 156.2132 72.0569 156.2832 C 71.671 156.3532 71.2922 156.2575 70.9923 156.0462 C 70.6923 155.8349 70.4711 155.5079 70.4 155.116 C 70.3289 154.7241 70.4212 154.3403 70.6278 154.0371 C 70.8345 153.7339 71.1556 153.5113 71.5415 153.4413 Z " stroke-width="0.6034219456099621"/>
    <path id="ID0.4144489667378366" fill="#40474C" stroke="none" stroke-linecap="round" d="M 85.4468 56.6475 L 65.1325 52.4846 L 71.6844 72.6316 L 78.9805 130.1645 L 95.5725 171.0521 L 104.9976 164.4379 L 105.8342 167.7194 L 94.7607 122.6429 L 91.7525 80.763 L 89.8885 65.1608 L 85.4468 56.6475 Z " stroke-width="0.9578126376112066"/>
    <path id="ID0.8752945330925286" fill="none" stroke="#222222" stroke-width="1.9156252752224132" stroke-linecap="round" d="M 17.4302 70.004 L 15.7261 77.9154 L 25.2678 113.2151 "/>
    <path id="ID0.8752945330925286" fill="none" stroke="#222222" stroke-width="1.9156252752224132" stroke-linecap="round" d="M 85.7223 57.1698 L 90.0964 63.9787 L 93.5598 100.3809 "/>
    <path id="ID0.5234400681219995" fill="#101010" stroke="none" d="M 47.7415 144.6413 C 48.1273 144.5713 48.5061 144.667 48.8061 144.8783 C 49.1061 145.0896 49.3273 145.4166 49.3984 145.8085 C 49.4694 146.2004 49.3772 146.5842 49.1705 146.8874 C 48.9639 147.1906 48.6428 147.4132 48.2569 147.4832 C 47.871 147.5532 47.4922 147.4575 47.1923 147.2462 C 46.8923 147.0349 46.6711 146.7079 46.6 146.316 C 46.5289 145.9241 46.6212 145.5403 46.8278 145.2371 C 47.0345 144.9339 47.3556 144.7113 47.7415 144.6413 Z " stroke-width="0.6034219456099621"/>
    <path id="ID0.5234400681219995" fill="#101010" stroke="none" d="M 47.6415 151.7913 C 48.0273 151.7213 48.4061 151.817 48.7061 152.0283 C 49.0061 152.2396 49.2273 152.5666 49.2984 152.9585 C 49.3694 153.3504 49.2772 153.7342 49.0705 154.0374 C 48.8639 154.3406 48.5428 154.5632 48.1569 154.6332 C 47.771 154.7032 47.3922 154.6075 47.0923 154.3962 C 46.7923 154.1849 46.5711 153.8579 46.5 153.466 C 46.4289 153.0741 46.5212 152.6903 46.7278 152.3871 C 46.9345 152.0839 47.2556 151.8613 47.6415 151.7913 Z " stroke-width="0.6034219456099621"/>
    <g id="ID0.20783481979742646">
      <path id="ID0.5848579816520214" fill="#737373" stroke="none" stroke-linecap="round" d="M 80.5137 85.4182 L 86.6609 82.8318 L 87.2392 86.5526 L 80.5457 88.2571 L 80.5137 85.4182 Z " stroke-width="0.9578126376112066"/>
      <path id="ID0.13105127029120922" fill="none" stroke="#222222" stroke-width="1.9156252752224132" stroke-linecap="round" d="M 79.3264 88.7235 L 83.5344 87.9602 L 88.1854 85.6452 "/>
    </g>
  </g>
  <path id="ID0.46110434643924236" fill="#675B50" stroke="none" stroke-linecap="round" d="M 36.2068 39.7816 L 57.3543 35.9459 L 61.0557 53.8633 L 55.7543 57.6205 L 39.6691 58.8704 L 36.2068 39.7816 Z " stroke-width="1.0405048472656733"/>
  <g id="ID0.9597035455517471">
    <path id="ID0.5368814701214433" fill="#404040" stroke="none" stroke-linecap="round" d="M 139.7983 189.4124 L 137.6907 180.3659 L 136.7406 170.131 L 148.3085 169.9742 L 161.9002 170.6694 L 182.1942 170.4708 L 186.4917 175.4855 L 165.9767 189.287 L 145.9049 197.1557 L 139.7983 189.4124 Z " stroke-width="0.7702164921765663"/>
    <g id="ID0.5077062323689461">
      <path id="ID0.05466862628236413" fill="#252525" stroke="none" stroke-linecap="round" d="M 103.9583 125.7863 L 121.119 112.0928 L 126.8936 125.7041 L 128.7352 130.4255 L 135.913 143.0064 L 154.5748 170.6402 L 137.5014 183.5813 L 127.042 167.964 L 121.53 162.9741 L 116.6816 156.8437 L 112.5609 146.406 L 107.4583 137.6708 L 103.9583 125.7863 Z " stroke-width="0.5998532616188824"/>
      <path id="ID0.5319394422695041" fill="none" stroke="#131313" stroke-width="2.0000000597466254" stroke-linecap="round" d="M 153.9996 169.9408 L 137.5307 183.9529 L 130.9591 174.4627 "/>
    </g>
  </g>
  <g id="ID0.8820344842970371">
    <path id="ID0.3809091211296618" fill="#252525" stroke="none" stroke-linecap="round" d="M 76.1262 191.5673 L 45.0628 186.0465 L 60.3683 167.2231 L 89.9077 128.5802 L 97.4744 120.9255 L 108.0072 115.236 L 112.5482 122.2823 L 124.2961 129.3215 L 111.0915 148.3847 L 103.5147 159.0578 L 76.1262 191.5673 Z " stroke-width="0.7305889730988251"/>
    <path id="ID0.9495224836282432" fill="none" stroke="#131313" stroke-width="1.9999999214516093" stroke-linecap="round" d="M 90.1206 128.6261 L 95.8191 122.3191 L 102.6663 117.724 L 111.9901 120.0834 L 116.0841 117.0439 "/>
  </g>
  <g id="ID0.04595177713781595">
    <path id="ID0.7592270169407129" fill="none" stroke="#675B50" stroke-width="0.998700904999925" stroke-linecap="round" d="M 58.2572 49.2615 C 58.2572 49.2615 58.497 49.9134 58.5034 50.2543 C 58.51 50.5851 58.3147 50.8978 58.2954 51.2282 C 58.2762 51.5607 58.3999 51.8902 58.3888 52.2229 C 58.3781 52.5536 58.3552 52.8971 58.2304 53.2044 C 58.1241 53.4657 57.7148 53.8801 57.7148 53.8801 "/>
    <path id="ID0.48112139804288745" fill="#3A3A3A" stroke="#3A3A3A" stroke-width="1.8513924712479706" stroke-linecap="round" d="M 63.6966 12.0005 C 64.3334 12.2355 63.9532 13.6528 64.3127 14.3702 C 64.6013 14.9461 65.2787 15.2985 65.5021 15.9027 C 65.7158 16.4823 65.5872 17.1391 65.5636 17.7559 C 65.4975 19.4963 65.8964 21.7239 65.2516 23.1623 C 64.9812 23.664 64.1775 22.1422 63.733 21.636 C 62.8279 20.6224 61.8649 19.5659 61.1944 18.4569 C 60.8746 17.9279 60.8248 17.2763 60.673 16.6775 C 60.5229 16.083 60.1212 15.4666 60.2896 14.8759 C 60.4605 14.2766 61.101 13.9111 61.5792 13.5046 C 62.2028 12.9751 62.9667 11.8027 63.6966 12.0005 Z "/>
    <path id="ID0.05099705280736089" fill="#1C1916" stroke="#1C1916" stroke-width="1.9658421684217913" stroke-linecap="round" d="M 33.4799 35.0113 C 33.1962 35.2161 33.7855 36.2788 34.049 36.9971 C 34.2749 37.6117 34.7516 38.1169 35.2065 38.5918 C 35.6626 39.0676 36.2197 39.4431 36.7571 39.8267 C 37.2945 40.2103 37.8731 40.5379 38.431 40.8935 C 38.989 41.249 39.455 42.0991 40.1049 41.9602 C 40.7549 41.8213 41.1764 40.9584 41.1914 40.3022 C 41.2212 38.9957 40.853 37.6502 40.2306 36.4999 C 39.9175 35.922 39.15 35.7276 38.5567 35.4331 C 37.9646 35.1394 37.3488 34.8416 36.6928 34.7431 C 35.735 34.599 34.5181 34.089 33.7831 34.7154 Z "/>
    <path id="ID0.8999492498114705" fill="#796B5E" stroke="none" stroke-linecap="round" d="M 51.0688 5.2464 C 55.4444 5.0182 60.4853 6.8903 63.1686 10.3005 C 66.2307 14.1941 65.5724 19.8233 66.2602 24.6682 C 66.5612 26.7943 66.1851 29.0883 66.0247 31.2889 C 65.796 34.4155 65.4022 37.4365 65.1283 40.4528 C 64.9761 42.2827 65.6155 44.3359 64.7459 45.8407 C 63.3623 48.2341 61.3931 50.7721 58.7523 51.6265 C 55.7006 52.6131 52.3477 51.3009 49.1577 50.8293 C 47.5498 50.5401 45.6548 50.4793 44.4166 49.3538 C 41.7624 46.937 40.0682 43.5817 38.1987 40.5777 C 36.2361 37.4242 33.5301 34.472 32.8853 30.777 C 31.7887 24.4881 29.4586 16.8967 33.3717 11.6035 C 36.8221 6.558 44.5647 5.5885 51.0688 5.2464 Z " stroke-width="0.49936052749699805"/>
    <path id="ID0.8194515448994935" fill="#796B5E" stroke="none" stroke-linecap="round" d="M 32.3854 26.9635 C 33.233 26.9135 33.9246 27.3654 34.5836 28.3071 C 35.2427 29.2488 35.7755 30.6094 36.0253 32.1658 C 36.275 33.7222 36.1945 35.1812 35.8632 36.2818 C 35.5319 37.3825 35.0111 38.0021 34.1957 38.2457 C 33.4469 38.4678 32.398 38.2117 31.9411 37.6184 C 31.0462 36.2802 30.8884 34.5479 30.5558 33.0434 C 30.2284 31.5648 29.6135 29.9799 29.9829 28.5359 C 30.3186 27.6373 31.4972 27.016 32.3854 26.9635 Z " stroke-width="0.9829210842108956"/>
    <path id="ID0.8256730306893587" fill="none" stroke="#675B50" stroke-width="0.998720760689544" stroke-linecap="round" d="M 60.6579 40.7715 C 60.6579 40.7715 59.3861 40.3439 58.75 40.4812 C 58.1476 40.5635 57.7904 41.2953 57.168 41.3903 C 56.4292 41.5027 55.7009 40.9412 54.9592 41.0101 C 53.814 41.5433 52.4913 42.102 52.4913 42.102 "/>
    <path id="ID0.7592270169407129" fill="none" stroke="#675B50" stroke-width="0.9987210549939961" stroke-linecap="round" d="M 54.6879 44.1014 C 54.6879 44.1014 55.3486 44.3366 55.6935 44.3421 C 56.0283 44.3477 56.3438 44.1538 56.6781 44.1339 C 57.0144 44.1141 57.3484 44.2353 57.6849 44.2236 C 58.0195 44.2121 58.3669 44.1885 58.6773 44.0643 C 58.9413 43.9587 59.3587 43.553 59.3587 43.553 "/>
    <path id="ID0.7788236327469349" fill="#FFFFFF" stroke="none" stroke-linecap="round" d="M 43.8343 26.6634 L 45.1219 26.259 L 47.2807 25.6653 L 49.3961 25.4248 L 50.0372 27.5475 L 47.6395 28.5256 L 42.6555 28.6824 L 43.8343 26.6634 Z " stroke-width="0.9829210842108956"/>
    <path id="ID0.036129117012023926" fill="#5E3B21" stroke="none" d="M 47.6913 25.3698 C 48.0888 25.306 48.4747 25.4073 48.7768 25.6229 C 49.0789 25.8385 49.2971 26.1685 49.3601 26.561 C 49.4231 26.9534 49.319 27.3351 49.0995 27.6344 C 48.8801 27.9337 48.5452 28.1507 48.1477 28.2145 C 47.7502 28.2782 47.3643 28.177 47.0622 27.9613 C 46.7601 27.7457 46.5419 27.4157 46.4789 27.0233 C 46.4159 26.6308 46.52 26.2491 46.7394 25.9498 C 46.9589 25.6505 47.2938 25.4336 47.6913 25.3698 Z " stroke-width="0.9829210842108956"/>
    <path id="ID0.9171876185573637" fill="#191009" stroke="none" d="M 48.1905 25.6923 C 48.3927 25.6599 48.5883 25.7115 48.7422 25.8214 C 48.8961 25.9312 49.007 26.0984 49.0391 26.298 C 49.0711 26.4976 49.018 26.6911 48.9062 26.8435 C 48.7944 26.996 48.6248 27.1063 48.4226 27.1387 C 48.2204 27.1712 48.0248 27.1195 47.8709 27.0096 C 47.717 26.8998 47.6061 26.7327 47.574 26.533 C 47.542 26.3334 47.5951 26.1399 47.7069 25.9875 C 47.8187 25.835 47.9883 25.7247 48.1905 25.6923 Z " stroke-width="0.9829210842108956"/>
    <path id="ID0.7788236327469349" fill="#FFFFFF" stroke="none" stroke-linecap="round" d="M 62.7397 23.8827 L 60.9942 23.6188 L 59.0897 23.9244 L 57.0053 24.3577 L 57.0604 26.5744 L 59.6438 26.7534 L 64.1157 25.5907 L 62.7397 23.8827 Z " stroke-width="0.9829210842108956"/>
    <path id="ID0.036129117012023926" fill="#5E3B21" stroke="none" d="M 60.6539 23.4115 C 61.0514 23.3477 61.4374 23.449 61.7394 23.6646 C 62.0415 23.8802 62.2598 24.2102 62.3227 24.6027 C 62.3857 24.9951 62.2816 25.3768 62.0622 25.6761 C 61.8427 25.9754 61.5079 26.1924 61.1103 26.2561 C 60.7128 26.3199 60.3269 26.2186 60.0248 26.003 C 59.7227 25.7874 59.5045 25.4574 59.4415 25.0649 C 59.3786 24.6725 59.4826 24.2908 59.7021 23.9915 C 59.9215 23.6922 60.2564 23.4752 60.6539 23.4115 Z " stroke-width="0.9829210842108956"/>
    <path id="ID0.9171876185573637" fill="#191009" stroke="none" d="M 60.9534 23.7448 C 61.1556 23.7124 61.3512 23.7641 61.5051 23.8739 C 61.659 23.9838 61.77 24.1509 61.802 24.3505 C 61.834 24.5501 61.7809 24.7436 61.6691 24.8961 C 61.5573 25.0485 61.3877 25.1589 61.1855 25.1913 C 60.9833 25.2237 60.7877 25.172 60.6338 25.0622 C 60.48 24.9524 60.369 24.7852 60.337 24.5856 C 60.3049 24.386 60.358 24.1925 60.4698 24.04 C 60.5816 23.8876 60.7513 23.7773 60.9534 23.7448 Z " stroke-width="0.9829210842108956"/>
    <path id="ID0.2118154256604612" fill="#1C1916" stroke="#1C1916" stroke-width="1.9658421684217913" stroke-linecap="round" d="M 31.2365 25.0638 C 31.2888 25.5648 31.9027 27.761 32.8553 28.9089 C 33.2067 29.3322 33.1814 27.5885 33.3915 26.9435 C 33.5947 26.3184 33.9078 25.7281 34.0974 25.0993 C 34.3 24.4268 34.4426 23.7353 34.5693 23.0453 C 34.6924 22.3767 34.7698 21.6976 34.8458 21.0227 C 34.9212 20.3558 34.895 19.6746 35.0247 19.0158 C 35.1536 18.3581 35.403 17.7266 35.6175 17.0908 C 35.8331 16.4548 35.8689 15.7042 36.3157 15.1983 C 36.7751 14.6775 37.4837 14.3799 38.1608 14.2099 C 38.8099 14.0474 39.5002 14.2284 40.1683 14.234 C 40.8694 14.2392 41.5733 14.2123 42.2734 14.2424 C 42.9513 14.2711 43.6315 14.3272 44.3042 14.4111 C 44.9595 14.4929 45.6086 14.6361 46.2604 14.7402 C 46.9431 14.8492 47.6373 14.911 48.3144 15.0536 C 48.9697 15.1917 49.5896 15.4899 50.2527 15.5833 C 50.9138 15.676 51.6403 15.8582 52.2602 15.6074 C 52.883 15.3551 53.2034 14.6549 53.6861 14.1917 C 54.1724 13.7259 54.6191 13.2071 55.1685 12.8163 C 55.7063 12.4343 56.303 12.1199 56.9236 11.8918 C 57.9758 11.5063 59.1654 10.9218 60.3855 10.9901 C 61.5545 11.0577 63.1848 12.8021 63.7483 12.2804 C 64.2823 11.7813 63.0526 9.9924 62.3611 8.9422 C 61.6144 7.8098 60.5924 6.8412 59.491 6.0397 C 58.4294 5.2674 57.2338 4.5967 55.9532 4.2829 C 54.6538 3.9642 53.2706 4.1594 51.9305 4.1865 C 51.2713 4.1993 50.6204 4.3631 49.9616 4.4035 C 49.2969 4.4439 48.6244 4.3549 47.9619 4.4276 C 46.6525 4.5714 45.313 4.6647 44.0552 5.0544 C 42.7456 5.4594 41.5744 6.2269 40.3264 6.7902 C 39.708 7.0695 39.0581 7.2835 38.4504 7.5858 C 37.249 8.1841 36.0538 8.8081 34.899 9.4909 C 34.3289 9.8277 33.7018 10.134 33.2803 10.6408 C 32.835 11.1752 32.7243 11.915 32.379 12.5164 C 32.0446 13.0983 31.5033 13.5649 31.2437 14.1823 C 30.9742 14.8249 30.8991 15.5373 30.8207 16.2284 C 30.7467 16.8852 30.7416 17.5526 30.7883 18.2118 C 30.8342 18.8602 31.0765 19.49 31.0977 20.1404 C 31.1201 20.8104 30.9758 21.4785 30.9188 22.1474 C 30.8719 22.6979 30.6312 23.2707 30.7834 23.8011 Z "/>
    <path id="ID0.5261953212320805" fill="none" stroke="#1C1916" stroke-width="1.9658421896113576" stroke-linecap="round" d="M 41.6278 26.8283 C 41.6278 26.8283 42.0503 25.4585 42.521 24.9442 C 42.9713 24.4519 43.6348 24.175 44.2632 23.9463 C 44.8915 23.7176 45.5901 23.7543 46.2391 23.5909 C 47.4546 23.2835 49.8547 22.5346 49.8547 22.5346 "/>
    <path id="ID0.5261953212320805" fill="none" stroke="#1C1916" stroke-width="1.9658421825659842" stroke-linecap="round" d="M 64.5156 22.9338 C 64.5156 22.9338 63.7085 21.7491 63.1073 21.3962 C 62.532 21.0583 61.8164 20.989 61.1486 20.9555 C 60.4807 20.9219 59.8239 21.1627 59.1556 21.1975 C 57.9034 21.2617 55.3892 21.2527 55.3892 21.2527 "/>
    <path id="ID0.8619630038738251" fill="none" stroke="#675B50" stroke-width="1.155293798965175" stroke-linecap="round" d="M 53.6028 26.1756 C 53.6028 26.1756 54.3805 28.9125 54.7545 30.2342 C 54.9665 30.9762 54.9489 31.8498 55.4339 32.4504 C 56.0158 33.1272 57.1024 32.9349 57.4692 33.577 C 57.9306 34.236 58.253 35.541 57.5988 35.8523 C 56.6043 36.3252 55.4311 35.1707 54.2646 35.2538 C 53.6384 35.2991 52.6941 36.2905 52.6941 36.2905 "/>
    <path id="ID0.6736386958509684" fill="none" stroke="#675B50" stroke-width="1.232318956052621" stroke-linecap="round" d="M 42.5719 35.0252 C 42.5719 35.0252 43.2154 35.666 43.5682 35.9504 C 43.8899 36.2101 44.2657 36.3996 44.5917 36.6543 C 44.9249 36.9146 45.288 37.1583 45.5428 37.4937 C 45.8014 37.8336 46.0227 38.2259 46.1041 38.6438 C 46.3226 39.7663 46.433 42.0633 46.433 42.0633 "/>
    <path id="ID0.18298013787716627" fill="#1C1916" stroke="#1C1916" stroke-width="1.9658421684217913" stroke-linecap="round" d="M 39.043 13.6258 C 38.6595 13.8892 38.3389 14.8565 38.62 15.672 C 39.0652 16.9606 40.5234 18.1628 40.4597 19.3333 C 40.4279 19.9091 39.0842 19.3393 38.429 19.1645 C 37.7905 18.994 37.2261 18.6167 36.6395 18.3142 C 36.0072 17.9883 35.2091 17.8345 34.7703 17.2788 C 34.3643 16.7653 34.166 16.0098 34.3144 15.3737 C 34.4631 14.7336 35.039 14.2327 35.5705 13.8368 C 36.1137 13.4322 36.7906 13.2177 37.4465 13.0413 C 37.7241 12.967 38.1919 12.8415 38.3076 13.1009 Z "/>
    <path id="ID0.7592270169407129" fill="none" stroke="#675B50" stroke-width="0.9987156057221066" stroke-linecap="round" d="M 52.7689 18.8466 C 52.7689 18.8466 53.0911 19.4628 53.1416 19.7998 C 53.1908 20.1268 53.0373 20.461 53.0609 20.7908 C 53.0848 21.1226 53.2501 21.4338 53.2822 21.7648 C 53.3143 22.0939 53.3359 22.4371 53.2517 22.7571 C 53.18 23.0294 52.8271 23.4909 52.8271 23.4909 "/>
    <path id="ID0.48112139804288745" fill="#3A3A3A" stroke="#3A3A3A" stroke-width="1.8513924712479706" stroke-linecap="round" d="M 30.7861 18.6012 C 30.2548 19.0237 31.0593 20.2509 30.9423 21.0447 C 30.8483 21.6821 30.3152 22.2287 30.2921 22.8724 C 30.2704 23.4897 30.598 24.0734 30.8134 24.6518 C 31.4207 26.2842 31.7387 28.5248 32.8011 29.6892 C 33.2149 30.0811 33.5022 28.3844 33.766 27.7645 C 34.3086 26.5186 34.8927 25.2139 35.1826 23.9508 C 35.3208 23.3482 35.1643 22.7138 35.1211 22.0976 C 35.0777 21.486 35.2665 20.7747 34.9217 20.2665 C 34.5719 19.7506 33.8492 19.6039 33.2678 19.3674 C 32.5099 19.0596 31.4175 18.185 30.7861 18.6012 Z "/>
  </g>
</svg>