<svg xmlns="http://www.w3.org/2000/svg" xmlns:xlink="http://www.w3.org/1999/xlink" version="1.1" width="159.38610379957467" height="330.81496732496527" viewBox="1.1325441943441419 -0.14573940169467658 159.38610379957467 330.81496732496527">
  <defs>
    <linearGradient id="grad_1" y2="1" x2="0">
      <stop offset="0" stop-color="#222325" stop-opacity="1"/>
      <stop offset="1" stop-color="#2E3034" stop-opacity="1"/>
    </linearGradient>
  </defs>
  <!-- Exported by Scratch - http://scratch.mit.edu/ -->
  <path id="ID0.7766774026677012" fill="#0D0D0D" stroke="#0D0D0D" stroke-width="1.973078897230906" stroke-linecap="round" d="M 119.1899 187.917 C 119.7716 155.3458 121.8495 121.5694 112.0891 90.0234 C 108.3979 78.0966 93.3314 72.067 81.4679 67.3803 C 76.0528 65.2441 70.2952 69.8339 64.7967 71.3397 C 63.2356 71.7632 62.0509 72.7354 60.7126 73.3674 C 58.8261 74.0681 56.8502 74.5783 55.1296 75.3353 C 54.5204 75.605 53.9073 75.8707 53.3422 76.2376 C 52.6792 76.5519 52.1602 77.018 51.5451 77.383 C 50.267 78.0622 48.9869 78.79 47.7108 79.4206 C 46.4385 79.9541 45.1201 80.3883 43.8958 80.9723 C 43.2847 81.24 42.6255 81.4571 42.1084 81.8746 C 41.4914 82.2881 41.0646 82.9526 40.5417 83.516 C 40.0227 83.9821 39.5037 84.4482 38.9847 84.9143 C 38.4676 85.3318 37.8007 85.7433 37.4277 86.3126 C 37.0067 86.8314 36.8776 87.5565 36.6007 88.227 C 36.3256 88.8489 36.0007 89.4688 35.7736 90.1413 C 35.2736 91.3871 34.8215 92.6835 34.3694 93.9799 C 34.0944 94.6018 33.8194 95.2237 33.5424 95.8942 C 33.2674 96.5161 32.9923 97.138 32.7154 97.8085 C 32.4404 98.4304 32.1653 99.0524 31.8884 99.7229 C 31.6133 100.3448 31.2384 100.9627 31.0613 101.6372 C 30.8363 102.2611 30.8111 102.893 30.7339 103.5714 C 30.6088 104.1993 30.4836 104.8272 30.4065 105.5057 C 30.2814 106.1336 30.2062 106.7635 30.0791 107.44 C 29.904 108.0659 29.629 108.6878 29.5019 109.3643 C 28.9766 111.242 28.4973 113.2188 28.02 115.1471 C 27.8449 115.773 27.5699 116.3949 27.4428 117.0714 C 27.2677 117.6973 27.1925 118.3272 27.1154 119.0057 C 26.9903 119.6336 26.8152 120.2595 26.788 120.9399 C 26.7128 121.5698 26.7375 122.2037 26.7104 122.8842 C 26.6599 124.1479 26.5076 125.4563 26.5551 126.7727 C 26.5299 127.4045 26.7181 127.7041 26.7273 128.7269 C 26.6201 132.6659 26.4111 136.6496 26.2519 140.6353 C 26.0987 144.4752 25.9415 148.4123 25.7863 152.3007 C 25.7106 154.1964 25.681 156.1912 25.5534 158.1334 C 25.4782 158.7633 25.3531 159.3912 25.226 160.0677 C 24.918 161.5159 24.512 162.9115 24.302 164.4123 C 24.1768 165.0402 24.2515 165.6761 24.2244 166.3566 C 24.1492 166.9864 23.9741 167.6123 23.8969 168.2908 C 23.6466 169.5466 23.3445 170.849 23.2421 172.1594 C 23.0917 173.4191 23.1393 174.7355 23.0869 176.0478 C 22.9336 179.8877 22.7764 183.8248 22.6212 187.7132 C 22.5843 188.6368 22.6207 188.979 22.5436 189.6575 C 22.4184 190.2854 22.0934 190.9053 21.9664 191.5818 C 21.541 193.4634 21.3115 195.4503 20.9841 197.3846 C 20.859 198.0125 20.7838 198.6423 20.6567 199.3188 C 20.3026 200.6678 19.7986 202.0109 19.4926 203.4105 C 19.3155 204.085 19.2345 204.8607 19.1554 205.5877 C 19.0284 206.2642 18.8494 206.9873 18.8183 207.765 C 18.7431 208.3949 18.7679 209.0288 18.7407 209.7093 C 18.7155 210.3412 18.5903 210.969 18.6631 211.6535 C 18.7625 212.9233 19.0599 214.2496 19.2573 215.5719 C 19.332 216.2078 19.4067 216.8436 19.4295 217.5261 C 19.4042 218.158 19.379 218.7899 19.3518 219.4703 C 19.3266 220.1022 19.3014 220.7341 19.2742 221.4146 C 19.1239 222.6744 19.0715 223.9867 18.8692 225.2931 C 18.6209 226.5003 17.9743 228.9086 17.9743 228.9086 C 17.7051 229.3847 16.9731 232.1265 16.5409 233.4763 C 16.3065 234.2099 15.9565 234.9057 15.7042 235.6337 C 15.4848 236.2666 15.3197 236.9172 15.127 237.558 C 14.9343 238.1987 14.7029 238.8311 14.5498 239.4823 C 14.4003 240.1189 14.3719 240.7799 14.2224 241.4165 C 14.0693 242.0676 13.8754 242.7122 13.6452 243.3408 C 13.407 243.9924 13.0178 244.5913 12.8181 245.2551 C 12.63 245.8815 12.5995 246.5453 12.4907 247.1894 C 12.3819 247.8335 12.2721 248.4795 12.1633 249.1237 C 12.0545 249.7678 11.9447 250.4138 11.8359 251.0579 C 11.7271 251.702 11.5625 252.341 11.5085 252.9922 C 11.4019 254.2839 11.4599 255.589 11.3532 256.8807 C 11.2992 257.5318 11.1346 258.1708 11.0258 258.8149 C 10.9171 259.459 10.7524 260.098 10.6984 260.7492 C 10.5918 262.0409 10.5669 263.3417 10.5432 264.6377 C 10.4957 267.2306 10.519 269.8322 10.4825 272.4246 C 10.4737 273.0727 10.4308 273.7214 10.4049 274.3688 C 10.3791 275.0163 10.3951 275.6683 10.3273 276.3131 C 10.2593 276.9627 10.1494 277.6107 9.9999 278.2473 C 9.8468 278.8984 9.534 279.513 9.4227 280.1716 C 9.3141 280.8109 9.4128 281.4711 9.3451 282.1159 C 9.2771 282.7655 9.0856 283.4005 9.0176 284.0501 C 8.9499 284.6949 9.0078 285.3496 8.94 285.9944 C 8.8721 286.644 8.7621 287.292 8.6126 287.9286 C 8.4595 288.5797 8.1885 289.2018 8.0354 289.8529 C 7.8859 290.4896 7.8575 291.1505 7.708 291.7872 C 7.5549 292.4383 7.2699 293.0579 7.1308 293.7115 C 6.8586 294.9897 6.6945 296.2918 6.4759 297.58 C 6.3672 298.2241 6.2573 298.8701 6.1485 299.5143 C 6.0397 300.1584 5.8891 300.7989 5.8211 301.4485 C 5.7533 302.0933 5.7273 302.7446 5.7435 303.3928 C 5.7595 304.0458 5.9137 304.6936 5.9157 305.347 C 5.919 306.6431 5.9766 307.9569 5.7604 309.2354 C 5.5377 310.5527 5.0409 311.8181 4.606 313.084 C 4.3807 313.74 4.0172 314.3467 3.779 314.9984 C 3.5487 315.6269 3.432 316.2941 3.2018 316.9226 C 2.9636 317.5743 2.5328 318.1627 2.3748 318.837 C 2.2264 319.4688 1.9264 320.2416 2.2971 320.7812 C 2.6925 321.3568 3.5644 321.4764 4.2665 321.5901 C 4.9287 321.6973 5.6041 321.4 6.2746 321.4268 C 6.945 321.4536 7.5928 321.7229 8.2633 321.7496 C 8.9337 321.7764 9.6003 321.6005 10.2714 321.5864 C 10.9375 321.5721 11.6125 321.5591 12.2698 321.6661 C 12.9469 321.7759 13.6385 321.9253 14.2488 322.232 C 14.8855 322.5524 15.2792 323.2701 15.9489 323.5169 C 16.5722 323.7473 17.2818 323.5701 17.9473 323.5967 C 18.6128 323.6233 19.282 323.7308 19.9457 323.6765 C 20.6295 323.621 21.2798 323.3257 21.9635 323.2702 C 22.6272 323.2159 23.2991 323.2826 23.9619 323.35 C 24.6298 323.4175 25.2828 323.6052 25.9506 323.6728 C 26.6135 323.7401 27.2918 323.6455 27.949 323.7526 C 28.6262 323.8624 29.2509 324.2086 29.928 324.3184 C 30.5853 324.4255 31.2636 324.3308 31.9265 324.3982 C 32.5943 324.4657 33.2529 324.6137 33.9152 324.721 C 34.5774 324.8282 35.2326 325.0374 35.9039 325.0438 C 37.9087 325.0625 39.9142 324.8388 41.9185 324.7971 C 42.5846 324.7828 43.2541 324.8095 43.9169 324.8768 C 44.5847 324.9444 45.2362 325.1457 45.9056 325.1996 C 47.2334 325.3062 48.5746 325.2526 49.9024 325.3592 C 50.5718 325.4132 51.2233 325.6144 51.8911 325.682 C 52.554 325.7494 53.2234 325.7761 53.8895 325.7618 C 54.5606 325.7477 55.2266 325.6126 55.8977 325.5985 C 56.5638 325.5842 57.23 325.6926 57.8961 325.6783 C 58.5672 325.6642 59.2335 325.5428 59.9042 325.5151 C 61.2374 325.4602 62.5768 325.3783 63.9107 325.4316 C 64.5812 325.4583 65.2447 325.6075 65.8994 325.7544 C 66.5689 325.9048 67.2012 326.2104 67.8784 326.3202 C 68.5357 326.4273 69.2113 326.3734 69.8768 326.4 C 71.8732 326.4797 73.879 326.4994 75.872 326.6393 C 76.5417 326.6865 77.1929 326.8946 77.8607 326.9621 C 78.5236 327.0295 79.193 327.0562 79.8591 327.0419 C 80.5302 327.0278 81.1986 326.9328 81.8673 326.8787 C 82.536 326.8245 83.2043 326.7295 83.8754 326.7154 C 84.5415 326.7011 85.2145 326.8886 85.8738 326.7952 C 86.5773 326.6957 86.2902 326.4915 87.9013 326.1459 C 94.3446 324.7634 105.6498 328.3422 107.4779 322.1077 C 113.9974 299.8636 107.114 275.4428 109.1152 252.2637 C 110.9599 230.9225 118.7761 209.6902 119.1899 187.917 Z "/>
  <g id="ID0.42570570204406977">
    <path id="ID0.7729651997797191" fill="#393C40" stroke="none" stroke-linecap="round" d="M 137.5475 98.8554 L 120.2481 107.4633 L 130.6114 123.3652 L 138.8816 136.2411 L 144.7039 140.6443 L 149.2222 142.9114 L 158.9195 134.77 L 157.6899 128.2257 L 144.4195 109.8773 L 137.5475 98.8554 Z " stroke-width="0.8410593193871075"/>
    <path id="ID0.9716172609478235" fill="#34373A" stroke="none" stroke-linecap="round" d="M 134.8442 104.4152 L 138.94 101.2276 L 135.8829 95.5108 L 121.0335 108.1714 L 124.4549 110.3852 L 129.9706 111.0351 L 134.8442 104.4152 Z " stroke-width="0.7788099092372462"/>
    <g id="ID0.38066427363082767">
      <path id="ID0.4757494777441025" fill="#1D1E1F" stroke="none" stroke-linecap="round" d="M 123.8876 76.8724 L 115.4654 76.5871 L 101.5636 84.3274 L 114.3161 106.4452 L 124.9747 109.0382 L 129.4078 109.1333 L 131.9296 106.2703 L 133.9994 102.9237 L 138.8052 99.339 L 137.8217 94.208 L 135.5376 86.8011 L 130.8743 79.6717 L 123.8876 76.8724 Z " stroke-width="0.454186027296415"/>
      <path id="ID0.6007084371522069" fill="none" stroke="#0D0D0D" stroke-width="0.90837205459283" stroke-linecap="round" d="M 138.4324 99.7673 L 134.1104 102.8999 L 130.8511 107.1982 L 129.4316 109.2443 L 124.9747 109.0382 L 120.4147 107.8091 "/>
    </g>
  </g>
  <path id="ID0.3809091211296618" fill="#393D40" stroke="none" stroke-linecap="round" d="M 88.4412 179.3485 L 110.1396 160.8104 L 123.2688 197.3149 L 125.2049 208.0881 L 124.7674 226.6945 L 117.1245 231.4839 L 104.9551 236.1053 L 99.5973 215.9869 L 98.393 204.5931 L 88.4412 179.3485 Z " stroke-width="0.7305889945840068"/>
  <path id="ID0.5368814701214433" fill="#292D2E" stroke="none" stroke-linecap="round" d="M 85.1754 317.0398 L 87.7417 308.1126 L 91.8977 298.7113 L 102.0766 304.2094 L 113.608 311.4376 L 131.4281 321.15 L 132.7384 327.6229 L 108.0988 329.6827 L 86.7365 326.777 L 85.1754 317.0398 Z " stroke-width="0.7702165637829839"/>
  <path id="ID0.05466862628236413" fill="#292D2E" stroke="none" stroke-linecap="round" d="M 101.9328 225.7949 L 128.666 226.369 L 120.739 244.156 L 118.3527 248.867 L 114.7716 266.6526 L 104.8974 306.1907 L 89.1281 305.4531 L 90.6317 283.2547 L 89.3671 274.2878 L 89.6128 264.7716 L 93.8986 251.7935 L 95.938 239.6423 L 101.9328 225.7949 Z " stroke-width="0.7305890301072567"/>
  <path id="ID0.4490455654449761" fill="none" stroke="#272A2B" stroke-width="1.6585523997423008" stroke-linecap="round" d="M 101.6438 225.9756 L 128.4309 226.1669 L 117.6985 249.1162 "/>
  <path id="ID0.10446935473009944" fill="none" stroke="#242728" stroke-width="1.6585523997423008" stroke-linecap="round" d="M 115.3233 261.2224 L 112.3741 277.8004 L 100.7576 283.2909 "/>
  <path id="ID0.42170455446466804" fill="none" stroke="#242728" stroke-width="1.6585523997423008" stroke-linecap="round" d="M 111.0941 278.7659 L 107.1644 293.3797 L 95.2988 299.0247 "/>
  <path id="ID0.047098892275244" fill="none" stroke="#242728" stroke-width="1.6585523997423008" stroke-linecap="round" d="M 95.7221 239.5051 L 94.6065 243.284 L 97.5755 252.7613 "/>
  <path id="ID0.3809091211296618" fill="#3E4246" stroke="none" stroke-linecap="round" d="M 66.0465 148.1418 L 87.1771 164.5857 L 84.8289 203.3082 L 82.3548 213.9708 L 74.6076 230.8933 L 65.6947 232.2764 L 52.6894 231.7183 L 55.1185 210.0823 L 55.2829 196.6673 L 66.0465 148.1418 Z " stroke-width="0.7305889994777404"/>
  <g id="ID0.17693647183477879">
    <path id="ID0.7729651997797191" fill="#3E4246" stroke="none" stroke-linecap="round" d="M 45.2044 99.9624 L 65.266 102.6776 L 60.3495 119.3012 L 56.4887 132.7282 L 52.1986 138.1411 L 48.4816 141.345 L 36.1177 136.949 L 35.1304 130.9402 L 42.1052 111.3991 L 45.2044 99.9624 Z " stroke-width="0.8164595969104551"/>
    <path id="ID0.9716172609478235" fill="#393C40" stroke="none" stroke-linecap="round" d="M 48.9254 106.092 L 44.2151 103.3686 L 46.5707 96.9936 L 63.8061 108.0138 L 60.5701 110.8031 L 54.9353 112.2684 L 48.9254 106.092 Z " stroke-width="0.8164595969104551"/>
    <g id="ID0.38066427363082767">
      <path id="ID0.4757494777441025" fill="#1D1E1F" stroke="none" stroke-linecap="round" d="M 56.3336 75.689 L 65.0391 74.1858 L 80.5854 80.2321 L 70.5112 105.0288 L 59.8139 109.2491 L 55.2237 109.983 L 52.1945 107.3712 L 49.5655 104.1923 L 44.061 101.1583 L 44.3471 95.6888 L 45.6578 87.6693 L 49.4789 79.5972 L 56.3336 75.689 Z " stroke-width="0.47614260325313984"/>
      <path id="ID0.6007084371522069" fill="none" stroke="#0D0D0D" stroke-width="0.9522852065062797" stroke-linecap="round" d="M 44.5095 101.5496 L 49.4468 104.1835 L 53.4475 108.1803 L 55.2149 110.1017 L 59.8139 109.2491 L 64.3733 107.3192 "/>
    </g>
  </g>
  <g id="ID0.7397577832452953">
    <path id="ID0.6726378230378032" fill="#393C40" stroke="none" stroke-linecap="round" d="M 38.4093 122.7842 L 53.7757 133.2084 L 52.7655 135.4157 L 37.8199 124.8639 L 38.4093 122.7842 Z " stroke-width="0.8164596373718676"/>
    <path id="ID0.6507829907350242" fill="#1D1E1F" stroke="none" stroke-linecap="round" d="M 35.0177 123.7198 L 53.0514 135.5218 L 51.0105 154.3989 L 48.0632 164.7977 L 46.6751 180.863 L 46.7228 187.4231 L 34.549 188.4199 L 34.908 181.8949 L 33.9212 171.9757 L 32.1461 159.3249 L 31.1417 149.6089 L 35.0177 123.7198 Z " stroke-width="0.8164596373718676"/>
    <path id="ID0.6829322893172503" fill="#1D1E1F" stroke="none" stroke-linecap="round" d="M 34.1775 187.9781 L 44.988 183.7903 L 47.7673 189.5621 L 51.3248 195.8109 L 50.8328 201.5049 L 49.8186 206.1294 L 47.5215 209.004 L 45.5181 215.5918 L 40.8585 214.9843 L 39.814 212.8453 L 38.2047 212.5014 L 35.1795 209.5766 L 31.986 206.2275 L 30.339 201.5779 L 31.7674 194.5307 L 34.1775 187.9781 Z " stroke-width="0.8164596373718676"/>
    <path id="ID0.47767175547778606" fill="none" stroke="#0D0D0D" stroke-width="1.632919274743735" stroke-linecap="round" d="M 34.6769 127.6649 L 35.313 123.6224 L 52.97 135.5148 L 51.4393 149.437 "/>
    <path id="ID0.5922487881034613" fill="#282A2B" stroke="none" stroke-linecap="round" d="M 31.0659 157.4591 L 38.587 152.4544 L 44.6807 153.0629 L 50.3497 159.5351 L 47.6364 174.3386 L 42.309 181.4586 L 38.852 181.1599 L 33.3838 173.3119 L 31.0659 157.4591 Z " stroke-width="0.8164596373718676"/>
    <path id="ID0.36820242274552584" fill="#151616" stroke="none" stroke-linecap="round" d="M 37.0861 160.7454 L 45.5528 161.3951 L 41.8775 172.6325 L 40.3797 172.4211 L 37.0861 160.7454 Z " stroke-width="0.8164596373718676"/>
    <path id="ID0.13569410238415003" fill="none" stroke="#232425" stroke-width="1.632919274743735" stroke-linecap="round" d="M 35.4577 171.7396 L 40.5332 179.3898 L 46.3717 172.5188 "/>
    <path id="ID0.024502143263816833" fill="none" stroke="#0D0D0D" stroke-width="1.632919274743735" stroke-linecap="round" d="M 31.5827 157.3094 L 38.3436 152.5668 L 44.3841 152.8429 L 50.1344 159.3221 L 48.5016 167.7858 "/>
  </g>
  <g id="ID0.9157347986474633">
    <path id="ID0.7477802094072104" fill="#363A3D" stroke="none" stroke-linecap="round" d="M 120.4325 125.5886 L 101.0206 121.7432 L 99.4344 162.899 L 115.7432 172.4618 L 118.9713 148.0467 L 120.4325 125.5886 Z " stroke-width="0.47614258061246595"/>
    <path id="ID0.7477802094072104" fill="#363A3D" stroke="none" stroke-linecap="round" d="M 60.2068 123.2968 L 83.7495 121.3452 L 82.1633 162.501 L 65.1668 170.7802 L 60.6625 145.4714 L 60.2068 123.2968 Z " stroke-width="0.47614258061246595"/>
    <path id="ID0.4270821204409003" fill="#3E4246" stroke="none" stroke-linecap="round" d="M 61.3013 103.3194 L 65.589 90.9766 L 68.0736 85.2353 L 74.8862 78.4696 L 105.8764 81.0935 L 112.6103 85.6414 L 115.3092 89.7957 L 121.887 101.4851 L 120.7699 111.925 L 119.6074 117.3599 L 121.0068 124.323 L 121.2717 129.8129 L 118.8647 136.6293 L 117.0453 141.8007 L 115.4983 151.0327 L 116.1535 172.9768 L 110.6987 180.9861 L 105.6777 187.0109 L 93.3598 191.9682 L 81.8908 188.5004 L 78.2241 181.6405 L 73.5234 175.0266 L 65.1022 171.6048 L 64.9368 146.225 L 64.004 139.5181 L 59.8765 127.9232 L 58.9853 117.0485 L 61.3013 103.3194 Z " stroke-width="0.47614258061246595"/>
    <path id="ID0.052435632329434156" fill="#393C40" stroke="none" stroke-linecap="round" d="M 71.5099 153.5728 L 75.9567 153.7919 L 82.4199 157.3288 L 87.4935 157.3576 L 93.3007 159.3682 L 97.5289 158.4591 L 99.2125 158.0475 L 113.5459 155.1929 L 113.7762 158.4896 L 105.0516 162.3227 L 99.1161 161.7842 L 93.4082 164.6138 L 86.8829 160.8363 L 80.4432 161.0169 L 70.7173 156.8301 L 71.5099 153.5728 Z " stroke-width="0.47614258061246595"/>
    <path id="ID0.4987568911164999" fill="none" stroke="#27282B" stroke-width="0.9522851612249319" stroke-linecap="round" d="M 74.6699 79.1006 L 68.0084 85.0383 L 64.2928 94.9015 "/>
    <path id="ID0.2889464790932834" fill="none" stroke="#27282B" stroke-width="0.9522851612249319" stroke-linecap="round" d="M 107.2065 81.7841 L 112.7693 85.8104 L 118.1212 95.3084 "/>
    <path id="ID0.8373676878400147" fill="#000000" stroke="#2C2F31" stroke-width="0.6155104071377058" stroke-linecap="round" d="M 77.7018 92.2527 L 78.1047 90.7361 L 74.4333 91.5094 L 69.457 94.6682 L 65.1432 99.5642 L 62.4854 105.103 L 67.7019 103.0384 L 72.4004 103.1 L 75.1122 104.117 L 77.5412 107.1978 L 79.6815 106.252 L 83.6985 106.1169 L 88.1716 107.3208 L 91.8965 110.6365 L 93.8599 113.7653 L 96.1247 110.8229 L 99.9348 107.8227 L 104.1004 106.5406 L 109.2549 106.7077 L 111.0644 107.3601 L 112.8732 104.3122 L 114.8743 103.1264 L 117.4564 103.7499 L 120.2019 105.4628 L 118.9007 101.6044 L 116.7595 97.6165 L 114.0234 94.5166 L 110.9322 92.1655 L 106.4495 91.1152 L 108.5615 93.0969 L 108.4514 94.8631 L 106.7816 96.9175 L 103.1679 98.0028 L 99.9956 98.1905 L 97.3752 98.1813 L 94.9845 94.4862 L 94.4713 96.5356 L 93.0123 96.4447 L 91.5481 93.9637 L 90.4402 98.1345 L 86.3559 98.1112 L 82.2619 97.008 L 78.9646 95.492 L 77.7018 92.2527 Z "/>
    <path id="ID0.5698574706912041" fill="none" stroke="#313537" stroke-width="0.9522851612249319" stroke-linecap="round" d="M 71.445 153.4036 L 70.7265 156.5922 L 80.4387 161.1359 L 87.2324 161.0403 L 93.1749 164.4857 "/>
    <path id="ID0.5698574706912041" fill="none" stroke="#313537" stroke-width="0.8933066259494035" stroke-linecap="round" d="M 113.2171 155.214 L 113.6117 158.4456 L 104.8449 162.2771 L 98.9482 161.6924 L 93.5362 164.7002 "/>
    <path id="ID0.8947288258932531" fill="#393C40" stroke="none" stroke-linecap="round" d="M 73.2137 141.5117 L 80.2362 141.6632 L 87.7041 143.857 L 93.1532 149.5944 L 86.2327 144.9439 L 75.5376 143.0307 L 70.3064 145.8549 L 73.2137 141.5117 Z " stroke-width="0.47614258061246595"/>
    <path id="ID0.8947288258932531" fill="#393C40" stroke="none" stroke-linecap="round" d="M 111.8136 143.9768 L 105.607 143.6322 L 98.8683 145.0592 L 93.6694 149.7504 L 100.0925 146.1185 L 109.6596 145.1589 L 114.083 148.0071 L 111.8136 143.9768 Z " stroke-width="0.42137388774841267"/>
    <path id="ID0.9897695370018482" fill="#393C40" stroke="none" stroke-linecap="round" d="M 76.191 153.8962 L 69.6672 153.1683 L 70.2742 148.5458 L 71.3289 152.0887 L 76.4143 152.4277 L 82.4172 156.1613 L 87.9026 156.0153 L 91.9393 157.6004 L 93.6217 149.803 L 93.4818 159.6135 L 87.9683 157.3997 L 82.0923 157.1732 L 76.191 153.8962 Z " stroke-width="0.47614258061246595"/>
    <path id="ID0.9897695370018482" fill="#393C40" stroke="none" stroke-linecap="round" d="M 108.4103 155.3863 L 113.96 155.157 L 113.7641 150.8287 L 112.6329 154.0423 L 108.3224 154.0091 L 103.0064 157.0614 L 98.3919 156.5512 L 94.8804 157.7453 L 93.9949 150.3991 L 93.4424 159.5068 L 98.2419 157.8306 L 103.2112 158.0221 L 108.4103 155.3863 Z " stroke-width="0.4232251290113612"/>
    <path id="ID0.3524594851769507" fill="#393C40" stroke="none" stroke-linecap="round" d="M 87.9451 119.6146 L 93.7606 122.0306 L 98.299 119.8707 L 94.9884 123.555 L 95.5108 134.7252 L 104.6076 134.2181 L 94.0503 137.3849 L 82.5741 132.2491 L 92.1785 134.6444 L 92.2087 123.3526 L 87.9451 119.6146 Z " stroke-width="0.47614258061246595"/>
    <path id="ID0.9214867809787393" fill="#393C40" stroke="none" stroke-linecap="round" d="M 73.3631 137.634 L 76.4991 133.5379 L 81.2937 132.7697 L 75.2819 137.3029 L 74.9312 140.2199 L 79.9727 140.4618 L 88.0087 143.9879 L 79.1135 141.7391 L 73.2613 141.5135 L 73.3631 137.634 Z " stroke-width="0.47614258061246595"/>
    <path id="ID0.9214867809787393" fill="#393C40" stroke="none" stroke-linecap="round" d="M 111.6429 139.8622 L 109.0763 135.7389 L 104.7568 134.663 L 109.916 139.4091 L 110.0261 142.21 L 105.4087 142.0775 L 98.6588 144.6594 L 106.1008 143.3547 L 111.4567 143.5611 L 111.6429 139.8622 Z " stroke-width="0.4451788361730501"/>
    <path id="ID0.8679121839813888" fill="#2C2F31" stroke="none" stroke-linecap="round" d="M 89.9405 118.5936 L 93.6844 120.358 L 97.0782 118.8449 L 97.9931 119.8331 L 93.9652 122.3463 L 88.2943 119.8882 L 89.9405 118.5936 Z " stroke-width="0.47614258061246595"/>
    <path id="ID0.24770551454275846" fill="none" stroke="#313537" stroke-width="0.9522851612249319" stroke-linecap="round" d="M 94.0253 116.8253 L 98.5267 120.5725 L 106.0021 121.3371 L 113.656 120.56 L 119.0364 116.9554 "/>
    <path id="ID0.20603158557787538" fill="none" stroke="#313537" stroke-width="0.9522851612249319" stroke-linecap="round" d="M 60.9106 111.5677 L 67.7222 117.1908 L 79.9689 120.8791 L 87.2477 120.564 L 93.5842 116.8771 "/>
    <g id="ID0.5272086253389716">
      <path id="ID0.24770551454275846" fill="none" stroke="#363A3D" stroke-width="0.9522851018079773" stroke-linecap="round" d="M 63.018 144.138 L 73.0363 141.3554 "/>
      <path id="ID0.24770551454275846" fill="none" stroke="#363A3D" stroke-width="0.9522851018079773" stroke-linecap="round" d="M 60.9357 132.1278 L 81.5863 126.7054 "/>
    </g>
    <g id="ID0.5272086253389716">
      <path id="ID0.24770551454275846" fill="none" stroke="#363A3D" stroke-width="0.9522850548907466" stroke-linecap="round" d="M 118.417 145.2884 L 111.5542 143.1902 "/>
      <path id="ID0.24770551454275846" fill="none" stroke="#363A3D" stroke-width="0.9522850548907466" stroke-linecap="round" d="M 119.3291 133.9588 L 105.6478 128.6671 "/>
    </g>
    <g id="ID0.7887678607366979">
      <path id="ID0.753661650698632" fill="none" stroke="#313537" stroke-width="0.9522851018079773" stroke-linecap="round" d="M 88.4163 119.7519 L 93.5583 122.3325 L 97.7034 119.8715 "/>
      <g id="ID0.8167418288066983">
        <path id="ID0.9553722990676761" fill="none" stroke="#313537" stroke-width="1.0409107459407048" stroke-linecap="round" d="M 93.6174 137.1507 L 88.0912 134.7935 L 81.9951 132.6525 L 77.1911 133.4204 L 73.5206 137.5674 L 73.3877 141.0168 "/>
        <path id="ID0.5982440118677914" fill="none" stroke="#313537" stroke-width="0.8540413589005335" stroke-linecap="round" d="M 82.2654 132.2725 L 81.2798 126.9373 L 86.7853 120.0865 "/>
      </g>
      <g id="ID0.7324484633281827">
        <path id="ID0.04993448918685317" fill="none" stroke="#313537" stroke-width="0.9522851018079773" stroke-linecap="round" d="M 93.5629 122.2136 L 93.8732 132.7084 L 93.7163 149.1415 L 93.3261 165.4465 "/>
        <g id="ID0.8167418288066983">
          <path id="ID0.9553722990676761" fill="none" stroke="#313537" stroke-width="0.9699703093688159" stroke-linecap="round" d="M 93.8207 137.0772 L 98.9046 135.9152 L 104.4043 134.2211 L 108.5607 135.3343 L 111.4788 139.7353 L 111.3459 143.1847 "/>
          <path id="ID0.5982440118677914" fill="none" stroke="#313537" stroke-width="0.791661635734678" stroke-linecap="round" d="M 104.1802 133.8696 L 105.4303 128.6205 L 101.0988 121.3906 "/>
          <path id="ID0.3567589442245662" fill="none" stroke="#313537" stroke-width="0.8967655311768321" stroke-linecap="round" d="M 93.4749 149.7647 L 98.7929 144.9903 L 106.1896 143.3694 L 111.7135 143.5823 L 113.7735 148.3075 L 113.796 155.3367 L 108.2237 155.8367 L 102.455 158.7116 L 97.5471 158.2842 L 93.2708 159.9538 L 87.5293 157.231 L 81.9335 157.2535 L 75.6291 153.9133 L 69.3585 152.9569 L 69.9638 145.9519 L 72.6953 141.4114 L 78.9724 141.6533 L 87.2268 143.8774 L 92.852 149.0736 Z "/>
        </g>
      </g>
    </g>
    <g id="ID0.9312638868577778">
      <path id="ID0.2888958193361759" fill="#393C40" stroke="none" stroke-linecap="round" d="M 73.5705 161.7594 L 83.6997 164.2356 L 82.9931 167.1264 L 72.8638 164.6501 L 73.5705 161.7594 Z " stroke-width="0.476142538828584"/>
      <path id="ID0.2888958193361759" fill="#393C40" stroke="none" stroke-linecap="round" d="M 63.0268 159.2828 L 74.3997 162.1856 L 73.6931 165.0764 L 63.5638 162.6001 L 63.0268 159.2828 Z " stroke-width="0.476142538828584"/>
      <g id="ID0.36424446757882833">
        <path id="ID0.7359844641759992" fill="#8A7B59" stroke="none" d="M 76.5834 161.0849 L 78.1059 161.1436 L 77.8657 167.3764 L 76.3432 167.3178 L 76.5834 161.0849 Z " stroke-width="0.47614255090398866"/>
        <path id="ID0.7359844641759992" fill="#8A7B59" stroke="none" d="M 74.7334 160.6349 L 76.2559 160.6936 L 76.0157 166.9264 L 74.4932 166.8678 L 74.7334 160.6349 Z " stroke-width="0.47614255090398866"/>
        <path id="ID0.7359844641759992" fill="#8A7B59" stroke="none" d="M 72.7834 159.8849 L 74.3059 159.9436 L 74.0657 166.1764 L 72.5432 166.1178 L 72.7834 159.8849 Z " stroke-width="0.47614255090398866"/>
        <path id="ID0.7359844641759992" fill="#8A7B59" stroke="none" d="M 78.4834 161.7349 L 80.0059 161.7936 L 79.7657 168.0264 L 78.2432 167.9678 L 78.4834 161.7349 Z " stroke-width="0.47614255090398866"/>
      </g>
      <g id="ID0.1049797898158431">
        <path id="ID0.08871637750416994" fill="#8A7B59" stroke="none" stroke-linecap="round" d="M 64.7859 158.6195 L 71.1449 159.9129 L 70.8819 165.5016 L 64.7617 164.1936 L 64.7859 158.6195 Z " stroke-width="0.47614255090398866"/>
        <path id="ID0.13805592898279428" fill="#76694C" stroke="none" stroke-linecap="round" d="M 64.6036 158.3833 L 71.2719 159.6886 L 71.2561 162.5707 L 64.5677 161.1694 L 64.6036 158.3833 Z " stroke-width="0.47614255090398866"/>
        <path id="ID0.3221200187690556" fill="#61563F" stroke="none" stroke-linecap="round" d="M 67.3563 160.6741 L 68.2202 161.0694 L 68.23 162.8282 L 67.2876 162.4557 L 67.3563 160.6741 Z " stroke-width="0.5167888604720258"/>
        <path id="ID0.1420820001512766" fill="#BAA578" stroke="none" stroke-linecap="round" d="M 70.2476 164.5785 L 71.0163 163.1786 L 70.975 165.488 L 64.7568 164.2477 L 70.2476 164.5785 Z " stroke-width="0.47614255090398866"/>
      </g>
      <path id="ID0.2888958193361759" fill="#393C40" stroke="none" stroke-linecap="round" d="M 111.1786 163.5451 L 103.6909 165.071 L 104.0251 167.6222 L 111.5128 166.0963 L 111.1786 163.5451 Z " stroke-width="0.3810469923583876"/>
      <path id="ID0.2888958193361759" fill="#393C40" stroke="none" stroke-linecap="round" d="M 117.806 161.9507 L 110.7409 163.621 L 111.0751 166.1722 L 117.2727 164.8464 L 117.806 161.9507 Z " stroke-width="0.3810469923583876"/>
      <path id="ID0.7359844641759992" fill="#8A7B59" stroke="none" d="M 109.226 162.4147 L 108.1198 162.372 L 107.9108 167.794 L 109.017 167.8366 L 109.226 162.4147 Z " stroke-width="0.38160280141808656"/>
      <path id="ID0.7359844641759992" fill="#8A7B59" stroke="none" d="M 110.576 162.0147 L 109.4698 161.972 L 109.2608 167.394 L 110.367 167.4366 L 110.576 162.0147 Z " stroke-width="0.38160280141808656"/>
      <path id="ID0.7359844641759992" fill="#8A7B59" stroke="none" d="M 112.126 161.6147 L 111.0198 161.572 L 110.8108 166.994 L 111.917 167.0366 L 112.126 161.6147 Z " stroke-width="0.38160280141808656"/>
      <path id="ID0.7359844641759992" fill="#8A7B59" stroke="none" d="M 107.726 162.9647 L 106.6198 162.922 L 106.4108 168.344 L 107.517 168.3866 L 107.726 162.9647 Z " stroke-width="0.38160280141808656"/>
      <g id="ID0.1049797898158431">
        <path id="ID0.08871637750416994" fill="#8A7B59" stroke="none" stroke-linecap="round" d="M 118.0733 160.984 L 113.0958 161.761 L 112.9334 166.9296 L 117.728 166.1235 L 118.0733 160.984 Z " stroke-width="0.40545296828097255"/>
        <path id="ID0.13805592898279428" fill="#76694C" stroke="none" stroke-linecap="round" d="M 118.3257 160.7505 L 113.1094 161.5184 L 112.9334 164.1761 L 118.1714 163.321 L 118.3257 160.7505 Z " stroke-width="0.40545296828097255"/>
        <path id="ID0.3221200187690556" fill="#61563F" stroke="none" stroke-linecap="round" d="M 116.1326 162.696 L 115.442 163.004 L 115.3197 164.6245 L 116.0691 164.3427 L 116.1326 162.696 Z " stroke-width="0.4400648042937891"/>
        <path id="ID0.1420820001512766" fill="#BAA578" stroke="none" stroke-linecap="round" d="M 113.5751 166.0886 L 113.075 164.7481 L 112.9561 166.8795 L 117.8216 166.1422 L 113.5751 166.0886 Z " stroke-width="0.40545296828097255"/>
      </g>
      <g id="ID0.6836685389280319">
        <path id="ID0.09357938077300787" fill="#857656" stroke="none" d="M 84.3997 161.3805 L 102.3608 162.0728 L 102.1132 168.4959 L 84.1522 167.8037 L 84.3997 161.3805 Z " stroke-width="0.4283320753153725"/>
        <path id="ID0.6492703901603818" fill="#7C6E50" stroke="none" stroke-linecap="round" d="M 85.0847 163.6021 L 93.1729 167.0111 L 102.118 164.2586 L 101.9539 168.5169 L 84.9206 167.8604 L 85.0847 163.6021 Z " stroke-width="0.47614255090398866"/>
        <g id="ID0.9254062357358634">
          <g id="ID0.49943465692922473">
            <path id="ID0.140373723115772" fill="#968561" stroke="none" d="M 100.9647 160.7878 L 106.0794 160.985 L 105.731 170.025 L 100.6163 169.8278 L 100.9647 160.7878 Z " stroke-width="0.47614255090398866"/>
            <path id="ID0.8286363878287375" fill="#BAA578" stroke="none" stroke-linecap="round" d="M 100.9438 160.6654 L 106.1683 161.105 L 101.9996 161.7067 L 100.8941 163.8083 L 100.9438 160.6654 Z " stroke-width="0.47614255090398866"/>
            <path id="ID0.7362233307212591" fill="#8A7B59" stroke="none" stroke-linecap="round" d="M 100.7328 166.7564 L 103.443 166.9085 L 105.9868 164.5764 L 105.7714 170.1669 L 100.609 169.968 L 100.7328 166.7564 Z " stroke-width="0.47614255090398866"/>
          </g>
          <g id="ID0.49943465692922473">
            <path id="ID0.140373723115772" fill="#968561" stroke="none" d="M 85.8122 160.4647 L 80.6974 160.2676 L 80.349 169.3076 L 85.4637 169.5047 L 85.8122 160.4647 Z " stroke-width="0.47614255090398866"/>
            <path id="ID0.8286363878287375" fill="#BAA578" stroke="none" stroke-linecap="round" d="M 85.9203 160.3202 L 80.6774 160.3564 L 84.7874 161.2772 L 85.7279 163.4577 L 85.9203 160.3202 Z " stroke-width="0.47614255090398866"/>
            <path id="ID0.7362233307212591" fill="#8A7B59" stroke="none" stroke-linecap="round" d="M 85.6618 166.4094 L 82.9479 166.3525 L 80.5911 163.8315 L 80.3757 169.422 L 85.538 169.621 L 85.6618 166.4094 Z " stroke-width="0.47614255090398866"/>
          </g>
        </g>
      </g>
    </g>
  </g>
  <g id="ID0.8333355090580881">
    <path id="ID0.9286923445761204" fill="#27282B" stroke="none" stroke-linecap="round" d="M 81.7302 44.6501 L 100.5086 46.4599 L 100.5522 70.8192 L 115.6595 78.2308 L 92.6066 89.1791 L 56.1722 75.9837 L 76.2362 65.7442 L 81.7302 44.6501 Z " stroke-width="0.47614259738069376"/>
    <path id="ID0.5448851804248989" fill="none" stroke="#1D1E1F" stroke-width="0.9522851947613875" stroke-linecap="round" d="M 77.7667 60.0091 L 76.43 65.5572 L 93.3813 73.7158 L 100.2648 70.9093 "/>
    <path id="ID0.262191956397146" fill="none" stroke="#1D1E1F" stroke-width="0.9522851947613875" stroke-linecap="round" d="M 80.4399 65.0093 L 93.041 71.4239 L 96.0601 70.3584 "/>
  </g>
  <g id="ID0.3450673264451325">
    <g id="ID0.9831569031812251">
      <path id="ID0.0877610077150166" fill="#2E3034" stroke="none" stroke-linecap="round" d="M 104.6127 13.9674 L 100.0691 0.8408 L 100.0066 29.3693 L 107.6779 29.3861 L 104.6127 13.9674 Z " stroke-width="0.5866066556445493"/>
      <path id="ID0.796130308881402" fill="#242628" stroke="none" stroke-linecap="round" d="M 104.8898 14.0354 L 99.9907 0.9081 L 103.5166 14.7538 L 104.4238 29.6432 L 107.5997 29.3551 L 104.8898 14.0354 Z " stroke-width="0.5866066556445493"/>
    </g>
    <g id="ID0.9831569031812251">
      <path id="ID0.0877610077150166" fill="#2E3034" stroke="none" stroke-linecap="round" d="M 80.862 14.1009 L 85.463 0.9944 L 85.4005 29.5229 L 77.7292 29.5061 L 80.862 14.1009 Z " stroke-width="0.5866066556445493"/>
      <path id="ID0.796130308881402" fill="#242628" stroke="none" stroke-linecap="round" d="M 80.4232 14.1222 L 85.3799 1.0165 L 81.7933 14.8467 L 80.6691 29.4037 L 77.6463 29.4298 L 80.4232 14.1222 Z " stroke-width="0.5866066556445493"/>
    </g>
    <path id="ID0.8999492498114705" fill="#2E3034" stroke="none" stroke-linecap="round" d="M 98.3708 19.9548 C 102.7739 20.4436 107.4998 23.1643 109.6235 27.0519 C 112.0468 31.4904 110.0867 37.0847 110.3755 42.0808 C 110.545 43.7847 111.3337 45.5391 110.9994 47.1626 C 110.3185 50.4649 108.6378 53.4901 107.5492 56.6807 C 106.8359 58.7718 106.6763 61.1262 105.5032 63.0267 C 104.1824 65.2765 102.8328 68.4076 100.2322 68.8576 C 96.3767 69.5244 92.3043 67.6743 88.8586 65.9115 C 86.0279 64.4629 83.3793 62.2451 81.811 59.4693 C 79.0027 54.3183 76.4541 48.6526 76.0814 42.7677 C 75.6684 36.2441 74.9159 28.1763 79.6799 23.4701 C 83.9422 18.9381 91.8253 19.2313 98.3708 19.9548 Z " stroke-width="0.5080372385387948"/>
    <path id="ID0.2441388238221407" fill="#AB8E85" stroke="none" d="M 96.0077 44.8228 C 100.0876 44.9988 105.5336 41.846 108.2527 44.5985 C 110.7022 47.1947 107.3234 52.0486 106.345 55.5201 C 105.3704 58.9728 104.674 62.7099 102.4299 65.5583 C 101.3596 66.8244 99.1341 66.8911 97.4042 66.6148 C 94.2933 66.1144 91.2344 64.8242 88.6438 63.0277 C 85.9628 61.1694 82.4195 59.1322 81.8552 55.906 C 81.1408 51.8192 81.817 46.4255 85.0212 43.8568 C 87.9598 41.6141 92.3385 44.6641 96.0077 44.8228 Z " stroke-width="1.2558401014062304"/>
    <path id="ID0.46721756737679243" fill="#A2887F" stroke="none" stroke-linecap="round" d="M 81.3773 45.9066 L 83.0523 46.5961 L 109.0646 46.2721 L 101.8394 51.3366 L 85.105 48.836 L 86.2174 51.2262 L 86.4591 56.8405 L 90.0758 64.0372 L 85.5182 57.3465 L 81.3773 45.9066 Z " stroke-width="0.5080372385387948"/>
    <path id="ID0.8256730306893587" fill="none" stroke="#937B73" stroke-width="1.0160744770775896" stroke-linecap="round" d="M 92.3042 57.7135 C 92.3042 57.7135 95.0047 57.123 96.3702 56.935 C 96.7118 56.888 97.0499 56.9665 97.3862 57.0134 C 97.728 57.0614 98.0568 57.2298 98.4018 57.2189 C 99.0856 57.1975 99.7552 57.0019 100.4346 56.9185 C 100.7715 56.8771 101.1115 56.8397 101.4508 56.8445 C 101.7907 56.8493 102.1356 56.8704 102.4667 56.9484 C 103.011 57.0766 104.0659 57.4599 104.0659 57.4599 "/>
    <path id="ID0.7592270169407129" fill="none" stroke="#937B73" stroke-width="1.0160744770775896" stroke-linecap="round" d="M 100.7823 59.0564 C 100.7823 59.0564 100.1597 59.4 99.8161 59.4607 C 99.4827 59.5199 99.1371 59.3743 98.8002 59.4076 C 98.4612 59.4415 98.1469 59.6176 97.8089 59.6595 C 97.473 59.7014 97.1224 59.7332 96.7929 59.6573 C 96.5126 59.5926 96.0317 59.2492 96.0317 59.2492 "/>
    <path id="ID0.5332203092984855" fill="none" stroke="#937B73" stroke-width="1.0160744770775896" stroke-linecap="round" d="M 94.9339 49.5942 C 94.9339 49.5942 94.3273 50.0247 94.2209 50.3547 C 94.0828 50.7969 93.8264 51.6412 94.2682 51.9551 C 94.8483 52.2464 95.6084 51.5211 96.3012 51.5785 C 96.9717 51.6369 98.2814 52.0909 98.2814 52.0909 "/>
    <path id="ID0.2278452254831791" fill="none" stroke="#937B73" stroke-width="1.0160744770775896" stroke-linecap="round" d="M 99.2856 45.9458 C 99.2856 45.9458 100.2158 47.8103 100.6766 48.7431 C 100.8308 49.0554 101.0009 49.3616 101.1317 49.684 C 101.2626 50.0063 101.4743 50.3279 101.4598 50.6754 C 101.4453 51.0238 101.2383 51.3455 101.0512 51.6397 C 100.9263 51.8366 100.5422 52.1212 100.5422 52.1212 "/>
    <path id="ID0.6473136460408568" fill="none" stroke="#937B73" stroke-width="1.0160746644120644" stroke-linecap="round" d="M 99.6054 62.8927 C 99.6054 62.8927 99.9208 63.5282 99.9709 63.8729 C 100.0193 64.2085 99.9585 64.5559 99.8942 64.8889 C 99.7978 65.3907 99.4904 66.3693 99.4904 66.3693 "/>
    <path id="ID0.11669129692018032" fill="#2E3034" stroke="none" stroke-linecap="round" d="M 83.3196 40.5764 L 106.5583 42.4055 L 110.4897 45.0813 L 101.0808 49.7601 L 80.3839 47.1745 L 83.3196 40.5764 Z " stroke-width="0.5080372385387948"/>
    <path id="ID0.14635155349969864" fill="#2E3034" stroke="none" stroke-linecap="round" d="M 80.6408 45.8287 L 82.4943 46.2138 L 85.1247 51.427 L 85.4169 57.1939 L 87.2375 61.0082 L 90.1255 64.5454 L 81.9068 59.3199 L 80.6408 45.8287 Z " stroke-width="0.5080372385387948"/>
    <path id="ID0.28340246016159654" fill="#1C1D1F" stroke="none" stroke-linecap="round" d="M 83.5328 37.4365 L 86.9591 38.9833 L 96.6249 39.8957 L 96.6123 45.6478 L 89.6741 44.6874 L 85.8147 43.5987 L 83.7927 42.082 L 82.9323 40.3517 L 83.5328 37.4365 Z " stroke-width="0.540102647546749"/>
    <path id="ID0.6101007834076881" fill="#FFFFFF" stroke="none" stroke-linecap="round" d="M 87.2744 39.9445 L 88.9263 40.3479 L 92.7036 41.5574 L 93.244 43.5269 L 87.9925 42.0624 L 87.2744 39.9445 Z " stroke-width="0.4061061861917582"/>
    <path id="ID0.28340246016159654" fill="#1C1D1F" stroke="none" stroke-linecap="round" d="M 108.9543 37.5036 L 105.893 38.8695 L 97.2702 39.6453 L 97.2589 44.7746 L 103.4497 43.9453 L 106.8954 42.9896 L 108.7044 41.645 L 109.4784 40.1055 L 108.9543 37.5036 Z " stroke-width="0.4816250158501302"/>
    <path id="ID0.6101007834076881" fill="#FFFFFF" stroke="none" stroke-linecap="round" d="M 107.2721 39.5666 L 105.7296 40.0546 L 102.2207 41.4429 L 101.8329 43.3469 L 106.7252 41.6228 L 107.2721 39.5666 Z " stroke-width="0.386386745652216"/>
    <g id="ID0.07940126257017255">
      <path id="ID0.46257128613069654" fill="#27282B" stroke="none" stroke-linecap="round" d="M 96.7587 39.7192 L 101.0806 49.6863 L 91.0497 48.3942 L 96.7587 39.7192 Z " stroke-width="0.5080372385387948"/>
      <path id="ID0.9845890481956303" fill="#27282B" stroke="none" stroke-linecap="round" d="M 97.5716 39.8456 L 105.8365 47.2303 L 101.157 49.7602 L 97.5716 39.8456 Z " stroke-width="0.5080372385387948"/>
    </g>
    <path id="ID0.20071752788498998" fill="#202324" stroke="none" d="M 88.326 35.1279 L 92.4609 37.7026 L 97.2085 38.8815 L 97.2816 40.2787 L 89.5115 38.9916 L 83.6234 36.6417 L 85.3546 34.8674 L 88.326 35.1279 Z " stroke-width="0.5080372385387948"/>
    <path id="ID0.20071752788498998" fill="#202324" stroke="none" d="M 105.2952 34.9581 L 102.2369 37.3984 L 96.9899 38.9483 L 96.9172 40.2299 L 104.051 39.0803 L 109.4855 37.0647 L 107.9523 34.8241 L 105.2952 34.9581 Z " stroke-width="0.4660979983675245"/>
    <path id="ID0.521138689480722" fill="none" stroke="#212325" stroke-width="0.906062754255988" stroke-linecap="round" d="M 109.0399 37.2354 L 105.7973 38.8139 L 97.2549 40.041 "/>
    <path id="ID0.17828734638169408" fill="none" stroke="#202324" stroke-width="1.0160744770775896" stroke-linecap="round" d="M 100.9804 49.201 L 98.0751 41.9551 C 97.0795 39.5336 97.2266 40.1024 97.0398 39.1332 C 96.9745 38.7947 97.1931 38.4588 97.2452 38.1176 C 97.2962 37.7814 97.361 37.4416 97.349 37.1017 C 97.3371 36.7583 97.2388 36.4222 97.1735 36.0852 C 97.0715 35.5592 96.8467 34.5096 96.8467 34.5096 "/>
    <path id="ID0.521138689480722" fill="none" stroke="#212325" stroke-width="1.0160744770775896" stroke-linecap="round" d="M 83.7671 36.873 L 87.3957 38.6591 L 96.9691 40.0772 "/>
    <path id="ID0.8012696979567409" fill="none" stroke="url(#grad_1)" stroke-width="1.0160744770775896" stroke-linecap="round" d="M 109.0656 45.8149 L 101.5889 49.7104 L 82.9999 47.3326 L 84.9728 51.198 L 85.2643 57.2951 L 87.1869 60.9064 L 90.0747 64.5452 "/>
    <path id="ID0.043594349175691605" fill="#D7E2FD" stroke="none" stroke-linecap="round" d="M 92.4772 42.6022 L 92.7082 41.485 L 93.2118 43.5436 L 90.6224 42.8013 L 92.4772 42.6022 Z " stroke-width="0.5080372385387948"/>
    <path id="ID0.043594349175691605" fill="#D7E2FD" stroke="none" stroke-linecap="round" d="M 102.5707 42.484 L 102.3077 41.4808 L 101.9486 43.3737 L 104.2641 42.5766 L 102.5707 42.484 Z " stroke-width="0.46186425555272625"/>
  </g>
  <g id="ID0.7397577832452953">
    <path id="ID0.6726378230378032" fill="#34373A" stroke="none" stroke-linecap="round" d="M 156.8209 128.7497 L 139.4454 132.1873 L 139.5113 134.5019 L 156.5647 130.7957 L 156.8209 128.7497 Z " stroke-width="0.7788099613120215"/>
    <path id="ID0.6507829907350242" fill="#1D1E1F" stroke="none" stroke-linecap="round" d="M 159.5321 130.6893 L 139.3012 134.3445 L 134.0692 151.6838 L 132.7883 161.914 L 128.0293 176.5408 L 125.5462 182.2848 L 135.8676 187.6905 L 137.9805 181.8259 L 142.5383 173.4809 L 148.805 163.0302 L 153.3026 154.8703 L 159.5321 130.6893 Z " stroke-width="0.7788099613120215"/>
    <path id="ID0.6829322893172503" fill="#1D1E1F" stroke="none" stroke-linecap="round" d="M 136.3584 187.4406 L 128.4218 179.7397 L 123.8329 183.7749 L 118.383 187.9394 L 116.6963 193.1236 L 115.8662 197.5628 L 116.8141 200.9424 L 116.1223 207.474 L 120.441 208.6744 L 122.1542 207.1843 L 123.6957 207.4811 L 127.4412 206.038 L 131.4923 204.2848 L 134.6691 200.8139 L 136.0369 194.0927 L 136.3584 187.4406 Z " stroke-width="0.7788099613120215"/>
    <path id="ID0.47767175547778606" fill="none" stroke="#0D0D0D" stroke-width="1.557619922624043" stroke-linecap="round" d="M 158.3634 134.2812 L 159.309 130.4939 L 139.3753 134.3686 L 135.5391 147.1662 "/>
    <path id="ID0.5922487881034613" fill="#282A2B" stroke="none" stroke-linecap="round" d="M 150.3726 161.8613 L 145.629 154.6669 L 140.0504 152.9338 L 132.6629 156.5088 L 129.5374 170.5205 L 131.5669 178.7565 L 134.7145 179.7806 L 142.4376 174.9224 L 150.3726 161.8613 Z " stroke-width="0.7788099613120215"/>
    <path id="ID0.36820242274552584" fill="#151616" stroke="none" stroke-linecap="round" d="M 143.991 162.422 L 136.3129 159.842 L 135.3593 171.0796 L 136.7535 171.4513 L 143.991 162.422 Z " stroke-width="0.7788099613120215"/>
    <path id="ID0.13569410238415003" fill="none" stroke="#232425" stroke-width="1.557619922624043" stroke-linecap="round" d="M 141.2766 172.7019 L 133.972 177.5324 L 131.4008 169.3249 "/>
    <path id="ID0.024502143263816833" fill="none" stroke="#0D0D0D" stroke-width="1.557619922624043" stroke-linecap="round" d="M 150.0498 161.4696 L 145.8764 154.7883 L 140.4683 152.783 L 133.0067 156.334 L 131.2913 164.3753 "/>
  </g>
  <path id="ID0.5368814701214433" fill="#303436" stroke="none" stroke-linecap="round" d="M 40.681 302.0176 L 46.36 294.667 L 53.6914 287.4624 L 61.1236 296.3282 L 69.1745 307.301 L 82.1539 322.903 L 80.9836 329.4026 L 57.3225 322.2262 L 38.5394 311.6437 L 40.681 302.0176 Z " stroke-width="0.7702165736147305"/>
  <path id="ID0.05466862628236413" fill="#303436" stroke="none" stroke-linecap="round" d="M 53.5883 219.7095 L 80.3256 219.3703 L 73.0106 237.4177 L 70.7866 242.2074 L 67.8149 260.105 L 59.2967 299.9572 L 43.5114 299.7585 L 44.2561 277.5217 L 42.686 268.6032 L 42.6066 259.0842 L 46.4467 245.9674 L 48.0699 233.7536 L 53.5883 219.7095 Z " stroke-width="0.7305889482933338"/>
  <path id="ID0.4490455654449761" fill="none" stroke="#272A2B" stroke-width="1.658552376016987" stroke-linecap="round" d="M 53.8848 220.6395 L 80.6628 219.9159 L 70.7204 243.2184 "/>
  <path id="ID0.10446935473009944" fill="none" stroke="#242728" stroke-width="1.658552376016987" stroke-linecap="round" d="M 68.2599 255.3986 L 65.8787 272.0677 L 54.4564 277.9516 "/>
  <path id="ID0.42170455446466804" fill="none" stroke="#242728" stroke-width="1.658552376016987" stroke-linecap="round" d="M 65.6323 273.0763 L 62.204 287.8158 L 50.538 293.8627 "/>
  <path id="ID0.047098892275244" fill="none" stroke="#242728" stroke-width="1.658552376016987" stroke-linecap="round" d="M 49.0684 234.2704 L 48.0826 238.0852 L 51.3735 247.4555 "/>
</svg>