<svg xmlns="http://www.w3.org/2000/svg" xmlns:xlink="http://www.w3.org/1999/xlink" version="1.1" width="266.02808141708374" height="110.34678411483765" viewBox="4.405310869216919 -2.3192891404032707 266.02808141708374 110.34678411483765">
  <!-- Exported by Scratch - http://scratch.mit.edu/ -->
  <g id="ID0.788790802937001">
    <g id="ID0.6169916936196387">
      <path id="ID0.6829322893172503" fill="#EDD2B8" stroke="none" stroke-linecap="round" d="M 153.1063 93.7747 L 145.1822 67.0584 L 159.5522 61.5258 L 175.2168 54.2217 L 188.7623 56.5112 L 199.6436 59.8432 L 206.0824 65.9073 L 221.4744 71.992 L 219.11 83.0369 L 213.7817 85.1218 L 212.6438 88.9102 L 205.0466 95.5875 L 196.4 102.585 L 184.9395 105.6238 L 168.3347 100.8269 L 153.1063 93.7747 Z " stroke-width="1.9625150044028237"/>
      <g id="ID0.9434720128774643">
        <path id="ID0.6507829907350242" fill="#282828" stroke="none" stroke-linecap="round" d="M 9.2753 81.639 L 6.809 45.5949 L 72.6545 54.6343 L 97.7805 57.886 L 135.9981 64.3455 L 153.475 61.627 L 153.4734 97.5526 L 136.175 92.7379 L 112.2183 93.167 L 81.5638 94.952 L 58.0908 95.4629 L 9.2753 81.639 Z " stroke-width="1.9625150044028237"/>
        <path id="ID0.9892375003546476" fill="none" stroke="#191919" stroke-width="4.807378009800758" stroke-linecap="round" d="M 151.9345 96.074 L 150.8248 62.9764 L 129.6777 65.4966 "/>
      </g>
    </g>
    <g id="ID0.08065540948882699">
      <path id="ID0.2553020962513983" fill="#999FA5" stroke="none" d="M 180.2951 37.987 C 204.5002 37.987 226.4339 40.6815 242.3175 45.0322 C 258.1987 49.3829 268.0297 55.3921 268.0297 62.0239 C 268.0297 68.6556 258.1987 74.6649 242.3175 79.0155 C 226.4339 83.3662 204.5002 86.0608 180.2951 86.0608 C 156.0899 86.0608 134.1563 83.3662 118.2727 79.0155 C 102.3915 74.6649 92.5604 68.6556 92.5604 62.0239 C 92.5604 55.3921 102.3915 49.3829 118.2727 45.0322 C 134.1563 40.6815 156.0899 37.987 180.2951 37.987 Z " stroke-width="2.40368914604187"/>
      <path id="ID0.4823109242133796" fill="#8B9196" stroke="none" stroke-linecap="round" d="M 177.8971 0.0844 C 197.9583 0.0844 216.135 4.4615 229.2976 11.5332 C 242.4602 18.6024 247.0513 28.0946 250.6087 39.1443 C 253.4018 47.8337 255.8848 61.9073 248.205 66.1858 C 227.0718 77.3846 201.2225 78.6225 177.8971 78.2043 C 154.1968 77.7788 129.2873 74.9545 108.1901 63.7822 C 101.1954 59.8641 102.616 47.0933 105.1855 39.1443 C 108.7646 28.1018 113.334 18.6024 126.4966 11.5332 C 139.6592 4.4615 157.8359 0.0844 177.8971 0.0844 Z " stroke-width="2.40368914604187"/>
      <path id="ID0.0372768803499639" fill="none" stroke="#A4ABB1" stroke-width="4.80737829208374" stroke-linecap="round" d="M 201.934 7.3418 C 201.934 7.3418 208.835 8.6398 212.1497 9.7455 C 213.6808 10.255 215.0774 11.166 216.3562 12.1492 C 217.7022 13.1851 219.9617 15.7547 219.9617 15.7547 "/>
      <path id="ID0.0845643924549222" fill="none" stroke="#A4ABB1" stroke-width="4.80737829208374" stroke-linecap="round" d="M 208.5442 18.1584 C 208.5442 18.1584 211.8372 19.1679 213.3515 19.9611 C 216.0581 21.3793 221.1635 24.7685 221.1635 24.7685 "/>
    </g>
  </g>
</svg>