<svg xmlns="http://www.w3.org/2000/svg" xmlns:xlink="http://www.w3.org/1999/xlink" version="1.1" width="168.5489044189453" height="313.802978515625" viewBox="6.594799995422363 2.540144205093384 168.5489044189453 313.802978515625">
  <!-- Exported by Scratch - http://scratch.mit.edu/ -->
  <path id="ID0.7477802094072104" fill="#670A0A" stroke="none" stroke-linecap="round" d="M 81.1154 106.4715 L 61.6382 102.9715 L 60.7831 144.1489 L 77.2591 153.4206 L 80.0532 128.952 L 81.1154 106.4715 Z " stroke-width="0.47614257300029306"/>
  <path id="ID0.7477802094072104" fill="#670A0A" stroke="none" stroke-linecap="round" d="M 20.7831 105.2358 L 44.2874 102.8664 L 43.4323 144.0439 L 26.5855 152.6236 L 21.6325 127.3988 L 20.7831 105.2358 Z " stroke-width="0.47614257300029306"/>
  <path id="ID0.4270821204409003" fill="#7C0D0D" stroke="none" stroke-linecap="round" d="M 21.5179 85.1385 L 25.5858 72.7215 L 27.968 66.937 L 34.6594 60.0513 L 65.6913 62.1245 L 72.505 66.5522 L 75.2772 70.6578 L 82.0615 82.2286 L 81.13 92.6866 L 80.0642 98.1413 L 81.587 105.0785 L 81.9494 110.5629 L 79.6639 117.421 L 77.9366 122.6238 L 76.5537 131.8818 L 77.5985 153.8108 L 72.2868 161.9158 L 67.3736 168.0287 L 55.1457 173.204 L 43.6169 169.9404 L 39.8289 163.1467 L 35.0115 156.6174 L 26.5309 153.3457 L 25.9148 127.9728 L 24.8631 121.2835 L 20.5303 109.7637 L 19.4461 98.9066 L 21.5179 85.1385 Z " stroke-width="0.47614257300029306"/>
  <path id="ID0.9286923445761204" fill="#7C0D0D" stroke="none" stroke-linecap="round" d="M 40.863 26.1601 L 59.6707 27.6361 L 60.1468 51.9908 L 75.3834 59.1329 L 52.5285 70.4889 L 15.8656 57.9426 L 35.7445 47.3484 L 40.863 26.1601 Z " stroke-width="0.4761425852775574"/>
  <path id="ID0.8999492498114705" fill="#7C0D0D" stroke="none" stroke-linecap="round" d="M 67.1106 5.5861 C 71.3007 7.0245 75.3184 10.7116 76.542 14.9691 C 77.9375 19.8297 74.8031 24.8609 73.9939 29.7996 C 73.7873 31.4993 74.1738 33.3836 73.4931 34.8949 C 72.1075 37.9688 69.8068 40.554 68.0477 43.43 C 66.895 45.3148 66.2251 47.5775 64.6653 49.176 C 62.8851 51.083 60.8843 53.8439 58.2482 53.7151 C 54.3402 53.5239 50.7701 50.8292 47.7924 48.3564 C 45.3464 46.3247 43.246 43.5821 42.3217 40.5308 C 40.706 34.8908 39.4561 28.8053 40.3775 22.9811 C 41.3991 16.5247 42.4265 8.4873 48.1032 4.935 C 53.2522 1.4431 60.8811 3.4506 67.1106 5.5861 Z " stroke-width="0.5080372579699718"/>
  <path id="ID0.6101007834076881" fill="#FFFFFF" stroke="none" stroke-linecap="round" d="M 51.8919 22.652 L 53.4158 23.4064 L 56.8378 25.4116 L 56.9351 27.4515 L 52.1301 24.8757 L 51.8919 22.652 Z " stroke-width="0.4061061796874046"/>
  <path id="ID0.6101007834076881" fill="#FFFFFF" stroke="none" stroke-linecap="round" d="M 71.8658 26.5646 L 70.2539 26.7039 L 66.5265 27.2925 L 65.7323 29.0659 L 70.883 28.4518 L 71.8658 26.5646 Z " stroke-width="0.38638672507520605"/>
  <path id="ID0.043594349175691605" fill="#D7E2FD" stroke="none" stroke-linecap="round" d="M 56.4031 26.296 L 56.8726 25.2563 L 56.9144 27.3752 L 54.5496 26.0853 L 56.4031 26.296 Z " stroke-width="0.5080372579699718"/>
  <path id="ID0.043594349175691605" fill="#D7E2FD" stroke="none" stroke-linecap="round" d="M 66.7355 28.3276 L 66.698 27.2912 L 65.9341 29.06 L 68.3678 28.7877 L 66.7355 28.3276 Z " stroke-width="0.46186425167072204"/>
  <g id="ID0.9102844540029764">
    <path id="ID0.3809091211296618" fill="#7C0D0D" stroke="none" stroke-linecap="round" d="M 54.602 160.0576 L 76.6962 141.9929 L 89.0331 178.7726 L 90.7359 189.5852 L 89.8963 208.1778 L 82.1516 212.8008 L 69.8852 217.1581 L 64.9636 196.9286 L 64.0059 185.5114 L 54.602 160.0576 Z " stroke-width="0.7305889588146068"/>
    <path id="ID0.5368814701214433" fill="#7C0D0D" stroke="none" stroke-linecap="round" d="M 85.7851 298.3073 L 86.4682 289.0436 L 88.6102 278.9904 L 99.6995 282.2867 L 112.4671 286.9994 L 131.8989 292.8553 L 134.5074 298.9225 L 110.8123 305.9861 L 89.3078 307.5181 L 85.7851 298.3073 Z " stroke-width="0.7702165209453279"/>
    <path id="ID0.05466862628236413" fill="#7C0D0D" stroke="none" stroke-linecap="round" d="M 67.1236 210.9651 L 91.7875 200.6361 L 91.7647 220.1096 L 91.4965 225.3837 L 95.4447 243.0915 L 102.473 283.2332 L 87.7624 288.9613 L 80.1241 268.0643 L 75.3279 260.3831 L 71.6889 251.5867 L 70.3366 237.9864 L 67.2671 226.0537 L 67.1236 210.9651 Z " stroke-width="0.7305889588146068"/>
    <path id="ID0.3809091211296618" fill="#7C0D0D" stroke="none" stroke-linecap="round" d="M 24.1313 142.4709 L 49.8848 149.7959 L 62.2218 186.5756 L 63.9246 197.3882 L 63.085 215.9808 L 55.3403 220.6038 L 43.0739 224.9611 L 37.2164 203.9918 L 32.3406 191.4932 L 24.1313 142.4709 Z " stroke-width="0.7305889588146068"/>
    <path id="ID0.5368814701214433" fill="#7C0D0D" stroke="none" stroke-linecap="round" d="M 59.1541 306.6322 L 59.8373 297.3686 L 61.9792 287.3153 L 73.0686 290.6117 L 85.8361 295.3243 L 105.2679 301.1803 L 107.8764 307.2475 L 84.1814 314.311 L 62.6768 315.8431 L 59.1541 306.6322 Z " stroke-width="0.7702165209453279"/>
    <path id="ID0.05466862628236413" fill="#7C0D0D" stroke="none" stroke-linecap="round" d="M 40.3123 218.768 L 64.9762 208.4391 L 64.9534 227.9126 L 64.6852 233.1866 L 68.6334 250.8944 L 75.6617 291.0362 L 60.9511 296.7643 L 53.3128 275.8673 L 48.5166 268.1861 L 44.8776 259.3897 L 43.5253 245.7894 L 40.4558 233.8566 L 40.3123 218.768 Z " stroke-width="0.7305889588146068"/>
  </g>
  <g id="ID0.11762161832302809">
    <path id="ID0.7729651997797191" fill="#7C0D0D" stroke="none" stroke-linecap="round" d="M 71.0586 88.8056 L 81.611 72.6328 L 93.9206 83.6742 L 103.9083 92.4974 L 106.8155 98.4096 L 108.0542 102.9237 L 99.2051 111.7764 L 93.6239 110.1671 L 79.6433 96.1578 L 71.0586 88.8056 Z " stroke-width="0.7788099101305449"/>
    <path id="ID0.4757494777441025" fill="#7C0D0D" stroke="none" stroke-linecap="round" d="M 54.8467 69.3034 L 57.1156 61.1876 L 68.6894 50.2687 L 85.9292 69.0998 L 85.1858 80.0441 L 83.939 84.2993 L 80.4486 85.8399 L 76.6334 86.8035 L 71.7659 90.3039 L 67.1708 87.8183 L 60.798 83.406 L 55.4077 76.8091 L 54.8467 69.3034 Z " stroke-width="0.454186055045565"/>
    <path id="ID0.6507829907350242" fill="#7C0D0D" stroke="none" stroke-linecap="round" d="M 90.8488 111.4997 L 108.2679 100.5808 L 123.8108 109.8783 L 131.6459 116.5797 L 145.0127 124.1902 L 150.7161 126.7653 L 146.7243 137.7115 L 141.2136 134.798 L 132.225 131.6967 L 120.5551 128.1891 L 111.7357 125.1841 L 90.8488 111.4997 Z " stroke-width="0.7788099101305449"/>
    <path id="ID0.6829322893172503" fill="#7C0D0D" stroke="none" stroke-linecap="round" d="M 146.1933 137.8572 L 146.8763 126.8196 L 152.9861 126.7135 L 159.8196 126.1232 L 164.5572 128.8206 L 168.1598 131.5439 L 169.7344 134.6809 L 174.6437 139.0443 L 172.2588 142.8396 L 169.9888 142.8914 L 169.0489 144.1487 L 165.308 145.6036 L 161.1323 147.0349 L 156.4465 146.6076 L 150.9099 142.559 L 146.1933 137.8572 Z " stroke-width="0.7788099101305449"/>
  </g>
  <g id="ID0.6396432118490338">
    <path id="ID0.7729651997797191" fill="#7C0D0D" stroke="none" stroke-linecap="round" d="M 24.0142 90.3439 L 35.185 73.4604 L 48.0153 85.118 L 58.4264 94.4346 L 61.4344 100.652 L 62.7027 105.3925 L 53.3665 114.6136 L 47.5265 112.8891 L 32.9644 98.1091 L 24.0142 90.3439 Z " stroke-width="0.8164596170432475"/>
    <path id="ID0.4757494777441025" fill="#7C0D0D" stroke="none" stroke-linecap="round" d="M 7.0948 69.7342 L 9.5277 61.2415 L 21.7341 49.8727 L 39.6805 69.7295 L 38.8277 81.1975 L 37.4921 85.65 L 33.8228 87.2416 L 29.8168 88.2262 L 24.6906 91.8631 L 19.89 89.2265 L 13.239 84.5582 L 7.6325 77.6064 L 7.0948 69.7342 Z " stroke-width="0.4761425676556246"/>
    <path id="ID0.6507829907350242" fill="#7C0D0D" stroke="none" stroke-linecap="round" d="M 44.6083 114.2674 L 62.9424 102.9379 L 79.174 112.789 L 87.3427 119.8668 L 101.3043 127.9347 L 107.266 130.6726 L 103.0079 142.1209 L 97.2504 139.0296 L 87.8483 135.7181 L 75.6381 131.9627 L 66.4126 128.7533 L 44.6083 114.2674 Z " stroke-width="0.8164596170432475"/>
    <path id="ID0.6829322893172503" fill="#7C0D0D" stroke="none" stroke-linecap="round" d="M 102.4502 142.2701 L 103.2404 130.7037 L 109.6461 130.6335 L 116.8137 130.0605 L 121.7622 132.92 L 125.5205 135.7991 L 127.1502 139.0983 L 132.2674 143.7055 L 129.7418 147.6682 L 127.3618 147.7073 L 126.368 149.019 L 122.4365 150.519 L 118.0495 151.9916 L 113.1402 151.5121 L 107.3631 147.2308 L 102.4502 142.2701 Z " stroke-width="0.8164596170432475"/>
    <path id="ID0.5922487881034613" fill="#7C0D0D" stroke="none" stroke-linecap="round" d="M 73.444 132.1012 L 72.0998 123.1677 L 75.2342 117.9067 L 83.4993 115.5162 L 95.7564 124.2493 L 99.9465 132.0927 L 98.2104 135.0971 L 88.7843 136.7225 L 73.444 132.1012 Z " stroke-width="0.8164596170432475"/>
  </g>
</svg>