<svg xmlns="http://www.w3.org/2000/svg" xmlns:xlink="http://www.w3.org/1999/xlink" version="1.1" width="347.47275522045925" height="51.72776010327172" viewBox="0.5978199109801057 0.6361199483641389 347.47275522045925 51.72776010327172">
  <defs>
    <linearGradient id="grad_1" y2="1" x2="0">
      <stop offset="0" stop-color="#6D6D6D" stop-opacity="1"/>
      <stop offset="1" stop-color="#515151" stop-opacity="1"/>
    </linearGradient>
    <linearGradient id="grad_2" y2="1" x2="0">
      <stop offset="0" stop-color="#6D6D6D" stop-opacity="1"/>
      <stop offset="1" stop-color="#515151" stop-opacity="1"/>
    </linearGradient>
    <linearGradient id="grad_3" y2="1" x2="0">
      <stop offset="0" stop-color="#6D6D6D" stop-opacity="1"/>
      <stop offset="1" stop-color="#515151" stop-opacity="1"/>
    </linearGradient>
    <linearGradient id="grad_4" y2="1" x2="0">
      <stop offset="0" stop-color="#6D6D6D" stop-opacity="1"/>
      <stop offset="1" stop-color="#515151" stop-opacity="1"/>
    </linearGradient>
    <linearGradient id="grad_5" y2="1" x2="0">
      <stop offset="0" stop-color="#6D6D6D" stop-opacity="1"/>
      <stop offset="1" stop-color="#515151" stop-opacity="1"/>
    </linearGradient>
    <linearGradient id="grad_6" y2="1" x2="0">
      <stop offset="0" stop-color="#306AA6" stop-opacity="1"/>
      <stop offset="1" stop-color="#204975" stop-opacity="1"/>
    </linearGradient>
    <linearGradient id="grad_7" y2="1" x2="0">
      <stop offset="0" stop-color="#306AA6" stop-opacity="1"/>
      <stop offset="1" stop-color="#204975" stop-opacity="1"/>
    </linearGradient>
    <linearGradient id="grad_8" y2="1" x2="0">
      <stop offset="0" stop-color="#306AA6" stop-opacity="1"/>
      <stop offset="1" stop-color="#204975" stop-opacity="1"/>
    </linearGradient>
    <linearGradient id="grad_9" y2="1" x2="0">
      <stop offset="0" stop-color="#306AA6" stop-opacity="1"/>
      <stop offset="1" stop-color="#204975" stop-opacity="1"/>
    </linearGradient>
    <linearGradient id="grad_10" y2="1" x2="0">
      <stop offset="0" stop-color="#306AA6" stop-opacity="1"/>
      <stop offset="1" stop-color="#204975" stop-opacity="1"/>
    </linearGradient>
    <linearGradient id="grad_11" y2="1" x2="0">
      <stop offset="0" stop-color="#306AA6" stop-opacity="1"/>
      <stop offset="1" stop-color="#204975" stop-opacity="1"/>
    </linearGradient>
    <linearGradient id="grad_12" y2="1" x2="0">
      <stop offset="0" stop-color="#306AA6" stop-opacity="1"/>
      <stop offset="1" stop-color="#204975" stop-opacity="1"/>
    </linearGradient>
    <linearGradient id="grad_13" y2="1" x2="0">
      <stop offset="0" stop-color="#306AA6" stop-opacity="1"/>
      <stop offset="1" stop-color="#204975" stop-opacity="1"/>
    </linearGradient>
    <linearGradient id="grad_14" y2="1" x2="0">
      <stop offset="0" stop-color="#306AA6" stop-opacity="1"/>
      <stop offset="1" stop-color="#204975" stop-opacity="1"/>
    </linearGradient>
    <linearGradient id="grad_15" y2="1" x2="0">
      <stop offset="0" stop-color="#306AA6" stop-opacity="1"/>
      <stop offset="1" stop-color="#204975" stop-opacity="1"/>
    </linearGradient>
    <linearGradient id="grad_16" y2="1" x2="0">
      <stop offset="0" stop-color="#6D6D6D" stop-opacity="1"/>
      <stop offset="1" stop-color="#515151" stop-opacity="1"/>
    </linearGradient>
    <linearGradient id="grad_17" y2="1" x2="0">
      <stop offset="0" stop-color="#6D6D6D" stop-opacity="1"/>
      <stop offset="1" stop-color="#515151" stop-opacity="1"/>
    </linearGradient>
    <linearGradient id="grad_18" y2="1" x2="0">
      <stop offset="0" stop-color="#6D6D6D" stop-opacity="1"/>
      <stop offset="1" stop-color="#515151" stop-opacity="1"/>
    </linearGradient>
    <linearGradient id="grad_19" y2="1" x2="0">
      <stop offset="0" stop-color="#6D6D6D" stop-opacity="1"/>
      <stop offset="1" stop-color="#515151" stop-opacity="1"/>
    </linearGradient>
    <linearGradient id="grad_20" y2="1" x2="0">
      <stop offset="0" stop-color="#6D6D6D" stop-opacity="1"/>
      <stop offset="1" stop-color="#515151" stop-opacity="1"/>
    </linearGradient>
    <linearGradient id="grad_21" y2="1" x2="0">
      <stop offset="0" stop-color="#6D6D6D" stop-opacity="1"/>
      <stop offset="1" stop-color="#515151" stop-opacity="1"/>
    </linearGradient>
  <linearGradient id="grad_1-.6681416034698486,0,0,0.6681416034698486,-49.8,-137.8" y2="35.2487" x2="22.2925" x1="22.2925" y1="22.9549" gradientUnits="userSpaceOnUse">
      <stop offset="0" stop-color="#6D6D6D" stop-opacity="1"/>
      <stop offset="1" stop-color="#515151" stop-opacity="1"/>
    </linearGradient><linearGradient id="grad_2-.6681416034698486,0,0,0.6681416034698486,-49.8,-137.8" y2="35.1819" x2="33.9181" x1="33.9181" y1="22.9549" gradientUnits="userSpaceOnUse">
      <stop offset="0" stop-color="#6D6D6D" stop-opacity="1"/>
      <stop offset="1" stop-color="#515151" stop-opacity="1"/>
    </linearGradient><linearGradient id="grad_3-.6681416034698486,0,0,0.6681416034698486,-49.8,-137.8" y2="35.1819" x2="46.546" x1="46.546" y1="22.9549" gradientUnits="userSpaceOnUse">
      <stop offset="0" stop-color="#6D6D6D" stop-opacity="1"/>
      <stop offset="1" stop-color="#515151" stop-opacity="1"/>
    </linearGradient><linearGradient id="grad_4-.6681416034698486,0,0,0.6681416034698486,-49.8,-137.8" y2="35.3823" x2="57.3699" x1="57.3699" y1="22.7544" gradientUnits="userSpaceOnUse">
      <stop offset="0" stop-color="#6D6D6D" stop-opacity="1"/>
      <stop offset="1" stop-color="#515151" stop-opacity="1"/>
    </linearGradient><linearGradient id="grad_5-.6681416034698486,0,0,0.6681416034698486,-49.8,-137.8" y2="35.3823" x2="68.5279" x1="68.5279" y1="22.7544" gradientUnits="userSpaceOnUse">
      <stop offset="0" stop-color="#6D6D6D" stop-opacity="1"/>
      <stop offset="1" stop-color="#515151" stop-opacity="1"/>
    </linearGradient><linearGradient id="grad_6-.6681416034698486,0,0,0.6681416034698486,-49.8,-137.8" y2="35.2487" x2="86.0332" x1="86.0332" y1="20.6832" gradientUnits="userSpaceOnUse">
      <stop offset="0" stop-color="#306AA6" stop-opacity="1"/>
      <stop offset="1" stop-color="#204975" stop-opacity="1"/>
    </linearGradient><linearGradient id="grad_7-.6681416034698486,0,0,0.6681416034698486,-49.8,-137.8" y2="35.1819" x2="101.2" x1="101.2" y1="20.6832" gradientUnits="userSpaceOnUse">
      <stop offset="0" stop-color="#306AA6" stop-opacity="1"/>
      <stop offset="1" stop-color="#204975" stop-opacity="1"/>
    </linearGradient><linearGradient id="grad_8-.6681416034698486,0,0,0.6681416034698486,-49.8,-137.8" y2="35.4491" x2="107.4137" x1="107.4137" y1="20.4159" gradientUnits="userSpaceOnUse">
      <stop offset="0" stop-color="#306AA6" stop-opacity="1"/>
      <stop offset="1" stop-color="#204975" stop-opacity="1"/>
    </linearGradient><linearGradient id="grad_9-.6681416034698486,0,0,0.6681416034698486,-49.8,-137.8" y2="35.1819" x2="124.2509" x1="124.2509" y1="20.6832" gradientUnits="userSpaceOnUse">
      <stop offset="0" stop-color="#306AA6" stop-opacity="1"/>
      <stop offset="1" stop-color="#204975" stop-opacity="1"/>
    </linearGradient><linearGradient id="grad_10-.6681416034698486,0,0,0.6681416034698486,-49.8,-137.8" y2="35.1819" x2="138.95" x1="138.95" y1="20.6832" gradientUnits="userSpaceOnUse">
      <stop offset="0" stop-color="#306AA6" stop-opacity="1"/>
      <stop offset="1" stop-color="#204975" stop-opacity="1"/>
    </linearGradient><linearGradient id="grad_11-.6681416034698486,0,0,0.6681416034698486,-49.8,-137.8" y2="35.2487" x2="158.3261" x1="158.3261" y1="20.6164" gradientUnits="userSpaceOnUse">
      <stop offset="0" stop-color="#306AA6" stop-opacity="1"/>
      <stop offset="1" stop-color="#204975" stop-opacity="1"/>
    </linearGradient><linearGradient id="grad_12-.6681416034698486,0,0,0.6681416034698486,-49.8,-137.8" y2="35.2487" x2="175.8314" x1="175.8314" y1="20.6832" gradientUnits="userSpaceOnUse">
      <stop offset="0" stop-color="#306AA6" stop-opacity="1"/>
      <stop offset="1" stop-color="#204975" stop-opacity="1"/>
    </linearGradient><linearGradient id="grad_13-.6681416034698486,0,0,0.6681416034698486,-49.8,-137.8" y2="35.2487" x2="190.7978" x1="190.7978" y1="20.6832" gradientUnits="userSpaceOnUse">
      <stop offset="0" stop-color="#306AA6" stop-opacity="1"/>
      <stop offset="1" stop-color="#204975" stop-opacity="1"/>
    </linearGradient><linearGradient id="grad_14-.6681416034698486,0,0,0.6681416034698486,-49.8,-137.8" y2="35.4491" x2="205.2965" x1="205.2965" y1="20.3491" gradientUnits="userSpaceOnUse">
      <stop offset="0" stop-color="#306AA6" stop-opacity="1"/>
      <stop offset="1" stop-color="#204975" stop-opacity="1"/>
    </linearGradient><linearGradient id="grad_15-.6681416034698486,0,0,0.6681416034698486,-49.8,-137.8" y2="35.3155" x2="222.4009" x1="222.4009" y1="20.6164" gradientUnits="userSpaceOnUse">
      <stop offset="0" stop-color="#306AA6" stop-opacity="1"/>
      <stop offset="1" stop-color="#204975" stop-opacity="1"/>
    </linearGradient><linearGradient id="grad_16-.6681416034698486,0,0,0.6681416034698486,-49.8,-137.8" y2="35.3155" x2="251.7323" x1="251.7323" y1="23.4226" gradientUnits="userSpaceOnUse">
      <stop offset="0" stop-color="#6D6D6D" stop-opacity="1"/>
      <stop offset="1" stop-color="#515151" stop-opacity="1"/>
    </linearGradient><linearGradient id="grad_17-.6681416034698486,0,0,0.6681416034698486,-49.8,-137.8" y2="35.3823" x2="259.2155" x1="259.2155" y1="25.6274" gradientUnits="userSpaceOnUse">
      <stop offset="0" stop-color="#6D6D6D" stop-opacity="1"/>
      <stop offset="1" stop-color="#515151" stop-opacity="1"/>
    </linearGradient><linearGradient id="grad_18-.6681416034698486,0,0,0.6681416034698486,-49.8,-137.8" y2="35.1819" x2="276.7876" x1="276.7876" y1="22.9549" gradientUnits="userSpaceOnUse">
      <stop offset="0" stop-color="#6D6D6D" stop-opacity="1"/>
      <stop offset="1" stop-color="#515151" stop-opacity="1"/>
    </linearGradient><linearGradient id="grad_19-.6681416034698486,0,0,0.6681416034698486,-49.8,-137.8" y2="35.1819" x2="289.6159" x1="289.6159" y1="22.9549" gradientUnits="userSpaceOnUse">
      <stop offset="0" stop-color="#6D6D6D" stop-opacity="1"/>
      <stop offset="1" stop-color="#515151" stop-opacity="1"/>
    </linearGradient><linearGradient id="grad_20-.6681416034698486,0,0,0.6681416034698486,-49.8,-137.8" y2="35.3823" x2="294.8274" x1="294.8274" y1="22.7544" gradientUnits="userSpaceOnUse">
      <stop offset="0" stop-color="#6D6D6D" stop-opacity="1"/>
      <stop offset="1" stop-color="#515151" stop-opacity="1"/>
    </linearGradient><linearGradient id="grad_21-.6681416034698486,0,0,0.6681416034698486,-49.8,-137.8" y2="35.1819" x2="308.2571" x1="308.2571" y1="22.9549" gradientUnits="userSpaceOnUse">
      <stop offset="0" stop-color="#6D6D6D" stop-opacity="1"/>
      <stop offset="1" stop-color="#515151" stop-opacity="1"/>
    </linearGradient></defs>
  <!-- Exported by Scratch - http://scratch.mit.edu/ -->
  <path id="ID0.14518280653283" fill="#1F1F1F" stroke="#FFFFFF" stroke-width="2.2277601032717222" d="M 1.7117 51.25 L 62.7518 48.75 L 287.0119 50.75 L 302.1046 47.75 L 340.4449 50.75 L 339.8363 21.75 L 346.9567 5.25 L 297.5403 1.75 L 273.1364 4.75 L 202.8459 5.25 L 97.9275 4.6 L 35.4876 8.1 L 42.7297 4.35 L 14.8569 7.1 L 8.4668 5.6 L 6.3368 31.75 L 1.7117 51.25 Z "/>
  <g id="ID0.022450516000390053">
    <path id="ID0.8662373679690063" fill="url(#grad_1-.6681416034698486,0,0,0.6681416034698486,-49.8,-137.8)" d="M 22.2925 22.9549 L 27.3035 22.9549 C 28.0385 22.9549 28.7066 23.0885 29.2412 23.2889 C 29.8425 23.4894 30.3102 23.7566 30.7111 24.1575 C 31.1119 24.5584 31.446 24.9593 31.6465 25.4938 C 31.8469 26.0283 31.9805 26.5628 31.9805 27.231 L 31.9805 27.2978 C 31.9805 28.0327 31.8469 28.6341 31.5796 29.1686 C 31.3124 29.7031 30.9783 30.1708 30.5106 30.5049 C 30.0429 30.8389 29.5084 31.1062 28.9739 31.3066 C 28.3726 31.5071 27.7044 31.5739 27.0363 31.5739 L 24.965 31.5739 L 24.965 35.2487 L 22.2925 35.2487 L 22.2925 22.9549 Z M 27.1031 29.1018 C 27.7712 29.1018 28.3058 28.9013 28.6398 28.5673 C 29.0407 28.2332 29.1743 27.7655 29.1743 27.231 L 29.1743 27.231 C 29.1743 26.6296 28.9739 26.1619 28.573 25.8279 C 28.1721 25.4938 27.6376 25.3602 26.9695 25.3602 L 24.8982 25.3602 L 24.8982 29.1018 L 27.1031 29.1018 Z " stroke-width="0.6681416034698486"/>
    <path id="ID0.8496838249266148" fill="url(#grad_2-.6681416034698486,0,0,0.6681416034698486,-49.8,-137.8)" d="M 33.9181 22.9549 L 39.5305 22.9549 C 41.0673 22.9549 42.2699 23.3558 43.0717 24.2243 C 43.7398 24.8925 44.1407 25.8279 44.1407 27.0305 L 44.1407 27.0973 C 44.1407 28.0996 43.8735 28.9013 43.4058 29.5027 C 42.9381 30.104 42.2699 30.5717 41.535 30.8389 L 44.5416 35.1819 L 41.4013 35.1819 L 38.7956 31.3066 L 38.7288 31.3066 L 36.6575 31.3066 L 36.6575 35.1819 L 33.985 35.1819 L 33.985 22.9549 Z M 39.3301 28.9013 C 39.9982 28.9013 40.5327 28.7677 40.8668 28.4336 C 41.2009 28.0996 41.4013 27.6987 41.4013 27.1642 L 41.4013 27.0973 C 41.4013 26.496 41.2009 26.0951 40.8668 25.7611 C 40.4659 25.4938 39.9982 25.2934 39.3301 25.2934 L 36.6575 25.2934 L 36.6575 28.7677 L 39.3301 28.7677 Z " stroke-width="0.6681416034698486"/>
    <path id="ID0.18189623299986124" fill="url(#grad_3-.6681416034698486,0,0,0.6681416034698486,-49.8,-137.8)" d="M 46.546 22.9549 L 55.7664 22.9549 L 55.7664 25.3602 L 49.2186 25.3602 L 49.2186 27.8323 L 54.9646 27.8323 L 54.9646 30.2376 L 49.2186 30.2376 L 49.2186 32.7766 L 55.8332 32.7766 L 55.8332 35.1819 L 46.546 35.1819 L 46.546 22.9549 Z " stroke-width="0.6681416034698486"/>
    <path id="ID0.19084062054753304" fill="url(#grad_4-.6681416034698486,0,0,0.6681416034698486,-49.8,-137.8)" d="M 62.5814 35.3823 C 61.646 35.3823 60.7106 35.2487 59.842 34.9146 C 58.9735 34.5805 58.1049 34.1128 57.3699 33.4447 L 58.9735 31.5739 C 59.508 32.0416 60.1093 32.3757 60.7106 32.6429 C 61.3119 32.9102 61.9133 33.0438 62.6482 33.0438 C 63.1827 33.0438 63.6504 32.9102 63.9177 32.7097 C 64.2518 32.5093 64.3854 32.242 64.3854 31.8412 L 64.3854 31.7743 C 64.3854 31.5739 64.3854 31.4403 64.3186 31.3066 C 64.2518 31.173 64.1181 31.0394 63.9845 30.9058 C 63.7841 30.7721 63.5836 30.7053 63.2496 30.5717 C 62.9155 30.4381 62.5146 30.3044 61.9801 30.2376 C 61.3788 30.104 60.7774 29.9035 60.3097 29.7031 C 59.7752 29.5027 59.3743 29.3022 59.0403 29.035 C 58.7062 28.7677 58.4389 28.4336 58.2385 28.0327 C 58.0381 27.6319 57.9712 27.0973 57.9712 26.496 L 57.9712 26.4292 C 57.9712 25.8947 58.1049 25.3602 58.3053 24.8925 C 58.5058 24.4248 58.773 24.0907 59.1739 23.7566 C 59.5748 23.4226 59.9757 23.1553 60.5102 23.0217 C 61.0447 22.8212 61.5792 22.7544 62.2473 22.7544 C 63.1159 22.7544 63.9845 22.8881 64.7195 23.1553 C 65.4544 23.4226 66.1894 23.8235 66.7907 24.2912 L 65.3876 26.2956 C 64.8531 25.8947 64.3186 25.6274 63.7841 25.427 C 63.2496 25.2266 62.715 25.0929 62.2473 25.0929 C 61.7796 25.0929 61.3119 25.2266 61.0447 25.427 C 60.7774 25.6274 60.6438 25.8947 60.6438 26.1619 L 60.6438 26.2288 C 60.6438 26.4292 60.7106 26.6296 60.7774 26.7633 C 60.8442 26.8969 60.9779 27.0305 61.1783 27.1642 C 61.3788 27.2978 61.646 27.3646 61.9801 27.4982 C 62.3142 27.6319 62.7819 27.6987 63.3164 27.8323 C 63.9177 27.9659 64.4522 28.1664 64.9867 28.3668 C 65.5212 28.5673 65.8553 28.8345 66.1894 29.1018 C 66.5235 29.369 66.7907 29.7031 66.9243 30.104 C 67.058 30.5049 67.1916 30.9726 67.1916 31.5071 L 67.1916 31.5739 C 67.1916 32.1752 67.058 32.7097 66.8575 33.1774 C 66.6571 33.6451 66.323 34.046 65.9221 34.3801 C 65.5212 34.7142 65.0535 34.9146 64.519 35.115 C 63.8509 35.2487 63.2496 35.3823 62.5814 35.3823 Z " stroke-width="0.6681416034698486"/>
    <path id="ID0.522703364957124" fill="url(#grad_5-.6681416034698486,0,0,0.6681416034698486,-49.8,-137.8)" d="M 73.7394 35.3823 C 72.804 35.3823 71.8686 35.2487 71 34.9146 C 70.1314 34.5805 69.2628 34.1128 68.5279 33.4447 L 70.1314 31.5739 C 70.6659 32.0416 71.2673 32.3757 71.8686 32.6429 C 72.4699 32.9102 73.0712 33.0438 73.8062 33.0438 C 74.3407 33.0438 74.8084 32.9102 75.0757 32.7097 C 75.4097 32.5093 75.5434 32.242 75.5434 31.8412 L 75.5434 31.7743 C 75.5434 31.5739 75.5434 31.4403 75.4766 31.3066 C 75.4097 31.173 75.2761 31.0394 75.1425 30.9058 C 74.942 30.7721 74.7416 30.7053 74.4075 30.5717 C 74.0735 30.4381 73.6726 30.3044 73.1381 30.2376 C 72.5367 30.104 71.9354 29.9035 71.4677 29.7031 C 70.9332 29.5027 70.5323 29.3022 70.1982 29.035 C 69.8642 28.7677 69.5969 28.4336 69.3965 28.0327 C 69.196 27.6319 69.1292 27.0973 69.1292 26.496 L 69.1292 26.4292 C 69.1292 25.8947 69.2628 25.3602 69.4633 24.8925 C 69.6637 24.4248 69.931 24.0907 70.3319 23.7566 C 70.7327 23.4226 71.1336 23.1553 71.6681 23.0217 C 72.2027 22.8212 72.7372 22.7544 73.4053 22.7544 C 74.2739 22.7544 75.1425 22.8881 75.8774 23.1553 C 76.6124 23.4226 77.3473 23.8235 77.9487 24.2912 L 76.5456 26.2956 C 76.0111 25.8947 75.4766 25.6274 74.942 25.427 C 74.4075 25.2266 73.873 25.0929 73.4053 25.0929 C 72.9376 25.0929 72.4699 25.2266 72.2027 25.427 C 71.9354 25.6274 71.8018 25.8947 71.8018 26.1619 L 71.8018 26.2288 C 71.8018 26.4292 71.8686 26.6296 71.9354 26.7633 C 72.0022 26.8969 72.1358 27.0305 72.3363 27.1642 C 72.5367 27.2978 72.804 27.3646 73.1381 27.4982 C 73.4721 27.6319 73.9398 27.6987 74.4743 27.8323 C 75.0757 27.9659 75.6102 28.1664 76.1447 28.3668 C 76.6792 28.5673 77.0133 28.8345 77.3473 29.1018 C 77.6814 29.369 77.9487 29.7031 78.0823 30.104 C 78.2159 30.5049 78.3496 30.9726 78.3496 31.5071 L 78.3496 31.5739 C 78.3496 32.1752 78.2159 32.7097 78.0155 33.1774 C 77.815 33.6451 77.481 34.046 77.0801 34.3801 C 76.6792 34.7142 76.2115 34.9146 75.677 35.115 C 75.0089 35.2487 74.4075 35.3823 73.7394 35.3823 Z " stroke-width="0.6681416034698486"/>
    <path id="ID0.8484233934432268" fill="url(#grad_6-.6681416034698486,0,0,0.6681416034698486,-49.8,-137.8)" d="M 86.1 20.6832 L 92.7146 20.6832 C 94.5186 20.6832 95.9885 21.1509 96.9239 22.1531 C 97.7257 22.9549 98.1934 24.0907 98.1934 25.4938 L 98.1934 25.5606 C 98.1934 26.7633 97.9261 27.6987 97.3248 28.4336 C 96.7235 29.1686 95.9885 29.7031 95.0531 30.0372 L 98.5943 35.2487 L 94.8527 35.2487 L 91.7792 30.6385 L 91.7124 30.6385 L 89.2403 30.6385 L 89.2403 35.2487 L 86.0332 35.2487 L 86.0332 20.6832 Z M 92.5142 27.6987 C 93.3159 27.6987 93.9173 27.4982 94.3181 27.1642 C 94.719 26.8301 94.9195 26.2956 94.9195 25.6943 L 94.9195 25.6274 C 94.9195 24.9593 94.719 24.4248 94.2513 24.0907 C 93.7836 23.7566 93.1823 23.5562 92.3805 23.5562 L 89.2403 23.5562 L 89.2403 27.6987 L 92.5142 27.6987 Z " stroke-width="0.6681416034698486"/>
    <path id="ID0.8962856908328831" fill="url(#grad_7-.6681416034698486,0,0,0.6681416034698486,-49.8,-137.8)" d="M 101.2 20.6832 L 104.4071 20.6832 L 104.4071 35.1819 L 101.2 35.1819 L 101.2 20.6832 Z " stroke-width="0.6681416034698486"/>
    <path id="ID0.28866250021383166" fill="url(#grad_8-.6681416034698486,0,0,0.6681416034698486,-49.8,-137.8)" d="M 114.9637 35.4491 C 113.8279 35.4491 112.8257 35.2487 111.8903 34.9146 C 110.9549 34.5137 110.1531 34.046 109.485 33.3779 C 108.8168 32.7097 108.2823 31.908 107.9482 31.0394 C 107.5473 30.104 107.4137 29.1018 107.4137 28.0327 L 107.4137 27.9659 C 107.4137 26.8969 107.6142 25.9615 108.015 25.0261 C 108.4159 24.0907 108.9504 23.3558 109.6186 22.6208 C 110.2867 21.9527 111.0885 21.4181 112.0239 21.0173 C 112.9593 20.6164 113.9615 20.4159 115.0973 20.4159 C 115.7655 20.4159 116.3668 20.4827 116.9013 20.5496 C 117.4358 20.6164 117.9035 20.75 118.3712 20.9504 C 118.8389 21.0841 119.2398 21.3513 119.6407 21.5518 C 120.0416 21.819 120.4425 22.0863 120.7766 22.4204 L 118.7721 24.8257 C 118.5049 24.5584 118.2376 24.358 117.9704 24.2243 C 117.7031 24.0239 117.4358 23.8903 117.1018 23.7566 C 116.8345 23.623 116.5004 23.5562 116.1664 23.4894 C 115.8323 23.4226 115.4314 23.3558 115.0305 23.3558 C 114.4292 23.3558 113.8947 23.4894 113.427 23.6898 C 112.8925 23.9571 112.4916 24.2243 112.0907 24.692 C 111.6898 25.1597 111.4226 25.5606 111.2221 26.0951 C 111.0217 26.6296 110.8881 27.231 110.8881 27.8323 L 110.8881 27.8991 C 110.8881 28.5673 111.0217 29.1686 111.2221 29.7699 C 111.4226 30.3044 111.7566 30.8389 112.1575 31.2398 C 112.5584 31.6407 113.0261 31.9748 113.5606 32.1752 C 114.0951 32.3757 114.6965 32.5093 115.3646 32.5093 C 116.5673 32.5093 117.5695 32.242 118.3712 31.6407 L 118.3712 29.5695 L 115.1642 29.5695 L 115.1642 26.8301 L 121.4447 26.8301 L 121.4447 33.1106 C 120.7097 33.7788 119.8412 34.3133 118.7721 34.7142 C 117.7031 35.115 116.3 35.4491 114.9637 35.4491 Z " stroke-width="0.6681416034698486"/>
    <path id="ID0.31696950923651457" fill="url(#grad_9-.6681416034698486,0,0,0.6681416034698486,-49.8,-137.8)" d="M 124.2509 20.6832 L 127.458 20.6832 L 127.458 26.4292 L 133.3376 26.4292 L 133.3376 20.6832 L 136.5447 20.6832 L 136.5447 35.1819 L 133.3376 35.1819 L 133.3376 29.369 L 127.458 29.369 L 127.458 35.1819 L 124.2509 35.1819 L 124.2509 20.6832 Z " stroke-width="0.6681416034698486"/>
    <path id="ID0.7877479027956724" fill="url(#grad_10-.6681416034698486,0,0,0.6681416034698486,-49.8,-137.8)" d="M 143.3597 23.623 L 138.95 23.623 L 138.95 20.6832 L 150.9766 20.6832 L 150.9766 23.623 L 146.5668 23.623 L 146.5668 35.1819 L 143.3597 35.1819 L 143.3597 23.623 Z " stroke-width="0.6681416034698486"/>
    <path id="ID0.013876574113965034" fill="url(#grad_11-.6681416034698486,0,0,0.6681416034698486,-49.8,-137.8)" d="M 164.6066 20.6164 L 167.5465 20.6164 L 173.7602 35.2487 L 170.4195 35.2487 L 169.0832 31.9748 L 162.9363 31.9748 L 161.6 35.2487 L 158.3261 35.2487 L 164.6066 20.6164 Z M 167.9473 29.1018 L 166.0097 24.4248 L 164.0721 29.1018 L 167.9473 29.1018 Z " stroke-width="0.6681416034698486"/>
    <path id="ID0.04646624578163028" fill="url(#grad_12-.6681416034698486,0,0,0.6681416034698486,-49.8,-137.8)" d="M 175.965 20.6832 L 182.5796 20.6832 C 184.3836 20.6832 185.8535 21.1509 186.7889 22.1531 C 187.5907 22.9549 188.0584 24.0907 188.0584 25.4938 L 188.0584 25.5606 C 188.0584 26.7633 187.7912 27.6987 187.1898 28.4336 C 186.5885 29.1686 185.8535 29.7031 184.9181 30.0372 L 188.4593 35.2487 L 184.7177 35.2487 L 181.5774 30.6385 L 181.5106 30.6385 L 179.0385 30.6385 L 179.0385 35.2487 L 175.8314 35.2487 L 175.8314 20.6832 Z M 182.3792 27.6987 C 183.181 27.6987 183.7823 27.4982 184.1832 27.1642 C 184.5841 26.7633 184.7845 26.2956 184.7845 25.6943 L 184.7845 25.6274 C 184.7845 24.9593 184.5841 24.4248 184.1164 24.0907 C 183.6487 23.7566 183.0473 23.5562 182.2456 23.5562 L 179.1053 23.5562 L 179.1053 27.6987 L 182.3792 27.6987 Z " stroke-width="0.6681416034698486"/>
    <path id="ID0.9509864370338619" fill="url(#grad_13-.6681416034698486,0,0,0.6681416034698486,-49.8,-137.8)" d="M 190.9314 20.6832 L 197.546 20.6832 C 199.35 20.6832 200.8199 21.1509 201.7553 22.1531 C 202.5571 22.9549 203.0248 24.0907 203.0248 25.4938 L 203.0248 25.5606 C 203.0248 26.7633 202.7575 27.6987 202.1562 28.4336 C 201.5549 29.1686 200.8199 29.7031 199.8845 30.0372 L 203.4257 35.2487 L 199.6841 35.2487 L 196.5438 30.6385 L 196.477 30.6385 L 194.0049 30.6385 L 194.0049 35.2487 L 190.7978 35.2487 L 190.7978 20.6832 Z M 197.4124 27.6987 C 198.2142 27.6987 198.8155 27.4982 199.2164 27.1642 C 199.6173 26.7633 199.8177 26.2956 199.8177 25.6943 L 199.8177 25.6274 C 199.8177 24.9593 199.6173 24.4248 199.1496 24.0907 C 198.6819 23.7566 198.0805 23.5562 197.2788 23.5562 L 194.1385 23.5562 L 194.1385 27.6987 L 197.4124 27.6987 Z " stroke-width="0.6681416034698486"/>
    <path id="ID0.6359278834424913" fill="url(#grad_14-.6681416034698486,0,0,0.6681416034698486,-49.8,-137.8)" d="M 212.9801 35.4491 C 211.8443 35.4491 210.842 35.2487 209.9066 34.8478 C 208.9712 34.4469 208.1695 33.9124 207.5013 33.2443 C 206.8332 32.5761 206.2987 31.7743 205.8978 30.9058 C 205.4969 29.9704 205.2965 29.035 205.2965 27.9659 L 205.2965 27.8991 C 205.2965 26.8301 205.4969 25.8947 205.8978 24.9593 C 206.2987 24.0239 206.8332 23.2889 207.5013 22.554 C 208.1695 21.8858 208.9712 21.3513 209.9735 20.9504 C 210.9757 20.5496 211.9779 20.3491 213.0469 20.3491 C 214.1159 20.3491 215.185 20.5496 216.1204 20.9504 C 217.0558 21.3513 217.8575 21.8858 218.5257 22.554 C 219.1938 23.2221 219.7283 24.0239 220.1292 24.8925 C 220.5301 25.7611 220.7305 26.7633 220.7305 27.8323 L 220.7305 27.8991 C 220.7305 28.9013 220.5301 29.9035 220.1292 30.8389 C 219.7283 31.7743 219.1938 32.5093 218.5257 33.2443 C 217.8575 33.9792 217.0558 34.4469 216.0535 34.8478 C 215.1181 35.2487 214.1159 35.4491 212.9801 35.4491 Z M 213.0469 32.5093 C 213.715 32.5093 214.2496 32.3757 214.7841 32.1752 C 215.3186 31.908 215.7863 31.6407 216.1872 31.173 C 216.5881 30.7721 216.8553 30.3044 217.0558 29.7031 C 217.2562 29.1018 217.3898 28.5673 217.3898 27.9659 L 217.3898 27.8991 C 217.3898 27.2978 217.2562 26.6965 217.0558 26.1619 C 216.8553 25.6274 216.5212 25.0929 216.1204 24.692 C 215.7195 24.2912 215.2518 23.9571 214.7173 23.6898 C 214.1827 23.4226 213.5814 23.3558 212.9801 23.3558 C 212.312 23.3558 211.7106 23.4894 211.1761 23.6898 C 210.6416 23.8903 210.1739 24.2243 209.8398 24.692 C 209.4389 25.0929 209.1717 25.5606 208.9712 26.1619 C 208.7708 26.7633 208.6372 27.2978 208.6372 27.8991 L 208.6372 27.9659 C 208.6372 28.5673 208.7708 29.1686 208.9712 29.7031 C 209.1717 30.2376 209.5058 30.7053 209.9066 31.173 C 210.3075 31.6407 210.7752 31.908 211.3097 32.1752 C 211.7774 32.3757 212.3788 32.5093 213.0469 32.5093 Z " stroke-width="0.6681416034698486"/>
    <path id="ID0.6623810385353863" fill="url(#grad_15-.6681416034698486,0,0,0.6681416034698486,-49.8,-137.8)" d="M 222.4009 20.6832 L 225.8084 20.6832 L 228.815 30.5049 L 232.0889 20.6164 L 234.8283 20.6164 L 238.1022 30.5049 L 241.1089 20.6832 L 244.4496 20.6832 L 239.5053 35.3155 L 236.6991 35.3155 L 233.4252 25.8279 L 230.1513 35.3155 L 227.3451 35.3155 L 222.4009 20.6832 Z " stroke-width="0.6681416034698486"/>
    <path id="ID0.5610064677894115" fill="url(#grad_16-.6681416034698486,0,0,0.6681416034698486,-49.8,-137.8)" d="M 255.6075 35.3155 C 255.2066 35.3155 254.8058 35.2487 254.4717 35.1819 C 254.1376 35.115 253.8704 34.9146 253.6031 34.7142 C 253.3358 34.5137 253.2022 34.1796 253.0686 33.8456 C 252.935 33.5115 252.8681 33.0438 252.8681 32.5093 L 252.8681 28.0996 L 251.7323 28.0996 L 251.7323 25.8279 L 252.8681 25.8279 L 252.8681 23.4226 L 255.5407 23.4226 L 255.5407 25.8279 L 257.7456 25.8279 L 257.7456 28.0996 L 255.5407 28.0996 L 255.5407 32.1084 C 255.5407 32.7097 255.808 33.0438 256.4093 33.0438 C 256.877 33.0438 257.2779 32.9102 257.7456 32.7097 L 257.7456 34.8478 C 257.4783 34.9814 257.1443 35.115 256.8102 35.2487 C 256.4093 35.3155 256.0084 35.3155 255.6075 35.3155 Z " stroke-width="0.6681416034698486"/>
    <path id="ID0.5909981606528163" fill="url(#grad_17-.6681416034698486,0,0,0.6681416034698486,-49.8,-137.8)" d="M 264.2934 35.3823 C 263.5584 35.3823 262.8903 35.2487 262.2889 34.9814 C 261.6876 34.7142 261.1531 34.3801 260.6854 33.9792 C 260.2177 33.5115 259.8836 33.0438 259.6164 32.4425 C 259.3491 31.8412 259.2155 31.2398 259.2155 30.5717 L 259.2155 30.5049 C 259.2155 29.8367 259.3491 29.1686 259.6164 28.6341 C 259.8836 28.0327 260.2177 27.565 260.6854 27.0973 C 261.1531 26.6296 261.6876 26.2956 262.2889 26.0283 C 262.8903 25.7611 263.5584 25.6274 264.2934 25.6274 C 265.0283 25.6274 265.6965 25.7611 266.2978 26.0283 C 266.8991 26.2956 267.4336 26.6296 267.9013 27.0305 C 268.369 27.4982 268.7031 27.9659 268.9704 28.5673 C 269.2376 29.1686 269.3712 29.7699 269.3712 30.4381 L 269.3712 30.5049 C 269.3712 31.173 269.2376 31.8412 268.9704 32.3757 C 268.7031 32.977 268.369 33.4447 267.9013 33.9124 C 267.4336 34.3801 266.8991 34.7142 266.2978 34.9814 C 265.6965 35.2487 265.0283 35.3823 264.2934 35.3823 Z M 264.2934 33.1106 C 264.6943 33.1106 265.0283 33.0438 265.2956 32.9102 C 265.5628 32.7766 265.8301 32.5761 266.0305 32.3757 C 266.231 32.1752 266.4314 31.8412 266.4982 31.5739 C 266.6319 31.2398 266.6319 30.9058 266.6319 30.5717 L 266.6319 30.5049 C 266.6319 30.1708 266.565 29.8367 266.4314 29.5027 C 266.2978 29.1686 266.1642 28.9013 265.8969 28.7009 C 265.6965 28.4336 265.4292 28.3 265.0951 28.1664 C 264.7611 28.0327 264.4938 27.9659 264.0929 27.9659 C 263.692 27.9659 263.358 28.0327 263.0907 28.1664 C 262.8235 28.3 262.5562 28.5004 262.3558 28.7009 C 262.1553 28.9013 261.9549 29.2354 261.8881 29.5027 C 261.7544 29.8367 261.7544 30.1708 261.7544 30.5049 L 261.7544 30.5717 C 261.7544 30.9058 261.8212 31.2398 261.9549 31.5739 C 262.0885 31.908 262.2221 32.1752 262.4894 32.3757 C 262.6898 32.6429 262.9571 32.7766 263.2912 32.9102 C 263.5584 33.0438 263.8925 33.1106 264.2934 33.1106 Z " stroke-width="0.6681416034698486"/>
    <path id="ID0.14065225468948483" fill="url(#grad_18-.6681416034698486,0,0,0.6681416034698486,-49.8,-137.8)" d="M 276.7876 22.9549 L 279.4602 22.9549 L 279.4602 28.3 L 284.4044 22.9549 L 287.6783 22.9549 L 282.7341 28.1664 L 287.9456 35.1819 L 284.7385 35.1819 L 280.9301 29.9704 L 279.527 31.4403 L 279.527 35.1819 L 276.8544 35.1819 L 276.8544 22.9549 Z " stroke-width="0.6681416034698486"/>
    <path id="ID0.48007315723225474" fill="url(#grad_19-.6681416034698486,0,0,0.6681416034698486,-49.8,-137.8)" d="M 289.6159 22.9549 L 292.2885 22.9549 L 292.2885 35.1819 L 289.6159 35.1819 L 289.6159 22.9549 Z " stroke-width="0.6681416034698486"/>
    <path id="ID0.6689505479298532" fill="url(#grad_20-.6681416034698486,0,0,0.6681416034698486,-49.8,-137.8)" d="M 301.108 35.3823 C 300.2394 35.3823 299.3708 35.2487 298.6358 34.9146 C 297.9009 34.5805 297.2327 34.1128 296.6314 33.5783 C 296.0969 33.0438 295.6292 32.3757 295.2951 31.5739 C 294.9611 30.8389 294.8274 29.9704 294.8274 29.1018 L 294.8274 29.035 C 294.8274 28.1664 294.9611 27.3646 295.2951 26.5628 C 295.6292 25.8279 296.0301 25.1597 296.6314 24.5584 C 297.1659 23.9571 297.8341 23.5562 298.6358 23.2221 C 299.4376 22.8881 300.3062 22.7544 301.2416 22.7544 C 301.8429 22.7544 302.3106 22.8212 302.7783 22.8881 C 303.246 22.9549 303.6469 23.0885 304.0478 23.2889 C 304.4487 23.4226 304.7827 23.623 305.1168 23.8903 C 305.4509 24.0907 305.7181 24.358 306.0522 24.6252 L 304.315 26.6296 C 303.8474 26.2288 303.3797 25.8947 302.8451 25.6274 C 302.3774 25.3602 301.7761 25.2934 301.1748 25.2934 C 300.6403 25.2934 300.1726 25.3602 299.7717 25.5606 C 299.3708 25.7611 298.9699 26.0283 298.6358 26.3624 C 298.3018 26.6965 298.1013 27.0973 297.9009 27.565 C 297.7004 28.0327 297.6336 28.5004 297.6336 29.035 L 297.6336 29.1018 C 297.6336 29.6363 297.7004 30.104 297.9009 30.5717 C 298.1013 31.0394 298.3018 31.4403 298.6358 31.7743 C 298.9699 32.1084 299.304 32.3757 299.7717 32.5761 C 300.2394 32.7766 300.7071 32.9102 301.2416 32.9102 C 301.9097 32.9102 302.5111 32.7766 302.9788 32.5093 C 303.4465 32.242 303.9142 31.908 304.4487 31.4403 L 306.1858 33.1774 C 305.8518 33.5115 305.5177 33.8456 305.1836 34.1128 C 304.8496 34.3801 304.4487 34.5805 304.0478 34.781 C 303.6469 34.9814 303.1792 35.115 302.7115 35.2487 C 302.177 35.3155 301.6425 35.3823 301.108 35.3823 Z " stroke-width="0.6681416034698486"/>
    <path id="ID0.2384653422050178" fill="url(#grad_21-.6681416034698486,0,0,0.6681416034698486,-49.8,-137.8)" d="M 308.2571 22.9549 L 310.9297 22.9549 L 310.9297 28.3 L 315.8739 22.9549 L 319.1478 22.9549 L 314.2035 28.1664 L 319.4151 35.1819 L 316.208 35.1819 L 312.3996 29.9704 L 310.9965 31.4403 L 310.9965 35.1819 L 308.3239 35.1819 L 308.3239 22.9549 Z " stroke-width="0.6681416034698486"/>
  </g>
</svg>