<svg xmlns="http://www.w3.org/2000/svg" xmlns:xlink="http://www.w3.org/1999/xlink" version="1.1" width="180.27667760849" height="90.78378057479858" viewBox="-1.8432891368865967 -2.3192891404032707 180.27667760849 90.78378057479858">
  <!-- Exported by Scratch - http://scratch.mit.edu/ -->
  <g id="ID0.08065540948882699">
    <path id="ID0.2553020962513983" fill="#999FA5" stroke="none" d="M 88.2951 37.987 C 112.5002 37.987 134.4339 40.6815 150.3175 45.0322 C 166.1987 49.3829 176.0297 55.3921 176.0297 62.0239 C 176.0297 68.6556 166.1987 74.6649 150.3175 79.0155 C 134.4339 83.3662 112.5002 86.0608 88.2951 86.0608 C 64.0899 86.0608 42.1563 83.3662 26.2727 79.0155 C 10.3915 74.6649 0.5604 68.6556 0.5604 62.0239 C 0.5604 55.3921 10.3915 49.3829 26.2727 45.0322 C 42.1563 40.6815 64.0899 37.987 88.2951 37.987 Z " stroke-width="2.40368914604187"/>
    <path id="ID0.4823109242133796" fill="#8B9196" stroke="none" stroke-linecap="round" d="M 85.8971 0.0844 C 105.9583 0.0844 124.135 4.4615 137.2976 11.5332 C 150.4602 18.6024 155.0513 28.0946 158.6087 39.1443 C 161.4018 47.8337 163.8848 61.9073 156.205 66.1858 C 135.0718 77.3846 109.2225 78.6225 85.8971 78.2043 C 62.1968 77.7788 37.2873 74.9545 16.1901 63.7822 C 9.1954 59.8641 10.616 47.0933 13.1855 39.1443 C 16.7646 28.1018 21.334 18.6024 34.4966 11.5332 C 47.6592 4.4615 65.8359 0.0844 85.8971 0.0844 Z " stroke-width="2.40368914604187"/>
    <path id="ID0.0372768803499639" fill="none" stroke="#A4ABB1" stroke-width="4.80737829208374" stroke-linecap="round" d="M 109.934 7.3418 C 109.934 7.3418 116.835 8.6398 120.1497 9.7455 C 121.6808 10.255 123.0774 11.166 124.3562 12.1492 C 125.7022 13.1851 127.9617 15.7547 127.9617 15.7547 "/>
    <path id="ID0.0845643924549222" fill="none" stroke="#A4ABB1" stroke-width="4.80737829208374" stroke-linecap="round" d="M 116.5442 18.1584 C 116.5442 18.1584 119.8372 19.1679 121.3515 19.9611 C 124.0581 21.3793 129.1635 24.7685 129.1635 24.7685 "/>
  </g>
</svg>