<svg xmlns="http://www.w3.org/2000/svg" xmlns:xlink="http://www.w3.org/1999/xlink" version="1.1" width="127.53007473095768" height="337.20445980175845" viewBox="0.899363450484908 -0.7780388074344036 127.53007473095768 337.20445980175845">
  <defs>
    <linearGradient id="grad_1" y2="1" x2="0">
      <stop offset="0" stop-color="#222325" stop-opacity="1"/>
      <stop offset="1" stop-color="#2E3034" stop-opacity="1"/>
    </linearGradient>
  </defs>
  <!-- Exported by Scratch - http://scratch.mit.edu/ -->
  <path id="ID0.7766774026677012" fill="#0D0D0D" stroke="#0D0D0D" stroke-width="1.9914776240240806" stroke-linecap="round" d="M 113.6 188.2961 C 112.882 155.106 113.611 120.628 102.6 88.9023 C 98.436 76.9077 83.141 71.3803 71.1 67.0902 C 65.604 65.1351 60.034 70.0428 54.6 71.7997 C 53.057 72.2944 51.912 73.3325 50.6 74.0304 C 48.743 74.8206 46.789 75.4205 45.1 76.2612 C 44.502 76.5607 43.9 76.8561 43.35 77.2527 C 42.7 77.5997 42.2 78.0954 41.6 78.492 C 40.35 79.2356 39.1 80.0288 37.85 80.7228 C 36.6 81.3177 35.3 81.8134 34.1 82.4579 C 33.5 82.7553 32.85 83.0032 32.35 83.4493 C 31.75 83.8955 31.35 84.5895 30.85 85.1844 C 30.35 85.6801 29.85 86.1758 29.35 86.6716 C 28.85 87.1177 28.2 87.5639 27.85 88.1587 C 27.45 88.704 27.35 89.4476 27.1 90.1417 C 26.85 90.7861 26.55 91.4306 26.35 92.1246 C 25.9 93.4135 25.5 94.7519 25.1 96.0904 C 24.85 96.7349 24.6 97.3793 24.35 98.0733 C 24.1 98.7178 23.85 99.3622 23.6 100.0563 C 23.35 100.7007 23.1 101.3452 22.85 102.0392 C 22.6 102.6836 22.25 103.3281 22.1 104.0221 C 21.9 104.6665 21.9 105.311 21.85 106.005 C 21.75 106.6495 21.65 107.2939 21.6 107.9879 C 21.5 108.6324 21.45 109.2768 21.35 109.9708 C 21.2 110.6153 20.95 111.2597 20.85 111.9538 C 20.4 113.8871 20 115.9196 19.6 117.9025 C 19.45 118.547 19.2 119.1914 19.1 119.8854 C 18.95 120.5299 18.9 121.1743 18.85 121.8684 C 18.75 122.5128 18.6 123.1573 18.6 123.8513 C 18.55 124.4957 18.6 125.1402 18.6 125.8342 C 18.6 127.1231 18.5 128.4616 18.6 129.8 C 18.6 130.4445 18.8 130.7419 18.85 131.783 C 18.9 135.7984 18.85 139.8633 18.85 143.9283 C 18.85 147.8446 18.85 151.86 18.85 155.8258 C 18.85 157.7592 18.9 159.7917 18.85 161.7746 C 18.8 162.419 18.7 163.0635 18.6 163.7575 C 18.35 165.2447 18 166.6823 17.85 168.2191 C 17.75 168.8635 17.85 169.508 17.85 170.202 C 17.8 170.8464 17.65 171.4909 17.6 172.1849 C 17.4 173.4738 17.15 174.8123 17.1 176.1508 C 17 177.4397 17.1 178.7781 17.1 180.1166 C 17.1 184.0329 17.1 188.0483 17.1 192.0141 C 17.1 192.956 17.15 193.303 17.1 193.997 C 17 194.6415 16.7 195.2859 16.6 195.9799 C 16.25 197.9133 16.1 199.9458 15.85 201.9287 C 15.75 202.5731 15.7 203.2176 15.6 203.9116 C 15.3 205.2997 14.85 206.6877 14.6 208.1253 C 14.45 208.8193 14.4 209.6125 14.35 210.3561 C 14.25 211.0501 14.1 211.7937 14.1 212.5869 C 14.05 213.2313 14.1 213.8758 14.1 214.5698 C 14.1 215.2143 14 215.8587 14.1 216.5527 C 14.25 217.8416 14.6 219.1801 14.85 220.5186 C 14.95 221.163 15.05 221.8075 15.1 222.5015 C 15.1 223.1459 15.1 223.7904 15.1 224.4844 C 15.1 225.1288 15.1 225.7733 15.1 226.4673 C 15 227.7562 15 229.0947 14.85 230.4332 C 14.65 231.6725 14.1 234.1511 14.1 234.1511 C 13.85 234.6469 13.228 237.4685 12.85 238.8606 C 12.645 239.617 12.323 240.3398 12.1 241.0913 C 11.906 241.7447 11.767 242.4139 11.6 243.0743 C 11.433 243.7346 11.227 244.3879 11.1 245.0572 C 10.976 245.7115 10.974 246.3857 10.85 247.0401 C 10.723 247.7093 10.555 248.3736 10.35 249.023 C 10.138 249.6962 9.773 250.3218 9.6 251.0059 C 9.437 251.6514 9.433 252.3285 9.35 252.9889 C 9.267 253.6492 9.183 254.3115 9.1 254.9718 C 9.017 255.6321 8.933 256.2944 8.85 256.9547 C 8.767 257.615 8.628 258.2723 8.6 258.9376 C 8.545 260.2572 8.655 261.5838 8.6 262.9034 C 8.572 263.5687 8.433 264.2261 8.35 264.8864 C 8.267 265.5467 8.128 266.204 8.1 266.8693 C 8.045 268.1889 8.072 269.5145 8.1 270.8351 C 8.156 273.4774 8.283 276.1255 8.35 278.7668 C 8.367 279.4271 8.35 280.0894 8.35 280.7497 C 8.35 281.41 8.392 282.0733 8.35 282.7326 C 8.308 283.3969 8.224 284.0612 8.1 284.7156 C 7.973 285.3848 7.685 286.0233 7.6 286.6985 C 7.517 287.3538 7.642 288.0221 7.6 288.6814 C 7.558 289.3457 7.392 290 7.35 290.6643 C 7.308 291.3236 7.392 291.9879 7.35 292.6472 C 7.308 293.3115 7.224 293.9758 7.1 294.6301 C 6.973 295.2994 6.727 295.9438 6.6 296.6131 C 6.476 297.2674 6.474 297.9416 6.35 298.596 C 6.223 299.2652 5.963 299.9077 5.85 300.5789 C 5.629 301.8916 5.517 303.2241 5.35 304.5447 C 5.267 305.205 5.183 305.8673 5.1 306.5277 C 5.017 307.188 4.892 307.8463 4.85 308.5106 C 4.808 309.1699 4.808 309.8342 4.85 310.4935 C 4.892 311.1578 5.072 311.8111 5.1 312.4764 C 5.155 313.796 5.265 315.1315 5.1 316.4422 C 4.93 317.7926 4.484 319.1013 4.1 320.4081 C 3.901 321.0853 3.562 321.7178 3.35 322.391 C 3.145 323.0404 3.055 323.7245 2.85 324.3739 C 2.638 325.0471 2.231 325.6638 2.1 326.3568 C 1.977 327.0062 1.708 327.8054 2.1 328.3398 C 2.518 328.9098 3.394 328.9961 4.1 329.0834 C 4.766 329.1656 5.429 328.8355 6.1 328.8355 C 6.771 328.8355 7.429 329.0834 8.1 329.0834 C 8.771 329.0834 9.43 328.8771 10.1 328.8355 C 10.765 328.7938 11.439 328.7532 12.1 328.8355 C 12.781 328.9198 13.478 329.0437 14.1 329.3312 C 14.749 329.6316 15.171 330.3465 15.85 330.5705 C 16.482 330.7797 17.184 330.5705 17.85 330.5705 C 18.516 330.5705 19.189 330.6528 19.85 330.5705 C 20.531 330.4863 21.169 330.1591 21.85 330.0748 C 22.511 329.9925 23.185 330.0332 23.85 330.0748 C 24.52 330.1165 25.18 330.281 25.85 330.3227 C 26.515 330.3643 27.189 330.2404 27.85 330.3227 C 28.531 330.407 29.169 330.7341 29.85 330.8184 C 30.511 330.9007 31.185 330.7768 31.85 330.8184 C 32.52 330.86 33.184 330.984 33.85 331.0663 C 34.516 331.1486 35.179 331.335 35.85 331.3141 C 37.854 331.2517 39.849 330.9423 41.85 330.8184 C 42.515 330.7768 43.185 330.7768 43.85 330.8184 C 44.52 330.86 45.179 331.0385 45.85 331.0663 C 47.181 331.1208 48.519 331.0117 49.85 331.0663 C 50.521 331.094 51.18 331.2725 51.85 331.3141 C 52.515 331.3558 53.185 331.3558 53.85 331.3141 C 54.52 331.2725 55.18 331.1079 55.85 331.0663 C 56.515 331.0246 57.185 331.1079 57.85 331.0663 C 58.52 331.0246 59.181 330.8739 59.85 330.8184 C 61.18 330.7084 62.515 330.5705 63.85 330.5705 C 64.521 330.5705 65.19 330.6955 65.85 330.8184 C 66.525 330.9443 67.169 331.2299 67.85 331.3141 C 68.511 331.3964 69.184 331.3141 69.85 331.3141 C 71.848 331.3141 73.853 331.2527 75.85 331.3141 C 76.521 331.335 77.18 331.5204 77.85 331.562 C 78.515 331.6036 79.185 331.6036 79.85 331.562 C 80.52 331.5204 81.184 331.3964 81.85 331.3141 C 82.516 331.2318 83.18 331.1079 83.85 331.0663 C 84.515 331.0246 85.195 331.1882 85.85 331.0663 C 86.549 330.9364 86.254 330.7401 87.85 330.3227 C 94.233 328.6531 105.672 331.8376 107.25 325.415 C 112.877 302.4994 105.025 277.9122 106.1 254.2282 C 107.092 232.422 114.055 210.484 113.6 188.2961 Z "/>
  <g id="ID0.9602425838820636">
    <g id="ID0.17693647183477879">
      <path id="ID0.7729651997797191" fill="#393C40" stroke="none" stroke-linecap="round" d="M 115.9463 102.3065 L 96.6707 103.4748 L 100.1754 119.6351 L 102.9012 132.6801 L 106.6006 138.1318 L 109.9105 141.4417 L 121.9821 138.1318 L 123.345 132.4854 L 118.088 113.4046 L 115.9463 102.3065 Z " stroke-width="0.7788099050521851"/>
      <path id="ID0.9716172609478235" fill="#34373A" stroke="none" stroke-linecap="round" d="M 111.9744 107.875 L 116.6472 105.6165 L 114.856 99.386 L 97.6832 108.6538 L 100.5648 111.5354 L 105.8218 113.3267 L 111.9744 107.875 Z " stroke-width="0.7788099050521851"/>
      <g id="ID0.38066427363082767">
        <path id="ID0.4757494777441025" fill="#1D1E1F" stroke="none" stroke-linecap="round" d="M 107.0199 78.5188 L 98.8445 76.4749 L 83.6293 81.1303 L 91.464 105.4293 L 101.3426 110.1983 L 105.6573 111.2202 L 108.7231 108.9492 L 111.4482 106.1106 L 116.8984 103.6126 L 117.012 98.3894 L 116.3307 90.6683 L 113.2649 82.72 L 107.0199 78.5188 Z " stroke-width="0.4541860520839691"/>
        <path id="ID0.6007084371522069" fill="none" stroke="#0D0D0D" stroke-width="0.9083721041679382" stroke-linecap="round" d="M 116.4442 103.9532 L 111.5617 106.1106 L 107.4741 109.6305 L 105.6573 111.3337 L 101.3426 110.1983 L 97.1413 108.0409 "/>
      </g>
    </g>
    <g id="ID0.7397577832452953">
      <path id="ID0.6726378230378032" fill="#34373A" stroke="none" stroke-linecap="round" d="M 122.6609 129.7096 L 107.2015 138.3544 L 107.9803 140.535 L 123.0503 131.7345 L 122.6609 129.7096 Z " stroke-width="0.7788099050521851"/>
      <path id="ID0.6507829907350242" fill="#1D1E1F" stroke="none" stroke-linecap="round" d="M 125.8761 130.7331 L 107.7688 140.4682 L 108.1582 158.5756 L 110.1052 168.7001 L 110.1052 184.0816 L 109.5211 190.3121 L 121.0086 192.2591 L 121.2033 186.0286 L 122.9556 176.6829 L 125.6814 164.806 L 127.4337 155.655 L 125.8761 130.7331 Z " stroke-width="0.7788099050521851"/>
      <path id="ID0.6829322893172503" fill="#1D1E1F" stroke="none" stroke-linecap="round" d="M 121.398 191.8697 L 111.4681 187.0021 L 108.3529 192.2591 L 104.4588 197.9055 L 104.4588 203.3571 L 105.043 207.8353 L 106.99 210.7558 L 108.3529 217.181 L 112.8311 216.9863 L 113.9993 215.0393 L 115.5569 214.8446 L 118.6721 212.3134 L 121.9821 209.3929 L 123.9291 205.1094 L 123.1503 198.2949 L 121.398 191.8697 Z " stroke-width="0.7788099050521851"/>
      <path id="ID0.47767175547778606" fill="none" stroke="#0D0D0D" stroke-width="1.5576198101043701" stroke-linecap="round" d="M 125.8761 134.5103 L 125.6035 130.6163 L 107.8467 140.4682 L 108.1582 153.8248 "/>
      <path id="ID0.5922487881034613" fill="#282A2B" stroke="none" stroke-linecap="round" d="M 126.79 163.2553 L 120.0533 157.8815 L 114.2122 157.9594 L 108.2932 163.6447 L 109.6561 177.9359 L 114.1343 185.1398 L 117.4442 185.1398 L 123.2853 178.1306 L 126.79 163.2553 Z " stroke-width="0.7788099050521851"/>
      <path id="ID0.36820242274552584" fill="#151616" stroke="none" stroke-linecap="round" d="M 120.8687 165.757 L 112.7691 165.6791 L 115.3391 176.6603 L 116.7799 176.5824 L 120.8687 165.757 Z " stroke-width="0.7788099050521851"/>
      <path id="ID0.13569410238415003" fill="none" stroke="#232425" stroke-width="1.5576198101043701" stroke-linecap="round" d="M 121.5148 176.3324 L 116.0631 183.1859 L 111.0787 176.1767 "/>
      <path id="ID0.024502143263816833" fill="none" stroke="#0D0D0D" stroke-width="1.5576198101043701" stroke-linecap="round" d="M 126.3823 162.9369 L 120.3466 157.8746 L 114.5834 157.641 L 108.5865 163.3263 L 109.4432 171.5038 "/>
    </g>
  </g>
  <g id="ID0.13780180783942342">
    <path id="ID0.3809091211296618" fill="#393D40" stroke="none" stroke-linecap="round" d="M 77.8613 178.5837 L 103.6409 166.3405 L 106.8037 205.005 L 105.8656 215.9106 L 100.5946 233.7602 L 91.9676 236.3924 L 79.0144 237.6829 L 79.0844 216.8635 L 80.8908 205.5495 L 77.8613 178.5837 Z " stroke-width="0.7305889665074583"/>
    <g id="ID0.8669879510998726">
      <path id="ID0.5368814701214433" fill="#292D2E" stroke="none" stroke-linecap="round" d="M 75.0028 320.2777 L 77.8862 311.4477 L 82.3751 302.2008 L 92.3512 308.0588 L 103.6173 315.6939 L 121.0793 326.0362 L 122.1578 332.5518 L 97.4604 333.7307 L 76.2154 330.0644 L 75.0028 320.2777 Z " stroke-width="0.7702165290554439"/>
      <path id="ID0.05466862628236413" fill="#292D2E" stroke="none" stroke-linecap="round" d="M 77.8675 231.0085 L 104.2881 226.8915 L 99.5989 245.792 L 98.0746 250.8481 L 97.6639 268.986 L 94.8671 309.6424 L 79.2124 311.678 L 76.8049 289.5594 L 73.9893 280.9526 L 72.5645 271.5404 L 74.511 258.0124 L 74.3907 245.6918 L 77.8675 231.0085 Z " stroke-width="0.7305889665074583"/>
      <path id="ID0.4490455654449761" fill="none" stroke="#272A2B" stroke-width="1.6585523586930009" stroke-linecap="round" d="M 77.5837 231.2668 L 103.9903 226.7635 L 97.4432 251.2378 "/>
      <path id="ID0.10446935473009944" fill="none" stroke="#242728" stroke-width="1.6585523586930009" stroke-linecap="round" d="M 97.225 263.5728 L 97.225 280.4111 L 86.7496 287.8513 "/>
      <path id="ID0.42170455446466804" fill="none" stroke="#242728" stroke-width="1.6585523586930009" stroke-linecap="round" d="M 96.1338 281.5859 L 94.8244 296.662 L 84.1308 304.298 "/>
      <path id="ID0.047098892275244" fill="none" stroke="#242728" stroke-width="1.6585523586930009" stroke-linecap="round" d="M 74.6237 245.5139 L 74.1872 249.4298 L 78.7702 258.2406 "/>
    </g>
  </g>
  <g id="ID0.3168069599196315">
    <path id="ID0.3809091211296618" fill="#3E4246" stroke="none" stroke-linecap="round" d="M 52.4933 154.207 L 75.7409 167.4905 L 78.9037 206.155 L 77.9656 217.0606 L 72.6946 234.9102 L 64.0676 237.5424 L 51.1144 238.8329 L 50.4531 217.071 L 48.7148 203.7681 L 52.4933 154.207 Z " stroke-width="0.7305889665074583"/>
    <g id="ID0.38464318960905075">
      <path id="ID0.5368814701214433" fill="#303436" stroke="none" stroke-linecap="round" d="M 47.1528 321.9777 L 50.0362 313.1477 L 54.5251 303.9008 L 64.5012 309.7588 L 75.7673 317.3939 L 93.2293 327.7362 L 94.3078 334.2518 L 69.6104 335.4307 L 48.3654 331.7644 L 47.1528 321.9777 Z " stroke-width="0.7702165290554439"/>
      <path id="ID0.05466862628236413" fill="#303436" stroke="none" stroke-linecap="round" d="M 49.9675 232.1585 L 76.3881 228.0415 L 71.6989 246.942 L 70.1746 251.9981 L 69.7639 270.136 L 66.9671 310.7924 L 51.3124 312.828 L 48.9049 290.7094 L 46.0893 282.1026 L 44.6645 272.6904 L 46.611 259.1624 L 46.4907 246.8418 L 49.9675 232.1585 Z " stroke-width="0.7305889665074583"/>
      <path id="ID0.4490455654449761" fill="none" stroke="#272A2B" stroke-width="1.6585523586930009" stroke-linecap="round" d="M 49.7837 233.0168 L 76.1903 228.5135 L 69.6432 252.9878 "/>
      <path id="ID0.10446935473009944" fill="none" stroke="#242728" stroke-width="1.6585523586930009" stroke-linecap="round" d="M 69.425 265.3228 L 69.425 282.1611 L 58.9496 289.6013 "/>
      <path id="ID0.42170455446466804" fill="none" stroke="#242728" stroke-width="1.6585523586930009" stroke-linecap="round" d="M 68.3338 283.3359 L 67.0244 298.412 L 56.3308 306.048 "/>
      <path id="ID0.047098892275244" fill="none" stroke="#242728" stroke-width="1.6585523586930009" stroke-linecap="round" d="M 46.8237 247.2139 L 46.3872 251.1298 L 50.9702 259.9406 "/>
    </g>
  </g>
  <g id="ID0.9602425838820636">
    <g id="ID0.17693647183477879">
      <path id="ID0.7729651997797191" fill="#3E4246" stroke="none" stroke-linecap="round" d="M 30.0372 101.5533 L 50.2446 102.778 L 46.5705 119.7196 L 43.7129 133.3953 L 39.8347 139.1105 L 36.3647 142.5804 L 23.7096 139.1105 L 22.2808 133.1911 L 27.7919 113.1879 L 30.0372 101.5533 Z " stroke-width="0.816459596157074"/>
      <path id="ID0.9716172609478235" fill="#393C40" stroke="none" stroke-linecap="round" d="M 34.2011 107.391 L 29.3024 105.0233 L 31.1802 98.4916 L 49.1832 108.2075 L 46.1623 111.2284 L 40.6512 113.1062 L 34.2011 107.391 Z " stroke-width="0.816459596157074"/>
      <g id="ID0.38066427363082767">
        <path id="ID0.4757494777441025" fill="#1D1E1F" stroke="none" stroke-linecap="round" d="M 39.4163 76.5422 L 47.9869 74.3996 L 63.9377 79.28 L 55.7242 104.7536 L 45.3681 109.7531 L 40.8447 110.8245 L 37.6308 108.4438 L 34.7739 105.4679 L 29.0602 102.8491 L 28.9412 97.3734 L 29.6554 89.279 L 32.8693 80.9465 L 39.4163 76.5422 Z " stroke-width="0.476142555475235"/>
        <path id="ID0.6007084371522069" fill="none" stroke="#0D0D0D" stroke-width="0.95228511095047" stroke-linecap="round" d="M 29.5364 103.2062 L 34.6549 105.4679 L 38.9402 109.158 L 40.8447 110.9435 L 45.3681 109.7531 L 49.7724 107.4915 "/>
      </g>
    </g>
    <g id="ID0.7397577832452953">
      <path id="ID0.6726378230378032" fill="#393C40" stroke="none" stroke-linecap="round" d="M 22.9432 130.1835 L 39.1499 139.2462 L 38.3334 141.5323 L 22.5349 132.3063 L 22.9432 130.1835 Z " stroke-width="0.816459596157074"/>
      <path id="ID0.6507829907350242" fill="#1D1E1F" stroke="none" stroke-linecap="round" d="M 19.6273 131.3541 L 38.61 141.5599 L 38.2018 160.5425 L 36.1606 171.1565 L 36.1606 187.2816 L 36.773 193.8133 L 24.7302 195.8544 L 24.5261 189.3227 L 22.689 179.5252 L 19.8314 167.0742 L 17.9944 157.4808 L 19.6273 131.3541 Z " stroke-width="0.816459596157074"/>
      <path id="ID0.6829322893172503" fill="#1D1E1F" stroke="none" stroke-linecap="round" d="M 24.322 195.4462 L 34.7318 190.3433 L 37.9977 195.8544 L 42.08 201.7738 L 42.08 207.489 L 41.4676 212.1836 L 39.4265 215.2453 L 37.9977 221.9811 L 33.303 221.777 L 32.0783 219.7359 L 30.4454 219.5317 L 27.1796 216.8783 L 23.7096 213.8165 L 21.6685 209.326 L 22.4849 202.182 L 24.322 195.4462 Z " stroke-width="0.816459596157074"/>
      <path id="ID0.47767175547778606" fill="none" stroke="#0D0D0D" stroke-width="1.632919192314148" stroke-linecap="round" d="M 19.6273 135.3139 L 19.9131 131.2316 L 38.5284 141.5599 L 38.2018 155.5621 "/>
      <path id="ID0.5922487881034613" fill="#282A2B" stroke="none" stroke-linecap="round" d="M 18.6137 165.3438 L 25.6761 159.7102 L 31.7995 159.7919 L 38.0046 165.752 L 36.5758 180.7341 L 31.8812 188.2863 L 28.4112 188.2863 L 22.2878 180.9382 L 18.6137 165.3438 Z " stroke-width="0.816459596157074"/>
      <path id="ID0.36820242274552584" fill="#151616" stroke="none" stroke-linecap="round" d="M 24.9058 168.109 L 33.397 168.0274 L 30.7027 179.5395 L 29.1922 179.4578 L 24.9058 168.109 Z " stroke-width="0.816459596157074"/>
      <path id="ID0.13569410238415003" fill="none" stroke="#232425" stroke-width="1.632919192314148" stroke-linecap="round" d="M 24.1995 179.1578 L 29.9147 186.3427 L 35.1401 178.9945 "/>
      <path id="ID0.024502143263816833" fill="none" stroke="#0D0D0D" stroke-width="1.632919192314148" stroke-linecap="round" d="M 19.0966 165.1147 L 25.4242 159.8077 L 31.466 159.5628 L 37.7527 165.5229 L 36.8546 174.0958 "/>
    </g>
  </g>
  <g id="ID0.9157347986474633">
    <path id="ID0.7477802094072104" fill="#363A3D" stroke="none" stroke-linecap="round" d="M 107.1154 124.4715 L 87.6382 120.9715 L 86.7831 162.1489 L 103.2591 171.4206 L 106.0532 146.952 L 107.1154 124.4715 Z " stroke-width="0.47614257300029306"/>
    <path id="ID0.7477802094072104" fill="#363A3D" stroke="none" stroke-linecap="round" d="M 46.7831 123.2358 L 70.2874 120.8664 L 69.4323 162.0439 L 52.5855 170.6236 L 47.6325 145.3988 L 46.7831 123.2358 Z " stroke-width="0.47614257300029306"/>
    <path id="ID0.4270821204409003" fill="#3E4246" stroke="none" stroke-linecap="round" d="M 47.5179 103.1385 L 51.5858 90.7215 L 53.968 84.937 L 60.6594 78.0513 L 91.6913 80.1245 L 98.505 84.5522 L 101.2772 88.6578 L 108.0615 100.2286 L 107.13 110.6866 L 106.0642 116.1413 L 107.587 123.0785 L 107.9494 128.5629 L 105.6639 135.421 L 103.9366 140.6238 L 102.5537 149.8818 L 103.5985 171.8108 L 98.2868 179.9158 L 93.3736 186.0287 L 81.1457 191.204 L 69.6169 187.9404 L 65.8289 181.1467 L 61.0115 174.6174 L 52.5309 171.3457 L 51.9148 145.9728 L 50.8631 139.2835 L 46.5303 127.7637 L 45.4461 116.9066 L 47.5179 103.1385 Z " stroke-width="0.47614257300029306"/>
    <path id="ID0.052435632329434156" fill="#393C40" stroke="none" stroke-linecap="round" d="M 58.6176 153.3064 L 63.0676 153.4464 L 69.5926 156.868 L 74.6659 156.8067 L 80.5079 158.7139 L 84.7193 157.7298 L 86.3953 157.2884 L 100.6758 154.1797 L 100.9646 157.4718 L 92.3094 161.4592 L 86.3653 161.0263 L 80.7086 163.9568 L 74.1172 160.2957 L 67.6817 160.5907 L 57.883 156.5772 L 58.6176 153.3064 Z " stroke-width="0.47614257300029306"/>
    <path id="ID0.4987568911164999" fill="none" stroke="#27282B" stroke-width="0.9522851460005861" stroke-linecap="round" d="M 60.4282 78.7223 L 53.8732 84.7774 L 50.3333 94.705 "/>
    <path id="ID0.2889464790932834" fill="none" stroke="#27282B" stroke-width="0.9522851460005861" stroke-linecap="round" d="M 93.0073 80.8276 L 98.6407 84.7545 L 104.1604 94.1559 "/>
    <path id="ID0.8373676878400147" fill="#000000" stroke="#2C2F31" stroke-width="0.6155104186945868" stroke-linecap="round" d="M 63.7718 91.8289 L 64.1477 90.3053 L 60.4906 91.1437 L 55.5712 94.3904 L 51.345 99.3623 L 48.7859 104.9474 L 53.9649 102.7905 L 58.6638 102.7687 L 61.3933 103.7374 L 63.8766 106.7745 L 65.9998 105.7908 L 70.0137 105.5844 L 74.5076 106.7087 L 78.2907 109.9577 L 80.3094 113.0511 L 82.5215 110.069 L 86.2778 107.0016 L 90.42 105.6457 L 95.5766 105.7213 L 97.3974 106.3414 L 99.1518 103.2619 L 101.1315 102.0408 L 103.7243 102.6183 L 106.4998 104.2822 L 105.1302 100.4475 L 102.9186 96.4983 L 100.1278 93.4475 L 96.9954 91.1516 L 92.4947 90.1811 L 94.6416 92.125 L 94.5629 93.8928 L 92.9298 95.9766 L 89.336 97.1258 L 86.1675 97.3698 L 83.5473 97.4072 L 81.0914 93.7552 L 80.6147 95.8134 L 79.1543 95.7484 L 77.6463 93.2938 L 76.6126 97.4836 L 72.5286 97.5328 L 68.4156 96.5025 L 65.0919 95.0453 L 63.7718 91.8289 Z "/>
    <path id="ID0.5698574706912041" fill="none" stroke="#313537" stroke-width="0.9522851460005861" stroke-linecap="round" d="M 58.5497 153.1383 L 57.8879 156.3392 L 67.6792 160.7097 L 74.4702 160.4935 L 80.473 163.8328 "/>
    <path id="ID0.5698574706912041" fill="none" stroke="#313537" stroke-width="0.8933066257048137" stroke-linecap="round" d="M 100.4201 154.2278 L 100.8721 157.4518 L 92.1747 161.4384 L 86.2685 160.9586 L 80.9108 164.0619 "/>
    <path id="ID0.8947288258932531" fill="#393C40" stroke="none" stroke-linecap="round" d="M 60.1069 141.2169 L 67.131 141.2437 L 74.6367 143.3045 L 80.1869 148.9442 L 73.1848 144.4173 L 62.4575 142.6944 L 57.2773 145.611 L 60.1069 141.2169 Z " stroke-width="0.47614257300029306"/>
    <path id="ID0.8947288258932531" fill="#393C40" stroke="none" stroke-linecap="round" d="M 98.8687 143.0222 L 92.657 142.7878 L 85.9447 144.3343 L 80.8299 149.1171 L 87.1875 145.3716 L 96.7361 144.2423 L 101.2093 147.0115 L 98.8687 143.0222 Z " stroke-width="0.4213738884176943"/>
    <path id="ID0.9897695370018482" fill="#393C40" stroke="none" stroke-linecap="round" d="M 63.3037 153.5466 L 56.768 152.9346 L 57.2928 148.3021 L 58.4103 151.8257 L 63.5009 152.0743 L 69.5692 155.7007 L 75.0511 155.4574 L 79.1153 156.9705 L 80.659 149.1445 L 80.6933 158.9559 L 75.1414 156.8403 L 69.2623 156.7183 L 63.3037 153.5466 Z " stroke-width="0.47614257300029306"/>
    <path id="ID0.9897695370018482" fill="#393C40" stroke="none" stroke-linecap="round" d="M 95.6103 154.4693 L 101.155 154.1415 L 100.8823 149.8173 L 99.8083 153.0505 L 95.4979 153.0939 L 90.237 156.2401 L 85.6142 155.8119 L 82.1244 157.0682 L 81.1086 149.7389 L 80.7179 158.855 L 85.4868 157.0937 L 90.4588 157.197 L 95.6103 154.4693 Z " stroke-width="0.4232251205631144"/>
    <path id="ID0.3524594851769507" fill="#393C40" stroke="none" stroke-linecap="round" d="M 74.4472 119.0607 L 80.3046 121.3731 L 84.804 119.1329 L 81.5593 122.8755 L 82.28 134.0346 L 91.3664 133.366 L 80.867 136.7199 L 69.3014 131.7887 L 78.9468 134.013 L 78.7764 122.7225 L 74.4472 119.0607 Z " stroke-width="0.47614257300029306"/>
    <path id="ID0.9214867809787393" fill="#393C40" stroke="none" stroke-linecap="round" d="M 60.1875 137.3371 L 63.2502 133.186 L 68.0304 132.3327 L 62.1001 136.972 L 61.8012 139.8947 L 66.8463 140.0471 L 74.9436 143.4299 L 66.0098 141.3394 L 60.1545 141.2178 L 60.1875 137.3371 Z " stroke-width="0.47614257300029306"/>
    <path id="ID0.9214867809787393" fill="#393C40" stroke="none" stroke-linecap="round" d="M 98.622 138.9159 L 95.9825 134.8388 L 91.6446 133.8397 L 96.8873 138.4935 L 97.0471 141.292 L 92.428 141.2415 L 85.7251 143.9429 L 93.1427 142.5062 L 98.5015 142.6175 L 98.622 138.9159 Z " stroke-width="0.4451788453890468"/>
    <path id="ID0.8679121839813888" fill="#2C2F31" stroke="none" stroke-linecap="round" d="M 76.4241 118.0054 L 80.1988 119.703 L 83.5652 118.1299 L 84.4975 119.1017 L 80.5148 121.686 L 74.8012 119.329 L 76.4241 118.0054 Z " stroke-width="0.47614257300029306"/>
    <path id="ID0.24770551454275846" fill="none" stroke="#313537" stroke-width="0.9522851460005861" stroke-linecap="round" d="M 80.4959 116.1296 L 85.0631 119.7963 L 92.5509 120.4281 L 100.1898 119.5151 L 105.5053 115.8156 "/>
    <path id="ID0.20603158557787538" fill="none" stroke="#313537" stroke-width="0.9522851460005861" stroke-linecap="round" d="M 47.2476 111.4286 L 54.158 116.9298 L 66.4683 120.4001 L 73.7403 119.9558 L 80.0103 116.157 "/>
    <g id="ID0.5272086253389716">
      <path id="ID0.24770551454275846" fill="none" stroke="#363A3D" stroke-width="0.9522850864087884" stroke-linecap="round" d="M 49.9879 144.0256 L 59.9553 141.0655 "/>
      <path id="ID0.24770551454275846" fill="none" stroke="#363A3D" stroke-width="0.9522850864087884" stroke-linecap="round" d="M 47.6542 132.0538 L 68.2053 126.2655 "/>
    </g>
    <g id="ID0.5272086253389716">
      <path id="ID0.24770551454275846" fill="none" stroke="#363A3D" stroke-width="0.9522850864087884" stroke-linecap="round" d="M 105.4797 144.2318 L 98.5807 142.2557 "/>
      <path id="ID0.24770551454275846" fill="none" stroke="#363A3D" stroke-width="0.9522850864087884" stroke-linecap="round" d="M 106.2029 132.8424 L 92.4298 127.7945 "/>
    </g>
    <g id="ID0.7887678607366979">
      <path id="ID0.753661650698632" fill="none" stroke="#313537" stroke-width="0.9522850864087884" stroke-linecap="round" d="M 74.9207 119.1896 L 80.1078 121.6786 L 84.2085 119.1444 "/>
      <g id="ID0.8167418288066983">
        <path id="ID0.9553722990676761" fill="none" stroke="#313537" stroke-width="1.0409107743576298" stroke-linecap="round" d="M 80.4063 136.5479 L 74.8392 134.2892 L 68.706 132.2569 L 63.9163 133.1099 L 60.3201 137.3214 L 60.2484 140.7727 "/>
        <path id="ID0.5982440118677914" fill="none" stroke="#313537" stroke-width="0.8540413396238158" stroke-linecap="round" d="M 69.0334 131.8556 L 67.9532 126.5387 L 73.3362 119.5913 "/>
      </g>
      <g id="ID0.7324484633281827">
        <path id="ID0.04993448918685317" fill="none" stroke="#313537" stroke-width="0.9522850864087884" stroke-linecap="round" d="M 80.1102 121.5595 L 80.6068 132.0472 L 80.7418 148.4805 L 80.6413 164.7898 "/>
        <g id="ID0.8167418288066983">
          <path id="ID0.9553722990676761" fill="none" stroke="#313537" stroke-width="0.9699703077304642" stroke-linecap="round" d="M 80.7502 136.4275 L 85.8128 135.1754 L 91.2815 133.384 L 95.457 134.4232 L 98.4528 138.7716 L 98.3811 142.2229 "/>
          <path id="ID0.5982440118677914" fill="none" stroke="#313537" stroke-width="0.7916616152166959" stroke-linecap="round" d="M 91.0361 133.0336 L 92.1927 127.7632 L 87.7336 120.6113 "/>
          <path id="ID0.3567589442245662" fill="none" stroke="#313537" stroke-width="0.8967655150693851" stroke-linecap="round" d="M 80.6263 149.1264 L 85.8586 144.2583 L 93.2253 142.5063 L 98.7521 142.6211 L 100.8958 147.309 L 101.0431 154.3367 L 95.4805 154.9355 L 89.7638 157.9124 L 84.8491 157.5722 L 80.6031 159.3176 L 74.8142 156.6971 L 69.2197 156.819 L 62.8569 153.5913 L 56.5704 152.7464 L 57.0511 145.7318 L 59.7016 141.1434 L 65.982 141.2738 L 74.2746 143.351 L 79.9911 148.4465 Z "/>
        </g>
      </g>
    </g>
    <g id="ID0.9312638868577778">
      <path id="ID0.2888958193361759" fill="#393C40" stroke="none" stroke-linecap="round" d="M 60.9592 161.4331 L 71.1308 163.729 L 70.4755 166.6319 L 60.3039 164.3359 L 60.9592 161.4331 Z " stroke-width="0.4761425459216224"/>
      <path id="ID0.2888958193361759" fill="#393C40" stroke="none" stroke-linecap="round" d="M 50.2081 159.1286 L 61.6308 161.829 L 60.9755 164.7319 L 50.8039 162.4359 L 50.2081 159.1286 Z " stroke-width="0.4761425459216224"/>
      <g id="ID0.36424446757882833">
        <path id="ID0.7359844641759992" fill="#8A7B59" stroke="none" d="M 63.8379 160.7806 L 65.3612 160.8122 L 65.2318 167.0484 L 63.7084 167.0167 L 63.8379 160.7806 Z " stroke-width="0.4761425432043942"/>
        <path id="ID0.7359844641759992" fill="#8A7B59" stroke="none" d="M 61.9879 160.3306 L 63.5112 160.3622 L 63.3818 166.5984 L 61.8584 166.5667 L 61.9879 160.3306 Z " stroke-width="0.4761425432043942"/>
        <path id="ID0.7359844641759992" fill="#8A7B59" stroke="none" d="M 60.0379 159.6306 L 61.5612 159.6622 L 61.4318 165.8984 L 59.9084 165.8667 L 60.0379 159.6306 Z " stroke-width="0.4761425432043942"/>
        <path id="ID0.7359844641759992" fill="#8A7B59" stroke="none" d="M 65.7379 161.3306 L 67.2612 161.3622 L 67.1318 167.5984 L 65.6084 167.5667 L 65.7379 161.3306 Z " stroke-width="0.4761425432043942"/>
      </g>
      <g id="ID0.1049797898158431">
        <path id="ID0.08871637750416994" fill="#8A7B59" stroke="none" stroke-linecap="round" d="M 51.9895 158.5074 L 58.3705 159.6877 L 58.2067 165.2801 L 52.0643 164.081 L 51.9895 158.5074 Z " stroke-width="0.4761425432043942"/>
        <path id="ID0.13805592898279428" fill="#76694C" stroke="none" stroke-linecap="round" d="M 51.7978 158.2378 L 58.4882 159.4245 L 58.5236 162.3065 L 51.8114 161.0241 L 51.7978 158.2378 Z " stroke-width="0.4761425432043942"/>
        <path id="ID0.3221200187690556" fill="#61563F" stroke="none" stroke-linecap="round" d="M 54.55 160.489 L 55.4208 160.8689 L 55.4618 162.6272 L 54.5129 162.2716 L 54.55 160.489 Z " stroke-width="0.5167888865886084"/>
        <path id="ID0.1420820001512766" fill="#BAA578" stroke="none" stroke-linecap="round" d="M 57.5518 164.3318 L 58.2956 162.9185 L 58.2952 165.2283 L 52.056 164.0986 L 57.5518 164.3318 Z " stroke-width="0.4761425432043942"/>
      </g>
      <path id="ID0.2888958193361759" fill="#393C40" stroke="none" stroke-linecap="round" d="M 98.5902 162.6025 L 91.1307 164.2611 L 91.5102 166.806 L 98.9697 165.1474 L 98.5902 162.6025 Z " stroke-width="0.3810469777360591"/>
      <path id="ID0.2888958193361759" fill="#393C40" stroke="none" stroke-linecap="round" d="M 105.1651 160.9157 L 98.1307 162.7111 L 98.5102 165.256 L 104.6833 163.8204 L 105.1651 160.9157 Z " stroke-width="0.3810469777360591"/>
      <path id="ID0.7359844641759992" fill="#8A7B59" stroke="none" d="M 96.5701 161.5255 L 95.4633 161.5025 L 95.3506 166.9273 L 96.4574 166.9503 L 96.5701 161.5255 Z " stroke-width="0.3816027988624045"/>
      <path id="ID0.7359844641759992" fill="#8A7B59" stroke="none" d="M 97.9701 161.0755 L 96.8633 161.0525 L 96.7506 166.4773 L 97.8574 166.5003 L 97.9701 161.0755 Z " stroke-width="0.3816027988624045"/>
      <path id="ID0.7359844641759992" fill="#8A7B59" stroke="none" d="M 99.4701 160.6255 L 98.3633 160.6025 L 98.2506 166.0273 L 99.3574 166.0503 L 99.4701 160.6255 Z " stroke-width="0.3816027988624045"/>
      <path id="ID0.7359844641759992" fill="#8A7B59" stroke="none" d="M 95.1201 162.0755 L 94.0133 162.0525 L 93.9006 167.4773 L 95.0074 167.5003 L 95.1201 162.0755 Z " stroke-width="0.3816027988624045"/>
      <g id="ID0.1049797898158431">
        <path id="ID0.08871637750416994" fill="#8A7B59" stroke="none" stroke-linecap="round" d="M 105.4077 159.8854 L 100.4448 160.7507 L 100.3742 165.9213 L 105.1538 165.0302 L 105.4077 159.8854 Z " stroke-width="0.40545296430512573"/>
        <path id="ID0.13805592898279428" fill="#76694C" stroke="none" stroke-linecap="round" d="M 105.6523 159.6886 L 100.4505 160.549 L 100.3217 163.2094 L 105.5437 162.2614 L 105.6523 159.6886 Z " stroke-width="0.40545296430512573"/>
        <path id="ID0.3221200187690556" fill="#61563F" stroke="none" stroke-linecap="round" d="M 103.5299 161.6428 L 102.8449 161.963 L 102.7513 163.5854 L 103.4957 163.2903 L 103.5299 161.6428 Z " stroke-width="0.4400648059527854"/>
        <path id="ID0.1420820001512766" fill="#BAA578" stroke="none" stroke-linecap="round" d="M 100.9982 165.1103 L 100.4743 163.7788 L 100.3933 165.912 L 105.245 165.0884 L 100.9982 165.1103 Z " stroke-width="0.40545296430512573"/>
      </g>
      <g id="ID0.6836685389280319">
        <path id="ID0.09357938077300787" fill="#857656" stroke="none" d="M 71.7247 160.9089 L 89.6952 161.2821 L 89.5618 167.7086 L 71.5913 167.3354 L 71.7247 160.9089 Z " stroke-width="0.42833206411122815"/>
        <path id="ID0.6492703901603818" fill="#7C6E50" stroke="none" stroke-linecap="round" d="M 72.3684 163.093 L 80.5158 166.3578 L 89.4106 163.4469 L 89.3221 167.7075 L 72.2799 167.3536 L 72.3684 163.093 Z " stroke-width="0.4761425432043942"/>
        <g id="ID0.9254062357358634">
          <g id="ID0.49943465692922473">
            <path id="ID0.140373723115772" fill="#968561" stroke="none" d="M 88.1906 160.0517 L 93.308 160.1579 L 93.1202 169.2027 L 88.0028 169.0964 L 88.1906 160.0517 Z " stroke-width="0.4761425432043942"/>
            <path id="ID0.8286363878287375" fill="#BAA578" stroke="none" stroke-linecap="round" d="M 88.1728 159.8742 L 93.4043 160.221 L 89.2469 160.8966 L 88.1789 163.0176 L 88.1728 159.8742 Z " stroke-width="0.4761425432043942"/>
            <path id="ID0.7362233307212591" fill="#8A7B59" stroke="none" stroke-linecap="round" d="M 88.07 165.968 L 90.7825 166.072 L 93.2845 163.6951 L 93.1683 169.2885 L 88.0033 169.1813 L 88.07 165.968 Z " stroke-width="0.4761425432043942"/>
          </g>
          <g id="ID0.49943465692922473">
            <path id="ID0.140373723115772" fill="#968561" stroke="none" d="M 73.1483 159.9906 L 68.0309 159.8843 L 67.8431 168.9291 L 72.9605 169.0354 L 73.1483 159.9906 Z " stroke-width="0.4761425432043942"/>
            <path id="ID0.8286363878287375" fill="#BAA578" stroke="none" stroke-linecap="round" d="M 73.2093 159.8013 L 67.9679 159.9306 L 72.0936 160.7782 L 73.0726 162.9417 L 73.2093 159.8013 Z " stroke-width="0.4761425432043942"/>
            <path id="ID0.7362233307212591" fill="#8A7B59" stroke="none" stroke-linecap="round" d="M 73.0589 165.8941 L 70.3445 165.8854 L 67.9433 163.4066 L 67.8272 169.0001 L 72.9922 169.1074 L 73.0589 165.8941 Z " stroke-width="0.4761425432043942"/>
          </g>
        </g>
      </g>
    </g>
  </g>
  <g id="ID0.8333355090580881">
    <path id="ID0.9286923445761204" fill="#27282B" stroke="none" stroke-linecap="round" d="M 66.863 44.1601 L 85.6707 45.6361 L 86.1468 69.9908 L 101.3834 77.1329 L 78.5285 88.4889 L 41.8656 75.9426 L 61.7445 65.3484 L 66.863 44.1601 Z " stroke-width="0.4761425852775574"/>
    <path id="ID0.5448851804248989" fill="none" stroke="#1D1E1F" stroke-width="0.9522851705551147" stroke-linecap="round" d="M 63.1729 59.5871 L 61.935 65.158 L 79.0285 73.0143 L 85.8611 70.086 "/>
    <path id="ID0.262191956397146" fill="none" stroke="#1D1E1F" stroke-width="0.9522851705551147" stroke-linecap="round" d="M 65.9346 64.539 L 78.6476 70.7288 L 81.6473 69.6099 "/>
  </g>
  <g id="ID0.3450673264451325">
    <g id="ID0.9831569031812251">
      <path id="ID0.0877610077150166" fill="#2E3034" stroke="none" stroke-linecap="round" d="M 89.7251 13.3343 L 85.1527 0.2177 L 85.1527 28.7463 L 92.8241 28.7463 L 89.7251 13.3343 Z " stroke-width="0.5866066539949776"/>
      <path id="ID0.796130308881402" fill="#242628" stroke="none" stroke-linecap="round" d="M 90.033 13.3789 L 85.105 0.2623 L 88.6613 14.1004 L 89.6012 28.9877 L 92.7764 28.6926 L 90.033 13.3789 Z " stroke-width="0.5866066539949776"/>
    </g>
    <g id="ID0.9831569031812251">
      <path id="ID0.0877610077150166" fill="#2E3034" stroke="none" stroke-linecap="round" d="M 65.8249 13.4843 L 70.3973 0.3677 L 70.3973 28.8963 L 62.7259 28.8963 L 65.8249 13.4843 Z " stroke-width="0.5866066539949776"/>
      <path id="ID0.796130308881402" fill="#242628" stroke="none" stroke-linecap="round" d="M 65.417 13.5289 L 70.345 0.4123 L 66.7887 14.2504 L 65.6964 28.8098 L 62.6736 28.8426 L 65.417 13.5289 Z " stroke-width="0.5866066539949776"/>
    </g>
    <path id="ID0.8999492498114705" fill="#2E3034" stroke="none" stroke-linecap="round" d="M 83.3733 19.3124 C 87.7775 19.7915 92.5093 22.5019 94.6416 26.3848 C 97.0745 30.8179 95.1267 36.4165 95.4265 41.412 C 95.5997 43.1155 96.3923 44.8682 96.0615 46.4924 C 95.3879 49.7962 93.7139 52.8251 92.6323 56.0181 C 91.9236 58.1107 91.7691 60.4655 90.6001 62.3686 C 89.2843 64.6212 87.9416 67.7553 85.3419 68.211 C 81.488 68.8862 77.4115 67.0451 73.9619 65.2898 C 71.1281 63.8475 68.4746 61.6355 66.9002 58.8631 C 64.0806 53.7182 61.5196 48.0582 61.134 42.1741 C 60.7067 35.6514 59.9365 27.5853 64.6902 22.8687 C 68.9425 18.3273 76.8262 18.6032 83.3733 19.3124 Z " stroke-width="0.508037269115448"/>
    <path id="ID0.2441388238221407" fill="#AB8E85" stroke="none" d="M 81.0438 44.1745 C 85.1241 44.3416 90.5631 41.1768 93.2883 43.9234 C 95.7434 46.5142 92.3753 51.3755 91.4045 54.8492 C 90.4375 58.304 89.7493 62.0426 87.5114 64.8959 C 86.4439 66.1643 84.2186 66.2359 82.488 65.9634 C 79.3761 65.4698 76.3143 64.1864 73.7198 62.3955 C 71.0348 60.5432 67.487 58.5137 66.9156 55.2887 C 66.1923 51.2035 66.8566 45.8084 70.0552 43.2327 C 72.9889 40.9834 77.3743 44.0238 81.0438 44.1745 Z " stroke-width="1.2558400630950928"/>
    <path id="ID0.46721756737679243" fill="#A2887F" stroke="none" stroke-linecap="round" d="M 66.4363 45.2953 L 68.1129 45.9812 L 94.1244 45.6001 L 86.9102 50.6805 L 70.1704 48.2165 L 71.2881 50.6043 L 71.5421 56.2181 L 75.1746 63.4068 L 70.6023 56.7261 L 66.4363 45.2953 Z " stroke-width="0.508037269115448"/>
    <path id="ID0.8256730306893587" fill="none" stroke="#937B73" stroke-width="1.016074538230896" stroke-linecap="round" d="M 77.3886 57.0778 C 77.3886 57.0778 80.0878 56.4813 81.4529 56.2903 C 81.7943 56.2425 82.1326 56.3203 82.4689 56.3665 C 82.8109 56.4138 83.1401 56.5814 83.485 56.5697 C 84.1688 56.5469 84.8379 56.3497 85.5172 56.2649 C 85.854 56.2227 86.1939 56.1846 86.5332 56.1887 C 86.8731 56.1928 87.2181 56.2131 87.5493 56.2903 C 88.0939 56.4173 89.1496 56.7983 89.1496 56.7983 "/>
    <path id="ID0.7592270169407129" fill="none" stroke="#937B73" stroke-width="1.016074538230896" stroke-linecap="round" d="M 85.9693 58.4019 C 85.9693 58.4019 85.3475 58.7468 85.004 58.8083 C 84.6708 58.8682 84.3248 58.7235 83.988 58.7575 C 83.6491 58.792 83.3351 58.9688 82.9973 59.0115 C 82.6615 59.0542 82.3109 59.0867 81.9812 59.0115 C 81.7008 58.9475 81.2192 58.6051 81.2192 58.6051 "/>
    <path id="ID0.5332203092984855" fill="none" stroke="#937B73" stroke-width="1.016074538230896" stroke-linecap="round" d="M 80.0009 48.9532 C 80.0009 48.9532 79.3954 49.385 79.2897 49.7152 C 79.1525 50.1577 78.898 51.0026 79.3405 51.3156 C 79.9212 51.6056 80.6797 50.8786 81.3726 50.9345 C 82.0433 50.9914 83.354 51.4426 83.354 51.4426 "/>
    <path id="ID0.2278452254831791" fill="none" stroke="#937B73" stroke-width="1.016074538230896" stroke-linecap="round" d="M 84.3447 45.2953 C 84.3447 45.2953 85.2789 47.1578 85.7418 48.0895 C 85.8967 48.4015 86.0674 48.7073 86.199 49.0294 C 86.3306 49.3515 86.5429 49.6726 86.5292 50.0201 C 86.5155 50.3686 86.3092 50.6907 86.1228 50.9853 C 85.9983 51.1824 85.6148 51.468 85.6148 51.468 "/>
    <path id="ID0.6473136460408568" fill="none" stroke="#937B73" stroke-width="1.016074563998663" stroke-linecap="round" d="M 84.6945 62.2247 C 84.6945 62.2247 85.0113 62.8595 85.0622 63.2041 C 85.1113 63.5396 85.0513 63.8871 84.9877 64.2203 C 84.8923 64.7223 84.5871 65.7015 84.5871 65.7015 "/>
    <path id="ID0.11669129692018032" fill="#2E3034" stroke="none" stroke-linecap="round" d="M 68.3669 39.9609 L 91.6096 41.739 L 95.5469 44.4062 L 86.1482 49.1056 L 65.4457 46.5654 L 68.3669 39.9609 Z " stroke-width="0.508037269115448"/>
    <path id="ID0.14635155349969864" fill="#2E3034" stroke="none" stroke-linecap="round" d="M 65.6997 45.2191 L 67.554 45.6001 L 70.1958 50.8075 L 70.5006 56.5737 L 72.3296 60.384 L 75.2254 63.9149 L 66.9952 58.7075 L 65.6997 45.2191 Z " stroke-width="0.508037269115448"/>
    <path id="ID0.28340246016159654" fill="#1C1D1F" stroke="none" stroke-linecap="round" d="M 68.5308 36.8008 L 71.9604 38.3401 L 81.6283 39.2313 L 81.6283 44.9834 L 74.688 44.0382 L 70.8262 42.958 L 68.8008 41.4457 L 67.9367 39.7174 L 68.5308 36.8008 Z " stroke-width="0.5401026606559753"/>
    <path id="ID0.6101007834076881" fill="#FFFFFF" stroke="none" stroke-linecap="round" d="M 72.3473 39.3334 L 74.0001 39.7332 L 77.78 40.9344 L 78.3247 42.9027 L 73.07 41.4498 L 72.3473 39.3334 Z " stroke-width="0.4061061920009203"/>
    <path id="ID0.28340246016159654" fill="#1C1D1F" stroke="none" stroke-linecap="round" d="M 94.1357 36.8586 L 91.0774 38.2313 L 82.4563 39.0259 L 82.4563 44.1553 L 88.6452 43.3124 L 92.0888 42.3492 L 93.8949 41.0006 L 94.6655 39.4594 L 94.1357 36.8586 Z " stroke-width="0.4816249907016754"/>
    <path id="ID0.6101007834076881" fill="#FFFFFF" stroke="none" stroke-linecap="round" d="M 92.4526 38.9089 L 90.9112 39.4003 L 87.4053 40.7963 L 87.0217 42.7012 L 91.9101 40.9663 L 92.4526 38.9089 Z " stroke-width="0.3863867372519633"/>
    <g id="ID0.07940126257017255">
      <path id="ID0.46257128613069654" fill="#27282B" stroke="none" stroke-linecap="round" d="M 81.8045 39.0743 L 86.1482 49.0318 L 76.1145 47.7617 L 81.8045 39.0743 Z " stroke-width="0.508037269115448"/>
      <path id="ID0.9845890481956303" fill="#27282B" stroke="none" stroke-linecap="round" d="M 82.6173 39.1989 L 90.8983 46.5654 L 86.2244 49.1056 L 82.6173 39.1989 Z " stroke-width="0.508037269115448"/>
    </g>
    <path id="ID0.20071752788498998" fill="#202324" stroke="none" d="M 73.3686 34.5018 L 77.5091 37.0673 L 82.2593 38.2358 L 82.3355 39.6329 L 74.5625 38.3628 L 68.6693 36.0259 L 70.3966 34.2477 L 73.3686 34.5018 Z " stroke-width="0.508037269115448"/>
    <path id="ID0.20071752788498998" fill="#202324" stroke="none" d="M 90.4242 34.2614 L 87.3713 36.7084 L 82.1277 38.2698 L 82.0578 39.5516 L 89.1891 38.3864 L 94.6191 36.3588 L 93.081 34.1216 L 90.4242 34.2614 Z " stroke-width="0.46609798073768616"/>
    <path id="ID0.521138689480722" fill="none" stroke="#212325" stroke-width="0.9060627222061157" stroke-linecap="round" d="M 94.2139 36.5742 L 90.9747 38.1598 L 82.4351 39.4057 "/>
    <path id="ID0.17828734638169408" fill="none" stroke="#202324" stroke-width="1.016074538230896" stroke-linecap="round" d="M 86.0466 48.5467 L 83.1254 41.3072 C 82.1245 38.8879 82.2729 39.4564 82.0839 38.4876 C 82.0179 38.1493 82.2358 37.8129 82.2871 37.4715 C 82.3374 37.1352 82.4014 36.7953 82.3887 36.4555 C 82.376 36.112 82.2769 35.7762 82.2109 35.4394 C 82.1078 34.9136 81.8807 33.8645 81.8807 33.8645 "/>
    <path id="ID0.521138689480722" fill="none" stroke="#212325" stroke-width="1.016074538230896" stroke-linecap="round" d="M 68.8068 36.3055 L 72.4392 38.0836 L 82.0157 39.4807 "/>
    <path id="ID0.8012696979567409" fill="none" stroke="url(#grad_1)" stroke-width="1.016074538230896" stroke-linecap="round" d="M 94.1244 45.1429 L 86.6562 49.0548 L 68.0621 46.7178 L 70.0434 50.5789 L 70.3482 56.6753 L 72.2788 60.2824 L 75.1746 63.9149 "/>
    <path id="ID0.043594349175691605" fill="#D7E2FD" stroke="none" stroke-linecap="round" d="M 77.5289 41.9677 L 77.7575 40.85 L 78.2656 42.9075 L 75.6746 42.1709 L 77.5289 41.9677 Z " stroke-width="0.508037269115448"/>
    <path id="ID0.043594349175691605" fill="#D7E2FD" stroke="none" stroke-linecap="round" d="M 87.7225 41.8348 L 87.4574 40.8321 L 87.1024 42.7258 L 89.4161 41.9236 L 87.7225 41.8348 Z " stroke-width="0.4618642652203811"/>
  </g>
</svg>