<svg xmlns="http://www.w3.org/2000/svg" xmlns:xlink="http://www.w3.org/1999/xlink" version="1.1" width="283.2183585166931" height="184.25027990341187" viewBox="7.21501088142395 -1.3192890882492065 283.2183585166931 184.25027990341187">
  <!-- Exported by Scratch - http://scratch.mit.edu/ -->
  <g id="ID0.6169916936196387">
    <path id="ID0.6829322893172503" fill="#EDD2B8" stroke="none" stroke-linecap="round" d="M 104.3619 142.2761 L 117.2769 117.5829 L 131.4433 123.6177 L 147.7725 129.2824 L 155.9006 140.3574 L 161.3907 150.3256 L 161.7897 159.1615 L 168.6006 174.2462 L 159.213 180.5273 L 153.9369 178.3137 L 150.4823 180.2405 L 140.3799 179.7432 L 129.3015 178.7451 L 118.9597 172.9463 L 110.3817 157.9414 L 104.3619 142.2761 Z " stroke-width="1.9625149058707474"/>
    <g id="ID0.9434720128774643">
      <path id="ID0.6507829907350242" fill="#282828" stroke="none" stroke-linecap="round" d="M 9.6187 33.3775 L 32.946 5.7895 L 73.9126 58.1257 L 89.6827 77.9547 L 112.6157 109.2019 L 127.0527 119.4199 L 102.0367 145.2044 L 92.9731 129.7039 L 75.4793 113.3308 L 52.2341 93.2672 L 35.0306 77.2897 L 9.6187 33.3775 Z " stroke-width="1.9625149058707474"/>
      <path id="ID0.9892375003546476" fill="none" stroke="#191919" stroke-width="4.807377763047315" stroke-linecap="round" d="M 102.0083 143.162 L 124.2576 118.6334 L 107.3245 105.7175 "/>
    </g>
  </g>
  <g id="ID0.08065540948882699">
    <path id="ID0.2553020962513983" fill="#999FA5" stroke="none" d="M 200.2951 38.987 C 224.5002 38.987 246.4339 41.6815 262.3175 46.0322 C 278.1987 50.3829 288.0297 56.3921 288.0297 63.0239 C 288.0297 69.6556 278.1987 75.6649 262.3175 80.0155 C 246.4339 84.3662 224.5002 87.0608 200.2951 87.0608 C 176.0899 87.0608 154.1563 84.3662 138.2727 80.0155 C 122.3915 75.6649 112.5604 69.6556 112.5604 63.0239 C 112.5604 56.3921 122.3915 50.3829 138.2727 46.0322 C 154.1563 41.6815 176.0899 38.987 200.2951 38.987 Z " stroke-width="2.40368914604187"/>
    <path id="ID0.4823109242133796" fill="#8B9196" stroke="none" stroke-linecap="round" d="M 197.8971 1.0844 C 217.9583 1.0844 236.135 5.4615 249.2976 12.5332 C 262.4602 19.6024 267.0513 29.0946 270.6087 40.1443 C 273.4018 48.8337 275.8848 62.9073 268.205 67.1858 C 247.0718 78.3846 221.2225 79.6225 197.8971 79.2043 C 174.1968 78.7788 149.2873 75.9545 128.1901 64.7822 C 121.1954 60.8641 122.616 48.0933 125.1855 40.1443 C 128.7646 29.1018 133.334 19.6024 146.4966 12.5332 C 159.6592 5.4615 177.8359 1.0844 197.8971 1.0844 Z " stroke-width="2.40368914604187"/>
    <path id="ID0.0372768803499639" fill="none" stroke="#A4ABB1" stroke-width="4.80737829208374" stroke-linecap="round" d="M 221.934 8.3418 C 221.934 8.3418 228.835 9.6398 232.1497 10.7455 C 233.6808 11.255 235.0774 12.166 236.3562 13.1492 C 237.7022 14.1851 239.9617 16.7547 239.9617 16.7547 "/>
    <path id="ID0.0845643924549222" fill="none" stroke="#A4ABB1" stroke-width="4.80737829208374" stroke-linecap="round" d="M 228.5442 19.1584 C 228.5442 19.1584 231.8372 20.1679 233.3515 20.9611 C 236.0581 22.3793 241.1635 25.7685 241.1635 25.7685 "/>
  </g>
</svg>