<svg xmlns="http://www.w3.org/2000/svg" xmlns:xlink="http://www.w3.org/1999/xlink" version="1.1" width="139.25849914605814" height="318.22595214898786" viewBox="3.000800132476294 -0.5190566780934693 139.25849914605814 318.22595214898786">
  <!-- Exported by Scratch - http://scratch.mit.edu/ -->
  <g id="ID0.6660797297954559">
    <path id="ID0.5368814701214433" fill="#343434" stroke="none" stroke-linecap="round" d="M 62.0528 299.7777 L 64.9362 290.9477 L 69.4251 281.7008 L 79.4012 287.5588 L 90.6673 295.1939 L 108.1293 305.5362 L 109.2078 312.0518 L 84.5104 313.2307 L 63.2654 309.5644 L 62.0528 299.7777 Z " stroke-width="0.7702165290554439"/>
    <g id="ID0.5077062323689461">
      <path id="ID0.05466862628236413" fill="#252525" stroke="none" stroke-linecap="round" d="M 63.1516 227.5262 L 84.8443 224.1459 L 83.1084 238.8291 L 82.3661 243.8423 L 82.3596 258.3268 L 84.8603 291.578 L 63.6164 294.3482 L 62.2791 275.5996 L 59.9673 268.533 L 58.7975 260.8051 L 60.3957 249.6978 L 60.2969 239.5819 L 63.1516 227.5262 Z " stroke-width="0.5998532736063101"/>
      <path id="ID0.5319394422695041" fill="none" stroke="#131313" stroke-width="2" stroke-linecap="round" d="M 84.9 290.75 L 63.65 294.75 L 62.65 283.25 "/>
    </g>
    <g id="ID0.8820344842970371">
      <path id="ID0.3809091211296618" fill="#252525" stroke="none" stroke-linecap="round" d="M 51.9285 153.8533 L 83.6436 134.3371 L 84.9062 158.5649 L 88.8946 207.0411 L 88.412 217.7936 L 84.4109 229.0764 L 76.3176 226.8924 L 63.3644 228.1829 L 62.7031 206.421 L 60.9648 193.1181 L 51.9285 153.8533 Z " stroke-width="0.7305889665074583"/>
      <path id="ID0.9495224836282432" fill="none" stroke="#131313" stroke-width="2" stroke-linecap="round" d="M 88.9 207.25 L 88.9 215.75 L 86.9 223.75 L 78.4 228.25 L 77.4 233.25 "/>
    </g>
  </g>
  <g id="ID0.18228224432095885">
    <path id="ID0.5368814701214433" fill="#404040" stroke="none" stroke-linecap="round" d="M 5.5878 295.5704 L 10.1196 287.4621 L 16.3074 279.2543 L 24.9667 286.926 L 34.5491 296.5903 L 49.6891 310.1057 L 49.491 316.7069 L 25.0298 313.1014 L 4.8904 305.4072 L 5.5878 295.5704 Z " stroke-width="0.7702165265523853"/>
    <g id="ID0.5077062323689461">
      <path id="ID0.05466862628236413" fill="#252525" stroke="none" stroke-linecap="round" d="M 21.9564 224.5513 L 43.8645 225.9785 L 38.9712 239.9308 L 37.1545 244.6619 L 33.9924 258.797 L 29.1884 291.7942 L 7.8513 289.8694 L 10.6309 271.2798 L 9.9144 263.8793 L 10.4563 256.0821 L 14.4361 245.5899 L 16.5437 235.6955 L 21.9564 224.5513 Z " stroke-width="0.5998532681134454"/>
      <path id="ID0.5319394422695041" fill="none" stroke="#131313" stroke-width="2.000000000550342" stroke-linecap="round" d="M 29.422 290.8727 L 7.811 290.1467 L 9.3405 278.7051 "/>
    </g>
    <g id="ID0.8820344842970371">
      <path id="ID0.3809091211296618" fill="#252525" stroke="none" stroke-linecap="round" d="M 32.6173 148.5037 L 62.3695 138.0051 L 58.3232 161.9259 L 51.6541 210.1065 L 48.8403 220.4955 L 42.4771 230.6356 L 35.0541 226.7407 L 21.3629 226.4024 L 23.4627 203.3079 L 24.7983 190.2872 L 32.6173 148.5037 Z " stroke-width="0.7305889973140245"/>
      <path id="ID0.9495224836282432" fill="none" stroke="#131313" stroke-width="2.000000000550342" stroke-linecap="round" d="M 51.5184 210.2501 L 49.6665 218.5459 L 45.9715 225.918 L 36.6953 228.4579 L 34.6299 233.1199 "/>
    </g>
  </g>
  <g id="ID0.7085462282411754">
    <g id="ID0.5880346246995032">
      <path id="ID0.6829322893172503" fill="#1D1E1F" stroke="none" stroke-linecap="round" d="M 108.3007 174.7506 L 97.5708 170.3602 L 94.6835 176.0787 L 91.009 182.2595 L 91.3939 187.9618 L 92.321 192.6045 L 94.5636 195.5219 L 96.4428 202.1462 L 101.113 201.6264 L 102.1975 199.5074 L 103.8129 199.1938 L 106.8927 196.3264 L 110.1486 193.038 L 111.8827 188.4202 L 110.5871 181.3474 L 108.3007 174.7506 Z " stroke-width="0.816459591011563"/>
      <g id="ID0.9434720128774643">
        <path id="ID0.6507829907350242" fill="#282828" stroke="none" stroke-linecap="round" d="M 109.5996 109.6167 L 91.3473 121.0775 L 93.8321 137.8899 L 95.784 150.4421 L 96.8698 166.5306 L 95.0182 173.6521 L 109.8895 175.1444 L 108.6154 167.7837 L 109.7885 157.8847 L 111.8012 145.2695 L 111.7197 131.9365 L 109.5996 109.6167 Z " stroke-width="0.816459591011563"/>
        <path id="ID0.9892375003546476" fill="none" stroke="#191919" stroke-width="1.99999995900562" stroke-linecap="round" d="M 109.3566 174.3489 L 95.7021 172.5142 L 97.6241 163.8651 "/>
      </g>
    </g>
    <path id="ID0.7729651997797191" fill="#282828" stroke="none" stroke-linecap="round" d="M 107.8327 78.7987 L 84.1958 76.2359 L 85.1122 96.5742 L 88.2202 107.4617 L 88.9297 116.7253 L 90.7605 125.4015 L 107.7601 123.528 L 110.5804 116.9562 L 108.1403 92.7112 L 107.8327 78.7987 Z " stroke-width="0.958863677634518"/>
    <path id="ID0.4757494777441025" fill="#282828" stroke="none" stroke-linecap="round" d="M 97.4229 62.5651 L 88.6651 60.1981 L 72.1393 64.6581 L 79.9343 90.3391 L 90.4552 95.6089 L 95.0789 96.7987 L 98.4444 94.5031 L 101.4579 91.6032 L 107.3998 89.1353 L 107.662 83.6646 L 107.1343 75.5541 L 104.0423 67.1399 L 97.4229 62.5651 Z " stroke-width="0.4829924776241479"/>
  </g>
  <g id="ID0.8990198895335197">
    <path id="ID0.17576928716152906" fill="#DBDBDB" stroke="none" d="M 60.3574 56.5986 L 60.1075 56.5922 L 60.1075 56.5922 L 60.3574 56.5986 L 60.3574 56.5986 Z " stroke-width="0.9999999787998589"/>
    <path id="ID0.4270821204409003" fill="#252525" stroke="none" stroke-linecap="round" d="M 55.1306 178.5736 L 57.7553 65.8475 L 75.0416 68.7695 L 81.7399 73.3697 L 84.4064 77.5448 L 90.8931 89.285 L 89.6949 99.7158 L 88.4902 105.1415 L 89.8354 112.1153 L 90.0577 117.6071 L 87.5978 124.4046 L 85.7383 129.5617 L 84.1195 138.7814 L 84.6041 160.7299 L 79.0871 168.6966 L 74.0195 174.6821 L 55.1306 178.5736 Z " stroke-width="0.47614255735809646"/>
    <path id="ID0.4270821204409003" fill="#252525" stroke="none" stroke-linecap="round" d="M 55.1593 178.6686 L 58.2919 65.9555 L 40.879 67.9913 L 33.9546 72.2436 L 31.0785 76.2771 L 24.0009 87.6709 L 24.6652 98.1493 L 25.5913 103.6295 L 23.8919 110.5255 L 23.3897 115.9988 L 25.4993 122.913 L 27.0932 128.1583 L 28.2393 137.4486 L 26.635 159.3438 L 31.7381 167.5817 L 36.4936 173.8181 L 55.1593 178.6686 Z " stroke-width="0.4761425512403181"/>
    <path id="ID0.5114514343440533" fill="#282828" stroke="none" d="M 31.8058 66.538 L 84.7885 67.8911 L 82.5355 156.1123 L 29.5528 154.7592 L 31.8058 66.538 Z " stroke-width="1.0073065963725787"/>
    <path id="ID0.9286923445761204" fill="#D4D4D4" stroke="none" stroke-linecap="round" d="M 48.3166 53.1673 L 66.0733 34.8785 L 58.4753 53.5696 L 58.7034 94.0608 L 21.5087 64.0567 L 41.9189 53.766 L 48.3166 53.1673 Z " stroke-width="0.4761425655017757"/>
    <path id="ID0.9286923445761204" fill="#D4D4D4" stroke="none" stroke-linecap="round" d="M 64.652 52.5157 L 51.3158 34.7903 L 57.9499 53.8449 L 58.1425 93.8588 L 94.333 66.2052 L 74.8571 53.8956 L 64.652 52.5157 Z " stroke-width="0.4761425655017757"/>
    <path id="ID0.39874776685610414" fill="#C3C3C3" stroke="none" stroke-linecap="round" d="M 39.957 54.6821 L 59.5681 65.0569 L 77.6591 56.555 L 81.6064 58.7944 L 59.2765 68.8262 L 36.1491 56.5415 L 39.957 54.6821 Z " stroke-width="0.9436593450966635"/>
    <path id="ID0.13444371055811644" fill="#1F1F1F" stroke="none" stroke-linecap="round" d="M 57.1092 66.8522 L 62.3639 66.7363 L 64.4353 95.2985 L 52.3765 95.4907 L 57.1092 66.8522 Z " stroke-width="0.9999999787998589"/>
    <path id="ID0.751046194229275" fill="#191919" stroke="none" stroke-linecap="round" d="M 54.9818 61.8131 L 59.7073 59.8981 L 64.1638 62.0476 L 64.4001 70.0312 L 59.9763 70.9086 L 54.7782 69.7855 L 54.9818 61.8131 Z " stroke-width="1.0999999945227914"/>
    <path id="ID0.7854711129330099" fill="#282828" stroke="none" stroke-linecap="round" d="M 45.4572 83.3108 L 59.2293 92.4153 L 73.2237 83.0195 L 70.7776 100.4628 L 47.5352 99.8692 L 45.4572 83.3108 Z " stroke-width="0.9999999787998589"/>
    <path id="ID0.562834897544235" fill="#282828" stroke="none" stroke-linecap="round" d="M 26.8873 154.3598 L 57.2742 149.384 L 56.7572 169.6274 L 42.9798 170.5259 L 26.8873 154.3598 Z " stroke-width="0.9999999787998589"/>
    <path id="ID0.562834897544235" fill="#282828" stroke="none" stroke-linecap="round" d="M 87.7665 156.157 L 57.6732 149.6366 L 57.1562 169.88 L 70.8698 171.4807 L 87.7665 156.157 Z " stroke-width="0.9999999787998589"/>
    <path id="ID0.6824178956449032" fill="none" stroke="#191919" stroke-width="1.9999999575997178" stroke-linecap="round" d="M 58.973 92.6469 L 56.7636 169.3655 "/>
    <path id="ID0.4144489667378366" fill="#313131" stroke="none" stroke-linecap="round" d="M 21.0143 61.1795 L 41.4619 53.6991 L 37.9076 75.3654 L 39.6247 135.4288 L 28.9854 179.9217 L 18.1166 174.6425 L 17.7773 178.135 L 22.0018 130.2272 L 18.3575 86.8701 L 17.7727 70.5998 L 21.0143 61.1795 Z " stroke-width="0.9999999787998589"/>
    <path id="ID0.5234400681219995" fill="#101010" stroke="none" d="M 61.0471 98.3326 C 61.4597 98.3431 61.8295 98.5202 62.0934 98.7979 C 62.3573 99.0756 62.5152 99.454 62.5047 99.8665 C 62.4942 100.279 62.3171 100.6489 62.0394 100.9128 C 61.7616 101.1766 61.3833 101.3346 60.9707 101.3241 C 60.5582 101.3135 60.1884 101.1365 59.9245 100.8587 C 59.6606 100.581 59.5026 100.2026 59.5132 99.7901 C 59.5237 99.3776 59.7008 99.0078 59.9785 98.7439 C 60.2562 98.48 60.6346 98.322 61.0471 98.3326 Z " stroke-width="0.6299999622287715"/>
    <path id="ID0.5234400681219995" fill="#101010" stroke="none" d="M 60.7015 111.8937 C 61.114 111.9043 61.4838 112.0813 61.7477 112.3591 C 62.0116 112.6368 62.1696 113.0152 62.159 113.4277 C 62.1485 113.8402 61.9714 114.21 61.6937 114.4739 C 61.4159 114.7378 61.0376 114.8958 60.6251 114.8853 C 60.2125 114.8747 59.8427 114.6976 59.5788 114.4199 C 59.3149 114.1422 59.157 113.7638 59.1675 113.3513 C 59.178 112.9388 59.3551 112.569 59.6328 112.3051 C 59.9106 112.0412 60.2889 111.8832 60.7015 111.8937 Z " stroke-width="0.6299999622287715"/>
    <path id="ID0.5234400681219995" fill="#101010" stroke="none" d="M 59.9078 143.3695 C 60.3203 143.38 60.6901 143.5571 60.954 143.8348 C 61.2179 144.1125 61.3759 144.4909 61.3653 144.9034 C 61.3548 145.316 61.1777 145.6858 60.9 145.9497 C 60.6223 146.2136 60.2439 146.3715 59.8314 146.361 C 59.4189 146.3505 59.049 146.1734 58.7851 145.8957 C 58.5212 145.6179 58.3633 145.2396 58.3738 144.827 C 58.3843 144.4145 58.5614 144.0447 58.8392 143.7808 C 59.1169 143.5169 59.4953 143.3589 59.9078 143.3695 Z " stroke-width="0.6299999622287715"/>
    <path id="ID0.5234400681219995" fill="#101010" stroke="none" d="M 60.2776 128.6575 C 60.6901 128.668 61.06 128.8451 61.3239 129.1228 C 61.5878 129.4005 61.7457 129.7789 61.7352 130.1914 C 61.7247 130.6039 61.5476 130.9738 61.2699 131.2377 C 60.9921 131.5016 60.6138 131.6595 60.2012 131.649 C 59.7887 131.6385 59.4189 131.4614 59.155 131.1837 C 58.8911 130.9059 58.7331 130.5275 58.7437 130.115 C 58.7542 129.7025 58.9313 129.3327 59.209 129.0688 C 59.4867 128.8049 59.8651 128.6469 60.2776 128.6575 Z " stroke-width="0.6299999622287715"/>
    <path id="ID0.5234400681219995" fill="#101010" stroke="none" d="M 59.4211 157.3339 C 59.8336 157.3445 60.2034 157.5215 60.4673 157.7993 C 60.7312 158.077 60.8892 158.4554 60.8787 158.8679 C 60.8681 159.2804 60.6911 159.6502 60.4133 159.9141 C 60.1356 160.178 59.7572 160.336 59.3447 160.3254 C 58.9322 160.3149 58.5624 160.1378 58.2985 159.8601 C 58.0346 159.5824 57.8766 159.204 57.8871 158.7915 C 57.8977 158.379 58.0748 158.0091 58.3525 157.7453 C 58.6302 157.4814 59.0086 157.3234 59.4211 157.3339 Z " stroke-width="0.6299999622287715"/>
    <path id="ID0.4144489667378366" fill="#313131" stroke="none" stroke-linecap="round" d="M 94.5088 62.1347 L 74.4697 53.6204 L 76.9134 75.4399 L 72.1327 135.3373 L 80.4871 180.3153 L 91.6112 175.5977 L 91.7717 179.103 L 89.9981 131.042 L 95.8508 87.9274 L 97.2653 71.7082 L 94.5088 62.1347 Z " stroke-width="0.9999999787998589"/>
    <path id="ID0.8752945330925286" fill="none" stroke="#222222" stroke-width="1.9999999575997178" stroke-linecap="round" d="M 21.5077 61.4422 L 18.0609 69.1067 L 20.3461 106.9274 "/>
    <path id="ID0.8752945330925286" fill="none" stroke="#222222" stroke-width="1.9999999575997178" stroke-linecap="round" d="M 94.7125 62.8061 L 97.7636 70.6365 L 93.5509 108.2912 "/>
    <path id="ID0.5234400681219995" fill="#101010" stroke="none" d="M 36.8035 143.4381 C 37.216 143.4486 37.5858 143.6257 37.8497 143.9034 C 38.1136 144.1812 38.2716 144.5596 38.2611 144.9721 C 38.2505 145.3846 38.0734 145.7544 37.7957 146.0183 C 37.518 146.2822 37.1396 146.4402 36.7271 146.4296 C 36.3146 146.4191 35.9448 146.242 35.6809 145.9643 C 35.417 145.6866 35.259 145.3082 35.2695 144.8957 C 35.2801 144.4832 35.4571 144.1133 35.7349 143.8494 C 36.0126 143.5855 36.391 143.4276 36.8035 143.4381 Z " stroke-width="0.6299999622287715"/>
    <path id="ID0.5234400681219995" fill="#101010" stroke="none" d="M 35.2155 150.6756 C 35.6281 150.6861 35.9979 150.8632 36.2618 151.1409 C 36.5257 151.4186 36.6836 151.797 36.6731 152.2095 C 36.6626 152.6221 36.4855 152.9919 36.2078 153.2558 C 35.93 153.5197 35.5517 153.6776 35.1391 153.6671 C 34.7266 153.6566 34.3568 153.4795 34.0929 153.2018 C 33.829 152.924 33.6711 152.5457 33.6816 152.1331 C 33.6921 151.7206 33.8692 151.3508 34.1469 151.0869 C 34.4247 150.823 34.803 150.665 35.2155 150.6756 Z " stroke-width="0.6299999622287715"/>
    <g id="ID0.20783481979742646">
      <path id="ID0.5848579816520214" fill="#737373" stroke="none" stroke-linecap="round" d="M 83.238 90.3468 L 90.124 89.0222 L 89.9245 92.9184 L 82.6641 93.2331 L 83.238 90.3468 Z " stroke-width="0.9999999787998589"/>
      <path id="ID0.13105127029120922" fill="none" stroke="#222222" stroke-width="1.9999999575997178" stroke-linecap="round" d="M 81.3081 93.4486 L 85.8067 93.5635 L 91.0933 92.198 "/>
    </g>
  </g>
  <path id="ID0.6101007834076881" fill="#FFFFFF" stroke="none" stroke-linecap="round" d="M 68.5268 20.3777 L 70.1664 20.8283 L 73.9075 22.1454 L 74.3912 24.1296 L 69.1838 22.5153 L 68.5268 20.3777 Z " stroke-width="0.4061061920628823"/>
  <path id="ID0.043594349175691605" fill="#D7E2FD" stroke="none" stroke-linecap="round" d="M 73.6375 23.1381 L 73.9004 22.028 L 74.3448 24.1003 L 71.7777 23.2841 L 73.6375 23.1381 Z " stroke-width="0.5080372750225202"/>
  <path id="ID0.46110434643924236" fill="#D8BFA7" stroke="none" stroke-linecap="round" d="M 47.8192 34.4921 L 70.4266 35.0694 L 70.4101 54.0252 L 64.1452 56.7161 L 47.3061 54.5855 L 47.8192 34.4921 Z " stroke-width="1.0876357858493706"/>
  <path id="ID0.8999492498114705" fill="#EDD2B8" stroke="none" stroke-linecap="round" d="M 65.9948 3.6818 C 70.4022 4.1302 75.1528 6.8076 77.312 10.6756 C 79.7758 15.0916 77.9387 20.696 78.2016 25.697 C 78.3225 27.4362 78.5647 29.2523 78.137 31.0065 C 77.6525 34.1659 76.4862 37.1837 75.5092 40.3222 C 74.8518 42.4377 74.6771 44.7754 73.5214 46.6866 C 72.2213 48.9484 70.9004 52.0917 68.304 52.5655 C 64.4548 53.2676 60.3656 51.4549 56.9039 49.7237 C 54.0601 48.3011 51.3913 46.1077 49.7976 43.3463 C 46.9422 38.2212 44.3418 32.5792 43.9152 26.6979 C 43.4425 20.1783 42.6162 12.1178 47.3369 7.3682 C 51.5575 2.7973 59.4429 3.0183 65.9948 3.6818 Z " stroke-width="0.5080373174370423"/>
  <path id="ID0.8194515448994935" fill="#EDD2B8" stroke="none" stroke-linecap="round" d="M 43.6086 20.8582 C 44.4632 20.9392 45.0852 21.5039 45.5995 22.5593 C 46.1139 23.6148 46.4381 25.0746 46.4493 26.6885 C 46.4606 28.3025 46.1568 29.7666 45.6572 30.8291 C 45.1575 31.8917 44.5423 32.438 43.6902 32.5579 C 42.9079 32.6663 41.8989 32.2444 41.5332 31.5729 C 40.8438 30.0797 40.9514 28.3019 40.8495 26.7275 C 40.7487 25.1802 40.3768 23.4808 40.9671 22.0766 C 41.4401 21.2193 42.713 20.7734 43.6086 20.8582 Z " stroke-width="1.0000000046216804"/>
  <path id="ID0.5768358684144914" fill="#2E3234" stroke="none" d="M 42.6431 17.7318 L 48.6429 17.69 L 48.6555 19.49 L 42.6556 19.5318 L 42.6431 17.7318 Z " stroke-width="1.0000000046216804"/>
  <path id="ID0.3245162623934448" fill="#54595E" stroke="none" stroke-linecap="round" d="M 64.9312 4.5867 C 68.1872 4.564 71.1554 7.1714 73.3209 11.4014 C 75.4864 15.6314 76.2902 22.347 76.8943 27.9539 C 77.5112 33.6787 79.4566 39.9033 77.1641 45.1524 C 75.3972 49.1968 70.4728 52.3022 65.9656 52.5806 C 61.7093 52.8473 56.5533 50.4131 54.5234 46.5602 C 51.6554 41.115 52.9241 34.322 53.2949 28.1183 C 53.6317 22.4898 54.5309 15.7774 56.6373 11.5176 C 58.7437 7.2578 61.6753 4.6093 64.9312 4.5867 Z " stroke-width="1.0000000046216804"/>
  <path id="ID0.8999492498114705" fill="#54595E" stroke="none" stroke-linecap="round" d="M 67.8448 1.0818 C 72.1041 2.2994 77.0028 4.2076 79.162 8.0756 C 81.6258 12.4916 79.1937 18.1601 80.0516 23.097 C 80.3909 25.047 82.876 26.5376 82.7827 28.6157 C 82.619 31.2897 80.5234 33.5036 79.3541 36.0063 C 78.0815 38.7231 76.966 41.5917 75.3714 44.0866 C 73.9627 46.2922 72.4987 48.8046 70.154 49.9655 C 68.3485 50.8581 65.7364 51.1232 64.1586 49.9057 C 62.9041 48.938 64.0317 46.7135 63.6429 45.159 C 63.3013 43.24 61.9938 41.5161 61.9779 39.5313 C 61.9359 34.007 63.763 28.5582 63.7428 23.0328 C 63.7203 16.9567 64.0115 10.7071 61.9916 5.0346 C 61.219 2.8645 54.9993 2.3358 56.0748 1.6719 C 57.7406 0.4847 64.0711 0.0031 67.8448 1.0818 Z " stroke-width="0.5080373174370423"/>
  <path id="ID0.8999492498114705" fill="#54595E" stroke="none" stroke-linecap="round" d="M 56.6735 1.723 C 52.8991 2.8807 48.6988 4.8802 46.8386 8.4216 C 44.5726 12.7095 45.9204 18.1023 45.4408 22.9107 C 45.2636 24.6764 44.2124 26.4949 44.6137 28.1748 C 45.2005 30.4991 47.3256 32.2361 48.0111 34.5272 C 48.9552 37.6832 48.2256 41.3213 49.5779 44.2962 C 50.6614 46.6785 52.516 48.9737 54.8767 50.1019 C 56.6944 50.9691 59.3099 51.1978 60.8707 49.9585 C 62.1116 48.9734 60.9531 46.7648 61.3202 45.2051 C 61.635 43.2815 62.9184 41.5396 62.9066 39.5547 C 62.8717 34.0304 60.9688 28.6075 60.9121 23.0824 C 60.8499 17.0065 60.9318 10.8972 62.4123 5.0616 C 62.8114 3.493 67.492 2.7552 66.5327 2.1624 C 64.6341 1 59.8161 0.6825 56.6735 1.723 Z " stroke-width="0.5080373174370423"/>
  <path id="ID0.45774566335603595" fill="#54595E" stroke="none" stroke-linecap="round" d="M 65.5784 36.4836 C 67.6824 36.469 69.2312 37.7222 70.9827 38.512 C 72.5798 39.2329 75.5857 39.35 75.5863 41.164 C 75.618 43.9959 73.1501 46.4571 71.0521 48.4798 C 69.6684 49.8135 67.7806 50.5686 65.6767 50.5833 C 63.5727 50.5979 61.7639 49.7675 60.2724 48.5549 C 58.2087 46.8782 55.5669 44.9056 55.5937 42.3033 C 55.5349 40.3117 58.4538 39.5743 60.203 38.5871 C 61.8764 37.6414 63.4745 36.4983 65.5784 36.4836 Z " stroke-width="1.0000000046216804"/>
  <path id="ID0.6934182443656027" fill="#54595E" stroke="none" stroke-linecap="round" d="M 51.3148 30.8304 L 64.593 34.838 L 78.6613 30.2399 L 75.7084 37.0106 L 75.2398 41.514 L 55.3948 42.3023 L 54.202 36.1604 L 51.3148 30.8304 Z " stroke-width="1.0000000046216804"/>
  <path id="ID0.6236958587542176" fill="#3B4043" stroke="none" stroke-linecap="round" d="M 57.4612 27.558 L 73.2105 27.3983 L 72.5635 35.003 L 73.1119 41.9494 L 70.4354 52.5183 L 60.836 52.6351 L 57.2164 42.6601 L 58.0635 35.054 L 57.4612 27.558 Z " stroke-width="1.0000000046216804"/>
  <path id="ID0.6043254472315311" fill="#3B4043" stroke="none" stroke-linecap="round" d="M 50.1466 5.0025 L 54.8767 2.1195 L 59.6656 7.6863 L 66.1731 8.741 L 65.0575 28.0492 L 62.4275 30.9176 L 57.0751 30.6049 L 53.5106 28.5296 L 51.8835 24.6409 L 53.3382 18.1306 L 50.1466 5.0025 Z " stroke-width="1.0000000046216804"/>
  <path id="ID0.6043254472315311" fill="#3B4043" stroke="none" stroke-linecap="round" d="M 78.22 6.2995 L 76.1026 3.8142 L 73.3446 2.6834 L 69.2275 7.4122 L 62.7353 8.5575 L 64.1197 27.8483 L 66.7895 30.6797 L 72.1369 30.2925 L 76.6229 28.2612 L 77.245 24.2568 L 75.6998 17.7674 L 78.22 6.2995 Z " stroke-width="1.0000000046216804"/>
  <path id="ID0.9914007503539324" fill="#33383A" stroke="none" d="M 63.1151 35.1195 L 61.3833 23.3813 L 67.8352 23.6364 L 68.2146 35.034 L 63.1151 35.1195 Z " stroke-width="1.0000000046216804"/>
  <path id="ID0.28340246016159654" fill="#D8BFA7" stroke="none" stroke-linecap="round" d="M 50.6191 21.9375 L 57.4399 21.9833 L 61.8987 24.2235 L 62.7998 27.6395 L 61.4285 29.858 L 57.922 30.2558 L 55.1735 29.7771 L 53.074 29.0139 L 50.9394 27.2865 L 50.0199 25.3018 L 50.6191 21.9375 Z " stroke-width="0.5947752588767766"/>
  <path id="ID0.28340246016159654" fill="#D8BFA7" stroke="none" stroke-linecap="round" d="M 79.3119 21.7911 L 72.4924 21.932 L 68.0653 24.234 L 67.2118 27.6622 L 68.6139 29.8614 L 72.1256 30.2103 L 74.8672 29.6934 L 76.9559 28.901 L 79.0662 27.1441 L 79.9579 25.1467 L 79.3119 21.7911 Z " stroke-width="0.5947752588767766"/>
  <path id="ID0.17377300979569554" fill="#FFFFFF" stroke="none" stroke-linecap="round" d="M 55.2392 25.3792 L 56.1405 24.5424 L 58.4263 24.3423 L 60.6828 24.9322 L 61.1486 26.8797 L 58.5105 26.7662 L 55.2392 25.3792 Z " stroke-width="0.99999999349714"/>
  <path id="ID0.17377300979569554" fill="#FFFFFF" stroke="none" stroke-linecap="round" d="M 76.4507 25.1937 L 75.5379 24.3695 L 73.2496 24.2012 L 71.0014 24.8225 L 70.5628 26.7764 L 73.1991 26.6261 L 76.4507 25.1937 Z " stroke-width="0.9999999514653345"/>
  <path id="ID0.44800941413268447" fill="none" stroke="#33383A" stroke-width="1.050359700810803" stroke-linecap="round" d="M 63.5955 27.8247 L 61.9375 23.5296 L 57.5353 21.1182 L 50.9717 21.2952 "/>
  <path id="ID0.12448931112885475" fill="#33383A" stroke="none" stroke-linecap="round" d="M 63.164 33.4727 L 67.9646 33.5392 L 68.9365 36.6825 L 65.8471 38.2041 L 62.3364 36.6785 L 63.164 33.4727 Z " stroke-width="1.0000000046216804"/>
  <path id="ID0.44800941413268447" fill="none" stroke="#33383A" stroke-width="1.0503597796621205" stroke-linecap="round" d="M 62.7246 24.4359 L 63.509 21.8626 L 62.0406 18.5082 "/>
  <path id="ID0.44800941413268447" fill="none" stroke="#33383A" stroke-width="1.0503597880316977" stroke-linecap="round" d="M 67.0076 24.2769 L 66.1874 21.7148 L 67.609 18.3403 "/>
  <g id="ID0.32985211815685034">
    <g id="ID0.08651347272098064">
      <g id="ID0.07771636918187141">
        <path id="ID0.7001032647676766" fill="none" stroke="#646B70" stroke-width="0.5238095081491491" stroke-linecap="round" d="M 56.4772 39.4511 C 56.4772 39.4511 56.4154 39.8195 56.3763 40.0018 C 56.3395 40.1733 56.1852 40.3499 56.2489 40.5134 C 56.3148 40.6827 56.5233 40.7697 56.6963 40.8246 C 56.8627 40.8771 57.0457 40.8201 57.2201 40.8209 C 57.3945 40.8218 57.6607 40.9837 57.744 40.8304 C 57.9436 40.4636 57.8925 39.5853 57.8925 39.5853 "/>
        <path id="ID0.7001032647676766" fill="none" stroke="#646B70" stroke-width="0.5238095081491491" stroke-linecap="round" d="M 57.9768 39.4174 C 57.9768 39.4174 57.915 39.7858 57.8759 39.9681 C 57.8391 40.1397 57.6848 40.3162 57.7485 40.4797 C 57.8144 40.649 58.023 40.7361 58.1959 40.7909 C 58.3624 40.8434 58.5453 40.7864 58.7197 40.7873 C 58.8942 40.7881 59.1604 40.95 59.2436 40.7967 C 59.4433 40.43 59.3921 39.5516 59.3921 39.5516 "/>
      </g>
      <g id="ID0.07771636918187141">
        <path id="ID0.7001032647676766" fill="none" stroke="#646B70" stroke-width="0.5238095081491491" stroke-linecap="round" d="M 59.5798 39.5315 C 59.5798 39.5315 59.5179 39.8999 59.4789 40.0822 C 59.4421 40.2537 59.2877 40.4303 59.3515 40.5938 C 59.4174 40.763 59.6259 40.8501 59.7989 40.905 C 59.9653 40.9575 60.1483 40.9004 60.3227 40.9013 C 60.4971 40.9022 60.7633 41.064 60.8466 40.9108 C 61.0462 40.544 60.9951 39.6657 60.9951 39.6657 "/>
        <path id="ID0.7001032647676766" fill="none" stroke="#646B70" stroke-width="0.5238095081491491" stroke-linecap="round" d="M 61.0828 39.6478 C 61.0828 39.6478 61.0209 40.0162 60.9819 40.1985 C 60.9451 40.37 60.7907 40.5466 60.8545 40.7101 C 60.9203 40.8793 61.1289 40.9664 61.3019 41.0213 C 61.4683 41.0738 61.6512 41.0167 61.8257 41.0176 C 62.0001 41.0185 62.2663 41.1803 62.3496 41.0271 C 62.5492 40.6603 62.498 39.7819 62.498 39.7819 "/>
      </g>
      <path id="ID0.7001032647676766" fill="none" stroke="#646B70" stroke-width="0.5238095001459365" stroke-linecap="round" d="M 62.6426 39.7829 C 62.6426 39.7829 62.6197 40.1558 62.5999 40.3412 C 62.5813 40.5156 62.4463 40.7074 62.5269 40.8633 C 62.6101 41.0247 62.8266 41.0895 63.0044 41.1259 C 63.1754 41.1607 63.3514 41.0848 63.5249 41.0674 C 63.6985 41.05 63.9802 41.183 64.0469 41.0219 C 64.207 40.6362 64.0641 39.768 64.0641 39.768 "/>
    </g>
    <g id="ID0.08651347272098064">
      <g id="ID0.07771636918187141">
        <path id="ID0.7001032647676766" fill="none" stroke="#646B70" stroke-width="0.5238095081491491" stroke-linecap="round" d="M 71.6085 39.3397 C 71.6085 39.3397 71.6755 39.7073 71.7171 39.889 C 71.7562 40.06 71.913 40.2344 71.8516 40.3988 C 71.7881 40.5689 71.5807 40.6589 71.4085 40.7162 C 71.2429 40.771 71.0591 40.7165 70.8847 40.7198 C 70.7103 40.7231 70.4464 40.8887 70.361 40.7366 C 70.1563 40.3726 70.1952 39.4936 70.1952 39.4936 "/>
        <path id="ID0.7001032647676766" fill="none" stroke="#646B70" stroke-width="0.5238095081491491" stroke-linecap="round" d="M 70.1077 39.3234 C 70.1077 39.3234 70.1747 39.6909 70.2163 39.8727 C 70.2555 40.0437 70.4123 40.2181 70.3508 40.3825 C 70.2873 40.5526 70.08 40.6426 69.9078 40.6998 C 69.7421 40.7547 69.5584 40.7002 69.384 40.7035 C 69.2096 40.7068 68.9457 40.8723 68.8603 40.7202 C 68.6556 40.3563 68.6945 39.4773 68.6945 39.4773 "/>
      </g>
      <g id="ID0.07771636918187141">
        <path id="ID0.7001032647676766" fill="none" stroke="#646B70" stroke-width="0.5238095081491491" stroke-linecap="round" d="M 68.4115 39.5115 C 68.4115 39.5115 68.4785 39.8791 68.5201 40.0608 C 68.5593 40.2318 68.7161 40.4062 68.6546 40.5706 C 68.5911 40.7407 68.3838 40.8307 68.2116 40.888 C 68.0459 40.9428 67.8622 40.8883 67.6878 40.8916 C 67.5134 40.8949 67.2495 41.0605 67.1641 40.9084 C 66.9593 40.5444 66.9983 39.6654 66.9983 39.6654 "/>
        <path id="ID0.7001032647676766" fill="none" stroke="#646B70" stroke-width="0.5238095081491491" stroke-linecap="round" d="M 66.913 39.5952 C 66.913 39.5952 66.98 39.9627 67.0216 40.1445 C 67.0608 40.3155 67.2176 40.4899 67.1561 40.6542 C 67.0926 40.8244 66.8853 40.9144 66.7131 40.9716 C 66.5474 41.0265 66.3637 40.972 66.1893 40.9753 C 66.0149 40.9786 65.751 41.1441 65.6656 40.992 C 65.4608 40.6281 65.4998 39.7491 65.4998 39.7491 "/>
      </g>
      <path id="ID0.7001032647676766" fill="none" stroke="#646B70" stroke-width="0.523809505345145" stroke-linecap="round" d="M 65.4785 39.7986 C 65.4785 39.7986 65.5066 40.1711 65.529 40.3562 C 65.55 40.5304 65.6876 40.7202 65.6093 40.8773 C 65.5283 41.0398 65.3127 41.1076 65.1354 41.1465 C 64.9649 41.1836 64.7879 41.1102 64.6141 41.0952 C 64.4404 41.0802 64.1606 41.2172 64.0916 41.057 C 63.9261 40.6736 64.0569 39.8035 64.0569 39.8035 "/>
    </g>
  </g>
  <path id="ID0.7001032647676766" fill="none" stroke="#646B70" stroke-width="0.523809565966951" stroke-linecap="round" d="M 56.8048 42.5531 C 56.8048 42.5531 56.7378 42.1856 56.6962 42.0039 C 56.6571 41.8329 56.5003 41.6585 56.5617 41.4941 C 56.6252 41.3239 56.8326 41.2339 57.0048 41.1767 C 57.1704 41.1219 57.3542 41.1764 57.5286 41.1731 C 57.703 41.1697 57.9669 41.0042 58.0523 41.1563 C 58.257 41.5202 58.2181 42.3992 58.2181 42.3992 "/>
  <path id="ID0.7001032647676766" fill="none" stroke="#646B70" stroke-width="0.523809565966951" stroke-linecap="round" d="M 58.3048 42.5531 C 58.3048 42.5531 58.2378 42.1856 58.1962 42.0039 C 58.1571 41.8329 58.0003 41.6585 58.0617 41.4941 C 58.1252 41.3239 58.3326 41.2339 58.5048 41.1767 C 58.6704 41.1219 58.8542 41.1764 59.0286 41.1731 C 59.203 41.1697 59.4669 41.0042 59.5523 41.1563 C 59.757 41.5202 59.7181 42.3992 59.7181 42.3992 "/>
  <g id="ID0.07771636918187141">
    <path id="ID0.7001032647676766" fill="none" stroke="#646B70" stroke-width="0.5238095677610691" stroke-linecap="round" d="M 59.3498 42.6098 C 59.3498 42.6098 59.2828 42.2423 59.2412 42.0606 C 59.2021 41.8895 59.0453 41.7152 59.1067 41.5508 C 59.1702 41.3806 59.3776 41.2906 59.5498 41.2334 C 59.7154 41.1785 59.8992 41.2331 60.0736 41.2297 C 60.248 41.2264 60.5119 41.0609 60.5973 41.213 C 60.802 41.5769 60.7631 42.4559 60.7631 42.4559 "/>
    <path id="ID0.7001032647676766" fill="none" stroke="#646B70" stroke-width="0.5238095677610691" stroke-linecap="round" d="M 60.8461 42.4262 C 60.8461 42.4262 60.7791 42.0587 60.7375 41.8769 C 60.6983 41.7059 60.5415 41.5315 60.603 41.3671 C 60.6665 41.197 60.8738 41.107 61.046 41.0498 C 61.2117 40.9949 61.3954 41.0494 61.5698 41.0461 C 61.7442 41.0428 62.0081 40.8773 62.0935 41.0294 C 62.2983 41.3933 62.2593 42.2723 62.2593 42.2723 "/>
  </g>
  <path id="ID0.7001032647676766" fill="none" stroke="#646B70" stroke-width="0.523809553163433" stroke-linecap="round" d="M 62.9016 42.6609 C 62.9016 42.6609 62.8735 42.2884 62.8512 42.1033 C 62.8302 41.9291 62.6925 41.7392 62.7709 41.5822 C 62.8519 41.4196 63.0675 41.3519 63.2447 41.313 C 63.4152 41.2758 63.5922 41.3493 63.766 41.3643 C 63.9398 41.3793 64.2196 41.2423 64.2886 41.4025 C 64.4541 41.7859 64.3232 42.656 64.3232 42.656 "/>
  <path id="ID0.7001032647676766" fill="none" stroke="#646B70" stroke-width="0.523809565966951" stroke-linecap="round" d="M 72.5723 42.2628 C 72.5723 42.2628 72.6341 41.8944 72.6732 41.7121 C 72.71 41.5405 72.8643 41.364 72.8006 41.2005 C 72.7347 41.0312 72.5262 40.9441 72.3532 40.8893 C 72.1868 40.8368 72.0038 40.8938 71.8294 40.8929 C 71.6549 40.8921 71.3888 40.7302 71.3055 40.8835 C 71.1058 41.2503 71.157 42.1286 71.157 42.1286 "/>
  <path id="ID0.7001032647676766" fill="none" stroke="#646B70" stroke-width="0.523809565966951" stroke-linecap="round" d="M 71.0723 42.3128 C 71.0723 42.3128 71.1341 41.9444 71.1732 41.7621 C 71.21 41.5905 71.3643 41.414 71.3006 41.2505 C 71.2347 41.0812 71.0262 40.9941 70.8532 40.9393 C 70.6868 40.8868 70.5038 40.9438 70.3294 40.9429 C 70.1549 40.9421 69.8888 40.7802 69.8055 40.9335 C 69.6058 41.3003 69.657 42.1786 69.657 42.1786 "/>
  <path id="ID0.7001032647676766" fill="none" stroke="#646B70" stroke-width="0.523809565966951" stroke-linecap="round" d="M 69.2223 42.4128 C 69.2223 42.4128 69.2841 42.0444 69.3232 41.8621 C 69.36 41.6905 69.5143 41.514 69.4506 41.3505 C 69.3847 41.1812 69.1762 41.0941 69.0032 41.0393 C 68.8368 40.9868 68.6538 41.0438 68.4794 41.0429 C 68.3049 41.0421 68.0388 40.8802 67.9555 41.0335 C 67.7558 41.4003 67.807 42.2786 67.807 42.2786 "/>
  <path id="ID0.7001032647676766" fill="none" stroke="#646B70" stroke-width="0.523809565966951" stroke-linecap="round" d="M 67.7223 42.5628 C 67.7223 42.5628 67.7841 42.1944 67.8232 42.0121 C 67.86 41.8405 68.0143 41.664 67.9506 41.5005 C 67.8847 41.3312 67.6762 41.2441 67.5032 41.1893 C 67.3368 41.1368 67.1538 41.1938 66.9794 41.1929 C 66.8049 41.1921 66.5388 41.0302 66.4555 41.1835 C 66.2558 41.5503 66.307 42.4286 66.307 42.4286 "/>
  <path id="ID0.7001032647676766" fill="none" stroke="#646B70" stroke-width="0.5238095836591499" stroke-linecap="round" d="M 66.1734 42.7151 C 66.1734 42.7151 66.1963 42.3422 66.2161 42.1569 C 66.2347 41.9824 66.3697 41.7906 66.2891 41.6347 C 66.2059 41.4733 65.9893 41.4085 65.8116 41.3721 C 65.6406 41.3373 65.4646 41.4133 65.291 41.4307 C 65.1175 41.4481 64.8358 41.315 64.769 41.4762 C 64.6089 41.8618 64.7519 42.73 64.7519 42.73 "/>
  <path id="ID0.44800941413268447" fill="none" stroke="#2E3234" stroke-width="0.6130029288982531" stroke-linecap="round" d="M 67.6018 33.8408 L 65.7852 32.552 L 62.4869 33.619 "/>
  <path id="ID0.44800941413268447" fill="none" stroke="#33383A" stroke-width="1.050359700810803" stroke-linecap="round" d="M 66.0542 27.9632 L 67.6523 23.6455 L 72.0204 21.1729 L 78.5859 21.2584 "/>
  <g id="ID0.6897007944062352">
    <path id="ID0.2692581438459456" fill="#7AABFF" stroke="none" d="M 74.2773 24.2826 C 73.9579 24.194 73.6333 24.2438 73.366 24.3949 C 73.0987 24.5461 72.8887 24.7985 72.8 25.1179 C 72.7114 25.4372 72.7612 25.7618 72.9123 26.0291 C 73.0635 26.2965 73.3159 26.5065 73.6353 26.5952 C 73.9546 26.6838 74.2792 26.634 74.5465 26.4828 C 74.8139 26.3317 75.0239 26.0792 75.1126 25.7599 C 75.2012 25.4405 75.1514 25.1159 75.0002 24.8486 C 74.8491 24.5813 74.5966 24.3713 74.2773 24.2826 Z " stroke-width="1.1428571256267517"/>
    <path id="ID0.8070062398910522" fill="#192334" stroke="none" d="M 74.129 24.9694 C 73.9963 24.9326 73.8604 24.9525 73.7493 25.0162 C 73.6375 25.0786 73.5503 25.1847 73.5135 25.3175 C 73.4766 25.4502 73.4966 25.5861 73.5603 25.6971 C 73.6227 25.809 73.7288 25.8961 73.8615 25.933 C 73.9943 25.9698 74.1301 25.9499 74.2412 25.8862 C 74.3531 25.8238 74.4402 25.7177 74.4771 25.5849 C 74.5139 25.4522 74.494 25.3163 74.4302 25.2053 C 74.3679 25.0934 74.2618 25.0063 74.129 24.9694 Z " stroke-width="1.1111111432860943"/>
  </g>
  <g id="ID0.5823970721103251">
    <path id="ID0.2692581438459456" fill="#7AABFF" stroke="none" d="M 58.0616 24.6042 C 58.3796 24.5112 58.7049 24.5565 58.9743 24.7039 C 59.2437 24.8513 59.4572 25.1008 59.5503 25.4189 C 59.6434 25.737 59.5981 26.0622 59.4507 26.3316 C 59.3033 26.601 59.0538 26.8145 58.7357 26.9076 C 58.4176 27.0007 58.0924 26.9554 57.823 26.808 C 57.5536 26.6606 57.34 26.4111 57.2469 26.093 C 57.1538 25.7749 57.1992 25.4497 57.3466 25.1803 C 57.494 24.9109 57.7435 24.6973 58.0616 24.6042 Z " stroke-width="1.1428571111312535"/>
    <path id="ID0.8070062398910522" fill="#192334" stroke="none" d="M 58.3483 25.1488 C 58.4805 25.1101 58.6166 25.1282 58.7286 25.1903 C 58.8413 25.2511 58.9299 25.356 58.9686 25.4883 C 59.0073 25.6205 58.9892 25.7566 58.9271 25.8686 C 58.8663 25.9813 58.7614 26.0699 58.6292 26.1086 C 58.4969 26.1473 58.3608 26.1292 58.2489 26.0671 C 58.1361 26.0063 58.0475 25.9014 58.0088 25.7691 C 57.9701 25.6369 57.9882 25.5008 58.0504 25.3888 C 58.1111 25.2761 58.216 25.1875 58.3483 25.1488 Z " stroke-width="1.1111112314372527"/>
  </g>
  <path id="ID0.023752907756716013" fill="none" stroke="#584E44" stroke-width="1.181434598995261" stroke-linecap="round" d="M 54.394 23.0205 L 57.6925 23.1765 L 60.0743 24.1512 "/>
  <path id="ID0.023752907756716013" fill="none" stroke="#584E44" stroke-width="1.1814346176054924" stroke-linecap="round" d="M 76.3441 22.8996 L 73.048 23.1014 L 70.6801 24.1093 "/>
  <g id="ID0.5880346246995032">
    <path id="ID0.6829322893172503" fill="#1D1E1F" stroke="none" stroke-linecap="round" d="M 113.0337 108.2815 L 109.4807 97.2461 L 115.4041 94.8067 L 121.8489 91.6179 L 127.5047 92.4397 L 132.0625 93.7208 L 134.7989 96.1809 L 141.2593 98.5634 L 140.3823 103.1799 L 138.1862 104.0984 L 137.7494 105.685 L 134.6539 108.5354 L 131.1251 111.529 L 126.3877 112.9032 L 119.4353 111.068 L 113.0337 108.2815 Z " stroke-width="0.8164595292373585"/>
    <g id="ID0.9434720128774643">
      <path id="ID0.6507829907350242" fill="#282828" stroke="none" stroke-linecap="round" d="M 49.4365 107.7114 L 57.2162 87.1021 L 77.4018 90.9839 L 89.7669 93.8944 L 105.7244 96.213 L 112.9672 94.9141 L 113.3124 109.8561 L 106.0714 108.0202 L 96.1116 108.4293 L 83.379 109.4669 L 70.0916 108.3612 L 49.4365 107.7114 Z " stroke-width="0.8164595292373585"/>
      <path id="ID0.9892375003546476" fill="none" stroke="#191919" stroke-width="1.9999999128685972" stroke-linecap="round" d="M 112.5452 109.2448 L 111.765 95.4896 L 102.9938 96.7414 "/>
    </g>
  </g>
  <path id="ID0.7729651997797191" fill="#282828" stroke="none" stroke-linecap="round" d="M 6.0021 90.6318 L 5.5294 70.5808 L 32.3359 77.7936 L 43.718 83.6387 L 53.9327 86.7417 L 63.1802 90.7753 L 56.4162 106.718 L 48.2588 107.7292 L 21.6844 99.0442 L 6.0021 90.6318 Z " stroke-width="1.0371910295989217"/>
  <path id="ID0.4757494777441025" fill="#282828" stroke="none" stroke-linecap="round" d="M 11.1748 63.0743 L 19.3526 59.1466 L 36.4151 60.5114 L 33.4447 87.1845 L 24.064 94.2883 L 19.7356 96.303 L 16.0073 94.6612 L 12.5146 92.3608 L 6.2217 91.0204 L 4.9642 85.6897 L 4.0008 77.6193 L 5.503 68.7818 L 11.1748 63.0743 Z " stroke-width="0.4829924867483265"/>
</svg>