<svg xmlns="http://www.w3.org/2000/svg" xmlns:xlink="http://www.w3.org/1999/xlink" version="1.1" width="480.355543329764" height="329.5246412301546" viewBox="2.0011238085982432 7.143623732304298 480.355543329764 329.5246412301546">
  <defs>
    <linearGradient id="grad_1" y2="1" x2="0">
      <stop offset="0" stop-color="#222325" stop-opacity="1"/>
      <stop offset="1" stop-color="#2E3034" stop-opacity="1"/>
    </linearGradient>
  </defs>
  <!-- Exported by Scratch - http://scratch.mit.edu/ -->
  <path id="ID0.7927394988946617" fill="#0D0D0D" stroke="#0D0D0D" stroke-width="1.2400576897064821" stroke-linecap="round" d="M 338.9597 117.9669 L 357.6463 124.7558 L 367.0585 139.492 L 389.9706 142.4814 L 408.2356 142.7851 L 419.2313 140.61 L 481.5274 160.3323 L 470.9918 162.0351 L 458.363 166.3011 L 449.5072 173.3216 L 440.9265 170.9462 L 436.4039 170.4526 L 429.4269 170.2834 L 422.6822 171.0768 L 414.9553 172.3402 L 410.0418 173.4907 L 403.8678 176.2666 L 400.077 178.4186 L 394.989 183.725 L 391.8402 188.159 L 389.2619 193.3329 L 389.4471 206.3987 L 379.9227 197.1215 L 371.2474 191.5706 L 364.8429 188.7837 L 359.3104 187.6285 L 352.4574 186.3377 L 347.7372 187.5383 L 344.6804 192.7063 L 340.7482 209.5849 L 330.8323 195.3244 L 323.9858 188.5175 L 318.9958 183.657 L 313.6886 180.2822 L 306.7687 176.9474 L 302.1678 175.4571 L 294.9445 174.1737 L 288.317 173.1484 L 281.0042 174.4009 L 270.5751 183.6166 L 268.5588 171.0222 L 265.0273 165.7415 L 257.7232 161.8483 L 251.5671 158.8893 L 244.9924 156.4429 L 230.3019 153.5464 L 276.9481 89.9161 L 338.9597 117.9669 Z "/>
  <path id="ID0.7927394988946617" fill="#0D0D0D" stroke="#0D0D0D" stroke-width="1.2400576752716506" stroke-linecap="round" d="M 151.5594 92.6854 L 131.7146 93.8951 L 118.5092 105.3564 L 95.6902 101.7241 L 78.0891 96.8345 L 68.1621 91.6299 L 2.8304 92.8721 L 12.4503 97.4934 L 23.3503 105.1662 L 29.8511 114.4104 L 38.7531 114.5663 L 43.23 115.3758 L 49.9685 117.1926 L 56.2111 119.8665 L 63.2622 123.2697 L 67.6476 125.7666 L 72.7807 130.1798 L 75.8054 133.3186 L 79.1793 139.8503 L 80.9411 144.9954 L 81.9459 150.6881 L 78.0623 163.1647 L 89.827 156.97 L 99.7204 154.1078 L 106.6524 153.252 L 112.2853 153.7136 L 119.223 154.4196 L 123.4088 156.9098 L 124.8741 162.7326 L 123.8573 180.0333 L 137.4109 169.1711 L 145.907 164.5857 L 152.0706 161.3402 L 158.1172 159.6094 L 165.6987 158.3743 L 170.5334 158.2503 L 177.8241 159.0684 L 184.4702 159.9652 L 191.1274 163.2405 L 198.5142 175.0358 L 204.02 163.5306 L 208.9043 159.4685 L 217.0127 157.807 L 223.7552 156.7156 L 230.7538 156.2346 L 245.6626 157.6239 L 218.9806 83.376 L 151.5594 92.6854 Z "/>
  <g id="ID0.9602425838820636">
    <g id="ID0.17693647183477879">
      <path id="ID0.7729651997797191" fill="#393C40" stroke="none" stroke-linecap="round" d="M 287.8339 91.2898 L 280.408 109.1158 L 296.4634 113.0735 L 309.3784 116.361 L 315.9013 115.4354 L 320.3295 113.9179 L 322.6643 101.6205 L 318.1923 97.9137 L 298.7433 94.2458 L 287.8339 91.2898 Z " stroke-width="0.7788098722909568"/>
      <path id="ID0.9716172609478235" fill="#34373A" stroke="none" stroke-linecap="round" d="M 291.0889 97.3055 L 291.1149 92.1155 L 284.7314 90.9849 L 285.5048 110.4836 L 289.3599 109.1625 L 293.2801 105.2285 L 291.0889 97.3055 Z " stroke-width="0.7788098722909568"/>
      <g id="ID0.38066427363082767">
        <path id="ID0.4757494777441025" fill="#1D1E1F" stroke="none" stroke-linecap="round" d="M 262.5377 88.8416 L 257.1074 95.2857 L 254.5988 110.9982 L 279.8678 114.6453 L 288.4945 107.8697 L 291.3094 104.4437 L 290.6178 100.6917 L 289.2664 96.996 L 289.4192 91.0025 L 284.7779 88.604 L 277.5436 85.821 L 269.0569 85.0798 L 262.5377 88.8416 Z " stroke-width="0.4541860324073076"/>
        <path id="ID0.6007084371522069" fill="none" stroke="#0D0D0D" stroke-width="0.9083720648146152" stroke-linecap="round" d="M 289.5254 91.5602 L 289.3163 96.894 L 290.6805 102.113 L 291.4114 104.4936 L 288.4945 107.8697 L 284.7096 110.6944 "/>
      </g>
    </g>
    <g id="ID0.7397577832452953">
      <path id="ID0.6726378230378032" fill="#34373A" stroke="none" stroke-linecap="round" d="M 315.3872 97.2898 L 316.3543 114.9757 L 318.6553 115.235 L 317.3771 97.8304 L 315.3872 97.2898 Z " stroke-width="0.7788098722909568"/>
      <path id="ID0.6507829907350242" fill="#1D1E1F" stroke="none" stroke-linecap="round" d="M 317.7313 94.8699 L 318.5134 115.4134 L 334.9478 123.0252 L 344.8973 125.728 L 358.7122 132.491 L 364.0513 135.7551 L 370.8509 126.2936 L 365.3405 123.3793 L 357.7171 117.6963 L 348.2484 110.0261 L 340.7998 104.4287 L 317.7313 94.8699 Z " stroke-width="0.7788098722909568"/>
      <path id="ID0.6829322893172503" fill="#1D1E1F" stroke="none" stroke-linecap="round" d="M 370.6723 125.7727 L 361.9345 132.551 L 365.2864 137.6604 L 368.6455 143.6404 L 373.542 146.0374 L 377.8209 147.4818 L 381.3 147.0172 L 387.6701 148.6181 L 389.4642 144.5104 L 388.2291 142.6051 L 388.7391 141.1205 L 387.8355 137.2097 L 386.6677 132.9527 L 383.6766 129.3206 L 377.2136 127.0239 L 370.6723 125.7727 Z " stroke-width="0.7788098722909568"/>
      <path id="ID0.47767175547778606" fill="none" stroke="#0D0D0D" stroke-width="1.5576197445819135" stroke-linecap="round" d="M 321.1238 96.5307 L 317.5065 95.0634 L 318.5477 115.3435 L 330.6809 120.9364 "/>
      <path id="ID0.5922487881034613" fill="#282A2B" stroke="none" stroke-linecap="round" d="M 347.3745 108.3087 L 339.5861 111.9966 L 337.0878 117.277 L 339.5916 125.0928 L 353.0265 130.1523 L 361.4658 129.2977 L 362.9211 126.3249 L 359.1939 117.9968 L 347.3745 108.3087 Z " stroke-width="0.7788098722909568"/>
      <path id="ID0.36820242274552584" fill="#151616" stroke="none" stroke-linecap="round" d="M 346.9981 114.7457 L 343.3668 121.9862 L 354.3597 124.5061 L 354.9232 123.1778 L 346.9981 114.7457 Z " stroke-width="0.7788098722909568"/>
      <path id="ID0.13569410238415003" fill="none" stroke="#232425" stroke-width="1.5576197445819135" stroke-linecap="round" d="M 356.7689 118.8363 L 360.5274 126.7461 L 352.0404 128.141 "/>
      <path id="ID0.024502143263816833" fill="none" stroke="#0D0D0D" stroke-width="1.5576197445819135" stroke-linecap="round" d="M 346.8778 108.5747 L 339.6773 111.77 L 336.9335 116.8435 L 339.403 124.7293 L 347.1244 127.5553 "/>
    </g>
  </g>
  <path id="ID0.3809091211296618" fill="#393D40" stroke="none" stroke-linecap="round" d="M 241.5318 186.0426 L 261.4204 165.5749 L 277.8734 200.7068 L 280.7989 211.2545 L 282.0862 229.8214 L 274.9196 235.298 L 263.2305 241.0264 L 256.0327 221.4906 L 253.7785 210.2572 L 241.5318 186.0426 Z " stroke-width="0.7305889714181204"/>
  <g id="ID0.8669879510998726">
    <path id="ID0.5368814701214433" fill="#292D2E" stroke="none" stroke-linecap="round" d="M 246.9717 315.8574 L 250.9603 307.4685 L 256.5947 298.8715 L 265.74 305.9569 L 275.9373 314.9699 L 291.9337 327.46 L 292.1702 334.0599 L 267.5248 332.0714 L 246.923 325.7188 L 246.9717 315.8574 Z " stroke-width="0.7702165535018164"/>
    <path id="ID0.05466862628236413" fill="#292D2E" stroke="none" stroke-linecap="round" d="M 261.1945 227.7027 L 287.9247 226.9976 L 280.8573 245.1435 L 278.6991 249.9632 L 275.9725 267.8997 L 268.0004 307.8648 L 252.2139 307.882 L 252.6542 285.6372 L 250.9623 276.741 L 250.7526 267.2239 L 254.4128 254.0558 L 255.8688 241.8209 L 261.1945 227.7027 Z " stroke-width="0.7305889802345722"/>
    <path id="ID0.4490455654449761" fill="none" stroke="#272A2B" stroke-width="1.6585523629670877" stroke-linecap="round" d="M 260.8971 227.8892 L 287.6628 226.7993 L 278.0401 250.2356 "/>
    <path id="ID0.10446935473009944" fill="none" stroke="#242728" stroke-width="1.6585523629670877" stroke-linecap="round" d="M 276.2465 262.4415 L 274.0936 279.1416 L 262.7529 285.1813 "/>
    <path id="ID0.42170455446466804" fill="none" stroke="#242728" stroke-width="1.6585523629670877" stroke-linecap="round" d="M 272.8611 280.1672 L 269.6348 294.9522 L 258.0527 301.1582 "/>
    <path id="ID0.047098892275244" fill="none" stroke="#242728" stroke-width="1.6585523629670877" stroke-linecap="round" d="M 256.1651 241.6464 L 255.2315 245.4743 L 258.6503 254.7987 "/>
  </g>
  <path id="ID0.3809091211296618" fill="#3E4246" stroke="none" stroke-linecap="round" d="M 211.742 162.1259 L 237.494 169.4564 L 249.823 206.2388 L 251.5234 217.0518 L 250.6798 235.6442 L 242.9341 240.2656 L 230.6668 244.6202 L 224.8138 223.6496 L 219.9408 211.15 L 211.742 162.1259 Z " stroke-width="0.7305889569749423"/>
  <g id="ID0.38464318960905075">
    <path id="ID0.5368814701214433" fill="#303436" stroke="none" stroke-linecap="round" d="M 206.1405 314.0082 L 210.8006 305.9729 L 217.1178 297.8643 L 225.6543 305.6726 L 235.082 315.4877 L 250.0056 329.2417 L 249.7026 335.839 L 225.3018 331.8456 L 205.2871 323.8327 L 206.1405 314.0082 Z " stroke-width="0.7702165408800234"/>
    <path id="ID0.05466862628236413" fill="#303436" stroke="none" stroke-linecap="round" d="M 227.6167 226.7512 L 254.3152 228.2301 L 245.7904 245.7386 L 243.246 250.3661 L 239.0647 268.0202 L 227.8573 307.2013 L 212.1221 305.9301 L 214.3765 283.7953 L 213.4162 274.7908 L 213.984 265.2883 L 218.7068 252.4629 L 221.1565 240.3877 L 227.6167 226.7512 Z " stroke-width="0.730588969250632"/>
    <path id="ID0.4490455654449761" fill="none" stroke="#272A2B" stroke-width="1.6585523236336421" stroke-linecap="round" d="M 227.2662 227.5653 L 254.0315 228.6635 L 242.5282 251.2363 "/>
    <path id="ID0.10446935473009944" fill="none" stroke="#242728" stroke-width="1.6585523236336421" stroke-linecap="round" d="M 239.7443 263.2551 L 236.2356 279.7237 L 224.4398 284.8177 "/>
    <path id="ID0.42170455446466804" fill="none" stroke="#242728" stroke-width="1.6585523236336421" stroke-linecap="round" d="M 234.9235 280.6453 L 230.5013 295.1177 L 218.4513 300.3577 "/>
    <path id="ID0.047098892275244" fill="none" stroke="#242728" stroke-width="1.6585523236336421" stroke-linecap="round" d="M 221.4001 240.8299 L 220.1572 244.5689 L 222.8036 254.1412 "/>
  </g>
  <g id="ID0.9602425838820636">
    <g id="ID0.17693647183477879">
      <path id="ID0.7729651997797191" fill="#3E4246" stroke="none" stroke-linecap="round" d="M 207.0455 77.0235 L 211.027 96.8725 L 193.7091 97.6512 L 179.7573 98.3843 L 173.2406 96.0959 L 168.9989 93.6282 L 169.1187 80.5066 L 174.4761 77.6121 L 195.2236 77.8268 L 207.0455 77.0235 Z " stroke-width="0.8164595862559434"/>
      <path id="ID0.9716172609478235" fill="#393C40" stroke="none" stroke-linecap="round" d="M 202.4662 82.5413 L 203.503 77.2001 L 210.2977 77.3459 L 205.5066 97.2343 L 201.8138 95.086 L 198.5896 90.238 L 202.4662 82.5413 Z " stroke-width="0.8164595862559434"/>
      <g id="ID0.38066427363082767">
        <path id="ID0.4757494777441025" fill="#1D1E1F" stroke="none" stroke-linecap="round" d="M 233.5804 79.6994 L 237.8426 87.4375 L 237.2017 104.1059 L 210.4748 102.6769 L 202.9942 93.9428 L 200.8022 89.8436 L 202.2823 86.1279 L 204.429 82.6052 L 205.5002 76.4119 L 210.7635 74.8972 L 218.7716 73.5185 L 227.6488 74.4957 L 233.5804 79.6994 Z " stroke-width="0.4761425566211174"/>
        <path id="ID0.6007084371522069" fill="none" stroke="#0D0D0D" stroke-width="0.9522851132422347" stroke-linecap="round" d="M 205.2767 76.9635 L 204.3986 82.4902 L 201.9265 87.5763 L 200.6871 89.8741 L 202.9942 93.9428 L 206.3066 97.6227 "/>
      </g>
    </g>
    <g id="ID0.7397577832452953">
      <path id="ID0.6726378230378032" fill="#393C40" stroke="none" stroke-linecap="round" d="M 177.5453 77.4736 L 172.9265 95.4586 L 170.5077 95.2536 L 175.3887 77.6216 L 177.5453 77.4736 Z " stroke-width="0.8164595862559434"/>
      <path id="ID0.6507829907350242" fill="#1D1E1F" stroke="none" stroke-linecap="round" d="M 175.5738 74.5772 L 170.5595 95.538 L 152.1032 99.9957 L 141.3201 100.7356 L 125.7307 104.8575 L 119.5726 107.1191 L 114.5208 95.9982 L 120.7833 94.1313 L 129.7858 89.8508 L 141.0926 83.9054 L 149.8977 79.6771 L 175.5738 74.5772 Z " stroke-width="0.8164595862559434"/>
      <path id="ID0.6829322893172503" fill="#1D1E1F" stroke="none" stroke-linecap="round" d="M 114.8112 95.4992 L 122.4055 104.2588 L 117.9123 108.8249 L 113.2331 114.2847 L 107.7078 115.7456 L 103.0126 116.3537 L 99.5308 115.163 L 92.6536 115.5035 L 91.6509 110.9126 L 93.3112 109.2069 L 93.0911 107.576 L 94.8216 103.7404 L 96.8946 99.6031 L 100.7142 96.4819 L 107.8296 95.445 L 114.8112 95.4992 Z " stroke-width="0.8164595862559434"/>
      <path id="ID0.47767175547778606" fill="none" stroke="#0D0D0D" stroke-width="1.6329191725118868" stroke-linecap="round" d="M 171.7456 75.5894 L 175.7653 74.8221 L 170.5387 95.4591 L 156.9181 98.7226 "/>
      <path id="ID0.5922487881034613" fill="#282A2B" stroke="none" stroke-linecap="round" d="M 142.4523 82.2932 L 149.704 87.6809 L 151.1904 93.6218 L 147.0144 101.1442 L 132.1649 103.5926 L 123.6635 100.9845 L 122.7765 97.6298 L 128.3152 89.8315 L 142.4523 82.2932 Z " stroke-width="0.8164595862559434"/>
      <path id="ID0.36820242274552584" fill="#151616" stroke="none" stroke-linecap="round" d="M 141.3827 89.0791 L 143.6322 97.2673 L 131.8139 97.6052 L 131.5067 96.1241 L 141.3827 89.0791 Z " stroke-width="0.8164595862559434"/>
      <path id="ID0.13569410238415003" fill="none" stroke="#232425" stroke-width="1.6329191725118868" stroke-linecap="round" d="M 130.5271 91.2171 L 125.0419 98.5791 L 133.4816 101.7525 "/>
      <path id="ID0.024502143263816833" fill="none" stroke="#0D0D0D" stroke-width="1.6329191725118868" stroke-linecap="round" d="M 142.7992 82.6941 L 149.5473 87.4548 L 151.3286 93.2333 L 147.1734 100.8347 L 138.6559 102.1579 "/>
    </g>
  </g>
  <g id="ID0.9157347986474633">
    <path id="ID0.7477802094072104" fill="#363A3D" stroke="none" stroke-linecap="round" d="M 273.611 133.1223 L 254.8364 126.8673 L 248.0893 167.4972 L 263.0667 179.0343 L 269.3383 155.2186 L 273.611 133.1223 Z " stroke-width="0.4761425839687243"/>
    <path id="ID0.7477802094072104" fill="#363A3D" stroke="none" stroke-linecap="round" d="M 214.0461 123.2344 L 237.6473 124.2576 L 230.9002 164.8876 L 212.9979 170.9646 L 211.7107 145.2904 L 214.0461 123.2344 Z " stroke-width="0.4761425839687243"/>
    <path id="ID0.4270821204409003" fill="#3E4246" stroke="none" stroke-linecap="round" d="M 217.6623 103.4905 L 223.4675 91.7846 L 226.6541 86.4012 L 234.2631 80.5454 L 264.6777 87.0441 L 270.7865 92.4025 L 272.9418 96.8631 L 277.998 109.2866 L 275.5774 119.5032 L 273.741 124.7489 L 274.2539 131.8327 L 273.8266 137.3124 L 270.5819 143.7722 L 268.1269 148.6738 L 265.4316 157.6381 L 263.3232 179.4905 L 256.9048 186.7506 L 251.1663 192.0964 L 238.323 195.466 L 227.3808 190.584 L 224.6055 183.3176 L 220.7735 176.1653 L 212.8492 171.712 L 215.8755 146.5128 L 215.7932 139.7418 L 213.156 127.72 L 213.6388 116.8196 L 217.6623 103.4905 Z " stroke-width="0.4761425839687243"/>
    <path id="ID0.052435632329434156" fill="#393C40" stroke="none" stroke-linecap="round" d="M 221.4851 154.6931 L 225.8691 155.4694 L 231.8364 159.7907 L 236.8661 160.457 L 242.3745 163.1817 L 246.6835 162.8113 L 248.4055 162.6146 L 262.984 161.5845 L 262.7981 164.884 L 253.6608 167.5899 L 247.8401 166.3096 L 241.8218 168.3992 L 235.8231 163.8314 L 229.4118 163.2011 L 220.2893 157.8249 L 221.4851 154.6931 Z " stroke-width="0.4761425839687243"/>
    <path id="ID0.4987568911164999" fill="none" stroke="#27282B" stroke-width="0.9522851679374486" stroke-linecap="round" d="M 233.9489 81.1799 L 226.5938 86.2331 L 221.6678 95.551 "/>
    <path id="ID0.2889464790932834" fill="none" stroke="#27282B" stroke-width="0.9522851679374486" stroke-linecap="round" d="M 265.89 87.9321 L 270.9026 92.6258 L 275.0181 102.7211 "/>
    <path id="ID0.8373676878400147" fill="#000000" stroke="#2C2F31" stroke-width="0.6155104059455094" stroke-linecap="round" d="M 235.3949 94.6234 L 235.9853 93.1694 L 232.2458 93.4751 L 226.9119 95.9833 L 222.0169 100.2982 L 218.6838 105.459 L 224.1185 104.0665 L 228.772 104.7183 L 231.3344 106.0681 L 233.3569 109.4297 L 235.5991 108.7604 L 239.6013 109.1314 L 243.8876 110.888 L 247.1661 114.6456 L 248.7207 117.9965 L 251.3373 115.3621 L 255.4944 112.8647 L 259.7881 112.1163 L 264.8807 112.9301 L 266.5938 113.8047 L 268.7714 111.0084 L 270.9057 110.0836 L 273.389 111.0267 L 275.8974 113.0711 L 275.0914 109.0797 L 273.4686 104.8544 L 271.1438 101.4351 L 268.3727 98.7141 L 264.0576 97.1086 L 265.9037 99.3401 L 265.5725 101.0784 L 263.6577 102.9066 L 259.9362 103.529 L 256.7655 103.3165 L 254.167 102.978 L 252.2598 99.0117 L 251.493 100.9803 L 250.057 100.7067 L 248.9163 98.0614 L 247.2929 102.0598 L 243.244 101.5233 L 239.3211 99.9142 L 236.2405 97.9957 L 235.3949 94.6234 Z "/>
    <path id="ID0.5698574706912041" fill="none" stroke="#313537" stroke-width="0.9522851679374486" stroke-linecap="round" d="M 221.442 154.517 L 220.3283 157.59 L 229.3923 163.3185 L 236.1442 164.0777 L 241.6065 168.2428 "/>
    <path id="ID0.5698574706912041" fill="none" stroke="#313537" stroke-width="0.8933066562151265" stroke-linecap="round" d="M 262.7304 161.6221 L 262.7157 164.8776 L 253.5368 167.5766 L 247.7604 166.2554 L 242.0131 168.559 "/>
    <path id="ID0.8947288258932531" fill="#393C40" stroke="none" stroke-linecap="round" d="M 224.6915 142.9418 L 231.6392 143.9749 L 238.7721 147.09 L 243.4569 153.4669 L 237.1758 147.9833 L 226.8061 144.7409 L 221.2614 146.8851 L 224.6915 142.9418 Z " stroke-width="0.4761425839687243"/>
    <path id="ID0.8947288258932531" fill="#393C40" stroke="none" stroke-linecap="round" d="M 262.7617 150.2898 L 256.6476 149.1677 L 249.783 149.7363 L 244.0356 153.7368 L 250.8643 150.941 L 260.4762 151.1917 L 264.5064 154.5733 L 262.7617 150.2898 Z " stroke-width="0.42137391058675056"/>
    <path id="ID0.9897695370018482" fill="#393C40" stroke="none" stroke-linecap="round" d="M 226.0884 155.6023 L 219.7079 154.0601 L 220.8911 149.5506 L 221.4921 153.198 L 226.4946 154.1735 L 231.9805 158.6321 L 237.4407 159.1768 L 241.2462 161.2568 L 243.8954 153.7327 L 242.5234 163.4478 L 237.3319 160.5585 L 231.531 159.5952 L 226.0884 155.6023 Z " stroke-width="0.4761425839687243"/>
    <path id="ID0.9897695370018482" fill="#393C40" stroke="none" stroke-linecap="round" d="M 257.9162 161.1362 L 263.4506 161.6063 L 263.8004 157.2877 L 262.2741 160.3336 L 258.002 159.7589 L 252.3445 162.1187 L 247.8308 161.0325 L 244.197 161.7757 L 244.242 154.3765 L 242.549 163.3425 L 247.5211 162.2829 L 252.4269 163.0975 L 257.9162 161.1362 Z " stroke-width="0.4232251200282832"/>
    <path id="ID0.3524594851769507" fill="#393C40" stroke="none" stroke-linecap="round" d="M 242.0583 123.0765 L 247.5239 126.2043 L 252.2979 124.6321 L 248.5503 127.871 L 247.6645 139.0183 L 256.7529 139.6587 L 245.8812 141.4733 L 235.1416 134.9356 L 244.3687 138.5192 L 245.8181 127.3208 L 242.0583 123.0765 Z " stroke-width="0.4761425839687243"/>
    <path id="ID0.9214867809787393" fill="#393C40" stroke="none" stroke-linecap="round" d="M 225.3272 139.1136 L 228.9532 135.4442 L 233.8063 135.2848 L 227.2724 139.0264 L 226.5578 141.8761 L 231.5289 142.7499 L 239.0579 147.2581 L 230.5159 143.909 L 224.7385 142.9496 L 225.3272 139.1136 Z " stroke-width="0.4761425839687243"/>
    <path id="ID0.9214867809787393" fill="#393C40" stroke="none" stroke-linecap="round" d="M 263.0975 146.1749 L 261.0695 141.7617 L 256.9196 140.1513 L 261.4412 145.5084 L 261.1984 148.3008 L 256.6342 147.589 L 249.6133 149.3019 L 257.1603 148.943 L 262.4478 149.8211 L 263.0975 146.1749 Z " stroke-width="0.4451788576535537"/>
    <path id="ID0.8679121839813888" fill="#2C2F31" stroke="none" stroke-linecap="round" d="M 244.1665 122.3081 L 247.659 124.5291 L 251.2161 123.4547 L 251.9995 124.5501 L 247.6876 126.5369 L 242.3707 123.3855 L 244.1665 122.3081 Z " stroke-width="0.4761425839687243"/>
    <path id="ID0.24770551454275846" fill="none" stroke="#313537" stroke-width="0.9522851679374486" stroke-linecap="round" d="M 248.4321 121.1161 L 252.4267 125.3994 L 259.7467 127.0977 L 267.4375 127.2888 L 273.2284 124.3892 "/>
    <path id="ID0.20603158557787538" fill="none" stroke="#313537" stroke-width="0.9522851679374486" stroke-linecap="round" d="M 216.2175 111.6598 L 222.2682 118.0946 L 233.9541 123.2931 L 241.2147 123.8955 L 247.9644 121.0344 "/>
    <g id="ID0.5272086253389716">
      <path id="ID0.24770551454275846" fill="none" stroke="#363A3D" stroke-width="0.9522851066969494" stroke-linecap="round" d="M 214.2397 144.2903 L 224.5284 142.7891 "/>
      <path id="ID0.24770551454275846" fill="none" stroke="#363A3D" stroke-width="0.9522851066969494" stroke-linecap="round" d="M 213.6599 132.1226 L 234.8284 129.3391 "/>
    </g>
    <g id="ID0.5272086253389716">
      <path id="ID0.24770551454275846" fill="none" stroke="#363A3D" stroke-width="0.9522850816809121" stroke-linecap="round" d="M 269.1664 152.4277 L 262.6218 149.4835 "/>
      <path id="ID0.24770551454275846" fill="none" stroke="#363A3D" stroke-width="0.9522850816809121" stroke-linecap="round" d="M 271.5149 141.2468 L 258.6074 134.2772 "/>
    </g>
    <g id="ID0.7887678607366979">
      <path id="ID0.753661650698632" fill="none" stroke="#313537" stroke-width="0.9522851066969494" stroke-linecap="round" d="M 242.5085 123.2719 L 247.2853 126.4784 L 251.7068 124.558 "/>
      <g id="ID0.8167418288066983">
        <path id="ID0.9553722990676761" fill="none" stroke="#313537" stroke-width="1.0409107773624173" stroke-linecap="round" d="M 245.4508 141.221 L 240.2648 138.1878 L 234.4861 135.2976 L 229.6237 135.4554 L 225.4611 139.1082 L 224.8956 142.5136 "/>
        <path id="ID0.5982440118677914" fill="none" stroke="#313537" stroke-width="0.8540413552749858" stroke-linecap="round" d="M 234.8712 134.9374 L 234.5641 129.5207 L 240.8871 123.4163 "/>
      </g>
      <g id="ID0.7324484633281827">
        <path id="ID0.04993448918685317" fill="none" stroke="#313537" stroke-width="0.9522851066969494" stroke-linecap="round" d="M 247.3048 126.361 L 246.2933 136.8116 L 244.072 153.0946 L 241.6353 169.2212 "/>
        <g id="ID0.8167418288066983">
          <path id="ID0.9553722990676761" fill="none" stroke="#313537" stroke-width="0.9699703335790443" stroke-linecap="round" d="M 245.7793 141.1442 L 250.969 140.6305 L 256.638 139.6412 L 260.6215 141.268 L 262.9633 146.0009 L 262.3978 149.4063 "/>
          <path id="ID0.5982440118677914" fill="none" stroke="#313537" stroke-width="0.7916616451019644" stroke-linecap="round" d="M 256.4554 139.2953 L 258.3554 134.2451 L 254.9671 126.528 "/>
          <path id="ID0.3567589442245662" fill="none" stroke="#313537" stroke-width="0.8967655480907116" stroke-linecap="round" d="M 243.8348 153.713 L 249.7108 149.6449 L 257.2525 148.9667 L 262.7058 149.8723 L 264.1556 154.819 L 263.2943 161.7952 L 257.7033 161.5908 L 251.619 163.7177 L 246.8038 162.6767 L 242.3515 163.7957 L 236.9979 160.3726 L 231.4436 159.6916 L 225.6091 155.5854 L 219.5085 153.8484 L 220.9895 146.975 L 224.2701 142.8138 L 230.467 143.8429 L 238.3763 147.087 L 243.3037 152.9491 Z "/>
        </g>
      </g>
    </g>
    <g id="ID0.9312638868577778">
      <path id="ID0.2888958193361759" fill="#393C40" stroke="none" stroke-linecap="round" d="M 222.6431 163.1172 L 232.3807 166.8471 L 231.3162 169.6261 L 221.5786 165.8962 L 222.6431 163.1172 Z " stroke-width="0.4761425490144655"/>
      <path id="ID0.2888958193361759" fill="#393C40" stroke="none" stroke-linecap="round" d="M 212.3629 159.3377 L 223.2807 163.6471 L 222.2162 166.4261 L 212.4786 162.6962 L 212.3629 159.3377 Z " stroke-width="0.4761425490144655"/>
      <g id="ID0.36424446757882833">
        <path id="ID0.7359844641759992" fill="#8A7B59" stroke="none" d="M 225.5751 162.8518 L 227.0781 163.1015 L 226.0563 169.2547 L 224.5533 169.0051 L 225.5751 162.8518 Z " stroke-width="0.4761425533484747"/>
        <path id="ID0.7359844641759992" fill="#8A7B59" stroke="none" d="M 223.7751 162.1518 L 225.2781 162.4015 L 224.2563 168.5547 L 222.7533 168.3051 L 223.7751 162.1518 Z " stroke-width="0.4761425533484747"/>
        <path id="ID0.7359844641759992" fill="#8A7B59" stroke="none" d="M 221.9751 161.1518 L 223.4781 161.4015 L 222.4563 167.5547 L 220.9533 167.3051 L 221.9751 161.1518 Z " stroke-width="0.4761425533484747"/>
        <path id="ID0.7359844641759992" fill="#8A7B59" stroke="none" d="M 227.3751 163.6518 L 228.8781 163.9015 L 227.8563 170.0547 L 226.3533 169.8051 L 227.3751 163.6518 Z " stroke-width="0.4761425533484747"/>
      </g>
      <g id="ID0.1049797898158431">
        <path id="ID0.08871637750416994" fill="#8A7B59" stroke="none" stroke-linecap="round" d="M 214.186 158.9027 L 220.332 160.9852 L 219.3685 166.4964 L 213.4613 164.4295 L 214.186 158.9027 Z " stroke-width="0.4761425533484747"/>
        <path id="ID0.13805592898279428" fill="#76694C" stroke="none" stroke-linecap="round" d="M 214.0285 158.6035 L 220.4798 160.7367 L 220.1018 163.594 L 213.6426 161.363 L 214.0285 158.6035 Z " stroke-width="0.4761425533484747"/>
        <path id="ID0.3221200187690556" fill="#61563F" stroke="none" stroke-linecap="round" d="M 216.4699 161.2587 L 217.2773 161.7595 L 217.066 163.5055 L 216.1778 163.0175 L 216.4699 161.2587 Z " stroke-width="0.5167888696955751"/>
        <path id="ID0.1420820001512766" fill="#BAA578" stroke="none" stroke-linecap="round" d="M 218.8427 165.4586 L 219.7813 164.1665 L 219.4499 166.4524 L 213.437 164.4403 L 218.8427 165.4586 Z " stroke-width="0.4761425533484747"/>
      </g>
      <path id="ID0.2888958193361759" fill="#393C40" stroke="none" stroke-linecap="round" d="M 259.7114 169.6116 L 252.0912 170.1841 L 252.102 172.7571 L 259.7222 172.1846 L 259.7114 169.6116 Z " stroke-width="0.38104699061083686"/>
      <path id="ID0.2888958193361759" fill="#393C40" stroke="none" stroke-linecap="round" d="M 266.4603 168.9152 L 259.2412 169.6841 L 259.252 172.2571 L 265.5671 171.7209 L 266.4603 168.9152 Z " stroke-width="0.38104699061083686"/>
      <path id="ID0.7359844641759992" fill="#8A7B59" stroke="none" d="M 257.8604 168.2896 L 256.7683 168.1083 L 255.8795 173.4609 L 256.9716 173.6423 L 257.8604 168.2896 Z " stroke-width="0.38160280584417416"/>
      <path id="ID0.7359844641759992" fill="#8A7B59" stroke="none" d="M 259.3104 168.0396 L 258.2183 167.8583 L 257.3295 173.2109 L 258.4216 173.3923 L 259.3104 168.0396 Z " stroke-width="0.38160280584417416"/>
      <path id="ID0.7359844641759992" fill="#8A7B59" stroke="none" d="M 260.8604 167.7896 L 259.7683 167.6083 L 258.8795 172.9609 L 259.9716 173.1423 L 260.8604 167.7896 Z " stroke-width="0.38160280584417416"/>
      <path id="ID0.7359844641759992" fill="#8A7B59" stroke="none" d="M 256.3604 168.5896 L 255.2683 168.4083 L 254.3795 173.7609 L 255.4716 173.9423 L 256.3604 168.5896 Z " stroke-width="0.38160280584417416"/>
      <g id="ID0.1049797898158431">
        <path id="ID0.08871637750416994" fill="#8A7B59" stroke="none" stroke-linecap="round" d="M 266.838 167.9328 L 261.8023 168.078 L 260.9915 173.1851 L 265.8495 172.9881 L 266.838 167.9328 Z " stroke-width="0.4054529774502679"/>
        <path id="ID0.13805592898279428" fill="#76694C" stroke="none" stroke-linecap="round" d="M 267.0889 167.7473 L 261.8176 167.8534 L 261.3089 170.4679 L 266.6128 170.278 L 267.0889 167.7473 Z " stroke-width="0.4054529774502679"/>
        <path id="ID0.3221200187690556" fill="#61563F" stroke="none" stroke-linecap="round" d="M 264.7157 169.4082 L 263.9919 169.6269 L 263.6668 171.2192 L 264.4458 171.0338 L 264.7157 169.4082 Z " stroke-width="0.4400648170555984"/>
        <path id="ID0.1420820001512766" fill="#BAA578" stroke="none" stroke-linecap="round" d="M 261.6987 172.4455 L 261.3711 171.0528 L 260.9852 173.1524 L 265.9049 173.0325 L 261.6987 172.4455 Z " stroke-width="0.4054529774502679"/>
      </g>
      <g id="ID0.6836685389280319">
        <path id="ID0.09357938077300787" fill="#857656" stroke="none" d="M 233.3453 164.1053 L 251.0769 167.0498 L 250.0239 173.3909 L 232.2923 170.4464 L 233.3453 164.1053 Z " stroke-width="0.4283320793639229"/>
        <path id="ID0.6492703901603818" fill="#7C6E50" stroke="none" stroke-linecap="round" d="M 233.6915 166.3492 L 241.287 170.7478 L 250.5072 169.1416 L 249.809 173.3456 L 232.9934 170.5531 L 233.6915 166.3492 Z " stroke-width="0.4761425533484747"/>
        <g id="ID0.9254062357358634">
          <g id="ID0.49943465692922473">
            <path id="ID0.140373723115772" fill="#968561" stroke="none" d="M 249.789 165.6244 L 254.8384 166.4629 L 253.3564 175.3874 L 248.307 174.5489 L 249.789 165.6244 Z " stroke-width="0.4761425533484747"/>
            <path id="ID0.8286363878287375" fill="#BAA578" stroke="none" stroke-linecap="round" d="M 249.7935 165.4356 L 254.9213 166.5285 L 250.7101 166.6014 L 249.3492 168.5474 L 249.7935 165.4356 Z " stroke-width="0.4761425533484747"/>
            <path id="ID0.7362233307212591" fill="#8A7B59" stroke="none" stroke-linecap="round" d="M 248.8186 171.4518 L 251.4881 171.9434 L 254.305 169.9496 L 253.3885 175.4686 L 248.2921 174.6223 L 248.8186 171.4518 Z " stroke-width="0.4761425533484747"/>
          </g>
          <g id="ID0.49943465692922473">
            <path id="ID0.140373723115772" fill="#968561" stroke="none" d="M 234.8756 163.389 L 229.8262 162.5505 L 228.3442 171.475 L 233.3936 172.3135 L 234.8756 163.389 Z " stroke-width="0.4761425533484747"/>
            <path id="ID0.8286363878287375" fill="#BAA578" stroke="none" stroke-linecap="round" d="M 234.9665 163.2066 L 229.7607 162.5834 L 233.7223 164.0136 L 234.3812 166.295 L 234.9665 163.2066 Z " stroke-width="0.4761425533484747"/>
            <path id="ID0.7362233307212591" fill="#8A7B59" stroke="none" stroke-linecap="round" d="M 233.9446 169.215 L 231.2594 168.8174 L 229.2382 166.0201 L 228.3217 171.5392 L 233.4181 172.3855 L 233.9446 169.215 Z " stroke-width="0.4761425533484747"/>
          </g>
        </g>
      </g>
    </g>
  </g>
  <g id="ID0.8333355090580881">
    <path id="ID0.9286923445761204" fill="#27282B" stroke="none" stroke-linecap="round" d="M 245.2494 47.9176 L 263.6514 52.0735 L 260.6325 76.2451 L 274.6883 85.497 L 250.442 93.4606 L 215.9554 75.7899 L 237.1473 68.1537 L 245.2494 47.9176 Z " stroke-width="0.47614259146178506"/>
    <path id="ID0.5448851804248989" fill="none" stroke="#1D1E1F" stroke-width="0.9522851829235701" stroke-linecap="round" d="M 239.3866 62.6566 L 237.3631 67.9925 L 253.1544 78.2173 L 260.3361 76.2984 "/>
    <path id="ID0.262191956397146" fill="none" stroke="#1D1E1F" stroke-width="0.9522851829235701" stroke-linecap="round" d="M 241.4101 67.9531 L 253.1049 75.9009 L 256.234 75.2233 "/>
  </g>
  <g id="ID0.3450673264451325">
    <g id="ID0.9831569031812251">
      <path id="ID0.0877610077150166" fill="#2E3034" stroke="none" stroke-linecap="round" d="M 279.5088 25.9009 L 278.9304 12.0223 L 270.6697 39.3287 L 278.0124 41.55 L 279.5088 25.9009 Z " stroke-width="0.5866066459857178"/>
      <path id="ID0.796130308881402" fill="#242628" stroke="none" stroke-linecap="round" d="M 279.7721 26.0548 L 278.8533 12.0732 L 278.2503 26.3481 L 274.8391 40.8698 L 277.9638 41.5068 L 279.7721 26.0548 Z " stroke-width="0.5866066459857178"/>
    </g>
    <g id="ID0.9831569031812251">
      <path id="ID0.0877610077150166" fill="#2E3034" stroke="none" stroke-linecap="round" d="M 256.5836 19.215 L 264.7581 7.9843 L 256.4974 35.2908 L 249.1547 33.0694 L 256.5836 19.215 Z " stroke-width="0.5866066459857178"/>
      <path id="ID0.796130308881402" fill="#242628" stroke="none" stroke-linecap="round" d="M 256.1907 19.1006 L 264.7056 7.9729 L 257.2948 20.1883 L 252.0335 33.8078 L 249.1307 32.9639 L 256.1907 19.1006 Z " stroke-width="0.5866066459857178"/>
    </g>
    <path id="ID0.8999492498114705" fill="#2E3034" stroke="none" stroke-linecap="round" d="M 271.6604 29.8495 C 275.7372 31.5833 279.4815 35.5477 280.3981 39.8817 C 281.4432 44.8294 277.9577 49.6241 276.7981 54.4924 C 276.4707 56.1731 276.7217 58.0802 275.9349 59.5391 C 274.3334 62.5062 271.8541 64.9207 269.8943 67.6637 C 268.61 69.4615 267.7803 71.6706 266.1104 73.1537 C 264.1986 74.9288 262.0059 77.5398 259.3857 77.2233 C 255.5013 76.7536 252.1326 73.8109 249.339 71.132 C 247.0443 68.9309 245.1449 66.0454 244.4408 62.9359 C 243.2317 57.195 242.4193 51.0358 243.754 45.2922 C 245.2338 38.9252 246.8322 30.9816 252.748 27.8435 C 258.1331 24.728 265.5992 27.2749 271.6604 29.8495 Z " stroke-width="0.5080372780427557"/>
    <path id="ID0.2441388238221407" fill="#AB8E85" stroke="none" d="M 262.3246 52.9675 C 266.1816 54.3088 272.304 52.8546 274.1172 56.2726 C 275.717 59.4633 271.0855 63.1411 269.1505 66.1849 C 267.2245 69.2117 265.4832 72.5909 262.515 74.6739 C 261.126 75.5789 258.9753 75.003 257.3978 74.2411 C 254.562 72.8676 252.0031 70.7525 250.0382 68.2872 C 248.0046 65.7367 245.1965 62.7669 245.5834 59.5146 C 246.074 55.3949 248.272 50.4233 252.0794 48.8841 C 255.5387 47.5807 258.8558 51.7607 262.3246 52.9675 Z " stroke-width="1.255840048995254"/>
    <path id="ID0.46721756737679243" fill="#A2887F" stroke="none" stroke-linecap="round" d="M 247.9656 49.8199 L 249.3717 50.9618 L 274.3792 58.1289 L 266.003 60.9028 L 250.6938 53.6972 L 251.0722 56.3063 L 249.6898 61.7532 L 251.0851 69.6857 L 248.6431 61.9673 L 247.9656 49.8199 Z " stroke-width="0.5080372780427557"/>
    <path id="ID0.8256730306893587" fill="none" stroke="#937B73" stroke-width="1.0160745560855113" stroke-linecap="round" d="M 254.9986 64.252 C 254.9986 64.252 257.7548 64.4627 259.1168 64.6751 C 259.4574 64.7282 259.7587 64.9006 260.0673 65.0423 C 260.3808 65.1865 260.6474 65.4423 260.981 65.531 C 261.6421 65.7071 262.3396 65.7122 263.0143 65.8276 C 263.3489 65.8848 263.6853 65.9468 264.0089 66.0489 C 264.3331 66.1512 264.6574 66.2706 264.952 66.4404 C 265.4366 66.7196 266.3367 67.39 266.3367 67.39 "/>
    <path id="ID0.7592270169407129" fill="none" stroke="#937B73" stroke-width="1.0160745560855113" stroke-linecap="round" d="M 262.8457 67.9931 C 262.8457 67.9931 262.1506 68.1432 261.8041 68.1026 C 261.4677 68.0635 261.1785 67.8248 260.8462 67.7598 C 260.5119 67.6947 260.1602 67.7731 259.8244 67.7161 C 259.4906 67.6597 259.1457 67.5893 258.8519 67.4219 C 258.602 67.2794 258.2402 66.8122 258.2402 66.8122 "/>
    <path id="ID0.5332203092984855" fill="none" stroke="#937B73" stroke-width="1.0160745560855113" stroke-linecap="round" d="M 259.8899 57.2488 C 259.8899 57.2488 259.1852 57.4868 258.9885 57.7722 C 258.729 58.1561 258.2408 58.891 258.5737 59.3187 C 259.0455 59.7645 259.982 59.2883 260.6291 59.5424 C 261.2545 59.7911 262.3785 60.6024 262.3785 60.6024 "/>
    <path id="ID0.2278452254831791" fill="none" stroke="#937B73" stroke-width="1.0160745560855113" stroke-linecap="round" d="M 265.1067 55.0054 C 265.1067 55.0054 265.4617 57.0586 265.6349 58.0844 C 265.6929 58.4279 265.7677 58.77 265.8004 59.1164 C 265.833 59.4628 265.9433 59.8316 265.8296 60.1603 C 265.7155 60.4899 265.4248 60.7385 265.1611 60.9665 C 264.9848 61.1191 264.535 61.2814 264.535 61.2814 "/>
    <path id="ID0.6473136460408568" fill="none" stroke="#937B73" stroke-width="1.0160745428296027" stroke-linecap="round" d="M 260.5132 71.2843 C 260.5132 71.2843 260.6326 71.9837 260.5815 72.3282 C 260.5313 72.6636 260.3733 72.9789 260.216 73.2793 C 259.9793 73.7322 259.4036 74.5811 259.4036 74.5811 "/>
    <path id="ID0.11669129692018032" fill="#2E3034" stroke="none" stroke-linecap="round" d="M 251.358 45.273 L 273.0901 53.7051 L 276.0865 57.3981 L 265.7297 59.1747 L 246.6496 50.7487 L 251.358 45.273 Z " stroke-width="0.5080372780427557"/>
    <path id="ID0.14635155349969864" fill="#2E3034" stroke="none" stroke-linecap="round" d="M 247.2825 49.5336 L 248.9471 50.4353 L 249.9679 56.1845 L 248.59 61.792 L 249.2373 65.9686 L 250.9866 70.1867 L 244.6169 62.8193 L 247.2825 49.5336 Z " stroke-width="0.5080372780427557"/>
    <path id="ID0.28340246016159654" fill="#1C1D1F" stroke="none" stroke-linecap="round" d="M 252.3933 42.2684 L 255.2303 44.7349 L 264.2259 48.3873 L 262.5603 53.8929 L 256.191 50.9786 L 252.8075 48.8265 L 251.3068 46.7925 L 250.9801 44.888 L 252.3933 42.2684 Z " stroke-width="0.5401026391431615"/>
    <path id="ID0.6101007834076881" fill="#FFFFFF" stroke="none" stroke-linecap="round" d="M 255.3238 45.8354 L 256.79 46.6967 L 260.0602 48.9409 L 260.0116 50.9826 L 255.4027 48.0704 L 255.3238 45.8354 Z " stroke-width="0.40610618689530803"/>
    <path id="ID0.28340246016159654" fill="#1C1D1F" stroke="none" stroke-linecap="round" d="M 276.926 49.7204 L 273.6012 50.1486 L 265.1193 48.413 L 263.6341 53.3225 L 269.8019 54.3078 L 273.3769 54.383 L 275.4961 53.6152 L 276.68 52.3631 L 276.926 49.7204 Z " stroke-width="0.48162497689092604"/>
    <path id="ID0.6101007834076881" fill="#FFFFFF" stroke="none" stroke-linecap="round" d="M 274.6971 51.1762 L 273.0794 51.2002 L 269.3195 51.5212 L 268.4008 53.2334 L 273.5821 52.9884 L 274.6971 51.1762 Z " stroke-width="0.38638675181693294"/>
    <g id="ID0.07940126257017255">
      <path id="ID0.46257128613069654" fill="#27282B" stroke="none" stroke-linecap="round" d="M 264.4833 48.3089 L 265.7576 59.0976 L 256.5215 54.9766 L 264.4833 48.3089 Z " stroke-width="0.5080372780427557"/>
      <path id="ID0.9845890481956303" fill="#27282B" stroke="none" stroke-linecap="round" d="M 265.2187 48.6699 L 271.0119 58.1187 L 265.8026 59.1967 L 265.2187 48.6699 Z " stroke-width="0.5080372780427557"/>
    </g>
    <path id="ID0.20071752788498998" fill="#202324" stroke="none" d="M 257.7271 41.5112 L 260.9474 45.1658 L 265.1557 47.6597 L 264.8241 49.019 L 257.7519 45.5526 L 252.7878 41.6093 L 254.956 40.4075 L 257.7271 41.5112 Z " stroke-width="0.5080372780427557"/>
    <path id="ID0.20071752788498998" fill="#202324" stroke="none" d="M 274.0984 46.1485 L 270.4677 47.6066 L 264.9966 47.5828 L 264.5585 48.7894 L 271.7217 49.7391 L 277.5062 49.3707 L 276.6818 46.7839 L 274.0984 46.1485 Z " stroke-width="0.46609798174230205"/>
    <path id="ID0.521138689480722" fill="none" stroke="#212325" stroke-width="0.9060627362210283" stroke-linecap="round" d="M 277.068 49.4674 L 273.5085 50.0471 L 264.974 48.7669 "/>
    <path id="ID0.17828734638169408" fill="none" stroke="#202324" stroke-width="1.0160745560855113" stroke-linecap="round" d="M 265.7942 58.6103 L 265.0944 50.8351 C 264.837 48.2296 264.8144 48.8167 264.914 47.8347 C 264.9488 47.4917 265.2548 47.2329 265.4027 46.921 C 265.5483 46.6136 265.7079 46.3069 265.7942 45.9779 C 265.8815 45.6455 265.8839 45.2954 265.9182 44.9538 C 265.9718 44.4207 266.0582 43.3508 266.0582 43.3508 "/>
    <path id="ID0.521138689480722" fill="none" stroke="#212325" stroke-width="1.0160745560855113" stroke-linecap="round" d="M 252.8227 41.8899 L 255.7847 44.6436 L 264.5464 48.7538 "/>
    <path id="ID0.8012696979567409" fill="none" stroke="url(#grad_1)" stroke-width="1.0160745560855113" stroke-linecap="round" d="M 274.5116 57.6913 L 266.2307 59.2731 L 249.1097 51.6522 L 249.8882 55.9216 L 248.4147 61.8451 L 249.2181 65.8566 L 250.938 70.172 "/>
    <path id="ID0.043594349175691605" fill="#D7E2FD" stroke="none" stroke-linecap="round" d="M 259.5179 49.852 L 260.0604 48.8483 L 259.9509 50.9649 L 257.6842 49.5095 L 259.5179 49.852 Z " stroke-width="0.5080372780427557"/>
    <path id="ID0.043594349175691605" fill="#D7E2FD" stroke="none" stroke-linecap="round" d="M 269.3272 52.6223 L 269.3637 51.5858 L 268.4756 53.2956 L 270.9225 53.1977 L 269.3272 52.6223 Z " stroke-width="0.46186426411256865"/>
  </g>
</svg>