<svg xmlns="http://www.w3.org/2000/svg" xmlns:xlink="http://www.w3.org/1999/xlink" version="1.1" width="276.24797496200136" height="165.49795970321233" viewBox="-0.5239813774850675 0.5260185748312167 276.24797496200136 165.49795970321233">
  <!-- Exported by Scratch - http://scratch.mit.edu/ -->
  <path id="ID0.14518280653283" fill="#0D0D0D" stroke="#0D0D0D" stroke-width="2.047962754970135" d="M 34.0237 58.35 L 251.3621 58.8 L 251.8858 40.8 L 251.3621 35.3 L 250.367 20.8 L 253.4045 13.8 L 244.8681 14.3 L 155 10.1 L 101.2677 13.6 L 107.4998 9.85 L 83.514 12.6 L 78.0151 11.1 L 34.3379 13.35 L 35.2806 37.35 L 36.0138 44.6 L 34.7569 53.35 L 34.0237 58.35 Z "/>
  <path id="ID0.14518280653283" fill="#0D0D0D" stroke="#0D0D0D" stroke-width="2.047962754970135" d="M 21.4879 50.75 L 252.914 46 L 249.667 49.75 L 264.4356 46.75 L 262.4455 83.5 L 263.9119 87.75 L 262.4455 105.75 L 261.9218 125 L 261.1886 129.75 L 262.3931 153.75 L 142.15 157 L 88.4177 153.5 L 94.6498 157.25 L 70.664 154.5 L 65.1651 156 L 21.4879 153.75 L 22.4306 129.75 L 23.1638 122.5 L 21.9069 113.75 L 21.1737 108.75 L 21.6974 79.5 L 21.1737 71.75 L 22.1688 66.25 L 21.4879 50.75 Z "/>
  <g id="ID0.13357754703611135">
    <path id="ID0.36414373060688376" fill="#FFFFFF" stroke="none" d="M 217.7181 140.3826 C 217.3875 140.2842 216.7846 141.2159 216.0767 142.7988 C 215.3695 144.3828 214.5578 146.6192 213.8102 149.1313 C 213.0625 151.6434 212.5192 153.9597 212.2452 155.6727 C 211.9724 157.385 211.9676 158.4948 212.2983 158.5932 C 212.629 158.6916 213.2318 157.7598 213.9397 156.177 C 214.647 154.5929 215.4586 152.3566 216.2063 149.8445 C 216.9539 147.3323 217.4972 145.0161 217.7713 143.3031 C 218.044 141.5908 218.0488 140.481 217.7181 140.3826 Z " stroke-width="1.0000000229921484"/>
    <path id="ID0.2644723285920918" fill="#FFFFFF" stroke="none" d="M 211.4885 160.9538 C 211.247 160.9538 211.0283 161.0518 210.87 161.2104 C 210.7115 161.3687 210.6135 161.5873 210.6135 161.8288 C 210.6135 162.0703 210.7115 162.289 210.87 162.4473 C 211.0283 162.6058 211.247 162.7038 211.4885 162.7038 C 211.73 162.7038 211.9486 162.6058 212.1069 162.4473 C 212.2655 162.289 212.3635 162.0703 212.3635 161.8288 C 212.3635 161.5873 212.2655 161.3687 212.1069 161.2104 C 211.9486 161.0518 211.73 160.9538 211.4885 160.9538 Z " stroke-width="0.26923078298568726"/>
  </g>
  <path id="ID0.6395725780166686" fill="#FFFFFF" stroke="none" d="M 209.2596 138.7553 C 207.2597 138.7553 205.4469 139.5678 204.1343 140.8799 C 202.8222 142.1925 202.0096 144.0053 202.0096 146.0053 C 202.0096 148.0053 202.8222 149.818 204.1343 151.1306 C 205.4469 152.4428 207.2597 153.2553 209.2596 153.2553 C 211.2596 153.2553 213.0724 152.4428 214.385 151.1306 C 215.6971 149.818 216.5096 148.0053 216.5096 146.0053 C 216.5096 144.0053 215.6971 142.1925 214.385 140.8799 C 213.0724 139.5678 211.2596 138.7553 209.2596 138.7553 Z " stroke-width="0.5087719559669495"/>
  <path id="ID0.6395725780166686" fill="#FFFFFF" stroke="none" d="M 219.3456 126.5658 C 215.9663 126.5658 212.9034 127.9386 210.6855 130.1557 C 208.4685 132.3736 207.0956 135.4365 207.0956 138.8158 C 207.0956 142.1951 208.4685 145.258 210.6855 147.4759 C 212.9034 149.6929 215.9663 151.0658 219.3456 151.0658 C 222.7249 151.0658 225.7878 149.6929 228.0057 147.4759 C 230.2228 145.258 231.5956 142.1951 231.5956 138.8158 C 231.5956 135.4365 230.2228 132.3736 228.0057 130.1557 C 225.7878 127.9386 222.7249 126.5658 219.3456 126.5658 Z " stroke-width="0.859649121761322"/>
  <g id="ID0.35936416359618306">
    <g id="ID0.1390957785770297">
      <path id="ID0.6395725780166686" fill="#246DA9" stroke="none" d="M 206.5687 55.8018 C 205.9007 51.928 206.869 48.1455 208.9721 45.1647 C 211.0763 42.1848 214.3162 40.0056 218.19 39.3376 C 222.0638 38.6696 225.8464 39.6379 228.8271 41.741 C 231.807 43.8452 233.9862 47.085 234.6542 50.9589 C 235.3222 54.8327 234.3539 58.6152 232.2508 61.596 C 230.1466 64.5759 226.9068 66.7551 223.033 67.4231 C 219.1591 68.0911 215.3766 67.1228 212.3959 65.0197 C 209.4159 62.9155 207.2367 59.6757 206.5687 55.8018 Z " stroke-width="0.9999999868792101"/>
      <path id="ID0.2644723285920918" fill="#246DA9" stroke="none" d="M 228.3485 62.9266 C 228.1961 62.0426 228.4168 61.1806 228.8973 60.501 C 229.3767 59.8207 230.115 59.324 230.9989 59.1716 C 231.8829 59.0191 232.7449 59.2399 233.4245 59.7204 C 234.1048 60.1997 234.6015 60.9381 234.754 61.822 C 234.9064 62.706 234.6857 63.568 234.2051 64.2476 C 233.7258 64.9279 232.9874 65.4246 232.1035 65.577 C 231.2195 65.7294 230.3575 65.5087 229.678 65.0282 C 228.9976 64.5488 228.5009 63.8105 228.3485 62.9266 Z " stroke-width="0.9999999868792101"/>
    </g>
    <g id="ID0.13357754703611135">
      <path id="ID0.36414373060688376" fill="#246DA9" stroke="none" d="M 214.5449 48.0562 C 214.3917 47.7471 215.2075 46.9947 216.647 46.0281 C 218.0878 45.0619 220.1538 43.882 222.5023 42.7184 C 224.8508 41.5547 227.0411 40.6257 228.6826 40.0646 C 230.3237 39.5048 231.4165 39.3116 231.5696 39.6207 C 231.7228 39.9298 230.9071 40.6822 229.4675 41.6488 C 228.0267 42.6149 225.9608 43.7948 223.6122 44.9585 C 221.2637 46.1221 219.0735 47.0511 217.4319 47.6123 C 215.7909 48.1721 214.6981 48.3653 214.5449 48.0562 Z " stroke-width="0.9999999910572765"/>
      <path id="ID0.2644723285920918" fill="#FFFFFF" stroke="none" d="M 233.8169 38.4168 C 233.7759 38.1788 233.8353 37.9467 233.9647 37.7637 C 234.0937 37.5806 234.2925 37.4468 234.5305 37.4058 C 234.7685 37.3648 235.0006 37.4242 235.1835 37.5536 C 235.3667 37.6826 235.5004 37.8814 235.5414 38.1194 C 235.5825 38.3574 235.5231 38.5895 235.3937 38.7724 C 235.2646 38.9556 235.0659 39.0893 234.8279 39.1303 C 234.5899 39.1714 234.3578 39.112 234.1748 38.9826 C 233.9917 38.8535 233.8579 38.6548 233.8169 38.4168 Z " stroke-width="0.2692307731574152"/>
    </g>
    <g id="ID0.13357754703611135">
      <path id="ID0.36414373060688376" fill="#FFFFFF" stroke="none" d="M 217.6155 42.4577 C 217.4198 42.0628 218.462 41.1015 220.301 39.8667 C 222.1417 38.6324 224.781 37.1251 227.7814 35.6385 C 230.7817 34.1519 233.5798 32.965 235.6769 32.2482 C 237.7734 31.533 239.1695 31.2861 239.3652 31.681 C 239.5609 32.076 238.5187 33.0372 236.6797 34.272 C 234.8389 35.5063 232.1996 37.0137 229.1993 38.5003 C 226.199 39.9869 223.4009 41.1737 221.3038 41.8906 C 219.2073 42.6057 217.8112 42.8526 217.6155 42.4577 Z " stroke-width="1.2775330292423985"/>
      <path id="ID0.2644723285920918" fill="#FFFFFF" stroke="none" d="M 242.1621 30.1161 C 242.1097 29.8121 242.1856 29.5156 242.3509 29.2819 C 242.5158 29.0479 242.7697 28.877 243.0738 28.8246 C 243.3778 28.7722 243.6743 28.8481 243.908 29.0134 C 244.142 29.1782 244.3129 29.4322 244.3653 29.7362 C 244.4177 30.0403 244.3418 30.3368 244.1765 30.5705 C 244.0116 30.8045 243.7577 30.9753 243.4537 31.0278 C 243.1496 31.0802 242.8531 31.0043 242.6194 30.839 C 242.3854 30.6741 242.2145 30.4202 242.1621 30.1161 Z " stroke-width="0.34395121934581036"/>
    </g>
    <g id="ID0.13357754703611135">
      <path id="ID0.36414373060688376" fill="#FFFFFF" stroke="none" d="M 211.9449 39.5062 C 211.7917 39.1971 212.6075 38.4447 214.047 37.4781 C 215.4878 36.5119 217.5538 35.332 219.9023 34.1684 C 222.2508 33.0047 224.4411 32.0757 226.0826 31.5146 C 227.7237 30.9548 228.8165 30.7616 228.9696 31.0707 C 229.1228 31.3798 228.3071 32.1322 226.8675 33.0988 C 225.4267 34.0649 223.3608 35.2448 221.0122 36.4085 C 218.6637 37.5721 216.4735 38.5011 214.8319 39.0623 C 213.1909 39.6221 212.0981 39.8153 211.9449 39.5062 Z " stroke-width="0.9999999910572765"/>
      <path id="ID0.2644723285920918" fill="#FFFFFF" stroke="none" d="M 231.2669 29.8668 C 231.2259 29.6288 231.2853 29.3967 231.4147 29.2137 C 231.5437 29.0306 231.7425 28.8968 231.9805 28.8558 C 232.2185 28.8148 232.4506 28.8742 232.6335 29.0036 C 232.8167 29.1326 232.9504 29.3314 232.9914 29.5694 C 233.0325 29.8074 232.9731 30.0395 232.8437 30.2224 C 232.7146 30.4056 232.5159 30.5393 232.2779 30.5803 C 232.0399 30.6214 231.8078 30.562 231.6248 30.4326 C 231.4417 30.3035 231.3079 30.1048 231.2669 29.8668 Z " stroke-width="0.2692307731574152"/>
    </g>
  </g>
  <g id="ID0.35936416359618306">
    <g id="ID0.1390957785770297">
      <path id="ID0.6395725780166686" fill="#FFFFFF" stroke="none" d="M 215.6763 64.2581 C 211.8684 65.2341 208.0205 64.5718 204.8809 62.7141 C 201.7421 60.8553 199.3105 57.8003 198.3345 53.9924 C 197.3584 50.1845 198.0208 46.3366 199.8785 43.197 C 201.7373 40.0582 204.7922 37.6266 208.6002 36.6506 C 212.4081 35.6745 216.256 36.3369 219.3955 38.1946 C 222.5344 40.0534 224.966 43.1083 225.942 46.9163 C 226.918 50.7242 226.2557 54.5721 224.398 57.7116 C 222.5392 60.8505 219.4842 63.2821 215.6763 64.2581 Z " stroke-width="1.000000012168309"/>
      <path id="ID0.2644723285920918" fill="#FFFFFF" stroke="none" d="M 221.0481 41.9781 C 220.1792 42.2008 219.3023 42.0498 218.5864 41.6252 C 217.8699 41.2019 217.3157 40.5057 217.093 39.6368 C 216.8703 38.7678 217.0212 37.8909 217.4458 37.1751 C 217.8692 36.4585 218.5654 35.9043 219.4343 35.6816 C 220.3032 35.4589 221.1801 35.6099 221.896 36.0344 C 222.6125 36.4578 223.1667 37.154 223.3894 38.0229 C 223.6121 38.8918 223.4611 39.7688 223.0366 40.4846 C 222.6132 41.2011 221.917 41.7553 221.0481 41.9781 Z " stroke-width="1.000000012168309"/>
    </g>
    <g id="ID0.13357754703611135">
      <path id="ID0.36414373060688376" fill="#246DA9" stroke="none" d="M 207.2866 56.8734 C 206.9907 57.0508 206.1754 56.2979 205.0967 54.9404 C 204.0183 53.5816 202.6767 51.6167 201.3288 49.3689 C 199.9808 47.1211 198.8794 45.0123 198.1887 43.4209 C 197.4993 41.83 197.2191 40.7561 197.515 40.5787 C 197.8109 40.4013 198.6262 41.1542 199.7049 42.5117 C 200.7833 43.8705 202.1249 45.8354 203.4728 48.0832 C 204.8208 50.331 205.9222 52.4398 206.6129 54.0311 C 207.3023 55.6221 207.5825 56.696 207.2866 56.8734 Z " stroke-width="1.0000000339068997"/>
      <path id="ID0.2644723285920918" fill="#FFFFFF" stroke="none" d="M 196.1341 38.4691 C 195.9002 38.5291 195.6641 38.4884 195.4713 38.3741 C 195.2784 38.2601 195.1292 38.0727 195.0693 37.8387 C 195.0093 37.6048 195.0499 37.3687 195.1643 37.176 C 195.2782 36.9831 195.4657 36.8339 195.6996 36.7739 C 195.9335 36.7139 196.1696 36.7546 196.3624 36.8689 C 196.5553 36.9829 196.7045 37.1703 196.7645 37.4042 C 196.8244 37.6382 196.7838 37.8743 196.6695 38.067 C 196.5555 38.2599 196.368 38.4091 196.1341 38.4691 Z " stroke-width="0.26923078403725104"/>
    </g>
    <g id="ID0.13357754703611135">
      <path id="ID0.36414373060688376" fill="#FFFFFF" stroke="none" d="M 201.4555 54.3717 C 201.0775 54.5984 200.036 53.6365 198.6578 51.9023 C 197.2801 50.1663 195.5663 47.6561 193.8442 44.7845 C 192.1222 41.9128 190.7151 39.2187 189.8327 37.1858 C 188.9519 35.1532 188.594 33.7814 188.972 33.5547 C 189.35 33.328 190.3916 34.2899 191.7697 36.0241 C 193.1474 37.7601 194.8613 40.2703 196.5833 43.1419 C 198.3054 46.0136 199.7124 48.7077 200.5949 50.7407 C 201.4756 52.7732 201.8335 54.145 201.4555 54.3717 Z " stroke-width="1.2775331593786323"/>
      <path id="ID0.2644723285920918" fill="#FFFFFF" stroke="none" d="M 187.1971 30.8378 C 186.8982 30.9144 186.5966 30.8625 186.3504 30.7165 C 186.1039 30.5709 185.9133 30.3314 185.8367 30.0325 C 185.7601 29.7337 185.812 29.432 185.9581 29.1858 C 186.1037 28.9394 186.3431 28.7488 186.642 28.6721 C 186.9409 28.5955 187.2425 28.6475 187.4887 28.7935 C 187.7352 28.9391 187.9258 29.1786 188.0024 29.4774 C 188.079 29.7763 188.0271 30.0779 187.881 30.3241 C 187.7354 30.5706 187.496 30.7612 187.1971 30.8378 Z " stroke-width="0.3439512373318717"/>
    </g>
    <g id="ID0.13357754703611135">
      <path id="ID0.36414373060688376" fill="#246DA9" stroke="none" d="M 198.9366 60.1234 C 198.6407 60.3008 197.8254 59.5479 196.7467 58.1904 C 195.6683 56.8316 194.3267 54.8667 192.9788 52.6189 C 191.6308 50.3711 190.5294 48.2623 189.8387 46.6709 C 189.1493 45.08 188.8691 44.0061 189.165 43.8287 C 189.4609 43.6513 190.2762 44.4042 191.3549 45.7617 C 192.4333 47.1205 193.7749 49.0854 195.1228 51.3332 C 196.4708 53.581 197.5722 55.6898 198.2629 57.2811 C 198.9523 58.8721 199.2325 59.946 198.9366 60.1234 Z " stroke-width="1.0000000339068997"/>
      <path id="ID0.2644723285920918" fill="#246DA9" stroke="none" d="M 187.7841 41.7191 C 187.5502 41.7791 187.3141 41.7384 187.1213 41.6241 C 186.9284 41.5101 186.7792 41.3227 186.7193 41.0887 C 186.6593 40.8548 186.6999 40.6187 186.8143 40.426 C 186.9282 40.2331 187.1157 40.0839 187.3496 40.0239 C 187.5835 39.9639 187.8196 40.0046 188.0124 40.1189 C 188.2053 40.2329 188.3545 40.4203 188.4145 40.6542 C 188.4744 40.8882 188.4338 41.1243 188.3195 41.317 C 188.2055 41.5099 188.018 41.6591 187.7841 41.7191 Z " stroke-width="0.26923078403725104"/>
    </g>
  </g>
  <g id="ID0.35936416359618306">
    <g id="ID0.1390957785770297">
      <path id="ID0.6395725780166686" fill="#FFFFFF" stroke="none" d="M 52.5 120.45 C 48.569 120.45 45.006 122.047 42.426 124.626 C 39.847 127.206 38.25 130.769 38.25 134.7 C 38.25 138.631 39.847 142.194 42.426 144.774 C 45.006 147.353 48.569 148.95 52.5 148.95 C 56.431 148.95 59.994 147.353 62.574 144.774 C 65.153 142.194 66.75 138.631 66.75 134.7 C 66.75 130.769 65.153 127.206 62.574 124.626 C 59.994 122.047 56.431 120.45 52.5 120.45 Z " stroke-width="1"/>
      <path id="ID0.2644723285920918" fill="#FFFFFF" stroke="none" d="M 63.25 140.75 C 62.353 140.75 61.541 141.114 60.953 141.703 C 60.364 142.291 60 143.103 60 144 C 60 144.897 60.364 145.709 60.953 146.297 C 61.541 146.886 62.353 147.25 63.25 147.25 C 64.147 147.25 64.959 146.886 65.547 146.297 C 66.136 145.709 66.5 144.897 66.5 144 C 66.5 143.103 66.136 142.291 65.547 141.703 C 64.959 141.114 64.147 140.75 63.25 140.75 Z " stroke-width="1"/>
    </g>
    <g id="ID0.13357754703611135">
      <path id="ID0.36414373060688376" fill="#246DA9" stroke="#FFFFFF" stroke-width="2.000000045984297" d="M 46.2181 129.6826 C 45.8875 129.5842 45.2846 130.5159 44.5767 132.0988 C 43.8695 133.6828 43.0578 135.9192 42.3102 138.4313 C 41.5625 140.9434 41.0192 143.2597 40.7452 144.9727 C 40.4724 146.685 40.4676 147.7948 40.7983 147.8932 C 41.129 147.9916 41.7318 147.0598 42.4397 145.477 C 43.147 143.8929 43.9586 141.6566 44.7063 139.1445 C 45.4539 136.6323 45.9972 134.3161 46.2713 132.6031 C 46.544 130.8908 46.5488 129.781 46.2181 129.6826 Z "/>
      <path id="ID0.2644723285920918" fill="#FFFFFF" stroke="none" d="M 40.0385 150.2538 C 39.797 150.2538 39.5783 150.3518 39.42 150.5104 C 39.2615 150.6687 39.1635 150.8873 39.1635 151.1288 C 39.1635 151.3703 39.2615 151.589 39.42 151.7473 C 39.5783 151.9058 39.797 152.0038 40.0385 152.0038 C 40.28 152.0038 40.4986 151.9058 40.6569 151.7473 C 40.8155 151.589 40.9135 151.3703 40.9135 151.1288 C 40.9135 150.8873 40.8155 150.6687 40.6569 150.5104 C 40.4986 150.3518 40.28 150.2538 40.0385 150.2538 Z " stroke-width="0.26923078298568726"/>
    </g>
    <g id="ID0.13357754703611135">
      <path id="ID0.36414373060688376" fill="#FFFFFF" stroke="none" d="M 41.2176 133.6476 C 40.7952 133.5219 40.0251 134.7122 39.1207 136.7343 C 38.2172 138.758 37.1802 141.6151 36.2251 144.8244 C 35.2699 148.0337 34.5759 150.9928 34.2258 153.1812 C 33.8773 155.3688 33.8712 156.7865 34.2936 156.9122 C 34.7161 157.0379 35.4862 155.8476 36.3906 153.8255 C 37.2941 151.8018 38.3311 148.9447 39.2862 145.7354 C 40.2414 142.5261 40.9354 139.567 41.2855 137.3786 C 41.634 135.1911 41.6401 133.7733 41.2176 133.6476 Z " stroke-width="1.2775331222961144"/>
      <path id="ID0.2644723285920918" fill="#FFFFFF" stroke="none" d="M 33.2535 159.8866 C 32.945 159.8866 32.6657 160.0118 32.4635 160.2144 C 32.2609 160.4167 32.1357 160.696 32.1357 161.0045 C 32.1357 161.313 32.2609 161.5923 32.4635 161.7945 C 32.6657 161.9971 32.945 162.1223 33.2535 162.1223 C 33.5621 162.1223 33.8413 161.9971 34.0436 161.7945 C 34.2462 161.5923 34.3714 161.313 34.3714 161.0045 C 34.3714 160.696 34.2462 160.4167 34.0436 160.2144 C 33.8413 160.0118 33.5621 159.8866 33.2535 159.8866 Z " stroke-width="0.3439512252807617"/>
    </g>
    <g id="ID0.13357754703611135">
      <path id="ID0.36414373060688376" fill="#246DA9" stroke="#FFFFFF" stroke-width="2.000000045984297" d="M 37.3181 128.6326 C 36.9875 128.5342 36.3846 129.4659 35.6767 131.0488 C 34.9695 132.6328 34.1578 134.8692 33.4102 137.3813 C 32.6625 139.8934 32.1192 142.2097 31.8452 143.9227 C 31.5724 145.635 31.5676 146.7448 31.8983 146.8432 C 32.229 146.9416 32.8318 146.0098 33.5397 144.427 C 34.247 142.8429 35.0586 140.6066 35.8063 138.0945 C 36.5539 135.5823 37.0972 133.2661 37.3713 131.5531 C 37.644 129.8408 37.6488 128.731 37.3181 128.6326 Z "/>
      <path id="ID0.2644723285920918" fill="#FFFFFF" stroke="none" d="M 31.0885 149.2038 C 30.847 149.2038 30.6283 149.3018 30.47 149.4604 C 30.3115 149.6187 30.2135 149.8373 30.2135 150.0788 C 30.2135 150.3203 30.3115 150.539 30.47 150.6973 C 30.6283 150.8558 30.847 150.9538 31.0885 150.9538 C 31.33 150.9538 31.5486 150.8558 31.7069 150.6973 C 31.8655 150.539 31.9635 150.3203 31.9635 150.0788 C 31.9635 149.8373 31.8655 149.6187 31.7069 149.4604 C 31.5486 149.3018 31.33 149.2038 31.0885 149.2038 Z " stroke-width="0.26923078298568726"/>
    </g>
  </g>
  <path id="ID0.6395725780166686" fill="#FFFFFF" stroke="none" d="M 202.2956 125.6658 C 198.9163 125.6658 195.8534 127.0386 193.6355 129.2557 C 191.4185 131.4736 190.0456 134.5365 190.0456 137.9158 C 190.0456 141.2951 191.4185 144.358 193.6355 146.5759 C 195.8534 148.7929 198.9163 150.1658 202.2956 150.1658 C 205.6749 150.1658 208.7378 148.7929 210.9557 146.5759 C 213.1728 144.358 214.5456 141.2951 214.5456 137.9158 C 214.5456 134.5365 213.1728 131.4736 210.9557 129.2557 C 208.7378 127.0386 205.6749 125.6658 202.2956 125.6658 Z " stroke-width="0.859649121761322"/>
  <path id="ID0.6395725780166686" fill="#FFFFFF" stroke="none" d="M 234.4956 129.4158 C 231.1163 129.4158 228.0534 130.7886 225.8355 133.0057 C 223.6185 135.2236 222.2456 138.2865 222.2456 141.6658 C 222.2456 145.0451 223.6185 148.108 225.8355 150.3259 C 228.0534 152.5429 231.1163 153.9158 234.4956 153.9158 C 237.8749 153.9158 240.9378 152.5429 243.1557 150.3259 C 245.3728 148.108 246.7456 145.0451 246.7456 141.6658 C 246.7456 138.2865 245.3728 135.2236 243.1557 133.0057 C 240.9378 130.7886 237.8749 129.4158 234.4956 129.4158 Z " stroke-width="0.859649121761322"/>
  <path id="ID0.6395725780166686" fill="#FFFFFF" stroke="none" d="M 250 127.3 C 246.069 127.3 242.506 128.897 239.926 131.476 C 237.347 134.056 235.75 137.619 235.75 141.55 C 235.75 145.481 237.347 149.044 239.926 151.624 C 242.506 154.203 246.069 155.8 250 155.8 C 253.931 155.8 257.494 154.203 260.074 151.624 C 262.653 149.044 264.25 145.481 264.25 141.55 C 264.25 137.619 262.653 134.056 260.074 131.476 C 257.494 128.897 253.931 127.3 250 127.3 Z " stroke-width="1"/>
  <path id="ID0.09471079101786017" fill="#FFFFFF" stroke="none" d="M 28.5 94.25 C 25.741 94.25 23.241 95.371 21.431 97.181 C 19.621 98.991 18.5 101.491 18.5 104.25 C 18.5 107.009 19.621 109.509 21.431 111.319 C 23.241 113.129 25.741 114.25 28.5 114.25 C 31.259 114.25 33.759 113.129 35.569 111.319 C 37.379 109.509 38.5 107.009 38.5 104.25 C 38.5 101.491 37.379 98.991 35.569 97.181 C 33.759 95.371 31.259 94.25 28.5 94.25 Z " stroke-width="1"/>
  <path id="ID0.6395725780166686" fill="#FFFFFF" stroke="none" d="M 23 73.5 C 19.069 73.5 15.506 75.097 12.926 77.676 C 10.347 80.256 8.75 83.819 8.75 87.75 C 8.75 91.681 10.347 95.244 12.926 97.824 C 15.506 100.403 19.069 102 23 102 C 26.931 102 30.494 100.403 33.074 97.824 C 35.653 95.244 37.25 91.681 37.25 87.75 C 37.25 83.819 35.653 80.256 33.074 77.676 C 30.494 75.097 26.931 73.5 23 73.5 Z " stroke-width="1"/>
  <path id="ID0.2644723285920918" fill="#FFFFFF" stroke="none" d="M 3.75 70 C 2.853 70 2.041 70.364 1.453 70.953 C 0.864 71.541 0.5 72.353 0.5 73.25 C 0.5 74.147 0.864 74.959 1.453 75.547 C 2.041 76.136 2.853 76.5 3.75 76.5 C 4.647 76.5 5.459 76.136 6.047 75.547 C 6.636 74.959 7 74.147 7 73.25 C 7 72.353 6.636 71.541 6.047 70.953 C 5.459 70.364 4.647 70 3.75 70 Z " stroke-width="1"/>
  <path id="ID0.2644723285920918" fill="#FFFFFF" stroke="none" d="M 3.1731 79.1923 C 2.7591 79.1923 2.3843 79.3603 2.1129 79.6322 C 1.8411 79.9035 1.6731 80.2783 1.6731 80.6923 C 1.6731 81.1063 1.8411 81.4811 2.1129 81.7525 C 2.3843 82.0243 2.7591 82.1923 3.1731 82.1923 C 3.5871 82.1923 3.9618 82.0243 4.2332 81.7525 C 4.5051 81.4811 4.6731 81.1063 4.6731 80.6923 C 4.6731 80.2783 4.5051 79.9035 4.2332 79.6322 C 3.9618 79.3603 3.5871 79.1923 3.1731 79.1923 Z " stroke-width="0.4615384638309479"/>
  <path id="ID0.2644723285920918" fill="#FFFFFF" stroke="none" d="M 250.75 154 C 249.853 154 249.041 154.364 248.453 154.953 C 247.864 155.541 247.5 156.353 247.5 157.25 C 247.5 158.147 247.864 158.959 248.453 159.547 C 249.041 160.136 249.853 160.5 250.75 160.5 C 251.647 160.5 252.459 160.136 253.047 159.547 C 253.636 158.959 254 158.147 254 157.25 C 254 156.353 253.636 155.541 253.047 154.953 C 252.459 154.364 251.647 154 250.75 154 Z " stroke-width="1"/>
  <path id="ID0.2644723285920918" fill="#FFFFFF" stroke="none" d="M 247.25 151 C 246.353 151 245.541 151.364 244.953 151.953 C 244.364 152.541 244 153.353 244 154.25 C 244 155.147 244.364 155.959 244.953 156.547 C 245.541 157.136 246.353 157.5 247.25 157.5 C 248.147 157.5 248.959 157.136 249.547 156.547 C 250.136 155.959 250.5 155.147 250.5 154.25 C 250.5 153.353 250.136 152.541 249.547 151.953 C 248.959 151.364 248.147 151 247.25 151 Z " stroke-width="1"/>
  <g id="ID0.13357754703611135">
    <path id="ID0.36414373060688376" fill="#FFFFFF" stroke="none" d="M 225.7681 137.1326 C 225.4375 137.0342 224.8346 137.9659 224.1267 139.5488 C 223.4195 141.1328 222.6078 143.3692 221.8602 145.8813 C 221.1125 148.3934 220.5692 150.7097 220.2952 152.4227 C 220.0224 154.135 220.0176 155.2448 220.3483 155.3432 C 220.679 155.4416 221.2818 154.5098 221.9897 152.927 C 222.697 151.3429 223.5086 149.1066 224.2563 146.5945 C 225.0039 144.0823 225.5472 141.7661 225.8213 140.0531 C 226.094 138.3408 226.0988 137.231 225.7681 137.1326 Z " stroke-width="1.0000000229921484"/>
    <path id="ID0.2644723285920918" fill="#FFFFFF" stroke="none" d="M 219.5385 157.7038 C 219.297 157.7038 219.0783 157.8018 218.92 157.9604 C 218.7615 158.1187 218.6635 158.3373 218.6635 158.5788 C 218.6635 158.8203 218.7615 159.039 218.92 159.1973 C 219.0783 159.3558 219.297 159.4538 219.5385 159.4538 C 219.78 159.4538 219.9986 159.3558 220.1569 159.1973 C 220.3155 159.039 220.4135 158.8203 220.4135 158.5788 C 220.4135 158.3373 220.3155 158.1187 220.1569 157.9604 C 219.9986 157.8018 219.78 157.7038 219.5385 157.7038 Z " stroke-width="0.26923078298568726"/>
  </g>
  <path id="ID0.14518280653283" fill="#1F1F1F" stroke="#FFFFFF" stroke-width="2.047962754970135" d="M 14.6379 43.5 L 246.064 38.75 L 242.817 42.5 L 257.5856 39.5 L 255.5955 76.25 L 257.0619 80.5 L 255.5955 98.5 L 255.0718 117.75 L 254.3386 122.5 L 255.5431 146.5 L 135.3 149.75 L 81.5677 146.25 L 87.7998 150 L 63.814 147.25 L 58.3151 148.75 L 14.6379 146.5 L 15.5806 122.5 L 16.3138 115.25 L 15.0569 106.5 L 14.3237 101.5 L 14.8474 72.25 L 14.3237 64.5 L 15.3188 59 L 14.6379 43.5 Z "/>
  <path id="ID0.14518280653283" fill="#1F1F1F" stroke="#FFFFFF" stroke-width="2.047962754970135" d="M 29.0737 50.05 L 246.4121 50.5 L 246.9358 32.5 L 246.4121 27 L 245.417 12.5 L 248.4545 5.5 L 239.9181 6 L 150.05 1.8 L 96.3177 5.3 L 102.5498 1.55 L 78.564 4.3 L 73.0651 2.8 L 29.3879 5.05 L 30.3306 29.05 L 31.0638 36.3 L 29.8069 45.05 L 29.0737 50.05 Z "/>
  <g id="ID0.7368156798183918">
    <path id="ID0.9503691853024065" fill="#FFFFFF" d="M 47.7321 21.8319 L 57.1382 21.8319 C 59.8891 21.8319 61.93 22.4531 63.3498 23.6954 C 64.7696 24.9377 65.4795 26.7125 65.4795 29.0196 C 65.4795 30.3507 65.2133 31.593 64.5922 32.7466 C 64.0597 33.8114 63.2611 34.6988 62.1962 35.32 C 61.4863 35.7637 60.599 36.0299 59.6229 36.2073 C 58.6468 36.3848 57.4932 36.4736 56.1621 36.4736 L 47.7321 36.4736 L 47.7321 21.8319 Z M 55.541 33.634 C 56.6058 33.634 57.5819 33.5452 58.3805 33.3677 C 59.1792 33.1903 59.8891 32.9241 60.4215 32.5691 C 60.9539 32.2142 61.3976 31.7705 61.6638 31.1493 C 61.93 30.5282 62.1075 29.8183 62.1075 28.9309 C 62.1075 27.4224 61.6638 26.3575 60.8652 25.5589 C 60.0666 24.7602 58.8242 24.4053 57.227 24.4053 L 51.1928 24.4053 L 51.1928 33.634 L 55.541 33.634 Z " stroke-width="0.8873720169067383"/>
    <path id="ID0.7801258279941976" fill="#FFFFFF" d="M 71.6911 21.8319 L 75.0631 21.8319 L 75.0631 36.3848 L 71.6911 36.3848 L 71.6911 21.8319 Z " stroke-width="0.8873720169067383"/>
    <path id="ID0.35442271549254656" fill="#FFFFFF" d="M 82.5171 21.8319 L 97.2474 21.8319 L 97.2474 24.4053 L 85.8891 24.4053 L 85.8891 28.221 L 92.0119 28.221 L 92.0119 30.8831 L 85.8891 30.8831 L 85.8891 36.3848 L 82.5171 36.3848 L 82.5171 21.8319 Z " stroke-width="0.8873720169067383"/>
    <path id="ID0.20410222467035055" fill="#FFFFFF" d="M 101.4181 21.8319 L 116.1485 21.8319 L 116.1485 24.4053 L 104.7901 24.4053 L 104.7901 28.221 L 110.913 28.221 L 110.913 30.8831 L 104.7901 30.8831 L 104.7901 36.3848 L 101.4181 36.3848 L 101.4181 21.8319 Z " stroke-width="0.8873720169067383"/>
    <path id="ID0.06282116193324327" fill="#FFFFFF" d="M 120.4079 21.8319 L 123.7799 21.8319 L 123.7799 36.3848 L 120.4079 36.3848 L 120.4079 21.8319 Z " stroke-width="0.8873720169067383"/>
    <path id="ID0.6819280632771552" fill="#FFFFFF" d="M 134.3396 24.4053 L 134.3396 33.634 L 143.4795 33.634 L 143.4795 30.5282 L 146.8515 31.2381 L 146.8515 32.9241 C 146.8515 33.634 146.7628 34.1664 146.6741 34.6101 C 146.5853 35.0538 146.3191 35.4087 146.0529 35.6749 C 145.7867 35.9411 145.4317 36.1186 144.8993 36.2073 C 144.4556 36.2961 143.8345 36.3848 143.2133 36.3848 L 134.5171 36.3848 C 133.8072 36.3848 133.2747 36.2961 132.8311 36.2073 C 132.3874 36.1186 132.0324 35.9411 131.6775 35.6749 C 131.4113 35.4087 131.2338 35.0538 131.0563 34.6101 C 130.9676 34.1664 130.8788 33.634 130.8788 32.9241 L 130.8788 25.2039 C 130.8788 24.494 130.9676 23.9616 131.0563 23.5179 C 131.1451 23.0742 131.4113 22.7193 131.6775 22.4531 C 131.9437 22.1869 132.2986 22.0094 132.8311 21.9206 C 133.2747 21.8319 133.8959 21.7432 134.5171 21.7432 L 143.2133 21.7432 C 143.9232 21.7432 144.4556 21.8319 144.8993 21.9206 C 145.343 22.0094 145.698 22.1869 146.0529 22.4531 C 146.3191 22.7193 146.4966 23.0742 146.6741 23.5179 C 146.7628 23.9616 146.8515 24.494 146.8515 25.2039 L 146.8515 26.6237 L 143.4795 27.1561 L 143.4795 24.4053 L 134.3396 24.4053 Z " stroke-width="0.8873720169067383"/>
    <path id="ID0.7033341368660331" fill="#FFFFFF" d="M 157.2338 33.634 L 166.9061 33.634 L 166.9061 21.8319 L 170.2782 21.8319 L 170.2782 32.9241 C 170.2782 33.634 170.1894 34.1664 170.1007 34.6101 C 170.0119 35.0538 169.7457 35.4087 169.4795 35.6749 C 169.2133 35.9411 168.8584 36.1186 168.3259 36.2073 C 167.7935 36.2961 167.2611 36.3848 166.6399 36.3848 L 157.4113 36.3848 C 156.7014 36.3848 156.1689 36.2961 155.7253 36.2073 C 155.2816 36.1186 154.9266 35.9411 154.5717 35.6749 C 154.3055 35.4087 154.128 35.0538 153.9505 34.6101 C 153.8618 34.1664 153.773 33.634 153.773 32.9241 L 153.773 21.8319 L 157.1451 21.8319 L 157.1451 33.634 Z " stroke-width="0.8873720169067383"/>
    <path id="ID0.1974145108833909" fill="#FFFFFF" d="M 177.7321 21.8319 L 181.1041 21.8319 L 181.1041 33.634 L 192.0188 33.634 L 192.0188 36.3848 L 177.7321 36.3848 L 177.7321 21.8319 Z " stroke-width="0.8873720169067383"/>
    <path id="ID0.9692965354770422" fill="#FFFFFF" d="M 203.8208 36.3848 L 200.3601 36.3848 L 200.3601 24.4053 L 193.7048 24.4053 L 193.7048 21.8319 L 210.4761 21.8319 L 210.4761 24.4053 L 203.7321 24.4053 L 203.7321 36.3848 Z " stroke-width="0.8873720169067383"/>
    <path id="ID0.7477595708332956" fill="#FFFFFF" d="M 218.7287 29.8183 L 211.186 21.7432 L 215.7116 21.7432 L 220.6809 27.3336 L 225.7389 21.7432 L 229.7321 21.7432 L 222.1894 29.7295 L 222.1894 36.2961 L 218.8174 36.2961 L 218.8174 29.8183 Z " stroke-width="0.8873720169067383"/>
  </g>
  <path id="ID0.47341927187517285" fill="#1F1F1F" stroke="#309CDE" stroke-width="2" stroke-linecap="round" d="M 3 132 L 19 130.5 L 52 129 L 54 141 L 52.5 149.5 L 52 164 L 38.5 165 L 28 162.5 L 4.5 164 L 5.5 150 L 1.5 143.5 L 3 132 Z "/>
  <g id="ID0.22417836403474212">
    <path id="ID0.38876025285571814" fill="#309CDE" stroke="none" stroke-linecap="round" d="M 11.5713 146.9169 L 15.6425 143.6784 L 21.5753 142.3363 L 19.3147 142.2156 L 26.1027 138.3204 L 26.9906 153.7949 L 11.5713 146.9169 Z " stroke-width="1.0000000209161224"/>
    <path id="ID0.8329108078032732" fill="#309CDE" stroke="none" stroke-linecap="round" d="M 26.1109 142.8273 L 30.6035 142.5695 L 36.1947 144.0016 L 36.6223 142.725 L 43.5822 141.8249 L 44.0691 150.3109 L 26.5119 149.8158 L 26.1109 142.8273 Z " stroke-width="1.0000000209161224"/>
  </g>
  <path id="ID0.47341927187517285" fill="#1F1F1F" stroke="#FFFFFF" stroke-width="2" stroke-linecap="round" d="M 273.2 129.6 L 257.2 128.1 L 224.2 126.6 L 222.2 138.6 L 223.7 147.1 L 224.2 161.6 L 237.7 162.6 L 248.2 160.1 L 271.7 161.6 L 270.7 147.6 L 274.7 141.1 L 273.2 129.6 Z "/>
  <path id="ID0.41005003126338124" fill="#FFFFFF" stroke="none" stroke-linecap="round" d="M 236.9543 142.4456 L 242.8239 146.6196 L 242.4761 148.0978 L 245.3456 149.3152 L 252.8239 139.3152 L 252.1717 139.0978 L 257.0848 134.4456 L 260.2152 133.8804 L 244.9109 153.8804 L 236.9543 142.4456 Z " stroke-width="0.8695651888847351"/>
</svg>