<svg xmlns="http://www.w3.org/2000/svg" xmlns:xlink="http://www.w3.org/1999/xlink" version="1.1" width="243.71316618044992" height="321.77702421267645" viewBox="1.0958445354311717 -0.6811081782967794 243.71316618044992 321.77702421267645">
  <defs>
    <linearGradient id="grad_1" y2="1" x2="0">
      <stop offset="0" stop-color="#222325" stop-opacity="1"/>
      <stop offset="1" stop-color="#2E3034" stop-opacity="1"/>
    </linearGradient>
  </defs>
  <!-- Exported by Scratch - http://scratch.mit.edu/ -->
  <path id="ID0.7766774026677012" fill="#0D0D0D" stroke="#0D0D0D" stroke-width="1.944016400176475" stroke-linecap="round" d="M 124.8881 184.5433 C 126.9201 153.0265 130.5003 120.415 122.1572 89.3904 C 119.0018 77.6607 104.2224 71.0915 92.5822 65.9781 C 87.2688 63.647 81.3137 67.8134 75.7549 69.0056 C 74.1768 69.3402 72.9502 70.2243 71.5854 70.7716 C 69.6701 71.3589 67.6738 71.7574 65.9216 72.4072 C 65.3011 72.6389 64.6769 72.8665 64.0962 73.1945 C 63.4199 73.4668 62.8808 73.8931 62.2503 74.2168 C 60.9434 74.8127 59.6325 75.4556 58.3298 76.0046 C 57.0353 76.4596 55.6992 76.8163 54.4504 77.3226 C 53.8281 77.5523 53.16 77.7306 52.625 78.1099 C 51.9903 78.4806 51.5344 79.1035 50.9871 79.6237 C 50.4479 80.05 49.9088 80.4763 49.3697 80.9026 C 48.8346 81.2819 48.1502 81.6482 47.7522 82.1815 C 47.3086 82.6635 47.1474 83.3595 46.8409 83.9955 C 46.5386 84.5845 46.1863 85.1691 45.9297 85.8094 C 45.3747 86.9918 44.8654 88.2254 44.3561 89.4591 C 44.0537 90.0481 43.7513 90.6371 43.4448 91.2731 C 43.1424 91.8621 42.84 92.4511 42.5335 93.087 C 42.2311 93.676 41.9287 94.265 41.6222 94.901 C 41.3198 95.49 40.9178 96.0703 40.7109 96.7149 C 40.4584 97.3083 40.405 97.919 40.2978 98.5724 C 40.1448 99.1744 39.9918 99.7765 39.8846 100.4299 C 39.7316 101.0319 39.6284 101.6383 39.4714 102.2873 C 39.2686 102.885 38.9662 103.474 38.8091 104.123 C 38.2008 105.9161 37.6341 107.8075 37.0715 109.6519 C 36.8687 110.2496 36.5663 110.8386 36.4092 111.4876 C 36.2065 112.0853 36.1033 112.6917 35.996 113.3451 C 35.8431 113.9472 35.6403 114.5448 35.5828 115.2026 C 35.4797 115.809 35.4762 116.4241 35.4187 117.0818 C 35.312 118.3033 35.1016 119.5631 35.0904 120.8402 C 35.0371 121.451 35.2117 121.7503 35.1753 122.7412 C 34.8928 126.551 34.5065 130.399 34.17 134.2514 C 33.8458 137.9629 33.5135 141.7683 33.1852 145.5267 C 33.0251 147.3589 32.9067 149.2895 32.6928 151.1644 C 32.5896 151.7708 32.4366 152.3728 32.2796 153.0218 C 31.9074 154.4095 31.4398 155.7415 31.1631 157.1848 C 31.0102 157.7868 31.0564 158.4063 30.999 159.064 C 30.8958 159.6704 30.693 160.2681 30.5858 160.9215 C 30.2799 162.1256 29.92 163.3723 29.7594 164.6364 C 29.5531 165.8492 29.5419 167.1264 29.4311 168.3949 C 29.107 172.1063 28.7746 175.9117 28.4463 179.6702 C 28.3683 180.5628 28.3894 180.896 28.2822 181.5494 C 28.1292 182.1514 27.777 182.7361 27.6199 183.3851 C 27.1112 185.1869 26.7936 187.1 26.3804 188.9575 C 26.2274 189.5595 26.1242 190.1659 25.9672 190.8149 C 25.5534 192.1043 24.9902 193.3806 24.6222 194.7213 C 24.4153 195.3659 24.2998 196.1133 24.1885 196.8136 C 24.0314 197.4627 23.8204 198.1543 23.7548 198.906 C 23.6516 199.5124 23.6481 200.1275 23.5906 200.7852 C 23.5373 201.396 23.3843 201.998 23.4265 202.6644 C 23.4692 203.899 23.7071 205.1979 23.8454 206.4881 C 23.8916 207.1076 23.9379 207.727 23.9303 208.3891 C 23.8769 208.9998 23.8236 209.6106 23.7661 210.2683 C 23.7128 210.8791 23.6595 211.4898 23.602 212.1475 C 23.3957 213.3603 23.2849 214.6288 23.0247 215.8842 C 22.7229 217.0413 21.9698 219.3425 21.9698 219.3425 C 21.6797 219.7905 20.8265 222.4105 20.3347 223.6969 C 20.0678 224.396 19.6872 225.0529 19.4029 225.7457 C 19.1555 226.348 18.9617 226.9702 18.7406 227.5814 C 18.5196 228.1927 18.2603 228.794 18.0784 229.4172 C 17.9007 230.0265 17.8429 230.6653 17.6652 231.2746 C 17.4833 231.8978 17.2609 232.5127 17.003 233.1103 C 16.736 233.7299 16.3206 234.291 16.0917 234.9243 C 15.8759 235.5218 15.8158 236.1632 15.6785 236.7817 C 15.5411 237.4003 15.4026 238.0207 15.2653 238.6392 C 15.1279 239.2578 14.9894 239.8781 14.8521 240.4967 C 14.7148 241.1152 14.5219 241.7261 14.4389 242.3541 C 14.2749 243.6 14.2747 244.8667 14.1106 246.1126 C 14.0277 246.7406 13.8348 247.3515 13.6974 247.97 C 13.5601 248.5886 13.3672 249.1995 13.2843 249.8275 C 13.1202 251.0733 13.0374 252.3319 12.956 253.5859 C 12.7931 256.0949 12.7004 258.6156 12.5485 261.1246 C 12.5108 261.7518 12.439 262.378 12.3843 263.0038 C 12.3297 263.6296 12.3166 264.2618 12.2202 264.883 C 12.1234 265.5089 11.9847 266.1311 11.807 266.7405 C 11.6251 267.3636 11.2853 267.9437 11.1448 268.5762 C 11.0078 269.19 11.0771 269.8342 10.9806 270.4554 C 10.8838 271.0813 10.6643 271.687 10.5674 272.3129 C 10.471 272.934 10.4997 273.5709 10.4033 274.1921 C 10.3065 274.818 10.1678 275.4402 9.9901 276.0495 C 9.8082 276.6727 9.5098 277.2621 9.3279 277.8853 C 9.1502 278.4946 9.0924 279.1334 8.9147 279.7427 C 8.7328 280.3659 8.4206 280.9521 8.2524 281.5784 C 7.9236 282.8032 7.7018 284.0563 7.4261 285.2934 C 7.2887 285.9119 7.1502 286.5323 7.0129 287.1508 C 6.8755 287.7694 6.6965 288.3824 6.5997 289.0083 C 6.5033 289.6295 6.4483 290.259 6.4356 290.8875 C 6.4224 291.5207 6.5476 292.1556 6.5205 292.7885 C 6.466 294.0439 6.4651 295.3191 6.1922 296.5469 C 5.9111 297.8119 5.3584 299.0133 4.8677 300.2183 C 4.6134 300.8428 4.2233 301.4127 3.9564 302.0323 C 3.6984 302.6299 3.5522 303.2704 3.2942 303.868 C 3.0273 304.4875 2.5708 305.0366 2.3829 305.682 C 2.2066 306.2867 1.8725 307.0206 2.2187 307.5612 C 2.588 308.1378 3.4535 308.2958 4.1496 308.4399 C 4.8063 308.5758 5.4941 308.3206 6.1625 308.379 C 6.831 308.4374 7.466 308.7296 8.1344 308.788 C 8.8029 308.8463 9.4765 308.7082 10.1474 308.7271 C 10.8133 308.7455 11.4881 308.7656 12.1398 308.9011 C 12.8112 309.0402 13.4953 309.2183 14.0912 309.5449 C 14.7128 309.8861 15.0741 310.6003 15.7319 310.8717 C 16.3442 311.125 17.0609 310.9878 17.7244 311.0457 C 18.3878 311.1037 19.0515 311.2402 19.7168 311.2198 C 20.4022 311.1992 21.0648 310.9446 21.7502 310.924 C 22.4155 310.9035 23.0836 311.0007 23.7426 311.098 C 24.4066 311.1958 25.0505 311.4092 25.7145 311.5069 C 26.3736 311.6043 27.0553 311.5455 27.7069 311.681 C 28.3784 311.8201 28.9869 312.1857 29.6583 312.3248 C 30.31 312.4603 30.9917 312.4015 31.6507 312.4988 C 32.3148 312.5966 32.966 312.7718 33.6226 312.9077 C 34.2793 313.0437 34.9244 313.278 35.5945 313.3167 C 37.5961 313.4318 39.6091 313.3123 41.6128 313.3689 C 42.2787 313.3873 42.9462 313.4456 43.6052 313.543 C 44.2692 313.6407 44.911 313.8672 45.5771 313.9519 C 46.8986 314.1194 48.2405 314.1324 49.562 314.2999 C 50.2281 314.3846 50.8698 314.6111 51.5339 314.7089 C 52.1929 314.8062 52.8603 314.8645 53.5263 314.8829 C 54.1972 314.9017 54.8683 314.8032 55.5392 314.822 C 56.2051 314.8404 56.8657 314.9776 57.5316 314.996 C 58.2025 315.0149 58.8735 314.9296 59.5445 314.9352 C 60.8786 314.9466 62.22 314.9321 63.5499 315.0483 C 64.2183 315.1067 64.8745 315.2833 65.5218 315.4572 C 66.1838 315.6353 66.8017 315.9619 67.4732 316.1011 C 68.1248 316.2366 68.8021 316.2171 69.4656 316.2751 C 71.456 316.4489 73.4585 316.5651 75.4428 316.7972 C 76.1096 316.8753 76.7507 317.1083 77.4147 317.2061 C 78.0738 317.3034 78.7412 317.3617 79.4071 317.3801 C 80.078 317.3989 80.7498 317.3393 81.4201 317.3192 C 82.0904 317.2992 82.7621 317.2395 83.433 317.2584 C 84.0989 317.2768 84.7628 317.491 85.4254 317.4324 C 86.1325 317.3701 85.8549 317.1584 87.4794 316.9017 C 93.9764 315.8748 105.1084 319.8881 107.212 313.9387 C 114.7146 292.7111 108.9276 268.7265 111.9589 246.3747 C 114.7522 225.7953 123.5047 205.6104 124.8881 184.5433 Z "/>
  <g id="ID0.17693647183477879">
    <path id="ID0.7729651997797191" fill="#3E4246" stroke="none" stroke-linecap="round" d="M 57.7602 104.9728 L 77.7757 108.0092 L 72.5934 124.5518 L 68.5179 137.9152 L 64.1416 143.2587 L 60.3738 146.4026 L 48.0819 141.809 L 47.191 135.7852 L 54.4781 116.3584 L 57.7602 104.9728 Z " stroke-width="0.8164596189844409"/>
    <path id="ID0.9716172609478235" fill="#393C40" stroke="none" stroke-linecap="round" d="M 61.3825 111.1612 L 56.7164 108.3626 L 59.1739 102.0262 L 76.2304 113.3212 L 72.9502 116.0583 L 67.2926 117.4331 L 61.3825 111.1612 Z " stroke-width="0.8164596189844409"/>
    <g id="ID0.38066427363082767">
      <path id="ID0.4757494777441025" fill="#1D1E1F" stroke="none" stroke-linecap="round" d="M 69.248 80.8275 L 77.9765 79.464 L 93.4239 85.7587 L 82.9536 110.3908 L 72.19 114.439 L 67.5886 115.0993 L 64.6017 112.4393 L 62.024 109.2187 L 56.5688 106.0968 L 56.9425 100.6326 L 58.3815 92.6352 L 62.3316 84.6254 L 69.248 80.8275 Z " stroke-width="0.47614254796116684"/>
      <path id="ID0.6007084371522069" fill="none" stroke="#0D0D0D" stroke-width="0.9522850959223337" stroke-linecap="round" d="M 57.0109 106.4953 L 61.9054 109.208 L 65.8416 113.2684 L 67.5779 115.2179 L 72.19 114.439 L 76.7798 112.5824 "/>
    </g>
  </g>
  <g id="ID0.17693647183477879">
    <path id="ID0.7729651997797191" fill="#393C40" stroke="none" stroke-linecap="round" d="M 139.9922 104.6389 L 121.1889 100.2403 L 119.9208 116.7276 L 118.7982 130.0071 L 120.7821 136.2896 L 123.0061 140.4085 L 135.5199 140.6927 L 138.4422 135.6728 L 138.8673 115.8856 L 139.9922 104.6389 Z " stroke-width="0.7788097977858542"/>
    <path id="ID0.9716172609478235" fill="#34373A" stroke="none" stroke-linecap="round" d="M 134.5924 108.8373 L 139.7162 108.0109 L 139.7835 101.5284 L 120.6764 105.4925 L 122.6125 109.0784 L 127.1367 112.2996 L 134.5924 108.8373 Z " stroke-width="0.7788097977858542"/>
    <g id="ID0.38066427363082767">
      <path id="ID0.4757494777441025" fill="#1D1E1F" stroke="none" stroke-linecap="round" d="M 138.3344 79.3779 L 131.0862 75.0793 L 115.1751 75.1843 L 115.726 100.7092 L 123.826 108.1064 L 127.6677 110.3207 L 131.2552 109.0224 L 134.6789 107.0826 L 140.6161 106.2493 L 142.2201 101.2773 L 143.7776 93.6842 L 143.1154 85.191 L 138.3344 79.3779 Z " stroke-width="0.45418602886832105"/>
      <path id="ID0.6007084371522069" fill="none" stroke="#0D0D0D" stroke-width="0.9083720577366421" stroke-linecap="round" d="M 140.0834 106.4457 L 134.7877 107.1151 L 129.8634 109.3176 L 127.6352 110.4295 L 123.826 108.1064 L 120.4182 104.8366 "/>
    </g>
  </g>
  <g id="ID0.7397577832452953">
    <path id="ID0.6726378230378032" fill="#34373A" stroke="none" stroke-linecap="round" d="M 117.4674 136.8619 L 131.6135 126.203 L 133.2948 127.7953 L 119.1632 138.035 L 117.4674 136.8619 Z " stroke-width="0.7788100913407973"/>
    <path id="ID0.6507829907350242" fill="#1D1E1F" stroke="none" stroke-linecap="round" d="M 117.2516 140.2551 L 133.4635 127.6131 L 149.8753 135.2734 L 158.3543 141.139 L 172.4289 147.3434 L 178.3656 149.3221 L 175.5135 160.6189 L 169.7339 158.2839 L 160.4754 156.1175 L 148.5081 153.821 L 139.4277 151.7332 L 117.2516 140.2551 Z " stroke-width="0.7788100913407973"/>
    <path id="ID0.6829322893172503" fill="#1D1E1F" stroke="none" stroke-linecap="round" d="M 175.0001 160.8182 L 174.5515 149.7686 L 180.6185 149.0385 L 187.3558 147.7529 L 192.3443 149.952 L 196.2064 152.2928 L 198.0934 155.2525 L 203.4229 159.0913 L 201.4384 163.1105 L 199.1856 163.3941 L 198.3791 164.7408 L 194.8064 166.5704 L 190.7989 168.421 L 186.094 168.4748 L 180.1726 165.0134 L 175.0001 160.8182 Z " stroke-width="0.7788100913407973"/>
    <path id="ID0.47767175547778606" fill="none" stroke="#0D0D0D" stroke-width="1.5576201826815945" stroke-linecap="round" d="M 120.7079 141.7787 L 117.2546 139.9586 L 133.4321 127.6844 L 145.5282 133.3571 "/>
    <path id="ID0.5922487881034613" fill="#282A2B" stroke="none" stroke-linecap="round" d="M 146.6499 154.2713 L 144.4501 145.9394 L 146.8775 140.626 L 154.4673 137.5032 L 166.9945 144.515 L 171.7801 151.5186 L 170.4449 154.5473 L 161.675 157.0647 L 146.6499 154.2713 Z " stroke-width="0.7788100913407973"/>
    <path id="ID0.36820242274552584" fill="#151616" stroke="none" stroke-linecap="round" d="M 151.2828 149.8509 L 154.4787 142.408 L 163.4902 149.1892 L 162.8378 150.4762 L 151.2828 149.8509 Z " stroke-width="0.7788100913407973"/>
    <path id="ID0.13569410238415003" fill="none" stroke="#232425" stroke-width="1.5576201826815945" stroke-linecap="round" d="M 160.7358 154.6578 L 169.2061 152.4338 L 164.8029 145.0456 "/>
    <path id="ID0.024502143263816833" fill="none" stroke="#0D0D0D" stroke-width="1.5576201826815945" stroke-linecap="round" d="M 146.515 153.7084 L 144.3175 146.1435 L 146.4284 140.7757 L 154.0497 137.5817 L 161.1868 141.6642 "/>
  </g>
  <path id="ID0.3809091211296618" fill="#393D40" stroke="none" stroke-linecap="round" d="M 123.1115 183.3336 L 109.7247 158.1288 L 148.2086 153.2356 L 159.1453 153.6838 L 177.2132 158.1492 L 180.2295 166.6495 L 182.0995 179.5318 L 161.2979 180.3954 L 149.9143 179.098 L 123.1115 183.3336 Z " stroke-width="0.7305889658264246"/>
  <path id="ID0.3809091211296618" fill="#3E4246" stroke="none" stroke-linecap="round" d="M 87.0557 151.576 L 108.5089 162.1074 L 117.5998 199.8209 L 118.3556 210.7406 L 115.9019 229.1897 L 107.7845 233.1215 L 95.1855 236.3953 L 91.1742 214.996 L 87.4041 202.1206 L 87.0557 151.576 Z " stroke-width="0.7305889425988568"/>
  <g id="ID0.9157347986474633">
    <path id="ID0.7477802094072104" fill="#363A3D" stroke="none" stroke-linecap="round" d="M 137.7895 121.7377 L 118.0447 120.4143 L 121.751 161.4335 L 139.1517 168.8253 L 139.2213 144.1978 L 137.7895 121.7377 Z " stroke-width="0.47614259304479867"/>
    <path id="ID0.7477802094072104" fill="#363A3D" stroke="none" stroke-linecap="round" d="M 77.918 127.1529 L 101.0158 122.1974 L 104.7221 163.2166 L 88.9282 173.6078 L 81.2145 149.0859 L 77.918 127.1529 Z " stroke-width="0.47614259304479867"/>
    <path id="ID0.4270821204409003" fill="#3E4246" stroke="none" stroke-linecap="round" d="M 76.4388 107.2578 L 79.1077 94.467 L 80.8353 88.4544 L 86.7237 80.8706 L 117.7945 79.4974 L 125.0562 83.144 L 128.2657 86.9177 L 136.2886 97.6668 L 136.52 108.1637 L 136.0643 113.7028 L 138.3453 120.4289 L 139.3123 125.8395 L 137.7996 132.9083 L 136.6586 138.2703 L 136.3086 147.6246 L 139.7734 169.3033 L 135.391 177.9462 L 131.1844 184.5653 L 119.6042 191.0617 L 107.785 189.0938 L 103.2687 182.761 L 97.7584 176.8047 L 88.9678 174.4915 L 85.5481 149.3426 L 83.7627 142.8107 L 78.1819 131.841 L 75.9031 121.1706 L 76.4388 107.2578 Z " stroke-width="0.47614259304479867"/>
    <path id="ID0.052435632329434156" fill="#393C40" stroke="none" stroke-linecap="round" d="M 93.0295 155.7309 L 97.4676 155.3777 L 104.3311 158.0564 L 109.3665 157.4341 L 115.3836 158.6832 L 119.4603 157.2392 L 121.0772 156.615 L 134.926 151.9454 L 135.5773 155.1853 L 127.4164 160.1059 L 121.4609 160.3332 L 116.1632 163.8717 L 109.2072 160.9624 L 102.8439 161.9676 L 92.6612 159.063 L 93.0295 155.7309 Z " stroke-width="0.47614259304479867"/>
    <path id="ID0.4987568911164999" fill="none" stroke="#27282B" stroke-width="0.9522851860895973" stroke-linecap="round" d="M 86.586 81.3866 L 80.7412 88.1298 L 78.3215 98.3882 "/>
    <path id="ID0.2889464790932834" fill="none" stroke="#27282B" stroke-width="0.9522851860895973" stroke-linecap="round" d="M 119.198 79.8742 L 125.2313 83.1537 L 131.7574 91.8866 "/>
    <path id="ID0.8373676878400147" fill="#000000" stroke="#2C2F31" stroke-width="0.6155104153207342" stroke-linecap="round" d="M 91.2289 93.9926 L 91.4339 92.4368 L 87.8921 93.6747 L 83.362 97.4457 L 79.712 102.8547 L 77.7866 108.6887 L 82.6951 105.972 L 87.3627 105.4304 L 90.1826 106.0911 L 92.9867 108.8348 L 94.988 107.6223 L 98.9545 106.973 L 103.5451 107.5931 L 107.6645 110.4036 L 110.0131 113.2547 L 111.8817 110.0461 L 115.2755 106.5819 L 119.2422 104.7761 L 124.3756 104.2806 L 126.2538 104.6955 L 127.6567 101.4407 L 129.4891 100.0081 L 132.1299 100.2952 L 135.0724 101.6417 L 133.287 97.9821 L 130.6519 94.3018 L 127.5408 91.5785 L 124.1735 89.6434 L 119.5931 89.1768 L 121.9419 90.8712 L 122.0593 92.6369 L 120.6668 94.8886 L 117.2222 96.4284 L 114.1002 97.0215 L 111.5002 97.3486 L 108.6553 93.9907 L 108.4092 96.089 L 106.9506 96.186 L 105.1803 93.9133 L 104.6165 98.1918 L 100.563 98.6926 L 96.3614 98.1237 L 92.8967 97.0432 L 91.2289 93.9926 Z "/>
    <path id="ID0.5698574706912041" fill="none" stroke="#313537" stroke-width="0.9522851860895973" stroke-linecap="round" d="M 92.9434 155.5714 L 92.6398 158.8259 L 102.8546 162.0861 L 109.58 161.1199 L 115.9154 163.7745 "/>
    <path id="ID0.5698574706912041" fill="none" stroke="#313537" stroke-width="0.8933066635185726" stroke-linecap="round" d="M 134.4058 152.0047 L 135.2118 155.1589 L 127.0089 160.0833 L 121.0859 160.2599 L 116.1044 163.9371 "/>
    <path id="ID0.8947288258932531" fill="#393C40" stroke="none" stroke-linecap="round" d="M 93.172 143.5509 L 100.1559 142.8003 L 107.8435 144.018 L 113.9836 149.009 L 106.5237 145.2847 L 95.6716 144.7593 L 90.8459 148.2311 L 93.172 143.5509 Z " stroke-width="0.47614259304479867"/>
    <path id="ID0.8947288258932531" fill="#393C40" stroke="none" stroke-linecap="round" d="M 131.6279 140.9753 L 125.4283 141.4296 L 118.9283 143.7093 L 114.3742 149.0287 L 120.2783 144.6028 L 129.6433 142.4238 L 134.3955 144.6811 L 131.6279 140.9753 Z " stroke-width="0.42137387868827214"/>
    <path id="ID0.9897695370018482" fill="#393C40" stroke="none" stroke-linecap="round" d="M 97.7133 155.4512 L 91.1501 155.5661 L 91.1591 150.904 L 92.6595 154.2823 L 97.7465 153.9661 L 104.1787 156.8988 L 109.6 156.0504 L 113.8068 157.1046 L 114.475 149.1558 L 115.5947 158.9031 L 109.8428 157.4149 L 103.9863 157.9441 L 97.7133 155.4512 Z " stroke-width="0.47614259304479867"/>
    <path id="ID0.9897695370018482" fill="#393C40" stroke="none" stroke-linecap="round" d="M 129.6507 152.7273 L 135.1251 151.7881 L 134.3756 147.5206 L 133.6659 150.8528 L 129.3868 151.3728 L 124.5063 155.0818 L 119.8645 155.1678 L 116.5351 156.8025 L 114.7146 149.6306 L 115.335 158.7339 L 119.8798 156.4558 L 124.8326 156.0083 L 129.6507 152.7273 Z " stroke-width="0.42322511547746794"/>
    <path id="ID0.3524594851769507" fill="#393C40" stroke="none" stroke-linecap="round" d="M 104.9724 119.9386 L 111.0497 121.5886 L 115.2736 118.8644 L 112.4629 122.943 L 114.4139 133.9538 L 123.3705 132.284 L 113.3067 136.7789 L 101.2664 133.1577 L 111.0987 134.3012 L 109.6802 123.0988 L 104.9724 119.9386 Z " stroke-width="0.47614259304479867"/>
    <path id="ID0.9214867809787393" fill="#393C40" stroke="none" stroke-linecap="round" d="M 92.8228 139.6861 L 95.4074 135.2215 L 100.0638 133.8446 L 94.6832 139.1116 L 94.7096 142.0494 L 99.7405 141.6427 L 108.1624 144.1087 L 99.0522 143.0196 L 93.2194 143.5466 L 92.8228 139.6861 Z " stroke-width="0.47614259304479867"/>
    <path id="ID0.9214867809787393" fill="#393C40" stroke="none" stroke-linecap="round" d="M 130.9151 136.9524 L 127.8407 133.1924 L 123.4189 132.6795 L 129.1443 136.7246 L 129.6128 139.4882 L 125.0165 139.9492 L 118.6536 143.3756 L 125.8667 141.127 L 131.2049 140.6447 L 130.9151 136.9524 Z " stroke-width="0.4451788222023074"/>
    <path id="ID0.8679121839813888" fill="#2C2F31" stroke="none" stroke-linecap="round" d="M 106.8207 118.6765 L 110.76 119.946 L 113.9317 118.0101 L 114.9658 118.8728 L 111.2935 121.8819 L 105.3542 120.1715 L 106.8207 118.6765 Z " stroke-width="0.47614259304479867"/>
    <path id="ID0.24770551454275846" fill="none" stroke="#313537" stroke-width="0.9522851860895973" stroke-linecap="round" d="M 110.6304 116.3406 L 115.5753 119.4794 L 123.087 119.2787 L 130.578 117.5262 L 135.4515 113.2612 "/>
    <path id="ID0.20603158557787538" fill="none" stroke="#313537" stroke-width="0.9522851860895973" stroke-linecap="round" d="M 77.1052 115.3505 L 84.5818 120.0533 L 97.2005 122.1402 L 104.3787 120.894 L 110.1899 116.4248 "/>
    <g id="ID0.5272086253389716">
      <path id="ID0.24770551454275846" fill="none" stroke="#363A3D" stroke-width="0.9522851267267828" stroke-linecap="round" d="M 83.4728 147.3559 L 93.0515 143.3112 "/>
      <path id="ID0.24770551454275846" fill="none" stroke="#363A3D" stroke-width="0.9522851267267828" stroke-linecap="round" d="M 79.767 135.8378 L 99.5515 127.8112 "/>
    </g>
    <g id="ID0.5272086253389716">
      <path id="ID0.24770551454275846" fill="none" stroke="#363A3D" stroke-width="0.9522850743008004" stroke-linecap="round" d="M 138.3157 141.3993 L 131.2404 140.1988 "/>
      <path id="ID0.24770551454275846" fill="none" stroke="#363A3D" stroke-width="0.9522850743008004" stroke-linecap="round" d="M 137.8053 130.341 L 123.5583 126.848 "/>
    </g>
    <g id="ID0.7887678607366979">
      <path id="ID0.753661650698632" fill="none" stroke="#313537" stroke-width="0.9522851267267828" stroke-linecap="round" d="M 105.4573 120.0143 L 110.8878 121.914 L 114.683 118.9416 "/>
      <g id="ID0.8167418288066983">
        <path id="ID0.9553722990676761" fill="none" stroke="#313537" stroke-width="1.0409108731282684" stroke-linecap="round" d="M 112.7563 136.5742 L 106.9735 134.9453 L 100.653 133.6041 L 95.9872 134.9818 L 92.8791 139.5654 L 93.1897 143.0034 "/>
        <path id="ID0.5982440118677914" fill="none" stroke="#313537" stroke-width="0.8540413700290124" stroke-linecap="round" d="M 101.0086 133.2787 L 99.3468 128.114 L 103.928 120.6136 "/>
      </g>
      <g id="ID0.7324484633281827">
        <path id="ID0.04993448918685317" fill="none" stroke="#313537" stroke-width="0.9522851267267828" stroke-linecap="round" d="M 110.8771 121.7954 L 112.5311 132.1638 L 114.4835 148.4812 L 116.1882 164.7015 "/>
        <g id="ID0.8167418288066983">
          <path id="ID0.9553722990676761" fill="none" stroke="#313537" stroke-width="0.9699703275187453" stroke-linecap="round" d="M 112.8745 136.4495 L 117.7673 134.6449 L 123.0043 132.2594 L 127.2691 132.8302 L 130.7277 136.8204 L 131.0383 140.2585 "/>
          <path id="ID0.5982440118677914" fill="none" stroke="#313537" stroke-width="0.7916616611533219" stroke-linecap="round" d="M 122.7796 131.9458 L 123.346 126.5797 L 118.1229 119.9652 "/>
          <path id="ID0.3567589442245662" fill="none" stroke="#313537" stroke-width="0.8967655694795877" stroke-linecap="round" d="M 114.2184 149.1109 L 118.88 143.6938 L 126.0076 141.1374 L 131.5132 140.64 L 134.1624 145.0619 L 135.0863 152.0301 L 129.6242 153.2408 L 124.272 156.8319 L 119.3498 157.0376 L 115.323 159.2421 L 109.2797 157.2782 L 103.733 158.0184 L 97.0522 155.5145 L 90.7108 155.3704 L 90.4124 148.3456 L 92.5389 143.4922 L 98.7952 142.9269 L 107.2667 144.0738 L 113.5119 148.5054 Z "/>
        </g>
      </g>
    </g>
    <g id="ID0.9312638868577778">
      <path id="ID0.2888958193361759" fill="#393C40" stroke="none" stroke-linecap="round" d="M 96.0626 163.517 L 106.4258 164.6734 L 106.0958 167.6309 L 95.7326 166.4745 L 96.0626 163.517 Z " stroke-width="0.4761425202585702"/>
      <path id="ID0.2888958193361759" fill="#393C40" stroke="none" stroke-linecap="round" d="M 85.3245 162.3534 L 96.9758 163.7734 L 96.6458 166.7309 L 86.2826 165.5745 L 85.3245 162.3534 Z " stroke-width="0.4761425202585702"/>
      <g id="ID0.36424446757882833">
        <path id="ID0.7359844641759992" fill="#8A7B59" stroke="none" d="M 99.0789 162.5492 L 100.5964 162.4121 L 101.1577 168.6242 L 99.6402 168.7614 L 99.0789 162.5492 Z " stroke-width="0.4761425633633914"/>
        <path id="ID0.7359844641759992" fill="#8A7B59" stroke="none" d="M 97.0789 162.2992 L 98.5964 162.1621 L 99.1577 168.3742 L 97.6402 168.5114 L 97.0789 162.2992 Z " stroke-width="0.4761425633633914"/>
        <path id="ID0.7359844641759992" fill="#8A7B59" stroke="none" d="M 95.0789 161.7992 L 96.5964 161.6621 L 97.1577 167.8742 L 95.6402 168.0114 L 95.0789 161.7992 Z " stroke-width="0.4761425633633914"/>
        <path id="ID0.7359844641759992" fill="#8A7B59" stroke="none" d="M 101.0789 162.8492 L 102.5964 162.7121 L 103.1577 168.9242 L 101.6402 169.0614 L 101.0789 162.8492 Z " stroke-width="0.4761425633633914"/>
      </g>
      <g id="ID0.1049797898158431">
        <path id="ID0.08871637750416994" fill="#8A7B59" stroke="none" stroke-linecap="round" d="M 86.9903 161.5934 L 93.4627 162.0603 L 93.9187 167.6366 L 87.6813 167.1245 L 86.9903 161.5934 Z " stroke-width="0.4761425633633914"/>
        <path id="ID0.13805592898279428" fill="#76694C" stroke="none" stroke-linecap="round" d="M 86.7969 161.3812 L 93.5775 161.8203 L 93.9316 164.6807 L 87.1186 164.1489 L 86.7969 161.3812 Z " stroke-width="0.4761425633633914"/>
        <path id="ID0.3221200187690556" fill="#61563F" stroke="none" stroke-linecap="round" d="M 89.7263 163.3015 L 90.6339 163.5827 L 90.8692 165.3257 L 89.8868 165.0772 L 89.7263 163.3015 Z " stroke-width="0.5167889235481297"/>
        <path id="ID0.1420820001512766" fill="#BAA578" stroke="none" stroke-linecap="round" d="M 93.1954 166.8008 L 93.7781 165.3138 L 94.0334 167.6095 L 87.7075 167.1771 L 93.1954 166.8008 Z " stroke-width="0.4761425633633914"/>
      </g>
      <path id="ID0.2888958193361759" fill="#393C40" stroke="none" stroke-linecap="round" d="M 133.5202 160.5401 L 126.29 163.0139 L 126.9487 165.5012 L 134.1789 163.0274 L 133.5202 160.5401 Z " stroke-width="0.38104699770322353"/>
      <path id="ID0.2888958193361759" fill="#393C40" stroke="none" stroke-linecap="round" d="M 139.8325 158.1011 L 133.04 160.6639 L 133.6987 163.1512 L 139.675 161.0413 L 139.8325 158.1011 Z " stroke-width="0.38104699770322353"/>
      <path id="ID0.7359844641759992" fill="#8A7B59" stroke="none" d="M 131.4345 159.6521 L 130.332 159.7517 L 130.8203 165.1557 L 131.9228 165.056 L 131.4345 159.6521 Z " stroke-width="0.3816027940781624"/>
      <path id="ID0.7359844641759992" fill="#8A7B59" stroke="none" d="M 132.6845 159.0021 L 131.582 159.1017 L 132.0703 164.5057 L 133.1728 164.406 L 132.6845 159.0021 Z " stroke-width="0.3816027940781624"/>
      <path id="ID0.7359844641759992" fill="#8A7B59" stroke="none" d="M 134.1345 158.4021 L 133.032 158.5017 L 133.5203 163.9057 L 134.6228 163.806 L 134.1345 158.4021 Z " stroke-width="0.3816027940781624"/>
      <path id="ID0.7359844641759992" fill="#8A7B59" stroke="none" d="M 130.0345 160.3021 L 128.932 160.4017 L 129.4203 165.8057 L 130.5228 165.706 L 130.0345 160.3021 Z " stroke-width="0.3816027940781624"/>
      <g id="ID0.1049797898158431">
        <path id="ID0.08871637750416994" fill="#8A7B59" stroke="none" stroke-linecap="round" d="M 140.0112 157.0561 L 135.1746 158.4652 L 135.6765 163.6119 L 140.3281 162.1974 L 140.0112 157.0561 Z " stroke-width="0.40545297895600624"/>
        <path id="ID0.13805592898279428" fill="#76694C" stroke="none" stroke-linecap="round" d="M 140.2018 156.8297 L 135.1272 158.2604 L 135.2936 160.9187 L 140.3786 159.3987 L 140.2018 156.8297 Z " stroke-width="0.40545297895600624"/>
        <path id="ID0.3221200187690556" fill="#61563F" stroke="none" stroke-linecap="round" d="M 138.2671 158.9833 L 137.6218 159.3773 L 137.7083 161.0001 L 138.4154 160.6245 L 138.2671 158.9833 Z " stroke-width="0.44006481471241365"/>
        <path id="ID0.1420820001512766" fill="#BAA578" stroke="none" stroke-linecap="round" d="M 136.1817 162.7327 L 135.5137 161.4674 L 135.6692 163.5965 L 140.4 162.2411 L 136.1817 162.7327 Z " stroke-width="0.40545297895600624"/>
      </g>
      <g id="ID0.6836685389280319">
        <path id="ID0.09357938077300787" fill="#857656" stroke="none" d="M 106.7853 161.7224 L 124.6867 160.1049 L 125.2652 166.5068 L 107.3637 168.1243 L 106.7853 161.7224 Z " stroke-width="0.4283320751284291"/>
        <path id="ID0.6492703901603818" fill="#7C6E50" stroke="none" stroke-linecap="round" d="M 107.7787 163.936 L 116.2373 166.2793 L 124.7554 162.4021 L 125.1389 166.6463 L 108.1621 168.1802 L 107.7787 163.936 Z " stroke-width="0.4761425633633914"/>
        <g id="ID0.9254062357358634">
          <g id="ID0.49943465692922473">
            <path id="ID0.140373723115772" fill="#968561" stroke="none" d="M 123.13 159.1425 L 128.2278 158.6819 L 129.0419 167.6919 L 123.9441 168.1525 L 123.13 159.1425 Z " stroke-width="0.4761425633633914"/>
            <path id="ID0.8286363878287375" fill="#BAA578" stroke="none" stroke-linecap="round" d="M 123.1295 158.9827 L 128.3673 158.7485 L 124.3102 159.88 L 123.4835 162.1061 L 123.1295 158.9827 Z " stroke-width="0.4761425633633914"/>
            <path id="ID0.7362233307212591" fill="#8A7B59" stroke="none" stroke-linecap="round" d="M 123.7017 165.0505 L 126.409 164.8537 L 128.6326 162.2145 L 129.1361 167.7865 L 123.9909 168.2514 L 123.7017 165.0505 Z " stroke-width="0.4761425633633914"/>
          </g>
          <g id="ID0.49943465692922473">
            <path id="ID0.140373723115772" fill="#968561" stroke="none" d="M 107.9575 160.63 L 102.8598 161.0906 L 103.6739 170.1006 L 108.7716 169.64 L 107.9575 160.63 Z " stroke-width="0.4761425633633914"/>
            <path id="ID0.8286363878287375" fill="#BAA578" stroke="none" stroke-linecap="round" d="M 107.938 160.5217 L 102.7431 161.2301 L 106.9373 161.6161 L 108.1497 163.6579 L 107.938 160.5217 Z " stroke-width="0.4761425633633914"/>
            <path id="ID0.7362233307212591" fill="#8A7B59" stroke="none" stroke-linecap="round" d="M 108.4627 166.5937 L 105.764 166.8854 L 103.1033 164.6876 L 103.6068 170.2595 L 108.752 169.7947 L 108.4627 166.5937 Z " stroke-width="0.4761425633633914"/>
          </g>
        </g>
      </g>
    </g>
  </g>
  <g id="ID0.8333355090580881">
    <path id="ID0.9286923445761204" fill="#27282B" stroke="none" stroke-linecap="round" d="M 89.121 46.5163 L 107.9765 45.9022 L 111.1445 70.0547 L 127.0777 75.4671 L 105.6197 89.2822 L 67.7937 80.8695 L 86.3783 68.1409 L 89.121 46.5163 Z " stroke-width="0.4761425827568677"/>
    <path id="ID0.5448851804248989" fill="none" stroke="#1D1E1F" stroke-width="0.9522851655137354" stroke-linecap="round" d="M 87.1605 62.2569 L 86.5466 67.9305 L 104.4044 73.8473 L 110.8711 70.181 "/>
    <path id="ID0.262191956397146" fill="none" stroke="#1D1E1F" stroke-width="0.9522851655137354" stroke-linecap="round" d="M 90.4531 66.8728 L 103.7729 71.618 L 106.6304 70.174 "/>
  </g>
  <g id="ID0.3450673264451325">
    <g id="ID0.9831569031812251">
      <path id="ID0.0877610077150166" fill="#2E3034" stroke="none" stroke-linecap="round" d="M 112.5366 13.7469 L 108.2914 0.5208 L 107.583 29.0406 L 115.252 29.2311 L 112.5366 13.7469 Z " stroke-width="0.5866066080078138"/>
      <path id="ID0.796130308881402" fill="#242628" stroke="none" stroke-linecap="round" d="M 112.7657 13.7928 L 108.1649 0.5578 L 111.3765 14.4799 L 111.9464 29.386 L 115.1279 29.1698 L 112.7657 13.7928 Z " stroke-width="0.5866066080078138"/>
    </g>
    <g id="ID0.9831569031812251">
      <path id="ID0.0877610077150166" fill="#2E3034" stroke="none" stroke-linecap="round" d="M 88.9114 13.2899 L 93.808 0.2909 L 93.0996 28.8107 L 85.4306 28.6202 L 88.9114 13.2899 Z " stroke-width="0.5866066080078138"/>
      <path id="ID0.796130308881402" fill="#242628" stroke="none" stroke-linecap="round" d="M 88.5672 13.3388 L 93.8193 0.3486 L 89.9205 14.0941 L 88.467 28.6219 L 85.4443 28.5796 L 88.5672 13.3388 Z " stroke-width="0.5866066080078138"/>
    </g>
    <path id="ID0.8999492498114705" fill="#2E3034" stroke="none" stroke-linecap="round" d="M 106.3246 19.6113 C 110.7155 20.1996 115.3786 23.0266 117.4138 26.9613 C 119.7359 31.4535 117.6497 37.002 117.8253 42.0034 C 117.9562 43.7106 118.705 45.4825 118.334 47.098 C 117.5785 50.384 115.8298 53.3704 114.6693 56.5356 C 113.9088 58.6099 113.6959 60.9601 112.48 62.8336 C 111.1087 65.0529 109.6885 68.1527 107.0784 68.5437 C 103.2088 69.1229 99.1793 67.1812 95.7744 65.3408 C 92.9773 63.8285 90.3795 61.5513 88.8745 58.7407 C 86.1835 53.5274 83.7638 47.8055 83.5244 41.9137 C 83.2593 35.3824 82.6896 27.2996 87.559 22.7025 C 91.9227 18.2682 99.7972 18.7397 106.3246 19.6113 Z " stroke-width="0.5080372350280091"/>
    <path id="ID0.2441388238221407" fill="#AB8E85" stroke="none" d="M 103.4628 44.2158 C 107.5376 44.4841 113.0536 41.4554 115.7097 44.2687 C 118.0998 46.9197 114.6119 51.6959 113.5552 55.1444 C 112.5027 58.5741 111.7219 62.2945 109.4138 65.0913 C 108.3152 66.3328 106.0888 66.3491 104.3655 66.0337 C 101.2668 65.4631 98.2378 64.104 95.6885 62.2493 C 93.0504 60.3308 89.5541 58.2139 89.063 54.9757 C 88.4413 50.8737 89.2394 45.4968 92.501 43.0013 C 95.4896 40.8256 99.7981 43.974 103.4628 44.2158 Z " stroke-width="1.2558400231202822"/>
    <path id="ID0.46721756737679243" fill="#A2887F" stroke="none" stroke-linecap="round" d="M 88.7518 45.1839 L 90.4108 45.9112 L 116.4237 46.1762 L 109.0857 51.0759 L 92.4122 48.197 L 93.4702 50.6118 L 93.5848 56.2301 L 97.0376 63.5069 L 92.6326 56.7147 L 88.7518 45.1839 Z " stroke-width="0.5080372350280091"/>
    <path id="ID0.8256730306893587" fill="none" stroke="#937B73" stroke-width="1.0160744700560183" stroke-linecap="round" d="M 99.5142 57.241 C 99.5142 57.241 102.2274 56.7118 103.5968 56.5547 C 103.9393 56.5154 104.2756 56.6016 104.6107 56.6561 C 104.9513 56.7118 105.2762 56.8876 105.6214 56.8845 C 106.3056 56.8786 106.9793 56.6982 107.6605 56.6302 C 107.9982 56.5965 108.339 56.5668 108.6781 56.5793 C 109.0178 56.5918 109.3621 56.6207 109.6914 56.7061 C 110.2327 56.8466 111.2786 57.2537 111.2786 57.2537 "/>
    <path id="ID0.7592270169407129" fill="none" stroke="#937B73" stroke-width="1.0160744700560183" stroke-linecap="round" d="M 107.6889 58.731 C 107.6889 58.731 107.0587 59.0605 106.7138 59.1134 C 106.3791 59.165 106.0369 59.0117 105.6993 59.0374 C 105.3597 59.0635 105.0414 59.2324 104.7026 59.2667 C 104.3659 59.301 104.0146 59.3248 103.6869 59.2415 C 103.4081 59.1705 102.9351 58.8162 102.9351 58.8162 "/>
    <path id="ID0.5332203092984855" fill="none" stroke="#937B73" stroke-width="1.0160744700560183" stroke-linecap="round" d="M 102.2214 49.1775 C 102.2214 49.1775 101.6053 49.5942 101.4914 49.9217 C 101.3433 50.3606 101.0679 51.1989 101.5025 51.5228 C 102.0758 51.8272 102.8521 51.1192 103.5435 51.1923 C 104.2124 51.2658 105.5116 51.7494 105.5116 51.7494 "/>
    <path id="ID0.2278452254831791" fill="none" stroke="#937B73" stroke-width="1.0160744700560183" stroke-linecap="round" d="M 106.6546 45.6286 C 106.6546 45.6286 107.5423 47.5137 107.9819 48.4567 C 108.129 48.7724 108.2921 49.0823 108.4156 49.4076 C 108.5392 49.7329 108.7435 50.0591 108.7212 50.4062 C 108.6988 50.7542 108.4846 51.0711 108.2909 51.3611 C 108.1616 51.555 107.771 51.8309 107.771 51.8309 "/>
    <path id="ID0.6473136460408568" fill="none" stroke="#937B73" stroke-width="1.016074743706117" stroke-linecap="round" d="M 106.7019 62.4793 C 106.7019 62.4793 107.0029 63.1218 107.0452 63.4675 C 107.0859 63.8041 107.0173 64.1501 106.9455 64.4815 C 106.8377 64.981 106.5082 65.9523 106.5082 65.9523 "/>
    <path id="ID0.11669129692018032" fill="#2E3034" stroke="none" stroke-linecap="round" d="M 90.8142 39.8991 L 114.0056 42.2539 L 117.8754 45.018 L 108.363 49.4825 L 87.7299 46.429 L 90.8142 39.8991 Z " stroke-width="0.5080372350280091"/>
    <path id="ID0.14635155349969864" fill="#2E3034" stroke="none" stroke-linecap="round" d="M 88.0173 45.0895 L 89.8616 45.5164 L 92.3732 50.7878 L 92.5348 56.5598 L 94.2685 60.4143 L 97.0758 64.016 L 88.9774 58.6059 L 88.0173 45.0895 Z " stroke-width="0.5080372350280091"/>
    <path id="ID0.28340246016159654" fill="#1C1D1F" stroke="none" stroke-linecap="round" d="M 91.1181 36.7177 L 94.5085 38.3417 L 104.1512 39.4727 L 104.0083 45.223 L 97.0936 44.1058 L 93.2599 42.93 L 91.2727 41.3679 L 90.4517 39.6186 L 91.1181 36.7177 Z " stroke-width="0.540102680319339"/>
    <path id="ID0.6101007834076881" fill="#FFFFFF" stroke="none" stroke-linecap="round" d="M 94.8286 39.2587 L 96.471 39.6994 L 100.2199 40.9941 L 100.7155 42.9753 L 95.4985 41.3924 L 94.8286 39.2587 Z " stroke-width="0.40610622456300094"/>
    <path id="ID0.28340246016159654" fill="#1C1D1F" stroke="none" stroke-linecap="round" d="M 116.3802 37.353 L 113.2887 38.6492 L 104.6505 39.2296 L 104.5232 44.3573 L 110.7311 43.6684 L 114.1975 42.791 L 116.0366 41.4877 L 116.8452 39.9661 L 116.3802 37.353 Z " stroke-width="0.48162500739623804"/>
    <path id="ID0.6101007834076881" fill="#FFFFFF" stroke="none" stroke-linecap="round" d="M 114.5994 39.364 L 113.0462 39.8169 L 109.5067 41.1255 L 109.076 43.0202 L 114.006 41.4073 L 114.5994 39.364 Z " stroke-width="0.3863867673077857"/>
    <g id="ID0.07940126257017255">
      <path id="ID0.46257128613069654" fill="#27282B" stroke="none" stroke-linecap="round" d="M 104.316 39.3464 L 108.4111 49.4087 L 98.412 47.8898 L 104.316 39.3464 Z " stroke-width="0.5080372350280091"/>
      <path id="ID0.9845890481956303" fill="#27282B" stroke="none" stroke-linecap="round" d="M 105.0792 39.4912 L 113.1747 47.0611 L 108.4391 49.4844 L 105.0792 39.4912 Z " stroke-width="0.5080372350280091"/>
    </g>
    <path id="ID0.20071752788498998" fill="#202324" stroke="none" d="M 95.9681 34.5611 L 100.0436 37.2287 L 104.7633 38.5148 L 104.8048 39.9134 L 97.0657 38.4507 L 91.2324 35.9681 L 93.0033 34.2334 L 95.9681 34.5611 Z " stroke-width="0.5080372350280091"/>
    <path id="ID0.20071752788498998" fill="#202324" stroke="none" d="M 112.7457 34.6757 L 109.6329 37.0461 L 104.3521 38.4768 L 104.2504 39.7565 L 111.4085 38.7687 L 116.8872 36.8766 L 115.4051 34.6018 L 112.7457 34.6757 Z " stroke-width="0.4660980075321438"/>
    <path id="ID0.521138689480722" fill="none" stroke="#212325" stroke-width="0.906062823122074" stroke-linecap="round" d="M 116.3901 37.0528 L 113.1126 38.5575 L 104.5446 39.5909 "/>
    <path id="ID0.17828734638169408" fill="none" stroke="#202324" stroke-width="1.0160744700560183" stroke-linecap="round" d="M 108.2753 48.9213 L 105.5347 41.6115 C 104.5943 39.1681 104.7285 39.7401 104.5636 38.7669 C 104.506 38.427 104.7322 38.0962 104.792 37.7562 C 104.8506 37.4212 104.923 37.083 104.9188 36.7429 C 104.9146 36.3993 104.8239 36.0611 104.7662 35.7228 C 104.6762 35.1945 104.4752 34.1401 104.4752 34.1401 "/>
    <path id="ID0.521138689480722" fill="none" stroke="#212325" stroke-width="1.0160744700560183" stroke-linecap="round" d="M 91.3908 36.2181 L 94.978 38.0859 L 104.5169 39.7204 "/>
    <path id="ID0.8012696979567409" fill="none" stroke="url(#grad_1)" stroke-width="1.0160744700560183" stroke-linecap="round" d="M 116.4351 45.7191 L 108.8721 49.4444 L 90.3417 46.6464 L 92.2266 50.5555 L 92.3799 56.6576 L 94.2203 60.3115 L 97.025 64.0147 "/>
    <path id="ID0.043594349175691605" fill="#D7E2FD" stroke="none" stroke-linecap="round" d="M 99.9238 42.1204 L 100.1801 41.0087 L 100.6368 43.0782 L 98.0649 42.2775 L 99.9238 42.1204 Z " stroke-width="0.5080372350280091"/>
    <path id="ID0.043594349175691605" fill="#D7E2FD" stroke="none" stroke-linecap="round" d="M 109.8348 42.1256 L 109.5946 41.1166 L 109.1927 43.0009 L 111.5256 42.2564 L 109.8348 42.1256 Z " stroke-width="0.46186430677041734"/>
  </g>
  <g id="ID0.4107501800172031">
    <g id="ID0.12414784263819456">
      <path id="ID0.05466862628236413" fill="#292D2E" stroke="none" stroke-linecap="round" d="M 156.9694 177.2027 L 176.9621 159.4462 L 183.2439 177.8787 L 184.6974 182.9556 L 194.1649 198.432 L 213.8086 234.1376 L 201.7441 244.319 L 187.7528 227.0196 L 180.7284 221.3044 L 174.438 214.1595 L 168.7561 201.7292 L 161.9893 191.4325 L 156.9694 177.2027 Z " stroke-width="0.730588966085876"/>
      <path id="ID0.4490455654449761" fill="none" stroke="#272A2B" stroke-width="1.658552191850075" stroke-linecap="round" d="M 156.9559 177.6224 L 176.7278 159.5486 L 184.4627 183.6739 "/>
      <path id="ID0.10446935473009944" fill="none" stroke="#242728" stroke-width="1.658552191850075" stroke-linecap="round" d="M 190.9526 194.1659 L 200.0624 208.3271 L 195.2778 220.2517 "/>
      <path id="ID0.42170455446466804" fill="none" stroke="#242728" stroke-width="1.658552191850075" stroke-linecap="round" d="M 199.7803 209.9054 L 206.8355 223.293 L 201.9733 235.5004 "/>
      <path id="ID0.047098892275244" fill="none" stroke="#242728" stroke-width="1.658552191850075" stroke-linecap="round" d="M 162.3097 191.1014 L 164.0612 194.6308 L 172.6822 199.5613 "/>
    </g>
    <path id="ID0.5368814701214433" fill="#292D2E" stroke="none" stroke-linecap="round" d="M 200.8185 252.0474 L 196.9641 243.5961 L 194.0093 233.7511 L 205.3178 231.3104 L 218.7787 229.3048 L 238.6329 225.098 L 243.837 229.1641 L 226.4555 246.749 L 208.3355 258.4306 L 200.8185 252.0474 Z " stroke-width="0.7702164898572121"/>
  </g>
  <g id="ID0.7397577832452953">
    <path id="ID0.6726378230378032" fill="#393C40" stroke="none" stroke-linecap="round" d="M 47.4803 141.1916 L 64.0074 132.7272 L 65.4574 134.674 L 49.0208 142.7082 L 47.4803 141.1916 Z " stroke-width="0.8164596249857828"/>
    <path id="ID0.6507829907350242" fill="#1D1E1F" stroke="none" stroke-linecap="round" d="M 46.5192 144.6255 L 65.5365 134.4843 L 81.109 145.3474 L 88.8113 152.9302 L 102.2318 161.8693 L 108.0074 164.9806 L 103.0301 176.135 L 97.4808 172.684 L 88.3082 168.7815 L 76.3614 164.2575 L 67.3586 160.4682 L 46.5192 144.6255 Z " stroke-width="0.8164596249857828"/>
    <path id="ID0.6829322893172503" fill="#1D1E1F" stroke="none" stroke-linecap="round" d="M 102.464 176.2485 L 103.9879 164.7558 L 110.3851 165.0928 L 117.5747 164.9767 L 122.3313 168.145 L 125.8991 171.2572 L 127.3157 174.6533 L 132.1297 179.5765 L 129.3573 183.3706 L 126.9796 183.2583 L 125.9045 184.5042 L 121.8856 185.7513 L 117.4138 186.9419 L 112.5449 186.1514 L 107.0517 181.5115 L 102.464 176.2485 Z " stroke-width="0.8164596249857828"/>
    <path id="ID0.47767175547778606" fill="none" stroke="#0D0D0D" stroke-width="1.6329192499715657" stroke-linecap="round" d="M 49.8149 146.8206 L 46.5757 144.3197 L 65.4913 134.5523 L 76.964 142.5864 "/>
    <path id="ID0.5922487881034613" fill="#282A2B" stroke="none" stroke-linecap="round" d="M 74.0537 164.1171 L 73.2802 155.1163 L 76.7427 150.0651 L 85.1431 148.2049 L 96.8202 157.6995 L 100.5032 165.7934 L 98.5796 168.6814 L 89.0693 169.7042 L 74.0537 164.1171 Z " stroke-width="0.8164596249857828"/>
    <path id="ID0.36820242274552584" fill="#151616" stroke="none" stroke-linecap="round" d="M 80.0686 160.5422 L 84.7078 153.4299 L 92.7954 162.0542 L 91.8901 163.266 L 80.0686 160.5422 Z " stroke-width="0.8164596249857828"/>
    <path id="ID0.13569410238415003" fill="none" stroke="#232425" stroke-width="1.6329192499715657" stroke-linecap="round" d="M 88.8397 167.3207 L 97.9878 166.5471 L 94.7689 158.1247 "/>
    <path id="ID0.024502143263816833" fill="none" stroke="#0D0D0D" stroke-width="1.6329192499715657" stroke-linecap="round" d="M 74.3232 163.7828 L 73.4141 155.5745 L 76.5595 150.4103 L 85.0052 148.4821 L 91.6422 153.982 "/>
  </g>
  <g id="ID0.5524204187095165">
    <path id="ID0.5368814701214433" fill="#303436" stroke="none" stroke-linecap="round" d="M 64.3288 302.5728 L 68.1965 294.1275 L 73.7068 285.4503 L 82.953 292.4036 L 93.2788 301.2691 L 109.4529 313.528 L 109.7843 320.1239 L 85.1129 318.4897 L 64.4219 312.4338 L 64.3288 302.5728 Z " stroke-width="0.7702165231812741"/>
    <g id="ID0.7049301471561193">
      <path id="ID0.05466862628236413" fill="#303436" stroke="none" stroke-linecap="round" d="M 91.548 222.7001 L 118.042 226.3141 L 108.1414 243.083 L 105.2342 247.4916 L 99.6513 264.7539 L 85.3396 302.9106 L 69.7569 300.3823 L 73.7782 278.4995 L 73.5427 269.4469 L 74.8703 260.0205 L 80.6059 247.6149 L 84.0155 235.7748 L 91.548 222.7001 Z " stroke-width="0.7305889515392285"/>
      <path id="ID0.4490455654449761" fill="none" stroke="#272A2B" stroke-width="1.6585521961439351" stroke-linecap="round" d="M 91.2982 223.5429 L 117.8894 226.7828 L 104.6138 248.3609 "/>
      <path id="ID0.10446935473009944" fill="none" stroke="#242728" stroke-width="1.6585521961439351" stroke-linecap="round" d="M 100.8756 260.1179 L 96.0581 276.2524 L 83.892 280.3845 "/>
      <path id="ID0.42170455446466804" fill="none" stroke="#242728" stroke-width="1.6585521961439351" stroke-linecap="round" d="M 94.6765 277.0658 L 89.1085 291.1372 L 76.6772 295.3945 "/>
      <path id="ID0.047098892275244" fill="none" stroke="#242728" stroke-width="1.6585521961439351" stroke-linecap="round" d="M 84.3601 236.2894 L 82.8215 239.9167 L 84.6921 249.6703 "/>
    </g>
  </g>
</svg>