<svg xmlns="http://www.w3.org/2000/svg" xmlns:xlink="http://www.w3.org/1999/xlink" version="1.1" width="178.78279610093557" height="264.72346992906057" viewBox="14.29188289435644 -0.051785328070928394 178.78279610093557 264.72346992906057">
  <defs>
    <linearGradient id="grad_1" y2="1" x2="0">
      <stop offset="0" stop-color="#222325" stop-opacity="1"/>
      <stop offset="1" stop-color="#2E3034" stop-opacity="1"/>
    </linearGradient>
  </defs>
  <!-- Exported by Scratch - http://scratch.mit.edu/ -->
  <path id="ID0.21634112810716033" fill="#0D0D0D" stroke="#0D0D0D" stroke-width="2.6342683520450367" stroke-linecap="round" d="M 138.8534 190.0434 C 145.5753 188.5283 144.8061 183.8956 147.4187 181.5444 C 148.1326 180.8854 147.972 183.3214 148.11 184.2565 C 148.2653 185.3019 148.1287 186.4279 148.2974 187.4685 C 149.4709 194.4899 149.2852 196.1913 149.63 198.8887 C 149.7459 199.8338 150.2428 200.649 150.3212 201.6008 C 150.3955 202.504 150.0096 203.4815 150.0839 204.3847 C 150.1624 205.3365 150.4461 206.2391 150.7752 207.0968 C 151.0785 207.8883 151.8076 208.4578 151.9703 209.309 C 152.1383 210.1837 151.7636 211.1705 151.7329 212.0929 C 151.6673 214.0966 151.3298 216.1831 151.683 218.0889 C 152.1817 220.7763 153.4508 223.1597 154.2606 225.7252 C 154.5397 226.607 154.6228 227.5796 154.9519 228.4373 C 155.2552 229.2287 155.7971 229.8837 156.147 230.6494 C 157.2216 232.9981 158.241 235.388 159.2284 237.7858 C 159.8956 239.4055 160.9474 240.8968 161.1148 242.71 C 161.2026 243.6592 160.1393 244.5869 159.9489 245.5659 C 159.5875 247.4247 159.8438 249.3518 159.4742 251.1338 C 156.5387 258.2142 152.6377 258.636 148.9855 260.0121 C 147.9872 260.3825 147.2438 259.2343 146.3451 259.0642 C 145.4722 258.8939 144.462 259.3612 143.5594 259.2798 C 142.6083 259.194 141.6485 259.0046 140.8528 258.5675 C 140.1408 258.1764 139.799 257.3382 139.1538 256.8553 C 138.4897 256.3573 137.6841 256.0472 136.9511 255.643 C 136.218 255.2388 135.4903 255.108 134.7483 254.4308 C 131.782 251.7215 129.0823 248.7206 126.2536 245.8697 C 125.1221 244.7294 123.8711 243.6924 122.8557 242.4453 C 122.3321 241.8028 122.1992 240.8626 121.6606 240.2332 C 120.0927 238.4011 118.1317 236.9286 116.5638 235.0966 C 116.0253 234.4671 115.8616 233.5524 115.3687 232.8844 C 114.8909 232.2355 114.1476 231.8211 113.6698 231.1722 C 113.177 230.5042 113.0232 229.5814 112.4747 228.9601 C 110.3483 226.549 107.8054 224.5223 105.6789 222.1112 C 105.1305 221.49 104.5566 220.7766 104.4839 219.8991 C 104.3965 218.8356 104.7229 217.6571 105.225 216.6152 C 106.0532 214.8963 107.1246 213.225 108.4063 211.7596 C 110.894 208.9157 113.5713 206.1844 116.4678 203.7606 C 117.2773 203.083 118.3786 202.9978 119.3326 202.617 C 120.2866 202.2361 121.3161 202.0403 122.1974 201.4733 C 122.986 200.9661 123.5417 200.1395 124.2128 199.4736 C 124.8839 198.8076 125.4396 197.981 126.2282 197.4738 C 127.1095 196.9069 128.188 196.851 129.093 196.3302 C 131.5957 194.8901 133.9752 193.1848 136.4133 191.6151 C 137.2263 191.0921 138.0216 190.376 138.8534 190.0434 Z "/>
  <path id="ID0.7766774026677012" fill="#0D0D0D" stroke="#0D0D0D" stroke-width="1.7703520927013379" stroke-linecap="round" d="M 155.0289 156.7121 C 156.6952 131.612 159.8914 105.7361 151.2269 80.3566 C 147.9501 70.7612 133.1513 64.5428 121.4965 59.6935 C 116.1766 57.4824 110.2911 60.4315 104.7667 61.0251 C 103.1983 61.1906 101.9863 61.8188 100.6329 62.1684 C 98.7313 62.5143 96.7471 62.7037 95.0089 63.1102 C 94.3933 63.2555 93.774 63.3972 93.1992 63.6221 C 92.5286 63.7962 91.9963 64.1025 91.3718 64.3207 C 90.0766 64.713 88.7779 65.1426 87.4863 65.4975 C 86.2018 65.7778 84.8748 65.9766 83.6364 66.3009 C 83.019 66.4444 82.3555 66.5438 81.8268 66.8128 C 81.1987 67.0683 80.7516 67.5374 80.2122 67.9184 C 79.6799 68.2247 79.1476 68.531 78.6154 68.8373 C 78.0866 69.1063 77.4089 69.3551 77.0185 69.7562 C 76.582 70.1133 76.4294 70.66 76.1313 71.1493 C 75.8367 71.6012 75.4924 72.0464 75.244 72.5424 C 74.7045 73.4529 74.2112 74.4075 73.7178 75.3621 C 73.4232 75.814 73.1287 76.266 72.8305 76.7552 C 72.536 77.2071 72.2414 77.659 71.9433 78.1483 C 71.6487 78.6002 71.3541 79.0521 71.056 79.5414 C 70.7614 79.9933 70.3675 80.4318 70.1687 80.9345 C 69.9238 81.3931 69.8776 81.8786 69.7782 82.3947 C 69.6326 82.8668 69.4871 83.3389 69.3877 83.855 C 69.2421 84.327 69.1462 84.8058 68.9971 85.3152 C 68.8019 85.7806 68.5073 86.2325 68.3582 86.7419 C 67.7726 88.1379 67.2294 89.6154 66.6899 91.0555 C 66.4947 91.5208 66.2001 91.9727 66.051 92.4821 C 65.8558 92.9475 65.7599 93.4263 65.6605 93.9424 C 65.5149 94.4144 65.3197 94.8798 65.2699 95.4026 C 65.174 95.8814 65.1775 96.3736 65.1277 96.8965 C 65.0353 97.8674 64.84 98.8623 64.8434 99.8841 C 64.7972 100.3696 64.9746 100.6205 64.9496 101.4115 C 64.7114 104.4432 64.3703 107.4988 64.0788 110.5612 C 63.798 113.5115 63.5102 116.5365 63.2258 119.5241 C 63.0872 120.9806 62.9912 122.5185 62.7993 124.0056 C 62.7034 124.4844 62.5579 124.9565 62.4088 125.4659 C 62.0538 126.5527 61.603 127.5887 61.3438 128.7262 C 61.1982 129.1983 61.2514 129.6972 61.2016 130.2201 C 61.1058 130.6988 60.9105 131.1642 60.8111 131.6803 C 60.52 132.6244 60.1757 133.5992 60.03 134.6008 C 59.8383 135.5584 59.8417 136.5801 59.7457 137.5884 C 59.4649 140.5388 59.177 143.5638 58.8927 146.5514 C 58.8251 147.261 58.8499 147.5291 58.7505 148.0452 C 58.605 148.5173 58.2607 148.9625 58.1116 149.4719 C 57.6253 150.8814 57.3305 152.3924 56.94 153.8526 C 56.7944 154.3247 56.6986 154.8035 56.5495 155.3129 C 56.1519 156.3183 55.6053 157.3035 55.2539 158.3529 C 55.0551 158.8556 54.9486 159.4464 54.8456 159.9999 C 54.6965 160.5093 54.4941 161.0494 54.4373 161.6469 C 54.3414 162.1257 54.3449 162.6179 54.2951 163.1407 C 54.2489 163.6262 54.1034 164.0983 54.1529 164.6345 C 54.2096 165.6257 54.4613 166.681 54.6137 167.7229 C 54.6668 168.2219 54.72 168.7208 54.7199 169.2503 C 54.6737 169.7358 54.6275 170.2213 54.5777 170.7442 C 54.5315 171.2297 54.4853 171.7151 54.4356 172.238 C 54.2438 173.1955 54.1478 174.2039 53.9029 175.1921 C 53.6153 176.0988 52.8912 177.8922 52.8912 177.8922 C 52.6073 178.2321 51.787 180.2743 51.3117 181.2722 C 51.0538 181.8145 50.6821 182.3158 50.4067 182.852 C 50.1671 183.3182 49.981 183.8037 49.7678 184.2787 C 49.5545 184.7537 49.303 185.2182 49.1289 185.7053 C 48.9588 186.1816 48.9084 186.6893 48.7383 187.1656 C 48.5642 187.6527 48.3496 188.1306 48.0994 188.5922 C 47.8405 189.0709 47.4331 189.4932 47.2122 189.9853 C 47.0039 190.4497 46.9514 190.9593 46.8216 191.4456 C 46.6918 191.9319 46.5609 192.4195 46.4311 192.9058 C 46.3013 193.3921 46.1704 193.8798 46.0406 194.3661 C 45.9108 194.8524 45.7255 195.3289 45.65 195.8263 C 45.5008 196.8131 45.5149 197.8272 45.3657 198.814 C 45.2902 199.3114 45.1049 199.7879 44.9751 200.2742 C 44.8453 200.7605 44.6601 201.237 44.5846 201.7345 C 44.4354 202.7212 44.3671 203.7235 44.3003 204.7221 C 44.1665 206.7202 44.1028 208.7322 43.98 210.731 C 43.9495 211.2307 43.8851 211.7274 43.8378 212.2248 C 43.7905 212.7223 43.7846 213.2276 43.6956 213.7186 C 43.6063 214.2134 43.4752 214.7026 43.3051 215.1789 C 43.1309 215.666 42.799 216.1083 42.6662 216.6056 C 42.5367 217.0881 42.613 217.6083 42.524 218.0994 C 42.4347 218.5942 42.2228 219.0648 42.1335 219.5596 C 42.0445 220.0507 42.0803 220.5624 41.9913 221.0535 C 41.902 221.5482 41.7709 222.0374 41.6008 222.5137 C 41.4266 223.0008 41.136 223.4533 40.9619 223.9404 C 40.7918 224.4167 40.7415 224.9243 40.5713 225.4006 C 40.3972 225.8877 40.0928 226.3368 39.9324 226.8273 C 39.6188 227.7865 39.412 228.7753 39.1514 229.7478 C 39.0216 230.2341 38.8906 230.7217 38.7608 231.208 C 38.631 231.6943 38.4597 232.1735 38.3703 232.6683 C 38.2813 233.1593 38.2337 233.6598 38.2281 234.1621 C 38.2222 234.6682 38.3542 235.1846 38.3343 235.6895 C 38.2944 236.691 38.3079 237.7119 38.05 238.6771 C 37.7843 239.6716 37.2474 240.5976 36.7722 241.5305 C 36.5259 242.0139 36.1438 242.4449 35.8849 242.9236 C 35.6347 243.3853 35.4962 243.8885 35.246 244.3502 C 34.9871 244.8289 34.5386 245.2388 34.3588 245.7433 C 34.19 246.216 33.8655 246.7819 34.2166 247.2371 C 34.591 247.7228 35.4551 247.9054 36.1502 248.066 C 36.806 248.2174 37.4883 248.0577 38.1549 248.1479 C 38.8215 248.238 39.4575 248.5131 40.1241 248.6032 C 40.7907 248.6934 41.4602 248.6265 42.1288 248.6851 C 42.7924 248.7431 43.4649 248.803 44.1157 248.9538 C 44.7862 249.1087 45.4698 249.2957 46.0671 249.5959 C 46.6903 249.9094 47.0583 250.5046 47.7168 250.7646 C 48.3297 251.0071 49.0421 250.9437 49.7038 251.0332 C 50.3654 251.1227 51.0281 251.275 51.6907 251.3018 C 52.3733 251.3298 53.0306 251.169 53.7132 251.197 C 54.3758 251.2238 55.0424 251.345 55.7001 251.4657 C 56.3628 251.587 57.0066 251.7997 57.6693 251.921 C 58.3269 252.0417 59.0054 252.0389 59.6562 252.1896 C 60.3267 252.3446 60.9371 252.6768 61.6076 252.8317 C 62.2584 252.9825 62.9369 252.9797 63.5945 253.1004 C 64.2572 253.2217 64.908 253.4043 65.5637 253.5557 C 66.2195 253.7072 66.8648 253.9367 67.5329 254.0111 C 69.5283 254.2332 71.5324 254.2681 73.5292 254.4436 C 74.1929 254.5015 74.8585 254.5915 75.5162 254.7122 C 76.1788 254.8336 76.8207 255.0565 77.4853 255.1676 C 78.8037 255.3874 80.1408 255.485 81.4592 255.7048 C 82.1238 255.8159 82.7657 256.0388 83.4284 256.1602 C 84.086 256.2809 84.7516 256.3709 85.4153 256.4288 C 86.0839 256.4874 86.7514 256.4521 87.42 256.5107 C 88.0836 256.5687 88.7433 256.7214 89.4069 256.7794 C 90.0755 256.838 90.743 256.8132 91.4116 256.8613 C 92.7408 256.957 94.077 257.0325 95.4033 257.2118 C 96.0699 257.3019 96.7256 257.4859 97.3724 257.6672 C 98.034 257.8527 98.6533 258.1543 99.3238 258.3093 C 99.9746 258.46 100.6491 258.4884 101.3108 258.5779 C 103.2957 258.8463 105.292 259.0693 107.2716 259.3838 C 107.9367 259.4896 108.5781 259.7178 109.2407 259.8392 C 109.8984 259.9599 110.564 260.0499 111.2277 260.1078 C 111.8963 260.1664 112.5648 260.1623 113.2324 260.1897 C 113.8999 260.2172 114.5685 260.213 115.2371 260.2716 C 115.9007 260.3296 116.5646 260.5441 117.224 260.5403 C 117.9278 260.5363 117.6488 260.3488 119.2643 260.2487 C 125.7253 259.8483 136.8612 263.7838 138.8894 259.1573 C 146.1226 242.6497 140.0847 223.0723 142.8508 205.3744 C 145.3997 189.0801 153.8901 173.4884 155.0289 156.7121 Z "/>
  <path id="ID0.21634112810716033" fill="#0D0D0D" stroke="#0D0D0D" stroke-width="3.173970417341808" stroke-linecap="round" d="M 67.1586 179.7486 C 61.8718 172.9631 64.8082 168.5844 63.6083 164.0568 C 63.2885 162.8018 62.2506 165.538 61.6733 166.4351 C 61.0271 167.4372 60.6032 168.7498 59.9473 169.7366 C 55.4899 176.367 54.8308 178.3344 53.2135 180.9631 C 52.6511 181.8879 51.8105 182.3808 51.2785 183.3415 C 50.7738 184.2533 50.6453 185.5981 50.1406 186.5098 C 49.6086 187.4705 48.9166 188.2209 48.2057 188.8882 C 47.55 189.5043 46.6206 189.5554 46.062 190.3435 C 45.4871 191.1528 45.344 192.499 44.924 193.5119 C 44.0108 195.7115 43.301 198.2086 42.06 199.9817 C 40.3096 202.4813 38.0165 204.0636 36.0465 206.1938 C 35.3687 206.9254 34.8224 207.9048 34.1115 208.5721 C 33.4558 209.1882 32.6526 209.4747 31.9678 210.0275 C 29.8657 211.7218 27.7931 213.5025 25.7454 215.3165 C 24.3619 216.5416 22.6963 217.3337 21.6667 219.1502 C 21.1275 220.1008 21.6301 221.9122 21.3258 223.1086 C 20.7478 225.3798 19.8078 227.3351 19.0499 229.4453 C 18.6718 230.5011 18.4167 231.7018 17.912 232.6136 C 17.38 233.5743 16.2993 233.8091 15.9771 234.992 C 15.6808 236.0817 16.1414 237.5436 16.2243 238.8173 C 16.3072 240.0909 16.0449 241.4291 16.4715 242.6425 C 17.2598 244.886 18.1806 247.6003 19.6979 248.7047 C 21.3053 249.874 22.9916 248.7143 24.6119 248.5631 C 25.4159 248.488 26.1352 247.7101 26.9645 248.0309 C 27.844 248.3714 28.5074 249.7951 29.3555 250.4008 C 30.2492 251.0389 31.2009 251.5726 32.1257 251.7146 C 32.9533 251.8418 33.6661 251.205 34.4783 251.1823 C 35.3149 251.158 36.187 251.4439 37.0398 251.5731 C 37.8925 251.7023 38.6079 252.1207 39.6012 251.9639 C 43.5728 251.335 47.4471 250.1887 51.3642 249.3025 C 52.931 248.948 54.5548 248.796 56.0694 248.2379 C 56.8502 247.9506 57.4253 247.0443 58.2132 246.7826 C 60.5065 246.0211 62.9776 245.9472 65.2709 245.1857 C 66.0587 244.9241 66.6491 244.0686 67.4147 243.7304 C 68.1576 243.4013 69.0244 243.5273 69.7673 243.1981 C 70.5329 242.86 71.1183 241.9881 71.911 241.7428 C 74.9856 240.7891 78.2469 240.5674 81.3214 239.6137 C 82.1142 239.3683 82.9743 239.0437 83.4652 238.1584 C 84.0594 237.0847 84.3386 235.5699 84.3943 234.067 C 84.4862 231.5874 84.3371 228.9722 83.8998 226.4164 C 83.0508 221.4562 81.9774 216.4711 80.5584 211.6476 C 80.1618 210.2994 79.2166 209.3625 78.5467 208.2216 C 77.8768 207.0807 77.0495 206.0802 76.535 204.7955 C 76.0747 203.6461 75.9778 202.3328 75.6997 201.1033 C 75.4215 199.8738 75.3247 198.5606 74.8643 197.4111 C 74.3498 196.1264 73.4107 195.2386 72.8526 193.9851 C 71.3092 190.5191 70.0048 186.8631 68.5821 183.3077 C 68.1075 182.1227 67.7424 180.744 67.1586 179.7486 Z "/>
  <path id="ID0.3809091211296618" fill="#393D40" stroke="none" stroke-linecap="round" d="M 119.8641 183.7447 L 125.9611 166.715 L 135.6601 155.9711 L 144.2086 153.3534 L 159.7093 152.4854 L 164.5454 154.6227 L 168.6004 172.7439 L 155.7408 177.5432 L 146.5356 179.497 L 119.8641 183.7447 Z " stroke-width="0.6733301305900472"/>
  <g id="ID0.9602425838820636">
    <g id="ID0.17693647183477879">
      <path id="ID0.7729651997797191" fill="#393C40" stroke="none" stroke-linecap="round" d="M 167.8073 101.5474 L 148.6732 104.1544 L 153.377 120.0072 L 157.0711 132.8118 L 161.1679 137.9714 L 164.7162 141.0244 L 176.5063 136.8207 L 177.443 131.0882 L 170.7733 112.4541 L 167.8073 101.5474 Z " stroke-width="0.7788098603576328"/>
      <path id="ID0.9716172609478235" fill="#34373A" stroke="none" stroke-linecap="round" d="M 164.2631 107.3974 L 168.7539 104.7956 L 166.5015 98.7166 L 150.0702 109.2432 L 153.1593 111.9011 L 158.5356 113.2941 L 164.2631 107.3974 Z " stroke-width="0.7788098603576328"/>
      <g id="ID0.38066427363082767">
        <path id="ID0.4757494777441025" fill="#1D1E1F" stroke="none" stroke-linecap="round" d="M 157.1491 78.5293 L 148.8438 77.1028 L 134.0194 82.8834 L 143.6501 106.5282 L 153.8577 110.5447 L 158.2368 111.241 L 161.1241 108.747 L 163.6292 105.7125 L 168.8773 102.8137 L 168.5998 97.5967 L 167.3427 89.9481 L 163.691 82.2515 L 157.1491 78.5293 Z " stroke-width="0.454186012679908"/>
        <path id="ID0.6007084371522069" fill="none" stroke="#0D0D0D" stroke-width="0.908372025359816" stroke-linecap="round" d="M 168.4498 103.1874 L 163.7424 105.704 L 159.9295 109.5199 L 158.2453 111.3542 L 153.8577 110.5447 L 149.5068 108.7077 "/>
      </g>
    </g>
    <g id="ID0.7397577832452953">
      <path id="ID0.6726378230378032" fill="#34373A" stroke="none" stroke-linecap="round" d="M 176.5066 128.4137 L 161.7373 138.1908 L 162.677 140.3071 L 177.0464 130.4038 L 176.5066 128.4137 Z " stroke-width="0.7788098603576328"/>
      <path id="ID0.6507829907350242" fill="#1D1E1F" stroke="none" stroke-linecap="round" d="M 179.8359 129.1514 L 162.5077 140.2139 L 164.2506 158.2413 L 166.9496 168.1918 L 168.1003 183.5302 L 167.984 189.7869 L 179.5849 190.8691 L 179.3129 184.6415 L 180.3612 175.1909 L 182.1908 163.1434 L 183.2537 153.8869 L 179.8359 129.1514 Z " stroke-width="0.7788098603576328"/>
      <path id="ID0.6829322893172503" fill="#1D1E1F" stroke="none" stroke-linecap="round" d="M 179.9441 190.4517 L 169.6779 186.3406 L 166.9647 191.8159 L 163.504 197.7378 L 163.9118 203.1742 L 164.8293 207.5961 L 166.9894 210.3628 L 168.8292 216.668 L 173.2802 216.1388 L 174.2995 214.1098 L 175.8382 213.7992 L 178.7553 211.0421 L 181.8375 207.8821 L 183.4586 203.465 L 182.1722 196.7277 L 179.9441 190.4517 Z " stroke-width="0.7788098603576328"/>
      <path id="ID0.47767175547778606" fill="none" stroke="#0D0D0D" stroke-width="1.5576197207152656" stroke-linecap="round" d="M 180.1185 132.918 L 179.5554 129.0553 L 162.5853 140.2081 L 163.8952 153.5039 "/>
      <path id="ID0.5922487881034613" fill="#282A2B" stroke="none" stroke-linecap="round" d="M 183.2877 161.537 L 176.1678 156.6823 L 170.3489 157.1969 L 164.8719 163.3091 L 167.3001 177.4583 L 172.3047 184.307 L 175.6054 184.0594 L 180.9057 176.6328 L 183.2877 161.537 Z " stroke-width="0.7788098603576328"/>
      <path id="ID0.36820242274552584" fill="#151616" stroke="none" stroke-linecap="round" d="M 177.4957 164.5473 L 169.413 165.0756 L 172.7974 175.8338 L 174.2283 175.6483 L 177.4957 164.5473 Z " stroke-width="0.7788098603576328"/>
      <path id="ID0.13569410238415003" fill="none" stroke="#232425" stroke-width="1.5576197207152656" stroke-linecap="round" d="M 178.8982 174.9492 L 173.9745 182.1914 L 168.4797 175.5746 "/>
      <path id="ID0.024502143263816833" fill="none" stroke="#0D0D0D" stroke-width="1.5576197207152656" stroke-linecap="round" d="M 182.75 161.2271 L 176.3524 156.6305 L 170.5879 156.8287 L 165.0332 162.9467 L 166.4992 171.0372 "/>
    </g>
  </g>
  <g id="ID0.9602425838820636">
    <g id="ID0.17693647183477879">
      <path id="ID0.7729651997797191" fill="#3E4246" stroke="none" stroke-linecap="round" d="M 83.1861 82.9538 L 100.4292 93.5611 L 89.2017 106.7693 L 80.2339 117.4823 L 74.1193 120.694 L 69.4232 122.1181 L 59.8989 113.0915 L 61.4296 107.1977 L 75.7207 92.1556 L 83.1861 82.9538 Z " stroke-width="0.8164596256556146"/>
      <path id="ID0.9716172609478235" fill="#393C40" stroke="none" stroke-linecap="round" d="M 84.1059 90.0652 L 80.9021 85.6675 L 85.6377 80.7927 L 96.9334 97.8488 L 92.845 99.0886 L 87.0995 98.1463 L 84.1059 90.0652 Z " stroke-width="0.8164596256556146"/>
      <g id="ID0.38066427363082767">
        <path id="ID0.4757494777441025" fill="#1D1E1F" stroke="none" stroke-linecap="round" d="M 103.012 65.2928 L 111.5804 67.444 L 123.3461 79.2683 L 104.0927 97.8606 L 92.6028 97.387 L 88.1086 96.1991 L 86.3967 92.5843 L 85.2804 88.613 L 81.4762 83.6097 L 83.9529 78.7247 L 88.399 71.9231 L 95.1619 66.0902 L 103.012 65.2928 Z " stroke-width="0.4761425800890284"/>
        <path id="ID0.6007084371522069" fill="none" stroke="#0D0D0D" stroke-width="0.9522851601780568" stroke-linecap="round" d="M 81.7278 84.1491 L 85.1754 88.5569 L 87.2147 93.8315 L 88.0525 96.3041 L 92.6028 97.387 L 97.5532 97.469 "/>
      </g>
    </g>
    <g id="ID0.7397577832452953">
      <path id="ID0.6726378230378032" fill="#393C40" stroke="none" stroke-linecap="round" d="M 63.37 104.8679 L 73.3896 120.5012 L 71.5917 122.1323 L 62.0091 106.5475 L 63.37 104.8679 Z " stroke-width="0.8164596256556146"/>
      <path id="ID0.6507829907350242" fill="#1D1E1F" stroke="none" stroke-linecap="round" d="M 59.9557 104.3266 L 71.8844 122.2767 L 62.5746 138.8247 L 55.7704 147.2226 L 48.1679 161.443 L 45.6284 167.4919 L 34.0458 163.6141 L 36.9452 157.7577 L 39.9444 148.2514 L 43.2947 135.9238 L 46.1976 126.5974 L 59.9557 104.3266 Z " stroke-width="0.8164596256556146"/>
      <path id="ID0.6829322893172503" fill="#1D1E1F" stroke="none" stroke-linecap="round" d="M 33.8782 163.0616 L 45.4643 163.4695 L 45.7461 169.8694 L 46.5554 177.0142 L 43.8608 182.0543 L 41.1074 185.9058 L 37.8639 187.6435 L 33.4281 192.91 L 29.3842 190.5166 L 29.2665 188.1392 L 27.9227 187.1893 L 26.2937 183.3095 L 24.6771 178.9734 L 24.9942 174.051 L 29.0824 168.1357 L 33.8782 163.0616 Z " stroke-width="0.8164596256556146"/>
      <path id="ID0.47767175547778606" fill="none" stroke="#0D0D0D" stroke-width="1.6329192513112292" stroke-linecap="round" d="M 58.0887 107.8187 L 60.2654 104.3534 L 71.8124 122.2382 L 64.9227 134.4326 "/>
      <path id="ID0.5922487881034613" fill="#282A2B" stroke="none" stroke-linecap="round" d="M 43.0508 133.8015 L 51.935 132.1631 L 57.2967 135.1221 L 59.9588 143.3038 L 51.6351 155.8425 L 43.9344 160.2893 L 40.8743 158.6533 L 38.9385 149.2861 L 43.0508 133.8015 Z " stroke-width="0.8164596256556146"/>
      <path id="ID0.36820242274552584" fill="#151616" stroke="none" stroke-linecap="round" d="M 47.2527 139.2257 L 54.7794 143.157 L 46.9757 152.039 L 45.6822 151.2549 L 47.2527 139.2257 Z " stroke-width="0.8164596256556146"/>
      <path id="ID0.13569410238415003" fill="none" stroke="#232425" stroke-width="1.6329192513112292" stroke-linecap="round" d="M 41.4497 148.6395 L 43.1024 157.6702 L 51.175 153.6537 "/>
      <path id="ID0.024502143263816833" fill="none" stroke="#0D0D0D" stroke-width="1.6329192513112292" stroke-linecap="round" d="M 43.5705 133.8493 L 51.6527 132.1524 L 57.0964 134.7849 L 59.8305 143.0051 L 54.9966 150.1419 "/>
    </g>
  </g>
  <g id="ID0.9157347986474633">
    <path id="ID0.7477802094072104" fill="#363A3D" stroke="none" stroke-linecap="round" d="M 148.9053 127.6924 L 130.7788 119.7524 L 120.357 159.5983 L 134.2206 172.4524 L 142.6366 149.3074 L 148.9053 127.6924 Z " stroke-width="0.4761425985953293"/>
    <path id="ID0.7477802094072104" fill="#363A3D" stroke="none" stroke-linecap="round" d="M 90.5146 112.4958 L 113.9244 115.6658 L 103.5026 155.5117 L 85.1209 159.9319 L 86.1789 134.2473 L 90.5146 112.4958 Z " stroke-width="0.4761425985953293"/>
    <path id="ID0.4270821204409003" fill="#3E4246" stroke="none" stroke-linecap="round" d="M 95.8696 93.1619 L 102.7174 82.0338 L 106.3814 76.9632 L 114.4924 71.8253 L 144.1882 81.0688 L 149.7832 86.9616 L 151.523 91.6 L 155.4259 104.4326 L 152.0843 114.3861 L 149.7775 119.4426 L 149.6428 126.5437 L 148.7178 131.9616 L 144.8979 138.0988 L 142.0064 142.7563 L 138.5054 151.4377 L 134.4142 173.007 L 127.3609 179.6519 L 121.159 184.4525 L 108.0621 186.6376 L 97.6104 180.7787 L 95.5089 173.2896 L 92.3447 165.8178 L 84.8592 160.661 L 90.1694 135.8424 L 90.7045 129.0921 L 89.1739 116.8799 L 90.6481 106.0689 L 95.8696 93.1619 Z " stroke-width="0.4761425985953293"/>
    <path id="ID0.052435632329434156" fill="#393C40" stroke="none" stroke-linecap="round" d="M 95.0209 144.501 L 99.3159 145.6736 L 104.8645 150.5207 L 109.8126 151.6427 L 115.0498 154.8581 L 119.3746 154.8819 L 121.1073 154.8429 L 135.7191 155.1457 L 135.2332 158.4145 L 125.8873 160.2765 L 120.2076 158.471 L 114.0239 160.0035 L 108.4664 154.9079 L 102.1392 153.696 L 93.5447 147.5108 L 95.0209 144.501 Z " stroke-width="0.4761425985953293"/>
    <path id="ID0.4987568911164999" fill="none" stroke="#27282B" stroke-width="0.9522851971906586" stroke-linecap="round" d="M 114.061 72.4172 L 106.2759 76.7791 L 100.5213 85.6093 "/>
    <path id="ID0.2889464790932834" fill="none" stroke="#27282B" stroke-width="0.9522851971906586" stroke-linecap="round" d="M 145.2538 82.0523 L 149.8177 87.1832 L 152.9961 97.6117 "/>
    <path id="ID0.8373676878400147" fill="#000000" stroke="#2C2F31" stroke-width="0.6155104561591876" stroke-linecap="round" d="M 114.3376 85.9496 L 115.058 84.5555 L 111.3062 84.5191 L 105.7659 86.5307 L 100.498 90.3816 L 96.7085 95.2172 L 102.2475 94.3258 L 106.8222 95.3989 L 109.251 96.9766 L 110.9586 100.5086 L 113.2526 100.0465 L 117.2042 100.7806 L 121.3126 102.9206 L 124.235 106.9613 L 125.4777 110.4399 L 128.3236 108.055 L 132.691 105.9468 L 137.035 105.5929 L 142.0323 106.8673 L 143.6585 107.8945 L 146.0819 105.3082 L 148.2916 104.5818 L 150.6786 105.7473 L 152.9902 108.0118 L 152.5514 103.9636 L 151.3204 99.6079 L 149.3169 95.991 L 146.8053 93.0287 L 142.6544 91.0367 L 144.2896 93.4272 L 143.8013 95.1281 L 141.7278 96.7741 L 137.9651 97.0548 L 134.827 96.5541 L 132.2701 95.9803 L 130.7323 91.8567 L 129.7894 93.7472 L 128.3843 93.3439 L 127.4894 90.6056 L 125.5083 94.4394 L 121.5252 93.5361 L 117.7653 91.5763 L 114.8723 89.385 L 114.3376 85.9496 Z "/>
    <path id="ID0.5698574706912041" fill="none" stroke="#313537" stroke-width="0.9522851971906586" stroke-linecap="round" d="M 94.994 144.3217 L 93.6049 147.2805 L 102.1091 153.8112 L 108.7637 155.1826 L 113.8237 159.8281 "/>
    <path id="ID0.5698574706912041" fill="none" stroke="#313537" stroke-width="0.8933066967893842" stroke-linecap="round" d="M 135.489 155.0848 L 135.1777 158.3255 L 125.791 160.1768 L 120.159 158.3346 L 114.2258 160.1048 "/>
    <path id="ID0.8947288258932531" fill="#393C40" stroke="none" stroke-linecap="round" d="M 99.2849 133.0908 L 106.1096 134.7528 L 112.9289 138.505 L 117.013 145.2823 L 111.2578 139.2491 L 101.2267 135.0752 L 95.5097 136.7051 L 99.2849 133.0908 Z " stroke-width="0.4761425985953293"/>
    <path id="ID0.8947288258932531" fill="#393C40" stroke="none" stroke-linecap="round" d="M 136.5415 143.8247 L 130.5552 142.1501 L 123.6673 142.0907 L 117.5792 145.5508 L 124.6343 143.389 L 134.1833 144.5146 L 137.8886 148.2494 L 136.5415 143.8247 Z " stroke-width="0.42137393941889867"/>
    <path id="ID0.9897695370018482" fill="#393C40" stroke="none" stroke-linecap="round" d="M 99.5221 145.826 L 93.3087 143.7087 L 94.898 139.3258 L 95.1641 143.0128 L 100.0569 144.4401 L 105.1137 149.3801 L 110.5015 150.4202 L 114.1016 152.8383 L 117.4254 145.587 L 115.1738 155.1366 L 110.2672 151.7862 L 104.5782 150.2982 L 99.5221 145.826 Z " stroke-width="0.4761425985953293"/>
    <path id="ID0.9897695370018482" fill="#393C40" stroke="none" stroke-linecap="round" d="M 130.7266 154.1738 L 136.1952 155.1464 L 136.9371 150.8776 L 135.1396 153.7718 L 130.9376 152.81 L 125.0886 154.6445 L 120.6926 153.1514 L 117.0062 153.5604 L 117.7253 146.1961 L 115.2223 154.9705 L 120.2703 154.3684 L 125.0814 155.6267 L 130.7266 154.1738 Z " stroke-width="0.4232251480495685"/>
    <path id="ID0.3524594851769507" fill="#393C40" stroke="none" stroke-linecap="round" d="M 118.2897 114.8908 L 123.4475 118.5038 L 128.3449 117.3732 L 124.3177 120.2571 L 122.4197 131.2772 L 131.4119 132.7433 L 120.4201 133.5595 L 110.321 126.0703 L 119.1831 130.4799 L 121.647 119.4602 L 118.2897 114.8908 Z " stroke-width="0.4761425985953293"/>
    <path id="ID0.9214867809787393" fill="#393C40" stroke="none" stroke-linecap="round" d="M 100.2668 129.3365 L 104.2122 126.0128 L 109.0596 126.2964 L 102.2118 129.4269 L 101.2405 132.1996 L 106.1113 133.5228 L 113.1982 138.6985 L 104.9969 134.5848 L 99.331 133.1028 L 100.2668 129.3365 Z " stroke-width="0.4761425985953293"/>
    <path id="ID0.9214867809787393" fill="#393C40" stroke="none" stroke-linecap="round" d="M 137.2364 139.7413 L 135.6191 135.1616 L 131.6332 133.1798 L 135.6478 138.9266 L 135.1515 141.6853 L 130.6712 140.5605 L 123.5234 141.6265 L 131.0717 141.9569 L 136.2572 143.3131 L 137.2364 139.7413 Z " stroke-width="0.4451788617736209"/>
    <path id="ID0.8679121839813888" fill="#2C2F31" stroke="none" stroke-linecap="round" d="M 120.5593 114.3179 L 123.8348 116.8479 L 127.475 116.1021 L 128.1554 117.2644 L 123.6803 118.85 L 118.6728 115.2271 L 120.5593 114.3179 Z " stroke-width="0.4761425985953293"/>
    <path id="ID0.24770551454275846" fill="none" stroke="#313537" stroke-width="0.9522851971906586" stroke-linecap="round" d="M 124.8042 113.5169 L 128.3919 118.1465 L 135.5266 120.5047 L 143.1681 121.396 L 149.199 119.0362 "/>
    <path id="ID0.20603158557787538" fill="none" stroke="#313537" stroke-width="0.9522851971906586" stroke-linecap="round" d="M 93.6255 101.1543 L 99.0646 108.1138 L 110.2282 114.3557 L 117.4036 115.6172 L 124.386 113.3832 "/>
    <g id="ID0.5272086253389716">
      <path id="ID0.24770551454275846" fill="none" stroke="#363A3D" stroke-width="0.952285135763632" stroke-linecap="round" d="M 88.8194 133.4183 L 99.2021 132.8611 "/>
      <path id="ID0.24770551454275846" fill="none" stroke="#363A3D" stroke-width="0.952285135763632" stroke-linecap="round" d="M 89.3534 121.2998 L 110.6874 120.4571 "/>
    </g>
    <g id="ID0.5272086253389716">
      <path id="ID0.24770551454275846" fill="none" stroke="#363A3D" stroke-width="0.9522851341212086" stroke-linecap="round" d="M 142.7321 146.5345 L 136.4831 143.0061 "/>
      <path id="ID0.24770551454275846" fill="none" stroke="#363A3D" stroke-width="0.9522851341212086" stroke-linecap="round" d="M 146.0717 135.6041 L 133.853 127.4872 "/>
    </g>
    <g id="ID0.7887678607366979">
      <path id="ID0.753661650698632" fill="none" stroke="#313537" stroke-width="0.952285135763632" stroke-linecap="round" d="M 118.7202 115.1265 L 123.1849 118.755 L 127.763 117.2456 "/>
      <g id="ID0.8167418288066983">
        <path id="ID0.9553722990676761" fill="none" stroke="#313537" stroke-width="1.0409108177134871" stroke-linecap="round" d="M 120.1433 133.2474 L 115.2553 129.7542 L 109.7641 126.3494 L 104.9075 126.0634 L 100.4293 129.3216 L 99.5558 132.6613 "/>
        <path id="ID0.5982440118677914" fill="none" stroke="#313537" stroke-width="0.854041373547905" stroke-linecap="round" d="M 110.159 125.9904 L 110.3467 120.5682 L 117.1998 115.0655 "/>
      </g>
      <g id="ID0.7324484633281827">
        <path id="ID0.04993448918685317" fill="none" stroke="#313537" stroke-width="0.952285135763632" stroke-linecap="round" d="M 123.215 118.6399 L 121.2554 128.9548 L 117.5593 144.9676 L 113.6631 160.805 "/>
        <g id="ID0.8167418288066983">
          <path id="ID0.9553722990676761" fill="none" stroke="#313537" stroke-width="0.9699703601852073" stroke-linecap="round" d="M 120.4636 133.1627 L 125.6785 133.1241 L 131.4141 132.6556 L 135.2327 134.6387 L 137.1334 139.5652 L 136.2599 142.9049 "/>
          <path id="ID0.5982440118677914" fill="none" stroke="#313537" stroke-width="0.7916616517903399" stroke-linecap="round" d="M 131.2604 132.2814 L 133.6127 127.4253 L 130.9418 119.4316 "/>
          <path id="ID0.3567589442245662" fill="none" stroke="#313537" stroke-width="0.8967655674590636" stroke-linecap="round" d="M 117.3662 145.5017 L 123.5884 141.9861 L 131.1606 141.998 L 136.5087 143.3968 L 137.5016 148.455 L 136.0081 155.3237 L 130.459 154.6106 L 124.2063 156.1742 L 119.5059 154.6987 L 114.9702 155.4072 L 109.9508 151.5106 L 104.4817 150.3262 L 99.0456 145.7053 L 93.1287 143.4195 L 95.23 136.7098 L 98.8762 132.8649 L 104.9535 134.4544 L 112.5342 138.4058 L 116.9069 144.6925 Z "/>
        </g>
      </g>
    </g>
    <g id="ID0.9312638868577778">
      <path id="ID0.2888958193361759" fill="#393C40" stroke="none" stroke-linecap="round" d="M 95.4255 152.9713 L 104.7827 157.5731 L 103.4694 160.2435 L 94.1122 155.6417 L 95.4255 152.9713 Z " stroke-width="0.4761425705141241"/>
      <path id="ID0.2888958193361759" fill="#393C40" stroke="none" stroke-linecap="round" d="M 85.5221 148.2658 L 96.0017 153.5522 L 94.6884 156.2226 L 85.3312 151.6209 L 85.5221 148.2658 Z " stroke-width="0.4761425705141241"/>
      <g id="ID0.36424446757882833">
        <path id="ID0.7359844641759992" fill="#8A7B59" stroke="none" d="M 98.359 152.9793 L 99.8331 153.3649 L 98.2547 159.3994 L 96.7807 159.0138 L 98.359 152.9793 Z " stroke-width="0.476142567881816"/>
        <path id="ID0.7359844641759992" fill="#8A7B59" stroke="none" d="M 96.6343 152.1261 L 98.1084 152.5117 L 96.5301 158.5461 L 95.056 158.1606 L 96.6343 152.1261 Z " stroke-width="0.476142567881816"/>
        <path id="ID0.7359844641759992" fill="#8A7B59" stroke="none" d="M 94.9188 150.973 L 96.3929 151.3586 L 94.8146 157.393 L 93.3405 157.0075 L 94.9188 150.973 Z " stroke-width="0.476142567881816"/>
        <path id="ID0.7359844641759992" fill="#8A7B59" stroke="none" d="M 100.0806 153.9325 L 101.5547 154.3181 L 99.9764 160.3525 L 98.5023 159.967 L 100.0806 153.9325 Z " stroke-width="0.476142567881816"/>
      </g>
      <g id="ID0.1049797898158431">
        <path id="ID0.08871637750416994" fill="#8A7B59" stroke="none" stroke-linecap="round" d="M 87.3961 148.0235 L 93.3267 150.6574 L 91.865 156.058 L 86.1707 153.4613 L 87.3961 148.0235 Z " stroke-width="0.476142567881816"/>
        <path id="ID0.13805592898279428" fill="#76694C" stroke="none" stroke-linecap="round" d="M 87.1388 147.7155 L 93.3688 150.4278 L 92.732 153.2388 L 86.503 150.4284 L 87.1388 147.7155 Z " stroke-width="0.476142567881816"/>
        <path id="ID0.3221200187690556" fill="#61563F" stroke="none" stroke-linecap="round" d="M 89.4469 150.5911 L 90.2053 151.1634 L 89.8357 152.8829 L 88.9958 152.316 L 89.4469 150.5911 Z " stroke-width="0.5167888691705287"/>
        <path id="ID0.1420820001512766" fill="#BAA578" stroke="none" stroke-linecap="round" d="M 91.3052 154.9807 L 92.3576 153.7795 L 91.8193 156.0257 L 86.0148 153.474 L 91.3052 154.9807 Z " stroke-width="0.476142567881816"/>
      </g>
      <path id="ID0.2888958193361759" fill="#393C40" stroke="none" stroke-linecap="round" d="M 131.7588 162.766 L 124.1181 162.6417 L 123.8944 165.205 L 131.5351 165.3293 L 131.7588 162.766 Z " stroke-width="0.38104700538561614"/>
      <path id="ID0.2888958193361759" fill="#393C40" stroke="none" stroke-linecap="round" d="M 138.5254 162.703 L 131.2663 162.8107 L 131.0426 165.3741 L 137.3803 165.4156 L 138.5254 162.703 Z " stroke-width="0.38104700538561614"/>
      <path id="ID0.7359844641759992" fill="#8A7B59" stroke="none" d="M 129.9971 161.3097 L 128.926 161.0296 L 127.5531 166.279 L 128.6241 166.5591 L 129.9971 161.3097 Z " stroke-width="0.3816028127923087"/>
      <path id="ID0.7359844641759992" fill="#8A7B59" stroke="none" d="M 131.5025 161.1558 L 130.4315 160.8756 L 129.0585 166.125 L 130.1295 166.4052 L 131.5025 161.1558 Z " stroke-width="0.3816028127923087"/>
      <path id="ID0.7359844641759992" fill="#8A7B59" stroke="none" d="M 133.0564 161.0533 L 131.9853 160.7732 L 130.6123 166.0226 L 131.6834 166.3027 L 133.0564 161.0533 Z " stroke-width="0.3816028127923087"/>
      <path id="ID0.7359844641759992" fill="#8A7B59" stroke="none" d="M 128.4916 161.4637 L 127.4206 161.1835 L 126.0476 166.4329 L 127.1186 166.7131 L 128.4916 161.4637 Z " stroke-width="0.3816028127923087"/>
      <g id="ID0.1049797898158431">
        <path id="ID0.08871637750416994" fill="#8A7B59" stroke="none" stroke-linecap="round" d="M 138.9769 161.7773 L 133.9489 161.4629 L 132.676 166.4749 L 137.5317 166.7215 L 138.9769 161.7773 Z " stroke-width="0.4054530046325545"/>
        <path id="ID0.13805592898279428" fill="#76694C" stroke="none" stroke-linecap="round" d="M 139.2522 161.5993 L 133.9931 161.2246 L 133.2483 163.7818 L 138.5474 164.0761 L 139.2522 161.5993 Z " stroke-width="0.4054530046325545"/>
        <path id="ID0.3221200187690556" fill="#61563F" stroke="none" stroke-linecap="round" d="M 136.7303 163.0256 L 135.9896 163.1775 L 135.5207 164.7335 L 136.3133 164.6199 L 136.7303 163.0256 Z " stroke-width="0.4400648194164448"/>
        <path id="ID0.1420820001512766" fill="#BAA578" stroke="none" stroke-linecap="round" d="M 133.4533 165.7866 L 133.2539 164.3698 L 132.6783 166.4254 L 137.5884 166.7544 L 133.4533 165.7866 Z " stroke-width="0.4054530046325545"/>
      </g>
      <g id="ID0.6836685389280319">
        <path id="ID0.09357938077300787" fill="#857656" stroke="none" d="M 105.94 154.844 L 123.3294 159.3923 L 121.7029 165.611 L 104.3135 161.0628 L 105.94 154.844 Z " stroke-width="0.42833209485419105"/>
        <path id="ID0.6492703901603818" fill="#7C6E50" stroke="none" stroke-linecap="round" d="M 106.1142 157.2211 L 113.2772 162.2936 L 122.6054 161.5344 L 121.5271 165.6571 L 105.0359 161.3438 L 106.1142 157.2211 Z " stroke-width="0.476142567881816"/>
        <g id="ID0.9254062357358634">
          <g id="ID0.49943465692922473">
            <path id="ID0.140373723115772" fill="#968561" stroke="none" d="M 122.1373 157.9026 L 127.0892 159.1978 L 124.8001 167.9501 L 119.8481 166.6549 L 122.1373 157.9026 Z " stroke-width="0.476142567881816"/>
            <path id="ID0.8286363878287375" fill="#BAA578" stroke="none" stroke-linecap="round" d="M 122.1323 157.7787 L 127.1392 159.3343 L 122.9388 159.0231 L 121.4062 160.837 L 122.1323 157.7787 Z " stroke-width="0.476142567881816"/>
            <path id="ID0.7362233307212591" fill="#8A7B59" stroke="none" stroke-linecap="round" d="M 120.6132 163.681 L 123.2268 164.4138 L 126.2136 162.685 L 124.7979 168.0976 L 119.7999 166.7903 L 120.6132 163.681 Z " stroke-width="0.476142567881816"/>
          </g>
          <g id="ID0.49943465692922473">
            <path id="ID0.140373723115772" fill="#968561" stroke="none" d="M 107.5921 154.3343 L 102.6401 153.0391 L 100.3509 161.7914 L 105.3029 163.0866 L 107.5921 154.3343 Z " stroke-width="0.476142567881816"/>
            <path id="ID0.8286363878287375" fill="#BAA578" stroke="none" stroke-linecap="round" d="M 107.6825 154.1357 L 102.5552 153.0407 L 106.37 154.8259 L 106.8182 157.1578 L 107.6825 154.1357 Z " stroke-width="0.476142567881816"/>
            <path id="ID0.7362233307212591" fill="#8A7B59" stroke="none" stroke-linecap="round" d="M 106.1173 160.0259 L 103.4796 159.3852 L 101.7217 156.4154 L 100.306 161.828 L 105.304 163.1353 L 106.1173 160.0259 Z " stroke-width="0.476142567881816"/>
          </g>
        </g>
      </g>
    </g>
  </g>
  <g id="ID0.8333355090580881">
    <path id="ID0.9286923445761204" fill="#27282B" stroke="none" stroke-linecap="round" d="M 128.4088 40.3468 L 146.3555 46.1626 L 141.1463 69.9584 L 154.3005 80.4528 L 129.4293 86.1736 L 96.6966 65.4334 L 118.4963 59.7604 L 128.4088 40.3468 Z " stroke-width="0.47614261803466124"/>
    <path id="ID0.5448851804248989" fill="none" stroke="#1D1E1F" stroke-width="0.9522852360693225" stroke-linecap="round" d="M 121.2272 54.4902 L 118.7259 59.6196 L 133.5196 71.2409 L 140.8463 69.9845 "/>
    <path id="ID0.262191956397146" fill="none" stroke="#1D1E1F" stroke-width="0.9522852360693225" stroke-linecap="round" d="M 122.7596 59.9491 L 133.6814 68.9296 L 136.8592 68.5401 "/>
  </g>
  <g id="ID0.3450673264451325">
    <g id="ID0.9831569031812251">
      <path id="ID0.0877610077150166" fill="#2E3034" stroke="none" stroke-linecap="round" d="M 157.245 16.5136 L 154.2012 2.9605 L 150.9417 31.3023 L 158.5628 32.1788 L 157.245 16.5136 Z " stroke-width="0.5866066643960602"/>
      <path id="ID0.796130308881402" fill="#242628" stroke="none" stroke-linecap="round" d="M 157.5755 16.6321 L 154.1784 3.0384 L 156.1303 17.1921 L 155.3631 32.0893 L 158.5513 32.1589 L 157.5755 16.6321 Z " stroke-width="0.5866066643960602"/>
    </g>
    <g id="ID0.9831569031812251">
      <path id="ID0.0877610077150166" fill="#2E3034" stroke="none" stroke-linecap="round" d="M 133.4533 14.0685 L 139.4943 1.5602 L 136.2348 29.9019 L 128.6137 29.0255 L 133.4533 14.0685 Z " stroke-width="0.5866066643960602"/>
      <path id="ID0.796130308881402" fill="#242628" stroke="none" stroke-linecap="round" d="M 133.188 14.0029 L 139.5823 1.5352 L 134.4683 14.8763 L 131.7197 29.2156 L 128.7129 28.9028 L 133.188 14.0029 Z " stroke-width="0.5866066643960602"/>
    </g>
    <path id="ID0.8999492498114705" fill="#2E3034" stroke="none" stroke-linecap="round" d="M 150.2806 21.8166 C 154.6012 22.7957 158.9924 26.029 160.667 30.1301 C 162.5776 34.8122 160.0029 40.1516 159.7299 45.1486 C 159.7074 46.8607 160.2945 48.6925 159.7804 50.2683 C 158.7336 53.4735 156.7246 56.2913 155.2852 59.3398 C 154.3421 61.3377 153.9196 63.6594 152.5408 65.4165 C 150.9762 67.5041 149.2842 70.4642 146.6496 70.6199 C 142.7437 70.8504 138.9042 68.5555 135.6778 66.4176 C 133.0273 64.661 130.6439 62.1603 129.3966 59.2262 C 127.1833 53.7929 125.2857 47.8773 125.5749 41.9877 C 125.8957 35.4589 126.0521 27.3576 131.3136 23.215 C 136.0569 19.1892 143.8574 20.364 150.2806 21.8166 Z " stroke-width="0.5080372848785947"/>
    <path id="ID0.2441388238221407" fill="#AB8E85" stroke="none" d="M 145.2856 46.1911 C 149.32 46.8232 155.085 44.3007 157.4786 47.3406 C 159.6217 50.1949 155.7201 54.6396 154.3588 57.9796 C 153.0035 61.3013 151.8926 64.9368 149.3434 67.5157 C 148.138 68.6539 145.919 68.4707 144.2309 68.0023 C 141.1957 67.1564 138.3007 65.5315 135.9277 63.456 C 133.4719 61.309 130.1793 58.8875 129.9801 55.6183 C 129.7282 51.4772 131.0046 46.1933 134.4766 43.9999 C 137.648 42.1006 141.6573 45.6221 145.2856 46.1911 Z " stroke-width="1.2558401062132534"/>
    <path id="ID0.46721756737679243" fill="#A2887F" stroke="none" stroke-linecap="round" d="M 130.5421 45.7271 L 132.1292 46.6 L 158.014 49.1933 L 150.2666 53.4162 L 133.9179 49.0558 L 134.7555 51.5556 L 134.3664 57.1617 L 137.1538 64.7184 L 133.3747 57.559 L 130.5421 45.7271 Z " stroke-width="0.5080372848785947"/>
    <path id="ID0.8256730306893587" fill="none" stroke="#937B73" stroke-width="1.0160745697571893" stroke-linecap="round" d="M 139.8974 58.65 C 139.8974 58.65 142.6471 58.3659 144.025 58.3321 C 144.3697 58.3236 144.6969 58.4395 145.0258 58.5238 C 145.36 58.6099 145.6679 58.814 146.012 58.8418 C 146.6939 58.8972 147.3811 58.7779 148.0656 58.7712 C 148.4051 58.7678 148.7471 58.7687 149.0838 58.8116 C 149.421 58.8544 149.7613 58.914 150.0816 59.0286 C 150.6081 59.217 151.6134 59.7161 151.6134 59.7161 "/>
    <path id="ID0.7592270169407129" fill="none" stroke="#937B73" stroke-width="1.0160745697571893" stroke-linecap="round" d="M 148.3652 60.9709 C 148.3652 60.9709 147.708 61.2425 147.3598 61.2644 C 147.0218 61.2858 146.6947 61.1025 146.3562 61.0978 C 146.0156 61.0934 145.6835 61.2332 145.3429 61.237 C 145.0045 61.241 144.6525 61.2332 144.3335 61.1209 C 144.0622 61.0252 143.6229 60.63 143.6229 60.63 "/>
    <path id="ID0.5332203092984855" fill="none" stroke="#937B73" stroke-width="1.0160745697571893" stroke-linecap="round" d="M 143.5999 50.9108 C 143.5999 50.9108 142.949 51.2706 142.8062 51.5866 C 142.6194 52.0105 142.27 52.8208 142.6739 53.1822 C 143.2176 53.5368 144.0542 52.9012 144.7363 53.0359 C 145.396 53.169 146.6466 53.7669 146.6466 53.7669 "/>
    <path id="ID0.2278452254831791" fill="none" stroke="#937B73" stroke-width="1.0160745697571893" stroke-linecap="round" d="M 148.3331 47.7731 C 148.3331 47.7731 149.0485 49.7302 149.4018 50.7087 C 149.5201 51.0363 149.6548 51.3596 149.7487 51.6946 C 149.8426 52.0296 150.0169 52.3729 149.9635 52.7165 C 149.9101 53.0612 149.6684 53.3576 149.4495 53.6291 C 149.3033 53.8107 148.8896 54.0505 148.8896 54.0505 "/>
    <path id="ID0.6473136460408568" fill="none" stroke="#937B73" stroke-width="1.0160745499624597" stroke-linecap="round" d="M 146.6091 64.5894 C 146.6091 64.5894 146.8513 65.2563 146.8624 65.6044 C 146.8729 65.9434 146.7735 66.2818 146.6724 66.6055 C 146.5202 67.0933 146.1051 68.0312 146.1051 68.0312 "/>
    <path id="ID0.11669129692018032" fill="#2E3034" stroke="none" stroke-linecap="round" d="M 133.0694 40.6482 L 155.9568 45.0702 L 159.5636 48.1698 L 149.6895 51.7645 L 129.4128 46.8756 L 133.0694 40.6482 Z " stroke-width="0.5080372848785947"/>
    <path id="ID0.14635155349969864" fill="#2E3034" stroke="none" stroke-linecap="round" d="M 129.8189 45.5672 L 131.6176 46.1576 L 133.6471 51.6327 L 133.2912 57.396 L 134.6728 61.3903 L 137.1462 65.2289 L 129.5649 59.1153 L 129.8189 45.5672 Z " stroke-width="0.5080372848785947"/>
    <path id="ID0.28340246016159654" fill="#1C1D1F" stroke="none" stroke-linecap="round" d="M 133.5242 37.4713 L 136.7555 39.3924 L 146.2582 41.3823 L 145.601 47.0967 L 138.8141 45.3648 L 135.1011 43.8504 L 133.2618 42.1166 L 132.6007 40.3009 L 133.5242 37.4713 Z " stroke-width="0.5401026648422665"/>
    <path id="ID0.6101007834076881" fill="#FFFFFF" stroke="none" stroke-linecap="round" d="M 137.0271 40.4518 L 138.6234 41.0378 L 142.2413 42.663 L 142.5575 44.6807 L 137.5032 42.6369 L 137.0271 40.4518 Z " stroke-width="0.4061062354320537"/>
    <path id="ID0.28340246016159654" fill="#1C1D1F" stroke="none" stroke-linecap="round" d="M 159.0283 40.4266 L 155.8332 41.4408 L 147.1778 41.2453 L 146.5917 46.341 L 152.8364 46.2108 L 156.3675 45.6473 L 158.3158 44.5139 L 159.2575 43.0709 L 159.0283 40.4266 Z " stroke-width="0.48162498017818933"/>
    <path id="ID0.6101007834076881" fill="#FFFFFF" stroke="none" stroke-linecap="round" d="M 157.025 42.2651 L 155.4375 42.5771 L 151.7951 43.5635 L 151.1964 45.412 L 156.251 44.2471 L 157.025 42.2651 Z " stroke-width="0.38638677936998733"/>
    <g id="ID0.07940126257017255">
      <path id="ID0.46257128613069654" fill="#27282B" stroke="none" stroke-linecap="round" d="M 146.5078 41.3017 L 149.6854 51.6903 L 139.8625 49.2821 L 146.5078 41.3017 Z " stroke-width="0.5080372848785947"/>
      <path id="ID0.9845890481956303" fill="#27282B" stroke="none" stroke-linecap="round" d="M 147.3136 41.5193 L 154.6988 49.7837 L 149.7652 51.7732 L 147.3136 41.5193 Z " stroke-width="0.5080372848785947"/>
    </g>
    <path id="ID0.20071752788498998" fill="#202324" stroke="none" d="M 138.687 35.7728 L 142.5072 38.7947 L 147.0928 40.4982 L 147.0089 41.8949 L 139.4319 39.745 L 133.8443 36.75 L 135.7635 35.1809 L 138.687 35.7728 Z " stroke-width="0.5080372848785947"/>
    <path id="ID0.20071752788498998" fill="#202324" stroke="none" d="M 155.5458 37.4412 L 152.2332 39.5234 L 146.8456 40.4755 L 146.6297 41.7408 L 153.8474 41.398 L 159.4735 40.0042 L 158.2011 37.6058 L 155.5458 37.4412 Z " stroke-width="0.4660979952622455"/>
    <path id="ID0.521138689480722" fill="none" stroke="#212325" stroke-width="0.9060627536463887" stroke-linecap="round" d="M 159.0734 40.1234 L 155.6742 41.3285 L 147.0482 41.5905 "/>
    <path id="ID0.17828734638169408" fill="none" stroke="#202324" stroke-width="1.0160745697571893" stroke-linecap="round" d="M 149.6524 51.1977 L 147.5775 43.6719 C 146.8596 41.1541 146.942 41.7358 146.8649 40.7517 C 146.838 40.408 147.0929 40.0988 147.1829 39.7655 C 147.2713 39.4371 147.3737 39.1068 147.4 38.7677 C 147.4266 38.4251 147.3665 38.0801 147.3394 37.738 C 147.297 37.2038 147.1913 36.1356 147.1913 36.1356 "/>
    <path id="ID0.521138689480722" fill="none" stroke="#212325" stroke-width="1.0160745697571893" stroke-linecap="round" d="M 133.86 37.0563 L 137.2656 39.2378 L 146.6197 41.7199 "/>
    <path id="ID0.8012696979567409" fill="none" stroke="url(#grad_1)" stroke-width="1.0160745697571893" stroke-linecap="round" d="M 158.0662 48.7391 L 150.2 51.7721 L 131.9946 47.326 L 133.5218 51.3882 L 133.1281 57.4795 L 134.6339 61.2835 L 137.0957 65.2231 "/>
    <path id="ID0.043594349175691605" fill="#D7E2FD" stroke="none" stroke-linecap="round" d="M 141.8953 43.6452 L 142.2501 42.561 L 142.5197 44.6631 L 140.0298 43.6352 L 141.8953 43.6452 Z " stroke-width="0.5080372848785947"/>
    <path id="ID0.043594349175691605" fill="#D7E2FD" stroke="none" stroke-linecap="round" d="M 151.995 44.6229 L 151.8462 43.5965 L 151.2771 45.4373 L 153.6674 44.9046 L 151.995 44.6229 Z " stroke-width="0.461864303264857"/>
  </g>
  <g id="ID0.8669879510998726">
    <path id="ID0.5368814701214433" fill="#292D2E" stroke="none" stroke-linecap="round" d="M 144.4923 244.1935 L 147.4874 235.4008 L 152.0933 226.2116 L 161.9943 232.1957 L 173.1626 239.9732 L 190.492 250.5363 L 191.4877 257.065 L 166.7773 257.9304 L 145.5805 253.9948 L 144.4923 244.1935 Z " stroke-width="0.7702165753443064"/>
    <path id="ID0.05466862628236413" fill="#292D2E" stroke="none" stroke-linecap="round" d="M 148.4707 155.003 L 174.9414 151.2216 L 170.0127 170.0611 L 168.4244 175.0975 L 167.7835 193.2287 L 164.471 233.8463 L 148.7917 235.6831 L 146.6651 213.5357 L 143.959 204.8939 L 142.6537 195.4644 L 144.7718 181.9621 L 144.8078 169.641 L 148.4707 155.003 Z " stroke-width="0.7305889978321375"/>
    <path id="ID0.4490455654449761" fill="none" stroke="#272A2B" stroke-width="1.6585523899149508" stroke-linecap="round" d="M 148.1802 155.1898 L 174.6417 151.022 L 167.7846 175.4112 "/>
    <path id="ID0.10446935473009944" fill="none" stroke="#242728" stroke-width="1.6585523899149508" stroke-linecap="round" d="M 167.4098 187.7425 L 167.1962 204.5795 L 156.6272 211.8861 "/>
    <path id="ID0.42170455446466804" fill="none" stroke="#242728" stroke-width="1.6585523899149508" stroke-linecap="round" d="M 166.0902 205.7403 L 164.5895 220.7986 L 153.7999 228.2983 "/>
    <path id="ID0.047098892275244" fill="none" stroke="#242728" stroke-width="1.6585523899149508" stroke-linecap="round" d="M 145.0415 169.4388 L 144.5554 173.3488 L 149.0262 182.217 "/>
  </g>
  <path id="ID0.3809091211296618" fill="#3E4246" stroke="none" stroke-linecap="round" d="M 85.0156 150.9559 L 109.5343 163.5206 L 115.2044 177.5288 L 114.2225 183.139 L 108.9383 192.4539 L 100.4322 194.106 L 87.6747 195.2255 L 87.1402 184.1203 L 85.5003 177.3791 L 85.0156 150.9559 Z " stroke-width="0.5909086434502692"/>
  <g id="ID0.38464318960905075">
    <path id="ID0.5368814701214433" fill="#303436" stroke="none" stroke-linecap="round" d="M 82.557 244.7874 L 86.5632 236.407 L 92.2156 227.8217 L 101.346 234.9263 L 111.5245 243.9606 L 127.4946 256.4842 L 127.7173 263.0847 L 103.0761 261.0445 L 82.4876 254.6487 L 82.557 244.7874 Z " stroke-width="0.770216547129682"/>
    <path id="ID0.05466862628236413" fill="#303436" stroke="none" stroke-linecap="round" d="M 96.8895 156.0885 L 123.621 155.4394 L 116.5157 173.5704 L 114.3473 178.3856 L 111.5832 196.3163 L 103.5273 236.2646 L 87.7408 236.2488 L 88.2278 214.0049 L 86.5544 205.1052 L 86.3647 195.5877 L 90.0526 182.4273 L 91.5342 170.1955 L 96.8895 156.0885 Z " stroke-width="0.7305890362007086"/>
    <path id="ID0.4490455654449761" fill="none" stroke="#272A2B" stroke-width="1.6585524115049803" stroke-linecap="round" d="M 96.7261 156.9777 L 123.494 155.9438 L 113.8222 179.3599 "/>
    <path id="ID0.10446935473009944" fill="none" stroke="#242728" stroke-width="1.6585524115049803" stroke-linecap="round" d="M 112.0031 191.562 L 109.8151 208.2576 L 98.4618 214.2735 "/>
    <path id="ID0.42170455446466804" fill="none" stroke="#242728" stroke-width="1.6585524115049803" stroke-linecap="round" d="M 108.5805 209.2806 L 105.3232 224.0588 L 93.7281 230.2405 "/>
    <path id="ID0.047098892275244" fill="none" stroke="#242728" stroke-width="1.6585524115049803" stroke-linecap="round" d="M 91.9658 170.6733 L 91.0242 174.4993 L 94.4235 183.8308 "/>
  </g>
</svg>