<svg xmlns="http://www.w3.org/2000/svg" xmlns:xlink="http://www.w3.org/1999/xlink" version="1.1" width="287.59635175714175" height="309.67679609307925" viewBox="-0.12119061474640591 1.8528589534298636 287.59635175714175 309.67679609307925">
  <!-- Exported by Scratch - http://scratch.mit.edu/ -->
  <g id="ID0.7085462282411754">
    <g id="ID0.5880346246995032">
      <path id="ID0.6829322893172503" fill="#796B5E" stroke="none" stroke-linecap="round" d="M 130.1319 168.4698 L 142.2724 168.6723 L 142.6208 175.4448 L 143.528 182.996 L 140.7472 188.3874 L 137.8949 192.521 L 134.5115 194.4257 L 129.9086 200.0913 L 125.6525 197.6366 L 125.5094 195.1209 L 124.0938 194.1415 L 122.355 190.0646 L 120.6255 185.5043 L 120.9168 180.2846 L 125.1502 173.9388 L 130.1319 168.4698 Z " stroke-width="0.860103544862228"/>
      <g id="ID0.9434720128774643">
        <path id="ID0.6507829907350242" fill="#2C3134" stroke="none" stroke-linecap="round" d="M 156.4109 104.5467 L 169.0563 123.3214 L 159.5634 138.654 L 152.3834 150.061 L 144.5376 165.2725 L 143.2999 172.979 L 128.416 168.2267 L 132.7506 161.5916 L 135.8134 151.464 L 139.2204 138.3414 L 144.9382 125.3937 L 156.4109 104.5467 Z " stroke-width="0.860103544862228"/>
        <path id="ID0.9892375003546476" fill="none" stroke="#191919" stroke-width="2.106910174198116" stroke-linecap="round" d="M 129.255 167.5927 L 143.1176 171.5038 L 144.934 162.2806 "/>
      </g>
    </g>
    <path id="ID0.7729651997797191" fill="#2C3134" stroke="none" stroke-linecap="round" d="M 171.1756 75.3075 L 194.9132 82.6749 L 185.4322 102.095 L 177.8482 111.3987 L 173.2499 120.1221 L 167.8254 127.8059 L 152.3254 118.8885 L 152.4022 111.3131 L 164.996 88.7251 L 171.1756 75.3075 Z " stroke-width="1.0101170654897502"/>
    <path id="ID0.4757494777441025" fill="#2C3134" stroke="none" stroke-linecap="round" d="M 187.9395 63.8165 L 197.3342 65.1661 L 211.286 76.4041 L 192.9526 98.1559 L 180.6404 98.8969 L 175.7057 98.1261 L 173.4512 94.4867 L 171.7897 90.4058 L 167.1389 85.5237 L 169.2016 80.0877 L 173.138 72.411 L 179.6604 65.5087 L 187.9395 63.8165 Z " stroke-width="0.5087011852918293"/>
  </g>
  <g id="ID0.6688785348087549">
    <path id="ID0.5368814701214433" fill="#343434" stroke="none" stroke-linecap="round" d="M 129.1344 190.1565 L 130.4465 180.0247 L 130.3613 168.7197 L 117.6848 169.8196 L 102.8871 172.0743 L 80.6565 174.0875 L 76.5046 180.0476 L 100.4722 192.8966 L 123.3027 199.3015 L 129.1344 190.1565 Z " stroke-width="0.8471283342911995"/>
    <g id="ID0.5077062323689461">
      <path id="ID0.05466862628236413" fill="#252525" stroke="none" stroke-linecap="round" d="M 162.2265 117.796 L 142.2834 104.1818 L 137.0643 119.5835 L 135.4309 124.9127 L 128.5882 139.2992 L 110.3822 171.136 L 130.168 183.9321 L 140.3613 165.9467 L 145.9984 160.0224 L 150.8142 152.9016 L 154.4792 141.1161 L 159.3606 131.1175 L 162.2265 117.796 Z " stroke-width="0.6597530586189023"/>
      <path id="ID0.5319394422695041" fill="none" stroke="#131313" stroke-width="2.1997146171461615" stroke-linecap="round" d="M 110.9834 170.431 L 130.1938 184.4512 L 136.6246 173.5043 "/>
    </g>
  </g>
  <g id="ID0.8820344842970371">
    <path id="ID0.3809091211296618" fill="#252525" stroke="none" stroke-linecap="round" d="M 187.4354 186.7958 L 227.0918 176.5549 L 208.8589 157.0727 L 173.4927 116.9334 L 164.6051 109.1135 L 152.6133 103.6767 L 148.1699 111.7552 L 137.2663 121.0338 L 154.0043 138.1585 L 163.2184 149.6837 L 187.4354 186.7958 Z " stroke-width="0.8035436656303547"/>
    <path id="ID0.9495224836282432" fill="none" stroke="#131313" stroke-width="2.1997147267116404" stroke-linecap="round" d="M 173.3125 116.8414 L 166.5777 110.3573 L 158.7135 105.8393 L 148.664 109.1413 L 143.9395 106.1194 "/>
  </g>
  <g id="ID0.7085462282411754">
    <g id="ID0.5880346246995032">
      <path id="ID0.6829322893172503" fill="#796B5E" stroke="none" stroke-linecap="round" d="M 281.4109 187.4286 L 269.8402 183.7474 L 267.3494 190.0549 L 264.0806 196.9221 L 264.9961 202.9189 L 266.3806 207.7464 L 268.9796 210.631 L 271.5345 217.469 L 276.3514 216.5003 L 277.2895 214.1618 L 278.9436 213.6851 L 281.8921 210.376 L 284.9861 206.6057 L 286.3753 201.5658 L 284.3875 194.201 L 281.4109 187.4286 Z " stroke-width="0.860103543738539"/>
      <g id="ID0.9434720128774643">
        <path id="ID0.6507829907350242" fill="#2C3134" stroke="none" stroke-linecap="round" d="M 276.8437 118.4239 L 258.8696 132.1834 L 262.975 149.7432 L 266.1407 162.8448 L 268.7238 179.7644 L 267.4383 187.4631 L 283.0605 187.7074 L 281.0691 180.0362 L 281.3974 169.4607 L 282.3548 155.9369 L 281.0663 141.8416 L 276.8437 118.4239 Z " stroke-width="0.860103543738539"/>
        <path id="ID0.9892375003546476" fill="none" stroke="#191919" stroke-width="2.106910173892899" stroke-linecap="round" d="M 282.3832 186.9734 L 267.9973 186.2577 L 269.2182 176.937 "/>
      </g>
    </g>
    <path id="ID0.7729651997797191" fill="#2C3134" stroke="none" stroke-linecap="round" d="M 272.2088 85.9801 L 247.3612 85.3897 L 250.1514 106.8196 L 254.3709 118.0567 L 255.9461 127.7913 L 258.6358 136.804 L 276.1707 133.2974 L 278.5147 126.0933 L 273.7849 100.668 L 272.2088 85.9801 Z " stroke-width="1.0101169804377628"/>
    <path id="ID0.4757494777441025" fill="#2C3134" stroke="none" stroke-linecap="round" d="M 260.0105 69.719 L 250.6761 68.001 L 233.8681 74.2008 L 244.3043 100.6648 L 255.7368 105.295 L 260.6595 106.1386 L 263.9572 103.4087 L 266.8338 100.0711 L 272.7992 96.9278 L 272.5784 91.1178 L 271.2967 82.5865 L 267.3171 73.964 L 260.0105 69.719 Z " stroke-width="0.508701167313651"/>
  </g>
  <g id="ID0.8990198895335197">
    <path id="ID0.17576928716152906" fill="#DBDBDB" stroke="none" d="M 220.973 61.517 L 221.2338 61.5334 L 221.2338 61.5334 L 220.973 61.517 L 220.973 61.517 Z " stroke-width="1.0534572489367935"/>
    <path id="ID0.4270821204409003" fill="#252525" stroke="none" stroke-linecap="round" d="M 214.9153 190.9953 L 222.6676 71.5475 L 204.3974 73.04 L 196.9952 77.2856 L 193.8305 81.4542 L 185.9845 93.2698 L 186.2619 104.4109 L 187.0115 110.2598 L 184.9622 117.5101 L 184.22 123.297 L 186.149 130.7126 L 187.6054 136.3379 L 188.4333 146.2371 L 185.8872 169.4024 L 190.8905 178.3368 L 195.6102 185.1347 L 214.9153 190.9953 Z " stroke-width="0.501595785399862"/>
    <path id="ID0.4270821204409003" fill="#252525" stroke="none" stroke-linecap="round" d="M 214.9446 191.0375 L 222.1667 71.5565 L 240.1077 75.3184 L 246.9219 80.455 L 249.5413 84.9862 L 255.8507 97.6889 L 254.1844 108.7082 L 252.7104 114.4177 L 253.8384 121.8672 L 253.8522 127.7015 L 251.0125 134.8181 L 248.8651 140.2176 L 246.8077 149.936 L 246.4415 173.2379 L 240.3619 181.4777 L 243.3692 199.0518 L 214.9446 191.0375 Z " stroke-width="0.5015958026200296"/>
    <path id="ID0.5114514343440533" fill="#282828" stroke="none" d="M 249.5709 74.5332 L 194.2795 71.0679 L 188.4195 164.5681 L 243.7109 168.0334 L 249.5709 74.5332 Z " stroke-width="1.0624883561200273"/>
    <path id="ID0.9286923445761204" fill="#D4D4D4" stroke="none" stroke-linecap="round" d="M 233.7187 58.9846 L 216.9316 38.0036 L 223.1041 58.4713 L 219.1004 101.2686 L 260.6182 72.9772 L 240.3243 60.2089 L 233.7187 58.9846 Z " stroke-width="0.5015958626722967"/>
    <path id="ID0.9286923445761204" fill="#D4D4D4" stroke="none" stroke-linecap="round" d="M 216.8181 56.7686 L 232.3524 39.2567 L 223.6727 58.7935 L 219.7503 101.0895 L 184.641 68.5021 L 206.0642 57.2847 L 216.8181 56.7686 Z " stroke-width="0.5015958626722967"/>
    <path id="ID0.39874776685610414" fill="#1F2022" stroke="none" stroke-linecap="round" d="M 242.2854 61.2244 L 220.9013 70.3833 L 202.8558 59.7209 L 198.5376 61.7243 L 220.8543 74.3961 L 246.0772 63.5425 L 242.2854 61.2244 Z " stroke-width="0.9935621547785666"/>
    <path id="ID0.13444371055811644" fill="#1F1F1F" stroke="none" stroke-linecap="round" d="M 223.1845 72.5061 L 217.7241 71.898 L 212.9106 101.9104 L 225.4484 103.2281 L 223.1845 72.5061 Z " stroke-width="1.0534572489367935"/>
    <path id="ID0.751046194229275" fill="#191919" stroke="none" stroke-linecap="round" d="M 225.9643 67.4048 L 221.2224 64.943 L 216.3822 66.8042 L 215.3937 75.2249 L 219.9182 76.5615 L 225.4348 75.8542 L 225.9643 67.4048 Z " stroke-width="1.1588030157999438"/>
    <path id="ID0.7854711129330099" fill="#282828" stroke="none" stroke-linecap="round" d="M 233.8583 90.9489 L 218.672 99.3041 L 204.9749 88.0751 L 205.8994 106.7469 L 230.1545 108.2671 L 233.8583 90.9489 Z " stroke-width="1.0534572489367935"/>
    <path id="ID0.562834897544235" fill="#282828" stroke="none" stroke-linecap="round" d="M 246.5847 167.7978 L 215.4087 159.7279 L 214.064 181.1826 L 228.3255 183.406 L 246.5847 167.7978 Z " stroke-width="1.0534572489367935"/>
    <path id="ID0.562834897544235" fill="#282828" stroke="none" stroke-linecap="round" d="M 183.1754 164.2029 L 215.1151 160.0886 L 213.7704 181.5434 L 199.343 181.9687 L 183.1754 164.2029 Z " stroke-width="1.0534572489367935"/>
    <path id="ID0.6824178956449032" fill="none" stroke="#191919" stroke-width="2.106914497873587" stroke-linecap="round" d="M 218.927 99.6517 L 214.0914 180.9841 "/>
    <path id="ID0.4144489667378366" fill="#40474C" stroke="none" stroke-linecap="round" d="M 261.3667 69.8044 L 240.7725 60.0045 L 242.4579 83.2446 L 235.0833 146.6016 L 242.0225 194.635 L 253.8301 190.0568 L 253.8585 193.7813 L 253.9161 142.7296 L 261.7434 97.2171 L 263.8656 80.0658 L 261.3667 69.8044 Z " stroke-width="1.0534572489367935"/>
    <path id="ID0.5234400681219995" fill="#101010" stroke="none" d="M 216.2278 105.3767 C 215.7973 105.3497 215.3958 105.5028 215.0952 105.7721 C 214.7946 106.0414 214.5949 106.4269 214.5675 106.8641 C 214.5401 107.3013 214.6901 107.7087 214.9547 108.0135 C 215.2194 108.3182 215.5986 108.5202 216.0291 108.5472 C 216.4596 108.5742 216.8611 108.4211 217.1617 108.1518 C 217.4623 107.8825 217.662 107.4969 217.6894 107.0598 C 217.7168 106.6226 217.5668 106.2151 217.3022 105.9104 C 217.0376 105.6057 216.6583 105.4036 216.2278 105.3767 Z " stroke-width="0.6636780913406511"/>
    <path id="ID0.5234400681219995" fill="#101010" stroke="none" d="M 215.2778 119.7767 C 214.8473 119.7497 214.4458 119.9028 214.1452 120.1721 C 213.8446 120.4414 213.6449 120.8269 213.6175 121.2641 C 213.5901 121.7013 213.7401 122.1087 214.0047 122.4135 C 214.2694 122.7182 214.6486 122.9202 215.0791 122.9472 C 215.5096 122.9742 215.9111 122.8211 216.2117 122.5518 C 216.5123 122.2825 216.712 121.8969 216.7394 121.4598 C 216.7668 121.0226 216.6168 120.6151 216.3522 120.3104 C 216.0876 120.0057 215.7083 119.8036 215.2778 119.7767 Z " stroke-width="0.6636780913406511"/>
    <path id="ID0.5234400681219995" fill="#101010" stroke="none" d="M 213.1778 153.2267 C 212.7473 153.1997 212.3458 153.3528 212.0452 153.6221 C 211.7446 153.8914 211.5449 154.2769 211.5175 154.7141 C 211.4901 155.1513 211.6401 155.5587 211.9047 155.8635 C 212.1694 156.1682 212.5486 156.3702 212.9791 156.3972 C 213.4096 156.4242 213.8111 156.2711 214.1117 156.0018 C 214.4123 155.7325 214.612 155.3469 214.6394 154.9098 C 214.6668 154.4726 214.5168 154.0651 214.2522 153.7604 C 213.9876 153.4557 213.6083 153.2536 213.1778 153.2267 Z " stroke-width="0.6636780913406511"/>
    <path id="ID0.5234400681219995" fill="#101010" stroke="none" d="M 214.2278 137.4767 C 213.7973 137.4497 213.3958 137.6028 213.0952 137.8721 C 212.7946 138.1414 212.5949 138.5269 212.5675 138.9641 C 212.5401 139.4013 212.6901 139.8087 212.9547 140.1135 C 213.2194 140.4182 213.5986 140.6202 214.0291 140.6472 C 214.4596 140.6742 214.8611 140.5211 215.1617 140.2518 C 215.4623 139.9825 215.662 139.5969 215.6894 139.1598 C 215.7168 138.7226 215.5668 138.3151 215.3022 138.0104 C 215.0376 137.7057 214.6583 137.5036 214.2278 137.4767 Z " stroke-width="0.6636780913406511"/>
    <path id="ID0.5234400681219995" fill="#101010" stroke="none" d="M 212.4278 168.0767 C 211.9973 168.0497 211.5958 168.2028 211.2952 168.4721 C 210.9946 168.7414 210.7949 169.1269 210.7675 169.5641 C 210.7401 170.0013 210.8901 170.4087 211.1547 170.7135 C 211.4194 171.0182 211.7986 171.2202 212.2291 171.2472 C 212.6596 171.2742 213.0611 171.1211 213.3617 170.8518 C 213.6623 170.5825 213.862 170.1969 213.8894 169.7598 C 213.9168 169.3226 213.7668 168.9151 213.5022 168.6104 C 213.2376 168.3057 212.8583 168.1036 212.4278 168.0767 Z " stroke-width="0.6636780913406511"/>
    <path id="ID0.4144489667378366" fill="#40474C" stroke="none" stroke-linecap="round" d="M 184.8941 64.1807 L 206.5508 57.0288 L 201.9769 79.8766 L 201.3833 143.6586 L 188.5011 190.4497 L 177.3575 184.4331 L 176.8643 188.1249 L 183.1813 137.4655 L 181.0978 91.3319 L 181.1336 74.0498 L 184.8941 64.1807 Z " stroke-width="1.0534572489367935"/>
    <path id="ID0.8752945330925286" fill="none" stroke="#222222" stroke-width="2.106914497873587" stroke-linecap="round" d="M 260.8285 70.0366 L 263.7044 78.4602 L 257.8072 118.2435 "/>
    <path id="ID0.8752945330925286" fill="none" stroke="#222222" stroke-width="2.106914497873587" stroke-linecap="round" d="M 184.6991 64.7783 L 180.794 72.7769 L 181.6779 112.9852 "/>
    <path id="ID0.5234400681219995" fill="#101010" stroke="none" d="M 237.2778 155.3767 C 236.8473 155.3497 236.4458 155.5028 236.1452 155.7721 C 235.8446 156.0414 235.6449 156.4269 235.6175 156.8641 C 235.5901 157.3013 235.7401 157.7087 236.0047 158.0135 C 236.2694 158.3182 236.6486 158.5202 237.0791 158.5472 C 237.5096 158.5742 237.9111 158.4211 238.2117 158.1518 C 238.5123 157.8825 238.712 157.4969 238.7394 157.0598 C 238.7668 156.6226 238.6168 156.2151 238.3522 155.9104 C 238.0876 155.6057 237.7083 155.4036 237.2778 155.3767 Z " stroke-width="0.6636780913406511"/>
    <path id="ID0.5234400681219995" fill="#101010" stroke="none" d="M 238.2778 163.1767 C 237.8473 163.1497 237.4458 163.3028 237.1452 163.5721 C 236.8446 163.8414 236.6449 164.2269 236.6175 164.6641 C 236.5901 165.1013 236.7401 165.5087 237.0047 165.8135 C 237.2694 166.1182 237.6486 166.3202 238.0791 166.3472 C 238.5096 166.3742 238.9111 166.2211 239.2117 165.9518 C 239.5123 165.6825 239.712 165.2969 239.7394 164.8598 C 239.7668 164.4226 239.6168 164.0151 239.3522 163.7104 C 239.0876 163.4057 238.7083 163.2036 238.2778 163.1767 Z " stroke-width="0.6636780913406511"/>
    <g id="ID0.20783481979742646">
      <path id="ID0.5848579816520214" fill="#737373" stroke="none" stroke-linecap="round" d="M 193.8452 94.9544 L 186.7986 92.9173 L 186.644 97.0558 L 194.1742 98.0596 L 193.8452 94.9544 Z " stroke-width="1.0534572489367935"/>
      <path id="ID0.13105127029120922" fill="none" stroke="#222222" stroke-width="2.106914497873587" stroke-linecap="round" d="M 195.566 98.4128 L 190.8715 98.1185 L 185.4941 96.186 "/>
    </g>
  </g>
  <path id="ID0.46110434643924236" fill="#675B50" stroke="none" stroke-linecap="round" d="M 236.3963 39.4698 L 212.8039 37.9911 L 211.0579 58.038 L 217.3307 61.4625 L 235.0617 60.7656 L 236.3963 39.4698 Z " stroke-width="1.144406894210797"/>
  <g id="ID0.9597035455517471">
    <path id="ID0.5368814701214433" fill="#404040" stroke="none" stroke-linecap="round" d="M 142.4634 216.0959 L 143.6057 205.9436 L 143.3314 194.6416 L 130.675 195.9535 L 115.9171 198.4555 L 93.7233 200.8405 L 89.6718 206.8693 L 113.8511 219.3153 L 136.7855 225.3373 L 142.4634 216.0959 Z " stroke-width="0.8471282696657984"/>
    <g id="ID0.5077062323689461">
      <path id="ID0.05466862628236413" fill="#252525" stroke="none" stroke-linecap="round" d="M 173.42 142.0035 L 152.9187 129.2455 L 148.356 144.8542 L 146.9496 150.2478 L 140.7219 164.911 L 123.8794 197.4896 L 144.1889 209.437 L 153.612 191.0363 L 158.9933 184.8789 L 163.5036 177.5606 L 166.6666 165.6306 L 171.1205 155.4343 L 173.42 142.0035 Z " stroke-width="0.6597530406986021"/>
      <path id="ID0.5319394422695041" fill="none" stroke="#131313" stroke-width="2.1997147942511126" stroke-linecap="round" d="M 124.5151 196.7528 L 144.3015 209.9475 L 150.2634 198.7383 "/>
    </g>
  </g>
  <g id="ID0.8820344842970371">
    <path id="ID0.3809091211296618" fill="#252525" stroke="none" stroke-linecap="round" d="M 212.2891 210.2892 L 245.5137 200.2758 L 226.3812 181.6763 L 189.1592 143.2516 L 179.9123 135.86 L 167.6772 130.9955 L 163.6202 139.2748 L 151.6897 148.4703 L 168.558 167.6012 L 178.203 178.2887 L 212.2891 210.2892 Z " stroke-width="0.8035436602052097"/>
    <path id="ID0.9495224836282432" fill="none" stroke="#131313" stroke-width="2.1997145314683637" stroke-linecap="round" d="M 188.913 143.3313 L 181.8797 137.1724 L 173.8109 133.0308 L 163.9285 136.8036 L 159.0666 134.0082 "/>
  </g>
  <path id="ID0.7592270169407129" fill="none" stroke="#675B50" stroke-width="1.0984285722290994" stroke-linecap="round" d="M 213.6031 54.0127 C 213.6031 54.0127 213.4541 54.762 213.5053 55.1335 C 213.5548 55.494 213.8204 55.8004 213.8979 56.1561 C 213.9755 56.514 213.8975 56.8932 213.9664 57.2528 C 214.0345 57.6103 214.1181 57.9795 214.3063 58.292 C 214.4664 58.5579 214.982 58.938 214.982 58.938 "/>
  <path id="ID0.48112139804288745" fill="#3A3A3A" stroke="#3A3A3A" stroke-width="2.036267646858803" stroke-linecap="round" d="M 202.4469 12.9046 C 201.7732 13.2264 202.3329 14.7402 202.0118 15.5622 C 201.7539 16.2222 201.0477 16.6767 200.8642 17.3609 C 200.6887 18.0173 200.8959 18.7237 200.9843 19.3968 C 201.2326 21.2962 201.021 23.7762 201.8726 25.2863 C 202.2196 25.8084 202.9459 24.0605 203.3814 23.4611 C 204.2703 22.2595 205.2181 21.0051 205.8402 19.7227 C 206.137 19.1109 206.1257 18.3923 206.2313 17.7211 C 206.3356 17.0549 206.7133 16.3391 206.469 15.7093 C 206.2213 15.0701 205.4829 14.7347 204.918 14.3378 C 204.1815 13.821 203.2263 12.6142 202.4469 12.9046 Z "/>
  <path id="ID0.05099705280736089" fill="#1C1916" stroke="#1C1916" stroke-width="2.162145715876745" stroke-linecap="round" d="M 238.2214 34.9694 C 238.5529 35.1649 238.015 36.3884 237.799 37.2018 C 237.6138 37.8978 237.1427 38.4992 236.6926 39.0654 C 236.2412 39.6326 235.669 40.1002 235.1192 40.5746 C 234.5695 41.0491 233.969 41.4664 233.3939 41.9122 C 232.8188 42.3581 232.3944 43.3362 231.6685 43.2498 C 230.9427 43.1634 230.3937 42.261 230.311 41.5438 C 230.1462 40.116 230.4133 38.6052 230.9786 37.2823 C 231.2631 36.6178 232.0841 36.3273 232.704 35.9448 C 233.3228 35.5632 233.9671 35.1747 234.6756 35.0005 C 235.71 34.7459 236.9912 34.0643 237.8595 34.6759 Z "/>
  <path id="ID0.8999492498114705" fill="#796B5E" stroke="none" stroke-linecap="round" d="M 215.7653 3.9858 C 210.9501 4.1784 205.6187 6.7385 203.0248 10.7446 C 200.0649 15.3186 201.3551 21.4171 201.0918 26.7928 C 200.9773 29.1517 201.6211 31.626 202.0194 34.0199 C 202.586 37.4211 203.3228 40.6898 203.9278 43.9655 C 204.2796 45.9543 203.7869 48.2676 204.8915 49.8278 C 206.6489 52.309 209.0621 54.8896 212.0408 55.5582 C 215.4828 56.3302 219.0222 54.5539 222.4682 53.7148 C 224.1999 53.2354 226.2691 52.9772 227.5114 51.6194 C 230.1739 48.7041 231.69 44.8581 233.4336 41.379 C 235.2642 37.7269 237.9293 34.2199 238.2617 30.1079 C 238.8267 23.1095 240.611 14.5597 235.7901 9.1584 C 231.5009 3.9814 222.9232 3.7027 215.7653 3.9858 Z " stroke-width="0.5492253971607121"/>
  <path id="ID0.8194515448994935" fill="#796B5E" stroke="none" stroke-linecap="round" d="M 238.5599 26.1033 C 237.6267 26.1343 236.9149 26.6991 236.2884 27.7971 C 235.6618 28.8951 235.2158 30.4392 235.0997 32.169 C 234.9836 33.8987 235.2193 35.4885 235.6935 36.6604 C 236.1677 37.8323 236.8006 38.4583 237.7183 38.6426 C 238.5609 38.8101 239.6838 38.4236 240.1241 37.7275 C 240.9689 36.1715 240.9665 34.2583 241.1786 32.5769 C 241.3876 30.9244 241.9008 29.1266 241.3502 27.5824 C 240.8917 26.6322 239.538 26.0709 238.5599 26.1033 Z " stroke-width="1.0810728579383726"/>
  <path id="ID0.7592270169407129" fill="none" stroke="#675B50" stroke-width="1.0984507943214241" stroke-linecap="round" d="M 215.8066 46.9201 C 215.8066 46.9201 215.1068 47.2445 214.7296 47.2854 C 214.3635 47.3253 213.9983 47.145 213.6303 47.1569 C 213.2599 47.1692 212.9064 47.3358 212.5366 47.357 C 212.169 47.3782 211.7861 47.3875 211.4336 47.2829 C 211.1338 47.1939 210.6357 46.7918 210.6357 46.7918 "/>
  <path id="ID0.7788236327469349" fill="#FFFFFF" stroke="none" stroke-linecap="round" d="M 226.0155 26.9701 L 224.5644 26.6574 L 222.14 26.2256 L 219.799 26.1761 L 219.3115 28.5657 L 222.0364 29.3945 L 227.5106 29.0622 L 226.0155 26.9701 Z " stroke-width="1.0810728579383726"/>
  <path id="ID0.7788236327469349" fill="#FFFFFF" stroke="none" stroke-linecap="round" d="M 206.1581 25.632 L 208.043 25.1664 L 210.1598 25.3084 L 212.4864 25.5722 L 212.6502 28.0055 L 209.839 28.4628 L 204.8238 27.6417 L 206.1581 25.632 Z " stroke-width="1.0810728579383726"/>
  <path id="ID0.2118154256604612" fill="#1C1916" stroke="#1C1916" stroke-width="2.162145715876745" stroke-linecap="round" d="M 239.7023 23.8626 C 239.6956 24.4166 239.2454 26.884 238.3183 28.2375 C 237.9762 28.7367 237.8276 26.8244 237.5322 26.1392 C 237.2464 25.4752 236.8439 24.8604 236.5726 24.1908 C 236.2827 23.4748 236.0566 22.7319 235.8481 21.9891 C 235.6456 21.2693 235.4922 20.5333 235.3406 19.8019 C 235.1907 19.0791 235.1505 18.3304 234.9418 17.622 C 234.7341 16.9147 234.3972 16.2483 234.0979 15.5737 C 233.7975 14.8989 233.6823 14.0806 233.1418 13.5717 C 232.586 13.0478 231.7798 12.7934 231.0212 12.6757 C 230.2938 12.5634 229.5562 12.8315 228.825 12.9051 C 228.0577 12.9817 227.284 13.0235 226.5203 13.1272 C 225.7808 13.2273 225.0415 13.3574 224.3133 13.5174 C 223.6039 13.6733 222.9075 13.8957 222.2041 14.0756 C 221.4674 14.2641 220.7134 14.4019 219.9863 14.6265 C 219.2826 14.8441 218.6338 15.2334 217.917 15.4027 C 217.2024 15.5712 216.4251 15.8441 215.7208 15.6321 C 215.0133 15.4188 214.5915 14.6843 214.016 14.2258 C 213.4363 13.7649 212.8946 13.2419 212.2534 12.8695 C 211.6258 12.5054 210.9404 12.2215 210.2377 12.0344 C 209.0464 11.7187 207.6845 11.1988 206.355 11.397 C 205.0816 11.5893 203.4725 13.6646 202.8026 13.1502 C 202.1673 12.6576 203.3332 10.5741 203.9843 9.3539 C 204.6876 8.0382 205.7089 6.874 206.834 5.8848 C 207.9186 4.9316 209.1602 4.0762 210.531 3.603 C 211.9219 3.1225 213.4565 3.1965 214.9269 3.0906 C 215.6501 3.038 216.3796 3.1515 217.1052 3.1292 C 217.8373 3.1062 218.5648 2.9408 219.2977 2.9534 C 220.7463 2.9784 222.2227 2.9451 223.6398 3.2448 C 225.1149 3.5559 226.4752 4.278 227.8991 4.7687 C 228.6046 5.012 229.338 5.1807 230.0341 5.4503 C 231.4103 5.9841 232.7825 6.5466 234.1162 7.1776 C 234.7746 7.4888 235.4924 7.7609 236.0054 8.2734 C 236.547 8.8135 236.7431 9.6126 237.1821 10.2363 C 237.6072 10.8397 238.2472 11.2961 238.5939 11.9459 C 238.9541 12.6225 239.1084 13.3951 239.2642 14.1441 C 239.4116 14.8559 239.4847 15.5864 239.5002 16.3131 C 239.5155 17.0278 239.3138 17.7421 239.3564 18.4565 C 239.3996 19.1926 239.6252 19.9097 239.7552 20.6365 C 239.8623 21.2347 240.1838 21.8376 240.0708 22.434 Z "/>
  <path id="ID0.5261953212320805" fill="none" stroke="#1C1916" stroke-width="2.1621461285447565" stroke-linecap="round" d="M 228.6203 24.497 C 228.6203 24.497 228.0191 23.0395 227.4515 22.5239 C 226.9086 22.0302 226.1539 21.7941 225.4427 21.6072 C 224.7314 21.4202 223.9699 21.5311 223.2427 21.4177 C 221.8803 21.204 219.176 20.6266 219.176 20.6266 "/>
  <path id="ID0.5261953212320805" fill="none" stroke="#1C1916" stroke-width="2.16214601738995" stroke-linecap="round" d="M 203.0564 22.5338 C 203.0564 22.5338 203.8205 21.1547 204.4433 20.7074 C 205.0392 20.2791 205.8159 20.1309 206.5439 20.0266 C 207.2719 19.9223 208.0157 20.1196 208.7511 20.0902 C 210.129 20.0339 212.8816 19.7697 212.8816 19.7697 "/>
  <path id="ID0.8619630038738251" fill="none" stroke="#675B50" stroke-width="1.270658340557973" stroke-linecap="round" d="M 215.1096 26.963 C 215.1096 26.963 214.5347 30.0391 214.2588 31.5245 C 214.1016 32.3586 214.2092 33.3136 213.7388 34.0203 C 213.1699 34.8204 211.9604 34.7197 211.6237 35.4601 C 211.185 36.2284 210.9639 37.6903 211.7118 37.9651 C 212.8488 38.3824 214.0169 36.9993 215.3029 36.9724 C 215.9934 36.9586 217.1278 37.949 217.1278 37.949 "/>
  <path id="ID0.6736386958509684" fill="none" stroke="#675B50" stroke-width="1.3553751621575274" stroke-linecap="round" d="M 228.1336 35.5763 C 228.1336 35.5763 227.4936 36.3432 227.1361 36.6904 C 226.8099 37.0073 226.4175 37.2529 226.0863 37.5647 C 225.7477 37.8835 225.3746 38.1871 225.1295 38.5803 C 224.8806 38.9786 224.678 39.4307 224.631 39.8966 C 224.5053 41.1481 224.6167 43.6748 224.6167 43.6748 "/>
  <path id="ID0.18298013787716627" fill="#1C1916" stroke="#1C1916" stroke-width="2.162145715876745" stroke-linecap="round" d="M 229.9665 12.0666 C 230.4132 12.3162 230.8622 13.3433 230.6368 14.2647 C 230.2796 15.7211 228.8041 17.1852 228.9922 18.4606 C 229.0853 19.0881 230.4993 18.3282 231.1992 18.0705 C 231.8812 17.8191 232.4612 17.3488 233.073 16.9582 C 233.7326 16.5374 234.5911 16.2882 235.0155 15.6352 C 235.4082 15.0318 235.549 14.1843 235.3221 13.5026 C 235.0945 12.8167 234.4132 12.3263 233.791 11.9465 C 233.1552 11.5583 232.3922 11.3918 231.6559 11.2649 C 231.3444 11.2117 230.8194 11.1216 230.7189 11.4173 Z "/>
  <path id="ID0.7592270169407129" fill="none" stroke="#675B50" stroke-width="1.0984448270727232" stroke-linecap="round" d="M 215.2029 20.246 C 215.2029 20.246 214.9122 20.9534 214.891 21.3276 C 214.8702 21.6907 215.0721 22.0412 215.0797 22.4048 C 215.087 22.7706 214.9374 23.1281 214.9358 23.4939 C 214.9339 23.8576 214.945 24.2356 215.0696 24.5776 C 215.1756 24.8685 215.6088 25.3383 215.6088 25.3383 "/>
  <path id="ID0.48112139804288745" fill="#3A3A3A" stroke="#3A3A3A" stroke-width="2.036267646858803" stroke-linecap="round" d="M 239.4826 16.8277 C 240.1072 17.2366 239.3502 18.6621 239.5587 19.5196 C 239.726 20.2081 240.3652 20.7529 240.4556 21.4555 C 240.5418 22.1295 240.242 22.8018 240.0646 23.4571 C 239.5646 25.3063 239.4429 27.7923 238.3971 29.175 C 237.9835 29.6461 237.4973 27.8168 237.1457 27.1646 C 236.4255 25.855 235.6538 24.4852 235.2086 23.1311 C 234.9963 22.4852 235.1035 21.7746 235.0885 21.0953 C 235.0742 20.4211 234.7956 19.6612 235.1218 19.0697 C 235.4527 18.4694 236.2293 18.2356 236.8421 17.9178 C 237.6411 17.504 238.749 16.4357 239.4826 16.8277 Z "/>
  <path id="ID0.7766774026677012" fill="#0D0D0D" stroke="#0D0D0D" stroke-width="1.8086520039145781" stroke-linecap="round" d="M 1 195.2018 C 1.718 168.513 0.989 140.7886 12 115.2773 C 16.164 105.6321 31.459 101.1874 43.5 97.7377 C 48.996 96.1655 54.566 100.1119 60 101.5247 C 61.543 101.9225 62.688 102.7572 64 103.3185 C 65.857 103.9539 67.811 104.4362 69.5 105.1123 C 70.098 105.3531 70.7 105.5907 71.25 105.9096 C 71.9 106.1886 72.4 106.5872 73 106.9061 C 74.25 107.5041 75.5 108.1419 76.75 108.6999 C 78 109.1783 79.3 109.5769 80.5 110.0951 C 81.1 110.3343 81.75 110.5336 82.25 110.8924 C 82.85 111.2512 83.25 111.8092 83.75 112.2876 C 84.25 112.6862 84.75 113.0848 85.25 113.4835 C 85.75 113.8422 86.4 114.201 86.75 114.6793 C 87.15 115.1178 87.25 115.7158 87.5 116.2738 C 87.75 116.7921 88.05 117.3103 88.25 117.8683 C 88.7 118.9048 89.1 119.9811 89.5 121.0574 C 89.75 121.5756 90 122.0938 90.25 122.6519 C 90.5 123.1701 90.75 123.6883 91 124.2464 C 91.25 124.7646 91.5 125.2828 91.75 125.8409 C 92 126.3591 92.35 126.8773 92.5 127.4354 C 92.7 127.9536 92.7 128.4718 92.75 129.0299 C 92.85 129.5481 92.95 130.0663 93 130.6244 C 93.1 131.1426 93.15 131.6608 93.25 132.2189 C 93.4 132.7371 93.65 133.2553 93.75 133.8134 C 94.2 135.368 94.6 137.0024 95 138.5969 C 95.15 139.1151 95.4 139.6333 95.5 140.1914 C 95.65 140.7096 95.7 141.2278 95.75 141.7859 C 95.85 142.3041 96 142.8223 96 143.3804 C 96.05 143.8986 96 144.4168 96 144.9749 C 96 146.0114 96.1 147.0876 96 148.1639 C 96 148.6821 95.8 148.9213 95.75 149.7584 C 95.7 152.9873 95.75 156.256 95.75 159.5248 C 95.75 162.6739 95.75 165.9028 95.75 169.0918 C 95.75 170.6464 95.7 172.2808 95.75 173.8753 C 95.8 174.3935 95.9 174.9117 96 175.4698 C 96.25 176.6657 96.6 177.8217 96.75 179.0575 C 96.85 179.5757 96.75 180.0939 96.75 180.652 C 96.8 181.1702 96.95 181.6884 97 182.2465 C 97.2 183.2829 97.45 184.3592 97.5 185.4355 C 97.6 186.4719 97.5 187.5482 97.5 188.6245 C 97.5 191.7736 97.5 195.0025 97.5 198.1915 C 97.5 198.9489 97.45 199.2279 97.5 199.786 C 97.6 200.3042 97.9 200.8224 98 201.3805 C 98.35 202.9352 98.5 204.5695 98.75 206.164 C 98.85 206.6822 98.9 207.2005 99 207.7585 C 99.3 208.8747 99.75 209.9908 100 211.1469 C 100.15 211.7049 100.2 212.3427 100.25 212.9407 C 100.35 213.4987 100.5 214.0967 100.5 214.7345 C 100.55 215.2527 100.5 215.7709 100.5 216.329 C 100.5 216.8472 100.6 217.3654 100.5 217.9235 C 100.35 218.9599 100 220.0362 99.75 221.1125 C 99.65 221.6307 99.55 222.1489 99.5 222.707 C 99.5 223.2252 99.5 223.7434 99.5 224.3015 C 99.5 224.8197 99.5 225.3379 99.5 225.896 C 99.6 226.9324 99.6 228.0087 99.75 229.085 C 99.95 230.0816 100.5 232.0747 100.5 232.0747 C 100.75 232.4733 101.372 234.7423 101.75 235.8617 C 101.955 236.47 102.277 237.0512 102.5 237.6555 C 102.694 238.1809 102.833 238.719 103 239.25 C 103.167 239.781 103.373 240.3064 103.5 240.8445 C 103.624 241.3707 103.626 241.9128 103.75 242.439 C 103.877 242.9771 104.045 243.5113 104.25 244.0335 C 104.462 244.5748 104.827 245.0779 105 245.628 C 105.163 246.147 105.167 246.6915 105.25 247.2225 C 105.333 247.7535 105.417 248.286 105.5 248.817 C 105.583 249.348 105.667 249.8806 105.75 250.4115 C 105.833 250.9425 105.972 251.4711 106 252.006 C 106.055 253.0672 105.945 254.1339 106 255.195 C 106.028 255.73 106.167 256.2586 106.25 256.7895 C 106.333 257.3205 106.472 257.8491 106.5 258.384 C 106.555 259.4452 106.528 260.5111 106.5 261.5731 C 106.444 263.6977 106.317 265.8272 106.25 267.9511 C 106.233 268.482 106.25 269.0146 106.25 269.5456 C 106.25 270.0765 106.208 270.6099 106.25 271.1401 C 106.292 271.6742 106.376 272.2084 106.5 272.7346 C 106.627 273.2727 106.915 273.7862 107 274.3291 C 107.083 274.8561 106.958 275.3934 107 275.9236 C 107.042 276.4578 107.208 276.9839 107.25 277.5181 C 107.292 278.0483 107.208 278.5824 107.25 279.1126 C 107.292 279.6468 107.376 280.1809 107.5 280.7071 C 107.627 281.2453 107.873 281.7635 108 282.3016 C 108.124 282.8278 108.126 283.3699 108.25 283.8961 C 108.377 284.4343 108.637 284.9509 108.75 285.4906 C 108.971 286.5462 109.083 287.6177 109.25 288.6796 C 109.333 289.2106 109.417 289.7432 109.5 290.2741 C 109.583 290.8051 109.708 291.3345 109.75 291.8686 C 109.792 292.3988 109.792 292.933 109.75 293.4631 C 109.708 293.9973 109.528 294.5227 109.5 295.0576 C 109.445 296.1188 109.335 297.1927 109.5 298.2467 C 109.67 299.3325 110.116 300.3849 110.5 301.4357 C 110.699 301.9802 111.038 302.4888 111.25 303.0302 C 111.455 303.5524 111.545 304.1025 111.75 304.6247 C 111.962 305.166 112.369 305.6619 112.5 306.2192 C 112.623 306.7414 112.892 307.384 112.5 307.8137 C 112.082 308.2721 111.206 308.3415 110.5 308.4116 C 109.834 308.4778 109.171 308.2123 108.5 308.2123 C 107.829 308.2123 107.171 308.4116 106.5 308.4116 C 105.829 308.4116 105.17 308.2458 104.5 308.2123 C 103.835 308.1788 103.161 308.1461 102.5 308.2123 C 101.819 308.2801 101.122 308.3797 100.5 308.6109 C 99.851 308.8525 99.429 309.4273 98.75 309.6075 C 98.118 309.7757 97.416 309.6075 96.75 309.6075 C 96.084 309.6075 95.411 309.6737 94.75 309.6075 C 94.069 309.5397 93.431 309.2766 92.75 309.2089 C 92.089 309.1427 91.415 309.1754 90.75 309.2089 C 90.08 309.2424 89.42 309.3747 88.75 309.4082 C 88.085 309.4417 87.411 309.342 86.75 309.4082 C 86.069 309.476 85.431 309.739 84.75 309.8068 C 84.089 309.873 83.415 309.7733 82.75 309.8068 C 82.08 309.8403 81.416 309.94 80.75 310.0061 C 80.084 310.0723 79.421 310.2222 78.75 310.2054 C 76.746 310.1552 74.751 309.9065 72.75 309.8068 C 72.085 309.7733 71.415 309.7733 70.75 309.8068 C 70.08 309.8403 69.421 309.9838 68.75 310.0061 C 67.419 310.05 66.081 309.9623 64.75 310.0061 C 64.079 310.0284 63.42 310.172 62.75 310.2054 C 62.085 310.2389 61.415 310.2389 60.75 310.2054 C 60.08 310.172 59.42 310.0396 58.75 310.0061 C 58.085 309.9726 57.415 310.0396 56.75 310.0061 C 56.08 309.9726 55.419 309.8515 54.75 309.8068 C 53.42 309.7183 52.085 309.6075 50.75 309.6075 C 50.079 309.6075 49.41 309.708 48.75 309.8068 C 48.075 309.9081 47.431 310.1377 46.75 310.2054 C 46.089 310.2716 45.416 310.2054 44.75 310.2054 C 42.752 310.2054 40.747 310.156 38.75 310.2054 C 38.079 310.2222 37.42 310.3713 36.75 310.4047 C 36.085 310.4382 35.415 310.4382 34.75 310.4047 C 34.08 310.3713 33.416 310.2716 32.75 310.2054 C 32.084 310.1393 31.42 310.0396 30.75 310.0061 C 30.085 309.9726 29.405 310.1042 28.75 310.0061 C 28.051 309.9017 28.346 309.7438 26.75 309.4082 C 20.367 308.0656 8.928 310.6264 7.35 305.4618 C 1.723 287.0349 9.575 267.2638 8.5 248.2191 C 7.508 230.6843 0.545 213.0435 1 195.2018 Z "/>
  <g id="ID0.15551237482577562">
    <path id="ID0.036129117012023926" fill="#5E3B21" stroke="none" d="M 222.1117 26.2488 C 221.6699 26.2192 221.2574 26.3691 220.9484 26.6358 C 220.6394 26.9025 220.4337 27.286 220.4044 27.7222 C 220.3752 28.1584 220.5277 28.5659 220.7984 28.8715 C 221.069 29.1771 221.4577 29.3808 221.8995 29.4104 C 222.3413 29.4401 222.7537 29.2901 223.0627 29.0234 C 223.3718 28.7567 223.5774 28.3733 223.6067 27.9371 C 223.636 27.5009 223.4834 27.0934 223.2128 26.7878 C 222.9421 26.4822 222.5535 26.2785 222.1117 26.2488 Z " stroke-width="1.0810727986002675"/>
    <path id="ID0.9171876185573637" fill="#191009" stroke="none" d="M 221.6157 27.0682 C 221.391 27.0531 221.182 27.1295 221.0246 27.2653 C 220.8672 27.4012 220.7625 27.5955 220.7476 27.8173 C 220.7327 28.0392 220.8105 28.2457 220.9483 28.4014 C 221.0862 28.5571 221.2831 28.6607 221.5078 28.6758 C 221.7325 28.6909 221.9416 28.6145 222.099 28.4786 C 222.2564 28.3428 222.361 28.1485 222.3759 27.9266 C 222.3908 27.7048 222.3131 27.4982 222.1752 27.3426 C 222.0374 27.1869 221.8404 27.0833 221.6157 27.0682 Z " stroke-width="1.0810727986002675"/>
  </g>
  <g id="ID0.6915994533337653">
    <path id="ID0.036129117012023926" fill="#5E3B21" stroke="none" d="M 207.8117 25.5488 C 207.3699 25.5192 206.9574 25.6691 206.6484 25.9358 C 206.3394 26.2025 206.1337 26.586 206.1044 27.0222 C 206.0752 27.4584 206.2277 27.8659 206.4984 28.1715 C 206.769 28.4771 207.1577 28.6808 207.5995 28.7104 C 208.0413 28.7401 208.4537 28.5901 208.7627 28.3234 C 209.0718 28.0567 209.2774 27.6733 209.3067 27.2371 C 209.336 26.8009 209.1834 26.3934 208.9128 26.0878 C 208.6421 25.7822 208.2535 25.5785 207.8117 25.5488 Z " stroke-width="1.0810727986002675"/>
    <path id="ID0.9171876185573637" fill="#191009" stroke="none" d="M 207.3657 26.3182 C 207.141 26.3031 206.932 26.3795 206.7746 26.5153 C 206.6172 26.6512 206.5125 26.8455 206.4976 27.0673 C 206.4827 27.2892 206.5605 27.4957 206.6983 27.6514 C 206.8362 27.8071 207.0331 27.9107 207.2578 27.9258 C 207.4825 27.9409 207.6916 27.8645 207.849 27.7286 C 208.0064 27.5928 208.111 27.3985 208.1259 27.1766 C 208.1408 26.9548 208.0631 26.7482 207.9252 26.5926 C 207.7874 26.4369 207.5904 26.3333 207.3657 26.3182 Z " stroke-width="1.0810727986002675"/>
  </g>
  <path id="ID0.1913656061515212" fill="#282828" stroke="none" stroke-linecap="round" d="M 213.1851 44.605 C 214.3696 44.6962 215.6695 44.5721 216.8261 44.8607 C 217.222 44.9624 217.2338 45.3507 217.0762 45.5826 C 216.8919 45.852 216.5936 46.0171 215.8551 46.1263 C 215.1176 46.2356 214.1061 46.2645 212.9989 46.1868 C 211.8916 46.109 210.894 45.9391 210.1791 45.7278 C 209.4631 45.5164 209.1546 45.313 209.046 45.0188 C 208.9449 44.7443 209.0768 44.323 209.5496 44.27 C 210.7334 44.1575 211.9726 44.5119 213.1851 44.605 Z " stroke-width="0.8003815983903837"/>
  <path id="ID0.8256730306893587" fill="none" stroke="#675B50" stroke-width="1.098450389080839" stroke-linecap="round" d="M 208.6683 44.7317 C 208.6683 44.7317 210.0178 44.1348 210.7284 44.2208 C 211.3965 44.25 211.8617 45.0154 212.5529 45.0565 C 213.3734 45.1049 214.1143 44.4162 214.9336 44.4168 C 216.2417 44.8849 217.7468 45.363 217.7468 45.363 "/>
</svg>