<svg xmlns="http://www.w3.org/2000/svg" xmlns:xlink="http://www.w3.org/1999/xlink" version="1.1" width="130.39749153682467" height="314.4530640465903" viewBox="0.020899970189343753 -0.5653676203334224 130.39749153682467 314.4530640465903">
  <!-- Exported by Scratch - http://scratch.mit.edu/ -->
  <path id="ID0.7729651997797191" fill="#282828" stroke="none" stroke-linecap="round" d="M 10.3038 75.0059 L 34.0301 76.5343 L 29.6396 96.4142 L 24.7107 106.6074 L 22.4231 115.6121 L 19.1317 123.8459 L 2.7052 119.085 L 1.0536 112.1269 L 7.6151 88.6595 L 10.3038 75.0059 Z " stroke-width="0.9588636791095254"/>
  <path id="ID0.4757494777441025" fill="#282828" stroke="none" stroke-linecap="round" d="M 23.0861 59.2198 L 32.1201 58.3896 L 47.6363 65.6174 L 35.5529 89.5813 L 24.2842 92.969 L 19.525 93.3482 L 16.603 90.5096 L 14.1314 87.1359 L 8.7007 83.6856 L 9.3805 78.251 L 11.2912 70.3511 L 15.7802 62.5917 L 23.0861 59.2198 Z " stroke-width="0.4829924872373927"/>
  <g id="ID0.5880346246995032">
    <path id="ID0.6829322893172503" fill="#1D1E1F" stroke="none" stroke-linecap="round" d="M 109.7221 171.8586 L 119.1354 165.0915 L 123.2745 169.9809 L 128.2866 175.1367 L 129.2395 180.7719 L 129.4184 185.503 L 127.9164 188.8622 L 127.6306 195.7419 L 122.9677 196.3234 L 121.4198 194.515 L 119.7757 194.586 L 116.1132 192.5142 L 112.1813 190.0739 L 109.42 185.9865 L 109.0339 178.8064 L 109.7221 171.8586 Z " stroke-width="0.8164595974671907"/>
    <g id="ID0.9434720128774643">
      <path id="ID0.6507829907350242" fill="#282828" stroke="none" stroke-linecap="round" d="M 93.3069 108.8464 L 113.7255 115.7443 L 115.2219 132.6733 L 116.2452 145.335 L 118.9338 161.2344 L 122.392 167.7294 L 108.2764 172.6419 L 107.8024 165.1868 L 104.3575 155.8327 L 99.4639 144.0325 L 96.4399 131.0466 L 93.3069 108.8464 Z " stroke-width="0.8164595974671907"/>
      <path id="ID0.9892375003546476" fill="none" stroke="#191919" stroke-width="2.0000000817465566" stroke-linecap="round" d="M 108.612 171.7177 L 121.4646 166.7553 L 117.5823 158.7911 "/>
    </g>
  </g>
  <path id="ID0.7729651997797191" fill="#282828" stroke="none" stroke-linecap="round" d="M 114.3284 78.828 L 91.0029 74.2247 L 90.1517 94.5658 L 92.3036 105.6818 L 92.207 114.972 L 93.2783 123.7744 L 110.3763 123.3824 L 113.756 117.08 L 113.4281 92.7148 L 114.3284 78.828 Z " stroke-width="0.9588636550441055"/>
  <path id="ID0.4757494777441025" fill="#282828" stroke="none" stroke-linecap="round" d="M 105.3478 61.808 L 96.8283 58.6903 L 79.9779 61.7 L 85.516 87.9604 L 95.5401 94.1229 L 100.0433 95.7092 L 103.5952 93.7143 L 106.8488 91.0867 L 112.9824 89.1435 L 113.7181 83.7161 L 113.8959 75.5904 L 111.5454 66.9397 L 105.3478 61.808 Z " stroke-width="0.482992481961726"/>
  <g id="ID0.6660797297954559">
    <path id="ID0.5368814701214433" fill="#343434" stroke="none" stroke-linecap="round" d="M 67.2028 297.7277 L 70.0862 288.8977 L 74.5751 279.6508 L 84.5512 285.5088 L 95.8173 293.1439 L 113.2793 303.4862 L 114.3578 310.0018 L 89.6604 311.1807 L 68.4154 307.5144 L 67.2028 297.7277 Z " stroke-width="0.7702165290554439"/>
    <g id="ID0.5077062323689461">
      <path id="ID0.05466862628236413" fill="#252525" stroke="none" stroke-linecap="round" d="M 68.3016 225.4762 L 89.9943 222.0959 L 88.2584 236.7791 L 87.5161 241.7923 L 87.5096 256.2768 L 90.0103 289.528 L 68.7664 292.2982 L 67.4291 273.5496 L 65.1173 266.483 L 63.9475 258.7551 L 65.5457 247.6478 L 65.4469 237.5319 L 68.3016 225.4762 Z " stroke-width="0.5998532736063101"/>
      <path id="ID0.5319394422695041" fill="none" stroke="#131313" stroke-width="2" stroke-linecap="round" d="M 90.05 288.6 L 68.8 292.6 L 67.8 281.1 "/>
    </g>
    <g id="ID0.8820344842970371">
      <path id="ID0.3809091211296618" fill="#252525" stroke="none" stroke-linecap="round" d="M 57.0785 151.8033 L 88.7936 132.2871 L 90.0562 156.5149 L 94.0446 204.9911 L 93.562 215.7436 L 89.5609 227.0264 L 81.4676 224.8424 L 68.5144 226.1329 L 67.8531 204.371 L 66.1148 191.0681 L 57.0785 151.8033 Z " stroke-width="0.7305889665074583"/>
      <path id="ID0.9495224836282432" fill="none" stroke="#131313" stroke-width="2" stroke-linecap="round" d="M 94.05 205.1 L 94.05 213.6 L 92.05 221.6 L 83.55 226.1 L 82.55 231.1 "/>
    </g>
  </g>
  <g id="ID0.18228224432095885">
    <path id="ID0.5368814701214433" fill="#404040" stroke="none" stroke-linecap="round" d="M 28.8899 298.9519 L 31.9637 290.1863 L 36.6516 281.0387 L 46.4987 287.1112 L 57.5969 294.9883 L 74.831 305.7061 L 75.7682 312.2434 L 51.0511 312.8877 L 29.8904 308.7625 L 28.8899 298.9519 Z " stroke-width="0.7702165249851639"/>
    <g id="ID0.5077062323689461">
      <path id="ID0.05466862628236413" fill="#252525" stroke="none" stroke-linecap="round" d="M 32.8416 226.1183 L 54.6698 223.766 L 52.2424 238.351 L 51.2643 243.3235 L 50.5739 257.7916 L 51.5018 291.1237 L 30.1508 292.8878 L 29.7002 274.097 L 27.7247 266.9291 L 26.921 259.1545 L 29.0419 248.1351 L 29.4209 238.0258 L 32.8416 226.1183 Z " stroke-width="0.5998532668114317"/>
      <path id="ID0.5319394422695041" fill="none" stroke="#131313" stroke-width="1.9999999924153835" stroke-linecap="round" d="M 51.5982 290.1754 L 30.1831 293.1676 L 29.7272 281.6332 "/>
    </g>
    <g id="ID0.8820344842970371">
      <path id="ID0.3809091211296618" fill="#252525" stroke="none" stroke-linecap="round" d="M 30.3068 149.4403 L 57.8169 133.9934 L 57.9342 158.2537 L 59.6293 206.8642 L 58.6395 217.5819 L 54.1102 228.6632 L 46.129 226.0995 L 32.5827 228.115 L 30.6896 205.0026 L 29.7717 191.9458 L 30.3068 149.4403 Z " stroke-width="0.7305889820079058"/>
      <path id="ID0.9495224836282432" fill="none" stroke="#131313" stroke-width="1.9999999924153835" stroke-linecap="round" d="M 59.5363 206.9574 L 59.135 215.4479 L 56.7595 223.3446 L 48.0565 227.4382 L 46.8215 232.3854 "/>
    </g>
  </g>
  <g id="ID0.8990198895335197">
    <path id="ID0.17576928716152906" fill="#DBDBDB" stroke="none" d="M 62.55 54.6 L 62.3 54.6 L 62.3 54.6 L 62.55 54.6 L 62.55 54.6 Z " stroke-width="1"/>
    <path id="ID0.4270821204409003" fill="#252525" stroke="none" stroke-linecap="round" d="M 60.3901 176.6011 L 60.1361 63.8448 L 77.4913 66.3245 L 84.305 70.7522 L 87.0772 74.8578 L 93.8615 86.4286 L 92.93 96.8866 L 91.8642 102.3413 L 93.387 109.2785 L 93.7494 114.7629 L 91.4639 121.621 L 89.7366 126.8238 L 88.3537 136.0818 L 89.3985 158.0108 L 84.0868 166.1158 L 79.1736 172.2287 L 60.3901 176.6011 Z " stroke-width="0.47614257300029306"/>
    <path id="ID0.4270821204409003" fill="#252525" stroke="none" stroke-linecap="round" d="M 60.5099 176.7511 L 60.7639 63.9948 L 43.4087 66.4745 L 36.595 70.9022 L 33.8228 75.0078 L 27.0385 86.5786 L 27.97 97.0366 L 29.0358 102.4913 L 27.513 109.4285 L 27.1506 114.9129 L 29.4361 121.771 L 31.1634 126.9738 L 32.5463 136.2318 L 31.5015 158.1608 L 36.8132 166.2658 L 41.7264 172.3787 L 60.5099 176.7511 Z " stroke-width="0.47614257300029306"/>
    <path id="ID0.5114514343440533" fill="#282828" stroke="none" d="M 34.2326 65.1777 L 87.2326 65.1777 L 87.2326 153.4277 L 34.2326 153.4277 L 34.2326 65.1777 Z " stroke-width="1.0073066040733152"/>
    <path id="ID0.9286923445761204" fill="#D4D4D4" stroke="none" stroke-linecap="round" d="M 50.3867 51.4723 L 67.6707 32.7361 L 60.5523 51.6152 L 61.8141 92.0873 L 23.8656 63.0426 L 44.0064 52.2341 L 50.3867 51.4723 Z " stroke-width="0.4761425852775574"/>
    <path id="ID0.9286923445761204" fill="#D4D4D4" stroke="none" stroke-linecap="round" d="M 66.7636 50.3653 L 52.9793 32.9861 L 60.0977 51.8652 L 61.3118 91.8611 L 96.7844 63.2926 L 77.0007 51.4842 L 66.7636 50.3653 Z " stroke-width="0.4761425852775574"/>
    <path id="ID0.39874776685610414" fill="#C3C3C3" stroke="none" stroke-linecap="round" d="M 42.0977 53.164 L 61.9674 63.0348 L 79.8354 54.0738 L 83.8386 56.2117 L 61.7721 66.8102 L 38.3386 55.12 L 42.0977 53.164 Z " stroke-width="0.943659350131214"/>
    <path id="ID0.13444371055811644" fill="#1F1F1F" stroke="none" stroke-linecap="round" d="M 59.55 64.85 L 64.8 64.6 L 67.6 93.1 L 55.55 93.6 L 59.55 64.85 Z " stroke-width="1"/>
    <path id="ID0.751046194229275" fill="#191919" stroke="none" stroke-linecap="round" d="M 57.265 59.935 L 61.94 57.9 L 66.45 59.935 L 66.89 67.91 L 62.49 68.9 L 57.265 67.91 L 57.265 59.935 Z " stroke-width="1.100000023841858"/>
    <path id="ID0.7854711129330099" fill="#282828" stroke="none" stroke-linecap="round" d="M 48.3 81.6 L 62.3 90.35 L 76.05 80.6 L 74.05 98.1 L 50.8 98.1 L 48.3 81.6 Z " stroke-width="1"/>
    <path id="ID0.562834897544235" fill="#282828" stroke="none" stroke-linecap="round" d="M 31.55 153.1 L 61.8 147.35 L 61.8 167.6 L 48.05 168.85 L 31.55 153.1 Z " stroke-width="1"/>
    <path id="ID0.562834897544235" fill="#282828" stroke="none" stroke-linecap="round" d="M 92.5 153.35 L 62.25 147.6 L 62.25 167.85 L 76 169.1 L 92.5 153.35 Z " stroke-width="1"/>
    <path id="ID0.6824178956449032" fill="none" stroke="#191919" stroke-width="2" stroke-linecap="round" d="M 62.05 90.6 L 61.8 167.35 "/>
    <path id="ID0.4144489667378366" fill="#313131" stroke="none" stroke-linecap="round" d="M 23.3 60.1 L 43.55 52.1 L 40.55 73.85 L 43.8 133.85 L 34.3 178.6 L 23.3 173.6 L 23.05 177.1 L 26.05 129.1 L 21.3 85.85 L 20.3 69.6 L 23.3 60.1 Z " stroke-width="1"/>
    <path id="ID0.5234400681219995" fill="#101010" stroke="none" d="M 64.2662 96.3125 C 64.6789 96.3125 65.0531 96.4801 65.324 96.751 C 65.5949 97.0219 65.7625 97.3961 65.7625 97.8087 C 65.7625 98.2214 65.5949 98.5956 65.324 98.8665 C 65.0531 99.1374 64.6789 99.305 64.2662 99.305 C 63.8536 99.305 63.4794 99.1374 63.2085 98.8665 C 62.9376 98.5956 62.77 98.2214 62.77 97.8087 C 62.77 97.3961 62.9376 97.0219 63.2085 96.751 C 63.4794 96.4801 63.8536 96.3125 64.2662 96.3125 Z " stroke-width="0.6299999952316284"/>
    <path id="ID0.5234400681219995" fill="#101010" stroke="none" d="M 64.2662 109.9125 C 64.6789 109.9125 65.0531 110.0801 65.324 110.351 C 65.5949 110.6219 65.7625 110.9961 65.7625 111.4087 C 65.7625 111.8214 65.5949 112.1956 65.324 112.4665 C 65.0531 112.7374 64.6789 112.905 64.2662 112.905 C 63.8536 112.905 63.4794 112.7374 63.2085 112.4665 C 62.9376 112.1956 62.77 111.8214 62.77 111.4087 C 62.77 110.9961 62.9376 110.6219 63.2085 110.351 C 63.4794 110.0801 63.8536 109.9125 64.2662 109.9125 Z " stroke-width="0.6299999952316284"/>
    <path id="ID0.5234400681219995" fill="#101010" stroke="none" d="M 64.2662 141.4125 C 64.6789 141.4125 65.0531 141.5801 65.324 141.851 C 65.5949 142.1219 65.7625 142.4961 65.7625 142.9087 C 65.7625 143.3214 65.5949 143.6956 65.324 143.9665 C 65.0531 144.2374 64.6789 144.405 64.2662 144.405 C 63.8536 144.405 63.4794 144.2374 63.2085 143.9665 C 62.9376 143.6956 62.77 143.3214 62.77 142.9087 C 62.77 142.4961 62.9376 142.1219 63.2085 141.851 C 63.4794 141.5801 63.8536 141.4125 64.2662 141.4125 Z " stroke-width="0.6299999952316284"/>
    <path id="ID0.5234400681219995" fill="#101010" stroke="none" d="M 64.2662 126.6625 C 64.6789 126.6625 65.0531 126.8301 65.324 127.101 C 65.5949 127.3719 65.7625 127.7461 65.7625 128.1587 C 65.7625 128.5714 65.5949 128.9456 65.324 129.2165 C 65.0531 129.4874 64.6789 129.655 64.2662 129.655 C 63.8536 129.655 63.4794 129.4874 63.2085 129.2165 C 62.9376 128.9456 62.77 128.5714 62.77 128.1587 C 62.77 127.7461 62.9376 127.3719 63.2085 127.101 C 63.4794 126.8301 63.8536 126.6625 64.2662 126.6625 Z " stroke-width="0.6299999952316284"/>
    <path id="ID0.5234400681219995" fill="#101010" stroke="none" d="M 64.1662 155.4125 C 64.5789 155.4125 64.9531 155.5801 65.224 155.851 C 65.4949 156.1219 65.6625 156.4961 65.6625 156.9087 C 65.6625 157.3214 65.4949 157.6956 65.224 157.9665 C 64.9531 158.2374 64.5789 158.405 64.1662 158.405 C 63.7536 158.405 63.3794 158.2374 63.1085 157.9665 C 62.8376 157.6956 62.67 157.3214 62.67 156.9087 C 62.67 156.4961 62.8376 156.1219 63.1085 155.851 C 63.3794 155.5801 63.7536 155.4125 64.1662 155.4125 Z " stroke-width="0.6299999952316284"/>
    <path id="ID0.4144489667378366" fill="#313131" stroke="none" stroke-linecap="round" d="M 96.85 59.25 L 76.6 51.25 L 79.6 73 L 76.35 133 L 85.85 177.75 L 96.85 172.75 L 97.1 176.25 L 94.1 128.25 L 98.85 85 L 99.85 68.75 L 96.85 59.25 Z " stroke-width="1"/>
    <path id="ID0.8752945330925286" fill="none" stroke="#222222" stroke-width="2" stroke-linecap="round" d="M 23.8 60.35 L 20.55 68.1 L 23.8 105.85 "/>
    <path id="ID0.8752945330925286" fill="none" stroke="#222222" stroke-width="2" stroke-linecap="round" d="M 97.05 59.85 L 100.3 67.6 L 97.05 105.35 "/>
    <path id="ID0.5234400681219995" fill="#101010" stroke="none" d="M 41.1662 142.0625 C 41.5789 142.0625 41.9531 142.2301 42.224 142.501 C 42.4949 142.7719 42.6625 143.1461 42.6625 143.5587 C 42.6625 143.9714 42.4949 144.3456 42.224 144.6165 C 41.9531 144.8874 41.5789 145.055 41.1662 145.055 C 40.7536 145.055 40.3794 144.8874 40.1085 144.6165 C 39.8376 144.3456 39.67 143.9714 39.67 143.5587 C 39.67 143.1461 39.8376 142.7719 40.1085 142.501 C 40.3794 142.2301 40.7536 142.0625 41.1662 142.0625 Z " stroke-width="0.6299999952316284"/>
    <path id="ID0.5234400681219995" fill="#101010" stroke="none" d="M 39.7662 149.3125 C 40.1789 149.3125 40.5531 149.4801 40.824 149.751 C 41.0949 150.0219 41.2625 150.3961 41.2625 150.8087 C 41.2625 151.2214 41.0949 151.5956 40.824 151.8665 C 40.5531 152.1374 40.1789 152.305 39.7662 152.305 C 39.3536 152.305 38.9794 152.1374 38.7085 151.8665 C 38.4376 151.5956 38.27 151.2214 38.27 150.8087 C 38.27 150.3961 38.4376 150.0219 38.7085 149.751 C 38.9794 149.4801 39.3536 149.3125 39.7662 149.3125 Z " stroke-width="0.6299999952316284"/>
    <g id="ID0.20783481979742646">
      <path id="ID0.5848579816520214" fill="#737373" stroke="none" stroke-linecap="round" d="M 86.25 87.7 L 93.1 86.2 L 93 90.1 L 85.75 90.6 L 86.25 87.7 Z " stroke-width="1"/>
      <path id="ID0.13105127029120922" fill="none" stroke="#222222" stroke-width="2" stroke-linecap="round" d="M 84.4 90.85 L 88.9 90.85 L 94.15 89.35 "/>
    </g>
  </g>
  <path id="ID0.46110434643924236" fill="#D8BFA7" stroke="none" stroke-linecap="round" d="M 48.7948 33.05 L 71.4095 33.05 L 71.877 52 L 65.6828 54.85 L 48.7948 53.15 L 48.7948 33.05 Z " stroke-width="1.0876357641452272"/>
  <g id="ID0.9046455742791295">
    <path id="ID0.8999492498114705" fill="#EDD2B8" stroke="none" stroke-linecap="round" d="M 69.8527 3.7063 C 74.2545 4.2071 78.9729 6.9409 81.0859 10.8343 C 83.4969 15.2795 81.5931 20.8616 81.7964 25.8653 C 81.8966 27.6058 82.1172 29.4247 81.6686 31.1737 C 81.1465 34.3271 79.9443 37.3308 78.93 40.4573 C 78.2474 42.5649 78.0449 44.9004 76.8665 46.7977 C 75.5395 49.0438 74.1813 52.1712 71.5794 52.614 C 67.7222 53.2701 63.6548 51.4088 60.214 49.6365 C 57.3873 48.1802 54.7448 45.9551 53.1842 43.175 C 50.39 38.0162 47.8571 32.3436 47.5006 26.4577 C 47.1056 19.9329 46.3753 11.8631 51.1523 7.1701 C 55.427 2.6498 63.3093 2.9647 69.8527 3.7063 Z " stroke-width="0.5080372440965792"/>
    <path id="ID0.8194515448994935" fill="#EDD2B8" stroke="none" stroke-linecap="round" d="M 47.4742 21.092 C 48.3278 21.1832 48.943 21.7553 49.4447 22.8168 C 49.9465 23.8782 50.2532 25.3418 50.2453 26.9558 C 50.2373 28.5697 49.916 30.0302 49.4038 31.0867 C 48.8916 32.1431 48.2699 32.6821 47.4163 32.7918 C 46.6328 32.891 45.629 32.457 45.2713 31.7812 C 44.5997 30.2799 44.7285 28.5035 44.6453 26.9281 C 44.563 25.3796 44.2114 23.6759 44.8183 22.2789 C 45.3015 21.4272 46.5797 20.9966 47.4742 21.092 Z " stroke-width="0.9999999684175601"/>
    <path id="ID0.5768358684144914" fill="#2E3234" stroke="none" d="M 46.5318 17.9359 L 52.5317 17.9656 L 52.5228 19.7656 L 46.5229 19.7359 L 46.5318 17.9359 Z " stroke-width="0.9999999684175601"/>
    <path id="ID0.3245162623934448" fill="#54595E" stroke="none" stroke-linecap="round" d="M 68.1349 4.7424 C 71.3909 4.7585 74.3278 7.4011 76.4428 11.6566 C 78.5578 15.9121 79.2815 22.6367 79.8187 28.2505 C 80.3674 33.9823 82.2385 40.2296 79.8836 45.451 C 78.0687 49.4741 73.1076 52.5206 68.5974 52.7453 C 64.3383 52.9612 59.2116 50.4658 57.2277 46.5889 C 54.4248 41.11 55.7744 34.3326 56.219 28.1337 C 56.6229 22.5096 57.602 15.8084 59.759 11.574 C 61.916 7.3396 64.8789 4.7263 68.1349 4.7424 Z " stroke-width="0.9999999684175601"/>
    <path id="ID0.8999492498114705" fill="#54595E" stroke="none" stroke-linecap="round" d="M 71.7397 1.0982 C 75.9842 2.3665 80.8599 4.3329 82.9728 8.2263 C 85.3839 12.6714 82.8843 18.3105 83.6834 23.2572 C 83.9994 25.2112 86.4666 26.7313 86.3486 28.8081 C 86.153 31.4799 84.0312 33.6688 82.8321 36.1573 C 81.5273 38.8587 80.3777 41.7138 78.7534 44.1896 C 77.3186 46.3783 75.8248 48.873 73.4664 50.006 C 71.6504 50.8769 69.0354 51.1109 67.4721 49.8747 C 66.2292 48.8921 67.3833 46.6812 67.013 45.1222 C 66.6943 43.1992 65.4074 41.4599 65.4152 39.475 C 65.439 33.9507 67.3309 28.524 67.3765 22.9987 C 67.4264 16.9228 67.7921 10.6772 65.8399 4.981 C 65.0932 2.8019 58.8803 2.1991 59.9636 1.548 C 61.6434 0.3807 67.9791 -0.0254 71.7397 1.0982 Z " stroke-width="0.5080372440965792"/>
    <path id="ID0.8999492498114705" fill="#54595E" stroke="none" stroke-linecap="round" d="M 60.4302 1.4523 C 56.6423 2.565 52.4184 4.5142 50.5162 8.0332 C 48.1993 12.2939 49.4827 17.7022 48.9459 22.5047 C 48.7476 24.2681 47.6749 26.074 48.0562 27.7585 C 48.6152 30.0896 50.7194 31.8518 51.3776 34.1509 C 52.2841 37.3179 51.5112 40.9471 52.828 43.9379 C 53.883 46.333 55.7101 48.65 58.0572 49.8063 C 59.8645 50.6951 62.477 50.955 64.0524 49.7343 C 65.305 48.7641 64.1729 46.5419 64.5586 44.9866 C 64.8963 43.0669 66.2003 41.3404 66.2122 39.3555 C 66.2431 33.8312 64.405 28.3861 64.414 22.8606 C 64.4243 16.7845 64.579 10.6765 66.1288 4.859 C 66.5465 3.2952 71.2356 2.6133 70.2835 2.0091 C 68.3989 0.8241 63.585 0.4493 60.4302 1.4523 Z " stroke-width="0.5080372440965792"/>
    <path id="ID0.45774566335603595" fill="#54595E" stroke="none" stroke-linecap="round" d="M 68.4013 36.631 C 70.5053 36.6414 72.039 37.913 73.781 38.7237 C 75.3694 39.4635 78.3736 39.6164 78.3527 41.4303 C 78.3506 44.2623 75.8536 46.694 73.7317 48.6915 C 72.3321 50.0086 70.4355 50.7413 68.3315 50.7308 C 66.2275 50.7204 64.4287 49.8685 62.9518 48.6382 C 60.9082 46.9371 58.2901 44.9331 58.348 42.3314 C 58.3128 40.3392 61.2403 39.6366 63.0011 38.6703 C 64.6857 37.7447 66.2973 36.6206 68.4013 36.631 Z " stroke-width="0.9999999684175601"/>
    <path id="ID0.6934182443656027" fill="#54595E" stroke="none" stroke-linecap="round" d="M 54.2069 31.0065 L 67.4365 35.172 L 81.5586 30.7418 L 78.5252 37.4769 L 78.003 41.9743 L 58.15 42.5261 L 57.0304 36.3705 L 54.2069 31.0065 Z " stroke-width="0.9999999684175601"/>
    <path id="ID0.6236958587542176" fill="#3B4043" stroke="none" stroke-linecap="round" d="M 60.6441 27.7209 L 76.3942 27.7488 L 75.6566 35.3453 L 76.1222 42.2977 L 73.32 52.8339 L 63.7199 52.8364 L 60.2194 42.819 L 61.157 35.2235 L 60.6441 27.7209 Z " stroke-width="0.9999999684175601"/>
    <path id="ID0.6043254472315311" fill="#3B4043" stroke="none" stroke-linecap="round" d="M 53.4768 5.0216 L 58.2409 2.1952 L 62.9631 7.8186 L 69.4576 8.9507 L 68.1121 28.2443 L 65.4481 31.0812 L 60.0999 30.7047 L 56.5603 28.5872 L 54.9796 24.6793 L 56.5117 18.1868 L 53.4768 5.0216 Z " stroke-width="0.9999999684175601"/>
    <path id="ID0.6043254472315311" fill="#3B4043" stroke="none" stroke-linecap="round" d="M 82.0672 6.8243 L 79.9796 4.314 L 77.2354 3.1504 L 73.0622 7.8298 L 66.5568 8.8976 L 67.7113 28.2036 L 70.3472 31.0666 L 75.6988 30.7431 L 80.2087 28.7654 L 80.8784 24.7687 L 79.4106 18.2613 L 82.0672 6.8243 Z " stroke-width="0.9999999684175601"/>
    <path id="ID0.9914007503539324" fill="#33383A" stroke="none" d="M 66.0931 35.3988 L 64.5013 23.6408 L 70.9497 23.9727 L 71.1933 35.3741 L 66.0931 35.3988 Z " stroke-width="0.9999999684175601"/>
    <path id="ID0.28340246016159654" fill="#D8BFA7" stroke="none" stroke-linecap="round" d="M 54.2801 21.7406 L 61.0998 21.8676 L 65.5316 24.1607 L 66.392 27.5872 L 64.9944 29.7892 L 61.4834 30.1452 L 58.7408 29.6338 L 56.6505 28.8457 L 54.5366 27.093 L 53.6409 25.0974 L 54.2801 21.7406 Z " stroke-width="0.5947752175194816"/>
    <path id="ID0.28340246016159654" fill="#D8BFA7" stroke="none" stroke-linecap="round" d="M 82.7558 21.9001 L 75.9352 21.9596 L 71.4809 24.2087 L 70.5867 27.6266 L 71.9625 29.8423 L 75.4697 30.233 L 78.2173 29.7488 L 80.3153 28.9814 L 82.4464 27.2497 L 83.3618 25.2631 L 82.7558 21.9001 Z " stroke-width="0.5947752175194816"/>
    <path id="ID0.17377300979569554" fill="#FFFFFF" stroke="none" stroke-linecap="round" d="M 58.185 25.5715 L 59.0961 24.7455 L 61.3841 24.5726 L 63.6335 25.1893 L 64.0761 27.1423 L 61.4395 26.9973 L 58.185 25.5715 Z " stroke-width="0.9999999271447982"/>
    <path id="ID0.17377300979569554" fill="#FFFFFF" stroke="none" stroke-linecap="round" d="M 80.0303 25.722 L 79.1273 24.887 L 76.8411 24.6915 L 74.5858 25.2859 L 74.1239 27.2344 L 76.7618 27.1156 L 80.0303 25.722 Z " stroke-width="0.9999999503302808"/>
    <path id="ID0.44800941413268447" fill="none" stroke="#33383A" stroke-width="1.0503597168332512" stroke-linecap="round" d="M 67.2249 28.2086 L 65.6182 23.8942 L 61.2451 21.4304 L 54.6797 21.5292 "/>
    <path id="ID0.12448931112885475" fill="#33383A" stroke="none" stroke-linecap="round" d="M 66.311 33.7508 L 71.1105 33.8746 L 72.0449 37.0292 L 68.9375 38.5139 L 65.4452 36.9466 L 66.311 33.7508 Z " stroke-width="0.9999999684175601"/>
    <path id="ID0.44800941413268447" fill="none" stroke="#33383A" stroke-width="1.0503597180348225" stroke-linecap="round" d="M 66.1408 24.5848 L 66.9558 22.021 L 65.5274 18.6494 "/>
    <path id="ID0.44800941413268447" fill="none" stroke="#33383A" stroke-width="1.0503597216687746" stroke-linecap="round" d="M 70.5852 24.5 L 69.7957 21.9283 L 71.2574 18.571 "/>
    <g id="ID0.32985211815685034">
      <g id="ID0.08651347272098064">
        <g id="ID0.07771636918187141">
          <path id="ID0.7001032647676766" fill="none" stroke="#646B70" stroke-width="0.5238094784774786" stroke-linecap="round" d="M 60.0194 39.7652 C 60.0194 39.7652 59.9532 40.1328 59.9119 40.3146 C 59.8731 40.4857 59.7167 40.6604 59.7785 40.8247 C 59.8423 40.9947 60.0498 41.0843 60.2221 41.1412 C 60.3879 41.1957 60.5715 41.1408 60.7459 41.1438 C 60.9203 41.1467 61.1846 41.3117 61.2697 41.1595 C 61.4737 40.7951 61.433 39.9162 61.433 39.9162 "/>
          <path id="ID0.7001032647676766" fill="none" stroke="#646B70" stroke-width="0.5238094784774786" stroke-linecap="round" d="M 61.5327 39.7749 C 61.5327 39.7749 61.4664 40.1426 61.4252 40.3244 C 61.3864 40.4955 61.2299 40.6702 61.2917 40.8345 C 61.3555 41.0045 61.5631 41.094 61.7354 41.1509 C 61.9012 41.2055 62.0848 41.1506 62.2592 41.1535 C 62.4336 41.1565 62.6978 41.3215 62.7829 41.1692 C 62.9869 40.8049 62.9462 39.926 62.9462 39.926 "/>
        </g>
        <g id="ID0.07771636918187141">
          <path id="ID0.7001032647676766" fill="none" stroke="#646B70" stroke-width="0.5238094784774786" stroke-linecap="round" d="M 63.0711 39.9831 C 63.0711 39.9831 63.0048 40.3507 62.9636 40.5326 C 62.9247 40.7037 62.7683 40.8784 62.8301 41.0426 C 62.8939 41.2126 63.1015 41.3022 63.2738 41.3591 C 63.4396 41.4136 63.6232 41.3587 63.7976 41.3617 C 63.972 41.3647 64.2362 41.5297 64.3213 41.3774 C 64.5253 41.013 64.4846 40.1341 64.4846 40.1341 "/>
          <path id="ID0.7001032647676766" fill="none" stroke="#646B70" stroke-width="0.5238094784774786" stroke-linecap="round" d="M 64.5906 40.0424 C 64.5906 40.0424 64.5243 40.4101 64.4831 40.5919 C 64.4443 40.763 64.2878 40.9377 64.3496 41.102 C 64.4135 41.272 64.621 41.3616 64.7933 41.4185 C 64.9591 41.473 65.1427 41.4181 65.3171 41.421 C 65.4915 41.424 65.7558 41.589 65.8408 41.4367 C 66.0448 41.0724 66.0041 40.1935 66.0041 40.1935 "/>
        </g>
        <path id="ID0.7001032647676766" fill="none" stroke="#646B70" stroke-width="0.5238094592272476" stroke-linecap="round" d="M 66.1054 40.1508 C 66.1054 40.1508 66.0781 40.5233 66.0561 40.7085 C 66.0354 40.8827 65.8982 41.0728 65.9768 41.2297 C 66.0582 41.3921 66.2739 41.4594 66.4512 41.4979 C 66.6218 41.5348 66.7987 41.461 66.9724 41.4456 C 67.1462 41.4303 67.4263 41.5667 67.4949 41.4063 C 67.6596 41.0226 67.527 40.1528 67.527 40.1528 "/>
      </g>
      <g id="ID0.08651347272098064">
        <g id="ID0.07771636918187141">
          <path id="ID0.7001032647676766" fill="none" stroke="#646B70" stroke-width="0.5238094784774786" stroke-linecap="round" d="M 75.1775 39.7939 C 75.1775 39.7939 75.2401 40.1622 75.2796 40.3444 C 75.3167 40.5159 75.4714 40.6921 75.408 40.8558 C 75.3425 41.0251 75.1341 41.1126 74.9612 41.1678 C 74.7949 41.2207 74.6118 41.164 74.4374 41.1652 C 74.263 41.1665 73.9971 41.3289 73.9135 41.1757 C 73.7132 40.8094 73.7625 39.9309 73.7625 39.9309 "/>
          <path id="ID0.7001032647676766" fill="none" stroke="#646B70" stroke-width="0.5238094784774786" stroke-linecap="round" d="M 73.7139 39.7778 C 73.7139 39.7778 73.7765 40.1461 73.8159 40.3284 C 73.8531 40.4998 74.0078 40.6761 73.9443 40.8397 C 73.8788 41.0091 73.6704 41.0966 73.4976 41.1518 C 73.3313 41.2047 73.1482 41.148 72.9738 41.1492 C 72.7993 41.1504 72.5335 41.3128 72.4499 41.1597 C 72.2495 40.7934 72.2989 39.9149 72.2989 39.9149 "/>
        </g>
        <g id="ID0.07771636918187141">
          <path id="ID0.7001032647676766" fill="none" stroke="#646B70" stroke-width="0.5238094784774786" stroke-linecap="round" d="M 71.9778 39.998 C 71.9778 39.998 72.0404 40.3662 72.0798 40.5485 C 72.117 40.7199 72.2717 40.8962 72.2082 41.0598 C 72.1427 41.2292 71.9343 41.3167 71.7615 41.3719 C 71.5951 41.4248 71.4121 41.3681 71.2377 41.3693 C 71.0632 41.3705 70.7974 41.5329 70.7138 41.3798 C 70.5134 41.0135 70.5628 40.135 70.5628 40.135 "/>
          <path id="ID0.7001032647676766" fill="none" stroke="#646B70" stroke-width="0.5238094784774786" stroke-linecap="round" d="M 70.5204 40.0315 C 70.5204 40.0315 70.583 40.3998 70.6225 40.582 C 70.6596 40.7535 70.8143 40.9297 70.7509 41.0934 C 70.6854 41.2628 70.477 41.3503 70.3041 41.4055 C 70.1378 41.4583 69.9547 41.4016 69.7803 41.4029 C 69.6059 41.4041 69.34 41.5665 69.2564 41.4134 C 69.0561 41.047 69.1055 40.1686 69.1055 40.1686 "/>
        </g>
        <path id="ID0.7001032647676766" fill="none" stroke="#646B70" stroke-width="0.523809515053296" stroke-linecap="round" d="M 69.0258 40.1829 C 69.0258 40.1829 69.0495 40.5557 69.0696 40.7411 C 69.0886 40.9155 69.2239 41.107 69.1437 41.2631 C 69.0608 41.4246 68.8444 41.4898 68.6667 41.5266 C 68.4958 41.5617 68.3197 41.4862 68.146 41.4691 C 67.9724 41.4521 67.691 41.5857 67.624 41.4246 C 67.4631 41.0393 67.6043 40.1709 67.6043 40.1709 "/>
      </g>
    </g>
    <path id="ID0.7001032647676766" fill="none" stroke="#646B70" stroke-width="0.523809538544631" stroke-linecap="round" d="M 60.3245 42.7973 C 60.3245 42.7973 60.2619 42.429 60.2225 42.2468 C 60.1854 42.0753 60.0307 41.8991 60.0941 41.7354 C 60.1596 41.566 60.368 41.4786 60.5409 41.4234 C 60.7072 41.3705 60.8902 41.4272 61.0647 41.426 C 61.2391 41.4247 61.505 41.2623 61.5885 41.4155 C 61.7889 41.7818 61.7395 42.6603 61.7395 42.6603 "/>
    <path id="ID0.7001032647676766" fill="none" stroke="#646B70" stroke-width="0.523809538544631" stroke-linecap="round" d="M 61.8315 42.7575 C 61.8315 42.7575 61.7689 42.3892 61.7295 42.2069 C 61.6923 42.0355 61.5376 41.8592 61.601 41.6956 C 61.6666 41.5262 61.875 41.4387 62.0478 41.3835 C 62.2141 41.3306 62.3972 41.3873 62.5716 41.3861 C 62.7461 41.3849 63.0119 41.2225 63.0955 41.3756 C 63.2959 41.742 63.2465 42.6204 63.2465 42.6204 "/>
    <g id="ID0.07771636918187141">
      <path id="ID0.7001032647676766" fill="none" stroke="#646B70" stroke-width="0.523809538544631" stroke-linecap="round" d="M 62.8613 42.9293 C 62.8613 42.9293 62.7987 42.561 62.7593 42.3788 C 62.7221 42.2073 62.5674 42.0311 62.6308 41.8674 C 62.6964 41.698 62.9047 41.6105 63.0776 41.5554 C 63.2439 41.5025 63.427 41.5592 63.6014 41.5579 C 63.7759 41.5567 64.0417 41.3943 64.1253 41.5474 C 64.3257 41.9138 64.2763 42.7923 64.2763 42.7923 "/>
      <path id="ID0.7001032647676766" fill="none" stroke="#646B70" stroke-width="0.523809538544631" stroke-linecap="round" d="M 64.3557 42.7902 C 64.3557 42.7902 64.2931 42.422 64.2536 42.2397 C 64.2165 42.0683 64.0618 41.892 64.1252 41.7284 C 64.1907 41.559 64.3991 41.4715 64.572 41.4163 C 64.7383 41.3634 64.9214 41.4201 65.0958 41.4189 C 65.2702 41.4177 65.5361 41.2553 65.6197 41.4084 C 65.82 41.7747 65.7707 42.6532 65.7707 42.6532 "/>
    </g>
    <path id="ID0.7001032647676766" fill="none" stroke="#646B70" stroke-width="0.5238095747474386" stroke-linecap="round" d="M 66.3407 42.9295 C 66.3407 42.9295 66.3171 42.5567 66.2969 42.3713 C 66.278 42.1969 66.1426 42.0054 66.2228 41.8493 C 66.3057 41.6877 66.5222 41.6226 66.6999 41.5858 C 66.8708 41.5507 67.0469 41.6262 67.2205 41.6433 C 67.3941 41.6603 67.6755 41.5267 67.7426 41.6877 C 67.9035 42.0731 67.7623 42.9415 67.7623 42.9415 "/>
    <path id="ID0.7001032647676766" fill="none" stroke="#646B70" stroke-width="0.523809538544631" stroke-linecap="round" d="M 75.9165 42.6702 C 75.9165 42.6702 75.9827 42.3026 76.024 42.1208 C 76.0628 41.9497 76.2192 41.775 76.1575 41.6107 C 76.0936 41.4407 75.8861 41.3511 75.7138 41.2942 C 75.548 41.2397 75.3644 41.2946 75.19 41.2916 C 75.0156 41.2887 74.7513 41.1237 74.6662 41.2759 C 74.4622 41.6403 74.5029 42.5192 74.5029 42.5192 "/>
    <path id="ID0.7001032647676766" fill="none" stroke="#646B70" stroke-width="0.523809538544631" stroke-linecap="round" d="M 74.4529 42.6542 C 74.4529 42.6542 74.5191 42.2865 74.5603 42.1047 C 74.5992 41.9336 74.7556 41.7589 74.6938 41.5947 C 74.63 41.4246 74.4225 41.3351 74.2501 41.2782 C 74.0844 41.2237 73.9008 41.2785 73.7263 41.2756 C 73.5519 41.2726 73.2877 41.1076 73.2026 41.2599 C 72.9986 41.6242 73.0393 42.5031 73.0393 42.5031 "/>
    <path id="ID0.7001032647676766" fill="none" stroke="#646B70" stroke-width="0.523809538544631" stroke-linecap="round" d="M 72.6979 42.7255 C 72.6979 42.7255 72.7641 42.3578 72.8054 42.176 C 72.8442 42.0049 73.0006 41.8302 72.9388 41.6659 C 72.875 41.4959 72.6675 41.4064 72.4952 41.3495 C 72.3294 41.295 72.1458 41.3498 71.9714 41.3469 C 71.797 41.3439 71.5327 41.1789 71.4476 41.3312 C 71.2436 41.6955 71.2843 42.5744 71.2843 42.5744 "/>
    <path id="ID0.7001032647676766" fill="none" stroke="#646B70" stroke-width="0.523809538544631" stroke-linecap="round" d="M 71.2035 42.8645 C 71.2035 42.8645 71.2698 42.4969 71.311 42.3151 C 71.3498 42.144 71.5063 41.9693 71.4445 41.805 C 71.3806 41.635 71.1731 41.5454 71.0008 41.4885 C 70.835 41.434 70.6514 41.4889 70.477 41.4859 C 70.3026 41.483 70.0383 41.318 69.9533 41.4702 C 69.7493 41.8346 69.79 42.7135 69.79 42.7135 "/>
    <path id="ID0.7001032647676766" fill="none" stroke="#646B70" stroke-width="0.5238095189329721" stroke-linecap="round" d="M 69.4658 42.9861 C 69.4658 42.9861 69.4932 42.6135 69.5151 42.4284 C 69.5358 42.2541 69.6731 42.064 69.5944 41.9071 C 69.5131 41.7447 69.2973 41.6774 69.12 41.6389 C 68.9494 41.602 68.7726 41.6759 68.5988 41.6912 C 68.425 41.7065 68.145 41.5701 68.0763 41.7305 C 67.9116 42.1142 68.0442 42.984 68.0442 42.984 "/>
    <path id="ID0.44800941413268447" fill="none" stroke="#2E3234" stroke-width="0.6130029035450194" stroke-linecap="round" d="M 71.1713 34.2214 L 69.3702 32.911 L 66.0594 33.9387 "/>
    <path id="ID0.44800941413268447" fill="none" stroke="#33383A" stroke-width="1.0503597168332512" stroke-linecap="round" d="M 69.6669 28.174 L 71.3162 23.8756 L 75.7135 21.4553 L 82.2775 21.6191 "/>
    <g id="ID0.6897007944062352">
      <path id="ID0.2692581438459456" fill="#7AABFF" stroke="none" d="M 78.06 24.8145 C 77.7417 24.722 77.4165 24.768 77.1474 24.916 C 76.8784 25.0639 76.6653 25.3138 76.5729 25.6321 C 76.4804 25.9504 76.5264 26.2756 76.6743 26.5446 C 76.8223 26.8137 77.0722 27.0268 77.3905 27.1192 C 77.7088 27.2117 78.0339 27.1657 78.303 27.0177 C 78.5721 26.8698 78.7852 26.6199 78.8776 26.3016 C 78.9701 25.9833 78.9241 25.6582 78.7761 25.3891 C 78.6282 25.12 78.3783 24.9069 78.06 24.8145 Z " stroke-width="1.1428571536751915"/>
      <path id="ID0.8070062398910522" fill="#192334" stroke="none" d="M 77.8692 25.4812 C 77.7369 25.4427 77.6009 25.4611 77.489 25.5234 C 77.3764 25.5845 77.288 25.6895 77.2496 25.8218 C 77.2112 25.9542 77.2295 26.0902 77.2919 26.2021 C 77.3529 26.3147 77.458 26.403 77.5903 26.4415 C 77.7226 26.4799 77.8587 26.4616 77.9705 26.3992 C 78.0831 26.3382 78.1715 26.2331 78.2099 26.1008 C 78.2483 25.9685 78.23 25.8324 78.1676 25.7206 C 78.1066 25.608 78.0015 25.5196 77.8692 25.4812 Z " stroke-width="1.1111111341117204"/>
    </g>
    <g id="ID0.5823970721103251">
      <path id="ID0.2692581438459456" fill="#7AABFF" stroke="none" d="M 61.7686 24.9154 C 62.0878 24.8261 62.4125 24.8753 62.6801 25.0259 C 62.9477 25.1765 63.1583 25.4285 63.2476 25.7477 C 63.3369 26.0669 63.2877 26.3916 63.1371 26.6592 C 62.9865 26.9268 62.7345 27.1374 62.4153 27.2267 C 62.0961 27.316 61.7714 27.2668 61.5038 27.1162 C 61.2362 26.9656 61.0256 26.7135 60.9363 26.3944 C 60.847 26.0752 60.8962 25.7505 61.0468 25.4829 C 61.1974 25.2153 61.4495 25.0047 61.7686 24.9154 Z " stroke-width="1.142857192502926"/>
      <path id="ID0.8070062398910522" fill="#192334" stroke="none" d="M 62.081 25.4558 C 62.2137 25.4187 62.3495 25.4384 62.4608 25.5019 C 62.5727 25.564 62.6601 25.6699 62.6972 25.8026 C 62.7343 25.9353 62.7146 26.0712 62.6512 26.1824 C 62.589 26.2944 62.4831 26.3817 62.3504 26.4188 C 62.2177 26.4559 62.0818 26.4363 61.9706 26.3728 C 61.8586 26.3107 61.7713 26.2047 61.7342 26.072 C 61.6971 25.9394 61.7167 25.8035 61.7802 25.6923 C 61.8423 25.5803 61.9483 25.4929 62.081 25.4558 Z " stroke-width="1.111111238844148"/>
    </g>
    <path id="ID0.023752907756716013" fill="none" stroke="#584E44" stroke-width="1.1814345527372752" stroke-linecap="round" d="M 57.907 23.5988 L 61.2034 23.794 L 63.5734 24.7971 "/>
    <path id="ID0.023752907756716013" fill="none" stroke="#584E44" stroke-width="1.1814344836726418" stroke-linecap="round" d="M 79.9661 23.6894 L 76.6679 23.8519 L 74.2881 24.8315 "/>
  </g>
  <g id="ID0.5880346246995032">
    <path id="ID0.6829322893172503" fill="#1D1E1F" stroke="none" stroke-linecap="round" d="M 31.3792 170.9972 L 38.9915 162.2532 L 44.1407 166.0642 L 50.2008 169.9344 L 52.4196 175.2014 L 53.6778 179.7655 L 52.9854 183.3795 L 54.2836 190.1417 L 49.8779 191.7761 L 47.9569 190.3705 L 46.3728 190.8164 L 42.333 189.6389 L 37.9466 188.1644 L 34.3222 184.8185 L 32.3012 177.9178 L 31.3792 170.9972 Z " stroke-width="0.8164596018285326"/>
    <g id="ID0.9434720128774643">
      <path id="ID0.6507829907350242" fill="#282828" stroke="none" stroke-linecap="round" d="M 1.0209 113.4046 L 22.4768 115.4404 L 27.8123 131.5761 L 31.7095 143.6666 L 37.9696 158.5269 L 42.8241 164.0568 L 30.2096 172.0729 L 28.04 164.9247 L 22.5435 156.6089 L 15.0763 146.2438 L 9.1573 134.2963 L 1.0209 113.4046 Z " stroke-width="0.8164596018285326"/>
      <path id="ID0.9892375003546476" fill="none" stroke="#191919" stroke-width="2.0000000175411055" stroke-linecap="round" d="M 30.3131 171.0995 L 41.6867 163.3242 L 36.0829 156.4615 "/>
    </g>
  </g>
</svg>