<svg xmlns="http://www.w3.org/2000/svg" xmlns:xlink="http://www.w3.org/1999/xlink" version="1.1" width="284.71790075302124" height="681.7526907920837" viewBox="4.211010694503784 -1.9689891338348389 284.71790075302124 681.7526907920837">
  <!-- Exported by Scratch - http://scratch.mit.edu/ -->
  <g id="ID0.028275346383452415">
    <g id="ID0.5880346246995032">
      <path id="ID0.6829322893172503" fill="#EDD2B8" stroke="none" stroke-linecap="round" d="M 277.0789 337.3621 L 251.0267 327.471 L 244.4397 341.3892 L 235.9896 356.4665 L 237.2643 370.1448 L 239.7768 381.244 L 245.3448 388.1165 L 250.2667 403.9187 L 261.4569 402.3832 L 263.9328 397.2249 L 267.7953 396.3722 L 275.0197 389.2932 L 282.6416 381.1916 L 286.5252 369.9891 L 282.9778 353.0733 L 277.0789 337.3621 Z " stroke-width="1.9625150371478053"/>
      <g id="ID0.9434720128774643">
        <path id="ID0.6507829907350242" fill="#282828" stroke="none" stroke-linecap="round" d="M 276.1837 180.6387 L 233.0282 209.298 L 240.0308 249.544 L 245.4913 279.586 L 249.0876 318.1784 L 245.0755 335.4045 L 280.9014 338.0776 L 277.388 320.4687 L 279.5995 296.6104 L 283.6618 266.1739 L 282.6477 234.1408 L 276.1837 180.6387 Z " stroke-width="1.9625150371478053"/>
        <path id="ID0.9892375003546476" fill="none" stroke="#191919" stroke-width="4.8073781831983755" stroke-linecap="round" d="M 279.5686 336.3456 L 246.6455 332.7749 L 250.733 311.8741 "/>
      </g>
    </g>
    <g id="ID0.6660797297954559">
      <path id="ID0.5368814701214433" fill="#343434" stroke="none" stroke-linecap="round" d="M 165.7229 641.0603 L 172.6535 619.8358 L 183.4434 597.6091 L 207.423 611.6898 L 234.5031 630.0423 L 276.4764 654.902 L 279.0687 670.5633 L 219.7039 673.3972 L 168.6375 664.5845 L 165.7229 641.0603 Z " stroke-width="1.8513611109926131"/>
      <g id="ID0.5077062323689461">
        <path id="ID0.05466862628236413" fill="#252525" stroke="none" stroke-linecap="round" d="M 168.3639 467.2698 L 220.5065 459.1447 L 216.3338 494.4387 L 214.5496 506.4889 L 214.5341 541.3051 L 220.5448 621.2305 L 169.4812 627.8893 L 166.2666 582.8235 L 160.71 565.8375 L 157.898 547.262 L 161.7396 520.5636 L 161.5021 496.2482 L 168.3639 467.2698 Z " stroke-width="1.441860802985172"/>
        <path id="ID0.5319394422695041" fill="none" stroke="#131313" stroke-width="4.80737829208374" stroke-linecap="round" d="M 220.6403 618.8798 L 169.5619 628.4945 L 167.1582 600.8521 "/>
      </g>
      <g id="ID0.8820344842970371">
        <path id="ID0.3809091211296618" fill="#252525" stroke="none" stroke-linecap="round" d="M 141.3871 290.3035 L 217.6203 243.3926 L 220.6553 301.6286 L 230.2422 418.1503 L 229.082 443.9959 L 219.4647 471.1164 L 200.011 465.8666 L 168.8755 468.9686 L 167.2859 416.6597 L 163.1076 384.6837 L 141.3871 290.3035 Z " stroke-width="1.7561087690119248"/>
        <path id="ID0.9495224836282432" fill="none" stroke="#131313" stroke-width="4.80737829208374" stroke-linecap="round" d="M 230.2551 418.1717 L 230.2551 438.6031 L 225.4477 457.8326 L 205.0163 468.6492 L 202.6127 480.6676 "/>
      </g>
    </g>
    <g id="ID0.18228224432095885">
      <path id="ID0.5368814701214433" fill="#404040" stroke="none" stroke-linecap="round" d="M 73.6305 643.8826 L 81.0188 622.813 L 92.2872 600.825 L 115.9565 615.4213 L 142.6331 634.3555 L 184.0586 660.1176 L 186.3114 675.8314 L 126.8992 677.38 L 76.0355 667.4643 L 73.6305 643.8826 Z " stroke-width="1.8513611012089253"/>
      <g id="ID0.5077062323689461">
        <path id="ID0.05466862628236413" fill="#252525" stroke="none" stroke-linecap="round" d="M 83.1291 468.8134 L 135.5972 463.1593 L 129.7627 498.2169 L 127.4115 510.1694 L 125.7522 544.946 L 127.9824 625.0661 L 76.6613 629.3064 L 75.5782 584.1392 L 70.8297 566.9097 L 68.898 548.2222 L 73.9959 521.7349 L 74.9068 497.4354 L 83.1291 468.8134 Z " stroke-width="1.4418607866523963"/>
        <path id="ID0.5319394422695041" fill="none" stroke="#131313" stroke-width="4.807378273852679" stroke-linecap="round" d="M 128.2142 622.7868 L 76.7388 629.9791 L 75.643 602.254 "/>
      </g>
      <g id="ID0.8820344842970371">
        <path id="ID0.3809091211296618" fill="#252525" stroke="none" stroke-linecap="round" d="M 76.9161 284.6236 L 143.0419 247.494 L 143.3238 305.8082 L 147.3982 422.6527 L 145.019 448.4147 L 134.1319 475.0508 L 114.9477 468.8884 L 82.3866 473.733 L 77.8362 418.178 L 75.6298 386.7934 L 76.9161 284.6236 Z " stroke-width="1.7561088062701822"/>
        <path id="ID0.9495224836282432" fill="none" stroke="#131313" stroke-width="4.807378273852679" stroke-linecap="round" d="M 147.295 422.7566 L 146.3303 443.1652 L 140.6203 462.1462 L 119.701 471.9861 L 116.7325 483.8776 "/>
      </g>
    </g>
    <path id="ID0.7729651997797191" fill="#282828" stroke="none" stroke-linecap="round" d="M 24.4741 106.0753 L 81.6159 106.9651 L 73.4042 155.2078 L 64.8187 174.628 L 59.9666 200.1095 L 51.8778 220.3148 L 11.3951 212.7923 L 6.6147 196.2806 L 19.6184 139.1706 L 24.4741 106.0753 Z " stroke-width="2.3048102565613084"/>
    <path id="ID0.4757494777441025" fill="#282828" stroke="none" stroke-linecap="round" d="M 49.3663 69.7382 L 70.5559 64.588 L 109.992 76.3191 L 89.6853 137.5498 L 64.0813 149.567 L 52.8979 152.1421 L 44.9518 146.4197 L 37.8886 139.2665 L 23.7622 132.9718 L 23.4679 119.8101 L 25.2337 100.3536 L 33.1798 80.3249 L 49.3663 69.7382 Z " stroke-width="1.1609638109660534"/>
    <path id="ID0.7729651997797191" fill="#282828" stroke="none" stroke-linecap="round" d="M 269.9822 106.8732 L 213.0277 102.1656 L 216.4778 150.9804 L 224.6142 176.9512 L 226.8877 199.1672 L 231.8192 219.903 L 272.5528 214.3579 L 278.9264 198.3934 L 271.5751 140.2848 L 269.9822 106.8732 Z " stroke-width="2.304810231377703"/>
    <path id="ID0.4757494777441025" fill="#282828" stroke="none" stroke-linecap="round" d="M 243.9673 68.5364 L 222.7777 63.3861 L 183.3416 75.1173 L 203.6482 136.3479 L 229.2523 148.3652 L 240.4357 150.9403 L 248.3818 145.2178 L 255.445 138.0647 L 269.5714 131.7699 L 269.8657 118.6082 L 268.0999 99.1517 L 260.1538 79.123 L 243.9673 68.5364 Z " stroke-width="1.1609638109660534"/>
    <g id="ID0.8990198895335197">
      <path id="ID0.17576928716152906" fill="#DBDBDB" stroke="none" d="M 154.5389 56.5367 L 153.9379 56.5367 L 153.9379 56.5367 L 154.5389 56.5367 L 154.5389 56.5367 Z " stroke-width="2.40368914604187"/>
      <path id="ID0.4270821204409003" fill="#252525" stroke="none" stroke-linecap="round" d="M 149.3472 349.7895 L 148.7365 78.7583 L 190.4532 84.7187 L 206.831 95.3615 L 213.4946 105.2302 L 229.802 133.0427 L 227.5629 158.1806 L 225.0011 171.292 L 228.6615 187.9668 L 229.5325 201.1495 L 224.0388 217.6342 L 219.887 230.1402 L 216.563 252.3937 L 219.0744 305.1042 L 206.3066 324.5859 L 194.4968 339.2796 L 149.3472 349.7895 Z " stroke-width="1.1444987346892532"/>
      <path id="ID0.4270821204409003" fill="#252525" stroke="none" stroke-linecap="round" d="M 149.635 350.15 L 150.2457 79.1189 L 108.529 85.0793 L 92.1512 95.7221 L 85.4877 105.5908 L 69.1802 133.4033 L 71.4194 158.5412 L 73.9811 171.6526 L 70.3208 188.3274 L 69.4498 201.5101 L 74.9435 217.9948 L 79.0953 230.5008 L 82.4193 252.7543 L 79.9079 305.4647 L 92.6757 324.9465 L 104.4855 339.6401 L 149.635 350.15 Z " stroke-width="1.1444987346892532"/>
      <path id="ID0.5114514343440533" fill="#282828" stroke="none" d="M 86.4727 81.9622 L 213.8682 81.9622 L 213.8682 294.0878 L 86.4727 294.0878 L 86.4727 81.9622 Z " stroke-width="2.421251950947323"/>
      <path id="ID0.9286923445761204" fill="#D4D4D4" stroke="none" stroke-linecap="round" d="M 121.6397 0.4347 L 166.8474 3.9827 L 149.7371 49.3621 L 152.7701 146.6445 L 61.5535 76.83 L 109.3363 51.3649 L 121.6397 0.4347 Z " stroke-width="1.1444987641999802"/>
      <path id="ID0.9286923445761204" fill="#D4D4D4" stroke="none" stroke-linecap="round" d="M 176.7416 1.0357 L 131.5339 4.5836 L 148.6442 49.963 L 151.5627 146.1009 L 236.8278 77.431 L 189.045 51.9659 L 176.7416 1.0357 Z " stroke-width="1.1444987641999802"/>
      <path id="ID0.39874776685610414" fill="#1F2022" stroke="none" stroke-linecap="round" d="M 105.378 53.0851 L 153.1384 76.8113 L 196.0876 55.2718 L 205.7101 60.4107 L 152.669 85.8863 L 96.3422 57.7866 L 105.378 53.0851 Z " stroke-width="2.268263737471324"/>
      <path id="ID0.13444371055811644" fill="#1F1F1F" stroke="none" stroke-linecap="round" d="M 147.3278 81.1745 L 159.9472 80.5736 L 166.6775 149.0787 L 137.713 150.2806 L 147.3278 81.1745 Z " stroke-width="2.40368914604187"/>
      <path id="ID0.751046194229275" fill="#191919" stroke="none" stroke-linecap="round" d="M 141.8354 69.12 L 153.0726 64.2285 L 163.9133 69.12 L 164.9709 88.2894 L 154.3947 90.6691 L 141.8354 88.2894 L 141.8354 69.12 Z " stroke-width="2.644058117954472"/>
      <path id="ID0.7854711129330099" fill="#282828" stroke="none" stroke-linecap="round" d="M 120.2863 121.4363 L 153.9379 142.4686 L 186.9887 119.0326 L 182.1813 161.0972 L 126.2955 161.0972 L 120.2863 121.4363 Z " stroke-width="2.40368914604187"/>
      <path id="ID0.562834897544235" fill="#282828" stroke="none" stroke-linecap="round" d="M 80.0245 293.3001 L 152.7361 279.4789 L 152.7361 328.1536 L 119.6854 331.1582 L 80.0245 293.3001 Z " stroke-width="2.40368914604187"/>
      <path id="ID0.562834897544235" fill="#282828" stroke="none" stroke-linecap="round" d="M 226.5294 293.901 L 153.8178 280.0798 L 153.8178 328.7545 L 186.8685 331.7591 L 226.5294 293.901 Z " stroke-width="2.40368914604187"/>
      <path id="ID0.6824178956449032" fill="none" stroke="#191919" stroke-width="4.80737829208374" stroke-linecap="round" d="M 153.337 143.0695 L 152.7361 327.5526 "/>
      <path id="ID0.4144489667378366" fill="#313131" stroke="none" stroke-linecap="round" d="M 60.1941 69.757 L 108.8688 50.5275 L 101.6577 102.8077 L 109.4697 247.0291 L 86.6347 354.5941 L 60.1941 342.5757 L 59.5932 350.9886 L 66.8042 235.6115 L 55.3867 131.652 L 52.983 92.592 L 60.1941 69.757 Z " stroke-width="2.40368914604187"/>
      <path id="ID0.5234400681219995" fill="#101010" stroke="none" d="M 158.6642 156.8006 C 159.6561 156.8006 160.5556 157.2034 161.2068 157.8545 C 161.8579 158.5057 162.2607 159.4052 162.2607 160.3971 C 162.2607 161.389 161.8579 162.2885 161.2068 162.9396 C 160.5556 163.5908 159.6561 163.9936 158.6642 163.9936 C 157.6723 163.9936 156.7728 163.5908 156.1217 162.9396 C 155.4705 162.2885 155.0677 161.389 155.0677 160.3971 C 155.0677 159.4052 155.4705 158.5057 156.1217 157.8545 C 156.7728 157.2034 157.6723 156.8006 158.6642 156.8006 Z " stroke-width="1.5143241505446954"/>
      <path id="ID0.5234400681219995" fill="#101010" stroke="none" d="M 158.6642 189.4907 C 159.6561 189.4907 160.5556 189.8936 161.2068 190.5447 C 161.8579 191.1959 162.2607 192.0954 162.2607 193.0873 C 162.2607 194.0792 161.8579 194.9787 161.2068 195.6298 C 160.5556 196.281 159.6561 196.6838 158.6642 196.6838 C 157.6723 196.6838 156.7728 196.281 156.1217 195.6298 C 155.4705 194.9787 155.0677 194.0792 155.0677 193.0873 C 155.0677 192.0954 155.4705 191.1959 156.1217 190.5447 C 156.7728 189.8936 157.6723 189.4907 158.6642 189.4907 Z " stroke-width="1.5143241505446954"/>
      <path id="ID0.5234400681219995" fill="#101010" stroke="none" d="M 158.6642 265.3271 C 159.6561 265.3271 160.5556 265.73 161.2068 266.3811 C 161.8579 267.0323 162.2607 267.9318 162.2607 268.9237 C 162.2607 269.9155 161.8579 270.8151 161.2068 271.4662 C 160.5556 272.1174 159.6561 272.5202 158.6642 272.5202 C 157.6723 272.5202 156.7728 272.1174 156.1217 271.4662 C 155.4705 270.8151 155.0677 269.9155 155.0677 268.9237 C 155.0677 267.9318 155.4705 267.0323 156.1217 266.3811 C 156.7728 265.73 157.6723 265.3271 158.6642 265.3271 Z " stroke-width="1.5143241505446954"/>
      <path id="ID0.5234400681219995" fill="#101010" stroke="none" d="M 158.6642 229.7525 C 159.6561 229.7525 160.5556 230.1554 161.2068 230.8065 C 161.8579 231.4577 162.2607 232.3572 162.2607 233.3491 C 162.2607 234.3409 161.8579 235.2405 161.2068 235.8916 C 160.5556 236.5428 159.6561 236.9456 158.6642 236.9456 C 157.6723 236.9456 156.7728 236.5428 156.1217 235.8916 C 155.4705 235.2405 155.0677 234.3409 155.0677 233.3491 C 155.0677 232.3572 155.4705 231.4577 156.1217 230.8065 C 156.7728 230.1554 157.6723 229.7525 158.6642 229.7525 Z " stroke-width="1.5143241505446954"/>
      <path id="ID0.5234400681219995" fill="#101010" stroke="none" d="M 158.4238 298.9788 C 159.4157 298.9788 160.3152 299.3816 160.9664 300.0328 C 161.6175 300.6839 162.0204 301.5834 162.0204 302.5753 C 162.0204 303.5672 161.6175 304.4667 160.9664 305.1179 C 160.3152 305.769 159.4157 306.1718 158.4238 306.1718 C 157.4319 306.1718 156.5324 305.769 155.8813 305.1179 C 155.2301 304.4667 154.8273 303.5672 154.8273 302.5753 C 154.8273 301.5834 155.2301 300.6839 155.8813 300.0328 C 156.5324 299.3816 157.4319 298.9788 158.4238 298.9788 Z " stroke-width="1.5143241505446954"/>
      <path id="ID0.4144489667378366" fill="#313131" stroke="none" stroke-linecap="round" d="M 236.9854 67.7138 L 188.3107 48.4843 L 195.5218 100.7646 L 187.7098 244.9859 L 210.5448 352.551 L 236.9854 340.5326 L 237.5863 348.9455 L 230.3753 233.5684 L 241.7928 129.6088 L 244.1965 90.5489 L 236.9854 67.7138 Z " stroke-width="2.40368914604187"/>
      <path id="ID0.8752945330925286" fill="none" stroke="#222222" stroke-width="4.80737829208374" stroke-linecap="round" d="M 61.3959 70.3579 L 53.5839 88.9865 L 61.3959 179.7258 "/>
      <path id="ID0.8752945330925286" fill="none" stroke="#222222" stroke-width="4.80737829208374" stroke-linecap="round" d="M 237.4661 69.1561 L 245.2781 87.7847 L 237.4661 178.5239 "/>
      <path id="ID0.5234400681219995" fill="#101010" stroke="none" d="M 103.139 266.7694 C 104.1309 266.7694 105.0304 267.1722 105.6815 267.8233 C 106.3327 268.4745 106.7355 269.374 106.7355 270.3659 C 106.7355 271.3578 106.3327 272.2573 105.6815 272.9084 C 105.0304 273.5596 104.1309 273.9624 103.139 273.9624 C 102.1471 273.9624 101.2476 273.5596 100.5964 272.9084 C 99.9453 272.2573 99.5425 271.3578 99.5425 270.3659 C 99.5425 269.374 99.9453 268.4745 100.5964 267.8233 C 101.2476 267.1722 102.1471 266.7694 103.139 266.7694 Z " stroke-width="1.5143241505446954"/>
      <path id="ID0.5234400681219995" fill="#101010" stroke="none" d="M 99.7738 284.1961 C 100.7657 284.1961 101.6652 284.5989 102.3164 285.2501 C 102.9675 285.9012 103.3703 286.8007 103.3703 287.7926 C 103.3703 288.7845 102.9675 289.684 102.3164 290.3352 C 101.6652 290.9863 100.7657 291.3891 99.7738 291.3891 C 98.7819 291.3891 97.8824 290.9863 97.2313 290.3352 C 96.5801 289.684 96.1773 288.7845 96.1773 287.7926 C 96.1773 286.8007 96.5801 285.9012 97.2313 285.2501 C 97.8824 284.5989 98.7819 284.1961 99.7738 284.1961 Z " stroke-width="1.5143241505446954"/>
      <g id="ID0.20783481979742646">
        <path id="ID0.5848579816520214" fill="#737373" stroke="none" stroke-linecap="round" d="M 211.5063 136.0988 L 227.9716 132.4933 L 227.7312 141.8677 L 210.3045 143.0695 L 211.5063 136.0988 Z " stroke-width="2.40368914604187"/>
        <path id="ID0.13105127029120922" fill="none" stroke="#222222" stroke-width="4.80737829208374" stroke-linecap="round" d="M 207.0595 143.6704 L 217.8761 143.6704 L 230.4954 140.0649 "/>
      </g>
    </g>
    <g id="ID0.6169916936196387">
      <path id="ID0.6829322893172503" fill="#EDD2B8" stroke="none" stroke-linecap="round" d="M 153.2028 245.7929 L 145.2787 219.0766 L 159.6487 213.544 L 175.3133 206.2399 L 188.8588 208.5294 L 199.7401 211.8613 L 206.179 217.9255 L 221.5709 224.0102 L 219.2065 235.0551 L 213.8782 237.14 L 212.7403 240.9284 L 205.1431 247.6057 L 196.4965 254.6032 L 185.036 257.642 L 168.4312 252.8451 L 153.2028 245.7929 Z " stroke-width="1.9625149643554491"/>
      <g id="ID0.9434720128774643">
        <path id="ID0.6507829907350242" fill="#282828" stroke="none" stroke-linecap="round" d="M 9.348 233.6802 L 6.8817 197.636 L 72.7272 206.6755 L 97.8531 209.9271 L 136.0707 216.3867 L 153.5477 213.6682 L 153.5461 249.5937 L 136.2477 244.7791 L 112.2909 245.2082 L 81.6364 246.9931 L 58.1634 247.504 L 9.348 233.6802 Z " stroke-width="1.9625149643554491"/>
        <path id="ID0.9892375003546476" fill="none" stroke="#191919" stroke-width="4.807378197384763" stroke-linecap="round" d="M 152.0083 248.1045 L 150.8986 215.0069 L 129.7515 217.527 "/>
      </g>
    </g>
    <g id="ID0.08065540948882699">
      <path id="ID0.2553020962513983" fill="#999FA5" stroke="none" d="M 180.3785 189.9414 C 204.5837 189.9414 226.5173 192.636 242.4009 196.9867 C 258.2821 201.3373 268.1132 207.3466 268.1132 213.9783 C 268.1132 220.6101 258.2821 226.6193 242.4009 230.97 C 226.5173 235.3207 204.5837 238.0152 180.3785 238.0152 C 156.1734 238.0152 134.2397 235.3207 118.3561 230.97 C 102.475 226.6193 92.6439 220.6101 92.6439 213.9783 C 92.6439 207.3466 102.475 201.3373 118.3561 196.9867 C 134.2397 192.636 156.1734 189.9414 180.3785 189.9414 Z " stroke-width="2.40368914604187"/>
      <path id="ID0.4823109242133796" fill="#8B9196" stroke="none" stroke-linecap="round" d="M 177.9748 152.0833 C 198.036 152.0833 216.2127 156.4605 229.3753 163.5321 C 242.5379 170.6014 247.129 180.0935 250.6864 191.1433 C 253.4795 199.8326 255.9625 213.9062 248.2827 218.1848 C 227.1495 229.3836 201.3002 230.6215 177.9748 230.2032 C 154.2745 229.7778 129.365 226.9534 108.2679 215.7811 C 101.2731 211.8631 102.6937 199.0923 105.2632 191.1433 C 108.8423 180.1007 113.4118 170.6014 126.5744 163.5321 C 139.737 156.4605 157.9137 152.0833 177.9748 152.0833 Z " stroke-width="2.40368914604187"/>
      <path id="ID0.0372768803499639" fill="none" stroke="#A4ABB1" stroke-width="4.80737829208374" stroke-linecap="round" d="M 202.0117 159.2944 C 202.0117 159.2944 208.9127 160.5924 212.2274 161.6981 C 213.7586 162.2077 215.1551 163.1187 216.4339 164.1018 C 217.7799 165.1378 220.0394 167.7073 220.0394 167.7073 "/>
      <path id="ID0.0845643924549222" fill="none" stroke="#A4ABB1" stroke-width="4.80737829208374" stroke-linecap="round" d="M 208.6219 170.111 C 208.6219 170.111 211.9149 171.1206 213.4293 171.9138 C 216.1358 173.332 221.2412 176.7212 221.2412 176.7212 "/>
    </g>
  </g>
</svg>