<svg xmlns="http://www.w3.org/2000/svg" xmlns:xlink="http://www.w3.org/1999/xlink" version="1.1" width="124.33839424803264" height="314.3398743505717" viewBox="0.283199984061685 1.2911469521402983 124.33839424803264 314.3398743505717">
  <!-- Exported by Scratch - http://scratch.mit.edu/ -->
  <path id="ID0.7729651997797191" fill="#282828" stroke="none" stroke-linecap="round" d="M 15.8478 74.4765 L 39.172 79.0867 L 32.226 98.224 L 26.0096 107.6873 L 22.567 116.3166 L 18.2297 124.0507 L 2.5645 117.1879 L 1.8346 110.0739 L 11.4011 87.6628 L 15.8478 74.4765 Z " stroke-width="0.9588636452527218"/>
  <path id="ID0.4757494777441025" fill="#282828" stroke="none" stroke-linecap="round" d="M 30.4236 60.0305 L 39.4887 60.3858 L 53.9296 69.5757 L 38.8237 91.7588 L 27.2093 93.6476 L 22.4413 93.4029 L 19.9145 90.2073 L 17.9041 86.5401 L 12.9698 82.4109 L 14.3527 77.1114 L 17.2776 69.5282 L 22.7404 62.4207 L 30.4236 60.0305 Z " stroke-width="0.48299250469267113"/>
  <g id="ID0.5880346246995032">
    <path id="ID0.6829322893172503" fill="#1D1E1F" stroke="none" stroke-linecap="round" d="M 105.0873 176.799 L 115.1269 171.0015 L 118.7592 176.2782 L 123.2338 181.9069 L 123.6216 187.6089 L 123.3293 192.3343 L 121.5006 195.5275 L 120.5322 202.3447 L 115.8346 202.4597 L 114.4742 200.5063 L 112.8312 200.4135 L 109.3928 197.9878 L 105.7231 195.1686 L 103.3819 190.8269 L 103.7116 183.644 L 105.0873 176.799 Z " stroke-width="0.8164595942054852"/>
    <g id="ID0.9434720128774643">
      <path id="ID0.6507829907350242" fill="#282828" stroke="none" stroke-linecap="round" d="M 95.0041 112.4233 L 114.6356 121.3173 L 114.4412 138.3112 L 114.2004 151.0119 L 115.2946 167.0999 L 118.0899 173.9066 L 103.5558 177.3911 L 103.8254 169.9258 L 101.3277 160.2756 L 97.6318 148.0472 L 95.9141 134.825 L 95.0041 112.4233 Z " stroke-width="0.8164595942054852"/>
      <path id="ID0.9892375003546476" fill="none" stroke="#191919" stroke-width="2.0000000829935733" stroke-linecap="round" d="M 103.9805 176.5254 L 117.2628 172.8656 L 114.1917 164.5548 "/>
    </g>
  </g>
  <path id="ID0.7729651997797191" fill="#282828" stroke="none" stroke-linecap="round" d="M 119.0352 84.4888 L 96.283 77.5888 L 93.4134 97.7445 L 94.4493 109.0194 L 93.4294 118.254 L 93.6201 127.1192 L 110.6724 128.4294 L 114.662 122.4943 L 116.7585 98.2172 L 119.0352 84.4888 Z " stroke-width="0.9588636235320671"/>
  <path id="ID0.4757494777441025" fill="#282828" stroke="none" stroke-linecap="round" d="M 111.6161 66.7316 L 103.4488 62.7822 L 86.3827 64.1015 L 89.2821 90.7824 L 98.6438 97.9111 L 102.9669 99.9374 L 106.6995 98.3055 L 110.1984 96.0144 L 116.4948 94.6908 L 117.7665 89.3635 L 118.7514 81.2957 L 117.2727 72.4542 L 111.6161 66.7316 Z " stroke-width="0.482992482537957"/>
  <g id="ID0.6660797297954559">
    <path id="ID0.5368814701214433" fill="#343434" stroke="none" stroke-linecap="round" d="M 66.4682 299.6199 L 69.4287 290.8155 L 73.9983 281.6083 L 83.9228 287.5533 L 95.1216 295.2868 L 112.4925 305.7815 L 113.5139 312.3062 L 88.8071 313.269 L 67.595 309.4169 L 66.4682 299.6199 Z " stroke-width="0.7702165156112356"/>
    <g id="ID0.5077062323689461">
      <path id="ID0.05466862628236413" fill="#252525" stroke="none" stroke-linecap="round" d="M 68.1786 227.3687 L 89.9001 224.1783 L 88.0357 238.8459 L 87.2495 243.8524 L 87.1163 258.3363 L 89.3258 291.608 L 68.0586 294.1922 L 66.8853 275.4326 L 64.6356 268.346 L 63.5334 260.6082 L 65.2287 249.5153 L 65.2185 239.399 L 68.1786 227.3687 Z " stroke-width="0.5998532572800399"/>
      <path id="ID0.5319394422695041" fill="none" stroke="#131313" stroke-width="1.999999948712909" stroke-linecap="round" d="M 89.3272 290.7351 L 68.0431 294.549 L 67.1437 283.0407 "/>
    </g>
    <g id="ID0.8820344842970371">
      <path id="ID0.3809091211296618" fill="#252525" stroke="none" stroke-linecap="round" d="M 57.6077 153.6188 L 89.4924 134.381 L 90.543 158.6188 L 94.107 207.1281 L 93.5302 217.8759 L 89.4306 229.1233 L 81.3567 226.8685 L 68.3927 228.0456 L 67.9219 206.2787 L 66.3001 192.9611 L 57.6077 153.6188 Z " stroke-width="0.7305889629519027"/>
      <path id="ID0.9495224836282432" fill="none" stroke="#131313" stroke-width="1.999999948712909" stroke-linecap="round" d="M 94.0579 207.2733 L 93.9835 215.773 L 91.9136 223.7552 L 83.3745 228.1806 L 82.3308 233.1717 "/>
    </g>
  </g>
  <g id="ID0.18228224432095885">
    <path id="ID0.5368814701214433" fill="#404040" stroke="none" stroke-linecap="round" d="M 28.1158 300.5018 L 31.2662 291.7635 L 36.034 282.6573 L 45.8275 288.8157 L 56.8564 296.7897 L 73.996 307.6578 L 74.876 314.2031 L 50.1542 314.631 L 29.0304 310.3208 L 28.1158 300.5018 Z " stroke-width="0.770216501105531"/>
    <g id="ID0.5077062323689461">
      <path id="ID0.05466862628236413" fill="#252525" stroke="none" stroke-linecap="round" d="M 32.7514 227.718 L 54.5993 225.5568 L 52.0445 240.12 L 51.0228 245.0838 L 50.2059 259.5452 L 50.842 292.8842 L 29.4764 294.4613 L 29.1903 275.6673 L 27.2776 268.4824 L 26.542 260.7011 L 28.7592 249.7007 L 29.2266 239.5951 L 32.7514 227.718 Z " stroke-width="0.5998532383662818"/>
      <path id="ID0.5319394422695041" fill="none" stroke="#131313" stroke-width="1.9999999804442234" stroke-linecap="round" d="M 50.8642 291.984 L 29.4237 294.7887 L 29.0687 283.2507 "/>
    </g>
    <g id="ID0.8820344842970371">
      <path id="ID0.3809091211296618" fill="#252525" stroke="none" stroke-linecap="round" d="M 30.8801 151.0264 L 58.5243 135.8208 L 58.4293 160.0813 L 59.6989 208.7047 L 58.6153 219.4133 L 53.9891 230.4546 L 46.0307 227.8211 L 32.4673 229.7179 L 30.7765 206.5899 L 29.9729 193.5255 L 30.8801 151.0264 Z " stroke-width="0.7305889563791749"/>
      <path id="ID0.9495224836282432" fill="none" stroke="#131313" stroke-width="1.9999999804442234" stroke-linecap="round" d="M 59.5303 208.8387 L 59.0547 217.3254 L 56.6102 225.2009 L 47.8717 229.2182 L 46.5935 234.1544 "/>
    </g>
  </g>
  <g id="ID0.8990198895335197">
    <path id="ID0.17576928716152906" fill="#DBDBDB" stroke="none" d="M 67.0949 57.0346 L 66.845 57.0251 L 66.845 57.0251 L 67.0949 57.0346 L 67.0949 57.0346 Z " stroke-width="0.9999999719054813"/>
    <path id="ID0.4270821204409003" fill="#252525" stroke="none" stroke-linecap="round" d="M 60.4116 178.918 L 64.4219 66.2327 L 81.671 69.367 L 88.3123 74.0492 L 90.9272 78.2567 L 97.2691 90.0758 L 95.9428 100.4911 L 94.6715 105.9016 L 95.9309 112.8914 L 96.0856 118.3856 L 93.5423 125.1523 L 91.6195 130.2861 L 89.8875 139.4852 L 90.1023 161.438 L 84.4878 169.3363 L 79.3469 175.2591 L 60.4116 178.918 Z " stroke-width="0.47614255569932096"/>
    <path id="ID0.4270821204409003" fill="#252525" stroke="none" stroke-linecap="round" d="M 60.441 179.0778 L 64.9591 66.4118 L 47.5224 68.2334 L 40.5462 72.4002 L 37.6207 76.3981 L 30.4037 87.704 L 30.939 98.1898 L 31.7978 103.6809 L 30.0137 110.5555 L 29.4442 116.0222 L 31.4687 122.9619 L 32.998 128.2263 L 34.0297 137.53 L 32.1564 159.4038 L 37.1578 167.7038 L 41.8363 173.9982 L 60.441 179.0778 Z " stroke-width="0.47614255532185923"/>
    <path id="ID0.5114514343440533" fill="#282828" stroke="none" d="M 38.4724 66.5714 L 91.4345 68.5757 L 88.097 156.7626 L 35.135 154.7583 L 38.4724 66.5714 Z " stroke-width="1.0073065684448783"/>
    <path id="ID0.9286923445761204" fill="#D4D4D4" stroke="none" stroke-linecap="round" d="M 55.1116 53.4655 L 73.0917 35.3963 L 65.2645 53.9927 L 64.9948 94.4836 L 28.1718 64.0245 L 48.707 53.9855 L 55.1116 53.4655 Z " stroke-width="0.4761425816280885"/>
    <path id="ID0.9286923445761204" fill="#D4D4D4" stroke="none" stroke-linecap="round" d="M 71.4476 53.0179 L 58.3304 35.1298 L 64.7297 54.2646 L 64.4304 94.2779 L 100.9581 67.0712 L 81.635 54.5232 L 71.4476 53.0179 Z " stroke-width="0.4761425816280885"/>
    <path id="ID0.39874776685610414" fill="#C3C3C3" stroke="none" stroke-linecap="round" d="M 46.8028 54.8454 L 66.2849 65.4605 L 84.479 57.1816 L 88.3985 59.4694 L 65.947 69.2258 L 42.9724 56.6578 L 46.8028 54.8454 Z " stroke-width="0.9436593077245595"/>
    <path id="ID0.13444371055811644" fill="#1F1F1F" stroke="none" stroke-linecap="round" d="M 63.8386 67.1757 L 69.0943 67.1244 L 70.8145 95.7099 L 58.7542 95.7539 L 63.8386 67.1757 Z " stroke-width="0.9999999719054813"/>
    <path id="ID0.751046194229275" fill="#191919" stroke="none" stroke-linecap="round" d="M 61.6986 62.2236 L 66.4472 60.3668 L 70.877 62.5709 L 71.0151 70.5569 L 66.5808 71.3798 L 61.397 70.1929 L 61.6986 62.2236 Z " stroke-width="1.0999998856528672"/>
    <path id="ID0.7854711129330099" fill="#282828" stroke="none" stroke-linecap="round" d="M 51.97 83.4893 L 65.629 92.7625 L 79.7379 83.5395 L 77.0776 100.9513 L 53.8442 100.0721 L 51.97 83.4893 Z " stroke-width="0.9999999719054813"/>
    <path id="ID0.562834897544235" fill="#282828" stroke="none" stroke-linecap="round" d="M 32.528 154.3047 L 62.9738 149.7028 L 62.208 169.9384 L 48.4205 170.6675 L 32.528 154.3047 Z " stroke-width="0.9999999719054813"/>
    <path id="ID0.562834897544235" fill="#282828" stroke="none" stroke-linecap="round" d="M 93.2724 156.8927 L 63.2614 150.0029 L 62.4956 170.2384 L 76.1885 172.0075 L 93.2724 156.8927 Z " stroke-width="0.9999999719054813"/>
    <path id="ID0.6824178956449032" fill="none" stroke="#191919" stroke-width="1.9999999438109626" stroke-linecap="round" d="M 65.3699 93.0434 L 62.2176 169.7291 "/>
    <path id="ID0.4144489667378366" fill="#313131" stroke="none" stroke-linecap="round" d="M 27.8009 61.0593 L 48.339 53.8308 L 44.5186 75.4518 L 45.4972 135.5318 L 34.3117 179.8905 L 23.5086 174.4781 L 23.1264 177.9661 L 27.9395 130.1139 L 24.8286 86.7152 L 24.4438 70.439 L 27.8009 61.0593 Z " stroke-width="0.9999999719054813"/>
    <path id="ID0.5234400681219995" fill="#101010" stroke="none" d="M 67.3305 98.7407 C 67.7428 98.7563 68.1105 98.9379 68.3709 99.2188 C 68.6314 99.4998 68.7847 99.8801 68.7691 100.2924 C 68.7535 100.7048 68.5719 101.0724 68.2909 101.3329 C 68.01 101.5933 67.6297 101.7466 67.2173 101.731 C 66.805 101.7154 66.4373 101.5338 66.1769 101.2528 C 65.9164 100.9719 65.7631 100.5916 65.7787 100.1793 C 65.7943 99.7669 65.9759 99.3993 66.2569 99.1388 C 66.5378 98.8784 66.9181 98.7251 67.3305 98.7407 Z " stroke-width="0.6299999930047085"/>
    <path id="ID0.5234400681219995" fill="#101010" stroke="none" d="M 66.7805 112.3407 C 67.1928 112.3563 67.5605 112.5379 67.8209 112.8188 C 68.0814 113.0998 68.2347 113.4801 68.2191 113.8924 C 68.2035 114.3048 68.0219 114.6724 67.7409 114.9329 C 67.46 115.1933 67.0797 115.3466 66.6673 115.331 C 66.255 115.3154 65.8873 115.1338 65.6269 114.8528 C 65.3664 114.5719 65.2131 114.1916 65.2287 113.7793 C 65.2443 113.3669 65.4259 112.9993 65.7069 112.7388 C 65.9878 112.4784 66.3681 112.3251 66.7805 112.3407 Z " stroke-width="0.6299999930047085"/>
    <path id="ID0.5234400681219995" fill="#101010" stroke="none" d="M 65.6305 143.7907 C 66.0428 143.8063 66.4105 143.9879 66.6709 144.2688 C 66.9314 144.5498 67.0847 144.9301 67.0691 145.3424 C 67.0535 145.7548 66.8719 146.1224 66.5909 146.3829 C 66.31 146.6433 65.9297 146.7966 65.5173 146.781 C 65.105 146.7654 64.7373 146.5838 64.4769 146.3028 C 64.2164 146.0219 64.0631 145.6416 64.0787 145.2293 C 64.0943 144.8169 64.2759 144.4493 64.5569 144.1888 C 64.8378 143.9284 65.2181 143.7751 65.6305 143.7907 Z " stroke-width="0.6299999930047085"/>
    <path id="ID0.5234400681219995" fill="#101010" stroke="none" d="M 66.1805 129.0407 C 66.5928 129.0563 66.9605 129.2379 67.2209 129.5188 C 67.4814 129.7998 67.6347 130.1801 67.6191 130.5924 C 67.6035 131.0048 67.4219 131.3724 67.1409 131.6329 C 66.86 131.8933 66.4797 132.0466 66.0673 132.031 C 65.655 132.0154 65.2873 131.8338 65.0269 131.5528 C 64.7664 131.2719 64.6131 130.8916 64.6287 130.4793 C 64.6443 130.0669 64.8259 129.6993 65.1069 129.4388 C 65.3878 129.1784 65.7681 129.0251 66.1805 129.0407 Z " stroke-width="0.6299999930047085"/>
    <path id="ID0.5234400681219995" fill="#101010" stroke="none" d="M 64.9805 157.7907 C 65.3928 157.8063 65.7605 157.9879 66.0209 158.2688 C 66.2814 158.5498 66.4347 158.9301 66.4191 159.3424 C 66.4035 159.7548 66.2219 160.1224 65.9409 160.3829 C 65.66 160.6433 65.2797 160.7966 64.8673 160.781 C 64.455 160.7654 64.0873 160.5838 63.8269 160.3028 C 63.5664 160.0219 63.4131 159.6416 63.4287 159.2293 C 63.4443 158.8169 63.6259 158.4493 63.9069 158.1888 C 64.1878 157.9284 64.5681 157.7751 64.9805 157.7907 Z " stroke-width="0.6299999930047085"/>
    <path id="ID0.4144489667378366" fill="#313131" stroke="none" stroke-linecap="round" d="M 101.1835 63.0213 L 81.2505 54.2612 L 83.4259 76.1091 L 77.9091 135.9432 L 85.71 181.0205 L 96.8912 176.4401 L 97.0086 179.947 L 95.826 131.8679 L 102.2083 88.8285 L 103.8221 72.6279 L 101.1835 63.0213 Z " stroke-width="0.9999999719054813"/>
    <path id="ID0.8752945330925286" fill="none" stroke="#222222" stroke-width="1.9999999438109626" stroke-linecap="round" d="M 28.2911 61.328 L 24.7504 68.9495 L 26.5704 106.7955 "/>
    <path id="ID0.8752945330925286" fill="none" stroke="#222222" stroke-width="1.9999999438109626" stroke-linecap="round" d="M 101.3744 63.6022 L 104.329 71.4695 L 99.6537 109.0696 "/>
    <path id="ID0.5234400681219995" fill="#101010" stroke="none" d="M 42.5305 143.5907 C 42.9428 143.6063 43.3105 143.7879 43.5709 144.0688 C 43.8314 144.3498 43.9847 144.7301 43.9691 145.1424 C 43.9535 145.5548 43.7719 145.9224 43.4909 146.1829 C 43.21 146.4433 42.8297 146.5966 42.4173 146.581 C 42.005 146.5654 41.6373 146.3838 41.3769 146.1028 C 41.1164 145.8219 40.9631 145.4416 40.9787 145.0293 C 40.9943 144.6169 41.1759 144.2493 41.4569 143.9888 C 41.7378 143.7284 42.1181 143.5751 42.5305 143.5907 Z " stroke-width="0.6299999930047085"/>
    <path id="ID0.5234400681219995" fill="#101010" stroke="none" d="M 40.8305 150.7407 C 41.2428 150.7563 41.6105 150.9379 41.8709 151.2188 C 42.1314 151.4998 42.2847 151.8801 42.2691 152.2924 C 42.2535 152.7048 42.0719 153.0724 41.7909 153.3329 C 41.51 153.5933 41.1297 153.7466 40.7173 153.731 C 40.305 153.7154 39.9373 153.5338 39.6769 153.2528 C 39.4164 152.9719 39.2631 152.5916 39.2787 152.1793 C 39.2943 151.7669 39.4759 151.3993 39.7569 151.1388 C 40.0378 150.8784 40.4181 150.7251 40.8305 150.7407 Z " stroke-width="0.6299999930047085"/>
    <g id="ID0.20783481979742646">
      <path id="ID0.5848579816520214" fill="#737373" stroke="none" stroke-linecap="round" d="M 89.6618 91.0353 L 96.5637 89.7954 L 96.3163 93.6888 L 89.0525 93.9143 L 89.6618 91.0353 Z " stroke-width="0.9999999719054813"/>
      <path id="ID0.13105127029120922" fill="none" stroke="#222222" stroke-width="1.9999999438109626" stroke-linecap="round" d="M 87.694 94.1131 L 92.1908 94.2832 L 97.4938 92.9829 "/>
    </g>
  </g>
  <path id="ID0.46110434643924236" fill="#D8BFA7" stroke="none" stroke-linecap="round" d="M 54.5239 34.8999 L 77.1224 35.7551 L 76.8729 54.7092 L 70.5753 57.3229 L 53.7637 54.9855 L 54.5239 34.8999 Z " stroke-width="1.0876357643551626"/>
  <path id="ID0.8999492498114705" fill="#EDD2B8" stroke="none" stroke-linecap="round" d="M 63.4127 5.2667 C 58.9837 5.3653 54.0363 7.6588 51.5781 11.344 C 48.7729 15.5515 50.1613 21.2836 49.5039 26.2481 C 49.2459 27.9723 48.8608 29.7636 49.1486 31.5461 C 49.3818 34.7339 50.3059 37.8345 51.0318 41.0403 C 51.5199 43.2012 51.5093 45.5454 52.5103 47.542 C 53.6275 49.8994 54.6958 53.1374 57.2466 53.8149 C 61.0283 54.819 65.248 53.3352 68.8357 51.8831 C 71.7831 50.6898 74.6169 48.7142 76.4239 46.0875 C 79.6755 41.2041 82.7137 35.7852 83.6038 29.9561 C 84.5904 23.4943 86.0513 15.5243 81.7208 10.4164 C 77.8748 5.5262 69.9966 5.1231 63.4127 5.2667 Z " stroke-width="0.5080371845729605"/>
  <path id="ID0.8194515448994935" fill="#EDD2B8" stroke="none" stroke-linecap="round" d="M 84.2103 24.5887 C 83.352 24.602 82.6874 25.1157 82.0912 26.1272 C 81.495 27.1387 81.0564 28.5683 80.9177 30.1763 C 80.7789 31.7843 80.966 33.2679 81.38 34.3666 C 81.7941 35.4652 82.3642 36.0584 83.2042 36.2454 C 83.9755 36.4153 85.0146 36.0744 85.4323 35.434 C 86.2376 33.9999 86.2708 32.2192 86.4969 30.6578 C 86.7197 29.1233 87.2247 27.4585 86.7473 26.0121 C 86.3435 25.1201 85.1098 24.575 84.2103 24.5887 Z " stroke-width="0.9999999561504443"/>
  <path id="ID0.5768358684144914" fill="#2E3234" stroke="none" d="M 85.4446 21.5918 L 79.4669 21.0759 L 79.3121 22.8692 L 85.2899 23.3852 L 85.4446 21.5918 Z " stroke-width="0.9999999561504443"/>
  <path id="ID0.3245162623934448" fill="#54595E" stroke="none" stroke-linecap="round" d="M 65.1292 6.4809 C 61.8853 6.2009 58.7203 8.5655 56.2271 12.6111 C 53.734 16.6567 52.4019 23.2878 51.3565 28.8294 C 50.289 34.4875 47.8576 40.5389 49.728 45.9528 C 51.1697 50.1242 55.8333 53.6091 60.3043 54.2429 C 64.5262 54.8452 69.8585 52.8263 72.1866 49.1458 C 75.4761 43.9444 74.7483 37.0724 74.8691 30.8587 C 74.9783 25.2212 74.6124 18.4587 72.8493 14.0458 C 71.0863 9.6328 68.3732 6.7609 65.1292 6.4809 Z " stroke-width="0.9999999561504443"/>
  <path id="ID0.8999492498114705" fill="#54595E" stroke="none" stroke-linecap="round" d="M 61.8627 2.5667 C 57.5205 3.4438 52.4863 4.9588 50.0281 8.644 C 47.2229 12.8515 49.1994 18.6945 47.9539 23.5481 C 47.4615 25.4652 44.8664 26.7547 44.7951 28.8336 C 44.7469 31.5122 46.6609 33.8848 47.6288 36.4721 C 48.6826 39.281 49.5679 42.2288 50.9603 44.842 C 52.1902 47.152 53.451 49.7722 55.6966 51.1149 C 57.4259 52.1474 60.0088 52.6181 61.678 51.5292 C 63.0051 50.6636 62.0568 48.357 62.5673 46.8381 C 63.0595 44.9521 64.4992 43.337 64.6719 41.3596 C 65.1505 35.856 63.7598 30.2797 64.2167 24.7732 C 64.7195 18.7179 64.9231 12.4649 67.3851 6.9698 C 68.3269 4.8676 74.5689 4.8321 73.5492 4.0853 C 71.9825 2.7701 65.7099 1.7897 61.8627 2.5667 Z " stroke-width="0.5080371845729605"/>
  <path id="ID0.8999492498114705" fill="#54595E" stroke="none" stroke-linecap="round" d="M 73.1105 4.03 C 76.7816 5.4825 80.8107 7.8077 82.3851 11.4851 C 84.3051 15.9387 82.5352 21.208 82.6332 26.0394 C 82.6703 27.8135 83.5745 29.7095 83.0416 31.3523 C 82.2729 33.623 80.0172 35.1865 79.1527 37.4163 C 77.9621 40.4878 78.4018 44.1722 76.8186 47.0309 C 75.5501 49.3201 73.5199 51.4615 71.0775 52.3995 C 69.1969 53.1204 66.5715 53.1416 65.1136 51.7828 C 63.9544 50.7027 65.2839 48.5926 65.0412 47.0087 C 64.8794 45.0662 63.7377 43.2283 63.9064 41.2506 C 64.3779 35.7464 66.7034 30.4909 67.1968 24.9875 C 67.739 18.9356 68.1403 12.8389 67.1258 6.9045 C 66.8519 5.3093 62.2443 4.2038 63.2474 3.6887 C 65.2319 2.68 70.0599 2.7443 73.1105 4.03 Z " stroke-width="0.5080371845729605"/>
  <path id="ID0.45774566335603595" fill="#54595E" stroke="none" stroke-linecap="round" d="M 61.9124 38.2348 C 59.8162 38.0539 58.1732 39.1808 56.3647 39.8297 C 54.7156 40.4221 51.7099 40.3012 51.5659 42.1095 C 51.3104 44.93 53.576 47.5786 55.5075 49.7608 C 56.7815 51.1996 58.6037 52.1017 60.6999 52.2826 C 62.7961 52.4635 64.6649 51.7787 66.2476 50.6877 C 68.4374 49.1794 71.2269 47.4218 71.4058 44.8256 C 71.6219 42.8448 68.7704 41.879 67.1048 40.7566 C 65.5113 39.6816 64.0086 38.4157 61.9124 38.2348 Z " stroke-width="0.9999999561504443"/>
  <path id="ID0.6934182443656027" fill="#54595E" stroke="none" stroke-linecap="round" d="M 76.6175 33.8487 L 63.064 36.7941 L 49.4032 31.0983 L 51.8117 38.0813 L 51.9229 42.6076 L 71.6435 44.9621 L 73.318 38.9338 L 76.6175 33.8487 Z " stroke-width="0.9999999561504443"/>
  <path id="ID0.6236958587542176" fill="#3B4043" stroke="none" stroke-linecap="round" d="M 70.4673 30.1351 L 54.7799 28.731 L 54.8238 36.363 L 53.7281 43.2443 L 55.5607 53.9917 L 65.1208 54.867 L 69.5176 45.2093 L 69.2744 37.56 L 70.4673 30.1351 Z " stroke-width="0.9999999561504443"/>
  <path id="ID0.6043254472315311" fill="#3B4043" stroke="none" stroke-linecap="round" d="M 79.6776 8.1145 L 75.1903 4.8666 L 69.9763 10.0374 L 63.4058 10.5744 L 62.9916 29.9104 L 65.3867 32.9777 L 70.747 33.089 L 74.4644 31.3021 L 76.3939 27.5541 L 75.4583 20.9492 L 79.6776 8.1145 Z " stroke-width="0.9999999561504443"/>
  <path id="ID0.6043254472315311" fill="#3B4043" stroke="none" stroke-linecap="round" d="M 51.2283 7.407 L 53.5355 5.0969 L 56.3742 4.1876 L 60.1047 9.2271 L 66.486 10.8819 L 63.5811 30.0029 L 60.6958 32.6145 L 55.3957 31.8058 L 51.0844 29.4262 L 50.7808 25.3851 L 52.8341 19.0382 L 51.2283 7.407 Z " stroke-width="0.9999999561504443"/>
  <path id="ID0.9914007503539324" fill="#33383A" stroke="none" d="M 64.4213 37.2835 L 67.0755 25.7189 L 60.6236 25.4631 L 59.3445 36.7951 L 64.4213 37.2835 Z " stroke-width="0.9999999561504443"/>
  <path id="ID0.28340246016159654" fill="#D8BFA7" stroke="none" stroke-linecap="round" d="M 77.4021 24.8049 L 70.5991 24.3114 L 65.9772 26.192 L 64.8088 29.5261 L 66.0005 31.8461 L 69.4646 32.5198 L 72.2423 32.2599 L 74.3956 31.6651 L 76.66 30.1118 L 77.7335 28.206 L 77.4021 24.8049 Z " stroke-width="0.59477520067679"/>
  <path id="ID0.28340246016159654" fill="#D8BFA7" stroke="none" stroke-linecap="round" d="M 49.0538 22.3027 L 55.8408 22.9822 L 60.0721 25.627 L 60.6519 29.1119 L 59.0804 31.1934 L 55.5521 31.2636 L 52.86 30.5316 L 50.8404 29.5766 L 48.8756 27.6584 L 48.1446 25.5968 L 49.0538 22.3027 Z " stroke-width="0.59477520067679"/>
  <path id="ID0.17377300979569554" fill="#FFFFFF" stroke="none" stroke-linecap="round" d="M 73.0875 28.0812 L 72.2552 27.1757 L 69.9924 26.7955 L 67.6962 27.2052 L 67.0779 29.1099 L 69.7168 29.2052 L 73.0875 28.0812 Z " stroke-width="0.9999999972278975"/>
  <path id="ID0.17377300979569554" fill="#FFFFFF" stroke="none" stroke-linecap="round" d="M 51.6223 26.179 L 52.5974 25.4296 L 54.892 25.4427 L 57.0839 26.2398 L 57.3667 28.2222 L 54.7506 27.864 L 51.6223 26.179 Z " stroke-width="0.9999999108777575"/>
  <path id="ID0.44800941413268447" fill="none" stroke="#33383A" stroke-width="1.0503598290560763" stroke-linecap="round" d="M 63.8687 29.9311 L 65.861 25.7806 L 70.44 23.7246 L 76.9692 24.42 "/>
  <path id="ID0.12448931112885475" fill="#33383A" stroke="none" stroke-linecap="round" d="M 64.2825 35.5227 L 59.4917 35.2096 L 58.2743 38.2662 L 61.2339 40.0273 L 64.8542 38.784 L 64.2825 35.5227 Z " stroke-width="0.9999999561504443"/>
  <path id="ID0.44800941413268447" fill="none" stroke="#33383A" stroke-width="1.0503597547870156" stroke-linecap="round" d="M 65.3523 26.5162 L 64.7738 23.8889 L 66.5028 20.6611 "/>
  <path id="ID0.44800941413268447" fill="none" stroke="#33383A" stroke-width="1.0503597355269858" stroke-linecap="round" d="M 60.9308 26.0289 L 61.9509 23.5395 L 60.8005 20.0632 "/>
  <g id="ID0.32985211815685034">
    <g id="ID0.08651347272098064">
      <g id="ID0.07771636918187141">
        <path id="ID0.7001032647676766" fill="none" stroke="#646B70" stroke-width="0.523809475314208" stroke-linecap="round" d="M 69.9803 42.0526 C 69.9803 42.0526 70.0128 42.4248 70.0373 42.6096 C 70.0604 42.7835 70.2004 42.9717 70.1239 43.1297 C 70.0448 43.2932 69.8301 43.3635 69.6533 43.4045 C 69.4832 43.4437 69.3054 43.3724 69.1314 43.3595 C 68.9574 43.3466 68.6793 43.4869 68.6084 43.3275 C 68.4384 42.9461 68.5588 42.0745 68.5588 42.0745 "/>
        <path id="ID0.7001032647676766" fill="none" stroke="#646B70" stroke-width="0.523809475314208" stroke-linecap="round" d="M 68.4303 41.9526 C 68.4303 41.9526 68.4628 42.3248 68.4873 42.5096 C 68.5104 42.6835 68.6504 42.8717 68.5739 43.0297 C 68.4948 43.1932 68.2801 43.2635 68.1033 43.3045 C 67.9332 43.3437 67.7554 43.2724 67.5814 43.2595 C 67.4074 43.2466 67.1293 43.3869 67.0584 43.2275 C 66.8884 42.8461 67.0088 41.9745 67.0088 41.9745 "/>
      </g>
      <g id="ID0.07771636918187141">
        <path id="ID0.7001032647676766" fill="none" stroke="#646B70" stroke-width="0.523809475314208" stroke-linecap="round" d="M 66.9303 42.0026 C 66.9303 42.0026 66.9628 42.3748 66.9873 42.5596 C 67.0104 42.7335 67.1504 42.9217 67.0739 43.0797 C 66.9948 43.2432 66.7801 43.3135 66.6033 43.3545 C 66.4332 43.3937 66.2554 43.3224 66.0814 43.3095 C 65.9074 43.2966 65.6293 43.4369 65.5584 43.2775 C 65.3884 42.8961 65.5088 42.0245 65.5088 42.0245 "/>
        <path id="ID0.7001032647676766" fill="none" stroke="#646B70" stroke-width="0.523809475314208" stroke-linecap="round" d="M 65.3803 41.9026 C 65.3803 41.9026 65.4128 42.2748 65.4373 42.4596 C 65.4604 42.6335 65.6004 42.8217 65.5239 42.9797 C 65.4448 43.1432 65.2301 43.2135 65.0533 43.2545 C 64.8832 43.2937 64.7054 43.2224 64.5314 43.2095 C 64.3574 43.1966 64.0793 43.3369 64.0084 43.1775 C 63.8384 42.7961 63.9588 41.9245 63.9588 41.9245 "/>
      </g>
      <path id="ID0.7001032647676766" fill="none" stroke="#646B70" stroke-width="0.523809478292326" stroke-linecap="round" d="M 63.8987 41.8735 C 63.8987 41.8735 63.8921 42.247 63.8971 42.4334 C 63.9019 42.6087 64.0213 42.8106 63.9287 42.9596 C 63.8329 43.114 63.612 43.1614 63.4319 43.1836 C 63.2586 43.2048 63.0892 43.1152 62.9176 43.0842 C 62.7459 43.0531 62.4546 43.1634 62.4008 42.9975 C 62.2717 42.6004 62.4828 41.7463 62.4828 41.7463 "/>
    </g>
    <g id="ID0.08651347272098064">
      <g id="ID0.07771636918187141">
        <path id="ID0.7001032647676766" fill="none" stroke="#646B70" stroke-width="0.523809475314208" stroke-linecap="round" d="M 55.0323 40.6816 C 55.0323 40.6816 54.9364 41.0427 54.8806 41.2206 C 54.828 41.388 54.658 41.5494 54.7062 41.7182 C 54.7561 41.8928 54.9557 41.9989 55.1228 42.0696 C 55.2836 42.1373 55.4711 42.0975 55.6447 42.1146 C 55.8183 42.1317 56.0682 42.3176 56.1654 42.1727 C 56.3983 41.8261 56.4289 40.9468 56.4289 40.9468 "/>
        <path id="ID0.7001032647676766" fill="none" stroke="#646B70" stroke-width="0.523809475314208" stroke-linecap="round" d="M 56.4823 40.8316 C 56.4823 40.8316 56.3864 41.1927 56.3306 41.3706 C 56.278 41.538 56.108 41.6994 56.1562 41.8682 C 56.2061 42.0428 56.4057 42.1489 56.5728 42.2196 C 56.7336 42.2873 56.9211 42.2475 57.0947 42.2646 C 57.2683 42.2817 57.5182 42.4676 57.6154 42.3227 C 57.8483 41.9761 57.8789 41.0968 57.8789 41.0968 "/>
      </g>
      <g id="ID0.07771636918187141">
        <path id="ID0.7001032647676766" fill="none" stroke="#646B70" stroke-width="0.523809475314208" stroke-linecap="round" d="M 58.1823 41.1816 C 58.1823 41.1816 58.0864 41.5427 58.0306 41.7206 C 57.978 41.888 57.808 42.0494 57.8562 42.2182 C 57.9061 42.3928 58.1057 42.4989 58.2728 42.5696 C 58.4336 42.6373 58.6211 42.5975 58.7947 42.6146 C 58.9683 42.6317 59.2182 42.8176 59.3154 42.6727 C 59.5483 42.3261 59.5789 41.4468 59.5789 41.4468 "/>
        <path id="ID0.7001032647676766" fill="none" stroke="#646B70" stroke-width="0.523809475314208" stroke-linecap="round" d="M 59.6823 41.3816 C 59.6823 41.3816 59.5864 41.7427 59.5306 41.9206 C 59.478 42.088 59.308 42.2494 59.3562 42.4182 C 59.4061 42.5928 59.6057 42.6989 59.7728 42.7696 C 59.9336 42.8373 60.1211 42.7975 60.2947 42.8146 C 60.4683 42.8317 60.7182 43.0176 60.8154 42.8727 C 61.0483 42.5261 61.0789 41.6468 61.0789 41.6468 "/>
      </g>
      <path id="ID0.7001032647676766" fill="none" stroke="#646B70" stroke-width="0.523809521532214" stroke-linecap="round" d="M 61.1229 41.6525 C 61.1229 41.6525 61.0654 42.0216 61.0285 42.2043 C 60.9938 42.3763 60.8416 42.5547 60.9072 42.7174 C 60.9751 42.8859 61.1847 42.9705 61.3583 43.0233 C 61.5254 43.0738 61.7076 43.0146 61.8821 43.0134 C 62.0565 43.0121 62.3246 43.1708 62.406 43.0165 C 62.6013 42.6474 62.5396 41.7697 62.5396 41.7697 "/>
    </g>
  </g>
  <path id="ID0.7001032647676766" fill="none" stroke="#646B70" stroke-width="0.5238095350184153" stroke-linecap="round" d="M 69.4177 45.0684 C 69.4177 45.0684 69.5135 44.7073 69.5694 44.5294 C 69.622 44.362 69.792 44.2006 69.7438 44.0318 C 69.6939 43.8572 69.4943 43.7511 69.3272 43.6804 C 69.1664 43.6127 68.9789 43.6525 68.8053 43.6354 C 68.6317 43.6183 68.3817 43.4324 68.2846 43.5773 C 68.0517 43.9239 68.0211 44.8032 68.0211 44.8032 "/>
  <path id="ID0.7001032647676766" fill="none" stroke="#646B70" stroke-width="0.5238095350184153" stroke-linecap="round" d="M 67.9177 44.8684 C 67.9177 44.8684 68.0135 44.5073 68.0694 44.3294 C 68.122 44.162 68.292 44.0006 68.2438 43.8318 C 68.1939 43.6572 67.9943 43.5511 67.8272 43.4804 C 67.6664 43.4127 67.4789 43.4525 67.3053 43.4354 C 67.1317 43.4183 66.8817 43.2324 66.7846 43.3773 C 66.5517 43.7239 66.5211 44.6032 66.5211 44.6032 "/>
  <g id="ID0.07771636918187141">
    <path id="ID0.7001032647676766" fill="none" stroke="#646B70" stroke-width="0.5238095350184153" stroke-linecap="round" d="M 66.8177 44.9184 C 66.8177 44.9184 66.9135 44.5573 66.9694 44.3794 C 67.022 44.212 67.192 44.0506 67.1438 43.8818 C 67.0939 43.7072 66.8943 43.6011 66.7272 43.5304 C 66.5664 43.4627 66.3789 43.5025 66.2053 43.4854 C 66.0317 43.4683 65.7817 43.2824 65.6846 43.4273 C 65.4517 43.7739 65.4211 44.6532 65.4211 44.6532 "/>
    <path id="ID0.7001032647676766" fill="none" stroke="#646B70" stroke-width="0.5238095350184153" stroke-linecap="round" d="M 65.3677 44.6684 C 65.3677 44.6684 65.4635 44.3073 65.5194 44.1294 C 65.572 43.962 65.742 43.8006 65.6938 43.6318 C 65.6439 43.4572 65.4443 43.3511 65.2772 43.2804 C 65.1164 43.2127 64.9289 43.2525 64.7553 43.2354 C 64.5817 43.2183 64.3317 43.0324 64.2346 43.1773 C 64.0017 43.5239 63.9711 44.4032 63.9711 44.4032 "/>
  </g>
  <path id="ID0.7001032647676766" fill="none" stroke="#646B70" stroke-width="0.523809581038176" stroke-linecap="round" d="M 63.3771 44.6475 C 63.3771 44.6475 63.4346 44.2784 63.4715 44.0957 C 63.5062 43.9237 63.6584 43.7453 63.5928 43.5826 C 63.5249 43.4141 63.3153 43.3295 63.1417 43.2767 C 62.9746 43.2262 62.7924 43.2854 62.6179 43.2866 C 62.4435 43.2878 62.1754 43.1292 62.094 43.2835 C 61.8987 43.6526 61.9604 44.5302 61.9604 44.5302 "/>
  <path id="ID0.7001032647676766" fill="none" stroke="#646B70" stroke-width="0.5238095350184153" stroke-linecap="round" d="M 53.9697 43.4974 C 53.9697 43.4974 53.9372 43.1252 53.9127 42.9404 C 53.8896 42.7665 53.7497 42.5783 53.8261 42.4203 C 53.9052 42.2568 54.12 42.1865 54.2967 42.1455 C 54.4668 42.1063 54.6446 42.1776 54.8186 42.1905 C 54.9926 42.2034 55.2707 42.0631 55.3416 42.2225 C 55.5116 42.6039 55.3912 43.4755 55.3912 43.4755 "/>
  <path id="ID0.7001032647676766" fill="none" stroke="#646B70" stroke-width="0.5238095350184153" stroke-linecap="round" d="M 55.4697 43.6474 C 55.4697 43.6474 55.4372 43.2752 55.4127 43.0904 C 55.3896 42.9165 55.2497 42.7283 55.3261 42.5703 C 55.4052 42.4068 55.62 42.3365 55.7967 42.2955 C 55.9668 42.2563 56.1446 42.3276 56.3186 42.3405 C 56.4926 42.3534 56.7707 42.2131 56.8416 42.3725 C 57.0116 42.7539 56.8912 43.6255 56.8912 43.6255 "/>
  <path id="ID0.7001032647676766" fill="none" stroke="#646B70" stroke-width="0.5238095350184153" stroke-linecap="round" d="M 57.2197 43.8474 C 57.2197 43.8474 57.1872 43.4752 57.1627 43.2904 C 57.1396 43.1165 56.9997 42.9283 57.0761 42.7703 C 57.1552 42.6068 57.37 42.5365 57.5467 42.4955 C 57.7168 42.4563 57.8946 42.5276 58.0686 42.5405 C 58.2426 42.5534 58.5207 42.4131 58.5916 42.5725 C 58.7616 42.9539 58.6412 43.8255 58.6412 43.8255 "/>
  <path id="ID0.7001032647676766" fill="none" stroke="#646B70" stroke-width="0.5238095350184153" stroke-linecap="round" d="M 58.7197 44.1474 C 58.7197 44.1474 58.6872 43.7752 58.6627 43.5904 C 58.6396 43.4165 58.4997 43.2283 58.5761 43.0703 C 58.6552 42.9068 58.87 42.8365 59.0467 42.7955 C 59.2168 42.7563 59.3946 42.8276 59.5686 42.8405 C 59.7426 42.8534 60.0207 42.7131 60.0916 42.8725 C 60.2616 43.2539 60.1412 44.1255 60.1412 44.1255 "/>
  <path id="ID0.7001032647676766" fill="none" stroke="#646B70" stroke-width="0.523809539642225" stroke-linecap="round" d="M 60.4013 44.3765 C 60.4013 44.3765 60.4079 44.003 60.4029 43.8166 C 60.3981 43.6413 60.2787 43.4394 60.3713 43.2904 C 60.4671 43.136 60.6881 43.0886 60.8682 43.0664 C 61.0414 43.0452 61.2108 43.1348 61.3824 43.1658 C 61.5541 43.1969 61.8454 43.0866 61.8992 43.2525 C 62.0283 43.6496 61.8172 44.5037 61.8172 44.5037 "/>
  <path id="ID0.44800941413268447" fill="none" stroke="#2E3234" stroke-width="0.6130029361985988" stroke-linecap="round" d="M 59.2573 35.5127 L 61.1701 34.3715 L 64.3738 35.696 "/>
  <path id="ID0.44800941413268447" fill="none" stroke="#33383A" stroke-width="1.0503598290560763" stroke-linecap="round" d="M 61.5624 29.6427 L 60.3107 25.2122 L 56.1517 22.4021 L 49.6 21.9684 "/>
  <g id="ID0.6897007944062352">
    <path id="ID0.2692581438459456" fill="#7AABFF" stroke="none" d="M 53.4999 25.5485 C 53.8252 25.4854 54.1448 25.5607 54.3994 25.7325 C 54.6539 25.9043 54.8433 26.1726 54.9065 26.4979 C 54.9696 26.8233 54.8942 27.1429 54.7224 27.3975 C 54.5506 27.652 54.2824 27.8414 53.957 27.9046 C 53.6317 27.9677 53.312 27.8923 53.0575 27.7205 C 52.803 27.5487 52.6135 27.2805 52.5504 26.9551 C 52.4873 26.6298 52.5626 26.3101 52.7344 26.0556 C 52.9062 25.8011 53.1745 25.6116 53.4999 25.5485 Z " stroke-width="1.1428571551912206"/>
    <path id="ID0.8070062398910522" fill="#192334" stroke="none" d="M 53.6118 26.1655 C 53.747 26.1393 53.8809 26.1699 53.9866 26.2422 C 54.0932 26.3132 54.1716 26.4259 54.1979 26.5611 C 54.2241 26.6964 54.1935 26.8302 54.1212 26.9359 C 54.0502 27.0425 53.9375 27.121 53.8023 27.1472 C 53.667 27.1735 53.5332 27.1429 53.4275 27.0706 C 53.3209 26.9996 53.2424 26.8869 53.2162 26.7516 C 53.1899 26.6164 53.2206 26.4825 53.2929 26.3768 C 53.3639 26.2702 53.4765 26.1918 53.6118 26.1655 Z " stroke-width="1.1111111145330606"/>
  </g>
  <g id="ID0.5823970721103251">
    <path id="ID0.2692581438459456" fill="#7AABFF" stroke="none" d="M 69.5845 27.0838 C 69.2748 26.9658 68.947 26.9853 68.6668 27.1109 C 68.3866 27.2366 68.154 27.4684 68.0361 27.7781 C 67.9181 28.0879 67.9376 28.4157 68.0632 28.6959 C 68.1889 28.9761 68.4207 29.2087 68.7304 29.3266 C 69.0402 29.4446 69.368 29.4251 69.6482 29.2995 C 69.9284 29.1738 70.161 28.942 70.2789 28.6322 C 70.3969 28.3225 70.3774 27.9947 70.2518 27.7145 C 70.1261 27.4343 69.8943 27.2017 69.5845 27.0838 Z " stroke-width="1.142857193494577"/>
    <path id="ID0.8070062398910522" fill="#192334" stroke="none" d="M 69.1546 27.5918 C 69.0259 27.5428 68.8888 27.55 68.7722 27.6032 C 68.6551 27.6548 68.5585 27.7524 68.5094 27.8812 C 68.4604 28.0099 68.4676 28.147 68.5208 28.2636 C 68.5724 28.3807 68.67 28.4773 68.7988 28.5264 C 68.9275 28.5754 69.0646 28.5682 69.1812 28.515 C 69.2983 28.4634 69.3949 28.3658 69.444 28.237 C 69.493 28.1083 69.4858 27.9712 69.4327 27.8546 C 69.381 27.7375 69.2834 27.6409 69.1546 27.5918 Z " stroke-width="1.111111283090662"/>
  </g>
  <path id="ID0.023752907756716013" fill="none" stroke="#584E44" stroke-width="1.1814345529320058" stroke-linecap="round" d="M 73.5071 26.7612 L 70.2996 25.9759 L 67.7392 26.2356 "/>
  <path id="ID0.023752907756716013" fill="none" stroke="#584E44" stroke-width="1.1814346004046754" stroke-linecap="round" d="M 51.5701 25.0071 L 54.8433 24.5699 L 57.3611 25.1025 "/>
  <g id="ID0.5880346246995032">
    <path id="ID0.6829322893172503" fill="#1D1E1F" stroke="none" stroke-linecap="round" d="M 15.0634 172.48 L 24.7418 166.0978 L 28.6804 171.15 L 33.4807 176.5036 L 34.2057 182.1726 L 34.1939 186.907 L 32.5577 190.203 L 31.995 197.0656 L 27.3124 197.4587 L 25.8386 195.5894 L 24.193 195.5941 L 20.6169 193.3764 L 16.7866 190.7796 L 14.1922 186.5843 L 14.0958 179.3945 L 15.0634 172.48 Z " stroke-width="0.8164595896237754"/>
    <g id="ID0.9434720128774643">
      <path id="ID0.6507829907350242" fill="#282828" stroke="none" stroke-linecap="round" d="M 1.2832 108.8195 L 21.4073 116.5345 L 22.2203 133.5101 L 22.7325 146.2028 L 24.7782 162.1976 L 27.9719 168.8267 L 13.6698 173.1664 L 13.4966 165.6982 L 10.4314 156.2129 L 6.0173 144.2251 L 3.5191 131.1279 L 1.2832 108.8195 Z " stroke-width="0.8164595896237754"/>
      <path id="ID0.9892375003546476" fill="none" stroke="#191919" stroke-width="2.000000024595509" stroke-linecap="round" d="M 14.0328 172.2566 L 27.0749 167.8162 L 23.5167 159.702 "/>
    </g>
  </g>
</svg>