<svg xmlns="http://www.w3.org/2000/svg" xmlns:xlink="http://www.w3.org/1999/xlink" version="1.1" width="190.76689153923883" height="201.77415472283258" viewBox="5.76210018985325 1.4976370035892117 190.76689153923883 201.77415472283258">
  <!-- Exported by Scratch - http://scratch.mit.edu/ -->
  <g id="ID0.7085462282411754">
    <g id="ID0.5880346246995032">
      <path id="ID0.6829322893172503" fill="#796B5E" stroke="none" stroke-linecap="round" d="M 145.8952 143.0112 L 134.9537 144.4807 L 135.3569 150.6334 L 135.3379 157.5483 L 138.4204 162.122 L 141.4342 165.5524 L 144.6913 166.9138 L 149.4483 171.5421 L 153.0314 168.8743 L 152.894 166.5875 L 154.0685 165.553 L 155.2065 161.6873 L 156.2849 157.386 L 155.4687 152.7034 L 150.9733 147.4217 L 145.8952 143.0112 Z " stroke-width="0.7820137311437043"/>
      <g id="ID0.9434720128774643">
        <path id="ID0.6507829907350242" fill="#2C3134" stroke="none" stroke-linecap="round" d="M 115.3705 88.0651 L 105.9414 106.3591 L 116.1386 119.1985 L 123.8313 128.7381 L 132.5283 141.6427 L 134.4628 148.4706 L 147.3994 142.6017 L 142.782 137.0696 L 138.9429 128.2488 L 134.4755 116.7601 L 127.94 105.6742 L 115.3705 88.0651 Z " stroke-width="0.7820137311437043"/>
        <path id="ID0.9892375003546476" fill="none" stroke="#191919" stroke-width="1.9156213270159816" stroke-linecap="round" d="M 146.5932 142.1482 L 134.4897 147.1492 L 131.872 139.0131 "/>
      </g>
    </g>
    <path id="ID0.7729651997797191" fill="#2C3134" stroke="none" stroke-linecap="round" d="M 98.9717 63.214 L 78.3172 72.3828 L 88.937 88.9144 L 96.7714 96.512 L 101.8484 103.902 L 107.5611 110.2655 L 120.6126 100.5702 L 119.7404 93.7377 L 105.974 74.6753 L 98.9717 63.214 Z " stroke-width="0.9184073403197718"/>
    <path id="ID0.4757494777441025" fill="#2C3134" stroke="none" stroke-linecap="round" d="M 82.537 54.6536 L 74.1965 56.868 L 62.7889 68.4947 L 81.6496 86.1937 L 92.8462 85.558 L 97.2205 84.3389 L 98.8707 80.8136 L 99.9385 76.9524 L 103.6208 72.0508 L 101.182 67.3607 L 96.8138 60.8458 L 90.1924 55.3042 L 82.537 54.6536 Z " stroke-width="0.4625155945395199"/>
  </g>
  <g id="ID0.6688785348087549">
    <path id="ID0.5368814701214433" fill="#343434" stroke="none" stroke-linecap="round" d="M 149.0751 162.6161 L 146.8165 153.6061 L 145.6952 143.3885 L 157.2588 143.0381 L 170.8603 143.5058 L 191.1481 142.9676 L 195.529 147.9096 L 175.2478 162.0526 L 155.3105 170.2561 L 149.0751 162.6161 Z " stroke-width="0.7702165533500696"/>
    <g id="ID0.5077062323689461">
      <path id="ID0.05466862628236413" fill="#252525" stroke="none" stroke-linecap="round" d="M 111.5066 100.7821 L 128.0725 86.3747 L 134.4178 99.7294 L 136.4576 104.3686 L 144.1613 116.6346 L 163.9758 143.4539 L 147.4653 157.1059 L 136.3544 141.9452 L 130.6362 137.193 L 125.5327 131.2733 L 120.9741 121.0193 L 115.5064 112.5078 L 111.5066 100.7821 Z " stroke-width="0.5998532857109622"/>
      <path id="ID0.5319394422695041" fill="none" stroke="#131313" stroke-width="1.9999999994122568" stroke-linecap="round" d="M 163.4093 142.7786 L 147.5481 157.475 L 140.5808 148.2714 "/>
    </g>
  </g>
  <g id="ID0.8820344842970371">
    <path id="ID0.3809091211296618" fill="#252525" stroke="none" stroke-linecap="round" d="M 96.1109 165.7127 L 59.2154 160.6681 L 73.615 141.1431 L 101.2969 101.1485 L 108.4937 93.145 L 118.7461 86.9646 L 123.6147 93.7886 L 134.4442 101.0117 L 121.1447 118.2495 L 114.0457 129.6334 L 96.1109 165.7127 Z " stroke-width="0.7305889591093907"/>
    <path id="ID0.9495224836282432" fill="none" stroke="#131313" stroke-width="2.000000011729554" stroke-linecap="round" d="M 101.4214 101.0542 L 106.8157 94.4852 L 113.4383 89.5719 L 122.8631 91.4885 L 126.8091 88.259 "/>
  </g>
  <g id="ID0.7085462282411754">
    <g id="ID0.5880346246995032">
      <path id="ID0.6829322893172503" fill="#796B5E" stroke="none" stroke-linecap="round" d="M 11.259 176.1918 L 21.3174 171.6412 L 24.2351 177.073 L 27.9147 182.9277 L 27.7235 188.4399 L 26.9849 192.946 L 24.9438 195.8262 L 23.3614 202.2718 L 18.9091 201.9076 L 17.8141 199.8953 L 16.2699 199.6402 L 13.2566 196.9645 L 10.0631 193.8878 L 8.2745 189.484 L 9.2889 182.6228 L 11.259 176.1918 Z " stroke-width="0.78201369932095"/>
      <g id="ID0.9434720128774643">
        <path id="ID0.6507829907350242" fill="#2C3134" stroke="none" stroke-linecap="round" d="M 8.0932 113.3586 L 25.7824 123.8787 L 23.9363 140.1705 L 22.4661 152.3368 L 21.9269 167.8892 L 23.9036 174.705 L 9.8225 176.5813 L 10.8077 169.4431 L 9.3904 159.928 L 7.0926 147.8174 L 6.7621 134.9526 L 8.0932 113.3586 Z " stroke-width="0.78201369932095"/>
        <path id="ID0.9892375003546476" fill="none" stroke="#191919" stroke-width="1.9156212048797878" stroke-linecap="round" d="M 10.2986 175.8597 L 23.2133 173.6887 L 21.123 165.4014 "/>
      </g>
    </g>
    <path id="ID0.7729651997797191" fill="#2C3134" stroke="none" stroke-linecap="round" d="M 8.8296 83.5828 L 31.2047 80.4162 L 30.9564 100.0634 L 28.337 110.6578 L 27.9464 119.6152 L 26.4728 128.0389 L 10.2669 126.7308 L 7.3868 120.4739 L 8.963 97.0132 L 8.8296 83.5828 Z " stroke-width="0.9184072936475666"/>
    <path id="ID0.4757494777441025" fill="#2C3134" stroke="none" stroke-linecap="round" d="M 18.1237 67.6355 L 26.3707 65.0948 L 42.2055 68.9119 L 35.5864 93.9153 L 25.7535 99.3081 L 21.3977 100.5916 L 18.1304 98.476 L 15.1791 95.767 L 9.4592 93.5608 L 9.0427 88.2909 L 9.2959 80.4512 L 11.9757 72.2432 L 18.1237 67.6355 Z " stroke-width="0.4625155688856304"/>
  </g>
  <g id="ID0.8990198895335197">
    <path id="ID0.17576928716152906" fill="#DBDBDB" stroke="none" d="M 52.5754 56.0287 L 52.3416 56.0712 L 52.3416 56.0712 L 52.5754 56.0287 L 52.5754 56.0287 Z " stroke-width="0.9578126376112066"/>
    <path id="ID0.4270821204409003" fill="#252525" stroke="none" stroke-linecap="round" d="M 71.6886 172.3013 L 52.0283 65.2603 L 68.6848 64.6716 L 75.819 67.7209 L 79.1186 71.1498 L 87.4559 80.9878 L 88.3862 91.0778 L 88.3292 96.4388 L 90.9481 102.7688 L 92.2317 107.9158 L 91.2758 114.8165 L 90.5568 120.0506 L 90.8584 129.0774 L 95.6127 149.7261 L 92.0417 158.3242 L 88.5002 164.963 L 71.6886 172.3013 Z " stroke-width="0.45605531970161484"/>
    <path id="ID0.4270821204409003" fill="#252525" stroke="none" stroke-linecap="round" d="M 71.688 172.405 L 52.5029 65.2778 L 36.7008 70.5764 L 31.0919 75.937 L 29.2068 80.3063 L 24.8557 92.4457 L 27.5282 102.2197 L 29.4644 107.2192 L 29.2354 114.0657 L 29.8412 119.3356 L 33.1598 125.461 L 35.6712 130.1092 L 38.5591 138.667 L 41.3594 159.67 L 47.7227 166.4663 L 46.8697 182.6546 L 71.688 172.405 Z " stroke-width="0.4560553208573387"/>
    <path id="ID0.5114514343440533" fill="#282828" stroke="none" d="M 28.0315 70.8134 L 77.5929 61.8241 L 92.7943 145.6346 L 43.2329 154.624 L 28.0315 70.8134 Z " stroke-width="0.9660237102854617"/>
    <path id="ID0.9286923445761204" fill="#D4D4D4" stroke="none" stroke-linecap="round" d="M 40.6868 55.0935 L 53.622 34.3683 L 50.2175 53.505 L 58.3689 91.7271 L 17.8793 70.58 L 34.8517 56.8992 L 40.6868 55.0935 Z " stroke-width="0.4560553904036264"/>
    <path id="ID0.9286923445761204" fill="#D4D4D4" stroke="none" stroke-linecap="round" d="M 55.7405 51.3163 L 39.8569 37.1493 L 49.7654 53.8713 L 57.7902 91.6493 L 86.0404 58.5014 L 65.5062 50.6426 L 55.7405 51.3163 Z " stroke-width="0.4560553904036264"/>
    <path id="ID0.39874776685610414" fill="#1F2022" stroke="none" stroke-linecap="round" d="M 33.2482 58.1011 L 53.5289 64.1052 L 68.6941 52.5644 L 72.8059 53.9157 L 53.9967 67.7238 L 30.0698 60.5962 L 33.2482 58.1011 Z " stroke-width="0.9033554864802262"/>
    <path id="ID0.13444371055811644" fill="#1F1F1F" stroke="none" stroke-linecap="round" d="M 51.6443 66.2386 L 56.5107 65.1108 L 64.0382 91.7021 L 52.8561 94.2208 L 51.6443 66.2386 Z " stroke-width="0.9578126376112066"/>
    <path id="ID0.751046194229275" fill="#191919" stroke="none" stroke-linecap="round" d="M 48.5982 61.9388 L 52.6194 59.2133 L 57.1873 60.381 L 58.9725 67.8801 L 55.0285 69.5666 L 49.9719 69.5126 L 48.5982 61.9388 Z " stroke-width="1.0535939081810382"/>
    <path id="ID0.7854711129330099" fill="#282828" stroke="none" stroke-linecap="round" d="M 44.0011 84.0296 L 58.6 89.9649 L 69.7784 78.3732 L 70.9226 95.3321 L 49.1811 99.2755 L 44.0011 84.0296 Z " stroke-width="0.9578126376112066"/>
    <path id="ID0.562834897544235" fill="#282828" stroke="none" stroke-linecap="round" d="M 40.6539 154.7737 L 67.9509 144.1823 L 71.439 163.4136 L 58.7964 166.9328 L 40.6539 154.7737 Z " stroke-width="0.9578126376112066"/>
    <path id="ID0.562834897544235" fill="#282828" stroke="none" stroke-linecap="round" d="M 97.6016 144.7684 L 68.3237 144.4384 L 71.8119 163.6697 L 84.8851 162.5247 L 97.6016 144.7684 Z " stroke-width="0.9578126376112066"/>
    <path id="ID0.6824178956449032" fill="none" stroke="#191919" stroke-width="1.9156252752224132" stroke-linecap="round" d="M 58.3755 90.2871 L 71.3622 163.2186 "/>
    <path id="ID0.4144489667378366" fill="#40474C" stroke="none" stroke-linecap="round" d="M 16.9196 67.8514 L 34.4778 56.8193 L 35.4189 77.9839 L 48.7933 134.4144 L 47.618 178.5245 L 36.4704 175.6417 L 36.8395 179.0081 L 31.3767 132.9139 L 19.4849 92.6453 L 15.7507 77.3824 L 16.9196 67.8514 Z " stroke-width="0.9578126376112066"/>
    <path id="ID0.5234400681219995" fill="#101010" stroke="none" d="M 61.4415 95.2913 C 61.8273 95.2213 62.2061 95.317 62.5061 95.5283 C 62.8061 95.7396 63.0273 96.0666 63.0984 96.4585 C 63.1694 96.8504 63.0772 97.2342 62.8705 97.5374 C 62.6639 97.8406 62.3428 98.0632 61.9569 98.1332 C 61.571 98.2032 61.1922 98.1075 60.8923 97.8962 C 60.5923 97.6849 60.3711 97.3579 60.3 96.966 C 60.2289 96.5741 60.3212 96.1903 60.5278 95.8871 C 60.7345 95.5839 61.0556 95.3613 61.4415 95.2913 Z " stroke-width="0.6034219456099621"/>
    <path id="ID0.5234400681219995" fill="#101010" stroke="none" d="M 63.7915 108.1913 C 64.1773 108.1213 64.5561 108.217 64.8561 108.4283 C 65.1561 108.6396 65.3773 108.9666 65.4484 109.3585 C 65.5194 109.7504 65.4272 110.1342 65.2205 110.4374 C 65.0139 110.7406 64.6928 110.9632 64.3069 111.0332 C 63.921 111.1032 63.5422 111.0075 63.2423 110.7962 C 62.9423 110.5849 62.7211 110.2579 62.65 109.866 C 62.5789 109.4741 62.6712 109.0903 62.8778 108.7871 C 63.0845 108.4839 63.4056 108.2613 63.7915 108.1913 Z " stroke-width="0.6034219456099621"/>
    <path id="ID0.5234400681219995" fill="#101010" stroke="none" d="M 69.2415 138.1413 C 69.6273 138.0713 70.0061 138.167 70.3061 138.3783 C 70.6061 138.5896 70.8273 138.9166 70.8984 139.3085 C 70.9694 139.7004 70.8772 140.0842 70.6705 140.3874 C 70.4639 140.6906 70.1428 140.9132 69.7569 140.9832 C 69.371 141.0532 68.9922 140.9575 68.6923 140.7462 C 68.3923 140.5349 68.1711 140.2079 68.1 139.816 C 68.0289 139.4241 68.1212 139.0403 68.3278 138.7371 C 68.5345 138.4339 68.8556 138.2113 69.2415 138.1413 Z " stroke-width="0.6034219456099621"/>
    <path id="ID0.5234400681219995" fill="#101010" stroke="none" d="M 66.6415 124.0413 C 67.0273 123.9713 67.4061 124.067 67.7061 124.2783 C 68.0061 124.4896 68.2273 124.8166 68.2984 125.2085 C 68.3694 125.6004 68.2772 125.9842 68.0705 126.2874 C 67.8639 126.5906 67.5428 126.8132 67.1569 126.8832 C 66.771 126.9532 66.3922 126.8575 66.0923 126.6462 C 65.7923 126.4349 65.5711 126.1079 65.5 125.716 C 65.4289 125.3241 65.5212 124.9403 65.7278 124.6371 C 65.9345 124.3339 66.2556 124.1113 66.6415 124.0413 Z " stroke-width="0.6034219456099621"/>
    <path id="ID0.5234400681219995" fill="#101010" stroke="none" d="M 71.5415 151.4413 C 71.9273 151.3713 72.3061 151.467 72.6061 151.6783 C 72.9061 151.8896 73.1273 152.2166 73.1984 152.6085 C 73.2694 153.0004 73.1772 153.3842 72.9705 153.6874 C 72.7639 153.9906 72.4428 154.2132 72.0569 154.2832 C 71.671 154.3532 71.2922 154.2575 70.9923 154.0462 C 70.6923 153.8349 70.4711 153.5079 70.4 153.116 C 70.3289 152.7241 70.4212 152.3403 70.6278 152.0371 C 70.8345 151.7339 71.1556 151.5113 71.5415 151.4413 Z " stroke-width="0.6034219456099621"/>
    <path id="ID0.4144489667378366" fill="#40474C" stroke="none" stroke-linecap="round" d="M 85.4468 54.6475 L 65.1325 50.4846 L 71.6844 70.6316 L 78.9805 128.1645 L 95.5725 169.0521 L 104.9976 162.4379 L 105.8342 165.7194 L 94.7607 120.6429 L 91.7525 78.763 L 89.8885 63.1608 L 85.4468 54.6475 Z " stroke-width="0.9578126376112066"/>
    <path id="ID0.8752945330925286" fill="none" stroke="#222222" stroke-width="1.9156252752224132" stroke-linecap="round" d="M 17.4302 68.004 L 15.7261 75.9154 L 25.2678 111.2151 "/>
    <path id="ID0.8752945330925286" fill="none" stroke="#222222" stroke-width="1.9156252752224132" stroke-linecap="round" d="M 85.7223 55.1698 L 90.0964 61.9787 L 93.5598 98.3809 "/>
    <path id="ID0.5234400681219995" fill="#101010" stroke="none" d="M 47.7415 142.6413 C 48.1273 142.5713 48.5061 142.667 48.8061 142.8783 C 49.1061 143.0896 49.3273 143.4166 49.3984 143.8085 C 49.4694 144.2004 49.3772 144.5842 49.1705 144.8874 C 48.9639 145.1906 48.6428 145.4132 48.2569 145.4832 C 47.871 145.5532 47.4922 145.4575 47.1923 145.2462 C 46.8923 145.0349 46.6711 144.7079 46.6 144.316 C 46.5289 143.9241 46.6212 143.5403 46.8278 143.2371 C 47.0345 142.9339 47.3556 142.7113 47.7415 142.6413 Z " stroke-width="0.6034219456099621"/>
    <path id="ID0.5234400681219995" fill="#101010" stroke="none" d="M 47.6415 149.7913 C 48.0273 149.7213 48.4061 149.817 48.7061 150.0283 C 49.0061 150.2396 49.2273 150.5666 49.2984 150.9585 C 49.3694 151.3504 49.2772 151.7342 49.0705 152.0374 C 48.8639 152.3406 48.5428 152.5632 48.1569 152.6332 C 47.771 152.7032 47.3922 152.6075 47.0923 152.3962 C 46.7923 152.1849 46.5711 151.8579 46.5 151.466 C 46.4289 151.0741 46.5212 150.6903 46.7278 150.3871 C 46.9345 150.0839 47.2556 149.8613 47.6415 149.7913 Z " stroke-width="0.6034219456099621"/>
    <g id="ID0.20783481979742646">
      <path id="ID0.5848579816520214" fill="#737373" stroke="none" stroke-linecap="round" d="M 80.5137 83.4182 L 86.6609 80.8318 L 87.2392 84.5526 L 80.5457 86.2571 L 80.5137 83.4182 Z " stroke-width="0.9578126376112066"/>
      <path id="ID0.13105127029120922" fill="none" stroke="#222222" stroke-width="1.9156252752224132" stroke-linecap="round" d="M 79.3264 86.7235 L 83.5344 85.9602 L 88.1854 83.6452 "/>
    </g>
  </g>
  <path id="ID0.46110434643924236" fill="#675B50" stroke="none" stroke-linecap="round" d="M 36.2068 37.7816 L 57.3543 33.9459 L 61.0557 51.8633 L 55.7543 55.6205 L 39.6691 56.8704 L 36.2068 37.7816 Z " stroke-width="1.0405048472656733"/>
  <path id="ID0.7592270169407129" fill="none" stroke="#675B50" stroke-width="0.998700885153018" stroke-linecap="round" d="M 56.5884 47.868 C 56.5884 47.868 56.7714 48.5381 56.7486 48.8783 C 56.7268 49.2085 56.5054 49.5032 56.4579 49.8308 C 56.4103 50.1604 56.5052 50.4993 56.4657 50.8298 C 56.4267 51.1584 56.3744 51.4986 56.2237 51.7941 C 56.0955 52.0454 55.6521 52.4231 55.6521 52.4231 "/>
  <g id="ID0.9597035455517471">
    <path id="ID0.5368814701214433" fill="#404040" stroke="none" stroke-linecap="round" d="M 139.7983 187.4124 L 137.6907 178.3659 L 136.7406 168.131 L 148.3085 167.9742 L 161.9002 168.6694 L 182.1942 168.4708 L 186.4917 173.4855 L 165.9767 187.287 L 145.9049 195.1557 L 139.7983 187.4124 Z " stroke-width="0.7702164921765663"/>
    <g id="ID0.5077062323689461">
      <path id="ID0.05466862628236413" fill="#252525" stroke="none" stroke-linecap="round" d="M 103.9583 123.7863 L 121.119 110.0928 L 126.8936 123.7041 L 128.7352 128.4255 L 135.913 141.0064 L 154.5748 168.6402 L 137.5014 181.5813 L 127.042 165.964 L 121.53 160.9741 L 116.6816 154.8437 L 112.5609 144.406 L 107.4583 135.6708 L 103.9583 123.7863 Z " stroke-width="0.5998532616188824"/>
      <path id="ID0.5319394422695041" fill="none" stroke="#131313" stroke-width="2.0000000597466254" stroke-linecap="round" d="M 153.9996 167.9408 L 137.5307 181.9529 L 130.9591 172.4627 "/>
    </g>
  </g>
  <g id="ID0.8820344842970371">
    <path id="ID0.3809091211296618" fill="#252525" stroke="none" stroke-linecap="round" d="M 76.1262 189.5673 L 45.0628 184.0465 L 60.3683 165.2231 L 89.9077 126.5802 L 97.4744 118.9255 L 108.0072 113.236 L 112.5482 120.2823 L 124.2961 127.3215 L 111.0915 146.3847 L 103.5147 157.0578 L 76.1262 189.5673 Z " stroke-width="0.7305889730988251"/>
    <path id="ID0.9495224836282432" fill="none" stroke="#131313" stroke-width="1.9999999214516093" stroke-linecap="round" d="M 90.1206 126.6261 L 95.8191 120.3191 L 102.6663 115.724 L 111.9901 118.0834 L 116.0841 115.0439 "/>
  </g>
  <path id="ID0.48112139804288745" fill="#3A3A3A" stroke="#3A3A3A" stroke-width="1.8513924219824303" stroke-linecap="round" d="M 65.1591 11.4161 C 65.7734 11.7048 65.2731 13.0843 65.5698 13.8299 C 65.808 14.4284 66.4527 14.8376 66.6234 15.4587 C 66.7867 16.0544 66.6023 16.6979 66.5258 17.3103 C 66.3108 19.0387 66.5174 21.2923 65.7517 22.6701 C 65.4392 23.1468 64.7689 21.5617 64.3695 21.0193 C 63.5545 19.9318 62.6856 18.7967 62.1127 17.6343 C 61.8394 17.0798 61.8456 16.4264 61.7458 15.8167 C 61.6472 15.2116 61.2997 14.5629 61.5182 13.9889 C 61.7398 13.4064 62.4092 13.0972 62.9205 12.7332 C 63.5872 12.2591 64.4488 11.1565 65.1591 11.4161 Z "/>
  <path id="ID0.05099705280736089" fill="#1C1916" stroke="#1C1916" stroke-width="1.9658420816079514" stroke-linecap="round" d="M 33.2049 31.6257 C 32.9047 31.8054 33.4007 32.9147 33.6017 33.653 C 33.774 34.2847 34.2057 34.8288 34.6182 35.341 C 35.0318 35.8542 35.5547 36.276 36.0573 36.7043 C 36.5599 37.1326 37.1082 37.5085 37.6336 37.9106 C 38.159 38.3127 38.5504 39.1995 39.2099 39.1169 C 39.8693 39.0342 40.3633 38.2106 40.4344 37.5581 C 40.5761 36.259 40.3246 34.8869 39.8032 33.6874 C 39.5407 33.0848 38.7927 32.8254 38.2269 32.4811 C 37.6621 32.1377 37.0741 31.7882 36.429 31.6338 C 35.487 31.4082 34.3183 30.7958 33.5323 31.3568 Z "/>
  <path id="ID0.8999492498114705" fill="#796B5E" stroke="none" stroke-linecap="round" d="M 53.2071 3.5887 C 57.5862 3.7364 62.448 6.0337 64.8291 9.6613 C 67.5463 13.803 66.4079 19.3551 66.6779 24.2411 C 66.7955 26.3852 66.2242 28.6385 65.8757 30.8173 C 65.3799 33.9128 64.7286 36.8889 64.1972 39.8706 C 63.8887 41.6808 64.3498 43.7812 63.3544 45.206 C 61.7707 47.4719 59.5913 49.8318 56.8869 50.4567 C 53.7619 51.1781 50.5338 49.5833 47.3959 48.84 C 45.8187 48.414 43.936 48.1911 42.7988 46.9636 C 40.3615 44.3282 38.9611 40.84 37.3561 37.6868 C 35.6709 34.3768 33.2279 31.2034 32.9022 27.4668 C 32.3487 21.1071 30.6779 13.3438 35.0302 8.4056 C 38.9005 3.6743 46.6976 3.3721 53.2071 3.5887 Z " stroke-width="0.4993604964870244"/>
  <path id="ID0.8194515448994935" fill="#796B5E" stroke="none" stroke-linecap="round" d="M 32.7775 23.6462 C 33.6262 23.6691 34.2765 24.1785 34.8524 25.1733 C 35.4283 26.1681 35.8426 27.5693 35.958 29.1414 C 36.0734 30.7134 35.8681 32.1602 35.4437 33.2284 C 35.0193 34.2965 34.4474 34.8693 33.614 35.0421 C 32.8489 35.1991 31.8258 34.8541 31.4215 34.2238 C 30.6445 32.8139 30.6359 31.0744 30.4335 29.5469 C 30.234 28.0457 29.7572 26.414 30.249 25.0069 C 30.6605 24.1404 31.888 23.6224 32.7775 23.6462 Z " stroke-width="0.9829210408039757"/>
  <path id="ID0.8256730306893587" fill="none" stroke="#675B50" stroke-width="0.9987207326218244" stroke-linecap="round" d="M 59.6689 39.8364 C 59.6689 39.8364 58.4385 39.3013 57.7929 39.3837 C 57.1857 39.414 56.767 40.1125 56.1388 40.1538 C 55.3931 40.2025 54.7156 39.5806 53.9707 39.5857 C 52.784 40.0188 51.4184 40.462 51.4184 40.462 "/>
  <path id="ID0.7592270169407129" fill="none" stroke="#675B50" stroke-width="0.9987209929740488" stroke-linecap="round" d="M 53.4746 42.6777 C 53.4746 42.6777 54.1127 42.9686 54.4559 43.0036 C 54.789 43.0379 55.1199 42.8718 55.4546 42.8806 C 55.7914 42.8897 56.1138 43.0392 56.4501 43.0563 C 56.7844 43.0735 57.1326 43.0798 57.4525 42.9827 C 57.7246 42.9 58.1752 42.5316 58.1752 42.5316 "/>
  <path id="ID0.7788236327469349" fill="#FFFFFF" stroke="none" stroke-linecap="round" d="M 44.1966 24.3003 L 45.5141 24.0077 L 47.7159 23.6013 L 49.8441 23.543 L 50.3009 25.7128 L 47.8282 26.4818 L 42.8491 26.2108 L 44.1966 24.3003 Z " stroke-width="0.9829210408039757"/>
  <path id="ID0.036129117012023926" fill="#5E3B21" stroke="none" d="M 48.4569 23.5233 C 48.8584 23.4938 49.2342 23.6278 49.5167 23.8686 C 49.7992 24.1093 49.9883 24.4567 50.0174 24.8532 C 50.0465 25.2496 49.9101 25.6209 49.6658 25.9003 C 49.4215 26.1797 49.0693 26.3672 48.6678 26.3966 C 48.2663 26.4261 47.8904 26.2921 47.608 26.0514 C 47.3255 25.8107 47.1363 25.4632 47.1072 25.0668 C 47.0781 24.6704 47.2145 24.299 47.4588 24.0196 C 47.7031 23.7402 48.0553 23.5528 48.4569 23.5233 Z " stroke-width="0.9829210408039757"/>
  <path id="ID0.9171876185573637" fill="#191009" stroke="none" d="M 48.9204 24.0842 C 49.1246 24.0692 49.3151 24.1375 49.459 24.2601 C 49.6029 24.3827 49.6991 24.5588 49.7139 24.7604 C 49.7287 24.962 49.6592 25.1502 49.5348 25.2925 C 49.4103 25.4349 49.2318 25.5302 49.0276 25.5452 C 48.8234 25.5602 48.6329 25.4919 48.489 25.3693 C 48.3452 25.2467 48.2489 25.0706 48.2341 24.869 C 48.2193 24.6674 48.2888 24.4792 48.4133 24.3369 C 48.5377 24.1945 48.7162 24.0992 48.9204 24.0842 Z " stroke-width="0.9829210408039757"/>
  <path id="ID0.7788236327469349" fill="#FFFFFF" stroke="none" stroke-linecap="round" d="M 63.1874 23.1479 L 61.471 22.7353 L 59.5473 22.8765 L 57.4334 23.1296 L 57.2983 25.3429 L 59.8569 25.7426 L 64.412 24.9676 L 63.1874 23.1479 Z " stroke-width="0.9829210408039757"/>
  <g id="ID0.8607796453870833">
    <path id="ID0.036129117012023926" fill="#5E3B21" stroke="none" d="M 61.6069 22.6733 C 62.0084 22.6438 62.3842 22.7778 62.6667 23.0186 C 62.9492 23.2593 63.1383 23.6067 63.1674 24.0032 C 63.1965 24.3996 63.0601 24.7709 62.8158 25.0503 C 62.5715 25.3297 62.2193 25.5172 61.8178 25.5466 C 61.4163 25.5761 61.0404 25.4421 60.758 25.2014 C 60.4755 24.9607 60.2863 24.6132 60.2572 24.2168 C 60.2281 23.8204 60.3645 23.449 60.6088 23.1696 C 60.8531 22.8902 61.2053 22.7028 61.6069 22.6733 Z " stroke-width="0.9829210408039757"/>
    <path id="ID0.9171876185573637" fill="#191009" stroke="none" d="M 61.9704 23.2842 C 62.1746 23.2692 62.3651 23.3375 62.509 23.4601 C 62.6529 23.5827 62.7491 23.7588 62.7639 23.9604 C 62.7787 24.162 62.7092 24.3502 62.5848 24.4925 C 62.4603 24.6349 62.2818 24.7302 62.0776 24.7452 C 61.8734 24.7602 61.6829 24.6919 61.539 24.5693 C 61.3952 24.4467 61.2989 24.2706 61.2841 24.069 C 61.2693 23.8674 61.3388 23.6792 61.4633 23.5369 C 61.5877 23.3945 61.7662 23.2992 61.9704 23.2842 Z " stroke-width="0.9829210408039757"/>
  </g>
  <path id="ID0.2118154256604612" fill="#1C1916" stroke="#1C1916" stroke-width="1.9658420816079514" stroke-linecap="round" d="M 31.7303 21.6254 C 31.7395 22.1291 32.1629 24.3699 33.0136 25.5952 C 33.3274 26.0471 33.4517 24.3076 33.7163 23.683 C 33.9724 23.0776 34.3348 22.5163 34.5777 21.906 C 34.8372 21.2534 35.0385 20.5767 35.2239 19.9001 C 35.4039 19.2445 35.5392 18.5745 35.6728 17.9086 C 35.805 17.2506 35.8373 16.5696 36.023 15.9244 C 36.2078 15.2802 36.5104 14.6724 36.7786 14.0573 C 37.0479 13.4421 37.148 12.6974 37.6365 12.2317 C 38.1388 11.7522 38.8704 11.5163 39.5594 11.405 C 40.2201 11.2987 40.8923 11.5383 41.5575 11.6011 C 42.2556 11.6664 42.9593 11.6999 43.6542 11.7899 C 44.3271 11.8766 45 11.9908 45.663 12.1321 C 46.3089 12.2698 46.9433 12.468 47.5839 12.6276 C 48.2547 12.7948 48.941 12.9158 49.6034 13.1159 C 50.2444 13.3097 50.8365 13.6599 51.4892 13.8098 C 52.1399 13.9589 52.8481 14.2026 53.4873 14.0059 C 54.1293 13.8079 54.5086 13.1377 55.0292 12.7176 C 55.5536 12.2952 56.0432 11.8166 56.6241 11.4744 C 57.1926 11.1398 57.8141 10.8778 58.452 10.7037 C 59.5333 10.4098 60.7686 9.9294 61.9784 10.102 C 63.1373 10.2696 64.6121 12.1473 65.2182 11.6758 C 65.7931 11.2243 64.7212 9.3367 64.1223 8.231 C 63.4754 7.0387 62.5402 5.9861 61.5115 5.0931 C 60.52 4.2327 59.3863 3.462 58.1373 3.0396 C 56.87 2.6107 55.4751 2.6866 54.1376 2.5987 C 53.4798 2.555 52.8172 2.6624 52.1575 2.6462 C 51.4917 2.6294 50.8293 2.4832 50.163 2.4988 C 48.8461 2.5299 47.5035 2.508 46.2169 2.7885 C 44.8775 3.0797 43.6448 3.744 42.3531 4.1983 C 41.713 4.4235 41.0471 4.581 40.4158 4.8301 C 39.1675 5.3232 37.9232 5.8425 36.7142 6.4238 C 36.1173 6.7105 35.4663 6.962 35.0028 7.4308 C 34.5134 7.925 34.3397 8.6526 33.9441 9.2222 C 33.5611 9.7732 32.9818 10.1918 32.6702 10.7846 C 32.3466 11.4018 32.2108 12.1051 32.0734 12.7869 C 31.9434 13.4349 31.8811 14.0995 31.8711 14.7603 C 31.8613 15.4103 32.0487 16.0585 32.0141 16.7083 C 31.9789 17.3778 31.7779 18.031 31.6638 18.6925 C 31.5699 19.237 31.281 19.7871 31.3872 20.3286 Z "/>
  <path id="ID0.5261953212320805" fill="none" stroke="#1C1916" stroke-width="1.9658421313223187" stroke-linecap="round" d="M 41.9881 24.2438 C 41.9881 24.2438 42.5264 22.9153 43.0395 22.4432 C 43.5303 21.9913 44.2151 21.7724 44.8607 21.5984 C 45.5063 21.4243 46.1993 21.5208 46.8598 21.4136 C 48.0972 21.2116 50.5527 20.6711 50.5527 20.6711 "/>
  <path id="ID0.5261953212320805" fill="none" stroke="#1C1916" stroke-width="1.9658420716216627" stroke-linecap="round" d="M 65.0379 22.3238 C 65.0379 22.3238 64.3354 21.0743 63.7666 20.6711 C 63.2223 20.2851 62.5154 20.1549 61.8528 20.0642 C 61.1903 19.9735 60.5153 20.1571 59.8464 20.1345 C 58.5934 20.0911 56.0892 19.8666 56.0892 19.8666 "/>
  <path id="ID0.8619630038738251" fill="none" stroke="#675B50" stroke-width="1.1552937780605956" stroke-linecap="round" d="M 53.9538 24.6744 C 53.9538 24.6744 54.494 27.4679 54.7533 28.8168 C 54.901 29.5742 54.8086 30.4431 55.2403 31.083 C 55.7621 31.8072 56.8612 31.7087 57.1716 32.38 C 57.5747 33.0761 57.7841 34.4039 57.1057 34.658 C 56.0743 35.0439 55.0044 33.7931 53.835 33.7759 C 53.2072 33.7673 52.1815 34.6742 52.1815 34.6742 "/>
  <path id="ID0.6736386958509684" fill="none" stroke="#675B50" stroke-width="1.232318894005444" stroke-linecap="round" d="M 42.2155 32.4341 C 42.2155 32.4341 42.8018 33.1277 43.1288 33.4413 C 43.4271 33.7276 43.7853 33.9487 44.0883 34.2303 C 44.3979 34.5182 44.7388 34.7921 44.9639 35.1482 C 45.1925 35.509 45.3793 35.9188 45.4246 36.3421 C 45.546 37.4793 45.4592 39.7772 45.4592 39.7772 "/>
  <path id="ID0.18298013787716627" fill="#1C1916" stroke="#1C1916" stroke-width="1.9658420816079514" stroke-linecap="round" d="M 40.5805 10.9112 C 40.1758 11.1406 39.7734 12.077 39.9836 12.9135 C 40.3167 14.2355 41.6665 15.5583 41.5028 16.719 C 41.4217 17.29 40.1318 16.6071 39.494 16.3768 C 38.8725 16.1522 38.3424 15.7279 37.784 15.3762 C 37.1819 14.9974 36.4 14.7757 36.0104 14.1844 C 35.6499 13.638 35.5171 12.8683 35.7194 12.2473 C 35.9225 11.6223 36.5391 11.1726 37.1027 10.8237 C 37.6785 10.4671 38.3713 10.3115 39.04 10.1919 C 39.3229 10.1417 39.7997 10.0568 39.8928 10.3251 Z "/>
  <path id="ID0.7592270169407129" fill="none" stroke="#675B50" stroke-width="0.9987155747920929" stroke-linecap="round" d="M 53.7574 17.283 C 53.7574 17.283 54.0256 17.9246 54.047 18.2646 C 54.0681 18.5947 53.8865 18.9144 53.8816 19.2451 C 53.8771 19.5777 54.0151 19.9019 54.0187 20.2345 C 54.0224 20.5651 54.0145 20.9089 53.9032 21.2205 C 53.8084 21.4856 53.4173 21.9152 53.4173 21.9152 "/>
  <path id="ID0.48112139804288745" fill="#3A3A3A" stroke="#3A3A3A" stroke-width="1.8513924219824303" stroke-linecap="round" d="M 31.886 15.282 C 31.3204 15.6573 32.0168 16.949 31.8322 17.7299 C 31.6839 18.3568 31.1059 18.8557 31.0277 19.4951 C 30.9531 20.1083 31.2295 20.7179 31.3946 21.3126 C 31.8597 22.9911 31.9845 25.2507 32.9432 26.5019 C 33.3219 26.9278 33.7535 25.2619 34.0695 24.6669 C 34.7169 23.4721 35.4107 22.2223 35.8078 20.9887 C 35.9972 20.4002 35.8956 19.7547 35.9054 19.137 C 35.9145 18.524 36.1635 17.8315 35.8636 17.2956 C 35.5593 16.7517 34.8519 16.5435 34.2929 16.2581 C 33.5641 15.8864 32.5508 14.9214 31.886 15.282 Z "/>
</svg>