<svg xmlns="http://www.w3.org/2000/svg" xmlns:xlink="http://www.w3.org/1999/xlink" version="1.1" width="136.09620666503906" height="316.14862060546875" viewBox="1.7620000839233398 0.2985072135925293 136.09620666503906 316.14862060546875">
  <!-- Exported by Scratch - http://scratch.mit.edu/ -->
  <path id="ID0.7729651997797191" fill="#7C0D0D" stroke="none" stroke-linecap="round" d="M 94.8389 87.142 L 75.5368 86.558 L 77.5621 102.9695 L 79.0941 116.208 L 82.284 121.9725 L 85.2803 125.5689 L 97.6022 123.3669 L 99.4713 117.8674 L 95.9657 98.3885 L 94.8389 87.142 Z " stroke-width="0.7788099067697941"/>
  <path id="ID0.4757494777441025" fill="#7C0D0D" stroke="none" stroke-linecap="round" d="M 87.8616 62.8208 L 79.9052 60.0442 L 64.3306 63.3012 L 69.9302 88.2103 L 79.3358 93.8552 L 83.5401 95.264 L 86.7991 93.2804 L 89.7704 90.7004 L 95.4246 88.7068 L 96.0112 83.5154 L 96.0327 75.7643 L 93.7001 67.5708 L 87.8616 62.8208 Z " stroke-width="0.454186056629289"/>
  <path id="ID0.6507829907350242" fill="#7C0D0D" stroke="none" stroke-linecap="round" d="M 102.1509 116.3517 L 83.2356 124.4053 L 81.9819 142.4733 L 83.0031 152.7327 L 81.6087 168.0508 L 80.4622 174.2027 L 91.7258 177.1831 L 92.4846 170.9959 L 95.0769 161.8475 L 98.8682 150.2667 L 101.4428 141.3122 L 102.1509 116.3517 Z " stroke-width="0.7788099067697941"/>
  <path id="ID0.6829322893172503" fill="#7C0D0D" stroke="none" stroke-linecap="round" d="M 94.398 172.8697 L 84.4681 168.0021 L 81.3529 173.2591 L 77.4588 178.9055 L 77.4588 184.3571 L 78.043 188.8353 L 79.99 191.7558 L 81.3529 198.181 L 85.8311 197.9863 L 86.9993 196.0393 L 88.5569 195.8446 L 91.6721 193.3134 L 94.9821 190.3929 L 96.9291 186.1094 L 96.1503 179.2949 L 94.398 172.8697 Z " stroke-width="0.7788099050521851"/>
  <path id="ID0.3809091211296618" fill="#7C0D0D" stroke="none" stroke-linecap="round" d="M 50.8613 159.5837 L 76.6409 147.3405 L 79.8037 186.005 L 78.8656 196.9106 L 73.5946 214.7602 L 64.9676 217.3924 L 52.0144 218.6829 L 52.0844 197.8635 L 53.8908 186.5495 L 50.8613 159.5837 Z " stroke-width="0.7305889665074583"/>
  <path id="ID0.5368814701214433" fill="#7C0D0D" stroke="none" stroke-linecap="round" d="M 47.9528 301.2777 L 50.8362 292.4477 L 55.3251 283.2008 L 65.3012 289.0588 L 76.5673 296.6939 L 94.0293 307.0362 L 95.1078 313.5518 L 70.4104 314.7307 L 49.1654 311.0644 L 47.9528 301.2777 Z " stroke-width="0.7702165290554439"/>
  <path id="ID0.05466862628236413" fill="#7C0D0D" stroke="none" stroke-linecap="round" d="M 50.8175 212.0085 L 77.2381 207.8915 L 72.5489 226.792 L 71.0246 231.8481 L 70.6139 249.986 L 67.8171 290.6424 L 52.1624 292.678 L 49.7549 270.5594 L 46.9393 261.9526 L 45.5145 252.5404 L 47.461 239.0124 L 47.3407 226.6918 L 50.8175 212.0085 Z " stroke-width="0.7305889665074583"/>
  <path id="ID0.3809091211296618" fill="#7C0D0D" stroke="none" stroke-linecap="round" d="M 25.4933 135.207 L 48.7409 148.4905 L 51.9037 187.155 L 50.9656 198.0606 L 45.6946 215.9102 L 37.0676 218.5424 L 24.1144 219.8329 L 23.4531 198.071 L 21.7148 184.7681 L 25.4933 135.207 Z " stroke-width="0.7305889665074583"/>
  <path id="ID0.5368814701214433" fill="#7C0D0D" stroke="none" stroke-linecap="round" d="M 3.056 294.3802 L 7.6674 286.3168 L 13.9355 278.1702 L 22.519 285.9267 L 32.0059 295.6847 L 47.0124 309.3482 L 46.7494 315.9471 L 22.3248 312.1014 L 2.262 304.2097 L 3.056 294.3802 Z " stroke-width="0.7702165377818038"/>
  <path id="ID0.05466862628236413" fill="#7C0D0D" stroke="none" stroke-linecap="round" d="M 23.8306 207.4099 L 50.5375 208.7273 L 42.1188 226.287 L 39.6024 230.9298 L 35.5279 248.6089 L 24.5576 287.857 L 8.815 286.681 L 10.9355 264.533 L 9.9208 255.5344 L 10.4311 246.0287 L 15.0763 233.1749 L 17.4529 221.0851 L 23.8306 207.4099 Z " stroke-width="0.7305889797059409"/>
  <path id="ID0.7729651997797191" fill="#7C0D0D" stroke="none" stroke-linecap="round" d="M 17.0501 87.898 L 21.1946 68.0823 L 37.4236 74.1763 L 50.5397 78.9885 L 55.6316 83.6551 L 58.5612 87.5919 L 53.2913 99.6094 L 47.2272 100.164 L 28.2356 91.8081 L 17.0501 87.898 Z " stroke-width="0.8164596096201959"/>
  <path id="ID0.4757494777441025" fill="#7C0D0D" stroke="none" stroke-linecap="round" d="M 20.7846 54.5283 L 29.5141 53.1714 L 44.9568 59.4778 L 34.4679 84.1019 L 23.7012 88.142 L 19.0993 88.7989 L 16.1144 86.1366 L 13.5391 82.914 L 8.0863 79.788 L 8.4642 74.3241 L 9.9092 66.3278 L 13.8653 58.3209 L 20.7846 54.5283 Z " stroke-width="0.4761425455089398"/>
  <path id="ID0.6507829907350242" fill="#7C0D0D" stroke="none" stroke-linecap="round" d="M 45.0245 102.5228 L 57.8773 85.2223 L 76.5997 88.3813 L 86.8051 91.9413 L 102.7594 94.2816 L 109.3108 94.6237 L 109.5825 106.8352 L 103.0904 106.0892 L 93.13 106.4848 L 80.3961 107.5051 L 70.6376 107.9303 L 45.0245 102.5228 Z " stroke-width="0.8164596096201959"/>
  <path id="ID0.6829322893172503" fill="#7C0D0D" stroke="none" stroke-linecap="round" d="M 109.1193 107.1798 L 105.5813 96.1396 L 111.5081 93.7082 L 117.9572 90.5282 L 123.6119 91.3577 L 128.168 92.6449 L 130.901 95.1088 L 137.3582 97.5001 L 136.4748 102.1154 L 134.2776 103.0309 L 133.8386 104.6169 L 130.7392 107.463 L 127.2063 110.4519 L 122.4671 111.8197 L 115.5172 109.975 L 109.1193 107.1798 Z " stroke-width="0.8164596096201959"/>
  <path id="ID0.5922487881034613" fill="#7C0D0D" stroke="none" stroke-linecap="round" d="M 78.4247 108.4249 L 73.8758 100.6197 L 74.8453 94.5729 L 81.6429 89.2985 L 96.259 92.8866 L 103.0499 98.6277 L 102.5463 102.0609 L 94.3872 107.053 L 78.4247 108.4249 Z " stroke-width="0.8164596096201959"/>
  <path id="ID0.7477802094072104" fill="#670A0A" stroke="none" stroke-linecap="round" d="M 83.8453 108.4085 L 64.7656 103.1572 L 60.1811 144.0876 L 75.7488 154.8147 L 80.7496 130.7002 L 83.8453 108.4085 Z " stroke-width="0.476142567308874"/>
  <path id="ID0.7477802094072104" fill="#670A0A" stroke="none" stroke-linecap="round" d="M 23.8715 101.7757 L 47.4938 101.5468 L 42.9093 142.4772 L 25.3542 149.4944 L 22.7083 123.9245 L 23.8715 101.7757 Z " stroke-width="0.476142567308874"/>
  <path id="ID0.4270821204409003" fill="#7C0D0D" stroke="none" stroke-linecap="round" d="M 26.4171 81.8779 L 31.5938 69.8808 L 34.4907 64.336 L 41.7787 58.0853 L 72.4949 62.9631 L 78.8791 67.9902 L 81.2677 72.3303 L 86.9752 84.4684 L 85.0994 94.7989 L 83.5436 100.1346 L 84.4312 107.1812 L 84.2949 112.6758 L 81.3971 119.2985 L 79.2053 124.3233 L 76.9888 133.4179 L 76.0414 155.3513 L 70.0168 162.9413 L 64.5696 168.5837 L 51.9229 172.6292 L 40.7374 168.334 L 37.581 161.2248 L 33.3753 154.2857 L 25.2262 150.2586 L 26.9128 124.9344 L 26.4718 118.1773 L 23.2012 106.3121 L 23.1057 95.4014 L 26.4171 81.8779 Z " stroke-width="0.476142567308874"/>
  <path id="ID0.9286923445761204" fill="#7C0D0D" stroke="none" stroke-linecap="round" d="M 51.0701 24.8908 L 69.6665 28.0657 L 67.9329 52.3633 L 82.4592 60.8573 L 58.669 70.0946 L 23.2944 54.2763 L 44.0519 45.5279 L 51.0701 24.8908 Z " stroke-width="0.47614257518855185"/>
  <path id="ID0.8999492498114705" fill="#7C0D0D" stroke="none" stroke-linecap="round" d="M 68.4661 1.4722 C 72.849 2.1174 77.4751 5.0047 79.459 8.9654 C 81.7227 13.4873 79.5647 19.0083 79.6754 24.0116 C 79.7841 25.7204 80.5098 27.5018 80.1179 29.1123 C 79.3199 32.3883 77.5326 35.3517 76.3311 38.5016 C 75.5438 40.5659 75.3005 42.9132 74.0604 44.7707 C 72.6603 46.972 71.2001 50.0531 68.5851 50.4102 C 64.7084 50.9393 60.7044 48.9454 57.3236 47.061 C 54.5463 45.5126 51.9784 43.2019 50.5099 40.372 C 47.8867 35.1242 45.5415 29.3714 45.3786 23.4769 C 45.1981 16.9427 44.7334 8.8533 49.662 4.3197 C 54.0829 -0.0577 61.9505 0.516 68.4661 1.4722 Z " stroke-width="0.5080372497650694"/>
  <path id="ID0.6101007834076881" fill="#FFFFFF" stroke="none" stroke-linecap="round" d="M 56.7643 21.0351 L 58.4008 21.4971 L 62.1326 22.8403 L 62.6025 24.8278 L 57.4065 23.1773 L 56.7643 21.0351 Z " stroke-width="0.4061062022990704"/>
  <path id="ID0.6101007834076881" fill="#FFFFFF" stroke="none" stroke-linecap="round" d="M 76.6622 21.0534 L 75.1033 21.4862 L 71.5471 22.7487 L 71.0918 24.6377 L 76.0423 23.0889 L 76.6622 21.0534 Z " stroke-width="0.38638671270756264"/>
  <path id="ID0.043594349175691605" fill="#D7E2FD" stroke="none" stroke-linecap="round" d="M 61.7756 23.8755 L 62.0463 22.7673 L 62.4762 24.8426 L 59.9149 24.0085 L 61.7756 23.8755 Z " stroke-width="0.5080372497650694"/>
  <path id="ID0.043594349175691605" fill="#D7E2FD" stroke="none" stroke-linecap="round" d="M 71.9316 24.1158 L 71.7046 23.1038 L 71.2782 24.9828 L 73.6206 24.2685 L 71.9316 24.1158 Z " stroke-width="0.46186425497804096"/>
</svg>