<svg xmlns="http://www.w3.org/2000/svg" xmlns:xlink="http://www.w3.org/1999/xlink" version="1.1" width="142.93474546267709" height="266.7870709021302" viewBox="1.5552479466094535 11.74048535429378 142.93474546267709 266.7870709021302">
  <!-- Exported by Scratch - http://scratch.mit.edu/ -->
  <path id="ID0.7766774026677012" fill="#0D0D0D" stroke="#0D0D0D" stroke-width="1.9914776404114638" stroke-linecap="round" d="M 135.7439 140.3091 C 140.514 107.4557 146.9239 73.571 141.3005 40.463 C 139.1735 27.9455 125.0006 19.9694 113.8329 13.7507 C 108.735 10.9152 102.4313 14.8362 96.7818 15.6721 C 95.1783 15.9053 93.8777 16.7402 92.4685 17.212 C 90.5065 17.6849 88.4803 17.9539 86.6757 18.5044 C 86.0365 18.701 85.394 18.893 84.7861 19.1934 C 84.0877 19.4284 83.5128 19.8348 82.8555 20.1269 C 81.4999 20.6539 80.1362 21.2299 78.7888 21.7081 C 77.4577 22.0885 76.0937 22.3628 74.8038 22.8004 C 74.1629 22.9947 73.4809 23.1319 72.9142 23.4894 C 72.2487 23.8304 71.7397 24.4489 71.1483 24.953 C 70.5734 25.3594 69.9984 25.7658 69.4234 26.1723 C 68.8567 26.5298 68.1419 26.8625 67.6986 27.3915 C 67.214 27.8633 66.9927 28.5801 66.6315 29.2234 C 66.2786 29.8177 65.8763 30.4038 65.5645 31.0553 C 64.908 32.2522 64.2925 33.5063 63.6771 34.7604 C 63.3241 35.3548 62.9712 35.9491 62.6101 36.5924 C 62.2571 37.1867 61.9042 37.781 61.5431 38.4243 C 61.1901 39.0186 60.8372 39.613 60.4761 40.2562 C 60.1231 40.8506 59.6715 41.4284 59.409 42.0881 C 59.1054 42.6907 58.999 43.3263 58.8352 44.0026 C 58.6302 44.6217 58.4252 45.2408 58.2613 45.917 C 58.0563 46.5361 57.9006 47.1635 57.6874 47.8315 C 57.4331 48.4424 57.0802 49.0367 56.867 49.7047 C 56.1041 51.5372 55.3741 53.4758 54.6523 55.3655 C 54.3979 55.9764 54.045 56.5707 53.8318 57.2387 C 53.5775 57.8496 53.4218 58.4769 53.2579 59.1532 C 53.0529 59.7723 52.7986 60.3831 52.6841 61.0676 C 52.5284 61.695 52.4713 62.3389 52.3568 63.0234 C 52.144 64.2946 51.8245 65.5982 51.7022 66.9348 C 51.5958 67.5704 51.744 67.8968 51.6215 68.9318 C 51.008 72.9004 50.2877 76.9013 49.6168 80.9106 C 48.9704 84.7731 48.3076 88.7335 47.653 92.6449 C 47.3339 94.5517 47.0477 96.5646 46.6711 98.5121 C 46.5154 99.1394 46.3104 99.7585 46.0972 100.4265 C 45.6052 101.852 45.0227 103.2122 44.6211 104.7031 C 44.4161 105.3222 44.4083 105.9743 44.2938 106.6588 C 44.1381 107.2862 43.8838 107.897 43.7199 108.5733 C 43.3099 109.8115 42.8424 111.0903 42.5722 112.4022 C 42.2608 113.6569 42.1385 114.9935 41.9176 116.3136 C 41.2712 120.1762 40.6084 124.1365 39.9538 128.0479 C 39.7983 128.9769 39.7904 129.3274 39.6265 130.0037 C 39.4215 130.6228 39.0193 131.2089 38.8061 131.8769 C 38.1418 133.7259 37.6583 135.7058 37.0845 137.6202 C 36.8795 138.2393 36.7238 138.8667 36.5106 139.5347 C 35.9856 140.8542 35.3127 142.1489 34.8288 143.5255 C 34.5663 144.1853 34.3861 144.9593 34.214 145.6844 C 34.0009 146.3524 33.7302 147.0611 33.5993 147.8434 C 33.4436 148.4707 33.3865 149.1146 33.272 149.7991 C 33.1656 150.4347 32.9606 151.0538 32.9447 151.7548 C 32.8799 153.0508 33.0041 154.4287 33.0298 155.79 C 33.022 156.4422 33.0143 157.0943 32.9491 157.787 C 32.8427 158.4226 32.7363 159.0582 32.6218 159.7427 C 32.5154 160.3784 32.409 161.014 32.2945 161.6985 C 31.9831 162.9532 31.7622 164.2733 31.3933 165.5686 C 30.9915 166.758 30.0399 169.1118 30.0399 169.1118 C 29.7115 169.5595 28.6323 172.2398 28.0297 173.5503 C 27.7027 174.2626 27.2658 174.9223 26.9218 175.6267 C 26.6226 176.2391 26.3751 176.8762 26.1014 177.4999 C 25.8277 178.1236 25.5166 178.734 25.2809 179.3731 C 25.0506 179.998 24.9374 180.6627 24.707 181.2876 C 24.4713 181.9267 24.196 182.5541 23.8866 183.1608 C 23.5664 183.7897 23.1031 184.3465 22.8196 184.9927 C 22.5523 185.6024 22.4366 186.2696 22.2457 186.9071 C 22.0549 187.5447 21.8627 188.184 21.6719 188.8216 C 21.481 189.4592 21.2888 190.0985 21.098 190.7361 C 20.9071 191.3736 20.6615 191.999 20.5241 192.6505 C 20.2521 193.943 20.1416 195.2695 19.8695 196.562 C 19.7321 197.2135 19.4865 197.8389 19.2957 198.4764 C 19.1048 199.114 18.8592 199.7393 18.7218 200.3909 C 18.4497 201.6833 18.2576 202.9952 18.0672 204.3023 C 17.6863 206.9175 17.3745 209.5504 17.0046 212.1665 C 16.9124 212.8205 16.7863 213.4709 16.6773 214.1222 C 16.5683 214.7734 16.5002 215.4346 16.35 216.0779 C 16.1989 216.7261 16.0064 217.3674 15.7761 217.9924 C 15.5404 218.6314 15.151 219.2137 14.9557 219.8655 C 14.7656 220.4982 14.7786 221.1779 14.6284 221.8213 C 14.4773 222.4695 14.2056 223.0875 14.0545 223.7357 C 13.9043 224.3791 13.8775 225.0481 13.7272 225.6914 C 13.5762 226.3397 13.3837 226.981 13.1534 227.6059 C 12.9176 228.245 12.5686 228.84 12.3329 229.4791 C 12.1026 230.104 11.9894 230.7686 11.759 231.3935 C 11.5233 232.0326 11.1608 232.6234 10.9386 233.2667 C 10.504 234.5249 10.1736 235.8207 9.7909 237.0956 C 9.6 237.7332 9.4079 238.3725 9.217 239.0101 C 9.0261 239.6477 8.7942 240.2763 8.6431 240.9246 C 8.4929 241.5679 8.3832 242.2231 8.3158 242.8803 C 8.2476 243.5424 8.3173 244.2165 8.2351 244.8773 C 8.0715 246.1879 7.9596 247.5232 7.5805 248.7887 C 7.19 250.0925 6.5341 251.3097 5.9396 252.5351 C 5.6316 253.1701 5.1928 253.738 4.8726 254.367 C 4.5632 254.9737 4.3616 255.6335 4.0522 256.2402 C 3.732 256.8692 3.2288 257.4102 2.9852 258.0721 C 2.7567 258.6923 2.3595 259.4361 2.6579 260.0279 C 2.9761 260.6591 3.8258 260.8888 4.5077 261.0914 C 5.151 261.2825 5.8594 261.0663 6.5212 261.177 C 7.183 261.2878 7.7911 261.6408 8.4528 261.7516 C 9.1146 261.8624 9.7986 261.7677 10.4663 261.8373 C 11.1291 261.9059 11.8005 261.9771 12.4389 262.1674 C 13.0966 262.3629 13.7636 262.6002 14.3296 262.9864 C 14.9202 263.3898 15.2184 264.1645 15.8511 264.4976 C 16.4399 264.8082 17.1668 264.7178 17.8236 264.8277 C 18.4805 264.9376 19.1307 265.1299 19.7962 265.1578 C 20.4818 265.1871 21.165 264.9697 21.8506 264.999 C 22.5161 265.027 23.1742 265.1783 23.8232 265.3291 C 24.4771 265.4808 25.1009 265.752 25.7548 265.9037 C 26.4038 266.0545 27.089 266.0436 27.7274 266.2338 C 28.3851 266.4293 28.9604 266.8573 29.6181 267.0529 C 30.2565 267.2431 30.9417 267.2322 31.5907 267.383 C 32.2446 267.5346 32.8791 267.7665 33.5224 267.9576 C 34.1656 268.1487 34.7888 268.4419 35.454 268.5322 C 37.4408 268.8013 39.4595 268.8255 41.4535 269.0336 C 42.1163 269.1023 42.7771 269.2129 43.4261 269.3637 C 44.08 269.5153 44.7006 269.8001 45.3578 269.9383 C 46.6615 270.2117 47.9992 270.325 49.3029 270.5985 C 49.9601 270.7366 50.5806 271.0214 51.2346 271.1731 C 51.8836 271.3239 52.5444 271.4345 53.2071 271.5032 C 53.8748 271.5727 54.5529 271.5193 55.2206 271.5889 C 55.8834 271.6575 56.5304 271.8503 57.1932 271.919 C 57.8609 271.9885 58.5377 271.949 59.2067 272.0046 C 60.5366 272.1156 61.876 272.2 63.1927 272.4204 C 63.8545 272.5311 64.4937 272.7648 65.1244 272.995 C 65.7693 273.2306 66.3573 273.6185 67.0151 273.814 C 67.6534 274.0043 68.3308 274.0342 68.9877 274.1441 C 70.9583 274.4739 72.9459 274.7442 74.9054 275.1345 C 75.5637 275.2658 76.1831 275.5574 76.837 275.7091 C 77.486 275.8599 78.1468 275.9705 78.8096 276.0392 C 79.4773 276.1087 80.1526 276.0961 80.8231 276.1248 C 81.4935 276.1536 82.1689 276.141 82.8366 276.2105 C 83.4993 276.2792 84.143 276.5528 84.8091 276.5406 C 85.52 276.5279 85.2614 276.2856 86.9044 276.1373 C 93.4755 275.5442 104.2319 280.5732 106.8484 274.499 C 116.1806 252.8265 112.4946 227.2805 117.4641 204.0989 C 122.0418 182.7555 132.5304 162.2677 135.7439 140.3091 Z "/>
</svg>