<svg xmlns="http://www.w3.org/2000/svg" xmlns:xlink="http://www.w3.org/1999/xlink" version="1.1" width="129.47669995641894" height="387.8685914359111" viewBox="0.7732998688211696 -0.23760009217355083 129.47669995641894 387.8685914359111">
  <!-- Exported by Scratch - http://scratch.mit.edu/ -->
  <path id="ID0.7729651997797191" fill="#282828" stroke="none" stroke-linecap="round" d="M 17.384 145.8589 L 40.5201 151.3353 L 32.8655 170.2005 L 26.3006 179.4254 L 22.5388 187.9205 L 17.9162 195.4875 L 2.5177 188.0455 L 2.0535 180.9092 L 12.4488 158.8703 L 17.384 145.8589 Z " stroke-width="0.9588636893202722"/>
  <path id="ID0.4757494777441025" fill="#282828" stroke="none" stroke-linecap="round" d="M 32.7261 131.9701 L 41.7717 132.6631 L 55.8599 142.385 L 39.9376 163.9895 L 28.2609 165.4441 L 23.5053 165.0217 L 21.0994 161.7342 L 19.2271 157.9946 L 14.4502 153.6844 L 16.0297 148.4401 L 19.2351 140.9712 L 24.9591 134.0722 L 32.7261 131.9701 Z " stroke-width="0.4829924863548875"/>
  <g id="ID0.5880346246995032">
    <path id="ID0.6829322893172503" fill="#1D1E1F" stroke="none" stroke-linecap="round" d="M 105.0816 249.4097 L 115.2 243.7509 L 118.7594 249.0772 L 123.156 254.7669 L 123.4653 260.4737 L 123.108 265.1946 L 121.2355 268.3623 L 120.1733 275.1656 L 115.4745 275.2159 L 114.1412 273.244 L 112.4996 273.1285 L 109.0949 270.6557 L 105.4644 267.7862 L 103.1832 263.4128 L 103.6118 256.235 L 105.0816 249.4097 Z " stroke-width="0.8164596235025298"/>
    <g id="ID0.9434720128774643">
      <path id="ID0.6507829907350242" fill="#282828" stroke="none" stroke-linecap="round" d="M 95.8752 184.9156 L 115.3824 194.079 L 114.9541 211.0687 L 114.5384 223.7649 L 115.411 239.8663 L 118.1123 246.7109 L 103.5316 249.995 L 103.904 242.5342 L 101.5394 232.8504 L 98.0122 220.5723 L 96.4766 207.3277 L 95.8752 184.9156 Z " stroke-width="0.8164596235025298"/>
      <path id="ID0.9892375003546476" fill="none" stroke="#191919" stroke-width="2.0000000502685062" stroke-linecap="round" d="M 103.9478 249.129 L 117.2792 245.6524 L 114.3228 237.3002 "/>
    </g>
  </g>
  <path id="ID0.7729651997797191" fill="#282828" stroke="none" stroke-linecap="round" d="M 120.2425 157.2026 L 97.5875 149.99 L 94.4407 170.1043 L 95.3213 181.3924 L 94.1743 190.612 L 94.243 199.4791 L 111.2756 201.0239 L 115.3466 195.1443 L 117.777 170.8983 L 120.2425 157.2026 Z " stroke-width="0.9588636497283459"/>
  <path id="ID0.4757494777441025" fill="#282828" stroke="none" stroke-linecap="round" d="M 113.0538 139.3699 L 104.9416 135.3084 L 87.859 136.3927 L 90.3908 163.1109 L 99.6535 170.3679 L 103.9482 172.4534 L 107.703 170.8731 L 111.233 168.6305 L 117.5471 167.3936 L 118.892 162.0843 L 119.9879 154.0308 L 118.6311 145.1698 L 113.0538 139.3699 Z " stroke-width="0.48299248990528754"/>
  <g id="ID0.6660797297954559">
    <path id="ID0.5368814701214433" fill="#343434" stroke="none" stroke-linecap="round" d="M 67.4682 371.6199 L 70.4287 362.8155 L 74.9983 353.6083 L 84.9228 359.5533 L 96.1216 367.2868 L 113.4925 377.7815 L 114.5139 384.3062 L 89.8071 385.269 L 68.595 381.4169 L 67.4682 371.6199 Z " stroke-width="0.7702165156112356"/>
    <g id="ID0.5077062323689461">
      <path id="ID0.05466862628236413" fill="#252525" stroke="none" stroke-linecap="round" d="M 69.1786 299.3687 L 90.9001 296.1783 L 89.0357 310.8459 L 88.2495 315.8524 L 88.1163 330.3363 L 90.3258 363.608 L 69.0586 366.1922 L 67.8853 347.4326 L 65.6356 340.346 L 64.5334 332.6082 L 66.2287 321.5153 L 66.2185 311.399 L 69.1786 299.3687 Z " stroke-width="0.5998532572800399"/>
      <path id="ID0.5319394422695041" fill="none" stroke="#131313" stroke-width="1.999999948712909" stroke-linecap="round" d="M 90.3272 362.7351 L 69.0431 366.549 L 68.1437 355.0407 "/>
    </g>
    <g id="ID0.8820344842970371">
      <path id="ID0.3809091211296618" fill="#252525" stroke="none" stroke-linecap="round" d="M 58.6077 225.6188 L 90.4924 206.381 L 91.543 230.6188 L 95.107 279.1281 L 94.5302 289.8759 L 90.4306 301.1233 L 82.3567 298.8685 L 69.3927 300.0456 L 68.9219 278.2787 L 67.3001 264.9611 L 58.6077 225.6188 Z " stroke-width="0.7305889629519027"/>
      <path id="ID0.9495224836282432" fill="none" stroke="#131313" stroke-width="1.999999948712909" stroke-linecap="round" d="M 95.0579 279.2733 L 94.9835 287.773 L 92.9136 295.7552 L 84.3745 300.1806 L 83.3308 305.1717 "/>
    </g>
  </g>
  <g id="ID0.18228224432095885">
    <path id="ID0.5368814701214433" fill="#404040" stroke="none" stroke-linecap="round" d="M 29.1158 372.5018 L 32.2662 363.7635 L 37.034 354.6573 L 46.8275 360.8157 L 57.8564 368.7897 L 74.996 379.6578 L 75.876 386.2031 L 51.1542 386.631 L 30.0304 382.3208 L 29.1158 372.5018 Z " stroke-width="0.770216501105531"/>
    <g id="ID0.5077062323689461">
      <path id="ID0.05466862628236413" fill="#252525" stroke="none" stroke-linecap="round" d="M 33.7514 299.718 L 55.5993 297.5568 L 53.0445 312.12 L 52.0228 317.0838 L 51.2059 331.5452 L 51.842 364.8842 L 30.4764 366.4613 L 30.1903 347.6673 L 28.2776 340.4824 L 27.542 332.7011 L 29.7592 321.7007 L 30.2266 311.5951 L 33.7514 299.718 Z " stroke-width="0.5998532383662818"/>
      <path id="ID0.5319394422695041" fill="none" stroke="#131313" stroke-width="1.9999999804442234" stroke-linecap="round" d="M 51.8642 363.984 L 30.4237 366.7887 L 30.0687 355.2507 "/>
    </g>
    <g id="ID0.8820344842970371">
      <path id="ID0.3809091211296618" fill="#252525" stroke="none" stroke-linecap="round" d="M 31.8801 223.0264 L 59.5243 207.8208 L 59.4293 232.0813 L 60.6989 280.7047 L 59.6153 291.4133 L 54.9891 302.4546 L 47.0307 299.8211 L 33.4673 301.7179 L 31.7765 278.5899 L 30.9729 265.5255 L 31.8801 223.0264 Z " stroke-width="0.7305889563791749"/>
      <path id="ID0.9495224836282432" fill="none" stroke="#131313" stroke-width="1.9999999804442234" stroke-linecap="round" d="M 60.5303 280.8387 L 60.0547 289.3254 L 57.6102 297.2009 L 48.8717 301.2182 L 47.5935 306.1544 "/>
    </g>
  </g>
  <g id="ID0.8990198895335197">
    <path id="ID0.17576928716152906" fill="#DBDBDB" stroke="none" d="M 68.688 129.0783 L 68.4384 129.0654 L 68.4384 129.0654 L 68.688 129.0783 L 68.688 129.0783 Z " stroke-width="0.9999999674809951"/>
    <path id="ID0.4270821204409003" fill="#252525" stroke="none" stroke-linecap="round" d="M 60.3475 250.921 L 65.9088 138.3016 L 83.1131 141.6731 L 89.6893 146.4463 L 92.2461 150.6894 L 98.4247 162.5947 L 96.9551 172.9908 L 95.6094 178.3832 L 96.7724 185.3897 L 96.8515 190.8854 L 94.2153 197.6165 L 92.222 202.7234 L 90.3635 211.8978 L 90.276 233.8515 L 84.5534 241.6717 L 79.3314 247.5231 L 60.3475 250.921 Z " stroke-width="0.47614256467775407"/>
    <path id="ID0.4270821204409003" fill="#252525" stroke="none" stroke-linecap="round" d="M 60.3642 251.0613 L 66.433 138.4681 L 48.9729 140.0494 L 41.94 144.1198 L 38.9598 148.0771 L 31.5878 159.2826 L 31.9787 169.7747 L 32.7617 175.2771 L 30.8832 182.1265 L 30.2385 187.5849 L 32.1673 194.5517 L 33.6239 199.8367 L 34.5275 209.1538 L 32.3532 230.9997 L 37.2399 239.3678 L 41.8313 245.726 L 60.3642 251.0613 Z " stroke-width="0.4761425582034465"/>
    <path id="ID0.5114514343440533" fill="#282828" stroke="none" d="M 39.9775 138.2508 L 92.9069 140.9841 L 88.3557 229.1167 L 35.4263 226.3834 L 39.9775 138.2508 Z " stroke-width="1.0073065473210139"/>
    <path id="ID0.9286923445761204" fill="#D4D4D4" stroke="none" stroke-linecap="round" d="M 56.8137 125.4055 L 75.0409 107.5855 L 66.9585 126.0724 L 66.1313 166.5557 L 29.7312 135.5926 L 50.4026 125.8372 L 56.8137 125.4055 Z " stroke-width="0.47614259121395813"/>
    <path id="ID0.9286923445761204" fill="#D4D4D4" stroke="none" stroke-linecap="round" d="M 73.1041 125.175 L 60.2344 107.108 L 66.3697 126.329 L 65.5196 166.3344 L 102.4183 139.6332 L 83.2699 126.8203 L 73.1041 125.175 Z " stroke-width="0.47614259121395813"/>
    <path id="ID0.39874776685610414" fill="#C3C3C3" stroke="none" stroke-linecap="round" d="M 48.4613 126.6551 L 67.7955 137.5374 L 86.1018 129.5098 L 89.9895 131.8513 L 67.4057 141.2977 L 44.6063 128.4146 L 48.4613 126.6551 Z " stroke-width="0.9436593192580783"/>
    <path id="ID0.13444371055811644" fill="#1F1F1F" stroke="none" stroke-linecap="round" d="M 65.3104 139.2354 L 70.5663 139.2565 L 71.8928 167.863 L 59.833 167.7409 L 65.3104 139.2354 Z " stroke-width="0.9999999674809951"/>
    <path id="ID0.751046194229275" fill="#191919" stroke="none" stroke-linecap="round" d="M 63.2699 134.2267 L 68.0436 132.4355 L 72.4427 134.7004 L 72.4708 142.6875 L 68.0256 143.4492 L 62.8586 142.1911 L 63.2699 134.2267 Z " stroke-width="1.0999999045500704"/>
    <path id="ID0.7854711129330099" fill="#282828" stroke="none" stroke-linecap="round" d="M 53.2389 155.385 L 66.769 164.8453 L 81.0035 155.8174 L 78.1037 173.191 L 54.8846 171.9919 L 53.2389 155.385 Z " stroke-width="0.9999999674809951"/>
    <path id="ID0.562834897544235" fill="#282828" stroke="none" stroke-linecap="round" d="M 32.8238 225.926 L 63.3301 221.7437 L 62.2858 241.9667 L 48.4896 242.506 L 32.8238 225.926 Z " stroke-width="0.9999999674809951"/>
    <path id="ID0.562834897544235" fill="#282828" stroke="none" stroke-linecap="round" d="M 93.4714 229.3543 L 63.5582 222.0519 L 62.5139 242.2749 L 76.1811 244.2324 L 93.4714 229.3543 Z " stroke-width="0.9999999674809951"/>
    <path id="ID0.6824178956449032" fill="none" stroke="#191919" stroke-width="1.9999999349619901" stroke-linecap="round" d="M 66.5068 165.1192 L 62.299 241.7542 "/>
    <path id="ID0.4144489667378366" fill="#313131" stroke="none" stroke-linecap="round" d="M 29.381 132.6243 L 50.0166 125.6792 L 45.8989 147.2456 L 46.0503 207.3334 L 34.2551 251.5339 L 23.5276 245.9732 L 23.0974 249.4557 L 28.5689 201.6743 L 26.0556 158.2369 L 25.895 141.9569 L 29.381 132.6243 Z " stroke-width="0.9999999674809951"/>
    <path id="ID0.5234400681219995" fill="#101010" stroke="none" d="M 68.4099 170.7928 C 68.822 170.8141 69.1871 171.0007 69.4436 171.2852 C 69.7002 171.5698 69.8483 171.9521 69.827 172.3642 C 69.8057 172.7763 69.619 173.1414 69.3345 173.398 C 69.05 173.6545 68.6677 173.8026 68.2556 173.7813 C 67.8435 173.76 67.4784 173.5734 67.2218 173.2889 C 66.9652 173.0044 66.8172 172.622 66.8385 172.2099 C 66.8597 171.7978 67.0464 171.4327 67.3309 171.1761 C 67.6154 170.9196 67.9978 170.7715 68.4099 170.7928 Z " stroke-width="0.629999997324517"/>
    <path id="ID0.5234400681219995" fill="#101010" stroke="none" d="M 67.6599 184.3928 C 68.072 184.4141 68.4371 184.6007 68.6936 184.8852 C 68.9502 185.1698 69.0983 185.5521 69.077 185.9642 C 69.0557 186.3763 68.869 186.7414 68.5845 186.998 C 68.3 187.2545 67.9177 187.4026 67.5056 187.3813 C 67.0935 187.36 66.7284 187.1734 66.4718 186.8889 C 66.2152 186.6044 66.0672 186.222 66.0885 185.8099 C 66.1097 185.3978 66.2964 185.0327 66.5809 184.7761 C 66.8654 184.5196 67.2478 184.3715 67.6599 184.3928 Z " stroke-width="0.629999997324517"/>
    <path id="ID0.5234400681219995" fill="#101010" stroke="none" d="M 66.0599 215.7928 C 66.472 215.8141 66.8371 216.0007 67.0936 216.2852 C 67.3502 216.5698 67.4983 216.9521 67.477 217.3642 C 67.4557 217.7763 67.269 218.1414 66.9845 218.398 C 66.7 218.6545 66.3177 218.8026 65.9056 218.7813 C 65.4935 218.76 65.1284 218.5734 64.8718 218.2889 C 64.6152 218.0044 64.4672 217.622 64.4885 217.2099 C 64.5097 216.7978 64.6964 216.4327 64.9809 216.1761 C 65.2654 215.9196 65.6478 215.7715 66.0599 215.7928 Z " stroke-width="0.629999997324517"/>
    <path id="ID0.5234400681219995" fill="#101010" stroke="none" d="M 66.8099 201.0428 C 67.222 201.0641 67.5871 201.2507 67.8436 201.5352 C 68.1002 201.8198 68.2483 202.2021 68.227 202.6142 C 68.2057 203.0263 68.019 203.3914 67.7345 203.648 C 67.45 203.9045 67.0677 204.0526 66.6556 204.0313 C 66.2435 204.01 65.8784 203.8234 65.6218 203.5389 C 65.3652 203.2544 65.2172 202.872 65.2385 202.4599 C 65.2597 202.0478 65.4464 201.6827 65.7309 201.4261 C 66.0154 201.1696 66.3978 201.0215 66.8099 201.0428 Z " stroke-width="0.629999997324517"/>
    <path id="ID0.5234400681219995" fill="#101010" stroke="none" d="M 65.2099 229.7928 C 65.622 229.8141 65.9871 230.0007 66.2436 230.2852 C 66.5002 230.5698 66.6483 230.9521 66.627 231.3642 C 66.6057 231.7763 66.419 232.1414 66.1345 232.398 C 65.85 232.6545 65.4677 232.8026 65.0556 232.7813 C 64.6435 232.76 64.2784 232.5734 64.0218 232.2889 C 63.7652 232.0044 63.6172 231.622 63.6385 231.2099 C 63.6597 230.7978 63.8464 230.4327 64.1309 230.1761 C 64.4154 229.9196 64.7978 229.7715 65.2099 229.7928 Z " stroke-width="0.629999997324517"/>
    <path id="ID0.4144489667378366" fill="#313131" stroke="none" stroke-linecap="round" d="M 102.6566 135.6035 L 82.8461 126.5698 L 84.7204 148.4456 L 78.3805 208.1981 L 85.56 253.3785 L 96.8032 248.9525 L 96.8724 252.4607 L 96.3518 204.3698 L 103.326 161.4224 L 105.1627 145.2456 L 102.6566 135.6035 Z " stroke-width="0.9999999674809951"/>
    <path id="ID0.8752945330925286" fill="none" stroke="#222222" stroke-width="1.9999999349619901" stroke-linecap="round" d="M 29.8674 132.8997 L 26.222 140.4718 L 27.5209 178.3392 "/>
    <path id="ID0.8752945330925286" fill="none" stroke="#222222" stroke-width="1.9999999349619901" stroke-linecap="round" d="M 102.8444 136.1774 L 105.6904 144.0847 L 100.4979 181.6168 "/>
    <path id="ID0.5234400681219995" fill="#101010" stroke="none" d="M 42.9599 215.2928 C 43.372 215.3141 43.7371 215.5007 43.9936 215.7852 C 44.2502 216.0698 44.3983 216.4521 44.377 216.8642 C 44.3557 217.2763 44.169 217.6414 43.8845 217.898 C 43.6 218.1545 43.2177 218.3026 42.8056 218.2813 C 42.3935 218.26 42.0284 218.0734 41.7718 217.7889 C 41.5152 217.5044 41.3672 217.122 41.3885 216.7099 C 41.4097 216.2978 41.5964 215.9327 41.8809 215.6761 C 42.1654 215.4196 42.5478 215.2715 42.9599 215.2928 Z " stroke-width="0.629999997324517"/>
    <path id="ID0.5234400681219995" fill="#101010" stroke="none" d="M 41.1599 222.3928 C 41.572 222.4141 41.9371 222.6007 42.1936 222.8852 C 42.4502 223.1698 42.5983 223.5521 42.577 223.9642 C 42.5557 224.3763 42.369 224.7414 42.0845 224.998 C 41.8 225.2545 41.4177 225.4026 41.0056 225.3813 C 40.5935 225.36 40.2284 225.1734 39.9718 224.8889 C 39.7152 224.6044 39.5672 224.222 39.5885 223.8099 C 39.6097 223.3978 39.7964 223.0327 40.0809 222.7761 C 40.3654 222.5196 40.7478 222.3715 41.1599 222.3928 Z " stroke-width="0.629999997324517"/>
    <g id="ID0.20783481979742646">
      <path id="ID0.5848579816520214" fill="#737373" stroke="none" stroke-linecap="round" d="M 90.8233 163.4546 L 97.7415 162.3099 L 97.4405 166.1995 L 90.1744 166.325 L 90.8233 163.4546 Z " stroke-width="0.9999999674809951"/>
      <path id="ID0.13105127029120922" fill="none" stroke="#222222" stroke-width="1.9999999349619901" stroke-linecap="round" d="M 88.8133 166.505 L 93.3073 166.7371 L 98.6277 165.5098 "/>
    </g>
  </g>
  <path id="ID0.46110434643924236" fill="#D8BFA7" stroke="none" stroke-linecap="round" d="M 56.5364 106.7303 L 79.121 107.8966 L 78.6106 126.8454 L 72.2777 129.3722 L 55.4998 126.8035 L 56.5364 106.7303 Z " stroke-width="1.0876357547543811"/>
  <path id="ID0.8999492498114705" fill="#EDD2B8" stroke="none" stroke-linecap="round" d="M 65.6943 77.1782 C 61.2643 77.2158 56.2858 79.4409 53.7771 83.0919 C 50.9143 87.2604 52.2236 93.011 51.4979 97.966 C 51.2163 99.6865 50.8065 101.4723 51.0697 103.2587 C 51.2591 106.4494 52.1404 109.5624 52.822 112.7779 C 53.2803 114.9453 53.2375 117.2891 54.2109 119.2993 C 55.2956 121.6719 56.3192 124.9242 58.8604 125.6369 C 62.6279 126.6929 66.8676 125.2674 70.475 123.8648 C 73.4385 122.7122 76.2993 120.7757 78.1422 118.1742 C 81.4607 113.336 84.5733 107.9595 85.5436 102.1432 C 86.619 95.6956 88.1895 87.7464 83.9298 82.5794 C 80.1514 77.6367 72.2795 77.1252 65.6943 77.1782 Z " stroke-width="0.5080371992279783"/>
  <path id="ID0.8194515448994935" fill="#EDD2B8" stroke="none" stroke-linecap="round" d="M 86.2735 96.858 C 85.4151 96.8594 84.7435 97.364 84.1334 98.3672 C 83.5234 99.3704 83.0652 100.7938 82.9043 102.3997 C 82.7433 104.0057 82.91 105.4917 83.3089 106.596 C 83.7078 107.7002 84.2697 108.3013 85.1071 108.4997 C 85.8759 108.6803 86.9197 108.3537 87.3461 107.7191 C 88.171 106.2962 88.2288 104.5161 88.4764 102.958 C 88.7202 101.4267 89.2481 99.7691 88.7907 98.3162 C 88.3992 97.4187 87.1732 96.8567 86.2735 96.858 Z " stroke-width="0.9999999422514133"/>
  <path id="ID0.5768358684144914" fill="#2E3234" stroke="none" d="M 87.5314 93.8509 L 81.5613 93.2528 L 81.3818 95.0438 L 87.3519 95.642 L 87.5314 93.8509 Z " stroke-width="0.9999999422514133"/>
  <path id="ID0.3245162623934448" fill="#54595E" stroke="none" stroke-linecap="round" d="M 67.3797 78.4769 C 64.1399 78.1523 60.9426 80.4731 58.3941 84.484 C 55.8455 88.4949 54.4222 95.1069 53.3006 100.6336 C 52.1553 106.2766 49.6409 112.2939 51.4365 117.733 C 52.8206 121.9239 57.4358 125.4727 61.8977 126.168 C 66.1109 126.8283 71.4705 124.883 73.8491 121.2349 C 77.2098 116.0793 76.5767 109.1979 76.783 102.9865 C 76.9698 97.3511 76.6971 90.5842 74.9949 86.1474 C 73.2928 81.7105 70.6195 78.8015 67.3797 78.4769 Z " stroke-width="0.9999999422514133"/>
  <path id="ID0.8999492498114705" fill="#54595E" stroke="none" stroke-linecap="round" d="M 64.1943 74.4282 C 59.8404 75.2454 54.7858 76.6909 52.2771 80.3419 C 49.4143 84.5104 51.3101 90.38 49.9979 95.216 C 49.4792 97.1262 46.8666 98.3798 46.7666 100.4576 C 46.6816 103.1352 48.5628 105.534 49.4949 108.1344 C 50.51 110.9575 51.3546 113.9172 52.7109 116.5493 C 53.9089 118.8761 55.1335 121.5134 57.3604 122.8869 C 59.0753 123.943 61.6515 124.4493 63.3355 123.3834 C 64.6744 122.5362 63.758 120.2168 64.2893 118.7051 C 64.8074 116.826 66.2692 115.2308 66.4692 113.256 C 67.0235 107.7595 65.7097 102.1647 66.2424 96.665 C 66.8284 90.6171 67.1182 84.3675 69.6555 78.9068 C 70.6261 76.8178 76.868 76.8683 75.8588 76.1075 C 74.3103 74.7709 68.0518 73.7042 64.1943 74.4282 Z " stroke-width="0.5080371992279783"/>
  <path id="ID0.8999492498114705" fill="#54595E" stroke="none" stroke-linecap="round" d="M 75.4439 76.1965 C 79.0946 77.6994 83.0913 80.0799 84.615 83.7785 C 86.4735 88.2582 84.6312 93.5026 84.6627 98.3348 C 84.6754 100.1094 85.5533 102.0175 84.9978 103.6529 C 84.198 105.9128 81.921 107.4451 81.0258 109.6627 C 79.7931 112.7176 80.182 116.4077 78.5596 119.2443 C 77.2598 121.5159 75.2002 123.6291 72.7451 124.5334 C 70.8548 125.2283 68.2293 125.2134 66.7903 123.8346 C 65.6461 122.7387 67.0045 120.6471 66.7836 119.06 C 66.6486 117.1155 65.5324 115.2621 65.7282 113.2868 C 66.2755 107.7896 68.6731 102.5666 69.2422 97.0706 C 69.8677 91.0267 70.3529 84.9361 69.4201 78.9883 C 69.1683 77.3895 64.5763 76.2207 65.5864 75.7194 C 67.5846 74.7381 72.4113 74.8689 75.4439 76.1965 Z " stroke-width="0.5080371992279783"/>
  <path id="ID0.45774566335603595" fill="#54595E" stroke="none" stroke-linecap="round" d="M 63.776 110.1856 C 61.6825 109.9758 60.0241 111.08 58.2069 111.7039 C 56.5498 112.2736 53.546 112.1113 53.3771 113.9174 C 53.0828 116.7341 55.3118 119.4137 57.2131 121.6223 C 58.4671 123.0785 60.2767 124.0056 62.3702 124.2153 C 64.4638 124.4251 66.3418 123.7661 67.9394 122.697 C 70.1497 121.219 72.9631 119.4999 73.1778 116.9064 C 73.4211 114.9288 70.5832 113.9239 68.9332 112.7787 C 67.3546 111.6818 65.8695 110.3953 63.776 110.1856 Z " stroke-width="0.9999999422514133"/>
  <path id="ID0.6934182443656027" fill="#54595E" stroke="none" stroke-linecap="round" d="M 78.4902 105.9968 L 64.8974 108.7554 L 51.3163 102.872 L 53.6284 109.8875 L 53.6773 114.4149 L 73.3636 117.0407 L 75.121 111.036 L 78.4902 105.9968 Z " stroke-width="0.9999999422514133"/>
  <path id="ID0.6236958587542176" fill="#3B4043" stroke="none" stroke-linecap="round" d="M 72.4551 102.1908 L 56.7886 100.5708 L 56.7274 108.2027 L 55.537 115.0682 L 57.2215 125.8398 L 66.7687 126.8467 L 71.2979 117.2504 L 71.1601 109.5986 L 72.4551 102.1908 Z " stroke-width="0.9999999422514133"/>
  <path id="ID0.6043254472315311" fill="#3B4043" stroke="none" stroke-linecap="round" d="M 81.9316 80.3367 L 77.4894 77.0273 L 72.2048 82.1259 L 65.6275 82.5724 L 64.9471 101.9008 L 67.2997 105.0008 L 72.658 105.186 L 76.3997 103.4503 L 78.3805 99.7293 L 77.536 93.1121 L 81.9316 80.3367 Z " stroke-width="0.9999999422514133"/>
  <path id="ID0.6043254472315311" fill="#3B4043" stroke="none" stroke-linecap="round" d="M 53.604 79.2652 L 55.9428 76.987 L 58.7937 76.1169 L 62.4545 81.2072 L 68.8124 82.9498 L 65.6445 102.029 L 62.7235 104.6006 L 57.4351 103.719 L 53.1569 101.2803 L 52.9089 97.2354 L 55.0495 90.9174 L 53.604 79.2652 Z " stroke-width="0.9999999422514133"/>
  <path id="ID0.9914007503539324" fill="#33383A" stroke="none" d="M 66.3099 109.2538 L 69.1231 97.7269 L 62.6753 97.3823 L 61.2403 108.6956 L 66.3099 109.2538 Z " stroke-width="0.9999999422514133"/>
  <path id="ID0.28340246016159654" fill="#D8BFA7" stroke="none" stroke-linecap="round" d="M 79.4631 97.0827 L 72.6675 96.4956 L 68.0202 98.3125 L 66.8061 101.6302 L 67.9656 103.9663 L 71.4201 104.6876 L 74.2011 104.466 L 76.3624 103.9009 L 78.6481 102.379 L 79.7477 100.4881 L 79.4631 97.0827 Z " stroke-width="0.5947752093531217"/>
  <path id="ID0.28340246016159654" fill="#D8BFA7" stroke="none" stroke-linecap="round" d="M 51.1155 94.0765 L 57.8925 94.8494 L 62.087 97.5521 L 62.6188 101.0448 L 61.0188 103.1044 L 57.4898 103.126 L 54.808 102.357 L 52.8018 101.3743 L 50.8636 99.4292 L 50.161 97.3577 L 51.1155 94.0765 Z " stroke-width="0.5947752093531217"/>
  <path id="ID0.17377300979569554" fill="#FFFFFF" stroke="none" stroke-linecap="round" d="M 75.0566 100.1955 L 74.2369 99.2787 L 71.9795 98.8674 L 69.6779 99.2454 L 69.0335 101.1414 L 71.6707 101.273 L 75.0566 100.1955 Z " stroke-width="0.9999999871226385"/>
  <path id="ID0.17377300979569554" fill="#FFFFFF" stroke="none" stroke-linecap="round" d="M 53.7149 98.0124 L 54.7002 97.2764 L 56.9944 97.3212 L 59.1751 98.1484 L 59.4306 100.1345 L 56.8197 99.7403 L 53.7149 98.0124 Z " stroke-width="0.9999999055177127"/>
  <path id="ID0.44800941413268447" fill="none" stroke="#33383A" stroke-width="1.0503598154285965" stroke-linecap="round" d="M 65.8503 101.9271 L 67.8996 97.8044 L 72.5064 95.8117 L 79.0254 96.5969 "/>
  <path id="ID0.12448931112885475" fill="#33383A" stroke="none" stroke-linecap="round" d="M 66.1726 107.4994 L 61.3865 107.1204 L 60.1272 110.16 L 63.0622 111.9616 L 66.6993 110.7682 L 66.1726 107.4994 Z " stroke-width="0.9999999422514133"/>
  <path id="ID0.44800941413268447" fill="none" stroke="#33383A" stroke-width="1.0503597549172863" stroke-linecap="round" d="M 67.3584 98.5673 L 66.8161 95.9323 L 68.5894 92.7287 "/>
  <path id="ID0.44800941413268447" fill="none" stroke="#33383A" stroke-width="1.050359746251257" stroke-linecap="round" d="M 62.9692 98.0415 L 64.0235 95.5664 L 62.9211 92.0746 "/>
  <g id="ID0.32985211815685034">
    <g id="ID0.08651347272098064">
      <g id="ID0.07771636918187141">
        <path id="ID0.7001032647676766" fill="none" stroke="#646B70" stroke-width="0.5238095046977924" stroke-linecap="round" d="M 71.7484 114.1142 C 71.7484 114.1142 71.7758 114.4868 71.7978 114.6719 C 71.8185 114.8461 71.9558 115.0362 71.8772 115.1931 C 71.7959 115.3555 71.5802 115.4229 71.4029 115.4615 C 71.2323 115.4983 71.0554 115.4245 70.8817 115.4092 C 70.7079 115.3939 70.4278 115.5304 70.3592 115.37 C 70.1944 114.9863 70.3268 114.1165 70.3268 114.1165 "/>
        <path id="ID0.7001032647676766" fill="none" stroke="#646B70" stroke-width="0.5238095046977924" stroke-linecap="round" d="M 70.1984 114.0142 C 70.1984 114.0142 70.2258 114.3868 70.2478 114.5719 C 70.2685 114.7461 70.4058 114.9362 70.3272 115.0931 C 70.2459 115.2555 70.0302 115.3229 69.8529 115.3615 C 69.6823 115.3983 69.5054 115.3245 69.3317 115.3092 C 69.1579 115.2939 68.8778 115.4304 68.8092 115.27 C 68.6444 114.8863 68.7768 114.0165 68.7768 114.0165 "/>
      </g>
      <g id="ID0.07771636918187141">
        <path id="ID0.7001032647676766" fill="none" stroke="#646B70" stroke-width="0.5238095046977924" stroke-linecap="round" d="M 68.6984 114.0642 C 68.6984 114.0642 68.7258 114.4368 68.7478 114.6219 C 68.7685 114.7961 68.9058 114.9862 68.8272 115.1431 C 68.7459 115.3055 68.5302 115.3729 68.3529 115.4115 C 68.1823 115.4483 68.0054 115.3745 67.8317 115.3592 C 67.6579 115.3439 67.3778 115.4804 67.3092 115.32 C 67.1444 114.9363 67.2768 114.0665 67.2768 114.0665 "/>
        <path id="ID0.7001032647676766" fill="none" stroke="#646B70" stroke-width="0.5238095046977924" stroke-linecap="round" d="M 67.1484 113.9142 C 67.1484 113.9142 67.1758 114.2868 67.1978 114.4719 C 67.2185 114.6461 67.3558 114.8362 67.2772 114.9931 C 67.1959 115.1555 66.9802 115.2229 66.8029 115.2615 C 66.6323 115.2983 66.4554 115.2245 66.2817 115.2092 C 66.1079 115.1939 65.8278 115.3304 65.7592 115.17 C 65.5944 114.7863 65.7268 113.9165 65.7268 113.9165 "/>
      </g>
      <path id="ID0.7001032647676766" fill="none" stroke="#646B70" stroke-width="0.5238094629559903" stroke-linecap="round" d="M 65.6674 113.8502 C 65.6674 113.8502 65.6556 114.2236 65.658 114.41 C 65.6604 114.5854 65.777 114.7889 65.6824 114.9367 C 65.5845 115.0897 65.3629 115.134 65.1825 115.1538 C 65.009 115.1726 64.8408 115.0807 64.6696 115.0472 C 64.4984 115.0138 64.2056 115.1202 64.1541 114.9535 C 64.0305 114.5547 64.2533 113.7035 64.2533 113.7035 "/>
    </g>
    <g id="ID0.08651347272098064">
      <g id="ID0.07771636918187141">
        <path id="ID0.7001032647676766" fill="none" stroke="#646B70" stroke-width="0.5238095046977924" stroke-linecap="round" d="M 56.8835 112.5833 C 56.8835 112.5833 56.7827 112.943 56.7244 113.1201 C 56.6696 113.2868 56.4973 113.4459 56.5432 113.6152 C 56.5907 113.7905 56.7888 113.8994 56.9549 113.9723 C 57.1148 114.0423 57.3028 114.0051 57.4761 114.0246 C 57.6495 114.044 57.8969 114.2333 57.996 114.0898 C 58.2336 113.7464 58.2764 112.8676 58.2764 112.8676 "/>
        <path id="ID0.7001032647676766" fill="none" stroke="#646B70" stroke-width="0.5238095046977924" stroke-linecap="round" d="M 58.3335 112.7333 C 58.3335 112.7333 58.2327 113.093 58.1744 113.2701 C 58.1196 113.4368 57.9473 113.5959 57.9932 113.7652 C 58.0407 113.9405 58.2388 114.0494 58.4049 114.1223 C 58.5648 114.1923 58.7528 114.1551 58.9261 114.1746 C 59.0995 114.194 59.3469 114.3833 59.446 114.2398 C 59.6836 113.8964 59.7264 113.0176 59.7264 113.0176 "/>
      </g>
      <g id="ID0.07771636918187141">
        <path id="ID0.7001032647676766" fill="none" stroke="#646B70" stroke-width="0.5238095046977924" stroke-linecap="round" d="M 60.0335 113.0833 C 60.0335 113.0833 59.9327 113.443 59.8744 113.6201 C 59.8196 113.7868 59.6473 113.9459 59.6932 114.1152 C 59.7407 114.2905 59.9388 114.3994 60.1049 114.4723 C 60.2648 114.5423 60.4528 114.5051 60.6261 114.5246 C 60.7995 114.544 61.0469 114.7333 61.146 114.5898 C 61.3836 114.2464 61.4264 113.3676 61.4264 113.3676 "/>
        <path id="ID0.7001032647676766" fill="none" stroke="#646B70" stroke-width="0.5238095046977924" stroke-linecap="round" d="M 61.5335 113.3333 C 61.5335 113.3333 61.4327 113.693 61.3744 113.8701 C 61.3196 114.0368 61.1473 114.1959 61.1932 114.3652 C 61.2407 114.5405 61.4388 114.6494 61.6049 114.7223 C 61.7648 114.7923 61.9528 114.7551 62.1261 114.7746 C 62.2995 114.794 62.5469 114.9833 62.646 114.8398 C 62.8836 114.4964 62.9264 113.6176 62.9264 113.6176 "/>
      </g>
      <path id="ID0.7001032647676766" fill="none" stroke="#646B70" stroke-width="0.5238095518848835" stroke-linecap="round" d="M 62.9664 113.6069 C 62.9664 113.6069 62.9039 113.9752 62.8645 114.1575 C 62.8274 114.329 62.6727 114.5052 62.7361 114.6689 C 62.8017 114.8382 63.0101 114.9257 63.183 114.9808 C 63.3493 115.0337 63.5323 114.977 63.7068 114.9782 C 63.8812 114.9794 64.1471 115.1417 64.2307 114.9886 C 64.431 114.6222 64.3814 113.7437 64.3814 113.7437 "/>
    </g>
  </g>
  <path id="ID0.7001032647676766" fill="none" stroke="#646B70" stroke-width="0.523809564376876" stroke-linecap="round" d="M 71.1665 117.1167 C 71.1665 117.1167 71.2673 116.757 71.3255 116.5799 C 71.3804 116.4132 71.5527 116.2541 71.5068 116.0848 C 71.4593 115.9095 71.2612 115.8006 71.0951 115.7277 C 70.9352 115.6577 70.7472 115.6949 70.5739 115.6754 C 70.4005 115.656 70.1531 115.4667 70.054 115.6102 C 69.8164 115.9536 69.7736 116.8324 69.7736 116.8324 "/>
  <path id="ID0.7001032647676766" fill="none" stroke="#646B70" stroke-width="0.523809564376876" stroke-linecap="round" d="M 69.6665 116.9167 C 69.6665 116.9167 69.7673 116.557 69.8255 116.3799 C 69.8804 116.2132 70.0527 116.0541 70.0068 115.8848 C 69.9593 115.7095 69.7612 115.6006 69.5951 115.5277 C 69.4352 115.4577 69.2472 115.4949 69.0739 115.4754 C 68.9005 115.456 68.6531 115.2667 68.554 115.4102 C 68.3164 115.7536 68.2736 116.6324 68.2736 116.6324 "/>
  <g id="ID0.07771636918187141">
    <path id="ID0.7001032647676766" fill="none" stroke="#646B70" stroke-width="0.523809564376876" stroke-linecap="round" d="M 68.5665 116.9667 C 68.5665 116.9667 68.6673 116.607 68.7255 116.4299 C 68.7804 116.2632 68.9527 116.1041 68.9068 115.9348 C 68.8593 115.7595 68.6612 115.6506 68.4951 115.5777 C 68.3352 115.5077 68.1472 115.5449 67.9739 115.5254 C 67.8005 115.506 67.5531 115.3167 67.454 115.4602 C 67.2164 115.8036 67.1736 116.6824 67.1736 116.6824 "/>
    <path id="ID0.7001032647676766" fill="none" stroke="#646B70" stroke-width="0.523809564376876" stroke-linecap="round" d="M 67.1165 116.6667 C 67.1165 116.6667 67.2173 116.307 67.2755 116.1299 C 67.3304 115.9632 67.5027 115.8041 67.4568 115.6348 C 67.4093 115.4595 67.2112 115.3506 67.0451 115.2777 C 66.8852 115.2077 66.6972 115.2449 66.5239 115.2254 C 66.3505 115.206 66.1031 115.0167 66.004 115.1602 C 65.7664 115.5036 65.7236 116.3824 65.7236 116.3824 "/>
  </g>
  <path id="ID0.7001032647676766" fill="none" stroke="#646B70" stroke-width="0.5238095518561733" stroke-linecap="round" d="M 65.1336 116.6431 C 65.1336 116.6431 65.1961 116.2748 65.2355 116.0925 C 65.2726 115.921 65.4273 115.7448 65.3639 115.5811 C 65.2983 115.4118 65.0899 115.3243 64.917 115.2692 C 64.7507 115.2163 64.5677 115.273 64.3932 115.2718 C 64.2188 115.2706 63.9529 115.1083 63.8693 115.2614 C 63.669 115.6278 63.7186 116.5063 63.7186 116.5063 "/>
  <path id="ID0.7001032647676766" fill="none" stroke="#646B70" stroke-width="0.523809564376876" stroke-linecap="round" d="M 55.8016 115.3358 C 55.8016 115.3358 55.7742 114.9632 55.7522 114.7781 C 55.7315 114.6039 55.5942 114.4138 55.6728 114.2569 C 55.7541 114.0945 55.9698 114.0271 56.1471 113.9885 C 56.3177 113.9517 56.4946 114.0255 56.6683 114.0408 C 56.8421 114.0561 57.1222 113.9196 57.1909 114.08 C 57.3556 114.4637 57.2232 115.3335 57.2232 115.3335 "/>
  <path id="ID0.7001032647676766" fill="none" stroke="#646B70" stroke-width="0.523809564376876" stroke-linecap="round" d="M 57.3016 115.5358 C 57.3016 115.5358 57.2742 115.1632 57.2522 114.9781 C 57.2315 114.8039 57.0942 114.6138 57.1728 114.4569 C 57.2541 114.2945 57.4698 114.2271 57.6471 114.1885 C 57.8177 114.1517 57.9946 114.2255 58.1683 114.2408 C 58.3421 114.2561 58.6222 114.1196 58.6909 114.28 C 58.8556 114.6637 58.7232 115.5335 58.7232 115.5335 "/>
  <path id="ID0.7001032647676766" fill="none" stroke="#646B70" stroke-width="0.523809564376876" stroke-linecap="round" d="M 59.0516 115.7358 C 59.0516 115.7358 59.0242 115.3632 59.0022 115.1781 C 58.9815 115.0039 58.8442 114.8138 58.9228 114.6569 C 59.0041 114.4945 59.2198 114.4271 59.3971 114.3885 C 59.5677 114.3517 59.7446 114.4255 59.9183 114.4408 C 60.0921 114.4561 60.3722 114.3196 60.4409 114.48 C 60.6056 114.8637 60.4732 115.7335 60.4732 115.7335 "/>
  <path id="ID0.7001032647676766" fill="none" stroke="#646B70" stroke-width="0.523809564376876" stroke-linecap="round" d="M 60.5516 116.0358 C 60.5516 116.0358 60.5242 115.6632 60.5022 115.4781 C 60.4815 115.3039 60.3442 115.1138 60.4228 114.9569 C 60.5041 114.7945 60.7198 114.7271 60.8971 114.6885 C 61.0677 114.6517 61.2446 114.7255 61.4183 114.7408 C 61.5921 114.7561 61.8722 114.6196 61.9409 114.78 C 62.1056 115.1637 61.9732 116.0335 61.9732 116.0335 "/>
  <path id="ID0.7001032647676766" fill="none" stroke="#646B70" stroke-width="0.5238095243456282" stroke-linecap="round" d="M 62.1827 116.2998 C 62.1827 116.2998 62.1944 115.9264 62.192 115.74 C 62.1896 115.5646 62.073 115.3611 62.1677 115.2133 C 62.2655 115.0603 62.4871 115.016 62.6675 114.9962 C 62.841 114.9774 63.0092 115.0693 63.1804 115.1028 C 63.3516 115.1362 63.6444 115.0298 63.6959 115.1965 C 63.8195 115.5953 63.5967 116.4465 63.5967 116.4465 "/>
  <path id="ID0.44800941413268447" fill="none" stroke="#2E3234" stroke-width="0.6130029526345345" stroke-linecap="round" d="M 61.153 107.4327 L 63.0813 106.318 L 66.2664 107.6864 "/>
  <path id="ID0.44800941413268447" fill="none" stroke="#33383A" stroke-width="1.0503598154285965" stroke-linecap="round" d="M 63.5475 101.605 L 62.3569 97.1577 L 58.2369 94.2906 L 51.6918 93.7667 "/>
  <g id="ID0.6897007944062352">
    <path id="ID0.2692581438459456" fill="#7AABFF" stroke="none" d="M 55.588 97.4313 C 55.9142 97.3727 56.2328 97.4524 56.4849 97.6277 C 56.7371 97.803 56.9228 98.0738 56.9814 98.4 C 57.0401 98.7262 56.9604 99.0448 56.7851 99.2969 C 56.6098 99.5491 56.3389 99.7348 56.0127 99.7935 C 55.6865 99.8521 55.368 99.7724 55.1158 99.5971 C 54.8637 99.4218 54.678 99.1509 54.6193 98.8247 C 54.5607 98.4985 54.6404 98.18 54.8157 97.9278 C 54.991 97.6757 55.2618 97.49 55.588 97.4313 Z " stroke-width="1.1428571834676444"/>
    <path id="ID0.8070062398910522" fill="#192334" stroke="none" d="M 55.6922 98.0438 C 55.8278 98.0195 55.9612 98.0519 56.0659 98.1257 C 56.1715 98.1981 56.2484 98.3119 56.2728 98.4475 C 56.2972 98.5831 56.2647 98.7165 56.1909 98.8212 C 56.1185 98.9268 56.0047 99.0037 55.8691 99.0281 C 55.7335 99.0524 55.6001 99.02 55.4954 98.9462 C 55.3898 98.8738 55.3129 98.76 55.2886 98.6244 C 55.2642 98.4888 55.2966 98.3554 55.3704 98.2507 C 55.4428 98.1451 55.5566 98.0682 55.6922 98.0438 Z " stroke-width="1.111111096800003"/>
  </g>
  <g id="ID0.5823970721103251">
    <path id="ID0.2692581438459456" fill="#7AABFF" stroke="none" d="M 71.5917 99.1564 C 71.2836 99.0342 70.9556 99.0492 70.6737 99.171 C 70.3917 99.2928 70.156 99.5214 70.0338 99.8295 C 69.9116 100.1375 69.9265 100.4656 70.0483 100.7475 C 70.1701 101.0294 70.3987 101.2652 70.7068 101.3874 C 71.0149 101.5096 71.3429 101.4946 71.6248 101.3728 C 71.9067 101.251 72.1425 101.0224 72.2647 100.7143 C 72.3869 100.4063 72.3719 100.0782 72.2502 99.7963 C 72.1284 99.5144 71.8998 99.2786 71.5917 99.1564 Z " stroke-width="1.1428571772001261"/>
    <path id="ID0.8070062398910522" fill="#192334" stroke="none" d="M 71.1348 99.6658 C 71.0068 99.615 70.8696 99.6204 70.7523 99.6719 C 70.6344 99.7219 70.5365 99.8182 70.4857 99.9462 C 70.4349 100.0743 70.4403 100.2115 70.4918 100.3287 C 70.5418 100.4466 70.6381 100.5445 70.7661 100.5953 C 70.8942 100.6461 71.0314 100.6408 71.1486 100.5893 C 71.2665 100.5392 71.3645 100.443 71.4153 100.3149 C 71.4661 100.1869 71.4607 100.0497 71.4092 99.9324 C 71.3591 99.8145 71.2629 99.7166 71.1348 99.6658 Z " stroke-width="1.111111232134938"/>
  </g>
  <path id="ID0.023752907756716013" fill="none" stroke="#584E44" stroke-width="1.1814345405981526" stroke-linecap="round" d="M 75.5146 98.8778 L 72.3183 98.0484 L 69.7546 98.2729 "/>
  <path id="ID0.023752907756716013" fill="none" stroke="#584E44" stroke-width="1.1814346229798205" stroke-linecap="round" d="M 53.6072 96.8098 L 56.8861 96.4178 L 59.3963 96.985 "/>
  <g id="ID0.5880346246995032">
    <path id="ID0.6829322893172503" fill="#1D1E1F" stroke="none" stroke-linecap="round" d="M 13.1545 243.7531 L 23.0641 237.736 L 26.8116 242.9316 L 31.409 248.4604 L 31.9222 254.1525 L 31.7339 258.8832 L 29.976 262.1158 L 29.1578 268.9527 L 24.4638 269.171 L 23.0608 267.2481 L 21.4161 267.1914 L 17.9252 264.8419 L 14.1943 262.1042 L 11.7582 257.8151 L 11.9298 250.6266 L 13.1545 243.7531 Z " stroke-width="0.8164595831650469"/>
    <g id="ID0.9434720128774643">
      <path id="ID0.6507829907350242" fill="#282828" stroke="none" stroke-linecap="round" d="M 1.7733 179.6415 L 21.5958 188.1014 L 21.7754 205.0954 L 21.8141 217.7984 L 23.2622 233.8583 L 26.2065 240.6019 L 11.7526 244.4055 L 11.8579 236.936 L 9.1485 227.3431 L 5.1843 215.199 L 3.176 202.0178 L 1.7733 179.6415 Z " stroke-width="0.8164595831650469"/>
      <path id="ID0.9892375003546476" fill="none" stroke="#191919" stroke-width="2.0000001273173775" stroke-linecap="round" d="M 12.1423 243.5076 L 25.3408 239.5563 L 22.0876 231.3152 "/>
    </g>
  </g>
  <g id="ID0.7685626554302871">
    <path id="ID0.2311431379057467" fill="#A5F3FF" stroke="none" stroke-linecap="round" d="M 10.5 3.5 L 18 6.5 L 44 32 L 54 71.5 L 34 42.5 L 10.5 3.5 Z " stroke-width="1"/>
    <path id="ID0.2311431379057467" fill="#A5F3FF" stroke="none" stroke-linecap="round" d="M 129.25 4 L 121.75 7 L 95.75 32.5 L 85.75 72 L 105.75 43 L 129.25 4 Z " stroke-width="1"/>
    <path id="ID0.2311431379057467" fill="#A5F3FF" stroke="none" stroke-linecap="round" d="M 71.5508 0.7624 L 60.3187 36.6438 L 71.0949 69.7663 L 78.202 35.677 L 71.5508 0.7624 Z " stroke-width="0.8548387417999216"/>
  </g>
</svg>