<svg xmlns="http://www.w3.org/2000/svg" xmlns:xlink="http://www.w3.org/1999/xlink" version="1.1" width="111.09785289580238" height="336.8715650540055" viewBox="-0.8348761796124862 -0.6115761747688637 111.09785289580238 336.8715650540055">
  <defs>
    <linearGradient id="grad_1" y2="1" x2="0">
      <stop offset="0" stop-color="#222325" stop-opacity="1"/>
      <stop offset="1" stop-color="#2E3034" stop-opacity="1"/>
    </linearGradient>
  </defs>
  <!-- Exported by Scratch - http://scratch.mit.edu/ -->
  <g id="ID0.9602425838820636">
    <g id="ID0.17693647183477879">
      <path id="ID0.7729651997797191" fill="#393C40" stroke="none" stroke-linecap="round" d="M 97.9463 102.3065 L 78.6707 103.4748 L 82.1754 119.6351 L 84.9012 132.6801 L 88.6006 138.1318 L 91.9105 141.4417 L 103.9821 138.1318 L 105.345 132.4854 L 100.088 113.4046 L 97.9463 102.3065 Z " stroke-width="0.7788099050521851"/>
      <path id="ID0.9716172609478235" fill="#34373A" stroke="none" stroke-linecap="round" d="M 93.9744 107.875 L 98.6472 105.6165 L 96.856 99.386 L 79.6832 108.6538 L 82.5648 111.5354 L 87.8218 113.3267 L 93.9744 107.875 Z " stroke-width="0.7788099050521851"/>
      <g id="ID0.38066427363082767">
        <path id="ID0.4757494777441025" fill="#1D1E1F" stroke="none" stroke-linecap="round" d="M 89.0199 78.5188 L 80.8445 76.4749 L 65.6293 81.1303 L 73.464 105.4293 L 83.3426 110.1983 L 87.6573 111.2202 L 90.7231 108.9492 L 93.4482 106.1106 L 98.8984 103.6126 L 99.012 98.3894 L 98.3307 90.6683 L 95.2649 82.72 L 89.0199 78.5188 Z " stroke-width="0.4541860520839691"/>
        <path id="ID0.6007084371522069" fill="none" stroke="#0D0D0D" stroke-width="0.9083721041679382" stroke-linecap="round" d="M 98.4442 103.9532 L 93.5617 106.1106 L 89.4741 109.6305 L 87.6573 111.3337 L 83.3426 110.1983 L 79.1413 108.0409 "/>
      </g>
    </g>
    <g id="ID0.7397577832452953">
      <path id="ID0.6726378230378032" fill="#34373A" stroke="none" stroke-linecap="round" d="M 104.6609 129.7096 L 89.2015 138.3544 L 89.9803 140.535 L 105.0503 131.7345 L 104.6609 129.7096 Z " stroke-width="0.7788099050521851"/>
      <path id="ID0.6507829907350242" fill="#1D1E1F" stroke="none" stroke-linecap="round" d="M 107.8761 130.7331 L 89.7688 140.4682 L 90.1582 158.5756 L 92.1052 168.7001 L 92.1052 184.0816 L 91.5211 190.3121 L 103.0086 192.2591 L 103.2033 186.0286 L 104.9556 176.6829 L 107.6814 164.806 L 109.4337 155.655 L 107.8761 130.7331 Z " stroke-width="0.7788099050521851"/>
      <path id="ID0.6829322893172503" fill="#1D1E1F" stroke="none" stroke-linecap="round" d="M 103.398 191.8697 L 93.4681 187.0021 L 90.3529 192.2591 L 86.4588 197.9055 L 86.4588 203.3571 L 87.043 207.8353 L 88.99 210.7558 L 90.3529 217.181 L 94.8311 216.9863 L 95.9993 215.0393 L 97.5569 214.8446 L 100.6721 212.3134 L 103.9821 209.3929 L 105.9291 205.1094 L 105.1503 198.2949 L 103.398 191.8697 Z " stroke-width="0.7788099050521851"/>
      <path id="ID0.47767175547778606" fill="none" stroke="#0D0D0D" stroke-width="1.5576198101043701" stroke-linecap="round" d="M 107.8761 134.5103 L 107.6035 130.6163 L 89.8467 140.4682 L 90.1582 153.8248 "/>
      <path id="ID0.5922487881034613" fill="#282A2B" stroke="none" stroke-linecap="round" d="M 108.79 163.2553 L 102.0533 157.8815 L 96.2122 157.9594 L 90.2932 163.6447 L 91.6561 177.9359 L 96.1343 185.1398 L 99.4442 185.1398 L 105.2853 178.1306 L 108.79 163.2553 Z " stroke-width="0.7788099050521851"/>
      <path id="ID0.36820242274552584" fill="#151616" stroke="none" stroke-linecap="round" d="M 102.8687 165.757 L 94.7691 165.6791 L 97.3391 176.6603 L 98.7799 176.5824 L 102.8687 165.757 Z " stroke-width="0.7788099050521851"/>
      <path id="ID0.13569410238415003" fill="none" stroke="#232425" stroke-width="1.5576198101043701" stroke-linecap="round" d="M 103.5148 176.3324 L 98.0631 183.1859 L 93.0787 176.1767 "/>
      <path id="ID0.024502143263816833" fill="none" stroke="#0D0D0D" stroke-width="1.5576198101043701" stroke-linecap="round" d="M 108.3823 162.9369 L 102.3466 157.8746 L 96.5834 157.641 L 90.5865 163.3263 L 91.4432 171.5038 "/>
    </g>
  </g>
  <g id="ID0.13780180783942342">
    <path id="ID0.3809091211296618" fill="#393D40" stroke="none" stroke-linecap="round" d="M 59.8613 178.5837 L 85.6409 166.3405 L 88.8037 205.005 L 87.8656 215.9106 L 82.5946 233.7602 L 73.9676 236.3924 L 61.0144 237.6829 L 61.0844 216.8635 L 62.8908 205.5495 L 59.8613 178.5837 Z " stroke-width="0.7305889665074583"/>
    <g id="ID0.8669879510998726">
      <path id="ID0.5368814701214433" fill="#292D2E" stroke="none" stroke-linecap="round" d="M 57.0028 320.2777 L 59.8862 311.4477 L 64.3751 302.2008 L 74.3512 308.0588 L 85.6173 315.6939 L 103.0793 326.0362 L 104.1578 332.5518 L 79.4604 333.7307 L 58.2154 330.0644 L 57.0028 320.2777 Z " stroke-width="0.7702165290554439"/>
      <path id="ID0.05466862628236413" fill="#292D2E" stroke="none" stroke-linecap="round" d="M 59.8675 231.0085 L 86.2881 226.8915 L 81.5989 245.792 L 80.0746 250.8481 L 79.6639 268.986 L 76.8671 309.6424 L 61.2124 311.678 L 58.8049 289.5594 L 55.9893 280.9526 L 54.5645 271.5404 L 56.511 258.0124 L 56.3907 245.6918 L 59.8675 231.0085 Z " stroke-width="0.7305889665074583"/>
      <path id="ID0.4490455654449761" fill="none" stroke="#272A2B" stroke-width="1.6585523586930009" stroke-linecap="round" d="M 59.5837 231.2668 L 85.9903 226.7635 L 79.4432 251.2378 "/>
      <path id="ID0.10446935473009944" fill="none" stroke="#242728" stroke-width="1.6585523586930009" stroke-linecap="round" d="M 79.225 263.5728 L 79.225 280.4111 L 68.7496 287.8513 "/>
      <path id="ID0.42170455446466804" fill="none" stroke="#242728" stroke-width="1.6585523586930009" stroke-linecap="round" d="M 78.1338 281.5859 L 76.8244 296.662 L 66.1308 304.298 "/>
      <path id="ID0.047098892275244" fill="none" stroke="#242728" stroke-width="1.6585523586930009" stroke-linecap="round" d="M 56.6237 245.5139 L 56.1872 249.4298 L 60.7702 258.2406 "/>
    </g>
  </g>
  <g id="ID0.3168069599196315">
    <path id="ID0.3809091211296618" fill="#3E4246" stroke="none" stroke-linecap="round" d="M 34.4933 154.207 L 57.7409 167.4905 L 60.9037 206.155 L 59.9656 217.0606 L 54.6946 234.9102 L 46.0676 237.5424 L 33.1144 238.8329 L 32.4531 217.071 L 30.7148 203.7681 L 34.4933 154.207 Z " stroke-width="0.7305889665074583"/>
    <g id="ID0.38464318960905075">
      <path id="ID0.5368814701214433" fill="#303436" stroke="none" stroke-linecap="round" d="M 29.1528 321.9777 L 32.0362 313.1477 L 36.5251 303.9008 L 46.5012 309.7588 L 57.7673 317.3939 L 75.2293 327.7362 L 76.3078 334.2518 L 51.6104 335.4307 L 30.3654 331.7644 L 29.1528 321.9777 Z " stroke-width="0.7702165290554439"/>
      <path id="ID0.05466862628236413" fill="#303436" stroke="none" stroke-linecap="round" d="M 31.9675 232.1585 L 58.3881 228.0415 L 53.6989 246.942 L 52.1746 251.9981 L 51.7639 270.136 L 48.9671 310.7924 L 33.3124 312.828 L 30.9049 290.7094 L 28.0893 282.1026 L 26.6645 272.6904 L 28.611 259.1624 L 28.4907 246.8418 L 31.9675 232.1585 Z " stroke-width="0.7305889665074583"/>
      <path id="ID0.4490455654449761" fill="none" stroke="#272A2B" stroke-width="1.6585523586930009" stroke-linecap="round" d="M 31.7837 233.0168 L 58.1903 228.5135 L 51.6432 252.9878 "/>
      <path id="ID0.10446935473009944" fill="none" stroke="#242728" stroke-width="1.6585523586930009" stroke-linecap="round" d="M 51.425 265.3228 L 51.425 282.1611 L 40.9496 289.6013 "/>
      <path id="ID0.42170455446466804" fill="none" stroke="#242728" stroke-width="1.6585523586930009" stroke-linecap="round" d="M 50.3338 283.3359 L 49.0244 298.412 L 38.3308 306.048 "/>
      <path id="ID0.047098892275244" fill="none" stroke="#242728" stroke-width="1.6585523586930009" stroke-linecap="round" d="M 28.8237 247.2139 L 28.3872 251.1298 L 32.9702 259.9406 "/>
    </g>
  </g>
  <g id="ID0.9602425838820636">
    <g id="ID0.17693647183477879">
      <path id="ID0.7729651997797191" fill="#3E4246" stroke="none" stroke-linecap="round" d="M 12.0372 101.5533 L 32.2446 102.778 L 28.5705 119.7196 L 25.7129 133.3953 L 21.8347 139.1105 L 18.3647 142.5804 L 5.7096 139.1105 L 4.2808 133.1911 L 9.7919 113.1879 L 12.0372 101.5533 Z " stroke-width="0.816459596157074"/>
      <path id="ID0.9716172609478235" fill="#393C40" stroke="none" stroke-linecap="round" d="M 16.2011 107.391 L 11.3024 105.0233 L 13.1802 98.4916 L 31.1832 108.2075 L 28.1623 111.2284 L 22.6512 113.1062 L 16.2011 107.391 Z " stroke-width="0.816459596157074"/>
      <g id="ID0.38066427363082767">
        <path id="ID0.4757494777441025" fill="#1D1E1F" stroke="none" stroke-linecap="round" d="M 21.4163 76.5422 L 29.9869 74.3996 L 45.9377 79.28 L 37.7242 104.7536 L 27.3681 109.7531 L 22.8447 110.8245 L 19.6308 108.4438 L 16.7739 105.4679 L 11.0602 102.8491 L 10.9412 97.3734 L 11.6554 89.279 L 14.8693 80.9465 L 21.4163 76.5422 Z " stroke-width="0.476142555475235"/>
        <path id="ID0.6007084371522069" fill="none" stroke="#0D0D0D" stroke-width="0.95228511095047" stroke-linecap="round" d="M 11.5364 103.2062 L 16.6549 105.4679 L 20.9402 109.158 L 22.8447 110.9435 L 27.3681 109.7531 L 31.7724 107.4915 "/>
      </g>
    </g>
    <g id="ID0.7397577832452953">
      <path id="ID0.6726378230378032" fill="#393C40" stroke="none" stroke-linecap="round" d="M 4.9432 130.1835 L 21.1499 139.2462 L 20.3334 141.5323 L 4.5349 132.3063 L 4.9432 130.1835 Z " stroke-width="0.816459596157074"/>
      <path id="ID0.6507829907350242" fill="#1D1E1F" stroke="none" stroke-linecap="round" d="M 1.6273 131.3541 L 20.61 141.5599 L 20.2018 160.5425 L 18.1606 171.1565 L 18.1606 187.2816 L 18.773 193.8133 L 6.7302 195.8544 L 6.5261 189.3227 L 4.689 179.5252 L 1.8314 167.0742 L -0.0056 157.4808 L 1.6273 131.3541 Z " stroke-width="0.816459596157074"/>
      <path id="ID0.6829322893172503" fill="#1D1E1F" stroke="none" stroke-linecap="round" d="M 6.322 195.4462 L 16.7318 190.3433 L 19.9977 195.8544 L 24.08 201.7738 L 24.08 207.489 L 23.4676 212.1836 L 21.4265 215.2453 L 19.9977 221.9811 L 15.303 221.777 L 14.0783 219.7359 L 12.4454 219.5317 L 9.1796 216.8783 L 5.7096 213.8165 L 3.6685 209.326 L 4.4849 202.182 L 6.322 195.4462 Z " stroke-width="0.816459596157074"/>
      <path id="ID0.47767175547778606" fill="none" stroke="#0D0D0D" stroke-width="1.632919192314148" stroke-linecap="round" d="M 1.6273 135.3139 L 1.9131 131.2316 L 20.5284 141.5599 L 20.2018 155.5621 "/>
      <path id="ID0.5922487881034613" fill="#282A2B" stroke="none" stroke-linecap="round" d="M 0.6137 165.3438 L 7.6761 159.7102 L 13.7995 159.7919 L 20.0046 165.752 L 18.5758 180.7341 L 13.8812 188.2863 L 10.4112 188.2863 L 4.2878 180.9382 L 0.6137 165.3438 Z " stroke-width="0.816459596157074"/>
      <path id="ID0.36820242274552584" fill="#151616" stroke="none" stroke-linecap="round" d="M 6.9058 168.109 L 15.397 168.0274 L 12.7027 179.5395 L 11.1922 179.4578 L 6.9058 168.109 Z " stroke-width="0.816459596157074"/>
      <path id="ID0.13569410238415003" fill="none" stroke="#232425" stroke-width="1.632919192314148" stroke-linecap="round" d="M 6.1995 179.1578 L 11.9147 186.3427 L 17.1401 178.9945 "/>
      <path id="ID0.024502143263816833" fill="none" stroke="#0D0D0D" stroke-width="1.632919192314148" stroke-linecap="round" d="M 1.0966 165.1147 L 7.4242 159.8077 L 13.466 159.5628 L 19.7527 165.5229 L 18.8546 174.0958 "/>
    </g>
  </g>
  <g id="ID0.9157347986474633">
    <path id="ID0.7477802094072104" fill="#363A3D" stroke="none" stroke-linecap="round" d="M 89.1154 124.4715 L 69.6382 120.9715 L 68.7831 162.1489 L 85.2591 171.4206 L 88.0532 146.952 L 89.1154 124.4715 Z " stroke-width="0.47614257300029306"/>
    <path id="ID0.7477802094072104" fill="#363A3D" stroke="none" stroke-linecap="round" d="M 28.7831 123.2358 L 52.2874 120.8664 L 51.4323 162.0439 L 34.5855 170.6236 L 29.6325 145.3988 L 28.7831 123.2358 Z " stroke-width="0.47614257300029306"/>
    <path id="ID0.4270821204409003" fill="#3E4246" stroke="none" stroke-linecap="round" d="M 29.5179 103.1385 L 33.5858 90.7215 L 35.968 84.937 L 42.6594 78.0513 L 73.6913 80.1245 L 80.505 84.5522 L 83.2772 88.6578 L 90.0615 100.2286 L 89.13 110.6866 L 88.0642 116.1413 L 89.587 123.0785 L 89.9494 128.5629 L 87.6639 135.421 L 85.9366 140.6238 L 84.5537 149.8818 L 85.5985 171.8108 L 80.2868 179.9158 L 75.3736 186.0287 L 63.1457 191.204 L 51.6169 187.9404 L 47.8289 181.1467 L 43.0115 174.6174 L 34.5309 171.3457 L 33.9148 145.9728 L 32.8631 139.2835 L 28.5303 127.7637 L 27.4461 116.9066 L 29.5179 103.1385 Z " stroke-width="0.47614257300029306"/>
    <path id="ID0.052435632329434156" fill="#393C40" stroke="none" stroke-linecap="round" d="M 40.6176 153.3064 L 45.0676 153.4464 L 51.5926 156.868 L 56.6659 156.8067 L 62.5079 158.7139 L 66.7193 157.7298 L 68.3953 157.2884 L 82.6758 154.1797 L 82.9646 157.4718 L 74.3094 161.4592 L 68.3653 161.0263 L 62.7086 163.9568 L 56.1172 160.2957 L 49.6817 160.5907 L 39.883 156.5772 L 40.6176 153.3064 Z " stroke-width="0.47614257300029306"/>
    <path id="ID0.4987568911164999" fill="none" stroke="#27282B" stroke-width="0.9522851460005861" stroke-linecap="round" d="M 42.4282 78.7223 L 35.8732 84.7774 L 32.3333 94.705 "/>
    <path id="ID0.2889464790932834" fill="none" stroke="#27282B" stroke-width="0.9522851460005861" stroke-linecap="round" d="M 75.0073 80.8276 L 80.6407 84.7545 L 86.1604 94.1559 "/>
    <path id="ID0.8373676878400147" fill="#000000" stroke="#2C2F31" stroke-width="0.6155104186945868" stroke-linecap="round" d="M 45.7718 91.8289 L 46.1477 90.3053 L 42.4906 91.1437 L 37.5712 94.3904 L 33.345 99.3623 L 30.7859 104.9474 L 35.9649 102.7905 L 40.6638 102.7687 L 43.3933 103.7374 L 45.8766 106.7745 L 47.9998 105.7908 L 52.0137 105.5844 L 56.5076 106.7087 L 60.2907 109.9577 L 62.3094 113.0511 L 64.5215 110.069 L 68.2778 107.0016 L 72.42 105.6457 L 77.5766 105.7213 L 79.3974 106.3414 L 81.1518 103.2619 L 83.1315 102.0408 L 85.7243 102.6183 L 88.4998 104.2822 L 87.1302 100.4475 L 84.9186 96.4983 L 82.1278 93.4475 L 78.9954 91.1516 L 74.4947 90.1811 L 76.6416 92.125 L 76.5629 93.8928 L 74.9298 95.9766 L 71.336 97.1258 L 68.1675 97.3698 L 65.5473 97.4072 L 63.0914 93.7552 L 62.6147 95.8134 L 61.1543 95.7484 L 59.6463 93.2938 L 58.6126 97.4836 L 54.5286 97.5328 L 50.4156 96.5025 L 47.0919 95.0453 L 45.7718 91.8289 Z "/>
    <path id="ID0.5698574706912041" fill="none" stroke="#313537" stroke-width="0.9522851460005861" stroke-linecap="round" d="M 40.5497 153.1383 L 39.8879 156.3392 L 49.6792 160.7097 L 56.4702 160.4935 L 62.473 163.8328 "/>
    <path id="ID0.5698574706912041" fill="none" stroke="#313537" stroke-width="0.8933066257048137" stroke-linecap="round" d="M 82.4201 154.2278 L 82.8721 157.4518 L 74.1747 161.4384 L 68.2685 160.9586 L 62.9108 164.0619 "/>
    <path id="ID0.8947288258932531" fill="#393C40" stroke="none" stroke-linecap="round" d="M 42.1069 141.2169 L 49.131 141.2437 L 56.6367 143.3045 L 62.1869 148.9442 L 55.1848 144.4173 L 44.4575 142.6944 L 39.2773 145.611 L 42.1069 141.2169 Z " stroke-width="0.47614257300029306"/>
    <path id="ID0.8947288258932531" fill="#393C40" stroke="none" stroke-linecap="round" d="M 80.8687 143.0222 L 74.657 142.7878 L 67.9447 144.3343 L 62.8299 149.1171 L 69.1875 145.3716 L 78.7361 144.2423 L 83.2093 147.0115 L 80.8687 143.0222 Z " stroke-width="0.4213738884176943"/>
    <path id="ID0.9897695370018482" fill="#393C40" stroke="none" stroke-linecap="round" d="M 45.3037 153.5466 L 38.768 152.9346 L 39.2928 148.3021 L 40.4103 151.8257 L 45.5009 152.0743 L 51.5692 155.7007 L 57.0511 155.4574 L 61.1153 156.9705 L 62.659 149.1445 L 62.6933 158.9559 L 57.1414 156.8403 L 51.2623 156.7183 L 45.3037 153.5466 Z " stroke-width="0.47614257300029306"/>
    <path id="ID0.9897695370018482" fill="#393C40" stroke="none" stroke-linecap="round" d="M 77.6103 154.4693 L 83.155 154.1415 L 82.8823 149.8173 L 81.8083 153.0505 L 77.4979 153.0939 L 72.237 156.2401 L 67.6142 155.8119 L 64.1244 157.0682 L 63.1086 149.7389 L 62.7179 158.855 L 67.4868 157.0937 L 72.4588 157.197 L 77.6103 154.4693 Z " stroke-width="0.4232251205631144"/>
    <path id="ID0.3524594851769507" fill="#393C40" stroke="none" stroke-linecap="round" d="M 56.4472 119.0607 L 62.3046 121.3731 L 66.804 119.1329 L 63.5593 122.8755 L 64.28 134.0346 L 73.3664 133.366 L 62.867 136.7199 L 51.3014 131.7887 L 60.9468 134.013 L 60.7764 122.7225 L 56.4472 119.0607 Z " stroke-width="0.47614257300029306"/>
    <path id="ID0.9214867809787393" fill="#393C40" stroke="none" stroke-linecap="round" d="M 42.1875 137.3371 L 45.2502 133.186 L 50.0304 132.3327 L 44.1001 136.972 L 43.8012 139.8947 L 48.8463 140.0471 L 56.9436 143.4299 L 48.0098 141.3394 L 42.1545 141.2178 L 42.1875 137.3371 Z " stroke-width="0.47614257300029306"/>
    <path id="ID0.9214867809787393" fill="#393C40" stroke="none" stroke-linecap="round" d="M 80.622 138.9159 L 77.9825 134.8388 L 73.6446 133.8397 L 78.8873 138.4935 L 79.0471 141.292 L 74.428 141.2415 L 67.7251 143.9429 L 75.1427 142.5062 L 80.5015 142.6175 L 80.622 138.9159 Z " stroke-width="0.4451788453890468"/>
    <path id="ID0.8679121839813888" fill="#2C2F31" stroke="none" stroke-linecap="round" d="M 58.4241 118.0054 L 62.1988 119.703 L 65.5652 118.1299 L 66.4975 119.1017 L 62.5148 121.686 L 56.8012 119.329 L 58.4241 118.0054 Z " stroke-width="0.47614257300029306"/>
    <path id="ID0.24770551454275846" fill="none" stroke="#313537" stroke-width="0.9522851460005861" stroke-linecap="round" d="M 62.4959 116.1296 L 67.0631 119.7963 L 74.5509 120.4281 L 82.1898 119.5151 L 87.5053 115.8156 "/>
    <path id="ID0.20603158557787538" fill="none" stroke="#313537" stroke-width="0.9522851460005861" stroke-linecap="round" d="M 29.2476 111.4286 L 36.158 116.9298 L 48.4683 120.4001 L 55.7403 119.9558 L 62.0103 116.157 "/>
    <g id="ID0.5272086253389716">
      <path id="ID0.24770551454275846" fill="none" stroke="#363A3D" stroke-width="0.9522850864087884" stroke-linecap="round" d="M 31.9879 144.0256 L 41.9553 141.0655 "/>
      <path id="ID0.24770551454275846" fill="none" stroke="#363A3D" stroke-width="0.9522850864087884" stroke-linecap="round" d="M 29.6542 132.0538 L 50.2053 126.2655 "/>
    </g>
    <g id="ID0.5272086253389716">
      <path id="ID0.24770551454275846" fill="none" stroke="#363A3D" stroke-width="0.9522850864087884" stroke-linecap="round" d="M 87.4797 144.2318 L 80.5807 142.2557 "/>
      <path id="ID0.24770551454275846" fill="none" stroke="#363A3D" stroke-width="0.9522850864087884" stroke-linecap="round" d="M 88.2029 132.8424 L 74.4298 127.7945 "/>
    </g>
    <g id="ID0.7887678607366979">
      <path id="ID0.753661650698632" fill="none" stroke="#313537" stroke-width="0.9522850864087884" stroke-linecap="round" d="M 56.9207 119.1896 L 62.1078 121.6786 L 66.2085 119.1444 "/>
      <g id="ID0.8167418288066983">
        <path id="ID0.9553722990676761" fill="none" stroke="#313537" stroke-width="1.0409107743576298" stroke-linecap="round" d="M 62.4063 136.5479 L 56.8392 134.2892 L 50.706 132.2569 L 45.9163 133.1099 L 42.3201 137.3214 L 42.2484 140.7727 "/>
        <path id="ID0.5982440118677914" fill="none" stroke="#313537" stroke-width="0.8540413396238158" stroke-linecap="round" d="M 51.0334 131.8556 L 49.9532 126.5387 L 55.3362 119.5913 "/>
      </g>
      <g id="ID0.7324484633281827">
        <path id="ID0.04993448918685317" fill="none" stroke="#313537" stroke-width="0.9522850864087884" stroke-linecap="round" d="M 62.1102 121.5595 L 62.6068 132.0472 L 62.7418 148.4805 L 62.6413 164.7898 "/>
        <g id="ID0.8167418288066983">
          <path id="ID0.9553722990676761" fill="none" stroke="#313537" stroke-width="0.9699703077304642" stroke-linecap="round" d="M 62.7502 136.4275 L 67.8128 135.1754 L 73.2815 133.384 L 77.457 134.4232 L 80.4528 138.7716 L 80.3811 142.2229 "/>
          <path id="ID0.5982440118677914" fill="none" stroke="#313537" stroke-width="0.7916616152166959" stroke-linecap="round" d="M 73.0361 133.0336 L 74.1927 127.7632 L 69.7336 120.6113 "/>
          <path id="ID0.3567589442245662" fill="none" stroke="#313537" stroke-width="0.8967655150693851" stroke-linecap="round" d="M 62.6263 149.1264 L 67.8586 144.2583 L 75.2253 142.5063 L 80.7521 142.6211 L 82.8958 147.309 L 83.0431 154.3367 L 77.4805 154.9355 L 71.7638 157.9124 L 66.8491 157.5722 L 62.6031 159.3176 L 56.8142 156.6971 L 51.2197 156.819 L 44.8569 153.5913 L 38.5704 152.7464 L 39.0511 145.7318 L 41.7016 141.1434 L 47.982 141.2738 L 56.2746 143.351 L 61.9911 148.4465 Z "/>
        </g>
      </g>
    </g>
    <g id="ID0.9312638868577778">
      <path id="ID0.2888958193361759" fill="#393C40" stroke="none" stroke-linecap="round" d="M 42.9592 161.4331 L 53.1308 163.729 L 52.4755 166.6319 L 42.3039 164.3359 L 42.9592 161.4331 Z " stroke-width="0.4761425459216224"/>
      <path id="ID0.2888958193361759" fill="#393C40" stroke="none" stroke-linecap="round" d="M 32.2081 159.1286 L 43.6308 161.829 L 42.9755 164.7319 L 32.8039 162.4359 L 32.2081 159.1286 Z " stroke-width="0.4761425459216224"/>
      <g id="ID0.36424446757882833">
        <path id="ID0.7359844641759992" fill="#8A7B59" stroke="none" d="M 45.8379 160.7806 L 47.3612 160.8122 L 47.2318 167.0484 L 45.7084 167.0167 L 45.8379 160.7806 Z " stroke-width="0.4761425432043942"/>
        <path id="ID0.7359844641759992" fill="#8A7B59" stroke="none" d="M 43.9879 160.3306 L 45.5112 160.3622 L 45.3818 166.5984 L 43.8584 166.5667 L 43.9879 160.3306 Z " stroke-width="0.4761425432043942"/>
        <path id="ID0.7359844641759992" fill="#8A7B59" stroke="none" d="M 42.0379 159.6306 L 43.5612 159.6622 L 43.4318 165.8984 L 41.9084 165.8667 L 42.0379 159.6306 Z " stroke-width="0.4761425432043942"/>
        <path id="ID0.7359844641759992" fill="#8A7B59" stroke="none" d="M 47.7379 161.3306 L 49.2612 161.3622 L 49.1318 167.5984 L 47.6084 167.5667 L 47.7379 161.3306 Z " stroke-width="0.4761425432043942"/>
      </g>
      <g id="ID0.1049797898158431">
        <path id="ID0.08871637750416994" fill="#8A7B59" stroke="none" stroke-linecap="round" d="M 33.9895 158.5074 L 40.3705 159.6877 L 40.2067 165.2801 L 34.0643 164.081 L 33.9895 158.5074 Z " stroke-width="0.4761425432043942"/>
        <path id="ID0.13805592898279428" fill="#76694C" stroke="none" stroke-linecap="round" d="M 33.7978 158.2378 L 40.4882 159.4245 L 40.5236 162.3065 L 33.8114 161.0241 L 33.7978 158.2378 Z " stroke-width="0.4761425432043942"/>
        <path id="ID0.3221200187690556" fill="#61563F" stroke="none" stroke-linecap="round" d="M 36.55 160.489 L 37.4208 160.8689 L 37.4618 162.6272 L 36.5129 162.2716 L 36.55 160.489 Z " stroke-width="0.5167888865886084"/>
        <path id="ID0.1420820001512766" fill="#BAA578" stroke="none" stroke-linecap="round" d="M 39.5518 164.3318 L 40.2956 162.9185 L 40.2952 165.2283 L 34.056 164.0986 L 39.5518 164.3318 Z " stroke-width="0.4761425432043942"/>
      </g>
      <path id="ID0.2888958193361759" fill="#393C40" stroke="none" stroke-linecap="round" d="M 80.5902 162.6025 L 73.1307 164.2611 L 73.5102 166.806 L 80.9697 165.1474 L 80.5902 162.6025 Z " stroke-width="0.3810469777360591"/>
      <path id="ID0.2888958193361759" fill="#393C40" stroke="none" stroke-linecap="round" d="M 87.1651 160.9157 L 80.1307 162.7111 L 80.5102 165.256 L 86.6833 163.8204 L 87.1651 160.9157 Z " stroke-width="0.3810469777360591"/>
      <path id="ID0.7359844641759992" fill="#8A7B59" stroke="none" d="M 78.5701 161.5255 L 77.4633 161.5025 L 77.3506 166.9273 L 78.4574 166.9503 L 78.5701 161.5255 Z " stroke-width="0.3816027988624045"/>
      <path id="ID0.7359844641759992" fill="#8A7B59" stroke="none" d="M 79.9701 161.0755 L 78.8633 161.0525 L 78.7506 166.4773 L 79.8574 166.5003 L 79.9701 161.0755 Z " stroke-width="0.3816027988624045"/>
      <path id="ID0.7359844641759992" fill="#8A7B59" stroke="none" d="M 81.4701 160.6255 L 80.3633 160.6025 L 80.2506 166.0273 L 81.3574 166.0503 L 81.4701 160.6255 Z " stroke-width="0.3816027988624045"/>
      <path id="ID0.7359844641759992" fill="#8A7B59" stroke="none" d="M 77.1201 162.0755 L 76.0133 162.0525 L 75.9006 167.4773 L 77.0074 167.5003 L 77.1201 162.0755 Z " stroke-width="0.3816027988624045"/>
      <g id="ID0.1049797898158431">
        <path id="ID0.08871637750416994" fill="#8A7B59" stroke="none" stroke-linecap="round" d="M 87.4077 159.8854 L 82.4448 160.7507 L 82.3742 165.9213 L 87.1538 165.0302 L 87.4077 159.8854 Z " stroke-width="0.40545296430512573"/>
        <path id="ID0.13805592898279428" fill="#76694C" stroke="none" stroke-linecap="round" d="M 87.6523 159.6886 L 82.4505 160.549 L 82.3217 163.2094 L 87.5437 162.2614 L 87.6523 159.6886 Z " stroke-width="0.40545296430512573"/>
        <path id="ID0.3221200187690556" fill="#61563F" stroke="none" stroke-linecap="round" d="M 85.5299 161.6428 L 84.8449 161.963 L 84.7513 163.5854 L 85.4957 163.2903 L 85.5299 161.6428 Z " stroke-width="0.4400648059527854"/>
        <path id="ID0.1420820001512766" fill="#BAA578" stroke="none" stroke-linecap="round" d="M 82.9982 165.1103 L 82.4743 163.7788 L 82.3933 165.912 L 87.245 165.0884 L 82.9982 165.1103 Z " stroke-width="0.40545296430512573"/>
      </g>
      <g id="ID0.6836685389280319">
        <path id="ID0.09357938077300787" fill="#857656" stroke="none" d="M 53.7247 160.9089 L 71.6952 161.2821 L 71.5618 167.7086 L 53.5913 167.3354 L 53.7247 160.9089 Z " stroke-width="0.42833206411122815"/>
        <path id="ID0.6492703901603818" fill="#7C6E50" stroke="none" stroke-linecap="round" d="M 54.3684 163.093 L 62.5158 166.3578 L 71.4106 163.4469 L 71.3221 167.7075 L 54.2799 167.3536 L 54.3684 163.093 Z " stroke-width="0.4761425432043942"/>
        <g id="ID0.9254062357358634">
          <g id="ID0.49943465692922473">
            <path id="ID0.140373723115772" fill="#968561" stroke="none" d="M 70.1906 160.0517 L 75.308 160.1579 L 75.1202 169.2027 L 70.0028 169.0964 L 70.1906 160.0517 Z " stroke-width="0.4761425432043942"/>
            <path id="ID0.8286363878287375" fill="#BAA578" stroke="none" stroke-linecap="round" d="M 70.1728 159.8742 L 75.4043 160.221 L 71.2469 160.8966 L 70.1789 163.0176 L 70.1728 159.8742 Z " stroke-width="0.4761425432043942"/>
            <path id="ID0.7362233307212591" fill="#8A7B59" stroke="none" stroke-linecap="round" d="M 70.07 165.968 L 72.7825 166.072 L 75.2845 163.6951 L 75.1683 169.2885 L 70.0033 169.1813 L 70.07 165.968 Z " stroke-width="0.4761425432043942"/>
          </g>
          <g id="ID0.49943465692922473">
            <path id="ID0.140373723115772" fill="#968561" stroke="none" d="M 55.1483 159.9906 L 50.0309 159.8843 L 49.8431 168.9291 L 54.9605 169.0354 L 55.1483 159.9906 Z " stroke-width="0.4761425432043942"/>
            <path id="ID0.8286363878287375" fill="#BAA578" stroke="none" stroke-linecap="round" d="M 55.2093 159.8013 L 49.9679 159.9306 L 54.0936 160.7782 L 55.0726 162.9417 L 55.2093 159.8013 Z " stroke-width="0.4761425432043942"/>
            <path id="ID0.7362233307212591" fill="#8A7B59" stroke="none" stroke-linecap="round" d="M 55.0589 165.8941 L 52.3445 165.8854 L 49.9433 163.4066 L 49.8272 169.0001 L 54.9922 169.1074 L 55.0589 165.8941 Z " stroke-width="0.4761425432043942"/>
          </g>
        </g>
      </g>
    </g>
  </g>
  <g id="ID0.8333355090580881">
    <path id="ID0.9286923445761204" fill="#27282B" stroke="none" stroke-linecap="round" d="M 48.863 44.1601 L 67.6707 45.6361 L 68.1468 69.9908 L 83.3834 77.1329 L 60.5285 88.4889 L 23.8656 75.9426 L 43.7445 65.3484 L 48.863 44.1601 Z " stroke-width="0.4761425852775574"/>
    <path id="ID0.5448851804248989" fill="none" stroke="#1D1E1F" stroke-width="0.9522851705551147" stroke-linecap="round" d="M 45.1729 59.5871 L 43.935 65.158 L 61.0285 73.0143 L 67.8611 70.086 "/>
    <path id="ID0.262191956397146" fill="none" stroke="#1D1E1F" stroke-width="0.9522851705551147" stroke-linecap="round" d="M 47.9346 64.539 L 60.6476 70.7288 L 63.6473 69.6099 "/>
  </g>
  <g id="ID0.3450673264451325">
    <g id="ID0.9831569031812251">
      <path id="ID0.0877610077150166" fill="#2E3034" stroke="none" stroke-linecap="round" d="M 71.7251 13.3343 L 67.1527 0.2177 L 67.1527 28.7463 L 74.8241 28.7463 L 71.7251 13.3343 Z " stroke-width="0.5866066539949776"/>
      <path id="ID0.796130308881402" fill="#242628" stroke="none" stroke-linecap="round" d="M 72.033 13.3789 L 67.105 0.2623 L 70.6613 14.1004 L 71.6012 28.9877 L 74.7764 28.6926 L 72.033 13.3789 Z " stroke-width="0.5866066539949776"/>
    </g>
    <g id="ID0.9831569031812251">
      <path id="ID0.0877610077150166" fill="#2E3034" stroke="none" stroke-linecap="round" d="M 47.8249 13.4843 L 52.3973 0.3677 L 52.3973 28.8963 L 44.7259 28.8963 L 47.8249 13.4843 Z " stroke-width="0.5866066539949776"/>
      <path id="ID0.796130308881402" fill="#242628" stroke="none" stroke-linecap="round" d="M 47.417 13.5289 L 52.345 0.4123 L 48.7887 14.2504 L 47.6964 28.8098 L 44.6736 28.8426 L 47.417 13.5289 Z " stroke-width="0.5866066539949776"/>
    </g>
    <path id="ID0.8999492498114705" fill="#2E3034" stroke="none" stroke-linecap="round" d="M 65.3733 19.3124 C 69.7775 19.7915 74.5093 22.5019 76.6416 26.3848 C 79.0745 30.8179 77.1267 36.4165 77.4265 41.412 C 77.5997 43.1155 78.3923 44.8682 78.0615 46.4924 C 77.3879 49.7962 75.7139 52.8251 74.6323 56.0181 C 73.9236 58.1107 73.7691 60.4655 72.6001 62.3686 C 71.2843 64.6212 69.9416 67.7553 67.3419 68.211 C 63.488 68.8862 59.4115 67.0451 55.9619 65.2898 C 53.1281 63.8475 50.4746 61.6355 48.9002 58.8631 C 46.0806 53.7182 43.5196 48.0582 43.134 42.1741 C 42.7067 35.6514 41.9365 27.5853 46.6902 22.8687 C 50.9425 18.3273 58.8262 18.6032 65.3733 19.3124 Z " stroke-width="0.508037269115448"/>
    <path id="ID0.2441388238221407" fill="#AB8E85" stroke="none" d="M 63.0438 44.1745 C 67.1241 44.3416 72.5631 41.1768 75.2883 43.9234 C 77.7434 46.5142 74.3753 51.3755 73.4045 54.8492 C 72.4375 58.304 71.7493 62.0426 69.5114 64.8959 C 68.4439 66.1643 66.2186 66.2359 64.488 65.9634 C 61.3761 65.4698 58.3143 64.1864 55.7198 62.3955 C 53.0348 60.5432 49.487 58.5137 48.9156 55.2887 C 48.1923 51.2035 48.8566 45.8084 52.0552 43.2327 C 54.9889 40.9834 59.3743 44.0238 63.0438 44.1745 Z " stroke-width="1.2558400630950928"/>
    <path id="ID0.46721756737679243" fill="#A2887F" stroke="none" stroke-linecap="round" d="M 48.4363 45.2953 L 50.1129 45.9812 L 76.1244 45.6001 L 68.9102 50.6805 L 52.1704 48.2165 L 53.2881 50.6043 L 53.5421 56.2181 L 57.1746 63.4068 L 52.6023 56.7261 L 48.4363 45.2953 Z " stroke-width="0.508037269115448"/>
    <path id="ID0.8256730306893587" fill="none" stroke="#937B73" stroke-width="1.016074538230896" stroke-linecap="round" d="M 59.3886 57.0778 C 59.3886 57.0778 62.0878 56.4813 63.4529 56.2903 C 63.7943 56.2425 64.1326 56.3203 64.4689 56.3665 C 64.8109 56.4138 65.1401 56.5814 65.485 56.5697 C 66.1688 56.5469 66.8379 56.3497 67.5172 56.2649 C 67.854 56.2227 68.1939 56.1846 68.5332 56.1887 C 68.8731 56.1928 69.2181 56.2131 69.5493 56.2903 C 70.0939 56.4173 71.1496 56.7983 71.1496 56.7983 "/>
    <path id="ID0.7592270169407129" fill="none" stroke="#937B73" stroke-width="1.016074538230896" stroke-linecap="round" d="M 67.9693 58.4019 C 67.9693 58.4019 67.3475 58.7468 67.004 58.8083 C 66.6708 58.8682 66.3248 58.7235 65.988 58.7575 C 65.6491 58.792 65.3351 58.9688 64.9973 59.0115 C 64.6615 59.0542 64.3109 59.0867 63.9812 59.0115 C 63.7008 58.9475 63.2192 58.6051 63.2192 58.6051 "/>
    <path id="ID0.5332203092984855" fill="none" stroke="#937B73" stroke-width="1.016074538230896" stroke-linecap="round" d="M 62.0009 48.9532 C 62.0009 48.9532 61.3954 49.385 61.2897 49.7152 C 61.1525 50.1577 60.898 51.0026 61.3405 51.3156 C 61.9212 51.6056 62.6797 50.8786 63.3726 50.9345 C 64.0433 50.9914 65.354 51.4426 65.354 51.4426 "/>
    <path id="ID0.2278452254831791" fill="none" stroke="#937B73" stroke-width="1.016074538230896" stroke-linecap="round" d="M 66.3447 45.2953 C 66.3447 45.2953 67.2789 47.1578 67.7418 48.0895 C 67.8967 48.4015 68.0674 48.7073 68.199 49.0294 C 68.3306 49.3515 68.5429 49.6726 68.5292 50.0201 C 68.5155 50.3686 68.3092 50.6907 68.1228 50.9853 C 67.9983 51.1824 67.6148 51.468 67.6148 51.468 "/>
    <path id="ID0.6473136460408568" fill="none" stroke="#937B73" stroke-width="1.016074563998663" stroke-linecap="round" d="M 66.6945 62.2247 C 66.6945 62.2247 67.0113 62.8595 67.0622 63.2041 C 67.1113 63.5396 67.0513 63.8871 66.9877 64.2203 C 66.8923 64.7223 66.5871 65.7015 66.5871 65.7015 "/>
    <path id="ID0.11669129692018032" fill="#2E3034" stroke="none" stroke-linecap="round" d="M 50.3669 39.9609 L 73.6096 41.739 L 77.5469 44.4062 L 68.1482 49.1056 L 47.4457 46.5654 L 50.3669 39.9609 Z " stroke-width="0.508037269115448"/>
    <path id="ID0.14635155349969864" fill="#2E3034" stroke="none" stroke-linecap="round" d="M 47.6997 45.2191 L 49.554 45.6001 L 52.1958 50.8075 L 52.5006 56.5737 L 54.3296 60.384 L 57.2254 63.9149 L 48.9952 58.7075 L 47.6997 45.2191 Z " stroke-width="0.508037269115448"/>
    <path id="ID0.28340246016159654" fill="#1C1D1F" stroke="none" stroke-linecap="round" d="M 50.5308 36.8008 L 53.9604 38.3401 L 63.6283 39.2313 L 63.6283 44.9834 L 56.688 44.0382 L 52.8262 42.958 L 50.8008 41.4457 L 49.9367 39.7174 L 50.5308 36.8008 Z " stroke-width="0.5401026606559753"/>
    <path id="ID0.6101007834076881" fill="#FFFFFF" stroke="none" stroke-linecap="round" d="M 54.3473 39.3334 L 56.0001 39.7332 L 59.78 40.9344 L 60.3247 42.9027 L 55.07 41.4498 L 54.3473 39.3334 Z " stroke-width="0.4061061920009203"/>
    <path id="ID0.28340246016159654" fill="#1C1D1F" stroke="none" stroke-linecap="round" d="M 76.1357 36.8586 L 73.0774 38.2313 L 64.4563 39.0259 L 64.4563 44.1553 L 70.6452 43.3124 L 74.0888 42.3492 L 75.8949 41.0006 L 76.6655 39.4594 L 76.1357 36.8586 Z " stroke-width="0.4816249907016754"/>
    <path id="ID0.6101007834076881" fill="#FFFFFF" stroke="none" stroke-linecap="round" d="M 74.4526 38.9089 L 72.9112 39.4003 L 69.4053 40.7963 L 69.0217 42.7012 L 73.9101 40.9663 L 74.4526 38.9089 Z " stroke-width="0.3863867372519633"/>
    <g id="ID0.07940126257017255">
      <path id="ID0.46257128613069654" fill="#27282B" stroke="none" stroke-linecap="round" d="M 63.8045 39.0743 L 68.1482 49.0318 L 58.1145 47.7617 L 63.8045 39.0743 Z " stroke-width="0.508037269115448"/>
      <path id="ID0.9845890481956303" fill="#27282B" stroke="none" stroke-linecap="round" d="M 64.6173 39.1989 L 72.8983 46.5654 L 68.2244 49.1056 L 64.6173 39.1989 Z " stroke-width="0.508037269115448"/>
    </g>
    <path id="ID0.20071752788498998" fill="#202324" stroke="none" d="M 55.3686 34.5018 L 59.5091 37.0673 L 64.2593 38.2358 L 64.3355 39.6329 L 56.5625 38.3628 L 50.6693 36.0259 L 52.3966 34.2477 L 55.3686 34.5018 Z " stroke-width="0.508037269115448"/>
    <path id="ID0.20071752788498998" fill="#202324" stroke="none" d="M 72.4242 34.2614 L 69.3713 36.7084 L 64.1277 38.2698 L 64.0578 39.5516 L 71.1891 38.3864 L 76.6191 36.3588 L 75.081 34.1216 L 72.4242 34.2614 Z " stroke-width="0.46609798073768616"/>
    <path id="ID0.521138689480722" fill="none" stroke="#212325" stroke-width="0.9060627222061157" stroke-linecap="round" d="M 76.2139 36.5742 L 72.9747 38.1598 L 64.4351 39.4057 "/>
    <path id="ID0.17828734638169408" fill="none" stroke="#202324" stroke-width="1.016074538230896" stroke-linecap="round" d="M 68.0466 48.5467 L 65.1254 41.3072 C 64.1245 38.8879 64.2729 39.4564 64.0839 38.4876 C 64.0179 38.1493 64.2358 37.8129 64.2871 37.4715 C 64.3374 37.1352 64.4014 36.7953 64.3887 36.4555 C 64.376 36.112 64.2769 35.7762 64.2109 35.4394 C 64.1078 34.9136 63.8807 33.8645 63.8807 33.8645 "/>
    <path id="ID0.521138689480722" fill="none" stroke="#212325" stroke-width="1.016074538230896" stroke-linecap="round" d="M 50.8068 36.3055 L 54.4392 38.0836 L 64.0157 39.4807 "/>
    <path id="ID0.8012696979567409" fill="none" stroke="url(#grad_1)" stroke-width="1.016074538230896" stroke-linecap="round" d="M 76.1244 45.1429 L 68.6562 49.0548 L 50.0621 46.7178 L 52.0434 50.5789 L 52.3482 56.6753 L 54.2788 60.2824 L 57.1746 63.9149 "/>
    <path id="ID0.043594349175691605" fill="#D7E2FD" stroke="none" stroke-linecap="round" d="M 59.5289 41.9677 L 59.7575 40.85 L 60.2656 42.9075 L 57.6746 42.1709 L 59.5289 41.9677 Z " stroke-width="0.508037269115448"/>
    <path id="ID0.043594349175691605" fill="#D7E2FD" stroke="none" stroke-linecap="round" d="M 69.7225 41.8348 L 69.4574 40.8321 L 69.1024 42.7258 L 71.4161 41.9236 L 69.7225 41.8348 Z " stroke-width="0.4618642652203811"/>
  </g>
</svg>