<svg xmlns="http://www.w3.org/2000/svg" xmlns:xlink="http://www.w3.org/1999/xlink" version="1.1" width="138.5300582569392" height="337.08393704111893" viewBox="1.2827237287386417 -0.6115762552396297 138.5300582569392 337.08393704111893">
  <defs>
    <linearGradient id="grad_1" y2="1" x2="0">
      <stop offset="0" stop-color="#222325" stop-opacity="1"/>
      <stop offset="1" stop-color="#2E3034" stop-opacity="1"/>
    </linearGradient>
  </defs>
  <!-- Exported by Scratch - http://scratch.mit.edu/ -->
  <g id="ID0.9602425838820636">
    <g id="ID0.17693647183477879">
      <path id="ID0.7729651997797191" fill="#393C40" stroke="none" stroke-linecap="round" d="M 109.3461 104.0532 L 90.0536 103.2099 L 91.8582 119.6471 L 93.2122 132.905 L 96.3243 138.7119 L 99.272 142.3482 L 111.6224 140.312 L 113.5653 134.838 L 110.3217 115.3139 L 109.3461 104.0532 Z " stroke-width="0.7788099531442465"/>
      <path id="ID0.9716172609478235" fill="#34373A" stroke="none" stroke-linecap="round" d="M 104.8165 109.1783 L 109.6989 107.4181 L 108.5655 101.0351 L 90.5218 108.4663 L 93.088 111.632 L 98.1301 113.9604 L 104.8165 109.1783 Z " stroke-width="0.7788099531442465"/>
      <g id="ID0.38066427363082767">
        <path id="ID0.4757494777441025" fill="#1D1E1F" stroke="none" stroke-linecap="round" d="M 102.866 79.5235 L 94.9476 76.6403 L 79.3307 79.6877 L 84.5951 104.6698 L 93.924 110.4405 L 98.109 111.9057 L 101.3944 109.9661 L 104.4 107.4263 L 110.0805 105.5088 L 110.7368 100.3258 L 110.8624 92.5756 L 108.6401 84.3516 L 102.866 79.5235 Z " stroke-width="0.4541860560700575"/>
        <path id="ID0.6007084371522069" fill="none" stroke="#0D0D0D" stroke-width="0.908372112140115" stroke-linecap="round" d="M 109.5934 105.8003 L 104.5129 107.4381 L 100.0813 110.5137 L 98.0972 112.0187 L 93.924 110.4405 L 89.97 107.8578 "/>
      </g>
    </g>
    <g id="ID0.7397577832452953">
      <path id="ID0.6726378230378032" fill="#34373A" stroke="none" stroke-linecap="round" d="M 113.1679 132.0162 L 96.8931 139.0059 L 97.4408 141.2558 L 113.3445 134.0707 L 113.1679 132.0162 Z " stroke-width="0.7788099531442465"/>
      <path id="ID0.6507829907350242" fill="#1D1E1F" stroke="none" stroke-linecap="round" d="M 116.265 133.3585 L 97.2432 141.1572 L 95.7468 159.2068 L 96.63 169.4789 L 95.03 184.777 L 93.8009 190.9129 L 105.0235 194.0444 L 105.8652 187.8679 L 108.5803 178.7552 L 112.5268 167.2264 L 115.2216 158.3073 L 116.265 133.3585 Z " stroke-width="0.7788099531442465"/>
      <path id="ID0.6829322893172503" fill="#1D1E1F" stroke="none" stroke-linecap="round" d="M 105.4513 193.6976 L 96.0817 187.8235 L 92.4365 192.7278 L 87.9762 197.9385 L 87.4091 203.3606 L 87.5241 207.8752 L 89.1568 210.9824 L 89.8439 217.5145 L 94.318 217.7867 L 95.6825 215.9718 L 97.2519 215.9402 L 100.6135 213.7469 L 104.2093 211.1865 L 106.5914 207.1288 L 106.5257 200.2702 L 105.4513 193.6976 Z " stroke-width="0.7788099531442465"/>
      <path id="ID0.47767175547778606" fill="none" stroke="#0D0D0D" stroke-width="1.557619906288493" stroke-linecap="round" d="M 115.872 137.1153 L 116.006 133.214 L 97.3206 141.1653 L 96.241 154.4818 "/>
      <path id="ID0.5922487881034613" fill="#282A2B" stroke="none" stroke-linecap="round" d="M 113.7673 165.8363 L 107.6262 159.7909 L 101.8087 159.2607 L 95.3304 164.2995 L 95.1993 178.6549 L 98.9037 186.2856 L 102.1957 186.63 L 108.7343 180.2663 L 113.7673 165.8363 Z " stroke-width="0.7788099531442465"/>
      <path id="ID0.36820242274552584" fill="#151616" stroke="none" stroke-linecap="round" d="M 107.6705 167.7104 L 99.623 166.7904 L 101.0368 177.9794 L 102.4778 178.0518 L 107.6705 167.7104 Z " stroke-width="0.7788099531442465"/>
      <path id="ID0.13569410238415003" fill="none" stroke="#232425" stroke-width="1.557619906288493" stroke-linecap="round" d="M 107.1837 178.2568 L 101.0487 184.506 L 96.8205 177.0162 "/>
      <path id="ID0.024502143263816833" fill="none" stroke="#0D0D0D" stroke-width="1.557619906288493" stroke-linecap="round" d="M 113.4184 165.4403 L 107.942 159.7776 L 102.2343 158.9457 L 95.6786 163.9763 L 95.68 172.1986 "/>
    </g>
  </g>
  <path id="ID0.3809091211296618" fill="#393D40" stroke="none" stroke-linecap="round" d="M 78.5337 188.3581 L 98.4286 167.8966 L 114.8708 203.0335 L 117.793 213.5821 L 119.0746 232.1494 L 111.9063 237.6238 L 100.2154 243.3486 L 93.0237 223.8106 L 90.773 212.5765 L 78.5337 188.3581 Z " stroke-width="0.7305889917079205"/>
  <path id="ID0.3809091211296618" fill="#3E4246" stroke="none" stroke-linecap="round" d="M 53.3664 154.4401 L 73.0364 172.6058 L 67.4339 210.9928 L 64.0703 221.409 L 54.9247 237.6186 L 45.927 238.2458 L 33.0149 236.594 L 37.2584 215.2395 L 38.5526 201.8861 L 53.3664 154.4401 Z " stroke-width="0.7305889612713019"/>
  <path id="ID0.5368814701214433" fill="#303436" stroke="none" stroke-linecap="round" d="M 2.8417 314.3623 L 7.4002 306.2689 L 13.6149 298.0816 L 22.249 305.7817 L 31.7995 315.4775 L 46.895 329.0426 L 46.6751 335.6431 L 22.2259 331.9571 L 2.112 324.1967 L 2.8417 314.3623 Z " stroke-width="0.7702165239210417"/>
  <g id="ID0.17693647183477879">
    <path id="ID0.7729651997797191" fill="#3E4246" stroke="none" stroke-linecap="round" d="M 26.2861 103.0511 L 46.4706 101.4944 L 45.1534 118.7796 L 44.1974 132.7179 L 41.1392 138.9108 L 38.1776 142.8236 L 25.1663 141.1211 L 22.9396 135.4535 L 25.6568 114.8836 L 26.2861 103.0511 Z " stroke-width="0.8164595783411133"/>
    <path id="ID0.9716172609478235" fill="#393C40" stroke="none" stroke-linecap="round" d="M 31.2109 108.2629 L 26.0338 106.5891 L 26.9986 99.8616 L 46.1634 107.0181 L 43.5851 110.4245 L 38.3835 113.0401 L 31.2109 108.2629 Z " stroke-width="0.8164595783411133"/>
    <g id="ID0.38066427363082767">
      <path id="ID0.4757494777441025" fill="#1D1E1F" stroke="none" stroke-linecap="round" d="M 32.1351 76.9965 L 40.331 73.6993 L 56.8002 76.3473 L 52.1561 102.7063 L 42.583 109.0781 L 38.2492 110.7594 L 34.7393 108.8417 L 31.5015 106.2855 L 25.4827 104.4746 L 24.6142 99.067 L 24.2122 90.9511 L 26.2536 82.2567 L 32.1351 76.9965 Z " stroke-width="0.47614253736162115"/>
      <path id="ID0.6007084371522069" fill="none" stroke="#0D0D0D" stroke-width="0.9522850747232423" stroke-linecap="round" d="M 26.0033 104.7631 L 31.3835 106.3018 L 36.1342 109.3697 L 38.2655 110.8773 L 42.583 109.0781 L 46.6358 106.2341 "/>
    </g>
  </g>
  <g id="ID0.7397577832452953">
    <path id="ID0.6726378230378032" fill="#393C40" stroke="none" stroke-linecap="round" d="M 22.7482 133.785 L 40.7236 138.4405 L 40.5137 140.859 L 22.8918 135.942 L 22.7482 133.785 Z " stroke-width="0.8164595730325007"/>
    <path id="ID0.6507829907350242" fill="#1D1E1F" stroke="none" stroke-linecap="round" d="M 19.848 135.7506 L 40.7986 140.8077 L 45.2186 159.2731 L 45.9365 170.0577 L 50.0266 185.6554 L 52.2757 191.8182 L 41.1445 196.8472 L 39.2903 190.5809 L 35.0282 181.5698 L 29.1058 170.2508 L 24.8955 161.4371 L 19.848 135.7506 Z " stroke-width="0.8164595730325007"/>
    <path id="ID0.6829322893172503" fill="#1D1E1F" stroke="none" stroke-linecap="round" d="M 40.646 196.5559 L 49.4211 188.9794 L 53.978 193.4819 L 59.4283 198.1722 L 60.8779 203.7005 L 61.4764 208.3969 L 60.2786 211.8763 L 60.6051 218.7542 L 56.0122 219.7475 L 54.3098 218.0838 L 52.6785 218.3005 L 48.8464 216.5622 L 44.7133 214.4807 L 41.5999 210.6548 L 40.5776 203.5373 L 40.646 196.5559 Z " stroke-width="0.8164595730325007"/>
    <path id="ID0.47767175547778606" fill="none" stroke="#0D0D0D" stroke-width="1.6329191460650014" stroke-linecap="round" d="M 20.8524 139.581 L 20.0934 135.5597 L 40.7196 140.8284 L 43.9554 154.4556 "/>
    <path id="ID0.5922487881034613" fill="#282A2B" stroke="none" stroke-linecap="round" d="M 27.4523 168.9338 L 32.8547 161.6931 L 38.7986 160.2189 L 46.3126 164.4102 L 48.7307 179.2647 L 46.1052 187.7608 L 42.7487 188.6409 L 34.9617 183.0863 L 27.4523 168.9338 Z " stroke-width="0.8164595730325007"/>
    <path id="ID0.36820242274552584" fill="#151616" stroke="none" stroke-linecap="round" d="M 34.281 169.9723 L 42.4738 167.7395 L 42.7876 179.5585 L 41.3059 179.8627 L 34.281 169.9723 Z " stroke-width="0.8164595730325007"/>
    <path id="ID0.13569410238415003" fill="none" stroke="#232425" stroke-width="1.6329191460650014" stroke-linecap="round" d="M 36.396 180.8312 L 43.7468 186.3315 L 46.9374 177.8982 "/>
    <path id="ID0.024502143263816833" fill="none" stroke="#0D0D0D" stroke-width="1.6329191460650014" stroke-linecap="round" d="M 27.898 168.5417 L 32.6725 161.8033 L 38.4546 160.0339 L 46.0476 164.2045 L 47.3533 172.7248 "/>
  </g>
  <g id="ID0.9157347986474633">
    <path id="ID0.7477802094072104" fill="#363A3D" stroke="none" stroke-linecap="round" d="M 103.1154 124.4715 L 83.6382 120.9715 L 82.7831 162.1489 L 99.2591 171.4206 L 102.0532 146.952 L 103.1154 124.4715 Z " stroke-width="0.47614257300029306"/>
    <path id="ID0.7477802094072104" fill="#363A3D" stroke="none" stroke-linecap="round" d="M 42.7831 123.2358 L 66.2874 120.8664 L 65.4323 162.0439 L 48.5855 170.6236 L 43.6325 145.3988 L 42.7831 123.2358 Z " stroke-width="0.47614257300029306"/>
    <path id="ID0.4270821204409003" fill="#3E4246" stroke="none" stroke-linecap="round" d="M 43.5179 103.1385 L 47.5858 90.7215 L 49.968 84.937 L 56.6594 78.0513 L 87.6913 80.1245 L 94.505 84.5522 L 97.2772 88.6578 L 104.0615 100.2286 L 103.13 110.6866 L 102.0642 116.1413 L 103.587 123.0785 L 103.9494 128.5629 L 101.6639 135.421 L 99.9366 140.6238 L 98.5537 149.8818 L 99.5985 171.8108 L 94.2868 179.9158 L 89.3736 186.0287 L 77.1457 191.204 L 65.6169 187.9404 L 61.8289 181.1467 L 57.0115 174.6174 L 48.5309 171.3457 L 47.9148 145.9728 L 46.8631 139.2835 L 42.5303 127.7637 L 41.4461 116.9066 L 43.5179 103.1385 Z " stroke-width="0.47614257300029306"/>
    <path id="ID0.052435632329434156" fill="#393C40" stroke="none" stroke-linecap="round" d="M 54.6176 153.3064 L 59.0676 153.4464 L 65.5926 156.868 L 70.6659 156.8067 L 76.5079 158.7139 L 80.7193 157.7298 L 82.3953 157.2884 L 96.6758 154.1797 L 96.9646 157.4718 L 88.3094 161.4592 L 82.3653 161.0263 L 76.7086 163.9568 L 70.1172 160.2957 L 63.6817 160.5907 L 53.883 156.5772 L 54.6176 153.3064 Z " stroke-width="0.47614257300029306"/>
    <path id="ID0.4987568911164999" fill="none" stroke="#27282B" stroke-width="0.9522851460005861" stroke-linecap="round" d="M 56.4282 78.7223 L 49.8732 84.7774 L 46.3333 94.705 "/>
    <path id="ID0.2889464790932834" fill="none" stroke="#27282B" stroke-width="0.9522851460005861" stroke-linecap="round" d="M 89.0073 80.8276 L 94.6407 84.7545 L 100.1604 94.1559 "/>
    <path id="ID0.8373676878400147" fill="#000000" stroke="#2C2F31" stroke-width="0.6155104186945868" stroke-linecap="round" d="M 59.7718 91.8289 L 60.1477 90.3053 L 56.4906 91.1437 L 51.5712 94.3904 L 47.345 99.3623 L 44.7859 104.9474 L 49.9649 102.7905 L 54.6638 102.7687 L 57.3933 103.7374 L 59.8766 106.7745 L 61.9998 105.7908 L 66.0137 105.5844 L 70.5076 106.7087 L 74.2907 109.9577 L 76.3094 113.0511 L 78.5215 110.069 L 82.2778 107.0016 L 86.42 105.6457 L 91.5766 105.7213 L 93.3974 106.3414 L 95.1518 103.2619 L 97.1315 102.0408 L 99.7243 102.6183 L 102.4998 104.2822 L 101.1302 100.4475 L 98.9186 96.4983 L 96.1278 93.4475 L 92.9954 91.1516 L 88.4947 90.1811 L 90.6416 92.125 L 90.5629 93.8928 L 88.9298 95.9766 L 85.336 97.1258 L 82.1675 97.3698 L 79.5473 97.4072 L 77.0914 93.7552 L 76.6147 95.8134 L 75.1543 95.7484 L 73.6463 93.2938 L 72.6126 97.4836 L 68.5286 97.5328 L 64.4156 96.5025 L 61.0919 95.0453 L 59.7718 91.8289 Z "/>
    <path id="ID0.5698574706912041" fill="none" stroke="#313537" stroke-width="0.9522851460005861" stroke-linecap="round" d="M 54.5497 153.1383 L 53.8879 156.3392 L 63.6792 160.7097 L 70.4702 160.4935 L 76.473 163.8328 "/>
    <path id="ID0.5698574706912041" fill="none" stroke="#313537" stroke-width="0.8933066257048137" stroke-linecap="round" d="M 96.4201 154.2278 L 96.8721 157.4518 L 88.1747 161.4384 L 82.2685 160.9586 L 76.9108 164.0619 "/>
    <path id="ID0.8947288258932531" fill="#393C40" stroke="none" stroke-linecap="round" d="M 56.1069 141.2169 L 63.131 141.2437 L 70.6367 143.3045 L 76.1869 148.9442 L 69.1848 144.4173 L 58.4575 142.6944 L 53.2773 145.611 L 56.1069 141.2169 Z " stroke-width="0.47614257300029306"/>
    <path id="ID0.8947288258932531" fill="#393C40" stroke="none" stroke-linecap="round" d="M 94.8687 143.0222 L 88.657 142.7878 L 81.9447 144.3343 L 76.8299 149.1171 L 83.1875 145.3716 L 92.7361 144.2423 L 97.2093 147.0115 L 94.8687 143.0222 Z " stroke-width="0.4213738884176943"/>
    <path id="ID0.9897695370018482" fill="#393C40" stroke="none" stroke-linecap="round" d="M 59.3037 153.5466 L 52.768 152.9346 L 53.2928 148.3021 L 54.4103 151.8257 L 59.5009 152.0743 L 65.5692 155.7007 L 71.0511 155.4574 L 75.1153 156.9705 L 76.659 149.1445 L 76.6933 158.9559 L 71.1414 156.8403 L 65.2623 156.7183 L 59.3037 153.5466 Z " stroke-width="0.47614257300029306"/>
    <path id="ID0.9897695370018482" fill="#393C40" stroke="none" stroke-linecap="round" d="M 91.6103 154.4693 L 97.155 154.1415 L 96.8823 149.8173 L 95.8083 153.0505 L 91.4979 153.0939 L 86.237 156.2401 L 81.6142 155.8119 L 78.1244 157.0682 L 77.1086 149.7389 L 76.7179 158.855 L 81.4868 157.0937 L 86.4588 157.197 L 91.6103 154.4693 Z " stroke-width="0.4232251205631144"/>
    <path id="ID0.3524594851769507" fill="#393C40" stroke="none" stroke-linecap="round" d="M 70.4472 119.0607 L 76.3046 121.3731 L 80.804 119.1329 L 77.5593 122.8755 L 78.28 134.0346 L 87.3664 133.366 L 76.867 136.7199 L 65.3014 131.7887 L 74.9468 134.013 L 74.7764 122.7225 L 70.4472 119.0607 Z " stroke-width="0.47614257300029306"/>
    <path id="ID0.9214867809787393" fill="#393C40" stroke="none" stroke-linecap="round" d="M 56.1875 137.3371 L 59.2502 133.186 L 64.0304 132.3327 L 58.1001 136.972 L 57.8012 139.8947 L 62.8463 140.0471 L 70.9436 143.4299 L 62.0098 141.3394 L 56.1545 141.2178 L 56.1875 137.3371 Z " stroke-width="0.47614257300029306"/>
    <path id="ID0.9214867809787393" fill="#393C40" stroke="none" stroke-linecap="round" d="M 94.622 138.9159 L 91.9825 134.8388 L 87.6446 133.8397 L 92.8873 138.4935 L 93.0471 141.292 L 88.428 141.2415 L 81.7251 143.9429 L 89.1427 142.5062 L 94.5015 142.6175 L 94.622 138.9159 Z " stroke-width="0.4451788453890468"/>
    <path id="ID0.8679121839813888" fill="#2C2F31" stroke="none" stroke-linecap="round" d="M 72.4241 118.0054 L 76.1988 119.703 L 79.5652 118.1299 L 80.4975 119.1017 L 76.5148 121.686 L 70.8012 119.329 L 72.4241 118.0054 Z " stroke-width="0.47614257300029306"/>
    <path id="ID0.24770551454275846" fill="none" stroke="#313537" stroke-width="0.9522851460005861" stroke-linecap="round" d="M 76.4959 116.1296 L 81.0631 119.7963 L 88.5509 120.4281 L 96.1898 119.5151 L 101.5053 115.8156 "/>
    <path id="ID0.20603158557787538" fill="none" stroke="#313537" stroke-width="0.9522851460005861" stroke-linecap="round" d="M 43.2476 111.4286 L 50.158 116.9298 L 62.4683 120.4001 L 69.7403 119.9558 L 76.0103 116.157 "/>
    <g id="ID0.5272086253389716">
      <path id="ID0.24770551454275846" fill="none" stroke="#363A3D" stroke-width="0.9522850864087884" stroke-linecap="round" d="M 45.9879 144.0256 L 55.9553 141.0655 "/>
      <path id="ID0.24770551454275846" fill="none" stroke="#363A3D" stroke-width="0.9522850864087884" stroke-linecap="round" d="M 43.6542 132.0538 L 64.2053 126.2655 "/>
    </g>
    <g id="ID0.5272086253389716">
      <path id="ID0.24770551454275846" fill="none" stroke="#363A3D" stroke-width="0.9522850864087884" stroke-linecap="round" d="M 101.4797 144.2318 L 94.5807 142.2557 "/>
      <path id="ID0.24770551454275846" fill="none" stroke="#363A3D" stroke-width="0.9522850864087884" stroke-linecap="round" d="M 102.2029 132.8424 L 88.4298 127.7945 "/>
    </g>
    <g id="ID0.7887678607366979">
      <path id="ID0.753661650698632" fill="none" stroke="#313537" stroke-width="0.9522850864087884" stroke-linecap="round" d="M 70.9207 119.1896 L 76.1078 121.6786 L 80.2085 119.1444 "/>
      <g id="ID0.8167418288066983">
        <path id="ID0.9553722990676761" fill="none" stroke="#313537" stroke-width="1.0409107743576298" stroke-linecap="round" d="M 76.4063 136.5479 L 70.8392 134.2892 L 64.706 132.2569 L 59.9163 133.1099 L 56.3201 137.3214 L 56.2484 140.7727 "/>
        <path id="ID0.5982440118677914" fill="none" stroke="#313537" stroke-width="0.8540413396238158" stroke-linecap="round" d="M 65.0334 131.8556 L 63.9532 126.5387 L 69.3362 119.5913 "/>
      </g>
      <g id="ID0.7324484633281827">
        <path id="ID0.04993448918685317" fill="none" stroke="#313537" stroke-width="0.9522850864087884" stroke-linecap="round" d="M 76.1102 121.5595 L 76.6068 132.0472 L 76.7418 148.4805 L 76.6413 164.7898 "/>
        <g id="ID0.8167418288066983">
          <path id="ID0.9553722990676761" fill="none" stroke="#313537" stroke-width="0.9699703077304642" stroke-linecap="round" d="M 76.7502 136.4275 L 81.8128 135.1754 L 87.2815 133.384 L 91.457 134.4232 L 94.4528 138.7716 L 94.3811 142.2229 "/>
          <path id="ID0.5982440118677914" fill="none" stroke="#313537" stroke-width="0.7916616152166959" stroke-linecap="round" d="M 87.0361 133.0336 L 88.1927 127.7632 L 83.7336 120.6113 "/>
          <path id="ID0.3567589442245662" fill="none" stroke="#313537" stroke-width="0.8967655150693851" stroke-linecap="round" d="M 76.6263 149.1264 L 81.8586 144.2583 L 89.2253 142.5063 L 94.7521 142.6211 L 96.8958 147.309 L 97.0431 154.3367 L 91.4805 154.9355 L 85.7638 157.9124 L 80.8491 157.5722 L 76.6031 159.3176 L 70.8142 156.6971 L 65.2197 156.819 L 58.8569 153.5913 L 52.5704 152.7464 L 53.0511 145.7318 L 55.7016 141.1434 L 61.982 141.2738 L 70.2746 143.351 L 75.9911 148.4465 Z "/>
        </g>
      </g>
    </g>
    <g id="ID0.9312638868577778">
      <path id="ID0.2888958193361759" fill="#393C40" stroke="none" stroke-linecap="round" d="M 57.0092 161.4331 L 67.1808 163.729 L 66.5255 166.6319 L 56.3539 164.3359 L 57.0092 161.4331 Z " stroke-width="0.4761425459216224"/>
      <path id="ID0.2888958193361759" fill="#393C40" stroke="none" stroke-linecap="round" d="M 46.2081 159.1286 L 57.6308 161.829 L 56.9755 164.7319 L 46.8039 162.4359 L 46.2081 159.1286 Z " stroke-width="0.4761425459216224"/>
      <g id="ID0.36424446757882833">
        <path id="ID0.7359844641759992" fill="#8A7B59" stroke="none" d="M 59.8379 160.7806 L 61.3612 160.8122 L 61.2318 167.0484 L 59.7084 167.0167 L 59.8379 160.7806 Z " stroke-width="0.4761425432043942"/>
        <path id="ID0.7359844641759992" fill="#8A7B59" stroke="none" d="M 57.9879 160.3306 L 59.5112 160.3622 L 59.3818 166.5984 L 57.8584 166.5667 L 57.9879 160.3306 Z " stroke-width="0.4761425432043942"/>
        <path id="ID0.7359844641759992" fill="#8A7B59" stroke="none" d="M 56.0379 159.6306 L 57.5612 159.6622 L 57.4318 165.8984 L 55.9084 165.8667 L 56.0379 159.6306 Z " stroke-width="0.4761425432043942"/>
        <path id="ID0.7359844641759992" fill="#8A7B59" stroke="none" d="M 61.7379 161.3306 L 63.2612 161.3622 L 63.1318 167.5984 L 61.6084 167.5667 L 61.7379 161.3306 Z " stroke-width="0.4761425432043942"/>
      </g>
      <g id="ID0.1049797898158431">
        <path id="ID0.08871637750416994" fill="#8A7B59" stroke="none" stroke-linecap="round" d="M 47.9895 158.5074 L 54.3705 159.6877 L 54.2067 165.2801 L 48.0643 164.081 L 47.9895 158.5074 Z " stroke-width="0.4761425432043942"/>
        <path id="ID0.13805592898279428" fill="#76694C" stroke="none" stroke-linecap="round" d="M 47.7978 158.2378 L 54.4882 159.4245 L 54.5236 162.3065 L 47.8114 161.0241 L 47.7978 158.2378 Z " stroke-width="0.4761425432043942"/>
        <path id="ID0.3221200187690556" fill="#61563F" stroke="none" stroke-linecap="round" d="M 50.55 160.489 L 51.4208 160.8689 L 51.4618 162.6272 L 50.5129 162.2716 L 50.55 160.489 Z " stroke-width="0.5167888865886084"/>
        <path id="ID0.1420820001512766" fill="#BAA578" stroke="none" stroke-linecap="round" d="M 53.5518 164.3318 L 54.2956 162.9185 L 54.2952 165.2283 L 48.056 164.0986 L 53.5518 164.3318 Z " stroke-width="0.4761425432043942"/>
      </g>
      <path id="ID0.2888958193361759" fill="#393C40" stroke="none" stroke-linecap="round" d="M 94.5902 162.6025 L 87.1307 164.2611 L 87.5102 166.806 L 94.9697 165.1474 L 94.5902 162.6025 Z " stroke-width="0.3810469777360591"/>
      <path id="ID0.2888958193361759" fill="#393C40" stroke="none" stroke-linecap="round" d="M 101.1651 160.9157 L 94.1307 162.7111 L 94.5102 165.256 L 100.6833 163.8204 L 101.1651 160.9157 Z " stroke-width="0.3810469777360591"/>
      <path id="ID0.7359844641759992" fill="#8A7B59" stroke="none" d="M 92.5701 161.5255 L 91.4633 161.5025 L 91.3506 166.9273 L 92.4574 166.9503 L 92.5701 161.5255 Z " stroke-width="0.3816027988624045"/>
      <path id="ID0.7359844641759992" fill="#8A7B59" stroke="none" d="M 93.9701 161.0755 L 92.8633 161.0525 L 92.7506 166.4773 L 93.8574 166.5003 L 93.9701 161.0755 Z " stroke-width="0.3816027988624045"/>
      <path id="ID0.7359844641759992" fill="#8A7B59" stroke="none" d="M 95.4701 160.6255 L 94.3633 160.6025 L 94.2506 166.0273 L 95.3574 166.0503 L 95.4701 160.6255 Z " stroke-width="0.3816027988624045"/>
      <path id="ID0.7359844641759992" fill="#8A7B59" stroke="none" d="M 91.1201 162.0755 L 90.0133 162.0525 L 89.9006 167.4773 L 91.0074 167.5003 L 91.1201 162.0755 Z " stroke-width="0.3816027988624045"/>
      <g id="ID0.1049797898158431">
        <path id="ID0.08871637750416994" fill="#8A7B59" stroke="none" stroke-linecap="round" d="M 101.4077 159.8854 L 96.4448 160.7507 L 96.3742 165.9213 L 101.1538 165.0302 L 101.4077 159.8854 Z " stroke-width="0.40545296430512573"/>
        <path id="ID0.13805592898279428" fill="#76694C" stroke="none" stroke-linecap="round" d="M 101.6523 159.6886 L 96.4505 160.549 L 96.3217 163.2094 L 101.5437 162.2614 L 101.6523 159.6886 Z " stroke-width="0.40545296430512573"/>
        <path id="ID0.3221200187690556" fill="#61563F" stroke="none" stroke-linecap="round" d="M 99.5299 161.6428 L 98.8449 161.963 L 98.7513 163.5854 L 99.4957 163.2903 L 99.5299 161.6428 Z " stroke-width="0.4400648059527854"/>
        <path id="ID0.1420820001512766" fill="#BAA578" stroke="none" stroke-linecap="round" d="M 96.9982 165.1103 L 96.4743 163.7788 L 96.3933 165.912 L 101.245 165.0884 L 96.9982 165.1103 Z " stroke-width="0.40545296430512573"/>
      </g>
      <g id="ID0.6836685389280319">
        <path id="ID0.09357938077300787" fill="#857656" stroke="none" d="M 67.7747 160.9089 L 85.7452 161.2821 L 85.6118 167.7086 L 67.6413 167.3354 L 67.7747 160.9089 Z " stroke-width="0.42833206411122815"/>
        <path id="ID0.6492703901603818" fill="#7C6E50" stroke="none" stroke-linecap="round" d="M 68.3684 163.093 L 76.5158 166.3578 L 85.4106 163.4469 L 85.3221 167.7075 L 68.2799 167.3536 L 68.3684 163.093 Z " stroke-width="0.4761425432043942"/>
        <g id="ID0.9254062357358634">
          <g id="ID0.49943465692922473">
            <path id="ID0.140373723115772" fill="#968561" stroke="none" d="M 84.1906 160.0517 L 89.308 160.1579 L 89.1202 169.2027 L 84.0028 169.0964 L 84.1906 160.0517 Z " stroke-width="0.4761425432043942"/>
            <path id="ID0.8286363878287375" fill="#BAA578" stroke="none" stroke-linecap="round" d="M 84.1728 159.8742 L 89.4043 160.221 L 85.2469 160.8966 L 84.1789 163.0176 L 84.1728 159.8742 Z " stroke-width="0.4761425432043942"/>
            <path id="ID0.7362233307212591" fill="#8A7B59" stroke="none" stroke-linecap="round" d="M 84.07 165.968 L 86.7825 166.072 L 89.2845 163.6951 L 89.1683 169.2885 L 84.0033 169.1813 L 84.07 165.968 Z " stroke-width="0.4761425432043942"/>
          </g>
          <g id="ID0.49943465692922473">
            <path id="ID0.140373723115772" fill="#968561" stroke="none" d="M 69.1483 159.9906 L 64.0309 159.8843 L 63.8431 168.9291 L 68.9605 169.0354 L 69.1483 159.9906 Z " stroke-width="0.4761425432043942"/>
            <path id="ID0.8286363878287375" fill="#BAA578" stroke="none" stroke-linecap="round" d="M 69.2093 159.8013 L 63.9679 159.9306 L 68.0936 160.7782 L 69.0726 162.9417 L 69.2093 159.8013 Z " stroke-width="0.4761425432043942"/>
            <path id="ID0.7362233307212591" fill="#8A7B59" stroke="none" stroke-linecap="round" d="M 69.0589 165.8941 L 66.3445 165.8854 L 63.9433 163.4066 L 63.8272 169.0001 L 68.9922 169.1074 L 69.0589 165.8941 Z " stroke-width="0.4761425432043942"/>
          </g>
        </g>
      </g>
    </g>
  </g>
  <g id="ID0.8333355090580881">
    <path id="ID0.9286923445761204" fill="#27282B" stroke="none" stroke-linecap="round" d="M 62.863 44.1601 L 81.6707 45.6361 L 82.1468 69.9908 L 97.3834 77.1329 L 74.5285 88.4889 L 37.8656 75.9426 L 57.7445 65.3484 L 62.863 44.1601 Z " stroke-width="0.4761425852775574"/>
    <path id="ID0.5448851804248989" fill="none" stroke="#1D1E1F" stroke-width="0.9522851705551147" stroke-linecap="round" d="M 59.1729 59.5871 L 57.935 65.158 L 75.0285 73.0143 L 81.8611 70.086 "/>
    <path id="ID0.262191956397146" fill="none" stroke="#1D1E1F" stroke-width="0.9522851705551147" stroke-linecap="round" d="M 61.9346 64.539 L 74.6476 70.7288 L 77.6473 69.6099 "/>
  </g>
  <g id="ID0.3450673264451325">
    <g id="ID0.9831569031812251">
      <path id="ID0.0877610077150166" fill="#2E3034" stroke="none" stroke-linecap="round" d="M 85.7251 13.3343 L 81.1527 0.2177 L 81.1527 28.7463 L 88.8241 28.7463 L 85.7251 13.3343 Z " stroke-width="0.5866066539949776"/>
      <path id="ID0.796130308881402" fill="#242628" stroke="none" stroke-linecap="round" d="M 86.033 13.3789 L 81.105 0.2623 L 84.6613 14.1004 L 85.6012 28.9877 L 88.7764 28.6926 L 86.033 13.3789 Z " stroke-width="0.5866066539949776"/>
    </g>
    <g id="ID0.9831569031812251">
      <path id="ID0.0877610077150166" fill="#2E3034" stroke="none" stroke-linecap="round" d="M 61.8249 13.4843 L 66.3973 0.3677 L 66.3973 28.8963 L 58.7259 28.8963 L 61.8249 13.4843 Z " stroke-width="0.5866066539949776"/>
      <path id="ID0.796130308881402" fill="#242628" stroke="none" stroke-linecap="round" d="M 61.417 13.5289 L 66.345 0.4123 L 62.7887 14.2504 L 61.6964 28.8098 L 58.6736 28.8426 L 61.417 13.5289 Z " stroke-width="0.5866066539949776"/>
    </g>
    <path id="ID0.8999492498114705" fill="#2E3034" stroke="none" stroke-linecap="round" d="M 79.3733 19.3124 C 83.7775 19.7915 88.5093 22.5019 90.6416 26.3848 C 93.0745 30.8179 91.1267 36.4165 91.4265 41.412 C 91.5997 43.1155 92.3923 44.8682 92.0615 46.4924 C 91.3879 49.7962 89.7139 52.8251 88.6323 56.0181 C 87.9236 58.1107 87.7691 60.4655 86.6001 62.3686 C 85.2843 64.6212 83.9416 67.7553 81.3419 68.211 C 77.488 68.8862 73.4115 67.0451 69.9619 65.2898 C 67.1281 63.8475 64.4746 61.6355 62.9002 58.8631 C 60.0806 53.7182 57.5196 48.0582 57.134 42.1741 C 56.7067 35.6514 55.9365 27.5853 60.6902 22.8687 C 64.9425 18.3273 72.8262 18.6032 79.3733 19.3124 Z " stroke-width="0.508037269115448"/>
    <path id="ID0.2441388238221407" fill="#AB8E85" stroke="none" d="M 77.0438 44.1745 C 81.1241 44.3416 86.5631 41.1768 89.2883 43.9234 C 91.7434 46.5142 88.3753 51.3755 87.4045 54.8492 C 86.4375 58.304 85.7493 62.0426 83.5114 64.8959 C 82.4439 66.1643 80.2186 66.2359 78.488 65.9634 C 75.3761 65.4698 72.3143 64.1864 69.7198 62.3955 C 67.0348 60.5432 63.487 58.5137 62.9156 55.2887 C 62.1923 51.2035 62.8566 45.8084 66.0552 43.2327 C 68.9889 40.9834 73.3743 44.0238 77.0438 44.1745 Z " stroke-width="1.2558400630950928"/>
    <path id="ID0.46721756737679243" fill="#A2887F" stroke="none" stroke-linecap="round" d="M 62.4363 45.2953 L 64.1129 45.9812 L 90.1244 45.6001 L 82.9102 50.6805 L 66.1704 48.2165 L 67.2881 50.6043 L 67.5421 56.2181 L 71.1746 63.4068 L 66.6023 56.7261 L 62.4363 45.2953 Z " stroke-width="0.508037269115448"/>
    <path id="ID0.8256730306893587" fill="none" stroke="#937B73" stroke-width="1.016074538230896" stroke-linecap="round" d="M 73.3886 57.0778 C 73.3886 57.0778 76.0878 56.4813 77.4529 56.2903 C 77.7943 56.2425 78.1326 56.3203 78.4689 56.3665 C 78.8109 56.4138 79.1401 56.5814 79.485 56.5697 C 80.1688 56.5469 80.8379 56.3497 81.5172 56.2649 C 81.854 56.2227 82.1939 56.1846 82.5332 56.1887 C 82.8731 56.1928 83.2181 56.2131 83.5493 56.2903 C 84.0939 56.4173 85.1496 56.7983 85.1496 56.7983 "/>
    <path id="ID0.7592270169407129" fill="none" stroke="#937B73" stroke-width="1.016074538230896" stroke-linecap="round" d="M 81.9693 58.4019 C 81.9693 58.4019 81.3475 58.7468 81.004 58.8083 C 80.6708 58.8682 80.3248 58.7235 79.988 58.7575 C 79.6491 58.792 79.3351 58.9688 78.9973 59.0115 C 78.6615 59.0542 78.3109 59.0867 77.9812 59.0115 C 77.7008 58.9475 77.2192 58.6051 77.2192 58.6051 "/>
    <path id="ID0.5332203092984855" fill="none" stroke="#937B73" stroke-width="1.016074538230896" stroke-linecap="round" d="M 76.0009 48.9532 C 76.0009 48.9532 75.3954 49.385 75.2897 49.7152 C 75.1525 50.1577 74.898 51.0026 75.3405 51.3156 C 75.9212 51.6056 76.6797 50.8786 77.3726 50.9345 C 78.0433 50.9914 79.354 51.4426 79.354 51.4426 "/>
    <path id="ID0.2278452254831791" fill="none" stroke="#937B73" stroke-width="1.016074538230896" stroke-linecap="round" d="M 80.3447 45.2953 C 80.3447 45.2953 81.2789 47.1578 81.7418 48.0895 C 81.8967 48.4015 82.0674 48.7073 82.199 49.0294 C 82.3306 49.3515 82.5429 49.6726 82.5292 50.0201 C 82.5155 50.3686 82.3092 50.6907 82.1228 50.9853 C 81.9983 51.1824 81.6148 51.468 81.6148 51.468 "/>
    <path id="ID0.6473136460408568" fill="none" stroke="#937B73" stroke-width="1.016074563998663" stroke-linecap="round" d="M 80.6945 62.2247 C 80.6945 62.2247 81.0113 62.8595 81.0622 63.2041 C 81.1113 63.5396 81.0513 63.8871 80.9877 64.2203 C 80.8923 64.7223 80.5871 65.7015 80.5871 65.7015 "/>
    <path id="ID0.11669129692018032" fill="#2E3034" stroke="none" stroke-linecap="round" d="M 64.3669 39.9609 L 87.6096 41.739 L 91.5469 44.4062 L 82.1482 49.1056 L 61.4457 46.5654 L 64.3669 39.9609 Z " stroke-width="0.508037269115448"/>
    <path id="ID0.14635155349969864" fill="#2E3034" stroke="none" stroke-linecap="round" d="M 61.6997 45.2191 L 63.554 45.6001 L 66.1958 50.8075 L 66.5006 56.5737 L 68.3296 60.384 L 71.2254 63.9149 L 62.9952 58.7075 L 61.6997 45.2191 Z " stroke-width="0.508037269115448"/>
    <path id="ID0.28340246016159654" fill="#1C1D1F" stroke="none" stroke-linecap="round" d="M 64.5308 36.8008 L 67.9604 38.3401 L 77.6283 39.2313 L 77.6283 44.9834 L 70.688 44.0382 L 66.8262 42.958 L 64.8008 41.4457 L 63.9367 39.7174 L 64.5308 36.8008 Z " stroke-width="0.5401026606559753"/>
    <path id="ID0.6101007834076881" fill="#FFFFFF" stroke="none" stroke-linecap="round" d="M 68.3473 39.3334 L 70.0001 39.7332 L 73.78 40.9344 L 74.3247 42.9027 L 69.07 41.4498 L 68.3473 39.3334 Z " stroke-width="0.4061061920009203"/>
    <path id="ID0.28340246016159654" fill="#1C1D1F" stroke="none" stroke-linecap="round" d="M 90.1357 36.8586 L 87.0774 38.2313 L 78.4563 39.0259 L 78.4563 44.1553 L 84.6452 43.3124 L 88.0888 42.3492 L 89.8949 41.0006 L 90.6655 39.4594 L 90.1357 36.8586 Z " stroke-width="0.4816249907016754"/>
    <path id="ID0.6101007834076881" fill="#FFFFFF" stroke="none" stroke-linecap="round" d="M 88.4526 38.9089 L 86.9112 39.4003 L 83.4053 40.7963 L 83.0217 42.7012 L 87.9101 40.9663 L 88.4526 38.9089 Z " stroke-width="0.3863867372519633"/>
    <g id="ID0.07940126257017255">
      <path id="ID0.46257128613069654" fill="#27282B" stroke="none" stroke-linecap="round" d="M 77.8045 39.0743 L 82.1482 49.0318 L 72.1145 47.7617 L 77.8045 39.0743 Z " stroke-width="0.508037269115448"/>
      <path id="ID0.9845890481956303" fill="#27282B" stroke="none" stroke-linecap="round" d="M 78.6173 39.1989 L 86.8983 46.5654 L 82.2244 49.1056 L 78.6173 39.1989 Z " stroke-width="0.508037269115448"/>
    </g>
    <path id="ID0.20071752788498998" fill="#202324" stroke="none" d="M 69.3686 34.5018 L 73.5091 37.0673 L 78.2593 38.2358 L 78.3355 39.6329 L 70.5625 38.3628 L 64.6693 36.0259 L 66.3966 34.2477 L 69.3686 34.5018 Z " stroke-width="0.508037269115448"/>
    <path id="ID0.20071752788498998" fill="#202324" stroke="none" d="M 86.4242 34.2614 L 83.3713 36.7084 L 78.1277 38.2698 L 78.0578 39.5516 L 85.1891 38.3864 L 90.6191 36.3588 L 89.081 34.1216 L 86.4242 34.2614 Z " stroke-width="0.46609798073768616"/>
    <path id="ID0.521138689480722" fill="none" stroke="#212325" stroke-width="0.9060627222061157" stroke-linecap="round" d="M 90.2139 36.5742 L 86.9747 38.1598 L 78.4351 39.4057 "/>
    <path id="ID0.17828734638169408" fill="none" stroke="#202324" stroke-width="1.016074538230896" stroke-linecap="round" d="M 82.0466 48.5467 L 79.1254 41.3072 C 78.1245 38.8879 78.2729 39.4564 78.0839 38.4876 C 78.0179 38.1493 78.2358 37.8129 78.2871 37.4715 C 78.3374 37.1352 78.4014 36.7953 78.3887 36.4555 C 78.376 36.112 78.2769 35.7762 78.2109 35.4394 C 78.1078 34.9136 77.8807 33.8645 77.8807 33.8645 "/>
    <path id="ID0.521138689480722" fill="none" stroke="#212325" stroke-width="1.016074538230896" stroke-linecap="round" d="M 64.8068 36.3055 L 68.4392 38.0836 L 78.0157 39.4807 "/>
    <path id="ID0.8012696979567409" fill="none" stroke="url(#grad_1)" stroke-width="1.016074538230896" stroke-linecap="round" d="M 90.1244 45.1429 L 82.6562 49.0548 L 64.0621 46.7178 L 66.0434 50.5789 L 66.3482 56.6753 L 68.2788 60.2824 L 71.1746 63.9149 "/>
    <path id="ID0.043594349175691605" fill="#D7E2FD" stroke="none" stroke-linecap="round" d="M 73.5289 41.9677 L 73.7575 40.85 L 74.2656 42.9075 L 71.6746 42.1709 L 73.5289 41.9677 Z " stroke-width="0.508037269115448"/>
    <path id="ID0.043594349175691605" fill="#D7E2FD" stroke="none" stroke-linecap="round" d="M 83.7225 41.8348 L 83.4574 40.8321 L 83.1024 42.7258 L 85.4161 41.9236 L 83.7225 41.8348 Z " stroke-width="0.4618642652203811"/>
  </g>
  <g id="ID0.9492031107656658">
    <path id="ID0.05466862628236413" fill="#303436" stroke="none" stroke-linecap="round" d="M 33.0363 227.4235 L 59.3513 232.1691 L 48.7414 248.4985 L 45.6481 252.7786 L 39.331 269.7858 L 23.3981 307.2945 L 7.938 304.1011 L 12.8928 282.4106 L 13.0453 273.3563 L 14.7754 263.9954 L 21.0371 251.8468 L 24.9508 240.1637 L 33.0363 227.4235 Z " stroke-width="0.7305889635820221"/>
    <path id="ID0.4490455654449761" fill="none" stroke="#272A2B" stroke-width="1.65855241619833" stroke-linecap="round" d="M 32.6205 228.2166 L 59.0485 232.5925 L 44.8609 253.5822 "/>
    <path id="ID0.10446935473009944" fill="none" stroke="#242728" stroke-width="1.65855241619833" stroke-linecap="round" d="M 40.6225 265.1683 L 35.1184 281.0816 L 22.7865 284.6889 "/>
    <path id="ID0.42170455446466804" fill="none" stroke="#242728" stroke-width="1.65855241619833" stroke-linecap="round" d="M 33.7032 281.8352 L 27.5376 295.6551 L 14.9354 299.3761 "/>
    <path id="ID0.047098892275244" fill="none" stroke="#242728" stroke-width="1.65855241619833" stroke-linecap="round" d="M 25.1562 240.7267 L 23.4637 244.2847 L 24.9148 254.1096 "/>
  </g>
  <path id="ID0.5368814701214433" fill="#292D2E" stroke="none" stroke-linecap="round" d="M 91.318 322.7093 L 92.5112 313.019 L 97.0034 301.0256 L 108.0202 307.0177 L 119.6937 316.8259 L 137.6091 326.3614 L 138.9835 332.821 L 114.3655 335.1246 L 92.9755 332.4306 L 91.318 322.7093 Z " stroke-width="0.7702165572163214"/>
  <g id="ID0.9340031337924302">
    <path id="ID0.05466862628236413" fill="#292D2E" stroke="none" stroke-linecap="round" d="M 94.3204 230.0974 L 120.8417 226.6884 L 115.6487 245.4567 L 113.9898 250.4703 L 113.0942 268.5907 L 109.2112 309.1578 L 93.5077 310.774 L 91.6925 288.5989 L 89.1081 279.92 L 87.9354 270.473 L 90.243 257.0019 L 90.4522 244.6825 L 94.3204 230.0974 Z " stroke-width="0.7305890484502938"/>
    <path id="ID0.4490455654449761" fill="none" stroke="#272A2B" stroke-width="1.6585525196345328" stroke-linecap="round" d="M 94.0122 230.2971 L 120.5297 226.5016 L 113.3305 250.792 "/>
    <path id="ID0.10446935473009944" fill="none" stroke="#242728" stroke-width="1.6585525196345328" stroke-linecap="round" d="M 112.7825 263.1168 L 112.3322 279.9491 L 101.6617 287.1065 "/>
    <path id="ID0.42170455446466804" fill="none" stroke="#242728" stroke-width="1.6585525196345328" stroke-linecap="round" d="M 111.21 281.0943 L 109.4979 296.1301 L 98.604 303.4773 "/>
    <path id="ID0.047098892275244" fill="none" stroke="#242728" stroke-width="1.6585525196345328" stroke-linecap="round" d="M 90.6765 244.4901 L 90.1355 248.3929 L 94.4812 257.323 "/>
  </g>
</svg>