<svg xmlns="http://www.w3.org/2000/svg" xmlns:xlink="http://www.w3.org/1999/xlink" version="1.1" width="191.110992424056" height="316.40826415257163" viewBox="2.0625000037923082 -0.47054326155040416 191.110992424056 316.40826415257163">
  <!-- Exported by Scratch - http://scratch.mit.edu/ -->
  <g id="ID0.7085462282411754">
    <g id="ID0.5880346246995032">
      <path id="ID0.6829322893172503" fill="#1D1E1F" stroke="none" stroke-linecap="round" d="M 8.4402 174.3446 L 19.6608 171.4284 L 21.7575 177.4816 L 24.5725 184.0983 L 23.4287 189.6978 L 21.8891 194.1749 L 19.2765 196.7662 L 16.5285 203.0797 L 11.9697 201.9402 L 11.1783 199.6952 L 9.6192 199.1684 L 6.9506 195.915 L 4.1636 192.2207 L 3.0625 187.4125 L 5.2923 180.5764 L 8.4402 174.3446 Z " stroke-width="0.8164595500658187"/>
      <g id="ID0.9434720128774643">
        <path id="ID0.6507829907350242" fill="#282828" stroke="none" stroke-linecap="round" d="M 15.9206 109.6229 L 32.4766 123.4214 L 27.766 139.7505 L 24.1533 151.929 L 20.926 167.7278 L 21.8087 175.033 L 6.8714 174.5233 L 9.1183 167.3991 L 9.2793 157.4321 L 8.9715 144.6611 L 10.8351 131.4587 L 15.9206 109.6229 Z " stroke-width="0.8164595500658187"/>
        <path id="ID0.9892375003546476" fill="none" stroke="#191919" stroke-width="1.9999998747295042" stroke-linecap="round" d="M 7.5115 173.7677 L 21.2887 173.7752 L 20.5405 164.9469 "/>
      </g>
    </g>
    <path id="ID0.7729651997797191" fill="#282828" stroke="none" stroke-linecap="round" d="M 21.822 79.2954 L 45.5893 79.9162 L 41.9616 99.9493 L 37.4257 110.3234 L 35.4838 119.409 L 32.5094 127.7625 L 15.9129 123.6327 L 13.9967 116.7428 L 19.6568 93.0418 L 21.822 79.2954 Z " stroke-width="0.9588636463303746"/>
    <path id="ID0.4757494777441025" fill="#282828" stroke="none" stroke-linecap="round" d="M 34.2101 64.6022 L 43.2059 63.4275 L 58.9868 70.0572 L 47.8279 94.4653 L 36.6968 98.281 L 31.9556 98.8418 L 28.9272 96.1168 L 26.3286 92.84 L 20.77 89.5998 L 21.2417 84.1431 L 22.8492 76.176 L 27.0385 68.2508 L 34.2101 64.6022 Z " stroke-width="0.4829924728228481"/>
  </g>
  <g id="ID0.7085462282411754">
    <g id="ID0.5880346246995032">
      <path id="ID0.6829322893172503" fill="#1D1E1F" stroke="none" stroke-linecap="round" d="M 112.7972 175.124 L 102.506 169.7858 L 99.1157 175.2213 L 94.8999 181.0463 L 94.77 186.76 L 95.2755 191.4674 L 97.2466 194.5747 L 98.5219 201.3412 L 103.22 201.2439 L 104.4907 199.2311 L 106.1279 199.0641 L 109.4532 196.4855 L 112.9918 193.5035 L 115.1345 189.0605 L 114.4806 181.8998 L 112.7972 175.124 Z " stroke-width="0.8164595837246341"/>
      <g id="ID0.9434720128774643">
        <path id="ID0.6507829907350242" fill="#282828" stroke="none" stroke-linecap="round" d="M 119.9452 110.365 L 100.7355 120.1367 L 101.6972 137.1044 L 102.5115 149.7814 L 102.145 165.9023 L 99.66 172.8283 L 114.3367 175.6528 L 113.7301 168.2073 L 115.7894 158.4541 L 118.9293 146.0713 L 120.048 132.785 L 119.9452 110.365 Z " stroke-width="0.8164595837246341"/>
        <path id="ID0.9892375003546476" fill="none" stroke="#191919" stroke-width="1.9999999571801614" stroke-linecap="round" d="M 113.8309 174.768 L 100.3969 171.7119 L 103.0895 163.2709 "/>
      </g>
    </g>
    <path id="ID0.7729651997797191" fill="#282828" stroke="none" stroke-linecap="round" d="M 120.9353 79.4845 L 97.6249 74.8049 L 96.7072 95.1432 L 98.8228 106.2662 L 98.6958 115.556 L 99.7383 124.3618 L 116.8375 124.0258 L 120.2378 117.7345 L 119.9896 93.3683 L 120.9353 79.4845 Z " stroke-width="0.9588636858598459"/>
    <path id="ID0.4757494777441025" fill="#282828" stroke="none" stroke-linecap="round" d="M 112.0251 62.393 L 103.5158 59.2475 L 86.6557 62.2021 L 92.1079 88.4804 L 102.1118 94.6757 L 106.6097 96.2767 L 110.1681 94.2934 L 113.4304 91.6765 L 119.5703 89.7533 L 120.3237 84.3284 L 120.5281 76.2033 L 118.2059 67.545 L 112.0251 62.393 Z " stroke-width="0.4829924927343728"/>
  </g>
  <g id="ID0.6660797297954559">
    <path id="ID0.5368814701214433" fill="#343434" stroke="none" stroke-linecap="round" d="M 145.1095 293.3368 L 143.2553 284.235 L 142.5912 273.9775 L 154.159 274.1437 L 167.726 275.2181 L 188.0176 275.586 L 192.1735 280.7186 L 171.2812 293.9422 L 150.9976 301.2475 L 145.1095 293.3368 Z " stroke-width="0.7702165172089106"/>
    <g id="ID0.5077062323689461">
      <path id="ID0.05466862628236413" fill="#252525" stroke="none" stroke-linecap="round" d="M 110.3786 229.9707 L 127.5711 216.3171 L 133.314 229.9418 L 135.1447 234.6675 L 142.2932 247.265 L 160.8908 274.9421 L 143.7873 287.8435 L 133.3642 272.202 L 127.8638 267.1993 L 123.0297 261.0576 L 118.9333 250.6104 L 113.851 241.8633 L 110.3786 229.9707 Z " stroke-width="0.5998532643800971"/>
      <path id="ID0.5319394422695041" fill="none" stroke="#131313" stroke-width="1.999999969238434" stroke-linecap="round" d="M 160.5164 274.2026 L 144.015 288.1763 L 137.4654 278.6709 "/>
    </g>
    <g id="ID0.8820344842970371">
      <path id="ID0.3809091211296618" fill="#252525" stroke="none" stroke-linecap="round" d="M 64.2753 171.4301 L 82.2126 138.796 L 95.2769 159.2386 L 122.688 199.4192 L 127.5792 209.0069 L 129.673 220.7937 L 121.5571 222.892 L 110.9316 230.4119 L 99.608 211.8164 L 91.526 201.1079 L 64.2753 171.4301 Z " stroke-width="0.7305889552704278"/>
      <path id="ID0.9495224836282432" fill="none" stroke="#131313" stroke-width="1.999999969238434" stroke-linecap="round" d="M 122.7524 199.6229 L 126.9507 207.0137 L 129.163 214.9576 L 123.9948 223.0687 L 125.5949 227.9101 "/>
    </g>
  </g>
  <g id="ID0.18228224432095885">
    <path id="ID0.5368814701214433" fill="#404040" stroke="none" stroke-linecap="round" d="M 43.0399 301.0019 L 46.1137 292.2363 L 50.8016 283.0887 L 60.6487 289.1612 L 71.7469 297.0383 L 88.981 307.7561 L 89.9182 314.2934 L 65.2011 314.9377 L 44.0404 310.8125 L 43.0399 301.0019 Z " stroke-width="0.7702165249851639"/>
    <g id="ID0.5077062323689461">
      <path id="ID0.05466862628236413" fill="#252525" stroke="none" stroke-linecap="round" d="M 46.9916 228.2183 L 68.8198 225.866 L 66.3924 240.451 L 65.4143 245.4235 L 64.7239 259.8916 L 65.6518 293.2237 L 44.3008 294.9878 L 43.8502 276.197 L 41.8747 269.0291 L 41.071 261.2545 L 43.1919 250.2351 L 43.5709 240.1258 L 46.9916 228.2183 Z " stroke-width="0.5998532668114317"/>
      <path id="ID0.5319394422695041" fill="none" stroke="#131313" stroke-width="1.9999999924153835" stroke-linecap="round" d="M 65.7482 292.2754 L 44.3331 295.2676 L 43.8772 283.7332 "/>
    </g>
    <g id="ID0.8820344842970371">
      <path id="ID0.3809091211296618" fill="#252525" stroke="none" stroke-linecap="round" d="M 44.4568 151.4903 L 71.9669 136.0434 L 72.0842 160.3037 L 73.7793 208.9142 L 72.7895 219.6319 L 68.2602 230.7132 L 60.279 228.1495 L 46.7327 230.165 L 44.8396 207.0526 L 43.9217 193.9958 L 44.4568 151.4903 Z " stroke-width="0.7305889820079058"/>
      <path id="ID0.9495224836282432" fill="none" stroke="#131313" stroke-width="1.9999999924153835" stroke-linecap="round" d="M 73.6863 209.0574 L 73.285 217.5479 L 70.9095 225.4446 L 62.2065 229.5382 L 60.9715 234.4854 "/>
    </g>
  </g>
  <g id="ID0.8990198895335197">
    <path id="ID0.17576928716152906" fill="#DBDBDB" stroke="none" d="M 67.9153 57.2903 L 67.6661 57.3114 L 67.6661 57.3114 L 67.9153 57.2903 L 67.9153 57.2903 Z " stroke-width="0.9999999813498633"/>
    <path id="ID0.4270821204409003" fill="#252525" stroke="none" stroke-linecap="round" d="M 76.064 179.0883 L 66.2944 66.7557 L 83.797 67.7618 L 90.96 71.5986 L 94.0689 75.4556 L 101.8056 86.4125 L 101.76 96.9119 L 101.1584 102.4371 L 103.2612 109.221 L 104.0852 114.6552 L 102.3866 121.6817 L 101.1046 127.0117 L 100.5081 136.3535 L 103.3999 158.116 L 98.7912 166.6403 L 94.4114 173.1462 L 76.064 179.0883 Z " stroke-width="0.476142564120169"/>
    <path id="ID0.4270821204409003" fill="#252525" stroke="none" stroke-linecap="round" d="M 76.1918 179.1778 L 66.9285 66.8023 L 49.8444 70.7379 L 43.4288 75.7249 L 41.013 80.0499 L 35.2294 92.1519 L 37.0402 102.494 L 38.5626 107.8393 L 37.6307 114.8803 L 37.7325 120.3756 L 40.5887 127.0164 L 42.7489 132.0548 L 44.9082 141.1632 L 45.7179 163.1021 L 51.6947 170.7298 L 57.1063 176.4063 L 76.1918 179.1778 Z " stroke-width="0.47614256412016903"/>
    <path id="ID0.5114514343440533" fill="#282828" stroke="none" d="M 40.6457 70.2658 L 93.4566 65.7927 L 100.9047 153.7278 L 48.0938 158.2009 L 40.6457 70.2658 Z " stroke-width="1.0073065852869094"/>
    <path id="ID0.9286923445761204" fill="#D4D4D4" stroke="none" stroke-linecap="round" d="M 55.5314 55.2004 L 71.1724 35.0722 L 65.6728 54.4847 L 70.3459 94.7059 L 30.0814 68.9677 L 49.2381 56.4979 L 55.5314 55.2004 Z " stroke-width="0.4761425763974331"/>
    <path id="ID0.9286923445761204" fill="#D4D4D4" stroke="none" stroke-linecap="round" d="M 71.7565 52.7151 L 56.5545 36.5613 L 65.2408 54.7722 L 69.8263 94.523 L 102.7612 63.0625 L 82.0514 52.9661 L 71.7565 52.7151 Z " stroke-width="0.4761425763974331"/>
    <path id="ID0.39874776685610414" fill="#C3C3C3" stroke="none" stroke-linecap="round" d="M 47.4646 57.5814 L 68.0964 65.74 L 85.1444 55.3029 L 89.3138 57.0953 L 68.2205 69.5184 L 43.884 59.8476 L 47.4646 57.5814 Z " stroke-width="0.9436593325318382"/>
    <path id="ID0.13444371055811644" fill="#1F1F1F" stroke="none" stroke-linecap="round" d="M 65.8451 67.8025 L 71.0552 67.1103 L 76.2506 95.2723 L 64.2858 96.7876 L 65.8451 67.8025 Z " stroke-width="0.9999999813498633"/>
    <path id="ID0.751046194229275" fill="#191919" stroke="none" stroke-linecap="round" d="M 63.0994 63.0523 L 67.5859 60.63 L 72.2516 62.2771 L 73.3631 70.1865 L 69.0624 71.5444 L 63.7725 70.9989 L 63.0994 63.0523 Z " stroke-width="1.1000000033267072"/>
    <path id="ID0.7854711129330099" fill="#282828" stroke="none" stroke-linecap="round" d="M 56.0489 85.4423 L 70.7374 92.9795 L 83.6155 82.1038 L 83.0996 99.7101 L 59.9325 101.6724 L 56.0489 85.4423 Z " stroke-width="0.9999999813498633"/>
    <path id="ID0.562834897544235" fill="#282828" stroke="none" stroke-linecap="round" d="M 45.3931 158.1008 L 75.0499 149.8183 L 76.759 169.996 L 63.1636 172.4021 L 45.3931 158.1008 Z " stroke-width="0.9999999813498633"/>
    <path id="ID0.562834897544235" fill="#282828" stroke="none" stroke-linecap="round" d="M 106.097 153.2101 L 75.4696 150.0336 L 77.1787 170.2114 L 90.9851 170.2964 L 106.097 153.2101 Z " stroke-width="0.9999999813498633"/>
    <path id="ID0.6824178956449032" fill="none" stroke="#191919" stroke-width="1.9999999626997267" stroke-linecap="round" d="M 70.5094 93.2497 L 76.7379 169.7469 "/>
    <path id="ID0.4144489667378366" fill="#313131" stroke="none" stroke-linecap="round" d="M 29.3235 66.1289 L 48.8261 56.4484 L 47.6725 78.374 L 55.9748 137.8856 L 50.2855 183.2777 L 38.9028 179.224 L 38.949 182.7326 L 37.8872 134.6506 L 29.5039 91.9559 L 27.136 75.8482 L 29.3235 66.1289 Z " stroke-width="0.9999999813498633"/>
    <path id="ID0.5234400681219995" fill="#101010" stroke="none" d="M 73.1458 98.7091 C 73.557 98.6743 73.9441 98.8097 74.2369 99.0568 C 74.5296 99.3038 74.7282 99.6626 74.763 100.0738 C 74.7979 100.4849 74.6625 100.872 74.4154 101.1648 C 74.1683 101.4576 73.8096 101.6561 73.3984 101.691 C 72.9872 101.7258 72.6002 101.5904 72.3074 101.3433 C 72.0146 101.0962 71.816 100.7375 71.7812 100.3263 C 71.7464 99.9152 71.8818 99.5281 72.1289 99.2353 C 72.3759 98.9425 72.7347 98.744 73.1458 98.7091 Z " stroke-width="0.6299999834820424"/>
    <path id="ID0.5234400681219995" fill="#101010" stroke="none" d="M 74.2937 112.2606 C 74.7048 112.2258 75.0919 112.3612 75.3847 112.6083 C 75.6775 112.8553 75.876 113.2141 75.9109 113.6252 C 75.9457 114.0364 75.8103 114.4234 75.5632 114.7162 C 75.3161 115.009 74.9574 115.2076 74.5462 115.2424 C 74.1351 115.2773 73.748 115.1419 73.4552 114.8948 C 73.1624 114.6477 72.9639 114.289 72.929 113.8778 C 72.8942 113.4666 73.0296 113.0796 73.2767 112.7868 C 73.5237 112.494 73.8825 112.2954 74.2937 112.2606 Z " stroke-width="0.6299999834820424"/>
    <path id="ID0.5234400681219995" fill="#101010" stroke="none" d="M 76.948 143.5984 C 77.3592 143.5636 77.7462 143.699 78.039 143.946 C 78.3318 144.1931 78.5304 144.5519 78.5652 144.963 C 78.6 145.3742 78.4646 145.7612 78.2175 146.054 C 77.9705 146.3468 77.6117 146.5454 77.2006 146.5802 C 76.7894 146.6151 76.4024 146.4797 76.1096 146.2326 C 75.8168 145.9855 75.6182 145.6268 75.5834 145.2156 C 75.5485 144.8044 75.6839 144.4174 75.931 144.1246 C 76.1781 143.8318 76.5368 143.6332 76.948 143.5984 Z " stroke-width="0.6299999834820424"/>
    <path id="ID0.5234400681219995" fill="#101010" stroke="none" d="M 75.7073 128.9508 C 76.1185 128.916 76.5055 129.0514 76.7983 129.2985 C 77.0911 129.5456 77.2897 129.9043 77.3245 130.3155 C 77.3594 130.7267 77.224 131.1137 76.9769 131.4065 C 76.7298 131.6993 76.3711 131.8978 75.9599 131.9327 C 75.5487 131.9675 75.1617 131.8321 74.8689 131.585 C 74.5761 131.338 74.3775 130.9792 74.3427 130.568 C 74.3079 130.1569 74.4433 129.7698 74.6904 129.477 C 74.9374 129.1842 75.2962 128.9857 75.7073 128.9508 Z " stroke-width="0.6299999834820424"/>
    <path id="ID0.5234400681219995" fill="#101010" stroke="none" d="M 78.0299 157.5569 C 78.4411 157.5221 78.8281 157.6575 79.1209 157.9045 C 79.4137 158.1516 79.6123 158.5103 79.6471 158.9215 C 79.682 159.3327 79.5466 159.7197 79.2995 160.0125 C 79.0524 160.3053 78.6937 160.5039 78.2825 160.5387 C 77.8713 160.5735 77.4843 160.4381 77.1915 160.1911 C 76.8987 159.944 76.7001 159.5853 76.6653 159.1741 C 76.6305 158.7629 76.7659 158.3759 77.0129 158.0831 C 77.26 157.7903 77.6188 157.5917 78.0299 157.5569 Z " stroke-width="0.6299999834820424"/>
    <path id="ID0.4144489667378366" fill="#313131" stroke="none" stroke-linecap="round" d="M 102.4853 59.0289 L 81.6324 52.7665 L 86.4573 74.1857 L 88.2829 134.2459 L 101.5258 178.0344 L 112.0645 172.1239 L 112.6091 175.5903 L 105.5686 128.0148 L 106.6514 84.5182 L 106.2764 68.2418 L 102.4853 59.0289 Z " stroke-width="0.9999999813498633"/>
    <path id="ID0.8752945330925286" fill="none" stroke="#222222" stroke-width="1.9999999626997267" stroke-linecap="round" d="M 29.8428 66.3358 L 27.2585 74.3325 L 33.683 111.6735 "/>
    <path id="ID0.8752945330925286" fill="none" stroke="#222222" stroke-width="1.9999999626997267" stroke-linecap="round" d="M 102.7395 59.6597 L 106.632 67.1077 L 106.5796 104.9973 "/>
    <path id="ID0.5234400681219995" fill="#101010" stroke="none" d="M 53.9895 146.2455 C 54.4007 146.2107 54.7877 146.3461 55.0805 146.5931 C 55.3733 146.8402 55.5719 147.199 55.6067 147.6101 C 55.6415 148.0213 55.5061 148.4083 55.259 148.7011 C 55.012 148.9939 54.6532 149.1925 54.2421 149.2273 C 53.8309 149.2622 53.4439 149.1268 53.1511 148.8797 C 52.8583 148.6326 52.6597 148.2739 52.6249 147.8627 C 52.59 147.4515 52.7254 147.0645 52.9725 146.7717 C 53.2196 146.4789 53.5783 146.2803 53.9895 146.2455 Z " stroke-width="0.6299999834820424"/>
    <path id="ID0.5234400681219995" fill="#101010" stroke="none" d="M 53.2064 153.5878 C 53.6176 153.553 54.0046 153.6884 54.2974 153.9354 C 54.5902 154.1825 54.7887 154.5413 54.8236 154.9524 C 54.8584 155.3636 54.723 155.7506 54.4759 156.0434 C 54.2289 156.3362 53.8701 156.5348 53.4589 156.5696 C 53.0478 156.6044 52.6607 156.469 52.3679 156.222 C 52.0751 155.9749 51.8766 155.6162 51.8418 155.205 C 51.8069 154.7938 51.9423 154.4068 52.1894 154.114 C 52.4365 153.8212 52.7952 153.6226 53.2064 153.5878 Z " stroke-width="0.6299999834820424"/>
    <g id="ID0.20783481979742646">
      <path id="ID0.5848579816520214" fill="#737373" stroke="none" stroke-linecap="round" d="M 94.3285 88.3218 L 101.0275 86.249 L 101.257 90.1435 L 94.075 91.2536 L 94.3285 88.3218 Z " stroke-width="0.9999999813498633"/>
      <path id="ID0.13105127029120922" fill="none" stroke="#222222" stroke-width="1.9999999626997267" stroke-linecap="round" d="M 92.751 91.6167 L 97.2349 91.2369 L 102.3396 89.2992 "/>
    </g>
  </g>
  <path id="ID0.46110434643924236" fill="#D8BFA7" stroke="none" stroke-linecap="round" d="M 56.2039 35.7287 L 78.8184 35.6236 L 79.3739 54.5712 L 73.193 57.45 L 56.2973 55.8284 L 56.2039 35.7287 Z " stroke-width="1.0876357455437042"/>
  <path id="ID0.8999492498114705" fill="#EDD2B8" stroke="none" stroke-linecap="round" d="M 74.4883 3.7423 C 78.8947 4.2009 83.6391 6.8892 85.7893 10.7622 C 88.2429 15.184 86.3927 20.7841 86.644 25.7857 C 86.7608 27.5252 86.9989 29.3418 86.5671 31.0951 C 86.0752 34.2533 84.9019 37.2684 83.9177 40.4046 C 83.2554 42.5185 83.0752 44.8559 81.915 46.7644 C 80.6097 49.0231 79.2815 52.1634 76.6841 52.6312 C 72.8333 53.3242 68.7483 51.5021 65.2906 49.7628 C 62.4501 48.3337 59.7864 46.1341 58.1991 43.369 C 55.3556 38.2373 52.7683 32.5892 52.3554 26.707 C 51.8979 20.1863 51.0902 12.1239 55.822 7.3852 C 60.0531 2.8242 67.938 3.0635 74.4883 3.7423 Z " stroke-width="0.508037264624168"/>
  <path id="ID0.8194515448994935" fill="#EDD2B8" stroke="none" stroke-linecap="round" d="M 52.6236 21.4723 C 53.478 21.5553 54.0987 22.1214 54.6106 23.1781 C 55.1225 24.2347 55.4433 25.6952 55.4508 27.3092 C 55.4583 28.9232 55.1511 30.3866 54.649 31.448 C 54.1469 32.5093 53.5304 33.0542 52.678 33.1721 C 51.8955 33.2788 50.8875 32.8545 50.5234 32.1821 C 49.8374 30.6873 49.9491 28.9098 49.8508 27.3352 C 49.7536 25.7876 49.3857 24.0873 49.9792 22.6846 C 50.4543 21.8283 51.7282 21.3854 52.6236 21.4723 Z " stroke-width="0.9999999964970204"/>
  <path id="ID0.5768358684144914" fill="#2E3234" stroke="none" d="M 51.213 18.238 L 57.2129 18.2102 L 57.2213 20.0101 L 51.2213 20.038 L 51.213 18.238 Z " stroke-width="0.9999999964970204"/>
  <path id="ID0.3245162623934448" fill="#54595E" stroke="none" stroke-linecap="round" d="M 72.9557 4.8579 C 76.2117 4.8428 79.1739 7.457 81.3295 11.6921 C 83.4852 15.9271 84.2734 22.6445 84.8645 28.2528 C 85.4681 33.9791 87.3991 40.2082 85.0944 45.4519 C 83.3181 49.4922 78.3864 52.5862 73.8786 52.8541 C 69.6218 53.1109 64.4714 50.6648 62.4504 46.8071 C 59.5951 41.3553 60.8796 34.5653 61.2648 28.3624 C 61.6146 22.7347 62.5295 16.0244 64.6457 11.7696 C 66.762 7.5147 69.6998 4.873 72.9557 4.8579 Z " stroke-width="0.9999999964970204"/>
  <path id="ID0.8999492498114705" fill="#54595E" stroke="none" stroke-linecap="round" d="M 76.3383 1.1423 C 80.5948 2.3697 85.4891 4.2892 87.6393 8.1622 C 90.0929 12.584 87.6475 18.2468 88.494 23.1857 C 88.8287 25.1365 91.3104 26.6329 91.2123 28.7107 C 91.0423 31.3843 88.9417 33.5934 87.7665 36.0933 C 86.4877 38.8071 85.3655 41.6731 83.765 44.1644 C 82.3512 46.3667 80.8814 48.8756 78.5341 50.0312 C 76.7265 50.9195 74.1138 51.1785 72.5388 49.9574 C 71.2865 48.9868 72.4193 46.7649 72.0341 45.2096 C 71.697 43.2897 70.3935 41.5628 70.3822 39.5779 C 70.353 34.0536 72.1927 28.609 72.1854 23.0836 C 72.177 17.0074 72.4827 10.7586 70.476 5.0814 C 69.7085 2.9095 63.49 2.3664 64.5671 1.705 C 66.2356 0.5216 72.5672 0.0548 76.3383 1.1423 Z " stroke-width="0.508037264624168"/>
  <path id="ID0.8999492498114705" fill="#54595E" stroke="none" stroke-linecap="round" d="M 65.0122 2.1642 C 61.2352 3.3132 57.0302 5.3029 55.1618 8.84 C 52.8858 13.1227 54.2211 18.5185 53.7303 23.3258 C 53.549 25.0911 52.4936 26.9072 52.8911 28.588 C 53.4724 30.9136 55.5935 32.6555 56.2737 34.9482 C 57.2105 38.1064 56.4724 41.7428 57.8178 44.7208 C 58.8958 47.1057 60.7451 49.4051 63.1031 50.5388 C 64.9188 51.4103 67.5338 51.645 69.0974 50.4093 C 70.3406 49.4271 69.1872 47.2159 69.558 45.657 C 69.8772 43.7341 71.1647 41.9952 71.1575 40.0103 C 71.1354 34.4859 69.2452 29.0587 69.2012 23.5334 C 69.1532 17.4574 69.2493 11.3483 70.7433 5.5161 C 71.146 3.9485 75.8283 3.2215 74.8704 2.6265 C 72.9746 1.4597 68.1573 1.131 65.0122 2.1642 Z " stroke-width="0.508037264624168"/>
  <path id="ID0.45774566335603595" fill="#54595E" stroke="none" stroke-linecap="round" d="M 73.6289 36.756 C 75.7328 36.7463 77.2787 38.0031 79.0284 38.797 C 80.6238 39.5216 83.6294 39.6456 83.6258 41.4597 C 83.651 44.2916 81.1774 46.7471 79.0747 48.7649 C 77.6879 50.0953 75.7983 50.8461 73.6944 50.8559 C 71.5904 50.8657 69.7835 50.031 68.2948 48.8149 C 66.235 47.1335 63.5978 45.1547 63.6307 42.5525 C 63.5764 40.5608 66.4971 39.8302 68.2485 38.847 C 69.9242 37.9053 71.5249 36.7658 73.6289 36.756 Z " stroke-width="0.9999999964970204"/>
  <path id="ID0.6934182443656027" fill="#54595E" stroke="none" stroke-linecap="round" d="M 59.278 31.1705 L 72.5469 35.209 L 86.6259 30.6435 L 83.6572 37.4074 L 83.1781 41.9096 L 63.3314 42.6518 L 62.1528 36.5072 L 59.278 31.1705 Z " stroke-width="0.9999999964970204"/>
  <path id="ID0.6236958587542176" fill="#3B4043" stroke="none" stroke-linecap="round" d="M 65.7921 27.9223 L 81.5417 27.7991 L 80.877 35.4023 L 81.4093 42.3499 L 78.7083 52.9125 L 69.1087 53.0071 L 65.5123 43.0237 L 66.377 35.4196 L 65.7921 27.9223 Z " stroke-width="0.9999999964970204"/>
  <path id="ID0.6043254472315311" fill="#3B4043" stroke="none" stroke-linecap="round" d="M 58.3824 5.3018 L 63.1191 2.4297 L 67.895 8.0076 L 74.4001 9.0774 L 73.2397 28.383 L 70.603 31.2453 L 65.2514 30.9201 L 61.6917 28.8367 L 60.0736 24.9441 L 61.5434 18.4372 L 58.3824 5.3018 Z " stroke-width="0.9999999964970204"/>
  <path id="ID0.6043254472315311" fill="#3B4043" stroke="none" stroke-linecap="round" d="M 86.7954 7.1999 L 84.6838 4.7097 L 81.9285 3.5725 L 77.8003 8.2917 L 71.3055 9.4219 L 72.6451 28.7159 L 75.3084 31.5535 L 80.6567 31.1787 L 85.1473 29.1578 L 85.7787 25.1548 L 84.2486 18.6619 L 86.7954 7.1999 Z " stroke-width="0.9999999964970204"/>
  <path id="ID0.9914007503539324" fill="#33383A" stroke="none" d="M 71.3281 35.5466 L 69.6235 23.8044 L 76.0748 24.0745 L 76.4278 35.4729 L 71.3281 35.5466 Z " stroke-width="0.9999999964970204"/>
  <path id="ID0.28340246016159654" fill="#D8BFA7" stroke="none" stroke-linecap="round" d="M 58.9908 22.5058 L 65.8114 22.5675 L 70.265 24.8179 L 71.1582 28.236 L 69.7818 30.4513 L 66.2744 30.841 L 63.527 30.3559 L 61.4292 29.5879 L 59.2987 27.8555 L 58.3838 25.8687 L 58.9908 22.5058 Z " stroke-width="0.5947752370194979"/>
  <path id="ID0.28340246016159654" fill="#D8BFA7" stroke="none" stroke-linecap="round" d="M 87.6799 22.2249 L 80.8601 22.3499 L 76.4276 24.6417 L 75.5663 28.0679 L 76.9632 30.2703 L 80.4741 30.6274 L 83.2168 30.1169 L 85.3074 29.3294 L 87.4218 27.5773 L 88.3181 25.582 L 87.6799 22.2249 Z " stroke-width="0.5947752370194979"/>
  <path id="ID0.17377300979569554" fill="#FFFFFF" stroke="none" stroke-linecap="round" d="M 63.2359 25.848 L 64.139 25.0132 L 66.4253 24.8184 L 68.6805 25.4136 L 69.1418 27.3622 L 66.5039 27.2425 L 63.2359 25.848 Z " stroke-width="0.999999981322427"/>
  <path id="ID0.17377300979569554" fill="#FFFFFF" stroke="none" stroke-linecap="round" d="M 84.9408 25.8744 L 84.0299 25.0481 L 81.7419 24.8745 L 79.4923 25.4906 L 79.0492 27.4434 L 81.6858 27.2992 L 84.9408 25.8744 Z " stroke-width="0.9999999752821741"/>
  <path id="ID0.44800941413268447" fill="none" stroke="#33383A" stroke-width="1.0503597291091078" stroke-linecap="round" d="M 72.1141 28.2899 L 70.466 23.991 L 66.0695 21.5693 L 59.5054 21.7311 "/>
  <path id="ID0.12448931112885475" fill="#33383A" stroke="none" stroke-linecap="round" d="M 71.5274 33.7487 L 76.3278 33.8264 L 77.2924 36.972 L 74.1994 38.4864 L 70.6923 36.9526 L 71.5274 33.7487 Z " stroke-width="0.9999999964970204"/>
  <path id="ID0.44800941413268447" fill="none" stroke="#33383A" stroke-width="1.0503597406252307" stroke-linecap="round" d="M 70.9199 25.0445 L 71.7103 22.473 L 70.2496 19.1152 "/>
  <path id="ID0.44800941413268447" fill="none" stroke="#33383A" stroke-width="1.050359715469518" stroke-linecap="round" d="M 75.4016 24.8719 L 74.5874 22.3078 L 76.0168 18.9366 "/>
  <g id="ID0.32985211815685034">
    <g id="ID0.08651347272098064">
      <g id="ID0.07771636918187141">
        <path id="ID0.7001032647676766" fill="none" stroke="#646B70" stroke-width="0.5238094907531493" stroke-linecap="round" d="M 64.9754 39.9277 C 64.9754 39.9277 64.9127 40.296 64.8732 40.4782 C 64.836 40.6497 64.6813 40.8259 64.7446 40.9895 C 64.8101 41.1589 65.0185 41.2465 65.1913 41.3017 C 65.3576 41.3547 65.5407 41.298 65.7151 41.2993 C 65.8896 41.3006 66.1554 41.4631 66.239 41.31 C 66.4395 40.9437 66.3904 40.0652 66.3904 40.0652 "/>
        <path id="ID0.7001032647676766" fill="none" stroke="#646B70" stroke-width="0.5238094907531493" stroke-linecap="round" d="M 66.4754 39.9208 C 66.4754 39.9208 66.4127 40.289 66.3732 40.4713 C 66.336 40.6427 66.1813 40.8189 66.2446 40.9826 C 66.3101 41.152 66.5185 41.2395 66.6913 41.2948 C 66.8576 41.3477 67.0407 41.2911 67.2151 41.2923 C 67.3896 41.2936 67.6554 41.4561 67.739 41.303 C 67.9395 40.9367 67.8903 40.0582 67.8903 40.0582 "/>
      </g>
      <g id="ID0.07771636918187141">
        <path id="ID0.7001032647676766" fill="none" stroke="#646B70" stroke-width="0.5238094907531493" stroke-linecap="round" d="M 68.1261 40.0631 C 68.1261 40.0631 68.0634 40.4314 68.0239 40.6136 C 67.9867 40.785 67.8319 40.9612 67.8953 41.1249 C 67.9608 41.2943 68.1691 41.3819 68.342 41.4371 C 68.5083 41.49 68.6914 41.4334 68.8658 41.4347 C 69.0402 41.436 69.306 41.5984 69.3897 41.4453 C 69.5902 41.0791 69.541 40.2006 69.541 40.2006 "/>
        <path id="ID0.7001032647676766" fill="none" stroke="#646B70" stroke-width="0.5238094907531493" stroke-linecap="round" d="M 69.5765 40.1564 C 69.5765 40.1564 69.5138 40.5246 69.4743 40.7069 C 69.4371 40.8783 69.2824 41.0545 69.3457 41.2182 C 69.4112 41.3876 69.6196 41.4751 69.7924 41.5304 C 69.9587 41.5833 70.1418 41.5267 70.3162 41.5279 C 70.4907 41.5292 70.7565 41.6917 70.8401 41.5386 C 71.0406 41.1723 70.9915 40.2938 70.9915 40.2938 "/>
      </g>
      <path id="ID0.7001032647676766" fill="none" stroke="#646B70" stroke-width="0.5238095031508867" stroke-linecap="round" d="M 71.1252 40.319 C 71.1252 40.319 71.1014 40.6918 71.0813 40.8771 C 71.0623 41.0515 70.9268 41.243 71.007 41.3991 C 71.0899 41.5607 71.3062 41.626 71.4839 41.6628 C 71.6549 41.698 71.831 41.6225 72.0046 41.6055 C 72.1782 41.5885 72.4596 41.7222 72.5267 41.5612 C 72.6877 41.1759 72.5468 40.3074 72.5468 40.3074 "/>
    </g>
    <g id="ID0.08651347272098064">
      <g id="ID0.07771636918187141">
        <path id="ID0.7001032647676766" fill="none" stroke="#646B70" stroke-width="0.5238094907531493" stroke-linecap="round" d="M 80.1896 39.8571 C 80.1896 39.8571 80.2557 40.2247 80.2969 40.4066 C 80.3356 40.5777 80.492 40.7524 80.4302 40.9167 C 80.3663 41.0867 80.1588 41.1762 79.9864 41.233 C 79.8206 41.2875 79.637 41.2326 79.4626 41.2355 C 79.2882 41.2384 79.0239 41.4033 78.9389 41.251 C 78.735 40.8866 78.776 40.0077 78.776 40.0077 "/>
        <path id="ID0.7001032647676766" fill="none" stroke="#646B70" stroke-width="0.5238094907531493" stroke-linecap="round" d="M 78.6896 39.864 C 78.6896 39.864 78.7557 40.2317 78.7969 40.4136 C 78.8357 40.5847 78.992 40.7594 78.9302 40.9237 C 78.8663 41.0937 78.6588 41.1832 78.4864 41.24 C 78.3206 41.2945 78.137 41.2395 77.9626 41.2424 C 77.7882 41.2453 77.5239 41.4103 77.4389 41.258 C 77.235 40.8935 77.276 40.0147 77.276 40.0147 "/>
      </g>
      <g id="ID0.07771636918187141">
        <path id="ID0.7001032647676766" fill="none" stroke="#646B70" stroke-width="0.5238094907531493" stroke-linecap="round" d="M 76.9903 40.0219 C 76.9903 40.0219 77.0564 40.3896 77.0976 40.5714 C 77.1364 40.7426 77.2928 40.9173 77.2309 41.0815 C 77.167 41.2516 76.9595 41.341 76.7871 41.3979 C 76.6214 41.4524 76.4378 41.3974 76.2633 41.4003 C 76.0889 41.4032 75.8246 41.5682 75.7396 41.4159 C 75.5357 41.0514 75.5767 40.1726 75.5767 40.1726 "/>
        <path id="ID0.7001032647676766" fill="none" stroke="#646B70" stroke-width="0.5238094907531493" stroke-linecap="round" d="M 75.4908 40.1289 C 75.4908 40.1289 75.5569 40.4966 75.5981 40.6784 C 75.6369 40.8495 75.7932 41.0243 75.7314 41.1885 C 75.6675 41.3585 75.46 41.448 75.2876 41.5049 C 75.1218 41.5593 74.9382 41.5044 74.7638 41.5073 C 74.5894 41.5102 74.3251 41.6751 74.2401 41.5228 C 74.0362 41.1584 74.0772 40.2795 74.0772 40.2795 "/>
      </g>
      <path id="ID0.7001032647676766" fill="none" stroke="#646B70" stroke-width="0.5238095031508867" stroke-linecap="round" d="M 74.0437 40.3054 C 74.0437 40.3054 74.0709 40.678 74.0928 40.8631 C 74.1134 41.0374 74.2506 41.2276 74.1719 41.3844 C 74.0906 41.5468 73.8748 41.614 73.6974 41.6525 C 73.5268 41.6893 73.35 41.6154 73.1763 41.6 C 73.0025 41.5846 72.7224 41.7209 72.6538 41.5606 C 72.4892 41.1768 72.6221 40.307 72.6221 40.307 "/>
    </g>
  </g>
  <path id="ID0.7001032647676766" fill="none" stroke="#646B70" stroke-width="0.523809538994664" stroke-linecap="round" d="M 65.1845 43.2043 C 65.1845 43.2043 65.1184 42.8366 65.0772 42.6548 C 65.0384 42.4837 64.882 42.3089 64.9439 42.1447 C 65.0078 41.9746 65.2153 41.8852 65.3876 41.8283 C 65.5534 41.7738 65.737 41.8288 65.9115 41.8259 C 66.0859 41.823 66.3502 41.6581 66.4352 41.8103 C 66.6391 42.1748 66.5981 43.0537 66.5981 43.0537 "/>
  <path id="ID0.7001032647676766" fill="none" stroke="#646B70" stroke-width="0.523809538994664" stroke-linecap="round" d="M 66.6845 43.2043 C 66.6845 43.2043 66.6184 42.8366 66.5772 42.6548 C 66.5384 42.4837 66.382 42.3089 66.4439 42.1447 C 66.5078 41.9746 66.7153 41.8852 66.8876 41.8283 C 67.0534 41.7738 67.237 41.8288 67.4115 41.8259 C 67.5859 41.823 67.8502 41.6581 67.9352 41.8103 C 68.1391 42.1748 68.0981 43.0537 68.0981 43.0537 "/>
  <g id="ID0.07771636918187141">
    <path id="ID0.7001032647676766" fill="none" stroke="#646B70" stroke-width="0.5238095503577939" stroke-linecap="round" d="M 67.8903 43.1285 C 67.8903 43.1285 67.8242 42.7608 67.783 42.579 C 67.7442 42.4079 67.5879 42.2332 67.6497 42.0689 C 67.7136 41.8989 67.9211 41.8094 68.0935 41.7526 C 68.2593 41.6981 68.4429 41.753 68.6173 41.7501 C 68.7917 41.7472 69.056 41.5823 69.141 41.7346 C 69.3449 42.099 69.3039 42.9779 69.3039 42.9779 "/>
    <path id="ID0.7001032647676766" fill="none" stroke="#646B70" stroke-width="0.5238095503577939" stroke-linecap="round" d="M 69.3394 42.9218 C 69.3394 42.9218 69.2732 42.5541 69.2321 42.3723 C 69.1933 42.2012 69.0369 42.0264 69.0987 41.8622 C 69.1626 41.6922 69.3702 41.6027 69.5425 41.5458 C 69.7083 41.4914 69.8919 41.5463 70.0663 41.5434 C 70.2407 41.5405 70.505 41.3756 70.5901 41.5279 C 70.794 41.8923 70.753 42.7712 70.753 42.7712 "/>
  </g>
  <path id="ID0.7001032647676766" fill="none" stroke="#646B70" stroke-width="0.523809536642372" stroke-linecap="round" d="M 71.365 43.3695 C 71.365 43.3695 71.3378 42.997 71.3159 42.8118 C 71.2953 42.6376 71.1581 42.4474 71.2368 42.2906 C 71.3181 42.1282 71.5339 42.0609 71.7113 42.0225 C 71.8819 41.9857 72.0587 42.0595 72.2324 42.0749 C 72.4062 42.0903 72.6863 41.954 72.7549 42.1144 C 72.9195 42.4982 72.7866 43.3679 72.7866 43.3679 "/>
  <path id="ID0.7001032647676766" fill="none" stroke="#646B70" stroke-width="0.523809538994664" stroke-linecap="round" d="M 81.0002 42.9607 C 81.0002 42.9607 81.0629 42.5925 81.1024 42.4103 C 81.1396 42.2388 81.2943 42.0626 81.231 41.899 C 81.1655 41.7295 80.9571 41.642 80.7843 41.5867 C 80.618 41.5338 80.4349 41.5905 80.2605 41.5892 C 80.0861 41.5879 79.8203 41.4254 79.7366 41.5785 C 79.5361 41.9448 79.5853 42.8233 79.5853 42.8233 "/>
  <path id="ID0.7001032647676766" fill="none" stroke="#646B70" stroke-width="0.523809538994664" stroke-linecap="round" d="M 79.5002 43.0107 C 79.5002 43.0107 79.5629 42.6425 79.6024 42.4603 C 79.6396 42.2888 79.7943 42.1126 79.731 41.949 C 79.6655 41.7795 79.4571 41.692 79.2843 41.6367 C 79.118 41.5838 78.9349 41.6405 78.7605 41.6392 C 78.5861 41.6379 78.3203 41.4754 78.2366 41.6285 C 78.0361 41.9948 78.0853 42.8733 78.0853 42.8733 "/>
  <path id="ID0.7001032647676766" fill="none" stroke="#646B70" stroke-width="0.523809538994664" stroke-linecap="round" d="M 77.7502 43.1107 C 77.7502 43.1107 77.8129 42.7425 77.8524 42.5603 C 77.8896 42.3888 78.0443 42.2126 77.981 42.049 C 77.9155 41.8795 77.7071 41.792 77.5343 41.7367 C 77.368 41.6838 77.1849 41.7405 77.0105 41.7392 C 76.8361 41.7379 76.5703 41.5754 76.4866 41.7285 C 76.2861 42.0948 76.3353 42.9733 76.3353 42.9733 "/>
  <path id="ID0.7001032647676766" fill="none" stroke="#646B70" stroke-width="0.523809538994664" stroke-linecap="round" d="M 76.2502 43.2107 C 76.2502 43.2107 76.3129 42.8425 76.3524 42.6603 C 76.3896 42.4888 76.5443 42.3126 76.481 42.149 C 76.4155 41.9795 76.2071 41.892 76.0343 41.8367 C 75.868 41.7838 75.6849 41.8405 75.5105 41.8392 C 75.3361 41.8379 75.0703 41.6754 74.9866 41.8285 C 74.7861 42.1948 74.8353 43.0733 74.8353 43.0733 "/>
  <path id="ID0.7001032647676766" fill="none" stroke="#646B70" stroke-width="0.5238095633350104" stroke-linecap="round" d="M 74.685 43.1057 C 74.685 43.1057 74.7088 42.7329 74.7289 42.5476 C 74.7479 42.3732 74.8834 42.1817 74.8032 42.0256 C 74.7203 41.864 74.5039 41.7987 74.3263 41.7619 C 74.1553 41.7267 73.9792 41.8022 73.8056 41.8192 C 73.632 41.8362 73.3506 41.7025 73.2835 41.8635 C 73.1225 42.2488 73.2634 43.1173 73.2634 43.1173 "/>
  <path id="ID0.44800941413268447" fill="none" stroke="#2E3234" stroke-width="0.6130029092879872" stroke-linecap="round" d="M 76.1356 34.4266 L 74.322 33.1335 L 71.0212 34.1929 "/>
  <path id="ID0.44800941413268447" fill="none" stroke="#33383A" stroke-width="1.0503597291091078" stroke-linecap="round" d="M 74.5691 28.2989 L 76.1772 23.9849 L 80.551 21.5225 L 87.1163 21.6233 "/>
  <g id="ID0.6897007944062352">
    <path id="ID0.2692581438459456" fill="#7AABFF" stroke="none" d="M 82.8884 24.8372 C 82.5692 24.7478 82.2445 24.7969 81.9769 24.9475 C 81.7092 25.098 81.4986 25.3499 81.4092 25.6691 C 81.3198 25.9882 81.3689 26.3129 81.5194 26.5806 C 81.6699 26.8483 81.9219 27.0589 82.241 27.1483 C 82.5602 27.2377 82.8849 27.1886 83.1525 27.0381 C 83.4202 26.8875 83.6308 26.6356 83.7202 26.3164 C 83.8096 25.9973 83.7605 25.6726 83.61 25.4049 C 83.4595 25.1372 83.2075 24.9266 82.8884 24.8372 Z " stroke-width="1.142857177034802"/>
    <path id="ID0.8070062398910522" fill="#192334" stroke="none" d="M 82.6984 25.5054 C 82.5657 25.4682 82.4298 25.4878 82.3186 25.5513 C 82.2066 25.6134 82.1192 25.7193 82.082 25.852 C 82.0449 25.9846 82.0645 26.1205 82.128 26.2318 C 82.1901 26.3438 82.296 26.4311 82.4286 26.4683 C 82.5613 26.5055 82.6972 26.4858 82.8084 26.4224 C 82.9204 26.3603 83.0078 26.2544 83.045 26.1217 C 83.0821 25.989 83.0625 25.8531 82.999 25.7419 C 82.937 25.6299 82.831 25.5425 82.6984 25.5054 Z " stroke-width="1.1111112107524224"/>
  </g>
  <g id="ID0.5823970721103251">
    <path id="ID0.2692581438459456" fill="#7AABFF" stroke="none" d="M 66.5881 25.1129 C 66.9064 25.0206 67.2315 25.0667 67.5006 25.2147 C 67.7696 25.3627 67.9826 25.6127 68.0749 25.931 C 68.1673 26.2493 68.1212 26.5745 67.9732 26.8435 C 67.8252 27.1126 67.5752 27.3255 67.2569 27.4179 C 66.9386 27.5102 66.6134 27.4642 66.3444 27.3161 C 66.0753 27.1681 65.8624 26.9181 65.77 26.5998 C 65.6777 26.2815 65.7237 25.9563 65.8718 25.6873 C 66.0198 25.4182 66.2698 25.2053 66.5881 25.1129 Z " stroke-width="1.1428571770348022"/>
    <path id="ID0.8070062398910522" fill="#192334" stroke="none" d="M 66.8838 25.6788 C 67.0161 25.6404 67.1522 25.6588 67.264 25.7212 C 67.3766 25.7823 67.465 25.8874 67.5034 26.0197 C 67.5417 26.152 67.5234 26.2881 67.461 26.3999 C 67.3999 26.5125 67.2948 26.6008 67.1625 26.6392 C 67.0302 26.6776 66.8941 26.6592 66.7823 26.5968 C 66.6697 26.5358 66.5814 26.4307 66.543 26.2983 C 66.5046 26.166 66.5229 26.03 66.5854 25.9181 C 66.6464 25.8056 66.7515 25.7172 66.8838 25.6788 Z " stroke-width="1.1111112107524224"/>
  </g>
  <path id="ID0.023752907756716013" fill="none" stroke="#584E44" stroke-width="1.1814345642884656" stroke-linecap="round" d="M 62.731 23.7593 L 66.0291 23.9229 L 68.4086 24.9032 "/>
  <path id="ID0.023752907756716013" fill="none" stroke="#584E44" stroke-width="1.1814345512385096" stroke-linecap="round" d="M 84.9277 24.0621 L 81.6313 24.2563 L 79.261 25.2587 "/>
</svg>